<?xml version="1.0" standalone="no"?>
<!DOCTYPE svg PUBLIC "-//W3C//DTD SVG 20010904//EN"
 "http://www.w3.org/TR/2001/REC-SVG-20010904/DTD/svg10.dtd">
<svg version="1.0" xmlns="http://www.w3.org/2000/svg"
 width="412.000000pt" height="256.000000pt" viewBox="0 0 412.000000 256.000000"
 preserveAspectRatio="xMidYMid meet">
<metadata>
Created by potrace 1.16, written by Peter Selinger 2001-2019
</metadata>
<g transform="translate(0.000000,256.000000) scale(0.100000,-0.100000)"
fill="#000000" stroke="none">
<path d="M2883 2453 c4 -3 10 -3 14 0 3 4 0 7 -7 7 -7 0 -10 -3 -7 -7z"/>
<path d="M3607 2445 c-49 -14 -83 -33 -37 -22 14 4 32 7 41 7 8 0 24 7 35 15
22 17 23 17 -39 0z"/>
<path d="M2852 2439 c2 -6 22 -17 43 -25 48 -17 45 -16 45 -4 0 5 -18 13 -40
16 -22 4 -37 10 -34 15 3 5 0 9 -6 9 -7 0 -10 -5 -8 -11z"/>
<path d="M2621 2432 c0 -8 -9 -10 -23 -7 -14 3 -37 -3 -58 -17 -19 -12 -43
-21 -54 -19 -12 2 -16 -1 -11 -9 5 -7 19 -10 39 -6 21 4 26 3 17 -3 -12 -8
-12 -12 -2 -24 13 -16 -19 -97 -39 -97 -5 0 -19 -15 -31 -32 -22 -33 -22 -33
9 -4 30 28 33 28 50 13 10 -9 22 -17 27 -17 4 0 -2 9 -14 20 -23 19 -23 19 -1
49 11 17 22 46 23 65 3 48 14 35 22 -25 6 -41 4 -54 -11 -71 -19 -21 -19 -21
4 -9 19 10 27 32 23 67 -2 14 11 24 71 57 46 26 46 26 72 2 25 -23 26 -23 39
-5 17 24 61 31 62 10 0 -20 35 -26 35 -6 0 9 -6 16 -14 16 -8 0 -24 12 -35 26
-12 15 -22 24 -22 20 -1 -3 -2 -10 -3 -15 -2 -15 -16 -26 -16 -13 0 18 -27 14
-34 -4 -3 -8 -11 -12 -17 -8 -8 4 -7 9 2 16 10 6 6 7 -11 2 -14 -3 -30 -11
-37 -16 -17 -14 -51 7 -56 34 -2 13 -5 17 -6 10z m-33 -26 c-10 -7 -15 -16
-12 -19 3 -3 -3 -3 -15 0 -27 7 -26 11 2 23 32 13 45 11 25 -4z m32 -15 c0 -6
-4 -13 -10 -16 -5 -3 -10 1 -10 9 0 9 5 16 10 16 6 0 10 -4 10 -9z m16 -26
c-11 -8 -25 -15 -30 -15 -6 1 0 7 14 15 32 19 40 18 16 0z m-39 -32 c-4 -3
-10 -3 -14 0 -3 4 0 7 7 7 7 0 10 -3 7 -7z"/>
<path d="M2663 2423 c-13 -2 -23 -9 -23 -14 0 -6 5 -7 10 -4 6 3 10 2 10 -3 0
-6 10 -5 25 1 14 7 25 15 25 20 0 7 -9 7 -47 0z"/>
<path d="M2960 2420 c-9 -6 -10 -10 -3 -10 6 0 15 5 18 10 8 12 4 12 -15 0z"/>
<path d="M3336 2423 c-3 -4 -12 -8 -19 -9 -30 -5 -81 -33 -62 -34 11 0 32 8
45 17 14 10 27 17 30 17 3 -1 11 1 18 4 7 2 24 0 38 -7 34 -15 42 -14 18 4
-20 15 -56 20 -68 8z"/>
<path d="M3445 2413 c6 -21 3 -23 -27 -24 -33 -1 -33 -1 -3 -8 29 -6 41 -2
108 36 12 7 16 13 9 13 -7 0 -24 -8 -39 -17 -24 -16 -26 -16 -40 3 -15 18 -15
18 -8 -3z"/>
<path d="M3087 2382 c-14 -9 -31 -27 -38 -41 -23 -45 -22 -47 5 -9 16 22 38
40 54 44 15 3 31 7 37 8 5 1 0 5 -11 8 -12 3 -33 -2 -47 -10z"/>
<path d="M3590 2386 c0 -2 7 -7 16 -10 8 -3 12 -2 9 4 -6 10 -25 14 -25 6z"/>
<path d="M2893 2373 c4 -3 10 -3 14 0 3 4 0 7 -7 7 -7 0 -10 -3 -7 -7z"/>
<path d="M3033 2275 c8 -15 -1 -27 -51 -69 -52 -42 -47 -48 8 -9 50 36 66 61
49 77 -7 6 -9 6 -6 1z"/>
<path d="M3530 2253 c-66 -42 -75 -53 -16 -20 48 28 65 33 91 27 18 -4 44 -2
59 4 24 10 20 11 -36 11 -49 0 -72 -5 -98 -22z"/>
<path d="M3703 2273 c4 -3 10 -3 14 0 3 4 0 7 -7 7 -7 0 -10 -3 -7 -7z"/>
<path d="M3821 2253 c-1 -12 4 -25 9 -28 12 -7 12 2 0 30 -8 19 -9 19 -9 -2z"/>
<path d="M3997 2230 c-7 -28 -52 -36 -93 -17 -47 23 -42 14 12 -22 47 -32 64
-33 64 -3 1 12 5 10 15 -8 14 -24 14 -24 15 23 0 50 -4 60 -13 27z"/>
<path d="M2565 2210 c3 -5 8 -10 11 -10 2 0 4 5 4 10 0 6 -5 10 -11 10 -5 0
-7 -4 -4 -10z"/>
<path d="M3055 2181 c-11 -5 -28 -18 -39 -29 -14 -16 -26 -20 -48 -15 -21 4
-35 0 -51 -14 -30 -28 -85 -55 -127 -64 -33 -6 -33 -7 -6 -8 32 -1 126 40 146
64 16 19 39 19 46 0 5 -11 14 -6 42 20 30 29 45 35 82 36 37 1 41 2 20 9 -32
10 -41 10 -65 1z"/>
<path d="M3285 2150 c-20 -4 -3 -7 53 -7 45 0 84 2 86 6 6 9 -103 10 -139 1z"/>
<path d="M2896 2035 c-15 -19 -23 -35 -17 -35 5 0 18 16 30 35 11 19 19 35 17
35 -2 0 -16 -16 -30 -35z"/>
<path d="M4008 1915 c2 -14 6 -25 8 -25 2 0 4 11 4 25 0 14 -4 25 -9 25 -4 0
-6 -11 -3 -25z"/>
<path d="M2909 1829 c-23 -19 -23 -20 -2 -10 12 6 25 16 28 21 10 16 -1 12
-26 -11z"/>
<path d="M2844 1788 c-4 -7 -3 -8 4 -4 12 7 16 16 8 16 -3 0 -8 -5 -12 -12z"/>
<path d="M988 1683 c-23 -6 -25 11 23 -257 23 -127 42 -238 43 -246 1 -12 -11
-15 -59 -14 -177 2 -216 5 -210 14 3 6 1 10 -4 10 -6 0 -11 -3 -11 -8 0 -8
-150 -7 -285 3 -49 4 -115 8 -145 10 -30 2 -66 6 -80 10 -14 4 -35 7 -46 6
-15 0 -24 7 -28 24 -4 14 -11 25 -16 25 -15 0 -12 -37 3 -43 7 -3 5 -6 -5 -6
-13 -1 -18 7 -18 29 0 20 -5 30 -15 30 -16 0 -18 8 -15 53 1 15 -5 49 -14 75
-8 26 -18 64 -21 84 -3 21 -11 40 -17 44 -8 5 -9 0 -4 -17 17 -63 18 -108 2
-140 -20 -41 -21 -41 9 -27 19 8 24 17 20 32 -5 20 -5 20 6 0 9 -18 7 -26 -10
-43 -25 -25 -26 -39 -4 -63 10 -11 12 -18 5 -19 -7 -1 -18 -2 -24 -3 -9 -1
-14 -22 -15 -61 -1 -33 -4 -79 -8 -103 -4 -33 -2 -41 7 -36 8 5 7 0 -2 -11
-11 -14 -12 -19 -2 -22 6 -3 10 -8 7 -12 -2 -5 5 -8 17 -7 25 1 37 56 12 56
-8 0 -14 7 -14 16 0 8 4 12 10 9 5 -3 11 -1 11 4 1 6 3 16 4 21 1 6 3 17 4 25
0 8 6 15 12 15 6 0 9 -7 5 -15 -9 -24 7 -50 34 -53 35 -5 107 -10 385 -27 132
-9 323 -22 425 -30 334 -26 346 -26 330 -16 -8 6 -33 11 -55 11 -40 0 -40 0
-10 24 29 24 35 25 178 24 81 0 147 -4 147 -9 0 -4 43 -7 95 -5 60 1 96 -2 99
-8 3 -7 5 -6 5 1 1 7 8 10 16 7 11 -5 15 1 14 22 -1 17 -3 22 -6 12 -2 -10 -9
-18 -14 -18 -5 0 -9 8 -10 18 0 10 -3 12 -6 5 -2 -7 -13 -13 -23 -13 -10 0
-21 6 -23 13 -4 9 -6 9 -6 -1 -1 -7 -5 -10 -11 -7 -5 3 -19 1 -30 -5 -11 -6
-20 -7 -20 -3 0 4 -85 7 -190 5 -104 -1 -190 0 -190 2 0 2 7 20 15 39 21 50
19 58 -5 19 -26 -42 -38 -46 -91 -32 -93 24 -87 23 -64 4 20 -16 19 -16 -5 -8
-14 4 -43 7 -64 6 -26 -1 -36 2 -29 9 14 14 160 65 210 74 43 7 43 7 19 38
-13 18 -35 59 -49 92 -14 33 -45 103 -70 155 -24 52 -57 123 -72 158 -15 34
-30 61 -34 61 -3 -1 -14 -3 -23 -6z m26 -39 c9 -8 16 -27 16 -40 0 -14 4 -22
10 -19 6 3 10 4 10 2 0 -3 7 -21 15 -41 8 -20 11 -36 6 -36 -5 0 -11 14 -15
32 -3 17 -9 28 -12 25 -14 -14 20 -106 40 -109 17 -2 21 -11 22 -38 1 -20 5
-45 10 -55 6 -11 9 -40 8 -65 -1 -42 -3 -45 -29 -45 -29 0 -29 0 -31 71 -1 49
-8 86 -23 115 -29 61 -63 219 -47 219 3 0 12 -7 20 -16z m23 -246 c-3 -8 -6
-5 -6 6 -1 11 2 17 5 13 3 -3 4 -12 1 -19z m126 -113 c4 -8 3 -16 -1 -19 -4
-3 -9 4 -9 15 -2 23 3 25 10 4z m-1066 -67 c-3 -8 -6 -5 -6 6 -1 11 2 17 5 13
3 -3 4 -12 1 -19z m993 -13 c0 -19 -4 -35 -10 -35 -5 0 -10 16 -10 35 0 19 5
35 10 35 6 0 10 -16 10 -35z m45 -23 c-9 -9 -35 8 -35 24 0 16 2 16 20 -1 11
-10 18 -20 15 -23z m90 28 c3 -5 1 -10 -4 -10 -6 0 -11 5 -11 10 0 6 2 10 4
10 3 0 8 -4 11 -10z m-1128 -32 c-3 -8 -6 -5 -6 6 -1 11 2 17 5 13 3 -3 4 -12
1 -19z m60 -5 c-4 -3 -7 0 -7 7 0 7 3 10 7 7 3 -4 3 -10 0 -14z m110 0 c-4 -3
-10 -3 -14 0 -3 4 0 7 7 7 7 0 10 -3 7 -7z m206 -30 c-7 -2 -21 -2 -30 0 -10
3 -4 5 12 5 17 0 24 -2 18 -5z m480 -7 c-4 -5 1 -7 10 -3 9 3 19 2 22 -4 4 -5
-1 -12 -9 -15 -24 -9 -19 -24 7 -23 22 1 70 -7 96 -17 33 -11 -7 -22 -49 -13
-108 24 -139 29 -215 35 -44 3 -97 10 -117 14 -21 4 -36 4 -33 0 9 -15 -12
-20 -46 -13 -33 7 -33 7 -9 14 24 7 24 7 -5 8 -16 1 -37 6 -45 11 -11 8 -2 10
33 8 26 -1 47 -4 47 -7 0 -3 24 -6 53 -6 28 -1 93 -4 142 -8 82 -6 87 -5 55 7
-35 14 -35 14 0 17 57 6 69 5 63 -5z m-416 -2 c-3 -3 -12 -4 -19 -1 -8 3 -5 6
6 6 11 1 17 -2 13 -5z m-189 -22 c3 -9 -22 -12 -107 -10 -168 4 -136 23 38 23
43 0 66 -4 69 -13z m178 1 c43 -6 45 -8 20 -13 -40 -7 -126 0 -126 11 0 11 40
12 106 2z m357 -41 c16 -7 41 -12 56 -12 18 0 28 -5 28 -15 0 -17 -13 -20 -22
-5 -3 6 -25 10 -48 10 -31 0 -38 -3 -27 -10 8 -5 11 -10 7 -10 -4 0 -20 8 -35
17 -26 17 -26 17 -13 0 12 -15 12 -17 -3 -11 -9 3 -16 10 -16 15 0 5 -7 9 -16
9 -8 0 -12 -4 -9 -10 3 -5 1 -10 -4 -10 -6 0 -11 5 -11 10 0 6 -7 10 -15 10
-8 0 -15 -5 -15 -11 0 -5 -4 -7 -10 -4 -28 17 -155 33 -130 16 11 -8 6 -9 -20
-6 -19 2 -80 8 -135 12 -150 10 -67 18 190 17 145 0 230 -4 248 -12z m291 9
c4 -5 -3 -7 -14 -4 -23 6 -26 13 -6 13 8 0 17 -4 20 -9z"/>
<path d="M1010 1620 c0 -7 3 -10 7 -7 3 4 3 10 0 14 -4 3 -7 0 -7 -7z"/>
<path d="M4015 1670 c3 -5 8 -10 11 -10 2 0 4 5 4 10 0 6 -5 10 -11 10 -5 0
-7 -4 -4 -10z"/>
<path d="M4000 1622 c0 -5 7 -15 15 -22 8 -7 15 -8 15 -2 0 5 -7 15 -15 22 -8
7 -15 8 -15 2z"/>
<path d="M4029 1544 c-9 -35 6 -213 19 -226 19 -19 22 -5 7 37 -8 22 -14 74
-14 115 0 70 1 73 14 50 8 -14 14 -20 15 -14 0 7 -8 22 -18 35 -18 21 -19 21
-23 3z"/>
<path d="M4001 1454 c0 -11 3 -14 6 -6 3 7 2 16 -1 19 -3 4 -6 -2 -5 -13z"/>
<path d="M4001 1398 c-1 -21 4 -38 9 -38 12 0 12 27 0 55 -7 16 -9 13 -9 -17z"/>
<path d="M3759 1354 c-4 -32 1 -106 7 -117 6 -9 4 -9 -7 -1 -8 6 -23 9 -34 7
-11 -3 -57 -4 -103 -3 -46 0 -89 -3 -95 -8 -8 -6 -35 -5 -77 4 -103 22 -114
15 -15 -10 127 -31 204 -69 261 -127 26 -27 42 -49 35 -49 -8 0 -19 8 -26 17
-7 9 -21 18 -31 19 -50 8 -181 13 -200 8 -22 -6 -50 -59 -36 -68 25 -15 156
-4 168 15 3 5 0 9 -5 9 -6 0 -11 7 -11 15 0 22 16 18 34 -9 14 -22 23 -24 83
-25 57 0 73 -5 107 -28 76 -54 99 -141 43 -169 -152 -77 -190 -94 -209 -94
-13 0 -30 -4 -38 -10 -9 -6 -17 -5 -22 3 -6 9 -8 9 -8 0 0 -6 -18 -14 -40 -18
-24 -4 -40 -12 -40 -21 0 -7 -6 -11 -14 -8 -8 3 -12 12 -9 20 3 8 0 14 -6 14
-6 0 -11 -7 -11 -16 0 -13 -5 -11 -21 7 -15 17 -19 19 -15 7 3 -10 1 -18 -4
-18 -6 0 -10 5 -10 10 0 6 -4 10 -10 10 -5 0 -7 -7 -4 -15 5 -12 -3 -15 -42
-15 -27 0 -56 0 -64 0 -33 -2 -263 11 -270 15 -4 2 -33 7 -66 10 -32 2 -111
10 -174 16 -63 6 -173 13 -245 15 -71 2 -157 9 -190 15 -59 10 -165 56 -165
72 0 5 -4 5 -10 2 -5 -3 -10 -2 -10 4 0 5 8 15 18 20 15 9 15 10 0 11 -9 0
-24 7 -33 16 -18 18 -92 24 -103 9 -9 -13 -35 -18 -27 -5 4 6 -7 10 -27 10
-56 1 -291 19 -323 25 -21 4 -25 3 -15 -3 8 -5 35 -12 59 -16 63 -10 121 -44
121 -72 0 -17 9 -25 35 -34 19 -6 35 -16 35 -21 0 -5 8 -9 18 -9 15 0 15 2 2
11 -17 12 46 6 135 -12 28 -5 60 -10 73 -10 12 1 22 -3 22 -8 0 -11 -62 -12
-76 0 -8 6 -14 5 -18 -6 -6 -17 -126 -22 -126 -5 0 6 -11 10 -24 10 -13 0 -29
7 -36 15 -7 8 -18 15 -24 15 -7 0 -17 15 -24 34 -19 51 -64 70 -107 44 -67
-39 -87 -100 -52 -158 31 -52 55 -58 109 -29 17 9 19 8 16 -8 -2 -10 -11 -17
-21 -15 -9 2 -17 -1 -17 -5 0 -12 -38 -14 -45 -2 -4 5 -11 9 -16 9 -6 0 -7 -4
-4 -10 7 -11 -26 -6 -113 15 -56 14 -92 38 -92 61 0 8 -12 22 -27 31 -27 18
-27 18 2 24 23 5 25 7 8 8 -30 1 -40 21 -14 28 12 3 21 12 21 19 0 21 79 74
112 74 15 0 28 5 28 10 0 6 -20 10 -44 10 -25 0 -47 4 -50 9 -3 4 -31 11 -63
14 -32 4 -76 9 -98 13 -28 4 -35 2 -25 -4 8 -6 51 -15 95 -21 97 -14 107 -26
57 -68 -46 -40 -41 -40 -118 3 -81 45 -91 59 -35 50 23 -3 45 -7 49 -7 4 -1
18 -1 31 0 48 2 14 10 -94 21 -61 7 -118 16 -127 21 -24 13 -166 27 -180 17
-8 -5 -2 -8 17 -9 85 -2 124 -16 111 -38 -9 -15 -39 -14 -54 1 -7 7 -12 8 -11
3 1 -30 119 -85 119 -56 0 6 -13 11 -29 11 -17 0 -33 5 -36 10 -3 6 1 10 9 10
9 0 16 7 16 15 0 21 -16 28 218 -82 33 -16 40 -27 22 -38 -5 -3 -10 -1 -10 4
0 7 -31 10 -87 9 -88 -2 -88 -2 -3 -8 97 -7 99 -9 15 -15 -33 -3 -81 -7 -107
-10 -30 -4 -48 -2 -48 5 0 5 5 10 10 10 6 0 10 5 10 10 0 6 -3 9 -7 9 -20 -3
-33 2 -31 13 2 6 -17 22 -42 36 -25 13 -48 29 -52 35 -4 7 -8 9 -9 5 -2 -11
-6 -45 -8 -63 -1 -11 -13 -15 -45 -15 -25 0 -48 -4 -51 -10 -4 -6 6 -7 25 -4
19 4 30 2 30 -5 0 -15 -58 -14 -115 4 -49 14 -72 12 -45 -5 8 -5 11 -12 7 -17
-4 -4 -16 -2 -27 5 -10 6 -20 7 -22 2 -2 -7 -136 -14 -220 -11 -16 1 -18 12
-18 85 0 81 -1 84 -25 90 -47 12 -25 22 36 18 48 -4 60 -2 54 8 -6 10 11 12
79 8 47 -2 83 -1 79 3 -8 7 -77 13 -259 24 -42 3 -101 7 -131 10 -33 3 -52 2
-49 -4 4 -5 -7 -3 -24 5 -17 9 -62 16 -107 17 -78 2 -78 2 -79 -28 0 -31 11
-48 36 -57 11 -3 11 -6 -3 -11 -9 -3 -23 0 -31 8 -22 23 -39 19 -24 -5 10 -16
10 -24 0 -40 -22 -36 -16 -105 12 -118 25 -11 25 -11 1 -59 -14 -29 -20 -52
-14 -57 14 -15 11 -38 -3 -30 -9 5 -8 2 1 -10 12 -14 24 -16 65 -11 171 19
331 22 350 6 14 -12 94 -10 186 4 52 8 161 14 290 16 96 1 120 4 142 21 47 33
339 4 346 -34 4 -19 32 -18 -363 -24 -71 -1 -224 -4 -340 -8 -115 -4 -308 -8
-427 -10 -119 -2 -222 -7 -227 -11 -26 -16 -7 -25 42 -21 160 14 277 18 277 9
0 -6 191 -9 508 -9 453 1 513 -1 567 -16 63 -19 123 -23 240 -19 58 2 66 4 45
12 -14 6 -41 9 -60 8 -19 -1 -46 3 -60 10 -42 18 474 8 585 -12 105 -19 405
-69 585 -98 216 -33 418 -58 620 -74 107 -9 242 -23 300 -31 132 -20 141 -21
221 -28 67 -5 67 -5 66 57 -2 201 3 261 18 241 14 -19 14 -18 15 4 0 13 6 22
15 22 8 0 15 4 15 9 0 16 -32 22 -48 9 -13 -11 -15 -9 -9 21 6 27 4 32 -8 27
-14 -5 -15 3 -10 57 6 61 18 88 32 72 5 -4 2 -10 -4 -12 -7 -3 -13 -12 -13
-20 0 -11 5 -13 18 -8 9 4 25 7 35 7 14 -1 17 9 17 64 0 57 -2 64 -20 64 -12
0 -21 -7 -22 -17 0 -10 -4 5 -7 32 -3 28 -3 52 0 55 7 5 -25 142 -37 162 -5 8
-2 9 9 5 20 -7 22 4 5 21 -9 9 -8 12 5 12 9 0 17 5 17 11 0 6 -7 8 -16 5 -11
-4 -14 -1 -10 12 5 18 -15 106 -27 118 -10 10 -117 12 -117 2 0 -4 5 -8 10 -8
6 0 9 -23 8 -52 -1 -53 -1 -53 -8 -3 -6 50 -6 50 -11 5 -5 -44 -6 -44 -7 13
-2 69 -17 69 -21 0 -3 -65 -11 -68 -11 -5 0 52 0 52 -34 52 -19 0 -41 3 -50 6
-9 3 -16 2 -17 -2z m91 -40 c0 -20 -4 -24 -17 -20 -10 3 -25 1 -33 -4 -11 -7
-7 -10 18 -10 22 0 32 -5 32 -15 0 -8 -7 -15 -15 -15 -8 0 -15 5 -15 11 0 8
-5 8 -15 -1 -17 -14 -21 -7 -28 48 -3 31 -3 32 35 32 34 0 38 -3 38 -26z m117
-51 c-3 -10 -5 -2 -5 17 0 19 2 27 5 18 2 -10 2 -26 0 -35z m-30 -5 c-3 -8 -6
-5 -6 6 -1 11 2 17 5 13 3 -3 4 -12 1 -19z m93 -8 c0 -13 -11 -13 -30 0 -12 8
-11 10 8 10 12 0 22 -4 22 -10z m-185 -20 c3 -5 1 -10 -4 -10 -6 0 -11 5 -11
10 0 6 2 10 4 10 3 0 8 -4 11 -10z m-185 -17 c-42 -5 -65 -23 -29 -23 22 -1
69 -30 69 -44 0 -6 -33 5 -40 14 -3 3 -32 18 -65 33 -60 27 -60 27 20 25 44
-1 64 -3 45 -5z m370 -14 c0 -6 -4 -7 -10 -4 -5 3 -10 11 -10 16 0 6 5 7 10 4
6 -3 10 -11 10 -16z m-262 -70 c-7 -5 -8 -9 -3 -9 6 0 10 -13 10 -30 0 -25
-14 -45 -16 -22 0 4 -3 24 -5 45 -3 25 -1 36 6 32 6 -4 11 7 12 27 1 33 1 33
5 -1 3 -21 0 -37 -9 -42z m89 54 c-4 -3 -7 0 -7 7 0 7 3 10 7 7 3 -4 3 -10 0
-14z m93 -23 c0 -5 -2 -10 -4 -10 -3 0 -8 5 -11 10 -3 6 -1 10 4 10 6 0 11 -4
11 -10z m-218 -29 c2 -17 1 -28 -4 -25 -8 5 -12 54 -4 54 2 0 6 -13 8 -29z
m111 -63 c19 6 27 0 27 -24 0 -14 4 -23 10 -19 6 4 11 -8 11 -27 2 -33 2 -33
9 2 5 23 8 28 9 13 0 -13 5 -23 10 -23 11 0 22 -40 15 -52 -3 -5 -12 -1 -20 9
-11 14 -13 15 -14 3 0 -11 -4 -10 -16 5 -8 11 -31 38 -52 59 -20 22 -31 36
-23 31 11 -6 13 -4 7 10 -3 10 -3 27 1 39 6 20 7 20 13 -4 3 -14 9 -24 13 -22z
m134 25 c-4 -3 -7 0 -7 7 0 7 3 10 7 7 3 -4 3 -10 0 -14z m40 0 c-4 -3 -7 0
-7 7 0 7 3 10 7 7 3 -4 3 -10 0 -14z m-493 -29 c8 -22 7 -34 -3 -34 -5 0 -11
11 -13 25 -6 28 6 34 16 9z m53 9 c-4 -3 -10 -3 -14 0 -3 4 0 7 7 7 7 0 10 -3
7 -7z m80 -20 c-4 -3 -7 0 -7 7 0 7 3 10 7 7 3 -4 3 -10 0 -14z m-170 0 c-4
-3 -10 -3 -14 0 -3 4 0 7 7 7 7 0 10 -3 7 -7z m200 0 c-4 -3 -10 -3 -14 0 -3
4 0 7 7 7 7 0 10 -3 7 -7z m-3127 -65 c0 -6 -13 -8 -31 -4 -17 3 -38 6 -45 6
-8 0 -14 3 -14 8 0 4 20 6 45 4 25 -2 45 -9 45 -14z m3447 -10 c-3 -8 -6 -5
-6 6 -1 11 2 17 5 13 3 -3 4 -12 1 -19z m-3590 5 c-4 -3 -10 -3 -14 0 -3 4 0
7 7 7 7 0 10 -3 7 -7z m5 -19 c31 -3 62 -12 69 -20 10 -13 -3 -14 -99 -12 -62
2 -112 6 -112 10 0 3 -24 9 -52 13 -159 22 3 29 194 9z m41 9 c-7 -2 -19 -2
-25 0 -7 3 -2 5 12 5 14 0 19 -2 13 -5z m67 -52 c0 -5 -7 -11 -14 -14 -10 -4
-13 -1 -9 9 6 15 23 19 23 5z m-65 -11 c-3 -5 -2 -10 4 -10 8 0 9 -37 2 -73 0
-4 -50 -6 -109 -5 -105 2 -108 2 -110 25 -2 20 3 23 33 23 56 0 50 19 -7 23
-39 2 -29 4 37 6 73 3 126 10 153 20 2 0 0 -3 -3 -9z m812 3 c-4 -3 -10 -3
-14 0 -3 4 0 7 7 7 7 0 10 -3 7 -7z m-1137 -7 c0 -3 -4 -8 -10 -11 -5 -3 -10
-1 -10 4 0 6 5 11 10 11 6 0 10 -2 10 -4z m1698 -13 c-10 -2 -26 -2 -35 0 -10
3 -2 5 17 5 19 0 27 -2 18 -5z m249 -10 c-4 -3 -10 -3 -14 0 -3 4 0 7 7 7 7 0
10 -3 7 -7z m-1887 -23 c8 -5 11 -10 5 -10 -5 0 -17 5 -25 10 -8 5 -10 10 -5
10 6 0 17 -5 25 -10z m37 -7 c-4 -3 -7 0 -7 7 0 7 3 10 7 7 3 -4 3 -10 0 -14z
m1900 10 c-4 -3 -10 -3 -14 0 -3 4 0 7 7 7 7 0 10 -3 7 -7z m-1977 -23 c0 -11
-7 -20 -15 -20 -13 0 -13 3 -3 20 7 11 14 20 15 20 2 0 3 -9 3 -20z m1817 13
c-4 -3 -10 -3 -14 0 -3 4 0 7 7 7 7 0 10 -3 7 -7z m1948 -3 c-3 -5 -14 -10
-23 -10 -15 0 -15 2 -2 10 20 13 33 13 25 0z m69 -63 c-3 -9 -9 -15 -14 -12
-5 3 -11 1 -15 -5 -3 -5 1 -10 9 -10 11 0 16 -9 16 -30 0 -30 -24 -43 -32 -18
-5 14 -166 18 -240 5 -72 -12 -58 3 50 56 81 39 106 47 155 47 52 0 57 2 58
23 1 18 2 17 10 -8 5 -16 6 -38 3 -48z m43 56 c-4 -3 -7 0 -7 7 0 7 3 10 7 7
3 -4 3 -10 0 -14z m-3930 -10 c-4 -3 -7 0 -7 7 0 7 3 10 7 7 3 -4 3 -10 0 -14z
m1623 7 c0 -5 -5 -10 -11 -10 -5 0 -7 5 -4 10 3 6 8 10 11 10 2 0 4 -4 4 -10z
m-1510 -10 c0 -5 -4 -10 -10 -10 -5 0 -10 5 -10 10 0 6 5 10 10 10 6 0 10 -4
10 -10z m1680 0 c13 -9 13 -10 0 -10 -8 0 -22 5 -30 10 -13 9 -13 10 0 10 8 0
22 -5 30 -10z m240 1 c0 -4 -11 -6 -25 -3 -14 2 -25 6 -25 8 0 2 11 4 25 4 14
0 25 -4 25 -9z m-73 -8 c-4 -3 -10 -3 -14 0 -3 4 0 7 7 7 7 0 10 -3 7 -7z
m-34 -10 c-7 -2 -21 -2 -30 0 -10 3 -4 5 12 5 17 0 24 -2 18 -5z m-933 -13
c10 -6 1 -9 -30 -8 -33 0 -40 3 -25 9 27 10 37 10 55 -1z m-880 -4 c0 -3 -5
-8 -12 -12 -7 -4 -8 -3 -4 4 7 12 16 16 16 8z m219 -5 c12 -8 13 -12 1 -26
-12 -14 -15 -14 -34 4 -14 12 -28 16 -40 12 -14 -5 -16 -10 -8 -15 7 -4 10
-12 7 -17 -4 -5 9 -9 27 -10 25 0 29 -2 14 -8 -25 -10 -31 -47 -9 -55 9 -4 20
-1 25 6 7 10 9 9 5 -2 -7 -29 -235 -44 -261 -17 -19 18 -30 57 -17 57 6 0 11
-8 11 -18 0 -9 9 -23 20 -29 16 -11 18 -10 14 2 -5 11 -2 13 10 9 10 -4 18 0
22 10 3 9 10 16 16 16 5 0 6 -4 3 -10 -3 -5 1 -10 9 -10 9 0 16 9 16 20 0 11
-4 20 -10 20 -5 0 -10 7 -10 15 0 20 17 19 29 -2 8 -14 10 -15 10 -3 0 15 -28
59 -32 51 -1 -2 -9 -2 -17 2 -8 3 30 6 85 6 55 0 106 -3 114 -8z m578 2 c-4
-3 -10 -3 -14 0 -3 4 0 7 7 7 7 0 10 -3 7 -7z m367 -48 c-7 -17 -20 -20 -28
-6 -4 5 0 12 6 14 23 9 28 7 22 -8z m466 5 c0 -5 -4 -10 -10 -10 -5 0 -10 5
-10 10 0 6 5 10 10 10 6 0 10 -4 10 -10z m-513 -7 c-4 -3 -10 -3 -14 0 -3 4 0
7 7 7 7 0 10 -3 7 -7z m936 0 c4 -3 75 -7 158 -9 83 -1 153 -5 157 -8 14 -15
-18 -25 -84 -27 -39 -1 -106 -8 -149 -14 -78 -12 -78 -12 -89 16 -8 22 -17 29
-38 29 -15 0 -28 5 -28 10 0 11 63 14 73 3z m40 0 c-7 -2 -19 -2 -25 0 -7 3
-2 5 12 5 14 0 19 -2 13 -5z m-2073 -7 c0 -3 -5 -8 -12 -12 -7 -4 -8 -3 -4 4
7 12 16 16 16 8z m1637 -3 c-4 -3 -10 -3 -14 0 -3 4 0 7 7 7 7 0 10 -3 7 -7z
m30 0 c-4 -3 -10 -3 -14 0 -3 4 0 7 7 7 7 0 10 -3 7 -7z m-1442 -23 c3 -5 -1
-10 -9 -10 -9 0 -16 5 -16 10 0 6 4 10 9 10 6 0 13 -4 16 -10z m46 -20 c5 0 9
5 9 11 0 6 9 8 20 4 40 -13 219 -8 236 6 14 12 16 11 13 -6 -4 -18 -13 -20
-93 -21 -48 -1 -101 -4 -117 -8 -49 -9 -89 3 -88 28 1 17 2 17 6 4 2 -10 9
-18 14 -18z m426 13 c-4 -3 -7 0 -7 7 0 7 3 10 7 7 3 -4 3 -10 0 -14z m130 0
c-4 -3 -7 0 -7 7 0 7 3 10 7 7 3 -4 3 -10 0 -14z m1003 -12 c0 -27 -3 -29 -57
-35 -76 -9 -203 3 -203 19 0 32 37 41 173 44 87 1 87 1 87 -28z m805 14 c11
-1 26 -3 33 -4 6 0 12 -6 12 -12 0 -8 -11 -9 -31 -5 -25 5 -30 3 -25 -9 3 -9
0 -15 -9 -15 -9 0 -12 6 -9 15 5 12 -5 15 -59 15 -36 0 -77 4 -91 10 -16 6
-27 6 -31 0 -4 -6 -22 -10 -41 -10 -30 0 -33 2 -22 15 12 15 163 14 273 0z
m755 1 c0 -7 -9 -16 -20 -19 -23 -6 -27 -37 -5 -37 8 0 15 5 15 10 0 15 27 12
33 -3 3 -8 16 -13 29 -12 12 1 28 -1 33 -4 14 -10 125 -1 125 10 0 5 6 9 14 9
9 0 12 -7 9 -20 -4 -15 0 -20 16 -20 12 0 21 6 21 15 0 9 6 12 16 8 13 -5 13
-7 2 -14 -8 -6 -2 -9 20 -9 19 0 31 -4 27 -10 -6 -9 -14 -10 -70 -9 -64 0
-109 -2 -114 -6 -2 -3 17 -5 42 -5 47 0 47 0 47 -46 0 -46 0 -46 -43 -43 -24
2 -47 0 -52 -3 -6 -3 -52 -6 -103 -7 -51 -1 -104 -6 -118 -11 -42 -16 -71 -12
-88 14 -8 14 -25 28 -37 31 -28 9 -7 25 34 25 33 0 32 19 -2 36 -13 7 -28 17
-34 23 -6 6 -24 11 -41 11 -23 0 -27 3 -18 12 15 15 16 32 2 23 -5 -3 -10 -1
-10 4 0 6 9 11 19 11 11 0 27 3 36 6 12 5 16 2 14 -12 -6 -32 10 -44 58 -44
45 0 45 0 39 34 -6 33 -6 33 46 48 29 9 54 16 56 17 1 0 2 -5 2 -13z m227 7
c-4 -3 -10 -3 -14 0 -3 4 0 7 7 7 7 0 10 -3 7 -7z m-3040 -20 c-4 -3 -7 0 -7
7 0 7 3 10 7 7 3 -4 3 -10 0 -14z m3003 3 c0 -9 -7 -12 -20 -9 -31 8 -34 23
-6 23 16 0 26 -6 26 -14z m-2380 -6 c0 -5 -5 -10 -11 -10 -5 0 -7 5 -4 10 3 6
8 10 11 10 2 0 4 -4 4 -10z m1545 0 c7 -12 -2 -12 -30 0 -19 8 -19 9 2 9 12 1
25 -3 28 -9z m776 -5 c31 -13 32 -14 9 -14 -37 -1 -71 10 -64 20 7 12 16 11
55 -6z m176 9 c-3 -3 -12 -4 -19 -1 -8 3 -5 6 6 6 11 1 17 -2 13 -5z m-704
-20 c62 -4 97 -11 96 -18 -4 -34 2 -46 25 -46 18 0 27 -8 35 -32 9 -26 9 -30
-1 -20 -19 19 -30 14 -18 -7 14 -26 13 -28 -11 -34 -11 -3 -23 -15 -26 -28 -7
-24 -23 -24 -228 5 -55 8 -138 19 -185 25 -201 26 -417 59 -440 67 -11 4 -5
11 20 24 33 17 44 17 175 4 77 -7 160 -18 185 -23 63 -14 71 -13 30 5 -40 17
-170 38 -280 44 -35 2 -35 2 -2 16 28 12 50 13 135 3 56 -6 140 -15 187 -20
202 -22 310 -23 310 -3 0 17 -9 19 -71 22 -38 2 -85 10 -102 18 -32 15 -32 15
18 10 28 -3 94 -8 148 -12z m-178 -15 c15 -14 11 -15 -42 -12 -76 5 -110 13
-96 21 22 14 122 7 138 -9z m912 4 c-4 -3 -10 -3 -14 0 -3 4 0 7 7 7 7 0 10
-3 7 -7z m-1509 -18 c17 -4 32 -11 32 -16 0 -13 -63 -11 -97 2 -15 6 -46 15
-68 19 -33 7 -28 8 30 5 39 -2 85 -6 103 -10z m712 -5 c0 -5 -6 -10 -14 -10
-8 0 -18 5 -21 10 -3 6 3 10 14 10 12 0 21 -4 21 -10z m-1253 -6 c-3 -3 -12
-4 -19 -1 -8 3 -5 6 6 6 11 1 17 -2 13 -5z m-10 -31 c-4 -3 -10 -3 -14 0 -3 4
0 7 7 7 7 0 10 -3 7 -7z m-321 -22 c5 -5 20 -11 34 -14 19 -3 16 -5 -11 -6
-22 0 -42 5 -49 14 -14 17 8 22 26 6z m241 2 c-4 -3 -10 -3 -14 0 -3 4 0 7 7
7 7 0 10 -3 7 -7z m71 0 c-10 -2 -28 -2 -40 0 -13 2 -5 4 17 4 22 1 32 -1 23
-4z m49 0 c-4 -3 -10 -3 -14 0 -3 4 0 7 7 7 7 0 10 -3 7 -7z m46 0 c-7 -2 -19
-2 -25 0 -7 3 -2 5 12 5 14 0 19 -2 13 -5z m34 0 c-4 -3 -10 -3 -14 0 -3 4 0
7 7 7 7 0 10 -3 7 -7z m1923 -18 c0 -25 -27 -37 -49 -23 -35 22 -27 45 14 40
19 -2 35 -10 35 -17z m27 8 c-4 -3 -7 0 -7 7 0 7 3 10 7 7 3 -4 3 -10 0 -14z
m50 0 c-4 -3 -7 0 -7 7 0 7 3 10 7 7 3 -4 3 -10 0 -14z m-3560 0 c-4 -3 -10
-3 -14 0 -3 4 0 7 7 7 7 0 10 -3 7 -7z m1156 -30 c-7 -2 -21 -2 -30 0 -10 3
-4 5 12 5 17 0 24 -2 18 -5z m1102 -12 c11 -5 -10 -6 -50 -3 -38 2 -72 6 -74
8 -8 8 105 2 124 -5z m1185 -21 c0 -5 -7 -10 -15 -10 -8 0 -15 5 -15 10 0 6 7
10 15 10 8 0 15 -4 15 -10z m-1050 -10 c0 -5 5 -10 11 -10 5 0 8 3 6 8 -3 4
23 5 56 3 43 -2 56 -6 42 -11 -11 -4 -37 -6 -58 -3 -25 2 -37 0 -32 -6 8 -14
-26 -1 -43 16 -11 11 -11 13 2 13 9 0 16 -4 16 -10z m-125 -10 c3 -5 4 -10 1
-10 -3 0 -8 5 -11 10 -3 6 -4 10 -1 10 3 0 8 -4 11 -10z m48 3 c-7 -2 -19 -2
-25 0 -7 3 -2 5 12 5 14 0 19 -2 13 -5z m1252 -3 c-3 -5 -12 -7 -20 -3 -21 7
-19 13 6 13 11 0 18 -4 14 -10z m-1168 -27 c-4 -3 -10 -3 -14 0 -3 4 0 7 7 7
7 0 10 -3 7 -7z m48 -3 c3 -5 4 -10 1 -10 -3 0 -8 5 -11 10 -3 6 -4 10 -1 10
3 0 8 -4 11 -10z m142 -7 c-4 -3 -10 -3 -14 0 -3 4 0 7 7 7 7 0 10 -3 7 -7z
m61 0 c-10 -2 -26 -2 -35 0 -10 3 -2 5 17 5 19 0 27 -2 18 -5z m108 -4 c-29
-4 -56 -4 -65 1 -11 6 5 9 49 9 65 -1 65 -1 16 -10z m337 4 c-7 -2 -21 -2 -30
0 -10 3 -4 5 12 5 17 0 24 -2 18 -5z m44 0 c-4 -3 -10 -3 -14 0 -3 4 0 7 7 7
7 0 10 -3 7 -7z m-102 -23 c3 -5 -3 -10 -14 -10 -12 0 -21 5 -21 10 0 6 6 10
14 10 8 0 18 -4 21 -10z m209 -23 c16 -12 10 -13 -43 -6 -34 4 -65 10 -68 13
-13 12 94 5 111 -7z m93 -13 c13 -4 21 -10 18 -14 -6 -10 -55 0 -55 11 0 10 7
11 37 3z m173 -10 c0 -9 -5 -14 -12 -12 -18 6 -21 28 -4 28 9 0 16 -7 16 -16z
m-223 -21 c-4 -3 -10 -3 -14 0 -3 4 0 7 7 7 7 0 10 -3 7 -7z"/>
<path d="M3393 643 c4 -3 10 -3 14 0 3 4 0 7 -7 7 -7 0 -10 -3 -7 -7z"/>
<path d="M3730 562 c5 -57 5 -57 8 -8 2 27 0 52 -5 57 -4 4 -6 -18 -3 -49z"/>
<path d="M1214 1315 c25 -58 86 -135 86 -107 0 6 -3 12 -8 14 -13 5 -72 91
-72 104 0 7 -5 16 -11 19 -5 4 -3 -10 5 -30z"/>
<path d="M3710 1321 c0 -31 14 -49 25 -31 3 5 1 10 -4 10 -15 0 -14 37 2 43 7
3 5 6 -5 6 -13 1 -18 -7 -18 -28z"/>
<path d="M4110 1290 c0 -7 3 -10 7 -7 3 4 3 10 0 14 -4 3 -7 0 -7 -7z"/>
<path d="M200 1264 c0 -3 7 -12 15 -20 13 -13 15 -13 15 -1 0 8 -7 17 -15 21
-8 3 -15 3 -15 0z"/>
<path d="M2675 1254 c-242 -6 -482 -13 -532 -13 -51 -1 -93 -5 -93 -10 0 -4
10 -7 23 -5 12 2 247 8 522 15 449 10 821 27 595 26 -41 0 -273 -6 -515 -13z"/>
<path d="M3288 1253 c12 -2 30 -2 40 0 9 3 -1 5 -23 4 -22 0 -30 -2 -17 -4z"/>
<path d="M1420 1221 c-36 -4 -75 -6 -87 -6 -13 0 -23 -3 -23 -7 0 -8 350 1
359 8 2 2 -32 4 -77 4 -44 0 -86 2 -94 3 -7 2 -42 1 -78 -2z"/>
<path d="M1693 1223 c4 -3 10 -3 14 0 3 4 0 7 -7 7 -7 0 -10 -3 -7 -7z"/>
<path d="M1782 1223 c37 -2 100 -2 140 0 40 1 10 3 -67 3 -77 0 -110 -1 -73
-3z"/>
<path d="M813 1193 c4 -3 10 -3 14 0 3 4 0 7 -7 7 -7 0 -10 -3 -7 -7z"/>
<path d="M890 1192 c0 -5 14 -9 32 -10 23 -1 28 2 18 8 -19 12 -50 13 -50 2z"/>
<path d="M2724 1164 c-39 -50 -52 -93 -39 -121 11 -26 25 -30 25 -8 0 22 15
18 27 -7 11 -23 11 -23 21 2 7 19 6 27 -4 33 -21 12 -4 37 26 37 25 0 29 -4
35 -40 8 -47 35 -56 36 -12 1 27 1 27 17 -8 17 -35 17 -35 20 15 5 107 20 121
54 50 27 -55 53 -60 62 -11 4 19 18 51 32 71 13 20 19 35 12 33 -7 -2 -23 -23
-35 -47 -22 -43 -22 -43 -47 -2 -35 54 -47 52 -84 -16 -34 -63 -32 -64 -37 24
0 12 -4 25 -8 29 -9 9 -82 -59 -108 -101 -26 -40 -20 -7 9 59 28 61 22 68 -14
20z m78 -36 c-7 -7 -12 -8 -12 -2 0 14 12 26 19 19 2 -3 -1 -11 -7 -17z"/>
<path d="M2206 1164 c-25 -24 -46 -62 -46 -85 0 -17 21 2 30 27 9 24 34 32 44
15 7 -11 -15 -56 -29 -60 -34 -12 -35 -14 -18 -26 15 -12 19 -11 25 3 6 15 7
15 7 -1 1 -15 4 -15 21 -5 13 9 18 19 14 32 -4 11 -2 16 4 12 6 -3 17 1 25 9
28 27 46 18 53 -25 12 -73 31 -47 30 40 -1 44 -4 80 -7 80 -4 0 -26 -18 -49
-41 -49 -48 -60 -46 -25 4 18 27 21 37 10 37 -8 0 -19 -9 -25 -20 -6 -11 -20
-20 -30 -20 -23 0 -26 10 -8 28 24 24 1 20 -26 -4z m121 -41 c-4 -3 -7 0 -7 7
0 7 3 10 7 7 3 -4 3 -10 0 -14z"/>
<path d="M2452 1158 c-32 -33 -32 -33 -32 -5 0 34 -13 35 -28 2 -15 -32 -16
-139 -2 -130 6 3 10 14 10 23 0 9 10 33 22 52 22 35 22 35 29 0 4 -19 5 -45 2
-57 -3 -14 -1 -23 6 -23 6 0 11 13 11 29 0 23 13 42 52 80 61 58 61 78 0 26
-41 -36 -41 -36 -35 0 7 43 6 43 -35 3z"/>
<path d="M2550 1140 c-27 -29 -50 -58 -50 -64 0 -6 -3 -21 -6 -33 -4 -13 -2
-23 3 -23 5 0 14 17 19 38 7 31 14 38 38 40 28 3 28 3 21 -37 -7 -43 10 -60
18 -18 4 22 4 22 12 0 9 -28 25 -30 25 -4 0 11 4 22 9 26 12 7 63 117 57 122
-5 6 -66 -76 -66 -89 0 -4 -5 -8 -11 -8 -6 0 -9 18 -8 45 4 64 -4 64 -61 5z
m30 -4 c0 -3 -4 -8 -10 -11 -5 -3 -10 -1 -10 4 0 6 5 11 10 11 6 0 10 -2 10
-4z"/>
<path d="M1846 1072 c-4 -13 -5 -26 -2 -29 10 -11 18 4 14 29 -4 23 -4 23 -12
0z"/>
<path d="M1808 1073 c-24 -6 -23 -29 2 -36 16 -4 20 0 20 19 0 13 -1 23 -2 23
-2 -1 -11 -3 -20 -6z"/>
<path d="M1880 1058 c0 -12 3 -18 7 -14 11 10 12 36 2 36 -5 0 -9 -10 -9 -22z"/>
<path d="M1934 1067 c-4 -10 -2 -23 3 -28 14 -14 24 13 13 32 -7 11 -10 10
-16 -4z"/>
<path d="M2037 1066 c-8 -21 0 -39 14 -31 5 4 9 0 9 -7 0 -8 6 -7 17 5 16 16
16 18 0 34 -16 16 -17 16 -18 -2 0 -20 -1 -20 -8 -1 -7 18 -8 18 -14 2z"/>
<path d="M3038 1073 c7 -3 16 -2 19 1 4 3 -2 6 -13 5 -11 0 -14 -3 -6 -6z"/>
<path d="M2125 1060 c-4 -6 -3 -16 3 -22 6 -6 12 -6 17 2 4 6 3 16 -3 22 -6 6
-12 6 -17 -2z"/>
<path d="M2280 1058 c0 -3 -3 -13 -6 -22 -3 -9 -1 -16 5 -16 6 0 11 7 11 15 0
8 5 15 10 15 6 0 10 -7 10 -15 0 -8 5 -15 10 -15 6 0 10 11 10 24 0 19 -5 24
-25 22 -14 0 -25 -4 -25 -8z"/>
<path d="M2917 1048 c-7 -23 -1 -38 14 -38 12 0 12 47 0 54 -5 3 -11 -4 -14
-16z"/>
<path d="M3065 1011 c-10 -85 -4 -97 51 -105 61 -8 64 -5 64 71 0 79 -8 80
-12 3 -4 -55 -4 -55 -45 -58 -48 -4 -54 8 -46 93 6 74 -3 70 -12 -4z"/>
<path d="M2534 1049 c-3 -6 -1 -16 5 -22 8 -8 11 -5 11 11 0 24 -5 28 -16 11z"/>
<path d="M2650 1040 c0 -11 5 -20 10 -20 6 0 10 9 10 20 0 11 -4 20 -10 20 -5
0 -10 -9 -10 -20z"/>
<path d="M2778 1054 c-3 -3 -4 -14 -1 -25 6 -22 33 -8 33 17 0 14 -21 19 -32
8z"/>
<path d="M2960 1030 c0 -11 7 -20 15 -20 8 0 15 9 15 20 0 11 -7 20 -15 20 -8
0 -15 -9 -15 -20z"/>
<path d="M1933 1003 c4 -3 10 -3 14 0 3 4 0 7 -7 7 -7 0 -10 -3 -7 -7z"/>
<path d="M798 983 c7 -3 16 -2 19 1 4 3 -2 6 -13 5 -11 0 -14 -3 -6 -6z"/>
<path d="M830 981 c0 -6 7 -11 16 -11 19 0 112 -28 137 -41 21 -11 22 -5 1 15
-8 9 -30 17 -47 18 -27 1 -24 2 13 8 40 6 37 7 -26 7 -39 0 -76 3 -83 7 -6 4
-11 2 -11 -3z"/>
<path d="M1490 982 c18 -12 146 -20 156 -9 4 4 -11 7 -33 7 -22 0 -62 3 -89 6
-33 4 -44 2 -34 -4z"/>
<path d="M668 973 c7 -3 16 -2 19 1 4 3 -2 6 -13 5 -11 0 -14 -3 -6 -6z"/>
<path d="M703 973 c4 -3 10 -3 14 0 3 4 0 7 -7 7 -7 0 -10 -3 -7 -7z"/>
<path d="M3443 957 c16 -30 47 -62 47 -48 0 5 -5 13 -11 16 -5 4 -14 18 -19
31 -5 13 -14 24 -19 24 -6 0 -5 -10 2 -23z"/>
<path d="M1663 963 c4 -3 10 -3 14 0 3 4 0 7 -7 7 -7 0 -10 -3 -7 -7z"/>
<path d="M1940 960 c-17 -6 -4 -8 45 -8 72 1 131 -17 162 -47 17 -17 29 -14
18 5 -26 42 -159 71 -225 50z"/>
<path d="M910 880 c19 -5 38 -6 42 -4 5 3 12 -5 17 -18 6 -14 10 -17 10 -7 1
26 -21 39 -63 38 -41 -1 -41 -1 -6 -9z"/>
<path d="M3466 871 c10 -10 21 -17 23 -15 6 6 -20 34 -32 34 -6 0 -2 -8 9 -19z"/>
<path d="M3250 868 c0 -5 35 -7 78 -7 78 2 69 6 -26 11 -28 2 -52 0 -52 -4z"/>
<path d="M931 844 c0 -11 3 -14 6 -6 3 7 2 16 -1 19 -3 4 -6 -2 -5 -13z"/>
<path d="M1213 823 c4 -3 10 -3 14 0 3 4 0 7 -7 7 -7 0 -10 -3 -7 -7z"/>
<path d="M4050 770 c0 -5 4 -10 9 -10 6 0 13 5 16 10 3 6 -1 10 -9 10 -9 0
-16 -4 -16 -10z"/>
<path d="M4110 770 c0 -7 3 -10 7 -7 3 4 3 10 0 14 -4 3 -7 0 -7 -7z"/>
<path d="M4105 680 c3 -5 8 -10 11 -10 2 0 4 5 4 10 0 6 -5 10 -11 10 -5 0 -7
-4 -4 -10z"/>
<path d="M106 509 c-11 -58 -5 -75 9 -24 8 28 14 51 15 53 0 1 -4 2 -9 2 -5 0
-11 -14 -15 -31z"/>
<path d="M3038 373 c12 -2 30 -2 40 0 9 3 -1 5 -23 4 -22 0 -30 -2 -17 -4z"/>
<path d="M2805 360 c-70 -6 -70 -6 -10 -9 33 -1 69 -4 80 -7 21 -4 99 5 93 12
-9 8 -97 10 -163 4z"/>
<path d="M1243 343 c4 -3 10 -3 14 0 3 4 0 7 -7 7 -7 0 -10 -3 -7 -7z"/>
<path d="M3133 313 c4 -3 10 -3 14 0 3 4 0 7 -7 7 -7 0 -10 -3 -7 -7z"/>
<path d="M3972 290 c11 -7 15 -19 12 -40 -3 -17 -1 -30 5 -30 6 0 11 3 12 8 0
4 2 18 3 32 3 26 -9 40 -34 40 -12 -1 -12 -2 2 -10z"/>
<path d="M3893 263 c9 -2 23 -2 30 0 6 3 -1 5 -18 5 -16 0 -22 -2 -12 -5z"/>
<path d="M3944 258 c-4 -7 -3 -8 4 -4 12 7 16 16 8 16 -3 0 -8 -5 -12 -12z"/>
<path d="M2324 248 c-4 -7 -3 -8 4 -4 12 7 16 16 8 16 -3 0 -8 -5 -12 -12z"/>
<path d="M4026 237 c-5 -15 -6 -31 -2 -34 11 -11 18 5 14 34 -4 28 -4 28 -12
0z"/>
<path d="M2638 228 c9 -9 15 -9 24 0 9 9 7 12 -12 12 -19 0 -21 -3 -12 -12z"/>
<path d="M3918 233 c7 -3 16 -2 19 1 4 3 -2 6 -13 5 -11 0 -14 -3 -6 -6z"/>
<path d="M3950 230 c0 -5 5 -10 11 -10 5 0 7 5 4 10 -3 6 -8 10 -11 10 -2 0
-4 -4 -4 -10z"/>
<path d="M1700 223 c0 -12 71 -43 98 -43 11 0 24 -4 27 -10 3 -5 20 -10 37
-10 37 0 34 7 -4 12 -14 2 -32 9 -41 16 -8 7 -21 10 -29 7 -8 -3 -32 4 -52 15
-20 12 -36 18 -36 13z"/>
<path d="M2674 208 c-4 -7 -3 -8 4 -4 7 4 12 9 12 12 0 8 -9 4 -16 -8z"/>
<path d="M2489 205 c-3 -2 -22 -6 -43 -9 -21 -3 -41 -8 -45 -11 -11 -12 80 2
92 14 6 6 9 11 6 11 -3 0 -8 -2 -10 -5z"/>
<path d="M2046 190 c-18 -6 -18 -7 5 -13 32 -9 39 -9 39 2 0 13 -23 19 -44 11z"/>
<path d="M2555 190 c-19 -8 -19 -9 3 -9 12 -1 22 4 22 9 0 6 -1 10 -2 9 -2 0
-12 -4 -23 -9z"/>
<path d="M2618 193 c6 -2 18 -2 25 0 6 3 1 5 -13 5 -14 0 -19 -2 -12 -5z"/>
<path d="M2183 183 c4 -3 10 -3 14 0 3 4 0 7 -7 7 -7 0 -10 -3 -7 -7z"/>
<path d="M2209 173 c-13 -17 -13 -17 6 -3 11 8 22 16 24 17 2 2 0 3 -6 3 -6 0
-17 -8 -24 -17z"/>
<path d="M3990 171 c0 -11 -5 -21 -11 -23 -6 -2 -3 -12 8 -25 22 -25 37 -19
52 20 16 42 14 47 -19 47 -23 0 -30 -5 -30 -19z"/>
<path d="M1900 166 c0 -12 9 -15 46 -12 55 5 71 16 21 16 -19 0 -42 3 -51 6
-10 4 -16 1 -16 -10z"/>
<path d="M2305 169 c-12 -19 5 -23 22 -6 16 16 16 17 1 17 -9 0 -20 -5 -23
-11z"/>
<path d="M1704 158 c-4 -7 -3 -8 4 -4 12 7 16 16 8 16 -3 0 -8 -5 -12 -12z"/>
<path d="M2258 163 c6 -2 18 -2 25 0 6 3 1 5 -13 5 -14 0 -19 -2 -12 -5z"/>
<path d="M3857 152 c3 -8 0 -18 -8 -23 -12 -7 -11 -9 2 -9 8 0 21 6 27 12 10
10 14 10 21 0 5 -9 14 -10 32 -3 17 7 19 10 7 10 -10 1 -18 6 -18 12 0 6 -9 9
-20 6 -11 -3 -20 -2 -20 2 0 4 -6 8 -14 8 -8 0 -12 -6 -9 -15z"/>
<path d="M1566 151 c-4 -5 3 -7 14 -4 23 6 26 13 6 13 -8 0 -17 -4 -20 -9z"/>
<path d="M2770 152 c0 -20 28 -45 44 -39 23 9 20 22 -9 35 -31 14 -35 15 -35
4z"/>
<path d="M2985 140 c3 -5 8 -10 11 -10 2 0 4 5 4 10 0 6 -5 10 -11 10 -5 0 -7
-4 -4 -10z"/>
<path d="M3795 140 c-19 -8 -19 -9 3 -9 12 -1 22 4 22 9 0 6 -1 10 -2 9 -2 0
-12 -4 -23 -9z"/>
<path d="M2898 133 c12 -2 30 -2 40 0 9 3 -1 5 -23 4 -22 0 -30 -2 -17 -4z"/>
<path d="M3023 133 c9 -2 23 -2 30 0 6 3 -1 5 -18 5 -16 0 -22 -2 -12 -5z"/>
<path d="M3103 133 c4 -3 10 -3 14 0 3 4 0 7 -7 7 -7 0 -10 -3 -7 -7z"/>
<path d="M3305 130 c3 -5 11 -10 16 -10 6 0 7 5 4 10 -3 6 -11 10 -16 10 -6 0
-7 -4 -4 -10z"/>
<path d="M3073 123 c4 -3 10 -3 14 0 3 4 0 7 -7 7 -7 0 -10 -3 -7 -7z"/>
<path d="M3193 123 c4 -3 10 -3 14 0 3 4 0 7 -7 7 -7 0 -10 -3 -7 -7z"/>
<path d="M3340 119 c0 -5 5 -7 10 -4 6 3 10 8 10 11 0 2 -4 4 -10 4 -5 0 -10
-5 -10 -11z"/>
<path d="M3415 123 c11 -3 26 -10 33 -15 8 -7 12 -7 12 0 0 12 -25 22 -48 21
-13 -1 -12 -3 3 -6z"/>
<path d="M3745 120 c-3 -6 1 -7 9 -4 18 7 21 14 7 14 -6 0 -13 -4 -16 -10z"/>
<path d="M3703 113 c4 -3 10 -3 14 0 3 4 0 7 -7 7 -7 0 -10 -3 -7 -7z"/>
<path d="M358 103 c7 -3 16 -2 19 1 4 3 -2 6 -13 5 -11 0 -14 -3 -6 -6z"/>
<path d="M3563 83 c4 -3 10 -3 14 0 3 4 0 7 -7 7 -7 0 -10 -3 -7 -7z"/>
<path d="M163 3 c4 -3 10 -3 14 0 3 4 0 7 -7 7 -7 0 -10 -3 -7 -7z"/>
</g>
</svg>
