<?xml version="1.0" standalone="no"?>
<!DOCTYPE svg PUBLIC "-//W3C//DTD SVG 20010904//EN"
 "http://www.w3.org/TR/2001/REC-SVG-20010904/DTD/svg10.dtd">
<svg version="1.0" xmlns="http://www.w3.org/2000/svg"
 width="256.000000pt" height="304.000000pt" viewBox="0 0 256.000000 304.000000"
 preserveAspectRatio="xMidYMid meet">
<metadata>
Created by potrace 1.16, written by Peter Selinger 2001-2019
</metadata>
<g transform="translate(0.000000,304.000000) scale(0.100000,-0.100000)"
fill="#000000" stroke="none">
<path d="M650 2980 c0 -5 10 -15 23 -21 22 -12 22 -12 3 10 -21 23 -26 26 -26
11z"/>
<path d="M1560 2800 c19 -11 40 -19 45 -19 6 0 -6 8 -25 19 -19 11 -39 19 -45
19 -5 0 6 -8 25 -19z"/>
<path d="M1641 2776 c2 -2 34 -16 71 -30 37 -13 91 -40 120 -58 80 -51 82 -52
75 -41 -12 20 -142 92 -201 113 -60 20 -73 23 -65 16z"/>
<path d="M1473 2763 c4 -3 10 -3 14 0 3 4 0 7 -7 7 -7 0 -10 -3 -7 -7z"/>
<path d="M1263 2729 c22 -11 41 -18 44 -15 5 5 -62 36 -76 36 -3 -1 11 -10 32
-21z"/>
<path d="M1520 2746 c0 -2 7 -7 16 -10 8 -3 12 -2 9 4 -6 10 -25 14 -25 6z"/>
<path d="M1595 2700 c3 -5 8 -10 11 -10 3 0 2 5 -1 10 -3 6 -8 10 -11 10 -3 0
-2 -4 1 -10z"/>
<path d="M1673 2625 c37 -25 67 -52 67 -59 0 -8 12 -22 28 -31 15 -10 36 -26
47 -36 126 -118 160 -149 196 -179 107 -89 200 -195 239 -274 22 -44 40 -72
40 -62 0 66 -139 243 -275 349 -22 18 -66 58 -97 89 -31 32 -60 58 -65 58 -5
0 -35 27 -68 61 -57 57 -151 129 -171 129 -5 0 22 -20 59 -45z"/>
<path d="M1985 2597 c120 -58 253 -185 308 -295 42 -86 118 -222 123 -222 7 0
-22 65 -49 107 -14 22 -41 74 -61 115 -62 130 -231 282 -346 312 -14 3 -2 -4
25 -17z"/>
<path d="M1858 2565 c11 -16 51 -59 89 -95 40 -39 51 -47 27 -20 -81 90 -136
145 -116 115z"/>
<path d="M1789 2556 c29 -31 35 -33 22 -7 -6 10 -18 22 -28 25 -13 5 -11 1 6
-18z"/>
<path d="M1950 2515 c24 -27 46 -52 48 -55 3 -3 0 4 -6 15 -6 11 -27 36 -48
55 -36 33 -36 33 6 -15z"/>
<path d="M1835 2510 c3 -5 8 -10 11 -10 3 0 2 5 -1 10 -3 6 -8 10 -11 10 -3 0
-2 -4 1 -10z"/>
<path d="M509 2492 c-66 -44 -141 -124 -127 -137 3 -3 17 13 32 35 14 22 51
56 81 76 30 20 55 38 55 40 0 8 -16 2 -41 -14z"/>
<path d="M560 2443 c-33 -37 -80 -131 -101 -203 -8 -28 -15 -37 -21 -28 -4 7
-8 8 -8 2 0 -18 13 -24 27 -13 19 17 17 -6 -6 -55 -11 -23 -27 -68 -37 -101
-9 -33 -25 -68 -35 -78 -11 -10 -19 -22 -19 -28 0 -6 -4 -8 -9 -4 -6 3 -7 -6
-2 -22 10 -36 3 -62 -11 -42 -6 10 -7 7 -3 -9 5 -18 -3 -31 -39 -66 -56 -55
-71 -105 -60 -196 12 -99 7 -168 -16 -207 -14 -25 -21 -57 -24 -122 -2 -54
-10 -100 -20 -119 -20 -39 -15 -42 9 -5 13 19 19 52 21 116 3 67 8 97 23 121
18 29 38 109 33 129 -18 66 -20 152 -4 199 22 66 42 76 36 17 -3 -24 -10 -51
-15 -60 -13 -25 -12 -29 9 -30 10 0 12 -3 5 -6 -7 -2 -13 -12 -13 -21 0 -11 3
-13 8 -6 9 14 52 37 58 31 2 -2 -3 -20 -11 -40 -8 -20 -15 -42 -15 -49 1 -29
48 101 55 152 4 30 21 81 37 113 16 32 28 63 27 70 -3 18 12 92 21 107 6 10
15 9 42 -7 19 -11 64 -25 99 -32 35 -6 79 -15 97 -20 28 -9 39 -7 63 11 38 28
31 33 -20 12 -32 -13 -44 -14 -56 -4 -8 6 -19 9 -24 6 -5 -4 -12 -2 -15 2 -3
5 -23 9 -45 9 -64 0 -107 33 -110 85 -2 45 -8 60 -15 37 -2 -8 -29 -93 -60
-189 -31 -96 -56 -186 -56 -200 0 -33 -11 -49 -35 -52 -28 -4 -29 0 -21 66 5
37 20 81 41 120 19 33 50 108 70 166 21 58 43 116 50 131 8 14 14 48 13 75 0
65 51 186 99 237 21 20 32 37 26 37 -6 0 -25 -17 -43 -37z m-182 -515 c-6 -18
-13 -27 -15 -21 -4 11 13 53 22 53 2 0 -1 -15 -7 -32z"/>
<path d="M2145 2403 c15 -24 30 -43 32 -43 7 0 -31 61 -46 73 -8 7 -2 -7 14
-30z"/>
<path d="M2041 2363 c7 -12 15 -20 18 -17 3 2 -3 12 -13 22 -17 16 -18 16 -5
-5z"/>
<path d="M2202 2305 c12 -24 23 -43 26 -41 4 5 -36 86 -43 86 -3 0 5 -20 17
-45z"/>
<path d="M391 2304 c-12 -15 -21 -32 -21 -38 1 -11 24 15 41 47 14 25 3 21
-20 -9z"/>
<path d="M395 2249 c-28 -59 -35 -84 -33 -124 1 -27 -4 -67 -11 -88 -7 -20
-11 -42 -9 -49 2 -6 13 16 25 50 12 34 17 64 12 69 -11 11 14 110 42 164 11
23 18 43 15 46 -3 3 -21 -27 -41 -68z"/>
<path d="M2160 2255 c16 -43 41 -87 46 -82 5 5 -45 107 -52 107 -2 0 1 -11 6
-25z"/>
<path d="M2235 2235 c4 -11 11 -33 16 -50 8 -27 8 -26 4 9 -2 22 -10 44 -16
50 -9 8 -10 6 -4 -9z"/>
<path d="M411 2144 c-7 -26 -10 -48 -7 -51 5 -5 11 14 21 65 10 49 -1 38 -14
-14z"/>
<path d="M1377 2141 c-2 -10 -1 -25 4 -32 6 -10 9 -4 9 19 0 36 -5 42 -13 13z"/>
<path d="M1220 2142 c0 -13 -94 -41 -121 -35 -15 3 -29 0 -33 -5 -10 -17 41
-20 81 -5 21 8 48 17 61 20 18 4 33 33 17 33 -3 0 -5 -3 -5 -8z"/>
<path d="M1700 2143 c0 -5 9 -18 19 -27 31 -28 63 -113 56 -147 -9 -41 6 -55
95 -96 84 -38 176 -125 240 -228 19 -31 52 -76 73 -101 20 -25 37 -54 37 -65
0 -10 6 -19 14 -19 20 0 -13 66 -49 100 -15 14 -33 39 -40 56 -12 28 -42 67
-141 182 -25 28 -65 56 -123 85 -86 42 -86 42 -92 97 -3 30 -15 73 -26 95 -21
41 -63 86 -63 68z"/>
<path d="M2301 2130 c14 -31 19 -36 19 -24 0 6 -7 19 -16 30 -14 18 -14 18 -3
-6z"/>
<path d="M1434 2121 c21 -23 26 -26 26 -11 0 5 -10 15 -22 21 -23 12 -23 12
-4 -10z"/>
<path d="M1470 2112 c0 -7 4 -22 10 -32 11 -20 -14 -38 -26 -18 -5 7 -10 4
-15 -9 -4 -12 -26 -28 -52 -38 -44 -17 -44 -17 -108 24 -35 23 -70 41 -78 41
-17 0 -220 -100 -286 -141 -44 -27 -53 -30 -85 -21 -45 13 -82 14 -75 1 4 -5
19 -9 35 -9 16 0 40 -5 53 -11 21 -10 33 -5 93 36 90 62 182 95 172 63 -5 -13
-8 -16 -96 -62 -30 -15 -52 -29 -50 -31 2 -3 26 7 53 21 54 27 77 16 36 -17
-18 -15 -20 -22 -11 -39 15 -27 -4 -26 -27 3 -15 18 -26 22 -67 20 -57 -3 -74
-12 -25 -15 19 0 40 -2 46 -2 27 -2 94 -52 99 -73 9 -35 -17 -77 -56 -89 -19
-6 -36 -16 -38 -23 -2 -7 -13 -4 -29 9 -34 27 -51 25 -65 -6 -11 -24 -10 -29
15 -48 41 -33 36 -57 -10 -55 -21 1 -51 -3 -66 -10 -38 -15 -40 -14 -34 9 3
12 1 18 -5 14 -5 -3 -7 -15 -5 -26 4 -13 -2 -22 -19 -30 -13 -6 -24 -16 -24
-21 0 -6 -7 -17 -15 -26 -32 -33 -114 -215 -104 -227 18 -22 -8 -57 -37 -50
-16 4 -30 0 -44 -14 -32 -32 -23 -35 33 -12 16 7 37 12 49 12 14 0 18 5 14 15
-3 9 0 15 9 15 9 0 15 -9 15 -22 0 -18 2 -20 9 -9 6 10 5 22 -5 35 -8 11 -14
35 -14 54 0 32 50 145 70 157 5 3 17 22 26 41 32 67 127 95 156 46 23 -39 76
-92 91 -92 23 0 57 -44 47 -60 -8 -13 -14 -13 -42 -2 -55 23 -150 40 -177 33
-21 -6 -23 -8 -7 -14 9 -4 14 -11 11 -17 -3 -5 -1 -10 5 -10 7 0 9 7 6 16 -7
18 33 15 117 -7 38 -10 87 -64 108 -117 10 -25 -20 -61 -50 -62 -20 0 -93 78
-114 123 -18 37 -37 57 -37 38 0 -6 4 -11 8 -11 4 0 14 -17 21 -37 8 -20 36
-59 64 -87 50 -50 50 -50 23 -71 -24 -19 -25 -23 -11 -35 13 -11 15 -10 9 4
-3 9 -1 16 5 16 6 0 11 -11 11 -25 0 -27 13 -31 54 -16 18 7 27 6 35 -3 13
-16 -50 -46 -96 -46 -38 0 -90 36 -102 72 -6 17 -19 40 -28 50 -14 16 -15 22
-4 40 19 30 9 31 -23 1 -25 -23 -36 -26 -87 -24 -39 1 -59 -2 -59 -10 0 -6 7
-8 17 -5 9 4 41 4 69 0 47 -5 54 -9 64 -38 6 -17 18 -44 26 -59 39 -78 12 -72
-113 26 -7 5 -13 7 -13 4 0 -3 29 -28 64 -56 61 -47 64 -52 56 -78 -29 -89
-44 -123 -63 -141 -24 -21 -74 -41 -64 -25 10 15 39 224 33 238 -2 7 -18 14
-34 17 -27 4 -29 2 -19 -14 7 -10 18 -17 26 -15 8 1 16 -4 18 -10 6 -17 -23
-16 -39 1 -11 11 -15 5 -27 -33 -19 -67 -18 -101 9 -155 21 -45 25 -48 53 -42
17 3 38 13 47 21 15 13 19 11 44 -26 27 -42 27 -42 -41 -37 -145 10 -214 82
-167 173 15 30 15 30 -6 9 -12 -12 -22 -34 -22 -52 -1 -17 -5 -29 -10 -26 -13
8 -10 -4 9 -32 32 -50 122 -81 249 -89 27 -1 57 -6 67 -10 19 -8 26 38 7 50
-15 9 -12 47 3 43 6 -3 15 -27 18 -54 3 -27 9 -58 14 -69 7 -19 7 -19 -10 -3
-16 15 -21 15 -47 2 -23 -12 -33 -13 -44 -3 -18 15 -18 13 10 -59 20 -49 22
-63 11 -72 -16 -14 -67 27 -84 68 -6 15 -21 33 -32 40 -19 12 -20 11 -14 -10
8 -27 84 -108 102 -108 6 0 25 -12 42 -26 35 -29 57 -25 40 7 -9 19 -9 19 10
10 11 -6 26 -11 33 -11 7 0 -3 8 -21 18 -19 10 -42 29 -50 42 -12 18 -12 22
-2 16 8 -5 16 -4 20 2 4 7 19 8 45 2 28 -6 36 -6 27 3 -6 6 -11 18 -11 27 0
13 1 13 10 0 19 -29 10 1 -15 50 -27 53 -32 111 -15 170 6 22 6 38 0 44 -7 7
-10 3 -10 -11 0 -12 -11 -34 -25 -49 -27 -29 -31 -54 -14 -86 10 -18 8 -19
-13 -13 -83 25 -93 176 -14 230 46 33 122 4 113 -42 -7 -36 6 -17 20 30 11 36
10 44 -3 54 -8 6 -11 14 -6 17 6 3 13 -1 16 -9 5 -14 8 -14 29 -1 40 27 78 22
150 -18 65 -35 97 -41 97 -16 0 7 -8 9 -19 5 -22 -7 -86 22 -140 63 -21 15
-32 20 -29 11 4 -10 -1 -15 -12 -15 -17 0 -17 2 2 28 22 31 76 39 97 14 6 -7
43 -35 81 -60 80 -54 91 -86 45 -132 -69 -69 -181 -70 -240 -1 -38 44 -48 37
-13 -9 12 -16 23 -31 25 -33 1 -2 26 -9 55 -16 50 -12 52 -13 28 -23 -18 -8
-20 -11 -7 -11 12 -1 17 -9 17 -30 0 -40 -21 -55 -67 -46 -55 10 -66 22 -42
46 20 20 26 69 9 69 -6 0 -15 -12 -21 -27 -6 -16 -18 -43 -25 -61 -25 -58 -10
-96 48 -126 67 -35 71 -27 8 12 -40 25 -50 37 -50 58 0 26 1 26 18 11 10 -10
25 -17 32 -17 9 0 7 5 -6 16 -19 15 -19 16 1 8 11 -3 38 -10 60 -13 47 -8 87
-33 110 -67 21 -33 36 -22 24 19 -11 40 -12 37 6 37 8 0 15 5 15 10 0 6 -11
10 -24 10 -29 0 -86 53 -86 81 0 14 19 28 69 52 69 33 69 33 113 9 39 -21 36
-17 -15 20 -16 12 -17 18 -5 61 14 55 19 57 65 17 19 -17 38 -28 42 -26 4 3
12 -8 18 -25 8 -19 8 -31 1 -35 -6 -4 -5 -9 3 -15 7 -4 17 -5 23 -2 5 4 38 5
73 4 52 -2 69 2 95 20 48 33 51 42 23 66 -28 24 -33 46 -10 37 17 -7 21 11 5
21 -18 11 -53 88 -38 83 18 -6 59 -79 55 -98 -6 -29 43 -111 79 -132 19 -11
41 -33 49 -48 15 -28 14 -29 -30 -50 -47 -23 -85 -62 -85 -88 0 -13 3 -12 15
4 11 14 14 15 15 4 0 -27 -38 -79 -71 -95 -30 -16 -41 -16 -84 0 -15 6 -17 5
-9 -4 6 -7 29 -16 50 -21 36 -8 42 -6 109 45 39 30 96 86 128 125 58 70 97
102 97 79 0 -16 -58 -117 -73 -126 -7 -5 -32 -37 -56 -73 -25 -36 -65 -90 -90
-120 -25 -30 -35 -46 -22 -35 13 11 52 58 86 105 35 47 73 96 85 109 37 40 80
114 80 137 0 12 11 42 25 65 14 24 25 51 25 59 0 17 56 140 64 140 3 0 3 -15
0 -32 -3 -18 -7 -53 -10 -78 -4 -45 -4 -45 10 5 9 28 15 67 16 87 0 38 28 67
51 53 14 -9 2 -86 -27 -165 -20 -57 -21 -62 -4 -40 10 13 21 36 24 50 28 139
30 145 61 149 25 4 20 6 -28 15 -58 11 -58 11 -26 59 17 26 51 68 75 93 25 25
42 49 39 53 -2 5 13 38 35 74 24 39 40 78 39 94 -1 27 -1 27 -9 -5 -4 -18 -19
-49 -32 -70 -14 -20 -36 -55 -48 -77 -13 -22 -45 -67 -70 -100 -89 -114 -152
-224 -177 -308 -12 -41 -32 -67 -116 -152 -56 -57 -108 -112 -115 -122 -11
-16 -12 -15 -7 10 3 17 2 26 -4 23 -5 -3 -11 1 -14 8 -7 18 18 40 33 31 6 -4
20 2 31 14 11 12 24 21 29 21 16 0 11 33 -10 65 -23 34 -26 50 -7 39 8 -5 8
-2 -2 9 -9 11 -10 17 -2 17 6 0 11 6 11 14 0 23 44 110 85 171 27 38 39 67 40
93 1 25 12 52 33 82 44 59 41 94 -8 98 -31 3 -70 22 -44 22 5 0 9 26 10 58 0
34 7 71 18 92 18 35 18 35 -10 9 -66 -59 -102 -71 -151 -50 -33 13 -35 29 -7
62 27 31 27 74 0 130 -27 57 -110 159 -129 159 -6 0 5 -17 25 -37 88 -93 108
-136 88 -197 -5 -17 -12 -43 -14 -57 -5 -25 -5 -25 -78 -17 -80 10 -87 13
-127 74 -29 42 -29 42 -10 63 10 11 19 24 19 29 0 14 43 49 75 61 30 11 30 11
-3 6 -20 -3 -31 -1 -27 5 13 20 -6 9 -35 -21 -16 -18 -30 -27 -30 -20 0 6 -4
11 -9 11 -6 0 -7 -16 -4 -35 5 -31 3 -35 -16 -35 -11 0 -21 -4 -21 -8 0 -16
-60 -43 -76 -34 -14 8 -10 13 20 31 20 13 36 26 36 31 0 4 20 26 43 50 44 42
44 42 31 83 -7 23 -15 54 -18 69 -10 44 -68 112 -101 118 -30 6 -30 6 4 24 27
14 39 16 53 7 26 -16 33 -13 16 7 -9 9 -23 31 -31 47 -9 17 -16 24 -17 17z
m-196 -87 c23 -14 53 -36 66 -50 13 -14 30 -25 38 -25 9 0 6 6 -9 18 -22 19
-22 19 9 30 97 34 190 -99 151 -215 -26 -74 -36 -84 -172 -170 -55 -35 -44
-47 11 -13 22 14 38 18 45 11 7 -5 23 -11 37 -14 25 -4 25 -4 -1 -6 -14 0 -36
-10 -48 -20 -22 -19 -22 -19 6 -33 15 -7 28 -21 28 -30 0 -24 10 -31 24 -15
13 16 61 11 61 -6 0 -6 -9 -21 -21 -33 -15 -16 -17 -24 -8 -29 8 -5 10 -4 5 3
-5 8 2 12 18 12 18 0 26 5 26 18 0 10 6 26 14 37 13 19 11 20 -41 22 -52 2
-103 23 -103 42 0 17 96 34 120 21 12 -6 24 -9 27 -7 3 3 -9 13 -26 22 -25 12
-44 45 -27 45 32 0 109 -99 78 -101 -14 0 -14 -2 -2 -6 47 -17 80 -37 80 -49
0 -7 4 -16 10 -19 6 -4 7 1 3 11 -5 14 -3 15 16 5 20 -11 20 -14 7 -33 -26
-36 47 -117 155 -171 83 -42 87 -43 99 -24 11 18 10 19 -13 15 -48 -9 -53 8
-14 47 39 39 89 46 95 14 7 -37 -117 -164 -139 -142 -7 7 -3 16 13 28 23 17
23 17 -1 10 -13 -4 -21 -3 -18 2 3 5 -7 14 -22 20 -28 10 -28 10 -15 -16 12
-23 12 -27 -9 -38 -13 -6 -23 -8 -25 -2 -2 5 -7 7 -11 5 -3 -3 -17 4 -31 14
-24 18 -24 18 6 14 16 -2 21 -1 11 2 -9 3 -15 10 -12 15 4 5 0 9 -9 9 -8 0
-26 14 -40 31 -21 24 -27 27 -32 15 -5 -13 -13 -10 -45 17 -41 34 -48 47 -24
47 8 0 15 5 15 11 0 6 -7 8 -16 5 -8 -3 -26 1 -39 10 -53 34 -30 -8 33 -61
101 -87 177 -213 137 -229 -36 -13 -155 85 -155 128 0 27 -25 18 -74 -25 -52
-46 -67 -29 -24 27 25 32 24 32 59 57 24 18 24 18 2 37 -13 10 -23 24 -23 30
0 8 -15 11 -42 9 -54 -3 -173 22 -155 33 17 11 65 10 72 -2 3 -5 14 -10 23
-10 11 0 6 8 -15 21 -35 22 -89 14 -121 -18 -31 -31 -132 -8 -132 31 0 13 12
16 69 16 76 0 173 18 165 31 -2 5 -16 4 -31 -2 -14 -5 -64 -11 -112 -12 -47
-2 -95 -8 -106 -15 -11 -6 -14 -12 -8 -12 8 0 11 -11 9 -29 -3 -30 -3 -30 108
-29 114 1 188 -13 218 -39 9 -8 21 -12 27 -9 5 4 12 2 16 -4 3 -5 2 -10 -4
-10 -5 0 -36 -16 -68 -35 -32 -19 -51 -35 -43 -35 8 0 33 12 55 25 46 28 74
34 53 11 -7 -8 -17 -11 -22 -8 -5 3 -6 0 -2 -6 4 -7 -3 -16 -17 -23 -20 -9
-24 -19 -26 -61 -1 -50 -17 -83 -64 -135 -18 -21 -21 -21 -53 -6 -18 9 -31 20
-28 25 3 4 -1 5 -9 3 -7 -3 -22 3 -32 15 -10 11 -24 20 -32 20 -12 0 -18 13
-14 34 5 25 -12 46 -32 42 -12 -3 -48 -8 -80 -11 -37 -4 -66 -14 -77 -25 -18
-18 -18 -17 -25 7 -6 24 16 73 33 73 5 0 18 9 31 21 17 16 30 20 54 15 64 -12
71 -16 81 -51 3 -11 4 -3 1 17 -2 21 1 40 6 43 5 4 9 15 9 26 0 20 8 23 34 13
14 -6 14 -8 -4 -24 -11 -9 -17 -20 -13 -23 3 -4 14 5 25 18 13 16 30 25 48 25
30 0 47 -14 30 -25 -15 -9 -12 -22 6 -29 8 -3 12 -2 9 4 -3 5 0 18 6 28 15 24
5 52 -18 52 -15 0 -15 -1 2 -14 17 -12 12 -12 -36 -4 -29 5 -70 9 -89 9 -19 0
-42 4 -50 10 -11 7 -7 8 15 3 20 -4 27 -3 20 4 -5 5 -24 13 -42 17 -29 6 -31
5 -28 -20 1 -15 7 -31 14 -38 22 -22 13 -37 -21 -30 -39 7 -54 19 -82 69 -21
37 -21 37 22 83 54 59 82 91 82 96 0 2 -27 2 -61 1 -33 -1 -62 1 -65 6 -3 4
20 8 51 8 54 0 150 32 142 48 -12 27 -26 60 -32 77 -5 13 -9 16 -12 7 -4 -10
-8 -10 -19 -1 -8 6 -11 16 -7 22 3 5 1 7 -4 4 -18 -12 -55 63 -49 97 3 19 0
38 -9 50 -22 29 -19 44 21 122 55 106 99 125 178 79z m-146 -376 c62 -71 62
-71 38 -90 -29 -23 -139 -38 -150 -21 -4 7 10 16 39 23 25 6 47 15 50 19 5 9
-47 9 -55 0 -3 -3 -32 -18 -65 -33 -59 -29 -59 -29 -78 -5 -19 23 -19 23 1 26
44 7 34 90 -10 92 -12 0 -10 38 2 45 6 4 23 -6 39 -22 27 -28 28 -28 37 -8 5
11 20 22 34 23 14 2 29 8 35 13 15 15 18 12 83 -62z m689 -36 c-4 -3 -7 0 -7
7 0 7 3 10 7 7 3 -4 3 -10 0 -14z m-15 -45 c-7 -7 -12 -8 -12 -2 0 6 3 14 7
17 3 4 9 5 12 2 2 -3 -1 -11 -7 -17z m-810 -47 c-11 -7 -10 -9 3 -14 9 -4 15
-15 13 -24 -2 -13 4 -18 22 -18 26 0 40 -11 40 -32 0 -19 -25 -16 -44 6 -10
11 -28 22 -41 25 -42 11 -34 65 10 66 6 0 4 -4 -3 -9z m721 -7 c39 -7 48 -18
21 -28 -8 -3 -32 3 -52 14 -39 20 -31 24 31 14z m-656 -21 c-4 -3 -10 -3 -14
0 -3 4 0 7 7 7 7 0 10 -3 7 -7z m880 -77 c1 -1 -3 -20 -10 -42 -17 -56 -50
-96 -73 -87 -42 15 -92 56 -123 99 -32 47 -32 47 -1 79 32 33 32 33 118 -7 48
-23 88 -41 89 -42z m0 27 c-3 -3 -21 1 -41 8 -35 13 -35 13 2 29 37 17 37 17
40 -8 2 -13 1 -26 -1 -29z m-902 37 c3 -5 1 -10 -4 -10 -6 0 -11 5 -11 10 0 6
2 10 4 10 3 0 8 -4 11 -10z m55 -10 c0 -5 -5 -10 -11 -10 -5 0 -7 5 -4 10 3 6
8 10 11 10 2 0 4 -4 4 -10z m485 -100 c3 -5 4 -10 1 -10 -3 0 -8 5 -11 10 -3
6 -4 10 -1 10 3 0 8 -4 11 -10z m-60 -30 c-3 -5 -15 -10 -26 -10 -10 0 -19 5
-19 10 0 6 12 10 26 10 14 0 23 -4 19 -10z m-341 -51 c-6 -11 -24 -2 -24 11 0
5 7 7 15 4 8 -4 12 -10 9 -15z m551 -47 c-6 -7 -35 18 -35 31 0 5 9 2 20 -8
11 -10 18 -20 15 -23z m-140 -52 c27 -51 21 -63 -27 -55 -61 10 -67 20 -33 55
36 37 41 37 60 0z m368 -4 c4 -9 0 -13 -11 -11 -9 2 -19 4 -22 4 -4 1 21 20
26 21 1 0 4 -6 7 -14z m-164 -8 c15 -9 25 -9 46 0 26 12 45 9 45 -8 0 -5 -8
-11 -19 -15 -10 -3 -31 -23 -45 -45 -33 -50 -43 -50 -49 -2 -3 20 -8 47 -12
60 -8 25 4 29 34 10z m97 -80 c-18 -64 -79 -153 -84 -124 -8 39 38 155 66 170
36 19 36 16 18 -46z m56 40 c-6 -24 -43 -80 -49 -74 -3 3 46 96 52 96 2 0 1
-10 -3 -22z m-1016 -81 c60 -36 57 -52 -10 -52 -48 0 -52 2 -42 18 9 14 6 26
-11 57 -13 21 -23 47 -23 57 0 12 8 6 21 -18 11 -19 41 -47 65 -62z m204 88
c0 -2 -9 -9 -20 -15 -12 -6 -20 -7 -20 -1 0 5 8 12 18 14 9 3 18 5 20 6 1 0 2
-1 2 -4z m60 -5 c0 -13 -11 -13 -30 0 -12 8 -11 10 8 10 12 0 22 -4 22 -10z
m346 -19 c36 -8 37 -9 9 -10 -16 -1 -40 -4 -52 -7 -20 -5 -23 -2 -23 21 0 22
3 25 13 16 8 -6 31 -15 53 -20z m164 -35 c7 -9 22 -14 34 -12 11 2 15 1 8 -1
-10 -4 -8 -9 7 -19 11 -8 28 -39 37 -69 16 -49 19 -52 31 -37 9 11 8 5 -2 -16
-9 -19 -14 -40 -11 -48 4 -12 2 -12 -15 -4 -25 14 -56 65 -64 105 -14 70 -33
102 -73 124 -12 6 -22 16 -22 22 0 11 49 -21 70 -45z m-66 -10 c27 -57 31 -95
11 -102 -22 -9 -1 -24 33 -24 31 0 24 -19 -18 -47 -82 -56 -190 8 -190 113 0
33 -20 48 -35 24 -3 -5 0 -10 8 -10 10 0 14 -9 13 -30 -3 -41 -9 -44 -35 -16
-49 52 19 111 127 111 23 0 42 3 42 8 0 21 30 3 44 -27z m-904 -94 c-1 -16
-18 -33 -38 -37 -24 -4 -27 2 -12 25 8 12 10 12 11 -5 1 -20 2 -17 15 23 4 13
24 8 24 -6z m-53 -84 c-3 -7 -5 -2 -5 12 0 14 2 19 5 13 2 -7 2 -19 0 -25z
m37 -26 c-4 -18 -10 -32 -15 -32 -11 0 -11 1 2 39 14 40 21 35 13 -7z m513
-137 c17 -9 33 -25 36 -37 9 -31 -1 -36 -19 -10 -8 12 -21 22 -28 22 -17 0
-38 25 -29 33 8 9 5 9 40 -8z m-287 -55 c0 -5 3 -15 6 -24 8 -21 -24 -21 -55
0 -23 16 -23 16 1 28 23 13 48 10 48 -4z m17 -7 c-4 -3 -7 0 -7 7 0 7 3 10 7
7 3 -4 3 -10 0 -14z m-63 -119 c5 -14 4 -15 -9 -4 -17 14 -19 20 -6 20 5 0 12
-7 15 -16z"/>
<path d="M1311 1960 c14 -31 19 -36 19 -24 0 6 -7 19 -16 30 -14 18 -14 18 -3
-6z"/>
<path d="M1401 1956 c2 -2 15 -9 29 -15 24 -11 24 -11 6 3 -16 13 -49 24 -35
12z"/>
<path d="M1495 1900 c10 -11 20 -20 23 -20 3 0 -3 9 -13 20 -10 11 -20 20 -23
20 -3 0 3 -9 13 -20z"/>
<path d="M1227 1648 c6 -10 100 -10 107 0 2 4 -22 8 -54 7 -32 0 -56 -3 -53
-7z"/>
<path d="M1310 1619 c-14 -6 -45 -8 -70 -5 -45 5 -45 5 -1 -9 40 -13 47 -13
85 4 42 20 31 28 -14 10z"/>
<path d="M1617 1474 c16 -26 16 -27 -5 -44 -25 -21 -28 -30 -9 -30 15 0 47 51
47 75 0 9 -4 13 -10 10 -5 -3 -10 -1 -10 4 0 6 -7 11 -15 11 -13 0 -13 -4 2
-26z"/>
<path d="M1515 1420 c3 -5 11 -10 16 -10 6 0 7 5 4 10 -3 6 -11 10 -16 10 -6
0 -7 -4 -4 -10z"/>
<path d="M1563 1413 c4 -3 10 -3 14 0 3 4 0 7 -7 7 -7 0 -10 -3 -7 -7z"/>
<path d="M1483 1393 c4 -3 10 -3 14 0 3 4 0 7 -7 7 -7 0 -10 -3 -7 -7z"/>
<path d="M1513 1393 c4 -3 10 -3 14 0 3 4 0 7 -7 7 -7 0 -10 -3 -7 -7z"/>
<path d="M1726 1313 c-3 -4 15 -15 41 -25 26 -9 49 -16 51 -13 3 2 -7 9 -22
15 -15 5 -35 14 -45 20 -10 5 -21 6 -25 3z"/>
<path d="M1550 1270 c0 -7 3 -10 7 -7 3 4 3 10 0 14 -4 3 -7 0 -7 -7z"/>
<path d="M1075 1650 c3 -5 11 -10 16 -10 6 0 7 5 4 10 -3 6 -11 10 -16 10 -6
0 -7 -4 -4 -10z"/>
<path d="M2366 2070 c12 -59 25 -81 19 -30 -3 25 -10 49 -16 55 -6 6 -7 -3 -3
-25z"/>
<path d="M390 2045 c-7 -9 -10 -18 -7 -21 3 -3 10 4 17 15 13 25 8 27 -10 6z"/>
<path d="M922 1999 c-57 -34 -101 -63 -98 -66 3 -3 27 8 53 25 26 16 77 46
113 66 36 20 58 36 50 36 -8 0 -61 -28 -118 -61z"/>
<path d="M1498 2000 c12 -10 44 -26 70 -35 26 -9 62 -23 80 -31 18 -8 43 -14
55 -14 31 0 42 -10 55 -48 6 -18 20 -45 30 -60 11 -15 25 -44 31 -64 7 -21 17
-40 22 -43 5 -4 9 -15 9 -26 0 -28 26 -75 46 -83 20 -8 54 2 54 15 0 17 -30
82 -35 77 -3 -3 2 -21 10 -41 17 -41 5 -51 -13 -12 -28 61 -3 80 44 34 18 -18
39 -48 45 -66 8 -26 14 -31 24 -23 10 8 28 6 70 -9 43 -15 54 -17 45 -6 -7 8
-30 20 -51 25 -22 6 -46 21 -54 34 -14 22 -78 66 -138 96 -15 7 -36 28 -47 47
-10 18 -24 33 -29 33 -16 0 -45 60 -29 60 9 1 8 4 -3 13 -9 7 -21 22 -27 33
-8 15 -24 24 -49 27 -49 6 -146 41 -188 67 -41 25 -57 26 -27 0z m372 -280 c6
0 10 -12 10 -27 1 -16 7 -39 15 -53 21 -36 18 -49 -5 -21 -11 13 -20 34 -20
48 0 14 -9 36 -20 50 -11 14 -20 33 -20 42 1 10 6 6 16 -11 8 -16 19 -28 24
-28z m160 -123 c0 -5 -4 -5 -10 -2 -5 3 -10 14 -10 23 0 15 2 15 10 2 5 -8 10
-19 10 -23z"/>
<path d="M330 1910 c0 -7 3 -10 7 -7 3 4 3 10 0 14 -4 3 -7 0 -7 -7z"/>
<path d="M1850 1837 c25 -13 57 -31 73 -41 15 -10 27 -16 27 -13 0 10 -114 77
-130 77 -8 0 5 -10 30 -23z"/>
<path d="M1614 1820 c-23 -9 -41 -30 -27 -30 4 0 22 9 38 20 31 21 26 25 -11
10z"/>
<path d="M1880 1761 c14 -11 41 -26 60 -32 19 -6 49 -23 65 -38 72 -63 87 -73
45 -28 -27 29 -71 61 -110 80 -86 41 -89 42 -60 18z"/>
<path d="M1965 1770 c3 -5 8 -10 11 -10 3 0 2 5 -1 10 -3 6 -8 10 -11 10 -3 0
-2 -4 1 -10z"/>
<path d="M475 1750 c3 -5 8 -10 11 -10 3 0 2 5 -1 10 -3 6 -8 10 -11 10 -3 0
-2 -4 1 -10z"/>
<path d="M1560 1750 c0 -7 3 -10 7 -7 3 4 3 10 0 14 -4 3 -7 0 -7 -7z"/>
<path d="M1756 1615 c4 -8 11 -15 16 -15 6 0 5 6 -2 15 -7 8 -14 15 -16 15 -2
0 -1 -7 2 -15z"/>
<path d="M371 1590 c-1 -19 -12 -82 -26 -140 -14 -58 -25 -116 -26 -130 0 -23
-1 -23 -8 -5 -10 25 -7 -165 4 -222 4 -24 12 -43 17 -43 5 0 8 -10 6 -22 -2
-15 -9 -22 -21 -22 -9 1 -17 0 -17 -2 0 -13 40 -145 54 -178 20 -48 20 -52 0
-35 -39 32 -70 100 -108 234 -8 28 -14 40 -15 28 -1 -32 45 -172 71 -215 13
-20 49 -65 82 -98 48 -51 57 -66 53 -88 -3 -17 6 -54 22 -96 35 -86 58 -101
143 -92 45 4 72 1 115 -14 70 -24 81 -20 16 6 -30 12 -74 19 -118 20 -101 1
-108 5 -139 81 -29 72 -29 98 5 165 19 37 19 37 62 -6 52 -52 105 -55 127 -8
11 25 11 26 -7 10 -49 -44 -117 -23 -143 44 -7 18 -19 40 -26 48 -12 15 -19
48 -16 82 1 9 25 32 52 52 28 20 50 40 50 46 0 5 -21 -6 -46 -25 -71 -55 -75
-41 -7 25 33 33 57 60 52 60 -4 0 -18 -10 -30 -22 -29 -30 -19 1 14 43 28 36
60 45 109 32 46 -12 48 -9 8 12 -36 19 -75 11 -110 -21 -25 -23 -25 -23 -58 7
-17 16 -32 34 -32 40 0 16 42 99 50 99 9 0 61 73 85 121 9 16 11 29 6 29 -5 0
-12 -7 -15 -16 -6 -16 -21 -36 -83 -114 -35 -45 -58 -103 -49 -126 7 -17 -19
-74 -34 -74 -5 0 -25 9 -44 21 -24 14 -36 17 -36 9 0 -7 -10 -1 -21 14 -22 27
-22 97 -1 104 5 1 7 37 4 78 -5 80 16 203 28 168 8 -23 6 -159 -4 -229 -6 -43
-5 -47 6 -30 14 22 19 379 6 413 -4 11 -7 5 -7 -18z m143 -508 c23 -18 18 -45
-18 -101 -22 -34 -46 61 -26 100 13 23 16 23 44 1z m-86 -45 c12 -13 24 -38
27 -56 2 -18 6 -47 9 -64 6 -32 6 -32 -9 -2 -23 49 -17 4 11 -73 26 -72 21
-114 -16 -137 -16 -10 -57 42 -74 96 -16 48 -16 51 4 79 26 36 26 37 -10 34
-38 -3 -49 31 -27 79 9 17 19 44 22 59 8 31 23 28 63 -15z m-64 -152 c-4 -8
-7 -15 -9 -15 -2 0 -5 7 -9 15 -3 9 0 15 9 15 9 0 12 -6 9 -15z"/>
<path d="M893 1613 c4 -3 10 -3 14 0 3 4 0 7 -7 7 -7 0 -10 -3 -7 -7z"/>
<path d="M1685 1610 c3 -5 11 -10 16 -10 6 0 7 5 4 10 -3 6 -11 10 -16 10 -6
0 -7 -4 -4 -10z"/>
<path d="M2296 1508 c-30 -41 -33 -49 -15 -36 24 15 65 75 57 83 -2 2 -21 -19
-42 -47z"/>
<path d="M306 1473 c-15 -99 -18 -137 -11 -131 8 7 27 159 21 166 -2 2 -7 -14
-10 -35z"/>
<path d="M750 1470 c-20 -13 5 -13 35 0 20 9 20 9 0 9 -11 0 -27 -4 -35 -9z"/>
<path d="M650 1435 c-6 -8 -10 -19 -8 -26 2 -6 9 0 16 15 13 29 10 33 -8 11z"/>
<path d="M2349 1332 c-8 -15 -22 -36 -32 -47 -10 -11 -32 -40 -48 -65 -26 -39
-34 -44 -62 -42 -39 2 -12 -11 42 -21 29 -6 32 -5 21 8 -13 16 11 64 51 100
20 19 53 84 46 92 -2 1 -10 -9 -18 -25z"/>
<path d="M240 1340 c0 -7 3 -10 7 -7 3 4 3 10 0 14 -4 3 -7 0 -7 -7z"/>
<path d="M815 1329 c-4 -6 -5 -12 -2 -15 2 -3 7 2 10 11 7 17 1 20 -8 4z"/>
<path d="M248 1258 c5 -85 10 -96 11 -23 0 33 -3 66 -7 73 -5 7 -7 -16 -4 -50z"/>
<path d="M825 1299 c-5 -15 -10 -18 -15 -9 -5 9 -9 8 -13 -3 -7 -18 1 -27 23
-27 12 0 17 9 17 30 0 36 -3 38 -12 9z"/>
<path d="M2230 1241 c-12 -24 -13 -34 -1 -27 9 6 22 46 15 46 -2 0 -8 -9 -14
-19z"/>
<path d="M593 1173 c4 -3 10 -3 14 0 3 4 0 7 -7 7 -7 0 -10 -3 -7 -7z"/>
<path d="M265 1135 c6 -51 27 -123 31 -110 2 6 -5 42 -16 80 -13 47 -18 57
-15 30z"/>
<path d="M208 1125 c-2 -19 0 -35 4 -35 4 0 8 16 8 35 0 19 -2 35 -4 35 -2 0
-6 -16 -8 -35z"/>
<path d="M1130 1100 c0 -7 3 -10 7 -7 3 4 3 10 0 14 -4 3 -7 0 -7 -7z"/>
<path d="M170 1002 c0 -6 14 -46 31 -89 18 -45 34 -109 38 -153 8 -75 8 -75
10 -6 1 58 -5 84 -35 160 -37 93 -44 108 -44 88z"/>
<path d="M630 980 c0 -7 3 -10 7 -7 3 4 3 10 0 14 -4 3 -7 0 -7 -7z"/>
<path d="M2036 807 c-27 -56 -58 -118 -70 -137 -12 -19 -28 -62 -35 -95 -7
-33 -17 -68 -22 -77 -6 -12 -6 -18 0 -18 6 0 18 26 27 58 10 31 19 59 21 61 1
2 18 -10 38 -28 52 -45 57 -38 7 10 -45 43 -53 81 -12 59 19 -10 20 -10 8 9
-10 17 -10 25 0 41 6 11 12 28 12 38 0 9 10 33 23 52 22 33 60 121 54 126 -1
1 -24 -43 -51 -99z"/>
<path d="M1727 879 c7 -7 15 -10 18 -7 3 3 -2 9 -12 12 -14 6 -15 5 -6 -5z"/>
<path d="M774 868 c-4 -7 -3 -8 4 -4 7 4 12 9 12 12 0 8 -9 4 -16 -8z"/>
<path d="M2086 854 c-3 -9 -6 -25 -6 -37 0 -12 -14 -36 -32 -54 -18 -18 -28
-33 -22 -33 19 0 74 83 74 112 0 31 -5 36 -14 12z"/>
<path d="M1520 840 c10 -18 8 -19 -13 -11 -23 9 -23 8 -21 -37 5 -85 -35 -151
-102 -168 -48 -12 -63 6 -21 27 20 11 37 25 37 31 0 7 -6 6 -17 -4 -10 -8 -30
-19 -45 -26 -16 -6 -28 -16 -28 -22 0 -15 -95 -60 -127 -60 -14 0 -38 10 -52
23 -24 21 -25 21 -8 1 18 -21 18 -22 -5 -38 -22 -16 -24 -15 -40 4 -10 13 -25
20 -35 17 -15 -4 -16 -5 -1 -6 9 0 28 -21 42 -46 31 -52 39 -56 31 -17 -3 15
10 -5 30 -45 36 -70 37 -71 65 -61 21 7 30 18 35 41 4 18 8 39 11 48 3 12 -3
16 -25 17 -29 1 -29 1 -16 -43 22 -73 -11 -78 -48 -7 -43 82 -41 96 16 100 28
2 47 -1 47 -7 0 -6 -8 -11 -17 -11 -25 0 4 -20 29 -20 15 0 16 4 8 26 -6 14
-6 23 -1 20 14 -9 41 4 41 19 0 7 7 16 16 19 32 12 37 5 13 -20 -24 -27 -24
-27 4 -9 37 24 44 13 18 -29 -21 -33 -21 -37 -6 -60 16 -25 12 -52 -6 -41 -5
4 -9 1 -9 -6 0 -7 -10 -9 -26 -6 -17 3 -22 1 -16 -5 7 -7 27 -7 59 0 26 6 77
16 113 22 36 6 77 20 92 31 15 10 30 19 33 19 10 0 86 53 81 57 -2 2 -19 -5
-37 -16 -18 -11 -37 -17 -42 -14 -6 3 -7 1 -3 -5 4 -7 2 -12 -5 -12 -7 0 -21
-8 -32 -17 -20 -18 -20 -18 -3 15 23 45 -2 182 -33 182 -13 0 -9 29 5 34 8 3
11 12 7 23 -3 10 12 -5 35 -34 54 -67 79 -81 98 -56 7 10 13 23 13 28 0 6 -6
2 -13 -7 -22 -30 -50 -15 -93 49 -22 33 -10 93 17 86 11 -3 20 -12 20 -20 0
-10 6 -13 16 -9 20 8 57 -12 48 -25 -4 -7 1 -7 15 0 22 12 31 71 11 71 -6 0
-8 -11 -4 -25 8 -32 8 -32 -86 14 -65 32 -78 36 -70 21z m0 -209 c32 -114 -15
-181 -126 -181 -43 0 -65 61 -35 99 19 24 19 24 43 0 48 -48 62 -53 28 -11
-18 23 -37 42 -42 42 -5 0 -4 9 2 20 6 11 17 20 25 20 8 0 27 16 42 34 32 41
47 35 63 -23z"/>
<path d="M1367 543 c-4 -3 -7 -11 -7 -16 0 -6 3 -7 7 -4 3 4 18 -3 32 -15 22
-20 23 -20 8 -2 -9 11 -17 26 -17 32 0 13 -13 16 -23 5z"/>
<path d="M1423 843 c4 -3 10 -3 14 0 3 4 0 7 -7 7 -7 0 -10 -3 -7 -7z"/>
<path d="M1555 780 c3 -5 8 -10 11 -10 2 0 4 5 4 10 0 6 -5 10 -11 10 -5 0 -7
-4 -4 -10z"/>
<path d="M1630 730 c0 -7 3 -10 7 -7 3 4 3 10 0 14 -4 3 -7 0 -7 -7z"/>
<path d="M262 693 c-2 -32 2 -43 13 -43 8 0 26 -18 39 -39 14 -22 29 -42 35
-45 5 -3 21 -37 36 -75 24 -63 55 -110 55 -83 0 6 -4 13 -9 16 -5 4 -22 37
-37 76 -15 38 -37 79 -50 91 -13 13 -24 28 -24 36 0 7 -11 20 -24 29 -16 9
-26 28 -29 47 -3 27 -4 25 -5 -10z"/>
<path d="M2055 680 c3 -5 8 -10 11 -10 3 0 2 5 -1 10 -3 6 -8 10 -11 10 -3 0
-2 -4 1 -10z"/>
<path d="M1690 650 c-13 -8 -13 -10 2 -10 9 0 20 5 23 10 8 13 -5 13 -25 0z"/>
<path d="M600 642 c0 -5 12 -19 27 -33 26 -24 26 -24 3 9 -25 33 -30 38 -30
24z"/>
<path d="M1010 639 c0 -5 5 -7 10 -4 6 3 10 8 10 11 0 2 -4 4 -10 4 -5 0 -10
-5 -10 -11z"/>
<path d="M1869 603 c-42 -71 -113 -158 -153 -188 -26 -20 -43 -42 -49 -65 -4
-19 -18 -43 -30 -52 -12 -9 -19 -19 -16 -22 10 -11 50 35 56 65 3 16 20 40 37
54 64 50 112 108 156 189 35 63 34 76 -1 19z"/>
<path d="M521 594 c13 -14 35 -32 49 -39 31 -16 299 -105 316 -105 16 0 -32
29 -49 30 -19 0 -202 59 -259 84 -21 9 -42 25 -48 36 -6 11 -16 20 -22 20 -6
0 -1 -12 13 -26z"/>
<path d="M961 474 c-9 -20 -9 -25 0 -22 14 5 32 48 20 48 -4 0 -13 -12 -20
-26z"/>
<path d="M1555 422 c-27 -20 -79 -58 -115 -83 -36 -26 -74 -57 -85 -69 -11
-13 14 1 55 31 118 85 213 159 204 159 -5 0 -31 -17 -59 -38z"/>
<path d="M822 435 c3 -3 47 -12 99 -19 52 -8 112 -19 134 -25 22 -6 58 -10 80
-9 40 1 40 1 5 5 -19 2 -44 8 -55 13 -34 16 -276 48 -263 35z"/>
<path d="M1548 384 c-56 -47 -68 -59 -43 -46 24 14 102 82 93 82 -3 0 -26 -16
-50 -36z"/>
<path d="M609 345 c15 -29 118 -141 124 -135 3 3 -26 39 -64 80 -39 41 -66 66
-60 55z"/>
<path d="M1093 313 c4 -3 10 -3 14 0 3 4 0 7 -7 7 -7 0 -10 -3 -7 -7z"/>
<path d="M1426 294 c-23 -23 -20 -30 4 -9 11 10 20 20 20 22 0 7 -9 2 -24 -13z"/>
<path d="M988 293 c7 -3 16 -2 19 1 4 3 -2 6 -13 5 -11 0 -14 -3 -6 -6z"/>
<path d="M1095 200 c3 -5 8 -10 11 -10 3 0 2 5 -1 10 -3 6 -8 10 -11 10 -3 0
-2 -4 1 -10z"/>
</g>
</svg>
