<?xml version="1.0" standalone="no"?>
<!DOCTYPE svg PUBLIC "-//W3C//DTD SVG 20010904//EN"
 "http://www.w3.org/TR/2001/REC-SVG-20010904/DTD/svg10.dtd">
<svg version="1.0" xmlns="http://www.w3.org/2000/svg"
 width="380.000000pt" height="256.000000pt" viewBox="0 0 380.000000 256.000000"
 preserveAspectRatio="xMidYMid meet">
<metadata>
Created by potrace 1.16, written by Peter Selinger 2001-2019
</metadata>
<g transform="translate(0.000000,256.000000) scale(0.100000,-0.100000)"
fill="#000000" stroke="none">
<path d="M911 2495 c19 -20 43 -41 54 -47 11 -6 0 10 -25 36 -24 25 -48 46
-53 46 -6 0 5 -16 24 -35z"/>
<path d="M790 2500 c-11 -11 -20 -26 -19 -32 0 -7 5 -3 11 8 5 12 20 27 32 32
11 6 15 11 9 11 -7 1 -22 -8 -33 -19z"/>
<path d="M1042 2468 c11 -32 68 -107 68 -90 0 5 -13 26 -30 47 -16 21 -30 44
-30 51 0 7 -4 15 -10 19 -5 3 -4 -8 2 -27z"/>
<path d="M840 2470 c-13 -8 -12 -10 3 -10 9 0 17 5 17 10 0 12 -1 12 -20 0z"/>
<path d="M876 2472 c22 -15 44 -58 45 -87 0 -26 2 -27 9 -10 5 11 9 25 9 32 1
16 -48 73 -62 73 -8 0 -9 -3 -1 -8z"/>
<path d="M882 2365 c-1 -16 5 -39 13 -49 11 -15 15 -16 15 -5 0 8 -4 19 -9 25
-5 5 -11 20 -14 34 -4 22 -4 22 -5 -5z"/>
<path d="M861 2364 c0 -11 3 -14 6 -6 3 7 2 16 -1 19 -3 4 -6 -2 -5 -13z"/>
<path d="M1240 2369 c0 -5 5 -7 10 -4 6 3 10 8 10 11 0 2 -4 4 -10 4 -5 0 -10
-5 -10 -11z"/>
<path d="M1184 2358 c-4 -7 -3 -8 4 -4 7 4 12 9 12 12 0 8 -9 4 -16 -8z"/>
<path d="M1971 2360 c-7 -4 -12 -12 -10 -18 3 -7 10 -6 22 3 20 14 9 29 -12
15z"/>
<path d="M3155 2326 c-15 -13 -26 -28 -24 -32 2 -5 18 6 36 24 36 37 29 43
-12 8z"/>
<path d="M854 2308 c-4 -7 -3 -8 4 -4 7 4 12 9 12 12 0 8 -9 4 -16 -8z"/>
<path d="M994 2299 c-25 -13 -44 -62 -44 -113 0 -38 0 -38 -35 -34 -19 2 -35
0 -35 -4 0 -4 20 -8 44 -8 24 0 53 -3 63 -6 15 -5 15 -4 -3 9 -18 14 -19 23
-14 71 7 64 9 67 50 72 26 3 32 -1 50 -36 11 -21 20 -47 20 -56 0 -10 3 -15 6
-11 3 3 0 28 -7 56 -16 62 -48 82 -95 60z"/>
<path d="M1470 2289 c-11 -19 -13 -19 -29 -5 -20 18 -36 21 -26 6 3 -5 0 -10
-7 -11 -7 -1 3 -5 22 -9 26 -6 37 -5 43 6 8 14 67 -6 67 -24 0 -4 10 -18 21
-32 17 -20 19 -21 14 -5 -4 11 -7 28 -7 37 1 21 -43 58 -69 58 -10 0 -23 -9
-29 -21z m37 4 c-4 -3 -10 -3 -14 0 -3 4 0 7 7 7 7 0 10 -3 7 -7z"/>
<path d="M1160 2296 c0 -2 7 -6 15 -10 8 -3 15 -1 15 4 0 6 -7 10 -15 10 -8 0
-15 -2 -15 -4z"/>
<path d="M1258 2288 c13 -6 26 -24 29 -39 3 -15 17 -38 30 -51 26 -23 26 -23
13 2 -7 14 -16 27 -20 30 -4 3 -11 19 -17 35 -7 21 -17 31 -34 32 -24 3 -24 3
-1 -9z"/>
<path d="M2711 2262 c-20 -21 -45 -42 -56 -47 -19 -8 -19 -9 2 -12 32 -6 36
-34 13 -94 -26 -70 -35 -84 -44 -70 -10 16 -46 14 -46 -3 0 -7 7 -19 15 -26 8
-7 15 -9 15 -5 0 4 9 -4 21 -18 19 -25 21 -26 44 -11 24 16 25 15 36 -12 17
-44 28 -137 18 -156 -17 -32 -10 -64 15 -76 14 -6 32 -23 42 -37 23 -35 31
-31 26 11 -3 25 -1 35 7 30 7 -5 9 -1 5 8 -6 15 -18 20 -37 17 -5 -1 -6 3 -2
9 10 16 64 -17 71 -44 3 -13 14 -26 25 -29 10 -3 19 -12 19 -20 0 -9 9 -19 20
-22 11 -3 20 -13 20 -21 0 -12 -6 -11 -29 5 -21 15 -44 21 -83 20 -54 -1 -55
-2 -6 -13 25 -6 26 -9 18 -32 -7 -17 -7 -31 0 -42 8 -15 9 -14 10 7 0 14 5 21
13 18 6 -3 20 -8 30 -12 9 -4 17 -3 17 3 0 5 -11 13 -25 16 -14 4 -25 13 -25
21 0 21 15 19 60 -10 40 -25 40 -26 22 -46 -11 -11 -24 -38 -31 -60 -14 -46
-33 -44 -24 3 5 27 4 30 -11 25 -10 -4 -20 -7 -22 -7 -2 0 1 -9 8 -20 10 -16
10 -24 0 -40 -16 -27 -15 -35 3 -20 8 7 21 10 29 7 8 -3 17 -1 19 6 2 7 3 1 1
-13 -1 -14 -6 -33 -9 -42 -11 -29 20 -22 33 7 16 36 15 42 -4 19 -14 -17 -15
-17 -10 -1 3 10 6 23 6 28 0 6 4 8 9 5 5 -4 4 7 -2 23 -18 48 4 85 46 77 17
-4 39 -14 47 -22 13 -14 13 -15 -5 -12 -18 4 -75 -16 -75 -26 0 -2 16 0 35 4
19 4 35 7 35 6 0 0 -14 -34 -30 -75 -17 -40 -30 -79 -30 -86 0 -22 -20 -28
-46 -14 -17 9 -22 18 -18 31 3 10 1 18 -5 18 -6 0 -11 -16 -11 -35 0 -27 3
-33 15 -29 10 4 4 -13 -17 -50 -28 -47 -38 -56 -63 -57 -29 -2 -29 -2 5 -8 44
-8 102 -58 95 -82 -8 -26 36 -55 128 -84 61 -20 83 -23 93 -14 23 19 16 39
-16 50 -18 7 -30 18 -30 29 0 19 -47 41 -84 39 -12 -1 0 -8 27 -16 29 -9 47
-20 47 -29 0 -9 -5 -12 -12 -8 -7 4 -9 3 -5 -2 4 -4 22 -13 40 -19 18 -5 30
-14 27 -20 -6 -12 -77 -10 -93 3 -7 5 -28 14 -47 21 -35 11 -67 46 -51 55 5 3
20 -4 35 -15 15 -12 24 -15 21 -7 -3 8 -19 22 -36 32 -17 10 -46 32 -65 48
-33 29 -33 29 -6 79 19 34 34 49 50 50 12 1 28 2 34 3 7 1 13 -6 14 -14 1 -8
2 -26 2 -39 2 -24 71 -101 91 -101 23 0 75 58 77 86 2 16 5 49 7 73 4 37 1 48
-20 69 -13 13 -27 21 -30 18 -4 -3 1 -12 11 -19 17 -13 13 -47 -6 -47 -5 0 -7
4 -4 9 3 4 -3 16 -14 26 -19 17 -19 17 -7 -14 10 -27 16 -31 35 -26 23 6 23 5
17 -52 -8 -61 -34 -103 -65 -103 -47 0 -99 110 -70 146 12 13 10 14 -13 9 -31
-8 -32 -4 -14 45 21 59 50 106 55 91 2 -7 0 -16 -6 -20 -11 -7 -44 -93 -38
-99 2 -2 12 15 22 37 20 45 10 42 163 47 33 0 48 6 61 24 15 21 20 22 34 11
24 -20 21 7 -4 39 -11 14 -18 18 -15 10 13 -36 -112 -86 -141 -57 -4 4 -14 7
-23 7 -14 0 -14 -2 -1 -10 18 -11 7 -25 -14 -17 -18 7 -11 35 12 55 9 6 11 12
6 12 -22 0 -9 28 23 50 31 21 38 22 70 11 19 -7 53 -15 76 -18 67 -7 131 -68
106 -99 -6 -8 0 -11 18 -11 81 -1 143 -26 91 -36 -20 -4 -20 -4 4 -6 14 0 29
-7 32 -13 3 -7 4 4 1 24 -4 28 -2 39 12 47 12 7 13 10 4 11 -7 0 -11 6 -7 15
3 8 3 15 0 15 -3 0 -10 -13 -15 -30 -8 -22 -17 -30 -35 -30 -29 0 -84 26 -84
40 0 5 -16 25 -36 45 -41 41 -34 65 18 65 26 0 28 2 18 20 -6 11 -8 20 -5 20
3 0 -2 11 -11 25 -20 31 -24 86 -7 103 7 7 13 19 13 25 0 7 -7 4 -14 -6 -13
-17 -16 -16 -50 19 -35 36 -51 69 -21 44 8 -6 20 -8 26 -4 9 5 6 10 -9 15 -17
6 -22 17 -22 42 0 20 -5 34 -12 34 -14 0 -15 -43 -4 -121 5 -30 3 -64 -5 -90
-12 -42 -13 -43 -40 -29 -17 8 -30 25 -34 43 -3 15 -17 40 -31 55 -29 32 -29
36 -4 66 22 27 40 14 40 -28 0 -26 30 -106 37 -99 3 2 -1 14 -7 26 -13 24 -23
134 -15 160 3 10 21 25 40 35 19 9 35 20 35 25 0 19 -20 9 -60 -29 -41 -39
-41 -39 -75 -3 -51 56 -58 112 -14 112 18 0 46 46 35 58 -3 3 -10 -6 -15 -20
-19 -51 -81 -39 -81 16 0 15 -3 17 -11 9 -9 -9 -8 -18 5 -38 13 -19 14 -26 4
-29 -24 -8 -48 -3 -48 10 0 7 -9 16 -20 19 -21 7 -50 -9 -50 -28 0 -5 9 -2 20
8 23 21 22 21 44 -22 23 -46 20 -59 -18 -82 -33 -21 -52 -46 -47 -66 7 -29
-14 12 -30 57 -23 68 -24 89 -3 62 15 -19 16 -19 9 1 -27 78 -28 80 -36 59 -7
-16 -8 -17 -8 -1 -1 9 -6 17 -12 17 -6 0 -8 -7 -5 -16 15 -40 19 -67 7 -60
-23 14 -11 -41 12 -57 13 -8 28 -32 35 -53 6 -22 21 -45 32 -52 20 -12 20 -11
10 8 -15 27 7 63 56 92 19 11 31 24 28 30 -7 11 15 58 27 58 4 0 14 -19 23
-41 10 -23 28 -50 41 -60 22 -18 25 -59 4 -59 -5 0 -9 -6 -9 -13 0 -7 -13 -23
-29 -34 -28 -22 -28 -22 -61 -2 -37 23 -37 24 16 44 30 12 32 14 9 9 -16 -3
-44 -6 -62 -7 -30 -2 -31 -3 -15 -20 8 -10 31 -27 49 -38 18 -11 33 -25 33
-30 0 -19 -45 -8 -73 19 -24 22 -29 23 -23 7 20 -55 17 -100 -9 -128 -34 -38
-59 -24 -75 43 -7 28 -19 54 -28 59 -15 9 -15 11 2 29 16 18 16 25 5 56 -7 20
-18 36 -25 36 -18 0 -44 81 -45 145 -1 33 -4 47 -6 30 -6 -43 -21 -53 -29 -21
-4 16 -1 37 6 51 7 12 9 32 5 44 -4 12 -2 28 5 36 7 8 10 20 7 27 -3 7 -11 -2
-20 -22 -10 -23 -12 -37 -5 -41 7 -4 6 -13 -1 -27 -6 -11 -11 -41 -11 -67 0
-31 -4 -44 -11 -39 -6 3 -9 22 -7 41 4 35 4 35 -13 14 -17 -20 -59 -30 -59
-12 0 4 11 25 25 45 13 20 21 36 17 36 -4 0 -2 4 3 8 13 9 39 51 48 77 7 19 6
19 -10 -1 -19 -23 -63 -41 -63 -27 0 5 15 26 34 46 34 37 66 42 66 10 0 -8 5
-11 11 -8 13 9 -18 45 -39 45 -8 0 -31 -17 -51 -38z m31 -256 c25 -28 26 -30
10 -52 -14 -19 -18 -20 -20 -6 -2 10 -8 21 -13 27 -5 5 -9 18 -9 30 -1 18 -2
18 -11 3 -9 -16 -11 -16 -29 2 -11 11 -17 26 -14 34 8 20 50 2 86 -38z m313
34 c3 -5 1 -10 -4 -10 -6 0 -11 5 -11 10 0 6 2 10 4 10 3 0 8 -4 11 -10z
m-260 -58 c-8 -8 -25 10 -25 26 0 13 2 13 14 -4 8 -10 13 -21 11 -22z m-133
-4 c-9 -9 -12 -7 -12 12 0 19 3 21 12 12 9 -9 9 -15 0 -24z m242 6 c5 -14 4
-15 -9 -4 -17 14 -19 20 -6 20 5 0 12 -7 15 -16z m-84 -46 c23 -37 26 -78 8
-96 -9 -9 -9 -15 -3 -20 21 -14 55 -65 54 -81 0 -12 -3 -11 -10 5 -16 33 -65
46 -106 29 -35 -15 -35 -15 -28 8 5 12 7 47 6 78 -1 48 2 59 25 82 33 33 30
34 54 -5z m43 -75 c4 -18 3 -33 -1 -33 -4 0 -9 17 -10 37 -3 44 3 42 11 -4z
m277 -47 c0 -2 -7 -9 -15 -16 -13 -11 -14 -10 -9 4 5 14 24 23 24 12z m157
-23 c-4 -3 -7 0 -7 7 0 7 3 10 7 7 3 -4 3 -10 0 -14z m-116 -45 c10 -25 10
-31 -2 -38 -10 -7 -8 -11 11 -19 23 -9 23 -10 4 -10 -29 -1 -42 17 -50 67 -8
51 16 51 37 0z m-48 -19 c11 -55 6 -50 74 -64 83 -17 84 -39 2 -32 -35 3 -67
6 -72 6 -4 1 -17 16 -28 34 -17 27 -19 28 -14 7 9 -32 24 -50 47 -59 15 -6 12
-11 -22 -31 -23 -14 -48 -31 -55 -38 -10 -9 -16 -9 -21 -1 -3 6 -22 17 -40 25
-38 16 -52 50 -34 83 14 27 38 27 67 -1 13 -12 23 -17 23 -11 0 6 -7 16 -15
23 -9 7 -13 20 -11 27 3 8 -2 29 -11 46 -14 28 -14 30 -1 19 13 -10 17 -10 20
0 3 7 11 -18 18 -55 15 -79 21 -80 24 -5 4 90 34 106 49 27z m194 34 c-4 -3
-7 0 -7 7 0 7 3 10 7 7 3 -4 3 -10 0 -14z m19 -74 c26 -52 26 -79 1 -79 -8 0
-22 -9 -31 -19 -19 -21 -62 -20 -118 1 -44 16 -33 29 22 27 27 -2 53 1 57 5
11 11 10 60 -1 67 -7 6 27 49 39 49 2 0 16 -23 31 -51z m-109 -16 c-4 -3 -10
-3 -14 0 -3 4 0 7 7 7 7 0 10 -3 7 -7z m-172 -161 c0 -20 -19 -18 -23 2 -3 12
1 17 10 14 7 -3 13 -10 13 -16z"/>
<path d="M2765 1810 c3 -5 8 -10 11 -10 3 0 2 5 -1 10 -3 6 -8 10 -11 10 -3 0
-2 -4 1 -10z"/>
<path d="M3228 1593 c7 -3 16 -2 19 1 4 3 -2 6 -13 5 -11 0 -14 -3 -6 -6z"/>
<path d="M3260 1596 c0 -2 7 -7 16 -10 8 -3 12 -2 9 4 -6 10 -25 14 -25 6z"/>
<path d="M3110 2273 c0 -13 3 -23 8 -23 4 0 16 -16 27 -36 32 -59 115 -126
115 -92 0 7 17 29 37 50 20 21 32 38 26 38 -6 0 -27 -18 -48 -41 -37 -41 -37
-41 -77 -3 -22 22 -50 59 -63 84 -19 35 -24 40 -25 23z"/>
<path d="M1204 2253 c1 -21 2 -22 14 -6 16 22 15 30 -2 30 -8 0 -13 -10 -12
-24z"/>
<path d="M1937 2230 c-12 -28 -27 -48 -33 -46 -13 5 -31 -43 -38 -104 -5 -45
-5 -45 8 8 17 65 31 82 67 82 32 0 55 -31 43 -58 -10 -22 -11 -82 -1 -82 4 0
7 -6 7 -12 0 -7 14 -31 30 -52 17 -22 30 -47 30 -57 0 -17 17 -35 25 -27 2 2
-9 30 -25 62 -44 86 -33 118 21 60 13 -14 33 -30 44 -36 11 -6 -2 13 -29 41
-47 48 -51 50 -68 34 -17 -15 -18 -15 -18 5 0 11 -4 24 -10 27 -6 4 5 29 25
61 51 79 40 140 -26 142 -28 1 -33 -4 -52 -48z m65 5 c5 -6 8 -5 8 3 0 7 5 10
10 7 15 -9 12 -58 -4 -80 -14 -19 -15 -19 -33 -2 -11 9 -25 17 -31 17 -15 0
-15 25 -1 51 10 20 38 22 51 4z"/>
<path d="M2884 2268 c-4 -7 -3 -8 4 -4 7 4 12 9 12 12 0 8 -9 4 -16 -8z"/>
<path d="M3317 2261 c-4 -17 -3 -21 5 -13 5 5 8 16 6 23 -3 8 -7 3 -11 -10z"/>
<path d="M1020 2260 c0 -7 3 -10 7 -7 3 4 3 10 0 14 -4 3 -7 0 -7 -7z"/>
<path d="M1910 2255 c-7 -9 -11 -17 -9 -20 3 -2 10 5 17 15 14 24 10 26 -8 5z"/>
<path d="M655 2214 c-4 -22 -11 -55 -16 -74 -10 -39 -12 -66 -4 -58 8 8 36
160 31 166 -3 2 -8 -13 -11 -34z"/>
<path d="M1581 2228 c9 -20 9 -31 1 -40 -7 -9 -7 -18 2 -31 15 -19 31 -24 20
-5 -5 7 -7 24 -6 38 1 15 -5 35 -13 46 -14 18 -15 17 -4 -8z"/>
<path d="M3370 2216 c0 -30 -10 -43 -75 -103 -71 -64 -74 -69 -56 -80 17 -11
19 -10 15 2 -5 13 88 115 105 115 3 0 12 -9 19 -20 7 -11 17 -20 22 -20 6 0 3
12 -7 26 -11 17 -16 42 -14 70 1 24 0 44 -3 44 -3 0 -6 -15 -6 -34z"/>
<path d="M1378 2195 c-39 -26 -56 -45 -39 -45 5 0 13 5 16 10 13 21 85 50 109
44 38 -9 86 -62 86 -95 0 -35 -51 -78 -112 -96 -43 -13 -43 -13 -4 -8 35 4
110 45 128 70 18 24 6 57 -35 100 -51 53 -90 58 -149 20z"/>
<path d="M2824 2198 c-4 -7 -3 -8 4 -4 7 4 12 9 12 12 0 8 -9 4 -16 -8z"/>
<path d="M2968 2203 c7 -3 16 -2 19 1 4 3 -2 6 -13 5 -11 0 -14 -3 -6 -6z"/>
<path d="M3575 2200 c3 -5 8 -10 11 -10 3 0 2 5 -1 10 -3 6 -8 10 -11 10 -3 0
-2 -4 1 -10z"/>
<path d="M3037 2182 c-24 -27 -21 -36 4 -11 11 11 19 23 16 25 -2 2 -11 -4
-20 -14z"/>
<path d="M2882 2178 c-15 -15 -16 -65 -1 -74 8 -5 10 1 6 18 -4 15 0 33 9 46
16 23 6 30 -14 10z"/>
<path d="M3551 2174 c0 -11 3 -14 6 -6 3 7 2 16 -1 19 -3 4 -6 -2 -5 -13z"/>
<path d="M2062 2160 c0 -14 2 -19 5 -12 2 6 2 18 0 25 -3 6 -5 1 -5 -13z"/>
<path d="M2640 2165 c-7 -9 -11 -18 -8 -20 7 -8 38 5 38 15 0 17 -18 19 -30 5z"/>
<path d="M2811 2164 c0 -11 3 -14 6 -6 3 7 2 16 -1 19 -3 4 -6 -2 -5 -13z"/>
<path d="M3076 2157 c3 -10 9 -15 12 -12 3 3 0 11 -7 18 -10 9 -11 8 -5 -6z"/>
<path d="M3640 2160 c0 -7 3 -10 7 -7 3 4 3 10 0 14 -4 3 -7 0 -7 -7z"/>
<path d="M1920 2150 c20 -13 33 -13 25 0 -3 6 -14 10 -23 10 -15 0 -15 -2 -2
-10z"/>
<path d="M1015 2142 c8 -8 135 -9 135 -1 0 4 -32 7 -70 7 -39 -1 -68 -3 -65
-6z"/>
<path d="M1273 2143 c4 -3 10 -3 14 0 3 4 0 7 -7 7 -7 0 -10 -3 -7 -7z"/>
<path d="M1715 2140 c-3 -5 0 -7 8 -4 43 16 65 -88 27 -126 -11 -11 -15 -22
-10 -25 12 -8 30 3 30 17 0 6 8 17 18 24 10 8 12 13 5 14 -8 0 -13 15 -13 38
-1 55 -44 96 -65 62z"/>
<path d="M2810 2130 c0 -7 3 -10 7 -7 3 4 3 10 0 14 -4 3 -7 0 -7 -7z"/>
<path d="M3546 2124 c-9 -24 -7 -67 5 -84 8 -12 9 -10 4 8 -9 32 0 27 24 -12
30 -47 45 -159 20 -145 -31 16 -33 10 -5 -16 17 -16 26 -34 26 -55 0 -37 -9
-38 -40 -5 -13 14 -28 25 -34 25 -6 0 -3 -7 7 -14 9 -7 17 -18 17 -23 0 -5 11
-15 25 -21 39 -18 70 -88 56 -131 -12 -39 -9 -46 13 -38 11 4 13 15 9 41 -3
19 0 50 6 68 9 29 9 31 -3 15 -23 -29 -37 8 -47 125 -12 142 -17 163 -50 194
-36 35 -41 71 -6 53 22 -12 22 -12 3 10 -23 25 -22 25 -30 5z"/>
<path d="M1594 2108 c-4 -7 -3 -8 4 -4 12 7 16 16 8 16 -3 0 -8 -5 -12 -12z"/>
<path d="M1913 2113 c4 -3 10 -3 14 0 3 4 0 7 -7 7 -7 0 -10 -3 -7 -7z"/>
<path d="M3454 2106 c-32 -17 -55 -38 -50 -44 3 -2 12 3 22 12 17 18 44 7 44
-18 0 -17 51 -89 58 -82 3 3 -4 16 -16 29 -12 13 -22 30 -22 38 0 8 -6 24 -14
34 -12 17 -12 21 3 32 20 16 3 15 -25 -1z"/>
<path d="M2130 2102 c0 -6 11 -28 25 -48 14 -20 25 -43 25 -50 0 -8 5 -14 10
-14 14 0 13 6 -6 43 -22 41 -54 83 -54 69z"/>
<path d="M2595 2090 c-18 -20 -18 -20 6 -18 27 3 49 19 42 31 -8 13 -30 7 -48
-13z"/>
<path d="M3225 2100 c3 -5 8 -10 11 -10 2 0 4 5 4 10 0 6 -5 10 -11 10 -5 0
-7 -4 -4 -10z"/>
<path d="M1020 2049 c-22 -28 -40 -59 -40 -70 0 -12 -5 -16 -15 -13 -8 4 -15
12 -15 19 0 18 -39 65 -55 65 -15 0 -45 -27 -45 -41 0 -5 9 0 21 12 22 22 39
16 60 -23 10 -19 -5 -53 -20 -44 -3 2 -7 -17 -7 -43 -2 -46 -2 -46 10 -9 32
106 104 46 90 -76 -5 -41 -3 -59 10 -77 21 -31 20 -55 -4 -79 -11 -11 -15 -20
-9 -20 5 0 7 -4 4 -10 -3 -5 -10 -10 -15 -10 -12 0 -50 74 -50 97 0 10 -5 25
-11 33 -16 25 1 -60 21 -100 18 -35 18 -37 -1 -60 -27 -36 -23 -50 5 -15 20
25 26 28 40 16 14 -11 16 -11 16 3 0 21 30 96 39 96 4 0 13 -11 21 -24 10 -20
16 -23 30 -13 10 6 16 16 14 22 -3 7 3 18 13 26 16 12 17 12 6 -2 -7 -8 -9
-26 -6 -39 4 -16 3 -21 -5 -16 -15 9 -15 1 2 -54 14 -46 14 -46 -25 -78 -21
-18 -39 -37 -39 -42 0 -5 -5 -21 -10 -35 -10 -27 -10 -27 -49 4 -21 17 -60 40
-87 51 -43 19 -47 23 -30 32 14 8 32 3 83 -22 35 -18 67 -30 70 -26 8 7 10 6
-64 40 -35 17 -70 27 -82 23 -26 -6 -26 1 -1 33 22 28 25 40 10 40 -15 0 -49
-75 -44 -96 3 -10 -2 -28 -10 -39 -14 -19 -14 -19 -35 5 -11 14 -20 20 -21 14
0 -6 14 -23 31 -38 24 -22 30 -24 27 -9 -2 13 3 18 22 18 20 0 25 -4 22 -24
-1 -13 5 -30 15 -37 16 -12 6 -14 -75 -12 -94 3 -94 3 -90 -39 2 -24 -1 -43
-7 -43 -5 0 -2 -7 9 -15 10 -8 16 -21 13 -29 -4 -9 -2 -18 3 -21 6 -4 10 -17
10 -31 0 -23 2 -24 68 -22 67 2 67 2 10 5 -57 4 -57 4 -68 45 -6 22 -9 46 -6
53 3 8 -2 19 -10 26 -11 9 -12 15 -3 25 9 11 8 14 -2 14 -11 0 -11 2 1 10 8 5
47 10 86 10 69 0 72 -1 78 -26 4 -14 2 -32 -4 -39 -8 -9 -8 -20 -2 -31 10 -17
-5 -85 -23 -103 -6 -6 -46 -11 -90 -12 -44 -1 -89 -5 -99 -9 -23 -8 -110 21
-136 45 -10 9 -24 31 -31 48 -7 18 -19 40 -27 49 -8 9 -11 21 -8 27 4 5 2 12
-4 16 -6 4 -10 -4 -10 -19 0 -14 5 -28 11 -31 5 -4 8 -12 6 -18 -2 -6 0 -16 5
-22 4 -5 19 -24 33 -42 14 -18 41 -38 60 -44 19 -7 32 -16 29 -20 -2 -5 5 -13
17 -20 19 -10 25 -8 36 7 12 16 29 19 107 20 51 1 103 7 115 13 12 7 26 9 31
6 6 -3 10 -1 10 5 0 6 -6 13 -14 16 -12 4 -13 12 -5 32 6 14 8 37 4 49 -3 13
-2 23 3 23 10 0 2 82 -10 97 -13 16 -28 83 -19 83 7 0 73 -42 117 -75 21 -15
22 -14 32 15 6 16 14 30 18 30 3 0 4 -7 0 -15 -3 -8 -2 -14 2 -13 30 6 42 -16
42 -81 0 -54 3 -68 15 -68 17 0 20 13 5 22 -6 4 -10 29 -9 56 2 36 -3 55 -17
70 -19 22 -19 22 11 15 17 -4 38 -15 48 -23 9 -9 17 -12 17 -7 0 16 79 -120
80 -137 0 -14 12 -17 68 -17 55 0 62 2 37 9 -16 5 -45 7 -63 4 -19 -4 -32 -2
-28 3 3 4 -17 45 -44 89 -47 79 -54 106 -21 80 14 -10 14 -10 3 5 -8 9 -11 22
-7 27 3 6 0 8 -9 5 -8 -3 -17 -12 -20 -20 -6 -15 -36 -20 -36 -5 0 6 -12 6
-31 1 -46 -13 -51 15 -10 52 35 31 53 31 101 -1 14 -9 37 -21 51 -27 26 -12
32 -27 54 -141 4 -18 11 -33 16 -33 6 0 8 8 5 18 -3 9 -8 31 -11 47 -20 98
-26 110 -68 130 -23 11 -41 25 -40 32 2 7 -3 10 -10 7 -24 -9 -67 14 -67 36 0
23 3 24 30 8 15 -10 24 -10 39 -1 25 16 60 5 87 -26 16 -18 19 -28 11 -33 -13
-8 8 -11 61 -8 22 1 44 -7 67 -25 19 -14 35 -22 35 -17 0 18 -61 52 -93 52
-46 0 -87 41 -66 66 13 16 12 16 -5 7 -13 -7 -29 -8 -48 -1 -21 8 -33 7 -41
-1 -31 -31 -91 9 -81 55 12 60 38 61 105 3 32 -28 59 -46 59 -41 0 6 -19 27
-42 46 -40 33 -42 37 -25 50 23 18 22 29 -3 14 -25 -16 -29 -11 -44 56 -15 65
-8 83 39 91 51 9 57 -4 35 -65 -15 -40 -17 -56 -8 -59 6 -2 22 -15 35 -27 13
-13 29 -24 35 -24 34 0 84 -92 67 -123 -7 -12 -5 -15 10 -14 10 0 17 6 16 12
-2 5 -6 22 -9 37 -6 27 -61 98 -76 98 -4 0 -22 13 -40 30 -26 24 -29 32 -21
49 6 11 11 28 11 39 0 32 37 59 61 44 19 -12 19 -11 9 8 -11 21 -35 27 -45 11
-9 -16 -79 0 -97 23 -9 11 -18 32 -20 45 -2 14 -8 26 -15 28 -17 6 1 -54 24
-79 17 -19 7 -37 -20 -38 -4 0 -12 -10 -18 -22 -10 -24 -10 -25 8 66 4 18 2
27 -5 23 -14 -10 -24 -90 -16 -134 7 -36 8 -37 16 -13 6 20 7 17 4 -12 -3 -22
0 -39 7 -42 9 -3 8 -7 -3 -15 -20 -14 -32 -3 -25 22 4 14 -3 8 -19 -15 -14
-20 -26 -42 -26 -47 0 -20 -17 -11 -28 14 -16 35 -5 57 27 53 30 -3 31 13 6
112 -8 30 -16 65 -17 77 -3 22 -3 22 -28 2 -14 -10 -18 -17 -9 -14 13 5 21 -5
33 -41 19 -58 21 -78 4 -67 -7 4 -5 -5 5 -20 27 -41 23 -43 -43 -19 -13 5 -13
3 -1 -11 15 -19 9 -33 -9 -22 -20 13 -27 49 -20 110 6 50 4 63 -12 80 -23 25
-17 55 21 104 33 43 44 61 37 61 -3 0 -24 -23 -46 -51z m-343 -895 c-3 -3 -12
-4 -19 -1 -8 3 -5 6 6 6 11 1 17 -2 13 -5z"/>
<path d="M1081 2084 c0 -11 3 -14 6 -6 3 7 2 16 -1 19 -3 4 -6 -2 -5 -13z"/>
<path d="M1253 2085 c18 -10 27 -24 27 -41 0 -14 4 -23 9 -20 5 3 7 16 4 27
-5 20 -4 20 18 9 32 -17 69 -51 69 -64 0 -6 -15 -18 -32 -26 -18 -8 -34 -21
-36 -29 -3 -8 7 -5 25 8 26 20 63 21 63 2 0 -4 7 -16 15 -27 14 -18 15 -18 6
6 -5 14 -16 39 -25 55 -9 17 -16 35 -16 40 0 13 -50 43 -88 55 -15 4 -36 11
-47 15 -11 3 -8 -1 8 -10z"/>
<path d="M2085 2090 c3 -5 13 -10 21 -10 8 0 12 5 9 10 -3 6 -13 10 -21 10 -8
0 -12 -4 -9 -10z"/>
<path d="M3371 2084 c0 -11 3 -14 6 -6 3 7 2 16 -1 19 -3 4 -6 -2 -5 -13z"/>
<path d="M3665 2060 c3 -5 8 -10 11 -10 3 0 2 5 -1 10 -3 6 -8 10 -11 10 -3 0
-2 -4 1 -10z"/>
<path d="M1682 2044 c-12 -8 -22 -25 -21 -37 0 -15 2 -17 6 -7 3 8 15 23 27
32 27 22 17 32 -12 12z"/>
<path d="M3364 2039 c-19 -22 -19 -22 4 -8 12 8 22 17 22 21 0 12 -6 9 -26
-13z"/>
<path d="M1216 2025 c4 -8 11 -15 16 -15 6 0 5 6 -2 15 -7 8 -14 15 -16 15 -2
0 -1 -7 2 -15z"/>
<path d="M1932 2019 c-12 -19 -11 -19 8 -9 11 6 18 15 15 21 -8 12 -8 12 -23
-12z"/>
<path d="M2300 2031 c0 -5 7 -15 17 -22 15 -13 15 -12 4 9 -12 23 -21 28 -21
13z"/>
<path d="M3515 2030 c3 -5 8 -10 11 -10 3 0 2 5 -1 10 -3 6 -8 10 -11 10 -3 0
-2 -4 1 -10z"/>
<path d="M1085 2010 c-10 -11 -16 -22 -13 -25 3 -3 13 4 23 15 10 11 16 22 13
25 -3 3 -13 -4 -23 -15z"/>
<path d="M1393 2023 c4 -3 10 -3 14 0 3 4 0 7 -7 7 -7 0 -10 -3 -7 -7z"/>
<path d="M1700 2010 c0 -5 5 -10 10 -10 6 0 10 5 10 10 0 6 -4 10 -10 10 -5 0
-10 -4 -10 -10z"/>
<path d="M1878 2013 c6 -2 18 -2 25 0 6 3 1 5 -13 5 -14 0 -19 -2 -12 -5z"/>
<path d="M2138 2013 c-10 -3 -18 -9 -18 -14 0 -10 7 -11 34 0 23 9 9 19 -16
14z"/>
<path d="M3283 2013 c4 -3 10 -3 14 0 3 4 0 7 -7 7 -7 0 -10 -3 -7 -7z"/>
<path d="M3323 2013 c4 -3 10 -3 14 0 3 4 0 7 -7 7 -7 0 -10 -3 -7 -7z"/>
<path d="M1262 1990 c7 -10 14 -18 15 -16 6 6 -9 36 -18 36 -5 0 -4 -9 3 -20z"/>
<path d="M1780 1987 c0 -22 -5 -27 -26 -27 -51 0 -109 -46 -120 -94 -3 -17
-31 -58 -61 -91 -108 -118 -105 -115 -89 -115 8 0 26 15 39 34 12 19 51 65 85
101 59 64 74 84 52 70 -23 -14 -8 19 21 46 30 28 88 47 108 34 7 -4 10 5 8 24
-5 40 -17 53 -17 18z"/>
<path d="M830 1951 c-22 -21 -40 -45 -40 -52 0 -26 12 -59 22 -59 5 0 4 9 -2
20 -16 29 -5 53 40 94 22 20 36 36 30 36 -5 0 -28 -17 -50 -39z"/>
<path d="M1826 1968 c-20 -28 -20 -42 -1 -58 8 -7 16 -22 16 -34 1 -17 2 -18
6 -3 3 10 -2 29 -11 42 -14 22 -14 25 4 47 24 30 37 18 49 -45 12 -66 24 -73
20 -11 -4 48 -3 50 19 46 26 -5 52 -38 52 -64 0 -10 5 -18 10 -18 6 0 8 11 4
28 -6 26 -6 26 9 7 15 -19 15 -19 10 8 -3 15 -9 25 -13 22 -4 -2 -33 9 -65 25
-70 36 -89 37 -109 8z"/>
<path d="M1660 1970 c0 -7 3 -10 7 -7 3 4 3 10 0 14 -4 3 -7 0 -7 -7z"/>
<path d="M2156 1972 c-3 -6 3 -30 13 -55 19 -45 19 -45 -2 -41 -21 4 -21 4 1
-8 51 -26 76 -116 47 -172 -19 -36 -19 -42 0 -26 13 11 14 10 9 -4 -4 -9 -2
-16 3 -14 14 5 64 -53 56 -65 -4 -7 -8 -6 -11 3 -9 29 -33 48 -54 42 -14 -3
-19 -1 -14 6 4 7 2 12 -4 12 -7 0 -14 -9 -17 -20 -3 -11 -9 -20 -14 -20 -16 0
-49 44 -49 66 0 12 -7 27 -15 34 -8 6 -13 15 -12 18 1 4 -2 7 -6 7 -5 0 -15
12 -23 28 -8 15 -23 27 -32 27 -28 0 -43 20 -31 42 14 26 36 22 53 -9 18 -34
20 -27 5 16 -9 26 -16 32 -33 27 -11 -3 -24 -6 -27 -6 -4 0 -10 -10 -14 -22
-7 -19 -9 -16 -15 22 -7 45 -7 45 -8 -17 -3 -93 -36 -118 -81 -60 -12 15 -11
20 4 37 43 48 -26 10 -76 -41 -27 -28 -46 -39 -66 -38 -25 0 -26 1 -8 9 14 6
15 9 4 9 -8 1 -20 -4 -27 -11 -9 -9 -12 -8 -12 6 0 11 -4 15 -12 10 -10 -6
-10 -4 0 8 7 9 21 15 31 13 11 -2 17 4 18 16 2 20 33 70 33 54 1 -13 30 26 30
39 0 12 -51 39 -58 31 -3 -2 3 -7 12 -11 26 -10 19 -29 -32 -86 -27 -29 -68
-86 -91 -126 -43 -73 -43 -74 -30 -120 31 -115 123 -226 172 -209 7 2 -3 7
-21 11 -43 10 -78 58 -93 127 -13 57 -36 98 -26 44 6 -26 5 -27 -4 -9 -8 15
-7 30 5 57 15 37 16 37 74 37 36 0 66 -6 78 -15 19 -14 64 -21 50 -7 -4 4 -11
7 -14 8 -4 0 -20 7 -37 15 -31 15 -48 43 -19 32 8 -3 14 -2 13 3 -6 32 6 59
37 90 35 36 35 36 69 -3 42 -47 43 -54 2 -73 -28 -13 -32 -21 -35 -57 -2 -31
-8 -44 -23 -48 -27 -9 -24 -33 6 -41 16 -4 28 -17 35 -40 6 -19 16 -34 22 -34
6 0 6 -6 -2 -15 -7 -8 -16 -12 -21 -9 -5 3 -6 -2 -3 -10 3 -9 1 -16 -5 -16 -6
0 -11 -7 -11 -15 0 -22 -17 -18 -34 7 -20 29 -20 42 0 34 8 -3 12 -2 9 4 -11
17 -35 11 -35 -9 0 -28 11 -51 24 -51 6 0 33 -20 60 -45 40 -36 47 -48 42 -68
-3 -14 1 -41 9 -61 26 -62 21 -75 -26 -72 -23 2 -45 10 -50 17 -12 19 -11 32
1 24 6 -4 10 5 8 24 -2 30 -18 33 -18 3 -1 -9 -7 -2 -16 17 -8 19 -17 31 -20
28 -12 -12 -102 43 -133 80 -36 44 -42 35 -7 -11 13 -17 51 -44 84 -60 60 -29
93 -71 76 -98 -3 -5 0 -15 6 -23 7 -8 8 -15 3 -15 -6 0 -15 10 -21 23 -7 15
-11 17 -11 6 -1 -18 35 -69 49 -69 4 0 6 9 3 20 -11 40 54 26 100 -22 23 -24
45 -43 51 -43 29 -1 85 -37 119 -75 21 -23 40 -40 43 -38 8 9 -68 83 -113 109
-45 26 -45 26 -18 47 14 11 31 23 38 25 7 2 9 8 5 12 -4 4 -25 -7 -48 -25 -40
-32 -40 -32 -60 -8 -13 16 -19 38 -18 73 0 87 -1 97 -14 90 -7 -4 -5 0 5 8 19
16 69 0 89 -28 5 -6 8 -5 8 2 0 7 -13 19 -28 27 -33 17 -60 46 -44 46 6 0 20
9 31 21 19 21 19 21 30 0 20 -36 32 -121 21 -142 -7 -12 -7 -19 -1 -19 16 0
22 52 12 103 -9 49 -7 51 34 47 38 -3 50 -25 37 -67 -18 -61 -21 -151 -5 -157
8 -3 33 -45 55 -93 23 -49 47 -91 52 -95 7 -5 7 -17 -1 -38 -9 -25 -9 -30 3
-30 8 0 14 6 13 13 -5 23 13 82 51 167 41 93 57 160 37 160 -8 0 -13 -17 -15
-45 -1 -25 -13 -67 -28 -97 -15 -29 -33 -71 -39 -92 -12 -40 -12 -40 -58 55
-26 51 -52 101 -58 110 -9 12 -10 33 -3 75 9 59 9 59 54 65 43 6 43 6 9 7 -31
2 -38 6 -43 28 -8 31 1 45 14 24 9 -14 14 -7 11 13 -1 4 10 30 24 58 14 27 23
54 20 58 -3 5 3 8 12 6 10 -2 23 -4 30 -4 17 -1 75 -88 77 -114 1 -17 8 -22
31 -24 27 -1 28 0 9 9 -38 18 -56 111 -26 134 24 18 35 17 62 -6 24 -21 51
-24 84 -11 12 5 16 10 9 14 -6 4 -14 30 -18 57 -5 37 -15 58 -37 80 -19 19
-31 42 -33 65 -3 35 -3 35 26 18 37 -22 59 -7 41 29 -11 22 -11 22 -6 -4 7
-31 -21 -42 -32 -13 -4 8 -11 15 -18 15 -6 0 -26 23 -45 51 -19 28 -47 57 -62
65 -15 8 -32 21 -37 30 -5 10 -25 19 -43 21 -42 4 -45 8 -68 72 -10 29 -21 49
-25 43z m124 -139 c0 -7 -7 -13 -15 -13 -22 0 -18 -21 9 -58 19 -27 23 -41 18
-78 -3 -33 -1 -49 9 -55 9 -5 11 -11 4 -18 -22 -22 -65 66 -60 120 4 36 0 56
-14 81 -20 33 -20 33 14 33 21 0 35 -5 35 -12z m39 -38 c31 -16 94 -102 85
-117 -3 -5 0 -16 7 -24 10 -13 10 -17 -2 -25 -11 -8 -6 -16 24 -43 38 -32 67
-111 51 -137 -8 -14 -50 -10 -64 6 -15 18 -51 20 -67 4 -8 -8 -17 -8 -32 0
-12 7 -21 8 -21 2 0 -5 7 -11 15 -15 17 -6 21 -36 5 -36 -5 0 -17 11 -26 25
-9 14 -20 23 -24 20 -5 -3 -13 3 -19 12 -9 15 -12 15 -20 4 -6 -9 -11 -10 -15
-2 -4 6 -2 11 3 11 6 0 10 5 9 12 -5 23 46 26 59 4 7 -12 12 -16 13 -9 0 6 14
14 30 18 20 4 31 14 34 28 7 38 5 66 -5 72 -5 4 -6 12 -3 18 4 7 3 9 -1 4 -12
-11 -13 -60 -2 -75 12 -16 1 -27 -35 -36 -17 -4 -28 -2 -28 4 0 5 -9 10 -19
10 -20 0 -81 51 -81 68 0 6 10 14 22 18 24 7 48 -17 48 -50 0 -19 1 -18 24 3
15 14 30 20 37 16 7 -5 10 -4 5 3 -16 26 5 62 38 63 28 2 27 2 -9 8 -37 6 -40
8 -41 38 0 18 -10 46 -22 63 -37 49 -26 63 27 35z m-322 -88 c20 -22 9 -35
-13 -16 -16 13 -16 12 -5 -8 6 -13 18 -23 26 -23 24 0 18 -10 -30 -52 -37 -32
-45 -46 -45 -73 0 -40 -10 -49 -34 -32 -18 13 -24 41 -29 116 -2 35 2 46 21
59 21 14 22 13 16 -4 -6 -17 -5 -17 9 -4 9 8 17 29 19 45 2 17 12 38 23 47 19
16 20 15 23 -10 2 -15 11 -35 19 -45z m54 51 c6 -13 20 -33 31 -45 11 -12 20
-36 21 -55 1 -28 6 -36 40 -52 70 -33 87 -127 27 -140 -16 -3 -38 -14 -49 -25
-17 -17 -22 -18 -29 -5 -5 10 -8 3 -8 -21 0 -20 -6 -41 -14 -46 -11 -8 -8 -9
11 -5 18 4 31 0 42 -12 15 -16 13 -17 -31 -17 -49 0 -71 15 -72 49 0 15 -3 16
-15 6 -8 -7 -15 -23 -15 -36 0 -42 -32 -47 -84 -13 -41 27 -81 66 -46 44 10
-6 12 -4 7 7 -7 19 27 53 42 43 7 -4 11 3 11 17 0 13 7 32 15 42 8 11 15 32
15 46 0 19 13 39 41 65 42 38 42 38 60 14 23 -31 30 -22 13 16 -7 17 -13 26
-14 21 0 -5 -6 -3 -14 4 -8 6 -13 17 -10 24 3 7 -2 19 -11 26 -8 7 -15 25 -15
41 0 36 33 40 51 7z m-361 -12 c0 -3 -4 -8 -10 -11 -5 -3 -10 -1 -10 4 0 6 5
11 10 11 6 0 10 -2 10 -4z m80 -31 c0 -8 -9 -19 -20 -25 -11 -6 -17 -16 -14
-22 4 -7 3 -8 -4 -4 -7 4 -12 3 -12 -2 0 -6 -9 -8 -20 -5 -11 3 -20 9 -20 14
0 5 7 6 15 3 8 -4 15 -1 15 5 0 6 -13 11 -30 11 -29 0 -40 13 -20 25 6 3 10 0
10 -7 0 -9 2 -10 8 -1 4 6 23 13 42 16 19 2 38 5 43 5 4 1 7 -5 7 -13z m-127
-64 c-5 -3 -13 -15 -17 -26 -5 -12 -10 -15 -13 -8 -6 17 16 55 29 47 6 -4 6
-9 1 -13z m217 -76 c0 -8 -7 -15 -15 -15 -26 0 -18 20 13 29 1 1 2 -6 2 -14z
m334 -121 c21 -8 20 -27 -5 -75 -19 -38 -22 -40 -42 -26 -49 32 -47 68 4 94
29 15 24 14 43 7z m-249 -154 c3 -5 4 -10 1 -10 -3 0 -8 5 -11 10 -3 6 -4 10
-1 10 3 0 8 -4 11 -10z"/>
<path d="M1970 1528 c6 -7 10 -22 10 -34 0 -13 5 -26 10 -29 16 -10 1 47 -16
63 -9 7 -10 8 -4 0z"/>
<path d="M2007 1489 c4 -13 8 -18 11 -10 2 7 -1 18 -6 23 -8 8 -9 4 -5 -13z"/>
<path d="M2024 1445 c11 -8 24 -15 30 -15 5 0 1 7 -10 15 -10 8 -23 14 -29 14
-5 0 -1 -6 9 -14z"/>
<path d="M2600 1973 c0 -4 5 -15 10 -23 8 -13 10 -13 10 2 0 9 -4 20 -10 23
-5 3 -10 3 -10 -2z"/>
<path d="M3300 1970 c0 -7 3 -10 7 -7 3 4 3 10 0 14 -4 3 -7 0 -7 -7z"/>
<path d="M3543 1968 c3 -7 8 -21 12 -30 4 -11 3 -18 -4 -18 -6 0 -11 -5 -11
-10 0 -7 6 -7 20 0 19 10 19 13 5 40 -15 29 -32 43 -22 18z"/>
<path d="M2332 1958 c-6 -6 -12 -17 -12 -22 0 -6 5 -4 10 4 9 13 11 13 19 0 6
-8 12 -12 15 -9 3 3 0 13 -7 23 -10 13 -15 14 -25 4z"/>
<path d="M3347 1954 c45 -38 46 -104 2 -104 -5 0 -4 -9 3 -20 7 -11 16 -20 21
-20 4 0 5 5 2 11 -4 6 2 20 13 32 19 21 19 24 4 56 -10 19 -28 41 -42 49 -25
14 -25 14 -3 -4z"/>
<path d="M3074 1953 c10 -11 37 -12 30 -2 -3 5 -12 9 -21 9 -9 0 -13 -3 -9 -7z"/>
<path d="M3430 1950 c0 -7 3 -10 7 -7 3 4 3 10 0 14 -4 3 -7 0 -7 -7z"/>
<path d="M621 1907 c-8 -23 -17 -91 -20 -152 -6 -108 -15 -139 -45 -165 -9 -7
-16 -24 -16 -38 0 -13 -9 -40 -21 -58 -11 -19 -16 -34 -10 -34 6 0 15 9 21 20
6 11 15 18 20 15 6 -4 7 7 3 26 -4 23 -3 30 5 25 7 -4 12 -1 12 8 0 18 36 40
50 31 18 -11 11 -81 -10 -106 -15 -18 -22 -21 -28 -11 -6 9 -13 7 -28 -8 -10
-11 -32 -33 -48 -49 -18 -18 -24 -31 -17 -35 6 -4 11 -2 11 4 0 15 55 70 70
70 7 0 9 -7 6 -15 -19 -46 -19 -51 -4 -31 14 18 16 16 36 -25 12 -24 22 -37
22 -29 0 8 -9 32 -20 53 -11 21 -18 42 -14 48 11 18 31 -9 44 -59 7 -26 22
-78 35 -115 13 -40 18 -66 11 -64 -6 2 -15 22 -20 45 -8 33 -14 42 -30 42 -15
0 -17 -3 -8 -8 16 -11 34 -72 21 -72 -5 0 -9 -4 -9 -10 0 -5 18 -10 40 -10 39
0 48 7 32 26 -13 14 -40 93 -53 154 -6 30 -15 60 -20 66 -6 7 -3 34 6 70 16
62 20 105 6 70 -6 -15 -9 -17 -16 -6 -5 8 -1 18 10 27 25 18 11 17 -26 -3 -17
-8 -33 -13 -36 -10 -3 3 2 8 11 12 9 3 13 10 10 16 -3 5 2 16 12 23 11 8 14
15 8 15 -15 0 -10 167 6 233 16 60 9 70 -9 14z"/>
<path d="M1240 1925 c7 -8 24 -14 39 -14 20 1 22 2 6 6 -11 3 -24 9 -29 14
-16 15 -29 10 -16 -6z"/>
<path d="M562 1906 c-7 -15 -12 -39 -12 -54 1 -23 3 -20 16 16 17 50 14 78 -4
38z"/>
<path d="M2611 1904 c0 -11 3 -14 6 -6 3 7 2 16 -1 19 -3 4 -6 -2 -5 -13z"/>
<path d="M3441 1899 c-25 -20 -25 -20 1 -14 14 4 36 1 48 -5 12 -6 24 -9 26
-7 3 3 -8 11 -25 18 -16 7 -27 17 -25 21 8 13 1 9 -25 -13z"/>
<path d="M1395 1890 c-4 -6 6 -10 24 -10 34 0 44 -14 67 -92 20 -66 27 -57 9
11 -20 76 -77 128 -100 91z"/>
<path d="M2090 1882 c0 -6 8 -20 18 -32 16 -20 20 -21 25 -7 4 11 2 14 -9 10
-8 -3 -14 1 -14 10 0 9 -4 19 -10 22 -5 3 -10 2 -10 -3z"/>
<path d="M2381 1885 c0 -5 6 -19 14 -29 8 -11 15 -15 15 -10 0 6 -7 19 -15 30
-8 10 -14 15 -14 9z"/>
<path d="M900 1850 c0 -7 3 -10 7 -7 3 4 3 10 0 14 -4 3 -7 0 -7 -7z"/>
<path d="M1910 1826 c0 -14 5 -28 10 -31 6 -3 10 5 10 19 0 14 -4 28 -10 31
-6 3 -10 -5 -10 -19z"/>
<path d="M816 1799 c-10 -17 -15 -33 -12 -36 3 -3 11 6 17 20 15 33 32 39 58
21 18 -13 20 -22 16 -97 -4 -82 -4 -82 7 3 6 47 15 88 21 92 13 8 0 13 -53 22
-32 5 -38 3 -54 -25z"/>
<path d="M555 1790 c-3 -5 -1 -10 4 -10 6 0 11 5 11 10 0 6 -2 10 -4 10 -3 0
-8 -4 -11 -10z"/>
<path d="M2442 1778 c7 -15 15 -23 17 -17 2 6 -4 18 -13 27 -15 15 -15 15 -4
-10z"/>
<path d="M654 1780 c-12 -4 -24 -16 -28 -26 -10 -25 1 -29 14 -5 18 36 57 27
64 -14 6 -33 -9 -75 -26 -75 -5 0 -8 -5 -8 -12 0 -6 11 -1 25 12 27 26 31 50
14 99 -11 32 -20 36 -55 21z"/>
<path d="M3432 1763 c-23 -44 -33 -92 -23 -110 10 -18 53 -121 66 -158 4 -11
9 -15 12 -9 2 6 -8 37 -22 69 -14 32 -25 68 -25 81 0 13 -4 24 -10 24 -17 0
-11 53 10 88 11 17 15 32 10 32 -5 0 -13 -8 -18 -17z"/>
<path d="M540 1743 c0 -14 -7 -35 -17 -45 -9 -10 -11 -18 -6 -18 6 0 16 7 23
15 7 8 15 13 19 11 4 -3 5 11 3 30 -5 40 -22 46 -22 7z"/>
<path d="M1330 1750 c0 -7 3 -10 7 -7 3 4 3 10 0 14 -4 3 -7 0 -7 -7z"/>
<path d="M1383 1753 c4 -3 10 -3 14 0 3 4 0 7 -7 7 -7 0 -10 -3 -7 -7z"/>
<path d="M812 1725 c0 -16 2 -22 5 -12 2 9 2 23 0 30 -3 6 -5 -1 -5 -18z"/>
<path d="M1443 1703 c4 -3 10 -3 14 0 3 4 0 7 -7 7 -7 0 -10 -3 -7 -7z"/>
<path d="M211 1693 c-26 -3 -31 -7 -20 -14 10 -6 10 -9 2 -9 -7 0 -13 -11 -13
-25 0 -14 -4 -25 -10 -25 -18 0 3 -31 26 -41 20 -7 35 -39 19 -39 -9 0 -65 60
-65 69 0 13 -56 33 -77 28 -13 -3 -11 -5 8 -6 30 -1 77 -45 59 -56 -8 -5 -8
-10 0 -20 8 -9 5 -28 -10 -68 -18 -48 -50 -94 -50 -72 0 19 -44 -34 -62 -74
-24 -56 -16 -66 11 -13 42 82 53 66 16 -23 -13 -33 -24 -76 -23 -95 1 -33 1
-33 5 -5 2 17 8 39 12 50 5 11 18 40 29 65 37 87 57 125 82 155 8 10 13 30 12
46 -4 34 -5 33 41 14 25 -10 39 -25 51 -55 9 -22 18 -40 21 -40 10 0 -8 55
-26 82 -11 14 -19 33 -19 42 0 9 -8 20 -17 23 -38 14 -30 61 14 84 27 15 39 7
47 -32 3 -17 19 -47 36 -67 47 -58 37 -99 -11 -47 -25 25 -50 35 -30 12 6 -8
12 -37 13 -66 2 -47 6 -54 35 -72 18 -11 41 -18 50 -16 15 4 14 5 -3 6 -31 2
-89 89 -71 107 10 11 27 -7 28 -29 1 -20 2 -20 8 3 4 15 14 24 24 24 24 -2 22
3 -23 71 -39 59 -50 95 -29 95 5 0 8 4 4 9 -6 10 28 18 100 24 22 2 -5 4 -60
4 -55 0 -115 -2 -134 -4z m-134 -300 c-4 -3 -7 0 -7 7 0 7 3 10 7 7 3 -4 3
-10 0 -14z"/>
<path d="M1413 1693 c4 -3 10 -3 14 0 3 4 0 7 -7 7 -7 0 -10 -3 -7 -7z"/>
<path d="M557 1683 c-10 -9 -9 -33 1 -33 4 0 8 9 8 20 0 23 0 22 -9 13z"/>
<path d="M3490 1670 c0 -10 59 -44 65 -38 2 2 -12 13 -31 26 -19 12 -34 18
-34 12z"/>
<path d="M213 1643 c4 -3 10 -3 14 0 3 4 0 7 -7 7 -7 0 -10 -3 -7 -7z"/>
<path d="M833 1643 c4 -3 10 -3 14 0 3 4 0 7 -7 7 -7 0 -10 -3 -7 -7z"/>
<path d="M1488 1644 c-11 -10 -10 -131 1 -152 4 -9 11 -30 15 -47 7 -29 7 -29
-15 -10 -22 20 -22 20 -10 -2 6 -13 18 -23 26 -23 9 0 15 -9 15 -22 0 -34 15
-54 24 -33 8 21 -2 62 -22 93 -9 14 -18 59 -21 114 -3 49 -9 86 -13 82z"/>
<path d="M771 1604 c6 -21 13 -41 16 -44 9 -9 -9 65 -18 74 -4 5 -3 -8 2 -30z"/>
<path d="M2153 1633 c4 -3 10 -3 14 0 3 4 0 7 -7 7 -7 0 -10 -3 -7 -7z"/>
<path d="M505 1585 c-4 -25 -5 -48 -2 -51 3 -3 9 15 12 41 4 25 5 48 2 51 -3
3 -9 -15 -12 -41z"/>
<path d="M3595 1619 c-4 -6 -5 -12 -2 -15 2 -3 7 2 10 11 7 17 1 20 -8 4z"/>
<path d="M3520 1614 c1 -18 30 -49 30 -32 0 8 -7 21 -15 28 -8 7 -15 9 -15 4z"/>
<path d="M2533 1591 c0 -11 5 -18 9 -15 4 3 5 11 1 19 -7 21 -12 19 -10 -4z"/>
<path d="M258 1583 c-10 -2 -18 -9 -18 -14 0 -14 16 -11 30 6 7 8 11 14 9 14
-2 -1 -12 -3 -21 -6z"/>
<path d="M3565 1570 c3 -5 8 -10 11 -10 2 0 4 5 4 10 0 6 -5 10 -11 10 -5 0
-7 -4 -4 -10z"/>
<path d="M3659 1559 c-24 -20 -24 -20 3 -4 25 16 26 15 21 -4 -3 -11 -14 -27
-24 -37 -20 -18 -27 -94 -9 -94 6 0 10 9 10 20 0 28 14 25 44 -11 16 -19 26
-25 26 -16 0 17 -55 67 -73 67 -6 0 0 11 13 25 13 14 30 23 37 21 16 -6 16 -4
1 29 -14 30 -19 31 -49 4z"/>
<path d="M3580 1545 c-13 -14 -19 -25 -14 -25 11 1 54 36 54 44 0 13 -18 5
-40 -19z"/>
<path d="M3535 1533 c3 -15 20 -42 36 -60 16 -19 29 -44 30 -56 0 -12 3 -16 6
-9 11 27 30 -23 29 -75 -1 -34 3 -55 12 -58 7 -2 18 -17 24 -32 7 -15 20 -33
28 -40 10 -8 11 -12 3 -13 -6 0 -18 9 -26 20 -17 24 -27 9 -27 -40 0 -24 4
-28 34 -32 31 -3 35 -1 40 27 5 23 2 34 -14 47 -12 10 -20 29 -21 50 0 18 -3
27 -6 20 -6 -17 -33 4 -33 25 0 13 3 13 15 3 19 -16 19 -10 0 26 -9 18 -11 31
-4 34 5 4 1 14 -11 25 -11 10 -20 22 -20 27 0 5 -14 23 -31 41 -17 18 -37 47
-45 65 -17 39 -29 42 -19 5z m158 -370 c-7 -2 -19 -2 -25 0 -7 3 -2 5 12 5 14
0 19 -2 13 -5z"/>
<path d="M1233 1533 c4 -3 10 -3 14 0 3 4 0 7 -7 7 -7 0 -10 -3 -7 -7z"/>
<path d="M3700 1491 c0 -6 4 -13 10 -16 6 -3 7 1 4 9 -7 18 -14 21 -14 7z"/>
<path d="M1695 1480 c3 -5 8 -10 11 -10 3 0 2 5 -1 10 -3 6 -8 10 -11 10 -3 0
-2 -4 1 -10z"/>
<path d="M1737 1471 c12 -10 19 -22 15 -26 -4 -5 -1 -5 6 -1 19 11 15 20 -16
33 -27 13 -27 13 -5 -6z"/>
<path d="M1581 1447 c-25 -32 -25 -32 7 -3 33 31 37 36 25 35 -5 0 -19 -14
-32 -32z"/>
<path d="M2555 1460 c10 -11 22 -20 26 -20 5 0 1 9 -8 20 -10 11 -22 20 -27
20 -5 0 -1 -9 9 -20z"/>
<path d="M1424 1433 c30 -61 11 -118 -42 -126 -27 -4 -27 -4 -1 -6 15 0 34 8
44 19 10 11 25 20 34 21 10 0 11 2 4 5 -8 4 -10 16 -7 33 4 21 -1 35 -21 57
-26 29 -26 29 -11 -3z"/>
<path d="M1710 1451 c0 -5 5 -13 10 -16 6 -3 10 -2 10 4 0 5 -4 13 -10 16 -5
3 -10 2 -10 -4z"/>
<path d="M1600 1430 c0 -7 3 -10 7 -7 3 4 3 10 0 14 -4 3 -7 0 -7 -7z"/>
<path d="M2886 1425 c-9 -26 -7 -32 5 -12 6 10 9 21 6 23 -2 3 -7 -2 -11 -11z"/>
<path d="M3270 1435 c0 -5 -7 -19 -16 -30 -13 -17 -16 -18 -25 -5 -8 11 -8 9
-3 -10 4 -14 8 -43 10 -64 1 -24 8 -42 18 -48 9 -5 26 -28 37 -51 12 -23 32
-54 45 -68 24 -26 24 -26 4 -44 -20 -18 -20 -18 -20 14 0 18 -4 30 -9 26 -5
-3 -12 4 -16 15 -4 11 -33 38 -65 59 -32 22 -57 34 -54 28 3 -7 25 -24 49 -39
51 -31 72 -60 77 -108 3 -33 2 -35 -27 -33 -16 1 -22 -1 -12 -4 10 -2 16 -11
13 -18 -9 -25 52 15 72 47 20 31 20 31 40 -8 10 -21 17 -45 15 -52 -3 -7 2
-19 11 -25 16 -11 15 -16 -8 -47 -35 -48 -66 -107 -60 -112 2 -3 -3 -11 -11
-18 -12 -10 -19 -10 -27 -2 -7 7 -16 12 -20 12 -4 0 1 -9 12 -20 11 -11 20
-24 20 -29 0 -5 16 -33 35 -63 60 -90 77 -149 74 -256 -3 -88 -4 -94 -26 -103
-15 -5 -29 -5 -36 1 -75 60 -92 80 -135 169 -70 143 -61 227 34 301 24 19 44
41 44 48 0 7 7 26 15 42 21 40 31 120 16 120 -6 0 -11 -11 -11 -24 0 -13 -7
-29 -15 -36 -8 -7 -15 -27 -15 -44 0 -46 -9 -71 -29 -83 -17 -11 -20 -5 -31
80 -7 51 -13 100 -13 110 -1 9 -5 17 -9 17 -7 0 -1 -109 8 -137 6 -23 -8 -44
-26 -38 -9 3 -23 -1 -30 -10 -7 -8 -18 -15 -26 -15 -16 0 -36 34 -26 45 4 4
-22 5 -57 3 -54 -4 -68 -9 -88 -32 -24 -29 -29 -46 -13 -46 6 0 10 7 10 15 0
19 57 55 87 55 23 0 63 -35 63 -55 0 -6 -14 -26 -30 -44 -28 -30 -31 -39 -28
-90 3 -54 4 -57 41 -74 41 -19 51 -43 15 -33 -13 3 -36 6 -51 6 -27 0 -28 2
-22 38 5 37 5 37 -10 -1 -9 -24 -12 -53 -8 -75 3 -21 7 -50 8 -67 1 -16 6 -39
10 -49 9 -21 -16 -46 -48 -46 -14 0 -17 5 -12 20 5 15 3 18 -9 14 -9 -3 -16
-1 -16 5 0 13 -76 15 -84 3 -3 -5 12 -8 32 -8 20 1 39 -3 41 -9 12 -29 73 -47
86 -25 9 15 35 12 35 -5 0 -7 -8 -19 -17 -24 -16 -9 -16 -10 4 -11 12 0 24 -8
26 -17 3 -13 5 -11 6 6 1 22 4 23 47 18 29 -3 41 -1 33 4 -8 5 -30 9 -50 9
-43 0 -60 32 -32 62 22 24 31 23 45 -7 13 -29 66 -65 94 -65 13 1 10 5 -11 14
-44 19 -61 44 -64 94 -1 6 -7 12 -14 12 -6 0 -25 13 -40 30 -29 30 -29 30 7
30 41 0 74 -30 111 -100 46 -90 122 -146 181 -135 20 3 34 9 30 12 -3 3 6 20
19 38 14 17 25 38 24 46 0 8 -4 6 -9 -6 -7 -16 -9 -17 -9 -3 -1 9 4 20 9 23
15 9 3 127 -19 184 -18 47 -66 124 -97 156 -15 15 -15 18 5 39 12 12 19 25 15
28 -3 4 1 19 10 35 8 15 15 23 16 17 0 -21 88 -17 99 5 18 32 12 48 -7 19 -11
-20 -25 -28 -44 -28 -38 0 -43 16 -14 45 19 19 26 36 26 65 0 39 -13 53 -23
28 -3 -8 -6 -6 -6 5 -1 22 -25 60 -71 113 -37 43 -75 104 -72 117 1 4 -5 7
-13 7 -20 0 -21 79 -1 105 14 19 15 19 33 -4 17 -21 20 -22 26 -7 4 9 3 15 -2
11 -5 -3 -19 7 -30 22 -11 16 -21 24 -21 18z m51 -472 c-12 -20 -14 -14 -5 12
4 9 9 14 11 11 3 -2 0 -13 -6 -23z m-136 -102 c-22 -21 -65 -37 -65 -24 0 11
51 42 70 43 11 0 10 -5 -5 -19z m18 -63 c-24 -36 -28 -52 -28 -115 0 -70 -11
-96 -22 -53 -3 12 -21 27 -39 35 -49 20 -49 65 0 65 29 0 34 4 39 28 7 34 43
82 63 82 10 0 7 -12 -13 -42z m-45 10 c-3 -7 -20 -21 -39 -31 -32 -17 -32 -18
-6 -14 34 5 36 -10 1 -19 -55 -14 -55 23 0 57 36 22 49 24 44 7z m247 -118 c3
-5 4 -10 1 -10 -3 0 -8 5 -11 10 -3 6 -4 10 -1 10 3 0 8 -4 11 -10z m25 -55
c0 -5 -5 -3 -10 5 -5 8 -10 20 -10 25 0 6 5 3 10 -5 5 -8 10 -19 10 -25z
m-309 -24 c38 -1 79 -24 66 -37 -4 -5 -11 -3 -15 3 -8 13 -97 21 -108 11 -3
-4 6 -23 21 -43 27 -34 27 -36 10 -55 -32 -35 -34 -32 -49 86 -5 37 -4 40 17
38 12 -1 38 -3 58 -3z m328 -50 c1 -35 -5 -22 -12 24 -5 28 -4 34 3 20 5 -11
9 -31 9 -44z m-193 -84 c23 -37 54 -70 87 -92 32 -21 45 -35 34 -35 -53 0
-179 144 -176 201 0 16 -1 18 55 -74z m191 21 c-3 -8 -6 -5 -6 6 -1 11 2 17 5
13 3 -3 4 -12 1 -19z m-302 -8 c3 -5 4 -10 1 -10 -3 0 -8 5 -11 10 -3 6 -4 10
-1 10 3 0 8 -4 11 -10z"/>
<path d="M126 1406 c-21 -33 -22 -53 -1 -36 8 7 15 19 15 26 0 8 5 14 10 14
13 0 13 -1 -11 -57 -12 -26 -34 -84 -50 -128 -16 -46 -29 -69 -29 -55 0 29 11
69 35 123 9 22 11 36 5 32 -26 -16 -68 -170 -51 -188 14 -15 36 3 37 31 1 32
83 222 95 222 12 0 11 -2 -5 -36 -19 -39 -31 -81 -20 -71 5 4 13 22 19 39 18
56 35 46 37 -21 1 -34 2 -68 2 -78 1 -9 -5 -18 -11 -20 -8 -3 -13 6 -14 24 -1
28 -1 28 -8 -1 -12 -58 -38 -38 -32 24 3 32 -16 -14 -22 -53 -4 -27 -3 -35 6
-30 6 4 24 6 39 5 14 -1 29 2 33 8 3 5 17 10 30 10 13 0 27 5 31 11 4 7 0 9
-14 5 -19 -6 -20 -1 -27 83 -9 120 -58 178 -99 117z"/>
<path d="M833 1423 c9 -2 23 -2 30 0 6 3 -1 5 -18 5 -16 0 -22 -2 -12 -5z"/>
<path d="M2382 1416 c52 -33 62 -38 51 -24 -7 8 -11 17 -9 19 2 2 -7 5 -20 5
-14 1 -24 1 -22 0z"/>
<path d="M2497 1400 c3 -11 7 -20 9 -20 2 0 4 9 4 20 0 11 -4 20 -9 20 -5 0
-7 -9 -4 -20z"/>
<path d="M2526 1384 c-14 -21 -23 -42 -19 -47 9 -14 -17 -55 -39 -60 -15 -4
-23 2 -34 29 -8 19 -17 34 -19 34 -11 0 8 -56 24 -70 16 -14 15 -17 -16 -32
-33 -17 -33 -17 -39 7 -7 30 -20 33 -20 5 0 -11 5 -20 11 -20 5 0 4 -4 -3 -8
-9 -7 -7 -14 10 -33 20 -21 30 -24 71 -21 59 5 57 9 -8 15 -27 3 -52 6 -55 6
-3 1 8 12 24 26 30 26 63 29 59 7 -2 -7 8 -12 22 -12 14 0 25 -3 25 -8 0 -4
17 -6 38 -4 30 3 45 -2 76 -27 52 -41 58 -39 15 5 -34 36 -34 36 36 30 39 -3
76 -2 83 2 7 5 -15 9 -50 10 -35 2 -74 4 -88 5 -26 2 -37 26 -24 55 4 9 6 22
5 29 -1 6 8 14 19 18 22 7 27 25 8 25 -7 0 -20 15 -28 33 -22 47 -52 47 -84 1z
m73 -6 c9 -16 11 -32 6 -44 -14 -33 -17 -48 -19 -82 -1 -41 -27 -50 -80 -28
-43 18 -44 22 -6 64 33 35 48 40 56 17 4 -8 10 -15 15 -15 5 0 -3 18 -17 40
-26 39 -26 41 -9 60 22 25 35 22 54 -12z m-72 -35 c-4 -3 -10 -3 -14 0 -3 4 0
7 7 7 7 0 10 -3 7 -7z"/>
<path d="M1060 1374 c0 -8 5 -12 10 -9 6 3 10 10 10 16 0 5 -4 9 -10 9 -5 0
-10 -7 -10 -16z"/>
<path d="M1699 1362 c12 -17 32 -37 44 -43 12 -6 32 -21 44 -32 42 -38 32 -12
-14 37 -25 26 -43 40 -39 29 5 -12 -3 -9 -25 12 -32 30 -32 30 -10 -3z"/>
<path d="M275 1370 c-8 -13 3 -88 17 -113 6 -12 6 -23 -2 -31 -8 -10 -7 -15 5
-20 11 -4 15 1 15 19 0 14 3 25 8 25 12 0 51 -82 55 -115 4 -28 4 -28 6 5 0
19 -7 51 -18 70 -11 22 -17 47 -14 68 8 48 -52 124 -72 92z m49 -42 c22 -32
20 -58 -4 -58 -11 0 -20 4 -20 9 0 5 -3 23 -6 40 -8 37 8 41 30 9z"/>
<path d="M572 1346 c0 -20 4 -38 9 -41 9 -6 6 61 -3 70 -3 4 -6 -10 -6 -29z"/>
<path d="M2223 1373 c4 -3 10 -3 14 0 3 4 0 7 -7 7 -7 0 -10 -3 -7 -7z"/>
<path d="M781 1366 c2 -2 19 -6 38 -8 19 -2 37 -10 39 -16 5 -16 -35 -15 -41
1 -2 6 -8 9 -12 5 -11 -10 14 -38 34 -38 29 0 46 17 33 33 -7 7 -9 17 -5 20 3
4 -15 7 -42 7 -27 0 -46 -2 -44 -4z"/>
<path d="M3404 1358 c-4 -7 -3 -8 4 -4 12 7 16 16 8 16 -3 0 -8 -5 -12 -12z"/>
<path d="M3511 1330 c19 -16 28 -30 20 -30 -7 0 -34 -11 -60 -24 -41 -20 -51
-22 -72 -11 -13 7 -28 11 -32 8 -5 -3 -14 1 -19 8 -7 10 -9 8 -5 -8 4 -16 1
-20 -11 -16 -16 7 39 -80 58 -92 6 -4 8 -11 5 -16 -4 -5 -2 -9 4 -9 5 0 13 5
16 10 20 33 125 -35 125 -81 0 -17 -4 -28 -9 -25 -17 11 -18 -33 -2 -61 10
-15 16 -35 13 -43 -4 -12 -2 -13 9 -3 10 10 10 17 0 37 -8 14 -10 30 -5 38 9
14 10 19 12 59 1 15 12 39 25 55 18 24 55 105 40 91 -2 -3 -21 12 -40 34 -34
37 -35 40 -19 58 16 17 15 18 -8 14 -17 -4 -28 1 -38 16 -7 12 -19 21 -27 21
-7 0 2 -13 20 -30z m54 -76 c35 -37 25 -43 -45 -26 -64 16 -74 27 -37 42 37
15 57 11 82 -16z m-168 -4 c10 0 14 -6 10 -20 -6 -24 8 -27 21 -4 6 12 14 13
33 6 13 -6 50 -16 82 -23 63 -13 66 -19 37 -66 -24 -40 -21 -40 -78 -1 -25 18
-56 31 -67 30 -13 -1 -35 13 -56 35 -19 20 -28 32 -20 28 11 -6 13 -4 8 7 -3
9 -3 19 1 23 4 3 8 1 10 -4 2 -6 11 -11 19 -11z"/>
<path d="M403 1343 c9 -2 25 -2 35 0 9 3 1 5 -18 5 -19 0 -27 -2 -17 -5z"/>
<path d="M3033 1343 c4 -3 10 -3 14 0 3 4 0 7 -7 7 -7 0 -10 -3 -7 -7z"/>
<path d="M2853 1333 c4 -3 10 -3 14 0 3 4 0 7 -7 7 -7 0 -10 -3 -7 -7z"/>
<path d="M3297 1313 c-2 -13 1 -27 8 -33 9 -8 11 -4 7 16 -5 25 -3 26 24 20
16 -4 32 -12 35 -18 4 -6 6 0 6 13 -3 35 -73 37 -80 2z"/>
<path d="M1511 1313 c-8 -15 -12 -16 -22 -5 -7 6 -19 12 -26 12 -6 0 -1 -11
13 -25 15 -15 23 -32 20 -41 -3 -9 -1 -12 4 -9 6 3 10 2 10 -3 0 -5 -12 -12
-27 -15 -42 -7 -147 -39 -156 -47 -9 -8 14 -148 29 -173 17 -29 139 18 155 61
12 31 29 19 29 -20 0 -48 7 -30 13 37 3 33 2 54 -2 47 -8 -14 -23 76 -25 156
-1 48 -1 48 -15 25z m-12 -117 c-8 -17 -8 -29 0 -42 9 -17 10 -16 11 9 0 15 5
27 10 27 18 0 10 -64 -13 -104 -17 -30 -34 -43 -76 -58 -63 -24 -65 -23 -84
69 -14 73 -14 73 62 97 100 32 103 32 90 2z"/>
<path d="M1383 1163 c4 -3 10 -3 14 0 3 4 0 7 -7 7 -7 0 -10 -3 -7 -7z"/>
<path d="M1435 1147 c-40 -15 -38 -13 -27 -34 10 -17 11 -17 18 0 3 10 18 24
33 32 30 17 19 18 -24 2z"/>
<path d="M1370 1137 c0 -2 5 -18 11 -34 9 -27 14 -30 36 -24 15 4 29 14 31 22
4 11 2 12 -9 2 -20 -20 -49 -16 -49 6 0 11 -4 23 -10 26 -5 3 -10 4 -10 2z"/>
<path d="M1463 1109 c-2 -17 1 -18 13 -9 17 15 18 30 1 30 -7 0 -13 -9 -14
-21z"/>
<path d="M602 1275 c0 -16 2 -22 5 -12 2 9 2 23 0 30 -3 6 -5 -1 -5 -18z"/>
<path d="M2321 1266 c-14 -17 -4 -66 13 -66 14 0 36 -41 36 -67 0 -11 3 -13
13 -5 8 7 18 7 27 2 32 -21 140 -4 140 22 0 4 9 8 19 8 11 0 23 5 26 10 4 6
-5 10 -19 10 -14 0 -26 -4 -26 -10 0 -19 -62 -42 -97 -37 -31 5 -103 63 -103
82 0 4 -8 14 -17 21 -17 13 -17 15 1 29 11 8 15 15 9 15 -6 0 -16 -6 -22 -14z"/>
<path d="M1150 1260 c0 -7 3 -10 7 -7 3 4 3 10 0 14 -4 3 -7 0 -7 -7z"/>
<path d="M730 1250 c0 -7 3 -10 7 -7 3 4 3 10 0 14 -4 3 -7 0 -7 -7z"/>
<path d="M1125 1236 c4 -19 2 -32 -7 -37 -10 -7 -9 -9 5 -9 9 0 17 -8 17 -17
0 -16 -48 -95 -62 -101 -4 -2 -5 -9 -2 -16 3 -7 -13 -33 -35 -57 -21 -25 -48
-60 -58 -79 -25 -45 -38 -47 -51 -8 -11 33 -11 33 -8 -2 3 -29 -2 -41 -32 -73
-36 -37 -35 -57 3 -56 10 0 78 90 104 138 8 15 28 42 46 62 18 20 37 44 43 54
9 17 12 17 58 -6 26 -13 50 -29 51 -35 6 -20 -104 -138 -166 -178 -34 -22 -61
-44 -61 -48 0 -5 -12 -5 -27 -2 -25 7 -27 6 -15 -9 15 -18 57 -14 104 9 15 8
40 15 55 16 18 0 12 3 -17 7 -45 6 -45 6 -9 29 34 21 103 94 157 166 25 34 29
55 7 36 -12 -10 -16 -8 -24 11 -5 13 -14 36 -20 52 -7 17 -18 27 -31 27 -23 0
-25 8 -6 33 15 19 10 57 -11 96 -15 26 -15 26 -8 -3z m45 -156 c6 -11 8 -20 4
-20 -3 0 -1 -7 6 -15 16 -19 -3 -20 -22 -2 -7 8 -24 19 -36 26 -12 7 -20 16
-17 22 11 17 54 10 65 -11z m-260 -265 c-7 -8 -17 -15 -23 -15 -5 0 -2 9 8 20
21 23 35 19 15 -5z"/>
<path d="M580 1246 c0 -2 8 -10 18 -17 15 -13 16 -12 3 4 -13 16 -21 21 -21
13z"/>
<path d="M1198 1243 c7 -3 16 -2 19 1 4 3 -2 6 -13 5 -11 0 -14 -3 -6 -6z"/>
<path d="M2240 1246 c0 -2 7 -7 16 -10 8 -3 12 -2 9 4 -6 10 -25 14 -25 6z"/>
<path d="M1160 1229 c0 -5 5 -7 10 -4 6 3 10 8 10 11 0 2 -4 4 -10 4 -5 0 -10
-5 -10 -11z"/>
<path d="M1740 1222 c0 -7 4 -12 9 -12 5 0 17 -24 26 -52 9 -29 20 -66 25 -81
8 -26 7 -27 -7 -15 -20 16 -13 2 23 -47 12 -16 19 -36 17 -44 -3 -7 -1 -16 5
-20 6 -3 13 -24 17 -46 7 -39 7 -40 -10 -17 -9 13 -14 30 -11 38 3 9 1 12 -4
9 -6 -3 -10 -2 -10 4 0 5 -8 9 -17 9 -10 -1 -41 4 -70 11 -31 8 -79 11 -120 7
-77 -6 -107 10 -92 50 4 10 8 30 7 44 0 22 -1 21 -9 -7 -5 -18 -14 -32 -21
-30 -6 1 -13 -5 -16 -13 -2 -8 -1 -12 3 -8 9 8 34 -20 35 -38 0 -13 -30 -28
-38 -19 -3 2 1 11 8 20 10 12 10 15 -4 15 -9 0 -16 -8 -16 -19 0 -11 -3 -27
-7 -36 -5 -15 -3 -16 17 -5 21 11 43 10 85 -4 20 -8 20 -8 0 5 -19 13 -19 13
5 20 71 20 221 -2 246 -36 19 -25 18 -54 -2 -77 -16 -17 -17 -16 -33 14 -39
77 -139 69 -177 -13 -24 -55 -28 -56 -82 -9 -26 24 -57 47 -69 53 -29 13 -33
53 -11 100 10 20 14 37 10 37 -13 0 -45 -76 -38 -88 3 -6 -8 -24 -25 -42 -17
-17 -29 -34 -25 -37 3 -4 12 2 20 12 17 23 38 11 34 -20 -2 -15 9 -36 32 -62
35 -38 35 -38 -74 -36 -69 1 -104 -2 -95 -8 8 -5 52 -9 99 -9 92 -1 109 -8
136 -56 16 -29 16 -29 11 -1 -6 36 7 42 54 27 29 -10 39 -19 39 -34 0 -12 3
-31 6 -44 6 -20 3 -22 -32 -23 -39 -1 -39 -1 -1 -11 41 -11 50 -28 15 -28 -26
0 -14 -14 21 -25 24 -7 24 -7 17 66 -4 40 -11 81 -17 90 -19 37 -11 52 16 31
21 -17 32 -19 58 -11 45 13 60 11 54 -6 -4 -8 -2 -17 3 -20 5 -3 11 3 15 14 3
10 14 21 25 24 11 3 28 19 37 36 25 43 28 39 27 -26 -1 -50 0 -51 3 -10 5 59
17 60 33 2 7 -25 17 -45 21 -45 12 0 11 3 -6 36 -8 16 -15 39 -15 51 0 12 -5
23 -11 25 -7 2 -9 13 -5 25 10 33 48 18 73 -30 109 -209 138 -302 123 -396 -5
-29 -11 -56 -14 -58 -20 -20 -164 198 -158 238 2 8 -2 26 -8 40 -8 20 -9 17
-3 -15 5 -34 4 -38 -11 -33 -13 5 -11 -1 7 -26 13 -17 37 -57 53 -87 16 -30
46 -71 67 -92 72 -70 46 -85 -160 -90 -133 -3 -133 -3 -127 30 7 36 5 36 -108
32 -51 -2 -52 1 -32 97 5 24 34 22 71 -7 22 -17 22 -17 1 -36 -12 -11 -18 -13
-14 -6 4 6 4 12 -1 13 -4 0 -16 2 -25 4 -27 5 -29 -21 -2 -35 22 -12 27 -11
54 15 35 34 30 45 -35 72 -40 16 -46 24 -65 76 -12 32 -41 81 -64 110 -23 29
-41 57 -39 63 2 7 -18 8 -64 2 -53 -6 -72 -5 -90 7 -13 9 -23 11 -23 6 0 -19
39 -31 95 -28 56 2 58 1 97 -43 51 -57 74 -103 83 -163 8 -52 0 -58 -36 -27
-24 20 -24 20 -4 36 20 16 19 16 -7 12 -24 -4 -30 2 -72 76 -28 50 -46 73 -46
60 0 -12 7 -27 15 -34 8 -6 17 -22 21 -33 4 -12 16 -35 26 -50 11 -16 17 -31
13 -35 -4 -4 -10 -2 -12 5 -3 10 -9 10 -23 0 -25 -15 -39 -2 -50 47 -7 33 3
52 13 24 2 -7 7 -10 10 -7 4 3 -1 16 -10 28 -12 18 -17 20 -24 10 -5 -9 -9 -9
-9 -3 0 16 -61 44 -94 44 -19 0 -33 10 -52 39 -14 22 -44 52 -67 67 -40 26
-117 42 -117 23 0 -5 14 -9 32 -9 44 0 110 -41 141 -89 15 -23 32 -41 38 -41
5 0 17 -16 25 -35 17 -41 17 -45 4 -45 -5 0 -10 9 -10 19 0 11 -5 23 -12 27
-6 4 -8 3 -5 -3 4 -6 9 -54 12 -108 5 -93 5 -97 -12 -85 -10 7 0 -4 22 -24 47
-43 89 -70 66 -43 -7 10 -9 17 -3 17 5 0 17 -11 26 -25 9 -14 12 -25 6 -25
-19 0 -10 -15 17 -27 33 -16 77 -17 103 -3 12 7 28 7 44 0 15 -5 26 -6 26 0 0
5 -10 10 -22 12 -23 3 -23 3 2 26 20 18 35 22 91 22 67 0 67 0 52 -31 -14 -28
-18 -30 -54 -24 -25 4 -39 3 -39 -4 0 -15 96 -17 277 -5 183 12 193 16 234
101 47 97 -18 337 -114 425 -29 26 -29 28 -13 53 20 30 45 32 69 5 9 -11 22
-20 28 -20 8 0 6 7 -4 18 -22 24 -21 33 1 25 22 -8 61 -54 62 -72 0 -8 3 -11
7 -7 14 13 -31 77 -63 91 -31 13 -58 57 -103 169 -6 16 -14 26 -17 23 -8 -8
25 -94 53 -139 29 -47 29 -58 1 -58 -12 0 -30 -8 -40 -17 -48 -43 -108 44
-109 160 -1 51 -15 64 -21 20 -3 -21 -7 -12 -17 35 -8 34 -18 65 -22 68 -5 3
-9 18 -9 33 0 16 -10 37 -25 51 -14 13 -25 18 -25 12z m15 -367 c14 -13 25
-36 25 -50 0 -33 3 -32 45 13 22 24 35 32 35 21 0 -17 -32 -50 -67 -68 -29
-15 -33 -14 -33 7 0 21 -27 62 -41 62 -6 0 -7 -5 -3 -12 5 -7 2 -9 -7 -6 -51
19 -54 18 -71 -22 -21 -51 -57 -67 -100 -45 -26 13 -29 13 -24 0 10 -26 -10
-16 -48 22 -36 37 -48 83 -23 83 7 0 37 -23 67 -51 60 -55 74 -56 99 -3 36 77
98 98 146 49z m-20 -86 c0 -54 -36 -75 -83 -47 -15 8 -31 14 -37 13 -5 -1 -7
0 -2 3 4 2 17 22 28 43 18 37 22 39 57 36 36 -4 37 -5 37 -48z m95 -9 c0 -5
-7 -10 -16 -10 -8 0 -12 5 -9 10 3 6 10 10 16 10 5 0 9 -4 9 -10z m-40 -14 c0
-3 -5 -8 -12 -12 -7 -4 -8 -3 -4 4 7 12 16 16 16 8z m-194 -43 c-2 -2 -11 0
-20 3 -14 5 -15 9 -5 15 12 7 34 -10 25 -18z m448 -30 c32 -65 56 -149 55
-192 -1 -26 -3 -29 -6 -11 -8 51 -35 141 -58 195 -30 67 -24 73 9 8z m-690
-104 c27 -32 35 -55 14 -43 -10 6 -10 4 -2 -7 6 -8 14 -31 17 -51 5 -36 3 -39
-40 -68 -50 -34 -67 -30 -61 16 2 20 9 30 23 32 34 5 65 25 65 41 0 11 -5 9
-20 -7 -25 -26 -30 -27 -30 -6 0 8 4 13 9 10 10 -6 25 24 16 32 -3 3 -5 0 -5
-6 0 -7 -9 -12 -20 -12 -16 0 -20 7 -20 31 0 17 -5 39 -10 50 -19 34 34 24 64
-12z m-44 -100 c0 -5 -4 -9 -10 -9 -5 0 -10 7 -10 16 0 8 5 12 10 9 6 -3 10
-10 10 -16z m129 -24 c-13 -13 -28 -25 -33 -25 -5 0 1 11 14 25 13 14 28 25
33 25 5 0 -1 -11 -14 -25z m61 -4 c0 -5 12 -12 26 -15 18 -5 24 -11 20 -23 -5
-11 -2 -14 10 -9 12 4 14 1 10 -14 -3 -11 -9 -29 -12 -40 -4 -16 -14 -20 -45
-20 -47 0 -49 10 -10 43 27 22 28 27 16 43 -14 18 -14 18 -15 0 0 -19 -46 -76
-61 -76 -22 0 -21 72 2 96 22 23 59 33 59 15z m-106 -43 c-4 -7 -16 -23 -27
-35 -11 -13 -16 -23 -10 -23 6 0 21 12 32 28 20 27 20 27 22 2 1 -14 1 -30 0
-36 -1 -11 89 -30 119 -25 8 2 2 -9 -15 -23 -16 -14 -40 -26 -52 -26 -12 0
-27 -2 -35 -5 -7 -3 -22 1 -32 8 -17 12 -13 14 35 12 30 -1 41 -1 24 1 -58 8
-75 15 -75 29 0 8 5 15 10 15 6 0 10 5 10 11 0 8 -4 8 -12 2 -14 -11 -78 10
-78 25 0 8 69 51 83 52 5 0 5 -6 1 -12z m316 -118 c0 -5 -5 -10 -11 -10 -5 0
-7 5 -4 10 3 6 8 10 11 10 2 0 4 -4 4 -10z"/>
<path d="M2181 1214 c0 -11 3 -14 6 -6 3 7 2 16 -1 19 -3 4 -6 -2 -5 -13z"/>
<path d="M1993 1213 c4 -3 10 -3 14 0 3 4 0 7 -7 7 -7 0 -10 -3 -7 -7z"/>
<path d="M2221 1194 c0 -11 3 -14 6 -6 3 7 2 16 -1 19 -3 4 -6 -2 -5 -13z"/>
<path d="M432 1193 c32 -4 39 -9 44 -31 7 -31 10 -41 23 -62 5 -8 14 -35 20
-60 10 -45 10 -45 6 4 -3 27 -12 60 -20 72 -8 13 -15 34 -15 48 0 27 -18 37
-63 34 -30 -1 -29 -2 5 -5z"/>
<path d="M1028 1193 c12 -2 32 -2 45 0 12 2 2 4 -23 4 -25 0 -35 -2 -22 -4z"/>
<path d="M2713 1172 c10 -10 17 -28 17 -40 0 -11 4 -23 9 -26 15 -10 7 58 -9
71 -23 19 -35 15 -17 -5z"/>
<path d="M2843 1178 c-15 -22 -34 -70 -24 -63 12 7 43 67 37 72 -2 2 -7 -2
-13 -9z"/>
<path d="M3743 1183 c4 -3 10 -3 14 0 3 4 0 7 -7 7 -7 0 -10 -3 -7 -7z"/>
<path d="M1750 1164 c0 -10 5 -26 10 -34 8 -11 9 -7 4 15 -8 37 -14 45 -14 19z"/>
<path d="M10 1160 c0 -5 5 -10 11 -10 5 0 7 5 4 10 -3 6 -8 10 -11 10 -2 0 -4
-4 -4 -10z"/>
<path d="M926 1138 c-3 -13 -6 -58 -6 -100 0 -79 11 -99 52 -97 7 0 3 5 -9 11
-28 14 -37 58 -30 144 5 67 3 79 -7 42z"/>
<path d="M2050 1150 c0 -7 3 -10 7 -7 3 4 3 10 0 14 -4 3 -7 0 -7 -7z"/>
<path d="M2770 1153 c0 -6 4 -14 10 -18 5 -3 6 -13 3 -22 -4 -11 -3 -14 5 -9
16 9 15 18 -3 42 -8 10 -15 14 -15 7z"/>
<path d="M2883 1138 c-9 -15 -10 -20 -12 -49 0 -11 -5 -18 -9 -15 -5 3 -19 -8
-31 -24 -27 -38 -44 -80 -31 -80 6 0 10 5 10 11 0 15 41 81 46 76 3 -2 0 -17
-6 -32 -6 -15 -9 -30 -6 -32 2 -2 14 22 25 54 12 32 25 66 31 75 11 20 -4 35
-17 16z"/>
<path d="M152 1133 c-12 -2 -20 -8 -17 -13 3 -4 -12 -11 -32 -15 -20 -4 -46
-13 -56 -20 -11 -7 -26 -11 -33 -8 -8 3 -14 0 -14 -6 0 -16 15 -14 86 10 35
12 71 30 80 40 9 11 15 18 13 18 -2 -1 -14 -4 -27 -6z"/>
<path d="M2253 1133 c4 -3 10 -3 14 0 3 4 0 7 -7 7 -7 0 -10 -3 -7 -7z"/>
<path d="M640 1122 c0 -5 9 -26 20 -48 12 -21 19 -30 16 -19 -3 11 -8 32 -12
48 -6 24 -24 39 -24 19z"/>
<path d="M2608 1107 c38 -40 20 -67 -20 -30 -15 13 -22 14 -40 4 -15 -7 -16
-10 -4 -6 10 3 33 -4 51 -15 17 -11 34 -18 37 -15 4 5 20 -24 47 -85 10 -23
11 -22 5 9 -12 64 -64 161 -87 161 -6 0 -1 -10 11 -23z"/>
<path d="M266 1072 c-13 -40 -18 -82 -17 -164 1 -70 -2 -115 -10 -124 -7 -9
-8 -14 -1 -14 19 0 26 42 27 150 0 59 6 122 14 143 7 20 11 43 8 50 -2 6 -12
-12 -21 -41z"/>
<path d="M582 1108 c16 -13 24 -44 34 -135 6 -44 4 -52 -12 -56 -17 -4 -16 -5
2 -6 27 -1 37 40 22 95 -6 21 -11 53 -12 69 -1 31 -11 45 -35 45 -12 0 -12 -2
1 -12z"/>
<path d="M727 1113 c-9 -8 -9 -121 -1 -190 6 -49 26 -75 39 -52 4 5 1 8 -6 7
-14 -4 -17 15 -21 145 -1 53 -3 97 -4 97 0 0 -4 -3 -7 -7z"/>
<path d="M3643 1108 c-13 -6 -23 -15 -23 -19 0 -4 -11 -21 -25 -38 -26 -30
-26 -30 1 -27 15 2 36 16 51 34 31 40 39 40 57 -2 8 -18 19 -37 26 -41 9 -6 9
-2 0 15 -7 12 -10 35 -8 50 4 25 1 28 -19 26 -13 -2 -26 -6 -30 -9 -13 -14
-25 -6 -13 8 14 17 13 18 -17 3z m-9 -43 c-9 -14 -19 -24 -21 -21 -6 6 20 46
30 46 4 0 0 -11 -9 -25z"/>
<path d="M15 1100 c3 -5 8 -10 11 -10 2 0 4 5 4 10 0 6 -5 10 -11 10 -5 0 -7
-4 -4 -10z"/>
<path d="M2353 1075 c-14 -43 -9 -45 12 -5 17 33 18 40 7 40 -5 0 -13 -16 -19
-35z"/>
<path d="M2428 1093 c7 -3 16 -2 19 1 4 3 -2 6 -13 5 -11 0 -14 -3 -6 -6z"/>
<path d="M2650 1090 c0 -7 3 -10 7 -7 3 4 3 10 0 14 -4 3 -7 0 -7 -7z"/>
<path d="M2775 1093 c-59 -6 -62 -18 -5 -18 33 0 50 4 50 13 0 6 -1 11 -2 10
-2 -1 -21 -3 -43 -5z"/>
<path d="M2494 1050 c20 -22 36 -44 36 -50 0 -5 11 -26 25 -46 29 -42 31 -54
10 -54 -9 0 -30 32 -51 76 -19 42 -38 73 -41 71 -2 -3 1 -15 7 -27 7 -13 10
-44 6 -78 -11 -116 -6 -107 -55 -104 -24 2 -53 0 -65 -6 -63 -28 -76 -36 -76
-45 0 -5 7 -4 15 3 12 10 21 10 44 0 17 -7 36 -10 43 -7 7 3 3 6 -9 6 -26 1
-29 13 -8 31 9 8 28 9 55 5 47 -8 49 -27 4 -36 -27 -6 -26 -7 10 -8 31 -1 45
-8 72 -38 40 -44 38 -49 -22 -52 -42 -2 -46 0 -41 18 3 13 -1 21 -14 24 -14 4
-19 0 -19 -16 0 -18 2 -19 10 -7 8 13 10 13 10 -2 0 -9 -8 -19 -17 -21 -10 -3
17 -5 60 -6 42 0 77 3 77 7 0 27 -43 92 -60 92 -11 0 -20 5 -20 11 0 7 9 9 21
6 16 -4 19 -2 14 10 -3 9 0 20 7 25 9 5 10 8 1 8 -6 0 -15 -4 -18 -10 -13 -21
-21 -9 -17 25 5 39 16 45 32 15 6 -11 16 -20 23 -19 9 0 9 2 0 6 -18 7 -16 20
2 27 19 7 75 -46 75 -71 0 -11 -7 -14 -25 -11 -14 3 -25 1 -25 -3 0 -5 13 -9
28 -9 16 0 37 -9 47 -20 19 -21 45 -27 45 -9 0 5 -4 8 -9 4 -10 -5 -51 41 -51
57 0 6 -8 22 -19 36 -10 15 -21 41 -24 58 -9 49 -95 174 -119 174 -6 0 6 -18
26 -40z m30 -126 c9 -24 7 -28 -9 -14 -17 14 -20 30 -6 30 5 0 12 -7 15 -16z"/>
<path d="M3430 1080 c0 -7 3 -10 7 -7 3 4 3 10 0 14 -4 3 -7 0 -7 -7z"/>
<path d="M3506 1076 c3 -9 11 -16 16 -16 13 0 5 23 -10 28 -7 2 -10 -2 -6 -12z"/>
<path d="M870 1065 c0 -8 4 -15 10 -15 5 0 7 7 4 15 -4 8 -8 15 -10 15 -2 0
-4 -7 -4 -15z"/>
<path d="M1720 1071 c0 -5 5 -13 10 -16 6 -3 10 -2 10 4 0 5 -4 13 -10 16 -5
3 -10 2 -10 -4z"/>
<path d="M116 1028 c-67 -182 -76 -230 -50 -266 9 -13 20 -53 24 -90 11 -82
31 -144 48 -150 11 -3 10 2 -2 20 -9 14 -21 60 -26 103 -5 42 -19 97 -31 120
-21 42 -21 42 23 174 25 72 41 131 37 131 -4 0 -14 -19 -23 -42z"/>
<path d="M2932 1049 c-1 -15 -5 -42 -8 -60 -4 -28 -3 -31 6 -16 6 9 9 36 7 60
-2 23 -4 30 -5 16z"/>
<path d="M406 1018 c-24 -38 -31 -79 -12 -72 9 3 16 9 17 13 4 34 7 49 14 64
10 24 -2 21 -19 -5z"/>
<path d="M868 975 c-1 -36 0 -65 5 -65 4 0 7 29 7 65 0 84 -7 84 -12 0z"/>
<path d="M1750 1020 c6 -11 16 -20 22 -20 6 0 3 9 -7 20 -10 11 -20 20 -22 20
-2 0 1 -9 7 -20z"/>
<path d="M2620 1025 c0 -6 4 -15 9 -20 13 -13 42 -125 35 -136 -10 -17 13 -9
31 11 29 32 120 47 158 26 75 -42 124 -127 73 -126 -6 0 -5 4 3 9 15 9 -50 91
-73 91 -5 0 4 -15 22 -33 36 -37 39 -47 16 -47 -8 0 -13 3 -11 8 3 4 -19 7
-49 7 -32 0 -52 -4 -50 -10 17 -40 32 -65 38 -65 4 0 5 7 2 15 -7 18 11 19 54
4 28 -10 30 -13 25 -47 -7 -56 -11 -62 -30 -55 -17 5 -17 5 -1 -8 27 -21 28
-83 3 -87 -27 -4 -73 53 -132 164 -25 47 -48 83 -50 80 -3 -3 2 -17 11 -30 16
-26 13 -55 -8 -57 -6 -1 -36 -2 -66 -2 -55 0 -55 0 -7 -4 52 -4 54 -8 32 -60
-32 -75 -31 -144 2 -209 17 -33 28 -65 26 -71 -3 -7 1 -13 9 -13 10 0 9 -3 -2
-10 -12 -8 -11 -10 7 -10 13 0 24 8 28 20 8 25 47 48 53 31 5 -16 92 99 99
131 5 24 9 26 39 23 25 -4 32 -2 28 9 -3 8 4 23 16 34 21 19 21 19 -3 15 -14
-3 -28 0 -31 6 -5 7 3 11 21 11 24 1 26 2 10 11 -20 12 -18 89 4 156 12 38
-24 86 -99 130 -45 27 -101 22 -158 -13 -20 -12 -22 -10 -34 30 -12 42 -50
111 -50 91z m275 -253 c-2 -2 -13 -1 -26 3 -16 5 -18 9 -9 15 11 7 43 -10 35
-18z m30 -98 c-3 -24 -11 -44 -16 -44 -6 0 -8 8 -5 18 3 9 8 35 12 57 10 53
18 26 9 -31z m-190 -69 c0 -115 0 -115 -32 -130 -42 -20 -43 -20 -43 23 0 54
27 152 53 189 12 18 22 33 22 33 0 0 0 -52 0 -115z m-41 83 c-4 -6 -16 -36
-26 -67 -10 -31 -16 -42 -14 -24 6 37 32 103 41 103 3 0 3 -5 -1 -12z m76 -42
c0 -7 11 -23 25 -36 32 -30 32 -40 -2 -41 -25 0 -26 -1 -8 -9 19 -8 19 -9 -2
-9 -13 -1 -23 -5 -23 -11 0 -14 12 -12 38 6 34 23 37 11 6 -19 -31 -31 -40
-33 -48 -11 -10 27 -7 156 4 149 6 -3 10 -12 10 -19z m-123 -118 c-3 -7 -5 -2
-5 12 0 14 2 19 5 13 2 -7 2 -19 0 -25z m213 -8 c0 -11 -15 -37 -34 -58 -34
-37 -34 -37 -42 -8 -6 25 -2 34 25 58 37 33 51 35 51 8z m-104 -48 c22 -14 27
-52 7 -59 -10 -3 -25 -12 -35 -20 -29 -26 -31 6 -3 43 24 31 25 35 7 25 -12
-6 -26 -19 -31 -29 -9 -14 -12 -15 -20 -3 -14 21 52 59 75 43z"/>
<path d="M3254 1018 c-4 -7 -3 -8 4 -4 7 4 12 9 12 12 0 8 -9 4 -16 -8z"/>
<path d="M2361 1010 c-5 -30 1 -95 10 -104 16 -17 10 -39 -9 -34 -13 4 -18 -1
-20 -17 -2 -22 -1 -22 33 -6 32 15 46 31 26 31 -9 0 -28 64 -34 115 -2 17 -5
23 -6 15z"/>
<path d="M2417 957 c3 -34 5 -68 6 -74 0 -7 6 -13 14 -13 15 0 17 16 3 25 -5
3 -10 30 -10 60 0 30 -4 56 -9 59 -4 3 -6 -23 -4 -57z"/>
<path d="M3681 1009 c-1 -8 -26 -43 -57 -77 -31 -34 -52 -62 -47 -62 21 0 118
120 111 137 -5 14 -7 15 -7 2z"/>
<path d="M2720 993 c0 -13 29 -38 35 -31 3 3 -4 13 -15 23 -11 10 -20 13 -20
8z"/>
<path d="M3590 968 c-10 -18 -24 -38 -29 -45 -6 -7 -11 -18 -11 -25 0 -13 11
1 49 65 12 20 20 37 17 37 -4 0 -15 -15 -26 -32z"/>
<path d="M448 963 c-26 -14 -46 -31 -45 -37 1 -6 -8 -12 -21 -14 -20 -3 -22 0
-17 25 6 28 6 28 -9 3 -23 -38 -20 -43 26 -37 23 3 50 1 60 -4 21 -12 25 -51
4 -43 -24 9 -94 -15 -123 -43 -28 -25 -28 -25 22 0 64 32 95 41 95 28 0 -10
-15 -15 -34 -12 -5 1 -23 -11 -40 -27 -52 -48 -123 -84 -159 -80 -32 4 -32 4
-7 15 36 17 9 16 -30 -1 -38 -16 -22 -26 40 -26 50 0 84 15 144 64 37 31 58
40 90 42 70 3 73 3 53 15 -14 8 -17 18 -12 42 5 24 4 28 -4 17 -7 -10 -11 -11
-11 -3 0 7 -11 18 -25 26 -25 12 -25 14 -8 29 10 9 31 20 47 24 28 7 28 7 22
-37 -5 -32 -4 -40 3 -29 15 22 14 90 -1 90 -7 0 -34 -12 -60 -27z m19 -130
c-4 -3 -10 -3 -14 0 -3 4 0 7 7 7 7 0 10 -3 7 -7z"/>
<path d="M1951 899 c-11 -50 -9 -70 6 -56 7 8 15 107 9 107 -3 0 -9 -23 -15
-51z"/>
<path d="M3482 897 c-42 -44 -62 -137 -30 -137 6 0 8 12 5 27 -5 28 16 83 32
83 8 0 23 41 17 47 -1 2 -12 -7 -24 -20z"/>
<path d="M2160 905 c0 -16 32 -65 42 -65 6 0 4 8 -5 18 -10 10 -17 24 -17 30
0 6 -4 14 -10 17 -5 3 -10 3 -10 0z"/>
<path d="M1284 892 c-22 -15 -34 -50 -25 -74 10 -23 10 -23 10 4 1 40 11 58
32 58 33 0 26 -66 -8 -84 -19 -10 -23 -15 -11 -16 31 0 63 42 60 78 -2 17 -7
32 -12 32 -5 0 -14 2 -22 5 -7 3 -18 1 -24 -3z"/>
<path d="M845 878 c-27 -15 -85 -78 -85 -92 -1 -13 -24 -46 -34 -46 -12 0 -6
24 11 42 15 17 15 18 0 13 -18 -8 -28 -31 -23 -59 3 -23 26 -34 26 -13 0 31
82 129 124 147 26 12 34 19 21 19 -11 0 -29 -5 -40 -11z"/>
<path d="M3376 881 c-4 -7 -5 -15 -2 -18 9 -9 19 4 14 18 -4 11 -6 11 -12 0z"/>
<path d="M2626 867 c3 -10 9 -15 12 -12 3 3 0 11 -7 18 -10 9 -11 8 -5 -6z"/>
<path d="M3525 870 c3 -5 11 -10 16 -10 6 0 7 5 4 10 -3 6 -11 10 -16 10 -6 0
-7 -4 -4 -10z"/>
<path d="M3507 839 c6 -23 9 -24 16 -5 3 8 0 17 -7 19 -10 4 -12 -1 -9 -14z"/>
<path d="M3250 797 c-37 -45 -49 -66 -26 -47 10 8 30 14 44 15 30 0 43 34 20
52 -10 8 -19 3 -38 -20z m40 -6 c0 -12 -20 -25 -27 -18 -7 7 6 27 18 27 5 0 9
-4 9 -9z"/>
<path d="M3548 823 c7 -3 16 -2 19 1 4 3 -2 6 -13 5 -11 0 -14 -3 -6 -6z"/>
<path d="M600 795 c0 -23 35 -54 47 -42 2 3 -5 10 -16 17 -23 12 -28 36 -8 43
7 3 5 6 -5 6 -13 1 -18 -7 -18 -24z"/>
<path d="M522 794 c-12 -8 -22 -24 -22 -35 0 -24 2 -24 47 7 21 15 31 24 23
21 -8 -3 -24 -9 -35 -13 -20 -7 -20 -7 -1 14 23 26 19 28 -12 6z"/>
<path d="M2160 805 c0 -9 43 -55 51 -55 5 0 6 7 3 15 -4 8 -10 13 -14 10 -5
-3 -11 4 -15 15 -5 17 -25 29 -25 15z"/>
<path d="M2243 803 c4 -3 10 -3 14 0 3 4 0 7 -7 7 -7 0 -10 -3 -7 -7z"/>
<path d="M3471 775 c-11 -19 -16 -37 -11 -40 10 -6 19 6 30 45 11 39 7 38 -19
-5z"/>
<path d="M660 790 c0 -7 3 -10 7 -7 3 4 3 10 0 14 -4 3 -7 0 -7 -7z"/>
<path d="M784 745 c-49 -55 -49 -55 -151 -56 -56 -1 -106 2 -112 6 -7 4 -11
-4 -11 -19 0 -24 4 -26 38 -25 30 2 32 3 10 6 -59 9 -23 19 77 21 71 2 105 0
105 -8 0 -13 40 -29 56 -23 29 11 75 83 65 101 -6 9 -11 15 -11 12 -1 -3 -3
-13 -5 -22 -6 -31 -46 -78 -66 -78 -32 0 -22 32 27 88 25 28 41 52 36 52 -5 0
-32 -25 -58 -55z"/>
<path d="M2101 788 c-1 -9 4 -20 9 -23 6 -4 8 -11 5 -16 -4 -5 4 -9 17 -9 23
0 23 0 2 18 -12 9 -24 24 -27 32 -4 12 -6 12 -6 -2z"/>
<path d="M2323 783 c-18 -6 -16 -28 2 -43 19 -16 23 -12 16 21 -4 15 -11 24
-18 22z"/>
<path d="M2255 771 c3 -6 -3 -14 -12 -20 -16 -9 -14 -10 10 -11 29 0 38 24 11
34 -8 3 -12 2 -9 -3z"/>
<path d="M3685 760 c-38 -25 -21 -25 25 0 19 11 28 19 20 20 -8 0 -28 -9 -45
-20z"/>
<path d="M355 744 c-30 -14 -30 -14 0 -8 31 6 41 11 34 18 -2 2 -17 -2 -34
-10z"/>
<path d="M530 740 c0 -5 5 -10 11 -10 5 0 7 5 4 10 -3 6 -8 10 -11 10 -2 0 -4
-4 -4 -10z"/>
<path d="M613 733 c4 -3 10 -3 14 0 3 4 0 7 -7 7 -7 0 -10 -3 -7 -7z"/>
<path d="M888 733 c6 -2 18 -2 25 0 6 3 1 5 -13 5 -14 0 -19 -2 -12 -5z"/>
<path d="M2367 733 c-10 -10 -8 -25 2 -19 5 4 12 0 14 -6 3 -7 6 -3 6 10 1 22
-9 29 -22 15z"/>
<path d="M846 640 c-76 -80 -82 -90 -100 -157 -12 -50 -16 -87 -12 -118 5 -29
4 -45 -3 -45 -6 0 -11 5 -11 10 0 6 -9 1 -20 -10 -16 -16 -18 -25 -10 -46 6
-14 8 -29 6 -33 -3 -4 4 -12 15 -19 15 -10 19 -10 19 2 0 8 -4 17 -9 20 -5 3
-11 16 -14 28 -6 24 -5 23 31 -29 11 -16 12 -16 6 7 -3 14 -13 33 -21 42 -13
14 -13 16 0 14 8 -1 34 -26 57 -55 117 -148 289 -113 427 88 1 2 15 -8 30 -23
15 -16 44 -36 64 -46 20 -11 50 -35 67 -54 17 -20 34 -31 37 -26 7 12 -53 67
-113 101 -76 43 -87 61 -75 114 6 25 6 45 2 45 -5 0 -9 -10 -9 -22 0 -13 -4
-29 -8 -36 -12 -17 -34 32 -25 55 4 10 2 14 -5 9 -13 -8 -26 10 -17 24 5 8 11
7 21 -1 9 -7 14 -8 14 -1 0 6 -4 14 -10 17 -5 3 -10 18 -10 32 0 34 -43 86
-59 70 -8 -8 -17 -8 -29 -1 -26 15 -62 5 -74 -22 -16 -34 -39 -37 -95 -15 -27
10 -60 21 -73 23 -24 3 -24 3 8 38 31 35 31 35 33 -5 1 -40 1 -40 11 -7 8 24
17 32 34 32 13 0 24 5 24 11 0 7 -11 8 -31 4 -24 -6 -30 -4 -27 6 3 8 13 13
23 12 10 -1 27 7 38 18 12 10 23 15 26 10 3 -4 15 -5 26 0 13 5 15 8 5 8 -10
1 -11 4 -3 9 6 4 -9 7 -34 7 -43 0 -48 -3 -127 -85z m99 60 c-3 -5 -11 -10
-16 -10 -6 0 -7 5 -4 10 3 6 11 10 16 10 6 0 7 -4 4 -10z m137 -159 c9 -55 9
-56 -36 -35 -40 19 -45 38 -19 66 27 30 47 18 55 -31z m-162 1 c30 -11 56 -24
57 -29 5 -15 -62 -86 -76 -82 -15 5 -9 13 39 52 18 15 20 21 10 30 -10 9 -14
9 -17 -1 -3 -7 -14 -21 -25 -31 -11 -11 -27 -34 -36 -52 -9 -18 -22 -34 -27
-36 -39 -12 -69 88 -45 148 15 35 27 35 120 1z m194 12 c9 -24 7 -69 -3 -58
-12 13 -22 74 -12 74 5 0 12 -7 15 -16z m46 -30 c0 -13 -4 -24 -10 -24 -5 0
-10 9 -10 19 0 11 -3 28 -7 38 -6 16 -5 16 10 4 9 -7 17 -24 17 -37z m-168
-36 c-7 -7 -12 -8 -12 -2 0 14 12 26 19 19 2 -3 -1 -11 -7 -17z m58 -3 c7 -8
10 -22 6 -30 -7 -20 4 -19 19 1 6 9 20 15 30 13 17 -4 16 -6 -7 -21 -46 -31
-71 -31 -92 -1 -16 21 -16 25 -4 21 12 -5 14 -2 11 13 -6 23 19 26 37 4z
m-248 -125 c6 0 8 7 4 15 -6 17 2 19 23 6 12 -8 7 -13 -21 -27 -36 -17 -43
-46 -12 -58 17 -7 18 6 2 22 -8 8 -8 12 -1 12 5 0 27 14 49 30 21 17 53 38 71
47 18 8 31 19 28 23 -2 4 4 15 15 25 11 10 20 13 20 7 0 -6 -6 -13 -12 -15 -7
-3 -3 -6 9 -6 22 -1 48 -33 36 -45 -3 -3 -1 -6 6 -6 7 0 10 -4 7 -9 -3 -5 1
-12 10 -15 31 -12 1 -26 -58 -26 -45 0 -66 -5 -85 -20 -14 -11 -33 -20 -42
-20 -19 1 4 21 68 59 22 14 39 27 36 29 -6 6 -93 -46 -115 -68 -18 -18 -18
-20 3 -59 12 -23 26 -41 31 -41 6 0 5 5 -2 12 -20 20 -14 55 14 73 27 17 43 9
44 -21 0 -6 7 -17 15 -24 9 -8 15 -9 15 -2 0 6 -4 14 -10 17 -5 3 -10 12 -10
18 0 7 9 -1 20 -18 12 -19 20 -24 20 -14 0 20 -34 51 -45 42 -5 -5 -3 0 4 10
10 12 28 17 61 17 46 0 49 -1 60 -35 15 -45 7 -55 -39 -55 -20 0 -46 -7 -57
-15 -17 -13 -16 -14 14 -4 18 6 41 9 52 6 30 -8 65 24 53 49 -22 42 -25 92 -6
103 100 53 146 -9 71 -94 -57 -66 -121 -105 -171 -105 -25 0 -49 5 -52 10 -3
6 -22 10 -42 10 -54 0 -117 68 -133 144 -12 58 -4 139 11 114 6 -9 9 -6 10 12
1 14 6 -5 12 -42 5 -38 14 -68 19 -68z m341 60 c-16 -14 -94 -40 -104 -35 -17
11 -9 22 29 37 36 14 92 13 75 -2z"/>
<path d="M750 420 c0 -7 3 -10 7 -7 3 4 3 10 0 14 -4 3 -7 0 -7 -7z"/>
<path d="M2470 726 c0 -2 9 -6 20 -9 11 -3 20 -1 20 4 0 5 -9 9 -20 9 -11 0
-20 -2 -20 -4z"/>
<path d="M1105 710 c3 -5 8 -10 11 -10 3 0 2 5 -1 10 -3 6 -8 10 -11 10 -3 0
-2 -4 1 -10z"/>
<path d="M1827 700 c-4 -14 -7 -42 -7 -62 0 -37 0 -37 -27 -26 -16 7 -34 19
-40 27 -10 11 -13 11 -13 2 0 -7 -9 -24 -20 -38 -29 -37 -25 -51 5 -19 19 21
31 26 48 21 38 -12 45 -27 12 -25 -52 3 -52 -3 -1 -9 67 -8 70 -27 5 -26 -67
0 -77 -21 -12 -24 84 -3 85 -3 125 -82 36 -71 104 -149 130 -149 7 0 -9 19
-35 43 -68 61 -147 223 -156 321 -5 52 -8 64 -14 46z"/>
<path d="M3480 710 c0 -7 3 -10 7 -7 3 4 3 10 0 14 -4 3 -7 0 -7 -7z"/>
<path d="M3600 710 c-23 -8 -22 -8 8 -7 19 1 36 5 38 9 6 10 -13 9 -46 -2z"/>
<path d="M3660 708 c0 -11 60 -9 85 2 14 6 5 8 -32 7 -29 -1 -53 -5 -53 -9z"/>
<path d="M1030 705 c0 -3 11 -10 25 -15 14 -5 34 -24 46 -42 12 -18 18 -25 15
-15 -9 27 12 10 30 -25 8 -16 18 -28 20 -25 10 10 -27 66 -58 90 -33 25 -78
43 -78 32z"/>
<path d="M2083 703 c9 -2 25 -2 35 0 9 3 1 5 -18 5 -19 0 -27 -2 -17 -5z"/>
<path d="M2188 703 c7 -3 16 -2 19 1 4 3 -2 6 -13 5 -11 0 -14 -3 -6 -6z"/>
<path d="M2263 703 c4 -3 10 -3 14 0 3 4 0 7 -7 7 -7 0 -10 -3 -7 -7z"/>
<path d="M3268 703 c12 -2 30 -2 40 0 9 3 -1 5 -23 4 -22 0 -30 -2 -17 -4z"/>
<path d="M1151 670 c42 -57 59 -97 68 -158 9 -57 9 -57 10 -7 1 59 -32 138
-75 175 -28 25 -28 25 -3 -10z"/>
<path d="M2580 690 c0 -5 7 -10 16 -10 8 0 12 5 9 10 -3 6 -10 10 -16 10 -5 0
-9 -4 -9 -10z"/>
<path d="M2628 693 c7 -3 16 -2 19 1 4 3 -2 6 -13 5 -11 0 -14 -3 -6 -6z"/>
<path d="M183 683 c4 -3 10 -3 14 0 3 4 0 7 -7 7 -7 0 -10 -3 -7 -7z"/>
<path d="M360 680 c-28 -6 -21 -7 35 -8 47 0 64 2 50 8 -23 10 -37 10 -85 0z"/>
<path d="M2094 682 c9 -9 214 -10 266 -2 29 5 -10 8 -113 8 -87 0 -156 -2
-153 -6z"/>
<path d="M213 673 c4 -3 10 -3 14 0 3 4 0 7 -7 7 -7 0 -10 -3 -7 -7z"/>
<path d="M258 640 c-20 -19 -55 -66 -79 -105 -23 -38 -57 -83 -74 -100 -52
-49 -116 -158 -101 -173 5 -4 94 123 178 253 84 130 80 128 201 135 102 7 102
7 10 8 -50 1 -93 5 -95 10 -1 4 -19 -9 -40 -28z"/>
<path d="M608 653 c12 -2 32 -2 45 0 12 2 2 4 -23 4 -25 0 -35 -2 -22 -4z"/>
<path d="M713 653 c4 -3 10 -3 14 0 3 4 0 7 -7 7 -7 0 -10 -3 -7 -7z"/>
<path d="M967 649 c7 -7 15 -10 18 -7 3 3 -2 9 -12 12 -14 6 -15 5 -6 -5z"/>
<path d="M1880 640 c0 -7 3 -10 7 -7 3 4 3 10 0 14 -4 3 -7 0 -7 -7z"/>
<path d="M1025 625 c17 -7 32 -11 35 -9 7 8 -24 24 -45 23 -15 0 -13 -4 10
-14z"/>
<path d="M194 608 c-4 -7 -3 -8 4 -4 7 4 12 9 12 12 0 8 -9 4 -16 -8z"/>
<path d="M3312 615 c4 -5 3 -14 -3 -22 -9 -10 -7 -13 11 -13 25 0 25 30 0 38
-8 3 -12 1 -8 -3z"/>
<path d="M1860 600 c0 -7 3 -10 7 -7 3 4 3 10 0 14 -4 3 -7 0 -7 -7z"/>
<path d="M3245 579 c-10 -16 1 -22 26 -14 17 6 19 9 8 16 -19 12 -26 11 -34
-2z m22 -6 c-4 -3 -10 -3 -14 0 -3 4 0 7 7 7 7 0 10 -3 7 -7z"/>
<path d="M1985 573 c4 -9 -3 -13 -24 -13 -20 0 -31 -5 -31 -14 0 -23 20 -29
39 -12 13 12 20 13 29 4 21 -21 23 -1 1 23 -11 13 -18 18 -14 12z"/>
<path d="M2963 541 c-32 -38 -32 -38 5 -26 26 9 41 10 50 3 8 -7 12 -7 12 0 0
6 -5 14 -11 17 -6 4 -13 15 -17 25 -6 16 -11 14 -39 -19z m32 -1 c3 -5 -1 -10
-10 -10 -9 0 -13 5 -10 10 3 6 8 10 10 10 2 0 7 -4 10 -10z"/>
<path d="M36 547 c3 -10 9 -15 12 -12 3 3 0 11 -7 18 -10 9 -11 8 -5 -6z"/>
<path d="M1707 543 c-4 -7 -3 -22 3 -34 13 -24 5 -38 -12 -21 -18 18 -27 14
-21 -8 3 -11 11 -20 19 -20 14 0 30 -23 56 -85 13 -31 17 -35 17 -17 1 13 5
20 11 17 15 -9 12 3 -15 59 -25 51 -25 51 7 15 49 -53 122 -109 144 -109 15 0
13 3 -8 14 -51 27 -119 89 -108 100 6 6 10 15 10 20 0 6 -5 5 -11 -1 -16 -16
-77 30 -81 60 -2 15 -6 18 -11 10z"/>
<path d="M27 492 c-19 -21 -22 -42 -7 -42 6 0 10 8 10 18 0 10 5 23 12 30 7 7
10 12 7 12 -3 0 -13 -8 -22 -18z"/>
<path d="M2973 503 c4 -3 10 -3 14 0 3 4 0 7 -7 7 -7 0 -10 -3 -7 -7z"/>
<path d="M1595 480 c3 -5 10 -10 16 -10 5 0 9 5 9 10 0 6 -7 10 -16 10 -8 0
-12 -4 -9 -10z"/>
<path d="M2925 440 c-3 -5 -1 -10 4 -10 6 0 11 5 11 10 0 6 -2 10 -4 10 -3 0
-8 -4 -11 -10z"/>
<path d="M40 398 c-12 -22 -12 -22 6 -6 10 10 15 20 12 24 -4 3 -12 -5 -18
-18z"/>
<path d="M2841 406 c2 -2 45 -6 94 -8 50 -3 81 -2 70 3 -19 7 -173 13 -164 5z"/>
<path d="M1716 353 c-6 -14 -5 -15 5 -6 7 7 10 15 7 18 -3 3 -9 -2 -12 -12z"/>
<path d="M1773 326 c-28 -10 -30 -13 -15 -22 13 -8 19 -8 27 3 5 7 30 17 55
22 45 9 45 9 5 9 -22 0 -54 -6 -72 -12z"/>
<path d="M2993 323 c4 -3 10 -3 14 0 3 4 0 7 -7 7 -7 0 -10 -3 -7 -7z"/>
<path d="M3320 307 c-13 -12 -272 -21 -625 -22 -214 0 -397 -4 -405 -7 -8 -4
-64 -9 -124 -12 -127 -7 -153 -16 -45 -16 65 0 133 7 233 25 22 4 27 2 22 -10
-3 -9 0 -15 9 -15 9 0 12 6 8 16 -5 13 9 15 118 11 190 -6 478 -6 637 2 83 3
142 2 142 -3 0 -5 9 -1 19 8 25 22 85 12 106 -17 15 -21 15 -21 15 0 0 20 5
21 92 22 50 1 94 4 97 6 2 3 -47 5 -110 5 -63 0 -130 3 -149 6 -19 3 -37 4
-40 1z"/>
<path d="M3643 303 c4 -3 10 -3 14 0 3 4 0 7 -7 7 -7 0 -10 -3 -7 -7z"/>
<path d="M2420 260 c0 -7 3 -10 7 -7 3 4 3 10 0 14 -4 3 -7 0 -7 -7z"/>
<path d="M1190 240 c-19 -6 -9 -8 35 -8 42 -1 54 2 40 8 -24 10 -42 10 -75 0z"/>
<path d="M566 231 c-4 -5 3 -7 14 -4 23 6 26 13 6 13 -8 0 -17 -4 -20 -9z"/>
<path d="M183 223 c9 -2 23 -2 30 0 6 3 -1 5 -18 5 -16 0 -22 -2 -12 -5z"/>
<path d="M293 223 c4 -3 10 -3 14 0 3 4 0 7 -7 7 -7 0 -10 -3 -7 -7z"/>
<path d="M1433 223 c4 -3 10 -3 14 0 3 4 0 7 -7 7 -7 0 -10 -3 -7 -7z"/>
<path d="M973 133 c4 -3 10 -3 14 0 3 4 0 7 -7 7 -7 0 -10 -3 -7 -7z"/>
<path d="M1548 113 c6 -2 18 -2 25 0 6 3 1 5 -13 5 -14 0 -19 -2 -12 -5z"/>
<path d="M1613 113 c15 -2 37 -2 50 0 12 2 0 4 -28 4 -27 0 -38 -2 -22 -4z"/>
<path d="M1763 113 c9 -2 23 -2 30 0 6 3 -1 5 -18 5 -16 0 -22 -2 -12 -5z"/>
<path d="M2443 63 c9 -2 25 -2 35 0 9 3 1 5 -18 5 -19 0 -27 -2 -17 -5z"/>
<path d="M2530 50 c19 -5 55 -11 80 -14 45 -5 45 -5 -5 9 -27 7 -63 13 -80 13
-29 0 -29 0 5 -8z"/>
</g>
</svg>
