<?xml version="1.0" standalone="no"?>
<!DOCTYPE svg PUBLIC "-//W3C//DTD SVG 20010904//EN"
 "http://www.w3.org/TR/2001/REC-SVG-20010904/DTD/svg10.dtd">
<svg version="1.0" xmlns="http://www.w3.org/2000/svg"
 width="344.000000pt" height="256.000000pt" viewBox="0 0 344.000000 256.000000"
 preserveAspectRatio="xMidYMid meet">
<metadata>
Created by potrace 1.16, written by Peter Selinger 2001-2019
</metadata>
<g transform="translate(0.000000,256.000000) scale(0.100000,-0.100000)"
fill="#000000" stroke="none">
<path d="M523 2522 c0 -55 -10 -68 -34 -46 -10 9 -19 26 -19 36 0 11 -5 16
-10 13 -6 -4 -8 -10 -5 -15 3 -5 -3 -14 -14 -19 -15 -9 -20 -7 -25 12 -7 22
-7 22 -16 1 -27 -68 -173 -93 -257 -45 -24 14 -45 22 -48 19 -3 -2 20 -17 50
-32 75 -38 171 -35 227 7 39 30 53 24 42 -18 -3 -14 -2 -25 4 -25 6 0 12 -23
14 -51 3 -44 1 -49 -14 -45 -10 4 -26 9 -37 12 -10 3 -25 -1 -34 -10 -23 -23
-28 -6 -10 32 12 25 20 31 35 26 17 -5 18 -4 6 16 -13 21 -13 21 -34 -6 -27
-33 -128 -39 -207 -11 -26 9 -45 12 -42 8 7 -12 93 -41 122 -41 26 0 30 -17 9
-46 -10 -13 -27 -19 -53 -19 -119 -2 -173 -6 -173 -14 0 -6 16 -7 37 -4 26 4
34 3 29 -5 -5 -8 5 -12 31 -13 21 0 48 -2 61 -5 12 -2 22 0 22 6 0 5 -21 11
-48 13 -42 3 -40 4 17 5 64 2 64 2 59 -30 -3 -18 -2 -42 3 -53 4 -11 8 -14 8
-7 1 16 21 5 21 -11 0 -7 -12 -17 -26 -24 -26 -12 -26 -11 -22 21 2 18 -2 38
-8 44 -9 9 -12 -3 -13 -51 0 -34 -7 -93 -16 -131 -11 -47 -13 -77 -7 -95 6
-16 6 -36 0 -51 -13 -33 -17 -145 -7 -162 5 -8 9 22 10 72 1 47 4 72 6 57 4
-26 7 -28 49 -25 24 2 44 6 44 10 0 8 47 1 98 -14 58 -17 45 -2 -17 21 -65 23
-76 39 -62 86 5 17 10 24 10 18 1 -7 9 -13 19 -13 20 0 72 -51 92 -88 6 -13
17 -21 24 -19 9 4 18 -9 26 -34 19 -55 32 -59 24 -7 -5 30 -16 50 -37 68 -92
77 -93 78 -75 85 25 10 76 -21 94 -58 10 -17 16 -33 16 -34 -11 -18 5 -6 29
22 41 46 61 44 115 -10 24 -25 44 -40 44 -33 0 7 -17 29 -39 48 -39 36 -39 36
13 35 28 0 67 2 86 6 20 4 -15 7 -82 8 -65 0 -118 -3 -118 -8 0 -5 -9 -11 -20
-14 -15 -4 -20 0 -20 14 0 12 5 16 15 13 12 -5 15 3 15 39 0 35 4 47 18 50 15
4 15 6 -3 12 -12 3 -32 27 -45 52 -16 31 -35 50 -57 60 -29 11 -32 16 -23 33
7 13 7 21 -2 26 -6 4 -8 3 -4 -4 3 -6 2 -14 -4 -17 -6 -4 -18 -24 -27 -46 -8
-21 -19 -39 -24 -39 -13 0 -27 32 -24 57 1 12 -5 25 -13 28 -18 7 -10 -47 13
-82 21 -31 32 -29 52 11 14 31 18 33 44 24 28 -10 52 -38 69 -84 9 -22 8 -25
-4 -21 -9 4 -18 2 -21 -3 -4 -6 0 -10 8 -10 21 0 28 -26 15 -55 -11 -24 -11
-24 -40 -3 -17 11 -40 22 -52 23 -32 4 -33 6 -6 15 25 8 25 8 2 9 -13 1 -38
12 -55 25 -50 36 -66 41 -28 7 33 -29 33 -29 -6 -58 -42 -29 -56 -80 -32 -110
8 -9 8 -13 1 -13 -19 0 -33 39 -29 82 3 38 7 43 38 52 34 10 34 10 4 14 -56 7
-71 -35 -53 -142 2 -10 -2 -21 -9 -23 -14 -5 -28 75 -18 106 4 12 2 21 -4 21
-6 0 -11 9 -11 20 0 11 3 19 7 19 22 -4 37 2 26 9 -8 5 -1 19 23 46 19 21 34
43 34 50 0 6 -6 4 -13 -5 -7 -8 -27 -33 -46 -55 -33 -39 -33 -39 -26 1 11 65
31 88 70 82 27 -4 33 -2 28 9 -3 8 -9 14 -14 14 -5 0 -9 11 -9 24 0 22 3 24
29 16 19 -5 31 -5 33 2 2 5 16 11 31 11 15 1 27 6 27 10 0 5 5 5 10 2 6 -3 10
-1 10 6 0 7 10 3 23 -9 22 -21 23 -21 35 -2 27 44 72 0 72 -72 0 -67 12 -54
15 16 2 29 6 63 10 75 5 15 2 21 -9 21 -9 0 -16 -8 -17 -17 0 -11 -3 -13 -6
-5 -2 6 -9 10 -14 6 -5 -3 -9 0 -9 5 0 6 -8 11 -19 11 -32 0 -81 21 -81 36 0
8 -6 11 -16 7 -12 -4 -14 -14 -9 -39 6 -34 6 -34 -47 -34 -54 0 -57 14 -4 24
41 7 42 13 5 36 -31 19 -32 21 -9 18 15 -2 31 4 40 15 12 14 21 16 45 8 17 -5
47 -14 67 -21 21 -6 43 -8 49 -4 7 4 9 3 6 -3 -4 -6 0 -16 8 -23 12 -10 15 -9
15 6 0 11 7 32 15 48 15 28 11 111 -4 88 -3 -5 -15 -6 -26 -1 -11 4 -14 8 -7
8 9 1 11 8 7 21 -4 11 -2 20 4 20 6 0 11 -8 12 -17 0 -10 3 -13 5 -6 3 7 0 21
-5 32 -14 26 2 36 21 13 9 -10 18 -46 21 -85 4 -64 27 -121 27 -70 0 12 6 24
13 27 6 3 3 4 -8 3 -17 -2 -20 4 -20 32 0 33 3 36 60 58 71 28 65 27 65 3 0
-11 -17 -36 -37 -56 -35 -34 -56 -90 -30 -81 7 2 12 13 11 25 0 12 3 19 8 16
4 -3 8 1 8 9 0 8 7 21 16 28 23 19 11 -24 -17 -64 -20 -27 -20 -27 13 -67 18
-22 38 -40 44 -40 5 0 25 -11 44 -25 40 -30 63 -34 29 -5 -21 17 -22 21 -9 30
11 7 18 5 28 -7 11 -15 12 -15 12 6 0 31 -32 91 -38 71 -3 -8 -15 -27 -27 -41
-22 -27 -22 -27 -52 5 -31 31 -31 31 -7 49 13 9 21 23 18 30 -6 16 61 95 71
85 4 -4 0 -15 -9 -24 -21 -20 -13 -32 9 -14 12 10 19 10 27 2 9 -9 8 -12 -5
-12 -9 0 -17 -5 -17 -11 0 -9 16 -7 58 8 6 3 12 -1 12 -8 0 -11 3 -11 10 1 8
12 10 11 10 -6 0 -11 -7 -29 -15 -40 -18 -24 -20 -57 -2 -52 6 3 16 26 21 52
11 60 -4 100 -34 91 -30 -9 -24 7 10 31 27 19 29 23 15 34 -13 11 -14 10 -10
-3 7 -16 -10 -33 -19 -19 -7 11 16 72 27 72 4 0 11 -8 14 -17 4 -10 9 -20 13
-23 11 -8 50 -95 50 -111 0 -8 -9 5 -20 29 -11 25 -24 41 -30 37 -8 -5 -7 -14
3 -28 7 -12 19 -48 26 -79 10 -46 16 -58 31 -58 25 0 35 17 20 35 -7 8 -14 49
-17 92 -3 43 -12 88 -20 100 -13 20 -13 23 0 29 17 6 57 -12 57 -26 0 -5 10
-14 21 -21 15 -8 19 -8 15 0 -4 6 4 16 18 23 14 6 26 15 26 20 0 13 28 9 61
-8 17 -8 33 -13 36 -10 3 2 -13 14 -36 26 -23 11 -41 17 -41 14 0 -4 -9 1 -20
11 -23 21 -39 13 -20 -10 14 -17 14 -17 -14 -32 -19 -10 -74 16 -84 40 -6 12
-32 8 -27 -5 4 -10 -23 -13 -115 -13 -104 -1 -123 -4 -138 -19 -16 -18 -16
-18 3 -10 11 4 53 10 93 12 71 4 73 3 63 -17 -6 -11 -11 -32 -11 -46 0 -25 -3
-27 -30 -23 -17 3 -30 0 -30 -6 0 -6 -4 -5 -9 3 -7 11 -13 9 -30 -8 -26 -26
-35 -27 -21 -2 26 49 4 97 -30 66 -11 -10 -26 -15 -35 -11 -9 3 -13 2 -10 -4
3 -5 -9 -13 -27 -18 -30 -8 -34 -6 -45 20 -7 16 -19 31 -28 34 -8 3 -15 14
-15 23 0 9 -4 22 -9 29 -5 9 -8 0 -8 -26z m438 -64 c8 -15 8 -18 0 -14 -6 4
-16 16 -22 28 -8 15 -8 18 0 14 6 -4 16 -16 22 -28z m-463 -34 c-2 -10 -11
-20 -21 -22 -12 -3 -15 1 -11 13 4 10 1 21 -7 27 -11 8 -10 9 4 4 9 -3 17 0
17 6 0 9 3 9 11 1 6 -6 9 -19 7 -29z m-8 -50 c0 -14 2 -14 16 1 21 21 36 15
45 -18 4 -16 3 -25 -2 -21 -5 3 -9 12 -9 20 0 8 -4 14 -10 14 -5 0 -10 -6 -10
-14 0 -8 5 -18 10 -21 6 -3 10 -15 10 -25 0 -27 -29 -14 -41 19 -7 18 -12 22
-18 13 -5 -8 -8 -1 -8 18 0 16 4 30 9 30 4 0 8 -7 8 -16z m231 -31 c-8 -15
-10 -15 -11 -2 0 17 10 32 18 25 2 -3 -1 -13 -7 -23z m-438 -10 c-7 -2 -19 -2
-25 0 -7 3 -2 5 12 5 14 0 19 -2 13 -5z m697 -36 c0 -5 -4 -5 -10 -2 -5 3 -10
14 -10 23 0 15 2 15 10 2 5 -8 10 -19 10 -23z m-270 8 c-7 -8 -17 -15 -22 -15
-11 0 14 29 26 30 5 0 3 -7 -4 -15z m-453 -22 c-4 -3 -7 0 -7 7 0 7 3 10 7 7
3 -4 3 -10 0 -14z m23 -7 c0 -3 -5 -8 -12 -12 -7 -4 -8 -3 -4 4 7 12 16 16 16
8z m37 -23 c-4 -3 -10 -3 -14 0 -3 4 0 7 7 7 7 0 10 -3 7 -7z m483 -17 c0 -2
-8 -10 -17 -17 -16 -13 -17 -12 -4 4 13 16 21 21 21 13z m-563 -28 c-3 -8 -6
-5 -6 6 -1 11 2 17 5 13 3 -3 4 -12 1 -19z m110 -254 c5 -14 -35 -26 -43 -13
-8 14 6 30 24 27 8 -2 17 -8 19 -14z m73 -25 c25 -20 25 -20 -7 -4 -18 8 -33
18 -33 20 0 10 16 4 40 -16z m0 -101 c0 -6 -7 -5 -15 2 -8 7 -15 17 -15 22 0
6 7 5 15 -2 8 -7 15 -17 15 -22z"/>
<path d="M1615 2524 c-8 -21 -18 -48 -21 -61 -4 -13 -10 -26 -15 -28 -4 -3 -6
-12 -2 -20 4 -11 -3 -15 -26 -15 -28 0 -31 -3 -31 -32 0 -60 10 -78 41 -78 22
0 29 -5 29 -20 0 -11 -6 -20 -12 -20 -9 0 -8 -4 2 -10 13 -9 13 -12 -3 -21
-18 -10 -18 -12 2 -25 19 -14 20 -24 18 -179 -1 -91 -4 -159 -5 -152 -2 6 -16
22 -30 34 -23 19 -24 25 -14 48 7 14 12 36 12 48 -1 24 -46 -93 -62 -158 -5
-22 -16 -59 -24 -83 -17 -51 -17 -55 -4 -47 10 6 5 -49 -11 -130 -6 -32 -7
-27 -5 29 2 38 0 98 -3 133 -4 35 -4 63 0 63 4 0 10 17 14 38 4 20 18 71 31
112 14 41 34 104 46 140 12 36 23 71 26 78 2 6 0 12 -6 12 -5 0 -12 -10 -15
-22 -13 -54 -97 -316 -112 -351 -10 -24 -15 -62 -14 -100 0 -34 -2 -71 -7 -81
-5 -14 -4 -17 5 -11 10 5 11 2 6 -14 -3 -11 -3 -21 2 -21 4 0 7 -42 5 -92 -4
-150 -6 -166 -29 -187 -21 -20 -21 -20 -17 62 5 82 5 82 -21 2 -13 -44 -36
-120 -51 -170 -14 -49 -35 -105 -46 -123 -19 -32 -18 -70 2 -57 6 4 8 10 5 14
-2 5 6 35 20 68 13 34 32 91 42 129 16 67 17 68 24 35 4 -19 5 -49 2 -68 -4
-24 -2 -33 8 -33 11 0 11 -2 1 -8 -10 -7 -11 -19 -2 -56 6 -26 8 -52 5 -57 -8
-12 12 -31 49 -47 26 -12 28 -11 16 2 -7 9 -18 16 -25 16 -17 0 -26 41 -24
103 2 45 4 48 28 45 14 -1 32 2 40 6 9 6 12 5 9 -5 -3 -8 -18 -17 -34 -20 -29
-5 -28 -5 8 -10 20 -3 36 -2 35 1 0 3 3 15 7 28 6 18 10 21 22 11 29 -24 150
139 169 229 11 52 -9 37 -22 -17 -6 -27 -24 -67 -38 -89 -28 -42 -35 -41 -134
25 -2 1 3 13 11 25 8 13 17 45 20 71 7 61 40 97 126 138 86 40 104 36 166 -35
51 -58 51 -58 49 -165 -1 -58 -5 -117 -8 -129 -4 -15 -2 -21 5 -17 5 3 10 18
11 33 0 24 1 25 8 7 5 -11 6 10 3 49 -4 50 -2 67 6 62 7 -4 26 0 44 8 18 8 44
17 58 20 14 2 7 3 -15 1 -22 -1 -50 -6 -62 -10 -21 -7 -23 -4 -23 28 0 38 -63
135 -116 176 -25 19 -46 59 -24 46 12 -7 50 49 50 72 0 68 -68 134 -130 126
-38 -5 -38 -5 -44 118 -13 263 -12 277 3 271 9 -4 12 -1 7 7 -4 6 -2 18 4 26
10 12 9 16 -5 21 -12 5 -15 13 -10 33 4 14 15 66 26 115 10 49 26 100 34 112
17 27 19 34 6 34 -13 0 -51 -103 -63 -175 -6 -33 -13 -54 -15 -47 -3 6 -9 9
-14 6 -6 -3 -5 -11 2 -20 6 -8 9 -18 5 -21 -4 -4 -11 -1 -15 6 -7 11 -10 11
-14 0 -3 -8 -6 -4 -6 9 -1 12 3 22 7 22 4 0 14 21 21 48 8 26 22 74 32 107 21
68 18 85 -6 29z m-47 -647 c13 -16 -1 -102 -47 -292 -18 -71 -34 -141 -36
-155 -10 -77 -17 -98 -31 -93 -10 4 -13 14 -9 32 3 14 16 116 30 226 33 261
55 328 93 282z m36 -77 c-6 -6 -10 -3 -10 10 0 13 4 16 10 10 7 -7 7 -13 0
-20z m152 -47 c9 -19 12 -38 8 -42 -4 -3 -9 0 -11 7 -4 10 -8 10 -19 1 -11 -9
-17 -9 -28 0 -12 10 -13 8 -9 -8 7 -29 -7 -26 -70 12 -53 32 -53 32 -23 57 60
50 125 39 152 -27z m-173 -59 c-19 -30 -26 -26 -18 9 4 16 12 24 21 20 11 -4
10 -9 -3 -29z m16 -36 c-11 -29 -22 -55 -25 -59 -2 -4 8 -9 23 -11 35 -4 40
-22 9 -36 -13 -6 -39 -24 -59 -42 -34 -29 -35 -29 -32 -8 8 53 29 114 41 124
8 6 14 14 14 18 0 7 42 66 47 66 1 0 -7 -23 -18 -52z m68 1 c-26 -41 -64 -29
-47 15 8 23 12 25 34 15 21 -10 23 -15 13 -30z m69 11 c8 0 14 -5 14 -11 0 -5
-5 -7 -10 -4 -6 4 -18 1 -26 -6 -21 -17 -28 -5 -13 23 7 14 14 18 17 10 2 -6
10 -12 18 -12z m-22 -49 c3 -5 -2 -15 -12 -22 -9 -7 -14 -9 -10 -5 4 5 3 15
-3 23 -9 10 -8 13 4 13 9 0 18 -4 21 -9z m-49 -11 c-3 -5 -13 -10 -21 -10 -8
0 -12 5 -9 10 3 6 13 10 21 10 8 0 12 -4 9 -10z m-204 -322 c1 -17 2 -19 6 -5
5 20 33 23 33 4 0 -8 -9 -22 -21 -33 -28 -25 -61 -86 -36 -65 12 9 17 10 17 2
0 -18 -29 -25 -56 -13 -42 20 -20 111 23 95 12 -5 14 -1 8 15 -5 16 -2 22 9
22 10 0 16 -9 17 -22z m96 -31 c20 -15 4 -27 -22 -17 -19 7 -25 6 -25 -4 0 -7
-9 -21 -20 -31 -20 -18 -20 -18 -8 11 7 17 20 37 28 46 15 16 22 15 47 -5z"/>
<path d="M1665 1789 c-4 -6 -5 -12 -2 -15 2 -3 7 2 10 11 7 17 1 20 -8 4z"/>
<path d="M1695 1780 c3 -5 8 -10 11 -10 3 0 2 5 -1 10 -3 6 -8 10 -11 10 -3 0
-2 -4 1 -10z"/>
<path d="M1630 1660 c0 -7 3 -10 7 -7 3 4 3 10 0 14 -4 3 -7 0 -7 -7z"/>
<path d="M1678 2438 c-19 -68 -39 -131 -43 -140 -4 -11 -3 -18 3 -18 6 0 13
13 17 29 3 16 19 46 35 67 30 40 38 64 20 64 -5 0 -10 -7 -10 -15 0 -8 -4 -15
-9 -15 -6 0 1 32 15 72 27 82 27 78 16 78 -5 0 -24 -55 -44 -122z"/>
<path d="M1810 2550 c0 -7 3 -10 7 -7 3 4 3 10 0 14 -4 3 -7 0 -7 -7z"/>
<path d="M1893 2518 c-21 -76 -26 -112 -25 -165 3 -59 -19 -76 -60 -49 -22 14
-24 14 -24 -2 0 -14 8 -17 41 -15 22 2 48 3 59 3 17 1 18 7 12 78 -6 84 5 163
19 127 13 -37 14 -45 6 -45 -11 0 -8 -51 4 -70 5 -8 8 -31 6 -52 -2 -32 1 -38
17 -38 19 0 19 2 5 58 -15 58 -19 94 -22 170 0 27 -6 42 -14 42 -7 0 -18 -19
-24 -42z"/>
<path d="M2402 2535 c-10 -21 -8 -31 8 -58 23 -37 26 -82 7 -94 -9 -5 -11 -18
-6 -38 5 -24 7 -26 8 -7 0 13 8 36 16 53 12 23 13 34 4 50 -6 12 -9 30 -6 40
3 12 0 19 -10 19 -11 0 -13 7 -8 30 8 37 2 39 -13 5z"/>
<path d="M1334 2520 c3 -19 2 -48 -3 -65 -7 -22 -10 -25 -11 -10 -1 20 -1 20
-10 0 -8 -19 -9 -18 -11 5 -1 14 -1 34 -1 45 2 15 0 17 -7 6 -7 -11 -10 -9
-16 8 -6 21 -75 33 -75 12 0 -4 12 -6 26 -3 27 5 44 -10 44 -38 -1 -11 -4 -10
-15 4 -11 14 -15 16 -15 5 0 -8 7 -23 15 -33 24 -31 19 -56 -10 -56 -22 0 -25
-4 -25 -34 0 -31 -2 -33 -29 -30 -25 3 -35 -3 -62 -39 -17 -23 -46 -54 -62
-69 -25 -22 -27 -28 -13 -28 10 0 25 9 34 20 10 11 33 28 52 38 19 9 39 27 45
40 15 33 33 27 44 -15 19 -75 18 -111 -4 -93 -12 10 -15 10 -15 -2 0 -17 -83
-9 -102 10 -8 8 -15 7 -24 -3 -18 -18 -18 -31 0 -16 11 10 21 9 45 -3 16 -9
46 -16 66 -16 19 0 35 -4 35 -9 0 -16 -18 -22 -23 -9 -3 7 -6 -1 -6 -18 -1
-26 4 -33 24 -38 37 -9 40 -4 40 57 0 30 4 53 9 50 9 -6 4 39 -12 99 -12 45
-7 53 20 26 13 -13 29 -18 44 -15 13 2 24 0 24 -4 0 -5 15 -8 33 -8 30 2 30 2
5 6 -29 4 -40 33 -13 33 18 0 18 -4 1 90 -14 79 -53 172 -42 100z m-16 -136
c-14 -14 -15 -14 -10 11 3 19 8 23 15 16 8 -8 7 -16 -5 -27z m-31 -26 c-3 -7
-5 -2 -5 12 0 14 2 19 5 13 2 -7 2 -19 0 -25z m-40 -5 c-4 -3 -7 0 -7 7 0 7 3
10 7 7 3 -4 3 -10 0 -14z m81 -18 c-3 -29 -18 -34 -18 -7 0 17 8 32 17 32 1 0
2 -11 1 -25z m-148 -23 c0 -9 -25 -33 -49 -47 -9 -5 -5 6 8 23 21 31 41 42 41
24z m77 -74 c-3 -7 -5 -2 -5 12 0 14 2 19 5 13 2 -7 2 -19 0 -25z m-10 -85
c-4 -3 -7 0 -7 7 0 7 3 10 7 7 3 -4 3 -10 0 -14z m-4 -50 c-3 -7 -9 -10 -14
-7 -14 8 -11 21 5 21 8 0 12 -6 9 -14z"/>
<path d="M1974 2535 c-4 -8 -3 -34 0 -57 3 -24 8 -73 12 -110 5 -50 11 -68 21
-68 11 0 13 5 8 18 -13 28 -11 67 3 65 6 -2 12 1 12 5 0 4 8 8 18 8 15 0 19
-9 21 -49 2 -46 1 -48 -20 -42 -15 5 -19 4 -14 -5 4 -6 16 -10 26 -7 14 4 19
0 19 -13 0 -11 5 -22 11 -25 7 -5 8 8 3 41 -8 50 -8 68 -2 94 2 12 -8 15 -45
16 -60 2 -59 0 -60 78 -2 69 -4 76 -13 51z"/>
<path d="M1424 2485 c28 -61 43 -85 33 -50 -3 11 -9 32 -12 47 -4 14 -16 35
-27 45 -18 16 -17 11 6 -42z"/>
<path d="M1503 2485 c6 -19 15 -35 20 -35 5 0 6 8 2 18 -4 9 -10 25 -12 35 -3
9 -9 17 -13 17 -5 0 -3 -16 3 -35z"/>
<path d="M2470 2490 c11 -11 23 -20 27 -20 3 0 -2 9 -12 20 -10 11 -22 20 -27
20 -4 0 1 -9 12 -20z"/>
<path d="M611 2478 c-1 -16 4 -28 9 -28 12 0 12 8 0 35 -8 18 -9 17 -9 -7z"/>
<path d="M2044 2456 c11 -9 27 -16 35 -15 14 0 14 1 1 6 -8 3 -24 10 -35 15
-20 9 -20 9 -1 -6z"/>
<path d="M2152 2453 c-9 -7 -24 -13 -34 -13 -11 0 -15 -6 -11 -20 7 -25 21
-26 30 -2 10 27 23 32 98 33 103 1 119 14 19 15 -55 0 -92 -5 -102 -13z"/>
<path d="M1485 2450 c3 -5 8 -10 11 -10 2 0 4 5 4 10 0 6 -5 10 -11 10 -5 0
-7 -4 -4 -10z"/>
<path d="M1761 2438 c-7 -11 -8 -17 -2 -13 6 3 11 1 11 -5 0 -6 -6 -12 -12
-14 -41 -12 -52 -19 -40 -23 11 -4 19 -93 8 -93 -19 0 -34 14 -29 27 4 11 2
14 -8 11 -23 -8 -22 -35 1 -41 17 -4 20 -11 15 -26 -4 -13 -2 -21 5 -21 6 0 8
5 5 10 -3 6 -1 10 5 10 6 0 8 5 5 10 -3 6 -1 10 4 10 6 0 11 6 11 13 0 7 9 20
20 30 11 9 20 22 19 29 0 10 -2 10 -6 1 -2 -7 -9 -13 -15 -13 -6 0 -4 10 4 23
16 24 28 86 18 92 -3 2 -12 -5 -19 -17z"/>
<path d="M1830 2440 c0 -5 5 -10 11 -10 5 0 7 5 4 10 -3 6 -8 10 -11 10 -2 0
-4 -4 -4 -10z"/>
<path d="M1422 2405 c0 -16 2 -22 5 -12 2 9 2 23 0 30 -3 6 -5 -1 -5 -18z"/>
<path d="M383 2403 c4 -3 10 -3 14 0 3 4 0 7 -7 7 -7 0 -10 -3 -7 -7z"/>
<path d="M1045 2390 c3 -5 8 -10 11 -10 2 0 4 5 4 10 0 6 -5 10 -11 10 -5 0
-7 -4 -4 -10z"/>
<path d="M1790 2380 c0 -7 3 -10 7 -7 3 4 3 10 0 14 -4 3 -7 0 -7 -7z"/>
<path d="M2118 2383 c6 -2 18 -2 25 0 6 3 1 5 -13 5 -14 0 -19 -2 -12 -5z"/>
<path d="M1432 2345 c0 -16 2 -22 5 -12 2 9 2 23 0 30 -3 6 -5 -1 -5 -18z"/>
<path d="M1910 2360 c0 -7 3 -10 7 -7 3 4 3 10 0 14 -4 3 -7 0 -7 -7z"/>
<path d="M380 2350 c0 -7 3 -10 7 -7 3 4 3 10 0 14 -4 3 -7 0 -7 -7z"/>
<path d="M3084 2338 c-4 -7 -3 -8 4 -4 12 7 16 16 8 16 -3 0 -8 -5 -12 -12z"/>
<path d="M1480 2318 c0 -16 5 -28 10 -28 13 0 13 20 0 40 -8 12 -10 9 -10 -12z"/>
<path d="M3096 2289 c-14 -11 -30 -17 -36 -14 -5 3 -10 1 -10 -4 0 -6 5 -11
10 -11 31 0 -9 -49 -41 -50 -11 0 -15 -7 -12 -23 3 -13 -7 -67 -21 -121 -14
-54 -23 -102 -20 -107 2 -5 -5 -11 -18 -13 -13 -3 -32 -7 -43 -9 -16 -4 -14
-5 5 -6 24 -1 26 -4 22 -36 -6 -53 44 -97 86 -76 9 5 28 14 42 20 25 10 25 10
-2 5 -23 -5 -27 -2 -31 23 -4 27 -4 27 -6 -4 -1 -28 -5 -33 -25 -33 -33 0 -48
22 -44 67 3 33 7 39 33 44 17 4 22 7 13 8 -24 2 -29 14 -18 47 5 16 19 59 31
97 11 37 26 67 32 67 7 0 6 5 -3 10 -13 9 -10 14 15 35 27 22 31 23 47 8 27
-24 25 -97 -2 -90 -37 10 -84 -83 -48 -95 10 -4 9 -14 -1 -45 -7 -23 -10 -46
-7 -52 11 -18 58 -12 101 12 73 41 71 160 -5 253 -12 13 -12 18 -2 21 23 8 12
23 -17 23 -27 0 -28 1 -18 25 9 17 20 25 39 25 15 0 30 5 33 10 12 19 -52 10
-79 -11z m84 -199 c0 -8 -7 -2 -15 14 -19 36 -19 45 0 20 8 -10 14 -26 15 -34z
m-30 -9 c13 -31 5 -56 -25 -81 -13 -11 -18 -11 -24 -1 -6 9 -10 3 -13 -18 -4
-27 -2 -31 19 -31 17 0 23 5 21 16 -2 10 4 19 12 21 13 4 13 3 0 -7 -13 -9
-12 -10 5 -7 11 2 19 9 17 16 -1 7 2 10 8 6 15 -10 -3 -29 -46 -50 -58 -27
-62 -15 -34 95 19 74 40 88 60 41z"/>
<path d="M2409 2286 c8 -10 9 -16 1 -21 -15 -9 -12 -22 5 -22 8 0 15 8 15 18
0 10 8 20 18 22 9 2 7 3 -5 2 -13 -1 -23 2 -23 6 0 5 -5 9 -11 9 -8 0 -8 -4 0
-14z"/>
<path d="M3003 2293 c9 -2 25 -2 35 0 9 3 1 5 -18 5 -19 0 -27 -2 -17 -5z"/>
<path d="M2548 2283 c12 -2 30 -2 40 0 9 3 -1 5 -23 4 -22 0 -30 -2 -17 -4z"/>
<path d="M2623 2283 c4 -3 10 -3 14 0 3 4 0 7 -7 7 -7 0 -10 -3 -7 -7z"/>
<path d="M586 2271 c-4 -6 -2 -11 4 -11 6 0 9 -4 5 -10 -3 -5 -13 -7 -23 -4
-12 4 -13 3 -4 -3 8 -6 10 -17 5 -29 -6 -17 -5 -18 12 -4 13 10 16 11 11 2 -4
-7 -18 -17 -30 -22 -21 -9 -21 -9 1 -9 12 -1 25 4 28 9 3 6 26 9 51 8 24 0 47
2 51 5 3 4 -4 7 -16 7 -13 0 -36 15 -55 36 -21 23 -36 32 -40 25z m42 -41 c7
-11 10 -20 6 -20 -7 0 -34 27 -34 34 0 13 16 5 28 -14z"/>
<path d="M2157 2266 c-3 -8 -16 -20 -28 -26 -17 -9 -20 -9 -14 0 5 9 1 10 -14
5 -12 -4 -21 -2 -21 4 0 6 -7 11 -15 11 -41 0 23 -146 67 -152 32 -4 27 -52
-9 -90 -15 -16 -26 -32 -23 -36 3 -4 -16 -18 -41 -32 -84 -46 -122 -71 -116
-76 3 -3 13 -1 24 4 10 5 32 15 48 22 60 25 94 44 90 50 -2 3 12 4 31 2 23 -3
34 -9 34 -21 1 -26 23 18 25 49 1 14 5 33 9 43 7 14 3 13 -17 -5 -15 -13 -21
-25 -15 -29 5 -4 3 -9 -7 -12 -10 -4 -14 -3 -9 4 4 8 -1 9 -15 4 -12 -4 -21
-2 -21 4 0 6 4 11 10 11 5 0 17 14 26 31 13 26 20 30 44 27 27 -4 28 -4 12 18
-11 14 -19 18 -24 11 -13 -20 -20 1 -11 30 13 39 50 44 59 8 6 -24 8 -25 28
-12 26 18 51 9 95 -32 33 -31 37 -51 11 -59 -7 -3 -10 0 -7 5 4 7 -10 10 -36
10 -23 0 -53 3 -67 6 -14 4 -20 5 -13 2 9 -5 8 -17 -3 -48 -8 -23 -18 -60 -24
-82 -5 -22 -21 -52 -35 -67 -18 -20 -21 -28 -11 -28 17 0 79 87 73 104 -2 6 2
17 10 24 19 19 17 37 -3 22 -13 -12 -14 -10 -3 13 7 15 16 24 21 21 5 -3 7 -8
4 -11 -3 -3 1 -15 9 -27 23 -32 20 -80 -5 -73 -11 3 -18 1 -14 -4 8 -14 54
-11 54 4 1 6 9 -3 18 -21 10 -18 35 -44 57 -59 22 -15 34 -19 27 -10 -21 25 9
55 32 31 23 -23 20 -10 -9 32 -14 21 -23 44 -20 51 2 8 1 12 -4 8 -11 -6 -51
42 -51 62 0 8 10 23 23 33 22 18 22 18 1 47 -28 38 -85 75 -106 69 -10 -2 -18
1 -19 7 0 7 -4 4 -8 -7 -6 -15 -10 -9 -23 30 -12 39 -20 50 -39 52 -44 5 -55
12 -39 22 8 5 18 6 22 4 4 -3 8 0 8 5 0 6 -6 12 -12 13 -7 0 7 4 32 8 45 7 45
7 -1 8 -33 2 -49 -2 -52 -12z m-69 -52 c-4 -3 2 -14 13 -25 10 -10 19 -29 19
-41 -1 -19 -5 -16 -25 17 -28 45 -30 55 -13 55 6 0 9 -3 6 -6z m56 0 c9 -3 16
-14 16 -23 0 -9 6 -23 12 -29 10 -10 7 -12 -12 -10 -24 3 -53 43 -43 61 5 9 7
9 27 1z m74 -27 c2 -12 -3 -17 -17 -17 -15 0 -21 6 -21 21 0 25 33 22 38 -4z
m137 -178 c11 -17 2 -18 -19 -3 -17 12 -17 14 -4 14 9 0 20 -5 23 -11z m12
-56 c56 -67 67 -91 52 -109 -19 -23 -38 -16 -54 22 -20 50 -19 55 5 17 11 -18
22 -33 26 -33 3 0 -3 15 -15 33 -11 17 -25 31 -31 29 -11 -2 -50 56 -50 76 0
25 28 10 67 -35z"/>
<path d="M928 2263 c7 -3 16 -2 19 1 4 3 -2 6 -13 5 -11 0 -14 -3 -6 -6z"/>
<path d="M1030 2260 c0 -13 33 -21 42 -12 6 6 -1 11 -16 14 -14 3 -26 2 -26
-2z"/>
<path d="M1194 2241 c11 -11 23 -21 28 -21 14 0 -1 19 -25 31 -22 12 -22 12
-3 -10z"/>
<path d="M1758 2253 c7 -3 16 -2 19 1 4 3 -2 6 -13 5 -11 0 -14 -3 -6 -6z"/>
<path d="M3164 2203 c4 -16 8 -33 9 -38 1 -6 10 -21 20 -35 9 -13 17 -32 17
-42 0 -10 6 -18 13 -18 43 0 38 -104 -7 -136 -20 -13 -8 -20 22 -12 42 12 37
208 -5 208 -13 0 -14 -3 -5 -12 7 -7 12 -16 12 -21 0 -5 -6 -2 -13 5 -14 14
-53 109 -49 121 1 4 -3 7 -9 7 -7 0 -9 -10 -5 -27z"/>
<path d="M1014 2208 c-4 -7 -3 -8 4 -4 7 4 12 9 12 12 0 8 -9 4 -16 -8z"/>
<path d="M2388 2208 c-34 -9 -38 -13 -37 -41 1 -32 1 -32 15 1 9 20 21 32 33
32 11 0 23 5 26 10 3 6 5 10 3 9 -2 -1 -20 -6 -40 -11z"/>
<path d="M2313 2203 c4 -3 10 -3 14 0 3 4 0 7 -7 7 -7 0 -10 -3 -7 -7z"/>
<path d="M720 2190 c0 -7 3 -10 7 -7 3 4 3 10 0 14 -4 3 -7 0 -7 -7z"/>
<path d="M3054 2188 c-4 -7 -3 -8 4 -4 12 7 16 16 8 16 -3 0 -8 -5 -12 -12z"/>
<path d="M2680 2175 c0 -8 2 -15 4 -15 2 0 6 7 10 15 3 8 1 15 -4 15 -6 0 -10
-7 -10 -15z"/>
<path d="M846 2160 c7 -25 24 -43 33 -34 3 3 1 8 -5 12 -6 4 -16 16 -23 27
-11 18 -11 18 -5 -5z"/>
<path d="M1502 2119 c-7 -23 -11 -43 -8 -46 6 -6 28 65 24 77 -2 6 -9 -8 -16
-31z"/>
<path d="M2016 2129 c-44 -38 -66 -78 -66 -116 1 -36 15 -13 24 39 5 26 17 44
44 64 20 15 39 29 41 31 2 2 2 6 -1 9 -3 3 -22 -9 -42 -27z"/>
<path d="M2680 2140 c0 -7 3 -10 7 -7 3 4 3 10 0 14 -4 3 -7 0 -7 -7z"/>
<path d="M2758 2103 c6 -2 18 -2 25 0 6 3 1 5 -13 5 -14 0 -19 -2 -12 -5z"/>
<path d="M828 2095 c-3 -3 -70 -6 -149 -6 -106 -1 -138 -3 -125 -11 23 -13
266 -2 281 13 5 5 7 9 4 9 -3 0 -8 -2 -11 -5z"/>
<path d="M920 2088 c0 -4 21 -8 48 -7 52 1 48 6 -10 11 -21 2 -38 0 -38 -4z"/>
<path d="M893 2083 c4 -3 10 -3 14 0 3 4 0 7 -7 7 -7 0 -10 -3 -7 -7z"/>
<path d="M1038 2083 c7 -3 16 -2 19 1 4 3 -2 6 -13 5 -11 0 -14 -3 -6 -6z"/>
<path d="M1103 2083 c4 -3 10 -3 14 0 3 4 0 7 -7 7 -7 0 -10 -3 -7 -7z"/>
<path d="M1133 2073 c4 -3 10 -3 14 0 3 4 0 7 -7 7 -7 0 -10 -3 -7 -7z"/>
<path d="M1210 2055 c-11 -13 -10 -14 4 -9 9 3 16 10 16 15 0 13 -6 11 -20 -6z"/>
<path d="M520 2049 c0 -5 5 -7 10 -4 6 3 10 8 10 11 0 2 -4 4 -10 4 -5 0 -10
-5 -10 -11z"/>
<path d="M853 2053 c4 -3 10 -3 14 0 3 4 0 7 -7 7 -7 0 -10 -3 -7 -7z"/>
<path d="M1452 1955 c-18 -59 -31 -109 -29 -111 6 -6 69 196 65 208 -2 5 -18
-39 -36 -97z"/>
<path d="M827 2008 c-4 -12 -7 -35 -7 -50 0 -19 -13 -37 -42 -64 -24 -20 -37
-34 -30 -30 15 9 102 -24 102 -38 0 -5 8 -18 17 -29 17 -18 17 -20 -6 -38 -37
-30 -97 -13 -75 22 4 8 3 9 -5 5 -6 -4 -18 -2 -26 4 -28 23 -15 -5 20 -43 37
-41 41 -47 25 -47 -5 0 -10 7 -10 15 0 8 -5 15 -11 15 -6 0 -8 -7 -5 -16 3 -9
6 -17 6 -19 0 -2 16 -7 35 -11 42 -8 51 -18 60 -71 6 -39 5 -43 -14 -43 -11 0
-22 4 -25 9 -3 4 -24 11 -47 15 -42 7 -42 7 -35 54 7 47 7 60 4 87 -2 21 -26
19 -24 -2 1 -14 -5 -17 -26 -15 -30 4 -30 -15 -1 -49 19 -22 36 -168 22 -186
-17 -20 -35 -16 -47 11 -9 19 -8 27 4 36 8 7 14 24 14 39 0 31 -28 143 -38
153 -14 13 -62 20 -62 9 0 -6 8 -11 19 -11 42 0 67 -71 50 -143 -11 -49 -11
-49 -63 -43 -35 4 -43 3 -26 -3 14 -5 37 -9 52 -10 22 -1 29 -8 41 -46 18 -50
8 -58 -26 -21 -28 31 -144 76 -178 70 -34 -7 -46 10 -53 75 -9 83 39 137 85
95 19 -17 19 -17 4 26 -8 23 -15 61 -16 84 -1 39 -1 40 -11 13 -7 -18 -6 -37
0 -57 9 -25 8 -30 -8 -35 -28 -9 -240 -12 -277 -4 -40 8 -43 -5 -6 -23 16 -7
29 -23 31 -35 2 -11 12 -29 24 -39 20 -19 21 -19 13 5 -6 20 -4 23 9 18 9 -4
16 -2 16 3 0 13 -23 13 -37 -1 -7 -7 -12 -2 -15 19 -4 29 -4 29 84 36 99 8
113 4 98 -24 -5 -10 -11 -49 -11 -87 -1 -68 -1 -68 -10 -9 -11 77 -23 87 -16
14 4 -41 2 -58 -6 -58 -7 0 -3 -7 7 -15 14 -11 17 -18 9 -26 -8 -8 -13 -8 -17
0 -12 18 -43 12 -49 -9 -3 -11 -11 -20 -17 -20 -7 0 -10 6 -7 14 3 8 1 17 -6
20 -7 2 -5 5 5 5 9 1 20 6 24 12 4 8 -3 9 -27 4 -18 -4 -63 -7 -101 -7 -37 1
-70 -3 -73 -9 -4 -5 2 -9 12 -10 10 0 13 -3 6 -6 -31 -12 -8 -18 62 -17 41 1
75 -2 75 -7 0 -5 -8 -9 -17 -9 -17 -1 -17 -1 0 -11 21 -12 22 -29 2 -29 -8 0
-12 -6 -9 -14 3 -8 -8 -33 -26 -54 -29 -36 -35 -39 -76 -38 -58 2 -86 27 -61
54 9 10 18 29 20 43 5 25 11 27 63 15 23 -5 33 -3 37 7 9 25 -128 17 -150 -8
-17 -18 -17 -18 0 -5 27 20 44 -1 29 -35 -12 -26 -36 -36 -26 -11 3 8 0 17 -7
22 -9 5 -10 2 -6 -9 4 -11 1 -17 -8 -17 -8 0 -15 5 -15 10 0 6 -4 10 -10 10
-19 0 -10 -21 14 -30 46 -17 76 -70 76 -136 0 -42 3 -55 10 -44 5 8 10 28 10
43 0 16 6 35 14 43 8 7 16 19 18 25 2 7 10 10 17 8 11 -4 10 -9 -3 -22 -10 -9
-14 -17 -9 -17 4 0 8 -29 8 -64 1 -38 6 -70 14 -80 7 -9 9 -16 3 -16 -16 0
-36 59 -36 111 -1 26 -4 45 -7 41 -11 -12 -17 -76 -9 -97 5 -13 2 -26 -8 -37
-9 -11 -11 -18 -4 -18 6 0 15 -13 19 -30 8 -30 8 -30 40 -2 30 26 31 28 17 55
-9 16 -13 31 -11 33 3 3 11 -8 18 -25 7 -17 24 -33 37 -36 13 -3 34 -25 50
-50 33 -55 44 -58 27 -8 -8 23 -27 46 -51 62 -93 64 -103 176 -24 253 16 15
19 15 46 -1 32 -20 86 -33 78 -20 -3 5 -12 9 -21 9 -20 0 -71 31 -77 47 -3 8
5 18 20 25 22 10 23 13 8 21 -20 11 1 29 26 23 8 -2 32 -7 53 -11 34 -5 36 -8
26 -27 -13 -24 -6 -32 43 -47 54 -17 85 -60 93 -125 7 -54 7 -54 -79 -139 -47
-46 -86 -89 -86 -95 0 -5 28 19 62 54 48 50 68 64 87 62 32 -4 67 -50 56 -75
-8 -16 -9 -15 -13 7 -4 21 -7 18 -17 -20 -10 -39 -15 -45 -37 -45 -14 0 -30
-3 -34 -7 -4 -5 14 -8 39 -8 32 0 46 4 44 13 -1 6 6 11 15 11 14 -1 17 3 11
25 -6 24 -5 25 12 11 16 -13 18 -13 12 0 -3 8 -11 32 -18 53 -8 25 -20 39 -36
43 -12 4 -23 10 -23 15 0 5 7 6 16 2 20 -8 13 97 -11 153 -15 37 -73 84 -103
84 -27 0 -36 15 -17 30 8 7 15 20 15 30 0 32 35 66 53 52 25 -21 27 -51 4 -67
-12 -8 -16 -15 -10 -15 7 0 21 9 32 21 18 19 20 20 29 3 11 -20 27 -24 97 -27
46 -2 53 1 82 33 18 19 33 39 33 43 0 4 9 3 19 -3 18 -9 19 -7 14 25 -5 30 -3
35 13 35 18 1 18 1 1 11 -10 6 -25 8 -33 5 -8 -3 -14 -1 -14 4 0 12 57 14 63
3 12 -20 19 -106 8 -99 -16 11 -13 -5 6 -26 9 -10 12 -18 6 -18 -5 0 -10 -7
-10 -16 0 -15 2 -15 13 0 10 15 15 15 33 4 19 -11 25 -8 66 32 43 42 45 43 59
25 21 -28 30 -75 17 -88 -6 -6 -11 -21 -11 -33 0 -12 -9 -32 -20 -45 -19 -24
-19 -24 -21 31 -2 43 -3 47 -6 18 -4 -37 -4 -37 -146 -41 -142 -3 -142 -3 1
-5 86 -1 142 -6 142 -12 0 -5 -8 -10 -17 -11 -13 0 -11 -3 6 -10 19 -8 29 -5
46 11 34 32 37 25 31 -62 -5 -63 -4 -77 5 -58 18 44 7 310 -14 321 -20 11 -23
30 -4 27 11 -3 13 38 2 70 -5 13 -75 17 -75 3 0 -4 11 -6 25 -3 57 10 38 -62
-36 -134 -57 -56 -69 -34 -25 45 29 51 34 66 26 87 -6 14 -10 40 -10 57 0 29
-19 77 -20 52 0 -5 -7 1 -15 15 -14 26 -5 50 19 50 20 0 53 -41 76 -94 11 -27
23 -47 26 -44 11 12 -38 100 -75 134 -23 20 -41 43 -41 50 0 8 -4 14 -10 14
-6 0 -9 3 -9 8 5 27 -2 44 -13 34 -9 -7 -22 -7 -42 2 -28 11 -28 11 -9 35 19
23 51 22 37 -1 -5 -8 -1 -9 10 -5 10 4 32 8 49 9 25 1 23 2 -13 7 -44 6 -45 7
-48 45 -2 21 1 42 7 45 5 4 6 12 2 20 -6 9 -10 6 -14 -11z m36 -298 c6 -24 -8
-27 -17 -4 -3 8 -11 12 -17 8 -8 -4 -9 -3 -5 4 11 19 33 14 39 -8z m-113 -12
c0 -5 -5 -6 -11 -2 -8 4 -9 -1 -4 -17 7 -24 7 -24 -14 -2 -26 28 -26 28 4 29
14 1 25 -2 25 -8z m87 -5 c-4 -3 -10 -3 -14 0 -3 4 0 7 7 7 7 0 10 -3 7 -7z
m63 -17 c0 -3 -4 -8 -10 -11 -5 -3 -10 -1 -10 4 0 6 5 11 10 11 6 0 10 -2 10
-4z m-3 -63 c-3 -10 -5 -4 -5 12 0 17 2 24 5 18 2 -7 2 -21 0 -30z m-47 -85
c0 -36 -4 -35 -14 5 -4 16 -2 27 4 27 5 0 10 -14 10 -32z m30 22 c0 -5 -5 -10
-11 -10 -5 0 -7 5 -4 10 3 6 8 10 11 10 2 0 4 -4 4 -10z m-115 -10 c3 -5 4
-10 1 -10 -3 0 -8 5 -11 10 -3 6 -4 10 -1 10 3 0 8 -4 11 -10z m-325 -36 c0
-14 -3 -14 -15 -4 -8 7 -15 14 -15 16 0 2 7 4 15 4 8 0 15 -7 15 -16z m443 1
c-3 -9 -8 -14 -10 -11 -3 3 -2 9 2 15 9 16 15 13 8 -4z m-726 -12 c-4 -3 -7 0
-7 7 0 7 3 10 7 7 3 -4 3 -10 0 -14z m477 -43 c19 -18 18 -18 -38 -1 -31 10
-66 27 -77 38 -21 21 -21 21 37 1 33 -11 68 -28 78 -38z m-406 43 c-10 -2 -26
-2 -35 0 -10 3 -2 5 17 5 19 0 27 -2 18 -5z m157 -13 c17 -7 24 -7 20 0 -3 6
-1 10 4 10 6 0 11 -7 11 -15 0 -9 -9 -15 -25 -15 -14 0 -25 5 -25 11 0 6 -9 8
-20 4 -11 -4 -20 -2 -20 4 0 14 21 14 55 1z m467 -22 c-9 -9 -12 -7 -12 12 0
19 3 21 12 12 9 -9 9 -15 0 -24z m-232 -28 c13 -8 13 -10 -2 -10 -9 0 -20 5
-23 10 -8 13 5 13 25 0z m-460 -330 c0 -5 -2 -10 -4 -10 -3 0 -8 5 -11 10 -3
6 -1 10 4 10 6 0 11 -4 11 -10z m10 -24 c0 -3 -4 -8 -10 -11 -5 -3 -10 -1 -10
4 0 6 5 11 10 11 6 0 10 -2 10 -4z m397 -53 c-4 -3 -10 -3 -14 0 -3 4 0 7 7 7
7 0 10 -3 7 -7z"/>
<path d="M1130 2020 c0 -16 42 -80 53 -80 12 0 8 8 -23 52 -16 22 -30 35 -30
28z"/>
<path d="M1252 2010 c0 -14 2 -19 5 -12 2 6 2 18 0 25 -3 6 -5 1 -5 -13z"/>
<path d="M1093 2013 c4 -3 10 -3 14 0 3 4 0 7 -7 7 -7 0 -10 -3 -7 -7z"/>
<path d="M1185 2000 c3 -5 8 -10 11 -10 2 0 4 5 4 10 0 6 -5 10 -11 10 -5 0
-7 -4 -4 -10z"/>
<path d="M405 1990 c-3 -5 -1 -10 4 -10 6 0 11 5 11 10 0 6 -2 10 -4 10 -3 0
-8 -4 -11 -10z"/>
<path d="M2021 1970 c-13 -11 -29 -20 -37 -20 -7 0 -15 -4 -18 -9 -3 -5 6 -8
19 -8 14 0 25 4 25 9 0 5 19 18 43 28 34 16 38 20 17 19 -14 0 -36 -9 -49 -19z"/>
<path d="M2671 1960 c-1 -23 15 -45 23 -31 4 6 3 11 -3 11 -5 0 -12 8 -14 18
-3 12 -5 13 -6 2z"/>
<path d="M1150 1936 c0 -8 4 -17 9 -20 5 -4 7 3 4 14 -6 23 -13 26 -13 6z"/>
<path d="M1263 1925 c-6 -14 -7 -25 -2 -25 11 0 22 25 17 39 -1 6 -8 -1 -15
-14z"/>
<path d="M2440 1920 c0 -5 7 -10 16 -10 8 0 12 5 9 10 -3 6 -10 10 -16 10 -5
0 -9 -4 -9 -10z"/>
<path d="M2548 1923 c6 -2 18 -2 25 0 6 3 1 5 -13 5 -14 0 -19 -2 -12 -5z"/>
<path d="M2788 1923 c7 -3 16 -2 19 1 4 3 -2 6 -13 5 -11 0 -14 -3 -6 -6z"/>
<path d="M2828 1923 c7 -3 16 -2 19 1 4 3 -2 6 -13 5 -11 0 -14 -3 -6 -6z"/>
<path d="M2863 1923 c4 -3 10 -3 14 0 3 4 0 7 -7 7 -7 0 -10 -3 -7 -7z"/>
<path d="M2138 1880 c-21 -21 -37 -27 -68 -27 -23 0 -46 -5 -53 -12 -6 -6 -22
-11 -36 -11 -21 0 -23 2 -11 10 13 9 13 10 -1 10 -15 0 -47 -30 -64 -59 -6
-11 -4 -13 8 -8 11 4 19 -2 26 -21 11 -27 11 -27 5 3 -3 16 -6 34 -7 39 -1 6
16 14 38 18 22 4 55 10 74 14 27 5 32 4 26 -7 -8 -12 -6 -12 8 0 33 26 61 -3
31 -33 -14 -14 -14 -16 0 -16 9 0 19 12 22 28 4 15 10 32 14 37 7 10 23 66 18
64 -2 -1 -15 -14 -30 -29z"/>
<path d="M943 1893 c4 -3 10 -3 14 0 3 4 0 7 -7 7 -7 0 -10 -3 -7 -7z"/>
<path d="M3266 1860 c6 -27 4 -30 -20 -30 -15 0 -35 4 -44 9 -30 15 -74 23
-67 11 3 -5 14 -10 23 -10 9 0 36 -8 59 -17 37 -15 43 -22 43 -47 0 -16 3 -26
7 -23 10 11 13 126 3 132 -6 4 -7 -7 -4 -25z"/>
<path d="M553 1835 c44 -40 43 -62 -5 -134 -16 -24 -27 -45 -24 -48 2 -2 19
18 37 46 19 28 41 51 49 52 10 0 11 2 3 6 -20 7 -15 23 5 17 16 -5 16 -5 0 6
-10 6 -18 17 -18 24 0 14 -61 66 -77 66 -4 0 9 -16 30 -35z"/>
<path d="M709 1843 c12 -24 31 -39 31 -25 0 5 -10 17 -21 28 -22 19 -22 19
-10 -3z"/>
<path d="M670 1840 c20 -13 33 -13 25 0 -3 6 -14 10 -23 10 -15 0 -15 -2 -2
-10z"/>
<path d="M900 1846 c0 -2 7 -7 16 -10 8 -3 12 -2 9 4 -6 10 -25 14 -25 6z"/>
<path d="M1035 1825 c17 -8 36 -14 43 -15 6 0 12 -3 12 -7 0 -5 12 -21 26 -38
25 -30 25 -30 3 12 -14 27 -31 44 -48 48 -60 14 -65 14 -36 0z"/>
<path d="M2577 1832 c7 -4 16 -19 22 -32 10 -25 10 -25 10 1 1 16 -6 29 -15
33 -22 8 -31 7 -17 -2z"/>
<path d="M1120 1820 c0 -7 3 -10 7 -7 3 4 3 10 0 14 -4 3 -7 0 -7 -7z"/>
<path d="M2268 1805 c-9 -20 -9 -28 1 -38 11 -10 12 -8 7 9 -4 14 -1 28 9 38
9 9 12 16 5 16 -6 0 -16 -11 -22 -25z"/>
<path d="M2323 1823 c4 -3 10 -3 14 0 3 4 0 7 -7 7 -7 0 -10 -3 -7 -7z"/>
<path d="M2930 1773 c5 -27 4 -49 -1 -51 -22 -8 -8 -52 21 -67 17 -9 30 -19
30 -24 0 -14 -36 -1 -59 20 -11 10 -26 19 -33 19 -8 -1 -5 -7 7 -15 19 -15 19
-16 -5 -32 -35 -25 -62 -54 -56 -60 3 -3 14 0 23 8 17 13 17 13 0 -7 -9 -11
-14 -24 -11 -27 4 -4 0 -9 -9 -13 -11 -4 -14 -14 -10 -39 5 -29 3 -33 -13 -30
-11 2 -26 4 -34 4 -13 1 -13 2 0 11 8 5 11 10 5 10 -5 0 -16 -4 -24 -9 -17
-11 15 -31 48 -31 14 0 23 -9 27 -25 9 -35 7 -36 -70 -37 -42 -1 -62 -4 -54
-10 7 -4 40 -8 73 -7 88 1 89 1 78 -13 -6 -7 -13 -25 -17 -39 -6 -26 -36 -49
-36 -27 0 6 -12 -1 -26 -16 -15 -14 -30 -26 -35 -26 -9 0 9 71 22 84 16 17 10
26 -16 26 -25 0 -35 -15 -15 -22 7 -2 6 -14 -3 -36 -7 -18 -16 -29 -20 -25 -4
3 -5 -12 -2 -35 6 -50 1 -53 -20 -12 -9 17 -21 30 -28 29 -9 0 -9 -2 1 -6 17
-7 15 -50 -3 -57 -8 -3 -26 -1 -40 4 -14 5 -25 8 -25 6 0 -2 -21 2 -47 10 -43
13 -49 12 -79 -5 -32 -19 -33 -19 -39 -1 -3 11 -2 27 3 37 5 10 12 33 16 52 8
41 23 61 46 61 13 0 17 6 13 20 -7 24 4 70 16 70 43 0 50 -88 10 -122 -28 -24
-23 -33 6 -10 18 14 35 19 56 15 48 -7 128 82 114 127 -4 13 -2 20 6 20 7 0 2
11 -11 25 -26 28 -83 50 -106 41 -13 -5 -15 1 -11 34 5 44 -14 80 -41 79 -13
0 -11 -3 6 -11 34 -17 27 -124 -8 -122 -19 1 -21 -3 -15 -35 6 -36 6 -36 -10
-7 -8 15 -15 36 -16 45 0 9 -20 32 -45 51 -45 35 -68 56 -125 117 -20 21 -38
30 -54 29 -17 -2 -22 1 -18 12 9 21 -24 2 -67 -40 -32 -31 -39 -34 -82 -30
-36 3 -49 9 -54 24 -8 27 -8 27 74 29 40 1 70 5 65 10 -4 4 -57 5 -117 2 -109
-6 -109 -6 -74 -21 34 -15 36 -18 31 -51 -3 -20 -11 -42 -17 -50 -8 -11 -8
-13 0 -8 14 8 100 -71 109 -101 10 -35 -4 -103 -23 -108 -10 -3 -24 -9 -32
-13 -9 -5 -30 -12 -48 -16 -18 -3 -30 -10 -27 -15 7 -11 -18 -30 -51 -39 -38
-10 -45 -70 -8 -63 24 4 32 18 14 24 -13 4 -2 18 42 51 42 31 60 34 82 12 8
-8 17 -11 21 -6 3 5 -4 12 -15 16 -23 7 -26 21 -7 28 17 6 49 -12 42 -24 -6
-9 6 -13 36 -10 10 1 19 -10 25 -30 5 -18 16 -35 24 -37 12 -4 13 -2 4 9 -6 8
-14 23 -18 33 -7 19 -6 19 14 1 11 -10 20 -14 20 -10 0 5 -16 23 -35 41 -49
45 -52 114 -5 114 31 0 33 -3 45 -54 3 -16 14 -30 25 -33 11 -3 20 -9 20 -14
0 -5 9 -4 20 3 15 10 22 10 32 0 44 -44 89 18 81 114 -7 91 -13 94 -14 8 -1
-38 -3 -60 -6 -49 -7 29 -25 45 -23 20 4 -39 -2 -39 -16 0 -14 40 -14 40 -11
1 3 -33 2 -36 -10 -20 -12 16 -13 15 -13 -14 0 -21 -5 -32 -15 -33 -8 -1 -23
-2 -32 -3 -11 0 -19 7 -21 19 -2 16 -1 17 7 5 16 -24 19 -8 5 40 -11 40 -12
42 -13 15 -2 -46 -17 -10 -25 60 -6 57 4 69 18 20 3 -11 4 -5 2 13 -3 39 17
38 22 -1 2 -15 7 -27 12 -27 5 0 7 7 4 15 -4 8 -1 15 4 15 6 0 13 -8 15 -17 3
-13 5 -10 6 7 2 24 2 24 16 6 14 -19 15 -19 15 -1 0 34 38 65 63 51 49 -25 97
-72 97 -93 0 -12 5 -25 10 -28 6 -3 10 -12 10 -18 -1 -19 -30 25 -30 44 0 9
-12 25 -27 34 -16 10 -23 12 -16 5 6 -7 9 -20 6 -29 -4 -12 -3 -13 5 -3 7 11
11 10 16 -4 7 -19 -11 -37 -31 -30 -6 3 -14 -1 -16 -9 -4 -9 4 -12 26 -11 31
1 32 0 30 -39 -3 -44 -58 -105 -95 -105 -10 0 -18 -4 -18 -10 0 -5 -7 -6 -17
-3 -11 4 -14 3 -9 -5 11 -18 -5 -14 -19 4 -13 18 -60 -1 -115 -46 -25 -20 -25
-20 10 -14 19 4 42 11 50 16 11 6 9 7 -7 3 -32 -9 -28 0 11 24 37 24 46 26 46
11 0 -5 -8 -10 -17 -10 -19 0 35 -32 76 -45 18 -5 22 -4 16 5 -5 9 -4 11 3 6
15 -9 34 -82 28 -104 -5 -15 -20 -16 -153 -12 -148 5 -148 5 -147 58 1 38 -3
52 -13 52 -8 0 -12 -4 -9 -8 2 -4 6 -38 8 -75 2 -65 10 -83 22 -52 7 19 36 20
36 1 0 -8 5 -18 11 -22 7 -4 9 0 5 12 -5 18 2 19 148 19 174 0 199 -8 221 -75
6 -19 18 -36 26 -38 11 -4 12 -2 2 9 -25 26 -18 38 49 98 27 24 27 24 58 -9
16 -17 30 -40 30 -50 0 -10 10 -20 22 -23 29 -8 34 -2 20 28 -16 34 -6 32 12
-4 12 -23 20 -27 41 -24 14 3 25 1 25 -4 0 -5 -29 -10 -64 -11 -64 -3 -65 -2
-69 25 -4 27 -4 27 -6 -4 -1 -31 -1 -31 69 -35 66 -3 71 -2 90 24 12 16 16 29
10 33 -6 3 -10 1 -10 -6 0 -18 -7 -8 -26 37 -11 26 -12 35 -3 27 7 -7 17 -13
22 -13 17 0 -13 28 -43 40 -16 7 -27 16 -24 21 3 5 -3 9 -13 9 -14 0 -15 2 -4
9 13 8 42 0 100 -28 21 -10 27 -33 7 -25 -20 8 -11 -25 12 -43 13 -11 12 -17
-7 -53 -11 -22 -21 -47 -21 -56 0 -8 -6 -17 -14 -20 -29 -11 11 -121 54 -146
38 -22 38 -14 0 21 -33 30 -57 91 -36 91 7 0 12 14 12 33 0 47 23 99 41 92 52
-19 61 -17 56 12 -3 16 -1 23 4 17 4 -6 22 -19 40 -27 31 -16 46 -42 48 -82 1
-11 5 -31 9 -44 5 -15 5 -21 -2 -17 -6 3 -11 -12 -13 -38 -4 -43 -4 -43 24
-35 15 4 36 6 47 4 11 -2 22 0 25 5 3 5 26 12 50 16 28 4 45 11 45 20 0 25
-66 164 -93 194 -32 36 -34 44 -7 37 11 -3 20 -1 20 3 0 5 8 11 18 13 16 4 16
5 0 6 -14 1 -17 9 -15 38 2 35 0 38 -43 55 -45 18 -45 18 5 13 49 -4 49 -4 15
7 -46 15 -45 13 -20 48 12 17 20 33 18 36 -3 2 -16 -11 -29 -31 -25 -36 -39
-44 -39 -22 0 8 17 27 38 43 55 45 63 48 73 33 6 -9 9 6 9 43 0 62 -25 94 -97
125 -33 13 -47 28 -16 16 11 -4 14 -3 9 5 -4 7 -13 12 -19 12 -7 0 -25 27 -41
61 -32 68 -44 74 -22 11 19 -53 4 -55 -17 -2 -10 27 -23 41 -41 46 -26 6 -33
18 -17 28 14 9 10 126 -4 126 -8 0 -10 -14 -5 -47z m-595 -101 c0 -5 8 -16 18
-26 22 -22 21 -27 -3 -54 -30 -32 -62 -28 -85 10 -10 18 -20 27 -23 20 -2 -8
-11 -3 -23 12 -23 29 -24 46 -4 46 8 0 15 4 15 9 0 15 52 17 80 4 14 -7 25
-16 25 -21z m-122 -54 c17 -20 17 -22 -3 -40 -11 -10 -20 -23 -20 -29 0 -5
-10 -14 -22 -19 -23 -9 -23 -9 -1 -9 16 -1 21 -6 17 -16 -4 -10 0 -15 15 -15
12 0 21 -4 21 -10 0 -5 -9 -10 -19 -10 -11 0 -26 -3 -34 -6 -10 -4 -16 5 -21
30 -4 21 -17 43 -34 55 -63 48 -89 100 -42 88 11 -3 20 0 20 5 0 20 103 -1
123 -24z m727 -24 c0 -14 -31 -19 -43 -8 -3 4 -2 15 4 26 11 21 39 8 39 -18z
m55 -5 c11 -17 -1 -21 -15 -4 -8 9 -8 15 -2 15 6 0 14 -5 17 -11z m-55 -44
c14 -19 14 -19 -2 -6 -10 7 -18 18 -18 24 0 6 1 8 3 6 1 -2 9 -13 17 -24z m98
18 c-5 -18 23 -51 48 -57 39 -10 91 -53 96 -80 4 -17 1 -23 -9 -19 -14 6 -18
-7 -5 -22 4 -6 6 -9 4 -8 -2 0 -15 -5 -30 -13 -35 -18 -44 2 -12 28 12 10 18
18 13 18 -5 0 -18 -8 -29 -18 -10 -10 -28 -16 -39 -14 -16 2 -17 1 -5 -7 13
-9 12 -11 -3 -11 -11 0 -15 -4 -11 -12 4 -7 3 -8 -4 -4 -8 5 -12 -1 -12 -18 0
-13 -3 -32 -7 -42 -5 -13 -3 -16 10 -11 9 3 17 3 17 -2 0 -14 -13 -21 -24 -12
-16 12 -56 21 -56 12 0 -4 12 -12 28 -18 15 -7 20 -12 12 -11 -36 1 -51 -3
-45 -12 4 -6 -5 -10 -20 -10 -23 0 -24 2 -15 20 6 12 7 20 1 20 -5 0 -12 -8
-14 -17 -4 -15 -6 -15 -12 4 -4 13 -11 20 -16 17 -13 -8 -5 26 15 65 14 26 20
31 27 20 5 -8 9 -11 9 -6 0 17 3 22 13 29 9 6 9 8 0 8 -7 0 -13 5 -13 10 0 7
7 7 21 -1 15 -8 19 -8 15 0 -7 11 5 15 34 12 13 -2 13 -1 0 8 -13 9 -12 13 7
26 33 23 53 45 53 57 0 6 -8 4 -18 -5 -9 -8 -29 -20 -44 -26 -25 -10 -27 -8
-42 36 -18 54 -21 48 24 61 19 6 36 11 38 11 1 1 1 -2 0 -6z m-109 -47 c23
-27 7 -39 -21 -17 -33 27 -36 26 -30 -4 5 -31 -5 -75 -18 -75 -6 0 -10 21 -10
47 0 76 38 99 79 49z m-722 -13 c-4 -3 -7 0 -7 7 0 7 3 10 7 7 3 -4 3 -10 0
-14z m475 1 c29 -15 30 -18 14 -29 -16 -12 -16 -14 0 -23 24 -14 9 -30 -23
-25 -28 4 -28 4 -5 -10 24 -14 24 -14 -3 -45 -38 -46 -98 -47 -89 -2 4 16 1
43 -5 61 -9 27 -8 34 7 45 15 12 14 12 -8 7 -25 -6 -25 -6 -1 16 29 25 70 27
113 5z m215 -41 c-4 -3 -7 0 -7 7 0 7 3 10 7 7 3 -4 3 -10 0 -14z m22 -74 c1
8 3 12 6 9 8 -8 -22 -73 -41 -89 -15 -13 -16 -12 -9 11 4 14 12 30 17 37 5 6
8 17 7 25 -4 29 3 42 11 18 4 -14 8 -19 9 -11z m-569 1 c0 -5 -2 -10 -4 -10
-3 0 -8 5 -11 10 -3 6 -1 10 4 10 6 0 11 -4 11 -10z m30 0 c0 -5 -5 -10 -11
-10 -5 0 -7 5 -4 10 3 6 8 10 11 10 2 0 4 -4 4 -10z m740 -54 c0 -3 -4 -8 -10
-11 -5 -3 -10 -1 -10 4 0 6 5 11 10 11 6 0 10 -2 10 -4z m-683 -45 c-12 -32
-43 -42 -87 -30 -24 7 -24 7 5 8 18 1 40 11 54 26 31 33 42 32 28 -4z m537
-91 c23 0 58 5 79 11 57 16 109 -4 105 -39 -3 -23 -9 -28 -48 -35 -44 -8 -145
5 -179 23 -9 5 -23 11 -32 14 -32 9 -73 74 -59 91 12 14 18 11 53 -25 34 -34
46 -40 81 -40z m-135 10 c25 -45 23 -47 -20 -25 -16 9 -34 13 -39 10 -19 -11
-50 -14 -50 -4 0 16 51 59 70 59 9 0 26 -18 39 -40z m199 13 c-10 -2 -26 -2
-35 0 -10 3 -2 5 17 5 19 0 27 -2 18 -5z m-443 -39 c17 -4 40 -14 53 -22 23
-15 23 -15 -5 -32 -15 -9 -39 -28 -52 -42 -25 -26 -25 -26 -54 3 -16 16 -35
29 -43 29 -8 0 -14 5 -14 10 0 6 5 10 12 10 6 0 9 3 6 6 -4 3 -15 1 -26 -5
-18 -9 -19 -8 -15 12 13 49 40 56 138 31z m109 -10 c14 -36 4 -43 -29 -18 -17
13 -18 16 -5 24 21 13 27 12 34 -6z m46 -11 c0 -5 18 -28 40 -51 43 -47 52
-73 22 -65 -27 7 -95 123 -72 123 6 0 10 -3 10 -7z m55 -33 c3 -5 4 -10 1 -10
-3 0 -8 5 -11 10 -3 6 -4 10 -1 10 3 0 8 -4 11 -10z m120 1 c-3 -5 -1 -12 4
-15 5 -4 12 -2 15 3 4 6 17 4 34 -5 15 -7 50 -14 77 -14 62 0 98 -33 144 -131
44 -92 39 -102 -54 -110 -22 -2 -43 -8 -47 -14 -5 -6 -8 -3 -8 7 0 9 5 18 10
20 7 2 5 17 -5 42 -23 54 -12 69 14 19 26 -52 37 -57 16 -8 -8 19 -21 50 -29
68 -8 18 -26 42 -40 52 -14 10 -22 23 -19 28 3 5 16 -1 28 -13 24 -22 24 -22
20 1 -3 13 3 2 12 -26 19 -59 29 -46 13 15 -11 42 -12 42 -52 37 -22 -3 -53
-1 -70 5 -23 8 -32 8 -38 -2 -5 -9 -12 -6 -24 11 -19 27 -20 39 -5 39 5 0 8
-4 4 -9z"/>
<path d="M2913 1593 c4 -3 10 -3 14 0 3 4 0 7 -7 7 -7 0 -10 -3 -7 -7z"/>
<path d="M2990 1490 c0 -7 3 -10 7 -7 3 4 3 10 0 14 -4 3 -7 0 -7 -7z"/>
<path d="M3043 1413 c4 -3 10 -3 14 0 3 4 0 7 -7 7 -7 0 -10 -3 -7 -7z"/>
<path d="M3010 1360 c0 -7 3 -10 7 -7 3 4 3 10 0 14 -4 3 -7 0 -7 -7z"/>
<path d="M2998 1333 c6 -2 18 -2 25 0 6 3 1 5 -13 5 -14 0 -19 -2 -12 -5z"/>
<path d="M2935 1319 c-4 -6 -5 -12 -2 -15 2 -3 7 2 10 11 7 17 1 20 -8 4z"/>
<path d="M2960 1280 c0 -7 3 -10 7 -7 3 4 3 10 0 14 -4 3 -7 0 -7 -7z"/>
<path d="M3043 1143 c4 -3 10 -3 14 0 3 4 0 7 -7 7 -7 0 -10 -3 -7 -7z"/>
<path d="M266 1796 c5 -14 34 -31 34 -20 0 7 -27 34 -34 34 -3 0 -3 -6 0 -14z"/>
<path d="M1200 1739 c0 -5 5 -7 10 -4 6 3 10 8 10 11 0 2 -4 4 -10 4 -5 0 -10
-5 -10 -11z"/>
<path d="M1998 1743 c12 -2 32 -2 45 0 12 2 2 4 -23 4 -25 0 -35 -2 -22 -4z"/>
<path d="M2285 1740 c3 -5 11 -10 16 -10 6 0 7 5 4 10 -3 6 -11 10 -16 10 -6
0 -7 -4 -4 -10z"/>
<path d="M2975 1740 c-13 -6 3 -9 49 -9 38 -1 67 1 65 3 -10 9 -96 13 -114 6z"/>
<path d="M3150 1740 c0 -5 11 -10 24 -10 14 0 28 5 31 10 4 6 -7 10 -24 10
-17 0 -31 -4 -31 -10z"/>
<path d="M1100 1731 c0 -6 4 -13 10 -16 6 -3 7 1 4 9 -7 18 -14 21 -14 7z"/>
<path d="M3113 1733 c4 -3 10 -3 14 0 3 4 0 7 -7 7 -7 0 -10 -3 -7 -7z"/>
<path d="M3262 1720 c-7 -11 -8 -20 -3 -20 5 0 7 -8 4 -19 -3 -10 0 -22 6 -25
7 -5 11 8 11 38 0 52 -1 53 -18 26z"/>
<path d="M1930 1715 c-16 -19 -30 -84 -20 -90 4 -2 10 13 14 35 4 24 15 45 28
54 17 12 18 16 6 16 -8 0 -21 -7 -28 -15z"/>
<path d="M2383 1723 c32 -2 81 -2 110 0 29 2 3 3 -58 3 -60 0 -84 -1 -52 -3z"/>
<path d="M240 1678 c0 -10 53 -9 95 2 22 5 14 7 -32 6 -35 0 -63 -4 -63 -8z"/>
<path d="M1086 1674 c-8 -22 -7 -77 2 -91 4 -6 8 15 8 48 1 63 0 68 -10 43z"/>
<path d="M2088 1683 c7 -3 16 -2 19 1 4 3 -2 6 -13 5 -11 0 -14 -3 -6 -6z"/>
<path d="M1143 1615 c0 -22 2 -30 4 -17 2 12 2 30 0 40 -3 9 -5 -1 -4 -23z"/>
<path d="M1360 1621 c0 -5 9 -7 20 -4 11 3 20 7 20 9 0 2 -9 4 -20 4 -11 0
-20 -4 -20 -9z"/>
<path d="M1945 1620 c3 -5 8 -10 11 -10 3 0 2 5 -1 10 -3 6 -8 10 -11 10 -3 0
-2 -4 1 -10z"/>
<path d="M1394 1602 c-12 -9 -40 -87 -90 -252 -20 -69 -40 -129 -44 -135 -16
-20 -16 -135 -1 -135 5 0 12 30 16 68 3 37 15 96 25 132 45 152 55 180 62 180
4 0 4 7 1 17 -4 11 -3 14 5 9 10 -6 17 9 38 97 7 29 5 31 -12 19z"/>
<path d="M1336 1565 c-18 -43 -19 -45 -8 -45 10 0 36 70 29 77 -3 3 -13 -12
-21 -32z"/>
<path d="M1965 1590 c3 -5 8 -10 11 -10 3 0 2 5 -1 10 -3 6 -8 10 -11 10 -3 0
-2 -4 1 -10z"/>
<path d="M463 1583 c4 -3 10 -3 14 0 3 4 0 7 -7 7 -7 0 -10 -3 -7 -7z"/>
<path d="M2380 1576 c0 -8 4 -17 9 -20 5 -4 7 3 4 14 -6 23 -13 26 -13 6z"/>
<path d="M711 1564 c0 -11 3 -14 6 -6 3 7 2 16 -1 19 -3 4 -6 -2 -5 -13z"/>
<path d="M1060 1571 c0 -5 5 -13 10 -16 6 -3 10 -2 10 4 0 5 -4 13 -10 16 -5
3 -10 2 -10 -4z"/>
<path d="M2410 1571 c0 -5 5 -13 10 -16 6 -3 10 -2 10 4 0 5 -4 13 -10 16 -5
3 -10 2 -10 -4z"/>
<path d="M1150 1560 c-1 -8 -2 -19 -1 -23 1 -5 -9 -6 -21 -3 -23 6 -23 6 0 -6
27 -14 35 -7 29 24 -2 12 -5 16 -7 8z"/>
<path d="M2765 1543 c-41 -10 -32 -18 15 -15 28 2 50 8 50 13 0 9 -30 10 -65
2z"/>
<path d="M533 1533 c4 -3 10 -3 14 0 3 4 0 7 -7 7 -7 0 -10 -3 -7 -7z"/>
<path d="M791 1533 c0 -5 4 -17 9 -28 8 -18 9 -17 9 8 1 15 -3 27 -9 27 -5 0
-10 -3 -9 -7z"/>
<path d="M1040 1520 c6 -11 13 -20 16 -20 2 0 0 9 -6 20 -6 11 -13 20 -16 20
-2 0 0 -9 6 -20z"/>
<path d="M1065 1530 c3 -5 13 -10 21 -10 8 0 12 5 9 10 -3 6 -13 10 -21 10 -8
0 -12 -4 -9 -10z"/>
<path d="M2422 1520 c0 -14 2 -19 5 -12 2 6 2 18 0 25 -3 6 -5 1 -5 -13z"/>
<path d="M2688 1533 c6 -2 18 -2 25 0 6 3 1 5 -13 5 -14 0 -19 -2 -12 -5z"/>
<path d="M2770 1510 c0 -5 5 -10 11 -10 5 0 7 5 4 10 -3 6 -8 10 -11 10 -2 0
-4 -4 -4 -10z"/>
<path d="M1310 1473 c-7 -21 -22 -76 -34 -123 -13 -47 -26 -94 -30 -105 -4
-11 0 -8 8 6 8 15 29 75 45 133 17 59 33 111 36 116 3 6 2 10 -4 10 -6 0 -15
-17 -21 -37z"/>
<path d="M2728 1503 c7 -3 16 -2 19 1 4 3 -2 6 -13 5 -11 0 -14 -3 -6 -6z"/>
<path d="M2310 1490 c0 -7 3 -10 7 -7 3 4 3 10 0 14 -4 3 -7 0 -7 -7z"/>
<path d="M1735 1460 c9 -51 9 -68 0 -138 -8 -62 -8 -62 24 -56 27 6 31 4 31
-15 0 -11 5 -21 11 -21 9 0 10 20 6 68 -4 37 -7 84 -7 105 0 30 -5 39 -24 47
-13 5 -29 17 -35 27 -9 15 -10 11 -6 -17z m42 -28 c9 -6 8 -23 -5 -72 -17 -69
-29 -62 -13 8 5 25 5 44 0 48 -11 6 -12 24 -1 24 4 0 12 -4 19 -8z m10 -114
c-3 -8 -6 -5 -6 6 -1 11 2 17 5 13 3 -3 4 -12 1 -19z"/>
<path d="M800 1440 c0 -7 3 -10 7 -7 3 4 3 10 0 14 -4 3 -7 0 -7 -7z"/>
<path d="M0 1420 c0 -11 2 -20 4 -20 2 0 6 9 9 20 3 11 1 20 -4 20 -5 0 -9 -9
-9 -20z"/>
<path d="M1086 1393 c4 -50 4 -52 -23 -56 -26 -4 -26 -4 5 -6 35 -1 40 17 21
84 -6 23 -7 17 -3 -22z"/>
<path d="M2285 1430 c3 -5 8 -10 11 -10 3 0 2 5 -1 10 -3 6 -8 10 -11 10 -3 0
-2 -4 1 -10z"/>
<path d="M1547 1397 c-11 -29 -9 -43 4 -30 6 6 9 19 7 29 -3 18 -4 18 -11 1z"/>
<path d="M610 1381 c0 -10 -3 -27 -6 -35 -5 -12 -2 -15 10 -10 18 7 22 49 6
59 -5 3 -10 -3 -10 -14z"/>
<path d="M1912 1342 c-30 -3 -33 -6 -27 -25 4 -12 8 -32 9 -44 0 -13 5 -23 10
-23 5 0 6 18 3 40 -5 42 0 48 22 28 11 -10 13 -10 7 0 -5 8 2 12 23 12 17 0
31 4 31 9 0 9 -18 9 -78 3z"/>
<path d="M645 1320 c3 -5 8 -10 11 -10 2 0 4 5 4 10 0 6 -5 10 -11 10 -5 0 -7
-4 -4 -10z"/>
<path d="M2704 1299 c-19 -22 -19 -22 3 -10 24 12 39 31 25 31 -5 0 -17 -10
-28 -21z"/>
<path d="M2470 1300 c0 -5 5 -10 11 -10 5 0 7 5 4 10 -3 6 -8 10 -11 10 -2 0
-4 -4 -4 -10z"/>
<path d="M2665 1300 c3 -5 8 -10 11 -10 3 0 2 5 -1 10 -3 6 -8 10 -11 10 -3 0
-2 -4 1 -10z"/>
<path d="M685 1290 c3 -5 8 -10 11 -10 3 0 2 5 -1 10 -3 6 -8 10 -11 10 -3 0
-2 -4 1 -10z"/>
<path d="M359 1228 c11 -35 17 -45 19 -31 3 18 -22 83 -32 83 -1 0 5 -23 13
-52z"/>
<path d="M2052 1268 c-20 -20 -14 -38 15 -38 25 0 26 1 8 13 -10 8 -15 19 -11
25 9 15 3 15 -12 0z"/>
<path d="M2141 1258 c7 -16 19 -28 28 -28 13 0 13 2 0 13 -8 6 -20 19 -27 27
-11 13 -11 10 -1 -12z"/>
<path d="M2495 1270 c-3 -5 1 -10 10 -10 9 0 13 5 10 10 -3 6 -8 10 -10 10 -2
0 -7 -4 -10 -10z"/>
<path d="M274 1211 c8 -75 24 -113 45 -106 9 2 32 5 51 7 39 2 70 23 70 48 0
9 5 21 11 27 7 7 7 13 1 17 -5 3 -17 -11 -25 -32 -9 -21 -21 -39 -29 -40 -7
-1 -30 -5 -50 -8 -44 -7 -58 15 -58 91 0 24 -5 47 -11 51 -8 4 -9 -12 -5 -55z"/>
<path d="M932 1240 c0 -14 2 -19 5 -12 2 6 2 18 0 25 -3 6 -5 1 -5 -13z"/>
<path d="M2300 1251 c0 -5 5 -13 10 -16 6 -3 10 -2 10 4 0 5 -4 13 -10 16 -5
3 -10 2 -10 -4z"/>
<path d="M2538 1253 c7 -3 16 -2 19 1 4 3 -2 6 -13 5 -11 0 -14 -3 -6 -6z"/>
<path d="M2598 1253 c12 -2 30 -2 40 0 9 3 -1 5 -23 4 -22 0 -30 -2 -17 -4z"/>
<path d="M905 1205 c4 -17 11 -34 16 -39 5 -5 4 5 -1 24 -12 42 -24 55 -15 15z"/>
<path d="M390 1202 c0 -5 7 -15 15 -22 8 -7 15 -8 15 -2 0 5 -7 15 -15 22 -8
7 -15 8 -15 2z"/>
<path d="M473 1193 c4 -3 10 -3 14 0 3 4 0 7 -7 7 -7 0 -10 -3 -7 -7z"/>
<path d="M942 1180 c0 -14 2 -19 5 -12 2 6 2 18 0 25 -3 6 -5 1 -5 -13z"/>
<path d="M1825 1148 c-23 -51 -21 -88 6 -95 23 -6 22 1 4 -69 -9 -34 -11 -63
-6 -72 10 -17 3 -44 -28 -115 -24 -54 -26 -71 -10 -61 8 4 9 -1 4 -17 -5 -13
-7 -44 -5 -69 6 -84 4 -175 -5 -229 -6 -38 -5 -52 3 -47 10 6 71 -24 104 -52
16 -14 14 -17 -27 -43 -25 -16 -45 -33 -45 -39 0 -16 14 -11 28 10 7 11 22 20
35 20 22 -1 22 -1 -4 -24 -26 -23 -26 -23 30 -20 31 2 58 4 61 4 3 0 -1 4 -9
9 -10 7 -7 13 14 27 72 50 73 53 28 93 -76 69 -169 128 -181 116 -4 -4 -2 -10
5 -12 51 -18 132 -84 128 -104 -7 -34 -16 -36 -34 -10 -9 14 -24 34 -34 45
-17 21 -17 21 -10 1 3 -11 13 -28 21 -37 8 -10 12 -18 7 -18 -13 0 -85 43 -85
52 0 10 13 10 26 0 5 -4 1 1 -10 11 -15 14 -21 15 -28 5 -5 -8 -6 4 -1 27 4
22 7 74 7 115 0 41 1 67 3 57 3 -10 14 -17 28 -17 19 0 23 4 18 17 -5 13 -2
15 11 10 10 -4 29 -7 42 -7 23 0 24 -3 18 -38 -4 -26 -1 -49 10 -69 8 -17 14
-40 11 -51 -4 -21 34 -42 77 -42 10 0 21 -7 24 -15 4 -8 12 -15 20 -15 20 0
44 -41 44 -75 -1 -52 -22 -69 -85 -66 -30 1 -55 -1 -55 -6 0 -12 181 -13 202
-2 24 13 14 29 -17 29 -30 0 -39 14 -25 40 15 27 54 28 47 0 -3 -12 0 -20 6
-20 14 1 51 70 37 70 -6 0 -10 -5 -10 -11 0 -5 -4 -8 -10 -4 -5 3 -7 12 -4 19
12 32 -29 116 -83 171 -30 30 -57 55 -60 55 -10 0 39 -61 58 -70 48 -26 89
-180 47 -180 -5 0 -6 4 -3 10 3 5 1 10 -4 10 -6 0 -11 8 -11 18 0 19 -29 52
-46 52 -5 -1 2 -9 14 -20 13 -11 22 -25 20 -32 -3 -7 -17 5 -34 29 -16 23 -35
40 -42 38 -7 -3 -10 -1 -7 5 3 5 -6 17 -20 26 -26 17 -26 17 2 40 15 13 25 23
22 24 -10 0 -74 -33 -80 -43 -3 -5 -9 -1 -12 8 -5 10 -3 14 5 9 7 -4 8 -3 4 5
-4 6 -12 9 -17 6 -15 -10 -10 8 11 43 22 35 18 34 176 36 81 1 81 1 93 -40 7
-23 9 -53 5 -70 -6 -25 -5 -27 8 -16 15 12 12 59 -6 103 -4 9 -11 70 -15 135
-8 117 -8 117 -10 35 -1 -65 -4 -81 -13 -74 -7 5 -26 14 -43 21 -24 9 -26 9
-11 -1 38 -25 66 -49 66 -55 0 -10 -60 -35 -67 -28 -4 3 0 6 7 6 8 0 -7 13
-32 29 -37 24 -84 67 -52 49 5 -3 18 -1 29 3 14 7 8 8 -22 5 -24 -2 -43 0 -43
4 0 4 -11 18 -25 31 -28 27 -33 44 -9 35 18 -7 46 17 68 62 21 41 7 41 -19 -1
-14 -22 -27 -31 -42 -29 -21 3 -50 -48 -36 -62 4 -3 -4 -6 -16 -6 -14 0 -20
-4 -15 -12 4 -7 3 -8 -5 -4 -8 6 -9 12 -2 20 7 9 7 17 -2 26 -9 10 -9 11 1 6
7 -4 12 -2 12 6 0 8 -13 13 -34 13 -32 0 -33 -1 -17 -21 9 -12 21 -19 26 -17
6 3 5 1 -1 -6 -16 -17 -60 2 -67 30 -4 13 -1 26 5 30 8 5 7 12 -4 23 -9 8 -19
12 -23 8 -4 -4 -3 3 4 15 6 12 11 33 11 47 0 36 10 55 25 50 10 -4 10 -10 0
-32 -21 -44 -27 -72 -16 -72 6 0 11 11 11 24 0 35 15 40 28 11 15 -33 32 -25
82 40 38 49 44 53 66 44 91 -34 146 -128 113 -191 -12 -23 -2 -40 11 -18 11
18 21 10 23 -19 1 -11 5 -21 10 -21 5 0 6 8 2 18 -4 9 -10 40 -14 68 -10 72
-66 147 -127 170 -45 17 -45 17 -76 -21 -29 -35 -32 -36 -45 -19 -10 13 -13
14 -13 3 -1 -9 -5 -7 -12 6 -18 31 -32 42 -51 39 -22 -3 -22 12 -1 24 11 6 13
11 5 16 -21 13 -11 37 22 51 18 8 25 14 15 15 -10 0 -18 5 -18 10 0 6 -11 3
-26 -6 -34 -23 -51 -7 -32 32 33 70 134 67 165 -4 8 -20 20 -45 25 -55 14 -28
3 -31 -42 -13 -29 11 -46 13 -58 6 -14 -7 -11 -9 15 -10 20 0 36 -7 42 -17 6
-10 11 -15 11 -11 0 4 12 3 28 -1 19 -6 31 -4 40 6 7 7 17 11 23 8 5 -4 9 -1
9 5 0 7 -6 10 -14 7 -13 -5 -35 10 -34 23 8 61 -80 127 -157 118 -19 -2 -36 0
-38 5 -1 5 -11 -11 -22 -35z m115 -262 c0 -3 -4 -8 -10 -11 -5 -3 -10 -1 -10
4 0 6 5 11 10 11 6 0 10 -2 10 -4z m-103 -123 c-4 -3 -7 0 -7 7 0 7 3 10 7 7
3 -4 3 -10 0 -14z m20 -65 c23 -20 97 -30 144 -19 39 9 59 2 97 -32 17 -16 19
-23 10 -29 -18 -11 -86 -10 -93 2 -3 6 -12 10 -18 10 -7 0 -6 -4 3 -10 12 -8
10 -10 -8 -10 -13 0 -21 4 -18 9 4 5 -3 7 -14 4 -43 -11 -109 7 -125 35 -16
27 -16 27 -9 2 3 -14 11 -31 16 -37 7 -8 7 -13 1 -13 -18 0 -33 51 -32 108 1
56 1 56 14 27 7 -17 21 -38 32 -47z m123 18 c0 -3 -4 -8 -10 -11 -5 -3 -10 -1
-10 4 0 6 5 11 10 11 6 0 10 -2 10 -4z m39 -255 c20 -13 23 -41 5 -41 -9 0
-12 5 -9 10 4 7 -2 9 -17 7 -12 -2 -17 -2 -10 0 10 4 10 8 1 19 -14 17 6 20
30 5z m-39 -121 c0 -5 -4 -10 -10 -10 -5 0 -10 5 -10 10 0 6 5 10 10 10 6 0
10 -4 10 -10z m36 -37 c-10 -10 -19 5 -10 18 6 11 8 11 12 0 2 -7 1 -15 -2
-18z m-96 -53 c0 -5 -5 -10 -11 -10 -5 0 -7 5 -4 10 3 6 8 10 11 10 2 0 4 -4
4 -10z"/>
<path d="M1030 1156 c0 -8 -12 -17 -27 -19 -23 -3 -22 -4 9 -6 32 -1 35 2 31
19 -6 23 -13 26 -13 6z"/>
<path d="M1783 1140 c-28 -11 -29 -15 -4 -17 11 -1 22 5 25 13 3 8 4 14 3 13
-1 0 -12 -4 -24 -9z"/>
<path d="M945 1130 c3 -5 8 -10 11 -10 2 0 4 5 4 10 0 6 -5 10 -11 10 -5 0 -7
-4 -4 -10z"/>
<path d="M1898 1133 c7 -3 16 -2 19 1 4 3 -2 6 -13 5 -11 0 -14 -3 -6 -6z"/>
<path d="M920 1120 c0 -7 3 -10 7 -7 3 4 3 10 0 14 -4 3 -7 0 -7 -7z"/>
<path d="M1515 1118 c-4 -10 -17 -19 -29 -19 -16 -1 -17 -2 -3 -6 9 -2 17 -5
17 -6 0 -1 -7 -23 -14 -49 -8 -25 -12 -49 -9 -52 4 -3 1 -6 -7 -6 -8 0 -9 -4
-3 -12 5 -7 10 -26 11 -42 3 -38 36 -178 60 -253 11 -32 22 -74 26 -93 11 -62
48 -170 57 -165 4 3 -1 24 -11 48 -10 23 -23 69 -30 102 -6 33 -17 76 -25 95
-64 157 -80 375 -33 437 6 7 8 18 5 25 -3 9 -7 8 -12 -4z"/>
<path d="M1608 1123 c7 -3 16 -2 19 1 4 3 -2 6 -13 5 -11 0 -14 -3 -6 -6z"/>
<path d="M1955 1120 c3 -5 10 -10 16 -10 5 0 9 5 9 10 0 6 -7 10 -16 10 -8 0
-12 -4 -9 -10z"/>
<path d="M2050 1120 c0 -7 3 -10 7 -7 3 4 3 10 0 14 -4 3 -7 0 -7 -7z"/>
<path d="M600 1111 c0 -6 4 -13 10 -16 6 -3 7 1 4 9 -7 18 -14 21 -14 7z"/>
<path d="M1558 1113 c6 -2 18 -2 25 0 6 3 1 5 -13 5 -14 0 -19 -2 -12 -5z"/>
<path d="M803 1103 c4 -3 10 -3 14 0 3 4 0 7 -7 7 -7 0 -10 -3 -7 -7z"/>
<path d="M2325 1100 c-38 -7 -38 -7 -8 -9 31 -1 59 -21 30 -21 -11 0 -13 -7
-9 -22 5 -20 3 -21 -10 -10 -13 10 -18 10 -24 1 -4 -8 -3 -9 4 -5 7 4 12 3 12
-2 0 -5 11 -9 24 -9 18 0 24 5 23 21 -1 11 2 31 7 44 4 12 4 21 -1 21 -4 -1
-26 -5 -48 -9z"/>
<path d="M635 1090 c3 -5 8 -10 11 -10 3 0 2 5 -1 10 -3 6 -8 10 -11 10 -3 0
-2 -4 1 -10z"/>
<path d="M930 1096 c0 -12 29 -76 34 -76 3 0 -2 17 -11 38 -16 38 -23 50 -23
38z"/>
<path d="M1985 1090 c-3 -5 -1 -10 4 -10 6 0 11 5 11 10 0 6 -2 10 -4 10 -3 0
-8 -4 -11 -10z"/>
<path d="M2203 1093 c4 -3 10 -3 14 0 3 4 0 7 -7 7 -7 0 -10 -3 -7 -7z"/>
<path d="M2233 1093 c4 -3 10 -3 14 0 3 4 0 7 -7 7 -7 0 -10 -3 -7 -7z"/>
<path d="M2263 1093 c4 -3 10 -3 14 0 3 4 0 7 -7 7 -7 0 -10 -3 -7 -7z"/>
<path d="M817 1069 c4 -13 8 -18 11 -10 2 7 -1 18 -6 23 -8 8 -9 4 -5 -13z"/>
<path d="M0 1069 c0 -5 4 -7 10 -4 5 3 10 8 10 11 0 2 -4 4 -10 4 -5 0 -10 -5
-10 -11z"/>
<path d="M330 1060 c6 -11 13 -20 16 -20 2 0 0 9 -6 20 -6 11 -13 20 -16 20
-2 0 0 -9 6 -20z"/>
<path d="M457 1043 c-11 -13 -17 -27 -14 -30 3 -2 13 7 23 21 22 34 15 42 -9
9z"/>
<path d="M2275 1060 c3 -5 8 -10 11 -10 2 0 4 5 4 10 0 6 -5 10 -11 10 -5 0
-7 -4 -4 -10z"/>
<path d="M620 1050 c0 -7 3 -10 7 -7 3 4 3 10 0 14 -4 3 -7 0 -7 -7z"/>
<path d="M681 1055 c1 -19 18 -51 18 -35 0 8 -4 22 -9 30 -5 8 -9 11 -9 5z"/>
<path d="M800 1050 c0 -7 3 -10 7 -7 3 4 3 10 0 14 -4 3 -7 0 -7 -7z"/>
<path d="M920 1050 c0 -7 3 -10 7 -7 3 4 3 10 0 14 -4 3 -7 0 -7 -7z"/>
<path d="M2190 1051 c0 -5 5 -13 10 -16 6 -3 10 -2 10 4 0 5 -4 13 -10 16 -5
3 -10 2 -10 -4z"/>
<path d="M656 1036 c3 -8 -2 -16 -13 -19 -12 -3 -8 -5 10 -6 25 -1 27 1 17 19
-12 23 -22 27 -14 6z"/>
<path d="M740 1041 c0 -6 4 -13 10 -16 6 -3 7 1 4 9 -7 18 -14 21 -14 7z"/>
<path d="M1878 1043 c7 -3 16 -2 19 1 4 3 -2 6 -13 5 -11 0 -14 -3 -6 -6z"/>
<path d="M780 1030 c0 -7 3 -10 7 -7 3 4 3 10 0 14 -4 3 -7 0 -7 -7z"/>
<path d="M2237 1029 c7 -7 15 -10 18 -7 3 3 -2 9 -12 12 -14 6 -15 5 -6 -5z"/>
<path d="M130 1021 c0 -6 4 -13 10 -16 6 -3 7 1 4 9 -7 18 -14 21 -14 7z"/>
<path d="M720 1020 c0 -7 3 -10 7 -7 3 4 3 10 0 14 -4 3 -7 0 -7 -7z"/>
<path d="M2450 1020 c0 -7 3 -10 7 -7 3 4 3 10 0 14 -4 3 -7 0 -7 -7z"/>
<path d="M2277 1009 c7 -7 15 -10 18 -7 3 3 -2 9 -12 12 -14 6 -15 5 -6 -5z"/>
<path d="M340 996 c0 -10 8 -16 22 -16 12 0 19 1 17 3 -2 1 -12 9 -21 16 -15
12 -18 11 -18 -3z"/>
<path d="M2060 1000 c0 -7 3 -10 7 -7 3 4 3 10 0 14 -4 3 -7 0 -7 -7z"/>
<path d="M2343 1003 c4 -3 10 -3 14 0 3 4 0 7 -7 7 -7 0 -10 -3 -7 -7z"/>
<path d="M2518 1003 c6 -2 18 -2 25 0 6 3 1 5 -13 5 -14 0 -19 -2 -12 -5z"/>
<path d="M2638 1003 c7 -3 16 -2 19 1 4 3 -2 6 -13 5 -11 0 -14 -3 -6 -6z"/>
<path d="M415 990 c-30 -8 -30 -8 -3 -9 15 0 30 4 33 9 3 6 5 9 3 9 -2 -1 -16
-5 -33 -9z"/>
<path d="M818 993 c7 -3 16 -2 19 1 4 3 -2 6 -13 5 -11 0 -14 -3 -6 -6z"/>
<path d="M938 993 c7 -3 16 -2 19 1 4 3 -2 6 -13 5 -11 0 -14 -3 -6 -6z"/>
<path d="M148 983 c7 -3 16 -2 19 1 4 3 -2 6 -13 5 -11 0 -14 -3 -6 -6z"/>
<path d="M203 983 c9 -2 23 -2 30 0 6 3 -1 5 -18 5 -16 0 -22 -2 -12 -5z"/>
<path d="M1590 983 c0 -5 10 -18 23 -29 22 -19 22 -19 2 6 -11 14 -21 27 -22
29 -2 2 -3 0 -3 -6z"/>
<path d="M1703 945 c15 -22 27 -50 27 -62 0 -13 4 -23 9 -23 20 0 -15 87 -45
111 -10 8 -7 -3 9 -26z"/>
<path d="M1920 970 c0 -5 5 -10 10 -10 6 0 15 -10 20 -22 5 -13 9 -17 9 -10 1
19 -18 52 -29 52 -6 0 -10 -4 -10 -10z"/>
<path d="M1404 944 c3 -9 7 -34 8 -57 1 -42 1 -42 7 3 7 50 4 70 -11 70 -6 0
-7 -7 -4 -16z"/>
<path d="M2473 953 c37 -2 96 -2 130 0 34 2 4 3 -68 3 -71 0 -99 -1 -62 -3z"/>
<path d="M2971 919 c-8 -27 -10 -60 -4 -97 7 -57 7 -57 14 38 7 110 7 115 -10
59z"/>
<path d="M2001 915 c-11 -20 -21 -40 -21 -44 0 -10 -41 -47 -60 -54 -11 -4
-10 -6 4 -6 24 -1 117 122 102 136 -2 2 -13 -12 -25 -32z"/>
<path d="M2918 890 c-3 -30 -2 -57 2 -60 4 -3 10 -15 14 -27 3 -13 9 -32 12
-43 4 -14 1 -20 -10 -20 -9 0 -16 -4 -16 -10 0 -5 3 -9 8 -9 42 7 12 -40 -60
-92 -26 -19 -26 -19 -11 38 8 32 19 62 24 68 14 14 11 62 -5 68 -10 4 -14 -4
-13 -31 0 -20 -7 -62 -16 -93 -11 -37 -14 -65 -8 -85 8 -32 -11 -169 -31 -219
-7 -16 -12 -35 -10 -42 1 -6 -5 -14 -15 -18 -23 -7 -73 -51 -73 -63 0 -6 10
-12 23 -14 37 -7 310 -2 335 6 18 6 71 84 60 90 -21 12 -79 25 -92 20 -25 -10
-8 -24 29 -24 19 0 37 -4 40 -10 3 -5 -3 -10 -15 -10 -12 0 -19 -4 -16 -9 4
-5 -5 -8 -19 -7 -13 2 -22 0 -20 -4 6 -10 -26 -36 -52 -43 -17 -4 -23 -1 -24
11 0 11 -2 12 -6 5 -2 -7 -14 -13 -26 -13 -34 0 10 29 48 31 29 2 29 2 3 6
-36 6 -41 26 -22 81 23 64 28 340 8 388 -8 19 -20 69 -27 111 -14 78 -14 78
-19 23z m32 -335 c-15 -115 -31 -147 -89 -185 -63 -40 -64 -39 -30 23 23 42
28 65 27 109 -1 32 4 63 11 71 9 12 9 16 -1 20 -9 3 -6 12 12 31 13 15 30 24
37 22 7 -3 19 4 26 15 19 31 21 0 7 -106z m-16 -204 c-10 -25 -17 -50 -16 -54
1 -5 -3 -5 -9 -1 -8 5 -10 2 -6 -8 10 -28 -15 -38 -95 -38 -78 0 -78 0 -55 26
32 38 67 53 96 43 13 -5 26 -7 29 -4 3 2 -5 8 -18 13 -22 8 -21 10 21 40 23
18 47 32 51 32 4 0 9 8 9 18 1 15 2 15 6 -2 3 -10 -3 -39 -13 -65z m133 -7
c-3 -3 -12 -4 -19 -1 -8 3 -5 6 6 6 11 1 17 -2 13 -5z"/>
<path d="M2810 300 c0 -6 7 -13 15 -16 8 -4 12 -11 8 -17 -4 -7 0 -8 11 -4 10
4 26 7 37 7 12 0 16 5 13 15 -5 11 -10 12 -25 2 -17 -10 -22 -9 -33 6 -15 19
-26 22 -26 7z"/>
<path d="M2044 908 c-4 -7 -3 -8 4 -4 12 7 16 16 8 16 -3 0 -8 -5 -12 -12z"/>
<path d="M2022 878 c-7 -7 -12 -19 -12 -27 0 -11 5 -8 16 7 18 25 15 39 -4 20z"/>
<path d="M1760 871 c0 -5 9 -7 20 -4 11 3 20 7 20 9 0 2 -9 4 -20 4 -11 0 -20
-4 -20 -9z"/>
<path d="M1410 820 c0 -7 3 -10 7 -7 3 4 3 10 0 14 -4 3 -7 0 -7 -7z"/>
<path d="M1749 764 c14 -36 27 -61 29 -56 3 10 -44 122 -51 122 -2 0 7 -30 22
-66z"/>
<path d="M3138 775 c2 -25 -1 -59 -7 -77 -9 -26 -9 -30 1 -20 14 14 25 142 12
142 -5 0 -8 -20 -6 -45z"/>
<path d="M1883 753 c4 -3 10 -3 14 0 3 4 0 7 -7 7 -7 0 -10 -3 -7 -7z"/>
<path d="M2066 745 c-11 -8 -15 -15 -10 -15 6 0 14 4 20 9 5 5 18 11 29 14 20
5 20 5 0 6 -11 0 -29 -6 -39 -14z"/>
<path d="M2113 713 c4 -3 10 -3 14 0 3 4 0 7 -7 7 -7 0 -10 -3 -7 -7z"/>
<path d="M1724 666 c7 -20 18 -42 25 -49 7 -7 5 4 -4 28 -22 52 -37 68 -21 21z"/>
<path d="M3110 650 c0 -7 3 -10 7 -7 3 4 3 10 0 14 -4 3 -7 0 -7 -7z"/>
<path d="M1422 625 c0 -16 2 -22 5 -12 2 9 2 23 0 30 -3 6 -5 -1 -5 -18z"/>
<path d="M2150 550 c8 -5 28 -10 44 -10 39 0 30 6 -19 13 -27 4 -35 3 -25 -3z"/>
<path d="M2995 443 c-3 -21 -9 -56 -15 -78 -7 -31 -6 -43 6 -55 13 -13 14 -13
9 2 -4 9 -3 23 1 30 9 14 18 138 10 138 -3 0 -8 -17 -11 -37z"/>
<path d="M1468 463 c6 -2 18 -2 25 0 6 3 1 5 -13 5 -14 0 -19 -2 -12 -5z"/>
<path d="M3110 417 c0 -24 -6 -49 -12 -56 -11 -11 -10 -13 2 -9 16 5 33 108
18 108 -5 0 -8 -19 -8 -43z"/>
<path d="M760 390 c0 -13 11 -13 30 0 12 8 11 10 -7 10 -13 0 -23 -4 -23 -10z"/>
<path d="M1610 375 c-6 -16 -11 -49 -12 -74 0 -25 -4 -51 -9 -57 -6 -8 -2 -14
13 -18 22 -7 22 -8 -7 -21 -16 -8 -43 -14 -58 -15 -16 0 -26 -4 -22 -10 13
-21 276 -4 283 18 3 11 0 12 -14 4 -25 -13 -176 -23 -168 -11 3 5 31 10 62 10
54 1 55 2 17 8 -73 13 -85 25 -85 87 0 30 5 64 11 76 6 11 8 22 5 25 -3 3 -10
-7 -16 -22z"/>
<path d="M1794 296 c6 -54 5 -57 -20 -66 -33 -13 -28 -20 9 -13 26 5 27 8 27
64 0 33 -5 61 -12 65 -8 5 -9 -8 -4 -50z"/>
<path d="M2138 193 c6 -2 18 -2 25 0 6 3 1 5 -13 5 -14 0 -19 -2 -12 -5z"/>
<path d="M363 3 c4 -3 10 -3 14 0 3 4 0 7 -7 7 -7 0 -10 -3 -7 -7z"/>
<path d="M443 3 c4 -3 10 -3 14 0 3 4 0 7 -7 7 -7 0 -10 -3 -7 -7z"/>
<path d="M483 3 c4 -3 10 -3 14 0 3 4 0 7 -7 7 -7 0 -10 -3 -7 -7z"/>
<path d="M523 3 c4 -3 10 -3 14 0 3 4 0 7 -7 7 -7 0 -10 -3 -7 -7z"/>
</g>
</svg>
