<?xml version="1.0" standalone="no"?>
<!DOCTYPE svg PUBLIC "-//W3C//DTD SVG 20010904//EN"
 "http://www.w3.org/TR/2001/REC-SVG-20010904/DTD/svg10.dtd">
<svg version="1.0" xmlns="http://www.w3.org/2000/svg"
 width="344.000000pt" height="256.000000pt" viewBox="0 0 344.000000 256.000000"
 preserveAspectRatio="xMidYMid meet">
<metadata>
Created by potrace 1.16, written by Peter Selinger 2001-2019
</metadata>
<g transform="translate(0.000000,256.000000) scale(0.100000,-0.100000)"
fill="#000000" stroke="none">
<path d="M357 2518 c2 -24 6 -51 8 -61 2 -9 0 -15 -5 -12 -11 7 -12 -151 -2
-207 9 -47 9 -47 -40 -27 -27 10 -63 18 -81 18 -27 -2 -28 -2 -7 -6 14 -3 29
-11 33 -19 4 -8 16 -14 25 -13 14 0 13 2 -3 9 -18 8 -18 9 -2 9 10 1 29 -6 43
-15 24 -17 25 -20 23 -121 -2 -120 1 -124 70 -126 47 -2 50 -1 44 21 -3 12 -1
22 5 22 15 0 17 -14 13 -72 -3 -52 -3 -52 -22 -27 -10 13 -19 19 -19 13 0 -6
9 -23 20 -37 11 -14 20 -29 20 -34 0 -5 14 -22 31 -39 17 -16 38 -42 46 -59 9
-16 33 -49 54 -72 22 -24 39 -47 39 -52 0 -16 78 -91 95 -91 13 0 16 10 14 48
-1 26 2 81 6 123 5 56 4 79 -5 84 -9 5 -10 2 -5 -14 3 -11 2 -21 -3 -21 -6 0
-8 -10 -5 -22 6 -23 6 -23 -16 2 -23 25 -23 25 -2 -13 27 -49 27 -62 -1 -43
-12 9 -27 16 -33 16 -5 0 -2 -5 8 -11 9 -5 17 -17 17 -24 0 -8 6 -15 13 -15 8
0 8 -3 1 -8 -6 -4 -13 -15 -17 -24 -3 -10 -11 -18 -16 -18 -15 0 -51 51 -44
63 3 6 1 7 -5 3 -7 -4 -12 -3 -12 3 0 5 -6 16 -12 23 -7 7 -26 31 -42 52 -29
39 -29 39 3 68 33 30 33 30 2 66 -17 20 -49 62 -71 93 -21 31 -46 59 -55 62
-9 4 -15 19 -15 39 1 33 1 33 23 -3 12 -19 37 -53 54 -75 89 -107 104 -128
119 -160 9 -19 20 -34 25 -34 5 0 3 12 -3 26 -11 24 -9 29 15 50 16 13 24 24
19 24 -5 0 -15 -7 -22 -15 -12 -14 -40 -21 -40 -10 0 3 8 17 17 32 16 24 16
26 0 38 -9 7 -17 16 -17 20 0 5 11 -2 25 -15 36 -34 30 -11 -9 32 -33 37 -33
37 -59 10 -15 -14 -28 -24 -29 -21 -2 2 -13 19 -26 37 -12 17 -18 32 -12 32 5
0 10 -5 10 -11 0 -5 5 -7 10 -4 5 3 10 -1 10 -9 0 -9 5 -16 10 -16 6 0 10 5
10 10 0 6 9 14 21 18 19 8 19 10 -15 52 -19 25 -58 74 -86 109 -27 35 -50 70
-50 77 0 7 -4 15 -9 18 -5 4 -7 -11 -4 -33 5 -34 2 -43 -23 -66 -29 -27 -29
-27 -32 61 -2 75 0 91 14 101 24 18 27 17 47 -18 11 -20 22 -29 32 -25 8 3 15
1 15 -5 0 -6 6 -7 13 -4 6 3 5 0 -4 -6 -15 -11 -15 -15 4 -46 23 -39 32 -38
17 2 -7 17 -7 31 -1 34 5 3 7 18 6 34 -2 15 1 25 6 21 21 -13 6 18 -26 53 -19
21 -41 50 -47 65 -16 34 -29 26 -22 -12 7 -30 -4 -48 -41 -67 -19 -11 -20 -8
-17 80 2 72 7 95 20 106 15 12 15 12 -5 6 -14 -4 -23 -2 -23 4 0 6 -4 11 -9
11 -5 0 -7 -19 -4 -42z m120 -191 c1 -23 -1 -26 -11 -17 -22 18 -27 52 -8 48
10 -2 17 -14 19 -31z m20 11 c-3 -8 -6 -5 -6 6 -1 11 2 17 5 13 3 -3 4 -12 1
-19z m-7 -215 c0 -17 5 -35 12 -39 7 -5 8 -3 3 6 -5 9 -4 11 3 6 7 -4 12 0 12
10 0 11 8 5 23 -17 13 -19 22 -36 20 -38 -2 -3 -10 5 -19 17 -19 27 -34 20
-35 -16 0 -16 -3 -21 -6 -12 -3 8 -12 19 -19 23 -9 5 -14 28 -14 65 0 40 3 53
10 42 5 -8 10 -29 10 -47z m-50 -62 c0 -78 -9 -101 -40 -101 -29 0 -28 153 1
174 33 23 39 12 39 -73z m-73 -58 c-3 -10 -5 -4 -5 12 0 17 2 24 5 18 2 -7 2
-21 0 -30z m266 -39 c3 -3 3 -13 0 -21 -5 -12 -7 -12 -14 -1 -15 23 -4 40 14
22z m-23 -38 c0 -9 7 -12 19 -9 10 3 22 0 25 -5 4 -6 -3 -8 -16 -5 -19 5 -21
3 -10 -8 14 -15 16 -33 2 -24 -24 15 -52 65 -36 65 9 0 16 -6 16 -14z m-70
-27 c0 -5 -4 -9 -10 -9 -5 0 -10 7 -10 16 0 8 5 12 10 9 6 -3 10 -10 10 -16z
m-27 -3 c3 -8 0 -19 -7 -25 -10 -9 -12 -6 -8 14 5 29 8 31 15 11z m61 -48 c12
-28 12 -35 -3 -54 -16 -23 -16 -23 -43 9 -16 18 -28 35 -28 39 0 15 23 20 32
7 7 -10 7 -7 3 9 -10 36 24 27 39 -10z m166 -275 c-1 -18 -18 -35 -24 -24 -4
6 -4 16 -1 21 7 12 25 13 25 3z"/>
<path d="M510 1840 c0 -7 3 -10 7 -7 3 4 3 10 0 14 -4 3 -7 0 -7 -7z"/>
<path d="M434 2527 c4 -31 55 -119 77 -133 6 -3 23 -24 39 -45 16 -22 31 -36
33 -32 3 4 -15 35 -40 67 -46 60 -46 60 -22 78 23 19 23 19 49 -9 14 -15 36
-44 49 -63 23 -35 23 -35 -4 -6 -25 27 -27 28 -43 12 -16 -16 -16 -17 0 -11
20 8 41 -25 32 -49 -4 -9 -1 -16 6 -16 7 0 10 -7 6 -15 -13 -34 50 -39 72 -5
10 16 6 25 -28 62 -22 24 -40 47 -40 53 0 5 -16 26 -37 47 -36 37 -36 37 -66
16 -30 -21 -30 -21 -48 1 -11 13 -19 36 -19 52 0 16 -5 29 -10 29 -6 0 -8 -15
-6 -33z"/>
<path d="M3048 2553 c6 -2 18 -2 25 0 6 3 1 5 -13 5 -14 0 -19 -2 -12 -5z"/>
<path d="M861 2509 c12 -24 37 -62 55 -85 19 -23 34 -45 34 -49 0 -4 16 -27
35 -51 42 -51 42 -52 5 -87 -28 -29 -31 -57 -4 -57 8 0 14 8 14 18 0 14 -2 15
-10 2 -6 -9 -10 -10 -10 -3 0 21 23 26 36 8 11 -15 11 -22 1 -34 -11 -14 -10
-14 6 -2 20 16 22 4 3 -21 -13 -18 -29 -7 -75 54 -16 21 15 68 39 60 8 -3 -4
17 -26 44 -23 27 -44 58 -48 69 -4 11 -18 33 -31 48 -24 27 -26 27 -49 12 -24
-16 -25 -15 -40 12 -20 37 -66 80 -66 61 0 -7 9 -19 21 -26 11 -7 30 -34 41
-58 18 -41 33 -64 63 -98 6 -6 17 -25 24 -43 7 -18 20 -38 28 -45 9 -7 26 -29
39 -48 13 -19 35 -51 48 -70 14 -19 25 -39 25 -45 0 -16 -58 -57 -70 -50 -11
7 29 42 44 37 4 -1 7 2 7 8 0 11 -71 92 -76 87 -6 -6 30 -77 40 -77 5 0 1 -9
-9 -20 -10 -11 -22 -17 -26 -14 -14 8 -11 -4 8 -33 17 -25 16 -26 -25 -65 -48
-45 -49 -48 -21 -74 12 -10 28 -32 36 -49 9 -16 31 -49 49 -72 19 -23 34 -47
34 -55 0 -7 10 -19 21 -26 16 -10 19 -16 10 -25 -12 -12 -22 -3 -35 28 -2 6
-10 1 -18 -9 -8 -10 -20 -16 -26 -12 -8 5 -10 2 -6 -8 3 -9 2 -16 -3 -16 -24
0 -21 16 7 45 30 30 30 30 -3 68 -33 37 -33 37 -66 3 -33 -34 -31 -47 8 -53
15 -2 33 -25 25 -32 -2 -2 -11 4 -19 15 -8 11 -14 14 -15 6 0 -6 11 -22 25
-34 14 -12 25 -29 25 -38 0 -9 14 -29 30 -45 17 -16 30 -33 30 -38 0 -5 16
-28 35 -51 42 -52 28 -55 -93 -20 -16 5 -2 22 33 42 17 9 9 11 -44 12 -64 0
-64 0 -21 -46 32 -35 39 -49 31 -57 -9 -9 -14 -9 -19 -1 -4 6 -22 28 -41 50
-34 38 -34 38 -58 9 -19 -22 -27 -25 -33 -15 -5 8 -6 18 -4 22 3 4 -2 8 -11 8
-14 0 -13 -4 5 -30 19 -27 60 -45 44 -19 -4 8 1 9 17 5 22 -7 23 -6 6 8 -10 8
-14 17 -9 20 5 3 19 -5 32 -19 22 -23 22 -23 -6 -28 -26 -4 -25 -4 7 -6 50 -2
53 -9 19 -48 -30 -34 -39 -63 -20 -63 6 0 10 8 10 19 0 10 20 37 45 60 75 69
168 57 226 -29 37 -55 38 -74 4 -66 -18 5 -32 1 -47 -14 -12 -11 -24 -17 -27
-14 -3 3 0 8 6 12 14 9 12 29 -5 57 -10 16 -11 3 -6 -69 5 -81 4 -88 -12 -82
-38 15 -105 28 -111 22 -3 -3 8 -9 25 -12 18 -4 32 -11 32 -16 0 -5 5 -6 12
-2 7 4 8 3 4 -5 -6 -9 -11 -9 -24 1 -10 9 -8 -1 8 -29 13 -24 28 -43 32 -43
12 0 52 -90 44 -97 -3 -4 -6 -1 -6 5 0 15 -38 11 -45 -6 -3 -8 -3 -18 1 -23 3
-5 1 -9 -5 -9 -6 0 -15 10 -22 21 -8 15 -8 19 0 15 24 -15 31 42 10 79 -25 42
-28 43 -54 5 -20 -27 -22 -28 -32 -10 -10 15 -9 18 5 16 35 -6 45 30 20 74
-22 38 -38 51 -38 30 0 -5 -5 -10 -11 -10 -7 0 -18 -8 -25 -17 -12 -17 -13
-17 -14 -1 0 9 10 24 22 32 16 11 18 16 7 16 -8 0 -20 -5 -27 -12 -9 -9 -12
-5 -12 20 0 35 13 41 30 15 10 -16 11 -16 5 2 -4 11 -9 28 -12 37 -9 29 -33
29 -58 0 -28 -31 -30 -49 -9 -77 15 -19 15 -18 9 15 -4 24 -1 41 9 55 15 19
16 16 14 -42 -1 -54 3 -68 28 -104 63 -90 62 -82 21 -130 -20 -23 -37 -48 -37
-54 0 -7 -13 -29 -29 -49 -37 -47 -53 -28 -16 20 18 24 24 41 20 55 -5 15 -4
19 5 14 12 -8 70 41 70 59 0 6 -15 27 -34 46 -18 20 -36 45 -40 57 -4 12 -14
27 -23 35 -15 11 -16 11 -8 -7 4 -11 8 -33 7 -48 -1 -15 3 -25 7 -22 7 4 21
-16 21 -31 0 -10 -19 -2 -40 16 -40 35 -44 22 -5 -15 42 -38 42 -42 -21 -181
-13 -28 -29 -73 -36 -100 -13 -52 -28 -80 -28 -51 0 9 -4 17 -10 17 -5 0 -10
-8 -10 -18 0 -19 -49 -72 -66 -72 -6 0 -25 16 -44 35 -34 35 -34 35 6 76 41
40 41 40 75 13 34 -28 34 -28 2 7 -18 19 -33 39 -33 45 0 6 -16 26 -36 45 -20
18 -40 43 -44 54 -8 19 -9 19 -9 1 -1 -11 -19 -34 -41 -53 -22 -19 -40 -41
-40 -50 0 -8 18 -33 40 -55 49 -49 49 -45 1 -92 -39 -38 -39 -38 -60 -17 -31
31 -30 262 1 293 24 24 21 29 -9 17 -22 -8 -23 -13 -23 -126 0 -65 -3 -284 -6
-488 -3 -203 -3 -367 0 -364 12 12 15 82 15 378 1 260 3 292 16 281 8 -7 15
-18 15 -24 0 -7 18 -30 40 -51 22 -21 40 -43 40 -48 0 -6 17 -29 37 -52 21
-24 54 -64 73 -91 19 -26 52 -67 73 -90 44 -49 43 -65 -4 -110 -30 -29 -30
-29 -59 6 -16 19 -30 31 -30 26 0 -4 11 -21 25 -38 26 -31 32 -53 15 -63 -5
-3 -10 -11 -10 -17 0 -16 36 24 44 48 6 19 66 89 69 82 1 -2 17 -20 36 -40 34
-37 34 -37 6 -75 -28 -38 -28 -38 3 -9 32 30 32 30 57 6 32 -30 33 -14 0 20
-24 25 -24 25 5 57 41 44 38 54 -4 14 -34 -33 -34 -33 -65 0 -38 42 -38 42 0
91 32 40 32 40 105 -37 40 -42 74 -84 76 -93 3 -14 7 -12 18 9 8 14 32 50 52
80 68 97 74 107 44 74 -15 -16 -38 -46 -51 -65 -53 -76 -50 -75 -84 -49 -16
12 -33 29 -36 37 -8 21 48 88 69 84 14 -3 15 0 5 16 -10 16 -10 23 4 37 24 23
21 32 -3 10 -23 -21 -38 -12 -74 41 -48 72 -122 164 -136 169 -8 4 -3 -7 13
-22 15 -16 27 -33 27 -37 0 -8 26 -41 104 -131 43 -50 43 -71 1 -118 -24 -27
-24 -27 -59 10 -43 46 -43 41 -5 82 16 18 28 35 26 38 -3 2 -17 -12 -32 -31
-28 -36 -28 -36 -61 1 -39 44 -41 54 -14 70 10 7 24 23 31 35 9 18 4 16 -23
-10 -34 -32 -34 -32 -66 1 -37 38 -38 44 -15 69 16 18 16 18 0 12 -9 -3 -17
-11 -17 -17 0 -6 -16 4 -35 23 -43 42 -43 48 0 90 29 28 38 32 45 20 8 -13
132 -26 291 -29 31 -1 41 -9 85 -63 27 -33 62 -73 78 -88 32 -31 30 -48 -10
-94 -26 -30 -26 -30 -60 8 -39 44 -40 50 -16 68 9 7 24 22 32 33 8 11 -2 5
-21 -13 -35 -32 -35 -32 -67 1 -18 18 -32 38 -32 43 0 12 -52 64 -64 64 -5 0
6 -14 23 -32 17 -17 31 -36 31 -40 0 -5 11 -21 24 -35 14 -15 44 -51 68 -81
24 -29 62 -74 86 -99 42 -46 42 -46 -11 -127 -74 -112 -76 -116 -34 -72 20 21
37 44 37 51 0 7 12 29 27 48 16 20 43 57 62 83 33 46 33 46 62 18 31 -30 36
-52 17 -74 -7 -8 -4 -7 8 3 11 9 24 14 28 10 4 -4 4 0 1 9 -7 19 48 101 60 90
5 -4 5 -1 1 5 -4 7 5 29 20 50 28 38 28 38 -5 8 -18 -16 -39 -43 -46 -60 -31
-68 -42 -73 -75 -35 -36 43 -36 43 -3 85 28 34 28 34 57 7 31 -29 27 -12 -7
25 -19 21 -19 22 9 60 28 38 28 38 -3 10 -30 -28 -30 -28 -57 3 -30 36 -32 52
-11 70 8 7 15 18 15 24 0 6 -9 0 -19 -14 -19 -24 -19 -24 -43 -5 -23 20 -23
20 -5 -1 9 -11 17 -26 17 -32 0 -6 16 -28 35 -49 42 -46 42 -49 4 -92 -31 -34
-31 -34 -66 1 -35 35 -35 35 -3 72 18 20 31 39 28 41 -3 3 -17 -9 -32 -26 -28
-31 -28 -31 -62 2 -33 32 -44 59 -24 59 5 0 15 10 21 23 12 22 12 22 -13 0
-24 -23 -24 -23 -56 10 -37 38 -39 44 -14 49 19 4 -143 20 -226 22 -61 1 -60
-6 -23 93 17 43 35 96 40 118 17 62 52 101 79 86 24 -13 30 -3 10 17 -8 8 -9
12 -1 12 13 0 77 -102 88 -140 4 -14 24 -47 44 -75 21 -27 49 -66 64 -87 21
-28 31 -35 49 -30 12 3 17 7 10 10 -7 2 -10 8 -6 13 3 5 -5 27 -17 49 -20 36
-24 38 -35 22 -12 -16 -13 -15 -14 5 0 12 5 25 10 28 6 4 8 16 5 28 -3 12 15
-18 40 -67 25 -50 51 -93 58 -98 11 -7 -19 -13 -50 -9 -7 1 -13 -3 -13 -9 0
-13 29 -13 70 2 31 10 32 12 13 19 -21 8 -45 52 -85 157 -11 29 -30 65 -42 80
-34 40 -47 91 -43 163 2 35 0 74 -4 87 -14 36 16 27 34 -11 9 -18 28 -46 42
-62 15 -17 31 -42 37 -57 10 -27 28 -38 28 -18 0 6 5 10 11 10 5 0 7 -4 4 -10
-3 -6 -2 -10 4 -10 15 0 24 46 15 78 -5 20 -8 23 -11 9 -3 -9 -9 -15 -14 -12
-5 4 -9 1 -9 -4 0 -6 -8 -11 -17 -10 -10 0 -13 3 -6 5 7 3 10 11 7 18 -3 8 2
16 10 19 23 9 19 28 -12 62 -22 23 -26 36 -21 55 6 21 7 22 9 5 1 -11 2 -23 2
-26 -1 -4 7 -9 17 -12 18 -4 17 -1 -4 39 -13 24 -29 60 -35 79 -6 19 -31 54
-55 77 -32 31 -52 65 -74 122 -16 43 -38 84 -48 91 -20 15 -21 13 31 29 20 7
39 -19 31 -43 -3 -11 1 -32 10 -48 16 -28 16 -14 0 32 -6 17 -5 18 7 5 7 -8
20 -16 28 -18 8 -2 18 -9 22 -15 4 -6 10 -9 13 -5 6 6 -5 18 -39 42 -19 13
-19 14 1 39 20 26 20 26 42 3 22 -23 29 -42 11 -31 -5 3 -10 -4 -10 -16 0 -18
2 -19 15 -9 21 18 19 38 -9 70 -24 29 -24 29 -47 4 -16 -17 -26 -21 -33 -13
-8 7 -2 19 21 39 18 16 29 30 25 32 -11 5 -66 79 -81 110 -8 15 -22 37 -33 47
-10 11 -18 24 -18 28 0 5 -14 25 -30 45 -21 26 -27 39 -19 44 13 7 59 -42 59
-62 0 -6 18 -34 40 -62 22 -27 40 -54 40 -60 0 -5 6 -15 14 -21 11 -9 12 -7 9
12 -3 14 3 29 16 41 12 11 21 23 21 27 0 4 -11 -3 -25 -17 -24 -24 -45 -25
-45 -2 0 5 -9 22 -20 36 -21 26 -21 26 -1 46 20 20 20 20 44 -7 12 -15 26 -27
31 -27 5 0 -7 17 -25 38 -34 37 -34 37 -54 14 -20 -24 -20 -24 -52 21 -30 41
-31 45 -16 66 15 23 15 23 41 -14 15 -20 28 -32 30 -25 2 6 -5 22 -17 34 -22
23 -28 46 -12 46 9 0 61 -64 61 -75 0 -4 16 -25 35 -48 19 -22 35 -45 35 -51
0 -12 57 -76 67 -76 3 0 -1 8 -9 18 -21 23 -108 153 -108 161 0 3 10 12 22 20
20 13 24 11 50 -20 15 -18 30 -31 32 -28 3 3 -8 20 -24 39 -17 19 -30 39 -30
44 0 6 -13 -3 -29 -18 -29 -28 -29 -28 -56 8 -15 20 -24 40 -19 47 5 8 3 9 -5
4 -7 -4 -5 4 4 19 17 26 17 26 42 0 13 -15 22 -32 19 -40 -3 -8 0 -11 10 -7
20 7 18 11 -20 53 -34 38 -34 38 -60 12 -20 -21 -26 -23 -26 -10 0 9 11 25 24
35 23 19 23 19 -5 53 -36 43 -22 66 15 24 14 -16 26 -32 26 -35 0 -4 18 -29
40 -55 22 -27 40 -54 40 -61 0 -7 9 -17 20 -23 11 -6 31 -32 44 -58 25 -49 96
-125 96 -104 0 7 -7 15 -15 18 -8 3 -25 22 -37 42 -12 21 -24 39 -27 42 -4 3
-10 12 -16 21 -5 9 -18 28 -28 42 -19 26 -19 26 10 51 15 14 34 26 41 26 7 0
10 4 7 10 -3 5 -1 19 5 31 11 20 12 20 32 2 21 -18 21 -18 9 6 -17 31 0 49 23
25 47 -46 50 -60 20 -98 -29 -35 -29 -35 -59 -8 -29 26 -29 26 -7 1 26 -30 27
-46 6 -79 -12 -20 -11 -19 9 3 24 29 24 29 50 -5 15 -18 27 -28 27 -23 0 6
-11 24 -24 40 -22 27 -23 32 -9 47 15 16 17 16 33 -5 9 -12 19 -29 22 -37 3
-10 6 -11 11 -3 4 7 -4 24 -18 39 -26 27 -29 42 -10 46 9 1 64 -68 65 -82 0
-10 -48 -60 -58 -60 -5 0 -8 -8 -5 -18 3 -12 -10 -37 -36 -68 -53 -65 -62 -74
-100 -106 -17 -14 -31 -32 -31 -39 0 -7 6 -5 15 7 14 19 15 18 36 -6 21 -25
21 -25 5 3 -17 27 -16 28 20 62 20 19 40 35 43 35 3 0 11 10 16 23 6 12 17 21
24 19 7 -1 10 2 6 8 -3 5 -1 19 6 31 11 22 11 21 31 -10 11 -17 22 -31 25 -31
2 0 -5 16 -17 35 -23 38 -21 69 5 59 11 -4 14 -2 9 9 -9 24 15 31 38 11 20
-19 20 -19 2 12 -17 30 -17 32 5 62 28 40 34 40 64 0 38 -51 38 -61 1 -88 -18
-14 -34 -31 -34 -38 0 -8 -16 -30 -35 -49 -41 -41 -42 -49 -14 -83 15 -18 19
-20 15 -7 -22 69 -9 100 25 59 9 -12 20 -22 24 -22 3 0 -3 12 -14 26 -29 37
-9 66 20 31 21 -26 25 -11 4 17 -12 16 -12 22 2 43 12 18 18 21 24 11 7 -10 9
-9 9 4 0 24 21 34 32 14 13 -22 28 -11 29 22 0 24 1 25 9 7 5 -12 9 -14 9 -6
1 8 -6 22 -15 32 -17 19 -11 39 11 39 9 0 12 6 8 16 -7 20 34 64 54 57 13 -5
13 -2 4 15 -11 21 2 42 14 22 3 -5 12 -10 18 -10 8 0 8 3 2 8 -14 9 -13 28 1
42 8 8 16 7 29 -6 16 -17 18 -16 35 6 17 22 17 24 -1 44 -11 11 -19 23 -19 27
0 12 27 29 35 21 5 -4 5 1 2 11 -9 24 2 44 14 26 6 -10 8 -6 7 11 -2 14 2 24
7 23 6 -1 12 8 12 19 1 11 11 30 21 42 10 11 22 30 26 41 11 31 -6 10 -67 -85
-128 -196 -147 -218 -164 -194 -7 9 -15 15 -18 12 -3 -3 1 -13 10 -22 15 -15
15 -18 -2 -46 -9 -16 -21 -30 -25 -30 -4 0 -8 -7 -8 -15 0 -22 -60 -83 -67
-67 -3 7 -16 26 -29 42 -25 29 -25 29 -2 64 27 42 29 42 53 16 10 -11 22 -20
26 -20 4 0 -3 11 -17 25 -14 14 -23 29 -20 33 3 5 -1 9 -9 9 -8 0 -15 -6 -15
-13 0 -7 -12 -26 -26 -44 -26 -31 -26 -31 -56 9 -24 33 -27 44 -18 61 6 11 16
17 22 14 7 -4 8 -3 4 5 -15 23 27 25 46 2 10 -13 18 -19 18 -14 0 6 -9 18 -20
28 -11 10 -20 22 -20 28 0 16 47 66 55 59 5 -4 5 -2 2 4 -3 6 3 21 14 33 11
12 19 26 17 31 -3 9 -108 -114 -108 -126 0 -10 -82 -117 -100 -131 -20 -16
-84 55 -67 75 6 7 19 11 29 8 15 -3 17 -2 8 9 -20 24 -1 38 27 20 24 -16 24
-16 7 9 -16 26 -5 64 16 51 4 -3 7 3 6 13 0 10 6 17 16 16 10 -1 14 4 11 12
-7 18 37 74 53 67 10 -3 12 0 8 10 -3 8 6 27 20 42 37 40 32 50 -6 13 -30 -29
-32 -30 -45 -12 -16 22 -17 11 -1 -15 17 -28 -60 -119 -80 -93 -12 16 -14 16
-23 0 -13 -24 -31 -23 -52 2 -16 19 -16 21 3 40 27 27 26 38 -1 14 -18 -16
-22 -17 -32 -4 -7 8 -21 22 -32 30 -11 8 -8 1 8 -16 34 -38 34 -36 -8 -92 -33
-42 -34 -47 -18 -56 10 -5 26 -19 36 -30 21 -23 13 -5 -14 34 -16 24 -16 26 7
53 28 33 53 26 78 -24 15 -29 14 -33 -5 -60 -11 -16 -25 -29 -30 -29 -5 0 -9
-8 -9 -18 0 -9 -16 -30 -35 -46 -19 -16 -35 -35 -35 -41 0 -6 -13 -23 -28 -38
-28 -27 -28 -27 -60 14 -25 34 -29 45 -21 61 10 19 11 19 35 -3 14 -13 23 -31
21 -41 -3 -11 0 -15 9 -11 14 5 20 33 7 33 -5 0 -17 13 -28 30 -20 29 -20 29
-43 7 -19 -18 -25 -19 -32 -7 -6 10 -1 21 15 36 24 22 24 22 1 47 -13 14 -26
32 -29 39 -3 9 -11 5 -25 -12 -23 -28 -18 -31 -72 41 -19 26 -19 26 0 44 11
10 22 16 23 14 38 -50 47 -59 47 -48 0 8 -12 27 -26 43 -25 28 -25 28 -48 7
-22 -21 -22 -21 -71 55 -56 86 -77 107 -44 43z m16 -101 c39 -44 48 -70 27
-85 -13 -9 -21 -10 -28 -2 -8 7 -6 13 7 20 9 6 17 15 17 21 0 9 -3 9 -12 0
-29 -29 -84 22 -58 53 17 20 23 19 47 -7z m517 -27 c3 -4 -1 -17 -9 -27 -13
-16 -16 -17 -24 -4 -7 9 -6 19 1 27 12 15 25 17 32 4z m-439 -99 c-8 -8 -25
10 -25 26 0 13 2 13 14 -4 8 -10 13 -21 11 -22z m-44 -5 c-10 -9 -11 -8 -5 6
3 10 9 15 12 12 3 -3 0 -11 -7 -18z m186 -3 c11 -18 11 -23 -6 -38 -17 -16
-19 -15 -35 9 -14 21 -15 29 -5 41 15 18 28 14 46 -12z m687 -6 c-5 -7 -1 -9
9 -5 19 7 23 -8 6 -18 -13 -9 -19 -3 -24 24 -2 12 0 19 6 16 5 -4 6 -11 3 -17z
m-315 -97 c31 -39 31 -39 9 -75 -28 -43 -29 -43 -50 -8 -10 15 -23 34 -29 43
-10 13 -7 22 11 47 29 39 22 40 59 -7z m140 -150 c-15 -5 -22 6 -14 19 6 9 10
9 16 -1 5 -8 4 -15 -2 -18z m-650 -97 c31 -39 35 -63 16 -84 -17 -19 -19 -18
-55 23 -38 42 -38 42 -17 65 26 28 31 28 56 -4z m65 -99 c13 -20 14 -30 5 -48
-9 -18 -9 -20 2 -9 7 6 17 12 21 12 14 0 8 -27 -10 -43 -17 -15 -19 -15 -36 6
-11 12 -26 30 -34 40 -14 16 -13 20 8 42 28 30 24 30 44 0z m-81 -95 c5 -21
-7 -28 -18 -10 -4 7 -14 6 -28 -1 -21 -11 -21 -11 2 14 26 29 36 28 44 -3z
m152 -10 c18 -20 18 -21 -2 -42 -22 -21 -43 -18 -43 8 0 8 -4 14 -10 14 -5 0
-2 9 7 20 22 25 25 25 48 0z m-39 -248 c-2 -2 -7 5 -10 16 -4 11 -13 23 -21
26 -8 3 -15 14 -15 24 0 38 14 31 32 -15 9 -26 16 -49 14 -51z m-129 11 c-4
-3 -10 -3 -14 0 -3 4 0 7 7 7 7 0 10 -3 7 -7z m253 -238 c0 -16 -6 -25 -15
-25 -8 0 -15 -6 -15 -12 0 -8 -5 -6 -11 4 -7 12 -6 23 3 38 18 28 38 25 38 -5z
m-70 -15 c0 -5 -2 -10 -4 -10 -3 0 -8 5 -11 10 -3 6 -1 10 4 10 6 0 11 -4 11
-10z m70 -33 c0 -7 -6 -21 -13 -31 -13 -17 -14 -18 -20 -2 -4 11 -3 15 4 11 6
-4 13 2 16 14 6 24 13 28 13 8z m-260 -31 c0 -3 -5 -8 -12 -12 -7 -4 -8 -3 -4
4 7 12 16 16 16 8z m117 -43 c-4 -3 -7 0 -7 7 0 7 3 10 7 7 3 -4 3 -10 0 -14z
m-120 -15 c-3 -8 -6 -5 -6 6 -1 11 2 17 5 13 3 -3 4 -12 1 -19z m280 -5 c-4
-3 -7 0 -7 7 0 7 3 10 7 7 3 -4 3 -10 0 -14z m-107 -34 c0 -6 -4 -7 -10 -4 -5
3 -10 11 -10 16 0 6 5 7 10 4 6 -3 10 -11 10 -16z m-216 -54 c-7 -18 -8 -18
-15 1 -14 36 -11 50 6 33 10 -10 13 -22 9 -34z m232 -110 c-7 -11 -22 -21 -32
-23 -11 -2 -15 0 -9 5 6 4 16 19 23 32 12 21 12 23 -3 18 -9 -4 -13 -3 -10 2
3 5 1 12 -5 16 -5 3 -10 11 -10 16 0 6 13 -2 30 -17 26 -25 28 -31 16 -49z
m-43 15 c3 -11 2 -18 -3 -15 -4 3 -10 14 -13 25 -3 11 -2 18 3 15 4 -3 10 -14
13 -25z m-477 -46 c42 -46 42 -49 -3 -91 -36 -35 -36 -35 -77 6 -40 41 -40 41
-1 81 47 48 39 48 81 4z m558 3 c-9 -31 -14 -34 -24 -17 -14 22 -12 30 5 24
11 -5 13 -2 8 12 -4 12 -3 15 6 10 7 -5 9 -16 5 -29z m-370 -72 c-23 -36 -29
-24 -8 17 9 18 19 28 21 21 2 -6 -3 -23 -13 -38z m37 -18 c-8 -8 -11 -7 -11 4
0 20 13 34 18 19 3 -7 -1 -17 -7 -23z m304 23 c3 -5 4 -10 1 -10 -3 0 -8 5
-11 10 -3 6 -4 10 -1 10 3 0 8 -4 11 -10z m-335 -55 c0 -12 -19 -12 -23 0 -4
9 -1 12 9 8 7 -3 14 -7 14 -8z m17 -7 c-3 -8 -6 -5 -6 6 -1 11 2 17 5 13 3 -3
4 -12 1 -19z m-30 -25 c-4 -3 -10 -3 -14 0 -3 4 0 7 7 7 7 0 10 -3 7 -7z m408
-3 c3 -5 4 -10 1 -10 -3 0 -8 5 -11 10 -3 6 -4 10 -1 10 3 0 8 -4 11 -10z
m-594 -42 c16 -18 29 -38 29 -44 0 -6 10 -19 21 -30 18 -16 66 -74 117 -144
11 -16 8 -23 -24 -54 -20 -20 -35 -39 -32 -41 3 -3 20 11 37 31 33 36 33 36
67 3 42 -41 42 -45 -2 -90 -41 -42 -31 -50 -176 134 -74 93 -76 98 -52 117 8
8 20 23 25 34 7 14 0 10 -19 -10 -30 -32 -30 -32 -66 5 -44 45 -43 40 -3 84
40 44 41 44 78 5z m176 26 c-3 -3 -12 -4 -19 -1 -8 3 -5 6 6 6 11 1 17 -2 13
-5z m475 -271 c35 -34 35 -62 0 -96 -28 -27 -28 -27 -60 6 -39 40 -39 47 -6
86 31 38 31 38 66 4z"/>
<path d="M864 2368 c-4 -7 -3 -8 4 -4 7 4 12 9 12 12 0 8 -9 4 -16 -8z"/>
<path d="M1444 2108 c-4 -7 -3 -8 4 -4 12 7 16 16 8 16 -3 0 -8 -5 -12 -12z"/>
<path d="M645 490 c-16 -16 -24 -30 -18 -30 7 0 21 14 33 30 12 17 20 30 18
30 -3 0 -17 -13 -33 -30z"/>
<path d="M3093 2543 c4 -3 10 -3 14 0 3 4 0 7 -7 7 -7 0 -10 -3 -7 -7z"/>
<path d="M3127 2539 c7 -7 15 -10 18 -7 3 3 -2 9 -12 12 -14 6 -15 5 -6 -5z"/>
<path d="M571 2521 c8 -10 34 -44 59 -76 76 -98 98 -130 94 -137 -3 -4 10 -23
27 -43 32 -36 32 -36 55 -14 13 13 24 18 24 13 0 -5 5 -1 11 9 8 14 4 26 -22
58 -32 40 -32 40 -55 18 -17 -16 -27 -20 -35 -12 -8 8 -2 16 20 29 39 23 39
38 -3 84 -34 38 -34 38 -60 12 -25 -26 -25 -26 -66 18 -22 25 -40 48 -40 53 0
4 -5 7 -11 7 -8 0 -7 -6 2 -19z m177 -94 c16 -28 16 -29 -7 -48 -24 -20 -24
-20 -47 8 -28 34 -30 49 -6 62 25 15 41 9 60 -22z m49 -104 c-4 -3 -7 0 -7 7
0 7 3 10 7 7 3 -4 3 -10 0 -14z m15 -45 c-8 -8 -9 -4 -5 13 4 13 8 18 11 10 2
-7 -1 -18 -6 -23z m-37 -4 c9 -15 12 -23 6 -20 -11 7 -35 46 -28 46 3 0 12
-12 22 -26z"/>
<path d="M680 2522 c6 -13 14 -21 18 -18 3 4 -2 14 -12 24 -18 16 -18 16 -6
-6z"/>
<path d="M800 2530 c0 -7 3 -10 7 -7 3 4 3 10 0 14 -4 3 -7 0 -7 -7z"/>
<path d="M981 2535 c26 -68 75 -136 62 -84 -7 27 23 36 47 14 11 -10 17 -22
13 -28 -4 -6 -1 -7 6 -2 9 5 6 15 -13 34 -15 15 -23 30 -19 34 14 15 -12 6
-29 -10 -10 -9 -20 -14 -21 -12 -29 39 -49 62 -46 54z"/>
<path d="M2910 2524 c41 -7 100 -19 130 -25 165 -33 219 -41 200 -30 -21 13
-335 71 -374 70 -17 0 2 -7 44 -15z"/>
<path d="M930 2520 c0 -5 5 -10 11 -10 5 0 7 5 4 10 -3 6 -8 10 -11 10 -2 0
-4 -4 -4 -10z"/>
<path d="M1118 2495 c39 -48 40 -64 4 -98 -27 -26 -28 -26 -40 -6 -8 12 -16
18 -19 15 -3 -3 0 -13 8 -22 7 -9 18 -24 24 -34 13 -23 78 -117 104 -150 11
-14 22 -22 26 -18 3 3 -2 14 -13 24 -10 11 -29 36 -42 57 -12 22 -33 50 -46
62 -13 13 -24 28 -24 33 0 10 29 26 42 24 4 -1 5 5 2 13 -9 23 25 30 43 9 12
-15 11 -13 -2 9 -23 40 -3 67 29 40 20 -17 20 -17 6 0 -11 16 -12 22 -1 40 11
18 8 16 -16 -5 -31 -30 -53 -36 -53 -15 0 7 -15 24 -32 37 -33 24 -33 24 0
-15z"/>
<path d="M1166 2513 c-6 -14 -5 -15 5 -6 7 7 10 15 7 18 -3 3 -9 -2 -12 -12z"/>
<path d="M1637 2502 c-31 -32 -34 -47 -11 -56 14 -5 15 -4 5 7 -9 11 -8 17 4
27 16 13 39 50 32 50 -2 0 -15 -13 -30 -28z"/>
<path d="M2102 2518 c-7 -7 -12 -17 -12 -22 0 -6 -9 -22 -20 -36 -11 -14 -20
-29 -20 -34 0 -12 34 33 54 72 18 34 17 39 -2 20z"/>
<path d="M1360 2505 c-10 -12 -6 -20 19 -46 17 -17 31 -26 31 -21 0 5 -9 17
-20 27 -13 11 -18 25 -14 37 7 22 1 23 -16 3z"/>
<path d="M1716 2497 c-18 -18 -18 -21 -3 -32 23 -16 21 -27 -7 -57 -28 -31
-40 -59 -23 -52 7 2 19 -8 28 -22 17 -27 17 -27 34 0 17 26 17 27 -5 51 -22
24 -22 24 -2 53 12 16 28 35 37 42 8 7 15 19 15 27 0 8 -11 1 -26 -17 -18 -21
-30 -28 -37 -21 -7 7 -6 15 3 26 19 23 8 25 -14 2z m20 -132 c11 -29 -2 -37
-19 -11 -15 23 -16 26 -2 26 9 0 18 -7 21 -15z"/>
<path d="M1841 2489 c-13 -17 -21 -32 -19 -35 3 -2 15 10 27 27 13 17 21 32
19 35 -3 2 -15 -10 -27 -27z"/>
<path d="M820 2502 c0 -12 19 -26 26 -19 2 2 -2 10 -11 17 -9 8 -15 8 -15 2z"/>
<path d="M1300 2500 c0 -7 3 -10 7 -7 3 4 3 10 0 14 -4 3 -7 0 -7 -7z"/>
<path d="M1421 2493 c7 -12 15 -20 18 -17 3 2 -3 12 -13 22 -17 16 -18 16 -5
-5z"/>
<path d="M1580 2501 c0 -6 5 -13 10 -16 6 -3 10 1 10 9 0 9 -4 16 -10 16 -5 0
-10 -4 -10 -9z"/>
<path d="M1959 2478 c-17 -24 -18 -29 -6 -19 18 14 42 51 33 51 -3 0 -15 -15
-27 -32z"/>
<path d="M2143 2498 c-21 -27 -22 -36 -8 -41 9 -4 12 -1 8 9 -3 8 0 21 7 29 7
8 10 15 7 15 -2 0 -9 -6 -14 -12z"/>
<path d="M2200 2480 c-6 -11 -8 -20 -6 -20 3 0 10 9 16 20 6 11 8 20 6 20 -3
0 -10 -9 -16 -20z"/>
<path d="M970 2472 c6 -13 14 -21 18 -18 3 4 -2 14 -12 24 -18 16 -18 16 -6
-6z"/>
<path d="M1540 2480 c0 -5 5 -10 11 -10 5 0 7 -4 4 -10 -3 -5 -2 -10 4 -10 19
0 19 16 0 28 -11 7 -19 8 -19 2z"/>
<path d="M2010 2480 c0 -7 3 -10 7 -7 3 4 3 10 0 14 -4 3 -7 0 -7 -7z"/>
<path d="M1664 2462 c19 -22 19 -23 0 -37 -10 -8 -14 -15 -8 -15 6 0 18 8 27
18 14 16 13 19 -11 36 -27 20 -27 20 -8 -2z"/>
<path d="M2070 2383 c-23 -38 -51 -81 -63 -97 -16 -23 -17 -32 -8 -45 6 -9 16
-28 22 -43 6 -16 15 -25 20 -22 5 3 7 9 4 14 -3 5 0 18 7 29 10 17 9 22 -12
39 -27 22 -19 46 12 36 17 -5 18 -3 9 15 -8 14 -8 21 -1 21 5 0 10 9 10 19 0
11 4 22 9 26 12 7 43 67 38 72 -2 2 -23 -27 -47 -64z m-33 -160 c-4 -3 -14 2
-22 13 -22 29 -18 37 7 14 12 -11 18 -23 15 -27z"/>
<path d="M2149 2403 c-13 -21 -27 -39 -31 -41 -4 -2 -8 -8 -8 -14 0 -5 -11
-24 -25 -42 -26 -34 -30 -46 -17 -46 4 0 16 15 26 33 10 17 34 56 53 85 19 29
33 56 30 58 -3 3 -15 -12 -28 -33z"/>
<path d="M2266 2394 c-32 -50 -36 -53 -29 -21 4 18 3 19 -6 7 -6 -8 -11 -23
-11 -32 0 -9 -6 -29 -12 -45 -13 -27 -13 -27 -19 7 -4 26 1 46 19 78 13 23 22
42 19 42 -6 0 -87 -117 -87 -125 0 -3 -8 -18 -19 -33 -10 -15 -40 -60 -67
-100 -27 -41 -59 -88 -70 -106 -12 -17 -29 -37 -38 -45 -9 -7 -16 -19 -16 -26
0 -6 -9 -20 -21 -31 -12 -10 -30 -36 -40 -57 -11 -20 -28 -43 -39 -49 -22 -14
-26 -33 -8 -44 7 -5 8 -3 3 5 -4 8 3 23 18 39 13 15 32 39 41 54 10 15 23 26
29 24 7 -1 9 -1 5 1 -5 3 -3 14 3 25 6 11 13 17 16 14 4 -3 13 4 22 17 9 12
14 22 12 22 -3 0 1 10 8 23 7 12 16 20 20 17 5 -3 11 2 15 10 3 8 13 15 22 15
11 0 14 -5 9 -17 -4 -13 -3 -15 5 -7 8 8 8 19 0 38 -18 47 -7 62 23 31 13 -12
17 -12 31 4 20 22 20 31 0 31 -8 0 -13 4 -10 9 4 5 2 11 -2 13 -5 1 0 17 11
33 10 17 16 21 13 11 -6 -18 7 -35 26 -36 13 0 163 238 156 246 -2 1 -16 -17
-32 -42z m-88 -136 c-10 -20 -28 -24 -28 -7 0 6 -7 8 -16 5 -14 -5 -15 -4 -4
9 7 8 19 15 27 15 8 0 13 8 12 18 -3 32 3 37 10 7 4 -16 4 -38 -1 -47z m-28
-42 c0 -3 -4 -8 -10 -11 -5 -3 -10 -1 -10 4 0 6 5 11 10 11 6 0 10 -2 10 -4z
m-78 -58 c-7 -7 -12 -8 -12 -2 0 6 3 14 7 17 3 4 9 5 12 2 2 -3 -1 -11 -7 -17z
m28 -18 c0 -5 -4 -10 -10 -10 -5 0 -10 5 -10 10 0 6 5 10 10 10 6 0 10 -4 10
-10z m-60 -34 c0 -3 -5 -8 -12 -12 -7 -4 -8 -3 -4 4 7 12 16 16 16 8z m-70
-90 c0 -3 -5 -8 -12 -12 -7 -4 -8 -3 -4 4 7 12 16 16 16 8z"/>
<path d="M1240 2420 c0 -5 5 -10 11 -10 5 0 7 5 4 10 -3 6 -8 10 -11 10 -2 0
-4 -4 -4 -10z"/>
<path d="M1794 2418 c-4 -7 -3 -8 4 -4 12 7 16 16 8 16 -3 0 -8 -5 -12 -12z"/>
<path d="M1954 2395 c-10 -19 -22 -35 -26 -35 -3 0 -10 -10 -14 -22 -3 -12
-27 -49 -53 -83 -25 -33 -50 -68 -56 -77 -31 -51 -86 -126 -99 -137 -9 -8 -16
-19 -16 -26 0 -6 -9 -20 -21 -31 -37 -33 -42 -51 -19 -74 14 -14 20 -16 20 -6
0 8 -7 17 -16 20 -8 3 -12 10 -9 16 4 6 11 8 16 4 5 -3 9 -2 8 3 -3 20 2 27
12 13 8 -12 9 -10 4 8 -5 18 -2 22 15 22 16 0 20 5 16 18 -3 9 5 29 18 46 24
28 24 28 44 8 21 -21 21 -21 36 3 21 32 20 42 -1 17 -17 -20 -19 -20 -36 -2
-14 13 -15 20 -6 26 8 4 10 3 5 -4 -5 -8 -2 -10 8 -6 9 3 16 10 16 16 0 5 -4
6 -10 3 -16 -10 -12 7 7 27 15 17 17 17 35 1 18 -16 20 -16 40 5 22 22 22 22
0 45 -22 24 -22 24 7 63 15 22 36 53 44 70 9 16 16 23 17 16 0 -7 5 -10 11 -6
8 5 8 8 0 13 -7 5 -3 19 14 41 28 38 29 40 17 40 -5 0 -17 -16 -28 -35z m-84
-231 c0 -7 -7 -14 -15 -18 -9 -3 -15 0 -15 9 0 8 -5 15 -10 15 -7 0 -7 7 0 21
11 20 12 20 25 2 8 -10 15 -23 15 -29z"/>
<path d="M1902 2399 c-19 -30 -8 -34 12 -4 9 14 13 25 9 25 -5 0 -14 -9 -21
-21z"/>
<path d="M2019 2389 c-8 -16 -13 -18 -19 -9 -5 8 -8 3 -7 -14 2 -27 2 -27 25
-1 12 14 22 30 22 36 0 15 -9 10 -21 -12z"/>
<path d="M1610 2396 c0 -2 8 -10 18 -17 15 -13 16 -12 3 4 -13 16 -21 21 -21
13z"/>
<path d="M2290 2366 c0 -8 -19 -44 -42 -79 -24 -36 -61 -94 -83 -129 -22 -34
-49 -77 -60 -94 -11 -17 -40 -58 -65 -90 -40 -53 -70 -100 -70 -110 0 -2 9 5
20 16 11 11 20 23 20 26 0 3 9 19 21 35 21 30 53 22 41 -11 -3 -8 7 -1 21 15
32 36 33 41 6 55 -20 11 -20 13 -3 31 9 10 21 16 27 12 6 -4 8 0 4 10 -3 9 -2
19 3 22 6 4 10 0 10 -7 0 -9 3 -9 10 2 8 12 10 10 10 -8 0 -13 -4 -20 -10 -17
-5 3 -10 -2 -10 -11 0 -16 1 -16 20 1 11 10 20 22 20 26 0 5 10 20 23 35 12
14 26 35 30 47 7 19 7 20 -10 5 -17 -16 -18 -15 -17 15 2 51 3 51 23 28 19
-22 19 -22 44 11 25 33 45 178 25 178 -4 0 -8 -6 -8 -14z m-13 -73 c-4 -3 -7
0 -7 7 0 7 3 10 7 7 3 -4 3 -10 0 -14z m-28 -53 c-10 -7 -10 -12 1 -27 13 -17
13 -17 -4 -2 -15 14 -16 20 -5 40 8 17 14 20 17 10 2 -7 -1 -17 -9 -21z m34 2
c-3 -12 -9 -22 -14 -22 -12 0 -11 7 3 30 15 24 19 21 11 -8z m-90 -77 c-3 -9
-8 -14 -10 -11 -3 3 -2 9 2 15 9 16 15 13 8 -4z m-13 -66 c0 -21 -1 -22 -24
-13 -12 5 -13 10 -5 25 12 23 29 16 29 -12z m-85 -110 c12 -18 -3 -22 -20 -5
-14 14 -14 16 -1 16 8 0 18 -5 21 -11z"/>
<path d="M1295 2347 c10 -15 20 -25 23 -22 3 3 -5 16 -17 28 -23 22 -23 22 -6
-6z"/>
<path d="M1021 2344 c0 -11 3 -14 6 -6 3 7 2 16 -1 19 -3 4 -6 -2 -5 -13z"/>
<path d="M1580 2353 c0 -13 27 -49 33 -43 3 3 -3 16 -14 29 -10 13 -19 19 -19
14z"/>
<path d="M1860 2339 c0 -6 -7 -17 -15 -25 -8 -9 -15 -21 -15 -27 0 -7 11 2 25
18 26 33 31 45 15 45 -5 0 -10 -5 -10 -11z"/>
<path d="M1973 2318 c-19 -25 -24 -38 -14 -38 11 0 35 39 28 46 -2 3 -9 -1
-14 -8z"/>
<path d="M1200 2294 c-11 -12 -10 -13 2 -9 10 4 23 -5 36 -27 12 -18 22 -27
22 -19 0 7 -11 26 -24 42 -21 24 -26 26 -36 13z"/>
<path d="M1294 2298 c-4 -7 -3 -8 4 -4 12 7 16 16 8 16 -3 0 -8 -5 -12 -12z"/>
<path d="M1623 2293 c-3 -10 -13 -27 -22 -37 -16 -19 -16 -19 11 0 23 16 39
54 23 54 -3 0 -8 -8 -12 -17z"/>
<path d="M1689 2298 c7 -10 11 -25 7 -33 -3 -9 -2 -13 4 -10 15 10 12 31 -7
46 -16 13 -17 12 -4 -3z"/>
<path d="M535 2290 c-3 -5 -2 -10 4 -10 5 0 13 5 16 10 3 6 2 10 -4 10 -5 0
-13 -4 -16 -10z"/>
<path d="M1560 2280 c0 -7 3 -10 7 -7 3 4 3 10 0 14 -4 3 -7 0 -7 -7z"/>
<path d="M671 2250 c-19 -16 -32 -32 -29 -36 4 -3 19 6 35 20 19 18 34 24 47
20 19 -6 19 -5 4 10 -20 20 -16 21 -57 -14z"/>
<path d="M1920 2271 c0 -5 6 -11 13 -14 9 -3 8 -8 -3 -23 -14 -18 -14 -18 3
-5 21 17 22 37 2 45 -8 3 -15 1 -15 -3z"/>
<path d="M613 2263 c4 -3 10 -3 14 0 3 4 0 7 -7 7 -7 0 -10 -3 -7 -7z"/>
<path d="M828 2240 c-7 -11 -19 -20 -27 -20 -8 0 -12 -3 -8 -6 3 -4 14 -3 24
2 22 10 46 12 53 4 34 -36 48 -38 20 -2 -38 48 -45 50 -62 22z"/>
<path d="M1380 2230 c0 -7 3 -10 7 -7 3 4 3 10 0 14 -4 3 -7 0 -7 -7z"/>
<path d="M1490 2236 c0 -2 8 -10 18 -17 15 -13 16 -12 3 4 -13 16 -21 21 -21
13z"/>
<path d="M1880 2236 c0 -2 7 -7 16 -10 8 -3 12 -2 9 4 -6 10 -25 14 -25 6z"/>
<path d="M1974 2222 c-6 -4 -34 -38 -63 -77 -28 -38 -60 -82 -71 -96 -44 -57
-70 -95 -89 -130 -11 -19 -27 -41 -35 -48 -17 -15 -21 -47 -7 -55 5 -4 7 2 4
12 -4 18 37 72 57 72 6 0 15 -10 20 -22 6 -15 9 -17 9 -7 1 9 10 24 21 34 20
18 20 18 -1 41 -20 22 -20 22 16 73 28 39 43 51 59 49 13 -2 20 2 18 10 -1 8
2 11 8 7 12 -8 13 5 0 25 -12 20 9 47 22 28 6 -9 8 -5 6 12 -2 17 4 28 22 37
14 7 19 13 11 13 -11 0 -11 3 -1 15 14 16 11 19 -6 7z m-154 -300 c0 -5 -7
-15 -15 -22 -13 -10 -15 -9 -15 9 0 13 -4 19 -11 16 -6 -4 -5 2 2 13 13 20 39
9 39 -16z"/>
<path d="M754 2208 c-4 -7 -3 -8 4 -4 7 4 12 9 12 12 0 8 -9 4 -16 -8z"/>
<path d="M1630 2196 c0 -9 5 -16 10 -16 6 0 10 4 10 9 0 6 -4 13 -10 16 -5 3
-10 -1 -10 -9z"/>
<path d="M2281 2170 c-6 -21 -22 -52 -34 -67 -12 -15 -35 -46 -49 -68 -15 -22
-41 -58 -57 -80 -17 -22 -34 -46 -37 -54 -10 -19 -69 -106 -94 -138 -22 -28
-25 -43 -9 -43 5 0 8 4 5 9 -4 5 -3 11 2 13 4 1 18 18 31 36 12 18 27 29 33
25 8 -4 9 0 5 11 -9 22 30 76 49 69 8 -3 14 -1 14 5 0 6 -5 12 -12 14 -9 3 -9
6 0 12 7 4 12 2 12 -3 0 -6 5 -11 12 -11 9 0 9 3 0 12 -12 12 1 48 17 48 15 0
5 -49 -13 -69 -9 -9 -16 -24 -16 -32 1 -18 39 31 40 50 0 7 6 11 15 7 8 -3 14
-2 13 2 -1 4 3 17 10 29 10 19 10 27 -4 48 -15 23 -13 30 10 26 16 -3 35 21
29 37 -4 14 -3 15 6 2 7 -11 6 -19 -6 -32 -9 -10 -14 -21 -11 -23 3 -3 17 8
32 25 23 28 26 40 26 106 0 85 -2 89 -19 34z m-1 -80 c0 -26 -2 -29 -14 -18
-10 9 -11 18 -5 31 14 25 19 21 19 -13z m-43 -42 c-3 -8 -6 -5 -6 6 -1 11 2
17 5 13 3 -3 4 -12 1 -19z m-27 -82 c0 -3 -5 -8 -12 -12 -7 -4 -8 -3 -4 4 7
12 16 16 16 8z"/>
<path d="M1745 2170 c-10 -11 -16 -22 -13 -25 3 -3 13 6 22 20 20 30 16 32 -9
5z"/>
<path d="M540 2174 c0 -12 48 -84 96 -144 81 -100 86 -106 74 -82 -6 12 -8 28
-4 34 5 7 2 9 -7 6 -8 -3 -22 5 -32 18 -10 13 -14 24 -9 24 6 0 -5 16 -24 37
-18 20 -31 40 -28 45 3 4 0 8 -5 8 -6 0 -11 5 -11 12 0 9 3 9 12 0 7 -7 19
-12 28 -11 9 0 10 2 3 5 -7 3 -9 12 -6 19 7 21 52 -14 45 -35 -4 -12 -2 -13 8
-3 11 10 9 17 -12 36 -36 34 -52 38 -78 20 -21 -15 -24 -15 -36 2 -8 10 -14
14 -14 9z"/>
<path d="M680 2173 c0 -22 22 -26 38 -7 16 17 16 17 -1 4 -16 -12 -20 -12 -28
1 -5 9 -9 10 -9 2z"/>
<path d="M874 2168 c-4 -7 -3 -8 4 -4 12 7 16 16 8 16 -3 0 -8 -5 -12 -12z"/>
<path d="M1990 2166 c0 -8 -7 -22 -16 -30 -21 -22 -4 -20 25 3 13 10 21 23 17
30 -10 16 -26 14 -26 -3z"/>
<path d="M1560 2163 c0 -6 5 -15 10 -18 6 -3 10 -15 10 -26 0 -11 5 -17 10
-14 6 3 10 10 10 14 0 14 -39 57 -40 44z"/>
<path d="M627 2092 c10 -10 22 -15 27 -11 12 10 8 14 -22 24 -23 7 -24 7 -5
-13z"/>
<path d="M3078 2097 c-26 -9 -57 -45 -58 -65 0 -8 12 0 26 17 14 17 31 31 37
31 8 0 7 -4 -1 -12 -7 -7 -12 -17 -12 -22 1 -6 8 -2 18 9 16 20 52 40 52 30 0
-3 -16 -31 -36 -62 -35 -58 -35 -58 -2 -21 18 20 41 49 50 66 18 30 18 30 -17
34 -18 2 -44 0 -57 -5z"/>
<path d="M1926 2068 c-24 -33 -19 -45 5 -14 12 15 19 29 16 32 -3 3 -12 -5
-21 -18z"/>
<path d="M1506 2057 c18 -26 34 -35 34 -19 0 4 -13 16 -27 26 -27 20 -27 20
-7 -7z"/>
<path d="M2920 2018 c-37 -57 -46 -88 -18 -60 17 17 31 15 24 -4 -5 -14 -4
-15 9 -4 8 7 13 16 10 20 -3 5 -1 11 5 15 5 3 15 16 21 28 8 17 5 16 -16 -6
-40 -45 -50 -26 -10 20 37 43 41 53 25 53 -5 0 -28 -28 -50 -62z"/>
<path d="M2858 2063 c7 -3 16 -2 19 1 4 3 -2 6 -13 5 -11 0 -14 -3 -6 -6z"/>
<path d="M2745 2050 c-3 -6 1 -7 9 -4 18 7 21 14 7 14 -6 0 -13 -4 -16 -10z"/>
<path d="M2488 2041 c-31 -3 -63 -12 -69 -18 -20 -20 -2 -27 25 -10 18 12 26
13 29 4 4 -9 7 -9 18 1 7 6 16 12 20 12 11 0 -2 -38 -17 -51 -20 -16 -17 -24
7 -26 15 -1 19 2 15 14 -7 18 36 62 74 74 32 9 -13 9 -102 0z"/>
<path d="M2626 2033 c-6 -14 -5 -15 5 -6 7 7 10 15 7 18 -3 3 -9 -2 -12 -12z"/>
<path d="M2378 2023 c7 -3 16 -2 19 1 4 3 -2 6 -13 5 -11 0 -14 -3 -6 -6z"/>
<path d="M2271 1989 c-7 -17 -31 -56 -52 -87 -106 -154 -122 -182 -99 -182 6
0 10 -9 10 -19 0 -27 16 -35 25 -13 12 28 14 62 3 62 -5 0 -7 -9 -3 -19 3 -11
1 -22 -5 -26 -6 -4 -10 -3 -9 2 3 20 -2 34 -11 28 -17 -10 -11 3 12 30 25 28
38 32 38 10 0 -20 13 -19 33 3 21 23 21 36 1 57 -16 15 -16 18 0 33 16 16 17
16 10 -2 -5 -13 -4 -17 4 -12 7 4 12 2 12 -4 0 -6 5 -8 11 -4 8 4 8 9 1 13 -7
4 -8 12 -2 21 8 13 10 12 10 -2 0 -10 5 -18 11 -18 18 0 1 -50 -32 -98 -27
-37 -29 -44 -16 -57 9 -8 17 -20 20 -27 3 -10 10 -8 26 6 19 18 21 29 21 125
1 58 2 127 4 154 5 56 -5 67 -23 26z m5 -63 c2 -20 -1 -22 -11 -13 -9 8 -10
16 -3 25 13 16 13 16 14 -12z m-56 -115 c0 -5 -7 -14 -15 -21 -16 -13 -23 8
-8 23 9 10 23 9 23 -2z m40 -60 c-18 -26 -19 -31 -6 -31 18 0 21 -15 7 -25 -6
-3 -14 3 -20 13 -9 18 24 90 36 78 3 -3 -5 -19 -17 -35z"/>
<path d="M3041 1997 c-13 -21 -12 -21 5 -5 10 10 16 20 13 22 -3 3 -11 -5 -18
-17z"/>
<path d="M2450 1999 c0 -6 -11 -9 -24 -7 -25 3 -56 -17 -56 -36 0 -7 15 -11
38 -10 47 2 47 2 33 18 -10 11 -8 16 8 21 21 6 29 25 11 25 -5 0 -10 -5 -10
-11z m-25 -39 c3 -5 4 -10 1 -10 -3 0 -8 5 -11 10 -3 6 -4 10 -1 10 3 0 8 -4
11 -10z"/>
<path d="M733 1993 c4 -3 10 -3 14 0 3 4 0 7 -7 7 -7 0 -10 -3 -7 -7z"/>
<path d="M803 1992 c-7 -4 -11 -25 -9 -50 3 -46 16 -70 16 -31 0 18 2 21 9 9
6 -8 7 -18 5 -22 -3 -4 -1 -8 5 -8 21 0 22 22 2 39 -12 10 -21 29 -20 42 0 22
1 22 8 5 7 -19 8 -19 13 2 6 23 -6 29 -29 14z"/>
<path d="M863 1993 c4 -3 10 -3 14 0 3 4 0 7 -7 7 -7 0 -10 -3 -7 -7z"/>
<path d="M1980 1991 c0 -5 -3 -18 -7 -28 -6 -16 -5 -16 10 -4 19 15 23 41 7
41 -5 0 -10 -4 -10 -9z"/>
<path d="M1736 1982 c-2 -4 -1 -14 3 -21 6 -9 10 -7 14 8 5 20 -7 29 -17 13z"/>
<path d="M3160 1963 c-8 -15 -22 -37 -32 -48 -9 -11 -24 -38 -33 -60 -16 -43
-13 -40 40 45 27 43 34 48 29 26 -9 -36 11 -28 20 9 11 42 -7 62 -24 28z"/>
<path d="M747 1955 c-14 -20 -15 -25 -3 -32 7 -4 16 -17 19 -28 2 -11 5 4 6
33 1 60 2 59 -22 27z m10 -22 c-4 -3 -7 0 -7 7 0 7 3 10 7 7 3 -4 3 -10 0 -14z"/>
<path d="M844 1969 c-3 -6 -2 -15 3 -20 5 -5 9 -1 10 11 2 22 -2 25 -13 9z"/>
<path d="M875 1970 c-3 -5 -2 -10 4 -10 5 0 13 5 16 10 3 6 2 10 -4 10 -5 0
-13 -4 -16 -10z"/>
<path d="M1330 1971 c0 -6 5 -13 10 -16 6 -3 10 1 10 9 0 9 -4 16 -10 16 -5 0
-10 -4 -10 -9z"/>
<path d="M1847 1969 c7 -7 15 -10 18 -7 3 3 -2 9 -12 12 -14 6 -15 5 -6 -5z"/>
<path d="M2330 1960 c0 -7 3 -10 7 -7 3 4 3 10 0 14 -4 3 -7 0 -7 -7z"/>
<path d="M2966 1948 c-10 -37 -7 -117 4 -92 8 20 12 114 5 114 -1 0 -5 -10 -9
-22z"/>
<path d="M1460 1950 c0 -7 3 -10 7 -7 3 4 3 10 0 14 -4 3 -7 0 -7 -7z"/>
<path d="M1580 1950 c0 -7 3 -10 7 -7 3 4 3 10 0 14 -4 3 -7 0 -7 -7z"/>
<path d="M1701 1934 c0 -11 3 -14 6 -6 3 7 2 16 -1 19 -3 4 -6 -2 -5 -13z"/>
<path d="M2045 1913 c4 -15 0 -25 -12 -32 -10 -6 -13 -11 -7 -11 22 0 36 27
24 47 -10 16 -10 16 -5 -4z"/>
<path d="M260 1910 c8 -5 31 -10 50 -10 24 0 31 -3 21 -9 -11 -7 -11 -9 0 -13
11 -4 13 -41 11 -194 -2 -104 0 -185 4 -181 4 4 7 40 6 80 -1 72 -1 72 14 25
8 -27 16 -48 17 -48 2 0 3 31 3 70 -1 63 2 72 26 96 27 27 27 27 26 -60 -1
-83 -2 -88 -29 -111 -16 -13 -29 -29 -29 -35 0 -6 10 -2 22 9 22 21 43 19 35
-3 -3 -7 -1 -19 4 -27 9 -14 10 -9 13 56 2 37 21 20 20 -17 0 -21 3 -38 8 -38
4 0 8 12 8 28 0 21 2 24 10 12 16 -25 12 7 -6 41 -9 18 -21 29 -29 26 -9 -4
-14 5 -17 29 -5 41 9 40 32 -1 22 -40 44 -45 24 -6 -18 35 -9 84 14 79 24 -5
25 -26 3 -33 -26 -8 -27 -24 -2 -22 11 0 19 4 19 7 -2 19 5 21 22 5 30 -28 27
-69 -5 -63 -14 3 -25 2 -25 -3 0 -4 15 -9 33 -11 27 -3 32 -7 32 -30 -1 -15 2
-26 5 -26 3 1 13 -2 22 -6 10 -4 30 -3 45 2 18 7 21 11 11 11 -10 1 -18 5 -18
10 0 17 -32 42 -47 36 -12 -4 -14 0 -9 19 4 17 -3 35 -29 69 -19 25 -35 48
-35 51 0 3 -8 14 -17 25 -42 44 -73 84 -73 95 -1 28 -32 48 -97 62 -82 17
-115 18 -93 4z m105 -30 c3 -5 4 -10 1 -10 -3 0 -8 5 -11 10 -3 6 -4 10 -1 10
3 0 8 -4 11 -10z m59 -22 c26 -36 20 -80 -14 -113 -30 -29 -30 -29 -30 53 0
88 13 105 44 60z m-57 -60 c-3 -7 -5 -2 -5 12 0 14 2 19 5 13 2 -7 2 -19 0
-25z m113 -76 c0 -61 -17 -63 -20 -2 -3 56 -1 72 10 65 6 -3 10 -32 10 -63z
m35 8 c3 -5 2 -10 -4 -10 -5 0 -13 5 -16 10 -3 6 -2 10 4 10 5 0 13 -4 16 -10z
m122 -197 c-4 -3 -7 0 -7 7 0 7 3 10 7 7 3 -4 3 -10 0 -14z"/>
<path d="M2326 1893 c-6 -14 -5 -15 5 -6 7 7 10 15 7 18 -3 3 -9 -2 -12 -12z"/>
<path d="M1582 1877 c-26 -28 -27 -40 -5 -58 15 -13 16 -11 10 11 -4 17 0 31
15 47 12 13 17 23 11 23 -5 0 -19 -10 -31 -23z"/>
<path d="M1260 1875 c7 -9 15 -13 17 -11 7 7 -7 26 -19 26 -6 0 -6 -6 2 -15z"/>
<path d="M1390 1880 c0 -7 3 -10 7 -7 3 4 3 10 0 14 -4 3 -7 0 -7 -7z"/>
<path d="M1760 1840 c0 -7 3 -10 7 -7 3 4 3 10 0 14 -4 3 -7 0 -7 -7z"/>
<path d="M1943 1835 c-3 -9 -3 -18 -1 -21 3 -3 8 4 11 16 6 23 -1 27 -10 5z"/>
<path d="M1415 1820 c-3 -5 -1 -10 4 -10 6 0 11 5 11 10 0 6 -2 10 -4 10 -3 0
-8 -4 -11 -10z"/>
<path d="M2093 1804 c-6 -13 -8 -24 -4 -24 10 0 31 39 23 44 -4 2 -12 -7 -19
-20z"/>
<path d="M1316 1805 c4 -8 8 -15 10 -15 2 0 4 7 4 15 0 8 -4 15 -10 15 -5 0
-7 -7 -4 -15z"/>
<path d="M2960 1763 c0 -68 5 -66 14 5 4 33 3 52 -4 52 -6 0 -10 -24 -10 -57z"/>
<path d="M1180 1791 c0 -12 5 -21 10 -21 6 0 10 6 10 14 0 8 -4 18 -10 21 -5
3 -10 -3 -10 -14z"/>
<path d="M601 1775 c-28 -28 -23 -43 7 -24 18 11 24 10 41 -5 19 -17 19 -52 0
-40 -5 3 -9 0 -9 -5 0 -14 11 -13 32 3 16 12 15 16 -13 54 -17 23 -31 42 -32
41 -1 0 -13 -11 -26 -24z"/>
<path d="M1380 1785 c-12 -14 13 -75 31 -75 4 0 17 -21 29 -46 13 -25 29 -48
36 -51 8 -3 14 -14 14 -24 0 -16 8 -19 50 -19 54 0 55 3 15 54 -14 19 -15 19
-35 1 -16 -15 -23 -16 -33 -6 -9 10 -7 16 11 31 28 23 28 31 -4 61 -26 24 -26
24 -8 -7 15 -27 16 -34 5 -48 -19 -23 -44 -1 -36 32 4 16 2 21 -5 17 -12 -8
-60 39 -60 59 0 6 5 17 12 24 8 8 8 12 1 12 -6 0 -16 -7 -23 -15z m184 -191
c4 -10 -3 -14 -24 -14 -32 0 -37 9 -19 27 14 14 35 7 43 -13z"/>
<path d="M1772 1775 c-30 -38 -28 -50 4 -19 14 14 23 31 21 37 -1 5 -13 -2
-25 -18z"/>
<path d="M2880 1780 c0 -7 3 -10 7 -7 3 4 3 10 0 14 -4 3 -7 0 -7 -7z"/>
<path d="M1496 1767 c3 -10 9 -15 12 -12 3 3 0 11 -7 18 -10 9 -11 8 -5 -6z"/>
<path d="M3160 1759 c0 -6 -28 -9 -77 -8 -77 2 -77 2 -86 -30 -4 -18 -6 -40
-4 -49 2 -10 8 2 12 26 8 42 8 42 86 42 64 0 79 3 79 15 0 8 -2 15 -5 15 -3 0
-5 -5 -5 -11z"/>
<path d="M610 1740 c0 -7 3 -10 7 -7 3 4 3 10 0 14 -4 3 -7 0 -7 -7z"/>
<path d="M792 1690 c-1 -36 -5 -89 -8 -117 -5 -34 -3 -53 4 -53 13 0 18 69 11
160 -6 75 -6 75 -7 10z"/>
<path d="M854 1738 c-4 -7 -3 -8 4 -4 12 7 16 16 8 16 -3 0 -8 -5 -12 -12z"/>
<path d="M1286 1675 c-36 -42 -66 -82 -66 -89 0 -8 -10 -21 -22 -29 -13 -9
-17 -16 -10 -16 6 -1 21 8 31 18 16 16 22 17 30 7 16 -19 57 -8 68 17 8 17 5
25 -14 41 -17 16 -20 25 -13 36 9 13 15 9 40 -20 34 -41 44 -70 25 -70 -8 0
-17 -5 -21 -11 -9 -15 94 -3 113 13 17 14 16 18 -13 52 -25 28 -25 28 -48 6
-31 -28 -42 -5 -14 27 20 21 12 63 -12 63 -5 0 -7 7 -4 15 11 29 -5 15 -70
-60z m88 20 c2 -7 -4 -21 -15 -31 -18 -16 -21 -17 -36 -1 -16 15 -15 18 1 36
19 21 41 19 50 -4z m-79 -114 c-7 -7 -21 -11 -29 -8 -18 7 -22 27 -5 27 5 0 7
-4 4 -10 -8 -13 6 -13 25 0 13 8 11 11 -7 16 -24 6 -28 15 -16 28 4 4 15 -3
25 -16 14 -20 15 -25 3 -37z m134 28 c15 -25 2 -40 -34 -37 -17 1 -17 1 3 5
25 5 29 18 7 27 -8 3 -15 1 -15 -4 0 -6 -5 -10 -12 -10 -6 0 -3 9 7 20 23 25
27 25 44 -1z"/>
<path d="M2060 1740 c0 -7 3 -10 7 -7 3 4 3 10 0 14 -4 3 -7 0 -7 -7z"/>
<path d="M2546 1734 c-23 -23 -20 -30 4 -9 11 10 20 20 20 22 0 7 -9 2 -24
-13z"/>
<path d="M1178 1718 c-24 -24 -23 -30 8 -59 27 -24 27 -24 10 3 -14 21 -15 31
-6 48 15 28 10 32 -12 8z"/>
<path d="M1875 1730 c3 -5 8 -10 11 -10 3 0 2 5 -1 10 -3 6 -8 10 -11 10 -3 0
-2 -4 1 -10z"/>
<path d="M823 1668 c-1 -34 -4 -71 -7 -83 -4 -17 -1 -24 15 -28 16 -4 19 -2
14 14 -5 16 -1 19 24 19 43 0 47 16 14 56 -15 20 -33 45 -39 55 -18 31 -19 30
-21 -33z m72 -58 c3 -5 4 -10 1 -10 -3 0 -8 5 -11 10 -3 6 -4 10 -1 10 3 0 8
-4 11 -10z"/>
<path d="M1581 1696 c-21 -23 -21 -24 -4 -54 22 -39 24 -39 44 -4 14 25 14 30
-1 55 -17 27 -17 27 -39 3z m12 -11 c-3 -9 -8 -14 -10 -11 -3 3 -2 9 2 15 9
16 15 13 8 -4z m27 -26 c0 -6 -4 -7 -10 -4 -5 3 -10 1 -10 -6 0 -7 -2 -10 -5
-7 -9 8 6 38 16 32 5 -3 9 -10 9 -15z"/>
<path d="M2040 1709 c0 -5 -4 -7 -10 -4 -5 3 -10 -1 -10 -9 0 -22 13 -20 28 4
7 12 8 20 2 20 -5 0 -10 -5 -10 -11z"/>
<path d="M1827 1682 c-10 -10 -17 -23 -17 -29 0 -6 -16 -25 -35 -42 -36 -31
-36 -31 17 -29 45 1 47 2 15 5 -38 4 -38 4 -13 30 24 23 46 24 46 2 0 -32 31
-43 83 -29 63 16 107 60 73 73 -9 4 -12 0 -9 -13 6 -21 -58 -62 -65 -42 -2 8
-11 6 -27 -4 -14 -9 -26 -11 -29 -5 -8 12 3 41 15 41 5 0 9 5 9 12 0 6 -8 4
-19 -6 -26 -23 -52 4 -33 35 15 24 10 24 -11 1z"/>
<path d="M1940 1675 c-7 -9 -9 -22 -5 -32 7 -17 8 -16 13 2 2 11 9 26 14 33 7
8 7 12 0 12 -5 0 -15 -7 -22 -15z"/>
<path d="M2067 1683 c-10 -9 -9 -23 2 -23 5 0 11 7 15 15 5 15 -5 20 -17 8z"/>
<path d="M2177 1672 c-22 -24 -22 -49 1 -55 9 -3 -5 -5 -31 -6 -43 -1 -47 1
-38 17 14 25 -2 50 -22 34 -8 -7 -22 -10 -31 -6 -11 4 -16 1 -16 -13 0 -23 38
-29 47 -7 3 8 10 14 16 14 28 0 -32 -40 -67 -44 -21 -3 -42 -8 -45 -12 -3 -4
16 -4 43 0 27 3 79 6 115 6 57 0 68 3 80 21 20 34 -26 79 -52 51z m0 -39 c-4
-3 -7 0 -7 7 0 7 3 10 7 7 3 -4 3 -10 0 -14z m40 0 c-4 -3 -7 0 -7 7 0 7 3 10
7 7 3 -4 3 -10 0 -14z"/>
<path d="M1470 1670 c0 -7 3 -10 7 -7 3 4 3 10 0 14 -4 3 -7 0 -7 -7z"/>
<path d="M1680 1669 c0 -5 13 -24 30 -42 16 -18 30 -27 30 -20 0 6 -5 15 -10
18 -8 5 -7 12 2 23 11 13 11 15 -4 10 -10 -4 -19 -1 -22 8 -6 16 -26 19 -26 3z"/>
<path d="M2268 1643 c-2 -19 -8 -27 -18 -25 -12 3 -12 1 -3 -9 19 -19 40 -4
41 30 1 38 -15 41 -20 4z"/>
<path d="M1742 1644 c-7 -8 -8 -14 -3 -14 10 0 25 19 20 25 -2 1 -10 -3 -17
-11z"/>
<path d="M1642 1614 c-37 -26 -28 -44 23 -44 52 0 53 2 22 35 -21 23 -24 24
-45 9z m38 -25 c0 -5 -10 -9 -21 -9 -18 0 -19 2 -9 15 12 15 30 12 30 -6z"/>
<path d="M1120 1596 c0 -2 7 -7 16 -10 8 -3 12 -2 9 4 -6 10 -25 14 -25 6z"/>
<path d="M3006 1564 c-11 -29 -6 -44 14 -44 18 0 19 3 10 20 -12 22 -8 25 40
33 16 3 9 5 -16 6 -30 1 -44 -4 -48 -15z"/>
<path d="M3099 1563 c-13 -15 -12 -15 11 -3 34 17 36 20 18 20 -9 0 -22 -7
-29 -17z"/>
<path d="M1463 1563 c4 -3 10 -3 14 0 3 4 0 7 -7 7 -7 0 -10 -3 -7 -7z"/>
<path d="M3114 1539 c-19 -22 -19 -22 4 -8 12 8 22 17 22 21 0 12 -6 9 -26
-13z"/>
<path d="M810 1540 c0 -5 5 -10 10 -10 6 0 10 5 10 10 0 6 -4 10 -10 10 -5 0
-10 -4 -10 -10z"/>
<path d="M933 1543 c4 -3 10 -3 14 0 3 4 0 7 -7 7 -7 0 -10 -3 -7 -7z"/>
<path d="M1837 1513 c-5 -27 -2 -41 7 -32 11 10 17 59 8 59 -5 0 -12 -12 -15
-27z"/>
<path d="M1802 1505 c0 -16 2 -22 5 -12 2 9 2 23 0 30 -3 6 -5 -1 -5 -18z"/>
<path d="M3063 1523 c4 -3 10 -3 14 0 3 4 0 7 -7 7 -7 0 -10 -3 -7 -7z"/>
<path d="M743 1498 c-2 -5 14 -8 36 -8 23 0 41 3 41 8 0 4 -16 7 -36 7 -20 0
-38 -3 -41 -7z"/>
<path d="M480 1443 c0 -10 5 -25 10 -33 8 -12 10 -9 10 12 0 15 -4 30 -10 33
-5 3 -10 -2 -10 -12z"/>
<path d="M528 1414 c-3 -12 -2 -28 3 -35 13 -21 19 -6 10 26 -7 27 -8 28 -13
9z"/>
<path d="M2681 1414 c0 -11 3 -14 6 -6 3 7 2 16 -1 19 -3 4 -6 -2 -5 -13z"/>
<path d="M465 1401 c-3 -6 1 -21 9 -33 9 -12 16 -18 16 -13 0 5 7 0 15 -11 24
-32 17 -6 -9 32 -14 21 -27 31 -31 25z"/>
<path d="M2655 1367 c-17 -27 -37 -88 -31 -95 3 -2 17 22 31 53 28 59 28 85 0
42z"/>
<path d="M406 1354 c-17 -15 -25 -29 -20 -34 6 -6 21 5 37 25 33 41 24 45 -17
9z"/>
<path d="M2682 1329 c-9 -17 -29 -47 -45 -67 -27 -35 -35 -55 -41 -102 -1 -14
-6 -33 -10 -42 -4 -10 -6 -23 -4 -30 3 -7 13 5 23 27 10 22 26 49 35 60 41 47
99 173 84 179 -23 9 -24 9 -42 -25z m28 3 c0 -5 -7 -17 -15 -28 -14 -18 -14
-17 -4 9 12 27 19 34 19 19z m-49 -99 c-11 -21 -19 -29 -18 -18 4 25 27 68 34
62 2 -3 -5 -22 -16 -44z"/>
<path d="M1231 1333 c7 -12 15 -20 18 -17 3 2 -3 12 -13 22 -17 16 -18 16 -5
-5z"/>
<path d="M430 1328 c0 -8 6 -23 14 -33 13 -18 14 -18 9 8 -6 29 -23 48 -23 25z"/>
<path d="M582 1311 c13 -15 25 -27 26 -25 6 4 -32 53 -41 54 -5 0 2 -13 15
-29z"/>
<path d="M720 1333 c0 -5 7 -18 15 -29 13 -18 14 -18 8 4 -5 22 -23 41 -23 25z"/>
<path d="M2742 1283 c-22 -50 -50 -93 -124 -190 -15 -19 -30 -50 -34 -69 -3
-19 -11 -34 -18 -34 -6 -1 1 -7 15 -15 55 -30 46 -48 -21 -43 -33 2 -60 1 -60
-4 0 -4 17 -8 38 -9 79 -1 106 -13 99 -41 -4 -12 -1 -28 5 -35 6 -7 13 -30 15
-50 5 -45 10 -52 19 -27 4 10 16 32 27 47 20 30 16 42 -29 82 -7 5 -15 20 -19
32 -8 29 21 21 30 -8 4 -10 10 -19 15 -19 13 0 29 -57 23 -82 -4 -13 -21 -41
-38 -63 -18 -22 -35 -52 -39 -67 -8 -33 -43 -45 -78 -27 -14 7 -7 -3 17 -25
34 -31 44 -36 77 -32 67 8 67 8 73 156 3 73 7 135 8 137 2 1 41 -2 86 -8 46
-5 86 -8 88 -5 5 5 -23 10 -108 21 -36 5 -49 11 -57 30 -7 14 -8 25 -4 25 4 0
7 10 8 23 0 12 4 30 9 40 7 17 6 18 -13 6 -11 -7 -18 -19 -15 -26 3 -8 -2 -22
-11 -32 -13 -14 -14 -24 -6 -45 6 -18 6 -25 0 -21 -6 3 -10 13 -10 21 0 8 -5
12 -10 9 -25 -16 -20 29 7 63 38 47 53 76 53 100 0 11 7 25 15 32 8 7 15 24
15 38 0 30 -9 23 -39 -31 -12 -21 -19 -43 -15 -48 3 -5 2 -9 -3 -8 -24 4 -38
-1 -24 -10 21 -14 4 -51 -24 -51 -17 0 -29 -9 -40 -30 -9 -16 -19 -30 -24 -30
-14 0 -9 35 9 55 22 26 83 135 78 140 -9 9 -27 -13 -47 -57 -20 -45 -38 -68
-24 -31 5 12 3 14 -8 9 -8 -4 -6 -1 4 7 9 8 17 19 17 24 0 6 14 28 31 49 17
22 43 62 57 89 28 55 42 48 18 -9 -8 -20 -11 -34 -5 -30 17 10 31 56 24 81 -7
30 -18 29 -33 -4z m-25 -545 c-3 -8 -6 -5 -6 6 -1 11 2 17 5 13 3 -3 4 -12 1
-19z m-20 -25 c-4 -3 -10 -3 -14 0 -3 4 0 7 7 7 7 0 10 -3 7 -7z m23 -21 c0
-22 -26 -59 -35 -50 -6 6 24 68 32 68 2 0 3 -8 3 -18z m-23 -66 c4 -3 -12 -6
-35 -6 -24 0 -42 5 -42 11 0 11 66 7 77 -5z"/>
<path d="M533 1292 c-30 -19 -19 -53 21 -67 63 -22 76 2 28 48 -31 30 -32 30
-49 19z m42 -29 c32 -37 31 -44 -5 -32 -22 8 -30 17 -30 35 0 31 6 30 35 -3z"/>
<path d="M1246 1261 c-19 -21 -12 -28 13 -12 7 5 12 14 9 21 -2 7 -10 4 -22
-9z"/>
<path d="M735 1251 c3 -6 -12 -12 -32 -14 -34 -3 -33 -4 11 -5 42 -2 47 0 36
13 -14 17 -25 20 -15 6z"/>
<path d="M610 1190 c0 -5 5 -10 11 -10 5 0 7 5 4 10 -3 6 -8 10 -11 10 -2 0
-4 -4 -4 -10z"/>
<path d="M1320 1175 c-18 -22 -8 -33 12 -13 10 9 13 20 9 23 -5 2 -14 -2 -21
-10z"/>
<path d="M2160 1160 c0 -5 7 -10 15 -10 8 0 15 5 15 10 0 6 -7 10 -15 10 -8 0
-15 -4 -15 -10z"/>
<path d="M2210 1149 c0 -11 -4 -18 -8 -15 -4 2 -28 -11 -51 -30 -24 -19 -48
-34 -52 -34 -5 0 -9 -5 -9 -11 0 -6 7 -9 14 -6 10 4 13 1 10 -8 -4 -9 -15 -13
-27 -11 -12 3 -27 5 -33 5 -6 1 -34 19 -63 42 -28 22 -57 38 -63 36 -9 -4 -8
-6 3 -6 8 -1 27 -14 42 -29 25 -26 26 -30 12 -48 -17 -23 -19 -34 -5 -34 6 0
10 6 10 14 0 34 70 20 103 -21 10 -13 27 -23 37 -23 44 0 72 -40 38 -53 -7 -3
-1 -6 14 -6 46 -2 97 -92 83 -149 -6 -23 -8 -25 -16 -9 -6 9 -7 23 -3 30 4 6
-4 2 -18 -11 -27 -24 -38 -21 -38 14 0 27 -20 74 -31 74 -5 0 -2 -18 6 -40 8
-22 12 -40 9 -40 -2 0 0 -9 6 -21 12 -22 21 -59 15 -59 -21 0 -55 27 -55 44 0
16 -15 28 -63 51 -34 16 -78 41 -97 54 -35 25 -35 25 -2 -10 17 -19 32 -40 32
-46 0 -7 4 -14 9 -17 5 -4 7 3 4 14 -5 20 -4 20 38 -3 73 -38 70 -34 51 -71
-15 -30 -21 -33 -66 -35 -27 -1 -52 -4 -57 -7 -4 -2 -15 8 -23 23 -23 45 -138
193 -149 193 -5 0 0 -11 10 -24 57 -73 119 -158 154 -211 57 -85 88 -128 106
-145 9 -8 -5 15 -30 52 -80 117 -81 109 15 107 97 -3 168 8 168 26 0 6 9 22
20 35 11 13 20 28 20 34 0 6 9 17 19 23 17 11 24 6 60 -42 23 -30 44 -55 46
-55 6 0 -66 104 -74 108 -4 1 -5 20 -3 42 3 32 8 40 21 36 22 -7 150 -10 157
-4 2 3 -36 9 -86 12 -91 8 -91 8 -126 81 -47 99 -105 160 -101 105 1 -14 6
-18 19 -14 23 7 78 -99 85 -165 3 -25 9 -48 14 -52 5 -3 3 -14 -5 -24 -13 -18
-14 -18 -26 4 -10 19 -9 25 1 32 11 7 11 9 1 9 -7 0 -17 11 -22 25 -5 14 -15
24 -22 23 -7 -2 -12 4 -11 12 3 19 -68 70 -98 70 -19 0 -21 2 -8 13 8 6 25 25
39 41 25 28 25 28 3 22 -17 -6 -23 -3 -23 8 0 18 36 40 55 32 7 -2 15 3 18 12
3 9 8 25 12 35 4 10 3 17 -4 17 -6 0 -11 -9 -11 -21z m-93 -136 c-4 -3 -10 -3
-14 0 -3 4 0 7 7 7 7 0 10 -3 7 -7z m100 -90 c-4 -3 -10 -3 -14 0 -3 4 0 7 7
7 7 0 10 -3 7 -7z m-57 -243 c-36 -10 -55 -1 -33 15 13 10 23 10 38 2 19 -10
19 -11 -5 -17z"/>
<path d="M570 1143 c0 -11 7 -27 16 -34 15 -12 16 -11 9 11 -10 35 -25 49 -25
23z"/>
<path d="M1411 1144 c0 -11 3 -14 6 -6 3 7 2 16 -1 19 -3 4 -6 -2 -5 -13z"/>
<path d="M396 1100 c-14 -17 -31 -30 -38 -28 -7 2 -15 -1 -18 -6 -3 -5 2 -10
12 -12 17 -2 86 62 76 71 -3 3 -17 -8 -32 -25z"/>
<path d="M610 1126 c0 -3 9 -10 20 -16 11 -6 20 -8 20 -6 0 3 -9 10 -20 16
-11 6 -20 8 -20 6z"/>
<path d="M1126 1068 c9 -53 12 -58 31 -51 27 10 33 24 21 47 -25 47 -60 49
-52 4z"/>
<path d="M1404 1083 c5 -14 -1 -23 -18 -33 -14 -7 -24 -20 -23 -29 1 -19 35
-25 52 -11 16 13 12 83 -4 88 -9 3 -11 -2 -7 -15z m1 -53 c-3 -5 -12 -10 -18
-10 -7 0 -6 4 3 10 19 12 23 12 15 0z"/>
<path d="M460 1074 c1 -31 22 -37 146 -45 71 -4 137 -11 147 -14 10 -4 17 -3
17 4 0 6 -6 11 -12 11 -109 2 -264 22 -280 36 -10 10 -18 13 -18 8z"/>
<path d="M1363 1068 c-23 -11 -31 -28 -14 -28 10 0 41 28 41 36 0 5 0 5 -27
-8z"/>
<path d="M440 1050 c0 -5 5 -10 11 -10 5 0 7 5 4 10 -3 6 -8 10 -11 10 -2 0
-4 -4 -4 -10z"/>
<path d="M1300 1050 c0 -5 5 -10 10 -10 6 0 10 5 10 10 0 6 -4 10 -10 10 -5 0
-10 -4 -10 -10z"/>
<path d="M788 1008 c9 -9 15 -9 24 0 9 9 7 12 -12 12 -19 0 -21 -3 -12 -12z"/>
<path d="M1475 1001 c78 -16 140 -22 129 -11 -5 5 -46 12 -89 15 -59 3 -69 2
-40 -4z"/>
<path d="M2310 988 c0 -9 5 -20 10 -23 13 -8 13 5 0 25 -8 13 -10 13 -10 -2z"/>
<path d="M314 974 c3 -9 6 -52 7 -97 0 -64 2 -77 10 -57 17 42 7 170 -13 170
-6 0 -7 -7 -4 -16z"/>
<path d="M1623 983 c4 -3 10 -3 14 0 3 4 0 7 -7 7 -7 0 -10 -3 -7 -7z"/>
<path d="M1811 975 c-20 -11 -7 -14 105 -18 71 -2 140 -8 154 -12 14 -4 21 -4
17 0 -8 10 -24 14 -77 22 -19 3 -41 10 -48 16 -9 7 -25 6 -54 -4 -32 -10 -42
-11 -46 -1 -5 15 -20 14 -51 -3z m142 -2 c-7 -2 -19 -2 -25 0 -7 3 -2 5 12 5
14 0 19 -2 13 -5z"/>
<path d="M360 970 c0 -5 5 -10 11 -10 5 0 7 5 4 10 -3 6 -8 10 -11 10 -2 0 -4
-4 -4 -10z"/>
<path d="M688 946 c17 -36 32 -47 32 -23 0 8 -11 24 -24 36 -24 23 -24 23 -8
-13z"/>
<path d="M1291 976 c2 -2 27 -6 54 -10 36 -5 46 -4 35 3 -13 10 -99 16 -89 7z"/>
<path d="M1728 973 c6 -2 18 -2 25 0 6 3 1 5 -13 5 -14 0 -19 -2 -12 -5z"/>
<path d="M1440 961 c8 -6 28 -11 44 -11 39 0 31 6 -19 14 -29 5 -36 4 -25 -3z"/>
<path d="M383 866 c-1 -47 3 -89 8 -92 11 -6 11 133 0 160 -4 10 -7 -20 -8
-68z"/>
<path d="M980 946 c0 -2 8 -10 18 -17 15 -13 16 -12 3 4 -13 16 -21 21 -21 13z"/>
<path d="M1582 940 c10 -6 63 -13 119 -15 109 -4 131 4 27 10 -34 2 -85 7
-113 10 -38 4 -46 3 -33 -5z"/>
<path d="M2350 938 c0 -5 29 -8 64 -8 36 0 67 3 69 8 3 4 -26 7 -64 7 -38 0
-69 -3 -69 -7z"/>
<path d="M101 873 c0 -39 2 -74 7 -76 4 -3 6 18 4 46 -5 92 -9 104 -11 30z"/>
<path d="M1423 903 c43 -46 90 -110 167 -228 15 -22 30 -43 83 -112 31 -41 33
-54 11 -91 -16 -27 -16 -27 8 1 25 28 25 28 52 -5 68 -84 78 -94 65 -69 -6 13
-29 43 -50 66 -46 49 -45 48 -17 88 22 32 22 32 -3 10 -14 -13 -27 -23 -30
-23 -5 0 -72 91 -179 243 -77 111 -99 137 -113 137 -6 0 -3 -8 6 -17z"/>
<path d="M1579 867 c16 -23 39 -51 50 -61 12 -11 21 -23 21 -27 0 -11 83 -121
104 -139 9 -7 16 -18 17 -24 0 -6 22 -38 50 -71 27 -33 75 -99 107 -147 31
-48 60 -88 64 -88 13 0 -83 148 -153 235 -82 102 -179 234 -179 243 0 4 -13
21 -30 37 -16 16 -30 34 -30 40 0 12 -32 45 -43 45 -3 0 7 -19 22 -43z"/>
<path d="M660 880 c-14 -10 -22 -21 -19 -24 3 -3 16 5 29 19 28 30 24 32 -10
5z"/>
<path d="M1613 893 c4 -3 10 -3 14 0 3 4 0 7 -7 7 -7 0 -10 -3 -7 -7z"/>
<path d="M1705 864 c19 -20 58 -73 89 -119 55 -82 93 -125 80 -91 -3 9 -10 16
-15 16 -5 0 -13 8 -17 18 -10 25 -124 196 -136 204 -30 21 -30 4 -1 -28z"/>
<path d="M2052 891 c-11 -6 -10 -9 5 -13 10 -3 24 1 31 9 15 15 -13 19 -36 4z"/>
<path d="M2526 869 c3 -5 26 -9 51 -9 26 0 44 2 42 4 -9 8 -98 13 -93 5z"/>
<path d="M3033 873 c4 -3 10 -3 14 0 3 4 0 7 -7 7 -7 0 -10 -3 -7 -7z"/>
<path d="M3088 873 c6 -2 18 -2 25 0 6 3 1 5 -13 5 -14 0 -19 -2 -12 -5z"/>
<path d="M1320 862 c0 -4 16 -23 35 -42 42 -41 43 -55 8 -93 -24 -26 -25 -28
-6 -18 12 6 26 18 31 27 11 19 16 15 85 -72 174 -220 239 -317 230 -341 -4
-10 -3 -14 5 -9 6 3 20 -4 31 -16 34 -36 24 -12 -24 56 -25 36 -45 68 -45 72
0 4 -16 27 -36 50 -32 40 -34 45 -20 60 22 22 20 31 -3 10 -21 -19 -19 -20
-101 90 -19 26 -50 64 -69 85 -22 26 -32 46 -28 59 3 11 1 17 -4 14 -10 -6
-69 53 -69 69 0 10 -20 9 -20 -1z"/>
<path d="M2066 845 c-3 -10 -4 -20 -1 -23 3 -3 5 -2 5 3 0 4 7 2 15 -5 19 -15
20 0 2 24 -13 18 -14 18 -21 1z"/>
<path d="M2752 845 c3 -3 37 -8 74 -10 58 -4 63 -3 29 5 -45 10 -111 13 -103
5z"/>
<path d="M919 823 c6 -13 15 -23 20 -23 4 0 17 -17 29 -39 21 -37 52 -71 52
-57 0 10 -75 109 -95 126 -17 14 -17 14 -6 -7z"/>
<path d="M1564 828 c-4 -7 -3 -8 4 -4 12 7 16 16 8 16 -3 0 -8 -5 -12 -12z"/>
<path d="M2291 824 c0 -11 3 -14 6 -6 3 7 2 16 -1 19 -3 4 -6 -2 -5 -13z"/>
<path d="M2420 828 c0 -9 6 -21 14 -27 7 -6 35 -47 62 -91 26 -44 50 -78 52
-75 2 2 0 10 -4 17 -5 7 -9 15 -9 18 -1 7 -74 120 -97 149 -12 16 -18 19 -18
9z"/>
<path d="M2940 830 c14 -4 34 -8 45 -8 16 0 15 2 -5 8 -14 4 -34 8 -45 8 -16
0 -15 -2 5 -8z"/>
<path d="M1683 823 c4 -3 10 -3 14 0 3 4 0 7 -7 7 -7 0 -10 -3 -7 -7z"/>
<path d="M3103 813 c4 -3 10 -3 14 0 3 4 0 7 -7 7 -7 0 -10 -3 -7 -7z"/>
<path d="M300 780 c-25 -8 -25 -8 1 -9 22 -1 25 -5 22 -28 -8 -54 -18 -541
-12 -537 4 2 10 111 13 241 4 131 9 262 12 291 3 28 2 52 -3 51 -4 -1 -19 -5
-33 -9z"/>
<path d="M198 773 c12 -2 30 -2 40 0 9 3 -1 5 -23 4 -22 0 -30 -2 -17 -4z"/>
<path d="M2931 775 c0 -5 11 -23 25 -40 14 -16 21 -21 16 -10 -16 30 -41 61
-41 50z"/>
<path d="M1250 765 c0 -3 32 -41 70 -84 39 -44 70 -83 70 -87 0 -6 27 -41 103
-128 20 -24 37 -47 37 -51 0 -4 14 -23 31 -42 20 -23 29 -42 26 -55 -3 -11 -3
-17 0 -14 4 3 16 -2 27 -11 20 -18 20 -18 2 10 -14 23 -15 31 -5 43 10 12 9
13 -3 9 -9 -4 -25 7 -42 30 -15 19 -25 35 -21 35 3 0 -12 16 -32 35 -38 36
-38 36 -20 67 10 17 16 33 13 35 -2 3 -11 -7 -18 -21 -14 -26 -14 -26 -73 45
-33 40 -64 79 -70 88 -5 8 -25 31 -42 51 -18 19 -33 38 -33 43 0 4 -4 7 -10 7
-5 0 -10 -2 -10 -5z"/>
<path d="M3029 742 c6 -12 16 -24 22 -28 8 -4 8 -1 0 14 -6 12 -16 24 -22 28
-8 4 -8 1 0 -14z"/>
<path d="M101 734 c0 -11 3 -14 6 -6 3 7 2 16 -1 19 -3 4 -6 -2 -5 -13z"/>
<path d="M836 735 c4 -8 8 -15 10 -15 2 0 4 7 4 15 0 8 -4 15 -10 15 -5 0 -7
-7 -4 -15z"/>
<path d="M1489 723 c-13 -16 -12 -17 4 -4 16 13 21 21 13 21 -2 0 -10 -8 -17
-17z"/>
<path d="M2866 728 c4 -7 29 -44 54 -83 26 -38 57 -89 69 -112 12 -24 23 -43
26 -43 11 0 -32 80 -81 152 -30 43 -54 83 -54 89 0 5 -5 9 -11 9 -5 0 -7 -6
-3 -12z"/>
<path d="M382 710 c0 -14 2 -19 5 -12 2 6 2 18 0 25 -3 6 -5 1 -5 -13z"/>
<path d="M3137 710 c3 -11 9 -22 13 -25 5 -3 6 4 3 15 -3 11 -9 22 -13 25 -5
3 -6 -4 -3 -15z"/>
<path d="M1600 710 c0 -7 3 -10 7 -7 3 4 3 10 0 14 -4 3 -7 0 -7 -7z"/>
<path d="M2438 693 c7 -3 16 -2 19 1 4 3 -2 6 -13 5 -11 0 -14 -3 -6 -6z"/>
<path d="M2986 685 c4 -8 11 -15 16 -15 6 0 5 6 -2 15 -7 8 -14 15 -16 15 -2
0 -1 -7 2 -15z"/>
<path d="M3082 661 c12 -22 24 -38 26 -36 5 4 -37 75 -44 75 -3 0 6 -18 18
-39z"/>
<path d="M391 664 c0 -11 3 -14 6 -6 3 7 2 16 -1 19 -3 4 -6 -2 -5 -13z"/>
<path d="M1924 668 c-4 -7 -3 -8 4 -4 12 7 16 16 8 16 -3 0 -8 -5 -12 -12z"/>
<path d="M2320 656 c0 -2 31 -50 70 -106 38 -56 75 -111 81 -123 13 -24 103
-125 98 -108 -2 5 -19 27 -37 48 -30 35 -89 121 -137 197 -22 35 -75 101 -75
92z"/>
<path d="M3036 611 c15 -28 29 -49 32 -47 5 6 -36 83 -48 91 -6 4 1 -16 16
-44z"/>
<path d="M1669 633 c-13 -16 -12 -17 4 -4 16 13 21 21 13 21 -2 0 -10 -8 -17
-17z"/>
<path d="M2820 644 c0 -4 15 -27 33 -53 18 -25 50 -74 71 -108 20 -35 39 -63
42 -63 8 0 -35 77 -67 122 -16 24 -39 58 -51 76 -19 31 -28 39 -28 26z"/>
<path d="M1891 627 c0 -10 18 -44 42 -75 24 -31 63 -85 86 -119 23 -35 44 -63
48 -63 3 0 -1 10 -9 23 -8 12 -21 33 -29 47 -8 13 -26 38 -41 55 -16 16 -28
35 -28 41 0 5 -13 23 -29 39 -17 15 -32 37 -34 49 -3 17 -5 17 -6 3z"/>
<path d="M2445 630 c3 -5 8 -10 11 -10 3 0 2 5 -1 10 -3 6 -8 10 -11 10 -3 0
-2 -4 1 -10z"/>
<path d="M2120 622 c0 -6 5 -14 10 -17 15 -9 90 -127 90 -140 0 -6 11 -21 24
-32 13 -11 26 -27 28 -34 3 -8 9 -11 13 -6 5 4 -3 20 -16 35 -14 15 -44 59
-68 98 -41 71 -81 117 -81 96z"/>
<path d="M1010 605 c-7 -9 -11 -17 -8 -20 2 -2 12 4 21 15 9 11 13 20 8 20 -5
0 -14 -7 -21 -15z"/>
<path d="M2305 509 c77 -114 108 -155 85 -110 -21 40 -129 198 -146 212 -8 7
19 -39 61 -102z"/>
<path d="M2466 597 c3 -10 9 -15 12 -12 3 3 0 11 -7 18 -10 9 -11 8 -5 -6z"/>
<path d="M380 590 c0 -7 3 -10 7 -7 3 4 3 10 0 14 -4 3 -7 0 -7 -7z"/>
<path d="M2784 555 c20 -27 55 -77 77 -109 21 -33 39 -54 39 -48 0 16 -97 156
-127 183 -21 18 -18 12 11 -26z"/>
<path d="M1860 575 c-7 -9 -11 -17 -9 -20 3 -2 10 5 17 15 14 24 10 26 -8 5z"/>
<path d="M2485 560 c3 -5 8 -10 11 -10 3 0 2 5 -1 10 -3 6 -8 10 -11 10 -3 0
-2 -4 1 -10z"/>
<path d="M380 453 c0 -60 -2 -187 -4 -283 -3 -106 -1 -164 4 -146 9 30 14 536
5 536 -3 0 -5 -48 -5 -107z"/>
<path d="M2511 518 c14 -27 90 -128 95 -128 3 0 -7 17 -21 38 -14 20 -36 54
-50 75 -28 41 -43 50 -24 15z"/>
<path d="M940 505 c-13 -14 -19 -25 -13 -25 6 0 18 11 27 25 9 14 15 25 13 25
-2 0 -14 -11 -27 -25z"/>
<path d="M2614 517 c8 -26 81 -131 102 -147 10 -8 6 0 -9 18 -15 19 -27 37
-27 41 0 4 -16 30 -36 57 -20 27 -34 41 -30 31z"/>
<path d="M2720 514 c0 -5 18 -32 41 -59 22 -27 47 -62 55 -77 8 -15 17 -28 20
-28 9 0 -29 65 -64 110 -50 63 -52 65 -52 54z"/>
<path d="M483 475 c-39 -41 -40 -48 -11 -77 18 -18 77 -89 120 -145 7 -8 3
-22 -12 -43 -12 -16 -18 -30 -13 -30 4 1 29 33 56 73 34 52 39 63 17 40 -37
-41 -32 -41 -70 7 -32 40 -32 40 -1 75 17 20 31 39 31 43 -1 4 -15 -10 -34
-31 -32 -39 -32 -39 -70 3 -38 42 -38 42 0 81 21 21 34 39 29 38 -6 0 -25 -16
-42 -34z"/>
<path d="M2114 463 c8 -16 22 -36 31 -43 12 -10 10 -3 -5 23 -27 45 -48 61
-26 20z"/>
<path d="M1561 457 c-13 -21 -12 -21 5 -5 10 10 16 20 13 22 -3 3 -11 -5 -18
-17z"/>
<path d="M1739 383 c-13 -16 -12 -17 4 -4 16 13 21 21 13 21 -2 0 -10 -8 -17
-17z"/>
<path d="M1497 361 c-19 -23 -27 -27 -37 -18 -10 10 -10 7 -1 -11 7 -12 9 -28
5 -35 -4 -6 -3 -9 1 -4 5 4 20 -3 34 -15 25 -23 25 -23 2 10 -23 33 -23 33 4
67 32 42 26 46 -8 6z"/>
<path d="M1830 361 c0 -14 61 -93 68 -87 2 3 -9 22 -24 43 -40 55 -44 59 -44
44z"/>
<path d="M2620 361 c0 -5 5 -13 10 -16 6 -3 10 -2 10 4 0 5 -4 13 -10 16 -5 3
-10 2 -10 -4z"/>
<path d="M2075 350 c3 -5 8 -10 11 -10 3 0 2 5 -1 10 -3 6 -8 10 -11 10 -3 0
-2 -4 1 -10z"/>
<path d="M3010 330 c0 -7 3 -10 7 -7 3 4 3 10 0 14 -4 3 -7 0 -7 -7z"/>
<path d="M1020 320 c0 -5 5 -10 11 -10 5 0 7 5 4 10 -3 6 -8 10 -11 10 -2 0
-4 -4 -4 -10z"/>
<path d="M2755 320 c3 -5 8 -10 11 -10 3 0 2 5 -1 10 -3 6 -8 10 -11 10 -3 0
-2 -4 1 -10z"/>
<path d="M2006 287 c3 -10 9 -15 12 -12 3 3 0 11 -7 18 -10 9 -11 8 -5 -6z"/>
<path d="M1232 245 c12 -14 23 -23 25 -21 6 5 -29 46 -39 46 -4 0 2 -11 14
-25z"/>
<path d="M1269 204 c-5 -15 -12 -31 -16 -37 -3 -6 -1 -7 4 -4 11 7 36 67 27
67 -2 0 -9 -12 -15 -26z"/>
<path d="M307 163 c-10 -9 -9 -123 1 -123 4 0 8 29 10 65 3 65 1 71 -11 58z"/>
<path d="M939 113 c-13 -16 -12 -17 4 -4 9 7 17 15 17 17 0 8 -8 3 -21 -13z"/>
<path d="M843 3 c4 -3 10 -3 14 0 3 4 0 7 -7 7 -7 0 -10 -3 -7 -7z"/>
<path d="M1123 3 c4 -3 10 -3 14 0 3 4 0 7 -7 7 -7 0 -10 -3 -7 -7z"/>
</g>
</svg>
