<?xml version="1.0" standalone="no"?>
<!DOCTYPE svg PUBLIC "-//W3C//DTD SVG 20010904//EN"
 "http://www.w3.org/TR/2001/REC-SVG-20010904/DTD/svg10.dtd">
<svg version="1.0" xmlns="http://www.w3.org/2000/svg"
 width="344.000000pt" height="256.000000pt" viewBox="0 0 344.000000 256.000000"
 preserveAspectRatio="xMidYMid meet">
<metadata>
Created by potrace 1.16, written by Peter Selinger 2001-2019
</metadata>
<g transform="translate(0.000000,256.000000) scale(0.100000,-0.100000)"
fill="#000000" stroke="none">
<path d="M2449 2533 c15 -29 30 -38 44 -24 8 8 7 11 -3 11 -7 0 -22 8 -33 18
-19 16 -20 16 -8 -5z"/>
<path d="M2576 2501 c10 -10 21 -17 23 -15 6 6 -20 34 -32 34 -6 0 -2 -8 9
-19z"/>
<path d="M2505 2500 c-3 -5 -2 -10 4 -10 5 0 13 5 16 10 3 6 2 10 -4 10 -5 0
-13 -4 -16 -10z"/>
<path d="M2943 2310 c14 -11 31 -20 39 -20 7 0 -2 9 -20 20 -42 26 -52 26 -19
0z"/>
<path d="M2407 2284 c3 -9 0 -20 -8 -25 -9 -6 -10 -9 -2 -9 15 0 35 35 26 44
-12 12 -22 6 -16 -10z"/>
<path d="M2463 2283 c4 -3 10 -3 14 0 3 4 0 7 -7 7 -7 0 -10 -3 -7 -7z"/>
<path d="M2028 2263 c7 -3 16 -2 19 1 4 3 -2 6 -13 5 -11 0 -14 -3 -6 -6z"/>
<path d="M2135 2241 c22 -10 51 -21 65 -25 14 -3 7 3 -15 13 -22 10 -51 21
-65 25 -14 3 -7 -3 15 -13z"/>
<path d="M2500 2251 c0 -5 5 -13 10 -16 6 -3 10 -2 10 4 0 5 -4 13 -10 16 -5
3 -10 2 -10 -4z"/>
<path d="M904 2228 c15 -23 33 -34 91 -55 6 -2 -7 7 -27 20 -21 13 -47 32 -59
43 -22 19 -22 19 -5 -8z"/>
<path d="M3005 2240 c3 -5 11 -10 16 -10 6 0 7 5 4 10 -3 6 -11 10 -16 10 -6
0 -7 -4 -4 -10z"/>
<path d="M2285 2230 c-3 -5 -1 -10 4 -10 6 0 11 5 11 10 0 6 -2 10 -4 10 -3 0
-8 -4 -11 -10z"/>
<path d="M2468 2223 c7 -3 16 -2 19 1 4 3 -2 6 -13 5 -11 0 -14 -3 -6 -6z"/>
<path d="M2553 2203 c4 -3 10 -3 14 0 3 4 0 7 -7 7 -7 0 -10 -3 -7 -7z"/>
<path d="M890 2196 c0 -2 8 -10 18 -17 15 -13 16 -12 3 4 -13 16 -21 21 -21
13z"/>
<path d="M2610 2190 c0 -7 3 -10 7 -7 3 4 3 10 0 14 -4 3 -7 0 -7 -7z"/>
<path d="M1030 2175 c33 -19 49 -19 24 0 -10 8 -26 14 -34 14 -9 0 -4 -6 10
-14z"/>
<path d="M2578 2130 c-14 -21 -24 -41 -21 -44 4 -3 17 12 31 35 31 52 25 58
-10 9z"/>
<path d="M411 2096 c-10 -12 -8 -13 8 -9 12 3 18 9 15 14 -7 12 -10 11 -23 -5z"/>
<path d="M3055 2091 c3 -5 20 -13 38 -16 17 -4 37 -12 44 -17 7 -5 20 -8 30
-6 13 3 9 8 -17 20 -45 19 -103 31 -95 19z"/>
<path d="M2502 2074 c9 -9 21 -15 27 -13 6 2 -2 10 -17 17 -25 11 -25 11 -10
-4z"/>
<path d="M3016 2065 c-4 -14 -13 -25 -21 -25 -9 0 -15 -9 -15 -22 0 -32 -49
-93 -64 -78 -8 8 -5 16 14 30 14 11 19 20 12 20 -16 0 -62 -45 -62 -61 0 -8 4
-9 13 0 11 8 23 -9 60 -82 25 -51 73 -125 107 -165 33 -40 57 -72 52 -72 -4 0
-13 5 -20 12 -22 22 -13 -8 22 -79 19 -37 42 -97 52 -133 9 -36 21 -69 25 -74
9 -10 -6 59 -21 99 -6 14 -8 31 -5 35 3 5 -6 27 -21 49 -38 58 -26 67 20 14
62 -72 79 -148 56 -263 -5 -29 -5 -49 2 -57 6 -7 8 -19 5 -28 -4 -8 -2 -17 3
-20 6 -4 10 0 11 7 0 7 2 24 4 38 1 14 -2 31 -7 38 -7 8 -7 12 0 12 19 0 55
100 41 116 -24 29 -3 22 39 -12 33 -28 42 -43 42 -67 1 -18 10 -48 21 -67 11
-19 17 -26 13 -15 -4 11 -12 44 -19 74 -9 43 -19 61 -48 85 -20 17 -37 35 -37
40 0 5 9 1 20 -9 12 -11 20 -13 20 -6 0 6 -7 14 -15 17 -18 7 -65 108 -65 141
0 33 -25 83 -60 123 -16 18 -27 37 -24 41 3 5 0 9 -5 9 -6 0 -11 -5 -11 -11 0
-8 -5 -8 -15 1 -11 9 -15 9 -15 1 0 -6 15 -21 34 -32 58 -34 88 -104 73 -174
-2 -11 2 -35 10 -52 7 -18 11 -33 8 -33 -2 0 -11 15 -18 33 -8 17 -31 52 -51
75 -43 52 -46 61 -9 33 37 -30 45 -15 8 16 -100 83 -186 193 -152 193 7 0 -1
11 -18 24 -16 13 -27 28 -22 32 4 4 13 2 19 -4 7 -7 17 -12 23 -12 5 0 -1 10
-15 21 -18 15 -20 19 -6 15 13 -5 17 -2 12 9 -8 22 31 19 43 -3 5 -10 27 -24
49 -30 39 -12 62 -42 62 -82 0 -10 18 -40 40 -65 50 -57 50 -51 0 50 -22 44
-40 84 -40 88 0 16 84 -3 115 -25 30 -21 30 -21 0 13 -16 19 -31 35 -32 37 -1
2 -10 -1 -21 -7 -15 -8 -23 -7 -31 3 -9 11 -9 15 1 18 7 3 3 7 -10 10 -12 4
-20 3 -17 -2 3 -4 -9 -10 -25 -12 -23 -3 -31 0 -36 14 -4 14 -12 17 -27 13
-21 -6 -22 -6 -3 9 11 9 31 16 45 16 17 0 22 3 14 8 -9 6 -2 20 27 52 22 24
40 48 40 52 0 17 -30 -6 -55 -43 -27 -42 -78 -79 -108 -79 -16 0 -14 7 13 59
18 32 30 69 28 81 -2 18 -11 9 -41 -46 -21 -37 -35 -74 -32 -81 3 -9 0 -11 -6
-7 -12 7 -9 30 15 127 8 31 11 57 6 57 -4 0 -11 -11 -14 -25z m-28 -110 c1
-13 -2 -26 -7 -30 -5 -3 -7 -14 -4 -25 4 -14 0 -20 -10 -20 -23 0 -32 38 -13
59 9 10 16 23 16 29 0 23 16 12 18 -13z m282 -605 c0 -5 -4 -10 -10 -10 -5 0
-10 5 -10 10 0 6 5 10 10 10 6 0 10 -4 10 -10z"/>
<path d="M2665 2071 c-26 -11 -89 -71 -105 -100 -7 -15 -8 -21 -1 -17 6 4 11
2 11 -5 0 -7 7 -4 15 7 19 25 19 11 -1 -28 -16 -32 -13 -113 7 -165 5 -14 5
-23 -1 -23 -6 0 -10 3 -11 8 0 4 -3 16 -5 27 -3 11 -6 26 -6 32 -1 7 -3 11 -6
8 -2 -2 -13 6 -24 18 -18 21 -18 20 1 -17 25 -49 21 -54 -23 -28 -20 12 -38
17 -41 11 -10 -15 -41 -10 -59 10 -10 11 -16 23 -13 28 3 4 -2 14 -10 22 -14
13 -15 11 -9 -21 5 -26 2 -39 -10 -48 -18 -16 -36 2 -27 27 4 9 0 11 -11 7
-10 -4 -16 -1 -16 10 0 18 -38 41 -62 37 -11 -1 -25 11 -38 31 -11 18 -20 26
-20 18 1 -21 20 -43 56 -64 41 -24 67 -69 58 -99 -6 -19 -5 -20 10 -8 18 15
32 9 21 -8 -3 -6 -16 -11 -29 -11 -12 0 -28 -6 -35 -12 -10 -11 -11 -10 -6 3
10 25 -12 69 -34 69 -14 0 -19 5 -15 15 5 11 2 13 -10 9 -9 -3 -19 -17 -22
-30 -5 -20 -91 -91 -99 -82 -1 2 -10 18 -19 36 -17 33 -17 34 6 30 13 -2 22
-9 20 -16 -2 -10 2 -10 18 0 20 13 19 13 -7 22 -16 5 -37 15 -48 22 -27 19
-34 17 -28 -6 6 -24 -7 -25 -50 -4 -32 15 -32 15 -7 -5 14 -11 30 -21 36 -21
7 0 14 -6 17 -14 4 -10 -2 -13 -19 -12 -13 0 -24 4 -24 7 0 4 -7 10 -16 13 -9
3 -12 2 -9 -5 4 -5 1 -16 -5 -24 -12 -14 -45 -4 -62 20 -4 5 -10 7 -13 3 -4
-3 7 -16 24 -29 17 -12 28 -26 25 -31 -3 -4 2 -8 10 -8 22 0 48 -31 43 -51 -3
-10 -2 -18 2 -17 32 4 38 -44 6 -51 -14 -2 -17 2 -12 18 3 12 1 21 -4 21 -5 0
-9 -9 -9 -20 0 -28 -17 -25 -24 4 -3 14 -12 31 -19 38 -28 29 -48 68 -35 68 8
1 7 6 -4 14 -10 7 -18 18 -18 23 0 6 -8 17 -17 24 -15 12 -16 12 -10 -3 3 -10
0 -24 -8 -31 -12 -13 -9 -21 18 -58 17 -24 37 -48 43 -54 20 -17 102 -178 109
-215 4 -19 16 -43 26 -53 23 -21 23 -19 5 19 -8 16 -17 43 -21 59 -4 23 -3 25
4 10 5 -12 17 -27 27 -35 15 -12 14 -9 -4 21 -22 36 -22 36 -1 84 11 25 18 49
15 52 -3 3 -9 -3 -12 -13 -22 -62 -35 -85 -44 -79 -14 8 -13 16 7 61 22 50 27
92 14 108 -6 7 -12 21 -14 32 -2 10 -8 27 -12 38 -10 23 12 38 37 25 28 -15
41 -58 34 -112 -3 -26 -1 -45 4 -42 4 3 11 -1 13 -7 5 -11 11 54 8 75 0 4 3 7
9 7 5 0 10 -14 10 -32 0 -45 9 -29 16 28 6 57 22 77 64 80 25 2 29 -1 20 -11
-6 -8 -17 -12 -23 -9 -7 2 -12 -5 -13 -18 -1 -13 -8 -48 -16 -78 -18 -64 -31
-171 -19 -152 6 10 14 4 30 -23 23 -40 24 -32 -27 -139 -3 -5 1 -5 7 -1 7 4
17 18 22 33 7 18 13 22 21 14 7 -7 5 -23 -7 -55 -9 -25 -15 -53 -13 -63 4 -19
40 69 38 91 0 6 -2 38 -3 72 -2 34 -6 66 -11 70 -5 4 -5 -3 -1 -17 6 -21 5
-23 -6 -12 -15 14 -20 139 -6 182 4 14 23 35 41 47 34 21 34 21 20 -25 -16
-55 -18 -99 -4 -104 20 -6 25 -80 6 -93 -14 -11 -15 -13 -1 -19 18 -7 20 -26
2 -26 -7 0 -13 -9 -13 -19 0 -11 3 -18 7 -15 4 2 10 -5 14 -16 4 -11 11 -18
16 -14 6 4 5 14 -4 27 -12 19 -11 24 11 49 27 30 52 37 52 15 0 -8 -3 -17 -7
-20 -3 -4 -7 -29 -8 -57 -1 -27 -8 -56 -15 -65 -7 -8 -10 -18 -6 -22 13 -13
27 15 33 68 4 31 13 59 22 66 13 9 13 14 4 24 -10 10 -9 18 2 38 18 34 35 110
35 156 0 62 -17 29 -24 -47 -7 -76 -24 -108 -58 -108 -11 0 -16 -4 -13 -10 3
-5 2 -10 -2 -10 -5 0 -9 19 -11 43 -1 23 -4 84 -8 135 -6 108 1 124 55 122 20
-1 42 -2 49 -1 16 1 16 28 -1 38 -10 6 -10 11 4 25 18 17 36 8 38 -17 1 -5 6
-12 13 -14 6 -2 9 2 5 12 -4 11 2 16 24 19 16 3 29 0 29 -5 0 -5 6 -7 13 -4
14 5 67 -23 67 -35 0 -11 -54 2 -58 14 -2 4 -8 8 -14 8 -6 0 -8 -6 -5 -14 3
-8 1 -17 -6 -20 -7 -3 -1 -3 12 0 20 5 23 3 18 -10 -4 -10 -3 -15 2 -12 14 9
28 -16 35 -62 3 -23 10 -51 16 -61 5 -11 10 -27 10 -35 0 -27 -29 -18 -45 14
-16 30 -25 38 -25 20 0 -5 13 -24 30 -43 20 -24 27 -40 23 -56 -5 -20 -6 -20
-19 -4 -12 16 -13 14 -14 -17 0 -19 -5 -42 -10 -50 -10 -15 -14 6 -13 73 1 17
-4 27 -13 27 -19 0 -31 34 -26 71 5 36 22 38 22 2 0 -34 9 -25 14 15 3 20 -1
32 -10 36 -8 3 -14 12 -14 21 0 8 -4 15 -8 15 -4 0 -14 17 -22 38 -13 36 -14
36 -21 12 -11 -38 -11 -58 0 -41 11 17 19 4 27 -46 4 -25 2 -43 -5 -47 -6 -4
-8 -20 -4 -37 4 -22 0 -36 -14 -52 -11 -12 -20 -32 -21 -45 -2 -42 -23 -92
-39 -92 -11 0 -14 -6 -9 -26 5 -17 -1 -40 -19 -73 -21 -37 -25 -58 -22 -97 3
-49 3 -49 5 4 2 44 6 54 25 62 12 5 16 9 10 9 -10 1 -10 7 -1 26 11 25 11 25
26 -12 7 -21 16 -50 19 -66 7 -38 24 -45 21 -8 -2 30 25 72 44 68 6 -1 17 24
24 56 8 31 20 70 29 86 17 34 42 55 31 26 -5 -15 -4 -16 9 -5 9 8 15 29 15 56
0 44 14 60 24 27 9 -32 10 -107 2 -150 -8 -45 29 -123 58 -123 8 0 26 -15 40
-32 14 -18 26 -30 26 -26 0 11 -83 103 -88 98 -9 -9 -24 50 -17 68 5 13 8 14
14 3 9 -14 25 64 18 90 -2 8 -2 11 0 7 20 -35 52 46 36 88 -11 31 14 6 27 -26
7 -16 16 -30 21 -30 5 0 1 17 -9 38 -18 36 -18 38 -1 72 29 56 25 70 -19 70
-40 0 -92 37 -92 65 0 25 30 17 31 -7 1 -14 5 -8 10 16 10 43 5 56 -13 38 -33
-33 -68 41 -43 89 7 13 15 40 19 59 3 19 3 29 0 22 -11 -24 -22 -1 -14 28 6
20 5 30 -2 30 -12 0 17 49 40 68 9 6 27 12 41 12 14 0 33 5 41 10 19 12 -35
13 -65 1z m-63 -208 c-10 -28 -10 -28 -11 12 -1 28 2 36 10 28 8 -8 8 -19 1
-40z m-353 -92 c7 -5 10 -14 7 -20 -10 -16 -29 -13 -23 3 3 8 1 17 -6 20 -7 2
-7 5 -2 5 6 0 16 -3 24 -8z m131 -31 c0 -5 -2 -10 -4 -10 -3 0 -8 5 -11 10 -3
6 -1 10 4 10 6 0 11 -4 11 -10z m-125 -39 c-7 -22 -65 -69 -65 -52 0 13 61 83
67 77 3 -2 2 -14 -2 -25z m380 -59 c16 -42 32 -101 35 -131 6 -53 6 -53 -22
-20 -15 19 -28 39 -28 45 0 6 -9 21 -20 33 -13 16 -18 33 -14 55 3 24 2 26 -4
11 -8 -17 -11 -12 -17 25 -4 25 -13 48 -19 52 -6 4 5 8 24 8 34 0 35 -2 65
-78z m92 -19 c-10 -9 -56 -10 -51 -1 3 4 17 8 31 8 15 0 23 -3 20 -7z m-4 -48
c-7 -21 -13 -19 -13 6 0 11 4 18 10 14 5 -3 7 -12 3 -20z m-26 -17 c-3 -8 -6
-5 -6 6 -1 11 2 17 5 13 3 -3 4 -12 1 -19z m-698 -20 c0 -7 -4 -22 -8 -33 -7
-18 -9 -17 -25 13 -17 32 -17 32 9 32 14 0 25 -6 24 -12z m479 -55 c17 11 8
-27 -15 -64 -13 -20 -23 -44 -23 -53 0 -17 -26 -33 -37 -22 -3 3 -2 11 4 18 5
7 15 38 22 68 16 66 21 76 31 60 4 -7 12 -10 18 -7z m172 -25 c0 -4 -4 -8 -10
-8 -5 0 -10 4 -10 9 0 5 -3 18 -6 28 -5 16 -4 16 10 -1 9 -11 16 -23 16 -28z
m-164 -81 c-3 -13 -19 -36 -35 -53 -31 -29 -43 -57 -16 -34 8 6 19 9 24 5 6
-3 8 0 5 8 -3 8 2 19 10 26 23 20 3 -42 -26 -79 -29 -36 -32 -36 -46 -4 -15
32 -5 74 17 74 17 0 41 37 41 63 0 7 6 19 12 25 16 16 22 1 14 -31z"/>
<path d="M2980 2060 c0 -7 3 -10 7 -7 3 4 3 10 0 14 -4 3 -7 0 -7 -7z"/>
<path d="M1805 2050 c-7 -12 2 -12 30 0 19 8 19 9 -2 9 -12 1 -25 -3 -28 -9z"/>
<path d="M2565 2040 c3 -5 8 -10 11 -10 3 0 2 5 -1 10 -3 6 -8 10 -11 10 -3 0
-2 -4 1 -10z"/>
<path d="M2493 2023 c7 -32 -6 -36 -49 -18 -20 8 -39 13 -42 10 -3 -3 1 -5 8
-5 7 0 10 -3 7 -6 -4 -4 5 -20 19 -37 24 -29 27 -54 5 -49 -16 3 -13 -15 4
-22 9 -3 12 -12 9 -23 -5 -17 -5 -17 6 0 6 9 8 21 5 26 -3 6 5 19 17 31 13 13
17 20 9 18 -8 -2 -17 5 -19 15 -2 9 2 17 8 17 6 0 8 -5 5 -10 -6 -10 37 -4 58
7 15 9 6 33 -13 33 -10 0 -24 8 -30 18 -10 15 -11 14 -7 -5z m-36 -40 c-4 -3
-10 -3 -14 0 -3 4 0 7 7 7 7 0 10 -3 7 -7z m80 0 c-4 -3 -10 -3 -14 0 -3 4 0
7 7 7 7 0 10 -3 7 -7z"/>
<path d="M2671 1972 c-23 -65 -25 -76 -12 -68 5 3 11 -12 15 -33 3 -21 18 -63
33 -93 48 -92 57 -121 54 -170 -2 -32 2 -48 9 -48 7 0 10 7 6 15 -8 22 7 18
22 -6 7 -12 16 -19 18 -16 3 3 -1 16 -10 29 -9 14 -13 33 -9 47 6 22 6 22 19
-9 8 -18 14 -41 14 -51 0 -11 4 -19 10 -19 5 0 7 13 3 32 -5 26 -4 30 10 25
20 -7 22 4 5 21 -15 15 -31 16 -22 0 4 -7 3 -8 -4 -4 -7 4 -12 22 -12 39 0 44
-10 78 -21 71 -14 -8 -23 26 -10 39 8 8 14 8 23 -1 7 -7 19 -12 28 -12 9 0 25
-9 35 -20 10 -12 24 -19 31 -16 7 3 15 0 18 -7 3 -7 5 -6 5 3 1 29 -76 130
-99 130 -5 0 -10 5 -10 11 0 11 15 5 44 -20 10 -9 17 -11 15 -6 -36 83 -65 96
-104 49 -16 -19 -35 -32 -42 -30 -10 4 -12 -2 -7 -22 4 -23 3 -24 -6 -9 -6 9
-8 26 -5 37 4 12 2 20 -6 20 -11 0 -10 26 3 124 6 44 -21 22 -41 -32z m12 -37
c-3 -9 -8 -14 -10 -11 -3 3 -2 9 2 15 9 16 15 13 8 -4z m4 -47 c-3 -8 -6 -5
-6 6 -1 11 2 17 5 13 3 -3 4 -12 1 -19z m115 -49 c-3 -22 -1 -30 7 -25 6 4 11
0 11 -9 0 -24 -24 -12 -28 14 -3 21 3 51 11 51 2 0 1 -14 -1 -31z m-42 -14 c0
-8 -4 -15 -10 -15 -5 0 -10 7 -10 15 0 8 5 15 10 15 6 0 10 -7 10 -15z m17
-17 c-3 -8 -6 -5 -6 6 -1 11 2 17 5 13 3 -3 4 -12 1 -19z m2 -71 c26 -53 30
-92 6 -61 -8 10 -15 30 -15 44 -1 23 -2 23 -10 5 -7 -18 -8 -18 -15 7 -6 23
-1 48 10 48 2 0 13 -19 24 -43z m131 1 c0 -12 -6 -9 -26 13 -19 22 -19 22 4 8
12 -8 22 -17 22 -21z m-120 -109 c0 -5 -4 -9 -10 -9 -5 0 -10 7 -10 16 0 8 5
12 10 9 6 -3 10 -10 10 -16z"/>
<path d="M2776 2003 c9 -38 14 -42 14 -10 0 14 -5 29 -10 32 -7 4 -8 -3 -4
-22z"/>
<path d="M994 2011 c4 -6 16 -16 28 -22 15 -8 18 -8 14 0 -4 6 -16 16 -28 22
-15 8 -18 8 -14 0z"/>
<path d="M2807 1980 c-7 -50 -6 -52 11 -41 9 5 10 19 4 47 -8 39 -8 39 -15 -6z"/>
<path d="M2240 1996 c0 -8 5 -18 10 -21 6 -3 10 1 10 9 0 8 -4 18 -10 21 -5 3
-10 -1 -10 -9z"/>
<path d="M3094 1969 c-22 -24 -24 -29 -8 -21 24 13 49 40 42 47 -2 3 -18 -9
-34 -26z"/>
<path d="M2220 1971 c0 -5 5 -13 10 -16 6 -3 10 -2 10 4 0 5 -4 13 -10 16 -5
3 -10 2 -10 -4z"/>
<path d="M2276 1956 c5 -21 4 -27 -5 -22 -21 13 -11 -13 11 -28 25 -18 34 -14
41 16 6 22 5 22 -8 4 -15 -20 -15 -20 -15 0 0 11 -7 29 -15 40 -14 18 -15 17
-9 -10z"/>
<path d="M1913 1953 c4 -3 10 -3 14 0 3 4 0 7 -7 7 -7 0 -10 -3 -7 -7z"/>
<path d="M2424 1948 c-4 -7 -3 -8 4 -4 7 4 12 9 12 12 0 8 -9 4 -16 -8z"/>
<path d="M3204 1938 c-4 -7 -3 -8 4 -4 12 7 16 16 8 16 -3 0 -8 -5 -12 -12z"/>
<path d="M1403 1933 c4 -3 10 -3 14 0 3 4 0 7 -7 7 -7 0 -10 -3 -7 -7z"/>
<path d="M2146 1904 c-22 -20 -37 -25 -60 -21 -31 6 -31 6 -1 -8 40 -19 55
-18 77 2 17 15 18 15 18 0 0 -10 -7 -17 -15 -17 -20 0 -19 -16 1 -24 37 -14
45 12 21 66 -12 27 -12 27 -41 2z"/>
<path d="M1980 1892 c19 -17 47 -41 61 -54 14 -13 31 -22 36 -21 6 2 16 -3 23
-12 14 -17 46 -20 55 -5 6 9 -8 15 -29 11 -5 -1 -6 6 -2 15 5 14 2 16 -25 10
-25 -5 -35 -2 -46 14 -8 11 -19 20 -24 20 -6 0 -27 12 -47 26 -37 27 -37 27
-2 -4z"/>
<path d="M2390 1900 c0 -6 5 -10 11 -10 5 0 8 -4 5 -9 -3 -5 0 -21 8 -35 13
-26 14 -26 19 -5 3 12 0 30 -6 40 -13 21 -37 33 -37 19z"/>
<path d="M2902 1880 c5 -17 14 -32 19 -35 4 -3 6 -12 3 -19 -3 -7 1 -18 9 -25
17 -13 11 19 -14 77 -17 40 -32 42 -17 2z"/>
<path d="M3215 1901 c-3 -5 -2 -12 3 -15 5 -3 9 1 9 9 0 17 -3 19 -12 6z"/>
<path d="M1390 1857 c-60 -40 -75 -78 -63 -161 8 -57 8 -74 -3 -86 -28 -29
-373 -53 -402 -27 -15 14 -22 14 -72 -3 -40 -14 -84 -19 -162 -20 -62 0 -157
-9 -230 -21 -68 -12 -131 -22 -140 -23 -10 0 -18 -7 -18 -14 0 -8 6 -12 13 -9
17 6 138 33 213 46 33 6 105 11 159 11 97 0 205 17 205 32 0 5 5 8 10 8 6 0 9
-6 8 -12 -4 -16 201 -17 331 -2 80 9 86 12 110 45 45 59 154 169 168 169 21 0
7 40 -23 68 -32 28 -62 28 -104 -1z m95 -12 c41 -40 32 -57 -15 -29 -25 15
-25 15 0 9 25 -6 25 -6 -3 19 -15 14 -23 26 -17 26 6 0 22 -11 35 -25z m-58 8
c-4 -3 -10 -3 -14 0 -3 4 0 7 7 7 7 0 10 -3 7 -7z m-53 -81 c-2 -29 24 -37 56
-17 14 9 -9 -25 -53 -78 -34 -40 -46 -1 -23 71 5 14 3 22 -4 22 -7 0 -6 5 2
15 19 21 24 18 22 -13z m96 3 c-7 -9 -15 -13 -18 -10 -3 2 1 11 8 20 7 9 15
13 18 10 3 -2 -1 -11 -8 -20z m-53 -12 c-4 -3 -10 -3 -14 0 -3 4 0 7 7 7 7 0
10 -3 7 -7z m-80 -25 c-3 -8 -6 -5 -6 6 -1 11 2 17 5 13 3 -3 4 -12 1 -19z"/>
<path d="M2476 1864 c-9 -24 -2 -26 12 -4 7 11 8 20 3 20 -5 0 -12 -7 -15 -16z"/>
<path d="M1707 1843 c-8 -19 -7 -30 7 -54 28 -48 13 -69 -24 -34 -22 21 -30
24 -30 13 0 -9 11 -23 25 -32 27 -17 33 -36 13 -36 -7 0 -41 -30 -76 -67 -38
-40 -66 -63 -69 -56 -3 9 -10 10 -23 3 -15 -8 -24 -5 -40 12 -16 17 -23 19
-33 9 -10 -10 -8 -11 6 -6 9 4 17 3 17 -3 0 -15 -24 -21 -59 -14 -32 7 -32 7
-2 40 33 35 91 46 91 17 0 -8 1 -15 3 -15 1 0 17 -4 35 -10 27 -7 32 -7 23 4
-7 9 -6 19 5 34 8 12 11 22 6 22 -14 0 -7 41 9 51 8 5 9 9 3 9 -16 0 -70 -28
-66 -35 4 -9 -12 -3 -36 13 -12 8 -25 12 -28 9 -3 -2 11 -15 30 -27 47 -29 45
-39 -5 -33 -38 6 -43 3 -96 -48 -96 -95 -145 -231 -136 -376 5 -73 5 -73 -37
-58 -23 8 -45 15 -49 15 -13 -1 45 -29 60 -30 9 0 23 -8 30 -17 13 -15 11 -16
-18 -10 -19 4 -33 2 -33 -3 0 -6 13 -10 30 -10 27 0 29 -2 20 -25 -5 -14 -6
-25 -2 -25 3 0 -10 -11 -31 -25 -34 -24 -40 -25 -77 -14 -33 10 -43 10 -53 -1
-10 -10 -8 -12 6 -7 10 4 34 0 54 -8 35 -15 36 -15 78 20 43 34 43 34 55 -11
19 -66 24 -46 6 22 -8 33 -18 111 -22 175 -8 132 20 249 74 306 15 15 27 31
28 36 1 4 2 10 3 14 0 4 6 2 13 -5 7 -7 23 -12 36 -12 13 0 20 -4 17 -10 -3
-5 -1 -10 4 -10 6 0 11 5 11 10 0 6 12 10 26 10 17 0 23 -4 18 -12 -6 -9 -3
-9 9 0 9 8 21 11 26 8 5 -4 12 -2 16 4 3 5 20 7 37 3 23 -5 29 -3 24 6 -5 7
-15 10 -23 7 -8 -4 -11 -2 -7 5 3 6 20 9 36 7 16 -3 31 -1 34 4 10 16 34 8 27
-9 -5 -13 2 -10 26 10 18 15 38 27 45 27 40 0 86 -72 86 -136 0 -19 5 -34 10
-34 29 0 -3 115 -42 152 -33 30 -62 35 -93 15 -12 -8 -36 -11 -60 -7 -40 5
-40 5 18 33 32 15 71 27 87 27 68 0 128 -97 117 -190 -4 -31 -2 -48 3 -45 6 4
10 18 10 33 0 21 2 24 10 12 8 -13 10 -12 10 3 0 10 5 15 10 12 6 -3 10 -18
10 -33 0 -17 12 -42 31 -62 30 -35 30 -35 4 11 -14 26 -26 63 -27 82 -1 24 -5
34 -14 30 -7 -3 -23 17 -39 49 -45 91 -97 128 -150 108 -36 -14 -42 -12 -19 5
10 8 34 15 53 15 33 0 34 1 15 14 -19 14 -19 15 5 40 14 14 21 27 18 27 -4 1
-10 2 -14 3 -5 1 -14 5 -20 9 -10 6 -13 -1 -13 -25 0 -25 -3 -29 -10 -18 -13
20 -13 77 1 82 15 5 1 35 -17 35 -9 0 -21 -11 -27 -24z"/>
<path d="M1254 1838 c-19 -21 -19 -21 6 -8 33 17 33 17 22 24 -5 3 -18 -4 -28
-16z"/>
<path d="M1894 1831 c21 -23 26 -26 26 -11 0 5 -10 15 -22 21 -23 12 -23 12
-4 -10z"/>
<path d="M2450 1835 c0 -8 4 -15 10 -15 5 0 7 7 4 15 -4 8 -8 15 -10 15 -2 0
-4 -7 -4 -15z"/>
<path d="M1652 1810 c0 -14 2 -19 5 -12 2 6 2 18 0 25 -3 6 -5 1 -5 -13z"/>
<path d="M1850 1810 c0 -7 3 -10 7 -7 3 4 3 10 0 14 -4 3 -7 0 -7 -7z"/>
<path d="M423 1803 c4 -3 10 -3 14 0 3 4 0 7 -7 7 -7 0 -10 -3 -7 -7z"/>
<path d="M513 1803 c4 -3 10 -3 14 0 3 4 0 7 -7 7 -7 0 -10 -3 -7 -7z"/>
<path d="M3245 1762 c13 -27 31 -89 40 -138 21 -123 33 -149 93 -212 23 -26
12 1 -21 47 -45 61 -57 107 -72 261 -1 14 -3 30 -3 36 -1 5 -15 20 -32 32 -29
22 -29 22 -5 -26z"/>
<path d="M460 1780 c8 -5 20 -10 25 -10 6 0 3 5 -5 10 -8 5 -19 10 -25 10 -5
0 -3 -5 5 -10z"/>
<path d="M1590 1781 c0 -12 31 -44 36 -38 3 2 1 13 -3 23 -8 20 -33 31 -33 15z"/>
<path d="M1930 1766 c0 -8 5 -18 10 -21 6 -3 10 1 10 9 0 8 -4 18 -10 21 -5 3
-10 -1 -10 -9z"/>
<path d="M2385 1770 c-3 -5 -2 -10 4 -10 5 0 13 5 16 10 3 6 2 10 -4 10 -5 0
-13 -4 -16 -10z"/>
<path d="M2942 1751 c13 -16 31 -34 42 -41 10 -6 3 6 -15 29 -19 22 -38 41
-42 41 -5 0 2 -13 15 -29z"/>
<path d="M3135 1770 c3 -5 8 -10 11 -10 3 0 2 5 -1 10 -3 6 -8 10 -11 10 -3 0
-2 -4 1 -10z"/>
<path d="M2463 1763 c4 -3 10 -3 14 0 3 4 0 7 -7 7 -7 0 -10 -3 -7 -7z"/>
<path d="M915 1750 c3 -5 8 -10 11 -10 3 0 2 5 -1 10 -3 6 -8 10 -11 10 -3 0
-2 -4 1 -10z"/>
<path d="M3290 1711 c0 -5 5 -13 10 -16 6 -3 10 -2 10 4 0 5 -4 13 -10 16 -5
3 -10 2 -10 -4z"/>
<path d="M2840 1705 c0 -5 5 -17 10 -25 5 -8 10 -10 10 -5 0 6 -5 17 -10 25
-5 8 -10 11 -10 5z"/>
<path d="M2905 1693 c26 -61 53 -185 58 -268 2 -17 15 -52 30 -77 21 -37 27
-59 27 -106 0 -47 6 -71 30 -115 17 -31 30 -69 31 -84 0 -16 5 -37 10 -48 9
-19 9 -18 5 3 -2 12 0 22 5 22 12 0 11 37 -1 45 -16 10 -11 22 8 20 35 -2 76
-43 62 -60 -11 -13 -10 -19 5 -33 18 -16 18 -16 6 0 -11 15 -11 19 2 24 10 3
13 12 10 22 -5 14 -3 14 15 -2 12 -11 22 -24 22 -31 0 -6 14 -21 31 -34 29
-21 29 -21 17 -2 -7 12 -16 21 -20 21 -5 0 -8 4 -8 9 0 6 -15 27 -34 47 -39
42 -60 140 -24 107 11 -10 18 -12 18 -5 0 7 -4 12 -8 12 -15 0 -30 45 -25 73
4 18 1 27 -7 27 -18 0 -39 31 -40 57 0 12 -4 24 -9 27 -13 8 -1 -44 20 -90 21
-46 24 -74 8 -74 -8 0 -8 -4 1 -15 6 -8 10 -22 8 -32 -5 -24 -51 24 -67 69
-11 30 -11 30 16 12 27 -17 27 -17 3 13 -14 17 -28 28 -32 26 -5 -2 -8 7 -8
21 0 14 -5 28 -11 32 -12 7 -11 -6 7 -81 3 -16 17 -44 30 -62 30 -40 33 -79 5
-64 -23 13 -46 67 -61 151 -7 36 -22 80 -32 98 -11 18 -22 49 -23 70 -9 93
-64 292 -81 292 -3 0 -3 -8 1 -17z m261 -610 c26 -35 26 -37 3 -18 -27 23 -39
37 -39 48 0 14 8 7 36 -30z"/>
<path d="M1595 1690 c-3 -6 1 -7 9 -4 18 7 21 14 7 14 -6 0 -13 -4 -16 -10z"/>
<path d="M1910 1690 c0 -7 3 -10 7 -7 3 4 3 10 0 14 -4 3 -7 0 -7 -7z"/>
<path d="M2330 1690 c-13 -8 -12 -10 3 -10 20 0 20 -1 8 -33 -5 -13 -12 -41
-15 -61 -3 -21 -11 -46 -16 -56 -12 -23 -13 -30 -2 -30 10 0 32 59 32 85 0 39
25 97 44 105 18 8 17 9 -9 9 -16 0 -37 -4 -45 -9z"/>
<path d="M1298 1683 c7 -3 16 -2 19 1 4 3 -2 6 -13 5 -11 0 -14 -3 -6 -6z"/>
<path d="M2690 1686 c0 -2 11 -6 25 -8 13 -3 22 -1 19 3 -5 9 -44 13 -44 5z"/>
<path d="M2025 1650 c3 -5 11 -10 16 -10 6 0 7 5 4 10 -3 6 -11 10 -16 10 -6
0 -7 -4 -4 -10z"/>
<path d="M3175 1640 c3 -5 8 -10 11 -10 3 0 2 5 -1 10 -3 6 -8 10 -11 10 -3 0
-2 -4 1 -10z"/>
<path d="M3360 1620 c0 -7 3 -10 7 -7 3 4 3 10 0 14 -4 3 -7 0 -7 -7z"/>
<path d="M2284 1588 c-4 -7 -3 -8 4 -4 12 7 16 16 8 16 -3 0 -8 -5 -12 -12z"/>
<path d="M3355 1580 c5 -8 12 -30 16 -50 7 -35 7 -35 8 1 1 23 -5 42 -16 50
-14 12 -16 12 -8 -1z"/>
<path d="M2880 1570 c0 -7 3 -10 7 -7 3 4 3 10 0 14 -4 3 -7 0 -7 -7z"/>
<path d="M1626 1555 c-9 -26 -7 -32 5 -12 6 10 9 21 6 23 -2 3 -7 -2 -11 -11z"/>
<path d="M2757 1543 c-13 -12 -7 -61 8 -67 12 -4 15 3 15 34 0 38 -8 49 -23
33z"/>
<path d="M1385 1530 c-3 -5 -1 -10 4 -10 6 0 11 5 11 10 0 6 -2 10 -4 10 -3 0
-8 -4 -11 -10z"/>
<path d="M2810 1519 c13 -23 33 -25 28 -2 -2 9 -11 17 -20 19 -15 2 -16 -1 -8
-17z"/>
<path d="M3020 1534 c0 -16 75 -144 78 -134 2 6 -3 19 -11 28 -9 9 -25 38 -36
65 -18 42 -31 59 -31 41z"/>
<path d="M2059 1505 c-4 -30 4 -68 21 -101 11 -21 16 -42 12 -48 -5 -6 -5 -27
-1 -46 3 -19 7 -29 8 -22 2 20 21 14 21 -7 0 -11 5 -23 10 -26 13 -8 13 11 0
36 -8 14 -6 27 5 49 15 29 15 31 -1 28 -9 -2 -19 3 -21 10 -3 6 2 12 11 12 9
0 16 4 16 9 0 5 -9 7 -19 4 -21 -5 -57 48 -48 71 3 7 1 19 -4 27 -5 8 -9 10
-10 4z m61 -165 c0 -5 -5 -10 -11 -10 -5 0 -7 5 -4 10 3 6 8 10 11 10 2 0 4
-4 4 -10z"/>
<path d="M3090 1470 c12 -23 24 -40 26 -37 7 7 -22 64 -37 72 -6 4 -1 -12 11
-35z"/>
<path d="M795 1490 c11 -5 27 -9 35 -9 9 0 8 4 -5 9 -11 5 -27 9 -35 9 -9 0
-8 -4 5 -9z"/>
<path d="M2890 1475 c0 -15 4 -24 10 -20 6 3 10 12 10 20 0 8 -4 17 -10 20 -6
4 -10 -5 -10 -20z"/>
<path d="M2113 1483 c4 -3 10 -3 14 0 3 4 0 7 -7 7 -7 0 -10 -3 -7 -7z"/>
<path d="M2711 1454 c0 -11 3 -14 6 -6 3 7 2 16 -1 19 -3 4 -6 -2 -5 -13z"/>
<path d="M2827 1463 c-3 -5 -2 -15 4 -23 11 -19 12 -83 0 -95 -18 -20 4 -123
32 -153 15 -15 27 -33 27 -40 0 -7 5 -12 10 -12 18 0 11 18 -20 52 -30 32 -40
68 -19 68 7 0 9 16 5 48 -4 26 -9 70 -12 97 -6 50 -17 74 -27 58z m20 -165
c-3 -8 -6 -5 -6 6 -1 11 2 17 5 13 3 -3 4 -12 1 -19z"/>
<path d="M350 1444 c-45 -14 -45 -14 -6 -9 22 2 44 9 50 15 5 5 8 9 6 9 -3 -1
-25 -8 -50 -15z"/>
<path d="M839 1420 c-17 -21 -35 -38 -38 -35 -4 2 -13 0 -21 -6 -13 -7 -13 -9
0 -9 8 0 -12 -10 -45 -21 -33 -11 -64 -25 -69 -30 -17 -16 12 -10 51 11 21 11
45 20 55 20 22 0 122 96 109 104 -5 4 -24 -12 -42 -34z"/>
<path d="M278 1433 c7 -3 16 -2 19 1 4 3 -2 6 -13 5 -11 0 -14 -3 -6 -6z"/>
<path d="M1326 1424 c-13 -33 -5 -86 19 -134 13 -26 29 -67 34 -91 10 -42 7
-52 -25 -112 -14 -26 -14 -34 2 -88 23 -77 37 -77 16 1 -16 60 -16 60 13 114
32 59 35 42 -28 176 -13 27 -21 66 -22 97 0 59 0 60 -9 37z"/>
<path d="M3000 1428 c0 -4 9 -22 20 -40 12 -20 20 -26 20 -17 0 16 -39 72 -40
57z"/>
<path d="M3121 1405 c-1 -19 33 -85 44 -85 2 0 -4 17 -14 38 -10 20 -21 44
-24 52 -4 11 -6 9 -6 -5z"/>
<path d="M2713 1398 c4 -11 2 -17 -6 -15 -8 1 -13 -20 -15 -71 -3 -68 -1 -76
23 -97 14 -13 25 -30 25 -37 0 -8 4 -7 10 3 7 12 5 26 -4 44 -8 15 -12 34 -9
41 3 8 -2 17 -11 20 -9 3 -16 10 -16 15 0 4 8 5 17 2 13 -5 15 -3 8 13 -5 10
-9 33 -9 51 -1 17 -5 35 -10 40 -5 5 -7 1 -3 -9z m17 -163 c0 -8 -2 -15 -4
-15 -2 0 -6 7 -10 15 -3 8 -1 15 4 15 6 0 10 -7 10 -15z"/>
<path d="M2929 1387 c13 -34 51 -94 51 -81 0 12 -49 104 -56 104 -2 0 0 -10 5
-23z"/>
<path d="M2570 1390 c0 -7 3 -10 7 -7 3 4 3 10 0 14 -4 3 -7 0 -7 -7z"/>
<path d="M2870 1395 c0 -4 11 -22 24 -39 44 -58 94 -213 80 -249 -7 -20 -9
-20 -35 -7 -13 7 -19 7 -19 1 0 -17 51 -26 60 -11 10 15 24 -9 35 -57 3 -18
15 -49 26 -70 19 -38 19 -38 15 -2 -2 20 -12 51 -21 69 -26 49 -53 138 -61
197 -3 29 -10 50 -15 48 -4 -3 -11 5 -15 17 -4 13 -18 39 -32 58 -36 48 -42
55 -42 45z m167 -402 c-4 -3 -7 0 -7 7 0 7 3 10 7 7 3 -4 3 -10 0 -14z"/>
<path d="M3355 1380 c3 -5 8 -10 11 -10 3 0 2 5 -1 10 -3 6 -8 10 -11 10 -3 0
-2 -4 1 -10z"/>
<path d="M3310 1340 c0 -5 5 -10 11 -10 5 0 7 5 4 10 -3 6 -8 10 -11 10 -2 0
-4 -4 -4 -10z"/>
<path d="M2010 1322 c0 -12 39 -60 40 -49 0 5 -9 20 -20 34 -11 14 -20 21 -20
15z"/>
<path d="M1177 1304 c-44 -24 -26 -27 24 -4 26 11 36 19 24 19 -11 0 -33 -7
-48 -15z"/>
<path d="M3310 1310 c0 -7 3 -10 7 -7 3 4 3 10 0 14 -4 3 -7 0 -7 -7z"/>
<path d="M615 1300 c-4 -6 1 -7 11 -3 13 5 15 3 9 -7 -5 -9 -4 -11 4 -6 6 4 9
12 6 17 -8 12 -22 12 -30 -1z"/>
<path d="M2760 1300 c0 -5 5 -10 10 -10 6 0 10 5 10 10 0 6 -4 10 -10 10 -5 0
-10 -4 -10 -10z"/>
<path d="M3268 1276 c-3 -14 -2 -26 3 -26 13 0 31 -80 24 -109 -6 -23 -5 -25
9 -11 14 14 15 21 1 73 -18 68 -18 67 -6 67 5 0 11 -10 14 -22 8 -31 16 -19
10 14 -3 18 -10 25 -20 21 -8 -3 -18 0 -23 6 -5 9 -9 4 -12 -13z"/>
<path d="M584 1278 c-4 -7 -3 -8 4 -4 7 4 12 9 12 12 0 8 -9 4 -16 -8z"/>
<path d="M2880 1282 c0 -12 19 -26 26 -19 2 2 -2 10 -11 17 -9 8 -15 8 -15 2z"/>
<path d="M1123 1273 c4 -3 10 -3 14 0 3 4 0 7 -7 7 -7 0 -10 -3 -7 -7z"/>
<path d="M532 1249 c-18 -11 -38 -17 -43 -14 -5 4 -9 2 -9 -4 0 -5 -20 -19
-46 -31 -25 -12 -43 -24 -40 -27 2 -2 12 0 23 6 10 6 43 22 74 36 32 14 62 32
69 40 16 19 13 18 -28 -6z"/>
<path d="M2760 1249 c0 -9 13 -31 29 -48 35 -38 31 -11 -5 34 -17 21 -24 25
-24 14z"/>
<path d="M2898 1245 c-15 -15 41 -125 64 -125 7 0 7 4 -1 13 -6 8 -8 17 -4 20
3 4 -2 16 -12 28 -17 17 -17 22 -5 30 12 8 10 9 -7 4 -17 -5 -22 -1 -25 16 -2
11 -6 18 -10 14z"/>
<path d="M2492 1200 c0 -19 4 -46 8 -60 11 -35 12 2 1 55 -9 40 -9 40 -9 5z"/>
<path d="M2810 1223 c0 -5 5 -15 10 -23 8 -12 10 -11 10 8 0 12 -4 22 -10 22
-5 0 -10 -3 -10 -7z"/>
<path d="M755 1199 c-22 -4 -60 -8 -85 -9 -60 -1 -101 -30 -80 -56 9 -11 10
-15 3 -10 -9 5 -13 0 -13 -13 0 -35 63 -87 142 -116 40 -14 82 -30 93 -35 11
-5 30 -12 43 -15 13 -4 22 -14 22 -25 0 -22 22 -39 28 -22 6 19 26 14 70 -18
23 -17 46 -30 52 -30 5 0 18 -9 28 -20 19 -21 19 -21 18 9 -1 25 -4 29 -22 25
-14 -4 -37 6 -68 27 -41 30 -44 34 -31 49 8 9 15 20 15 25 0 5 -9 -1 -20 -13
-12 -12 -30 -22 -41 -22 -18 0 -16 5 15 42 20 23 36 46 36 52 0 6 -17 -9 -38
-33 -39 -45 -39 -45 -94 -18 -30 15 -60 27 -65 27 -6 0 -13 7 -17 15 -3 10 1
15 11 15 31 0 -1 18 -37 22 -26 2 -35 8 -34 20 1 10 -1 16 -5 15 -8 -3 -81 53
-81 63 0 14 54 28 130 35 180 15 198 15 236 2 76 -28 78 -28 34 -3 -48 27
-156 34 -245 15z m-110 -120 c-4 -5 1 -9 9 -9 8 0 20 -9 26 -20 14 -26 -10
-28 -32 -2 -16 18 -21 55 -6 46 5 -3 6 -10 3 -15z"/>
<path d="M2650 1208 c0 -2 9 -25 20 -53 20 -48 20 -22 0 30 -8 20 -20 34 -20
23z"/>
<path d="M2772 1170 c7 -11 16 -20 20 -20 5 0 3 9 -4 20 -7 11 -16 20 -20 20
-5 0 -3 -9 4 -20z"/>
<path d="M3003 1164 c-7 -20 12 -41 22 -23 6 8 4 10 -5 4 -9 -5 -10 -2 -5 14
7 24 -3 29 -12 5z"/>
<path d="M3365 1170 c4 -6 11 -8 16 -5 14 9 11 15 -7 15 -8 0 -12 -5 -9 -10z"/>
<path d="M915 1162 c6 -5 24 -13 40 -16 19 -5 26 -4 20 2 -5 5 -23 13 -40 16
-19 5 -26 4 -20 -2z"/>
<path d="M356 1145 c-10 -8 -22 -12 -26 -10 -4 3 -13 -2 -20 -10 -10 -12 -10
-15 0 -15 16 0 70 32 70 42 0 10 -2 10 -24 -7z"/>
<path d="M795 1135 c-36 -30 -62 -35 -97 -18 -16 8 -28 9 -28 4 0 -5 9 -13 21
-16 11 -4 18 -9 15 -12 -3 -4 6 -12 20 -20 29 -15 174 -18 174 -4 0 5 -8 7
-18 4 -10 -2 -26 5 -36 16 -14 15 -15 21 -6 21 11 0 11 3 2 12 -10 10 -15 10
-22 -2 -7 -10 -5 -19 6 -27 20 -15 -11 -26 -52 -19 -35 7 -56 26 -27 26 11 0
32 9 46 20 14 11 32 20 40 20 18 0 104 -48 97 -54 -6 -5 38 -40 63 -49 10 -4
16 -3 12 2 -3 5 11 19 30 31 31 19 36 20 50 6 10 -10 27 -13 48 -11 17 3 51 8
75 11 23 3 42 10 42 16 0 5 -8 7 -17 4 -29 -8 -112 -10 -119 -3 -4 4 1 7 12 8
14 1 13 3 -6 8 -18 5 -40 -1 -76 -20 -43 -23 -53 -26 -65 -14 -16 16 -137 85
-148 85 -5 0 -21 -11 -36 -25z m183 -80 c-3 -3 -9 2 -12 12 -6 14 -5 15 5 6 7
-7 10 -15 7 -18z m179 18 c-4 -3 -10 -3 -14 0 -3 4 0 7 7 7 7 0 10 -3 7 -7z"/>
<path d="M2380 1150 c0 -7 3 -10 7 -7 3 4 3 10 0 14 -4 3 -7 0 -7 -7z"/>
<path d="M2860 1138 c8 -8 21 -20 29 -28 12 -12 11 -10 0 9 -9 14 -22 27 -30
29 -11 3 -11 1 1 -10z"/>
<path d="M3245 1140 c3 -5 8 -10 11 -10 3 0 2 5 -1 10 -3 6 -8 10 -11 10 -3 0
-2 -4 1 -10z"/>
<path d="M2760 1130 c0 -7 3 -10 7 -7 3 4 3 10 0 14 -4 3 -7 0 -7 -7z"/>
<path d="M1183 1123 c4 -3 10 -3 14 0 3 4 0 7 -7 7 -7 0 -10 -3 -7 -7z"/>
<path d="M1153 1113 c4 -3 10 -3 14 0 3 4 0 7 -7 7 -7 0 -10 -3 -7 -7z"/>
<path d="M3278 1073 c37 -34 58 -64 32 -48 -13 8 18 -67 36 -85 18 -18 18 -1
1 25 -8 11 -17 29 -20 40 -7 20 -7 20 8 1 8 -11 17 -17 21 -14 8 8 -74 96
-100 109 -12 6 -2 -7 22 -28z"/>
<path d="M3330 1101 c0 -5 7 -15 17 -22 15 -13 15 -12 4 9 -12 23 -21 28 -21
13z"/>
<path d="M2896 1045 c-9 -26 -7 -32 5 -12 6 10 9 21 6 23 -2 3 -7 -2 -11 -11z"/>
<path d="M3265 1050 c3 -5 8 -10 11 -10 3 0 2 5 -1 10 -3 6 -8 10 -11 10 -3 0
-2 -4 1 -10z"/>
<path d="M1024 1028 c-4 -7 -3 -8 4 -4 7 4 12 9 12 12 0 8 -9 4 -16 -8z"/>
<path d="M1072 974 c-12 -8 -1 -9 42 -3 32 4 60 10 63 13 11 11 -89 1 -105
-10z"/>
<path d="M463 973 c4 -3 10 -3 14 0 3 4 0 7 -7 7 -7 0 -10 -3 -7 -7z"/>
<path d="M3191 957 c-1 -25 17 -57 32 -57 9 0 9 2 -1 9 -7 4 -17 21 -22 37 -5
17 -9 21 -9 11z"/>
<path d="M3240 962 c0 -5 10 -17 22 -28 21 -19 21 -19 3 9 -18 28 -25 33 -25
19z"/>
<path d="M500 942 c0 -5 7 -13 16 -16 10 -4 14 -1 12 6 -5 15 -28 23 -28 10z"/>
<path d="M546 909 c-8 -43 -8 -49 5 -49 6 0 39 -13 73 -29 47 -22 81 -30 151
-35 111 -8 140 -11 185 -21 25 -5 32 -4 24 4 -12 13 -133 30 -224 31 -58 1
-219 56 -172 59 6 1 12 8 12 16 0 20 -10 19 -27 -2 -13 -16 -13 -15 -8 14 3
17 2 34 -3 37 -5 3 -12 -8 -16 -25z"/>
<path d="M1390 920 c0 -7 3 -10 7 -7 3 4 3 10 0 14 -4 3 -7 0 -7 -7z"/>
<path d="M3321 913 c7 -12 15 -20 18 -17 3 2 -3 12 -13 22 -17 16 -18 16 -5
-5z"/>
<path d="M3082 894 c10 -11 24 -37 33 -58 9 -21 18 -36 21 -33 8 8 -32 81 -53
97 -17 14 -17 14 -1 -6z"/>
<path d="M3243 893 c4 -3 10 -3 14 0 3 4 0 7 -7 7 -7 0 -10 -3 -7 -7z"/>
<path d="M1211 851 c-18 -17 -42 -33 -54 -37 -12 -3 -33 -13 -47 -22 -13 -8
-38 -19 -55 -23 -30 -7 -30 -7 0 -8 17 0 44 8 60 19 17 11 40 20 52 20 12 0
28 8 35 18 28 40 64 55 103 42 39 -13 40 -15 22 -85 -13 -50 -13 -50 -110 -53
-69 -2 -111 2 -144 13 -48 16 -130 18 -140 2 -3 -5 14 -7 38 -5 24 3 64 -1 89
-8 25 -7 95 -14 155 -16 110 -3 110 -3 125 71 14 70 13 74 -5 87 -33 24 -89
18 -124 -15z"/>
<path d="M912 835 c0 -16 2 -22 5 -12 2 9 2 23 0 30 -3 6 -5 -1 -5 -18z"/>
<path d="M824 714 c-10 -8 -13 -12 -5 -8 9 4 12 3 7 -4 -4 -7 -15 -8 -30 -2
-20 7 -22 6 -18 -15 3 -16 -3 -29 -18 -42 -12 -10 -38 -35 -58 -55 -30 -33
-41 -38 -79 -38 -24 0 -53 -5 -64 -10 -21 -12 -26 -40 -6 -40 22 0 79 -62 73
-79 -2 -9 -12 -36 -21 -61 -19 -52 -30 -147 -21 -183 5 -20 20 -29 83 -51 43
-15 86 -32 96 -37 21 -11 22 -3 3 17 -8 8 -25 14 -38 15 -22 0 -122 37 -104
38 5 1 4 7 -2 14 -19 22 -10 159 11 182 29 31 77 102 77 114 0 6 5 11 10 11 6
0 10 -7 10 -15 0 -10 10 -15 28 -15 15 -1 38 -10 51 -21 24 -20 24 -20 -8 -51
-45 -44 -41 -82 9 -86 19 -2 32 0 28 4 -4 3 -18 7 -30 8 -30 1 -34 26 -8 59
18 22 24 25 47 16 14 -5 28 -7 31 -5 3 3 -3 8 -12 12 -19 7 -21 31 -3 37 17 5
47 -4 47 -15 0 -5 9 -6 20 -3 12 4 27 1 35 -5 8 -7 15 -8 15 -3 0 9 35 28 106
58 44 18 84 13 84 -9 0 -9 9 -12 25 -8 15 2 25 0 25 -7 0 -6 6 -11 13 -11 16
0 49 -35 67 -69 15 -29 -19 -66 -51 -56 -10 4 -27 2 -36 -4 -15 -8 -10 -10 23
-11 40 0 52 8 94 64 13 18 13 19 -1 14 -11 -4 -21 3 -33 23 -23 39 -13 53 24
34 16 -8 33 -15 37 -15 4 1 -10 10 -32 22 -26 14 -40 17 -43 9 -6 -17 -27 -13
-47 9 -17 18 -16 19 9 26 14 3 40 1 57 -5 18 -6 42 -11 54 -11 12 0 31 -11 43
-25 21 -24 50 -36 37 -15 -10 16 7 11 50 -15 22 -14 50 -29 63 -35 13 -5 20
-14 17 -20 -8 -13 -35 -13 -35 0 0 12 -55 -14 -66 -31 -5 -8 -1 -8 14 0 29 15
95 14 90 -1 -3 -7 11 -18 31 -25 44 -15 52 -10 10 7 -26 11 -30 17 -25 40 4
23 0 29 -31 44 -19 9 -34 19 -31 21 2 2 50 -19 107 -48 102 -52 102 -52 99
-89 -2 -24 0 -34 6 -28 15 15 34 12 57 -11 19 -19 19 -22 5 -38 -18 -20 -118
-47 -135 -37 -6 4 -11 0 -11 -9 0 -11 6 -15 18 -11 9 2 36 7 59 11 71 11 113
56 78 85 -22 18 -18 33 7 27 12 -4 28 -1 36 6 16 13 81 10 98 -4 6 -5 14 -6
17 -3 3 4 11 -5 18 -19 11 -24 56 -53 67 -42 3 3 1 5 -4 5 -6 0 -21 10 -33 21
-23 22 -23 22 43 55 37 19 74 34 82 34 8 0 13 4 10 9 -8 12 19 33 29 23 5 -4
5 -2 2 5 -4 7 12 22 40 39 30 17 48 23 51 16 2 -7 8 -12 14 -12 7 0 7 4 0 13
-8 9 -6 19 7 35 17 23 17 23 58 -45 58 -98 82 -159 93 -230 4 -34 12 -67 15
-74 11 -17 -16 -29 -38 -17 -12 6 -23 6 -28 1 -6 -6 -5 -10 3 -11 36 -3 75
-16 91 -30 21 -18 22 -9 3 21 -8 12 -22 60 -30 107 -11 62 -30 114 -68 190
-70 142 -63 135 -112 96 -86 -70 -118 -82 -256 -90 -30 -2 -73 -10 -95 -18
-28 -10 -53 -11 -85 -5 -25 4 -62 6 -84 3 -31 -4 -56 4 -130 41 -50 25 -104
46 -121 47 -16 2 -46 11 -65 21 -65 34 -186 53 -219 35 -17 -8 -30 -8 -56 1
-30 11 -42 10 -87 -6 -29 -10 -69 -18 -89 -16 -21 1 -43 -4 -51 -13 -10 -9
-20 -11 -29 -5 -8 5 -27 9 -44 9 -16 0 -49 8 -73 18 -43 17 -43 17 -37 61 7
44 30 91 46 91 4 0 20 11 34 24 24 22 25 25 9 34 -37 21 -8 45 47 40 58 -6 53
7 -7 16 -29 4 -46 1 -60 -10z m2 -49 c18 -14 18 -14 -8 -15 -18 0 -28 5 -28
15 0 19 11 19 36 0z m-37 -42 c-29 -36 -80 -83 -89 -83 -6 0 -10 -5 -10 -10 0
-7 6 -7 20 0 25 13 20 -1 -27 -82 -35 -59 -66 -82 -38 -28 19 37 20 60 0 34
-14 -19 -14 -18 -15 4 0 12 -6 22 -12 22 -20 1 -64 38 -55 46 4 4 32 8 62 8
44 0 56 3 61 18 3 10 10 18 15 18 6 0 20 10 33 23 21 20 56 45 65 46 2 1 -3
-7 -10 -16z m201 -198 c-7 -8 -16 -15 -21 -15 -5 0 -9 7 -9 15 0 9 9 15 21 15
18 0 19 -2 9 -15z m1138 -96 c-2 -7 -33 -27 -68 -45 -60 -31 -67 -32 -88 -18
-13 8 -31 14 -40 13 -40 -4 -45 1 -22 21 23 20 31 21 118 25 23 1 45 5 49 8
11 12 55 8 51 -4z m-340 -20 c-10 -5 -18 -17 -18 -24 0 -22 -27 -18 -33 5 -5
21 5 28 43 29 22 0 23 -1 8 -10z m81 -15 c9 -8 -34 -34 -54 -32 -11 0 -28 -2
-37 -6 -10 -5 -23 -6 -30 -3 -7 3 -3 6 8 6 12 1 29 13 39 27 15 24 54 28 74 8z
m-1262 -26 c-3 -8 -6 -5 -6 6 -1 11 2 17 5 13 3 -3 4 -12 1 -19z m-10 -70 c-3
-8 -6 -5 -6 6 -1 11 2 17 5 13 3 -3 4 -12 1 -19z m18 -28 c3 -5 4 -10 1 -10
-3 0 -8 5 -11 10 -3 6 -4 10 -1 10 3 0 8 -4 11 -10z"/>
<path d="M644 498 c-4 -7 -3 -8 4 -4 7 4 12 9 12 12 0 8 -9 4 -16 -8z"/>
<path d="M1136 405 c-3 -9 -20 -22 -38 -30 -18 -8 -26 -14 -17 -15 8 0 24 7
35 15 26 20 40 19 65 -6 11 -11 22 -19 25 -17 2 3 -11 19 -30 37 -28 27 -34
30 -40 16z"/>
<path d="M2457 385 c-18 -13 -18 -14 2 -25 12 -6 22 -21 22 -33 1 -20 2 -20 6
-2 3 11 11 27 19 35 7 9 10 21 5 29 -6 9 -10 7 -14 -9 -3 -13 -10 -19 -17 -15
-6 4 -9 13 -6 21 7 17 6 17 -17 -1z"/>
<path d="M656 360 c-37 -45 -32 -58 5 -15 18 20 29 38 27 41 -3 3 -17 -9 -32
-26z"/>
<path d="M920 381 c0 -6 4 -13 10 -16 6 -3 7 1 4 9 -7 18 -14 21 -14 7z"/>
<path d="M1340 380 c0 -5 7 -10 15 -10 13 0 19 -11 17 -31 -1 -4 11 -17 26
-30 25 -23 26 -23 8 -1 -11 12 -16 25 -13 29 4 4 -3 17 -15 30 -23 24 -38 30
-38 13z"/>
<path d="M1043 373 c4 -3 10 -3 14 0 3 4 0 7 -7 7 -7 0 -10 -3 -7 -7z"/>
<path d="M1463 363 c-13 -8 -23 -19 -23 -24 0 -16 15 -9 33 16 21 29 20 29
-10 8z"/>
<path d="M2400 373 c0 -6 8 -17 18 -24 16 -13 16 -13 2 6 -8 11 -16 22 -17 24
-2 2 -3 0 -3 -6z"/>
<path d="M982 350 c13 -20 28 -27 28 -12 0 10 -22 32 -32 32 -5 0 -3 -9 4 -20z"/>
<path d="M1413 353 c4 -3 10 -3 14 0 3 4 0 7 -7 7 -7 0 -10 -3 -7 -7z"/>
<path d="M895 315 c16 -21 24 -39 19 -47 -6 -10 -4 -10 9 1 16 12 15 16 -11
46 -36 44 -50 44 -17 0z"/>
<path d="M1225 330 c3 -5 8 -10 11 -10 2 0 4 5 4 10 0 6 -5 10 -11 10 -5 0 -7
-4 -4 -10z"/>
<path d="M1163 323 c4 -3 10 -3 14 0 3 4 0 7 -7 7 -7 0 -10 -3 -7 -7z"/>
<path d="M2435 310 c3 -5 8 -10 11 -10 3 0 2 5 -1 10 -3 6 -8 10 -11 10 -3 0
-2 -4 1 -10z"/>
<path d="M1173 293 c4 -3 10 -3 14 0 3 4 0 7 -7 7 -7 0 -10 -3 -7 -7z"/>
<path d="M1683 293 c4 -3 10 -3 14 0 3 4 0 7 -7 7 -7 0 -10 -3 -7 -7z"/>
<path d="M739 258 c-24 -19 -24 -19 6 -5 17 7 37 12 47 10 9 -2 19 0 22 5 10
17 -52 9 -75 -10z"/>
<path d="M1045 270 c4 -6 11 -8 16 -5 14 9 11 15 -7 15 -8 0 -12 -5 -9 -10z"/>
<path d="M1350 271 c0 -6 5 -11 10 -11 6 0 10 -4 10 -10 0 -5 -24 -11 -52 -11
-53 -2 -53 -2 -1 -8 51 -6 103 -39 103 -66 0 -34 -93 -97 -119 -80 -6 3 -8 0
-5 -8 8 -21 -26 -30 -46 -12 -9 8 -22 15 -28 15 -7 0 -12 5 -12 10 0 6 -7 10
-16 10 -38 0 29 -40 116 -68 30 -10 32 -9 18 2 -24 18 -23 36 1 36 11 0 23 4
26 10 8 13 35 13 35 0 0 -5 -9 -19 -19 -29 -15 -15 -16 -21 -6 -25 7 -2 15 4
18 15 5 20 32 26 42 9 3 -5 22 -10 41 -10 20 0 35 -5 35 -12 1 -7 5 3 8 22 8
40 0 67 -9 30 -7 -31 -40 -37 -74 -14 -31 20 -33 44 -6 69 27 24 25 36 -10 70
-16 16 -30 34 -30 41 0 6 -7 17 -15 24 -10 9 -15 9 -15 1z"/>
<path d="M2185 260 c3 -5 8 -10 11 -10 3 0 2 5 -1 10 -3 6 -8 10 -11 10 -3 0
-2 -4 1 -10z"/>
<path d="M1675 240 c-3 -5 -1 -10 4 -10 6 0 11 5 11 10 0 6 -2 10 -4 10 -3 0
-8 -4 -11 -10z"/>
<path d="M768 213 c-12 -15 -13 -22 -3 -41 10 -19 14 -20 18 -8 4 9 2 16 -4
16 -6 0 -6 8 1 21 15 27 7 34 -12 12z"/>
<path d="M1560 210 c8 -5 22 -9 30 -9 10 0 8 3 -5 9 -27 12 -43 12 -25 0z"/>
<path d="M2170 210 c-13 -8 -13 -10 2 -10 9 0 20 5 23 10 8 13 -5 13 -25 0z"/>
<path d="M718 203 c7 -3 16 -2 19 1 4 3 -2 6 -13 5 -11 0 -14 -3 -6 -6z"/>
<path d="M1665 191 c-3 -6 10 -7 32 -4 50 8 55 13 10 13 -20 0 -38 -4 -42 -9z"/>
<path d="M1183 183 c4 -3 10 -3 14 0 3 4 0 7 -7 7 -7 0 -10 -3 -7 -7z"/>
<path d="M865 161 c-7 -22 -45 -37 -70 -28 -8 4 -17 2 -20 -3 -4 -6 9 -10 29
-10 19 0 45 -4 58 -9 13 -5 38 -6 56 -4 29 5 32 9 32 39 0 19 -4 34 -9 34 -5
0 -8 -13 -6 -30 4 -29 3 -30 -35 -30 -44 0 -45 2 -29 32 6 11 8 22 6 25 -3 2
-8 -5 -12 -16z"/>
<path d="M1450 174 c0 -6 7 -17 15 -24 23 -19 18 -39 -11 -51 -15 -5 -24 -12
-22 -15 11 -10 58 20 58 36 0 19 -39 72 -40 54z"/>
<path d="M1640 170 c0 -7 3 -10 7 -7 3 4 3 10 0 14 -4 3 -7 0 -7 -7z"/>
<path d="M2067 169 c7 -7 15 -10 18 -7 3 3 -2 9 -12 12 -14 6 -15 5 -6 -5z"/>
<path d="M2380 170 c0 -5 5 -10 11 -10 5 0 7 5 4 10 -3 6 -8 10 -11 10 -2 0
-4 -4 -4 -10z"/>
<path d="M990 160 c0 -7 3 -10 7 -7 3 4 3 10 0 14 -4 3 -7 0 -7 -7z"/>
<path d="M1521 165 c0 -5 6 -19 14 -29 8 -11 15 -15 15 -10 0 6 -7 19 -15 30
-8 10 -14 15 -14 9z"/>
<path d="M1575 160 c-3 -5 -1 -10 4 -10 6 0 11 5 11 10 0 6 -2 10 -4 10 -3 0
-8 -4 -11 -10z"/>
<path d="M1160 146 c0 -2 7 -7 16 -10 8 -3 12 -2 9 4 -6 10 -25 14 -25 6z"/>
<path d="M1080 120 c0 -7 3 -10 7 -7 3 4 3 10 0 14 -4 3 -7 0 -7 -7z"/>
<path d="M1200 120 c0 -7 3 -10 7 -7 3 4 3 10 0 14 -4 3 -7 0 -7 -7z"/>
<path d="M2251 127 c2 -2 18 -11 34 -21 30 -17 30 -17 6 3 -13 12 -28 21 -34
21 -6 0 -8 -1 -6 -3z"/>
<path d="M795 100 c-3 -5 -2 -10 4 -10 5 0 13 5 16 10 3 6 2 10 -4 10 -5 0
-13 -4 -16 -10z"/>
<path d="M1616 102 c-3 -6 3 -12 15 -15 12 -3 19 -1 16 6 -5 15 -24 20 -31 9z"/>
<path d="M970 86 c7 -7 13 -7 20 0 6 6 3 10 -10 10 -13 0 -16 -4 -10 -10z"/>
<path d="M1233 93 c9 -2 23 -2 30 0 6 3 -1 5 -18 5 -16 0 -22 -2 -12 -5z"/>
<path d="M1547 86 c17 -13 27 -14 40 -7 16 9 16 10 -4 11 -12 0 -30 3 -40 6
-13 5 -12 2 4 -10z"/>
<path d="M1100 80 c0 -7 3 -10 7 -7 3 4 3 10 0 14 -4 3 -7 0 -7 -7z"/>
<path d="M1133 66 c-4 -7 -15 -15 -23 -18 -10 -3 -8 -6 7 -10 16 -4 22 0 26
18 5 27 2 30 -10 10z"/>
<path d="M735 34 c-22 -18 -35 -34 -29 -34 12 0 79 58 73 64 -2 2 -22 -11 -44
-30z"/>
<path d="M1060 59 c-14 -6 -40 -8 -58 -5 -19 3 -30 1 -27 -5 9 -14 79 -11 101
6 22 17 19 18 -16 4z"/>
<path d="M1598 63 c7 -3 16 -2 19 1 4 3 -2 6 -13 5 -11 0 -14 -3 -6 -6z"/>
<path d="M2285 45 c34 -16 55 -18 73 -6 8 5 0 8 -24 9 -20 1 -46 4 -58 7 -11
2 -7 -2 9 -10z"/>
<path d="M1665 30 c-16 -17 -16 -20 -3 -15 9 4 19 13 22 21 7 19 2 18 -19 -6z"/>
<path d="M1540 30 c0 -7 3 -10 7 -7 3 4 3 10 0 14 -4 3 -7 0 -7 -7z"/>
<path d="M1151 26 c2 -2 15 -9 29 -15 24 -11 24 -11 6 3 -16 13 -49 24 -35 12z"/>
<path d="M1220 10 c-13 -8 -12 -10 3 -10 9 0 17 5 17 10 0 12 -1 12 -20 0z"/>
</g>
</svg>
