<?xml version="1.0" standalone="no"?>
<!DOCTYPE svg PUBLIC "-//W3C//DTD SVG 20010904//EN"
 "http://www.w3.org/TR/2001/REC-SVG-20010904/DTD/svg10.dtd">
<svg version="1.0" xmlns="http://www.w3.org/2000/svg"
 width="384.000000pt" height="256.000000pt" viewBox="0 0 384.000000 256.000000"
 preserveAspectRatio="xMidYMid meet">
<metadata>
Created by potrace 1.16, written by Peter Selinger 2001-2019
</metadata>
<g transform="translate(0.000000,256.000000) scale(0.100000,-0.100000)"
fill="#000000" stroke="none">
<path d="M436 2552 c-2 -2 -2 -35 1 -74 5 -70 5 -70 -18 -63 -24 6 -24 6 -3
-12 20 -17 22 -30 28 -201 5 -182 5 -182 -32 -197 -64 -26 -67 -29 -75 -96 -4
-37 -16 -75 -27 -91 -11 -15 -20 -33 -20 -40 0 -8 5 -6 11 5 13 21 33 23 25 1
-3 -9 -8 -69 -11 -133 -6 -140 -15 -249 -22 -275 -4 -13 -2 -16 8 -11 8 5 1
-6 -15 -23 -16 -18 -27 -34 -25 -37 3 -3 18 9 34 25 25 26 83 44 73 23 -2 -5
-10 -25 -18 -46 -9 -24 -19 -36 -28 -32 -8 3 -10 0 -6 -6 9 -15 69 -39 96 -38
14 0 4 6 -24 15 -48 15 -48 15 -20 64 22 40 31 48 47 44 37 -11 65 -74 33 -74
-10 0 -10 -2 -1 -8 19 -12 27 -487 8 -506 -13 -12 -13 -15 0 -20 21 -8 19 -20
-10 -54 -18 -22 -22 -32 -13 -35 9 -4 9 -6 1 -6 -6 -1 -9 -10 -6 -22 5 -17 10
-12 30 32 23 50 25 64 24 224 0 184 -8 398 -17 456 -5 31 -1 40 22 58 15 11
23 21 18 21 -4 0 -3 5 4 12 7 7 12 23 12 38 -1 25 -1 25 -14 -5 -24 -53 -44
-72 -55 -55 -8 11 -10 8 -8 -14 3 -36 -18 -45 -34 -14 -15 28 -24 381 -12 448
9 45 9 45 52 42 29 -3 41 0 36 7 -3 6 -21 11 -40 11 -18 0 -36 6 -38 13 -3 7
-6 5 -6 -5 -2 -39 -21 -15 -21 25 0 52 6 60 33 46 11 -7 17 -7 13 -1 -17 28
110 45 142 19 9 -7 16 -5 25 7 20 27 126 -22 127 -58 0 -5 -7 -3 -15 4 -9 8
-15 9 -15 2 0 -6 5 -14 10 -17 6 -3 10 -12 9 -18 0 -8 -2 -8 -6 1 -3 7 -18 19
-34 27 -26 14 -28 14 -22 -2 6 -16 4 -16 -15 1 -26 22 -31 19 -34 -18 -3 -30
-54 -61 -83 -50 -10 4 -15 0 -15 -13 0 -10 -5 -24 -12 -31 -9 -9 -8 -15 8 -26
19 -14 19 -15 -3 -38 -19 -20 -23 -36 -23 -84 -1 -54 -2 -57 -15 -40 -20 26
-20 0 0 -34 13 -23 14 -23 16 -5 1 17 2 16 9 -5 5 -16 7 5 6 58 -1 66 2 86 15
95 24 18 41 57 33 75 -6 14 -8 13 -14 -8 -6 -22 -8 -23 -15 -7 -10 24 11 45
50 49 30 3 30 3 33 -97 4 -157 20 -333 32 -353 9 -14 10 -10 5 18 -21 118 -31
435 -15 445 4 2 10 -64 13 -147 6 -135 32 -298 47 -298 18 0 24 49 12 99 -11
44 -11 55 -1 62 18 11 18 10 34 -58 18 -75 18 -84 0 -77 -8 4 -15 1 -15 -5 0
-6 13 -9 33 -7 17 2 42 4 54 5 13 1 21 6 18 14 -3 6 -9 51 -14 99 -6 48 -17
101 -26 118 -9 17 -18 59 -21 93 -3 34 -7 74 -9 90 -3 15 -1 27 4 27 4 0 11
-31 14 -68 9 -93 18 -132 29 -132 6 0 7 8 3 18 -3 9 -11 55 -15 102 -5 47 -14
86 -20 88 -5 2 -10 14 -10 27 0 42 -12 56 -66 80 -54 24 -54 24 -55 107 0 46
-2 153 -4 238 -2 85 -4 170 -4 188 -1 27 -5 32 -26 32 -25 0 -25 0 -20 -92 20
-359 12 -530 -17 -398 -6 31 -7 29 -4 -12 3 -44 2 -47 -18 -43 -11 2 -25 4
-30 4 -5 1 -3 7 3 15 14 16 13 196 0 196 -5 0 -6 -35 -2 -79 5 -63 3 -83 -10
-101 -16 -22 -16 -22 -21 11 -10 60 -14 399 -5 393 5 -3 10 -40 11 -82 1 -73
2 -74 8 -27 7 50 7 50 9 -15 1 -36 6 -72 12 -80 8 -12 9 -10 5 10 -3 14 -6 87
-7 163 -1 137 -1 137 -30 135 -17 -1 -32 -4 -33 -6z m34 -37 c0 -19 -4 -35
-10 -35 -11 0 -14 53 -3 63 11 12 13 8 13 -28z m205 -632 c8 4 23 3 33 0 13
-5 8 -9 -18 -14 -28 -6 -39 -3 -52 11 -24 26 -23 37 2 15 10 -9 26 -15 35 -12z
m-289 -56 c-4 -24 -7 -137 -7 -250 -1 -198 -2 -207 -20 -207 -19 0 -19 7 -14
193 7 254 13 307 37 307 6 0 8 -16 4 -43z m-39 11 c-3 -8 -6 -5 -6 6 -1 11 2
17 5 13 3 -3 4 -12 1 -19z m336 -22 c-23 -45 -31 -45 -30 -1 1 29 4 34 19 29
11 -3 18 0 18 7 0 7 2 10 5 7 3 -3 -2 -22 -12 -42z m27 -11 c0 -3 -7 -22 -15
-42 -18 -42 -18 -46 -5 -38 6 4 10 -10 10 -34 0 -23 -5 -41 -11 -41 -5 0 -7
-4 -4 -10 3 -5 0 -20 -6 -32 -13 -23 -13 -23 -20 2 -4 14 -7 39 -7 55 0 30 0
30 8 0 7 -28 8 -27 9 13 0 24 -3 41 -8 38 -14 -9 0 42 15 55 8 6 14 18 14 25
0 8 5 14 10 14 6 0 10 -2 10 -5z m23 -125 c7 -75 -7 -53 -18 30 -4 36 -4 51 3
45 5 -5 12 -39 15 -75z m-13 -75 c0 -8 -2 -15 -4 -15 -2 0 -6 7 -10 15 -3 8
-1 15 4 15 6 0 10 -7 10 -15z m23 -71 c-3 -8 0 -20 6 -27 8 -10 7 -14 -4 -14
-12 0 -15 13 -14 56 1 47 2 51 9 28 5 -16 6 -35 3 -43z m34 -11 c-2 -16 -4 -5
-4 22 0 28 2 40 4 28 2 -13 2 -35 0 -50z m13 -55 c0 -18 -2 -20 -9 -8 -6 8 -7
18 -5 22 9 14 14 9 14 -14z m-30 -9 c0 -5 -4 -9 -10 -9 -5 0 -10 7 -10 16 0 8
5 12 10 9 6 -3 10 -10 10 -16z"/>
<path d="M3190 2552 c0 -24 30 -32 120 -32 90 -1 186 -10 258 -25 31 -7 32 -7
32 29 0 20 -5 36 -11 36 -6 0 -8 -7 -5 -15 5 -14 -14 -15 -167 -11 -104 3
-173 9 -175 16 -4 12 -52 14 -52 2z"/>
<path d="M531 2534 c0 -11 3 -14 6 -6 3 7 2 16 -1 19 -3 4 -6 -2 -5 -13z"/>
<path d="M533 2455 c0 -33 2 -45 4 -27 2 18 2 45 0 60 -2 15 -4 0 -4 -33z"/>
<path d="M353 2456 c15 -14 33 -26 40 -26 13 1 -16 26 -48 41 -13 7 -10 1 8
-15z"/>
<path d="M374 2398 c-4 -7 -3 -8 4 -4 12 7 16 16 8 16 -3 0 -8 -5 -12 -12z"/>
<path d="M530 2340 c0 -7 3 -10 7 -7 3 4 3 10 0 14 -4 3 -7 0 -7 -7z"/>
<path d="M530 2260 c0 -7 3 -10 7 -7 3 4 3 10 0 14 -4 3 -7 0 -7 -7z"/>
<path d="M649 2150 c13 -11 31 -20 40 -20 9 0 3 8 -17 20 -41 25 -54 25 -23 0z"/>
<path d="M450 1980 c-13 -8 -12 -10 3 -10 9 0 17 5 17 10 0 12 -1 12 -20 0z"/>
<path d="M535 1980 c3 -5 8 -10 11 -10 2 0 4 5 4 10 0 6 -5 10 -11 10 -5 0 -7
-4 -4 -10z"/>
<path d="M420 1930 c0 -7 3 -10 7 -7 3 4 3 10 0 14 -4 3 -7 0 -7 -7z"/>
<path d="M445 1930 c7 -11 45 -20 45 -10 0 4 -11 10 -25 12 -13 3 -22 2 -20
-2z"/>
<path d="M2170 1835 c-91 -18 -239 -47 -330 -64 -91 -17 -197 -39 -237 -48
-54 -13 -78 -14 -95 -6 -20 9 -24 8 -24 -6 0 -15 8 -16 56 -10 30 4 62 10 70
13 9 4 51 13 95 20 112 19 451 83 505 95 221 49 232 45 244 -89 7 -68 5 -78
-13 -99 -12 -13 -21 -29 -20 -35 0 -6 3 -6 6 2 9 22 25 13 19 -12 -8 -34 42
-76 90 -76 20 0 33 -3 31 -7 -3 -5 18 -8 46 -9 29 0 79 -7 112 -15 58 -13 60
-15 61 -45 1 -26 -2 -31 -17 -27 -11 3 -19 0 -19 -6 0 -6 3 -10 8 -10 4 1 14
1 22 0 15 -1 6 -7 -100 -63 -66 -35 -283 -124 -325 -133 -16 -4 -39 -10 -50
-15 -11 -4 -47 -18 -80 -30 -33 -12 -73 -28 -90 -35 -16 -7 -50 -21 -75 -31
-25 -9 -49 -21 -55 -26 -24 -21 -41 -8 -44 34 -3 55 -11 63 -11 10 0 -35 -4
-43 -34 -61 -33 -21 -33 -21 -132 3 -229 57 -260 63 -274 57 -9 -3 -2 -8 20
-12 82 -15 267 -60 290 -71 14 -6 33 -10 43 -9 63 8 36 -232 -33 -286 -9 -7
-10 -12 -3 -13 6 0 23 14 37 31 27 31 27 31 21 2 -5 -29 -4 -30 41 -31 36 0
44 3 40 15 -5 11 -1 13 16 7 20 -6 21 -5 10 9 -8 10 -9 17 -3 22 24 14 23 -45
0 -65 -13 -10 -20 -19 -16 -20 4 0 17 8 28 19 12 11 29 16 43 14 13 -3 27 1
31 7 5 9 2 10 -12 6 -22 -7 -37 6 -48 44 -7 24 -7 23 17 -4 16 -19 29 -26 38
-21 9 6 7 11 -11 21 -24 13 -24 13 -2 14 30 0 97 -40 68 -41 -11 0 -15 -3 -9
-5 6 -3 21 -1 33 4 21 7 20 9 -13 22 -20 7 -36 18 -36 23 0 5 7 6 15 3 8 -3
22 -9 30 -12 8 -3 15 -1 15 5 0 6 -8 11 -17 12 -10 0 -13 3 -6 5 7 3 21 1 31
-5 11 -6 22 -8 26 -4 9 9 -26 32 -51 33 -12 0 -25 5 -28 11 -12 18 1 20 30 5
16 -8 32 -13 37 -10 5 3 15 0 23 -6 8 -7 15 -9 15 -5 0 4 -8 14 -17 21 -16 12
-15 13 15 14 17 0 32 4 32 8 0 5 -15 7 -32 5 -29 -3 -30 -2 -10 7 34 15 27 30
-9 20 -20 -6 -39 -6 -50 0 -11 7 -27 7 -43 0 -14 -5 -33 -7 -43 -3 -11 4 -14
3 -9 -5 4 -7 16 -12 27 -12 33 0 21 -19 -20 -31 -29 -8 -43 -8 -60 0 -23 13
-28 3 -8 -18 10 -11 8 -12 -10 -6 -18 5 -23 2 -23 -13 0 -28 -36 -70 -49 -57
-12 12 -2 195 11 195 5 0 25 -7 45 -15 32 -13 34 -13 23 0 -7 8 -27 19 -44 23
-25 7 -32 14 -34 38 -3 28 0 32 40 43 50 15 204 74 265 102 52 23 49 23 125 0
35 -11 110 -29 168 -41 143 -29 140 -28 107 -48 -15 -9 -27 -20 -27 -24 0 -15
17 -8 44 17 26 24 26 24 26 -1 0 -14 4 -23 10 -19 5 3 7 12 4 20 -6 15 28 37
52 33 11 -2 18 5 20 19 3 20 1 22 -23 12 -20 -7 -29 -6 -35 3 -7 10 -8 10 -6
-2 2 -8 0 -16 -5 -17 -20 -7 -29 0 -39 28 -7 20 -14 27 -20 21 -18 -18 -196
23 -223 51 -7 7 -6 8 2 3 6 -3 13 -2 15 2 3 10 120 52 141 52 8 0 14 -7 14
-15 0 -10 -4 -12 -12 -5 -7 5 -15 7 -18 3 -12 -12 -7 -23 10 -23 15 0 14 -2
-3 -15 -18 -15 -17 -16 13 -10 17 3 34 2 37 -3 3 -6 -3 -8 -14 -5 -12 3 -20 0
-20 -6 0 -7 5 -9 10 -6 6 3 10 2 10 -4 0 -7 8 -7 24 -1 13 5 27 6 30 3 3 -4 6
-4 6 -2 7 108 21 154 52 162 19 5 20 2 15 -106 -6 -124 7 -84 18 54 6 77 6 77
48 95 23 11 44 19 47 20 33 4 129 27 143 34 9 6 69 28 133 50 64 22 131 49
150 61 19 11 34 18 34 15 0 -3 26 6 58 20 31 14 73 27 92 28 37 2 86 24 76 33
-3 3 -11 1 -18 -4 -7 -6 -34 -13 -60 -16 -26 -4 -70 -17 -98 -31 -44 -21 -50
-22 -50 -8 -1 15 -2 15 -11 -1 -14 -23 -63 -46 -194 -92 -60 -21 -115 -42
-121 -47 -7 -5 -16 -8 -20 -7 -5 2 -27 -3 -49 -9 -55 -16 -55 -16 -55 21 0 48
-10 56 -80 66 -36 5 -76 13 -90 19 -14 5 -47 10 -75 11 -27 1 -65 9 -85 19
-37 18 -39 27 -29 129 1 12 -2 51 -6 88 -12 119 -30 123 -295 70z m649 -402
c1 -7 -3 -13 -9 -13 -5 0 -10 15 -9 33 0 27 2 29 9 12 5 -11 9 -26 9 -32z
m-209 -168 c0 -8 -4 -15 -10 -15 -5 0 -7 7 -4 15 4 8 8 15 10 15 2 0 4 -7 4
-15z m-183 -107 c32 -12 62 -25 66 -28 14 -13 -86 9 -138 30 -47 18 -48 19
-18 20 17 0 57 -10 90 -22z m193 -48 c29 -18 -1 -22 -52 -7 -53 15 -53 15 -8
16 25 0 52 -3 60 -9z m-470 -234 c-3 -5 4 -12 15 -17 16 -6 17 -8 3 -8 -9 -1
-21 5 -25 13 -4 7 -15 16 -23 19 -9 4 -4 6 10 4 14 -1 23 -6 20 -11z m-53 -51
c8 -22 -2 -28 -33 -21 -25 7 -26 8 -8 21 25 19 33 18 41 0z"/>
<path d="M2410 1831 c0 -5 7 -15 17 -22 15 -13 15 -12 4 9 -12 23 -21 28 -21
13z"/>
<path d="M2373 1763 c4 -3 10 -3 14 0 3 4 0 7 -7 7 -7 0 -10 -3 -7 -7z"/>
<path d="M2430 1760 c0 -7 3 -10 7 -7 3 4 3 10 0 14 -4 3 -7 0 -7 -7z"/>
<path d="M541 1747 c-2 -35 22 -162 32 -172 6 -7 7 -3 4 10 -3 11 -8 47 -12
79 -7 63 -23 117 -24 83z"/>
<path d="M2428 1693 c7 -3 16 -2 19 1 4 3 -2 6 -13 5 -11 0 -14 -3 -6 -6z"/>
<path d="M1419 1670 c-40 -21 -69 -50 -50 -50 8 0 11 -32 9 -112 -3 -132 14
-125 -168 -73 -114 32 -116 32 -217 21 -105 -12 -158 -29 -62 -20 54 5 54 5
-8 -16 -35 -11 -63 -25 -63 -31 0 -6 -4 -8 -8 -5 -5 3 -21 -2 -37 -10 -21 -11
-35 -12 -54 -5 -14 6 -57 9 -94 8 -65 -3 -68 -2 -73 23 -14 71 -22 86 -19 35
3 -44 1 -51 -16 -51 -10 0 -18 5 -17 11 2 5 0 11 -5 13 -4 1 -7 -1 -8 -5 0 -5
-6 -11 -12 -15 -8 -5 -7 -8 3 -9 24 -3 34 -6 52 -13 10 -5 35 -9 57 -9 21 -1
37 -5 35 -9 -2 -3 29 -16 69 -28 78 -24 205 -29 274 -11 21 5 61 13 88 16 28
3 88 15 135 25 85 18 85 18 23 17 -35 -1 -63 -6 -63 -12 0 -5 -7 -2 -14 8 -16
21 -30 22 -22 2 3 -9 0 -15 -8 -15 -7 0 -28 -3 -45 -6 -26 -5 -30 -4 -25 9 3
9 13 17 22 19 14 3 14 6 -6 26 -23 23 -48 31 -36 11 4 -7 -7 -4 -25 7 -17 10
-31 22 -31 26 0 18 121 6 219 -22 57 -17 110 -30 117 -30 8 0 11 -6 7 -16 -5
-14 -3 -15 16 -5 12 7 25 9 30 7 14 -9 22 24 11 44 -11 21 -13 125 -3 183 4
29 14 44 42 63 42 28 31 31 -20 4z m-682 -306 c-3 -3 -12 -4 -19 -1 -8 3 -5 6
6 6 11 1 17 -2 13 -5z m330 -1 c-4 -3 -10 -3 -14 0 -3 4 0 7 7 7 7 0 10 -3 7
-7z m-167 -24 c3 -1 13 -1 23 0 9 1 17 -3 17 -9 0 -14 -176 -8 -190 6 -8 8
124 11 150 3z m77 -6 c-4 -3 -7 0 -7 7 0 7 3 10 7 7 3 -4 3 -10 0 -14z"/>
<path d="M2395 1664 c-22 -7 -53 -13 -69 -13 -22 -1 -27 -5 -22 -18 4 -9 4
-42 0 -74 -7 -59 -7 -59 -78 -80 -92 -28 -123 -41 -76 -33 52 9 153 44 170 59
8 7 41 19 72 25 56 13 57 14 38 30 -24 21 -26 67 -3 92 22 24 15 27 -32 12z
m2 -69 c-2 -26 -8 -49 -11 -53 -10 -9 -26 19 -26 45 0 12 -5 25 -11 29 -8 4
-9 -1 -4 -16 5 -15 4 -20 -4 -16 -7 4 -11 -1 -11 -13 0 -14 5 -19 15 -15 26
10 16 -12 -11 -25 -26 -11 -26 -11 -19 31 4 24 8 48 9 53 2 16 19 25 50 25 28
0 29 -1 23 -45z"/>
<path d="M3435 1663 c-20 -16 -20 -16 0 -8 11 5 31 8 44 8 18 -1 20 1 10 8
-20 12 -31 11 -54 -8z"/>
<path d="M815 1660 c3 -5 11 -10 16 -10 6 0 7 5 4 10 -3 6 -11 10 -16 10 -6 0
-7 -4 -4 -10z"/>
<path d="M500 1640 c0 -7 3 -10 7 -7 3 4 3 10 0 14 -4 3 -7 0 -7 -7z"/>
<path d="M3360 1640 c-12 -8 -11 -10 7 -10 12 0 25 5 28 10 8 13 -15 13 -35 0z"/>
<path d="M1788 1633 c7 -3 16 -2 19 1 4 3 -2 6 -13 5 -11 0 -14 -3 -6 -6z"/>
<path d="M2200 1620 c-36 -10 -101 -27 -145 -40 -44 -12 -168 -44 -275 -71
-107 -27 -203 -52 -212 -55 -13 -4 -19 5 -26 38 -7 31 -10 36 -11 17 -1 -15 8
-47 19 -72 22 -50 38 -140 24 -135 -5 2 -11 -1 -14 -7 -13 -25 66 -13 202 31
81 27 145 50 143 52 -4 4 -120 -29 -222 -64 -84 -29 -93 -26 -93 24 0 20 -4
51 -9 69 -11 38 -17 35 229 98 258 66 473 125 478 130 9 9 -21 4 -88 -15z"/>
<path d="M1748 1623 c7 -3 16 -2 19 1 4 3 -2 6 -13 5 -11 0 -14 -3 -6 -6z"/>
<path d="M3306 1615 c-11 -8 -18 -17 -15 -19 2 -2 15 4 28 15 27 22 15 26 -13
4z"/>
<path d="M1703 1613 c4 -3 10 -3 14 0 3 4 0 7 -7 7 -7 0 -10 -3 -7 -7z"/>
<path d="M525 1589 c-4 -6 -5 -12 -2 -15 2 -3 7 2 10 11 7 17 1 20 -8 4z"/>
<path d="M1567 1548 c8 -59 13 -61 13 -5 0 26 -4 47 -9 47 -5 0 -7 -19 -4 -42z"/>
<path d="M431 1544 c-14 -32 -11 -36 10 -14 9 10 13 23 10 29 -5 7 -12 2 -20
-15z"/>
<path d="M3450 1521 c0 -6 6 -11 14 -11 8 0 23 -3 33 -6 12 -5 15 -4 8 3 -15
16 -55 26 -55 14z"/>
<path d="M2093 1433 c4 -3 10 -3 14 0 3 4 0 7 -7 7 -7 0 -10 -3 -7 -7z"/>
<path d="M2166 1431 c-4 -5 3 -7 14 -4 23 6 26 13 6 13 -8 0 -17 -4 -20 -9z"/>
<path d="M2020 1415 c-19 -7 -28 -13 -20 -13 8 0 31 6 50 13 19 7 28 13 20 13
-8 0 -31 -6 -50 -13z"/>
<path d="M1110 1396 c0 -2 7 -7 16 -10 8 -3 12 -2 9 4 -6 10 -25 14 -25 6z"/>
<path d="M1513 1386 c-30 -11 -31 -12 -17 -36 13 -22 14 -22 9 -3 -5 17 -1 22
25 28 16 4 30 11 30 16 0 11 -5 10 -47 -5z"/>
<path d="M1935 1390 c-13 -5 -14 -9 -5 -9 8 0 24 4 35 9 13 5 14 9 5 9 -8 0
-24 -4 -35 -9z"/>
<path d="M1437 1338 c24 -82 57 -119 105 -118 7 1 -1 7 -18 14 -40 18 -60 46
-75 107 -7 27 -16 49 -20 49 -5 0 -1 -24 8 -52z"/>
<path d="M1403 1153 c0 -121 3 -153 14 -153 7 0 13 -4 13 -10 0 -5 -7 -10 -15
-10 -16 0 -17 -16 -16 -222 0 -59 -4 -110 -9 -113 -6 -3 -10 -16 -9 -28 0 -21
1 -21 9 -2 6 13 9 -9 9 -66 1 -68 -2 -88 -14 -93 -20 -7 -55 66 -55 116 0 24
-4 37 -10 33 -6 -4 -10 8 -10 27 0 19 -4 38 -9 44 -5 5 -11 20 -14 34 -8 47 1
-34 13 -115 7 -44 17 -83 22 -86 7 -4 6 -9 -1 -13 -6 -4 -16 12 -24 41 -15 48
-15 48 -23 -2 -9 -50 -9 -50 -14 -5 -6 45 -6 45 -14 5 -4 -22 -14 -53 -22 -70
-15 -31 -15 -17 2 42 4 14 2 23 -5 23 -6 0 -11 -8 -11 -17 -1 -10 -8 -29 -16
-43 -15 -24 -15 -24 -10 20 3 25 9 64 14 88 13 59 -1 40 -16 -23 -8 -30 -22
-58 -37 -70 -29 -25 -46 -65 -38 -96 4 -17 2 -21 -5 -14 -5 6 -13 39 -16 75
-3 36 -10 79 -16 95 -8 24 -8 17 -4 -31 4 -40 2 -64 -5 -68 -6 -4 -10 -26 -9
-49 1 -37 2 -38 5 -9 2 17 9 32 14 32 5 0 6 -12 3 -28 -9 -37 -11 -39 -34 -45
-17 -4 -19 -2 -13 21 4 15 7 44 7 64 0 20 3 32 7 27 9 -16 16 22 9 56 -5 30
-5 30 -18 -11 -6 -23 -13 -57 -13 -75 -1 -34 -1 -34 -9 -4 -6 23 -8 16 -6 -30
1 -47 -2 -60 -14 -60 -8 0 -18 -4 -22 -10 -5 -6 -8 -3 -8 7 0 9 5 20 10 23 6
3 10 28 10 55 0 27 5 52 10 55 6 3 10 17 10 30 0 13 9 47 20 75 32 81 23 72
-27 -25 -47 -93 -82 -185 -83 -220 0 -11 -7 -29 -15 -39 -8 -10 -12 -23 -9
-27 3 -5 1 -9 -3 -9 -11 0 -43 53 -53 88 -8 27 -8 27 -9 2 0 -14 8 -44 18 -67
19 -41 19 -41 -1 -63 -24 -25 -18 -36 10 -21 27 14 27 14 48 -7 17 -16 17 -16
12 5 -7 25 16 34 25 11 3 -10 9 -10 26 0 11 6 29 12 38 12 16 0 16 2 3 11 -12
9 -10 10 8 6 34 -8 120 25 114 43 -4 12 -2 13 9 3 17 -14 55 9 44 26 -3 6 -1
11 4 11 6 0 11 -7 11 -15 0 -22 14 -19 49 11 17 14 31 21 31 16 0 -6 -5 -12
-12 -14 -9 -3 -9 -6 0 -12 7 -4 12 -2 12 3 0 6 7 11 16 11 8 0 13 4 9 9 -3 6
6 8 20 5 18 -3 25 0 25 11 0 8 9 15 20 15 25 0 27 20 3 21 -12 0 -13 2 -5 6 7
3 21 -2 32 -12 17 -16 18 -15 25 16 5 21 3 34 -5 39 -7 5 -9 13 -4 21 4 7 7
91 6 186 -1 166 -1 172 17 161 11 -6 17 -18 14 -25 -3 -7 -3 -13 1 -13 3 0 29
-9 58 -21 29 -11 47 -15 41 -8 -7 7 -18 14 -25 15 -21 3 -68 23 -68 28 0 3 19
3 43 1 42 -4 42 -4 -3 10 -66 22 -73 33 -74 117 -1 62 2 73 17 76 11 2 21 -5
26 -20 9 -21 10 -21 10 -3 1 12 -4 26 -10 32 -11 11 -3 37 9 29 18 -11 3 118
-17 143 -20 26 -20 26 -6 -11 27 -68 17 -128 -21 -128 -2 0 -5 53 -5 118 -1
64 -5 131 -8 147 -4 17 -8 -39 -8 -122z m-116 -650 c-4 -3 -7 0 -7 7 0 7 3 10
7 7 3 -4 3 -10 0 -14z m54 -43 c-4 -3 -11 -12 -14 -20 -3 -9 -6 -5 -6 11 -1
30 9 44 20 27 4 -7 4 -15 0 -18z m-376 -36 c-8 -27 -15 -58 -15 -69 0 -24 -16
-52 -25 -44 -3 4 6 43 20 89 15 45 28 80 31 78 2 -3 -3 -27 -11 -54z m207 7
c1 -23 -4 -47 -11 -54 -9 -9 -11 -1 -7 38 2 28 5 54 5 59 2 25 11 -6 13 -43z
m90 19 c-2 -16 -6 -30 -8 -30 -2 0 -4 14 -4 30 0 17 4 30 8 30 5 0 7 -13 4
-30z m40 0 c-2 -16 -8 -28 -12 -25 -5 3 -11 -1 -13 -7 -3 -7 -6 -3 -6 10 -1
15 3 21 11 16 7 -5 9 -2 5 8 -3 9 -3 19 0 22 14 13 19 4 15 -24z m55 -7 c-4
-3 -10 -3 -14 0 -3 4 0 7 7 7 7 0 10 -3 7 -7z m-226 -35 c-3 -21 -6 -26 -9
-15 -3 17 3 47 11 47 2 0 1 -15 -2 -32z m96 5 c-4 -3 -7 0 -7 7 0 7 3 10 7 7
3 -4 3 -10 0 -14z m171 -9 c-4 -3 -17 -2 -30 2 -22 7 -22 7 -3 14 20 8 44 -4
33 -16z m-201 -6 c-3 -8 -6 -5 -6 6 -1 11 2 17 5 13 3 -3 4 -12 1 -19z m113
-8 c0 -5 -2 -10 -4 -10 -3 0 -8 5 -11 10 -3 6 -1 10 4 10 6 0 11 -4 11 -10z
m27 -7 c-4 -3 -7 0 -7 7 0 7 3 10 7 7 3 -4 3 -10 0 -14z m-57 -9 c0 -8 -4 -12
-10 -9 -5 3 -10 10 -10 16 0 5 5 9 10 9 6 0 10 -7 10 -16z m-87 -24 c3 -11 1
-20 -4 -20 -5 0 -9 9 -9 20 0 11 2 20 4 20 2 0 6 -9 9 -20z m40 0 c3 -11 1
-18 -4 -14 -5 3 -9 12 -9 20 0 20 7 17 13 -6z m92 10 c3 -5 4 -10 1 -10 -3 0
-8 5 -11 10 -3 6 -4 10 -1 10 3 0 8 -4 11 -10z m-175 -14 c0 -3 -4 -8 -10 -11
-5 -3 -10 -1 -10 4 0 6 5 11 10 11 6 0 10 -2 10 -4z m-100 -37 c0 -6 -7 -9
-15 -5 -8 3 -21 -2 -30 -10 -8 -9 -15 -12 -16 -7 0 4 -3 1 -7 -8 -6 -14 -9
-15 -20 -3 -10 11 -7 16 20 28 41 18 68 20 68 5z m57 -6 c-4 -3 -7 0 -7 7 0 7
3 10 7 7 3 -4 3 -10 0 -14z m-167 -37 c0 -8 -7 -16 -15 -20 -17 -6 -18 -4 -9
18 8 20 24 21 24 2z m77 -23 c-4 -3 -7 0 -7 7 0 7 3 10 7 7 3 -4 3 -10 0 -14z"/>
<path d="M1660 1191 c19 -13 116 -34 133 -28 6 2 -15 9 -48 15 -33 6 -69 13
-80 17 -16 6 -17 5 -5 -4z"/>
<path d="M1837 1149 c7 -7 15 -10 18 -7 3 3 -2 9 -12 12 -14 6 -15 5 -6 -5z"/>
<path d="M2016 1122 c-3 -6 -1 -14 5 -17 14 -9 20 -2 10 14 -6 8 -11 9 -15 3z"/>
<path d="M1270 1100 c0 -7 3 -10 7 -7 3 4 3 10 0 14 -4 3 -7 0 -7 -7z"/>
<path d="M2544 1064 c11 -8 27 -14 35 -14 12 1 11 4 -4 12 -30 18 -54 20 -31
2z"/>
<path d="M746 1036 c3 -22 5 -78 5 -124 -1 -104 8 -103 14 1 3 49 -1 91 -10
119 -15 43 -15 43 -9 4z"/>
<path d="M1261 1054 c0 -11 3 -14 6 -6 3 7 2 16 -1 19 -3 4 -6 -2 -5 -13z"/>
<path d="M2488 1053 c7 -3 16 -2 19 1 4 3 -2 6 -13 5 -11 0 -14 -3 -6 -6z"/>
<path d="M2418 1043 c7 -3 16 -2 19 1 4 3 -2 6 -13 5 -11 0 -14 -3 -6 -6z"/>
<path d="M1253 970 c0 -36 2 -50 4 -32 2 17 2 47 0 65 -2 17 -4 3 -4 -33z"/>
<path d="M2560 1011 c0 -5 7 -11 15 -15 21 -8 19 -28 -2 -24 -10 1 -23 -1 -30
-5 -16 -10 -5 -37 16 -36 10 0 11 2 4 6 -24 9 -13 20 26 27 22 3 42 10 45 15
4 5 -3 7 -13 4 -13 -3 -23 2 -30 16 -12 21 -31 29 -31 12z"/>
<path d="M2375 1000 c-3 -5 -13 -6 -22 -3 -10 4 -14 2 -9 -5 3 -6 -3 -13 -14
-17 -11 -3 -20 -10 -20 -16 0 -5 -10 -9 -22 -9 -128 -4 -157 -10 -105 -24 47
-12 87 -5 132 23 42 26 85 32 85 11 0 -5 10 -6 23 -3 15 4 19 2 12 -4 -14 -15
-73 -24 -80 -13 -3 5 -12 7 -20 4 -8 -4 -13 -10 -10 -15 3 -4 13 -5 22 -2 14
5 13 0 -5 -24 -14 -20 -18 -34 -12 -38 5 -3 10 0 10 8 0 10 7 14 23 10 16 -3
18 -2 8 5 -20 15 -6 28 41 40 24 6 52 18 63 27 20 16 20 16 -2 10 -29 -8 -51
4 -32 17 10 7 7 8 -9 5 -13 -3 -31 -3 -40 1 -12 5 -7 9 18 13 35 6 35 6 3 8
-17 0 -34 -3 -38 -9z"/>
<path d="M2264 988 c-4 -7 -3 -8 4 -4 12 7 16 16 8 16 -3 0 -8 -5 -12 -12z"/>
<path d="M2465 990 c-3 -5 -2 -10 4 -10 5 0 13 5 16 10 3 6 2 10 -4 10 -5 0
-13 -4 -16 -10z"/>
<path d="M2680 990 c0 -7 3 -10 7 -7 3 4 3 10 0 14 -4 3 -7 0 -7 -7z"/>
<path d="M1331 974 c0 -11 3 -14 6 -6 3 7 2 16 -1 19 -3 4 -6 -2 -5 -13z"/>
<path d="M2505 980 c-3 -5 -2 -10 4 -10 5 0 13 5 16 10 3 6 2 10 -4 10 -5 0
-13 -4 -16 -10z"/>
<path d="M681 930 c-12 -28 -20 -57 -17 -63 3 -8 5 -8 5 1 1 7 10 34 22 59 11
25 18 47 16 49 -2 3 -14 -18 -26 -46z"/>
<path d="M2165 970 c-30 -8 -30 -8 0 -9 17 0 37 4 45 9 19 12 2 12 -45 0z"/>
<path d="M1300 910 c0 -7 3 -10 7 -7 3 4 3 10 0 14 -4 3 -7 0 -7 -7z"/>
<path d="M2021 898 c-5 -13 -6 -29 -4 -35 6 -15 33 -17 33 -3 0 6 -5 10 -11
10 -7 0 -9 10 -5 25 8 31 -2 33 -13 3z"/>
<path d="M1446 885 c4 -16 14 -35 23 -42 16 -12 193 -81 264 -103 76 -24 55
-4 -25 24 -165 56 -229 87 -249 120 -20 31 -20 31 -13 1z"/>
<path d="M1240 870 c0 -7 3 -10 7 -7 3 4 3 10 0 14 -4 3 -7 0 -7 -7z"/>
<path d="M2265 870 c3 -6 -4 -14 -17 -19 -16 -7 -18 -10 -6 -10 28 -1 47 10
41 25 -3 8 -9 14 -15 14 -5 0 -6 -5 -3 -10z"/>
<path d="M1287 863 c-3 -5 -1 -17 4 -28 7 -17 8 -17 8 8 1 27 -4 34 -12 20z"/>
<path d="M1342 845 c0 -16 2 -22 5 -12 2 9 2 23 0 30 -3 6 -5 -1 -5 -18z"/>
<path d="M671 834 c0 -11 3 -14 6 -6 3 7 2 16 -1 19 -3 4 -6 -2 -5 -13z"/>
<path d="M1221 820 c0 -14 -9 -36 -18 -50 -10 -14 -16 -39 -14 -62 1 -22 -5
-48 -14 -60 -8 -13 -15 -33 -15 -47 0 -26 -36 -91 -51 -91 -5 0 -9 -12 -8 -27
0 -28 1 -28 11 -5 6 12 14 22 18 22 9 0 34 61 49 118 7 23 16 42 20 42 5 0 6
20 4 44 -4 30 0 51 12 69 9 14 15 36 12 49 -4 22 -4 22 -6 -2z"/>
<path d="M750 777 c0 -25 4 -48 9 -51 8 -5 3 84 -5 93 -2 2 -4 -16 -4 -42z"/>
<path d="M1324 800 c3 -14 6 -38 7 -55 1 -30 1 -30 9 -1 7 21 5 36 -6 55 -15
26 -15 26 -10 1z"/>
<path d="M981 790 c-1 -9 -12 -32 -25 -51 -14 -20 -28 -49 -31 -65 -5 -25 -3
-23 15 11 11 22 28 53 36 68 9 15 13 33 11 40 -4 8 -6 7 -6 -3z"/>
<path d="M676 764 c-4 -14 -5 -28 -3 -31 3 -2 8 8 11 23 4 14 5 28 3 31 -3 2
-8 -8 -11 -23z"/>
<path d="M1242 770 c0 -14 2 -19 5 -12 2 6 2 18 0 25 -3 6 -5 1 -5 -13z"/>
<path d="M1307 734 c3 -27 7 -51 9 -53 8 -9 3 75 -5 88 -5 8 -7 -5 -4 -35z"/>
<path d="M1548 753 c7 -3 16 -2 19 1 4 3 -2 6 -13 5 -11 0 -14 -3 -6 -6z"/>
<path d="M1594 745 c11 -8 24 -15 30 -15 5 0 1 7 -10 15 -10 8 -23 14 -29 14
-5 0 -1 -6 9 -14z"/>
<path d="M1102 725 c0 -16 2 -22 5 -12 2 9 2 23 0 30 -3 6 -5 -1 -5 -18z"/>
<path d="M1381 734 c0 -11 3 -14 6 -6 3 7 2 16 -1 19 -3 4 -6 -2 -5 -13z"/>
<path d="M1251 714 c0 -11 3 -14 6 -6 3 7 2 16 -1 19 -3 4 -6 -2 -5 -13z"/>
<path d="M1648 723 c6 -2 18 -2 25 0 6 3 1 5 -13 5 -14 0 -19 -2 -12 -5z"/>
<path d="M1698 713 c6 -2 10 -9 6 -14 -8 -14 6 -10 22 6 14 13 12 15 -13 14
-15 0 -22 -3 -15 -6z"/>
<path d="M1444 674 c3 -9 6 -32 6 -52 0 -33 3 -37 26 -38 21 -2 23 0 9 10 -9
6 -19 31 -22 54 -3 23 -10 42 -15 42 -6 0 -7 -7 -4 -16z"/>
<path d="M1474 678 c-4 -7 -3 -8 4 -4 12 7 16 16 8 16 -3 0 -8 -5 -12 -12z"/>
<path d="M1242 650 c0 -19 2 -27 5 -17 2 9 2 25 0 35 -3 9 -5 1 -5 -18z"/>
<path d="M1583 673 c4 -3 10 -3 14 0 3 4 0 7 -7 7 -7 0 -10 -3 -7 -7z"/>
<path d="M346 655 c-3 -9 0 -15 9 -15 9 0 12 6 9 15 -4 8 -7 15 -9 15 -2 0 -5
-7 -9 -15z"/>
<path d="M383 653 c4 -3 10 -3 14 0 3 4 0 7 -7 7 -7 0 -10 -3 -7 -7z"/>
<path d="M1091 645 c0 -11 -4 -31 -7 -45 -5 -19 -4 -22 5 -14 7 6 11 26 8 45
-2 19 -5 25 -6 14z"/>
<path d="M1352 625 c0 -16 2 -22 5 -12 2 9 2 23 0 30 -3 6 -5 -1 -5 -18z"/>
<path d="M393 633 c4 -3 10 -3 14 0 3 4 0 7 -7 7 -7 0 -10 -3 -7 -7z"/>
<path d="M1325 630 c3 -5 8 -10 11 -10 3 0 2 5 -1 10 -3 6 -8 10 -11 10 -3 0
-2 -4 1 -10z"/>
<path d="M910 620 c0 -7 3 -10 7 -7 3 4 3 10 0 14 -4 3 -7 0 -7 -7z"/>
<path d="M945 619 c-4 -6 -5 -12 -2 -15 2 -3 7 2 10 11 7 17 1 20 -8 4z"/>
<path d="M450 598 c0 -22 -26 -58 -43 -58 -4 0 -7 9 -7 20 0 11 -5 20 -11 20
-5 0 -8 -4 -5 -8 11 -18 -25 -54 -41 -41 -12 11 -13 8 -9 -17 6 -29 6 -29 -6
-4 -12 23 -15 24 -28 10 -8 -8 -15 -22 -15 -30 0 -8 -9 -15 -21 -15 -26 -1
-104 -35 -104 -46 0 -5 -6 -6 -14 -3 -10 4 -14 -1 -13 -15 1 -15 6 -20 17 -15
44 17 80 16 87 -2 4 -11 13 -24 20 -29 12 -9 11 -15 -6 -34 -21 -24 -21 -24
-21 -2 0 12 -4 19 -10 16 -6 -3 -10 -18 -10 -32 0 -22 -4 -25 -25 -21 -28 6
-35 -8 -7 -15 9 -3 -12 -3 -48 -1 -90 6 -67 -1 85 -26 130 -21 151 -28 255
-87 174 -97 517 -89 955 23 33 8 74 19 90 24 17 5 57 12 90 16 72 8 116 22 73
23 -36 1 -86 -9 -318 -62 -455 -106 -720 -106 -901 -2 -49 28 -107 51 -167 66
-79 19 -89 24 -74 35 13 9 19 9 24 1 5 -8 8 -5 8 8 0 15 2 17 9 6 11 -17 26
21 23 59 -3 31 11 53 35 55 10 1 31 7 46 14 37 14 57 14 58 -1 0 -7 5 -4 10 7
8 17 9 16 6 -7 -3 -16 0 -28 4 -28 5 0 9 -8 9 -18 0 -20 26 -48 62 -66 23 -12
26 -17 54 -85 10 -24 27 -49 39 -57 30 -19 100 -28 121 -15 16 9 13 10 -17 5
-57 -9 -105 16 -131 70 -27 56 -23 60 44 51 53 -7 125 -62 140 -105 3 -8 9
-12 13 -7 26 23 -99 127 -154 128 -50 1 -66 9 -96 48 -17 23 -25 29 -25 18 0
-21 -26 -22 -34 -1 -3 9 -6 67 -5 130 1 63 -1 118 -5 121 -3 4 -6 -5 -6 -19z
m-60 -78 c0 -5 -4 -10 -10 -10 -5 0 -10 5 -10 10 0 6 5 10 10 10 6 0 10 -4 10
-10z m-83 -27 c-4 -3 -7 0 -7 7 0 7 3 10 7 7 3 -4 3 -10 0 -14z m50 -30 c-4
-3 -7 0 -7 7 0 7 3 10 7 7 3 -4 3 -10 0 -14z m-87 -69 c0 -8 -5 -12 -10 -9 -6
4 -8 11 -5 16 9 14 15 11 15 -7z m245 -54 c3 -5 1 -10 -4 -10 -6 0 -11 5 -11
10 0 6 2 10 4 10 3 0 8 -4 11 -10z"/>
<path d="M1056 593 c-6 -14 -5 -15 5 -6 7 7 10 15 7 18 -3 3 -9 -2 -12 -12z"/>
<path d="M1141 603 c-1 -7 -13 -23 -28 -37 -15 -14 -25 -28 -22 -31 9 -9 61
53 56 67 -4 9 -6 9 -6 1z"/>
<path d="M1221 600 c-1 -8 -4 -26 -7 -40 -5 -22 -4 -23 6 -7 6 10 9 28 7 40
-2 12 -5 15 -6 7z"/>
<path d="M1517 587 c-3 -9 1 -14 11 -13 11 1 16 -5 14 -16 -3 -21 4 -24 11 -4
3 8 -2 21 -12 30 -16 14 -19 15 -24 3z"/>
<path d="M1362 574 c10 -12 15 -30 12 -49 -3 -28 -3 -28 5 -5 14 39 13 44 -11
59 -22 13 -22 13 -6 -5z"/>
<path d="M964 568 c-4 -7 -3 -8 4 -4 7 4 12 9 12 12 0 8 -9 4 -16 -8z"/>
<path d="M410 559 c0 -5 5 -7 10 -4 6 3 10 8 10 11 0 2 -4 4 -10 4 -5 0 -10
-5 -10 -11z"/>
<path d="M1342 550 c0 -14 2 -19 5 -12 2 6 2 18 0 25 -3 6 -5 1 -5 -13z"/>
<path d="M900 550 c0 -7 3 -10 7 -7 3 4 3 10 0 14 -4 3 -7 0 -7 -7z"/>
<path d="M932 533 c-1 -12 -9 -49 -18 -83 -8 -34 -13 -64 -10 -67 3 -3 8 8 11
23 4 16 11 41 17 55 5 15 8 42 5 60 -2 19 -5 24 -5 12z"/>
<path d="M1592 508 c-2 -33 -65 -88 -102 -89 -43 -1 -72 -17 -32 -18 31 -1 87
22 125 53 13 10 17 24 14 48 -3 27 -4 28 -5 6z"/>
<path d="M1430 510 c0 -7 3 -10 7 -7 3 4 3 10 0 14 -4 3 -7 0 -7 -7z"/>
<path d="M215 501 c-3 -6 -15 -11 -26 -11 -10 0 -19 -4 -19 -9 0 -4 11 -6 25
-3 25 4 41 19 32 28 -3 3 -8 1 -12 -5z"/>
<path d="M80 440 c0 -5 5 -10 11 -10 5 0 7 5 4 10 -3 6 -8 10 -11 10 -2 0 -4
-4 -4 -10z"/>
<path d="M23 413 c4 -3 10 -3 14 0 3 4 0 7 -7 7 -7 0 -10 -3 -7 -7z"/>
<path d="M90 405 c-18 -21 -5 -31 15 -12 8 9 11 18 6 21 -5 3 -14 -1 -21 -9z"/>
<path d="M390 409 c0 -5 5 -7 10 -4 6 3 10 8 10 11 0 2 -4 4 -10 4 -5 0 -10
-5 -10 -11z"/>
<path d="M205 370 c-3 -5 1 -10 9 -10 9 0 16 5 16 10 0 6 -4 10 -9 10 -6 0
-13 -4 -16 -10z"/>
<path d="M1535 341 c-64 -37 -75 -54 -51 -80 11 -12 26 -21 34 -21 9 0 5 8
-12 21 -33 26 -25 39 53 79 31 16 49 29 41 29 -8 0 -37 -13 -65 -28z"/>
<path d="M175 350 c-3 -5 -1 -10 4 -10 6 0 11 5 11 10 0 6 -2 10 -4 10 -3 0
-8 -4 -11 -10z"/>
<path d="M2133 273 c4 -3 10 -3 14 0 3 4 0 7 -7 7 -7 0 -10 -3 -7 -7z"/>
<path d="M2103 263 c4 -3 10 -3 14 0 3 4 0 7 -7 7 -7 0 -10 -3 -7 -7z"/>
<path d="M794 178 c-4 -7 -3 -8 4 -4 7 4 12 9 12 12 0 8 -9 4 -16 -8z"/>
<path d="M865 180 c-3 -5 -1 -10 4 -10 6 0 11 5 11 10 0 6 -2 10 -4 10 -3 0
-8 -4 -11 -10z"/>
<path d="M3793 3 c4 -3 10 -3 14 0 3 4 0 7 -7 7 -7 0 -10 -3 -7 -7z"/>
</g>
</svg>
