<?xml version="1.0" standalone="no"?>
<!DOCTYPE svg PUBLIC "-//W3C//DTD SVG 20010904//EN"
 "http://www.w3.org/TR/2001/REC-SVG-20010904/DTD/svg10.dtd">
<svg version="1.0" xmlns="http://www.w3.org/2000/svg"
 width="388.000000pt" height="256.000000pt" viewBox="0 0 388.000000 256.000000"
 preserveAspectRatio="xMidYMid meet">
<metadata>
Created by potrace 1.16, written by Peter Selinger 2001-2019
</metadata>
<g transform="translate(0.000000,256.000000) scale(0.100000,-0.100000)"
fill="#000000" stroke="none">
<path d="M2993 1807 c3 -7 -6 -24 -19 -36 -14 -13 -22 -26 -19 -29 3 -3 -14
-25 -37 -49 -23 -24 -37 -43 -30 -43 7 0 12 -5 12 -12 0 -8 -3 -9 -10 -2 -6 6
-33 9 -60 6 -57 -5 -61 2 -22 39 66 63 150 107 126 67 -5 -9 -2 -9 9 1 9 7 17
16 17 20 0 8 -78 6 -100 -2 -8 -3 -55 -8 -105 -11 -49 -3 -124 -9 -166 -12
-52 -4 -79 -3 -83 5 -5 8 -17 7 -42 -4 -33 -14 -35 -13 -44 8 -9 22 -9 22 -9
1 -1 -37 -64 -53 -218 -56 -57 -1 -103 -5 -103 -10 0 -4 6 -8 14 -8 7 0 19 -7
26 -15 22 -27 -24 -18 -50 10 -13 14 -28 25 -34 25 -6 0 -27 14 -46 30 -44 38
-42 38 -100 -11 -27 -23 -53 -38 -59 -34 -6 3 -11 0 -11 -8 0 -8 -15 -24 -32
-36 -33 -21 -33 -21 152 -22 102 -1 197 -3 213 -5 31 -3 30 -4 18 29 -10 25
-10 25 52 24 92 0 177 7 177 15 0 5 -16 8 -37 8 -20 0 -34 3 -30 6 14 14 242
4 253 -11 6 -8 14 -15 17 -15 9 0 2 27 -12 44 -11 13 -9 15 16 16 15 0 70 3
121 8 50 4 92 6 92 5 0 -2 -14 -16 -31 -33 -29 -28 -50 -34 -111 -33 -10 0
-18 -8 -18 -17 0 -11 -9 -18 -22 -19 -13 -1 -39 -2 -60 -4 -20 -1 -34 -6 -31
-11 3 -4 30 -6 60 -4 36 3 52 1 50 -6 -2 -7 -83 -13 -238 -16 -234 -6 -234 -6
11 -8 244 -2 244 -2 278 -34 33 -31 34 -32 17 -5 -29 45 -3 29 50 -31 49 -57
49 -57 7 -60 -24 -2 -50 2 -58 9 -11 9 -17 9 -29 -1 -16 -14 -868 -16 -903 -3
-12 5 -14 2 -9 -11 4 -10 7 -21 7 -24 0 -4 5 0 10 8 7 11 10 6 9 -20 0 -26 -2
-30 -8 -16 -7 18 -8 18 -14 2 -9 -24 -9 -24 11 -29 13 -4 12 -5 -5 -6 -23 -1
-42 51 -30 83 6 15 -59 106 -76 106 -5 0 7 -20 27 -45 37 -44 37 -44 6 -33
-17 6 -41 24 -53 40 -13 18 -28 27 -39 25 -14 -4 -15 -2 -5 14 6 10 19 19 27
19 13 0 13 -1 0 -10 -11 -7 -12 -10 -2 -10 28 0 45 28 28 45 -14 14 -19 12
-51 -23 -34 -38 -39 -40 -108 -44 -68 -5 -160 10 -263 42 -39 13 -54 13 -54
-1 0 -5 4 -8 9 -5 5 3 11 -3 14 -13 4 -15 19 -19 98 -26 52 -4 110 -8 129 -10
19 -1 65 -3 103 -4 53 -1 67 -4 67 -17 0 -8 3 -13 8 -11 4 2 18 -7 32 -20 25
-24 25 -24 -247 -21 -149 2 -269 0 -266 -4 2 -5 127 -8 276 -8 318 0 317 0
317 -46 0 -19 -4 -34 -10 -34 -5 0 -10 -4 -10 -10 0 -5 16 -10 35 -10 19 0 35
-4 35 -10 0 -6 -27 -7 -72 -4 -56 5 -82 3 -112 -10 -21 -9 -50 -16 -65 -15
-46 1 47 37 98 38 24 1 41 4 37 8 -5 6 -71 8 -286 12 -14 0 -74 -1 -134 -2
-122 -3 -136 2 -136 59 0 19 -5 34 -11 34 -5 0 -7 -6 -3 -12 11 -20 -9 2 -39
44 -33 45 -33 47 -4 42 22 -5 22 -5 -1 7 -12 7 -22 16 -22 21 0 5 -6 3 -14 -4
-11 -11 -6 -22 27 -68 23 -30 44 -56 49 -58 16 -7 7 -32 -12 -32 -18 0 -48 34
-127 143 -28 38 -12 53 44 42 24 -4 33 -3 28 4 -7 12 -74 15 -91 3 -6 -4 -14
-20 -18 -37 -4 -16 -19 -46 -33 -65 -24 -35 -24 -35 4 -5 58 63 66 57 13 -10
-68 -87 -66 -86 -120 -83 -36 2 -46 7 -49 23 -2 11 -11 31 -21 45 -18 25 -18
26 16 48 18 12 44 22 57 22 13 0 39 12 58 26 53 39 121 69 154 67 17 -1 46 4
65 10 19 6 37 11 40 10 27 -7 165 21 207 41 67 33 83 33 23 1 -56 -30 -45 -32
21 -4 27 12 46 25 43 30 -3 5 2 9 11 9 10 0 13 -5 9 -12 -4 -7 -3 -8 5 -4 6 4
9 11 6 16 -10 17 88 23 101 6 8 -12 29 -16 79 -16 38 0 65 -3 62 -7 -4 -3 -24
-6 -44 -5 -20 1 -47 -5 -58 -12 -12 -8 -31 -16 -43 -18 -18 -3 -19 -5 -7 -22
14 -18 16 -18 50 13 37 32 51 39 39 19 -5 -8 5 -9 39 -5 31 4 47 3 50 -6 2 -8
12 -6 32 7 32 21 20 35 -23 29 -23 -3 -24 -2 -7 5 23 11 55 10 74 -3 9 -5 12
-4 7 3 -7 12 29 26 44 17 5 -3 10 -2 10 4 0 5 -10 12 -22 14 -13 2 0 5 29 6
28 0 55 6 59 12 5 9 -7 10 -47 5 -110 -15 -262 -24 -317 -19 -59 5 -174 -18
-201 -40 -13 -11 -97 -18 -379 -33 -87 -4 -103 -3 -108 10 -8 20 -110 23 -117
4 -5 -15 28 -14 -399 -16 -347 -2 -348 -2 -348 -23 0 -18 2 -19 15 -9 11 9 15
9 15 1 0 -6 -7 -14 -15 -17 -22 -9 -19 -35 2 -28 17 5 17 5 0 -9 -25 -21 -23
-22 38 -22 32 1 54 -3 52 -9 -5 -14 -52 -25 -68 -15 -14 8 -39 -6 -39 -22 0
-5 48 -9 106 -9 106 0 106 0 102 -30 -3 -23 -1 -30 9 -26 8 3 15 -4 19 -19 3
-14 10 -22 15 -19 5 3 9 -2 9 -10 0 -9 5 -16 11 -16 6 0 8 9 5 20 -3 11 -9 29
-12 40 -3 11 -1 20 5 20 6 0 11 -3 11 -7 0 -5 10 -19 21 -33 20 -25 20 -25 5
7 -12 24 -13 33 -3 36 6 3 3 6 -9 6 -46 2 -75 24 -72 56 3 28 5 30 48 30 45 0
45 0 54 -48 4 -26 12 -47 18 -47 5 0 6 9 3 20 -6 20 -3 20 124 19 118 -1 161
-10 113 -22 -10 -3 -6 -5 11 -6 15 0 27 -6 27 -11 0 -6 8 -10 18 -8 10 2 17
-3 18 -12 1 -28 15 -60 24 -55 5 3 16 -8 25 -25 16 -30 16 -30 -99 -30 -101 0
-115 2 -119 18 -4 16 -5 16 -6 0 -1 -17 -19 -18 -235 -18 -136 0 -237 -4 -241
-9 -3 -6 3 -10 12 -10 10 -1 25 -1 33 -1 8 -1 172 -1 364 0 349 1 349 1 374
-25 21 -23 21 -26 6 -23 -17 3 -19 -5 -22 -76 -3 -76 -3 -78 -27 -74 -13 3
-30 1 -37 -3 -8 -6 0 -9 23 -9 34 0 49 -12 49 -40 0 -17 -100 -8 -110 10 -13
25 -13 28 8 33 16 4 16 5 0 6 -10 0 -18 6 -18 11 0 6 -9 10 -20 10 -11 0 -20
-7 -20 -15 0 -25 -23 -65 -37 -65 -7 0 -13 -7 -13 -15 0 -8 -10 -16 -22 -16
-70 -4 -118 -3 -118 3 0 11 42 21 85 21 40 0 40 0 3 4 -25 3 -38 9 -38 19 0 8
-5 14 -11 14 -5 0 -7 -4 -4 -10 3 -5 0 -7 -8 -4 -8 3 -20 -2 -27 -11 -13 -16
-130 -22 -130 -7 0 20 -45 29 -67 15 -15 -10 -27 -12 -40 -5 -20 11 -63 -1
-63 -18 0 -6 6 -10 13 -8 17 3 57 -12 57 -22 0 -15 -44 -20 -53 -5 -12 22 -32
18 -34 -5 -1 -15 4 -20 23 -20 16 0 24 -5 23 -17 0 -11 -3 -13 -6 -5 -2 6 -11
12 -19 12 -9 0 -12 -4 -9 -10 3 -5 0 -10 -9 -10 -8 0 -17 6 -20 13 -3 8 -9 6
-17 -8 -7 -11 -29 -35 -48 -54 -33 -30 -34 -33 -11 -26 14 4 28 13 32 19 19
31 38 51 32 33 -5 -13 -2 -16 10 -11 19 7 22 -12 3 -23 -8 -4 -26 -26 -40 -48
-15 -22 -27 -36 -27 -31 0 5 -7 3 -15 -4 -8 -7 -15 -17 -15 -22 0 -6 7 -5 15
2 8 7 15 8 15 2 0 -5 -7 -15 -15 -22 -26 -22 -19 -58 10 -52 14 2 25 9 25 14
0 5 7 3 15 -6 11 -11 31 -14 70 -11 34 2 53 0 49 -6 -3 -6 -14 -7 -25 -4 -11
4 -19 2 -19 -4 0 -6 -6 -11 -14 -11 -7 0 -16 -8 -18 -17 -4 -14 -15 -18 -44
-17 -37 1 -64 -10 -64 -25 0 -4 30 -7 66 -8 66 -2 106 -13 46 -13 -18 0 -32
-3 -32 -7 0 -5 -10 -19 -21 -33 -21 -25 -21 -25 -5 2 21 36 20 45 -4 23 -10
-9 -25 -15 -33 -12 -8 3 -14 -4 -15 -20 -2 -23 0 -24 15 -12 15 13 15 12 4 -8
-7 -15 -8 -23 -1 -23 5 0 10 5 10 11 0 5 4 8 9 4 5 -3 12 -1 16 5 3 5 15 10
26 10 11 0 17 -5 14 -10 -4 -6 -11 -8 -16 -5 -5 3 -6 -1 -3 -9 8 -20 9 -20 30
1 22 23 218 28 248 7 14 -10 23 -11 33 -2 9 7 13 7 13 0 0 -6 -4 -14 -10 -17
-5 -3 -10 -12 -10 -18 0 -7 5 -4 11 6 14 23 48 16 94 -19 17 -13 45 -24 61
-24 16 0 36 -5 44 -11 11 -8 6 -9 -20 -5 -35 6 -35 6 -5 -5 40 -15 42 -18 25
-30 -10 -7 -6 -7 15 -2 17 4 74 8 128 8 53 0 97 3 97 7 0 5 33 8 73 8 69 -1
71 -1 42 -15 -30 -13 -30 -13 8 -8 29 5 41 2 53 -13 9 -11 13 -14 10 -8 -4 8
8 10 38 7 29 -4 52 0 72 12 16 9 21 14 11 11 -21 -7 -79 23 -71 36 3 4 83 8
177 8 159 0 170 -1 143 -15 -32 -17 -39 -19 -32 -7 3 5 -9 6 -27 4 -18 -3 -26
-7 -19 -9 6 -3 12 -13 12 -24 0 -13 7 -19 23 -18 16 1 18 2 5 6 -10 2 -18 9
-18 14 0 10 9 12 93 14 60 2 81 10 58 24 -9 6 -10 10 -2 12 7 3 13 18 15 34 4
34 -3 33 156 34 206 2 290 -1 290 -10 0 -5 5 -9 12 -9 6 0 9 3 5 6 -3 3 2 15
12 26 18 18 29 19 237 12 294 -9 549 -7 779 6 250 15 863 14 881 -1 15 -12 22
1140 7 1154 -3 4 -12 2 -20 -5 -10 -8 -116 -12 -368 -13 -195 0 -357 -4 -361
-8 -4 -4 3 -7 15 -7 12 0 19 -4 16 -10 -3 -5 1 -10 9 -10 9 0 16 -4 16 -9 0
-5 -10 -7 -22 -3 -31 7 -148 129 -148 153 0 10 -5 19 -11 19 -6 0 -9 -6 -6
-13z m32 -57 c3 -5 4 -10 1 -10 -3 0 -8 5 -11 10 -3 6 -4 10 -1 10 3 0 8 -4
11 -10z m-4 -24 c5 3 9 -1 10 -8 2 -52 10 -93 19 -96 5 -2 10 -8 10 -13 0 -6
-4 -7 -10 -4 -5 3 -10 3 -10 -2 1 -28 21 -31 184 -32 186 0 192 -3 258 -95 21
-28 21 -28 -2 -21 -16 5 -20 4 -15 -5 4 -6 16 -10 26 -7 10 3 22 1 25 -4 3 -5
-9 -9 -27 -9 -48 0 -32 -7 29 -13 52 -5 52 -5 -18 65 -38 38 -70 74 -70 79 0
22 31 5 74 -41 32 -34 55 -50 71 -50 17 0 25 -6 26 -17 0 -15 2 -15 9 2 7 17
9 15 9 -13 1 -19 -4 -31 -10 -30 -6 2 -14 -3 -17 -11 -3 -10 0 -12 12 -8 9 4
16 2 16 -3 0 -6 -8 -10 -17 -10 -17 -1 -17 -1 0 -14 24 -18 23 -56 -2 -56 -18
0 -19 -2 -5 -30 9 -16 17 -60 18 -97 4 -89 4 -87 21 -73 11 9 26 9 65 1 28 -6
69 -11 91 -11 22 0 38 -4 34 -9 -3 -5 -16 -8 -29 -5 -17 3 -23 0 -22 -12 1
-11 -8 -17 -27 -20 -34 -3 -87 -26 -87 -36 0 -5 -16 -8 -35 -8 -26 0 -33 3
-29 15 5 11 11 12 24 5 26 -14 27 -13 35 18 14 49 14 51 -13 50 -15 -1 -66 2
-114 7 -87 7 -87 7 -93 -29 -9 -45 -22 -46 -41 -1 -10 26 -20 35 -37 34 -22 0
-22 0 1 -9 31 -13 28 -15 -20 -14 -24 1 -44 7 -46 14 -3 8 2 10 16 5 36 -11 7
48 -43 89 -33 27 -44 44 -47 72 -4 36 -4 36 29 31 18 -3 33 -4 33 -3 0 2 -7
20 -15 40 -8 20 -13 36 -10 36 14 0 36 -73 26 -83 -15 -15 -14 -50 2 -44 6 2
11 10 9 17 -2 10 1 11 10 3 21 -16 58 -23 57 -10 -1 19 -18 53 -18 39 -1 -10
-4 -10 -15 0 -12 11 -10 14 13 18 14 3 29 2 32 -3 11 -15 44 -3 41 16 -2 12 4
17 23 17 14 0 25 -4 25 -10 0 -5 -7 -10 -15 -10 -36 0 -11 -15 30 -18 59 -4
69 3 49 33 -15 23 -15 24 9 30 14 4 28 12 30 18 5 15 -145 18 -155 3 -10 -15
-128 -12 -138 4 -6 9 -21 11 -54 7 -46 -7 -46 -7 -48 26 -1 32 -1 32 -5 0 -2
-18 -8 -33 -14 -33 -9 0 -12 12 -6 27 1 4 -11 11 -28 14 -29 6 -29 7 -3 8 23
1 26 5 25 36 -1 27 -5 35 -19 35 -10 0 -18 4 -18 9 0 11 50 1 51 -10 1 -5 2
-13 3 -18 2 -19 12 -19 24 -1 10 16 10 20 0 18 -7 -2 -12 2 -11 7 1 6 -14 15
-33 21 -21 7 -34 7 -34 1 0 -5 -7 -7 -15 -3 -24 9 -17 -12 9 -29 23 -15 30
-51 10 -49 -20 1 -64 24 -64 34 0 5 -6 10 -12 10 -7 -1 2 -13 20 -29 40 -34
40 -37 -2 -39 -37 -1 -55 23 -58 81 -1 28 -2 26 -7 -11 -6 -42 -6 -42 -43 4
-51 63 -45 95 11 60 11 -7 13 -5 8 6 -9 26 6 30 20 6 11 -21 12 -20 13 20 0
39 2 42 15 28 8 -8 15 -24 15 -35 0 -12 3 -21 8 -21 10 0 2 84 -10 91 -5 3
-11 23 -13 45 -3 21 -3 33 1 26 3 -6 10 -10 15 -6z m-1441 -6 c13 -8 13 -10
-2 -10 -9 0 -20 5 -23 10 -8 13 5 13 25 0z m167 3 c-4 -3 -10 -3 -14 0 -3 4 0
7 7 7 7 0 10 -3 7 -7z m30 0 c-4 -3 -10 -3 -14 0 -3 4 0 7 7 7 7 0 10 -3 7 -7z
m-160 -10 c-4 -3 -10 -3 -14 0 -3 4 0 7 7 7 7 0 10 -3 7 -7z m1468 -41 c-6 -7
-35 18 -35 31 0 5 9 2 20 -8 11 -10 18 -20 15 -23z m-2267 1 c-10 -2 -28 -2
-40 0 -13 2 -5 4 17 4 22 1 32 -1 23 -4z m1082 -13 c0 -5 -8 -10 -17 -10 -15
0 -16 2 -3 10 19 12 20 12 20 0z m37 -6 c-3 -3 -12 -4 -19 -1 -8 3 -5 6 6 6
11 1 17 -2 13 -5z m1280 0 c-3 -3 -12 -4 -19 -1 -8 3 -5 6 6 6 11 1 17 -2 13
-5z m120 0 c-3 -3 -12 -4 -19 -1 -8 3 -5 6 6 6 11 1 17 -2 13 -5z m148 -3
c-11 -5 -38 -5 -60 -1 -38 7 -36 8 20 8 40 1 53 -2 40 -7z m-735 -11 c8 -5 11
-10 5 -10 -5 0 -3 -4 5 -9 8 -5 36 -6 62 -2 55 9 58 7 58 -31 0 -26 68 -128
91 -136 5 -2 9 -19 9 -38 0 -24 5 -34 15 -34 8 0 15 -5 15 -11 0 -5 4 -8 9 -5
5 4 13 -8 16 -26 14 -62 64 -56 61 7 -1 29 2 35 19 35 14 0 16 -3 7 -8 -6 -5
-11 -20 -10 -34 1 -15 6 -24 10 -22 4 3 9 -3 10 -13 0 -10 4 5 8 32 7 49 7 50
8 10 2 -28 8 -44 22 -53 12 -7 18 -17 15 -22 -4 -6 -10 -8 -15 -5 -4 3 -11 -1
-13 -7 -4 -10 -8 -10 -15 1 -6 9 -17 11 -33 5 -78 -25 -118 -9 -121 49 -1 28
-4 16 -8 -33 -6 -75 -6 -75 -8 -12 -2 70 -22 83 -33 21 -6 -34 -6 -34 -8 4 -1
30 -5 37 -21 37 -11 0 -20 -5 -20 -11 0 -5 5 -7 10 -4 6 3 10 -1 10 -9 0 -26
-27 -18 -32 9 -5 24 -3 25 43 25 27 0 49 5 49 10 0 6 -27 10 -60 10 -60 0 -60
0 -60 49 0 49 0 49 51 25 35 -17 49 -29 45 -39 -3 -8 0 -15 7 -15 7 0 13 9 14
19 1 14 -12 25 -50 41 -34 14 -78 47 -124 93 -40 39 -73 67 -74 62 -1 -13 -17
26 -18 43 -1 14 28 16 49 2z m180 0 c0 -5 -2 -10 -4 -10 -3 0 -8 5 -11 10 -3
6 -1 10 4 10 6 0 11 -4 11 -10z m160 -15 c14 -19 14 -19 -2 -6 -10 7 -18 18
-18 24 0 6 1 8 3 6 1 -2 9 -13 17 -24z m-2980 11 c0 -3 -4 -8 -10 -11 -5 -3
-10 -1 -10 4 0 6 5 11 10 11 6 0 10 -2 10 -4z m47 -2 c-3 -3 -12 -4 -19 -1 -8
3 -5 6 6 6 11 1 17 -2 13 -5z m755 -1 c-6 -2 -10 -8 -7 -13 3 -4 -5 -6 -17 -2
-21 5 -21 6 -2 13 10 4 24 8 29 8 6 -1 4 -3 -3 -6z m2673 -11 c-3 -3 -11 0
-18 7 -9 10 -8 11 6 5 10 -3 15 -9 12 -12z m-49 -19 c-8 -8 -36 5 -36 17 0 7
6 7 21 0 11 -7 18 -14 15 -17z m-3416 -3 c-11 -20 -30 -28 -30 -12 0 11 22 32
32 32 5 0 4 -9 -2 -20z m617 13 c-4 -3 -10 -3 -14 0 -3 4 0 7 7 7 7 0 10 -3 7
-7z m2440 0 c-4 -3 -10 -3 -14 0 -3 4 0 7 7 7 7 0 10 -3 7 -7z m-3097 -15 c0
-5 -7 -17 -16 -26 -15 -15 -16 -14 -9 7 5 18 4 22 -5 16 -8 -5 -11 -4 -7 2 8
12 37 13 37 1z m780 6 c22 -5 28 -9 18 -15 -18 -12 -40 -11 -33 1 3 6 -3 10
-15 10 -12 0 -19 -4 -16 -9 6 -9 -36 -31 -59 -31 -27 0 -15 20 15 27 17 3 33
10 36 14 6 11 12 11 54 3z m-523 -21 c-4 -3 -10 -3 -14 0 -3 4 0 7 7 7 7 0 10
-3 7 -7z m3210 -7 c4 -3 -8 -6 -25 -6 -17 0 -33 4 -36 8 -5 9 52 7 61 -2z m33
4 c0 -5 -2 -10 -4 -10 -3 0 -8 5 -11 10 -3 6 -1 10 4 10 6 0 11 -4 11 -10z
m160 -4 c0 -8 -6 -17 -12 -19 -10 -4 -10 -8 1 -16 12 -8 9 -11 -15 -16 -16 -4
-33 -8 -39 -9 -5 -2 -15 3 -22 10 -15 15 -17 28 -3 19 17 -10 47 4 53 25 6 23
37 27 37 6z m-53 -3 c-4 -3 -10 -3 -14 0 -3 4 0 7 7 7 7 0 10 -3 7 -7z m163
-14 c0 -4 -9 -11 -20 -14 -11 -4 -18 -11 -14 -16 3 -5 15 -7 27 -3 20 6 21 5
7 -11 -8 -11 -10 -16 -3 -12 8 5 11 -2 11 -24 -1 -24 -3 -27 -10 -15 -6 10
-22 16 -44 16 -39 0 -40 19 -5 67 15 20 51 28 51 12z m-250 -21 c0 -28 -12
-48 -29 -48 -14 0 -14 2 -1 11 12 9 11 10 -8 6 -15 -4 -27 2 -37 16 -22 32
-19 35 30 33 35 -1 45 -5 45 -18z m-3410 0 c0 -11 -28 -10 -35 1 -3 6 4 9 15
8 11 -1 20 -5 20 -9z m307 5 c-4 -3 -10 -3 -14 0 -3 4 0 7 7 7 7 0 10 -3 7 -7z
m-27 -7 c0 -3 -4 -8 -10 -11 -5 -3 -10 -1 -10 4 0 6 5 11 10 11 6 0 10 -2 10
-4z m300 -6 c-20 -13 -33 -13 -25 0 3 6 14 10 23 10 15 0 15 -2 2 -10z m2847
-7 c-4 -3 -7 0 -7 7 0 7 3 10 7 7 3 -4 3 -10 0 -14z m-2890 -20 c-4 -3 -10 -3
-14 0 -3 4 0 7 7 7 7 0 10 -3 7 -7z m3000 -10 c-4 -3 -7 0 -7 7 0 7 3 10 7 7
3 -4 3 -10 0 -14z m-3015 -38 c15 -22 27 -49 28 -61 0 -20 29 -68 30 -49 0 6
16 10 37 11 38 1 44 6 125 104 37 45 37 45 63 20 26 -25 68 -86 71 -105 1 -5
7 -21 12 -35 10 -24 11 -24 12 10 1 33 2 33 12 13 6 -13 17 -23 24 -23 8 0 11
-6 8 -15 -4 -9 0 -15 10 -15 10 0 13 6 10 15 -5 12 4 15 52 13 57 -2 58 -2 12
-5 -46 -4 -62 -16 -35 -26 6 -3 -9 -6 -35 -6 -27 -1 -48 -4 -48 -8 0 -12 134
-4 138 7 2 6 8 10 13 10 6 0 7 -4 4 -10 -4 -6 9 -10 33 -10 67 0 135 -12 120
-21 -21 -14 -302 -11 -316 3 -9 9 -12 8 -12 -5 0 -15 14 -17 120 -17 105 0
119 -2 113 -16 -4 -10 4 -25 22 -40 20 -17 26 -30 23 -49 -4 -18 -1 -25 10
-25 9 0 13 7 9 20 -3 11 -1 20 4 20 10 0 11 -2 15 -49 1 -19 -1 -30 -4 -24 -4
6 -17 13 -29 17 -21 7 -23 4 -23 -25 0 -26 3 -30 12 -21 7 7 22 12 34 12 13 0
29 7 38 15 16 17 30 20 21 6 -3 -5 -1 -12 5 -16 6 -4 10 15 11 52 1 53 2 55
10 26 5 -18 15 -33 22 -33 7 0 22 -3 35 -6 19 -5 22 -2 22 20 0 24 3 26 38 25
24 -1 29 -3 14 -6 -30 -6 -25 -39 5 -36 17 2 22 -4 25 -32 5 -41 -7 -47 -76
-43 -43 3 -46 5 -46 31 0 20 -5 27 -20 27 -14 0 -20 -7 -20 -21 0 -15 5 -19
15 -15 8 3 15 1 15 -4 0 -12 -10 -13 -65 -12 -22 1 -33 -1 -25 -5 25 -11 44
-34 33 -41 -18 -13 -23 -42 -8 -42 20 0 19 -19 0 -26 -22 -9 -18 -24 7 -24 20
0 18 -13 -3 -16 -22 -3 -22 -6 0 -13 22 -6 23 -8 8 -23 -21 -20 -22 -29 -2
-22 11 5 13 0 5 -24 -4 -17 -6 -33 -2 -36 3 -3 -1 -6 -9 -6 -12 0 -12 -2 0 -9
35 -22 3 -38 -81 -39 -45 -1 -97 -5 -114 -8 -31 -6 -56 17 -34 31 5 3 7 13 4
23 -5 16 -5 16 9 0 16 -20 37 -24 37 -8 0 6 -6 10 -12 10 -10 0 -10 2 0 9 20
12 -56 22 -98 12 -35 -9 -35 -9 10 -11 25 -1 37 -4 28 -7 -19 -5 -24 -28 -9
-37 5 -3 11 -16 14 -28 6 -21 5 -21 -7 -5 -9 11 -20 15 -31 11 -10 -4 -21 -1
-26 7 -7 11 -9 9 -9 -6 0 -14 -7 -21 -20 -21 -20 0 -21 5 -18 96 3 95 3 95 48
97 96 3 91 7 -15 12 -60 4 -112 5 -114 4 -2 -1 -5 -42 -7 -90 -1 -48 -4 -92
-5 -98 -1 -6 -65 -11 -161 -12 -87 -1 -162 -5 -168 -8 -5 -3 -19 4 -31 16 -22
22 -22 22 -15 -5 7 -30 1 -31 -56 -14 -27 8 -40 18 -44 34 -7 26 -34 54 -34
35 0 -6 5 -11 10 -11 6 0 10 -10 10 -22 0 -19 -2 -20 -10 -8 -8 12 -10 12 -10
1 0 -11 -3 -11 -15 -1 -9 7 -18 10 -22 6 -3 -3 -1 -6 5 -6 5 0 15 -12 20 -27
7 -18 11 -22 11 -10 1 9 6 17 11 17 6 0 10 -40 10 -100 0 -100 0 -100 -45 -78
-43 21 -45 24 -45 65 0 56 0 56 -12 70 -6 7 -15 10 -20 7 -6 -4 -7 -9 -1 -13
13 -8 24 -81 12 -81 -5 0 -9 16 -9 35 0 19 -4 35 -9 35 -6 0 -9 9 -8 19 0 11
5 17 9 15 11 -7 10 38 -2 56 -9 13 -10 13 -10 0 0 -10 -3 -11 -8 -3 -4 6 -11
11 -17 10 -5 0 -12 8 -13 19 -7 36 -52 58 -52 25 0 -14 -5 -18 -21 -14 -12 4
-18 11 -15 20 3 8 1 11 -4 8 -6 -3 -10 5 -10 19 0 14 5 26 11 26 5 0 7 -4 4
-10 -3 -5 1 -10 9 -10 12 0 15 8 10 34 -5 33 15 65 24 38 2 -7 8 -12 14 -12 6
0 4 8 -5 18 -21 23 -22 42 -2 42 8 0 15 -4 15 -10 0 -5 4 -10 9 -10 5 0 7 8 4
19 -4 17 2 18 71 17 72 -1 76 0 76 22 0 12 4 22 8 22 5 0 7 -14 6 -30 -2 -24
1 -29 11 -20 23 19 97 8 91 -13 -3 -11 0 -17 7 -14 7 2 11 13 9 23 -2 18 4 20
65 20 38 0 149 2 248 4 180 5 180 5 183 -22 2 -16 8 -28 14 -28 6 0 7 8 3 18
-3 9 -9 29 -12 45 -3 15 -12 27 -19 27 -19 0 -94 40 -94 50 0 5 -25 16 -55 24
-50 15 -55 19 -66 56 -15 49 -23 46 -13 -4 7 -38 42 -66 83 -66 11 0 22 -3 24
-7 8 -12 -68 -9 -84 3 -8 6 -22 14 -31 17 -12 4 -18 17 -19 39 0 18 -3 26 -6
18 -15 -45 -15 -46 -23 -25 -11 30 -1 118 16 131 8 6 14 28 14 52 0 40 0 40
-35 32 -38 -9 -50 0 -80 59 -11 23 -19 30 -25 22 -5 -9 -9 -8 -13 4 -4 9 -3
13 3 10 15 -9 12 8 -6 33 -8 12 -25 22 -37 22 -18 0 -19 2 -7 10 29 19 63 6
92 -35z m2965 38 c-4 -3 -10 -3 -14 0 -3 4 0 7 7 7 7 0 10 -3 7 -7z m-1937
-33 c0 -5 -5 -10 -11 -10 -5 0 -7 5 -4 10 3 6 8 10 11 10 2 0 4 -4 4 -10z
m993 -4 c6 -15 -1 -26 -15 -26 -4 0 -8 9 -8 20 0 23 15 27 23 6z m970 -2 c-5
-13 -7 -13 -14 -2 -6 8 -9 -5 -9 -34 0 -44 -2 -48 -22 -44 -18 2 -23 11 -25
37 -4 49 2 59 41 59 28 0 34 -3 29 -16z m105 10 c20 -6 22 -12 22 -70 0 -35
-4 -65 -10 -65 -5 -1 -13 -2 -17 -4 -70 -19 -73 -21 -51 -43 9 -9 7 -13 -5
-18 -9 -3 -15 -9 -12 -14 7 -11 -49 2 -57 14 -9 14 10 36 32 36 20 0 25 15 36
113 7 60 12 64 62 51z m-1785 -21 c28 -5 38 -23 12 -23 -8 0 -15 -5 -15 -10 0
-6 -11 -16 -25 -22 -31 -14 -32 -25 -2 -31 19 -4 19 -4 -3 -3 -14 0 -32 -4
-40 -9 -8 -5 -28 -10 -44 -11 -30 -2 -30 -2 -6 16 14 10 28 16 32 14 14 -9 8
13 -7 26 -8 7 -15 19 -15 26 0 8 -7 14 -15 14 -21 0 -59 -36 -51 -49 4 -5 2
-12 -4 -16 -6 -4 -10 11 -10 39 0 46 0 46 83 45 45 0 94 -3 110 -6z m247 -14
c0 -4 -7 -5 -17 -2 -11 4 -14 3 -9 -5 5 -9 0 -9 -19 -2 -15 6 -38 7 -53 4 -24
-5 -25 -4 -11 8 18 15 109 12 109 -3z m-174 -5 c17 -14 17 -15 1 -10 -10 3
-23 6 -28 6 -5 0 -9 5 -9 10 0 14 13 12 36 -6z m221 -6 c-3 -8 -6 -5 -6 6 -1
11 2 17 5 13 3 -3 4 -12 1 -19z m98 12 c3 -5 -3 -10 -14 -10 -12 0 -21 5 -21
10 0 6 6 10 14 10 8 0 18 -4 21 -10z m95 6 c0 -3 -4 -8 -10 -11 -5 -3 -10 -1
-10 4 0 6 5 11 10 11 6 0 10 -2 10 -4z m181 -17 c9 -17 8 -23 -2 -30 -26 -16
-59 -5 -59 20 0 10 -9 17 -25 17 -14 1 -25 -3 -25 -8 0 -7 -4 -7 -12 0 -7 5
-22 12 -33 15 -11 2 17 5 62 6 74 1 83 -1 94 -20z m66 4 c-4 -3 -7 0 -7 7 0 7
3 10 7 7 3 -4 3 -10 0 -14z m67 11 c9 -3 16 -17 16 -30 0 -25 -15 -33 -23 -11
-3 6 -6 2 -6 -10 -1 -13 4 -23 9 -23 6 0 10 -9 10 -20 0 -11 -4 -20 -9 -20
-16 0 -26 23 -27 64 -1 21 -7 42 -15 47 -17 10 19 13 45 3z m886 -14 c0 -5 -4
-10 -10 -10 -5 0 -10 5 -10 10 0 6 5 10 10 10 6 0 10 -4 10 -10z m-610 -10 c0
-5 -18 -10 -39 -10 -22 0 -43 5 -46 10 -4 6 12 10 39 10 25 0 46 -4 46 -10z
m-1199 -43 c-8 -8 -11 -8 -11 1 0 6 -7 9 -15 6 -9 -4 -15 0 -15 9 0 9 8 17 18
19 22 5 38 -20 23 -35z m450 34 c147 -1 147 -1 151 -31 4 -29 4 -29 -84 -26
-48 1 -91 6 -95 10 -4 4 13 7 37 6 71 -1 83 1 76 8 -8 7 -154 9 -154 2 2 -27
-4 -31 -34 -25 -39 9 -72 25 -65 32 3 2 14 0 24 -5 10 -5 27 -6 38 -1 22 8 27
7 -63 15 -33 2 -33 2 -15 -19 10 -11 12 -17 6 -13 -7 4 -13 3 -13 -3 0 -6 -27
-10 -64 -10 -61 1 -64 2 -69 27 -7 38 -8 37 90 35 48 -1 154 -2 234 -2z m266
-13 c6 -5 9 -16 6 -24 -7 -20 -33 -18 -34 4 -1 16 -2 16 -6 0 -6 -22 -10 -22
-30 -3 -8 9 -18 13 -21 10 -4 -3 0 -10 8 -15 13 -8 12 -10 -2 -10 -10 0 -18 3
-18 8 0 4 -3 18 -7 31 -6 23 -5 24 43 16 27 -4 54 -11 61 -17z m163 2 c0 -6
-16 -7 -55 -1 -5 1 -4 5 4 10 14 9 51 3 51 -9z m-73 -17 c-4 -3 -10 -3 -14 0
-3 4 0 7 7 7 7 0 10 -3 7 -7z m370 -45 c-2 -13 -4 -5 -4 17 -1 22 1 32 4 23 2
-10 2 -28 0 -40z m140 45 c-4 -3 -10 -3 -14 0 -3 4 0 7 7 7 7 0 10 -3 7 -7z
m-1347 -28 c0 -8 -7 -15 -15 -15 -13 0 -14 3 -3 15 16 18 18 18 18 0z m440 5
c0 -5 -2 -10 -4 -10 -3 0 -8 5 -11 10 -3 6 -1 10 4 10 6 0 11 -4 11 -10z m397
3 c-4 -3 -10 -3 -14 0 -3 4 0 7 7 7 7 0 10 -3 7 -7z m73 -2 c0 -6 -10 -8 -21
-6 -33 6 -36 15 -6 15 15 0 27 -4 27 -9z m870 -18 c0 -19 -3 -24 -10 -17 -6 6
-8 18 -4 27 9 24 14 21 14 -10z m30 -6 c0 -5 -4 -5 -10 -2 -5 3 -10 14 -10 23
0 15 2 15 10 2 5 -8 10 -19 10 -23z m-465 13 c3 -5 1 -10 -4 -10 -6 0 -11 5
-11 10 0 6 2 10 4 10 3 0 8 -4 11 -10z m289 -5 c3 -8 1 -15 -4 -15 -6 0 -10 7
-10 15 0 8 2 15 4 15 2 0 6 -7 10 -15z m-2147 -1 c-3 -3 -22 -6 -42 -6 -20 0
-39 3 -42 6 -4 3 15 6 42 6 27 0 46 -3 42 -6z m113 -3 c25 -5 36 -9 25 -10
-17 -1 -18 -3 -5 -11 11 -7 -3 -10 -47 -10 -56 0 -63 2 -63 20 0 22 15 24 90
11z m635 -10 c-3 -2 0 -10 6 -18 9 -10 4 -13 -27 -13 -39 0 -39 0 -10 -15 31
-17 60 -20 36 -5 -12 8 -10 10 8 10 13 0 20 4 17 10 -3 6 -1 10 4 10 6 0 11 7
11 15 0 20 17 19 29 -2 6 -11 11 -13 11 -5 0 17 78 11 85 -6 9 -24 -4 -31 -60
-30 -55 2 -112 -30 -85 -47 17 -10 11 -35 -7 -35 -17 -1 -17 -2 1 -15 30 -23
15 -40 -35 -38 -25 0 -32 -1 -16 -4 16 -2 31 -11 34 -19 4 -10 24 -14 79 -14
74 0 74 0 74 80 0 64 3 80 15 80 15 0 19 16 16 53 -3 21 15 23 26 2 7 -12 13
-12 33 -2 29 15 119 10 121 -7 1 -6 1 -18 0 -27 -3 -28 49 -31 59 -4 11 29 30
42 30 21 0 -9 -4 -16 -9 -16 -13 0 -24 -54 -23 -108 1 -50 9 -64 22 -42 9 13
10 13 10 0 0 -12 2 -13 9 -1 7 11 11 10 19 -4 18 -33 32 -5 32 62 0 83 6 79
14 -11 9 -95 14 -93 18 4 2 45 0 84 -5 87 -4 2 -4 10 0 16 4 7 0 6 -10 -2 -9
-7 -17 -9 -17 -3 0 12 -33 10 -42 -3 -4 -5 -8 5 -8 23 0 36 26 44 53 17 12
-11 17 -12 21 -2 3 7 7 3 11 -10 7 -23 25 -32 25 -13 0 19 27 10 38 -12 10
-21 11 -20 11 15 1 44 6 46 33 12 13 -17 29 -25 50 -25 19 0 28 -4 26 -12 -3
-7 -9 -12 -14 -11 -16 2 -22 -19 -13 -51 11 -37 1 -98 -15 -93 -12 4 -25 62
-25 120 -1 20 -6 37 -12 37 -6 0 -10 -19 -9 -47 3 -84 3 -84 -25 -73 -16 6
-25 6 -25 0 0 -5 11 -12 25 -16 14 -3 25 -10 25 -15 0 -5 11 -14 25 -19 14 -5
25 -13 25 -18 0 -12 -43 -9 -52 3 -5 6 -11 5 -17 -4 -7 -11 -13 -12 -24 -3 -9
7 -24 9 -43 4 -16 -5 -42 -8 -59 -8 -22 1 -33 -5 -42 -23 -17 -30 -17 -31 7
-31 13 0 20 7 20 20 0 11 7 20 15 20 8 0 12 -6 9 -14 -6 -16 11 -24 46 -21 21
2 25 7 22 29 -1 14 2 26 8 26 5 0 10 -9 10 -19 0 -11 5 -23 12 -27 8 -5 9 -2
5 9 -3 10 -2 17 3 17 6 0 10 -6 10 -12 0 -10 31 -13 120 -13 120 0 120 0 121
65 1 36 4 52 6 35 12 -102 6 -95 88 -95 75 0 75 0 76 63 2 62 2 62 13 -3 11
-65 11 -65 61 -60 28 3 49 8 48 13 -2 4 0 7 5 7 4 0 7 -6 7 -12 0 -8 11 -12
23 -11 13 2 21 -1 17 -7 -4 -7 3 -7 19 0 14 5 26 6 27 2 0 -4 4 2 9 13 7 15 9
16 9 4 1 -20 50 -32 68 -17 7 5 18 8 25 6 8 -3 4 -9 -11 -17 -17 -10 -86 -14
-242 -14 -176 -1 -219 -4 -219 -15 0 -9 -7 -11 -21 -7 -12 4 -51 8 -87 9 -47
2 -68 6 -77 19 -16 22 -26 22 -18 1 5 -14 3 -15 -14 -6 -15 8 -22 7 -31 -9
-12 -19 -42 -27 -42 -11 0 4 -11 9 -25 10 -14 1 -25 -2 -25 -6 0 -4 -25 -8
-55 -9 -30 -2 -55 1 -55 5 0 9 -121 7 -237 -3 -71 -7 -103 -25 -43 -25 39 0
39 -14 1 -17 -21 -2 -34 5 -45 22 -16 24 -16 25 6 25 13 0 41 9 64 19 28 13
46 16 57 9 15 -8 17 -4 17 27 0 21 -4 34 -10 30 -5 -3 -7 -12 -4 -19 3 -8 0
-17 -6 -21 -7 -4 -14 1 -17 13 -5 21 -33 39 -33 22 0 -5 -7 -6 -17 -3 -11 4
-14 3 -9 -5 7 -12 -51 -48 -62 -38 -3 3 0 6 7 6 7 0 10 4 7 9 -8 13 -65 19
-63 7 1 -6 -3 -10 -10 -9 -6 1 -64 3 -128 4 -95 1 -115 4 -111 15 4 10 -2 14
-22 13 -17 -1 -20 -3 -9 -6 29 -8 19 -23 -15 -23 -18 0 -51 -3 -73 -5 -40 -6
-40 -6 -7 12 43 22 41 41 -5 46 -21 3 -10 4 25 3 41 -1 62 3 62 11 0 6 6 13
13 16 7 3 2 9 -13 15 -21 9 -22 11 -5 11 34 1 29 48 -6 55 -31 6 -59 -1 -59
-15 0 -5 -11 -9 -25 -9 -14 0 -25 -6 -25 -13 0 -8 11 -20 25 -27 32 -17 32
-25 0 -26 -14 -1 -25 3 -25 9 0 7 -4 7 -12 -1 -21 -21 -28 -13 -28 27 0 41 11
51 56 51 20 0 23 4 22 35 -1 27 -6 35 -20 35 -10 0 -18 -5 -18 -11 0 -5 4 -8
9 -5 5 3 12 -1 15 -10 11 -29 6 -36 -18 -30 -14 3 -27 3 -29 -1 -3 -5 -29 -6
-57 -4 -29 2 -48 6 -43 10 5 3 13 14 16 25 6 14 13 17 33 12 17 -5 23 -3 19 4
-9 14 -48 13 -64 -2 -10 -11 -15 -9 -27 6 -10 14 -11 23 -4 30 14 14 167 18
175 5 4 -5 42 -9 86 -9 64 0 79 -3 79 -15 0 -8 -7 -15 -15 -15 -18 0 -20 -17
-3 -22 9 -3 11 -30 9 -91 -2 -81 -1 -87 17 -87 22 0 32 47 32 159 0 43 3 61 9
52 5 -8 7 -20 4 -27 -3 -9 4 -12 24 -11 20 1 28 -3 28 -15 0 -9 4 -20 8 -24
13 -14 7 -24 -15 -24 -16 0 -19 -3 -10 -8 19 -13 75 -2 63 12 -5 6 -11 29 -13
50 -3 35 -6 40 -32 43 -33 5 -60 22 -63 40 -2 10 3 10 21 1 27 -12 61 -4 51
12 -4 6 5 10 24 8 17 -1 28 -4 26 -7z m434 -13 c-5 -10 -15 -17 -22 -15 -7 1
-11 -4 -9 -10 1 -7 -2 -13 -8 -13 -5 0 -10 13 -10 28 0 25 4 29 29 29 26 0 29
-3 20 -19z m158 5 c-4 -3 -7 0 -7 7 0 7 3 10 7 7 3 -4 3 -10 0 -14z m1023 13
c0 -3 -5 -8 -12 -12 -7 -4 -8 -3 -4 4 7 12 16 16 16 8z m-2913 -28 c-3 -8 -6
-5 -6 6 -1 11 2 17 5 13 3 -3 4 -12 1 -19z m1123 12 c0 -6 -26 -10 -57 -9 -42
1 -51 3 -33 8 38 11 90 12 90 1z m897 -16 c-7 -7 -37 7 -37 17 0 6 9 5 21 -1
11 -7 19 -14 16 -16z m-1267 -24 c0 -7 -14 -8 -37 -4 -52 9 -54 14 -5 14 23 0
42 -5 42 -10z m1355 -10 c3 -5 16 -10 28 -10 18 0 19 -2 7 -10 -25 -16 -53
-12 -46 6 4 12 2 15 -9 10 -8 -3 -15 -1 -15 4 0 13 27 13 35 0z m-1305 -42 c0
-13 -37 -9 -49 6 -10 11 -8 17 6 25 17 10 43 -8 43 -31z m2170 38 c0 -2 -7 -6
-15 -10 -8 -3 -15 -1 -15 4 0 6 7 10 15 10 8 0 15 -2 15 -4z m37 -3 c-4 -3
-10 -3 -14 0 -3 4 0 7 7 7 7 0 10 -3 7 -7z m-2459 -14 c-2 -6 2 -13 9 -16 6
-2 13 3 15 13 3 14 5 14 22 -5 19 -21 19 -21 -2 -21 -12 0 -22 -4 -22 -9 0 -5
-9 -7 -20 -4 -22 6 -43 36 -33 47 11 10 33 7 31 -5z m130 -7 c2 -7 8 -12 13
-12 6 0 8 4 5 9 -3 5 0 11 8 14 8 3 16 -2 19 -14 4 -16 0 -19 -33 -19 -21 0
-45 -2 -52 -5 -9 -4 -19 4 -26 19 -11 24 -10 25 25 22 20 -1 38 -7 41 -14z
m710 -72 c-2 -61 -18 -36 -17 28 0 45 2 52 10 34 5 -13 8 -41 7 -62z m39 -2
c-2 -18 -4 -6 -4 27 0 33 2 48 4 33 2 -15 2 -42 0 -60z m340 50 c-3 -7 -5 -2
-5 12 0 14 2 19 5 13 2 -7 2 -19 0 -25z m285 20 c2 -6 2 -24 0 -40 -6 -38 -32
-19 -32 23 0 29 24 42 32 17z m845 -13 c26 -14 71 -31 98 -38 44 -10 50 -15
50 -37 -1 -25 -1 -25 -80 -22 -97 3 -124 17 -121 64 2 18 -2 39 -7 46 -15 19
6 15 60 -13z m-587 -4 c0 -10 -26 -9 -36 2 -4 4 2 7 14 7 12 0 22 -4 22 -9z
m90 5 c0 -11 -19 -15 -25 -6 -3 5 1 10 9 10 9 0 16 -2 16 -4z m-1615 -22 c8 3
15 1 15 -4 0 -6 -15 -10 -33 -10 -18 0 -38 -5 -45 -12 -6 -6 -15 -8 -19 -4
-14 14 38 48 53 35 8 -6 21 -9 29 -5z m362 -91 c-2 -21 -4 -6 -4 32 0 39 2 55
4 38 2 -18 2 -50 0 -70z m1020 75 c-3 -8 -6 -5 -6 6 -1 11 2 17 5 13 3 -3 4
-12 1 -19z m-1115 -10 c-9 -9 -15 -9 -24 0 -9 9 -7 12 12 12 19 0 21 -3 12
-12z m1038 2 c0 -5 -2 -10 -4 -10 -3 0 -8 5 -11 10 -3 6 -1 10 4 10 6 0 11 -4
11 -10z m-1199 -70 c15 0 10 -40 -6 -47 -24 -9 -26 -1 -18 63 7 52 8 54 11 22
2 -21 7 -38 13 -38z m1233 10 c-2 -56 -22 -72 -64 -50 -26 14 -20 95 7 95 11
0 25 3 29 8 18 18 29 -3 28 -53z m-1394 19 c0 -12 -43 6 -48 20 -3 9 2 9 22 0
14 -7 26 -16 26 -20z m267 24 c-4 -3 -10 -3 -14 0 -3 4 0 7 7 7 7 0 10 -3 7
-7z m28 -13 c3 -5 1 -10 -4 -10 -6 0 -11 5 -11 10 0 6 2 10 4 10 3 0 8 -4 11
-10z m1014 -47 c1 -7 -3 -13 -9 -13 -5 0 -10 17 -9 38 1 33 2 34 9 12 4 -14 8
-31 9 -37z m260 11 c9 -9 -35 -33 -51 -28 -9 3 -21 -3 -27 -13 -9 -15 -10 -12
-11 19 0 37 0 37 43 32 23 -4 44 -8 46 -10z m170 -6 c0 -13 -3 -17 -6 -10 -4
10 -8 10 -19 1 -8 -7 -18 -9 -22 -5 -7 8 25 36 40 36 4 0 8 -10 7 -22z m-272
-5 c-4 -3 -7 0 -7 7 0 7 3 10 7 7 3 -4 3 -10 0 -14z m213 7 c0 -5 -5 -10 -11
-10 -5 0 -7 5 -4 10 3 6 8 10 11 10 2 0 4 -4 4 -10z m-263 -17 c-4 -3 -7 0 -7
7 0 7 3 10 7 7 3 -4 3 -10 0 -14z m-2147 -8 c11 -13 10 -14 -4 -9 -9 3 -16 10
-16 15 0 13 6 11 20 -6z m2737 -12 c-4 -3 -7 0 -7 7 0 7 3 10 7 7 3 -4 3 -10
0 -14z m308 7 c3 -6 -1 -7 -9 -4 -18 7 -21 14 -7 14 6 0 13 -4 16 -10z m-248
-17 c-4 -3 -7 0 -7 7 0 7 3 10 7 7 3 -4 3 -10 0 -14z m-950 1 c-3 -3 -12 -4
-19 -1 -8 3 -5 6 6 6 11 1 17 -2 13 -5z m-2392 -14 c3 -5 4 -10 1 -10 -3 0 -8
5 -11 10 -3 6 -4 10 -1 10 3 0 8 -4 11 -10z m522 -17 c-4 -3 -7 0 -7 7 0 7 3
10 7 7 3 -4 3 -10 0 -14z m1503 2 c0 -9 -6 -12 -15 -9 -8 4 -12 10 -9 15 8 14
24 10 24 -6z m1266 4 c4 -8 9 -7 15 2 7 11 9 10 9 -3 0 -22 -18 -27 -58 -14
-29 8 -31 11 -16 17 28 11 42 10 50 -2z m219 -7 c-3 -3 -11 0 -18 7 -9 10 -8
11 6 5 10 -3 15 -9 12 -12z m-3055 -2 c12 -8 11 -10 -7 -10 -13 0 -23 5 -23
10 0 13 11 13 30 0z m227 4 c-3 -3 -12 -4 -19 -1 -8 3 -5 6 6 6 11 1 17 -2 13
-5z m60 -11 c-4 -3 -7 0 -7 7 0 7 3 10 7 7 3 -4 3 -10 0 -14z m-757 3 c0 -11
-19 -15 -25 -6 -3 5 1 10 9 10 9 0 16 -2 16 -4z m131 -13 c10 -11 10 -14 2 -9
-7 4 -13 3 -13 -2 0 -5 -18 -9 -40 -9 -22 0 -40 4 -40 8 0 5 -8 9 -17 10 -33
1 19 18 58 18 23 1 42 -5 50 -16z m1149 13 c0 -11 -19 -15 -25 -6 -3 5 1 10 9
10 9 0 16 -2 16 -4z m37 -3 c-4 -3 -10 -3 -14 0 -3 4 0 7 7 7 7 0 10 -3 7 -7z
m270 0 c-4 -3 -10 -3 -14 0 -3 4 0 7 7 7 7 0 10 -3 7 -7z m210 0 c-20 -2 -52
-2 -70 0 -17 2 0 4 38 4 39 0 53 -2 32 -4z m70 1 c-3 -3 -12 -4 -19 -1 -8 3
-5 6 6 6 11 1 17 -2 13 -5z m-1594 -21 c-7 -2 -19 -2 -25 0 -7 3 -2 5 12 5 14
0 19 -2 13 -5z m1372 -3 c3 -5 4 -10 1 -10 -3 0 -8 5 -11 10 -3 6 -4 10 -1 10
3 0 8 -4 11 -10z m-408 -7 c-4 -3 -10 -3 -14 0 -3 4 0 7 7 7 7 0 10 -3 7 -7z
m194 -16 c-10 -9 -11 -8 -5 6 3 10 9 15 12 12 3 -3 0 -11 -7 -18z m-1471 3
c-20 -13 -40 -13 -40 0 0 6 12 10 28 10 21 0 24 -2 12 -10z m2757 3 c-4 -3
-10 -3 -14 0 -3 4 0 7 7 7 7 0 10 -3 7 -7z m393 -2 c0 -4 11 -6 24 -4 20 4 25
1 23 -15 -1 -17 -5 -18 -29 -10 -15 6 -31 14 -34 19 -3 5 -10 9 -16 9 -7 0 -6
-5 1 -14 7 -9 8 -17 3 -20 -9 -6 -22 15 -22 35 0 5 11 9 25 9 14 0 25 -4 25
-9z m165 -1 c-3 -5 -10 -10 -16 -10 -5 0 -9 5 -9 10 0 6 7 10 16 10 8 0 12 -4
9 -10z m48 3 c-7 -2 -19 -2 -25 0 -7 3 -2 5 12 5 14 0 19 -2 13 -5z m194 0
c-4 -3 -10 -3 -14 0 -3 4 0 7 7 7 7 0 10 -3 7 -7z m-2240 -10 c-4 -3 -10 -3
-14 0 -3 4 0 7 7 7 7 0 10 -3 7 -7z m133 -11 c0 -12 -3 -12 -16 -1 -13 10 -17
10 -25 -2 -5 -8 -9 -9 -9 -3 0 16 10 23 31 21 10 -1 19 -8 19 -15z m201 -38
c-9 -39 -9 -39 -10 2 -1 22 2 44 6 48 12 12 14 -8 4 -50z m139 46 c0 -5 -7 -7
-15 -4 -8 4 -15 8 -15 10 0 2 7 4 15 4 8 0 15 -4 15 -10z m69 -12 c0 -13 -3
-17 -6 -10 -2 6 -14 12 -26 12 -18 0 -19 -2 -7 -11 12 -9 12 -10 1 -7 -27 7
-23 26 6 31 15 2 29 5 31 6 1 0 2 -9 1 -21z m656 12 c3 -5 4 -10 1 -10 -3 0
-8 5 -11 10 -3 6 -4 10 -1 10 3 0 8 -4 11 -10z m324 -4 c10 -11 7 -14 -14 -12
-27 1 -33 11 -12 19 6 3 13 6 13 6 1 1 7 -5 13 -13z m223 7 c-6 -2 -10 -9 -6
-14 3 -5 1 -9 -5 -9 -5 0 -12 4 -15 9 -6 9 10 19 29 19 6 0 4 -2 -3 -5z
m-1491 -13 c5 0 9 -4 9 -8 0 -14 -43 -7 -48 8 -3 9 1 11 12 7 10 -4 22 -7 27
-7z m354 0 c3 -5 1 -10 -4 -10 -6 0 -11 5 -11 10 0 6 2 10 4 10 3 0 8 -4 11
-10z m50 0 c3 -5 -1 -10 -10 -10 -9 0 -13 5 -10 10 3 6 8 10 10 10 2 0 7 -4
10 -10z m152 3 c-4 -3 -10 -3 -14 0 -3 4 0 7 7 7 7 0 10 -3 7 -7z m210 0 c-4
-3 -10 -3 -14 0 -3 4 0 7 7 7 7 0 10 -3 7 -7z m43 -8 c0 -9 -6 -12 -15 -9 -8
4 -12 10 -9 15 8 14 24 10 24 -6z m359 9 c36 -7 41 -23 9 -25 -23 -2 -23 -2 0
-6 32 -6 27 -25 -5 -19 -16 2 -31 5 -35 5 -5 1 -8 10 -8 22 0 11 -4 18 -9 14
-5 -3 -12 -1 -16 5 -7 11 18 13 64 4z m161 2 c0 -3 -4 -8 -10 -11 -5 -3 -10
-1 -10 4 0 6 5 11 10 11 6 0 10 -2 10 -4z m35 -6 c-3 -5 -10 -10 -16 -10 -5 0
-9 5 -9 10 0 6 7 10 16 10 8 0 12 -4 9 -10z m152 -7 c-4 -3 -7 0 -7 7 0 7 3
10 7 7 3 -4 3 -10 0 -14z m253 1 c0 -2 -9 -4 -21 -4 -11 0 -18 4 -14 10 5 8
35 3 35 -6z m-3290 -4 c0 -5 -4 -10 -9 -10 -6 0 -13 5 -16 10 -3 6 1 10 9 10
9 0 16 -4 16 -10z m1450 -19 c0 -28 -1 -29 -37 -20 -56 13 -61 11 -57 -17 2
-26 2 -26 -20 -5 -12 12 -28 21 -34 21 -7 0 -12 5 -12 10 0 6 32 10 75 10 60
0 75 3 75 15 0 8 2 15 5 15 3 0 5 -13 5 -29z m1160 14 c11 -13 10 -14 -4 -9
-9 3 -16 10 -16 15 0 13 6 11 20 -6z m360 5 c8 -5 11 -10 5 -10 -5 0 -17 5
-25 10 -8 5 -10 10 -5 10 6 0 17 -5 25 -10z m-3053 -7 c-4 -3 -10 -3 -14 0 -3
4 0 7 7 7 7 0 10 -3 7 -7z m1930 0 c-4 -3 -10 -3 -14 0 -3 4 0 7 7 7 7 0 10
-3 7 -7z m270 -8 c3 -9 3 -18 0 -22 -8 -8 -66 20 -61 29 9 14 54 8 61 -7z
m1478 5 c3 -5 4 -10 1 -10 -3 0 -8 5 -11 10 -3 6 -4 10 -1 10 3 0 8 -4 11 -10z
m-1858 -7 c-4 -3 -10 -3 -14 0 -3 4 0 7 7 7 7 0 10 -3 7 -7z m550 0 c-4 -3
-10 -3 -14 0 -3 4 0 7 7 7 7 0 10 -3 7 -7z m-757 -7 c0 -11 -19 -15 -25 -6 -3
5 1 10 9 10 9 0 16 -2 16 -4z m405 -5 c-6 -5 -19 -11 -30 -13 -11 -2 -19 -11
-17 -19 2 -8 -5 -5 -17 8 -29 31 -27 33 26 33 28 0 43 -4 38 -9z m830 -1 c-3
-5 -12 -10 -18 -10 -7 0 -6 4 3 10 19 12 23 12 15 0z m160 0 c-8 -13 -55 -13
-75 0 -11 7 -2 10 33 10 30 0 46 -4 42 -10z m42 -5 c0 -18 -19 -15 -25 3 -2 7
3 12 11 12 7 0 14 -7 14 -15z m105 2 c-12 -7 -19 -16 -16 -20 4 -4 2 -7 -4 -7
-7 0 -12 4 -12 10 0 10 29 29 45 29 6 0 0 -5 -13 -12z m-3105 -14 c-4 -3 -7 0
-7 7 0 7 3 10 7 7 3 -4 3 -10 0 -14z m2400 10 c-4 -3 -10 -3 -14 0 -3 4 0 7 7
7 7 0 10 -3 7 -7z m270 0 c-4 -3 -10 -3 -14 0 -3 4 0 7 7 7 7 0 10 -3 7 -7z
m193 3 c0 -3 -5 -8 -12 -12 -7 -4 -8 -3 -4 4 7 12 16 16 16 8z m-2890 -15 c0
-4 -11 -6 -25 -3 -14 2 -25 6 -25 8 0 2 11 4 25 4 14 0 25 -4 25 -9z m1637 3
c-3 -3 -12 -4 -19 -1 -8 3 -5 6 6 6 11 1 17 -2 13 -5z m150 -1 c-4 -3 -10 -3
-14 0 -3 4 0 7 7 7 7 0 10 -3 7 -7z m-407 -32 c0 -13 -2 -13 -9 -2 -7 11 -9
11 -14 0 -3 -8 -6 -5 -6 8 -1 16 3 21 14 17 8 -4 15 -14 15 -23z m74 8 c-6
-11 -24 -2 -24 11 0 5 7 7 15 4 8 -4 12 -10 9 -15z m983 14 c-4 -3 -10 -3 -14
0 -3 4 0 7 7 7 7 0 10 -3 7 -7z m306 -3 c7 0 7 -4 -1 -12 -10 -10 -15 -10 -21
1 -5 8 -14 10 -21 6 -9 -6 -11 -4 -6 4 5 7 15 10 23 7 8 -3 20 -6 26 -6z
m-2703 -10 c0 -5 -4 -10 -10 -10 -5 0 -10 5 -10 10 0 6 5 10 10 10 6 0 10 -4
10 -10z m1470 0 c0 -5 -2 -10 -4 -10 -3 0 -8 5 -11 10 -3 6 -1 10 4 10 6 0 11
-4 11 -10z m315 0 c-3 -5 -14 -10 -25 -10 -10 0 -21 -7 -24 -16 -4 -9 -9 -14
-13 -11 -3 4 -13 2 -22 -4 -9 -6 0 3 19 20 32 29 79 44 65 21z m85 -12 c0 -13
-23 -5 -28 10 -2 7 2 10 12 6 9 -3 16 -11 16 -16z m867 5 c-4 -3 -7 0 -7 7 0
7 3 10 7 7 3 -4 3 -10 0 -14z m-2863 1 c22 -9 10 -23 -14 -17 -11 3 -17 9 -14
14 6 11 8 11 28 3z m73 -1 c-4 -3 -10 -3 -14 0 -3 4 0 7 7 7 7 0 10 -3 7 -7z
m830 -15 c-3 -8 -6 -5 -6 6 -1 11 2 17 5 13 3 -3 4 -12 1 -19z m33 12 c0 -5
-5 -10 -11 -10 -5 0 -7 5 -4 10 3 6 8 10 11 10 2 0 4 -4 4 -10z m810 6 c0 -11
-19 -15 -25 -6 -3 5 1 10 9 10 9 0 16 -2 16 -4z m317 -3 c-4 -3 -10 -3 -14 0
-3 4 0 7 7 7 7 0 10 -3 7 -7z m-407 -7 c0 -3 -4 -8 -10 -11 -5 -3 -10 -1 -10
4 0 6 5 11 10 11 6 0 10 -2 10 -4z m43 -15 c3 -14 1 -18 -9 -14 -8 3 -14 11
-14 19 0 21 17 17 23 -5z m94 12 c-4 -3 -10 -3 -14 0 -3 4 0 7 7 7 7 0 10 -3
7 -7z m653 -3 c0 -5 -2 -10 -4 -10 -3 0 -8 5 -11 10 -3 6 -1 10 4 10 6 0 11
-4 11 -10z m853 3 c-7 -2 -19 -2 -25 0 -7 3 -2 5 12 5 14 0 19 -2 13 -5z m140
0 c-7 -2 -19 -2 -25 0 -7 3 -2 5 12 5 14 0 19 -2 13 -5z m-1888 -14 c11 -17
-3 -23 -21 -8 -15 12 -16 11 -9 -11 7 -24 7 -24 -8 -5 -8 11 -13 23 -11 27 7
12 42 10 49 -3z m805 -3 c0 -2 -7 -7 -16 -10 -8 -3 -12 -2 -9 4 6 10 25 14 25
6z m765 -4 c-18 -17 -91 -26 -77 -10 6 8 28 15 49 16 24 2 34 -1 28 -6z
m-3175 -22 c-6 -11 -13 -20 -16 -20 -2 0 0 9 6 20 6 11 13 20 16 20 2 0 0 -9
-6 -20z m40 16 c0 -2 -7 -9 -15 -16 -13 -11 -14 -10 -9 4 5 14 24 23 24 12z
m1757 -3 c-4 -3 -10 -3 -14 0 -3 4 0 7 7 7 7 0 10 -3 7 -7z m570 1 c-3 -3 -12
-4 -19 -1 -8 3 -5 6 6 6 11 1 17 -2 13 -5z m330 -10 c-3 -3 -12 -4 -19 -1 -8
3 -5 6 6 6 11 1 17 -2 13 -5z m-1133 -66 c5 -39 10 -48 26 -48 12 0 20 7 20
16 0 9 6 14 13 11 6 -2 11 -15 9 -28 -3 -27 -30 -52 -49 -45 -8 3 -13 -2 -13
-14 0 -18 -7 -20 -59 -20 -58 0 -58 0 -65 53 -9 76 -7 117 4 117 6 0 11 -8 11
-17 1 -16 2 -16 6 -1 4 17 28 25 70 24 18 -1 22 -9 27 -48z m616 42 c-8 -5
-22 -10 -30 -10 -13 0 -13 1 0 10 8 5 22 10 30 10 13 0 13 -1 0 -10z m-2180
-20 c-6 -11 -13 -20 -16 -20 -2 0 0 9 6 20 6 11 13 20 16 20 2 0 0 -9 -6 -20z
m957 3 c-4 -3 -7 0 -7 7 0 7 3 10 7 7 3 -4 3 -10 0 -14z m853 3 c0 -9 -7 -12
-20 -9 -11 3 -17 9 -14 14 8 14 34 10 34 -5z m-1780 0 c0 -3 -5 -8 -12 -12 -7
-4 -8 -3 -4 4 7 12 16 16 16 8z m1377 -28 c-3 -8 -6 -5 -6 6 -1 11 2 17 5 13
3 -3 4 -12 1 -19z m648 13 c7 -12 -12 -24 -25 -16 -11 7 -4 25 10 25 5 0 11
-4 15 -9z m-2085 -5 c0 -3 -5 -8 -12 -12 -7 -4 -8 -3 -4 4 7 12 16 16 16 8z
m1891 -65 c7 -17 7 -33 -1 -49 -9 -21 -8 -23 5 -19 8 4 15 2 15 -3 0 -6 -25
-10 -57 -10 -56 0 -56 0 -31 23 19 17 23 28 19 52 -4 20 -9 26 -14 18 -5 -7
-23 -13 -40 -13 -32 -1 -32 -1 -2 -25 28 -23 29 -25 8 -25 -16 0 -21 -4 -17
-15 5 -11 -2 -15 -26 -15 -31 0 -32 1 -17 18 10 10 14 21 11 25 -4 3 -4 17 0
31 12 48 130 54 147 7z m706 22 c-4 -3 -10 -3 -14 0 -3 4 0 7 7 7 7 0 10 -3 7
-7z m-1160 -50 c-3 -27 -1 -56 4 -65 5 -9 5 -19 1 -22 -5 -3 -8 -23 -8 -44 1
-40 1 -40 -74 -45 -41 -3 -123 -4 -182 -3 -66 0 -108 -3 -108 -9 0 -5 -5 -3
-10 5 -11 16 -12 74 -4 150 5 45 5 45 75 42 38 -2 69 -8 69 -12 0 -5 23 -2 51
6 28 9 57 13 65 10 8 -3 14 1 14 9 0 9 10 15 25 15 31 0 32 -8 3 -20 -23 -10
-23 -10 2 -9 48 2 59 -1 63 -18 3 -10 5 -1 6 20 0 20 4 37 7 37 4 0 4 -21 1
-47z m616 31 c-2 -6 -15 -9 -28 -6 -31 5 -25 17 8 17 14 0 23 -5 20 -11z
m1494 -1 c-4 -3 -7 0 -7 7 0 7 3 10 7 7 3 -4 3 -10 0 -14z m160 10 c-4 -3 -10
-3 -14 0 -3 4 0 7 7 7 7 0 10 -3 7 -7z m-2492 -13 c-3 -5 -12 -10 -18 -10 -7
0 -6 4 3 10 19 12 23 12 15 0z m103 5 c-8 -8 -77 -9 -85 -2 -3 4 15 7 42 7 27
0 46 -2 43 -5z m409 -20 c-4 -8 -11 -15 -17 -15 -6 0 -6 7 2 20 14 22 24 19
15 -5z m1413 21 c0 -3 -5 -8 -12 -12 -7 -4 -8 -3 -4 4 7 12 16 16 16 8z m127
-3 c-4 -3 -10 -3 -14 0 -3 4 0 7 7 7 7 0 10 -3 7 -7z m-2733 -20 c33 -15 35
-19 40 -77 6 -66 4 -126 -4 -126 -3 0 -23 7 -45 14 -40 14 -40 14 -42 110 -3
104 -2 105 51 79z m2416 1 c0 -2 -7 -4 -15 -4 -8 0 -15 4 -15 10 0 5 7 7 15 4
8 -4 15 -8 15 -10z m-1993 -11 c-4 -3 -7 0 -7 7 0 7 3 10 7 7 3 -4 3 -10 0
-14z m873 7 c0 -5 -5 -10 -11 -10 -5 0 -7 5 -4 10 3 6 8 10 11 10 2 0 4 -4 4
-10z m-1563 -7 c-4 -3 -10 -3 -14 0 -3 4 0 7 7 7 7 0 10 -3 7 -7z m320 -10
c-4 -3 -7 0 -7 7 0 7 3 10 7 7 3 -4 3 -10 0 -14z m248 3 c28 2 61 6 73 9 16 4
21 2 17 -5 -4 -7 2 -14 14 -17 16 -4 21 -12 18 -31 -4 -33 -15 -35 -174 -36
-72 -1 -135 -4 -139 -9 -4 -4 4 -7 17 -8 22 0 22 -1 4 -8 -11 -5 -23 -7 -27
-4 -15 8 -8 -15 9 -28 15 -12 16 -12 10 4 -6 17 10 22 57 17 10 -1 16 2 13 7
-3 5 42 10 99 12 104 3 105 2 92 -18 -7 -12 -18 -21 -25 -21 -7 0 -13 -5 -13
-11 0 -7 7 -8 18 -4 52 21 87 9 43 -14 -25 -14 -255 -32 -308 -24 -37 5 -65
33 -33 33 6 0 10 11 10 24 0 14 5 28 10 31 16 10 12 23 -10 30 -11 4 -20 15
-20 26 0 11 5 17 10 14 9 -6 14 8 11 28 -1 5 6 6 16 3 54 -16 73 -18 73 -6 0
6 4 8 10 5 5 -3 18 -2 27 4 10 5 24 6 33 2 8 -4 38 -6 65 -5z m-549 -84 c-12
-12 -26 13 -25 46 0 37 0 37 15 -2 8 -22 12 -41 10 -44z m2594 63 c0 -8 -4
-15 -10 -15 -5 0 -7 7 -4 15 4 8 8 15 10 15 2 0 4 -7 4 -15z m-1187 -46 c8 6
18 5 30 -4 21 -15 6 -31 -20 -21 -8 4 -32 2 -52 -3 -61 -16 -181 -21 -181 -8
0 7 -3 22 -6 35 -6 20 -3 22 40 22 37 0 46 -4 47 -17 1 -17 2 -17 6 0 3 13 15
17 48 17 25 0 50 6 57 14 11 12 14 9 16 -16 2 -21 7 -27 15 -19z m-1528 31 c4
-6 -5 -10 -20 -10 -15 0 -24 4 -20 10 3 6 12 10 20 10 8 0 17 -4 20 -10z
m1832 -32 c-3 -8 -6 -5 -6 6 -1 11 2 17 5 13 3 -3 4 -12 1 -19z m763 1 c0 -5
-9 -9 -19 -9 -11 0 -26 -3 -35 -6 -10 -4 -16 -1 -16 9 0 9 8 17 18 19 23 5 52
-2 52 -13z m167 14 c-4 -3 -10 -3 -14 0 -3 4 0 7 7 7 7 0 10 -3 7 -7z m43 -3
c0 -5 -7 -10 -15 -10 -8 0 -15 5 -15 10 0 6 7 10 15 10 8 0 15 -4 15 -10z m27
3 c-4 -3 -10 -3 -14 0 -3 4 0 7 7 7 7 0 10 -3 7 -7z m320 0 c-4 -3 -10 -3 -14
0 -3 4 0 7 7 7 7 0 10 -3 7 -7z m-2290 -20 c-4 -3 -7 0 -7 7 0 7 3 10 7 7 3
-4 3 -10 0 -14z m920 0 c-4 -3 -7 0 -7 7 0 7 3 10 7 7 3 -4 3 -10 0 -14z m163
7 c0 -5 -5 -10 -11 -10 -5 0 -7 5 -4 10 3 6 8 10 11 10 2 0 4 -4 4 -10z
m-1770 -21 c0 -5 -4 -9 -10 -9 -5 0 -10 7 -10 16 0 8 5 12 10 9 6 -3 10 -10
10 -16z m-213 -6 c-4 -3 -7 0 -7 7 0 7 3 10 7 7 3 -4 3 -10 0 -14z m53 13 c0
-3 -4 -8 -10 -11 -5 -3 -10 -1 -10 4 0 6 5 11 10 11 6 0 10 -2 10 -4z m27 -13
c-4 -3 -7 0 -7 7 0 7 3 10 7 7 3 -4 3 -10 0 -14z m40 0 c-4 -3 -7 0 -7 7 0 7
3 10 7 7 3 -4 3 -10 0 -14z m686 -110 c-7 -2 -21 -2 -30 0 -10 3 -4 5 12 5 17
0 24 -2 18 -5z m61 -31 c-22 -5 -31 7 -14 18 9 6 17 5 22 -3 4 -7 1 -13 -8
-15z m423 21 c-4 -3 -10 -3 -14 0 -3 4 0 7 7 7 7 0 10 -3 7 -7z"/>
<path d="M3000 1600 c0 -7 3 -10 7 -7 3 4 3 10 0 14 -4 3 -7 0 -7 -7z"/>
<path d="M3001 1524 c0 -11 3 -14 6 -6 3 7 2 16 -1 19 -3 4 -6 -2 -5 -13z"/>
<path d="M3040 1520 c0 -5 9 -14 20 -20 11 -6 20 -7 20 -3 0 5 -9 14 -20 21
-11 7 -20 8 -20 2z"/>
<path d="M3380 1515 c7 -8 17 -15 23 -15 6 0 19 -7 29 -17 11 -10 18 -12 18
-4 0 11 -57 51 -74 51 -5 0 -3 -7 4 -15z"/>
<path d="M3390 1480 c0 -7 3 -10 7 -7 3 4 3 10 0 14 -4 3 -7 0 -7 -7z"/>
<path d="M3277 1419 c7 -7 15 -10 18 -7 3 3 -2 9 -12 12 -14 6 -15 5 -6 -5z"/>
<path d="M3408 1423 c7 -3 16 -2 19 1 4 3 -2 6 -13 5 -11 0 -14 -3 -6 -6z"/>
<path d="M3323 1413 c9 -2 23 -2 30 0 6 3 -1 5 -18 5 -16 0 -22 -2 -12 -5z"/>
<path d="M3558 1274 c-21 -11 -28 -22 -28 -44 0 -32 9 -37 28 -18 10 10 15 10
22 -2 7 -11 10 -1 10 33 0 26 -1 47 -2 47 -2 -1 -15 -8 -30 -16z"/>
<path d="M3400 1250 c0 -5 5 -10 11 -10 5 0 7 5 4 10 -3 6 -8 10 -11 10 -2 0
-4 -4 -4 -10z"/>
<path d="M3463 1243 c4 -3 10 -3 14 0 3 4 0 7 -7 7 -7 0 -10 -3 -7 -7z"/>
<path d="M3440 1171 c17 -12 149 -45 155 -39 15 15 -10 48 -37 48 -19 0 -27
-4 -22 -11 5 -9 -1 -10 -21 -5 -60 15 -91 18 -75 7z"/>
<path d="M2770 1597 c0 -2 14 -16 32 -33 31 -29 31 -29 9 4 -18 26 -41 42 -41
29z"/>
<path d="M840 1330 c0 -5 5 -10 10 -10 6 0 10 5 10 10 0 6 -4 10 -10 10 -5 0
-10 -4 -10 -10z"/>
<path d="M851 1301 c-10 -6 -10 -10 -1 -16 13 -8 24 -1 19 14 -3 6 -10 7 -18
2z"/>
<path d="M840 1250 c-9 -6 -10 -10 -3 -10 6 0 15 5 18 10 8 12 4 12 -15 0z"/>
<path d="M1180 1210 c0 -7 3 -10 7 -7 3 4 3 10 0 14 -4 3 -7 0 -7 -7z"/>
<path d="M1200 1200 c0 -11 4 -20 9 -20 5 0 7 9 4 20 -3 11 -7 20 -9 20 -2 0
-4 -9 -4 -20z"/>
<path d="M1082 1165 c0 -16 2 -22 5 -12 2 9 2 23 0 30 -3 6 -5 -1 -5 -18z"/>
<path d="M1212 1145 c0 -16 2 -22 5 -12 2 9 2 23 0 30 -3 6 -5 -1 -5 -18z"/>
<path d="M1078 1089 c-2 -22 0 -43 4 -45 4 -3 8 15 8 40 0 57 -7 60 -12 5z"/>
<path d="M1215 1043 c2 -60 1 -63 -22 -63 -29 0 -63 17 -80 39 -11 14 -12 13
-13 -6 0 -27 11 -34 59 -40 81 -8 101 -14 101 -28 0 -8 5 -15 10 -15 13 0 13
13 1 26 -5 5 -7 23 -3 39 6 30 6 30 13 -5 6 -35 6 -35 8 2 0 21 -4 38 -11 41
-8 3 -5 6 5 6 27 1 -14 57 -46 63 -23 5 -24 3 -22 -59z m55 27 c0 -5 -9 -10
-20 -10 -11 0 -20 5 -20 10 0 6 9 10 20 10 11 0 20 -4 20 -10z m-33 -37 c-4
-3 -7 0 -7 7 0 7 3 10 7 7 3 -4 3 -10 0 -14z"/>
<path d="M1181 1004 c0 -11 3 -14 6 -6 3 7 2 16 -1 19 -3 4 -6 -2 -5 -13z"/>
<path d="M1310 982 c0 -12 13 -23 35 -32 19 -8 35 -20 35 -27 0 -7 7 -13 15
-13 8 0 15 6 15 14 0 8 6 17 13 19 6 3 -2 6 -20 6 -19 1 -43 11 -59 26 -32 30
-34 30 -34 7z"/>
<path d="M1403 983 c4 -3 10 -3 14 0 3 4 0 7 -7 7 -7 0 -10 -3 -7 -7z"/>
<path d="M517 930 c-4 -16 -14 -20 -48 -20 -52 0 -48 -5 7 -13 39 -4 64 14 64
48 0 14 -18 2 -23 -15z"/>
<path d="M660 926 c0 -17 5 -26 16 -26 10 0 14 7 12 22 -5 32 -28 35 -28 4z"/>
<path d="M557 883 c18 -2 50 -2 70 0 21 2 7 4 -32 4 -38 0 -55 -2 -38 -4z"/>
<path d="M1090 842 c0 -4 9 -13 20 -20 11 -7 20 -9 20 -4 0 4 -9 13 -20 20
-11 7 -20 9 -20 4z"/>
<path d="M1365 801 c-6 -5 -30 -11 -55 -14 -42 -3 -41 -4 13 -5 31 -1 57 -5
57 -10 0 -4 -18 -6 -40 -4 -34 4 -40 1 -40 -14 0 -15 2 -16 9 -5 5 8 14 10 21
6 7 -4 34 -9 59 -10 25 -1 40 0 34 2 -7 3 -13 13 -13 24 0 10 -6 19 -14 19 -8
0 -16 5 -18 10 -2 7 -7 7 -13 1z"/>
<path d="M1090 775 c0 -8 4 -15 10 -15 5 0 7 7 4 15 -4 8 -8 15 -10 15 -2 0
-4 -7 -4 -15z"/>
<path d="M1120 766 c0 -2 7 -6 15 -10 8 -3 15 -1 15 4 0 6 -7 10 -15 10 -8 0
-15 -2 -15 -4z"/>
<path d="M1273 755 c0 -8 4 -12 9 -9 4 3 8 9 8 15 0 5 -4 9 -8 9 -5 0 -9 -7
-9 -15z"/>
<path d="M412 735 c2 -12 -2 -19 -9 -17 -7 1 -13 -2 -13 -8 0 -5 4 -10 9 -10
5 0 14 -12 19 -27 9 -25 10 -23 8 19 -1 26 -5 50 -10 55 -4 4 -6 -1 -4 -12z"/>
<path d="M1140 729 c0 -5 5 -7 10 -4 6 3 10 8 10 11 0 2 -4 4 -10 4 -5 0 -10
-5 -10 -11z"/>
<path d="M1930 1436 c0 -4 7 -14 15 -22 8 -9 15 -11 15 -6 0 5 -7 15 -15 22
-8 7 -15 9 -15 6z"/>
<path d="M1980 1425 c7 -9 15 -13 17 -11 7 7 -7 26 -19 26 -6 0 -6 -6 2 -15z"/>
<path d="M2650 1420 c-8 -5 -10 -10 -5 -10 6 0 17 5 25 10 8 5 11 10 5 10 -5
0 -17 -5 -25 -10z"/>
<path d="M2450 1370 c0 -5 7 -10 16 -10 8 0 12 5 9 10 -3 6 -10 10 -16 10 -5
0 -9 -4 -9 -10z"/>
<path d="M2421 1283 c-1 -7 -8 -10 -16 -7 -13 5 -15 -8 -15 -85 0 -91 0 -91
29 -91 35 0 39 9 41 103 1 53 -2 67 -14 67 -8 0 -17 6 -19 13 -4 9 -6 9 -6 0z
m16 -135 c-2 -18 -4 -4 -4 32 0 36 2 50 4 33 2 -18 2 -48 0 -65z"/>
<path d="M2343 1261 c-3 -12 -9 -21 -14 -21 -5 0 -9 -7 -9 -16 0 -8 5 -12 10
-9 6 4 10 -16 10 -53 0 -72 24 -95 34 -34 12 74 -15 192 -31 133z m14 -138
c-4 -3 -7 0 -7 7 0 7 3 10 7 7 3 -4 3 -10 0 -14z"/>
<path d="M1720 1260 c0 -5 5 -10 11 -10 5 0 7 5 4 10 -3 6 -8 10 -11 10 -2 0
-4 -4 -4 -10z"/>
<path d="M1831 1238 c0 -16 2 -18 6 -8 3 8 11 18 17 22 7 5 4 8 -6 8 -12 0
-18 -7 -17 -22z"/>
<path d="M1878 1253 c7 -3 16 -2 19 1 4 3 -2 6 -13 5 -11 0 -14 -3 -6 -6z"/>
<path d="M2720 1240 c0 -7 3 -10 7 -7 3 4 3 10 0 14 -4 3 -7 0 -7 -7z"/>
<path d="M1993 1140 c1 -44 4 -80 7 -80 12 0 29 55 20 64 -5 5 -10 29 -10 53
0 24 -4 43 -10 43 -5 0 -8 -34 -7 -80z"/>
<path d="M2471 1184 c0 -11 3 -14 6 -6 3 7 2 16 -1 19 -3 4 -6 -2 -5 -13z"/>
<path d="M2270 1150 c0 -5 7 -7 15 -4 8 4 15 8 15 10 0 2 -7 4 -15 4 -8 0 -15
-4 -15 -10z"/>
<path d="M1900 1120 c0 -7 3 -10 7 -7 3 4 3 10 0 14 -4 3 -7 0 -7 -7z"/>
<path d="M2047 1093 c-11 -10 -8 -35 3 -28 6 4 7 11 4 17 -4 6 -1 8 7 6 8 -3
13 -11 12 -17 -2 -6 8 -11 22 -11 14 0 25 5 25 12 0 6 -3 8 -6 5 -4 -3 -16 0
-28 8 -23 17 -30 18 -39 8z"/>
<path d="M2130 1082 c0 -14 11 -21 26 -15 21 8 17 23 -6 23 -11 0 -20 -4 -20
-8z"/>
<path d="M2484 1069 c-3 -6 -14 -9 -24 -6 -13 3 -19 -2 -23 -19 -5 -30 -6 -30
48 -26 40 4 46 7 43 26 -4 32 -30 47 -44 25z m-4 -29 c0 -5 -4 -10 -9 -10 -6
0 -13 5 -16 10 -3 6 1 10 9 10 9 0 16 -4 16 -10z"/>
<path d="M2238 1063 c7 -3 16 -2 19 1 4 3 -2 6 -13 5 -11 0 -14 -3 -6 -6z"/>
<path d="M2380 1035 c0 -8 9 -19 20 -25 11 -6 20 -8 20 -5 0 3 -9 14 -20 25
-15 15 -20 16 -20 5z"/>
<path d="M3828 1123 c7 -3 16 -2 19 1 4 3 -2 6 -13 5 -11 0 -14 -3 -6 -6z"/>
<path d="M1680 1079 c0 -5 5 -7 10 -4 6 3 10 8 10 11 0 2 -4 4 -10 4 -5 0 -10
-5 -10 -11z"/>
<path d="M2885 1070 c-3 -5 -2 -10 4 -10 5 0 13 5 16 10 3 6 2 10 -4 10 -5 0
-13 -4 -16 -10z"/>
<path d="M300 1000 c0 -7 3 -10 7 -7 3 4 3 10 0 14 -4 3 -7 0 -7 -7z"/>
<path d="M1559 741 c7 -5 11 -13 7 -19 -3 -5 1 -13 10 -16 12 -5 15 -2 10 10
-3 8 -6 20 -6 25 0 5 -8 9 -17 9 -14 0 -15 -2 -4 -9z"/>
<path d="M1548 643 c12 -2 30 -2 40 0 9 3 -1 5 -23 4 -22 0 -30 -2 -17 -4z"/>
<path d="M1120 560 c0 -7 3 -10 7 -7 3 4 3 10 0 14 -4 3 -7 0 -7 -7z"/>
<path d="M1330 550 c0 -7 3 -10 7 -7 3 4 3 10 0 14 -4 3 -7 0 -7 -7z"/>
<path d="M1163 523 c4 -3 10 -3 14 0 3 4 0 7 -7 7 -7 0 -10 -3 -7 -7z"/>
<path d="M700 515 c0 -8 4 -15 10 -15 5 0 7 7 4 15 -4 8 -8 15 -10 15 -2 0 -4
-7 -4 -15z"/>
<path d="M730 520 c0 -7 3 -10 7 -7 3 4 3 10 0 14 -4 3 -7 0 -7 -7z"/>
<path d="M855 510 c3 -5 8 -10 11 -10 3 0 2 5 -1 10 -3 6 -8 10 -11 10 -3 0
-2 -4 1 -10z"/>
<path d="M2563 1673 c4 -3 10 -3 14 0 3 4 0 7 -7 7 -7 0 -10 -3 -7 -7z"/>
<path d="M1390 1656 c-6 -8 -20 -16 -30 -18 -13 -2 -17 -7 -12 -15 6 -9 17 -5
43 17 18 16 29 29 23 30 -6 0 -17 -6 -24 -14z"/>
<path d="M2190 1646 c0 -2 7 -7 16 -10 8 -3 12 -2 9 4 -6 10 -25 14 -25 6z"/>
<path d="M2230 1641 c0 -5 7 -11 15 -15 8 -3 15 -1 15 3 0 5 -7 11 -15 15 -8
3 -15 1 -15 -3z"/>
<path d="M2293 1623 c4 -3 10 -3 14 0 3 4 0 7 -7 7 -7 0 -10 -3 -7 -7z"/>
<path d="M2448 1623 c7 -3 16 -2 19 1 4 3 -2 6 -13 5 -11 0 -14 -3 -6 -6z"/>
<path d="M2493 1623 c4 -3 10 -3 14 0 3 4 0 7 -7 7 -7 0 -10 -3 -7 -7z"/>
<path d="M1250 1605 c24 -8 46 -12 48 -10 7 7 -47 25 -71 24 -13 0 -4 -6 23
-14z"/>
<path d="M1720 1609 c0 -5 11 -9 25 -9 14 0 25 2 25 4 0 2 -11 6 -25 8 -14 3
-25 1 -25 -3z"/>
<path d="M1388 1573 c7 -3 16 -2 19 1 4 3 -2 6 -13 5 -11 0 -14 -3 -6 -6z"/>
<path d="M1435 1560 c27 -12 43 -12 25 0 -8 5 -22 9 -30 9 -10 0 -8 -3 5 -9z"/>
<path d="M1150 1530 c30 -4 59 -3 65 1 5 5 -19 8 -55 8 -65 -2 -65 -2 -10 -9z"/>
<path d="M1814 1503 c3 -6 0 -14 -6 -16 -7 -3 41 -6 107 -7 66 -1 155 -4 198
-5 42 -1 77 1 77 6 0 5 -80 9 -178 9 -129 0 -182 3 -191 13 -9 8 -12 8 -7 0z"/>
<path d="M2205 1480 c-8 -13 5 -13 25 0 13 8 13 10 -2 10 -9 0 -20 -4 -23 -10z"/>
<path d="M500 1470 c0 -6 7 -13 15 -17 24 -9 27 1 5 15 -13 8 -20 8 -20 2z"/>
<path d="M11 1446 c-17 -20 -11 -96 6 -89 7 3 13 9 13 15 0 5 -4 6 -10 3 -5
-3 -10 1 -10 9 0 9 5 16 10 16 6 0 10 5 10 11 0 5 -4 7 -10 4 -20 -13 -9 14
12 29 17 12 18 16 6 16 -8 0 -21 -6 -27 -14z"/>
<path d="M54 1434 c-15 -22 -9 -58 8 -48 6 4 6 9 -2 14 -10 6 -9 13 3 30 9 13
16 17 19 10 3 -9 7 -8 15 2 10 11 8 14 -9 14 -11 0 -27 -10 -34 -22z"/>
<path d="M125 1450 c-7 -11 9 -11 45 0 24 8 24 8 -7 9 -17 1 -35 -3 -38 -9z"/>
<path d="M440 1450 c0 -7 3 -10 7 -7 3 4 3 10 0 14 -4 3 -7 0 -7 -7z"/>
<path d="M475 1450 c-3 -5 -1 -10 4 -10 6 0 11 5 11 10 0 6 -2 10 -4 10 -3 0
-8 -4 -11 -10z"/>
<path d="M635 1439 c-4 -6 -5 -12 -2 -15 2 -3 7 2 10 11 7 17 1 20 -8 4z"/>
<path d="M200 1410 c0 -7 3 -10 7 -7 3 4 3 10 0 14 -4 3 -7 0 -7 -7z"/>
<path d="M443 1380 c0 -25 2 -35 4 -22 2 12 2 32 0 45 -2 12 -4 2 -4 -23z"/>
<path d="M80 1399 c0 -5 5 -7 10 -4 6 3 10 8 10 11 0 2 -4 4 -10 4 -5 0 -10
-5 -10 -11z"/>
<path d="M1247 1389 c7 -7 15 -10 18 -7 3 3 -2 9 -12 12 -14 6 -15 5 -6 -5z"/>
<path d="M1583 1383 c4 -3 10 -3 14 0 3 4 0 7 -7 7 -7 0 -10 -3 -7 -7z"/>
<path d="M1683 1373 c9 -2 23 -2 30 0 6 3 -1 5 -18 5 -16 0 -22 -2 -12 -5z"/>
<path d="M273 1343 c4 -3 10 -3 14 0 3 4 0 7 -7 7 -7 0 -10 -3 -7 -7z"/>
<path d="M13 1287 c-6 -6 -10 -30 -10 -53 -1 -38 1 -40 23 -36 13 2 25 7 25
11 1 3 3 19 5 34 1 16 8 35 15 43 8 10 8 14 0 14 -6 0 -11 -5 -11 -10 0 -7 -6
-7 -19 -1 -13 8 -22 7 -28 -2z"/>
<path d="M133 1293 c4 -3 10 -3 14 0 3 4 0 7 -7 7 -7 0 -10 -3 -7 -7z"/>
<path d="M475 1291 c-3 -2 -5 -22 -5 -43 0 -34 3 -38 25 -38 22 0 25 4 25 39
0 22 6 42 13 45 6 2 -3 4 -21 3 -18 -1 -35 -3 -37 -6z"/>
<path d="M568 1293 c7 -3 16 -2 19 1 4 3 -2 6 -13 5 -11 0 -14 -3 -6 -6z"/>
<path d="M170 1244 c0 -38 3 -44 20 -44 22 0 28 9 32 55 3 25 0 29 -24 31 -27
3 -28 1 -28 -42z"/>
<path d="M630 1252 c0 -43 6 -53 26 -45 24 9 19 83 -6 83 -17 0 -20 -7 -20
-38z m27 -19 c-4 -3 -7 0 -7 7 0 7 3 10 7 7 3 -4 3 -10 0 -14z"/>
<path d="M1 1094 c1 -47 5 -64 14 -60 7 2 17 0 22 -5 12 -12 45 -1 37 12 -3 5
-14 9 -25 9 -24 0 -36 29 -33 76 2 19 -1 34 -7 34 -5 0 -9 -28 -8 -66z"/>
<path d="M133 1123 c4 -3 10 -3 14 0 3 4 0 7 -7 7 -7 0 -10 -3 -7 -7z"/>
<path d="M160 1106 c0 -16 6 -26 15 -26 8 0 15 5 15 12 0 6 6 3 14 -8 17 -22
23 -19 28 16 3 22 -1 25 -34 28 -35 3 -38 1 -38 -22z"/>
<path d="M480 1120 c0 -5 -8 -10 -17 -10 -23 0 -4 -19 25 -25 18 -3 22 1 22
21 0 15 -6 24 -15 24 -8 0 -15 -4 -15 -10z"/>
<path d="M76 1004 c-3 -8 -9 -14 -13 -13 -25 4 -34 -2 -25 -18 8 -13 4 -21
-14 -36 -13 -10 -24 -23 -24 -28 0 -11 40 10 57 31 15 18 17 34 3 25 -5 -3
-10 -1 -10 4 0 6 8 11 19 11 26 0 47 26 27 33 -8 3 -17 -1 -20 -9z"/>
<path d="M0 989 c0 -5 4 -7 10 -4 5 3 10 8 10 11 0 2 -4 4 -10 4 -5 0 -10 -5
-10 -11z"/>
<path d="M5 960 c-3 -6 1 -7 9 -4 18 7 21 14 7 14 -6 0 -13 -4 -16 -10z"/>
<path d="M55 881 c-9 -18 -20 -29 -24 -26 -5 2 -14 -1 -20 -9 -9 -11 -7 -12
12 -9 21 4 63 60 53 70 -2 3 -12 -9 -21 -26z"/>
<path d="M46 703 c-6 -14 -5 -15 5 -6 7 7 10 15 7 18 -3 3 -9 -2 -12 -12z"/>
<path d="M10 685 c-7 -9 -11 -18 -8 -20 3 -3 11 1 18 10 7 9 11 18 8 20 -3 3
-11 -1 -18 -10z"/>
<path d="M61 687 c-6 -6 -11 -16 -11 -21 0 -6 7 -2 15 8 8 11 15 14 15 8 0 -7
5 -12 10 -12 15 0 12 17 -4 23 -7 3 -19 0 -25 -6z"/>
<path d="M2153 513 c4 -3 10 -3 14 0 3 4 0 7 -7 7 -7 0 -10 -3 -7 -7z"/>
<path d="M2458 513 c7 -3 16 -2 19 1 4 3 -2 6 -13 5 -11 0 -14 -3 -6 -6z"/>
<path d="M2508 513 c7 -3 16 -2 19 1 4 3 -2 6 -13 5 -11 0 -14 -3 -6 -6z"/>
<path d="M2555 510 c3 -5 8 -10 11 -10 2 0 4 5 4 10 0 6 -5 10 -11 10 -5 0 -7
-4 -4 -10z"/>
<path d="M10 485 c-8 -9 -8 -15 -2 -15 12 0 26 19 19 26 -2 2 -10 -2 -17 -11z"/>
<path d="M430 491 c0 -6 4 -11 9 -11 5 0 12 -8 14 -17 4 -15 5 -15 6 -2 0 9
-6 22 -14 29 -10 9 -15 9 -15 1z"/>
<path d="M1503 463 c4 -3 10 -3 14 0 3 4 0 7 -7 7 -7 0 -10 -3 -7 -7z"/>
<path d="M5 429 c-10 -30 -2 -32 12 -3 6 13 7 24 3 24 -5 0 -12 -9 -15 -21z"/>
<path d="M1140 440 c39 -12 59 -12 40 0 -8 5 -26 9 -40 9 -25 -1 -25 -1 0 -9z"/>
<path d="M1205 431 c3 -6 23 -9 45 -8 50 2 41 17 -11 17 -23 0 -38 -4 -34 -9z"/>
<path d="M1943 433 c4 -3 10 -3 14 0 3 4 0 7 -7 7 -7 0 -10 -3 -7 -7z"/>
<path d="M1160 410 c0 -5 5 -10 11 -10 5 0 7 5 4 10 -3 6 -8 10 -11 10 -2 0
-4 -4 -4 -10z"/>
<path d="M1940 410 c8 -5 22 -9 30 -9 10 0 8 3 -5 9 -27 12 -43 12 -25 0z"/>
<path d="M1993 413 c4 -3 10 -3 14 0 3 4 0 7 -7 7 -7 0 -10 -3 -7 -7z"/>
<path d="M1240 402 c0 -5 14 -7 30 -4 17 2 30 6 30 8 0 2 -13 4 -30 4 -16 0
-30 -4 -30 -8z"/>
<path d="M1370 406 c0 -2 15 -6 34 -8 19 -2 32 0 30 4 -5 8 -64 12 -64 4z"/>
<path d="M0 380 c0 -7 3 -10 7 -7 3 4 3 10 0 14 -4 3 -7 0 -7 -7z"/>
<path d="M1025 370 c-8 -13 5 -13 25 0 13 8 13 10 -2 10 -9 0 -20 -4 -23 -10z"/>
<path d="M0 340 c0 -7 3 -10 7 -7 3 4 3 10 0 14 -4 3 -7 0 -7 -7z"/>
<path d="M1 254 c0 -11 3 -14 6 -6 3 7 2 16 -1 19 -3 4 -6 -2 -5 -13z"/>
<path d="M0 220 c0 -7 3 -10 7 -7 3 4 3 10 0 14 -4 3 -7 0 -7 -7z"/>
<path d="M4 148 c-4 -7 -3 -8 4 -4 12 7 16 16 8 16 -3 0 -8 -5 -12 -12z"/>
</g>
</svg>
