<?xml version="1.0" standalone="no"?>
<!DOCTYPE svg PUBLIC "-//W3C//DTD SVG 20010904//EN"
 "http://www.w3.org/TR/2001/REC-SVG-20010904/DTD/svg10.dtd">
<svg version="1.0" xmlns="http://www.w3.org/2000/svg"
 width="344.000000pt" height="256.000000pt" viewBox="0 0 344.000000 256.000000"
 preserveAspectRatio="xMidYMid meet">
<metadata>
Created by potrace 1.16, written by Peter Selinger 2001-2019
</metadata>
<g transform="translate(0.000000,256.000000) scale(0.100000,-0.100000)"
fill="#000000" stroke="none">
<path d="M683 2553 c4 -3 10 -3 14 0 3 4 0 7 -7 7 -7 0 -10 -3 -7 -7z"/>
<path d="M10 2525 c-10 -12 -9 -15 4 -15 20 0 21 -16 1 -24 -23 -8 -19 -46 5
-46 26 0 26 -17 0 -25 -26 -8 -26 -42 1 -50 21 -7 21 -7 0 -22 -24 -16 -29
-38 -7 -30 8 3 17 -1 20 -9 4 -9 -1 -14 -14 -14 -16 0 -20 -7 -20 -32 0 -23 3
-29 9 -19 6 10 10 10 16 1 4 -6 -1 -18 -11 -26 -14 -11 -15 -17 -6 -20 14 -7
16 -44 2 -44 -5 0 -10 -18 -10 -40 0 -22 4 -40 9 -40 15 0 23 18 11 25 -5 3
-10 12 -10 18 0 7 10 -1 23 -16 17 -21 29 -27 54 -25 17 1 38 -4 46 -10 13
-11 16 -10 19 5 3 13 9 8 24 -22 17 -36 19 -61 18 -232 -1 -106 2 -193 7 -193
5 0 10 64 11 143 3 239 3 247 6 247 1 0 14 -7 27 -16 14 -9 25 -14 25 -10 0 8
90 -41 112 -61 30 -27 20 -3 -14 37 -51 58 -98 118 -98 124 0 2 12 7 28 9 15
3 -32 3 -105 2 -106 -3 -134 -1 -143 11 -12 13 -7 18 13 15 4 -1 7 16 5 36 -3
41 10 46 116 43 22 0 51 4 65 9 15 6 80 12 146 14 66 2 127 7 135 10 8 3 26 8
40 11 14 3 0 3 -30 1 -30 -3 -111 -6 -179 -7 -89 -2 -125 -6 -128 -15 -4 -9
-10 -10 -23 -3 -13 7 -36 6 -70 -1 -28 -6 -57 -8 -65 -5 -22 8 -18 36 5 36 12
0 20 7 21 18 0 10 3 12 6 5 6 -16 59 -17 68 -2 5 7 13 5 24 -5 15 -14 19 -14
40 1 17 11 44 16 96 15 55 0 72 3 72 13 0 8 -5 11 -10 8 -5 -3 -41 -5 -80 -4
-49 2 -73 -2 -78 -11 -6 -10 -11 -10 -20 -1 -7 7 -35 9 -80 6 -55 -4 -69 -2
-69 9 0 9 13 15 33 16 17 2 48 5 67 7 19 2 71 7 114 10 80 5 115 18 82 31 -9
4 -49 4 -89 1 -40 -4 -91 -7 -114 -7 -31 0 -43 -4 -43 -15 0 -18 -9 -19 -32
-1 -41 31 -22 42 67 40 51 -1 85 2 85 8 0 6 10 8 21 5 32 -8 79 3 79 19 0 8
-10 14 -22 15 -13 0 -35 2 -50 4 -17 2 -28 -1 -28 -8 0 -20 -164 -16 -168 4
-2 11 8 15 40 17 46 2 190 13 223 18 11 1 32 3 48 3 15 1 27 5 27 10 0 5 -27
8 -59 7 -33 0 -57 2 -54 7 6 10 -9 9 -26 -2 -15 -10 -41 8 -41 28 0 6 -4 11
-10 11 -5 0 -7 -7 -4 -15 7 -17 10 -16 -68 -21 -50 -2 -59 0 -69 17 -6 12 -13
18 -16 15 -3 -3 -14 -1 -23 4 -13 7 -21 5 -30 -5z m27 -382 c-4 -3 -7 0 -7 7
0 7 3 10 7 7 3 -4 3 -10 0 -14z m241 -96 c7 -6 20 -24 28 -41 13 -28 13 -29 0
-12 -8 10 -22 16 -30 13 -9 -4 -18 -2 -21 3 -4 6 -2 10 4 10 6 0 8 7 4 16 -5
13 -7 13 -14 2 -5 -7 -9 -10 -9 -6 0 3 -3 14 -6 22 -7 17 18 13 44 -7z"/>
<path d="M1250 2530 c-20 -6 -21 -8 -5 -8 11 0 29 3 40 8 25 11 -1 11 -35 0z"/>
<path d="M2382 2532 c-50 -2 -71 -6 -66 -14 5 -7 2 -8 -5 -3 -12 7 -57 9 -153
6 -26 -1 -38 -6 -38 -15 0 -17 347 -21 384 -5 20 9 20 9 -2 5 -13 -3 -31 -2
-40 2 -13 5 -9 8 13 12 29 6 29 6 5 10 -14 3 -58 4 -98 2z m-167 -22 c3 -6 -1
-7 -9 -4 -18 7 -21 14 -7 14 6 0 13 -4 16 -10z m132 3 c-4 -3 -10 -3 -14 0 -3
4 0 7 7 7 7 0 10 -3 7 -7z m50 1 c-3 -3 -12 -4 -19 -1 -8 3 -5 6 6 6 11 1 17
-2 13 -5z"/>
<path d="M123 2523 c4 -3 10 -3 14 0 3 4 0 7 -7 7 -7 0 -10 -3 -7 -7z"/>
<path d="M713 2523 c3 -5 -26 -6 -65 -5 -39 2 -74 0 -79 -5 -8 -8 25 -12 111
-16 111 -4 188 11 130 26 -11 3 -18 2 -15 -3 6 -10 -51 -7 -61 3 -10 9 -27 9
-21 0z"/>
<path d="M1920 2510 c0 -5 5 -10 11 -10 5 0 7 5 4 10 -3 6 -8 10 -11 10 -2 0
-4 -4 -4 -10z"/>
<path d="M2035 2509 c-11 -16 3 -23 19 -10 8 7 20 10 26 6 5 -3 10 -1 10 4 0
14 -47 14 -55 0z"/>
<path d="M1177 2494 c-1 -1 -48 -4 -105 -8 -57 -3 -122 -9 -145 -13 -42 -7
-42 -7 3 -14 91 -15 346 -7 336 10 -2 3 17 5 42 3 150 -10 178 -10 192 -2 19
12 22 11 -125 16 -60 2 -129 5 -153 7 -23 2 -43 3 -45 1z m-69 -31 c-10 -2
-26 -2 -35 0 -10 3 -2 5 17 5 19 0 27 -2 18 -5z"/>
<path d="M763 2453 c-15 -5 -17 -23 -4 -23 5 0 11 7 15 15 3 8 4 15 3 14 -1 0
-8 -3 -14 -6z"/>
<path d="M2204 2451 c11 -4 -24 -7 -77 -6 -53 2 -97 -1 -97 -6 0 -10 2 -10
257 -15 99 -1 194 1 210 6 23 7 24 8 6 9 -12 1 -25 6 -28 11 -3 6 -14 9 -23 9
-15 -1 -15 -2 1 -6 29 -8 19 -20 -13 -15 -16 2 -30 8 -30 13 0 14 -28 11 -33
-3 -4 -10 -6 -10 -6 0 -1 15 -31 16 -31 1 0 -5 -3 -8 -7 -6 -5 3 -39 7 -78 10
-38 3 -61 2 -51 -2z"/>
<path d="M560 2439 c0 -5 5 -7 10 -4 6 3 10 8 10 11 0 2 -4 4 -10 4 -5 0 -10
-5 -10 -11z"/>
<path d="M610 2440 c34 -11 130 -12 130 -2 0 5 -35 9 -77 9 -52 1 -70 -2 -53
-7z"/>
<path d="M803 2443 c4 -3 10 -3 14 0 3 4 0 7 -7 7 -7 0 -10 -3 -7 -7z"/>
<path d="M1912 2439 c3 -8 9 -14 14 -14 5 0 15 -4 22 -9 8 -5 18 -4 25 3 6 6
19 11 29 11 10 0 18 5 18 11 0 7 -7 8 -17 3 -23 -10 -53 -9 -77 1 -14 6 -18 5
-14 -6z"/>
<path d="M357 2429 c7 -7 15 -10 18 -7 3 3 -2 9 -12 12 -14 6 -15 5 -6 -5z"/>
<path d="M395 2431 c-3 -5 -1 -12 4 -15 5 -4 12 -2 16 4 3 5 11 10 16 10 6 0
8 -4 5 -9 -7 -11 86 -2 98 10 6 5 -20 9 -61 9 -40 0 -74 -4 -78 -9z"/>
<path d="M1308 2419 c-14 -8 -121 -11 -265 -7 -52 2 -252 -16 -248 -21 13 -22
636 2 655 24 13 16 -116 20 -142 4z m89 -5 c-3 -3 -12 -4 -19 -1 -8 3 -5 6 6
6 11 1 17 -2 13 -5z"/>
<path d="M1474 2418 c-4 -7 -3 -8 4 -4 12 7 16 16 8 16 -3 0 -8 -5 -12 -12z"/>
<path d="M670 2387 c-56 -7 -78 -12 -65 -17 11 -4 24 -5 28 -3 4 3 38 8 75 11
37 4 63 10 57 13 -5 3 -48 1 -95 -4z"/>
<path d="M2190 2394 c0 -5 -44 -11 -98 -12 -53 -2 -105 -8 -115 -14 -13 -6
-23 -6 -33 3 -11 9 -18 9 -26 1 -9 -9 -7 -12 9 -12 12 0 25 -5 28 -10 5 -8 12
-7 22 2 20 16 207 22 234 8 12 -7 19 -7 19 -1 0 5 -6 12 -12 15 -23 9 76 -5
103 -16 15 -5 35 -8 45 -6 11 2 20 -4 22 -13 2 -13 -8 -18 -45 -24 -62 -9 -35
-28 45 -32 49 -2 53 -1 40 14 -11 15 -11 16 5 10 9 -3 17 -2 17 3 0 6 -12 10
-27 10 -54 0 -2 30 57 33 59 2 76 -13 35 -31 -15 -7 -24 -16 -20 -21 3 -5 -3
-12 -12 -14 -10 -2 -3 -3 16 -1 25 2 39 -3 53 -19 18 -20 19 -20 12 -2 -4 11
-9 38 -12 60 -7 68 -21 74 -158 69 -65 -2 -126 -5 -134 -6 -8 0 -27 2 -42 7
-16 4 -28 3 -28 -1z m278 -21 c-26 -2 -71 -2 -100 0 -29 2 -8 3 47 3 55 0 79
-1 53 -3z"/>
<path d="M2620 2386 c0 -2 9 -6 20 -9 11 -3 20 -1 20 4 0 5 -9 9 -20 9 -11 0
-20 -2 -20 -4z"/>
<path d="M390 2362 c0 -14 12 -22 23 -15 6 4 31 6 56 5 26 -1 53 2 61 8 11 7
-7 10 -62 10 -43 0 -78 -4 -78 -8z"/>
<path d="M1385 2360 c-93 -3 -164 -7 -156 -8 8 -1 11 -5 8 -8 -4 -4 -13 -2
-21 5 -11 9 -15 9 -18 0 -3 -9 -9 -9 -23 -2 -23 12 -115 9 -194 -6 -29 -6 -88
-11 -130 -11 -71 0 -74 -1 -53 -16 12 -8 27 -12 34 -8 15 9 140 14 153 5 6 -3
24 -6 40 -6 37 0 49 -17 15 -20 -14 -2 -54 -9 -90 -15 -36 -7 -86 -12 -112
-12 -27 1 -48 -4 -48 -9 0 -12 109 -9 125 2 6 4 51 4 100 0 81 -8 252 0 272
12 4 3 105 8 223 12 118 4 217 9 220 12 3 3 -140 3 -318 0 -179 -2 -325 -1
-328 4 -3 5 6 9 19 9 13 0 27 3 31 7 6 7 28 12 76 17 14 1 50 6 80 9 50 7 193
15 294 16 43 1 41 16 -2 16 -15 0 -103 -2 -197 -5z m-257 -27 c-10 -2 -28 -2
-40 0 -13 2 -5 4 17 4 22 1 32 -1 23 -4z m32 -67 c0 -8 -51 -13 -56 -5 -3 5 9
9 25 9 17 0 31 -2 31 -4z"/>
<path d="M1630 2361 c0 -5 14 -9 30 -9 17 1 30 5 30 10 0 4 -13 8 -30 8 -16 0
-30 -4 -30 -9z"/>
<path d="M1760 2360 c0 -6 11 -8 28 -4 39 10 40 14 4 14 -18 0 -32 -5 -32 -10z"/>
<path d="M1838 2363 c7 -3 16 -2 19 1 4 3 -2 6 -13 5 -11 0 -14 -3 -6 -6z"/>
<path d="M1873 2363 c4 -3 10 -3 14 0 3 4 0 7 -7 7 -7 0 -10 -3 -7 -7z"/>
<path d="M2630 2350 c0 -5 7 -10 15 -10 8 0 15 5 15 10 0 6 -7 10 -15 10 -8 0
-15 -4 -15 -10z"/>
<path d="M690 2321 c-65 -6 -65 -6 -10 -12 60 -5 90 -2 90 12 0 5 -3 8 -7 7
-5 -1 -37 -4 -73 -7z"/>
<path d="M557 2309 c7 -7 15 -10 18 -7 3 3 -2 9 -12 12 -14 6 -15 5 -6 -5z"/>
<path d="M2226 2305 c4 -8 8 -15 10 -15 2 0 4 7 4 15 0 8 -4 15 -10 15 -5 0
-7 -7 -4 -15z"/>
<path d="M427 2303 c-16 -16 -4 -22 38 -18 73 6 91 24 24 25 -31 0 -59 -3 -62
-7z"/>
<path d="M2617 2297 c-3 -8 1 -14 9 -14 8 0 14 6 14 14 0 7 -4 13 -9 13 -5 0
-11 -6 -14 -13z"/>
<path d="M1923 2293 c4 -3 10 -3 14 0 3 4 0 7 -7 7 -7 0 -10 -3 -7 -7z"/>
<path d="M1961 2274 c0 -11 3 -14 6 -6 3 7 2 16 -1 19 -3 4 -6 -2 -5 -13z"/>
<path d="M2616 2255 c7 -16 39 -20 48 -6 6 9 -16 21 -40 21 -8 0 -11 -6 -8
-15z"/>
<path d="M2325 2241 c-58 -6 -59 -6 -25 -15 76 -18 196 -19 214 -1 19 19 18
19 35 -13 17 -32 24 -22 8 11 -13 29 -44 36 -53 12 -5 -12 -23 -15 -83 -14
-76 2 -76 2 -12 10 126 16 60 24 -84 10z"/>
<path d="M1965 2224 c-10 -8 -15 -17 -12 -21 4 -4 13 -1 19 5 7 7 30 12 52 12
46 0 45 5 -4 13 -22 3 -43 0 -55 -9z"/>
<path d="M2240 2230 c0 -5 5 -10 11 -10 5 0 7 5 4 10 -3 6 -8 10 -11 10 -2 0
-4 -4 -4 -10z"/>
<path d="M1753 2223 c4 -3 10 -3 14 0 3 4 0 7 -7 7 -7 0 -10 -3 -7 -7z"/>
<path d="M1918 2223 c7 -3 16 -2 19 1 4 3 -2 6 -13 5 -11 0 -14 -3 -6 -6z"/>
<path d="M2620 2218 c0 -14 30 -22 41 -11 7 7 2 12 -15 15 -14 3 -26 1 -26 -4z"/>
<path d="M1099 2216 c-2 -2 -53 -7 -114 -10 -120 -8 -150 -16 -64 -17 30 0 63
-3 74 -5 41 -9 188 -5 198 5 6 6 52 12 102 12 49 1 133 5 185 9 95 7 95 7 -15
8 -60 0 -161 -3 -223 -6 -63 -4 -119 -4 -126 0 -7 4 -15 6 -17 4z"/>
<path d="M1583 2213 c4 -3 10 -3 14 0 3 4 0 7 -7 7 -7 0 -10 -3 -7 -7z"/>
<path d="M2256 2169 c2 -4 -55 -5 -126 -3 -84 3 -138 0 -151 -7 -13 -7 -25 -7
-31 -1 -10 10 -345 5 -478 -8 -54 -5 9 -6 170 -3 295 6 299 6 316 -7 8 -8 14
-8 19 0 6 10 206 6 275 -5 8 -1 19 0 24 3 5 3 60 4 121 3 91 -2 114 0 124 13
16 19 8 20 -20 4 -17 -11 -23 -10 -26 0 -3 6 -9 10 -14 6 -5 -3 -9 0 -9 6 0 7
-31 10 -99 8 -54 -2 -97 -6 -95 -9z"/>
<path d="M2620 2170 c0 -5 12 -10 26 -10 14 0 23 4 19 10 -3 6 -15 10 -26 10
-10 0 -19 -4 -19 -10z"/>
<path d="M237 2163 c-4 -3 -32 -5 -62 -4 -45 2 -55 -1 -55 -14 0 -10 5 -13 11
-9 7 4 44 8 83 9 87 3 230 16 235 21 2 2 -43 4 -101 4 -57 0 -108 -3 -111 -7z"/>
<path d="M2550 2139 c7 -11 14 -19 16 -16 7 7 -7 37 -17 37 -6 0 -5 -9 1 -21z"/>
<path d="M80 2140 c0 -7 3 -10 7 -7 3 4 3 10 0 14 -4 3 -7 0 -7 -7z"/>
<path d="M1020 2140 c-14 -4 -47 -9 -75 -11 -44 -2 -41 -3 25 -8 112 -9 109
-43 -5 -57 -60 -7 -377 -23 -483 -25 -75 -1 -122 -5 -122 -11 0 -10 358 -6
425 5 17 3 154 8 305 12 151 4 298 9 325 10 28 2 135 4 239 6 104 1 206 5 225
9 46 8 71 2 71 -16 0 -13 -12 -18 -32 -15 -5 0 -8 -3 -8 -9 0 -5 -8 -7 -17 -4
-15 5 -16 4 -3 -5 11 -8 -21 -10 -120 -9 -135 2 -135 2 -20 8 83 4 97 7 49 8
-100 3 -339 -10 -334 -18 3 -4 -10 -6 -28 -5 -17 2 -32 4 -32 5 0 1 -83 3
-185 5 -102 2 -189 4 -195 4 -5 0 -50 -3 -100 -8 -49 -5 -146 -11 -215 -12
-113 -3 -200 -12 -175 -19 6 -2 -17 -7 -50 -11 -92 -11 630 1 970 16 50 2 162
7 250 10 88 3 174 8 191 11 36 5 67 -4 58 -17 -11 -18 12 -9 30 12 12 15 24
19 39 14 12 -4 70 -9 130 -12 107 -6 107 -6 107 -34 0 -29 -18 -32 -78 -13 -8
2 -12 -3 -10 -14 3 -13 14 -17 48 -17 38 0 45 -3 48 -21 3 -20 -2 -20 -140
-23 -114 -2 -146 -5 -160 -18 -16 -14 -18 -14 -24 1 -6 15 -24 17 -155 15 -82
-1 -149 -6 -149 -10 0 -5 11 -9 24 -9 13 0 32 -3 42 -7 12 -5 15 -3 9 6 -6 11
-3 11 16 1 23 -13 185 -18 196 -7 7 7 23 -9 47 -45 21 -32 0 -42 -25 -12 -11
13 -37 15 -173 12 -154 -3 -163 -2 -199 20 -20 13 -34 28 -31 34 3 5 -3 12
-15 15 -24 6 -28 28 -6 37 33 12 16 36 -22 31 -21 -2 -73 -5 -115 -6 -44 -1
-78 -6 -78 -11 0 -6 6 -8 14 -5 7 3 19 0 25 -6 9 -9 14 -9 19 0 6 9 18 9 50 1
56 -14 41 -34 -30 -37 -37 -2 -66 -10 -99 -31 -60 -37 -132 -51 -249 -48 -102
2 -321 -10 -329 -18 -3 -3 42 -5 99 -4 141 2 166 0 120 -10 -35 -7 -35 -7 5
-9 39 -2 85 -29 85 -50 0 -15 -9 -14 -26 4 -9 9 -31 14 -52 14 -37 -2 -37 -2
3 -8 24 -4 39 -11 37 -19 -1 -7 8 -12 22 -12 26 0 51 -24 41 -40 -3 -5 0 -10
7 -10 10 0 10 -2 1 -8 -7 -4 -15 -27 -17 -51 -2 -24 -9 -48 -15 -54 -24 -24
-13 -54 22 -60 17 -2 33 -4 34 -3 5 4 -11 55 -17 51 -4 -2 -6 3 -6 13 4 32 27
101 36 107 6 3 10 21 10 38 -1 29 -2 30 -14 14 -13 -16 -14 -14 -18 21 -3 40
-3 40 29 5 18 -19 33 -39 33 -44 0 -5 7 -9 16 -9 10 0 14 7 12 23 -2 15 -9 21
-20 19 -21 -3 -23 9 -6 26 8 8 15 9 25 1 9 -8 13 -8 13 0 0 6 4 11 10 11 5 0
7 -7 4 -15 -3 -8 -1 -28 4 -44 8 -23 7 -32 -3 -41 -10 -8 -14 -7 -18 2 -2 7
-8 10 -12 6 -14 -14 5 -38 35 -44 34 -7 57 -29 40 -39 -5 -3 -10 -11 -10 -17
0 -7 4 -7 13 1 14 11 42 -11 65 -54 11 -19 11 -18 12 7 0 19 14 41 43 69 29
29 34 36 14 24 -15 -10 -30 -15 -34 -11 -3 3 -1 6 5 6 7 0 12 6 12 14 0 8 10
23 23 33 13 10 27 25 31 33 7 12 6 12 -4 3 -7 -6 -19 -9 -28 -6 -10 4 -13 2
-8 -5 3 -6 2 -13 -3 -16 -5 -3 -12 16 -15 42 -4 26 -9 59 -12 73 -6 33 24 44
56 22 19 -13 23 -13 40 2 19 17 21 16 54 -11 69 -57 96 -75 96 -66 0 5 -26 29
-57 53 -31 23 -52 44 -45 47 9 3 9 9 1 23 -5 11 -7 23 -4 28 5 9 46 3 55 -9
36 -45 91 -58 275 -64 126 -5 197 -16 255 -39 27 -10 66 -12 170 -7 74 4 125
7 113 8 -18 2 -23 10 -27 45 -9 73 -7 77 38 78 23 0 64 5 91 9 42 7 36 8 -45
7 -92 -2 -95 -1 -98 21 -2 15 2 22 14 22 10 0 14 3 10 8 -11 10 -30 9 -39 -3
-5 -6 -6 -2 -3 8 3 10 6 27 6 38 0 17 9 19 108 21 89 1 97 2 47 7 -60 6 -60 6
-25 18 19 6 44 14 55 17 11 2 -25 4 -80 3 -55 -1 -101 2 -102 6 -8 21 2 25 56
21 33 -2 62 0 65 4 3 5 26 7 50 5 33 -4 50 -1 61 11 15 14 15 16 1 16 -9 0
-16 -4 -16 -10 0 -5 -14 -10 -31 -10 -20 0 -28 4 -23 12 4 6 3 8 -3 5 -19 -12
-177 -10 -181 2 -5 15 -29 14 -35 -2 -3 -9 -40 -13 -133 -15 -71 -2 -133 -7
-138 -12 -5 -5 -17 -5 -28 1 -12 6 -106 8 -256 5 -130 -2 -297 -5 -370 -5
-103 -1 -132 -4 -126 -13 6 -10 4 -10 -7 0 -7 6 -38 12 -68 13 -56 1 -56 1
-16 20 22 10 46 16 53 14 8 -3 22 1 33 9 19 13 19 14 -3 19 -12 4 -28 1 -35
-5 -9 -7 -13 -7 -13 1 0 7 -8 8 -25 1 -15 -6 -26 -6 -30 0 -7 11 -20 11 -55 0z
m1218 -71 c7 -1 11 -7 9 -13 -2 -7 -52 -12 -135 -14 -108 -2 -132 -5 -132 -17
0 -16 -25 -21 -34 -7 -5 9 28 42 54 54 13 6 196 3 238 -3z m-1085 -6 c-7 -2
-19 -2 -25 0 -7 3 -2 5 12 5 14 0 19 -2 13 -5z m1114 -30 c-4 -3 -7 0 -7 7 0
7 3 10 7 7 3 -4 3 -10 0 -14z m-92 -18 c6 -2 -10 -4 -35 -4 -25 0 -51 3 -59 8
-13 8 69 5 94 -4z m70 5 c3 -5 4 -10 1 -10 -3 0 -8 5 -11 10 -3 6 -4 10 -1 10
3 0 8 -4 11 -10z m130 0 c3 -6 -1 -7 -9 -4 -18 7 -21 14 -7 14 6 0 13 -4 16
-10z m-168 -7 c-4 -3 -10 -3 -14 0 -3 4 0 7 7 7 7 0 10 -3 7 -7z m-660 -10
c-4 -3 -10 -3 -14 0 -3 4 0 7 7 7 7 0 10 -3 7 -7z m40 0 c-4 -3 -10 -3 -14 0
-3 4 0 7 7 7 7 0 10 -3 7 -7z m-399 -9 c-4 -4 -90 -8 -190 -9 -112 -1 -150 0
-98 4 141 10 295 13 288 5z m-400 -11 c-10 -2 -26 -2 -35 0 -10 3 -2 5 17 5
19 0 27 -2 18 -5z m1115 -120 c-7 -2 -21 -2 -30 0 -10 3 -4 5 12 5 17 0 24 -2
18 -5z m132 -4 c-4 -5 46 -9 124 -9 124 0 131 -1 131 -20 0 -11 -6 -20 -12
-20 -91 -4 -295 3 -302 10 -13 13 18 45 44 47 11 1 18 -2 15 -8z m83 4 c-10
-2 -28 -2 -40 0 -13 2 -5 4 17 4 22 1 32 -1 23 -4z m49 1 c-3 -3 -12 -4 -19
-1 -8 3 -5 6 6 6 11 1 17 -2 13 -5z m30 -1 c-4 -3 -10 -3 -14 0 -3 4 0 7 7 7
7 0 10 -3 7 -7z m40 1 c-3 -3 -12 -4 -19 -1 -8 3 -5 6 6 6 11 1 17 -2 13 -5z
m-877 -8 c0 -2 -11 -6 -25 -8 -13 -3 -22 -1 -19 3 5 9 44 13 44 5z m27 -3 c-4
-3 -10 -3 -14 0 -3 4 0 7 7 7 7 0 10 -3 7 -7z m-121 -48 c-11 -8 -25 -15 -30
-15 -6 0 -2 7 8 15 11 8 25 15 30 15 6 0 2 -7 -8 -15z m864 -15 c-9 -6 -10
-10 -3 -10 6 0 15 5 18 10 3 6 27 10 53 9 38 -1 42 -2 22 -9 -23 -7 -21 -8 12
-9 42 -1 68 -9 68 -22 0 -20 -223 -10 -257 11 -46 27 -42 30 35 30 47 0 63 -3
52 -10z m-1050 -20 c0 -5 -2 -10 -4 -10 -3 0 -8 5 -11 10 -3 6 -1 10 4 10 6 0
11 -4 11 -10z m213 -37 c-3 -27 0 -59 6 -73 9 -21 9 -18 4 18 -5 35 -3 42 11
42 28 0 25 -136 -5 -180 -16 -24 -16 -24 -57 40 -32 49 -42 73 -41 104 0 41 0
41 20 -12 33 -86 36 -57 5 43 -4 11 3 2 14 -20 20 -37 21 -38 16 -10 -3 24 18
95 29 95 1 0 0 -21 -2 -47z m-173 23 c0 -11 -19 -15 -25 -6 -3 5 1 10 9 10 9
0 16 -2 16 -4z m47 -3 c-4 -3 -10 -3 -14 0 -3 4 0 7 7 7 7 0 10 -3 7 -7z
m-127 -237 c0 -3 -5 -8 -12 -12 -7 -4 -8 -3 -4 4 7 12 16 16 16 8z"/>
<path d="M2173 1783 c4 -3 10 -3 14 0 3 4 0 7 -7 7 -7 0 -10 -3 -7 -7z"/>
<path d="M1300 1620 c0 -7 3 -10 7 -7 3 4 3 10 0 14 -4 3 -7 0 -7 -7z"/>
<path d="M1333 2143 c9 -2 25 -2 35 0 9 3 1 5 -18 5 -19 0 -27 -2 -17 -5z"/>
<path d="M2625 2104 c5 -42 9 -49 24 -39 16 9 13 25 -4 25 -25 0 -17 17 13 25
25 7 25 8 7 15 -39 16 -45 12 -40 -26z"/>
<path d="M368 2093 c7 -3 16 -2 19 1 4 3 -2 6 -13 5 -11 0 -14 -3 -6 -6z"/>
<path d="M2530 2061 c-21 -24 -25 -65 -5 -57 11 4 19 -3 27 -22 17 -38 44 -73
52 -65 5 6 9 -33 4 -40 -5 -6 30 -37 41 -37 6 0 11 -4 11 -10 0 -5 -5 -10 -11
-10 -5 0 -7 -4 -4 -10 3 -5 45 -10 93 -10 60 0 82 3 72 10 -8 5 -41 10 -72 10
-45 0 -58 3 -58 15 0 9 10 15 28 16 26 1 26 1 -5 10 -35 10 -45 29 -15 29 16
1 16 2 -1 15 -12 9 -17 20 -13 33 5 13 0 22 -16 30 -18 8 -19 11 -5 11 20 1
23 17 4 24 -21 8 -35 -5 -39 -37 -4 -36 -19 -43 -36 -15 -12 19 -11 20 10 15
21 -6 21 -6 -3 8 -31 18 -51 57 -38 77 20 31 4 39 -21 10z m130 -181 c0 -5 -7
-10 -15 -10 -8 0 -15 5 -15 10 0 6 7 10 15 10 8 0 15 -4 15 -10z"/>
<path d="M4 1975 c0 -49 1 -71 3 -48 2 23 2 64 0 90 -2 26 -3 8 -3 -42z"/>
<path d="M2630 2035 c0 -9 5 -15 10 -13 12 4 11 16 -1 24 -5 3 -9 -2 -9 -11z"/>
<path d="M2370 1949 c-14 -4 -20 -8 -15 -8 6 -1 3 -6 -5 -11 -13 -8 -12 -10 3
-10 9 0 17 4 17 9 0 5 10 11 23 13 12 2 18 6 12 9 -5 3 -21 3 -35 -2z"/>
<path d="M1673 1943 c4 -3 10 -3 14 0 3 4 0 7 -7 7 -7 0 -10 -3 -7 -7z"/>
<path d="M1707 1943 c-3 -5 23 -8 58 -7 35 0 62 -3 59 -7 -2 -4 5 -5 17 -2 16
4 17 8 7 14 -16 11 -135 12 -141 2z"/>
<path d="M1873 1935 c0 -10 4 -12 12 -5 6 5 22 6 35 3 16 -4 21 -3 16 5 -11
18 -63 15 -63 -3z"/>
<path d="M1968 1936 c-19 -14 -24 -46 -8 -46 6 0 10 6 10 14 0 27 24 35 83 27
31 -4 57 -4 57 1 0 4 -8 8 -17 9 -10 1 -38 3 -63 5 -27 2 -52 -2 -62 -10z"/>
<path d="M2510 1941 c0 -5 -12 -12 -27 -14 -22 -4 -20 -4 6 -3 30 1 60 26 32
26 -6 0 -11 -4 -11 -9z"/>
<path d="M1000 1937 c-3 -2 -115 -7 -249 -11 -135 -3 -247 -9 -250 -11 -2 -3
56 -6 130 -7 134 -2 134 -2 29 -8 -79 -5 200 -3 503 4 27 1 20 16 -8 16 -14 0
-25 4 -25 8 0 9 -122 17 -130 9z m-93 -24 c-4 -3 -10 -3 -14 0 -3 4 0 7 7 7 7
0 10 -3 7 -7z m-110 -10 c-4 -3 -10 -3 -14 0 -3 4 0 7 7 7 7 0 10 -3 7 -7z"/>
<path d="M1275 1931 c-11 -5 -25 -6 -32 -4 -6 3 -19 0 -29 -5 -12 -7 -3 -9 33
-9 34 1 50 5 50 14 0 7 -1 13 -1 12 -1 0 -10 -4 -21 -8z"/>
<path d="M1580 1929 c0 -5 5 -7 10 -4 6 3 10 8 10 11 0 2 -4 4 -10 4 -5 0 -10
-5 -10 -11z"/>
<path d="M2540 1920 c0 -10 -6 -23 -14 -27 -8 -4 -14 -12 -13 -18 1 -6 -38
-12 -93 -16 -95 -5 -95 -5 7 -7 89 -2 102 0 106 16 3 9 5 2 6 -15 1 -38 -7
-41 -119 -46 -75 -3 -75 -3 8 -5 47 -1 82 -6 82 -12 0 -5 5 -10 10 -10 6 0 10
6 10 14 0 8 5 16 12 18 6 2 12 23 13 46 0 23 4 44 7 48 9 8 -2 34 -13 34 -5 0
-9 -9 -9 -20z"/>
<path d="M1663 1923 c4 -3 10 -3 14 0 3 4 0 7 -7 7 -7 0 -10 -3 -7 -7z"/>
<path d="M2143 1923 c4 -3 10 -3 14 0 3 4 0 7 -7 7 -7 0 -10 -3 -7 -7z"/>
<path d="M2393 1923 c9 -2 25 -2 35 0 9 3 1 5 -18 5 -19 0 -27 -2 -17 -5z"/>
<path d="M445 1896 c17 -15 53 -38 82 -51 29 -14 58 -33 65 -43 7 -10 21 -21
31 -25 21 -8 22 -36 2 -43 -18 -7 -75 14 -75 28 0 6 -7 5 -15 -2 -8 -7 -12
-16 -9 -21 3 -5 -2 -9 -12 -9 -9 0 -22 -7 -28 -15 -10 -14 -15 -14 -48 0 -52
21 -94 19 -111 -5 -18 -25 -27 -16 -27 27 0 21 -4 32 -10 28 -14 -8 -4 -77 12
-86 7 -4 15 -6 19 -3 4 2 12 -16 18 -41 14 -54 32 -70 24 -20 -6 34 12 95 28
95 4 0 7 -10 7 -22 -3 -57 3 -103 11 -89 7 11 10 10 14 -5 3 -10 5 2 4 29 -2
36 1 46 11 42 8 -3 16 -5 18 -5 2 0 4 -15 5 -32 0 -18 3 -27 6 -20 12 30 38
10 34 -25 -3 -20 37 -15 42 5 2 9 -2 29 -9 43 -18 36 -21 81 -7 86 13 5 35
-61 27 -81 -3 -8 2 -20 10 -29 9 -9 13 -24 10 -34 -5 -16 -4 -16 10 1 9 11 17
18 19 15 8 -10 37 -78 37 -87 0 -22 28 -63 33 -48 3 8 3 17 0 20 -4 3 -8 32
-10 63 -3 53 -2 56 12 39 8 -11 15 -28 15 -38 0 -10 5 -18 11 -18 6 0 8 -9 4
-22 -5 -18 -4 -20 4 -8 7 10 11 11 11 3 0 -7 7 -13 15 -13 8 0 15 5 15 12 0 6
8 1 19 -10 23 -27 35 -28 29 -4 -3 10 1 27 8 37 10 14 14 15 15 4 0 -14 59
-67 59 -54 0 12 -34 65 -42 65 -4 0 -8 8 -7 18 0 11 2 12 6 4 3 -8 9 -10 16
-4 15 12 61 -4 52 -18 -3 -5 -4 -10 0 -10 3 0 10 12 16 27 10 27 10 27 29 -3
21 -30 28 -17 10 17 -6 10 -7 19 -2 19 4 0 8 16 8 35 0 19 -3 30 -7 24 -4 -7
-10 -2 -15 12 -7 24 -8 24 -13 2 -6 -21 -6 -21 -24 3 -17 23 -17 23 0 18 14
-4 13 -1 -4 14 -13 11 -23 25 -23 30 0 22 -29 35 -45 19 -8 -9 -15 -19 -15
-24 0 -5 -18 -7 -40 -5 -38 4 -75 33 -94 74 -5 10 -7 10 -12 1 -8 -18 -47 3
-61 33 -11 23 -10 24 10 18 36 -11 127 -12 120 -1 -4 6 0 8 10 4 10 -3 17 -2
17 3 0 14 -18 21 -25 10 -4 -6 -12 -7 -18 -3 -7 4 -39 7 -72 6 -33 -1 -70 -2
-83 -3 -23 0 -64 16 -122 51 -35 21 -35 21 -5 -5z m249 -167 c-8 -13 -24 -1
-24 18 0 13 3 13 15 3 8 -7 12 -16 9 -21z m-107 -34 c-14 -15 -22 -9 -32 23
-7 23 -6 23 19 7 20 -13 23 -19 13 -30z m-230 -2 c-4 -3 -7 0 -7 7 0 7 3 10 7
7 3 -4 3 -10 0 -14z m366 -13 c3 -11 1 -20 -4 -20 -11 0 -30 36 -22 43 9 10
20 0 26 -23z m-263 5 c16 -19 1 -19 -24 0 -16 12 -17 15 -4 15 8 0 21 -7 28
-15z m348 -1 c4 -6 16 -14 27 -19 19 -8 19 -8 1 -13 -12 -2 -26 5 -38 19 -19
24 -19 24 -12 -1 3 -14 11 -31 16 -37 7 -9 7 -13 0 -13 -6 0 -16 9 -22 20 -6
11 -15 20 -21 20 -6 0 -6 -8 1 -21 14 -24 5 -38 -13 -20 -6 6 -12 27 -12 46 0
32 2 33 33 31 18 -1 36 -6 40 -12z m60 -9 c-3 -3 -9 2 -12 12 -6 14 -5 15 5 6
7 -7 10 -15 7 -18z m-355 -35 c6 -35 6 -35 -8 -10 -8 14 -14 34 -15 45 0 30
17 5 23 -35z m171 15 c3 -8 1 -15 -4 -15 -6 0 -10 7 -10 15 0 8 2 15 4 15 2 0
6 -7 10 -15z m176 -25 c0 -5 -4 -10 -10 -10 -5 0 -10 5 -10 10 0 6 5 10 10 10
6 0 10 -4 10 -10z m-222 -35 c0 -14 -4 -25 -9 -25 -10 0 -12 34 -2 43 10 10
11 9 11 -18z m39 8 c-4 -3 -7 0 -7 7 0 7 3 10 7 7 3 -4 3 -10 0 -14z m66 -18
c-7 -21 -13 -19 -13 6 0 11 4 18 10 14 5 -3 7 -12 3 -20z m143 5 c7 0 15 -7
18 -16 4 -10 2 -13 -7 -7 -6 4 -17 8 -24 9 -6 1 -19 7 -30 14 -16 10 -15 11 7
6 14 -3 30 -6 36 -6z m-99 -47 c-3 -10 -5 -2 -5 17 0 19 2 27 5 18 2 -10 2
-26 0 -35z m-50 -40 c-4 -3 -7 0 -7 7 0 7 3 10 7 7 3 -4 3 -10 0 -14z"/>
<path d="M402 1890 c5 -16 48 -46 48 -34 0 5 -12 18 -27 28 -16 12 -24 14 -21
6z"/>
<path d="M973 1856 c6 -15 5 -17 -7 -7 -22 19 -178 10 -181 -9 -3 -18 307 -19
375 -2 28 7 16 9 -55 8 -65 -1 -97 3 -115 14 -23 14 -24 14 -17 -4z"/>
<path d="M1025 1864 c46 -7 243 -9 239 -2 -3 5 -62 7 -132 7 -70 -1 -118 -3
-107 -5z"/>
<path d="M1480 1850 c0 -5 5 -10 11 -10 5 0 7 5 4 10 -3 6 -8 10 -11 10 -2 0
-4 -4 -4 -10z"/>
<path d="M2704 1781 c-15 -16 7 -21 84 -19 75 2 79 2 24 5 -34 2 -61 7 -58 11
4 7 -43 10 -50 3z"/>
<path d="M2527 1758 c-10 -11 -17 -22 -14 -24 2 -2 12 5 22 16 23 26 16 33 -8
8z"/>
<path d="M595 1760 c3 -5 8 -10 11 -10 2 0 4 5 4 10 0 6 -5 10 -11 10 -5 0 -7
-4 -4 -10z"/>
<path d="M768 1763 c7 -3 16 -2 19 1 4 3 -2 6 -13 5 -11 0 -14 -3 -6 -6z"/>
<path d="M818 1763 c12 -2 30 -2 40 0 9 3 -1 5 -23 4 -22 0 -30 -2 -17 -4z"/>
<path d="M1410 1756 c0 -2 7 -7 16 -10 8 -3 12 -2 9 4 -6 10 -25 14 -25 6z"/>
<path d="M2408 1743 c12 -2 32 -2 45 0 12 2 2 4 -23 4 -25 0 -35 -2 -22 -4z"/>
<path d="M2804 1736 c11 -9 29 -16 40 -15 17 1 16 2 -6 9 -14 4 -32 11 -40 15
-7 3 -4 -1 6 -9z"/>
<path d="M1370 1730 c0 -7 3 -10 7 -7 3 4 3 10 0 14 -4 3 -7 0 -7 -7z"/>
<path d="M230 1698 c0 -49 17 -68 22 -25 4 40 0 57 -13 57 -5 0 -9 -15 -9 -32z"/>
<path d="M2339 1694 c-13 -15 -18 -25 -10 -22 13 4 49 48 39 48 -2 0 -15 -12
-29 -26z"/>
<path d="M950 1688 c0 -9 5 -20 10 -23 13 -8 13 5 0 25 -8 13 -10 13 -10 -2z"/>
<path d="M2864 1691 c3 -5 16 -11 28 -14 22 -6 22 -5 4 8 -22 17 -40 20 -32 6z"/>
<path d="M1455 1665 c20 -15 40 -24 42 -21 6 5 -57 46 -71 46 -5 0 8 -11 29
-25z"/>
<path d="M1580 1670 c0 -7 3 -10 7 -7 3 4 3 10 0 14 -4 3 -7 0 -7 -7z"/>
<path d="M2923 1673 c4 -3 10 -3 14 0 3 4 0 7 -7 7 -7 0 -10 -3 -7 -7z"/>
<path d="M983 1647 c5 -15 37 -22 37 -9 0 5 -9 12 -21 15 -13 3 -19 1 -16 -6z"/>
<path d="M2520 1645 c-7 -9 -11 -17 -8 -20 2 -2 12 4 21 15 9 11 13 20 8 20
-5 0 -14 -7 -21 -15z"/>
<path d="M2691 1635 c-1 -35 13 -47 28 -23 11 18 11 20 -2 15 -10 -4 -17 1
-20 11 -4 14 -5 13 -6 -3z"/>
<path d="M1094 1612 c-6 -10 -15 -33 -18 -52 -7 -35 -7 -35 10 -2 17 32 29 40
36 22 2 -5 23 -12 48 -15 45 -6 45 -6 10 7 -19 7 -39 23 -45 36 -12 27 -26 28
-41 4z"/>
<path d="M2601 1601 c-15 -21 -18 -30 -9 -33 9 -3 3 -17 -17 -43 -17 -22 -32
-45 -36 -53 -4 -12 -45 -14 -228 -13 -224 2 -224 2 -269 52 -24 27 -47 47 -50
44 -3 -3 14 -25 38 -50 43 -44 43 -44 -6 -48 -27 -2 23 -5 111 -6 88 -1 219
-4 292 -6 110 -3 131 -1 126 11 -5 13 35 72 49 73 5 1 14 -14 22 -31 14 -33
14 -33 10 7 -2 27 -1 33 4 20 5 -11 14 -35 21 -52 7 -18 17 -33 22 -33 5 0 0
18 -11 39 -11 22 -23 65 -26 95 -8 64 -14 68 -43 27z m16 -18 c-4 -3 -7 0 -7
7 0 7 3 10 7 7 3 -4 3 -10 0 -14z"/>
<path d="M2900 1620 c0 -5 5 -10 11 -10 5 0 7 5 4 10 -3 6 -8 10 -11 10 -2 0
-4 -4 -4 -10z"/>
<path d="M1996 1607 c3 -10 9 -15 12 -12 3 3 0 11 -7 18 -10 9 -11 8 -5 -6z"/>
<path d="M2085 1609 c-10 -15 3 -25 16 -12 7 7 7 13 1 17 -6 3 -14 1 -17 -5z"/>
<path d="M2555 1588 c-26 -50 -57 -81 -67 -66 -4 7 -8 8 -8 2 0 -5 7 -19 15
-30 10 -13 13 -14 10 -3 -4 10 6 25 28 42 20 15 37 38 40 54 7 40 1 40 -18 1z"/>
<path d="M1572 1566 c-17 -20 -42 -36 -59 -39 -28 -4 -28 -4 3 -6 29 -1 106
60 92 74 -3 3 -19 -10 -36 -29z"/>
<path d="M1981 1584 c0 -11 3 -14 6 -6 3 7 2 16 -1 19 -3 4 -6 -2 -5 -13z"/>
<path d="M2660 1589 c0 -23 62 -156 67 -143 2 7 -12 45 -31 85 -20 41 -36 67
-36 58z"/>
<path d="M2949 1578 c-11 -21 -11 -22 5 -9 9 8 20 11 23 7 4 -4 1 -11 -7 -16
-9 -6 -10 -10 -3 -10 17 0 24 15 17 34 -9 22 -21 20 -35 -6z"/>
<path d="M3078 1550 c-20 -49 -8 -53 15 -5 19 40 20 45 10 45 -5 0 -16 -18
-25 -40z"/>
<path d="M1710 1577 c0 -3 19 -25 42 -49 23 -24 36 -34 30 -23 -11 20 -72 81
-72 72z"/>
<path d="M1956 1567 c3 -10 9 -15 12 -12 3 3 0 11 -7 18 -10 9 -11 8 -5 -6z"/>
<path d="M1372 1550 c0 -14 2 -19 5 -12 2 6 2 18 0 25 -3 6 -5 1 -5 -13z"/>
<path d="M2890 1560 c0 -7 3 -10 7 -7 3 4 3 10 0 14 -4 3 -7 0 -7 -7z"/>
<path d="M2740 1541 c0 -4 8 -19 19 -32 10 -13 21 -31 24 -39 4 -12 6 -12 6
-1 1 7 -8 29 -20 47 -21 34 -29 41 -29 25z"/>
<path d="M2860 1535 c-7 -9 -10 -18 -7 -21 3 -3 10 4 17 15 13 25 8 27 -10 6z"/>
<path d="M1144 1528 c-4 -6 -3 -8 2 -5 6 3 19 -8 29 -24 11 -16 24 -29 28 -29
4 0 -4 16 -19 35 -30 39 -30 39 -40 23z"/>
<path d="M2119 1522 c5 -10 18 -25 27 -33 11 -9 9 -2 -6 19 -26 35 -36 42 -21
14z"/>
<path d="M2885 1490 c-15 -22 -25 -43 -22 -46 4 -4 12 5 18 20 7 14 16 26 21
26 11 0 10 -7 -2 -31 -8 -13 -7 -19 0 -19 6 0 15 12 20 26 13 33 13 37 -2 28
-8 -5 -9 0 -6 14 8 30 5 28 -27 -18z"/>
<path d="M1956 1505 c-9 -26 -7 -32 5 -12 6 10 9 21 6 23 -2 3 -7 -2 -11 -11z"/>
<path d="M2981 1496 c-14 -14 -23 -28 -20 -30 7 -8 51 33 47 44 -2 6 -14 0
-27 -14z"/>
<path d="M880 1502 c0 -5 7 -9 15 -9 8 0 15 4 15 9 0 4 -7 8 -15 8 -8 0 -15
-4 -15 -8z"/>
<path d="M2820 1486 c-12 -33 -12 -36 -1 -36 9 0 22 52 15 59 -2 2 -8 -8 -14
-23z"/>
<path d="M3027 1504 c-4 -4 -7 -14 -7 -23 0 -11 3 -12 11 -4 6 6 10 16 7 23
-2 6 -7 8 -11 4z"/>
<path d="M947 1493 c-4 -3 -7 -11 -7 -17 0 -6 5 -5 12 2 6 6 9 14 7 17 -3 3
-9 2 -12 -2z"/>
<path d="M3060 1490 c0 -7 3 -10 7 -7 3 4 3 10 0 14 -4 3 -7 0 -7 -7z"/>
<path d="M1650 1469 c-19 -4 30 -7 109 -8 79 0 142 1 139 4 -7 8 -208 11 -248
4z"/>
<path d="M2573 1453 c4 -3 10 -3 14 0 3 4 0 7 -7 7 -7 0 -10 -3 -7 -7z"/>
<path d="M928 1433 c6 -2 18 -2 25 0 6 3 1 5 -13 5 -14 0 -19 -2 -12 -5z"/>
<path d="M1795 1424 c60 -7 585 -9 585 -2 0 3 -138 6 -307 6 -170 -1 -294 -2
-278 -4z"/>
<path d="M2403 1413 c9 -2 23 -2 30 0 6 3 -1 5 -18 5 -16 0 -22 -2 -12 -5z"/>
<path d="M2453 1413 c4 -3 10 -3 14 0 3 4 0 7 -7 7 -7 0 -10 -3 -7 -7z"/>
<path d="M1944 1038 c-4 -7 -3 -8 4 -4 7 4 12 9 12 12 0 8 -9 4 -16 -8z"/>
<path d="M828 833 c-36 -40 -121 -163 -116 -168 2 -3 32 33 66 80 40 55 74 90
95 99 31 14 31 14 6 15 -16 1 -35 -9 -51 -26z"/>
<path d="M897 796 c-25 -38 -33 -78 -14 -70 12 4 17 -3 20 -28 4 -33 4 -33 5
5 1 22 -3 37 -9 37 -8 0 -8 4 -2 13 11 13 26 67 19 67 -2 0 -11 -11 -19 -24z"/>
<path d="M1063 700 c0 -30 2 -43 4 -27 2 15 2 39 0 55 -2 15 -4 2 -4 -28z"/>
<path d="M840 688 c-12 -22 -12 -22 6 -6 10 10 15 20 12 24 -4 3 -12 -5 -18
-18z"/>
<path d="M790 675 c-13 -14 -19 -25 -13 -25 12 0 48 38 41 45 -2 3 -15 -6 -28
-20z"/>
<path d="M2220 412 c13 -9 44 -32 68 -50 24 -19 42 -28 40 -21 -5 15 -108 89
-123 88 -5 0 1 -8 15 -17z"/>
<path d="M2336 395 c8 -37 14 -45 14 -19 0 10 -5 26 -10 34 -8 11 -9 7 -4 -15z"/>
<path d="M1578 285 c-3 -2 -81 -6 -533 -25 -126 -5 -356 -10 -509 -11 -279 -1
-279 -1 -302 -25 -15 -14 -24 -35 -24 -54 0 -17 -3 -29 -8 -26 -4 2 -9 -22
-10 -55 -2 -37 1 -59 7 -59 6 0 11 -7 11 -15 0 -8 5 -15 11 -15 6 0 9 7 6 15
-4 8 -1 17 5 21 6 4 8 3 5 -2 -3 -6 -2 -16 2 -23 12 -18 20 31 18 106 -2 62
-2 62 33 61 130 -4 291 3 284 13 -4 7 1 7 16 -1 12 -6 33 -9 46 -6 13 4 121 8
241 11 233 5 453 14 500 20 16 2 109 6 208 9 99 4 178 10 175 14 -5 7 -289 4
-302 -4 -3 -2 -98 -6 -210 -9 -111 -4 -222 -8 -245 -10 -24 -2 -43 1 -43 6 0
5 -7 9 -15 9 -8 0 -15 -4 -15 -10 0 -5 -24 -10 -52 -10 -38 0 -49 3 -38 10 13
8 12 10 -2 10 -10 0 -18 -4 -18 -10 0 -5 -7 -10 -16 -10 -13 0 -14 3 -5 14 11
14 118 20 546 31 110 3 252 8 315 12 190 11 195 11 196 -12 1 -11 2 -74 3
-140 1 -66 5 -115 9 -108 4 6 7 71 7 145 0 133 0 133 -147 134 -81 1 -148 1
-150 -1z m-802 -60 c-8 -8 -18 -15 -22 -15 -3 0 -1 7 6 15 7 8 17 15 22 15 5
0 3 -7 -6 -15z m-442 -21 c7 -19 -34 -19 -60 1 -16 12 -17 14 -2 15 9 0 19 -6
21 -12 3 -8 6 -6 6 4 1 20 26 14 35 -8z m41 6 c14 -16 15 -20 4 -20 -16 0 -39
19 -39 32 0 14 16 9 35 -12z m72 -6 c0 -9 -4 -10 -11 -5 -11 9 -16 11 -38 11
-10 0 -9 3 1 9 18 12 48 3 48 -15z m240 12 c-2 -6 -12 -12 -23 -13 -10 -2 -13
0 -6 3 6 3 10 9 8 13 -3 4 2 8 10 8 8 0 13 -5 11 -11z m-201 -5 c-4 -5 0 -12
6 -14 8 -4 9 -6 2 -6 -6 -1 -17 6 -24 14 -10 12 -9 15 4 15 10 0 15 -4 12 -9z
m74 -3 c0 -12 -48 -10 -55 2 -3 5 7 8 25 7 16 -1 30 -5 30 -9z m60 2 c13 -8
13 -10 -2 -10 -9 0 -20 5 -23 10 -8 13 5 13 25 0z"/>
<path d="M1780 250 c0 -5 5 -10 11 -10 5 0 7 5 4 10 -3 6 -8 10 -11 10 -2 0
-4 -4 -4 -10z"/>
<path d="M863 223 c4 -3 10 -3 14 0 3 4 0 7 -7 7 -7 0 -10 -3 -7 -7z"/>
<path d="M1890 110 c0 -62 3 -111 6 -107 7 7 5 209 -2 216 -2 2 -4 -47 -4
-109z"/>
<path d="M1210 123 c0 -4 5 -15 10 -23 8 -13 10 -13 10 2 0 9 -4 20 -10 23 -5
3 -10 3 -10 -2z"/>
<path d="M1290 122 c0 -12 19 -26 26 -19 2 2 -2 10 -11 17 -9 8 -15 8 -15 2z"/>
<path d="M1250 110 c0 -7 3 -10 7 -7 3 4 3 10 0 14 -4 3 -7 0 -7 -7z"/>
<path d="M370 76 c0 -9 5 -16 10 -16 6 0 10 4 10 9 0 6 -4 13 -10 16 -5 3 -10
-1 -10 -9z"/>
<path d="M446 81 c-4 -5 -2 -12 3 -15 5 -4 12 -2 15 3 4 5 2 12 -3 15 -5 4
-12 2 -15 -3z"/>
<path d="M535 80 c3 -5 11 -10 16 -10 6 0 7 5 4 10 -3 6 -11 10 -16 10 -6 0
-7 -4 -4 -10z"/>
<path d="M500 69 c0 -5 5 -7 10 -4 6 3 10 8 10 11 0 2 -4 4 -10 4 -5 0 -10 -5
-10 -11z"/>
<path d="M580 69 c0 -5 5 -7 10 -4 6 3 10 8 10 11 0 2 -4 4 -10 4 -5 0 -10 -5
-10 -11z"/>
<path d="M400 20 c0 -13 5 -17 20 -13 24 6 22 25 -3 29 -11 1 -17 -5 -17 -16z"/>
<path d="M555 10 c3 -5 8 -10 11 -10 2 0 4 5 4 10 0 6 -5 10 -11 10 -5 0 -7
-4 -4 -10z"/>
</g>
</svg>
