<?xml version="1.0" standalone="no"?>
<!DOCTYPE svg PUBLIC "-//W3C//DTD SVG 20010904//EN"
 "http://www.w3.org/TR/2001/REC-SVG-20010904/DTD/svg10.dtd">
<svg version="1.0" xmlns="http://www.w3.org/2000/svg"
 width="256.000000pt" height="384.000000pt" viewBox="0 0 256.000000 384.000000"
 preserveAspectRatio="xMidYMid meet">
<metadata>
Created by potrace 1.16, written by Peter Selinger 2001-2019
</metadata>
<g transform="translate(0.000000,384.000000) scale(0.100000,-0.100000)"
fill="#000000" stroke="none">
<path d="M941 3791 c-14 -25 -67 -54 -83 -45 -6 4 -8 3 -5 -3 3 -5 -17 -18
-46 -27 -56 -20 -117 -56 -117 -69 0 -5 12 0 28 11 15 11 45 25 67 32 91 28
191 97 172 117 -3 3 -10 -5 -16 -16z"/>
<path d="M795 3740 c3 -5 8 -10 11 -10 2 0 4 5 4 10 0 6 -5 10 -11 10 -5 0 -7
-4 -4 -10z"/>
<path d="M894 3661 c4 -5 -3 -7 -14 -4 -11 3 -20 1 -20 -5 0 -16 91 -26 101
-11 13 21 -2 32 -17 12 -13 -17 -15 -17 -28 0 -13 17 -32 24 -22 8z"/>
<path d="M760 3636 c0 -30 -33 -44 -57 -24 -14 11 -16 11 -12 -1 9 -25 56 -34
95 -19 35 14 35 14 4 41 -30 27 -30 27 -30 3z m30 -20 c0 -3 -4 -8 -10 -11 -5
-3 -10 -1 -10 4 0 6 5 11 10 11 6 0 10 -2 10 -4z"/>
<path d="M685 3568 c-4 -10 -13 -14 -23 -11 -12 5 -14 2 -9 -11 4 -10 7 -22 7
-27 0 -5 5 -9 10 -9 6 0 10 7 10 15 0 10 10 15 28 15 19 0 29 5 29 15 0 10 -6
14 -15 10 -9 -3 -19 0 -23 7 -6 9 -9 8 -14 -4z"/>
<path d="M2485 3410 c-30 -8 -30 -8 0 -8 17 0 41 4 55 8 25 8 25 8 0 8 -14 0
-38 -4 -55 -8z"/>
<path d="M2390 3353 c0 -27 -3 -72 -6 -100 -7 -52 -7 -53 -40 -53 -48 0 -52
-18 -4 -22 40 -3 40 -3 10 -62 -17 -32 -30 -69 -30 -82 0 -35 -10 -53 -26 -47
-8 3 -14 0 -14 -6 0 -6 17 -11 40 -11 47 0 50 -11 13 -38 -23 -17 -26 -26 -27
-76 -1 -31 -5 -56 -9 -56 -5 0 -16 -8 -25 -17 -16 -15 -16 -16 0 -11 32 13 49
-13 45 -70 -2 -31 0 -52 6 -52 10 0 36 -29 37 -41 0 -3 -14 -4 -30 -1 -27 4
-30 2 -26 -19 3 -13 5 -28 5 -34 1 -5 6 -3 12 5 9 12 10 12 5 -3 -3 -10 -6
-21 -6 -23 0 -2 -11 -4 -25 -4 -28 0 -37 42 -12 57 8 5 -2 11 -28 19 -41 11
-79 8 -70 -6 3 -4 -2 -24 -10 -44 -10 -23 -11 -36 -5 -36 6 0 9 -4 5 -10 -10
-16 -36 2 -33 24 2 12 -3 21 -10 21 -7 0 -16 5 -20 11 -9 14 -124 64 -147 64
-1 0 -5 -13 -8 -28 -5 -23 -11 -28 -39 -30 -60 -5 -65 -25 -8 -35 35 -6 35 -6
10 8 -25 14 -25 14 8 15 18 0 31 -4 27 -9 -3 -5 0 -13 6 -17 6 -4 16 1 21 10
5 9 13 14 18 11 5 -3 11 -1 15 5 3 5 -1 10 -9 10 -10 0 -16 9 -16 21 0 16 4
19 23 14 26 -8 47 -25 30 -25 -6 0 -8 -11 -5 -25 4 -22 1 -25 -24 -26 -25 0
-26 -2 -9 -8 27 -11 68 8 55 24 -7 9 -6 16 5 25 12 10 19 7 40 -16 35 -38 32
-54 -9 -54 -19 0 -37 -4 -41 -9 -3 -6 -19 -4 -40 5 -19 8 -54 13 -77 12 -40
-1 -40 -2 -9 -5 26 -3 31 -7 20 -14 -10 -6 0 -9 31 -9 29 0 54 -7 70 -20 14
-11 32 -19 40 -19 8 0 5 4 -7 9 -24 10 -30 25 -13 35 6 4 18 -3 28 -15 11 -14
32 -22 61 -25 52 -5 48 5 -6 14 -52 9 -56 31 -4 31 35 0 42 4 47 25 3 13 12
29 20 36 8 6 14 20 14 31 0 27 24 17 28 -11 2 -13 -1 -28 -7 -34 -6 -6 -11
-24 -11 -40 0 -15 -4 -37 -10 -47 -8 -15 -4 -22 23 -39 32 -20 32 -20 -8 -15
-22 3 -52 15 -67 25 -16 11 -28 15 -28 10 0 -20 48 -42 111 -52 34 -5 66 -12
70 -14 9 -6 21 24 14 34 -2 5 6 6 19 4 13 -3 27 0 30 6 10 15 43 14 49 -1 2
-7 8 21 13 62 12 89 13 86 -26 70 -25 -10 -42 -30 -26 -30 2 0 12 -3 22 -7 11
-4 15 -3 10 5 -3 6 -2 13 4 17 5 3 10 -3 10 -14 0 -13 -7 -21 -17 -21 -15 0
-16 -2 -3 -10 13 -9 13 -11 0 -20 -13 -9 -13 -11 0 -21 13 -9 12 -10 -2 -5
-10 3 -20 1 -23 -4 -4 -6 -20 -10 -36 -10 -27 0 -30 3 -23 23 8 28 11 30 23
23 6 -4 7 -14 4 -23 -4 -9 -2 -14 5 -12 7 2 12 7 12 12 0 4 0 13 0 21 0 8 -9
18 -20 21 -23 7 -26 38 -8 96 10 36 9 41 -12 64 -22 23 -23 29 -14 74 10 49
10 49 -20 60 -31 11 -31 11 3 6 33 -5 33 -5 11 13 -29 24 -18 101 18 117 26
12 39 42 23 58 -17 17 -14 113 4 131 14 13 32 145 35 241 0 17 2 17 10 5 8
-12 10 -9 10 12 0 14 6 29 13 31 6 3 -3 6 -20 6 -33 1 -33 1 -33 -46z m-47
-325 c-3 -27 -9 -48 -13 -48 -4 0 -4 19 1 43 4 23 8 46 9 51 0 5 2 7 4 5 2 -2
2 -25 -1 -51z m-366 -440 c-3 -8 -6 -5 -6 6 -1 11 2 17 5 13 3 -3 4 -12 1 -19z
m243 -18 c0 -5 -2 -10 -4 -10 -3 0 -8 5 -11 10 -3 6 -1 10 4 10 6 0 11 -4 11
-10z m70 -85 c0 -8 -2 -15 -4 -15 -2 0 -6 7 -10 15 -3 8 -1 15 4 15 6 0 10 -7
10 -15z m17 -17 c-3 -7 -5 -2 -5 12 0 14 2 19 5 13 2 -7 2 -19 0 -25z m-1 -53
c-3 -9 -10 -13 -16 -10 -6 4 -5 11 3 20 15 16 22 11 13 -10z"/>
<path d="M2512 3366 c-47 -17 -49 -23 -55 -115 -4 -53 -2 -80 4 -70 5 7 9 33
9 55 0 84 9 103 52 114 21 6 36 15 33 20 -4 6 -7 9 -8 9 -1 -1 -17 -7 -35 -13z"/>
<path d="M1234 3295 c-10 -8 -52 -20 -91 -26 -40 -7 -68 -16 -62 -20 7 -4 9
-11 6 -16 -4 -6 10 -2 31 8 20 10 55 21 77 25 40 6 40 6 38 -43 -2 -48 -2 -48
7 1 11 60 15 64 71 75 44 9 44 9 -7 10 -30 1 -58 -5 -70 -14z"/>
<path d="M1373 3293 c9 -2 25 -2 35 0 9 3 1 5 -18 5 -19 0 -27 -2 -17 -5z"/>
<path d="M1450 3292 c0 -11 30 -26 43 -23 5 1 6 -3 3 -8 -4 -5 -2 -12 3 -15
10 -6 25 23 16 32 -3 3 -13 6 -23 7 -9 0 -23 4 -30 9 -6 4 -12 3 -12 -2z"/>
<path d="M2122 3288 c-100 -14 -85 -19 28 -11 60 4 87 9 75 14 -11 4 -22 7
-25 7 -3 0 -38 -5 -78 -10z"/>
<path d="M1745 3264 c-44 -7 -99 -13 -121 -13 -51 -1 -69 -19 -54 -52 10 -23
10 -23 6 -2 -4 25 5 35 38 39 226 29 239 28 229 -20 -4 -17 -3 -18 6 -6 7 10
11 11 11 3 0 -7 5 -13 10 -13 15 0 12 27 -6 44 -14 15 -13 16 9 16 21 0 24 -4
20 -22 -5 -21 -4 -21 8 -7 8 9 34 21 59 27 25 6 54 14 65 16 11 3 -7 3 -40 0
-67 -6 -76 -6 -125 -1 -19 2 -71 -2 -115 -9z"/>
<path d="M567 3233 c4 -10 12 -22 19 -28 7 -5 14 -28 16 -49 5 -69 23 -51 23
24 0 70 0 70 -32 70 -27 0 -31 -3 -26 -17z"/>
<path d="M560 3183 c1 -4 7 -19 16 -33 14 -25 14 -25 12 4 -3 25 -29 53 -28
29z"/>
<path d="M665 3111 c-3 -7 2 -11 14 -11 11 0 26 -6 33 -13 16 -17 70 -16 81 1
4 6 25 12 47 12 35 0 39 -3 42 -27 3 -27 4 -27 9 6 6 33 6 33 -55 28 -34 -3
-72 -8 -85 -13 -17 -5 -22 -4 -17 4 5 8 0 12 -13 12 -10 0 -26 3 -34 6 -8 3
-18 1 -22 -5z"/>
<path d="M2439 3093 c-1 -16 -3 -38 -4 -51 -10 -93 -13 -213 -4 -182 11 44 24
260 16 260 -4 0 -8 -12 -8 -27z"/>
<path d="M600 3096 c0 -8 7 -16 15 -20 9 -3 15 0 15 8 0 8 -7 16 -15 20 -9 3
-15 0 -15 -8z"/>
<path d="M1860 3090 c0 -7 3 -10 7 -7 3 4 3 10 0 14 -4 3 -7 0 -7 -7z"/>
<path d="M1560 3070 c0 -7 3 -10 7 -7 3 4 3 10 0 14 -4 3 -7 0 -7 -7z"/>
<path d="M770 3048 c0 -5 11 -8 25 -8 14 0 25 4 25 9 0 5 -11 8 -25 7 -14 0
-25 -4 -25 -8z"/>
<path d="M683 3043 c9 -2 25 -2 35 0 9 3 1 5 -18 5 -19 0 -27 -2 -17 -5z"/>
<path d="M835 3040 c3 -5 8 -10 11 -10 3 0 2 5 -1 10 -3 6 -8 10 -11 10 -3 0
-2 -4 1 -10z"/>
<path d="M1558 2958 c-3 -87 -4 -93 -25 -96 -17 -3 -22 2 -25 25 -3 26 -4 24
-17 -17 -8 -25 -19 -51 -25 -59 -24 -31 -15 -38 45 -37 55 0 65 5 59 31 -1 6
-2 63 -1 128 1 64 0 117 -3 117 -3 0 -7 -42 -8 -92z m-56 -130 c-9 -9 -12 -7
-12 12 0 19 3 21 12 12 9 -9 9 -15 0 -24z m48 2 c0 -5 -5 -10 -11 -10 -5 0 -7
5 -4 10 3 6 8 10 11 10 2 0 4 -4 4 -10z m0 -29 c0 -12 -39 -21 -45 -11 -3 5 1
11 7 13 21 9 38 8 38 -2z m-73 -8 c-4 -3 -10 -3 -14 0 -3 4 0 7 7 7 7 0 10 -3
7 -7z"/>
<path d="M620 3030 c0 -7 3 -10 7 -7 3 4 3 10 0 14 -4 3 -7 0 -7 -7z"/>
<path d="M1226 3024 c-4 -15 -13 -20 -29 -18 -100 14 -104 13 -103 -15 1 -25
4 -26 55 -26 56 0 100 33 89 66 -3 9 -7 7 -12 -7z m-20 -32 c-5 -9 -94 -8
-103 2 -3 3 19 6 51 6 31 0 55 -3 52 -8z"/>
<path d="M2392 3000 c0 -14 2 -19 5 -12 2 6 2 18 0 25 -3 6 -5 1 -5 -13z"/>
<path d="M560 2940 c0 -7 3 -10 7 -7 3 4 3 10 0 14 -4 3 -7 0 -7 -7z"/>
<path d="M1090 2939 c0 -5 14 -9 32 -9 37 0 34 7 -5 14 -15 2 -27 0 -27 -5z"/>
<path d="M1215 2940 c-3 -5 -1 -10 4 -10 6 0 11 5 11 10 0 6 -2 10 -4 10 -3 0
-8 -4 -11 -10z"/>
<path d="M1168 2933 c6 -2 18 -2 25 0 6 3 1 5 -13 5 -14 0 -19 -2 -12 -5z"/>
<path d="M1500 2930 c0 -7 3 -10 7 -7 3 4 3 10 0 14 -4 3 -7 0 -7 -7z"/>
<path d="M560 2900 c0 -5 5 -10 11 -10 5 0 7 5 4 10 -3 6 -8 10 -11 10 -2 0
-4 -4 -4 -10z"/>
<path d="M1098 2880 c7 -47 57 -73 106 -54 18 7 23 74 6 74 -5 0 -7 -13 -4
-30 7 -34 -10 -46 -51 -36 -32 8 -50 48 -26 58 9 4 11 7 4 7 -6 1 -18 3 -26 6
-10 5 -13 -1 -9 -25z"/>
<path d="M1700 2898 c0 -4 7 -8 15 -8 10 0 15 -10 15 -27 0 -22 -2 -25 -10
-13 -6 9 -10 10 -10 3 0 -6 5 -15 10 -18 6 -3 10 -17 10 -31 0 -13 5 -24 10
-24 7 0 8 13 4 36 -5 26 -3 39 7 45 10 6 11 9 2 9 -7 0 -13 9 -13 19 0 14 -6
19 -20 18 -11 -1 -20 -5 -20 -9z"/>
<path d="M1130 2870 c0 -7 3 -10 7 -7 3 4 3 10 0 14 -4 3 -7 0 -7 -7z"/>
<path d="M1795 2870 c-19 -8 -19 -9 3 -9 12 -1 22 4 22 9 0 6 -1 10 -2 9 -2 0
-12 -4 -23 -9z"/>
<path d="M1928 2863 c17 -2 47 -2 65 0 17 2 3 4 -33 4 -36 0 -50 -2 -32 -4z"/>
<path d="M2073 2853 c4 -3 10 -3 14 0 3 4 0 7 -7 7 -7 0 -10 -3 -7 -7z"/>
<path d="M2124 2853 c4 -4 39 -8 79 -9 68 -2 69 -2 22 6 -65 11 -110 12 -101
3z"/>
<path d="M570 2830 c0 -7 3 -10 7 -7 3 4 3 10 0 14 -4 3 -7 0 -7 -7z"/>
<path d="M2448 2833 c6 -2 18 -2 25 0 6 3 1 5 -13 5 -14 0 -19 -2 -12 -5z"/>
<path d="M642 2805 c0 -16 2 -22 5 -12 2 9 2 23 0 30 -3 6 -5 -1 -5 -18z"/>
<path d="M1091 2800 c0 -19 4 -62 8 -95 5 -33 4 -70 0 -82 -14 -39 3 -65 52
-78 24 -6 55 -15 68 -19 14 -5 21 -4 18 2 -4 5 -34 17 -67 26 -53 15 -60 20
-60 42 0 24 1 24 22 10 12 -9 40 -16 61 -16 36 0 39 2 33 23 -3 12 -6 46 -6
75 0 52 0 52 -32 51 -30 -1 -31 -2 -8 -8 23 -6 25 -12 28 -70 3 -64 3 -64 -30
-57 -45 9 -52 19 -49 71 1 26 -2 45 -9 45 -5 0 -10 5 -10 11 0 5 4 8 9 4 5 -3
12 -1 16 5 3 5 0 10 -8 10 -16 0 -30 27 -21 41 3 5 0 17 -5 26 -8 15 -10 12
-10 -17z"/>
<path d="M2513 2823 c9 -2 23 -2 30 0 6 3 -1 5 -18 5 -16 0 -22 -2 -12 -5z"/>
<path d="M890 2810 c0 -7 3 -10 7 -7 3 4 3 10 0 14 -4 3 -7 0 -7 -7z"/>
<path d="M1250 2810 c0 -7 3 -10 7 -7 3 4 3 10 0 14 -4 3 -7 0 -7 -7z"/>
<path d="M1673 2813 c4 -3 10 -3 14 0 3 4 0 7 -7 7 -7 0 -10 -3 -7 -7z"/>
<path d="M2376 2804 c-9 -23 -8 -24 12 -23 9 0 12 3 5 5 -7 3 -9 12 -6 20 3 8
3 14 0 14 -3 0 -8 -7 -11 -16z"/>
<path d="M1227 2795 c-4 -8 -14 -15 -24 -16 -12 -1 -10 -3 7 -8 22 -6 25 -12
28 -76 4 -100 1 -96 86 -94 40 1 80 -2 87 -5 8 -4 5 0 -5 8 -11 9 -23 16 -28
16 -4 0 -8 6 -8 14 0 13 49 14 71 1 5 -4 9 -2 9 3 0 12 -25 22 -56 22 -15 0
-24 6 -24 16 0 8 5 12 10 9 6 -4 26 -8 45 -10 33 -3 34 -2 23 18 -7 14 -13 17
-16 9 -6 -19 -22 -14 -22 8 0 23 -20 70 -30 70 -25 0 -40 -41 -38 -101 3 -64
3 -64 -42 -64 -45 0 -45 0 -50 92 -5 91 -12 118 -23 88z m169 -93 c-12 -11
-26 12 -26 41 1 32 1 32 16 -2 8 -19 12 -36 10 -39z"/>
<path d="M1123 2793 c4 -3 10 -3 14 0 3 4 0 7 -7 7 -7 0 -10 -3 -7 -7z"/>
<path d="M1615 2790 c-3 -5 -1 -10 4 -10 6 0 11 5 11 10 0 6 -2 10 -4 10 -3 0
-8 -4 -11 -10z"/>
<path d="M2112 2780 c0 -14 2 -19 5 -12 2 6 2 18 0 25 -3 6 -5 1 -5 -13z"/>
<path d="M890 2775 c0 -8 4 -15 10 -15 5 0 7 7 4 15 -4 8 -8 15 -10 15 -2 0
-4 -7 -4 -15z"/>
<path d="M1643 2773 c4 -3 10 -3 14 0 3 4 0 7 -7 7 -7 0 -10 -3 -7 -7z"/>
<path d="M2413 2773 c4 -3 10 -3 14 0 3 4 0 7 -7 7 -7 0 -10 -3 -7 -7z"/>
<path d="M638 2723 c7 -65 12 -67 12 -5 0 29 -4 52 -9 52 -5 0 -6 -21 -3 -47z"/>
<path d="M2523 2763 c9 -2 23 -2 30 0 6 3 -1 5 -18 5 -16 0 -22 -2 -12 -5z"/>
<path d="M1543 2748 c1 -43 -6 -101 -10 -75 -4 23 -34 67 -45 67 -2 0 -3 -25
-3 -55 0 -40 4 -55 14 -55 7 0 11 6 7 15 -4 12 -2 13 14 2 22 -13 27 -53 8
-60 -8 -3 -6 -6 5 -6 9 -1 17 5 18 12 5 71 4 167 -2 167 -4 0 -7 -6 -6 -12z"/>
<path d="M1590 2743 c8 -3 23 -10 33 -15 12 -6 17 -5 17 7 0 10 -10 15 -32 14
-18 0 -26 -3 -18 -6z"/>
<path d="M1663 2743 c9 -2 23 -2 30 0 6 3 -1 5 -18 5 -16 0 -22 -2 -12 -5z"/>
<path d="M1713 2735 c0 -7 6 -11 14 -8 7 3 13 6 13 8 0 2 -6 5 -13 8 -8 3 -14
-1 -14 -8z"/>
<path d="M1753 2743 c4 -3 10 -3 14 0 3 4 0 7 -7 7 -7 0 -10 -3 -7 -7z"/>
<path d="M1780 2734 c0 -8 5 -12 10 -9 6 4 8 11 5 16 -9 14 -15 11 -15 -7z"/>
<path d="M2463 2743 c4 -3 10 -3 14 0 3 4 0 7 -7 7 -7 0 -10 -3 -7 -7z"/>
<path d="M898 2681 c4 -58 4 -58 -82 -66 -47 -4 -89 -11 -92 -16 -3 -6 4 -8
18 -5 12 3 54 8 92 11 93 9 97 11 85 42 -5 13 -9 40 -9 59 0 19 -3 34 -7 34
-5 0 -7 -26 -5 -59z"/>
<path d="M1425 2730 c3 -5 10 -10 16 -10 5 0 9 5 9 10 0 6 -7 10 -16 10 -8 0
-12 -4 -9 -10z"/>
<path d="M2513 2733 c9 -2 23 -2 30 0 6 3 -1 5 -18 5 -16 0 -22 -2 -12 -5z"/>
<path d="M1660 2720 c0 -7 3 -10 7 -7 3 4 3 10 0 14 -4 3 -7 0 -7 -7z"/>
<path d="M621 2704 c0 -11 3 -14 6 -6 3 7 2 16 -1 19 -3 4 -6 -2 -5 -13z"/>
<path d="M1612 2700 c0 -14 2 -19 5 -12 2 6 2 18 0 25 -3 6 -5 1 -5 -13z"/>
<path d="M1831 2694 c0 -11 3 -14 6 -6 3 7 2 16 -1 19 -3 4 -6 -2 -5 -13z"/>
<path d="M2083 2680 c3 -10 -1 -27 -9 -37 -16 -21 -18 -37 -4 -28 6 3 10 1 10
-5 0 -7 5 -10 11 -8 18 6 20 98 2 98 -10 0 -14 -7 -10 -20z"/>
<path d="M657 2602 c15 -27 22 -54 19 -68 -4 -13 0 -27 9 -34 8 -7 15 -19 15
-26 0 -8 6 -11 15 -8 8 4 15 1 15 -5 0 -6 18 -11 41 -11 28 0 39 -4 36 -12 -2
-9 -18 -12 -45 -10 -33 3 -42 0 -42 -12 0 -9 7 -16 16 -16 9 0 12 5 8 12 -5 8
-2 9 11 4 28 -10 88 4 75 18 -6 9 -6 16 2 24 9 9 8 12 -5 12 -10 0 -31 10 -47
22 -23 17 -32 19 -43 9 -8 -6 -22 -9 -31 -5 -26 10 -19 42 14 59 33 17 40 30
11 20 -13 -4 -20 1 -25 17 -7 22 -8 22 -15 4 -7 -18 -9 -17 -22 12 -7 17 -19
34 -25 36 -6 2 -1 -16 13 -42z m124 -140 c-26 -4 -47 11 -37 27 5 7 16 5 34
-7 26 -17 26 -17 3 -20z"/>
<path d="M2150 2640 c0 -5 12 -10 28 -9 24 0 25 1 7 9 -27 12 -35 12 -35 0z"/>
<path d="M1779 2631 c11 -7 9 -10 -10 -14 -19 -3 -18 -5 9 -6 22 -1 32 3 32
14 0 9 -9 15 -22 15 -18 0 -20 -2 -9 -9z"/>
<path d="M1830 2630 c0 -7 3 -10 7 -7 3 4 3 10 0 14 -4 3 -7 0 -7 -7z"/>
<path d="M2542 2620 c0 -14 2 -19 5 -12 2 6 2 18 0 25 -3 6 -5 1 -5 -13z"/>
<path d="M923 2598 c-11 -13 -23 -31 -26 -41 -6 -15 -17 -17 -88 -14 -109 6
-87 -9 33 -22 53 -6 108 -15 121 -20 34 -13 89 -11 84 3 -2 6 -17 12 -33 12
-16 1 -46 2 -66 3 -47 1 -49 16 -4 31 39 12 55 6 155 -57 56 -36 63 -54 12
-33 -27 11 -33 10 -57 -9 -19 -15 -43 -22 -83 -23 -50 -1 -52 -2 -13 -5 26 -3
40 -8 36 -15 -4 -6 1 -6 14 1 11 6 30 11 41 11 12 0 21 7 21 15 0 8 5 15 12
15 21 0 98 -32 98 -41 0 -5 5 -9 11 -9 5 0 7 5 3 11 -4 7 -1 10 7 7 8 -3 13
-11 11 -18 -3 -15 20 -8 25 7 4 11 -28 26 -57 27 -8 1 -17 11 -20 24 -3 12
-15 28 -26 35 -12 7 -40 22 -62 35 -23 12 -57 38 -76 57 -42 41 -46 42 -73 13z
m47 -8 c17 -11 13 -15 -22 -24 -30 -7 -36 2 -16 22 14 14 18 15 38 2z"/>
<path d="M633 2539 c-2 -38 1 -69 6 -69 4 0 6 -26 4 -57 -2 -41 0 -54 7 -43 7
11 10 -10 11 -70 0 -47 2 -95 5 -108 2 -14 0 -21 -6 -17 -5 3 -10 -3 -10 -14
0 -12 -7 -21 -15 -21 -8 0 -15 -6 -15 -14 0 -9 7 -12 20 -9 14 4 20 0 20 -11
0 -11 5 -14 12 -10 8 5 10 -14 5 -74 -3 -45 -1 -80 3 -77 5 3 11 -3 14 -12 3
-10 3 27 0 81 -4 75 -9 103 -21 111 -19 14 -9 37 13 28 24 -9 44 -58 45 -110
1 -48 1 -48 11 2 6 34 6 55 -1 67 -6 10 -11 32 -12 50 0 28 -2 30 -9 13 -6
-15 -8 -6 -8 30 0 28 2 42 5 33 2 -9 10 -15 17 -12 18 7 30 -27 14 -38 -8 -6
2 -7 27 -3 22 4 42 9 45 11 5 6 -21 24 -35 24 -5 0 -3 -5 5 -10 13 -8 12 -10
-2 -10 -10 0 -18 7 -18 15 0 8 9 15 20 15 25 0 27 17 3 22 -10 3 23 10 72 17
50 7 97 15 107 17 19 6 34 -12 15 -18 -6 -2 -43 -5 -82 -7 -38 -1 -74 -7 -80
-13 -9 -9 121 -4 165 7 15 4 97 -121 87 -131 -8 -9 -137 61 -137 73 0 15 44
28 59 18 6 -3 11 -2 11 4 0 19 -19 22 -54 7 -20 -8 -50 -12 -68 -10 -27 5 -38
0 -62 -25 -17 -17 -40 -31 -53 -31 -23 0 -23 0 -6 -27 10 -16 23 -34 30 -41 7
-7 13 -14 13 -15 0 -1 4 -17 9 -35 6 -18 6 -30 1 -27 -5 3 -12 0 -15 -5 -5 -8
-11 -6 -18 5 -9 12 -12 -6 -11 -79 0 -63 5 -100 13 -110 16 -20 8 -31 -15 -22
-12 5 -15 15 -12 42 2 20 -2 57 -9 83 -13 46 -13 46 -8 -3 3 -27 5 -71 5 -98
0 -46 1 -48 24 -44 40 7 55 -21 20 -36 -16 -6 -39 -20 -51 -31 -22 -19 -22
-19 -16 2 3 11 11 21 19 21 28 0 24 21 -6 32 -32 10 -32 11 -28 74 3 65 -10
84 -31 47 -8 -15 -10 -16 -15 -3 -14 43 -16 39 -11 -19 3 -40 11 -71 22 -83 9
-10 13 -18 9 -18 -4 0 -2 -8 3 -18 7 -13 7 -22 0 -29 -8 -8 -8 -17 0 -31 6
-11 11 -24 11 -29 -1 -4 -10 9 -21 30 -23 44 -35 45 -19 2 9 -24 8 -26 -4 -16
-7 6 -17 36 -21 66 -4 38 -10 53 -18 48 -20 -12 -91 -6 -96 9 -9 28 -69 76
-106 87 -81 22 -143 11 -198 -35 -36 -30 -44 -25 -27 16 11 28 11 33 -9 54
-23 24 -37 96 -63 316 -13 105 -13 105 -19 35 -5 -70 -5 -70 -7 -8 -1 34 -7
65 -13 69 -12 7 -5 -127 12 -202 8 -40 36 -248 45 -334 2 -25 6 -56 10 -69 7
-31 53 -303 58 -347 3 -19 0 -34 -5 -34 -5 0 -9 4 -9 10 0 13 -67 157 -92 198
-30 49 -33 31 -3 -24 35 -67 90 -193 100 -229 8 -30 8 -30 15 0 5 27 7 24 14
-25 4 -30 11 -77 16 -105 43 -260 58 -310 109 -375 20 -25 20 -25 11 15 -5 22
-10 45 -10 50 -1 6 -5 1 -9 -9 -7 -19 -8 -19 -13 2 -4 14 -2 20 5 15 6 -4 8 0
4 10 -12 33 2 16 44 -51 42 -66 86 -168 68 -156 -13 7 -12 3 11 -41 32 -62 45
-66 89 -29 37 31 39 53 9 81 -40 35 -51 38 -44 12 4 -15 -1 -11 -13 12 -21 38
-51 68 -51 51 0 -5 7 -15 15 -22 8 -7 15 -20 15 -29 0 -9 5 -22 11 -28 6 -6 9
-17 7 -25 -3 -7 -24 25 -46 72 -47 97 -86 168 -102 184 -5 5 -10 17 -10 25 1
21 23 -8 56 -72 14 -27 28 -47 30 -44 3 3 -1 16 -10 29 -8 12 -27 54 -41 91
-14 37 -32 78 -40 91 -21 32 -65 146 -65 168 0 10 -4 18 -10 18 -5 0 -10 18
-10 41 0 41 0 41 35 -1 19 -23 35 -50 35 -61 0 -10 4 -19 8 -19 5 0 35 -40 68
-90 32 -49 63 -90 68 -90 4 0 4 6 -1 13 -22 27 -125 190 -130 205 -4 10 -15
29 -25 44 -19 28 -19 28 10 28 16 0 46 7 65 15 20 8 48 15 63 15 14 0 41 7 60
16 37 18 50 14 41 -11 -4 -8 -18 -15 -32 -15 -14 0 -42 -7 -62 -15 -19 -8 -48
-15 -63 -15 -28 0 -68 -34 -52 -44 11 -6 195 45 200 56 6 14 44 9 40 -4 -10
-29 -183 -84 -205 -66 -7 6 -13 7 -13 3 0 -10 67 -126 90 -155 23 -29 27 -15
4 18 -8 12 -12 27 -9 32 4 6 1 9 -6 8 -6 -2 -13 2 -16 8 -2 6 35 20 92 33 85
21 108 34 90 53 -6 6 -120 -24 -131 -35 -10 -10 -72 -9 -78 1 -3 5 0 9 7 10 7
0 37 7 67 15 30 8 72 18 94 22 34 6 38 9 33 31 -2 13 -1 27 3 29 4 3 10 -14
14 -36 4 -23 13 -51 21 -62 17 -25 21 -82 4 -72 -6 4 -9 0 -7 -11 2 -11 10
-22 18 -26 10 -5 7 -7 -10 -8 -14 -1 -41 -8 -60 -16 -36 -15 -20 -14 50 3 32
8 35 12 34 44 -4 141 -39 289 -69 289 -13 0 -39 61 -50 117 -5 24 -10 30 -23
26 -12 -4 -14 -3 -7 5 6 5 19 12 30 14 19 5 19 5 2 13 -12 5 -24 2 -36 -10
-11 -9 -52 -23 -93 -31 -40 -9 -90 -23 -110 -33 -39 -19 -50 -10 -23 19 14 15
13 17 -12 17 -27 0 -28 -2 -27 -51 1 -67 14 -148 26 -163 6 -7 7 -13 2 -13 -5
0 -20 17 -34 37 -23 34 -25 44 -24 157 0 169 8 205 52 256 32 39 33 41 9 25
-50 -32 -67 -67 -67 -137 0 -93 -16 -104 -24 -16 -3 40 -9 91 -12 113 -17 123
198 188 304 92 20 -18 30 -47 17 -47 -9 0 -48 25 -67 43 -37 35 -154 13 -179
-35 -12 -23 -12 -23 12 -2 51 44 119 57 155 29 18 -15 18 -15 -9 -9 -44 10
-97 -4 -97 -26 0 -10 -8 -25 -19 -32 -33 -24 -51 -73 -50 -140 1 -35 4 -53 6
-40 2 12 9 20 14 17 8 -6 14 22 10 51 -6 48 147 102 213 75 30 -12 42 -9 32 7
-3 6 -15 8 -26 5 -11 -3 -20 -1 -20 5 0 9 49 27 55 20 2 -2 5 -16 8 -33 7 -47
30 -119 40 -126 4 -3 9 -13 11 -21 1 -9 17 -28 35 -43 18 -16 46 -51 62 -80
26 -47 32 -51 59 -47 40 6 38 -12 -2 -26 -33 -10 -33 -10 0 -11 34 -1 35 -3
35 -76 0 -36 -28 -105 -42 -105 -6 0 -11 6 -11 14 0 7 -9 25 -20 38 -18 23
-18 25 -2 25 46 0 63 4 57 13 -3 5 -12 7 -19 4 -19 -7 -46 34 -46 71 -1 16
-14 55 -30 85 -31 59 -39 63 -16 8 8 -19 16 -59 18 -90 1 -31 5 -55 7 -53 2 3
12 0 23 -6 24 -13 14 -29 -14 -21 -17 4 -20 2 -15 -11 3 -8 9 -33 12 -54 3
-21 11 -60 17 -87 10 -47 10 -51 -15 -70 -26 -21 -26 -21 15 -23 50 -2 55 -7
70 -71 15 -62 11 -60 145 -67 164 -8 363 -27 368 -35 3 -4 -4 -19 -15 -33 -22
-28 -25 -37 -10 -37 5 0 20 16 32 35 27 41 34 43 40 11 3 -16 0 -23 -11 -22
-8 0 -17 -8 -19 -19 -4 -20 -4 -20 13 0 16 19 16 19 10 -9 -5 -25 -4 -28 9
-17 8 7 12 20 9 28 -5 12 -3 14 7 8 10 -6 12 -4 7 8 -4 10 -10 24 -13 32 -5
13 1 16 34 14 51 -3 45 -10 80 91 26 78 28 94 24 192 -2 59 -7 106 -11 103 -4
-2 -6 -40 -5 -85 1 -44 -1 -80 -7 -80 -5 0 -9 5 -9 11 0 22 -18 -2 -22 -30 -2
-17 -1 -28 4 -25 4 3 8 13 8 22 1 15 2 15 10 1 10 -17 -11 -133 -30 -168 -12
-24 -28 -25 -160 -11 -47 5 -164 14 -260 19 -97 6 -183 13 -191 16 -9 3 -21
29 -28 61 -7 30 -19 58 -27 61 -8 3 -14 15 -14 27 0 16 2 18 9 7 6 -9 8 8 8
45 -2 64 41 178 96 259 27 39 27 39 109 37 46 -2 101 -5 123 -8 40 -6 40 -6
37 83 -2 62 0 84 8 73 5 -8 10 -34 10 -56 0 -82 9 -102 46 -106 37 -4 47 19
23 52 -8 12 -9 9 -5 -12 7 -31 -10 -39 -21 -11 -6 15 -7 15 -13 -2 -4 -11 -10
16 -15 65 -10 108 -10 107 -2 160 5 31 4 39 -2 25 -9 -19 -10 -19 -10 2 -1 12
-6 34 -13 48 -9 19 -8 30 1 48 10 19 10 33 -3 73 -16 52 -27 194 -14 194 6 0
53 -24 286 -146 34 -18 62 -29 62 -24 0 8 -309 171 -337 178 -18 5 -16 22 3
22 8 0 12 5 9 11 -4 6 -13 8 -21 5 -8 -3 -14 -2 -14 3 0 17 78 34 117 26 55
-12 150 -8 207 9 35 11 56 12 75 5 23 -9 24 -8 11 4 -19 19 -65 34 -56 18 4
-6 0 -11 -9 -11 -12 0 -15 5 -11 16 3 9 6 20 6 25 0 5 10 9 23 10 12 0 31 5
42 10 15 7 9 8 -22 4 -43 -5 -43 -5 -45 127 -2 164 -2 188 7 196 3 4 63 -8
133 -27 70 -18 150 -36 177 -40 28 -4 93 -19 145 -33 52 -15 156 -41 230 -58
74 -18 143 -34 153 -37 18 -5 23 -53 11 -125 -8 -47 -11 -47 -154 -4 -112 34
-112 34 -204 16 -126 -25 -254 -42 -266 -35 -6 3 -10 45 -10 93 0 87 0 87 35
87 35 0 35 0 37 -85 2 -85 2 -85 5 -10 2 41 8 80 14 86 14 17 -4 26 -36 18
-30 -7 -64 14 -43 27 10 7 10 11 0 21 -6 6 -12 21 -12 32 0 10 -3 16 -6 13 -4
-4 -8 -64 -9 -133 -2 -121 -3 -128 -26 -145 -26 -20 -19 -25 11 -9 13 7 21 7
25 0 3 -5 -2 -10 -11 -10 -10 0 -15 -2 -12 -5 6 -7 113 8 275 37 122 21 122
21 240 -12 101 -28 157 -46 209 -67 6 -2 18 21 28 55 18 64 44 96 69 86 15 -5
47 -77 62 -136 3 -13 15 -34 26 -48 17 -20 19 -21 13 -5 -59 161 -67 195 -43
195 6 0 7 -5 3 -12 -4 -7 -3 -8 5 -4 12 8 41 -10 41 -24 0 -4 -10 -11 -22 -15
-21 -6 -21 -8 -4 -12 21 -6 36 12 36 44 0 19 -8 25 -45 34 -24 6 -43 16 -42
23 1 7 -13 10 -42 8 -24 -1 -71 6 -105 17 -62 20 -231 64 -410 107 -54 13
-112 28 -128 33 -16 6 -35 8 -42 5 -8 -3 -49 6 -93 19 -43 14 -116 32 -163 41
-47 10 -114 24 -150 32 -101 22 -115 15 -20 -10 97 -25 97 -26 99 -209 1 -88
1 -88 -27 -67 -15 12 -79 34 -142 49 -62 16 -107 30 -100 33 7 2 -21 2 -61 0
-41 -2 -83 -9 -94 -16 -37 -23 -87 -28 -81 -8 3 9 -2 31 -9 47 -15 30 -15 30
-9 -13 5 -35 2 -46 -13 -57 -23 -18 -5 -19 51 -4 27 8 41 8 49 0 8 -8 7 -11
-3 -12 -8 0 -22 -2 -30 -3 -8 -2 -37 -6 -65 -10 -27 -3 -79 -10 -114 -16 -36
-5 -69 -6 -74 -3 -5 3 -6 -19 -3 -53 4 -40 3 -52 -3 -38 -5 11 -14 97 -20 190
-12 176 -19 232 -30 238 -3 2 -7 -27 -8 -65z m622 -224 c109 -28 128 -37 149
-67 17 -24 22 -63 7 -53 -5 3 -17 -5 -25 -17 -23 -33 -19 -47 5 -18 20 25 20
25 17 0 -6 -52 -204 -56 -203 -4 1 10 -3 22 -7 25 -8 5 38 32 76 44 10 3 16 8
13 12 -4 3 -20 0 -38 -7 -39 -16 -58 3 -32 32 9 10 11 18 5 18 -20 0 -35 -39
-21 -56 13 -16 2 -19 -20 -5 -9 6 -11 18 -7 35 6 23 4 26 -21 25 -17 -1 -21
-3 -10 -6 9 -2 17 -9 17 -14 0 -6 -6 -7 -12 -3 -9 6 -9 3 1 -9 7 -9 11 -23 8
-32 -4 -8 -1 -18 6 -22 8 -5 3 -10 -13 -14 -25 -7 -25 -7 3 -8 18 -1 27 -6 27
-17 0 -14 -3 -14 -15 -4 -12 10 -15 10 -15 -3 0 -16 -32 -29 -47 -18 -32 23
-109 182 -97 202 11 18 153 9 249 -16z m1071 -3 c7 -4 10 -34 9 -77 -1 -42 2
-73 9 -77 7 -5 4 -8 -6 -8 -12 0 -18 8 -19 23 -1 21 -1 21 -8 -3 -9 -34 -24
-9 -17 28 3 15 7 48 8 75 2 48 4 52 24 39z m49 -22 c-3 -6 1 -7 9 -4 9 3 16 1
16 -5 0 -6 -4 -11 -9 -11 -5 0 -12 -13 -16 -30 -11 -48 -22 -43 -24 10 0 39 3
50 15 50 8 0 12 -4 9 -10z m-1608 -46 c-3 -3 -12 -4 -19 -1 -8 3 -5 6 6 6 11
1 17 -2 13 -5z m136 -63 c-4 -15 0 -18 19 -15 24 4 139 -53 145 -71 8 -29 -16
-39 -36 -14 -11 13 -20 19 -21 12 0 -6 5 -15 10 -18 6 -4 8 -10 5 -15 -3 -5 3
-18 15 -30 61 -61 -125 -124 -205 -68 -35 23 -37 38 -5 38 10 0 22 -9 25 -20
3 -11 13 -20 22 -20 14 0 14 3 -2 20 -10 11 -14 20 -9 20 5 0 -2 7 -15 16 -17
12 -22 24 -19 45 2 15 1 27 -3 26 -8 -2 -49 42 -49 54 0 4 19 11 43 15 30 5
37 9 24 13 -16 6 -16 9 -5 18 33 26 69 23 61 -6z m-778 -96 c3 -47 3 -52 -4
-26 -14 51 -23 154 -11 116 5 -16 12 -57 15 -90z m12 -122 c-3 -10 -5 -4 -5
12 0 17 2 24 5 18 2 -7 2 -21 0 -30z m943 18 c0 -5 -9 -19 -19 -32 -14 -18
-19 -19 -17 -8 3 26 36 62 36 40z m-240 -48 c0 3 18 1 39 -4 28 -6 53 -4 87 6
61 18 67 19 61 1 -4 -9 2 -17 14 -21 21 -7 27 -45 7 -45 -10 0 -9 -3 1 -9 13
-8 -63 -41 -96 -41 -29 0 -1 19 38 25 22 4 38 9 36 11 -2 3 -23 2 -47 -2 -42
-7 -61 -27 -42 -46 12 -12 132 29 132 45 0 6 9 2 20 -8 22 -20 26 -46 9 -73
-11 -17 -16 -17 -77 -5 -46 10 -83 11 -124 5 -54 -8 -60 -7 -74 12 -23 34 -16
47 13 20 38 -35 42 -21 4 16 -17 17 -31 41 -31 53 0 12 -3 40 -6 62 -5 40 -5
40 15 16 12 -13 21 -21 21 -18z m250 -26 c0 -18 -2 -19 -10 -7 -13 20 -13 43
0 35 6 -3 10 -16 10 -28z m-928 -12 c3 -14 2 -25 -2 -25 -9 0 -20 25 -20 46 0
23 17 7 22 -21z m515 -57 c-3 -7 -5 -2 -5 12 0 14 2 19 5 13 2 -7 2 -19 0 -25z
m-520 -15 c-4 -3 -7 0 -7 7 0 7 3 10 7 7 3 -4 3 -10 0 -14z m235 -19 c15 -15
-6 -44 -32 -44 -24 0 -34 22 -21 48 2 4 48 2 53 -4z m80 -17 c14 -11 11 -13
-25 -11 -50 2 -50 1 -42 14 9 14 47 12 67 -3z m125 -54 c-5 -26 -3 -34 7 -30
7 3 23 -8 35 -24 22 -30 22 -30 -1 -49 -27 -21 -48 -11 -48 24 0 12 -8 31 -18
42 -32 33 -36 72 -10 76 35 6 41 -1 35 -39z m413 26 c59 -13 104 -46 95 -70
-20 -54 -220 -89 -315 -56 -55 20 -67 13 -15 -9 69 -28 262 -16 305 20 34 29
40 28 40 -8 0 -33 -4 -37 -53 -61 -102 -48 -306 -23 -330 40 -33 83 40 136
210 154 7 0 35 -4 63 -10z m-678 -17 c-6 -5 -19 -17 -28 -28 -8 -10 -14 -14
-11 -9 2 6 7 18 10 28 4 9 14 17 24 17 13 0 14 -3 5 -8z m-42 -16 c0 -3 -5 -8
-12 -12 -7 -4 -8 -3 -4 4 7 12 16 16 16 8z m-33 -83 c-4 -3 -7 0 -7 7 0 7 3
10 7 7 3 -4 3 -10 0 -14z m472 -43 c26 -38 41 -120 22 -120 -6 0 -11 -7 -11
-15 0 -25 -17 -17 -59 26 -65 68 -85 128 -40 116 14 -4 19 0 19 15 0 31 41 18
69 -22z m205 -60 c52 0 107 5 121 12 33 15 33 14 41 -66 7 -69 7 -69 -113 -63
-121 5 -121 5 -153 -44 -38 -60 -55 -63 -47 -10 3 23 0 44 -7 52 -8 9 -8 10 3
4 14 -8 12 56 -4 117 -7 28 -7 28 29 13 23 -10 69 -15 130 -15z m-415 -73 c1
-47 -24 -82 -76 -105 -92 -39 -96 -39 -121 13 -43 89 -27 122 61 126 26 2 47
6 47 11 0 4 6 5 13 2 7 -2 24 -1 38 4 27 11 37 -3 38 -51z m27 -52 c-4 -14
-11 -25 -17 -25 -7 0 -9 9 -5 23 3 12 6 36 7 52 1 30 1 30 11 2 5 -15 7 -39 4
-52z m-226 -69 c11 -22 17 -42 13 -45 -3 -3 -8 -1 -10 6 -2 7 -10 10 -17 7
-20 -8 -33 16 -39 69 -8 75 3 101 19 46 7 -24 22 -62 34 -83z m440 94 c0 -11
-4 -20 -9 -20 -5 0 -7 9 -4 20 3 11 7 20 9 20 2 0 4 -9 4 -20z m-33 -17 c-4
-3 -10 -3 -14 0 -3 4 0 7 7 7 7 0 10 -3 7 -7z m-143 -60 c8 -16 15 -22 16 -15
0 13 20 17 20 4 0 -11 -46 -32 -54 -25 -3 3 -1 12 5 20 9 10 8 13 -5 13 -9 0
-16 7 -16 15 0 24 18 17 34 -12z m-54 7 c0 -5 -5 -10 -11 -10 -5 0 -7 5 -4 10
3 6 8 10 11 10 2 0 4 -4 4 -10z m-50 -19 c0 -8 -81 -33 -88 -27 -2 2 16 10 40
19 24 8 44 15 46 16 1 0 2 -3 2 -8z m-67 -88 c-7 -2 -21 -2 -30 0 -10 3 -4 5
12 5 17 0 24 -2 18 -5z m312 -123 c6 -23 5 -23 -14 5 -12 17 -21 41 -20 55 1
24 1 24 14 -5 7 -16 16 -41 20 -55z m-383 -159 c6 -9 -2 -3 -16 13 -15 15 -30
41 -33 57 -3 16 -9 29 -14 29 -5 0 -9 10 -8 23 0 14 11 0 30 -42 16 -36 35
-72 41 -80z m385 112 c-4 -3 -7 0 -7 7 0 7 3 10 7 7 3 -4 3 -10 0 -14z m-10
-50 c-4 -3 -7 0 -7 7 0 7 3 10 7 7 3 -4 3 -10 0 -14z m-400 -95 c-3 -7 -5 -2
-5 12 0 14 2 19 5 13 2 -7 2 -19 0 -25z m227 -324 c-46 -37 -59 -27 -28 21 14
21 19 23 37 13 21 -11 20 -11 -9 -34z"/>
<path d="M1258 2283 c12 -2 30 -2 40 0 9 3 -1 5 -23 4 -22 0 -30 -2 -17 -4z"/>
<path d="M1040 2252 c0 -12 63 -92 68 -87 5 5 -46 83 -60 91 -4 3 -8 1 -8 -4z"/>
<path d="M1321 2236 c-7 -8 -26 -18 -42 -21 -16 -4 -31 -10 -34 -15 -3 -5 12
-4 32 2 42 11 96 48 71 48 -9 0 -21 -6 -27 -14z"/>
<path d="M1385 2240 c3 -5 8 -10 11 -10 3 0 2 5 -1 10 -3 6 -8 10 -11 10 -3 0
-2 -4 1 -10z"/>
<path d="M1345 2180 c-4 -6 -21 -17 -38 -25 -24 -11 -26 -13 -7 -9 23 6 73 44
58 44 -4 0 -10 -5 -13 -10z"/>
<path d="M2320 2250 c0 -7 3 -10 7 -7 3 4 3 10 0 14 -4 3 -7 0 -7 -7z"/>
<path d="M2360 2250 c0 -7 3 -10 7 -7 3 4 3 10 0 14 -4 3 -7 0 -7 -7z"/>
<path d="M881 2054 c19 -14 33 -29 32 -33 -3 -12 48 -4 61 9 8 8 7 9 -6 5 -11
-4 -35 3 -62 19 -57 33 -70 33 -25 0z"/>
<path d="M918 1893 c7 -3 16 -2 19 1 4 3 -2 6 -13 5 -11 0 -14 -3 -6 -6z"/>
<path d="M1053 1816 c-18 -6 -35 -15 -39 -18 -10 -11 70 13 81 23 12 12 0 10
-42 -5z"/>
<path d="M891 1721 c-56 -15 -19 -48 42 -37 58 10 69 17 56 32 -12 15 -56 17
-98 5z"/>
<path d="M1004 1458 c-4 -7 -3 -8 4 -4 7 4 12 9 12 12 0 8 -9 4 -16 -8z"/>
<path d="M1073 1433 c4 -3 10 -3 14 0 3 4 0 7 -7 7 -7 0 -10 -3 -7 -7z"/>
<path d="M1880 2600 c0 -6 17 -10 37 -10 43 0 41 5 -4 13 -19 4 -33 2 -33 -3z"/>
<path d="M880 2590 c0 -7 3 -10 7 -7 3 4 3 10 0 14 -4 3 -7 0 -7 -7z"/>
<path d="M1705 2590 c-3 -5 -16 -11 -28 -11 -20 -1 -20 -2 -2 -6 11 -3 24 -9
30 -14 16 -16 25 -10 25 16 0 25 -14 33 -25 15z m12 -17 c-4 -3 -10 -3 -14 0
-3 4 0 7 7 7 7 0 10 -3 7 -7z"/>
<path d="M2540 2580 c0 -5 5 -10 11 -10 5 0 7 5 4 10 -3 6 -8 10 -11 10 -2 0
-4 -4 -4 -10z"/>
<path d="M1600 2560 c0 -7 3 -10 7 -7 3 4 3 10 0 14 -4 3 -7 0 -7 -7z"/>
<path d="M1535 2550 c3 -5 11 -10 16 -10 6 0 7 5 4 10 -3 6 -11 10 -16 10 -6
0 -7 -4 -4 -10z"/>
<path d="M1657 2540 c4 -17 13 -20 52 -19 25 1 37 4 26 6 -11 3 -26 10 -33 16
-26 20 -51 19 -45 -3z"/>
<path d="M1808 2533 c6 -2 18 -2 25 0 6 3 1 5 -13 5 -14 0 -19 -2 -12 -5z"/>
<path d="M1808 2493 c6 -2 18 -2 25 0 6 3 1 5 -13 5 -14 0 -19 -2 -12 -5z"/>
<path d="M1502 2450 c-14 -23 -15 -31 -4 -28 26 8 52 -29 52 -74 0 -27 5 -48
10 -48 6 0 10 23 10 51 0 47 1 50 23 45 31 -8 -6 8 -47 20 -44 13 -48 39 -5
29 74 -16 84 -17 77 -10 -3 3 -21 10 -40 15 -18 4 -40 11 -48 14 -9 4 -20 -2
-28 -14z"/>
<path d="M963 2453 c4 -3 10 -3 14 0 3 4 0 7 -7 7 -7 0 -10 -3 -7 -7z"/>
<path d="M2000 2451 c0 -5 7 -12 16 -15 14 -5 15 -4 4 9 -14 17 -20 19 -20 6z"/>
<path d="M2540 2449 c0 -5 5 -7 10 -4 6 3 10 8 10 11 0 2 -4 4 -10 4 -5 0 -10
-5 -10 -11z"/>
<path d="M873 2436 c5 -15 24 -18 24 -3 0 8 -6 14 -14 14 -7 0 -12 -5 -10 -11z"/>
<path d="M923 2443 c4 -3 10 -3 14 0 3 4 0 7 -7 7 -7 0 -10 -3 -7 -7z"/>
<path d="M1240 2431 c0 -11 39 -59 40 -49 0 14 -23 58 -32 58 -4 0 -8 -4 -8
-9z"/>
<path d="M1727 2410 c9 -16 21 -30 25 -30 12 0 10 8 -8 35 -23 36 -39 31 -17
-5z"/>
<path d="M2060 2420 c14 -4 39 -8 55 -8 30 0 30 0 0 8 -16 4 -41 8 -55 8 -25
0 -25 0 0 -8z"/>
<path d="M2524 2416 c-3 -7 -6 -25 -8 -40 -1 -14 -6 -29 -9 -33 -15 -15 -5
-23 26 -22 23 1 26 3 9 6 -23 5 -23 4 -7 76 6 28 -2 37 -11 13z"/>
<path d="M1026 2395 c4 -8 16 -15 27 -15 20 0 20 0 1 15 -25 19 -35 19 -28 0z"/>
<path d="M863 2393 c4 -3 10 -3 14 0 3 4 0 7 -7 7 -7 0 -10 -3 -7 -7z"/>
<path d="M1250 2372 c0 -12 19 -26 26 -19 2 2 -2 10 -11 17 -9 8 -15 8 -15 2z"/>
<path d="M1315 2350 c10 -11 20 -18 23 -15 7 6 -18 35 -31 35 -5 0 -2 -9 8
-20z"/>
<path d="M2371 2356 c10 -9 79 -14 79 -5 0 5 -19 9 -42 9 -23 0 -39 -2 -37 -4z"/>
<path d="M1790 2334 c19 -8 41 -23 48 -32 11 -14 12 -14 12 1 0 17 -19 28 -70
41 -15 3 -10 -1 10 -10z"/>
<path d="M750 2293 c-65 -12 -65 -12 -2 -9 57 4 83 11 71 19 -2 1 -33 -3 -69
-10z"/>
<path d="M1530 2290 c0 -5 5 -12 10 -15 6 -3 10 -29 10 -56 0 -28 4 -48 8 -45
5 3 7 18 4 34 -2 17 1 38 6 49 8 15 6 20 -14 30 -13 6 -24 7 -24 3z"/>
<path d="M1840 2245 c7 -8 17 -12 22 -9 6 4 5 10 -3 15 -22 14 -33 10 -19 -6z"/>
<path d="M1523 2213 c4 -3 10 -3 14 0 3 4 0 7 -7 7 -7 0 -10 -3 -7 -7z"/>
<path d="M2411 2141 c-21 -48 -34 -134 -19 -125 5 3 8 17 8 32 0 15 9 52 20
81 25 69 20 76 -9 12z"/>
<path d="M1516 2158 c3 -5 26 -8 51 -8 26 0 44 3 40 6 -9 9 -96 11 -91 2z"/>
<path d="M2013 2153 c4 -3 10 -3 14 0 3 4 0 7 -7 7 -7 0 -10 -3 -7 -7z"/>
<path d="M1880 2135 c0 -7 15 -17 33 -21 31 -7 31 -7 8 -16 -33 -12 -92 -8
-119 9 -38 23 -36 8 3 -21 30 -23 38 -26 51 -15 12 10 20 10 35 1 14 -9 25
-10 39 -2 26 14 27 50 1 50 -11 0 -23 5 -26 10 -8 13 46 13 82 -1 21 -8 24
-12 13 -19 -22 -14 -5 -23 47 -25 27 -2 37 -1 23 2 -14 3 -31 10 -38 16 -19
15 6 29 30 16 14 -7 20 -6 24 6 8 19 -4 34 -14 19 -4 -6 -23 -9 -42 -7 -102
12 -150 12 -150 -2z"/>
<path d="M1520 2086 c0 -23 3 -26 21 -21 24 8 79 -12 79 -29 0 -10 -84 -56
-102 -56 -5 0 -8 7 -8 16 0 9 -6 14 -12 11 -13 -4 -90 34 -119 59 -18 16 -39
18 -39 4 0 -5 17 -17 37 -25 20 -9 51 -27 69 -40 18 -14 36 -25 40 -25 4 0 16
-7 26 -17 11 -10 18 -12 18 -4 0 6 6 11 13 9 14 -2 86 23 88 32 10 53 4 65
-37 75 -23 6 -48 16 -58 24 -14 12 -16 10 -16 -13z m77 -93 c-4 -3 -10 -3 -14
0 -3 4 0 7 7 7 7 0 10 -3 7 -7z"/>
<path d="M2325 2099 c-11 -5 -96 -24 -190 -43 -365 -74 -534 -111 -527 -117 4
-3 37 -19 74 -34 68 -30 79 -55 22 -55 -13 0 -34 -5 -46 -11 -26 -11 -190 57
-168 71 6 4 0 11 -15 18 -34 16 -40 15 -25 -3 10 -12 10 -15 -1 -16 -8 0 -4
-4 9 -9 13 -6 22 -15 21 -22 -3 -29 3 -142 8 -130 2 6 11 12 20 12 12 0 12 2
-1 16 -26 26 -18 35 17 18 49 -23 252 28 253 64 1 24 -83 72 -124 72 -36 0 2
11 114 35 65 13 217 45 337 70 120 25 220 45 223 45 10 0 3 -17 -8 -18 -7 -1
-49 -9 -93 -18 -44 -9 -89 -17 -100 -18 -17 -2 -20 -11 -23 -59 -3 -55 -3 -55
50 -40 29 8 70 20 91 26 44 12 53 7 35 -22 -14 -23 -95 -50 -155 -52 -38 -1
-100 -16 -74 -18 31 -2 0 -12 -50 -16 -30 -3 -74 -9 -99 -15 -45 -9 -45 -9 10
-4 30 2 51 1 45 -3 -5 -5 -11 -24 -13 -43 -1 -19 -9 -41 -17 -50 -21 -24 -18
-36 3 -16 11 9 24 34 31 56 13 44 25 50 41 20 20 -37 -38 -128 -102 -161 -43
-22 -48 -16 -15 20 22 25 22 25 -12 1 -30 -21 -37 -22 -67 -11 -41 15 -84 -7
-134 -67 -26 -31 -35 -36 -67 -35 -38 2 -38 2 -5 -8 24 -7 32 -14 28 -25 -3
-9 -6 -19 -7 -22 0 -4 -4 2 -9 13 -7 16 -8 14 -7 -12 2 -29 3 -30 20 -16 19
18 24 4 5 -16 -11 -11 -10 -13 2 -9 10 3 15 17 15 40 0 64 91 156 143 143 15
-3 35 -7 45 -8 17 -1 17 -2 1 -14 -10 -7 -26 -13 -36 -13 -10 0 -18 -4 -18 -9
0 -4 12 -7 28 -5 24 3 23 2 -6 -8 -24 -8 -35 -19 -39 -39 -3 -15 -15 -32 -27
-38 -20 -10 -20 -11 4 -8 17 1 30 14 44 39 10 21 22 35 26 33 4 -3 13 2 20 10
7 8 9 15 4 15 -5 0 18 13 52 29 33 16 71 41 83 57 17 22 21 24 17 9 -2 -11
-19 -78 -36 -150 -17 -71 -40 -168 -52 -215 -11 -46 -36 -119 -54 -161 -19
-43 -34 -80 -34 -83 0 -13 -93 -201 -101 -204 -5 -2 -7 -7 -5 -11 3 -3 -3 -17
-13 -29 -16 -22 -20 -23 -67 -11 -27 6 -53 15 -59 19 -5 5 -19 10 -30 12 -15
2 -23 16 -31 53 -12 50 -12 50 -13 -3 -1 -34 3 -54 12 -56 6 -2 28 -9 47 -15
88 -32 132 -34 152 -9 23 30 106 200 157 322 9 23 14 27 21 16 5 -8 7 -17 5
-20 -2 -3 11 -6 28 -7 34 -3 89 41 166 134 43 53 43 53 118 53 55 0 96 -8 164
-30 118 -39 118 -39 83 -66 -25 -20 -26 -23 -6 -17 38 10 19 -35 -37 -84 -20
-18 -33 -32 -29 -33 4 0 23 14 43 31 34 31 36 31 55 14 23 -21 27 -47 6 -39
-8 3 -15 -3 -18 -14 -3 -12 -21 -25 -44 -32 -22 -7 -50 -21 -63 -31 -13 -11
-28 -19 -34 -19 -17 0 -190 -91 -213 -112 -21 -18 -22 -18 -105 12 -106 39
-127 58 -131 119 -3 46 -3 46 -12 8 -7 -32 -5 -44 11 -65 25 -34 151 -111 181
-112 25 0 29 -18 7 -34 -10 -7 -19 -38 -24 -81 -5 -39 -14 -95 -20 -125 -6
-30 -14 -77 -18 -104 -8 -47 -14 -55 -109 -140 -177 -159 -323 -286 -329 -286
-3 0 -31 23 -61 51 -30 29 -54 47 -54 42 0 -5 25 -32 56 -59 30 -27 57 -50 58
-51 1 -1 16 10 33 25 16 15 59 52 94 82 35 30 119 104 187 163 68 60 125 107
127 105 4 -5 -20 -141 -30 -161 -10 -23 22 -58 58 -62 20 -2 25 1 25 21 0 13
-4 27 -9 30 -5 3 -9 25 -9 50 0 38 2 43 14 32 74 -72 204 -186 227 -200 28
-17 40 -48 19 -48 -10 0 -123 103 -192 175 -21 22 -38 35 -38 29 0 -6 43 -53
96 -105 130 -128 141 -144 119 -170 -16 -17 -16 -19 -2 -19 21 0 27 11 33 67
7 58 25 157 59 318 14 66 32 156 40 200 8 44 24 123 36 175 11 52 22 109 24
127 2 18 11 70 20 115 9 46 18 99 21 118 2 19 9 55 14 80 21 102 32 188 27
201 -3 8 -6 2 -6 -12 -2 -45 -34 -173 -47 -186 -15 -15 -28 -17 -19 -3 15 25
15 60 0 60 -9 0 -57 14 -107 30 -50 17 -105 30 -123 30 -46 0 -48 21 -14 126
43 138 50 182 49 315 -1 127 3 149 52 276 23 60 21 74 -7 62z m-62 -99 c14
-13 -25 -42 -49 -37 -14 2 -21 0 -17 -6 4 -6 0 -8 -10 -4 -9 3 -17 2 -19 -2
-2 -5 -13 -11 -25 -15 -20 -6 -21 -4 -14 21 8 31 50 58 65 43 6 -6 24 -10 41
-9 25 0 27 2 10 8 -11 5 -23 7 -27 4 -5 -2 -8 1 -8 7 0 12 37 5 53 -10z m-2
-114 c-8 -10 -9 -26 -2 -58 14 -62 11 -163 -7 -230 -17 -66 -15 -65 -59 -35
-28 18 -33 27 -28 47 3 14 7 59 10 100 4 74 4 74 -5 20 -30 -167 -26 -158 -83
-174 -104 -28 -120 -29 -113 -3 4 12 11 44 16 71 6 27 14 54 20 60 5 7 12 41
15 76 5 47 3 61 -4 50 -9 -13 -11 -13 -11 1 0 20 60 44 148 59 35 6 73 15 85
20 30 12 31 12 18 -4z m-688 -46 c29 -16 50 -30 47 -31 -48 -13 -105 2 -113
31 -4 17 0 30 10 30 2 0 27 -13 56 -30z m134 -7 c-4 -3 -10 -3 -14 0 -3 4 0 7
7 7 7 0 10 -3 7 -7z m293 3 c0 -3 -5 -8 -12 -12 -7 -4 -8 -3 -4 4 7 12 16 16
16 8z m-323 -13 c-4 -3 -10 -3 -14 0 -3 4 0 7 7 7 7 0 10 -3 7 -7z m522 -280
c34 -20 40 -48 16 -79 -8 -10 -15 -32 -15 -47 0 -16 -5 -38 -11 -49 -9 -16 -8
-23 2 -29 15 -9 14 -10 -41 -14 -14 -1 -30 -3 -36 -3 -6 -1 -25 -22 -43 -47
-122 -170 -213 -180 -169 -18 11 43 29 113 38 156 9 43 23 84 31 92 11 10 149
50 191 54 3 1 20 -7 37 -16z m301 -377 c0 -8 -7 -16 -15 -20 -13 -4 -14 -2 -5
14 13 23 20 26 20 6z m-27 -148 c-9 -78 -8 -77 -71 -80 -57 -3 -57 -3 -89 -69
-19 -40 -46 -78 -69 -97 -21 -18 -32 -32 -24 -32 8 0 26 12 41 26 26 25 27 25
33 6 4 -11 17 -27 29 -34 26 -18 69 -30 62 -18 -3 5 2 15 10 23 8 9 15 20 15
26 0 6 5 11 11 11 7 0 8 -7 4 -17 -6 -16 -25 -107 -25 -122 0 -3 -4 1 -10 9
-6 9 -5 17 3 22 13 9 -8 28 -28 27 -5 0 -5 -3 2 -5 7 -3 9 -12 6 -20 -3 -8 1
-24 9 -37 9 -12 12 -30 9 -41 -9 -24 -294 187 -299 221 -6 42 77 95 338 216
47 21 47 21 43 -15z m-23 -97 c0 -6 -18 -9 -40 -9 -22 0 -40 4 -40 9 0 5 18 9
40 9 22 0 40 -4 40 -9z m-5 -31 c13 -22 -6 -30 -36 -15 -16 9 -29 18 -29 20 0
10 59 5 65 -5z m-79 -33 c8 -4 19 -18 25 -30 10 -19 7 -18 -19 6 -16 16 -32
24 -36 19 -3 -5 9 -19 25 -31 21 -16 28 -26 21 -33 -6 -6 -8 -17 -5 -26 4 -9
2 -13 -4 -9 -6 4 -13 2 -15 -4 -5 -15 -40 6 -57 33 -10 16 -9 23 3 36 8 10 20
31 26 47 9 21 14 25 18 15 3 -8 11 -19 18 -23z m-48 -245 c54 -40 62 -50 62
-79 0 -18 -3 -33 -6 -33 -19 0 -151 97 -221 163 -18 17 -33 26 -33 21 0 -6 14
-23 30 -39 30 -29 30 -29 -7 -68 -22 -22 -29 -35 -18 -29 11 6 29 20 39 31 26
29 33 27 96 -20 68 -50 113 -96 101 -103 -5 -4 -7 -15 -4 -26 3 -11 1 -20 -3
-20 -5 0 -10 -21 -12 -48 -1 -26 -6 -60 -11 -77 -5 -16 -12 -46 -15 -65 -4
-20 -15 -41 -27 -48 -26 -17 -35 -11 -152 100 -88 83 -88 83 -57 203 31 117
34 170 15 233 -6 19 -4 21 11 15 16 -6 16 -5 -2 20 -10 14 -22 27 -26 27 -5 0
-8 7 -8 15 0 9 35 -12 93 -56 50 -40 120 -92 155 -117z m-238 79 c-1 -31 -5
-74 -10 -96 -4 -22 -22 -105 -38 -184 -29 -136 -53 -207 -38 -111 4 25 11 81
15 125 4 44 11 89 16 99 6 15 5 17 -5 11 -7 -5 -11 -4 -8 1 12 22 21 51 23 74
12 127 18 160 31 149 9 -7 14 -32 14 -68z m-53 -108 c-4 -3 -7 0 -7 7 0 7 3
10 7 7 3 -4 3 -10 0 -14z m60 -10 c-4 -3 -7 0 -7 7 0 7 3 10 7 7 3 -4 3 -10 0
-14z m-17 -70 c-11 -17 -11 -17 -6 0 3 10 7 28 7 40 2 22 2 22 6 0 2 -12 -1
-30 -7 -40z m-66 -269 c7 -19 2 -18 -19 6 -16 17 -16 20 -3 15 9 -4 19 -13 22
-21z m299 -79 c-3 -9 -8 -14 -10 -11 -3 3 -2 9 2 15 9 16 15 13 8 -4z"/>
<path d="M2158 1973 c7 -3 16 -2 19 1 4 3 -2 6 -13 5 -11 0 -14 -3 -6 -6z"/>
<path d="M1533 1843 c4 -3 10 -3 14 0 3 4 0 7 -7 7 -7 0 -10 -3 -7 -7z"/>
<path d="M2180 1400 c0 -7 3 -10 7 -7 3 4 3 10 0 14 -4 3 -7 0 -7 -7z"/>
<path d="M2013 1393 c4 -3 10 -3 14 0 3 4 0 7 -7 7 -7 0 -10 -3 -7 -7z"/>
<path d="M1973 1383 c4 -3 10 -3 14 0 3 4 0 7 -7 7 -7 0 -10 -3 -7 -7z"/>
<path d="M2192 658 c35 -29 66 -57 70 -62 4 -6 10 -8 13 -4 7 7 -123 118 -137
118 -5 0 19 -23 54 -52z"/>
<path d="M2290 590 c0 -5 14 -17 31 -25 16 -9 34 -26 39 -38 9 -22 9 -22 9 -1
1 14 -13 30 -39 48 -22 14 -40 22 -40 16z"/>
<path d="M2180 470 c14 -12 41 -36 60 -54 59 -54 69 -51 12 3 -30 28 -63 56
-75 62 -19 9 -19 7 3 -11z"/>
<path d="M2320 340 c0 -7 3 -10 7 -7 3 4 3 10 0 14 -4 3 -7 0 -7 -7z"/>
<path d="M1744 2063 c39 -21 182 -33 204 -17 13 10 3 11 -50 7 -47 -4 -80 -1
-114 11 -60 20 -78 20 -40 -1z"/>
<path d="M1532 2044 c-8 -9 -1 -12 29 -12 21 -1 39 3 39 7 0 14 -56 18 -68 5z"/>
<path d="M2540 2019 c0 -5 5 -7 10 -4 6 3 10 8 10 11 0 2 -4 4 -10 4 -5 0 -10
-5 -10 -11z"/>
<path d="M1973 1993 c4 -3 10 -3 14 0 3 4 0 7 -7 7 -7 0 -10 -3 -7 -7z"/>
<path d="M2011 1991 c-11 -7 -9 -10 8 -16 21 -6 30 -35 10 -35 -6 0 -32 10
-59 21 -29 13 -57 18 -67 14 -10 -4 -36 -9 -58 -11 -53 -6 -94 -25 -88 -41 8
-19 20 -16 26 8 10 37 27 10 27 -42 0 -50 4 -56 30 -39 12 8 12 10 -5 11 -11
0 -14 3 -7 6 8 3 10 9 4 16 -5 7 -7 19 -3 28 5 15 10 15 50 -4 38 -18 41 -22
25 -29 -12 -5 -4 -6 21 -2 22 3 46 11 53 17 8 6 29 10 47 9 32 -2 61 18 37 26
-16 5 -15 59 1 65 6 3 1 6 -13 6 -14 0 -31 -3 -39 -8z m-73 -61 c38 -17 50
-40 21 -40 -16 0 -109 44 -109 53 0 13 44 7 88 -13z m29 14 c-3 -3 -12 -4 -19
-1 -8 3 -5 6 6 6 11 1 17 -2 13 -5z m74 -32 c-7 -2 -18 1 -23 6 -8 8 -4 9 13
5 13 -4 18 -8 10 -11z"/>
<path d="M2535 1950 c-3 -5 -1 -10 4 -10 6 0 11 5 11 10 0 6 -2 10 -4 10 -3 0
-8 -4 -11 -10z"/>
<path d="M1202 1920 c0 -14 2 -19 5 -12 2 6 2 18 0 25 -3 6 -5 1 -5 -13z"/>
<path d="M1201 1853 c-1 -24 4 -43 9 -43 12 0 12 37 0 65 -7 15 -9 10 -9 -22z"/>
<path d="M1415 1803 c10 -66 10 -66 13 -24 4 48 -4 91 -16 91 -4 0 -3 -30 3
-67z"/>
<path d="M1863 1863 c4 -3 10 -3 14 0 3 4 0 7 -7 7 -7 0 -10 -3 -7 -7z"/>
<path d="M1820 1810 c-8 -5 -10 -10 -5 -10 6 0 17 5 25 10 8 5 11 10 5 10 -5
0 -17 -5 -25 -10z"/>
<path d="M652 1765 c0 -16 2 -22 5 -12 2 9 2 23 0 30 -3 6 -5 -1 -5 -18z"/>
<path d="M1327 1761 c-4 -17 -3 -21 5 -13 5 5 8 16 6 23 -3 8 -7 3 -11 -10z"/>
<path d="M1690 1762 c-125 -32 -200 -55 -200 -63 0 -12 23 -11 35 0 6 5 21 12
35 16 17 5 10 -3 -20 -23 -25 -16 -73 -55 -107 -86 -33 -31 -68 -56 -76 -56
-14 0 -34 -76 -22 -88 3 -3 5 3 5 14 0 16 2 17 10 4 8 -12 10 -9 10 11 0 32
14 48 108 127 81 69 117 89 215 122 68 23 75 23 207 5 19 -3 6 4 -30 15 -72
22 -91 22 -170 2z"/>
<path d="M1739 1722 c-3 -20 -2 -29 4 -23 5 5 7 19 5 32 -3 20 -5 19 -9 -9z"/>
<path d="M421 1645 c-17 -20 -31 -41 -30 -48 0 -7 6 -3 12 7 7 10 24 32 39 47
15 16 23 29 19 29 -5 0 -23 -16 -40 -35z"/>
<path d="M1330 1660 c0 -7 3 -10 7 -7 3 4 3 10 0 14 -4 3 -7 0 -7 -7z"/>
<path d="M1551 1600 c-38 -33 -73 -64 -76 -70 -3 -5 -29 -10 -56 -10 -29 0
-48 -4 -44 -9 3 -6 18 -9 33 -8 35 3 52 -14 52 -55 1 -40 24 -86 34 -69 4 7 3
18 -3 25 -18 21 -21 94 -5 100 8 3 14 11 14 18 0 7 30 41 67 75 87 80 75 82
-16 3z"/>
<path d="M1340 1585 c0 -14 4 -25 9 -25 4 0 6 11 3 25 -2 14 -6 25 -8 25 -2 0
-4 -11 -4 -25z"/>
<path d="M1170 1590 c0 -7 3 -10 7 -7 3 4 3 10 0 14 -4 3 -7 0 -7 -7z"/>
<path d="M476 1574 c-11 -7 -18 -16 -15 -18 2 -2 13 2 23 10 11 7 18 16 15 18
-2 2 -13 -2 -23 -10z"/>
<path d="M355 1560 c10 -11 20 -20 22 -20 2 0 -1 9 -7 20 -6 11 -16 20 -22 20
-6 0 -3 -9 7 -20z"/>
<path d="M1172 1550 c0 -14 2 -19 5 -12 2 6 2 18 0 25 -3 6 -5 1 -5 -13z"/>
<path d="M2270 1505 c-4 -92 -3 -86 -22 -114 -22 -31 -15 -40 12 -16 19 18 20
17 20 -1 0 -11 -6 -26 -12 -33 -11 -11 -10 -13 2 -9 19 6 24 78 12 173 -9 70
-9 70 -12 0z"/>
<path d="M1200 1550 c0 -7 3 -10 7 -7 3 4 3 10 0 14 -4 3 -7 0 -7 -7z"/>
<path d="M575 1513 c4 -10 10 -29 12 -43 3 -14 11 -29 17 -35 7 -5 18 -25 25
-43 21 -51 24 -30 6 35 -26 89 -33 103 -51 103 -11 0 -14 -5 -9 -17z"/>
<path d="M1211 1495 c-1 -57 6 -63 99 -80 150 -28 157 -32 151 -96 -1 -8 2
-26 7 -40 7 -19 10 -13 11 34 1 43 -4 62 -17 75 -23 23 -35 52 -22 52 16 0 11
37 -5 44 -12 4 -15 -3 -15 -34 0 -22 -3 -40 -7 -40 -27 1 -175 29 -180 34 -4
3 -10 25 -14 49 -6 42 -6 42 -8 2z m226 -42 c-4 -3 -7 0 -7 7 0 7 3 10 7 7 3
-4 3 -10 0 -14z"/>
<path d="M1781 1488 c-10 -25 -22 -76 -25 -114 -5 -71 -2 -62 20 56 6 31 7 33
15 15 8 -18 9 -17 5 4 -3 13 0 35 5 48 17 46 0 37 -20 -9z"/>
<path d="M2327 1475 c3 -33 9 -80 13 -105 7 -45 7 -45 8 -5 1 22 -5 69 -13
105 -14 65 -14 65 -8 5z"/>
<path d="M1182 1495 c0 -16 2 -22 5 -12 2 9 2 23 0 30 -3 6 -5 -1 -5 -18z"/>
<path d="M1665 1490 c-3 -5 -2 -10 4 -10 5 0 13 5 16 10 3 6 2 10 -4 10 -5 0
-13 -4 -16 -10z"/>
<path d="M1572 1450 c0 -14 2 -19 5 -12 2 6 2 18 0 25 -3 6 -5 1 -5 -13z"/>
<path d="M1370 1440 c0 -7 3 -10 7 -7 3 4 3 10 0 14 -4 3 -7 0 -7 -7z"/>
<path d="M868 1303 c23 -2 59 -2 80 0 20 2 1 4 -43 4 -44 0 -61 -2 -37 -4z"/>
<path d="M1028 1293 c38 -5 37 -2 13 -61 -11 -26 -22 -55 -25 -64 -5 -15 -19
-18 -98 -19 -103 -2 -93 -7 24 -11 79 -3 89 2 103 52 20 73 30 90 52 90 12 0
23 5 23 10 0 6 -26 9 -62 8 -35 0 -48 -3 -30 -5z"/>
<path d="M1335 1290 c-3 -5 -2 -10 4 -10 5 0 13 5 16 10 3 6 2 10 -4 10 -5 0
-13 -4 -16 -10z"/>
<path d="M1170 1270 c0 -5 5 -10 10 -10 6 0 10 5 10 10 0 6 -4 10 -10 10 -5 0
-10 -4 -10 -10z"/>
<path d="M1255 1264 c-60 -13 -60 -13 -7 -10 29 2 58 8 65 15 6 6 9 10 7 10
-3 -1 -32 -8 -65 -15z"/>
<path d="M1742 1255 c0 -16 2 -22 5 -12 2 9 2 23 0 30 -3 6 -5 -1 -5 -18z"/>
<path d="M261 1254 c0 -11 3 -14 6 -6 3 7 2 16 -1 19 -3 4 -6 -2 -5 -13z"/>
<path d="M130 1240 c-4 -8 -6 -27 -3 -42 6 -32 -11 -43 -80 -53 -27 -4 -47
-12 -47 -20 0 -10 8 -10 37 1 56 20 58 18 71 -38 27 -115 30 -104 -30 -119
-29 -7 -57 -13 -62 -14 -5 0 -11 -5 -13 -11 -3 -8 8 -9 36 -4 22 4 38 4 36 0
-3 -4 4 -15 14 -25 11 -9 32 -47 47 -83 16 -37 31 -69 35 -72 3 -3 8 -14 11
-25 3 -11 9 -28 13 -37 6 -15 3 -17 -22 -12 -20 4 -35 1 -46 -10 -20 -20 -37
-21 -37 -1 0 9 -9 15 -23 15 -32 0 -38 -8 -25 -36 15 -32 30 -31 22 2 -5 19
-4 25 5 20 6 -4 11 -14 11 -22 0 -17 -5 -17 75 1 36 9 70 13 75 10 12 -7 14
-66 3 -63 -7 3 -25 -3 -88 -28 -11 -4 -47 -17 -80 -28 -60 -21 -60 -21 -62
-95 -1 -40 1 -80 6 -89 5 -9 9 16 10 64 1 43 5 82 9 86 19 19 162 56 162 42 0
-8 -7 -17 -15 -20 -11 -4 -15 -21 -15 -56 0 -31 -4 -47 -10 -43 -6 4 -10 3 -9
-2 5 -28 -7 -42 -51 -63 -56 -26 -60 -38 -6 -20 60 19 83 45 91 97 7 52 43
135 61 140 7 2 20 -33 32 -89 29 -128 37 -193 24 -184 -6 3 -13 2 -16 -3 -6
-9 31 -27 40 -19 5 6 -20 147 -40 225 -9 33 -16 71 -16 84 0 24 -11 61 -77
252 -18 54 -33 115 -33 136 0 20 -5 64 -11 96 -8 43 -8 60 0 63 6 2 11 22 11
44 0 37 2 40 24 36 14 -3 27 1 33 11 9 14 4 16 -29 16 -25 0 -43 -6 -48 -15z
m-1 -287 c-2 -10 14 -54 34 -97 37 -80 50 -127 19 -70 -9 17 -30 56 -47 85
-16 30 -28 57 -27 62 1 4 -2 7 -8 7 -17 0 -11 18 8 23 9 3 18 5 20 6 2 0 2 -7
1 -16z m28 -280 c-4 -3 -10 -3 -14 0 -3 4 0 7 7 7 7 0 10 -3 7 -7z"/>
<path d="M1095 1234 c62 -9 74 -15 83 -41 10 -28 10 -28 11 -3 1 38 -9 45 -69
47 -30 0 -41 -1 -25 -3z"/>
<path d="M2066 1194 c-21 -25 -35 -48 -32 -51 4 -4 19 8 35 27 28 34 28 34 77
-7 31 -27 67 -46 99 -54 58 -14 59 -14 51 -28 -4 -6 -18 -6 -36 -1 -18 5 -30
5 -30 -1 0 -5 9 -9 19 -9 11 0 22 -4 26 -10 6 -10 14 -3 90 80 50 55 50 55 4
18 -36 -29 -49 -34 -58 -25 -10 9 -11 8 -6 -5 7 -18 -4 -17 -86 8 -41 13 -101
62 -110 91 -2 6 -21 -9 -43 -33z"/>
<path d="M285 1220 c-3 -5 -1 -10 4 -10 6 0 11 5 11 10 0 6 -2 10 -4 10 -3 0
-8 -4 -11 -10z"/>
<path d="M1322 1205 c6 -14 13 -23 16 -21 7 7 -9 46 -18 46 -5 0 -4 -11 2 -25z"/>
<path d="M1501 1214 c0 -11 3 -14 6 -6 3 7 2 16 -1 19 -3 4 -6 -2 -5 -13z"/>
<path d="M1732 1160 c0 -19 2 -27 5 -17 2 9 2 25 0 35 -3 9 -5 1 -5 -18z"/>
<path d="M313 1153 c9 -17 22 -35 27 -38 6 -4 8 -15 5 -26 -4 -13 -2 -19 8
-19 8 0 26 -17 40 -37 37 -54 77 -100 77 -89 0 5 -17 32 -38 60 -21 28 -52 74
-70 103 -41 64 -74 96 -49 46z"/>
<path d="M1110 1170 c39 -12 59 -12 40 0 -8 5 -26 9 -40 9 -25 -1 -25 -1 0 -9z"/>
<path d="M206 1145 c8 -37 14 -45 14 -19 0 10 -5 26 -10 34 -8 11 -9 7 -4 -15z"/>
<path d="M1260 1162 c-47 -2 -80 -8 -91 -18 -8 -8 -18 -13 -20 -12 -2 2 2 -3
11 -10 12 -10 16 -9 22 8 12 34 156 26 150 -7 -2 -13 1 -23 7 -23 6 0 11 9 11
19 0 12 8 21 21 23 49 7 -38 23 -111 20z"/>
<path d="M770 1130 c8 -5 26 -9 40 -9 23 0 23 1 5 9 -30 13 -65 13 -45 0z"/>
<path d="M1408 1133 c7 -3 16 -2 19 1 4 3 -2 6 -13 5 -11 0 -14 -3 -6 -6z"/>
<path d="M1993 1123 c9 -2 25 -2 35 0 9 3 1 5 -18 5 -19 0 -27 -2 -17 -5z"/>
<path d="M1025 1109 c4 -5 22 -9 41 -9 29 0 34 -3 34 -23 0 -32 18 -47 55 -46
30 1 30 1 0 8 -24 5 -31 12 -33 34 -4 30 -7 33 -65 41 -22 3 -35 1 -32 -5z"/>
<path d="M1720 1110 c0 -7 3 -10 7 -7 3 4 3 10 0 14 -4 3 -7 0 -7 -7z"/>
<path d="M2090 1107 c37 -15 139 -33 129 -23 -5 6 -68 20 -134 31 -28 5 -28 5
5 -8z"/>
<path d="M1870 1087 c0 -14 5 -29 10 -32 7 -4 8 3 4 22 -9 38 -14 42 -14 10z"/>
<path d="M1180 1091 c8 -6 24 -11 35 -11 17 0 18 -2 5 -11 -12 -9 -12 -10 -1
-7 23 6 25 28 3 28 -11 0 -29 3 -39 6 -15 5 -15 4 -3 -5z"/>
<path d="M225 1045 c7 -64 33 -178 34 -145 0 14 -9 63 -19 110 -14 61 -18 71
-15 35z"/>
<path d="M1313 1083 c4 -3 10 -3 14 0 3 4 0 7 -7 7 -7 0 -10 -3 -7 -7z"/>
<path d="M1346 1082 c-2 -4 11 -6 30 -4 19 2 34 6 34 8 0 8 -59 4 -64 -4z"/>
<path d="M1170 1070 c0 -6 7 -10 15 -10 8 0 15 2 15 4 0 2 -7 6 -15 10 -8 3
-15 1 -15 -4z"/>
<path d="M91 1038 c0 -10 -20 -25 -46 -37 -58 -26 -58 -34 1 -16 56 17 57 17
51 47 -2 13 -5 16 -6 6z"/>
<path d="M523 1043 c4 -3 10 -3 14 0 3 4 0 7 -7 7 -7 0 -10 -3 -7 -7z"/>
<path d="M2320 1030 c-12 -8 -11 -10 7 -10 12 0 25 5 28 10 8 13 -15 13 -35 0z"/>
<path d="M670 1020 c0 -7 3 -10 7 -7 3 4 3 10 0 14 -4 3 -7 0 -7 -7z"/>
<path d="M1233 1023 c4 -3 10 -3 14 0 3 4 0 7 -7 7 -7 0 -10 -3 -7 -7z"/>
<path d="M1343 1023 c4 -3 10 -3 14 0 3 4 0 7 -7 7 -7 0 -10 -3 -7 -7z"/>
<path d="M1378 1023 c7 -3 16 -2 19 1 4 3 -2 6 -13 5 -11 0 -14 -3 -6 -6z"/>
<path d="M678 994 c-7 -6 24 -64 34 -64 3 0 -1 15 -9 33 -20 40 -19 38 -25 31z"/>
<path d="M1712 970 c0 -19 2 -27 5 -17 2 9 2 25 0 35 -3 9 -5 1 -5 -18z"/>
<path d="M638 941 c3 -34 32 -69 32 -39 0 6 9 3 20 -7 22 -20 28 -51 8 -39 -8
4 -10 3 -5 -2 5 -5 14 -9 19 -9 6 0 17 -16 25 -35 13 -35 13 -35 7 4 -5 37 -4
39 13 26 10 -8 24 -21 31 -29 7 -9 31 -21 55 -28 37 -11 40 -10 23 3 -11 7
-28 14 -37 14 -10 0 -21 5 -24 10 -8 14 33 12 133 -4 93 -15 122 -34 123 -80
0 -26 2 -28 9 -11 13 30 12 34 -17 62 -18 17 -22 24 -10 20 9 -4 17 -3 17 1 0
8 -179 32 -235 32 -39 0 -78 27 -72 49 3 11 -2 17 -14 18 -12 1 -16 -3 -12
-14 14 -36 -19 1 -42 48 -31 61 -52 65 -47 10z m27 -11 c3 -5 4 -10 1 -10 -3
0 -8 5 -11 10 -3 6 -4 10 -1 10 3 0 8 -4 11 -10z"/>
<path d="M1784 911 c4 -6 16 -16 28 -22 15 -8 18 -8 14 0 -4 6 -16 16 -28 22
-15 8 -18 8 -14 0z"/>
<path d="M1587 892 c-2 -9 -8 -25 -12 -34 -4 -11 -3 -18 5 -18 6 0 9 4 5 9 -3
5 -1 12 4 15 5 4 12 -4 14 -16 3 -15 5 -10 6 14 1 39 -13 60 -22 30z"/>
<path d="M260 864 c0 -22 25 -44 40 -34 13 8 13 10 -2 10 -9 0 -22 8 -27 18
-6 9 -11 12 -11 6z"/>
<path d="M1010 860 c0 -11 67 -33 83 -27 6 3 3 6 -8 6 -11 1 -32 8 -47 15 -16
8 -28 11 -28 6z"/>
<path d="M1890 820 c25 -21 49 -39 53 -40 5 0 -13 18 -38 40 -25 22 -49 40
-53 40 -4 0 13 -18 38 -40z"/>
<path d="M1113 833 c4 -3 10 -3 14 0 3 4 0 7 -7 7 -7 0 -10 -3 -7 -7z"/>
<path d="M570 819 c0 -5 5 -7 10 -4 6 3 10 8 10 11 0 2 -4 4 -10 4 -5 0 -10
-5 -10 -11z"/>
<path d="M1374 818 c-4 -7 -3 -8 4 -4 12 7 16 16 8 16 -3 0 -8 -5 -12 -12z"/>
<path d="M705 797 c5 -19 1 -28 -20 -41 -23 -15 -26 -23 -23 -57 2 -21 -1 -41
-7 -43 -5 -2 11 -7 38 -11 73 -11 88 9 67 87 -8 26 -15 35 -25 31 -11 -4 -15
2 -15 20 0 14 -5 29 -10 32 -7 4 -9 -2 -5 -18z m32 -86 c23 -22 11 -46 -23
-49 -41 -4 -55 25 -25 50 12 9 21 22 22 30 0 9 2 9 6 -2 4 -8 12 -21 20 -29z"/>
<path d="M698 673 c6 -2 18 -2 25 0 6 3 1 5 -13 5 -14 0 -19 -2 -12 -5z"/>
<path d="M892 729 c2 -41 6 -76 9 -79 3 -3 9 -22 12 -44 6 -38 6 -38 -41 -31
-68 9 -80 14 -85 33 -4 13 -5 11 -6 -5 -2 -33 0 -33 144 -47 17 -2 94 -11 173
-20 149 -19 173 -15 171 23 0 11 -3 9 -9 -6 -11 -27 -10 -27 -101 -12 -69 12
-69 12 -69 46 0 19 5 43 10 54 6 11 7 19 1 19 -12 0 -21 -25 -21 -58 0 -41
-12 -53 -46 -46 -44 9 -105 64 -71 64 9 0 18 -8 20 -17 4 -17 5 -17 6 0 0 10
-9 21 -21 26 -32 12 -36 -14 -7 -45 24 -26 15 -33 -15 -11 -13 10 -21 40 -31
116 -16 124 -26 142 -23 40z"/>
<path d="M1133 793 c9 -2 25 -2 35 0 9 3 1 5 -18 5 -19 0 -27 -2 -17 -5z"/>
<path d="M1198 793 c7 -3 16 -2 19 1 4 3 -2 6 -13 5 -11 0 -14 -3 -6 -6z"/>
<path d="M1277 755 c-14 -10 -15 -14 -3 -18 8 -3 17 1 20 10 9 22 4 24 -17 8z"/>
<path d="M1180 750 c0 -7 3 -10 7 -7 3 4 3 10 0 14 -4 3 -7 0 -7 -7z"/>
<path d="M1817 700 c34 -32 73 -64 85 -70 14 -7 10 0 -11 17 -19 15 -54 47
-78 71 -24 23 -47 42 -51 42 -4 -1 21 -27 55 -60z"/>
<path d="M1310 730 c0 -7 3 -10 7 -7 3 4 3 10 0 14 -4 3 -7 0 -7 -7z"/>
<path d="M1284 712 c6 -10 2 -31 -21 -117 -5 -20 -5 -20 10 0 21 29 32 110 16
120 -8 5 -10 4 -5 -3z"/>
<path d="M1545 710 c3 -5 8 -10 11 -10 3 0 2 5 -1 10 -3 6 -8 10 -11 10 -3 0
-2 -4 1 -10z"/>
<path d="M5 664 c2 -16 4 -32 4 -36 1 -5 8 -8 16 -8 12 0 13 5 3 28 -18 41
-27 48 -23 16z"/>
<path d="M640 680 c0 -7 3 -10 7 -7 3 4 3 10 0 14 -4 3 -7 0 -7 -7z"/>
<path d="M1070 680 c0 -5 5 -10 11 -10 5 0 7 5 4 10 -3 6 -8 10 -11 10 -2 0
-4 -4 -4 -10z"/>
<path d="M1594 663 c16 -18 32 -31 34 -28 3 3 3 6 1 8 -2 1 -17 13 -34 27 -30
25 -30 25 -1 -7z"/>
<path d="M290 660 c0 -7 3 -10 7 -7 3 4 3 10 0 14 -4 3 -7 0 -7 -7z"/>
<path d="M1340 660 c0 -7 3 -10 7 -7 3 4 3 10 0 14 -4 3 -7 0 -7 -7z"/>
<path d="M1440 651 c0 -5 5 -13 10 -16 6 -3 10 -2 10 4 0 5 -4 13 -10 16 -5 3
-10 2 -10 -4z"/>
<path d="M1935 594 c-47 -43 -390 -320 -465 -376 -19 -15 -48 -28 -65 -31 -30
-4 -30 -4 3 -6 36 -1 45 5 336 238 183 147 267 220 251 220 -5 0 -32 -20 -60
-45z"/>
<path d="M300 610 c0 -7 3 -10 7 -7 3 4 3 10 0 14 -4 3 -7 0 -7 -7z"/>
<path d="M430 616 c0 -2 7 -7 16 -10 8 -3 12 -2 9 4 -6 10 -25 14 -25 6z"/>
<path d="M83 593 c4 -3 10 -3 14 0 3 4 0 7 -7 7 -7 0 -10 -3 -7 -7z"/>
<path d="M310 540 c0 -7 3 -10 7 -7 3 4 3 10 0 14 -4 3 -7 0 -7 -7z"/>
<path d="M1512 530 c7 -11 17 -20 22 -20 5 0 1 9 -9 20 -10 11 -20 20 -22 20
-2 0 2 -9 9 -20z"/>
<path d="M925 530 c3 -5 8 -10 11 -10 3 0 2 5 -1 10 -3 6 -8 10 -11 10 -3 0
-2 -4 1 -10z"/>
<path d="M880 479 c46 -79 77 -115 39 -44 -18 33 -41 69 -51 80 -11 12 -6 -3
12 -36z"/>
<path d="M1121 500 c13 -28 139 -160 153 -160 4 0 -21 30 -57 68 -36 37 -75
78 -87 92 -21 25 -21 25 -9 0z"/>
<path d="M1610 517 c0 -2 15 -16 33 -33 32 -29 32 -29 3 4 -28 30 -36 37 -36
29z"/>
<path d="M321 500 c-1 -8 6 -53 14 -99 8 -46 12 -89 8 -95 -4 -8 -3 -8 5 -1 9
8 8 34 -4 100 -16 95 -22 120 -23 95z"/>
<path d="M224 480 c12 -65 43 -156 51 -149 4 5 -17 76 -42 139 -9 22 -12 26
-9 10z"/>
<path d="M965 470 c9 -16 18 -30 21 -30 2 0 -2 14 -11 30 -9 17 -18 30 -21 30
-2 0 2 -13 11 -30z"/>
<path d="M782 379 c33 -57 67 -111 75 -119 8 -8 -14 33 -47 92 -33 58 -67 111
-75 118 -8 7 13 -34 47 -91z"/>
<path d="M1565 470 c3 -5 8 -10 11 -10 3 0 2 5 -1 10 -3 6 -8 10 -11 10 -3 0
-2 -4 1 -10z"/>
<path d="M140 460 c0 -7 3 -10 7 -7 3 4 3 10 0 14 -4 3 -7 0 -7 -7z"/>
<path d="M1303 429 c32 -53 128 -169 140 -169 5 0 -11 22 -35 48 -25 27 -62
74 -83 105 -44 66 -58 76 -22 16z"/>
<path d="M1397 445 c12 -16 50 -57 85 -90 72 -69 42 -30 -46 60 -33 33 -50 47
-39 30z"/>
<path d="M673 453 c4 -3 10 -3 14 0 3 4 0 7 -7 7 -7 0 -10 -3 -7 -7z"/>
<path d="M1590 440 c0 -7 3 -10 7 -7 3 4 3 10 0 14 -4 3 -7 0 -7 -7z"/>
<path d="M1625 410 c10 -11 20 -20 23 -20 3 0 -3 9 -13 20 -10 11 -20 20 -23
20 -3 0 3 -9 13 -20z"/>
<path d="M399 374 c11 -27 24 -62 30 -78 7 -16 14 -27 16 -24 6 5 -43 129 -56
142 -4 5 0 -13 10 -40z"/>
<path d="M707 300 c26 -55 49 -98 51 -95 5 5 -85 195 -92 195 -3 0 16 -45 41
-100z"/>
<path d="M1098 384 c6 -11 18 -28 27 -39 15 -19 15 -18 1 12 -9 17 -21 35 -27
39 -8 4 -8 1 -1 -12z"/>
<path d="M1035 340 c3 -5 8 -10 11 -10 3 0 2 5 -1 10 -3 6 -8 10 -11 10 -3 0
-2 -4 1 -10z"/>
<path d="M10 329 c0 -5 5 -7 10 -4 6 3 10 8 10 11 0 2 -4 4 -10 4 -5 0 -10 -5
-10 -11z"/>
<path d="M551 335 c1 -17 38 -91 38 -75 0 8 -8 31 -19 50 -11 19 -19 31 -19
25z"/>
<path d="M1140 311 c0 -6 4 -13 10 -16 6 -3 7 1 4 9 -7 18 -14 21 -14 7z"/>
<path d="M1305 225 c28 -25 54 -45 59 -45 5 0 -12 16 -37 36 -26 20 -47 41
-47 45 0 5 -6 9 -12 9 -7 -1 10 -21 37 -45z"/>
<path d="M450 254 c0 -13 18 -39 24 -34 2 3 -2 14 -10 24 -8 11 -14 16 -14 10z"/>
<path d="M1175 240 c3 -5 8 -10 11 -10 3 0 2 5 -1 10 -3 6 -8 10 -11 10 -3 0
-2 -4 1 -10z"/>
<path d="M591 227 c-1 -20 55 -156 70 -172 12 -11 4 11 -31 90 -12 28 -26 61
-30 75 -6 17 -9 20 -9 7z"/>
<path d="M2220 66 c0 -10 50 -43 55 -36 3 4 -8 15 -25 23 -16 9 -30 14 -30 13z"/>
<path d="M1730 45 c24 -32 40 -47 40 -37 0 4 -12 19 -27 33 -20 18 -23 19 -13
4z"/>
<path d="M2060 36 c0 -2 7 -7 16 -10 8 -3 12 -2 9 4 -6 10 -25 14 -25 6z"/>
<path d="M680 10 c0 -7 3 -10 7 -7 3 4 3 10 0 14 -4 3 -7 0 -7 -7z"/>
</g>
</svg>
