<?xml version="1.0" standalone="no"?>
<!DOCTYPE svg PUBLIC "-//W3C//DTD SVG 20010904//EN"
 "http://www.w3.org/TR/2001/REC-SVG-20010904/DTD/svg10.dtd">
<svg version="1.0" xmlns="http://www.w3.org/2000/svg"
 width="352.000000pt" height="256.000000pt" viewBox="0 0 352.000000 256.000000"
 preserveAspectRatio="xMidYMid meet">
<metadata>
Created by potrace 1.16, written by Peter Selinger 2001-2019
</metadata>
<g transform="translate(0.000000,256.000000) scale(0.100000,-0.100000)"
fill="#000000" stroke="none">
<path d="M133 2513 c4 -3 10 -3 14 0 3 4 0 7 -7 7 -7 0 -10 -3 -7 -7z"/>
<path d="M710 2509 c-14 -6 -42 -22 -63 -36 -38 -27 -38 -27 -236 6 -109 19
-205 31 -212 29 -8 -3 9 -9 36 -13 122 -18 345 -56 358 -60 7 -3 36 9 64 27
28 18 59 38 69 45 23 14 17 15 -16 2z"/>
<path d="M28 2498 c4 -4 66 -17 137 -28 340 -52 459 -67 395 -50 -19 5 -80 16
-135 25 -55 8 -169 25 -253 38 -84 13 -149 20 -144 15z"/>
<path d="M605 2405 c6 -2 88 -16 183 -30 234 -35 215 -24 213 -126 -1 -46 -7
-102 -12 -125 -8 -31 -6 -64 11 -154 16 -81 21 -133 16 -179 -13 -152 -18
-406 -8 -396 22 20 26 476 6 582 -15 80 -16 104 -6 164 16 92 16 194 0 206 -7
5 -94 22 -193 36 -161 25 -238 32 -210 22z"/>
<path d="M35 2280 c22 -4 72 -11 110 -14 136 -13 172 -17 370 -41 110 -13 228
-27 263 -31 34 -4 66 -12 69 -18 4 -6 10 -65 14 -131 6 -120 6 -120 7 1 1 83
-2 125 -11 136 -14 19 -719 109 -827 107 -35 -1 -35 -1 5 -9z"/>
<path d="M183 2195 c10 -7 27 -11 37 -8 11 3 20 0 20 -6 0 -6 11 -11 25 -11
39 0 29 18 -12 25 -92 14 -89 14 -70 0z"/>
<path d="M2254 2179 c-103 -53 -126 -92 -123 -198 1 -28 -1 -54 -4 -57 -3 -4
0 -21 8 -40 12 -29 12 -34 -2 -46 -22 -18 -73 -127 -73 -155 0 -13 -5 -23 -10
-23 -6 0 -9 -22 -8 -52 3 -61 -8 -74 -30 -38 -16 25 -16 25 7 5 21 -18 20 -14
-8 34 -18 29 -38 60 -46 68 -8 8 -18 25 -21 38 -4 18 -15 25 -44 30 -38 6 -38
7 -35 45 3 23 -1 45 -8 52 -13 13 -28 43 -33 65 -1 7 2 30 8 51 6 26 6 52 -1
79 -10 38 -12 39 -56 42 -108 5 -249 -116 -280 -241 -4 -16 -11 -28 -17 -28
-5 0 -6 -9 -3 -20 5 -16 2 -20 -15 -20 -37 0 -60 -19 -60 -49 0 -35 18 -91 36
-112 19 -21 18 -36 -4 -67 -54 -78 -100 -226 -133 -422 -27 -161 -25 -196 10
-252 28 -43 84 -78 96 -59 2 5 -4 11 -15 14 -18 5 -20 15 -22 94 -2 88 -2 88
-5 6 -4 -83 -13 -101 -33 -64 -7 14 -7 28 1 48 8 23 29 247 28 303 -1 56 -18
-41 -19 -110 0 -47 -7 -114 -14 -150 -13 -65 -13 -65 -25 -35 -16 37 6 199 50
378 30 122 47 167 96 249 26 44 26 48 10 65 -56 63 -50 165 9 143 14 -6 27
-10 28 -10 2 0 6 22 9 49 12 100 89 210 180 255 102 52 154 23 132 -71 -8 -34
-19 -42 -28 -20 -8 21 -107 6 -143 -22 -66 -51 -86 -98 -80 -181 17 -200 18
-240 8 -240 -21 0 -130 -111 -145 -148 -24 -61 -25 -122 -2 -145 8 -9 24 -54
36 -101 21 -81 21 -86 5 -111 -18 -27 -18 -27 30 -71 26 -25 59 -47 73 -50 64
-14 67 -17 35 -52 -26 -28 -37 -32 -101 -38 -72 -6 -72 -6 -76 32 -4 39 -4 39
-5 -4 -2 -44 -2 -44 78 -40 54 3 85 9 97 21 10 8 30 14 45 13 20 -2 25 0 21
13 -5 12 -3 13 6 5 11 -10 1 -277 -11 -289 -6 -6 -117 23 -185 48 -38 14 -95
33 -128 42 -117 33 -229 71 -232 81 -2 5 10 18 27 29 37 25 42 37 33 88 -7 42
-7 42 -14 12 -5 -24 -7 -19 -8 25 -2 65 -24 99 -62 95 -13 -1 -30 -3 -36 -4
-7 0 -13 -5 -13 -9 0 -5 13 -7 29 -4 47 7 73 -27 70 -89 -2 -32 2 -53 9 -58
18 -11 -23 -61 -50 -61 -16 0 -19 -5 -14 -23 3 -12 6 -26 6 -30 0 -5 5 -5 11
-2 5 4 47 -4 92 -18 45 -14 109 -33 142 -42 33 -9 94 -30 136 -46 41 -16 82
-29 91 -29 8 0 34 -6 56 -14 50 -18 58 -10 60 59 5 118 26 301 36 307 6 4 20
8 32 8 11 0 41 14 67 30 27 17 76 42 110 56 34 14 69 33 77 41 13 14 13 14 -5
5 -11 -6 -51 -25 -90 -43 -38 -17 -82 -40 -96 -50 -26 -18 -122 -45 -147 -40
-6 1 -29 -3 -49 -8 -40 -11 -76 4 -122 52 -22 24 -22 26 -6 51 11 16 15 34 11
49 -4 12 -14 46 -22 76 -8 30 -24 69 -34 87 -38 60 -20 134 52 213 23 25 53
52 67 60 15 8 33 22 41 32 51 60 52 62 47 98 -2 20 -14 58 -26 84 -21 47 -21
47 -1 84 18 33 21 35 26 18 3 -12 14 -26 24 -33 18 -11 18 -10 5 21 -13 30
-11 37 17 96 30 64 47 68 48 14 0 -13 4 -23 9 -23 5 0 8 6 7 13 0 6 2 12 5 12
3 0 14 7 23 14 16 13 17 13 15 0 -3 -18 10 -49 31 -74 22 -25 16 -97 -6 -88
-18 7 -44 -14 -44 -36 0 -14 2 -14 10 -1 8 12 16 8 49 -24 23 -22 44 -37 47
-33 4 4 2 7 -5 7 -7 0 -11 7 -8 14 4 9 1 13 -6 10 -7 -2 -23 9 -36 27 -19 26
-20 29 -4 21 20 -11 24 -12 53 -12 28 0 62 -37 55 -59 -8 -26 -9 -103 -1 -128
5 -16 1 -22 -15 -26 -17 -5 -23 1 -35 31 -29 70 -67 142 -77 142 -5 0 -2 -12
8 -26 14 -22 15 -28 4 -35 -26 -16 -46 -9 -89 31 -24 22 -45 38 -47 37 -2 -2
19 -25 47 -51 27 -26 50 -54 50 -61 0 -22 -58 -57 -124 -76 -69 -20 -62 -24
13 -8 56 12 135 63 128 83 -6 15 32 41 43 29 4 -4 15 -28 24 -53 15 -41 64
-117 51 -79 -7 18 18 34 57 38 7 0 2 8 -10 17 -19 13 -22 23 -20 70 1 30 4 54
5 54 1 0 16 -26 32 -58 53 -105 84 -100 86 12 3 98 70 232 106 210 12 -7 11
-41 -1 -49 -5 -3 -10 -14 -10 -23 1 -12 5 -10 14 8 14 25 14 25 27 -2 13 -29
-6 -73 -36 -84 -11 -5 -11 -13 2 -51 15 -45 11 -94 -12 -155 -4 -11 -3 -18 4
-18 6 0 11 8 12 18 0 11 2 12 6 4 6 -15 -18 -102 -28 -102 -4 0 -43 32 -88 71
-94 81 -90 81 -153 -15 -43 -67 -45 -74 -20 -83 9 -3 40 -23 68 -44 28 -21 67
-40 86 -44 55 -10 57 -14 45 -72 -10 -49 -13 -53 -41 -55 -61 -3 -91 3 -108
22 -22 27 -31 25 -18 -2 7 -14 -3 -7 -25 16 -46 52 -50 106 -7 106 15 0 36 -7
46 -15 11 -8 24 -15 30 -15 5 0 -4 10 -22 23 -59 44 -118 12 -97 -53 20 -64
91 -113 178 -125 48 -6 48 -6 41 -41 -3 -19 -7 -107 -8 -196 -1 -148 1 -167
21 -210 16 -35 26 -46 40 -43 10 2 38 8 62 13 44 11 44 11 39 -66 -3 -42 -3
-101 1 -130 6 -54 6 -54 76 -79 39 -14 88 -30 110 -36 46 -11 100 -28 165 -52
25 -9 72 -21 105 -26 65 -11 212 -56 233 -72 8 -6 12 -6 12 1 0 6 -4 13 -9 16
-8 6 3 104 14 115 4 3 33 6 66 6 78 0 92 -16 87 -98 -2 -48 -1 -56 12 -51 8 3
34 9 58 11 41 6 42 6 42 44 0 62 58 106 61 46 1 -22 1 -22 7 1 10 35 26 31 33
-8 6 -31 13 -20 12 18 -1 15 3 15 28 2 10 -6 19 -20 19 -30 0 -11 5 -20 10
-20 31 0 -2 55 -41 69 -81 28 -129 7 -138 -60 -6 -44 -6 -44 -46 -44 -40 0
-40 0 -45 52 -7 67 -17 76 -90 81 -78 6 -100 -11 -100 -76 0 -51 7 -50 -135
-14 -44 11 -103 26 -131 32 -28 6 -78 22 -110 35 -33 14 -68 25 -79 25 -11 0
-60 15 -110 33 -109 41 -103 23 -104 296 -1 201 -18 353 -43 377 -7 7 -24 14
-38 16 -24 3 -24 3 -28 -168 -2 -97 0 -186 6 -207 11 -40 10 -42 -18 -27 -31
16 -43 100 -39 270 3 104 8 155 16 157 7 3 9 13 4 31 -6 18 -4 31 4 39 7 7 13
36 14 65 1 65 15 115 39 142 11 12 22 33 26 49 3 15 10 27 14 27 5 0 0 -27
-11 -59 -18 -56 -18 -61 -2 -83 17 -23 17 -23 12 0 -3 12 -1 22 3 22 4 0 19
34 31 75 16 50 28 74 36 70 22 -8 14 20 -12 45 -27 26 -34 70 -11 70 8 0 21
-12 28 -27 7 -16 23 -29 36 -31 22 -3 32 -22 11 -22 -8 0 -8 -5 1 -15 16 -20
-4 -47 -28 -38 -14 6 -15 4 -4 -9 10 -13 10 -29 -3 -89 -8 -41 -15 -75 -15
-76 0 -2 -23 -3 -50 -3 -43 0 -52 3 -60 23 -8 21 -9 21 -9 -5 -1 -25 2 -26 57
-30 80 -6 99 3 113 54 7 24 19 49 28 56 11 9 11 12 2 12 -17 0 -9 36 25 109
13 30 22 56 20 58 -6 6 -43 -49 -49 -72 -2 -11 -5 -2 -6 21 -1 44 13 95 37
132 9 13 16 34 17 47 0 13 17 48 38 77 20 30 37 67 37 81 0 15 5 27 11 27 5 0
7 -5 3 -12 -4 -7 -3 -8 5 -4 7 4 26 -5 47 -23 19 -17 39 -31 44 -31 21 0 73
-57 100 -109 41 -81 48 -119 55 -281 10 -234 36 -385 115 -672 50 -180 43
-211 -66 -280 -36 -22 -63 -43 -60 -45 6 -7 120 64 142 88 33 37 34 105 4 209
-16 52 -35 129 -44 170 -8 41 -27 125 -41 186 -19 86 -27 156 -34 310 -8 194
-9 201 -41 279 -34 82 -75 131 -141 170 -40 24 -81 92 -70 114 13 25 21 150
11 156 -6 4 -10 17 -10 31 0 22 -2 23 -20 12 -19 -12 -19 -13 5 -38 28 -29 32
-45 11 -37 -20 8 -28 -4 -14 -20 8 -11 7 -12 -6 -7 -9 3 -16 14 -16 23 0 9 -4
22 -9 30 -6 9 -8 4 -6 -17 1 -19 12 -39 30 -54 21 -18 26 -29 21 -46 -13 -41
-150 -23 -186 25 -12 15 -12 16 0 6 22 -20 35 -15 14 6 -10 10 -22 14 -25 9
-3 -5 -11 9 -18 32 -6 22 -16 40 -21 40 -13 0 -13 0 10 -48 11 -22 20 -45 20
-51 0 -13 81 -51 111 -51 75 -1 74 -11 -5 -61 -42 -27 -76 -54 -76 -61 0 -6
10 -2 23 9 25 23 93 66 119 76 30 11 30 -11 1 -27 -39 -20 -102 -83 -114 -113
-9 -24 -9 -24 -35 6 -14 17 -30 29 -34 26 -10 -6 -60 52 -60 70 0 7 -12 22
-27 33 -54 39 -39 282 17 282 5 0 0 -16 -11 -35 -18 -29 -20 -44 -14 -102 7
-69 46 -196 53 -174 2 6 -6 32 -17 56 -17 36 -21 62 -19 127 1 47 3 64 5 40 3
-24 8 -40 14 -36 5 3 16 0 24 -6 11 -9 15 -9 15 -1 0 6 -3 11 -7 11 -12 0 -32
49 -22 52 4 2 4 20 -1 41 -8 36 -6 40 23 58 43 26 64 31 123 27 47 -3 49 -4
49 -32 0 -17 6 -31 15 -33 9 -3 11 -1 5 4 -5 4 -11 14 -13 22 -3 15 23 -1 40
-24 5 -7 8 -7 8 0 0 6 5 3 10 -5 8 -13 10 -13 10 2 0 9 -9 19 -20 23 -11 3
-28 16 -37 29 -32 41 -108 43 -179 5z m-571 -259 c-3 -11 -12 -20 -19 -20 -8
0 -14 -10 -14 -23 0 -28 -47 -100 -61 -92 -13 8 -11 -12 6 -96 18 -84 13 -105
-6 -27 -31 126 -12 202 65 256 37 27 35 26 29 2z m757 -143 c0 -7 -13 -31 -29
-53 -15 -21 -43 -79 -60 -129 -34 -96 -43 -111 -60 -101 -33 21 15 150 89 240
46 56 60 66 60 43z m-196 -67 c-7 -6 -24 22 -23 40 0 9 6 5 14 -10 7 -14 11
-27 9 -30z m56 -9 c16 -30 12 -36 -10 -16 -21 19 -26 35 -10 35 5 0 14 -9 20
-19z m-63 -18 c-4 -3 -10 -3 -14 0 -3 4 0 7 7 7 7 0 10 -3 7 -7z m-43 -35 c-5
-8 7 -10 44 -5 29 3 52 5 52 3 0 -44 -68 -112 -89 -90 -13 13 -17 104 -5 104
3 0 2 -5 -2 -12z m-583 -71 c-10 -9 -11 -8 -5 6 3 10 9 15 12 12 3 -3 0 -11
-7 -18z m661 -29 c-7 -7 -12 -8 -12 -2 0 6 3 14 7 17 3 4 9 5 12 2 2 -3 -1
-11 -7 -17z m-44 -87 c11 -18 10 -21 -3 -21 -9 0 -14 4 -11 9 3 4 -1 17 -9 27
-8 10 -14 26 -15 34 0 10 5 8 13 -6 6 -12 18 -31 25 -43z m-163 -43 c84 -70
87 -77 45 -120 -17 -17 -24 -28 -15 -25 8 4 15 1 15 -5 0 -10 -13 -9 -80 7 -8
2 -17 4 -20 4 -5 1 -108 76 -119 87 -4 3 31 50 74 101 16 19 21 17 100 -49z
m150 2 c-3 -5 -12 -10 -18 -10 -7 0 -6 4 3 10 19 12 23 12 15 0z m101 -55 c-9
-21 -16 -52 -16 -70 0 -40 -9 -65 -22 -65 -6 0 -7 8 -3 18 4 9 9 28 11 42 11
67 31 126 40 117 3 -2 -2 -22 -10 -42z m-106 -12 c-14 -44 -36 -73 -25 -33 11
43 28 81 32 76 3 -3 0 -22 -7 -43z m-161 -249 c10 -9 -75 -3 -89 6 -10 7 1 8
35 4 28 -4 52 -8 54 -10z m130 -118 c16 -20 31 -129 34 -250 2 -100 2 -100
-27 -107 -17 -5 -32 -7 -34 -5 -21 22 -20 376 2 376 7 0 19 -6 25 -14z m-509
-113 c0 -11 -3 -14 -8 -7 -4 6 -14 14 -22 17 -10 4 -8 6 8 6 15 1 22 -5 22
-16z"/>
<path d="M825 2170 c3 -5 8 -10 11 -10 2 0 4 5 4 10 0 6 -5 10 -11 10 -5 0 -7
-4 -4 -10z"/>
<path d="M422 2160 c2 -8 30 -22 62 -31 71 -21 84 -32 80 -67 -4 -26 -3 -26
11 5 15 33 15 33 63 -1 84 -61 97 -79 77 -110 -17 -26 -17 -26 -75 24 -32 28
-62 50 -66 50 -5 -1 11 -19 36 -41 45 -40 45 -40 -8 -10 -29 17 -60 31 -68 31
-21 0 -88 29 -82 36 3 2 25 -2 49 -10 24 -9 49 -16 54 -16 18 0 -20 20 -60 31
-21 6 -45 18 -53 27 -12 15 -12 14 -7 -6 5 -16 1 -28 -12 -38 -17 -14 -17 -15
5 -9 13 4 28 3 35 -2 7 -5 32 -15 55 -22 46 -13 163 -80 169 -96 3 -10 -23
-28 -102 -72 -24 -13 -33 -22 -22 -23 11 0 17 -8 17 -23 0 -23 29 -72 30 -50
0 6 -4 15 -10 18 -17 11 -11 44 10 55 11 6 18 16 14 21 -3 6 2 9 12 7 11 -2
18 2 17 7 -1 6 9 15 23 22 13 6 21 7 18 1 -3 -5 5 -21 17 -35 24 -25 24 -25
-1 -18 -22 7 -23 6 -11 -9 12 -14 11 -19 -4 -36 -17 -19 -18 -19 -37 3 -19 22
-19 22 -8 -1 12 -25 -1 -52 -25 -52 -7 0 -18 -7 -25 -15 -7 -8 -31 -16 -54
-17 -41 -1 -41 -1 -4 -5 20 -2 47 1 59 7 17 10 23 9 30 -1 13 -20 11 -27 -8
-31 -14 -3 -13 -5 6 -10 22 -6 23 -5 18 33 -3 21 -1 40 4 40 10 2 25 5 37 9 4
1 11 2 16 1 5 -1 6 5 2 14 -3 9 -2 13 3 10 5 -3 16 4 25 16 9 13 19 18 27 13
7 -4 4 5 -7 19 -10 15 -22 27 -26 27 -18 0 -7 42 12 47 11 3 20 8 20 12 0 3
-9 12 -20 19 -12 7 -20 8 -20 2 0 -5 5 -10 12 -10 9 0 9 -3 0 -12 -18 -18 -26
-2 -15 34 6 20 15 32 24 30 8 -2 11 0 7 3 -4 4 -3 16 3 26 7 15 7 19 -3 17 -7
-2 -12 4 -10 12 2 8 0 12 -4 8 -4 -4 -35 15 -70 43 -35 27 -71 52 -81 54 -68
16 -140 39 -152 48 -11 10 -13 9 -9 -3z m188 -340 c-8 -5 -19 -10 -25 -10 -5
0 -3 5 5 10 8 5 20 10 25 10 6 0 3 -5 -5 -10z"/>
<path d="M250 2153 c0 -7 -6 -13 -12 -13 -26 -1 -77 -55 -68 -70 8 -13 10 -12
10 3 0 10 4 16 9 13 5 -3 22 1 37 9 41 21 48 19 66 -18 16 -33 16 -33 -25 -52
-23 -11 -53 -30 -67 -42 -27 -22 -27 -22 -44 14 -9 19 -14 45 -11 57 6 21 6
21 -10 2 -16 -21 -12 -50 11 -77 8 -8 14 -23 14 -32 0 -9 9 -26 21 -38 11 -11
19 -22 17 -25 -8 -7 -48 27 -48 42 0 15 -12 19 -23 7 -4 -4 5 -19 19 -35 26
-26 26 -28 8 -34 -59 -22 -42 -60 58 -134 43 -32 64 -70 38 -70 -6 0 -5 -8 2
-20 19 -30 24 -25 20 19 -2 21 1 42 7 45 6 4 11 2 11 -3 0 -6 4 -11 10 -11 5
0 7 6 4 14 -3 7 2 16 10 19 9 4 16 15 16 25 0 27 21 41 45 31 11 -4 29 -8 40
-8 11 1 1 7 -23 16 -55 19 -51 23 13 13 55 -9 75 -5 29 5 -93 21 -138 40 -194
81 -63 46 -63 46 9 82 39 21 67 38 62 40 -5 2 -25 -5 -43 -14 -29 -15 -31 -15
-20 -1 14 17 115 59 135 56 42 -5 44 -1 34 51 -8 42 -13 50 -31 49 -15 -1 -16
-3 -5 -6 11 -2 19 -18 22 -41 5 -44 10 -38 -39 -45 -41 -7 -41 -7 -77 51 -20
31 -36 51 -37 45z m-3 -40 c-4 -3 -10 -3 -14 0 -3 4 0 7 7 7 7 0 10 -3 7 -7z
m-40 -20 c-4 -3 -7 0 -7 7 0 7 3 10 7 7 3 -4 3 -10 0 -14z m20 -120 c-4 -3
-10 -3 -14 0 -3 4 0 7 7 7 7 0 10 -3 7 -7z m-35 -128 c-17 -14 -33 -25 -37
-25 -5 0 5 11 21 25 16 14 33 25 37 25 5 0 -5 -11 -21 -25z m44 10 c-3 -9 0
-15 9 -15 8 0 15 -4 15 -8 0 -5 19 -17 43 -26 23 -10 36 -20 30 -23 -7 -2 -13
-13 -13 -23 0 -11 -8 -24 -18 -29 -26 -14 -42 4 -42 46 0 18 -4 33 -9 33 -5 0
-7 -8 -4 -19 10 -39 -50 -38 -63 1 -4 15 2 28 22 49 34 32 38 35 30 14z m89
-35 c13 -6 15 -9 5 -9 -8 0 -22 4 -30 9 -18 12 -2 12 25 0z m-85 -80 c0 -5 -2
-10 -4 -10 -3 0 -8 5 -11 10 -3 6 -1 10 4 10 6 0 11 -4 11 -10z"/>
<path d="M213 1803 c4 -3 10 -3 14 0 3 4 0 7 -7 7 -7 0 -10 -3 -7 -7z"/>
<path d="M2325 2150 c3 -5 -2 -10 -11 -10 -10 0 -15 -3 -11 -6 8 -8 47 5 47
17 0 5 -7 9 -16 9 -8 0 -12 -4 -9 -10z"/>
<path d="M296 2141 c-4 -5 3 -7 14 -4 23 6 26 13 6 13 -8 0 -17 -4 -20 -9z"/>
<path d="M803 2126 c7 -14 13 -23 15 -21 7 6 -9 45 -18 45 -4 0 -3 -11 3 -24z"/>
<path d="M2351 2118 c-5 -13 -6 -24 -2 -25 48 -14 80 -20 76 -12 -4 5 -14 9
-24 9 -10 0 -24 7 -31 15 -9 10 -9 15 -1 15 6 0 11 5 11 10 0 19 -21 10 -29
-12z"/>
<path d="M2250 2120 c8 -5 24 -9 35 -9 20 0 20 0 0 9 -30 13 -55 13 -35 0z"/>
<path d="M2254 2065 c-17 -13 -16 -14 16 -9 23 4 42 0 55 -10 19 -15 19 -16 1
-9 -14 4 -17 3 -12 -6 5 -7 14 -10 21 -7 7 2 22 -2 34 -10 11 -8 21 -11 21 -5
0 11 -52 45 -92 60 -19 7 -31 6 -44 -4z"/>
<path d="M812 2040 c0 -14 2 -19 5 -12 2 6 2 18 0 25 -3 6 -5 1 -5 -13z"/>
<path d="M2270 2040 c0 -5 5 -10 11 -10 5 0 7 5 4 10 -3 6 -8 10 -11 10 -2 0
-4 -4 -4 -10z"/>
<path d="M811 1972 c-1 -30 -5 -41 -13 -36 -6 4 -8 3 -4 -4 12 -19 24 -101 15
-104 -5 -2 -3 -21 3 -42 10 -32 10 -40 0 -44 -10 -3 -10 -7 -1 -18 8 -10 8
-14 0 -14 -6 0 -8 -11 -5 -29 6 -28 5 -30 -22 -26 -16 2 -32 4 -36 4 -5 1 -8
8 -8 16 0 8 -4 15 -9 15 -5 0 -7 -10 -4 -21 5 -19 3 -21 -20 -15 -16 4 -27 2
-27 -4 0 -5 19 -10 43 -10 31 0 38 -3 27 -10 -13 -8 -12 -10 3 -10 9 0 17 4
17 10 0 5 7 7 15 4 48 -19 -22 -23 -357 -23 -221 0 -365 4 -353 9 18 8 17 9
-8 9 -16 1 -26 -3 -22 -9 3 -5 -3 -10 -14 -10 -11 0 -23 -5 -27 -11 -5 -8 116
-10 435 -7 441 3 441 3 441 29 0 15 -7 29 -15 33 -18 7 -20 -10 -2 -18 6 -3 3
-5 -8 -3 -19 2 -20 12 -27 181 -7 171 -16 250 -17 158z m19 -365 c0 -5 -4 -5
-10 -2 -5 3 -10 14 -10 23 0 15 2 15 10 2 5 -8 10 -19 10 -23z"/>
<path d="M2450 1924 c0 -8 5 -12 10 -9 6 4 8 11 5 16 -9 14 -15 11 -15 -7z"/>
<path d="M770 1905 c0 -14 4 -25 9 -25 4 0 6 11 3 25 -2 14 -6 25 -8 25 -2 0
-4 -11 -4 -25z"/>
<path d="M2378 1923 c7 -3 16 -2 19 1 4 3 -2 6 -13 5 -11 0 -14 -3 -6 -6z"/>
<path d="M2170 1881 c0 -6 4 -13 10 -16 6 -3 7 1 4 9 -7 18 -14 21 -14 7z"/>
<path d="M1750 1841 c0 -5 7 -11 14 -14 10 -4 13 -1 9 9 -6 15 -23 19 -23 5z"/>
<path d="M100 1800 c0 -7 3 -10 7 -7 3 4 3 10 0 14 -4 3 -7 0 -7 -7z"/>
<path d="M508 1803 c6 -2 18 -2 25 0 6 3 1 5 -13 5 -14 0 -19 -2 -12 -5z"/>
<path d="M41 1768 c-1 -16 4 -28 9 -28 12 0 12 8 0 35 -8 18 -9 17 -9 -7z"/>
<path d="M530 1780 c-9 -6 -10 -10 -3 -10 6 0 15 5 18 10 8 12 4 12 -15 0z"/>
<path d="M366 1744 c-9 -22 -7 -44 2 -44 5 0 9 14 10 30 1 33 -3 38 -12 14z"/>
<path d="M522 1733 c1 -19 8 -33 15 -33 16 0 16 9 -2 40 -15 25 -15 25 -13 -7z"/>
<path d="M120 1741 c0 -5 7 -11 15 -15 8 -3 15 -1 15 3 0 5 -7 11 -15 15 -8 3
-15 1 -15 -3z"/>
<path d="M447 1744 c-10 -11 -9 -44 2 -44 15 0 19 13 12 33 -4 10 -10 15 -14
11z"/>
<path d="M1686 1731 c-4 -7 -5 -15 -2 -18 9 -9 19 4 14 18 -4 11 -6 11 -12 0z"/>
<path d="M1483 1723 c4 -3 10 -3 14 0 3 4 0 7 -7 7 -7 0 -10 -3 -7 -7z"/>
<path d="M100 1710 c0 -7 3 -10 7 -7 3 4 3 10 0 14 -4 3 -7 0 -7 -7z"/>
<path d="M693 1713 c4 -3 10 -3 14 0 3 4 0 7 -7 7 -7 0 -10 -3 -7 -7z"/>
<path d="M760 1700 c0 -6 7 -10 15 -10 8 0 15 2 15 4 0 2 -7 6 -15 10 -8 3
-15 1 -15 -4z"/>
<path d="M1491 1695 c-1 -20 33 -85 44 -85 4 0 0 12 -8 28 -8 15 -20 38 -25
52 -9 21 -11 22 -11 5z"/>
<path d="M140 1695 c0 -24 27 -55 49 -56 24 0 24 -1 6 -9 -17 -7 -15 -9 12 -9
26 -1 30 2 26 19 -4 14 -14 20 -35 20 -21 0 -31 6 -35 20 -5 17 -23 29 -23 15z"/>
<path d="M320 1688 c0 -4 35 -8 78 -7 42 0 73 2 67 4 -21 8 -145 10 -145 3z"/>
<path d="M850 1690 c0 -7 3 -10 7 -7 3 4 3 10 0 14 -4 3 -7 0 -7 -7z"/>
<path d="M286 1671 c-4 -7 -5 -15 -2 -18 9 -9 19 4 14 18 -4 11 -6 11 -12 0z"/>
<path d="M116 1663 c-3 -3 -3 -10 0 -14 7 -12 34 -11 34 0 0 11 -26 22 -34 14z"/>
<path d="M673 1623 c4 -3 10 -3 14 0 3 4 0 7 -7 7 -7 0 -10 -3 -7 -7z"/>
<path d="M1740 1408 c0 -16 5 -28 10 -28 13 0 13 20 0 40 -8 12 -10 9 -10 -12z"/>
<path d="M964 1409 c-3 -6 -19 -9 -34 -6 -14 3 -39 -1 -54 -9 -16 -8 -34 -14
-41 -14 -48 0 -36 -59 17 -86 31 -16 31 -16 8 -34 -13 -10 -29 -16 -36 -13
-13 5 -20 -14 -28 -67 -3 -24 -7 -25 -117 -37 -389 -42 -394 -43 -274 -37 61
3 124 7 140 9 94 12 257 26 261 22 3 -3 6 -32 8 -66 2 -48 8 -66 25 -82 33
-31 22 -49 -34 -49 -27 0 -35 -22 -35 -96 0 -27 -6 -56 -12 -63 -11 -10 -4
-20 31 -52 24 -22 42 -41 40 -42 -15 -12 -111 -47 -128 -47 -11 0 -22 -4 -26
-9 -3 -6 -27 -13 -53 -16 -26 -3 -63 -13 -83 -22 -20 -8 -46 -12 -57 -9 -11 4
-57 -2 -101 -14 -80 -20 -82 -20 -118 -2 -85 43 -183 61 -183 35 0 -17 -12
-16 -36 2 -10 8 -26 14 -34 15 -8 0 5 -12 29 -26 26 -16 46 -23 50 -17 9 15
64 24 80 14 19 -12 13 -22 -43 -70 -40 -35 -51 -40 -63 -29 -19 15 24 53 70
64 20 4 26 9 19 16 -11 11 -82 -8 -82 -22 0 -5 -8 -11 -18 -14 -24 -8 -24 -37
0 -54 30 -22 22 -35 -19 -28 -33 5 -35 4 -15 -6 13 -6 21 -17 18 -25 -4 -10 1
-12 22 -6 15 4 35 7 44 7 9 0 15 3 13 7 -6 8 64 89 76 89 12 0 4 -14 -56 -99
-45 -63 -62 -104 -25 -60 19 24 19 24 20 -2 0 -14 -4 -50 -9 -80 -14 -82 -21
-196 -12 -179 5 8 12 47 16 85 27 273 53 325 161 325 23 0 34 5 34 14 0 20 60
38 135 41 34 2 75 10 92 18 16 9 43 16 59 15 26 0 126 30 212 64 17 7 32 18
32 25 0 7 8 13 18 12 10 0 12 -3 4 -6 -6 -2 -9 -9 -6 -14 3 -6 -2 -21 -11 -35
-9 -14 -15 -27 -13 -29 2 -2 12 9 23 26 20 30 41 40 32 15 -4 -10 0 -12 16 -8
21 5 21 5 -1 20 -12 8 -22 19 -22 24 0 7 5 6 13 0 10 -8 13 -7 14 6 1 15 -8
18 -50 20 -42 1 -56 7 -74 27 -22 25 -32 51 -15 41 4 -2 9 22 9 55 2 73 2 72
53 89 35 12 40 17 36 36 -6 21 -3 23 34 22 37 0 40 -3 40 -28 0 -14 3 -29 6
-32 8 -9 44 3 39 13 -3 4 -12 6 -20 2 -11 -4 -15 2 -15 21 0 19 5 26 20 26 14
0 18 -5 13 -17 -4 -11 -3 -14 5 -9 7 4 12 14 12 22 0 21 60 18 76 -3 9 -12 13
-14 14 -5 0 7 5 10 11 6 8 -4 9 1 3 17 -4 13 -8 34 -7 46 0 13 -3 20 -8 17
-12 -7 -11 8 1 40 6 16 6 27 0 31 -6 4 -10 12 -10 18 0 7 4 6 10 -3 14 -22 1
58 -15 92 -10 20 -10 28 -1 31 15 5 -28 93 -50 101 -9 3 -29 6 -45 6 -33 0
-36 7 -11 26 9 7 12 14 5 14 -6 0 -15 -5 -19 -11z m-34 -29 c0 -5 -9 -10 -20
-10 -22 0 -23 -5 -10 -35 8 -19 9 -19 9 3 1 23 21 32 21 10 0 -15 57 -78 70
-78 18 0 60 24 60 34 0 6 5 4 10 -4 6 -10 4 -17 -6 -23 -14 -8 -14 -11 0 -26
15 -16 14 -20 -10 -46 -25 -28 -25 -28 2 -21 27 7 27 7 20 -63 -4 -43 -2 -72
4 -76 30 -19 -3 -27 -156 -41 -63 -6 -115 9 -97 27 6 6 4 38 -3 82 -12 71 -9
131 6 122 5 -3 22 3 39 12 31 18 31 18 69 -24 20 -24 43 -43 51 -43 7 0 -1 12
-18 27 -28 25 -46 84 -21 68 6 -3 10 -1 10 4 0 6 -9 11 -20 11 -11 0 -20 -6
-20 -12 0 -8 -3 -9 -8 -3 -4 6 -24 18 -45 27 -21 10 -40 25 -44 34 -7 20 17
37 33 23 8 -7 14 -6 19 1 3 5 0 10 -7 10 -9 0 -9 3 2 10 20 13 60 13 60 0z
m112 -33 c11 -18 -22 -40 -39 -26 -10 9 -13 8 -13 -5 0 -10 8 -16 23 -16 18 0
19 -2 7 -10 -18 -12 -85 53 -74 71 8 14 86 3 96 -14z m-822 -788 c0 -5 5 -7
11 -3 11 6 59 -14 59 -25 0 -3 -16 -6 -35 -7 -19 0 -35 4 -35 8 0 5 -9 6 -20
3 -22 -7 -26 5 -8 23 15 15 28 15 28 1z m-100 -88 c-11 -21 -29 -36 -36 -29
-4 5 33 48 42 48 2 0 0 -9 -6 -19z"/>
<path d="M1016 1215 c-3 -9 0 -15 9 -15 9 0 12 6 9 15 -4 8 -7 15 -9 15 -2 0
-5 -7 -9 -15z"/>
<path d="M820 1178 c0 -10 58 -9 85 1 14 6 3 8 -32 8 -29 -1 -53 -4 -53 -9z"/>
<path d="M1771 1253 c0 -4 4 -17 9 -28 8 -19 9 -19 9 2 1 12 -3 25 -9 28 -5 3
-10 3 -9 -2z"/>
<path d="M1924 1225 c11 -8 27 -15 35 -15 9 0 3 7 -13 15 -36 19 -47 19 -22 0z"/>
<path d="M2290 1111 c0 -6 4 -13 10 -16 6 -3 7 1 4 9 -7 18 -14 21 -14 7z"/>
<path d="M1503 1095 c-3 -9 -3 -18 -1 -21 3 -3 8 4 11 16 6 23 -1 27 -10 5z"/>
<path d="M1566 1095 c-11 -8 -16 -15 -10 -15 5 0 18 7 28 15 11 8 16 15 10 15
-5 0 -18 -7 -28 -15z"/>
<path d="M1697 1094 c-16 -8 -47 -18 -70 -22 -54 -9 -61 -42 -22 -100 25 -38
27 -39 58 -28 33 11 66 42 67 62 0 6 7 17 15 24 20 16 19 33 -2 58 -17 20 -20
20 -46 6z m41 -32 c3 -16 -4 -23 -30 -31 -25 -7 -27 -9 -11 -10 20 -1 21 -4
11 -26 -13 -29 -67 -52 -80 -33 -45 67 -45 98 -1 98 15 1 42 7 58 15 38 17 49
14 53 -13z"/>
<path d="M1675 1055 c-30 -15 -30 -15 5 -9 19 3 39 10 45 15 14 14 -16 10 -50
-6z"/>
<path d="M1615 1040 c-3 -5 -2 -10 4 -10 5 0 13 5 16 10 3 6 2 10 -4 10 -5 0
-13 -4 -16 -10z"/>
<path d="M1615 1010 c3 -5 11 -10 16 -10 6 0 7 5 4 10 -3 6 -11 10 -16 10 -6
0 -7 -4 -4 -10z"/>
<path d="M1653 1013 c4 -3 10 -3 14 0 3 4 0 7 -7 7 -7 0 -10 -3 -7 -7z"/>
<path d="M2385 1070 c3 -5 8 -10 11 -10 3 0 2 5 -1 10 -3 6 -8 10 -11 10 -3 0
-2 -4 1 -10z"/>
<path d="M1411 1044 c0 -11 3 -14 6 -6 3 7 2 16 -1 19 -3 4 -6 -2 -5 -13z"/>
<path d="M2413 1053 c4 -3 10 -3 14 0 3 4 0 7 -7 7 -7 0 -10 -3 -7 -7z"/>
<path d="M1500 994 c0 -6 7 -19 16 -30 14 -18 14 -18 3 6 -14 31 -19 36 -19
24z"/>
<path d="M906 955 c4 -8 13 -15 21 -15 12 0 12 2 -1 15 -8 8 -17 15 -20 15 -3
0 -3 -7 0 -15z"/>
<path d="M807 838 c3 -18 10 -37 16 -43 7 -7 8 -4 3 8 -3 10 -6 30 -6 43 0 13
-4 24 -10 24 -5 0 -7 -14 -3 -32z"/>
<path d="M1558 842 c-2 -18 -1 -32 3 -32 15 0 19 18 10 41 -8 22 -8 22 -13 -9z"/>
<path d="M1010 723 c-56 -4 -56 -4 -56 -43 0 -40 0 -40 45 -34 55 6 67 14 19
12 -19 -1 -40 2 -47 6 -17 11 12 36 41 36 13 0 33 7 44 15 10 8 17 14 14 13
-3 -1 -30 -3 -60 -5z"/>
<path d="M1040 690 c0 -5 5 -10 11 -10 5 0 7 5 4 10 -3 6 -8 10 -11 10 -2 0
-4 -4 -4 -10z"/>
<path d="M2100 650 c0 -7 3 -10 7 -7 3 4 3 10 0 14 -4 3 -7 0 -7 -7z"/>
<path d="M1105 640 c3 -5 16 -10 28 -9 21 0 21 1 2 9 -28 12 -37 12 -30 0z"/>
<path d="M1167 595 c-2 -13 5 -33 16 -46 16 -20 18 -21 12 -4 -18 49 -17 53 7
57 22 3 22 4 -4 9 -21 5 -27 2 -31 -16z"/>
<path d="M913 603 c15 -2 37 -2 50 0 12 2 0 4 -28 4 -27 0 -38 -2 -22 -4z"/>
<path d="M731 591 c-10 -7 -8 -10 8 -16 27 -8 36 -2 18 13 -7 6 -18 7 -26 3z"/>
<path d="M1310 577 c0 -3 54 -24 121 -48 67 -23 126 -48 133 -54 20 -20 46
-25 74 -13 57 23 72 32 72 44 0 8 12 16 28 20 45 10 48 12 17 13 -21 1 -39 -8
-58 -29 -16 -16 -36 -30 -46 -30 -9 0 -22 -5 -28 -11 -6 -6 -17 -8 -24 -3 -9
5 -8 10 7 16 18 7 18 8 -1 6 -11 -1 -38 6 -59 15 -22 10 -51 20 -65 23 -14 3
-48 14 -76 24 -65 24 -95 33 -95 27z"/>
<path d="M1690 560 c0 -5 5 -10 11 -10 5 0 7 5 4 10 -3 6 -8 10 -11 10 -2 0
-4 -4 -4 -10z"/>
<path d="M555 544 c-104 -15 -177 -32 -145 -32 41 -1 246 33 235 39 -5 3 -46
0 -90 -7z"/>
<path d="M1792 530 c0 -14 2 -19 5 -12 2 6 2 18 0 25 -3 6 -5 1 -5 -13z"/>
<path d="M668 533 c7 -3 16 -2 19 1 4 3 -2 6 -13 5 -11 0 -14 -3 -6 -6z"/>
<path d="M755 530 c3 -5 11 -10 16 -10 6 0 7 5 4 10 -3 6 -11 10 -16 10 -6 0
-7 -4 -4 -10z"/>
<path d="M708 523 c6 -2 18 -2 25 0 6 3 1 5 -13 5 -14 0 -19 -2 -12 -5z"/>
<path d="M365 500 c3 -5 8 -10 11 -10 3 0 2 5 -1 10 -3 6 -8 10 -11 10 -3 0
-2 -4 1 -10z"/>
<path d="M653 503 c4 -3 10 -3 14 0 3 4 0 7 -7 7 -7 0 -10 -3 -7 -7z"/>
<path d="M1820 501 c0 -6 5 -13 10 -16 6 -3 10 -19 10 -36 0 -16 4 -29 9 -29
18 0 17 25 -2 57 -19 34 -27 40 -27 24z"/>
<path d="M603 493 c9 -2 23 -2 30 0 6 3 -1 5 -18 5 -16 0 -22 -2 -12 -5z"/>
<path d="M1793 493 c4 -3 10 -3 14 0 3 4 0 7 -7 7 -7 0 -10 -3 -7 -7z"/>
<path d="M2245 465 c7 -31 34 -80 41 -73 2 3 -8 27 -21 54 -20 38 -24 42 -20
19z"/>
<path d="M814 455 c15 -14 30 -25 34 -26 31 -3 65 -9 81 -14 10 -3 29 -2 41 3
19 7 9 10 -46 15 -45 4 -78 14 -96 27 -38 28 -46 25 -14 -5z"/>
<path d="M1030 478 c0 -20 28 -57 33 -44 3 8 -3 22 -14 32 -10 9 -19 15 -19
12z"/>
<path d="M1743 473 c4 -3 10 -3 14 0 3 4 0 7 -7 7 -7 0 -10 -3 -7 -7z"/>
<path d="M395 425 c-22 -23 -40 -45 -40 -49 0 -4 37 -9 83 -12 79 -4 86 -3
138 26 59 34 70 60 27 61 -16 0 -41 2 -58 5 -110 14 -107 15 -150 -31z m208 6
c18 -17 -75 -54 -131 -52 -92 2 -100 7 -61 42 32 29 35 29 109 23 41 -4 78
-10 83 -13z"/>
<path d="M1645 451 c-9 -15 8 -35 24 -30 8 3 7 10 -2 23 -10 14 -16 16 -22 7z"/>
<path d="M293 443 c9 -2 23 -2 30 0 6 3 -1 5 -18 5 -16 0 -22 -2 -12 -5z"/>
<path d="M1572 434 c10 -10 20 -15 24 -12 3 4 -5 12 -18 18 -22 12 -22 12 -6
-6z"/>
<path d="M1690 425 c0 -8 4 -15 10 -15 5 0 7 7 4 15 -4 8 -8 15 -10 15 -2 0
-4 -7 -4 -15z"/>
<path d="M2010 432 c0 -4 33 -18 73 -31 39 -13 79 -26 87 -29 8 -3 12 -2 9 2
-10 11 -169 66 -169 58z"/>
<path d="M211 419 c-1 -15 27 -48 36 -41 10 7 23 0 23 -12 0 -12 17 -25 45
-32 35 -8 66 -26 93 -54 18 -17 32 -27 32 -21 0 11 -70 71 -83 71 -4 0 -32 18
-61 40 -29 22 -58 40 -64 40 -5 0 -13 6 -15 13 -4 7 -6 6 -6 -4z m90 -66 c13
-16 12 -17 -3 -4 -17 13 -22 21 -14 21 2 0 10 -8 17 -17z"/>
<path d="M329 407 c7 -7 14 -8 21 -1 6 6 2 10 -12 11 -16 2 -18 -1 -9 -10z"/>
<path d="M745 400 c-22 -10 -47 -19 -56 -19 -9 -1 -39 -8 -65 -15 -27 -8 -62
-18 -79 -22 -30 -7 -30 -7 5 -15 19 -4 37 -6 39 -3 2 2 -2 4 -10 4 -22 1 64
30 89 30 12 0 30 4 40 9 9 5 37 19 62 30 25 11 38 20 30 20 -8 0 -33 -9 -55
-19z"/>
<path d="M999 413 c-10 -2 -19 -13 -22 -23 -6 -21 -13 -25 -67 -34 -20 -3 -41
-15 -48 -26 -13 -21 -12 -21 13 -4 14 9 39 17 55 16 16 0 32 4 36 9 3 5 10 7
15 4 5 -4 9 1 9 9 0 9 5 16 11 16 18 0 4 -24 -19 -35 -12 -5 -22 -14 -22 -20
0 -5 -9 -21 -20 -35 -34 -44 -22 -44 22 -1 52 53 130 100 136 83 7 -21 32 -13
32 10 0 21 2 21 123 14 67 -4 141 -7 165 -6 41 1 58 -15 27 -26 -8 -4 -15 -12
-15 -20 0 -8 -10 -14 -26 -14 -32 0 -23 16 19 34 32 14 32 14 0 15 -18 1 -33
-4 -33 -9 0 -6 -16 -18 -35 -27 -19 -9 -35 -22 -35 -29 0 -7 -15 -24 -32 -38
-18 -14 -28 -26 -21 -26 7 0 20 8 30 19 29 30 59 41 108 41 48 0 54 6 70 73 6
21 3 22 -72 23 -43 0 -118 3 -166 7 -49 3 -96 2 -105 -3 -63 -34 -92 -42 -108
-30 -8 7 -13 19 -10 27 3 7 4 12 3 12 -1 -1 -9 -3 -18 -6z"/>
<path d="M1740 388 c-1 -32 -1 -32 -16 -13 -11 14 -17 17 -22 8 -5 -7 -25 -12
-47 -10 -55 3 -58 -32 -5 -46 49 -12 65 -29 51 -55 -16 -30 -13 -40 5 -17 8
11 18 20 22 20 4 1 17 6 30 13 12 7 27 10 32 7 6 -3 7 1 4 9 -3 9 -10 16 -15
16 -5 0 -9 10 -9 21 0 21 1 21 20 -4 21 -26 27 -57 11 -57 -6 0 -3 -12 5 -27
7 -16 14 -33 14 -40 0 -6 4 -15 10 -18 7 -4 7 3 0 20 -27 71 -5 67 43 -8 19
-29 41 -58 50 -66 21 -17 22 -42 2 -35 -8 4 -15 1 -15 -5 0 -6 17 -11 40 -11
22 0 40 5 40 10 0 6 -6 10 -14 8 -12 -3 -96 96 -96 113 0 18 30 31 36 15 3 -9
10 -16 15 -16 14 0 11 28 -3 33 -9 4 -8 6 3 6 8 1 25 16 38 34 22 32 22 32 -3
4 -27 -29 -52 -28 -41 1 3 9 3 13 -1 9 -4 -4 -14 -1 -22 6 -13 10 -15 9 -9 -5
9 -25 -5 -22 -21 3 -9 13 -20 19 -32 16 -11 -3 -27 4 -41 19 -26 28 -41 22
-37 -14 2 -23 -1 -27 -22 -29 -14 -1 -18 0 -9 3 14 4 28 114 14 114 -3 0 -5
-15 -5 -32z m-17 -59 c-8 -8 -16 -8 -31 0 -11 6 -30 11 -41 11 -36 0 -31 17 6
18 20 1 38 4 41 7 3 3 13 -1 21 -10 11 -11 12 -18 4 -26z m167 -54 c5 0 12 -4
17 -9 5 -5 -2 -7 -15 -3 -20 5 -22 2 -16 -16 5 -18 3 -17 -16 6 -13 16 -28 26
-37 23 -14 -6 -11 5 11 33 8 10 14 9 29 -10 11 -13 23 -24 27 -24z"/>
<path d="M1871 404 c0 -11 3 -14 6 -6 3 7 2 16 -1 19 -3 4 -6 -2 -5 -13z"/>
<path d="M1610 400 c0 -7 3 -10 7 -7 3 4 3 10 0 14 -4 3 -7 0 -7 -7z"/>
<path d="M1673 393 c4 -3 10 -3 14 0 3 4 0 7 -7 7 -7 0 -10 -3 -7 -7z"/>
<path d="M1770 390 c0 -7 3 -10 7 -7 3 4 3 10 0 14 -4 3 -7 0 -7 -7z"/>
<path d="M1848 385 c5 -11 12 -27 15 -35 5 -13 6 -13 6 1 1 8 -6 24 -15 35
-15 19 -15 19 -6 -1z"/>
<path d="M1145 380 c-3 -5 1 -10 10 -10 9 0 13 5 10 10 -3 6 -8 10 -10 10 -2
0 -7 -4 -10 -10z"/>
<path d="M1196 380 c-11 -3 -15 -9 -10 -13 10 -6 42 9 34 16 -3 3 -14 1 -24
-3z"/>
<path d="M1580 370 c0 -5 5 -10 11 -10 5 0 7 5 4 10 -3 6 -8 10 -11 10 -2 0
-4 -4 -4 -10z"/>
<path d="M2145 310 c82 -27 151 -47 153 -45 5 5 -276 95 -291 94 -7 0 55 -23
138 -49z"/>
<path d="M666 335 c7 -18 104 -69 104 -55 0 5 -18 19 -39 30 -22 11 -42 24
-46 30 -10 16 -25 12 -19 -5z"/>
<path d="M1195 340 c-18 -8 -17 -9 7 -9 15 -1 30 4 33 9 7 12 -12 12 -40 0z"/>
<path d="M1403 343 c4 -3 10 -3 14 0 3 4 0 7 -7 7 -7 0 -10 -3 -7 -7z"/>
<path d="M476 331 c-12 -5 -16 -10 -9 -14 13 -8 43 2 43 14 0 10 -8 10 -34 0z"/>
<path d="M628 328 c5 -5 16 -8 23 -6 8 3 3 7 -10 11 -17 4 -21 3 -13 -5z"/>
<path d="M1035 327 c5 -11 -16 -27 -57 -43 -10 -3 -18 -11 -18 -16 0 -6 8 -7
18 -3 68 26 101 29 121 11 11 -10 18 -22 15 -27 -11 -18 18 -49 56 -59 67 -18
164 20 132 52 -9 9 -12 8 -12 -5 0 -23 -31 -37 -80 -37 -52 0 -80 15 -80 42 0
12 -18 38 -42 60 -42 39 -61 48 -53 25z"/>
<path d="M1093 333 c15 -2 39 -2 55 0 15 2 2 4 -28 4 -30 0 -43 -2 -27 -4z"/>
<path d="M385 259 c66 -73 103 -97 44 -29 -25 29 -56 60 -70 69 -14 9 -3 -8
26 -40z"/>
<path d="M490 305 c0 -14 97 -44 175 -55 83 -10 98 -17 108 -45 6 -16 141 -12
160 4 23 19 22 45 0 36 -10 -4 -47 -11 -83 -16 -65 -8 -65 -8 13 -4 89 4 96 1
30 -13 -72 -15 -113 -5 -125 28 -9 28 -34 43 -93 56 -43 10 -26 -4 26 -21 44
-15 44 -15 -29 -10 -44 3 -90 13 -115 25 -39 19 -67 25 -67 15z"/>
<path d="M910 290 c0 -7 3 -10 7 -7 3 4 3 10 0 14 -4 3 -7 0 -7 -7z"/>
<path d="M1164 265 c-18 -14 -18 -14 4 -8 12 3 22 9 22 14 0 12 -3 11 -26 -6z"/>
<path d="M780 260 c0 -5 5 -10 11 -10 5 0 7 5 4 10 -3 6 -8 10 -11 10 -2 0 -4
-4 -4 -10z"/>
<path d="M1766 255 c4 -8 10 -15 15 -15 4 0 6 7 3 15 -4 8 -10 15 -15 15 -4 0
-6 -7 -3 -15z"/>
<path d="M2968 263 c7 -3 16 -2 19 1 4 3 -2 6 -13 5 -11 0 -14 -3 -6 -6z"/>
<path d="M3010 245 c0 -14 4 -25 10 -25 5 0 7 7 3 16 -3 9 0 20 8 25 11 7 11
9 -3 9 -13 0 -18 -8 -18 -25z"/>
<path d="M2330 249 c14 -6 79 -26 145 -45 66 -20 171 -51 233 -71 62 -19 116
-33 119 -30 3 3 -15 11 -38 17 -24 7 -69 20 -99 30 -74 25 -369 110 -378 109
-4 0 4 -5 18 -10z"/>
<path d="M191 224 c0 -11 3 -14 6 -6 3 7 2 16 -1 19 -3 4 -6 -2 -5 -13z"/>
<path d="M2965 230 c3 -5 8 -10 11 -10 2 0 4 5 4 10 0 6 -5 10 -11 10 -5 0 -7
-4 -4 -10z"/>
<path d="M1263 223 c4 -3 10 -3 14 0 3 4 0 7 -7 7 -7 0 -10 -3 -7 -7z"/>
<path d="M525 210 c3 -5 8 -10 11 -10 3 0 2 5 -1 10 -3 6 -8 10 -11 10 -3 0
-2 -4 1 -10z"/>
<path d="M195 190 c3 -5 8 -10 11 -10 3 0 2 5 -1 10 -3 6 -8 10 -11 10 -3 0
-2 -4 1 -10z"/>
<path d="M2960 170 c0 -16 2 -30 4 -30 2 0 6 14 8 30 3 17 1 30 -4 30 -4 0 -8
-13 -8 -30z"/>
<path d="M575 180 c3 -5 8 -10 11 -10 3 0 2 5 -1 10 -3 6 -8 10 -11 10 -3 0
-2 -4 1 -10z"/>
<path d="M3350 180 c0 -7 3 -10 7 -7 3 4 3 10 0 14 -4 3 -7 0 -7 -7z"/>
<path d="M1681 149 c-35 -28 -22 -32 14 -3 17 13 26 24 20 24 -5 -1 -21 -10
-34 -21z"/>
<path d="M1770 160 c0 -5 5 -10 10 -10 6 0 10 5 10 10 0 6 -4 10 -10 10 -5 0
-10 -4 -10 -10z"/>
<path d="M625 150 c3 -5 8 -10 11 -10 3 0 2 5 -1 10 -3 6 -8 10 -11 10 -3 0
-2 -4 1 -10z"/>
<path d="M3340 140 c-8 -16 -8 -20 4 -20 8 0 23 -3 33 -6 11 -3 8 1 -7 11 -24
16 -24 16 -2 12 25 -6 30 8 6 17 -22 8 -22 8 -34 -14z"/>
<path d="M205 105 c3 -27 10 -54 15 -58 4 -5 3 15 -2 45 -13 68 -23 78 -13 13z"/>
<path d="M313 110 c0 -25 2 -35 4 -22 2 12 2 32 0 45 -2 12 -4 2 -4 -23z"/>
<path d="M705 82 c32 -34 62 -57 65 -52 4 7 17 3 32 -10 15 -11 34 -20 45 -20
21 0 -27 33 -68 45 -13 4 -49 28 -79 53 -55 45 -55 45 5 -16z"/>
<path d="M1170 136 c0 -2 8 -10 18 -17 15 -13 16 -12 3 4 -13 16 -21 21 -21
13z"/>
<path d="M2935 117 c-79 -48 -127 -82 -135 -98 -8 -15 -7 -17 5 -13 8 4 15 10
15 15 0 14 122 89 143 89 10 0 15 5 12 10 -8 12 -15 12 -40 -3z"/>
<path d="M2452 108 c-18 -18 -14 -34 13 -52 30 -20 32 -36 6 -36 -11 0 -22 -4
-25 -9 -3 -5 5 -8 19 -7 14 0 25 5 25 9 0 5 4 6 9 3 6 -4 8 46 2 76 -3 16 -38
27 -49 16z m38 -27 c15 -28 12 -33 -10 -19 -21 13 -27 38 -10 38 5 0 14 -9 20
-19z"/>
<path d="M2994 108 c-4 -7 -3 -8 4 -4 7 4 12 9 12 12 0 8 -9 4 -16 -8z"/>
<path d="M474 62 c3 -30 7 -56 10 -60 10 -9 6 82 -4 98 -7 10 -8 -2 -6 -38z"/>
<path d="M1845 101 c-11 -5 -29 -19 -40 -32 -20 -23 -20 -23 12 -1 19 14 34
18 38 12 3 -5 14 -9 23 -9 15 1 15 2 0 6 -10 2 -18 9 -18 15 0 5 7 7 16 4 8
-3 12 -2 9 4 -7 12 -13 12 -40 1z"/>
<path d="M3020 100 c0 -5 5 -10 11 -10 5 0 7 5 4 10 -3 6 -8 10 -11 10 -2 0
-4 -4 -4 -10z"/>
<path d="M3168 103 c7 -3 16 -2 19 1 4 3 -2 6 -13 5 -11 0 -14 -3 -6 -6z"/>
<path d="M1108 80 c12 -11 29 -20 39 -19 15 0 14 2 -3 9 -12 5 -25 13 -29 19
-3 6 -11 11 -17 11 -7 0 -2 -9 10 -20z"/>
<path d="M2958 83 c10 -4 9 -9 -4 -24 -18 -21 -6 -27 14 -7 18 18 15 38 -5 37
-12 0 -13 -2 -5 -6z"/>
<path d="M3393 83 c4 -3 10 -3 14 0 3 4 0 7 -7 7 -7 0 -10 -3 -7 -7z"/>
<path d="M3423 83 c4 -3 10 -3 14 0 3 4 0 7 -7 7 -7 0 -10 -3 -7 -7z"/>
<path d="M3010 70 c0 -5 4 -10 9 -10 6 0 13 5 16 10 3 6 -1 10 -9 10 -9 0 -16
-4 -16 -10z"/>
<path d="M3475 70 c3 -5 8 -10 11 -10 2 0 4 5 4 10 0 6 -5 10 -11 10 -5 0 -7
-4 -4 -10z"/>
<path d="M1240 49 c34 -10 120 -11 120 -1 0 4 -33 7 -73 8 -45 0 -63 -2 -47
-7z"/>
<path d="M3363 53 c4 -3 10 -3 14 0 3 4 0 7 -7 7 -7 0 -10 -3 -7 -7z"/>
<path d="M352 25 c0 -17 2 -22 5 -12 2 9 2 23 0 30 -3 6 -5 -1 -5 -18z"/>
<path d="M1755 40 c-3 -5 -2 -10 4 -10 5 0 13 5 16 10 3 6 2 10 -4 10 -5 0
-13 -4 -16 -10z"/>
<path d="M1123 23 c4 -3 10 -3 14 0 3 4 0 7 -7 7 -7 0 -10 -3 -7 -7z"/>
<path d="M2903 23 c4 -3 10 -3 14 0 3 4 0 7 -7 7 -7 0 -10 -3 -7 -7z"/>
<path d="M1500 10 c-13 -8 -13 -10 2 -10 9 0 20 5 23 10 8 13 -5 13 -25 0z"/>
<path d="M1670 10 c-18 -5 -8 -7 34 -8 32 -1 57 0 55 2 -10 8 -67 12 -89 6z"/>
<path d="M1815 10 c-19 -8 -19 -9 3 -9 12 -1 22 4 22 9 0 6 -1 10 -2 9 -2 0
-12 -4 -23 -9z"/>
<path d="M1618 3 c7 -3 16 -2 19 1 4 3 -2 6 -13 5 -11 0 -14 -3 -6 -6z"/>
<path d="M2863 3 c9 -2 23 -2 30 0 6 3 -1 5 -18 5 -16 0 -22 -2 -12 -5z"/>
<path d="M3023 3 c4 -3 10 -3 14 0 3 4 0 7 -7 7 -7 0 -10 -3 -7 -7z"/>
</g>
</svg>
