<?xml version="1.0" standalone="no"?>
<!DOCTYPE svg PUBLIC "-//W3C//DTD SVG 20010904//EN"
 "http://www.w3.org/TR/2001/REC-SVG-20010904/DTD/svg10.dtd">
<svg version="1.0" xmlns="http://www.w3.org/2000/svg"
 width="384.000000pt" height="256.000000pt" viewBox="0 0 384.000000 256.000000"
 preserveAspectRatio="xMidYMid meet">
<metadata>
Created by potrace 1.16, written by Peter Selinger 2001-2019
</metadata>
<g transform="translate(0.000000,256.000000) scale(0.100000,-0.100000)"
fill="#000000" stroke="none">
<path d="M1215 2534 c4 -10 13 -40 18 -66 6 -27 15 -48 19 -48 4 0 8 -15 8
-34 0 -22 6 -36 16 -40 12 -5 15 -2 9 11 -18 47 -18 84 1 98 23 17 149 20 160
4 4 -7 9 -7 13 -2 3 6 20 15 36 21 24 9 0 10 -112 6 -141 -6 -141 -6 -148 25
-3 17 -11 34 -17 38 -8 4 -9 0 -3 -13z"/>
<path d="M2278 2543 c-21 -2 -38 -9 -38 -14 0 -6 22 -7 59 -3 52 6 66 3 116
-21 63 -29 84 -28 33 2 -29 17 -121 46 -130 41 -2 -1 -20 -3 -40 -5z"/>
<path d="M843 2492 c57 -84 75 -133 93 -252 15 -103 33 -175 33 -130 0 8 -8
71 -18 138 -18 115 -23 130 -67 202 -26 44 -53 81 -61 84 -7 3 2 -16 20 -42z"/>
<path d="M2109 2526 c-2 -2 -2 -42 1 -88 4 -83 4 -83 10 -3 5 72 2 103 -11 91z"/>
<path d="M2917 2460 c4 -41 7 -112 7 -157 1 -45 3 -79 6 -76 11 11 26 153 17
168 -5 9 -11 31 -13 48 -10 78 -23 91 -17 17z"/>
<path d="M3534 2521 c4 -5 21 -13 39 -16 17 -4 40 -16 50 -26 19 -20 37 -25
37 -10 0 17 -54 49 -93 55 -23 4 -36 2 -33 -3z"/>
<path d="M2500 2500 c8 -5 11 -10 5 -10 -5 0 -3 -5 5 -11 11 -7 12 -12 3 -15
-7 -3 -10 -11 -7 -18 3 -7 -4 -21 -16 -31 -18 -16 -20 -30 -20 -136 0 -118 0
-118 -100 -117 -112 2 -106 -2 -113 83 -3 38 -3 39 -11 12 -5 -17 -4 -44 3
-70 12 -42 12 -42 118 -40 58 1 108 4 111 8 3 3 8 58 10 123 3 82 8 122 18
133 8 9 16 35 18 57 3 37 1 42 -18 42 -17 0 -18 -2 -6 -10z"/>
<path d="M3475 2470 c-3 -5 -2 -10 4 -10 5 0 13 5 16 10 3 6 2 10 -4 10 -5 0
-13 -4 -16 -10z"/>
<path d="M3539 2451 c-24 -25 -38 -51 -26 -51 2 0 18 18 36 40 37 47 32 53
-10 11z"/>
<path d="M909 2448 c8 -21 14 -23 75 -21 62 2 66 1 66 -19 0 -21 0 -21 -15 -2
-18 24 -19 5 -1 -31 12 -23 15 -24 19 -8 4 15 5 14 6 -4 2 -34 -16 -28 -38 15
-11 20 -20 30 -21 21 0 -17 39 -100 40 -84 0 6 6 3 13 -5 31 -38 44 -4 24 60
-3 8 -8 27 -11 43 -6 26 -9 27 -72 27 -48 0 -66 4 -70 15 -4 8 -10 15 -15 15
-5 0 -5 -10 0 -22z"/>
<path d="M1110 2415 c0 -25 20 -108 31 -128 6 -11 9 -20 7 -20 -55 -27 -63
-35 -59 -58 1 -13 6 -26 10 -29 5 -4 6 -32 2 -82 -1 -13 -10 -18 -31 -18 -16
0 -30 -4 -30 -9 0 -5 11 -8 24 -5 16 3 28 -2 34 -12 7 -13 10 -8 15 21 3 21
13 45 21 54 76 81 79 92 37 138 -22 24 -30 45 -35 92 -6 54 -26 97 -26 56z
m66 -179 c4 -16 -3 -35 -21 -62 -35 -51 -37 -53 -34 -24 2 14 -3 35 -9 48 -15
26 -9 40 22 52 32 13 35 12 42 -14z"/>
<path d="M293 2414 c-23 -10 8 -78 61 -134 50 -53 51 -54 26 -60 -29 -8 -46 3
-72 45 -10 17 -18 24 -18 16 0 -8 10 -28 23 -45 13 -17 34 -59 46 -93 20 -53
28 -64 59 -76 21 -8 41 -12 46 -9 6 3 -5 11 -24 17 -24 8 -34 18 -36 36 -4 23
-3 23 11 5 8 -11 15 -17 15 -13 0 11 -35 82 -44 88 -12 9 12 22 25 13 28 -17
-5 53 -37 79 -30 25 -64 74 -64 92 0 3 12 2 27 -1 22 -6 25 -4 20 10 -4 10 -1
16 8 16 8 0 15 -7 15 -16 0 -9 6 -14 13 -11 8 3 13 -9 14 -40 1 -25 9 -67 18
-94 9 -27 14 -59 10 -71 -5 -19 -4 -20 5 -8 10 12 11 11 7 -8 -3 -12 -2 -20 2
-18 4 3 13 -16 19 -41 7 -25 15 -43 19 -40 6 6 -29 150 -50 202 -6 16 -12 59
-12 95 0 65 0 65 -60 67 -33 1 -65 0 -72 -3z m114 -21 c-4 -3 -7 0 -7 7 0 7 3
10 7 7 3 -4 3 -10 0 -14z"/>
<path d="M954 2382 c-13 -34 3 -102 25 -109 9 -2 24 -9 34 -14 28 -15 39 -1
21 27 -9 13 -19 22 -22 19 -13 -12 -32 21 -32 56 0 47 -13 57 -26 21z"/>
<path d="M2748 2393 c-16 -2 -28 -9 -28 -15 0 -6 10 -8 23 -4 12 3 32 6 45 6
12 0 22 5 22 10 0 10 -12 11 -62 3z"/>
<path d="M2544 2368 c-4 -7 -3 -8 4 -4 7 4 12 9 12 12 0 8 -9 4 -16 -8z"/>
<path d="M2570 2376 c0 -2 7 -7 16 -10 8 -3 12 -2 9 4 -6 10 -25 14 -25 6z"/>
<path d="M377 2339 c4 -13 8 -18 11 -10 2 7 -1 18 -6 23 -8 8 -9 4 -5 -13z"/>
<path d="M2710 2342 c-86 -17 -147 -19 -163 -3 -6 6 -18 11 -26 10 -9 0 2 -10
24 -20 39 -20 20 -22 -30 -4 -19 6 -19 6 -2 -8 18 -15 209 -15 280 0 25 5 28
3 25 -13 -2 -11 -8 -19 -13 -19 -12 0 -78 -73 -94 -103 -23 -44 -11 -161 21
-209 33 -49 24 -55 -22 -17 -17 15 -33 24 -36 21 -3 -3 18 -24 46 -46 49 -38
50 -41 23 -38 -16 2 -35 7 -42 12 -10 5 -12 4 -7 -4 6 -9 -5 -10 -46 -6 -130
16 -168 43 -168 121 0 57 9 70 37 55 10 -6 37 -15 61 -21 42 -11 42 -11 43
-78 2 -67 2 -67 9 -7 10 73 1 91 -47 100 -53 9 -81 30 -86 62 -4 28 -4 28 -6
1 0 -15 -11 -34 -23 -42 -12 -9 -17 -16 -10 -16 9 0 12 -15 10 -52 -3 -52 -3
-52 -41 -60 -46 -9 -114 -43 -144 -71 -24 -22 -35 -24 -128 -27 -51 -2 -55 -4
-25 -9 57 -11 123 -2 150 19 65 53 200 100 200 71 0 -5 21 -20 48 -33 42 -21
61 -23 179 -23 151 0 186 13 189 72 2 33 -12 35 -63 11 -43 -21 -123 69 -123
137 0 77 82 172 157 180 13 1 27 6 31 10 10 10 -45 55 -68 55 -10 0 -24 2 -32
4 -7 2 -47 -3 -88 -12z m80 -12 c-8 -5 -19 -10 -25 -10 -5 0 -3 5 5 10 8 5 20
10 25 10 6 0 3 -5 -5 -10z m-77 -7 c-7 -2 -19 -2 -25 0 -7 3 -2 5 12 5 14 0
19 -2 13 -5z m147 -2 c0 -17 -18 -21 -24 -6 -3 9 0 15 9 15 8 0 15 -4 15 -9z
m-77 -370 c-4 -6 -73 61 -73 71 0 4 17 -9 38 -29 21 -21 37 -40 35 -42z m93
-2 c3 -6 -1 -18 -10 -27 -14 -14 -18 -14 -25 -4 -7 11 -9 11 -14 -2 -7 -17
-47 -22 -47 -6 0 6 5 10 10 10 6 0 9 5 8 12 -2 6 8 15 22 19 37 11 48 10 56
-2z"/>
<path d="M1455 2330 c4 -6 20 -10 37 -10 49 0 108 -22 120 -44 6 -11 10 -46 9
-77 -1 -32 2 -60 7 -63 5 -3 10 19 11 49 2 65 -18 109 -57 128 -33 17 -135 30
-127 17z"/>
<path d="M1383 2323 c9 -2 23 -2 30 0 6 3 -1 5 -18 5 -16 0 -22 -2 -12 -5z"/>
<path d="M2673 2235 c0 -33 2 -45 4 -27 2 18 2 45 0 60 -2 15 -4 0 -4 -33z"/>
<path d="M2855 2250 c-22 -16 -45 -29 -51 -30 -14 0 -54 -43 -54 -58 0 -7 13
2 30 20 34 38 39 25 9 -26 -22 -39 -20 -85 7 -107 17 -14 18 -29 3 -29 -14 0
-48 41 -49 59 0 8 -3 11 -6 8 -10 -10 17 -67 37 -77 37 -20 109 -3 109 26 0 4
-5 3 -12 -4 -14 -14 -58 -16 -58 -2 0 5 6 7 13 4 18 -7 73 45 82 76 7 25 7 25
-11 0 -22 -32 -44 -50 -62 -50 -9 0 -1 12 17 28 31 27 32 31 35 110 1 45 2 82
2 82 -1 -1 -19 -14 -41 -30z m17 -17 c-5 -10 -18 -40 -30 -66 -12 -27 -22 -65
-22 -84 0 -30 -2 -34 -15 -23 -30 25 4 139 52 176 23 17 24 17 15 -3z m-11
-84 c-12 -19 -21 -30 -21 -26 0 14 31 69 36 64 3 -3 -4 -20 -15 -38z"/>
<path d="M1272 2250 c0 -14 2 -19 5 -12 2 6 2 18 0 25 -3 6 -5 1 -5 -13z"/>
<path d="M3730 2266 c0 -8 92 -58 97 -53 2 3 -15 17 -40 31 -42 25 -57 31 -57
22z"/>
<path d="M85 2250 c-9 -15 5 -57 26 -76 25 -22 26 -1 5 51 -16 37 -21 41 -31
25z m29 -56 c3 -8 2 -12 -4 -9 -6 3 -10 10 -10 16 0 14 7 11 14 -7z"/>
<path d="M840 2238 c-42 -18 -47 -25 -67 -84 -34 -100 -13 -75 28 35 5 13 12
21 15 18 10 -9 -48 -127 -67 -138 -11 -5 -18 -13 -16 -18 3 -11 -81 -81 -97
-81 -7 0 -23 -10 -36 -22 -16 -15 -25 -18 -28 -10 -2 7 -10 12 -17 12 -8 0
-25 19 -39 43 -14 23 -26 35 -26 26 0 -8 11 -31 25 -50 16 -20 24 -42 21 -54
-3 -10 1 -26 8 -35 18 -22 46 -116 46 -157 0 -21 4 -32 10 -28 20 12 -3 120
-40 187 -6 10 -10 27 -10 39 0 19 1 19 16 5 32 -33 165 -34 249 -2 52 19 45
19 -40 1 -78 -16 -171 -20 -179 -6 -14 22 51 46 154 56 66 7 155 31 185 51 22
14 22 14 4 97 -10 45 -19 94 -19 110 0 33 -15 34 -80 5z m60 0 c0 -2 9 -45 20
-97 18 -89 18 -95 2 -107 -24 -18 -124 -45 -158 -43 -16 1 -38 -2 -49 -6 -13
-5 -6 6 19 33 39 41 67 51 31 12 -10 -11 -16 -23 -12 -26 12 -12 99 147 112
204 3 18 13 32 21 32 8 0 14 -1 14 -2z m-74 -93 c-35 -76 -40 -69 -8 11 14 36
28 61 30 55 2 -6 -8 -36 -22 -66z"/>
<path d="M2043 2244 c3 -11 8 -38 12 -61 8 -53 38 -65 55 -22 7 15 10 34 7 41
-3 7 -6 3 -6 -8 -2 -44 -29 -49 -40 -7 -6 21 -11 43 -11 50 0 6 -5 15 -11 19
-7 4 -9 0 -6 -12z"/>
<path d="M2110 2250 c0 -7 3 -10 7 -7 3 4 3 10 0 14 -4 3 -7 0 -7 -7z"/>
<path d="M3466 2235 c-3 -8 -1 -15 4 -15 6 0 10 7 10 15 0 8 -2 15 -4 15 -2 0
-6 -7 -10 -15z"/>
<path d="M3645 2240 c3 -5 8 -10 11 -10 3 0 2 5 -1 10 -3 6 -8 10 -11 10 -3 0
-2 -4 1 -10z"/>
<path d="M3699 2207 c13 -15 28 -24 32 -21 5 3 6 -1 3 -9 -3 -8 -1 -18 5 -22
6 -3 11 1 11 9 0 9 5 16 11 16 17 0 -32 36 -61 45 -25 7 -25 7 -1 -18z"/>
<path d="M1671 2204 c0 -11 3 -14 6 -6 3 7 2 16 -1 19 -3 4 -6 -2 -5 -13z"/>
<path d="M3463 2175 c0 -22 2 -30 4 -17 2 12 2 30 0 40 -3 9 -5 -1 -4 -23z"/>
<path d="M3411 2174 c0 -11 3 -14 6 -6 3 7 2 16 -1 19 -3 4 -6 -2 -5 -13z"/>
<path d="M2920 2170 c0 -5 5 -10 11 -10 5 0 7 5 4 10 -3 6 -8 10 -11 10 -2 0
-4 -4 -4 -10z"/>
<path d="M2975 2163 c53 -11 82 -35 229 -188 86 -91 164 -165 171 -165 18 0
85 -66 85 -84 0 -7 19 -31 42 -52 23 -22 81 -77 128 -124 107 -105 200 -185
200 -172 0 6 -25 32 -56 59 -80 68 -224 213 -224 224 0 6 -4 8 -9 4 -9 -5 -71
53 -71 67 0 4 8 5 18 2 12 -4 12 -2 -3 7 -11 6 -34 25 -51 41 -33 31 -34 54
-4 132 11 31 50 37 50 7 0 -10 7 -24 15 -31 17 -14 18 -10 6 23 -8 22 -7 24 9
20 23 -6 37 -42 20 -53 -8 -5 -4 -22 14 -61 24 -52 25 -53 31 -26 4 15 4 40 0
55 -4 15 -7 46 -6 68 1 39 -1 41 -24 37 -13 -3 -38 0 -55 6 -54 18 -90 -24
-90 -105 0 -63 5 -67 -307 253 -56 57 -66 63 -100 62 -21 -1 -29 -3 -18 -6z
m582 -240 c-4 -3 -7 0 -7 7 0 7 3 10 7 7 3 -4 3 -10 0 -14z"/>
<path d="M3796 2157 c3 -10 9 -15 12 -12 3 3 0 11 -7 18 -10 9 -11 8 -5 -6z"/>
<path d="M1935 2150 c-16 -7 -17 -9 -3 -9 9 -1 20 4 23 9 7 11 7 11 -20 0z"/>
<path d="M2153 2145 c0 -8 6 -15 13 -15 8 0 11 6 8 15 -4 8 -9 15 -13 15 -4 0
-8 -7 -8 -15z"/>
<path d="M2113 2133 c4 -3 10 -3 14 0 3 4 0 7 -7 7 -7 0 -10 -3 -7 -7z"/>
<path d="M1588 2069 c2 -32 8 -57 12 -54 13 8 10 93 -3 104 -9 7 -11 -6 -9
-50z"/>
<path d="M1813 2102 c-28 -15 -60 -35 -70 -44 -10 -10 -43 -24 -73 -32 -30 -8
-47 -15 -36 -15 10 -1 36 4 57 10 35 11 40 10 68 -14 35 -29 108 -53 226 -73
44 -8 109 -22 145 -31 66 -16 66 -16 121 19 30 19 80 63 112 98 77 85 67 98
-78 105 -100 4 -100 4 -5 -6 145 -16 145 -19 -6 -149 -16 -13 -42 -35 -57 -49
-28 -24 -28 -24 -85 -7 -31 9 -111 27 -177 40 -139 28 -163 36 -188 64 -25 27
-18 36 61 77 37 19 60 34 52 34 -8 0 -38 -13 -67 -27z"/>
<path d="M3452 2110 c0 -14 2 -19 5 -12 2 6 2 18 0 25 -3 6 -5 1 -5 -13z"/>
<path d="M3440 2070 c0 -7 3 -10 7 -7 3 4 3 10 0 14 -4 3 -7 0 -7 -7z"/>
<path d="M308 2053 c12 -2 30 -2 40 0 9 3 -1 5 -23 4 -22 0 -30 -2 -17 -4z"/>
<path d="M3820 2050 c0 -7 3 -10 7 -7 3 4 3 10 0 14 -4 3 -7 0 -7 -7z"/>
<path d="M3776 2004 c-15 -24 -26 -47 -24 -50 7 -6 60 75 56 87 -2 5 -16 -12
-32 -37z"/>
<path d="M979 2017 c-10 -45 0 -148 21 -207 44 -129 82 -284 76 -314 -30 -147
-277 -221 -370 -110 -51 62 -72 106 -95 202 -14 53 -31 98 -42 108 -22 20 -25
7 -4 -20 19 -25 20 -42 2 -27 -11 8 -18 1 -35 -32 -30 -62 -43 -97 -33 -97 5
0 16 20 26 45 17 46 55 81 55 51 0 -8 -5 -18 -11 -22 -6 -3 -18 -21 -26 -38
-39 -85 -130 -201 -268 -341 -122 -124 -171 -182 -163 -191 3 -2 24 20 48 51
24 31 59 69 80 85 38 30 192 200 234 260 14 19 36 49 48 67 13 18 33 38 46 44
12 7 22 22 23 33 0 13 5 6 15 -19 31 -82 66 -143 105 -181 40 -39 40 -39 127
-39 80 1 92 4 144 33 112 64 128 134 75 317 -15 50 -27 92 -27 95 0 3 14 7 32
8 47 4 48 12 1 12 -53 0 -64 24 -72 155 -4 61 -9 89 -12 72z"/>
<path d="M2562 2005 c0 -16 2 -22 5 -12 2 9 2 23 0 30 -3 6 -5 -1 -5 -18z"/>
<path d="M1806 2012 c10 -10 144 -42 165 -41 11 0 -152 47 -170 49 -3 0 -1 -4
5 -8z"/>
<path d="M1600 1961 c0 -21 -2 -60 -5 -87 -4 -33 -3 -43 3 -29 15 34 25 155
13 155 -6 0 -11 -17 -11 -39z"/>
<path d="M3634 1962 c-6 -10 -14 -33 -18 -52 -6 -35 -6 -35 14 8 21 45 24 47
67 32 28 -10 28 -10 3 10 -31 24 -52 25 -66 2z"/>
<path d="M2561 1954 c0 -11 3 -14 6 -6 3 7 2 16 -1 19 -3 4 -6 -2 -5 -13z"/>
<path d="M2911 1936 c2 -2 39 -18 82 -36 150 -62 166 -144 39 -198 -49 -21
-194 -45 -218 -35 -34 13 -9 -9 35 -32 52 -26 88 -63 97 -101 4 -17 31 -37 89
-69 220 -120 345 -261 391 -444 92 -364 -458 -765 -1092 -797 -242 -13 -375
-5 -559 31 -718 140 -1030 676 -619 1063 38 37 101 85 139 108 74 43 92 41
158 -23 14 -14 80 -43 97 -43 13 1 -36 30 -49 30 -9 0 -29 14 -44 30 -16 17
-35 30 -42 30 -28 0 -24 19 7 43 59 44 72 43 128 -9 27 -26 50 -42 50 -37 0 6
-23 31 -52 56 -57 50 -70 51 -135 1 -38 -29 -53 -31 -28 -4 10 11 16 23 12 26
-3 3 -13 -5 -22 -19 -9 -14 -53 -49 -98 -78 -523 -340 -380 -900 288 -1132
106 -37 285 -77 341 -77 30 0 34 -3 35 -27 2 -25 2 -25 6 -5 4 23 6 23 111 16
60 -3 181 -1 277 6 94 7 180 13 192 14 11 1 20 3 18 6 -2 3 28 12 66 19 79 14
183 47 279 86 36 15 73 27 83 27 9 -1 15 3 13 7 -3 4 17 18 44 31 28 13 50 27
50 31 0 3 8 9 18 13 24 8 56 29 65 43 4 7 15 13 22 13 8 0 15 5 15 10 0 6 7
10 16 10 8 0 13 4 10 9 -3 4 5 7 19 6 14 -2 22 1 19 8 -2 7 15 32 39 58 24 25
46 53 50 62 3 9 11 17 17 17 6 0 8 5 5 10 -4 6 -1 9 6 8 7 -2 22 -21 34 -43
11 -22 33 -60 47 -85 14 -25 48 -88 75 -140 79 -151 190 -342 218 -375 25 -29
25 -16 0 15 -32 38 -343 633 -346 660 -4 38 1 52 14 42 10 -8 12 -2 10 31 -2
32 -1 37 6 21 25 -58 368 -500 379 -489 3 2 -56 80 -130 172 -75 93 -160 205
-190 249 -55 82 -55 82 -50 156 13 208 -119 397 -387 553 -61 37 -91 60 -103
84 -9 18 -26 43 -37 55 -21 23 -21 23 17 34 22 7 68 12 103 13 35 0 91 7 124
15 60 14 60 14 10 9 -27 -3 -84 -8 -125 -11 -75 -4 -75 -4 -20 22 30 14 61 27
69 28 8 2 15 9 17 17 10 60 16 58 104 -36 47 -50 97 -100 111 -110 14 -11 64
-64 111 -118 47 -54 111 -117 142 -140 67 -51 68 -53 13 -49 -39 3 -48 0 -82
-32 -36 -34 -37 -38 -33 -88 6 -58 10 -80 18 -88 3 -3 17 -23 32 -46 40 -62
86 -103 151 -135 76 -37 126 -75 137 -105 11 -29 15 -30 17 -4 2 26 -66 84
-145 121 -72 35 -117 78 -156 149 -36 66 -29 63 23 -9 46 -63 105 -111 160
-129 48 -17 51 -7 5 13 -67 28 -113 66 -161 134 -26 36 -53 72 -60 79 -7 8
-10 19 -6 25 4 6 9 2 14 -10 4 -12 24 -34 44 -50 20 -15 50 -49 66 -76 33 -50
68 -80 109 -91 16 -5 8 4 -22 23 -52 34 -85 84 -118 181 -12 36 -28 77 -36 92
-14 26 -14 28 9 33 89 23 231 -92 253 -204 4 -17 11 -31 16 -31 31 0 -45 136
-104 188 -17 15 -55 50 -85 79 -29 28 -62 55 -72 58 -11 3 -58 52 -106 108
-47 56 -99 111 -114 122 -24 18 -92 89 -242 252 -34 36 -64 57 -113 76 -59 24
-97 34 -85 23z m9 -290 c-22 -9 -41 -10 -52 -4 -25 12 -24 13 35 15 52 2 52 2
17 -11z m648 -488 c28 -84 7 -77 -41 14 -18 33 -22 49 -14 57 16 16 32 -5 55
-71z"/>
<path d="M3454 1908 c-4 -7 -3 -8 4 -4 12 7 16 16 8 16 -3 0 -8 -5 -12 -12z"/>
<path d="M2475 1860 c9 -42 38 -102 57 -117 7 -5 55 -21 107 -34 69 -17 95
-28 99 -41 2 -10 14 -18 25 -18 21 0 21 0 -1 16 -24 16 -30 36 -9 33 38 -5 88
34 117 92 28 54 25 59 -22 35 -35 -17 -61 -21 -138 -20 -116 0 -174 16 -213
57 -30 32 -30 32 -22 -3z m71 -46 c58 -25 238 -31 287 -11 40 17 40 15 3 -36
-16 -21 -26 -26 -46 -23 -14 3 -41 1 -60 -4 -33 -9 -33 -9 13 -6 53 3 60 -12
11 -26 -19 -5 -47 -3 -79 6 -27 7 -69 19 -93 25 -31 9 -48 21 -62 44 -32 52
-30 54 26 31z"/>
<path d="M2820 1785 c-17 -10 -20 -14 -9 -15 9 0 22 7 29 15 15 18 12 18 -20
0z"/>
<path d="M1805 1849 c-37 -13 -73 -18 -95 -15 -52 8 -109 -12 -126 -46 -44
-85 -251 -128 -328 -67 -14 11 -26 27 -26 34 0 8 -5 17 -12 21 -7 4 -8 3 -4
-4 4 -7 2 -12 -5 -12 -6 0 7 -20 29 -44 22 -24 43 -56 46 -72 14 -62 28 -69
129 -68 100 1 143 16 171 56 16 22 16 22 27 -10 6 -18 15 -30 19 -27 14 8 90
-26 90 -40 0 -7 -12 -16 -26 -19 -22 -6 -24 -9 -13 -23 8 -9 15 -11 17 -4 4
13 22 15 22 3 0 -5 -11 -15 -25 -22 -31 -17 -33 -32 -2 -25 36 9 139 -62 126
-87 -5 -10 -7 -18 -3 -18 15 0 -39 -49 -67 -61 -27 -11 -33 -9 -58 15 -24 23
-29 25 -47 12 -10 -8 -16 -18 -12 -22 4 -4 13 -2 21 4 10 8 23 2 57 -27 47
-40 50 -66 5 -37 -25 17 -25 16 -13 -3 7 -11 22 -22 34 -25 12 -3 30 -9 41
-12 17 -5 17 -5 1 9 -10 8 -18 18 -18 22 0 14 61 -48 76 -77 8 -15 14 -30 14
-33 0 -8 -77 -85 -85 -85 -11 0 -5 29 8 33 9 4 8 8 -3 16 -25 17 -42 -49 -18
-71 10 -9 18 -22 18 -30 0 -11 -2 -11 -9 1 -5 7 -11 9 -13 5 -3 -5 -3 -3 -2 4
7 25 -17 11 -27 -16 -12 -34 -104 -72 -179 -73 -35 -1 -39 -3 -20 -8 18 -5 21
-9 11 -15 -8 -5 -21 -1 -34 13 -21 21 -21 21 18 54 22 17 45 31 52 29 7 -2 10
3 7 11 -3 8 2 17 10 20 9 4 16 2 16 -3 0 -9 71 -33 77 -26 2 2 -10 8 -26 14
-35 12 -42 42 -11 42 11 0 20 4 20 10 0 5 -13 8 -30 6 -16 -2 -27 1 -24 5 7
12 41 11 66 -2 18 -10 20 -9 15 5 -4 9 -2 16 3 16 6 0 10 -5 10 -12 0 -6 3 -8
7 -5 3 4 -3 17 -14 30 -11 12 -24 40 -28 61 -7 39 -7 39 -30 10 -13 -16 -21
-33 -17 -39 3 -5 -4 -2 -16 9 -12 10 -19 23 -16 27 3 5 -6 4 -21 -3 -42 -19
-48 0 -20 76 32 88 32 90 -8 104 -41 15 -57 15 -57 2 0 -5 9 -10 19 -10 47 0
73 -42 36 -56 -9 -4 -13 -13 -10 -24 3 -9 2 -26 -2 -36 -6 -17 -8 -16 -14 6
-6 22 -7 20 -14 -17 -4 -24 -12 -43 -17 -43 -35 0 -177 -158 -162 -181 7 -12
-50 -43 -73 -40 -48 5 -27 -40 53 -119 41 -41 82 -90 90 -107 8 -18 19 -33 25
-33 7 0 6 6 -2 17 -8 9 -9 14 -2 10 6 -4 13 -2 15 5 3 7 16 -5 30 -27 14 -22
24 -42 22 -44 -13 -15 -114 61 -111 84 1 10 -44 37 -51 31 -1 -2 14 -22 34
-45 39 -43 121 -97 132 -87 3 4 19 -7 36 -23 42 -39 78 -46 107 -21 29 24 18
26 -16 4 -29 -19 -33 -12 -7 14 15 15 30 18 74 14 32 -2 64 1 77 8 18 9 27 8
46 -4 14 -9 31 -16 38 -16 20 0 124 -47 132 -59 3 -6 11 -11 17 -11 21 0 -18
33 -61 52 -45 19 -45 19 -11 52 19 18 40 31 47 29 6 -2 27 0 47 5 54 15 79 -7
41 -36 -30 -24 -50 -96 -39 -145 5 -22 11 -27 37 -27 20 0 47 -12 71 -30 56
-43 87 -46 139 -16 42 25 92 39 57 16 -8 -5 -11 -10 -6 -10 5 0 17 6 25 13 32
27 118 49 226 58 335 27 354 35 510 213 78 89 78 89 71 155 -9 83 -59 175
-115 214 -46 30 -46 30 0 -14 67 -63 115 -171 91 -202 -5 -7 -12 -26 -15 -44
-7 -38 -43 -96 -71 -113 -17 -11 -18 -10 -13 9 3 12 1 24 -4 27 -5 3 -9 -8 -9
-24 0 -35 -61 -123 -103 -147 -47 -28 -125 -44 -237 -51 -150 -9 -243 23 -318
110 -92 105 -103 150 -77 298 13 73 137 156 238 159 21 0 21 1 2 9 -20 8 -20
8 0 16 28 11 99 63 108 79 8 15 -8 29 -23 20 -14 -9 -13 48 2 63 8 8 9 12 1
12 -6 0 -19 -7 -27 -16 -14 -13 -16 -13 -16 0 0 8 -7 16 -16 18 -13 2 -9 10
15 35 17 18 31 30 31 26 0 -3 9 2 19 11 15 13 20 14 25 4 3 -7 4 -4 3 7 -2 17
4 20 43 21 68 3 140 15 140 25 0 9 -45 14 -65 8 -5 -2 -26 -2 -45 -2 -33 2
-34 1 -16 -13 20 -14 10 -19 -18 -8 -12 5 -13 9 -3 24 6 11 7 23 3 27 -5 4
-11 2 -13 -4 -3 -7 -13 -13 -23 -13 -26 0 -50 -10 -50 -22 0 -5 9 -6 20 -3 31
10 23 -8 -15 -32 -36 -23 -45 -21 -45 10 0 11 -3 17 -7 13 -4 -4 -6 -22 -5
-40 2 -29 -4 -39 -38 -66 -23 -18 -38 -35 -35 -38 3 -3 11 0 17 6 24 24 58 14
73 -20 7 -18 11 -36 9 -40 -3 -5 2 -8 10 -8 9 0 16 -5 16 -10 0 -15 -144 -106
-179 -113 -31 -7 -101 -48 -133 -79 -28 -28 -41 -22 -36 16 3 24 -1 37 -14 45
-16 10 -17 8 -11 -19 4 -22 2 -30 -9 -30 -23 0 -17 -40 7 -41 19 0 19 -1 -2
-11 -37 -18 -26 -27 15 -13 46 16 45 17 28 -31 -12 -36 -13 -111 0 -171 2 -12
29 -51 59 -88 30 -37 55 -71 55 -75 0 -4 13 -13 29 -20 16 -6 32 -18 35 -26 3
-8 10 -14 16 -14 6 0 9 4 5 9 -3 6 10 5 32 0 56 -15 63 -20 20 -13 -27 4 -47
0 -70 -14 -18 -11 -57 -25 -87 -31 -30 -7 -70 -21 -88 -31 -42 -25 -79 -25
-116 0 -30 19 -30 19 -4 29 14 5 36 26 49 47 13 21 37 50 53 65 30 27 30 27
-12 73 -48 52 -51 60 -21 51 15 -5 19 -4 15 4 -4 6 -17 11 -30 11 -12 0 -33
11 -46 25 -13 14 -28 25 -34 25 -6 0 -4 -4 4 -10 8 -5 11 -13 6 -17 -11 -11
-36 26 -35 51 2 37 16 83 19 61 1 -20 1 -20 9 0 7 18 9 17 24 -12 18 -35 41
-55 30 -27 -5 13 -3 16 9 11 9 -3 24 0 34 8 17 12 17 13 -7 8 -33 -6 -68 23
-75 62 -2 17 -14 43 -26 59 -21 29 -21 29 2 46 13 10 20 22 16 29 -5 8 -13 4
-26 -11 -18 -22 -20 -22 -47 -8 -37 21 -39 61 -3 66 62 9 70 14 70 42 0 24 -4
28 -32 30 -17 2 -38 8 -45 14 -10 8 -18 7 -32 -6 -24 -22 -51 6 -51 52 0 42
-15 48 -33 13 -11 -21 -12 -32 -4 -40 8 -8 8 -11 -1 -11 -7 0 -40 28 -73 62
-61 62 -61 62 -33 87 16 13 27 31 26 40 -6 24 27 42 51 29 18 -9 25 -5 56 30
63 73 194 108 235 64 9 -11 33 -24 54 -30 51 -15 70 -51 67 -124 -3 -68 4 -72
27 -18 14 35 9 60 -6 28 -3 -7 -4 1 -2 17 6 43 -29 92 -77 107 -20 6 -43 18
-50 26 -10 12 -6 12 21 -2 17 -9 32 -13 32 -8 0 4 -19 18 -42 30 -24 12 -54
29 -68 39 -25 17 -25 17 0 -11 25 -27 25 -27 0 -18 -14 5 -32 8 -40 6 -8 -2
-10 -1 -3 2 19 9 -36 94 -60 94 -6 0 -3 -8 5 -17 43 -50 27 -48 -29 4 -15 14
-39 8 -46 -12 -7 -17 38 -56 82 -71 34 -11 34 -11 -17 -28 -29 -10 -54 -21
-57 -26 -7 -11 -113 35 -141 61 -11 10 -23 19 -27 19 -4 0 -26 9 -50 20 -23
10 -60 25 -82 32 -34 11 -40 17 -43 45 -4 40 29 64 54 38 8 -8 22 -15 30 -15
8 0 14 -3 14 -8 0 -4 10 -13 23 -21 21 -13 21 -12 5 5 -16 16 -16 18 0 31 15
12 15 13 -8 12 -39 -3 -60 0 -60 9 0 11 108 -3 145 -19 58 -25 94 -18 101 18
3 17 3 36 0 42 -16 25 53 106 100 121 28 8 28 8 4 9 -14 1 -38 -6 -54 -14 -36
-19 -50 -19 -66 0 -16 19 -31 18 -105 -6z m109 -14 c23 -16 23 -16 5 -52 -14
-27 -16 -41 -8 -55 24 -45 -25 -59 -100 -29 -45 18 -45 18 13 25 99 13 55 17
-55 5 -57 -5 -117 -17 -133 -26 -24 -13 -28 -13 -24 -2 3 8 2 23 -3 34 -7 18
-8 18 -8 -5 -1 -14 -11 -45 -24 -70 -27 -54 -67 -71 -170 -72 -76 -1 -87 6
-111 62 -14 35 -14 35 90 36 105 1 114 -1 92 -25 -11 -11 -10 -13 2 -9 8 2 17
14 20 27 3 12 20 32 39 43 34 22 34 22 27 -8 -4 -16 -12 -31 -17 -32 -10 -4
-2 -22 10 -22 8 0 23 48 25 79 1 8 11 17 23 22 14 5 21 14 17 23 -8 22 22 33
108 39 42 3 85 10 95 16 26 15 60 13 87 -4z m111 -265 c3 -5 -1 -10 -9 -10 -8
0 -18 5 -21 10 -3 6 1 10 9 10 8 0 18 -4 21 -10z m28 -27 c-7 -2 -19 -2 -25 0
-7 3 -2 5 12 5 14 0 19 -2 13 -5z m-265 -34 c9 -1 20 -1 23 -1 4 1 36 -11 72
-26 65 -28 65 -28 43 -54 -27 -34 -79 -27 -152 23 -47 32 -50 36 -42 61 9 25
11 26 25 13 8 -8 22 -16 31 -16z m17 21 c7 -12 -2 -12 -30 0 -19 8 -19 9 2 9
12 1 25 -3 28 -9z m15 -306 c0 -7 -21 6 -47 29 -12 11 -20 24 -17 28 5 8 64
-45 64 -57z m60 -66 c0 -18 -17 -6 -34 25 -19 32 -19 32 7 8 15 -14 27 -28 27
-33z m60 36 c0 -8 -4 -12 -10 -9 -5 3 -10 10 -10 16 0 5 5 9 10 9 6 0 10 -7
10 -16z m-414 -59 c18 -14 18 -16 -15 -46 -25 -23 -30 -34 -22 -42 9 -9 14 -9
20 1 4 7 24 15 44 19 33 5 37 3 37 -16 0 -28 -29 -39 -45 -18 -15 21 -25 22
-25 2 0 -8 5 -15 10 -15 6 0 10 -5 10 -11 0 -6 -15 -1 -32 13 -18 13 -40 24
-48 23 -17 0 -39 43 -32 63 5 13 50 41 68 42 5 0 19 -7 30 -15z m428 -1 c5
-14 4 -15 -9 -4 -17 14 -19 20 -6 20 5 0 12 -7 15 -16z m-351 -20 c30 -25 30
-25 -9 -22 -32 2 -39 7 -40 26 -2 29 11 28 49 -4z m290 1 c-3 -8 -9 -15 -14
-15 -5 0 -9 -4 -9 -10 0 -5 7 -10 15 -10 8 0 15 5 15 11 0 5 5 7 10 4 6 -3 10
-14 10 -24 0 -13 8 -18 30 -19 17 0 30 4 30 9 0 6 -4 8 -9 5 -5 -3 -11 4 -14
15 -5 20 -5 20 14 3 11 -10 18 -23 15 -30 -3 -7 11 -26 30 -44 19 -17 32 -35
29 -39 -3 -5 2 -25 10 -45 20 -47 19 -115 -2 -138 -15 -17 -15 -19 2 -38 24
-26 12 -37 -22 -20 -16 7 -33 13 -40 12 -6 -2 -34 23 -62 55 -47 53 -50 58
-31 65 22 8 25 19 11 33 -5 6 -12 19 -15 30 -3 11 -4 3 -3 -17 2 -21 -1 -38
-5 -38 -14 0 -12 128 3 167 5 13 5 23 0 23 -5 0 -12 -17 -16 -37 -4 -21 -16
-53 -27 -70 -17 -28 -17 -33 -4 -33 35 0 20 -67 -24 -106 -22 -20 -40 -43 -40
-50 0 -18 -14 -18 -30 1 -7 8 -17 15 -23 15 -5 0 -2 -9 8 -20 22 -24 13 -59
-10 -40 -20 16 -20 -4 0 -23 8 -8 11 -17 8 -21 -4 -3 -1 -6 6 -6 7 0 10 7 7
18 -15 46 73 68 93 25 13 -27 4 -30 -16 -5 -14 16 -14 16 -9 -1 3 -10 6 -23 6
-29 0 -6 11 -8 25 -6 17 4 29 0 36 -11 8 -14 9 -13 7 4 -2 11 -9 26 -16 34
-20 21 -7 25 22 6 32 -21 32 -28 0 -64 -31 -35 -74 -35 -107 1 -18 19 -28 23
-45 17 -12 -5 -21 -5 -20 -1 2 12 -20 60 -32 67 -5 3 -8 11 -4 16 3 5 10 7 15
4 5 -4 9 3 9 14 0 27 -11 27 -34 0 -11 -14 -14 -24 -8 -28 13 -8 36 -62 33
-78 -1 -7 8 -13 19 -13 12 0 18 -4 15 -11 -7 -10 -91 -6 -102 5 -4 3 -7 22 -7
41 -1 22 -6 35 -14 35 -7 0 -10 -5 -7 -11 22 -34 -36 -84 -64 -56 -14 14 -14
6 -1 -30 15 -42 -57 39 -81 92 -10 22 -23 41 -29 41 -5 1 -16 2 -24 3 -8 0
-28 12 -44 26 -34 29 -33 53 5 98 12 16 23 32 23 36 0 13 36 51 49 51 6 0 11
7 11 15 0 18 36 20 46 3 4 -6 -3 -19 -17 -30 -47 -37 -129 -118 -120 -118 5 0
31 18 56 40 62 53 70 51 15 -5 -24 -25 -50 -45 -58 -45 -7 0 -10 -4 -7 -10 3
-5 13 -10 21 -10 8 0 13 4 10 9 -6 9 22 26 37 22 5 -1 6 2 3 7 -3 5 4 16 14
25 21 18 40 3 21 -16 -14 -14 -15 -30 -1 -22 6 3 10 1 10 -5 0 -8 -9 -10 -24
-6 -14 3 -27 2 -30 -3 -3 -5 10 -11 29 -13 25 -3 35 0 37 11 2 9 8 5 16 -13 7
-15 8 -25 3 -22 -5 3 -14 -1 -21 -9 -7 -8 -9 -15 -5 -15 4 0 2 -7 -5 -15 -10
-12 -10 -15 4 -15 9 0 16 8 16 20 0 11 7 20 15 20 18 0 20 -27 3 -32 -7 -3 4
-5 25 -6 26 -1 37 2 34 11 -2 6 -10 12 -18 12 -8 0 -14 7 -14 15 0 8 -7 20
-15 26 -17 14 1 43 29 45 10 0 11 2 4 6 -7 2 -13 9 -13 14 0 16 28 10 42 -9
14 -20 45 -42 35 -25 -8 13 18 37 31 29 6 -3 9 1 8 10 -1 21 48 58 68 51 9 -4
16 -15 16 -26 0 -23 18 -38 24 -19 2 7 14 45 26 85 13 39 20 81 17 92 -4 15 5
32 31 60 36 38 57 45 45 16z m134 18 c-4 -3 -10 -3 -14 0 -3 4 0 7 7 7 7 0 10
-3 7 -7z m40 0 c-4 -3 -10 -3 -14 0 -3 4 0 7 7 7 7 0 10 -3 7 -7z m-397 -46
c0 -5 -7 -4 -15 3 -8 7 -15 20 -15 29 1 18 30 -14 30 -32z m268 7 c-4 -3 -12
5 -18 18 -12 22 -12 22 6 6 10 -10 15 -20 12 -24z m89 19 c-4 -3 -10 -3 -14 0
-3 4 0 7 7 7 7 0 10 -3 7 -7z m38 -12 c-3 -6 -11 -11 -17 -11 -6 0 -6 6 2 15
14 17 26 13 15 -4z m-65 5 c0 -3 -5 -8 -12 -12 -7 -4 -8 -3 -4 4 7 12 16 16
16 8z m-590 -76 c-11 -11 -20 -15 -20 -8 0 6 -13 0 -28 -15 -35 -34 -50 -36
-17 -2 14 13 25 31 25 40 0 8 5 15 11 15 5 0 7 -4 4 -10 -3 -5 -1 -10 5 -10 6
0 10 8 9 18 -4 39 2 46 16 19 13 -25 12 -30 -5 -47z m43 -6 c4 -4 -7 -21 -24
-38 -17 -17 -40 -47 -50 -66 -56 -99 -89 -117 -89 -48 0 22 9 32 45 54 25 14
45 33 45 42 -1 15 -2 15 -11 0 -5 -10 -16 -18 -22 -18 -7 0 -27 -13 -44 -29
-20 -18 -34 -25 -37 -17 -2 6 -5 4 -5 -5 -1 -8 5 -21 12 -29 10 -12 9 -12 -5
-1 -28 21 -21 37 30 69 26 17 55 38 65 46 9 9 17 12 17 6 0 -5 8 -10 17 -10 9
0 13 3 10 7 -4 3 0 15 10 25 17 19 26 22 36 12z m42 -14 c3 -5 1 -10 -4 -10
-6 0 -11 5 -11 10 0 6 2 10 4 10 3 0 8 -4 11 -10z m305 -11 c0 -6 -4 -7 -10
-4 -5 3 -10 11 -10 16 0 6 5 7 10 4 6 -3 10 -11 10 -16z m-14 -47 c-5 -9 -25
-9 -46 -2 -3 1 6 5 20 9 28 9 35 7 26 -7z m294 -8 c0 -8 -4 -12 -10 -9 -5 3
-10 13 -10 21 0 8 5 12 10 9 6 -3 10 -13 10 -21z m28 -39 c-3 -3 -9 2 -12 12
-6 14 -5 15 5 6 7 -7 10 -15 7 -18z m-871 -2 c-4 -3 -7 0 -7 7 0 7 3 10 7 7 3
-4 3 -10 0 -14z m365 -19 c-13 -9 -26 -13 -30 -9 -8 8 17 25 38 25 9 0 6 -6
-8 -16z m495 -11 c-4 -3 -7 0 -7 7 0 7 3 10 7 7 3 -4 3 -10 0 -14z m-467 -18
c-7 -9 -15 -13 -17 -11 -7 7 7 26 19 26 6 0 6 -6 -2 -15z m304 -81 c85 -95 28
-102 -111 -14 -22 14 -22 14 4 42 37 39 51 35 107 -28z m1189 36 c-3 -12 -8
-19 -11 -16 -5 6 5 36 12 36 2 0 2 -9 -1 -20z m-1083 -100 c11 -7 9 -11 -13
-19 -46 -18 -59 -15 -45 9 14 22 34 25 58 10z m89 -16 c-10 -12 -14 -12 -20
-2 -4 7 -3 16 4 20 18 11 29 -2 16 -18z m-33 -29 c-5 -13 -8 -14 -20 -3 -10 9
-11 17 -3 26 13 17 32 -1 23 -23z m64 15 c0 -5 -5 -10 -11 -10 -5 0 -7 5 -4
10 3 6 8 10 11 10 2 0 4 -4 4 -10z m-9 -20 c14 -8 19 -7 19 2 0 6 16 -3 35
-22 33 -32 50 -65 21 -41 -11 9 -15 9 -18 -1 -3 -8 -7 -6 -11 6 -4 10 -3 15 3
11 16 -10 12 11 -5 25 -13 11 -15 7 -15 -29 0 -28 -6 -47 -20 -61 -11 -11 -20
-26 -20 -33 0 -7 -15 -18 -33 -25 -44 -16 -52 -15 -37 3 15 18 -1 20 -18 3 -9
-9 -12 -7 -12 10 0 12 5 22 11 22 6 0 3 7 -6 16 -14 15 -14 18 5 34 11 9 20
21 20 26 0 8 50 64 58 64 2 0 12 -5 23 -10z m-566 -40 c-3 -5 -12 -10 -18 -10
-7 0 -6 4 3 10 19 12 23 12 15 0z m452 -37 c-4 -3 -7 0 -7 7 0 7 3 10 7 7 3
-4 3 -10 0 -14z m-14 -63 c-3 -11 -7 -20 -9 -20 -2 0 -4 9 -4 20 0 11 4 20 9
20 5 0 7 -9 4 -20z m107 -45 c-7 -8 -19 -15 -27 -15 -13 0 -13 3 -3 15 7 8 19
15 27 15 13 0 13 -3 3 -15z m-93 -2 c-4 -3 -10 -3 -14 0 -3 4 0 7 7 7 7 0 10
-3 7 -7z"/>
<path d="M1790 830 c0 -5 4 -10 9 -10 6 0 13 5 16 10 3 6 -1 10 -9 10 -9 0
-16 -4 -16 -10z"/>
<path d="M1305 890 c-3 -6 1 -7 9 -4 18 7 21 14 7 14 -6 0 -13 -4 -16 -10z"/>
<path d="M3765 1824 c32 -33 44 -52 40 -65 -3 -10 1 -31 10 -46 16 -28 16 -28
11 6 -4 18 -6 41 -6 51 0 20 -71 100 -89 100 -7 0 8 -21 34 -46z"/>
<path d="M2256 1804 c32 -34 45 -74 24 -74 -5 0 -10 -4 -10 -10 0 -5 11 -10
25 -10 15 0 38 -6 53 -14 15 -7 47 -14 72 -14 40 0 42 1 20 10 -82 32 -135 65
-153 95 -16 29 -44 53 -60 53 -2 0 11 -16 29 -36z m89 -84 c17 -11 25 -20 18
-20 -6 0 -15 5 -18 10 -3 6 -15 10 -26 10 -10 0 -19 5 -19 10 0 15 11 12 45
-10z"/>
<path d="M2035 1811 c-37 -9 -99 -41 -92 -47 3 -3 23 4 46 15 56 29 172 38
228 18 24 -8 40 -11 37 -6 -15 24 -149 37 -219 20z"/>
<path d="M2040 1740 c-41 -5 -38 -6 34 -12 61 -5 83 -11 98 -27 10 -12 31 -21
46 -20 26 0 25 1 -8 14 -22 8 -28 14 -16 14 31 1 15 8 -49 23 -33 7 -80 11
-105 8z"/>
<path d="M3731 1713 c7 -12 15 -20 18 -17 3 2 -3 12 -13 22 -17 16 -18 16 -5
-5z"/>
<path d="M2020 1706 c0 -2 9 -6 20 -9 11 -3 18 -1 14 4 -5 9 -34 13 -34 5z"/>
<path d="M2075 1680 c3 -5 12 -10 19 -10 7 0 23 -12 37 -26 13 -14 40 -33 59
-42 19 -9 40 -18 45 -21 6 -2 4 3 -4 12 -7 10 -20 17 -28 17 -8 0 -27 12 -42
28 -35 35 -102 67 -86 42z"/>
<path d="M2190 1663 c1 -12 50 -46 50 -35 0 6 -11 17 -25 26 -14 9 -25 13 -25
9z"/>
<path d="M2615 1660 c-4 -6 -11 -8 -16 -5 -5 4 -9 2 -9 -2 0 -12 22 -33 34
-33 6 0 5 5 -2 12 -9 9 -7 14 6 24 9 8 12 14 5 14 -6 0 -15 -5 -18 -10z"/>
<path d="M3720 1659 c-29 -5 -25 -7 25 -8 33 0 66 3 73 8 16 10 -46 10 -98 0z"/>
<path d="M1246 1645 c4 -8 11 -15 16 -15 6 0 5 6 -2 15 -7 8 -14 15 -16 15 -2
0 -1 -7 2 -15z"/>
<path d="M1680 1639 c0 -18 51 -52 120 -80 30 -13 68 -32 84 -43 16 -11 26
-14 22 -7 -7 10 -1 12 25 6 51 -11 32 0 -41 25 -96 32 -152 59 -182 88 -19 17
-28 21 -28 11z"/>
<path d="M1857 1639 c7 -7 15 -10 18 -7 3 3 -2 9 -12 12 -14 6 -15 5 -6 -5z"/>
<path d="M2515 1631 c4 -15 2 -20 -7 -17 -38 12 -68 15 -68 8 0 -12 51 -36 68
-33 8 1 20 -6 28 -16 7 -10 14 -13 14 -6 0 6 -4 15 -10 18 -17 10 -12 38 6 31
21 -8 8 11 -18 25 -18 9 -19 8 -13 -10z"/>
<path d="M2658 1597 c-21 -5 -38 -13 -38 -17 0 -13 31 -21 54 -14 21 7 21 7 1
15 -19 7 -18 8 3 8 13 1 32 -4 43 -9 10 -6 19 -7 19 -3 0 18 -46 29 -82 20z"/>
<path d="M2280 1590 c0 -5 10 -15 22 -21 28 -15 78 -20 78 -8 0 5 -16 9 -35 9
-22 0 -38 6 -41 15 -7 17 -24 21 -24 5z"/>
<path d="M1123 1573 c4 -3 10 -3 14 0 3 4 0 7 -7 7 -7 0 -10 -3 -7 -7z"/>
<path d="M1228 1573 c7 -3 16 -2 19 1 4 3 -2 6 -13 5 -11 0 -14 -3 -6 -6z"/>
<path d="M2847 1573 c-14 -13 -6 -24 12 -18 11 3 22 1 26 -5 3 -5 13 -10 22
-10 12 0 11 5 -7 20 -24 21 -42 25 -53 13z"/>
<path d="M204 1561 c4 -6 35 -25 68 -42 59 -30 63 -30 123 -19 50 9 68 9 86
-1 22 -11 23 -11 10 4 -16 20 -58 22 -111 6 -33 -10 -42 -8 -101 22 -82 43
-83 44 -75 30z"/>
<path d="M2200 1560 c0 -9 79 -45 85 -39 2 3 -16 14 -41 25 -24 11 -44 18 -44
14z"/>
<path d="M2493 1563 c4 -3 10 -3 14 0 3 4 0 7 -7 7 -7 0 -10 -3 -7 -7z"/>
<path d="M51 1524 c-2 -56 52 -137 121 -183 35 -22 79 -53 98 -68 35 -27 35
-27 10 0 -13 15 -55 49 -93 75 -71 48 -96 83 -123 167 -12 39 -13 39 -13 9z"/>
<path d="M1600 1545 c0 -5 5 -27 10 -47 13 -45 34 -64 24 -21 -8 32 -33 83
-34 68z"/>
<path d="M2330 1526 c0 -8 5 -18 10 -21 6 -3 10 1 10 9 0 8 -4 18 -10 21 -5 3
-10 -1 -10 -9z"/>
<path d="M2457 1502 c-13 -6 -5 -10 28 -18 44 -10 44 -10 25 8 -21 19 -26 20
-53 10z"/>
<path d="M2733 1484 c-3 -8 0 -21 7 -29 17 -20 60 -20 60 0 0 11 -7 14 -24 9
-14 -3 -27 -1 -31 7 -6 9 -2 11 13 7 12 -3 26 0 32 7 7 9 3 12 -21 13 -18 0
-32 -5 -36 -14z"/>
<path d="M2556 1482 c6 -4 14 -16 18 -27 6 -13 10 -16 13 -7 6 15 -14 42 -31
42 -8 0 -8 -3 0 -8z"/>
<path d="M2120 1470 c0 -5 5 -10 11 -10 5 0 7 5 4 10 -3 6 -8 10 -11 10 -2 0
-4 -4 -4 -10z"/>
<path d="M2962 1469 c-3 -23 -38 -51 -68 -55 -14 -1 -33 -9 -42 -17 -10 -8
-26 -17 -37 -19 -12 -3 0 -9 34 -16 100 -23 193 -122 206 -221 7 -54 7 -54
-24 -20 -39 43 -40 33 -2 -15 32 -40 41 -33 41 32 0 51 -35 117 -86 159 -42
36 -43 38 -28 60 10 16 14 41 11 76 -2 29 -4 45 -5 36z m-12 -84 c0 -14 -5
-25 -11 -25 -5 0 -7 -6 -3 -12 5 -9 2 -8 -10 1 -9 8 -15 20 -12 28 4 10 1 11
-14 3 -10 -5 -29 -10 -42 -10 -22 0 -22 0 -3 14 47 32 95 33 95 1z"/>
<path d="M2690 1440 c0 -5 5 -10 11 -10 5 0 7 5 4 10 -3 6 -8 10 -11 10 -2 0
-4 -4 -4 -10z"/>
<path d="M2070 1432 c9 -4 37 -22 63 -40 53 -37 125 -72 147 -71 8 0 -13 13
-48 29 -34 16 -82 43 -106 60 -25 16 -51 30 -58 29 -9 0 -8 -2 2 -7z"/>
<path d="M1624 1416 c-10 -8 -16 -17 -13 -20 3 -3 14 1 25 8 10 8 16 17 13 20
-3 3 -14 -1 -25 -8z"/>
<path d="M2475 1374 c-14 -31 -25 -61 -25 -66 0 -5 -17 -25 -37 -43 -34 -31
-36 -35 -16 -35 12 0 30 -3 40 -6 10 -3 8 0 -6 9 -24 14 -24 14 0 30 12 9 31
38 42 64 42 109 44 142 2 47z"/>
<path d="M2055 1390 c-3 -5 -1 -10 4 -10 6 0 11 5 11 10 0 6 -2 10 -4 10 -3 0
-8 -4 -11 -10z"/>
<path d="M1995 1335 c4 -11 9 -35 12 -53 3 -18 10 -35 16 -39 16 -10 1 63 -19
89 -14 20 -16 20 -9 3z"/>
<path d="M2723 1330 c-13 -5 -23 -11 -23 -13 0 -8 50 5 56 14 6 11 -4 11 -33
-1z"/>
<path d="M2790 1322 c6 -13 14 -21 18 -18 3 4 -2 14 -12 24 -18 16 -18 16 -6
-6z"/>
<path d="M1585 1320 c-8 -13 5 -13 25 0 13 8 13 10 -2 10 -9 0 -20 -4 -23 -10z"/>
<path d="M1847 1311 c-3 -12 -1 -21 3 -21 15 0 23 21 12 32 -6 6 -11 2 -15
-11z"/>
<path d="M2663 1314 c-6 -17 6 -45 23 -51 6 -2 8 12 6 32 -4 37 -18 46 -29 19z"/>
<path d="M2186 1305 c-3 -9 0 -15 9 -15 9 0 12 6 9 15 -4 8 -7 15 -9 15 -2 0
-5 -7 -9 -15z"/>
<path d="M2336 1285 c-15 -14 -33 -25 -41 -25 -7 0 -22 -16 -34 -35 -11 -19
-25 -35 -31 -35 -6 0 -9 4 -6 9 4 5 -4 7 -16 3 -14 -3 -19 -2 -14 6 4 7 13 12
20 12 8 0 20 7 27 17 13 15 12 15 -8 5 -31 -17 -41 -15 -48 8 -6 19 -8 19 -41
-6 -19 -15 -32 -29 -30 -32 3 -3 13 1 23 9 13 11 15 11 9 1 -12 -19 24 -43 53
-36 22 5 23 3 11 -11 -27 -33 -49 -37 -77 -16 -30 25 -43 26 -43 6 0 -8 6 -12
13 -9 7 2 23 -5 35 -16 22 -21 22 -21 77 21 30 23 55 45 55 49 0 3 20 21 45
39 37 27 49 31 60 21 10 -8 15 -9 15 -2 0 6 -5 14 -10 17 -6 4 -8 11 -5 16 12
18 -13 8 -39 -16z m-160 -71 c1 -9 0 -13 -4 -10 -3 4 -7 14 -8 22 -1 9 0 13 4
10 3 -4 7 -14 8 -22z"/>
<path d="M2860 1302 c0 -4 12 -15 26 -26 26 -18 26 -18 15 2 -10 19 -41 38
-41 24z"/>
<path d="M1643 1263 c-4 -20 -14 -38 -21 -41 -9 -3 -11 4 -6 25 7 28 7 28 -14
10 -33 -30 -36 -60 -6 -54 18 3 24 1 20 -9 -3 -8 -1 -14 4 -14 5 0 12 11 16
25 3 14 11 25 18 25 6 0 11 16 12 35 1 46 -12 45 -23 -2z"/>
<path d="M2700 1290 c0 -7 3 -10 7 -7 3 4 3 10 0 14 -4 3 -7 0 -7 -7z"/>
<path d="M2840 1265 c0 -8 4 -15 10 -15 5 0 7 7 4 15 -4 8 -8 15 -10 15 -2 0
-4 -7 -4 -15z"/>
<path d="M1950 1250 c0 -5 4 -10 9 -10 6 0 13 5 16 10 3 6 -1 10 -9 10 -9 0
-16 -4 -16 -10z"/>
<path d="M2056 1236 c-9 -14 -16 -31 -16 -38 0 -7 6 -2 13 12 9 18 20 24 37
22 13 -1 22 -1 19 1 -2 1 -11 8 -20 15 -14 10 -19 8 -33 -12z"/>
<path d="M2715 1250 c3 -5 11 -10 16 -10 6 0 7 5 4 10 -3 6 -11 10 -16 10 -6
0 -7 -4 -4 -10z"/>
<path d="M440 1210 c-6 -11 -20 -58 -31 -103 -12 -45 -25 -99 -30 -119 -7 -26
-20 -43 -45 -58 -19 -12 -33 -25 -30 -27 3 -3 17 2 31 11 25 17 25 17 19 -41
-3 -32 -10 -71 -15 -87 -11 -36 -11 -46 0 -46 12 0 35 86 27 99 -8 13 57 289
81 343 18 42 37 42 23 0 -5 -15 -16 -76 -25 -137 -9 -60 -25 -141 -36 -178
-11 -38 -18 -71 -16 -74 5 -4 24 56 45 142 6 22 16 81 22 130 7 50 18 105 26
123 7 17 9 32 4 32 -4 0 -15 3 -23 6 -10 3 -20 -3 -27 -16z"/>
<path d="M529 1223 c-13 -3 -20 -33 -34 -136 -20 -157 -42 -264 -62 -294 -8
-15 -9 -23 -3 -23 24 0 42 72 78 314 11 78 22 121 30 124 15 5 12 -43 -14
-237 -18 -136 -30 -179 -52 -183 -11 -2 -13 -6 -5 -11 34 -22 54 46 79 266 19
169 21 179 36 153 18 -31 -3 -326 -28 -407 -19 -60 -36 -74 -115 -98 -85 -27
-178 -127 -179 -193 0 -7 -12 -40 -26 -73 -26 -62 -57 -165 -51 -171 2 -2 18
40 36 94 62 181 89 238 136 281 46 42 69 52 59 26 -4 -8 -10 -15 -15 -15 -5 0
-9 -5 -9 -12 0 -6 12 0 28 14 15 14 46 35 69 47 85 42 108 119 112 364 3 192
4 190 -70 170z"/>
<path d="M2921 1222 c3 -18 -2 -22 -19 -13 -20 11 -52 -2 -33 -13 6 -4 11 -2
11 5 0 8 7 5 20 -6 11 -10 37 -21 59 -25 36 -6 39 -5 32 13 -7 18 -72 55 -70
39z m39 -34 c0 -6 -7 -7 -16 -4 -9 3 -18 6 -20 6 -3 0 -3 4 1 10 7 11 35 2 35
-12z"/>
<path d="M2803 1213 c4 -3 10 -3 14 0 3 4 0 7 -7 7 -7 0 -10 -3 -7 -7z"/>
<path d="M1720 1200 c0 -5 5 -10 11 -10 5 0 7 5 4 10 -3 6 -8 10 -11 10 -2 0
-4 -4 -4 -10z"/>
<path d="M1783 1193 c-19 -7 -16 -19 6 -20 14 -1 18 3 14 13 -3 8 -6 14 -7 13
0 0 -7 -3 -13 -6z"/>
<path d="M2300 1191 c0 -5 5 -13 10 -16 15 -10 12 -34 -9 -64 -11 -16 -16 -32
-12 -40 9 -14 71 50 70 72 0 15 -59 63 -59 48z m26 -79 c-18 -16 -18 -16 -6 6
6 13 14 21 18 18 3 -4 -2 -14 -12 -24z"/>
<path d="M2522 1175 c0 -16 2 -22 5 -12 2 9 2 23 0 30 -3 6 -5 -1 -5 -18z"/>
<path d="M2648 1183 c7 -3 16 -2 19 1 4 3 -2 6 -13 5 -11 0 -14 -3 -6 -6z"/>
<path d="M2707 1144 c-4 -4 -2 -13 3 -19 11 -14 -14 -30 -30 -20 -5 3 -11 2
-14 -3 -3 -5 9 -17 27 -27 18 -10 26 -12 20 -4 -21 22 -15 29 27 29 30 0 40 4
40 16 0 14 2 14 22 0 12 -9 29 -16 38 -16 23 1 -51 37 -91 44 -19 3 -38 3 -42
0z m58 -24 c-3 -5 -12 -7 -20 -3 -21 7 -19 13 6 13 11 0 18 -4 14 -10z"/>
<path d="M2955 1120 c3 -5 8 -10 11 -10 2 0 4 5 4 10 0 6 -5 10 -11 10 -5 0
-7 -4 -4 -10z"/>
<path d="M2165 1110 c-3 -5 1 -10 9 -10 9 0 16 5 16 10 0 6 -4 10 -9 10 -6 0
-13 -4 -16 -10z"/>
<path d="M2375 1111 c-3 -5 -1 -12 5 -16 5 -3 10 1 10 9 0 18 -6 21 -15 7z"/>
<path d="M2565 1100 c3 -5 8 -10 11 -10 3 0 2 5 -1 10 -3 6 -8 10 -11 10 -3 0
-2 -4 1 -10z"/>
<path d="M2887 1080 c-6 -22 -36 -27 -55 -8 -9 9 -12 6 -12 -15 0 -19 5 -27
18 -27 10 0 31 -14 48 -31 25 -27 84 -66 84 -56 0 2 -27 27 -61 55 -61 52 -61
52 -30 52 24 0 31 4 31 19 0 27 -17 35 -23 11z"/>
<path d="M2927 1073 c-12 -11 -8 -18 25 -38 29 -17 30 -19 12 -26 -10 -4 -13
-8 -6 -8 7 -1 10 -6 6 -13 -4 -7 -3 -8 4 -4 7 4 12 1 12 -9 0 -8 9 -23 20 -32
20 -18 29 -50 10 -38 -5 3 -10 1 -10 -4 0 -18 -36 -12 -55 9 -10 11 -20 18
-23 15 -12 -12 43 -45 75 -45 28 0 33 3 33 24 0 13 -6 29 -14 35 -8 7 -19 26
-25 43 -9 27 -9 29 7 24 9 -4 2 7 -15 24 -18 17 -33 35 -33 41 0 10 -14 12
-23 2z"/>
<path d="M2478 1025 c2 -19 8 -35 13 -35 9 0 13 15 10 34 -1 5 5 6 12 3 8 -3
20 0 26 6 9 9 11 8 6 -4 -4 -10 0 -16 10 -16 8 0 15 5 16 11 1 6 4 0 8 -14 7
-25 7 -25 13 -2 8 27 -30 47 -70 37 -13 -3 -29 -1 -36 4 -9 8 -11 1 -8 -24z"/>
<path d="M2743 1053 c4 -3 10 -3 14 0 3 4 0 7 -7 7 -7 0 -10 -3 -7 -7z"/>
<path d="M310 1040 c-9 -6 -10 -10 -3 -10 6 0 15 5 18 10 8 12 4 12 -15 0z"/>
<path d="M2672 1043 c5 -3 3 -13 -2 -24 -9 -16 -7 -19 9 -19 43 0 69 -28 41
-45 -6 -4 -7 1 -3 12 6 16 5 16 -11 4 -13 -11 -14 -16 -4 -22 11 -8 5 -13 -13
-11 -3 1 -6 -5 -6 -13 0 -9 9 -7 29 8 15 11 28 26 28 33 0 7 3 19 6 28 4 10
-6 20 -33 32 -38 18 -55 25 -41 17z"/>
<path d="M2619 979 c-24 -20 -24 -20 4 -3 15 9 27 18 27 20 0 8 -8 4 -31 -17z"/>
<path d="M2417 979 c-24 -14 -61 -94 -50 -112 18 -30 116 -107 137 -107 3 0
10 10 17 21 11 21 10 22 -20 16 -49 -10 -93 34 -95 95 -1 44 9 56 27 33 4 -5
5 4 1 20 -7 29 -7 30 13 12 20 -17 21 -17 27 0 4 9 4 14 0 10 -4 -4 -14 -1
-23 7 -12 11 -21 12 -34 5z"/>
<path d="M2505 950 c3 -5 8 -10 11 -10 3 0 2 5 -1 10 -3 6 -8 10 -11 10 -3 0
-2 -4 1 -10z"/>
<path d="M2553 953 c4 -3 10 -3 14 0 3 4 0 7 -7 7 -7 0 -10 -3 -7 -7z"/>
<path d="M2786 917 c-33 -28 -37 -35 -22 -40 12 -5 19 1 27 20 9 24 11 25 25
11 11 -11 13 -21 5 -41 -11 -29 1 -77 19 -77 7 0 7 6 0 21 -6 11 -9 28 -7 37
3 12 5 10 6 -6 0 -13 5 -21 10 -18 8 5 -2 64 -18 109 -6 16 -11 14 -45 -16z"/>
<path d="M3820 930 c0 -7 3 -10 7 -7 3 4 3 10 0 14 -4 3 -7 0 -7 -7z"/>
<path d="M3771 923 c9 -2 19 -17 23 -34 3 -16 10 -29 16 -29 7 0 8 6 0 19 -5
11 -7 27 -4 35 5 12 0 16 -22 15 -16 -1 -22 -3 -13 -6z"/>
<path d="M2640 885 c0 -8 3 -14 8 -12 4 1 8 -1 10 -5 1 -5 1 -7 -1 -5 -2 1
-15 -11 -30 -28 -20 -24 -28 -28 -38 -17 -19 17 -34 15 -19 -3 10 -11 22 -14
44 -9 29 6 30 5 16 -12 -19 -23 3 -12 38 19 25 23 31 47 5 26 -15 -13 -15 -12
-5 6 7 14 7 26 1 38 -12 21 -29 22 -29 2z"/>
<path d="M3040 891 c0 -5 7 -12 16 -15 14 -5 15 -4 4 9 -14 17 -20 19 -20 6z"/>
<path d="M2311 852 c-2 -85 52 -164 144 -208 51 -25 45 -19 -30 28 -53 32 -92
96 -104 169 -9 54 -9 54 -10 11z"/>
<path d="M3031 843 c0 -6 -4 -20 -7 -30 -5 -14 -4 -15 5 -7 7 7 11 20 8 30 -3
11 -5 14 -6 7z"/>
<path d="M2500 830 c0 -5 5 -10 10 -10 6 0 10 5 10 10 0 6 -4 10 -10 10 -5 0
-10 -4 -10 -10z"/>
<path d="M2887 833 c-4 -3 -7 -13 -7 -21 0 -9 3 -12 7 -9 7 8 33 -11 33 -24 0
-5 -8 -6 -17 -3 -16 5 -16 4 1 -10 12 -10 16 -21 11 -33 -5 -12 -9 -14 -12 -5
-3 6 -12 12 -21 12 -13 0 -12 -3 4 -15 16 -13 17 -16 4 -25 -9 -6 -10 -10 -3
-10 22 0 43 31 43 63 0 34 -32 92 -43 80z"/>
<path d="M2988 818 c5 -7 12 -26 15 -43 4 -28 4 -28 6 6 1 26 -4 39 -15 43
-13 5 -14 3 -6 -6z"/>
<path d="M3565 795 c-29 -7 -40 -13 -25 -13 14 0 43 5 65 13 51 17 25 17 -40
0z"/>
<path d="M580 780 c-6 -11 -8 -20 -6 -20 3 0 10 9 16 20 6 11 8 20 6 20 -3 0
-10 -9 -16 -20z"/>
<path d="M2564 765 c-10 -8 -14 -14 -9 -14 6 0 19 6 29 14 11 8 15 15 10 15
-6 0 -19 -7 -30 -15z"/>
<path d="M380 740 c-8 -5 -25 -10 -37 -10 -24 0 -30 -19 -13 -36 7 -7 0 -17
-20 -32 -16 -13 -30 -30 -30 -38 0 -9 -8 -28 -19 -42 -25 -36 -73 -133 -69
-138 3 -2 23 30 46 70 23 40 49 79 57 86 8 7 12 16 9 21 -2 5 10 22 28 39 27
24 30 31 18 39 -11 8 -9 12 13 20 16 6 32 11 37 11 5 0 12 5 15 10 8 13 -15
13 -35 0z"/>
<path d="M474 735 c-45 -14 -104 -43 -104 -50 0 -3 16 2 36 10 20 8 48 17 62
20 14 2 33 11 41 20 8 8 13 15 11 14 -3 -1 -23 -7 -46 -14z"/>
<path d="M3180 739 c0 -6 -28 -38 -61 -71 -34 -33 -53 -56 -42 -50 41 23 131
132 108 132 -3 0 -5 -5 -5 -11z"/>
<path d="M2805 729 c-4 -6 -5 -12 -2 -15 2 -3 7 2 10 11 7 17 1 20 -8 4z"/>
<path d="M1050 724 c0 -10 49 -73 50 -63 0 3 -11 20 -25 39 -14 19 -25 30 -25
24z"/>
<path d="M2225 720 c3 -5 8 -10 11 -10 3 0 2 5 -1 10 -3 6 -8 10 -11 10 -3 0
-2 -4 1 -10z"/>
<path d="M2706 703 c-6 -14 -5 -15 5 -6 7 7 10 15 7 18 -3 3 -9 -2 -12 -12z"/>
<path d="M3480 695 c13 -14 26 -25 28 -25 3 0 -5 11 -18 25 -13 14 -26 25 -28
25 -3 0 5 -11 18 -25z"/>
<path d="M2743 693 c4 -3 10 -3 14 0 3 4 0 7 -7 7 -7 0 -10 -3 -7 -7z"/>
<path d="M2790 693 c0 -5 -11 -21 -25 -37 -28 -33 -33 -45 -10 -26 26 21 57
70 46 70 -6 0 -11 -3 -11 -7z"/>
<path d="M2704 655 c-3 -13 -4 -30 -1 -37 3 -7 6 -2 6 13 1 14 6 30 13 37 9 9
9 12 0 12 -6 0 -14 -11 -18 -25z"/>
<path d="M3380 660 c0 -7 3 -10 7 -7 3 4 3 10 0 14 -4 3 -7 0 -7 -7z"/>
<path d="M3540 627 c0 -9 254 -345 278 -367 13 -13 -24 48 -45 75 -13 17 -71
90 -129 164 -57 73 -104 131 -104 128z"/>
<path d="M1170 575 c35 -38 174 -135 193 -135 6 0 -18 17 -52 38 -35 21 -88
60 -119 87 -48 41 -52 43 -22 10z"/>
<path d="M2282 587 c7 -7 23 -13 36 -13 22 0 22 1 6 13 -25 18 -61 18 -42 0z"/>
<path d="M3433 553 c4 -3 10 -3 14 0 3 4 0 7 -7 7 -7 0 -10 -3 -7 -7z"/>
<path d="M2020 190 c0 -7 3 -10 7 -7 3 4 3 10 0 14 -4 3 -7 0 -7 -7z"/>
</g>
</svg>
