<?xml version="1.0" standalone="no"?>
<!DOCTYPE svg PUBLIC "-//W3C//DTD SVG 20010904//EN"
 "http://www.w3.org/TR/2001/REC-SVG-20010904/DTD/svg10.dtd">
<svg version="1.0" xmlns="http://www.w3.org/2000/svg"
 width="264.000000pt" height="256.000000pt" viewBox="0 0 264.000000 256.000000"
 preserveAspectRatio="xMidYMid meet">
<metadata>
Created by potrace 1.16, written by Peter Selinger 2001-2019
</metadata>
<g transform="translate(0.000000,256.000000) scale(0.100000,-0.100000)"
fill="#000000" stroke="none">
<path d="M1193 2423 c4 -3 10 -3 14 0 3 4 0 7 -7 7 -7 0 -10 -3 -7 -7z"/>
<path d="M1221 2425 c3 -2 56 -9 119 -15 414 -38 831 -158 1166 -336 69 -36
127 -64 129 -62 6 6 -188 110 -290 155 -168 75 -434 160 -615 197 -182 37
-525 78 -509 61z"/>
<path d="M414 2369 c-67 -11 -165 -37 -173 -45 -3 -4 5 -4 19 -1 14 4 59 14
100 23 139 30 169 42 54 23z"/>
<path d="M1257 2334 c17 -7 34 -18 38 -24 3 -5 14 -10 23 -10 10 0 0 11 -23
25 -22 13 -47 24 -55 24 -8 0 -1 -7 17 -15z"/>
<path d="M1352 2315 c3 -3 43 -10 89 -15 46 -5 102 -12 124 -15 22 -2 13 1
-20 9 -68 15 -202 30 -193 21z"/>
<path d="M465 2276 c-22 -7 -58 -23 -80 -35 -22 -12 -31 -19 -20 -15 69 24
135 51 141 57 9 9 8 9 -41 -7z"/>
<path d="M1675 2261 c33 -10 112 -31 175 -46 63 -15 158 -43 210 -61 52 -19
103 -34 112 -34 27 0 160 -64 196 -94 36 -31 40 -55 17 -109 -8 -19 -11 -37
-8 -41 4 -4 -3 -9 -15 -13 -18 -4 -20 -8 -10 -20 9 -11 9 -17 -3 -25 -9 -6
-10 -11 -3 -14 8 -3 4 -33 -11 -97 -27 -111 -42 -150 -54 -143 -5 4 -7 -2 -4
-12 2 -10 -6 -27 -21 -41 -14 -14 -26 -30 -26 -37 0 -13 -27 -27 -40 -19 -4 3
-7 -16 -7 -41 0 -53 -52 -122 -88 -116 -17 3 -17 1 -5 -7 25 -18 59 -14 54 7
-5 24 53 69 69 53 12 -12 37 -15 37 -3 0 4 -10 12 -22 17 -36 16 -38 75 -4 75
21 0 26 5 26 23 0 13 9 32 21 43 11 10 27 34 35 54 18 41 67 236 68 265 0 11
2 22 6 25 22 19 40 190 20 190 -6 0 -52 20 -103 44 -50 24 -108 47 -127 51
-19 4 -66 18 -104 31 -37 13 -148 45 -244 69 -179 46 -256 59 -147 26z"/>
<path d="M261 2191 c-14 -50 -6 -232 11 -268 8 -16 8 -26 0 -36 -8 -9 -9 -24
-2 -48 6 -18 10 -63 10 -99 1 -62 16 -141 33 -167 4 -7 8 -28 9 -48 1 -19 5
-35 10 -35 5 0 8 -8 6 -17 -2 -9 7 -27 19 -40 27 -26 29 -48 7 -61 -11 -6 -13
-12 -6 -16 6 -3 13 -2 17 4 3 5 11 10 16 10 16 0 -24 -37 -48 -44 -22 -7 -22
-7 5 -46 29 -42 55 -56 28 -15 -25 37 -7 30 59 -23 49 -39 60 -53 60 -77 0
-21 11 -41 38 -67 20 -21 37 -40 37 -42 0 -23 -25 -58 -50 -71 -29 -15 -30
-17 -14 -30 15 -10 20 -10 32 1 20 20 22 18 11 -18 -11 -41 -12 -38 6 -38 14
0 20 -17 16 -47 -1 -7 5 -13 13 -13 8 0 21 -9 29 -21 10 -14 16 -16 19 -8 3
10 11 10 39 -2 19 -7 39 -15 44 -15 6 -1 14 -2 19 -3 5 0 3 -8 -4 -16 -10 -13
-9 -15 9 -15 28 0 27 -16 -1 -24 -23 -7 -23 -7 0 -16 25 -10 28 -20 10 -38 -9
-9 -8 -12 6 -12 15 0 16 -3 6 -15 -10 -12 -10 -15 0 -15 22 0 110 -71 126
-102 22 -43 114 -32 194 24 37 26 69 40 95 42 22 2 46 4 53 5 6 0 12 6 12 12
0 6 -6 9 -13 6 -8 -3 -20 -1 -28 3 -11 7 -10 10 4 15 9 4 33 22 54 41 20 19
50 40 65 47 16 6 26 17 24 24 -3 8 9 16 32 22 36 10 57 27 222 181 88 82 144
127 171 135 12 4 19 16 19 31 0 15 7 27 18 31 9 3 55 24 101 47 59 29 85 37
88 29 7 -18 28 -16 44 4 13 15 12 15 -8 4 -15 -7 -23 -8 -23 -1 0 19 -36 10
-120 -30 -46 -23 -89 -39 -97 -36 -7 3 -13 0 -13 -7 0 -30 -27 -65 -73 -97
-27 -18 -74 -60 -105 -92 -31 -33 -76 -71 -99 -86 -24 -15 -43 -31 -43 -35 0
-13 -53 -55 -78 -62 -13 -3 -72 -45 -131 -93 -103 -84 -124 -98 -220 -149 -81
-42 -117 -18 -61 42 11 12 20 25 20 29 0 5 -9 -2 -19 -15 -24 -30 -30 -24 -47
48 -9 41 -10 61 -2 70 8 10 6 13 -6 13 -19 0 -15 -77 6 -133 14 -37 6 -42 -34
-21 -18 10 -36 18 -40 19 -3 0 -10 4 -15 9 -5 5 -3 6 5 2 6 -4 12 -3 12 3 0
21 -32 91 -42 91 -5 0 -6 -4 -3 -10 3 -5 -1 -10 -9 -10 -11 0 -16 9 -16 26 0
36 -21 104 -32 104 -5 0 -6 -6 -2 -12 4 -7 -5 -2 -19 11 -15 14 -27 31 -27 38
0 8 -7 27 -15 43 -9 17 -11 30 -5 30 5 0 2 8 -7 18 -10 10 -21 14 -24 10 -9
-13 -37 61 -45 117 -6 41 -8 46 -15 27 -13 -34 -18 -26 -14 22 1 25 -1 60 -6
78 -8 33 -8 33 -7 3 0 -16 -4 -41 -10 -55 -10 -23 -11 -22 -11 18 -1 29 -5 42
-15 42 -15 0 -26 21 -26 50 0 11 -9 24 -20 30 -11 6 -23 22 -26 35 -3 14 -11
25 -18 25 -6 0 -13 11 -14 25 -1 14 -9 39 -17 55 -8 16 -12 37 -9 47 5 15 4
15 -5 3 -12 -17 -28 11 -16 30 3 5 1 10 -4 10 -6 0 -10 8 -9 18 3 36 -2 62
-13 62 -6 0 -8 -9 -4 -20 3 -11 2 -20 -3 -20 -11 0 -42 94 -42 129 0 20 2 23
10 11 5 -8 10 -33 10 -54 0 -22 3 -36 8 -32 10 11 9 125 -2 118 -5 -3 -6 5 -1
19 5 13 8 50 7 81 -2 48 1 56 13 52 15 -6 18 -16 30 -87 4 -27 3 -37 -4 -32
-6 3 -11 -1 -11 -10 0 -11 5 -15 14 -12 8 3 17 1 20 -6 7 -13 1 32 -9 79 -4
19 3 10 20 -24 14 -29 24 -56 21 -60 -2 -4 3 -9 12 -10 9 -1 34 -4 56 -8 28
-5 37 -3 32 5 -4 6 -18 9 -30 7 -31 -6 -38 1 -72 64 -16 30 -39 66 -52 80 -28
30 -42 62 -42 96 0 13 -4 24 -10 24 -5 0 -10 10 -10 23 0 20 2 20 21 -8 20
-30 20 -30 14 3 -4 18 -2 32 3 32 9 0 19 -43 28 -124 3 -28 15 -50 45 -80 22
-22 43 -53 46 -68 6 -32 21 -38 19 -9 -1 19 -19 45 -73 108 -26 30 -30 48 -8
39 13 -4 12 -1 -2 22 -17 27 -17 27 10 3 15 -14 27 -34 27 -46 0 -21 29 -70
30 -50 0 6 -5 16 -12 23 -9 9 -9 15 0 24 13 13 12 14 31 -67 6 -27 21 -58 32
-67 11 -9 31 -43 43 -75 13 -32 33 -80 45 -107 16 -36 19 -52 10 -62 -8 -10
-6 -12 9 -9 22 4 31 -10 39 -60 5 -30 5 -30 -16 -11 -20 18 -21 18 -15 2 4
-10 17 -22 31 -27 13 -5 26 -16 30 -26 4 -9 15 -25 25 -35 10 -10 18 -26 17
-35 -1 -12 -5 -9 -12 10 -14 34 -31 36 -23 2 5 -19 3 -23 -9 -19 -11 5 -13 2
-9 -11 5 -11 14 -15 29 -11 19 5 24 1 30 -21 3 -15 15 -33 26 -41 10 -7 19
-19 19 -25 0 -7 -5 -5 -10 5 -6 9 -18 14 -29 11 -19 -5 -36 21 -25 38 3 5 0 9
-6 9 -16 0 -3 -53 16 -63 8 -4 14 -15 14 -24 0 -13 3 -14 12 -5 21 21 32 13
67 -53 35 -65 35 -65 87 -65 29 0 56 5 59 10 4 6 16 8 27 4 14 -4 18 -2 14 5
-5 7 -1 9 9 5 12 -5 13 -10 6 -17 -6 -6 -11 -15 -11 -19 0 -5 19 12 43 37 38
39 79 63 62 35 -3 -5 -1 -10 4 -10 6 0 11 5 11 10 0 6 11 16 25 22 14 6 24 16
22 22 -4 12 47 66 62 66 5 0 19 16 31 35 12 19 28 35 36 35 8 0 14 9 14 20 0
11 5 20 10 20 6 0 10 -9 10 -20 0 -11 5 -20 11 -20 7 0 9 10 5 24 -7 30 12 76
32 76 8 0 26 12 39 26 38 41 126 114 137 114 5 0 -1 -12 -15 -26 -20 -22 -21
-25 -4 -14 12 7 28 24 36 39 8 14 33 35 54 46 67 35 140 80 143 88 1 4 2 12 2
18 0 5 4 8 9 4 5 -3 13 0 17 7 6 9 10 5 14 -11 5 -24 5 -24 44 12 22 21 35 41
31 48 -5 8 -1 9 14 4 13 -4 21 -2 21 5 0 6 -4 8 -10 5 -5 -3 -10 -2 -10 4 0
13 75 71 93 71 8 0 35 18 61 41 25 22 46 35 46 29 0 -12 -57 -70 -69 -70 -4 0
-15 -15 -25 -32 -19 -33 -19 -33 18 4 21 20 46 40 57 43 10 4 22 20 27 38 9
34 82 81 115 73 9 -2 17 0 17 6 0 6 7 8 15 4 8 -3 15 -1 15 4 0 6 4 10 10 10
5 0 7 -6 4 -13 -6 -15 -60 -37 -94 -37 -34 0 -120 -108 -112 -143 2 -10 -4
-37 -12 -60 -14 -37 -14 -39 -1 -22 8 11 20 38 25 60 16 63 39 107 52 99 7 -4
8 -3 4 5 -4 6 0 14 8 17 9 3 16 12 16 20 0 8 4 14 10 14 5 0 7 -8 3 -17 -6
-17 -5 -17 14 0 11 9 26 17 35 17 8 0 27 10 42 21 36 28 42 20 10 -14 -14 -15
-21 -27 -16 -27 5 0 21 17 36 38 28 37 28 37 22 7 -6 -28 -5 -29 8 -11 19 23
0 62 -21 44 -10 -8 -13 -6 -13 6 0 9 7 19 15 22 8 4 15 12 15 20 0 9 -17 2
-49 -21 -53 -38 -71 -45 -50 -18 11 13 6 12 -16 -4 -16 -11 -52 -31 -80 -43
-27 -12 -65 -36 -83 -51 -18 -16 -47 -35 -65 -43 -18 -7 -52 -32 -75 -54 -24
-23 -49 -42 -55 -42 -13 0 -81 -44 -117 -76 -28 -24 -189 -134 -197 -134 -20
0 -179 -136 -284 -243 -96 -97 -133 -129 -155 -131 -16 -2 -34 -12 -39 -22
-35 -65 -34 -64 -60 -52 -14 6 -25 17 -25 25 0 16 -36 18 -45 2 -4 -6 -1 -9 6
-7 8 1 14 -2 14 -7 0 -6 -2 -9 -5 -8 -3 1 -13 5 -22 8 -10 4 -18 3 -18 -3 0
-6 9 -14 21 -17 29 -9 17 -17 -33 -21 -34 -2 -46 1 -53 15 -35 65 -95 194
-110 234 -10 26 -23 51 -29 55 -17 11 -49 79 -42 90 3 5 -4 25 -17 43 -22 33
-43 78 -108 229 -18 41 -39 82 -46 91 -7 8 -13 19 -13 24 0 12 -61 135 -67
135 -2 0 -1 -9 2 -20 3 -11 2 -20 -4 -20 -5 0 -13 9 -16 20 -3 11 -14 20 -23
21 -10 0 -12 3 -5 6 10 3 10 10 2 24 -6 11 -8 25 -6 32 2 7 11 -4 20 -23 11
-26 16 -30 16 -14 1 11 -7 29 -16 40 -10 11 -28 40 -41 65 -12 24 -32 50 -43
57 -19 12 -20 11 -13 -25 4 -21 11 -48 15 -60 14 -37 -1 -26 -17 12 -7 19 -14
51 -15 72 -1 68 -15 85 -28 34z m33 -206 c3 -90 3 -90 -10 -30 -7 33 -13 96
-12 140 1 79 1 79 10 30 5 -27 10 -90 12 -140z m62 95 c6 -33 6 -34 -9 -15 -9
11 -17 31 -17 45 0 34 18 13 26 -30z m-39 -277 c-2 -21 -4 -4 -4 37 0 41 2 58
4 38 2 -21 2 -55 0 -75z m-17 30 c0 -32 -5 -28 -14 10 -4 19 -3 26 4 22 5 -3
10 -18 10 -32z m-3 -90 c-3 -10 -5 -2 -5 17 0 19 2 27 5 18 2 -10 2 -26 0 -35z
m1593 -21 c0 -13 -39 -46 -46 -39 -4 3 -3 14 0 24 6 15 8 15 16 3 8 -13 10
-12 10 3 0 9 5 17 10 17 6 0 10 -4 10 -8z m-1490 -413 c0 -5 4 -7 10 -4 6 3 7
-1 4 -9 -8 -21 -11 -20 -24 4 -7 14 -7 20 0 20 5 0 10 -5 10 -11z m45 -8 c-3
-5 3 -12 14 -16 21 -6 35 -42 20 -51 -5 -3 -9 -1 -9 4 0 5 -9 19 -20 32 -17
20 -19 40 -4 40 3 0 3 -4 -1 -9z m815 -65 c0 -3 -4 -8 -10 -11 -5 -3 -10 -1
-10 4 0 6 5 11 10 11 6 0 10 -2 10 -4z m-95 -95 c-15 -13 -65 -23 -65 -12 0 5
12 12 28 14 15 2 31 5 37 6 6 0 6 -2 0 -8z m-552 -213 c9 -6 9 -8 0 -8 -8 0
-13 -14 -14 -32 0 -32 -1 -32 -10 -9 -5 14 -7 31 -4 39 3 8 0 21 -6 28 -8 10
-8 14 0 14 6 0 10 3 10 8 -1 4 0 18 2 32 1 14 4 5 6 -20 3 -24 10 -48 16 -52z
m12 32 c3 -5 1 -10 -4 -10 -6 0 -11 5 -11 10 0 6 2 10 4 10 3 0 8 -4 11 -10z
m29 -104 c-8 -33 -24 -34 -24 0 0 14 4 23 10 19 6 -3 10 -1 10 6 0 7 2 10 5 7
4 -3 3 -17 -1 -32z m36 -21 c0 -8 -4 -15 -9 -15 -13 0 -22 16 -14 24 11 11 23
6 23 -9z m139 -200 c0 -5 -4 -3 -9 5 -5 8 -9 22 -9 30 0 16 17 -16 18 -35z
m-34 15 c3 -5 4 -10 1 -10 -3 0 -8 5 -11 10 -3 6 -4 10 -1 10 3 0 8 -4 11 -10z
m135 -107 c0 -25 -20 -22 -34 6 -15 29 -15 29 9 17 14 -6 25 -16 25 -23z"/>
<path d="M1760 2213 c54 -39 100 -86 100 -102 0 -13 2 -13 9 -2 9 14 20 2 55
-64 8 -16 15 -23 16 -16 0 12 3 12 12 3 7 -7 16 -12 21 -12 5 0 -2 9 -16 20
-14 11 -35 35 -46 53 -19 31 -87 88 -146 121 -30 17 -30 17 -5 -1z"/>
<path d="M481 2104 c9 -10 31 -48 49 -83 17 -34 34 -61 36 -58 9 9 -71 150
-87 155 -11 4 -10 1 2 -14z"/>
<path d="M1938 1945 c-38 -25 -68 -50 -68 -55 0 -6 -4 -9 -9 -6 -14 9 -124
-88 -155 -136 -28 -45 -15 -34 40 32 35 43 91 91 108 94 9 1 28 14 43 28 71
66 139 91 184 68 11 -6 19 -7 19 -2 0 11 -35 22 -70 21 -14 0 -55 -20 -92 -44z"/>
<path d="M1804 1918 c-4 -7 -3 -8 4 -4 12 7 16 16 8 16 -3 0 -8 -5 -12 -12z"/>
<path d="M2243 1893 c4 -3 10 -3 14 0 3 4 0 7 -7 7 -7 0 -10 -3 -7 -7z"/>
<path d="M2343 1883 c4 -3 10 -3 14 0 3 4 0 7 -7 7 -7 0 -10 -3 -7 -7z"/>
<path d="M2252 1860 c0 -14 2 -19 5 -12 2 6 2 18 0 25 -3 6 -5 1 -5 -13z"/>
<path d="M2280 1860 c0 -5 5 -10 10 -10 6 0 10 5 10 10 0 6 -4 10 -10 10 -5 0
-10 -4 -10 -10z"/>
<path d="M1844 1848 c-4 -7 -3 -8 4 -4 7 4 12 9 12 12 0 8 -9 4 -16 -8z"/>
<path d="M1983 1786 c-13 -6 -23 -14 -23 -17 0 -13 39 3 44 17 3 8 4 13 3 13
-1 -1 -12 -6 -24 -13z"/>
<path d="M1970 1730 c0 -7 3 -10 7 -7 3 4 3 10 0 14 -4 3 -7 0 -7 -7z"/>
<path d="M370 1720 c0 -5 8 -11 18 -14 14 -5 17 -14 14 -34 -3 -23 0 -27 23
-29 20 -1 24 2 16 10 -30 30 20 43 57 14 8 -6 12 -6 12 1 0 16 -23 30 -55 33
-16 2 -34 6 -40 10 -21 13 -45 18 -45 9z"/>
<path d="M530 1690 c0 -7 3 -10 7 -7 3 4 3 10 0 14 -4 3 -7 0 -7 -7z"/>
<path d="M530 1655 c0 -8 4 -15 10 -15 5 0 7 7 4 15 -4 8 -8 15 -10 15 -2 0
-4 -7 -4 -15z"/>
<path d="M2554 1562 c-45 -54 -146 -169 -224 -257 -78 -88 -175 -201 -216
-251 -40 -50 -87 -103 -104 -118 -34 -28 -42 -31 -138 -46 -76 -11 -131 -42
-219 -121 -129 -117 -432 -343 -484 -361 -12 -4 1 -48 14 -48 6 0 7 3 4 7 -4
4 41 32 100 63 112 58 293 167 293 176 0 3 -15 -3 -32 -14 -18 -11 -53 -30
-78 -43 -25 -12 -63 -35 -85 -49 -75 -50 -183 -100 -170 -80 3 6 10 10 14 10
16 0 193 120 251 170 15 14 45 36 65 50 19 14 73 61 118 104 93 89 159 126
228 126 89 0 121 23 234 165 43 54 102 124 129 155 28 31 75 84 105 117 30 34
58 60 63 57 4 -3 8 -1 8 5 0 5 48 69 106 141 124 154 135 181 18 42z"/>
<path d="M351 1634 c0 -11 3 -14 6 -6 3 7 2 16 -1 19 -3 4 -6 -2 -5 -13z"/>
<path d="M2052 1625 c0 -16 2 -22 5 -12 2 9 2 23 0 30 -3 6 -5 -1 -5 -18z"/>
<path d="M460 1634 c0 -6 7 -19 15 -30 8 -10 14 -14 14 -9 0 6 -6 19 -14 29
-8 11 -15 15 -15 10z"/>
<path d="M1475 1598 c-40 -42 -40 -42 -3 -12 30 24 55 54 45 54 -2 0 -21 -19
-42 -42z"/>
<path d="M1817 1610 c-10 -16 -22 -30 -28 -30 -5 0 -9 -7 -9 -16 0 -10 15 0
40 27 45 48 45 49 27 49 -7 0 -21 -13 -30 -30z"/>
<path d="M2171 1624 c0 -11 3 -14 6 -6 3 7 2 16 -1 19 -3 4 -6 -2 -5 -13z"/>
<path d="M1790 1620 c0 -7 3 -10 7 -7 3 4 3 10 0 14 -4 3 -7 0 -7 -7z"/>
<path d="M400 1610 c0 -7 3 -10 7 -7 3 4 3 10 0 14 -4 3 -7 0 -7 -7z"/>
<path d="M560 1610 c0 -5 5 -10 11 -10 5 0 7 5 4 10 -3 6 -8 10 -11 10 -2 0
-4 -4 -4 -10z"/>
<path d="M500 1600 c0 -5 5 -10 11 -10 5 0 7 5 4 10 -3 6 -8 10 -11 10 -2 0
-4 -4 -4 -10z"/>
<path d="M530 1600 c0 -7 3 -10 7 -7 3 4 3 10 0 14 -4 3 -7 0 -7 -7z"/>
<path d="M1730 1596 c0 -7 -7 -19 -15 -26 -9 -7 -14 -19 -11 -25 2 -7 -1 -18
-7 -25 -10 -10 -8 -10 9 -2 24 13 40 42 22 42 -6 0 -4 8 5 18 19 21 22 32 7
32 -5 0 -10 -6 -10 -14z m-13 -53 c-4 -3 -7 0 -7 7 0 7 3 10 7 7 3 -4 3 -10 0
-14z"/>
<path d="M407 1584 c-11 -11 -8 -26 3 -19 6 3 10 -3 10 -14 0 -11 5 -23 10
-26 7 -4 8 3 4 22 -8 33 -18 46 -27 37z"/>
<path d="M570 1582 c0 -12 19 -26 26 -19 2 2 -2 10 -11 17 -9 8 -15 8 -15 2z"/>
<path d="M380 1570 c0 -7 3 -10 7 -7 3 4 3 10 0 14 -4 3 -7 0 -7 -7z"/>
<path d="M505 1558 c-17 -7 -19 -17 -17 -53 2 -25 7 -45 11 -45 4 0 5 16 3 36
-3 24 -1 34 6 30 6 -3 14 3 17 15 9 26 5 29 -20 17z"/>
<path d="M1633 1534 c-18 -9 -33 -20 -33 -25 0 -6 57 20 79 38 12 9 -18 0 -46
-13z"/>
<path d="M1344 1528 c-4 -7 -3 -8 4 -4 12 7 16 16 8 16 -3 0 -8 -5 -12 -12z"/>
<path d="M1760 1530 c0 -7 3 -10 7 -7 3 4 3 10 0 14 -4 3 -7 0 -7 -7z"/>
<path d="M400 1520 c0 -7 3 -10 7 -7 3 4 3 10 0 14 -4 3 -7 0 -7 -7z"/>
<path d="M600 1520 c0 -7 3 -10 7 -7 3 4 3 10 0 14 -4 3 -7 0 -7 -7z"/>
<path d="M540 1512 c0 -4 4 -12 9 -17 17 -18 32 -125 20 -146 -9 -18 -8 -19
10 -7 12 7 21 16 21 21 0 4 7 7 16 5 10 -2 19 2 21 8 2 7 -3 11 -12 10 -19 -1
-39 32 -54 92 -10 36 -31 59 -31 34z"/>
<path d="M1734 1488 c-4 -7 -3 -8 4 -4 12 7 16 16 8 16 -3 0 -8 -5 -12 -12z"/>
<path d="M520 1479 c0 -8 4 -19 9 -24 5 -6 11 -23 14 -40 4 -29 4 -28 5 5 1
19 -5 44 -13 54 -11 15 -15 16 -15 5z"/>
<path d="M467 1464 c-4 -4 -7 -14 -7 -23 0 -11 3 -12 11 -4 6 6 10 16 7 23 -2
6 -7 8 -11 4z"/>
<path d="M1536 1443 c-6 -14 -5 -15 5 -6 7 7 10 15 7 18 -3 3 -9 -2 -12 -12z"/>
<path d="M500 1438 c0 -8 7 -21 15 -28 19 -16 19 -1 0 24 -12 16 -15 17 -15 4z"/>
<path d="M1500 1439 c0 -5 5 -7 10 -4 6 3 10 8 10 11 0 2 -4 4 -10 4 -5 0 -10
-5 -10 -11z"/>
<path d="M2515 1358 c-113 -91 -174 -145 -240 -212 -38 -39 -73 -70 -76 -69
-3 1 -6 -4 -6 -10 0 -23 -36 -68 -49 -63 -8 3 -14 -1 -14 -9 0 -18 -48 -75
-63 -75 -7 0 -34 -16 -61 -35 -27 -19 -55 -35 -61 -35 -22 0 -44 -36 -66 -105
-23 -78 -36 -98 -53 -88 -6 4 -5 -1 2 -10 12 -13 11 -20 -3 -44 -26 -41 -271
-236 -414 -329 -47 -30 -59 -43 -55 -57 5 -16 2 -18 -16 -12 -16 5 -20 4 -15
-5 4 -6 16 -10 26 -7 10 3 20 0 23 -7 2 -6 5 -1 5 11 1 12 10 27 21 33 11 6
18 15 15 20 -3 6 0 7 8 4 7 -2 36 10 63 28 56 37 67 44 142 90 89 55 213 149
207 158 -3 5 5 14 17 21 13 7 28 19 34 27 18 24 46 7 42 -25 -4 -37 -277 -265
-440 -368 -50 -32 -64 -65 -27 -65 11 0 17 4 14 10 -3 5 31 28 76 51 225 113
499 327 499 389 0 13 -10 25 -27 32 -16 7 -41 21 -58 32 -30 20 -30 20 -11 -2
10 -12 34 -26 52 -32 38 -13 44 -37 16 -64 -18 -15 -20 -15 -35 2 -10 10 -17
24 -17 30 0 7 -3 11 -7 11 -20 -4 -73 27 -84 48 -15 29 20 166 51 197 19 19
77 16 65 -4 -3 -5 -1 -11 5 -15 5 -3 10 1 10 9 0 8 -8 19 -17 25 -10 5 -16 11
-13 13 26 20 67 42 74 40 5 -2 22 10 39 25 29 28 29 28 7 -17 -20 -39 -22 -55
-17 -130 3 -54 1 -78 -4 -65 -7 15 -8 11 -5 -17 3 -23 0 -39 -7 -42 -7 -2 -4
-5 6 -5 10 -1 17 6 17 18 0 11 5 21 11 23 8 3 8 14 0 43 -26 96 -6 162 94 304
56 80 183 204 313 305 34 27 62 53 62 57 0 12 1 13 -55 -33z m-649 -776 c-15
-15 -16 -13 -16 23 0 39 0 39 16 16 15 -21 15 -24 0 -39z m-43 -42 c-16 -32
-81 -84 -173 -139 -30 -18 -71 -42 -90 -54 -75 -46 -7 12 81 69 50 32 114 80
142 107 60 56 60 56 40 17z m154 -26 c2 -23 -5 -35 -39 -62 -25 -20 -44 -29
-46 -23 -3 9 -8 9 -18 0 -8 -6 -12 -15 -9 -19 2 -4 -5 -16 -18 -26 -22 -19
-22 -19 -2 5 14 17 16 23 5 19 -8 -2 -20 -16 -27 -29 -17 -35 -31 -45 -169
-127 -129 -77 -189 -98 -89 -32 59 39 72 48 149 109 21 17 43 31 47 31 5 0 28
18 51 40 24 22 51 43 61 46 9 3 16 8 14 12 -2 4 9 20 25 37 21 22 28 26 28 13
0 -9 -4 -20 -10 -23 -5 -3 -10 -13 -10 -21 0 -10 7 -7 23 9 12 12 21 24 21 27
-1 3 -5 16 -9 29 -5 17 -4 22 6 19 8 -3 15 -18 16 -34z m-462 -194 c-3 -5 -16
-15 -28 -21 -19 -9 -19 -8 3 10 28 23 34 26 25 11z"/>
<path d="M480 1386 c0 -2 8 -10 18 -17 15 -13 16 -12 3 4 -13 16 -21 21 -21
13z"/>
<path d="M660 1379 c0 -8 7 -24 15 -35 19 -25 19 -14 0 22 -8 16 -15 22 -15
13z"/>
<path d="M1180 1315 c-18 -19 -32 -36 -29 -38 2 -2 19 14 38 35 42 48 36 50
-9 3z"/>
<path d="M2395 1320 c-3 -5 -2 -10 4 -10 5 0 13 5 16 10 3 6 2 10 -4 10 -5 0
-13 -4 -16 -10z"/>
<path d="M605 1310 c3 -5 8 -10 11 -10 2 0 4 5 4 10 0 6 -5 10 -11 10 -5 0 -7
-4 -4 -10z"/>
<path d="M535 1300 c-3 -5 -1 -10 4 -10 6 0 11 5 11 10 0 6 -2 10 -4 10 -3 0
-8 -4 -11 -10z"/>
<path d="M580 1280 c0 -7 3 -10 7 -7 3 4 3 10 0 14 -4 3 -7 0 -7 -7z"/>
<path d="M608 1273 c-4 -16 2 -33 23 -59 16 -20 29 -49 29 -63 0 -19 3 -22 9
-12 12 18 -7 72 -30 89 -10 7 -19 25 -21 40 -3 25 -4 26 -10 5z"/>
<path d="M1574 1278 c-4 -7 -3 -8 4 -4 7 4 12 9 12 12 0 8 -9 4 -16 -8z"/>
<path d="M2040 1275 c0 -8 2 -15 4 -15 2 0 6 7 10 15 3 8 1 15 -4 15 -6 0 -10
-7 -10 -15z"/>
<path d="M650 1255 c0 -8 4 -15 10 -15 5 0 7 7 4 15 -4 8 -8 15 -10 15 -2 0
-4 -7 -4 -15z"/>
<path d="M1320 1260 c0 -7 3 -10 7 -7 3 4 3 10 0 14 -4 3 -7 0 -7 -7z"/>
<path d="M680 1230 c1 -8 7 -24 15 -34 19 -25 19 -16 0 20 -8 16 -15 22 -15
14z"/>
<path d="M1270 1205 c-13 -14 -19 -25 -13 -25 6 0 18 11 27 25 9 14 15 25 13
25 -2 0 -14 -11 -27 -25z"/>
<path d="M620 1184 c0 -12 7 -24 15 -28 19 -7 19 5 0 30 -14 19 -14 19 -15 -2z"/>
<path d="M1110 1190 c0 -7 3 -10 7 -7 3 4 3 10 0 14 -4 3 -7 0 -7 -7z"/>
<path d="M594 1158 c-4 -7 -3 -8 4 -4 12 7 16 16 8 16 -3 0 -8 -5 -12 -12z"/>
<path d="M705 1150 c3 -5 8 -10 11 -10 2 0 4 5 4 10 0 6 -5 10 -11 10 -5 0 -7
-4 -4 -10z"/>
<path d="M770 1129 c0 -6 -7 -9 -15 -6 -8 4 -17 1 -21 -5 -4 -7 -9 -6 -14 2
-5 8 -9 5 -13 -9 -4 -16 0 -21 13 -21 10 0 20 -3 23 -7 2 -5 2 -2 1 4 -2 7 5
17 15 23 21 11 34 0 45 -38 4 -12 11 -20 16 -17 5 3 11 -1 13 -7 4 -10 6 -10
6 0 1 16 -14 47 -37 73 -18 21 -32 25 -32 8z m47 -56 c-4 -3 -7 0 -7 7 0 7 3
10 7 7 3 -4 3 -10 0 -14z"/>
<path d="M635 1120 c3 -5 8 -10 11 -10 3 0 2 5 -1 10 -3 6 -8 10 -11 10 -3 0
-2 -4 1 -10z"/>
<path d="M680 1120 c0 -7 3 -10 7 -7 3 4 3 10 0 14 -4 3 -7 0 -7 -7z"/>
<path d="M662 1070 c0 -16 3 -30 8 -30 5 0 6 7 3 17 -4 11 -3 14 5 9 14 -8 15
-5 6 18 -10 26 -21 18 -22 -14z"/>
<path d="M773 1073 c4 -3 10 -3 14 0 3 4 0 7 -7 7 -7 0 -10 -3 -7 -7z"/>
<path d="M1095 1062 c-18 -13 -89 -92 -84 -92 7 0 71 60 88 83 14 18 13 22 -4
9z"/>
<path d="M720 1053 c0 -7 5 -15 11 -19 7 -4 9 -20 6 -40 -5 -27 -3 -32 10 -27
11 4 13 14 9 37 -6 31 -36 71 -36 49z"/>
<path d="M750 1054 c0 -5 7 -19 15 -30 8 -10 15 -14 15 -8 0 5 -7 19 -15 30
-8 10 -15 14 -15 8z"/>
<path d="M631 1025 c1 -22 16 -48 22 -38 3 5 0 19 -8 29 -8 10 -14 15 -14 9z"/>
<path d="M904 1006 c3 -13 8 -31 11 -38 7 -18 -38 -40 -62 -31 -10 4 -14 2
-10 -4 4 -6 25 -13 47 -17 40 -6 48 -18 30 -46 -8 -13 -10 -12 -10 4 0 11 -3
16 -7 12 -10 -10 -4 -78 8 -93 6 -6 8 -17 4 -23 -3 -5 -1 -10 4 -10 11 0 16
40 12 90 -1 20 0 22 9 10 8 -12 10 -10 6 10 -3 14 -10 55 -17 93 -7 37 -17 67
-22 67 -5 0 -6 -11 -3 -24z"/>
<path d="M826 1005 c3 -8 11 -13 17 -12 7 1 12 -8 11 -20 0 -13 3 -23 8 -23
12 0 10 44 -4 58 -17 17 -39 15 -32 -3z"/>
<path d="M1068 983 c-27 -32 -35 -50 -14 -34 16 14 41 51 33 51 -2 0 -11 -8
-19 -17z"/>
<path d="M781 923 c7 -12 15 -20 18 -17 3 2 -3 12 -13 22 -17 16 -18 16 -5 -5z"/>
<path d="M2219 903 c-13 -16 -12 -17 4 -4 16 13 21 21 13 21 -2 0 -10 -8 -17
-17z"/>
<path d="M730 896 c0 -2 9 -6 20 -9 11 -3 20 -1 20 4 0 5 -9 9 -20 9 -11 0
-20 -2 -20 -4z"/>
<path d="M1826 829 c-3 -17 -6 -55 -6 -85 0 -29 -4 -56 -10 -59 -5 -3 -10 -11
-10 -18 0 -7 6 -5 16 5 10 10 17 37 18 79 2 35 7 74 11 87 4 13 3 22 -3 22 -5
0 -12 -14 -16 -31z"/>
<path d="M820 800 c0 -7 3 -10 7 -7 3 4 3 10 0 14 -4 3 -7 0 -7 -7z"/>
<path d="M1731 774 c0 -11 3 -14 6 -6 3 7 2 16 -1 19 -3 4 -6 -2 -5 -13z"/>
<path d="M786 772 c-3 -6 0 -12 8 -15 7 -3 27 -29 44 -59 37 -63 42 -57 8 10
-27 53 -51 78 -60 64z"/>
<path d="M2120 732 c0 -5 5 -13 11 -19 17 -17 -8 -110 -39 -153 -15 -19 -46
-56 -71 -83 -24 -26 -42 -50 -39 -53 9 -8 144 151 163 192 19 40 13 109 -11
118 -8 3 -14 2 -14 -2z"/>
<path d="M1653 699 c-24 -17 -43 -27 -43 -24 0 4 -15 -7 -34 -23 -19 -17 -43
-35 -53 -40 -10 -6 -15 -13 -12 -16 3 -3 21 5 40 18 98 68 162 104 175 99 28
-10 14 -46 -37 -93 -29 -26 -48 -50 -43 -52 5 -3 3 -3 -4 -1 -8 1 -32 -12 -55
-31 -41 -33 -261 -182 -303 -204 -12 -6 -25 -8 -29 -4 -4 4 -5 -6 -1 -21 6
-26 5 -28 -16 -22 -22 6 -22 5 -5 -9 22 -17 48 -11 40 10 -3 8 1 14 10 14 9 0
44 17 79 39 35 21 84 50 110 64 67 38 110 77 104 94 -3 8 -2 12 3 8 5 -3 35
15 68 41 32 25 73 54 91 66 33 20 36 43 17 106 -7 21 -59 12 -102 -19z m97
-63 c0 -3 -5 -8 -12 -12 -7 -4 -8 -3 -4 4 7 12 16 16 16 8z m-42 -28 c-33 -32
-53 -42 -29 -15 14 15 29 27 33 27 5 0 3 -6 -4 -12z m-138 -122 c0 -4 -58 -43
-133 -90 -16 -10 -31 -15 -34 -13 -2 3 31 28 74 56 73 47 93 57 93 47z m-180
-110 c0 -3 -5 -8 -12 -12 -7 -4 -8 -3 -4 4 7 12 16 16 16 8z"/>
<path d="M1940 610 c6 -11 16 -20 22 -20 6 0 3 9 -7 20 -10 11 -20 20 -22 20
-2 0 1 -9 7 -20z"/>
<path d="M2067 593 c-4 -3 -7 -11 -7 -17 0 -6 5 -5 12 2 6 6 9 14 7 17 -3 3
-9 2 -12 -2z"/>
<path d="M1983 580 c2 -8 12 -14 22 -13 12 1 14 -2 6 -10 -17 -17 -13 -31 4
-17 21 17 20 44 -2 36 -9 -4 -20 -1 -25 6 -7 10 -8 9 -5 -2z"/>
</g>
</svg>
