<?xml version="1.0" standalone="no"?>
<!DOCTYPE svg PUBLIC "-//W3C//DTD SVG 20010904//EN"
 "http://www.w3.org/TR/2001/REC-SVG-20010904/DTD/svg10.dtd">
<svg version="1.0" xmlns="http://www.w3.org/2000/svg"
 width="344.000000pt" height="256.000000pt" viewBox="0 0 344.000000 256.000000"
 preserveAspectRatio="xMidYMid meet">
<metadata>
Created by potrace 1.16, written by Peter Selinger 2001-2019
</metadata>
<g transform="translate(0.000000,256.000000) scale(0.100000,-0.100000)"
fill="#000000" stroke="none">
<path d="M1613 2477 c-50 -21 -53 -24 -53 -58 0 -37 4 -41 73 -63 28 -9 20 2
-15 20 -30 16 -31 17 -13 30 10 8 27 14 37 14 10 0 30 7 43 16 13 9 30 12 36
8 8 -4 9 -3 5 4 -4 7 -3 12 1 12 10 0 73 -62 73 -72 0 -6 -58 -32 -75 -33 -5
-1 -23 -7 -40 -14 -16 -7 -39 -13 -50 -13 -31 -2 -115 -95 -147 -165 -98 -209
96 -475 355 -488 66 -4 99 -11 144 -32 80 -37 79 -37 68 -24 -6 6 -28 20 -50
30 -45 23 -32 27 27 9 39 -11 39 -11 95 43 31 30 53 46 49 37 -3 -10 -9 -26
-12 -35 -3 -10 14 14 39 52 25 39 57 85 71 104 79 104 57 273 -52 392 -85 92
-189 138 -328 142 -77 3 -77 3 -125 55 -55 60 -72 63 -156 29z m71 -23 c-48
-29 -64 -30 -57 -4 6 21 23 28 23 9 0 -5 5 -7 10 -4 6 4 8 10 5 15 -3 5 5 10
17 12 41 7 42 -4 2 -28z m-69 -4 c-3 -5 -12 -10 -18 -10 -7 0 -6 4 3 10 19 12
23 12 15 0z m-31 -25 c3 -8 1 -15 -4 -15 -6 0 -10 7 -10 15 0 8 2 15 4 15 2 0
6 -7 10 -15z m447 -65 c115 -39 177 -94 233 -205 31 -63 34 -76 29 -130 -3
-33 -6 -72 -7 -87 0 -14 -3 -25 -7 -23 -3 2 -19 -24 -37 -58 -17 -34 -38 -71
-47 -82 -9 -11 -13 -13 -9 -5 4 8 -18 -9 -49 -37 -31 -29 -64 -53 -74 -54 -16
0 -16 -1 2 -9 32 -14 3 -11 -51 4 -27 8 -76 13 -109 11 -167 -9 -315 76 -390
225 -47 93 -28 257 37 320 36 35 77 69 98 80 20 11 21 10 15 -12 -6 -24 5 -14
30 27 6 9 25 18 44 20 19 3 37 9 40 14 16 26 176 26 252 1z m-554 -332 c-2
-13 -4 -5 -4 17 -1 22 1 32 4 23 2 -10 2 -28 0 -40z"/>
<path d="M1768 2333 c7 -3 16 -2 19 1 4 3 -2 6 -13 5 -11 0 -14 -3 -6 -6z"/>
<path d="M1770 2295 c-14 -8 -20 -14 -14 -15 5 0 19 7 30 15 24 18 16 19 -16
0z"/>
<path d="M1765 2245 c-22 -19 -35 -34 -30 -34 6 0 28 15 50 34 22 19 36 35 30
35 -5 0 -28 -16 -50 -35z"/>
<path d="M2141 2194 c19 -22 36 -39 39 -37 2 2 -13 20 -35 41 -39 37 -39 37
-4 -4z"/>
<path d="M1676 2152 c-22 -15 -41 -34 -44 -42 -3 -9 7 -4 24 11 16 14 40 33
54 42 13 10 20 17 15 17 -6 -1 -28 -13 -49 -28z"/>
<path d="M1799 2166 c-25 -6 -70 -26 -100 -43 -53 -31 -56 -35 -45 -83 2 -8
-3 -27 -10 -41 -7 -15 -14 -42 -15 -60 -2 -35 27 -117 37 -106 3 3 1 14 -5 25
-6 12 -11 31 -11 44 1 23 1 23 20 -1 18 -21 20 -21 20 -5 0 14 6 10 21 -14 12
-18 23 -31 25 -29 4 3 -5 23 -53 119 -15 31 -17 41 -4 34 5 -4 20 -2 33 4 30
12 86 60 71 60 -6 0 -18 -6 -25 -13 -45 -45 -83 -44 -90 2 -6 40 17 49 49 20
12 -13 23 -17 23 -11 0 6 -10 18 -21 26 -22 15 -22 15 12 29 88 37 155 47 201
28 13 -5 34 -12 48 -15 14 -3 34 -12 45 -21 20 -16 20 -16 -2 -10 -13 4 -23 4
-23 2 0 -9 72 -47 79 -42 17 10 65 -59 82 -118 7 -24 3 -38 -18 -74 -14 -24
-23 -46 -20 -49 5 -5 25 26 47 75 37 82 -88 224 -232 262 -82 22 -78 22 -139
5z m272 -83 c13 -15 12 -15 -8 -4 -24 12 -29 21 -14 21 5 0 15 -7 22 -17z
m-385 -138 c4 -14 4 -29 0 -32 -9 -10 -36 18 -36 38 0 28 29 23 36 -6z"/>
<path d="M1908 2120 c35 -32 82 -50 82 -31 0 6 -6 8 -14 5 -8 -3 -30 8 -49 25
-45 40 -62 41 -19 1z"/>
<path d="M1845 2100 c-3 -5 -2 -10 4 -10 5 0 13 5 16 10 3 6 2 10 -4 10 -5 0
-13 -4 -16 -10z"/>
<path d="M1875 2059 c-11 -17 1 -21 15 -4 8 9 8 15 2 15 -6 0 -14 -5 -17 -11z"/>
<path d="M2225 2060 c3 -5 8 -10 11 -10 2 0 4 5 4 10 0 6 -5 10 -11 10 -5 0
-7 -4 -4 -10z"/>
<path d="M1532 2030 c0 -14 2 -19 5 -12 2 6 2 18 0 25 -3 6 -5 1 -5 -13z"/>
<path d="M1923 2034 c9 -12 17 -28 17 -37 0 -28 -22 -31 -41 -6 -20 26 -25 19
-9 -12 19 -34 71 -13 70 28 0 4 -13 17 -28 27 -27 20 -27 20 -9 0z"/>
<path d="M2100 2020 c0 -7 3 -10 7 -7 3 4 3 10 0 14 -4 3 -7 0 -7 -7z"/>
<path d="M2050 2016 c0 -2 9 -6 20 -9 11 -3 18 -1 14 4 -5 9 -34 13 -34 5z"/>
<path d="M2105 1990 c3 -5 8 -10 11 -10 3 0 2 5 -1 10 -3 6 -8 10 -11 10 -3 0
-2 -4 1 -10z"/>
<path d="M2040 1970 c0 -5 5 -10 11 -10 5 0 7 5 4 10 -3 6 -8 10 -11 10 -2 0
-4 -4 -4 -10z"/>
<path d="M2140 1950 c0 -7 3 -10 7 -7 3 4 3 10 0 14 -4 3 -7 0 -7 -7z"/>
<path d="M2107 1913 c-17 -21 -23 -38 -26 -64 -1 -4 -19 -6 -41 -5 -22 0 -40
-2 -40 -6 0 -5 16 -8 35 -8 19 0 35 -4 35 -9 0 -18 -59 -53 -79 -46 -11 3 -21
0 -24 -7 -3 -9 8 -13 39 -13 23 0 38 3 31 7 -7 5 0 7 16 6 30 -3 33 -7 15 -28
-7 -8 -3 -6 10 5 23 19 23 20 4 28 -20 9 -20 9 0 56 10 25 26 59 34 74 20 36
14 42 -9 10z"/>
<path d="M2026 1903 c-6 -14 -5 -15 5 -6 7 7 10 15 7 18 -3 3 -9 -2 -12 -12z"/>
<path d="M2106 1793 c-6 -14 -5 -15 5 -6 7 7 10 15 7 18 -3 3 -9 -2 -12 -12z"/>
<path d="M1670 2390 c0 -5 5 -10 11 -10 5 0 7 5 4 10 -3 6 -8 10 -11 10 -2 0
-4 -4 -4 -10z"/>
<path d="M1740 2380 c-13 -8 -12 -10 3 -10 9 0 17 5 17 10 0 12 -1 12 -20 0z"/>
<path d="M1414 1864 c-40 -18 -75 -37 -79 -43 -3 -6 -24 -21 -47 -32 -22 -11
-38 -23 -35 -25 7 -7 107 44 107 55 0 5 26 19 58 31 57 23 79 36 71 43 -2 2
-36 -11 -75 -29z"/>
<path d="M1484 1835 c17 -13 16 -15 -25 -33 -24 -11 -87 -30 -139 -42 -52 -12
-122 -36 -154 -52 -58 -29 -60 -30 -90 -13 -19 10 -24 11 -13 2 9 -8 17 -19
17 -26 0 -17 18 -13 82 19 67 34 89 40 39 9 -33 -20 -33 -20 -5 -44 35 -30 27
-40 -20 -27 -31 9 -36 8 -36 -7 0 -9 -16 -25 -35 -35 -25 -14 -35 -26 -35 -43
0 -25 -43 -73 -66 -73 -8 0 -14 -5 -14 -11 0 -6 -7 -3 -16 6 -10 9 -25 14 -35
12 -22 -6 -69 45 -69 74 0 11 10 30 23 43 13 13 21 28 20 33 -6 16 48 69 90
88 20 9 37 21 37 26 0 13 0 13 -71 -24 -52 -27 -68 -41 -85 -76 -23 -48 -39
-60 -81 -63 -15 -1 -34 -9 -41 -18 -11 -13 -12 -12 -7 8 5 18 2 22 -17 23 -13
0 0 6 27 13 50 12 50 12 -45 12 -61 -1 -104 -6 -120 -15 -14 -8 -50 -23 -80
-33 -55 -19 -55 -19 -13 -14 40 4 73 17 120 46 22 14 22 15 95 -25 21 -12 24
-45 4 -45 -8 0 -22 -9 -30 -21 -18 -26 -30 -19 -56 29 -10 20 -19 30 -20 21 0
-9 9 -28 20 -42 26 -33 25 -46 -6 -57 -35 -14 -39 -13 -23 6 12 15 11 16 -11
9 -14 -4 -29 -14 -35 -20 -5 -7 -27 -16 -48 -19 -21 -4 -35 -11 -32 -16 3 -4
26 -2 52 6 43 12 46 12 29 -1 -25 -19 -13 -19 22 -1 79 40 96 26 28 -22 -40
-29 -86 -36 -70 -11 10 17 -8 9 -38 -16 -34 -29 -48 -32 -48 -10 0 8 -5 15
-11 15 -6 0 -9 6 -6 14 12 32 -51 -19 -77 -61 -14 -24 -36 -47 -50 -52 -56
-22 -76 -99 -34 -129 17 -12 17 -15 -8 -64 -14 -28 -28 -76 -31 -107 -5 -40
-8 -50 -14 -36 -4 11 -6 43 -3 70 3 36 2 44 -5 30 -24 -51 -13 -104 34 -166
50 -65 50 -66 31 -92 -13 -17 -15 -17 -32 0 -17 17 -17 16 -11 -21 3 -21 13
-46 22 -56 8 -9 15 -33 15 -53 0 -24 5 -37 13 -37 7 0 18 -15 25 -33 7 -18 25
-49 42 -67 32 -36 36 -45 21 -55 -14 -8 -64 58 -78 102 -11 38 -11 38 -12 8
-2 -89 199 -262 235 -204 5 9 -1 10 -20 5 -33 -8 -90 19 -82 39 3 8 1 17 -5
20 -5 4 -7 11 -4 16 4 5 3 15 -2 22 -16 26 -11 37 18 37 18 0 28 4 24 10 -8
12 6 13 38 1 32 -12 70 -87 57 -112 -13 -24 -13 -25 12 -49 33 -31 127 -77
199 -96 72 -20 315 -23 346 -5 14 8 11 9 -14 5 -18 -4 -33 -4 -33 -1 0 8 60
37 77 37 7 0 13 5 13 10 0 6 -4 10 -8 10 -10 0 -79 -35 -96 -49 -32 -27 -341
0 -373 33 -6 6 9 36 18 36 5 0 9 9 9 19 0 11 4 23 10 26 6 4 7 -5 4 -23 -4
-19 -1 -32 10 -41 20 -17 32 -8 14 10 -8 7 -12 24 -10 39 3 20 -2 29 -22 38
-19 9 -24 8 -20 -1 2 -7 -9 -20 -26 -30 -16 -10 -30 -13 -30 -8 0 6 -4 11 -9
11 -6 0 -8 -9 -6 -21 3 -13 0 -19 -8 -16 -7 3 -11 10 -9 16 1 8 -3 10 -10 5
-7 -4 -5 2 5 13 9 11 17 25 17 32 0 9 5 7 16 -3 20 -21 23 -20 17 4 -5 19 4
25 35 21 8 -1 12 6 10 16 -2 14 4 19 27 20 27 2 28 2 8 -7 -23 -9 -32 -40 -13
-40 5 0 9 5 7 11 -1 6 6 13 16 14 22 4 46 -30 40 -58 -4 -20 -3 -20 7 -4 6 10
8 27 4 40 -5 12 -8 24 -9 27 0 3 -4 11 -8 18 -5 7 -4 12 2 12 6 0 11 5 11 10
0 6 -9 10 -19 10 -22 0 -61 60 -61 94 0 35 55 44 87 14 13 -12 23 -27 23 -34
0 -19 47 -71 71 -77 16 -4 19 -2 14 10 -19 52 -15 111 9 131 19 14 22 22 13
31 -8 8 -8 11 1 11 6 0 20 -9 30 -20 19 -21 19 -21 25 10 6 25 11 30 37 30 29
0 36 -12 31 -56 -1 -13 57 -40 76 -36 7 2 21 -11 32 -28 10 -18 22 -27 25 -22
3 6 15 8 26 5 30 -8 114 17 101 30 -8 8 -15 7 -23 -1 -7 -7 -19 -12 -27 -12
-10 1 -7 6 9 15 25 14 25 14 0 23 -29 11 -44 6 -36 -14 3 -9 0 -11 -11 -7 -12
5 -14 3 -8 -7 6 -10 4 -12 -8 -7 -9 3 -18 1 -20 -6 -2 -7 -12 3 -21 22 -18 34
-18 34 20 28 21 -4 43 -2 49 3 8 6 25 3 50 -10 56 -29 68 -24 17 7 -37 22 -41
28 -30 41 7 9 -2 6 -20 -7 -23 -16 -40 -21 -58 -17 -17 5 -35 1 -51 -9 -22
-15 -61 -13 -64 3 -1 4 -3 23 -5 42 -1 19 -6 44 -9 56 -8 27 60 60 84 40 11
-9 13 -8 9 4 -3 8 7 31 22 50 26 35 26 35 3 75 -13 22 -26 48 -29 57 -4 10
-10 15 -15 12 -5 -3 -12 8 -15 25 -4 17 -10 31 -14 31 -8 0 -89 106 -97 127
-3 7 0 13 6 13 13 0 -11 65 -43 120 -25 42 -23 94 4 130 19 25 19 25 26 -7 9
-46 20 -41 16 6 -4 39 23 71 47 57 5 -3 12 5 15 19 4 14 10 25 15 25 5 0 7 9
4 20 -4 14 4 24 28 39 19 11 39 25 46 30 15 14 26 14 18 1 -3 -5 2 -10 12 -10
10 -1 28 -17 41 -37 25 -38 24 -54 -1 -28 -16 16 -37 20 -37 7 0 -8 43 -28 83
-38 15 -3 27 -10 27 -15 0 -5 4 -9 10 -9 5 0 7 8 3 18 -3 9 8 2 26 -16 17 -19
29 -38 26 -43 -4 -5 -1 -9 6 -9 7 0 5 -9 -6 -26 -9 -14 -14 -28 -11 -32 3 -3
6 0 6 6 0 7 7 12 17 12 14 0 14 -2 -2 -20 -21 -23 -65 -29 -46 -6 9 11 9 14
-1 13 -41 -1 -51 3 -38 18 15 18 6 45 -15 45 -9 0 -13 5 -10 10 9 15 -17 12
-61 -6 -38 -16 -84 -25 -84 -17 0 2 9 13 19 24 21 23 33 76 21 98 -7 14 -40
-54 -40 -85 0 -8 -7 -17 -15 -20 -8 -4 -12 -10 -9 -15 3 -5 -2 -6 -10 -3 -28
11 -17 -14 14 -33 30 -17 35 -33 12 -41 -7 -2 -12 3 -12 12 0 9 -4 16 -10 16
-5 0 -10 -11 -10 -25 0 -28 -3 -29 -30 -15 -15 8 -18 7 -14 -3 3 -8 -1 -17 -9
-20 -21 -8 -40 -67 -23 -67 8 0 13 7 12 16 0 9 5 19 13 22 10 3 12 -1 8 -19
-6 -24 -6 -24 11 -3 29 36 49 36 110 3 86 -47 87 -49 30 -87 -50 -32 -50 -32
-46 -3 2 17 1 28 -4 25 -20 -13 1 -144 23 -144 12 0 11 17 -1 25 -5 3 -10 14
-10 23 0 12 6 7 20 -13 25 -38 25 -61 0 -110 -12 -23 -16 -41 -10 -43 5 -2 10
-11 10 -20 0 -9 5 -24 11 -32 8 -12 10 -8 6 15 -3 17 3 66 13 110 30 130 127
205 265 205 19 0 37 -4 40 -10 3 -5 13 -10 21 -10 20 0 -1 22 -31 34 -21 8
-138 -10 -167 -25 -11 -6 -18 -6 -18 0 0 6 -15 13 -33 16 -40 8 -63 46 -37 62
12 8 22 4 43 -18 15 -16 32 -29 39 -29 7 0 -3 14 -21 31 -18 16 -30 33 -26 37
3 4 12 -1 19 -11 18 -24 29 -22 16 3 -12 22 -5 42 13 38 25 -5 66 13 72 32 4
12 12 17 23 14 14 -5 14 -3 -2 10 -12 9 -17 23 -13 36 4 15 -4 28 -29 48 -19
15 -34 35 -34 45 0 9 -4 17 -10 17 -5 0 -11 15 -12 33 -1 27 -2 25 -7 -12 -8
-61 -24 -61 -65 0 -39 58 -37 88 8 100 14 4 35 18 45 30 17 22 21 22 45 10 14
-8 26 -23 26 -33 0 -10 5 -18 11 -18 6 0 9 7 5 15 -3 8 0 15 7 15 18 0 -44 38
-76 45 -22 6 -26 4 -21 -9 4 -11 1 -16 -10 -16 -9 0 -16 -4 -16 -8 0 -14 -51
-33 -72 -26 -22 6 -7 34 18 34 8 0 14 6 14 13 0 12 101 47 137 47 10 0 44 11
75 24 42 17 60 20 68 12 8 -8 9 -6 4 9 -11 30 -25 45 -43 45 -14 -1 -13 -3 3
-15z m-632 -277 c-13 -13 -17 -42 -4 -34 4 2 18 -11 31 -29 13 -19 32 -37 42
-40 16 -5 18 -13 13 -48 -7 -42 -23 -84 -24 -60 0 7 -18 18 -40 24 -44 13 -45
15 -30 55 16 41 3 41 -14 0 -8 -20 -20 -36 -25 -36 -6 0 -11 -7 -11 -16 0 -8
-4 -12 -10 -9 -9 6 -16 -6 -36 -60 -6 -19 -7 -18 -15 5 -5 16 -6 7 -2 -25 5
-50 28 -99 41 -92 4 3 21 -8 37 -24 30 -29 30 -29 -1 -29 -18 0 -34 6 -37 14
-6 14 -65 27 -72 16 -3 -4 -16 -5 -30 -2 -15 2 -25 0 -25 -7 0 -6 7 -11 16
-11 8 0 12 -5 9 -11 -4 -6 -13 -8 -21 -5 -7 3 -11 0 -8 -7 2 -7 -5 -18 -16
-25 -18 -11 -20 -10 -20 17 0 17 5 33 11 36 6 4 8 22 5 44 -7 38 6 93 47 202
38 101 65 135 91 109 16 -16 30 -12 16 5 -16 20 1 42 38 48 54 8 57 8 44 -5z
m432 -159 c-10 -11 -22 -19 -28 -19 -6 0 -5 4 3 9 9 6 10 11 2 15 -6 4 -14 0
-17 -9 -5 -13 -9 -13 -22 -3 -13 11 -14 10 -3 -9 15 -29 7 -29 -20 -2 -12 12
-18 27 -14 37 5 14 7 14 15 2 7 -11 10 -11 10 -2 0 22 42 31 68 14 21 -14 22
-16 6 -33z m-327 19 c-3 -8 -6 -5 -6 6 -1 11 2 17 5 13 3 -3 4 -12 1 -19z
m213 -17 c0 -18 -18 -21 -30 -6 -10 13 -9 15 9 15 11 0 21 -4 21 -9z m-539
-31 c-6 -5 -11 -11 -11 -14 1 -29 -1 -36 -9 -31 -6 3 -14 -2 -19 -12 -8 -13
-9 -9 -7 17 2 34 30 64 48 53 5 -3 5 -9 -2 -13z m-195 -17 c-4 -16 -8 -43 -9
-60 -2 -18 -9 -38 -16 -45 -8 -8 -11 -8 -8 -2 12 22 -17 32 -35 13 -16 -17
-16 -18 5 -21 18 -2 22 -9 20 -36 0 -18 -3 -35 -6 -38 -10 -10 -37 10 -46 34
-8 24 -10 25 -10 5 -1 -12 -5 -25 -11 -28 -16 -10 -12 51 5 65 8 7 15 17 15
22 0 5 10 23 22 41 55 78 86 99 74 50z m757 3 c0 -11 4 -15 13 -12 42 16 58
-23 19 -48 -35 -23 -62 -20 -92 10 -26 26 -26 26 -3 39 13 7 30 11 37 8 9 -4
11 0 7 12 -5 13 -3 16 7 13 8 -3 13 -13 12 -22z m127 5 c0 -14 -12 -20 -26
-14 -22 8 -17 32 6 26 11 -3 20 -9 20 -12z m-760 -47 c18 -41 18 -41 -19 -42
-52 -1 -75 -6 -83 -17 -5 -6 -8 -3 -8 7 0 9 6 19 13 21 7 3 4 6 -6 6 -30 1
-16 34 23 53 48 24 60 19 80 -28z m340 24 c11 -13 23 -33 26 -45 4 -13 10 -20
16 -17 9 6 4 -38 -12 -96 -13 -49 -65 -28 -77 31 -3 16 -10 29 -15 29 -6 0 -7
-12 -4 -27 6 -26 5 -27 -8 -9 -25 31 -42 122 -26 141 19 23 75 19 100 -7z
m368 -3 c-3 -3 -9 2 -12 12 -6 14 -5 15 5 6 7 -7 10 -15 7 -18z m-488 -22 c0
-21 -3 -24 -9 -14 -5 8 -7 20 -4 28 8 21 13 15 13 -14z m306 -8 c-24 -18 -33
-19 -42 -3 -5 8 -2 9 9 5 10 -3 17 -2 17 3 0 6 8 10 18 10 15 -1 15 -2 -2 -15z
m-485 -28 c-10 -9 -11 -8 -5 6 3 10 9 15 12 12 3 -3 0 -11 -7 -18z m163 -32
c6 -40 6 -40 -9 -13 -8 15 -12 34 -9 43 8 21 10 18 18 -30z m453 18 c-4 -3
-10 -3 -14 0 -3 4 0 7 7 7 7 0 10 -3 7 -7z m-647 -13 c-12 -8 -11 -10 8 -10
27 0 28 -8 5 -26 -17 -13 -17 -13 0 -14 9 0 17 -7 17 -15 0 -8 -8 -15 -17 -15
-15 0 -15 -2 -4 -9 16 -10 9 -83 -9 -89 -7 -3 -6 -10 1 -23 5 -11 7 -25 3 -31
-4 -6 -3 -8 3 -5 30 19 19 -69 -13 -104 -23 -25 -37 -24 -24 2 22 40 4 33 -40
-15 -39 -42 -42 -48 -20 -41 22 6 23 6 10 -8 -8 -9 -28 -17 -45 -19 -27 -3
-30 0 -27 22 2 14 10 32 18 41 23 26 18 106 -7 114 -34 11 -36 0 -26 -107 6
-64 3 -66 -81 -46 -49 12 -73 46 -71 100 1 30 2 31 8 8 7 -22 8 -19 14 20 8
48 55 156 56 128 1 -9 6 -20 13 -24 7 -5 9 -2 6 8 -9 23 9 47 22 28 9 -15 11
-13 14 12 0 7 9 14 20 16 16 3 18 0 11 -25 -11 -44 -11 -55 3 -60 7 -3 12 3
12 14 0 12 6 7 17 -15 22 -45 27 -35 8 18 -22 62 -20 78 5 55 11 -10 20 -13
20 -7 0 6 -4 14 -10 17 -5 3 -10 11 -10 17 0 7 6 6 15 -2 13 -11 15 -8 15 14
0 14 5 26 11 26 5 0 8 4 5 9 -9 14 38 48 69 50 6 0 3 -4 -5 -9z m421 -44 c13
-14 11 -28 -3 -20 -7 5 -9 2 -6 -7 3 -8 9 -21 13 -30 6 -16 -29 -34 -46 -23
-11 6 -3 64 10 77 6 6 12 20 12 32 1 20 1 20 6 0 3 -11 9 -24 14 -29z m-511
24 c0 -5 -7 -7 -15 -4 -8 4 -15 8 -15 10 0 2 7 4 15 4 8 0 15 -4 15 -10z
m-190 -27 c0 -20 -3 -24 -11 -16 -7 7 -9 19 -6 27 10 24 17 19 17 -11z m167
-15 c-3 -8 -6 -5 -6 6 -1 11 2 17 5 13 3 -3 4 -12 1 -19z m808 -36 c-25 -26
-48 -55 -51 -65 -5 -15 -9 -12 -25 18 -16 30 -18 40 -8 52 22 25 70 45 96 38
18 -4 23 -2 17 6 -4 8 -3 9 5 5 8 -5 -3 -23 -34 -54z m-895 -7 c0 -2 -9 -3
-19 -2 -11 0 -18 5 -15 9 4 6 34 0 34 -7z m369 -2 c-1 -5 -1 -17 0 -28 1 -17
3 -18 11 -4 11 18 93 17 116 -2 17 -14 19 -90 2 -108 -7 -7 -8 -12 -3 -11 6 2
15 2 21 1 13 -1 74 -114 74 -136 0 -9 7 -26 15 -39 29 -44 1 -63 -72 -51 -33
6 -50 28 -68 85 -7 22 -6 23 8 12 14 -12 14 -9 1 35 -8 26 -12 54 -9 63 4 12
2 11 -8 -2 -12 -15 -14 -15 -26 4 -10 17 -10 22 5 32 11 9 15 19 10 31 -6 17
-7 17 -25 1 -25 -23 -66 -5 -58 25 3 10 1 19 -3 19 -15 0 -17 -25 -3 -57 18
-45 17 -53 -12 -53 -14 0 -25 4 -25 10 0 5 -7 7 -15 4 -44 -17 -18 75 35 125
17 15 21 25 12 28 -6 3 -10 9 -6 14 6 11 24 12 23 2z m-47 -21 c-7 -2 -12 -10
-12 -18 0 -8 -4 -14 -10 -14 -5 0 -10 -8 -10 -18 0 -11 -7 -18 -20 -18 -19 0
-19 1 1 19 11 10 24 30 30 44 5 15 13 21 21 17 9 -6 9 -9 0 -12z m247 -18 c2
-2 2 -7 -2 -10 -8 -9 -47 6 -47 17 0 9 37 3 49 -7z m102 -25 c24 -30 29 -43
20 -49 -9 -5 -10 -9 -2 -14 6 -4 11 -11 11 -16 0 -11 -41 0 -60 16 -9 7 -26
11 -38 7 -19 -4 -22 -1 -22 21 0 14 -5 26 -12 26 -15 0 1 17 34 35 33 19 33
19 69 -26z m-401 17 c0 -2 -8 -10 -17 -17 -16 -13 -17 -12 -4 4 13 16 21 21
21 13z m294 -80 c-3 -9 -10 -16 -15 -16 -11 0 -12 43 -2 54 10 10 24 -20 17
-38z m-327 27 c-4 -3 -10 -3 -14 0 -3 4 0 7 7 7 7 0 10 -3 7 -7z m499 -61 c-9
-8 -26 10 -26 26 1 15 2 15 15 -2 8 -11 13 -21 11 -24z m-673 -40 c8 -17 8
-25 -1 -34 -9 -9 -12 -8 -12 4 0 8 -2 31 -5 49 -3 19 -3 27 1 19 3 -8 10 -25
17 -38z m647 27 c0 -5 8 -9 18 -9 42 0 84 -79 63 -119 -14 -25 -81 -61 -115
-61 -34 0 -52 21 -70 84 -9 30 -21 58 -26 61 -6 3 -10 11 -10 17 0 16 31 -13
40 -37 8 -21 10 -18 40 61 8 22 60 24 60 3z m-106 -5 c3 -8 2 -12 -4 -9 -6 3
-10 10 -10 16 0 14 7 11 14 -7z m-324 -24 c0 -24 -3 -28 -17 -23 -33 11 -34
15 -17 34 24 27 34 24 34 -11z m136 -4 c10 -8 19 -27 20 -43 0 -15 4 -35 8
-44 5 -12 -7 -22 -53 -42 -77 -34 -75 -35 -68 14 3 23 1 53 -4 67 -16 41 -3
62 40 62 20 0 46 -6 57 -14z m-116 -55 c28 -54 -7 -131 -60 -131 -20 0 -33 7
-42 23 -17 31 -17 56 -1 50 7 -3 14 -15 14 -27 2 -21 2 -21 6 1 4 18 8 20 34
13 19 -6 27 -5 23 1 -3 5 0 16 6 24 15 18 7 19 -21 3 -17 -11 -22 -10 -35 7
-15 21 -14 40 4 40 5 0 14 3 18 8 14 14 43 7 54 -12z m157 2 c-4 -3 -7 0 -7 7
0 7 3 10 7 7 3 -4 3 -10 0 -14z m-287 -18 c-7 -9 -15 -13 -17 -11 -7 7 7 26
19 26 6 0 6 -6 -2 -15z m-164 -44 c-5 -8 -56 -3 -56 5 0 2 14 4 31 4 16 0 28
-4 25 -9z m34 -1 c0 -5 -5 -10 -11 -10 -5 0 -7 5 -4 10 3 6 8 10 11 10 2 0 4
-4 4 -10z m-67 -27 c-7 -2 -19 -2 -25 0 -7 3 -2 5 12 5 14 0 19 -2 13 -5z
m141 -23 c-9 -16 -20 -30 -25 -30 -13 0 -11 18 4 23 9 4 9 8 -2 15 -13 10 -6
15 31 21 3 0 0 -12 -8 -29z m66 -20 c-7 -14 -5 -19 10 -23 28 -7 25 -35 -6
-49 -52 -24 -86 22 -60 81 18 39 19 39 42 24 18 -12 21 -19 14 -33z m299 24
c31 -26 40 -44 21 -44 -5 0 -10 8 -11 18 0 11 -2 13 -6 4 -4 -10 -9 -8 -20 7
-8 12 -19 21 -24 21 -6 0 -1 -13 11 -30 16 -23 22 -48 24 -108 3 -55 9 -88 22
-108 18 -27 18 -28 1 -15 -10 8 -25 28 -34 45 -9 17 -34 52 -56 78 -32 39 -38
52 -33 74 6 23 5 26 -7 15 -12 -9 -16 -8 -20 3 -4 10 6 19 31 30 20 8 31 15
24 15 -7 1 -26 -6 -42 -14 -17 -9 -30 -12 -30 -7 0 12 61 39 92 41 15 0 39
-10 57 -25z m-452 -5 c26 -10 27 -12 8 -19 -28 -12 -37 -12 -30 0 3 6 1 10 -4
10 -6 0 -11 -7 -11 -16 0 -13 7 -15 30 -10 28 5 30 3 30 -22 0 -24 -6 -29 -39
-38 -39 -11 -39 -11 -37 27 3 37 -7 69 -19 57 -9 -9 -10 -39 -2 -70 5 -17 3
-28 -3 -28 -5 0 -10 14 -10 30 0 17 -4 30 -10 30 -27 0 -8 40 23 49 43 12 42
12 74 0z m-117 -37 c0 -15 -2 -15 -10 -2 -13 20 -13 33 0 25 6 -3 10 -14 10
-23z m455 -54 c24 -37 24 -37 -12 -44 -62 -12 -93 53 -50 105 12 15 13 14 62
-61z m258 62 c7 0 7 -3 2 -9 -6 -5 -26 -6 -45 -3 -29 4 -32 6 -15 13 11 4 26
6 33 3 8 -2 19 -4 25 -4z m-519 -69 c-7 -7 -12 3 -19 34 -6 30 -6 30 8 0 8
-16 13 -32 11 -34z m443 42 c-4 -3 -10 -3 -14 0 -3 4 0 7 7 7 7 0 10 -3 7 -7z
m43 -18 c-12 -15 -30 -12 -30 6 0 5 10 9 21 9 18 0 19 -2 9 -15z m-74 -53
c-13 -14 -14 -13 -10 9 11 46 17 56 22 30 2 -13 -3 -30 -12 -39z m-266 38 c0
-5 -5 -10 -11 -10 -5 0 -7 5 -4 10 3 6 8 10 11 10 2 0 4 -4 4 -10z m17 -32
c-3 -8 -6 -5 -6 6 -1 11 2 17 5 13 3 -3 4 -12 1 -19z m-240 5 c-4 -3 -10 -3
-14 0 -3 4 0 7 7 7 7 0 10 -3 7 -7z m187 -7 c-4 -11 0 -13 14 -9 23 6 39 -14
23 -30 -7 -7 -4 -14 12 -21 39 -20 34 -53 -10 -60 -21 -4 -45 -9 -54 -12 -9
-3 -25 3 -34 12 -16 16 -16 18 7 35 19 15 20 19 6 19 -10 0 -24 14 -33 30 -9
17 -11 30 -5 30 5 0 10 -7 10 -15 0 -17 35 -20 46 -4 4 8 -1 9 -16 4 -16 -5
-20 -4 -15 5 5 9 31 23 52 29 1 1 0 -5 -3 -13z m-184 -89 c0 -26 -13 -14 -36
32 -10 23 -23 41 -27 41 -5 0 -5 5 -2 11 9 13 64 -60 65 -84z m-4 65 c-4 -3
-14 2 -24 12 -16 18 -16 18 6 6 13 -6 21 -14 18 -18z m34 12 c0 -3 -5 -14 -11
-26 -10 -18 -8 -19 11 -13 22 7 70 -17 70 -35 0 -6 -21 -10 -46 -10 -37 0 -45
3 -40 15 3 8 -3 19 -12 25 -16 9 -16 11 0 23 10 8 15 17 11 20 -3 4 -1 7 5 7
7 0 12 -3 12 -6z m50 -20 c0 -2 -9 -4 -21 -4 -11 0 -18 4 -14 10 5 8 35 3 35
-6z m-125 -39 c27 -48 13 -53 -14 -5 -12 22 -18 40 -13 40 5 0 17 -16 27 -35z
m163 -10 c-3 -3 -9 2 -12 12 -6 14 -5 15 5 6 7 -7 10 -15 7 -18z m349 -2 c-4
-3 -7 0 -7 7 0 7 3 10 7 7 3 -4 3 -10 0 -14z m-460 -40 c-4 -3 -10 -3 -14 0
-3 4 0 7 7 7 7 0 10 -3 7 -7z m293 -29 c0 -18 -24 -18 -39 0 -10 11 -8 15 6
18 23 6 33 0 33 -18z m-40 -26 c0 -5 -7 -3 -15 6 -8 8 -15 18 -15 22 0 3 7 1
15 -6 8 -7 15 -17 15 -22z m-29 -21 c-13 -13 -26 -3 -16 12 3 6 11 8 17 5 6
-4 6 -10 -1 -17z m-217 -27 c-6 -5 -24 21 -24 34 0 6 6 1 14 -10 8 -10 12 -21
10 -24z m184 5 c-3 -3 -9 2 -12 12 -6 14 -5 15 5 6 7 -7 10 -15 7 -18z m-8
-29 c0 -3 -4 -8 -10 -11 -5 -3 -10 -1 -10 4 0 6 5 11 10 11 6 0 10 -2 10 -4z
m95 -46 c-3 -5 -13 -10 -21 -10 -8 0 -12 -4 -9 -10 3 -5 2 -10 -4 -10 -17 0
-24 22 -10 31 19 12 52 11 44 -1z"/>
<path d="M808 1508 c-3 -7 1 -19 8 -26 16 -15 20 3 5 26 -7 11 -9 11 -13 0z"/>
<path d="M900 1410 c0 -7 3 -10 7 -7 3 4 3 10 0 14 -4 3 -7 0 -7 -7z"/>
<path d="M526 1224 c-9 -22 3 -32 14 -14 12 19 12 30 1 30 -5 0 -12 -7 -15
-16z"/>
<path d="M500 1100 c0 -7 3 -10 7 -7 3 4 3 10 0 14 -4 3 -7 0 -7 -7z"/>
<path d="M423 1043 c4 -3 10 -3 14 0 3 4 0 7 -7 7 -7 0 -10 -3 -7 -7z"/>
<path d="M470 915 c0 -8 4 -15 10 -15 5 0 7 7 4 15 -4 8 -8 15 -10 15 -2 0 -4
-7 -4 -15z"/>
<path d="M995 860 c3 -5 8 -10 11 -10 3 0 2 5 -1 10 -3 6 -8 10 -11 10 -3 0
-2 -4 1 -10z"/>
<path d="M1050 842 c0 -5 7 -15 15 -22 8 -7 15 -8 15 -2 0 5 -7 15 -15 22 -8
7 -15 8 -15 2z"/>
<path d="M610 790 c0 -7 3 -10 7 -7 3 4 3 10 0 14 -4 3 -7 0 -7 -7z"/>
<path d="M613 763 c4 -3 10 -3 14 0 3 4 0 7 -7 7 -7 0 -10 -3 -7 -7z"/>
<path d="M830 620 c0 -7 3 -10 7 -7 3 4 3 10 0 14 -4 3 -7 0 -7 -7z"/>
<path d="M1378 1813 c7 -3 16 -2 19 1 4 3 -2 6 -13 5 -11 0 -14 -3 -6 -6z"/>
<path d="M895 1794 c-371 -59 -672 -319 -771 -665 -127 -449 104 -868 556
-1010 107 -33 335 -34 460 0 239 64 435 228 580 484 18 32 30 60 27 63 -3 3
-16 -14 -28 -38 -108 -211 -298 -393 -489 -466 -153 -59 -383 -76 -520 -39
-448 122 -695 542 -577 985 84 316 319 551 641 641 138 39 248 48 344 27 62
-14 77 -14 99 -2 25 13 24 13 -23 13 -27 0 -98 3 -159 6 -60 3 -123 3 -140 1z"/>
<path d="M1535 1765 c4 -11 14 -37 22 -59 16 -45 42 -96 48 -96 2 0 -3 16 -11
36 -19 45 -14 52 10 16 28 -41 60 -61 108 -67 43 -5 43 -5 8 6 -60 18 -77 32
-136 109 -32 41 -54 66 -49 55z"/>
<path d="M2480 1764 c-92 -14 -152 -29 -202 -50 -66 -28 -72 -29 -63 -11 4 6
-3 0 -15 -15 -12 -16 -27 -28 -34 -28 -7 0 -23 -11 -36 -25 -13 -14 -29 -25
-35 -25 -7 0 -20 -9 -29 -19 -10 -11 -32 -25 -49 -32 -18 -7 -39 -18 -47 -24
-50 -41 -179 -49 -237 -15 -45 26 -55 19 -11 -8 50 -31 124 -37 193 -18 31 10
59 16 61 14 2 -2 -13 -26 -33 -54 -49 -68 -83 -144 -109 -244 -23 -88 -26 -88
-44 -7 -23 104 -85 214 -192 338 -53 62 -141 129 -154 116 -3 -2 15 -16 39
-30 121 -71 269 -293 298 -447 20 -110 14 -368 -10 -428 -25 -62 -27 -77 -5
-42 20 34 14 4 -15 -68 -12 -29 -17 -51 -12 -48 19 12 61 138 61 182 0 25 3
43 8 41 4 -3 6 18 5 46 -2 46 -1 43 17 -35 89 -404 448 -708 836 -708 36 0 64
-4 64 -10 0 -5 18 -10 41 -10 28 0 39 -4 37 -12 -3 -8 -20 -12 -44 -11 -33 2
-35 1 -14 -7 49 -16 70 -12 70 15 0 18 4 23 15 19 8 -4 15 -1 15 6 0 9 -14 11
-52 6 -72 -8 -41 9 41 23 165 28 385 183 479 336 46 76 107 245 82 230 -4 -3
-11 -22 -14 -42 -13 -72 -96 -222 -155 -282 -114 -114 -266 -202 -402 -232
-303 -66 -646 74 -834 341 -277 393 -211 902 146 1136 140 91 247 124 410 124
397 0 763 -308 844 -710 12 -59 13 -61 14 -24 2 86 -90 296 -177 404 -191 236
-507 380 -752 344z m-673 -811 c-4 -3 -7 0 -7 7 0 7 3 10 7 7 3 -4 3 -10 0
-14z"/>
<path d="M1465 1690 c10 -11 34 -29 54 -40 35 -20 35 -19 -9 19 -47 42 -76 56
-45 21z"/>
<path d="M2534 1692 c4 -6 22 -14 41 -18 42 -7 63 -29 39 -38 -9 -3 -21 -3
-26 1 -6 3 -8 2 -5 -3 3 -6 -8 -16 -24 -23 -28 -12 -29 -15 -23 -59 3 -26 11
-49 16 -51 6 -2 25 -16 42 -32 31 -29 31 -29 -1 -18 -17 6 -39 19 -49 30 -9
10 -22 19 -27 19 -6 0 -3 -8 6 -18 26 -29 39 -72 26 -88 -6 -8 -8 -14 -3 -15
5 0 19 -2 31 -3 12 -1 20 1 17 5 -2 5 1 17 8 29 28 44 95 8 82 -44 -4 -17 -2
-26 5 -26 7 0 24 -9 39 -20 31 -22 86 -11 120 25 16 16 16 17 -5 6 -13 -7 -23
-8 -23 -3 0 34 22 116 35 129 19 18 -4 43 -40 42 -18 0 -17 -1 4 -10 18 -7 22
-14 16 -32 -4 -12 -11 -43 -17 -69 -11 -51 -14 -53 -38 -38 -13 9 -13 10 0 11
8 0 2 5 -15 10 -16 5 -38 6 -48 3 -10 -3 -17 -2 -16 3 3 19 -2 34 -10 29 -5
-3 -14 1 -21 9 -7 8 -17 15 -22 15 -5 0 -21 11 -36 25 -27 26 -27 26 1 16 36
-14 34 -5 -4 15 -21 10 -29 11 -23 3 5 -9 2 -10 -10 -6 -10 4 -20 7 -22 7 -2
0 -4 5 -4 10 0 6 7 10 15 10 9 0 12 6 8 15 -3 9 -2 15 3 14 18 -3 29 2 54 22
25 20 25 20 0 13 -14 -4 -28 -11 -31 -17 -4 -5 -11 -7 -17 -3 -6 3 -15 -2 -21
-11 -9 -16 -10 -16 -11 5 0 13 6 22 15 22 9 0 27 11 42 24 34 31 48 28 166
-44 10 -7 17 -7 17 -1 0 11 -114 81 -132 81 -6 0 -20 8 -30 17 -11 9 -24 18
-31 19 -7 1 -25 5 -41 9 -20 6 -27 5 -22 -3z m60 -274 c-9 -14 -22 -9 -27 11
-4 17 -2 18 13 8 10 -6 16 -15 14 -19z m196 -66 c25 -16 25 -16 -8 -26 -28 -8
-36 -6 -57 14 -45 42 5 52 65 12z"/>
<path d="M1054 1648 c-4 -7 -3 -8 4 -4 7 4 12 9 12 12 0 8 -9 4 -16 -8z"/>
<path d="M1305 1650 c3 -5 14 -10 23 -10 15 0 15 2 2 10 -20 13 -33 13 -25 0z"/>
<path d="M850 1640 c-9 -6 -10 -10 -3 -10 6 0 15 5 18 10 8 12 4 12 -15 0z"/>
<path d="M935 1641 c-3 -5 -1 -12 5 -16 5 -3 10 1 10 9 0 18 -6 21 -15 7z"/>
<path d="M2415 1616 c20 -17 20 -17 -6 -12 -34 7 -163 -45 -200 -80 -15 -14
-30 -42 -34 -61 -7 -38 -50 -113 -64 -113 -12 0 -2 38 17 68 8 12 11 22 6 22
-4 0 -3 5 4 12 20 20 14 25 -30 26 -80 4 -105 -38 -137 -228 -15 -83 -20 -99
-26 -78 -4 15 -2 42 4 59 6 18 11 44 10 58 -1 18 -5 11 -15 -24 -22 -78 4
-224 40 -225 6 0 3 -5 -6 -11 -16 -9 -26 -39 -13 -39 3 0 19 10 34 21 42 31
47 26 107 -111 45 -102 56 -137 58 -190 2 -36 11 -84 19 -107 9 -24 13 -43 9
-43 -4 0 0 -6 8 -13 26 -20 100 -119 100 -132 0 -7 7 -15 15 -19 9 -3 15 0 15
9 0 8 3 15 6 15 10 0 104 -93 99 -98 -10 -10 80 -43 149 -53 318 -50 628 154
697 460 6 25 15 54 20 64 17 30 3 30 -22 0 -36 -42 -78 -69 -141 -89 -57 -17
-58 -17 -130 7 -40 13 -77 24 -83 24 -14 0 -99 124 -91 132 2 2 20 -12 41 -31
32 -29 95 -63 95 -51 0 2 -20 15 -44 29 -135 79 -190 228 -132 357 49 111 134
152 227 109 24 -11 53 -19 64 -19 11 0 -2 9 -29 19 -64 25 -69 31 -56 64 12
33 11 32 -71 -19 -62 -39 -189 -160 -189 -181 0 -31 -24 -31 -44 -1 -19 27
-20 34 -9 46 12 11 16 11 27 -4 11 -15 11 -11 2 28 -13 59 -20 59 -47 -3 -24
-55 -54 -78 -136 -105 -29 -10 -53 -21 -53 -25 0 -9 32 -1 83 19 15 6 27 8 27
5 0 -4 6 -1 14 5 11 9 16 9 22 0 4 -7 3 -10 -2 -7 -5 4 -9 -14 -9 -38 -1 -50
14 -61 17 -11 1 17 2 39 3 47 1 17 33 66 38 59 36 -45 49 -84 44 -130 -3 -27
-2 -49 3 -49 5 0 14 -16 21 -35 7 -19 20 -35 29 -35 24 -1 48 -24 55 -53 7
-25 6 -26 -28 -20 -20 3 -37 1 -41 -6 -14 -22 -26 -10 -26 25 0 21 4 33 10 29
6 -3 10 -4 10 -2 0 12 -33 67 -47 78 -9 8 -22 27 -30 44 -14 30 -14 30 -10 -2
3 -27 0 -32 -22 -36 -46 -9 -58 6 -53 68 2 15 0 16 -7 7 -6 -11 -10 -10 -15 4
-11 29 -16 9 -6 -26 7 -26 6 -39 -5 -57 -14 -21 -14 -23 0 -23 12 0 15 -6 9
-22 -9 -31 -44 -53 -44 -28 0 6 7 10 15 10 11 0 9 12 -10 64 -13 35 -22 73
-20 84 2 14 -2 21 -13 20 -9 0 -27 3 -40 6 -15 3 -25 0 -29 -9 -3 -8 -9 -15
-15 -15 -5 0 -7 4 -4 9 7 10 -42 33 -55 26 -5 -4 -9 -2 -9 3 0 5 11 14 25 20
15 7 25 8 25 2 0 -6 4 -10 10 -10 6 0 6 9 0 26 -12 32 -12 34 0 34 6 0 10 -6
10 -14 0 -8 5 -18 11 -22 8 -4 9 1 4 16 -5 15 -2 25 6 31 21 13 26 11 32 -11
3 -11 10 -20 17 -20 7 0 5 11 -6 30 -14 22 -21 27 -31 18 -12 -10 -13 14 -3
42 2 3 2 9 1 14 -4 19 31 56 52 56 21 -1 21 -1 -5 -21 -16 -11 -28 -26 -28
-32 0 -6 10 -1 23 10 12 11 33 26 46 33 24 12 24 12 -15 46 -39 33 -39 33 -9
34 19 0 25 3 17 8 -7 5 -10 16 -6 26 4 11 -1 24 -15 37 -12 11 -19 24 -16 29
3 5 1 11 -5 15 -15 10 -12 23 8 28 11 3 8 5 -9 6 -21 1 -25 5 -24 29 1 15 0
18 -2 7 -3 -11 -16 -32 -30 -47 -23 -24 -26 -35 -24 -85 1 -58 1 -58 -24 -20
-25 35 -25 39 -11 67 8 17 11 32 6 35 -4 3 -11 -6 -14 -20 -4 -14 -13 -25 -21
-25 -8 0 -15 -5 -15 -10 0 -17 -43 -28 -67 -17 -23 10 -23 10 -1 48 12 21 26
35 31 32 6 -3 7 -1 4 4 -8 13 18 37 31 29 5 -3 18 1 28 9 22 16 38 20 29 6 -3
-5 -1 -12 4 -15 5 -4 11 4 13 16 2 15 9 22 21 22 9 -1 17 3 17 8 0 7 15 8 37
5 26 -5 33 -3 25 5 -6 6 -21 12 -34 13 -13 2 -32 6 -43 10 -20 8 -20 8 0 -9z
m-18 -23 c-4 -3 -10 -3 -14 0 -3 4 0 7 7 7 7 0 10 -3 7 -7z m-137 -73 c0 -5
-9 -14 -20 -20 -24 -13 -26 -7 -4 14 18 18 24 20 24 6z m195 -69 c-10 -58 -13
-93 -14 -143 -1 -27 -4 -48 -8 -48 -7 0 -11 219 -5 244 1 5 9 3 18 -5 12 -9
14 -22 9 -48z m-232 14 c-3 -9 -8 -14 -10 -11 -3 3 -2 9 2 15 9 16 15 13 8 -4z
m-116 -3 c13 -8 -94 -212 -111 -212 -5 0 -6 23 -2 51 16 117 67 190 113 161z
m275 -91 c27 -30 18 -71 -17 -71 -13 0 -27 -5 -31 -12 -12 -18 59 0 74 19 21
29 13 3 -9 -28 -11 -16 -25 -27 -30 -23 -5 3 -12 -2 -15 -10 -3 -9 -17 -16
-30 -16 -13 0 -24 -4 -24 -10 0 -5 -5 -10 -10 -10 -6 0 2 23 16 52 17 34 22
54 15 56 -7 2 -4 17 11 43 12 21 19 42 15 45 -4 4 -14 -9 -22 -29 -8 -21 -19
-37 -23 -37 -14 0 0 72 17 89 15 15 17 15 29 -10 7 -15 23 -37 34 -48z m-127
48 c48 -18 43 -98 -8 -145 -35 -32 -35 -32 -6 -36 23 -4 28 -1 26 15 -1 11 4
22 11 24 19 7 14 -31 -8 -55 -29 -30 -79 -55 -101 -49 -28 7 -23 -8 7 -21 14
-7 23 -8 20 -4 -8 13 94 56 105 45 5 -5 12 -22 15 -36 5 -31 -8 -34 -46 -12
-14 8 -32 14 -40 14 -22 0 51 -38 75 -39 20 -1 20 -1 0 -12 -11 -6 -24 -17
-28 -25 -4 -7 -26 -22 -47 -33 -40 -20 -40 -20 -55 12 -9 18 -29 56 -46 83
-22 37 -28 59 -25 83 5 34 -2 40 -22 20 -7 -7 -12 -8 -12 -3 0 5 17 25 38 45
21 19 27 26 13 15 -26 -20 -26 -20 -6 5 11 13 26 30 33 38 6 7 12 17 12 21 0
9 50 61 58 61 3 0 20 -5 37 -11z m245 -24 c0 -9 -9 -15 -25 -15 -31 0 -33 17
-2 23 12 2 23 5 25 6 1 0 2 -6 2 -14z m-83 -42 c-4 -3 -7 0 -7 7 0 7 3 10 7 7
3 -4 3 -10 0 -14z m-346 -46 c-11 -24 -21 -49 -21 -55 0 -7 -7 -12 -15 -12
-11 0 -7 14 16 61 35 68 53 74 20 6z m455 -5 c-6 -6 -56 29 -56 39 0 5 13 0
30 -12 16 -13 28 -24 26 -27z m439 18 c-3 -5 -12 -10 -18 -10 -7 0 -6 4 3 10
19 12 23 12 15 0z m-495 -4 c0 -3 -4 -8 -10 -11 -5 -3 -10 -1 -10 4 0 6 5 11
10 11 6 0 10 -2 10 -4z m-83 -90 c-15 -7 -24 -15 -21 -19 4 -4 0 -7 -10 -7 -9
0 -14 -4 -11 -10 3 -5 1 -10 -4 -10 -19 0 -12 27 12 43 12 9 31 16 42 16 16
-1 14 -3 -8 -13z m310 -3 c-4 -3 -7 0 -7 7 0 7 3 10 7 7 3 -4 3 -10 0 -14z
m-626 -3 c10 -6 19 -19 19 -29 0 -10 18 -46 41 -80 22 -33 39 -69 37 -78 -2
-10 5 -26 15 -36 12 -12 17 -28 14 -43 -2 -13 -1 -21 3 -19 10 6 20 -20 20
-49 0 -12 9 -39 19 -60 27 -52 24 -73 -11 -71 -42 3 -51 16 -108 151 -30 70
-62 129 -72 135 -21 11 -68 99 -68 128 0 11 14 28 33 40 38 24 33 24 58 11z
m349 -25 c-13 -16 -40 -20 -40 -7 0 14 12 22 33 22 16 0 17 -3 7 -15z m-70
-37 c0 7 5 10 11 6 7 -4 7 -10 1 -16 -12 -12 -32 -2 -32 15 0 7 4 6 10 -3 7
-11 10 -11 10 -2z m-347 -93 c6 -17 4 -17 -13 4 -11 13 -20 30 -20 39 0 19 22
-9 33 -43z m755 -72 c21 -37 15 -63 -6 -28 -13 20 -19 50 -19 90 -1 60 -1 60
6 10 4 -27 12 -60 19 -72z m-415 75 c27 -13 36 -28 17 -28 -5 0 -10 -5 -10
-11 0 -5 5 -7 11 -3 6 3 15 1 19 -6 5 -9 9 -9 14 -1 4 6 2 11 -4 11 -6 0 -9 4
-5 10 3 5 12 7 19 4 8 -3 17 -1 21 5 18 31 65 -2 65 -45 0 -14 -3 -15 -12 -6
-7 7 -21 11 -32 11 -17 -1 -18 -2 -3 -6 20 -5 20 -8 7 -33 -8 -16 -8 -18 5
-14 8 4 15 1 15 -5 0 -6 -10 -11 -22 -12 -19 0 -18 -3 9 -12 43 -16 47 -22 31
-47 -11 -18 -11 -22 3 -30 16 -10 13 -69 -5 -98 -7 -11 -2 -20 32 -57 10 -11
8 -15 -8 -20 -11 -4 -18 -10 -15 -15 5 -8 -24 -25 -38 -21 -5 1 -6 -3 -2 -9 9
-14 -41 -13 -64 1 -17 11 -16 15 16 63 18 28 33 60 32 71 0 19 -1 19 -9 -1
-11 -29 -29 -39 -43 -25 -6 6 -21 11 -32 11 -43 0 -77 57 -77 129 0 18 -2 20
-9 10 -5 -9 -11 -10 -18 -4 -15 17 -59 135 -50 135 5 0 9 -6 9 -12 0 -10 2
-10 9 0 7 11 9 10 14 -3 5 -11 3 -14 -5 -9 -8 5 -9 2 -5 -10 4 -10 7 -20 7
-22 0 -2 4 -4 10 -4 5 0 7 7 3 16 -4 12 -1 15 12 13 12 -3 19 -15 21 -38 5
-41 9 -47 26 -34 9 7 21 7 38 1 25 -10 25 -10 3 -21 -28 -12 -30 -27 -4 -20
23 6 38 -15 17 -23 -8 -3 -12 -12 -9 -20 7 -19 21 -18 26 4 4 14 6 13 12 -6 5
-13 14 -22 24 -20 9 1 22 -1 29 -5 16 -11 15 -3 -7 46 -14 30 -31 48 -58 62
-29 14 -34 20 -20 23 27 6 50 -6 41 -20 -6 -9 -3 -9 9 0 22 18 0 43 -31 36
-25 -7 -62 12 -62 32 0 11 -6 13 -19 9 -19 -6 -51 17 -51 36 0 24 49 33 72 13
18 -15 20 -16 9 -1 -7 9 -10 17 -5 18 5 0 0 4 -11 9 -14 6 -15 9 -4 9 8 1 27
-5 42 -11z m234 -105 c-4 -3 -7 0 -7 7 0 7 3 10 7 7 3 -4 3 -10 0 -14z m122
-17 c15 -18 26 -106 17 -140 -16 -63 -97 -93 -110 -40 -12 48 3 68 52 67 6 -1
12 5 12 13 0 8 5 14 11 14 29 0 -15 28 -54 35 -23 4 -36 9 -29 12 6 3 12 9 12
14 0 6 -4 7 -10 4 -5 -3 -10 -2 -10 3 0 26 90 41 109 18z m-63 -83 c-3 -8 -6
-17 -6 -19 0 -2 -4 -4 -10 -4 -5 0 -10 11 -10 25 0 18 4 23 16 18 8 -3 13 -12
10 -20z m-216 -27 c0 -16 -24 12 -26 31 -2 16 -1 16 12 -1 8 -11 14 -24 14
-30z m170 -4 c-5 -2 -8 -8 -5 -12 3 -5 1 -11 -4 -14 -5 -3 -11 5 -13 19 -3 15
-1 22 5 18 7 -4 8 1 4 13 -7 18 -6 18 8 -1 10 -12 12 -21 5 -23z m249 -18 c2
-2 -1 -9 -6 -16 -6 -7 -13 -25 -17 -40 -3 -16 -12 -28 -20 -28 -7 0 -26 -10
-40 -21 -24 -19 -29 -20 -42 -7 -13 13 -10 21 22 71 34 52 38 56 68 50 17 -3
33 -7 35 -9z m-284 -62 c-7 -15 -8 -15 -15 3 -15 35 -12 48 6 30 10 -9 13 -22
9 -33z m30 28 c3 -5 4 -10 1 -10 -3 0 -8 5 -11 10 -3 6 -4 10 -1 10 3 0 8 -4
11 -10z m-59 -47 c-3 -3 2 -12 12 -19 9 -7 12 -14 6 -14 -19 0 -45 36 -38 55
7 16 8 16 16 0 6 -9 7 -19 4 -22z m371 3 c-1 -1 -22 -19 -46 -41 -24 -22 -40
-34 -36 -26 6 11 4 13 -10 7 -18 -7 -18 -6 0 16 64 76 69 80 82 62 7 -10 12
-18 10 -18z m-523 -7 c13 -12 -10 -85 -29 -93 -16 -6 -16 -4 -19 42 -1 15 -5
37 -10 50 -7 21 -5 22 21 16 15 -4 32 -10 37 -15z m892 -11 c-25 -126 -153
-292 -279 -362 -178 -100 -455 -111 -534 -23 -11 12 -42 40 -69 62 -146 120
-198 191 -192 263 5 57 47 77 82 39 26 -28 61 -87 52 -87 -6 0 38 -69 57 -90
8 -8 21 -29 30 -46 9 -17 33 -43 53 -59 20 -16 53 -44 72 -62 19 -19 36 -32
39 -29 2 2 -12 19 -31 38 -20 19 -36 40 -36 45 0 6 -11 14 -24 17 -26 6 -40
33 -41 78 -1 23 1 25 17 17 19 -10 22 -20 11 -35 -5 -5 1 -2 11 8 17 15 18 19
5 34 -12 15 -12 16 7 10 15 -4 24 -2 28 9 3 8 13 15 22 15 10 0 14 -5 10 -15
-4 -11 1 -15 17 -15 45 0 52 -16 22 -44 -21 -20 -24 -25 -9 -20 15 6 13 0 -10
-24 -27 -29 -28 -32 -12 -48 44 -43 99 -84 114 -83 15 0 15 1 1 7 -26 12 -65
46 -75 67 -15 32 -11 50 19 77 15 14 27 33 27 42 0 9 8 16 18 16 9 0 13 -4 7
-8 -5 -4 -15 -17 -22 -28 -10 -19 -10 -21 7 -17 13 4 19 -1 22 -19 2 -15 9
-22 20 -20 20 3 15 -21 -10 -50 -10 -12 -11 -18 -3 -18 6 0 21 16 32 35 12 19
26 35 33 35 8 0 12 17 13 48 0 41 -3 47 -21 49 -12 0 -36 2 -54 4 -40 3 -22
18 23 19 30 1 30 1 0 14 -19 8 -25 15 -17 20 7 4 12 12 12 17 0 5 -11 2 -24
-6 -21 -14 -24 -14 -29 0 -5 10 0 15 14 15 11 0 17 5 14 10 -4 6 -15 8 -26 5
-13 -4 -19 -2 -19 9 0 9 -4 16 -10 16 -13 0 -13 -6 1 -33 11 -19 10 -19 -19 4
-34 27 -48 52 -33 57 6 2 9 7 6 12 -11 17 26 39 65 38 22 0 37 -4 35 -9 -3 -4
6 -19 19 -32 14 -14 27 -20 29 -14 5 15 36 1 44 -19 4 -11 -2 -23 -16 -35 -13
-10 -17 -20 -11 -24 6 -3 7 -11 4 -17 -4 -7 -2 -8 4 -4 7 4 12 3 12 -3 0 -5
-6 -12 -12 -15 -10 -5 -10 -7 1 -12 7 -4 21 -25 32 -48 10 -22 19 -34 19 -24
0 11 7 15 23 12 12 -2 17 -2 10 2 -7 3 -9 13 -6 22 4 13 3 14 -5 3 -14 -20
-30 -6 -43 39 -16 53 -5 61 30 23 15 -17 48 -39 72 -50 51 -23 92 -62 111
-104 7 -16 16 -29 20 -29 13 0 9 22 -7 40 -15 16 -12 18 30 29 25 6 45 16 45
22 0 5 -5 7 -12 3 -18 -11 -88 -22 -88 -14 0 4 -18 19 -40 34 -22 14 -58 38
-81 53 -71 47 -74 67 -17 121 50 46 50 46 131 24 107 -30 130 -29 207 12 82
43 84 43 76 4z m-978 -13 c-3 -3 -9 2 -12 12 -6 14 -5 15 5 6 7 -7 10 -15 7
-18z m29 -32 c-4 -3 -7 0 -7 7 0 7 3 10 7 7 3 -4 3 -10 0 -14z m293 -77 c0 -7
-5 -17 -12 -24 -9 -9 -7 -12 10 -12 12 0 22 -4 22 -10 0 -19 -49 -10 -73 13
-22 19 -30 63 -18 95 3 8 71 -52 71 -62z m-80 23 c0 -5 -4 -7 -10 -4 -5 3 -10
-1 -10 -9 0 -18 -8 -20 -29 -7 -7 5 -10 14 -7 20 9 14 56 14 56 0z m-173 -16
c-4 -3 -7 0 -7 7 0 7 3 10 7 7 3 -4 3 -10 0 -14z m93 -3 c0 -5 -5 -10 -11 -10
-5 0 -7 5 -4 10 3 6 8 10 11 10 2 0 4 -4 4 -10z m-40 -10 c-19 -13 -30 -13
-30 0 0 6 10 10 23 10 18 0 19 -2 7 -10z m47 -27 c-4 -3 -10 -3 -14 0 -3 4 0
7 7 7 7 0 10 -3 7 -7z m200 0 c-4 -3 -10 -3 -14 0 -3 4 0 7 7 7 7 0 10 -3 7
-7z m-240 -40 c-4 -3 -7 0 -7 7 0 7 3 10 7 7 3 -4 3 -10 0 -14z m323 -29 c0
-9 -5 -14 -12 -12 -18 6 -21 28 -4 28 9 0 16 -7 16 -16z m-30 -21 c0 -5 -5
-15 -10 -23 -8 -12 -10 -11 -10 8 0 12 5 22 10 22 6 0 10 -3 10 -7z m33 -18
c-3 -9 -8 -14 -10 -11 -3 3 -2 9 2 15 9 16 15 13 8 -4z"/>
<path d="M2170 980 c6 -11 13 -20 16 -20 2 0 0 9 -6 20 -6 11 -13 20 -16 20
-2 0 0 -9 6 -20z"/>
<path d="M2345 980 c-3 -5 -1 -10 4 -10 6 0 11 5 11 10 0 6 -2 10 -4 10 -3 0
-8 -4 -11 -10z"/>
<path d="M2313 903 c4 -3 10 -3 14 0 3 4 0 7 -7 7 -7 0 -10 -3 -7 -7z"/>
<path d="M2797 773 c-4 -3 -7 -13 -7 -22 1 -13 3 -13 11 2 11 19 8 33 -4 20z"/>
<path d="M2656 685 c4 -8 1 -15 -7 -15 -7 0 -10 -2 -7 -5 3 -4 18 -3 33 1 26
7 27 8 10 20 -25 18 -36 18 -29 -1z"/>
<path d="M2880 682 c0 -29 153 -106 236 -119 57 -9 52 62 -6 92 -17 9 -30 12
-30 7 0 -5 11 -15 25 -22 31 -17 19 -26 -39 -29 -31 -1 -45 2 -49 14 -5 11 1
15 26 16 32 1 32 1 2 8 -43 10 -69 3 -54 -15 15 -18 9 -18 -45 6 -25 10 -46
24 -46 29 0 6 15 4 35 -5 43 -17 46 -10 5 11 -32 16 -60 20 -60 7z m258 -101
c3 -10 -3 -12 -29 -6 -51 11 -61 27 -15 23 22 -2 41 -9 44 -17z"/>
<path d="M2230 660 c0 -7 3 -10 7 -7 3 4 3 10 0 14 -4 3 -7 0 -7 -7z"/>
<path d="M2724 638 c-4 -7 -3 -8 4 -4 12 7 16 16 8 16 -3 0 -8 -5 -12 -12z"/>
<path d="M2229 575 c17 -34 31 -51 31 -39 0 7 -9 22 -21 35 -16 19 -18 20 -10
4z"/>
<path d="M3030 566 c0 -14 35 -36 57 -36 18 0 24 -4 19 -15 -3 -8 -1 -15 4
-15 6 0 10 9 10 20 0 14 -7 20 -23 20 -12 0 -33 7 -45 16 -12 8 -22 13 -22 10z"/>
<path d="M2880 490 c8 -5 20 -10 25 -10 6 0 3 5 -5 10 -8 5 -19 10 -25 10 -5
0 -3 -5 5 -10z"/>
<path d="M2800 413 c0 -24 -39 -69 -75 -88 -20 -10 -24 -15 -12 -15 10 0 40
20 67 46 29 27 51 41 55 34 6 -10 78 -50 91 -50 3 0 1 7 -6 15 -7 8 -18 15
-25 15 -6 0 -31 14 -53 30 -35 25 -42 27 -42 13z"/>
<path d="M1378 1613 c6 -2 18 -2 25 0 6 3 1 5 -13 5 -14 0 -19 -2 -12 -5z"/>
<path d="M651 1573 c7 -12 15 -20 18 -17 3 2 -3 12 -13 22 -17 16 -18 16 -5
-5z"/>
<path d="M1270 1580 c0 -7 3 -10 7 -7 3 4 3 10 0 14 -4 3 -7 0 -7 -7z"/>
<path d="M2800 1576 c0 -3 20 -14 44 -24 24 -11 47 -26 52 -33 6 -12 5 -11 -9
0 -10 8 -20 12 -23 9 -2 -3 10 -16 27 -29 18 -13 43 -35 55 -48 16 -15 24 -19
24 -10 -1 21 -25 49 -43 49 -9 0 -19 5 -22 10 -10 16 45 1 75 -19 14 -10 34
-32 45 -49 11 -17 25 -31 32 -32 20 0 98 -95 132 -161 19 -35 48 -84 66 -109
46 -65 69 -131 61 -177 -3 -21 -6 -47 -7 -57 0 -21 -18 -60 -25 -54 -2 3 0 26
5 51 5 27 5 47 0 47 -5 0 -9 -11 -9 -25 0 -17 -6 -25 -17 -25 -10 0 -14 -4 -8
-8 18 -13 15 -31 -5 -42 -11 -6 -30 -21 -44 -35 -31 -31 -100 -50 -140 -38
-32 9 -89 94 -80 118 5 11 -47 75 -60 75 -5 0 6 -16 23 -35 40 -45 40 -58 1
-20 -16 16 -30 24 -30 19 0 -6 13 -23 29 -38 16 -16 35 -42 42 -60 29 -72 91
-94 172 -58 25 11 58 23 75 26 59 13 86 58 90 145 4 84 -5 111 -72 212 -17 26
-47 76 -66 111 -46 83 -202 243 -247 252 -18 4 -35 12 -39 17 -10 17 -104 58
-104 45z m455 -756 c-3 -5 -12 -10 -18 -10 -7 0 -6 4 3 10 19 12 23 12 15 0z"/>
<path d="M1437 1542 c-21 -23 -22 -39 -2 -22 12 10 16 9 21 -4 3 -8 24 -35 45
-58 41 -45 54 -75 19 -43 -11 10 -20 13 -20 7 0 -6 9 -17 21 -25 17 -13 19
-18 8 -34 -8 -14 -9 -25 -1 -39 9 -16 11 -14 17 19 7 34 9 36 29 25 11 -7 24
-12 27 -11 3 1 5 -8 4 -20 -4 -32 -4 -32 -20 -11 -8 10 1 -16 20 -58 19 -42
35 -82 35 -87 0 -6 14 -35 30 -64 27 -48 30 -63 30 -140 0 -47 -4 -88 -9 -91
-5 -3 -7 -15 -4 -26 3 -12 -2 -29 -12 -40 -9 -10 -18 -33 -19 -49 -4 -83 -103
-155 -213 -155 -39 0 -69 -4 -67 -8 10 -16 122 -8 166 11 73 31 158 146 164
221 11 130 4 233 -17 269 -34 57 -80 192 -73 213 8 28 -3 65 -22 72 -15 6 -15
4 -3 -10 13 -16 12 -16 -8 -5 -13 6 -29 24 -37 39 -8 15 -33 47 -55 71 -23 25
-39 51 -37 58 7 18 2 16 -17 -5z m234 -769 c-12 -20 -14 -14 -5 12 4 9 9 14
11 11 3 -2 0 -13 -6 -23z"/>
<path d="M1756 1546 c11 -8 34 -18 50 -21 22 -5 18 -1 -15 14 -51 24 -64 27
-35 7z"/>
<path d="M546 1523 c-26 -13 -46 -26 -44 -29 8 -7 98 36 98 46 0 6 -1 9 -2 9
-2 -1 -25 -13 -52 -26z"/>
<path d="M2747 1532 c-22 -14 -31 -15 -47 -4 -22 13 -26 6 -10 -18 5 -8 10
-10 10 -5 0 6 5 3 10 -5 7 -11 10 -12 10 -2 0 9 7 11 20 7 13 -4 22 -1 26 9 4
10 18 16 38 16 24 0 27 3 16 10 -22 14 -41 12 -73 -8z m10 -19 c-4 -3 -10 -3
-14 0 -3 4 0 7 7 7 7 0 10 -3 7 -7z"/>
<path d="M601 1516 c-6 -7 -25 -19 -41 -26 -17 -7 -30 -16 -30 -21 0 -12 50
10 74 33 11 9 17 20 14 23 -3 3 -10 -1 -17 -9z"/>
<path d="M2780 1510 c0 -7 3 -10 7 -7 3 4 3 10 0 14 -4 3 -7 0 -7 -7z"/>
<path d="M1224 1488 c-4 -7 -3 -8 4 -4 7 4 12 9 12 12 0 8 -9 4 -16 -8z"/>
<path d="M1262 1486 c7 -8 15 -12 17 -11 5 6 -10 25 -20 25 -5 0 -4 -6 3 -14z"/>
<path d="M1400 1490 c0 -7 3 -10 7 -7 3 4 3 10 0 14 -4 3 -7 0 -7 -7z"/>
<path d="M465 1460 c-25 -11 1 -11 35 0 20 6 21 8 5 8 -11 0 -29 -3 -40 -8z"/>
<path d="M2885 1450 c3 -5 8 -10 11 -10 2 0 4 5 4 10 0 6 -5 10 -11 10 -5 0
-7 -4 -4 -10z"/>
<path d="M2985 1440 c3 -5 8 -10 11 -10 3 0 2 5 -1 10 -3 6 -8 10 -11 10 -3 0
-2 -4 1 -10z"/>
<path d="M1355 1420 c3 -5 8 -10 11 -10 3 0 2 5 -1 10 -3 6 -8 10 -11 10 -3 0
-2 -4 1 -10z"/>
<path d="M2929 1405 c-25 -13 -75 -83 -66 -91 2 -3 16 13 30 35 14 22 35 42
47 46 11 3 20 11 20 16 0 11 1 11 -31 -6z"/>
<path d="M3029 1364 c-13 -15 -18 -25 -10 -22 13 4 49 48 39 48 -2 0 -15 -12
-29 -26z"/>
<path d="M1003 1329 c0 -26 2 -28 15 -15 13 13 13 16 0 29 -13 13 -15 12 -15
-14z"/>
<path d="M2636 1295 c-10 -8 -16 -18 -15 -24 2 -6 14 -2 28 8 13 10 20 21 15
24 -5 3 -18 -1 -28 -8z"/>
<path d="M2710 1290 c0 -7 3 -10 7 -7 3 4 3 10 0 14 -4 3 -7 0 -7 -7z"/>
<path d="M1470 1260 c0 -7 3 -10 7 -7 3 4 3 10 0 14 -4 3 -7 0 -7 -7z"/>
<path d="M2507 1263 c-3 -5 1 -14 9 -21 12 -10 14 -10 14 2 0 17 -16 30 -23
19z"/>
<path d="M2530 1196 c0 -9 5 -16 10 -16 6 0 10 4 10 9 0 6 -4 13 -10 16 -5 3
-10 -1 -10 -9z"/>
<path d="M1560 1196 c0 -2 7 -6 15 -10 8 -3 15 -1 15 4 0 6 -7 10 -15 10 -8 0
-15 -2 -15 -4z"/>
<path d="M1615 1180 c3 -5 8 -10 11 -10 3 0 2 5 -1 10 -3 6 -8 10 -11 10 -3 0
-2 -4 1 -10z"/>
<path d="M1410 1130 c0 -5 10 -10 23 -10 13 0 32 -7 43 -16 19 -15 19 -16 -1
-8 -142 50 -230 -8 -248 -166 -4 -37 -3 -50 3 -40 6 9 10 10 10 3 0 -6 3 -19
7 -29 5 -14 3 -16 -11 -11 -13 5 -11 -1 8 -24 14 -17 26 -35 26 -40 0 -12 32
-49 43 -49 4 0 6 4 3 9 -4 5 3 7 14 4 11 -3 20 -10 20 -15 0 -6 7 -7 16 -4 8
3 32 -3 53 -14 31 -15 45 -17 74 -9 35 9 35 9 24 50 -9 37 -8 43 11 58 29 23
54 88 42 110 -5 10 -5 22 -1 27 33 35 2 100 -72 150 -37 25 -87 39 -87 24z
m131 -77 c16 -19 29 -40 29 -48 0 -23 -12 -45 -21 -39 -5 3 -9 -2 -9 -10 0
-13 -44 -66 -55 -66 -3 0 -5 7 -5 15 0 13 -3 13 -20 3 -12 -8 -19 -22 -18 -33
2 -14 -2 -19 -14 -17 -10 2 -18 -2 -18 -8 0 -6 5 -8 10 -5 12 8 13 -5 1 -24
-5 -8 -14 -10 -22 -6 -8 5 -11 5 -7 0 9 -9 -40 -50 -50 -41 -3 4 -1 11 6 15
10 6 10 15 3 35 -6 15 -10 30 -10 34 1 4 0 21 -1 37 -2 28 -3 27 -10 -10 -4
-23 -4 -49 2 -60 9 -20 9 -20 -6 -1 -9 11 -16 29 -16 41 0 12 -6 30 -14 40
-13 18 -13 15 -6 -25 5 -25 7 -47 5 -49 -8 -8 -25 12 -25 29 0 10 -4 22 -10
25 -5 3 -10 15 -10 26 0 11 4 18 8 15 13 -8 29 7 35 35 6 24 4 26 -18 21 -30
-5 -30 -3 -8 42 24 51 62 66 161 64 81 -2 84 -3 113 -35z m-271 -98 c-7 -9
-15 -13 -19 -10 -3 3 1 10 9 15 21 14 24 12 10 -5z m282 -41 c11 -10 -16 -75
-34 -85 -20 -11 -28 24 -8 36 6 4 8 11 4 16 -11 18 24 48 38 33z m-54 -46 c-3
-7 -8 -13 -13 -13 -5 0 -10 6 -12 13 -3 6 3 12 12 12 9 0 15 -6 13 -12z m-20
-30 c9 -9 8 -16 -7 -32 -11 -12 -20 -24 -20 -28 -1 -11 -16 -10 -16 1 0 5 -3
12 -7 16 -7 8 20 55 31 55 4 0 12 -5 19 -12z m-160 -52 c-2 -10 -7 -13 -17 -7
-8 6 -11 16 -7 27 8 21 30 4 24 -20z m92 -26 c0 -21 -15 -27 -25 -10 -4 6 -12
7 -18 3 -7 -4 -6 0 2 10 18 23 41 21 41 -3z m97 -24 c-4 -9 -12 -16 -18 -16
-8 0 -8 4 1 15 6 8 8 20 4 27 -5 10 -4 10 6 1 7 -6 10 -19 7 -27z m-27 15 c0
-5 -7 -12 -16 -15 -14 -5 -15 -4 -4 9 14 17 20 19 20 6z"/>
<path d="M1329 1063 c-1 -4 -3 -18 -4 -29 -1 -12 -5 -25 -8 -31 -3 -5 3 -10
14 -10 10 -1 19 5 19 13 0 13 12 19 33 15 5 -1 5 4 1 10 -3 6 0 15 7 20 11 7
11 9 -3 9 -9 0 -22 -8 -28 -17 -10 -17 -10 -17 -8 1 2 10 -3 21 -9 23 -7 3
-14 1 -14 -4z"/>
<path d="M1415 1050 c4 -6 2 -17 -4 -24 -8 -9 3 -19 44 -39 30 -15 55 -31 55
-36 0 -22 -28 -16 -69 16 -45 34 -61 40 -61 23 0 -5 6 -10 13 -10 7 0 22 -8
33 -18 48 -43 70 -52 86 -33 21 24 13 37 -40 62 -26 12 -48 23 -50 25 -2 1 1
12 8 23 9 17 8 21 -5 21 -9 0 -13 -5 -10 -10z"/>
<path d="M1546 993 c-6 -14 -5 -15 5 -6 7 7 10 15 7 18 -3 3 -9 -2 -12 -12z"/>
<path d="M1302 940 c0 -14 2 -19 5 -12 2 6 2 18 0 25 -3 6 -5 1 -5 -13z"/>
<path d="M1363 920 c0 -25 2 -35 4 -22 2 12 2 32 0 45 -2 12 -4 2 -4 -23z"/>
<path d="M2505 1130 c3 -5 8 -10 11 -10 2 0 4 5 4 10 0 6 -5 10 -11 10 -5 0
-7 -4 -4 -10z"/>
<path d="M1947 963 c25 -71 51 -150 59 -177 22 -78 129 -237 187 -278 24 -17
18 -7 -23 39 -30 33 -67 85 -82 114 -34 66 -113 255 -123 289 -14 54 -48 140
-55 140 -4 0 13 -57 37 -127z"/>
<path d="M2560 1079 c0 -5 5 -7 10 -4 6 3 10 8 10 11 0 2 -4 4 -10 4 -5 0 -10
-5 -10 -11z"/>
<path d="M3054 1028 c-4 -7 -3 -8 4 -4 12 7 16 16 8 16 -3 0 -8 -5 -12 -12z"/>
<path d="M1772 990 c0 -19 2 -27 5 -17 2 9 2 25 0 35 -3 9 -5 1 -5 -18z"/>
<path d="M2975 1010 c3 -5 8 -10 11 -10 3 0 2 5 -1 10 -3 6 -8 10 -11 10 -3 0
-2 -4 1 -10z"/>
<path d="M3220 1001 c0 -5 7 -12 16 -15 14 -5 15 -4 4 9 -14 17 -20 19 -20 6z"/>
<path d="M2920 982 c0 -4 9 -13 20 -20 22 -13 27 -3 8 16 -14 14 -28 16 -28 4z"/>
<path d="M3010 970 c0 -7 3 -10 7 -7 3 4 3 10 0 14 -4 3 -7 0 -7 -7z"/>
<path d="M3234 961 c8 -9 19 -28 24 -41 8 -22 9 -20 9 16 0 37 -2 42 -24 42
-21 0 -22 -2 -9 -17z"/>
<path d="M2895 950 c3 -5 8 -10 11 -10 2 0 4 5 4 10 0 6 -5 10 -11 10 -5 0 -7
-4 -4 -10z"/>
<path d="M3180 940 c-8 -15 -8 -18 3 -14 8 3 14 11 14 19 0 20 -4 19 -17 -5z"/>
<path d="M1671 919 c0 -9 -10 -24 -21 -34 -20 -18 -28 -75 -11 -75 4 0 6 11 3
25 -3 18 2 30 18 43 14 11 20 25 17 37 -3 14 -5 15 -6 4z"/>
<path d="M3223 893 c4 -3 10 -3 14 0 3 4 0 7 -7 7 -7 0 -10 -3 -7 -7z"/>
<path d="M3182 845 c-15 -32 -15 -32 2 -32 8 0 13 12 14 29 1 35 -2 35 -16 3z"/>
<path d="M3221 861 c-8 -6 -9 -11 -3 -15 6 -3 14 -1 17 5 9 14 2 20 -14 10z"/>
<path d="M1197 724 c2 -6 0 -15 -6 -19 -13 -7 -15 -25 -3 -25 5 0 14 11 20 25
15 32 15 32 -2 32 -8 0 -12 -6 -9 -13z"/>
<path d="M1545 730 c-3 -5 -1 -10 4 -10 6 0 11 5 11 10 0 6 -2 10 -4 10 -3 0
-8 -4 -11 -10z"/>
<path d="M940 625 c0 -8 4 -15 10 -15 5 0 7 7 4 15 -4 8 -8 15 -10 15 -2 0 -4
-7 -4 -15z"/>
<path d="M1010 610 c0 -7 3 -10 7 -7 3 4 3 10 0 14 -4 3 -7 0 -7 -7z"/>
<path d="M1515 545 c-80 -94 -215 -225 -241 -235 -17 -7 -32 -6 -45 0 -25 14
-24 19 3 12 15 -3 19 -2 14 7 -4 6 -19 10 -33 9 -14 -2 -28 3 -30 10 -3 7 5
12 21 12 14 0 26 4 26 9 0 5 12 12 26 15 19 5 24 10 16 18 -8 8 -15 6 -27 -6
-17 -17 -40 -22 -30 -7 3 5 1 12 -4 15 -5 4 -12 -3 -16 -14 -6 -20 -35 -29
-35 -11 0 16 62 62 77 57 8 -3 11 -1 8 4 -3 6 4 10 17 11 22 0 22 1 3 8 -11 5
-22 4 -23 0 -2 -5 -8 -7 -13 -4 -5 4 -29 -15 -54 -40 -24 -26 -49 -44 -55 -40
-6 4 -8 11 -5 16 4 5 1 9 -5 9 -7 0 -10 6 -7 13 2 6 11 11 21 9 14 -3 21 8 17
30 0 4 6 5 14 2 8 -4 15 -2 15 4 0 14 99 23 122 11 11 -6 22 -8 25 -5 3 3 -9
13 -28 21 -34 16 -34 16 -4 10 54 -11 95 -65 60 -79 -8 -3 -15 -10 -15 -16 0
-8 6 -8 20 0 29 16 25 54 -9 83 -42 35 -85 40 -169 19 -81 -21 -82 -21 -82 22
0 21 -3 27 -9 18 -6 -11 -17 -7 -45 18 -20 18 -39 30 -42 27 -3 -3 15 -22 40
-43 57 -47 58 -76 3 -73 -7 0 -2 4 11 10 13 5 20 14 17 19 -5 8 -11 7 -21 -1
-38 -31 -148 -41 -166 -15 -5 7 -8 5 -8 -5 0 -9 -9 -24 -20 -34 -11 -10 -20
-23 -20 -28 0 -6 10 -1 23 11 13 12 34 22 47 22 23 0 23 -1 -10 -35 -24 -25
-36 -31 -42 -22 -5 9 -8 7 -8 -5 0 -9 20 -31 45 -49 25 -18 45 -37 45 -42 0
-15 14 1 16 19 1 9 0 13 -3 10 -9 -8 -63 27 -63 41 0 37 74 29 75 -9 1 -31 40
-78 60 -72 33 10 71 37 57 42 -7 2 -10 7 -8 11 3 3 -8 6 -22 5 -15 -1 -30 1
-35 3 -12 7 13 43 30 43 14 0 14 -2 -3 -16 -19 -15 -19 -16 1 -9 23 8 24 8 49
6 15 -1 17 -6 12 -27 -6 -23 -4 -25 11 -19 42 17 56 17 81 -2 38 -28 65 -35
95 -24 36 14 296 285 285 297 -3 2 -27 -21 -53 -51z m-295 -55 c-14 -5 -44
-14 -68 -20 -23 -6 -40 -15 -37 -20 11 -18 -44 -36 -66 -22 -26 16 -28 16 -39
-14 -6 -15 -15 -22 -21 -18 -6 3 -15 0 -20 -7 -8 -12 -11 -12 -19 1 -21 32
-12 52 23 49 17 -1 40 2 50 6 10 4 24 2 32 -5 13 -11 14 -10 9 3 -4 12 2 18
23 23 15 4 51 12 78 20 56 14 93 17 55 4z m-233 -37 c-4 -3 -10 -3 -14 0 -3 4
0 7 7 7 7 0 10 -3 7 -7z m160 -100 c-4 -3 -10 -3 -14 0 -3 4 0 7 7 7 7 0 10
-3 7 -7z m-137 -51 c0 -15 -2 -15 -10 -2 -13 20 -13 33 0 25 6 -3 10 -14 10
-23z m50 18 c0 -5 -2 -10 -4 -10 -2 0 -12 -3 -22 -7 -16 -6 -17 -5 -4 10 17
19 30 22 30 7z"/>
<path d="M1339 563 c-5 -14 -8 -31 -6 -37 3 -6 8 1 12 17 5 20 13 27 34 28 23
0 24 1 6 9 -31 13 -35 12 -46 -17z"/>
<path d="M130 571 c0 -6 4 -13 10 -16 6 -3 7 1 4 9 -7 18 -14 21 -14 7z"/>
<path d="M1275 560 c-3 -5 -2 -10 4 -10 5 0 13 5 16 10 3 6 2 10 -4 10 -5 0
-13 -4 -16 -10z"/>
<path d="M731 555 c0 -5 6 -19 14 -29 8 -11 15 -15 15 -10 0 6 -7 19 -15 30
-8 10 -14 15 -14 9z"/>
<path d="M1170 540 c-10 -7 -1 -8 30 -4 56 8 64 14 19 14 -19 0 -41 -5 -49
-10z"/>
<path d="M415 490 c-3 -5 -2 -10 4 -10 5 0 13 5 16 10 3 6 2 10 -4 10 -5 0
-13 -4 -16 -10z"/>
<path d="M2180 491 c0 -28 212 -212 227 -197 9 8 -61 74 -73 69 -9 -3 -42 23
-84 66 -39 39 -70 67 -70 62z m181 -148 c13 -16 12 -17 -3 -4 -10 7 -18 15
-18 17 0 8 8 3 21 -13z"/>
<path d="M487 453 c-4 -3 -7 -11 -7 -17 0 -6 5 -5 12 2 6 6 9 14 7 17 -3 3 -9
2 -12 -2z"/>
<path d="M1311 451 c-9 -6 -10 -11 -2 -15 6 -4 11 -3 11 3 0 6 7 7 17 4 11 -4
14 -3 9 5 -8 14 -16 15 -35 3z"/>
<path d="M1283 413 c4 -3 10 -3 14 0 3 4 0 7 -7 7 -7 0 -10 -3 -7 -7z"/>
<path d="M1134 398 c-4 -7 -3 -8 4 -4 7 4 12 9 12 12 0 8 -9 4 -16 -8z"/>
<path d="M1292 386 c-15 -16 -19 -27 -12 -31 7 -5 5 -12 -7 -22 -13 -10 -14
-13 -3 -10 8 2 20 14 26 26 7 13 13 18 16 11 3 -9 8 -7 17 4 11 14 11 16 -2
16 -10 0 -14 6 -11 15 8 21 3 19 -24 -9z"/>
<path d="M3148 272 c-26 -20 -57 -45 -70 -55 -32 -26 -2 -10 54 27 25 17 51
39 57 49 14 22 14 22 -41 -21z"/>
<path d="M1155 290 c-8 -13 5 -13 25 0 13 8 13 10 -2 10 -9 0 -20 -4 -23 -10z"/>
<path d="M3154 111 c2 -14 5 -45 5 -68 1 -24 5 -43 9 -43 5 0 6 27 4 60 -4 59
-4 60 22 60 40 0 31 15 -9 16 -32 0 -35 -2 -31 -25z"/>
<path d="M3308 133 c17 -2 47 -2 65 0 17 2 3 4 -33 4 -36 0 -50 -2 -32 -4z"/>
<path d="M1238 70 c4 -27 7 -30 41 -29 30 2 31 3 9 6 -16 2 -28 8 -28 13 0 5
93 9 207 10 114 0 209 3 212 5 2 3 -92 5 -210 5 -134 0 -219 4 -225 10 -7 7
-9 1 -6 -20z"/>
<path d="M2041 89 c-107 -5 -199 -11 -205 -13 -12 -6 314 3 544 14 145 7 145
7 0 7 -80 0 -232 -4 -339 -8z"/>
<path d="M100 81 c-11 -8 72 -11 282 -11 297 0 297 0 301 -22 4 -20 4 -19 6 5
1 27 1 27 -111 27 -62 0 -192 3 -288 6 -114 3 -180 2 -190 -5z"/>
<path d="M18 73 c7 -3 16 -2 19 1 4 3 -2 6 -13 5 -11 0 -14 -3 -6 -6z"/>
<path d="M737 58 c-4 -12 -4 -24 -1 -27 3 -3 7 5 10 16 5 17 15 23 48 26 41 4
41 4 -5 5 -40 2 -47 -1 -52 -20z"/>
<path d="M1128 73 c7 -3 16 -2 19 1 4 3 -2 6 -13 5 -11 0 -14 -3 -6 -6z"/>
<path d="M1170 76 c0 -2 7 -6 15 -10 8 -3 15 -1 15 4 0 6 -7 10 -15 10 -8 0
-15 -2 -15 -4z"/>
<path d="M2163 53 c4 -3 10 -3 14 0 3 4 0 7 -7 7 -7 0 -10 -3 -7 -7z"/>
<path d="M868 43 c57 -2 147 -2 200 0 53 1 7 3 -103 3 -110 0 -154 -2 -97 -3z"/>
</g>
</svg>
