<?xml version="1.0" standalone="no"?>
<!DOCTYPE svg PUBLIC "-//W3C//DTD SVG 20010904//EN"
 "http://www.w3.org/TR/2001/REC-SVG-20010904/DTD/svg10.dtd">
<svg version="1.0" xmlns="http://www.w3.org/2000/svg"
 width="256.000000pt" height="344.000000pt" viewBox="0 0 256.000000 344.000000"
 preserveAspectRatio="xMidYMid meet">
<metadata>
Created by potrace 1.16, written by Peter Selinger 2001-2019
</metadata>
<g transform="translate(0.000000,344.000000) scale(0.100000,-0.100000)"
fill="#000000" stroke="none">
<path d="M60 3437 c0 -4 12 -45 26 -90 14 -45 28 -88 30 -96 3 -8 7 -11 10 -8
6 6 -45 178 -57 192 -5 5 -9 6 -9 2z"/>
<path d="M580 3438 c0 -2 15 -77 34 -168 21 -104 30 -169 25 -176 -6 -8 -4
-17 6 -27 18 -19 20 -44 3 -49 -8 -3 -5 -11 10 -23 27 -24 27 -36 3 -75 -33
-55 -276 -295 -279 -277 -2 10 -7 17 -12 17 -5 0 -7 -7 -4 -14 3 -8 -2 -29
-12 -45 -18 -31 -19 -31 -104 -30 -47 0 -110 4 -141 8 -30 3 -66 4 -80 0 -26
-6 60 -16 219 -22 74 -4 95 -2 99 10 3 7 23 23 44 33 21 11 46 33 55 49 21 36
37 31 23 -7 -15 -40 -39 -62 -66 -62 -20 0 -22 -4 -17 -25 9 -37 -3 -75 -24
-72 -9 1 -17 -2 -17 -8 0 -5 -16 -13 -35 -16 -35 -6 -35 -6 3 -8 47 -1 97 42
97 83 0 16 9 32 26 42 14 9 32 31 41 48 8 17 29 46 46 63 17 18 28 36 24 39
-4 4 -15 -4 -26 -17 -11 -13 -20 -19 -20 -14 0 6 16 27 35 48 38 41 76 57 136
57 28 0 44 7 63 27 14 15 25 23 25 17 0 -7 -6 -17 -14 -23 -7 -6 -16 -24 -19
-39 -3 -15 -36 -63 -72 -107 -143 -174 -172 -211 -191 -243 -19 -34 -19 -34
-99 -27 -44 4 -109 11 -145 16 -36 5 -76 8 -90 8 -62 -1 22 -17 150 -28 74 -7
142 -14 150 -16 9 -3 25 10 40 33 34 50 155 205 206 261 22 25 53 72 68 104
15 31 34 57 42 57 34 0 12 28 -25 32 -22 2 -37 0 -35 -4 2 -3 -6 -10 -18 -14
-22 -7 -22 -7 -3 -15 18 -7 18 -8 -5 -8 -20 -1 -22 -3 -10 -12 11 -7 5 -8 -23
-3 -24 4 -43 2 -52 -6 -23 -19 -17 1 9 34 23 28 24 28 31 7 9 -30 22 -18 17
17 -2 18 3 40 13 55 9 15 14 31 10 38 -5 8 -1 9 16 4 48 -16 79 -32 73 -38
-11 -11 17 -37 40 -36 21 0 21 0 0 9 -12 5 -25 14 -29 20 -9 14 54 4 70 -11 5
-5 22 -9 39 -9 26 0 28 2 14 13 -8 6 -20 21 -26 32 -6 11 -28 23 -53 30 -30 7
-47 18 -56 34 -18 37 -58 77 -92 90 -24 11 -31 21 -36 54 -4 23 -11 57 -17 75
-16 52 -7 48 77 -35 43 -43 68 -64 57 -48 -11 17 -49 58 -85 92 -61 59 -65 67
-77 128 -7 36 -16 68 -21 71 -5 3 -9 4 -9 2z m174 -401 c25 -34 18 -41 -23
-24 -17 7 -29 16 -26 19 3 2 -4 13 -15 23 -11 10 -20 22 -20 27 0 16 64 -18
84 -45z m-57 -4 c-4 -3 -10 -3 -14 0 -3 4 0 7 7 7 7 0 10 -3 7 -7z m48 -39
c39 -14 85 -30 103 -35 36 -11 43 -29 11 -29 -27 0 -170 57 -189 76 -20 20 -6
17 75 -12z m-258 -311 c-4 -3 -7 0 -7 7 0 7 3 10 7 7 3 -4 3 -10 0 -14z m-130
-210 c-4 -3 -10 -3 -14 0 -3 4 0 7 7 7 7 0 10 -3 7 -7z"/>
<path d="M977 3395 c-24 -162 -22 -170 61 -206 66 -29 75 -22 12 9 -72 35 -87
65 -70 136 6 28 10 65 8 81 -3 25 -5 21 -11 -20z"/>
<path d="M1148 3418 c-21 -37 -17 -273 6 -320 22 -46 15 -59 -88 -151 -74 -67
-74 -67 -139 -67 -73 0 -117 -22 -152 -77 -11 -18 -32 -51 -47 -75 -15 -24
-57 -79 -92 -123 -36 -44 -93 -118 -127 -165 -34 -47 -87 -112 -118 -145 -52
-57 -156 -197 -265 -360 -25 -38 -65 -96 -88 -127 -23 -32 -39 -60 -36 -63 5
-6 34 34 155 215 100 149 212 297 253 335 18 17 59 68 92 115 34 46 67 91 75
98 7 8 26 30 41 50 15 21 52 69 82 109 30 39 67 92 82 117 34 58 79 86 138 86
77 0 80 -12 32 -120 -19 -41 -26 -76 -23 -107 1 -12 54 -45 79 -49 7 -1 31
-18 52 -38 41 -37 62 -48 39 -20 -33 40 -22 51 44 48 62 -2 62 -2 27 11 -43
16 -53 18 -46 6 3 -5 -10 -5 -32 1 -20 5 -52 11 -70 13 -43 5 -45 6 -37 48 7
36 7 36 44 1 39 -39 71 -60 71 -47 0 4 -15 18 -33 31 -62 41 -68 68 -25 108
20 18 42 44 49 56 8 15 -4 9 -35 -20 -67 -62 -81 -51 -57 43 8 31 28 57 90
115 45 42 81 82 81 90 0 28 21 -7 46 -76 20 -56 24 -61 20 -30 -3 22 -21 73
-41 115 -45 94 -53 147 -32 203 57 153 65 178 59 178 -8 0 -23 -34 -57 -130
-23 -65 -23 -65 -24 -14 -1 28 6 73 14 99 16 55 13 69 -7 33z m-168 -700 c-1
-17 -39 -67 -40 -51 0 21 19 63 30 63 5 0 10 -6 10 -12z m-13 -73 c0 -8 -4
-15 -9 -15 -10 0 -11 14 -1 23 9 10 10 9 10 -8z m107 -71 c7 -19 2 -18 -19 6
-16 17 -16 20 -3 15 9 -4 19 -13 22 -21z"/>
<path d="M831 3325 c-2 -49 -2 -103 -2 -120 3 -59 12 -139 17 -147 21 -34 -47
11 -113 76 -29 28 -53 46 -53 41 0 -12 107 -115 119 -115 4 0 20 -12 35 -27
27 -26 27 -26 20 43 -3 38 -9 130 -13 204 -8 132 -8 133 -10 45z"/>
<path d="M1028 3393 c-10 -2 -18 -8 -18 -13 0 -10 38 -1 46 11 5 9 1 10 -28 2z"/>
<path d="M110 3380 c0 -7 3 -10 7 -7 3 4 3 10 0 14 -4 3 -7 0 -7 -7z"/>
<path d="M1270 3364 c-6 -14 -10 -31 -10 -37 0 -7 -20 -36 -44 -66 -24 -29
-46 -64 -49 -77 -6 -33 -2 -30 23 19 24 47 59 89 69 82 4 -2 8 9 9 25 1 16 7
41 12 55 5 14 7 25 5 25 -3 0 -10 -12 -15 -26z"/>
<path d="M1245 3233 c-35 -44 -36 -46 -6 -18 29 26 58 65 48 65 -1 0 -20 -21
-42 -47z"/>
<path d="M1371 3245 c-25 -20 -47 -32 -50 -28 -3 5 -28 -16 -56 -46 -27 -30
-41 -49 -29 -43 11 6 27 18 34 27 8 10 37 32 65 50 43 28 96 75 84 75 -2 0
-24 -16 -48 -35z"/>
<path d="M130 3211 c0 -5 9 -37 20 -72 10 -35 48 -165 84 -289 68 -239 84
-287 85 -258 1 10 -13 62 -29 115 -60 194 -73 240 -103 343 -16 58 -31 120
-34 138 -5 28 -23 47 -23 23z"/>
<path d="M883 3025 c0 -22 2 -30 4 -17 2 12 2 30 0 40 -3 9 -5 -1 -4 -23z"/>
<path d="M1155 2929 c-19 -17 -35 -36 -35 -43 0 -6 12 2 26 18 14 15 26 27 27
25 23 -43 47 -97 47 -106 0 -7 5 -13 10 -13 17 0 11 26 -12 55 -12 15 -22 43
-22 61 -1 41 2 41 -41 3z"/>
<path d="M740 2936 c0 -15 21 -56 29 -56 13 0 -2 53 -17 58 -7 2 -12 1 -12 -2z"/>
<path d="M715 2910 c10 -11 20 -18 23 -15 7 6 -18 35 -31 35 -5 0 -2 -9 8 -20z"/>
<path d="M943 2903 c4 -3 10 -3 14 0 3 4 0 7 -7 7 -7 0 -10 -3 -7 -7z"/>
<path d="M1252 2878 c-15 -42 -8 -48 12 -9 18 34 19 41 8 41 -4 0 -13 -14 -20
-32z"/>
<path d="M1151 2854 c0 -11 3 -14 6 -6 3 7 2 16 -1 19 -3 4 -6 -2 -5 -13z"/>
<path d="M956 2815 c-9 -26 -7 -32 5 -12 6 10 9 21 6 23 -2 3 -7 -2 -11 -11z"/>
<path d="M1114 2818 c-4 -7 -3 -8 4 -4 12 7 16 16 8 16 -3 0 -8 -5 -12 -12z"/>
<path d="M921 2739 c-6 -18 -9 -34 -7 -36 2 -2 9 10 15 28 6 18 9 34 7 36 -2
2 -9 -10 -15 -28z"/>
<path d="M236 2521 c-16 -6 -17 -9 -5 -13 8 -3 23 0 34 8 21 16 5 18 -29 5z"/>
<path d="M163 2513 c9 -2 23 -2 30 0 6 3 -1 5 -18 5 -16 0 -22 -2 -12 -5z"/>
<path d="M1958 2404 c-16 -8 -28 -19 -28 -24 0 -4 -15 -12 -32 -16 -118 -25
-131 -71 -37 -134 33 -22 63 -40 66 -40 9 0 187 -147 214 -177 33 -36 107
-103 113 -103 15 0 139 -141 157 -177 27 -56 29 -57 79 -30 47 25 78 61 61 72
-6 3 -11 0 -11 -9 0 -16 -59 -56 -82 -56 -8 0 -23 18 -33 40 -22 50 -72 103
-87 94 -6 -4 -8 -3 -5 3 4 6 -26 40 -66 74 -39 35 -74 66 -77 69 -35 37 -357
300 -366 300 -4 0 -1 -8 7 -17 12 -17 12 -17 -6 0 -29 26 -9 49 63 71 35 11
62 25 62 33 0 18 47 28 75 15 22 -10 229 -172 250 -196 6 -6 53 -48 105 -92
52 -45 104 -92 115 -104 19 -21 55 -45 55 -36 0 4 -166 155 -226 206 -16 14
-59 50 -94 80 -133 114 -212 170 -235 170 -5 -1 -22 -8 -37 -16z"/>
<path d="M2000 2366 c0 -2 7 -7 16 -10 8 -3 12 -2 9 4 -6 10 -25 14 -25 6z"/>
<path d="M1934 2331 c4 -6 13 -11 21 -11 7 0 19 -14 27 -30 10 -24 18 -30 38
-28 14 2 23 8 20 13 -2 6 -10 9 -16 7 -7 -1 -21 8 -31 21 -19 25 -72 50 -59
28z"/>
<path d="M1880 2301 c0 -13 28 -33 33 -23 3 4 -3 13 -14 20 -10 7 -19 8 -19 3z"/>
<path d="M2010 2300 c0 -5 5 -10 10 -10 6 0 10 5 10 10 0 6 -4 10 -10 10 -5 0
-10 -4 -10 -10z"/>
<path d="M2065 2300 c-3 -5 -1 -10 4 -10 6 0 11 5 11 10 0 6 -2 10 -4 10 -3 0
-8 -4 -11 -10z"/>
<path d="M1945 2280 c3 -5 13 -10 21 -10 8 0 14 5 14 10 0 6 -9 10 -21 10 -11
0 -17 -4 -14 -10z"/>
<path d="M2070 2270 c0 -5 5 -10 10 -10 6 0 10 5 10 10 0 6 -4 10 -10 10 -5 0
-10 -4 -10 -10z"/>
<path d="M1960 2250 c0 -5 7 -10 15 -10 8 0 15 5 15 10 0 6 -7 10 -15 10 -8 0
-15 -4 -15 -10z"/>
<path d="M2000 2240 c0 -5 5 -10 10 -10 6 0 10 5 10 10 0 6 -4 10 -10 10 -5 0
-10 -4 -10 -10z"/>
<path d="M2080 2227 c-34 -27 -4 -87 45 -87 36 0 75 18 75 34 0 43 -85 81
-120 53z m27 -4 c-4 -3 -10 -3 -14 0 -3 4 0 7 7 7 7 0 10 -3 7 -7z m67 -23
c20 -19 -3 -40 -43 -40 -49 0 -58 13 -31 40 21 21 51 20 74 0z"/>
<path d="M2133 2173 c4 -3 10 -3 14 0 3 4 0 7 -7 7 -7 0 -10 -3 -7 -7z"/>
<path d="M1821 2213 c0 -13 3 -23 7 -23 5 0 16 -16 25 -35 9 -20 28 -40 42
-45 14 -5 25 -13 25 -18 0 -4 21 -25 48 -46 31 -26 22 -13 -30 38 -42 42 -80
85 -83 96 -3 11 -10 20 -15 20 -5 0 -11 8 -13 18 -4 13 -5 11 -6 -5z"/>
<path d="M2041 2214 c0 -11 3 -14 6 -6 3 7 2 16 -1 19 -3 4 -6 -2 -5 -13z"/>
<path d="M2201 2150 c-13 -11 -34 -20 -47 -20 -29 0 -30 -5 -3 -33 22 -22 22
-22 16 1 -4 18 -1 22 19 22 15 0 24 6 24 16 0 10 5 14 15 10 8 -3 22 -9 30
-12 8 -3 15 -1 15 5 0 6 -7 11 -15 11 -8 0 -15 5 -15 10 0 15 -12 12 -39 -10z"/>
<path d="M2235 2110 c-3 -5 -2 -10 4 -10 5 0 13 5 16 10 3 6 2 10 -4 10 -5 0
-13 -4 -16 -10z"/>
<path d="M2286 2113 c-6 -6 52 -63 64 -63 3 0 6 9 7 20 2 17 -2 20 -19 15 -17
-6 -19 -4 -13 14 6 21 -21 31 -39 14z"/>
<path d="M1887 2089 c7 -7 15 -10 18 -7 3 3 -2 9 -12 12 -14 6 -15 5 -6 -5z"/>
<path d="M2200 2089 c0 -5 5 -7 10 -4 6 3 10 8 10 11 0 2 -4 4 -10 4 -5 0 -10
-5 -10 -11z"/>
<path d="M2185 2061 c-3 -6 11 -22 32 -36 33 -22 38 -23 42 -9 6 29 -59 68
-74 45z m51 -29 c-4 -3 -14 2 -24 12 -16 18 -16 18 6 6 13 -6 21 -14 18 -18z"/>
<path d="M2365 2041 c-7 -12 12 -24 25 -16 11 7 4 25 -10 25 -5 0 -11 -4 -15
-9z"/>
<path d="M1985 2000 c3 -5 8 -10 11 -10 3 0 2 5 -1 10 -3 6 -8 10 -11 10 -3 0
-2 -4 1 -10z"/>
<path d="M2400 2000 c0 -5 -9 -10 -19 -10 -11 0 -23 -4 -26 -10 -10 -16 31
-12 45 5 7 8 17 12 23 8 6 -3 7 -1 3 5 -9 15 -26 16 -26 2z"/>
<path d="M2035 1980 c10 -11 20 -20 22 -20 2 0 -1 9 -7 20 -6 11 -16 20 -22
20 -6 0 -3 -9 7 -20z"/>
<path d="M2275 1990 c3 -5 10 -10 16 -10 5 0 9 5 9 10 0 6 -7 10 -16 10 -8 0
-12 -4 -9 -10z"/>
<path d="M2445 1970 c3 -5 8 -10 11 -10 2 0 4 5 4 10 0 6 -5 10 -11 10 -5 0
-7 -4 -4 -10z"/>
<path d="M2025 1960 c3 -5 8 -10 11 -10 3 0 2 5 -1 10 -3 6 -8 10 -11 10 -3 0
-2 -4 1 -10z"/>
<path d="M2080 1940 c6 -11 13 -20 16 -20 2 0 0 9 -6 20 -6 11 -13 20 -16 20
-2 0 0 -9 6 -20z"/>
<path d="M2310 1950 c0 -5 5 -10 10 -10 6 0 10 5 10 10 0 6 -4 10 -10 10 -5 0
-10 -4 -10 -10z"/>
<path d="M2385 1940 c-3 -6 1 -7 9 -4 18 7 21 14 7 14 -6 0 -13 -4 -16 -10z"/>
<path d="M2470 1940 c0 -5 5 -10 10 -10 6 0 10 5 10 10 0 6 -4 10 -10 10 -5 0
-10 -4 -10 -10z"/>
<path d="M690 1900 c0 -34 8 -48 50 -95 54 -59 55 -63 40 -114 -5 -18 -12 -63
-16 -100 -5 -62 -4 -67 20 -88 18 -16 26 -33 26 -54 0 -18 10 -48 22 -67 12
-19 25 -51 29 -71 6 -32 7 -33 8 -8 0 16 -4 37 -9 47 -10 18 -8 18 35 3 25 -8
45 -19 45 -24 0 -5 5 -9 11 -9 5 0 7 5 4 10 -3 6 -1 10 4 10 12 0 14 -19 5
-71 -8 -48 -76 -89 -204 -123 -52 -14 -128 -39 -169 -55 -41 -17 -89 -31 -107
-31 -48 0 -84 -16 -129 -59 -40 -39 -40 -39 -179 45 -76 45 -147 91 -157 100
-15 14 -19 14 -19 3 0 -8 56 -48 125 -88 173 -101 325 -211 325 -235 0 -7 15
-19 33 -27 40 -16 175 -115 190 -141 16 -24 22 -23 23 7 3 42 21 55 73 51 47
-3 82 -16 112 -43 25 -21 166 -63 213 -63 46 0 168 47 231 89 22 15 47 31 56
36 47 28 118 79 115 82 -6 6 -45 -15 -86 -47 -19 -15 -45 -30 -56 -34 -12 -4
-34 -17 -48 -30 -32 -27 -173 -86 -206 -86 -48 0 -177 43 -227 76 -69 46 -167
50 -183 9 -9 -25 -9 -25 -90 36 -50 37 -78 65 -74 72 5 9 4 9 -5 1 -15 -14
-48 -7 -55 12 -6 15 142 94 175 94 10 0 21 4 24 10 12 19 -59 -3 -134 -42 -75
-38 -75 -38 -122 2 -26 22 -52 40 -58 40 -19 0 -22 20 -6 44 24 36 82 67 129
68 22 0 75 16 120 35 44 19 125 47 180 62 93 26 211 84 202 99 -4 7 19 161 29
192 3 10 1 21 -5 25 -5 3 -10 15 -10 25 0 10 -8 24 -17 29 -14 8 -15 11 -3 11
12 0 11 4 -4 15 -22 17 -32 111 -14 133 6 7 8 15 5 19 -4 3 -9 -2 -13 -11 -3
-9 -12 -16 -20 -16 -8 0 -14 -6 -14 -14 0 -7 -9 -16 -21 -19 -13 -4 -18 -10
-13 -18 4 -7 3 -10 -3 -6 -15 9 -40 -14 -47 -43 -7 -24 -6 -24 9 3 10 17 24
27 40 27 13 0 30 3 39 6 9 3 16 1 16 -4 0 -6 -9 -14 -20 -17 -11 -4 -18 -11
-15 -16 4 -5 -5 -24 -19 -42 -36 -47 -32 -63 5 -27 18 16 35 30 40 30 4 0 9 8
11 18 3 14 5 13 10 -6 3 -12 2 -20 -3 -16 -5 3 -9 0 -9 -5 0 -6 9 -11 20 -11
11 0 23 -8 26 -17 3 -10 9 -24 13 -32 4 -8 3 -32 -3 -52 -16 -60 -51 -63 -74
-6 -26 63 -31 72 -31 59 -1 -7 6 -29 14 -49 8 -19 15 -37 15 -38 0 -2 -18 5
-40 16 -42 21 -59 63 -45 111 4 12 4 20 0 16 -4 -4 -16 -3 -26 3 -24 12 -26
102 -4 174 16 56 12 70 -45 130 -35 37 -44 58 -41 93 2 19 81 15 167 -9 69
-19 83 -20 136 -9 97 21 223 -5 280 -57 23 -21 23 -62 1 -70 -10 -3 -40 -21
-66 -40 -27 -19 -56 -32 -64 -29 -8 4 -11 2 -7 -5 4 -6 0 -15 -7 -20 -7 -4
-11 -11 -7 -14 4 -4 31 12 62 35 110 83 208 94 299 34 36 -24 43 -25 83 -15
57 15 92 14 167 -3 34 -8 110 -19 168 -25 183 -19 371 -86 420 -150 13 -18 38
-49 54 -69 17 -20 57 -77 90 -127 71 -108 64 -99 70 -94 4 5 -109 178 -155
237 -14 18 -36 46 -49 63 -50 63 -236 131 -411 149 -63 6 -143 18 -177 26 -72
16 -134 18 -181 5 -28 -8 -39 -6 -80 20 -32 20 -66 31 -107 35 -55 6 -61 9
-75 38 -33 69 -194 119 -298 92 -62 -16 -66 -15 -160 9 -53 14 -113 25 -134
25 -38 0 -38 0 -38 -40z m227 -347 c-4 -3 -7 0 -7 7 0 7 3 10 7 7 3 -4 3 -10
0 -14z"/>
<path d="M2350 1919 c0 -5 5 -7 10 -4 6 3 10 8 10 11 0 2 -4 4 -10 4 -5 0 -10
-5 -10 -11z"/>
<path d="M2115 1910 c3 -5 11 -10 16 -10 6 0 7 5 4 10 -3 6 -11 10 -16 10 -6
0 -7 -4 -4 -10z"/>
<path d="M2433 1913 c4 -3 10 -3 14 0 3 4 0 7 -7 7 -7 0 -10 -3 -7 -7z"/>
<path d="M2513 1903 c4 -3 10 -3 14 0 3 4 0 7 -7 7 -7 0 -10 -3 -7 -7z"/>
<path d="M2105 1890 c3 -5 8 -10 11 -10 3 0 2 5 -1 10 -3 6 -8 10 -11 10 -3 0
-2 -4 1 -10z"/>
<path d="M2385 1890 c-3 -5 1 -10 10 -10 9 0 13 5 10 10 -3 6 -8 10 -10 10 -2
0 -7 -4 -10 -10z"/>
<path d="M2463 1883 c4 -3 10 -3 14 0 3 4 0 7 -7 7 -7 0 -10 -3 -7 -7z"/>
<path d="M852 1853 c14 -16 28 -37 31 -48 2 -11 8 -29 13 -39 5 -14 4 -17 -4
-12 -7 4 -12 3 -12 -2 0 -5 11 -9 25 -9 14 0 32 -9 40 -19 21 -28 18 0 -6 57
-12 27 -27 49 -33 49 -7 0 -23 11 -36 25 -13 14 -28 25 -34 25 -5 0 2 -12 16
-27z m71 -68 c20 -42 4 -47 -18 -5 -17 33 -18 40 -7 40 5 0 16 -16 25 -35z"/>
<path d="M2130 1875 c0 -2 10 -10 23 -16 20 -11 21 -11 8 4 -13 16 -31 23 -31
12z"/>
<path d="M2190 1857 c0 -3 19 -25 43 -50 23 -25 53 -58 67 -74 14 -16 17 -19
8 -8 -10 12 -18 26 -18 33 0 15 -57 80 -81 93 -11 5 -19 8 -19 6z"/>
<path d="M2423 1853 c4 -3 10 -3 14 0 3 4 0 7 -7 7 -7 0 -10 -3 -7 -7z"/>
<path d="M1142 1830 c14 -22 24 -19 15 5 -4 8 -11 15 -17 15 -6 0 -6 -7 2 -20z"/>
<path d="M963 1823 c4 -3 10 -3 14 0 3 4 0 7 -7 7 -7 0 -10 -3 -7 -7z"/>
<path d="M1055 1800 c3 -5 8 -10 11 -10 2 0 4 5 4 10 0 6 -5 10 -11 10 -5 0
-7 -4 -4 -10z"/>
<path d="M1000 1791 c0 -5 5 -13 10 -16 6 -3 10 -2 10 4 0 5 -4 13 -10 16 -5
3 -10 2 -10 -4z"/>
<path d="M1180 1778 c-52 -24 -120 -117 -120 -162 0 -14 -4 -26 -9 -26 -5 0
-5 14 -1 33 22 84 22 83 1 47 -11 -19 -20 -47 -21 -62 0 -31 -19 -78 -32 -78
-4 0 -8 -5 -8 -12 0 -15 38 20 45 42 3 10 19 23 36 30 35 15 52 35 21 25 -20
-6 -21 -4 -11 25 9 25 15 29 33 24 18 -6 19 -5 7 9 -29 35 67 113 127 103 29
-4 32 -3 22 9 -17 20 -37 18 -90 -7z"/>
<path d="M2235 1780 c3 -5 8 -10 11 -10 3 0 2 5 -1 10 -3 6 -8 10 -11 10 -3 0
-2 -4 1 -10z"/>
<path d="M829 1711 c3 -53 4 -54 14 -26 5 17 14 33 20 36 12 9 -6 42 -24 45
-11 1 -13 -11 -10 -55z"/>
<path d="M1070 1750 c0 -7 3 -10 7 -7 3 4 3 10 0 14 -4 3 -7 0 -7 -7z"/>
<path d="M2300 1756 c0 -2 8 -10 18 -17 15 -13 16 -12 3 4 -13 16 -21 21 -21
13z"/>
<path d="M2345 1710 c3 -5 8 -10 11 -10 3 0 2 5 -1 10 -3 6 -8 10 -11 10 -3 0
-2 -4 1 -10z"/>
<path d="M1223 1651 c-86 -67 -93 -74 -68 -65 11 5 26 14 33 20 10 11 97 82
111 91 2 2 2 5 0 7 -2 2 -36 -22 -76 -53z"/>
<path d="M1517 1673 c-27 -7 -131 -63 -117 -63 13 0 140 60 140 66 0 2 -1 3
-2 3 -2 -1 -11 -3 -21 -6z"/>
<path d="M696 1635 c10 -8 24 -14 29 -14 6 0 1 6 -9 14 -11 8 -24 15 -30 15
-5 0 -1 -7 10 -15z"/>
<path d="M1090 1641 c0 -11 31 -24 39 -16 3 3 -1 10 -9 15 -19 12 -30 12 -30
1z"/>
<path d="M1303 1643 c9 -2 23 -2 30 0 6 3 -1 5 -18 5 -16 0 -22 -2 -12 -5z"/>
<path d="M1263 1633 c4 -3 10 -3 14 0 3 4 0 7 -7 7 -7 0 -10 -3 -7 -7z"/>
<path d="M1183 1588 c-30 -17 -53 -37 -53 -46 0 -13 4 -11 16 6 8 12 21 22 27
22 7 0 26 11 42 25 39 32 31 30 -32 -7z"/>
<path d="M1748 1574 c-39 -21 -35 -28 5 -8 37 19 44 24 31 24 -5 -1 -21 -8
-36 -16z"/>
<path d="M1386 1571 c-3 -5 0 -11 8 -14 8 -3 17 1 20 9 6 15 -19 20 -28 5z"/>
<path d="M1575 1519 c-36 -34 -65 -67 -65 -74 0 -7 -7 -19 -16 -26 -9 -7 -34
-50 -55 -95 -38 -81 -52 -123 -24 -74 11 19 14 21 15 8 0 -10 4 -18 9 -18 14
0 19 23 11 45 -13 36 59 154 148 241 74 74 58 68 -23 -7z m-138 -236 c-4 -3
-7 0 -7 7 0 7 3 10 7 7 3 -4 3 -10 0 -14z"/>
<path d="M1196 1536 c10 -8 21 -12 24 -10 5 6 -21 24 -34 24 -6 0 -1 -6 10
-14z"/>
<path d="M1094 1508 c-19 -23 -19 -23 4 -4 21 18 27 26 19 26 -2 0 -12 -10
-23 -22z"/>
<path d="M1771 1479 c-25 -16 -57 -41 -73 -56 -15 -14 -31 -24 -34 -20 -3 3 7
18 22 32 16 15 22 23 14 19 -33 -16 -60 -48 -48 -55 8 -5 3 -12 -15 -20 -29
-13 -34 -25 -15 -31 9 -3 5 -20 -15 -60 -15 -30 -30 -72 -34 -92 -4 -27 -8
-34 -15 -24 -7 9 -8 6 -5 -9 3 -13 1 -26 -4 -29 -5 -3 -9 -11 -9 -17 1 -25 38
38 44 73 3 20 17 58 31 85 14 28 25 58 25 67 0 9 30 41 66 70 132 106 146 121
65 67z"/>
<path d="M1860 1500 c-20 -6 -21 -8 -5 -8 11 0 31 4 45 8 20 6 21 8 5 8 -11 0
-31 -4 -45 -8z"/>
<path d="M1330 1492 c0 -5 7 -15 15 -22 8 -7 15 -8 15 -2 0 5 -7 15 -15 22 -8
7 -15 8 -15 2z"/>
<path d="M1664 1478 c-43 -32 -49 -38 -38 -38 10 1 83 59 73 60 -4 0 -19 -10
-35 -22z"/>
<path d="M1196 1475 c4 -8 10 -12 15 -9 14 8 10 24 -6 24 -9 0 -12 -6 -9 -15z"/>
<path d="M2093 1463 c4 -3 10 -3 14 0 3 4 0 7 -7 7 -7 0 -10 -3 -7 -7z"/>
<path d="M946 1445 c4 -8 8 -15 10 -15 2 0 4 7 4 15 0 8 -4 15 -10 15 -5 0 -7
-7 -4 -15z"/>
<path d="M1083 1439 c-35 -22 -46 -37 -15 -20 22 13 58 40 52 41 -3 0 -20 -10
-37 -21z"/>
<path d="M1577 1432 c-15 -15 -27 -33 -27 -39 0 -6 -21 -30 -47 -53 -41 -36
-43 -39 -14 -24 38 22 84 72 76 84 -3 5 3 15 13 22 17 12 37 38 29 38 -2 0
-15 -13 -30 -28z"/>
<path d="M1983 1453 c4 -3 10 -3 14 0 3 4 0 7 -7 7 -7 0 -10 -3 -7 -7z"/>
<path d="M850 1430 c0 -11 4 -20 9 -20 5 0 7 9 4 20 -3 11 -7 20 -9 20 -2 0
-4 -9 -4 -20z"/>
<path d="M1184 1438 c-4 -7 -3 -8 4 -4 12 7 16 16 8 16 -3 0 -8 -5 -12 -12z"/>
<path d="M1326 1435 c-3 -8 -1 -15 4 -15 6 0 10 7 10 15 0 8 -2 15 -4 15 -2 0
-6 -7 -10 -15z"/>
<path d="M2050 1436 c0 -2 7 -7 16 -10 8 -3 12 -2 9 4 -6 10 -25 14 -25 6z"/>
<path d="M1395 1419 c-4 -6 -5 -12 -2 -15 2 -3 7 2 10 11 7 17 1 20 -8 4z"/>
<path d="M941 1404 c0 -11 3 -14 6 -6 3 7 2 16 -1 19 -3 4 -6 -2 -5 -13z"/>
<path d="M1314 1370 c-4 -26 -11 -39 -19 -36 -9 3 -9 -5 1 -35 13 -37 12 -41
-21 -102 -19 -35 -35 -70 -35 -79 0 -8 -9 -23 -20 -33 -11 -10 -20 -24 -20
-32 0 -8 11 -2 25 15 14 17 25 35 25 41 0 12 34 78 75 146 31 52 41 73 49 110
6 28 5 29 -9 11 -8 -11 -15 -27 -15 -35 0 -9 -5 -23 -11 -31 -8 -11 -9 -1 -5
37 6 63 -11 82 -20 23z"/>
<path d="M1863 1403 c4 -3 10 -3 14 0 3 4 0 7 -7 7 -7 0 -10 -3 -7 -7z"/>
<path d="M2144 1345 c25 -25 51 -45 59 -45 8 0 27 -10 42 -22 18 -14 26 -17
23 -7 -2 8 -25 24 -51 36 -25 12 -56 36 -68 53 -13 16 -28 30 -36 30 -7 0 7
-20 31 -45z"/>
<path d="M2260 1365 c13 -14 26 -25 28 -25 3 0 -5 11 -18 25 -13 14 -26 25
-28 25 -3 0 5 -11 18 -25z"/>
<path d="M1993 1343 c9 -2 25 -2 35 0 9 3 1 5 -18 5 -19 0 -27 -2 -17 -5z"/>
<path d="M2305 1320 c3 -5 8 -10 11 -10 3 0 2 5 -1 10 -3 6 -8 10 -11 10 -3 0
-2 -4 1 -10z"/>
<path d="M1067 1288 c-4 -13 -5 -27 -4 -31 1 -4 -3 -11 -10 -15 -8 -5 -3 -15
16 -32 14 -14 23 -21 19 -15 -5 5 -8 25 -8 45 0 26 3 31 10 20 5 -8 10 -23 10
-33 0 -27 48 -86 84 -103 28 -14 29 -14 12 1 -11 8 -15 15 -8 15 11 0 -43 96
-61 107 -12 7 21 -57 41 -80 17 -19 8 -37 -9 -20 -6 6 -28 46 -49 88 -32 64
-38 73 -43 53z"/>
<path d="M1346 1265 c-9 -26 -7 -32 5 -12 6 10 9 21 6 23 -2 3 -7 -2 -11 -11z"/>
<path d="M1895 1270 c27 -12 43 -12 25 0 -8 5 -22 9 -30 9 -10 0 -8 -3 5 -9z"/>
<path d="M2202 1248 c16 -16 36 -28 46 -28 11 1 7 6 -13 17 -16 8 -37 21 -46
27 -8 6 -2 -1 13 -16z"/>
<path d="M1177 1205 c9 -19 18 -33 21 -31 4 5 -26 66 -33 66 -3 0 3 -16 12
-35z"/>
<path d="M2270 1232 c0 -5 18 -21 40 -36 22 -14 40 -25 40 -23 0 2 -18 18 -40
36 -22 17 -40 28 -40 23z"/>
<path d="M1386 1205 c-9 -26 -7 -32 5 -12 6 10 9 21 6 23 -2 3 -7 -2 -11 -11z"/>
<path d="M1435 1210 c3 -5 8 -10 11 -10 2 0 4 5 4 10 0 6 -5 10 -11 10 -5 0
-7 -4 -4 -10z"/>
<path d="M1877 1199 c7 -7 15 -10 18 -7 3 3 -2 9 -12 12 -14 6 -15 5 -6 -5z"/>
<path d="M1330 1179 c0 -5 5 -7 10 -4 6 3 10 8 10 11 0 2 -4 4 -10 4 -5 0 -10
-5 -10 -11z"/>
<path d="M1467 1137 c-5 -32 -6 -61 -3 -65 13 -12 17 8 14 64 -3 59 -3 59 -11
1z"/>
<path d="M1958 1147 c100 -91 132 -117 145 -117 6 0 3 6 -8 12 -11 6 -31 23
-45 37 -43 44 -123 111 -131 111 -5 0 13 -19 39 -43z"/>
<path d="M1357 1153 c-13 -15 -38 -87 -25 -73 7 8 48 90 44 90 -1 0 -10 -8
-19 -17z"/>
<path d="M984 1129 c27 -11 51 -18 53 -15 7 7 -65 36 -86 35 -9 0 6 -9 33 -20z"/>
<path d="M2113 1123 c4 -3 10 -3 14 0 3 4 0 7 -7 7 -7 0 -10 -3 -7 -7z"/>
<path d="M1054 1085 c2 -11 9 -20 17 -20 8 0 18 -10 24 -22 15 -35 65 -27 65
11 0 21 -1 21 -19 -3 -18 -24 -18 -24 -54 15 -27 30 -35 34 -33 19z"/>
<path d="M1521 1077 c-13 -21 -12 -21 5 -5 10 10 16 20 13 22 -3 3 -11 -5 -18
-17z"/>
<path d="M1258 1039 c-3 -39 -7 -46 -37 -61 -39 -19 -51 -17 -31 7 7 9 10 18
7 21 -3 3 -12 -3 -19 -15 -13 -22 -38 -29 -38 -11 0 6 -9 1 -20 -10 -11 -11
-26 -20 -34 -20 -8 0 -21 -3 -30 -6 -14 -5 -14 -3 -1 30 18 42 18 46 5 46 -5
0 -9 -3 -8 -7 9 -32 -25 -74 -81 -103 -33 -16 -66 -30 -73 -30 -7 0 -41 -13
-75 -29 -34 -16 -64 -27 -67 -24 -3 4 -6 1 -6 -5 0 -6 -25 -29 -55 -50 -30
-22 -52 -42 -49 -45 3 -3 42 21 87 53 44 32 101 65 126 74 42 14 117 40 230
81 25 9 62 15 83 14 21 -2 43 2 49 8 6 6 18 9 25 6 8 -3 14 0 14 6 0 15 83 14
100 -1 12 -11 12 -10 2 4 -8 9 -9 19 -4 22 12 7 22 -17 22 -54 0 -32 26 -88
32 -69 3 10 8 10 24 0 15 -10 15 -11 2 -7 -10 3 -18 1 -18 -4 0 -5 13 -8 30
-7 34 2 39 13 11 22 -49 15 -98 85 -60 85 5 0 8 -4 5 -9 -3 -4 2 -17 10 -27
12 -15 14 -15 11 -3 -4 11 4 21 21 29 16 8 22 14 14 17 -7 3 -19 -1 -27 -7 -8
-7 -15 -8 -15 -3 0 13 33 43 47 43 5 0 18 10 29 21 19 22 19 22 -23 0 -23 -11
-49 -18 -58 -15 -11 5 -14 2 -8 -12 4 -12 3 -15 -5 -10 -7 4 -12 14 -12 22 0
11 -4 13 -17 5 -13 -7 -23 -5 -35 6 -17 15 -18 14 -18 -5 0 -12 -4 -22 -10
-22 -5 0 -7 7 -4 15 7 17 -7 20 -22 5 -8 -8 -11 1 -12 26 -2 52 -10 54 -14 3z"/>
<path d="M1634 1027 c-56 -30 -116 -78 -88 -71 11 3 34 17 50 31 16 14 41 31
57 39 15 8 27 17 27 19 0 7 0 7 -46 -18z"/>
<path d="M1555 1020 c-16 -11 -25 -20 -20 -20 10 0 64 39 55 40 -3 0 -18 -9
-35 -20z"/>
<path d="M2190 1015 c46 -18 64 -17 25 0 -16 8 -37 14 -45 14 -8 0 1 -7 20
-14z"/>
<path d="M553 1005 c-7 -8 -21 -18 -30 -24 -10 -5 -15 -13 -11 -16 4 -4 22 7
40 24 18 17 29 31 23 31 -5 -1 -16 -7 -22 -15z"/>
<path d="M916 993 c-3 -4 -6 -13 -6 -22 0 -12 3 -12 12 -3 15 15 28 16 28 2 0
-6 -10 -15 -22 -20 -15 -6 -17 -9 -7 -9 18 -1 54 35 42 41 -20 11 -42 16 -47
11z"/>
<path d="M616 849 c3 -5 11 -9 19 -9 8 0 16 4 19 9 3 5 -5 9 -19 9 -14 0 -22
-4 -19 -9z"/>
<path d="M1445 833 c-11 -3 -24 -9 -29 -13 -7 -7 62 4 89 15 14 5 -36 4 -60
-2z"/>
<path d="M588 803 c7 -3 16 -2 19 1 4 3 -2 6 -13 5 -11 0 -14 -3 -6 -6z"/>
<path d="M628 803 c7 -3 16 -2 19 1 4 3 -2 6 -13 5 -11 0 -14 -3 -6 -6z"/>
<path d="M1947 758 c21 -31 40 -54 42 -52 5 5 -47 80 -66 96 -8 7 2 -13 24
-44z"/>
<path d="M1850 734 c0 -6 7 -19 16 -30 14 -18 14 -18 3 6 -14 31 -19 36 -19
24z"/>
<path d="M1515 687 c-10 -19 -15 -40 -12 -48 4 -9 6 -7 6 6 1 11 8 31 17 43 9
13 14 25 12 28 -3 2 -13 -11 -23 -29z"/>
<path d="M1399 663 c-13 -16 -12 -17 4 -4 16 13 21 21 13 21 -2 0 -10 -8 -17
-17z"/>
<path d="M1991 665 c0 -5 6 -21 14 -35 8 -14 14 -20 14 -15 0 6 -6 21 -14 35
-8 14 -14 21 -14 15z"/>
<path d="M1771 640 c0 -8 4 -24 9 -35 9 -20 9 -20 9 0 0 11 -4 27 -9 35 -9 13
-10 13 -9 0z"/>
<path d="M748 604 c23 -20 40 -39 37 -44 -3 -4 3 -14 13 -21 16 -13 16 -13 2
5 -27 34 6 12 69 -46 33 -31 61 -61 61 -67 0 -6 11 -21 25 -35 14 -14 25 -21
25 -17 0 4 -9 16 -20 26 -47 43 8 62 87 30 47 -19 154 -22 248 -8 39 6 59 11
46 12 -19 1 -22 5 -17 24 14 51 16 72 4 40 -22 -56 -40 -66 -126 -71 -55 -3
-96 1 -134 12 -31 9 -75 16 -97 16 -35 0 -49 7 -89 43 -78 72 -159 137 -168
137 -5 0 10 -16 34 -36z"/>
<path d="M1321 613 c-31 -30 -56 -98 -27 -74 9 7 13 18 10 23 -4 5 9 25 27 44
39 41 32 46 -10 7z"/>
<path d="M1514 615 c-3 -8 -4 -20 -2 -27 3 -7 7 -1 10 15 6 29 1 36 -8 12z"/>
<path d="M1813 585 c8 -16 20 -50 27 -74 6 -23 14 -40 17 -37 10 9 -17 89 -38
116 -20 25 -20 25 -6 -5z"/>
<path d="M1344 588 c-4 -7 -3 -8 4 -4 7 4 12 9 12 12 0 8 -9 4 -16 -8z"/>
<path d="M1640 590 c0 -7 3 -10 7 -7 3 4 3 10 0 14 -4 3 -7 0 -7 -7z"/>
<path d="M1400 539 c-7 -24 -14 -47 -17 -51 -2 -5 0 -8 5 -8 10 0 36 89 28 97
-3 3 -10 -15 -16 -38z"/>
<path d="M1370 550 c0 -7 3 -10 7 -7 3 4 3 10 0 14 -4 3 -7 0 -7 -7z"/>
<path d="M1681 525 c0 -16 4 -39 9 -50 7 -17 9 -16 9 10 0 17 -4 39 -9 50 -7
17 -9 16 -9 -10z"/>
<path d="M1292 520 c-12 -12 -22 -25 -22 -30 0 -15 5 -12 28 20 26 35 24 38
-6 10z"/>
<path d="M1432 502 c-11 -21 -30 -46 -42 -57 -11 -10 -20 -23 -20 -28 0 -6 9
-2 21 9 24 22 74 103 67 109 -2 3 -14 -12 -26 -33z"/>
<path d="M1366 513 c-6 -14 -5 -15 5 -6 7 7 10 15 7 18 -3 3 -9 -2 -12 -12z"/>
<path d="M1600 520 c0 -7 3 -10 7 -7 3 4 3 10 0 14 -4 3 -7 0 -7 -7z"/>
<path d="M2160 529 c0 -3 9 -23 21 -45 18 -36 19 -36 14 -9 -5 25 -35 71 -35
54z"/>
<path d="M2002 458 c18 -38 36 -68 40 -68 10 0 -33 85 -56 115 -9 11 -2 -10
16 -47z"/>
<path d="M1456 465 c-4 -25 -4 -49 -1 -55 10 -16 35 -11 36 8 1 11 4 9 9 -8 5
-17 6 -7 4 30 -5 79 -5 80 -15 31 -13 -66 -30 -76 -22 -13 7 64 -2 69 -11 7z"/>
<path d="M1650 408 c4 -22 4 -38 -1 -38 -5 0 -9 -11 -9 -24 0 -24 -76 -86
-105 -86 -20 0 -148 -74 -135 -78 6 -2 18 2 26 9 32 26 167 79 188 73 12 -3
33 0 46 6 23 9 22 10 -7 4 -50 -9 -56 4 -18 38 39 33 47 78 21 114 -13 17 -14
16 -6 -18z"/>
<path d="M2188 426 c-20 -7 -56 -25 -81 -39 -60 -35 -176 -67 -267 -73 -72 -5
-156 -21 -148 -29 2 -2 21 0 43 5 22 5 65 10 95 10 73 0 234 45 290 80 25 15
61 31 80 35 19 4 42 11 50 16 24 14 -19 10 -62 -5z"/>
<path d="M1540 404 c0 -6 5 -15 12 -22 10 -10 8 -19 -6 -43 -10 -17 -16 -33
-13 -36 6 -5 47 55 47 68 0 3 -9 14 -20 24 -11 10 -20 14 -20 9z"/>
<path d="M1941 394 c0 -11 3 -14 6 -6 3 7 2 16 -1 19 -3 4 -6 -2 -5 -13z"/>
<path d="M1000 386 c17 -22 172 -153 217 -184 31 -22 96 -30 120 -14 6 4 15
22 20 41 7 26 17 38 43 48 34 12 34 13 5 8 -16 -2 -69 -9 -117 -15 -108 -15
-116 -24 -11 -15 69 7 76 6 70 -9 -4 -10 -7 -24 -7 -31 0 -19 -70 -25 -102 -8
-15 7 -71 50 -125 96 -108 91 -138 113 -113 83z"/>
<path d="M1210 340 c0 -11 59 -44 66 -37 3 2 -11 14 -31 25 -19 12 -35 17 -35
12z"/>
<path d="M323 220 c-97 -54 -92 -58 11 -9 83 40 84 40 122 24 50 -21 155 -87
227 -143 31 -25 59 -43 62 -40 7 6 -116 97 -206 152 -105 65 -127 66 -216 16z"/>
<path d="M1501 199 c-7 -12 -10 -23 -8 -26 3 -3 11 5 17 17 15 28 8 35 -9 9z"/>
<path d="M1220 151 c-35 -18 -86 -99 -78 -123 2 -6 16 15 31 46 20 43 36 61
57 69 17 6 30 15 30 19 0 11 0 11 -40 -11z"/>
</g>
</svg>
