<?xml version="1.0" standalone="no"?>
<!DOCTYPE svg PUBLIC "-//W3C//DTD SVG 20010904//EN"
 "http://www.w3.org/TR/2001/REC-SVG-20010904/DTD/svg10.dtd">
<svg version="1.0" xmlns="http://www.w3.org/2000/svg"
 width="344.000000pt" height="256.000000pt" viewBox="0 0 344.000000 256.000000"
 preserveAspectRatio="xMidYMid meet">
<metadata>
Created by potrace 1.16, written by Peter Selinger 2001-2019
</metadata>
<g transform="translate(0.000000,256.000000) scale(0.100000,-0.100000)"
fill="#000000" stroke="none">
<path d="M620 2550 c0 -5 5 -10 10 -10 6 0 10 5 10 10 0 6 -4 10 -10 10 -5 0
-10 -4 -10 -10z"/>
<path d="M673 2549 c21 -12 23 -31 2 -23 -9 4 -15 0 -15 -10 0 -23 -39 -29
-105 -17 -49 9 -62 8 -83 -5 -34 -22 -39 -11 -6 15 20 16 36 20 61 16 97 -15
108 -16 93 -6 -8 5 -43 13 -77 17 -63 6 -63 6 -152 -85 -49 -51 -81 -89 -70
-86 11 4 19 2 19 -4 0 -12 -42 -15 -53 -5 -3 3 7 20 23 37 50 53 23 43 -34
-13 -41 -40 -53 -57 -45 -66 6 -7 17 -10 25 -7 8 3 24 -4 34 -15 13 -13 15
-22 8 -24 -7 -3 14 -3 46 -1 72 3 70 1 47 46 -16 32 -17 39 -4 57 9 13 10 20
3 20 -7 0 -17 -13 -23 -30 -6 -16 -15 -30 -19 -30 -11 0 -10 2 8 41 47 96 151
142 241 108 31 -12 117 35 109 58 -3 8 -6 17 -6 19 0 2 -10 4 -22 4 -21 -1
-21 -2 -5 -11z m-363 -219 c0 -5 -16 -10 -36 -10 -21 0 -33 4 -29 10 3 6 19
10 36 10 16 0 29 -4 29 -10z m68 -32 c3 -14 -3 -16 -35 -11 -45 7 -47 8 -38
23 11 17 69 8 73 -12z"/>
<path d="M750 2553 c37 -4 47 -7 125 -43 28 -13 60 -24 72 -26 48 -6 82 -43
107 -118 7 -19 6 -19 -13 -2 -11 10 -18 23 -15 29 5 15 -13 44 -22 34 -4 -3
-1 -14 7 -23 13 -16 11 -17 -21 -11 -35 6 -35 6 -5 -8 70 -31 97 -121 57 -197
-10 -20 -16 -42 -12 -48 11 -17 45 70 45 115 0 41 0 41 28 -3 30 -47 92 -82
150 -85 32 -2 32 -2 -8 -43 -22 -23 -55 -49 -72 -58 -23 -12 -33 -24 -33 -40
0 -14 -6 -26 -12 -29 -24 -7 62 -29 92 -22 33 7 80 74 106 151 9 28 32 60 60
86 84 77 109 235 50 313 -15 19 -33 35 -40 35 -7 0 1 -16 19 -35 89 -93 38
-242 -101 -299 -45 -18 -48 -19 -98 -1 -67 24 -117 68 -139 124 -10 25 -23 54
-28 63 -12 23 -11 41 1 33 6 -3 10 -1 10 4 0 6 -6 11 -14 11 -31 0 -110 49
-123 76 -13 29 -13 29 -8 0 5 -25 4 -27 -12 -21 -76 31 -123 45 -153 43 -35
-1 -35 -1 0 -5z m450 -336 c25 -10 58 -17 72 -17 15 0 30 -4 33 -10 11 -17
-71 -11 -117 9 -24 10 -54 34 -67 52 -24 34 -24 34 5 8 16 -14 49 -33 74 -42z
m183 12 c-28 -29 -46 -40 -58 -35 -19 7 -11 26 12 26 8 0 28 11 45 25 46 39
47 29 1 -16z m-78 -120 c-30 -84 -64 -119 -117 -119 -37 0 -55 19 -20 21 16 1
16 2 0 6 -26 7 -22 22 10 35 15 6 46 31 68 55 56 58 79 59 59 2z"/>
<path d="M1114 2542 c-23 -20 -48 -61 -41 -68 3 -3 19 15 36 40 16 25 29 46
28 46 -1 -1 -11 -9 -23 -18z"/>
<path d="M1820 2553 c8 -3 51 -23 94 -44 44 -21 82 -37 84 -35 6 7 -159 86
-177 85 -13 0 -14 -2 -1 -6z"/>
<path d="M1888 2553 c6 -2 18 -2 25 0 6 3 1 5 -13 5 -14 0 -19 -2 -12 -5z"/>
<path d="M1933 2553 c4 -3 10 -3 14 0 3 4 0 7 -7 7 -7 0 -10 -3 -7 -7z"/>
<path d="M2106 2494 c194 -99 251 -126 230 -110 -11 9 -73 43 -138 76 -66 34
-134 70 -151 80 -18 11 -40 20 -51 20 -10 0 39 -30 110 -66z"/>
<path d="M2254 2553 c10 -10 96 -31 91 -23 -4 6 -14 10 -23 11 -11 1 -8 4 8 9
19 6 12 8 -28 8 -29 -1 -51 -3 -48 -5z"/>
<path d="M2373 2553 c4 -3 10 -3 14 0 3 4 0 7 -7 7 -7 0 -10 -3 -7 -7z"/>
<path d="M2406 2551 c5 -6 107 -69 226 -140 120 -72 229 -138 243 -147 14 -9
25 -14 25 -10 0 7 -39 32 -289 183 -194 117 -227 135 -205 114z"/>
<path d="M2693 2553 c4 -3 10 -3 14 0 3 4 0 7 -7 7 -7 0 -10 -3 -7 -7z"/>
<path d="M2385 2496 c17 -14 53 -38 80 -52 28 -15 59 -34 70 -44 26 -22 117
-72 122 -66 3 2 -17 16 -44 31 -57 31 -63 35 -94 56 -13 9 -44 28 -69 43 -25
14 -56 34 -70 43 -19 12 -18 9 5 -11z"/>
<path d="M2770 2517 c0 -2 21 -18 48 -36 47 -33 47 -33 7 3 -35 31 -55 43 -55
33z"/>
<path d="M2935 2500 c3 -5 8 -10 11 -10 3 0 2 5 -1 10 -3 6 -8 10 -11 10 -3 0
-2 -4 1 -10z"/>
<path d="M1746 2485 c10 -8 24 -15 29 -15 6 0 32 -12 59 -26 26 -14 50 -24 52
-22 4 5 -140 78 -152 78 -5 0 1 -7 12 -15z"/>
<path d="M523 2473 c-29 -10 -104 -91 -112 -120 -10 -34 -2 -42 21 -20 29 28
125 96 148 105 26 10 29 9 95 -25 22 -11 52 -23 68 -27 15 -3 27 -11 27 -17 0
-12 -24 -6 -88 22 -23 10 -40 14 -37 9 3 -6 28 -19 55 -31 49 -21 49 -21 35
-50 -8 -15 -15 -37 -15 -49 0 -12 -4 -19 -9 -15 -13 7 4 -52 20 -71 16 -20
-32 -91 -74 -109 -20 -9 -25 -14 -14 -15 30 0 55 18 87 64 29 43 39 73 21 61
-15 -9 -23 31 -16 80 5 32 18 57 47 90 22 25 35 45 30 45 -6 0 -12 -5 -14 -10
-3 -10 -39 2 -145 46 -24 9 -43 20 -43 24 0 3 -13 5 -30 2 -16 -2 -30 -9 -30
-16 0 -13 -111 -88 -119 -80 -6 6 46 57 88 87 25 17 27 28 4 20z"/>
<path d="M880 2466 c0 -2 8 -10 18 -17 15 -13 16 -12 3 4 -13 16 -21 21 -21
13z"/>
<path d="M2994 2461 c4 -6 16 -16 28 -22 15 -8 18 -8 14 0 -4 6 -16 16 -28 22
-15 8 -18 8 -14 0z"/>
<path d="M3055 2420 c3 -5 8 -10 11 -10 3 0 2 5 -1 10 -3 6 -8 10 -11 10 -3 0
-2 -4 1 -10z"/>
<path d="M1900 2415 c0 -7 61 -37 66 -33 2 3 -12 12 -31 21 -19 9 -35 15 -35
12z"/>
<path d="M1994 2366 c11 -9 24 -16 30 -16 12 0 7 5 -24 19 -24 11 -24 11 -6
-3z"/>
<path d="M2360 2367 c0 -7 111 -69 116 -64 2 2 -20 17 -48 33 -64 35 -68 37
-68 31z"/>
<path d="M2043 2343 c4 -3 10 -3 14 0 3 4 0 7 -7 7 -7 0 -10 -3 -7 -7z"/>
<path d="M2075 2330 c3 -5 8 -10 11 -10 3 0 2 5 -1 10 -3 6 -8 10 -11 10 -3 0
-2 -4 1 -10z"/>
<path d="M2651 2298 c52 -48 109 -84 109 -69 0 6 -10 16 -22 22 -13 6 -48 29
-78 51 -55 39 -55 39 -9 -4z"/>
<path d="M200 2310 c0 -5 5 -10 11 -10 5 0 7 5 4 10 -3 6 -8 10 -11 10 -2 0
-4 -4 -4 -10z"/>
<path d="M2494 2291 c4 -6 16 -16 28 -22 15 -8 18 -8 14 0 -4 6 -16 16 -28 22
-15 8 -18 8 -14 0z"/>
<path d="M1951 2232 c177 -87 300 -139 214 -91 -49 28 -315 149 -324 148 -3 0
46 -26 110 -57z"/>
<path d="M2170 2286 c0 -8 92 -58 97 -53 3 3 -18 17 -46 31 -28 15 -51 24 -51
22z"/>
<path d="M260 2260 c-6 -10 -35 -40 -66 -65 -31 -25 -53 -45 -49 -45 16 0 135
103 135 116 0 20 -7 18 -20 -6z"/>
<path d="M353 2253 c4 -3 10 -3 14 0 3 4 0 7 -7 7 -7 0 -10 -3 -7 -7z"/>
<path d="M380 2250 c0 -5 5 -10 10 -10 6 0 10 5 10 10 0 6 -4 10 -10 10 -5 0
-10 -4 -10 -10z"/>
<path d="M120 2230 c-8 -5 -12 -11 -10 -14 3 -2 14 2 24 10 22 15 10 19 -14 4z"/>
<path d="M2551 2216 c-13 -14 -39 -29 -60 -34 -30 -8 -32 -10 -10 -11 22 -1
109 50 109 64 0 12 -18 3 -39 -19z"/>
<path d="M3085 2219 c-11 -4 -18 -8 -15 -8 3 -1 20 -5 38 -10 18 -6 32 -6 32
-1 0 16 -34 28 -55 19z"/>
<path d="M1733 2213 c4 -3 10 -3 14 0 3 4 0 7 -7 7 -7 0 -10 -3 -7 -7z"/>
<path d="M326 2189 c-15 -11 -33 -36 -41 -55 -8 -19 -19 -35 -24 -35 -6 -1
-14 -2 -18 -3 -5 -1 -23 -6 -40 -10 -39 -9 -40 -18 -12 -57 25 -35 88 -41 114
-11 33 37 83 110 90 131 3 11 13 21 21 21 10 0 9 5 -6 20 -26 26 -51 25 -84
-1z m59 -18 c-4 -9 -8 -20 -9 -26 -2 -11 -57 -91 -80 -117 -23 -26 -70 -23
-89 5 -17 26 -3 47 32 47 23 0 46 21 66 60 26 51 99 79 80 31z"/>
<path d="M2931 2188 c-25 -12 -40 -23 -35 -25 5 -2 32 8 59 21 28 14 43 25 35
25 -8 0 -35 -10 -59 -21z"/>
<path d="M558 2175 c-15 -14 -30 -36 -34 -49 -4 -17 -15 -26 -39 -30 -48 -9
-83 -39 -67 -58 6 -8 9 -18 6 -21 -4 -4 6 -11 22 -17 33 -13 109 -9 108 5 0 6
8 17 17 25 15 13 36 61 66 153 9 28 -47 22 -79 -8z m62 1 c0 -9 -33 -75 -58
-116 -35 -56 -98 -70 -118 -26 -12 26 4 41 50 48 10 2 24 12 30 23 32 57 49
75 72 75 13 0 24 -2 24 -4z"/>
<path d="M483 2033 c4 -3 10 -3 14 0 3 4 0 7 -7 7 -7 0 -10 -3 -7 -7z"/>
<path d="M2805 2180 c-27 -6 -25 -7 18 -11 26 -2 47 -1 47 2 0 11 -33 15 -65
9z"/>
<path d="M1082 2151 c-17 -17 -32 -34 -32 -40 0 -5 -19 -23 -42 -39 -24 -16
-41 -35 -39 -43 2 -8 4 -20 4 -27 1 -45 105 -31 124 16 62 153 61 150 46 156
-23 9 -27 8 -61 -23z m43 -23 c-13 -60 -53 -127 -80 -134 -64 -16 -82 35 -24
72 21 13 39 28 39 33 0 11 50 61 62 61 6 0 7 -14 3 -32z"/>
<path d="M2753 2173 c4 -3 10 -3 14 0 3 4 0 7 -7 7 -7 0 -10 -3 -7 -7z"/>
<path d="M775 2097 c-16 -33 -42 -74 -57 -91 -28 -30 -28 -30 -28 -3 0 18 -5
27 -15 27 -9 0 -28 7 -43 16 -22 13 -21 11 7 -15 34 -30 34 -30 21 -86 -9 -37
-18 -55 -29 -56 -21 -2 -23 -1 -43 6 -14 6 -16 1 -15 -29 1 -20 5 -36 10 -36
4 0 7 -9 7 -21 0 -11 -4 -17 -10 -14 -13 8 -12 -1 1 -47 9 -34 13 -38 44 -38
37 0 65 21 65 50 0 10 5 22 10 25 9 6 12 -9 14 -74 1 -13 9 -27 18 -30 13 -4
15 -10 8 -21 -7 -11 -10 -11 -10 -2 0 7 -5 10 -10 7 -6 -4 -18 -1 -26 6 -12
10 -12 14 -2 20 9 6 6 9 -9 9 -25 0 -39 -16 -21 -24 9 -4 8 -5 -2 -4 -33 4
-61 -14 -67 -43 -3 -16 -9 -29 -14 -29 -21 0 -6 -15 16 -16 14 -1 25 1 25 5 0
4 7 8 15 9 8 1 22 3 30 4 8 1 14 6 13 12 -3 12 4 16 29 16 13 0 14 -3 5 -12
-19 -19 -14 -30 8 -18 11 6 20 7 20 1 0 -13 -21 -19 -54 -16 -19 3 -26 0 -22
-10 2 -7 -7 -28 -21 -47 -21 -27 -24 -29 -18 -9 5 16 4 21 -4 17 -6 -4 -11
-13 -11 -21 0 -9 -11 -13 -31 -13 -17 1 -35 -5 -40 -13 -9 -15 -15 3 -8 26 8
28 13 165 5 168 -5 2 -8 15 -8 30 0 15 -5 30 -10 33 -5 3 -6 14 -3 25 4 10 3
19 -2 19 -5 0 -14 -25 -22 -56 -7 -31 -15 -64 -19 -72 -3 -9 -1 -13 5 -9 6 4
13 21 17 38 3 18 9 29 13 26 10 -11 21 -171 12 -187 -6 -11 -9 -5 -10 20 -1
44 -16 97 -18 64 -1 -18 -7 -22 -33 -20 -34 1 -33 3 -58 -91 -6 -24 -15 -43
-20 -43 -5 0 -5 13 1 32 13 46 5 45 -14 -2 -15 -40 -15 -40 21 -40 20 0 46 7
57 15 19 15 19 15 -2 30 -38 27 -18 94 24 81 32 -10 52 -117 30 -153 -11 -17
-85 -53 -99 -48 -7 3 -26 1 -43 -4 -26 -8 -23 -9 28 -10 32 -1 56 -5 53 -9
-14 -23 -246 4 -262 30 -4 7 -2 8 4 4 7 -4 12 -3 12 3 0 5 -6 11 -12 14 -20 6
26 80 56 91 35 13 56 -5 35 -30 -13 -15 -11 -16 11 -9 30 9 42 25 30 40 -5 6
-5 27 0 49 9 41 -2 38 -24 -5 -13 -27 -76 -46 -76 -23 0 7 10 20 22 28 12 9
17 16 10 16 -6 0 -21 -9 -32 -20 -20 -20 -20 -20 -21 43 -1 57 -2 59 -10 27
-5 -19 -6 -57 -3 -83 4 -34 1 -58 -11 -83 -24 -50 -14 -78 32 -92 119 -35 217
-33 252 6 13 15 20 21 16 14 -9 -16 50 11 60 28 9 14 -8 12 -25 -2 -10 -9 -9
-6 1 7 9 11 19 29 23 40 6 16 13 8 42 -49 19 -38 34 -76 34 -84 0 -8 19 -38
43 -66 23 -28 51 -63 60 -78 22 -36 43 -36 52 -1 7 31 23 53 36 53 10 0 12
-162 3 -209 -6 -27 -43 -61 -67 -61 -2 0 -21 52 -42 115 -21 63 -40 113 -41
112 -6 -6 34 -154 50 -184 18 -36 20 -53 7 -53 -5 0 -26 51 -46 113 -21 61
-41 116 -46 122 -13 13 -11 5 10 -58 20 -57 20 -57 -6 -63 -14 -4 -64 -1 -111
5 -66 10 -87 9 -96 0 -7 -8 -7 -10 0 -6 6 3 39 1 75 -5 35 -5 74 -10 86 -10
19 0 20 -3 10 -18 -8 -15 -15 -16 -30 -8 -11 5 -17 6 -14 1 3 -4 -41 -6 -96
-4 -143 5 -407 -9 -407 -21 0 -6 8 -7 17 -4 24 10 395 17 459 10 41 -5 54 -10
50 -20 -3 -8 -1 -14 4 -14 5 0 10 8 13 18 3 14 6 12 14 -8 7 -16 7 -32 1 -42
-5 -11 -5 -18 1 -18 13 0 23 34 15 54 -6 14 -2 16 22 10 73 -17 64 -63 -13
-68 -23 -2 -46 -7 -53 -11 -9 -6 -10 1 -5 26 5 23 4 31 -3 24 -6 -5 -12 -26
-14 -45 -4 -42 -34 -60 -148 -86 -106 -23 -137 -35 -75 -27 72 8 174 41 217
69 21 13 41 24 45 24 5 0 1 -5 -7 -10 -13 -8 -12 -10 3 -10 9 0 17 4 17 9 0 5
7 11 14 14 11 4 13 1 9 -11 -6 -15 -5 -15 10 -3 9 7 15 17 12 21 -3 4 4 10 15
13 19 5 32 -5 36 -28 1 -5 23 -46 48 -90 54 -93 81 -159 73 -178 -4 -11 -109
-57 -129 -57 -3 0 -9 37 -14 83 -4 45 -8 87 -9 92 -1 6 6 19 14 29 9 11 -13
-2 -49 -28 -118 -85 -270 -139 -453 -161 -52 -6 -58 -9 -55 -28 3 -19 8 -21
37 -19 62 7 81 22 21 17 -77 -6 -44 10 60 29 144 27 204 42 253 64 26 12 55
19 65 16 11 -4 13 -3 5 3 -8 5 4 18 37 40 49 32 49 32 55 -25 16 -138 17 -129
-13 -151 -15 -11 -22 -21 -15 -21 6 0 25 11 41 25 16 13 59 34 95 46 83 27 86
45 27 168 -40 83 -40 83 2 127 115 119 142 142 171 153 32 11 32 11 2 5 -27
-5 -28 -4 -15 10 18 18 99 31 118 18 10 -7 10 -15 2 -38 -11 -29 -11 -29 9 -9
27 27 40 100 37 205 -2 63 2 100 17 145 27 80 46 94 132 96 39 1 58 4 43 6
-27 4 -27 6 -14 31 7 15 25 74 41 132 15 58 37 137 48 175 29 96 30 105 8 65
-11 -19 -28 -70 -38 -112 -10 -43 -21 -78 -25 -78 -4 0 -5 -7 -2 -15 4 -8 2
-21 -3 -28 -6 -6 -18 -43 -28 -82 -21 -77 -27 -85 -68 -85 -48 0 -85 -29 -102
-81 -17 -50 -16 -49 -130 -62 -11 -1 -20 -9 -21 -17 -2 -35 -5 -41 -14 -35 -5
3 -8 0 -6 -7 3 -7 12 -39 21 -70 12 -44 20 -58 34 -58 11 0 21 -9 25 -22 9
-35 8 -38 -20 -38 -36 0 -53 -11 -116 -75 -55 -55 -77 -67 -79 -42 -4 53 1
310 6 320 4 6 -3 1 -14 -12 -12 -13 -21 -18 -21 -10 0 20 -28 -23 -35 -54 -9
-34 -21 -34 -39 1 -8 15 -26 38 -41 52 -32 30 -50 63 -60 110 -4 19 -18 49
-31 67 -50 66 -16 99 47 46 32 -27 32 -27 25 9 -7 39 17 77 59 91 12 5 7 -4
-15 -23 -35 -29 -35 -29 10 -29 39 1 41 2 15 8 -30 7 -30 7 16 34 50 30 64 34
53 15 -6 -10 -5 -10 8 0 18 14 13 55 -8 73 -12 10 -13 8 -8 -7 5 -15 4 -16 -5
-8 -9 8 -10 30 -5 74 7 62 7 63 21 35 8 -15 13 -35 10 -44 -2 -10 2 -26 9 -36
12 -17 14 -17 14 -2 0 21 26 22 34 2 3 -8 10 -15 16 -15 7 0 8 6 0 19 -5 11
-7 27 -3 37 4 11 3 15 -4 11 -8 -5 -10 5 -7 30 5 42 -58 184 -85 191 -9 3 -6
-6 8 -24 54 -75 87 -223 45 -207 -8 3 -14 10 -14 16 0 5 -12 25 -26 44 -16 21
-23 40 -19 52 3 11 1 22 -4 25 -16 10 -19 -6 -11 -59 8 -53 -2 -105 -14 -74
-4 9 -8 31 -9 50 -2 19 -10 48 -19 64 -49 93 -49 94 -38 115 11 21 30 27 30
10 0 -5 5 -10 11 -10 5 0 7 5 4 10 -3 6 -4 10 0 10 3 0 10 -10 15 -22 8 -22 9
-22 9 5 1 18 -4 27 -14 27 -20 0 -19 16 4 37 25 24 92 151 83 157 -4 2 -20
-23 -37 -57z m-135 -237 c0 -5 -2 -10 -4 -10 -3 0 -8 5 -11 10 -3 6 -1 10 4
10 6 0 11 -4 11 -10z m30 -70 c-9 -6 -9 -13 -1 -28 12 -23 -9 -42 -47 -42 -22
0 -42 52 -23 58 6 2 8 16 5 31 -4 16 -1 32 5 35 6 4 11 2 11 -3 0 -18 27 -12
35 7 6 13 9 10 17 -17 7 -24 6 -36 -2 -41z m-33 -177 c-4 -3 -7 0 -7 7 0 7 3
10 7 7 3 -4 3 -10 0 -14z m-208 -139 c-16 -20 -28 -17 -22 5 3 12 11 17 19 14
11 -4 12 -9 3 -19z m656 -226 c-3 -49 -2 -56 5 -33 7 23 8 15 5 -34 -3 -35 -5
-78 -5 -95 0 -22 -3 -27 -9 -17 -7 11 -10 10 -13 -5 -3 -15 -7 -13 -20 14 -9
18 -12 30 -7 27 5 -4 9 -3 9 0 0 11 -25 30 -39 30 -8 0 -20 20 -27 45 -16 53
-17 71 -4 50 7 -11 10 -8 10 16 0 34 21 59 42 52 7 -3 22 -2 33 3 11 4 21 8
22 8 2 1 1 -27 -2 -61z m-441 -217 c9 -14 -28 -41 -44 -31 -11 7 -11 11 -1 24
15 17 37 21 45 7z m16 -37 c0 -8 -5 -12 -10 -9 -6 4 -8 11 -5 16 9 14 15 11
15 -7z m116 -131 c-43 -40 -49 -40 -64 -8 -22 47 -15 65 31 85 42 19 42 19 55
-13 13 -30 13 -33 -22 -64z"/>
<path d="M1062 1105 c-11 -12 -10 -15 3 -15 8 0 15 7 15 15 0 18 -2 18 -18 0z"/>
<path d="M1890 2150 c0 -7 3 -10 7 -7 3 4 3 10 0 14 -4 3 -7 0 -7 -7z"/>
<path d="M2285 2153 c39 -8 80 -26 100 -44 19 -17 21 -16 38 7 18 24 11 34
-10 13 -8 -8 -22 -5 -51 10 -23 12 -54 20 -69 20 -20 -1 -22 -3 -8 -6z"/>
<path d="M835 2140 c3 -5 16 -10 28 -10 18 0 19 2 7 10 -20 13 -43 13 -35 0z"/>
<path d="M960 2138 c0 -19 -56 -134 -69 -142 -20 -13 -59 5 -64 30 -2 13 -1
24 3 24 17 0 70 59 70 77 -1 15 -3 13 -14 -7 -8 -14 -28 -36 -46 -48 -23 -17
-30 -30 -27 -44 5 -17 2 -18 -24 -13 -18 4 -29 3 -29 -4 0 -6 10 -11 22 -11
12 0 36 -5 54 -12 26 -9 39 -9 61 2 15 7 34 12 41 11 6 -1 12 3 12 9 0 6 -4 8
-10 5 -16 -10 -12 8 15 69 28 64 29 66 15 66 -5 0 -10 -6 -10 -12z"/>
<path d="M1648 2128 c5 -5 16 -8 23 -6 8 3 3 7 -10 11 -17 4 -21 3 -13 -5z"/>
<path d="M2210 2116 c0 -2 7 -9 15 -16 9 -7 15 -8 15 -2 0 5 -7 12 -15 16 -8
3 -15 4 -15 2z"/>
<path d="M2240 2060 c0 -5 5 -10 11 -10 5 0 7 5 4 10 -3 6 -8 10 -11 10 -2 0
-4 -4 -4 -10z"/>
<path d="M1629 2024 c-13 -14 -22 -28 -19 -32 3 -3 -13 -17 -35 -29 -39 -22
-43 -33 -4 -13 14 8 19 7 19 -1 0 -6 17 8 38 31 41 46 91 53 93 12 0 -14 2
-14 9 3 7 15 9 16 9 4 1 -17 -64 -82 -90 -91 -10 -3 -4 -21 24 -68 21 -35 41
-77 44 -94 3 -17 15 -49 27 -71 25 -49 30 -95 10 -95 -8 0 -14 10 -14 26 0 16
-4 23 -12 18 -7 -5 -8 -3 -4 5 5 7 0 18 -10 26 -26 19 -39 19 -23 -1 14 -17
51 -115 45 -121 -2 -2 -11 14 -20 37 -22 55 -28 51 -11 -7 18 -60 18 -63 0
-63 -8 0 -15 -4 -15 -10 0 -5 9 -10 21 -10 12 0 17 -4 14 -11 -4 -6 -13 -8
-20 -5 -7 2 -16 -1 -19 -9 -4 -11 2 -11 27 -3 75 24 72 25 97 -42 22 -58 22
-64 7 -75 -9 -7 -24 -29 -32 -49 -18 -43 -66 -50 -74 -11 -2 11 -14 33 -27 49
-19 22 -23 35 -19 60 6 28 4 32 -18 34 -20 1 -25 -4 -30 -31 -3 -17 -8 -40
-12 -49 -4 -11 -3 -18 4 -18 6 0 11 9 11 20 0 28 16 25 37 -7 10 -16 23 -32
29 -38 6 -5 17 -26 24 -45 14 -36 39 -71 27 -37 -6 16 -3 19 33 21 8 1 20 17
27 36 7 19 12 31 12 26 1 -6 8 -1 17 10 15 18 15 19 9 0 -15 -50 -16 -132 -1
-171 16 -40 16 -40 9 0 -11 59 -9 107 6 153 12 36 12 45 -3 75 -17 38 -21 61
-6 37 8 -12 10 -9 10 12 0 15 -4 30 -10 33 -26 16 -6 24 22 9 29 -15 42 -12
36 9 -4 10 83 67 103 67 9 0 20 7 23 16 5 13 4 14 -7 6 -8 -7 -16 -10 -18 -7
-3 2 -34 -13 -69 -35 -65 -39 -65 -39 -92 -12 -16 14 -28 20 -28 14 0 -7 5
-12 10 -12 6 0 10 -5 10 -12 0 -18 -40 24 -44 47 -2 11 -5 25 -7 30 -2 6 1 20
5 33 5 16 1 34 -14 60 -13 20 -29 59 -37 85 -8 26 -27 69 -44 94 -36 59 -37
53 16 93 68 51 58 105 -17 102 -10 0 -18 3 -18 9 0 16 -16 10 -41 -17z m128
-481 c-4 -3 -7 0 -7 7 0 7 3 10 7 7 3 -4 3 -10 0 -14z m143 -77 c0 -3 -4 -8
-10 -11 -5 -3 -10 -1 -10 4 0 6 5 11 10 11 6 0 10 -2 10 -4z m-72 -41 c-3 -3
-9 2 -12 12 -6 14 -5 15 5 6 7 -7 10 -15 7 -18z"/>
<path d="M2238 2033 c6 -2 9 -10 6 -15 -5 -7 -2 -8 6 -3 10 6 12 4 6 -11 -6
-15 -4 -16 5 -7 16 16 4 43 -18 42 -11 0 -13 -3 -5 -6z"/>
<path d="M1880 2000 c-9 -6 -10 -10 -3 -10 6 0 15 5 18 10 8 12 4 12 -15 0z"/>
<path d="M1365 1989 c-4 -6 -14 -8 -23 -4 -9 3 -13 3 -9 -1 4 -4 2 -14 -5 -21
-6 -8 6 -4 28 8 50 29 50 29 31 29 -9 0 -19 -5 -22 -11z"/>
<path d="M1342 1918 c-94 -70 -120 -103 -108 -133 6 -18 26 -11 26 8 0 7 -4 6
-10 -3 -12 -19 -13 -8 0 24 5 14 51 56 106 97 84 62 100 70 128 65 22 -4 27
-3 16 4 -32 21 -67 7 -158 -62z"/>
<path d="M503 1933 c-9 -21 -19 -51 -24 -68 -31 -114 -38 -150 -29 -159 7 -7
10 -2 10 12 0 13 8 37 17 55 9 18 20 52 24 77 4 25 12 62 17 83 5 20 8 37 5
37 -2 0 -11 -17 -20 -37z"/>
<path d="M2010 1960 c-9 -6 -10 -10 -3 -10 6 0 15 5 18 10 8 12 4 12 -15 0z"/>
<path d="M2150 1962 c0 -8 13 -42 30 -78 16 -35 35 -91 42 -124 8 -42 17 -62
30 -66 26 -8 22 -39 -9 -69 -15 -14 -24 -25 -20 -25 23 0 55 49 60 90 3 25 3
37 0 28 -10 -39 -38 -12 -48 47 -4 22 -17 60 -28 85 -49 109 -57 124 -57 112z"/>
<path d="M439 1911 c-16 -16 -29 -35 -29 -43 1 -7 10 -2 21 12 11 14 29 33 41
43 11 9 15 17 8 17 -6 0 -25 -13 -41 -29z"/>
<path d="M2100 1928 c0 -26 -53 -58 -96 -58 -47 0 -41 -8 9 -12 20 -1 37 -3
37 -4 0 -1 -7 -18 -15 -37 -17 -40 -20 -83 -6 -91 4 -3 6 5 4 19 -3 13 2 38
11 56 9 18 16 39 16 48 0 9 13 27 30 41 22 19 27 29 20 40 -8 13 -10 13 -10
-2z"/>
<path d="M2120 1936 c0 -2 7 -7 16 -10 8 -3 12 -2 9 4 -6 10 -25 14 -25 6z"/>
<path d="M1369 1897 c-19 -18 -44 -38 -55 -45 -10 -7 -1 -4 21 7 39 18 82 57
74 65 -2 3 -20 -10 -40 -27z"/>
<path d="M1953 1913 c4 -3 10 -3 14 0 3 4 0 7 -7 7 -7 0 -10 -3 -7 -7z"/>
<path d="M740 1880 c6 -11 13 -20 16 -20 2 0 0 9 -6 20 -6 11 -13 20 -16 20
-2 0 0 -9 6 -20z"/>
<path d="M973 1873 c4 -3 10 -3 14 0 3 4 0 7 -7 7 -7 0 -10 -3 -7 -7z"/>
<path d="M426 1818 c-14 -29 -26 -46 -26 -38 0 13 -1 13 -10 0 -11 -17 -13
-140 -2 -157 4 -6 7 12 7 40 0 38 9 72 34 125 19 40 32 75 29 78 -3 3 -17 -19
-32 -48z"/>
<path d="M1938 1853 c7 -3 16 -2 19 1 4 3 -2 6 -13 5 -11 0 -14 -3 -6 -6z"/>
<path d="M1264 1818 c-4 -7 -3 -8 4 -4 7 4 12 9 12 12 0 8 -9 4 -16 -8z"/>
<path d="M388 1813 c7 -3 16 -2 19 1 4 3 -2 6 -13 5 -11 0 -14 -3 -6 -6z"/>
<path d="M983 1790 c-18 -10 -39 -33 -48 -50 -20 -38 -5 -40 17 -1 28 51 54
57 88 22 37 -36 39 -67 5 -83 -14 -6 -25 -16 -25 -21 0 -5 7 -3 16 4 15 12 16
11 10 -9 -5 -13 -3 -22 3 -22 6 0 11 7 11 15 0 9 7 26 15 39 19 29 9 60 -32
98 -29 27 -29 27 -60 8z"/>
<path d="M1928 1793 c-8 -10 -25 -38 -38 -63 -13 -25 -29 -56 -36 -70 -16 -29
-19 -94 -4 -85 6 3 10 23 10 43 0 21 6 46 13 57 21 32 78 135 74 135 -2 0 -11
-8 -19 -17z"/>
<path d="M1300 1780 c-6 -11 -8 -20 -6 -20 3 0 10 9 16 20 6 11 8 20 6 20 -3
0 -10 -9 -16 -20z"/>
<path d="M1987 1763 c-17 -38 -17 -38 3 -14 11 13 20 29 20 37 0 22 -5 17 -23
-23z"/>
<path d="M3182 1770 c-12 -11 -25 -20 -30 -20 -22 0 -62 -59 -71 -104 -5 -27
-18 -60 -30 -75 -12 -14 -26 -37 -31 -50 -6 -13 -22 -37 -35 -53 -13 -16 -29
-48 -35 -71 -6 -23 -15 -52 -20 -65 -6 -14 -6 -21 -1 -18 5 4 12 -2 14 -11 3
-10 5 -4 6 14 2 51 29 121 67 170 20 26 49 74 66 107 17 34 47 77 67 95 20 19
30 32 24 27 -20 -11 -15 2 8 25 11 11 26 18 34 16 9 -4 11 1 8 14 -7 24 -14
24 -41 -1z m-52 -75 c-13 -14 -26 -23 -28 -20 -3 3 5 16 18 30 13 14 26 23 28
20 3 -3 -5 -16 -18 -30z"/>
<path d="M1260 1750 c0 -6 7 -10 15 -10 8 0 15 2 15 4 0 2 -7 6 -15 10 -8 3
-15 1 -15 -4z"/>
<path d="M2090 1720 c0 -5 5 -10 11 -10 5 0 7 5 4 10 -3 6 -8 10 -11 10 -2 0
-4 -4 -4 -10z"/>
<path d="M1950 1670 c-25 -28 -43 -50 -40 -50 8 1 84 60 76 60 -3 0 -2 9 4 20
15 29 10 25 -40 -30z"/>
<path d="M1506 1698 c-39 -22 -71 -130 -41 -142 8 -3 15 -16 15 -29 0 -27 25
-65 36 -55 4 4 2 13 -4 20 -16 20 -19 90 -4 95 6 3 12 0 12 -5 0 -5 16 -36 35
-68 34 -56 45 -61 26 -12 -6 16 -4 37 5 63 7 21 11 42 9 45 -2 4 10 17 27 30
21 15 33 19 36 12 2 -7 8 -12 13 -12 6 0 5 8 -1 20 -6 11 -19 20 -28 20 -10 0
-23 5 -28 10 -16 16 -54 21 -54 7 0 -7 -4 -6 -10 3 -9 13 -10 13 -10 0 0 -10
-3 -11 -8 -3 -5 8 -13 8 -26 1z m94 -27 c0 -12 -47 -50 -54 -44 -19 19 13 66
39 57 8 -4 15 -9 15 -13z m-75 -22 c-3 -12 -7 -24 -10 -27 -4 -4 -1 27 4 46 4
13 9 -3 6 -19z m-28 -41 c-3 -8 -6 -5 -6 6 -1 11 2 17 5 13 3 -3 4 -12 1 -19z
m53 -41 c4 -5 10 3 14 17 3 14 11 26 16 26 6 0 3 -14 -6 -32 -17 -32 -17 -32
-35 -9 -10 13 -16 28 -12 35 5 7 9 4 11 -9 2 -11 7 -24 12 -28z"/>
<path d="M2074 1664 c-5 -27 -3 -38 11 -48 12 -8 16 -21 12 -34 -5 -23 7 -39
17 -23 9 14 -5 72 -15 65 -15 -9 -21 21 -10 49 6 16 7 27 1 27 -5 0 -12 -16
-16 -36z"/>
<path d="M2182 1672 c-1 -18 -9 -46 -17 -62 -9 -18 -14 -52 -12 -97 1 -48 -3
-79 -16 -105 -24 -52 -13 -48 14 4 17 34 20 53 16 102 -4 42 -1 68 9 89 9 16
13 45 11 65 -4 37 -4 37 -5 4z"/>
<path d="M1170 1673 c-41 -14 -100 -46 -100 -54 0 -4 16 1 35 12 20 12 54 27
78 34 23 8 33 14 22 14 -11 -1 -27 -3 -35 -6z"/>
<path d="M958 1663 c6 -2 18 -2 25 0 6 3 1 5 -13 5 -14 0 -19 -2 -12 -5z"/>
<path d="M955 1640 c-30 -8 -30 -8 -3 -9 15 0 30 4 33 9 3 6 5 9 3 9 -2 -1
-16 -5 -33 -9z"/>
<path d="M821 1604 c0 -11 3 -14 6 -6 3 7 2 16 -1 19 -3 4 -6 -2 -5 -13z"/>
<path d="M1424 1585 c-3 -19 -3 -55 0 -80 7 -41 5 -46 -25 -72 -50 -45 -70
-80 -84 -146 -17 -81 -28 -229 -16 -202 5 11 10 36 10 55 2 59 30 203 45 225
20 31 112 106 120 98 12 -12 6 -23 -13 -23 -15 0 -18 -7 -16 -34 3 -28 -4 -40
-37 -72 -59 -57 -68 -79 -56 -139 6 -27 11 -80 12 -117 1 -62 9 -89 22 -76 3
4 1 15 -5 26 -8 14 -7 29 0 52 9 23 9 42 1 68 -30 101 -24 125 40 181 33 28
38 38 33 60 -7 26 -7 26 20 1 36 -34 46 -54 51 -106 5 -49 63 -164 103 -206
26 -25 114 -66 176 -82 48 -12 26 0 -62 33 -81 32 -81 32 -76 74 3 23 9 46 13
50 6 7 -6 106 -14 114 -2 2 -3 -38 -3 -87 0 -50 -3 -93 -6 -96 -20 -20 -77 76
-77 130 0 19 -5 38 -10 41 -7 4 -9 -3 -5 -22 6 -27 6 -27 -9 -9 -9 11 -16 28
-16 37 0 10 -3 26 -6 36 -5 17 -5 17 9 1 8 -10 19 -18 26 -18 6 0 -14 30 -43
67 -49 60 -53 69 -37 78 16 10 18 45 1 45 -4 0 -11 10 -15 23 -19 55 -25 62
-20 25 2 -21 0 -38 -5 -38 -12 0 -22 66 -14 105 3 19 4 35 1 35 -4 0 -9 -16
-13 -35z"/>
<path d="M968 1547 c18 -19 37 -47 42 -63 7 -26 8 -27 9 -5 1 25 -53 101 -72
101 -6 0 4 -15 21 -33z"/>
<path d="M2450 1570 c0 -7 3 -10 7 -7 3 4 3 10 0 14 -4 3 -7 0 -7 -7z"/>
<path d="M1084 1536 c16 -46 28 -59 16 -16 -5 19 -14 38 -19 43 -5 5 -4 -7 3
-27z"/>
<path d="M380 1550 c0 -7 3 -10 7 -7 3 4 3 10 0 14 -4 3 -7 0 -7 -7z"/>
<path d="M1831 1544 c0 -11 3 -14 6 -6 3 7 2 16 -1 19 -3 4 -6 -2 -5 -13z"/>
<path d="M2033 1533 c4 -3 10 -3 14 0 3 4 0 7 -7 7 -7 0 -10 -3 -7 -7z"/>
<path d="M2993 1533 c4 -3 10 -3 14 0 3 4 0 7 -7 7 -7 0 -10 -3 -7 -7z"/>
<path d="M1240 1520 c-14 -4 -40 -8 -57 -9 -18 -1 -33 -5 -33 -10 0 -4 12 -7
28 -5 27 4 27 4 -1 -9 -30 -14 -49 -36 -41 -48 2 -4 19 7 36 23 18 17 48 37
66 45 17 7 32 15 32 18 0 3 -1 5 -2 4 -2 -1 -14 -5 -28 -9z"/>
<path d="M790 1516 c0 -2 7 -9 15 -16 13 -11 14 -10 9 4 -5 14 -24 23 -24 12z"/>
<path d="M2095 1498 c-4 -14 -8 -18 -12 -10 -9 22 -20 13 -15 -14 3 -17 -3
-36 -18 -56 -18 -24 -19 -30 -7 -25 48 18 -8 -66 -67 -103 -60 -36 -65 -77
-29 -227 4 -16 1 -23 -10 -23 -18 0 -130 35 -157 50 -11 6 -20 7 -20 2 0 -13
111 -52 157 -55 29 -1 42 -8 55 -30 10 -15 30 -32 45 -39 75 -30 95 -41 100
-54 9 -25 -3 -25 -33 -2 -16 13 -29 21 -29 19 0 -3 -21 1 -47 8 -61 17 -74 11
-89 -38 -7 -23 -16 -41 -21 -41 -5 0 -5 -12 -2 -26 5 -20 4 -25 -6 -19 -21 13
5 -27 39 -59 27 -26 31 -27 45 -13 9 9 14 22 11 29 -4 10 5 12 39 10 24 -2 54
2 66 8 14 7 25 8 29 2 9 -14 67 10 66 28 -1 8 2 30 6 48 8 35 -9 62 -38 62 -8
0 -27 8 -41 19 -15 10 -33 20 -41 23 -11 3 -11 7 3 20 16 16 42 115 33 124 -2
3 -10 -17 -16 -43 -21 -85 -61 -120 -61 -55 0 15 -4 34 -10 42 -16 26 -19 5
-5 -35 16 -47 12 -55 -15 -30 -22 20 -39 65 -42 110 -1 17 -5 35 -9 40 -7 10
-13 45 -9 55 1 3 3 16 6 30 2 14 14 32 27 40 50 33 99 89 96 112 -1 13 6 41
16 63 33 70 35 75 26 75 -5 0 -12 -10 -16 -22z m-73 -573 c12 -4 41 -19 62
-34 39 -26 39 -26 11 -31 -15 -3 -35 -16 -44 -30 -14 -23 -14 -24 0 -12 13 10
19 10 28 -2 13 -16 -35 -30 -66 -19 -23 7 -83 74 -83 91 0 44 29 56 92 37z
m149 -16 c15 -8 18 -14 9 -24 -15 -18 -46 -8 -47 16 -2 21 9 24 38 8z m-17
-45 c20 -8 21 -34 2 -34 -17 0 -38 24 -29 33 8 8 8 8 27 1z m-214 -51 c0 -12
9 -27 21 -34 24 -12 12 -33 -14 -23 -20 7 -41 68 -32 92 8 21 25 -2 25 -35z
m182 20 c10 -9 18 -21 18 -27 0 -6 -5 -5 -12 2 -7 7 -20 12 -30 12 -10 0 -18
7 -18 15 0 20 19 19 42 -2z m-146 -40 c-7 -7 -26 7 -26 19 0 6 6 6 15 -2 9 -7
13 -15 11 -17z"/>
<path d="M323 1485 c0 -20 2 -23 13 -14 7 6 10 17 7 25 -8 23 -20 16 -20 -11z"/>
<path d="M2421 1485 c1 -19 18 -51 18 -35 0 8 -4 22 -9 30 -5 8 -9 11 -9 5z"/>
<path d="M1107 1448 c-6 -24 -52 -35 -73 -17 -7 6 -10 1 -10 -14 1 -27 -70
-36 -120 -16 -16 7 -32 12 -36 11 -5 -1 -8 3 -8 8 0 14 -27 12 -36 -2 -4 -7
-3 -10 1 -5 5 4 17 0 27 -10 13 -12 18 -13 18 -3 0 16 15 3 15 -13 1 -7 7 -11
13 -9 7 1 22 -2 32 -8 14 -7 20 -7 20 0 0 5 9 10 21 10 26 0 16 -16 -25 -41
-17 -10 -25 -19 -18 -19 8 0 10 -9 6 -27 -6 -25 -3 -23 25 15 17 23 36 42 42
42 5 0 7 5 3 12 -5 8 -2 9 10 5 9 -4 15 -3 11 2 -5 10 40 51 56 51 18 0 8 -16
-18 -32 -16 -10 -23 -18 -16 -18 19 0 73 60 73 81 0 26 -7 24 -13 -3z"/>
<path d="M1243 1413 c4 -3 10 -3 14 0 3 4 0 7 -7 7 -7 0 -10 -3 -7 -7z"/>
<path d="M205 1380 c3 -5 8 -10 11 -10 2 0 4 5 4 10 0 6 -5 10 -11 10 -5 0 -7
-4 -4 -10z"/>
<path d="M2405 1383 c-33 -7 -198 -75 -223 -91 -12 -8 -39 -20 -60 -28 -24 -9
-30 -13 -16 -14 12 0 43 12 70 26 74 40 204 90 251 98 38 5 46 3 79 -26 37
-32 37 -32 19 -5 -28 44 -59 54 -120 40z"/>
<path d="M653 1373 c7 -12 47 -28 91 -38 29 -6 29 -9 11 -60 -5 -14 -4 -16 3
-6 8 11 10 11 15 0 3 -8 6 0 6 17 1 16 6 35 11 40 8 8 -7 16 -47 26 -32 8 -67
19 -77 23 -13 6 -17 5 -13 -2z"/>
<path d="M1850 1370 c0 -5 4 -10 9 -10 6 0 13 5 16 10 3 6 -1 10 -9 10 -9 0
-16 -4 -16 -10z"/>
<path d="M546 1363 c-10 -10 -7 -25 4 -18 6 3 10 1 10 -4 0 -6 -14 -11 -31
-11 -27 0 -30 2 -19 15 18 21 3 19 -21 -3 -19 -19 -18 -19 35 -21 50 -1 54 0
49 19 -6 23 -17 33 -27 23z"/>
<path d="M2592 1330 c11 -22 24 -40 29 -40 12 0 -15 52 -34 69 -10 8 -9 -1 5
-29z"/>
<path d="M445 1320 c-3 -5 -1 -10 4 -10 6 0 11 5 11 10 0 6 -2 10 -4 10 -3 0
-8 -4 -11 -10z"/>
<path d="M2096 1317 c3 -10 9 -15 12 -12 3 3 0 11 -7 18 -10 9 -11 8 -5 -6z"/>
<path d="M210 1305 c-9 -10 -10 -30 -6 -63 4 -26 9 -68 13 -94 3 -29 13 -54
26 -65 20 -18 20 -18 3 14 -9 18 -16 41 -16 52 0 12 -5 41 -12 65 -9 35 -9 51
0 71 18 38 34 21 28 -29 -4 -26 -3 -34 2 -21 7 15 10 9 15 -29 4 -27 14 -54
24 -61 13 -10 14 -17 5 -44 -9 -25 -9 -32 1 -28 20 6 19 56 -2 101 -25 51 -26
64 -4 88 23 26 30 66 8 48 -8 -7 -15 -19 -15 -28 0 -9 -7 -6 -21 12 -24 30
-32 32 -49 11z"/>
<path d="M1911 1301 c13 -11 26 -17 29 -14 6 6 -30 33 -43 33 -5 0 1 -9 14
-19z"/>
<path d="M2322 1266 c-59 -50 -206 -114 -249 -110 -19 2 -16 -13 3 -20 9 -4
24 0 33 7 9 8 48 24 86 35 70 22 70 22 88 -1 66 -79 120 -127 145 -127 27 0
27 0 -3 16 -16 8 -57 43 -91 77 -60 63 -60 63 -11 107 28 25 57 48 65 51 9 3
11 8 6 12 -5 3 -38 -18 -72 -47z"/>
<path d="M1192 1179 c-2 -130 -1 -136 21 -157 34 -32 45 -27 14 6 -25 26 -26
32 -30 157 -3 130 -3 130 -5 -6z"/>
<path d="M2643 1303 c4 -3 10 -3 14 0 3 4 0 7 -7 7 -7 0 -10 -3 -7 -7z"/>
<path d="M545 1285 c-22 -8 -41 -15 -42 -15 -2 0 -3 -5 -3 -11 0 -5 10 -3 22
5 12 9 33 16 45 16 13 0 23 5 23 10 0 6 -1 10 -2 10 -2 -1 -21 -7 -43 -15z"/>
<path d="M465 1270 c-3 -5 -1 -10 4 -10 6 0 11 5 11 10 0 6 -2 10 -4 10 -3 0
-8 -4 -11 -10z"/>
<path d="M436 1205 c-25 -20 -53 -49 -61 -65 -17 -33 -20 -90 -4 -90 6 0 8 8
4 19 -10 31 19 84 70 129 58 51 54 54 -9 7z"/>
<path d="M3067 1205 c7 -48 15 -59 53 -75 30 -12 78 -76 66 -87 -3 -4 -6 -1
-6 6 0 16 -47 4 -83 -20 -15 -11 -31 -18 -36 -15 -5 3 -11 -4 -14 -15 -12 -44
61 -82 117 -60 20 7 32 8 34 1 2 -5 8 -10 14 -10 7 0 7 5 1 13 -16 22 -33 67
-24 67 15 0 61 -98 62 -131 0 -28 2 -31 9 -14 7 16 9 14 10 -15 0 -19 7 -46
16 -60 11 -19 14 -20 10 -5 -3 11 -10 42 -16 70 -6 27 -24 74 -40 105 -16 30
-31 66 -34 80 -7 32 -62 99 -91 110 -14 5 -29 25 -39 52 -15 43 -15 43 -9 3z
m110 -213 c1 -23 -1 -42 -5 -43 -4 0 -17 -2 -30 -5 -24 -4 -82 20 -82 36 0 20
77 61 105 56 5 -1 10 -21 12 -44z"/>
<path d="M1965 1210 c3 -5 11 -10 16 -10 6 0 7 5 4 10 -3 6 -11 10 -16 10 -6
0 -7 -4 -4 -10z"/>
<path d="M1400 1186 c0 -9 9 -34 19 -55 20 -38 20 -38 -10 -100 -35 -74 -33
-107 13 -176 30 -45 30 -45 -20 -96 -50 -51 -50 -51 -62 -14 -15 46 -25 39
-12 -8 7 -26 6 -42 -4 -62 -18 -36 -18 -43 2 -19 11 13 17 15 20 7 3 -7 10
-13 15 -13 5 0 4 9 -3 20 -11 17 -8 23 22 49 25 20 38 25 43 17 6 -7 7 -5 4 6
-7 20 15 39 73 63 82 34 90 62 26 89 -41 17 -58 45 -54 87 3 30 3 30 54 -16
64 -55 89 -65 167 -65 51 0 73 -6 124 -34 33 -18 59 -28 57 -22 -10 25 -120
66 -178 66 -115 0 -193 62 -251 198 -42 97 -45 103 -45 78z m52 -212 c-15 -54
-16 -106 -3 -84 6 8 8 17 5 21 -2 4 0 10 6 14 10 6 11 5 15 -30 1 -12 7 -31
14 -43 7 -12 9 -27 6 -32 -10 -16 -35 -11 -42 8 -4 9 -17 32 -30 51 -29 42
-29 89 -2 144 21 41 22 41 32 19 8 -17 7 -36 -1 -68z m92 -104 c12 -11 0 -40
-16 -40 -7 0 -21 14 -31 31 -17 31 -17 31 10 24 16 -3 32 -10 37 -15z"/>
<path d="M2005 1190 c3 -5 8 -10 11 -10 2 0 4 5 4 10 0 6 -5 10 -11 10 -5 0
-7 -4 -4 -10z"/>
<path d="M1761 1153 c24 -44 39 -62 39 -47 0 10 -48 84 -55 84 -3 0 5 -17 16
-37z"/>
<path d="M1233 1125 c0 -22 2 -30 4 -17 2 12 2 30 0 40 -3 9 -5 -1 -4 -23z"/>
<path d="M761 1080 c1 -38 6 -67 10 -64 13 8 11 134 -1 134 -7 0 -10 -27 -9
-70z"/>
<path d="M2970 1112 c6 -13 14 -21 18 -18 3 4 -2 14 -12 24 -18 16 -18 16 -6
-6z"/>
<path d="M1718 1098 c5 -5 16 -8 23 -6 8 3 3 7 -10 11 -17 4 -21 3 -13 -5z"/>
<path d="M3088 1069 c-21 -11 -38 -24 -38 -30 0 -6 16 -1 35 11 24 15 42 19
57 14 20 -6 21 -5 9 10 -17 20 -17 20 -63 -5z"/>
<path d="M1251 1064 c0 -11 3 -14 6 -6 3 7 2 16 -1 19 -3 4 -6 -2 -5 -13z"/>
<path d="M1281 1035 c-1 -17 -3 -18 -12 -5 -9 12 -10 11 -4 -5 4 -11 11 -34
16 -52 6 -18 15 -35 21 -39 7 -5 8 -3 2 7 -5 8 -11 37 -15 64 -3 28 -7 41 -8
30z"/>
<path d="M2842 1029 c-1 -15 -4 -42 -7 -60 -5 -31 -5 -32 5 -9 6 13 9 40 7 60
-3 25 -4 28 -5 9z"/>
<path d="M397 962 c-20 -22 -70 -129 -65 -141 2 -4 21 29 43 75 22 46 40 84
39 84 0 0 -8 -8 -17 -18z"/>
<path d="M489 942 c5 -34 6 -35 9 -8 2 16 0 32 -5 37 -5 5 -7 -7 -4 -29z"/>
<path d="M315 903 c-3 -27 -9 -59 -11 -73 -5 -22 -4 -23 7 -6 11 18 25 126 16
126 -3 0 -8 -21 -12 -47z"/>
<path d="M2820 920 c0 -7 3 -10 7 -7 3 4 3 10 0 14 -4 3 -7 0 -7 -7z"/>
<path d="M1062 850 c0 -14 2 -19 5 -12 2 6 2 18 0 25 -3 6 -5 1 -5 -13z"/>
<path d="M1068 773 c5 -83 9 -90 11 -20 0 37 -2 67 -7 67 -4 0 -6 -21 -4 -47z"/>
<path d="M624 769 c-3 -6 -40 -33 -81 -60 -42 -27 -70 -49 -64 -49 22 0 185
119 164 120 -6 0 -15 -5 -19 -11z"/>
<path d="M1096 710 c3 -25 17 -74 30 -109 13 -35 24 -77 25 -95 1 -31 1 -31 9
-3 9 30 1 63 -31 133 -11 22 -19 51 -19 65 0 13 -5 31 -11 39 -7 11 -8 3 -3
-30z"/>
<path d="M1724 725 c3 -16 8 -38 11 -47 5 -13 0 -20 -16 -27 -13 -5 -35 -21
-49 -36 -22 -24 -18 -23 26 8 51 37 51 37 73 13 24 -25 17 -60 -14 -78 -18
-11 -28 -74 -16 -96 17 -31 65 -46 111 -34 22 5 57 8 77 6 38 -4 38 -4 6 9
-29 11 -31 13 -17 32 14 18 16 18 24 4 10 -18 100 -94 100 -85 0 8 -138 144
-222 218 -45 40 -72 74 -83 102 -12 33 -14 35 -11 11z m147 -226 c-11 -12 -19
-25 -16 -27 3 -3 14 7 26 22 27 35 49 20 24 -17 -34 -53 -137 -50 -158 6 -5
13 -1 17 21 17 39 0 102 19 102 31 0 6 -6 6 -17 1 -10 -6 -37 -13 -60 -17 -51
-8 -57 7 -18 44 14 13 25 30 25 39 0 11 16 1 46 -30 47 -46 47 -46 25 -69z"/>
<path d="M2928 718 c-6 -17 1 -38 13 -38 4 0 6 6 3 14 -7 18 40 30 67 16 16
-9 18 -14 8 -26 -9 -10 -9 -18 -2 -25 8 -8 13 -1 18 21 5 23 3 35 -6 41 -21
13 -96 11 -101 -3z"/>
<path d="M2017 687 c-5 -14 8 -37 52 -90 60 -72 60 -72 39 -107 -59 -97 -60
-101 -34 -134 12 -16 34 -33 47 -37 13 -4 50 -19 82 -33 31 -14 57 -22 57 -18
0 5 -27 21 -60 35 -68 31 -70 34 -34 76 14 17 23 31 19 31 -10 0 -41 -33 -54
-58 -14 -27 -25 -22 -47 20 -16 30 -16 30 13 24 32 -7 65 19 78 62 9 32 0 27
-24 -13 -15 -25 -27 -35 -46 -35 -31 0 -31 8 0 50 14 19 25 40 25 47 0 26 47
2 60 -30 7 -19 9 -19 9 -4 1 16 7 14 40 -12 41 -33 149 -86 157 -78 3 2 -24
18 -59 35 -71 34 -127 81 -127 106 0 9 -4 16 -10 16 -5 0 -10 7 -10 15 0 8 -5
15 -10 15 -6 0 -4 -13 5 -30 22 -43 19 -45 -24 -13 -50 37 -129 130 -133 157
-3 19 -4 20 -11 3z"/>
<path d="M2216 659 c-14 -16 -29 -36 -33 -43 -5 -7 -17 -18 -28 -24 -18 -9
-16 -11 13 -10 25 1 32 5 32 21 0 16 3 17 15 7 10 -9 15 -9 15 -1 0 6 11 11
25 11 14 0 25 5 25 11 0 7 -10 9 -24 5 -29 -7 -42 7 -22 23 17 15 52 -3 59
-30 4 -15 103 -76 116 -72 3 1 12 12 20 25 13 22 13 22 -3 3 -16 -19 -17 -19
-61 5 -25 14 -59 42 -76 62 -36 46 -40 46 -73 7z"/>
<path d="M971 664 c0 -11 3 -14 6 -6 3 7 2 16 -1 19 -3 4 -6 -2 -5 -13z"/>
<path d="M1073 639 c0 -25 -7 -60 -16 -78 -9 -18 -19 -49 -22 -70 -5 -30 -2
-27 19 23 33 77 38 104 27 141 -8 28 -8 26 -8 -16z"/>
<path d="M620 640 c0 -7 3 -10 7 -7 3 4 3 10 0 14 -4 3 -7 0 -7 -7z"/>
<path d="M474 612 c-6 -4 -15 -18 -19 -30 -6 -21 -4 -23 13 -18 13 4 22 1 25
-9 7 -17 30 -11 68 19 15 12 35 26 45 33 18 11 17 11 -4 8 -12 -2 -26 -6 -31
-10 -5 -3 -13 -1 -16 5 -4 7 -19 4 -42 -10 -36 -21 -36 -21 -30 0 3 11 4 20 4
20 -1 0 -7 -4 -13 -8z m69 -33 c-11 -12 -26 -18 -32 -14 -17 10 6 35 32 35 21
0 21 0 0 -21z"/>
<path d="M416 574 c-24 -23 -21 -64 3 -59 27 5 64 25 58 32 -3 2 -14 0 -25 -6
-28 -15 -32 -14 -32 5 0 9 8 23 18 30 9 7 12 14 5 14 -6 0 -19 -7 -27 -16z"/>
<path d="M861 562 c-1 -27 -7 -36 -33 -48 -33 -15 -33 -15 -2 -10 38 6 44 -7
44 -101 0 -35 4 -63 8 -63 10 0 7 111 -6 195 -6 41 -10 49 -11 27z"/>
<path d="M2985 580 c-19 -8 -19 -9 3 -9 12 -1 22 4 22 9 0 6 -1 10 -2 9 -2 0
-12 -4 -23 -9z"/>
<path d="M2243 553 c4 -3 10 -3 14 0 3 4 0 7 -7 7 -7 0 -10 -3 -7 -7z"/>
<path d="M3204 535 c-18 -13 -18 -14 4 -8 12 3 25 9 28 14 8 14 -10 11 -32 -6z"/>
<path d="M3204 471 c11 -11 23 -21 28 -21 14 0 -1 19 -25 31 -22 12 -22 12 -3
-10z"/>
<path d="M1010 435 c-6 -8 -10 -19 -8 -26 2 -6 9 0 16 15 13 29 10 33 -8 11z"/>
<path d="M2195 370 c-16 -16 -26 -32 -24 -35 3 -3 18 9 34 25 16 16 26 32 24
35 -3 3 -18 -9 -34 -25z"/>
<path d="M2224 338 c-19 -21 -19 -21 9 -3 28 18 33 25 19 25 -5 0 -17 -10 -28
-22z"/>
<path d="M2273 273 c4 -3 10 -3 14 0 3 4 0 7 -7 7 -7 0 -10 -3 -7 -7z"/>
<path d="M2333 273 c4 -3 10 -3 14 0 3 4 0 7 -7 7 -7 0 -10 -3 -7 -7z"/>
</g>
</svg>
