<?xml version="1.0" standalone="no"?>
<!DOCTYPE svg PUBLIC "-//W3C//DTD SVG 20010904//EN"
 "http://www.w3.org/TR/2001/REC-SVG-20010904/DTD/svg10.dtd">
<svg version="1.0" xmlns="http://www.w3.org/2000/svg"
 width="256.000000pt" height="256.000000pt" viewBox="0 0 256.000000 256.000000"
 preserveAspectRatio="xMidYMid meet">
<metadata>
Created by potrace 1.16, written by Peter Selinger 2001-2019
</metadata>
<g transform="translate(0.000000,256.000000) scale(0.100000,-0.100000)"
fill="#000000" stroke="none">
<path d="M2180 2550 c0 -7 3 -10 7 -7 3 4 3 10 0 14 -4 3 -7 0 -7 -7z"/>
<path d="M2320 2530 c0 -7 3 -10 7 -7 3 4 3 10 0 14 -4 3 -7 0 -7 -7z"/>
<path d="M1200 2516 c-46 -18 -110 -56 -110 -66 0 -5 26 7 57 26 31 19 64 34
72 34 9 0 23 5 31 10 23 15 -6 12 -50 -4z"/>
<path d="M2196 2483 c8 -27 19 -68 25 -93 12 -47 29 -76 29 -49 0 9 -7 35 -15
60 -7 24 -19 63 -25 87 -6 23 -15 42 -20 42 -5 0 -2 -21 6 -47z"/>
<path d="M1450 2506 c0 -3 14 -12 30 -21 17 -9 30 -13 30 -11 0 3 -13 12 -30
21 -16 9 -30 13 -30 11z"/>
<path d="M2328 2452 c-21 -47 -129 -248 -174 -326 -36 -61 -41 -88 -7 -39 37
52 204 377 201 390 -2 7 -11 -4 -20 -25z"/>
<path d="M2414 2473 c-6 -10 -30 -54 -54 -98 -71 -132 -191 -339 -206 -356 -8
-8 -14 -20 -14 -25 0 -15 48 47 75 96 38 71 48 81 41 42 -4 -23 -2 -31 5 -26
7 4 9 21 6 40 -4 26 -2 36 11 43 22 11 78 2 93 -15 6 -8 18 -14 27 -14 35 0
-41 42 -78 44 -22 0 -40 3 -40 6 1 17 68 109 75 103 4 -5 5 -3 1 4 -6 11 39
108 65 139 6 7 9 18 7 24 -2 6 -8 2 -14 -7z"/>
<path d="M1243 2468 c-37 -18 -29 -38 15 -37 29 0 33 2 17 8 -11 5 -24 6 -30
3 -7 -3 -7 -1 0 6 9 10 73 17 118 14 9 -1 17 -9 17 -17 0 -8 6 -15 13 -15 7 0
26 -29 42 -65 16 -36 35 -65 42 -65 21 0 15 46 -11 77 -13 15 -24 33 -25 38
-3 27 -13 44 -29 50 -33 13 -147 15 -169 3z m237 -145 c0 -22 -8 -14 -19 20
-10 29 -9 30 4 13 8 -11 15 -26 15 -33z"/>
<path d="M1300 2430 c0 -5 5 -10 11 -10 5 0 7 5 4 10 -3 6 -8 10 -11 10 -2 0
-4 -4 -4 -10z"/>
<path d="M879 2388 c-13 -18 -27 -36 -32 -39 -5 -4 -1 -12 9 -18 18 -11 18
-12 1 -25 -10 -8 -14 -17 -9 -20 6 -3 12 1 16 9 13 35 22 10 20 -57 -9 -281
-25 -371 -71 -401 -15 -9 -17 -39 -4 -53 16 -16 17 -77 2 -82 -10 -3 -12 4 -9
32 5 43 1 46 -13 9 -14 -38 6 -79 28 -57 26 26 30 6 26 -143 -2 -81 -1 -144 3
-140 6 6 25 289 22 337 -3 52 0 109 11 235 21 233 23 341 6 355 -13 11 -13 17
6 47 28 45 18 54 -12 11z m-22 -603 c1 -78 -11 -100 -23 -40 -3 19 -10 37 -14
40 -10 6 -1 45 11 45 5 0 9 7 9 15 0 8 3 15 8 15 4 0 8 -34 9 -75z"/>
<path d="M957 2209 c-3 -106 -10 -196 -16 -202 -6 -6 -6 -19 0 -35 12 -31 2
-238 -13 -268 -7 -16 -5 -32 9 -65 19 -43 19 -43 19 -6 0 24 -5 37 -13 37 -17
0 -17 15 1 29 17 14 23 276 6 286 -8 5 -8 11 0 20 12 15 31 376 20 388 -4 4
-10 -79 -13 -184z"/>
<path d="M1120 2390 c-13 -8 -12 -10 3 -10 9 0 17 5 17 10 0 12 -1 12 -20 0z"/>
<path d="M1297 2393 c-10 -9 -8 -45 2 -61 5 -9 8 1 8 27 0 44 0 45 -10 34z"/>
<path d="M2538 2361 c-3 -18 0 -32 8 -35 7 -3 11 6 9 25 -3 41 -12 46 -17 10z"/>
<path d="M1180 2370 c0 -7 3 -10 7 -7 3 4 3 10 0 14 -4 3 -7 0 -7 -7z"/>
<path d="M2060 2379 c0 -16 50 -243 55 -247 9 -9 6 9 -19 126 -19 91 -36 148
-36 121z"/>
<path d="M2384 2368 c-4 -7 -3 -8 4 -4 7 4 12 9 12 12 0 8 -9 4 -16 -8z"/>
<path d="M2513 2363 c4 -3 10 -3 14 0 3 4 0 7 -7 7 -7 0 -10 -3 -7 -7z"/>
<path d="M2406 2343 c-6 -14 -5 -15 5 -6 7 7 10 15 7 18 -3 3 -9 -2 -12 -12z"/>
<path d="M1183 2303 c4 -3 10 -3 14 0 3 4 0 7 -7 7 -7 0 -10 -3 -7 -7z"/>
<path d="M2543 2293 c4 -3 10 -3 14 0 3 4 0 7 -7 7 -7 0 -10 -3 -7 -7z"/>
<path d="M1227 2275 c-35 -12 -58 -25 -45 -25 3 0 25 7 48 15 77 27 240 9 240
-27 0 -5 5 -6 10 -3 6 3 10 -4 10 -17 0 -19 -2 -20 -11 -8 -8 11 -9 9 -4 -10
4 -14 11 -29 16 -34 5 -6 9 -20 9 -33 0 -20 -5 -23 -37 -24 -33 0 -35 -1 -15
-9 12 -5 29 -7 37 -4 10 4 15 0 15 -12 0 -9 3 -15 6 -12 3 4 2 47 -1 96 -7 89
-7 89 -60 106 -62 19 -166 20 -218 1z"/>
<path d="M643 2273 c4 -3 10 -3 14 0 3 4 0 7 -7 7 -7 0 -10 -3 -7 -7z"/>
<path d="M536 2254 c-5 -13 -3 -14 6 -6 7 6 29 12 48 15 34 4 34 4 -6 5 -31 2
-44 -2 -48 -14z"/>
<path d="M808 2263 c7 -3 16 -2 19 1 4 3 -2 6 -13 5 -11 0 -14 -3 -6 -6z"/>
<path d="M1950 2247 c0 -15 10 -46 23 -68 22 -39 22 -39 -8 -64 -16 -13 -25
-24 -18 -25 6 0 14 6 16 13 3 6 8 -3 12 -21 4 -18 12 -35 17 -38 5 -3 6 6 2
23 -7 30 -7 30 -5 53 1 13 2 13 11 0 21 -33 10 17 -14 63 -14 25 -22 48 -19
50 3 3 0 14 -6 24 -9 16 -10 15 -11 -10z"/>
<path d="M2541 2261 c-10 -6 -10 -10 -1 -16 13 -8 24 -1 19 14 -3 6 -10 7 -18
2z"/>
<path d="M301 2140 c-36 -196 -59 -333 -81 -485 -21 -139 -51 -334 -70 -450
-5 -33 -14 -100 -20 -149 -12 -99 -19 -116 -55 -144 -14 -11 -25 -25 -25 -31
0 -6 -4 -11 -9 -11 -17 0 -41 -31 -41 -53 0 -20 2 -19 19 7 26 40 35 42 119
38 68 -3 73 -5 70 -25 -2 -17 -12 -23 -43 -27 -54 -8 -80 -35 -83 -88 -2 -33
0 -41 12 -36 10 4 13 15 10 37 -5 33 9 67 22 54 4 -4 7 -20 6 -37 0 -16 4 -30
10 -30 6 0 9 16 6 39 -3 39 -3 39 46 50 27 6 51 9 54 7 2 -3 9 -1 16 5 6 5 23
19 39 30 25 19 26 22 12 42 -8 12 -15 31 -15 44 0 12 -4 25 -10 28 -16 10 -12
45 6 52 10 4 12 8 5 13 -8 4 -9 27 -2 76 5 38 12 107 15 154 4 64 -1 45 -19
-80 -23 -163 -24 -165 -57 -193 -34 -29 -37 -50 -12 -78 21 -23 3 -28 -79 -22
-73 6 -80 12 -42 40 22 16 27 31 40 123 41 297 91 625 136 889 27 162 48 304
47 315 -2 12 -14 -35 -27 -104z m-23 -1217 c1 -26 -15 -29 -43 -9 -18 13 -18
15 -1 41 17 25 18 26 30 8 7 -10 13 -28 14 -40z m-28 -68 c-7 -9 -15 -13 -17
-11 -7 7 7 26 19 26 6 0 6 -6 -2 -15z"/>
<path d="M1403 2253 c4 -3 10 -3 14 0 3 4 0 7 -7 7 -7 0 -10 -3 -7 -7z"/>
<path d="M361 2234 c0 -11 3 -14 6 -6 3 7 2 16 -1 19 -3 4 -6 -2 -5 -13z"/>
<path d="M834 2242 c4 -6 -2 -20 -14 -32 -11 -11 -20 -26 -20 -32 0 -7 11 0
25 16 28 33 30 42 13 52 -7 4 -8 3 -4 -4z"/>
<path d="M1213 2243 c4 -3 10 -3 14 0 3 4 0 7 -7 7 -7 0 -10 -3 -7 -7z"/>
<path d="M490 2230 c0 -7 3 -10 7 -7 3 4 3 10 0 14 -4 3 -7 0 -7 -7z"/>
<path d="M1110 2230 c0 -7 3 -10 7 -7 3 4 3 10 0 14 -4 3 -7 0 -7 -7z"/>
<path d="M1243 2233 c4 -3 10 -3 14 0 3 4 0 7 -7 7 -7 0 -10 -3 -7 -7z"/>
<path d="M1288 2233 c12 -2 30 -2 40 0 9 3 -1 5 -23 4 -22 0 -30 -2 -17 -4z"/>
<path d="M1358 2233 c7 -3 16 -2 19 1 4 3 -2 6 -13 5 -11 0 -14 -3 -6 -6z"/>
<path d="M1423 2233 c4 -3 10 -3 14 0 3 4 0 7 -7 7 -7 0 -10 -3 -7 -7z"/>
<path d="M1450 2230 c0 -7 3 -10 7 -7 3 4 3 10 0 14 -4 3 -7 0 -7 -7z"/>
<path d="M1631 2224 c0 -11 3 -14 6 -6 3 7 2 16 -1 19 -3 4 -6 -2 -5 -13z"/>
<path d="M540 2223 c0 -5 5 -14 11 -20 13 -13 1 -130 -16 -146 -16 -16 -29
-71 -15 -62 5 3 10 14 10 24 0 10 6 24 14 30 23 19 32 147 12 166 -9 9 -16 13
-16 8z"/>
<path d="M2514 2218 c-4 -7 -3 -8 4 -4 7 4 12 9 12 12 0 8 -9 4 -16 -8z"/>
<path d="M1171 2198 c-1 -16 4 -28 9 -28 12 0 12 8 0 35 -8 18 -9 17 -9 -7z"/>
<path d="M337 2100 c-10 -63 -22 -137 -27 -163 -10 -50 -13 -93 -6 -86 8 8 57
322 54 343 -2 12 -12 -31 -21 -94z"/>
<path d="M633 2195 c-3 -9 -3 -19 1 -22 3 -4 6 1 6 10 0 8 8 18 18 20 16 4 16
5 -1 6 -10 0 -20 -6 -24 -14z"/>
<path d="M724 2198 c-4 -7 -3 -8 4 -4 12 7 16 16 8 16 -3 0 -8 -5 -12 -12z"/>
<path d="M2064 2183 c3 -10 10 -46 17 -81 6 -34 16 -65 22 -69 6 -4 8 0 5 8
-3 8 -12 47 -19 87 -7 39 -17 72 -22 72 -5 0 -6 -8 -3 -17z"/>
<path d="M432 2165 c0 -16 2 -22 5 -12 2 9 2 23 0 30 -3 6 -5 -1 -5 -18z"/>
<path d="M477 2140 c-4 -30 -15 -111 -24 -180 -22 -175 -29 -199 -59 -210 -13
-5 -24 -17 -24 -27 1 -17 1 -17 11 0 12 21 39 23 39 2 0 -9 -12 -102 -26 -208
-14 -105 -29 -217 -33 -247 -4 -30 -10 -60 -14 -67 -4 -6 -4 -14 1 -17 8 -5
-2 -120 -14 -159 -4 -13 -2 -17 5 -13 6 4 11 16 11 27 0 26 30 119 44 139 10
13 9 13 -8 0 -18 -14 -19 -13 -12 35 4 28 11 86 17 130 6 44 14 109 19 145 5
36 12 106 15 155 18 265 66 266 69 2 1 -107 0 -109 -27 -129 -24 -17 -27 -26
-27 -73 0 -30 -4 -57 -10 -60 -5 -3 -10 -15 -10 -25 0 -16 6 -18 46 -15 61 5
69 15 11 15 -45 0 -45 0 -30 30 8 17 13 47 11 68 -2 30 1 39 19 47 24 10 28
26 38 158 6 63 4 82 -10 103 -9 15 -14 35 -11 48 4 15 -1 25 -14 34 -15 9 -20
23 -20 55 0 32 3 39 11 27 8 -12 9 -9 5 12 -4 15 -2 47 4 70 6 24 10 75 8 113
-3 70 -3 70 -11 15z"/>
<path d="M660 2180 c0 -7 3 -10 7 -7 3 4 3 10 0 14 -4 3 -7 0 -7 -7z"/>
<path d="M1641 2180 c0 -8 4 -22 9 -30 12 -18 12 -2 0 25 -6 13 -9 15 -9 5z"/>
<path d="M2471 2156 c-12 -19 -27 -36 -33 -38 -5 -2 -9 -12 -7 -21 3 -13 13
-4 37 33 19 29 32 54 29 56 -3 3 -14 -11 -26 -30z"/>
<path d="M1290 2149 c-26 -23 -30 -29 -14 -24 15 4 24 0 28 -10 3 -9 11 -13
17 -9 8 4 7 9 -2 15 -12 8 -12 10 -1 18 8 4 12 15 10 24 -2 13 -10 10 -38 -14z"/>
<path d="M1350 2170 c0 -7 3 -10 7 -7 3 4 3 10 0 14 -4 3 -7 0 -7 -7z"/>
<path d="M1900 2159 c-89 -32 -94 -34 -85 -20 6 10 3 11 -11 2 -43 -25 -83
-75 -71 -88 3 -2 10 4 16 15 9 18 16 19 43 12 33 -10 33 -10 10 8 -24 18 -14
46 13 36 7 -3 33 4 58 15 25 12 53 21 61 21 8 0 18 5 21 10 8 13 10 13 -55
-11z"/>
<path d="M1121 2163 c-1 -6 -4 -20 -7 -30 -5 -17 -5 -17 6 0 6 10 9 23 6 30
-3 9 -5 9 -5 0z"/>
<path d="M762 2125 c0 -16 2 -22 5 -12 2 9 2 23 0 30 -3 6 -5 -1 -5 -18z"/>
<path d="M1360 2134 c0 -14 3 -14 15 -4 8 7 15 14 15 16 0 2 -7 4 -15 4 -8 0
-15 -7 -15 -16z"/>
<path d="M2390 2143 c0 -4 5 -15 10 -23 8 -13 10 -13 10 2 0 9 -4 20 -10 23
-5 3 -10 3 -10 -2z"/>
<path d="M2420 2140 c0 -5 5 -10 10 -10 6 0 10 5 10 10 0 6 -4 10 -10 10 -5 0
-10 -4 -10 -10z"/>
<path d="M2495 2129 c-4 -6 -5 -12 -2 -15 2 -3 7 2 10 11 7 17 1 20 -8 4z"/>
<path d="M414 2063 c-6 -39 -7 -70 -3 -67 9 5 23 108 17 126 -3 7 -9 -20 -14
-59z"/>
<path d="M2286 2117 c3 -10 9 -15 12 -12 3 3 0 11 -7 18 -10 9 -11 8 -5 -6z"/>
<path d="M592 2100 c0 -14 2 -19 5 -12 2 6 2 18 0 25 -3 6 -5 1 -5 -13z"/>
<path d="M843 2113 c4 -3 10 -3 14 0 3 4 0 7 -7 7 -7 0 -10 -3 -7 -7z"/>
<path d="M1900 2110 c-8 -5 -10 -10 -5 -10 6 0 17 5 25 10 8 5 11 10 5 10 -5
0 -17 -5 -25 -10z"/>
<path d="M1650 2100 c0 -7 3 -10 7 -7 3 4 3 10 0 14 -4 3 -7 0 -7 -7z"/>
<path d="M2316 2103 c-12 -13 -5 -24 12 -19 10 4 28 -4 45 -18 27 -23 27 -23
1 -62 -26 -39 -26 -39 5 -10 17 17 31 36 31 43 0 7 7 13 15 13 8 0 15 4 15 10
0 5 -7 7 -16 3 -9 -3 -19 -2 -23 3 -10 14 -78 43 -85 37z"/>
<path d="M700 2070 c0 -7 3 -10 7 -7 3 4 3 10 0 14 -4 3 -7 0 -7 -7z"/>
<path d="M1690 2070 c0 -21 29 -80 39 -80 39 0 64 -76 40 -122 -9 -16 -7 -23
11 -35 24 -17 58 -87 70 -143 8 -35 8 -35 9 -5 0 17 -8 53 -18 80 -31 81 -30
108 4 139 30 28 30 28 -6 7 -33 -19 -37 -19 -43 -5 -8 22 -8 24 6 24 19 0 47
31 41 46 -3 8 3 24 12 34 10 11 15 23 11 27 -9 10 -25 -15 -33 -50 -3 -16 -11
-31 -18 -33 -16 -6 -105 76 -105 97 0 10 -4 21 -10 24 -5 3 -10 1 -10 -5z
m107 -227 c-4 -3 -7 0 -7 7 0 7 3 10 7 7 3 -4 3 -10 0 -14z"/>
<path d="M1840 2070 c0 -5 5 -10 10 -10 6 0 10 5 10 10 0 6 -4 10 -10 10 -5 0
-10 -4 -10 -10z"/>
<path d="M610 2035 c0 -14 2 -25 4 -25 2 0 6 11 8 25 3 14 1 25 -3 25 -5 0 -9
-11 -9 -25z"/>
<path d="M722 2040 c0 -14 2 -19 5 -12 2 6 2 18 0 25 -3 6 -5 1 -5 -13z"/>
<path d="M1766 2048 c4 -7 16 -19 25 -26 11 -7 16 -20 13 -30 -5 -14 -4 -14 4
-3 8 11 5 22 -11 42 -22 28 -45 40 -31 17z"/>
<path d="M576 1989 c-4 -33 -5 -63 -3 -66 3 -2 8 23 12 57 4 34 5 63 2 66 -2
3 -7 -23 -11 -57z"/>
<path d="M1228 2009 c-32 -16 -58 -34 -58 -40 0 -6 15 -2 33 9 47 30 127 30
127 1 0 -10 -28 -8 -47 4 -20 12 -84 -27 -142 -87 -30 -31 -53 -58 -50 -60 3
-3 27 17 53 44 53 55 113 96 124 85 4 -3 -4 -16 -18 -27 -25 -20 -25 -20 10 0
66 39 160 5 216 -77 30 -44 31 -35 3 14 -12 19 -30 40 -40 46 -20 10 -54 67
-46 76 24 23 147 -51 147 -88 0 -9 -7 -5 -18 8 -16 21 -93 65 -100 58 -2 -2
18 -23 44 -47 77 -69 104 -101 110 -128 11 -50 16 -60 25 -60 6 0 8 3 6 8 -2
4 -14 39 -26 77 -32 105 -59 145 -121 183 -74 44 -149 44 -232 1z m200 6 c4
-3 -22 -5 -57 -3 -34 2 -65 6 -67 10 -6 9 115 2 124 -7z m-53 -35 c3 -5 1 -10
-4 -10 -6 0 -11 5 -11 10 0 6 2 10 4 10 3 0 8 -4 11 -10z m130 -60 c3 -5 4
-10 1 -10 -3 0 -8 5 -11 10 -3 6 -4 10 -1 10 3 0 8 -4 11 -10z"/>
<path d="M685 2019 c-4 -6 -5 -12 -2 -15 2 -3 7 2 10 11 7 17 1 20 -8 4z"/>
<path d="M1990 2020 c-25 -4 -51 -5 -57 -3 -7 3 -27 -7 -44 -21 -17 -14 -26
-26 -20 -26 5 0 17 7 26 16 10 10 39 18 78 20 34 3 66 9 71 14 11 11 12 11
-54 0z"/>
<path d="M2061 1987 c-11 -14 -5 -27 12 -27 5 0 6 7 3 16 -5 12 -1 14 17 9 17
-5 19 -4 7 4 -20 14 -25 14 -39 -2z"/>
<path d="M480 1979 c0 -5 5 -7 10 -4 6 3 10 8 10 11 0 2 -4 4 -10 4 -5 0 -10
-5 -10 -11z"/>
<path d="M633 1983 c4 -3 10 -3 14 0 3 4 0 7 -7 7 -7 0 -10 -3 -7 -7z"/>
<path d="M660 1970 c0 -7 3 -10 7 -7 3 4 3 10 0 14 -4 3 -7 0 -7 -7z"/>
<path d="M2134 1971 c4 -6 16 -11 26 -11 40 0 70 -67 66 -148 -2 -40 1 -75 5
-78 5 -3 6 1 4 9 -3 7 1 30 10 50 10 25 12 37 4 37 -6 0 -8 7 -5 16 3 9 -4 37
-16 62 -11 26 -21 50 -20 53 0 3 -4 6 -11 7 -7 1 -25 4 -41 8 -21 5 -27 4 -22
-5z"/>
<path d="M401 1954 c0 -11 3 -14 6 -6 3 7 2 16 -1 19 -3 4 -6 -2 -5 -13z"/>
<path d="M502 1950 c-1 -14 -9 -36 -18 -48 -8 -12 -11 -22 -6 -22 19 0 33 30
29 62 -3 25 -4 27 -5 8z"/>
<path d="M622 1950 c-8 -13 -8 -20 -2 -20 6 0 13 7 17 15 9 24 -1 27 -15 5z"/>
<path d="M695 1960 c-4 -6 -2 -17 4 -23 15 -15 25 -2 13 19 -7 12 -11 13 -17
4z"/>
<path d="M2013 1963 c4 -3 10 -3 14 0 3 4 0 7 -7 7 -7 0 -10 -3 -7 -7z"/>
<path d="M1576 1925 c4 -16 11 -37 15 -45 6 -10 7 -4 3 15 -4 17 -11 37 -15
45 -6 10 -7 4 -3 -15z"/>
<path d="M1938 1912 c-58 -27 -58 -27 -44 -54 10 -19 11 -29 3 -37 -8 -8 -8
-11 2 -11 6 0 19 -17 28 -37 8 -21 24 -48 34 -62 21 -26 25 -66 9 -76 -7 -4 1
-27 20 -59 16 -30 30 -61 30 -70 0 -9 5 -16 11 -16 12 0 3 58 -13 76 -5 7 -8
16 -6 20 4 18 -23 119 -37 134 -27 30 -46 110 -27 111 10 0 5 5 -10 11 -36 13
-37 45 -2 58 34 13 34 13 34 -13 0 -14 14 -37 35 -56 28 -25 35 -28 35 -14 0
10 -10 23 -22 28 -32 15 -46 64 -22 82 27 20 5 14 -58 -15z m66 -308 c3 -8 2
-12 -4 -9 -6 3 -10 10 -10 16 0 14 7 11 14 -7z"/>
<path d="M1071 1900 c-1 -19 -4 -59 -7 -87 -5 -34 -3 -53 4 -53 12 0 20 103
11 145 -7 30 -7 30 -8 -5z"/>
<path d="M3 1875 c0 -8 4 -15 9 -15 10 0 10 17 0 24 -5 3 -9 -1 -9 -9z"/>
<path d="M50 1802 c43 -75 71 -165 80 -252 7 -75 7 -75 8 -15 2 94 -43 234
-97 295 -15 18 -13 10 9 -28z"/>
<path d="M523 1843 c9 -2 23 -2 30 0 6 3 -1 5 -18 5 -16 0 -22 -2 -12 -5z"/>
<path d="M1042 1825 c0 -16 2 -22 5 -12 2 9 2 23 0 30 -3 6 -5 -1 -5 -18z"/>
<path d="M2115 1838 c11 -6 34 -20 50 -30 27 -18 27 -17 -5 11 -19 17 -41 31
-50 31 -11 -1 -10 -4 5 -12z"/>
<path d="M292 1815 c0 -16 2 -22 5 -12 2 9 2 23 0 30 -3 6 -5 -1 -5 -18z"/>
<path d="M1620 1830 c0 -7 3 -10 7 -7 3 4 3 10 0 14 -4 3 -7 0 -7 -7z"/>
<path d="M1710 1831 c0 -4 11 -23 25 -42 40 -54 63 -110 69 -167 8 -77 15 -99
32 -99 8 0 14 4 14 9 0 4 -3 8 -7 8 -5 0 -9 25 -10 56 -2 31 -6 62 -11 68 -5
6 -19 37 -31 68 -13 32 -27 55 -32 53 -4 -3 -15 8 -24 25 -15 30 -25 38 -25
21z"/>
<path d="M505 1820 c-4 -6 3 -10 14 -10 25 0 27 6 6 13 -8 4 -17 2 -20 -3z"/>
<path d="M1515 1810 c3 -5 8 -10 11 -10 3 0 2 5 -1 10 -3 6 -8 10 -11 10 -3 0
-2 -4 1 -10z"/>
<path d="M1774 1812 c-6 -5 -4 -13 8 -24 19 -19 21 -15 10 14 -4 10 -12 14
-18 10z"/>
<path d="M2015 1770 c3 -19 19 -54 35 -77 17 -23 30 -47 30 -55 0 -7 5 -20 10
-28 7 -11 8 -5 4 20 -5 35 -5 35 10 10 8 -14 15 -42 16 -62 0 -21 4 -38 10
-38 5 0 7 14 4 33 -8 52 -27 107 -36 107 -11 0 -63 60 -63 73 -1 7 -6 21 -14
32 -11 18 -12 16 -6 -15z"/>
<path d="M3 1768 c12 -48 66 -192 67 -176 0 10 -7 37 -15 62 -8 24 -12 52 -9
63 4 14 4 15 -4 4 -7 -10 -12 -3 -17 28 -4 22 -11 41 -17 41 -6 0 -8 -10 -5
-22z"/>
<path d="M618 1783 c7 -3 16 -2 19 1 4 3 -2 6 -13 5 -11 0 -14 -3 -6 -6z"/>
<path d="M1358 1778 c20 -20 14 -30 -15 -26 -16 2 -27 8 -25 16 4 20 -16 14
-23 -8 -15 -47 19 -73 69 -54 22 8 20 28 -1 20 -14 -5 -13 -2 3 12 22 19 17
52 -8 52 -9 0 -9 -3 0 -12z m-28 -42 c0 -3 -4 -8 -10 -11 -5 -3 -10 -1 -10 4
0 6 5 11 10 11 6 0 10 -2 10 -4z"/>
<path d="M1537 1769 c4 -13 8 -18 11 -10 2 7 -1 18 -6 23 -8 8 -9 4 -5 -13z"/>
<path d="M1626 1755 c8 -50 14 -58 14 -19 0 16 -5 36 -11 44 -7 11 -8 4 -3
-25z"/>
<path d="M762 1760 c14 -22 24 -19 15 5 -4 8 -11 15 -17 15 -6 0 -6 -7 2 -20z"/>
<path d="M1040 1770 c0 -7 3 -10 7 -7 3 4 3 10 0 14 -4 3 -7 0 -7 -7z"/>
<path d="M1456 1757 c19 -32 7 -56 -30 -58 -16 -1 -17 -2 -4 -6 22 -6 58 14
58 31 0 8 -9 24 -21 37 -20 24 -20 24 -3 -4z"/>
<path d="M630 1763 c-25 -9 -50 -35 -50 -52 0 -13 2 -13 9 -2 7 11 10 11 14 0
4 -9 6 -7 4 5 -3 30 34 49 61 30 29 -20 30 -126 1 -108 -5 3 -9 1 -9 -4 0 -5
9 -12 19 -15 33 -8 35 109 2 134 -25 20 -27 21 -51 12z"/>
<path d="M2142 1762 c-9 -7 -5 -18 18 -47 16 -21 30 -48 30 -60 0 -12 3 -37 7
-55 4 -24 3 -31 -5 -26 -8 5 -10 1 -5 -10 4 -11 8 -13 11 -6 9 28 42 -8 42
-46 1 -36 20 -126 36 -167 7 -20 7 -20 -16 0 -21 18 -20 16 5 -23 18 -27 30
-61 33 -92 4 -42 32 -96 32 -62 0 6 -4 14 -10 17 -5 3 -10 24 -10 46 0 22 -5
49 -11 61 -6 11 -12 32 -14 46 -2 15 -11 56 -19 92 -9 36 -16 77 -16 92 0 15
-10 36 -22 48 -22 20 -22 20 3 21 24 1 24 1 -1 8 -34 9 -43 75 -11 84 21 5 31
-9 31 -45 0 -12 3 -19 6 -15 3 3 3 24 -1 47 -6 35 -9 39 -22 28 -12 -10 -18
-9 -30 7 -8 11 -22 30 -31 42 -11 15 -22 20 -30 15z"/>
<path d="M282 1730 c0 -19 2 -27 5 -17 2 9 2 25 0 35 -3 9 -5 1 -5 -18z"/>
<path d="M1048 1739 c-23 -13 -23 -28 0 -26 10 0 18 9 18 19 0 10 0 18 -1 18
0 0 -8 -5 -17 -11z"/>
<path d="M660 1710 c5 -18 12 -35 16 -39 10 -9 -6 53 -17 63 -5 6 -5 -4 1 -24z"/>
<path d="M980 1730 c0 -5 5 -10 10 -10 6 0 10 5 10 10 0 6 -4 10 -10 10 -5 0
-10 -4 -10 -10z"/>
<path d="M760 1720 c0 -7 3 -10 7 -7 3 4 3 10 0 14 -4 3 -7 0 -7 -7z"/>
<path d="M1818 1703 c5 -21 7 -23 10 -9 2 10 0 22 -6 28 -6 6 -7 0 -4 -19z"/>
<path d="M270 1684 c0 -5 -11 -85 -25 -179 -14 -93 -37 -253 -51 -354 -14
-102 -27 -188 -30 -193 -3 -4 0 -8 5 -8 6 0 11 6 12 13 1 13 2 22 23 147 8 47
17 112 21 145 3 33 12 101 20 150 23 149 37 276 31 282 -3 4 -6 2 -6 -3z"/>
<path d="M577 1670 c-18 -64 -20 -187 -3 -193 9 -4 16 -2 16 3 0 6 -4 10 -10
10 -12 0 -11 72 1 115 6 22 7 11 5 -37 -3 -47 0 -68 8 -68 14 0 13 120 -1 165
-9 30 -9 30 -16 5z"/>
<path d="M730 1680 c0 -7 3 -10 7 -7 3 4 3 10 0 14 -4 3 -7 0 -7 -7z"/>
<path d="M1882 1670 c0 -14 2 -19 5 -12 2 6 2 18 0 25 -3 6 -5 1 -5 -13z"/>
<path d="M1650 1670 c0 -5 5 -10 11 -10 5 0 7 5 4 10 -3 6 -8 10 -11 10 -2 0
-4 -4 -4 -10z"/>
<path d="M532 1585 c-19 -157 -24 -210 -18 -204 8 8 39 266 33 282 -2 6 -9
-29 -15 -78z"/>
<path d="M776 1655 c-3 -8 -1 -15 4 -15 6 0 10 7 10 15 0 8 -2 15 -4 15 -2 0
-6 -7 -10 -15z"/>
<path d="M723 1570 c0 -47 2 -66 4 -42 2 23 2 61 0 85 -2 23 -4 4 -4 -43z"/>
<path d="M2060 1630 c0 -7 3 -10 7 -7 3 4 3 10 0 14 -4 3 -7 0 -7 -7z"/>
<path d="M750 1568 c-4 -47 -2 -64 6 -57 6 5 14 6 17 2 4 -3 6 20 6 53 -1 47
-3 53 -9 29 -7 -30 -7 -30 -11 5 -4 26 -6 18 -9 -32z m17 -30 c-3 -8 -6 -5 -6
6 -1 11 2 17 5 13 3 -3 4 -12 1 -19z"/>
<path d="M920 1617 c0 -8 5 -29 11 -48 6 -19 13 -40 15 -47 3 -11 6 -11 18 0
14 13 11 32 -4 23 -4 -3 -11 13 -15 35 -6 38 -25 66 -25 37z"/>
<path d="M1892 1610 c0 -14 2 -19 5 -12 2 6 2 18 0 25 -3 6 -5 1 -5 -13z"/>
<path d="M1660 1614 c0 -3 5 -14 11 -25 13 -24 18 -57 29 -184 15 -175 32
-340 36 -344 9 -10 1 104 -31 422 -6 65 18 48 40 -28 9 -31 28 -63 46 -81 36
-34 65 -84 48 -84 -13 0 -3 -52 18 -93 10 -20 11 -37 4 -61 -5 -19 -5 -38 -1
-43 12 -13 30 -109 30 -163 0 -40 3 -48 15 -44 10 4 15 0 15 -11 0 -9 -4 -14
-9 -10 -5 3 -12 1 -16 -5 -3 -5 3 -10 14 -10 12 0 21 3 21 8 0 22 -31 249 -36
267 -5 15 -3 17 5 9 6 -6 15 -30 20 -55 9 -44 9 -44 10 -6 1 40 -10 68 -39
102 -9 11 -20 31 -23 45 -6 25 -6 25 14 1 22 -27 24 -12 4 44 -8 22 -15 41
-15 41 0 1 12 -1 28 -4 34 -6 62 -30 62 -53 0 -10 5 -30 12 -44 10 -23 10 -28
-5 -36 -12 -7 -17 -23 -17 -57 1 -59 27 -242 36 -251 4 -3 4 12 0 34 -6 40 -6
40 14 3 33 -61 43 -54 12 9 -35 69 -71 272 -39 217 38 -64 70 -94 101 -94 18
0 41 -7 52 -15 10 -8 22 -15 27 -15 16 0 6 49 -15 76 -13 15 -17 25 -10 20 17
-11 15 -1 -13 52 -14 26 -25 55 -25 65 0 19 -54 47 -87 46 -10 0 -2 -5 17 -12
28 -10 41 -23 66 -74 19 -38 27 -64 20 -66 -6 -2 2 -20 18 -42 19 -25 24 -36
14 -32 -9 3 -33 9 -52 13 -47 8 -60 30 -93 159 -9 33 -22 65 -29 71 -8 6 -14
14 -14 17 0 8 135 -29 196 -54 30 -12 57 -19 60 -17 9 10 -100 48 -209 73
-132 31 -139 34 -144 64 -3 21 -2 21 19 7 31 -22 41 -20 26 4 -7 11 -17 20
-22 20 -14 0 -126 94 -126 107 0 6 -11 20 -24 31 -13 10 -31 35 -40 55 -13 33
-26 48 -26 31z m173 -212 c12 -15 17 -52 7 -52 -10 0 -67 64 -73 83 -7 17 -6
17 24 0 17 -10 36 -24 42 -31z m176 -289 c13 -28 13 -28 -8 -9 -22 20 -27 36
-13 36 5 0 14 -12 21 -27z"/>
<path d="M0 1590 c0 -19 3 -21 12 -12 9 9 9 15 0 24 -9 9 -12 7 -12 -12z"/>
<path d="M1860 1590 c0 -7 3 -10 7 -7 3 4 3 10 0 14 -4 3 -7 0 -7 -7z"/>
<path d="M2064 1562 c4 -35 2 -41 -9 -32 -11 9 -12 6 -6 -16 4 -15 13 -30 20
-32 8 -3 11 0 7 6 -3 6 -2 13 3 16 5 3 14 -8 21 -25 12 -27 55 -57 67 -45 3 2
-5 7 -16 11 -22 7 -70 82 -83 130 -6 25 -7 23 -4 -13z"/>
<path d="M352 1570 c0 -14 2 -19 5 -12 2 6 2 18 0 25 -3 6 -5 1 -5 -13z"/>
<path d="M71 1565 c1 -19 18 -51 18 -35 0 8 -4 22 -9 30 -5 8 -9 11 -9 5z"/>
<path d="M1862 1550 c0 -14 2 -19 5 -12 2 6 2 18 0 25 -3 6 -5 1 -5 -13z"/>
<path d="M334 1486 c-5 -31 -7 -56 -3 -56 9 0 23 83 17 100 -2 6 -8 -14 -14
-44z"/>
<path d="M2200 1525 c0 -8 4 -15 10 -15 5 0 7 7 4 15 -4 8 -8 15 -10 15 -2 0
-4 -7 -4 -15z"/>
<path d="M1280 1521 c-114 -37 -202 -143 -199 -239 1 -36 2 -36 9 9 43 255
378 307 496 77 71 -140 18 -266 -138 -324 -64 -23 -54 -34 11 -12 181 61 222
269 83 414 -59 62 -189 99 -262 75z"/>
<path d="M1760 1498 c0 -11 98 -10 105 1 3 6 -17 9 -50 8 -30 -1 -55 -5 -55
-9z"/>
<path d="M930 1480 c0 -7 3 -10 7 -7 3 4 3 10 0 14 -4 3 -7 0 -7 -7z"/>
<path d="M2200 1483 c0 -5 5 -15 10 -23 8 -12 10 -11 10 8 0 12 -4 22 -10 22
-5 0 -10 -3 -10 -7z"/>
<path d="M491 1480 c-2 -3 -4 -27 -6 -55 -4 -47 -3 -48 6 -16 8 27 8 90 0 71z"/>
<path d="M720 1464 c0 -8 5 -12 10 -9 6 3 10 10 10 16 0 5 -4 9 -10 9 -5 0
-10 -7 -10 -16z"/>
<path d="M780 1470 c0 -5 7 -7 15 -4 8 4 15 8 15 10 0 2 -7 4 -15 4 -8 0 -15
-4 -15 -10z"/>
<path d="M980 1470 c0 -7 3 -10 7 -7 3 4 3 10 0 14 -4 3 -7 0 -7 -7z"/>
<path d="M1860 1469 c0 -4 17 -11 38 -14 20 -3 61 -10 90 -16 70 -14 78 -6 10
10 -112 25 -138 29 -138 20z"/>
<path d="M132 1430 c0 -19 2 -27 5 -17 2 9 2 25 0 35 -3 9 -5 1 -5 -18z"/>
<path d="M930 1440 c0 -7 3 -10 7 -7 3 4 3 10 0 14 -4 3 -7 0 -7 -7z"/>
<path d="M991 1434 c0 -11 3 -14 6 -6 3 7 2 16 -1 19 -3 4 -6 -2 -5 -13z"/>
<path d="M1876 1435 c4 -8 12 -15 19 -15 7 0 16 -6 18 -12 3 -8 6 -6 6 4 1 10
-8 22 -18 28 -26 14 -31 13 -25 -5z"/>
<path d="M1945 1430 c27 -12 43 -12 25 0 -8 5 -22 9 -30 9 -10 0 -8 -3 5 -9z"/>
<path d="M2068 1423 c7 -3 16 -2 19 1 4 3 -2 6 -13 5 -11 0 -14 -3 -6 -6z"/>
<path d="M931 1409 c-1 -8 6 -24 15 -35 15 -19 15 -19 6 1 -5 11 -12 27 -15
35 -5 13 -6 13 -6 -1z"/>
<path d="M2022 1406 c15 -8 41 -17 58 -21 17 -4 34 -14 37 -23 19 -53 34 -84
39 -79 3 3 0 15 -6 27 -24 44 -6 50 38 11 44 -39 54 -58 25 -46 -21 8 33 -52
60 -66 16 -9 17 -8 5 10 -7 12 -16 21 -21 21 -4 0 -5 4 -2 10 15 24 -94 117
-169 144 -82 29 -105 33 -64 12z m223 -146 c3 -5 4 -10 1 -10 -3 0 -8 5 -11
10 -3 6 -4 10 -1 10 3 0 8 -4 11 -10z"/>
<path d="M2123 1403 c4 -3 10 -3 14 0 3 4 0 7 -7 7 -7 0 -10 -3 -7 -7z"/>
<path d="M320 1390 c0 -7 3 -10 7 -7 3 4 3 10 0 14 -4 3 -7 0 -7 -7z"/>
<path d="M2225 1390 c3 -5 8 -10 11 -10 3 0 2 5 -1 10 -3 6 -8 10 -11 10 -3 0
-2 -4 1 -10z"/>
<path d="M543 1383 c4 -3 10 -3 14 0 3 4 0 7 -7 7 -7 0 -10 -3 -7 -7z"/>
<path d="M802 1347 c-18 -26 -32 -58 -32 -74 0 -16 -7 -38 -15 -49 -8 -10 -14
-23 -15 -29 0 -5 5 -3 10 5 5 8 10 11 10 5 1 -16 40 98 40 117 0 9 9 24 21 32
12 8 19 20 17 26 -2 6 -18 -9 -36 -33z"/>
<path d="M1970 1376 c0 -8 4 -17 9 -20 5 -4 7 3 4 14 -6 23 -13 26 -13 6z"/>
<path d="M980 1370 c0 -7 3 -10 7 -7 3 4 3 10 0 14 -4 3 -7 0 -7 -7z"/>
<path d="M2040 1361 c37 -30 52 -26 30 9 -7 11 -10 11 -10 2 0 -10 -5 -10 -22
-2 -21 10 -21 9 2 -9z"/>
<path d="M321 1354 c0 -11 3 -14 6 -6 3 7 2 16 -1 19 -3 4 -6 -2 -5 -13z"/>
<path d="M929 1329 c0 -19 -3 -77 -5 -129 -3 -52 -6 -130 -7 -172 -2 -79 -17
-123 -17 -50 0 23 -4 42 -10 42 -6 0 -10 -26 -10 -59 0 -33 -4 -62 -8 -65 -4
-2 -7 10 -6 27 1 18 -1 22 -3 10 -2 -13 -8 -23 -12 -23 -12 0 -9 -30 3 -31 6
0 19 -2 29 -4 13 -2 17 4 18 28 0 28 1 29 9 11 10 -26 7 -60 -6 -57 -5 1 -24
4 -41 8 -31 6 -32 7 -29 47 3 23 7 127 9 232 4 147 3 170 -3 101 -5 -49 -11
-160 -14 -246 -5 -156 -5 -156 49 -158 49 -1 55 1 55 19 0 11 4 20 9 20 5 0
12 7 15 15 4 11 0 15 -12 13 -11 -2 -18 5 -20 20 -2 12 0 22 5 22 4 0 8 30 9
67 0 38 2 128 3 201 2 73 0 136 -3 139 -3 4 -6 -9 -7 -28z"/>
<path d="M400 1331 c0 -5 5 -13 10 -16 6 -3 10 -16 10 -28 0 -12 9 -35 20 -52
15 -22 20 -25 20 -12 0 10 -8 29 -17 43 -11 17 -13 28 -6 32 7 4 2 14 -13 25
-13 10 -24 13 -24 8z"/>
<path d="M957 1273 c-2 -5 -1 -19 4 -33 7 -23 7 -23 8 8 1 31 -3 40 -12 25z"/>
<path d="M710 1268 c0 -2 9 -11 20 -21 11 -9 20 -13 20 -7 0 5 -9 14 -20 20
-11 6 -20 9 -20 8z"/>
<path d="M798 1225 c-3 -14 -1 -25 3 -25 5 0 9 11 9 25 0 14 -2 25 -4 25 -2 0
-6 -11 -8 -25z"/>
<path d="M1260 1244 c0 -44 83 -81 134 -60 30 13 29 13 -21 8 -48 -4 -55 -2
-83 26 -16 17 -30 28 -30 26z"/>
<path d="M1762 1200 c0 -14 2 -19 5 -12 2 6 2 18 0 25 -3 6 -5 1 -5 -13z"/>
<path d="M2277 1164 c62 -59 65 -66 76 -159 3 -19 5 -13 6 18 2 78 -31 131
-114 182 -17 10 -4 -7 32 -41z"/>
<path d="M418 1193 c7 -3 16 -2 19 1 4 3 -2 6 -13 5 -11 0 -14 -3 -6 -6z"/>
<path d="M450 1190 c0 -7 3 -10 7 -7 3 4 3 10 0 14 -4 3 -7 0 -7 -7z"/>
<path d="M960 1190 c0 -7 3 -10 7 -7 3 4 3 10 0 14 -4 3 -7 0 -7 -7z"/>
<path d="M765 1179 c-11 -16 -1 -19 13 -3 7 8 8 14 3 14 -5 0 -13 -5 -16 -11z"/>
<path d="M735 1160 c-4 -6 -9 -38 -12 -71 -4 -38 -9 -56 -14 -47 -7 10 -9 9
-9 -5 0 -10 -4 -15 -10 -12 -20 12 -9 -15 15 -39 25 -25 25 -25 26 22 0 26 4
72 8 102 9 57 8 69 -4 50z"/>
<path d="M963 1115 c0 -33 2 -45 4 -27 2 18 2 45 0 60 -2 15 -4 0 -4 -33z"/>
<path d="M1131 1150 c14 -30 59 -80 72 -80 6 0 -4 15 -22 33 -17 17 -38 41
-46 52 -15 19 -16 19 -4 -5z"/>
<path d="M1772 1130 c0 -25 3 -54 8 -65 12 -28 12 14 1 70 -9 40 -9 40 -9 -5z"/>
<path d="M90 1150 c0 -7 3 -10 7 -7 3 4 3 10 0 14 -4 3 -7 0 -7 -7z"/>
<path d="M465 1130 c-4 -6 -9 -8 -13 -6 -4 2 -8 -7 -8 -20 -2 -31 1 -30 20 6
14 28 15 42 1 20z"/>
<path d="M2170 1122 c0 -14 6 -22 16 -22 14 0 15 3 3 18 -7 9 -15 19 -16 21
-2 2 -3 -5 -3 -17z"/>
<path d="M2270 1120 c1 -14 7 -36 14 -49 8 -14 12 -31 9 -38 -3 -7 2 -13 11
-13 21 0 20 9 -9 72 -19 40 -25 47 -25 28z"/>
<path d="M2230 1115 c0 -5 5 -17 10 -25 5 -8 10 -10 10 -5 0 6 -5 17 -10 25
-5 8 -10 11 -10 5z"/>
<path d="M598 1088 c-7 -13 -20 -41 -29 -63 -12 -29 -28 -46 -60 -62 -37 -19
-39 -22 -14 -17 51 11 65 30 117 147 11 25 1 21 -14 -5z"/>
<path d="M675 1070 c3 -5 11 -10 16 -10 6 0 7 5 4 10 -3 6 -11 10 -16 10 -6 0
-7 -4 -4 -10z"/>
<path d="M751 1064 c0 -11 3 -14 6 -6 3 7 2 16 -1 19 -3 4 -6 -2 -5 -13z"/>
<path d="M622 1040 c-12 -12 -22 -24 -22 -27 0 -4 11 3 23 16 16 14 30 19 42
15 13 -5 16 -4 11 4 -11 18 -29 15 -54 -8z"/>
<path d="M865 1050 c-18 -8 -17 -9 7 -9 15 -1 30 4 33 9 7 12 -12 12 -40 0z"/>
<path d="M1230 1050 c0 -4 13 -10 29 -12 17 -2 28 -1 26 3 -7 10 -55 18 -55 9z"/>
<path d="M773 1000 c0 -30 2 -43 4 -27 2 15 2 39 0 55 -2 15 -4 2 -4 -28z"/>
<path d="M745 1030 c-3 -5 -1 -10 4 -10 6 0 11 5 11 10 0 6 -2 10 -4 10 -3 0
-8 -4 -11 -10z"/>
<path d="M2257 1008 c4 -18 7 -43 8 -55 0 -13 3 -23 7 -23 4 0 9 -12 11 -27 2
-16 4 -4 3 25 0 28 -4 52 -8 52 -4 0 -8 11 -8 24 0 14 -4 28 -10 31 -6 4 -7
-6 -3 -27z"/>
<path d="M1937 960 c3 -41 9 -82 13 -89 9 -17 2 62 -11 124 -6 28 -6 17 -2
-35z"/>
<path d="M1172 1008 c-9 -9 -7 -17 10 -35 17 -18 18 -23 6 -23 -9 0 -21 7 -28
15 -13 16 -30 20 -30 7 0 -5 15 -16 33 -25 21 -12 25 -16 10 -13 -15 3 -20 0
-16 -10 4 -11 -6 -14 -38 -16 -62 -2 -67 -2 -75 -11 -4 -4 15 -7 42 -7 43 0
54 -5 87 -36 21 -20 40 -34 43 -32 8 9 -8 38 -21 38 -20 0 -48 37 -35 45 7 4
17 1 22 -6 8 -11 8 -10 4 4 -6 18 2 18 50 0 7 -2 15 0 18 5 3 5 -2 9 -12 8 -9
0 -16 4 -15 11 2 7 -8 24 -22 37 -28 28 -36 57 -10 36 13 -11 14 -10 9 4 -7
19 -16 20 -32 4z"/>
<path d="M1570 1010 c-8 -5 -26 -10 -39 -10 -17 0 -22 -4 -17 -16 3 -9 6 -20
6 -26 0 -6 6 -6 15 2 8 7 16 9 16 4 1 -5 2 -13 4 -19 1 -5 3 -18 3 -27 2 -12
7 -15 18 -11 16 6 16 7 0 18 -18 13 -22 30 -5 19 8 -5 8 -1 0 14 -14 26 -14
32 -1 32 6 0 10 -7 10 -15 0 -8 5 -15 10 -15 6 0 10 -7 10 -15 0 -8 5 -15 10
-15 6 0 10 6 10 14 0 8 10 22 22 30 17 12 18 16 6 16 -8 0 -21 -7 -29 -16 -12
-14 -14 -14 -26 2 -17 24 -16 37 2 30 8 -3 15 -1 15 4 0 13 -21 13 -40 0z"/>
<path d="M740 995 c0 -8 5 -15 10 -15 6 0 10 7 10 15 0 8 -4 15 -10 15 -5 0
-10 -7 -10 -15z"/>
<path d="M2000 1000 c-12 -8 -3 -22 50 -75 76 -75 79 -76 104 -30 10 19 26 36
35 38 11 3 8 5 -6 6 -15 1 -25 9 -29 26 -3 14 -11 25 -16 25 -6 0 -7 -7 -2
-17 11 -26 9 -72 -5 -86 -13 -13 -74 41 -99 90 -13 25 -21 30 -32 23z"/>
<path d="M2221 940 c2 -75 2 -75 -27 -72 -16 2 -26 1 -22 -3 3 -4 22 -8 41 -9
35 -3 35 -3 25 26 -6 16 -8 46 -5 66 4 20 2 44 -4 52 -7 11 -9 -7 -8 -60z"/>
<path d="M2309 981 c-3 -19 -4 -55 -1 -79 4 -39 7 -43 28 -39 13 2 21 1 19 -3
-3 -4 3 -14 12 -21 15 -12 16 -12 10 4 -4 10 -7 25 -7 32 0 8 -7 11 -20 8 -22
-6 -28 11 -32 87 -3 44 -3 44 -9 11z"/>
<path d="M417 960 c-15 -107 -15 -110 7 -109 12 0 15 3 9 6 -7 2 -13 13 -13
24 0 12 5 16 15 12 13 -4 16 2 14 35 -2 23 -6 39 -10 36 -4 -2 -9 6 -11 18 -3
15 -7 7 -11 -22z"/>
<path d="M950 994 c0 -17 18 -36 30 -32 7 2 4 10 -9 22 -12 11 -21 15 -21 10z"/>
<path d="M1370 990 c-13 -9 -13 -10 0 -10 8 0 22 5 30 10 13 9 13 10 0 10 -8
0 -22 -5 -30 -10z"/>
<path d="M614 978 c-4 -7 -3 -8 4 -4 12 7 16 16 8 16 -3 0 -8 -5 -12 -12z"/>
<path d="M850 980 c0 -7 3 -10 7 -7 3 4 3 10 0 14 -4 3 -7 0 -7 -7z"/>
<path d="M493 973 c4 -3 10 -3 14 0 3 4 0 7 -7 7 -7 0 -10 -3 -7 -7z"/>
<path d="M670 970 c0 -5 4 -10 9 -10 6 0 13 5 16 10 3 6 -1 10 -9 10 -9 0 -16
-4 -16 -10z"/>
<path d="M1216 971 c-3 -5 4 -9 17 -8 12 0 31 -3 42 -7 13 -5 11 -2 -5 8 -29
18 -46 20 -54 7z"/>
<path d="M1740 970 c0 -7 3 -10 7 -7 3 4 3 10 0 14 -4 3 -7 0 -7 -7z"/>
<path d="M740 951 c0 -25 6 -27 13 -6 4 8 2 17 -3 20 -6 4 -10 -3 -10 -14z"/>
<path d="M1324 958 c-4 -7 -3 -8 4 -4 12 7 16 16 8 16 -3 0 -8 -5 -12 -12z"/>
<path d="M1465 960 c3 -5 8 -10 11 -10 3 0 2 5 -1 10 -3 6 -8 10 -11 10 -3 0
-2 -4 1 -10z"/>
<path d="M2355 960 c-3 -5 -1 -10 4 -10 6 0 11 5 11 10 0 6 -2 10 -4 10 -3 0
-8 -4 -11 -10z"/>
<path d="M564 938 c-4 -7 -3 -8 4 -4 12 7 16 16 8 16 -3 0 -8 -5 -12 -12z"/>
<path d="M0 930 c0 -7 3 -10 7 -7 3 4 3 10 0 14 -4 3 -7 0 -7 -7z"/>
<path d="M540 930 c0 -7 3 -10 7 -7 3 4 3 10 0 14 -4 3 -7 0 -7 -7z"/>
<path d="M610 930 c0 -7 3 -10 7 -7 3 4 3 10 0 14 -4 3 -7 0 -7 -7z"/>
<path d="M648 933 c-17 -4 -34 -33 -19 -33 4 0 16 9 26 20 10 11 16 19 14 19
-2 -1 -11 -3 -21 -6z"/>
<path d="M53 923 c4 -3 10 -3 14 0 3 4 0 7 -7 7 -7 0 -10 -3 -7 -7z"/>
<path d="M705 919 c-4 -6 -17 -14 -29 -19 -12 -5 -15 -9 -6 -9 8 0 26 8 40 19
14 11 20 20 13 20 -6 0 -15 -5 -18 -11z"/>
<path d="M757 923 c-2 -5 0 -21 4 -38 7 -29 7 -29 8 8 1 35 -3 46 -12 30z"/>
<path d="M1002 911 c-11 -7 -10 -10 3 -15 22 -8 22 -8 22 9 0 17 -6 18 -25 6z"/>
<path d="M1470 912 c0 -5 10 -17 22 -28 21 -19 21 -19 3 9 -18 28 -25 33 -25
19z"/>
<path d="M1664 911 c5 -8 56 -3 56 5 0 2 -14 4 -31 4 -16 0 -28 -4 -25 -9z"/>
<path d="M356 894 c-4 -9 -4 -19 -1 -22 2 -3 7 3 11 12 4 9 4 19 1 22 -2 3 -7
-3 -11 -12z"/>
<path d="M550 901 c0 -6 4 -13 10 -16 6 -3 7 1 4 9 -7 18 -14 21 -14 7z"/>
<path d="M1284 898 c-4 -7 -3 -8 4 -4 12 7 16 16 8 16 -3 0 -8 -5 -12 -12z"/>
<path d="M1543 892 c10 -10 17 -23 17 -29 0 -6 7 -16 15 -23 8 -7 15 -10 15
-6 0 12 -45 76 -54 76 -5 0 -2 -8 7 -18z"/>
<path d="M457 893 c-11 -10 -8 -43 3 -43 6 0 10 11 10 25 0 26 -2 29 -13 18z"/>
<path d="M1590 890 c0 -6 10 -21 21 -33 18 -18 21 -19 15 -4 -3 10 -6 25 -6
33 0 8 -7 14 -15 14 -8 0 -15 -5 -15 -10z"/>
<path d="M1107 866 c-3 -8 -18 -16 -34 -19 -20 -3 -16 -4 15 -6 31 -1 42 3 42
13 0 21 -17 29 -23 12z"/>
<path d="M1385 835 c14 -27 35 -61 46 -75 16 -19 15 -14 -6 25 -14 28 -35 61
-46 75 -16 19 -15 14 6 -25z"/>
<path d="M543 863 c4 -3 10 -3 14 0 3 4 0 7 -7 7 -7 0 -10 -3 -7 -7z"/>
<path d="M590 860 c14 -4 34 -8 45 -8 20 -1 20 -1 0 8 -11 5 -31 8 -45 8 -25
0 -25 0 0 -8z"/>
<path d="M2273 863 c4 -3 10 -3 14 0 3 4 0 7 -7 7 -7 0 -10 -3 -7 -7z"/>
<path d="M353 853 c4 -3 10 -3 14 0 3 4 0 7 -7 7 -7 0 -10 -3 -7 -7z"/>
<path d="M1522 808 c3 -23 6 -23 186 -28 100 -3 181 -1 179 3 -1 5 -80 8 -175
7 -167 -1 -172 0 -172 20 0 11 -5 20 -11 20 -6 0 -9 -10 -7 -22z"/>
<path d="M1238 813 c7 -3 16 -2 19 1 4 3 -2 6 -13 5 -11 0 -14 -3 -6 -6z"/>
<path d="M2274 799 c-2 -3 3 -15 11 -25 11 -13 14 -14 13 -4 -2 9 6 16 22 18
23 2 24 1 8 -11 -10 -8 -18 -22 -18 -31 0 -9 -7 -16 -15 -16 -8 0 -15 -7 -15
-15 0 -8 6 -15 13 -15 19 0 37 21 37 43 0 33 44 17 51 -18 7 -30 7 -30 8 3 4
103 33 -36 35 -166 1 -46 3 -50 14 -35 9 12 11 32 7 58 -3 22 -8 67 -12 100
-7 76 -16 93 -50 97 -16 2 -27 8 -26 14 2 11 -76 14 -83 3z"/>
<path d="M223 787 c-3 -5 -11 -6 -19 -3 -9 3 -11 0 -7 -11 4 -10 2 -14 -4 -10
-7 4 -12 -12 -15 -44 -4 -34 -13 -58 -29 -75 -24 -26 -24 -26 4 -19 25 7 27 5
27 -26 0 -19 5 -52 11 -74 6 -22 11 -42 11 -45 0 -3 4 -15 9 -27 5 -15 5 -23
-2 -23 -6 0 -8 -4 -4 -10 3 -5 12 -7 19 -4 8 3 17 0 21 -5 3 -6 11 -9 16 -6
27 18 25 -10 -3 -35 -18 -16 -29 -32 -25 -37 5 -4 12 -1 18 7 13 21 32 -7 23
-35 -11 -35 -33 -178 -33 -215 -1 -54 15 -15 22 56 10 96 28 126 22 34 -4 -41
-8 -87 -11 -103 -4 -20 -2 -27 10 -27 13 0 15 6 10 27 -3 16 -2 23 3 16 4 -6
8 20 8 60 0 83 10 120 26 97 8 -11 9 -6 7 20 -3 34 -2 35 33 38 37 2 37 2 33
-65 -2 -38 -1 -61 2 -53 3 8 8 22 11 30 3 8 5 32 4 53 -3 37 -3 37 208 37 115
0 221 -4 235 -10 14 -5 26 -6 26 -1 0 17 -66 21 -321 21 -259 0 -259 0 -259
30 0 17 5 30 13 30 9 0 9 2 -1 9 -7 4 -14 23 -14 42 -1 19 -3 28 -5 22 -9 -25
-43 -15 -43 13 0 14 4 23 10 19 6 -4 8 -11 5 -16 -4 -5 -2 -9 4 -9 5 0 11 16
13 36 3 35 3 35 23 16 27 -25 56 -3 33 25 -7 9 -11 19 -8 22 3 3 -5 7 -17 9
-26 4 -31 30 -8 38 11 5 12 10 3 24 -14 22 2 106 20 103 16 -4 15 18 -4 42
-15 21 -100 30 -111 12z m80 -14 c-7 -2 -19 -2 -25 0 -7 3 -2 5 12 5 14 0 19
-2 13 -5z m7 -20 c0 -3 -7 -11 -15 -19 -13 -14 -15 -13 -15 4 0 10 7 19 15 19
8 0 15 -2 15 -4z m-82 -35 c2 -9 -3 -18 -11 -21 -10 -4 -14 2 -14 19 0 27 20
28 25 2z m61 -14 c12 8 16 -16 4 -27 -9 -10 -33 13 -33 32 0 13 2 13 9 2 5 -7
14 -10 20 -7z m-63 -80 c-6 -16 -26 -19 -26 -5 0 5 5 22 12 38 11 27 12 27 16
5 2 -13 1 -30 -2 -38z m42 39 c14 -14 16 -27 11 -53 -6 -35 -6 -35 -9 -5 -3
36 -17 -41 -22 -117 -2 -27 -6 -48 -9 -48 -14 0 -17 46 -8 128 5 48 9 93 9
100 0 17 8 15 28 -5z m-48 -105 c-1 -35 -3 -40 -11 -25 -10 17 -5 67 6 67 3 0
5 -19 5 -42z m60 -20 c0 -23 -3 -29 -9 -19 -8 12 -4 51 5 51 2 0 4 -15 4 -32z
m50 13 c0 -6 -4 -12 -8 -15 -5 -3 -9 1 -9 9 0 8 4 15 9 15 4 0 8 -4 8 -9z m20
-25 c0 -3 -4 -8 -10 -11 -5 -3 -10 -1 -10 4 0 6 5 11 10 11 6 0 10 -2 10 -4z
m-53 -103 c-4 -3 -10 -3 -14 0 -3 4 0 7 7 7 7 0 10 -3 7 -7z m-10 -80 c-4 -3
-7 0 -7 7 0 7 3 10 7 7 3 -4 3 -10 0 -14z"/>
<path d="M240 610 c0 -7 3 -10 7 -7 3 4 3 10 0 14 -4 3 -7 0 -7 -7z"/>
<path d="M856 791 c-4 -6 0 -14 8 -17 9 -3 16 -14 16 -24 0 -25 10 -50 21 -50
5 0 9 10 9 23 -1 28 -45 84 -54 68z"/>
<path d="M2088 793 c12 -2 30 -2 40 0 9 3 -1 5 -23 4 -22 0 -30 -2 -17 -4z"/>
<path d="M2208 793 c12 -2 30 -2 40 0 9 3 -1 5 -23 4 -22 0 -30 -2 -17 -4z"/>
<path d="M923 783 c4 -3 10 -3 14 0 3 4 0 7 -7 7 -7 0 -10 -3 -7 -7z"/>
<path d="M1055 779 c-90 -5 -90 -5 25 -7 63 0 133 3 155 7 47 10 -23 10 -180
0z"/>
<path d="M56 765 c-3 -8 -1 -15 4 -15 6 0 10 7 10 15 0 8 -2 15 -4 15 -2 0 -6
-7 -10 -15z"/>
<path d="M623 773 c9 -2 23 -2 30 0 6 3 -1 5 -18 5 -16 0 -22 -2 -12 -5z"/>
<path d="M813 773 c4 -3 10 -3 14 0 3 4 0 7 -7 7 -7 0 -10 -3 -7 -7z"/>
<path d="M1890 751 c0 -5 5 -13 10 -16 6 -3 10 -2 10 4 0 5 -4 13 -10 16 -5 3
-10 2 -10 -4z"/>
<path d="M920 698 c0 -49 5 -47 14 5 4 23 3 37 -4 37 -5 0 -10 -19 -10 -42z"/>
<path d="M1150 692 c-66 -6 -205 -44 -225 -62 -11 -9 -27 -20 -35 -24 -8 -3 1
-4 20 -2 32 4 38 0 60 -32 29 -45 91 -112 103 -112 5 0 -16 28 -47 63 -67 75
-67 77 -13 79 42 1 42 1 5 5 -58 6 -56 30 5 49 64 20 321 31 366 16 22 -8 31
-7 34 1 2 8 47 11 148 11 151 0 227 -14 297 -54 17 -11 32 -15 32 -10 0 12
-47 37 -109 57 -43 15 -523 26 -641 15z"/>
<path d="M125 680 c-3 -5 1 -10 9 -10 9 0 16 5 16 10 0 6 -4 10 -9 10 -6 0
-13 -4 -16 -10z"/>
<path d="M718 673 c6 -2 18 -2 25 0 6 3 1 5 -13 5 -14 0 -19 -2 -12 -5z"/>
<path d="M2060 652 c-98 -2 -117 -5 -132 -22 -19 -20 -18 -20 39 -18 58 1 58
1 13 8 -76 11 -24 19 143 22 143 3 180 -1 145 -15 -8 -3 -6 -6 5 -6 9 -1 17
-7 18 -13 0 -7 3 -22 5 -33 3 -11 6 -33 6 -48 1 -27 2 -27 19 -10 27 28 36 75
13 71 -29 -5 -39 59 -10 65 21 5 -43 5 -264 -1z m267 -89 c-4 -3 -10 -3 -14 0
-3 4 0 7 7 7 7 0 10 -3 7 -7z"/>
<path d="M2353 643 c4 -3 10 -3 14 0 3 4 0 7 -7 7 -7 0 -10 -3 -7 -7z"/>
<path d="M2383 643 c4 -3 10 -3 14 0 3 4 0 7 -7 7 -7 0 -10 -3 -7 -7z"/>
<path d="M360 630 c0 -20 84 -30 270 -30 178 -1 197 -2 218 -20 14 -11 20 -24
16 -31 -5 -9 -2 -10 10 -6 10 4 21 7 24 7 4 0 -4 7 -16 16 -12 8 -20 19 -17
24 8 12 -38 20 -143 22 -52 2 -96 6 -98 10 -9 14 221 9 234 -4 9 -9 12 -8 12
5 0 16 -22 17 -255 17 -155 0 -255 -4 -255 -10z m247 -6 c-9 -10 -162 -13
-199 -4 -22 5 5 8 86 9 66 1 117 -2 113 -5z"/>
<path d="M1863 598 c13 -18 22 -40 20 -49 -2 -9 3 -21 11 -28 13 -11 16 -9 21
11 5 19 -2 34 -26 61 -40 46 -59 49 -26 5z m47 -54 c0 -8 -4 -12 -10 -9 -5 3
-10 10 -10 16 0 5 5 9 10 9 6 0 10 -7 10 -16z"/>
<path d="M1394 593 c-21 -28 -21 -28 -90 -10 -38 9 -78 17 -89 17 -11 0 -42 2
-70 5 -40 4 -44 3 -22 -5 16 -5 35 -6 42 -4 21 9 27 -14 10 -39 -15 -23 -14
-25 5 -30 16 -4 19 -2 11 7 -12 15 30 62 43 49 4 -5 22 -9 39 -10 18 -1 51 -5
75 -9 37 -5 46 -3 58 15 17 24 34 28 34 7 0 -8 7 -17 16 -20 25 -9 27 -7 13
11 -12 14 -12 16 1 11 8 -2 18 -19 22 -36 5 -18 13 -32 19 -32 6 0 8 9 4 21
-7 21 -5 22 31 16 41 -7 64 -28 64 -59 0 -26 -30 -35 -45 -14 -7 9 -16 13 -19
8 -10 -17 33 -43 54 -32 31 17 26 64 -11 102 -18 18 -26 25 -19 16 17 -24 13
-23 -65 12 -82 37 -86 37 -111 3z"/>
<path d="M1630 600 c25 -8 97 -13 89 -6 -2 2 -29 6 -59 9 -36 4 -46 3 -30 -3z"/>
<path d="M1816 595 c-13 -10 -25 -11 -43 -4 -14 5 -28 7 -31 5 -2 -3 7 -8 22
-12 31 -7 32 -11 9 -36 -9 -10 -13 -18 -10 -18 3 0 17 12 31 26 30 33 41 27
45 -28 1 -24 7 -47 12 -53 10 -10 2 82 -10 117 -5 14 -9 15 -25 3z"/>
<path d="M1257 529 c4 -13 8 -18 11 -10 2 7 -1 18 -6 23 -8 8 -9 4 -5 -13z"/>
<path d="M890 525 c15 -18 0 -20 -20 -2 -8 6 -4 0 9 -15 25 -28 49 -39 34 -15
-8 12 -9 17 -12 37 0 6 -6 10 -12 10 -8 0 -8 -5 1 -15z"/>
<path d="M1386 515 c-9 -14 -12 -25 -7 -25 12 0 35 39 28 46 -2 3 -12 -7 -21
-21z"/>
<path d="M490 523 c1 -5 18 -18 38 -31 37 -23 37 -23 5 7 -32 31 -43 37 -43
24z"/>
<path d="M2080 526 c0 -2 8 -10 18 -17 15 -13 16 -12 3 4 -13 16 -21 21 -21
13z"/>
<path d="M363 483 c4 -3 10 -3 14 0 3 4 0 7 -7 7 -7 0 -10 -3 -7 -7z"/>
<path d="M1167 476 c4 -7 24 -26 43 -42 35 -29 35 -29 0 13 -34 40 -59 57 -43
29z"/>
<path d="M1385 469 c-16 -6 -14 -8 13 -8 33 -1 41 4 20 12 -7 2 -22 1 -33 -4z"/>
<path d="M2297 473 c-4 -3 -7 -11 -7 -17 0 -6 5 -5 12 2 6 6 9 14 7 17 -3 3
-9 2 -12 -2z"/>
<path d="M1268 463 c17 -2 47 -2 65 0 17 2 3 4 -33 4 -36 0 -50 -2 -32 -4z"/>
<path d="M1456 462 c-2 -4 13 -6 35 -4 21 2 39 6 39 8 0 7 -69 4 -74 -4z"/>
<path d="M1790 450 c-24 -3 -31 -8 -22 -13 7 -5 20 -6 28 -3 16 6 59 -10 88
-33 18 -15 19 -15 13 2 -4 10 -7 21 -7 23 0 2 -10 4 -22 4 -17 0 -19 3 -10 9
19 11 -22 18 -68 11z"/>
<path d="M2315 451 c-6 -5 -19 -11 -30 -14 -20 -5 -19 -5 1 -6 11 0 29 6 40
14 10 8 14 15 9 15 -6 0 -15 -4 -20 -9z"/>
<path d="M363 424 c-9 -9 -10 -15 -2 -20 14 -8 30 8 21 22 -5 9 -10 8 -19 -2z"/>
<path d="M418 433 c6 -2 18 -2 25 0 6 3 1 5 -13 5 -14 0 -19 -2 -12 -5z"/>
<path d="M935 430 c-4 -6 7 -10 27 -9 27 0 30 2 13 9 -27 12 -33 12 -40 0z"/>
<path d="M323 423 c4 -3 10 -3 14 0 3 4 0 7 -7 7 -7 0 -10 -3 -7 -7z"/>
<path d="M585 420 c27 -12 43 -12 25 0 -8 5 -22 9 -30 9 -10 0 -8 -3 5 -9z"/>
<path d="M1008 423 c7 -3 16 -2 19 1 4 3 -2 6 -13 5 -11 0 -14 -3 -6 -6z"/>
<path d="M1123 423 c4 -3 10 -3 14 0 3 4 0 7 -7 7 -7 0 -10 -3 -7 -7z"/>
<path d="M2083 423 c4 -3 10 -3 14 0 3 4 0 7 -7 7 -7 0 -10 -3 -7 -7z"/>
<path d="M524 408 c-3 -4 4 -8 15 -8 10 0 26 -3 35 -6 9 -3 16 -2 16 4 0 12
-59 22 -66 10z"/>
<path d="M640 407 c0 -8 17 -12 45 -12 51 0 47 10 -7 18 -26 4 -38 2 -38 -6z"/>
<path d="M897 410 c15 -6 20 -15 16 -29 -4 -15 -1 -21 11 -21 9 0 16 4 16 8 0
29 193 44 274 21 39 -11 39 -11 -5 -36 -63 -37 -126 -100 -161 -160 -32 -56
-54 -71 -38 -25 9 25 9 26 -5 8 -8 -10 -16 -24 -19 -30 -3 -7 -8 -6 -15 4 -5
8 -13 12 -16 8 -8 -7 -14 -128 -7 -146 8 -24 22 -12 22 20 0 36 20 98 32 98
12 0 10 -23 -7 -70 -18 -50 -18 -60 -5 -60 5 0 12 11 16 25 3 14 9 25 13 25 3
0 7 18 7 39 2 43 43 128 79 161 22 21 22 21 34 -9 11 -24 10 -34 -4 -58 -17
-28 -17 -28 4 -3 27 32 37 42 56 58 8 7 15 18 15 24 0 7 -9 2 -20 -10 -26 -28
-32 -27 -46 2 -13 28 0 44 70 86 35 21 50 23 140 21 56 -1 113 2 127 8 53 20
190 -72 251 -168 23 -36 28 -57 30 -110 1 -66 1 -66 7 -16 6 50 6 50 20 0 15
-52 27 -75 42 -75 14 0 10 37 -5 50 -8 6 -20 28 -27 48 -33 104 -119 205 -224
264 -58 33 -62 34 -95 20 -47 -19 -207 -13 -220 8 -11 17 -252 22 -304 6 -20
-6 -27 -6 -23 1 4 6 -3 13 -16 17 -32 9 -45 6 -20 -4z m70 -307 c-4 -3 -7 0
-7 7 0 7 3 10 7 7 3 -4 3 -10 0 -14z"/>
<path d="M1423 413 c4 -3 10 -3 14 0 3 4 0 7 -7 7 -7 0 -10 -3 -7 -7z"/>
<path d="M1452 415 c9 -9 94 -14 107 -6 7 5 -13 9 -50 10 -34 1 -60 -1 -57 -4z"/>
<path d="M1580 410 c0 -7 3 -10 7 -7 3 4 3 10 0 14 -4 3 -7 0 -7 -7z"/>
<path d="M1607 413 c-3 -5 35 -7 84 -5 78 3 93 1 120 -18 16 -12 33 -20 36
-17 3 3 -10 15 -28 26 -35 21 -201 32 -212 14z"/>
<path d="M815 400 c11 -5 27 -9 35 -9 9 0 8 4 -5 9 -11 5 -27 9 -35 9 -9 0 -8
-4 5 -9z"/>
<path d="M1865 359 c1 -17 8 -35 16 -40 8 -5 9 -9 2 -9 -8 0 -8 -6 0 -25 12
-24 12 -24 18 -2 3 12 0 32 -7 44 -8 12 -14 31 -14 43 0 11 -4 20 -8 20 -5 0
-8 -14 -7 -31z"/>
<path d="M598 373 c6 -2 18 -2 25 0 6 3 1 5 -13 5 -14 0 -19 -2 -12 -5z"/>
<path d="M1436 335 c4 -8 8 -15 10 -15 2 0 4 7 4 15 0 8 -4 15 -10 15 -5 0 -7
-7 -4 -15z"/>
<path d="M2265 343 c11 -3 24 -8 28 -13 9 -8 32 -103 42 -175 13 -98 17 -120
22 -125 9 -8 -7 141 -24 215 -20 92 -28 105 -61 104 -21 -1 -22 -2 -7 -6z"/>
<path d="M1320 330 c0 -13 -52 -38 -70 -33 -9 3 -8 0 3 -7 14 -9 22 -9 32 0 8
7 21 10 28 7 8 -3 14 4 15 19 1 13 0 24 -3 24 -3 0 -5 -4 -5 -10z"/>
<path d="M1807 265 c3 -44 9 -86 13 -94 4 -7 5 22 2 65 -2 44 -8 86 -13 94 -4
8 -5 -21 -2 -65z"/>
<path d="M1377 310 c3 -11 9 -17 14 -15 10 7 1 35 -11 35 -5 0 -6 -9 -3 -20z"/>
<path d="M1930 320 c0 -5 4 -10 9 -10 17 0 30 -60 37 -172 4 -62 11 -120 15
-128 9 -15 2 150 -7 179 -3 8 0 17 5 21 11 6 -12 84 -31 107 -13 15 -28 17
-28 3z"/>
<path d="M953 313 c4 -3 10 -3 14 0 3 4 0 7 -7 7 -7 0 -10 -3 -7 -7z"/>
<path d="M913 303 c4 -3 10 -3 14 0 3 4 0 7 -7 7 -7 0 -10 -3 -7 -7z"/>
<path d="M1470 306 c0 -2 9 -6 20 -9 11 -3 20 -1 20 4 0 5 -9 9 -20 9 -11 0
-20 -2 -20 -4z"/>
<path d="M1556 302 c-2 -4 -1 -14 5 -22 7 -12 9 -10 9 8 0 23 -5 28 -14 14z"/>
<path d="M233 293 c4 -3 10 -3 14 0 3 4 0 7 -7 7 -7 0 -10 -3 -7 -7z"/>
<path d="M1041 289 c17 -11 46 -12 52 -1 3 4 -11 8 -30 8 -23 1 -30 -1 -22 -7z"/>
<path d="M1185 290 c3 -5 8 -10 11 -10 3 0 2 5 -1 10 -3 6 -8 10 -11 10 -3 0
-2 -4 1 -10z"/>
<path d="M948 283 c6 -2 18 -2 25 0 6 3 1 5 -13 5 -14 0 -19 -2 -12 -5z"/>
<path d="M1500 270 c0 -5 5 -10 11 -10 5 0 7 5 4 10 -3 6 -8 10 -11 10 -2 0
-4 -4 -4 -10z"/>
<path d="M807 263 c-4 -3 -7 -26 -7 -50 0 -38 -23 -86 -37 -75 -9 7 -23 0 -17
-9 4 -8 9 -7 16 2 7 10 8 8 3 -7 -3 -14 0 -24 9 -27 8 -3 18 -27 23 -54 7 -41
9 -27 14 87 6 142 6 144 -4 133z m-7 -145 c0 -23 -3 -29 -11 -21 -6 6 -8 20
-4 32 9 30 15 26 15 -11z"/>
<path d="M1207 216 c-34 -33 -66 -75 -81 -108 -13 -29 -31 -62 -39 -73 -16
-19 -16 -19 -11 5 3 14 15 42 26 63 11 21 18 41 15 44 -3 3 -17 -18 -32 -46
-14 -29 -30 -49 -35 -46 -13 8 -13 1 2 -30 12 -26 32 -33 43 -15 4 6 11 8 16
5 5 -3 6 0 3 8 -8 23 62 151 104 189 37 33 58 58 50 58 -2 0 -29 -24 -61 -54z"/>
<path d="M659 240 c24 -11 46 -20 50 -20 12 1 -64 39 -79 39 -8 0 5 -8 29 -19z"/>
<path d="M864 248 c-4 -7 -3 -8 4 -4 7 4 12 9 12 12 0 8 -9 4 -16 -8z"/>
<path d="M1575 221 c66 -63 125 -158 125 -201 0 -11 5 -20 10 -20 39 0 -49
166 -119 224 -57 47 -67 46 -16 -3z"/>
<path d="M520 229 c-35 -20 -28 -19 40 7 22 8 27 13 15 13 -11 0 -36 -9 -55
-20z"/>
<path d="M1933 205 c0 -22 2 -30 4 -17 2 12 2 30 0 40 -3 9 -5 -1 -4 -23z"/>
<path d="M852 190 c0 -19 2 -27 5 -17 2 9 2 25 0 35 -3 9 -5 1 -5 -18z"/>
<path d="M735 200 c3 -5 8 -10 11 -10 3 0 2 5 -1 10 -3 6 -8 10 -11 10 -3 0
-2 -4 1 -10z"/>
<path d="M471 163 c-19 -12 -28 -23 -20 -23 16 0 66 37 59 43 -3 2 -20 -7 -39
-20z"/>
<path d="M693 183 c4 -3 10 -3 14 0 3 4 0 7 -7 7 -7 0 -10 -3 -7 -7z"/>
<path d="M1572 170 c0 -14 2 -19 5 -12 2 6 2 18 0 25 -3 6 -5 1 -5 -13z"/>
<path d="M2261 175 c0 -11 4 -29 9 -40 9 -20 9 -20 9 0 0 11 -4 29 -9 40 -9
20 -9 20 -9 0z"/>
<path d="M322 120 c-1 -36 -5 -76 -8 -90 -5 -21 -4 -22 6 -8 6 11 9 48 7 90
-3 73 -3 73 -5 8z"/>
<path d="M1898 161 c-4 -13 -2 -34 3 -48 5 -13 9 -35 9 -48 0 -12 9 -33 20
-46 20 -24 20 -24 5 16 -8 22 -18 65 -23 95 -6 42 -9 50 -14 31z"/>
<path d="M2161 164 c0 -11 3 -14 6 -6 3 7 2 16 -1 19 -3 4 -6 -2 -5 -13z"/>
<path d="M357 110 c-4 -36 -10 -76 -13 -89 -5 -16 -4 -22 4 -17 11 7 27 121
20 152 -2 10 -7 -10 -11 -46z"/>
<path d="M1440 160 c0 -7 3 -10 7 -7 3 4 3 10 0 14 -4 3 -7 0 -7 -7z"/>
<path d="M1686 148 c10 -36 26 -58 20 -28 -3 14 -6 31 -6 38 0 6 -5 12 -11 12
-6 0 -8 -9 -3 -22z"/>
<path d="M390 133 c0 -16 -3 -53 -6 -83 -4 -41 -3 -51 5 -38 6 9 12 42 14 73
2 35 9 60 18 66 11 7 9 9 -8 9 -18 0 -23 -6 -23 -27z"/>
<path d="M1941 144 c0 -11 3 -14 6 -6 3 7 2 16 -1 19 -3 4 -6 -2 -5 -13z"/>
<path d="M853 105 c0 -27 2 -38 4 -22 2 15 2 37 0 50 -2 12 -4 0 -4 -28z"/>
<path d="M1840 140 c0 -7 3 -10 7 -7 3 4 3 10 0 14 -4 3 -7 0 -7 -7z"/>
<path d="M1573 103 c1 -24 5 -39 10 -34 4 4 4 23 -1 42 -10 34 -10 34 -9 -8z"/>
<path d="M2172 120 c0 -14 2 -19 5 -12 2 6 2 18 0 25 -3 6 -5 1 -5 -13z"/>
<path d="M1840 80 c28 -56 35 -63 26 -27 -4 16 -16 38 -28 50 -19 21 -19 20 2
-23z"/>
<path d="M660 100 c0 -7 3 -10 7 -7 3 4 3 10 0 14 -4 3 -7 0 -7 -7z"/>
<path d="M2282 90 c0 -14 2 -19 5 -12 2 6 2 18 0 25 -3 6 -5 1 -5 -13z"/>
<path d="M1448 63 c6 -65 10 -70 11 -15 0 28 -3 52 -7 52 -4 0 -6 -17 -4 -37z"/>
<path d="M921 74 c0 -11 3 -14 6 -6 3 7 2 16 -1 19 -3 4 -6 -2 -5 -13z"/>
<path d="M1333 83 c4 -3 10 -3 14 0 3 4 0 7 -7 7 -7 0 -10 -3 -7 -7z"/>
<path d="M1480 82 c0 -6 4 -12 10 -12 5 0 12 -11 16 -25 3 -13 13 -30 21 -36
12 -11 12 -8 2 17 -15 34 -49 74 -49 56z"/>
<path d="M2180 80 c0 -7 3 -10 7 -7 3 4 3 10 0 14 -4 3 -7 0 -7 -7z"/>
<path d="M2050 70 c0 -7 3 -10 7 -7 3 4 3 10 0 14 -4 3 -7 0 -7 -7z"/>
<path d="M2071 57 c-1 -19 -5 -26 -13 -21 -7 4 -8 3 -4 -5 4 -6 12 -8 18 -5 7
5 9 1 5 -9 -3 -10 -2 -17 3 -17 12 0 11 24 0 60 -8 25 -8 25 -9 -3z"/>
<path d="M1325 60 c3 -5 8 -10 11 -10 2 0 4 5 4 10 0 6 -5 10 -11 10 -5 0 -7
-4 -4 -10z"/>
<path d="M1950 47 c0 -14 5 -29 10 -32 7 -4 8 3 4 22 -9 38 -14 42 -14 10z"/>
<path d="M1367 29 c8 -16 18 -28 21 -25 7 7 -18 56 -29 56 -4 0 -1 -14 8 -31z"/>
<path d="M450 41 c0 -5 5 -13 10 -16 6 -3 10 -2 10 4 0 5 -4 13 -10 16 -5 3
-10 2 -10 -4z"/>
<path d="M840 40 c0 -7 3 -10 7 -7 3 4 3 10 0 14 -4 3 -7 0 -7 -7z"/>
<path d="M912 30 c0 -14 2 -19 5 -12 2 6 2 18 0 25 -3 6 -5 1 -5 -13z"/>
<path d="M1327 33 c-14 -13 -6 -33 13 -33 11 0 20 4 20 9 0 13 -26 32 -33 24z"/>
<path d="M740 15 c-7 -9 -8 -15 -2 -15 5 0 12 7 16 15 7 19 2 19 -14 0z"/>
<path d="M1131 14 c0 -11 3 -14 6 -6 3 7 2 16 -1 19 -3 4 -6 -2 -5 -13z"/>
<path d="M650 10 c0 -5 5 -10 11 -10 5 0 7 5 4 10 -3 6 -8 10 -11 10 -2 0 -4
-4 -4 -10z"/>
</g>
</svg>
