<?xml version="1.0" standalone="no"?>
<!DOCTYPE svg PUBLIC "-//W3C//DTD SVG 20010904//EN"
 "http://www.w3.org/TR/2001/REC-SVG-20010904/DTD/svg10.dtd">
<svg version="1.0" xmlns="http://www.w3.org/2000/svg"
 width="384.000000pt" height="256.000000pt" viewBox="0 0 384.000000 256.000000"
 preserveAspectRatio="xMidYMid meet">
<metadata>
Created by potrace 1.16, written by Peter Selinger 2001-2019
</metadata>
<g transform="translate(0.000000,256.000000) scale(0.100000,-0.100000)"
fill="#000000" stroke="none">
<path d="M273 2547 c3 -7 -2 -38 -10 -68 -33 -125 -50 -249 -33 -259 8 -5 7
-9 -4 -13 -8 -3 -21 0 -28 7 -9 9 -23 10 -46 4 -37 -10 -36 -28 1 -21 16 3 26
-1 30 -11 4 -9 2 -16 -2 -16 -5 0 -12 6 -14 13 -3 6 -5 -33 -4 -88 1 -100 1
-100 7 -15 3 47 8 69 9 50 2 -19 3 -39 2 -43 -4 -23 -1 -805 3 -818 2 -8 7
-67 11 -132 3 -65 13 -153 21 -195 9 -42 19 -108 24 -147 7 -70 7 -70 9 17 0
49 -3 90 -9 93 -5 3 -10 20 -10 36 0 17 4 28 9 25 4 -3 8 35 7 84 -1 50 -4 90
-8 90 -5 0 -9 8 -10 18 -1 9 -4 -10 -8 -43 -6 -51 -7 -43 -10 60 -1 66 -5 163
-8 215 -12 220 -3 750 13 773 15 21 15 21 15 -6 0 -15 5 -27 11 -27 8 0 10
-31 7 -106 -4 -79 -2 -108 8 -118 10 -10 14 -86 17 -329 3 -174 8 -320 11
-325 3 -6 0 -13 -6 -15 -9 -4 -9 -8 -3 -14 6 -4 10 -53 10 -108 0 -140 7 -206
19 -202 15 5 46 -43 47 -73 1 -17 3 -20 6 -7 2 9 -5 48 -16 85 -21 71 -26 108
-37 316 -5 96 -4 127 4 122 13 -8 7 45 -9 80 -6 11 -9 40 -6 65 4 44 4 44 5
-8 1 -30 7 -53 13 -53 5 0 8 4 5 8 -2 4 -7 95 -11 202 -6 193 -17 276 -35 265
-6 -4 -10 6 -10 21 0 15 -2 115 -4 223 -4 203 3 281 29 307 21 21 20 94 -1 94
-9 0 -14 -6 -11 -13z m-36 -294 c-3 -10 -5 -2 -5 17 0 19 2 27 5 18 2 -10 2
-26 0 -35z m60 -1165 c-3 -8 -6 -5 -6 6 -1 11 2 17 5 13 3 -3 4 -12 1 -19z
m10 -115 c-4 -3 -7 0 -7 7 0 7 3 10 7 7 3 -4 3 -10 0 -14z"/>
<path d="M2 2195 c2 -255 6 -324 16 -320 6 2 12 0 12 -4 0 -5 -5 -11 -11 -13
-18 -6 -19 -68 -1 -68 12 0 12 -2 1 -17 -11 -13 -11 -17 -1 -20 6 -3 10 -9 7
-14 -7 -10 -5 -865 2 -964 6 -92 21 -476 25 -642 2 -72 7 -129 11 -126 8 5 5
160 -14 623 -11 275 -11 376 -3 367 4 -3 8 -26 11 -49 2 -24 5 -56 7 -73 7
-62 16 -194 21 -305 4 -105 19 -360 30 -504 2 -32 6 -61 9 -64 9 -9 6 177 -3
248 -5 36 -12 128 -16 205 -4 77 -11 212 -17 300 -6 88 -11 351 -13 585 -2
425 -2 425 6 60 4 -201 12 -417 18 -480 14 -142 29 -356 37 -515 4 -66 10
-127 14 -135 4 -8 8 -60 9 -116 1 -55 6 -114 11 -130 7 -20 9 5 5 86 -3 63 -6
169 -7 235 -1 109 -2 113 -7 45 -5 -67 -7 -58 -15 90 -8 164 -15 276 -35 570
-6 85 -12 383 -13 661 -3 506 -3 506 -27 517 -14 7 -34 12 -44 12 -16 0 -17 3
-7 15 6 8 9 22 6 32 -3 10 -6 66 -8 126 -1 59 -6 107 -11 107 -4 0 -6 -146 -5
-325z m40 20 c10 -4 13 -22 12 -63 -1 -31 0 -46 3 -32 12 64 20 28 22 -108 2
-119 -1 -151 -12 -160 -12 -11 -14 -3 -12 48 1 33 -1 63 -6 66 -5 3 -9 -2 -9
-10 0 -9 -4 -16 -9 -16 -5 0 -9 61 -8 140 1 77 3 140 4 140 1 0 8 -2 15 -5z
m-11 -312 c-8 -15 -10 -15 -11 -2 0 17 10 32 18 25 2 -3 -1 -13 -7 -23z m-1
-73 c0 -5 -5 -10 -11 -10 -5 0 -7 5 -4 10 3 6 8 10 11 10 2 0 4 -4 4 -10z m47
-7 c-4 -3 -7 0 -7 7 0 7 3 10 7 7 3 -4 3 -10 0 -14z m-26 -26 c-10 -9 -11 -8
-5 6 3 10 9 15 12 12 3 -3 0 -11 -7 -18z m26 -14 c-4 -3 -7 0 -7 7 0 7 3 10 7
7 3 -4 3 -10 0 -14z m-17 -17 c0 -3 -5 -8 -12 -12 -7 -4 -8 -3 -4 4 7 12 16
16 16 8z m-9 -73 c-4 -28 -6 -32 -9 -15 -3 22 3 52 11 52 1 0 1 -17 -2 -37z
m-4 -70 c-4 -3 -7 0 -7 7 0 7 3 10 7 7 3 -4 3 -10 0 -14z m3 -113 c0 -5 -2
-10 -4 -10 -3 0 -8 5 -11 10 -3 6 -1 10 4 10 6 0 11 -4 11 -10z m0 -80 c0 -5
-2 -10 -4 -10 -3 0 -8 5 -11 10 -3 6 -1 10 4 10 6 0 11 -4 11 -10z m-3 -37
c-4 -3 -10 -3 -14 0 -3 4 0 7 7 7 7 0 10 -3 7 -7z m3 -37 c0 -3 -4 -8 -10 -11
-5 -3 -10 -1 -10 4 0 6 5 11 10 11 6 0 10 -2 10 -4z m-5 -35 c3 -5 1 -12 -5
-16 -5 -3 -10 1 -10 9 0 18 6 21 15 7z m0 -40 c3 -5 1 -12 -5 -16 -5 -3 -10 1
-10 9 0 18 6 21 15 7z m0 -40 c3 -5 1 -12 -5 -16 -5 -3 -10 1 -10 9 0 18 6 21
15 7z m10 -116 c0 -52 -3 -97 -6 -100 -4 -3 -5 21 -4 52 1 32 -2 64 -8 71 -8
10 -7 16 4 23 10 6 10 9 2 9 -7 0 -13 7 -13 16 0 8 5 12 10 9 6 -3 10 -1 10 4
0 6 1 11 3 11 2 0 3 -43 2 -95z m102 -842 c-4 -3 -7 0 -7 7 0 7 3 10 7 7 3 -4
3 -10 0 -14z"/>
<path d="M43 2025 c-3 -9 -3 -18 -1 -21 3 -3 8 4 11 16 6 23 -1 27 -10 5z"/>
<path d="M60 1890 c0 -7 3 -10 7 -7 3 4 3 10 0 14 -4 3 -7 0 -7 -7z"/>
<path d="M125 2439 c-3 -45 -3 -85 2 -88 10 -8 33 -72 33 -94 0 -9 5 -17 11
-17 12 0 2 62 -12 71 -5 3 -12 27 -15 55 -8 59 7 52 17 -9 6 -38 7 -36 7 23 0
36 -2 59 -5 53 -12 -31 -22 -9 -16 37 4 31 2 50 -4 50 -6 0 -14 -37 -18 -81z"/>
<path d="M528 2493 c5 -21 7 -23 10 -9 2 10 0 22 -6 28 -6 6 -7 0 -4 -19z"/>
<path d="M593 2503 c4 -3 10 -3 14 0 3 4 0 7 -7 7 -7 0 -10 -3 -7 -7z"/>
<path d="M630 2490 c0 -3 7 -13 14 -23 13 -16 14 -16 19 4 4 16 11 20 24 15 9
-4 14 -3 9 1 -8 9 -66 11 -66 3z"/>
<path d="M744 2465 c21 -16 32 -13 21 4 -3 6 -14 11 -23 11 -15 -1 -15 -2 2
-15z"/>
<path d="M276 2423 c-6 -14 -5 -15 5 -6 7 7 10 15 7 18 -3 3 -9 -2 -12 -12z"/>
<path d="M640 2430 c0 -7 3 -10 7 -7 3 4 3 10 0 14 -4 3 -7 0 -7 -7z"/>
<path d="M861 2424 c0 -11 3 -14 6 -6 3 7 2 16 -1 19 -3 4 -6 -2 -5 -13z"/>
<path d="M961 2431 c-7 -5 -11 -15 -9 -22 3 -10 8 -7 17 9 13 24 12 26 -8 13z"/>
<path d="M535 2419 c-4 -6 -5 -12 -2 -15 2 -3 7 2 10 11 7 17 1 20 -8 4z"/>
<path d="M752 2405 c0 -16 2 -22 5 -12 2 9 2 23 0 30 -3 6 -5 -1 -5 -18z"/>
<path d="M1033 2413 c4 -3 10 -3 14 0 3 4 0 7 -7 7 -7 0 -10 -3 -7 -7z"/>
<path d="M1133 2403 c4 -3 10 -3 14 0 3 4 0 7 -7 7 -7 0 -10 -3 -7 -7z"/>
<path d="M850 2390 c0 -7 3 -10 7 -7 3 4 3 10 0 14 -4 3 -7 0 -7 -7z"/>
<path d="M940 2355 c-7 -20 -9 -43 -6 -51 3 -9 1 -12 -4 -9 -6 4 -10 -7 -9
-27 1 -22 3 -26 6 -13 3 11 10 23 15 26 8 5 21 109 13 109 -2 0 -9 -16 -15
-35z"/>
<path d="M1198 2383 c7 -3 16 -2 19 1 4 3 -2 6 -13 5 -11 0 -14 -3 -6 -6z"/>
<path d="M1265 2380 c5 -7 -16 -127 -41 -240 -4 -20 -3 -23 7 -13 7 7 14 23
15 35 7 55 27 165 34 190 8 26 5 38 -12 38 -5 0 -7 -4 -3 -10z"/>
<path d="M1338 2349 c2 -16 -1 -50 -7 -75 -11 -43 -9 -65 4 -52 11 11 18 145
8 151 -5 3 -8 -6 -5 -24z"/>
<path d="M751 2354 c0 -11 3 -14 6 -6 3 7 2 16 -1 19 -3 4 -6 -2 -5 -13z"/>
<path d="M837 2357 c-12 -31 -9 -56 4 -34 6 10 9 25 7 35 -3 16 -4 15 -11 -1z"/>
<path d="M1030 2353 c0 -11 -7 -37 -15 -56 -8 -20 -15 -44 -14 -54 0 -10 7 4
16 31 11 37 17 46 24 35 6 -9 7 -2 3 21 -8 41 -14 51 -14 23z"/>
<path d="M1406 2332 c3 -16 -1 -45 -10 -67 -20 -48 -33 -171 -17 -161 6 4 12
37 13 74 1 62 1 63 7 22 6 -42 7 -40 14 35 4 44 10 90 13 103 5 16 2 22 -10
22 -12 0 -14 -7 -10 -28z"/>
<path d="M1120 2340 c0 -7 3 -10 7 -7 3 4 3 10 0 14 -4 3 -7 0 -7 -7z"/>
<path d="M1488 2333 c7 -3 16 -2 19 1 4 3 -2 6 -13 5 -11 0 -14 -3 -6 -6z"/>
<path d="M607 2310 c-3 -11 -1 -20 4 -20 5 0 9 9 9 20 0 11 -2 20 -4 20 -2 0
-6 -9 -9 -20z"/>
<path d="M720 2285 c-21 -84 -28 -125 -19 -125 5 0 9 10 9 23 0 13 7 47 16 76
8 29 13 58 11 64 -2 6 -9 -11 -17 -38z"/>
<path d="M1534 2298 c-1 -18 -6 -75 -11 -125 -5 -51 -6 -93 -2 -93 3 0 9 36
13 81 4 44 9 100 13 125 3 24 2 44 -3 44 -5 0 -10 -15 -10 -32z"/>
<path d="M1097 2273 c-22 -66 -32 -143 -18 -143 7 0 11 20 11 49 0 28 4 52 9
55 5 3 11 16 14 28 2 13 8 31 12 41 4 9 3 17 -2 17 -5 0 -16 -21 -26 -47z"/>
<path d="M1172 2228 c-12 -50 -19 -95 -16 -99 11 -19 26 -8 21 16 -4 26 14
132 27 153 3 6 3 13 -2 16 -4 3 -18 -36 -30 -86z"/>
<path d="M1482 2290 c0 -19 2 -27 5 -17 2 9 2 25 0 35 -3 9 -5 1 -5 -18z"/>
<path d="M1603 2280 c-1 -21 -9 -60 -17 -85 -9 -25 -15 -65 -15 -88 2 -42 2
-42 9 3 4 25 15 72 24 105 17 64 21 105 8 105 -4 0 -8 -18 -9 -40z"/>
<path d="M1658 2280 c2 -16 6 -30 8 -30 2 0 4 14 4 30 0 17 -4 30 -8 30 -5 0
-7 -13 -4 -30z"/>
<path d="M823 2285 c-3 -9 -3 -18 -1 -21 3 -3 8 4 11 16 6 23 -1 27 -10 5z"/>
<path d="M1722 2263 c-2 -21 -7 -53 -13 -70 -6 -18 -8 -41 -6 -50 3 -11 6 -6
7 12 3 30 3 30 10 -5 6 -29 8 -22 9 35 1 39 4 80 7 93 4 12 2 22 -3 22 -5 0
-10 -17 -11 -37z"/>
<path d="M1777 2243 c-11 -91 -16 -182 -8 -133 7 45 7 45 12 10 3 -19 6 11 7
68 2 110 -3 131 -11 55z"/>
<path d="M2028 2283 c6 -2 18 -2 25 0 6 3 1 5 -13 5 -14 0 -19 -2 -12 -5z"/>
<path d="M1837 2273 c-4 -3 -7 -18 -6 -32 1 -26 1 -25 10 3 9 31 7 41 -4 29z"/>
<path d="M2078 2273 c7 -3 16 -2 19 1 4 3 -2 6 -13 5 -11 0 -14 -3 -6 -6z"/>
<path d="M350 2260 c0 -7 3 -10 7 -7 3 4 3 10 0 14 -4 3 -7 0 -7 -7z"/>
<path d="M1886 2259 c-7 -22 -16 -88 -20 -149 -3 -55 -3 -55 4 -5 4 28 8 43
10 35 1 -8 6 17 10 55 7 67 5 93 -4 64z"/>
<path d="M2128 2263 c6 -2 18 -2 25 0 6 3 1 5 -13 5 -14 0 -19 -2 -12 -5z"/>
<path d="M622 2235 c0 -16 2 -22 5 -12 2 9 2 23 0 30 -3 6 -5 -1 -5 -18z"/>
<path d="M1927 2225 c-4 -22 -6 -74 -6 -115 2 -75 2 -75 11 15 10 103 7 165
-5 100z"/>
<path d="M2173 2253 c4 -3 10 -3 14 0 3 4 0 7 -7 7 -7 0 -10 -3 -7 -7z"/>
<path d="M820 2231 c0 -12 -4 -19 -10 -16 -6 3 -13 -1 -17 -10 -3 -10 0 -21 7
-25 9 -6 0 -10 -26 -13 -39 -4 -39 -4 3 -5 41 -2 41 -2 48 39 4 22 4 43 1 46
-3 4 -6 -4 -6 -16z m-13 -38 c-4 -3 -7 0 -7 7 0 7 3 10 7 7 3 -4 3 -10 0 -14z"/>
<path d="M1981 2234 c0 -11 3 -14 6 -6 3 7 2 16 -1 19 -3 4 -6 -2 -5 -13z"/>
<path d="M2225 2240 c11 -5 29 -9 40 -9 20 0 20 0 0 9 -11 5 -29 9 -40 9 -20
0 -20 0 0 -9z"/>
<path d="M360 2230 c0 -7 3 -10 7 -7 3 4 3 10 0 14 -4 3 -7 0 -7 -7z"/>
<path d="M1472 2188 c-7 -32 -12 -68 -9 -80 7 -43 28 30 25 86 -3 51 -3 51
-16 -6z"/>
<path d="M260 2225 c0 -3 6 -16 14 -28 8 -12 23 -65 34 -117 11 -52 21 -86 21
-75 0 21 -15 136 -23 170 -2 11 -5 23 -5 27 -1 9 -41 31 -41 23z"/>
<path d="M912 2197 c3 -30 1 -37 -17 -40 -15 -3 -13 -5 8 -6 24 -1 27 2 27 33
0 19 -5 38 -11 42 -8 5 -10 -4 -7 -29z"/>
<path d="M1672 2205 c0 -16 2 -22 5 -12 2 9 2 23 0 30 -3 6 -5 -1 -5 -18z"/>
<path d="M2066 2222 c-3 -5 -8 -40 -10 -78 -6 -69 -6 -69 9 6 13 71 14 92 1
72z"/>
<path d="M2291 2226 c2 -2 18 -6 34 -10 22 -5 26 -4 15 4 -14 9 -59 15 -49 6z"/>
<path d="M2106 2189 c-17 -100 -25 -163 -21 -167 7 -7 12 16 24 107 11 82 8
127 -3 60z"/>
<path d="M2360 2216 c0 -2 7 -7 16 -10 8 -3 12 -2 9 4 -6 10 -25 14 -25 6z"/>
<path d="M1816 2195 c-3 -9 -5 -44 -5 -78 2 -62 2 -62 9 13 8 78 7 92 -4 65z"/>
<path d="M1961 2141 c-13 -84 -14 -123 -2 -101 9 15 25 170 18 170 -2 0 -9
-31 -16 -69z"/>
<path d="M2153 2170 c0 -25 2 -35 4 -22 2 12 2 32 0 45 -2 12 -4 2 -4 -23z"/>
<path d="M2187 2188 c-4 -13 -9 -51 -11 -83 -5 -53 -4 -51 9 20 13 75 14 113
2 63z"/>
<path d="M2415 2200 c11 -5 29 -8 40 -8 16 0 15 2 -5 8 -34 11 -60 11 -35 0z"/>
<path d="M550 2190 c0 -5 5 -10 11 -10 5 0 7 5 4 10 -3 6 -8 10 -11 10 -2 0
-4 -4 -4 -10z"/>
<path d="M635 2191 c3 -5 -7 -12 -22 -14 -22 -3 -20 -4 11 -6 33 -1 37 1 26
14 -14 16 -25 20 -15 6z"/>
<path d="M991 2161 c-2 -40 12 -33 22 10 5 17 2 26 -6 26 -8 0 -14 -15 -16
-36z"/>
<path d="M1321 2175 c-2 -26 -3 -27 -11 -10 -7 16 -9 13 -9 -17 -1 -21 4 -38
9 -38 15 0 22 24 17 62 -4 33 -4 33 -6 3z"/>
<path d="M345 2180 c3 -5 8 -10 11 -10 2 0 4 5 4 10 0 6 -5 10 -11 10 -5 0 -7
-4 -4 -10z"/>
<path d="M387 2178 c6 -7 13 -26 16 -43 4 -27 4 -26 6 8 1 45 30 50 43 7 6
-23 7 -23 5 5 -2 27 -6 30 -41 33 -32 3 -37 1 -29 -10z"/>
<path d="M2224 2176 c-3 -7 -4 -33 -2 -57 3 -43 4 -42 8 14 5 58 4 68 -6 43z"/>
<path d="M2262 2170 c0 -14 2 -19 5 -12 2 6 2 18 0 25 -3 6 -5 1 -5 -13z"/>
<path d="M2300 2180 c0 -7 3 -10 7 -7 3 4 3 10 0 14 -4 3 -7 0 -7 -7z"/>
<path d="M2495 2181 c-9 -15 12 -22 42 -15 25 7 25 8 8 15 -28 11 -43 11 -50
0z m32 -7 c-3 -3 -12 -4 -19 -1 -8 3 -5 6 6 6 11 1 17 -2 13 -5z"/>
<path d="M519 2114 c-1 -38 -4 -151 -8 -251 -3 -99 -3 -179 0 -177 9 5 23 483
15 491 -3 4 -7 -25 -7 -63z"/>
<path d="M1683 2135 c0 -22 2 -30 4 -17 2 12 2 30 0 40 -3 9 -5 -1 -4 -23z"/>
<path d="M2555 2161 c-17 -7 -16 -8 9 -15 35 -9 75 2 55 15 -17 10 -37 10 -64
0z m48 -8 c-7 -2 -19 -2 -25 0 -7 3 -2 5 12 5 14 0 19 -2 13 -5z"/>
<path d="M215 2037 c0 -56 -3 -178 -7 -272 -4 -93 -3 -154 2 -135 6 27 8 14 8
-55 0 -207 2 -278 8 -273 8 9 5 808 -4 823 -4 8 -7 -32 -7 -88z m2 -334 c-4
-3 -7 0 -7 7 0 7 3 10 7 7 3 -4 3 -10 0 -14z"/>
<path d="M2252 2105 c0 -16 2 -22 5 -12 2 9 2 23 0 30 -3 6 -5 -1 -5 -18z"/>
<path d="M2360 2120 c0 -7 3 -10 7 -7 3 4 3 10 0 14 -4 3 -7 0 -7 -7z"/>
<path d="M502 2080 c0 -19 2 -27 5 -17 2 9 2 25 0 35 -3 9 -5 1 -5 -18z"/>
<path d="M1705 2100 c3 -5 8 -10 11 -10 2 0 4 5 4 10 0 6 -5 10 -11 10 -5 0
-7 -4 -4 -10z"/>
<path d="M2021 2085 c0 -17 -6 -36 -13 -43 -9 -9 -9 -12 0 -12 17 0 24 22 19
57 -4 28 -4 28 -6 -2z"/>
<path d="M2141 2068 c-1 -27 3 -48 7 -48 4 0 6 17 4 38 -5 58 -10 62 -11 10z"/>
<path d="M412 2080 c0 -14 2 -19 5 -12 2 6 2 18 0 25 -3 6 -5 1 -5 -13z"/>
<path d="M120 2080 c0 -7 3 -10 7 -7 3 4 3 10 0 14 -4 3 -7 0 -7 -7z"/>
<path d="M550 2069 c0 -5 16 -9 35 -9 19 0 35 -4 35 -9 0 -8 90 -5 99 4 2 3
-16 5 -40 5 -24 1 -63 5 -86 9 -24 5 -43 4 -43 0z"/>
<path d="M1664 2046 c-15 -12 -16 -17 -7 -27 10 -10 14 -9 19 4 17 46 24 0 26
-180 2 -198 2 -198 8 2 6 200 6 200 8 -65 2 -362 8 -350 -159 -369 -52 -6
-170 -20 -264 -31 -93 -11 -306 -36 -473 -55 -166 -20 -308 -33 -315 -29 -9 5
-9 4 0 -7 7 -7 13 -28 13 -46 0 -37 2 -38 81 -23 30 6 70 13 89 16 19 2 44 6
55 9 27 5 258 33 320 39 57 4 55 9 58 -147 1 -35 5 -56 12 -54 6 3 9 29 7 65
-1 33 1 63 5 65 8 5 14 -23 17 -80 2 -64 17 -32 16 35 -1 37 -1 72 0 77 1 6 1
20 1 31 -3 27 39 38 221 59 70 8 137 17 150 19 62 14 148 14 148 0 0 -17 17
-18 23 -1 3 6 5 -19 5 -58 -1 -38 -3 -58 -5 -42 -2 15 -9 27 -14 27 -12 0 -11
-12 1 -44 18 -48 30 -28 30 51 0 42 3 73 7 70 8 -8 11 -35 12 -101 1 -27 4
-46 8 -42 4 4 6 42 5 85 -1 78 -1 78 66 89 136 24 216 30 231 18 12 -9 14 -8
9 5 -5 13 -2 16 13 12 13 -4 19 -15 20 -37 1 -31 1 -31 9 -1 6 24 8 16 11 -40
3 -67 3 -67 6 -17 2 29 8 50 13 47 6 -3 7 0 4 8 -6 18 7 28 61 44 40 13 40 13
-11 8 -29 -3 -62 -1 -75 3 -21 8 -76 4 -169 -12 -83 -15 -109 -16 -115 -6 -3
5 0 10 7 10 7 0 81 9 163 20 83 11 155 20 160 21 6 0 1 4 -10 8 -11 5 -30 5
-42 0 -32 -12 -342 -43 -350 -36 -10 11 -11 37 -12 330 -1 183 -4 276 -11 272
-5 -3 -10 -1 -10 4 0 16 -53 13 -76 -3z m86 -327 c0 -259 2 -299 15 -299 8 0
15 -4 15 -10 0 -5 -7 -10 -15 -10 -8 0 -15 -4 -15 -10 0 -5 -3 -10 -8 -10 -4
0 -9 147 -11 326 -2 234 0 324 8 320 8 -5 11 -101 11 -307z m-25 -309 c3 -5 2
-10 -4 -10 -5 0 -13 5 -16 10 -3 6 -2 10 4 10 5 0 13 -4 16 -10z m-69 -19 c-3
-4 -22 -7 -43 -5 -30 3 -35 2 -23 -7 13 -9 13 -10 -2 -6 -9 3 -33 1 -54 -5
-31 -8 -133 -3 -122 7 1 2 32 6 68 9 35 4 66 9 69 11 8 9 112 5 107 -4z m-283
-28 c-7 -2 -21 -2 -30 0 -10 3 -4 5 12 5 17 0 24 -2 18 -5z m-143 -10 c-8 -3
-26 -14 -39 -24 -25 -20 -61 -25 -76 -10 -6 5 -23 12 -40 14 -21 3 -15 5 20 6
69 2 104 6 112 14 3 4 13 7 22 6 14 0 14 -1 1 -6z m47 1 c-3 -3 -12 -4 -19 -1
-8 3 -5 6 6 6 11 1 17 -2 13 -5z m33 -4 c0 -5 -5 -10 -11 -10 -5 0 -7 5 -4 10
3 6 8 10 11 10 2 0 4 -4 4 -10z m47 -6 c-3 -3 -12 -4 -19 -1 -8 3 -5 6 6 6 11
1 17 -2 13 -5z m-110 -11 c-4 -3 -10 -3 -14 0 -3 4 0 7 7 7 7 0 10 -3 7 -7z
m30 0 c-4 -3 -10 -3 -14 0 -3 4 0 7 7 7 7 0 10 -3 7 -7z m-337 -27 c23 -13 22
-14 -35 -21 -33 -4 -78 -11 -100 -16 -22 -5 -58 -8 -80 -7 -37 1 -37 2 -7 5
32 4 47 26 15 22 -68 -6 -30 6 47 16 129 16 132 16 160 1z m87 -3 c-4 -3 -10
-3 -14 0 -3 4 0 7 7 7 7 0 10 -3 7 -7z m-387 -23 c-40 -6 -34 -13 12 -13 36 0
6 -15 -53 -26 -66 -13 -79 -10 -59 14 7 8 9 16 4 16 -20 3 64 16 101 16 40 0
40 0 -5 -7z"/>
<path d="M780 1290 c-24 -8 -23 -8 8 -9 20 -1 31 3 27 9 -3 6 -7 10 -8 9 -1
-1 -13 -5 -27 -9z"/>
<path d="M121 2034 c0 -11 3 -14 6 -6 3 7 2 16 -1 19 -3 4 -6 -2 -5 -13z"/>
<path d="M573 2043 c4 -3 10 -3 14 0 3 4 0 7 -7 7 -7 0 -10 -3 -7 -7z"/>
<path d="M2226 2035 c-6 -17 2 -45 13 -45 4 0 6 14 3 30 -5 34 -7 36 -16 15z"/>
<path d="M2291 2040 c-2 -30 12 -59 29 -65 52 -17 136 -23 133 -10 -1 6 -22
11 -47 11 -73 2 -92 10 -103 46 -6 18 -11 26 -12 18z"/>
<path d="M701 2036 c2 -2 45 -6 94 -8 50 -3 79 -2 65 2 -25 8 -167 13 -159 6z"/>
<path d="M2180 2027 c0 -15 27 -43 34 -36 3 2 -4 15 -15 28 -13 16 -19 18 -19
8z"/>
<path d="M2370 2020 c0 -7 3 -10 7 -7 3 4 3 10 0 14 -4 3 -7 0 -7 -7z"/>
<path d="M3822 2008 c-1 -7 -3 -38 -6 -68 -11 -110 -13 -175 -6 -195 4 -11 4
-30 -1 -42 -7 -19 -5 -23 11 -23 11 0 20 7 20 16 0 9 -5 12 -12 8 -10 -6 -10
-4 -2 7 14 17 19 309 6 309 -5 0 -9 -6 -10 -12z"/>
<path d="M121 1994 c0 -11 3 -14 6 -6 3 7 2 16 -1 19 -3 4 -6 -2 -5 -13z"/>
<path d="M280 1996 c0 -9 5 -16 10 -16 6 0 10 4 10 9 0 6 -4 13 -10 16 -5 3
-10 -1 -10 -9z"/>
<path d="M796 2000 c33 -5 161 -13 284 -19 184 -9 231 -15 269 -31 44 -19 45
-19 21 -1 -24 19 -24 19 80 14 165 -8 204 -15 208 -37 2 -11 10 -26 18 -34 17
-16 18 -9 2 21 -6 12 -14 29 -18 37 -4 10 -25 15 -66 16 -58 2 -157 7 -384 20
-63 3 -118 8 -122 10 -4 3 -85 6 -180 8 -119 3 -154 2 -112 -4z"/>
<path d="M2265 1990 c3 -5 8 -10 11 -10 3 0 2 5 -1 10 -3 6 -8 10 -11 10 -3 0
-2 -4 1 -10z"/>
<path d="M121 1954 c0 -11 3 -14 6 -6 3 7 2 16 -1 19 -3 4 -6 -2 -5 -13z"/>
<path d="M280 1951 c0 -11 5 -23 10 -26 6 -3 10 3 10 14 0 11 -4 23 -10 26 -5
3 -10 -3 -10 -14z"/>
<path d="M321 1954 c0 -11 3 -14 6 -6 3 7 2 16 -1 19 -3 4 -6 -2 -5 -13z"/>
<path d="M1794 1951 c3 -4 67 -11 143 -15 299 -14 350 -20 374 -42 10 -9 19
-12 19 -7 0 35 -59 45 -320 58 -63 3 -139 7 -168 9 -29 3 -50 1 -48 -3z"/>
<path d="M1680 1930 c0 -7 3 -10 7 -7 3 4 3 10 0 14 -4 3 -7 0 -7 -7z"/>
<path d="M121 1914 c0 -11 3 -14 6 -6 3 7 2 16 -1 19 -3 4 -6 -2 -5 -13z"/>
<path d="M1465 1911 c-3 -5 -2 -12 3 -15 5 -3 9 1 9 9 0 17 -3 19 -12 6z"/>
<path d="M1604 1908 c-4 -7 -3 -8 4 -4 12 7 16 16 8 16 -3 0 -8 -5 -12 -12z"/>
<path d="M2350 1905 c24 -32 40 -47 40 -37 0 4 -12 19 -27 33 -20 18 -23 19
-13 4z"/>
<path d="M3217 1912 c-37 -1 -65 -7 -62 -11 2 -5 31 -6 64 -4 62 5 83 -6 61
-32 -6 -8 -10 -29 -9 -47 2 -18 0 -39 -4 -46 -5 -8 -3 -10 6 -6 8 3 18 1 22
-5 3 -6 3 -11 -2 -12 -43 -4 -54 -7 -60 -12 -9 -9 49 -9 64 1 13 9 11 175 -3
177 -5 0 -40 -1 -77 -3z"/>
<path d="M3108 1903 c-23 -4 -28 -9 -27 -31 1 -17 3 -21 6 -10 2 10 15 21 29
24 13 3 24 10 24 15 0 5 -1 8 -2 8 -2 -1 -15 -4 -30 -6z"/>
<path d="M3435 1901 c-70 -6 -70 -6 -73 -63 -2 -32 1 -58 5 -58 4 0 6 25 5 56
-4 55 -4 55 87 52 58 -2 90 1 88 7 -4 12 -23 13 -112 6z"/>
<path d="M121 1874 c0 -11 3 -14 6 -6 3 7 2 16 -1 19 -3 4 -6 -2 -5 -13z"/>
<path d="M1660 1870 c0 -12 4 -19 9 -16 5 4 12 0 14 -6 4 -10 6 -10 6 0 1 7
-6 20 -14 28 -13 14 -15 13 -15 -6z"/>
<path d="M2120 1878 c0 -9 5 -20 11 -23 17 -11 18 -2 3 19 -12 17 -14 17 -14
4z"/>
<path d="M241 1854 c0 -11 3 -14 6 -6 3 7 2 16 -1 19 -3 4 -6 -2 -5 -13z"/>
<path d="M2348 1863 c6 -2 12 -17 12 -32 0 -25 29 -79 30 -55 0 6 -3 14 -7 18
-4 3 -8 17 -10 29 -5 35 -11 47 -25 46 -10 0 -10 -2 0 -6z"/>
<path d="M2690 1838 c-26 -43 -27 -108 -2 -109 28 -2 47 2 50 12 6 15 22 10
22 -6 0 -9 6 -12 18 -8 45 17 43 65 -5 109 -46 42 -58 42 -83 2z m58 5 c34
-22 43 -34 37 -51 -3 -8 0 -10 6 -6 7 4 10 1 7 -7 -3 -8 -17 -14 -31 -14 -14
0 -32 -6 -38 -12 -35 -35 -57 38 -27 87 15 24 13 24 46 3z"/>
<path d="M2703 1753 c4 -3 10 -3 14 0 3 4 0 7 -7 7 -7 0 -10 -3 -7 -7z"/>
<path d="M3530 1843 c0 -21 3 -24 9 -14 5 8 7 20 4 28 -8 21 -13 15 -13 -14z"/>
<path d="M120 1840 c0 -7 3 -10 7 -7 3 4 3 10 0 14 -4 3 -7 0 -7 -7z"/>
<path d="M3400 1829 c0 -5 14 -9 32 -9 36 0 31 12 -7 16 -14 1 -25 -2 -25 -7z"/>
<path d="M3473 1833 c4 -3 10 -3 14 0 3 4 0 7 -7 7 -7 0 -10 -3 -7 -7z"/>
<path d="M243 1795 c0 -22 2 -30 4 -17 2 12 2 30 0 40 -3 9 -5 -1 -4 -23z"/>
<path d="M400 1819 c0 -5 5 -7 10 -4 6 3 10 8 10 11 0 2 -4 4 -10 4 -5 0 -10
-5 -10 -11z"/>
<path d="M1676 1815 c4 -8 8 -15 10 -15 2 0 4 7 4 15 0 8 -4 15 -10 15 -5 0
-7 -7 -4 -15z"/>
<path d="M121 1794 c0 -11 3 -14 6 -6 3 7 2 16 -1 19 -3 4 -6 -2 -5 -13z"/>
<path d="M3534 1800 c-5 -5 -38 -11 -74 -13 -65 -3 -65 -3 7 -5 42 -1 75 2 78
9 9 14 1 21 -11 9z"/>
<path d="M320 1790 c0 -7 3 -10 7 -7 3 4 3 10 0 14 -4 3 -7 0 -7 -7z"/>
<path d="M431 1774 c0 -11 3 -14 6 -6 3 7 2 16 -1 19 -3 4 -6 -2 -5 -13z"/>
<path d="M3090 1761 c0 -26 4 -31 25 -31 14 0 25 4 25 9 0 5 -10 7 -21 4 -18
-5 -20 -3 -15 15 4 11 2 23 -4 27 -6 4 -10 -6 -10 -24z"/>
<path d="M121 1754 c0 -11 3 -14 6 -6 3 7 2 16 -1 19 -3 4 -6 -2 -5 -13z"/>
<path d="M327 1722 c7 -69 11 -74 12 -15 1 28 -3 54 -8 57 -5 3 -6 -16 -4 -42z"/>
<path d="M3687 1764 c-4 -4 -7 -31 -7 -61 0 -53 -6 -61 -44 -54 -4 1 -47 4
-95 6 -73 3 -88 7 -100 25 -7 11 -17 20 -22 20 -5 0 -3 -10 5 -22 8 -13 13
-39 11 -58 -3 -31 0 -35 18 -34 45 2 66 14 62 36 -4 18 -1 20 25 14 17 -3 30
-1 30 4 0 6 5 10 10 10 18 0 10 -17 -12 -28 -15 -7 -18 -11 -7 -11 8 -1 20 -6
27 -13 11 -11 52 -19 52 -11 0 2 -13 9 -30 14 -33 12 -31 29 3 27 12 0 30 3
40 7 14 6 20 2 24 -14 4 -18 12 -21 49 -19 36 1 41 3 27 13 -11 8 -14 22 -11
43 4 29 2 32 -22 32 -17 0 -27 5 -27 15 0 8 6 15 13 15 8 0 11 6 8 15 -8 21
13 19 25 -2 9 -16 10 -16 11 5 0 12 -6 22 -14 22 -8 0 -21 2 -28 5 -8 3 -17 2
-21 -1z m-190 -141 c0 -7 -7 -13 -14 -13 -8 0 -12 4 -9 9 4 5 0 11 -6 14 -7 3
-4 5 8 4 11 -1 21 -7 21 -14z m229 -10 c-4 -4 -12 -1 -19 7 -9 10 -9 11 1 6 7
-4 12 -2 13 6 0 11 2 11 6 0 3 -7 2 -16 -1 -19z"/>
<path d="M242 1720 c1 -17 4 -28 7 -24 9 8 8 54 0 54 -4 0 -7 -14 -7 -30z"/>
<path d="M408 1665 c2 -49 6 -92 8 -94 7 -8 2 134 -6 159 -4 14 -5 -15 -2 -65z"/>
<path d="M3170 1742 c0 -4 11 -9 25 -10 14 -1 25 3 25 8 0 6 -11 10 -25 10
-14 0 -25 -4 -25 -8z"/>
<path d="M3761 1734 c0 -11 3 -14 6 -6 3 7 2 16 -1 19 -3 4 -6 -2 -5 -13z"/>
<path d="M121 1714 c0 -11 3 -14 6 -6 3 7 2 16 -1 19 -3 4 -6 -2 -5 -13z"/>
<path d="M312 1700 c0 -19 2 -27 5 -17 2 9 2 25 0 35 -3 9 -5 1 -5 -18z"/>
<path d="M2830 1726 c0 -3 14 -38 30 -79 38 -96 38 -100 -5 -95 -19 2 -35 0
-35 -4 0 -8 14 -11 41 -9 18 2 19 -4 18 -109 0 -36 -5 -69 -10 -75 -5 -5 -9
12 -9 46 0 30 5 60 12 67 9 9 8 12 -4 12 -9 0 -18 9 -21 20 -3 14 -10 18 -22
14 -9 -4 -14 -12 -11 -19 3 -8 -2 -11 -13 -8 -14 4 -17 12 -14 40 3 29 1 34
-12 29 -9 -3 -25 -1 -36 5 -11 6 -25 8 -32 6 -7 -3 1 -10 16 -16 50 -20 72
-51 36 -51 -11 0 -17 -4 -14 -10 10 -16 -31 -11 -45 5 -7 8 -17 15 -23 15 -5
0 -2 -9 8 -20 10 -11 25 -20 33 -20 12 0 14 -11 9 -60 -9 -82 -17 -110 -32
-110 -15 0 -25 -66 -25 -172 0 -91 -3 -94 -82 -81 -64 10 -71 30 -39 112 12
28 21 56 21 62 0 19 -23 4 -26 -17 -2 -10 -10 -43 -18 -73 -12 -43 -13 -63 -5
-94 18 -67 28 -89 40 -81 7 4 8 9 1 13 -12 7 -19 45 -9 49 20 7 67 1 62 -8 -3
-6 -2 -10 2 -10 5 0 7 -18 5 -40 -4 -39 -15 -46 -39 -24 -6 6 -23 9 -37 7 -27
-6 -56 11 -56 31 0 6 5 4 10 -4 12 -18 12 -2 0 25 -5 11 -9 14 -9 7 -1 -7 -6
-10 -12 -7 -7 5 -8 22 -3 49 4 22 7 49 6 59 0 9 5 17 12 17 16 0 47 88 34 96
-5 3 -20 -2 -34 -11 -25 -16 -26 -16 -24 7 3 36 1 41 -12 30 -14 -11 -119 -37
-188 -47 -25 -4 -52 -9 -61 -11 -12 -3 -23 8 -38 39 -24 49 -3 48 -191 16 -36
-6 -82 -13 -103 -16 -38 -5 -38 -5 -19 -27 10 -11 29 -38 41 -58 24 -40 40
-53 20 -17 -8 16 -8 23 0 29 9 5 7 11 -4 20 -13 11 -15 10 -9 -6 4 -10 4 -16
0 -12 -19 16 -13 58 8 63 72 16 211 35 222 31 20 -8 17 -26 -4 -26 -42 0 -60
-34 -47 -87 15 -56 12 -64 -12 -34 -18 22 -18 22 -14 -26 3 -36 6 -43 12 -28
7 17 8 16 8 -8 1 -16 -3 -26 -8 -23 -4 3 -6 -7 -4 -22 3 -24 2 -25 -7 -7 -10
18 -10 18 -6 -4 3 -13 0 -35 -5 -48 -5 -14 -8 -28 -5 -30 6 -7 46 86 46 109 0
12 6 18 18 16 11 -2 16 2 13 12 -35 140 -34 163 14 172 31 6 54 -39 34 -67
-13 -18 146 -1 165 18 14 14 46 14 46 0 0 -3 -7 -2 -16 1 -12 4 -14 1 -9 -14
5 -17 2 -20 -22 -21 -51 -1 -127 -10 -132 -15 -2 -2 54 -3 125 -2 121 3 129 2
133 -17 2 -15 0 -17 -10 -8 -16 12 -47 9 -62 -6 -8 -8 -4 -11 12 -11 12 0 20
-4 17 -9 -3 -5 1 -14 8 -20 11 -10 17 -8 25 6 9 17 10 17 9 -2 0 -11 3 -48 6
-82 8 -84 12 -83 -240 -81 -188 1 -216 -2 -282 -21 -41 -13 -72 -24 -70 -27 2
-2 39 7 81 20 74 23 80 23 145 10 159 -34 210 -48 259 -70 59 -27 72 -29 97
-11 15 11 12 12 -22 9 -26 -3 -53 3 -78 16 -39 20 -92 36 -148 46 -67 12 -31
17 96 12 134 -4 136 -4 159 20 12 13 28 24 35 24 7 0 14 5 16 11 8 23 78 -12
78 -38 0 -13 -3 -23 -7 -23 -5 0 -19 -10 -33 -21 -25 -21 -25 -21 10 -2 21 11
36 28 38 41 3 20 13 27 35 23 5 -1 6 7 2 18 -3 11 0 29 7 40 12 19 13 19 25
-9 25 -60 33 -33 33 110 0 77 4 140 9 140 5 0 7 17 4 39 -3 23 -1 41 6 45 8 5
11 -22 10 -96 -1 -67 -4 -94 -9 -78 -5 17 -8 -6 -9 -67 -1 -56 3 -93 9 -93 6
0 10 -6 10 -14 0 -16 13 -21 75 -30 35 -6 38 -5 23 7 -28 22 -21 30 23 24 28
-4 39 -2 36 6 -2 7 -11 11 -21 9 -9 -2 -16 4 -16 13 0 10 9 15 28 15 15 0 33
5 38 10 7 7 30 8 70 1 32 -5 61 -7 63 -5 11 10 -12 52 -39 67 -16 10 -30 24
-30 32 0 9 -6 12 -15 9 -11 -4 -15 1 -16 17 0 23 -1 23 -9 4 -12 -28 -12 -35
1 -35 5 0 24 -13 42 -30 18 -16 35 -30 40 -30 4 0 7 -4 7 -10 0 -5 -10 -8 -22
-6 -13 3 -23 5 -23 6 0 1 -20 3 -45 6 -64 6 -67 8 -63 46 2 26 1 29 -6 13 -9
-18 -10 -18 -10 -2 -1 10 -8 28 -17 42 -14 22 -14 23 5 18 11 -3 22 -12 25
-22 2 -9 2 3 -1 27 -5 39 6 57 21 33 4 -5 20 -7 36 -5 24 4 29 2 24 -10 -5
-12 1 -16 22 -18 43 -2 48 -3 62 -11 7 -5 14 -2 18 7 3 8 14 18 25 21 34 11
20 20 -36 22 -82 4 -95 14 -93 71 1 47 1 47 5 5 6 -61 18 -53 17 10 -2 60 3
72 21 57 10 -9 13 -28 9 -71 -4 -49 -3 -58 10 -53 20 8 29 34 11 34 -8 0 -15
5 -15 11 0 5 5 7 11 3 9 -5 10 3 5 30 -4 20 -3 36 2 36 9 0 15 -20 27 -94 3
-16 7 -32 10 -34 10 -10 5 52 -7 85 -14 38 -12 41 30 49 31 6 31 6 35 -47 3
-54 3 -54 5 4 2 62 4 61 -80 60 -11 0 -18 8 -18 19 0 10 -4 18 -10 18 -5 0 -7
-7 -4 -15 4 -9 0 -15 -9 -15 -11 0 -17 12 -20 38 -4 37 -4 37 -5 -1 -2 -35 -4
-37 -29 -34 -15 2 -29 9 -31 16 -3 9 2 11 16 7 19 -6 21 -1 28 61 6 63 22 125
23 95 1 -7 8 -20 16 -28 17 -18 20 -34 5 -34 -5 0 -10 5 -10 10 0 6 -4 10 -8
10 -5 0 -6 -14 -4 -31 3 -18 8 -26 12 -19 4 7 10 -1 15 -22 8 -33 8 -33 13 -3
6 42 37 61 44 28 3 -15 5 -14 10 5 5 17 2 22 -12 22 -11 0 -22 5 -26 11 -5 8
1 10 20 7 24 -5 31 2 27 25 -1 5 4 7 11 5 7 -3 13 -10 13 -15 0 -6 3 -15 8
-19 4 -4 7 4 7 18 0 32 22 52 38 36 9 -9 12 -9 12 0 0 7 5 12 11 12 6 0 9 -6
6 -13 -8 -21 16 -45 48 -49 29 -3 30 -2 28 37 -1 22 1 32 4 23 2 -10 13 -18
23 -18 13 0 17 -5 13 -20 -6 -22 12 -28 19 -7 8 20 -2 37 -23 37 -10 0 -19 5
-19 11 0 6 12 9 27 7 22 -2 29 -10 36 -40 12 -52 37 -51 37 1 0 68 84 65 92
-3 2 -19 0 -32 -4 -30 -4 3 -8 1 -8 -4 0 -5 -15 -14 -32 -20 -31 -9 -32 -10
-7 -11 26 -1 86 24 82 34 -2 3 -3 21 -3 40 0 35 0 35 165 30 165 -6 165 -6
165 34 0 37 -2 40 -29 39 -18 -1 -28 -6 -27 -14 3 -17 16 -31 16 -16 0 6 6 9
13 6 32 -12 12 -30 -34 -32 -37 -1 -50 2 -58 16 -9 16 -10 16 -16 0 -6 -15
-32 -16 -265 -14 -143 1 -261 4 -263 6 -20 26 -47 82 -47 99 0 16 -6 21 -25
21 -25 0 -35 -23 -15 -35 5 -3 7 -12 4 -19 -3 -8 0 -17 7 -22 9 -5 10 -2 6 9
-4 11 -2 14 9 10 8 -3 13 -12 10 -20 -3 -8 -2 -11 4 -8 5 3 14 -3 19 -14 14
-24 -1 -31 -48 -20 -18 4 -40 5 -47 2 -8 -3 -26 3 -41 12 -23 16 -25 16 -20 1
11 -27 -79 -22 -94 5 -8 15 -8 19 0 15 6 -4 11 -3 11 3 0 5 -6 14 -14 18 -21
13 -39 54 -28 65 6 6 12 6 16 -1 4 -5 13 -8 20 -5 8 3 17 1 20 -5 4 -6 13 -8
21 -5 9 4 15 -4 18 -28 4 -32 4 -32 6 7 2 33 4 37 12 20 9 -20 9 -20 6 0 -1
12 -10 20 -22 20 -37 1 -105 17 -111 26 -5 9 -24 13 -24 5z m290 -62 c0 -14
-3 -14 -15 -4 -8 7 -15 14 -15 16 0 2 7 4 15 4 8 0 15 -7 15 -16z m140 -118
c0 -11 -19 -15 -25 -6 -3 5 1 10 9 10 9 0 16 -2 16 -4z m-180 -26 c0 -29 -30
-38 -46 -15 -21 28 -17 35 16 35 23 0 30 -4 30 -20z m287 -7 c-4 -3 -7 0 -7 7
0 7 3 10 7 7 3 -4 3 -10 0 -14z m-120 -20 c-4 -3 -10 -3 -14 0 -3 4 0 7 7 7 7
0 10 -3 7 -7z m-301 -25 c-9 -5 -21 -6 -26 -3 -6 4 -10 -8 -10 -27 0 -18 4
-28 8 -23 13 18 32 15 32 -5 0 -12 -5 -17 -14 -14 -8 3 -16 -4 -20 -20 -10
-39 -23 -31 -21 12 1 20 3 51 4 68 1 28 3 30 32 26 26 -4 29 -6 15 -14z m-152
-4 c16 -41 6 -123 -16 -138 -43 -30 -48 -22 -41 62 3 42 11 80 17 84 18 12 33
9 40 -8z m52 -55 c2 -17 0 -38 -6 -48 -7 -12 -9 -1 -10 38 0 57 10 64 16 10z
m30 -120 c1 -40 1 -41 -3 -6 -3 30 -8 37 -20 33 -8 -3 -20 -3 -26 1 -7 4 -3 9
9 14 31 12 39 5 40 -42z m63 7 c0 -25 -2 -27 -8 -11 -7 17 -9 15 -13 -13 -3
-24 -1 -32 11 -32 10 0 12 -3 5 -8 -6 -4 -13 -15 -17 -24 -12 -33 -22 -18 -24
35 -4 75 3 96 27 90 15 -4 20 -13 19 -37z m-169 0 c0 -3 -4 -8 -10 -11 -5 -3
-10 -1 -10 4 0 6 5 11 10 11 6 0 10 -2 10 -4z m44 -8 c-5 -9 -2 -8 9 1 26 21
30 10 22 -65 -7 -63 -9 -66 -21 -43 -7 13 -13 18 -14 12 0 -7 -4 -13 -10 -13
-16 0 -23 50 -11 76 7 15 7 23 1 19 -5 -3 -10 1 -10 9 0 9 9 16 21 16 13 0 18
-4 13 -12z m-54 -113 c-7 -60 -7 -60 -8 20 0 51 2 73 8 60 4 -12 4 -48 0 -80z
m-383 18 c-4 -3 -10 -3 -14 0 -3 4 0 7 7 7 7 0 10 -3 7 -7z m140 0 c-4 -3 -10
-3 -14 0 -3 4 0 7 7 7 7 0 10 -3 7 -7z m-207 -23 c0 -5 -16 -10 -35 -10 -19 0
-35 5 -35 10 0 6 16 10 35 10 19 0 35 -4 35 -10z m700 -16 c0 -2 -7 -4 -15 -4
-8 0 -15 4 -15 10 0 5 7 7 15 4 8 -4 15 -8 15 -10z m-540 2 c0 -3 -5 -8 -12
-12 -7 -4 -8 -3 -4 4 7 12 16 16 16 8z m40 0 c0 -3 -5 -8 -12 -12 -7 -4 -8 -3
-4 4 7 12 16 16 16 8z m-80 -16 c0 -4 -13 -7 -30 -7 -16 0 -30 4 -30 9 0 4 14
7 30 6 17 -1 30 -5 30 -8z m395 -51 c-11 -17 -35 -9 -35 11 0 18 3 19 20 10
11 -6 18 -15 15 -21z m-72 -4 c-3 -9 -8 -14 -10 -11 -3 3 -2 9 2 15 9 16 15
13 8 -4z m-26 -52 c-3 -10 -5 -2 -5 17 0 19 2 27 5 18 2 -10 2 -26 0 -35z
m110 10 c-4 -3 -7 0 -7 7 0 7 3 10 7 7 3 -4 3 -10 0 -14z m-722 -3 c3 -5 4
-10 1 -10 -3 0 -8 5 -11 10 -3 6 -4 10 -1 10 3 0 8 -4 11 -10z m472 -7 c-4 -3
-10 -3 -14 0 -3 4 0 7 7 7 7 0 10 -3 7 -7z m180 -15 c-3 -8 -6 -5 -6 6 -1 11
2 17 5 13 3 -3 4 -12 1 -19z m72 -22 c-2 -20 -2 -20 -6 2 -2 12 -9 20 -14 17
-5 -4 -9 1 -9 11 0 13 3 14 15 4 8 -7 14 -22 14 -34z m-152 -18 c-3 -8 -6 -5
-6 6 -1 11 2 17 5 13 3 -3 4 -12 1 -19z m83 -14 c0 -21 -4 -33 -10 -29 -5 3
-10 19 -10 36 0 16 5 29 10 29 6 0 10 -16 10 -36z m50 16 c0 -5 -5 -10 -11
-10 -5 0 -7 5 -4 10 3 6 8 10 11 10 2 0 4 -4 4 -10z m-23 -57 c-4 -3 -7 0 -7
7 0 7 3 10 7 7 3 -4 3 -10 0 -14z"/>
<path d="M2616 1671 c-15 -28 -30 -51 -34 -51 -4 0 -9 -13 -10 -29 -2 -24 3
-30 24 -35 15 -4 29 -5 32 -1 3 3 -1 5 -9 5 -42 1 -43 17 -5 85 20 37 35 70
32 72 -2 3 -16 -18 -30 -46z"/>
<path d="M3760 1700 c0 -7 3 -10 7 -7 3 4 3 10 0 14 -4 3 -7 0 -7 -7z"/>
<path d="M2205 1690 c3 -5 8 -10 11 -10 3 0 2 5 -1 10 -3 6 -8 10 -11 10 -3 0
-2 -4 1 -10z"/>
<path d="M127 1345 c3 -187 9 -369 13 -405 6 -42 7 -6 3 105 -3 94 -9 276 -13
405 -6 193 -7 174 -3 -105z"/>
<path d="M388 1684 c-6 -6 2 -176 8 -183 2 -2 4 39 4 92 0 95 -1 103 -12 91z"/>
<path d="M3040 1685 c-7 -78 -4 -104 8 -88 14 20 16 62 2 83 -5 8 -10 11 -10
5z"/>
<path d="M3140 1668 c1 -21 2 -21 11 -5 11 19 29 14 29 -9 0 -10 -5 -12 -12
-8 -10 6 -10 5 -1 -7 7 -8 17 -26 23 -40 11 -24 11 -24 4 1 -9 38 -6 62 8 71
17 11 38 -9 38 -36 0 -12 6 -27 13 -33 10 -9 12 -4 9 24 -4 35 -4 35 34 13 52
-30 51 -29 32 -43 -14 -10 -9 -12 32 -12 47 0 48 0 22 14 -15 7 -36 22 -48 33
-11 10 -25 19 -31 19 -6 0 -16 7 -24 16 -7 8 -21 13 -31 11 -10 -3 -21 -1 -24
4 -3 5 -23 9 -45 9 -34 0 -39 -3 -39 -22z"/>
<path d="M252 1675 c-8 -29 -8 -265 0 -257 5 5 7 67 5 138 -1 71 -4 125 -5
119z"/>
<path d="M2924 1628 c16 -21 33 -35 38 -32 5 3 8 7 6 8 -2 0 -18 15 -37 31
-34 30 -34 30 -7 -7z"/>
<path d="M1701 1624 c0 -11 3 -14 6 -6 3 7 2 16 -1 19 -3 4 -6 -2 -5 -13z"/>
<path d="M341 1614 c0 -11 3 -14 6 -6 3 7 2 16 -1 19 -3 4 -6 -2 -5 -13z"/>
<path d="M441 1604 c0 -11 3 -14 6 -6 3 7 2 16 -1 19 -3 4 -6 -2 -5 -13z"/>
<path d="M2250 1600 c0 -7 3 -10 7 -7 3 4 3 10 0 14 -4 3 -7 0 -7 -7z"/>
<path d="M343 1550 c0 -25 2 -35 4 -22 2 12 2 32 0 45 -2 12 -4 2 -4 -23z"/>
<path d="M3740 1580 c-8 -5 -10 -10 -5 -10 6 0 17 5 25 10 8 5 11 10 5 10 -5
0 -17 -5 -25 -10z"/>
<path d="M2654 1536 c0 -13 4 -22 9 -19 10 6 9 43 -2 43 -5 0 -8 -11 -7 -24z"/>
<path d="M2163 1543 c4 -3 10 -3 14 0 3 4 0 7 -7 7 -7 0 -10 -3 -7 -7z"/>
<path d="M2300 1495 c-58 -8 -72 -13 -45 -14 22 0 67 3 99 9 33 5 62 8 64 5 5
-5 -41 -24 -72 -31 -39 -7 -29 -17 12 -10 36 5 42 4 43 -11 0 -14 3 -12 10 5
10 26 34 19 24 -7 -5 -14 -4 -14 11 1 15 14 16 22 6 43 -13 29 -20 29 -152 10z"/>
<path d="M3170 1490 c0 -5 5 -10 11 -10 5 0 7 5 4 10 -3 6 -8 10 -11 10 -2 0
-4 -4 -4 -10z"/>
<path d="M3678 1495 c-3 -4 -4 -31 -1 -60 3 -29 1 -67 -5 -83 -9 -26 -8 -30 4
-25 10 4 14 22 14 65 0 45 3 57 13 52 9 -6 9 -5 1 7 -7 8 -13 22 -15 32 -2 11
-7 16 -11 12z"/>
<path d="M391 1474 c0 -11 3 -14 6 -6 3 7 2 16 -1 19 -3 4 -6 -2 -5 -13z"/>
<path d="M3605 1410 c1 -38 5 -74 10 -79 7 -6 10 18 10 66 0 42 -4 78 -10 80
-6 2 -10 -25 -10 -67z"/>
<path d="M3542 1445 c0 -16 2 -22 5 -12 2 9 2 23 0 30 -3 6 -5 -1 -5 -18z"/>
<path d="M3170 1450 c0 -12 8 -12 35 0 18 8 17 9 -7 9 -16 1 -28 -3 -28 -9z"/>
<path d="M3240 1456 c0 -2 9 -6 20 -9 11 -3 20 -1 20 4 0 5 -9 9 -20 9 -11 0
-20 -2 -20 -4z"/>
<path d="M402 1425 c0 -16 2 -22 5 -12 2 9 2 23 0 30 -3 6 -5 -1 -5 -18z"/>
<path d="M3383 1443 c4 -3 10 -3 14 0 3 4 0 7 -7 7 -7 0 -10 -3 -7 -7z"/>
<path d="M3053 1400 c0 -25 2 -35 4 -22 2 12 2 32 0 45 -2 12 -4 2 -4 -23z"/>
<path d="M3700 1420 c0 -7 3 -10 7 -7 3 4 3 10 0 14 -4 3 -7 0 -7 -7z"/>
<path d="M3076 1385 c8 -37 14 -45 14 -19 0 10 -5 26 -10 34 -8 11 -9 7 -4
-15z"/>
<path d="M3171 1354 c-7 -30 -14 -89 -15 -131 -1 -58 -5 -78 -19 -88 -10 -7
-15 -19 -11 -28 3 -9 -1 -24 -10 -32 -30 -30 -20 -43 23 -32 32 9 47 7 78 -5
21 -9 77 -19 124 -22 48 -3 102 -11 120 -19 34 -14 34 -14 -1 -36 -33 -21 -33
-22 -7 -17 26 6 27 4 28 -31 2 -38 2 -38 9 2 4 22 8 32 9 22 0 -9 10 -25 21
-34 11 -10 21 -27 21 -38 1 -11 5 -4 9 15 4 19 10 49 14 65 5 26 4 25 -12 -9
-24 -51 -41 -31 -46 54 -5 69 -23 97 -84 126 -39 18 -165 25 -219 11 -31 -8
-33 -7 -33 20 0 15 12 53 26 83 28 60 34 123 15 158 -18 34 -27 27 -40 -34z
m6 -61 c-3 -10 -5 -4 -5 12 0 17 2 24 5 18 2 -7 2 -21 0 -30z m0 -45 c-3 -8
-6 -5 -6 6 -1 11 2 17 5 13 3 -3 4 -12 1 -19z m210 -134 c28 -5 93 -61 93 -79
0 -18 -83 -11 -111 8 -12 9 -27 13 -34 11 -7 -3 -16 -1 -20 5 -4 7 -13 8 -23
3 -46 -24 -132 12 -103 41 21 21 123 26 198 11z"/>
<path d="M3303 1083 c4 -3 10 -3 14 0 3 4 0 7 -7 7 -7 0 -10 -3 -7 -7z"/>
<path d="M3516 1398 c-13 -7 -15 -12 -6 -18 9 -6 9 -12 -1 -28 -10 -16 -10
-23 3 -35 14 -14 16 -11 21 36 6 61 7 58 -17 45z"/>
<path d="M246 1383 c-6 -14 -5 -15 5 -6 7 7 10 15 7 18 -3 3 -9 -2 -12 -12z"/>
<path d="M2630 1390 c0 -7 3 -10 7 -7 3 4 3 10 0 14 -4 3 -7 0 -7 -7z"/>
<path d="M3630 1380 c0 -7 3 -10 7 -7 3 4 3 10 0 14 -4 3 -7 0 -7 -7z"/>
<path d="M3826 1382 c-5 -9 -22 -13 -47 -10 -39 4 -39 4 -40 -47 -2 -53 -5
-113 -7 -131 -1 -7 -18 -8 -49 -4 -26 4 -53 5 -60 3 -9 -4 -13 8 -15 38 -1 39
-2 40 -5 9 -12 -119 -29 -130 -32 -20 -2 63 0 71 16 70 41 -5 106 1 99 7 -4 4
-31 8 -59 8 -52 0 -52 0 -58 40 -4 26 -7 3 -8 -63 -1 -103 -12 -149 -33 -136
-6 4 -8 3 -5 -3 4 -6 0 -16 -8 -23 -8 -7 -15 -22 -14 -34 0 -21 0 -21 9 -1 12
31 39 50 51 38 7 -7 5 -15 -5 -26 -10 -10 -12 -18 -6 -22 5 -3 10 -13 10 -21
0 -9 -5 -12 -11 -8 -8 5 -9 2 -2 -11 6 -10 8 -26 6 -36 -3 -11 0 -19 6 -19 6
0 11 7 11 16 0 9 5 12 12 8 8 -5 9 0 6 14 -4 14 -2 20 5 15 6 -4 8 0 4 10 -4
12 -1 17 11 17 10 0 28 -21 45 -54 20 -37 39 -59 62 -70 56 -27 59 -17 15 67
-24 47 -26 57 -13 57 9 0 21 -7 27 -15 6 -9 25 -16 43 -18 19 -1 28 -6 23 -12
-4 -5 -11 -24 -14 -42 -16 -73 -192 -333 -216 -318 -5 3 -11 1 -15 -5 -3 -5 3
-10 14 -10 25 0 67 45 122 130 69 109 68 108 95 49 25 -53 31 -113 14 -124 -5
-3 -10 -13 -10 -21 0 -8 4 -13 9 -10 5 3 11 0 14 -7 3 -9 -18 -12 -87 -10 -68
1 -85 -1 -66 -8 13 -5 48 -8 78 -5 40 3 55 1 59 -10 3 -8 12 -14 20 -14 16 0
15 23 -2 64 -5 12 -5 17 1 13 24 -15 12 79 -18 140 -26 53 -29 67 -20 86 6 12
16 35 22 52 9 23 13 26 21 15 6 -10 9 4 7 45 -2 48 -6 59 -18 56 -8 -2 -49 -3
-90 -1 -41 2 -94 3 -117 3 -24 0 -43 2 -43 4 0 8 28 33 38 33 4 0 7 14 4 30
-4 29 -4 30 39 29 78 -1 123 -13 127 -33 6 -28 -16 -36 -86 -31 -35 3 -61 1
-58 -4 3 -4 39 -9 80 -10 75 -2 75 -2 78 46 3 41 6 48 26 51 12 2 22 8 22 13
0 11 -59 8 -66 -3 -15 -23 -25 12 -23 78 2 74 2 74 33 73 24 -1 26 -3 9 -6
-13 -2 -23 -9 -23 -15 0 -6 3 -9 6 -5 3 3 17 2 30 -4 28 -10 38 3 32 43 -2 17
-5 20 -12 10z m-129 -355 c12 -17 26 -44 32 -59 10 -26 9 -27 -12 -17 -28 13
-55 49 -61 83 -7 36 14 33 41 -7z"/>
<path d="M161 1354 c0 -11 3 -14 6 -6 3 7 2 16 -1 19 -3 4 -6 -2 -5 -13z"/>
<path d="M2641 1360 c0 -8 4 -24 9 -35 5 -13 9 -14 9 -5 0 8 -4 24 -9 35 -5
13 -9 14 -9 5z"/>
<path d="M1681 1334 c0 -11 3 -14 6 -6 3 7 2 16 -1 19 -3 4 -6 -2 -5 -13z"/>
<path d="M2112 1325 c0 -16 2 -22 5 -12 2 9 2 23 0 30 -3 6 -5 -1 -5 -18z"/>
<path d="M431 1324 c0 -11 3 -14 6 -6 3 7 2 16 -1 19 -3 4 -6 -2 -5 -13z"/>
<path d="M311 1314 c0 -11 3 -14 6 -6 3 7 2 16 -1 19 -3 4 -6 -2 -5 -13z"/>
<path d="M1701 1304 c0 -11 3 -14 6 -6 3 7 2 16 -1 19 -3 4 -6 -2 -5 -13z"/>
<path d="M2388 1285 c-10 -13 -41 -33 -70 -44 -29 -11 -45 -20 -35 -20 10 -1
40 9 68 20 38 17 52 19 63 10 11 -9 15 -8 20 5 9 24 7 56 -4 49 -5 -3 -7 -12
-3 -20 3 -8 0 -15 -5 -15 -6 0 -12 9 -14 19 -3 18 -4 17 -20 -4z"/>
<path d="M240 1291 c0 -7 -4 -9 -10 -6 -5 3 -10 -2 -10 -12 0 -16 1 -16 17 0
9 9 14 20 10 23 -4 4 -7 2 -7 -5z"/>
<path d="M452 1280 c0 -14 2 -19 5 -12 2 6 2 18 0 25 -3 6 -5 1 -5 -13z"/>
<path d="M2060 1290 c-13 -8 -12 -10 3 -10 9 0 17 5 17 10 0 12 -1 12 -20 0z"/>
<path d="M1513 1274 c0 -16 13 -19 21 -5 3 5 0 11 -7 14 -8 3 -14 -1 -14 -9z"/>
<path d="M2023 1283 c4 -3 10 -3 14 0 3 4 0 7 -7 7 -7 0 -10 -3 -7 -7z"/>
<path d="M1383 1273 c4 -3 10 -3 14 0 3 4 0 7 -7 7 -7 0 -10 -3 -7 -7z"/>
<path d="M1441 1266 c-14 -17 28 -31 44 -15 7 7 4 8 -9 3 -16 -6 -18 -4 -13 9
8 20 -6 22 -22 3z"/>
<path d="M160 1250 c0 -7 3 -10 7 -7 3 4 3 10 0 14 -4 3 -7 0 -7 -7z"/>
<path d="M240 1249 c0 -5 -4 -7 -10 -4 -5 3 -10 2 -10 -4 0 -5 4 -12 10 -16 5
-3 6 -13 3 -23 -4 -10 -2 -14 3 -9 8 8 16 67 8 67 -2 0 -4 -5 -4 -11z"/>
<path d="M1330 1250 c0 -5 4 -10 9 -10 5 0 18 -3 28 -6 16 -5 16 -4 -1 10 -23
18 -36 20 -36 6z"/>
<path d="M450 1240 c0 -7 3 -10 7 -7 3 4 3 10 0 14 -4 3 -7 0 -7 -7z"/>
<path d="M470 1230 c0 -5 5 -10 11 -10 5 0 7 5 4 10 -3 6 -8 10 -11 10 -2 0
-4 -4 -4 -10z"/>
<path d="M1404 1228 c-4 -7 -3 -8 4 -4 12 7 16 16 8 16 -3 0 -8 -5 -12 -12z"/>
<path d="M161 1214 c0 -11 3 -14 6 -6 3 7 2 16 -1 19 -3 4 -6 -2 -5 -13z"/>
<path d="M3520 1210 c0 -7 3 -10 7 -7 3 4 3 10 0 14 -4 3 -7 0 -7 -7z"/>
<path d="M470 1200 c0 -7 3 -10 7 -7 3 4 3 10 0 14 -4 3 -7 0 -7 -7z"/>
<path d="M491 1195 c1 -11 5 -31 9 -45 8 -24 8 -24 9 5 0 17 -4 37 -9 45 -8
12 -10 11 -9 -5z"/>
<path d="M1715 1184 c-38 -7 -90 -16 -115 -19 -25 -4 -65 -15 -90 -25 -25 -10
-72 -21 -105 -25 -33 -4 -85 -14 -115 -22 -30 -9 -82 -20 -115 -25 -100 -16
-146 -41 -143 -79 3 -35 20 -29 -207 -74 -37 -7 -38 -9 -15 -15 35 -11 60 -11
35 0 -15 6 -7 9 30 8 57 0 117 11 111 21 -3 4 3 7 12 8 9 1 28 5 42 9 24 7 24
7 9 -16 -15 -24 -56 -38 -153 -55 -21 -3 -36 -9 -33 -12 5 -5 143 22 174 34
19 7 16 -42 -3 -62 -11 -11 -14 -25 -10 -48 3 -18 9 -52 12 -75 5 -30 10 -40
16 -30 5 8 6 -7 3 -37 -4 -27 -2 -68 4 -90 9 -39 9 -38 9 23 -1 72 6 86 24 46
18 -43 48 -80 48 -61 0 9 -4 19 -10 22 -29 18 -94 202 -80 225 26 41 299 -7
549 -96 53 -18 87 -27 77 -19 -11 8 -25 15 -30 15 -6 1 5 8 24 16 67 30 356
-2 450 -51 21 -11 30 -24 33 -47 4 -33 4 -33 5 3 2 31 -2 37 -30 51 -76 36
-250 74 -355 77 -42 1 -42 1 -69 76 -34 91 -43 92 -14 1 24 -74 23 -80 -27
-101 -36 -15 -76 -6 -376 85 -37 11 -87 17 -138 16 -80 -1 -80 -1 -77 64 2 36
7 71 11 77 4 6 3 14 -2 17 -5 4 -12 0 -14 -6 -4 -10 -8 -9 -16 2 -13 19 2 35
41 44 22 5 26 3 21 -9 -4 -13 2 -12 31 5 30 16 108 34 181 41 6 0 1 4 -10 8
-22 9 54 19 172 24 69 2 71 4 46 23 -17 13 -17 13 2 14 15 0 31 -22 65 -90 24
-49 46 -88 48 -86 1 2 -15 40 -37 84 -42 87 -42 84 9 97 3 1 16 6 30 12 28 12
145 29 173 25 10 -1 15 3 12 8 -8 12 -31 11 -120 -6z m-448 -111 c-4 -3 -10
-3 -14 0 -3 4 0 7 7 7 7 0 10 -3 7 -7z m-337 -153 c-8 -5 -22 -9 -30 -9 -10 0
-8 3 5 9 27 12 43 12 25 0z"/>
<path d="M162 1110 c-1 -47 5 -114 13 -150 14 -65 14 -65 8 -5 -3 33 -9 101
-13 150 -7 90 -7 90 -8 5z"/>
<path d="M3516 1177 c3 -10 9 -15 12 -12 3 3 0 11 -7 18 -10 9 -11 8 -5 -6z"/>
<path d="M3820 1176 c0 -8 4 -17 9 -20 5 -4 7 3 4 14 -6 23 -13 26 -13 6z"/>
<path d="M240 1170 c0 -7 3 -10 7 -7 3 4 3 10 0 14 -4 3 -7 0 -7 -7z"/>
<path d="M1433 1163 c9 -2 23 -2 30 0 6 3 -1 5 -18 5 -16 0 -22 -2 -12 -5z"/>
<path d="M320 1120 c0 -7 3 -10 7 -7 3 4 3 10 0 14 -4 3 -7 0 -7 -7z"/>
<path d="M3806 1115 c-4 -10 1 -15 14 -15 11 0 20 7 20 15 0 8 -6 15 -14 15
-8 0 -16 -7 -20 -15z"/>
<path d="M3082 1113 c-6 -3 -10 -9 -6 -14 3 -5 0 -9 -5 -9 -6 0 -10 -10 -10
-22 1 -17 2 -19 6 -5 2 9 13 17 23 17 10 0 20 6 23 14 6 16 -11 26 -31 19z"/>
<path d="M2153 1103 c9 -2 23 -2 30 0 6 3 -1 5 -18 5 -16 0 -22 -2 -12 -5z"/>
<path d="M2350 1100 c-12 -8 -11 -10 8 -10 12 0 22 5 22 10 0 13 -11 13 -30 0z"/>
<path d="M2208 1093 c7 -3 16 -2 19 1 4 3 -2 6 -13 5 -11 0 -14 -3 -6 -6z"/>
<path d="M1931 1085 c0 -5 8 -26 19 -45 11 -19 19 -30 19 -25 0 6 -8 26 -19
45 -11 19 -19 31 -19 25z"/>
<path d="M3020 1080 c0 -7 3 -10 7 -7 3 4 3 10 0 14 -4 3 -7 0 -7 -7z"/>
<path d="M2934 1044 c3 -9 6 -18 6 -20 0 -2 7 -4 15 -4 19 0 19 7 1 26 -19 19
-30 18 -22 -2z"/>
<path d="M2573 1003 c4 -3 10 -3 14 0 3 4 0 7 -7 7 -7 0 -10 -3 -7 -7z"/>
<path d="M1971 995 c0 -5 8 -26 19 -45 11 -19 19 -30 19 -25 0 6 -8 26 -19 45
-11 19 -19 31 -19 25z"/>
<path d="M2581 973 c-1 -14 5 -23 14 -23 8 0 15 8 15 18 0 14 -2 14 -9 3 -7
-11 -10 -10 -14 5 -4 16 -5 16 -6 -3z"/>
<path d="M1160 974 c0 -6 7 -19 16 -30 14 -18 14 -18 3 6 -14 31 -19 36 -19
24z"/>
<path d="M2278 973 c12 -2 32 -2 45 0 12 2 2 4 -23 4 -25 0 -35 -2 -22 -4z"/>
<path d="M2363 973 c4 -3 10 -3 14 0 3 4 0 7 -7 7 -7 0 -10 -3 -7 -7z"/>
<path d="M2403 973 c9 -2 23 -2 30 0 6 3 -1 5 -18 5 -16 0 -22 -2 -12 -5z"/>
<path d="M2168 963 c18 -2 45 -2 60 0 15 2 0 4 -33 4 -33 0 -45 -2 -27 -4z"/>
<path d="M3601 956 c12 -10 60 -16 54 -6 -3 5 -18 10 -32 10 -15 0 -24 -2 -22
-4z"/>
<path d="M241 934 c0 -11 3 -14 6 -6 3 7 2 16 -1 19 -3 4 -6 -2 -5 -13z"/>
<path d="M2385 940 c17 -4 39 -8 50 -8 20 -1 20 -1 0 8 -11 5 -33 8 -50 8 -30
0 -30 0 0 -8z"/>
<path d="M3052 932 c4 -12 3 -20 -1 -18 -9 6 -7 -102 3 -137 5 -18 4 -32 -4
-42 -9 -10 -9 -15 -1 -15 6 0 11 -4 11 -10 0 -5 -4 -10 -9 -10 -9 0 -118 -73
-201 -135 -19 -15 -97 -66 -173 -115 -140 -89 -204 -140 -158 -125 12 4 46 1
74 -5 81 -19 375 -98 442 -119 33 -11 132 -38 220 -60 88 -23 182 -48 209 -56
26 -8 56 -15 66 -15 9 0 46 -9 80 -20 35 -11 81 -22 104 -25 22 -2 61 -7 86
-11 102 -15 -11 19 -430 132 -96 25 -206 55 -245 66 -38 11 -110 30 -160 43
-366 95 -385 100 -374 108 33 21 151 99 173 113 15 10 49 34 75 52 25 18 69
48 96 67 28 19 70 49 95 66 44 31 44 31 260 -10 118 -22 283 -52 365 -66 83
-14 158 -29 169 -32 12 -3 17 -1 14 8 -3 9 -21 15 -47 16 -23 1 -49 4 -58 7
-9 4 -46 11 -82 16 -36 5 -79 12 -96 15 -60 11 -203 37 -300 55 -55 11 -112
22 -127 24 -42 7 -46 12 -53 76 -5 43 -3 65 5 76 15 17 22 96 8 88 -5 -3 -16
0 -25 8 -15 11 -16 10 -11 -10z m25 -34 c-3 -8 -6 -5 -6 6 -1 11 2 17 5 13 3
-3 4 -12 1 -19z m3 -33 c0 -8 -4 -15 -10 -15 -5 0 -10 7 -10 15 0 8 5 15 10
15 6 0 10 -7 10 -15z m417 -772 c-4 -3 -10 -3 -14 0 -3 4 0 7 7 7 7 0 10 -3 7
-7z m40 -10 c-4 -3 -10 -3 -14 0 -3 4 0 7 7 7 7 0 10 -3 7 -7z m120 -29 c-3
-3 -12 -4 -19 -1 -8 3 -5 6 6 6 11 1 17 -2 13 -5z"/>
<path d="M3293 943 c9 -2 25 -2 35 0 9 3 1 5 -18 5 -19 0 -27 -2 -17 -5z"/>
<path d="M3826 942 c-6 -10 1 -82 8 -90 3 -3 6 18 6 46 0 50 -3 61 -14 44z"/>
<path d="M2145 930 c-30 -8 -30 -8 -3 -9 15 0 30 4 33 9 3 6 5 9 3 9 -2 -1
-16 -5 -33 -9z"/>
<path d="M2238 933 c17 -2 47 -2 65 0 17 2 3 4 -33 4 -36 0 -50 -2 -32 -4z"/>
<path d="M3124 929 c-3 -5 6 -9 20 -9 31 0 34 6 6 13 -11 3 -23 1 -26 -4z"/>
<path d="M267 685 c4 -249 13 -368 33 -445 6 -25 13 -61 15 -80 4 -34 4 -34
-4 -5 -8 27 -9 28 -9 5 0 -14 4 -38 8 -55 8 -30 8 -30 9 0 2 28 3 29 11 7 13
-32 21 -27 9 6 -5 15 -8 37 -7 47 1 11 -1 67 -6 125 -4 58 -9 117 -9 132 -1
14 -5 24 -9 22 -4 -3 -5 -28 -2 -57 13 -141 13 -153 2 -127 -5 14 -12 70 -14
125 -2 55 -9 161 -14 235 -6 74 -12 173 -14 220 -2 47 -1 -23 1 -155z"/>
<path d="M2653 883 c3 -27 1 -56 -5 -67 -7 -12 -7 -16 0 -12 6 4 9 -8 6 -32
-2 -20 -4 -65 -5 -99 -1 -41 -5 -60 -12 -56 -6 4 -8 0 -4 -10 3 -9 0 -18 -9
-21 -8 -3 -14 -12 -14 -21 0 -8 -3 -15 -7 -15 -5 -1 -24 -15 -43 -31 -35 -31
-35 -31 5 -11 85 43 96 71 102 257 5 131 3 165 -7 165 -9 0 -11 -13 -7 -47z"/>
<path d="M3198 923 c12 -2 30 -2 40 0 9 3 -1 5 -23 4 -22 0 -30 -2 -17 -4z"/>
<path d="M1201 900 c14 -31 19 -36 19 -24 0 6 -7 19 -16 30 -14 18 -14 18 -3
-6z"/>
<path d="M302 880 c0 -14 2 -19 5 -12 2 6 2 18 0 25 -3 6 -5 1 -5 -13z"/>
<path d="M680 880 c-36 -10 -58 -18 -50 -19 8 0 47 8 85 18 39 11 61 19 50 19
-11 0 -49 -8 -85 -18z"/>
<path d="M322 870 c0 -14 2 -19 5 -12 2 6 2 18 0 25 -3 6 -5 1 -5 -13z"/>
<path d="M452 860 c0 -14 2 -19 5 -12 2 6 2 18 0 25 -3 6 -5 1 -5 -13z"/>
<path d="M158 823 c5 -83 9 -90 11 -20 0 37 -2 67 -7 67 -4 0 -6 -21 -4 -47z"/>
<path d="M500 861 c0 -6 4 -13 10 -16 6 -3 7 1 4 9 -7 18 -14 21 -14 7z"/>
<path d="M713 863 c4 -3 10 -3 14 0 3 4 0 7 -7 7 -7 0 -10 -3 -7 -7z"/>
<path d="M3137 840 c14 -17 28 -28 30 -26 8 8 -29 56 -43 56 -9 0 -5 -10 13
-30z"/>
<path d="M3478 852 c-6 -22 -20 -26 -85 -24 -18 1 -33 -3 -33 -8 0 -5 28 -8
63 -6 46 3 67 0 80 -12 23 -20 61 8 39 30 -9 9 -12 7 -12 -10 0 -40 -28 -15
-43 38 -2 10 -5 7 -9 -8z"/>
<path d="M588 853 c7 -3 16 -2 19 1 4 3 -2 6 -13 5 -11 0 -14 -3 -6 -6z"/>
<path d="M673 853 c4 -3 10 -3 14 0 3 4 0 7 -7 7 -7 0 -10 -3 -7 -7z"/>
<path d="M823 853 c4 -3 10 -3 14 0 3 4 0 7 -7 7 -7 0 -10 -3 -7 -7z"/>
<path d="M470 834 c0 -10 9 -55 20 -99 11 -44 20 -96 20 -115 0 -19 5 -42 11
-50 13 -18 6 42 -21 178 -17 90 -30 127 -30 86z"/>
<path d="M533 835 c-7 -21 -2 -24 22 -14 20 8 20 8 0 9 -20 1 -20 1 0 10 18 8
18 9 2 9 -10 1 -20 -6 -24 -14z"/>
<path d="M623 843 c4 -3 10 -3 14 0 3 4 0 7 -7 7 -7 0 -10 -3 -7 -7z"/>
<path d="M783 843 c4 -3 10 -3 14 0 3 4 0 7 -7 7 -7 0 -10 -3 -7 -7z"/>
<path d="M3195 836 c31 -14 161 -28 148 -15 -5 4 -37 9 -73 11 -36 3 -74 8
-85 12 -11 3 -6 0 10 -8z"/>
<path d="M705 830 c-27 -7 -27 -8 -5 -8 14 0 36 4 50 8 34 11 -3 11 -45 0z"/>
<path d="M2711 835 c0 -14 49 -69 55 -62 3 3 -8 20 -25 39 -17 18 -30 29 -30
23z"/>
<path d="M310 821 c0 -6 4 -13 10 -16 6 -3 7 1 4 9 -7 18 -14 21 -14 7z"/>
<path d="M1838 823 c7 -3 16 -2 19 1 4 3 -2 6 -13 5 -11 0 -14 -3 -6 -6z"/>
<path d="M502 800 c0 -14 2 -19 5 -12 2 6 2 18 0 25 -3 6 -5 1 -5 -13z"/>
<path d="M1780 810 c-18 -12 -2 -12 25 0 13 6 15 9 5 9 -8 0 -22 -4 -30 -9z"/>
<path d="M2495 810 c-3 -6 1 -7 9 -4 18 7 21 14 7 14 -6 0 -13 -4 -16 -10z"/>
<path d="M351 794 c0 -11 3 -14 6 -6 3 7 2 16 -1 19 -3 4 -6 -2 -5 -13z"/>
<path d="M623 803 c4 -3 10 -3 14 0 3 4 0 7 -7 7 -7 0 -10 -3 -7 -7z"/>
<path d="M555 790 c-13 -5 -14 -9 -5 -9 8 0 24 4 35 9 13 5 14 9 5 9 -8 0 -24
-4 -35 -9z"/>
<path d="M331 774 c0 -11 3 -14 6 -6 3 7 2 16 -1 19 -3 4 -6 -2 -5 -13z"/>
<path d="M2530 723 c-110 -64 -93 -63 28 3 76 42 94 55 75 54 -5 -1 -51 -26
-103 -57z"/>
<path d="M3149 754 c-21 -24 -22 -26 -3 -16 25 13 50 42 37 42 -5 0 -20 -12
-34 -26z"/>
<path d="M3526 766 c8 -24 -23 -46 -57 -42 -19 2 -44 4 -56 5 -14 1 -23 7 -23
18 0 14 -2 15 -17 1 -10 -9 -25 -18 -33 -21 -11 -4 -12 -6 -1 -6 11 -1 11 -4
0 -18 -12 -15 -10 -15 8 1 24 20 133 16 133 -5 0 -5 -5 -9 -11 -9 -7 0 0 -9
14 -20 14 -11 36 -20 49 -20 12 0 19 4 13 8 -11 8 -12 78 -1 103 4 10 2 16 -8
16 -8 0 -12 -5 -10 -11z m-6 -71 c0 -8 -7 -15 -15 -15 -16 0 -20 12 -8 23 11
12 23 8 23 -8z"/>
<path d="M205 735 c3 -22 5 -57 5 -77 0 -21 4 -38 9 -38 10 0 4 62 -10 120 -9
35 -9 35 -4 -5z"/>
<path d="M2725 750 c-50 -7 -50 -7 7 -8 31 -1 60 3 63 8 3 6 0 9 -7 8 -7 0
-35 -4 -63 -8z"/>
<path d="M1160 735 c0 -6 56 -35 67 -35 4 0 -7 9 -25 20 -33 20 -42 24 -42 15z"/>
<path d="M2422 720 c0 -14 2 -19 5 -12 2 6 2 18 0 25 -3 6 -5 1 -5 -13z"/>
<path d="M161 714 c0 -11 3 -14 6 -6 3 7 2 16 -1 19 -3 4 -6 -2 -5 -13z"/>
<path d="M364 670 c3 -36 11 -139 16 -229 10 -160 20 -226 20 -125 -1 89 -27
405 -35 412 -4 4 -5 -22 -1 -58z"/>
<path d="M2901 659 c-46 -34 -106 -75 -134 -91 -29 -16 -41 -26 -27 -22 33 9
92 46 168 107 35 27 78 53 95 57 29 7 30 8 6 9 -17 1 -54 -20 -108 -60z"/>
<path d="M1255 691 c20 -9 159 -52 288 -89 37 -11 67 -16 67 -12 0 4 -16 11
-35 14 -20 4 -33 11 -30 16 3 5 0 12 -6 16 -8 4 -9 3 -5 -4 9 -15 -4 -15 -56
2 -24 7 -63 19 -88 26 -25 7 -56 16 -70 20 -41 14 -89 21 -65 11z"/>
<path d="M173 620 c0 -41 2 -58 4 -37 2 20 2 54 0 75 -2 20 -4 3 -4 -38z"/>
<path d="M2407 669 c-8 -28 -3 -34 11 -16 6 7 7 19 3 26 -6 9 -10 6 -14 -10z"/>
<path d="M3258 683 c6 -2 18 -2 25 0 6 3 1 5 -13 5 -14 0 -19 -2 -12 -5z"/>
<path d="M3303 683 c4 -3 10 -3 14 0 3 4 0 7 -7 7 -7 0 -10 -3 -7 -7z"/>
<path d="M3773 683 c4 -3 10 -3 14 0 3 4 0 7 -7 7 -7 0 -10 -3 -7 -7z"/>
<path d="M2045 670 c3 -4 16 -10 30 -12 13 -3 22 -2 20 2 -3 4 -16 10 -30 12
-13 3 -22 2 -20 -2z"/>
<path d="M1671 642 c35 -23 48 -39 63 -81 10 -28 20 -50 22 -48 2 2 -3 25 -12
51 -16 45 -77 106 -107 106 -6 0 9 -13 34 -28z"/>
<path d="M490 640 c0 -7 3 -10 7 -7 3 4 3 10 0 14 -4 3 -7 0 -7 -7z"/>
<path d="M1498 643 c7 -3 16 -2 19 1 4 3 -2 6 -13 5 -11 0 -14 -3 -6 -6z"/>
<path d="M1904 634 c-18 -14 -18 -15 4 -4 12 6 22 13 22 15 0 8 -5 6 -26 -11z"/>
<path d="M2345 614 c-22 -13 -35 -24 -30 -24 12 0 75 38 75 45 0 6 2 7 -45
-21z"/>
<path d="M470 620 c0 -7 3 -10 7 -7 3 4 3 10 0 14 -4 3 -7 0 -7 -7z"/>
<path d="M1590 619 c0 -5 5 -7 10 -4 6 3 10 8 10 11 0 2 -4 4 -10 4 -5 0 -10
-5 -10 -11z"/>
<path d="M490 610 c0 -7 3 -10 7 -7 3 4 3 10 0 14 -4 3 -7 0 -7 -7z"/>
<path d="M3768 613 c7 -3 16 -2 19 1 4 3 -2 6 -13 5 -11 0 -14 -3 -6 -6z"/>
<path d="M225 540 c6 -115 25 -301 31 -311 3 -5 11 -9 17 -9 9 0 9 2 0 8 -6 4
-15 43 -18 87 -7 88 -12 138 -25 235 -9 65 -9 65 -5 -10z"/>
<path d="M472 580 c0 -14 2 -19 5 -12 2 6 2 18 0 25 -3 6 -5 1 -5 -13z"/>
<path d="M3205 580 c-3 -5 -15 -10 -25 -10 -20 0 -22 -31 -2 -38 8 -2 10 3 6
13 -5 13 -2 16 16 13 30 -4 39 -28 11 -28 -12 0 -21 -5 -21 -11 0 -8 -4 -8
-14 0 -13 11 -91 9 -102 -2 -3 -3 15 -9 40 -12 26 -4 49 -11 52 -16 13 -22
-10 -26 -66 -12 -34 9 -64 13 -67 9 -11 -11 31 -47 49 -42 19 4 56 -10 116
-46 27 -17 31 -23 21 -35 -10 -11 -8 -15 9 -20 12 -3 19 -9 16 -14 -5 -9 7
-12 42 -10 11 1 28 -7 39 -19 20 -22 0 -31 -22 -9 -6 6 -28 9 -49 7 -33 -3
-26 -6 51 -22 108 -23 153 -41 181 -74 18 -22 24 -24 50 -15 29 10 29 10 -3
17 -17 4 -37 14 -44 22 -7 8 -41 29 -76 46 -61 29 -87 57 -40 44 12 -4 36 -9
52 -13 17 -3 36 -15 43 -25 9 -12 26 -18 52 -18 21 0 42 -5 46 -11 5 -8 -1
-10 -20 -7 -14 3 -26 2 -26 -3 0 -4 17 -11 38 -14 75 -12 81 -15 76 -30 -8
-20 10 -19 30 1 22 21 14 30 -43 49 -27 9 -55 23 -61 31 -16 18 -10 18 40 -2
58 -23 60 -11 3 17 -36 18 -67 24 -123 24 -76 2 -123 17 -149 49 -12 14 -10
16 12 16 14 0 28 4 32 10 6 9 -44 40 -65 40 -6 0 -19 7 -27 16 -15 14 -15 16
3 13 10 -2 25 0 31 4 7 4 21 4 30 -2 10 -5 31 -7 46 -4 16 3 27 1 27 -6 0 -6
7 -11 15 -11 17 0 20 16 5 25 -17 10 -11 25 7 18 13 -5 15 -2 10 11 -6 14 -4
17 10 11 10 -3 40 -11 67 -16 28 -5 52 -13 55 -17 13 -17 155 -29 173 -15 7 6
29 14 48 18 29 7 32 9 15 15 -11 4 -23 3 -26 -3 -10 -15 -40 0 -46 24 -5 19
-11 21 -52 16 -25 -3 -67 -2 -93 2 -26 4 -52 5 -58 1 -16 -10 114 -22 146 -14
22 6 25 4 22 -12 -2 -13 -10 -18 -23 -15 -11 2 -40 5 -65 6 -93 4 -100 5 -100
18 0 7 -14 14 -32 15 -81 5 -121 3 -131 -7 -14 -14 -57 -14 -57 -1 0 6 9 10
20 10 11 0 20 5 20 10 0 17 -25 11 -48 -10 -12 -11 -32 -20 -46 -20 -25 0 -25
0 1 28 25 27 25 27 -13 30 -27 3 -34 6 -23 13 9 5 10 9 2 9 -6 0 -15 -4 -18
-10z m2 -87 c-4 -3 -10 -3 -14 0 -3 4 0 7 7 7 7 0 10 -3 7 -7z m553 -23 c0 -5
-11 -10 -25 -10 -14 0 -25 5 -25 10 0 6 11 10 25 10 14 0 25 -4 25 -10z m-533
-7 c-4 -3 -10 -3 -14 0 -3 4 0 7 7 7 7 0 10 -3 7 -7z m10 -60 c-4 -3 -7 0 -7
7 0 7 3 10 7 7 3 -4 3 -10 0 -14z m33 -13 c0 -5 -4 -10 -10 -10 -5 0 -10 5
-10 10 0 6 5 10 10 10 6 0 10 -4 10 -10z m257 -96 c-3 -3 -12 -4 -19 -1 -8 3
-5 6 6 6 11 1 17 -2 13 -5z"/>
<path d="M3300 580 c0 -4 13 -10 29 -12 17 -2 28 -1 26 3 -7 10 -55 18 -55 9z"/>
<path d="M2250 570 c-8 -5 -10 -10 -5 -10 6 0 17 5 25 10 8 5 11 10 5 10 -5 0
-17 -5 -25 -10z"/>
<path d="M1594 530 c2 -25 5 -71 5 -102 1 -32 5 -58 11 -58 11 0 1 168 -11
190 -6 9 -7 -2 -5 -30z"/>
<path d="M3100 559 c0 -7 -11 -9 -30 -5 -19 3 -29 2 -25 -4 9 -15 49 -12 81 5
29 15 29 15 2 15 -16 0 -28 -5 -28 -11z"/>
<path d="M3370 560 c0 -13 18 -22 24 -11 3 5 -1 11 -9 15 -8 3 -15 1 -15 -4z"/>
<path d="M3453 553 c4 -3 10 -3 14 0 3 4 0 7 -7 7 -7 0 -10 -3 -7 -7z"/>
<path d="M3488 543 c6 -2 18 -2 25 0 6 3 1 5 -13 5 -14 0 -19 -2 -12 -5z"/>
<path d="M509 507 c6 -16 11 -43 11 -62 0 -19 4 -36 8 -39 13 -8 -5 105 -18
118 -8 8 -9 4 -1 -17z"/>
<path d="M182 500 c0 -14 2 -19 5 -12 2 6 2 18 0 25 -3 6 -5 1 -5 -13z"/>
<path d="M2120 510 c-8 -5 -10 -10 -5 -10 6 0 17 5 25 10 8 5 11 10 5 10 -5 0
-17 -5 -25 -10z"/>
<path d="M302 485 c0 -16 2 -22 5 -12 2 9 2 23 0 30 -3 6 -5 -1 -5 -18z"/>
<path d="M491 490 c0 -8 4 -24 9 -35 5 -13 9 -14 9 -5 0 8 -4 24 -9 35 -5 13
-9 14 -9 5z"/>
<path d="M1758 404 c-3 -86 2 -109 17 -85 3 5 20 13 38 16 31 7 147 71 147 82
0 4 -34 -15 -95 -54 -11 -7 -36 -14 -55 -15 -39 -3 -39 -5 -27 89 4 39 2 53
-8 57 -11 4 -14 -14 -17 -90z"/>
<path d="M2084 488 c-4 -7 -3 -8 4 -4 12 7 16 16 8 16 -3 0 -8 -5 -12 -12z"/>
<path d="M2422 426 c-85 -58 -128 -91 -92 -71 35 20 190 126 190 130 0 7 2 9
-98 -59z"/>
<path d="M2920 470 c0 -5 21 -10 47 -10 55 0 54 5 -4 14 -27 4 -43 2 -43 -4z"/>
<path d="M2004 444 c-18 -14 -18 -15 4 -4 12 6 22 13 22 15 0 8 -5 6 -26 -11z"/>
<path d="M3543 453 c9 -2 23 -2 30 0 6 3 -1 5 -18 5 -16 0 -22 -2 -12 -5z"/>
<path d="M10 430 c0 -7 3 -10 7 -7 3 4 3 10 0 14 -4 3 -7 0 -7 -7z"/>
<path d="M2945 430 c-4 -6 5 -10 19 -10 14 0 26 5 26 10 0 6 -9 10 -19 10 -11
0 -23 -4 -26 -10z"/>
<path d="M3025 430 c-4 -6 7 -10 29 -10 34 0 117 -60 84 -60 -7 0 -5 -5 6 -11
14 -9 16 -13 5 -20 -17 -10 -7 -21 13 -14 24 10 19 51 -8 66 -26 13 -31 28
-11 30 6 1 -8 5 -32 10 -23 4 -51 11 -61 14 -10 3 -21 1 -25 -5z"/>
<path d="M187 380 c15 -148 21 -171 21 -79 0 52 -6 95 -14 110 -12 22 -13 18
-7 -31z"/>
<path d="M3390 405 c0 -20 17 -28 23 -11 3 8 -1 17 -9 20 -8 3 -14 -1 -14 -9z"/>
<path d="M7 404 c-4 -4 -7 -17 -7 -28 1 -19 1 -20 11 -3 11 19 8 43 -4 31z"/>
<path d="M2990 400 c0 -7 -7 -10 -15 -6 -10 4 -15 -1 -15 -14 0 -24 13 -26 34
-4 12 11 20 13 33 5 10 -6 14 -11 10 -11 -18 0 15 -38 38 -42 20 -4 23 -3 14
8 -6 8 -19 14 -28 14 -12 1 -11 5 8 21 29 24 28 25 -31 33 -34 5 -48 4 -48 -4z"/>
<path d="M531 364 c0 -11 3 -14 6 -6 3 7 2 16 -1 19 -3 4 -6 -2 -5 -13z"/>
<path d="M3440 360 c0 -8 25 -20 41 -20 20 0 7 18 -16 22 -14 3 -25 2 -25 -2z"/>
<path d="M2249 309 c-24 -20 -24 -20 4 -3 15 9 27 18 27 20 0 8 -8 4 -31 -17z"/>
<path d="M1040 263 c-47 -33 -48 -35 -12 -22 29 10 60 36 51 43 -2 1 -20 -8
-39 -21z"/>
<path d="M2157 254 c-31 -19 -57 -38 -57 -40 0 -6 9 -1 73 39 41 27 54 37 44
37 -1 0 -28 -16 -60 -36z"/>
<path d="M7 273 c-11 -10 -8 -243 2 -243 6 0 9 52 8 125 0 69 -2 125 -2 125
-1 0 -5 -3 -8 -7z"/>
<path d="M3740 270 c0 -5 14 -10 32 -10 36 0 33 9 -6 16 -14 2 -26 0 -26 -6z"/>
<path d="M542 245 c-1 -11 3 -38 7 -60 7 -34 9 -35 9 -10 0 35 -15 101 -16 70z"/>
<path d="M3810 232 c14 -11 27 -16 29 -11 4 13 2 15 -29 24 -25 8 -25 8 0 -13z"/>
<path d="M2420 209 c-22 -18 -22 -19 -3 -10 12 6 25 16 28 21 9 15 3 12 -25
-11z"/>
<path d="M3708 202 c12 -12 27 -22 32 -22 12 0 49 -20 68 -37 22 -21 32 -15
32 21 0 33 0 33 -61 40 -33 4 -68 10 -76 13 -11 4 -9 -1 5 -15z m87 -22 c3 -5
2 -10 -4 -10 -5 0 -13 5 -16 10 -3 6 -2 10 4 10 5 0 13 -4 16 -10z"/>
<path d="M202 145 c-1 -92 10 -127 18 -60 4 29 1 67 -6 90 -12 40 -12 40 -12
-30z"/>
<path d="M262 185 c0 -16 2 -22 5 -12 2 9 2 23 0 30 -3 6 -5 -1 -5 -18z"/>
<path d="M923 203 c4 -3 10 -3 14 0 3 4 0 7 -7 7 -7 0 -10 -3 -7 -7z"/>
<path d="M2074 198 c-4 -7 -3 -8 4 -4 12 7 16 16 8 16 -3 0 -8 -5 -12 -12z"/>
<path d="M403 97 c-1 -97 -1 -97 36 -96 52 2 104 19 121 39 8 9 41 28 72 40
32 13 56 25 54 27 -5 6 -141 -53 -169 -72 -12 -8 -38 -15 -58 -15 -37 0 -37 0
-46 88 -10 87 -10 87 -10 -11z"/>
<path d="M873 183 c4 -3 10 -3 14 0 3 4 0 7 -7 7 -7 0 -10 -3 -7 -7z"/>
<path d="M1020 142 c-30 -15 -83 -38 -117 -51 -70 -26 -75 -32 -38 -49 32 -15
57 -5 50 18 -5 15 10 26 80 59 47 22 85 42 85 45 0 8 3 9 -60 -22z m-136 -84
c-5 -8 -1 -9 12 -4 14 5 16 4 8 -4 -6 -6 -19 -8 -28 -4 -14 5 -15 9 -4 15 18
12 20 11 12 -3z"/>
<path d="M773 143 c4 -3 10 -3 14 0 3 4 0 7 -7 7 -7 0 -10 -3 -7 -7z"/>
<path d="M2900 137 c8 -8 100 -47 100 -42 0 3 -12 11 -27 18 -32 17 -81 32
-73 24z"/>
<path d="M723 123 c4 -3 10 -3 14 0 3 4 0 7 -7 7 -7 0 -10 -3 -7 -7z"/>
<path d="M230 111 c0 -5 5 -13 10 -16 6 -3 10 -2 10 4 0 5 -4 13 -10 16 -5 3
-10 2 -10 -4z"/>
<path d="M1073 103 c4 -3 10 -3 14 0 3 4 0 7 -7 7 -7 0 -10 -3 -7 -7z"/>
<path d="M2589 89 c-24 -20 -24 -20 4 -3 15 9 27 18 27 20 0 8 -8 4 -31 -17z"/>
<path d="M1015 80 c-22 -11 -45 -19 -51 -20 -6 0 -17 -7 -24 -15 -13 -16 96
28 115 46 13 13 5 11 -40 -11z"/>
<path d="M2883 93 c4 -3 10 -3 14 0 3 4 0 7 -7 7 -7 0 -10 -3 -7 -7z"/>
<path d="M3030 96 c0 -2 11 -6 25 -8 13 -3 22 -1 19 3 -5 9 -44 13 -44 5z"/>
<path d="M2660 82 c8 -6 47 -18 85 -27 39 -10 92 -24 119 -31 27 -7 45 -9 40
-4 -5 5 -54 20 -109 34 -150 38 -152 39 -135 28z"/>
<path d="M3080 69 c-12 -8 -8 -9 15 -6 17 3 44 -1 60 -8 54 -24 95 -34 95 -25
0 6 -18 13 -40 16 -22 4 -45 13 -51 20 -14 17 -58 18 -79 3z"/>
<path d="M2604 41 c-16 -15 -36 -30 -44 -34 -9 -3 -3 -6 13 -6 15 -1 27 4 27
10 0 7 10 20 22 30 11 11 19 21 17 24 -3 2 -18 -9 -35 -24z"/>
<path d="M323 35 c1 -19 8 -31 18 -33 13 -2 15 3 11 23 -3 18 -7 23 -12 14 -6
-8 -9 -6 -13 7 -3 11 -5 6 -4 -11z"/>
<path d="M2470 25 c-13 -14 -19 -25 -14 -25 12 0 59 50 47 50 -5 0 -20 -11
-33 -25z"/>
<path d="M3264 18 c-4 -7 -3 -8 4 -4 12 7 16 16 8 16 -3 0 -8 -5 -12 -12z"/>
<path d="M210 10 c0 -7 3 -10 7 -7 3 4 3 10 0 14 -4 3 -7 0 -7 -7z"/>
<path d="M3335 10 c-3 -5 1 -10 9 -10 9 0 16 5 16 10 0 6 -4 10 -9 10 -6 0
-13 -4 -16 -10z"/>
<path d="M748 3 c12 -2 32 -2 45 0 12 2 2 4 -23 4 -25 0 -35 -2 -22 -4z"/>
<path d="M843 3 c4 -3 10 -3 14 0 3 4 0 7 -7 7 -7 0 -10 -3 -7 -7z"/>
<path d="M883 3 c4 -3 10 -3 14 0 3 4 0 7 -7 7 -7 0 -10 -3 -7 -7z"/>
<path d="M2938 3 c7 -3 16 -2 19 1 4 3 -2 6 -13 5 -11 0 -14 -3 -6 -6z"/>
<path d="M2978 3 c7 -3 16 -2 19 1 4 3 -2 6 -13 5 -11 0 -14 -3 -6 -6z"/>
</g>
</svg>
