<?xml version="1.0" standalone="no"?>
<!DOCTYPE svg PUBLIC "-//W3C//DTD SVG 20010904//EN"
 "http://www.w3.org/TR/2001/REC-SVG-20010904/DTD/svg10.dtd">
<svg version="1.0" xmlns="http://www.w3.org/2000/svg"
 width="256.000000pt" height="384.000000pt" viewBox="0 0 256.000000 384.000000"
 preserveAspectRatio="xMidYMid meet">
<metadata>
Created by potrace 1.16, written by Peter Selinger 2001-2019
</metadata>
<g transform="translate(0.000000,384.000000) scale(0.100000,-0.100000)"
fill="#000000" stroke="none">
<path d="M1999 3484 c-24 -53 -34 -86 -53 -179 -16 -76 -28 -100 -79 -152 -23
-24 -36 -43 -30 -43 12 0 86 77 102 108 6 11 14 46 17 78 4 33 22 97 40 143
36 92 38 125 3 45z"/>
<path d="M1825 3460 c-4 -14 -16 -37 -26 -52 -11 -14 -19 -39 -18 -55 1 -28 1
-28 9 2 4 17 17 47 29 67 13 21 21 43 18 50 -2 7 -7 2 -12 -12z"/>
<path d="M2050 3409 c-7 -11 -28 -39 -48 -62 -21 -25 -26 -34 -12 -22 42 34
97 105 81 105 -6 0 -15 -9 -21 -21z"/>
<path d="M1909 3333 c-24 -28 -24 -28 4 -4 25 23 32 31 24 31 -2 0 -14 -12
-28 -27z"/>
<path d="M1776 3291 c-14 -26 -14 -30 -1 -25 8 3 17 15 21 26 10 32 -3 32 -20
-1z"/>
<path d="M1814 3261 c-51 -37 -131 -121 -93 -97 27 17 27 17 15 -16 -6 -19
-21 -46 -33 -62 -13 -16 -23 -37 -23 -47 0 -28 8 -23 24 16 11 25 21 35 37 35
22 0 146 116 168 159 7 13 -17 -9 -55 -48 -92 -98 -105 -104 -100 -49 3 37 11
49 57 90 60 54 61 62 3 19z"/>
<path d="M1664 3243 c-66 -71 -123 -200 -124 -277 0 -46 12 -22 17 31 4 55 58
167 110 231 38 47 36 57 -3 15z"/>
<path d="M1637 3042 c-19 -20 -23 -37 -7 -27 10 6 33 45 27 45 -2 0 -11 -8
-20 -18z"/>
<path d="M1716 3020 c-14 -22 -26 -45 -26 -51 0 -13 31 24 49 59 21 40 5 35
-23 -8z"/>
<path d="M1724 2973 c-53 -64 -79 -111 -99 -180 -9 -32 -19 -65 -22 -73 -3 -8
-5 -25 -4 -37 1 -13 -3 -23 -10 -23 -7 0 -5 -6 6 -14 14 -10 17 -21 12 -50 -3
-20 -2 -36 4 -36 13 0 1 -45 -26 -100 -58 -118 -68 -170 -43 -225 12 -27 -14
-68 -51 -80 -9 -2 -22 -14 -28 -25 -11 -16 -10 -18 1 -14 18 7 28 -13 51 -99
20 -78 36 -98 24 -29 -18 95 -37 144 -53 135 -7 -4 -6 -1 1 8 8 9 31 16 57 17
55 3 80 -31 91 -123 17 -146 84 -284 138 -285 9 0 17 -4 17 -10 0 -16 23 -12
84 15 30 13 62 22 71 19 17 -7 21 -24 5 -24 -8 0 -45 -59 -38 -61 26 -8 58 -7
58 1 0 5 -7 10 -15 10 -8 0 -15 7 -15 15 0 8 2 15 5 15 11 0 45 -41 45 -55 0
-8 4 -15 9 -15 5 0 8 12 7 28 0 15 3 27 9 27 5 0 8 -9 6 -20 -3 -17 -1 -17 14
-5 15 13 20 11 42 -15 25 -28 25 -28 18 -5 -4 14 -14 32 -21 41 -16 18 -19 33
-4 24 18 -11 51 -85 44 -97 -4 -6 -3 -8 3 -5 5 3 20 -14 33 -39 14 -24 31 -44
39 -44 11 0 10 5 -5 23 -26 29 -56 97 -44 97 6 0 -7 18 -29 40 -41 42 -65 94
-33 68 15 -11 14 -10 0 8 -10 11 -18 26 -18 33 0 7 -6 11 -12 8 -7 -2 -12 -15
-10 -28 2 -18 0 -21 -9 -12 -6 6 -10 30 -7 52 3 34 0 41 -14 41 -17 0 -68 90
-68 119 0 7 -5 9 -12 5 -6 -4 -8 -3 -4 4 3 5 2 12 -4 14 -6 2 -12 14 -15 27
-2 14 -22 43 -43 65 -38 40 -72 111 -72 151 0 13 -3 16 -8 8 -9 -15 -26 -5
-36 22 -5 15 -9 16 -15 6 -6 -9 -11 -10 -15 -2 -4 6 -11 9 -15 7 -4 -3 -34 -6
-68 -8 -34 -1 -59 -6 -57 -10 3 -5 30 -6 59 -2 80 8 121 -14 153 -85 14 -31
39 -74 56 -96 50 -64 58 -84 50 -118 -7 -32 -7 -32 -16 -8 -5 14 -10 32 -12
40 -2 9 -6 25 -10 36 -5 11 -10 26 -12 33 -2 6 -19 12 -39 12 -31 0 -35 -3
-35 -26 0 -21 -4 -24 -20 -19 -17 5 -20 2 -20 -27 0 -67 46 -150 65 -119 3 6
12 8 20 4 21 -7 85 6 85 18 0 6 -4 7 -10 4 -5 -3 -10 -1 -10 4 0 6 5 11 10 11
6 0 10 7 10 16 0 9 6 14 13 12 16 -6 56 -90 49 -106 -2 -7 6 -24 18 -37 29
-31 24 -49 -10 -32 -13 7 -27 23 -31 37 -4 14 -7 21 -8 17 -1 -4 -9 -3 -20 2
-14 8 -23 6 -36 -9 -10 -11 -13 -20 -7 -20 6 0 14 5 17 10 10 17 22 11 48 -23
24 -32 24 -32 -17 -29 -22 2 -47 11 -53 20 -7 9 -13 11 -13 5 0 -6 7 -16 16
-24 13 -11 12 -14 -13 -24 -35 -15 -82 -9 -107 13 -39 36 -88 173 -100 281 -6
57 -48 127 -68 115 -7 -4 -8 -2 -4 4 4 7 19 12 33 12 20 0 23 3 14 13 -6 8 -8
17 -4 20 12 13 54 7 59 -8 4 -8 12 -15 19 -15 7 0 33 -16 59 -35 25 -20 46
-32 46 -27 0 13 -33 41 -72 61 -19 11 -34 28 -36 40 -3 18 -6 20 -18 10 -7 -6
-27 -9 -44 -7 -19 3 -30 0 -30 -8 0 -25 -30 -24 -40 2 -30 78 -14 171 28 158
12 -4 13 -3 4 3 -14 11 23 67 38 58 4 -3 6 5 2 17 -3 14 -2 19 6 14 7 -4 12
-15 13 -24 1 -10 4 -7 8 8 8 27 41 41 41 17 0 -10 7 -13 21 -10 20 6 20 6 3
16 -38 21 -61 55 -29 43 9 -3 25 4 36 15 12 12 28 19 38 16 11 -3 17 2 17 14
0 23 -4 24 -28 2 -14 -13 -21 -14 -30 -5 -9 9 -8 12 5 12 9 0 17 7 17 16 0 11
5 14 16 10 9 -3 28 -6 42 -6 26 -1 26 -1 8 -15 -11 -8 -16 -15 -10 -15 5 0 18
7 28 15 27 21 36 19 36 -7 0 -19 2 -20 10 -8 5 8 10 25 10 38 0 12 5 22 10 22
6 0 10 8 10 19 0 11 9 21 22 24 20 6 20 7 5 31 -16 25 -25 63 -9 40 10 -15 72
-44 72 -34 0 5 -10 12 -22 16 -24 7 -65 44 -50 44 13 0 56 39 50 45 -3 3 -15
-4 -28 -15 -13 -11 -29 -19 -34 -17 -14 6 -15 -75 -1 -85 6 -4 2 -8 -7 -8 -10
0 -18 -5 -18 -11 0 -5 -4 -8 -9 -5 -5 3 -9 0 -8 -7 1 -40 -3 -49 -17 -38 -11
9 -15 9 -18 0 -2 -6 -26 -12 -55 -13 -46 -1 -50 1 -38 14 8 9 29 15 50 15 19
-1 35 2 35 7 0 4 -9 8 -20 8 -18 0 -18 3 -7 28 14 32 32 53 40 46 3 -3 8 0 13
7 4 8 3 10 -4 5 -7 -4 -12 -3 -12 2 0 6 7 12 15 16 8 3 15 12 15 20 0 8 10 22
22 30 12 9 19 16 15 16 -5 0 1 13 12 29 12 16 21 35 21 43 0 7 -8 1 -18 -13
-9 -14 -28 -36 -40 -50 -13 -13 -35 -43 -49 -67 -15 -25 -31 -41 -38 -38 -8 3
-15 -5 -18 -19 -3 -16 0 -22 7 -18 6 3 -9 -15 -34 -41 -50 -52 -60 -48 -63 28
-2 42 -21 56 -24 18 -10 -100 -21 -138 -35 -124 -7 7 -5 20 5 41 8 17 11 31 5
33 -6 2 -5 14 1 31 7 17 7 27 1 27 -7 0 -7 7 -1 18 9 17 21 57 41 138 6 23 29
65 51 93 52 65 46 77 -7 14z m-107 -315 c-3 -7 -5 -2 -5 12 0 14 2 19 5 13 2
-7 2 -19 0 -25z m82 -72 c14 -16 4 -46 -15 -46 -8 0 -14 -9 -14 -20 0 -11 -4
-20 -10 -20 -12 0 -14 43 -2 54 4 4 8 12 8 17 1 5 2 14 3 19 2 14 17 12 30 -4z
m-140 -409 c-2 -1 -13 -9 -24 -17 -19 -14 -19 -14 -6 3 7 9 18 17 24 17 6 0 8
-1 6 -3z m276 -132 c0 -14 -8 -21 -27 -23 -28 -3 -40 23 -21 42 15 14 48 1 48
-19z m5 -60 c0 -14 5 -25 10 -25 6 0 10 -6 10 -14 0 -17 -75 -27 -90 -12 -17
17 -11 28 13 21 22 -6 22 -6 -2 13 -30 24 -20 42 25 42 30 0 34 -3 34 -25z
m177 -232 c-4 -3 -10 -3 -14 0 -3 4 0 7 7 7 7 0 10 -3 7 -7z m-20 -30 c-4 -3
-7 0 -7 7 0 7 3 10 7 7 3 -4 3 -10 0 -14z"/>
<path d="M1676 2565 c-3 -8 -1 -15 4 -15 6 0 10 7 10 15 0 8 -2 15 -4 15 -2 0
-6 -7 -10 -15z"/>
<path d="M2014 2968 c-4 -7 -3 -8 4 -4 12 7 16 16 8 16 -3 0 -8 -5 -12 -12z"/>
<path d="M1851 2934 c-12 -15 -21 -30 -21 -35 0 -4 -12 -21 -26 -38 -15 -18
-27 -46 -29 -71 -5 -52 6 -51 29 4 10 24 44 69 77 101 33 32 57 61 54 63 -3 3
-17 -9 -32 -26 -39 -47 -68 -44 -37 3 22 33 11 32 -15 -1z m-1 -48 c0 -3 -5
-8 -12 -12 -7 -4 -8 -3 -4 4 7 12 16 16 16 8z m-53 -73 c-4 -3 -7 0 -7 7 0 7
3 10 7 7 3 -4 3 -10 0 -14z"/>
<path d="M1951 2892 c-6 -12 -11 -27 -11 -34 1 -7 8 0 16 15 9 16 13 31 11 34
-3 2 -10 -4 -16 -15z"/>
<path d="M1538 2850 c-12 -35 -13 -50 -5 -50 7 -1 6 -5 -3 -13 -21 -17 -36
-47 -44 -85 -4 -17 -12 -34 -17 -37 -15 -10 -11 -148 6 -172 13 -18 13 -27 1
-60 -16 -46 -28 -120 -18 -107 18 21 44 156 33 167 -26 26 8 236 45 277 7 9
13 24 12 35 0 11 3 37 7 58 10 52 2 46 -17 -13z"/>
<path d="M2208 2825 c-3 -6 -13 -36 -23 -68 -14 -45 -22 -57 -34 -52 -13 5
-14 4 -3 -6 15 -16 16 -43 1 -33 -7 4 -10 1 -7 -7 3 -8 -1 -21 -8 -30 -12 -14
-12 -18 4 -32 18 -16 20 -16 42 3 13 11 26 20 29 20 3 0 6 19 6 42 0 26 5 43
12 43 6 0 15 3 19 8 4 4 2 7 -5 7 -10 0 -9 6 3 25 9 13 16 30 16 37 0 7 -11
-4 -25 -25 -26 -37 -53 -51 -41 -21 3 9 6 18 6 20 0 3 4 3 9 -1 15 -9 20 8 12
45 -4 19 -9 30 -13 25z m-11 -172 c-4 -3 -7 0 -7 7 0 7 3 10 7 7 3 -4 3 -10 0
-14z m-30 -50 c-3 -3 -11 -2 -17 2 -9 6 -9 10 1 16 14 8 27 -7 16 -18z"/>
<path d="M1680 2775 c-11 -13 -10 -14 4 -9 9 3 16 10 16 15 0 13 -6 11 -20 -6z"/>
<path d="M1737 2769 c7 -7 15 -10 18 -7 3 3 -2 9 -12 12 -14 6 -15 5 -6 -5z"/>
<path d="M2170 2770 c0 -7 3 -10 7 -7 3 4 3 10 0 14 -4 3 -7 0 -7 -7z"/>
<path d="M1833 2713 c-7 -3 -13 -14 -13 -26 0 -19 1 -19 13 -5 6 9 21 18 32
20 20 4 20 4 0 9 -11 3 -26 4 -32 2z"/>
<path d="M2074 2688 c-4 -7 -3 -8 4 -4 12 7 16 16 8 16 -3 0 -8 -5 -12 -12z"/>
<path d="M2450 2681 c0 -6 4 -13 10 -16 6 -3 7 1 4 9 -7 18 -14 21 -14 7z"/>
<path d="M2520 2664 c0 -2 9 -8 20 -14 11 -6 20 -7 20 -2 0 6 -9 12 -20 15
-11 3 -20 3 -20 1z"/>
<path d="M1998 2653 c10 -4 10 -8 1 -19 -9 -11 -15 -11 -25 -3 -11 9 -14 8
-14 -4 0 -8 14 -20 30 -26 21 -7 30 -17 30 -31 0 -19 -1 -20 -16 -6 -14 14
-26 19 -86 31 -10 2 -18 0 -18 -5 0 -4 20 -11 45 -14 24 -4 48 -13 52 -19 5
-7 15 -18 24 -24 22 -18 21 56 -1 74 -13 11 -13 14 0 23 16 11 -1 31 -25 29
-5 0 -4 -3 3 -6z"/>
<path d="M2433 2616 c9 -22 -17 -32 -48 -18 -14 7 -27 7 -30 2 -6 -10 50 -23
81 -19 11 1 30 -1 44 -4 80 -19 79 -19 78 12 -1 31 -25 46 -49 30 -10 -6 -8
-9 7 -9 12 0 24 -7 28 -15 4 -11 -2 -15 -22 -15 -34 0 -57 14 -48 29 4 6 3 11
-3 11 -5 0 -17 3 -27 7 -14 5 -16 3 -11 -11z"/>
<path d="M2221 2595 c-25 -9 -29 -13 -17 -18 9 -4 16 -16 16 -27 0 -11 4 -20
9 -20 5 0 7 9 4 20 -7 24 19 27 60 6 23 -13 27 -13 27 0 0 8 -10 14 -22 14
-13 0 -30 5 -38 11 -12 8 -8 10 17 6 18 -2 34 2 37 8 5 15 -49 15 -93 0z"/>
<path d="M2059 2578 c7 -10 19 -18 27 -18 7 0 17 -8 23 -17 5 -10 13 -15 17
-11 10 11 -15 38 -35 38 -9 0 -23 6 -31 13 -12 10 -12 9 -1 -5z"/>
<path d="M2185 2509 c0 -21 3 -39 6 -39 12 0 16 60 5 69 -8 6 -11 -3 -11 -30z"/>
<path d="M1746 2525 c-9 -26 -7 -32 5 -12 6 10 9 21 6 23 -2 3 -7 -2 -11 -11z"/>
<path d="M1859 2521 c-30 -33 -32 -54 -6 -47 17 4 29 -1 44 -17 31 -36 36 -48
19 -41 -32 12 -15 -13 19 -29 19 -9 35 -12 35 -7 0 5 8 6 18 3 15 -6 15 -5 3
10 -7 9 -17 17 -22 17 -19 0 -69 58 -70 81 0 13 -3 18 -6 11 -2 -6 -9 -10 -14
-6 -18 11 3 24 38 24 44 0 41 5 -7 13 -26 4 -39 1 -51 -12z"/>
<path d="M2365 2531 c-15 -6 -9 -9 28 -12 29 -3 46 0 44 6 -4 13 -46 16 -72 6z"/>
<path d="M2500 2526 c0 -8 6 -18 13 -23 8 -5 2 -10 -18 -13 -27 -6 -24 -7 18
-11 33 -3 47 -1 47 8 0 7 -8 13 -17 13 -17 1 -17 1 0 11 26 15 20 29 -13 29
-19 0 -30 -5 -30 -14z"/>
<path d="M2143 2523 c4 -3 10 -3 14 0 3 4 0 7 -7 7 -7 0 -10 -3 -7 -7z"/>
<path d="M2102 2510 c5 -16 68 -66 68 -54 0 5 -16 22 -36 38 -20 16 -35 23
-32 16z"/>
<path d="M2330 2510 c8 -5 20 -10 25 -10 6 0 3 5 -5 10 -8 5 -19 10 -25 10 -5
0 -3 -5 5 -10z"/>
<path d="M2074 2489 c-8 -13 25 -61 47 -67 8 -3 2 8 -12 24 -15 16 -24 35 -22
42 6 15 -3 16 -13 1z"/>
<path d="M2370 2470 c-9 -6 -10 -10 -3 -10 6 0 15 5 18 10 8 12 4 12 -15 0z"/>
<path d="M1673 2463 c4 -3 10 -3 14 0 3 4 0 7 -7 7 -7 0 -10 -3 -7 -7z"/>
<path d="M2507 2458 c7 -8 10 -18 6 -22 -4 -3 2 -13 13 -22 18 -14 17 -15 -16
-8 -19 3 -36 10 -38 14 -8 22 -31 44 -38 37 -5 -4 -2 -12 6 -17 8 -6 11 -10 6
-10 -16 0 26 -40 43 -40 9 0 25 -7 35 -15 28 -22 36 -19 36 13 0 20 -7 32 -22
39 -23 11 -23 11 2 21 16 7 19 11 8 11 -9 1 -25 4 -35 8 -15 6 -16 4 -6 -9z"/>
<path d="M1807 2452 c6 -4 14 -18 18 -32 4 -14 13 -32 20 -40 6 -8 17 -30 25
-47 7 -18 16 -33 21 -33 8 0 -10 44 -44 108 -10 17 -13 32 -7 32 23 0 8 15
-17 17 -14 0 -21 -2 -16 -5z"/>
<path d="M1860 2456 c0 -2 7 -7 16 -10 8 -3 12 -2 9 4 -6 10 -25 14 -25 6z"/>
<path d="M2010 2450 c8 -5 20 -10 25 -10 6 0 3 5 -5 10 -8 5 -19 10 -25 10 -5
0 -3 -5 5 -10z"/>
<path d="M2244 2423 c17 -28 29 -37 45 -35 14 2 21 -2 21 -12 0 -19 5 -20 33
-4 22 12 22 12 -3 18 -16 4 -26 14 -28 28 -2 12 -7 22 -12 22 -5 0 -7 -7 -4
-15 10 -25 -24 -17 -42 10 -9 14 -20 25 -25 25 -5 0 1 -17 15 -37z"/>
<path d="M1757 2425 c-15 -14 -24 -25 -19 -25 9 0 52 37 52 45 0 8 -4 6 -33
-20z"/>
<path d="M2140 2430 c0 -5 9 -14 20 -20 11 -6 20 -19 20 -29 0 -11 7 -22 16
-25 9 -4 14 -13 10 -21 -4 -12 3 -15 34 -15 27 0 40 -4 40 -14 0 -22 -111 14
-167 54 -55 40 -83 53 -83 40 0 -6 7 -10 15 -10 7 0 18 -6 22 -13 10 -16 106
-77 121 -77 12 0 32 -31 32 -49 0 -6 -16 -11 -37 -11 -44 0 -38 -11 7 -12 25
-1 28 -3 16 -10 -9 -5 -14 -13 -11 -19 4 -5 1 -9 -4 -9 -6 0 -11 -7 -11 -16 0
-8 5 -12 10 -9 11 7 40 -12 40 -25 0 -5 -9 -6 -20 -3 -28 7 -26 -23 3 -48 12
-10 15 -17 7 -14 -25 9 -22 -45 3 -66 20 -16 20 -18 4 -19 -10 0 -20 7 -23 15
-4 8 -13 15 -21 15 -8 0 -11 -5 -8 -11 4 -5 0 -19 -10 -29 -15 -17 -14 -19 32
-36 26 -9 53 -22 58 -27 7 -7 4 -8 -7 -4 -10 4 -18 3 -18 -1 1 -8 30 -48 31
-41 5 33 10 44 26 62 16 20 16 20 0 8 -25 -20 -34 -5 -11 21 19 21 19 21 0 14
-16 -5 -17 -4 -6 9 7 8 18 15 24 14 23 -3 36 1 36 12 0 7 -10 9 -25 7 -16 -4
-25 -1 -25 8 0 7 10 14 21 16 16 2 23 11 25 31 2 24 1 27 -12 16 -8 -7 -13
-18 -10 -26 11 -27 -12 -12 -27 19 -12 24 -13 35 -4 50 18 28 39 23 27 -7 -6
-16 -6 -25 0 -25 6 0 10 7 10 15 0 8 7 15 16 15 14 0 14 3 3 16 -10 13 -10 17
2 25 11 8 10 9 -6 7 -13 -2 -19 2 -17 11 1 7 -2 19 -8 26 -5 7 -9 32 -7 56 5
60 -10 106 -28 83 -11 -16 -12 -16 -18 0 -4 10 -5 22 -2 26 11 18 -17 21 -30
4 -13 -18 -14 -18 -21 1 -15 38 -54 71 -54 45z m87 -92 c-3 -8 -6 -5 -6 6 -1
11 2 17 5 13 3 -3 4 -12 1 -19z m40 -75 c-4 -3 -7 0 -7 7 0 7 3 10 7 7 3 -4 3
-10 0 -14z m16 -48 c18 -25 18 -25 -7 -25 -29 0 -39 11 -30 34 8 22 16 20 37
-9z m-20 -35 c8 0 8 -3 1 -10 -12 -12 -44 -3 -44 12 0 6 7 7 16 4 9 -3 21 -6
27 -6z m-33 -70 c8 -5 11 -10 5 -10 -5 0 -17 5 -25 10 -8 5 -10 10 -5 10 6 0
17 -5 25 -10z m27 -47 c-4 -3 -7 0 -7 7 0 7 3 10 7 7 3 -4 3 -10 0 -14z m13
-53 c0 -5 -4 -10 -10 -10 -5 0 -10 5 -10 10 0 6 5 10 10 10 6 0 10 -4 10 -10z
m-60 -40 c8 -5 11 -12 7 -16 -4 -4 -15 0 -24 9 -18 18 -8 23 17 7z"/>
<path d="M2350 2430 c0 -5 5 -10 10 -10 6 0 10 5 10 10 0 6 -4 10 -10 10 -5 0
-10 -4 -10 -10z"/>
<path d="M2210 2420 c-13 -8 -12 -10 3 -10 9 0 17 5 17 10 0 12 -1 12 -20 0z"/>
<path d="M2133 2393 c4 -3 10 -3 14 0 3 4 0 7 -7 7 -7 0 -10 -3 -7 -7z"/>
<path d="M2385 2363 c-26 -39 -32 -68 -15 -78 15 -9 12 -25 -4 -25 -8 0 -18
-5 -22 -12 -5 -8 -2 -9 11 -4 11 4 21 2 26 -5 5 -8 10 -5 18 8 8 16 6 25 -11
43 -15 16 -18 25 -10 28 7 2 12 10 12 17 0 13 21 25 43 25 7 0 1 -9 -13 -20
-29 -22 -6 -29 31 -10 17 10 18 13 4 26 -8 9 -15 22 -15 30 0 26 -29 14 -55
-23z"/>
<path d="M1680 2370 c0 -7 3 -10 7 -7 3 4 3 10 0 14 -4 3 -7 0 -7 -7z"/>
<path d="M1890 2371 c0 -5 9 -7 20 -4 11 3 20 7 20 9 0 2 -9 4 -20 4 -11 0
-20 -4 -20 -9z"/>
<path d="M2481 2370 c-9 -5 -7 -9 8 -13 12 -3 23 -2 26 3 7 11 -19 20 -34 10z"/>
<path d="M117 2362 c-76 -2 -117 -6 -117 -14 0 -7 51 -9 173 -6 240 7 360 -23
383 -94 3 -13 11 -26 16 -29 6 -4 11 -60 13 -125 1 -66 3 -119 5 -119 1 0 3
-85 5 -190 3 -182 2 -192 -20 -242 -13 -28 -29 -54 -35 -58 -5 -3 -7 -12 -4
-18 4 -7 4 -9 0 -5 -4 3 -26 0 -48 -8 -30 -10 -96 -14 -264 -14 -181 0 -224
-3 -224 -13 0 -11 48 -14 254 -13 254 1 254 1 293 32 70 56 82 96 82 274 2
324 -23 513 -74 566 -50 51 -168 87 -270 82 -27 -2 -103 -4 -168 -6z"/>
<path d="M1954 2344 c3 -9 6 -25 6 -37 0 -16 3 -18 9 -8 6 9 10 10 16 2 4 -7
2 -18 -4 -25 -8 -10 -4 -13 19 -13 29 0 76 -30 65 -42 -4 -3 -10 1 -15 9 -5 8
-12 11 -16 7 -4 -3 -1 -13 6 -22 13 -15 12 -16 -50 -37 -13 -5 -12 -7 3 -13
10 -4 28 0 45 11 15 11 35 21 46 24 25 7 -40 92 -66 86 -10 -2 -18 0 -18 5 0
5 5 9 10 9 6 0 10 4 10 9 0 5 -8 8 -17 7 -12 0 -19 7 -21 22 -2 12 -10 22 -19
22 -10 0 -13 -6 -9 -16z"/>
<path d="M1616 2337 c3 -10 9 -15 12 -12 3 3 0 11 -7 18 -10 9 -11 8 -5 -6z"/>
<path d="M1811 2322 c35 -49 69 -106 69 -116 0 -18 -31 18 -57 65 -31 58 -40
58 -21 1 13 -39 63 -91 75 -79 3 3 16 -6 30 -21 29 -32 27 -24 -12 47 -17 30
-47 73 -69 95 -33 35 -35 37 -15 8z"/>
<path d="M1893 2343 c4 -3 10 -3 14 0 3 4 0 7 -7 7 -7 0 -10 -3 -7 -7z"/>
<path d="M2034 2339 c-2 -5 8 -11 23 -14 15 -4 38 -11 51 -16 29 -12 39 -12
27 0 -16 16 -95 39 -101 30z"/>
<path d="M2481 2323 c-40 -31 -39 -43 2 -34 44 10 77 29 77 44 0 21 -46 16
-79 -10z m45 -8 c-19 -14 -56 -21 -56 -10 0 4 53 22 70 24 3 0 -4 -6 -14 -14z"/>
<path d="M1911 2314 c0 -11 3 -14 6 -6 3 7 2 16 -1 19 -3 4 -6 -2 -5 -13z"/>
<path d="M2101 2256 c-1 -29 2 -37 10 -29 8 8 8 19 1 40 -10 28 -10 28 -11
-11z"/>
<path d="M2150 2282 c0 -5 7 -13 16 -16 10 -4 14 -1 12 6 -5 15 -28 23 -28 10z"/>
<path d="M1940 2253 c21 -27 69 -66 57 -46 -15 24 -62 73 -70 73 -5 0 1 -12
13 -27z"/>
<path d="M2456 2256 c10 -8 21 -12 24 -10 5 6 -21 24 -34 24 -6 0 -1 -6 10
-14z"/>
<path d="M2497 2264 c-4 -4 -4 -10 -1 -15 6 -10 34 0 34 12 0 10 -24 12 -33 3z"/>
<path d="M2410 2249 c0 -15 28 -41 40 -37 6 2 4 13 -5 26 -17 23 -35 29 -35
11z"/>
<path d="M2543 2253 c4 -3 10 -3 14 0 3 4 0 7 -7 7 -7 0 -10 -3 -7 -7z"/>
<path d="M1700 2246 c0 -3 12 -17 26 -32 17 -16 24 -19 20 -9 -3 9 -6 18 -6
20 0 3 -9 9 -20 15 -11 6 -20 8 -20 6z"/>
<path d="M2151 2204 c13 -16 29 -19 29 -5 0 5 -9 11 -21 14 -16 4 -18 3 -8 -9z"/>
<path d="M2405 2210 c-4 -6 -13 -9 -21 -6 -8 3 -14 1 -14 -4 0 -6 6 -10 13
-10 18 0 43 18 35 25 -3 4 -9 1 -13 -5z"/>
<path d="M2545 2210 c3 -5 8 -10 11 -10 2 0 4 5 4 10 0 6 -5 10 -11 10 -5 0
-7 -4 -4 -10z"/>
<path d="M2113 2203 c4 -3 10 -3 14 0 3 4 0 7 -7 7 -7 0 -10 -3 -7 -7z"/>
<path d="M2453 2182 c-15 -11 -20 -22 -14 -30 6 -10 12 -7 25 13 22 33 18 39
-11 17z"/>
<path d="M1450 2165 c-30 -32 -14 -32 25 0 20 17 25 25 14 25 -8 0 -26 -11
-39 -25z"/>
<path d="M1820 2179 c0 -5 5 -7 10 -4 6 3 10 8 10 11 0 2 -4 4 -10 4 -5 0 -10
-5 -10 -11z"/>
<path d="M2060 2176 c0 -8 -4 -16 -8 -18 -5 -1 -12 -16 -16 -33 -7 -29 -7 -29
13 -11 12 11 19 21 16 24 -2 3 0 13 5 23 7 12 7 20 0 24 -5 3 -10 0 -10 -9z"/>
<path d="M2146 2181 c-4 -5 -2 -12 3 -15 5 -4 12 -2 15 3 4 5 2 12 -3 15 -5 4
-12 2 -15 -3z"/>
<path d="M2505 2179 c-11 -16 -1 -19 13 -3 7 8 8 14 3 14 -5 0 -13 -5 -16 -11z"/>
<path d="M2550 2171 c0 -5 -16 -15 -35 -22 -39 -14 -46 -29 -14 -29 14 0 19
-5 16 -14 -4 -9 3 -16 19 -19 13 -2 24 0 24 4 0 5 -5 9 -12 9 -9 0 -9 3 0 12
17 17 15 33 -3 18 -8 -6 -19 -8 -26 -4 -8 5 -3 12 15 21 22 12 36 33 21 33 -3
0 -5 -4 -5 -9z"/>
<path d="M2091 2154 c0 -11 3 -14 6 -6 3 7 2 16 -1 19 -3 4 -6 -2 -5 -13z"/>
<path d="M1955 2130 c-3 -5 -1 -10 4 -10 6 0 11 5 11 10 0 6 -2 10 -4 10 -3 0
-8 -4 -11 -10z"/>
<path d="M2121 2124 c0 -11 3 -14 6 -6 3 7 2 16 -1 19 -3 4 -6 -2 -5 -13z"/>
<path d="M2149 2101 c13 -24 -7 -45 -29 -31 -12 8 -12 10 3 10 10 0 16 4 13 9
-3 5 -15 7 -26 4 -29 -8 0 -40 35 -40 23 0 25 4 16 60 0 4 -6 7 -11 7 -7 0 -7
-6 -1 -19z"/>
<path d="M2343 2100 c2 -8 12 -16 23 -17 13 -2 15 -1 4 4 -8 3 -19 11 -23 17
-6 7 -7 6 -4 -4z"/>
<path d="M2490 2066 c0 -2 7 -7 16 -10 8 -3 12 -2 9 4 -6 10 -25 14 -25 6z"/>
<path d="M2407 2046 c-6 -15 19 -30 33 -21 13 8 1 35 -15 35 -7 0 -15 -6 -18
-14z"/>
<path d="M2535 2050 c-3 -5 1 -10 9 -10 9 0 16 5 16 10 0 6 -4 10 -9 10 -6 0
-13 -4 -16 -10z"/>
<path d="M2140 2040 c0 -5 5 -10 11 -10 5 0 7 5 4 10 -3 6 -8 10 -11 10 -2 0
-4 -4 -4 -10z"/>
<path d="M1930 2015 c13 -14 26 -23 28 -20 7 7 -29 45 -41 45 -6 0 0 -11 13
-25z"/>
<path d="M2110 2019 c0 -5 5 -7 10 -4 6 3 10 8 10 11 0 2 -4 4 -10 4 -5 0 -10
-5 -10 -11z"/>
<path d="M2356 2014 c-5 -14 -4 -15 9 -4 17 14 19 20 6 20 -5 0 -12 -7 -15
-16z"/>
<path d="M2000 2012 c0 -12 19 -26 26 -19 2 2 -2 10 -11 17 -9 8 -15 8 -15 2z"/>
<path d="M2525 2010 c27 -12 35 -12 35 0 0 6 -12 10 -27 9 -25 0 -26 -1 -8 -9z"/>
<path d="M2132 1999 c2 -7 10 -15 17 -17 8 -3 12 1 9 9 -2 7 -10 15 -17 17 -8
3 -12 -1 -9 -9z"/>
<path d="M2523 1983 c9 -2 23 -2 30 0 6 3 -1 5 -18 5 -16 0 -22 -2 -12 -5z"/>
<path d="M1960 1974 c0 -15 42 -94 50 -94 6 0 -2 23 -16 50 -24 46 -34 59 -34
44z"/>
<path d="M2066 1964 c-4 -9 -4 -19 -1 -22 2 -3 7 3 11 12 4 9 4 19 1 22 -2 3
-7 -3 -11 -12z"/>
<path d="M2495 1960 c-7 -12 27 -22 37 -12 6 6 1 12 -11 15 -12 3 -23 2 -26
-3z"/>
<path d="M2343 1935 c0 -8 4 -12 9 -9 5 3 6 10 3 15 -9 13 -12 11 -12 -6z"/>
<path d="M2032 1931 c-19 -12 -11 -45 13 -50 16 -3 17 -1 7 12 -7 8 -10 22 -6
31 7 18 5 19 -14 7z"/>
<path d="M2310 1930 c0 -5 5 -10 10 -10 6 0 10 5 10 10 0 6 -4 10 -10 10 -5 0
-10 -4 -10 -10z"/>
<path d="M2133 1913 c4 -3 10 -3 14 0 3 4 0 7 -7 7 -7 0 -10 -3 -7 -7z"/>
<path d="M2193 1913 c4 -3 10 -3 14 0 3 4 0 7 -7 7 -7 0 -10 -3 -7 -7z"/>
<path d="M2413 1903 c4 -3 10 -3 14 0 3 4 0 7 -7 7 -7 0 -10 -3 -7 -7z"/>
<path d="M2513 1874 c-25 -25 -25 -25 -4 -40 11 -8 26 -12 33 -8 7 5 4 10 -11
16 -25 9 -13 38 15 38 8 0 14 5 14 10 0 18 -20 11 -47 -16z"/>
<path d="M1590 1870 c0 -3 9 -38 19 -78 25 -94 43 -116 94 -109 37 5 38 5 22
-13 -10 -11 -35 -21 -59 -23 -22 -2 -4 -4 42 -3 103 1 101 -28 -3 -34 -24 -1
-39 -13 -73 -56 -24 -30 -47 -54 -52 -54 -39 0 -468 -535 -447 -557 3 -2 29
31 58 74 61 91 303 394 349 438 32 30 32 30 25 5 -6 -19 -1 -16 22 15 51 69
111 130 118 123 4 -4 -5 -24 -21 -44 -84 -106 -152 -229 -181 -326 -8 -29 -31
-84 -50 -123 -20 -38 -29 -64 -21 -57 19 15 62 103 84 172 39 121 148 319 177
320 4 0 7 -24 7 -54 0 -56 -36 -170 -51 -161 -4 3 -11 -11 -14 -32 -4 -21 -15
-70 -26 -109 -21 -77 -23 -94 -11 -94 4 0 17 44 30 98 12 53 38 128 56 167 29
59 33 78 29 120 -7 73 34 162 58 124 4 -8 12 -14 16 -15 47 -5 62 -17 56 -45
-3 -18 -1 -29 6 -29 6 0 11 11 11 23 0 38 10 38 53 2 22 -19 45 -35 51 -35 6
0 -9 18 -34 40 -25 22 -41 40 -37 40 5 0 16 -7 24 -16 13 -13 18 -13 25 -2 8
10 11 10 15 1 2 -7 9 -13 15 -13 6 0 3 9 -7 20 -19 20 -41 28 -30 10 9 -15
-11 -12 -24 4 -10 11 -8 15 6 18 10 3 -1 4 -24 4 -32 -1 -39 -3 -31 -13 13
-16 4 -16 -25 0 -37 20 -47 54 -12 40 38 -14 9 15 -35 35 -30 14 -50 30 -50
40 -1 15 -2 15 -11 0 -14 -26 -54 -22 -72 6 -9 13 -23 50 -32 82 -14 48 -36
94 -35 74z m165 -210 c3 -5 -1 -10 -10 -10 -9 0 -13 5 -10 10 3 6 8 10 10 10
2 0 7 -4 10 -10z"/>
<path d="M2237 1849 c4 -13 8 -18 11 -10 2 7 -1 18 -6 23 -8 8 -9 4 -5 -13z"/>
<path d="M2110 1840 c0 -7 3 -10 7 -7 3 4 3 10 0 14 -4 3 -7 0 -7 -7z"/>
<path d="M2174 1828 c-4 -7 -3 -8 4 -4 12 7 16 16 8 16 -3 0 -8 -5 -12 -12z"/>
<path d="M2270 1830 c0 -7 3 -10 7 -7 3 4 3 10 0 14 -4 3 -7 0 -7 -7z"/>
<path d="M2372 1812 c-8 -6 -2 -9 18 -9 16 0 30 4 30 9 0 10 -31 10 -48 0z"/>
<path d="M2440 1810 c-12 -8 -9 -10 13 -10 15 0 27 5 27 10 0 13 -20 13 -40 0z"/>
<path d="M2521 1794 c-13 -13 -20 -24 -15 -24 14 0 54 30 54 41 0 14 -13 9
-39 -17z"/>
<path d="M2414 1780 c-5 -5 -25 -10 -44 -13 -27 -3 -23 -4 17 -5 28 -1 54 2
57 7 8 12 -19 22 -30 11z"/>
<path d="M2121 1776 c2 -2 15 -9 29 -16 23 -12 24 -12 11 3 -7 10 -20 17 -29
17 -8 0 -13 -2 -11 -4z"/>
<path d="M2536 1758 c-10 -6 -35 -10 -55 -10 -20 0 -43 -3 -51 -9 -11 -6 -5
-9 21 -9 22 0 48 -9 69 -25 18 -14 36 -22 39 -19 3 3 -1 9 -9 15 -12 7 -13 11
-2 18 23 14 11 52 -12 39z m-9 -24 c-3 -3 -12 -4 -19 -1 -8 3 -5 6 6 6 11 1
17 -2 13 -5z"/>
<path d="M2122 1735 c14 -15 21 -16 40 -7 23 11 23 11 1 11 -12 1 -30 4 -40 7
-17 6 -17 6 -1 -11z"/>
<path d="M2270 1730 c0 -5 5 -10 11 -10 5 0 7 5 4 10 -3 6 -8 10 -11 10 -2 0
-4 -4 -4 -10z"/>
<path d="M2375 1730 c3 -5 13 -10 21 -10 8 0 14 5 14 10 0 6 -9 10 -21 10 -11
0 -17 -4 -14 -10z"/>
<path d="M2193 1723 c4 -3 10 -3 14 0 3 4 0 7 -7 7 -7 0 -10 -3 -7 -7z"/>
<path d="M1767 1708 c-3 -12 51 -54 59 -46 2 2 -10 16 -26 31 -19 18 -30 23
-33 15z"/>
<path d="M2296 1679 c20 -22 36 -25 28 -5 -3 8 -14 16 -26 19 -19 5 -19 5 -2
-14z"/>
<path d="M2488 1693 c7 -3 16 -2 19 1 4 3 -2 6 -13 5 -11 0 -14 -3 -6 -6z"/>
<path d="M1863 1676 c-6 -8 -9 -17 -6 -20 11 -11 21 -6 26 14 6 23 -3 25 -20
6z"/>
<path d="M2365 1680 c-3 -5 2 -10 12 -10 17 -1 17 -1 0 -14 -12 -10 -15 -16
-7 -21 6 -4 17 0 23 9 7 8 26 21 42 27 24 10 26 13 12 16 -10 3 -24 -1 -32 -7
-12 -10 -18 -10 -29 -1 -10 8 -16 9 -21 1z"/>
<path d="M1683 1663 c4 -3 10 -3 14 0 3 4 0 7 -7 7 -7 0 -10 -3 -7 -7z"/>
<path d="M2547 1664 c-4 -4 -24 -7 -44 -8 -22 -1 -38 -6 -38 -13 0 -6 -3 -15
-7 -19 -16 -15 -7 -23 15 -15 19 7 23 5 24 -9 1 -12 -9 -22 -28 -29 -32 -11
-38 -28 -14 -38 41 -15 57 -94 23 -111 -20 -10 -18 -11 15 -6 23 4 43 2 52 -6
14 -11 15 -6 14 39 -2 49 -11 65 -23 39 -3 -9 -16 -1 -35 22 -27 29 -29 36
-17 48 16 17 38 8 30 -12 -3 -9 4 -15 20 -18 18 -4 26 -1 26 8 0 8 -4 14 -10
14 -5 0 -7 7 -4 15 4 9 0 15 -10 15 -9 0 -16 5 -16 10 0 9 14 14 33 11 4 0 7
6 7 14 0 12 -4 13 -19 5 -26 -13 -31 -13 -31 5 0 9 9 15 25 15 16 0 25 6 25
15 0 16 -3 18 -13 9z m-7 -218 c0 -3 -5 -8 -12 -12 -7 -4 -8 -3 -4 4 7 12 16
16 16 8z"/>
<path d="M2017 1640 c-3 -11 -1 -20 4 -20 5 0 9 6 9 14 0 8 8 17 18 19 13 4
13 5 -4 6 -14 1 -24 -6 -27 -19z"/>
<path d="M2180 1656 c0 -2 8 -10 18 -17 15 -13 16 -12 3 4 -13 16 -21 21 -21
13z"/>
<path d="M2265 1650 c3 -5 8 -10 11 -10 2 0 4 5 4 10 0 6 -5 10 -11 10 -5 0
-7 -4 -4 -10z"/>
<path d="M2240 1644 c0 -17 23 -34 45 -33 14 0 16 2 5 6 -8 3 -23 12 -32 21
-10 8 -18 11 -18 6z"/>
<path d="M2423 1643 c4 -3 10 -3 14 0 3 4 0 7 -7 7 -7 0 -10 -3 -7 -7z"/>
<path d="M2220 1623 c0 -13 29 -38 35 -31 3 3 -4 13 -15 23 -11 10 -20 13 -20
8z"/>
<path d="M2020 1602 c0 -6 5 -14 10 -17 6 -4 7 -11 4 -17 -4 -6 -1 -9 7 -6 8
3 22 1 33 -4 26 -14 42 5 21 26 -18 17 -40 22 -30 6 10 -16 -7 -12 -27 7 -10
9 -18 11 -18 5z m70 -32 c0 -5 -2 -10 -4 -10 -3 0 -8 5 -11 10 -3 6 -1 10 4
10 6 0 11 -4 11 -10z"/>
<path d="M2426 1591 c-4 -7 -5 -15 -2 -18 9 -9 19 4 14 18 -4 11 -6 11 -12 0z"/>
<path d="M2205 1580 c3 -5 8 -10 11 -10 3 0 2 5 -1 10 -3 6 -8 10 -11 10 -3 0
-2 -4 1 -10z"/>
<path d="M2273 1577 c1 -7 -8 -12 -20 -11 -12 0 -20 -3 -17 -8 8 -13 40 -9 53
6 9 10 8 15 -4 19 -8 4 -14 1 -12 -6z"/>
<path d="M1782 1515 c-12 -25 -18 -45 -14 -45 4 0 18 20 30 45 12 25 18 45 14
45 -4 0 -18 -20 -30 -45z"/>
<path d="M2303 1553 c4 -3 10 -3 14 0 3 4 0 7 -7 7 -7 0 -10 -3 -7 -7z"/>
<path d="M2106 1541 c-14 -21 156 -33 177 -12 15 15 -27 15 -54 1 -14 -8 -31
-7 -64 5 -54 18 -52 18 -59 6z"/>
<path d="M2330 1546 c0 -2 7 -7 16 -10 8 -3 12 -2 9 4 -6 10 -25 14 -25 6z"/>
<path d="M1514 1498 c-156 -163 -430 -526 -411 -544 2 -3 17 17 32 43 30 51
165 231 243 324 110 131 182 219 179 219 -1 0 -21 -19 -43 -42z"/>
<path d="M2333 1506 c1 -7 -9 -10 -28 -8 -28 3 -29 3 -13 -15 11 -12 14 -23 8
-32 -9 -16 -3 -41 11 -41 5 0 9 9 9 20 0 22 8 25 30 9 11 -8 12 -12 2 -16 -6
-2 -9 -9 -6 -15 3 -5 -4 -12 -16 -15 -22 -6 -23 -18 -5 -68 6 -19 6 -19 -8 -2
-16 20 -33 22 -43 5 -4 -6 -3 -8 3 -5 13 8 49 -30 39 -40 -4 -4 -12 -1 -17 7
-9 12 -10 11 -5 -3 20 -61 19 -66 -13 -84 -17 -10 -31 -21 -31 -25 0 -27 -17
-1 -18 27 -1 29 2 35 19 35 11 0 17 5 14 10 -4 6 -12 10 -18 9 -26 -3 -37 2
-37 15 0 8 -9 18 -20 21 -11 3 -20 11 -20 16 0 6 8 6 20 -1 11 -6 20 -7 20 -2
0 5 -11 14 -24 20 -30 14 -41 -6 -24 -44 10 -21 9 -27 -3 -35 -11 -7 -10 -10
9 -15 26 -8 29 -21 5 -27 -14 -4 -12 -5 5 -6 23 -1 32 -21 10 -21 -7 0 -4 -6
7 -12 11 -6 23 -16 27 -22 5 -8 8 -7 8 2 0 6 7 12 15 12 8 0 15 4 15 10 0 5
11 12 25 16 14 3 30 14 35 23 8 14 9 13 10 -6 0 -14 -6 -23 -15 -23 -8 0 -15
-4 -15 -10 0 -17 28 -11 39 8 10 16 10 16 11 -1 0 -9 -11 -23 -25 -29 -14 -6
-25 -16 -25 -21 0 -5 6 -4 14 2 16 14 42 -20 38 -49 -1 -10 1 -11 4 -2 10 23
26 13 20 -13 -5 -18 -2 -25 9 -25 8 0 15 -8 15 -17 0 -13 -2 -15 -8 -5 -7 9
-13 7 -28 -9 -17 -20 -17 -22 -1 -16 21 8 23 -15 2 -33 -14 -11 -13 -14 1 -24
15 -11 15 -14 0 -28 -20 -20 -20 -25 -2 -25 8 0 14 5 13 11 -1 5 5 10 13 11
17 0 27 35 11 35 -6 0 -11 12 -11 26 0 14 4 23 10 19 5 -3 6 -13 3 -22 -4 -11
-3 -14 5 -9 7 4 12 1 12 -8 0 -8 3 -21 6 -30 4 -10 1 -16 -9 -16 -17 0 -30
-40 -21 -64 3 -9 1 -16 -5 -16 -6 0 -11 -7 -11 -15 0 -20 10 -19 26 2 7 10 15
15 18 12 3 -3 -15 -27 -39 -53 -25 -26 -45 -51 -45 -57 0 -5 14 6 31 26 17 19
35 33 39 30 5 -3 10 0 12 7 3 7 14 9 32 4 23 -6 26 -9 16 -22 -10 -11 -16 -12
-27 -3 -10 9 -18 8 -33 -6 -25 -23 -18 -33 20 -27 16 2 37 -1 45 -8 13 -11 15
-8 15 19 0 21 5 31 15 31 8 0 15 5 15 11 0 6 -7 9 -15 5 -8 -3 -15 -1 -15 4 0
6 -7 10 -15 10 -23 0 -18 18 10 36 13 9 27 24 30 35 4 10 15 19 26 19 15 0 19
7 19 31 0 31 0 31 -25 1 -14 -17 -25 -35 -25 -40 0 -18 -22 -25 -31 -11 -13
20 -11 87 3 112 7 12 11 31 10 42 -3 27 34 51 54 34 10 -8 14 -8 14 0 0 6 -5
11 -12 11 -9 0 -9 3 0 12 13 13 17 78 4 78 -17 0 -34 -42 -20 -52 10 -6 6 -14
-17 -33 -31 -26 -65 -33 -65 -14 0 5 5 7 10 4 16 -10 12 21 -5 35 -18 15 -10
32 13 29 36 -3 52 2 52 15 0 8 9 18 20 21 11 3 20 13 20 20 0 20 -26 8 -45
-21 -15 -24 -55 -34 -55 -14 0 19 -2 25 -12 37 -5 7 -7 16 -4 21 3 5 -7 22
-22 37 -26 27 -26 28 -4 23 22 -6 32 7 10 14 -6 2 -13 14 -15 26 -3 26 18 30
37 7 7 -9 15 -13 18 -11 8 9 -23 32 -53 41 -30 8 -30 8 2 21 17 7 34 18 38 24
8 14 -8 13 -23 -2 -8 -8 -15 -8 -26 1 -9 8 -24 10 -38 6 -14 -5 -8 3 17 20 50
34 50 34 43 41 -4 3 -18 -2 -32 -11 -16 -11 -26 -13 -26 -6 0 6 7 11 15 11 9
0 15 9 15 25 0 31 -16 33 -23 3 -5 -19 -8 -20 -23 -7 -16 13 -16 14 -1 17 23
5 21 29 -3 35 -11 3 -18 0 -17 -7z m7 -130 c0 -3 -5 -8 -12 -12 -7 -4 -8 -3
-4 4 7 12 16 16 16 8z m40 -16 c-8 -5 -19 -10 -25 -10 -5 0 -3 5 5 10 8 5 20
10 25 10 6 0 3 -5 -5 -10z m5 -37 c18 -14 18 -15 2 -9 -10 3 -23 6 -28 6 -5 0
-9 5 -9 10 0 14 12 12 35 -7z m-5 -33 c0 -5 -2 -10 -4 -10 -3 0 -8 5 -11 10
-3 6 -1 10 4 10 6 0 11 -4 11 -10z m-163 -72 c-3 -7 -5 -2 -5 12 0 14 2 19 5
13 2 -7 2 -19 0 -25z m182 -2 c8 -10 9 -16 1 -21 -5 -3 -10 0 -10 9 0 8 -6 17
-12 19 -8 4 -9 6 -2 6 6 1 17 -5 23 -13z m28 -53 c-4 -3 -10 -3 -14 0 -3 4 0
7 7 7 7 0 10 -3 7 -7z m-43 -48 c23 -35 20 -38 -9 -9 -27 27 -30 34 -16 34 5
0 16 -11 25 -25z m51 -115 c3 -5 1 -10 -4 -10 -6 0 -11 5 -11 10 0 6 2 10 4
10 3 0 8 -4 11 -10z m32 -7 c-4 -3 -7 0 -7 7 0 7 3 10 7 7 3 -4 3 -10 0 -14z
m-7 -39 c0 -8 -5 -12 -10 -9 -6 4 -8 11 -5 16 9 14 15 11 15 -7z m3 -104 c-3
-11 -14 -20 -25 -20 -16 0 -17 3 -8 20 6 11 17 20 24 20 9 0 12 -7 9 -20z"/>
<path d="M1800 1468 c-11 -18 -20 -44 -20 -58 0 -25 0 -25 21 0 21 25 21 25
15 -23 -3 -27 -16 -63 -28 -80 -23 -32 -23 -32 -29 25 -8 72 -30 106 -41 62
-3 -16 -18 -60 -32 -97 -16 -42 -26 -86 -25 -115 1 -41 2 -43 8 -17 4 17 7
-22 8 -90 0 -152 33 -315 64 -315 9 0 0 41 -14 58 -5 7 -7 15 -4 19 4 3 3 11
-3 17 -14 18 -30 133 -25 180 3 22 7 95 9 161 3 101 15 175 29 175 7 0 5 -84
-3 -106 -7 -18 -6 -24 4 -24 14 0 26 -21 26 -47 0 -11 -7 -14 -25 -9 -26 7
-26 7 -10 -25 9 -17 12 -28 6 -25 -6 4 -11 1 -11 -6 0 -33 21 -195 27 -208 3
-8 6 -26 5 -40 -1 -25 -1 -25 7 0 7 25 7 25 21 0 8 -14 16 -38 18 -55 6 -48
30 -96 52 -102 26 -7 26 -23 0 -23 -11 0 -23 7 -26 15 -4 8 -13 15 -22 15 -12
0 -12 -4 4 -21 16 -17 19 -34 17 -95 -2 -49 1 -74 8 -74 8 0 8 -4 0 -14 -10
-11 -8 -16 7 -20 22 -7 36 -36 53 -111 6 -27 27 -78 45 -113 19 -34 34 -68 34
-74 0 -6 11 -26 25 -43 13 -18 21 -36 17 -40 -4 -5 -1 -4 7 0 11 6 13 4 8 -9
-4 -9 -3 -15 1 -12 4 3 19 -13 32 -35 14 -21 28 -39 32 -39 5 0 8 -8 9 -17 0
-10 3 -13 5 -6 3 6 -2 23 -11 36 -11 17 -13 27 -5 32 6 3 8 11 5 16 -4 5 1 9
9 9 18 0 31 -19 28 -42 -2 -9 3 -20 9 -24 9 -5 10 -2 6 11 -4 9 -3 23 3 30 11
14 -44 59 -74 60 -23 0 -38 36 -24 56 8 11 9 11 5 -3 -4 -10 1 -18 11 -20 28
-8 32 -11 100 -76 68 -66 100 -79 38 -16 -19 20 -33 40 -31 44 3 4 -6 11 -20
14 -14 4 -25 11 -25 16 0 6 -11 15 -25 20 -29 11 -31 22 -9 45 9 9 13 19 10
23 -4 3 -10 1 -14 -5 -12 -19 -47 -8 -44 13 2 18 2 18 -13 0 -14 -19 -15 -19
-15 9 0 23 -3 26 -12 17 -16 -16 -28 -15 -28 3 0 9 -6 18 -14 21 -8 3 -17 21
-20 40 -4 19 -18 57 -31 86 -13 28 -22 55 -19 60 18 29 82 -18 86 -64 2 -19 8
-26 20 -25 22 2 23 10 3 27 -8 7 -15 18 -15 25 0 7 -20 30 -45 51 -25 22 -45
42 -45 47 0 12 32 8 49 -7 9 -7 29 -16 45 -20 26 -6 28 -5 17 8 -8 9 -20 16
-28 16 -7 0 -25 7 -38 16 -14 9 -31 14 -38 11 -8 -3 -20 -1 -28 4 -12 7 -11 9
2 9 12 0 15 7 11 25 -6 32 8 32 46 0 34 -28 57 -32 66 -10 6 17 -5 20 -21 4
-7 -7 -18 -3 -38 15 -15 14 -38 26 -50 26 -13 0 -30 11 -40 26 -16 25 -16 26
3 20 11 -4 23 -3 26 3 9 14 -4 39 -21 43 -8 2 -21 21 -28 43 -14 40 -14 40 10
10 13 -16 28 -25 32 -21 4 5 2 11 -4 13 -17 6 -17 43 0 43 7 0 18 -5 25 -12 6
-6 14 -9 18 -6 3 3 -8 14 -25 24 -17 10 -31 21 -31 25 0 4 -12 9 -27 12 -30 6
-84 77 -82 107 1 11 2 11 6 -3 2 -9 8 -15 12 -13 4 3 18 -13 31 -34 13 -21 34
-40 46 -43 21 -4 22 -3 7 19 -8 13 -19 22 -23 19 -8 -5 -24 25 -17 32 2 2 17
-3 33 -12 33 -17 74 -20 74 -5 0 6 -15 10 -32 10 -20 0 -45 10 -63 25 -21 18
-24 23 -10 18 19 -6 19 -5 3 13 -16 19 -41 94 -33 102 2 2 11 -3 20 -11 9 -9
29 -24 45 -34 17 -9 30 -21 30 -26 0 -5 -12 1 -26 12 -15 12 -34 21 -42 21 -8
0 5 -13 29 -30 54 -36 72 -37 87 -5 14 31 0 33 -22 3 -11 -15 -15 -17 -12 -6
3 10 -4 22 -18 32 -13 8 -26 24 -29 35 -7 28 1 26 25 -4 11 -14 24 -25 30 -25
16 0 -43 64 -62 67 -14 2 -17 -2 -13 -17 6 -22 -11 -27 -24 -7 -8 13 -12 27
-18 70 -4 25 3 32 28 28 4 0 7 4 7 10 0 6 -6 9 -14 6 -8 -3 -22 3 -32 14 -16
18 -16 20 1 39 22 25 35 26 35 3 0 -15 2 -16 10 -3 13 20 13 43 0 35 -5 -3
-10 -1 -10 4 0 6 5 11 10 11 6 0 10 11 10 24 0 13 5 26 10 28 14 4 -16 78 -31
78 -7 0 -5 10 5 25 9 14 14 25 11 25 -3 0 -14 -15 -25 -32z m-123 -265 c-4 -3
-7 0 -7 7 0 7 3 10 7 7 3 -4 3 -10 0 -14z m94 -70 c12 -14 12 -16 0 -8 -12 7
-13 0 -7 -36 17 -114 18 -118 3 -74 -13 37 -14 38 -19 15 -3 -15 -6 -6 -7 25
-1 44 7 95 14 95 1 0 9 -8 16 -17z m89 -303 c0 -5 -4 -10 -10 -10 -5 0 -10 5
-10 10 0 6 5 10 10 10 6 0 10 -4 10 -10z m20 -214 c0 -3 -5 -8 -12 -12 -7 -4
-8 -3 -4 4 7 12 16 16 16 8z m7 -103 c-4 -3 -7 0 -7 7 0 7 3 10 7 7 3 -4 3
-10 0 -14z m28 -3 c3 -5 1 -10 -4 -10 -6 0 -11 5 -11 10 0 6 2 10 4 10 3 0 8
-4 11 -10z m25 -185 c0 -5 -5 -3 -10 5 -5 8 -10 20 -10 25 0 6 5 3 10 -5 5 -8
10 -19 10 -25z m95 -133 c-4 -4 -10 -1 -12 6 -3 6 -9 10 -13 7 -11 -7 -32 30
-23 39 3 3 17 -6 31 -19 14 -14 21 -29 17 -33z m-5 -33 c0 -6 -4 -7 -10 -4 -5
3 -10 11 -10 16 0 6 5 7 10 4 6 -3 10 -11 10 -16z"/>
<path d="M1855 1490 c3 -5 11 -10 16 -10 6 0 7 5 4 10 -3 6 -11 10 -16 10 -6
0 -7 -4 -4 -10z"/>
<path d="M1980 1489 c0 -5 5 -7 10 -4 6 3 10 8 10 11 0 2 -4 4 -10 4 -5 0 -10
-5 -10 -11z"/>
<path d="M1930 1480 c8 -5 22 -10 30 -10 13 0 13 1 0 10 -8 5 -22 10 -30 10
-13 0 -13 -1 0 -10z"/>
<path d="M2263 1463 c4 -3 10 -3 14 0 3 4 0 7 -7 7 -7 0 -10 -3 -7 -7z"/>
<path d="M1900 1456 c0 -2 7 -6 15 -10 8 -3 15 -1 15 4 0 6 -7 10 -15 10 -8 0
-15 -2 -15 -4z"/>
<path d="M2243 1443 c9 -2 17 -9 17 -14 0 -5 5 -9 11 -9 8 0 8 5 -1 15 -7 8
-20 14 -29 14 -13 -1 -13 -2 2 -6z"/>
<path d="M2100 1423 c0 -5 9 -18 20 -28 11 -10 20 -14 20 -8 0 5 -9 18 -20 28
-11 10 -20 14 -20 8z"/>
<path d="M2204 1387 c12 -22 28 -42 36 -44 10 -3 10 -1 -2 6 -9 6 -19 24 -23
40 -3 16 -12 32 -19 34 -9 4 -6 -9 8 -36z"/>
<path d="M1940 1416 c0 -2 8 -10 18 -17 15 -13 16 -12 3 4 -13 16 -21 21 -21
13z"/>
<path d="M2020 1401 c0 -5 6 -14 14 -21 12 -9 15 -8 13 9 -1 20 -27 31 -27 12z"/>
<path d="M2270 1402 c0 -5 7 -13 16 -16 10 -4 14 -1 12 6 -5 15 -28 23 -28 10z"/>
<path d="M1980 1380 c0 -6 -4 -8 -10 -5 -17 10 -11 -4 10 -25 26 -26 28 -25
22 5 -4 26 -22 45 -22 25z"/>
<path d="M2066 1371 c10 -10 80 -24 72 -15 -4 3 -23 10 -43 14 -21 5 -34 5
-29 1z"/>
<path d="M2180 1371 c0 -5 5 -13 10 -16 6 -3 10 -2 10 4 0 5 -4 13 -10 16 -5
3 -10 2 -10 -4z"/>
<path d="M2517 1374 c-3 -3 0 -12 6 -19 12 -13 37 -2 37 16 0 10 -33 12 -43 3z"/>
<path d="M2260 1366 c0 -2 7 -7 16 -10 8 -3 12 -2 9 4 -6 10 -25 14 -25 6z"/>
<path d="M2500 1331 c0 -11 39 -26 47 -17 8 8 3 12 -24 20 -13 4 -23 3 -23 -3z"/>
<path d="M2000 1310 c-14 -10 -21 -22 -17 -27 5 -4 12 -1 17 7 5 8 12 11 15 8
10 -10 -32 -51 -44 -43 -6 3 -11 14 -11 24 0 12 -10 20 -27 24 -16 3 -36 9
-45 12 -13 5 -18 2 -18 -9 0 -9 6 -13 13 -10 19 7 70 -14 62 -25 -3 -5 0 -13
6 -16 5 -4 8 -13 5 -21 -3 -9 6 -15 32 -20 54 -10 67 -22 46 -45 -21 -23 -43
-24 -50 -4 -4 8 -10 15 -15 15 -5 0 -2 -11 6 -24 15 -23 15 -25 -2 -30 -12 -3
-9 -4 7 -3 14 1 30 -2 36 -5 6 -4 10 2 10 15 -1 32 32 35 40 3 3 -14 10 -26
15 -26 12 0 12 17 0 24 -5 3 -11 16 -14 28 -6 22 -5 22 8 4 8 -11 18 -16 22
-12 13 13 -55 66 -84 66 -26 0 -26 1 -10 17 15 16 18 15 38 -3 21 -18 22 -18
15 -1 -18 42 -19 50 -8 43 15 -9 15 -5 2 28 -11 31 -17 32 -50 6z"/>
<path d="M1963 1313 c4 -3 10 -3 14 0 3 4 0 7 -7 7 -7 0 -10 -3 -7 -7z"/>
<path d="M2240 1300 c-13 -8 -12 -10 3 -10 9 0 17 5 17 10 0 12 -1 12 -20 0z"/>
<path d="M1445 1173 c-47 -100 -55 -143 -11 -55 28 55 66 152 60 152 -2 0 -24
-43 -49 -97z"/>
<path d="M2542 1263 c-10 -4 -10 -8 -1 -19 9 -11 8 -14 -5 -14 -9 0 -16 -4
-16 -10 0 -5 9 -10 19 -10 15 0 19 7 19 30 -1 17 -1 30 -2 29 -1 0 -7 -3 -14
-6z"/>
<path d="M2480 1250 c0 -7 3 -10 7 -7 3 4 3 10 0 14 -4 3 -7 0 -7 -7z"/>
<path d="M2280 1225 c-7 -9 -8 -15 -2 -15 5 0 12 7 16 15 3 8 4 15 2 15 -2 0
-9 -7 -16 -15z"/>
<path d="M2090 1200 c0 -7 3 -10 7 -7 3 4 3 10 0 14 -4 3 -7 0 -7 -7z"/>
<path d="M1800 1176 c0 -2 7 -9 15 -16 13 -11 14 -10 9 4 -5 14 -24 23 -24 12z"/>
<path d="M2232 1104 c-7 -8 -8 -14 -3 -14 10 0 25 19 20 25 -2 1 -10 -3 -17
-11z"/>
<path d="M1631 1084 c0 -16 4 -38 9 -49 6 -13 7 -5 3 25 -7 53 -13 66 -12 24z"/>
<path d="M2270 1094 c0 -8 5 -12 10 -9 6 3 10 10 10 16 0 5 -4 9 -10 9 -5 0
-10 -7 -10 -16z"/>
<path d="M2024 1088 c-3 -4 2 -8 10 -8 8 0 17 4 20 8 3 5 -2 9 -10 9 -8 0 -17
-4 -20 -9z"/>
<path d="M2156 1077 c6 -17 -14 -34 -46 -39 -19 -2 -25 1 -24 15 2 21 -5 21
-42 2 -29 -15 -29 -15 -2 -15 15 0 30 -5 33 -11 4 -6 13 -8 21 -5 8 3 14 -1
14 -9 0 -8 7 -15 15 -15 21 0 19 -9 -7 -31 -13 -10 -18 -18 -11 -19 6 0 15 5
18 11 4 6 19 7 37 4 21 -5 28 -4 24 4 -4 6 -13 11 -20 11 -25 0 -38 48 -16 60
26 14 33 13 27 -4 -4 -10 -1 -13 9 -9 21 8 17 26 -11 46 -17 12 -23 13 -19 4z"/>
<path d="M2310 1080 c0 -5 5 -10 10 -10 6 0 10 5 10 10 0 6 -4 10 -10 10 -5 0
-10 -4 -10 -10z"/>
<path d="M2100 1059 c0 -5 5 -7 10 -4 6 3 10 8 10 11 0 2 -4 4 -10 4 -5 0 -10
-5 -10 -11z"/>
<path d="M2237 1035 c-21 -15 -17 -45 8 -65 23 -19 18 -28 -22 -49 -45 -24
-35 -28 12 -5 39 18 50 38 29 55 -13 10 -12 14 2 30 10 11 12 19 7 19 -6 0
-14 -8 -17 -17 -5 -13 -9 -14 -19 -4 -9 10 -8 15 7 27 11 7 18 16 15 18 -2 2
-12 -2 -22 -9z"/>
<path d="M2305 1030 c3 -5 8 -10 11 -10 2 0 4 5 4 10 0 6 -5 10 -11 10 -5 0
-7 -4 -4 -10z"/>
<path d="M2520 1011 c10 -7 11 -11 3 -11 -8 0 -13 -13 -13 -30 0 -33 19 -40
40 -16 20 25 8 61 -20 64 -20 2 -22 1 -10 -7z"/>
<path d="M1993 1003 c4 -3 10 -3 14 0 3 4 0 7 -7 7 -7 0 -10 -3 -7 -7z"/>
<path d="M2080 1000 c0 -7 3 -10 7 -7 3 4 3 10 0 14 -4 3 -7 0 -7 -7z"/>
<path d="M1650 990 c0 -7 3 -10 7 -7 3 4 3 10 0 14 -4 3 -7 0 -7 -7z"/>
<path d="M2290 994 c1 -13 29 -48 34 -43 2 2 -4 15 -15 28 -10 13 -19 19 -19
15z"/>
<path d="M2023 983 c4 -3 10 -3 14 0 3 4 0 7 -7 7 -7 0 -10 -3 -7 -7z"/>
<path d="M1860 970 c0 -6 7 -10 15 -10 8 0 15 2 15 4 0 2 -7 6 -15 10 -8 3
-15 1 -15 -4z"/>
<path d="M1971 963 c0 -12 -5 -25 -11 -28 -5 -3 -10 -11 -10 -17 0 -6 7 -5 17
3 15 12 16 12 10 -6 -6 -17 -4 -17 13 4 22 26 54 22 43 -5 -4 -12 -3 -15 5
-10 21 12 13 36 -15 47 -19 7 -28 6 -34 -2 -5 -8 -9 -4 -12 12 -4 22 -4 22 -6
2z"/>
<path d="M2320 914 c-25 -15 -25 -15 0 -8 14 3 29 10 35 15 15 14 -7 10 -35
-7z"/>
<path d="M2069 909 c-10 -6 -7 -9 13 -9 14 0 28 -5 30 -12 3 -8 12 -4 26 10
17 17 18 22 7 22 -8 0 -15 -4 -15 -10 0 -6 -9 -6 -23 -1 -14 6 -30 6 -38 0z"/>
<path d="M2240 890 c0 -6 7 -10 15 -10 8 0 15 2 15 4 0 2 -7 6 -15 10 -8 3
-15 1 -15 -4z"/>
<path d="M1670 880 c0 -7 3 -10 7 -7 3 4 3 10 0 14 -4 3 -7 0 -7 -7z"/>
<path d="M1886 874 c-5 -14 -4 -15 9 -4 17 14 19 20 6 20 -5 0 -12 -7 -15 -16z"/>
<path d="M2200 875 c0 -15 -13 -19 -62 -15 -22 1 -28 -3 -28 -19 0 -12 6 -21
15 -21 8 0 15 5 15 10 0 6 10 10 23 10 13 0 28 5 34 11 22 22 43 3 33 -29 -6
-23 -5 -29 6 -28 19 3 43 26 26 26 -7 0 -12 5 -12 11 0 6 9 8 20 4 11 -3 20
-2 20 4 0 5 -14 12 -31 16 -17 4 -33 13 -36 21 -7 19 -23 18 -23 -1z"/>
<path d="M2003 860 c6 -11 15 -20 19 -20 12 0 -3 28 -18 34 -11 4 -12 2 -1
-14z"/>
<path d="M2319 863 c-1 -5 -2 -14 -3 -20 -1 -14 -93 -93 -108 -93 -5 0 -2 -7
6 -15 20 -20 65 0 85 37 7 13 24 32 39 42 15 10 20 15 11 13 -12 -4 -15 1 -13
19 2 21 -14 37 -17 17z m-53 -109 c-11 -7 -22 -12 -25 -9 -2 3 4 12 15 19 10
8 21 12 24 9 3 -2 -4 -11 -14 -19z"/>
<path d="M1943 843 c4 -3 10 -3 14 0 3 4 0 7 -7 7 -7 0 -10 -3 -7 -7z"/>
<path d="M2547 837 c-11 -29 -9 -53 4 -40 6 6 9 21 7 34 -3 21 -4 22 -11 6z"/>
<path d="M2072 833 c-6 -2 -10 -9 -6 -14 13 -21 -7 -49 -27 -39 -13 7 -25 7
-37 1 -13 -7 -23 -6 -31 2 -9 9 -10 3 -5 -23 3 -19 2 -30 -3 -25 -4 6 -28 11
-53 12 -43 2 -44 1 -13 -8 18 -5 34 -13 38 -18 3 -5 14 -7 26 -4 12 4 25 0 30
-8 7 -11 9 -10 9 4 0 9 -4 17 -10 17 -16 0 -11 27 6 34 22 9 24 8 25 -11 0
-11 3 -13 6 -5 4 11 63 18 63 7 0 -11 -35 -45 -47 -45 -7 0 -13 -8 -13 -17 0
-11 3 -14 8 -7 8 12 42 26 42 18 0 -3 -9 -24 -20 -46 -24 -51 -24 -57 0 -88
14 -18 16 -28 8 -38 -9 -11 -6 -12 17 -6 24 6 27 4 22 -10 -4 -10 -3 -15 3
-11 5 3 19 -4 30 -15 11 -11 26 -18 32 -14 7 4 2 14 -13 25 -13 10 -19 19 -14
19 6 0 2 5 -8 11 -13 8 -17 18 -13 35 4 14 2 24 -4 24 -5 0 -10 -10 -11 -22 0
-13 -3 -17 -6 -10 -2 6 -9 10 -13 7 -8 -5 -40 32 -40 47 0 4 16 10 36 14 42 8
88 -28 89 -68 2 -30 32 -76 56 -83 11 -4 17 -11 13 -16 -3 -6 -12 -8 -20 -5
-11 4 -10 -1 3 -18 19 -25 36 -26 27 -2 -6 16 12 31 20 18 8 -13 -13 -82 -24
-82 -6 0 -10 -4 -10 -10 0 -20 21 -9 33 18 15 34 36 51 57 45 11 -3 10 0 -3
10 -13 11 -17 22 -12 39 7 22 7 23 -8 3 -12 -16 -18 -17 -28 -8 -10 10 -10 15
0 27 7 8 10 20 6 25 -8 14 23 59 46 66 10 4 19 11 19 17 0 6 -11 3 -25 -6 -31
-20 -46 -21 -39 -1 4 8 12 15 20 15 15 0 18 9 6 27 -11 17 -47 -11 -36 -29 6
-10 4 -10 -9 1 -9 7 -17 21 -17 30 -1 38 -18 47 -42 24 -19 -20 -20 -23 -5
-23 9 0 17 5 17 10 0 6 5 10 10 10 6 0 10 -10 10 -23 0 -13 5 -28 12 -35 6 -6
8 -15 4 -19 -4 -4 -12 -1 -17 7 -9 13 -10 13 -6 0 6 -20 -10 -50 -26 -50 -7 0
-18 20 -26 44 -9 30 -19 46 -34 50 -22 6 -22 6 2 26 13 11 33 20 44 20 16 0
18 3 9 12 -8 8 -20 5 -46 -15 -19 -15 -39 -27 -44 -27 -16 0 -26 78 -12 95 9
11 7 16 -10 25 -18 10 -19 13 -5 26 27 27 19 50 -13 37z m10 -185 c-7 -7 -12
-8 -12 -2 0 14 12 26 19 19 2 -3 -1 -11 -7 -17z m175 -106 c22 -14 17 -27 -13
-33 -40 -8 -49 -1 -27 21 21 21 24 22 40 12z m13 -46 c0 -11 -19 -15 -25 -6
-3 5 1 10 9 10 9 0 16 -2 16 -4z"/>
<path d="M2010 820 c0 -5 5 -10 10 -10 6 0 10 5 10 10 0 6 -4 10 -10 10 -5 0
-10 -4 -10 -10z"/>
<path d="M1694 799 c2 -9 7 -41 11 -73 4 -31 12 -59 18 -63 13 -8 -1 83 -19
122 -8 16 -12 23 -10 14z"/>
<path d="M2155 794 c9 -9 19 -13 23 -10 3 4 0 11 -8 16 -24 15 -33 11 -15 -6z"/>
<path d="M2103 793 c4 -3 10 -3 14 0 3 4 0 7 -7 7 -7 0 -10 -3 -7 -7z"/>
<path d="M2140 763 c0 -13 5 -23 10 -23 13 0 13 11 0 30 -8 12 -10 11 -10 -7z"/>
<path d="M2543 763 c4 -3 10 -3 14 0 3 4 0 7 -7 7 -7 0 -10 -3 -7 -7z"/>
<path d="M1760 751 c0 -6 4 -13 10 -16 6 -3 7 1 4 9 -7 18 -14 21 -14 7z"/>
<path d="M2288 725 c-36 -34 -37 -35 -13 -35 13 0 28 -7 33 -16 5 -9 12 -12
15 -7 3 5 -3 15 -13 23 -18 13 -18 14 1 42 26 36 22 35 -23 -7z"/>
<path d="M2527 730 c-9 -11 -17 -25 -17 -30 0 -5 -10 -14 -21 -21 -15 -8 -19
-8 -15 0 4 6 3 11 -3 11 -5 0 -16 3 -25 6 -11 4 -16 1 -16 -10 0 -9 -6 -16
-13 -16 -29 0 -48 -34 -31 -56 15 -18 15 -18 9 3 -7 25 11 41 28 24 8 -8 7
-11 -2 -11 -11 0 -11 -3 -2 -14 10 -12 9 -20 -4 -40 -20 -30 -42 -33 -61 -8
-12 15 -13 14 -14 -15 0 -21 -6 -33 -17 -37 -10 -2 -7 -4 7 -3 14 2 24 8 23
15 -5 20 25 14 37 -8 6 -12 8 -30 5 -40 -8 -24 11 -26 39 -5 19 15 13 40 -9
31 -19 -7 -24 13 -12 47 8 25 37 39 37 17 0 -5 7 -10 15 -10 18 0 56 -40 49
-51 -3 -5 -16 3 -29 19 -19 21 -24 23 -25 10 0 -9 12 -28 26 -42 28 -25 26
-58 -2 -35 -7 6 -11 15 -8 20 3 5 0 9 -5 9 -6 0 -11 -4 -11 -10 0 -5 -7 -10
-16 -10 -13 0 -14 -2 -1 -15 20 -19 67 -31 67 -16 0 7 9 9 25 5 15 -4 25 -2
25 5 0 6 -6 11 -14 11 -31 0 -38 27 -11 48 16 13 25 29 25 48 -1 29 -1 29 -16
2 -8 -16 -17 -28 -20 -28 -3 0 -3 4 0 9 3 5 -1 12 -10 15 -9 4 -14 13 -10 21
3 8 0 15 -6 15 -6 0 -1 11 12 25 23 25 43 25 34 1 -3 -8 -1 -17 5 -21 8 -4 11
20 11 74 0 85 -5 94 -33 61z m-27 -80 c0 -5 -4 -10 -10 -10 -5 0 -10 5 -10 10
0 6 5 10 10 10 6 0 10 -4 10 -10z"/>
<path d="M2370 690 c0 -5 5 -10 10 -10 6 0 10 5 10 10 0 6 -4 10 -10 10 -5 0
-10 -4 -10 -10z"/>
<path d="M1910 683 c0 -5 13 -8 29 -8 16 0 27 3 24 8 -2 4 -15 7 -29 7 -13 0
-24 -3 -24 -7z"/>
<path d="M1963 663 c-13 -2 -23 -8 -23 -12 0 -5 11 -6 25 -3 14 2 25 8 25 13
0 5 -1 8 -2 8 -2 -1 -13 -4 -25 -6z"/>
<path d="M1715 625 c3 -16 16 -102 30 -190 31 -202 86 -415 108 -415 5 0 6 8
2 17 -33 79 -93 358 -109 504 -2 25 -12 61 -20 80 -16 34 -16 34 -11 4z"/>
<path d="M2215 620 c3 -5 8 -10 11 -10 2 0 4 5 4 10 0 6 -5 10 -11 10 -5 0 -7
-4 -4 -10z"/>
<path d="M2090 616 c0 -2 7 -6 15 -10 8 -3 15 -1 15 4 0 6 -7 10 -15 10 -8 0
-15 -2 -15 -4z"/>
<path d="M2203 563 c4 -3 10 -3 14 0 3 4 0 7 -7 7 -7 0 -10 -3 -7 -7z"/>
<path d="M2040 480 c0 -5 5 -10 10 -10 6 0 10 5 10 10 0 6 -4 10 -10 10 -5 0
-10 -4 -10 -10z"/>
<path d="M2367 463 c4 -10 2 -14 -4 -10 -6 4 -13 -5 -16 -21 -3 -16 -17 -34
-31 -42 -14 -7 -26 -18 -26 -23 0 -5 6 -4 13 2 16 13 27 5 27 -21 0 -19 -15
-24 -25 -8 -3 6 -14 10 -23 10 -15 -1 -15 -2 2 -15 10 -8 24 -16 30 -18 7 -3
5 -11 -6 -24 -23 -25 -22 -30 2 -43 14 -7 20 -7 20 0 0 5 -7 10 -15 10 -20 0
-19 12 4 32 18 15 19 14 26 -20 4 -21 11 -42 16 -49 7 -7 6 -14 -1 -18 -14 -9
-13 -48 3 -64 10 -11 9 -13 -3 -9 -23 8 -49 -23 -39 -47 7 -19 8 -19 8 1 1 26
37 39 45 17 9 -21 8 -23 -11 -23 -14 0 -18 -10 -20 -43 -2 -38 -1 -40 10 -20
8 15 17 19 26 14 11 -7 11 -9 0 -13 -24 -9 -5 -17 24 -11 27 5 27 6 7 20 -11
8 -20 22 -19 31 0 10 3 12 6 5 3 -8 14 -11 31 -7 39 10 47 20 28 40 -17 16
-17 16 -14 -1 4 -22 -20 -32 -28 -12 -6 16 48 119 66 125 6 2 14 -5 17 -17 6
-25 12 -26 40 -2 31 26 33 196 2 188 -15 -4 -17 -2 -9 13 12 23 13 30 1 30 -5
0 -11 -9 -14 -20 -4 -14 -10 -18 -23 -13 -12 4 -15 3 -10 -6 5 -7 0 -21 -10
-32 -20 -23 -8 -26 17 -4 15 15 16 13 8 -31 -8 -42 -6 -50 12 -70 12 -13 18
-28 14 -35 -6 -8 -18 0 -41 27 -33 38 -43 40 -25 5 10 -18 -19 -81 -38 -81
-12 0 -19 68 -10 108 6 27 4 32 -12 32 -10 0 -19 4 -19 9 0 12 39 21 46 10 3
-5 10 -7 15 -3 6 4 2 14 -10 25 -12 11 -21 24 -21 30 0 6 -4 7 -10 4 -11 -7
-25 39 -15 55 8 13 -3 50 -15 50 -5 0 -6 -7 -3 -17z m0 -65 c-3 -8 -6 -5 -6 6
-1 11 2 17 5 13 3 -3 4 -12 1 -19z m-2 -61 c1 -12 5 -40 9 -62 5 -29 4 -36 -3
-25 -6 8 -11 27 -11 42 0 15 -4 30 -10 33 -5 3 -10 18 -10 33 0 33 24 14 25
-21z m171 -13 c-4 -9 -9 -15 -11 -12 -3 3 -3 13 1 22 4 9 9 15 11 12 3 -3 3
-13 -1 -22z m-139 -71 c-3 -10 -5 -4 -5 12 0 17 2 24 5 18 2 -7 2 -21 0 -30z
m-2 -93 c3 -5 1 -10 -4 -10 -6 0 -11 5 -11 10 0 6 2 10 4 10 3 0 8 -4 11 -10z"/>
<path d="M1856 410 c6 -88 32 -170 53 -170 12 0 13 2 3 8 -7 5 -10 17 -6 28 4
14 3 15 -4 6 -6 -10 -14 11 -25 70 -25 124 -27 129 -21 58z"/>
<path d="M2075 450 c3 -5 14 -10 23 -10 14 0 15 -2 2 -10 -8 -5 -12 -11 -9
-14 3 -3 16 2 29 11 22 16 22 17 4 24 -28 11 -56 11 -49 -1z"/>
<path d="M2160 445 c0 -9 7 -18 15 -21 8 -4 15 -13 15 -20 0 -8 -7 -17 -15
-20 -8 -4 -15 -11 -15 -16 0 -7 5 -6 14 1 11 9 15 6 19 -14 3 -20 1 -25 -10
-21 -8 3 -19 6 -24 6 -5 0 -9 7 -9 15 0 8 -4 15 -9 15 -5 0 -16 3 -25 6 -9 3
-16 1 -16 -4 0 -6 9 -14 20 -17 11 -3 20 -13 20 -21 0 -8 4 -14 9 -14 5 0 13
-10 17 -22 8 -23 8 -23 15 2 7 24 7 24 8 3 2 -40 20 -25 23 20 3 44 -11 107
-24 107 -5 0 -8 7 -8 15 0 8 -4 15 -10 15 -5 0 -10 -7 -10 -15z"/>
<path d="M2015 440 c-4 -6 -2 -17 4 -24 7 -8 22 -34 35 -60 23 -46 23 -46 2
-60 -20 -14 -20 -15 10 -13 34 2 34 5 9 62 -8 17 -16 37 -20 45 -15 39 -33 61
-40 50z"/>
<path d="M2427 433 c5 -12 2 -15 -10 -10 -9 3 -17 3 -17 -2 0 -5 9 -11 19 -14
20 -5 36 17 25 34 -9 16 -24 10 -17 -8z"/>
<path d="M1950 404 c0 -14 4 -23 9 -20 5 3 7 15 4 26 -7 28 -13 25 -13 -6z"/>
<path d="M2010 355 c0 -25 15 -49 27 -44 6 2 2 18 -8 34 -16 25 -19 26 -19 10z"/>
<path d="M2224 317 c-3 -10 -1 -24 6 -33 10 -11 10 -18 2 -26 -7 -7 -12 -21
-12 -32 0 -11 -7 -27 -16 -37 -9 -10 -11 -19 -6 -23 11 -7 45 46 55 86 8 32
-18 92 -29 65z"/>
<path d="M2067 263 c-4 -3 -7 -11 -7 -17 0 -6 5 -5 12 2 6 6 9 14 7 17 -3 3
-9 2 -12 -2z"/>
<path d="M2190 230 c0 -5 5 -10 10 -10 6 0 10 5 10 10 0 6 -4 10 -10 10 -5 0
-10 -4 -10 -10z"/>
<path d="M2335 220 c-3 -5 -15 -10 -25 -10 -10 0 -21 -4 -24 -8 -2 -4 11 -6
30 -4 20 3 34 10 34 18 0 16 -6 18 -15 4z"/>
<path d="M1926 173 c7 -16 14 -36 14 -45 0 -10 8 -26 18 -36 9 -9 22 -28 29
-42 7 -15 12 -19 12 -9 1 8 -10 30 -24 49 -14 19 -25 44 -25 56 0 13 -7 30
-16 38 -22 23 -25 20 -8 -11z"/>
<path d="M2160 190 c0 -7 3 -10 7 -7 3 4 3 10 0 14 -4 3 -7 0 -7 -7z"/>
<path d="M2521 159 c-13 -18 -20 -37 -16 -49 4 -12 0 -22 -12 -29 -10 -6 -13
-11 -6 -11 7 0 10 -6 7 -14 -4 -11 3 -14 29 -13 30 2 34 5 33 27 0 14 -5 29
-11 33 -7 6 -6 10 3 14 13 5 17 59 4 67 -5 3 -19 -8 -31 -25z m17 -19 c-7 -10
-14 -17 -17 -15 -4 4 18 35 25 35 2 0 -1 -9 -8 -20z"/>
<path d="M2238 143 c-24 -6 -23 -23 2 -23 11 0 20 7 20 15 0 8 -1 14 -2 14 -2
-1 -11 -3 -20 -6z"/>
<path d="M1973 133 c4 -3 10 -3 14 0 3 4 0 7 -7 7 -7 0 -10 -3 -7 -7z"/>
<path d="M2273 93 c4 -3 10 -3 14 0 3 4 0 7 -7 7 -7 0 -10 -3 -7 -7z"/>
<path d="M2100 65 c0 -8 5 -15 10 -15 6 0 10 7 10 15 0 8 -4 15 -10 15 -5 0
-10 -7 -10 -15z"/>
<path d="M2022 40 c0 -14 2 -19 5 -12 2 6 2 18 0 25 -3 6 -5 1 -5 -13z"/>
<path d="M2176 25 c4 -8 11 -15 16 -15 6 0 5 6 -2 15 -7 8 -14 15 -16 15 -2 0
-1 -7 2 -15z"/>
<path d="M2260 30 c0 -7 3 -10 7 -7 3 4 3 10 0 14 -4 3 -7 0 -7 -7z"/>
<path d="M2540 10 c0 -5 5 -10 11 -10 5 0 7 5 4 10 -3 6 -8 10 -11 10 -2 0 -4
-4 -4 -10z"/>
</g>
</svg>
