<?xml version="1.0" standalone="no"?>
<!DOCTYPE svg PUBLIC "-//W3C//DTD SVG 20010904//EN"
 "http://www.w3.org/TR/2001/REC-SVG-20010904/DTD/svg10.dtd">
<svg version="1.0" xmlns="http://www.w3.org/2000/svg"
 width="384.000000pt" height="256.000000pt" viewBox="0 0 384.000000 256.000000"
 preserveAspectRatio="xMidYMid meet">
<metadata>
Created by potrace 1.16, written by Peter Selinger 2001-2019
</metadata>
<g transform="translate(0.000000,256.000000) scale(0.100000,-0.100000)"
fill="#000000" stroke="none">
<path d="M2643 2537 c-15 -13 -40 -31 -55 -40 -16 -10 -28 -22 -28 -28 0 -11
50 20 91 58 21 19 34 23 65 19 50 -6 94 -23 94 -36 0 -5 5 -10 11 -10 21 0 2
25 -32 42 -50 25 -111 23 -146 -5z"/>
<path d="M1657 2523 c-11 -10 -8 -41 5 -49 7 -5 9 -2 6 8 -12 30 5 37 56 24
44 -12 68 -30 79 -60 2 -6 8 -8 12 -4 4 4 -2 20 -13 36 -24 33 -126 65 -145
45z"/>
<path d="M3463 2473 c4 -3 10 -3 14 0 3 4 0 7 -7 7 -7 0 -10 -3 -7 -7z"/>
<path d="M3480 2430 c0 -7 3 -10 7 -7 3 4 3 10 0 14 -4 3 -7 0 -7 -7z"/>
<path d="M880 2420 c8 -5 24 -9 35 -9 20 0 20 0 0 9 -30 13 -55 13 -35 0z"/>
<path d="M2535 2414 c11 -8 19 -20 18 -25 -2 -5 1 -9 6 -9 5 0 11 9 14 19 3
13 0 18 -8 15 -7 -3 -16 -1 -20 5 -3 6 -12 11 -18 11 -7 0 -3 -8 8 -16z"/>
<path d="M965 2400 c17 -4 41 -8 55 -8 25 0 25 0 0 8 -14 4 -38 8 -55 8 -30 0
-30 0 0 -8z"/>
<path d="M3369 2390 c-8 -5 -57 -12 -108 -16 -73 -6 -99 -12 -120 -28 -25 -21
-50 -39 -110 -78 -19 -13 -21 -18 -9 -18 9 0 23 6 30 13 26 26 124 86 148 91
14 3 68 8 120 11 52 3 99 11 105 17 7 8 5 9 -6 5 -9 -3 -20 -2 -25 3 -5 5 -16
5 -25 0z"/>
<path d="M3530 2389 c0 -5 5 -7 10 -4 6 3 10 8 10 11 0 2 -4 4 -10 4 -5 0 -10
-5 -10 -11z"/>
<path d="M1060 2386 c0 -2 9 -6 20 -9 11 -3 18 -1 14 4 -5 9 -34 13 -34 5z"/>
<path d="M2889 2369 c-23 -19 -23 -20 -2 -10 12 6 25 16 28 21 10 16 -1 12
-26 -11z"/>
<path d="M2505 2350 c-9 -14 -4 -170 5 -170 4 0 13 6 19 13 21 26 90 42 124
29 42 -16 48 -6 7 12 -29 12 -39 11 -84 -4 -58 -21 -66 -16 -66 42 0 76 -2 76
145 18 44 -17 107 -40 140 -52 120 -42 116 -37 114 -131 0 -45 2 -91 6 -102 4
-11 -10 7 -30 40 -20 33 -43 67 -51 76 -22 25 -16 31 14 12 24 -16 24 -14 -5
14 -18 17 -33 38 -33 46 0 16 -103 61 -124 54 -6 -2 12 -11 41 -21 31 -10 58
-27 67 -42 21 -30 13 -30 -41 1 -23 14 -43 24 -43 21 0 -3 21 -17 46 -32 53
-31 126 -134 149 -211 18 -60 18 -61 0 -37 -20 27 -19 10 4 -34 10 -20 22 -57
26 -82 4 -25 14 -62 22 -83 24 -58 9 -54 -26 8 -49 86 -45 65 8 -42 26 -54 53
-109 60 -123 6 -14 9 -17 7 -7 -6 20 0 22 18 5 11 -11 11 -15 -1 -23 -9 -7
-13 -23 -11 -40 3 -30 4 -29 25 16 26 54 40 67 81 75 31 6 32 6 33 -32 1 -22
3 -30 6 -19 10 39 25 47 73 42 25 -3 37 -3 27 0 -12 3 -16 10 -12 21 34 87
-28 178 -86 126 -10 -9 -19 -22 -19 -27 0 -6 9 -2 19 7 19 17 19 17 15 -6 -5
-21 -4 -20 11 5 18 32 27 29 45 -13 11 -28 10 -32 -11 -51 -12 -11 -29 -17
-37 -14 -7 3 -16 5 -18 5 -2 0 -4 11 -4 25 0 14 -4 25 -9 25 -10 0 -23 -31
-20 -46 4 -26 -4 -31 -53 -29 -29 1 -59 2 -65 3 -14 2 -45 57 -37 65 3 3 -6
51 -20 107 -22 85 -27 126 -29 255 -1 84 -5 156 -8 160 -4 3 -74 30 -155 60
-82 29 -172 62 -201 74 -31 12 -54 17 -58 11z m732 -735 c-7 -16 -77 -22 -77
-6 0 6 16 7 35 4 29 -5 35 -3 35 12 0 10 3 16 6 12 4 -3 4 -13 1 -22z m-181
-30 c-8 -8 -17 -15 -20 -15 -3 0 -6 7 -6 15 0 9 9 15 21 15 18 0 19 -2 5 -15z"/>
<path d="M3344 2313 c-26 -40 -22 -149 7 -179 25 -26 66 -36 105 -24 26 7 23
8 -22 9 -66 1 -111 40 -81 70 15 15 30 14 24 -1 -2 -7 -1 -22 4 -33 6 -16 8
-12 8 16 1 39 -18 56 -38 36 -8 -8 -11 1 -11 34 1 49 18 79 46 79 16 0 17 2 4
10 -22 14 -26 13 -46 -17z"/>
<path d="M2528 2314 c-4 -5 0 -20 8 -34 7 -14 13 -18 13 -10 -1 24 -15 54 -21
44z"/>
<path d="M2563 2275 c-13 -41 -3 -46 15 -8 14 32 15 43 4 43 -5 0 -13 -16 -19
-35z"/>
<path d="M2825 2300 c3 -5 8 -10 11 -10 2 0 4 5 4 10 0 6 -5 10 -11 10 -5 0
-7 -4 -4 -10z"/>
<path d="M1515 2280 c3 -5 11 -10 16 -10 6 0 7 5 4 10 -3 6 -11 10 -16 10 -6
0 -7 -4 -4 -10z"/>
<path d="M1580 2279 c0 -5 13 -9 29 -9 16 0 44 -6 62 -14 19 -7 57 -16 84 -19
45 -5 46 -4 15 4 -19 6 -57 16 -85 24 -68 19 -105 24 -105 14z"/>
<path d="M3376 2264 c-3 -9 -2 -22 2 -31 6 -10 9 -5 9 16 0 35 -2 38 -11 15z"/>
<path d="M3424 2238 c-4 -7 -3 -8 4 -4 7 4 12 9 12 12 0 8 -9 4 -16 -8z"/>
<path d="M3583 2223 c4 -3 10 -3 14 0 3 4 0 7 -7 7 -7 0 -10 -3 -7 -7z"/>
<path d="M1830 2219 c0 -12 71 -148 81 -154 6 -4 -6 24 -25 62 -36 70 -56 102
-56 92z"/>
<path d="M3407 2213 c10 -3 10 -10 2 -24 -11 -21 8 -49 33 -49 8 0 6 4 -5 11
-12 7 -16 18 -12 40 4 23 2 29 -12 28 -11 0 -13 -3 -6 -6z"/>
<path d="M1783 2203 c4 -3 10 -3 14 0 3 4 0 7 -7 7 -7 0 -10 -3 -7 -7z"/>
<path d="M3440 2200 c0 -7 3 -10 7 -7 3 4 3 10 0 14 -4 3 -7 0 -7 -7z"/>
<path d="M1667 2194 c-4 -4 -2 -13 3 -19 17 -21 -16 -88 -40 -80 -12 4 -20 2
-20 -5 0 -30 53 -4 67 33 15 37 8 88 -10 71z"/>
<path d="M2515 2162 c-112 -70 -173 -202 -132 -282 7 -14 19 -47 26 -75 8 -27
31 -85 52 -127 22 -43 39 -81 39 -85 0 -17 -50 43 -51 61 -1 18 -2 18 -6 3 -6
-23 74 -130 89 -121 7 5 9 2 5 -9 -3 -9 -2 -19 3 -22 13 -8 8 -56 -5 -52 -5 2
-9 11 -9 20 1 10 -3 14 -9 10 -6 -4 -8 0 -4 11 4 10 3 15 -3 11 -6 -3 -10 -1
-10 5 0 6 -16 25 -35 43 -19 18 -44 55 -55 82 -19 50 -19 50 -20 2 0 -30 10
-71 26 -110 34 -79 46 -119 33 -112 -5 4 -9 -5 -9 -19 0 -29 -30 -26 -30 3 -1
30 -27 52 -66 55 -44 4 -61 32 -74 116 -6 34 -8 19 -9 -60 -1 -101 10 -173 28
-185 5 -3 7 14 4 37 -4 29 -3 39 5 34 7 -4 12 -14 12 -22 0 -8 4 -14 10 -14 5
0 7 7 4 15 -11 27 5 16 21 -15 18 -34 22 -108 12 -213 -3 -41 -2 -65 4 -62 5
4 9 0 9 -8 0 -8 7 -17 15 -21 8 -3 15 -10 15 -16 0 -5 -7 -10 -15 -10 -8 0
-15 5 -15 11 0 6 -11 24 -25 41 -22 26 -25 27 -25 10 0 -11 4 -22 8 -24 15 -5
23 -80 9 -76 -23 7 -67 112 -71 173 -4 45 -3 51 3 25 7 -30 9 -31 10 -9 0 14
4 47 7 73 5 31 3 46 -5 46 -6 0 -11 -16 -11 -37 0 -20 -2 -34 -5 -31 -3 3 -6
38 -6 78 0 64 -3 75 -24 91 -17 14 -25 34 -30 76 -8 62 -12 59 -34 -23 -7 -28
-23 -50 -46 -68 -34 -26 -44 -22 -26 12 15 30 23 74 11 67 -5 -3 -11 -16 -11
-28 -1 -16 -3 -17 -6 -5 -2 9 5 54 16 99 14 60 16 89 9 102 -8 17 -7 18 14 12
16 -5 20 -4 13 3 -18 19 -67 26 -63 9 2 -8 -25 -42 -59 -76 -35 -34 -63 -66
-63 -71 0 -12 -60 -74 -74 -76 -6 -1 -20 -5 -31 -9 -13 -4 -5 7 20 31 22 22
39 42 37 47 -5 15 49 88 60 81 7 -4 8 -3 4 4 -4 6 -2 22 5 34 12 22 12 22 21
-2 13 -35 25 -11 20 40 -4 42 -4 42 -22 13 -9 -15 -25 -35 -35 -43 -13 -10
-10 -3 8 25 37 58 44 92 21 111 -11 9 -13 12 -5 8 20 -10 4 34 -26 71 -13 17
-36 49 -50 72 -15 23 -37 46 -50 52 -13 6 -23 17 -23 26 0 8 -4 15 -10 15 -18
0 -11 -35 10 -47 22 -14 44 -84 36 -116 -3 -12 -3 -16 0 -9 7 16 44 -22 45
-47 0 -10 2 -12 6 -4 3 10 8 9 20 -3 26 -25 12 -124 -26 -183 -35 -55 -41 -74
-11 -40 21 24 21 24 6 -7 -20 -40 -66 -95 -75 -90 -4 3 -30 -15 -57 -39 -27
-25 -44 -45 -38 -45 5 0 15 5 22 12 25 25 11 -11 -23 -60 -19 -28 -37 -63 -40
-79 -6 -28 -6 -28 10 0 14 24 35 37 35 22 0 -14 -52 -106 -57 -101 -3 3 -18
-12 -34 -33 -39 -55 -41 -55 -108 -16 -64 38 -80 53 -63 64 6 3 10 48 10 106
-1 150 2 175 24 209 20 31 20 31 15 -12 -3 -26 2 -65 13 -102 19 -62 14 -76
-13 -38 -9 13 -16 18 -16 12 -1 -6 10 -23 24 -38 23 -24 35 -67 33 -109 -1
-14 -7 -17 -26 -12 -15 4 -21 2 -17 -5 3 -5 15 -10 26 -10 14 0 19 -7 19 -24
0 -14 5 -28 11 -31 11 -7 4 139 -8 158 -3 6 -7 24 -9 41 -2 17 -9 53 -15 80
-11 44 -10 71 6 206 5 41 3 47 -24 67 -28 22 -29 22 -24 3 3 -11 9 -20 14 -20
5 0 9 -5 9 -11 0 -5 -4 -7 -10 -4 -5 3 -19 8 -31 10 -22 4 -48 32 -49 51 0 7
-10 15 -22 19 -17 4 -19 8 -9 12 9 4 24 -6 38 -23 26 -32 32 -21 7 14 -11 17
-25 22 -58 22 -35 0 -48 6 -76 35 -56 58 -170 43 -170 -23 0 -29 24 -71 44
-76 10 -2 15 -9 12 -14 -3 -5 1 -16 10 -23 14 -12 14 -14 -3 -20 -35 -14 -93
-10 -87 6 5 12 2 12 -25 -1 -34 -17 -42 -29 -12 -19 11 3 22 1 26 -5 3 -5 16
-10 27 -10 20 0 20 -1 3 -20 -10 -11 -21 -17 -25 -15 -8 5 -20 -45 -19 -79 0
-14 5 -8 15 18 26 71 93 128 126 107 30 -19 34 -4 8 24 -13 14 -24 38 -25 53
0 15 -6 26 -13 25 -7 -2 -12 6 -12 17 0 11 -4 20 -10 20 -16 0 -11 47 6 54 41
16 80 6 113 -29 18 -19 44 -38 58 -41 19 -5 22 -9 11 -16 -9 -7 -7 -8 8 -3 15
4 28 -3 47 -26 26 -31 26 -31 -9 -66 -20 -19 -33 -37 -30 -40 3 -3 16 8 30 23
13 16 28 26 32 22 26 -27 -102 -136 -137 -117 -10 5 -32 9 -49 9 -28 0 -30 2
-20 20 13 24 71 28 90 5 14 -16 30 -20 30 -7 0 5 -11 14 -24 21 -23 13 -23 13
0 38 13 14 24 37 24 49 0 13 5 24 11 24 7 0 9 -9 6 -21 -3 -13 -1 -19 6 -16 7
2 12 18 12 35 0 23 -4 31 -13 27 -8 -3 -20 -5 -28 -5 -8 0 -14 -10 -14 -25 0
-14 -6 -25 -12 -25 -9 0 -8 -4 2 -10 12 -8 12 -10 1 -10 -8 0 -11 -3 -8 -7 10
-9 -25 -32 -50 -33 -14 0 -31 -13 -46 -36 -14 -19 -51 -55 -84 -78 -32 -24
-84 -71 -114 -104 -56 -62 -56 -62 -133 -45 -52 11 -80 13 -87 6 -6 -6 5 -10
36 -11 63 -3 117 -26 109 -47 -4 -9 -12 -14 -20 -11 -7 3 -30 8 -51 11 -21 3
-48 8 -60 11 -13 2 -23 0 -23 -4 0 -5 28 -12 62 -16 34 -3 63 -8 65 -10 2 -2
-13 -31 -33 -66 -37 -62 -37 -62 -138 -57 -74 4 -86 3 -46 -3 30 -4 76 -8 103
-9 30 -1 47 -5 47 -13 0 -7 18 19 38 58 64 121 160 230 271 309 61 44 71 47
120 38 35 -6 35 -6 8 -29 -23 -20 -30 -21 -61 -12 -32 10 -38 9 -71 -20 -20
-18 -30 -32 -22 -32 7 0 24 11 36 24 13 14 28 23 35 21 6 -2 23 -6 39 -9 35
-8 35 -30 1 -130 -14 -42 -22 -81 -18 -88 4 -7 3 -8 -4 -4 -8 5 -12 0 -12 -13
0 -11 -11 -41 -25 -67 -14 -25 -22 -51 -19 -56 3 -5 -3 -19 -14 -31 -15 -17
-18 -28 -11 -44 12 -32 16 -28 11 9 -4 27 -2 30 14 24 10 -4 16 -4 12 -1 -3 4
9 35 28 70 18 35 36 86 40 112 7 54 49 226 59 242 6 11 108 85 147 107 29 17
47 37 27 29 -10 -4 -19 0 -23 11 -8 21 1 31 15 17 6 -6 17 -9 24 -6 10 3 12
-2 8 -19 -4 -18 -3 -20 6 -8 9 12 11 10 11 -10 0 -14 -9 -36 -20 -50 -20 -25
-20 -25 -10 3 5 16 10 31 10 34 0 11 -30 -20 -30 -31 -1 -13 -46 -66 -57 -66
-9 0 -98 -143 -109 -175 -4 -11 -16 -31 -28 -44 -19 -22 -19 -24 -2 -17 15 5
17 3 11 -11 -15 -36 -17 -53 -7 -53 5 0 17 30 26 68 15 59 87 202 103 202 3 0
-3 -12 -12 -27 -11 -15 -21 -58 -25 -100 -4 -40 -13 -80 -20 -88 -24 -28 -128
-275 -135 -318 -13 -85 -56 -187 -77 -187 -12 0 0 54 13 58 5 2 14 13 21 25
10 20 10 21 -6 8 -31 -26 -56 23 -32 62 18 30 30 81 16 72 -5 -3 -10 -12 -10
-20 0 -19 -40 -85 -51 -85 -19 0 -21 33 -5 83 9 28 21 81 26 117 5 36 23 119
40 185 16 66 30 131 30 145 -1 33 -90 -314 -91 -354 -1 -31 -1 -31 -9 -1 -8
30 -8 30 -9 -2 0 -17 -4 -40 -7 -50 -5 -15 -4 -16 6 -3 10 12 10 10 5 -10 -4
-14 -9 -38 -12 -53 -4 -20 -10 -26 -20 -22 -10 3 -13 1 -10 -9 3 -8 -5 -24
-18 -36 -32 -30 -62 -12 -105 63 -33 56 -37 138 -8 190 11 21 12 20 25 -22 7
-25 18 -50 24 -55 9 -8 10 -6 4 9 -25 65 -28 106 -11 141 28 59 13 48 -27 -19
-45 -78 -67 -97 -115 -98 -37 -2 -37 -2 3 -8 28 -4 41 -12 43 -24 4 -18 -6
-19 -220 -12 -133 5 -226 12 -230 18 -9 15 1 35 20 39 13 3 11 5 -6 10 -13 4
-21 4 -18 1 10 -10 -15 -33 -35 -33 -34 0 -40 40 -19 124 31 122 43 137 120
138 32 1 46 5 37 10 -27 14 -99 0 -124 -25 -45 -45 -83 -263 -51 -295 7 -7 20
-12 30 -12 10 0 18 -7 18 -17 0 -10 5 -25 11 -33 8 -12 10 -9 6 13 -9 55 16
60 247 52 205 -7 205 -7 185 -59 -36 -91 -39 -93 -106 -84 -32 4 -107 12 -168
17 -60 6 -137 16 -170 24 -34 8 -63 10 -66 5 -10 -15 -59 14 -59 35 0 10 -8
32 -17 47 -15 27 -15 30 0 54 18 27 23 71 8 80 -5 4 -7 -2 -4 -13 3 -10 -2
-32 -11 -47 -30 -56 -29 -56 -72 -41 -43 16 -32 20 -143 -57 -49 -34 -50 -50
-6 -128 25 -45 27 -46 58 -36 18 6 67 16 111 24 43 7 89 20 102 29 29 19 53
-8 28 -33 -13 -12 -21 -112 -9 -112 3 0 11 15 19 32 14 33 14 33 15 0 1 -18
-8 -58 -19 -89 -27 -78 -27 -149 0 -158 11 -4 18 -11 14 -16 -3 -5 0 -8 7 -7
8 2 13 -9 15 -27 1 -16 3 -34 4 -40 6 -26 -1 -66 -10 -60 -6 4 -9 12 -8 18 3
14 -74 168 -108 216 -26 36 -31 80 -13 98 9 9 9 20 0 43 -7 21 -7 38 -1 50 14
25 13 30 -5 24 -18 -7 -23 -214 -5 -214 6 0 10 -7 10 -15 0 -8 -7 -15 -15 -15
-8 0 -15 -4 -15 -9 0 -5 14 -8 31 -7 28 1 33 -3 45 -36 7 -20 24 -54 38 -75
30 -44 32 -56 10 -77 -14 -15 -13 -16 13 -16 49 0 57 -13 69 -110 9 -75 8 -81
-17 -150 -12 -33 -20 -63 -17 -66 5 -5 11 7 44 100 20 55 43 75 192 160 94 54
142 88 142 100 0 3 -9 1 -19 -6 -24 -15 -133 3 -200 33 -55 24 -66 17 -14 -9
45 -23 140 -47 168 -43 25 4 3 -25 -27 -35 -21 -6 -157 -85 -201 -116 -31 -22
-33 -20 -41 59 -3 29 -12 66 -21 84 -15 28 -15 33 -2 46 13 13 23 10 83 -26
37 -23 73 -41 80 -41 7 0 20 -3 30 -7 11 -4 15 -2 11 4 -4 6 -20 13 -36 16
-51 11 -157 88 -170 124 -7 18 -25 42 -42 53 -41 30 -35 101 15 168 22 30 25
32 40 17 9 -9 16 -32 16 -51 0 -41 32 -89 73 -110 26 -14 29 -34 6 -34 -6 0
-7 5 -3 11 4 7 -7 1 -24 -11 -17 -12 -37 -20 -46 -17 -8 3 -18 2 -21 -3 -4 -6
-1 -10 5 -10 6 0 9 -4 6 -9 -10 -16 4 -39 27 -45 21 -5 20 -4 -3 14 -27 21
-26 22 40 22 45 0 45 0 5 6 -39 7 -39 7 -12 20 15 6 36 12 47 12 14 0 18 6 15
21 -4 18 -1 20 18 14 12 -4 59 -10 104 -12 59 -4 81 -8 76 -17 -4 -6 1 -5 10
3 26 20 34 4 15 -29 -11 -20 -13 -31 -5 -39 6 -6 9 -12 6 -14 -4 -4 -125 7
-189 18 -23 3 -30 2 -20 -4 8 -5 53 -13 100 -19 47 -6 94 -13 104 -15 24 -5
36 -35 25 -64 -5 -14 -5 -23 1 -23 20 0 22 50 3 89 -20 39 -20 39 6 118 26 79
26 79 83 34 31 -25 74 -55 95 -66 64 -32 63 -31 48 -80 -12 -42 -11 -46 11
-77 27 -36 64 -57 104 -58 30 0 50 -17 49 -39 0 -13 -2 -13 -7 1 -4 10 -7 -37
-7 -102 0 -66 3 -120 8 -120 4 0 7 32 7 71 0 72 18 167 29 152 3 -4 13 -8 21
-8 11 0 17 -16 21 -60 5 -58 6 -59 9 -15 1 25 2 51 1 58 -2 15 4 15 32 1 19
-9 18 -7 -3 10 -14 11 -31 21 -38 21 -7 0 -35 11 -62 25 -27 14 -63 25 -80 25
-34 0 -90 51 -90 82 0 15 10 12 68 -17 37 -19 69 -35 72 -35 12 1 -39 33 -83
52 -45 20 -47 23 -45 56 3 33 0 37 -47 63 -47 26 -156 104 -196 141 -24 22
-35 84 -21 121 9 25 9 27 -4 16 -14 -12 -197 -7 -263 7 -20 4 -22 3 -11 -5 9
-5 69 -13 135 -18 120 -8 120 -8 125 -55 3 -26 16 -61 28 -77 38 -52 33 -55
-90 -48 -127 6 -148 11 -148 37 0 15 10 17 93 15 50 -1 74 -1 52 1 -151 14
-141 10 -155 62 -7 26 -17 52 -23 57 -6 6 -7 3 -4 -10 29 -106 30 -107 7 -137
-12 -16 -19 -32 -15 -36 3 -4 9 -1 13 5 5 7 23 8 57 2 28 -4 89 -8 138 -8 87
-1 94 -4 78 -30 -11 -17 -181 -10 -226 9 -16 8 -41 14 -54 14 -13 1 -29 10
-35 21 -6 10 -17 25 -24 33 -7 8 -12 38 -11 74 2 59 17 61 26 4 2 -10 11 -24
20 -31 10 -8 14 -19 10 -31 -7 -18 -6 -17 8 1 15 18 14 21 -5 37 -11 9 -20 23
-20 31 0 23 -27 82 -45 97 -15 12 -16 11 -13 -6 1 -10 8 -23 13 -27 6 -4 -3
-5 -20 -2 -30 7 -30 7 -7 -12 26 -21 19 -38 -9 -22 -20 10 -26 54 -9 64 6 4 8
10 6 14 -14 23 38 5 59 -21 14 -17 28 -28 31 -26 3 3 -7 20 -22 37 -32 38 -21
62 17 38 14 -8 59 -17 104 -20 44 -2 69 -1 55 3 -14 5 -45 8 -70 9 -27 1 -64
11 -90 25 -56 29 -110 42 -110 26 0 -6 -4 -8 -10 -5 -15 9 -12 45 3 45 7 0 40
-7 72 -16 33 -8 121 -19 196 -24 155 -9 185 -18 148 -44 -13 -9 -30 -16 -39
-17 -8 0 -5 -4 8 -10 33 -13 38 -8 83 89 23 48 45 95 50 104 5 10 9 31 9 47 0
17 4 32 8 35 4 2 5 -16 2 -42 -8 -59 24 -130 82 -183 36 -32 39 -39 33 -71 -7
-35 -7 -35 -71 -11 -36 12 -70 23 -77 22 -7 0 17 -11 53 -24 68 -25 81 -38
121 -113 13 -26 35 -56 49 -67 42 -35 108 -74 114 -68 3 4 6 1 6 -5 0 -7 -8
-12 -17 -12 -10 0 -40 -12 -68 -26 -34 -17 -41 -23 -22 -19 19 4 26 2 22 -5
-3 -6 29 -45 73 -88 44 -42 82 -85 85 -94 13 -37 301 -258 337 -258 20 0 15 6
-28 28 -74 39 -268 196 -297 242 -13 21 -44 54 -69 75 -39 32 -45 41 -39 63 4
17 2 23 -6 18 -7 -5 -11 2 -10 21 1 17 3 21 6 10 6 -24 23 -22 23 3 0 11 7 23
15 26 8 4 15 12 15 19 0 7 11 20 25 29 26 17 26 16 91 -43 36 -32 130 -102
209 -154 157 -105 182 -132 213 -224 18 -55 19 -65 6 -77 -18 -18 -19 -32 -1
-17 8 6 17 7 22 3 13 -12 -2 59 -26 123 -28 76 -58 104 -237 223 -79 52 -163
117 -187 144 -48 54 -61 57 -98 28 -26 -21 -26 -21 -36 17 -17 66 -16 138 2
167 18 28 23 51 8 41 -11 -6 -1 33 24 90 9 22 19 58 22 80 4 33 124 305 135
305 2 0 3 -51 3 -113 1 -131 33 -253 85 -324 35 -47 53 -59 25 -16 -42 63 -55
92 -73 161 -20 72 -20 72 24 32 24 -22 49 -40 56 -40 6 0 -14 23 -45 51 -57
51 -57 51 -57 132 0 72 8 158 25 291 6 44 33 97 53 104 10 3 9 -5 -4 -29 -13
-26 -18 -60 -18 -136 -1 -88 -3 -100 -16 -90 -11 9 -10 5 3 -15 23 -37 24 -66
0 -47 -15 13 -15 11 1 -19 10 -20 37 -44 71 -63 61 -34 75 -49 48 -49 -14 0
-12 -3 7 -13 36 -18 41 -51 5 -37 -14 5 -28 10 -29 10 -3 0 0 -94 3 -110 1 -3
7 6 14 20 7 14 28 33 48 42 48 22 56 35 64 93 4 30 3 45 -2 37 -5 -6 -18 -19
-29 -27 -16 -13 -16 -14 -1 -9 24 8 24 -44 0 -62 -27 -20 -31 -17 -29 21 1 19
-3 35 -8 35 -4 0 -3 7 4 15 16 20 98 75 111 75 5 0 9 12 10 28 0 15 3 36 5 47
3 11 5 37 5 58 0 26 8 46 25 65 14 15 22 21 19 13 -4 -7 -1 -17 6 -22 11 -7
10 -11 -6 -24 -20 -16 -19 -16 5 -10 14 4 36 8 50 8 18 2 25 8 25 24 0 11 4
25 8 30 5 4 16 24 24 43 9 20 17 29 20 22 3 -7 -3 -24 -12 -38 -19 -30 -12
-47 9 -19 12 17 13 17 18 -8 3 -18 -1 -33 -15 -47 -14 -16 -18 -30 -13 -51 4
-22 0 -35 -14 -49 -11 -11 -20 -28 -20 -37 0 -10 -5 -25 -11 -33 -8 -12 -9 -9
-4 10 4 18 3 21 -3 10 -5 -8 -12 -31 -16 -50 -6 -34 -56 -107 -56 -83 0 6 10
33 22 60 12 26 24 53 27 58 2 6 -6 1 -18 -9 -17 -16 -21 -16 -21 -4 0 20 38
106 50 113 13 8 13 25 -1 25 -6 0 -26 -35 -45 -77 -51 -113 -52 -115 -59 -147
-3 -16 -20 -42 -37 -58 -17 -16 -28 -31 -24 -35 3 -3 0 -13 -7 -21 -10 -13 -9
-15 5 -9 9 3 19 1 22 -6 3 -9 7 -8 14 2 8 11 13 9 26 -10 13 -22 14 -29 1 -64
-8 -22 -14 -49 -14 -60 1 -11 8 2 16 28 14 47 15 48 30 28 23 -33 12 -53 -43
-80 -28 -14 -49 -31 -47 -38 4 -11 -56 0 -82 15 -5 3 -17 7 -27 7 -18 2 -64
51 -90 99 -11 20 -17 25 -18 14 0 -10 14 -33 30 -51 17 -19 30 -42 30 -50 0
-11 15 -20 43 -28 23 -6 71 -19 107 -29 97 -27 188 -12 224 37 18 24 18 27 2
38 -15 12 -14 15 16 36 18 13 36 28 40 34 5 6 8 5 8 -3 0 -7 5 -10 10 -7 13 8
13 -10 -1 -58 -8 -31 -14 -38 -30 -34 -19 5 -19 4 -1 -21 14 -21 16 -34 9 -57
-5 -16 -12 -42 -17 -57 -6 -21 -5 -28 5 -28 8 0 15 13 17 32 3 32 3 32 45 -10
36 -37 85 -60 68 -32 -3 6 -12 10 -19 10 -27 0 -89 90 -80 114 3 7 26 18 52
25 26 8 64 22 85 33 37 18 37 18 37 -21 0 -22 -10 -60 -22 -83 -20 -37 -36
-169 -19 -152 3 2 10 -8 16 -23 13 -32 -8 -78 -51 -112 -35 -27 -131 -22 -156
9 -21 26 -38 83 -38 128 0 27 3 32 25 32 15 0 29 8 36 23 11 21 11 21 -7 5
-28 -24 -141 -13 -166 16 -30 36 -32 34 66 62 45 12 55 19 43 25 -11 6 -28 3
-54 -10 -66 -34 -109 -30 -183 17 -36 23 -72 42 -80 42 -8 0 15 -18 52 -40 37
-23 74 -51 83 -63 12 -18 15 -19 15 -4 0 9 7 17 16 17 22 0 -3 -41 -34 -55
-12 -5 -22 -13 -22 -17 0 -15 24 -8 48 14 24 23 24 23 42 0 10 -12 29 -22 44
-22 21 0 26 -6 32 -34 3 -19 4 -39 0 -44 -8 -14 21 -123 38 -140 14 -14 20
-15 37 -4 29 18 45 2 53 -54 4 -30 20 -68 46 -106 21 -33 42 -75 46 -94 5 -26
24 -50 24 -30 0 19 -37 101 -64 141 -23 33 -36 68 -41 102 -7 53 -7 53 38 53
50 0 87 23 118 73 18 30 18 30 29 1 7 -16 23 -52 37 -79 18 -36 23 -58 18 -78
-5 -16 -3 -27 3 -27 25 0 -33 -106 -82 -152 -28 -26 -46 -47 -40 -48 5 0 25
16 44 35 42 43 56 45 35 4 -9 -17 -14 -33 -11 -36 7 -7 38 56 32 66 -3 4 1 17
9 27 15 18 15 18 9 -1 -7 -19 -6 -19 12 -2 15 14 16 19 6 26 -21 13 56 230
108 308 22 33 25 41 11 34 -21 -12 -83 -135 -100 -198 -7 -24 -14 -43 -17 -43
-3 0 -3 9 1 20 4 12 -3 33 -19 57 -14 21 -26 42 -26 47 0 5 -14 39 -32 74 -39
81 -46 143 -23 197 17 40 17 40 31 1 34 -96 72 -127 108 -87 16 18 20 16 134
-43 164 -87 230 -124 280 -158 24 -17 52 -28 66 -26 15 2 36 -9 60 -30 27 -24
46 -32 74 -32 20 0 59 -7 86 -15 70 -21 72 -20 86 33 7 26 20 71 30 101 22 68
13 103 -36 149 -51 46 -55 32 -5 -16 45 -43 53 -80 27 -130 -7 -15 -17 -46
-21 -69 -11 -71 -21 -78 -85 -55 -30 11 -70 20 -89 20 -37 1 -76 29 -62 46 4
6 11 29 14 51 6 37 5 38 -8 21 -8 -11 -15 -30 -15 -43 0 -13 -4 -23 -10 -23
-10 0 -4 46 12 89 8 21 10 22 26 9 23 -21 78 -48 96 -48 19 0 66 142 64 192
-1 21 -4 35 -8 33 -4 -3 -18 20 -30 50 -12 31 -31 66 -41 80 -12 14 -15 26 -9
30 5 3 10 12 10 18 0 7 -7 3 -15 -7 -8 -11 -18 -16 -22 -13 -3 4 3 17 14 30
28 30 103 213 103 251 0 17 -7 67 -16 111 -23 115 -26 145 -14 145 5 0 10 -5
10 -12 0 -6 3 -9 6 -5 4 3 2 19 -4 34 -8 24 -7 29 7 30 9 1 31 5 49 9 24 5 32
3 32 -8 0 -8 7 -23 15 -34 14 -18 15 -17 6 7 -14 40 10 72 27 35 7 -16 25 -29
52 -37 38 -12 120 -81 120 -103 0 -5 12 -25 26 -44 21 -26 29 -51 34 -106 4
-39 13 -83 19 -99 6 -15 9 -59 7 -97 -1 -38 3 -100 9 -137 24 -128 26 -203 7
-204 -11 -1 -8 -4 7 -8 21 -6 24 -12 26 -71 5 -116 -53 -199 -138 -201 -37 0
-39 -1 -18 -10 52 -21 120 25 157 106 20 43 22 161 4 179 -18 18 -10 33 52 95
63 62 63 62 64 131 0 38 -3 67 -8 64 -4 -3 -8 -32 -8 -64 0 -57 -2 -60 -52
-116 -53 -57 -53 -57 -66 17 -7 41 -16 130 -21 199 -17 227 -28 286 -61 332
-17 22 -30 46 -30 52 0 6 -15 30 -33 52 -17 23 -38 50 -45 60 -11 16 -11 16
-1 -4 15 -32 7 -36 -20 -11 -22 21 -24 46 -2 42 6 -2 10 3 8 10 -4 24 21 11
72 -37 31 -28 50 -54 47 -62 -3 -7 -1 -16 4 -19 4 -3 11 -23 15 -45 4 -22 10
-40 15 -40 7 0 0 51 -15 112 -7 29 -3 32 75 43 65 10 87 27 25 20 -35 -5 -46
-3 -35 4 8 5 18 7 22 5 5 -3 7 5 5 18 -2 12 -2 18 0 12 11 -31 38 -20 39 15 1
20 0 28 -3 19 -5 -21 -21 -24 -28 -5 -3 6 -22 13 -42 14 -35 2 -36 1 -13 -10
13 -7 25 -17 27 -23 5 -16 -36 -64 -56 -64 -9 0 -22 -5 -27 -10 -8 -8 -15 -6
-24 5 -10 12 -10 15 3 15 9 0 19 4 22 10 4 6 -5 8 -22 4 -24 -5 -37 3 -93 55
-36 34 -68 61 -72 61 -5 0 -14 15 -22 33 -8 17 -15 27 -15 21 -1 -6 -12 -10
-26 -9 -14 2 -25 -1 -25 -7 0 -6 6 -8 14 -5 18 7 26 -13 26 -63 0 -52 -8 -70
-33 -70 -11 0 -36 -5 -54 -12 -37 -13 -68 -3 -68 23 0 8 -8 23 -19 34 -38 41
-79 145 -84 215 -5 79 9 100 32 45 8 -19 17 -35 20 -35 11 0 -26 96 -42 108
-9 7 -17 18 -17 25 0 16 -75 127 -85 127 -4 0 -13 13 -20 29 -6 16 -21 38 -33
48 -14 12 -18 13 -12 3 4 -8 -9 3 -29 25 -37 40 -37 40 -6 -5 17 -25 55 -82
85 -126 29 -45 68 -98 85 -118 20 -23 27 -36 18 -36 -18 0 -66 51 -108 115
-18 28 -49 68 -69 91 -20 22 -48 56 -63 75 -34 43 -36 34 -3 -11 30 -40 24
-55 -6 -16 -12 15 -24 25 -27 22 -2 -3 11 -23 31 -45 75 -83 55 -82 -32 3 -62
61 -96 86 -107 82 -26 -10 28 52 58 66 15 7 22 15 17 19 -25 15 34 15 77 -1
27 -9 58 -20 69 -24 11 -4 0 4 -25 18 -66 35 -109 41 -145 18z m-82 -104 c-25
-35 -34 -88 -24 -145 14 -72 14 -71 -4 -47 -27 35 -13 162 21 197 12 12 17 8
7 -5z m150 -97 c32 -34 55 -66 52 -71 -4 -6 -3 -10 2 -9 36 9 111 -50 147
-116 10 -16 15 -22 12 -12 -8 27 1 20 18 -15 25 -49 20 -136 -14 -250 -32
-109 -35 -128 -20 -128 6 0 10 14 10 30 0 22 5 30 18 30 12 0 13 3 5 8 -10 6
-9 22 6 72 18 65 18 65 24 7 3 -31 15 -73 27 -91 14 -23 19 -44 15 -63 -5 -28
-5 -28 9 1 8 18 16 24 20 17 4 -6 15 -11 24 -11 11 0 6 7 -14 19 -37 22 -65
78 -72 141 -4 45 -4 45 20 0 49 -88 70 -125 80 -137 12 -15 6 -124 -7 -119
-33 14 -267 106 -305 120 -45 17 -45 17 -69 99 -14 45 -32 93 -42 107 -9 14
-35 61 -57 105 -40 78 -41 83 -44 197 -3 111 -2 117 21 142 29 31 41 25 134
-73z m77 -13 c23 -33 23 -33 -3 -9 -15 14 -27 28 -27 33 0 14 5 9 30 -24z
m-761 -46 c6 -19 6 -32 0 -32 -5 0 -11 12 -15 28 -3 15 -8 34 -10 42 -4 11 -2
12 6 4 6 -6 14 -25 19 -42z m796 -12 c3 -5 4 -10 1 -10 -3 0 -8 5 -11 10 -3 6
-4 10 -1 10 3 0 8 -4 11 -10z m123 -50 c12 -15 22 -31 22 -35 0 -11 -46 48
-59 75 -10 21 -9 22 1 6 7 -10 23 -31 36 -46z m-888 -15 c0 -5 -5 -3 -10 5 -5
8 -10 20 -10 25 0 6 5 3 10 -5 5 -8 10 -19 10 -25z m17 18 c-4 -3 -7 0 -7 7 0
7 3 10 7 7 3 -4 3 -10 0 -14z m17 -39 c3 -8 2 -12 -4 -9 -6 3 -10 10 -10 16 0
14 7 11 14 -7z m-779 -54 c3 -5 4 -10 1 -10 -3 0 -8 5 -11 10 -3 6 -4 10 -1
10 3 0 8 -4 11 -10z m911 -191 c-8 -35 -18 -91 -21 -125 -10 -85 -31 -112 -73
-90 -80 42 -46 176 67 258 45 33 45 33 27 -43z m-146 47 c0 -3 -5 -8 -12 -12
-7 -4 -8 -3 -4 4 7 12 16 16 16 8z m506 -69 c13 -10 33 -36 45 -57 13 -22 26
-40 30 -40 11 0 16 -44 8 -66 -7 -17 -8 -17 -8 -1 -1 9 -6 17 -11 17 -7 0 -7
-7 0 -21 13 -23 8 -35 -9 -24 -6 3 -11 17 -11 31 0 14 -7 36 -16 49 -9 13 -17
35 -18 48 -3 24 -25 69 -26 52 -1 -15 -29 38 -29 55 0 10 3 9 11 -5 7 -11 22
-28 34 -38z m69 23 c3 -5 4 -10 1 -10 -3 0 -8 5 -11 10 -3 6 -4 10 -1 10 3 0
8 -4 11 -10z m663 -100 c20 -26 20 -30 6 -45 -9 -9 -14 -26 -12 -39 4 -21 2
-23 -16 -16 -18 6 -21 17 -24 73 -3 74 7 80 46 27z m-608 -42 c0 -5 -4 -8 -10
-8 -5 0 -10 10 -10 23 0 18 2 19 10 7 5 -8 10 -18 10 -22z m-293 5 c-4 -3 -7
0 -7 7 0 7 3 10 7 7 3 -4 3 -10 0 -14z m103 -19 c15 -38 41 -57 79 -58 26 -1
46 -43 37 -78 -2 -10 0 -18 5 -18 5 0 9 8 9 19 0 27 39 111 55 117 7 3 98 -28
201 -69 188 -75 188 -75 206 -159 10 -45 16 -94 12 -108 -14 -60 -68 -184
-101 -232 -48 -72 -50 -74 -50 -43 0 15 -5 30 -10 34 -36 24 -104 201 -78 201
7 0 47 -25 107 -68 47 -33 48 -34 33 -62 -8 -16 -15 -37 -15 -47 0 -10 12 5
25 32 14 28 21 51 17 53 -33 11 -172 126 -172 142 0 10 -4 21 -9 24 -20 13
-51 -36 -95 -154 -26 -69 -52 -133 -57 -142 -12 -23 -12 -51 0 -44 15 10 69
-61 88 -115 17 -48 70 -110 118 -137 19 -10 19 -13 5 -68 -22 -84 -30 -85
-140 -18 -52 32 -147 84 -210 117 -124 63 -134 71 -119 99 16 31 -6 20 -24
-12 -42 -70 -68 -62 -112 35 -27 60 -22 185 9 244 21 40 17 86 -20 193 -13 39
-24 92 -24 116 0 32 -9 60 -31 99 -26 45 -29 57 -18 64 24 15 29 10 29 -26 0
-52 15 -42 16 10 2 57 9 64 34 35 20 -23 20 -23 21 1 1 21 2 20 16 -11 10 -23
14 -56 11 -97 -2 -35 0 -57 4 -50 5 6 5 -14 2 -45 -5 -43 -4 -58 6 -58 9 0 10
-10 5 -32 -8 -41 -16 -140 -8 -115 4 16 11 18 46 13 23 -4 53 -8 67 -9 27 -3
129 -92 118 -103 -4 -3 -37 5 -73 20 -36 14 -73 26 -83 26 -9 -1 6 -9 35 -19
65 -24 113 -52 107 -63 -8 -12 -47 -10 -90 5 -65 23 -96 29 -89 17 3 -5 16
-10 28 -10 12 -1 39 -9 60 -19 46 -21 102 -15 102 12 0 9 5 21 11 27 9 9 5 22
-14 51 -16 24 -28 35 -33 28 -5 -8 -9 -8 -14 2 -5 8 5 22 29 42 20 16 42 39
48 51 11 20 10 20 -9 4 -20 -18 -83 -25 -83 -9 0 4 10 20 21 35 53 67 72 173
44 237 -14 33 -15 31 -13 -63 2 -60 -2 -102 -9 -109 -13 -13 -22 28 -24 125
-2 53 -7 73 -21 85 -10 8 -18 21 -18 28 0 7 -4 13 -10 13 -15 0 -12 -15 9 -41
14 -18 20 -48 25 -115 6 -85 6 -90 -14 -90 -19 0 -20 7 -20 88 0 101 -20 168
-51 168 -10 0 -19 2 -19 4 0 2 -3 11 -6 20 -5 13 1 16 33 16 36 0 41 -3 53
-36z m-490 10 c0 -10 -52 -74 -61 -74 -5 0 -9 17 -9 38 1 33 2 35 14 19 13
-17 14 -16 19 3 4 17 37 30 37 14z m587 -41 c-4 -3 -7 0 -7 7 0 7 3 10 7 7 3
-4 3 -10 0 -14z m-1070 -35 c-3 -8 -6 -5 -6 6 -1 11 2 17 5 13 3 -3 4 -12 1
-19z m693 -35 c39 -71 39 -155 0 -238 -13 -28 -27 -59 -32 -70 -18 -45 24 20
49 75 25 55 25 55 45 5 36 -91 36 -159 -1 -205 -32 -40 -39 -56 -20 -44 7 4
10 1 7 -7 -6 -19 -152 -88 -163 -78 -2 3 2 26 10 52 8 26 15 67 16 90 1 23 10
75 20 114 23 89 24 121 3 144 -9 10 -20 49 -25 90 -12 96 -24 104 -14 9 10
-97 10 -102 2 -185 -8 -84 10 -55 21 35 5 34 10 47 13 35 15 -54 -46 -245 -78
-245 -15 0 -14 4 7 20 14 11 20 20 14 20 -6 0 -23 -9 -37 -20 -19 -15 -40 -20
-86 -20 -56 0 -62 2 -75 28 -8 16 -22 34 -30 42 -12 10 -14 16 -5 26 16 19 4
17 -16 -2 -12 -12 -19 -14 -27 -6 -8 8 -7 13 6 18 9 3 23 19 32 35 20 40 38
38 30 -3 -6 -32 -6 -32 28 8 34 38 51 37 21 -2 -31 -41 -13 -34 31 12 56 59
74 98 74 161 0 36 3 44 10 33 10 -14 7 17 -5 57 -2 7 4 22 14 34 19 23 53 18
126 -19 30 -15 30 -15 6 11 -12 14 -20 30 -16 36 10 17 11 15 45 -46z m-192
-129 c2 -29 -18 -74 -44 -95 -15 -13 -16 -12 -9 11 4 14 13 35 21 47 8 12 14
31 14 43 0 29 15 25 18 -6z m-115 -76 c-13 -26 -18 -29 -21 -15 -4 19 14 47
29 47 5 0 2 -15 -8 -32z m612 -1 c0 -15 -4 -27 -10 -28 -16 -1 -29 27 -22 45
10 26 32 14 32 -17z m22 6 c-4 -3 -7 0 -7 7 0 7 3 10 7 7 3 -4 3 -10 0 -14z
m303 -72 c0 -22 -4 -42 -8 -45 -4 -2 -6 -23 -4 -46 3 -25 7 -37 12 -30 8 13
60 -64 60 -89 0 -19 37 -86 56 -102 10 -8 15 -9 11 -2 -4 6 -2 23 5 37 17 38
40 13 90 -94 40 -85 40 -85 17 -159 -25 -78 -37 -90 -74 -73 -39 18 -189 143
-199 165 -40 92 -56 126 -64 131 -6 4 -5 24 4 53 8 26 12 54 9 64 -3 9 0 29 6
45 10 27 12 28 20 9 43 -104 68 -157 68 -145 0 30 -27 134 -28 110 -1 -20 -3
-22 -11 -10 -13 20 -13 176 0 201 17 31 30 22 30 -20z m-440 -25 c0 -5 -6 -3
-14 3 -11 9 -15 9 -19 -1 -3 -7 -6 3 -6 22 -1 35 -1 35 19 10 11 -14 20 -29
20 -34z m-1897 24 c15 -7 27 -18 27 -23 0 -13 -62 0 -71 15 -8 13 -2 30 9 25
4 -2 19 -9 35 -17z m-157 -42 c6 -4 10 -26 9 -47 -1 -22 2 -45 6 -53 7 -11 9
-11 9 0 0 8 9 12 23 10 70 -10 -72 -64 -212 -81 -16 -2 -61 68 -61 95 0 19 73
82 110 96 24 9 95 -3 116 -20z m2209 22 c-3 -5 -21 -9 -40 -7 -43 3 -34 17 11
17 21 0 33 -4 29 -10z m-855 -26 c0 -8 -4 -14 -10 -14 -5 0 -10 9 -10 21 0 11
5 17 10 14 6 -3 10 -13 10 -21z m285 -124 c28 -7 28 -8 -12 -9 -23 0 -45 4
-48 9 -7 11 16 11 60 0z m75 6 c0 -9 -30 -14 -35 -6 -4 6 3 10 14 10 12 0 21
-2 21 -4z m-850 -30 c0 -6 11 -33 25 -61 13 -27 25 -66 25 -85 0 -19 7 -44 15
-54 8 -11 15 -33 15 -49 0 -15 5 -37 10 -48 16 -29 -1 -24 -65 19 -43 29 -65
54 -89 98 -32 58 -32 59 -19 114 8 30 23 63 34 72 21 18 49 14 49 -6z m-670 4
c0 -5 -6 -10 -13 -10 -7 0 -29 -11 -50 -25 -44 -31 -54 -10 -11 24 28 22 74
29 74 11z m715 -21 c9 -42 0 -47 -19 -10 -20 37 -20 41 -2 41 8 0 17 -14 21
-31z m1480 -11 c-1 -18 -7 -34 -14 -36 -6 -2 -8 -9 -5 -15 5 -9 4 -9 -5 -1
-14 13 -3 47 12 37 7 -4 8 0 4 11 -6 15 -2 36 7 36 2 0 2 -14 1 -32z m-760 -5
c40 -19 42 -26 16 -52 -32 -32 -169 -42 -179 -13 -2 6 12 18 31 26 19 7 38 19
41 25 4 6 16 11 27 11 11 0 17 5 14 10 -9 15 10 12 50 -7z m-675 -83 c-9 -16
-15 -19 -23 -11 -8 8 -6 15 9 25 24 18 29 14 14 -14z m677 -47 c-4 -3 -10 -3
-14 0 -3 4 0 7 7 7 7 0 10 -3 7 -7z m31 -278 c20 -32 20 -36 5 -42 -9 -4 -21
1 -29 11 -16 22 -29 139 -18 163 5 13 9 1 14 -39 4 -31 17 -73 28 -93z m-748
29 c0 -8 -4 -12 -10 -9 -5 3 -10 13 -10 21 0 8 5 12 10 9 6 -3 10 -13 10 -21z"/>
<path d="M2482 1914 c15 -8 32 -24 39 -35 6 -11 13 -18 17 -15 9 9 -50 66 -67
66 -10 -1 -5 -7 11 -16z"/>
<path d="M2460 1860 c-8 -5 -11 -12 -7 -17 5 -4 12 -1 17 6 4 8 15 11 24 8 9
-4 16 -2 16 3 0 13 -30 13 -50 0z"/>
<path d="M2583 1783 c4 -3 10 -3 14 0 3 4 0 7 -7 7 -7 0 -10 -3 -7 -7z"/>
<path d="M2520 1752 c0 -10 22 -32 32 -32 15 0 8 15 -12 28 -11 7 -20 9 -20 4z"/>
<path d="M2570 1750 c0 -5 11 -10 24 -10 14 0 28 5 31 10 4 6 -7 10 -24 10
-17 0 -31 -4 -31 -10z"/>
<path d="M2800 1697 c0 -40 -8 -50 -84 -105 -41 -30 -51 -34 -100 -30 -37 2
-52 0 -45 -7 31 -31 162 9 217 67 21 23 33 90 19 104 -4 4 -7 -9 -7 -29z"/>
<path d="M2625 1690 c-16 -4 -48 -8 -69 -9 -39 -1 -39 -1 -16 -26 32 -34 63
-31 108 10 37 35 33 39 -23 25z m15 -18 c0 -14 -51 -33 -71 -27 -29 10 -22 23
14 28 17 2 38 5 45 5 6 1 12 -2 12 -6z"/>
<path d="M2846 1355 c-9 -26 -7 -32 5 -12 6 10 9 21 6 23 -2 3 -7 -2 -11 -11z"/>
<path d="M2941 1343 c-1 -6 -4 -20 -7 -30 -5 -17 -5 -17 6 0 6 10 9 23 6 30
-3 9 -5 9 -5 0z"/>
<path d="M1984 1498 c-4 -7 -3 -8 4 -4 7 4 12 9 12 12 0 8 -9 4 -16 -8z"/>
<path d="M2197 843 c-9 -26 -2 -64 25 -120 22 -49 44 -69 33 -32 -7 24 -7 24
10 1 32 -43 79 -54 133 -31 26 11 36 17 22 13 -61 -16 -140 0 -140 28 0 6 6 5
15 -2 8 -6 20 -10 27 -7 8 4 7 6 -4 6 -26 1 -22 21 4 21 12 0 29 7 39 16 22
20 54 11 45 -12 -4 -12 -2 -15 9 -11 8 4 19 -1 24 -11 5 -9 12 -14 16 -10 4 3
-12 24 -35 46 -22 22 -36 43 -31 46 5 3 12 0 14 -6 3 -7 6 -3 6 10 1 32 -17
27 -40 -12 -11 -20 -26 -33 -33 -30 -7 3 -19 -2 -26 -11 -36 -43 -92 0 -100
78 -4 40 -7 47 -13 30z"/>
<path d="M2265 805 c25 -12 97 -23 87 -13 -5 5 -29 12 -53 14 -24 2 -39 2 -34
-1z"/>
<path d="M1976 1216 c5 -38 4 -47 -6 -41 -9 6 -10 0 -5 -24 5 -22 2 -39 -9
-56 -9 -13 -18 -43 -20 -67 -5 -48 -34 -128 -47 -128 -4 0 -13 8 -18 18 -9 15
-10 15 -11 -5 0 -18 6 -23 24 -23 33 0 84 113 93 204 3 36 10 66 14 66 9 0 1
52 -12 85 -5 12 -6 1 -3 -29z m-19 -163 c-4 -3 -7 0 -7 7 0 7 3 10 7 7 3 -4 3
-10 0 -14z"/>
<path d="M1870 1027 c-9 -7 -14 -20 -12 -30 2 -10 -4 -27 -14 -38 -16 -18 -16
-19 4 -19 17 0 22 6 22 26 0 14 5 34 11 46 13 24 9 30 -11 15z"/>
<path d="M1808 908 c5 -5 16 -8 23 -6 8 3 3 7 -10 11 -17 4 -21 3 -13 -5z"/>
<path d="M2680 727 c0 -8 6 -20 14 -26 12 -10 13 -8 9 9 -7 25 -23 37 -23 17z"/>
<path d="M2880 696 c0 -2 8 -10 18 -17 15 -13 16 -12 3 4 -13 16 -21 21 -21
13z"/>
<path d="M3440 2170 c0 -5 5 -10 11 -10 5 0 7 5 4 10 -3 6 -8 10 -11 10 -2 0
-4 -4 -4 -10z"/>
<path d="M3500 2170 c0 -7 3 -10 7 -7 3 4 3 10 0 14 -4 3 -7 0 -7 -7z"/>
<path d="M3580 2152 c-8 -4 -16 -14 -17 -22 -3 -19 53 -26 77 -10 11 7 11 10
2 10 -7 0 -10 5 -7 10 3 6 2 10 -3 10 -6 0 -12 -7 -16 -15 -8 -23 -28 -18 -21
5 7 22 7 22 -15 12z"/>
<path d="M3484 2138 c-4 -7 -3 -8 4 -4 12 7 16 16 8 16 -3 0 -8 -5 -12 -12z"/>
<path d="M1543 2103 c4 -3 10 -3 14 0 3 4 0 7 -7 7 -7 0 -10 -3 -7 -7z"/>
<path d="M1545 2080 c-3 -5 1 -10 10 -10 9 0 13 5 10 10 -3 6 -8 10 -10 10 -2
0 -7 -4 -10 -10z"/>
<path d="M2490 2082 c0 -4 30 -9 67 -10 38 -2 66 -2 63 1 -9 8 -130 17 -130 9z"/>
<path d="M1718 2056 c-21 -8 -49 -21 -62 -29 -32 -21 -125 -143 -103 -134 29
11 19 -12 -15 -34 -18 -12 -24 -18 -14 -15 11 4 27 0 38 -11 19 -17 19 -17 14
12 -6 30 -6 30 5 2 14 -35 32 -24 24 15 -7 30 32 88 59 88 5 0 18 8 29 18 16
13 19 14 15 2 -2 -8 -13 -19 -24 -24 -23 -10 -70 -76 -66 -90 2 -6 1 -21 -3
-34 -5 -19 -8 -22 -20 -12 -8 7 -15 11 -16 9 -6 -27 -5 -56 3 -66 5 -7 6 -18
2 -25 -5 -9 -4 -10 3 -3 6 6 16 28 23 50 7 22 19 49 26 60 8 11 14 29 14 42 0
12 5 25 12 29 8 5 10 -4 5 -32 -6 -41 -4 -38 24 34 5 12 13 21 17 20 5 -2 19
8 30 22 21 24 21 24 22 4 0 -12 -9 -33 -20 -47 -24 -30 -26 -45 -4 -26 14 11
14 9 0 -22 -8 -19 -17 -43 -21 -54 -5 -16 -8 -17 -16 -5 -8 12 -9 11 -7 -5 2
-12 11 -20 23 -20 14 0 19 6 18 20 -2 17 21 96 47 160 21 51 20 56 -3 53 -31
-4 -32 15 -2 24 14 3 25 2 25 -3 0 -6 8 -5 20 1 32 17 80 -19 113 -85 8 -17
36 -52 61 -79 25 -26 46 -51 46 -55 0 -4 11 -14 26 -21 21 -12 24 -19 21 -47
-4 -24 -1 -33 9 -33 29 0 16 59 -21 93 -19 18 -50 64 -69 102 -65 135 -174
192 -288 151z m253 -108 c22 -40 -12 -25 -36 17 -15 25 -31 45 -36 45 -5 0 -9
5 -9 12 0 13 66 -47 81 -74z m-288 34 c-21 -14 -48 -34 -60 -44 -43 -40 -44
-11 -1 34 37 38 49 45 72 41 27 -6 27 -6 -11 -31z"/>
<path d="M2821 1913 c17 -38 39 -77 51 -88 14 -14 11 -6 -10 30 -16 28 -36 67
-43 88 -7 20 -16 37 -21 37 -4 0 6 -30 23 -67z"/>
<path d="M2316 1883 c-6 -15 -8 -15 -16 -3 -8 12 -10 11 -10 -5 0 -33 16 -48
50 -47 42 1 53 12 12 12 -38 0 -50 16 -28 38 16 16 18 16 32 -2 14 -19 14 -19
14 2 0 27 -44 31 -54 5z"/>
<path d="M1706 1845 c-9 -26 -7 -32 5 -12 6 10 9 21 6 23 -2 3 -7 -2 -11 -11z"/>
<path d="M1644 1818 c-4 -7 -3 -8 4 -4 12 7 16 16 8 16 -3 0 -8 -5 -12 -12z"/>
<path d="M1494 1805 c-3 -8 -1 -27 5 -42 10 -28 10 -28 8 7 -2 31 1 35 28 41
30 7 30 7 -3 8 -20 1 -35 -5 -38 -14z"/>
<path d="M1240 1796 c0 -2 8 -10 18 -17 15 -13 16 -12 3 4 -13 16 -21 21 -21
13z"/>
<path d="M2016 1783 c-6 -14 -5 -15 5 -6 7 7 10 15 7 18 -3 3 -9 -2 -12 -12z"/>
<path d="M60 1771 c14 -11 37 -29 51 -40 28 -21 65 -87 61 -108 -4 -17 38 -43
68 -42 24 1 24 1 -5 11 -47 17 -61 31 -38 39 15 6 15 8 1 8 -21 1 -13 38 12
51 49 26 92 -13 88 -80 -3 -41 -5 -45 -36 -51 -19 -4 -51 -23 -72 -44 -40 -39
-99 -158 -74 -148 21 8 18 -56 -3 -80 -17 -19 -17 -20 3 -9 12 6 25 8 29 4 4
-4 5 24 2 62 -6 81 2 108 46 154 40 43 68 54 104 42 15 -5 48 -14 72 -20 43
-11 43 -11 37 -53 -4 -25 -3 -37 2 -29 9 13 52 -44 52 -67 0 -5 7 -14 15 -21
20 -17 19 -7 -5 40 -25 50 -25 52 4 44 13 -3 26 -1 30 4 3 5 -10 9 -31 8 -34
-1 -38 2 -43 30 -10 46 -16 51 -64 58 -46 7 -76 29 -57 41 6 3 8 25 5 53 -9
73 -54 100 -119 70 -24 -11 -29 -9 -52 20 -14 18 -44 42 -66 53 -42 20 -42 20
-17 0z"/>
<path d="M2395 1751 c3 -24 12 -53 20 -64 20 -29 18 -13 -6 53 -20 55 -20 55
-14 11z"/>
<path d="M1744 1748 c-4 -7 -3 -8 4 -4 7 4 12 9 12 12 0 8 -9 4 -16 -8z"/>
<path d="M1920 1740 c0 -7 3 -10 7 -7 3 4 3 10 0 14 -4 3 -7 0 -7 -7z"/>
<path d="M527 1732 c-35 -15 -96 -84 -113 -128 -24 -62 -10 -67 16 -5 20 46
28 53 91 83 46 22 64 35 56 41 -15 10 48 0 85 -15 15 -6 25 -15 21 -21 -3 -5
-1 -7 5 -3 6 3 18 -4 26 -16 20 -28 21 -49 1 -22 -8 10 -15 14 -15 8 0 -6 9
-19 20 -29 29 -26 27 -65 -4 -65 -16 0 -25 7 -29 23 -6 21 -6 21 8 3 27 -36
16 -8 -14 37 -33 48 -73 72 -98 59 -13 -8 -10 -13 16 -31 17 -12 31 -29 31
-37 0 -8 7 -14 15 -14 18 0 38 -36 31 -55 -3 -8 0 -15 5 -17 14 -5 -29 -58
-55 -68 -16 -7 -17 -9 -4 -9 9 -1 40 22 67 49 61 61 61 61 61 -1 0 -27 -4 -48
-9 -45 -5 4 -7 -3 -4 -14 3 -13 17 -22 38 -26 25 -4 32 -10 28 -22 -4 -14 -3
-14 5 -3 23 33 30 -1 7 -37 -49 -75 -58 -85 -101 -104 -41 -18 -46 -18 -99 -3
-30 9 -57 21 -60 26 -12 19 -135 7 -135 -13 0 -5 8 -4 19 2 31 16 81 12 130
-12 74 -37 134 -32 199 17 29 22 50 45 48 52 -3 7 5 19 17 28 12 8 17 15 12
15 -5 0 -4 5 1 10 7 7 29 4 67 -9 32 -11 55 -16 52 -11 -3 5 -22 14 -43 20
-20 7 -51 20 -68 30 -17 10 -45 21 -62 25 -30 6 -31 8 -28 52 3 34 10 51 27
64 13 10 19 19 12 19 -6 0 -15 -4 -18 -10 -13 -21 -23 -8 -30 40 -8 59 -39
110 -80 129 -34 17 -121 24 -148 13z m23 -19 c-8 -3 -24 -10 -35 -15 -20 -9
-20 -9 -1 6 11 9 27 16 35 15 14 0 14 -1 1 -6z m100 -81 c0 -15 -2 -15 -10 -2
-13 20 -13 33 0 25 6 -3 10 -14 10 -23z"/>
<path d="M1700 1729 c0 -5 5 -7 10 -4 6 3 10 8 10 11 0 2 -4 4 -10 4 -5 0 -10
-5 -10 -11z"/>
<path d="M717 1715 c13 -9 31 -36 42 -60 12 -26 30 -50 45 -56 14 -7 23 -16
20 -20 -3 -5 0 -9 6 -9 14 0 30 -42 20 -55 -8 -10 -10 -16 -10 -35 0 -5 -12
-11 -27 -11 -27 -2 -28 -2 -3 -6 14 -3 34 -13 45 -24 12 -10 36 -21 55 -24 22
-3 28 -2 17 3 -28 12 -70 91 -52 98 15 6 54 -12 56 -26 6 -42 59 -130 59 -97
0 9 -4 19 -10 22 -5 3 -10 15 -10 26 0 10 -4 19 -8 19 -4 0 -13 14 -19 30 -8
22 -20 32 -41 36 -21 4 -32 14 -36 30 -4 13 -24 35 -45 48 -23 15 -43 38 -50
57 -14 40 -39 69 -60 69 -11 0 -10 -4 6 -15z m153 -250 c0 -7 6 -16 13 -18 9
-4 9 -6 -1 -6 -7 -1 -15 6 -18 14 -4 8 -10 12 -15 9 -5 -3 -6 2 -3 10 7 18 24
12 24 -9z"/>
<path d="M243 1673 c4 -3 10 -3 14 0 3 4 0 7 -7 7 -7 0 -10 -3 -7 -7z"/>
<path d="M1696 1651 c-24 -26 -26 -31 -14 -50 14 -24 24 -27 30 -9 5 15 113
-11 113 -27 0 -15 -51 -18 -75 -5 -12 6 -24 9 -27 6 -3 -3 7 -11 23 -18 16 -7
31 -15 34 -19 27 -32 57 -6 74 64 7 30 -12 38 -33 13 -9 -11 -20 -12 -43 -5
-17 5 -46 10 -65 11 -32 2 -32 2 -14 23 41 46 39 60 -3 16z"/>
<path d="M2172 1658 c-19 -19 -16 -54 3 -38 8 7 13 16 10 20 -3 5 -1 11 4 15
19 11 33 -39 33 -119 0 -73 1 -77 10 -41 23 96 -17 206 -60 163z"/>
<path d="M1765 1650 c3 -5 8 -10 11 -10 3 0 2 5 -1 10 -3 6 -8 10 -11 10 -3 0
-2 -4 1 -10z"/>
<path d="M3500 1630 c0 -18 -3 -19 -20 -10 -39 21 -60 -3 -57 -65 2 -30 0 -55
-5 -55 -4 0 -8 4 -8 9 0 5 -25 22 -55 36 -30 15 -55 31 -55 36 0 5 -5 9 -11 9
-8 0 -8 -4 0 -14 10 -11 8 -15 -6 -19 -11 -3 -7 -5 12 -7 17 -1 42 -9 56 -18
14 -9 45 -30 68 -45 34 -22 45 -26 57 -16 7 6 11 15 8 20 -2 5 4 16 16 26 11
10 20 22 20 27 0 5 -11 -1 -25 -14 -22 -21 -25 -21 -25 -5 0 10 7 23 16 30 15
10 31 95 19 95 -3 0 -5 -9 -5 -20z m-20 -62 c0 -10 -3 -9 -10 2 -7 11 -10 2
-10 -32 0 -27 -4 -48 -10 -48 -11 0 -14 102 -4 113 8 8 34 -18 34 -35z"/>
<path d="M1810 1630 c-13 -8 -13 -10 2 -10 9 0 20 5 23 10 8 13 -5 13 -25 0z"/>
<path d="M3645 1598 c-16 -39 -90 -118 -111 -118 -20 0 -17 18 4 23 13 4 12 5
-4 6 -25 1 -40 -25 -18 -33 19 -7 18 -45 -2 -68 -21 -23 3 -36 35 -18 17 9 22
8 27 -5 3 -8 10 -15 15 -15 5 0 -2 20 -16 44 -24 44 -24 44 1 71 19 21 28 25
37 16 6 -6 19 -11 29 -11 15 0 16 -4 8 -26 -15 -39 -13 -44 21 -44 26 0 30 3
25 23 -3 12 -3 16 0 10 3 -7 10 -13 16 -13 6 0 4 8 -5 18 -23 25 -21 54 4 83
14 16 18 31 14 49 -13 50 -60 55 -80 8z m42 -39 c-6 -51 -12 -67 -22 -58 -8 9
8 109 18 109 6 0 7 -20 4 -51z m30 4 c-4 -3 -10 -3 -14 0 -3 4 0 7 7 7 7 0 10
-3 7 -7z m-87 -54 c0 -6 -4 -7 -10 -4 -5 3 -10 11 -10 16 0 6 5 7 10 4 6 -3
10 -11 10 -16z m50 -43 c0 -3 -4 -8 -10 -11 -5 -3 -10 -1 -10 4 0 6 5 11 10
11 6 0 10 -2 10 -4z m-3 -32 c-3 -3 -12 -4 -19 -1 -8 3 -5 6 6 6 11 1 17 -2
13 -5z m-137 -29 c-7 -9 -15 -13 -18 -10 -3 2 1 11 8 20 7 9 15 13 18 10 3 -2
-1 -11 -8 -20z"/>
<path d="M2180 1600 c0 -7 3 -10 7 -7 3 4 3 10 0 14 -4 3 -7 0 -7 -7z"/>
<path d="M3220 1570 c0 -7 3 -10 7 -7 3 4 3 10 0 14 -4 3 -7 0 -7 -7z"/>
<path d="M3210 1533 c8 -3 24 -10 35 -15 20 -9 20 -9 1 6 -11 9 -27 16 -35 15
-14 0 -14 -1 -1 -6z"/>
<path d="M3320 1509 c0 -5 5 -7 10 -4 6 3 10 8 10 11 0 2 -4 4 -10 4 -5 0 -10
-5 -10 -11z"/>
<path d="M704 1495 c-4 -9 -1 -22 6 -28 10 -9 12 -8 7 5 -3 9 -1 18 6 21 8 2
8 5 -1 11 -7 4 -15 1 -18 -9z"/>
<path d="M3366 1491 c-9 -14 -26 -61 -22 -61 2 0 13 16 25 35 17 29 14 54 -3
26z"/>
<path d="M3796 1459 c-15 -17 -25 -33 -22 -36 3 -4 12 2 20 12 7 10 18 15 23
12 7 -4 10 3 9 18 0 14 -1 25 -1 25 0 -1 -13 -14 -29 -31z"/>
<path d="M2991 1471 c3 -7 20 -22 39 -34 41 -26 32 -7 -12 24 -17 12 -29 17
-27 10z"/>
<path d="M3275 1470 c3 -5 11 -10 16 -10 6 0 7 5 4 10 -3 6 -11 10 -16 10 -6
0 -7 -4 -4 -10z"/>
<path d="M583 1463 c4 -3 10 -3 14 0 3 4 0 7 -7 7 -7 0 -10 -3 -7 -7z"/>
<path d="M3583 1463 c4 -3 10 -3 14 0 3 4 0 7 -7 7 -7 0 -10 -3 -7 -7z"/>
<path d="M536 1451 c-11 -4 -15 -10 -10 -13 5 -4 18 0 29 8 20 15 12 17 -19 5z"/>
<path d="M2230 1440 c0 -7 3 -10 7 -7 3 4 3 10 0 14 -4 3 -7 0 -7 -7z"/>
<path d="M1703 1433 c4 -3 10 -3 14 0 3 4 0 7 -7 7 -7 0 -10 -3 -7 -7z"/>
<path d="M3300 1430 c0 -7 3 -10 7 -7 3 4 3 10 0 14 -4 3 -7 0 -7 -7z"/>
<path d="M3740 1430 c0 -7 3 -10 7 -7 3 4 3 10 0 14 -4 3 -7 0 -7 -7z"/>
<path d="M3073 1423 c4 -3 10 -3 14 0 3 4 0 7 -7 7 -7 0 -10 -3 -7 -7z"/>
<path d="M530 1405 c0 -8 9 -19 20 -25 24 -13 27 2 4 24 -19 20 -24 20 -24 1z"/>
<path d="M3320 1410 c-18 -12 -2 -12 25 0 13 6 15 9 5 9 -8 0 -22 -4 -30 -9z"/>
<path d="M3610 1400 c0 -11 5 -20 10 -20 6 0 10 9 10 20 0 11 -4 20 -10 20 -5
0 -10 -9 -10 -20z"/>
<path d="M420 1391 c0 -5 7 -12 16 -15 14 -5 15 -4 4 9 -14 17 -20 19 -20 6z"/>
<path d="M540 1355 c0 -8 4 -15 10 -15 5 0 7 7 4 15 -4 8 -8 15 -10 15 -2 0
-4 -7 -4 -15z"/>
<path d="M1895 1350 c3 -5 8 -10 11 -10 2 0 4 5 4 10 0 6 -5 10 -11 10 -5 0
-7 -4 -4 -10z"/>
<path d="M550 1310 c0 -5 4 -10 9 -10 6 0 13 5 16 10 3 6 -1 10 -9 10 -9 0
-16 -4 -16 -10z"/>
<path d="M720 1295 c-19 -14 -28 -25 -19 -25 9 0 26 11 39 25 29 31 25 31 -20
0z"/>
<path d="M1360 1309 c0 -5 5 -7 10 -4 6 3 10 8 10 11 0 2 -4 4 -10 4 -5 0 -10
-5 -10 -11z"/>
<path d="M1544 1270 c2 -19 9 -36 16 -38 8 -3 10 2 5 19 -14 46 -25 56 -21 19z"/>
<path d="M3061 1284 c0 -11 3 -14 6 -6 3 7 2 16 -1 19 -3 4 -6 -2 -5 -13z"/>
<path d="M663 1283 c4 -3 10 -3 14 0 3 4 0 7 -7 7 -7 0 -10 -3 -7 -7z"/>
<path d="M1800 1275 c-8 -9 -8 -15 -2 -15 12 0 26 19 19 26 -2 2 -10 -2 -17
-11z"/>
<path d="M153 1263 c-15 -6 -17 -24 -3 -20 6 1 19 -16 30 -38 18 -36 20 -37
15 -10 -3 17 -8 38 -11 48 -3 9 -1 17 3 17 13 0 45 -99 47 -141 1 -23 5 -35
12 -32 13 5 2 70 -17 106 -6 10 -8 32 -5 48 5 27 4 29 -27 28 -17 0 -38 -3
-44 -6z"/>
<path d="M636 1261 c-3 -4 6 -6 19 -3 14 2 25 6 25 8 0 8 -39 4 -44 -5z"/>
<path d="M3145 1250 c3 -5 8 -10 11 -10 3 0 2 5 -1 10 -3 6 -8 10 -11 10 -3 0
-2 -4 1 -10z"/>
<path d="M230 1249 c0 -12 33 -100 36 -96 5 5 -17 81 -27 92 -5 5 -9 7 -9 4z"/>
<path d="M1850 1210 c0 -7 3 -10 7 -7 3 4 3 10 0 14 -4 3 -7 0 -7 -7z"/>
<path d="M3201 1207 c0 -10 -10 -36 -21 -57 -25 -49 -19 -52 10 -5 12 19 19
45 17 57 -3 16 -5 17 -6 5z"/>
<path d="M121 1159 c0 -30 4 -63 9 -74 6 -13 7 5 4 50 -7 85 -14 99 -13 24z"/>
<path d="M3041 1176 c-3 -27 23 -137 35 -147 14 -12 20 2 7 15 -5 4 -15 37
-24 74 -9 37 -17 63 -18 58z"/>
<path d="M1440 1162 c0 -5 7 -15 15 -22 8 -7 15 -8 15 -2 0 5 -7 15 -15 22 -8
7 -15 8 -15 2z"/>
<path d="M1548 1153 c7 -3 16 -2 19 1 4 3 -2 6 -13 5 -11 0 -14 -3 -6 -6z"/>
<path d="M3080 1150 c0 -7 3 -10 7 -7 3 4 3 10 0 14 -4 3 -7 0 -7 -7z"/>
<path d="M3142 1140 c0 -14 2 -19 5 -12 2 6 2 18 0 25 -3 6 -5 1 -5 -13z"/>
<path d="M3265 1045 c0 -63 3 -106 7 -97 4 9 7 53 7 97 0 44 -3 88 -7 97 -4
10 -7 -34 -7 -97z"/>
<path d="M1743 1143 c4 -3 10 -3 14 0 3 4 0 7 -7 7 -7 0 -10 -3 -7 -7z"/>
<path d="M418 1122 c-16 -9 -28 -20 -28 -24 0 -14 17 -8 35 12 14 16 33 20
104 23 86 3 86 3 1 5 -65 1 -91 -3 -112 -16z"/>
<path d="M628 1123 c6 -2 18 -2 25 0 6 3 1 5 -13 5 -14 0 -19 -2 -12 -5z"/>
<path d="M1499 1106 c14 -14 29 -26 34 -26 13 0 -12 29 -37 42 -19 10 -18 8 3
-16z"/>
<path d="M3081 1114 c0 -11 3 -14 6 -6 3 7 2 16 -1 19 -3 4 -6 -2 -5 -13z"/>
<path d="M3210 1120 c0 -7 3 -10 7 -7 3 4 3 10 0 14 -4 3 -7 0 -7 -7z"/>
<path d="M1440 1111 c0 -5 7 -15 17 -22 15 -13 15 -12 4 9 -12 23 -21 28 -21
13z"/>
<path d="M3022 1085 c0 -22 4 -53 8 -70 7 -27 8 -25 8 15 0 25 -4 56 -8 70 -7
21 -8 19 -8 -15z"/>
<path d="M1220 1053 c-6 -21 -14 -45 -17 -53 -4 -8 -7 -26 -9 -40 -1 -14 -5
-45 -8 -70 -4 -33 -3 -37 2 -15 5 17 14 40 20 52 7 12 15 37 17 55 15 92 16
108 12 108 -3 0 -11 -17 -17 -37z"/>
<path d="M3134 1068 c-11 -28 -9 -172 3 -248 7 -44 9 -21 9 107 -1 90 -1 163
-2 163 0 0 -5 -10 -10 -22z"/>
<path d="M470 1068 c0 -5 54 -8 119 -8 66 0 128 -3 138 -6 12 -5 15 -4 8 4
-11 12 -265 21 -265 10z"/>
<path d="M1430 1073 c0 -14 45 -59 75 -75 15 -8 14 -5 -5 13 -14 13 -35 35
-47 49 -12 14 -22 20 -23 13z"/>
<path d="M1480 1065 c0 -2 10 -10 23 -16 20 -11 21 -11 8 4 -13 16 -31 23 -31
12z"/>
<path d="M3226 995 c-5 -22 -14 -58 -21 -80 -7 -22 -15 -67 -19 -100 -5 -60
-5 -60 8 0 7 33 21 86 30 117 10 32 16 68 14 80 -3 17 -6 13 -12 -17z"/>
<path d="M3100 1010 c0 -7 3 -10 7 -7 3 4 3 10 0 14 -4 3 -7 0 -7 -7z"/>
<path d="M3071 954 c0 -11 3 -14 6 -6 3 7 2 16 -1 19 -3 4 -6 -2 -5 -13z"/>
<path d="M1471 933 c17 -22 42 -42 51 -43 3 0 -7 14 -24 30 -32 33 -48 40 -27
13z"/>
<path d="M3061 808 c-23 -234 -23 -221 -6 -158 14 54 33 280 23 280 -2 0 -10
-55 -17 -122z"/>
<path d="M3250 910 c0 -7 3 -10 7 -7 3 4 3 10 0 14 -4 3 -7 0 -7 -7z"/>
<path d="M1040 900 c0 -7 3 -10 7 -7 3 4 3 10 0 14 -4 3 -7 0 -7 -7z"/>
<path d="M3590 892 c0 -5 7 -15 15 -22 8 -7 15 -8 15 -2 0 5 -7 15 -15 22 -8
7 -15 8 -15 2z"/>
<path d="M1570 880 c19 -13 30 -13 30 0 0 6 -10 10 -22 10 -19 0 -20 -2 -8
-10z"/>
<path d="M1712 854 c-25 -12 -68 -74 -53 -74 5 0 19 15 31 33 21 32 22 32 16
5 -9 -39 1 -35 19 9 18 42 17 43 -13 27z"/>
<path d="M1568 843 c10 -10 29 -24 41 -31 21 -12 22 -12 16 10 -10 32 -25 46
-25 23 0 -17 -1 -17 -18 -2 -25 23 -37 22 -14 0z"/>
<path d="M295 830 c3 -5 8 -10 11 -10 2 0 4 5 4 10 0 6 -5 10 -11 10 -5 0 -7
-4 -4 -10z"/>
<path d="M700 800 c-9 -6 -10 -10 -3 -10 6 0 15 5 18 10 8 12 4 12 -15 0z"/>
<path d="M3292 721 c-24 -47 -39 -81 -33 -75 25 23 84 140 79 154 -2 4 -23
-31 -46 -79z"/>
<path d="M1953 793 c4 -3 10 -3 14 0 3 4 0 7 -7 7 -7 0 -10 -3 -7 -7z"/>
<path d="M3032 780 c0 -14 2 -19 5 -12 2 6 2 18 0 25 -3 6 -5 1 -5 -13z"/>
<path d="M3021 734 c0 -11 3 -14 6 -6 3 7 2 16 -1 19 -3 4 -6 -2 -5 -13z"/>
<path d="M3171 724 c0 -11 3 -14 6 -6 3 7 2 16 -1 19 -3 4 -6 -2 -5 -13z"/>
<path d="M3150 720 c0 -7 3 -10 7 -7 3 4 3 10 0 14 -4 3 -7 0 -7 -7z"/>
<path d="M3157 680 c3 -11 7 -20 9 -20 2 0 4 9 4 20 0 11 -4 20 -9 20 -5 0 -7
-9 -4 -20z"/>
<path d="M322 670 c0 -14 2 -19 5 -12 2 6 2 18 0 25 -3 6 -5 1 -5 -13z"/>
<path d="M3010 680 c0 -7 3 -10 7 -7 3 4 3 10 0 14 -4 3 -7 0 -7 -7z"/>
<path d="M990 673 c0 -5 11 -21 25 -38 25 -30 25 -30 4 8 -20 36 -29 45 -29
30z"/>
<path d="M260 633 c0 -12 5 -25 10 -28 13 -8 13 15 0 35 -8 12 -10 11 -10 -7z"/>
<path d="M3210 609 c-10 -6 0 -9 34 -9 54 0 57 4 11 13 -17 3 -37 2 -45 -4z"/>
<path d="M3298 563 c6 -2 18 -2 25 0 6 3 1 5 -13 5 -14 0 -19 -2 -12 -5z"/>
<path d="M1644 552 c3 -5 36 -21 73 -35 66 -26 69 -29 83 -75 8 -27 16 -40 18
-29 2 9 8 17 13 17 5 0 9 4 9 10 0 5 -6 7 -13 4 -8 -3 -16 8 -22 27 -9 28 -19
35 -88 60 -43 16 -76 25 -73 21z"/>
<path d="M3343 553 c4 -3 10 -3 14 0 3 4 0 7 -7 7 -7 0 -10 -3 -7 -7z"/>
<path d="M2220 536 c0 -2 8 -10 18 -17 15 -13 16 -12 3 4 -13 16 -21 21 -21
13z"/>
<path d="M3390 475 c7 -8 17 -15 22 -15 6 0 5 7 -2 15 -7 8 -17 15 -22 15 -6
0 -5 -7 2 -15z"/>
<path d="M2561 355 c-12 -38 -29 -80 -37 -94 -9 -13 -11 -20 -4 -16 8 5 9 -3
5 -32 -13 -73 -33 -158 -40 -177 -6 -13 -5 -17 2 -13 13 8 59 184 55 210 -1
10 10 52 24 92 14 41 24 80 21 87 -2 7 -14 -18 -26 -57z"/>
<path d="M2587 345 c-9 -27 -15 -50 -13 -52 7 -7 37 68 34 84 -2 8 -11 -6 -21
-32z"/>
<path d="M2250 370 c0 -7 3 -10 7 -7 3 4 3 10 0 14 -4 3 -7 0 -7 -7z"/>
<path d="M242 335 c-1 -21 16 -68 17 -48 1 6 4 19 8 29 4 11 3 15 -5 11 -6 -4
-13 1 -15 10 -4 15 -5 15 -5 -2z"/>
<path d="M280 345 c0 -16 30 -75 39 -75 5 0 0 18 -10 40 -17 36 -29 50 -29 35z"/>
<path d="M2620 316 c-36 -95 -74 -256 -60 -256 4 0 11 21 15 47 4 27 17 73 30
103 23 57 40 130 30 130 -3 0 -10 -11 -15 -24z"/>
<path d="M2697 285 c-5 -29 -4 -78 2 -115 6 -36 11 -89 11 -117 0 -32 4 -53
11 -53 7 0 9 17 4 52 -4 28 -10 104 -14 167 -6 104 -7 111 -14 66z"/>
<path d="M1181 307 c19 -15 79 -47 79 -43 0 8 -62 46 -74 46 -5 0 -7 -1 -5 -3z"/>
<path d="M780 280 c0 -5 -10 -10 -21 -10 -17 0 -19 -3 -10 -14 10 -12 -3 -32
-70 -106 -79 -88 -119 -116 -65 -45 15 19 23 35 18 35 -12 0 -37 -29 -56 -68
-9 -18 -31 -42 -49 -52 -27 -17 -29 -20 -11 -20 12 0 27 7 34 15 7 9 15 13 17
11 7 -7 70 53 120 114 77 94 76 94 108 -23 15 -56 32 -106 37 -112 12 -12 4
22 -29 134 -16 53 -23 97 -20 118 3 18 4 33 1 33 -2 0 -4 -4 -4 -10z"/>
<path d="M340 276 c0 -2 8 -10 18 -17 15 -13 16 -12 3 4 -13 16 -21 21 -21 13z"/>
<path d="M2833 268 c-10 -140 -10 -238 -3 -243 6 -4 10 27 10 78 0 46 3 105 6
131 4 27 3 46 -3 46 -5 0 -10 -6 -10 -12z"/>
<path d="M3235 243 c45 -112 53 -154 30 -173 -8 -7 -15 -17 -15 -22 0 -13 28
10 40 32 10 20 -37 180 -53 180 -5 0 -6 -8 -2 -17z"/>
<path d="M3080 220 c0 -7 3 -10 7 -7 3 4 3 10 0 14 -4 3 -7 0 -7 -7z"/>
<path d="M1947 160 c3 -36 7 -67 9 -69 8 -8 2 84 -6 109 -6 16 -7 1 -3 -40z"/>
<path d="M1991 185 c0 -5 11 -23 25 -40 14 -16 21 -21 16 -10 -16 30 -41 61
-41 50z"/>
<path d="M717 138 c-20 -16 -37 -35 -37 -41 0 -6 12 1 28 15 15 14 35 30 46
35 10 6 15 13 10 16 -5 3 -26 -8 -47 -25z"/>
<path d="M1323 115 c0 -27 2 -38 4 -22 2 15 2 37 0 50 -2 12 -4 0 -4 -28z"/>
<path d="M2601 134 c0 -11 3 -14 6 -6 3 7 2 16 -1 19 -3 4 -6 -2 -5 -13z"/>
<path d="M2002 73 c12 -80 19 -91 12 -18 -3 33 -9 64 -13 68 -5 5 -4 -18 1
-50z"/>
<path d="M1960 70 c0 -7 3 -10 7 -7 3 4 3 10 0 14 -4 3 -7 0 -7 -7z"/>
<path d="M599 33 c-13 -15 -12 -15 9 -4 23 12 28 21 13 21 -5 0 -15 -7 -22
-17z"/>
<path d="M578 3 c7 -3 16 -2 19 1 4 3 -2 6 -13 5 -11 0 -14 -3 -6 -6z"/>
</g>
</svg>
