<?xml version="1.0" standalone="no"?>
<!DOCTYPE svg PUBLIC "-//W3C//DTD SVG 20010904//EN"
 "http://www.w3.org/TR/2001/REC-SVG-20010904/DTD/svg10.dtd">
<svg version="1.0" xmlns="http://www.w3.org/2000/svg"
 width="380.000000pt" height="256.000000pt" viewBox="0 0 380.000000 256.000000"
 preserveAspectRatio="xMidYMid meet">
<metadata>
Created by potrace 1.16, written by Peter Selinger 2001-2019
</metadata>
<g transform="translate(0.000000,256.000000) scale(0.100000,-0.100000)"
fill="#000000" stroke="none">
<path d="M10 1750 c8 -5 20 -10 25 -10 6 0 3 5 -5 10 -8 5 -19 10 -25 10 -6 0
-3 -5 5 -10z"/>
<path d="M1850 1751 c0 -6 -11 -22 -25 -37 -35 -37 -32 -40 30 -42 62 -1 64 2
33 52 -23 34 -38 45 -38 27z m24 -42 c-3 -5 0 -9 7 -9 7 0 9 -3 6 -6 -9 -10
-37 16 -37 33 0 13 3 13 15 3 8 -7 12 -16 9 -21z"/>
<path d="M50 1735 c0 -2 19 -9 43 -15 158 -41 151 -35 107 -94 -22 -29 -40
-57 -40 -62 0 -5 -26 -47 -58 -94 -46 -67 -63 -85 -80 -83 -12 2 -22 -1 -22
-6 0 -12 29 -23 41 -16 5 4 6 -1 3 -9 -7 -18 -24 -22 -24 -6 0 6 -4 10 -9 10
-5 0 -9 -43 -10 -96 -1 -85 5 -114 13 -72 4 20 24 65 67 154 21 45 39 85 39
89 0 28 88 180 119 205 20 17 43 37 51 45 24 22 67 35 118 36 41 0 44 1 22 10
-34 14 -93 2 -135 -27 -27 -18 -41 -22 -54 -15 -31 17 -191 56 -191 46z m-15
-456 c-14 -30 -25 -49 -25 -42 0 18 40 107 45 101 3 -3 -6 -29 -20 -59z m-18
24 c-4 -3 -7 0 -7 7 0 7 3 10 7 7 3 -4 3 -10 0 -14z"/>
<path d="M1408 1693 c7 -3 16 -2 19 1 4 3 -2 6 -13 5 -11 0 -14 -3 -6 -6z"/>
<path d="M1498 1683 c7 -3 16 -2 19 1 4 3 -2 6 -13 5 -11 0 -14 -3 -6 -6z"/>
<path d="M1526 1671 c-37 -21 -52 -68 -30 -92 16 -18 87 -28 264 -35 63 -2
151 -8 195 -14 161 -19 180 -18 182 10 3 29 -24 66 -59 79 -61 25 192 -1 532
-54 448 -69 431 -58 565 -373 26 -62 49 -111 51 -109 5 4 -70 186 -112 274
-40 83 -94 135 -163 157 -128 42 -1017 161 -931 125 13 -5 27 -13 30 -17 3 -4
19 -14 35 -21 17 -8 24 -16 17 -18 -6 -3 -10 -8 -7 -13 8 -12 -50 -23 -85 -15
-27 6 -30 10 -30 46 0 24 -5 39 -12 39 -42 1 -290 31 -323 39 -55 14 -85 12
-119 -8z m127 -6 c37 -6 37 -7 37 -52 0 -50 3 -50 -93 -25 -33 9 -38 8 -33 -5
6 -13 3 -13 -19 1 -17 11 -25 13 -25 4 0 -9 -3 -9 -11 -1 -32 32 27 95 81 87
14 -2 42 -6 63 -9z m240 -32 c71 -5 77 -8 77 -28 0 -42 -22 -48 -141 -42 -61
3 -112 7 -114 9 -1 2 -5 20 -8 42 -6 39 -6 39 51 32 31 -3 92 -9 135 -13z
m-286 -59 c-3 -3 -12 -4 -19 -1 -8 3 -5 6 6 6 11 1 17 -2 13 -5z m510 -31 c-4
-3 -10 -3 -14 0 -3 4 0 7 7 7 7 0 10 -3 7 -7z"/>
<path d="M1540 1633 c0 -13 5 -23 10 -23 13 0 13 11 0 30 -8 12 -10 11 -10 -7z"/>
<path d="M2055 1590 c3 -5 8 -10 11 -10 3 0 2 5 -1 10 -3 6 -8 10 -11 10 -3 0
-2 -4 1 -10z"/>
<path d="M450 1573 c-8 -2 -35 -28 -60 -58 -50 -61 -61 -65 -30 -10 11 20 16
34 10 30 -34 -21 -91 -202 -191 -610 -89 -362 -90 -468 -8 -511 31 -16 88 -16
789 -10 415 4 792 9 838 12 47 3 82 1 82 -4 0 -9 -236 -25 -347 -22 -36 1 -63
-3 -63 -9 0 -5 -8 -12 -17 -14 -10 -2 -6 -3 9 -1 15 2 30 -1 33 -6 3 -6 12
-10 18 -10 7 0 6 4 -3 10 -11 8 -3 10 30 9 25 0 94 3 153 7 86 5 111 4 117 -6
11 -18 50 -20 50 -3 0 10 20 13 81 13 60 0 80 -3 76 -12 -2 -9 -22 -12 -66
-10 -63 4 -63 4 -61 -25 3 -44 1 -48 -14 -28 -8 11 -12 23 -10 27 3 5 -6 8
-20 8 -19 0 -24 -4 -21 -19 3 -18 -4 -19 -133 -22 -187 -3 -192 -3 -192 -10 0
-4 66 -5 146 -3 84 2 167 -1 193 -7 51 -12 619 -15 828 -5 117 6 126 6 109 -9
-16 -12 -17 -15 -4 -15 8 0 21 6 27 14 7 8 42 17 82 21 50 5 72 12 79 24 13
25 119 16 176 -14 29 -15 41 -18 37 -9 -3 8 -9 14 -14 14 -5 0 -9 5 -9 10 0
16 57 12 63 -4 6 -15 85 -42 94 -33 2 3 -8 8 -24 11 -16 4 -41 18 -56 32 -24
22 -35 25 -96 23 -38 -1 -74 1 -80 5 -6 4 -11 2 -11 -3 0 -6 -7 -11 -15 -11
-23 0 -18 16 10 28 53 24 439 -25 581 -74 27 -9 76 -22 109 -28 50 -9 60 -15
66 -36 5 -15 7 8 7 57 0 51 -4 80 -10 77 -6 -4 -49 -5 -97 -4 -47 2 -135 4
-196 5 -60 1 -116 3 -122 4 -7 0 -16 19 -19 42 -7 41 -7 41 -68 33 -34 -3
-117 -8 -186 -10 -69 -2 -213 -6 -320 -9 -304 -9 -842 -12 -870 -4 -14 4 87 7
223 8 182 1 246 4 241 12 -5 9 -88 10 -308 5 -537 -13 -644 -15 -1121 -16
-763 -3 -737 -4 -776 23 -66 45 -61 109 48 567 18 79 36 147 39 150 8 8 -5
-71 -22 -132 -8 -29 -16 -62 -18 -73 -7 -37 -56 -260 -66 -303 -17 -74 -13
-172 8 -171 10 0 12 3 5 6 -7 2 -12 19 -12 36 1 21 3 25 6 11 6 -30 62 -80
103 -92 22 -7 141 -9 315 -7 154 2 407 3 562 4 283 1 283 1 276 314 -3 171 -8
314 -10 316 -2 3 -3 -119 -3 -270 1 -151 -2 -288 -6 -306 -8 -40 11 -38 -523
-41 -413 -3 -413 -3 -382 28 49 49 34 161 -24 176 -35 9 -31 28 10 50 29 15
35 24 35 52 0 18 -4 31 -9 27 -17 -10 -23 15 -7 31 20 19 21 16 -9 48 -14 15
-23 32 -19 37 3 5 1 16 -5 23 -13 16 66 95 127 125 52 26 55 37 5 16 -43 -18
-108 -67 -137 -103 -50 -63 -134 -114 -122 -74 38 124 56 246 20 142 -25 -76
-30 -96 -33 -137 0 -13 -7 -23 -15 -23 -16 0 -26 -42 -20 -92 2 -20 0 -39 -5
-42 -5 -3 -9 0 -8 7 1 31 -4 47 -14 47 -6 0 -8 -7 -5 -16 4 -10 2 -13 -6 -8
-8 5 -9 2 -5 -10 4 -10 7 -24 7 -32 0 -8 6 -11 15 -8 10 4 15 0 15 -11 0 -9
-4 -14 -9 -11 -4 3 -23 -6 -41 -19 -44 -32 -54 -31 -46 3 4 15 8 34 9 42 2 8
8 33 14 55 6 22 14 60 18 85 11 69 11 72 23 115 6 22 13 65 17 95 23 182 112
423 153 415 69 -14 82 -14 82 -1 0 7 -7 19 -15 26 -26 22 -6 29 68 23 82 -6
102 -17 64 -34 -15 -7 -27 -15 -27 -18 1 -10 87 -61 103 -61 27 0 47 12 40 24
-3 6 -1 6 8 -1 15 -15 43 -17 34 -3 -4 6 1 7 11 3 21 -8 15 17 -7 27 -8 4 -23
12 -35 17 -12 7 -27 7 -36 2 -11 -6 -23 -3 -39 11 -24 19 -24 19 58 20 45 0
84 -4 87 -8 3 -5 -9 -6 -26 -4 -41 6 -29 -13 18 -28 28 -10 33 -14 23 -26 -25
-30 9 -12 42 22 34 36 34 36 204 29 94 -3 203 -11 243 -16 53 -8 77 -7 87 1
10 8 24 8 52 1 38 -10 210 -25 413 -36 58 -4 152 -10 209 -16 57 -5 114 -6
126 -3 21 5 23 2 30 -58 6 -49 9 -58 16 -41 4 12 4 36 -1 52 -5 17 -6 31 -2
32 22 3 131 -3 222 -12 58 -5 175 -16 260 -24 85 -8 171 -12 190 -9 26 4 31 3
20 -5 -13 -9 -12 -11 3 -11 40 0 64 -50 142 -285 48 -146 81 -232 87 -228 7 4
9 -3 4 -21 -5 -20 -4 -26 5 -20 8 5 9 3 5 -5 -10 -16 23 -150 42 -174 9 -9 12
-20 8 -25 -4 -4 -18 5 -29 19 -45 54 -127 68 -191 34 -49 -26 -49 -26 -76 0
-49 47 -92 51 -154 15 -50 -28 -79 -60 -56 -60 6 0 10 -20 10 -45 0 -25 4 -45
10 -45 5 0 17 -14 25 -30 9 -17 20 -28 25 -25 6 4 10 2 10 -3 0 -21 -362 -32
-375 -12 -5 9 37 15 72 11 6 -1 14 3 18 8 3 7 -15 10 -50 9 -47 -1 -55 -4 -55
-21 0 -13 -5 -17 -15 -13 -9 3 -15 0 -15 -9 0 -12 25 -13 148 -10 81 3 251 7
377 11 207 5 255 7 291 12 58 9 68 92 30 237 -82 308 -172 584 -209 640 -42
64 -64 70 -437 104 -363 34 -430 40 -590 51 -85 6 -182 13 -215 16 -33 2 -130
9 -215 14 -85 6 -168 12 -185 15 -35 5 -102 9 -695 40 -209 11 -225 12 -240 8z
m97 -20 c-4 -3 -10 -3 -14 0 -3 4 0 7 7 7 7 0 10 -3 7 -7z m371 -20 c-15 -2
-42 -2 -60 0 -18 2 -6 4 27 4 33 0 48 -2 33 -4z m59 1 c-3 -3 -12 -4 -19 -1
-8 3 -5 6 6 6 11 1 17 -2 13 -5z m30 -1 c-4 -3 -10 -3 -14 0 -3 4 0 7 7 7 7 0
10 -3 7 -7z m-553 -22 c3 -5 -1 -12 -10 -15 -27 -11 -37 -7 -24 9 14 17 26 19
34 6z m1046 -11 c11 -8 7 -9 -15 -4 -37 8 -45 14 -19 14 10 0 26 -5 34 -10z
m108 -7 c-10 -2 -28 -2 -40 0 -13 2 -5 4 17 4 22 1 32 -1 23 -4z m-938 -13 c0
-13 -11 -13 -30 0 -12 8 -11 10 8 10 12 0 22 -4 22 -10z m1467 -26 c-3 -3 -12
-4 -19 -1 -8 3 -5 6 6 6 11 1 17 -2 13 -5z m-1802 -46 c-7 -30 -34 -91 -35
-77 0 12 31 109 36 109 3 0 2 -15 -1 -32z m2062 26 c-3 -3 -12 -4 -19 -1 -8 3
-5 6 6 6 11 1 17 -2 13 -5z m80 -11 c-4 -3 -10 -3 -14 0 -3 4 0 7 7 7 7 0 10
-3 7 -7z m121 -10 c-10 -2 -26 -2 -35 0 -10 3 -2 5 17 5 19 0 27 -2 18 -5z
m199 -19 c-3 -3 -12 -4 -19 -1 -8 3 -5 6 6 6 11 1 17 -2 13 -5z m106 -11 c-7
-2 -21 -2 -30 0 -10 3 -4 5 12 5 17 0 24 -2 18 -5z m-2606 -90 c-4 -3 -7 0 -7
7 0 7 3 10 7 7 3 -4 3 -10 0 -14z m2793 -159 c29 -85 50 -157 47 -160 -2 -2
-29 70 -59 160 -30 91 -51 163 -47 160 4 -2 31 -74 59 -160z m-2803 119 c-4
-3 -7 0 -7 7 0 7 3 10 7 7 3 -4 3 -10 0 -14z m-11 -49 c-4 -14 -9 -24 -12 -21
-3 2 -2 17 2 31 3 15 9 25 11 22 3 -3 2 -17 -1 -32z m2883 -294 c0 -9 -4 -8
-9 5 -5 11 -9 27 -9 35 0 9 4 8 9 -5 5 -11 9 -27 9 -35z m-2709 -13 c0 -17
-20 -37 -37 -37 -19 0 -16 27 5 39 23 14 32 13 32 -2z m35 -47 c3 -4 -2 -13
-10 -20 -17 -14 -20 -50 -5 -50 20 0 22 -31 5 -50 -19 -20 -97 -28 -121 -12
-39 25 -50 95 -20 125 15 14 143 20 151 7z m-159 -143 c1 -9 -4 -17 -11 -17
-14 0 -27 25 -17 34 10 10 25 1 28 -17z m97 -14 c-7 -2 -19 -2 -25 0 -7 3 -2
5 12 5 14 0 19 -2 13 -5z m2499 -43 c27 -24 30 -31 18 -39 -8 -5 -18 -7 -22
-5 -4 3 -8 0 -8 -6 0 -6 10 -8 23 -5 22 6 24 3 25 -39 5 -111 -152 -120 -193
-11 -40 104 74 181 157 105z m-2517 9 c84 -21 127 -99 84 -153 -46 -59 -170
-76 -249 -35 -157 82 -23 235 165 188z m2739 -13 c48 -20 82 -71 70 -105 -32
-93 -221 -65 -240 35 -12 62 90 104 170 70z m-2987 -68 c-3 -7 -5 -2 -5 12 0
14 2 19 5 13 2 -7 2 -19 0 -25z m3083 -78 c-12 -23 -49 -41 -83 -39 -17 1 -16
3 8 10 17 4 35 9 40 9 6 1 16 12 23 26 8 14 16 24 19 21 2 -3 -1 -15 -7 -27z
m-249 -42 c-32 -13 -49 -9 -44 11 3 13 11 17 24 14 12 -3 19 0 20 8 0 8 4 5 8
-6 6 -14 4 -22 -8 -27z m-64 -5 c-4 -3 -10 -3 -14 0 -3 4 0 7 7 7 7 0 10 -3 7
-7z m413 -63 c0 -20 -5 -30 -15 -30 -18 0 -18 2 -3 35 15 32 18 32 18 -5z
m-465 -8 c-8 -8 -25 10 -19 20 4 6 9 5 15 -3 4 -7 6 -15 4 -17z m-106 7 c-12
-7 -11 -9 2 -9 23 0 54 -36 37 -43 -8 -4 -7 -6 5 -6 10 -1 17 -9 17 -22 0 -15
-4 -19 -16 -15 -9 3 -20 6 -26 6 -6 0 -8 7 -4 15 3 9 0 15 -8 15 -18 0 -28
-27 -13 -33 7 -3 -9 -5 -34 -5 -42 0 -46 3 -42 22 4 21 4 21 -8 0 -15 -29 -81
-36 -302 -33 -135 2 -172 5 -184 17 -14 14 -13 17 3 29 16 12 16 13 1 13 -19
0 -23 29 -4 32 29 4 93 7 267 13 102 4 186 8 187 9 1 0 32 2 69 3 43 1 62 -2
53 -8z m71 -4 c7 -8 19 -15 26 -15 14 0 13 -21 -2 -68 -7 -24 -21 -4 -28 40
-4 23 -12 46 -19 50 -8 5 -8 8 -1 8 6 0 17 -7 24 -15z m104 -1 c3 -9 12 -14
19 -11 8 3 20 2 27 -3 8 -5 -3 -10 -31 -15 -24 -4 -50 -12 -56 -17 -10 -8 -13
-5 -13 10 0 11 6 23 13 25 9 4 8 8 -3 16 -12 9 -10 11 11 11 16 0 29 -7 33
-16z m176 6 c0 -5 -20 -10 -44 -10 -25 0 -48 -5 -52 -11 -4 -8 -9 -7 -15 2
-16 25 -9 29 51 29 33 0 60 -4 60 -10z m-960 -20 c0 -5 -2 -10 -4 -10 -3 0 -8
5 -11 10 -3 6 -1 10 4 10 6 0 11 -4 11 -10z m1137 3 c-4 -3 -10 -3 -14 0 -3 4
0 7 7 7 7 0 10 -3 7 -7z m-1207 -23 c0 -5 -5 -10 -11 -10 -5 0 -7 5 -4 10 3 6
8 10 11 10 2 0 4 -4 4 -10z m-130 -21 c0 -5 -7 -9 -15 -9 -15 0 -20 12 -9 23
8 8 24 -1 24 -14z m99 3 c26 -29 50 -34 63 -12 12 18 13 18 35 -6 33 -36 31
-37 -49 -30 -40 3 -90 6 -111 7 -24 1 -36 6 -34 13 2 6 19 10 36 8 20 -1 30 2
26 8 -17 27 12 37 34 12z m108 11 c-4 -3 -10 -3 -14 0 -3 4 0 7 7 7 7 0 10 -3
7 -7z m1542 -9 c29 -6 48 -44 21 -44 -5 0 -10 7 -10 15 0 9 -10 15 -27 16 -85
2 -198 11 -202 15 -7 6 182 5 218 -2z m-1759 -28 c0 -2 -7 -6 -15 -10 -8 -3
-15 -1 -15 4 0 6 7 10 15 10 8 0 15 -2 15 -4z m957 -2 c-3 -3 -12 -4 -19 -1
-8 3 -5 6 6 6 11 1 17 -2 13 -5z"/>
<path d="M2860 640 c0 -5 5 -10 11 -10 5 0 7 5 4 10 -3 6 -8 10 -11 10 -2 0
-4 -4 -4 -10z"/>
<path d="M2842 616 c6 -14 15 -26 20 -26 10 0 -7 36 -22 45 -6 4 -5 -5 2 -19z"/>
<path d="M2794 609 c-3 -6 -1 -16 5 -22 8 -8 11 -5 11 11 0 24 -5 28 -16 11z"/>
<path d="M2794 563 c-22 -7 -1 -45 32 -59 48 -20 72 -17 99 11 25 24 33 55 15
55 -5 0 -10 -8 -10 -18 0 -28 -20 -42 -59 -42 -44 0 -58 9 -62 36 -2 11 -9 19
-15 17z"/>
<path d="M2860 552 c0 -6 5 -14 10 -17 14 -9 50 4 50 17 0 6 -6 6 -15 -2 -12
-10 -18 -10 -30 0 -9 8 -15 9 -15 2z"/>
<path d="M282 603 c-19 -7 -33 -39 -26 -58 8 -20 48 -37 69 -29 24 9 18 27 -7
21 -25 -7 -48 8 -48 31 0 11 8 13 35 9 38 -6 47 6 16 23 -11 5 -21 10 -23 9
-2 0 -9 -3 -16 -6z"/>
<path d="M360 554 c0 -32 4 -44 13 -41 6 2 11 10 10 16 -2 6 2 12 7 12 6 1 15
2 20 3 6 0 9 5 8 11 -2 5 -8 9 -15 7 -6 -1 -14 2 -18 8 -4 6 4 10 19 10 14 0
28 5 31 10 4 6 -10 10 -34 10 -41 0 -41 0 -41 -46z"/>
<path d="M480 570 c0 -7 3 -10 7 -7 3 4 3 10 0 14 -4 3 -7 0 -7 -7z"/>
<path d="M445 500 c-26 -19 -54 -30 -80 -31 -40 -2 -40 -2 -2 -6 39 -4 111 27
121 54 7 16 9 17 -39 -17z"/>
<path d="M210 511 c0 -6 4 -13 10 -16 6 -3 7 1 4 9 -7 18 -14 21 -14 7z"/>
<path d="M3031 587 c-11 -30 -3 -47 21 -47 16 0 19 5 16 25 -4 17 -1 25 8 25
8 0 14 -9 14 -19 0 -11 5 -23 12 -27 8 -5 9 0 5 15 -3 14 0 24 9 28 25 9 6 21
-36 21 -33 1 -43 -3 -49 -21z m29 -28 c0 -5 -4 -9 -10 -9 -5 0 -10 7 -10 16 0
8 5 12 10 9 6 -3 10 -10 10 -16z"/>
<path d="M3141 591 c-15 -27 -14 -51 3 -51 15 0 28 58 15 66 -4 2 -13 -4 -18
-15z m6 -28 c-4 -3 -7 0 -7 7 0 7 3 10 7 7 3 -4 3 -10 0 -14z"/>
<path d="M2235 330 c3 -5 8 -10 11 -10 2 0 4 5 4 10 0 6 -5 10 -11 10 -5 0 -7
-4 -4 -10z"/>
<path d="M2223 303 c4 -3 10 -3 14 0 3 4 0 7 -7 7 -7 0 -10 -3 -7 -7z"/>
<path d="M1253 1465 c-9 -10 -6 -15 12 -23 13 -6 33 -29 44 -51 12 -22 26 -43
32 -46 15 -10 -29 74 -55 106 -17 20 -24 23 -33 14z"/>
<path d="M1431 1440 c-1 -26 4 -51 11 -58 16 -16 14 -327 -3 -348 -9 -11 -8
-14 5 -14 14 0 16 -14 16 -97 1 -122 10 -344 15 -360 8 -26 21 -12 17 17 -4
25 -1 30 16 30 15 0 19 -5 15 -19 -3 -10 0 -22 6 -26 13 -8 281 -17 281 -10 0
3 -5 14 -12 25 -7 10 -10 22 -6 25 5 6 84 -15 136 -36 15 -6 22 -5 22 4 0 8 3
9 8 1 22 -32 40 -23 34 18 -3 28 -1 43 9 49 11 7 11 9 -3 9 -13 0 -18 8 -18
30 0 28 2 30 40 30 40 0 40 0 40 -55 0 -30 3 -55 8 -55 9 0 5 86 -10 177 -12
72 -6 101 13 73 8 -12 9 -9 7 10 -2 16 -12 27 -28 32 -18 5 -14 6 13 2 37 -5
37 -5 37 56 0 60 0 60 34 60 61 0 86 -15 86 -52 0 -33 0 -33 -52 -33 -45 0
-53 -3 -56 -20 -2 -18 -2 -18 8 -2 11 17 38 21 78 11 19 -6 22 -13 23 -63 0
-31 6 -103 13 -161 7 -58 11 -108 9 -113 -2 -4 2 -7 9 -7 11 0 13 13 6 63 -4
34 -12 114 -18 177 -28 317 -66 617 -54 430 3 -41 7 -88 10 -103 5 -23 -1 -34
-31 -62 -20 -20 -30 -35 -22 -35 8 0 22 9 32 20 22 24 35 17 35 -19 0 -27 -1
-27 -49 -21 -57 7 -88 -8 -77 -37 5 -12 4 -15 -3 -8 -5 6 -14 46 -19 90 -11
80 -11 80 -8 8 3 -130 -14 -60 -25 96 -8 108 -8 156 0 164 7 7 34 7 86 1 41
-5 75 -7 75 -3 0 12 -75 19 -369 35 -371 19 -362 17 -377 74 -12 45 -12 45
-13 0z m189 -80 c41 0 147 -5 235 -12 160 -12 160 -12 160 -166 0 -155 0 -155
-25 -164 -29 -11 -8 -32 23 -22 25 8 86 -54 66 -67 -8 -5 -18 -9 -22 -9 -5 0
-24 -16 -43 -35 -33 -34 -36 -35 -89 -29 -30 4 -55 10 -55 15 0 4 -29 17 -66
29 -65 22 -65 22 -107 -7 -23 -15 -51 -28 -62 -28 -11 0 -18 -5 -15 -10 3 -6
12 -10 20 -10 8 0 17 -11 18 -24 2 -15 0 -21 -7 -16 -6 3 -9 11 -6 16 4 5 1 9
-4 9 -6 0 -11 -4 -11 -10 0 -21 -18 -9 -25 17 -6 24 -1 33 37 65 24 21 42 42
40 48 -1 7 2 8 9 5 13 -9 99 23 99 36 0 5 -4 9 -10 9 -5 0 -10 5 -10 10 0 6 6
10 14 10 8 0 13 8 12 18 0 9 6 17 14 17 8 0 15 -7 16 -15 3 -40 28 -86 46 -81
7 2 30 4 51 4 21 1 33 3 27 5 -5 2 -10 9 -10 15 0 13 -54 50 -88 61 -13 4 -22
15 -22 27 0 25 3 24 64 -11 36 -20 59 -27 75 -23 23 6 23 7 6 20 -18 12 -17
13 8 13 21 0 27 5 27 21 0 20 0 20 -42 -3 -32 -18 -42 -20 -46 -10 -10 29 -62
79 -109 102 -42 22 -62 25 -165 26 -65 1 -118 -2 -118 -7 0 -16 -29 -10 -39 9
-8 14 -11 14 -13 2 -1 -8 -4 23 -7 70 -7 104 -9 100 36 89 21 -5 72 -9 113 -9z
m86 -171 c85 -12 136 -33 173 -73 49 -52 2 -41 -70 16 -20 16 -45 29 -55 28
-62 -2 -189 2 -197 7 -14 9 23 33 49 33 12 0 58 -5 100 -11z m-190 -35 c13
-14 24 -29 24 -35 0 -5 7 -12 15 -15 17 -7 20 -24 5 -24 -16 0 -90 71 -90 86
0 22 20 17 46 -12z m81 -21 c-4 -3 -10 -3 -14 0 -3 4 0 7 7 7 7 0 10 -3 7 -7z
m51 -13 c7 -11 11 -20 9 -20 -2 0 -12 9 -22 20 -10 11 -14 20 -9 20 5 0 15 -9
22 -20z m72 -28 c0 -12 -6 -10 -25 8 -14 13 -25 27 -25 32 0 5 11 1 25 -8 14
-9 25 -23 25 -32z m-3 41 c-4 -3 -10 -3 -14 0 -3 4 0 7 7 7 7 0 10 -3 7 -7z
m-211 -38 c29 -38 26 -59 -4 -32 -10 10 -24 17 -30 17 -7 0 -12 11 -12 25 0
34 14 31 46 -10z m317 -1 c-6 -20 -38 -8 -41 15 -4 24 -3 24 20 9 12 -8 22
-19 21 -24z m-179 1 c18 -14 39 -25 46 -25 8 0 10 -7 5 -22 -4 -13 -7 -35 -7
-50 1 -31 -1 -32 -29 -18 -17 9 -19 7 -19 -16 0 -26 -34 -84 -50 -84 -33 0 -4
73 47 115 6 6 15 22 19 38 7 30 -6 30 -54 -1 -31 -20 -34 -14 -14 41 20 55 15
53 56 22z m136 -25 c0 -5 -2 -10 -4 -10 -3 0 -8 5 -11 10 -3 6 -1 10 4 10 6 0
11 -4 11 -10z m-286 -19 c9 -10 17 -35 18 -55 1 -26 5 -35 14 -32 17 7 32 -21
29 -54 -2 -31 -19 -33 -23 -3 -2 13 -11 28 -20 35 -9 7 -19 28 -20 47 -2 19
-10 40 -18 48 -16 16 -19 33 -6 33 5 0 16 -8 26 -19z m264 1 c2 -7 -2 -10 -12
-6 -9 3 -16 11 -16 16 0 13 23 5 28 -10z m-168 -56 c0 -3 -5 -8 -12 -12 -7 -4
-8 -3 -4 4 7 12 16 16 16 8z m255 -126 c13 -6 15 -9 5 -9 -8 0 -22 4 -30 9
-18 12 -2 12 25 0z m-45 -20 c14 -11 28 -20 31 -20 4 0 24 -8 45 -17 22 -9 43
-16 48 -14 4 1 15 -6 23 -16 10 -13 16 -15 19 -5 9 21 24 13 24 -12 0 -29 -37
-47 -51 -25 -6 10 -9 11 -9 2 0 -22 -67 -16 -91 8 -12 12 -26 22 -33 23 -6 1
-26 9 -45 19 -19 9 -40 17 -46 17 -7 0 -18 6 -24 14 -10 12 -8 14 11 12 26 -3
141 -56 146 -68 2 -4 10 -8 18 -8 8 0 14 -4 14 -10 0 -5 7 -10 15 -10 32 0 12
20 -56 55 -38 20 -79 45 -90 56 -19 19 -19 19 4 19 12 0 33 -9 47 -20z m240 2
c0 -14 -11 -21 -26 -15 -8 3 -11 9 -8 14 7 11 34 12 34 1z m-523 -49 c-4 -3
-7 0 -7 7 0 7 3 10 7 7 3 -4 3 -10 0 -14z m116 -12 c39 -15 34 -32 -29 -95
-78 -79 -92 -65 -52 55 18 52 26 65 38 59 8 -4 27 -13 43 -19z m-110 -65 c10
10 9 -8 -2 -25 -11 -17 -25 6 -34 55 -9 48 6 51 18 4 6 -23 13 -38 18 -34z
m195 -8 c-2 -15 -17 -30 -43 -42 -22 -11 -52 -26 -67 -33 -47 -24 -31 3 30 51
64 51 85 57 80 24z m59 16 c-3 -3 -12 -4 -19 -1 -8 3 -5 6 6 6 11 1 17 -2 13
-5z m173 -29 c0 -8 -6 -15 -14 -15 -17 0 -28 14 -19 24 12 12 33 6 33 -9z
m-193 -22 c-4 -3 -7 0 -7 7 0 7 3 10 7 7 3 -4 3 -10 0 -14z m-257 -41 c0 -15
-2 -15 -10 -2 -13 20 -13 33 0 25 6 -3 10 -14 10 -23z m220 3 c0 -8 7 -15 15
-15 11 0 10 -5 -6 -21 -17 -17 -19 -23 -8 -30 9 -6 -18 -9 -73 -7 -91 2 -108
11 -60 29 15 6 36 16 47 22 82 44 85 44 85 22z m171 -15 c5 0 9 -6 9 -14 0 -9
-8 -12 -24 -9 -21 4 -22 7 -12 29 8 16 12 19 14 9 2 -8 8 -15 13 -15z m-124
-57 c-4 -3 -10 -3 -14 0 -3 4 0 7 7 7 7 0 10 -3 7 -7z"/>
<path d="M1480 1280 c0 -7 3 -10 7 -7 3 4 3 10 0 14 -4 3 -7 0 -7 -7z"/>
<path d="M1972 960 c-2 -31 9 -60 23 -60 16 0 17 41 0 52 -6 5 -2 8 8 8 10 0
16 4 12 9 -9 15 -42 9 -43 -9z"/>
<path d="M2030 970 c0 -7 3 -10 7 -7 3 4 3 10 0 14 -4 3 -7 0 -7 -7z"/>
<path d="M1935 902 c-33 -7 -42 -22 -13 -22 15 0 30 5 33 11 9 14 4 16 -20 11z"/>
<path d="M1387 1438 c8 -46 13 -48 13 -5 0 21 -4 37 -10 37 -5 0 -7 -14 -3
-32z"/>
<path d="M3427 1415 c3 -27 10 -55 15 -62 5 -6 9 -20 8 -30 -1 -10 -1 -47 1
-83 2 -65 2 -65 9 15 4 53 2 90 -6 110 -7 17 -17 46 -22 65 -9 32 -10 30 -5
-15z"/>
<path d="M3324 1416 c9 -21 16 -47 16 -58 0 -10 7 -29 15 -41 8 -13 11 -28 6
-35 -6 -10 -16 -1 -37 32 -16 25 -32 46 -36 46 -4 0 -15 14 -23 31 -9 17 -19
28 -22 25 -3 -3 0 -14 8 -25 68 -92 83 -118 86 -150 2 -20 6 -47 9 -61 6 -23
7 -24 14 -5 8 19 9 18 9 -4 1 -18 4 -21 14 -12 8 6 17 8 20 4 14 -13 6 13 -10
36 -13 19 -14 28 -5 42 16 26 15 37 -7 65 -11 13 -17 32 -14 43 2 10 -7 35
-22 57 -36 53 -40 55 -21 10z m33 -63 c-4 -3 -7 0 -7 7 0 7 3 10 7 7 3 -4 3
-10 0 -14z m33 -84 c0 -5 -4 -9 -10 -9 -5 0 -10 7 -10 16 0 8 5 12 10 9 6 -3
10 -10 10 -16z m-20 -57 c0 -7 -4 -10 -10 -7 -5 3 -10 16 -10 28 0 25 20 4 20
-21z m17 -29 c-4 -3 -7 0 -7 7 0 7 3 10 7 7 3 -4 3 -10 0 -14z"/>
<path d="M0 1429 c0 -5 4 -7 10 -4 5 3 10 8 10 11 0 2 -4 4 -10 4 -5 0 -10 -5
-10 -11z"/>
<path d="M38 1423 c7 -3 16 -2 19 1 4 3 -2 6 -13 5 -11 0 -14 -3 -6 -6z"/>
<path d="M3226 1328 c28 -33 64 -86 64 -95 0 -9 39 -61 40 -53 1 24 -97 169
-114 170 -5 0 -1 -10 10 -22z"/>
<path d="M3421 1343 c-1 -6 -4 -20 -7 -30 -5 -17 -5 -17 6 0 6 10 9 23 6 30
-3 9 -5 9 -5 0z"/>
<path d="M2251 1280 c-1 -19 5 -88 13 -155 8 -66 20 -181 26 -255 6 -74 16
-153 21 -175 8 -36 8 -35 4 15 -3 30 -8 100 -11 155 -7 100 -7 100 27 70 34
-30 34 -30 8 0 -39 44 -46 63 -54 140 -11 110 -33 244 -34 205z"/>
<path d="M3515 1251 c0 -51 2 -57 19 -53 15 4 17 1 11 -19 -4 -13 -12 -25 -16
-27 -18 -7 -8 -20 11 -15 11 3 18 9 15 13 -9 15 28 20 62 9 19 -6 37 -9 40 -5
3 3 -7 8 -23 12 -26 7 -26 8 -9 15 13 6 6 6 -17 3 -37 -6 -38 -5 -58 41 -11
26 -20 53 -20 60 0 8 -3 16 -7 18 -5 3 -8 -21 -8 -52z m22 -28 c-4 -3 -7 0 -7
7 0 7 3 10 7 7 3 -4 3 -10 0 -14z"/>
<path d="M2041 1284 c0 -11 3 -14 6 -6 3 7 2 16 -1 19 -3 4 -6 -2 -5 -13z"/>
<path d="M3540 1280 c0 -7 3 -10 7 -7 3 4 3 10 0 14 -4 3 -7 0 -7 -7z"/>
<path d="M3580 1275 c-18 -10 -20 -14 -8 -15 23 0 48 11 48 21 0 12 -11 11
-40 -6z"/>
<path d="M3690 1274 c-19 -10 -21 -14 -7 -14 9 0 17 -7 17 -15 0 -8 -5 -15
-12 -15 -6 0 -8 -3 -5 -7 4 -3 15 1 25 10 19 17 67 13 56 -5 -4 -6 3 -5 15 1
13 7 21 21 21 36 0 30 -20 33 -27 5 -6 -21 -22 -24 -24 -5 -2 25 -25 28 -59 9z
m27 -11 c-4 -3 -10 -3 -14 0 -3 4 0 7 7 7 7 0 10 -3 7 -7z"/>
<path d="M3640 1271 c0 -6 -8 -11 -17 -11 -15 0 -16 -2 -3 -10 19 -12 33 -13
26 -1 -4 5 -1 11 6 13 9 3 9 6 0 12 -7 4 -12 2 -12 -3z"/>
<path d="M3585 1240 c3 -5 8 -10 11 -10 3 0 2 5 -1 10 -3 6 -8 10 -11 10 -3 0
-2 -4 1 -10z"/>
<path d="M3231 1221 c6 -14 15 -36 20 -50 7 -26 7 -26 8 -1 0 14 -9 36 -20 50
-20 25 -20 25 -8 1z"/>
<path d="M2960 1219 c0 -17 83 -256 92 -264 8 -7 9 -4 4 10 -4 11 -23 70 -43
130 -29 90 -53 147 -53 124z"/>
<path d="M3777 1206 c-3 -8 -1 -17 6 -20 7 -3 2 -3 -10 0 -15 3 -23 1 -23 -8
0 -7 11 -14 24 -14 21 -2 24 3 24 27 -1 31 -12 38 -21 15z"/>
<path d="M3710 1185 c-14 -8 -20 -14 -14 -15 5 0 19 7 30 15 24 18 16 19 -16
0z"/>
<path d="M3424 1151 c1 -16 4 -27 9 -24 10 6 9 41 -2 47 -4 3 -8 -8 -7 -23z"/>
<path d="M3555 1135 c-10 -13 -24 -21 -29 -18 -5 3 -6 1 -2 -5 4 -7 17 -10 29
-7 26 7 80 -41 60 -53 -8 -5 -3 -16 13 -36 14 -15 28 -25 31 -22 4 4 -3 14
-16 22 -14 10 -20 22 -16 31 3 9 -3 28 -12 42 -10 14 -22 36 -28 48 -10 21
-10 21 -30 -2z"/>
<path d="M3467 1143 c-4 -3 -7 -15 -7 -25 0 -10 -6 -18 -14 -18 -8 0 -18 -5
-22 -11 -4 -7 2 -9 17 -7 15 2 25 12 30 32 9 31 7 41 -4 29z"/>
<path d="M3341 1122 c-1 -12 -8 -25 -16 -28 -21 -8 -19 -31 4 -44 13 -6 17
-17 14 -30 -4 -16 0 -20 20 -20 16 0 26 -7 30 -20 3 -11 1 -20 -5 -20 -6 0 -8
-7 -4 -15 7 -18 -5 -19 -26 -2 -21 17 -58 81 -58 100 0 18 -26 47 -42 47 -7 0
-2 -10 10 -23 23 -24 29 -47 13 -47 -5 0 -12 7 -15 16 -4 9 -9 15 -11 12 -3
-2 9 -39 25 -82 17 -43 60 -169 96 -280 80 -243 82 -246 135 -246 25 0 38 4
34 10 -4 6 -11 8 -16 4 -5 -3 -16 0 -24 6 -12 10 -15 10 -15 -1 0 -10 -5 -9
-17 4 -13 13 -14 20 -5 29 19 19 16 54 -3 38 -16 -13 -30 11 -42 73 -8 40 32
36 80 -8 20 -18 37 -30 37 -26 0 20 -82 82 -100 76 -10 -3 -25 1 -34 10 -18
19 -21 45 -5 45 5 0 8 4 4 9 -3 5 10 9 29 8 22 -1 32 -6 29 -15 -4 -8 0 -10
11 -6 11 4 19 -1 25 -17 9 -21 10 -19 10 18 1 32 -2 41 -13 37 -8 -3 -17 -1
-21 5 -3 6 -11 11 -16 11 -6 0 -7 -5 -4 -11 7 -11 -64 -2 -77 10 -4 3 -18 38
-31 76 -13 39 -27 78 -32 88 -5 13 -2 17 14 17 13 0 25 -9 31 -22 7 -18 9 -19
9 -5 1 27 37 5 58 -36 9 -18 18 -26 21 -19 4 13 33 -19 45 -50 3 -10 11 -18
17 -18 5 0 10 -5 10 -11 0 -5 -4 -7 -10 -4 -5 3 -10 1 -10 -4 0 -6 4 -11 9
-11 5 0 12 -9 16 -19 4 -12 12 -18 20 -15 9 4 22 -7 36 -30 11 -20 25 -36 30
-36 14 0 11 7 -21 44 -24 27 -27 35 -15 40 17 6 47 -3 57 -18 3 -5 13 -11 21
-12 20 -3 67 -34 67 -45 0 -12 -7 -11 -32 2 -13 7 -24 7 -30 1 -14 -14 68 -25
92 -12 19 10 19 11 -1 31 -11 11 -36 23 -55 26 -38 6 -44 18 -15 28 28 8 15
35 -16 35 -23 0 -24 2 -12 17 11 13 11 17 1 20 -34 12 -96 51 -106 66 -13 21
9 40 36 31 16 -5 16 -3 1 28 -9 18 -23 41 -31 51 -8 9 -13 19 -10 22 9 10 37
-6 41 -23 4 -16 5 -16 6 0 0 9 -5 23 -12 30 -12 11 -12 16 0 26 7 7 13 18 13
24 0 8 -3 9 -10 2 -16 -16 -80 -5 -81 15 0 9 -5 3 -11 -13 -8 -22 -8 -31 1
-34 16 -5 14 -29 -4 -36 -21 -8 -1 -49 31 -67 34 -18 22 -23 -20 -9 -20 6 -34
16 -31 21 4 5 1 9 -4 9 -6 0 -11 -6 -11 -12 -1 -7 -12 1 -25 17 -14 17 -23 35
-20 42 2 7 0 15 -5 18 -6 4 -10 14 -9 23 0 11 2 12 6 4 2 -6 9 -10 14 -6 5 3
10 -5 11 -18 2 -42 3 -47 11 -54 8 -9 9 42 1 74 -4 12 -14 22 -25 22 -13 0
-21 12 -28 43 -11 42 -11 42 -7 0 2 -24 0 -43 -5 -43 -5 0 -9 10 -10 23 0 12
-4 31 -9 42 -8 19 -9 19 -9 -3z m-1 -52 c0 -5 -4 -10 -10 -10 -5 0 -10 5 -10
10 0 6 5 10 10 10 6 0 10 -4 10 -10z m203 -35 c-3 -9 -8 -14 -10 -11 -3 3 -2
9 2 15 9 16 15 13 8 -4z m-176 -22 c-4 -3 -7 0 -7 7 0 7 3 10 7 7 3 -4 3 -10
0 -14z m-57 -18 c10 -12 10 -15 -3 -15 -8 0 -17 7 -21 15 -3 8 -2 15 3 15 5 0
14 -7 21 -15z m230 -27 c18 -30 29 -68 12 -42 -4 6 -17 14 -28 18 -31 10 -41
56 -12 56 4 0 17 -15 28 -32z m-215 -18 c3 -5 2 -10 -4 -10 -5 0 -13 5 -16 10
-3 6 -2 10 4 10 5 0 13 -4 16 -10z m110 -25 c11 -4 26 -9 34 -11 8 -1 30 -19
50 -38 20 -20 42 -36 48 -36 22 0 37 -29 23 -45 -8 -10 -9 -15 -2 -15 6 0 9
-7 5 -15 -3 -9 -8 -14 -10 -11 -3 3 -12 -1 -20 -9 -22 -23 -36 -18 -29 10 5
18 1 27 -13 35 -11 5 -25 26 -32 45 -8 22 -20 35 -30 35 -10 0 -20 9 -24 19
-3 11 -12 22 -20 25 -8 3 -15 13 -15 23 0 11 3 14 8 7 4 -6 16 -14 27 -19z"/>
<path d="M3625 1130 c3 -5 8 -10 11 -10 3 0 2 5 -1 10 -3 6 -8 10 -11 10 -3 0
-2 -4 1 -10z"/>
<path d="M3250 1110 c0 -7 3 -10 7 -7 3 4 3 10 0 14 -4 3 -7 0 -7 -7z"/>
<path d="M3273 1113 c4 -3 10 -3 14 0 3 4 0 7 -7 7 -7 0 -10 -3 -7 -7z"/>
<path d="M3684 1108 c-4 -7 -3 -8 4 -4 7 4 12 9 12 12 0 8 -9 4 -16 -8z"/>
<path d="M3716 1105 c4 -8 11 -15 16 -15 6 0 5 6 -2 15 -7 8 -14 15 -16 15 -2
0 -1 -7 2 -15z"/>
<path d="M3785 1090 c-3 -5 -1 -10 4 -10 6 0 11 5 11 10 0 6 -2 10 -4 10 -3 0
-8 -4 -11 -10z"/>
<path d="M3675 1050 c3 -5 12 -7 20 -3 21 7 19 13 -6 13 -11 0 -18 -4 -14 -10z"/>
<path d="M3780 1045 c-8 -9 -8 -15 -2 -15 12 0 26 19 19 26 -2 2 -10 -2 -17
-11z"/>
<path d="M1327 1032 c-10 -10 -17 -26 -17 -36 0 -34 -31 -88 -81 -141 -29 -30
-50 -58 -47 -60 7 -7 118 113 118 126 0 6 6 7 13 3 6 -4 9 -4 6 0 -4 4 1 34
11 67 20 66 20 67 -3 41z"/>
<path d="M3453 1015 c0 -22 2 -30 4 -17 2 12 2 30 0 40 -3 9 -5 -1 -4 -23z"/>
<path d="M3700 1020 c-9 -6 -10 -10 -3 -10 6 0 15 5 18 10 8 12 4 12 -15 0z"/>
<path d="M3770 1011 c34 -27 15 -46 -45 -44 -25 1 -45 -3 -45 -8 0 -5 7 -9 15
-9 9 0 15 -10 15 -26 0 -14 4 -23 10 -19 6 3 10 14 10 25 0 13 7 17 25 16 14
0 25 -6 25 -13 0 -6 4 -14 9 -17 5 -3 9 19 10 49 0 30 -4 55 -9 55 -4 0 -17 3
-27 6 -13 4 -11 0 7 -15z"/>
<path d="M1441 994 c0 -11 3 -14 6 -6 3 7 2 16 -1 19 -3 4 -6 -2 -5 -13z"/>
<path d="M1271 973 c-10 -26 -10 -27 4 -9 8 11 15 23 15 28 0 15 -7 8 -19 -19z"/>
<path d="M986 965 c9 -14 21 -25 27 -25 6 0 0 11 -13 25 -13 14 -25 25 -27 25
-2 0 4 -11 13 -25z"/>
<path d="M3590 940 c0 -7 3 -10 7 -7 3 4 3 10 0 14 -4 3 -7 0 -7 -7z"/>
<path d="M1441 914 c0 -11 3 -14 6 -6 3 7 2 16 -1 19 -3 4 -6 -2 -5 -13z"/>
<path d="M3110 920 c0 -7 3 -10 7 -7 3 4 3 10 0 14 -4 3 -7 0 -7 -7z"/>
<path d="M3623 903 c4 -3 10 -3 14 0 3 4 0 7 -7 7 -7 0 -10 -3 -7 -7z"/>
<path d="M3737 886 c-4 -10 -1 -13 9 -9 15 6 19 23 5 23 -5 0 -11 -7 -14 -14z"/>
<path d="M3785 890 c-3 -5 -1 -10 4 -10 6 0 11 5 11 10 0 6 -2 10 -4 10 -3 0
-8 -4 -11 -10z"/>
<path d="M2370 885 c0 -5 5 -17 10 -25 5 -8 10 -10 10 -5 0 6 -5 17 -10 25 -5
8 -10 11 -10 5z"/>
<path d="M2102 855 c0 -16 2 -22 5 -12 2 9 2 23 0 30 -3 6 -5 -1 -5 -18z"/>
<path d="M3640 868 c0 -19 46 -38 59 -25 8 8 11 6 11 -6 0 -10 11 -19 28 -22
15 -4 35 -10 45 -16 15 -8 17 -4 17 26 0 19 -4 35 -10 35 -5 0 -10 -4 -10 -9
0 -5 -15 -7 -32 -5 -18 3 -43 5 -55 5 -13 1 -20 6 -16 12 3 6 1 7 -5 3 -7 -4
-12 -2 -12 3 0 6 -4 11 -10 11 -5 0 -10 -6 -10 -12z"/>
<path d="M3360 861 c0 -5 7 -12 16 -15 14 -5 15 -4 4 9 -14 17 -20 19 -20 6z"/>
<path d="M3400 833 c0 -13 29 -38 35 -31 3 3 -4 13 -15 23 -11 10 -20 13 -20
8z"/>
<path d="M2073 785 c0 -22 2 -30 4 -17 2 12 2 30 0 40 -3 9 -5 -1 -4 -23z"/>
<path d="M3444 802 c-10 -14 -13 -15 -28 -3 -9 8 -19 11 -22 9 -8 -9 47 -48
67 -48 27 0 34 20 13 41 -18 18 -20 18 -30 1z"/>
<path d="M2416 787 c3 -10 9 -15 12 -12 3 3 0 11 -7 18 -10 9 -11 8 -5 -6z"/>
<path d="M3765 773 c-11 -3 -29 -12 -40 -19 -18 -13 -18 -14 11 -14 37 0 48
-9 33 -26 -8 -9 -5 -11 10 -7 20 5 33 75 14 72 -5 -1 -17 -4 -28 -6z"/>
<path d="M2452 716 c12 -25 23 -44 25 -42 5 5 -26 74 -37 81 -6 4 0 -14 12
-39z"/>
<path d="M2120 718 c0 -5 18 -8 40 -8 22 0 40 4 40 10 0 5 -18 9 -40 7 -22 -1
-40 -5 -40 -9z"/>
<path d="M3776 685 c-3 -8 0 -15 7 -15 9 0 9 -2 0 -8 -7 -4 -14 -19 -16 -32
-3 -18 -12 -26 -33 -30 -29 -6 -29 -6 -2 -24 15 -10 26 -22 23 -26 -3 -4 2
-11 11 -14 8 -3 12 -10 9 -16 -3 -5 1 -10 9 -10 19 0 21 26 4 33 -10 4 -10 6
0 6 8 1 12 23 12 76 0 70 -10 95 -24 60z"/>
<path d="M3605 604 c-19 -15 -22 -21 -9 -15 18 9 52 41 43 41 -2 0 -17 -12
-34 -26z"/>
<path d="M3640 589 c0 -5 5 -7 10 -4 6 3 10 8 10 11 0 2 -4 4 -10 4 -5 0 -10
-5 -10 -11z"/>
<path d="M2063 570 c-6 -22 -18 -26 -29 -9 -7 12 -24 -6 -24 -26 0 -5 5 -3 10
5 8 13 11 13 19 1 12 -18 28 -7 33 24 6 30 -2 34 -9 5z"/>
<path d="M3452 573 c6 -7 14 -10 19 -7 15 9 10 20 -10 20 -15 0 -17 -3 -9 -13z"/>
<path d="M2321 518 c-1 -58 -1 -58 39 -58 41 0 41 0 25 30 -19 37 -28 39 -19
5 3 -14 2 -25 -4 -25 -11 0 -29 41 -35 80 -2 14 -5 -1 -6 -32z"/>
<path d="M3671 534 c-1 -14 -7 -21 -17 -20 -9 0 -18 -8 -20 -19 -1 -10 -13
-27 -26 -37 -23 -17 -22 -18 42 -19 36 0 82 -1 103 -2 20 -1 38 0 38 3 11 40
-2 78 -15 45 -5 -15 -27 -22 -25 -7 3 20 -2 32 -13 26 -8 -5 -9 0 -5 15 5 21
3 23 -23 19 -16 -3 -32 0 -34 6 -2 6 -5 1 -5 -10z m44 -24 c-3 -5 -14 -10 -23
-10 -15 0 -15 2 -2 10 20 13 33 13 25 0z m-35 -30 c12 -8 9 -10 -13 -10 -16 0
-26 4 -22 10 8 12 16 12 35 0z m66 -11 c3 -6 15 -9 25 -6 11 3 17 1 13 -4 -8
-14 -44 -11 -60 6 -14 13 -14 15 0 15 8 0 18 -5 22 -11z m-59 -16 c-4 -3 -10
-3 -14 0 -3 4 0 7 7 7 7 0 10 -3 7 -7z m30 0 c-4 -3 -10 -3 -14 0 -3 4 0 7 7
7 7 0 10 -3 7 -7z"/>
<path d="M1454 493 c0 -29 4 -53 9 -53 9 0 8 59 -3 85 -5 14 -7 3 -6 -32z"/>
<path d="M3547 529 c7 -7 15 -10 18 -7 3 3 -2 9 -12 12 -14 6 -15 5 -6 -5z"/>
<path d="M3603 513 c4 -3 10 -3 14 0 3 4 0 7 -7 7 -7 0 -10 -3 -7 -7z"/>
<path d="M3390 412 c0 -5 21 -10 47 -11 26 -1 45 0 42 2 -10 9 -89 17 -89 9z"/>
<path d="M3668 403 c7 -3 16 -2 19 1 4 3 -2 6 -13 5 -11 0 -14 -3 -6 -6z"/>
<path d="M3713 403 c4 -3 10 -3 14 0 3 4 0 7 -7 7 -7 0 -10 -3 -7 -7z"/>
<path d="M76 385 c-5 -15 6 -29 43 -55 24 -16 28 -35 7 -27 -9 4 -17 -1 -21
-12 -12 -38 46 -291 67 -291 10 0 0 50 -14 67 -6 7 -11 36 -11 65 -1 29 -5 55
-9 59 -4 3 -10 27 -13 55 -5 49 -5 49 8 4 18 -59 43 -98 70 -106 12 -3 36 -17
54 -30 45 -34 55 -30 13 6 -19 16 -40 30 -46 30 -31 0 -98 130 -75 145 5 2 75
-60 155 -140 81 -80 151 -145 155 -145 13 0 21 27 21 67 0 42 -9 38 -20 -9 -7
-30 -8 -29 -9 18 -1 51 -1 51 32 51 17 1 26 -1 20 -4 -9 -3 -12 -26 -11 -71 0
-37 3 -52 5 -35 4 32 5 32 29 17 24 -16 24 -16 25 17 1 34 1 34 9 4 7 -30 7
-30 12 5 4 31 5 29 7 -15 2 -41 4 -46 11 -27 5 12 7 30 3 40 -3 9 -3 14 2 10
4 -4 14 -3 22 3 10 9 13 8 13 -1 0 -8 8 -10 24 -6 23 6 25 3 29 -31 4 -38 4
-37 6 7 2 35 4 41 11 25 8 -18 9 -17 9 8 1 18 -3 26 -10 22 -11 -8 -9 26 3 35
4 3 3 12 -2 20 -7 12 -11 12 -25 0 -14 -12 -18 -12 -25 0 -13 22 -3 29 37 26
31 -1 63 -26 35 -26 -6 0 -8 -9 -5 -20 3 -12 14 -20 27 -20 16 0 22 -7 24 -27
3 -40 12 -41 12 0 0 35 0 36 40 34 40 -2 40 -2 42 -67 2 -65 2 -65 8 5 4 39 7
66 8 60 1 -5 7 -3 12 5 7 11 10 7 10 -17 0 -18 5 -33 11 -33 5 0 9 8 8 18 -1
9 1 25 5 34 4 9 5 21 2 26 -6 10 -106 9 -123 -1 -8 -5 -13 -4 -13 2 0 6 -1 14
-2 18 -2 4 34 8 80 9 83 2 83 2 77 -30 -3 -17 -1 -56 4 -86 9 -55 9 -55 8 12
-1 36 1 64 5 62 4 -3 6 8 5 22 -2 24 1 27 33 28 34 1 34 1 35 -81 1 -45 4 -85
8 -89 7 -7 11 51 7 90 -1 11 3 17 12 14 7 -3 14 -19 16 -36 5 -48 17 -38 16
13 -1 70 20 49 26 -26 5 -64 5 -64 13 -12 5 28 5 62 2 75 -7 22 -7 22 12 5 11
-9 29 -17 41 -17 20 0 22 -5 24 -67 1 -68 1 -68 9 -3 12 90 11 90 21 84 4 -3
8 -20 8 -39 0 -19 4 -36 8 -39 4 -2 6 11 4 30 -3 26 -1 34 12 34 12 0 16 -10
16 -37 0 -20 3 -34 6 -30 3 3 6 21 6 41 0 55 23 34 35 -32 11 -57 11 -57 11
-2 0 76 1 80 10 80 5 0 13 -17 19 -38 10 -37 10 -37 8 6 -1 23 1 42 5 42 5 0
6 9 3 20 -5 17 0 20 32 20 35 0 49 -25 14 -25 -25 -1 -41 -16 -30 -29 7 -8 8
-39 4 -79 -6 -63 -5 -66 16 -64 16 1 21 8 21 32 0 55 54 174 79 176 9 1 23 2
31 3 8 1 21 -3 28 -8 8 -5 12 -4 12 5 0 11 2 11 10 -1 15 -23 12 -27 -21 -34
-31 -6 -94 -45 -86 -52 3 -3 21 5 41 17 48 28 58 18 11 -11 -20 -12 -34 -24
-31 -27 5 -5 52 22 82 50 14 12 24 15 29 8 3 -6 11 -11 17 -11 6 0 5 7 -4 18
-9 9 -19 27 -22 40 -9 27 -28 38 -87 47 -41 6 -46 5 -56 -17 -11 -24 -11 -24
-327 -27 -215 -2 -316 1 -316 8 0 13 38 33 145 78 49 21 66 32 45 28 -59 -11
-197 -82 -203 -105 -5 -21 -27 -28 -27 -9 0 8 -5 7 -15 -1 -32 -27 -40 6 -9
34 35 30 174 101 192 97 6 -1 20 3 30 9 23 14 -31 8 -70 -8 -15 -6 -35 -9 -43
-6 -8 4 -15 1 -15 -5 0 -6 -17 -19 -38 -30 -21 -11 -44 -27 -51 -35 -7 -9 -18
-13 -24 -9 -6 4 -7 1 -2 -7 5 -8 3 -11 -6 -8 -8 3 -24 -6 -36 -19 -27 -29 -36
-29 -28 -2 6 18 5 19 -13 10 -14 -7 -23 -8 -27 -1 -3 5 -3 10 2 10 17 0 33 53
21 68 -10 11 -9 17 5 27 9 6 14 14 11 17 -9 10 118 19 256 19 149 -1 180 1
180 9 0 7 -810 4 -933 -4 -61 -4 -96 -3 -93 3 4 5 2 12 -3 15 -5 3 -11 -1 -15
-9z m108 -40 c-4 -8 -14 -15 -23 -15 -14 1 -13 3 3 15 25 19 27 19 20 0z m236
-1 c26 -10 40 -23 40 -34 0 -21 34 -32 50 -16 7 7 13 7 18 1 12 -17 48 -17 62
0 12 14 10 16 -12 10 -15 -4 -29 -2 -32 4 -5 7 9 11 40 11 42 0 45 -2 33 -17
-13 -15 -12 -15 9 -4 14 7 22 8 22 1 0 -19 -5 -25 -19 -22 -7 2 -10 -1 -6 -7
4 -7 -14 -11 -52 -12 -69 -2 -64 -2 -83 3 -8 1 -17 -2 -20 -7 -3 -6 17 -12 45
-15 49 -5 49 -6 18 -14 -18 -4 -33 -11 -33 -14 0 -4 -52 -8 -115 -9 -115 -3
-116 -2 -125 23 -6 14 -14 22 -20 19 -6 -3 -10 4 -10 18 0 16 -7 26 -20 30
-11 3 -20 14 -20 25 0 16 7 20 47 20 25 1 51 6 57 12 15 15 80 12 126 -6z
m237 4 c-5 -18 -189 -18 -195 0 -3 9 21 12 98 12 77 0 101 -3 97 -12z m-146
-39 c-16 -6 -28 -6 -35 1 -7 7 1 10 25 9 32 0 33 -1 10 -10z m116 -76 c-4 -3
-10 -3 -14 0 -3 4 0 7 7 7 7 0 10 -3 7 -7z m920 0 c-4 -3 -10 -3 -14 0 -3 4 0
7 7 7 7 0 10 -3 7 -7z m-810 -20 c-4 -3 -10 -3 -14 0 -3 4 0 7 7 7 7 0 10 -3
7 -7z m343 -30 c0 -17 -18 -54 -21 -43 -9 50 -8 60 6 60 8 0 15 -8 15 -17z
m40 -9 c0 -8 -4 -12 -10 -9 -5 3 -10 13 -10 21 0 8 5 12 10 9 6 -3 10 -13 10
-21z m43 12 c6 -16 -2 -28 -14 -20 -12 7 -11 34 0 34 5 0 11 -6 14 -14z m92 4
c3 -5 0 -12 -6 -16 -6 -3 -15 -1 -19 5 -5 9 -10 8 -20 -3 -14 -17 -30 -12 -30
9 0 14 66 19 75 5z m43 -7 c-5 -25 -28 -28 -28 -4 0 12 6 21 16 21 9 0 14 -7
12 -17z m80 0 c-3 -12 -12 -17 -28 -15 -13 1 -27 -3 -32 -10 -5 -9 -8 -3 -8
15 0 24 3 27 36 27 28 0 35 -3 32 -17z m-980 -12 c4 -11 -2 -12 -23 -7 -20 5
-26 3 -23 -6 3 -7 23 -14 46 -16 42 -3 42 -3 41 -50 0 -34 -3 -42 -8 -27 -5
11 -7 23 -5 27 8 13 -18 20 -27 7 -7 -11 -10 -9 -15 9 -4 12 -13 22 -20 22 -8
0 -19 9 -26 20 -7 11 -18 20 -25 20 -7 0 -13 3 -13 8 0 14 93 8 98 -7z m186 4
c-5 -12 -174 -17 -174 -6 0 14 9 16 93 16 55 0 83 -3 81 -10z m46 0 c0 -8 -4
-15 -9 -15 -13 0 -22 16 -14 24 11 11 23 6 23 -9z m137 -15 c-1 -11 -4 -20 -8
-20 -4 0 -9 9 -12 20 -3 13 0 20 8 20 8 0 13 -9 12 -20z m428 -18 c-3 -3 -11
0 -18 7 -9 10 -8 11 6 5 10 -3 15 -9 12 -12z m-622 -23 c5 -3 2 -9 -7 -12 -12
-5 -16 0 -16 15 0 12 3 17 8 12 4 -5 11 -12 15 -15z m54 4 c-4 -3 -7 0 -7 7 0
7 3 10 7 7 3 -4 3 -10 0 -14z m-17 -7 c0 -3 -4 -8 -10 -11 -5 -3 -10 -1 -10 4
0 6 5 11 10 11 6 0 10 -2 10 -4z m57 -13 c-4 -3 -7 0 -7 7 0 7 3 10 7 7 3 -4
3 -10 0 -14z m-130 -45 c-3 -8 -6 -5 -6 6 -1 11 2 17 5 13 3 -3 4 -12 1 -19z"/>
<path d="M118 393 c6 -2 18 -2 25 0 6 3 1 5 -13 5 -14 0 -19 -2 -12 -5z"/>
<path d="M1151 369 c-18 -11 -31 -23 -28 -26 4 -3 13 2 22 11 9 9 26 16 38 16
12 0 29 5 37 10 31 20 -35 10 -69 -11z"/>
<path d="M1270 384 c35 -7 148 -9 144 -2 -3 4 -40 7 -82 7 -42 -1 -70 -3 -62
-5z"/>
<path d="M1736 232 c5 -5 46 -24 92 -42 45 -18 85 -36 88 -41 3 -5 10 -9 16
-9 23 0 -40 39 -112 69 -75 31 -103 39 -84 23z"/>
<path d="M3108 233 c12 -2 32 -2 45 0 12 2 2 4 -23 4 -25 0 -35 -2 -22 -4z"/>
<path d="M1823 223 c4 -3 10 -3 14 0 3 4 0 7 -7 7 -7 0 -10 -3 -7 -7z"/>
<path d="M2525 221 c-16 -6 -13 -9 17 -14 20 -3 49 -15 65 -26 16 -12 50 -23
78 -26 50 -5 50 -5 -6 8 -31 8 -72 26 -91 40 -19 15 -37 27 -39 26 -2 0 -13
-4 -24 -8z"/>
<path d="M3582 225 c4 -4 29 -11 55 -16 27 -4 60 -10 76 -14 16 -4 27 -3 27 3
0 5 -28 13 -62 17 -35 3 -72 9 -83 12 -11 3 -17 2 -13 -2z"/>
<path d="M2221 216 c12 -10 60 -16 54 -6 -3 5 -18 10 -32 10 -15 0 -24 -2 -22
-4z"/>
<path d="M2291 216 c2 -2 27 -6 54 -9 34 -4 42 -3 25 3 -25 8 -87 13 -79 6z"/>
<path d="M2613 213 c9 -2 23 -2 30 0 6 3 -1 5 -18 5 -16 0 -22 -2 -12 -5z"/>
<path d="M3211 211 c8 -6 40 -12 70 -15 62 -7 31 7 -41 17 -30 5 -40 4 -29 -2z"/>
<path d="M2730 202 c0 -13 97 -42 137 -41 15 0 -3 7 -42 16 -38 8 -76 19 -82
25 -9 7 -13 7 -13 0z"/>
<path d="M2960 200 c-11 -7 26 -12 155 -24 50 -5 50 -5 5 4 -102 21 -150 26
-160 20z"/>
<path d="M3344 193 c7 -8 213 -62 234 -63 19 0 14 16 -5 18 -10 1 -54 11 -98
22 -94 24 -140 32 -131 23z"/>
<path d="M991 100 c2 -85 2 -85 11 -12 7 53 7 77 -1 85 -8 8 -11 -12 -10 -73z"/>
<path d="M2940 170 c0 -5 5 -10 10 -10 6 0 10 5 10 10 0 6 -4 10 -10 10 -5 0
-10 -4 -10 -10z"/>
<path d="M2741 156 c2 -2 22 -6 44 -9 28 -5 34 -4 20 3 -19 8 -73 14 -64 6z"/>
<path d="M170 130 c0 -5 5 -10 11 -10 5 0 7 5 4 10 -3 6 -8 10 -11 10 -2 0 -4
-4 -4 -10z"/>
<path d="M1610 126 c0 -8 -6 -16 -12 -18 -8 -3 4 -19 27 -39 21 -19 48 -42 58
-52 10 -10 24 -16 30 -13 9 3 9 5 0 5 -7 1 -13 9 -13 19 0 10 3 13 8 7 4 -6
22 -11 41 -10 18 0 36 -6 38 -13 3 -6 10 -12 16 -12 6 0 0 12 -14 26 -14 15
-31 23 -41 21 -11 -3 -18 0 -18 9 0 7 -9 18 -20 24 -11 6 -18 15 -15 19 2 5
-3 15 -13 22 -15 13 -16 12 -3 -3 18 -24 2 -22 -29 2 -30 23 -40 25 -40 6z
m34 -38 c16 -33 16 -33 -4 -9 -11 13 -20 27 -20 32 0 17 9 9 24 -23z m56 -26
c0 -5 -7 -9 -15 -9 -8 0 -12 4 -9 9 7 10 24 10 24 0z"/>
<path d="M1700 131 c0 -6 5 -11 11 -11 5 0 7 -4 4 -10 -3 -5 3 -10 14 -10 30
0 52 -11 44 -23 -4 -6 0 -8 8 -5 8 3 54 -4 102 -17 48 -12 87 -19 87 -15 0 4
-36 16 -80 28 -67 18 -148 49 -182 69 -5 2 -8 -1 -8 -6z"/>
<path d="M1160 110 c0 -5 5 -10 10 -10 6 0 10 5 10 10 0 6 -4 10 -10 10 -5 0
-10 -4 -10 -10z"/>
<path d="M720 58 c0 -28 2 -49 4 -47 8 9 13 99 5 99 -5 0 -9 -23 -9 -52z"/>
<path d="M812 85 c0 -16 2 -22 5 -12 2 9 2 23 0 30 -3 6 -5 -1 -5 -18z"/>
<path d="M2743 103 c4 -3 10 -3 14 0 3 4 0 7 -7 7 -7 0 -10 -3 -7 -7z"/>
<path d="M2770 106 c0 -9 40 -13 46 -5 3 5 -6 9 -20 9 -14 0 -26 -2 -26 -4z"/>
<path d="M2878 103 c7 -3 16 -2 19 1 4 3 -2 6 -13 5 -11 0 -14 -3 -6 -6z"/>
<path d="M318 83 c7 -3 16 -2 19 1 4 3 -2 6 -13 5 -11 0 -14 -3 -6 -6z"/>
<path d="M2943 83 c4 -3 10 -3 14 0 3 4 0 7 -7 7 -7 0 -10 -3 -7 -7z"/>
<path d="M3730 81 c0 -5 9 -7 20 -4 11 3 20 7 20 9 0 2 -9 4 -20 4 -11 0 -20
-4 -20 -9z"/>
<path d="M1170 70 c0 -7 3 -10 7 -7 3 4 3 10 0 14 -4 3 -7 0 -7 -7z"/>
<path d="M1506 36 c21 -19 42 -32 47 -29 9 5 -60 63 -75 63 -6 0 7 -15 28 -34z"/>
<path d="M3613 63 c4 -3 10 -3 14 0 3 4 0 7 -7 7 -7 0 -10 -3 -7 -7z"/>
<path d="M286 38 c-3 -13 -2 -26 3 -31 5 -5 11 5 13 22 5 36 -7 42 -16 9z"/>
<path d="M625 41 c-3 -5 -1 -12 5 -16 5 -3 10 1 10 9 0 18 -6 21 -15 7z"/>
<path d="M771 34 c0 -11 3 -14 6 -6 3 7 2 16 -1 19 -3 4 -6 -2 -5 -13z"/>
<path d="M2873 33 c4 -3 10 -3 14 0 3 4 0 7 -7 7 -7 0 -10 -3 -7 -7z"/>
<path d="M1570 20 c0 -8 50 -24 56 -18 2 2 -10 9 -26 15 -17 6 -30 8 -30 3z"/>
<path d="M1983 13 c4 -3 10 -3 14 0 3 4 0 7 -7 7 -7 0 -10 -3 -7 -7z"/>
<path d="M2025 10 c28 -12 37 -12 30 0 -3 6 -16 10 -28 9 -21 0 -21 -1 -2 -9z"/>
<path d="M3583 3 c4 -3 10 -3 14 0 3 4 0 7 -7 7 -7 0 -10 -3 -7 -7z"/>
</g>
</svg>
