<?xml version="1.0" standalone="no"?>
<!DOCTYPE svg PUBLIC "-//W3C//DTD SVG 20010904//EN"
 "http://www.w3.org/TR/2001/REC-SVG-20010904/DTD/svg10.dtd">
<svg version="1.0" xmlns="http://www.w3.org/2000/svg"
 width="384.000000pt" height="256.000000pt" viewBox="0 0 384.000000 256.000000"
 preserveAspectRatio="xMidYMid meet">
<metadata>
Created by potrace 1.16, written by Peter Selinger 2001-2019
</metadata>
<g transform="translate(0.000000,256.000000) scale(0.100000,-0.100000)"
fill="#000000" stroke="none">
<path d="M1885 2050 c24 -10 133 -120 119 -120 -5 0 -15 5 -22 12 -6 6 -14 9
-18 5 -3 -3 14 -16 39 -27 55 -26 77 -48 58 -59 -9 -6 -8 -11 4 -21 13 -11 15
-9 15 16 0 32 -168 205 -198 203 -14 0 -13 -2 3 -9z"/>
<path d="M1935 2040 c3 -5 8 -10 11 -10 3 0 2 5 -1 10 -3 6 -8 10 -11 10 -3 0
-2 -4 1 -10z"/>
<path d="M1970 2009 c6 -11 19 -23 28 -26 9 -4 22 -14 29 -22 7 -9 13 -12 13
-7 0 9 -68 76 -77 76 -2 0 1 -9 7 -21z"/>
<path d="M1638 1783 c7 -3 16 -2 19 1 4 3 -2 6 -13 5 -11 0 -14 -3 -6 -6z"/>
<path d="M1476 1735 c-9 -9 -16 -21 -16 -28 0 -6 6 -2 14 8 13 17 14 16 20
-21 4 -22 12 -46 17 -54 8 -11 9 -7 3 15 -4 17 -8 43 -10 58 -3 37 -8 41 -28
22z"/>
<path d="M658 1724 c17 -9 32 -20 32 -24 0 -4 8 -11 17 -15 11 -4 7 5 -11 24
-17 17 -39 31 -50 31 -16 0 -14 -4 12 -16z"/>
<path d="M1363 1693 c4 -3 10 -3 14 0 3 4 0 7 -7 7 -7 0 -10 -3 -7 -7z"/>
<path d="M1772 1683 c-16 -27 -111 -47 -133 -27 -22 20 -34 13 -69 -42 -28
-45 -28 -45 -49 -17 -15 20 -19 22 -14 8 17 -51 53 -75 53 -35 0 8 13 31 28
49 25 30 30 33 50 22 33 -17 128 6 148 36 8 13 10 23 5 23 -6 0 -14 -8 -19
-17z"/>
<path d="M1370 1670 c0 -6 -21 -33 -46 -60 -50 -54 -52 -67 -4 -23 34 30 74
93 60 93 -6 0 -10 -5 -10 -10z"/>
<path d="M1450 1670 c0 -7 3 -10 7 -7 3 4 3 10 0 14 -4 3 -7 0 -7 -7z"/>
<path d="M723 1663 c4 -3 10 -3 14 0 3 4 0 7 -7 7 -7 0 -10 -3 -7 -7z"/>
<path d="M2313 1639 c20 -17 37 -37 37 -44 0 -7 12 -28 27 -45 29 -35 30 -34
-42 -72 -22 -11 -44 -28 -50 -37 -12 -20 -24 -82 -14 -76 3 3 10 21 13 40 6
30 15 39 59 61 29 15 54 30 57 34 3 4 29 9 58 12 58 6 59 -1 4 -19 -37 -12
-37 -12 -2 -6 19 3 40 9 46 14 18 14 116 -20 150 -52 17 -16 33 -27 37 -24 4
3 5 2 2 -1 -2 -4 3 -19 12 -34 23 -40 10 -77 -45 -127 -48 -44 -82 -55 -82
-26 0 15 -2 14 -20 -2 -10 -9 -18 -22 -17 -29 1 -6 -5 -10 -14 -8 -9 1 -21 -9
-28 -24 -14 -32 -11 -37 20 -26 31 12 137 13 144 2 3 -5 28 -16 55 -25 27 -9
54 -24 59 -32 7 -13 17 -14 52 -8 24 4 63 8 86 9 42 0 42 1 27 23 -23 36 8 30
40 -7 26 -32 52 -103 38 -108 -9 -3 -7 -100 2 -130 5 -16 3 -22 -8 -22 -13 0
-16 -32 -6 -60 1 -3 1 -13 0 -23 -1 -10 4 -25 12 -34 11 -14 9 -15 -22 -9 -26
5 -31 4 -20 -3 8 -6 23 -11 33 -11 15 0 16 -3 7 -20 -9 -18 -7 -20 17 -21 17
-1 21 -3 10 -6 -9 -2 -15 -9 -11 -14 3 -5 11 -6 17 -3 7 4 9 4 5 -1 -4 -4 1
-20 11 -34 25 -35 77 -257 98 -420 5 -39 4 -44 -11 -38 -10 4 -30 10 -44 13
-26 6 -26 6 -7 -9 11 -9 26 -17 33 -17 7 0 10 -5 7 -10 -3 -6 -18 -7 -33 -4
-21 4 -24 3 -12 -5 24 -17 51 -13 75 13 13 14 21 27 19 29 -3 3 -16 62 -29
133 -26 140 -69 317 -82 337 -19 29 -31 78 -17 66 8 -6 14 -19 14 -28 0 -9 21
-43 45 -75 44 -58 49 -73 47 -148 0 -28 5 -42 21 -53 32 -23 43 -18 19 8 -30
32 -28 44 7 39 16 -2 37 0 47 6 13 7 9 9 -21 8 -34 -1 -40 3 -49 26 -11 31 -2
48 16 30 14 -14 62 -16 54 -3 -8 12 36 19 60 10 16 -6 15 -8 -8 -8 -15 -1 -29
-5 -32 -9 -8 -13 57 0 71 14 19 18 16 22 -11 17 -13 -3 -27 0 -30 6 -5 7 6 11
30 11 35 0 36 -1 32 -30 -3 -21 0 -30 9 -30 8 0 13 8 11 17 -3 17 12 18 190
19 106 0 196 4 200 9 4 4 -3 4 -15 1 -14 -5 -23 -3 -23 3 0 16 26 14 60 -4 33
-17 40 -10 13 11 -15 11 -15 14 -3 15 8 0 -1 5 -20 9 -20 5 -67 4 -110 -2 -41
-5 -94 -7 -117 -4 -34 4 -43 2 -43 -9 0 -10 -10 -15 -30 -15 -21 0 -30 5 -30
16 0 14 -14 15 -117 10 -65 -3 -127 -7 -138 -8 -22 -3 -22 -2 -9 109 6 57 9
62 28 57 36 -9 106 -10 119 -2 7 4 -16 8 -50 8 -76 0 -93 6 -93 34 0 32 14 48
36 40 15 -6 17 -4 7 6 -6 7 -9 18 -7 25 3 7 1 16 -5 20 -6 3 -11 16 -10 28 0
22 0 22 11 0 16 -33 23 -29 49 32 13 30 31 55 39 56 10 0 11 2 3 6 -46 18 45
37 115 24 60 -12 107 -63 96 -106 -14 -58 -13 -118 3 -134 14 -14 13 -16 -12
-27 -37 -15 -20 -24 30 -15 68 12 145 2 138 -17 -5 -16 -5 -16 12 0 24 23 11
38 -34 38 -66 0 -70 24 -9 53 37 18 55 22 60 14 4 -6 9 -9 13 -6 3 3 -4 17
-15 32 -11 14 -20 29 -20 34 0 10 74 73 84 73 15 0 4 -77 -14 -100 -11 -14
-20 -36 -20 -50 0 -20 -2 -22 -10 -10 -6 9 -10 10 -10 3 0 -6 7 -18 15 -27 10
-10 13 -24 9 -41 -6 -24 -4 -25 32 -25 39 0 39 0 38 98 0 53 -4 106 -8 117 -4
11 -15 38 -23 60 -17 45 -39 73 -68 86 -16 7 -13 9 13 6 35 -4 36 -1 6 71 -7
18 -16 56 -20 83 -8 62 -67 140 -128 170 -22 12 -52 32 -66 45 -18 16 -42 25
-75 29 -50 4 -50 4 -5 -5 54 -11 94 -52 110 -111 6 -22 14 -39 17 -36 3 4 0
20 -6 38 -6 18 -10 33 -9 34 11 9 50 -20 64 -46 9 -18 23 -39 30 -47 16 -16
19 -36 4 -27 -6 4 -11 -16 -12 -52 -1 -42 -2 -48 -5 -21 -3 30 -15 47 -57 85
-30 27 -57 58 -60 70 -6 18 -15 23 -39 23 -18 -1 -62 2 -98 6 -66 6 -67 6
-109 -32 -40 -36 -43 -37 -53 -19 -6 11 -22 29 -35 40 -14 11 -35 30 -47 43
-12 12 -33 22 -45 22 -20 0 -16 -5 22 -30 74 -49 82 -62 65 -103 -8 -19 -20
-38 -26 -41 -6 -4 -11 -11 -11 -17 0 -5 9 -4 20 3 22 14 35 6 26 -17 -11 -30
-35 -27 -71 10 -21 20 -39 34 -42 31 -3 -3 5 -15 18 -26 24 -20 24 -20 -11
-15 -19 4 -40 11 -47 17 -7 6 -13 7 -13 2 0 -4 -5 -3 -12 4 -21 21 -62 13
-106 -19 -41 -30 -72 -33 -72 -6 0 7 27 32 60 55 56 40 76 45 48 12 -7 -8 -3
-6 10 4 12 11 22 25 22 32 0 27 47 47 81 35 42 -15 47 -14 23 4 -36 27 -72 18
-141 -37 -130 -104 -140 -117 -97 -136 14 -7 22 -17 19 -22 -3 -6 1 -13 10
-17 13 -4 8 -10 -22 -24 -42 -20 -73 -24 -73 -10 0 5 -24 17 -52 26 -71 22
-115 70 -91 97 9 10 21 17 27 15 19 -7 64 25 82 58 15 29 15 33 -1 66 -21 42
-54 79 -71 79 -6 0 -18 8 -25 17 -13 15 -11 16 11 10 14 -4 45 -9 70 -12 45
-5 45 -5 -5 10 -27 8 -70 17 -94 20 -56 6 -96 27 -95 48 1 9 -3 14 -8 11 -5
-3 -7 -13 -4 -21 6 -13 3 -13 -18 1 -29 18 -40 21 -31 6 4 -6 -10 -10 -34 -10
-40 0 -91 42 -91 75 0 15 -56 65 -73 65 -6 0 5 -14 26 -31z m426 -264 c18 -38
19 -48 8 -59 -11 -11 -13 -6 -14 27 -1 22 -7 45 -13 51 -10 10 -14 26 -6 26 2
0 13 -20 25 -45z m736 -31 c49 -7 71 -39 46 -66 -9 -9 -33 -45 -54 -80 -38
-62 -38 -62 -8 -33 16 17 37 36 46 43 9 8 18 27 22 43 7 37 27 37 64 0 20 -21
29 -39 29 -63 0 -25 3 -30 10 -18 8 11 9 9 5 -10 -3 -14 -6 -35 -8 -47 -2 -11
-9 -28 -16 -37 -12 -14 -12 -16 3 -10 32 12 15 -6 -24 -26 -21 -11 -44 -29
-50 -41 -11 -20 -12 -20 -31 -3 -20 18 -32 20 -127 23 -32 1 -54 6 -56 14 -3
6 -7 24 -10 38 -3 15 -26 54 -51 87 -51 68 -50 86 10 146 61 61 57 60 200 40z
m190 -24 c10 -11 13 -20 7 -20 -6 0 -16 9 -22 20 -6 11 -9 20 -7 20 2 0 12 -9
22 -20z m-940 -40 c-3 -5 -11 -10 -16 -10 -6 0 -7 5 -4 10 3 6 11 10 16 10 6
0 7 -4 4 -10z m1004 -111 c10 -35 20 -71 22 -79 3 -11 -6 -16 -29 -18 -34 -3
-34 -3 12 -39 69 -54 59 -91 -40 -142 -60 -31 -113 -118 -83 -137 8 -4 7 -9
-2 -15 -25 -15 -37 -10 -48 22 -13 39 -14 62 -2 55 5 -3 11 1 15 9 3 8 11 15
18 15 9 0 8 -3 -2 -10 -13 -8 -12 -10 3 -10 13 0 17 6 15 23 -2 12 -9 21 -16
19 -24 -5 -3 15 33 32 20 10 33 21 30 26 -8 12 13 61 33 76 12 9 13 13 4 14
-16 0 -36 -19 -45 -44 -4 -10 -11 -16 -14 -12 -4 4 -13 -4 -21 -16 -13 -23
-13 -23 -8 1 4 18 2 21 -7 12 -15 -15 -47 -14 -53 3 -9 23 13 53 58 78 34 18
44 31 50 58 39 192 43 197 77 79z m-704 39 c8 -18 14 -27 15 -19 0 9 8 11 26
7 14 -4 23 -3 20 2 -6 10 43 3 59 -8 6 -4 25 -10 44 -14 29 -5 32 -4 21 9 -7
8 -9 15 -4 15 12 0 64 -66 64 -81 0 -6 7 -17 15 -23 9 -6 16 -20 16 -31 -1
-56 -4 -76 -15 -72 -14 5 -21 67 -7 67 6 0 11 8 11 17 0 28 -21 0 -30 -41 -6
-29 -5 -39 6 -43 8 -3 11 -10 7 -16 -4 -6 0 -8 9 -4 12 4 14 1 11 -13 -5 -19
-6 -18 -24 3 -16 19 -18 20 -19 4 0 -10 -4 -16 -9 -12 -5 3 -12 -3 -14 -12 -3
-10 -5 -3 -6 15 0 18 3 31 8 28 20 -13 28 73 9 107 -7 12 -13 28 -14 35 -3 18
-14 28 -14 13 0 -7 -9 -3 -22 9 -24 22 -38 26 -38 10 0 -5 6 -10 13 -10 14 0
67 -76 67 -96 0 -25 -20 -25 -29 -1 -17 44 -31 39 -16 -4 15 -42 18 -119 11
-299 -4 -120 -4 -118 -27 -125 -19 -7 -20 -8 -3 -26 9 -11 14 -22 10 -26 -4
-5 -21 8 -37 27 -34 40 -33 52 5 153 38 99 36 161 -9 246 -47 88 -121 172
-134 151 -5 -8 -7 -19 -4 -24 4 -5 -7 -1 -23 11 -16 11 -38 22 -49 24 -30 6
-24 30 14 56 47 32 69 29 86 -9z m-424 -8 c9 0 22 -6 28 -14 9 -11 6 -12 -13
-9 -14 3 -33 15 -43 27 -9 11 -11 15 -3 9 8 -7 22 -13 31 -13z m523 -209 c33
-63 40 -109 26 -161 -16 -58 -31 -40 -36 46 -4 47 -11 75 -23 89 -10 11 -27
49 -39 85 -22 65 -22 65 13 27 20 -21 46 -60 59 -86z m-41 -77 c3 -19 2 -45
-2 -57 -8 -19 -10 -17 -21 23 -6 25 -16 50 -21 57 -7 7 -6 14 1 18 6 3 7 12 3
18 -3 7 3 4 14 -6 11 -10 23 -34 26 -53z m194 0 c-3 -3 -12 -4 -19 -1 -8 3 -5
6 6 6 11 1 17 -2 13 -5z m293 -58 c0 -2 -7 -9 -15 -16 -13 -11 -14 -10 -9 4 5
14 24 23 24 12z m130 -20 c0 -13 -49 -41 -57 -32 -2 2 6 16 18 30 22 25 39 26
39 2z m-603 -13 c-4 -3 -7 0 -7 7 0 7 3 10 7 7 3 -4 3 -10 0 -14z m721 -27 c4
-35 -5 -76 -18 -76 -19 0 -29 77 -13 103 10 16 28 0 31 -27z m-775 17 c12 -21
16 -63 7 -63 -5 0 -10 10 -10 23 0 13 -5 28 -12 35 -9 9 -9 12 -1 12 7 0 14
-3 16 -7z m91 -48 c-4 -9 -16 -21 -28 -27 -19 -10 -19 -9 3 16 28 30 33 32 25
11z m-67 -42 c-4 -3 -7 0 -7 7 0 7 3 10 7 7 3 -4 3 -10 0 -14z m40 -20 c-4 -3
-7 0 -7 7 0 7 3 10 7 7 3 -4 3 -10 0 -14z m690 0 c-4 -3 -10 -3 -14 0 -3 4 0
7 7 7 7 0 10 -3 7 -7z m-60 -160 c-4 -3 -7 0 -7 7 0 7 3 10 7 7 3 -4 3 -10 0
-14z m-457 -1 c0 -16 -42 -34 -54 -22 -8 8 -7 13 4 20 18 12 50 13 50 2z m317
1 c-4 -3 -10 -3 -14 0 -3 4 0 7 7 7 7 0 10 -3 7 -7z"/>
<path d="M3503 1135 c0 -33 2 -45 4 -27 2 18 2 45 0 60 -2 15 -4 0 -4 -33z"/>
<path d="M3462 1120 c-18 -29 -15 -38 4 -12 9 13 14 25 12 27 -2 2 -9 -5 -16
-15z"/>
<path d="M1169 1632 c13 -18 34 -40 48 -50 54 -37 82 -72 93 -114 13 -48 39
-102 46 -95 2 2 -2 19 -9 38 -8 19 -21 55 -31 80 -12 33 -29 55 -61 78 -25 18
-59 47 -77 64 -31 32 -31 32 -9 -1z"/>
<path d="M1441 1634 c0 -11 3 -14 6 -6 3 7 2 16 -1 19 -3 4 -6 -2 -5 -13z"/>
<path d="M2251 1647 c2 -1 12 -9 22 -16 15 -12 17 -12 11 3 -3 9 -13 16 -22
16 -8 0 -13 -1 -11 -3z"/>
<path d="M1945 1630 c3 -5 11 -10 16 -10 6 0 7 5 4 10 -3 6 -11 10 -16 10 -6
0 -7 -4 -4 -10z"/>
<path d="M1049 1604 c19 -8 36 -12 39 -9 5 5 -43 25 -61 25 -7 -1 3 -7 22 -16z"/>
<path d="M696 1587 c3 -10 9 -15 12 -12 3 3 0 11 -7 18 -10 9 -11 8 -5 -6z"/>
<path d="M1395 1585 c4 -11 22 -63 41 -115 38 -110 46 -98 10 16 -14 43 -22
82 -19 88 3 6 3 8 -2 4 -4 -4 -14 0 -22 10 -14 16 -14 16 -8 -3z"/>
<path d="M2068 1563 c7 -3 16 -2 19 1 4 3 -2 6 -13 5 -11 0 -14 -3 -6 -6z"/>
<path d="M710 1556 c0 -15 31 -53 62 -76 29 -21 28 -18 -11 26 -25 27 -46 51
-48 53 -2 2 -3 1 -3 -3z"/>
<path d="M894 1511 c-21 -15 -48 -39 -59 -52 -13 -15 -4 -11 25 12 73 58 79
60 122 38 20 -10 43 -19 50 -18 13 0 -79 49 -92 49 -4 0 -25 -13 -46 -29z"/>
<path d="M3490 1505 c-23 -24 -23 -24 15 -5 21 11 42 17 48 13 6 -3 7 -1 3 5
-12 19 -41 14 -66 -13z"/>
<path d="M1083 1513 c4 -3 10 -3 14 0 3 4 0 7 -7 7 -7 0 -10 -3 -7 -7z"/>
<path d="M2950 1509 c-56 -12 -148 -48 -122 -49 13 0 35 6 50 14 36 19 176 35
198 23 19 -11 57 -47 49 -47 -3 0 -16 6 -28 14 -12 8 -33 17 -47 20 -24 7 -24
6 3 -9 34 -20 35 -28 2 -15 -14 6 -25 6 -25 0 0 -4 8 -10 18 -13 9 -2 -2 -8
-28 -14 -25 -6 -35 -11 -24 -12 12 -1 40 5 62 13 22 8 42 12 45 10 8 -8 97
-14 97 -7 0 9 -31 31 -81 57 -48 24 -100 29 -169 15z"/>
<path d="M3420 1516 c0 -2 7 -7 16 -10 8 -3 12 -2 9 4 -6 10 -25 14 -25 6z"/>
<path d="M3150 1503 c0 -4 59 -33 67 -33 4 0 1 5 -7 10 -11 7 -5 9 21 6 35 -4
117 -46 90 -46 -8 0 -12 -2 -10 -5 3 -2 18 0 35 4 16 5 21 10 12 10 -10 1 -18
8 -18 17 0 11 6 14 23 10 22 -6 22 -6 0 5 -13 7 -23 16 -23 21 0 4 -5 8 -11 8
-8 0 -8 -4 0 -14 20 -24 -6 -30 -47 -10 -29 14 -132 27 -132 17z"/>
<path d="M3583 1493 c4 -3 10 -3 14 0 3 4 0 7 -7 7 -7 0 -10 -3 -7 -7z"/>
<path d="M2990 1480 c20 -13 33 -13 25 0 -3 6 -14 10 -23 10 -15 0 -15 -2 -2
-10z"/>
<path d="M3400 1480 c0 -5 7 -10 15 -10 8 0 15 5 15 10 0 6 -7 10 -15 10 -8 0
-15 -4 -15 -10z"/>
<path d="M2525 1471 c-3 -6 -16 -11 -27 -11 -28 0 -110 -49 -103 -61 4 -5 8
-9 11 -9 3 0 2 5 -1 11 -4 6 -1 9 7 7 7 -1 23 7 36 20 12 12 32 22 44 22 19 0
20 -2 6 -12 -23 -20 -48 -60 -48 -80 0 -30 18 -20 25 13 4 17 21 46 37 65 17
19 28 37 25 40 -3 3 -8 1 -12 -5z"/>
<path d="M984 1435 c22 -8 52 -23 67 -35 17 -12 26 -15 23 -7 -7 20 -77 57
-105 57 -18 -1 -14 -4 15 -15z"/>
<path d="M3218 1443 c7 -3 16 -2 19 1 4 3 -2 6 -13 5 -11 0 -14 -3 -6 -6z"/>
<path d="M837 1429 c-9 -5 -22 -7 -27 -4 -5 3 -7 0 -4 -8 5 -13 9 -13 35 0 28
14 37 23 22 23 -5 0 -16 -5 -26 -11z"/>
<path d="M1413 1405 c0 -22 2 -30 4 -17 2 12 2 30 0 40 -3 9 -5 -1 -4 -23z"/>
<path d="M755 1410 c3 -5 8 -10 11 -10 3 0 2 5 -1 10 -3 6 -8 10 -11 10 -3 0
-2 -4 1 -10z"/>
<path d="M3185 1410 c3 -5 11 -10 16 -10 6 0 7 5 4 10 -3 6 -11 10 -16 10 -6
0 -7 -4 -4 -10z"/>
<path d="M423 1344 c-61 -61 -61 -61 -50 -97 14 -44 22 -47 22 -8 0 16 -3 27
-7 24 -5 -2 -8 5 -8 16 0 11 8 22 18 26 22 7 72 51 72 64 0 5 17 8 38 6 20 -3
28 -2 17 1 -11 3 -24 11 -30 18 -7 8 -26 -5 -72 -50z"/>
<path d="M2210 1386 c0 -8 4 -17 9 -20 5 -4 7 3 4 14 -6 23 -13 26 -13 6z"/>
<path d="M1250 1379 c-45 -6 -45 -6 -4 -7 23 -1 57 -8 75 -16 40 -17 129 -23
148 -11 8 4 57 10 110 13 73 4 88 7 62 13 -18 4 -66 2 -105 -4 -95 -15 -175
-14 -211 4 -20 9 -45 12 -75 8z"/>
<path d="M560 1362 c0 -10 -11 -40 -24 -68 -13 -27 -26 -57 -29 -66 -4 -11
-21 -20 -47 -24 -22 -4 -43 -11 -46 -15 -3 -5 -16 -6 -28 -3 -15 3 -29 -1 -41
-13 -10 -10 -36 -25 -58 -33 -31 -12 -47 -27 -69 -65 -29 -50 -29 -50 19 2 39
43 57 55 97 63 27 6 61 19 75 29 38 27 91 32 121 12 14 -10 46 -28 73 -42 26
-13 47 -30 47 -36 0 -8 8 -5 20 7 26 26 25 32 -4 24 -21 -5 -62 8 -76 25 -3 3
-18 13 -35 22 -36 19 -36 47 1 125 26 55 30 74 14 74 -5 0 -10 -8 -10 -18z"/>
<path d="M1689 1356 c19 -23 -20 -38 -85 -32 -30 2 -52 0 -49 -4 3 -5 12 -7
20 -4 7 3 25 -2 39 -11 23 -16 27 -16 41 -1 9 9 23 16 31 16 8 0 14 5 14 11 0
6 9 8 23 4 21 -6 21 -6 -3 14 -29 24 -48 28 -31 7z"/>
<path d="M1109 1350 c-14 -4 -54 -28 -88 -53 -56 -41 -66 -44 -94 -36 -70 20
-120 11 -179 -30 -45 -31 -63 -38 -96 -37 -26 2 -43 -2 -46 -11 -13 -34 73
-14 140 33 66 46 66 46 126 33 34 -7 67 -12 74 -12 10 0 11 -4 2 -14 -8 -11
-7 -12 6 -7 11 4 16 1 16 -12 0 -9 3 -14 6 -11 12 12 46 -43 38 -61 -4 -9 -6
-21 -5 -26 3 -14 -71 -85 -112 -107 -50 -26 -92 -22 -91 9 0 12 -3 22 -8 22
-4 0 -8 -8 -8 -18 0 -11 -10 -30 -21 -43 -21 -24 -21 -24 -14 1 8 25 8 25 -13
0 -18 -23 -19 -26 -4 -32 15 -6 15 -7 1 -7 -9 -1 -22 -8 -29 -16 -17 -21 -47
-19 -59 4 -8 14 -6 23 9 36 11 10 18 21 15 25 -2 3 16 19 40 35 49 31 57 40
24 30 -16 -5 -19 -4 -14 5 5 9 4 11 -4 6 -6 -4 -9 -12 -6 -17 4 -5 0 -9 -8 -9
-8 0 -20 -7 -28 -16 -7 -9 -21 -13 -33 -10 -12 3 -28 1 -36 -5 -11 -8 -9 -9
10 -4 22 6 21 3 -14 -30 -37 -35 -38 -37 -20 -52 15 -11 12 -11 -9 2 -16 9
-34 14 -40 11 -9 -3 -8 -5 1 -5 7 -1 11 -5 8 -10 -9 -13 65 -24 77 -12 14 14
30 14 22 1 -3 -5 1 -10 9 -10 21 0 21 -26 0 -34 -41 -16 -93 -1 -174 52 -14 9
-34 18 -44 19 -25 4 -35 14 -19 20 33 12 64 75 72 143 7 70 7 70 -31 30 -43
-44 -63 -51 -55 -19 4 16 3 18 -9 8 -8 -6 -14 -18 -14 -25 0 -8 -6 -22 -14
-31 -8 -10 -31 -38 -51 -63 -44 -53 -51 -70 -65 -157 -11 -68 -33 -123 -50
-123 -6 0 -10 -5 -10 -11 0 -5 4 -7 10 -4 6 3 7 -1 4 -9 -3 -9 -12 -16 -19
-16 -13 0 -29 -56 -19 -71 9 -15 -62 -39 -116 -40 -45 -2 -50 -4 -50 -24 0
-21 2 -22 29 -12 35 13 65 3 57 -19 -4 -10 -1 -14 6 -12 7 3 13 9 13 14 0 5 6
18 14 29 7 12 11 13 8 4 -8 -26 8 -43 29 -31 11 5 62 12 114 16 65 5 100 12
112 23 20 18 23 17 32 -13 4 -14 2 -24 -8 -27 -19 -7 -46 -64 -39 -83 3 -9 -2
-14 -15 -14 -12 0 -24 -4 -27 -10 -10 -16 -68 -13 -62 4 7 16 -45 26 -84 15
-13 -4 -46 -7 -74 -7 -46 0 -48 1 -22 11 15 6 27 14 27 19 0 14 -37 8 -51 -8
-7 -9 -23 -20 -36 -25 -31 -12 -32 -49 0 -47 12 1 52 -2 90 -6 46 -5 67 -4 67
3 0 6 -7 11 -15 11 -8 0 -15 4 -15 10 0 5 8 9 18 8 43 -3 67 2 52 12 -13 8
-12 10 3 10 22 0 22 -5 -4 -46 -11 -19 -16 -34 -10 -34 5 0 14 6 18 13 13 23
84 29 99 9 9 -12 9 -21 2 -29 -15 -19 -28 -16 -21 4 5 12 2 15 -10 10 -9 -3
-17 -2 -17 4 0 33 -25 -5 -27 -42 -1 -24 1 -39 5 -33 14 21 151 46 138 25 -11
-17 39 -13 54 4 13 16 7 18 -60 19 -14 1 -25 3 -25 6 0 3 -10 16 -22 29 -31
34 -20 48 48 55 62 7 129 30 129 45 0 4 -11 6 -24 4 -26 -5 -35 4 -42 42 -3
18 1 27 13 31 10 3 26 10 36 15 10 5 22 7 27 4 6 -4 13 0 16 9 10 25 30 25 32
-1 1 -16 -2 -22 -10 -17 -8 5 -9 0 -5 -17 4 -13 7 -27 7 -31 0 -5 6 -8 14 -8
17 0 29 -40 13 -41 -7 0 -2 -5 11 -11 24 -12 45 -2 23 11 -8 5 -17 43 -23 95
-8 77 -7 90 12 133 26 59 36 50 53 -50 13 -77 13 -77 -17 -78 -24 -1 -26 -3
-8 -6 18 -4 21 -9 16 -31 -5 -27 -5 -27 15 -4 21 24 40 74 64 167 8 33 18 69
23 80 6 15 -1 12 -31 -13 -60 -49 -69 -23 -11 33 48 45 48 45 66 22 13 -16 15
-26 8 -34 -7 -9 -7 -13 0 -13 6 0 17 -3 25 -6 11 -4 21 8 36 42 37 83 34 39
-4 -58 -60 -152 -107 -234 -126 -222 -5 3 -7 -1 -4 -8 7 -18 -3 -30 -56 -65
-67 -46 -79 -63 -44 -63 16 0 26 3 22 6 -3 3 5 18 19 32 21 23 27 25 44 14 11
-6 27 -12 35 -12 18 0 20 -16 3 -24 -7 -3 36 -4 96 -1 123 6 171 24 171 63 0
13 5 26 12 30 6 4 16 52 22 107 14 118 14 118 71 101 53 -16 55 -24 21 -116
-13 -36 -24 -76 -23 -90 1 -32 -27 -141 -40 -157 -6 -7 -8 -13 -4 -13 3 0 -3
-23 -13 -50 -19 -50 -19 -50 13 -50 31 0 32 2 44 63 8 34 13 79 12 101 -1 51
17 138 41 189 21 48 26 127 7 127 -9 0 -8 4 2 11 11 7 3 8 -28 4 -35 -6 -41
-4 -36 9 7 17 36 29 79 31 44 2 86 16 79 26 -3 5 4 9 15 9 27 0 26 -12 -4 -85
-14 -33 -28 -74 -31 -92 -4 -22 -15 -36 -34 -44 -19 -9 -35 -31 -55 -76 -27
-62 -27 -64 -13 -127 15 -64 14 -65 -9 -90 -13 -14 -18 -26 -12 -26 6 0 18 8
25 17 7 10 16 14 21 10 4 -5 -8 -22 -27 -39 -19 -16 -30 -28 -25 -25 39 16 54
20 80 18 25 -1 27 0 13 9 -26 16 -22 33 7 28 20 -4 25 -1 25 16 0 20 3 21 73
16 87 -7 104 -4 110 22 4 14 2 18 -10 14 -8 -3 -18 -6 -21 -6 -4 0 0 -5 8 -10
11 -7 4 -9 -25 -9 -35 1 -37 2 -15 9 25 8 25 8 -2 9 -16 1 -28 -3 -28 -7 0
-12 -68 -13 -75 -1 -7 10 26 159 35 159 13 0 4 -91 -10 -100 -30 -19 2 -23 36
-5 36 19 36 19 75 -2 39 -21 39 -21 39 13 0 25 -4 32 -14 28 -16 -6 -16 -2 -1
89 5 32 12 47 22 47 11 0 13 -7 9 -25 -5 -20 0 -33 24 -56 36 -36 36 -38 10
-89 -11 -22 -20 -52 -19 -67 1 -28 1 -28 8 2 16 66 120 246 156 271 34 22 65
31 65 18 0 -12 -57 -103 -109 -174 -102 -137 -113 -180 -49 -180 36 0 67 -15
55 -26 -4 -4 -36 -6 -71 -5 -43 2 -75 -3 -95 -14 -26 -13 -31 -13 -31 -1 0 8
-6 17 -12 19 -7 3 1 6 18 6 17 1 38 8 45 18 13 15 12 15 -9 4 -15 -8 -46 -10
-88 -7 -39 4 -64 2 -64 -4 0 -6 3 -9 8 -9 28 5 56 -2 43 -10 -8 -5 -20 -7 -28
-4 -7 3 -13 0 -13 -5 0 -6 -8 -13 -17 -15 -17 -4 -17 -5 0 -6 43 -3 11 -16
-36 -14 -65 1 -73 -19 -15 -36 53 -16 38 -35 -23 -29 -27 3 -46 1 -43 -4 3 -4
37 -8 76 -8 56 0 69 -3 65 -14 -6 -16 20 -26 70 -26 55 0 47 19 -9 23 -40 2
-33 4 29 5 45 1 92 -2 105 -7 32 -12 190 -1 185 12 -2 6 -31 11 -64 11 -34 1
-64 4 -68 7 -9 10 231 22 301 16 57 -4 119 12 135 36 4 5 37 7 75 3 38 -3 96
-2 129 3 51 7 45 17 -7 12 -10 -1 -18 3 -18 9 0 8 11 10 34 6 20 -4 37 -2 41
4 3 5 26 10 51 10 24 0 44 4 44 10 0 5 -12 8 -27 5 -16 -2 -59 -7 -98 -10 -38
-3 -87 -8 -107 -10 -31 -4 -38 -2 -39 12 0 11 -3 13 -6 6 -2 -7 -13 -13 -24
-13 -11 0 -19 -7 -19 -16 0 -8 -4 -13 -9 -10 -5 3 -14 -1 -21 -8 -6 -8 -25
-14 -42 -14 -16 1 -33 -5 -38 -12 -10 -15 -252 -8 -258 8 -2 6 -10 8 -18 5 -8
-3 -14 -1 -14 5 0 5 17 10 38 10 20 0 94 1 164 2 70 1 132 -1 137 -4 5 -4 12
-2 16 3 3 6 -10 13 -30 17 -19 3 -38 10 -41 15 -3 5 -16 9 -29 9 -13 0 -26 6
-29 13 -5 9 -7 9 -12 0 -11 -24 -74 -12 -74 13 0 8 10 14 26 14 14 0 34 5 45
10 14 8 25 6 46 -9 44 -30 110 -34 128 -8 20 28 19 48 -1 22 -15 -20 -15 -20
-30 -1 -8 11 -14 28 -14 39 0 14 -5 17 -17 13 -9 -4 -5 4 10 18 31 29 31 25
12 96 -28 104 -11 180 40 180 13 0 34 4 48 9 32 12 56 -2 38 -22 -9 -12 -9
-16 1 -20 9 -4 8 -6 -2 -6 -10 -1 -16 -11 -15 -28 0 -18 -5 -27 -13 -25 -8 1
-11 -2 -8 -7 4 -5 1 -15 -6 -23 -7 -7 -13 -19 -14 -25 -3 -37 -5 -42 -20 -45
-13 -2 -17 -16 -18 -56 0 -31 3 -51 9 -48 6 1 9 10 7 19 -1 8 3 19 9 23 9 5
10 -3 5 -31 -5 -26 -4 -35 4 -30 7 4 10 30 9 64 -2 44 1 55 12 52 8 -2 23 -4
35 -4 19 1 20 -3 13 -50 -5 -28 -12 -53 -17 -56 -5 -3 -14 -15 -19 -26 -10
-18 -8 -20 18 -21 23 -1 27 2 18 12 -7 8 -7 19 -1 31 5 10 13 39 16 65 9 57
17 60 47 12 20 -33 21 -37 6 -46 -22 -12 -22 -29 1 -21 13 5 12 1 -5 -16 -13
-12 -23 -26 -23 -31 0 -16 57 -11 74 6 18 17 22 39 6 29 -5 -3 -10 -1 -10 4 0
6 4 11 9 11 20 0 18 55 -5 104 -13 28 -27 66 -30 84 -3 17 -11 32 -16 32 -6 0
-7 15 -3 38 4 25 1 47 -10 70 -25 48 -22 148 5 177 38 40 88 18 126 -56 25
-51 25 -51 2 -85 -23 -34 -23 -34 -26 -4 -2 17 -7 30 -11 30 -16 0 1 -244 20
-289 11 -24 22 -69 26 -100 7 -61 15 -74 54 -84 21 -5 27 -2 38 26 13 32 13
32 24 5 8 -20 18 -28 34 -28 22 0 23 3 18 38 -6 37 -6 37 16 2 13 -19 23 -36
23 -36 1 -1 23 -5 50 -8 33 -5 46 -4 41 3 -3 6 1 11 10 11 19 0 14 82 -12 185
-11 43 -13 83 -8 145 9 115 -27 188 -118 234 -31 16 -57 34 -57 41 0 6 -16 17
-35 24 -20 7 -32 17 -29 23 4 6 12 4 22 -6 14 -13 18 -12 43 17 15 17 25 34
22 37 -3 3 -12 -5 -20 -18 -18 -26 -38 -29 -47 -7 -4 10 2 19 17 25 18 8 15 9
-15 6 -21 -2 -35 0 -33 5 3 4 2 10 -3 13 -4 2 -9 -4 -9 -15 -1 -10 2 -19 8
-19 5 0 9 -7 9 -15 0 -28 -28 -15 -69 31 -53 61 -52 65 20 104 64 34 79 56 79
116 0 45 -101 186 -120 167 -3 -2 5 -12 17 -21 27 -22 45 -83 21 -75 -3 1 -11
-11 -17 -27 -14 -41 -24 -38 -82 22 -61 64 -229 137 -229 99 0 -6 -8 -11 -17
-11 -12 0 -8 -6 14 -20 31 -18 60 -57 50 -66 -3 -3 -14 6 -25 20 -33 42 -35
29 -3 -17 28 -41 29 -45 13 -61 -12 -12 -17 -34 -17 -77 0 -55 3 -63 28 -81
18 -13 24 -23 18 -28 -6 -3 -12 -30 -12 -58 -1 -29 -5 -52 -9 -52 -11 0 -57
93 -65 131 -12 56 -97 204 -153 265 -16 18 -17 24 -5 40 21 29 15 33 -22 16
-19 -9 -35 -20 -35 -24 0 -4 -7 -8 -15 -8 -8 0 -15 -4 -15 -10 0 -5 6 -7 14
-4 8 3 17 1 21 -5 4 -7 -12 -11 -47 -12 -53 -1 -53 -1 -13 -9 22 -5 47 -7 56
-4 20 5 74 -38 101 -81 11 -16 17 -21 13 -10 -11 34 11 4 48 -65 38 -70 62
-163 32 -125 -8 11 -22 28 -30 38 -8 9 -15 22 -15 27 0 6 -10 10 -22 9 -64 -6
-95 14 -43 27 14 3 22 10 19 15 -3 5 -14 5 -25 -2 -11 -5 -27 -9 -37 -8 -39 3
-46 -1 -26 -15 21 -16 27 -76 7 -76 -6 0 -15 -5 -19 -11 -10 -17 48 -2 62 16
11 15 54 9 54 -7 0 -6 -9 -8 -20 -5 -11 3 -18 1 -14 -4 3 -5 20 -9 38 -9 66 0
105 -25 118 -76 7 -26 18 -49 25 -51 7 -3 13 -17 12 -32 0 -16 -3 -20 -6 -11
-4 8 -6 16 -5 17 2 3 -59 63 -64 63 -3 0 -2 -6 2 -12 4 -7 -11 6 -33 30 -58
62 -62 51 -5 -18 52 -65 85 -142 76 -177 -8 -31 -24 -29 -24 2 0 15 -8 40 -17
58 -9 18 -16 35 -15 39 1 4 -14 31 -33 60 -38 57 -49 56 -14 -2 12 -19 22 -43
24 -55 6 -57 18 -112 27 -125 6 -10 7 0 4 30 -7 49 7 36 17 -17 10 -51 -15
-62 -52 -22 -26 28 -30 30 -28 11 0 -11 4 -19 8 -16 4 2 15 -8 24 -23 19 -29
22 -25 -57 -84 -35 -26 -36 -18 -11 123 12 73 14 103 5 120 -9 20 -10 18 -6
-17 3 -32 2 -35 -5 -15 -7 18 -9 20 -10 7 -1 -19 -44 -87 -79 -123 -12 -12
-18 -24 -15 -27 3 -3 -5 -3 -17 0 -21 6 -21 6 -2 27 32 35 37 53 8 26 -15 -14
-35 -38 -43 -55 -15 -29 -31 -45 -44 -45 -14 0 15 81 32 90 24 14 65 69 73
100 5 18 1 16 -13 -10 -10 -20 -32 -48 -47 -63 -31 -31 -42 -23 -43 33 -1 54
97 207 126 196 6 -3 13 -1 15 4 2 4 21 2 43 -5 40 -14 40 -14 16 6 -26 21 -81
25 -99 7 -9 -9 -12 5 -12 65 0 98 -32 170 -102 230 -46 40 -47 42 -26 49 14 5
8 6 -17 3 -32 -4 -49 1 -76 19 -53 36 -105 43 -132 18 -12 -11 -33 -23 -45
-27 -31 -9 -112 21 -112 42 0 20 -23 11 -26 -10 -1 -9 5 -21 14 -27 10 -5 14
-10 9 -10 -4 0 -16 6 -27 12 -16 10 -24 10 -40 0 -11 -6 -27 -12 -35 -12 -8 0
-15 -4 -15 -10 0 -5 -8 -10 -17 -10 -16 0 -16 2 -3 11 11 8 8 9 -15 5 -29 -6
-29 -6 -10 9 11 9 25 13 31 11 7 -3 18 3 26 12 11 13 11 14 -1 7 -9 -5 -12 -4
-7 3 4 6 13 9 21 5 8 -3 15 0 15 6 0 6 6 11 14 11 8 0 18 5 21 10 7 11 1 11
-36 0z m891 -45 c0 -8 6 -12 15 -9 31 12 110 -29 168 -88 58 -59 71 -66 82
-48 3 6 10 10 14 10 7 0 9 -7 13 -50 1 -11 7 -19 13 -16 6 2 11 -4 11 -14 0
-12 -6 -16 -16 -12 -8 3 -12 1 -8 -3 11 -11 -29 -38 -44 -29 -6 4 -8 3 -5 -3
4 -6 -7 -16 -25 -22 -38 -14 -48 -14 -48 -1 0 6 6 10 14 10 10 0 13 8 10 25
-4 24 34 75 57 75 12 0 11 -27 -1 -35 -5 -3 -10 -11 -10 -17 0 -6 12 2 26 17
20 22 23 30 12 36 -18 12 -45 11 -53 -1 -9 -15 -25 -12 -19 4 3 8 -5 25 -17
37 -16 16 -21 18 -16 6 8 -22 -9 -22 -22 1 -10 16 -10 16 -11 0 0 -21 -11 -23
-28 -6 -6 6 -14 9 -17 6 -3 -3 1 -13 10 -21 17 -17 20 -32 5 -22 -5 3 -10 0
-10 -8 0 -7 -11 -24 -24 -36 -14 -14 -22 -30 -19 -40 2 -9 -7 -3 -22 13 -24
26 -26 34 -19 70 15 81 9 117 -24 147 -30 27 -32 39 -5 39 7 0 13 -7 13 -15z
m-848 -51 c2 -14 10 -19 34 -21 34 -2 108 -35 120 -54 4 -8 3 -9 -4 -5 -30 18
-7 -6 37 -39 51 -39 96 -118 108 -188 9 -55 -97 -157 -122 -117 -12 20 -27 10
-23 -15 4 -19 1 -25 -13 -25 -15 0 -19 8 -20 43 -1 23 -3 34 -6 24 -4 -17 -8
-16 -36 10 -27 24 -29 24 -11 3 17 -21 44 -73 44 -85 0 -3 -102 -35 -113 -35
-2 0 -2 10 0 23 3 13 -7 42 -21 67 -29 50 -34 42 -10 -15 26 -64 17 -87 -41
-102 -105 -27 -108 -24 -109 131 -1 111 1 126 15 126 19 0 71 55 94 99 8 16
25 38 37 48 21 17 34 53 19 53 -13 0 -97 -87 -94 -97 2 -5 -3 -16 -12 -23 -8
-7 -15 -18 -15 -25 0 -7 -7 -18 -15 -25 -8 -7 -15 -9 -15 -6 0 10 33 77 53
107 17 25 16 27 -5 55 -18 24 -19 26 -2 13 41 -34 47 -28 7 8 -24 21 -43 44
-43 50 0 17 40 27 53 14 19 -19 76 -14 73 7 -4 19 15 35 27 23 4 -4 9 -17 9
-27z m233 -28 c30 -17 30 -17 -25 -11 -40 4 -50 2 -38 -5 10 -6 41 -13 70 -16
29 -3 61 -10 70 -15 9 -5 30 -9 45 -9 16 0 35 -6 42 -12 10 -11 11 -10 6 4 -4
9 -43 30 -88 48 -101 40 -126 59 -79 61 18 1 46 2 63 3 18 0 41 -7 52 -16 11
-10 23 -15 27 -13 4 3 10 -2 14 -10 3 -8 14 -15 25 -15 22 0 91 -75 91 -100 0
-9 4 -20 10 -26 10 -10 15 -63 12 -144 -2 -49 -8 -64 -48 -119 -44 -61 -47
-68 -54 -153 -6 -79 -10 -92 -35 -118 -26 -28 -24 -45 2 -19 9 9 11 7 6 -9 -3
-12 -11 -27 -19 -33 -8 -6 -14 -23 -15 -38 -1 -26 -1 -26 -11 4 -6 17 -17 37
-24 46 -16 17 -8 27 49 62 15 10 27 22 27 27 0 13 -31 0 -59 -26 -32 -29 -136
-41 -186 -20 -34 14 -35 14 -36 -7 -1 -20 -2 -19 -10 5 -8 21 -6 35 10 67 12
22 21 47 21 54 0 30 42 107 72 132 48 40 98 111 98 138 0 46 -54 144 -112 205
-32 33 -58 65 -58 72 0 6 -16 18 -35 26 -19 8 -35 18 -35 23 0 11 117 -21 155
-43z m405 14 c6 -11 9 -20 7 -20 -2 0 -12 9 -22 20 -10 11 -13 20 -7 20 6 0
16 -9 22 -20z m549 -36 c16 -35 2 -52 -15 -19 -16 31 -18 45 -6 45 5 0 14 -12
21 -26z m-902 -1 c-4 -3 -10 -3 -14 0 -3 4 0 7 7 7 7 0 10 -3 7 -7z m868 -14
c-10 -15 -25 -10 -19 6 4 8 10 12 15 9 5 -3 7 -10 4 -15z m-838 4 c-4 -3 -10
-3 -14 0 -3 4 0 7 7 7 7 0 10 -3 7 -7z m30 -10 c-4 -3 -10 -3 -14 0 -3 4 0 7
7 7 7 0 10 -3 7 -7z m860 -40 c-4 -3 -7 0 -7 7 0 7 3 10 7 7 3 -4 3 -10 0 -14z
m-167 -28 c0 -2 -5 -7 -12 -11 -7 -4 -8 -3 -4 4 4 7 1 12 -8 12 -9 0 -16 5
-16 10 0 7 6 7 20 0 11 -6 20 -13 20 -15z m-190 -23 c0 -10 14 -32 30 -50 17
-18 30 -35 30 -38 0 -10 -30 -2 -48 14 -22 18 -43 110 -23 98 6 -4 11 -15 11
-24z m347 11 c-4 -3 -7 0 -7 7 0 7 3 10 7 7 3 -4 3 -10 0 -14z m-196 -40 c12
-22 11 -26 -3 -34 -14 -8 -15 -15 -8 -34 7 -18 6 -25 -3 -26 -9 0 -9 -2 1 -6
30 -12 7 -23 -47 -23 -55 0 -59 1 -54 21 6 21 14 21 70 3 17 -5 17 -5 1 9 -10
8 -18 17 -18 21 0 4 -7 14 -15 22 -16 16 -10 40 14 65 21 21 45 14 62 -18z
m28 -7 c-3 -3 -11 5 -18 17 -13 21 -12 21 5 5 10 -10 16 -20 13 -22z m-1746
-5 c-3 -12 -11 -20 -18 -17 -8 3 -16 -2 -19 -10 -3 -9 -1 -12 4 -9 13 8 13 -1
0 -26 -13 -23 -35 -26 -26 -3 4 9 2 13 -5 8 -8 -4 -9 1 -4 17 4 13 13 27 19
31 6 4 20 13 31 21 24 19 26 17 18 -12z m1734 -68 c-4 -3 -7 0 -7 7 0 7 3 10
7 7 3 -4 3 -10 0 -14z m-1512 -12 c-3 -6 -21 -18 -38 -27 -32 -16 -32 -16 3
15 33 29 49 34 35 12z m1541 -36 c-12 -5 -21 -16 -19 -22 3 -7 0 -13 -6 -13
-14 0 -14 33 1 65 12 26 12 26 30 3 17 -22 17 -23 -6 -33z m-1293 6 c-7 -34
-42 -91 -54 -91 -13 0 -39 63 -39 95 0 25 2 26 50 24 48 -2 49 -3 43 -28z m23
-28 c-10 -26 -18 -8 -9 23 5 21 8 24 11 11 2 -10 1 -25 -2 -34z m1340 -10 c-8
-8 -36 10 -36 25 0 13 3 12 20 -3 11 -10 18 -20 16 -22z m-1971 -10 c-5 -37
-25 -71 -25 -41 0 17 20 78 26 78 2 0 2 -17 -1 -37z m140 19 c11 -2 27 -10 35
-17 8 -7 25 -16 38 -20 12 -3 29 -19 37 -35 14 -26 14 -29 0 -24 -15 6 -22
-11 -7 -19 4 -2 1 -2 -5 -1 -14 4 -43 -45 -43 -71 0 -8 -7 -15 -15 -15 -8 0
-15 -7 -15 -15 0 -8 -6 -15 -12 -16 -7 0 -4 -4 7 -9 17 -7 17 -9 3 -9 -10 -1
-18 -6 -18 -12 0 -5 3 -8 8 -6 4 3 8 -6 8 -19 1 -13 -2 -21 -7 -18 -15 9 -10
-7 11 -33 11 -15 18 -29 15 -32 -4 -3 -9 -1 -13 4 -4 6 -20 18 -37 27 -26 14
-31 25 -37 70 -7 54 13 151 33 164 6 4 3 14 -7 26 -14 14 -15 21 -6 27 9 5 5
14 -13 31 -26 24 -24 46 4 35 9 -4 25 -10 36 -13z m1693 -10 c20 -25 14 -39
-19 -46 -17 -3 -43 -19 -59 -34 -28 -29 -28 -29 -33 -4 -3 14 2 45 11 69 16
42 17 43 52 37 19 -3 41 -13 48 -22z m-1768 -2 c6 -11 8 -20 6 -20 -3 0 -10 9
-16 20 -6 11 -8 20 -6 20 3 0 10 -9 16 -20z m420 10 c0 -5 -5 -10 -11 -10 -5
0 -7 5 -4 10 3 6 8 10 11 10 2 0 4 -4 4 -10z m157 -32 c-3 -8 -6 -5 -6 6 -1
11 2 17 5 13 3 -3 4 -12 1 -19z m-117 -30 c0 -10 -20 -11 -21 0 0 4 -2 16 -4
27 -4 20 -4 20 11 1 8 -11 14 -23 14 -28z m90 38 c0 -3 -4 -8 -10 -11 -5 -3
-10 -1 -10 4 0 6 5 11 10 11 6 0 10 -2 10 -4z m1310 -12 c0 -2 -9 -4 -21 -4
-11 0 -18 4 -14 10 5 8 35 3 35 -6z m70 -4 c11 -6 24 -19 29 -29 14 -26 -32
-26 -55 0 -18 20 -40 26 -29 9 3 -5 2 -10 -4 -10 -5 0 -18 -3 -28 -6 -11 -4
-6 4 12 20 33 28 47 31 75 16z m-1930 -26 c0 -9 9 -23 21 -33 21 -17 21 -17 1
-72 -11 -32 -16 -63 -12 -74 4 -11 10 -39 13 -62 5 -43 5 -43 -84 -43 -64 0
-89 -3 -90 -12 0 -10 -2 -10 -6 0 -2 6 -11 12 -19 12 -9 0 -12 4 -9 10 3 5 26
7 52 3 34 -4 44 -3 39 5 -4 7 -25 12 -46 12 -40 0 -40 0 -9 48 16 26 39 78 51
115 11 38 27 71 34 74 8 3 14 11 14 19 0 8 10 14 25 14 16 0 25 -6 25 -16z
m327 5 c-1 -3 4 -13 11 -22 9 -10 10 -17 2 -22 -5 -3 -10 0 -11 7 0 7 -2 21
-4 31 -2 11 -2 17 0 15 2 -1 3 -6 2 -9z m68 1 c-3 -5 -11 -10 -16 -10 -6 0 -7
5 -4 10 3 6 11 10 16 10 6 0 7 -4 4 -10z m150 0 c-3 -5 -12 -10 -18 -10 -7 0
-6 4 3 10 19 12 23 12 15 0z m1282 3 c-4 -3 -10 -3 -14 0 -3 4 0 7 7 7 7 0 10
-3 7 -7z m-1238 -55 c-1 -29 11 -96 25 -148 30 -110 33 -165 10 -178 -15 -8
-14 -11 5 -24 20 -14 20 -16 5 -22 -9 -4 -24 -1 -33 6 -32 26 -60 37 -63 27
-2 -5 -29 -13 -60 -16 -56 -6 -56 -6 -49 28 13 54 60 199 87 262 13 32 24 63
24 69 0 14 30 48 41 48 5 0 8 -24 8 -52z m-354 13 c-6 -5 -25 10 -25 20 0 5 6
4 14 -3 8 -7 12 -15 11 -17z m25 19 c0 -5 -2 -10 -4 -10 -3 0 -8 5 -11 10 -3
6 -1 10 4 10 6 0 11 -4 11 -10z m1478 -32 c-18 -24 -33 -44 -34 -46 -2 -5 -34
10 -34 17 0 16 64 71 82 71 17 0 15 -5 -14 -42z m296 27 c3 -8 2 -15 -3 -15
-5 0 -14 7 -21 15 -10 12 -10 15 3 15 8 0 17 -7 21 -15z m-1577 -12 c-4 -3 -7
0 -7 7 0 7 3 10 7 7 3 -4 3 -10 0 -14z m1470 -9 c25 -19 33 -32 33 -57 -1 -32
-1 -32 -22 8 -11 22 -30 48 -42 57 -34 28 -6 21 31 -8z m-1547 3 c0 -2 -13
-16 -30 -32 -30 -28 -30 -28 -30 -6 0 16 4 21 14 18 8 -3 20 1 26 9 12 13 20
18 20 11z m1390 -1 c0 -3 -5 -8 -12 -12 -7 -4 -8 -3 -4 4 7 12 16 16 16 8z
m241 -24 c-6 -2 -8 -9 -4 -15 4 -7 8 -16 10 -22 1 -5 5 -21 9 -35 6 -23 5 -24
-10 -10 -8 9 -19 38 -23 65 -6 47 -5 49 11 35 11 -9 14 -16 7 -18z m-1748 -2
c-5 -19 -23 -39 -23 -25 0 9 20 45 24 45 2 0 2 -9 -1 -20z m-46 -11 c2 -24
-31 -104 -46 -114 -32 -19 -10 76 27 118 19 21 17 21 19 -4z m260 4 c-4 -3 -7
0 -7 7 0 7 3 10 7 7 3 -4 3 -10 0 -14z m1140 0 c-4 -3 -7 0 -7 7 0 7 3 10 7 7
3 -4 3 -10 0 -14z m497 -13 c10 -15 16 -18 12 -7 -8 26 -1 21 30 -20 17 -24
21 -32 9 -23 -16 13 -16 10 4 -23 26 -42 24 -61 -3 -25 -9 13 -23 32 -31 43
-11 16 -14 17 -15 4 0 -8 9 -25 20 -37 27 -28 13 -29 -17 0 -13 12 -23 29 -23
39 0 10 -10 26 -23 36 -26 20 -25 45 1 41 10 -2 25 -14 36 -28z m-357 -22 c-3
-7 -5 -2 -5 12 0 14 2 19 5 13 2 -7 2 -19 0 -25z m280 15 c-4 -3 -7 0 -7 7 0
7 3 10 7 7 3 -4 3 -10 0 -14z m-307 -7 c0 -3 -5 -8 -12 -12 -7 -4 -8 -3 -4 4
7 12 16 16 16 8z m-1480 -46 c0 -22 -38 -62 -52 -54 -4 3 -2 12 6 20 8 8 18
23 21 34 8 26 25 26 25 0z m1444 -9 c0 -16 4 -21 20 -19 16 2 21 -3 22 -19 2
-29 -4 -29 -33 -1 -13 12 -23 17 -23 12 0 -12 -56 -12 -67 0 -5 5 -3 6 5 2 6
-4 12 -2 12 5 0 7 10 9 25 7 31 -6 43 8 15 17 -27 9 -25 26 3 21 15 -2 22 -10
21 -25z m66 3 c0 -8 -4 -12 -10 -9 -5 3 -10 13 -10 21 0 8 5 12 10 9 6 -3 10
-13 10 -21z m-327 -1 c-7 -3 -13 -9 -13 -14 0 -6 5 -7 11 -3 8 4 9 -4 4 -27
-9 -42 -33 -89 -44 -89 -10 0 1 56 17 86 6 12 9 24 5 27 -3 4 0 13 7 22 7 9
16 13 19 9 3 -4 0 -9 -6 -11z m-1068 -23 c-5 -16 -10 -19 -18 -11 -7 7 -6 15
3 26 17 20 24 13 15 -15z m325 16 c0 -8 -4 -18 -10 -21 -5 -3 -10 -4 -10 -1 0
2 -3 11 -6 20 -4 11 -1 16 10 16 9 0 16 -6 16 -14z m-63 -18 c-3 -8 -6 -5 -6
6 -1 11 2 17 5 13 3 -3 4 -12 1 -19z m1383 1 c0 -5 -4 -9 -10 -9 -5 0 -10 7
-10 16 0 8 5 12 10 9 6 -3 10 -10 10 -16z m-773 -21 c-3 -7 -5 -2 -5 12 0 14
2 19 5 13 2 -7 2 -19 0 -25z m821 -4 c2 -1 -4 -4 -13 -8 -9 -3 -13 -2 -10 4 3
6 1 10 -4 10 -6 0 -11 5 -11 11 0 8 6 7 18 -2 9 -7 18 -14 20 -15z m67 6 c10
-11 16 -20 13 -20 -3 0 -13 9 -23 20 -10 11 -16 20 -13 20 3 0 13 -9 23 -20z
m-1468 -12 c-3 -8 -6 -5 -6 6 -1 11 2 17 5 13 3 -3 4 -12 1 -19z m1310 15 c-4
-3 -10 -3 -14 0 -3 4 0 7 7 7 7 0 10 -3 7 -7z m118 -3 c3 -5 4 -10 1 -10 -3 0
-8 5 -11 10 -3 6 -4 10 -1 10 3 0 8 -4 11 -10z m-1448 -17 c-4 -3 -7 0 -7 7 0
7 3 10 7 7 3 -4 3 -10 0 -14z m1570 0 c-4 -3 -7 0 -7 7 0 7 3 10 7 7 3 -4 3
-10 0 -14z m-1870 -10 c-4 -3 -7 0 -7 7 0 7 3 10 7 7 3 -4 3 -10 0 -14z m340
-5 c-3 -8 -6 -5 -6 6 -1 11 2 17 5 13 3 -3 4 -12 1 -19z m1017 13 c10 -16 -37
-20 -63 -6 -26 14 -26 14 16 15 23 0 44 -4 47 -9z m253 -8 c-4 -3 -7 0 -7 7 0
7 3 10 7 7 3 -4 3 -10 0 -14z m233 -4 c0 -6 -4 -7 -10 -4 -5 3 -10 11 -10 16
0 6 5 7 10 4 6 -3 10 -11 10 -16z m-803 -6 c-4 -3 -7 0 -7 7 0 7 3 10 7 7 3
-4 3 -10 0 -14z m617 -24 c-33 -35 -38 -36 -22 -7 20 34 32 46 41 41 5 -3 -4
-18 -19 -34z m-399 -7 c-15 -16 -16 -15 -4 12 7 15 15 23 17 16 3 -7 -3 -19
-13 -28z m546 22 c13 -16 -5 -39 -22 -28 -4 2 -10 -18 -14 -44 -4 -26 -18 -61
-31 -79 -27 -36 -31 -52 -9 -33 19 16 20 -3 1 -23 -8 -8 -19 -34 -25 -58 -33
-129 -51 -150 -51 -56 0 29 -5 90 -10 136 -11 81 -10 85 14 122 38 57 122 93
147 63z m-1474 -26 c-3 -8 -6 -5 -6 6 -1 11 2 17 5 13 3 -3 4 -12 1 -19z
m1541 -66 c0 -31 5 -77 11 -102 14 -60 14 -70 -4 -70 -8 0 -15 5 -15 11 0 5 5
7 10 4 14 -9 12 19 -2 33 -14 14 -32 16 -24 3 9 -14 -26 -23 -38 -10 -8 9 -7
10 7 6 9 -4 17 -2 17 3 0 12 -11 13 -35 4 -13 -5 -14 -8 -3 -15 10 -6 10 -11
0 -21 -9 -9 -15 -9 -23 -1 -9 9 -5 26 15 67 15 30 29 70 31 88 7 63 15 79 36
68 14 -8 18 -22 17 -68z m-847 10 c-5 -10 -7 -29 -4 -40 3 -12 0 -29 -8 -38
-7 -9 -13 -42 -13 -78 -1 -78 -17 -78 -38 0 -16 56 -16 56 25 137 31 61 43 76
45 60 2 -12 -1 -30 -7 -41z m187 12 c-7 -31 -7 -49 0 -53 5 -3 12 -15 16 -26
3 -11 3 2 1 28 -3 26 -1 46 4 43 5 -3 11 -29 14 -58 3 -29 8 -64 11 -78 6 -25
6 -25 -6 0 -7 14 -21 36 -30 50 -18 25 -24 17 -19 -26 1 -6 -6 -11 -14 -11
-10 0 -15 10 -15 29 0 15 -4 28 -9 28 -8 0 -6 23 5 78 2 13 15 27 27 32 12 5
23 9 23 9 1 1 -3 -20 -8 -45z m381 23 c-3 -27 13 -59 23 -45 5 8 8 -14 5 -59
-2 -40 -6 -75 -9 -78 -13 -13 -49 97 -42 128 4 18 6 43 5 56 -2 15 1 21 8 16
7 -3 11 -12 10 -18z m-165 -24 c-3 -29 -2 -33 5 -18 9 20 10 20 10 -1 1 -12
-6 -24 -14 -28 -9 -3 -15 0 -15 10 0 24 -20 6 -21 -19 0 -13 -3 -16 -6 -8 -5
12 32 101 42 101 2 0 2 -17 -1 -37z m-1884 7 c0 -5 -2 -10 -4 -10 -3 0 -8 5
-11 10 -3 6 -1 10 4 10 6 0 11 -4 11 -10z m93 3 c-7 -2 -19 -2 -25 0 -7 3 -2
5 12 5 14 0 19 -2 13 -5z m1447 -8 c15 -18 5 -35 -21 -35 -12 0 -19 7 -19 18
0 33 20 42 40 17z m59 -61 c-10 -12 -9 -17 5 -27 14 -10 15 -19 6 -62 -15 -73
-15 -72 -29 -89 -28 -33 -41 8 -19 61 13 33 17 143 4 143 -5 0 -3 7 4 15 7 8
16 12 21 9 5 -3 10 1 10 8 1 7 4 0 6 -15 3 -16 -1 -35 -8 -43z m-822 19 c-3
-10 -5 -4 -5 12 0 17 2 24 5 18 2 -7 2 -21 0 -30z m227 1 c-4 -15 -2 -24 5
-24 6 0 11 10 11 22 0 12 3 18 7 15 7 -8 -12 -78 -35 -126 -10 -19 -16 -39
-14 -45 6 -17 -8 -76 -18 -76 -11 0 -28 53 -36 119 -5 37 -4 52 4 47 6 -4 13
7 17 26 10 47 32 78 50 72 10 -4 13 -14 9 -30z m106 15 c0 -6 -4 -7 -10 -4 -5
3 -10 11 -10 16 0 6 5 7 10 4 6 -3 10 -11 10 -16z m-568 -19 c-3 -22 -10 -30
-24 -30 -20 0 -18 10 10 43 19 22 19 22 14 -13z m1704 -25 c-17 -26 -36 -33
-36 -15 0 6 7 13 15 16 8 3 17 16 21 27 4 13 9 17 12 9 2 -7 -3 -24 -12 -37z
m-1159 -2 c-3 -10 -5 -4 -5 12 0 17 2 24 5 18 2 -7 2 -21 0 -30z m69 -12 c-13
-20 -26 -11 -26 16 0 25 1 26 16 11 9 -9 13 -21 10 -27z m97 19 c3 -11 1 -18
-4 -14 -5 3 -9 12 -9 20 0 20 7 17 13 -6z m273 -48 c-19 -56 -27 -112 -14
-112 7 0 7 -4 -1 -13 -6 -8 -8 -17 -4 -20 3 -4 1 -7 -7 -7 -16 0 -9 144 9 178
19 35 32 16 17 -26z m364 44 c0 -3 -4 -8 -10 -11 -5 -3 -10 -1 -10 4 0 6 5 11
10 11 6 0 10 -2 10 -4z m60 -62 c0 -6 7 -17 15 -24 8 -7 15 -20 15 -29 -1 -14
-2 -14 -11 2 -6 9 -14 15 -19 12 -17 -11 -47 42 -42 75 5 32 5 32 23 3 10 -15
19 -33 19 -39z m-1742 34 c-6 -16 -33 -22 -56 -13 -14 5 -14 7 -2 15 22 14 62
12 58 -2z m313 1 c23 -12 16 -29 -11 -29 -21 0 -34 15 -25 30 8 13 12 12 36
-1z m172 -5 c29 -11 8 -44 -28 -44 -18 0 -54 -2 -81 -5 -27 -3 -44 -3 -37 1 7
3 10 11 7 19 -4 10 8 15 43 20 45 6 76 11 80 14 1 0 8 -2 16 -5z m1172 -4 c3
-5 4 -10 1 -10 -3 0 -8 5 -11 10 -3 6 -4 10 -1 10 3 0 8 -4 11 -10z m-707 -25
c0 -14 -4 -25 -9 -25 -5 0 -9 11 -9 25 0 14 4 25 9 25 5 0 9 -11 9 -25z m241
-32 c26 -94 10 -145 -43 -142 -17 1 -18 2 -3 6 9 2 17 9 17 14 0 11 0 11 -38
-2 -22 -7 -36 -7 -49 0 -10 6 -12 11 -5 11 6 0 12 7 12 15 0 16 81 145 91 145
3 0 11 -21 18 -47z m438 40 c-4 -3 -10 -3 -14 0 -3 4 0 7 7 7 7 0 10 -3 7 -7z
m-1937 -34 c0 -11 -7 -11 -51 -2 -32 6 -33 7 -9 13 29 7 60 2 60 -11z m1577
-1 c-3 -8 -6 -5 -6 6 -1 11 2 17 5 13 3 -3 4 -12 1 -19z m240 -35 c-4 -3 -7 0
-7 7 0 7 3 10 7 7 3 -4 3 -10 0 -14z m-842 -30 c-5 -15 -9 -32 -9 -37 -1 -12
-26 -21 -26 -9 0 4 7 17 15 27 8 11 15 29 15 40 0 10 3 17 6 13 4 -3 3 -19 -1
-34z m1225 15 c0 -34 -11 -68 -21 -68 -5 0 -9 20 -9 45 0 33 4 45 15 45 9 0
15 -9 15 -22z m177 0 c17 -23 24 -50 10 -42 -22 13 -47 37 -47 46 0 12 26 10
37 -4z m58 -16 c-3 -3 -11 0 -18 7 -9 10 -8 11 6 5 10 -3 15 -9 12 -12z m-858
-9 c-4 -3 -7 0 -7 7 0 7 3 10 7 7 3 -4 3 -10 0 -14z m750 0 c-4 -3 -7 0 -7 7
0 7 3 10 7 7 3 -4 3 -10 0 -14z m142 -40 c1 -15 -35 -17 -44 -3 -3 5 2 17 12
28 19 18 30 9 32 -25z m-932 20 c-4 -3 -7 0 -7 7 0 7 3 10 7 7 3 -4 3 -10 0
-14z m520 0 c-4 -3 -7 0 -7 7 0 7 3 10 7 7 3 -4 3 -10 0 -14z m-337 3 c0 -3
-5 -8 -12 -12 -7 -4 -8 -3 -4 4 7 12 16 16 16 8z m40 -32 c0 -11 -4 -12 -19
-2 -10 6 -17 18 -14 25 7 17 33 -2 33 -23z m52 2 c1 -10 -3 -21 -9 -23 -9 -3
-13 6 -13 28 0 34 15 31 22 -5z m-147 -5 c-6 -5 -25 10 -25 20 0 5 6 4 14 -3
8 -7 12 -15 11 -17z m-128 -8 c-4 -3 -7 0 -7 7 0 7 3 10 7 7 3 -4 3 -10 0 -14z
m83 9 c0 -13 -12 -22 -22 -16 -10 6 -1 24 13 24 5 0 9 -4 9 -8z m-683 -19 c-4
-3 -7 0 -7 7 0 7 3 10 7 7 3 -4 3 -10 0 -14z m676 -35 c15 -14 15 -17 1 -22
-33 -13 -49 -7 -28 9 18 15 17 15 -16 14 -70 -2 -100 1 -100 12 0 18 124 7
143 -13z m-165 -19 c12 0 10 -3 -5 -9 -13 -5 -23 -14 -23 -20 0 -6 -41 -10
-110 -10 -114 0 -154 15 -52 20 31 1 68 4 82 5 14 1 39 3 55 4 24 1 27 3 15
12 -12 9 -12 10 3 5 10 -3 26 -6 35 -7z m279 4 c-4 -3 -10 -3 -14 0 -3 4 0 7
7 7 7 0 10 -3 7 -7z m190 -20 c-4 -3 -10 -3 -14 0 -3 4 0 7 7 7 7 0 10 -3 7
-7z m86 0 c-13 -2 -35 -2 -50 0 -16 2 -5 4 22 4 28 0 40 -2 28 -4z m-893 -23
c0 -5 -7 -10 -15 -10 -8 0 -15 5 -15 10 0 6 7 10 15 10 8 0 15 -4 15 -10z
m360 6 c0 -2 -9 -6 -20 -9 -11 -3 -18 -1 -14 4 5 9 34 13 34 5z m-50 -26 c0
-21 -109 -25 -135 -6 -16 12 -9 13 58 13 42 0 77 -4 77 -7z m-183 -26 c-3 -3
-12 -4 -19 -1 -8 3 -5 6 6 6 11 1 17 -2 13 -5z m40 0 c-3 -3 -12 -4 -19 -1 -8
3 -5 6 6 6 11 1 17 -2 13 -5z"/>
<path d="M2120 1244 c1 -13 29 -48 34 -43 2 2 -4 15 -15 28 -10 13 -19 19 -19
15z"/>
<path d="M2045 1200 c3 -5 8 -10 11 -10 3 0 2 5 -1 10 -3 6 -8 10 -11 10 -3 0
-2 -4 1 -10z"/>
<path d="M1220 1021 c0 -5 7 -15 17 -22 15 -13 15 -12 4 9 -12 23 -21 28 -21
13z"/>
<path d="M1341 941 c5 -24 14 -51 20 -60 9 -14 10 -13 5 2 -3 10 -6 29 -6 41
0 12 -6 31 -14 42 -13 17 -14 14 -5 -25z"/>
<path d="M1251 965 c16 -42 47 -95 61 -104 14 -9 13 -4 -4 27 -23 39 -63 94
-57 77z"/>
<path d="M1387 889 c4 -13 8 -18 11 -10 2 7 -1 18 -6 23 -8 8 -9 4 -5 -13z"/>
<path d="M1245 890 c3 -5 8 -10 11 -10 3 0 2 5 -1 10 -3 6 -8 10 -11 10 -3 0
-2 -4 1 -10z"/>
<path d="M1160 820 c0 -7 3 -10 7 -7 3 4 3 10 0 14 -4 3 -7 0 -7 -7z"/>
<path d="M1070 759 c7 -11 14 -18 17 -15 8 8 -5 36 -17 36 -7 0 -7 -6 0 -21z"/>
<path d="M1615 1153 c8 -18 18 -33 20 -33 10 0 4 16 -16 40 -20 25 -20 25 -4
-7z"/>
<path d="M1575 1140 c3 -5 8 -10 11 -10 3 0 2 5 -1 10 -3 6 -8 10 -11 10 -3 0
-2 -4 1 -10z"/>
<path d="M1490 1135 c0 -15 18 -40 24 -34 3 3 -1 14 -9 25 -8 10 -14 15 -15 9z"/>
<path d="M1523 1123 c4 -3 10 -3 14 0 3 4 0 7 -7 7 -7 0 -10 -3 -7 -7z"/>
<path d="M1565 1093 c16 -38 34 -63 20 -28 -4 11 -10 30 -12 43 -3 12 -9 22
-14 22 -5 0 -2 -17 6 -37z"/>
<path d="M1445 1094 c11 -8 30 -17 42 -20 11 -3 23 -14 26 -25 3 -10 10 -19
15 -19 28 0 -16 49 -58 64 -39 14 -42 14 -25 0z"/>
<path d="M1537 1089 c4 -13 8 -18 11 -10 2 7 -1 18 -6 23 -8 8 -9 4 -5 -13z"/>
<path d="M2091 1054 c0 -11 3 -14 6 -6 3 7 2 16 -1 19 -3 4 -6 -2 -5 -13z"/>
<path d="M451 867 c-7 -9 2 -17 30 -29 21 -9 39 -12 39 -7 0 5 -4 9 -10 9 -5
0 -19 9 -29 19 -15 15 -22 17 -30 8z"/>
<path d="M2433 553 c4 -3 10 -3 14 0 3 4 0 7 -7 7 -7 0 -10 -3 -7 -7z"/>
<path d="M848 413 c12 -2 30 -2 40 0 9 3 -1 5 -23 4 -22 0 -30 -2 -17 -4z"/>
<path d="M3127 1329 c7 -7 15 -10 18 -7 3 3 -2 9 -12 12 -14 6 -15 5 -6 -5z"/>
<path d="M1869 1318 c9 -12 10 -18 2 -18 -6 0 -11 -4 -11 -9 0 -6 14 -5 33 2
26 9 28 12 12 15 -11 2 -27 9 -35 16 -13 10 -13 9 -1 -6z"/>
<path d="M2470 1320 c0 -7 3 -10 7 -7 3 4 3 10 0 14 -4 3 -7 0 -7 -7z"/>
<path d="M2413 1260 c-6 -30 -9 -57 -7 -59 8 -8 25 55 22 83 -2 26 -5 22 -15
-24z"/>
<path d="M1603 1263 c4 -3 10 -3 14 0 3 4 0 7 -7 7 -7 0 -10 -3 -7 -7z"/>
<path d="M2450 1220 c0 -7 3 -10 7 -7 3 4 3 10 0 14 -4 3 -7 0 -7 -7z"/>
<path d="M806 1199 c-10 -6 -14 -14 -10 -18 26 -18 62 -89 51 -100 -8 -8 -8
-14 1 -23 7 -7 12 -17 12 -22 0 -6 -4 -5 -9 3 -5 8 -11 9 -15 3 -3 -5 1 -13
10 -16 23 -9 67 39 59 64 -4 13 -1 22 9 26 8 3 17 13 21 22 5 14 4 14 -12 0
-34 -30 -60 -31 -67 -4 -3 13 -9 31 -12 40 -4 11 2 19 17 25 23 9 23 10 -6 10
-16 0 -38 -4 -49 -10z m71 -126 c-4 -3 -7 0 -7 7 0 7 3 10 7 7 3 -4 3 -10 0
-14z"/>
<path d="M2389 1165 c-8 -25 -6 -66 3 -81 9 -14 -34 -55 -85 -82 -36 -19 -36
-20 -12 -24 13 -3 22 -2 20 3 -3 4 12 17 33 29 42 24 77 71 62 86 -5 5 -10 27
-12 49 -2 29 -5 34 -9 20z"/>
<path d="M716 1155 c-11 -8 -15 -15 -10 -15 6 0 14 4 20 9 5 5 18 11 29 14 20
5 20 5 0 6 -11 0 -29 -6 -39 -14z"/>
<path d="M2783 1163 c4 -3 10 -3 14 0 3 4 0 7 -7 7 -7 0 -10 -3 -7 -7z"/>
<path d="M2810 1140 c0 -7 3 -10 7 -7 3 4 3 10 0 14 -4 3 -7 0 -7 -7z"/>
<path d="M1755 1120 c3 -5 8 -10 11 -10 3 0 2 5 -1 10 -3 6 -8 10 -11 10 -3 0
-2 -4 1 -10z"/>
<path d="M1785 1110 c3 -5 8 -10 11 -10 2 0 4 5 4 10 0 6 -5 10 -11 10 -5 0
-7 -4 -4 -10z"/>
<path d="M2620 1119 c0 -3 21 -28 46 -55 41 -44 45 -53 40 -85 -6 -40 1 -54
19 -39 21 17 -11 92 -61 141 -24 24 -44 41 -44 38z m97 -171 c-3 -8 -6 -5 -6
6 -1 11 2 17 5 13 3 -3 4 -12 1 -19z"/>
<path d="M2975 1090 c4 -6 -8 -11 -27 -11 -26 -1 -28 -3 -9 -6 14 -3 36 -12
50 -21 25 -16 26 -16 10 3 -9 11 -14 26 -12 33 3 6 0 12 -7 12 -6 0 -8 -4 -5
-10z"/>
<path d="M749 1073 c-13 -16 -12 -17 4 -4 9 7 17 15 17 17 0 8 -8 3 -21 -13z"/>
<path d="M2843 1063 c4 -3 10 -3 14 0 3 4 0 7 -7 7 -7 0 -10 -3 -7 -7z"/>
<path d="M2560 1050 c0 -7 3 -10 7 -7 3 4 3 10 0 14 -4 3 -7 0 -7 -7z"/>
<path d="M2883 1053 c9 -2 15 -8 12 -13 -3 -5 -13 -6 -22 -3 -15 6 -16 5 -3
-8 12 -14 16 -13 37 5 13 11 23 20 23 20 0 1 -15 2 -33 2 -17 1 -24 -1 -14 -3z"/>
<path d="M890 1030 c0 -5 5 -10 11 -10 5 0 7 5 4 10 -3 6 -8 10 -11 10 -2 0
-4 -4 -4 -10z"/>
<path d="M2513 1033 c4 -3 10 -3 14 0 3 4 0 7 -7 7 -7 0 -10 -3 -7 -7z"/>
<path d="M2848 1005 c5 -29 8 -31 15 -11 3 8 0 19 -7 25 -10 9 -12 6 -8 -14z"/>
<path d="M870 1010 c0 -7 3 -10 7 -7 3 4 3 10 0 14 -4 3 -7 0 -7 -7z"/>
<path d="M2462 992 c-24 -13 -41 -27 -37 -30 3 -3 11 0 17 6 7 7 20 12 29 12
16 0 46 27 38 34 -2 1 -23 -8 -47 -22z"/>
<path d="M480 960 c0 -7 3 -10 7 -7 3 4 3 10 0 14 -4 3 -7 0 -7 -7z"/>
<path d="M3520 920 c0 -5 5 -10 11 -10 5 0 7 5 4 10 -3 6 -8 10 -11 10 -2 0
-4 -4 -4 -10z"/>
<path d="M2789 881 c-20 -34 -10 -60 44 -115 20 -21 37 -45 37 -52 0 -8 5 -14
10 -14 14 0 13 27 -1 36 -8 4 -7 9 2 15 15 10 -17 45 -71 80 -22 15 -23 19
-12 44 17 37 11 41 -9 6z m56 -91 c16 -16 24 -30 19 -30 -6 0 -23 14 -39 30
-16 17 -24 30 -19 30 6 0 23 -13 39 -30z"/>
<path d="M3 873 c4 -3 10 -3 14 0 3 4 0 7 -7 7 -7 0 -10 -3 -7 -7z"/>
<path d="M3513 873 c4 -3 10 -3 14 0 3 4 0 7 -7 7 -7 0 -10 -3 -7 -7z"/>
<path d="M2752 850 c0 -14 2 -19 5 -12 2 6 2 18 0 25 -3 6 -5 1 -5 -13z"/>
<path d="M2850 866 c0 -2 8 -10 18 -17 15 -13 16 -12 3 4 -13 16 -21 21 -21
13z"/>
<path d="M3743 853 c4 -3 10 -3 14 0 3 4 0 7 -7 7 -7 0 -10 -3 -7 -7z"/>
<path d="M2555 824 c-9 -15 -12 -23 -6 -20 11 7 35 46 28 46 -3 0 -12 -12 -22
-26z"/>
<path d="M1840 831 c0 -5 7 -15 17 -22 15 -13 15 -12 4 9 -12 23 -21 28 -21
13z"/>
<path d="M2880 820 c0 -7 3 -10 7 -7 3 4 3 10 0 14 -4 3 -7 0 -7 -7z"/>
<path d="M2750 798 c0 -6 -6 -19 -14 -27 -7 -9 -21 -37 -31 -63 -19 -51 -21
-51 -73 -10 -20 16 -22 21 -12 47 7 17 7 32 1 38 -5 5 -12 -7 -16 -32 -8 -49
1 -64 57 -92 39 -20 39 -20 33 -128 -3 -63 -1 -128 5 -156 6 -27 7 -52 2 -59
-20 -25 -22 -45 -4 -39 15 6 14 3 -2 -15 -11 -12 -16 -25 -13 -29 4 -3 7 -1 7
6 0 7 5 9 11 5 8 -4 8 -9 0 -17 -18 -18 -13 -31 6 -16 9 8 14 9 10 3 -3 -6 5
-16 20 -23 31 -14 22 -28 -26 -37 -24 -5 -32 -4 -27 4 4 6 14 8 23 5 11 -4 14
-3 9 5 -16 26 -43 10 -37 -22 1 -4 -3 -14 -9 -21 -8 -10 1 -14 41 -19 63 -9
76 -1 17 9 -35 6 -39 8 -23 15 11 4 22 4 25 1 3 -4 12 -6 20 -5 8 0 33 2 55 4
26 2 32 4 18 7 -13 2 -23 9 -23 14 0 6 -5 7 -10 4 -11 -7 -26 22 -16 32 3 3
12 0 21 -7 9 -7 18 -10 22 -6 3 3 1 6 -7 6 -9 0 -10 3 -1 13 8 10 35 13 98 12
49 -1 69 0 46 2 -24 2 -43 8 -43 13 0 8 105 6 170 -4 28 -4 29 -4 5 2 -34 8
-42 30 -44 109 -1 42 2 51 13 47 9 -3 -8 40 -39 104 -30 60 -57 121 -60 135
-13 52 -24 37 -18 -23 4 -42 2 -60 -6 -60 -14 0 -18 10 -26 73 -6 41 -11 51
-38 65 -48 26 -86 70 -93 108 -6 32 -24 49 -24 22z m15 -90 c-3 -18 -12 -38
-20 -44 -8 -6 -12 -19 -8 -32 8 -34 -14 -26 -26 9 -13 38 9 92 34 83 8 -4 15
-1 15 5 0 6 2 11 5 11 3 0 3 -15 0 -32z m82 -45 c-4 -3 -10 -3 -14 0 -3 4 0 7
7 7 7 0 10 -3 7 -7z m-19 -55 c8 -11 7 -21 -7 -42 -18 -27 -18 -27 -25 -4 -3
13 -6 34 -6 48 0 20 -2 22 -10 10 -12 -18 -32 4 -23 27 5 13 45 -9 71 -39z
m13 25 c24 -27 24 -27 0 -12 -14 9 -27 21 -29 27 -6 19 3 14 29 -15z m47 -33
c-2 -7 -10 1 -17 16 -12 27 -11 28 4 12 10 -9 16 -21 13 -28z m-15 -21 c51
-23 54 -128 5 -251 -13 -35 -21 -35 -44 0 -24 35 -27 194 -5 235 17 31 13 30
44 16z m-96 -16 c-4 -3 -7 0 -7 7 0 7 3 10 7 7 3 -4 3 -10 0 -14z m-47 -35 c0
-10 -4 -18 -10 -18 -5 0 -10 15 -10 33 0 24 3 28 10 17 5 -8 10 -23 10 -32z
m27 15 c-4 -3 -7 0 -7 7 0 7 3 10 7 7 3 -4 3 -10 0 -14z m243 -69 c0 -4 -7 -1
-15 6 -13 11 -14 10 -9 -4 3 -9 12 -16 20 -16 8 0 11 -6 8 -15 -14 -36 -53 1
-54 51 0 17 3 34 7 37 6 6 43 -45 43 -59z m-243 29 c-4 -3 -10 -3 -14 0 -3 4
0 7 7 7 7 0 10 -3 7 -7z m27 -33 c16 -16 -2 -23 -36 -14 -45 13 -52 39 -7 30
18 -3 38 -11 43 -16z m153 -47 c-4 -3 -7 0 -7 7 0 7 3 10 7 7 3 -4 3 -10 0
-14z m88 -31 c-12 -13 -35 21 -23 35 10 13 13 11 20 -8 5 -12 6 -24 3 -27z
m-48 11 c-4 -3 -7 0 -7 7 0 7 3 10 7 7 3 -4 3 -10 0 -14z m-177 -25 c0 -6 -7
-5 -15 2 -8 7 -15 17 -15 22 0 6 7 5 15 -2 8 -7 15 -17 15 -22z m164 -70 c6
-63 5 -68 -13 -68 -29 0 -35 57 -14 150 8 36 18 4 27 -82z m46 66 c0 -2 -9 -4
-20 -4 -11 0 -20 4 -20 9 0 5 9 7 20 4 11 -3 20 -7 20 -9z m-240 -70 c0 -38
-3 -45 -17 -42 -14 3 -17 11 -14 43 6 73 31 72 31 -1z m250 20 c13 -32 13 -84
0 -84 -5 0 -12 17 -16 38 -4 20 -11 45 -16 55 -6 13 -5 17 7 17 8 0 20 -12 25
-26z m-204 5 c3 -6 1 -16 -6 -22 -10 -9 -11 -9 -6 1 4 6 2 12 -3 12 -6 0 -11
5 -11 10 0 13 17 13 26 -1z m171 -46 c-4 -3 -7 0 -7 7 0 7 3 10 7 7 3 -4 3
-10 0 -14z m-80 -8 c0 -8 -4 -15 -9 -15 -10 0 -11 14 -1 23 9 10 10 9 10 -8z
m-50 -32 c-4 -3 -10 -3 -14 0 -3 4 0 7 7 7 7 0 10 -3 7 -7z m-71 -32 c-4 -6
-14 -7 -23 -4 -15 6 -14 7 3 13 22 9 29 6 20 -9z m81 12 c-4 -3 -10 -3 -14 0
-3 4 0 7 7 7 7 0 10 -3 7 -7z"/>
<path d="M2731 684 c0 -11 3 -14 6 -6 3 7 2 16 -1 19 -3 4 -6 -2 -5 -13z"/>
<path d="M2900 480 c0 -7 3 -10 7 -7 3 4 3 10 0 14 -4 3 -7 0 -7 -7z"/>
<path d="M2932 787 c-17 -12 -32 -28 -32 -34 0 -8 7 -6 19 6 10 10 27 23 37
29 10 6 16 13 13 16 -3 3 -19 -5 -37 -17z"/>
<path d="M2630 749 c0 -8 7 -24 16 -35 14 -18 15 -18 8 6 -8 31 -24 50 -24 29z"/>
<path d="M3440 730 c8 -5 22 -10 30 -10 13 0 13 1 0 10 -8 5 -22 10 -30 10
-13 0 -13 -1 0 -10z"/>
<path d="M1841 714 c0 -11 3 -14 6 -6 3 7 2 16 -1 19 -3 4 -6 -2 -5 -13z"/>
<path d="M1148 713 c7 -3 16 -2 19 1 4 3 -2 6 -13 5 -11 0 -14 -3 -6 -6z"/>
<path d="M1256 699 c-2 -8 -7 -22 -10 -31 -9 -28 3 -21 15 8 5 15 7 29 5 32
-3 3 -7 -1 -10 -9z"/>
<path d="M1870 701 c0 -5 5 -13 10 -16 6 -3 10 -2 10 4 0 5 -4 13 -10 16 -5 3
-10 2 -10 -4z"/>
<path d="M2920 670 c0 -7 3 -10 7 -7 3 4 3 10 0 14 -4 3 -7 0 -7 -7z"/>
<path d="M40 580 c8 -5 20 -10 25 -10 6 0 3 5 -5 10 -8 5 -19 10 -25 10 -5 0
-3 -5 5 -10z"/>
<path d="M50 479 c0 -5 5 -7 10 -4 6 3 10 8 10 11 0 2 -4 4 -10 4 -5 0 -10 -5
-10 -11z"/>
<path d="M153 482 c-13 -2 -23 -8 -23 -13 0 -12 47 -12 55 0 7 13 -5 18 -32
13z"/>
<path d="M505 410 c-7 -11 38 -24 57 -18 7 3 -2 10 -20 16 -18 6 -34 7 -37 2z"/>
<path d="M480 374 c-17 -9 -26 -10 -31 -2 -4 6 -9 6 -12 1 -3 -5 -2 -15 2 -22
6 -9 11 -10 15 -2 4 6 18 8 30 5 18 -4 25 -1 29 15 6 24 2 24 -33 5z"/>
<path d="M680 374 c-25 -13 -25 -13 8 -14 17 0 32 4 32 9 0 18 -15 19 -40 5z"/>
<path d="M377 366 c-4 -10 -5 -21 -2 -24 9 -9 17 6 13 25 -3 17 -4 17 -11 -1z"/>
<path d="M570 352 c0 -5 7 -15 15 -22 8 -7 15 -8 15 -2 0 5 -7 15 -15 22 -8 7
-15 8 -15 2z"/>
<path d="M11 326 c-9 -11 -7 -15 12 -18 20 -4 23 -1 19 14 -5 22 -15 23 -31 4z"/>
<path d="M200 310 c-13 -8 -12 -10 3 -10 9 0 17 5 17 10 0 12 -1 12 -20 0z"/>
<path d="M710 306 c0 -8 5 -18 10 -21 6 -3 10 1 10 9 0 8 -4 18 -10 21 -5 3
-10 -1 -10 -9z"/>
<path d="M124 295 c8 -8 16 -15 19 -15 2 0 4 7 4 15 0 8 -9 15 -19 15 -17 0
-18 -2 -4 -15z"/>
<path d="M564 295 c-19 -14 -19 -14 2 -15 12 0 24 7 28 15 7 19 -5 19 -30 0z"/>
<path d="M675 300 c3 -5 8 -10 11 -10 2 0 4 5 4 10 0 6 -5 10 -11 10 -5 0 -7
-4 -4 -10z"/>
<path d="M2248 288 c7 -9 9 -24 6 -34 -5 -15 -4 -16 5 -8 16 15 11 46 -9 52
-12 4 -13 3 -2 -10z"/>
<path d="M23 283 c4 -3 10 -3 14 0 3 4 0 7 -7 7 -7 0 -10 -3 -7 -7z"/>
<path d="M655 270 c-13 -6 -15 -9 -5 -9 8 0 22 4 30 9 18 12 2 12 -25 0z"/>
<path d="M980 265 c0 -5 5 -17 10 -25 5 -8 10 -10 10 -5 0 6 -5 17 -10 25 -5
8 -10 11 -10 5z"/>
<path d="M273 253 c4 -3 10 -3 14 0 3 4 0 7 -7 7 -7 0 -10 -3 -7 -7z"/>
<path d="M1313 253 c4 -3 10 -3 14 0 3 4 0 7 -7 7 -7 0 -10 -3 -7 -7z"/>
<path d="M2095 220 c-3 -5 -1 -10 4 -10 6 0 11 5 11 10 0 6 -2 10 -4 10 -3 0
-8 -4 -11 -10z"/>
<path d="M997 200 c3 -11 7 -20 9 -20 2 0 4 9 4 20 0 11 -4 20 -9 20 -5 0 -7
-9 -4 -20z"/>
<path d="M3393 213 c4 -3 10 -3 14 0 3 4 0 7 -7 7 -7 0 -10 -3 -7 -7z"/>
<path d="M3235 200 c3 -5 25 -9 48 -9 40 1 40 2 12 9 -44 11 -67 11 -60 0z"/>
<path d="M198 193 c7 -3 16 -2 19 1 4 3 -2 6 -13 5 -11 0 -14 -3 -6 -6z"/>
<path d="M1413 193 c4 -3 10 -3 14 0 3 4 0 7 -7 7 -7 0 -10 -3 -7 -7z"/>
<path d="M1943 193 c4 -3 10 -3 14 0 3 4 0 7 -7 7 -7 0 -10 -3 -7 -7z"/>
<path d="M3343 193 c4 -3 10 -3 14 0 3 4 0 7 -7 7 -7 0 -10 -3 -7 -7z"/>
<path d="M2443 179 c-11 -5 2 -8 35 -8 28 -1 52 1 52 3 0 8 -69 12 -87 5z"/>
<path d="M1065 168 c-16 -4 -38 -5 -47 -2 -12 3 -18 0 -18 -10 0 -15 -13 -20
-70 -29 -17 -3 -13 -5 13 -6 21 0 55 8 77 19 39 20 120 28 120 11 0 -5 -15
-12 -32 -16 -29 -7 -30 -9 -10 -12 13 -3 19 -9 16 -15 -5 -8 1 -9 17 -5 13 4
27 7 32 7 4 0 7 15 7 33 0 31 -2 33 -37 33 -21 0 -51 -3 -68 -8z m82 -45 c-4
-3 -10 -3 -14 0 -3 4 0 7 7 7 7 0 10 -3 7 -7z"/>
<path d="M2265 162 c2 -31 15 -42 51 -42 46 0 48 30 2 31 -33 1 -33 1 0 10 43
13 40 16 -11 17 -35 1 -43 -2 -42 -16z"/>
<path d="M2940 159 c0 -4 -10 -5 -22 -1 -13 3 -19 1 -15 -5 4 -6 27 -13 53
-16 47 -5 81 -25 57 -34 -18 -7 -16 -23 3 -23 8 0 13 4 9 9 -3 5 0 13 6 17 8
4 7 9 -2 15 -11 7 -11 9 -1 9 7 0 10 5 7 10 -8 13 1 13 25 0 16 -8 18 -8 14 5
-7 16 -6 16 -81 20 -29 1 -53 -2 -53 -6z"/>
<path d="M2508 133 c7 -3 16 -2 19 1 4 3 -2 6 -13 5 -11 0 -14 -3 -6 -6z"/>
<path d="M395 120 c27 -12 87 -12 105 0 10 7 -6 10 -55 9 -48 0 -64 -3 -50 -9z"/>
<path d="M2103 113 c15 -2 39 -2 55 0 15 2 2 4 -28 4 -30 0 -43 -2 -27 -4z"/>
<path d="M2208 113 c12 -2 30 -2 40 0 9 3 -1 5 -23 4 -22 0 -30 -2 -17 -4z"/>
<path d="M2933 113 c9 -2 23 -2 30 0 6 3 -1 5 -18 5 -16 0 -22 -2 -12 -5z"/>
<path d="M1025 100 c3 -5 8 -10 11 -10 3 0 2 5 -1 10 -3 6 -8 10 -11 10 -3 0
-2 -4 1 -10z"/>
<path d="M2624 89 c-19 -22 -19 -22 4 -10 12 6 22 16 22 21 0 15 -5 12 -26
-11z"/>
<path d="M836 91 c-5 -8 84 -3 93 5 2 2 -16 4 -42 4 -25 0 -48 -4 -51 -9z"/>
<path d="M2088 93 c7 -3 16 -2 19 1 4 3 -2 6 -13 5 -11 0 -14 -3 -6 -6z"/>
<path d="M2783 93 c4 -3 10 -3 14 0 3 4 0 7 -7 7 -7 0 -10 -3 -7 -7z"/>
<path d="M1793 83 c4 -3 10 -3 14 0 3 4 0 7 -7 7 -7 0 -10 -3 -7 -7z"/>
<path d="M2583 83 c4 -3 10 -3 14 0 3 4 0 7 -7 7 -7 0 -10 -3 -7 -7z"/>
<path d="M2818 83 c7 -3 16 -2 19 1 4 3 -2 6 -13 5 -11 0 -14 -3 -6 -6z"/>
<path d="M3071 81 c-9 -6 -10 -11 -2 -15 6 -4 11 -2 11 4 0 7 6 10 14 7 8 -3
27 -2 43 3 27 8 26 8 -12 9 -22 0 -46 -3 -54 -8z"/>
<path d="M1140 60 c0 -5 -10 -10 -22 -10 -55 0 -1 -12 61 -14 39 -1 65 2 58 6
-7 4 -20 8 -29 8 -10 0 -18 5 -18 10 0 6 -11 10 -25 10 -14 0 -25 -4 -25 -10z"/>
<path d="M978 53 c6 -2 18 -2 25 0 6 3 1 5 -13 5 -14 0 -19 -2 -12 -5z"/>
<path d="M1058 53 c7 -3 16 -2 19 1 4 3 -2 6 -13 5 -11 0 -14 -3 -6 -6z"/>
<path d="M2714 45 c11 -8 27 -15 35 -15 9 0 3 7 -13 15 -36 19 -47 19 -22 0z"/>
<path d="M683 43 c9 -2 25 -2 35 0 9 3 1 5 -18 5 -19 0 -27 -2 -17 -5z"/>
<path d="M1570 40 c18 -11 80 -13 80 -2 0 4 -21 8 -48 10 -34 1 -43 -1 -32 -8z"/>
<path d="M2578 43 c6 -2 18 -2 25 0 6 3 1 5 -13 5 -14 0 -19 -2 -12 -5z"/>
<path d="M3058 43 c7 -3 16 -2 19 1 4 3 -2 6 -13 5 -11 0 -14 -3 -6 -6z"/>
<path d="M1688 33 c12 -2 32 -2 45 0 12 2 2 4 -23 4 -25 0 -35 -2 -22 -4z"/>
<path d="M1893 23 c9 -2 23 -2 30 0 6 3 -1 5 -18 5 -16 0 -22 -2 -12 -5z"/>
<path d="M488 3 c7 -3 16 -2 19 1 4 3 -2 6 -13 5 -11 0 -14 -3 -6 -6z"/>
<path d="M978 3 c7 -3 16 -2 19 1 4 3 -2 6 -13 5 -11 0 -14 -3 -6 -6z"/>
<path d="M3753 3 c4 -3 10 -3 14 0 3 4 0 7 -7 7 -7 0 -10 -3 -7 -7z"/>
</g>
</svg>
