<?xml version="1.0" standalone="no"?>
<!DOCTYPE svg PUBLIC "-//W3C//DTD SVG 20010904//EN"
 "http://www.w3.org/TR/2001/REC-SVG-20010904/DTD/svg10.dtd">
<svg version="1.0" xmlns="http://www.w3.org/2000/svg"
 width="344.000000pt" height="256.000000pt" viewBox="0 0 344.000000 256.000000"
 preserveAspectRatio="xMidYMid meet">
<metadata>
Created by potrace 1.16, written by Peter Selinger 2001-2019
</metadata>
<g transform="translate(0.000000,256.000000) scale(0.100000,-0.100000)"
fill="#000000" stroke="none">
<path d="M52 2510 c-3 -51 12 -125 27 -135 10 -5 9 14 -4 123 -9 75 -19 80
-23 12z"/>
<path d="M106 2549 c4 -8 7 -30 5 -51 -3 -42 54 -112 94 -113 12 -1 27 -5 34
-9 19 -12 23 -1 12 35 -5 19 -10 26 -10 17 -1 -22 -27 -24 -35 -2 -3 9 -6 29
-6 44 0 16 -4 31 -8 34 -5 3 -6 -20 -4 -51 8 -93 -15 -62 -42 57 -3 14 -15 31
-27 38 -17 11 -20 11 -13 1z m34 -49 c0 -5 -5 -10 -11 -10 -5 0 -7 5 -4 10 3
6 8 10 11 10 2 0 4 -4 4 -10z"/>
<path d="M230 2555 c0 0 9 -31 19 -70 17 -66 44 -103 39 -54 -2 16 3 24 15 27
15 3 18 0 12 -17 -6 -19 -2 -21 35 -21 23 0 50 -4 60 -10 20 -11 53 -3 45 10
-10 17 18 23 30 7 18 -25 28 -21 71 21 41 41 81 102 66 102 -5 0 -15 -11 -22
-25 -18 -33 -30 -32 -30 4 0 24 -4 29 -20 28 -11 -1 -20 -8 -20 -15 0 -12 3
-12 15 -2 8 7 15 8 15 4 0 -15 -38 -34 -55 -28 -12 5 -14 0 -9 -24 4 -18 1
-32 -6 -37 -17 -11 -63 4 -57 19 3 7 -3 23 -13 36 -17 23 -27 23 -62 -2 -14
-10 -20 -10 -30 1 -11 12 -10 13 4 8 12 -4 15 -2 11 9 -4 11 5 14 43 16 49 1
49 1 4 7 -25 3 -47 3 -50 0 -12 -14 -40 -18 -40 -5 0 8 -13 12 -35 12 -19 -1
-35 -1 -35 -1z m35 -35 c3 -5 4 -10 1 -10 -3 0 -8 5 -11 10 -3 6 -4 10 -1 10
3 0 8 -4 11 -10z m277 -45 c6 -27 -6 -24 -22 6 -8 15 -7 19 3 19 8 0 17 -11
19 -25z m-215 8 c-4 -3 -10 -3 -14 0 -3 4 0 7 7 7 7 0 10 -3 7 -7z m99 -34
c11 -18 -12 -32 -33 -20 -10 6 -13 11 -5 11 7 0 10 5 7 10 -3 6 1 10 9 10 8 0
18 -5 22 -11z"/>
<path d="M475 2550 c-4 -6 5 -10 19 -10 14 0 26 5 26 10 0 6 -9 10 -19 10 -11
0 -23 -4 -26 -10z"/>
<path d="M654 2551 c8 -12 -12 -45 -64 -111 -35 -44 -35 -44 -1 -25 19 11 35
28 37 39 4 27 17 37 34 26 13 -9 13 -11 0 -20 -11 -7 5 -10 53 -10 38 0 67 4
67 10 0 6 -4 10 -10 10 -5 0 -7 7 -4 15 7 17 3 18 -20 9 -14 -5 -14 -9 -4 -23
12 -14 11 -14 -4 -2 -10 7 -16 17 -13 21 3 4 -2 11 -11 14 -9 3 -14 15 -12 28
2 19 -2 24 -26 26 -18 2 -26 0 -22 -7z m30 -47 c4 -9 4 -19 2 -21 -8 -8 -26 8
-26 23 0 19 16 18 24 -2z m23 -40 c-3 -3 -12 -4 -19 -1 -8 3 -5 6 6 6 11 1 17
-2 13 -5z"/>
<path d="M1330 2550 c0 -7 3 -10 7 -7 3 4 3 10 0 14 -4 3 -7 0 -7 -7z"/>
<path d="M2163 2540 c-7 -10 -23 -21 -35 -23 -13 -3 -5 -5 16 -4 24 1 41 -3
44 -11 2 -6 -1 -12 -7 -12 -6 0 -11 -4 -11 -8 0 -13 133 -15 177 -3 22 6 52
24 68 41 37 39 21 39 -20 0 -33 -32 -126 -57 -110 -29 6 11 5 12 -6 2 -31 -30
-96 8 -86 49 2 7 2 9 -1 4 -2 -4 -7 -3 -11 2 -4 7 -11 4 -18 -8z"/>
<path d="M3052 2546 c-17 -7 -37 -17 -44 -24 -7 -7 -28 -12 -47 -12 -20 0 -43
-5 -51 -10 -10 -6 3 -7 40 -3 59 7 140 38 140 53 0 6 -1 9 -2 9 -2 -1 -18 -7
-36 -13z"/>
<path d="M3114 2545 c-3 -7 -30 -26 -59 -41 -30 -15 -52 -30 -50 -34 5 -8 -55
-35 -100 -45 -16 -4 -49 -27 -75 -53 -25 -25 -48 -45 -53 -44 -4 1 -6 -3 -5
-10 3 -14 -137 -87 -167 -88 -11 0 -27 -5 -35 -11 -33 -23 67 4 136 36 52 25
83 49 117 88 32 38 57 57 87 66 52 16 140 60 120 61 -8 1 3 8 24 16 31 11 47
12 74 3 18 -6 36 -9 38 -6 3 3 -4 8 -15 12 -21 6 -21 6 -1 23 20 17 20 17 -5
29 -21 9 -27 9 -31 -2z"/>
<path d="M2439 2503 c-24 -26 -36 -44 -26 -40 10 4 41 7 68 7 34 0 48 4 43 11
-4 7 0 9 12 5 11 -3 26 -1 34 4 11 7 7 10 -17 10 -17 0 -35 -4 -38 -10 -3 -5
-22 -10 -41 -10 -35 0 -35 0 -8 35 37 48 26 44 -27 -12z"/>
<path d="M3228 2543 c7 -3 16 -2 19 1 4 3 -2 6 -13 5 -11 0 -14 -3 -6 -6z"/>
<path d="M823 2528 c-25 -12 -34 -40 -27 -77 5 -25 8 -26 57 -21 34 3 51 10
50 18 -3 14 9 16 23 3 5 -5 37 -12 70 -16 57 -6 62 -5 67 14 3 14 0 21 -9 21
-8 0 -17 6 -20 14 -4 11 -12 13 -30 6 -20 -8 -24 -7 -24 10 0 21 -15 27 -25
10 -3 -5 -13 -6 -23 -3 -16 6 -16 5 1 -14 9 -11 17 -23 17 -27 0 -10 -53 26
-73 51 -21 26 -23 26 -54 11z m42 -8 c3 -6 -1 -7 -9 -4 -18 7 -21 14 -7 14 6
0 13 -4 16 -10z m-5 -31 c15 -26 6 -49 -19 -49 -34 0 -34 65 1 69 4 1 12 -8
18 -20z m107 -6 c-4 -3 -7 0 -7 7 0 7 3 10 7 7 3 -4 3 -10 0 -14z"/>
<path d="M11 2500 c0 -14 7 -43 14 -65 13 -40 13 -40 8 5 -8 58 -22 98 -22 60z"/>
<path d="M3199 2500 c-13 -10 -18 -19 -11 -20 6 0 12 -8 12 -17 0 -15 2 -14
14 3 13 17 13 19 -2 23 -12 2 -11 6 9 17 13 7 19 13 13 14 -7 0 -22 -9 -35
-20z"/>
<path d="M1123 2493 c4 -3 10 -3 14 0 3 4 0 7 -7 7 -7 0 -10 -3 -7 -7z"/>
<path d="M1340 2483 c0 -7 5 -15 10 -18 16 -10 12 -43 -6 -47 -14 -3 -13 -6 5
-22 21 -19 21 -19 21 0 0 11 5 25 11 31 14 14 39 6 39 -13 0 -21 59 -13 66 10
7 21 -13 37 -58 47 -20 5 -28 3 -28 -7 0 -17 -30 -8 -47 14 -7 9 -13 11 -13 5z
m124 -55 c-3 -4 -11 -5 -19 -1 -21 7 -19 12 4 10 11 0 18 -5 15 -9z"/>
<path d="M3058 2473 c7 -3 16 -2 19 1 4 3 -2 6 -13 5 -11 0 -14 -3 -6 -6z"/>
<path d="M1220 2459 c0 -5 -4 -7 -10 -4 -5 3 -10 -3 -10 -14 0 -30 25 -26 28
4 1 14 0 25 -3 25 -3 0 -5 -5 -5 -11z"/>
<path d="M1250 2450 c0 -5 5 -10 10 -10 6 0 10 5 10 10 0 6 -4 10 -10 10 -5 0
-10 -4 -10 -10z"/>
<path d="M3273 2453 c4 -3 10 -3 14 0 3 4 0 7 -7 7 -7 0 -10 -3 -7 -7z"/>
<path d="M3080 2427 c0 -8 15 -18 34 -23 34 -9 34 -9 18 -48 -17 -38 -17 -38
-97 -32 -44 3 -100 6 -125 6 -45 0 -45 0 -15 25 17 13 37 24 45 25 8 0 32 9
51 19 28 15 39 17 48 8 9 -9 11 -8 6 6 -9 21 -11 21 -60 -2 -22 -11 -54 -25
-71 -31 -17 -6 -44 -30 -62 -55 -51 -73 -171 -134 -304 -154 -63 -10 -63 -10
5 -5 105 7 247 69 296 128 11 13 32 16 100 15 160 -2 174 -14 113 -94 -21 -28
-47 -65 -57 -82 -19 -32 -21 -33 -75 -28 -30 3 -140 12 -245 20 -104 9 -199
17 -209 18 -22 2 -33 -25 -35 -83 -4 -95 -65 -157 -145 -145 -30 5 -62 1 -107
-13 -131 -40 -196 -48 -219 -27 -11 10 -20 14 -20 9 0 -21 26 -34 65 -34 47 0
92 -51 80 -89 -4 -13 -2 -21 5 -21 8 0 11 11 8 30 -3 17 -1 30 4 30 4 0 8 -6
8 -12 0 -9 3 -10 8 -2 11 18 65 -18 73 -49 4 -15 3 -27 -2 -27 -5 0 -9 8 -9
18 0 9 -5 24 -11 32 -8 11 -9 7 -5 -20 6 -34 23 -53 38 -44 4 3 8 0 8 -5 0 -6
4 -11 10 -11 16 0 23 50 11 77 -15 32 -10 37 28 28 30 -6 31 -8 31 -66 0 -51
2 -59 18 -57 10 2 20 15 23 33 6 27 7 25 8 -12 0 -24 6 -43 11 -43 15 0 12 47
-5 80 -16 31 -27 39 -24 18 3 -27 -1 -48 -11 -48 -5 0 -10 20 -10 44 0 44 0
44 28 35 32 -11 265 -75 340 -94 30 -8 56 -16 59 -18 10 -11 15 -117 6 -117
-6 0 -13 23 -15 51 -5 45 -23 77 -37 63 -3 -3 0 -8 7 -13 6 -4 14 -23 17 -41
5 -35 5 -35 -10 -2 -15 31 -33 46 -22 18 3 -8 -1 -17 -9 -20 -13 -5 -15 1 -12
31 2 20 -2 38 -7 40 -6 2 -9 -15 -7 -43 3 -36 0 -49 -17 -65 -24 -23 -25 -32
-8 -79 27 -73 89 -160 115 -160 4 0 15 -11 27 -24 13 -15 65 -40 150 -70 175
-62 211 -93 186 -159 -16 -41 -51 -44 -144 -12 -113 38 -149 46 -140 31 3 -6
-2 -4 -13 5 -23 20 -57 33 -49 19 3 -6 1 -10 -4 -10 -6 0 -11 5 -11 12 0 6 -3
9 -6 5 -4 -3 -13 1 -21 9 -8 8 -19 12 -24 8 -6 -3 -16 0 -24 6 -8 7 -26 10
-40 8 -15 -3 -22 -1 -18 5 4 6 0 8 -10 4 -10 -4 -17 -2 -17 4 0 7 -11 9 -25 7
-13 -3 -22 -1 -19 3 3 5 0 9 -5 9 -6 0 -11 -4 -11 -8 0 -12 -79 1 -109 17 -14
8 -21 9 -17 2 4 -6 2 -11 -3 -11 -6 0 -11 5 -11 11 0 6 -7 8 -16 5 -8 -3 -12
-2 -9 4 6 9 -8 39 -33 69 -63 79 -64 79 -32 17 29 -57 38 -96 22 -96 -5 0 -14
10 -20 23 -10 20 -11 19 -11 -15 -1 -36 19 -53 33 -29 6 9 12 8 151 -15 84
-14 201 -42 270 -65 17 -6 53 -16 80 -23 28 -7 61 -18 75 -26 24 -13 24 -13 3
-21 -12 -4 -49 -7 -82 -6 -34 1 -70 -5 -84 -12 -14 -8 -36 -11 -49 -8 -36 9
-116 74 -133 107 -9 17 -20 30 -26 30 -6 0 -6 -6 0 -18 7 -12 7 -22 0 -29 -6
-6 0 -14 18 -24 68 -35 125 -82 110 -91 -14 -7 -121 -32 -190 -43 -16 -3 -32
-7 -37 -10 -4 -3 -40 -9 -81 -15 -40 -6 -78 -15 -84 -20 -6 -5 -29 -12 -50
-15 -40 -6 -40 -6 -77 74 -40 85 -44 101 -28 101 6 0 10 -8 10 -17 1 -17 1
-17 10 -1 6 9 30 26 55 38 46 22 62 49 52 87 -3 12 -5 9 -6 -9 -1 -37 -21 -46
-21 -10 0 59 -13 92 -55 136 -49 51 -107 85 -113 67 -4 -13 -56 25 -57 42 -4
75 -32 176 -63 221 -43 64 -56 96 -39 96 19 0 126 -33 302 -94 87 -30 161 -54
163 -52 1 2 -46 20 -105 41 -59 20 -150 52 -200 71 -51 19 -99 34 -106 34 -7
0 -30 9 -52 20 -46 23 -69 26 -38 5 13 -9 19 -22 17 -33 -3 -10 12 -43 35 -77
41 -60 61 -128 61 -203 0 -26 9 -45 35 -73 26 -29 35 -48 35 -74 0 -21 12 -53
30 -82 32 -50 36 -75 20 -118 -8 -21 -6 -32 8 -53 32 -46 81 -156 79 -177 -1
-11 3 -19 10 -18 6 2 37 -27 69 -63 54 -62 57 -68 62 -128 11 -165 -93 -172
-169 -11 -16 33 -29 52 -29 42 0 -27 57 -134 80 -150 18 -13 19 -16 5 -27 -21
-18 -63 22 -105 102 -28 53 -31 65 -25 111 7 47 6 50 -9 38 -9 -7 -16 -19 -16
-25 0 -7 -7 -21 -16 -32 -8 -10 -13 -13 -9 -6 8 16 -4 15 -24 -2 -49 -42 -233
-62 -275 -31 -18 14 -18 15 -2 15 33 0 6 19 -52 35 -31 9 -65 24 -75 33 -9 8
-20 13 -23 9 -7 -7 66 -57 85 -57 8 0 11 -3 8 -7 -18 -17 77 -55 153 -62 43
-4 77 -4 74 0 -2 4 5 9 15 12 31 8 14 -27 -22 -46 -83 -44 -160 -38 -200 16
-12 16 -44 52 -72 78 -51 49 -54 56 -58 119 -2 35 -2 35 38 32 22 -2 42 -7 45
-12 5 -8 83 -40 97 -40 18 0 -24 29 -45 32 -38 4 -51 49 -38 129 8 46 7 65 -3
81 -7 11 -17 48 -22 82 -8 47 -17 68 -42 94 -35 37 -32 40 15 13 18 -10 51
-21 73 -24 40 -6 40 -6 -3 8 -68 22 -112 53 -112 80 0 33 24 50 41 29 12 -15
11 -16 -11 -10 -24 7 -24 6 -6 -8 11 -9 27 -17 35 -17 9 -1 26 -3 39 -4 17 -2
21 2 18 14 -11 34 -8 247 3 274 6 16 7 26 3 23 -5 -3 -15 -23 -22 -46 -17 -52
-35 -65 -25 -19 17 79 35 108 71 115 34 6 34 6 13 25 -22 19 -22 19 28 19 60
0 113 9 113 20 0 4 -21 3 -47 -1 -56 -11 -81 -4 -110 29 -22 25 -22 25 -16
-15 4 -34 0 -47 -24 -81 -19 -25 -35 -65 -42 -103 -7 -33 -15 -68 -18 -77 -4
-9 -2 -13 4 -9 15 10 24 -48 13 -79 -14 -36 -27 -22 -32 36 -3 28 -8 53 -12
57 -8 8 -35 -27 -36 -47 0 -20 -80 -131 -89 -125 -5 2 -17 -2 -27 -10 -25 -19
-40 -19 -24 0 7 8 10 15 7 15 -10 0 -96 -51 -106 -64 -6 -7 -23 -12 -37 -10
-14 1 -41 -4 -60 -12 -19 -8 -39 -12 -45 -8 -6 3 -18 0 -27 -8 -41 -35 -72
-49 -65 -31 4 11 3 14 -5 9 -7 -4 -12 -13 -12 -20 0 -7 -16 -20 -36 -29 -19
-10 -33 -13 -29 -7 3 5 2 10 -3 10 -5 0 -14 -12 -20 -26 -7 -14 -16 -23 -21
-19 -6 3 -14 -3 -20 -12 -6 -10 -11 -13 -11 -6 0 6 7 18 15 27 33 32 13 28
-22 -6 -39 -36 -152 -103 -160 -94 -3 3 -12 -1 -20 -9 -8 -8 -29 -15 -46 -16
-18 0 -47 -2 -66 -5 -27 -3 -40 1 -60 20 -14 14 -52 38 -83 55 -68 35 -139 83
-158 106 -7 9 -23 21 -34 26 -23 11 32 -42 113 -110 42 -35 52 -49 48 -67 -2
-13 0 -21 4 -18 5 3 9 1 9 -4 0 -6 -11 -9 -24 -8 -13 0 -22 4 -20 8 7 11 -55
40 -68 32 -7 -4 -8 -3 -4 4 4 7 -4 17 -21 24 -32 15 -41 22 -107 82 -31 28
-45 49 -41 57 5 7 4 10 -2 6 -15 -9 -71 74 -93 139 -42 122 -21 221 60 277 13
9 19 17 13 17 -18 0 -73 -50 -98 -89 -20 -33 -21 -42 -14 -101 13 -91 67 -240
88 -240 4 0 16 -19 28 -43 13 -26 37 -54 64 -71 24 -16 55 -37 69 -47 14 -10
59 -35 100 -56 54 -28 99 -62 162 -124 49 -48 88 -82 88 -75 0 6 14 -4 30 -22
39 -42 49 -41 16 2 -36 47 -33 54 5 12 17 -20 28 -40 24 -46 -3 -5 8 -23 25
-40 16 -16 30 -26 30 -22 0 7 53 -43 118 -112 94 -100 176 -177 224 -209 29
-19 71 -52 92 -71 48 -44 117 -96 128 -96 5 0 -31 33 -79 74 -48 40 -97 83
-107 95 -11 11 -22 21 -26 21 -4 0 -25 17 -47 38 -21 20 -52 49 -68 64 -86 77
-129 129 -114 139 11 7 11 9 -4 9 -25 0 -107 72 -168 147 -28 35 -55 61 -59
58 -5 -3 -17 5 -27 18 -10 13 -24 22 -30 20 -12 -4 -62 44 -63 60 0 4 17 -1
38 -13 20 -11 57 -29 81 -39 43 -20 43 -20 38 4 -2 14 0 25 4 25 5 0 9 -6 9
-13 0 -25 37 -49 62 -42 14 4 18 3 11 -2 -9 -6 7 -20 51 -46 40 -22 72 -50 86
-72 23 -37 40 -42 21 -7 -18 33 -13 35 19 8 17 -14 37 -23 45 -20 13 5 35 -47
35 -85 0 -7 14 -30 31 -50 16 -20 38 -46 48 -58 10 -12 36 -26 58 -32 27 -7
43 -18 46 -31 3 -11 13 -23 24 -27 10 -3 30 -15 45 -25 29 -20 42 -23 33 -8
-9 14 -5 13 40 -10 22 -11 51 -20 65 -20 15 0 30 -3 34 -7 4 -5 36 -8 70 -9
55 -1 62 2 63 19 2 26 11 33 24 20 8 -8 8 -13 0 -17 -6 -4 -11 -12 -11 -17 0
-5 11 -2 24 6 22 15 25 15 34 -1 9 -17 42 -29 42 -16 0 3 -10 16 -21 28 -18
19 -55 215 -59 306 0 4 17 -10 39 -32 21 -21 51 -42 67 -45 49 -11 50 -13 17
-20 -18 -4 -33 -12 -33 -17 0 -6 8 -7 18 -3 9 4 40 14 67 22 70 21 125 50 162
86 37 35 53 32 24 -4 -33 -42 -35 -219 -3 -272 12 -21 17 -37 11 -37 -6 0 -22
-9 -36 -20 -30 -24 -14 -26 31 -5 36 17 45 69 17 95 -11 11 -12 9 -6 -11 6
-19 5 -22 -5 -12 -28 27 -26 175 3 194 5 4 7 14 4 23 -3 8 2 24 11 36 16 20
17 19 13 -31 -2 -29 2 -86 9 -126 10 -57 10 -76 1 -87 -17 -20 -5 -36 25 -36
17 0 27 8 34 24 5 13 19 28 32 31 13 4 26 13 30 19 5 8 8 7 8 -2 0 -7 5 -10
10 -7 6 3 10 24 10 47 0 40 0 40 24 24 24 -15 26 -14 58 14 18 17 41 33 50 36
16 5 18 18 18 102 0 97 0 97 -67 172 -66 74 -66 74 -39 81 15 4 34 5 42 2 8
-3 20 -1 27 4 22 18 54 21 54 6 0 -8 -6 -12 -12 -9 -7 2 -18 0 -26 -5 -22 -14
25 -12 56 3 20 9 28 9 38 -2 8 -8 8 -11 1 -7 -7 4 -25 0 -40 -8 -18 -9 -40
-13 -58 -9 -25 5 -27 4 -15 -8 14 -16 36 -13 149 16 30 8 82 20 115 26 33 7
88 19 122 27 34 8 67 12 72 9 5 -4 11 -2 13 4 6 19 127 10 203 -15 19 -6 19
-6 1 9 -10 8 -38 18 -62 22 -59 9 -60 33 -1 32 23 0 55 3 71 7 19 5 31 4 36
-5 6 -9 12 -9 29 -1 14 8 21 8 21 1 0 -5 5 -10 10 -10 6 0 10 7 10 15 0 16 60
45 92 45 45 0 78 91 43 120 -8 7 -15 19 -15 26 0 8 -4 14 -10 14 -14 0 -13
-12 4 -35 25 -37 23 -58 -10 -87 -17 -16 -38 -28 -46 -28 -8 0 -18 -4 -24 -10
-14 -14 -109 -26 -100 -12 3 6 21 14 39 17 78 17 120 73 104 137 -11 42 -66
98 -95 97 -21 -1 -23 -2 -7 -6 23 -6 53 -30 66 -55 7 -14 1 -12 -27 7 -20 14
-41 25 -46 25 -35 0 -123 65 -123 91 0 8 -62 68 -67 65 -1 -1 -14 9 -28 23
-14 13 -18 20 -10 16 20 -12 -32 50 -69 80 -16 14 -34 25 -41 25 -6 0 -22 8
-34 18 -21 16 -21 18 -4 35 15 14 18 14 18 2 0 -8 8 -15 17 -15 13 0 14 3 5
12 -7 7 -12 19 -12 28 0 10 6 8 19 -10 11 -13 19 -29 18 -35 -1 -5 9 -11 22
-13 23 -4 23 -3 19 65 -3 70 -3 70 112 36 503 -149 502 -149 480 -134 -8 5
-103 35 -210 66 -455 131 -422 113 -348 195 34 37 83 81 109 96 52 30 62 47
79 136 20 100 50 169 105 243 36 47 58 88 65 120 6 26 15 56 20 65 8 16 5 18
-21 16 -16 -1 -32 1 -35 6 -8 13 -34 9 -34 -5z m77 -14 c-4 -3 -10 -3 -14 0
-3 4 0 7 7 7 7 0 10 -3 7 -7z m-650 -290 c-4 -3 -10 -3 -14 0 -3 4 0 7 7 7 7
0 10 -3 7 -7z m30 0 c-4 -3 -10 -3 -14 0 -3 4 0 7 7 7 7 0 10 -3 7 -7z m60 -9
c-3 -3 -12 -4 -19 -1 -8 3 -5 6 6 6 11 1 17 -2 13 -5z m30 -1 c-4 -3 -10 -3
-14 0 -3 4 0 7 7 7 7 0 10 -3 7 -7z m76 -23 c100 -11 191 -22 202 -23 48 -6
57 -70 24 -164 -11 -33 -121 -116 -136 -103 -9 8 -257 67 -318 74 -63 9 -5 -8
165 -45 80 -18 149 -36 155 -41 6 -5 -10 -28 -40 -58 -50 -50 -50 -50 -210 -6
-282 78 -363 98 -377 93 -7 -3 2 -8 20 -12 22 -5 30 -11 23 -18 -6 -6 -26 -1
-57 17 -53 30 -58 31 -48 14 4 -7 -4 -3 -17 9 -28 27 -34 24 81 57 94 27 96
27 163 12 74 -17 123 -20 68 -4 -34 9 -34 9 -3 37 30 28 45 66 57 144 7 45 -3
45 248 17z m35 13 c-16 -2 -40 -2 -55 0 -16 2 -3 4 27 4 30 0 43 -2 28 -4z
m125 -10 c-13 -2 -35 -2 -50 0 -16 2 -5 4 22 4 28 0 40 -2 28 -4z m54 -9 c-3
-3 -12 -4 -19 -1 -8 3 -5 6 6 6 11 1 17 -2 13 -5z m-677 -362 c0 -12 -3 -12
-15 -2 -8 7 -15 22 -15 34 1 21 1 21 15 2 8 -11 15 -26 15 -34z m529 -321 c39
-49 84 -100 101 -114 33 -28 37 -37 16 -37 -26 0 -196 202 -196 232 0 16 9 7
79 -81z m-1130 -103 c1 -27 -3 -48 -8 -48 -15 0 -16 14 -12 97 4 71 5 74 12
38 4 -22 8 -61 8 -87z m401 8 c0 -3 -4 -8 -10 -11 -5 -3 -10 -1 -10 4 0 6 5
11 10 11 6 0 10 -2 10 -4z m855 -6 c3 -6 -1 -7 -9 -4 -18 7 -21 14 -7 14 6 0
13 -4 16 -10z m-787 -19 c39 -27 69 -81 47 -81 -15 0 -105 82 -105 95 0 12 34
3 58 -14z m-606 -28 c-3 -16 -7 -22 -10 -15 -4 13 4 42 11 42 2 0 2 -12 -1
-27z m598 -33 c21 -27 40 -40 56 -40 21 0 24 -4 23 -32 -1 -18 -1 -37 1 -43
14 -55 -12 -27 -39 41 -11 29 -11 29 -8 -3 4 -36 0 -39 -23 -20 -29 24 -72
137 -51 137 5 0 24 -18 41 -40z m-599 -49 c1 -33 2 -34 10 -11 5 16 6 5 2 -32
-3 -40 -2 -58 6 -58 6 0 11 -4 11 -10 0 -19 -20 -10 -29 13 -5 12 -19 31 -31
42 -23 20 -23 20 -5 -15 18 -35 18 -35 -9 -11 -26 24 -35 61 -16 61 6 0 10 9
10 20 0 66 49 67 51 1z m544 49 c3 -5 4 -10 1 -10 -3 0 -8 5 -11 10 -3 6 -4
10 -1 10 3 0 8 -4 11 -10z m-659 -29 c-11 -12 -15 -28 -11 -47 3 -16 2 -23 -1
-16 -3 6 -10 10 -15 7 -5 -4 -6 1 -3 9 4 9 1 16 -6 16 -7 0 0 11 16 25 34 30
44 33 20 6z m-76 -36 c-7 -8 -25 -15 -40 -15 -42 0 -133 -37 -240 -99 -119
-67 -225 -117 -270 -125 -31 -5 -32 -5 -10 4 18 8 21 13 11 19 -9 6 -7 10 8
14 12 3 19 1 15 -4 -3 -5 0 -9 5 -9 6 0 11 6 11 14 0 8 7 17 16 20 9 3 12 2 9
-5 -11 -17 55 15 130 63 144 92 242 135 290 125 17 -3 31 4 47 20 26 27 42 6
18 -22z m107 -9 c-1 -24 -5 -42 -9 -40 -10 6 -20 62 -13 74 14 23 24 7 22 -34z
m161 -65 c-1 -36 -6 -59 -12 -58 -6 1 -10 -8 -9 -21 2 -13 -1 -21 -7 -17 -5 3
-12 -7 -15 -22 -11 -54 -27 -108 -41 -141 -17 -39 -18 -56 -4 -47 6 4 8 10 5
15 -3 5 -1 11 5 15 6 4 10 -4 10 -19 0 -13 3 -33 6 -43 6 -16 5 -16 -9 2 -13
17 -18 18 -41 7 -34 -15 -36 -15 -36 3 0 8 -4 15 -10 15 -14 0 -12 -16 3 -32
13 -13 47 -101 47 -122 0 -5 -6 -2 -13 9 -9 11 -16 14 -20 8 -4 -6 0 -16 8
-23 8 -7 15 -16 15 -21 0 -14 -83 -11 -105 4 -11 7 -40 14 -65 16 -49 2 -126
27 -151 48 -8 7 -26 13 -39 13 -12 0 -38 9 -56 21 -19 11 -34 16 -34 10 0 -6
13 -17 29 -26 16 -8 31 -19 33 -24 1 -4 27 -21 57 -36 40 -20 51 -29 40 -36
-11 -7 -10 -9 6 -9 11 0 31 -3 45 -5 14 -3 19 -2 11 1 -11 5 -11 8 0 16 10 7
9 8 -6 4 -13 -3 -31 4 -50 21 -20 17 -24 23 -10 18 11 -5 35 -13 53 -19 20 -7
32 -18 32 -28 0 -16 13 -21 60 -20 3 0 16 3 30 7 22 7 23 6 8 -9 -9 -9 -27
-17 -40 -17 -20 -1 -21 -2 -3 -6 30 -8 45 -23 44 -47 -1 -17 -2 -17 -6 -4 -2
10 -8 18 -13 18 -15 0 -18 -25 -4 -40 11 -13 8 -20 -21 -43 -34 -27 -34 -27
-25 3 10 33 -26 75 -41 47 -14 -26 -20 -57 -11 -57 6 0 13 12 16 26 5 17 11
23 17 17 6 -6 5 -23 -4 -47 -13 -37 -13 -37 -37 -4 -25 34 -38 97 -22 107 6 4
6 16 1 29 -10 27 -29 20 -29 -10 0 -24 -10 -19 -14 8 -2 11 -12 18 -29 18 -35
2 -90 66 -57 66 6 0 20 -11 32 -25 28 -32 45 -33 21 -1 -15 21 -45 37 -75 40
-4 1 -13 8 -20 16 -11 12 -11 12 5 1 32 -25 17 -3 -36 53 -40 42 -57 54 -74
50 -21 -6 -82 20 -95 40 -6 8 -8 7 -8 -1 0 -8 -22 -1 -57 17 -32 17 -63 30
-69 30 -6 0 -33 10 -60 22 -27 12 -60 23 -74 23 -89 3 -130 28 -130 80 0 8 -5
15 -12 15 -6 0 -9 3 -5 6 8 9 96 -45 108 -67 7 -13 21 -19 44 -19 19 0 35 -4
35 -9 0 -17 144 1 210 25 35 14 114 52 175 85 251 137 294 149 387 105 30 -14
58 -26 63 -26 4 0 20 -11 37 -25 33 -28 78 -34 78 -10 0 15 23 95 27 95 1 0 2
-27 1 -59z m1069 52 c-4 -3 -10 -3 -14 0 -3 4 0 7 7 7 7 0 10 -3 7 -7z m481
-18 c-3 -3 -9 2 -12 12 -6 14 -5 15 5 6 7 -7 10 -15 7 -18z m-1584 -10 c-4 -8
-8 -15 -10 -15 -2 0 -4 7 -4 15 0 8 4 15 10 15 5 0 7 -7 4 -15z m1233 -12 c-4
-3 -10 -3 -14 0 -3 4 0 7 7 7 7 0 10 -3 7 -7z m-647 -37 c-14 -14 -22 -2 -14
18 5 14 9 15 15 4 4 -7 4 -17 -1 -22z m831 -24 c-7 -2 -18 1 -23 6 -8 8 -4 9
13 5 13 -4 18 -8 10 -11z m-1357 -7 c3 -8 1 -15 -4 -15 -6 0 -10 7 -10 15 0 8
2 15 4 15 2 0 6 -7 10 -15z m1427 -13 c-7 -2 -18 1 -23 6 -8 8 -4 9 13 5 13
-4 18 -8 10 -11z m-2161 -17 c-7 -8 -17 -15 -23 -15 -6 0 -2 7 9 15 25 19 30
19 14 0z m734 -1 c29 -11 20 -78 -15 -119 -44 -49 -58 -33 -36 38 9 30 17 61
17 70 0 18 9 21 34 11z m-1309 -24 c3 -5 4 -10 1 -10 -3 0 -8 5 -11 10 -3 6
-4 10 -1 10 3 0 8 -4 11 -10z m2509 -12 c-2 -3 2 -9 8 -11 7 -3 4 -6 -8 -6
-11 -1 -28 5 -37 12 -15 11 -14 12 12 12 16 0 27 -3 25 -7z m-2434 -34 c0 -2
-9 0 -20 6 -11 6 -20 13 -20 16 0 2 9 0 20 -6 11 -6 20 -13 20 -16z m1177 9
c-4 -3 -7 0 -7 7 0 7 3 10 7 7 3 -4 3 -10 0 -14z m1073 3 c0 -2 -7 -7 -16 -10
-8 -3 -12 -2 -9 4 6 10 25 14 25 6z m72 -14 c-12 -2 -20 -7 -17 -12 3 -4 -2
-10 -10 -14 -9 -3 -15 0 -15 10 0 8 -4 12 -10 9 -5 -3 -10 -2 -10 4 0 12 38
19 65 12 19 -5 18 -6 -3 -9z m-135 1 c-4 -3 -10 -3 -14 0 -3 4 0 7 7 7 7 0 10
-3 7 -7z m-52 -13 c-3 -5 -16 -10 -28 -9 -21 0 -21 1 -2 9 28 12 37 12 30 0z
m-1827 -7 c-10 -2 -26 -2 -35 0 -10 3 -2 5 17 5 19 0 27 -2 18 -5z m1925 0
c-14 -3 -20 -9 -16 -19 4 -10 -2 -13 -26 -10 -16 2 -32 0 -33 -4 -2 -4 -23
-10 -48 -13 -25 -3 -36 -3 -26 2 16 6 17 9 4 13 -8 4 -21 2 -29 -3 -18 -11
-66 -12 -73 0 -3 4 6 6 21 3 16 -3 24 -1 20 5 -9 14 27 23 68 16 18 -3 41 0
51 6 11 6 39 10 64 9 25 0 35 -3 23 -5z m104 0 c-4 -3 -10 -3 -14 0 -3 4 0 7
7 7 7 0 10 -3 7 -7z m-1107 -73 c-29 -18 -45 -12 -25 10 13 15 22 17 29 10 8
-8 6 -14 -4 -20z m657 23 c-4 -3 -10 -3 -14 0 -3 4 0 7 7 7 7 0 10 -3 7 -7z
m-90 -40 c-4 -3 -7 0 -7 7 0 7 3 10 7 7 3 -4 3 -10 0 -14z m-1432 -3 c3 -6 -1
-7 -9 -4 -18 7 -21 14 -7 14 6 0 13 -4 16 -10z m70 -51 c-4 -5 -1 -9 6 -9 7 0
10 -3 6 -6 -3 -3 -14 -1 -24 5 -10 6 -14 11 -9 11 5 0 2 7 -5 17 -13 15 -12
15 9 4 12 -7 20 -16 17 -22z m-210 -9 c10 -11 16 -20 13 -20 -3 0 -13 9 -23
20 -10 11 -16 20 -13 20 3 0 13 -9 23 -20z m291 -17 c13 -14 22 -29 19 -31 -3
-3 -12 4 -21 16 -8 12 -22 22 -30 22 -8 0 -14 5 -14 10 0 18 20 11 46 -17z
m621 -29 c13 -44 17 -134 5 -134 -9 0 -52 122 -52 148 0 48 31 39 47 -14z
m-547 -3 c25 -22 42 -42 39 -46 -4 -3 -14 2 -23 11 -20 20 -34 11 -16 -11 21
-25 5 -17 -21 11 -21 22 -21 24 -4 18 16 -6 14 0 -9 24 -41 44 -20 39 34 -7z
m5 19 c3 -5 4 -10 1 -10 -3 0 -8 5 -11 10 -3 6 -4 10 -1 10 3 0 8 -4 11 -10z
m574 -134 c-5 -6 -9 7 -8 35 1 44 1 44 9 9 5 -20 5 -39 -1 -44z m526 -17 c13
-25 35 -60 49 -77 33 -39 33 -78 0 -108 -67 -63 -105 23 -96 216 3 50 6 48 47
-31z m-1016 18 c0 -21 -1 -21 -9 -2 -12 28 -12 37 0 30 6 -3 10 -16 9 -28z
m228 -14 c-4 -3 -10 -3 -14 0 -3 4 0 7 7 7 7 0 10 -3 7 -7z m-175 -53 c4 0 5
7 2 15 -9 22 2 18 31 -10 15 -16 25 -38 26 -58 1 -30 1 -30 8 -7 7 24 7 24 13
4 14 -54 -52 -50 -73 3 -6 15 -14 30 -19 33 -6 3 -12 22 -15 40 -5 35 -5 35 7
8 7 -16 15 -28 20 -28z m-287 30 c3 -5 4 -10 1 -10 -3 0 -8 5 -11 10 -3 6 -4
10 -1 10 3 0 8 -4 11 -10z m582 4 c-3 -3 -12 -4 -19 -1 -8 3 -5 6 6 6 11 1 17
-2 13 -5z m60 0 c-3 -3 -12 -4 -19 -1 -8 3 -5 6 6 6 11 1 17 -2 13 -5z m3 -45
c0 -6 -4 -7 -10 -4 -5 3 -10 11 -10 16 0 6 5 7 10 4 6 -3 10 -11 10 -16z m116
-34 c-5 -29 -4 -45 3 -45 6 0 11 -7 11 -16 0 -13 -6 -10 -27 11 -26 25 -26 28
-10 40 9 7 17 22 17 34 0 11 3 21 6 21 4 0 3 -20 0 -45z m655 -15 c-30 -26
-49 -26 -26 0 10 11 25 20 34 20 12 -1 10 -5 -8 -20z m-814 -7 c-4 -3 -7 0 -7
7 0 7 3 10 7 7 3 -4 3 -10 0 -14z m180 0 c-4 -3 -7 0 -7 7 0 7 3 10 7 7 3 -4
3 -10 0 -14z m-207 -19 c0 -8 -5 -12 -10 -9 -6 4 -8 11 -5 16 9 14 15 11 15
-7z m150 -4 c0 -5 -5 -10 -11 -10 -5 0 -7 5 -4 10 3 6 8 10 11 10 2 0 4 -4 4
-10z m-80 -63 c0 -5 -7 -4 -15 3 -8 7 -15 20 -15 29 1 18 30 -14 30 -32z m35
15 c-8 -8 -25 10 -19 20 4 6 9 5 15 -3 4 -7 6 -15 4 -17z m62 21 c-4 -3 -10
-3 -14 0 -3 4 0 7 7 7 7 0 10 -3 7 -7z m50 -20 c-4 -3 -7 0 -7 7 0 7 3 10 7 7
3 -4 3 -10 0 -14z m-267 -10 c0 -24 -38 -35 -62 -18 -22 15 -22 15 0 15 12 0
22 4 22 9 0 6 9 9 20 8 11 -1 20 -7 20 -14z m109 -53 c12 -9 21 -40 11 -40
-10 0 -24 19 -27 39 -1 8 -9 18 -17 23 -9 5 -16 19 -16 31 0 19 3 17 21 -13
12 -19 25 -37 28 -40z m78 53 c-4 -3 -7 0 -7 7 0 7 3 10 7 7 3 -4 3 -10 0 -14z
m70 -16 c14 5 30 -24 19 -34 -3 -3 -13 0 -22 8 -14 11 -18 11 -30 -6 -8 -11
-14 -14 -14 -6 0 8 -6 11 -15 7 -22 -8 -18 17 7 43 21 23 21 23 32 4 6 -11 17
-18 23 -16z m-562 -17 c3 -5 4 -10 1 -10 -3 0 -8 5 -11 10 -3 6 -4 10 -1 10 3
0 8 -4 11 -10z m335 -1 c0 -6 6 -9 14 -6 8 3 17 0 20 -8 3 -8 0 -12 -7 -10 -7
2 -25 6 -41 10 -23 5 -27 8 -15 16 19 12 29 11 29 -2z m135 -29 c8 0 15 -4 15
-10 0 -11 -32 -1 -42 14 -4 6 -8 16 -8 21 1 6 5 2 11 -7 5 -10 17 -18 24 -18z
m545 10 c-24 -15 -37 -11 -16 5 11 8 22 12 25 9 3 -3 -1 -9 -9 -14z"/>
<path d="M1415 1060 c3 -5 8 -10 11 -10 3 0 2 5 -1 10 -3 6 -8 10 -11 10 -3 0
-2 -4 1 -10z"/>
<path d="M1412 826 c-13 -22 -16 -33 -8 -30 14 5 40 54 33 61 -3 2 -14 -12
-25 -31z"/>
<path d="M1220 540 c0 -5 5 -10 11 -10 5 0 7 5 4 10 -3 6 -8 10 -11 10 -2 0
-4 -4 -4 -10z"/>
<path d="M1270 540 c0 -7 3 -10 7 -7 3 4 3 10 0 14 -4 3 -7 0 -7 -7z"/>
<path d="M1223 513 c4 -3 10 -3 14 0 3 4 0 7 -7 7 -7 0 -10 -3 -7 -7z"/>
<path d="M1127 493 c-3 -5 -1 -17 4 -28 7 -17 8 -17 8 8 1 27 -4 34 -12 20z"/>
<path d="M1546 345 c4 -8 8 -15 10 -15 2 0 4 7 4 15 0 8 -4 15 -10 15 -5 0 -7
-7 -4 -15z"/>
<path d="M3224 2403 c-11 -16 -25 -51 -32 -80 -6 -29 -32 -83 -60 -126 -49
-74 -53 -87 -84 -257 -16 -88 -35 -123 -83 -153 -57 -37 -145 -108 -145 -119
0 -5 27 14 61 42 58 49 69 54 98 51 7 -2 10 2 7 7 -3 5 5 19 19 32 30 28 40
55 61 160 19 99 26 110 68 109 31 -1 31 -1 1 -8 -30 -7 -30 -7 10 -19 22 -6
81 -16 130 -22 50 -5 107 -12 128 -15 25 -3 37 0 37 8 0 30 -78 50 -241 63
-48 3 -92 10 -99 14 -13 8 5 51 45 105 36 49 65 112 65 143 0 17 10 40 25 56
27 29 30 36 17 36 -5 0 -17 -12 -28 -27z m31 -353 c7 -12 -29 -12 -65 0 -21 7
-19 8 17 9 23 1 45 -3 48 -9z"/>
<path d="M3303 2423 c9 -2 23 -2 30 0 6 3 -1 5 -18 5 -16 0 -22 -2 -12 -5z"/>
<path d="M1278 2413 c7 -3 16 -2 19 1 4 3 -2 6 -13 5 -11 0 -14 -3 -6 -6z"/>
<path d="M1386 2405 c4 -8 10 -15 15 -15 5 0 9 7 9 15 0 8 -7 15 -15 15 -9 0
-12 -6 -9 -15z"/>
<path d="M1560 2410 c0 -5 7 -7 15 -4 8 4 15 8 15 10 0 2 -7 4 -15 4 -8 0 -15
-4 -15 -10z"/>
<path d="M117 2404 c-4 -4 0 -15 9 -25 17 -19 16 -19 -83 -34 -41 -6 -57 -25
-34 -40 13 -8 254 16 265 26 10 9 -10 13 -50 10 -12 -1 -24 5 -28 14 -3 9 -10
14 -15 10 -6 -3 -20 6 -33 20 -13 14 -27 22 -31 19z m-10 -71 c-4 -3 -10 -3
-14 0 -3 4 0 7 7 7 7 0 10 -3 7 -7z"/>
<path d="M3303 2403 c4 -3 10 -3 14 0 3 4 0 7 -7 7 -7 0 -10 -3 -7 -7z"/>
<path d="M30 2380 c0 -7 3 -10 7 -7 3 4 3 10 0 14 -4 3 -7 0 -7 -7z"/>
<path d="M535 2334 c-27 -9 -30 -12 -10 -8 17 4 66 10 110 14 80 7 80 7 10 8
-38 0 -88 -6 -110 -14z"/>
<path d="M2023 2344 c5 -5 57 -10 115 -10 59 -1 220 -4 357 -7 142 -3 222 -2
185 3 -97 12 -666 24 -657 14z"/>
<path d="M2129 2315 c-10 -9 -69 -17 -204 -24 -274 -16 -469 -32 -475 -38 -6
-6 115 1 425 23 116 9 246 15 290 14 44 -1 88 -1 99 -1 18 0 18 0 0 -14 -11
-8 -25 -15 -31 -15 -7 0 -13 -3 -13 -7 -1 -5 -3 -25 -6 -46 -6 -43 10 -53 119
-77 31 -7 57 -17 57 -21 0 -29 -24 -110 -35 -119 -8 -7 -39 -14 -69 -16 -30
-3 -74 -10 -98 -18 -35 -10 -52 -10 -93 1 -41 10 -112 18 -80 8 121 -36 130
-37 179 -21 25 9 71 16 100 16 66 0 79 13 101 100 9 36 18 73 21 83 4 14 -1
17 -28 17 -39 0 -114 20 -143 37 -26 15 -13 38 39 72 46 31 38 38 -53 46 -41
3 -78 8 -81 10 -4 2 -13 -2 -21 -10z m148 -152 c-4 -3 -10 -3 -14 0 -3 4 0 7
7 7 7 0 10 -3 7 -7z m30 -10 c-4 -3 -10 -3 -14 0 -3 4 0 7 7 7 7 0 10 -3 7 -7z
m67 -12 c3 -4 -6 -6 -19 -3 -14 2 -25 6 -25 8 0 8 39 4 44 -5z"/>
<path d="M390 2310 c-35 -7 -35 -7 5 -8 22 0 54 4 70 8 30 8 30 8 -5 8 -19 -1
-51 -4 -70 -8z"/>
<path d="M3230 2311 c0 -19 96 -27 150 -12 24 7 24 7 -9 14 -48 10 -141 9
-141 -2z"/>
<path d="M2318 2242 c-53 -39 -47 -49 7 -12 25 17 45 33 45 35 0 10 -17 3 -52
-23z"/>
<path d="M410 2256 c0 -13 190 -37 230 -28 44 9 44 9 -30 11 -41 0 -93 5 -115
11 -40 10 -85 13 -85 6z"/>
<path d="M2564 2250 c-48 -11 -154 -62 -148 -71 2 -4 25 2 50 15 26 13 56 22
68 20 20 -4 20 -4 1 4 -17 8 -14 10 20 16 42 7 85 27 55 25 -8 -1 -29 -4 -46
-9z"/>
<path d="M1343 2243 c4 -3 10 -3 14 0 3 4 0 7 -7 7 -7 0 -10 -3 -7 -7z"/>
<path d="M1383 2243 c4 -3 10 -3 14 0 3 4 0 7 -7 7 -7 0 -10 -3 -7 -7z"/>
<path d="M990 2224 c-102 -7 -226 -15 -277 -16 -101 -2 -108 -6 -36 -20 69
-13 138 -20 98 -9 -30 8 -30 8 5 14 19 3 114 11 210 18 96 6 202 15 235 19 60
8 60 8 5 7 -30 0 -138 -6 -240 -13z"/>
<path d="M150 2201 c-36 -6 -23 -8 60 -9 112 -1 120 -2 365 -62 320 -78 362
-88 458 -115 55 -14 101 -24 104 -21 3 3 -8 8 -23 11 -16 4 -85 22 -154 41
-69 18 -140 37 -157 40 -18 4 -33 10 -33 14 0 5 -10 6 -22 3 -19 -4 -20 -3 -8
6 12 9 10 10 -10 6 -25 -6 -287 55 -322 75 -23 13 -201 20 -258 11z"/>
<path d="M1020 2140 c19 -5 67 -11 105 -14 70 -6 70 -6 -15 9 -92 15 -147 18
-90 5z"/>
<path d="M795 2115 c17 -8 37 -14 45 -14 8 0 2 7 -15 14 -16 8 -37 14 -45 14
-8 0 -1 -7 15 -14z"/>
<path d="M1213 2113 c9 -2 25 -2 35 0 9 3 1 5 -18 5 -19 0 -27 -2 -17 -5z"/>
<path d="M1283 2103 c9 -2 23 -2 30 0 6 3 -1 5 -18 5 -16 0 -22 -2 -12 -5z"/>
<path d="M860 2095 c0 -5 186 -65 203 -65 10 1 -188 70 -199 70 -2 0 -4 -2 -4
-5z"/>
<path d="M1338 2093 c6 -2 18 -2 25 0 6 3 1 5 -13 5 -14 0 -19 -2 -12 -5z"/>
<path d="M1403 2083 c9 -2 23 -2 30 0 6 3 -1 5 -18 5 -16 0 -22 -2 -12 -5z"/>
<path d="M1458 2073 c7 -3 16 -2 19 1 4 3 -2 6 -13 5 -11 0 -14 -3 -6 -6z"/>
<path d="M1490 2066 c0 -2 13 -6 29 -8 17 -2 28 -1 25 4 -5 8 -54 12 -54 4z"/>
<path d="M3425 2050 c3 -5 8 -10 11 -10 2 0 4 5 4 10 0 6 -5 10 -11 10 -5 0
-7 -4 -4 -10z"/>
<path d="M778 2033 c7 -3 16 -2 19 1 4 3 -2 6 -13 5 -11 0 -14 -3 -6 -6z"/>
<path d="M865 2005 c33 -14 65 -25 71 -25 6 0 67 -18 135 -39 68 -22 151 -47
184 -56 33 -9 80 -23 105 -31 25 -8 50 -14 55 -14 17 1 -76 40 -94 40 -10 0
-37 6 -62 14 -24 8 -98 31 -164 51 -66 20 -154 47 -195 61 -96 31 -112 30 -35
-1z"/>
<path d="M1083 2023 c4 -3 10 -3 14 0 3 4 0 7 -7 7 -7 0 -10 -3 -7 -7z"/>
<path d="M1730 2020 c14 -4 36 -8 50 -8 22 0 22 1 -5 8 -42 11 -79 11 -45 0z"/>
<path d="M1158 2003 c6 -2 18 -2 25 0 6 3 1 5 -13 5 -14 0 -19 -2 -12 -5z"/>
<path d="M1823 2003 c9 -2 23 -2 30 0 6 3 -1 5 -18 5 -16 0 -22 -2 -12 -5z"/>
<path d="M1915 1985 c68 -18 103 -17 40 1 -27 7 -59 13 -70 13 -11 -1 3 -7 30
-14z"/>
<path d="M1158 1983 c7 -3 16 -2 19 1 4 3 -2 6 -13 5 -11 0 -14 -3 -6 -6z"/>
<path d="M1250 1980 c8 -5 20 -10 25 -10 6 0 3 5 -5 10 -8 5 -19 10 -25 10 -5
0 -3 -5 5 -10z"/>
<path d="M1205 1970 c11 -5 27 -9 35 -9 9 0 8 4 -5 9 -11 5 -27 9 -35 9 -9 0
-8 -4 5 -9z"/>
<path d="M1296 1969 c3 -5 -5 -9 -18 -10 -17 -1 -14 -3 12 -10 19 -6 91 -28
160 -51 69 -22 131 -41 139 -42 8 -2 20 -11 27 -21 12 -16 14 -16 14 -3 0 21
-13 30 -65 44 -39 11 -73 22 -205 62 -50 15 -59 20 -40 24 25 4 25 4 -2 9 -15
4 -25 2 -22 -2z"/>
<path d="M1405 1942 c33 -8 61 -18 63 -22 1 -3 16 -4 32 -2 19 3 30 0 30 -7 0
-7 5 -9 11 -5 6 3 15 0 20 -7 4 -7 11 -11 14 -7 11 11 -26 38 -53 38 -15 1
-54 7 -87 15 -33 8 -67 14 -75 14 -8 -1 12 -8 45 -17z"/>
<path d="M1599 1906 c15 -8 19 -15 11 -18 -6 -2 11 -20 40 -40 52 -36 52 -36
-7 -43 -68 -8 -133 -23 -133 -31 0 -4 8 -3 17 1 28 10 131 20 208 20 70 -1
262 -57 717 -209 75 -25 140 -46 145 -46 4 0 7 34 5 75 -2 41 -7 75 -10 75 -4
0 -6 -24 -4 -52 4 -78 0 -80 -95 -50 -82 26 -82 26 -89 78 -3 29 -3 57 1 63 3
6 1 11 -5 11 -8 0 -11 -20 -8 -60 2 -46 0 -59 -10 -55 -7 2 -59 19 -117 36
-57 18 -102 35 -100 40 7 11 -6 69 -16 69 -5 0 -6 -7 -3 -15 4 -8 2 -15 -4
-15 -6 0 -13 6 -15 13 -3 6 -6 2 -6 -10 -1 -24 15 -40 21 -21 3 8 7 6 11 -5 3
-9 2 -17 -4 -17 -14 0 -292 86 -342 105 -20 8 -49 15 -63 15 -45 0 -84 27 -84
59 0 29 -19 41 -65 41 -18 -1 -18 -2 4 -14z m48 -33 c-4 -3 -7 0 -7 7 0 7 3
10 7 7 3 -4 3 -10 0 -14z"/>
<path d="M1673 1913 c4 -6 21 -13 39 -16 141 -25 208 -38 224 -43 13 -5 16 -4
9 4 -5 6 -59 20 -120 31 -60 12 -121 24 -134 28 -15 4 -22 2 -18 -4z"/>
<path d="M1718 1765 c-4 -20 -1 -25 14 -25 14 0 19 6 16 22 -4 31 -25 33 -30
3z"/>
<path d="M1766 1771 c-8 -12 19 -40 39 -40 6 0 3 5 -6 12 -9 7 -18 19 -21 27
-3 11 -6 11 -12 1z"/>
<path d="M1670 1760 c20 -13 33 -13 25 0 -3 6 -14 10 -23 10 -15 0 -15 -2 -2
-10z"/>
<path d="M2278 1720 c-1 -28 0 -50 5 -50 4 0 7 23 7 50 0 65 -7 65 -12 0z"/>
<path d="M3040 1744 c25 -8 65 -17 90 -19 31 -3 20 1 -35 15 -93 22 -120 24
-55 4z"/>
<path d="M1683 1723 c4 -3 10 -3 14 0 3 4 0 7 -7 7 -7 0 -10 -3 -7 -7z"/>
<path d="M2419 1723 c-9 -50 8 -113 29 -113 12 0 13 61 2 95 -8 25 -8 22 -4
-20 4 -39 3 -46 -6 -32 -6 10 -12 31 -12 47 -1 28 -6 40 -9 23z"/>
<path d="M2490 1705 c8 -10 11 -32 8 -60 -5 -41 -4 -45 16 -45 12 0 16 4 11 8
-6 4 -12 27 -14 52 -3 50 -7 60 -23 60 -6 0 -6 -6 2 -15z"/>
<path d="M3180 1716 c0 -2 11 -6 25 -8 13 -3 22 -1 19 3 -5 9 -44 13 -44 5z"/>
<path d="M2526 1660 c9 -50 22 -80 33 -80 16 0 21 33 12 65 -9 30 -9 30 -11
-10 -2 -39 -2 -39 -9 -10 -12 49 -34 79 -25 35z"/>
<path d="M1512 1558 c-7 -7 -12 -20 -12 -30 0 -67 -25 -172 -47 -199 -13 -16
-21 -34 -18 -40 7 -11 17 3 49 66 12 23 49 215 42 215 -1 0 -7 -5 -14 -12z"/>
<path d="M1787 1475 c3 -38 7 -72 9 -74 7 -8 2 84 -6 114 -5 18 -6 2 -3 -40z"/>
<path d="M2395 1523 c28 -9 71 -24 97 -34 26 -11 55 -19 65 -18 19 0 -89 44
-147 59 -57 15 -69 9 -15 -7z"/>
<path d="M1683 1504 c-17 -60 -9 -253 12 -272 17 -16 17 -16 10 3 -17 43 -26
167 -17 228 11 67 8 87 -5 41z"/>
<path d="M144 1486 c-38 -38 -46 -105 -20 -177 16 -44 93 -156 113 -163 8 -3
-1 12 -19 34 -110 128 -125 266 -35 320 23 15 27 20 14 20 -11 0 -34 -15 -53
-34z"/>
<path d="M1480 1510 c0 -7 3 -10 7 -7 3 4 3 10 0 14 -4 3 -7 0 -7 -7z"/>
<path d="M1735 1388 c3 -127 13 -178 35 -178 4 0 2 13 -6 28 -8 16 -18 86 -23
158 -10 129 -10 129 -6 -8z"/>
<path d="M2771 1486 c4 -5 548 -186 557 -186 29 0 -54 31 -276 104 -239 78
-293 94 -281 82z"/>
<path d="M1840 1470 c0 -7 3 -10 7 -7 3 4 3 10 0 14 -4 3 -7 0 -7 -7z"/>
<path d="M2481 1450 c18 -38 49 -75 49 -59 0 8 -14 30 -31 49 -23 27 -28 29
-18 10z"/>
<path d="M2585 1460 c3 -5 8 -10 11 -10 2 0 4 5 4 10 0 6 -5 10 -11 10 -5 0
-7 -4 -4 -10z"/>
<path d="M1853 1400 c0 -25 2 -35 4 -22 2 12 2 32 0 45 -2 12 -4 2 -4 -23z"/>
<path d="M2910 1386 c0 -2 24 -21 53 -42 28 -20 55 -43 60 -50 8 -13 69 -54
82 -54 4 0 -17 19 -46 43 -55 44 -149 110 -149 103z"/>
<path d="M2100 1364 c0 -8 9 -14 20 -14 53 0 130 -106 130 -179 0 -28 4 -41
14 -41 19 0 -4 108 -32 146 -42 59 -132 119 -132 88z"/>
<path d="M2450 1360 c99 -22 133 -24 73 -6 -23 8 -68 16 -100 19 -52 5 -49 4
27 -13z"/>
<path d="M2601 1364 c0 -11 3 -14 6 -6 3 7 2 16 -1 19 -3 4 -6 -2 -5 -13z"/>
<path d="M2066 1355 c4 -8 10 -12 15 -9 11 6 2 24 -11 24 -5 0 -7 -7 -4 -15z"/>
<path d="M1800 1350 c0 -7 3 -10 7 -7 3 4 3 10 0 14 -4 3 -7 0 -7 -7z"/>
<path d="M2231 1345 c0 -5 6 -19 14 -29 8 -11 15 -15 15 -10 0 6 -7 19 -15 30
-8 10 -14 15 -14 9z"/>
<path d="M2643 1343 c4 -3 10 -3 14 0 3 4 0 7 -7 7 -7 0 -10 -3 -7 -7z"/>
<path d="M2645 1315 c39 -13 77 -24 85 -24 8 0 -16 11 -54 25 -39 13 -77 24
-85 23 -9 0 16 -11 54 -24z"/>
<path d="M1805 1290 c4 -55 9 -77 20 -87 4 -4 5 3 0 17 -4 14 -11 45 -15 70
-9 45 -9 45 -5 0z"/>
<path d="M3100 1281 c19 -11 44 -20 55 -21 11 0 34 -8 50 -18 34 -21 65 -33
65 -27 0 10 -88 55 -125 63 -22 5 -49 13 -60 16 -11 4 -4 -2 15 -13z"/>
<path d="M2920 1286 c0 -2 7 -7 16 -10 8 -3 12 -2 9 4 -6 10 -25 14 -25 6z"/>
<path d="M1195 1261 c-37 -10 -183 -80 -191 -92 -7 -11 25 1 96 37 30 15 84
36 120 45 64 17 41 26 -25 10z"/>
<path d="M1430 1260 c0 -7 3 -10 7 -7 3 4 3 10 0 14 -4 3 -7 0 -7 -7z"/>
<path d="M2270 1260 c0 -7 3 -10 7 -7 3 4 3 10 0 14 -4 3 -7 0 -7 -7z"/>
<path d="M80 1227 c1 -12 89 -61 97 -53 2 2 -19 18 -46 35 -30 18 -51 26 -51
18z"/>
<path d="M0 1220 c0 -5 5 -10 11 -10 5 0 7 5 4 10 -3 6 -8 10 -11 10 -2 0 -4
-4 -4 -10z"/>
<path d="M1971 1176 c-31 -33 -162 -60 -256 -53 -78 6 -60 -8 25 -19 63 -8 65
-28 6 -54 -25 -10 -50 -28 -56 -39 -11 -22 -1 -28 17 -10 8 8 13 -10 17 -67
12 -148 17 -184 28 -184 6 0 7 8 3 18 -3 9 -8 55 -11 102 -3 47 -6 101 -8 122
-4 36 -4 36 78 73 44 20 100 49 124 66 42 30 42 30 42 -8 0 -29 -3 -35 -11
-23 -8 12 -10 11 -7 -5 2 -11 10 -20 18 -20 8 0 19 -4 23 -10 5 -5 5 4 2 20
-4 17 -8 49 -9 73 0 23 -1 42 -2 42 0 0 -11 -11 -23 -24z m-84 -63 c-4 -3 -10
-3 -14 0 -3 4 0 7 7 7 7 0 10 -3 7 -7z m-52 -23 c-3 -5 -13 -10 -21 -10 -8 0
-14 5 -14 10 0 6 9 10 21 10 11 0 17 -4 14 -10z"/>
<path d="M2453 1183 c4 -3 10 -3 14 0 3 4 0 7 -7 7 -7 0 -10 -3 -7 -7z"/>
<path d="M1880 1170 c-12 -8 -11 -10 7 -10 12 0 25 5 28 10 8 13 -15 13 -35 0z"/>
<path d="M1066 1145 c-3 -8 -2 -15 3 -15 5 0 14 7 21 15 10 12 10 15 -3 15 -8
0 -17 -7 -21 -15z"/>
<path d="M1798 1153 c7 -3 16 -2 19 1 4 3 -2 6 -13 5 -11 0 -14 -3 -6 -6z"/>
<path d="M1833 1153 c4 -3 10 -3 14 0 3 4 0 7 -7 7 -7 0 -10 -3 -7 -7z"/>
<path d="M925 1120 c-19 -12 -24 -20 -14 -20 9 0 24 9 34 20 23 25 18 25 -20
0z"/>
<path d="M2370 1130 c0 -7 3 -10 7 -7 3 4 3 10 0 14 -4 3 -7 0 -7 -7z"/>
<path d="M2445 1110 c3 -5 8 -10 11 -10 3 0 2 5 -1 10 -3 6 -8 10 -11 10 -3 0
-2 -4 1 -10z"/>
<path d="M2570 1115 c0 -15 18 -40 24 -34 3 3 -1 14 -9 25 -8 10 -14 15 -15 9z"/>
<path d="M2363 1085 c-8 -9 -9 -16 -3 -20 6 -3 10 -2 10 4 0 5 9 8 21 6 13 -3
19 0 16 8 -5 17 -30 19 -44 2z"/>
<path d="M810 1060 c-8 -5 -36 -19 -62 -30 -48 -21 -68 -37 -25 -21 39 15 117
53 117 57 0 6 -14 3 -30 -6z"/>
<path d="M1922 981 c-12 -11 -18 -21 -14 -23 11 -4 24 -128 14 -128 -4 0 -14
28 -22 63 -7 34 -15 54 -18 44 -2 -10 1 -31 7 -45 13 -30 11 -132 -2 -132 -16
0 -37 70 -36 117 2 48 2 48 8 -9 8 -75 19 -83 14 -10 -8 128 -25 157 -39 66
-14 -94 28 -192 75 -177 49 15 62 27 56 51 -4 17 -2 23 7 19 7 -2 12 -11 10
-21 -4 -21 35 -22 40 0 3 14 6 14 28 -3 16 -13 36 -18 55 -16 29 3 32 0 70
-77 37 -75 75 -127 75 -102 0 6 -5 14 -10 17 -6 4 -36 56 -66 117 -64 127 -73
139 -105 133 -17 -3 -29 3 -42 21 -20 26 -8 33 17 9 17 -17 56 -20 56 -4 0 5
-4 8 -10 4 -9 -6 -41 9 -72 34 -16 13 -18 11 -18 -17 0 -22 9 -37 33 -56 17
-15 38 -31 45 -37 29 -23 8 -26 -45 -5 -48 18 -58 26 -59 47 -2 68 -5 79 -19
79 -9 0 -15 -10 -16 -22 -1 -17 -3 -18 -6 -6 -2 9 0 33 6 52 5 20 9 36 8 36
-1 -1 -12 -9 -25 -19z m185 -168 c-4 -3 -7 0 -7 7 0 7 3 10 7 7 3 -4 3 -10 0
-14z m-190 -25 c-3 -7 -5 -2 -5 12 0 14 2 19 5 13 2 -7 2 -19 0 -25z"/>
<path d="M1664 958 c-4 -7 -3 -8 4 -4 12 7 16 16 8 16 -3 0 -8 -5 -12 -12z"/>
<path d="M1688 950 c-7 -24 -3 -38 8 -28 3 4 4 17 2 30 -3 23 -3 23 -10 -2z"/>
<path d="M1960 960 c0 -5 5 -10 10 -10 6 0 10 5 10 10 0 6 -4 10 -10 10 -5 0
-10 -4 -10 -10z"/>
<path d="M2300 961 c0 -10 30 -24 37 -17 3 2 -5 9 -16 16 -12 6 -21 7 -21 1z"/>
<path d="M1687 863 c7 -71 11 -75 12 -10 1 31 -3 57 -8 57 -5 0 -6 -21 -4 -47z"/>
<path d="M2248 793 c7 -3 16 -2 19 1 4 3 -2 6 -13 5 -11 0 -14 -3 -6 -6z"/>
<path d="M1801 774 c0 -11 3 -14 6 -6 3 7 2 16 -1 19 -3 4 -6 -2 -5 -13z"/>
<path d="M2070 741 c0 -6 4 -11 9 -11 5 0 12 -12 14 -27 4 -28 4 -28 6 -2 0
15 -6 32 -14 39 -10 9 -15 9 -15 1z"/>
<path d="M1720 720 c0 -5 5 -10 11 -10 5 0 7 5 4 10 -3 6 -8 10 -11 10 -2 0
-4 -4 -4 -10z"/>
<path d="M1955 680 c-3 -5 -1 -10 4 -10 6 0 11 5 11 10 0 6 -2 10 -4 10 -3 0
-8 -4 -11 -10z"/>
<path d="M2260 639 c0 -5 5 -7 10 -4 6 3 10 8 10 11 0 2 -4 4 -10 4 -5 0 -10
-5 -10 -11z"/>
<path d="M1694 453 c2 -13 16 -16 97 -14 52 1 97 5 101 9 4 4 -30 5 -76 4 -48
-2 -92 1 -104 7 -17 9 -20 8 -18 -6z"/>
<path d="M2600 425 c-68 -39 -278 -152 -303 -163 -27 -12 -27 -12 -5 -34 12
-13 34 -27 48 -33 14 -5 71 -36 128 -68 57 -33 105 -57 107 -55 2 2 -39 28
-92 58 -162 93 -181 106 -168 119 13 12 184 110 252 144 28 15 54 31 58 37 8
13 5 12 -25 -5z"/>
<path d="M1690 410 c0 -7 3 -10 7 -7 3 4 3 10 0 14 -4 3 -7 0 -7 -7z"/>
<path d="M1685 350 c4 -14 12 -29 17 -35 7 -7 8 -2 3 15 -4 14 -12 30 -17 35
-7 7 -8 2 -3 -15z"/>
<path d="M2000 350 c0 -7 3 -10 7 -7 3 4 3 10 0 14 -4 3 -7 0 -7 -7z"/>
<path d="M1680 302 c0 -18 38 -63 43 -50 3 9 14 2 36 -22 17 -19 28 -27 25
-18 -5 15 0 16 35 12 29 -3 48 0 64 12 19 14 19 15 2 9 -45 -18 -107 -6 -157
30 -26 19 -48 32 -48 27z"/>
<path d="M1030 270 c0 -7 3 -10 7 -7 3 4 3 10 0 14 -4 3 -7 0 -7 -7z"/>
<path d="M1115 220 c3 -5 11 -10 16 -10 6 0 7 5 4 10 -3 6 -11 10 -16 10 -6 0
-7 -4 -4 -10z"/>
<path d="M1725 220 c3 -5 8 -10 11 -10 3 0 2 5 -1 10 -3 6 -8 10 -11 10 -3 0
-2 -4 1 -10z"/>
<path d="M1896 221 c-3 -5 1 -11 9 -14 9 -4 12 -1 8 9 -6 16 -10 17 -17 5z"/>
<path d="M2205 220 c-3 -5 1 -10 10 -10 9 0 13 5 10 10 -3 6 -8 10 -10 10 -2
0 -7 -4 -10 -10z"/>
<path d="M1982 185 c0 -16 2 -22 5 -12 2 9 2 23 0 30 -3 6 -5 -1 -5 -18z"/>
<path d="M1850 185 c-8 -9 -8 -15 -2 -15 12 0 26 19 19 26 -2 2 -10 -2 -17
-11z"/>
<path d="M1785 180 c3 -5 11 -10 16 -10 6 0 7 5 4 10 -3 6 -11 10 -16 10 -6 0
-7 -4 -4 -10z"/>
<path d="M2138 171 c-8 -10 -22 -21 -29 -23 -8 -3 -11 -8 -7 -12 3 -4 21 6 40
23 18 17 28 31 23 31 -6 0 -18 -8 -27 -19z"/>
<path d="M1907 161 c-4 -17 -3 -21 5 -13 5 5 8 16 6 23 -3 8 -7 3 -11 -10z"/>
<path d="M2060 125 c-7 -9 -8 -15 -2 -15 5 0 12 7 16 15 3 8 4 15 2 15 -2 0
-9 -7 -16 -15z"/>
<path d="M1950 100 c-12 -8 -11 -10 8 -10 12 0 22 5 22 10 0 13 -11 13 -30 0z"/>
<path d="M1956 69 c-21 -16 -35 -29 -30 -29 11 0 84 48 84 55 0 10 -17 2 -54
-26z"/>
</g>
</svg>
