<?xml version="1.0" standalone="no"?>
<!DOCTYPE svg PUBLIC "-//W3C//DTD SVG 20010904//EN"
 "http://www.w3.org/TR/2001/REC-SVG-20010904/DTD/svg10.dtd">
<svg version="1.0" xmlns="http://www.w3.org/2000/svg"
 width="344.000000pt" height="256.000000pt" viewBox="0 0 344.000000 256.000000"
 preserveAspectRatio="xMidYMid meet">
<metadata>
Created by potrace 1.16, written by Peter Selinger 2001-2019
</metadata>
<g transform="translate(0.000000,256.000000) scale(0.100000,-0.100000)"
fill="#000000" stroke="none">
<path d="M165 2510 c3 -30 9 -64 11 -75 4 -16 3 -17 -5 -5 -10 13 -12 13 -21
0 -14 -22 -12 -30 8 -30 10 0 23 -5 30 -12 15 -15 15 -9 -3 86 -18 93 -30 115
-20 36z"/>
<path d="M792 2549 c29 -17 86 -125 91 -171 3 -30 4 -23 4 22 0 38 -5 71 -13
80 -42 50 -74 80 -86 80 -8 -1 -7 -4 4 -11z m85 -96 c-4 -3 -7 0 -7 7 0 7 3
10 7 7 3 -4 3 -10 0 -14z"/>
<path d="M1697 2538 c-8 -12 -18 -39 -21 -58 -5 -31 -3 -29 19 19 27 56 28 80
2 39z"/>
<path d="M2193 2538 c-11 -13 -33 -45 -48 -73 -15 -27 -33 -57 -40 -65 -23
-28 -42 -74 -60 -150 -10 -41 -22 -80 -27 -87 -5 -7 -16 -35 -23 -64 -8 -28
-24 -63 -37 -77 -13 -15 -15 -20 -5 -13 21 17 23 -2 2 -19 -9 -7 -13 -20 -10
-29 3 -8 3 -12 -1 -9 -3 4 -17 -5 -30 -20 -27 -30 -24 -2 3 29 14 17 38 233
31 286 -2 15 -9 -33 -17 -107 -15 -153 -57 -274 -87 -249 -10 8 -14 8 -14 0 0
-6 5 -11 11 -11 7 0 10 -26 8 -77 -1 -43 2 -89 8 -102 7 -18 9 -3 8 65 -1 102
3 123 17 102 8 -10 9 -9 5 4 -6 18 31 48 60 48 15 0 16 2 3 10 -11 7 -11 10
-2 10 7 0 42 14 78 31 70 34 89 33 58 -3 -19 -23 -19 -23 7 0 29 25 59 29 59
8 0 -8 -14 -52 -30 -97 -31 -83 -40 -205 -15 -195 24 9 0 -118 -32 -176 -18
-31 -29 -59 -25 -62 4 -2 18 17 31 44 13 27 43 67 67 90 28 26 44 50 44 65 0
13 4 26 8 29 5 3 9 33 9 68 1 63 1 63 -6 8 -11 -78 -28 -123 -56 -150 -24 -23
-24 -23 -21 6 2 16 4 40 5 53 1 24 1 24 16 5 15 -18 15 -18 9 7 -3 16 1 39 10
57 18 35 21 66 6 57 -11 -7 -11 9 0 45 8 25 8 25 9 -4 1 -22 4 -27 12 -19 9 9
9 20 0 43 -7 23 -8 37 0 49 8 13 9 12 4 -6 -4 -14 -2 -23 4 -23 16 0 13 72 -4
97 -8 11 -17 39 -21 62 -8 50 -22 55 -16 6 5 -39 -6 -45 -32 -16 -17 19 -21
175 -4 165 4 -3 14 11 22 31 21 50 24 45 23 -47 0 -69 5 -94 27 -148 69 -164
88 -309 43 -341 -5 -3 21 -9 58 -13 85 -9 137 6 180 50 38 38 45 41 45 17 0
-9 3 -14 6 -11 3 4 1 22 -4 41 -6 22 -6 40 1 52 7 13 7 20 -1 23 -8 2 -8 11
-1 30 19 49 21 136 4 122 -11 -9 -14 -23 -9 -45 3 -19 0 -46 -9 -67 -8 -20
-11 -41 -7 -49 5 -8 2 -25 -6 -39 -15 -25 -15 -25 -11 2 2 15 0 33 -5 40 -6 8
-8 -5 -5 -37 9 -83 -35 -119 -141 -117 -74 1 -78 3 -62 33 9 17 10 35 2 73 -6
28 -14 73 -17 99 -6 48 -6 48 19 31 31 -20 105 -16 154 8 17 9 33 13 35 9 2
-3 3 -1 1 5 -1 7 9 22 23 35 26 24 83 132 83 157 0 7 4 11 9 8 4 -3 13 6 20
20 13 30 15 56 2 35 -6 -10 -9 1 -9 33 0 27 -5 53 -11 59 -6 6 -11 20 -12 32
0 11 -3 15 -6 7 -4 -10 -12 -7 -30 10 -13 13 -28 23 -31 23 -4 0 -6 4 -4 9 3
9 -27 35 -42 36 -5 0 -2 -8 7 -18 10 -10 14 -22 10 -25 -10 -10 -52 53 -46 69
3 8 8 14 12 14 4 0 7 8 8 18 1 9 4 28 7 42 4 16 0 12 -10 -10 -18 -39 -31 -50
-50 -43 -10 3 -8 12 7 36 10 18 18 43 18 57 -1 17 -3 19 -6 8 -2 -10 -11 -18
-20 -18 -11 0 -13 -3 -5 -13 15 -18 5 -29 -59 -67 -40 -23 -66 -48 -88 -84
-29 -47 -31 -49 -31 -23 0 16 8 41 18 55 52 76 36 69 -23 -9 -26 -34 -40 -59
-31 -56 9 4 16 4 16 2 0 -14 -28 -64 -47 -84 -12 -13 -20 -27 -17 -32 3 -5 -1
-9 -9 -9 -16 0 -31 -127 -20 -169 5 -20 3 -23 -11 -18 -9 4 -15 3 -12 -1 5 -8
-103 -66 -110 -59 -2 2 12 19 31 37 19 19 35 38 35 44 0 5 -11 -1 -25 -14 -14
-13 -25 -20 -25 -15 0 4 11 23 25 41 16 21 25 46 26 71 1 37 1 36 19 -22 18
-60 18 -60 13 0 -7 78 10 136 52 182 19 21 35 44 35 52 0 7 -18 -6 -40 -30
-47 -52 -55 -32 -10 27 16 21 30 49 30 62 0 12 4 22 9 22 5 0 15 16 21 36 7
20 26 51 42 70 33 37 24 48 -9 12z m197 -106 c0 -5 -17 -9 -37 -10 -20 -1 -41
-6 -47 -12 -5 -5 -14 -10 -20 -10 -21 0 13 22 46 30 46 11 58 11 58 2z m161
-189 c18 -34 5 -53 -38 -54 -21 -1 -51 -5 -68 -10 -22 -6 -16 -7 26 -4 65 6
77 -1 47 -26 -26 -23 -47 -24 -75 -4 -12 8 -24 11 -27 7 -3 -5 13 -17 35 -27
40 -18 40 -18 74 15 43 42 45 26 6 -55 -44 -91 -142 -175 -204 -175 -38 0 -83
44 -123 120 -20 40 -24 222 -5 228 6 2 11 14 11 28 0 14 5 22 13 19 6 -2 24
15 38 38 21 35 34 45 80 58 54 16 54 16 126 -60 39 -42 77 -86 84 -98z m17 22
c-3 -3 -9 2 -12 12 -6 14 -5 15 5 6 7 -7 10 -15 7 -18z m-391 -342 c-3 -10 -5
-4 -5 12 0 17 2 24 5 18 2 -7 2 -21 0 -30z m-45 -102 c-29 -83 -43 -81 -16 1
16 50 33 82 40 75 1 -1 -9 -36 -24 -76z m21 -77 c-3 -8 -9 -11 -14 -8 -5 3 -6
-1 -3 -9 3 -8 1 -18 -5 -22 -15 -9 -26 22 -13 38 5 6 13 26 17 42 8 30 8 30
16 2 4 -16 5 -35 2 -43z"/>
<path d="M2350 2396 c0 -2 11 -6 25 -8 14 -3 25 -1 25 3 0 5 -11 9 -25 9 -14
0 -25 -2 -25 -4z"/>
<path d="M2240 2241 c0 -5 17 -12 37 -16 20 -4 46 -13 57 -21 27 -18 42 -18
26 1 -7 8 -35 22 -63 30 -60 18 -57 17 -57 6z"/>
<path d="M2250 2197 c0 -26 29 -47 65 -47 34 0 54 13 36 24 -5 4 -12 2 -16 -4
-11 -18 -43 -10 -64 16 -15 18 -21 22 -21 11z"/>
<path d="M2410 2098 c-5 -15 -7 -28 -9 -49 -1 -19 -5 -21 -33 -15 -31 5 -32 5
-14 -9 37 -28 69 -5 63 45 -2 19 -5 32 -7 28z"/>
<path d="M2323 2063 c4 -3 10 -3 14 0 3 4 0 7 -7 7 -7 0 -10 -3 -7 -7z"/>
<path d="M2270 2001 c0 -13 64 -31 109 -31 48 0 34 9 -22 15 -26 2 -56 9 -67
15 -13 7 -20 7 -20 1z"/>
<path d="M2300 1946 c27 -17 66 -21 74 -8 3 5 -9 8 -27 8 -18 0 -41 4 -52 8
-12 4 -10 1 5 -8z"/>
<path d="M2257 2553 c-4 -3 -7 -11 -7 -17 0 -6 5 -5 12 2 6 6 9 14 7 17 -3 3
-9 2 -12 -2z"/>
<path d="M2300 2550 c-11 -8 -7 -9 15 -4 37 8 45 14 19 14 -10 0 -26 -5 -34
-10z"/>
<path d="M1757 2543 c-3 -5 -15 -34 -27 -65 -11 -31 -35 -75 -52 -99 -39 -54
-73 -139 -83 -204 -4 -27 -17 -77 -30 -110 -13 -33 -25 -67 -28 -75 -3 -9 -6
-5 -7 10 -2 25 -2 25 -8 2 -14 -47 -2 -128 19 -129 10 -1 19 -1 19 0 0 1 -4
17 -9 35 -7 23 -6 32 2 32 7 0 39 19 72 41 68 48 113 68 152 70 24 2 25 2 5 6
-32 6 -85 -14 -159 -60 -35 -22 -66 -37 -70 -33 -15 14 18 86 47 101 16 8 32
21 36 27 5 7 -4 5 -19 -4 -14 -10 -28 -18 -30 -18 -3 0 13 70 44 191 5 20 29
67 54 105 43 65 91 172 81 181 -2 2 -6 0 -9 -4z"/>
<path d="M1790 2495 c0 -19 2 -35 4 -35 2 0 6 16 8 35 2 19 0 35 -4 35 -4 0
-8 -16 -8 -35z"/>
<path d="M2261 2507 c-19 -17 -23 -18 -18 -5 5 15 3 16 -11 7 -23 -15 -86 -98
-88 -118 -3 -16 15 1 43 45 10 15 11 15 7 2 -3 -9 18 6 46 33 29 28 50 52 48
54 -2 3 -15 -6 -27 -18z"/>
<path d="M231 2515 c1 -19 18 -51 18 -35 0 8 -4 22 -9 30 -5 8 -9 11 -9 5z"/>
<path d="M2265 2470 c-8 -13 5 -13 25 0 13 8 13 10 -2 10 -9 0 -20 -4 -23 -10z"/>
<path d="M110 2388 c0 -18 7 -46 15 -62 19 -36 19 -46 0 -46 -24 0 -17 -29 8
-35 12 -3 34 -2 47 3 25 9 25 9 2 16 -12 4 -20 12 -17 17 4 5 -1 16 -10 25 -9
9 -14 22 -11 29 3 8 -1 16 -8 18 -8 3 -12 15 -9 30 3 14 0 28 -6 31 -7 5 -11
-4 -11 -26z"/>
<path d="M1645 2390 c-4 -12 -5 -24 -2 -27 3 -2 8 5 12 17 4 12 5 24 2 27 -3
2 -8 -5 -12 -17z"/>
<path d="M614 2383 c14 -36 51 -83 63 -79 12 5 46 -27 38 -36 -6 -5 79 -81
146 -130 41 -31 70 -84 77 -143 4 -37 0 -44 -34 -79 -25 -25 -32 -36 -19 -31
60 23 71 19 141 -48 36 -36 91 -85 121 -108 31 -24 83 -69 117 -100 33 -32 89
-73 123 -93 90 -53 103 -81 67 -149 -38 -73 -126 -179 -176 -212 -16 -9 -28
-23 -28 -31 0 -8 10 -4 26 11 36 33 44 31 44 -7 0 -18 5 -40 10 -48 7 -11 10
-5 10 23 0 20 5 37 11 37 5 0 7 5 4 10 -4 6 -11 8 -16 5 -19 -13 -7 12 36 70
24 33 59 84 76 113 31 52 31 52 68 22 20 -16 48 -41 62 -56 31 -31 51 -24 44
14 -6 35 3 69 22 76 11 5 13 1 8 -15 -5 -15 -4 -19 4 -15 6 4 11 15 11 25 0
42 96 48 104 7 13 -66 28 -380 19 -395 -11 -18 -32 -58 -43 -80 -17 -37 -80 7
-80 55 0 14 -6 24 -14 24 -8 0 -16 6 -19 13 -2 6 -8 -10 -12 -36 -8 -51 -27
-70 -63 -60 -13 3 -22 1 -22 -6 0 -18 71 -13 85 5 10 15 14 13 34 -14 22 -31
22 -31 -11 -40 -34 -9 -77 0 -113 25 -11 7 -29 13 -41 13 -13 0 -24 8 -27 21
-6 24 18 38 36 20 21 -21 32 -11 32 29 0 22 -3 40 -7 40 -5 0 -8 -11 -8 -25 0
-35 -9 -32 -75 29 -45 42 -61 51 -70 42 -25 -31 -84 -55 -149 -62 -67 -7 -68
-7 -62 -33 27 -109 36 -253 17 -259 -11 -4 -13 4 -8 37 3 27 0 56 -9 76 -8 19
-14 51 -14 72 -1 21 -8 56 -16 78 -9 22 -19 58 -24 80 -11 50 -103 257 -164
369 -25 46 -46 93 -46 104 0 33 -11 51 -26 45 -20 -8 -17 -59 5 -80 10 -10 37
-47 59 -83 36 -58 59 -107 132 -280 10 -25 26 -85 34 -135 29 -180 29 -208 -4
-401 -38 -222 -34 -261 33 -319 104 -90 100 -82 54 -123 -22 -20 -44 -36 -48
-35 -4 2 -19 -11 -33 -28 -14 -17 -31 -27 -37 -23 -6 3 -4 -5 6 -19 18 -29 47
-45 38 -21 -3 7 -9 14 -14 14 -5 0 -9 5 -9 11 0 5 4 8 9 5 5 -3 11 4 14 15 3
12 10 18 16 14 6 -3 14 1 17 9 5 12 21 16 64 16 69 0 96 -21 87 -70 -5 -21 -3
-30 7 -30 8 0 11 10 8 30 -3 21 0 30 9 30 15 0 -40 49 -54 50 -5 0 -20 8 -33
19 -21 16 -22 20 -9 31 12 10 19 10 33 -2 9 -7 33 -22 52 -31 19 -10 44 -23
55 -30 134 -82 199 -117 218 -116 18 0 17 3 -9 12 -89 34 -330 196 -344 231
-5 13 -14 27 -20 31 -9 6 -9 2 -1 -14 15 -27 3 -27 -33 2 -37 30 -25 56 39 87
25 12 45 26 45 30 0 5 7 16 16 24 14 15 13 16 -6 16 -42 0 -18 26 47 50 18 7
35 21 38 31 4 10 18 22 32 25 13 4 57 31 96 60 39 30 76 54 82 54 7 0 32 17
56 38 24 21 60 48 80 60 19 12 44 30 54 42 26 29 34 27 120 -45 43 -36 81 -65
84 -65 11 1 -124 119 -157 137 -33 18 -33 18 -52 -7 -21 -27 -26 -21 -9 12 8
16 8 24 -3 35 -13 12 -15 9 -16 -22 -2 -54 1 -51 -119 -138 -58 -43 -115 -78
-119 -75 -1 2 10 53 27 113 16 61 29 122 29 138 0 27 0 27 30 12 19 -10 42
-13 67 -9 21 3 48 6 60 6 13 0 20 5 17 13 -4 8 6 16 26 20 29 6 37 2 79 -37
87 -85 121 -111 176 -139 31 -15 53 -24 50 -18 -11 16 32 10 56 -9 13 -11 35
-22 49 -25 14 -4 46 -20 72 -37 45 -28 46 -30 35 -59 -13 -35 11 -70 64 -91
45 -19 39 -53 -18 -103 -27 -23 -84 -76 -128 -117 -78 -74 -152 -130 -171
-130 -11 0 -47 -33 -90 -82 -17 -19 -40 -40 -50 -46 -18 -11 -18 -11 -1 -12
10 0 41 25 69 56 28 30 73 66 99 79 58 30 339 291 339 316 0 10 -12 26 -26 36
-69 49 -77 58 -70 89 6 27 9 29 49 27 42 -2 42 -2 -3 10 -25 7 -70 27 -101 45
-31 17 -63 32 -70 32 -36 1 -99 86 -93 125 5 33 70 81 132 99 107 30 272 13
272 -27 0 -15 -5 -18 -22 -13 -13 3 -48 8 -78 11 -49 4 -47 3 22 -11 76 -15
76 -15 81 -57 2 -23 12 -77 21 -120 10 -43 16 -81 13 -83 -3 -3 -33 -9 -68
-13 -64 -8 -64 -8 7 -10 71 -1 71 -1 87 -41 8 -22 20 -40 25 -40 5 0 1 17 -9
37 -29 60 -64 240 -62 314 2 61 1 67 -17 62 -10 -3 -27 0 -37 6 -10 6 -12 11
-5 11 6 0 12 4 12 9 0 5 -8 7 -19 4 -15 -4 -18 0 -15 24 3 27 3 27 -7 -4 -11
-31 -11 -31 -88 -32 -42 0 -92 -5 -111 -11 -50 -14 -58 -13 -65 13 -22 70 -71
155 -114 197 -47 45 -113 97 -118 92 -11 -10 -23 3 -22 26 1 20 2 22 6 7 3
-11 9 -24 14 -29 13 -15 11 21 -3 47 -16 29 -21 124 -8 145 9 13 9 10 5 -15
-11 -54 11 -37 24 19 6 29 19 60 28 70 15 17 15 18 1 13 -32 -12 2 64 35 82
17 8 48 28 70 44 35 25 37 29 16 27 -20 -3 -33 11 -88 95 -35 54 -66 95 -69
93 -4 -5 32 -65 100 -165 32 -48 33 -46 -32 -80 -35 -19 -70 -86 -70 -136 0
-13 -7 -5 -19 21 -10 23 -23 44 -29 48 -7 4 -5 25 5 62 8 31 12 58 9 61 -3 3
-8 -8 -11 -23 -13 -56 -14 -57 -36 -33 -19 22 -19 21 1 -9 12 -18 20 -36 16
-39 -3 -3 6 -25 20 -49 25 -43 28 -104 4 -89 -5 3 -7 -1 -4 -9 7 -19 -13 -81
-31 -96 -24 -20 -34 -3 -22 35 32 104 -93 147 -201 68 -26 -20 -38 -33 -27
-31 17 4 21 0 23 -26 1 -26 0 -28 -9 -13 -5 9 -17 17 -25 17 -16 0 -38 45 -35
71 1 8 -10 31 -23 50 -14 19 -30 44 -35 56 -10 22 -31 40 -31 26 0 -5 16 -33
35 -63 33 -50 48 -109 25 -95 -5 3 -10 14 -10 24 0 29 -39 70 -109 115 -36 24
-89 65 -117 92 -28 27 -75 67 -104 89 -64 49 -178 155 -166 155 5 0 3 7 -4 15
-7 8 -22 15 -33 15 -19 0 -19 1 -4 13 16 11 16 16 -3 81 -11 38 -29 79 -40 91
-13 14 -18 29 -14 41 4 14 3 16 -4 5 -11 -16 -32 -7 -32 14 0 9 6 12 15 9 12
-5 15 5 14 62 -1 53 -3 62 -9 39 -8 -30 -8 -30 -9 1 0 16 -8 39 -16 50 -14 18
-14 17 -5 -9 13 -37 13 -134 0 -142 -14 -8 -101 65 -93 78 3 6 1 7 -5 3 -7 -4
-12 -3 -12 3 0 5 -25 39 -56 75 -55 64 -83 84 -70 49z m41 -33 c3 -5 4 -10 1
-10 -3 0 -8 5 -11 10 -3 6 -4 10 -1 10 3 0 8 -4 11 -10z m25 -30 c0 -5 -2 -10
-4 -10 -3 0 -8 5 -11 10 -3 6 -1 10 4 10 6 0 11 -4 11 -10z m209 -803 c1 -5
-3 -5 -9 -2 -5 3 -10 16 -9 28 0 21 1 21 9 2 5 -11 9 -24 9 -28z m962 -244
c-9 -15 -10 -13 -6 12 5 27 4 28 -5 7 -14 -32 12 -69 64 -92 23 -10 54 -29 70
-42 29 -24 29 -24 -3 -22 -17 1 -31 -2 -31 -7 0 -5 13 -9 28 -9 15 0 33 -5 40
-12 7 -7 12 -8 12 -3 0 22 52 -65 77 -127 23 -59 25 -71 12 -79 -25 -16 -45
-10 -68 22 -19 26 -28 30 -52 25 -16 -3 -42 -9 -57 -12 -24 -5 -33 0 -57 27
-32 39 -51 76 -42 85 8 9 42 -32 58 -68 6 -16 15 -28 20 -28 5 0 -5 23 -22 50
-22 36 -29 58 -25 75 3 13 2 27 -4 30 -5 3 -10 1 -10 -5 0 -6 -5 -8 -11 -5 -6
4 -8 13 -5 20 3 8 1 28 -4 47 -21 76 -20 127 3 151 22 22 22 22 25 0 2 -12 -2
-30 -7 -40z m-440 -235 c7 -13 16 -25 20 -28 4 -3 10 -22 12 -43 5 -48 22 -67
59 -67 30 0 30 0 23 -46 -3 -25 -16 -81 -27 -123 -12 -42 -22 -89 -23 -105 -2
-33 -43 -72 -87 -81 -15 -4 -37 -19 -48 -35 -11 -15 -32 -30 -47 -32 -16 -3
-35 -7 -43 -9 -12 -3 -15 7 -14 55 2 58 1 59 -13 32 -9 -17 -12 -41 -9 -60 5
-25 -1 -42 -24 -79 -30 -47 -47 -59 -47 -32 0 8 4 12 9 9 4 -3 8 11 8 31 0 20
7 46 15 59 13 20 13 26 1 52 -8 16 -17 43 -21 59 -6 30 -6 30 9 0 15 -30 15
-30 10 6 -6 38 11 119 25 119 13 0 22 -63 16 -112 -4 -31 -3 -38 4 -23 19 39
7 170 -24 273 -15 47 3 19 26 -40 24 -65 25 -70 27 -102 2 -26 10 -17 16 18 3
19 -2 37 -17 58 -18 25 -22 43 -22 109 0 72 -2 79 -19 79 -16 0 -17 -3 -8 -12
7 -7 12 -28 11 -48 0 -35 -1 -35 -15 14 -18 57 -15 61 58 69 27 4 68 17 91 31
53 30 54 31 68 4z m461 -96 c28 -25 43 -28 104 -17 38 7 42 5 67 -28 27 -35
27 -35 -1 -64 -27 -28 -27 -28 -4 -52 40 -43 13 -72 -34 -36 -10 8 -25 15 -33
15 -14 0 -48 29 -150 123 -53 50 -53 50 -32 95 22 45 22 45 40 16 10 -16 30
-39 43 -52z m-397 48 c3 -5 1 -10 -4 -10 -6 0 -11 5 -11 10 0 6 2 10 4 10 3 0
8 -4 11 -10z m202 -50 c20 -35 22 -41 7 -28 -25 22 -60 82 -45 77 6 -2 23 -24
38 -49z m-516 -196 c-4 -56 -8 -51 -14 25 -3 43 -2 51 7 39 6 -9 10 -37 7 -64z
m-18 -104 c-9 -45 -25 -91 -30 -86 -3 2 1 37 8 76 9 46 16 65 20 53 4 -10 5
-29 2 -43z m-6 -169 c-6 -74 -26 -125 -37 -96 -5 11 -8 38 -8 60 1 40 1 40 7
0 7 -40 7 -40 14 10 16 100 21 121 25 101 2 -11 2 -45 -1 -75z m30 32 c-4 -3
-7 0 -7 7 0 7 3 10 7 7 3 -4 3 -10 0 -14z m54 -86 c-10 -9 -11 -8 -5 6 3 10 9
15 12 12 3 -3 0 -11 -7 -18z m29 -17 c0 -12 -66 -54 -97 -62 -37 -10 -26 5 30
38 58 35 67 39 67 24z m-125 -80 c3 -5 4 -10 1 -10 -3 0 -8 5 -11 10 -3 6 -4
10 -1 10 3 0 8 -4 11 -10z m72 -187 c-4 -3 -10 -3 -14 0 -3 4 0 7 7 7 7 0 10
-3 7 -7z"/>
<path d="M1891 1129 c-30 -28 -13 -49 20 -25 13 9 19 16 13 16 -5 0 -15 -5
-22 -12 -18 -18 -14 3 5 24 22 25 12 23 -16 -3z"/>
<path d="M2021 1057 c-1 -17 35 -97 44 -97 2 0 -4 19 -14 43 -10 23 -20 49
-24 57 -4 12 -6 11 -6 -3z"/>
<path d="M1980 999 c12 -23 24 -39 26 -36 5 5 -35 77 -42 77 -3 0 5 -18 16
-41z"/>
<path d="M1930 1017 c0 -5 9 -20 20 -34 11 -14 20 -21 20 -15 0 12 -39 60 -40
49z"/>
<path d="M1900 840 c0 -7 3 -10 7 -7 3 4 3 10 0 14 -4 3 -7 0 -7 -7z"/>
<path d="M166 2363 c-10 -11 -7 -23 7 -20 7 1 11 -7 9 -20 -2 -16 2 -23 12
-23 23 0 20 47 -3 59 -10 6 -21 7 -25 4z"/>
<path d="M1806 2315 c7 -58 -12 -143 -42 -182 -14 -18 -21 -33 -17 -33 11 1
49 30 39 30 -5 0 -2 10 7 23 19 30 30 134 17 172 -9 28 -9 27 -4 -10z"/>
<path d="M680 2292 c0 -12 19 -26 26 -19 2 2 -2 10 -11 17 -9 8 -15 8 -15 2z"/>
<path d="M2607 2266 c3 -15 10 -29 15 -32 6 -4 7 2 3 17 -10 35 -23 45 -18 15z"/>
<path d="M1710 2270 c0 -7 3 -10 7 -7 3 4 3 10 0 14 -4 3 -7 0 -7 -7z"/>
<path d="M2648 2252 c-10 -16 -15 -39 -12 -53 5 -24 4 -24 -5 -1 -15 32 -16
29 -16 -42 0 -35 3 -62 8 -59 4 2 7 13 7 23 0 10 5 22 10 25 12 8 13 11 -5
-55 -17 -64 -19 -81 -5 -60 7 11 9 0 8 -37 -1 -29 -6 -49 -12 -46 -5 4 -6 -5
-3 -19 4 -14 2 -52 -4 -84 -7 -36 -7 -60 -1 -62 5 -1 7 -15 5 -30 -2 -15 4 -7
12 18 8 25 13 53 11 63 -6 26 13 344 23 389 11 49 -1 65 -21 30z m-21 -459
c-4 -3 -7 0 -7 7 0 7 3 10 7 7 3 -4 3 -10 0 -14z"/>
<path d="M178 2202 c14 -14 36 -19 88 -21 77 -2 123 -11 205 -39 50 -18 165
-81 146 -82 -4 0 -25 11 -47 25 -22 14 -48 25 -58 25 -10 0 -23 5 -30 12 -6 6
-14 9 -17 7 -3 -3 7 -12 23 -19 15 -7 48 -23 73 -36 26 -13 54 -22 61 -19 27
11 194 -199 182 -229 -3 -9 -2 -16 4 -16 24 0 20 34 -10 78 -129 190 -294 288
-521 309 -37 3 -70 10 -73 14 -3 5 -14 9 -25 9 -18 0 -18 -1 -1 -18z"/>
<path d="M3130 2213 c0 -5 12 -10 27 -11 34 -3 35 -4 23 -37 -16 -43 -5 -40
19 5 15 30 17 40 7 40 -7 0 -28 3 -45 6 -17 4 -31 2 -31 -3z"/>
<path d="M3130 2165 c0 -14 4 -25 9 -25 4 0 6 11 3 25 -2 14 -6 25 -8 25 -2 0
-4 -11 -4 -25z"/>
<path d="M3206 2164 c-5 -12 -2 -15 10 -10 8 3 18 6 20 6 3 0 2 5 -1 10 -9 15
-22 12 -29 -6z"/>
<path d="M266 2155 c10 -8 26 -14 34 -14 11 0 10 3 -4 14 -11 8 -27 15 -35 15
-11 0 -10 -4 5 -15z"/>
<path d="M1815 2113 c9 -21 20 -42 26 -47 22 -23 -10 -146 -39 -146 -15 0 -15
-2 -2 -10 20 -13 36 9 56 75 14 49 14 51 -13 107 -31 63 -52 79 -28 21z"/>
<path d="M328 2133 c7 -3 16 -2 19 1 4 3 -2 6 -13 5 -11 0 -14 -3 -6 -6z"/>
<path d="M2130 2123 c0 -10 5 -25 10 -33 7 -11 10 -7 10 18 0 17 -4 32 -10 32
-5 0 -10 -8 -10 -17z"/>
<path d="M240 2120 c0 -5 7 -10 16 -10 8 0 12 -5 8 -11 -7 -12 12 -29 34 -29
13 0 -3 38 -23 52 -15 11 -35 10 -35 -2z"/>
<path d="M402 2116 c16 -8 34 -18 40 -21 7 -4 2 3 -12 14 -14 11 -32 21 -40
21 -8 0 -3 -7 12 -14z"/>
<path d="M3140 2115 c0 -10 10 -15 33 -14 17 0 25 3 17 6 -8 3 -23 10 -32 15
-13 6 -18 5 -18 -7z"/>
<path d="M333 2093 c4 -3 10 -3 14 0 3 4 0 7 -7 7 -7 0 -10 -3 -7 -7z"/>
<path d="M365 2091 c3 -6 14 -11 22 -11 9 0 41 -26 69 -57 63 -68 80 -69 20
-1 -35 40 -130 98 -111 69z"/>
<path d="M460 2084 c0 -3 13 -10 29 -15 16 -6 37 -21 45 -34 9 -14 26 -30 38
-36 16 -8 10 2 -16 29 -34 35 -96 71 -96 56z"/>
<path d="M3117 2022 c-54 -104 -52 -106 133 -153 98 -25 97 -24 80 -44 -19
-23 -158 -10 -186 18 -4 4 -15 7 -25 7 -10 0 -22 8 -28 18 -8 13 -10 8 -9 -23
0 -57 -29 -172 -53 -212 -13 -21 -42 -45 -78 -62 -52 -27 -105 -71 -85 -71 14
0 47 -66 40 -78 -6 -10 85 -97 101 -97 18 -1 61 -31 98 -70 22 -22 27 -26 11
-8 -17 18 -27 33 -23 33 17 0 56 -24 51 -31 -3 -5 6 -14 20 -21 14 -6 26 -16
26 -21 0 -6 23 -7 61 -3 55 5 60 4 48 -10 -38 -46 -196 -62 -240 -24 -24 20
-24 20 6 15 23 -4 16 2 -26 24 -63 34 -102 85 -101 132 1 29 1 29 -29 12 -35
-21 -33 -44 8 -107 15 -23 20 -37 11 -34 -7 3 -49 13 -93 23 -115 25 -111 21
-118 117 -3 51 -1 88 5 95 11 14 4 43 -10 43 -5 0 -14 -11 -20 -25 -8 -16 -17
-23 -27 -19 -20 8 -48 -15 -37 -30 37 -48 35 -74 -7 -122 -23 -26 -41 -53 -41
-61 0 -8 -4 -12 -8 -9 -20 12 0 65 29 75 17 6 29 17 29 27 0 16 -1 16 -20 -1
-13 -12 -27 -15 -46 -11 -23 6 -26 5 -16 -7 7 -8 10 -27 6 -46 -4 -19 -2 -42
6 -57 13 -24 13 -24 32 19 11 23 32 56 49 73 22 23 31 44 36 83 13 111 33 30
31 -126 -1 -58 -3 -63 -30 -74 -38 -15 -130 -14 -158 3 -19 12 -60 79 -60 100
0 12 60 92 76 101 8 4 14 17 14 28 0 11 -4 18 -9 14 -11 -6 1 40 17 71 16 31
52 147 47 152 -2 3 -7 -1 -9 -9 -33 -94 -50 -132 -54 -121 -2 7 8 39 22 71 27
60 34 97 16 86 -5 -3 -10 -17 -10 -30 0 -13 -11 -36 -24 -52 -13 -16 -29 -48
-35 -71 -14 -49 -56 -86 -72 -61 -13 21 -11 97 4 106 58 37 98 133 62 147 -10
3 -15 -1 -15 -12 0 -31 -35 -115 -50 -120 -11 -4 -10 1 4 23 12 19 14 26 4 23
-13 -5 -68 -103 -68 -124 0 -12 34 -50 52 -57 9 -4 5 -13 -15 -31 -15 -14 -22
-26 -15 -26 18 0 26 7 76 63 59 66 39 -2 -29 -98 -16 -22 -29 -49 -30 -60 -4
-38 1 -66 10 -60 5 3 7 20 5 38 -4 24 1 40 18 62 29 38 56 46 32 10 -9 -14
-20 -25 -25 -25 -20 0 -20 -48 1 -83 20 -34 20 -38 6 -53 -9 -8 -16 -21 -15
-27 0 -7 7 -2 15 10 15 21 15 21 50 1 37 -21 133 -20 176 3 14 7 18 6 18 -6 0
-9 5 -13 10 -10 6 3 10 15 10 26 0 10 3 19 8 19 23 -1 97 -29 100 -38 2 -8
-10 -7 -38 3 -24 8 -48 15 -54 14 -6 0 7 -7 29 -15 60 -22 62 -28 22 -86 -21
-29 -42 -69 -47 -88 -20 -71 -8 -67 19 6 19 53 97 164 115 164 6 0 4 5 -4 10
-12 8 -11 10 7 10 12 0 29 3 39 7 15 5 16 2 11 -23 -10 -50 48 -151 100 -178
30 -15 41 -26 37 -36 -4 -8 -10 -34 -15 -57 -4 -23 -19 -68 -33 -101 -14 -32
-32 -89 -41 -124 -20 -77 -48 -128 -76 -135 -10 -3 -19 -10 -19 -15 0 -5 5 -6
10 -3 17 10 11 -12 -7 -26 -9 -8 -14 -9 -10 -2 7 12 1 11 -153 -8 -82 -10
-201 -61 -236 -100 -15 -18 -10 -17 26 7 82 54 130 71 248 85 106 12 239 -19
335 -78 21 -13 42 -21 46 -18 16 9 90 -86 105 -134 9 -31 14 -38 15 -22 2 56
-83 171 -131 177 -13 1 -24 3 -25 3 -1 1 11 38 28 83 17 46 37 103 46 128 8
25 22 52 30 62 8 9 16 31 17 50 3 31 47 115 68 129 5 3 11 20 13 37 2 17 24
62 49 99 44 64 60 123 35 123 -6 0 -8 -9 -4 -21 5 -15 -5 -39 -37 -87 -69
-106 -198 -377 -198 -417 0 -28 -63 -166 -74 -162 -6 3 -48 17 -93 32 -92 30
-90 25 -38 100 12 19 28 58 35 87 7 29 29 98 50 153 21 55 41 112 44 127 8 33
32 47 95 55 38 4 58 14 92 45 44 39 44 39 -11 4 -109 -68 -251 -52 -272 30 -4
17 -15 37 -23 44 -19 15 -19 40 -2 65 13 17 15 16 39 -16 14 -19 28 -41 31
-50 5 -17 52 -31 62 -20 15 15 201 89 208 82 4 -4 2 -22 -4 -40 -17 -47 -4
-49 15 -1 10 26 29 48 51 61 35 21 49 47 20 35 -9 -3 -18 1 -21 8 -3 8 -31 24
-62 37 -31 12 -64 28 -72 35 -8 7 -35 22 -60 33 -25 11 -74 36 -110 56 -36 19
-74 35 -85 34 -20 0 -20 0 0 -9 11 -5 28 -11 39 -14 15 -5 16 -9 5 -22 -11
-13 -9 -14 12 -9 21 5 119 -37 214 -93 11 -7 34 -17 50 -24 44 -17 6 -23 -54
-8 -62 15 -242 104 -268 132 -30 33 -40 70 -16 62 17 -5 17 -5 1 6 -10 6 -18
19 -18 28 0 13 -2 14 -9 4 -6 -10 -10 -10 -21 3 -9 11 -9 15 -1 15 7 0 10 8 6
19 -6 21 9 36 45 44 52 13 99 76 115 158 19 91 32 119 58 119 17 0 18 -2 6
-16 -12 -15 -11 -16 9 -10 13 4 55 2 94 -4 72 -12 72 -12 95 16 13 16 30 36
38 45 8 9 15 24 14 35 0 17 -1 17 -9 -2 -13 -32 -30 -34 -126 -13 -108 24
-154 45 -154 70 0 23 16 33 23 15 3 -8 15 -12 30 -9 14 3 57 0 96 -6 61 -10
74 -9 87 4 14 13 14 15 0 15 -9 0 -16 6 -16 13 0 8 -3 7 -10 -3 -6 -9 -5 -17
3 -22 9 -6 8 -8 -3 -8 -34 0 -41 16 -20 42 23 29 25 38 9 38 -5 0 -17 -16 -25
-36 -13 -31 -18 -35 -42 -30 -15 3 -44 8 -65 12 -45 8 -53 19 -36 50 13 25 13
25 24 -3 12 -28 12 -28 17 4 2 18 1 30 -3 27 -4 -2 -9 6 -11 18 -3 18 -12 7
-41 -50z m-626 -389 c-12 -20 -14 -14 -5 12 4 9 9 14 11 11 3 -2 0 -13 -6 -23z
m-65 -165 c6 -10 4 -10 -9 1 -9 7 -17 25 -16 40 1 26 1 26 9 -1 4 -14 11 -32
16 -40z m244 -65 c-1 -27 -1 -27 -15 -9 -19 25 -19 36 0 36 10 0 15 -10 15
-27z m-146 -8 c-6 -16 -24 -21 -24 -7 0 11 11 22 21 22 5 0 6 -7 3 -15z m417
-114 c15 -31 36 -56 57 -67 17 -9 32 -22 32 -29 0 -29 40 -48 98 -47 57 1 57
1 13 -19 -40 -17 -46 -18 -53 -4 -5 8 -17 15 -26 15 -23 1 -90 62 -84 78 2 6
-3 12 -12 12 -18 0 -66 67 -66 92 0 31 15 19 41 -31z m-154 -46 c110 -26 108
-25 86 -40 -24 -17 -140 12 -155 38 -11 21 -15 20 69 2z m453 -11 c33 -12 34
-13 8 -13 -15 -1 -42 8 -60 20 -36 22 -22 21 52 -7z m102 -36 c-9 -9 -12 -7
-12 12 0 19 3 21 12 12 9 -9 9 -15 0 -24z m-272 -83 c0 -8 -4 -15 -9 -15 -5 0
-11 7 -15 15 -3 9 0 15 9 15 8 0 15 -7 15 -15z"/>
<path d="M216 2055 c-3 -8 2 -11 15 -8 21 6 52 -14 43 -28 -3 -5 2 -9 10 -9
21 0 20 13 -1 32 -25 21 -61 28 -67 13z"/>
<path d="M370 2046 c0 -2 8 -10 18 -17 15 -13 16 -12 3 4 -13 16 -21 21 -21
13z"/>
<path d="M653 1992 c41 -57 44 -67 22 -58 -28 10 -15 -2 36 -35 28 -18 57 -39
65 -46 8 -8 14 -10 14 -4 0 6 -17 22 -39 36 -22 15 -46 43 -56 65 -10 21 -31
51 -48 67 -30 27 -30 27 6 -25z"/>
<path d="M266 1983 c86 -77 135 -113 155 -113 27 0 21 9 -10 15 -12 2 -47 27
-78 55 -30 28 -65 55 -77 61 -14 7 -11 1 10 -18z"/>
<path d="M571 1963 c7 -12 15 -20 18 -17 3 2 -3 12 -13 22 -17 16 -18 16 -5
-5z"/>
<path d="M2552 1885 c-16 -86 -16 -143 0 -127 10 10 25 192 15 192 -1 0 -8
-29 -15 -65z"/>
<path d="M3195 1941 c29 -13 174 -38 169 -29 -3 4 7 8 22 8 65 0 9 11 -74 15
-50 2 -102 6 -114 9 -21 5 -21 5 -3 -3z"/>
<path d="M540 1916 c0 -28 122 -239 163 -281 15 -15 -2 15 -28 50 -12 17 -46
75 -74 130 -54 103 -61 114 -61 101z"/>
<path d="M602 1895 c28 -63 68 -134 79 -141 7 -4 -7 28 -31 72 -45 84 -70 119
-48 69z"/>
<path d="M303 1883 c4 -3 10 -3 14 0 3 4 0 7 -7 7 -7 0 -10 -3 -7 -7z"/>
<path d="M681 1835 c22 -51 49 -89 49 -68 0 7 -4 14 -10 18 -5 3 -7 11 -5 18
3 7 -9 28 -25 47 -30 35 -30 35 -9 -15z"/>
<path d="M1527 1864 c-8 -8 8 -59 19 -59 16 0 16 52 1 58 -8 3 -17 3 -20 1z"/>
<path d="M2590 1830 c0 -7 3 -10 7 -7 3 4 3 10 0 14 -4 3 -7 0 -7 -7z"/>
<path d="M275 1810 c17 -11 37 -20 45 -20 8 0 0 9 -18 20 -42 26 -66 26 -27 0z"/>
<path d="M773 1803 c4 -3 10 -3 14 0 3 4 0 7 -7 7 -7 0 -10 -3 -7 -7z"/>
<path d="M2581 1792 c-1 -30 19 -114 30 -126 16 -17 9 -59 -21 -136 -35 -89
-37 -111 -9 -128 18 -12 19 -11 10 7 -17 31 -13 53 20 136 28 71 31 109 9 125
-3 3 -14 37 -22 75 -9 39 -16 60 -17 47z"/>
<path d="M1003 1793 c4 -3 10 -3 14 0 3 4 0 7 -7 7 -7 0 -10 -3 -7 -7z"/>
<path d="M363 1783 c4 -3 10 -3 14 0 3 4 0 7 -7 7 -7 0 -10 -3 -7 -7z"/>
<path d="M423 1783 c4 -3 10 -3 14 0 3 4 0 7 -7 7 -7 0 -10 -3 -7 -7z"/>
<path d="M3120 1775 c-6 -8 -10 -19 -8 -24 1 -6 8 1 15 14 13 28 11 31 -7 10z"/>
<path d="M290 1763 c0 -5 22 -18 48 -31 28 -13 39 -16 27 -7 -29 24 -75 47
-75 38z"/>
<path d="M750 1743 c0 -4 5 -15 10 -23 8 -13 10 -13 10 2 0 9 -4 20 -10 23 -5
3 -10 3 -10 -2z"/>
<path d="M985 1724 c11 -3 33 -10 50 -15 21 -7 26 -6 19 1 -6 6 -28 13 -50 15
-21 2 -30 2 -19 -1z"/>
<path d="M989 1670 c73 -16 145 -78 156 -137 7 -39 21 -50 30 -24 16 50 -105
161 -182 167 -48 3 -48 3 -4 -6z m181 -148 c0 -15 -2 -15 -10 -2 -13 20 -13
33 0 25 6 -3 10 -14 10 -23z"/>
<path d="M3108 1664 c-16 -8 -28 -17 -28 -19 0 -11 19 -4 41 15 29 23 24 25
-13 4z"/>
<path d="M626 1640 c87 -50 123 -105 170 -265 40 -133 44 -121 7 19 -35 128
-86 209 -158 248 -67 37 -83 35 -19 -2z"/>
<path d="M923 1663 c4 -3 10 -3 14 0 3 4 0 7 -7 7 -7 0 -10 -3 -7 -7z"/>
<path d="M2540 1630 c0 -7 3 -10 7 -7 3 4 3 10 0 14 -4 3 -7 0 -7 -7z"/>
<path d="M490 1616 c0 -2 8 -10 18 -17 15 -13 16 -12 3 4 -13 16 -21 21 -21
13z"/>
<path d="M948 1593 c7 -3 16 -2 19 1 4 3 -2 6 -13 5 -11 0 -14 -3 -6 -6z"/>
<path d="M980 1582 c0 -4 16 -16 35 -26 27 -15 38 -31 54 -75 11 -31 20 -47
20 -36 1 39 -36 101 -73 123 -20 12 -36 18 -36 14z"/>
<path d="M2873 1568 c-18 -13 -33 -26 -33 -30 0 -10 33 2 45 17 6 6 24 17 40
23 29 10 29 10 5 11 -14 1 -40 -9 -57 -21z"/>
<path d="M563 1528 c14 -24 30 -67 37 -96 7 -28 16 -55 21 -58 12 -7 12 -10
-11 65 -19 59 -55 131 -66 131 -3 0 6 -19 19 -42z"/>
<path d="M1507 1551 c-6 -26 0 -51 14 -51 11 0 11 27 0 54 -7 19 -8 19 -14 -3z"/>
<path d="M475 1513 c4 -10 15 -49 25 -88 11 -38 19 -60 19 -49 1 26 -37 154
-45 154 -4 0 -3 -8 1 -17z"/>
<path d="M2930 1519 c0 -5 5 -7 10 -4 6 3 10 8 10 11 0 2 -4 4 -10 4 -5 0 -10
-5 -10 -11z"/>
<path d="M3164 1469 c-32 -34 -50 -57 -39 -51 24 12 109 101 103 107 -2 3 -31
-23 -64 -56z"/>
<path d="M300 1460 c0 -7 3 -10 7 -7 3 4 3 10 0 14 -4 3 -7 0 -7 -7z"/>
<path d="M440 1450 c0 -7 3 -10 7 -7 3 4 3 10 0 14 -4 3 -7 0 -7 -7z"/>
<path d="M1933 1431 c8 -9 16 -22 18 -29 3 -9 9 -7 20 6 15 17 13 19 -18 29
-30 9 -32 9 -20 -6z"/>
<path d="M1761 1394 c0 -11 3 -14 6 -6 3 7 2 16 -1 19 -3 4 -6 -2 -5 -13z"/>
<path d="M680 1380 c0 -7 3 -10 7 -7 3 4 3 10 0 14 -4 3 -7 0 -7 -7z"/>
<path d="M1017 1358 c17 -18 43 -57 57 -85 25 -51 43 -72 29 -35 -20 51 -91
152 -107 152 -5 0 4 -15 21 -32z"/>
<path d="M931 1378 c-1 -3 12 -46 28 -95 33 -102 51 -254 31 -278 -6 -8 -10
-20 -7 -27 3 -8 6 -5 7 7 1 20 1 20 11 0 15 -33 2 185 -15 253 -15 56 -54 155
-55 140z"/>
<path d="M1287 1363 c-4 -3 -7 -11 -7 -17 0 -6 5 -5 12 2 6 6 9 14 7 17 -3 3
-9 2 -12 -2z"/>
<path d="M690 1350 c0 -7 3 -10 7 -7 3 4 3 10 0 14 -4 3 -7 0 -7 -7z"/>
<path d="M1656 1325 c-9 -26 -7 -32 5 -12 6 10 9 21 6 23 -2 3 -7 -2 -11 -11z"/>
<path d="M1247 1310 c-19 -22 -22 -35 -7 -25 10 6 34 45 28 45 -2 0 -11 -9
-21 -20z"/>
<path d="M2573 1323 c4 -3 10 -3 14 0 3 4 0 7 -7 7 -7 0 -10 -3 -7 -7z"/>
<path d="M2065 1300 c-3 -5 -1 -10 4 -10 6 0 11 5 11 10 0 6 -2 10 -4 10 -3 0
-8 -4 -11 -10z"/>
<path d="M241 1219 c0 -35 4 -86 9 -114 5 -34 6 -14 3 60 -6 121 -13 155 -12
54z"/>
<path d="M1195 1250 c-10 -11 -14 -20 -9 -20 5 0 15 9 22 20 7 11 11 20 9 20
-2 0 -12 -9 -22 -20z"/>
<path d="M1610 1260 c0 -7 3 -10 7 -7 3 4 3 10 0 14 -4 3 -7 0 -7 -7z"/>
<path d="M272 1230 c0 -19 2 -27 5 -17 2 9 2 25 0 35 -3 9 -5 1 -5 -18z"/>
<path d="M832 1240 c0 -14 4 -36 8 -50 11 -34 11 3 0 45 -7 27 -8 27 -8 5z"/>
<path d="M691 1232 c-1 -16 45 -219 63 -282 8 -25 24 -90 36 -145 29 -128 41
-164 33 -105 -3 25 -16 90 -30 145 -59 240 -101 399 -102 387z"/>
<path d="M1385 1220 c4 -14 10 -42 15 -63 8 -38 20 -61 20 -37 0 10 3 10 15 0
21 -18 19 -7 -5 20 -11 13 -20 30 -20 39 -1 9 -8 27 -16 41 -15 25 -15 25 -9
0z"/>
<path d="M1620 1210 c0 -7 3 -10 7 -7 3 4 3 10 0 14 -4 3 -7 0 -7 -7z"/>
<path d="M1153 1203 c4 -3 10 -3 14 0 3 4 0 7 -7 7 -7 0 -10 -3 -7 -7z"/>
<path d="M2421 1194 c0 -11 3 -14 6 -6 3 7 2 16 -1 19 -3 4 -6 -2 -5 -13z"/>
<path d="M3163 1203 c4 -3 10 -3 14 0 3 4 0 7 -7 7 -7 0 -10 -3 -7 -7z"/>
<path d="M1635 1150 c14 -84 18 -100 25 -105 9 -6 -5 83 -19 115 -10 23 -11
22 -6 -10z"/>
<path d="M1213 1163 c4 -3 10 -3 14 0 3 4 0 7 -7 7 -7 0 -10 -3 -7 -7z"/>
<path d="M280 1150 c0 -7 3 -10 7 -7 3 4 3 10 0 14 -4 3 -7 0 -7 -7z"/>
<path d="M851 1144 c0 -11 3 -14 6 -6 3 7 2 16 -1 19 -3 4 -6 -2 -5 -13z"/>
<path d="M880 1150 c0 -7 3 -10 7 -7 3 4 3 10 0 14 -4 3 -7 0 -7 -7z"/>
<path d="M422 1115 c0 -16 2 -22 5 -12 2 9 2 23 0 30 -3 6 -5 -1 -5 -18z"/>
<path d="M1292 1120 c0 -14 2 -19 5 -12 2 6 2 18 0 25 -3 6 -5 1 -5 -13z"/>
<path d="M1170 1110 c0 -7 3 -10 7 -7 3 4 3 10 0 14 -4 3 -7 0 -7 -7z"/>
<path d="M1261 1110 c0 -8 4 -24 9 -35 9 -20 9 -20 9 0 0 11 -4 27 -9 35 -9
13 -10 13 -9 0z"/>
<path d="M661 1110 c-1 -12 29 -168 38 -200 11 -35 11 -35 5 5 -13 100 -41
225 -43 195z"/>
<path d="M881 1073 c-1 -23 3 -44 7 -47 4 -2 6 12 4 32 -5 56 -10 62 -11 15z"/>
<path d="M1300 1076 c0 -8 4 -17 9 -20 5 -4 7 3 4 14 -6 23 -13 26 -13 6z"/>
<path d="M1450 1084 c0 -6 7 -19 16 -30 14 -18 14 -18 3 6 -14 31 -19 36 -19
24z"/>
<path d="M1622 1070 c0 -14 2 -19 5 -12 2 6 2 18 0 25 -3 6 -5 1 -5 -13z"/>
<path d="M430 1048 c0 -37 24 -182 45 -273 12 -53 13 -56 14 -23 1 20 -4 49
-9 64 -14 35 -38 197 -35 235 2 16 -1 29 -6 29 -5 0 -9 -15 -9 -32z"/>
<path d="M834 1040 c31 -202 32 -210 27 -265 -2 -16 -2 -48 0 -70 3 -50 15 42
22 175 3 56 2 64 -2 25 -6 -60 -6 -60 -15 24 -5 46 -15 98 -23 115 -14 31 -14
31 -9 -4z"/>
<path d="M3010 1040 c8 -5 20 -10 25 -10 6 0 3 5 -5 10 -8 5 -19 10 -25 10 -5
0 -3 -5 5 -10z"/>
<path d="M321 1030 c-1 -20 28 -182 34 -188 7 -7 -7 97 -21 153 -6 28 -12 43
-13 35z"/>
<path d="M372 1020 c0 -14 2 -19 5 -12 2 6 2 18 0 25 -3 6 -5 1 -5 -13z"/>
<path d="M271 929 c1 -67 -4 -102 -27 -174 -15 -49 -29 -115 -29 -145 -1 -30
-6 -65 -13 -77 -7 -12 -12 -54 -12 -94 0 -86 9 -89 11 -4 1 32 9 71 17 87 9
19 12 42 7 64 -4 25 1 61 18 117 14 45 30 98 35 117 17 61 14 -76 -3 -167 -21
-103 -30 -307 -17 -358 25 -96 48 -166 54 -160 3 4 -5 46 -18 93 -25 90 -34
267 -15 274 5 2 13 55 16 118 4 63 8 117 10 120 5 8 -25 262 -31 269 -3 3 -4
-33 -3 -80z m6 -366 c-4 -3 -7 0 -7 7 0 7 3 10 7 7 3 -4 3 -10 0 -14z"/>
<path d="M381 974 c0 -11 3 -14 6 -6 3 7 2 16 -1 19 -3 4 -6 -2 -5 -13z"/>
<path d="M996 945 c-3 -9 -6 -26 -5 -38 1 -14 4 -9 9 13 9 37 7 52 -4 25z"/>
<path d="M965 905 c-4 -25 -5 -48 -2 -51 2 -3 8 16 12 41 3 26 4 49 2 52 -3 3
-9 -16 -12 -42z"/>
<path d="M1050 899 c0 -99 -75 -361 -129 -449 -30 -50 -26 -62 5 -16 36 53 70
142 99 260 26 101 43 236 31 236 -3 0 -6 -14 -6 -31z"/>
<path d="M383 913 c7 -12 19 -85 43 -258 16 -122 38 -221 28 -130 -25 236 -49
381 -66 391 -6 4 -8 2 -5 -3z"/>
<path d="M3240 884 c-19 -8 -38 -22 -43 -30 -9 -16 -58 -19 -74 -3 -8 8 -13 8
-18 0 -3 -6 0 -13 7 -15 49 -15 63 -14 90 10 16 13 40 27 54 30 13 3 24 10 24
15 0 11 2 11 -40 -7z"/>
<path d="M713 835 c0 -22 2 -30 4 -17 2 12 2 30 0 40 -3 9 -5 -1 -4 -23z"/>
<path d="M980 860 c0 -7 3 -10 7 -7 3 4 3 10 0 14 -4 3 -7 0 -7 -7z"/>
<path d="M950 723 c-6 -43 -25 -118 -42 -168 -16 -49 -31 -97 -34 -105 -13
-41 31 50 47 98 20 59 54 240 46 248 -2 2 -10 -30 -17 -73z"/>
<path d="M606 743 c-6 -14 -5 -15 5 -6 7 7 10 15 7 18 -3 3 -9 -2 -12 -12z"/>
<path d="M720 750 c0 -7 3 -10 7 -7 3 4 3 10 0 14 -4 3 -7 0 -7 -7z"/>
<path d="M1746 725 c-30 -13 -30 -13 5 -30 19 -10 29 -20 22 -22 -6 -2 -26 3
-43 12 -24 13 -31 13 -28 3 3 -7 18 -17 34 -23 16 -5 32 -14 36 -19 4 -6 16
-5 32 2 21 9 26 9 26 -3 0 -18 34 -37 53 -29 9 3 25 -8 40 -28 54 -68 57 -70
93 -64 19 3 50 9 70 12 19 4 38 13 41 21 6 15 83 -61 83 -82 0 -5 -7 -1 -15 9
-11 15 -15 16 -15 5 0 -14 38 -54 45 -47 18 18 -72 154 -97 146 -6 -2 -31 16
-57 39 -25 24 -66 57 -91 74 -45 31 -45 31 -10 -2 19 -19 52 -49 73 -66 21
-18 32 -33 25 -33 -7 -1 -1 -8 15 -16 29 -16 36 -34 13 -34 -17 0 -46 27 -47
43 -1 24 -89 81 -89 58 0 -6 6 -11 14 -11 15 0 76 -64 76 -80 0 -5 -9 -14 -19
-20 -22 -11 -71 2 -71 19 0 6 -14 26 -32 46 -30 35 -31 36 -9 42 29 7 9 33
-27 33 -13 0 -31 8 -39 18 -13 15 -14 15 -8 -10 7 -37 2 -35 -29 12 -29 44
-29 44 -70 25z m54 -26 c17 -31 6 -33 -25 -5 -26 24 -27 26 -7 26 12 0 26 -9
32 -21z m97 -46 c-4 -3 -7 0 -7 7 0 7 3 10 7 7 3 -4 3 -10 0 -14z m-22 -13 c3
-5 2 -10 -4 -10 -5 0 -13 5 -16 10 -3 6 -2 10 4 10 5 0 13 -4 16 -10z"/>
<path d="M501 654 c0 -11 3 -14 6 -6 3 7 2 16 -1 19 -3 4 -6 -2 -5 -13z"/>
<path d="M486 605 c8 -37 14 -45 14 -19 0 10 -5 26 -10 34 -8 11 -9 7 -4 -15z"/>
<path d="M500 623 c1 -5 9 -24 20 -43 23 -41 27 -23 5 20 -15 29 -25 38 -25
23z"/>
<path d="M1576 598 c-9 -13 -36 -36 -60 -53 -49 -32 -57 -45 -28 -45 16 -1 16
-1 0 -14 -25 -19 -23 -23 23 -46 32 -17 44 -19 55 -9 21 18 17 31 -7 19 -11
-7 -23 -9 -26 -7 -9 9 35 27 51 21 9 -4 16 -1 16 6 0 8 11 10 33 5 29 -5 30
-5 14 9 -12 9 -14 16 -8 21 6 3 11 22 11 41 0 19 5 34 10 34 22 0 8 19 -21 29
-43 15 -46 14 -63 -11z m62 -22 c2 -10 -1 -23 -7 -29 -14 -14 -57 25 -46 43
11 17 49 8 53 -14z m-51 -28 c10 -17 11 -58 1 -52 -5 3 -24 -4 -43 -16 -50
-31 -67 -20 -29 18 17 17 34 38 37 47 8 18 23 20 34 3z m-61 -23 c-11 -8 -22
-12 -25 -9 -6 6 19 24 34 24 6 -1 1 -7 -9 -15z m114 1 c0 -11 -19 -15 -25 -6
-3 5 1 10 9 10 9 0 16 -2 16 -4z"/>
<path d="M1702 594 c-26 -18 -26 -51 -2 -71 10 -8 11 -12 3 -13 -6 0 -15 5
-18 10 -8 12 -25 13 -25 1 0 -5 8 -11 18 -15 70 -24 107 -35 110 -31 8 7 -9
25 -24 25 -16 0 -74 48 -74 62 0 4 23 8 50 8 52 0 64 12 31 30 -27 14 -43 13
-69 -6z m68 -10 c0 -2 -12 -4 -26 -4 -14 0 -23 4 -20 9 6 8 46 4 46 -5z"/>
<path d="M1985 600 c3 -5 8 -10 11 -10 2 0 4 5 4 10 0 6 -5 10 -11 10 -5 0 -7
-4 -4 -10z"/>
<path d="M1050 590 c0 -7 3 -10 7 -7 3 4 3 10 0 14 -4 3 -7 0 -7 -7z"/>
<path d="M500 550 c0 -7 3 -10 7 -7 3 4 3 10 0 14 -4 3 -7 0 -7 -7z"/>
<path d="M120 530 c-23 -44 -70 -191 -69 -217 1 -26 1 -26 11 7 5 19 14 40 19
46 4 5 15 35 23 65 8 30 19 67 25 83 14 35 7 46 -9 16z"/>
<path d="M484 508 c3 -14 11 -71 16 -125 16 -156 22 -197 30 -208 5 -5 22 -47
40 -92 19 -50 37 -83 46 -83 19 0 18 27 -1 37 -12 7 -55 102 -55 123 0 2 14
-10 30 -28 33 -36 40 -52 13 -31 -15 12 -16 12 -10 -4 4 -10 7 -21 7 -23 0 -3
4 -3 9 1 5 3 18 -8 27 -25 10 -16 22 -30 26 -30 13 0 9 17 -7 30 -8 7 -15 18
-15 24 0 6 -7 24 -15 40 -8 15 -13 31 -10 35 2 4 -7 29 -20 56 -14 27 -25 54
-25 60 0 7 -13 41 -29 76 -15 35 -31 86 -35 112 -3 27 -11 56 -17 65 -8 14 -9
12 -5 -10z m67 -278 c5 0 9 -7 9 -15 0 -8 3 -15 8 -15 4 0 16 -13 27 -28 20
-27 20 -27 -11 -2 -40 33 -54 65 -52 114 2 40 2 40 5 -6 2 -27 8 -48 14 -48z"/>
<path d="M210 490 c0 -7 3 -10 7 -7 3 4 3 10 0 14 -4 3 -7 0 -7 -7z"/>
<path d="M1876 493 c-8 -8 71 -46 85 -41 6 2 -10 13 -34 25 -25 12 -48 19 -51
16z"/>
<path d="M342 470 c0 -14 3 -45 7 -70 8 -45 8 -45 9 -5 0 22 -4 54 -8 70 -7
27 -8 28 -8 5z"/>
<path d="M807 435 c5 -53 51 -199 53 -168 0 7 -9 36 -20 65 -11 29 -20 69 -21
88 0 19 -5 44 -10 55 -6 13 -7 -1 -2 -40z"/>
<path d="M1021 474 c0 -11 3 -14 6 -6 3 7 2 16 -1 19 -3 4 -6 -2 -5 -13z"/>
<path d="M281 404 c0 -43 4 -88 9 -99 5 -12 6 18 3 75 -7 118 -13 130 -12 24z"/>
<path d="M542 460 c0 -14 2 -19 5 -12 2 6 2 18 0 25 -3 6 -5 1 -5 -13z"/>
<path d="M986 453 c-6 -14 -5 -15 5 -6 7 7 10 15 7 18 -3 3 -9 -2 -12 -12z"/>
<path d="M1728 459 c-22 -12 -24 -31 -3 -23 24 10 65 -5 65 -22 0 -11 -5 -14
-17 -9 -39 16 -58 16 -30 0 32 -19 35 -41 6 -48 -28 -8 -51 2 -45 19 3 8 -1
14 -10 14 -30 0 -9 -33 33 -51 41 -17 41 -17 101 42 35 35 63 56 67 50 3 -6
13 -11 21 -11 12 0 12 3 2 20 -7 11 -17 18 -23 16 -5 -2 -18 1 -28 6 -14 7
-25 4 -42 -12 -23 -22 -65 -15 -65 10 0 13 -10 12 -32 -1z m106 -49 c-21 -22
-42 -40 -48 -40 -5 0 -1 7 10 15 10 8 15 15 10 15 -15 0 36 50 51 50 8 0 -2
-18 -23 -40z"/>
<path d="M988 381 c-31 -80 -32 -81 -18 -81 6 0 10 9 10 20 0 12 9 39 21 61
11 22 19 47 17 56 -2 8 -15 -17 -30 -56z"/>
<path d="M2219 412 c-20 -20 -39 -45 -42 -54 -3 -9 16 6 44 35 27 28 49 52 49
54 0 11 -20 -3 -51 -35z"/>
<path d="M1988 417 c-34 -13 -36 -22 -5 -23 13 -1 29 7 35 17 13 21 10 22 -30
6z"/>
<path d="M2380 337 c-53 -51 -102 -101 -110 -112 -7 -11 37 29 98 90 102 99
117 116 110 115 -2 -1 -46 -42 -98 -93z"/>
<path d="M556 398 c14 -46 63 -163 64 -151 0 15 -60 173 -67 173 -2 0 -1 -10
3 -22z"/>
<path d="M2830 412 c41 -14 117 -23 99 -13 -8 6 -40 12 -70 15 -35 4 -45 3
-29 -2z"/>
<path d="M950 390 c-6 -11 -8 -20 -6 -20 3 0 10 9 16 20 6 11 8 20 6 20 -3 0
-10 -9 -16 -20z"/>
<path d="M1354 364 c7 -29 35 -59 45 -48 3 3 -2 10 -12 15 -9 6 -17 19 -17 29
0 10 -5 22 -11 26 -9 5 -10 -1 -5 -22z"/>
<path d="M2953 383 c4 -3 10 -3 14 0 3 4 0 7 -7 7 -7 0 -10 -3 -7 -7z"/>
<path d="M1936 365 c-3 -8 0 -15 7 -16 7 0 6 -3 -3 -7 -46 -21 -111 -75 -106
-89 3 -8 6 -19 6 -24 0 -5 8 -9 17 -9 13 0 14 3 5 12 -22 22 -13 36 42 70 39
24 53 39 53 56 1 25 -12 29 -21 7z"/>
<path d="M923 348 c-15 -20 -25 -38 -20 -38 3 0 12 11 21 25 17 26 16 35 -1
13z"/>
<path d="M1410 330 c0 -9 69 -24 76 -17 3 2 -13 9 -36 15 -22 5 -40 6 -40 2z"/>
<path d="M650 320 c0 -7 3 -10 7 -7 3 4 3 10 0 14 -4 3 -7 0 -7 -7z"/>
<path d="M676 290 c1 -25 13 -57 30 -81 32 -47 43 -52 16 -6 -11 17 -23 48
-27 67 -11 55 -23 67 -19 20z"/>
<path d="M2128 318 c-15 -13 -62 -78 -56 -78 2 0 23 20 46 45 39 42 46 61 10
33z"/>
<path d="M740 300 c0 -7 3 -10 7 -7 3 4 3 10 0 14 -4 3 -7 0 -7 -7z"/>
<path d="M331 286 c-1 -10 13 -61 29 -113 17 -51 30 -106 30 -121 0 -26 20
-70 20 -45 1 53 -77 328 -79 279z"/>
<path d="M876 287 c3 -10 9 -15 12 -12 3 3 0 11 -7 18 -10 9 -11 8 -5 -6z"/>
<path d="M1470 285 c0 -6 77 -55 87 -55 13 1 -41 40 -54 40 -7 0 -13 5 -13 10
0 6 -4 10 -10 10 -5 0 -10 -2 -10 -5z"/>
<path d="M1560 275 c7 -8 20 -15 29 -15 13 1 13 3 -3 15 -26 19 -42 19 -26 0z"/>
<path d="M41 264 c0 -11 3 -14 6 -6 3 7 2 16 -1 19 -3 4 -6 -2 -5 -13z"/>
<path d="M301 264 c0 -11 3 -14 6 -6 3 7 2 16 -1 19 -3 4 -6 -2 -5 -13z"/>
<path d="M751 259 c-1 -41 19 -90 57 -139 65 -82 68 -77 7 10 -17 25 -37 65
-44 90 -8 25 -15 50 -16 55 -2 6 -4 -2 -4 -16z"/>
<path d="M1000 270 c0 -7 3 -10 7 -7 3 4 3 10 0 14 -4 3 -7 0 -7 -7z"/>
<path d="M1253 243 c5 -4 28 -19 52 -33 24 -14 64 -37 90 -52 26 -15 64 -32
84 -38 41 -11 131 -65 131 -78 0 -9 120 -42 153 -42 9 0 17 4 17 9 0 5 -8 7
-19 4 -10 -3 -32 2 -49 11 -17 9 -42 16 -55 16 -13 0 -37 12 -53 26 -28 27
-118 74 -141 74 -7 0 -47 21 -90 46 -76 45 -136 74 -120 57z"/>
<path d="M1621 228 c0 -16 1 -28 3 -28 2 0 13 -3 23 -6 16 -5 17 -4 2 8 -9 7
-19 22 -22 33 -3 15 -5 13 -6 -7z"/>
<path d="M1806 229 c-18 -21 -29 -21 -94 -3 -18 5 -21 3 -16 -10 3 -9 17 -16
30 -16 13 0 24 -6 24 -12 0 -9 3 -10 8 -2 4 6 19 14 33 17 15 4 30 14 33 23
10 25 2 26 -18 3z"/>
<path d="M840 222 c0 -9 110 -65 116 -59 2 2 -23 18 -56 35 -33 18 -60 29 -60
24z"/>
<path d="M2466 213 c-6 -14 -5 -15 5 -6 7 7 10 15 7 18 -3 3 -9 -2 -12 -12z"/>
<path d="M2211 200 c-19 -5 -40 -6 -48 -3 -7 3 -13 0 -13 -6 0 -7 27 -11 74
-11 82 0 224 -33 294 -69 23 -12 42 -19 42 -16 0 23 -209 94 -278 95 -26 0
-41 4 -37 10 3 6 5 10 3 9 -2 -1 -18 -5 -37 -9z"/>
<path d="M800 182 c0 -5 7 -15 15 -22 8 -7 15 -8 15 -2 0 5 -7 15 -15 22 -8 7
-15 8 -15 2z"/>
<path d="M980 180 c0 -7 3 -10 7 -7 3 4 3 10 0 14 -4 3 -7 0 -7 -7z"/>
<path d="M2529 148 c19 -21 62 -51 95 -68 34 -17 50 -28 36 -24 -17 4 -22 3
-15 -4 6 -5 21 -13 35 -17 19 -5 21 -4 10 4 -22 16 -2 13 68 -9 63 -20 156
-29 169 -17 3 4 -11 7 -33 7 -109 1 -292 68 -364 133 -35 32 -35 32 -1 -5z"/>
<path d="M1750 160 c0 -5 5 -10 10 -10 6 0 10 5 10 10 0 6 -4 10 -10 10 -5 0
-10 -4 -10 -10z"/>
<path d="M3130 160 c-8 -5 -26 -10 -38 -10 -34 0 -88 -40 -70 -51 20 -13 28
-11 22 5 -8 20 64 40 83 24 21 -17 15 -28 -14 -28 -14 0 -50 -11 -79 -25 -29
-14 -70 -29 -91 -34 -38 -9 -38 -9 -6 -10 17 -1 53 8 79 19 26 11 64 24 86 29
38 9 38 9 44 -30 4 -22 11 -42 16 -45 9 -6 7 17 -9 101 -3 17 -11 33 -17 37
-6 5 -1 8 12 8 13 0 20 4 17 10 -8 12 -16 12 -35 0z"/>
<path d="M3193 163 c9 -2 23 -2 30 0 6 3 -1 5 -18 5 -16 0 -22 -2 -12 -5z"/>
<path d="M122 120 c0 -19 2 -27 5 -17 2 9 2 25 0 35 -3 9 -5 1 -5 -18z"/>
<path d="M860 146 c0 -2 25 -20 55 -40 30 -20 55 -33 55 -29 0 13 -110 82
-110 69z"/>
<path d="M990 140 c0 -5 5 -10 11 -10 5 0 7 5 4 10 -3 6 -8 10 -11 10 -2 0 -4
-4 -4 -10z"/>
<path d="M526 121 c9 -37 44 -108 44 -91 0 8 -11 38 -25 65 -14 28 -22 39 -19
26z"/>
<path d="M301 110 c0 -8 4 -22 9 -30 12 -18 12 -2 0 25 -6 13 -9 15 -9 5z"/>
<path d="M697 75 c9 -19 18 -33 21 -31 4 5 -26 66 -33 66 -3 0 3 -16 12 -35z"/>
<path d="M808 55 c15 -30 30 -55 34 -55 4 0 -4 25 -19 55 -15 30 -30 55 -34
55 -4 0 5 -25 19 -55z"/>
<path d="M1230 90 c0 -7 3 -10 7 -7 3 4 3 10 0 14 -4 3 -7 0 -7 -7z"/>
<path d="M1867 67 c-20 -18 -37 -38 -37 -44 0 -6 -6 -14 -12 -16 -8 -3 -6 -6
5 -6 9 -1 17 5 17 13 0 7 18 30 40 50 22 20 36 36 32 36 -5 0 -25 -15 -45 -33z"/>
<path d="M2318 83 c7 -3 16 -2 19 1 4 3 -2 6 -13 5 -11 0 -14 -3 -6 -6z"/>
<path d="M2575 80 c3 -5 8 -10 11 -10 3 0 2 5 -1 10 -3 6 -8 10 -11 10 -3 0
-2 -4 1 -10z"/>
<path d="M980 66 c0 -2 8 -10 18 -17 15 -13 16 -12 3 4 -13 16 -21 21 -21 13z"/>
<path d="M1180 60 c0 -7 3 -10 7 -7 3 4 3 10 0 14 -4 3 -7 0 -7 -7z"/>
<path d="M1356 56 c6 -16 54 -51 53 -39 0 5 -13 18 -30 31 -19 15 -27 18 -23
8z"/>
<path d="M320 40 c0 -7 3 -10 7 -7 3 4 3 10 0 14 -4 3 -7 0 -7 -7z"/>
<path d="M920 41 c0 -6 4 -13 10 -16 6 -3 7 1 4 9 -7 18 -14 21 -14 7z"/>
<path d="M790 30 c0 -7 3 -10 7 -7 3 4 3 10 0 14 -4 3 -7 0 -7 -7z"/>
<path d="M1098 3 c7 -3 16 -2 19 1 4 3 -2 6 -13 5 -11 0 -14 -3 -6 -6z"/>
<path d="M1433 3 c4 -3 10 -3 14 0 3 4 0 7 -7 7 -7 0 -10 -3 -7 -7z"/>
</g>
</svg>
