<?xml version="1.0" standalone="no"?>
<!DOCTYPE svg PUBLIC "-//W3C//DTD SVG 20010904//EN"
 "http://www.w3.org/TR/2001/REC-SVG-20010904/DTD/svg10.dtd">
<svg version="1.0" xmlns="http://www.w3.org/2000/svg"
 width="344.000000pt" height="256.000000pt" viewBox="0 0 344.000000 256.000000"
 preserveAspectRatio="xMidYMid meet">
<metadata>
Created by potrace 1.16, written by Peter Selinger 2001-2019
</metadata>
<g transform="translate(0.000000,256.000000) scale(0.100000,-0.100000)"
fill="#000000" stroke="none">
<path d="M818 2273 c-54 -83 -172 -347 -192 -428 -14 -57 12 -12 39 70 35 103
148 334 180 369 15 16 19 26 11 26 -7 0 -24 -17 -38 -37z"/>
<path d="M871 2263 c24 -61 -2 -175 -67 -305 -13 -26 -24 -53 -23 -60 1 -26
88 169 104 235 17 66 7 157 -17 157 -4 0 -3 -12 3 -27z"/>
<path d="M1374 1945 c-14 -14 -31 -40 -39 -58 -14 -31 -13 -33 18 -60 22 -20
26 -26 12 -22 -11 4 -27 8 -37 9 -9 1 -24 9 -34 17 -16 13 -17 12 -11 -5 6
-15 4 -17 -13 -13 -29 8 -25 -21 5 -35 14 -6 25 -15 25 -19 0 -8 22 -34 88
-104 18 -19 47 -41 66 -49 221 -92 167 -431 -69 -430 -107 1 -211 98 -225 209
-5 37 -11 69 -14 73 -6 5 -1 -55 9 -121 6 -39 60 -102 119 -139 103 -63 239
-32 300 70 79 129 28 279 -117 348 -50 24 -76 77 -51 105 19 21 21 73 3 95 -9
11 -8 14 3 14 18 0 30 67 21 112 -7 35 -26 36 -59 3z m46 -22 c0 -10 -4 -14
-8 -8 -4 6 -11 13 -16 18 -5 4 -2 7 7 7 10 0 17 -8 17 -17z m-30 -18 c-7 -9
-15 -13 -19 -10 -3 3 1 10 9 15 21 14 24 12 10 -5z m27 -23 c1 -11 -6 -18 -18
-19 -24 -2 -24 6 -1 23 9 7 17 14 17 14 1 0 1 -8 2 -18z m-37 -32 c0 -13 -11
-13 -30 0 -12 8 -11 10 8 10 12 0 22 -4 22 -10z m10 -85 c12 -13 18 -25 13
-28 -10 -6 -73 40 -73 53 0 14 38 -1 60 -25z m15 25 c3 -5 1 -10 -4 -10 -6 0
-11 5 -11 10 0 6 2 10 4 10 3 0 8 -4 11 -10z m-30 -78 c-2 -3 1 -14 7 -26 10
-19 10 -20 -5 -7 -10 7 -17 22 -17 32 0 11 -6 19 -13 19 -8 0 -19 12 -26 28
-12 26 -12 26 23 -7 20 -19 34 -37 31 -39z"/>
<path d="M1135 1950 c-4 -6 -10 -44 -14 -83 -5 -61 -9 -72 -24 -71 -14 2 -15
-1 -6 -12 12 -14 -11 -60 -24 -47 -13 12 -7 -13 6 -26 10 -11 9 -13 -5 -8 -13
5 -18 1 -18 -12 0 -10 -7 -22 -16 -25 -14 -5 -15 -4 -5 8 21 26 -48 11 -76
-16 -30 -30 -48 -160 -29 -218 14 -44 43 -47 66 -6 16 31 46 47 69 38 16 -6 8
28 -19 73 -24 40 -36 80 -21 71 6 -4 11 0 11 8 0 9 5 16 10 16 7 0 7 -6 0 -20
-6 -12 -7 -20 -1 -20 5 0 7 -10 3 -22 -3 -14 -1 -19 6 -14 6 4 14 22 18 41 3
20 10 38 15 41 5 3 9 28 9 55 0 35 4 51 15 55 8 4 12 10 9 15 -3 5 2 6 10 3
15 -6 15 -34 0 -69 -29 -66 20 -211 56 -167 8 9 30 28 48 41 33 23 33 23 56 2
30 -28 80 -28 100 1 23 32 20 41 -11 35 -33 -6 -53 1 -53 19 0 8 -5 14 -11 14
-7 0 -8 -7 -4 -17 4 -12 -5 -8 -27 12 -59 53 -77 78 -69 94 11 21 3 41 -15 41
-8 0 -14 -6 -14 -12 -1 -20 -39 70 -41 95 -1 12 -1 34 -1 49 2 28 2 28 27 6
17 -15 23 -28 19 -41 -4 -12 -2 -17 4 -13 16 10 34 -28 20 -42 -7 -7 -10 -12
-8 -13 3 0 13 -2 23 -4 22 -4 22 12 -2 61 -24 50 -76 100 -86 84z m29 -195 c3
-8 1 -15 -4 -15 -6 0 -10 7 -10 15 0 8 2 15 4 15 2 0 6 -7 10 -15z m76 -95
c28 -28 50 -53 50 -56 0 -7 -31 16 -42 31 -12 17 -61 16 -54 -1 11 -29 -12
-13 -28 20 -20 42 -20 44 2 49 9 3 18 5 20 6 1 0 25 -22 52 -49z m-81 -16 c15
-32 25 -44 36 -41 8 4 17 2 20 -3 9 -15 -15 -22 -49 -16 -36 7 -51 40 -39 85
7 29 9 28 32 -25z m-149 21 c0 -12 -19 -12 -23 0 -4 9 -1 12 9 8 7 -3 14 -7
14 -8z m57 -7 c-3 -8 -6 -5 -6 6 -1 11 2 17 5 13 3 -3 4 -12 1 -19z m-69 -98
c12 -27 26 -50 32 -50 5 0 10 -4 10 -9 0 -5 -10 -7 -22 -3 -12 3 -19 1 -15 -5
3 -5 -6 -27 -20 -48 -24 -36 -27 -37 -39 -20 -21 28 -13 132 8 119 5 -4 9 2 8
12 -8 68 9 70 38 4z m362 17 c0 -16 -35 -1 -38 16 -3 16 -1 17 17 5 12 -7 21
-17 21 -21z m-193 -24 c-4 -3 -7 0 -7 7 0 7 3 10 7 7 3 -4 3 -10 0 -14z"/>
<path d="M1180 1680 c0 -7 3 -10 7 -7 3 4 3 10 0 14 -4 3 -7 0 -7 -7z"/>
<path d="M1140 1615 c0 -8 4 -15 10 -15 5 0 7 7 4 15 -4 8 -8 15 -10 15 -2 0
-4 -7 -4 -15z"/>
<path d="M1303 1913 c4 -3 10 -3 14 0 3 4 0 7 -7 7 -7 0 -10 -3 -7 -7z"/>
<path d="M687 1868 c-17 -6 -29 -19 -33 -36 -3 -15 -12 -47 -19 -72 -15 -52
-7 -116 25 -224 20 -66 21 -104 1 -91 -6 3 -6 -7 0 -27 5 -18 10 -53 11 -78 0
-25 4 -2 9 50 6 79 4 106 -11 157 -30 98 -35 175 -16 223 9 23 14 45 12 49 -8
12 16 38 43 46 13 4 21 3 18 -1 -3 -5 25 -10 62 -11 49 -1 58 1 36 7 -53 14
-109 17 -138 8z"/>
<path d="M1164 1833 c7 -20 19 -39 27 -42 12 -4 12 -2 0 12 -7 9 -11 23 -8 31
3 7 0 19 -6 25 -21 21 -26 11 -13 -26z"/>
<path d="M680 1835 c-8 -9 -8 -15 -2 -15 12 0 26 19 19 26 -2 2 -10 -2 -17
-11z"/>
<path d="M706 1778 c-23 -33 -21 -120 3 -142 11 -10 31 -41 44 -70 14 -28 32
-58 41 -65 9 -7 16 -21 16 -31 0 -10 7 -23 15 -30 9 -8 15 -9 15 -2 0 6 -4 13
-8 16 -5 3 -14 30 -21 61 -8 36 -19 59 -32 66 -11 5 -27 28 -37 49 -9 22 -22
40 -28 40 -17 0 -16 81 2 108 19 29 10 29 -10 0z"/>
<path d="M1249 1727 c-15 -12 -15 -14 2 -36 22 -27 39 -21 18 6 -11 15 -10 15
9 -1 17 -14 19 -22 10 -27 -7 -4 -9 -11 -5 -16 5 -4 12 -1 16 6 6 8 14 10 22
5 8 -4 4 5 -9 20 -12 16 -19 33 -15 39 3 6 1 7 -5 3 -7 -4 -12 -2 -12 3 0 14
-11 13 -31 -2z"/>
<path d="M912 1694 c-18 -20 -32 -44 -32 -55 0 -20 -15 -26 -25 -9 -3 6 -11
10 -16 10 -6 0 -3 -7 5 -16 20 -20 20 -28 0 -20 -17 6 -17 2 0 -49 4 -11 -2
-4 -12 15 -11 19 -18 40 -15 46 2 7 -1 15 -8 20 -8 4 -10 3 -5 -4 4 -7 2 -12
-3 -12 -16 0 -13 -31 5 -51 8 -9 24 -39 35 -65 20 -49 20 -49 15 -10 -5 38 -5
38 10 18 8 -12 20 -22 26 -22 7 0 7 4 1 13 -22 26 8 160 44 199 9 10 14 20 11
23 -2 3 -19 -11 -36 -31z"/>
<path d="M1429 1593 c12 -10 43 -35 67 -57 24 -21 44 -34 44 -29 0 15 -62 70
-100 87 -34 16 -34 16 -11 -1z"/>
<path d="M1393 1563 c4 -3 10 -3 14 0 3 4 0 7 -7 7 -7 0 -10 -3 -7 -7z"/>
<path d="M1423 1543 c4 -3 10 -3 14 0 3 4 0 7 -7 7 -7 0 -10 -3 -7 -7z"/>
<path d="M1201 1485 c-8 -28 -15 -63 -17 -79 -4 -28 -3 -29 11 -10 8 10 15 33
15 51 0 17 4 35 10 38 5 3 15 16 22 28 10 19 9 20 -4 9 -13 -10 -17 -10 -20 0
-3 7 -10 -10 -17 -37z"/>
<path d="M771 1484 c0 -11 3 -14 6 -6 3 7 2 16 -1 19 -3 4 -6 -2 -5 -13z"/>
<path d="M762 1435 c0 -16 2 -22 5 -12 2 9 2 23 0 30 -3 6 -5 -1 -5 -18z"/>
<path d="M1534 1434 c35 -34 2 -144 -55 -185 -76 -54 -199 -21 -259 69 -16 25
-30 39 -30 31 0 -30 52 -90 100 -114 117 -59 235 -10 269 113 14 49 3 102 -21
102 -18 0 -18 -1 -4 -16z"/>
<path d="M613 1433 c4 -3 10 -3 14 0 3 4 0 7 -7 7 -7 0 -10 -3 -7 -7z"/>
<path d="M741 1381 c-25 -45 -26 -135 -3 -183 12 -23 24 -55 28 -71 3 -15 10
-30 15 -33 14 -8 10 -48 -7 -72 -16 -23 -16 -23 -32 0 -22 30 -62 182 -63 233
0 32 -2 36 -10 22 -7 -12 -4 -41 10 -100 11 -45 22 -96 26 -113 3 -18 15 -40
25 -49 11 -10 16 -24 13 -33 -5 -14 -2 -13 18 3 46 38 52 76 20 147 -44 101
-51 120 -51 147 0 16 7 45 16 66 17 43 14 72 -5 36z"/>
<path d="M850 1390 c0 -7 3 -10 7 -7 3 4 3 10 0 14 -4 3 -7 0 -7 -7z"/>
<path d="M860 1360 c0 -7 3 -10 7 -7 3 4 3 10 0 14 -4 3 -7 0 -7 -7z"/>
<path d="M877 1334 c-4 -4 -7 -14 -7 -23 0 -11 3 -12 11 -4 6 6 10 16 7 23 -2
6 -7 8 -11 4z"/>
<path d="M895 1304 c-9 -15 -12 -23 -6 -20 11 7 35 46 28 46 -3 0 -12 -12 -22
-26z"/>
<path d="M1470 1320 c0 -7 3 -10 7 -7 3 4 3 10 0 14 -4 3 -7 0 -7 -7z"/>
<path d="M1100 1310 c0 -7 3 -10 7 -7 3 4 3 10 0 14 -4 3 -7 0 -7 -7z"/>
<path d="M1043 1303 c4 -3 10 -3 14 0 3 4 0 7 -7 7 -7 0 -10 -3 -7 -7z"/>
<path d="M950 1280 c0 -7 3 -10 7 -7 3 4 3 10 0 14 -4 3 -7 0 -7 -7z"/>
<path d="M1089 1271 c28 -7 55 -69 65 -147 6 -51 6 -53 -39 -100 -58 -63 -58
-73 0 -17 45 43 70 87 60 104 -7 11 -35 116 -35 130 0 6 4 7 10 4 6 -3 7 1 3
10 -4 13 -8 14 -14 4 -6 -11 -9 -10 -15 4 -4 10 -16 17 -33 16 -26 -1 -26 -1
-2 -8z"/>
<path d="M891 1219 c5 -28 11 -54 15 -58 4 -3 4 12 1 34 -4 22 -7 48 -7 58 0
9 -4 17 -9 17 -4 0 -4 -23 0 -51z"/>
<path d="M1002 1248 c-34 -37 -49 -110 -29 -142 14 -21 15 -33 7 -72 -12 -51
-3 -93 31 -149 11 -16 19 -42 19 -57 0 -15 5 -30 12 -34 19 -12 3 71 -20 103
-30 42 -40 91 -30 147 8 40 6 51 -8 67 -36 39 25 158 73 143 15 -5 16 -4 3 5
-22 16 -34 13 -58 -11z"/>
<path d="M1236 1111 c5 -59 3 -65 -22 -92 -15 -16 -24 -29 -21 -29 21 0 67 62
62 83 -23 101 -25 104 -19 38z"/>
<path d="M1000 1151 c0 -5 5 -13 10 -16 6 -3 10 -2 10 4 0 5 -4 13 -10 16 -5
3 -10 2 -10 -4z"/>
<path d="M893 1038 c2 -60 6 -91 16 -100 12 -11 13 -10 6 7 -4 11 -11 56 -16
100 -7 80 -7 80 -6 -7z"/>
<path d="M650 1000 c0 -7 3 -10 7 -7 3 4 3 10 0 14 -4 3 -7 0 -7 -7z"/>
<path d="M540 982 c0 -5 10 -17 21 -28 22 -19 22 -19 10 3 -12 24 -31 39 -31
25z"/>
<path d="M1150 940 c-25 -22 -42 -40 -38 -40 4 0 28 18 53 40 25 22 43 40 38
40 -4 -1 -28 -19 -53 -40z"/>
<path d="M840 963 c0 -6 9 -30 20 -54 11 -24 20 -36 20 -26 0 9 -9 34 -20 54
-11 21 -20 33 -20 26z"/>
<path d="M1255 960 c4 -6 11 -8 16 -5 14 9 11 15 -7 15 -8 0 -12 -5 -9 -10z"/>
<path d="M1203 943 c9 -2 23 -2 30 0 6 3 -1 5 -18 5 -16 0 -22 -2 -12 -5z"/>
<path d="M1261 936 c12 -10 60 -16 54 -6 -3 5 -18 10 -32 10 -15 0 -24 -2 -22
-4z"/>
<path d="M1060 910 c0 -7 3 -10 7 -7 3 4 3 10 0 14 -4 3 -7 0 -7 -7z"/>
<path d="M900 888 c0 -22 47 -58 77 -58 14 0 21 4 18 10 -3 6 -18 10 -33 10
-19 0 -33 8 -44 28 -12 19 -18 22 -18 10z"/>
<path d="M1210 851 c0 -5 5 -13 10 -16 6 -3 10 -2 10 4 0 5 -4 13 -10 16 -5 3
-10 2 -10 -4z"/>
<path d="M1100 833 c1 -13 50 -69 50 -57 0 6 -7 17 -15 24 -8 7 -15 19 -15 26
0 8 -4 14 -10 14 -5 0 -10 -3 -10 -7z"/>
<path d="M975 800 c-3 -5 1 -10 9 -10 9 0 16 5 16 10 0 6 -4 10 -9 10 -6 0
-13 -4 -16 -10z"/>
<path d="M2294 708 c-4 -7 -3 -8 4 -4 12 7 16 16 8 16 -3 0 -8 -5 -12 -12z"/>
<path d="M2345 640 c3 -5 8 -10 11 -10 3 0 2 5 -1 10 -3 6 -8 10 -11 10 -3 0
-2 -4 1 -10z"/>
</g>
</svg>
