<?xml version="1.0" standalone="no"?>
<!DOCTYPE svg PUBLIC "-//W3C//DTD SVG 20010904//EN"
 "http://www.w3.org/TR/2001/REC-SVG-20010904/DTD/svg10.dtd">
<svg version="1.0" xmlns="http://www.w3.org/2000/svg"
 width="344.000000pt" height="256.000000pt" viewBox="0 0 344.000000 256.000000"
 preserveAspectRatio="xMidYMid meet">
<metadata>
Created by potrace 1.16, written by Peter Selinger 2001-2019
</metadata>
<g transform="translate(0.000000,256.000000) scale(0.100000,-0.100000)"
fill="#000000" stroke="none">
<path d="M1525 2530 c-16 -32 -21 -70 -6 -54 5 5 11 18 13 29 3 11 4 -10 4
-47 -1 -65 -13 -87 -32 -57 -4 8 -12 2 -22 -16 -13 -26 -13 -30 4 -42 12 -9
20 -10 22 -3 6 17 22 11 22 -7 0 -13 3 -14 8 -5 6 9 16 4 37 -18 28 -29 28
-29 69 -8 23 12 51 31 63 42 22 19 22 19 16 -20 -3 -22 -12 -46 -19 -55 -8 -8
-14 -24 -14 -34 0 -15 -2 -16 -17 -4 -37 31 -4 -15 92 -127 161 -190 282 -282
446 -341 82 -29 119 -58 155 -119 22 -37 95 -114 109 -114 3 0 29 -16 58 -35
28 -19 58 -35 66 -35 8 0 72 58 143 129 104 106 128 135 128 159 0 15 9 38 20
50 11 11 17 27 14 35 -3 8 2 20 11 27 17 14 20 42 6 68 -5 9 -12 24 -14 32 -3
8 -25 26 -51 38 -43 22 -60 42 -36 42 6 0 4 10 -5 23 -13 21 -30 117 -20 117
2 0 16 -5 32 -12 15 -6 31 -11 36 -10 11 3 9 -26 -3 -33 -5 -3 -10 -1 -10 4 0
6 -7 11 -17 11 -15 0 -15 -2 0 -18 11 -12 13 -22 6 -35 -12 -21 -3 -38 16 -30
10 3 15 -1 15 -15 0 -28 11 -33 46 -22 22 6 24 8 8 9 -11 1 -29 10 -39 21 -10
12 -25 18 -32 16 -7 -3 -13 -1 -13 4 0 6 16 8 35 6 19 -3 33 -1 31 3 -3 4 -1
13 4 20 10 17 105 -68 99 -88 -3 -8 -14 -4 -32 13 -16 14 -33 26 -40 26 -7 0
-4 -5 6 -11 9 -5 17 -14 17 -19 0 -6 -8 -11 -17 -11 -10 -1 -5 -4 11 -8 16 -3
31 -13 33 -21 2 -9 1 -10 -3 -2 -8 16 -24 15 -24 -2 0 -23 107 -51 136 -36 13
7 21 17 18 22 -3 4 -10 5 -16 2 -7 -4 -8 -2 -4 5 8 13 -56 91 -84 102 -9 4
-22 26 -30 49 -11 32 -16 38 -22 25 -6 -10 -2 -25 13 -48 22 -32 22 -32 -9 -2
-18 18 -26 34 -21 39 5 6 9 17 9 25 -1 12 -6 10 -20 -8 -24 -28 -25 -22 -6 24
14 33 45 52 32 20 -6 -16 2 -19 21 -7 9 6 7 15 -7 37 -26 39 -26 54 0 24 10
-13 19 -19 20 -14 0 6 -14 26 -30 45 -46 53 -46 53 -59 93 -7 20 -17 39 -22
42 -5 4 -9 17 -9 30 0 18 -4 23 -15 19 -9 -4 -15 -17 -14 -33 1 -19 3 -21 6
-7 4 15 11 8 29 -30 28 -57 30 -74 9 -74 -8 0 -15 8 -15 18 0 13 -2 14 -9 3
-11 -17 -31 -6 -31 17 0 14 -2 14 -9 3 -7 -11 -11 -9 -20 8 -7 12 -16 19 -22
16 -14 -9 -11 12 5 27 11 12 10 18 -10 43 -13 17 -24 39 -25 50 0 11 -3 14 -6
8 -6 -16 -35 -17 -50 -2 -8 8 -10 0 -6 -32 6 -44 6 -44 -34 -6 -32 31 -42 35
-46 23 -4 -10 -1 -16 7 -16 8 0 25 -9 38 -20 57 -49 72 -60 80 -60 4 0 8 -8 9
-17 0 -11 3 -13 6 -6 5 15 33 -7 33 -26 0 -6 5 -10 12 -8 14 2 56 -108 45
-119 -17 -17 -57 16 -58 48 -1 24 -3 27 -6 11 -2 -13 -9 -23 -15 -23 -6 0 -8
11 -4 28 3 15 8 38 11 52 6 25 6 25 -5 0 -6 -14 -18 -28 -26 -33 -8 -4 -14
-18 -15 -30 -1 -20 -2 -19 -9 4 -9 31 -50 76 -50 56 0 -8 8 -22 19 -31 17 -16
21 -33 23 -93 0 -13 6 -23 14 -23 16 0 19 -26 5 -35 -5 -3 -22 6 -38 21 -15
14 -22 22 -14 18 11 -6 12 0 6 32 -9 49 -27 62 -38 29 -12 -34 -26 -31 -33 5
-4 16 -11 27 -16 24 -5 -3 -7 -12 -4 -19 3 -8 -2 -12 -12 -11 -9 2 -18 8 -20
14 -11 35 -42 -19 -42 -74 0 -21 -4 -33 -10 -29 -13 8 -13 -65 0 -99 6 -17 6
-26 0 -26 -6 0 -10 8 -11 18 0 14 -2 14 -9 -3 -6 -15 -9 -7 -9 30 -1 28 6 63
14 79 8 15 15 33 15 40 -1 6 -8 -2 -16 -17 -8 -15 -19 -25 -24 -22 -6 4 -10 0
-11 -7 -5 -81 -23 -150 -34 -125 -10 24 -1 75 23 128 20 43 21 69 2 39 -21
-33 -10 20 12 56 12 21 17 34 10 30 -17 -10 -15 17 3 61 13 31 13 34 0 23 -8
-7 -15 -18 -15 -25 0 -15 -61 -107 -67 -102 -2 3 3 21 11 41 8 20 13 43 10 50
-3 8 6 26 20 41 14 15 26 30 26 32 0 10 -41 -19 -49 -35 -18 -34 -51 -185 -51
-236 0 -32 -4 -46 -9 -38 -6 10 -10 8 -14 -9 -4 -13 -9 -20 -12 -17 -4 3 -1
17 6 30 10 19 30 118 24 118 -2 0 -15 -20 -90 -135 -41 -63 -85 -114 -98 -115
-4 0 4 17 18 37 14 21 25 41 25 46 0 5 18 30 40 56 39 47 51 69 28 55 -8 -5
-9 -1 -5 14 16 51 17 66 2 35 -8 -17 -16 -43 -19 -58 -3 -16 -20 -42 -37 -59
-29 -28 -32 -29 -27 -8 4 12 3 22 -2 22 -4 0 -11 -17 -15 -37 -6 -32 -9 -35
-15 -18 -15 36 -10 75 11 96 12 12 30 54 40 97 11 42 22 78 26 81 3 3 3 -7 -1
-24 -4 -16 -4 -27 0 -22 4 4 9 31 10 59 2 52 2 52 -32 -32 -56 -138 -84 -196
-85 -180 0 8 -6 2 -14 -14 -12 -28 -13 -28 -19 -9 -7 21 -7 21 -31 -3 -14 -14
-25 -27 -25 -29 0 -17 -45 -103 -52 -99 -4 3 -5 -3 -2 -13 3 -10 -3 -6 -13 10
-10 15 -23 25 -29 23 -12 -4 -104 83 -104 98 0 5 7 14 15 20 15 11 39 122 29
137 -7 11 17 89 27 89 5 0 5 7 2 17 -5 12 -3 14 7 8 9 -5 11 -4 6 3 -10 17
-26 15 -26 -3 0 -9 -7 -30 -16 -47 -9 -17 -18 -61 -20 -97 -2 -36 -3 -69 -4
-73 0 -5 -10 -18 -21 -29 -21 -21 -21 -21 -2 -48 21 -28 211 -196 214 -188 0
1 2 11 4 21 4 21 32 53 39 45 3 -2 1 -21 -3 -42 -5 -21 -5 -37 0 -37 5 0 9 5
9 10 0 6 6 10 14 10 8 0 17 13 21 30 6 29 25 52 25 30 0 -8 6 -8 20 0 21 11
21 -3 -1 -89 -14 -56 -2 -48 30 20 62 132 89 128 47 -6 -3 -11 3 -2 14 20 11
22 20 59 20 83 0 24 5 52 10 63 14 24 43 26 36 2 -2 -10 -7 -43 -10 -73 -5
-54 -5 -54 6 -15 6 22 20 53 31 69 12 16 15 26 7 21 -9 -6 -11 -4 -5 5 5 7 10
36 12 64 5 54 36 138 59 157 11 9 14 8 14 -4 0 -9 -4 -18 -9 -21 -9 -6 -31
-81 -37 -126 -8 -64 -14 -92 -23 -108 -14 -28 -64 -212 -58 -218 4 -5 35 89
52 158 4 15 18 34 31 43 20 13 23 13 18 0 -4 -8 -2 -15 3 -15 6 0 8 -35 6 -82
-3 -60 -1 -79 6 -68 6 8 11 27 11 42 0 41 17 43 31 3 14 -37 29 -46 29 -17 0
19 21 80 34 101 7 12 11 10 18 -9 13 -34 19 -19 8 20 -5 19 -9 35 -7 36 1 1
47 -18 102 -43 98 -44 134 -69 129 -88 -16 -70 -52 -165 -71 -184 -13 -13 -21
-27 -17 -30 3 -3 12 3 20 13 11 16 14 17 14 4 0 -17 -24 -41 -32 -33 -3 3 -13
-4 -23 -15 -20 -22 -41 -27 -29 -7 5 7 0 6 -11 -3 -10 -8 -51 -27 -92 -41 -89
-32 -91 -30 -173 82 -38 53 -62 75 -93 88 -170 72 -208 90 -261 130 -71 51
-210 191 -277 277 -39 50 -45 63 -37 83 4 13 11 21 14 18 3 -3 1 -15 -6 -26
-8 -17 -8 -21 3 -21 8 0 19 -10 25 -22 9 -19 10 -17 5 15 -5 30 -1 45 16 68
12 16 17 29 11 29 -5 0 -10 4 -10 9 0 6 9 9 20 8 11 -1 20 -1 20 -2 0 0 -4
-15 -10 -33 -7 -28 -7 -33 5 -28 12 4 15 -4 16 -37 2 -33 3 -35 6 -12 2 17 13
56 24 88 10 31 19 63 19 70 1 30 27 49 49 35 27 -17 31 -39 12 -62 -9 -11 -10
-16 -3 -12 15 9 16 11 -8 -53 -28 -71 -19 -77 10 -6 38 93 42 80 14 -44 -5
-23 -4 -32 3 -28 6 4 14 21 17 39 4 18 15 44 26 58 20 25 20 25 20 -6 0 -31
-21 -60 -33 -47 -4 3 -7 -3 -7 -15 0 -12 4 -22 10 -22 20 0 1 -77 -30 -123
-18 -27 -30 -51 -27 -54 15 -15 69 96 88 179 7 33 16 55 22 51 6 -4 7 4 3 20
-3 14 -2 29 4 32 16 10 12 28 -5 21 -17 -6 -19 3 -4 24 9 12 12 12 16 2 4 -10
11 -5 24 15 25 37 24 55 -1 25 -17 -21 -22 -22 -45 -10 -25 14 -25 14 0 50 20
30 22 38 11 48 -11 8 -15 8 -19 -2 -2 -7 -2 1 0 17 4 27 3 28 -10 13 -8 -10
-19 -18 -26 -18 -14 0 -14 -2 0 -37 12 -33 12 -38 0 -38 -5 0 -13 -3 -17 -7
-11 -11 -34 -10 -34 2 0 6 9 18 19 27 11 9 17 22 15 29 -2 8 -6 21 -9 30 -3 8
-10 12 -16 9 -8 -5 -8 -10 0 -18 21 -21 13 -40 -13 -33 -21 5 -28 -1 -52 -41
-15 -26 -29 -42 -32 -35 -2 7 -9 9 -15 5 -7 -3 1 7 17 23 37 37 59 72 63 96 3
16 1 17 -11 6 -8 -7 -13 -17 -13 -22 1 -5 -4 -11 -12 -14 -9 -3 -12 0 -9 9 19
46 18 50 -6 19 -40 -52 -50 -54 -69 -15 -9 19 -22 35 -27 35 -7 0 -5 -9 4 -22
22 -32 20 -47 -9 -54 -13 -3 -29 -12 -36 -20 -19 -23 -46 -16 -59 16 -7 16
-19 35 -28 42 -14 12 -15 9 -8 -22 3 -19 11 -37 16 -38 6 -2 8 -8 5 -12 -3 -5
-13 -6 -22 -3 -11 4 -14 2 -11 -8 3 -9 15 -13 31 -11 32 4 35 -11 9 -50 -14
-22 -21 -25 -30 -16 -15 15 -15 25 1 31 6 2 4 3 -5 2 -18 -3 -23 47 -19 180 1
30 1 30 -13 -5 -7 -19 -12 -51 -10 -70 2 -24 -1 -18 -10 19 -8 29 -12 60 -9
67 10 26 -6 14 -22 -16z m1238 -83 c21 -32 5 -50 -29 -35 -27 12 -37 33 -29
59 8 23 34 12 58 -24z m-1200 -66 c-7 -9 -14 8 -19 45 -4 39 -4 39 9 -1 8 -22
12 -42 10 -44z m287 66 c0 -2 -18 -21 -41 -42 -41 -40 -41 -40 -13 3 22 33 54
57 54 39z m65 -18 c-10 -15 -25 -10 -19 6 4 8 10 12 15 9 5 -3 7 -10 4 -15z
m-171 -11 c-5 -9 -2 -8 9 1 21 16 36 6 18 -12 -20 -20 -62 -17 -50 5 5 10 14
18 20 18 6 0 7 -6 3 -12z m226 -52 c0 -3 -5 -8 -12 -12 -7 -4 -8 -3 -4 4 7 12
16 16 16 8z m40 -2 c0 -3 -9 -17 -20 -31 -18 -23 -20 -23 -20 -6 0 10 5 24 12
31 13 13 28 16 28 6z m-433 -21 c-4 -3 -7 0 -7 7 0 7 3 10 7 7 3 -4 3 -10 0
-14z m193 10 c-1 -14 -40 -59 -40 -46 0 6 7 18 15 26 8 8 11 17 8 21 -4 3 -1
6 5 6 7 0 12 -3 12 -7z m-85 -13 c-3 -5 -12 -10 -18 -10 -7 0 -6 4 3 10 19 12
23 12 15 0z m122 -6 c-3 -3 -12 -4 -19 -1 -8 3 -5 6 6 6 11 1 17 -2 13 -5z
m14 -41 c-8 -15 -10 -15 -11 -2 0 17 10 32 18 25 2 -3 -1 -13 -7 -23z m1043
-28 c-3 -7 -1 -16 5 -20 6 -3 11 -20 11 -38 0 -33 -21 -25 -26 10 -2 10 -5 36
-8 58 -5 36 -5 38 8 22 8 -11 12 -25 10 -32z m43 23 c-3 -8 -6 -5 -6 6 -1 11
2 17 5 13 3 -3 4 -12 1 -19z m38 -50 c3 -7 -1 -4 -9 6 -9 11 -16 29 -15 40 1
17 2 16 9 -6 4 -14 11 -32 15 -40z m-24 -8 c4 -24 -12 -70 -22 -64 -5 3 -9 28
-9 57 0 44 2 49 14 37 8 -8 16 -22 17 -30z m-383 -32 c-13 -23 -13 -23 -16 -1
-2 12 3 32 10 45 13 23 13 23 16 1 2 -12 -3 -32 -10 -45z m82 -15 c0 -20 -24
9 -27 33 -4 29 -4 29 12 0 8 -15 15 -30 15 -33z m180 32 c32 -16 38 -25 18
-25 -14 0 -68 39 -55 40 4 0 21 -7 37 -15z m-37 -31 c-7 -18 -19 -18 -26 0 -7
18 1 26 18 19 8 -2 11 -11 8 -19z m-207 -16 c-3 -7 -9 -21 -12 -30 -4 -10 -10
-18 -15 -18 -4 0 -3 14 2 30 6 17 15 30 21 30 5 0 7 -6 4 -12z m99 2 c3 -5 4
-10 1 -10 -3 0 -8 5 -11 10 -3 6 -4 10 -1 10 3 0 8 -4 11 -10z m-46 -15 c3
-12 -13 -9 -17 4 -2 7 0 11 6 7 5 -3 10 -8 11 -11z m181 -14 c0 -6 -4 -13 -10
-16 -5 -3 -10 -1 -10 5 0 7 -7 9 -16 6 -8 -3 -12 -2 -9 4 8 13 45 13 45 1z
m-217 -21 c3 -11 1 -18 -4 -14 -5 3 -9 0 -9 -6 0 -6 -4 -8 -10 -5 -5 3 -10 -1
-10 -9 0 -9 -4 -16 -10 -16 -17 0 -11 21 13 46 27 29 24 28 30 4z m-272 -13
c-6 -8 -17 -32 -25 -53 -8 -21 -15 -32 -15 -24 -1 22 38 104 46 97 3 -4 1 -13
-6 -20z m345 -4 c-6 -28 -6 -28 8 -4 14 24 14 24 20 3 5 -13 16 -22 28 -22 20
0 20 -1 5 -18 -18 -20 -13 -32 12 -32 11 0 12 3 3 12 -8 8 -9 15 -1 25 13 15
39 17 39 3 0 -5 5 -10 11 -10 5 0 7 5 3 11 -4 7 -1 10 7 7 24 -8 16 -42 -11
-48 -22 -5 -23 -7 -7 -13 11 -4 15 -12 11 -19 -6 -9 -3 -9 9 0 27 22 99 -19
122 -70 17 -38 17 -40 -3 -61 -12 -12 -23 -35 -26 -51 -3 -16 -8 -31 -12 -35
-4 -3 -4 2 -1 12 4 9 2 17 -3 17 -5 0 -11 -8 -14 -18 -8 -24 -96 -110 -96 -93
0 7 12 51 26 97 24 79 35 96 48 75 3 -5 16 -11 28 -14 22 -6 22 -6 -2 13 -14
11 -28 20 -32 20 -5 0 -8 8 -8 18 0 13 -2 14 -9 3 -7 -11 -13 -10 -32 8 -12
11 -27 21 -32 21 -5 0 -7 7 -3 15 6 17 -5 20 -20 5 -7 -7 -19 -4 -36 10 -15
11 -33 20 -41 20 -9 0 -18 4 -21 9 -3 4 -18 11 -33 14 -73 16 -68 47 7 37 27
-4 50 -3 50 2 0 4 -7 8 -15 8 -19 0 -19 20 1 48 20 30 27 28 20 -5z m246 -5
c-9 -9 -15 -9 -24 0 -10 10 -10 15 2 22 20 12 38 -6 22 -22z m-816 -20 c-4
-24 -3 -29 4 -18 6 9 10 10 10 3 0 -21 -12 -43 -21 -38 -4 3 -16 -7 -26 -22
-10 -15 -21 -31 -26 -34 -4 -3 -7 -10 -6 -15 3 -20 -2 -28 -10 -15 -9 13 14
71 28 71 4 0 8 13 8 30 0 25 26 70 41 70 2 0 2 -15 -2 -32z m711 15 c-4 -3 -7
0 -7 7 0 7 3 10 7 7 3 -4 3 -10 0 -14z m-665 -45 c-9 -9 -5 -15 16 -24 27 -12
27 -12 -1 -13 -20 -1 -26 -5 -20 -13 9 -16 5 -60 -8 -72 -11 -12 -12 95 -2
145 6 32 7 32 16 11 7 -16 7 -26 -1 -34z m615 45 c-4 -3 -10 -3 -14 0 -3 4 0
7 7 7 7 0 10 -3 7 -7z m-142 -23 c3 -5 -1 -10 -9 -10 -9 0 -16 5 -16 10 0 6 4
10 9 10 6 0 13 -4 16 -10z m441 -38 c17 -27 17 -27 -15 2 -35 33 -37 38 -17
30 8 -3 22 -18 32 -32z m-522 -24 c-5 -8 -2 -9 9 -5 19 7 22 -5 6 -34 -5 -11
-14 -17 -20 -14 -13 8 -12 65 2 65 5 0 7 -5 3 -12z m-37 -15 c-4 -3 -7 0 -7 7
0 7 3 10 7 7 3 -4 3 -10 0 -14z m-30 -10 c-4 -3 -7 0 -7 7 0 7 3 10 7 7 3 -4
3 -10 0 -14z m607 -8 c15 -23 15 -25 1 -25 -9 0 -13 5 -10 10 3 6 0 10 -8 10
-7 0 -14 7 -14 15 0 22 13 18 31 -10z m-587 -47 c-3 -7 -5 -2 -5 12 0 14 2 19
5 13 2 -7 2 -19 0 -25z m35 -10 c-9 -9 -12 -7 -12 12 0 19 3 21 12 12 9 -9 9
-15 0 -24z m-15 -35 c-4 -3 -7 0 -7 7 0 7 3 10 7 7 3 -4 3 -10 0 -14z m364
-146 c-11 -29 -78 -107 -92 -107 -5 0 -28 -21 -51 -47 -94 -103 -108 -112
-137 -94 -19 12 94 120 127 121 13 0 22 6 22 15 0 13 131 147 138 141 1 -2 -2
-15 -7 -29z m-257 -189 c-47 -45 -48 -45 -76 -29 -15 9 -28 19 -28 23 0 6 142
57 148 53 2 -2 -18 -23 -44 -47z"/>
<path d="M2650 2036 c0 -31 6 -34 13 -6 3 11 1 23 -4 26 -5 3 -9 -6 -9 -20z"/>
<path d="M2820 1980 c0 -7 3 -10 7 -7 3 4 3 10 0 14 -4 3 -7 0 -7 -7z"/>
<path d="M1640 2550 c0 -7 3 -10 7 -7 3 4 3 10 0 14 -4 3 -7 0 -7 -7z"/>
<path d="M2690 2550 c0 -7 3 -10 7 -7 3 4 3 10 0 14 -4 3 -7 0 -7 -7z"/>
<path d="M2937 2528 c35 -37 123 -166 123 -182 0 -5 -14 3 -32 20 -32 29 -32
29 -6 -6 15 -19 31 -34 36 -33 12 3 127 -220 153 -294 18 -53 18 -53 -11 -53
-24 0 -36 10 -68 58 -22 31 -56 75 -75 96 -39 42 -54 85 -39 112 8 14 17 6 52
-49 23 -37 44 -67 46 -67 6 0 -56 111 -73 131 -7 8 -13 20 -13 25 -1 5 -9 27
-20 49 -11 22 -19 43 -20 48 0 12 -35 42 -52 45 -16 2 6 -51 45 -109 12 -19
17 -42 15 -87 -2 -51 1 -65 20 -85 12 -13 22 -29 22 -36 0 -7 4 -10 9 -7 5 4
32 -24 60 -61 43 -58 48 -69 33 -74 -9 -4 8 -6 38 -5 49 1 55 -1 55 -19 0 -11
3 -22 6 -25 4 -3 13 -27 22 -55 15 -50 15 -50 10 5 -3 30 -7 62 -10 70 -3 8
-7 20 -8 25 -2 6 -26 62 -55 125 -29 63 -54 126 -57 140 -3 14 -13 34 -23 45
-21 25 -81 137 -76 142 2 2 21 -20 42 -49 20 -29 54 -75 74 -103 35 -49 67
-121 88 -200 6 -22 16 -59 22 -82 6 -24 14 -43 19 -43 14 0 -59 242 -85 285
-72 118 -259 335 -288 335 -6 0 4 -15 21 -32z"/>
<path d="M3178 2545 c6 -11 21 -46 34 -78 12 -32 24 -54 26 -49 5 15 -37 119
-55 134 -14 11 -15 11 -5 -7z"/>
<path d="M2730 2540 c0 -7 3 -10 7 -7 3 4 3 10 0 14 -4 3 -7 0 -7 -7z"/>
<path d="M2780 2540 c0 -7 3 -10 7 -7 3 4 3 10 0 14 -4 3 -7 0 -7 -7z"/>
<path d="M3050 2545 c0 -6 9 -21 20 -35 11 -14 20 -28 20 -32 0 -4 21 -50 46
-103 42 -86 75 -127 91 -111 3 3 -2 8 -11 12 -9 4 -44 61 -77 128 -56 111 -89
165 -89 141z"/>
<path d="M2807 2508 c-14 -19 -18 -21 -26 -8 -16 24 -24 4 -9 -24 15 -29 28
-24 46 18 16 36 10 44 -11 14z"/>
<path d="M2466 2505 c-11 -8 -17 -17 -14 -20 2 -3 15 4 28 15 26 23 15 27 -14
5z"/>
<path d="M2862 2500 c0 -14 2 -19 5 -12 2 6 2 18 0 25 -3 6 -5 1 -5 -13z"/>
<path d="M2348 2448 c-17 -35 -31 -68 -30 -75 2 -7 -6 -21 -17 -32 -24 -24
-55 -81 -44 -81 5 0 18 18 31 40 12 22 26 40 31 40 5 0 11 15 15 32 8 39 45
120 60 130 7 5 7 8 -1 8 -7 0 -27 -28 -45 -62z"/>
<path d="M2418 2480 c-7 -16 -16 -30 -20 -30 -4 0 -6 -9 -5 -20 2 -28 13 -25
25 8 26 68 27 101 0 42z"/>
<path d="M3031 2497 c2 -1 15 -11 29 -22 25 -20 25 -20 6 3 -11 12 -24 22 -29
22 -6 0 -8 -1 -6 -3z"/>
<path d="M2050 2430 c0 -5 5 -10 10 -10 6 0 10 5 10 10 0 6 -4 10 -10 10 -5 0
-10 -4 -10 -10z"/>
<path d="M2893 2433 c4 -3 10 -3 14 0 3 4 0 7 -7 7 -7 0 -10 -3 -7 -7z"/>
<path d="M2109 2413 c-13 -16 -12 -17 4 -4 9 7 17 15 17 17 0 8 -8 3 -21 -13z"/>
<path d="M2027 2413 c-4 -3 -7 -11 -7 -17 0 -6 5 -5 12 2 6 6 9 14 7 17 -3 3
-9 2 -12 -2z"/>
<path d="M2155 2402 c-17 -11 -55 -64 -55 -75 0 -5 10 3 22 19 13 16 28 35 35
42 19 20 18 28 -2 14z"/>
<path d="M2214 2398 c-4 -7 -3 -8 4 -4 7 4 12 9 12 12 0 8 -9 4 -16 -8z"/>
<path d="M2356 2382 c-19 -27 -19 -27 5 -5 12 12 21 24 18 27 -2 2 -13 -8 -23
-22z"/>
<path d="M2920 2388 c0 -25 20 -46 20 -21 0 12 -4 25 -10 28 -5 3 -10 0 -10
-7z"/>
<path d="M1440 2380 c0 -7 3 -10 7 -7 3 4 3 10 0 14 -4 3 -7 0 -7 -7z"/>
<path d="M2257 2383 c-4 -3 -7 -16 -6 -27 0 -19 1 -19 10 3 10 24 8 36 -4 24z"/>
<path d="M2570 2383 c1 -23 18 -33 23 -14 3 14 0 21 -9 21 -8 0 -14 -3 -14 -7z"/>
<path d="M3240 2381 c0 -6 4 -13 10 -16 6 -3 7 1 4 9 -7 18 -14 21 -14 7z"/>
<path d="M1355 2360 c21 -23 -1 -30 -23 -8 -7 7 -12 8 -12 4 0 -13 33 -35 52
-36 9 0 18 -6 21 -12 2 -7 8 -10 12 -5 5 4 0 14 -11 22 -10 8 -14 14 -9 14 6
0 18 -6 28 -13 16 -13 16 -14 -1 -36 -23 -29 -50 -23 -121 25 -28 19 -51 31
-51 27 0 -5 18 -22 40 -37 45 -31 49 -40 20 -48 -11 -3 -20 -10 -20 -16 0 -8
6 -7 20 1 16 10 24 10 40 0 26 -16 33 -15 26 3 -3 9 0 15 8 15 11 0 12 -7 3
-35 -6 -20 -13 -31 -17 -25 -8 14 -30 -33 -30 -65 0 -13 -4 -27 -10 -30 -6 -4
-10 8 -10 29 0 19 5 38 10 41 6 3 10 12 9 18 0 9 -2 9 -6 0 -7 -19 -33 -16
-33 4 0 9 -3 14 -6 10 -10 -10 19 -152 33 -160 9 -6 11 -21 7 -50 -4 -31 -3
-38 5 -27 6 8 11 25 11 37 0 12 5 25 12 29 8 5 9 -4 4 -35 -4 -28 -3 -40 4
-36 5 3 10 27 10 52 0 46 0 46 19 21 11 -13 21 -40 24 -59 2 -19 5 -4 5 34 2
65 1 68 -19 62 -15 -5 -19 -4 -15 4 10 15 -5 13 -28 -4 -19 -14 -36 -12 -36 5
0 6 15 16 33 23 17 8 38 22 46 31 13 15 11 15 -17 -1 -17 -10 -33 -15 -37 -11
-8 7 5 58 14 55 3 -1 13 4 21 11 8 7 24 20 35 28 11 9 15 13 9 10 -13 -7 -27
21 -18 35 9 16 24 10 17 -7 -5 -14 -3 -14 16 -2 17 10 18 14 6 16 -19 4 -19
16 -1 34 16 17 -19 55 -45 50 -9 -2 -22 4 -29 13 -7 8 -17 15 -23 15 -5 0 -2
-9 8 -20z"/>
<path d="M2084 2355 c-9 -14 -13 -32 -10 -41 3 -8 1 -25 -6 -37 -10 -20 -10
-21 6 -8 11 9 15 23 12 36 -3 11 1 33 9 48 17 34 11 35 -11 2z"/>
<path d="M2610 2371 c0 -6 5 -13 12 -17 6 -4 8 -3 4 4 -3 5 0 13 6 15 8 3 6 6
-4 6 -10 1 -18 -3 -18 -8z"/>
<path d="M2732 2340 c0 -14 2 -19 5 -12 2 6 2 18 0 25 -3 6 -5 1 -5 -13z"/>
<path d="M1213 2343 c4 -3 10 -3 14 0 3 4 0 7 -7 7 -7 0 -10 -3 -7 -7z"/>
<path d="M2150 2342 c0 -7 -9 -21 -19 -31 -21 -21 -41 -55 -41 -68 1 -4 7 3
15 17 22 39 18 0 -5 -45 -30 -59 -23 -68 8 -10 26 50 54 136 46 144 -2 2 -4
-1 -4 -7z"/>
<path d="M2161 2304 c0 -11 3 -14 6 -6 3 7 2 16 -1 19 -3 4 -6 -2 -5 -13z"/>
<path d="M1650 2269 c-19 -16 -46 -30 -60 -30 -15 -1 -19 -3 -8 -6 9 -2 19
-12 21 -21 4 -15 5 -15 6 0 0 10 22 31 47 47 26 15 42 31 38 34 -5 3 -25 -8
-44 -24z"/>
<path d="M1195 2259 c27 -24 33 -35 24 -45 -8 -10 -5 -11 20 -1 16 6 28 14 25
19 -3 4 -11 5 -18 2 -8 -3 -23 8 -36 25 -12 17 -28 31 -36 31 -8 0 0 -13 21
-31z"/>
<path d="M1260 2286 c0 -2 7 -7 16 -10 8 -3 12 -2 9 4 -6 10 -25 14 -25 6z"/>
<path d="M3270 2282 c-1 -32 24 -102 41 -118 10 -9 19 -12 19 -7 0 6 -7 16
-15 23 -8 7 -15 20 -15 30 0 21 -29 91 -30 72z"/>
<path d="M1235 2260 c3 -5 8 -10 11 -10 3 0 2 5 -1 10 -3 6 -8 10 -11 10 -3 0
-2 -4 1 -10z"/>
<path d="M1011 2237 c-13 -21 -12 -21 5 -5 10 10 16 20 13 22 -3 3 -11 -5 -18
-17z"/>
<path d="M3346 2082 c2 -101 8 -180 14 -190 9 -13 10 1 4 53 -3 39 -10 124
-14 190 -7 109 -8 105 -4 -53z"/>
<path d="M1486 2231 c-31 -12 5 -22 41 -11 15 4 23 9 16 9 -6 1 -17 3 -25 5
-7 3 -22 1 -32 -3z"/>
<path d="M2045 2193 c-3 -21 -11 -46 -16 -56 -13 -23 -6 -33 9 -14 15 18 32
96 21 102 -4 3 -11 -11 -14 -32z"/>
<path d="M642 2195 c-9 -19 -9 -23 2 -19 15 6 29 44 17 44 -4 0 -13 -11 -19
-25z"/>
<path d="M601 2184 c-12 -27 -11 -28 4 -12 10 9 16 21 13 28 -2 7 -10 -1 -17
-16z"/>
<path d="M976 2178 c-9 -12 -16 -34 -15 -48 1 -25 1 -25 9 3 5 16 14 35 21 43
6 8 9 17 6 20 -3 3 -12 -5 -21 -18z"/>
<path d="M1172 2188 c-7 -7 -12 -23 -11 -37 1 -25 1 -25 9 3 5 16 15 33 22 37
7 5 8 9 3 9 -6 0 -16 -5 -23 -12z"/>
<path d="M1814 2158 c-4 -7 -3 -8 4 -4 12 7 16 16 8 16 -3 0 -8 -5 -12 -12z"/>
<path d="M549 2110 c-84 -99 -95 -114 -75 -107 19 8 19 7 1 -13 -18 -20 -41
-28 -30 -10 4 6 -1 7 -11 3 -12 -4 -14 -8 -5 -11 9 -3 8 -9 -5 -23 -14 -15
-15 -23 -6 -41 11 -23 11 -23 9 1 -1 18 7 31 30 45 19 13 38 38 48 63 9 23 32
62 51 87 43 57 38 60 -7 6z"/>
<path d="M1100 2125 c0 -14 4 -25 9 -25 5 0 12 -8 14 -17 4 -14 5 -12 6 5 0
12 -4 22 -10 22 -6 0 -9 9 -6 20 3 11 1 20 -4 20 -5 0 -9 -11 -9 -25z"/>
<path d="M1555 2116 c-18 -13 -18 -19 1 -96 5 -20 4 -22 -6 -10 -9 13 -10 12
-6 -5 3 -11 5 -47 5 -80 1 -33 1 -83 1 -111 1 -51 1 -51 -52 -38 -29 8 -57 12
-63 10 -13 -5 40 -26 65 -26 23 0 70 -20 70 -30 0 -19 139 -176 170 -193 19
-10 27 -12 18 -5 -12 10 -14 18 -7 25 9 9 -3 63 -15 63 -8 0 -1 -35 9 -42 6
-5 6 -11 -1 -18 -23 -23 -36 13 -54 140 -6 36 -14 83 -19 105 -8 38 -9 37 -10
-26 0 -36 3 -69 8 -75 8 -9 23 -94 16 -94 -5 0 -49 73 -51 85 -1 5 -9 26 -18
45 -17 35 -17 35 -13 1 4 -31 3 -32 -10 -16 -19 28 -20 99 -1 122 12 15 16
134 7 188 -4 22 -6 42 -4 43 7 7 45 -77 46 -100 0 -13 5 -32 10 -43 7 -15 8
-11 5 18 -4 34 -3 36 11 22 27 -27 28 -6 1 23 -14 15 -35 45 -46 68 -28 55
-44 67 -67 50z m25 -65 c8 -50 5 -130 -5 -140 -7 -7 -10 14 -10 62 0 40 -4 85
-8 100 -6 24 -5 26 6 16 7 -7 15 -24 17 -38z"/>
<path d="M1478 2113 c7 -3 16 -2 19 1 4 3 -2 6 -13 5 -11 0 -14 -3 -6 -6z"/>
<path d="M715 2100 c3 -5 8 -10 11 -10 3 0 2 5 -1 10 -3 6 -8 10 -11 10 -3 0
-2 -4 1 -10z"/>
<path d="M1180 2090 c0 -7 3 -10 7 -7 3 4 3 10 0 14 -4 3 -7 0 -7 -7z"/>
<path d="M1476 2053 c-4 -26 -10 -63 -13 -82 -4 -22 -2 -32 5 -27 10 6 28 143
19 152 -2 3 -8 -17 -11 -43z"/>
<path d="M798 2080 c-13 -8 -48 -15 -90 -19 -16 -2 -7 -31 25 -77 18 -27 41
-68 51 -92 17 -38 106 -126 106 -105 0 5 -5 14 -12 21 -9 9 -9 12 0 12 6 0 0
12 -13 26 -14 15 -25 30 -25 34 0 4 -7 11 -16 14 -9 3 -2 -11 16 -34 36 -45
27 -54 -12 -12 -24 26 -80 133 -93 178 -5 19 0 23 45 34 27 7 53 16 56 21 7
12 -17 11 -38 -1z"/>
<path d="M1446 2074 c-6 -17 -9 -160 -2 -153 5 5 16 169 12 169 -2 0 -7 -7
-10 -16z"/>
<path d="M3320 2080 c0 -7 3 -10 7 -7 3 4 3 10 0 14 -4 3 -7 0 -7 -7z"/>
<path d="M1282 2034 c-1 -23 -4 -57 -7 -75 -5 -31 -5 -32 5 -9 6 13 9 47 7 75
-3 46 -3 47 -5 9z"/>
<path d="M1190 2022 c0 -22 9 -68 19 -101 12 -37 15 -61 8 -61 -5 0 -2 -9 8
-20 19 -21 33 -20 19 1 -4 7 -9 22 -10 33 -2 12 -6 45 -10 73 -3 29 -10 50
-15 47 -5 -3 -9 5 -9 18 0 18 2 20 10 8 8 -13 10 -13 10 1 0 9 -7 22 -15 29
-13 11 -15 7 -15 -28z"/>
<path d="M1680 2051 c0 -6 4 -13 10 -16 6 -3 7 1 4 9 -7 18 -14 21 -14 7z"/>
<path d="M615 2031 c-10 -17 11 -21 31 -6 18 14 18 14 -3 15 -12 0 -24 -4 -28
-9z"/>
<path d="M820 2037 c0 -3 39 -34 88 -70 132 -98 291 -165 517 -217 50 -11 102
-30 118 -41 15 -11 27 -15 27 -10 0 19 -44 39 -130 60 -237 58 -385 118 -514
210 -93 66 -106 74 -106 68z"/>
<path d="M1235 1990 c12 -129 16 -142 34 -123 16 16 16 18 -1 35 -10 10 -18
33 -19 51 -1 17 -5 43 -10 57 -6 19 -7 14 -4 -20z"/>
<path d="M1700 2010 c0 -7 3 -10 7 -7 3 4 3 10 0 14 -4 3 -7 0 -7 -7z"/>
<path d="M2580 1970 c0 -7 3 -10 7 -7 3 4 3 10 0 14 -4 3 -7 0 -7 -7z"/>
<path d="M530 1945 c-8 -8 -24 -16 -35 -18 -11 -1 -29 -8 -40 -15 -19 -11 -19
-11 -1 -12 18 0 106 46 106 55 0 10 -16 4 -30 -10z"/>
<path d="M1720 1950 c0 -7 3 -10 7 -7 3 4 3 10 0 14 -4 3 -7 0 -7 -7z"/>
<path d="M2593 1937 c4 -10 4 -32 0 -49 -5 -27 -7 -29 -14 -13 -7 18 -8 17 -8
-5 -1 -33 14 -58 22 -37 15 38 18 105 6 112 -9 6 -11 3 -6 -8z"/>
<path d="M2953 1916 c25 -28 34 -27 17 3 -6 12 -17 21 -25 21 -9 0 -7 -7 8
-24z"/>
<path d="M3196 1915 c9 -14 24 -25 33 -25 13 1 13 3 -4 16 -11 8 -19 20 -17
25 1 5 -5 9 -13 9 -14 0 -13 -3 1 -25z"/>
<path d="M3106 1918 c-15 -6 -24 -13 -19 -17 23 -16 105 -152 123 -205 21 -58
17 -110 -10 -140 -5 -5 -6 -15 -3 -22 3 -8 1 -14 -5 -14 -11 0 -82 108 -82
125 0 6 -27 34 -60 63 -64 57 -78 58 -30 3 17 -18 30 -37 30 -42 0 -5 15 -24
34 -43 19 -19 49 -62 66 -96 34 -67 38 -67 65 0 4 8 13 30 21 49 22 50 29 118
14 136 -7 8 -9 15 -5 15 4 0 0 12 -10 26 -48 74 -85 158 -73 166 19 11 -20 9
-56 -4z m44 -54 c0 -8 4 -14 8 -14 5 0 16 -16 25 -35 23 -48 15 -44 -22 12
-31 47 -39 69 -21 58 6 -3 10 -13 10 -21z m89 -174 c0 -8 -6 0 -14 19 -8 18
-15 38 -14 45 1 15 28 -46 28 -64z m-141 -56 c-4 -3 -12 5 -18 18 -12 22 -12
22 6 6 10 -10 15 -20 12 -24z"/>
<path d="M3320 1897 c0 -20 4 -37 10 -37 5 0 7 14 3 33 -8 45 -13 47 -13 4z"/>
<path d="M2710 1914 c1 -15 40 -60 40 -46 0 7 -9 22 -20 34 -11 12 -20 18 -20
12z"/>
<path d="M1657 1890 c-3 -11 -1 -20 4 -20 5 0 9 9 9 20 0 11 -2 20 -4 20 -2 0
-6 -9 -9 -20z"/>
<path d="M1740 1905 c0 -3 5 -16 11 -28 12 -22 12 -22 -13 1 -26 23 -48 29
-48 11 0 -5 5 -7 11 -3 8 4 8 1 1 -12 -7 -14 -6 -22 3 -31 11 -10 15 -9 18 5
3 9 3 -8 0 -39 -4 -43 -1 -66 16 -103 11 -27 18 -52 15 -57 -3 -5 -1 -9 4 -9
5 0 12 -12 15 -27 4 -16 23 -46 42 -68 30 -33 33 -35 19 -10 -10 17 -23 37
-30 45 -7 8 -19 58 -27 110 -8 52 -18 104 -22 115 -5 13 -5 17 2 10 18 -18 43
-95 43 -133 1 -20 8 -48 16 -62 11 -17 13 -19 9 -5 -3 11 -10 50 -15 88 -4 37
-17 86 -28 108 -11 23 -18 47 -15 55 3 7 -2 21 -11 29 -9 9 -16 14 -16 10z
m19 -184 c0 -24 -1 -24 -14 9 -7 19 -14 46 -14 60 0 23 1 22 14 -9 8 -18 15
-45 14 -60z"/>
<path d="M2115 1876 c-10 -14 -22 -23 -28 -19 -6 3 -7 1 -3 -5 12 -20 30 -13
43 15 17 35 9 41 -12 9z"/>
<path d="M3026 1854 c60 -72 119 -167 94 -152 -11 7 -25 25 -31 41 -6 15 -14
25 -17 23 -9 -9 20 -66 39 -76 9 -6 32 -35 49 -66 35 -61 55 -65 26 -6 -70
146 -134 242 -181 272 -10 7 -1 -9 21 -36z"/>
<path d="M2300 1880 c0 -7 3 -10 7 -7 3 4 3 10 0 14 -4 3 -7 0 -7 -7z"/>
<path d="M3235 1870 c3 -5 8 -10 11 -10 3 0 2 5 -1 10 -3 6 -8 10 -11 10 -3 0
-2 -4 1 -10z"/>
<path d="M3363 1825 c0 -22 2 -30 4 -17 2 12 2 30 0 40 -3 9 -5 -1 -4 -23z"/>
<path d="M780 1840 c0 -7 3 -10 7 -7 3 4 3 10 0 14 -4 3 -7 0 -7 -7z"/>
<path d="M1801 1820 c7 -14 16 -52 19 -85 7 -60 7 -60 9 1 1 49 -3 67 -20 85
-20 24 -20 24 -8 -1z"/>
<path d="M1695 1804 c3 -18 6 -56 6 -85 1 -55 13 -84 31 -73 6 4 5 9 -2 14 -8
5 -14 38 -17 81 -2 41 -9 79 -15 84 -7 7 -8 0 -3 -21z"/>
<path d="M2470 1820 c0 -7 3 -10 7 -7 3 4 3 10 0 14 -4 3 -7 0 -7 -7z"/>
<path d="M3331 1815 c0 -11 7 -47 14 -80 15 -60 15 -60 10 2 -3 59 -25 127
-24 78z"/>
<path d="M3420 1798 c0 -18 5 -40 10 -48 7 -11 10 -4 10 27 0 23 -4 45 -10 48
-6 4 -10 -7 -10 -27z"/>
<path d="M3257 1799 c4 -13 8 -18 11 -10 2 7 -1 18 -6 23 -8 8 -9 4 -5 -13z"/>
<path d="M2690 1789 c0 -5 5 -7 10 -4 6 3 10 8 10 11 0 2 -4 4 -10 4 -5 0 -10
-5 -10 -11z"/>
<path d="M3382 1743 c-2 -51 -5 -63 -21 -68 -11 -3 -23 -16 -27 -28 -7 -22 -7
-22 -17 1 -10 22 -27 30 -27 12 0 -5 5 -10 11 -10 7 0 8 -11 4 -30 -8 -38 1
-38 48 5 38 34 38 34 34 107 -3 73 -3 73 -5 11z"/>
<path d="M925 1750 c16 -16 33 -30 39 -30 5 0 -3 14 -19 30 -16 17 -33 30 -39
30 -5 0 3 -13 19 -30z"/>
<path d="M960 1760 c6 -11 13 -20 16 -20 2 0 0 9 -6 20 -6 11 -13 20 -16 20
-2 0 0 -9 6 -20z"/>
<path d="M1881 1764 c0 -11 3 -14 6 -6 3 7 2 16 -1 19 -3 4 -6 -2 -5 -13z"/>
<path d="M1844 1748 c0 -16 4 -28 9 -28 4 0 7 -6 7 -13 0 -8 9 -18 19 -23 77
-35 221 -206 221 -260 0 -36 9 -25 32 38 22 65 22 73 -1 29 -21 -39 -31 -30
-34 29 -1 22 -5 40 -10 40 -5 0 -7 -10 -5 -22 5 -23 -170 144 -218 209 -22 28
-22 28 -20 1z"/>
<path d="M1240 1740 c0 -5 5 -10 11 -10 5 0 7 5 4 10 -3 6 -8 10 -11 10 -2 0
-4 -4 -4 -10z"/>
<path d="M2880 1730 c0 -5 5 -10 11 -10 5 0 7 5 4 10 -3 6 -8 10 -11 10 -2 0
-4 -4 -4 -10z"/>
<path d="M1175 1720 c3 -5 8 -10 11 -10 3 0 2 5 -1 10 -3 6 -8 10 -11 10 -3 0
-2 -4 1 -10z"/>
<path d="M1415 1720 c3 -5 19 -11 35 -15 16 -4 32 -11 35 -16 4 -5 11 -9 18
-9 6 0 1 7 -11 16 -26 18 -85 37 -77 24z"/>
<path d="M2930 1719 c0 -5 5 -7 10 -4 6 3 10 8 10 11 0 2 -4 4 -10 4 -5 0 -10
-5 -10 -11z"/>
<path d="M980 1711 c0 -5 7 -12 16 -15 14 -5 15 -4 4 9 -14 17 -20 19 -20 6z"/>
<path d="M2177 1709 c7 -7 15 -10 18 -7 3 3 -2 9 -12 12 -14 6 -15 5 -6 -5z"/>
<path d="M2240 1710 c8 -5 20 -10 25 -10 6 0 3 5 -5 10 -8 5 -19 10 -25 10 -5
0 -3 -5 5 -10z"/>
<path d="M2090 1700 c0 -5 5 -10 11 -10 5 0 7 5 4 10 -3 6 -8 10 -11 10 -2 0
-4 -4 -4 -10z"/>
<path d="M3430 1700 c0 -7 3 -10 7 -7 3 4 3 10 0 14 -4 3 -7 0 -7 -7z"/>
<path d="M3322 1680 c0 -14 2 -19 5 -12 2 6 2 18 0 25 -3 6 -5 1 -5 -13z"/>
<path d="M1035 1670 c3 -5 11 -10 16 -10 6 0 7 5 4 10 -3 6 -11 10 -16 10 -6
0 -7 -4 -4 -10z"/>
<path d="M1860 1670 c0 -7 3 -10 7 -7 3 4 3 10 0 14 -4 3 -7 0 -7 -7z"/>
<path d="M2220 1671 c0 -6 5 -13 10 -16 6 -3 10 1 10 9 0 9 -4 16 -10 16 -5 0
-10 -4 -10 -9z"/>
<path d="M2921 1664 c0 -11 3 -14 6 -6 3 7 2 16 -1 19 -3 4 -6 -2 -5 -13z"/>
<path d="M2977 1651 c-4 -18 -7 -43 -6 -55 1 -11 5 -1 10 24 5 25 7 49 6 55
-2 5 -7 -5 -10 -24z"/>
<path d="M3015 1670 c3 -5 11 -10 16 -10 6 0 7 5 4 10 -3 6 -11 10 -16 10 -6
0 -7 -4 -4 -10z"/>
<path d="M3268 1625 c-3 -27 -9 -59 -13 -70 -7 -17 -5 -17 19 5 15 13 22 26
17 28 -6 2 -9 7 -7 11 2 3 1 22 -3 41 -7 35 -7 35 -13 -15z"/>
<path d="M2173 1653 c4 -3 10 -3 14 0 3 4 0 7 -7 7 -7 0 -10 -3 -7 -7z"/>
<path d="M1593 1643 c4 -3 10 -3 14 0 3 4 0 7 -7 7 -7 0 -10 -3 -7 -7z"/>
<path d="M1900 1640 c0 -7 3 -10 7 -7 3 4 3 10 0 14 -4 3 -7 0 -7 -7z"/>
<path d="M2290 1644 c0 -6 7 -19 16 -30 14 -18 14 -18 3 6 -14 31 -19 36 -19
24z"/>
<path d="M3014 1630 c8 -8 41 -55 75 -103 61 -88 61 -88 29 -117 -32 -30 -32
-30 -65 2 -31 30 -33 36 -33 103 0 55 -3 72 -14 72 -12 0 -15 -28 -6 -57 1 -3
1 -24 0 -47 -1 -37 3 -46 34 -74 55 -48 82 -89 65 -99 -7 -5 -16 -7 -20 -5 -3
3 -4 -7 -1 -20 2 -14 -3 -36 -12 -50 -18 -27 -20 -35 -8 -35 5 0 16 15 25 33
10 17 15 22 12 10 -3 -12 -1 -24 5 -28 6 -3 10 3 10 16 0 19 5 16 27 -19 15
-23 33 -42 40 -42 7 0 13 -4 13 -8 0 -8 52 -42 64 -42 9 0 7 45 -3 56 -14 15
-25 58 -12 50 14 -9 -12 77 -33 109 -20 30 -20 56 -1 103 11 26 18 33 24 23 7
-10 9 -10 14 2 3 8 25 18 48 22 25 4 37 10 29 15 -8 5 -4 14 16 29 15 12 25
24 21 27 -3 3 11 21 31 39 21 19 32 35 25 35 -15 0 -73 -58 -70 -71 1 -6 -9
-18 -23 -27 -24 -16 -24 -16 -11 1 23 29 1 19 -31 -15 -22 -23 -32 -28 -37
-19 -6 9 -10 7 -14 -8 -6 -26 -54 -46 -72 -31 -19 16 -115 164 -115 177 0 7
-9 11 -20 10 -16 -1 -17 -3 -6 -17z m286 -124 c0 -3 -5 -8 -12 -12 -7 -4 -8
-3 -4 4 7 12 16 16 16 8z m-110 -76 c0 -5 -7 -7 -15 -4 -8 4 -15 8 -15 10 0 2
7 4 15 4 8 0 15 -4 15 -10z m-30 -15 c0 -15 -30 -75 -37 -75 -5 0 -14 9 -21
20 -10 17 -10 20 3 20 8 0 19 9 25 20 10 18 30 28 30 15z m45 -107 c30 -65 33
-96 4 -48 -12 19 -25 36 -29 38 -31 12 -44 30 -31 46 21 25 30 20 56 -36z
m-15 -75 c0 5 -10 23 -22 39 -14 21 -17 29 -7 26 16 -5 57 -75 58 -100 2 -38
-59 -7 -85 43 -27 54 -16 67 21 24 19 -22 34 -36 35 -32z m35 -73 c3 -5 2 -10
-4 -10 -5 0 -13 5 -16 10 -3 6 -2 10 4 10 5 0 13 -4 16 -10z"/>
<path d="M1093 1629 c9 -5 17 -17 17 -24 0 -8 5 -15 10 -15 14 0 13 23 -2 38
-7 7 -19 12 -27 12 -13 -1 -13 -2 2 -11z"/>
<path d="M2891 1595 c-11 -24 -21 -49 -21 -54 0 -5 -15 -25 -32 -45 -32 -36
-35 -37 -110 -39 -91 -2 -89 4 42 117 35 30 38 34 13 20 -17 -11 -63 -50 -102
-87 -58 -56 -74 -67 -93 -62 -18 5 -20 4 -8 -4 8 -6 31 -8 51 -5 41 7 56 -3
121 -80 31 -36 42 -58 41 -80 0 -21 1 -24 4 -8 7 33 26 27 60 -20 23 -33 28
-46 19 -55 -29 -31 -34 -41 -26 -54 5 -7 6 -17 4 -21 -3 -5 2 -11 11 -14 9 -4
14 -13 11 -21 -3 -8 0 -21 8 -28 11 -12 13 -7 13 33 1 82 3 92 23 112 26 26
25 28 -7 22 -22 -4 -25 -2 -20 12 4 9 3 15 -2 11 -5 -3 -24 13 -41 35 -29 36
-30 41 -13 46 10 3 26 10 36 15 23 12 38 2 17 -11 -13 -8 -12 -11 5 -24 14
-11 21 -11 24 -3 2 7 9 19 15 27 10 13 9 13 -6 1 -16 -12 -18 -11 -18 3 0 16
10 19 65 17 19 0 25 2 15 7 -26 12 -24 34 2 27 19 -6 21 -5 11 6 -7 7 -13 33
-13 58 0 40 -1 43 -13 26 -13 -17 -14 -17 -22 6 -6 21 -8 21 -12 6 -5 -18 -6
-17 -28 3 -23 22 -23 22 -29 -32 -11 -82 -17 -108 -26 -108 -5 0 -7 7 -3 16 5
13 2 15 -18 9 -23 -7 -23 -7 -8 11 9 11 19 37 23 60 3 22 19 73 36 114 34 81
34 106 1 35z m-41 -120 c0 -8 -7 -15 -16 -15 -14 0 -14 3 -4 15 7 8 14 15 16
15 2 0 4 -7 4 -15z m78 -76 c11 0 12 -2 4 -6 -6 -2 -10 -9 -6 -14 3 -5 -1 -9
-9 -9 -20 0 -25 18 -18 65 6 40 6 40 9 3 2 -27 8 -38 20 -39z m-192 27 c10 -8
16 -18 11 -22 -4 -4 -7 -2 -7 4 0 7 -9 12 -20 12 -11 0 -20 5 -20 10 0 14 13
12 36 -4z m69 4 c4 -6 -5 -10 -19 -10 -14 0 -26 5 -26 10 0 6 9 10 19 10 11 0
23 -4 26 -10z m22 -25 c-24 -23 -30 -18 -10 9 10 13 19 20 21 15 2 -5 -3 -16
-11 -24z m150 3 c-3 -8 -6 -5 -6 6 -1 11 2 17 5 13 3 -3 4 -12 1 -19z m-20
-15 c-4 -3 -7 0 -7 7 0 7 3 10 7 7 3 -4 3 -10 0 -14z m-144 -31 c11 -12 13
-22 7 -32 -11 -17 -24 -6 -35 28 -8 26 6 29 28 4z m70 -213 c-4 -15 -8 -17
-14 -8 -6 11 4 28 18 29 0 0 -1 -9 -4 -21z"/>
<path d="M1520 1621 c0 -6 4 -13 10 -16 6 -3 7 1 4 9 -7 18 -14 21 -14 7z"/>
<path d="M2020 1612 c6 -13 14 -21 18 -18 3 4 -2 14 -12 24 -18 16 -18 16 -6
-6z"/>
<path d="M2130 1611 c0 -5 5 -13 10 -16 6 -3 10 -2 10 4 0 5 -4 13 -10 16 -5
3 -10 2 -10 -4z"/>
<path d="M2055 1600 c3 -5 8 -10 11 -10 3 0 2 5 -1 10 -3 6 -8 10 -11 10 -3 0
-2 -4 1 -10z"/>
<path d="M1166 1591 c5 -5 20 -12 34 -15 25 -7 25 -7 0 8 -28 17 -50 21 -34 7z"/>
<path d="M1630 1596 c0 -2 7 -7 16 -10 8 -3 12 -2 9 4 -6 10 -25 14 -25 6z"/>
<path d="M2200 1581 c0 -6 5 -13 10 -16 6 -3 10 1 10 9 0 9 -4 16 -10 16 -5 0
-10 -4 -10 -9z"/>
<path d="M2380 1571 c0 -6 4 -13 10 -16 6 -3 7 1 4 9 -7 18 -14 21 -14 7z"/>
<path d="M980 1560 c-13 -8 -13 -10 2 -10 9 0 20 5 23 10 8 13 -5 13 -25 0z"/>
<path d="M1635 1540 c9 -16 18 -30 21 -30 2 0 -2 14 -11 30 -9 17 -18 30 -21
30 -2 0 2 -13 11 -30z"/>
<path d="M1249 1553 c-1 -5 -1 -17 0 -28 2 -20 1 -20 -14 -1 -19 25 -19 7 0
-18 8 -11 15 -33 15 -49 0 -37 18 -25 26 18 3 19 12 39 20 46 8 6 14 19 14 28
0 14 -2 14 -10 1 -8 -12 -13 -13 -30 -2 -11 7 -21 9 -21 5z m18 -40 c-4 -3 -7
0 -7 7 0 7 3 10 7 7 3 -4 3 -10 0 -14z"/>
<path d="M2415 1550 c3 -5 8 -10 11 -10 3 0 2 5 -1 10 -3 6 -8 10 -11 10 -3 0
-2 -4 1 -10z"/>
<path d="M2347 1532 c3 -12 9 -25 14 -28 14 -8 11 10 -6 32 -13 18 -14 18 -8
-4z"/>
<path d="M1302 1488 c-13 -22 -21 -42 -18 -45 3 -3 -6 -27 -19 -54 -14 -27
-25 -55 -25 -64 0 -8 -5 -15 -12 -15 -7 0 -5 -6 4 -17 9 -10 19 -29 23 -43 4
-14 12 -30 17 -37 5 -7 7 -21 3 -33 -8 -26 1 -26 15 0 8 16 7 26 -5 42 -19 28
-21 78 -3 60 17 -17 28 -15 21 4 -3 9 -13 14 -24 11 -27 -7 -31 6 -15 50 43
115 65 178 63 180 -1 1 -13 -16 -25 -39z"/>
<path d="M2210 1521 c0 -6 4 -13 10 -16 6 -3 7 1 4 9 -7 18 -14 21 -14 7z"/>
<path d="M3356 1514 c-4 -9 -4 -19 -1 -22 2 -3 7 3 11 12 4 9 4 19 1 22 -2 3
-7 -3 -11 -12z"/>
<path d="M1362 1493 c-19 -27 -45 -103 -38 -111 2 -2 10 14 16 35 7 21 21 53
32 71 24 39 17 43 -10 5z"/>
<path d="M1440 1510 c0 -7 3 -10 7 -7 3 4 3 10 0 14 -4 3 -7 0 -7 -7z"/>
<path d="M1590 1516 c0 -2 8 -10 18 -17 15 -13 16 -12 3 4 -13 16 -21 21 -21
13z"/>
<path d="M2465 1510 c3 -5 8 -10 11 -10 2 0 4 5 4 10 0 6 -5 10 -11 10 -5 0
-7 -4 -4 -10z"/>
<path d="M2410 1507 c0 -2 15 -14 33 -27 20 -15 27 -17 18 -6 -13 16 -51 41
-51 33z"/>
<path d="M1793 1493 c4 -3 10 -3 14 0 3 4 0 7 -7 7 -7 0 -10 -3 -7 -7z"/>
<path d="M2360 1480 c0 -7 3 -10 7 -7 3 4 3 10 0 14 -4 3 -7 0 -7 -7z"/>
<path d="M1832 1455 c12 -14 24 -23 26 -20 6 6 -28 45 -39 45 -5 0 1 -11 13
-25z"/>
<path d="M1870 1453 c0 -5 21 -26 46 -47 25 -21 53 -54 61 -74 8 -19 16 -32
19 -30 12 13 -31 80 -76 118 -27 23 -50 38 -50 33z"/>
<path d="M2397 1433 c-4 -19 0 -33 11 -43 13 -11 14 -12 4 0 -18 21 -15 32 8
20 18 -9 18 -8 9 20 -14 37 -25 38 -32 3z"/>
<path d="M2340 1440 c0 -7 3 -10 7 -7 3 4 3 10 0 14 -4 3 -7 0 -7 -7z"/>
<path d="M2140 1430 c0 -7 3 -10 7 -7 3 4 3 10 0 14 -4 3 -7 0 -7 -7z"/>
<path d="M2483 1410 c-1 -11 3 -20 8 -20 6 0 7 5 4 10 -3 6 -1 10 5 10 6 0 8
5 5 10 -10 16 -21 11 -22 -10z"/>
<path d="M2048 1403 c7 -3 16 -2 19 1 4 3 -2 6 -13 5 -11 0 -14 -3 -6 -6z"/>
<path d="M1755 1390 c3 -5 8 -10 11 -10 3 0 2 5 -1 10 -3 6 -8 10 -11 10 -3 0
-2 -4 1 -10z"/>
<path d="M2007 1389 c7 -7 15 -10 18 -7 3 3 -2 9 -12 12 -14 6 -15 5 -6 -5z"/>
<path d="M2240 1390 c0 -7 3 -10 7 -7 3 4 3 10 0 14 -4 3 -7 0 -7 -7z"/>
<path d="M1825 1370 c3 -5 8 -10 11 -10 3 0 2 5 -1 10 -3 6 -8 10 -11 10 -3 0
-2 -4 1 -10z"/>
<path d="M3048 1368 c8 -10 11 -26 7 -40 -7 -23 -7 -23 10 0 9 13 15 24 14 25
-2 2 -13 9 -24 17 -18 14 -19 14 -7 -2z"/>
<path d="M2351 1352 c-11 -20 -4 -28 14 -19 3 1 10 -5 15 -13 15 -23 11 2 -4
29 -13 24 -13 24 -25 3z"/>
<path d="M1304 1348 c-4 -7 -3 -8 4 -4 7 4 12 9 12 12 0 8 -9 4 -16 -8z"/>
<path d="M2475 1321 c-3 -5 -1 -12 5 -16 5 -3 10 1 10 9 0 18 -6 21 -15 7z"/>
<path d="M2140 1310 c0 -7 3 -10 7 -7 3 4 3 10 0 14 -4 3 -7 0 -7 -7z"/>
<path d="M2045 1300 c5 -8 17 -28 28 -43 15 -22 16 -31 7 -42 -7 -8 -9 -16 -4
-16 5 -1 -4 -5 -21 -9 -28 -7 -27 -8 12 -9 38 -1 43 -4 49 -28 13 -60 35 -130
56 -181 15 -38 18 -56 10 -61 -6 -4 -19 -25 -28 -46 -9 -22 -25 -52 -36 -67
-11 -16 -15 -28 -10 -28 12 0 62 75 62 92 0 25 17 41 23 23 4 -9 3 -14 -1 -11
-4 2 -8 -5 -9 -17 -2 -20 0 -19 22 8 13 16 22 32 19 34 -3 3 -9 -1 -15 -9 -7
-11 -9 -7 -7 15 1 17 -8 52 -20 78 -12 26 -29 78 -38 115 -19 76 -31 105 -43
98 -4 -3 -8 15 -9 39 0 25 4 43 9 40 5 -4 6 1 3 10 -5 11 -10 13 -17 6 -8 -8
-17 -6 -31 7 -14 12 -17 13 -11 2z"/>
<path d="M2980 1268 c-19 -16 -27 -27 -17 -24 11 4 17 0 18 -12 0 -9 5 -4 11
13 6 17 16 33 22 37 6 4 8 9 6 12 -3 2 -21 -9 -40 -26z"/>
<path d="M2434 1271 c21 -23 26 -26 26 -11 0 5 -10 15 -22 21 -23 12 -23 12
-4 -10z"/>
<path d="M2540 1280 c0 -5 5 -10 11 -10 5 0 7 5 4 10 -3 6 -8 10 -11 10 -2 0
-4 -4 -4 -10z"/>
<path d="M2610 1270 c0 -7 3 -10 7 -7 3 4 3 10 0 14 -4 3 -7 0 -7 -7z"/>
<path d="M2669 1248 c4 -28 6 -29 9 -9 2 13 0 27 -5 32 -6 6 -7 -3 -4 -23z"/>
<path d="M2701 1254 c0 -11 3 -14 6 -6 3 7 2 16 -1 19 -3 4 -6 -2 -5 -13z"/>
<path d="M2517 1247 c-3 -7 4 -19 15 -26 18 -11 18 -10 7 11 -16 31 -16 31
-22 15z"/>
<path d="M2566 1245 c4 -8 10 -15 15 -15 4 0 6 7 3 15 -4 8 -10 15 -15 15 -4
0 -6 -7 -3 -15z"/>
<path d="M3010 1251 c0 -5 5 -13 10 -16 6 -3 10 -2 10 4 0 5 -4 13 -10 16 -5
3 -10 2 -10 -4z"/>
<path d="M1171 1234 c0 -11 3 -14 6 -6 3 7 2 16 -1 19 -3 4 -6 -2 -5 -13z"/>
<path d="M1230 1239 c0 -5 5 -7 10 -4 6 3 10 8 10 11 0 2 -4 4 -10 4 -5 0 -10
-5 -10 -11z"/>
<path d="M2630 1226 c0 -8 5 -18 10 -21 6 -3 10 1 10 9 0 8 -4 18 -10 21 -5 3
-10 -1 -10 -9z"/>
<path d="M1205 1184 c-16 -14 -22 -23 -13 -20 12 3 15 1 12 -9 -7 -17 -32 -27
-47 -18 -7 3 -5 -2 4 -13 9 -10 18 -26 21 -34 4 -12 32 36 66 113 7 15 -14 6
-43 -19z m-18 -71 c-4 -3 -7 0 -7 7 0 7 3 10 7 7 3 -4 3 -10 0 -14z"/>
<path d="M2775 1200 c3 -5 8 -10 11 -10 2 0 4 5 4 10 0 6 -5 10 -11 10 -5 0
-7 -4 -4 -10z"/>
<path d="M1159 1183 c-13 -16 -12 -17 4 -4 9 7 17 15 17 17 0 8 -8 3 -21 -13z"/>
<path d="M2600 1190 c10 -6 15 -28 15 -72 1 -35 7 -79 13 -98 7 -19 14 -55 16
-78 5 -51 16 -69 16 -26 0 27 1 27 14 9 7 -11 18 -33 25 -50 11 -29 11 -29 6
-2 -3 15 -21 60 -40 100 -27 58 -35 86 -35 131 0 60 -12 96 -33 96 -8 0 -7 -4
3 -10z"/>
<path d="M2820 1191 c-14 -4 -20 -10 -14 -14 6 -3 20 0 30 8 21 16 20 16 -16
6z"/>
<path d="M2926 1171 c4 -9 11 -63 15 -121 4 -58 11 -121 14 -140 5 -33 5 -34
-10 -15 -9 11 -19 32 -22 48 -3 15 -12 27 -19 27 -8 0 -14 5 -14 10 0 6 -5 10
-11 10 -6 0 -1 -17 12 -37 12 -21 38 -66 58 -101 23 -42 37 -58 43 -50 4 7 8
9 8 3 0 -10 20 24 47 80 8 17 23 48 34 69 26 52 17 58 -12 7 -39 -69 -56 -51
-29 29 23 65 23 70 9 70 -6 0 -9 -6 -6 -14 3 -8 0 -19 -7 -25 -7 -6 -16 -30
-20 -54 -3 -23 -8 -53 -12 -67 -5 -21 -4 -22 6 -7 6 9 16 17 22 17 7 0 7 -4
-1 -13 -6 -8 -8 -17 -4 -20 14 -14 -19 -38 -35 -25 -13 11 -14 9 -8 -12 6 -23
6 -24 -7 -7 -11 13 -13 28 -7 52 4 18 3 38 -1 42 -5 5 -11 62 -14 126 -4 117
-4 117 26 117 49 0 116 -84 94 -119 -3 -6 -1 -11 4 -11 6 0 11 -6 11 -13 0 -7
14 -26 30 -42 31 -30 40 -24 15 9 -8 11 -15 32 -15 48 0 18 -5 28 -15 28 -8 0
-15 7 -15 15 0 26 -29 73 -47 78 -10 3 4 5 31 6 87 2 38 16 -60 17 -84 1 -94
0 -88 -15z"/>
<path d="M3130 1184 c1 -18 40 -60 40 -43 0 9 -9 24 -20 34 -11 10 -20 14 -20
9z"/>
<path d="M1300 1163 c0 -13 -4 -23 -8 -23 -21 0 -226 -189 -216 -199 3 -3 25
15 48 39 24 25 63 62 87 82 101 85 109 88 109 39 0 -14 9 -53 20 -85 11 -33
20 -69 19 -80 -1 -15 -4 -12 -11 12 -6 17 -15 32 -19 32 -11 0 -11 -3 1 -35 5
-14 6 -24 1 -21 -5 3 -20 -5 -35 -19 -14 -13 -46 -38 -71 -55 -46 -31 -61 -49
-26 -31 10 6 40 26 65 46 54 41 91 51 106 27 14 -23 1 81 -16 130 -7 20 -16
57 -19 82 -8 53 -34 97 -35 59z"/>
<path d="M2007 1091 c-3 -38 -13 -84 -22 -101 -15 -29 -15 -39 0 -128 12 -67
13 -98 6 -100 -27 -9 7 -223 44 -274 8 -12 12 -33 10 -47 -4 -21 -4 -22 3 -6
10 22 28 -41 35 -118 2 -21 11 -43 22 -51 17 -12 16 -14 -13 -36 -18 -13 -32
-28 -32 -33 0 -5 6 -4 13 2 8 6 18 7 22 3 5 -4 5 -2 1 5 -8 14 36 29 53 19 5
-4 13 -1 17 5 4 8 3 9 -4 5 -20 -12 -13 10 9 30 22 19 22 19 15 -11 -4 -16
-15 -38 -23 -47 -9 -10 -11 -18 -6 -18 21 0 40 46 51 123 14 90 16 343 4 351
-5 3 -9 -9 -10 -26 0 -21 -9 -38 -24 -50 -23 -18 -23 -18 2 -15 22 2 25 -2 24
-30 -2 -170 -5 -215 -11 -209 -5 4 -8 13 -8 19 0 7 -9 13 -20 14 -11 2 -14 0
-7 -3 6 -3 12 -14 12 -24 0 -10 5 -22 10 -25 11 -7 4 -25 -10 -25 -5 0 -14 16
-21 35 -14 37 -35 50 -24 14 5 -16 4 -19 -6 -14 -9 6 -11 4 -6 -8 3 -9 1 -19
-5 -23 -11 -7 -7 66 6 101 7 19 7 19 -7 2 -13 -15 -15 -16 -21 -2 -3 9 3 24
13 34 19 19 37 78 27 88 -5 5 -12 -9 -31 -65 -2 -6 -8 -12 -13 -12 -14 0 -35
57 -28 75 3 8 2 15 -3 15 -15 0 -21 44 -10 80 9 29 7 43 -10 84 -22 50 -22 76
0 34 24 -47 73 -118 77 -113 3 2 -6 22 -20 42 -40 60 -43 81 -16 93 23 10 23
10 -3 7 -32 -4 -53 10 -63 41 -7 22 -6 23 14 12 18 -9 21 -9 15 0 -5 8 -3 11
6 8 8 -3 13 -10 12 -15 -1 -5 8 -9 19 -9 19 0 19 1 -3 19 -12 10 -28 16 -35
13 -24 -9 -36 21 -30 81 11 114 19 253 14 253 -3 0 -8 -31 -11 -69z m0 -398
c-4 -3 -7 0 -7 7 0 7 3 10 7 7 3 -4 3 -10 0 -14z m22 -61 c0 -30 -2 -33 -9
-17 -12 28 -12 67 0 60 6 -3 10 -23 9 -43z"/>
<path d="M2254 1148 c-4 -7 -3 -8 4 -4 12 7 16 16 8 16 -3 0 -8 -5 -12 -12z"/>
<path d="M2285 1130 c3 -5 8 -10 11 -10 2 0 4 5 4 10 0 6 -5 10 -11 10 -5 0
-7 -4 -4 -10z"/>
<path d="M2405 1130 c-3 -5 -1 -10 4 -10 6 0 11 5 11 10 0 6 -2 10 -4 10 -3 0
-8 -4 -11 -10z"/>
<path d="M1451 1114 c0 -11 3 -14 6 -6 3 7 2 16 -1 19 -3 4 -6 -2 -5 -13z"/>
<path d="M1803 1081 c-33 -38 -39 -50 -31 -65 8 -14 6 -21 -9 -31 -29 -20
-155 -147 -150 -151 2 -2 38 30 79 71 41 41 79 75 84 75 19 -1 75 -98 70 -121
-3 -13 -7 -55 -10 -94 -6 -92 10 -42 19 58 7 70 6 73 -24 111 -30 38 -49 82
-38 92 2 3 14 -15 25 -38 20 -43 20 -43 15 14 -3 31 -1 70 6 89 15 44 12 44
-36 -10z"/>
<path d="M3273 1095 c-2 -19 1 -35 6 -35 5 0 12 -8 14 -17 3 -10 5 6 4 34 -2
59 -21 72 -24 18z"/>
<path d="M2202 1100 c0 -14 2 -19 5 -12 2 6 2 18 0 25 -3 6 -5 1 -5 -13z"/>
<path d="M2230 1110 c0 -7 3 -10 7 -7 3 4 3 10 0 14 -4 3 -7 0 -7 -7z"/>
<path d="M2373 1103 c4 -3 10 -3 14 0 3 4 0 7 -7 7 -7 0 -10 -3 -7 -7z"/>
<path d="M3155 1101 c-3 -6 -17 -8 -31 -5 -15 4 -24 2 -24 -6 0 -7 7 -10 15
-6 10 4 15 -1 15 -14 0 -11 10 -25 23 -31 22 -12 22 -12 2 10 -19 22 -19 23
-1 37 11 7 17 16 14 20 -3 3 -9 1 -13 -5z"/>
<path d="M2297 1093 c-11 -11 -8 -43 4 -43 6 0 9 7 5 15 -3 8 0 15 5 15 6 0 9
-9 6 -20 -4 -15 5 -27 37 -49 23 -16 48 -36 55 -45 7 -8 25 -18 41 -21 15 -3
36 -15 46 -26 9 -10 27 -19 40 -19 15 0 29 -12 43 -36 22 -38 27 -59 11 -49
-14 9 -13 2 16 -81 28 -81 29 -152 4 -164 -8 -5 -26 -13 -40 -19 -23 -10 -22
-10 10 -5 19 3 39 10 45 15 17 16 25 9 16 -13 -5 -13 -6 -57 -4 -99 5 -75 5
-75 -31 -71 -37 4 -75 -24 -76 -57 0 -8 10 -3 23 13 17 19 29 25 42 20 13 -5
16 -4 11 4 -4 7 -2 12 3 12 15 0 14 -23 -1 -38 -7 -7 -22 -12 -34 -12 -12 0
-27 -7 -34 -15 -7 -8 -15 -15 -19 -15 -13 0 -6 137 8 154 8 10 9 16 3 16 -13
0 -32 -32 -32 -55 0 -21 -18 -38 -55 -50 -21 -7 -30 -17 -30 -32 -1 -54 -33
-1 -35 57 -1 8 -7 2 -14 -15 -13 -30 -13 -30 -23 5 -9 29 -12 32 -18 17 -4
-11 -2 -29 5 -43 8 -13 10 -27 7 -31 -26 -25 -31 85 -6 123 24 36 25 58 2 24
-18 -25 -18 -25 -24 15 -4 22 -4 74 0 116 4 42 4 87 0 100 -10 40 -20 -156
-15 -300 3 -110 1 -139 -11 -158 -20 -30 -9 -42 17 -18 15 14 20 15 21 4 0 -8
4 -4 9 9 5 12 15 22 22 22 10 0 10 -2 -1 -9 -16 -10 -6 -31 15 -31 8 0 12 5 9
10 -4 6 5 10 19 10 14 0 26 -5 26 -11 0 -8 5 -8 15 1 8 7 15 24 15 37 0 22 -2
24 -15 13 -13 -11 -14 -10 -5 11 6 13 13 32 16 42 13 37 34 -2 27 -50 -6 -46
-6 -46 23 -37 16 4 49 8 74 9 56 0 76 11 59 31 -9 11 -8 19 5 38 21 33 31 126
18 165 -11 30 -5 61 22 119 10 24 10 24 18 -5 7 -26 6 -56 -8 -168 -3 -29 -1
-36 6 -25 5 8 10 25 10 38 0 14 4 20 10 17 7 -4 9 2 6 17 -12 55 -17 186 -7
192 14 9 34 -60 28 -97 -3 -18 0 -54 6 -81 8 -37 8 -51 0 -53 -9 -3 -8 -15 3
-45 18 -52 18 -63 -1 -44 -8 8 -15 25 -16 38 0 16 -4 12 -13 -17 -8 -22 -21
-53 -30 -70 -9 -16 -16 -36 -16 -43 0 -7 -12 -25 -27 -39 -16 -14 -21 -24 -13
-21 8 2 24 19 35 36 24 37 34 39 63 12 26 -24 32 -25 32 -3 0 9 -3 13 -6 10
-9 -9 -64 25 -64 39 0 17 37 47 50 39 6 -3 10 -12 9 -18 -1 -7 -1 -21 0 -32 2
-20 2 -20 13 -1 23 40 -15 436 -43 436 -4 0 -12 -15 -18 -32 -6 -18 -23 -46
-37 -63 -25 -30 -25 -30 -19 6 3 23 -2 56 -15 94 -11 32 -20 75 -20 96 0 25
-13 60 -39 106 -28 50 -38 76 -34 96 3 17 1 27 -7 27 -7 0 -9 -8 -4 -22 6 -21
5 -21 -19 5 -19 19 -36 27 -61 27 -36 0 -87 15 -96 29 -8 12 -45 22 -53 14z
m138 -57 c58 -11 61 -13 88 -65 31 -56 29 -74 -6 -51 -12 7 -39 22 -59 32 -20
10 -40 23 -43 28 -4 6 -24 22 -46 36 -43 27 -53 51 -16 39 12 -4 49 -12 82
-19z m55 -696 c0 -5 -2 -10 -4 -10 -3 0 -8 5 -11 10 -3 6 -1 10 4 10 6 0 11
-4 11 -10z m-115 -30 c4 -6 1 -9 -7 -8 -7 2 -12 -3 -10 -10 1 -8 -2 -11 -7 -7
-11 6 -3 35 9 35 5 0 12 -5 15 -10z m215 -5 c0 -2 -7 -8 -15 -15 -12 -10 -15
-10 -15 2 0 8 7 15 15 15 8 0 15 -1 15 -2z m-50 -43 c3 -3 -3 -2 -12 1 -10 4
-18 2 -18 -3 0 -6 -6 -10 -14 -10 -9 0 -12 7 -9 20 5 18 32 15 53 -8z m-200
10 c0 -13 -12 -22 -22 -16 -10 6 -1 24 13 24 5 0 9 -4 9 -8z m264 -11 c4 -5
-3 -7 -14 -4 -23 6 -26 13 -6 13 8 0 17 -4 20 -9z"/>
<path d="M3240 1090 c0 -7 3 -10 7 -7 3 4 3 10 0 14 -4 3 -7 0 -7 -7z"/>
<path d="M1623 1083 c4 -3 10 -3 14 0 3 4 0 7 -7 7 -7 0 -10 -3 -7 -7z"/>
<path d="M1543 1064 c-10 -28 5 -277 22 -352 17 -76 34 -98 27 -35 -3 27 0 40
14 50 10 7 13 13 8 13 -6 0 -15 -5 -21 -11 -20 -20 -28 35 -28 178 0 72 -3
126 -7 120 -5 -8 -8 -6 -8 4 0 9 7 20 16 23 8 3 12 10 9 16 -9 15 -25 12 -32
-6z"/>
<path d="M1890 1065 c-7 -9 -10 -18 -7 -21 3 -3 10 4 17 15 13 25 8 27 -10 6z"/>
<path d="M3010 1060 c0 -5 5 -10 11 -10 5 0 7 5 4 10 -3 6 -8 10 -11 10 -2 0
-4 -4 -4 -10z"/>
<path d="M2183 1053 c4 -3 10 -3 14 0 3 4 0 7 -7 7 -7 0 -10 -3 -7 -7z"/>
<path d="M2233 1053 c4 -3 10 -3 14 0 3 4 0 7 -7 7 -7 0 -10 -3 -7 -7z"/>
<path d="M3221 1034 c0 -11 3 -14 6 -6 3 7 2 16 -1 19 -3 4 -6 -2 -5 -13z"/>
<path d="M2250 1029 c0 -10 40 -89 45 -89 7 0 -24 73 -36 85 -5 5 -9 7 -9 4z"/>
<path d="M2898 1005 c2 -14 6 -25 8 -25 2 0 4 11 4 25 0 14 -4 25 -9 25 -4 0
-6 -11 -3 -25z"/>
<path d="M2995 1000 c-4 -12 -5 -24 -2 -27 3 -2 8 5 12 17 4 12 5 24 2 27 -3
2 -8 -5 -12 -17z"/>
<path d="M2780 1007 c0 -3 18 -37 40 -76 22 -39 40 -76 40 -82 0 -6 6 -9 13
-6 14 5 52 -58 61 -104 3 -14 15 -36 26 -49 11 -13 20 -26 20 -30 0 -5 7 -11
16 -14 10 -4 4 10 -15 36 -17 23 -31 51 -31 63 0 12 -13 41 -28 66 -38 58
-142 203 -142 196z"/>
<path d="M1490 990 c0 -7 3 -10 7 -7 3 4 3 10 0 14 -4 3 -7 0 -7 -7z"/>
<path d="M1435 916 c7 -36 9 -63 4 -60 -14 8 -11 -3 12 -47 29 -58 31 -46 8
61 -24 108 -42 145 -24 46z"/>
<path d="M2263 940 c11 -23 21 -39 23 -37 7 6 -26 77 -35 77 -5 0 1 -18 12
-40z"/>
<path d="M2035 910 c3 -5 8 -10 11 -10 3 0 2 5 -1 10 -3 6 -8 10 -11 10 -3 0
-2 -4 1 -10z"/>
<path d="M2243 903 c4 -3 10 -3 14 0 3 4 0 7 -7 7 -7 0 -10 -3 -7 -7z"/>
<path d="M2785 883 c4 -10 8 -31 10 -48 2 -16 9 -50 16 -73 12 -39 12 -45 -4
-56 -9 -7 -15 -15 -12 -17 2 -3 5 -57 5 -119 1 -63 8 -158 15 -210 7 -53 11
-108 8 -123 -3 -15 0 -34 7 -42 10 -12 9 -15 -4 -15 -43 0 -1 -17 46 -19 29
-1 60 -2 68 -3 94 -7 180 3 191 23 8 15 8 19 0 15 -6 -4 -11 -3 -11 2 0 4 -24
9 -52 10 -57 1 -55 -3 6 -13 72 -12 17 -25 -104 -24 -79 0 -108 3 -92 9 12 5
22 12 22 15 0 4 -4 4 -8 1 -5 -3 -16 4 -25 15 -10 11 -22 17 -27 14 -6 -4 -7
3 -1 17 4 12 5 36 0 53 -16 66 -21 178 -7 186 10 7 10 9 1 9 -16 0 -18 185 -3
225 7 19 6 35 -5 62 -21 49 -19 63 8 64 22 0 22 0 0 9 -12 5 -24 18 -28 29 -3
12 -11 21 -17 21 -6 0 -7 -8 -3 -17z"/>
<path d="M2255 880 c3 -5 8 -10 11 -10 3 0 2 5 -1 10 -3 6 -8 10 -11 10 -3 0
-2 -4 1 -10z"/>
<path d="M1365 853 c-11 -7 -35 -18 -55 -23 -20 -5 -51 -26 -70 -46 -21 -22
-27 -32 -15 -26 11 6 27 19 36 30 9 11 49 29 88 41 39 12 71 23 71 25 0 12
-40 11 -55 -1z"/>
<path d="M1920 830 c0 -7 3 -10 7 -7 3 4 3 10 0 14 -4 3 -7 0 -7 -7z"/>
<path d="M2260 826 c0 -8 4 -17 9 -20 5 -4 7 3 4 14 -6 23 -13 26 -13 6z"/>
<path d="M2280 833 c0 -5 11 -28 25 -52 14 -23 25 -48 25 -55 0 -7 19 -30 42
-51 37 -36 39 -37 20 -9 -12 17 -28 37 -37 44 -8 7 -15 18 -15 25 0 7 -12 33
-26 59 -25 44 -34 55 -34 39z"/>
<path d="M1386 783 c-10 -21 -19 -40 -20 -43 -7 -22 -58 -60 -88 -65 -40 -8
-45 -23 -6 -19 13 1 23 3 23 4 0 1 7 3 16 5 12 2 15 -7 15 -42 -1 -43 1 -46
29 -49 16 -2 25 0 19 4 -21 14 -43 101 -28 113 11 9 14 7 14 -8 0 -11 8 -31
18 -44 17 -22 27 -93 15 -111 -2 -5 -13 -3 -24 2 -11 6 -19 7 -19 2 0 -6 9
-12 20 -15 30 -8 24 -25 -16 -42 -49 -20 -46 -58 5 -63 34 -3 34 -3 28 -65 -9
-86 -23 -131 -55 -169 -25 -30 -25 -31 -4 -16 58 40 83 158 81 370 -1 73 -3
168 -3 211 -1 42 -1 77 -2 77 0 0 -8 -17 -18 -37z m3 -120 c0 -25 -1 -26 -9
-8 -12 27 -12 35 0 35 6 0 10 -12 9 -27z m-52 -45 c-3 -8 -6 -5 -6 6 -1 11 2
17 5 13 3 -3 4 -12 1 -19z m60 -168 c-5 -29 -11 -32 -43 -20 -28 11 -28 12
-10 26 29 21 56 18 53 -6z"/>
<path d="M2203 783 c4 -3 10 -3 14 0 3 4 0 7 -7 7 -7 0 -10 -3 -7 -7z"/>
<path d="M2780 781 c0 -6 4 -13 10 -16 6 -3 7 1 4 9 -7 18 -14 21 -14 7z"/>
<path d="M1240 739 c-27 -24 -30 -28 -10 -18 18 8 11 -3 -25 -40 -27 -28 -45
-51 -40 -51 16 1 59 42 91 85 16 22 33 43 39 47 6 5 4 8 -5 8 -8 0 -31 -14
-50 -31z"/>
<path d="M2995 760 c3 -5 8 -10 11 -10 2 0 4 5 4 10 0 6 -5 10 -11 10 -5 0 -7
-4 -4 -10z"/>
<path d="M2220 750 c0 -7 3 -10 7 -7 3 4 3 10 0 14 -4 3 -7 0 -7 -7z"/>
<path d="M2290 748 c0 -9 5 -20 11 -23 17 -11 18 -2 3 19 -12 17 -14 17 -14 4z"/>
<path d="M2575 729 c-4 -6 -5 -12 -2 -15 2 -3 7 2 10 11 7 17 1 20 -8 4z"/>
<path d="M2211 719 c0 -9 6 -22 14 -29 10 -9 15 -9 15 -1 0 6 -4 11 -9 11 -5
0 -12 8 -14 18 -4 14 -5 14 -6 1z"/>
<path d="M3020 720 c0 -7 3 -10 7 -7 3 4 3 10 0 14 -4 3 -7 0 -7 -7z"/>
<path d="M1916 705 c4 -8 8 -15 10 -15 2 0 4 7 4 15 0 8 -4 15 -10 15 -5 0 -7
-7 -4 -15z"/>
<path d="M2541 677 c-6 -8 -8 -17 -4 -20 12 -12 19 -7 19 13 0 24 0 24 -15 7z"/>
<path d="M1960 670 c0 -5 -16 -25 -35 -44 -19 -20 -35 -42 -35 -50 0 -8 -14
-44 -30 -81 -24 -54 -72 -238 -69 -264 2 -23 41 91 40 116 -2 30 18 91 68 204
23 51 45 74 60 64 6 -3 10 8 9 30 -1 30 -8 52 -8 25z"/>
<path d="M1483 635 c0 -22 2 -30 4 -17 2 12 2 30 0 40 -3 9 -5 -1 -4 -23z"/>
<path d="M3013 663 c4 -3 10 -3 14 0 3 4 0 7 -7 7 -7 0 -10 -3 -7 -7z"/>
<path d="M1076 623 c-2 -10 -8 -29 -11 -43 -5 -17 -4 -22 3 -15 11 11 27 75
18 75 -2 0 -7 -8 -10 -17z"/>
<path d="M2505 615 c-16 -13 -26 -27 -22 -31 4 -4 7 -2 7 4 0 7 7 12 15 12 8
0 19 9 25 20 13 25 12 25 -25 -5z"/>
<path d="M888 595 c-25 -18 -49 -39 -53 -45 -4 -6 16 5 44 25 44 32 70 56 59
55 -2 0 -24 -16 -50 -35z"/>
<path d="M1560 585 c0 -46 9 -60 64 -98 27 -19 76 -104 76 -132 0 -27 17 -7
22 25 3 21 1 27 -5 21 -7 -7 -20 6 -39 39 -15 27 -40 57 -54 67 -30 19 -63 85
-46 91 13 4 4 32 -9 32 -5 0 -9 -20 -9 -45z"/>
<path d="M2425 620 c27 -12 43 -12 25 0 -8 5 -22 9 -30 9 -10 0 -8 -3 5 -9z"/>
<path d="M3005 610 c-8 -13 5 -13 25 0 13 8 13 10 -2 10 -9 0 -20 -4 -23 -10z"/>
<path d="M1821 592 c-6 -11 -21 -22 -33 -25 -54 -13 -104 -36 -78 -36 14 0 34
6 44 14 11 8 32 15 47 15 19 0 28 6 32 22 8 29 1 35 -12 10z"/>
<path d="M2400 585 c13 -14 28 -25 33 -25 6 0 0 11 -13 25 -13 14 -28 25 -33
25 -6 0 0 -11 13 -25z"/>
<path d="M2348 593 c7 -3 16 -2 19 1 4 3 -2 6 -13 5 -11 0 -14 -3 -6 -6z"/>
<path d="M2126 555 c4 -8 9 -15 13 -15 4 0 8 7 8 15 0 8 -6 15 -13 15 -8 0
-11 -6 -8 -15z"/>
<path d="M2457 562 c-3 -4 10 -15 29 -24 19 -10 34 -16 34 -15 0 9 -60 46 -63
39z"/>
<path d="M1485 526 c0 -19 3 -32 8 -29 4 2 7 -14 7 -36 0 -28 -4 -41 -14 -41
-20 0 -26 -23 -26 -96 0 -64 17 -92 40 -68 18 19 23 94 6 94 -9 0 -16 -8 -16
-17 0 -10 -5 -25 -10 -33 -8 -11 -10 0 -8 38 3 52 19 84 32 63 4 -5 2 -12 -4
-16 -16 -10 -12 -25 6 -25 16 0 15 62 -3 168 -7 42 -18 41 -18 -2z m15 -246
c0 -5 -5 -10 -11 -10 -5 0 -7 5 -4 10 3 6 8 10 11 10 2 0 4 -4 4 -10z"/>
<path d="M2073 533 c4 -3 10 -3 14 0 3 4 0 7 -7 7 -7 0 -10 -3 -7 -7z"/>
<path d="M2178 533 c7 -3 16 -2 19 1 4 3 -2 6 -13 5 -11 0 -14 -3 -6 -6z"/>
<path d="M1803 508 c-6 -7 -13 -25 -17 -40 -3 -16 -11 -28 -16 -28 -5 0 -7 -6
-4 -13 5 -15 -29 -109 -49 -133 -35 -44 -64 -65 -98 -70 -34 -6 -70 -46 -55
-62 3 -2 10 7 15 22 6 15 18 26 30 26 10 0 35 7 55 15 37 16 45 10 24 -15 -10
-12 -9 -11 4 0 18 17 88 178 112 258 15 54 15 61 -1 40z"/>
<path d="M1965 495 c21 -63 10 -165 -18 -165 -7 0 -6 -4 3 -10 11 -7 17 -4 23
8 4 11 6 5 4 -16 -3 -24 0 -32 10 -28 10 4 11 1 3 -14 -12 -23 -29 -34 -38
-25 -3 3 0 10 8 15 23 15 6 12 -24 -4 -31 -15 -19 -24 32 -22 24 1 31 -3 27
-13 -4 -10 2 -8 16 5 18 16 19 20 5 22 -18 4 -21 18 -6 27 6 3 10 26 10 50 0
25 5 46 13 49 6 3 2 3 -10 0 -13 -3 -23 -2 -24 3 -1 4 -2 34 -3 65 -2 50 -16
98 -16 57 0 -12 -2 -11 -11 1 -9 12 -10 11 -4 -5z m44 -172 c0 -25 -1 -26 -9
-8 -12 27 -12 35 0 35 6 0 10 -12 9 -27z"/>
<path d="M1055 490 c3 -5 8 -10 11 -10 3 0 2 5 -1 10 -3 6 -8 10 -11 10 -3 0
-2 -4 1 -10z"/>
<path d="M583 463 c4 -3 10 -3 14 0 3 4 0 7 -7 7 -7 0 -10 -3 -7 -7z"/>
<path d="M1566 418 c3 -29 9 -82 13 -118 8 -65 8 -65 10 0 1 83 -9 170 -20
170 -5 0 -7 -24 -3 -52z"/>
<path d="M624 442 c22 -25 25 -24 -74 -26 -36 -1 -89 -10 -118 -20 -66 -22
-63 -31 4 -11 27 8 77 15 110 15 34 0 76 6 93 13 30 13 30 13 -2 32 -32 18
-32 18 -13 -3z"/>
<path d="M211 434 c0 -11 3 -14 6 -6 3 7 2 16 -1 19 -3 4 -6 -2 -5 -13z"/>
<path d="M222 391 c-6 -36 -10 -67 -8 -69 9 -8 28 74 24 103 -3 23 -6 15 -16
-34z"/>
<path d="M1860 403 c0 -13 5 -23 10 -23 13 0 13 11 0 30 -8 12 -10 11 -10 -7z"/>
<path d="M2020 410 c0 -7 3 -10 7 -7 3 4 3 10 0 14 -4 3 -7 0 -7 -7z"/>
<path d="M1108 389 c-22 -12 -24 -59 -4 -59 27 0 28 -20 1 -52 -20 -24 -23
-33 -13 -39 8 -5 14 -3 16 5 2 10 25 15 79 18 60 3 78 7 89 23 16 22 19 55 3
55 -5 0 -7 -5 -4 -10 12 -20 -17 -40 -59 -41 -41 -2 -41 -2 -6 -9 29 -6 24 -8
-30 -8 -65 -1 -65 -1 -42 18 20 17 21 20 6 34 -8 9 -12 16 -7 16 4 0 0 5 -9
11 -24 14 -22 28 5 39 12 5 15 9 7 9 -8 0 -23 -4 -32 -10z"/>
<path d="M1346 373 c-6 -14 -5 -15 5 -6 7 7 10 15 7 18 -3 3 -9 -2 -12 -12z"/>
<path d="M2535 380 c-3 -5 -1 -10 4 -10 6 0 11 5 11 10 0 6 -2 10 -4 10 -3 0
-8 -4 -11 -10z"/>
<path d="M487 343 c-4 -3 3 -11 16 -17 12 -7 30 -27 39 -46 9 -19 17 -28 18
-21 0 16 -49 91 -60 91 -4 0 -10 -3 -13 -7z"/>
<path d="M543 343 c4 -3 10 -3 14 0 3 4 0 7 -7 7 -7 0 -10 -3 -7 -7z"/>
<path d="M167 313 c-17 -34 -11 -98 12 -115 14 -12 15 -11 2 5 -13 17 -12 18
15 12 29 -7 29 -7 4 7 -31 17 -38 60 -15 94 8 13 11 24 5 24 -5 0 -16 -12 -23
-27z"/>
<path d="M1652 304 c-11 -12 -17 -13 -30 -2 -15 12 -16 11 -3 -4 7 -10 18 -15
23 -12 5 3 15 -2 23 -12 12 -17 14 -16 13 14 -1 35 -6 39 -26 16z"/>
<path d="M280 300 c0 -7 3 -10 7 -7 3 4 3 10 0 14 -4 3 -7 0 -7 -7z"/>
<path d="M560 291 c0 -6 12 -17 28 -25 62 -32 102 -98 76 -127 -9 -10 -12 -19
-7 -19 6 0 18 10 26 23 14 22 13 26 -23 73 -37 48 -100 95 -100 75z"/>
<path d="M1303 283 c4 -3 10 -3 14 0 3 4 0 7 -7 7 -7 0 -10 -3 -7 -7z"/>
<path d="M276 243 c1 -21 7 -37 12 -36 6 1 8 -7 5 -17 -3 -11 -9 -20 -14 -20
-5 0 -9 -5 -9 -11 0 -5 5 -7 11 -4 5 4 24 0 42 -8 53 -24 104 -30 110 -12 7
17 -28 41 -38 26 -3 -5 5 -12 17 -14 16 -3 13 -5 -10 -6 -36 -1 -102 25 -102
41 0 5 4 7 9 4 13 -8 8 28 -5 36 -6 4 -10 19 -9 33 2 15 -2 25 -9 25 -9 0 -12
-13 -10 -37z"/>
<path d="M2973 273 c4 -3 10 -3 14 0 3 4 0 7 -7 7 -7 0 -10 -3 -7 -7z"/>
<path d="M575 250 c3 -5 8 -10 11 -10 3 0 2 5 -1 10 -3 6 -8 10 -11 10 -3 0
-2 -4 1 -10z"/>
<path d="M1268 253 c6 -2 18 -2 25 0 6 3 1 5 -13 5 -14 0 -19 -2 -12 -5z"/>
<path d="M1503 218 c-19 -31 -33 -61 -29 -65 3 -3 14 13 26 36 19 38 21 57 3
29z"/>
<path d="M2585 220 c-3 -6 -18 -7 -33 -4 -21 4 -24 3 -12 -5 22 -16 60 -13 60
4 0 17 -6 19 -15 5z"/>
<path d="M1783 183 c15 -2 37 -2 50 0 12 2 0 4 -28 4 -27 0 -38 -2 -22 -4z"/>
<path d="M200 176 c0 -2 7 -9 15 -16 9 -7 15 -8 15 -2 0 5 -7 12 -15 16 -8 3
-15 4 -15 2z"/>
<path d="M561 161 c-9 -15 -7 -20 9 -24 11 -3 21 1 24 10 5 11 2 13 -10 9 -14
-5 -15 -4 -4 9 8 10 9 15 2 15 -6 0 -16 -9 -21 -19z"/>
<path d="M1943 173 c9 -2 25 -2 35 0 9 3 1 5 -18 5 -19 0 -27 -2 -17 -5z"/>
<path d="M2260 166 c0 -10 -13 -16 -42 -19 -43 -4 -43 -4 2 -5 54 -2 74 7 54
26 -12 10 -14 10 -14 -2z"/>
<path d="M105 143 c14 -13 23 -28 20 -34 -8 -11 -9 -11 41 4 40 12 40 12 -23
33 -64 21 -64 21 -38 -3z"/>
<path d="M3160 159 c-14 -4 17 -7 70 -7 52 0 91 1 85 3 -22 8 -132 10 -155 4z"/>
<path d="M463 143 c4 -3 10 -3 14 0 3 4 0 7 -7 7 -7 0 -10 -3 -7 -7z"/>
<path d="M1353 139 c-11 -5 2 -8 35 -8 28 -1 52 1 52 3 0 8 -69 12 -87 5z"/>
<path d="M1698 138 c6 -6 18 -8 28 -6 14 3 12 5 -9 10 -19 3 -25 2 -19 -4z"/>
<path d="M2053 143 c4 -3 10 -3 14 0 3 4 0 7 -7 7 -7 0 -10 -3 -7 -7z"/>
<path d="M220 136 c0 -2 13 -6 29 -8 17 -2 28 -1 25 4 -5 8 -54 12 -54 4z"/>
<path d="M101 114 c0 -11 3 -14 6 -6 3 7 2 16 -1 19 -3 4 -6 -2 -5 -13z"/>
<path d="M1553 113 c4 -3 10 -3 14 0 3 4 0 7 -7 7 -7 0 -10 -3 -7 -7z"/>
<path d="M630 99 c0 -5 5 -7 10 -4 6 3 10 8 10 11 0 2 -4 4 -10 4 -5 0 -10 -5
-10 -11z"/>
<path d="M28 93 c7 -3 16 -2 19 1 4 3 -2 6 -13 5 -11 0 -14 -3 -6 -6z"/>
<path d="M593 93 c4 -3 10 -3 14 0 3 4 0 7 -7 7 -7 0 -10 -3 -7 -7z"/>
<path d="M310 80 c-45 -7 -45 -7 -3 -8 23 -1 45 3 48 8 3 6 5 9 3 8 -2 0 -23
-4 -48 -8z"/>
<path d="M2078 83 c7 -3 16 -2 19 1 4 3 -2 6 -13 5 -11 0 -14 -3 -6 -6z"/>
<path d="M2110 82 c0 -9 58 -7 67 2 4 3 -10 6 -30 6 -20 0 -37 -4 -37 -8z"/>
<path d="M1930 70 c-16 -5 -2 -6 35 -3 33 3 62 7 64 9 8 7 -74 2 -99 -6z"/>
<path d="M2195 76 c26 -12 87 -24 79 -16 -5 4 -27 11 -49 14 -22 3 -35 4 -30
2z"/>
<path d="M1433 63 c4 -3 10 -3 14 0 3 4 0 7 -7 7 -7 0 -10 -3 -7 -7z"/>
<path d="M1640 58 c83 -10 181 -11 218 -1 22 5 -17 8 -120 8 -103 0 -135 -2
-98 -7z"/>
<path d="M2155 52 c-2 -2 -50 -4 -106 -3 -118 1 -126 -5 -19 -12 91 -7 244 6
172 14 -24 2 -45 3 -47 1z"/>
<path d="M1555 40 c-44 -8 -50 -7 75 -16 55 -4 55 -4 15 11 -22 8 -42 14 -45
13 -3 0 -23 -4 -45 -8z"/>
<path d="M1860 42 c0 -5 14 -7 30 -4 17 2 30 6 30 8 0 2 -13 4 -30 4 -16 0
-30 -4 -30 -8z"/>
<path d="M1478 33 c6 -2 18 -2 25 0 6 3 1 5 -13 5 -14 0 -19 -2 -12 -5z"/>
<path d="M1833 33 c4 -3 10 -3 14 0 3 4 0 7 -7 7 -7 0 -10 -3 -7 -7z"/>
<path d="M2168 23 c7 -3 16 -2 19 1 4 3 -2 6 -13 5 -11 0 -14 -3 -6 -6z"/>
<path d="M2343 13 c4 -3 10 -3 14 0 3 4 0 7 -7 7 -7 0 -10 -3 -7 -7z"/>
<path d="M503 3 c4 -3 10 -3 14 0 3 4 0 7 -7 7 -7 0 -10 -3 -7 -7z"/>
<path d="M593 3 c4 -3 10 -3 14 0 3 4 0 7 -7 7 -7 0 -10 -3 -7 -7z"/>
<path d="M2923 3 c4 -3 10 -3 14 0 3 4 0 7 -7 7 -7 0 -10 -3 -7 -7z"/>
<path d="M3138 3 c7 -3 16 -2 19 1 4 3 -2 6 -13 5 -11 0 -14 -3 -6 -6z"/>
</g>
</svg>
