<?xml version="1.0" standalone="no"?>
<!DOCTYPE svg PUBLIC "-//W3C//DTD SVG 20010904//EN"
 "http://www.w3.org/TR/2001/REC-SVG-20010904/DTD/svg10.dtd">
<svg version="1.0" xmlns="http://www.w3.org/2000/svg"
 width="384.000000pt" height="256.000000pt" viewBox="0 0 384.000000 256.000000"
 preserveAspectRatio="xMidYMid meet">
<metadata>
Created by potrace 1.16, written by Peter Selinger 2001-2019
</metadata>
<g transform="translate(0.000000,256.000000) scale(0.100000,-0.100000)"
fill="#000000" stroke="none">
<path d="M1595 2550 c3 -5 8 -10 11 -10 3 0 2 5 -1 10 -3 6 -8 10 -11 10 -3 0
-2 -4 1 -10z"/>
<path d="M1730 2534 c0 -14 -5 -34 -10 -45 -18 -32 4 -21 24 12 10 17 32 37
50 45 30 13 30 13 6 14 -15 0 -31 -5 -38 -12 -9 -9 -12 -9 -12 0 0 7 -4 12
-10 12 -5 0 -10 -12 -10 -26z"/>
<path d="M2831 2528 c22 -42 62 -98 66 -94 5 4 -65 116 -73 116 -2 0 1 -10 7
-22z"/>
<path d="M1930 2531 c0 -14 42 -83 47 -77 5 5 -35 86 -42 86 -3 0 -5 -4 -5 -9z"/>
<path d="M1591 2514 c0 -11 3 -14 6 -6 3 7 2 16 -1 19 -3 4 -6 -2 -5 -13z"/>
<path d="M1822 2445 c9 -11 29 -45 46 -76 30 -55 30 -55 -22 -106 -58 -57
-106 -76 -180 -71 -46 3 -50 5 -62 38 -12 32 -13 33 -13 9 -2 -54 27 -73 100
-65 35 4 78 15 95 24 17 9 50 27 74 40 28 16 60 24 97 25 42 1 49 3 31 10 -13
5 -40 6 -60 3 -32 -5 -38 -3 -38 11 0 15 2 16 10 3 8 -12 10 -12 10 5 0 17 2
17 10 5 8 -13 10 -13 10 2 0 9 -6 21 -14 25 -7 4 -23 26 -34 48 -11 22 -33 51
-48 65 -18 15 -23 17 -12 5z m58 -179 c0 -3 -5 -8 -12 -12 -7 -4 -8 -3 -4 4 7
12 16 16 16 8z"/>
<path d="M2916 2385 c48 -80 24 -236 -64 -424 -36 -78 -36 -78 -18 -60 9 8 38
67 64 130 44 107 47 120 50 219 3 102 2 106 -24 135 -26 30 -26 30 -8 0z"/>
<path d="M2223 2360 c9 -6 17 -23 18 -38 1 -27 1 -27 14 3 7 17 12 30 12 31
-1 1 -15 4 -32 8 -24 5 -26 4 -12 -4z"/>
<path d="M1936 2343 c-6 -14 -5 -15 5 -6 7 7 10 15 7 18 -3 3 -9 -2 -12 -12z"/>
<path d="M2260 2316 c0 -3 5 -17 10 -32 10 -25 9 -26 -15 -22 -25 5 -34 -5
-15 -17 6 -4 10 -14 9 -23 -1 -10 1 -25 5 -34 4 -9 6 -25 4 -35 -2 -11 -10 0
-22 32 -22 56 -41 79 -56 70 -6 -4 -5 -12 5 -21 8 -9 15 -22 15 -30 0 -8 4
-14 10 -14 5 0 9 -11 8 -24 -1 -14 -5 -23 -9 -21 -6 5 -49 -49 -49 -62 0 -4
11 5 25 20 32 34 37 34 29 0 -7 -28 -7 -28 16 0 12 16 29 26 36 23 16 -6 18
15 5 60 -10 36 0 60 22 51 11 -4 17 -27 22 -74 10 -93 26 -116 19 -28 -3 39
-11 81 -19 95 -7 14 -20 40 -29 58 -13 28 -26 42 -26 28z"/>
<path d="M2194 2278 c-4 -7 -3 -8 4 -4 7 4 12 9 12 12 0 8 -9 4 -16 -8z"/>
<path d="M1320 2261 c30 -10 73 -21 94 -24 56 -9 71 -27 58 -67 -9 -24 -9 -31
1 -27 6 2 13 22 15 44 3 38 1 41 -29 52 -18 6 -44 11 -58 11 -14 1 -37 7 -51
15 -14 8 -38 14 -55 14 -24 0 -19 -3 25 -18z"/>
<path d="M120 2243 c1 -10 8 -47 16 -83 31 -133 35 -157 39 -225 2 -38 8 -83
14 -100 8 -25 9 -22 4 21 -3 29 -1 54 4 57 22 14 41 -24 63 -123 22 -104 47
-165 34 -84 -6 41 -6 41 33 46 21 3 61 2 88 -2 28 -5 63 -4 80 1 236 73 395
145 414 187 16 34 12 41 -5 9 -19 -35 -143 -94 -156 -75 -28 42 -28 46 5 59
17 7 50 30 72 49 46 42 126 90 149 90 31 0 56 -37 49 -71 -4 -21 -2 -34 8 -40
14 -9 149 -13 149 -5 0 3 -4 16 -10 31 -11 30 16 65 50 65 11 0 20 3 20 6 0
16 -54 124 -61 124 -5 0 3 -25 18 -55 29 -60 28 -70 -8 -57 -53 20 -97 32
-120 32 -14 0 -30 5 -37 12 -9 9 -12 9 -12 0 0 -7 5 -12 10 -12 6 0 10 -7 10
-15 0 -13 -9 -15 -50 -9 -40 5 -54 3 -69 -10 -11 -10 -26 -19 -34 -20 -9 -1
-37 -22 -64 -47 -26 -25 -63 -51 -80 -58 -38 -15 -42 -39 -13 -66 28 -26 23
-29 -118 -74 -117 -36 -135 -39 -229 -38 -102 2 -102 2 -119 72 -10 43 -24 77
-37 88 -26 23 -70 205 -55 225 8 8 6 12 -6 12 -9 0 -16 6 -15 13 4 19 -11 76
-22 82 -5 4 -9 -2 -9 -12z m957 -170 c-4 -3 -10 -3 -14 0 -3 4 0 7 7 7 7 0 10
-3 7 -7z m95 -17 c7 4 2 -6 -9 -22 -16 -22 -19 -34 -12 -47 6 -9 6 -17 2 -18
-75 -5 -106 -3 -116 10 -10 12 -9 13 2 6 11 -6 13 -4 8 9 -4 9 -3 14 2 11 5
-3 11 6 13 21 3 25 3 25 25 5 12 -12 20 -27 17 -34 -3 -8 2 -14 11 -14 22 0
19 27 -7 54 -12 13 -16 23 -9 23 7 0 9 5 5 11 -3 6 8 3 25 -6 17 -9 37 -13 43
-9z"/>
<path d="M261 2246 c86 -23 178 -126 264 -296 14 -27 30 -50 35 -50 9 0 -69
141 -112 204 -70 101 -141 156 -198 155 -35 0 -34 -1 11 -13z"/>
<path d="M2102 2244 c-11 -12 -7 -14 25 -13 21 0 31 3 23 6 -8 3 -19 9 -25 13
-5 5 -16 2 -23 -6z"/>
<path d="M2493 2230 c-6 -17 -7 -30 -2 -30 5 0 9 -10 9 -23 0 -23 29 -72 30
-50 0 6 -5 15 -11 18 -6 4 -9 29 -8 56 3 59 -3 69 -18 29z"/>
<path d="M1136 2234 c-16 -9 -56 -36 -89 -60 -32 -24 -70 -44 -84 -44 -14 0
-22 -4 -18 -10 7 -11 45 -10 55 0 18 18 121 91 148 104 31 16 71 16 149 0 19
-4 60 -70 76 -125 3 -10 21 -19 46 -23 52 -8 81 -36 81 -79 0 -33 0 -33 98
-30 125 5 184 12 177 23 -3 6 -16 5 -30 0 -14 -5 -70 -8 -125 -7 -108 2 -114
7 -126 106 -2 13 -6 26 -10 30 -4 3 -4 -7 0 -22 6 -26 5 -28 -16 -22 -31 10
-56 24 -42 25 29 0 22 42 -13 81 -20 22 -38 37 -41 34 -3 -3 2 -13 12 -24 22
-24 36 -75 25 -92 -10 -16 -9 -17 -39 51 -35 81 -44 87 -130 94 -58 5 -81 2
-104 -10z"/>
<path d="M160 2212 c0 -5 15 -10 33 -9 75 2 149 -65 239 -216 90 -151 76 -137
133 -135 50 2 50 2 2 5 -52 4 -63 16 -120 129 -38 76 -133 190 -174 209 -44
21 -113 32 -113 17z"/>
<path d="M2365 2190 c3 -5 8 -10 11 -10 3 0 2 5 -1 10 -3 6 -8 10 -11 10 -3 0
-2 -4 1 -10z"/>
<path d="M1231 2177 c9 -8 23 -36 33 -61 17 -46 29 -56 41 -36 4 6 1 9 -5 8
-7 -2 -20 20 -30 47 -11 32 -23 51 -35 54 -17 3 -17 2 -4 -12z"/>
<path d="M1842 2142 c-11 -25 -11 -25 4 -10 9 9 15 21 13 27 -2 6 -10 -2 -17
-17z"/>
<path d="M205 2152 c35 -12 51 -26 88 -77 51 -70 118 -183 127 -214 8 -26 8
-26 9 0 1 30 -32 93 -101 193 -49 72 -90 106 -123 105 -20 -1 -20 -1 0 -7z"/>
<path d="M2375 2150 c17 -5 50 -14 75 -20 78 -20 85 -30 70 -97 -23 -108 -23
-108 -3 -110 10 -1 56 -11 103 -22 47 -12 101 -21 120 -21 19 0 72 -9 117 -21
60 -15 90 -19 110 -12 16 5 42 6 58 2 56 -13 145 -9 176 7 20 10 52 15 95 13
77 -3 75 -5 104 99 24 85 34 102 52 84 10 -10 -6 -100 -28 -155 -5 -14 1 -13
45 4 28 10 62 19 74 19 15 0 28 9 35 23 26 54 84 208 79 213 -3 3 -8 -5 -12
-18 -4 -13 -18 -46 -31 -73 -12 -28 -25 -62 -29 -77 -9 -36 -32 -54 -80 -63
-22 -4 -46 -11 -52 -17 -17 -14 -16 -8 8 68 25 76 20 97 -18 92 -29 -3 -37
-18 -67 -128 -15 -55 -15 -55 -90 -56 -41 0 -80 -5 -88 -11 -24 -19 -74 -24
-139 -14 -41 7 -77 7 -97 1 -24 -6 -51 -4 -105 10 -40 11 -88 20 -107 20 -36
0 -226 43 -236 53 -3 3 -1 14 5 25 6 12 11 30 11 41 0 12 4 21 9 21 16 0 7 83
-9 86 -8 1 -33 10 -54 19 -22 9 -60 18 -85 20 -39 3 -42 2 -16 -5z"/>
<path d="M1 2089 c-1 -60 6 -99 29 -154 15 -37 49 -130 55 -153 4 -13 9 -21
12 -19 6 7 -14 81 -44 156 -14 35 -31 102 -38 150 -12 86 -12 86 -14 20z"/>
<path d="M895 2080 c-3 -5 1 -10 9 -10 9 0 16 5 16 10 0 6 -4 10 -9 10 -6 0
-13 -4 -16 -10z"/>
<path d="M2140 2010 c8 -5 24 -10 34 -10 26 0 18 6 -19 14 -22 5 -26 4 -15 -4z"/>
<path d="M2090 1990 c-13 -8 -12 -10 3 -10 9 0 17 5 17 10 0 12 -1 12 -20 0z"/>
<path d="M2210 1989 c0 -8 -15 -10 -46 -6 -25 2 -42 1 -37 -3 4 -4 27 -10 51
-13 36 -4 42 -3 42 14 0 10 -2 19 -5 19 -3 0 -5 -5 -5 -11z"/>
<path d="M1393 1906 c-326 -69 -554 -172 -707 -320 -39 -37 -62 -62 -51 -55
11 8 33 27 49 42 85 83 220 162 385 226 110 43 162 54 99 21 -20 -11 -40 -24
-43 -30 -3 -5 -13 -10 -21 -10 -69 0 -404 -315 -404 -380 0 -8 22 17 49 56 52
73 161 186 161 167 0 -12 -22 -41 -115 -148 -96 -110 -98 -115 -109 -235 -2
-19 -7 -52 -11 -72 -15 -76 71 -182 203 -250 87 -45 367 -136 380 -123 6 5 -4
9 -83 30 -298 82 -407 145 -471 272 -21 42 -24 55 -14 73 11 21 32 25 28 5 -2
-5 -6 -9 -10 -8 -16 6 -7 -25 13 -48 20 -24 20 -24 3 4 -15 25 -15 27 0 27 9
0 16 -7 16 -15 0 -12 9 -15 35 -13 37 2 49 18 14 18 -11 0 -18 4 -14 10 3 5
12 7 20 3 8 -3 15 0 15 7 0 8 -9 11 -25 7 -33 -6 -59 26 -43 53 8 12 8 25 0
46 -6 17 -11 22 -11 12 -1 -10 -6 -18 -12 -18 -8 0 -8 -4 -1 -13 7 -8 7 -17
-2 -30 -19 -24 -29 -21 -14 4 11 17 11 23 0 26 -9 3 -7 12 8 33 23 33 28 64 5
34 -14 -18 -15 -17 -9 11 10 42 24 54 50 43 21 -10 29 -57 11 -74 -14 -14 -7
-26 8 -14 9 7 15 29 15 51 0 41 -1 40 108 93 29 14 58 26 65 26 8 0 8 3 -1 9
-9 5 -32 0 -63 -15 -27 -13 -53 -24 -59 -24 -5 0 -10 -5 -10 -10 0 -16 -52
-32 -73 -23 -18 8 -18 10 -3 22 14 12 16 12 10 -3 -11 -29 24 -7 47 31 13 21
27 32 35 29 19 -7 18 4 -2 18 -13 10 -9 18 31 57 28 28 47 56 49 73 3 25 77
104 99 106 4 0 21 10 36 21 16 12 34 18 41 14 7 -4 18 2 26 14 17 24 79 55 93
47 5 -4 12 -2 16 4 3 5 17 10 31 10 14 0 34 5 44 10 13 7 21 7 25 0 5 -8 11
-7 21 1 24 19 -5 30 -36 14 -15 -8 -36 -13 -46 -13 -10 1 -29 -2 -41 -6 -14
-4 -23 -3 -23 2 0 10 175 55 255 66 40 6 40 6 0 -13 -23 -11 -50 -18 -62 -14
-13 3 -23 1 -23 -4 0 -21 157 15 168 39 8 18 96 -12 120 -41 11 -14 11 -13 2
7 -16 33 17 29 69 -9 46 -33 65 -35 28 -2 -43 39 -93 63 -105 51 -7 -7 -20 -7
-39 -1 -49 16 -114 13 -230 -11z m134 7 c-4 -3 -10 -3 -14 0 -3 4 0 7 7 7 7 0
10 -3 7 -7z m-697 -427 c0 -3 -4 -8 -10 -11 -5 -3 -10 -1 -10 4 0 6 5 11 10
11 6 0 10 -2 10 -4z m-20 -30 c0 -3 -5 -8 -12 -12 -7 -4 -8 -3 -4 4 7 12 16
16 16 8z"/>
<path d="M1643 1923 c4 -3 10 -3 14 0 3 4 0 7 -7 7 -7 0 -10 -3 -7 -7z"/>
<path d="M1840 1898 c-19 -5 -39 -14 -45 -20 -7 -7 -2 -8 15 -2 14 4 45 13 70
20 28 8 36 13 20 12 -14 0 -41 -4 -60 -10z"/>
<path d="M1970 1894 c-25 -15 -25 -15 0 -10 25 5 25 5 0 -15 -25 -21 -25 -21
7 -3 18 10 30 21 27 26 -10 15 36 8 73 -12 21 -11 45 -20 53 -20 19 0 84 -39
77 -46 -3 -3 -15 0 -27 6 -14 7 -25 8 -29 3 -3 -6 -18 -13 -33 -17 -62 -15
-83 -27 -68 -37 11 -8 9 -9 -10 -5 -14 3 -32 6 -41 6 -8 0 -36 20 -62 45 -42
40 -47 42 -45 21 1 -13 7 -23 13 -22 5 1 11 -3 13 -9 4 -14 47 -35 102 -49 47
-12 49 -12 52 8 6 40 138 57 152 19 7 -18 -1 -32 -23 -41 -16 -6 -16 -10 -4
-37 13 -29 14 -29 8 -3 -3 17 0 30 8 35 23 13 49 61 41 74 -5 9 -9 7 -14 -7
-6 -17 -9 -16 -23 11 -29 57 -197 111 -247 79z"/>
<path d="M2250 1877 c0 -23 27 -57 45 -57 5 0 -1 9 -14 21 -14 13 -20 27 -16
40 4 11 2 19 -4 19 -6 0 -11 -11 -11 -23z"/>
<path d="M1565 1875 c-16 -9 -45 -26 -64 -40 -21 -15 -38 -22 -45 -16 -17 13
-143 -46 -128 -61 8 -8 15 -6 27 6 26 26 86 48 100 36 8 -6 15 -6 23 2 19 19
27 0 9 -20 -10 -10 -17 -23 -17 -29 0 -6 -6 -13 -12 -16 -7 -2 9 -6 35 -8 63
-5 79 15 42 55 -32 34 -31 37 8 64 41 27 62 28 94 2 14 -11 33 -20 42 -20 9 1
-1 10 -21 20 -20 11 -40 24 -43 30 -8 13 -14 12 -50 -5z m-48 -106 c-4 -16 -3
-18 9 -8 11 9 14 8 14 -5 0 -11 -9 -16 -31 -16 -30 0 -31 5 -6 38 14 18 20 15
14 -9z"/>
<path d="M2023 1854 c-18 -9 -33 -21 -33 -27 0 -5 8 -3 18 6 10 10 24 17 30
17 6 0 14 5 17 10 8 13 6 13 -32 -6z"/>
<path d="M3540 1860 c0 -5 7 -10 16 -10 8 0 12 5 9 10 -3 6 -10 10 -16 10 -5
0 -9 -4 -9 -10z"/>
<path d="M2360 1847 c0 -7 8 -13 18 -13 10 0 19 6 19 13 0 7 -9 13 -19 13 -10
0 -18 -6 -18 -13z"/>
<path d="M3445 1835 c-33 -13 -55 -24 -49 -24 6 -1 40 10 75 24 35 13 57 24
49 24 -8 0 -42 -11 -75 -24z"/>
<path d="M2450 1840 c0 -7 3 -10 7 -7 3 4 3 10 0 14 -4 3 -7 0 -7 -7z"/>
<path d="M2492 1820 c15 -24 19 -24 44 -4 19 15 18 15 -3 9 -12 -3 -24 -1 -28
5 -3 5 -10 10 -16 10 -5 0 -4 -9 3 -20z"/>
<path d="M2580 1833 c0 -13 75 -73 92 -74 7 0 38 -13 68 -29 30 -16 71 -37 91
-47 58 -29 111 -105 94 -134 -9 -14 -25 -1 -18 16 9 26 -12 16 -35 -15 -24
-32 -56 -39 -66 -14 -3 8 -10 13 -15 9 -6 -3 -64 -6 -131 -7 -66 -1 -120 -5
-120 -10 0 -4 13 -8 28 -8 37 0 88 -50 70 -68 -18 -18 -46 -14 -53 8 -9 27
-75 67 -85 50 -6 -10 -9 -9 -14 1 -3 8 -4 1 -1 -16 4 -16 13 -35 21 -41 18
-14 19 -44 1 -44 -7 0 -30 16 -51 35 -32 29 -41 33 -58 24 -14 -8 -24 -7 -35
3 -15 12 -15 11 -2 -9 11 -19 11 -27 1 -43 -7 -11 -8 -20 -3 -20 5 0 11 7 15
15 11 30 43 8 99 -67 30 -40 23 -54 -21 -43 -14 3 -42 8 -60 11 -19 2 -39 7
-46 11 -6 4 -36 10 -66 13 -54 5 -55 5 -52 35 2 23 0 26 -8 15 -6 -9 -10 -10
-10 -3 0 6 -22 38 -50 69 -27 31 -50 63 -50 70 0 16 56 56 84 60 11 1 28 5 37
9 28 11 34 -16 9 -37 -20 -16 -21 -21 -9 -28 10 -7 15 -5 17 5 5 22 18 18 36
-10 9 -14 21 -25 27 -25 6 0 -1 14 -15 31 -31 37 -33 53 -6 44 11 -4 32 -8 46
-9 15 -2 31 -10 35 -19 8 -14 14 -13 47 9 20 15 48 30 61 35 13 5 21 12 18 15
-5 6 -61 -18 -90 -38 -15 -11 -20 -10 -31 4 -8 11 -20 15 -34 12 -21 -6 -82
23 -82 39 0 5 13 7 30 4 23 -5 36 -1 57 18 16 13 23 25 17 25 -6 0 -19 -9 -29
-20 -10 -11 -23 -20 -29 -20 -6 0 -3 5 7 11 9 6 15 14 12 18 -2 5 7 21 20 35
14 15 25 31 25 36 0 8 89 40 112 40 4 0 5 -8 2 -17 -5 -15 -3 -15 10 2 24 29
0 37 -62 19 -51 -15 -106 -60 -118 -96 -5 -16 -8 -17 -21 -6 -14 11 -15 11
-11 -2 5 -17 -56 -70 -81 -70 -13 1 -13 3 3 15 11 8 15 15 10 15 -12 0 -68
-45 -111 -90 -34 -35 -34 -35 -11 -40 13 -3 21 -10 18 -15 -3 -6 -9 -8 -15 -7
-61 21 -82 13 -141 -48 -116 -119 -116 -119 -99 -137 9 -8 23 -29 32 -46 9
-19 18 -27 21 -19 2 7 -8 28 -23 47 -26 35 -26 35 3 65 30 29 30 29 68 10 21
-11 39 -18 41 -17 7 7 -58 47 -67 42 -26 -16 -6 13 27 40 55 44 90 57 140 49
42 -6 83 -42 83 -73 0 -18 -94 -59 -116 -50 -19 7 -19 8 1 8 15 1 16 4 7 13
-19 19 -14 38 9 38 11 0 17 5 14 10 -3 6 -18 8 -32 6 -27 -5 -44 -16 -26 -16
6 0 10 -8 8 -17 -2 -10 -4 -25 -4 -33 -1 -8 -21 -23 -44 -33 -63 -27 -70 -32
-75 -48 -4 -10 2 -8 16 5 11 10 26 16 33 14 7 -2 21 4 31 14 10 10 25 18 33
18 19 0 41 -40 27 -49 -6 -4 -8 -12 -3 -19 11 -19 53 15 49 41 -2 13 3 23 13
25 17 3 30 -22 48 -94 10 -36 16 -42 53 -54 24 -8 55 -22 70 -32 36 -25 47
-23 14 3 -14 11 -42 25 -60 30 -32 9 -74 54 -62 66 10 10 119 -51 158 -88 21
-20 38 -33 38 -29 0 13 -69 78 -90 85 -11 3 -20 13 -20 21 0 9 -11 14 -30 14
-30 0 -80 37 -80 60 0 16 10 12 47 -20 39 -34 65 -38 98 -12 16 13 34 17 66
14 43 -4 43 -4 20 -23 -13 -11 -35 -19 -50 -20 -25 0 -25 -1 -4 -11 16 -8 27
-7 43 5 14 10 36 13 63 10 30 -3 38 -2 27 6 -8 5 -18 7 -22 5 -4 -3 -13 -2
-19 2 -34 21 75 33 113 13 14 -8 23 -8 31 0 8 8 5 11 -11 11 -12 0 -26 10 -33
23 -7 12 -18 26 -26 30 -12 8 -53 78 -53 93 0 3 16 -6 35 -20 28 -22 35 -24
35 -11 0 9 5 13 11 10 6 -4 8 -13 5 -21 -3 -7 -1 -16 4 -19 6 -4 6 -14 -1 -28
-7 -14 4 -8 31 18 42 40 42 40 36 5 -5 -27 -4 -31 4 -18 5 9 12 31 14 49 2 18
12 39 22 46 11 7 34 27 53 44 30 29 37 31 79 25 56 -8 58 -9 38 -38 -9 -12
-16 -30 -16 -40 0 -24 -21 -68 -33 -68 -5 0 -7 12 -4 26 4 23 3 24 -10 11 -17
-17 -73 6 -73 31 0 6 -4 12 -10 12 -5 0 -10 -4 -10 -9 0 -6 5 -13 10 -16 17
-10 11 -51 -11 -79 -12 -15 -19 -30 -15 -33 7 -8 8 -7 36 37 22 35 22 35 15 5
-4 -16 -13 -37 -21 -46 -21 -23 -17 -35 5 -15 15 13 20 14 24 4 3 -8 9 -4 16
12 16 33 54 50 114 50 44 0 54 4 84 36 42 42 57 40 61 -9 2 -28 -1 -38 -17
-47 -25 -13 -27 -5 -6 16 17 18 20 50 5 59 -7 4 -9 -2 -5 -18 7 -26 -22 -46
-45 -32 -5 3 -10 1 -10 -4 0 -6 7 -11 15 -11 24 0 18 -24 -14 -54 -29 -28 -29
-28 -34 0 -3 23 -4 20 -6 -12 -2 -55 -52 -104 -86 -83 -42 27 -110 20 -118
-11 -5 -20 -27 -28 -27 -10 0 6 -8 18 -19 29 -10 10 -21 25 -23 32 -3 8 -8 11
-12 8 -4 -4 6 -28 23 -54 16 -25 28 -55 26 -66 -2 -10 0 -19 6 -19 15 0 10
-36 -8 -58 -10 -11 -38 -27 -63 -37 -168 -65 -168 -65 -180 -50 -10 12 -9 16
6 21 11 3 33 12 51 20 17 8 35 14 41 14 5 0 15 7 23 16 7 8 21 13 32 10 21 -5
73 11 64 20 -3 3 1 17 8 30 7 14 10 35 7 46 -5 20 -5 20 -20 2 -15 -20 -15
-16 5 33 4 10 3 14 -5 10 -6 -4 -15 -22 -21 -40 -6 -18 -20 -38 -31 -45 -30
-18 -107 -27 -133 -14 -64 31 -242 31 -272 -1 -7 -7 -4 -8 10 -3 46 18 135 18
209 2 81 -19 92 -32 60 -72 -15 -18 -15 -18 -9 4 6 21 5 22 -14 10 -12 -7 -21
-17 -21 -23 0 -6 -12 -12 -27 -13 -15 -1 -32 -7 -37 -12 -7 -7 0 -8 22 -4 28
6 32 4 32 -15 0 -14 -8 -22 -27 -26 -56 -12 -109 -28 -149 -46 -22 -11 -49
-19 -60 -19 -11 0 -30 -7 -42 -16 -35 -24 -47 -12 -61 58 -13 69 -26 97 -37
85 -4 -4 -2 -13 4 -19 7 -7 12 -25 12 -41 0 -29 -1 -29 -37 -24 -32 5 -35 4
-18 -5 18 -11 17 -13 -15 -19 -21 -5 -40 -3 -48 3 -7 6 -15 9 -17 6 -3 -3 2
-11 11 -19 13 -11 25 -11 76 3 50 13 61 13 65 2 7 -18 -3 -44 -17 -44 -6 0 -9
4 -6 8 2 4 1 14 -3 21 -6 9 -14 5 -30 -16 -26 -32 -78 -41 -88 -15 -6 13 -8
13 -17 0 -13 -17 -49 -38 -67 -38 -7 0 3 12 22 26 19 15 25 23 14 19 -11 -4
-33 -12 -50 -18 -16 -5 -42 -16 -56 -23 -32 -16 -134 -23 -197 -13 -40 6 -43
5 -27 -7 17 -13 13 -13 -30 -8 -28 4 -58 11 -67 16 -10 4 -34 7 -55 4 -21 -2
-28 -1 -15 1 28 6 19 23 -13 23 -14 0 -32 11 -44 27 -12 14 -24 23 -27 20 -3
-3 5 -18 19 -33 14 -15 23 -32 21 -39 -5 -11 26 -16 221 -31 23 -2 34 0 27 5
-7 4 17 7 55 5 80 -4 201 9 353 36 36 7 90 16 120 20 89 12 158 30 170 46 8 8
23 12 39 9 23 -5 24 -4 6 5 -17 9 -14 10 13 5 18 -2 31 -1 28 4 -4 5 8 14 26
20 42 15 50 12 13 -4 -34 -16 -19 -20 17 -5 13 5 43 14 67 21 25 6 39 14 33
18 -7 4 -1 11 16 18 82 35 105 42 115 36 6 -3 7 -1 3 5 -4 7 -3 12 3 12 24 0
19 -20 -8 -35 -36 -18 -45 -19 -35 -3 5 7 3 8 -5 3 -7 -4 -25 -11 -39 -16 -25
-8 -25 -9 6 -4 18 2 32 0 32 -5 0 -6 10 -4 23 4 12 8 50 21 85 30 68 17 155
67 216 125 35 33 96 145 96 177 0 7 8 29 17 49 16 33 16 37 0 64 -22 38 -23
38 21 60 20 11 59 42 87 70 79 82 103 70 140 -71 33 -123 9 -214 -88 -335 -62
-78 -118 -131 -179 -169 -24 -15 -65 -42 -93 -60 -194 -127 -668 -273 -940
-289 -86 -6 -484 -6 -536 -1 -45 5 -42 3 20 -9 40 -8 81 -20 90 -28 31 -27 46
-28 16 -2 -30 27 -30 27 4 21 37 -7 71 -31 71 -52 0 -7 5 -16 11 -20 8 -4 9 1
4 17 -4 13 -13 27 -19 31 -6 4 -7 11 -2 15 11 11 166 17 166 6 0 -4 -45 -44
-99 -88 -55 -44 -98 -81 -96 -84 6 -5 64 39 142 106 72 62 78 62 87 -5 6 -49
6 -49 76 -44 68 5 70 4 70 -19 0 -13 7 -45 15 -71 16 -55 15 -57 -49 -54 -36
1 -53 7 -66 24 -22 27 -34 29 -21 3 6 -10 25 -24 43 -31 18 -7 46 -25 63 -39
30 -26 30 -26 6 2 -24 27 -24 27 6 27 25 0 32 -5 37 -26 15 -59 16 -11 1 57
-9 41 -22 107 -30 148 -8 41 -20 80 -26 85 -9 8 -10 7 -6 -6 3 -9 9 -33 13
-52 6 -36 6 -36 -54 -36 -61 0 -61 0 -67 38 -4 20 -9 44 -11 53 -6 23 221 34
271 13 40 -17 44 -22 60 -88 13 -51 13 -51 14 -12 1 21 11 58 22 82 22 43 22
43 43 11 51 -76 197 -112 266 -65 43 29 58 59 62 121 3 42 8 51 30 49 3 -1 9
5 12 13 6 18 -4 19 -37 4 -17 -8 -23 -17 -20 -29 6 -23 -10 -53 -30 -56 -11
-1 -13 5 -7 32 4 19 6 34 3 34 -22 0 -120 -35 -129 -46 -9 -11 -14 -11 -30 0
-22 17 -10 24 93 50 191 50 467 180 598 283 82 65 95 70 74 31 -6 -11 -8 -22
-5 -25 3 -3 15 15 26 41 11 26 35 67 54 92 39 51 92 172 101 230 6 40 -22 171
-49 225 -12 24 -12 28 1 33 22 9 23 8 16 -11 -5 -13 1 -12 21 7 15 14 28 24
29 22 1 -2 14 -1 30 3 15 4 33 3 40 -2 6 -5 23 -10 36 -11 13 0 33 -10 45 -21
12 -12 26 -21 31 -21 14 0 -28 41 -57 56 -31 16 -37 34 -11 34 9 0 13 3 10 7
-4 3 -58 -8 -119 -26 -167 -48 -193 -57 -190 -71 1 -6 -1 -9 -6 -6 -10 6 -60
-42 -62 -59 -1 -5 -4 -12 -7 -15 -4 -3 -3 1 1 8 10 16 -4 15 -28 -3 -11 -8
-22 -15 -26 -15 -12 0 -40 59 -40 87 0 45 -40 104 -86 127 -23 12 -47 26 -55
33 -8 6 -42 22 -77 36 -34 14 -81 40 -102 57 -22 18 -40 28 -40 23z m510 -297
c0 -2 -8 -10 -17 -17 -16 -13 -17 -12 -4 4 13 16 21 21 21 13z m-390 -39 c-24
-25 -32 -28 -45 -17 -8 7 -12 17 -8 23 3 5 1 7 -5 3 -6 -3 -13 -2 -17 4 -3 5
9 9 30 8 19 -1 37 1 40 4 3 2 12 5 20 5 9 0 4 -11 -15 -30z m87 27 c-3 -3 -12
-4 -19 -1 -8 3 -5 6 6 6 11 1 17 -2 13 -5z m88 -32 c-3 -4 -10 0 -15 8 -6 9
-5 17 3 22 13 8 24 -19 12 -30z m35 13 c5 3 14 -13 20 -36 11 -41 11 -42 -24
-75 -20 -19 -36 -29 -36 -24 0 6 -5 10 -11 10 -5 0 -7 -4 -4 -10 11 -17 -7
-11 -21 8 -13 16 -13 16 -14 0 0 -10 -7 -18 -15 -18 -17 0 -19 9 -6 29 5 8 18
12 29 9 15 -4 19 -2 15 9 -8 20 26 53 56 54 17 1 20 3 9 6 -12 3 -18 14 -17
31 0 15 3 21 6 14 2 -6 9 -10 13 -7z m-349 -37 c34 -32 34 -32 4 -38 -22 -4
-31 -1 -33 10 -2 8 -11 20 -19 27 -15 11 -10 33 7 33 4 0 23 -14 41 -32z m302
16 c9 -9 -16 -44 -30 -44 -16 0 -16 5 -1 30 13 21 21 24 31 14z m97 -34 c0
-13 -1 -13 -10 0 -5 8 -10 22 -10 30 0 13 1 13 10 0 5 -8 10 -22 10 -30z
m-525 -9 c3 -5 1 -12 -4 -15 -5 -3 -11 1 -15 9 -6 16 9 21 19 6z m145 -56 c0
-1 -7 -8 -15 -15 -13 -10 -15 -9 -15 8 0 15 5 20 15 16 8 -4 15 -7 15 -9z
m-375 -14 c3 -5 1 -12 -5 -16 -5 -3 -10 1 -10 9 0 18 6 21 15 7z m-6 -52 c18
-19 31 -27 35 -20 4 6 3 11 -2 11 -6 0 -12 7 -16 15 -8 21 -5 19 38 -20 38
-35 38 -35 10 -33 -17 1 -44 15 -64 34 -19 17 -42 34 -50 37 -12 4 -11 6 3 6
10 1 31 -13 46 -30z m517 5 c-4 -9 -9 -15 -11 -12 -3 3 -3 13 1 22 4 9 9 15
11 12 3 -3 3 -13 -1 -22z m-636 -14 c6 -11 7 -20 2 -20 -6 0 -12 9 -15 20 -3
11 -3 20 -1 20 2 0 8 -9 14 -20z m280 0 c45 -20 45 -20 -20 -14 -70 7 -80 10
-80 25 0 15 52 9 100 -11z m580 -88 c-43 -93 -149 -196 -182 -176 -7 4 -8 3
-4 -4 7 -12 -31 -35 -79 -46 -29 -7 -29 -6 14 31 61 52 152 115 170 118 15 2
36 34 82 124 35 69 35 29 -1 -47z m-27 30 c-10 -17 -26 -33 -36 -36 -11 -3
-16 -9 -12 -16 4 -6 1 -18 -6 -26 -22 -27 -99 -76 -99 -63 0 12 130 141 130
130 1 -3 8 7 16 22 9 16 18 27 20 24 3 -2 -3 -18 -13 -35z m-155 -74 c17 -15
16 -18 -28 -73 -71 -88 -78 -95 -97 -95 -17 1 -17 1 0 15 15 11 18 24 15 68
-2 41 1 58 15 71 9 10 17 22 17 28 0 11 59 1 78 -14z m-169 -106 c-11 -17 -23
-20 -78 -20 -66 0 -66 0 -16 13 28 8 51 14 53 15 2 0 0 -4 -3 -10 -10 -17 10
-11 31 9 24 23 30 20 13 -7z m-99 -36 c0 -2 -9 -6 -20 -9 -11 -3 -18 -1 -14 4
5 9 34 13 34 5z m-43 -103 c-4 -3 -10 -3 -14 0 -3 4 0 7 7 7 7 0 10 -3 7 -7z
m-467 -103 c0 -5 -5 -10 -11 -10 -5 0 -7 5 -4 10 3 6 8 10 11 10 2 0 4 -4 4
-10z m-223 -37 c-4 -3 -10 -3 -14 0 -3 4 0 7 7 7 7 0 10 -3 7 -7z m723 -140
c-1 -30 -47 -54 -77 -40 -32 14 -29 27 6 27 17 0 33 5 36 10 7 12 35 14 35 3z
m-164 -24 c19 -11 49 -23 67 -26 17 -3 34 -7 37 -10 3 -3 -6 -4 -21 -1 -32 6
-58 -18 -29 -27 11 -4 35 3 59 17 40 23 70 19 36 -6 -17 -12 -17 -13 4 -19 11
-3 19 -1 15 4 -3 5 2 6 11 3 34 -13 -44 -64 -99 -64 -96 0 -235 109 -170 134
11 4 22 -1 31 -14 8 -11 19 -20 24 -20 6 0 3 7 -5 16 -15 14 -14 34 1 34 3 0
21 -9 39 -21z m-146 -38 c-9 -17 -15 -18 -47 -9 -62 16 -62 28 0 28 54 0 57
-1 47 -19z m350 -5 c0 -3 -5 -8 -12 -12 -7 -4 -8 -3 -4 4 7 12 16 16 16 8z
m-123 -12 c-3 -3 -12 -4 -19 -1 -8 3 -5 6 6 6 11 1 17 -2 13 -5z m-252 -14 c3
-5 1 -10 -4 -10 -6 0 -11 5 -11 10 0 6 2 10 4 10 3 0 8 -4 11 -10z"/>
<path d="M2867 1413 c-4 -23 -3 -25 6 -12 7 9 19 14 27 11 11 -4 11 -2 -2 11
-22 23 -25 22 -31 -10z"/>
<path d="M2304 545 c22 -17 84 -31 93 -21 4 3 -4 6 -16 6 -12 0 -38 7 -59 15
-32 13 -35 13 -18 0z"/>
<path d="M3581 1818 c-10 -16 -15 -18 -21 -8 -7 11 -15 11 -42 2 -33 -11 -33
-11 -1 -6 40 7 49 -7 20 -33 -42 -39 -70 -49 -212 -77 -11 -2 -4 -4 17 -5 53
-2 155 33 199 68 42 34 61 38 78 17 9 -10 7 -46 -3 -46 0 0 -28 -12 -61 -26
-45 -19 -51 -23 -25 -18 69 12 114 53 135 121 5 17 3 22 -8 18 -7 -3 -25 -2
-38 4 -21 7 -28 5 -38 -11z m52 -12 c10 -8 14 -17 9 -20 -5 -3 -17 3 -27 14
-21 23 -9 26 18 6z"/>
<path d="M1583 1817 c2 -6 29 -20 60 -31 31 -12 57 -25 57 -30 0 -5 15 -23 34
-40 46 -41 55 -73 24 -79 -16 -3 -14 -4 5 -2 33 2 44 -10 27 -30 -6 -8 -9 -18
-7 -22 3 -5 -16 -30 -43 -56 -26 -26 -43 -47 -36 -47 7 0 29 18 51 40 21 21
42 37 47 34 9 -6 6 -63 -5 -80 -7 -12 1 -24 14 -24 5 0 6 7 3 15 -4 10 0 15
10 15 13 0 15 -7 10 -40 -4 -27 -3 -40 5 -40 6 0 11 14 11 30 0 17 7 45 17 63
15 30 15 31 0 18 -28 -22 -20 6 8 35 17 17 32 23 45 19 28 -9 25 -1 -7 20 -22
15 -25 15 -20 2 4 -10 -1 -18 -13 -22 -10 -3 -21 -12 -24 -20 -8 -23 -20 -18
-40 17 -18 29 -18 32 -2 44 12 8 13 13 5 16 -9 3 -7 11 5 31 18 26 15 47 -6
47 -7 0 -7 -4 0 -13 7 -8 7 -17 -3 -30 -11 -16 -13 -15 -25 13 -7 17 -26 41
-41 55 -34 28 -37 39 -8 32 16 -4 18 -3 9 8 -8 10 -7 16 6 23 11 6 13 11 5 16
-6 4 -11 2 -11 -3 0 -6 -7 -11 -15 -11 -8 0 -15 -5 -15 -12 0 -6 -8 -4 -19 6
-11 10 -24 15 -30 12 -6 -4 -29 2 -51 13 -23 11 -40 15 -37 8z"/>
<path d="M1845 1816 c-10 -10 -35 -83 -35 -100 0 -23 19 11 25 44 4 22 14 44
22 49 9 4 12 11 7 14 -5 3 -14 0 -19 -7z"/>
<path d="M1295 1806 c-46 -20 -61 -42 -33 -49 13 -4 27 -2 32 3 7 7 3 10 -9
10 -19 1 -19 1 -2 15 11 7 25 11 32 9 7 -3 15 2 18 10 8 19 1 19 -38 2z"/>
<path d="M2068 1813 c7 -3 16 -2 19 1 4 3 -2 6 -13 5 -11 0 -14 -3 -6 -6z"/>
<path d="M2380 1805 c-33 -19 -21 -19 21 0 19 8 27 14 19 14 -8 0 -26 -6 -40
-14z"/>
<path d="M200 1790 c0 -7 3 -10 7 -7 3 4 3 10 0 14 -4 3 -7 0 -7 -7z"/>
<path d="M1870 1790 c0 -5 10 -10 23 -10 18 0 19 2 7 10 -19 13 -30 13 -30 0z"/>
<path d="M3330 1761 c-132 -44 -170 -60 -170 -74 0 -19 -42 -61 -78 -78 -20
-10 -31 -18 -24 -18 7 -1 47 17 88 39 42 22 85 40 97 41 12 0 16 3 9 6 -7 3
-27 0 -44 -6 -17 -6 -33 -9 -35 -7 -11 11 48 49 102 66 108 35 200 69 185 69
-8 0 -67 -17 -130 -38z"/>
<path d="M210 1756 c0 -7 -14 -19 -31 -26 -17 -7 -46 -23 -64 -36 -28 -19 -33
-20 -29 -6 4 12 -1 9 -15 -7 -25 -27 -28 -56 -6 -47 11 4 15 -1 15 -17 0 -12
9 -28 20 -35 23 -14 27 0 5 18 -38 32 -9 77 74 114 26 12 41 26 41 38 0 10 -2
18 -5 18 -3 0 -5 -6 -5 -14z"/>
<path d="M1175 1749 c-30 -19 -30 -19 15 -13 39 5 48 3 65 -17 17 -19 17 -21
3 -16 -10 3 -20 2 -23 -3 -4 -6 -1 -10 5 -10 7 0 8 -6 0 -19 -18 -35 -11 -36
15 -2 27 38 23 57 -19 85 -30 19 -24 19 -61 -5z"/>
<path d="M2335 1760 c3 -5 8 -10 11 -10 2 0 4 5 4 10 0 6 -5 10 -11 10 -5 0
-7 -4 -4 -10z"/>
<path d="M2580 1760 c-9 -6 -10 -10 -3 -10 6 0 15 5 18 10 8 12 4 12 -15 0z"/>
<path d="M2540 1750 c-13 -8 -12 -10 3 -10 9 0 17 5 17 10 0 12 -1 12 -20 0z"/>
<path d="M1378 1729 c-20 -15 -28 -17 -29 -7 0 7 -4 4 -8 -7 -5 -11 -7 -22 -5
-24 5 -6 74 40 74 50 0 12 -1 12 -32 -12z"/>
<path d="M2266 1735 c15 -12 16 -16 5 -24 -16 -10 0 -23 17 -12 14 8 -11 51
-30 51 -7 0 -3 -7 8 -15z"/>
<path d="M2618 1729 c-35 -18 -40 -18 -98 -3 -34 8 -69 12 -78 8 -12 -5 0 -10
38 -17 88 -15 160 -11 181 10 20 20 -6 21 -43 2z"/>
<path d="M1065 1730 c-4 -6 5 -10 20 -10 15 0 24 4 20 10 -3 6 -12 10 -20 10
-8 0 -17 -4 -20 -10z"/>
<path d="M2703 1723 c21 -24 22 -34 2 -27 -11 5 -13 2 -8 -12 4 -10 2 -15 -3
-11 -6 3 -15 -3 -22 -14 -16 -25 -8 -24 28 3 36 26 38 53 8 69 -22 12 -22 11
-5 -8z"/>
<path d="M1940 1708 c14 -6 37 -10 52 -9 29 1 68 -41 68 -76 1 -17 1 -17 11 0
9 15 6 24 -13 44 -16 18 -19 27 -10 30 6 3 12 10 12 16 0 8 -3 8 -11 0 -6 -6
-25 -7 -52 -2 -62 12 -89 11 -57 -3z"/>
<path d="M2108 1695 c-3 -11 -9 -29 -13 -40 -6 -17 -5 -17 9 3 10 12 16 30 14
40 -3 15 -5 14 -10 -3z"/>
<path d="M2494 1694 c10 -3 39 -17 64 -30 48 -26 77 -30 87 -14 4 6 -5 10 -24
8 -17 -1 -38 5 -49 15 -11 10 -37 20 -58 22 -22 2 -31 2 -20 -1z"/>
<path d="M2600 1696 c0 -2 9 -6 20 -9 11 -3 20 -1 20 4 0 5 -9 9 -20 9 -11 0
-20 -2 -20 -4z"/>
<path d="M3000 1685 c-72 -15 -96 -26 -45 -20 42 5 141 33 115 33 -8 0 -40 -6
-70 -13z"/>
<path d="M1197 1683 c-4 -3 -7 -11 -7 -17 0 -6 5 -5 12 2 6 6 9 14 7 17 -3 3
-9 2 -12 -2z"/>
<path d="M2165 1662 c-9 -37 -46 -76 -57 -60 -5 9 -8 10 -8 1 0 -8 -11 -10
-33 -6 -25 4 -42 -1 -71 -21 -22 -14 -45 -26 -52 -26 -8 0 -14 -4 -14 -10 0
-5 7 -7 16 -3 12 4 10 -3 -7 -29 -13 -19 -33 -48 -43 -64 -11 -16 -29 -37 -40
-46 -11 -9 -18 -19 -16 -22 9 -9 25 7 70 69 78 106 124 144 165 135 40 -9 80
14 96 57 5 13 13 21 19 18 15 -9 12 4 -4 20 -12 12 -15 11 -21 -13z"/>
<path d="M3283 1683 c4 -3 10 -3 14 0 3 4 0 7 -7 7 -7 0 -10 -3 -7 -7z"/>
<path d="M980 1671 c0 -5 5 -13 10 -16 6 -3 10 -2 10 4 0 5 -4 13 -10 16 -5 3
-10 2 -10 -4z"/>
<path d="M1050 1656 c-41 -28 -103 -102 -96 -115 3 -4 -3 -16 -14 -26 -11 -10
-20 -23 -20 -28 0 -18 51 36 71 75 10 21 38 55 61 78 48 46 47 50 -2 16z"/>
<path d="M1390 1670 c-8 -5 -12 -12 -9 -15 4 -3 12 1 19 10 14 17 11 19 -10 5z"/>
<path d="M3434 1668 c-4 -7 -3 -8 4 -4 7 4 12 9 12 12 0 8 -9 4 -16 -8z"/>
<path d="M1163 1663 c4 -3 10 -3 14 0 3 4 0 7 -7 7 -7 0 -10 -3 -7 -7z"/>
<path d="M1455 1660 c3 -5 8 -10 11 -10 2 0 4 5 4 10 0 6 -5 10 -11 10 -5 0
-7 -4 -4 -10z"/>
<path d="M1683 1663 c4 -3 10 -3 14 0 3 4 0 7 -7 7 -7 0 -10 -3 -7 -7z"/>
<path d="M2230 1659 c0 -5 5 -7 10 -4 6 3 10 8 10 11 0 2 -4 4 -10 4 -5 0 -10
-5 -10 -11z"/>
<path d="M2805 1660 c-11 -4 -46 -16 -77 -26 -32 -10 -56 -19 -54 -21 7 -7
135 29 153 43 20 15 9 17 -22 4z"/>
<path d="M1865 1649 c-10 -15 -2 -19 23 -12 12 3 19 9 16 14 -7 12 -31 11 -39
-2z"/>
<path d="M2379 1643 c-13 -16 -12 -17 4 -4 9 7 17 15 17 17 0 8 -8 3 -21 -13z"/>
<path d="M524 1639 c-3 -5 -4 -9 -2 -9 49 -5 135 -4 126 1 -21 11 -118 17
-124 8z"/>
<path d="M1349 1638 c-1 -7 0 -20 1 -27 2 -13 0 -13 -16 0 -16 13 -16 12 -4
-11 8 -14 13 -28 12 -32 -3 -13 16 -9 24 4 4 6 3 13 -2 15 -6 2 -8 17 -6 33 2
17 2 30 -2 30 -3 0 -7 -6 -7 -12z"/>
<path d="M2543 1643 c4 -3 10 -3 14 0 3 4 0 7 -7 7 -7 0 -10 -3 -7 -7z"/>
<path d="M965 1630 c-3 -5 -1 -10 4 -10 6 0 11 5 11 10 0 6 -2 10 -4 10 -3 0
-8 -4 -11 -10z"/>
<path d="M1156 1615 c-9 -14 -24 -25 -33 -25 -16 0 -16 -1 0 -17 16 -16 16
-18 -4 -39 -20 -22 -21 -22 -40 -3 -20 20 -54 25 -64 10 -3 -5 -1 -12 5 -16 5
-3 10 -2 10 4 0 9 25 9 35 0 3 -3 -6 -16 -20 -29 -30 -28 -33 -45 -6 -30 11 5
33 10 50 10 22 0 29 4 25 14 -3 7 7 23 21 34 16 13 24 26 19 33 -4 8 -3 9 4 5
7 -4 12 -3 12 3 0 5 -6 11 -12 14 -9 3 -8 10 6 26 11 11 17 23 14 26 -3 3 -13
-6 -22 -20z m-79 -122 c-4 -3 -7 0 -7 7 0 7 3 10 7 7 3 -4 3 -10 0 -14z"/>
<path d="M1043 1610 c-6 -15 -7 -26 -1 -29 15 -5 20 5 16 31 -5 23 -5 23 -15
-2z"/>
<path d="M1217 1610 c-9 -11 -12 -22 -7 -25 5 -3 14 4 20 16 15 28 8 33 -13 9z"/>
<path d="M2556 1621 c-3 -5 1 -12 10 -15 24 -9 82 -7 88 3 3 5 -4 8 -17 8 -12
-1 -34 2 -49 6 -15 4 -29 3 -32 -2z"/>
<path d="M23 1613 c4 -3 10 -3 14 0 3 4 0 7 -7 7 -7 0 -10 -3 -7 -7z"/>
<path d="M1623 1605 c-18 -8 -33 -17 -33 -20 0 -3 9 -1 19 5 11 5 37 14 58 19
27 7 31 9 13 10 -14 0 -40 -6 -57 -14z"/>
<path d="M1261 1599 c-13 -5 -22 -11 -20 -14 8 -7 49 7 49 16 0 5 -1 9 -2 8
-2 0 -14 -5 -27 -10z"/>
<path d="M3 1585 c-3 -9 -3 -18 -1 -21 3 -3 8 4 11 16 6 23 -1 27 -10 5z"/>
<path d="M1663 1593 c4 -3 10 -3 14 0 3 4 0 7 -7 7 -7 0 -10 -3 -7 -7z"/>
<path d="M1950 1590 c19 -13 30 -13 30 0 0 6 -10 10 -22 10 -19 0 -20 -2 -8
-10z"/>
<path d="M2510 1580 c-34 -7 -34 -7 -5 -8 17 0 39 3 50 8 24 10 4 10 -45 0z"/>
<path d="M1281 1573 c0 -7 -12 -13 -25 -13 -15 0 -26 -7 -29 -20 -3 -11 -14
-20 -24 -20 -21 0 -63 -27 -63 -40 0 -4 25 5 55 22 55 29 55 29 80 1 32 -36
31 -45 -4 -86 -16 -18 -33 -46 -36 -63 -6 -29 -6 -29 19 -1 14 15 27 27 30 27
14 0 36 -62 30 -85 -13 -54 15 -60 63 -13 23 23 43 47 43 53 0 5 -12 -2 -25
-17 -47 -54 -49 -18 -2 46 17 24 45 63 60 85 24 35 32 40 55 35 25 -5 26 -4 8
10 -10 8 -15 19 -12 25 4 6 -10 3 -31 -5 -45 -19 -58 -30 -24 -19 24 7 24 7 2
-21 -12 -16 -37 -53 -56 -81 -40 -62 -46 -65 -40 -20 5 31 1 27 -17 -23 -10
-25 -10 -25 -24 9 -8 18 -12 37 -9 41 3 5 -1 10 -7 13 -9 3 -6 12 10 27 24 22
24 22 -7 54 -23 23 -28 35 -20 43 6 6 9 19 6 29 -3 11 -5 13 -6 7z m69 -243
c0 -5 -5 -10 -11 -10 -5 0 -7 5 -4 10 3 6 8 10 11 10 2 0 4 -4 4 -10z m-13
-67 c-4 -3 -7 0 -7 7 0 7 3 10 7 7 3 -4 3 -10 0 -14z"/>
<path d="M1535 1573 c-31 -7 -40 -21 -11 -16 15 3 29 9 32 14 3 5 4 8 2 8 -2
-1 -12 -3 -23 -6z"/>
<path d="M584 1529 c-77 -79 -125 -108 -214 -125 -113 -21 -155 -13 -180 34
-10 21 -19 31 -20 23 0 -7 11 -34 24 -60 26 -49 52 -105 85 -185 21 -48 21
-48 -6 -70 -35 -27 -117 -56 -163 -57 -30 -1 -31 -2 -11 -8 35 -10 35 -37 -1
-52 -16 -6 -25 -16 -21 -20 5 -5 32 2 61 16 54 26 66 37 32 28 -14 -4 -20 0
-20 11 0 10 5 14 10 11 15 -9 140 51 140 67 1 7 10 -4 21 -25 11 -22 18 -45
15 -53 -3 -9 1 -14 14 -14 10 0 22 -5 25 -10 8 -14 -47 -88 -82 -112 -16 -10
-23 -18 -17 -18 29 0 20 -39 -33 -148 -72 -146 -79 -165 -52 -129 13 16 31 28
47 28 25 2 25 2 4 6 -16 3 -22 9 -18 20 3 8 6 17 6 19 0 2 21 5 48 6 47 1 47
1 5 5 -51 5 -50 -1 -16 68 27 55 27 55 75 55 59 0 59 -3 7 -96 -22 -41 -39
-82 -36 -92 3 -15 5 -15 11 3 4 11 24 54 45 95 21 41 46 100 56 130 10 30 24
68 32 84 8 16 10 25 4 21 -11 -6 -41 -67 -54 -107 -5 -14 -11 -15 -47 -6 -57
15 -58 28 -11 92 39 52 43 55 74 49 17 -3 34 -7 36 -9 2 -2 10 3 17 11 17 16
7 48 -12 41 -7 -3 -20 5 -29 17 -17 24 -20 41 -5 32 16 -10 12 0 -10 25 -25
29 -27 9 -5 -62 20 -69 3 -59 -39 22 -21 39 -41 70 -45 70 -5 0 -11 6 -14 13
-3 6 -12 28 -20 48 -16 35 -16 35 53 35 38 -1 74 4 79 9 7 7 -8 9 -45 7 -57
-4 -114 12 -114 32 0 6 -9 17 -20 24 -45 28 -15 66 32 41 15 -8 22 -8 28 1 5
8 18 10 36 6 19 -4 24 -3 16 2 -16 11 32 27 49 17 5 -4 30 5 54 20 25 14 45
24 45 22 0 -3 -10 -26 -21 -52 -27 -61 -36 -192 -19 -264 16 -67 78 -161 152
-233 33 -32 54 -58 46 -58 -19 0 -178 -99 -178 -111 0 -6 -5 -7 -12 -3 -6 4
-8 3 -4 -4 3 -6 2 -13 -4 -17 -5 -3 -10 -1 -10 5 0 5 -18 -2 -40 -16 -46 -30
-46 -31 -22 -29 25 2 78 32 103 58 21 22 21 22 15 -23 -7 -45 -7 -45 63 -42
70 4 70 4 85 50 16 46 22 121 9 108 -4 -4 -7 -19 -8 -34 0 -29 -18 -34 -80
-22 -29 6 -29 6 38 44 67 38 67 38 165 -17 53 -31 122 -65 153 -77 57 -21 57
-21 69 -88 19 -105 81 -249 101 -236 5 3 8 0 7 -7 -2 -9 16 -15 57 -21 33 -4
85 -12 115 -17 30 -6 120 -20 200 -31 80 -12 204 -30 275 -41 72 -10 177 -24
234 -30 57 -5 129 -16 160 -24 51 -13 122 -23 162 -24 9 -1 19 -7 22 -15 4
-11 -5 -11 -56 0 -34 7 -64 11 -66 8 -6 -5 14 -11 106 -29 46 -8 90 -18 98
-21 11 -5 13 -2 8 12 -4 12 -3 15 5 10 7 -4 12 -1 12 9 0 8 -8 19 -17 22 -10
4 -24 15 -32 26 -8 11 -21 17 -32 14 -13 -4 -19 0 -20 11 -3 51 -8 110 -12
134 -5 25 -7 35 -22 86 -5 18 -2 22 17 22 20 1 19 3 -9 15 -40 17 -73 16 -66
-2 3 -7 1 -19 -5 -26 -6 -6 -12 -28 -15 -47 -3 -26 -4 -21 -5 20 -2 53 -22
146 -27 125 -2 -5 -10 -34 -20 -63 -26 -85 -25 -121 1 -193 20 -53 32 -70 57
-83 32 -17 32 -17 -8 -10 -22 3 -65 12 -96 20 -31 8 -79 14 -105 14 -87 1
-136 16 -166 49 -32 36 -38 38 -31 11 3 -10 14 -22 25 -26 40 -12 7 -16 -54
-6 -35 6 -101 16 -148 22 -366 48 -495 73 -526 102 -31 29 -60 104 -85 221
-14 63 -29 77 -124 107 -56 18 -238 127 -292 174 -61 53 -118 141 -144 220
-41 125 -5 277 95 399 55 67 55 74 0 16z m-124 -499 c0 -5 -4 -10 -10 -10 -5
0 -10 5 -10 10 0 6 5 10 10 10 6 0 10 -4 10 -10z m-105 -170 c4 -6 -5 -10 -20
-10 -15 0 -24 4 -20 10 3 6 12 10 20 10 8 0 17 -4 20 -10z m283 -130 c27 0 23
-35 -6 -57 -28 -22 -102 -17 -102 7 0 30 38 63 63 56 12 -3 32 -6 45 -6z
m-208 -54 c0 -3 -5 -8 -12 -12 -7 -4 -8 -3 -4 4 7 12 16 16 16 8z m629 -150
c12 -43 20 -80 18 -82 -7 -7 -46 122 -52 168 -6 52 2 31 34 -86z m1154 -90 c3
-32 10 -63 16 -69 7 -7 7 -14 -1 -24 -8 -10 -8 -17 0 -25 9 -9 12 -7 12 7 0
18 0 18 16 -1 15 -19 16 -19 8 1 -20 55 -15 143 7 129 7 -4 9 -23 5 -48 -4
-35 -4 -37 5 -16 6 14 8 40 5 58 -2 17 -1 32 3 32 10 0 22 -96 14 -115 -3 -8
-13 -15 -22 -15 -13 0 -13 -2 -2 -9 8 -5 11 -16 8 -25 -4 -9 -2 -16 3 -16 12
0 50 -59 50 -78 0 -20 -70 -4 -98 22 -51 46 -78 164 -51 225 17 37 16 38 22
-33z m123 -141 c3 -18 3 -18 -17 2 -16 15 -19 27 -14 44 8 24 8 24 17 -1 5
-14 11 -34 14 -45z m-31 -95 c3 -5 4 -10 1 -10 -3 0 -8 5 -11 10 -3 6 -4 10
-1 10 3 0 8 -4 11 -10z m85 -25 c0 -16 -6 -25 -15 -25 -9 0 -15 9 -15 25 0 16
6 25 15 25 9 0 15 -9 15 -25z m40 -20 c-7 -8 -16 -15 -21 -15 -5 0 -9 7 -9 15
0 9 9 15 21 15 18 0 19 -2 9 -15z"/>
<path d="M2241 298 c-1 -4 4 -19 11 -33 12 -27 34 -36 24 -9 -3 9 -6 20 -6 25
0 6 -4 8 -9 5 -5 -4 -12 0 -14 6 -3 7 -6 10 -6 6z"/>
<path d="M1347 1535 c-20 -19 -33 -36 -29 -39 9 -5 78 62 71 69 -3 2 -21 -11
-42 -30z"/>
<path d="M1427 1550 c3 -11 9 -20 14 -20 11 0 11 3 3 24 -9 23 -23 20 -17 -4z"/>
<path d="M2182 1558 c-14 -14 -16 -28 -3 -28 9 0 24 30 18 36 -2 2 -9 -2 -15
-8z"/>
<path d="M3324 1555 c11 -8 28 -15 37 -15 10 0 26 -3 36 -7 15 -6 13 -9 -12
-14 -23 -6 61 -2 109 5 23 3 16 -38 -10 -60 -20 -18 -23 -24 -10 -24 24 0 30
-25 12 -52 -8 -13 -24 -49 -36 -81 -39 -104 -79 -151 -94 -111 -4 9 -9 14 -13
10 -3 -3 2 -15 11 -25 30 -33 59 -4 101 102 49 122 45 118 110 94 50 -18 55
-23 55 -49 0 -38 -17 -69 -33 -62 -10 4 -12 -3 -9 -27 3 -19 1 -29 -5 -26 -5
4 -24 -8 -40 -26 -36 -37 -68 -97 -53 -97 5 0 10 6 11 13 0 6 5 -1 11 -16 8
-22 7 -32 -6 -46 -16 -18 -15 -20 21 -50 33 -27 37 -35 35 -69 -2 -20 4 -51
12 -67 9 -17 16 -34 16 -38 0 -5 9 -20 20 -34 27 -34 25 -28 -10 50 -30 66
-39 117 -21 117 5 0 34 -14 63 -31 29 -17 58 -34 65 -38 6 -3 34 -26 62 -49
28 -24 51 -40 51 -35 0 15 -99 94 -156 124 -68 35 -154 97 -154 110 0 14 11
11 27 -8 14 -17 14 -17 8 2 -4 11 -9 36 -11 55 -2 19 -5 44 -6 54 -2 13 9 28
32 43 19 13 40 36 45 51 6 15 18 41 27 57 9 17 17 46 17 65 1 19 2 46 4 59 2
22 -1 24 -63 25 -59 1 -65 3 -62 21 8 43 3 69 -14 82 -12 9 -20 10 -24 2 -8
-12 -127 7 -136 22 -3 5 -13 9 -22 9 -15 -1 -15 -2 2 -15z m301 -152 c-2 -10
-4 -21 -4 -25 -1 -8 -59 11 -66 21 -2 4 2 8 10 8 8 0 15 -4 15 -9 0 -4 5 -8
11 -8 5 0 8 4 5 9 -4 5 0 12 6 14 22 9 26 7 23 -10z"/>
<path d="M1563 1543 c4 -3 10 -3 14 0 3 4 0 7 -7 7 -7 0 -10 -3 -7 -7z"/>
<path d="M2360 1515 c37 -38 40 -40 40 -25 0 14 -49 60 -63 60 -6 0 4 -16 23
-35z"/>
<path d="M2409 1533 c-13 -17 -13 -17 6 -3 11 8 22 16 24 17 2 2 0 3 -6 3 -6
0 -17 -8 -24 -17z"/>
<path d="M2020 1516 c0 -2 7 -7 16 -10 8 -3 12 -2 9 4 -6 10 -25 14 -25 6z"/>
<path d="M1582 1480 c-13 -16 -27 -29 -31 -27 -13 3 -71 -42 -71 -56 0 -7 7
-3 16 8 12 16 16 17 23 6 6 -8 11 -9 15 -3 3 6 23 9 44 6 34 -4 32 0 -7 12
-20 6 26 54 52 54 39 0 87 -39 87 -71 0 -28 13 -39 25 -19 7 11 35 2 35 -12 0
-5 -15 -8 -32 -7 -18 1 -46 -4 -61 -11 -24 -12 -30 -12 -38 1 -6 9 -8 0 -5
-28 2 -23 11 -49 20 -58 9 -9 16 -25 16 -35 0 -10 5 -22 11 -25 6 -4 8 -14 5
-22 -3 -8 1 -25 10 -38 15 -23 15 -26 -11 -57 -15 -18 -39 -39 -52 -46 -14 -8
-23 -16 -20 -19 3 -2 15 1 27 7 12 6 24 9 27 7 17 -18 -53 -30 -154 -27 -23 1
-52 -4 -65 -10 -22 -11 -22 -10 -4 4 11 9 29 16 39 16 30 0 103 40 134 73 24
26 21 25 -31 -11 -32 -23 -75 -45 -95 -48 -20 -4 -52 -20 -71 -35 -30 -25 -66
-42 -47 -22 4 3 0 14 -8 23 -10 11 -13 27 -9 48 7 37 11 38 42 16 13 -9 26
-13 29 -10 3 3 -8 13 -25 23 -21 12 -30 23 -26 34 3 12 -1 16 -13 15 -14 -1
-19 8 -21 42 -2 23 -6 42 -10 42 -4 0 -6 -20 -4 -44 3 -37 1 -44 -18 -49 -22
-6 -22 -6 4 -44 14 -21 26 -46 26 -57 0 -11 7 -27 15 -36 14 -15 13 -19 -4
-34 -19 -17 -20 -17 -38 3 -9 12 -21 21 -26 21 -5 0 -4 -7 3 -15 7 -9 9 -19 5
-23 -4 -4 -10 -1 -12 6 -5 14 -33 16 -33 2 0 -5 5 -10 10 -10 18 0 120 -72
114 -81 -7 -13 15 -51 27 -44 5 4 7 10 4 15 -3 5 2 13 10 18 10 5 13 15 9 27
-7 16 -8 16 -17 -6 -9 -24 -9 -24 -18 -1 -5 13 -18 26 -28 29 -24 6 -36 33
-16 33 8 0 15 -5 15 -11 0 -5 5 -7 10 -4 8 5 8 11 0 20 -14 16 13 36 79 60 99
35 118 16 41 -41 -33 -24 -60 -46 -60 -50 0 -6 -4 -9 83 50 38 25 77 46 87 46
34 0 70 23 77 49 8 33 52 70 83 71 14 0 34 8 45 17 22 17 21 17 -62 -4 -24 -5
-26 0 -37 79 -4 36 -4 37 22 33 15 -2 48 -7 74 -10 42 -5 79 -25 47 -25 -7 0
-9 -3 -6 -7 4 -3 2 -12 -4 -20 -9 -10 -6 -13 12 -13 28 0 90 -55 83 -73 -3 -8
3 -13 16 -13 15 0 19 5 14 20 -5 15 -3 18 10 13 10 -4 15 -3 11 2 -3 5 -18 12
-34 16 -16 3 -39 17 -51 30 -13 14 -27 22 -33 18 -5 -3 -6 3 -2 16 4 13 1 28
-6 37 -6 8 -9 17 -6 20 3 3 -2 13 -11 23 -16 16 -18 16 -42 -1 -30 -22 -67
-30 -75 -17 -4 5 6 9 20 9 19 0 25 5 23 18 -2 12 3 16 17 14 17 -2 20 4 21 45
1 27 -1 40 -3 31 -5 -21 -73 44 -73 69 0 8 -5 11 -10 8 -6 -4 -24 7 -40 24
-16 16 -32 25 -36 20 -3 -5 -12 -9 -20 -9 -8 0 -12 5 -9 10 14 23 -12 7 -33
-20z m-38 -45 c-4 -8 -11 -15 -16 -15 -6 0 -5 6 2 15 7 8 14 15 16 15 2 0 1
-7 -2 -15z m199 -106 c8 -30 -12 -33 -23 -4 -13 34 -13 35 4 29 8 -3 16 -14
19 -25z m39 -1 c-7 -7 -12 -8 -12 -2 0 6 3 14 7 17 3 4 9 5 12 2 2 -3 -1 -11
-7 -17z m-125 -5 c-4 -3 -7 0 -7 7 0 7 3 10 7 7 3 -4 3 -10 0 -14z m40 -20
c-4 -3 -10 -3 -14 0 -3 4 0 7 7 7 7 0 10 -3 7 -7z m-27 -14 c0 -6 9 -9 20 -6
23 6 28 -8 6 -16 -8 -3 -22 3 -32 14 -10 11 -12 19 -6 19 7 0 12 -5 12 -11z
m165 -30 c-4 -5 -13 -9 -22 -9 -13 0 -13 3 -3 15 13 15 35 11 25 -6z m-494
-166 c11 -30 -2 -29 -25 3 -17 24 -17 26 -1 22 10 -1 21 -13 26 -25z"/>
<path d="M3280 1493 c8 -3 34 -14 58 -24 23 -10 42 -14 42 -10 0 11 -74 41
-98 40 -13 0 -14 -2 -2 -6z"/>
<path d="M3427 1489 c7 -7 15 -10 18 -7 3 3 -2 9 -12 12 -14 6 -15 5 -6 -5z"/>
<path d="M3470 1490 c0 -5 7 -7 15 -4 8 4 15 8 15 10 0 2 -7 4 -15 4 -8 0 -15
-4 -15 -10z"/>
<path d="M2233 1473 c-3 -10 -8 -21 -10 -25 -1 -3 6 -4 17 -1 21 6 27 28 10
38 -6 3 -13 -2 -17 -12z"/>
<path d="M3394 1458 c-3 -4 2 -8 10 -8 8 0 17 -10 19 -22 4 -23 4 -23 6 0 0
12 6 22 13 22 6 0 8 3 4 7 -10 10 -46 11 -52 1z"/>
<path d="M353 1453 c-13 -2 -23 -9 -23 -14 0 -12 10 -11 40 6 25 15 23 16 -17
8z"/>
<path d="M1218 1453 c6 -2 18 -2 25 0 6 3 1 5 -13 5 -14 0 -19 -2 -12 -5z"/>
<path d="M2335 1440 c3 -5 8 -10 11 -10 2 0 4 5 4 10 0 6 -5 10 -11 10 -5 0
-7 -4 -4 -10z"/>
<path d="M1103 1418 c-18 -13 -33 -26 -33 -30 0 -16 17 -7 45 22 34 36 31 38
-12 8z"/>
<path d="M1681 1410 c0 -33 1 -34 10 -11 6 16 6 28 -1 35 -7 7 -10 -1 -9 -24z"/>
<path d="M1003 1423 c4 -3 10 -3 14 0 3 4 0 7 -7 7 -7 0 -10 -3 -7 -7z"/>
<path d="M2257 1396 c-10 -8 -15 -16 -10 -19 4 -2 17 4 27 14 22 22 10 25 -17
5z"/>
<path d="M1030 1396 c0 -2 7 -6 15 -10 8 -3 15 -1 15 4 0 6 -7 10 -15 10 -8 0
-15 -2 -15 -4z"/>
<path d="M1965 1390 c3 -5 16 -10 28 -9 21 0 21 1 2 9 -28 12 -37 12 -30 0z"/>
<path d="M2160 1390 c0 -7 3 -10 7 -7 3 4 3 10 0 14 -4 3 -7 0 -7 -7z"/>
<path d="M2313 1384 c-19 -19 -16 -24 12 -22 28 3 31 10 13 26 -9 7 -17 6 -25
-4z"/>
<path d="M3036 1384 c-23 -23 -20 -30 4 -9 11 10 20 20 20 22 0 7 -9 2 -24
-13z"/>
<path d="M1164 1366 c-3 -13 -17 -29 -30 -35 -31 -14 -37 -14 -29 -1 3 6 -1 7
-10 3 -13 -4 -14 -8 -4 -14 10 -6 9 -10 -6 -15 -11 -4 -24 -9 -29 -12 -5 -3
-6 3 -3 12 5 13 -1 11 -24 -8 -17 -14 -35 -26 -41 -26 -6 0 -29 -15 -52 -33
-23 -19 -50 -39 -61 -45 -18 -10 -18 -11 -2 -12 10 0 37 15 60 34 44 35 98 66
116 66 6 0 38 12 71 27 52 24 60 31 60 55 0 34 -8 36 -16 4z"/>
<path d="M1499 1359 c-32 -35 -37 -52 -12 -42 13 5 15 2 10 -16 -4 -19 -3 -21
11 -15 9 5 38 8 64 9 45 0 47 1 41 25 -3 14 -10 30 -16 35 -6 7 -8 3 -5 -12 6
-24 -41 -41 -54 -20 -6 9 -8 9 -8 0 0 -7 -5 -13 -11 -13 -5 0 -7 5 -4 10 3 6
1 10 -5 10 -7 0 -10 6 -7 13 2 6 9 11 14 10 5 -1 14 7 21 18 20 31 -6 23 -39
-12z"/>
<path d="M3400 1363 c0 -22 2 -25 10 -13 13 20 13 40 0 40 -5 0 -10 -12 -10
-27z"/>
<path d="M897 1362 c-21 -23 -21 -29 -2 -48 13 -14 15 -14 15 0 0 9 -5 16 -12
16 -6 0 -1 11 12 25 13 14 19 25 13 25 -5 0 -17 -8 -26 -18z"/>
<path d="M932 1357 c-20 -21 -21 -25 -6 -43 15 -18 15 -18 10 0 -4 10 1 29 9
42 20 30 15 30 -13 1z"/>
<path d="M3353 1335 c0 -27 -3 -65 -7 -84 -5 -21 -5 -31 2 -28 14 10 22 87 12
127 -8 33 -9 33 -7 -15z"/>
<path d="M1276 1354 c-4 -9 -4 -19 -1 -22 2 -3 7 3 11 12 4 9 4 19 1 22 -2 3
-7 -3 -11 -12z"/>
<path d="M290 1340 c-8 -5 -12 -11 -9 -14 3 -3 14 1 25 9 21 16 8 20 -16 5z"/>
<path d="M845 1310 c-3 -5 -1 -10 5 -10 7 0 23 -9 37 -20 14 -11 32 -20 41
-20 8 0 0 10 -19 23 -54 37 -57 38 -64 27z"/>
<path d="M1425 1299 c-16 -10 -25 -19 -19 -19 7 0 22 9 35 20 30 24 23 24 -16
-1z"/>
<path d="M1198 1294 c-4 -3 -4 -12 -1 -20 3 -8 0 -14 -6 -14 -16 0 -13 -17 5
-24 9 -3 24 4 38 19 26 28 41 32 49 11 8 -20 -13 -43 -48 -50 -32 -8 -41 -8
-95 -2 -20 2 -49 -2 -65 -8 -26 -11 -21 -12 40 -8 70 4 70 4 50 -18 -19 -22
-19 -23 -1 -16 11 4 29 0 42 -9 27 -17 33 -5 8 16 -19 16 5 39 41 39 38 0 57
36 36 69 -9 14 -82 26 -93 15z"/>
<path d="M817 1273 c-4 -3 -7 -11 -7 -17 0 -6 5 -5 12 2 6 6 9 14 7 17 -3 3
-9 2 -12 -2z"/>
<path d="M1560 1260 c0 -6 7 -10 15 -10 8 0 15 2 15 4 0 2 -7 6 -15 10 -8 3
-15 1 -15 -4z"/>
<path d="M1435 1250 c3 -5 8 -10 11 -10 2 0 4 5 4 10 0 6 -5 10 -11 10 -5 0
-7 -4 -4 -10z"/>
<path d="M1500 1251 c0 -4 11 -6 25 -3 14 2 25 6 25 8 0 2 -11 4 -25 4 -14 0
-25 -4 -25 -9z"/>
<path d="M1603 1253 c4 -3 10 -3 14 0 3 4 0 7 -7 7 -7 0 -10 -3 -7 -7z"/>
<path d="M1958 1215 c-3 -27 -5 -52 -3 -53 6 -7 45 9 45 18 0 5 -6 7 -14 4
-11 -4 -16 5 -18 38 -3 43 -3 43 -10 -7z"/>
<path d="M1510 1230 c-23 -7 -23 -8 -3 -9 12 -1 25 4 28 9 3 6 5 10 3 9 -2 -1
-14 -5 -28 -9z"/>
<path d="M2000 1217 c0 -15 3 -18 8 -9 5 7 16 10 25 6 9 -3 14 -11 10 -17 -3
-5 -1 -7 5 -3 6 3 13 2 17 -4 3 -5 2 -10 -3 -10 -8 0 -32 -43 -32 -58 0 -13
42 -7 80 11 30 14 32 16 11 17 -16 0 -21 4 -18 14 4 10 1 13 -9 9 -8 -3 -14 1
-14 9 0 19 -28 44 -57 51 -19 4 -23 1 -23 -16z m67 -64 c-4 -3 -7 0 -7 7 0 7
3 10 7 7 3 -4 3 -10 0 -14z"/>
<path d="M2705 1230 c3 -5 18 -10 33 -10 21 0 24 2 12 10 -20 13 -53 13 -45 0z"/>
<path d="M768 1216 c-24 -18 -23 -36 2 -36 15 0 20 7 20 25 0 29 1 29 -22 11z"/>
<path d="M802 1208 c5 -15 28 -23 28 -10 0 5 -7 13 -16 16 -10 4 -14 1 -12 -6z"/>
<path d="M1585 1198 c-11 -6 -29 -21 -40 -33 -25 -28 -62 -48 -74 -40 -5 3
-11 -1 -14 -7 -3 -10 -7 -10 -21 1 -15 13 -14 16 14 36 30 22 30 23 8 29 -36
9 -41 7 -35 -14 3 -11 1 -18 -3 -15 -18 11 -21 -17 -4 -36 28 -31 97 -14 133
34 12 17 14 17 32 1 21 -19 27 -6 7 14 -10 10 -8 14 10 18 12 4 22 10 22 15 0
12 -11 11 -35 -3z"/>
<path d="M2510 1196 c-6 -8 -18 -12 -25 -9 -8 3 -26 -4 -40 -15 -25 -20 -25
-21 -6 -31 16 -9 26 -4 62 29 24 22 38 40 32 40 -6 0 -16 -6 -23 -14z m-40
-36 c0 -5 -8 -10 -17 -10 -15 0 -16 2 -3 10 19 12 20 12 20 0z"/>
<path d="M1076 1182 c-3 -5 -49 -19 -102 -32 -54 -13 -92 -26 -85 -28 7 -2 32
1 57 8 79 22 106 -38 37 -84 -33 -23 -39 -24 -58 -12 -11 8 -19 20 -17 26 1 6
-2 8 -8 5 -6 -4 -9 -14 -5 -24 3 -9 -12 2 -34 23 -40 39 -41 39 -56 20 -8 -10
-15 -23 -15 -28 0 -6 6 -1 14 10 14 18 16 18 52 -16 21 -19 44 -40 51 -47 19
-17 16 -23 -9 -24 -18 -1 -16 -3 10 -12 26 -8 36 -7 41 2 6 10 16 8 42 -8 22
-13 42 -18 58 -14 25 6 25 7 5 -41 -6 -17 26 -30 40 -16 5 5 6 13 2 17 -4 4
-11 1 -15 -6 -5 -7 -11 -9 -14 -4 -3 5 -2 15 2 22 12 18 49 5 86 -30 22 -21
34 -26 45 -19 13 9 13 10 -1 10 -8 0 -26 11 -39 24 -12 14 -35 28 -51 31 -16
4 -29 11 -29 16 0 12 -6 13 74 -15 70 -25 103 -45 75 -47 -7 0 -1 -5 15 -9 29
-9 46 -6 46 9 0 19 -175 75 -235 76 -52 0 -61 3 -70 23 -5 12 -13 22 -18 22
-4 0 -5 5 -2 10 3 6 13 10 21 10 8 0 25 11 37 24 18 20 34 25 90 28 37 2 67 0
67 -4 0 -4 8 -8 19 -8 10 0 29 -8 42 -18 32 -25 57 -33 64 -22 4 6 -3 10 -14
10 -18 0 -55 36 -64 63 -3 9 -16 8 -56 -2 -39 -10 -56 -10 -64 -2 -14 14 -30
15 -22 1 9 -14 -29 -12 -43 2 -19 19 -14 31 9 25 16 -4 18 -3 9 8 -17 20 9 25
46 7 24 -11 38 -12 60 -4 28 10 27 10 -18 11 -27 1 -48 6 -48 11 0 6 10 10 22
10 27 0 21 5 -14 14 -15 3 -29 2 -32 -2z m138 -91 c4 -5 -3 -7 -14 -4 -23 6
-26 13 -6 13 8 0 17 -4 20 -9z m-289 -71 c3 -5 2 -10 -4 -10 -5 0 -13 5 -16
10 -3 6 -2 10 4 10 5 0 13 -4 16 -10z m352 -137 c-4 -3 -10 -3 -14 0 -3 4 0 7
7 7 7 0 10 -3 7 -7z"/>
<path d="M3300 1182 c0 -6 9 -20 21 -31 19 -18 19 -19 3 -16 -11 2 -23 4 -27
4 -5 1 -6 4 -3 9 2 4 -13 6 -35 4 -21 -2 -42 -8 -45 -13 -3 -5 8 -6 24 -3 16
3 49 -1 73 -9 53 -17 133 -12 125 8 -3 8 3 16 12 18 9 2 -11 2 -44 0 -54 -4
-64 -2 -83 18 -11 13 -21 18 -21 11z"/>
<path d="M940 1170 c-20 -13 5 -13 35 0 20 9 20 9 0 9 -11 0 -27 -4 -35 -9z"/>
<path d="M2200 1150 c0 -6 7 -10 15 -10 8 0 15 2 15 4 0 2 -7 6 -15 10 -8 3
-15 1 -15 -4z"/>
<path d="M1530 1110 c0 -7 3 -10 7 -7 3 4 3 10 0 14 -4 3 -7 0 -7 -7z"/>
<path d="M1880 1105 c0 -16 16 -20 24 -6 3 5 -1 11 -9 15 -9 3 -15 0 -15 -9z"/>
<path d="M443 1083 c4 -3 10 -3 14 0 3 4 0 7 -7 7 -7 0 -10 -3 -7 -7z"/>
<path d="M750 1060 c6 -11 12 -20 14 -20 2 0 2 9 -1 20 -3 11 -9 20 -15 20 -5
0 -4 -9 2 -20z"/>
<path d="M1972 1064 c-1 -6 -17 -19 -34 -28 -29 -14 -30 -16 -10 -16 13 0 21
-4 17 -9 -8 -13 8 -21 24 -12 8 5 11 21 8 42 -2 19 -5 29 -5 23z"/>
<path d="M2219 1029 c-33 -36 -38 -55 -10 -39 29 15 32 13 19 -15 -11 -25 -58
-52 -132 -78 -22 -7 -41 -20 -43 -28 -2 -9 -1 -10 3 -1 3 6 12 12 19 12 35 0
182 65 205 90 14 16 35 31 48 35 12 3 22 11 22 16 0 12 -17 12 -25 -1 -9 -15
-25 -12 -25 5 0 19 -5 19 -35 -1 -28 -18 -37 0 -13 24 7 7 8 12 4 12 -4 0 -21
-14 -37 -31z m36 -68 c-3 -6 -11 -11 -17 -11 -6 0 -6 6 2 15 14 17 26 13 15
-4z"/>
<path d="M2320 1056 c0 -2 7 -6 15 -10 8 -3 15 -1 15 4 0 6 -7 10 -15 10 -8 0
-15 -2 -15 -4z"/>
<path d="M3442 996 c-7 -28 -12 -67 -12 -85 0 -33 0 -33 -63 25 -63 59 -63 59
-34 68 22 7 36 5 60 -9 32 -18 32 -18 10 6 -18 18 -31 22 -65 20 -69 -4 -66
-14 21 -97 44 -43 81 -83 81 -91 0 -7 11 -13 24 -13 28 0 93 -100 122 -185 25
-76 47 -126 51 -121 3 2 -3 18 -11 35 -20 37 -20 42 -1 35 13 -5 -11 47 -66
147 -7 13 -15 35 -16 49 -2 29 -54 75 -64 58 -10 -15 -29 0 -22 17 3 9 1 21
-4 28 -5 6 -7 36 -5 65 4 47 5 51 18 35 7 -10 14 -13 14 -6 0 6 -5 15 -10 18
-6 4 -8 15 -5 25 3 10 2 21 -2 23 -5 3 -14 -18 -21 -47z m89 -204 c11 -29 5
-28 -16 4 -11 17 -12 25 -4 22 6 -2 16 -14 20 -26z"/>
<path d="M1812 1028 c-6 -8 -13 -25 -14 -38 -4 -34 28 -39 36 -6 4 17 14 26
34 29 26 4 26 4 -5 6 -17 0 -33 6 -35 12 -2 7 -8 6 -16 -3z m11 -23 c-3 -9 -8
-14 -10 -11 -3 3 -2 9 2 15 9 16 15 13 8 -4z"/>
<path d="M2105 987 c-49 -52 -49 -51 0 -52 40 0 40 0 40 47 0 27 0 48 0 48 0
-1 -18 -20 -40 -43z"/>
<path d="M1022 1000 c7 -11 16 -20 20 -20 5 0 3 9 -4 20 -7 11 -16 20 -20 20
-5 0 -3 -9 4 -20z"/>
<path d="M2083 1013 c4 -3 10 -3 14 0 3 4 0 7 -7 7 -7 0 -10 -3 -7 -7z"/>
<path d="M1910 976 c0 -13 -7 -29 -15 -36 -9 -7 -14 -15 -12 -17 8 -8 64 52
60 65 -8 22 -33 13 -33 -12z"/>
<path d="M1330 974 c0 -8 5 -12 10 -9 6 4 8 11 5 16 -9 14 -15 11 -15 -7z"/>
<path d="M3115 954 c-9 -14 -15 -26 -13 -27 2 -1 18 -10 36 -19 18 -10 32 -13
32 -7 0 6 -9 13 -21 16 -17 5 -20 11 -15 34 7 36 3 36 -19 3z"/>
<path d="M1708 963 c-10 -2 -18 -9 -18 -14 0 -13 13 -11 36 6 19 14 14 17 -18
8z"/>
<path d="M1728 931 c-41 -26 -92 -91 -71 -91 5 0 14 14 21 30 17 37 51 58 63
39 4 -7 5 -17 3 -21 -3 -4 7 -8 22 -8 47 0 13 -19 -38 -21 -26 -2 -45 -6 -43
-9 2 -4 -2 -16 -10 -26 -26 -34 -15 -40 11 -6 14 18 31 32 37 31 34 -4 56 4
85 31 22 19 28 30 18 30 -10 0 -13 6 -10 15 4 10 0 15 -14 15 -11 0 -22 5 -24
10 -2 6 -24 -3 -50 -19z m62 -15 c0 -9 -30 -14 -35 -6 -4 6 3 10 14 10 12 0
21 -2 21 -4z"/>
<path d="M960 941 c0 -5 5 -13 10 -16 6 -3 10 -2 10 4 0 5 -4 13 -10 16 -5 3
-10 2 -10 -4z"/>
<path d="M1640 930 c0 -7 3 -10 7 -7 3 4 3 10 0 14 -4 3 -7 0 -7 -7z"/>
<path d="M3042 852 c-23 -49 -42 -98 -42 -109 0 -10 -18 -36 -40 -57 -40 -37
-40 -37 -95 -26 -30 6 -57 15 -60 20 -16 26 85 180 118 180 2 0 -9 -36 -24
-81 -16 -44 -29 -88 -28 -97 0 -9 16 28 36 83 19 55 42 108 51 118 24 27 2 19
-57 -21 -58 -40 -58 -39 -94 -123 -24 -55 -25 -56 -74 -63 -65 -8 -90 -35
-104 -112 -10 -51 -49 -120 -49 -86 0 7 -5 12 -11 12 -8 0 -8 -4 0 -13 8 -10
2 -34 -24 -96 -19 -45 -35 -89 -35 -96 0 -8 -8 -16 -19 -20 -19 -6 -60 -45
-47 -45 4 0 18 7 31 16 18 12 25 13 25 4 0 -9 3 -10 14 -1 11 9 15 7 19 -11
10 -38 60 -88 102 -103 29 -10 73 -12 165 -8 144 6 171 13 51 13 -82 0 -82 0
-49 30 26 24 77 46 55 23 -9 -8 86 -41 144 -49 40 -5 189 20 189 33 0 7 -95
-9 -108 -19 -45 -37 -263 47 -224 86 4 4 8 31 8 59 1 53 9 143 20 234 4 32 2
58 -6 70 -9 15 -10 13 -7 -17 4 -32 -9 -88 -22 -100 -19 -16 -60 -80 -52 -80
6 0 22 17 36 38 27 37 27 37 20 -27 -8 -68 -25 -94 -72 -107 -13 -3 -23 -10
-23 -15 0 -14 12 -11 48 11 37 23 46 25 36 8 -4 -7 -7 -29 -5 -49 2 -44 -32
-90 -91 -120 -69 -35 -152 -2 -190 76 -22 45 -22 45 0 87 12 24 22 37 22 31 0
-21 76 -65 127 -74 51 -10 103 -4 103 12 0 6 -8 6 -19 -1 -11 -5 -29 -10 -39
-10 -20 0 -20 1 -2 38 28 58 49 169 30 157 -5 -3 -10 -17 -10 -31 0 -28 -35
-133 -49 -147 -14 -14 -99 22 -121 51 -11 14 -20 36 -19 51 1 26 1 26 8 2 3
-13 25 -39 47 -57 40 -34 40 -34 41 -1 1 17 3 51 4 74 3 28 -2 47 -13 60 -35
40 -30 146 9 184 25 25 105 32 150 14 19 -8 43 -15 53 -15 14 0 19 -11 22 -51
6 -64 30 -96 97 -133 110 -59 239 -42 255 35 10 51 7 84 -10 105 -15 19 -16
19 -8 -1 12 -29 10 -95 -3 -103 -11 -7 -13 -12 -13 -30 0 -14 -48 -32 -83 -32
-156 0 -273 138 -192 226 25 27 25 27 25 1 0 -26 79 -107 105 -107 7 0 15 -7
19 -15 3 -8 13 -15 23 -14 16 0 16 1 -2 9 -15 7 -11 8 20 8 22 0 32 -2 23 -5
-27 -7 -22 -22 5 -16 17 5 20 3 10 -7 -17 -18 -76 -5 -112 25 -16 14 -34 25
-41 25 -22 0 47 -49 90 -64 43 -15 45 -14 78 10 18 15 31 28 28 31 -3 3 -12 0
-21 -7 -8 -7 -15 -8 -15 -2 0 5 9 16 20 23 55 37 18 115 -71 148 -18 7 -47 20
-62 28 -22 12 -31 12 -42 3 -27 -22 -17 16 25 107 23 47 39 90 38 95 -2 6 -23
-30 -46 -80z m28 -142 c0 -5 7 -10 15 -10 21 0 88 -35 103 -53 7 -8 15 -28 18
-45 15 -73 -123 -66 -190 9 -45 50 -46 75 -3 94 38 17 57 19 57 5z m-419 -252
c34 -41 16 -138 -22 -117 -29 15 -44 85 -24 115 19 30 22 30 46 2z m-96 -114
c-8 -20 -15 -39 -15 -42 0 -3 -2 -3 -5 0 -6 5 22 78 30 78 3 0 -2 -16 -10 -36z
m-28 -81 c-4 -3 -7 0 -7 7 0 7 3 10 7 7 3 -4 3 -10 0 -14z"/>
<path d="M3043 693 c4 -3 10 -3 14 0 3 4 0 7 -7 7 -7 0 -10 -3 -7 -7z"/>
<path d="M2613 455 c-3 -9 -3 -18 -1 -21 3 -3 8 4 11 16 6 23 -1 27 -10 5z"/>
<path d="M360 920 c0 -6 7 -13 15 -17 24 -9 27 1 5 15 -13 8 -20 8 -20 2z"/>
<path d="M142 896 c-4 -36 -62 -142 -103 -184 -23 -24 -38 -46 -35 -50 8 -7
39 28 102 119 37 54 45 72 41 100 -2 19 -5 26 -5 15z"/>
<path d="M1180 900 c0 -5 5 -10 11 -10 5 0 7 5 4 10 -3 6 -8 10 -11 10 -2 0
-4 -4 -4 -10z"/>
<path d="M1511 881 c-9 -6 -5 -10 14 -15 33 -9 44 -1 18 12 -11 6 -25 7 -32 3z"/>
<path d="M1577 884 c-8 -8 1 -24 14 -24 5 0 9 7 9 15 0 15 -12 20 -23 9z"/>
<path d="M3190 881 c0 -11 28 -43 51 -57 8 -5 39 -38 69 -74 43 -50 48 -60 24
-43 -17 12 -37 29 -44 38 -7 8 -17 15 -22 15 -20 0 51 -59 96 -80 38 -18 68
-40 54 -40 -7 0 -104 28 -123 35 -19 7 -19 7 -4 -9 9 -10 46 -22 87 -29 90
-16 97 -23 30 -34 -46 -7 -54 -6 -60 9 -9 21 -18 23 -18 4 0 -18 128 -208 232
-343 45 -60 107 -141 137 -181 30 -39 56 -70 59 -67 5 5 -57 90 -164 225 -88
112 -238 329 -231 336 3 3 30 6 60 7 30 1 50 5 44 9 -7 4 15 5 48 3 53 -3 55
-3 15 4 -63 10 -98 31 -155 92 -28 29 -76 79 -107 111 -31 33 -57 61 -58 64
-6 11 -20 14 -20 5z"/>
<path d="M3492 870 c7 -11 18 -20 25 -20 19 0 16 6 -12 24 -25 17 -25 16 -13
-4z"/>
<path d="M577 866 c-4 -10 -1 -13 9 -9 15 6 19 23 5 23 -5 0 -11 -7 -14 -14z"/>
<path d="M1310 850 c0 -7 3 -10 7 -7 3 4 3 10 0 14 -4 3 -7 0 -7 -7z"/>
<path d="M1458 853 c-32 -8 -19 -22 16 -16 19 3 36 1 40 -5 8 -13 66 4 66 19
0 13 -14 11 -28 -3 -9 -9 -15 -9 -24 0 -12 12 -37 14 -70 5z"/>
<path d="M3655 850 c3 -5 8 -10 11 -10 3 0 2 5 -1 10 -3 6 -8 10 -11 10 -3 0
-2 -4 1 -10z"/>
<path d="M1600 811 c0 -25 6 -27 13 -6 4 8 2 17 -3 20 -6 4 -10 -3 -10 -14z"/>
<path d="M3156 816 c6 -17 93 -90 99 -84 2 2 -21 25 -51 51 -29 27 -51 41 -48
33z"/>
<path d="M3592 734 c21 -20 41 -46 44 -58 4 -12 33 -49 66 -84 32 -35 70 -81
85 -103 14 -21 27 -39 29 -39 15 0 -6 32 -74 112 -43 51 -88 111 -101 133 -12
22 -36 48 -54 59 -32 18 -32 18 5 -20z"/>
<path d="M1583 743 c15 -2 37 -2 50 0 12 2 0 4 -28 4 -27 0 -38 -2 -22 -4z"/>
<path d="M840 670 c0 -5 5 -10 10 -10 6 0 10 5 10 10 0 6 -4 10 -10 10 -5 0
-10 -4 -10 -10z"/>
<path d="M1064 669 c21 -13 122 -38 151 -38 11 0 -11 8 -50 18 -38 10 -81 21
-95 25 -22 6 -23 6 -6 -5z"/>
<path d="M0 640 c0 -7 3 -10 7 -7 3 4 3 10 0 14 -4 3 -7 0 -7 -7z"/>
<path d="M350 640 c-8 -4 -26 -13 -40 -19 -14 -7 -43 -22 -65 -35 -45 -25 -95
-41 -95 -29 0 5 12 16 28 25 17 11 21 18 11 18 -19 0 -44 -27 -53 -57 -4 -11
-18 -28 -31 -37 -14 -9 -25 -21 -25 -27 0 -8 5 -7 15 1 20 17 20 -5 0 -40 -16
-28 -19 -50 -7 -50 4 0 13 20 20 45 12 44 74 105 108 105 7 0 29 13 47 30 19
16 36 28 38 26 2 -3 20 9 39 25 35 28 38 35 10 19z"/>
<path d="M1248 623 c6 -2 18 -2 25 0 6 3 1 5 -13 5 -14 0 -19 -2 -12 -5z"/>
<path d="M1313 613 c9 -2 23 -2 30 0 6 3 -1 5 -18 5 -16 0 -22 -2 -12 -5z"/>
<path d="M2560 565 c-6 -16 -28 -44 -48 -62 -28 -26 -32 -33 -17 -31 25 4 29
-34 7 -79 -11 -24 -18 -30 -25 -21 -7 10 -8 9 -4 -2 2 -8 0 -26 -5 -40 -9 -25
-9 -25 -23 7 -11 25 -18 31 -32 26 -17 -7 -17 -8 1 -11 21 -4 16 -80 -7 -94
-6 -4 -8 -10 -5 -13 11 -11 28 5 28 26 0 10 6 19 13 19 11 0 26 19 71 93 19
32 38 117 25 117 -5 0 -9 -7 -9 -16 0 -9 -5 -12 -12 -8 -8 5 -3 14 15 28 25
21 52 74 43 84 -3 3 -10 -8 -16 -23z"/>
<path d="M2930 575 c7 -9 15 -13 17 -11 7 7 -7 26 -19 26 -6 0 -6 -6 2 -15z"/>
<path d="M2973 552 c19 -20 23 -37 7 -27 -5 3 -7 0 -4 -8 9 -23 35 -17 28 7
-8 27 -24 46 -37 46 -5 0 -3 -8 6 -18z"/>
<path d="M1465 540 c-3 -5 -1 -10 4 -10 6 0 11 -6 11 -12 0 -7 13 -22 27 -33
27 -19 27 -19 5 17 -21 34 -21 37 -5 41 12 3 9 5 -9 6 -15 0 -30 -3 -33 -9z"/>
<path d="M3546 505 c41 -42 154 -221 154 -243 0 -11 94 -169 111 -186 18 -19
9 10 -14 44 -13 19 -52 89 -87 155 -34 66 -72 134 -83 150 -40 58 -100 125
-112 125 -6 0 8 -20 31 -45z"/>
<path d="M3656 538 c41 -71 166 -239 173 -233 2 3 -22 40 -55 82 -33 43 -72
97 -88 121 -26 38 -47 60 -30 30z"/>
<path d="M1410 526 c-16 -9 -70 -15 -147 -17 -107 -4 -123 -6 -123 -21 0 -31
19 -68 35 -68 15 0 15 1 1 16 -32 31 -20 54 29 56 25 1 53 2 63 2 11 1 18 -8
20 -26 3 -22 -1 -28 -17 -28 -10 0 -26 -3 -34 -6 -8 -3 -24 5 -36 17 -12 13
-21 18 -21 12 0 -21 36 -41 71 -38 49 3 56 9 51 45 -4 29 -3 30 34 28 34 -1
104 24 104 37 0 7 -1 6 -30 -9z"/>
<path d="M255 478 c-9 -29 -22 -59 -27 -66 -6 -7 -8 -15 -5 -19 7 -6 42 70 53
113 11 45 -4 24 -21 -28z"/>
<path d="M1550 505 c7 -9 15 -13 17 -11 7 7 -7 26 -19 26 -6 0 -6 -6 2 -15z"/>
<path d="M1594 485 c11 -8 22 -12 25 -9 6 6 -19 24 -34 24 -5 -1 -1 -7 9 -15z"/>
<path d="M2360 470 c0 -4 9 -10 20 -13 13 -3 20 -14 20 -30 0 -14 5 -29 10
-32 13 -8 13 18 -1 49 -11 23 -49 44 -49 26z"/>
<path d="M1485 460 c3 -5 14 -10 23 -10 15 0 15 2 2 10 -20 13 -33 13 -25 0z"/>
<path d="M1555 460 c-16 -7 -17 -9 -3 -9 9 -1 20 4 23 9 7 11 7 11 -20 0z"/>
<path d="M2443 463 c4 -3 10 -3 14 0 3 4 0 7 -7 7 -7 0 -10 -3 -7 -7z"/>
<path d="M3253 445 c-7 -8 -13 -34 -13 -58 0 -31 -8 -56 -25 -81 -14 -20 -25
-40 -25 -44 0 -3 -19 -26 -42 -49 -23 -24 -38 -43 -32 -43 31 0 132 148 136
198 3 39 15 42 24 6 4 -17 1 -37 -10 -54 -23 -39 -20 -48 5 -16 16 20 20 36
16 61 -4 27 -3 33 9 28 11 -4 9 4 -7 31 -11 20 -22 36 -22 36 -1 -1 -8 -7 -14
-15z"/>
<path d="M853 443 c4 -3 10 -3 14 0 3 4 0 7 -7 7 -7 0 -10 -3 -7 -7z"/>
<path d="M1818 435 c-6 -11 10 -61 17 -53 2 2 1 17 -3 33 -5 16 -11 25 -14 20z"/>
<path d="M504 418 c-4 -7 -3 -8 4 -4 12 7 16 16 8 16 -3 0 -8 -5 -12 -12z"/>
<path d="M3815 420 c3 -5 8 -10 11 -10 3 0 2 5 -1 10 -3 6 -8 10 -11 10 -3 0
-2 -4 1 -10z"/>
<path d="M1506 392 c-19 -27 -19 -27 5 -5 12 12 21 24 18 27 -2 2 -13 -8 -23
-22z"/>
<path d="M2360 416 c0 -2 7 -9 15 -16 13 -11 14 -10 9 4 -5 14 -24 23 -24 12z"/>
<path d="M2900 390 c0 -7 3 -10 7 -7 3 4 3 10 0 14 -4 3 -7 0 -7 -7z"/>
<path d="M1509 344 c-23 -25 -23 -26 -2 -13 13 7 25 19 27 26 8 19 2 16 -25
-13z"/>
<path d="M2887 328 c-12 -86 20 -137 90 -145 51 -5 66 -11 58 -23 -4 -6 5 -5
22 2 50 21 48 28 -7 29 -121 3 -153 29 -151 123 0 67 -4 72 -12 14z"/>
<path d="M421 344 c0 -11 3 -14 6 -6 3 7 2 16 -1 19 -3 4 -6 -2 -5 -13z"/>
<path d="M1006 307 c-55 -48 -62 -51 -115 -52 -97 -1 -126 -17 -139 -76 -16
-66 -13 -69 68 -69 79 0 96 11 106 68 5 28 23 55 77 110 84 85 85 92 3 19z
m-184 -84 c-43 -42 -52 -47 -52 -26 0 12 11 23 28 30 40 16 44 15 24 -4z m53
-33 c-27 -27 -44 -50 -37 -50 7 0 12 5 12 11 0 5 4 8 9 4 6 -3 15 4 21 15 6
11 15 20 20 20 12 0 13 -30 2 -47 -10 -15 -138 -27 -146 -14 -12 18 103 111
137 111 31 0 31 0 -18 -50z"/>
<path d="M2794 345 c-10 -8 -14 -15 -8 -15 5 0 19 7 30 15 10 8 14 15 8 15 -5
0 -19 -7 -30 -15z"/>
<path d="M3332 340 c14 -22 24 -19 15 5 -4 8 -11 15 -17 15 -6 0 -6 -7 2 -20z"/>
<path d="M3613 353 c4 -3 10 -3 14 0 3 4 0 7 -7 7 -7 0 -10 -3 -7 -7z"/>
<path d="M1160 323 c8 -2 22 -7 30 -10 8 -3 44 -7 80 -10 36 -3 87 -10 113
-17 49 -12 49 -12 -48 -92 -54 -43 -131 -105 -172 -136 -41 -32 -69 -58 -63
-58 17 0 62 33 155 113 111 96 193 157 209 157 10 0 17 -17 21 -55 5 -35 11
-52 18 -48 6 4 43 6 83 6 72 0 72 0 67 38 -6 38 -6 38 33 33 61 -9 106 -25
128 -46 12 -11 44 -35 71 -53 28 -19 70 -48 95 -65 24 -17 50 -43 56 -58 9
-20 13 -22 13 -9 1 25 -17 57 -32 57 -7 0 -49 29 -94 63 -45 34 -90 67 -100
73 -10 7 -15 15 -11 19 4 4 15 2 23 -5 9 -7 45 -15 81 -17 58 -3 70 -8 122
-47 79 -61 129 -116 106 -116 -28 0 -5 -15 25 -16 26 0 25 2 -25 50 -28 28
-71 68 -95 89 -46 39 -43 42 28 22 10 -3 5 1 -12 9 -16 7 -59 16 -95 20 -36 3
-84 10 -108 16 -24 6 -48 8 -53 5 -5 -4 -24 -2 -42 4 -32 10 -235 40 -312 47
-22 2 -51 6 -65 10 -74 17 -271 41 -230 27z m440 -72 c27 -5 36 -12 38 -31 4
-25 4 -25 -20 -2 -33 30 -47 28 -18 -3 27 -28 17 -36 -40 -31 -19 2 -41 4 -47
5 -7 1 -13 5 -13 11 0 6 9 6 26 -1 26 -9 26 -9 -5 20 -56 52 -46 56 79 32z"/>
<path d="M404 308 c-4 -7 -3 -8 4 -4 12 7 16 16 8 16 -3 0 -8 -5 -12 -12z"/>
<path d="M3330 304 c0 -5 10 -18 23 -29 21 -18 64 -95 68 -120 1 -5 9 -21 18
-35 9 -14 28 -46 42 -72 13 -27 30 -48 38 -48 12 0 11 3 -1 18 -9 9 -41 67
-72 127 -31 61 -62 117 -69 125 -18 23 -47 44 -47 34z"/>
<path d="M1190 282 c0 -14 52 -63 59 -57 2 3 -10 19 -27 36 -18 17 -32 27 -32
21z"/>
<path d="M3830 280 c0 -7 3 -10 7 -7 3 4 3 10 0 14 -4 3 -7 0 -7 -7z"/>
<path d="M1279 223 c4 -47 6 -52 11 -28 9 43 7 78 -5 82 -6 2 -8 -19 -6 -54z"/>
<path d="M1135 211 c5 -35 3 -51 -4 -51 -6 0 -11 -7 -11 -15 0 -13 7 -15 38
-9 53 9 75 24 27 17 -40 -5 -40 -5 -40 31 0 20 1 36 2 36 1 0 22 -9 47 -20 25
-10 46 -16 46 -12 0 5 -16 14 -36 21 -20 7 -45 22 -56 33 -20 20 -20 20 -13
-31z"/>
<path d="M2650 247 c8 -9 35 -19 60 -21 45 -6 45 -6 -1 8 -26 7 -53 17 -60 21
-10 6 -10 3 1 -8z"/>
<path d="M385 224 c-4 -16 -13 -50 -20 -76 -7 -27 -10 -48 -6 -48 9 0 43 141
37 148 -3 2 -8 -9 -11 -24z"/>
<path d="M3445 240 c3 -5 8 -10 11 -10 3 0 2 5 -1 10 -3 6 -8 10 -11 10 -3 0
-2 -4 1 -10z"/>
<path d="M544 222 c3 -10 0 -38 -7 -62 -13 -45 -13 -45 -87 -51 -75 -6 -75 -6
4 -5 79 1 79 1 97 63 9 34 14 64 11 67 -12 13 -23 5 -18 -12z"/>
<path d="M2715 200 c3 -5 8 -10 11 -10 3 0 2 5 -1 10 -3 6 -8 10 -11 10 -3 0
-2 -4 1 -10z"/>
<path d="M3312 153 c2 -5 19 -41 37 -80 19 -40 37 -73 42 -73 10 0 -1 31 -35
99 -19 36 -22 51 -13 54 6 3 2 6 -11 6 -13 1 -22 -2 -20 -6z"/>
<path d="M3368 153 c7 -3 16 -2 19 1 4 3 -2 6 -13 5 -11 0 -14 -3 -6 -6z"/>
<path d="M1650 130 c0 -7 3 -10 7 -7 3 4 3 10 0 14 -4 3 -7 0 -7 -7z"/>
<path d="M2590 112 c0 -5 7 -15 15 -22 8 -7 15 -8 15 -2 0 5 -7 15 -15 22 -8
7 -15 8 -15 2z"/>
<path d="M3098 108 c22 -22 12 -26 -35 -12 -25 8 -48 12 -51 10 -4 -5 77 -31
93 -30 6 1 22 -14 35 -32 41 -55 42 -38 2 21 -20 30 -41 54 -46 55 -6 0 -5 -5
2 -12z"/>
<path d="M2394 83 c4 -23 -10 -28 -64 -25 -8 0 -22 -4 -31 -8 -11 -7 -26 -2
-49 15 -40 29 -51 26 -21 -6 11 -12 23 -31 27 -41 3 -10 10 -18 15 -18 6 0 6
8 -1 20 -7 14 -7 20 0 20 5 0 10 -4 10 -10 0 -5 5 -10 11 -10 5 0 7 5 4 10 -3
5 -3 10 2 11 79 9 104 7 110 -7 3 -9 0 -20 -8 -25 -10 -6 -8 -8 9 -6 24 1 23
12 -4 72 -10 22 -13 24 -10 8z"/>
<path d="M2720 83 c-110 -16 -116 -20 -99 -56 7 -15 16 -27 21 -27 5 0 3 10
-3 22 -16 30 11 48 72 48 42 0 48 -3 59 -30 7 -17 15 -28 18 -25 6 6 -30 76
-38 74 -3 -1 -16 -3 -30 -6z"/>
<path d="M2956 75 c3 -8 10 -15 15 -15 5 0 18 -9 29 -20 15 -15 20 -16 20 -6
0 8 10 17 23 19 14 3 10 5 -13 6 -20 0 -45 8 -58 16 -20 14 -21 14 -16 0z"/>
<path d="M1893 55 c34 -30 34 -39 2 -31 -19 5 -23 3 -19 -8 4 -11 12 -12 33
-5 18 6 37 6 54 0 40 -15 33 -4 -11 18 -21 11 -44 27 -51 35 -8 9 -19 16 -25
16 -6 0 1 -12 17 -25z"/>
<path d="M3330 44 c0 -6 7 -19 15 -30 8 -10 14 -15 14 -9 0 6 -6 19 -14 29 -8
11 -15 15 -15 10z"/>
<path d="M2293 3 c4 -3 10 -3 14 0 3 4 0 7 -7 7 -7 0 -10 -3 -7 -7z"/>
</g>
</svg>
