<?xml version="1.0" standalone="no"?>
<!DOCTYPE svg PUBLIC "-//W3C//DTD SVG 20010904//EN"
 "http://www.w3.org/TR/2001/REC-SVG-20010904/DTD/svg10.dtd">
<svg version="1.0" xmlns="http://www.w3.org/2000/svg"
 width="344.000000pt" height="256.000000pt" viewBox="0 0 344.000000 256.000000"
 preserveAspectRatio="xMidYMid meet">
<metadata>
Created by potrace 1.16, written by Peter Selinger 2001-2019
</metadata>
<g transform="translate(0.000000,256.000000) scale(0.100000,-0.100000)"
fill="#000000" stroke="none">
<path d="M980 2068 c0 -27 -21 -88 -30 -88 -16 0 -11 46 5 60 29 24 15 31 -15
8 -32 -25 -76 -104 -72 -129 2 -13 -9 -18 -51 -23 -77 -10 -102 -29 -57 -45
21 -7 37 -8 43 -2 6 6 4 9 -4 8 -8 0 -23 1 -34 2 -40 3 8 21 58 21 26 0 47 4
47 9 0 5 7 12 15 15 19 7 12 -7 -28 -54 -26 -31 -30 -32 -67 -22 -49 12 -43
-3 7 -17 31 -9 38 -7 53 12 28 34 32 16 11 -39 -97 -245 -93 -223 -44 -271 36
-37 36 -37 45 -13 5 13 14 31 21 39 7 10 4 9 -10 -2 -16 -14 -22 -15 -27 -5
-3 7 -3 2 0 -12 5 -25 5 -24 -21 5 -19 22 -24 37 -21 57 8 43 77 222 92 239 8
8 14 21 14 27 0 6 7 9 15 6 10 -4 15 0 15 12 0 11 -4 15 -8 9 -4 -5 -15 -11
-26 -12 -13 -1 -15 2 -7 10 6 6 11 27 11 47 0 39 14 68 24 52 3 -6 1 -23 -5
-39 -14 -37 3 -19 30 32 12 22 21 34 21 28 0 -25 42 -26 61 -2 20 26 25 69 8
69 -5 0 -8 -4 -5 -9 11 -18 -19 -71 -34 -61 -10 7 -11 10 -2 10 7 0 12 13 12
34 0 33 0 33 143 30 78 -2 187 -8 242 -14 55 -6 184 -14 288 -19 152 -6 190
-11 205 -24 10 -10 55 -33 99 -52 86 -37 159 -44 293 -26 40 6 19 8 -80 7
-141 -1 -234 22 -295 75 -29 25 -64 29 -246 34 -90 2 -186 9 -214 15 -75 18
-475 24 -475 8z m-60 -72 c0 -3 -5 -8 -12 -12 -7 -4 -8 -3 -4 4 7 12 16 16 16
8z m-23 -58 c-3 -8 -6 -5 -6 6 -1 11 2 17 5 13 3 -3 4 -12 1 -19z"/>
<path d="M2724 2058 c-4 -7 -3 -8 4 -4 7 4 12 9 12 12 0 8 -9 4 -16 -8z"/>
<path d="M732 2014 c10 -10 20 -15 24 -12 3 4 -5 12 -18 18 -22 12 -22 12 -6
-6z"/>
<path d="M2648 2013 c12 -2 30 -2 40 0 9 3 -1 5 -23 4 -22 0 -30 -2 -17 -4z"/>
<path d="M1501 1944 c0 -28 -5 -74 -11 -102 -11 -60 34 -209 95 -310 43 -70
46 -62 5 11 -66 117 -104 278 -81 339 4 13 5 43 1 68 -7 45 -7 45 -9 -6z"/>
<path d="M2674 1965 c-10 -8 -29 -15 -41 -15 -12 0 -25 -5 -28 -10 -9 -15 43
-1 73 18 30 19 61 9 180 -56 112 -62 139 -99 161 -219 7 -33 -13 -198 -28
-240 -1 -2 -1 -15 -1 -29 0 -20 -4 -25 -16 -20 -45 17 16 -101 98 -191 33 -38
38 -49 38 -93 0 -52 21 -133 65 -249 28 -73 27 -79 -9 -56 -24 16 -26 16 -26
1 0 -9 7 -16 15 -16 8 0 15 -4 15 -10 0 -5 -7 -10 -15 -10 -15 0 -24 27 -50
147 -19 95 -33 125 -87 198 -71 94 -209 237 -224 231 -8 -3 -14 0 -14 6 0 6
-3 8 -6 5 -4 -3 -15 -2 -25 4 -22 11 -23 6 -8 -22 5 -11 15 -17 20 -13 7 4 10
-5 8 -22 -1 -16 0 -36 3 -44 6 -17 28 -103 36 -140 5 -25 5 -25 -22 5 -15 17
-25 25 -22 18 13 -24 -13 -22 -31 3 -19 25 -19 25 -15 -15 4 -40 4 -40 29 -24
18 12 27 13 36 4 8 -8 8 -11 -2 -11 -7 0 -9 -5 -6 -10 4 -6 10 -8 15 -5 12 7
-69 -165 -86 -186 -16 -18 -19 -33 -4 -24 5 3 2 -15 -8 -41 -13 -37 -18 -42
-20 -24 -2 12 1 27 7 33 18 18 13 28 -7 16 -12 -7 -17 -22 -16 -42 3 -35 -4
-57 -17 -57 -6 0 -4 10 2 23 7 12 -13 -1 -44 -30 -31 -29 -59 -53 -64 -53 -4
0 18 25 50 55 50 48 63 67 55 78 -2 2 4 14 13 27 8 14 28 58 43 99 33 92 30
128 -25 319 -41 140 -45 156 -29 132 5 -8 10 -10 10 -5 0 42 -32 40 -98 -4
-181 -124 -397 -143 -608 -55 -47 20 -127 18 -153 -3 -21 -18 -21 -19 -5 -123
9 -58 17 -134 18 -170 2 -36 11 -93 21 -128 10 -34 15 -65 11 -69 -3 -3 -7 2
-7 13 -1 10 -5 1 -8 -20 -3 -22 -12 -41 -20 -44 -8 -3 -11 -1 -9 4 11 19 -13
146 -52 277 -23 76 -40 143 -37 150 2 6 -2 18 -10 25 -7 7 -13 22 -13 32 0 10
-4 22 -10 25 -5 3 -10 -2 -10 -12 -1 -26 -37 22 -45 59 -4 15 -19 37 -35 48
-16 11 -49 51 -74 88 -51 76 -141 156 -230 203 -34 18 -73 43 -89 55 -27 23
-57 23 -57 0 0 -14 -26 -40 -124 -126 -43 -38 -79 -78 -86 -97 -6 -18 -20 -35
-31 -38 -19 -6 -27 -25 -11 -25 12 0 45 37 57 64 5 12 42 51 80 85 39 35 84
76 102 93 31 29 31 29 41 1 10 -28 10 -28 11 0 1 16 4 27 9 25 73 -33 158 -86
199 -122 52 -47 52 -47 27 -73 -13 -14 -22 -29 -18 -32 3 -3 15 6 26 22 27 37
30 36 82 -40 26 -38 56 -80 67 -95 21 -26 21 -26 -33 -95 -91 -114 -102 -144
-69 -197 11 -17 29 -64 40 -105 11 -40 24 -78 29 -85 5 -6 16 -30 25 -53 17
-43 17 -43 -13 -43 -17 0 -30 -4 -30 -9 0 -5 -3 -16 -6 -24 -3 -9 6 -26 23
-42 18 -18 22 -25 11 -22 -10 4 -18 2 -18 -3 0 -22 40 -8 69 25 17 19 38 35
46 35 9 0 13 5 9 11 -3 6 -1 21 6 34 16 30 7 53 -25 65 -14 5 -25 14 -25 20 0
5 -11 20 -24 31 -13 12 -27 32 -30 45 -4 13 -11 24 -16 24 -11 0 -3 -26 17
-55 7 -11 13 -26 13 -35 -1 -31 -28 21 -56 108 -38 120 -38 175 1 216 16 17
29 34 28 38 -2 4 3 5 10 2 7 -2 21 2 32 10 19 14 19 15 -5 10 -14 -2 -19 -2
-12 2 6 3 10 10 7 14 -3 5 0 12 6 16 8 4 9 3 5 -4 -4 -7 -3 -12 3 -12 5 0 12
6 14 13 4 7 6 6 6 -4 1 -9 8 -19 16 -23 23 -8 18 -32 -10 -50 -27 -18 -35 -7
-10 14 8 7 15 17 15 23 0 5 -15 -6 -34 -26 -18 -20 -37 -33 -41 -29 -5 4 -6 3
-3 -3 3 -5 0 -26 -8 -45 -7 -19 -13 -29 -13 -22 -1 7 -6 10 -12 6 -7 -4 -7 -9
-2 -13 12 -7 25 -83 13 -76 -4 3 -6 -4 -3 -16 4 -13 8 -17 13 -9 4 7 12 -2 20
-22 16 -40 80 -131 88 -124 2 3 -6 20 -20 38 -64 84 -94 176 -72 219 13 27
120 116 128 108 2 -2 18 -56 36 -119 18 -63 37 -123 42 -133 26 -50 38 -164
21 -212 -20 -61 -84 -105 -152 -106 -32 0 -40 -3 -27 -8 12 -4 21 -20 23 -37
5 -38 23 -51 92 -64 31 -6 67 -15 81 -20 14 -5 44 -14 68 -20 38 -10 59 -30
30 -30 -6 0 -33 -14 -59 -30 -47 -31 -47 -31 -195 -26 -194 6 -386 35 -444 66
-33 18 -108 22 -136 7 -25 -13 -24 -14 63 -46 48 -17 104 -43 123 -56 19 -13
67 -36 105 -50 39 -14 96 -39 128 -56 53 -28 58 -29 63 -12 13 39 13 43 4 43
-6 0 -10 -9 -10 -20 0 -26 -3 -25 -64 9 -28 16 -64 31 -79 35 -28 7 -62 23
-178 83 -30 17 -66 33 -80 38 -62 21 -64 23 -16 24 26 1 63 -5 81 -13 78 -32
307 -63 495 -65 94 -2 107 0 140 22 20 13 48 27 62 30 19 5 28 15 32 34 5 29
-2 48 -10 26 -6 -17 -18 -16 -35 0 -18 18 -78 47 -97 47 -9 0 7 -11 34 -24 28
-14 47 -25 43 -25 -14 -2 -93 32 -110 47 -12 10 -18 11 -18 4 0 -7 -4 -12 -9
-12 -15 0 -21 29 -11 56 10 25 13 26 63 19 68 -9 117 -26 118 -42 3 -33 15
-53 31 -53 7 0 7 4 -1 13 -24 30 10 37 39 9 78 -77 185 -109 323 -98 227 17
457 6 666 -33 141 -26 151 -26 151 -2 0 12 -22 35 -57 61 -57 41 -57 42 -23
36 19 -4 71 -24 115 -45 116 -57 145 -60 178 -22 32 38 27 56 -23 81 -30 15
-37 24 -33 40 4 16 2 19 -11 14 -9 -3 -14 -10 -11 -15 3 -4 -8 -3 -25 2 -40
14 -43 22 -17 39 20 12 21 12 9 -3 -9 -11 -10 -17 -2 -22 6 -4 12 -5 13 -4 1
2 7 14 14 25 10 19 8 25 -13 45 -28 27 -32 59 -6 59 23 0 23 33 0 75 -31 59
-72 205 -59 218 8 8 18 4 39 -16 47 -45 142 -27 142 27 0 8 18 36 40 62 23 25
38 49 35 53 -4 3 -11 -3 -17 -13 -6 -11 -26 -35 -45 -53 -18 -19 -33 -43 -33
-54 0 -15 -5 -19 -15 -15 -8 3 -14 0 -12 -7 4 -25 -65 -14 -85 14 -44 59 -20
288 43 409 16 30 29 62 28 70 0 8 -7 2 -14 -15 -14 -30 -14 -30 -15 8 0 28 3
36 13 31 6 -4 9 -4 5 1 -10 10 11 37 23 29 5 -3 9 5 9 18 0 42 -73 -42 -76
-89 -5 -54 -44 -263 -55 -291 -5 -13 -9 -49 -9 -82 0 -34 -5 -62 -12 -66 -8
-5 -9 -2 -5 9 11 30 -4 75 -40 114 -45 50 -103 138 -103 156 0 15 61 37 104
37 14 0 26 4 26 9 0 5 -19 7 -42 5 -43 -5 -43 -5 -13 10 17 9 23 15 15 15 -8
-1 -20 -1 -27 0 -21 2 -25 82 -9 159 9 40 16 97 16 126 0 52 0 53 -62 106 -61
51 -244 150 -278 150 -9 0 -25 -7 -36 -15z m364 -221 c-3 -16 -7 -13 -21 13
-23 43 -21 52 4 26 12 -11 19 -29 17 -39z m-1 -46 c-3 -8 -6 -5 -6 6 -1 11 2
17 5 13 3 -3 4 -12 1 -19z m-398 -372 c22 -78 22 -101 -1 -78 -17 17 -33 15
-19 -2 10 -12 8 -15 -11 -19 -13 -2 -4 -5 20 -6 49 -1 48 0 65 -102 12 -67 12
-81 -3 -125 -36 -104 -81 -178 -146 -242 -35 -34 -64 -67 -64 -72 0 -5 -8 -11
-17 -13 -10 -3 20 -5 67 -5 142 0 396 -66 482 -125 98 -66 92 -75 -29 -53
-170 30 -213 41 -213 52 0 6 -7 17 -15 24 -9 8 -15 9 -15 2 0 -6 5 -14 10 -17
25 -15 8 -27 -27 -20 -21 4 -132 6 -248 4 -292 -5 -318 -4 -362 9 -21 6 -49
13 -63 16 -27 6 -110 77 -110 95 0 6 10 11 23 12 12 0 -2 6 -31 13 -50 13 -78
26 -54 26 7 0 12 4 12 9 0 5 -11 4 -24 -2 -25 -12 -25 -12 -3 -25 19 -11 19
-12 2 -7 -11 4 -27 9 -36 12 -32 9 -31 65 2 93 36 31 37 53 4 166 -17 58 -22
91 -16 103 6 10 3 47 -7 101 -25 126 -36 116 108 111 69 -2 122 0 117 5 -7 7
-60 10 -200 13 -47 1 -48 2 -45 29 5 43 57 51 155 23 173 -51 185 -53 298 -49
122 5 210 34 310 102 59 40 56 42 84 -58z m378 77 c-4 -3 -7 0 -7 7 0 7 3 10
7 7 3 -4 3 -10 0 -14z m-165 -120 c59 -58 59 -63 1 -64 -48 -2 -48 -2 -3 -9
25 -4 48 -6 52 -3 13 7 86 -68 127 -131 28 -43 44 -83 55 -136 9 -41 21 -97
28 -125 6 -27 12 -75 12 -105 1 -55 1 -55 79 -94 57 -30 77 -45 78 -60 0 -20
1 -20 8 -2 6 15 10 16 15 7 5 -8 0 -24 -11 -39 -26 -34 -43 -32 -153 18 -52
24 -113 43 -155 50 -39 5 -104 19 -145 31 -94 27 -198 49 -227 49 -24 0 -31
14 -13 25 6 3 10 17 10 30 0 18 5 23 20 22 11 -1 20 -7 20 -14 0 -7 4 -13 10
-13 5 0 6 8 3 17 -5 12 -2 15 9 10 11 -4 16 1 16 16 0 28 69 213 110 294 32
62 32 62 12 125 -19 62 -27 148 -13 148 4 0 29 -21 55 -47z m-1385 -130 c-3
-10 -5 -4 -5 12 0 17 2 24 5 18 2 -7 2 -21 0 -30z m122 -276 c8 -10 7 -14 -4
-14 -8 0 -16 6 -19 14 -3 7 -2 13 3 13 5 0 14 -6 20 -13z m54 -22 c4 -8 2 -17
-3 -20 -6 -4 -10 -4 -10 -1 0 2 -3 11 -6 20 -3 9 -2 16 4 16 5 0 12 -7 15 -15z
m199 -47 c-7 -7 -10 -5 -7 8 5 29 6 30 12 16 3 -8 1 -18 -5 -24z m-282 -12 c0
-3 -5 -8 -12 -12 -7 -4 -8 -3 -4 4 7 12 16 16 16 8z m24 -20 c-3 -8 -12 -17
-20 -20 -12 -4 -12 -2 -4 14 12 23 32 27 24 6z m193 -33 c-4 -3 -7 0 -7 7 0 7
3 10 7 7 3 -4 3 -10 0 -14z m1401 -23 c18 -23 19 -28 5 -23 -11 4 -14 3 -9 -5
4 -7 2 -10 -7 -6 -7 2 -14 18 -14 34 0 36 -1 36 25 0z m-1443 -11 c-10 -15
-25 -10 -19 6 4 8 10 12 15 9 5 -3 7 -10 4 -15z m860 2 c-3 -6 -11 -11 -17
-11 -6 0 -6 6 2 15 14 17 26 13 15 -4z m-815 -7 c0 -2 -7 -4 -15 -4 -8 0 -15
4 -15 10 0 5 7 7 15 4 8 -4 15 -8 15 -10z m-131 -32 c-1 -15 -2 -15 -6 1 -2 9
-9 14 -15 11 -7 -4 -8 -2 -4 5 10 15 26 4 25 -17z m34 -13 c-4 -13 -9 -17 -16
-10 -12 12 -1 45 12 37 5 -3 7 -15 4 -27z m867 21 c0 -5 -11 -10 -25 -10 -14
0 -25 5 -25 10 0 6 11 10 25 10 14 0 25 -4 25 -10z m-885 -50 c8 0 17 -4 20
-10 4 -6 -4 -6 -22 1 -28 10 -43 26 -43 44 0 5 7 -1 16 -13 8 -12 21 -22 29
-22z m255 30 c8 -5 11 -10 5 -10 -5 0 -17 5 -25 10 -8 5 -10 10 -5 10 6 0 17
-5 25 -10z m-15 -20 c3 -5 1 -10 -4 -10 -6 0 -11 5 -11 10 0 6 2 10 4 10 3 0
8 -4 11 -10z"/>
<path d="M2580 1290 c0 -7 24 -20 36 -20 13 0 1 19 -16 23 -11 3 -20 2 -20 -3z"/>
<path d="M2090 1260 c-13 -8 -13 -10 2 -10 9 0 20 5 23 10 8 13 -5 13 -25 0z"/>
<path d="M2388 1263 c17 -2 47 -2 65 0 17 2 3 4 -33 4 -36 0 -50 -2 -32 -4z"/>
<path d="M2535 1250 c-8 -13 5 -13 25 0 13 8 13 10 -2 10 -9 0 -20 -4 -23 -10z"/>
<path d="M2300 1238 c0 -4 50 -8 110 -8 61 0 110 4 110 9 0 5 -49 8 -110 8
-60 -1 -110 -5 -110 -9z"/>
<path d="M2168 813 c7 -3 16 -2 19 1 4 3 -2 6 -13 5 -11 0 -14 -3 -6 -6z"/>
<path d="M2300 810 c-13 -8 -12 -10 3 -10 9 0 17 5 17 10 0 12 -1 12 -20 0z"/>
<path d="M2470 800 c20 -13 40 -13 40 0 0 6 -12 10 -27 10 -22 0 -25 -2 -13
-10z"/>
<path d="M2428 793 c7 -3 16 -2 19 1 4 3 -2 6 -13 5 -11 0 -14 -3 -6 -6z"/>
<path d="M1920 720 c0 -7 3 -10 7 -7 3 4 3 10 0 14 -4 3 -7 0 -7 -7z"/>
<path d="M1980 726 c0 -2 7 -6 15 -10 8 -3 15 -1 15 4 0 6 -7 10 -15 10 -8 0
-15 -2 -15 -4z"/>
<path d="M2065 709 c4 -5 22 -9 42 -9 45 0 40 5 -10 13 -22 3 -35 2 -32 -4z"/>
<path d="M2425 690 c3 -5 8 -10 11 -10 2 0 4 5 4 10 0 6 -5 10 -11 10 -5 0 -7
-4 -4 -10z"/>
<path d="M2020 650 c-9 -6 -10 -10 -3 -10 6 0 15 5 18 10 8 12 4 12 -15 0z"/>
<path d="M2250 650 c0 -7 3 -10 7 -7 3 4 3 10 0 14 -4 3 -7 0 -7 -7z"/>
<path d="M2085 640 c28 -12 37 -12 30 0 -3 6 -16 10 -28 9 -21 0 -21 -1 -2 -9z"/>
<path d="M2138 643 c7 -3 16 -2 19 1 4 3 -2 6 -13 5 -11 0 -14 -3 -6 -6z"/>
<path d="M2310 645 c0 -11 61 -65 74 -65 5 0 7 1 5 3 -2 1 -21 18 -42 36 -20
19 -37 31 -37 26z"/>
<path d="M2195 630 c3 -5 8 -10 11 -10 3 0 2 5 -1 10 -3 6 -8 10 -11 10 -3 0
-2 -4 1 -10z"/>
<path d="M2520 611 c0 -6 8 -14 18 -18 9 -3 25 -15 34 -27 10 -12 18 -15 18
-8 0 9 7 8 25 -4 44 -29 27 -6 -20 26 -25 17 -45 28 -45 24 0 -3 -7 -1 -15 6
-11 9 -15 9 -15 1z"/>
<path d="M2710 614 c0 -9 32 -33 44 -34 5 0 1 9 -9 20 -18 20 -35 26 -35 14z"/>
<path d="M2420 601 c25 -4 55 -12 67 -19 12 -7 28 -12 35 -12 7 1 -3 9 -22 20
-21 12 -53 19 -80 18 -45 -1 -45 -1 0 -7z"/>
<path d="M2890 669 c0 -4 30 -10 68 -13 37 -4 83 -9 102 -11 25 -3 31 -2 20 5
-8 5 -35 10 -60 10 -25 1 -64 5 -87 9 -24 5 -43 5 -43 0z"/>
<path d="M2733 663 c4 -3 10 -3 14 0 3 4 0 7 -7 7 -7 0 -10 -3 -7 -7z"/>
<path d="M3195 550 c3 -5 10 -10 16 -10 5 0 9 5 9 10 0 6 -7 10 -16 10 -8 0
-12 -4 -9 -10z"/>
<path d="M1894 1935 c16 -71 46 -159 61 -175 29 -32 39 -23 11 10 -14 17 -28
47 -32 68 -4 20 -15 55 -26 77 -10 22 -16 31 -14 20z"/>
<path d="M2428 1943 c7 -3 16 -2 19 1 4 3 -2 6 -13 5 -11 0 -14 -3 -6 -6z"/>
<path d="M2553 1943 c4 -3 10 -3 14 0 3 4 0 7 -7 7 -7 0 -10 -3 -7 -7z"/>
<path d="M2143 1903 c4 -3 10 -3 14 0 3 4 0 7 -7 7 -7 0 -10 -3 -7 -7z"/>
<path d="M2660 1907 c0 -4 26 -33 59 -66 65 -65 68 -74 80 -214 4 -59 13 -102
21 -110 10 -10 12 -8 6 8 -4 11 -10 56 -13 100 -7 121 -24 161 -93 230 -33 33
-60 56 -60 52z"/>
<path d="M1096 1877 c3 -10 9 -15 12 -12 3 3 0 11 -7 18 -10 9 -11 8 -5 -6z"/>
<path d="M2191 1870 c0 -8 6 -28 14 -45 7 -16 14 -23 14 -15 0 8 -6 29 -14 45
-7 17 -14 23 -14 15z"/>
<path d="M634 1849 c-16 -18 -16 -19 2 -19 18 1 54 22 54 31 0 14 -41 5 -56
-12z m31 1 c-3 -5 -11 -10 -16 -10 -6 0 -7 5 -4 10 3 6 11 10 16 10 6 0 7 -4
4 -10z"/>
<path d="M3023 1853 c4 -3 10 -3 14 0 3 4 0 7 -7 7 -7 0 -10 -3 -7 -7z"/>
<path d="M1111 1833 c-1 -12 4 -25 9 -28 12 -7 12 2 0 30 -8 19 -9 19 -9 -2z"/>
<path d="M3078 1843 c6 -2 18 -2 25 0 6 3 1 5 -13 5 -14 0 -19 -2 -12 -5z"/>
<path d="M3067 1819 c7 -7 15 -10 18 -7 3 3 -2 9 -12 12 -14 6 -15 5 -6 -5z"/>
<path d="M3120 1821 c0 -5 7 -11 15 -15 8 -3 15 -1 15 3 0 5 -7 11 -15 15 -8
3 -15 1 -15 -3z"/>
<path d="M708 1798 c12 -6 22 -15 22 -20 0 -4 6 -8 13 -8 6 0 25 -7 40 -15 19
-10 27 -11 25 -3 -2 6 -17 16 -34 21 -16 5 -36 16 -45 23 -8 8 -22 14 -30 13
-8 0 -4 -5 9 -11z"/>
<path d="M620 1766 c0 -3 9 -10 20 -16 11 -6 20 -8 20 -6 0 3 -9 10 -20 16
-11 6 -20 8 -20 6z"/>
<path d="M703 1763 c4 -3 10 -3 14 0 3 4 0 7 -7 7 -7 0 -10 -3 -7 -7z"/>
<path d="M3111 1733 c-1 -23 -10 -62 -20 -85 -28 -63 -59 -168 -49 -168 5 0
13 12 19 28 5 15 20 47 33 72 28 53 41 135 27 170 -9 23 -10 21 -10 -17z"/>
<path d="M2140 1758 c0 -4 9 -42 21 -83 16 -59 18 -83 10 -106 -5 -16 -6 -29
-1 -29 17 0 22 69 10 122 -11 48 -39 114 -40 96z"/>
<path d="M3185 1730 c-3 -11 -4 -24 0 -30 3 -5 -4 -23 -16 -39 -12 -17 -19
-37 -16 -46 4 -9 -2 -24 -15 -37 -21 -21 -21 -21 21 -14 31 5 50 16 74 43 70
82 86 97 87 86 0 -6 -4 -15 -10 -18 -5 -3 -10 -11 -10 -18 0 -6 7 -1 16 11 9
13 20 19 27 15 22 -13 -16 28 -44 48 -28 20 -79 18 -79 -2 0 -6 9 -5 20 1 44
24 55 -22 14 -61 -14 -13 -34 -38 -45 -56 -35 -56 -54 -36 -22 22 9 17 17 49
18 73 2 44 -9 56 -20 22z"/>
<path d="M3325 1740 c3 -5 8 -10 11 -10 2 0 4 5 4 10 0 6 -5 10 -11 10 -5 0
-7 -4 -4 -10z"/>
<path d="M673 1733 c4 -3 10 -3 14 0 3 4 0 7 -7 7 -7 0 -10 -3 -7 -7z"/>
<path d="M708 1733 c7 -3 16 -2 19 1 4 3 -2 6 -13 5 -11 0 -14 -3 -6 -6z"/>
<path d="M2015 1730 c3 -5 8 -10 11 -10 3 0 2 5 -1 10 -3 6 -8 10 -11 10 -3 0
-2 -4 1 -10z"/>
<path d="M1084 1625 c-47 -24 -130 -92 -122 -101 3 -2 28 17 58 42 84 72 135
87 191 58 17 -8 33 -13 36 -11 8 8 -59 37 -87 37 -14 0 -48 -11 -76 -25z"/>
<path d="M685 1600 c3 -5 8 -10 11 -10 3 0 2 5 -1 10 -3 6 -8 10 -11 10 -3 0
-2 -4 1 -10z"/>
<path d="M1320 1607 c0 -9 41 -87 46 -87 9 0 -8 44 -25 64 -15 18 -15 19 2 13
9 -4 17 -2 17 3 0 6 -9 10 -20 10 -11 0 -20 -1 -20 -3z"/>
<path d="M1253 1593 c4 -3 10 -3 14 0 3 4 0 7 -7 7 -7 0 -10 -3 -7 -7z"/>
<path d="M2570 1584 c0 -22 48 -129 55 -122 4 4 -41 127 -51 137 -2 2 -4 -4
-4 -15z"/>
<path d="M1285 1538 c22 -25 41 -45 43 -43 8 8 -21 45 -50 67 -32 22 -32 22 7
-24z"/>
<path d="M2143 1518 c13 -18 32 -53 42 -77 19 -43 19 -44 -3 -85 -23 -41 -23
-41 3 -14 14 15 25 38 25 51 0 41 -60 157 -82 157 -5 0 2 -15 15 -32z"/>
<path d="M760 1531 c0 -5 7 -15 17 -22 15 -13 15 -12 4 9 -12 23 -21 28 -21
13z"/>
<path d="M310 1526 c0 -2 8 -10 18 -17 15 -13 16 -12 3 4 -13 16 -21 21 -21
13z"/>
<path d="M1137 1523 c-10 -10 -8 -23 4 -23 5 0 8 4 5 9 -4 5 0 12 6 14 7 3 8
6 2 6 -6 1 -14 -2 -17 -6z"/>
<path d="M1445 1511 c-3 -5 -1 -12 5 -16 5 -3 10 1 10 9 0 18 -6 21 -15 7z"/>
<path d="M1894 1456 c6 -30 15 -58 20 -63 13 -13 -5 91 -18 105 -10 10 -10 1
-2 -42z"/>
<path d="M2840 1502 c0 -6 8 -16 18 -21 10 -5 24 -28 31 -50 12 -42 31 -64 31
-36 0 9 -6 28 -14 43 -17 32 -66 80 -66 64z"/>
<path d="M300 1490 c0 -5 5 -10 11 -10 5 0 7 5 4 10 -3 6 -8 10 -11 10 -2 0
-4 -4 -4 -10z"/>
<path d="M493 1493 c4 -3 -1 -12 -10 -19 -15 -11 -14 -11 10 -7 22 4 25 8 16
19 -6 8 -14 14 -17 14 -3 0 -2 -3 1 -7z"/>
<path d="M3070 1475 c-13 -14 -19 -25 -14 -25 6 0 20 11 32 25 12 14 18 25 14
25 -5 0 -19 -11 -32 -25z"/>
<path d="M350 1484 c0 -17 27 -37 42 -31 8 4 7 6 -4 6 -9 1 -22 9 -27 19 -6 9
-11 12 -11 6z"/>
<path d="M370 1486 c0 -2 7 -7 16 -10 8 -3 12 -2 9 4 -6 10 -25 14 -25 6z"/>
<path d="M285 1470 c3 -5 8 -10 11 -10 3 0 2 5 -1 10 -3 6 -8 10 -11 10 -3 0
-2 -4 1 -10z"/>
<path d="M587 1471 c-10 -4 32 -8 94 -9 62 -1 111 -1 108 1 -8 8 -184 15 -202
8z"/>
<path d="M1307 1474 c-1 -2 -114 -4 -250 -5 -136 -1 -245 -4 -242 -7 2 -3 157
-5 344 -6 187 -1 337 2 333 6 -7 7 -179 18 -185 12z"/>
<path d="M1670 1470 c0 -7 3 -10 7 -7 3 4 3 10 0 14 -4 3 -7 0 -7 -7z"/>
<path d="M1620 1460 c0 -7 3 -10 7 -7 3 4 3 10 0 14 -4 3 -7 0 -7 -7z"/>
<path d="M1640 1420 c6 -11 13 -20 16 -20 2 0 0 9 -6 20 -6 11 -13 20 -16 20
-2 0 0 -9 6 -20z"/>
<path d="M1450 1416 c0 -2 7 -9 15 -16 9 -7 15 -8 15 -2 0 5 -7 12 -15 16 -8
3 -15 4 -15 2z"/>
<path d="M1641 1375 c1 -19 18 -51 18 -35 0 8 -4 22 -9 30 -5 8 -9 11 -9 5z"/>
<path d="M290 1329 c24 -7 255 -11 235 -4 -5 2 -66 5 -135 8 -69 2 -114 0
-100 -4z"/>
<path d="M868 1313 c6 -2 18 -2 25 0 6 3 1 5 -13 5 -14 0 -19 -2 -12 -5z"/>
<path d="M955 1315 c23 -8 85 -10 85 -3 0 4 -21 8 -47 7 -27 0 -43 -2 -38 -4z"/>
<path d="M1122 1300 c7 -4 96 -10 198 -13 127 -3 157 -2 95 3 -135 12 -309 18
-293 10z"/>
<path d="M1505 1209 c-4 -6 -5 -12 -2 -15 2 -3 7 2 10 11 7 17 1 20 -8 4z"/>
<path d="M1750 1098 c0 -9 5 -20 10 -23 13 -8 13 5 0 25 -8 13 -10 13 -10 -2z"/>
<path d="M3153 833 c4 -3 10 -3 14 0 3 4 0 7 -7 7 -7 0 -10 -3 -7 -7z"/>
<path d="M1703 793 c4 -3 10 -3 14 0 3 4 0 7 -7 7 -7 0 -10 -3 -7 -7z"/>
<path d="M1124 775 c-5 -12 -9 -13 -20 -4 -12 10 -13 9 -8 -5 7 -18 88 -23 99
-6 4 6 12 10 18 9 38 -5 61 1 49 13 -9 9 -19 10 -43 1 -20 -8 -39 -9 -55 -2
-33 12 -34 12 -40 -6z m43 -12 c-4 -3 -10 -3 -14 0 -3 4 0 7 7 7 7 0 10 -3 7
-7z"/>
<path d="M1313 778 c-11 -14 -13 -47 -4 -49 3 0 15 -2 26 -3 11 -2 30 -6 42
-10 18 -6 22 -4 17 8 -3 9 -15 16 -26 16 -11 0 -29 5 -40 11 -27 15 -4 31 31
22 17 -4 22 -2 17 6 -10 15 -51 14 -63 -1z"/>
<path d="M1404 745 c4 -16 12 -34 18 -40 7 -7 8 -1 4 20 -4 17 -12 35 -18 40
-7 7 -8 1 -4 -20z"/>
<path d="M1456 731 c10 -10 21 -17 23 -15 6 6 -20 34 -32 34 -6 0 -2 -8 9 -19z"/>
<path d="M1775 650 c3 -5 14 -10 23 -10 15 0 15 2 2 10 -20 13 -33 13 -25 0z"/>
<path d="M3315 585 c20 -15 39 -24 42 -22 6 7 -52 47 -67 47 -7 0 4 -11 25
-25z"/>
<path d="M1543 443 c4 -3 10 -3 14 0 3 4 0 7 -7 7 -7 0 -10 -3 -7 -7z"/>
<path d="M1728 443 c7 -3 16 -2 19 1 4 3 -2 6 -13 5 -11 0 -14 -3 -6 -6z"/>
<path d="M3063 443 c9 -2 25 -2 35 0 9 3 1 5 -18 5 -19 0 -27 -2 -17 -5z"/>
<path d="M1645 420 c-50 -7 -50 -7 -3 -8 26 -1 50 3 53 8 3 6 5 9 3 8 -2 0
-25 -4 -53 -8z"/>
<path d="M1572 361 c15 -5 147 -14 295 -21 147 -6 274 -13 281 -15 6 -3 12 -1
12 4 0 5 -80 12 -177 16 -98 4 -185 9 -193 10 -43 8 -242 13 -218 6z"/>
<path d="M2778 333 c7 -3 16 -2 19 1 4 3 -2 6 -13 5 -11 0 -14 -3 -6 -6z"/>
<path d="M2208 323 c23 -2 59 -2 80 0 20 2 1 4 -43 4 -44 0 -61 -2 -37 -4z"/>
<path d="M2703 323 c4 -3 10 -3 14 0 3 4 0 7 -7 7 -7 0 -10 -3 -7 -7z"/>
<path d="M2995 319 c104 -4 202 -10 217 -13 16 -3 28 -2 28 3 0 10 -191 21
-330 19 -80 -1 -59 -3 85 -9z"/>
<path d="M2393 313 c31 -2 83 -2 115 0 31 2 5 3 -58 3 -63 0 -89 -1 -57 -3z"/>
<path d="M2573 313 c4 -3 10 -3 14 0 3 4 0 7 -7 7 -7 0 -10 -3 -7 -7z"/>
<path d="M2618 313 c7 -3 16 -2 19 1 4 3 -2 6 -13 5 -11 0 -14 -3 -6 -6z"/>
<path d="M2673 313 c4 -3 10 -3 14 0 3 4 0 7 -7 7 -7 0 -10 -3 -7 -7z"/>
<path d="M2510 175 c-11 -13 -10 -14 4 -9 9 3 16 2 16 -3 0 -17 50 -34 68 -23
14 8 13 9 -9 10 -14 0 -34 7 -45 16 -18 14 -16 15 26 9 26 -3 53 -15 65 -27
11 -11 15 -18 8 -14 -7 4 -21 -2 -33 -14 -20 -20 -20 -20 4 -20 20 0 56 22 56
34 0 2 -17 15 -38 30 -43 29 -102 35 -122 11z"/>
<path d="M2491 118 c-9 -16 -9 -19 -1 -11 7 6 20 9 29 5 14 -5 14 -4 2 11 -17
21 -14 21 -30 -5z"/>
<path d="M2813 133 c4 -3 10 -3 14 0 3 4 0 7 -7 7 -7 0 -10 -3 -7 -7z"/>
<path d="M2090 120 c0 -7 3 -10 7 -7 3 4 3 10 0 14 -4 3 -7 0 -7 -7z"/>
<path d="M2755 120 c-3 -5 -2 -10 4 -10 5 0 13 5 16 10 3 6 2 10 -4 10 -5 0
-13 -4 -16 -10z"/>
<path d="M2868 113 c7 -3 16 -2 19 1 4 3 -2 6 -13 5 -11 0 -14 -3 -6 -6z"/>
<path d="M2558 103 c7 -3 16 -2 19 1 4 3 -2 6 -13 5 -11 0 -14 -3 -6 -6z"/>
<path d="M2708 103 c7 -3 16 -2 19 1 4 3 -2 6 -13 5 -11 0 -14 -3 -6 -6z"/>
<path d="M2048 13 c7 -3 16 -2 19 1 4 3 -2 6 -13 5 -11 0 -14 -3 -6 -6z"/>
<path d="M2200 10 c-35 -7 -35 -7 -3 -9 17 0 35 4 38 9 3 6 5 9 3 9 -2 -1 -19
-5 -38 -9z"/>
<path d="M2253 13 c4 -3 10 -3 14 0 3 4 0 7 -7 7 -7 0 -10 -3 -7 -7z"/>
<path d="M2093 3 c4 -3 10 -3 14 0 3 4 0 7 -7 7 -7 0 -10 -3 -7 -7z"/>
<path d="M2413 3 c4 -3 10 -3 14 0 3 4 0 7 -7 7 -7 0 -10 -3 -7 -7z"/>
</g>
</svg>
