<?xml version="1.0" standalone="no"?>
<!DOCTYPE svg PUBLIC "-//W3C//DTD SVG 20010904//EN"
 "http://www.w3.org/TR/2001/REC-SVG-20010904/DTD/svg10.dtd">
<svg version="1.0" xmlns="http://www.w3.org/2000/svg"
 width="344.000000pt" height="256.000000pt" viewBox="0 0 344.000000 256.000000"
 preserveAspectRatio="xMidYMid meet">
<metadata>
Created by potrace 1.16, written by Peter Selinger 2001-2019
</metadata>
<g transform="translate(0.000000,256.000000) scale(0.100000,-0.100000)"
fill="#000000" stroke="none">
<path d="M637 2531 c-4 -19 -4 -38 0 -42 5 -3 80 -9 168 -12 112 -3 145 -2
110 4 -27 5 -76 10 -107 10 -58 1 -58 1 -59 38 0 20 -3 31 -5 24 -4 -9 -13 -9
-30 -2 -39 14 -44 11 -44 -26 0 -47 -18 -45 -22 3 -3 37 -3 37 -11 3z m80 -5
c-3 -8 -1 -17 6 -19 7 -2 9 -7 6 -11 -3 -3 -13 -4 -21 -1 -17 7 -13 45 4 45 6
0 8 -6 5 -14z"/>
<path d="M1045 2549 c-4 -6 1 -17 11 -25 17 -14 17 -15 2 -10 -22 7 -24 -10
-2 -18 22 -9 24 -8 24 10 0 13 3 14 14 5 11 -10 16 -8 21 8 7 23 0 41 -17 41
-7 0 -6 -6 2 -15 14 -17 -3 -21 -36 -8 -16 6 -16 7 2 14 16 6 16 8 2 8 -9 1
-20 -4 -23 -10z"/>
<path d="M1330 2518 c0 -49 5 -47 13 5 3 20 2 37 -4 37 -5 0 -9 -19 -9 -42z"/>
<path d="M1361 2544 c0 -11 3 -14 6 -6 3 7 2 16 -1 19 -3 4 -6 -2 -5 -13z"/>
<path d="M960 2540 c0 -7 3 -10 7 -7 3 4 3 10 0 14 -4 3 -7 0 -7 -7z"/>
<path d="M1360 2493 c-1 -10 -3 -52 -5 -93 -3 -45 -1 -67 4 -55 9 23 15 165 7
165 -4 0 -6 -8 -6 -17z"/>
<path d="M1153 2493 c4 -3 10 -3 14 0 3 4 0 7 -7 7 -7 0 -10 -3 -7 -7z"/>
<path d="M1040 2482 c0 -14 40 -25 71 -19 17 3 14 5 -11 6 -20 0 -41 6 -48 13
-9 9 -12 9 -12 0z"/>
<path d="M534 2452 c-60 -33 -80 -52 -66 -61 9 -5 -1 -15 -32 -32 -53 -28 -54
-27 74 -75 85 -32 85 -32 102 -85 18 -59 22 -99 10 -99 -4 0 -8 -37 -8 -82 0
-58 -6 -94 -18 -120 -14 -29 -17 -50 -11 -95 9 -82 27 -101 120 -128 76 -22
94 -22 148 0 26 11 22 -13 -14 -78 -17 -31 -25 -57 -19 -57 6 0 -3 -17 -19
-37 -17 -21 -39 -49 -49 -62 -20 -26 -68 -22 -58 5 9 23 -11 16 -33 -13 -23
-28 -33 -26 -38 9 -4 25 -10 34 -19 26 -9 -9 19 -117 29 -111 5 3 6 11 3 19
-3 8 0 11 10 7 8 -3 14 -13 12 -22 -4 -18 -66 -22 -151 -9 -26 4 -46 4 -43 -1
3 -4 35 -11 71 -15 36 -4 76 -11 90 -16 15 -6 26 -6 30 0 4 6 12 10 18 10 7 0
2 -8 -11 -18 -23 -18 -23 -18 -3 -43 12 -13 19 -17 15 -8 -3 10 2 19 12 23 25
10 27 2 7 -31 -16 -29 -16 -32 5 -79 32 -69 37 -77 53 -82 11 -4 11 -1 -1 14
-9 10 -21 30 -27 44 -31 72 -34 83 -23 94 7 7 10 3 10 -12 0 -12 5 -22 10 -22
6 0 10 -9 10 -20 0 -18 24 -66 40 -80 3 -3 16 -30 28 -60 22 -51 22 -55 6 -67
-17 -12 -17 -13 -1 -13 9 0 17 5 17 12 0 9 3 9 12 0 28 -28 -42 -62 -156 -78
-54 -7 -76 -30 -76 -78 0 -44 3 -50 78 -147 20 -27 29 -46 23 -52 -12 -12
-214 8 -269 26 -40 13 -49 40 -51 142 -1 37 -4 42 -33 53 -40 14 -70 68 -47
83 19 12 36 11 44 -1 3 -5 11 -10 18 -10 6 0 0 8 -13 17 -14 9 -27 18 -29 19
-30 24 12 363 50 406 20 23 20 23 15 -172 -5 -236 6 -124 23 220 18 373 22
591 10 545 -5 -22 -8 -50 -6 -62 2 -13 1 -23 -4 -23 -4 0 -5 -34 -2 -75 3 -42
2 -75 -3 -75 -5 0 -10 -51 -12 -113 -5 -152 -14 -219 -31 -225 -11 -4 -13 5
-7 44 11 79 26 289 30 414 2 63 9 170 17 238 12 115 12 126 -6 179 -27 78 -42
94 -95 98 -41 4 -42 4 -10 -3 56 -13 58 -16 49 -74 -5 -29 -13 -91 -18 -138
-6 -47 -17 -128 -25 -180 -8 -52 -17 -128 -20 -168 -4 -40 -12 -110 -17 -155
-6 -45 -14 -122 -19 -172 -5 -49 -16 -157 -25 -240 -9 -82 -17 -163 -18 -179
-2 -29 -2 -29 -84 -22 -45 3 -88 9 -97 12 -9 3 -16 2 -16 -4 0 -5 26 -13 58
-16 31 -4 78 -10 103 -13 45 -5 45 -5 57 123 7 71 17 161 22 199 5 39 17 133
25 210 8 77 24 214 35 305 11 91 27 228 36 305 16 150 26 176 43 123 21 -67
22 -116 4 -268 -11 -85 -19 -180 -18 -210 1 -30 -1 -59 -4 -64 -2 -6 -5 -64
-6 -131 -1 -68 -6 -129 -13 -140 -9 -16 -10 -13 -5 20 3 22 3 37 -1 34 -4 -3
-11 -42 -16 -85 -5 -44 -11 -95 -15 -114 -5 -35 -5 -35 6 -5 5 17 14 53 18 80
9 50 9 50 10 0 0 -27 -3 -66 -9 -85 -13 -49 -32 -167 -33 -217 -1 -23 -5 -45
-10 -49 -4 -4 -7 -16 -7 -26 0 -12 -7 -18 -24 -18 -13 0 -57 -18 -98 -39 -51
-27 -83 -38 -104 -35 -27 4 -27 3 4 -7 28 -8 39 -7 68 10 42 25 55 26 48 6 -4
-8 -1 -15 6 -15 6 0 9 -4 6 -9 -3 -5 -46 -8 -96 -6 -52 1 -90 -2 -90 -8 0 -5
47 -8 118 -6 112 4 120 3 184 -26 65 -29 88 -55 49 -55 -35 0 -68 18 -74 39
-3 12 -13 21 -22 21 -13 0 -15 -3 -7 -13 6 -7 12 -25 14 -39 2 -15 7 -30 10
-34 4 -3 4 -13 1 -21 -3 -8 0 -19 8 -25 11 -7 11 -11 1 -15 -7 -3 -19 -20 -26
-38 -8 -18 -25 -41 -39 -50 -48 -31 -217 -224 -217 -248 1 -19 2 -18 14 8 15
33 49 68 71 71 20 3 133 50 189 79 62 31 110 32 161 0 22 -13 56 -32 75 -42
73 -37 77 -70 14 -135 -108 -110 -224 -143 -296 -83 -24 20 -32 22 -69 14 -59
-13 -69 -1 -42 53 11 24 37 65 57 92 21 26 32 46 24 44 -17 -6 -96 -123 -104
-155 -15 -57 44 -85 181 -86 114 -2 161 18 251 107 56 54 65 67 59 87 -4 13
-12 25 -16 27 -19 7 -8 22 16 22 14 0 53 9 86 20 33 11 65 17 72 13 7 -4 -1
10 -16 30 -15 20 -23 37 -16 37 7 0 10 2 7 5 -3 3 0 30 7 60 12 52 12 216 0
205 -6 -5 -25 19 -25 32 0 9 68 28 103 28 29 0 34 -9 15 -29 -11 -11 -10 -13
5 -8 9 4 17 2 17 -4 0 -12 25 -39 37 -39 4 0 8 13 9 30 1 17 -3 27 -9 23 -6
-4 -8 4 -5 21 3 14 1 26 -3 26 -5 0 -9 9 -9 20 0 11 -9 37 -21 59 -11 22 -17
46 -13 53 4 7 4 10 -1 6 -16 -15 -48 66 -48 122 0 31 -1 41 -4 22 -2 -17 -8
-32 -14 -32 -13 0 -11 68 3 72 6 2 11 18 11 36 0 18 4 32 9 32 4 0 8 7 8 15 0
22 30 78 49 92 51 37 57 45 24 28 -38 -18 -41 -13 -13 22 31 40 14 41 -20 2
-16 -19 -29 -30 -30 -25 0 4 11 21 25 38 25 30 35 76 13 62 -7 -4 -8 -3 -4 5
4 6 12 9 17 6 5 -4 17 10 26 30 15 31 18 34 25 18 5 -12 6 -8 3 12 -3 17 1 42
10 59 19 36 19 42 0 26 -8 -6 -19 -9 -25 -5 -19 12 -10 33 16 39 15 4 24 9 21
12 -15 15 -78 -25 -89 -57 -9 -22 -42 -27 -113 -14 -42 7 -60 15 -60 25 -1 24
-37 110 -46 110 -5 0 -2 -17 7 -37 33 -76 31 -90 -6 -51 -25 27 -29 98 -4 98
9 0 28 -8 42 -18 50 -35 70 -37 39 -4 -39 41 -51 94 -26 116 21 17 26 42 7 30
-6 -4 1 9 16 29 27 35 30 97 5 113 -16 9 -10 44 7 44 13 0 14 3 4 15 -7 8 -16
13 -20 10 -13 -8 -40 36 -40 65 0 14 -7 36 -16 48 -8 12 -10 22 -5 22 6 0 11
7 11 15 0 18 -16 20 -23 3 -4 -10 -6 -10 -6 0 -1 7 -5 11 -11 7 -11 -7 -3 -33
18 -57 8 -9 12 -23 9 -30 -4 -8 -6 -6 -6 5 -1 16 -56 50 -86 52 -5 1 -34 9
-64 19 -53 18 -53 18 -22 39 28 17 50 20 169 20 75 1 116 2 90 4 -27 2 -48 9
-48 15 0 6 -10 8 -24 4 -15 -4 -28 0 -36 9 -12 14 -15 14 -30 0 -13 -12 -23
-13 -43 -6 -14 5 -28 7 -31 4 -3 -4 -6 -2 -6 3 0 6 17 19 38 29 56 29 56 29
49 11 -4 -9 -2 -16 3 -16 6 0 10 5 10 10 0 19 89 0 205 -45 14 -6 17 -5 10 3
-13 13 -193 72 -220 72 -11 -1 -34 -9 -51 -18z m-11 -69 c-7 -2 -19 -2 -25 0
-7 3 -2 5 12 5 14 0 19 -2 13 -5z m122 -200 c4 -14 2 -23 -4 -23 -6 0 -11 6
-11 14 0 8 -3 23 -6 33 -5 12 -4 15 3 8 6 -5 14 -20 18 -32z m27 -55 c-9 -9
-12 -7 -12 12 0 19 3 21 12 12 9 -9 9 -15 0 -24z m18 -48 c0 -10 4 -21 9 -24
14 -9 3 -39 -26 -72 -18 -21 -23 -23 -18 -9 4 11 8 34 9 50 1 17 3 43 4 58 2
31 22 28 22 -3z m-53 -27 c-3 -10 -5 -4 -5 12 0 17 2 24 5 18 2 -7 2 -21 0
-30z m13 -40 c0 -5 -5 -15 -10 -23 -8 -12 -10 -11 -10 8 0 12 5 22 10 22 6 0
10 -3 10 -7z m-5 -143 c3 -5 1 -10 -4 -10 -6 0 -11 5 -11 10 0 6 2 10 4 10 3
0 8 -4 11 -10z m-25 -15 c0 -8 -4 -15 -9 -15 -5 0 -11 7 -15 15 -3 9 0 15 9
15 8 0 15 -7 15 -15z m250 -155 c0 -5 -4 -10 -10 -10 -5 0 -10 5 -10 10 0 6 5
10 10 10 6 0 10 -4 10 -10z m-95 -282 c-3 -13 -15 -30 -27 -37 -19 -12 -19
-11 3 28 24 44 34 48 24 9z m21 -15 c-8 -15 -15 -25 -16 -21 0 12 23 58 27 54
3 -2 -2 -17 -11 -33z m-113 2 c-22 -17 -30 -11 -13 10 7 8 17 12 22 9 5 -3 1
-12 -9 -19z m47 -9 c0 -3 -4 -8 -10 -11 -5 -3 -10 -1 -10 4 0 6 5 11 10 11 6
0 10 -2 10 -4z m-38 -48 c-7 -7 -12 -8 -12 -2 0 14 12 26 19 19 2 -3 -1 -11
-7 -17z m49 -31 c-27 -27 -29 -3 -4 33 16 23 18 23 21 6 2 -10 -5 -28 -17 -39z
m12 -37 c-3 -12 -8 -19 -11 -16 -5 6 5 36 12 36 2 0 2 -9 -1 -20z m-464 -306
c-10 -9 -19 -10 -29 -4 -12 8 -11 10 8 10 14 0 22 6 23 18 0 11 2 13 6 4 3 -8
-1 -20 -8 -28z m-45 -20 c32 -12 14 -40 -32 -50 -19 -4 -27 23 -12 41 14 17
21 18 44 9z m53 -11 c-4 -3 -10 -3 -14 0 -3 4 0 7 7 7 7 0 10 -3 7 -7z m-17
-48 c14 -16 10 -18 -14 -9 -9 3 -16 10 -16 15 0 14 16 11 30 -6z m426 -81 c3
-24 3 -56 -1 -71 -7 -28 -7 -28 -30 0 -39 44 -52 102 -30 127 25 28 52 4 61
-56z m-41 -80 c20 -26 30 -32 40 -24 16 13 25 -6 16 -33 -6 -16 -9 -15 -33 10
-44 48 -78 105 -78 132 1 23 3 21 14 -12 8 -20 26 -53 41 -73z m-348 50 c-3
-3 -12 -4 -19 -1 -8 3 -5 6 6 6 11 1 17 -2 13 -5z m54 -93 c-16 -10 17 -39 60
-52 19 -5 79 -14 133 -19 111 -11 136 -17 136 -31 0 -6 -7 -6 -19 1 -11 5 -28
10 -38 9 -10 0 -2 -7 19 -15 67 -28 62 -56 -14 -79 -75 -22 -108 -19 -163 16
-27 17 -58 35 -70 39 -17 8 -16 9 10 10 17 1 57 8 90 16 51 12 53 13 15 9
-164 -20 -244 -35 -275 -54 -43 -25 -158 -72 -163 -66 -3 2 39 48 91 102 158
161 151 152 120 164 -14 5 -23 12 -20 15 3 3 13 2 23 -4 19 -11 56 -4 48 9 -3
5 -2 15 3 22 5 7 11 -6 17 -37 6 -34 5 -50 -3 -55z m-155 -427 c17 -14 17 -15
1 -10 -10 3 -25 6 -33 6 -9 0 -12 5 -9 10 9 14 18 13 41 -6z"/>
<path d="M343 723 c4 -3 10 -3 14 0 3 4 0 7 -7 7 -7 0 -10 -3 -7 -7z"/>
<path d="M276 634 c-23 -23 -20 -30 4 -9 11 10 20 20 20 22 0 7 -9 2 -24 -13z"/>
<path d="M598 593 c7 -3 16 -2 19 1 4 3 -2 6 -13 5 -11 0 -14 -3 -6 -6z"/>
<path d="M1178 2463 c12 -2 32 -2 45 0 12 2 2 4 -23 4 -25 0 -35 -2 -22 -4z"/>
<path d="M795 2449 c22 -5 58 -10 80 -12 48 -2 58 -36 15 -48 -14 -4 -20 -8
-15 -9 6 -2 -6 -6 -25 -10 -30 -6 -27 -8 27 -9 34 0 67 -3 75 -6 10 -4 12 5
10 39 -4 51 -5 51 -132 60 -62 4 -68 3 -35 -5z m155 -65 c0 -8 -6 -14 -14 -14
-9 0 -12 7 -9 20 6 22 23 18 23 -6z"/>
<path d="M1283 2453 c4 -3 10 -3 14 0 3 4 0 7 -7 7 -7 0 -10 -3 -7 -7z"/>
<path d="M1172 2428 c7 -4 37 -8 66 -8 29 0 62 -5 73 -10 13 -7 19 -7 19 -1 0
13 -27 19 -108 24 -34 2 -57 0 -50 -5z"/>
<path d="M544 2418 c-4 -7 -3 -8 4 -4 12 7 16 16 8 16 -3 0 -8 -5 -12 -12z"/>
<path d="M875 2420 c3 -5 10 -10 16 -10 5 0 9 5 9 10 0 6 -7 10 -16 10 -8 0
-12 -4 -9 -10z"/>
<path d="M1040 2413 c0 -10 -3 -27 -6 -39 -5 -19 1 -22 68 -32 40 -6 84 -14
98 -17 20 -5 22 -4 8 4 -9 6 -51 16 -92 23 -59 9 -75 15 -71 26 3 7 5 18 5 23
0 6 6 9 13 8 6 -1 23 0 37 1 25 2 25 2 0 10 -42 13 -60 11 -60 -7z"/>
<path d="M828 2383 c7 -3 16 -2 19 1 4 3 -2 6 -13 5 -11 0 -14 -3 -6 -6z"/>
<path d="M783 2373 c4 -3 10 -3 14 0 3 4 0 7 -7 7 -7 0 -10 -3 -7 -7z"/>
<path d="M1304 2368 c-4 -7 -3 -8 4 -4 7 4 12 9 12 12 0 8 -9 4 -16 -8z"/>
<path d="M445 2340 c-4 -6 7 -10 27 -9 27 0 30 2 13 9 -27 12 -33 12 -40 0z"/>
<path d="M645 2335 c17 -7 56 -42 88 -76 42 -47 59 -61 66 -51 11 18 175 14
199 -5 9 -7 26 -13 37 -13 20 -1 20 -1 0 -10 -15 -7 -16 -9 -4 -9 9 -1 22 6
29 14 7 8 18 15 24 15 6 0 4 -5 -4 -10 -8 -5 -10 -10 -4 -10 6 0 28 13 50 30
51 39 56 38 34 -8 -25 -50 -46 -68 -63 -53 -29 23 -5 -91 24 -120 11 -11 19
-27 19 -37 0 -10 6 -26 14 -37 8 -12 10 -28 6 -40 -6 -18 -9 -17 -28 14 -11
19 -24 52 -27 73 -6 32 -25 65 -25 41 1 -28 32 -119 47 -137 44 -50 50 -60 28
-52 -16 6 -18 5 -7 -6 21 -21 280 -24 362 -4 36 9 83 15 105 15 22 -1 64 5 93
14 29 9 60 14 70 11 15 -5 15 -4 2 6 -12 9 -9 10 15 6 17 -4 25 -3 17 2 -21
14 172 54 278 56 33 1 65 8 80 18 14 10 34 17 45 18 52 2 73 6 68 13 -2 4 5 7
16 7 29 0 26 -6 -16 -34 -21 -13 -49 -35 -63 -48 -14 -13 -41 -33 -60 -45 -19
-12 -48 -36 -65 -54 -30 -33 -30 -33 15 2 25 20 56 42 70 49 14 7 42 30 62 51
22 22 52 41 71 44 19 4 47 18 63 31 21 18 23 22 7 15 -33 -17 -51 -13 -28 6
20 15 19 15 -5 9 -14 -3 -63 -13 -110 -22 -47 -9 -128 -26 -180 -39 -52 -13
-117 -26 -144 -30 -27 -4 -99 -22 -160 -41 -74 -22 -123 -32 -147 -29 -21 3
-56 -2 -81 -11 -30 -12 -86 -17 -191 -19 -162 -3 -177 3 -162 62 6 24 9 25 58
19 100 -11 252 -18 246 -12 -3 3 -68 11 -145 17 -172 13 -165 10 -154 50 8 26
5 42 -14 81 -28 59 -25 76 29 175 20 36 33 68 30 71 -3 4 -9 2 -13 -4 -4 -6
-29 -27 -56 -47 -57 -43 -105 -55 -154 -37 -45 16 -158 21 -191 8 -22 -8 -29
-5 -49 19 -68 82 -93 103 -120 102 -27 -1 -27 -1 3 -14z m497 -258 c31 -76 32
-81 20 -73 -20 12 -60 116 -45 116 4 0 16 -19 25 -43z m23 -97 c3 -5 4 -10 1
-10 -3 0 -8 5 -11 10 -3 6 -4 10 -1 10 3 0 8 -4 11 -10z m982 -7 c-4 -3 -10
-3 -14 0 -3 4 0 7 7 7 7 0 10 -3 7 -7z m-30 -9 c-3 -3 -12 -4 -19 -1 -8 3 -5
6 6 6 11 1 17 -2 13 -5z"/>
<path d="M1243 2323 c4 -3 10 -3 14 0 3 4 0 7 -7 7 -7 0 -10 -3 -7 -7z"/>
<path d="M1270 2321 c0 -5 10 -11 23 -13 12 -2 21 -9 19 -16 -1 -8 1 -11 5 -9
5 3 17 -1 28 -9 18 -13 17 -14 -9 -14 -29 0 -100 -29 -92 -38 3 -2 21 3 40 12
57 27 82 17 56 -24 -7 -12 -12 -12 -22 -2 -6 6 -19 12 -27 12 -21 -1 28 -39
49 -40 8 0 26 -7 40 -15 24 -14 24 -14 -15 -8 -22 3 -46 10 -52 16 -10 7 -13
4 -13 -10 0 -15 7 -19 38 -19 53 0 255 -15 270 -19 6 -3 12 -19 13 -37 0 -31
1 -31 10 -10 20 51 -24 72 -154 72 -57 0 -131 35 -122 58 3 7 5 20 5 28 0 7
14 21 31 29 29 15 30 17 12 30 -10 7 -20 11 -23 9 -2 -3 1 -9 9 -13 10 -6 9
-10 -4 -14 -9 -4 -13 -3 -10 3 3 6 -4 11 -17 11 -17 1 -18 3 -5 6 27 7 20 20
-10 19 -16 0 -38 3 -50 7 -14 5 -23 4 -23 -2z"/>
<path d="M258 2313 c-9 -18 -9 -73 0 -73 12 0 21 69 11 76 -4 2 -9 1 -11 -3z"/>
<path d="M2086 2203 c7 -65 14 -125 15 -133 0 -8 5 5 10 29 5 26 5 49 0 55 -5
6 -10 38 -12 71 -3 67 -8 95 -18 95 -4 0 -1 -53 5 -117z"/>
<path d="M433 2235 c-8 -21 -10 -236 -2 -227 4 4 10 60 14 125 6 108 3 139
-12 102z"/>
<path d="M680 2224 c21 -21 22 -27 10 -34 -14 -9 -3 -14 18 -8 18 6 -19 68
-41 68 -6 0 0 -11 13 -26z"/>
<path d="M370 2230 c0 -7 3 -10 7 -7 3 4 3 10 0 14 -4 3 -7 0 -7 -7z"/>
<path d="M0 2220 c0 -10 37 -20 75 -20 42 0 59 -13 50 -39 -4 -12 -2 -21 4
-21 6 0 11 6 11 13 0 7 9 18 20 25 30 18 15 32 -33 32 -23 1 -61 5 -84 9 -24
5 -43 5 -43 1z"/>
<path d="M213 2213 c4 -3 10 -3 14 0 3 4 0 7 -7 7 -7 0 -10 -3 -7 -7z"/>
<path d="M1212 2195 c6 -14 15 -25 20 -25 5 0 1 11 -8 25 -9 14 -18 25 -20 25
-2 0 2 -11 8 -25z"/>
<path d="M357 2180 c-7 -38 -27 -206 -27 -229 0 -43 11 10 25 118 15 114 16
189 2 111z"/>
<path d="M160 2151 c0 -5 -8 -26 -17 -47 -20 -47 -20 -47 -34 -160 -6 -50 -9
-102 -7 -115 2 -13 10 23 17 81 7 58 22 130 32 160 31 84 32 90 20 90 -6 0
-11 -4 -11 -9z"/>
<path d="M497 2133 c-4 -3 -6 -43 -5 -87 1 -81 1 -81 8 4 7 90 7 94 -3 83z"/>
<path d="M1060 2130 c0 -7 3 -10 7 -7 3 4 3 10 0 14 -4 3 -7 0 -7 -7z"/>
<path d="M1195 2131 c-29 -5 -35 -8 -20 -12 28 -8 96 1 89 12 -6 10 -7 10 -69
0z"/>
<path d="M2122 2085 c-1 -16 -5 -41 -8 -55 -5 -22 -4 -23 6 -7 6 9 9 34 7 55
-3 32 -4 33 -5 7z"/>
<path d="M1060 2090 c0 -7 3 -10 7 -7 3 4 3 10 0 14 -4 3 -7 0 -7 -7z"/>
<path d="M570 2060 c0 -5 5 -10 11 -10 5 0 7 5 4 10 -3 6 -8 10 -11 10 -2 0
-4 -4 -4 -10z"/>
<path d="M1358 2043 c6 -2 18 -2 25 0 6 3 1 5 -13 5 -14 0 -19 -2 -12 -5z"/>
<path d="M1280 2030 c-20 -13 5 -13 35 0 20 9 20 9 0 9 -11 0 -27 -4 -35 -9z"/>
<path d="M1350 2020 c0 -7 3 -10 7 -7 3 4 3 10 0 14 -4 3 -7 0 -7 -7z"/>
<path d="M1453 2023 c4 -3 10 -3 14 0 3 4 0 7 -7 7 -7 0 -10 -3 -7 -7z"/>
<path d="M1331 2004 c0 -11 3 -14 6 -6 3 7 2 16 -1 19 -3 4 -6 -2 -5 -13z"/>
<path d="M1413 2013 c4 -3 10 -3 14 0 3 4 0 7 -7 7 -7 0 -10 -3 -7 -7z"/>
<path d="M1480 2010 c0 -7 3 -10 7 -7 3 4 3 10 0 14 -4 3 -7 0 -7 -7z"/>
<path d="M1400 1990 c0 -13 11 -13 30 0 12 8 11 10 -7 10 -13 0 -23 -4 -23
-10z"/>
<path d="M2360 1978 c0 -5 -23 -19 -50 -30 -67 -28 -58 -33 14 -8 41 14 63 17
76 10 10 -5 32 -7 49 -4 19 4 31 2 31 -4 0 -6 12 -9 28 -7 15 2 34 4 42 5 39
3 -42 23 -95 22 -33 0 -52 2 -42 5 29 8 19 19 -18 20 -19 1 -35 -3 -35 -9z"/>
<path d="M3300 1975 c-17 -20 -28 -75 -35 -170 -4 -44 -11 -103 -16 -131 -5
-28 -7 -58 -3 -68 6 -15 -1 -16 -73 -10 -94 8 -124 -3 -122 -44 2 -23 2 -24 6
-4 7 34 37 45 104 37 32 -4 62 -11 65 -16 10 -17 34 -10 27 9 -6 15 -5 15 10
3 9 -7 15 -17 12 -21 -3 -5 9 -11 26 -15 31 -7 31 -7 9 -22 -16 -12 -53 -16
-148 -17 -193 -2 -203 2 -347 150 -90 92 -114 122 -95 118 17 -4 11 3 -20 21
-58 34 -61 38 -25 29 17 -4 27 -3 23 1 -9 9 -116 35 -143 34 -11 0 1 -7 28
-15 26 -8 47 -19 47 -25 0 -10 76 -89 82 -85 2 2 42 -37 89 -86 47 -48 84 -88
82 -88 -3 0 -14 5 -26 12 -19 10 -20 9 -9 -4 7 -9 47 -28 89 -43 77 -28 109
-54 139 -108 25 -46 10 -41 -24 8 -17 25 -46 54 -64 65 -49 30 -57 24 -12 -9
45 -32 72 -61 89 -94 6 -12 17 -21 23 -19 7 1 12 -5 12 -14 0 -9 -5 -12 -12
-8 -7 4 -8 3 -4 -4 10 -16 36 -15 32 1 -19 60 -17 66 15 57 17 -5 37 -17 44
-27 11 -14 16 -15 25 -6 13 12 -19 34 -70 47 -21 5 -100 68 -100 80 0 8 46 -6
86 -27 41 -21 43 -21 102 -3 36 11 74 16 94 13 18 -3 28 -3 21 -1 -13 6 28 45
80 77 15 10 27 22 27 27 0 5 -16 -2 -36 -15 -41 -28 -56 -30 -87 -14 -51 28
-58 48 -52 139 9 131 25 242 40 273 15 30 14 34 -5 12z m-625 -185 c3 -5 4
-10 1 -10 -3 0 -8 5 -11 10 -3 6 -4 10 -1 10 3 0 8 -4 11 -10z m665 -280 c-8
-5 -19 -10 -25 -10 -5 0 -3 5 5 10 8 5 20 10 25 10 6 0 3 -5 -5 -10z m-83 -16
c-3 -3 -12 -4 -19 -1 -8 3 -5 6 6 6 11 1 17 -2 13 -5z m-66 -19 c1 -12 -59 -7
-81 6 -10 7 0 9 33 7 26 -2 48 -7 48 -13z"/>
<path d="M1435 1960 c3 -5 11 -10 16 -10 6 0 7 5 4 10 -3 6 -11 10 -16 10 -6
0 -7 -4 -4 -10z"/>
<path d="M1473 1953 c4 -3 10 -3 14 0 3 4 0 7 -7 7 -7 0 -10 -3 -7 -7z"/>
<path d="M491 1934 c0 -11 3 -14 6 -6 3 7 2 16 -1 19 -3 4 -6 -2 -5 -13z"/>
<path d="M2053 1943 c4 -3 10 -3 14 0 3 4 0 7 -7 7 -7 0 -10 -3 -7 -7z"/>
<path d="M1936 1922 c-3 -3 -6 -8 -6 -12 0 -9 49 0 54 9 5 8 -41 11 -48 3z"/>
<path d="M1889 1911 c11 -7 11 -9 0 -14 -8 -3 -9 -6 -3 -6 6 -1 16 5 22 12 8
10 6 13 -11 14 -15 2 -18 0 -8 -6z"/>
<path d="M2450 1904 c-14 -16 -13 -16 5 -7 15 8 43 5 114 -13 111 -28 133 -25
36 5 -105 33 -138 36 -155 15z"/>
<path d="M1853 1903 c4 -3 10 -3 14 0 3 4 0 7 -7 7 -7 0 -10 -3 -7 -7z"/>
<path d="M2251 1899 c-13 -5 -22 -11 -20 -14 8 -7 49 7 49 16 0 5 -1 9 -2 8
-2 0 -14 -5 -27 -10z"/>
<path d="M2353 1883 c4 -3 10 -3 14 0 3 4 0 7 -7 7 -7 0 -10 -3 -7 -7z"/>
<path d="M2320 1869 c0 -5 5 -7 10 -4 6 3 10 8 10 11 0 2 -4 4 -10 4 -5 0 -10
-5 -10 -11z"/>
<path d="M1718 1863 c-10 -2 -18 -9 -18 -14 0 -6 8 -5 20 1 15 8 31 25 18 19
-2 -1 -11 -3 -20 -6z"/>
<path d="M1926 1860 c-16 -5 -37 -18 -48 -29 -10 -12 -31 -21 -47 -21 -15 0
-36 -9 -46 -20 -10 -11 -13 -20 -8 -20 6 0 16 6 22 14 6 7 27 16 45 19 19 3
44 15 55 26 12 12 34 21 51 21 17 0 30 5 30 10 0 12 -14 12 -54 0z"/>
<path d="M1575 1840 c-8 -13 5 -13 25 0 13 8 13 10 -2 10 -9 0 -20 -4 -23 -10z"/>
<path d="M1633 1840 c-13 -5 -23 -11 -23 -14 0 -6 60 11 68 19 8 8 -20 5 -45
-5z"/>
<path d="M1819 1833 c-13 -15 -12 -15 11 -3 34 17 36 20 18 20 -9 0 -22 -7
-29 -17z"/>
<path d="M2511 1834 c12 -15 11 -16 -11 -9 -14 4 -22 4 -18 0 4 -4 29 -9 55
-11 48 -3 48 -3 9 17 -48 23 -52 24 -35 3z"/>
<path d="M1733 1833 c4 -3 10 -3 14 0 3 4 0 7 -7 7 -7 0 -10 -3 -7 -7z"/>
<path d="M2027 1816 c-16 -13 -38 -32 -50 -41 -16 -12 -13 -11 11 2 29 16 83
63 71 63 -2 0 -17 -11 -32 -24z"/>
<path d="M316 1812 c-11 -32 -33 -232 -26 -232 8 0 43 241 36 247 -2 3 -7 -4
-10 -15z"/>
<path d="M1680 1820 c-9 -6 -10 -10 -3 -10 6 0 15 5 18 10 8 12 4 12 -15 0z"/>
<path d="M1760 1812 c0 -5 -10 -13 -22 -19 -15 -6 -18 -12 -10 -17 7 -4 12 -2
12 3 0 6 6 11 14 11 8 0 16 7 20 15 3 8 1 15 -4 15 -6 0 -10 -4 -10 -8z"/>
<path d="M2344 1798 c-4 -7 -3 -8 4 -4 7 4 12 9 12 12 0 8 -9 4 -16 -8z"/>
<path d="M2535 1790 c3 -5 11 -10 16 -10 6 0 7 5 4 10 -3 6 -11 10 -16 10 -6
0 -7 -4 -4 -10z"/>
<path d="M659 1770 c4 -14 14 -25 22 -26 24 -1 49 -16 49 -29 0 -8 5 -17 10
-20 21 -13 3 31 -23 58 -28 27 -44 36 -32 17 11 -17 -7 -11 -21 8 -13 15 -13
14 -5 -8z"/>
<path d="M2608 1750 c23 -16 46 -30 51 -30 15 0 54 -54 42 -58 -16 -5 18 -59
57 -88 17 -14 32 -31 32 -38 0 -17 55 -101 102 -155 21 -24 36 -47 32 -50 -7
-7 -94 89 -94 105 0 6 -7 17 -15 24 -8 7 -24 31 -36 54 -17 36 -59 78 -59 61
0 -13 40 -82 54 -94 9 -8 37 -45 62 -82 25 -38 50 -69 56 -69 6 0 9 -3 5 -6
-10 -10 -68 37 -81 66 -17 41 -61 88 -88 95 -13 3 -29 19 -37 36 -7 16 -27 36
-44 45 -32 15 -32 15 -4 -9 34 -29 45 -67 16 -60 -11 3 -22 9 -25 14 -3 5 -10
9 -16 9 -6 0 -4 -8 5 -18 10 -10 17 -24 17 -30 0 -6 10 -14 22 -18 23 -7 134
-94 155 -122 7 -8 16 -13 19 -9 4 3 15 2 25 -3 23 -13 99 -19 99 -8 0 4 -5 8
-12 8 -6 0 -8 3 -5 6 4 4 -2 19 -13 34 -11 15 -16 31 -12 35 4 5 2 5 -4 2 -17
-10 -72 59 -101 125 -11 26 -11 26 38 1 28 -13 53 -32 56 -41 3 -10 14 -35 23
-57 10 -22 21 -51 25 -65 4 -14 17 -35 28 -47 12 -14 15 -23 8 -23 -7 0 -9 -5
-6 -11 4 -6 13 -8 20 -5 10 4 15 -8 18 -42 3 -47 3 -47 5 0 2 40 5 47 20 42
15 -5 15 -4 2 8 -9 7 -21 24 -27 38 -10 22 -12 23 -13 5 0 -15 -6 -10 -25 20
-14 22 -23 46 -20 53 2 6 1 12 -4 12 -5 0 -18 22 -29 49 -16 38 -29 54 -59 68
-79 39 -163 104 -163 126 0 5 7 1 16 -7 8 -9 23 -16 32 -16 12 1 9 5 -9 15
-14 7 -30 25 -37 39 -6 14 -29 34 -50 45 -21 11 -44 27 -51 35 -8 9 -20 16
-29 16 -8 0 4 -13 26 -30z m127 -286 c14 -9 25 -23 25 -30 0 -8 6 -17 14 -20
8 -3 17 -12 20 -19 6 -17 -61 28 -80 53 -26 34 -17 41 21 16z"/>
<path d="M479 1734 c-10 -58 4 -74 61 -74 51 0 51 0 45 -34 -4 -18 -2 -36 3
-40 5 -3 7 -17 4 -31 -4 -24 -8 -26 -46 -21 -41 5 -41 5 4 -8 25 -7 47 -11 50
-9 2 2 6 40 7 84 3 79 3 79 -22 73 -14 -3 -41 -3 -60 0 -32 6 -34 10 -37 49
-3 40 -3 40 -9 11z"/>
<path d="M2165 1749 c-4 -6 -5 -12 -2 -15 2 -3 7 2 10 11 7 17 1 20 -8 4z"/>
<path d="M2119 1738 c-8 -7 -25 -26 -39 -43 -18 -21 -13 -19 18 10 23 21 42
40 42 42 0 6 -6 3 -21 -9z"/>
<path d="M696 1716 c10 -8 21 -12 24 -10 5 6 -21 24 -34 24 -6 0 -1 -6 10 -14z"/>
<path d="M2143 1708 c-6 -7 -16 -24 -22 -38 -12 -24 -12 -24 4 -5 20 24 37 55
32 55 -3 0 -9 -6 -14 -12z"/>
<path d="M765 1700 c3 -5 8 -10 11 -10 3 0 2 5 -1 10 -3 6 -8 10 -11 10 -3 0
-2 -4 1 -10z"/>
<path d="M2600 1687 c0 -9 5 -19 11 -22 5 -4 9 -14 7 -23 -3 -17 28 -62 43
-62 6 0 -43 106 -56 118 -3 3 -5 -2 -5 -11z"/>
<path d="M2235 1627 c-38 -36 -38 -37 -9 -20 28 15 61 52 52 57 -2 1 -21 -16
-43 -37z"/>
<path d="M527 1639 c7 -7 15 -10 18 -7 3 3 -2 9 -12 12 -14 6 -15 5 -6 -5z"/>
<path d="M470 1590 c0 -65 14 -65 17 0 1 28 -3 50 -8 50 -5 0 -9 -22 -9 -50z"/>
<path d="M2540 1630 c0 -7 3 -10 7 -7 3 4 3 10 0 14 -4 3 -7 0 -7 -7z"/>
<path d="M2785 1590 c3 -5 8 -10 11 -10 3 0 2 5 -1 10 -3 6 -8 10 -11 10 -3 0
-2 -4 1 -10z"/>
<path d="M2595 1580 c3 -5 8 -10 11 -10 3 0 2 5 -1 10 -3 6 -8 10 -11 10 -3 0
-2 -4 1 -10z"/>
<path d="M278 1515 c-10 -85 -35 -337 -42 -417 -6 -61 3 -94 18 -69 4 5 2 12
-3 15 -11 7 -7 69 20 276 11 85 19 178 17 205 -3 50 -3 50 -10 -10z"/>
<path d="M2610 1547 c0 -14 46 -44 55 -35 3 2 -9 14 -25 27 -21 15 -30 18 -30
8z"/>
<path d="M611 1494 c0 -11 3 -14 6 -6 3 7 2 16 -1 19 -3 4 -6 -2 -5 -13z"/>
<path d="M460 1470 c0 -7 3 -10 7 -7 3 4 3 10 0 14 -4 3 -7 0 -7 -7z"/>
<path d="M2874 1453 c9 -17 20 -35 26 -38 18 -11 10 10 -16 40 -25 30 -25 30
-10 -2z"/>
<path d="M3350 1460 c0 -5 10 -10 23 -10 18 0 19 2 7 10 -19 13 -30 13 -30 0z"/>
<path d="M470 1440 c0 -7 3 -10 7 -7 3 4 3 10 0 14 -4 3 -7 0 -7 -7z"/>
<path d="M2630 1432 c14 -11 27 -16 29 -11 4 13 2 15 -29 24 -25 8 -25 8 0
-13z"/>
<path d="M2613 1412 c9 -10 15 -21 12 -24 -3 -3 1 -8 10 -11 8 -4 15 -4 15 -1
0 14 -21 42 -37 48 -16 6 -16 6 0 -12z"/>
<path d="M3380 1410 c0 -5 7 -7 15 -4 8 4 15 8 15 10 0 2 -7 4 -15 4 -8 0 -15
-4 -15 -10z"/>
<path d="M3426 1405 c-3 -8 -1 -15 4 -15 6 0 10 7 10 15 0 8 -2 15 -4 15 -2 0
-6 -7 -10 -15z"/>
<path d="M2570 1401 c0 -5 -2 -16 -5 -23 -7 -17 61 -42 71 -27 3 5 -5 9 -16 9
-16 0 -20 5 -16 15 3 9 -3 19 -14 25 -12 6 -20 7 -20 1z"/>
<path d="M3275 1399 c4 -5 12 -8 18 -6 7 2 24 0 40 -4 15 -4 27 -4 27 1 0 9
-35 20 -68 20 -14 0 -21 -4 -17 -11z"/>
<path d="M2660 1385 c0 -8 9 -19 20 -25 23 -12 27 -35 5 -26 -11 4 -9 -4 7
-24 12 -16 24 -27 27 -25 2 3 -1 11 -7 17 -16 16 -15 28 3 28 8 0 15 7 15 15
0 23 14 18 37 -13 21 -29 74 -47 163 -57 40 -4 43 -3 27 9 -10 8 -26 12 -36 9
-32 -8 -96 16 -140 53 -38 33 -43 35 -54 20 -12 -16 -15 -15 -40 8 -18 17 -27
20 -27 11z"/>
<path d="M820 1375 c-7 -9 -8 -15 -2 -15 5 0 12 7 16 15 3 8 4 15 2 15 -2 0
-9 -7 -16 -15z"/>
<path d="M2980 1380 c0 -5 7 -10 16 -10 9 0 12 -5 8 -12 -4 -7 -3 -8 5 -4 6 4
20 2 29 -4 9 -7 4 -1 -11 14 -29 27 -47 33 -47 16z"/>
<path d="M290 1370 c0 -7 3 -10 7 -7 3 4 3 10 0 14 -4 3 -7 0 -7 -7z"/>
<path d="M3385 1370 c-4 -6 -12 -9 -18 -8 -7 1 -27 -6 -46 -16 -20 -11 -47
-16 -67 -14 -23 3 -31 1 -24 -6 15 -15 128 7 170 33 30 18 32 21 13 21 -12 0
-25 -5 -28 -10z"/>
<path d="M3233 1353 c4 -3 10 -3 14 0 3 4 0 7 -7 7 -7 0 -10 -3 -7 -7z"/>
<path d="M2560 1336 c0 -8 -8 -17 -17 -19 -10 -2 4 -4 31 -4 47 0 48 2 4 28
-14 7 -18 6 -18 -5z"/>
<path d="M3273 1343 c4 -3 10 -3 14 0 3 4 0 7 -7 7 -7 0 -10 -3 -7 -7z"/>
<path d="M810 1320 c0 -7 3 -10 7 -7 3 4 3 10 0 14 -4 3 -7 0 -7 -7z"/>
<path d="M2488 1323 c6 -2 18 -2 25 0 6 3 1 5 -13 5 -14 0 -19 -2 -12 -5z"/>
<path d="M3183 1323 c4 -3 10 -3 14 0 3 4 0 7 -7 7 -7 0 -10 -3 -7 -7z"/>
<path d="M3128 1309 c-6 -4 -5 -9 3 -12 11 -4 11 -6 1 -6 -7 -1 -23 4 -35 10
-22 10 -22 10 -2 -6 12 -10 28 -13 40 -9 11 3 43 9 70 13 50 7 50 7 -8 12 -33
2 -64 1 -69 -2z"/>
<path d="M2276 1295 c-11 -8 -15 -15 -10 -15 6 0 19 7 30 15 10 8 15 14 9 14
-5 0 -19 -6 -29 -14z"/>
<path d="M2468 1283 c-9 -2 -20 -13 -23 -23 -3 -10 -14 -21 -23 -24 -9 -3 -5
-4 11 -2 15 2 30 -1 33 -5 3 -5 0 -9 -6 -9 -6 0 -8 -5 -4 -11 5 -8 -3 -10 -25
-7 -17 2 -31 1 -31 -4 0 -4 16 -8 36 -8 21 0 33 -4 29 -10 -3 -5 -14 -10 -24
-10 -10 0 -26 -9 -36 -20 -10 -11 -30 -20 -44 -21 -26 0 -26 0 -3 -11 33 -17
27 -26 -20 -31 -39 -3 -38 -4 13 -5 31 -1 60 3 67 10 6 6 32 11 56 9 24 -1 47
3 51 9 5 8 -3 11 -25 8 -20 -2 -35 2 -37 10 -5 14 18 15 89 3 26 -4 45 -4 42
1 -3 4 -20 8 -39 8 -19 0 -36 4 -39 9 -4 5 4 7 16 3 21 -5 22 -4 8 13 -14 17
-14 18 8 6 13 -7 26 -10 29 -7 3 3 -6 11 -21 17 -29 14 -35 29 -10 29 13 0 14
3 4 15 -15 18 8 30 40 22 11 -3 20 -1 20 4 0 5 -9 9 -21 9 -15 0 -19 5 -15 15
5 15 -61 20 -106 8z m39 -10 c-4 -3 -10 -3 -14 0 -3 4 0 7 7 7 7 0 10 -3 7 -7z
m-29 -28 c-3 -3 -9 2 -12 12 -6 14 -5 15 5 6 7 -7 10 -15 7 -18z m79 18 c-4
-3 -10 -3 -14 0 -3 4 0 7 7 7 7 0 10 -3 7 -7z m-37 -84 c0 -4 -6 -9 -13 -12
-8 -3 -14 0 -14 7 0 7 6 13 14 13 7 0 13 -4 13 -8z m-70 -33 c0 -2 -8 -10 -17
-17 -16 -13 -17 -12 -4 4 13 16 21 21 21 13z m-43 -33 c-4 -3 -10 -3 -14 0 -3
4 0 7 7 7 7 0 10 -3 7 -7z"/>
<path d="M3432 1265 c0 -16 2 -22 5 -12 2 9 2 23 0 30 -3 6 -5 -1 -5 -18z"/>
<path d="M802 1255 c0 -38 12 -83 19 -70 3 6 0 30 -7 55 -10 37 -12 40 -12 15z"/>
<path d="M2215 1270 c-8 -13 5 -13 25 0 13 8 13 10 -2 10 -9 0 -20 -4 -23 -10z"/>
<path d="M2695 1260 c10 -11 20 -20 23 -20 3 0 -3 9 -13 20 -10 11 -20 20 -23
20 -3 0 3 -9 13 -20z"/>
<path d="M2751 1263 c9 -15 26 -22 68 -26 59 -5 138 -44 160 -79 12 -20 -15
-27 -34 -9 -6 5 -28 11 -50 13 -40 3 -40 3 -43 -38 -3 -40 -3 -40 -46 -30 -43
10 -43 10 -45 65 -1 31 -6 60 -11 65 -11 11 -2 -105 14 -179 10 -45 14 -50 42
-53 17 -2 35 -12 43 -23 15 -26 16 -25 -36 -34 -38 -6 -44 -4 -51 15 -6 16 -8
9 -9 -29 0 -28 3 -54 8 -57 5 -3 9 -14 9 -24 0 -10 5 -22 11 -26 8 -4 9 0 4
15 -4 13 -2 21 5 21 20 0 111 -51 105 -59 -7 -12 -41 -2 -56 15 -6 8 -16 14
-22 14 -15 0 2 -16 37 -34 28 -14 28 -14 -12 -35 -53 -27 -52 -27 -52 14 0 19
-4 35 -10 35 -5 0 -9 -20 -8 -45 0 -42 2 -45 22 -39 38 12 81 36 108 62 27 25
27 25 -54 66 -94 47 -117 74 -44 52 25 -8 47 -12 50 -9 7 7 96 -82 96 -96 0
-27 -66 -79 -122 -96 -39 -13 -58 -24 -62 -38 -4 -17 -11 -19 -40 -14 -32 5
-36 3 -35 -16 0 -12 3 -16 6 -9 6 14 49 16 58 2 3 -5 24 -10 46 -10 28 0 39
-4 36 -12 -2 -8 -16 -12 -35 -10 -35 4 -54 -20 -34 -40 8 -8 4 -22 -16 -50
-27 -39 -27 -39 -86 -34 -58 4 -59 4 -105 -39 -25 -24 -42 -47 -38 -51 4 -4
15 2 23 15 12 16 19 20 27 12 6 -6 18 -11 26 -11 11 1 9 4 -6 13 -19 11 -20
14 -7 32 12 16 24 19 82 17 65 -3 69 -2 80 22 6 14 20 26 29 26 16 0 16 -2 3
-11 -13 -9 -13 -10 2 -6 11 4 29 -8 53 -36 54 -63 119 -127 128 -127 12 0 25
-15 94 -105 64 -85 97 -118 126 -128 42 -15 -3 52 -141 213 -37 43 -99 73 -87
42 3 -10 3 -13 -2 -7 -5 6 -42 47 -82 93 -41 45 -72 84 -70 86 2 1 19 8 37 16
18 7 58 28 89 47 31 18 58 31 61 29 2 -3 0 -51 -5 -107 -9 -102 -9 -102 17
-126 84 -81 283 -100 325 -32 4 6 12 47 19 92 12 82 12 82 29 27 9 -30 18 -64
20 -75 3 -11 5 -4 6 16 0 19 -6 57 -15 84 -16 45 -16 49 1 78 17 28 17 30 0
39 -13 8 -15 18 -10 47 4 20 8 54 10 76 1 22 6 53 10 68 7 27 6 28 -13 16 -25
-16 -39 -78 -20 -90 25 -16 -3 -9 -40 10 -48 25 -120 41 -183 41 -73 0 -154
26 -181 58 -13 15 -26 27 -29 27 -3 0 -21 11 -40 25 -19 15 -47 27 -63 28 -16
1 -32 5 -35 8 -3 4 6 5 21 2 15 -3 29 0 31 6 2 7 14 4 33 -8 29 -19 29 -19 12
1 -26 28 -24 51 2 28 11 -10 20 -13 20 -8 0 6 -12 18 -26 28 -14 9 -35 37 -45
61 -16 35 -25 44 -47 45 -21 1 -22 3 -6 6 12 2 70 -12 129 -32 59 -19 110 -34
112 -32 5 5 -96 47 -113 47 -16 0 -20 55 -5 65 6 3 28 2 51 -1 39 -6 41 -8 34
-37 -4 -19 -2 -27 4 -23 5 3 12 23 14 43 3 21 8 46 13 57 7 15 5 17 -13 11
-13 -3 -22 -2 -22 4 0 14 -71 62 -82 55 -4 -3 -8 -1 -8 5 0 9 -76 29 -110 29
-8 0 -23 3 -33 7 -17 7 -18 6 -6 -12z m131 -152 c2 -22 0 -37 -4 -35 -8 5 -11
74 -4 74 2 0 6 -18 8 -39z m48 35 c0 -9 -30 -14 -35 -6 -4 6 3 10 14 10 12 0
21 -2 21 -4z m-109 -123 c5 -14 5 -23 -2 -23 -5 0 -13 8 -16 18 -4 9 -11 21
-17 25 -7 5 -3 7 8 5 10 -2 22 -13 27 -25z m295 -263 c45 0 55 -3 51 -15 -5
-11 -1 -12 19 -5 38 15 154 -16 154 -41 0 -3 -21 -7 -47 -8 -72 -2 -65 -11 9
-11 63 0 66 -1 60 -22 -5 -21 -6 -21 -13 -2 -6 16 -8 15 -8 -8 -1 -14 5 -28
12 -31 9 -3 9 -7 -1 -19 -7 -9 -15 -49 -18 -90 -12 -186 -25 -203 -151 -194
-116 7 -203 64 -189 122 4 13 9 69 12 126 3 56 8 106 10 110 3 4 -2 8 -10 8
-9 0 -16 5 -16 10 0 6 11 8 27 4 26 -7 26 -7 -7 23 -40 35 -43 34 -126 -45
-34 -32 -46 -38 -72 -34 -18 2 -32 8 -32 12 0 8 91 50 108 50 5 0 17 9 27 20
10 11 24 20 32 20 8 0 12 4 9 9 -3 5 4 11 16 15 22 5 22 6 3 20 -14 11 -5 10
33 -4 29 -11 77 -20 108 -20z m-136 -89 c0 -24 -6 -27 -65 -42 -60 -15 -64
-15 -53 0 64 80 118 100 118 42z m-167 -48 c-7 -2 -19 -2 -25 0 -7 3 -2 5 12
5 14 0 19 -2 13 -5z m142 -2 c5 -9 -106 -81 -123 -81 -4 0 0 5 8 10 8 5 15 17
15 27 0 13 7 17 23 16 12 -2 31 6 42 17 23 23 26 24 35 11z m-131 -50 c3 -5
-1 -12 -10 -15 -22 -9 -24 -8 -24 9 0 16 25 21 34 6z m533 -28 c-4 -3 -7 0 -7
7 0 7 3 10 7 7 3 -4 3 -10 0 -14z m-299 -283 c26 -45 26 -45 -21 5 -49 53 -61
77 -26 53 12 -7 33 -34 47 -58z m75 -92 c19 -24 38 -50 42 -58 20 -35 -66 49
-88 86 -18 31 14 11 46 -28z"/>
<path d="M2986 762 c-3 -4 4 -9 15 -9 23 -2 25 3 4 10 -8 4 -16 3 -19 -1z"/>
<path d="M3063 723 c4 -3 10 -3 14 0 3 4 0 7 -7 7 -7 0 -10 -3 -7 -7z"/>
<path d="M3165 689 c16 -5 33 -5 38 0 4 4 -9 8 -30 8 -38 1 -38 1 -8 -8z"/>
<path d="M3168 658 c5 -5 16 -8 23 -6 8 3 3 7 -10 11 -17 4 -21 3 -13 -5z"/>
<path d="M3182 610 c-14 -23 -15 -30 -3 -30 8 0 24 41 18 47 -2 1 -8 -7 -15
-17z"/>
<path d="M3182 525 c-1 -16 -5 -41 -8 -55 -5 -19 -4 -22 5 -14 7 7 11 29 8 55
-2 30 -4 34 -5 14z"/>
<path d="M3205 420 c-3 -5 -1 -10 4 -10 6 0 11 5 11 10 0 6 -2 10 -4 10 -3 0
-8 -4 -11 -10z"/>
<path d="M2950 670 c-9 -6 -10 -10 -3 -10 6 0 15 5 18 10 8 12 4 12 -15 0z"/>
<path d="M2220 1225 c-7 -8 -8 -15 -2 -15 5 0 15 7 22 15 7 8 8 15 2 15 -5 0
-15 -7 -22 -15z"/>
<path d="M2577 1223 c-10 -10 -8 -23 4 -23 5 0 8 4 5 9 -4 5 0 12 6 14 7 3 8
6 2 6 -6 1 -14 -2 -17 -6z"/>
<path d="M2122 1111 c-35 -37 -69 -75 -74 -85 -8 -15 -12 -16 -19 -5 -6 9 -7
1 -3 -21 6 -30 5 -33 -7 -20 -8 9 -23 23 -33 30 -22 16 -17 3 11 -30 7 -8 20
-24 29 -35 13 -16 15 -17 10 -2 -3 9 -1 17 4 17 6 0 10 5 10 10 0 6 11 23 25
38 14 15 25 31 25 37 0 6 9 16 20 23 12 7 18 17 15 22 -3 6 1 10 9 10 9 0 16
6 16 13 0 32 39 51 80 40 22 -5 37 -6 34 -2 -4 8 -74 30 -84 28 -3 -1 -34 -32
-68 -68z"/>
<path d="M3401 1134 c0 -11 3 -14 6 -6 3 7 2 16 -1 19 -3 4 -6 -2 -5 -13z"/>
<path d="M800 1126 c0 -8 5 -18 10 -21 6 -3 10 1 10 9 0 8 -4 18 -10 21 -5 3
-10 -1 -10 -9z"/>
<path d="M3425 1130 c3 -5 8 -10 11 -10 2 0 4 5 4 10 0 6 -5 10 -11 10 -5 0
-7 -4 -4 -10z"/>
<path d="M2240 1105 c0 -8 4 -15 8 -15 5 0 9 7 9 15 0 8 -4 15 -9 15 -4 0 -8
-7 -8 -15z"/>
<path d="M1050 1100 c0 -7 3 -10 7 -7 3 4 3 10 0 14 -4 3 -7 0 -7 -7z"/>
<path d="M2540 1094 c-31 -17 -87 -18 -93 -1 -4 7 -6 6 -6 -5 -1 -9 7 -19 17
-21 14 -4 13 -5 -3 -6 -12 0 -26 -6 -32 -12 -6 -6 -38 -13 -72 -16 -76 -7 -81
-20 -6 -15 56 3 56 3 38 -17 -10 -12 -22 -21 -27 -21 -5 0 -18 -8 -29 -17 -19
-17 -20 -17 -14 0 4 9 2 17 -3 17 -6 0 -11 -4 -11 -10 -1 -5 -2 -16 -3 -22 -1
-7 3 -16 9 -20 7 -6 6 -11 -2 -16 -7 -4 -9 -13 -4 -20 10 -17 91 48 107 85 8
18 13 22 16 12 4 -11 12 -8 34 12 16 15 38 32 49 38 20 13 20 13 0 7 -17 -5
-16 -3 5 14 14 11 30 20 36 20 7 0 14 7 18 15 3 8 4 15 3 14 -1 -1 -13 -7 -27
-15z m-83 -81 c-4 -3 -7 0 -7 7 0 7 3 10 7 7 3 -4 3 -10 0 -14z m-20 0 c-4 -3
-10 -3 -14 0 -3 4 0 7 7 7 7 0 10 -3 7 -7z m-90 -70 c-4 -3 -7 0 -7 7 0 7 3
10 7 7 3 -4 3 -10 0 -14z"/>
<path d="M3401 1094 c0 -11 3 -14 6 -6 3 7 2 16 -1 19 -3 4 -6 -2 -5 -13z"/>
<path d="M3425 1101 c-3 -5 -1 -12 5 -16 5 -3 10 1 10 9 0 18 -6 21 -15 7z"/>
<path d="M2935 1090 c3 -5 8 -10 11 -10 2 0 4 5 4 10 0 6 -5 10 -11 10 -5 0
-7 -4 -4 -10z"/>
<path d="M1104 1030 c4 -53 4 -54 -9 -25 -14 30 -14 30 -15 4 0 -35 20 -53 35
-32 17 23 52 8 82 -38 14 -21 30 -39 34 -39 5 0 9 -8 9 -18 0 -23 33 -55 45
-45 4 5 5 0 1 -11 -5 -14 -3 -17 10 -12 13 5 15 1 10 -20 -4 -16 -3 -23 3 -19
6 3 13 21 17 40 3 19 11 35 16 35 6 0 8 -9 5 -20 -10 -38 9 -20 30 28 44 104
42 99 42 77 1 -11 -6 -30 -14 -42 -13 -18 -13 -26 -1 -53 16 -39 26 -22 26 43
1 39 2 41 15 23 17 -22 20 -50 5 -41 -16 10 -12 -21 5 -35 8 -7 15 -20 16 -29
0 -12 2 -12 10 4 15 30 -13 140 -35 139 -12 -1 -16 7 -16 30 -1 31 -1 30 -26
-16 -13 -27 -29 -48 -34 -48 -6 0 -10 -8 -10 -17 -1 -14 -4 -13 -14 6 -13 23
-13 23 -19 2 -8 -31 -24 -26 -32 12 -6 28 -8 29 -14 12 -8 -19 -8 -19 -15 3
-4 13 -10 21 -14 18 -3 -3 -12 3 -20 15 -8 11 -20 18 -28 15 -7 -3 -27 8 -43
24 -17 15 -31 23 -31 17 0 -19 -12 1 -21 35 -7 27 -8 23 -5 -22z m136 -115 c0
-5 -9 1 -20 15 -11 14 -20 30 -20 35 0 6 9 -1 20 -15 11 -14 20 -29 20 -35z
m104 -41 c3 -8 2 -12 -4 -9 -6 3 -10 10 -10 16 0 14 7 11 14 -7z"/>
<path d="M760 1061 c0 -5 5 -13 10 -16 6 -3 10 -2 10 4 0 5 -4 13 -10 16 -5 3
-10 2 -10 -4z"/>
<path d="M2353 1063 c4 -3 10 -3 14 0 3 4 0 7 -7 7 -7 0 -10 -3 -7 -7z"/>
<path d="M2383 1063 c4 -3 10 -3 14 0 3 4 0 7 -7 7 -7 0 -10 -3 -7 -7z"/>
<path d="M2611 1054 c0 -11 3 -14 6 -6 3 7 2 16 -1 19 -3 4 -6 -2 -5 -13z"/>
<path d="M2948 1063 c7 -3 16 -2 19 1 4 3 -2 6 -13 5 -11 0 -14 -3 -6 -6z"/>
<path d="M3420 1061 c0 -6 5 -13 10 -16 6 -3 10 1 10 9 0 9 -4 16 -10 16 -5 0
-10 -4 -10 -9z"/>
<path d="M2303 1053 c4 -3 10 -3 14 0 3 4 0 7 -7 7 -7 0 -10 -3 -7 -7z"/>
<path d="M840 1044 c0 -6 14 -23 30 -39 17 -16 30 -24 30 -19 0 6 -13 23 -30
39 -16 16 -30 24 -30 19z"/>
<path d="M1042 1010 c1 -17 5 -33 10 -36 13 -8 10 -134 -3 -134 -7 0 -9 -12
-4 -36 4 -26 3 -34 -6 -29 -8 5 -9 22 -4 54 12 73 10 120 -4 133 -11 11 -12 8
-5 -12 5 -14 8 -36 7 -50 -4 -56 -16 -116 -24 -125 -5 -5 -9 -14 -9 -20 0 -5
5 -3 10 5 7 11 10 3 11 -30 1 -25 4 -35 6 -22 5 27 8 27 33 2 12 -12 15 -22 9
-26 -6 -4 -16 0 -21 7 -6 10 -7 6 -2 -11 9 -33 13 -37 24 -20 5 8 14 16 20 16
5 1 15 2 20 3 20 2 9 21 -15 27 -29 7 -28 5 -14 40 7 20 7 47 -2 96 -13 70 -8
92 14 68 10 -10 9 -11 -2 -5 -11 6 -12 1 -5 -31 4 -21 8 -65 9 -98 1 -44 6
-61 19 -68 20 -11 50 -3 41 11 -3 6 -12 8 -20 4 -8 -3 -15 0 -15 6 0 9 28 16
53 12 13 -2 8 12 -19 51 -32 46 -40 49 -18 7 11 -23 13 -34 5 -42 -8 -8 -11
-6 -11 5 0 9 -4 18 -9 20 -4 2 -11 28 -14 58 -3 30 -3 46 0 35 3 -11 10 -24
15 -30 8 -7 9 -4 4 8 -3 10 -6 25 -6 32 0 7 -11 27 -25 43 -14 17 -25 41 -25
55 0 31 -9 57 -20 57 -5 0 -8 -14 -8 -30z m27 -207 c0 -25 -1 -25 -8 -8 -5 11
-7 23 -4 28 8 14 13 7 12 -20z"/>
<path d="M1705 1015 c16 -110 18 -116 48 -145 37 -35 59 -40 31 -7 -23 25 -46
73 -68 137 -11 31 -14 35 -11 15z"/>
<path d="M2263 1033 c4 -3 10 -3 14 0 3 4 0 7 -7 7 -7 0 -10 -3 -7 -7z"/>
<path d="M776 1021 c-3 -5 1 -11 9 -15 8 -3 15 -1 15 4 0 13 -18 22 -24 11z"/>
<path d="M1940 1010 c7 -14 18 -31 24 -39 6 -8 11 -25 11 -38 1 -23 1 -23 -22
4 -15 18 -21 21 -17 9 4 -10 1 -22 -7 -28 -11 -8 -10 -9 4 -4 9 3 17 0 17 -5
0 -7 -11 -9 -25 -7 -17 4 -25 1 -25 -9 0 -8 5 -11 10 -8 13 8 13 -26 -1 -45
-9 -13 -10 -13 -6 1 3 9 -1 26 -9 37 -8 11 -20 44 -28 74 -10 34 -15 44 -15
27 -1 -15 6 -46 15 -70 9 -24 17 -48 18 -54 8 -44 28 -43 49 1 14 28 22 35 37
31 16 -4 20 0 20 19 0 17 4 22 16 17 21 -8 -3 31 -49 80 -26 28 -28 29 -17 7z"/>
<path d="M1758 1015 c-3 -3 -2 -25 3 -48 4 -23 8 -45 9 -49 0 -4 13 -22 29
-40 34 -40 56 -82 64 -125 6 -32 6 -32 -52 -27 -32 3 -67 7 -76 7 -11 1 -21
-7 -25 -23 -7 -25 -7 -25 84 -25 50 0 98 4 106 9 8 5 -7 -14 -35 -43 -34 -35
-57 -51 -75 -51 -14 0 -36 -7 -48 -16 -24 -16 -78 -12 -67 5 5 9 -28 23 -80
34 -11 3 -5 5 15 6 20 0 44 -5 55 -13 29 -20 65 -29 65 -17 0 6 -7 11 -15 11
-8 0 -12 6 -10 13 4 8 -10 13 -46 14 -62 2 -79 15 -79 60 0 30 -2 33 -19 23
-27 -14 -51 -2 -51 25 0 13 -4 26 -8 29 -4 2 -6 -10 -4 -29 3 -24 -2 -39 -17
-54 -21 -21 -21 -21 -22 12 -1 24 -3 26 -6 9 -3 -15 -10 -22 -18 -18 -9 3 -12
0 -9 -8 3 -8 1 -17 -5 -21 -6 -3 -11 1 -11 10 0 11 -5 15 -15 11 -11 -4 -15 1
-15 17 0 38 -16 53 -29 28 -7 -12 -16 -19 -21 -16 -5 3 -12 0 -15 -6 -4 -5
-13 -8 -21 -5 -11 4 -12 2 -4 -13 8 -16 5 -21 -18 -30 -27 -11 -27 -11 3 -5
17 3 41 16 56 30 51 48 51 27 3 -86 -20 -47 -40 -103 -44 -125 -5 -22 -11 -47
-15 -56 -3 -10 -2 -20 3 -23 6 -3 5 -30 -3 -70 -6 -36 -8 -63 -4 -61 3 3 10
20 13 39 7 35 7 35 48 20 22 -8 59 -14 82 -14 41 0 41 0 43 -72 2 -96 21 -121
92 -128 28 -3 51 -2 51 2 0 5 -19 8 -42 8 -49 0 -60 6 -77 37 -15 29 -14 158
1 183 10 15 9 27 -1 57 -35 95 -42 125 -26 119 8 -3 15 -1 15 3 0 12 -26 21
-59 21 -35 0 -44 9 -28 29 6 8 -1 5 -17 -7 -32 -24 -55 -30 -39 -9 6 6 16 28
22 49 12 36 35 55 46 38 3 -5 24 -14 45 -20 35 -9 38 -13 28 -29 -8 -13 -8
-23 1 -37 12 -18 12 -18 8 4 -6 28 11 29 57 1 20 -12 36 -16 36 -11 0 6 -6 12
-12 15 -9 3 -7 7 5 12 10 4 24 2 33 -6 14 -11 12 -14 -11 -26 -14 -8 -31 -11
-37 -7 -7 4 -8 3 -4 -4 4 -7 15 -12 25 -12 9 0 23 -6 31 -12 12 -11 12 -10 0
5 -14 19 -2 36 27 37 20 0 26 -20 6 -21 -15 0 -14 -2 5 -11 18 -9 26 -8 45 9
37 33 100 65 118 60 12 -3 35 13 70 50 51 54 51 54 30 77 -11 12 -21 30 -21
39 0 9 -21 56 -47 104 -25 48 -51 105 -58 126 -6 21 -13 35 -17 32z m131 -311
c10 -9 -146 -3 -159 6 -10 7 12 8 70 4 47 -4 87 -8 89 -10z m-317 -29 c0 -14
1 -31 2 -37 1 -8 -12 -13 -29 -14 -17 0 -36 -3 -42 -7 -14 -9 -25 20 -17 47
14 44 83 53 86 11z m-112 -35 c0 -5 -2 -10 -4 -10 -3 0 -8 5 -11 10 -3 6 -1
10 4 10 6 0 11 -4 11 -10z m101 -51 c-18 -17 -25 -18 -36 -9 -23 19 -18 28 18
32 42 4 45 2 18 -23z m93 2 c4 -5 0 -12 -6 -14 -7 -3 -3 -6 9 -6 12 -1 25 -6
28 -11 11 -17 -25 -23 -43 -8 -9 8 -25 18 -34 21 -10 4 -18 11 -18 17 0 12 57
13 64 1z m-206 -142 c33 -100 28 -123 -30 -126 -43 -2 -128 23 -128 38 0 4 38
6 85 4 54 -3 85 -1 85 6 0 6 -5 7 -10 4 -6 -4 -19 -3 -28 1 -9 5 -42 9 -72 9
-55 0 -55 0 -54 30 5 102 14 117 76 113 50 -3 50 -3 76 -79z m-51 -75 c-3 -3
-12 -4 -19 -1 -8 3 -5 6 6 6 11 1 17 -2 13 -5z"/>
<path d="M340 1000 c0 -7 3 -10 7 -7 3 4 3 10 0 14 -4 3 -7 0 -7 -7z"/>
<path d="M1601 953 c-7 -33 -10 -71 -6 -84 5 -19 4 -21 -4 -9 -10 13 -11 13
-12 0 -1 -8 -5 3 -9 25 -7 40 -7 40 -9 2 -1 -46 -21 -40 -21 6 0 18 -5 39 -10
47 -7 12 -10 8 -10 -15 0 -31 -20 -75 -20 -46 0 8 -3 12 -6 8 -10 -9 13 -64
36 -89 12 -13 26 -32 30 -43 6 -14 9 -15 9 -4 1 8 -6 24 -14 35 -8 10 -15 24
-15 30 0 16 36 24 49 11 8 -8 11 -7 11 4 0 12 2 12 11 -1 7 -11 8 -4 4 25 -4
29 -3 34 4 20 10 -23 41 -52 41 -38 0 5 -7 19 -16 31 -8 12 -18 50 -22 84 -7
62 -7 62 -21 1z m-61 -107 c0 -3 -4 -8 -10 -11 -5 -3 -10 -1 -10 4 0 6 5 11
10 11 6 0 10 -2 10 -4z"/>
<path d="M2220 1002 c1 -13 30 -46 30 -33 0 7 4 10 9 6 5 -3 12 -1 16 5 3 5
23 10 43 10 24 0 32 3 24 9 -17 11 -122 14 -122 3z"/>
<path d="M381 974 c0 -11 3 -14 6 -6 3 7 2 16 -1 19 -3 4 -6 -2 -5 -13z"/>
<path d="M1540 980 c0 -7 3 -10 7 -7 3 4 3 10 0 14 -4 3 -7 0 -7 -7z"/>
<path d="M934 965 c11 -8 22 -12 25 -9 6 6 -19 24 -34 24 -5 -1 -1 -7 9 -15z"/>
<path d="M1660 948 c0 -25 -3 -29 -10 -18 -19 30 -11 -19 11 -61 25 -50 36
-45 15 5 -18 43 -3 39 20 -6 8 -16 17 -28 19 -26 7 6 -16 93 -27 103 -7 7 -8
3 -3 -14 5 -17 4 -21 -5 -16 -6 4 -10 18 -7 31 2 14 0 27 -4 30 -5 3 -9 -10
-9 -28z"/>
<path d="M2613 963 c4 -3 10 -3 14 0 3 4 0 7 -7 7 -7 0 -10 -3 -7 -7z"/>
<path d="M971 944 c0 -11 3 -14 6 -6 3 7 2 16 -1 19 -3 4 -6 -2 -5 -13z"/>
<path d="M2205 941 c3 -6 -2 -14 -11 -19 -14 -8 -14 -12 -3 -31 19 -30 43 -35
76 -16 20 12 22 15 8 12 -15 -3 -21 1 -21 14 0 11 4 19 8 19 4 0 8 5 8 11 0 6
-9 9 -20 6 -11 -3 -23 -1 -26 4 -3 5 -10 9 -15 9 -6 0 -8 -4 -4 -9z m35 -50
c0 -6 -5 -11 -11 -11 -5 0 -7 5 -4 10 3 6 -1 10 -9 10 -16 0 -21 12 -10 23 8
7 34 -17 34 -32z"/>
<path d="M2621 934 c0 -11 3 -14 6 -6 3 7 2 16 -1 19 -3 4 -6 -2 -5 -13z"/>
<path d="M3061 938 c-1 -9 4 -29 9 -44 9 -24 7 -31 -16 -55 -15 -16 -25 -31
-22 -35 3 -3 19 11 34 30 38 48 66 52 143 21 73 -28 84 -31 56 -12 -37 25
-114 48 -146 45 -28 -3 -33 1 -45 32 -7 19 -13 27 -13 18z"/>
<path d="M925 930 c3 -5 8 -10 11 -10 2 0 4 5 4 10 0 6 -5 10 -11 10 -5 0 -7
-4 -4 -10z"/>
<path d="M10 920 c0 -7 3 -10 7 -7 3 4 3 10 0 14 -4 3 -7 0 -7 -7z"/>
<path d="M912 875 c0 -36 -6 -49 -29 -69 -16 -15 -22 -26 -14 -26 8 0 11 -7 8
-20 -3 -14 0 -20 10 -20 11 0 14 -7 11 -25 -3 -14 -2 -25 2 -25 4 0 13 -30 20
-67 7 -38 21 -85 32 -105 24 -50 8 -49 -20 1 -17 31 -29 40 -58 44 -42 7 -51
1 -149 -91 -33 -32 -81 -75 -107 -96 -46 -39 -47 -40 -41 -85 7 -60 6 -59 113
-82 130 -27 135 -22 10 10 -89 23 -105 30 -108 48 -3 21 -2 21 44 7 26 -8 54
-14 63 -13 9 0 -12 9 -45 20 -83 26 -85 37 -11 101 34 29 90 79 125 111 82 76
114 76 165 1 66 -97 76 -179 27 -215 -24 -18 -30 -18 -124 -4 -55 8 -109 14
-120 14 -23 -2 19 -10 134 -28 41 -6 79 -16 84 -21 16 -16 -20 -22 -64 -10
-23 6 -44 9 -47 6 -3 -2 11 -8 31 -12 21 -3 43 -13 51 -21 12 -12 18 -9 38 24
14 21 34 46 45 57 29 25 25 61 -34 271 -17 60 -17 75 -3 75 6 0 9 -7 5 -15 -3
-9 0 -15 9 -15 8 0 15 8 15 18 1 15 2 15 11 -2 9 -14 8 -20 -1 -26 -18 -11 -3
-30 23 -30 24 0 146 114 135 125 -3 4 -18 -6 -32 -22 -14 -15 -26 -24 -26 -18
0 5 -6 1 -12 -8 -16 -21 -59 -27 -66 -8 -3 10 2 11 18 6 23 -7 23 -7 0 26 -33
47 -34 48 -26 14 6 -22 4 -27 -4 -19 -9 9 -30 112 -33 162 0 6 -5 12 -10 12
-5 0 -7 18 -5 39 2 22 2 38 -1 36 -2 -2 -11 0 -21 5 -15 8 -17 3 -18 -35z m-5
-87 c-3 -8 -6 -5 -6 6 -1 11 2 17 5 13 3 -3 4 -12 1 -19z m27 -26 c-4 -18 -10
-32 -15 -32 -12 0 -11 11 3 42 16 33 20 30 12 -10z m28 -24 c2 -20 0 -34 -4
-32 -4 3 -8 24 -7 47 1 47 6 41 11 -15z m18 -89 c0 -5 -11 -9 -25 -9 -29 0
-32 8 -7 27 15 13 15 13 -8 8 -17 -4 -21 -3 -11 3 7 6 10 16 6 23 -3 8 5 1 19
-14 14 -15 26 -32 26 -38z m70 -54 c-7 -8 -18 -15 -24 -15 -6 0 -2 7 8 15 25
19 32 19 16 0z"/>
<path d="M1480 910 c0 -7 3 -10 7 -7 3 4 3 10 0 14 -4 3 -7 0 -7 -7z"/>
<path d="M1834 893 c9 -18 21 -45 27 -59 5 -15 12 -24 15 -21 10 10 -16 74
-38 93 -21 19 -21 19 -4 -13z"/>
<path d="M2498 885 c-22 -29 -23 -42 -3 -25 8 7 15 9 15 4 0 -4 -14 -19 -30
-33 -20 -17 -43 -57 -66 -116 -20 -49 -49 -117 -65 -151 -16 -33 -29 -66 -29
-73 0 -7 -11 -29 -25 -49 -14 -20 -25 -42 -25 -48 0 -30 -70 -74 -117 -74 -85
0 -164 33 -162 69 1 31 36 76 74 96 79 42 148 222 82 214 -26 -3 -37 2 -37 16
0 8 4 15 9 15 5 0 12 8 15 17 4 10 4 14 0 11 -3 -4 -14 2 -23 13 -16 20 -17
20 -34 -20 -16 -36 -20 -39 -33 -26 -19 19 -25 19 -18 0 4 -8 1 -15 -5 -15 -6
0 -11 5 -11 10 0 21 -20 9 -21 -12 0 -13 -5 -32 -10 -43 -9 -19 -9 -18 -5 3 2
12 0 22 -5 22 -23 0 -8 -60 19 -77 15 -10 29 -21 32 -25 3 -4 23 -6 43 -5 51
4 48 -1 -45 -69 -118 -86 -203 -103 -303 -59 -54 23 -62 24 -91 4 -16 -10 -24
-19 -17 -19 6 0 15 5 18 10 9 14 42 12 75 -5 16 -8 57 -18 90 -22 33 -3 60
-10 60 -14 0 -21 44 -5 97 34 84 64 110 79 117 69 5 -9 -46 -52 -62 -52 -5 0
-15 -7 -22 -15 -11 -13 -10 -14 6 -9 18 7 18 7 0 -15 -71 -80 138 -149 263
-85 46 23 71 44 37 31 -11 -4 -11 -1 -2 19 11 25 30 31 41 14 3 -5 1 -10 -4
-10 -6 0 -11 -4 -11 -9 0 -4 11 -6 25 -3 14 2 25 8 25 13 0 17 35 49 55 50 11
0 14 3 7 6 -6 2 -9 10 -5 16 4 7 -10 -3 -30 -20 -42 -37 -48 -38 -65 -21 -18
18 -14 27 11 22 12 -2 16 -2 10 2 -20 9 -15 48 7 64 11 8 20 20 20 26 0 7 8
15 18 17 13 4 12 5 -5 6 -22 1 -22 1 0 47 22 45 22 45 112 40 105 -7 102 0 -5
13 -75 8 -75 8 -19 10 74 1 119 -8 119 -25 0 -8 7 -14 15 -14 8 0 15 3 15 8
-1 24 -24 34 -105 42 -96 10 -100 12 -91 36 6 15 19 16 106 11 100 -5 100 -5
99 91 -1 94 -1 96 -12 52 -7 -25 -9 -46 -5 -48 5 -2 8 -21 8 -43 0 -39 0 -39
-92 -39 -93 0 -93 0 -51 40 39 36 42 43 41 85 -1 25 -2 45 -3 45 0 0 -8 -11
-17 -25z m-388 -135 c0 -5 -2 -10 -4 -10 -3 0 -8 5 -11 10 -3 6 -1 10 4 10 6
0 11 -4 11 -10z m-40 -79 c0 -13 -20 -36 -20 -23 0 6 -7 12 -15 12 -26 0 -16
15 10 16 14 1 25 -1 25 -5z m40 -10 c0 -6 -4 -13 -10 -16 -5 -3 -10 1 -10 9 0
9 5 16 10 16 6 0 10 -4 10 -9z m40 -11 c-8 -5 -19 -10 -25 -10 -5 0 -3 5 5 10
8 5 20 10 25 10 6 0 3 -5 -5 -10z m-38 -27 c-6 -2 -10 -9 -6 -14 3 -5 0 -9 -5
-9 -12 0 -14 13 -4 23 3 4 11 7 17 6 6 0 5 -3 -2 -6z m28 -33 c0 -5 -7 -10
-16 -10 -8 0 -12 5 -9 10 3 6 10 10 16 10 5 0 9 -4 9 -10z m-23 -37 c-4 -3
-10 -3 -14 0 -3 4 0 7 7 7 7 0 10 -3 7 -7z m-17 -23 c0 -5 -4 -10 -10 -10 -5
0 -10 5 -10 10 0 6 5 10 10 10 6 0 10 -4 10 -10z m-205 -110 c-3 -5 -14 -10
-23 -10 -15 0 -15 2 -2 10 20 13 33 13 25 0z"/>
<path d="M2170 881 c0 -10 29 -36 34 -30 1 2 -6 12 -16 22 -10 9 -18 13 -18 8z"/>
<path d="M155 860 c11 -5 34 -9 50 -9 26 0 27 2 10 9 -11 5 -33 9 -50 9 -26 0
-27 -2 -10 -9z"/>
<path d="M3376 847 c3 -10 9 -15 12 -12 3 3 0 11 -7 18 -10 9 -11 8 -5 -6z"/>
<path d="M1720 764 c0 -8 5 -12 10 -9 6 4 8 11 5 16 -9 14 -15 11 -15 -7z"/>
<path d="M1810 775 c0 -15 18 -40 24 -34 3 3 -1 14 -9 25 -8 10 -14 15 -15 9z"/>
<path d="M2051 754 c0 -11 3 -14 6 -6 3 7 2 16 -1 19 -3 4 -6 -2 -5 -13z"/>
<path d="M1190 750 c0 -6 7 -10 15 -10 8 0 15 2 15 4 0 2 -7 6 -15 10 -8 3
-15 1 -15 -4z"/>
<path d="M2143 713 c4 -3 10 -3 14 0 3 4 0 7 -7 7 -7 0 -10 -3 -7 -7z"/>
<path d="M2640 676 c0 -2 11 -6 25 -8 13 -3 22 -1 19 3 -5 9 -44 13 -44 5z"/>
<path d="M0 630 c0 -7 3 -10 7 -7 3 4 3 10 0 14 -4 3 -7 0 -7 -7z"/>
<path d="M1410 595 c-8 -9 -8 -15 -2 -15 12 0 26 19 19 26 -2 2 -10 -2 -17
-11z"/>
<path d="M1169 570 c-8 -5 -28 -11 -45 -14 -83 -15 -87 -21 -82 -116 3 -48 12
-99 21 -115 18 -36 55 -71 64 -62 3 4 1 7 -5 7 -7 0 -12 5 -12 11 0 6 16 1 36
-11 43 -27 50 -22 34 25 -8 26 -9 44 -2 63 6 15 11 45 10 67 0 22 9 60 21 85
11 25 21 51 21 58 0 14 -38 16 -61 2z m6 -45 c-33 -27 -54 -33 -35 -10 10 12
10 15 -4 15 -19 0 -22 -36 -4 -42 7 -3 6 -7 -5 -11 -11 -4 -17 -1 -17 8 0 25
-1 30 -12 42 -7 9 1 13 29 15 21 2 47 4 58 5 16 2 14 -2 -10 -22z m15 -12 c0
-5 -4 -15 -10 -23 -11 -18 -25 -7 -17 15 6 15 27 21 27 8z m-100 -17 c0 -2 3
-11 6 -20 9 -23 -9 -20 -24 4 -10 17 -10 20 3 20 8 0 15 -2 15 -4z m70 -30 c0
-2 -7 -9 -15 -16 -12 -10 -15 -10 -15 4 0 9 7 16 15 16 8 0 15 -2 15 -4z m-72
-115 c14 -9 26 -64 11 -56 -20 13 -39 73 -38 122 1 48 1 48 9 -6 5 -29 12 -56
18 -60z m49 56 c-3 -7 -10 -2 -16 13 -12 25 -12 25 -6 0 3 -14 8 -47 11 -75 4
-48 4 -47 -14 19 -14 51 -16 73 -8 82 13 14 41 -18 33 -39z m27 28 c-4 -8 -8
-15 -10 -15 -2 0 -4 7 -4 15 0 8 4 15 10 15 5 0 7 -7 4 -15z m3 -47 c-3 -8 -6
-5 -6 6 -1 11 2 17 5 13 3 -3 4 -12 1 -19z m-3 -117 c-10 -12 -25 51 -18 76 7
26 8 24 14 -22 4 -27 6 -52 4 -54z"/>
<path d="M2613 568 c-2 -5 7 -8 21 -8 13 0 31 -3 40 -6 10 -4 16 -1 16 7 0 15
-68 20 -77 7z"/>
<path d="M1500 550 c0 -7 3 -10 7 -7 3 4 3 10 0 14 -4 3 -7 0 -7 -7z"/>
<path d="M2419 539 c-13 -12 -37 -32 -53 -45 -16 -14 -26 -28 -22 -31 3 -4 21
8 39 25 18 18 41 32 51 32 9 0 14 5 11 10 -3 6 3 10 15 10 12 0 18 5 15 10
-10 16 -30 12 -56 -11z"/>
<path d="M2470 503 c-36 -38 -39 -44 -16 -29 16 10 40 30 53 44 15 16 29 23
43 19 11 -3 23 -1 26 4 3 5 -10 9 -28 9 -27 0 -42 -9 -78 -47z"/>
<path d="M2596 531 c-34 -19 -45 -41 -22 -41 9 0 13 6 10 14 -4 11 0 13 17 9
15 -4 20 -2 15 5 -3 6 2 15 11 21 10 6 14 10 8 10 -5 0 -23 -8 -39 -18z"/>
<path d="M3380 540 c0 -7 3 -10 7 -7 3 4 3 10 0 14 -4 3 -7 0 -7 -7z"/>
<path d="M2685 520 c-18 -20 -41 -28 -30 -10 3 6 -1 7 -10 3 -13 -5 -14 -7 -3
-14 11 -7 10 -9 -1 -9 -8 0 -11 -3 -8 -7 4 -3 18 0 32 7 17 9 28 10 37 3 9 -8
17 -7 27 5 13 14 12 15 -7 10 -15 -4 -22 -2 -22 7 0 8 10 16 23 18 21 4 21 4
1 6 -11 0 -29 -8 -39 -19z"/>
<path d="M1538 503 c7 -3 16 -2 19 1 4 3 -2 6 -13 5 -11 0 -14 -3 -6 -6z"/>
<path d="M1625 490 c3 -5 8 -10 11 -10 2 0 4 5 4 10 0 6 -5 10 -11 10 -5 0 -7
-4 -4 -10z"/>
<path d="M1660 490 c0 -5 5 -10 10 -10 6 0 10 5 10 10 0 6 -4 10 -10 10 -5 0
-10 -4 -10 -10z"/>
<path d="M1545 470 c11 -5 27 -9 35 -9 9 0 8 4 -5 9 -11 5 -27 9 -35 9 -9 0
-8 -4 5 -9z"/>
<path d="M2470 426 c-27 -26 -58 -46 -75 -49 -27 -4 -26 -4 8 -6 25 -1 40 4
43 14 4 9 20 16 43 16 23 1 28 3 14 6 -13 2 -23 7 -23 9 0 9 35 41 50 47 13 5
13 6 0 6 -8 1 -35 -19 -60 -43z"/>
<path d="M2757 440 c-9 -11 -12 -20 -6 -20 11 0 39 25 39 34 0 12 -16 5 -33
-14z"/>
<path d="M503 414 c-28 -25 -28 -25 5 -3 17 13 32 24 32 26 0 8 -11 1 -37 -23z"/>
<path d="M2648 423 c7 -3 16 -2 19 1 4 3 -2 6 -13 5 -11 0 -14 -3 -6 -6z"/>
<path d="M2703 423 c4 -3 10 -3 14 0 3 4 0 7 -7 7 -7 0 -10 -3 -7 -7z"/>
<path d="M2780 411 c0 -10 -69 -20 -75 -11 -6 9 -67 0 -82 -12 -15 -12 -17
-28 -3 -28 6 0 10 7 10 15 0 22 69 20 86 -2 13 -17 13 -17 14 0 0 26 70 24 77
-3 3 -11 9 -20 14 -20 5 0 5 8 2 17 -8 20 -43 56 -43 44z"/>
<path d="M2413 403 c4 -3 10 -3 14 0 3 4 0 7 -7 7 -7 0 -10 -3 -7 -7z"/>
<path d="M1943 393 c4 -3 10 -3 14 0 3 4 0 7 -7 7 -7 0 -10 -3 -7 -7z"/>
<path d="M3356 343 c-10 -11 5 -22 21 -16 11 4 14 3 9 -5 -4 -7 -1 -12 10 -12
9 0 23 -8 30 -17 13 -17 13 -17 14 0 0 9 -6 17 -12 17 -9 0 -8 3 2 10 8 5 11
12 7 17 -5 4 -12 1 -18 -7 -6 -10 -11 -12 -16 -4 -10 13 -39 24 -47 17z"/>
<path d="M169 329 c-6 -3 7 -8 30 -11 22 -2 41 -1 41 3 0 10 -58 17 -71 8z"/>
<path d="M1519 307 c5 -5 21 -7 37 -5 27 3 26 4 -8 9 -22 3 -34 1 -29 -4z"/>
<path d="M3360 295 c0 -8 4 -15 10 -15 5 0 7 7 4 15 -4 8 -8 15 -10 15 -2 0
-4 -7 -4 -15z"/>
<path d="M1620 294 c8 -2 92 -8 185 -14 94 -6 208 -13 255 -17 47 -3 83 -3 80
0 -5 5 -69 11 -305 27 -133 9 -247 12 -215 4z"/>
<path d="M3387 203 c14 -38 28 -78 31 -91 6 -30 22 -28 22 3 0 14 -7 28 -15
31 -8 4 -15 17 -15 29 0 13 -4 26 -9 29 -4 3 -11 19 -14 36 -4 16 -11 30 -16
30 -6 0 2 -30 16 -67z"/>
<path d="M728 253 c6 -2 18 -2 25 0 6 3 1 5 -13 5 -14 0 -19 -2 -12 -5z"/>
<path d="M2311 255 c3 -3 62 -8 130 -11 68 -4 122 -4 119 -2 -3 3 -61 8 -129
12 -69 4 -122 4 -120 1z"/>
<path d="M783 243 c4 -3 10 -3 14 0 3 4 0 7 -7 7 -7 0 -10 -3 -7 -7z"/>
<path d="M3400 230 c0 -7 3 -10 7 -7 3 4 3 10 0 14 -4 3 -7 0 -7 -7z"/>
<path d="M1733 223 c4 -3 10 -3 14 0 3 4 0 7 -7 7 -7 0 -10 -3 -7 -7z"/>
<path d="M1780 221 c0 -12 28 -22 35 -12 3 5 -2 12 -11 15 -21 8 -24 8 -24 -3z"/>
<path d="M1993 223 c4 -3 10 -3 14 0 3 4 0 7 -7 7 -7 0 -10 -3 -7 -7z"/>
<path d="M1186 192 c-25 -76 -192 -97 -251 -32 -11 13 -30 19 -49 19 -27 -2
-28 -2 -6 -6 14 -3 32 -11 40 -19 30 -26 90 -44 148 -44 54 0 60 2 96 39 21
22 36 45 34 53 -3 8 -8 5 -12 -10z"/>
<path d="M115 195 c25 -9 104 -12 99 -4 -3 5 -29 9 -57 8 -29 0 -47 -2 -42 -4z"/>
<path d="M828 183 c7 -3 16 -2 19 1 4 3 -2 6 -13 5 -11 0 -14 -3 -6 -6z"/>
<path d="M3421 174 c0 -11 3 -14 6 -6 3 7 2 16 -1 19 -3 4 -6 -2 -5 -13z"/>
<path d="M404 168 c-3 -5 19 -9 48 -9 29 -1 66 -3 82 -5 15 -1 25 0 21 4 -10
10 -146 19 -151 10z"/>
<path d="M683 143 c4 -3 10 -3 14 0 3 4 0 7 -7 7 -7 0 -10 -3 -7 -7z"/>
<path d="M783 133 c4 -3 10 -3 14 0 3 4 0 7 -7 7 -7 0 -10 -3 -7 -7z"/>
<path d="M833 133 c9 -2 25 -2 35 0 9 3 1 5 -18 5 -19 0 -27 -2 -17 -5z"/>
<path d="M1610 108 c0 -4 27 -8 59 -8 33 0 68 -3 78 -6 14 -4 15 -4 3 4 -19
12 -140 21 -140 10z"/>
<path d="M1351 96 c9 -8 98 -13 93 -5 -3 5 -26 9 -51 9 -26 0 -44 -2 -42 -4z"/>
<path d="M1463 93 c4 -3 10 -3 14 0 3 4 0 7 -7 7 -7 0 -10 -3 -7 -7z"/>
<path d="M1778 93 c6 -2 18 -2 25 0 6 3 1 5 -13 5 -14 0 -19 -2 -12 -5z"/>
<path d="M1588 83 c7 -3 16 -2 19 1 4 3 -2 6 -13 5 -11 0 -14 -3 -6 -6z"/>
<path d="M1623 83 c4 -3 10 -3 14 0 3 4 0 7 -7 7 -7 0 -10 -3 -7 -7z"/>
<path d="M1860 87 c3 -2 55 -7 115 -10 61 -3 99 -2 85 2 -27 8 -208 15 -200 8z"/>
<path d="M1728 73 c17 -2 47 -2 65 0 17 2 3 4 -33 4 -36 0 -50 -2 -32 -4z"/>
<path d="M2108 73 c7 -3 16 -2 19 1 4 3 -2 6 -13 5 -11 0 -14 -3 -6 -6z"/>
<path d="M3210 78 c0 -3 14 -17 30 -33 17 -16 30 -24 30 -18 0 7 -13 21 -30
33 -16 12 -30 20 -30 18z"/>
<path d="M0 18 c0 -7 168 -23 175 -16 3 2 -36 9 -85 14 -50 5 -90 6 -90 2z"/>
<path d="M193 3 c4 -3 10 -3 14 0 3 4 0 7 -7 7 -7 0 -10 -3 -7 -7z"/>
<path d="M943 3 c4 -3 10 -3 14 0 3 4 0 7 -7 7 -7 0 -10 -3 -7 -7z"/>
<path d="M983 3 c4 -3 10 -3 14 0 3 4 0 7 -7 7 -7 0 -10 -3 -7 -7z"/>
<path d="M1063 3 c4 -3 10 -3 14 0 3 4 0 7 -7 7 -7 0 -10 -3 -7 -7z"/>
<path d="M1143 3 c4 -3 10 -3 14 0 3 4 0 7 -7 7 -7 0 -10 -3 -7 -7z"/>
<path d="M1193 3 c4 -3 10 -3 14 0 3 4 0 7 -7 7 -7 0 -10 -3 -7 -7z"/>
<path d="M1233 3 c9 -2 25 -2 35 0 9 3 1 5 -18 5 -19 0 -27 -2 -17 -5z"/>
<path d="M1338 3 c29 -2 74 -2 100 0 26 2 2 3 -53 3 -55 0 -76 -1 -47 -3z"/>
<path d="M3123 3 c4 -3 10 -3 14 0 3 4 0 7 -7 7 -7 0 -10 -3 -7 -7z"/>
</g>
</svg>
