<?xml version="1.0" standalone="no"?>
<!DOCTYPE svg PUBLIC "-//W3C//DTD SVG 20010904//EN"
 "http://www.w3.org/TR/2001/REC-SVG-20010904/DTD/svg10.dtd">
<svg version="1.0" xmlns="http://www.w3.org/2000/svg"
 width="384.000000pt" height="256.000000pt" viewBox="0 0 384.000000 256.000000"
 preserveAspectRatio="xMidYMid meet">
<metadata>
Created by potrace 1.16, written by Peter Selinger 2001-2019
</metadata>
<g transform="translate(0.000000,256.000000) scale(0.100000,-0.100000)"
fill="#000000" stroke="none">
<path d="M2021 2504 c-1 -21 41 -132 72 -189 28 -51 19 -22 -22 72 -22 49 -41
101 -44 114 -4 21 -4 21 -6 3z"/>
<path d="M2131 2494 c0 -11 3 -14 6 -6 3 7 2 16 -1 19 -3 4 -6 -2 -5 -13z"/>
<path d="M1985 2480 c4 -14 10 -41 15 -60 7 -30 8 -31 9 -9 0 15 -6 42 -15 60
-10 22 -13 25 -9 9z"/>
<path d="M2161 2350 c0 -8 4 -22 9 -30 12 -18 12 -2 0 25 -6 13 -9 15 -9 5z"/>
<path d="M2271 2328 c-1 -12 61 -149 66 -145 2 3 -12 38 -31 78 -19 41 -35 71
-35 67z"/>
<path d="M2240 2290 c6 -11 13 -20 16 -20 2 0 0 9 -6 20 -6 11 -13 20 -16 20
-2 0 0 -9 6 -20z"/>
<path d="M1138 2224 c-27 -26 -48 -52 -48 -59 0 -7 -14 -39 -30 -71 -17 -31
-29 -62 -26 -68 2 -6 7 -2 12 9 4 11 20 39 35 61 16 23 26 44 23 47 -9 8 17
50 43 70 20 16 49 57 41 57 -2 0 -24 -21 -50 -46z"/>
<path d="M2304 2170 c54 -97 86 -166 86 -187 0 -13 4 -23 10 -23 13 0 62 -98
55 -109 -2 -5 2 -11 10 -15 8 -3 15 -13 15 -23 0 -32 51 -151 76 -178 13 -14
33 -44 43 -65 19 -40 19 -40 -15 -61 -40 -24 -41 -32 -13 -60 18 -18 19 -24 8
-50 -11 -27 -37 -36 -32 -11 2 8 -7 8 -30 0 -39 -13 -51 -23 -18 -15 16 4 34
-1 52 -14 15 -10 34 -19 42 -19 23 0 145 -92 146 -110 1 -16 -99 -100 -118
-100 -6 0 -11 -7 -11 -15 0 -28 -39 -39 -49 -13 -6 13 -19 45 -30 72 -26 60
-26 64 -1 41 11 -10 20 -14 20 -8 0 5 -9 18 -20 28 -11 10 -20 23 -20 28 0 6
10 2 22 -9 27 -24 16 -3 -29 52 -18 23 -33 46 -33 51 0 12 -33 23 -72 23 -20
0 -27 -6 -30 -22 -2 -13 -7 -21 -13 -18 -5 3 -9 8 -8 11 1 3 -4 6 -11 6 -8 0
-11 -8 -9 -21 4 -15 -1 -12 -15 10 -22 35 -42 51 -42 35 0 -5 6 -14 14 -18 20
-12 32 -55 13 -47 -9 3 -17 -3 -20 -17 -10 -39 -38 -4 -32 40 4 35 4 35 -7 9
-7 -16 -14 -28 -17 -28 -23 1 -33 24 -37 81 -5 90 -25 180 -40 186 -27 10 -31
-3 -18 -55 8 -29 16 -81 19 -115 3 -35 13 -73 23 -87 9 -14 16 -37 14 -51 -3
-26 -6 -27 -85 -34 -45 -3 -98 -8 -117 -10 -120 -11 -303 -129 -331 -212 -6
-18 -17 -33 -25 -33 -8 0 -14 -4 -14 -10 0 -5 4 -10 9 -10 5 0 7 -17 4 -38
-12 -89 108 -222 201 -222 12 0 26 -4 32 -10 14 -14 200 -40 236 -33 16 3 60
1 96 -6 53 -9 78 -9 122 2 55 13 55 13 -30 13 -47 0 -105 5 -130 11 -30 8 -47
8 -51 1 -4 -7 -8 -6 -11 2 -2 7 -34 15 -73 20 -277 32 -389 127 -329 280 33
85 106 141 259 195 28 10 55 22 61 27 7 5 52 13 100 19 82 9 153 27 197 50 18
10 37 4 37 -11 0 -5 -9 -7 -20 -5 -15 3 -20 -1 -20 -18 0 -17 2 -19 10 -7 11
18 25 6 16 -15 -5 -15 -9 -14 -32 4 -35 27 -44 26 -44 -4 0 -13 -12 -60 -26
-102 -38 -112 -38 -187 0 -219 15 -14 31 -22 35 -19 3 4 -5 15 -19 25 -25 19
-25 19 0 13 35 -8 50 -22 50 -45 0 -21 1 -21 -85 -6 -11 2 -21 -3 -22 -12 -3
-12 8 -15 59 -15 62 0 62 0 79 -47 27 -77 76 -137 118 -144 49 -9 85 -29 110
-60 36 -46 31 -11 -9 68 -6 11 -4 20 5 28 8 7 15 17 15 22 0 6 -7 5 -15 -2
-18 -15 -28 -9 -20 12 4 10 14 14 26 11 13 -4 22 2 28 18 5 13 10 18 10 12 1
-17 13 -16 37 3 19 15 19 15 -2 9 -13 -3 -28 1 -38 10 -20 21 -20 27 0 23 10
-2 19 4 21 12 3 11 2 11 -4 3 -6 -9 -17 -2 -37 23 -46 58 -17 69 34 13 22 -24
40 -39 40 -34 0 6 -18 30 -40 53 -47 49 -51 62 -11 33 50 -36 92 -119 53 -107
-11 4 -24 1 -31 -8 -10 -12 -7 -14 23 -12 22 2 36 -1 36 -8 0 -6 11 -33 25
-60 31 -61 31 -84 1 -144 -22 -43 -72 -102 -64 -75 2 6 -19 26 -47 45 -27 19
-68 46 -89 61 -22 15 -42 25 -45 21 -3 -3 1 -9 9 -14 52 -30 55 -36 28 -54
-24 -16 -27 -15 -83 21 -32 21 -64 37 -71 35 -28 -6 -331 -172 -357 -195 -31
-29 -30 -36 21 -117 75 -120 156 -174 222 -147 82 34 88 38 50 31 -19 -4 -48
-13 -65 -21 -30 -14 -30 -14 -5 7 18 16 20 20 7 16 -86 -28 -115 -9 -199 127
-21 33 -37 70 -37 81 2 20 2 20 6 -1 2 -12 10 -27 18 -33 12 -10 13 -6 5 22
-6 18 -10 34 -10 35 0 4 141 82 159 88 14 4 21 0 26 -14 16 -53 150 -103 265
-100 69 2 122 -16 133 -46 12 -28 23 -15 19 21 -3 26 -1 35 7 30 7 -5 11 2 11
18 0 14 6 29 13 33 6 4 17 15 22 24 6 9 27 41 48 72 43 65 48 115 18 177 -11
22 -15 40 -9 40 6 0 7 7 4 16 -3 9 2 29 11 45 18 30 40 40 29 14 -10 -27 14
-16 26 13 16 36 15 35 28 27 8 -5 8 -11 -1 -21 -7 -9 -8 -14 -1 -14 6 0 17 14
26 31 14 27 14 29 0 18 -33 -27 -32 7 1 46 35 40 35 40 57 13 29 -34 73 -46
82 -23 4 11 12 15 23 11 9 -4 30 -2 47 3 17 5 43 12 59 15 68 15 14 104 -139
230 -51 41 -53 30 -4 -15 107 -97 160 -153 160 -168 0 -20 -29 -40 -66 -46
-40 -6 -42 -5 -58 30 -9 19 -21 33 -25 30 -5 -2 -15 3 -22 12 -12 14 -11 15
11 9 24 -7 24 -7 5 9 -13 10 -21 12 -24 4 -5 -17 -71 52 -71 75 0 32 -46 -28
-58 -76 -8 -33 -7 -37 14 -49 29 -15 31 -35 4 -49 -17 -9 -20 -8 -20 7 -1 16
-2 16 -17 -2 -15 -20 -15 -20 -10 3 3 12 2 22 -3 22 -12 0 -18 -23 -11 -42 6
-16 9 -18 28 -18 4 0 -6 -13 -22 -30 -16 -16 -38 -30 -49 -30 -17 0 -18 -2 -6
-10 13 -8 12 -12 -7 -31 -22 -22 -22 -22 -34 7 -7 16 -22 42 -32 57 -15 22
-16 31 -7 42 14 16 0 21 -16 5 -6 -6 -15 -6 -24 1 -19 12 13 41 36 32 9 -3 14
2 14 16 0 21 30 27 119 23 23 -1 23 0 9 15 -21 20 -13 43 46 124 84 116 78
129 -95 219 -88 45 -135 79 -113 81 5 0 -1 4 -13 9 -35 14 -28 35 22 67 60 38
72 73 24 73 -10 0 -19 6 -19 13 0 8 -8 21 -19 31 -10 9 -27 35 -38 59 -47 98
-63 139 -63 154 0 9 -12 29 -26 44 -15 15 -28 39 -29 52 -2 13 -10 37 -20 53
-14 26 -13 15 3 -25 3 -9 0 -12 -9 -9 -7 2 -17 21 -21 41 -9 44 -42 111 -72
148 -11 15 -27 35 -34 45 -7 11 -2 -1 12 -26z m323 -607 c-4 -3 -10 -3 -14 0
-3 4 0 7 7 7 7 0 10 -3 7 -7z m-474 -48 c5 -28 4 -34 -3 -20 -8 19 -14 73 -6
64 2 -2 6 -22 9 -44z m14 -122 c-3 -10 -5 -4 -5 12 0 17 2 24 5 18 2 -7 2 -21
0 -30z m546 -44 c111 -56 137 -76 137 -104 0 -13 -4 -27 -10 -30 -5 -3 -10 -2
-10 4 0 13 -58 44 -69 37 -5 -3 -40 17 -77 45 -38 28 -75 53 -81 56 -21 8 -15
33 7 33 11 0 57 -19 103 -41z m-283 5 c0 -2 -7 -4 -15 -4 -8 0 -15 4 -15 10 0
5 7 7 15 4 8 -4 15 -8 15 -10z m56 -72 c12 -30 12 -32 -5 -22 -10 5 -21 21
-23 35 -7 35 11 27 28 -13z m-127 1 c0 -25 -1 -25 -8 -8 -5 11 -7 23 -4 28 8
14 13 7 12 -20z m71 10 c0 -7 9 -22 20 -33 12 -12 18 -25 15 -31 -4 -5 -2 -15
3 -22 5 -7 18 -37 30 -67 20 -55 20 -55 -6 -68 -21 -10 -30 -9 -49 3 -27 18
-30 27 -5 18 13 -5 15 -3 5 7 -8 9 -9 19 -2 31 7 13 2 33 -17 74 -27 56 -41
72 -31 34 3 -13 1 -19 -6 -16 -20 6 -13 31 13 44 22 11 21 18 -2 14 -9 -1 -11
13 -3 21 10 10 35 4 35 -9z m-213 -10 c-4 -3 -10 -3 -14 0 -3 4 0 7 7 7 7 0
10 -3 7 -7z m30 -10 c-4 -3 -10 -3 -14 0 -3 4 0 7 7 7 7 0 10 -3 7 -7z m580
-70 c10 -9 9 -14 -4 -25 -11 -8 -14 -9 -10 -1 5 7 -1 21 -13 33 -40 40 -16 34
27 -7z m-887 0 c-119 -54 -145 -68 -188 -102 -65 -51 -83 -61 -47 -25 33 33
106 84 145 100 14 6 41 18 60 27 19 9 42 16 50 16 8 0 -1 -7 -20 -16z m430 -4
c0 -14 5 -19 14 -16 8 3 17 1 20 -6 4 -7 4 -1 2 13 -5 24 -4 24 9 6 21 -28 19
-51 -5 -53 -11 -1 -18 2 -15 7 3 5 -3 14 -13 19 -20 11 -37 51 -21 51 5 0 9
-9 9 -21z m150 -34 c0 -6 7 -26 16 -44 9 -18 14 -35 11 -38 -5 -5 -67 122 -67
136 1 11 40 -41 40 -54z m-194 17 c2 -20 28 -61 36 -56 4 3 11 -2 15 -11 3
-10 0 -21 -8 -26 -15 -9 -12 -11 24 -12 46 -1 107 -99 107 -173 0 -13 -3 -14
-15 -4 -20 16 -19 9 7 -71 28 -87 19 -137 -26 -152 -24 -8 -32 -6 -43 9 -7 10
-13 14 -13 10 0 -5 -7 -3 -16 5 -18 15 -54 83 -53 101 0 7 11 -10 23 -38 13
-28 29 -55 36 -59 7 -4 11 -4 8 1 -2 5 -16 36 -32 69 -52 112 -79 280 -67 414
1 13 15 7 17 -7z m457 -2 c-3 -12 -8 -19 -11 -16 -5 6 5 36 12 36 2 0 2 -9 -1
-20z m-493 -32 c0 -5 -4 -8 -10 -8 -5 0 -10 10 -10 23 0 18 2 19 10 7 5 -8 10
-18 10 -22z m425 7 c-11 -8 -26 -19 -32 -25 -7 -6 -13 -7 -13 -2 0 11 40 41
55 41 6 0 1 -6 -10 -14z m85 -14 c-14 -25 -45 -48 -59 -43 -8 3 -3 11 16 23
28 19 28 19 1 19 -17 0 -31 -8 -38 -20 -6 -11 -16 -18 -22 -14 -18 11 42 50
77 50 27 0 32 -3 25 -15z m-551 -37 c-15 -18 -22 -13 -13 10 3 9 10 13 16 10
5 -3 4 -12 -3 -20z m597 -10 c-9 -23 39 -83 80 -100 35 -15 38 -21 28 -48 -8
-20 -38 -21 -54 -1 -9 10 -9 15 -1 15 6 0 11 5 11 11 0 6 -7 8 -16 5 -9 -3
-12 -2 -9 5 4 5 -5 19 -19 30 -38 30 -49 55 -36 79 13 24 25 27 16 4z m-566
-39 c0 -51 -26 -113 -41 -98 -6 6 -6 20 1 37 5 15 10 42 10 60 0 18 3 36 7 39
16 16 23 4 23 -38z m397 30 c20 -9 43 -13 50 -11 7 3 13 1 13 -5 0 -7 -13 -9
-36 -4 -23 4 -34 3 -30 -4 4 -6 -4 -7 -21 -2 -16 4 -29 15 -31 24 -4 21 8 21
55 2z m228 -46 c22 -23 31 -37 20 -31 -19 10 -43 34 -59 60 -13 22 0 12 39
-29z m-388 14 c-4 -3 -7 0 -7 7 0 7 3 10 7 7 3 -4 3 -10 0 -14z m73 7 c0 -5
-7 -10 -16 -10 -8 0 -12 5 -9 10 3 6 10 10 16 10 5 0 9 -4 9 -10z m-91 -19 c7
-5 9 -11 5 -14 -5 -3 -15 1 -22 9 -14 16 -5 18 17 5z m179 -10 c2 -6 8 -11 14
-11 6 0 8 7 5 14 -4 10 -1 13 9 9 40 -15 -2 -36 -56 -27 -19 3 -43 7 -52 7
-19 1 -23 9 -10 21 10 11 86 0 90 -13z m-998 -6 c0 -8 -4 -15 -10 -15 -5 0 -7
7 -4 15 4 8 8 15 10 15 2 0 4 -7 4 -15z m1144 -1 c3 -8 2 -12 -4 -9 -6 3 -10
10 -10 16 0 14 7 11 14 -7z m-290 -25 c-12 -13 -21 -16 -28 -9 -7 7 -4 14 9
24 27 19 40 8 19 -15z m-317 -1 c-3 -8 -6 -5 -6 6 -1 11 2 17 5 13 3 -3 4 -12
1 -19z m400 5 c-4 -3 -10 -3 -14 0 -3 4 0 7 7 7 7 0 10 -3 7 -7z m-60 -20 c-4
-3 -7 0 -7 7 0 7 3 10 7 7 3 -4 3 -10 0 -14z m38 6 c11 -16 1 -19 -13 -3 -7 8
-8 14 -3 14 5 0 13 -5 16 -11z m-318 -41 c-3 -7 -5 -2 -5 12 0 14 2 19 5 13 2
-7 2 -19 0 -25z m20 0 c-3 -8 -6 -5 -6 6 -1 11 2 17 5 13 3 -3 4 -12 1 -19z
m270 5 c-4 -3 -10 -3 -14 0 -3 4 0 7 7 7 7 0 10 -3 7 -7z m-50 -20 c-4 -3 -7
0 -7 7 0 7 3 10 7 7 3 -4 3 -10 0 -14z m-834 -100 c17 -26 47 -54 79 -73 56
-31 54 -40 -3 -16 -62 26 -121 110 -118 168 1 19 2 17 8 -7 4 -16 20 -49 34
-72z m867 76 c0 -5 -4 -9 -10 -9 -5 0 -10 7 -10 16 0 8 5 12 10 9 6 -3 10 -10
10 -16z m-223 -46 c-4 -3 -7 0 -7 7 0 7 3 10 7 7 3 -4 3 -10 0 -14z m193 -9
c0 -8 9 -24 19 -35 20 -22 34 -69 20 -69 -5 0 -9 6 -9 13 0 8 -4 7 -11 -3 -9
-12 -10 -11 -6 8 3 12 2 22 -2 22 -4 0 -12 20 -18 45 -5 24 -6 42 -2 39 5 -3
9 -12 9 -20z m250 6 c0 -5 -5 -10 -11 -10 -5 0 -7 5 -4 10 3 6 8 10 11 10 2 0
4 -4 4 -10z m-866 -145 c27 -8 68 -15 90 -16 42 0 99 -17 64 -18 -37 -2 -170
21 -201 34 -42 19 -15 19 47 0z m626 -65 c6 -11 7 -20 3 -20 -15 1 -43 27 -36
33 11 12 22 8 33 -13z m-127 -86 c42 -25 42 -25 7 -19 -19 4 -44 16 -56 26
-22 21 -34 24 -34 10 0 -18 67 -51 102 -51 20 0 46 -8 59 -19 24 -18 24 -18
25 4 1 18 -3 22 -20 19 -15 -3 -13 0 7 8 15 7 27 16 27 21 0 5 12 -1 28 -13
15 -11 38 -29 51 -39 31 -23 23 -44 -27 -70 -87 -44 -227 -52 -276 -16 -18 14
-17 16 18 55 21 23 34 46 30 52 -6 9 -9 8 -12 -2 -7 -25 -65 -80 -83 -80 -21
0 -72 47 -66 63 6 18 140 86 160 80 10 -2 37 -16 60 -29z m192 -134 c-3 -6
-12 -21 -19 -35 -12 -23 -14 -23 -36 -8 -24 17 -24 17 16 34 48 21 47 21 39 9z"/>
<path d="M2610 1370 c0 -5 5 -10 10 -10 6 0 10 5 10 10 0 6 -4 10 -10 10 -5 0
-10 -4 -10 -10z"/>
<path d="M2640 1355 c0 -9 4 -13 10 -10 12 8 111 -70 102 -80 -4 -5 -1 -5 6
-1 7 4 28 -2 47 -13 24 -14 35 -16 35 -8 0 7 -15 18 -34 25 -19 7 -53 27 -77
46 -66 50 -89 60 -89 41z"/>
<path d="M2320 1015 c0 -14 4 -25 9 -25 4 0 6 11 3 25 -2 14 -6 25 -8 25 -2 0
-4 -11 -4 -25z"/>
<path d="M2410 500 c0 -5 5 -10 10 -10 6 0 10 5 10 10 0 6 -4 10 -10 10 -5 0
-10 -4 -10 -10z"/>
<path d="M2041 2130 c0 -19 6 -57 13 -85 18 -63 18 -41 1 50 -9 49 -13 60 -14
35z"/>
<path d="M2251 2084 c0 -11 3 -14 6 -6 3 7 2 16 -1 19 -3 4 -6 -2 -5 -13z"/>
<path d="M2080 2068 c0 -7 9 -67 19 -133 11 -66 22 -145 26 -175 6 -45 24
-102 25 -79 0 9 -38 259 -51 337 -10 57 -19 80 -19 50z"/>
<path d="M2171 2032 c6 -18 15 -35 20 -38 5 -3 4 7 -3 23 -17 41 -30 53 -17
15z"/>
<path d="M2266 2000 c5 -53 5 -54 -10 -30 -21 35 -20 20 3 -33 21 -49 48 -77
31 -32 -6 15 -10 45 -11 68 0 23 -4 51 -9 62 -5 13 -7 0 -4 -35z"/>
<path d="M1062 1980 c0 -14 2 -19 5 -12 2 6 2 18 0 25 -3 6 -5 1 -5 -13z"/>
<path d="M1038 1877 c-29 -26 -76 -99 -97 -152 -11 -28 39 45 52 76 8 19 32
50 53 67 21 17 36 33 33 36 -2 2 -20 -10 -41 -27z"/>
<path d="M2070 1898 c0 -58 45 -263 62 -282 24 -28 18 6 -13 79 -5 11 -15 62
-24 114 -13 86 -25 127 -25 89z"/>
<path d="M2305 1838 c8 -40 25 -82 31 -76 2 3 -5 27 -16 54 -11 27 -18 37 -15
22z"/>
<path d="M2260 1826 c0 -2 7 -7 16 -10 8 -3 12 -2 9 4 -6 10 -25 14 -25 6z"/>
<path d="M2322 1741 c-15 -9 -6 -40 17 -59 9 -8 10 -11 4 -7 -17 8 -18 -41 -1
-51 7 -4 8 -3 4 4 -4 7 -1 12 8 12 22 0 20 33 -4 55 -20 19 -28 41 -10 30 6
-3 10 -2 10 4 0 15 -14 21 -28 12z"/>
<path d="M2386 1681 c-6 -9 81 -49 93 -42 5 3 -13 16 -40 28 -27 12 -51 18
-53 14z"/>
<path d="M2453 1683 c4 -3 10 -3 14 0 3 4 0 7 -7 7 -7 0 -10 -3 -7 -7z"/>
<path d="M2371 1623 c-1 -7 8 -36 19 -65 31 -82 23 -109 -45 -146 -14 -8 -15
-11 -5 -11 8 -1 26 8 40 19 28 22 60 26 60 9 0 -7 -8 -18 -17 -25 -10 -7 -13
-13 -8 -14 6 0 23 11 39 23 29 24 29 24 -2 35 -18 6 -32 16 -32 21 0 14 53 41
80 41 12 0 38 11 58 25 20 14 32 25 27 25 -6 0 -21 -7 -33 -16 -18 -13 -123
-46 -129 -41 -1 1 -13 31 -27 67 -13 36 -25 59 -25 53z"/>
<path d="M2351 1569 c10 -42 39 -113 44 -107 4 4 -41 137 -48 144 -3 3 -1 -14
4 -37z"/>
<path d="M2300 1391 c0 -6 5 -13 10 -16 6 -3 10 1 10 9 0 9 -4 16 -10 16 -5 0
-10 -4 -10 -9z"/>
<path d="M1925 1320 c3 -5 8 -10 11 -10 3 0 2 5 -1 10 -3 6 -8 10 -11 10 -3 0
-2 -4 1 -10z"/>
<path d="M3658 1049 c22 -41 43 -91 46 -111 7 -39 -2 -97 -13 -80 -3 6 -32 -5
-69 -26 -48 -28 -58 -38 -45 -43 24 -8 -80 -75 -272 -176 -80 -42 -143 -78
-141 -80 2 -2 33 11 68 30 34 19 108 58 163 87 55 29 134 76 175 105 41 29 84
55 95 59 29 9 55 57 55 102 0 39 -59 173 -86 195 -8 7 3 -21 24 -62z m22 -204
c0 -8 -82 -57 -87 -52 -3 3 6 11 19 18 12 8 32 19 43 25 25 15 25 15 25 9z"/>
<path d="M3490 1079 c-12 -8 -10 -9 8 -4 13 4 30 1 39 -7 14 -11 15 -11 11 2
-6 19 -38 24 -58 9z"/>
<path d="M3310 1055 c-14 -8 -20 -14 -15 -14 6 0 21 6 35 14 14 8 21 14 15 14
-5 0 -21 -6 -35 -14z"/>
<path d="M3490 1060 c-8 -5 -12 -11 -9 -14 3 -3 14 1 25 9 21 16 8 20 -16 5z"/>
<path d="M3195 1005 c-27 -13 -45 -23 -40 -24 6 0 33 11 60 24 28 13 46 23 40
24 -5 0 -32 -11 -60 -24z"/>
<path d="M2734 928 c-4 -7 -3 -8 4 -4 7 4 12 9 12 12 0 8 -9 4 -16 -8z"/>
<path d="M2735 900 c-19 -8 -19 -9 3 -9 12 -1 22 4 22 9 0 6 -1 10 -2 9 -2 0
-12 -4 -23 -9z"/>
<path d="M2850 890 c0 -5 5 -10 10 -10 6 0 10 5 10 10 0 6 -4 10 -10 10 -5 0
-10 -4 -10 -10z"/>
<path d="M2884 888 c-4 -7 -3 -8 4 -4 7 4 12 9 12 12 0 8 -9 4 -16 -8z"/>
<path d="M2191 792 c-61 -20 -78 -22 -94 -13 -10 7 -22 10 -25 6 -9 -9 19 -25
44 -25 11 0 47 9 79 20 32 11 66 20 76 20 10 0 21 5 24 10 9 15 -22 10 -104
-18z"/>
<path d="M2761 702 c-6 -2 -8 -9 -5 -17 3 -7 1 -16 -5 -20 -6 -3 -11 -23 -10
-43 1 -37 1 -37 11 -3 9 34 43 70 66 71 6 0 12 4 12 10 0 8 -45 10 -69 2z"/>
<path d="M2388 638 c-16 -5 -28 -14 -28 -19 0 -6 5 -7 10 -4 6 4 22 0 35 -9
34 -22 45 -19 16 4 -23 20 -23 20 -2 20 12 0 19 5 16 10 -7 12 -11 12 -47 -2z"/>
<path d="M2570 640 c0 -5 7 -7 15 -4 8 4 15 8 15 10 0 2 -7 4 -15 4 -8 0 -15
-4 -15 -10z"/>
<path d="M2731 559 c-1 -17 -13 -38 -35 -57 -31 -27 -32 -31 -15 -35 14 -4 19
0 19 14 0 23 56 41 84 27 14 -8 17 -7 14 4 -3 7 -14 14 -26 16 -12 2 -25 15
-31 30 -9 27 -9 27 -10 1z"/>
<path d="M3100 510 c-19 -10 -92 -45 -163 -76 -70 -32 -125 -59 -123 -61 4 -4
215 90 291 130 28 14 46 26 40 26 -5 0 -26 -8 -45 -19z"/>
<path d="M508 480 c-21 -11 -38 -25 -38 -31 0 -6 13 -1 29 10 31 23 52 28 34
10 -9 -9 -6 -17 14 -32 33 -27 53 -75 54 -134 1 -48 1 -48 11 -14 12 45 -5
111 -38 142 -34 32 -31 49 10 49 63 0 127 -104 112 -184 -7 -34 -22 -54 -33
-42 -3 3 0 12 7 21 25 30 -11 16 -41 -16 -46 -49 -37 -58 28 -29 105 47 50
248 -72 265 -29 4 -50 0 -77 -15z"/>
<path d="M630 421 c20 -37 50 -72 50 -57 0 10 -48 84 -60 91 -6 3 -1 -12 10
-34z"/>
<path d="M2092 439 c-13 -5 -21 -13 -18 -18 3 -5 -4 -7 -16 -4 -20 4 -21 3 -5
-7 21 -13 23 -40 2 -40 -8 0 -15 -4 -15 -9 0 -18 39 2 46 23 4 11 18 31 31 44
25 23 15 28 -25 11z"/>
<path d="M2183 423 c-10 -20 -9 -24 2 -20 19 8 27 -4 12 -21 -9 -12 -4 -11 22
3 32 16 33 18 15 27 -10 6 -24 16 -29 23 -8 10 -13 7 -22 -12z"/>
<path d="M2315 380 c3 -5 8 -10 11 -10 3 0 2 5 -1 10 -3 6 -8 10 -11 10 -3 0
-2 -4 1 -10z"/>
<path d="M2360 360 c11 -11 20 -34 21 -52 1 -33 1 -33 13 -6 6 15 22 39 36 53
13 14 18 25 12 25 -6 0 -21 -10 -33 -22 -15 -16 -20 -18 -16 -6 4 11 -1 18
-16 22 -35 9 -38 7 -17 -14z"/>
<path d="M2730 345 c-30 -13 -48 -24 -40 -24 17 0 120 47 105 48 -5 0 -35 -11
-65 -24z"/>
<path d="M638 323 c7 -3 16 -2 19 1 4 3 -2 6 -13 5 -11 0 -14 -3 -6 -6z"/>
<path d="M2553 277 c-57 -22 -101 -42 -99 -44 4 -5 216 77 216 83 0 7 -14 3
-117 -39z"/>
<path d="M2423 223 c4 -3 10 -3 14 0 3 4 0 7 -7 7 -7 0 -10 -3 -7 -7z"/>
<path d="M2256 205 c-14 -11 -16 -15 -5 -15 8 0 23 7 33 15 14 11 16 15 5 15
-8 0 -23 -7 -33 -15z"/>
<path d="M2360 210 c-20 -6 -21 -8 -5 -8 11 0 29 3 40 8 25 11 -1 11 -35 0z"/>
<path d="M2313 193 c4 -3 10 -3 14 0 3 4 0 7 -7 7 -7 0 -10 -3 -7 -7z"/>
</g>
</svg>
