<?xml version="1.0" standalone="no"?>
<!DOCTYPE svg PUBLIC "-//W3C//DTD SVG 20010904//EN"
 "http://www.w3.org/TR/2001/REC-SVG-20010904/DTD/svg10.dtd">
<svg version="1.0" xmlns="http://www.w3.org/2000/svg"
 width="256.000000pt" height="344.000000pt" viewBox="0 0 256.000000 344.000000"
 preserveAspectRatio="xMidYMid meet">
<metadata>
Created by potrace 1.16, written by Peter Selinger 2001-2019
</metadata>
<g transform="translate(0.000000,344.000000) scale(0.100000,-0.100000)"
fill="#000000" stroke="none">
<path d="M1507 3378 c-2 -35 -8 -73 -12 -85 -5 -15 -3 -23 4 -23 6 0 11 8 11
18 0 11 3 13 8 5 4 -7 8 22 9 63 1 91 -14 108 -20 22z"/>
<path d="M1452 3240 c-20 -9 -22 -15 -18 -51 5 -44 -6 -59 -68 -102 -39 -27
-35 -67 11 -112 25 -24 31 -35 20 -35 -10 0 -17 -4 -17 -9 0 -5 14 -4 31 2 27
11 29 13 13 22 -76 43 -88 112 -25 145 43 21 54 43 49 93 -3 30 0 33 35 41 26
7 48 6 68 -1 23 -9 29 -9 29 3 0 16 -90 19 -128 4z"/>
<path d="M1570 3186 c0 -40 11 -56 50 -76 42 -21 50 -40 38 -87 -9 -33 -59
-72 -94 -74 -18 0 -18 -1 1 -9 30 -13 55 -13 35 0 -11 7 -12 10 -2 10 29 0 71
41 78 75 9 49 -3 73 -44 93 -32 15 -37 22 -40 55 -4 41 -22 52 -22 13z"/>
<path d="M1403 3193 c4 -3 10 -3 14 0 3 4 0 7 -7 7 -7 0 -10 -3 -7 -7z"/>
<path d="M1220 3130 c0 -7 3 -10 7 -7 3 4 3 10 0 14 -4 3 -7 0 -7 -7z"/>
<path d="M2327 3045 c-13 -171 -19 -305 -15 -305 7 0 31 340 26 370 -2 14 -7
-15 -11 -65z"/>
<path d="M2553 3075 c0 -33 2 -45 4 -27 2 18 2 45 0 60 -2 15 -4 0 -4 -33z"/>
<path d="M2237 3104 c-3 -4 -102 -7 -219 -7 -213 0 -213 0 -215 -41 -1 -41 -1
-41 9 -8 11 32 11 32 219 32 133 0 209 -4 209 -10 0 -5 -4 -10 -10 -10 -5 0
-10 -7 -10 -16 0 -9 5 -12 11 -8 8 5 10 -3 6 -27 -4 -19 -11 -105 -17 -192 -5
-87 -12 -163 -16 -168 -3 -5 -8 -76 -10 -157 -3 -81 -7 -153 -9 -159 -3 -7 0
-13 4 -13 9 0 18 75 26 215 22 392 48 647 40 395 -4 -137 9 -99 19 56 6 84 5
109 -6 115 -16 10 -23 11 -31 3z"/>
<path d="M721 2984 c0 -61 5 -117 9 -124 5 -7 7 32 7 88 -3 160 11 104 18 -78
4 -91 12 -170 17 -177 7 -9 5 -18 -6 -28 -12 -12 -13 -21 -6 -35 6 -10 10 -91
10 -179 0 -88 3 -162 8 -164 9 -6 9 489 -1 499 -13 13 -8 234 6 239 6 2 94 6
194 7 182 3 182 3 186 -132 3 -135 3 -135 5 33 2 143 0 167 -13 167 -8 0 -15
-3 -15 -7 0 -5 -37 -7 -82 -6 -366 11 -339 19 -337 -103z m439 79 c0 -10 -24
-13 -92 -14 -51 -1 -138 -3 -193 -5 -55 -2 -107 1 -115 6 -17 11 -31 10 185
19 211 9 215 9 215 -6z"/>
<path d="M1980 3049 c-90 -4 -81 -5 65 -6 94 0 161 1 150 3 -47 8 -117 9 -215
3z"/>
<path d="M1838 3043 c7 -3 16 -2 19 1 4 3 -2 6 -13 5 -11 0 -14 -3 -6 -6z"/>
<path d="M407 3013 c-15 -14 -4 -24 76 -67 112 -61 119 -67 127 -112 8 -39 8
-39 9 3 1 48 -3 52 -130 118 -49 25 -75 44 -72 52 6 14 0 17 -10 6z"/>
<path d="M1801 2994 c0 -11 3 -14 6 -6 3 7 2 16 -1 19 -3 4 -6 -2 -5 -13z"/>
<path d="M2550 2990 c0 -7 3 -10 7 -7 3 4 3 10 0 14 -4 3 -7 0 -7 -7z"/>
<path d="M1801 2954 c0 -11 3 -14 6 -6 3 7 2 16 -1 19 -3 4 -6 -2 -5 -13z"/>
<path d="M612 2940 c0 -14 2 -19 5 -12 2 6 2 18 0 25 -3 6 -5 1 -5 -13z"/>
<path d="M145 2845 c11 -220 18 -316 24 -319 16 -9 205 -16 191 -6 -8 5 -38
10 -66 10 -88 0 -111 8 -111 38 0 44 -23 305 -29 325 -5 16 -2 18 16 12 15 -5
20 -4 16 4 -4 6 -13 11 -21 11 -7 0 -16 6 -19 13 -3 6 -4 -33 -1 -88z"/>
<path d="M280 2915 c0 -8 7 -15 16 -15 14 0 14 3 4 15 -7 8 -14 15 -16 15 -2
0 -4 -7 -4 -15z"/>
<path d="M1801 2914 c0 -11 3 -14 6 -6 3 7 2 16 -1 19 -3 4 -6 -2 -5 -13z"/>
<path d="M2543 2895 c0 -22 2 -30 4 -17 2 12 2 30 0 40 -3 9 -5 -1 -4 -23z"/>
<path d="M1621 2910 c0 -9 -10 -32 -20 -53 -10 -20 -15 -37 -9 -37 13 0 40 69
35 88 -4 14 -5 14 -6 2z"/>
<path d="M200 2894 c0 -8 5 -12 10 -9 6 3 10 2 10 -3 0 -7 42 -23 130 -49 40
-12 -20 17 -67 32 -29 10 -53 21 -53 25 0 4 -7 10 -15 14 -9 3 -15 0 -15 -10z"/>
<path d="M1361 2894 c-1 -22 33 -74 49 -74 5 0 -2 12 -15 26 -13 14 -26 35
-28 47 -4 22 -4 22 -6 1z"/>
<path d="M1801 2874 c0 -11 3 -14 6 -6 3 7 2 16 -1 19 -3 4 -6 -2 -5 -13z"/>
<path d="M225 2834 c17 -26 32 -45 73 -92 83 -95 105 -132 99 -168 -7 -41 -8
-40 93 -53 41 -5 81 -10 89 -12 17 -5 31 39 20 62 -13 25 -209 254 -222 258
-9 3 31 -48 63 -79 29 -27 131 -162 127 -167 -3 -3 -39 2 -79 11 -73 17 -73
17 -158 123 -47 58 -89 114 -95 124 -5 11 -14 19 -19 19 -4 0 -1 -12 9 -26z
m280 -259 c33 -6 37 -9 20 -15 -19 -8 -19 -9 -1 -9 11 -1 16 -4 12 -8 -7 -7
-70 -6 -97 3 -23 6 -13 46 10 40 9 -2 34 -7 56 -11z m75 -32 c0 -19 -3 -24
-10 -17 -6 6 -8 18 -4 27 9 24 14 21 14 -10z"/>
<path d="M1801 2834 c0 -11 3 -14 6 -6 3 7 2 16 -1 19 -3 4 -6 -2 -5 -13z"/>
<path d="M2540 2830 c0 -7 3 -10 7 -7 3 4 3 10 0 14 -4 3 -7 0 -7 -7z"/>
<path d="M730 2820 c0 -7 3 -10 7 -7 3 4 3 10 0 14 -4 3 -7 0 -7 -7z"/>
<path d="M1620 2811 c0 -28 -37 -68 -74 -81 -42 -14 -77 -1 -118 42 -30 33
-30 33 -15 2 9 -18 34 -40 61 -53 45 -24 45 -24 91 4 50 29 97 105 65 105 -5
0 -10 -8 -10 -19z"/>
<path d="M2125 2810 c3 -5 8 -10 11 -10 3 0 2 5 -1 10 -3 6 -8 10 -11 10 -3 0
-2 -4 1 -10z"/>
<path d="M1800 2790 c0 -7 3 -10 7 -7 3 4 3 10 0 14 -4 3 -7 0 -7 -7z"/>
<path d="M1801 2754 c0 -11 3 -14 6 -6 3 7 2 16 -1 19 -3 4 -6 -2 -5 -13z"/>
<path d="M1160 2740 c0 -7 3 -10 7 -7 3 4 3 10 0 14 -4 3 -7 0 -7 -7z"/>
<path d="M1790 2660 c0 -35 2 -61 4 -59 8 7 10 108 3 115 -4 4 -7 -21 -7 -56z"/>
<path d="M620 2700 c0 -7 3 -10 7 -7 3 4 3 10 0 14 -4 3 -7 0 -7 -7z"/>
<path d="M2303 2675 c0 -22 2 -30 4 -17 2 12 2 30 0 40 -3 9 -5 -1 -4 -23z"/>
<path d="M2547 2703 c-12 -20 -11 -103 2 -103 4 0 8 25 8 55 0 55 -2 62 -10
48z"/>
<path d="M2520 2690 c0 -7 3 -10 7 -7 3 4 3 10 0 14 -4 3 -7 0 -7 -7z"/>
<path d="M1279 2670 c0 -8 -2 -121 -3 -250 -2 -230 2 -297 18 -272 4 7 11 12
17 12 5 0 4 -9 -3 -19 -9 -15 -16 -17 -32 -8 -51 25 -56 27 -56 17 0 -17 -38
-11 -43 8 -3 9 -6 102 -6 206 -1 105 -4 192 -6 195 -3 2 -5 -86 -5 -196 0
-207 -2 -218 -30 -203 -12 6 -28 2 -56 -15 -31 -19 -35 -24 -18 -25 12 0 27 7
34 15 9 11 22 14 44 9 51 -10 52 -23 1 -19 -44 3 -46 2 -41 -20 6 -22 4 -22
-81 -24 -117 -3 -120 -11 -5 -11 91 0 123 -14 60 -25 -29 -5 -204 -1 -218 5
-3 1 -13 2 -22 1 -20 -2 -22 8 -18 103 1 38 -2 56 -8 52 -6 -4 -12 6 -15 21
-2 16 -5 -17 -6 -72 0 -55 -4 -117 -7 -137 -7 -38 -7 -38 162 -38 165 0 204
-6 190 -29 -4 -6 0 -11 10 -11 15 0 16 8 11 70 -7 87 1 93 128 97 73 2 90 5
89 18 -1 8 4 15 10 15 11 0 56 40 56 51 0 2 -27 2 -60 1 -60 -4 -60 -4 -59
103 0 101 1 106 18 91 21 -19 62 -23 43 -4 -14 14 -16 48 -3 48 6 0 16 -12 23
-27 10 -22 21 -28 48 -30 34 -1 34 -1 5 5 -47 11 -47 48 -1 54 35 4 36 3 38
-32 1 -33 1 -33 8 10 6 40 14 29 13 -17 -1 -7 3 -13 8 -13 5 0 9 15 10 33 0
27 2 29 9 12 7 -17 9 -17 9 -2 1 17 27 23 47 9 20 -14 24 -41 6 -51 -14 -9
-13 -10 9 -11 26 0 39 15 39 47 0 26 -24 38 -83 39 -65 2 -68 3 -71 38 0 17
-6 25 -16 23 -8 -1 -15 4 -15 12 0 17 -62 51 -81 44 -22 -8 -16 -22 6 -16 12
3 29 -2 40 -12 30 -27 24 -38 -16 -30 -34 6 -35 5 -29 -17 4 -13 12 -27 17
-33 7 -7 8 -2 3 13 -4 15 -2 22 7 22 16 0 47 -20 32 -20 -7 0 -14 -9 -17 -20
-3 -11 -14 -20 -24 -20 -52 0 -82 60 -82 162 0 53 2 57 19 48 10 -6 30 -10 43
-10 27 0 57 -28 57 -53 0 -9 5 -17 10 -17 6 0 10 8 10 17 0 13 3 14 12 5 7 -7
25 -12 40 -12 16 0 31 -7 34 -15 5 -12 9 -13 21 -4 23 20 68 -20 68 -60 0 -20
4 -30 12 -27 15 6 7 -262 -8 -281 -6 -7 -28 -10 -55 -7 -44 4 -49 0 -38 -30 9
-24 120 -23 133 2 9 17 15 172 16 401 0 125 0 125 -202 125 -174 1 -203 -1
-204 -14z m128 -7 c-4 -3 -10 -3 -14 0 -3 4 0 7 7 7 7 0 10 -3 7 -7z m249 -47
c-3 -16 -6 -45 -7 -65 0 -32 -1 -34 -11 -14 -6 12 -25 27 -42 33 -17 6 -39 16
-48 21 -10 5 -31 9 -47 9 -16 0 -36 7 -45 15 -8 8 -19 15 -25 15 -5 0 -12 3
-15 8 -2 4 52 7 121 7 124 0 124 0 119 -29z m-326 -166 c0 -13 -1 -13 -10 0
-5 8 -10 22 -10 30 0 13 1 13 10 0 5 -8 10 -22 10 -30z m145 5 c0 -6 -10 -11
-22 -13 -22 -3 -30 8 -16 22 10 9 38 3 38 -9z m-128 -32 c-4 -3 -7 0 -7 7 0 7
3 10 7 7 3 -4 3 -10 0 -14z m-550 -250 c-4 -3 -7 0 -7 7 0 7 3 10 7 7 3 -4 3
-10 0 -14z m540 -50 c-4 -3 -7 0 -7 7 0 7 3 10 7 7 3 -4 3 -10 0 -14z m-249
-108 c12 -11 -9 -14 -120 -16 -118 -1 -153 5 -127 23 14 9 237 3 247 -7z
m-281 -2 c-4 -3 -10 -3 -14 0 -3 4 0 7 7 7 7 0 10 -3 7 -7z"/>
<path d="M1550 2610 c20 -13 33 -13 25 0 -3 6 -14 10 -23 10 -15 0 -15 -2 -2
-10z"/>
<path d="M2470 2599 c-12 -8 -10 -9 8 -4 20 6 22 3 22 -27 0 -31 -3 -33 -35
-35 -28 -2 -35 1 -35 15 0 9 -5 24 -11 32 -8 11 -9 7 -4 -17 6 -32 5 -33 -27
-34 -35 -1 -68 -5 -73 -11 -2 -2 -5 -43 -7 -93 -3 -90 -3 -90 47 -96 57 -7 75
2 75 38 0 15 10 33 25 45 38 29 49 56 55 131 5 70 -3 82 -40 56z m-96 -172
c-3 -34 -7 -68 -9 -74 -5 -16 -25 -17 -25 -2 0 5 4 8 10 4 6 -3 8 23 7 68 -1
55 1 73 10 70 8 -3 10 -23 7 -66z m23 46 c-4 -3 -7 0 -7 7 0 7 3 10 7 7 3 -4
3 -10 0 -14z m-60 -50 c-3 -10 -5 -2 -5 17 0 19 2 27 5 18 2 -10 2 -26 0 -35z
m123 33 c0 -3 -5 -8 -12 -12 -7 -4 -8 -3 -4 4 7 12 16 16 16 8z m-37 -36 c-7
-28 -13 -25 -13 6 0 14 4 23 9 20 5 -3 7 -15 4 -26z m-26 -22 c-3 -7 -5 -2 -5
12 0 14 2 19 5 13 2 -7 2 -19 0 -25z"/>
<path d="M632 2560 c0 -14 2 -19 5 -12 2 6 2 18 0 25 -3 6 -5 1 -5 -13z"/>
<path d="M2292 2545 c0 -16 2 -22 5 -12 2 9 2 23 0 30 -3 6 -5 -1 -5 -18z"/>
<path d="M2460 2560 c0 -7 3 -10 7 -7 3 4 3 10 0 14 -4 3 -7 0 -7 -7z"/>
<path d="M1514 2548 c-4 -7 -3 -8 4 -4 12 7 16 16 8 16 -3 0 -8 -5 -12 -12z"/>
<path d="M1781 2534 c0 -11 3 -14 6 -6 3 7 2 16 -1 19 -3 4 -6 -2 -5 -13z"/>
<path d="M1560 2510 c0 -5 7 -10 16 -10 8 0 12 5 9 10 -3 6 -10 10 -16 10 -5
0 -9 -4 -9 -10z"/>
<path d="M627 2440 c3 -41 7 -77 9 -79 8 -8 2 105 -6 129 -5 15 -6 -6 -3 -50z"/>
<path d="M2285 2490 c-3 -5 -1 -10 4 -10 6 0 11 5 11 10 0 6 -2 10 -4 10 -3 0
-8 -4 -11 -10z"/>
<path d="M681 2474 c0 -11 3 -14 6 -6 3 7 2 16 -1 19 -3 4 -6 -2 -5 -13z"/>
<path d="M2279 2418 c-1 -29 -3 -68 -5 -85 -2 -18 0 -33 5 -33 4 0 9 26 10 58
0 31 4 69 7 85 3 16 1 27 -5 27 -6 0 -11 -22 -12 -52z"/>
<path d="M1782 2425 c0 -16 2 -22 5 -12 2 9 2 23 0 30 -3 6 -5 -1 -5 -18z"/>
<path d="M446 2400 c10 -16 19 -28 21 -26 6 6 -20 56 -29 56 -5 0 -1 -13 8
-30z"/>
<path d="M364 2398 c-4 -7 -3 -8 4 -4 12 7 16 16 8 16 -3 0 -8 -5 -12 -12z"/>
<path d="M690 2380 c0 -7 3 -10 7 -7 3 4 3 10 0 14 -4 3 -7 0 -7 -7z"/>
<path d="M1550 2380 c0 -5 5 -10 10 -10 6 0 10 5 10 10 0 6 -4 10 -10 10 -5 0
-10 -4 -10 -10z"/>
<path d="M1770 2319 c0 -35 -3 -94 -7 -131 -6 -65 -7 -68 -32 -69 -21 -1 -22
-2 -6 -6 11 -3 26 -10 34 -16 7 -6 27 -10 43 -8 18 1 37 -4 49 -15 27 -24 24
-2 -4 28 -21 22 -25 23 -45 10 -33 -22 -50 -10 -22 16 13 12 18 22 12 22 -9 0
-12 30 -11 111 0 61 -2 113 -5 116 -3 4 -6 -23 -6 -58z"/>
<path d="M1494 2343 c-8 -13 -14 -14 -32 -4 -15 8 -22 8 -22 1 0 -14 23 -22
53 -18 18 2 23 7 18 20 -6 16 -7 16 -17 1z"/>
<path d="M1530 2341 c0 -11 5 -23 10 -26 6 -3 10 3 10 14 0 11 -4 23 -10 26
-5 3 -10 -3 -10 -14z"/>
<path d="M1569 2347 c6 -8 8 -17 4 -20 -3 -4 -1 -7 5 -7 14 0 14 2 6 24 -3 9
-11 16 -16 16 -7 0 -6 -5 1 -13z"/>
<path d="M570 2340 c0 -5 7 -10 16 -10 8 0 12 5 9 10 -3 6 -10 10 -16 10 -5 0
-9 -4 -9 -10z"/>
<path d="M640 2340 c0 -7 3 -10 7 -7 3 4 3 10 0 14 -4 3 -7 0 -7 -7z"/>
<path d="M690 2340 c0 -7 3 -10 7 -7 3 4 3 10 0 14 -4 3 -7 0 -7 -7z"/>
<path d="M440 2329 c0 -5 5 -7 10 -4 6 3 10 8 10 11 0 2 -4 4 -10 4 -5 0 -10
-5 -10 -11z"/>
<path d="M1361 2318 c-1 -10 -5 -18 -11 -18 -5 0 -10 -4 -10 -10 0 -6 43 -10
113 -9 80 1 102 3 78 9 -19 5 -49 6 -68 3 -26 -4 -33 -2 -33 10 0 9 -4 18 -9
21 -5 3 -8 -2 -7 -11 2 -27 -33 -28 -43 -1 -7 17 -10 19 -10 6z"/>
<path d="M170 2311 c0 -5 9 -7 20 -4 11 3 20 7 20 9 0 2 -9 4 -20 4 -11 0 -20
-4 -20 -9z"/>
<path d="M457 2308 c-15 -11 -10 -13 30 -14 34 -1 39 0 18 4 -27 5 -24 7 20
12 50 7 50 7 -1 8 -27 1 -58 -4 -67 -10z"/>
<path d="M590 2310 c-12 -8 -11 -10 7 -10 12 0 30 -3 40 -7 16 -6 16 -5 4 10
-15 19 -29 21 -51 7z"/>
<path d="M2185 2300 c3 -5 8 -10 11 -10 2 0 4 5 4 10 0 6 -5 10 -11 10 -5 0
-7 -4 -4 -10z"/>
<path d="M1585 2290 c-18 -8 -17 -9 8 -9 16 -1 26 3 22 9 -3 6 -7 10 -8 9 -1
0 -11 -4 -22 -9z"/>
<path d="M150 2282 c0 -7 -3 -11 -8 -8 -4 2 -37 -3 -72 -13 -57 -14 -65 -20
-67 -41 -1 -14 1 -17 3 -8 5 18 92 48 137 48 26 0 45 -35 23 -44 -6 -2 -3 -5
6 -5 12 -1 16 6 14 25 -3 27 -36 69 -36 46z"/>
<path d="M660 2285 c0 -2 10 -10 23 -16 20 -11 21 -11 8 4 -13 16 -31 23 -31
12z"/>
<path d="M2430 2271 c0 -4 29 -8 65 -9 36 -2 65 1 65 7 0 5 -29 9 -65 9 -36 0
-65 -3 -65 -7z"/>
<path d="M1445 2260 c3 -5 8 -10 11 -10 3 0 2 5 -1 10 -3 6 -8 10 -11 10 -3 0
-2 -4 1 -10z"/>
<path d="M2176 2193 c-16 -192 -1 -175 -152 -169 -103 4 -138 9 -150 21 -8 8
-24 15 -33 15 -10 0 -33 3 -50 6 -24 5 -31 3 -29 -7 2 -8 20 -16 42 -19 38 -5
64 -30 32 -30 -19 0 -21 -11 -4 -28 8 -8 64 -12 185 -12 167 0 173 1 164 19
-6 10 -9 27 -7 38 8 37 19 243 13 243 -2 0 -8 -35 -11 -77z m-25 -200 c8 -8
-25 -11 -133 -12 -151 -2 -185 3 -169 23 12 15 286 5 302 -11z"/>
<path d="M593 2236 c35 -30 22 -41 -43 -37 -61 3 -77 21 -19 22 44 1 44 1 5
10 -27 6 -43 6 -53 -2 -16 -14 -12 -34 8 -34 21 0 18 -66 -5 -92 -11 -13 -14
-23 -8 -23 6 0 19 14 29 30 9 17 20 30 23 30 3 0 11 -13 18 -30 15 -33 47 -43
37 -11 -5 16 -2 18 15 14 15 -4 18 -8 10 -13 -9 -6 -9 -9 0 -15 18 -11 47 22
32 37 -7 7 -12 20 -12 30 0 10 -5 18 -11 18 -8 0 -8 4 -2 13 24 31 22 47 -7
62 -42 22 -49 18 -17 -9z m-2 -67 c11 -21 0 -38 -24 -39 -6 0 -27 42 -27 56 0
14 41 0 51 -17z m-64 -11 c-3 -8 -6 -5 -6 6 -1 11 2 17 5 13 3 -3 4 -12 1 -19z
m90 -20 c-3 -8 -6 -5 -6 6 -1 11 2 17 5 13 3 -3 4 -12 1 -19z"/>
<path d="M2332 2231 c-3 -8 -6 -24 -6 -36 -1 -12 -16 -35 -33 -52 -18 -18 -35
-46 -38 -67 -5 -23 -11 -33 -19 -29 -6 4 -5 -1 2 -10 8 -9 30 -25 49 -37 35
-21 35 -21 29 3 -5 21 -2 23 29 23 22 -1 35 -6 35 -14 0 -9 -7 -11 -20 -7 -19
6 -20 2 -20 -57 -1 -63 -1 -63 -35 -25 -24 28 -32 33 -28 18 3 -12 19 -32 35
-44 32 -25 32 -19 2 -283 -4 -32 -3 -56 1 -52 9 9 34 236 38 340 2 79 2 79
105 76 102 -3 102 -3 102 39 0 24 -5 43 -12 46 -10 4 -10 6 0 6 18 1 16 61 -3
61 -8 0 -15 -4 -15 -10 0 -5 -13 -10 -29 -10 -48 0 -61 -10 -67 -51 -4 -21
-10 -36 -15 -34 -15 10 3 80 27 102 19 17 24 32 24 70 0 48 0 48 -66 48 -48 0
-68 -4 -72 -14z m25 -28 c-4 -3 -7 0 -7 7 0 7 3 10 7 7 3 -4 3 -10 0 -14z m76
10 c-7 -2 -21 -2 -30 0 -10 3 -4 5 12 5 17 0 24 -2 18 -5z m12 -63 c-7 -12
-65 -10 -65 2 0 4 16 8 36 8 21 0 33 -4 29 -10z m-96 -44 c-4 -41 -16 -61 -39
-61 -14 0 -24 -5 -23 -12 2 -7 -4 -10 -13 -6 -17 6 -12 66 7 89 11 14 69 5 68
-10z m68 -103 c-4 -3 -10 -3 -14 0 -3 4 0 7 7 7 7 0 10 -3 7 -7z"/>
<path d="M2290 2095 c0 -8 2 -15 4 -15 2 0 6 7 10 15 3 8 1 15 -4 15 -6 0 -10
-7 -10 -15z"/>
<path d="M1358 2213 c12 -2 32 -2 45 0 12 2 2 4 -23 4 -25 0 -35 -2 -22 -4z"/>
<path d="M1438 2213 c7 -3 16 -2 19 1 4 3 -2 6 -13 5 -11 0 -14 -3 -6 -6z"/>
<path d="M1488 2213 c6 -2 18 -2 25 0 6 3 1 5 -13 5 -14 0 -19 -2 -12 -5z"/>
<path d="M1570 2211 c0 -5 9 -7 20 -4 11 3 20 7 20 9 0 2 -9 4 -20 4 -11 0
-20 -4 -20 -9z"/>
<path d="M763 2155 c0 -33 2 -45 4 -27 2 18 2 45 0 60 -2 15 -4 0 -4 -33z"/>
<path d="M647 2173 c-3 -5 -1 -17 3 -28 6 -17 7 -16 12 8 5 25 -5 37 -15 20z"/>
<path d="M1443 2158 c-34 -38 -74 -153 -41 -120 7 7 36 12 65 12 49 0 54 -2
64 -27 7 -18 6 -28 -1 -33 -7 -4 -5 -14 7 -29 18 -22 18 -21 15 33 -3 46 -1
56 12 56 14 0 14 2 -1 20 -10 11 -22 20 -28 20 -5 0 -22 7 -38 14 -26 14 -27
14 -17 -5 6 -10 18 -19 28 -19 16 -1 16 -1 0 -10 -15 -9 -85 -6 -95 4 -3 2 1
17 9 33 11 23 20 28 51 29 46 1 56 10 31 29 -26 20 -37 19 -61 -7z m94 -105
c-4 -3 -7 0 -7 7 0 7 3 10 7 7 3 -4 3 -10 0 -14z"/>
<path d="M53 2085 c-23 -25 -33 -43 -24 -40 28 9 53 -43 34 -71 -8 -13 -13
-31 -10 -41 4 -16 6 -15 12 5 4 12 13 22 20 22 7 0 29 16 49 35 21 19 46 35
56 35 10 0 22 5 26 12 5 8 2 9 -10 5 -14 -6 -17 -3 -12 9 3 8 6 18 6 20 0 15
22 0 30 -21 13 -34 30 -32 30 4 0 38 -44 50 -76 20 -11 -10 -27 -19 -35 -19
-10 1 -10 4 4 14 17 13 15 15 -16 35 -43 27 -37 29 -84 -24z m57 -20 c-18 -19
-35 -33 -38 -31 -6 6 50 66 62 66 5 0 -5 -16 -24 -35z m-30 15 c0 -5 -5 -10
-11 -10 -5 0 -7 5 -4 10 3 6 8 10 11 10 2 0 4 -4 4 -10z m57 -64 c-3 -8 -15
-20 -26 -26 -18 -9 -21 -8 -21 10 0 12 9 24 23 29 26 10 32 7 24 -13z"/>
<path d="M1550 2115 c0 -11 12 -15 45 -15 30 0 45 -4 45 -13 0 -7 10 -18 21
-25 20 -13 21 -12 15 11 -4 16 -1 29 6 33 18 12 -19 22 -79 23 -41 1 -53 -2
-53 -14z"/>
<path d="M696 2081 c-3 -5 -21 -9 -38 -10 -18 0 -46 -4 -63 -10 -29 -9 -28 -9
15 -10 45 -2 45 -2 21 -21 -13 -11 -29 -20 -37 -20 -12 0 -61 -22 -116 -51
-10 -5 -37 -8 -60 -7 -43 1 -43 1 2 8 53 8 42 11 -60 14 -81 2 -103 -1 -94
-15 3 -5 0 -9 -5 -9 -6 0 -11 5 -11 10 0 7 -8 6 -22 -1 -21 -11 -22 -11 -9 4
12 15 9 17 -30 17 -29 0 -39 -3 -30 -9 17 -11 -3 -25 -24 -17 -8 3 -17 1 -20
-3 -7 -12 331 -19 385 -8 24 5 61 20 82 33 20 13 38 20 41 16 2 -4 2 -1 1 5
-2 7 5 17 16 23 28 15 38 12 15 -6 -18 -13 -17 -14 15 -8 19 4 40 11 45 16 7
7 1 8 -15 3 -22 -7 -23 -6 -11 9 7 9 19 16 27 16 22 0 26 18 5 30 -11 6 -22 6
-25 1z m-349 -127 c-3 -3 -12 -4 -19 -1 -8 3 -5 6 6 6 11 1 17 -2 13 -5z"/>
<path d="M1202 2082 c-34 -11 -4 -22 62 -20 40 0 78 -2 83 -5 9 -6 23 12 23
28 0 4 -153 2 -168 -3z"/>
<path d="M455 2049 c-28 -10 -62 -16 -77 -13 -32 6 -138 -15 -138 -28 0 -10
-2 -10 40 3 19 5 63 10 97 10 35 -1 73 5 90 14 15 8 44 15 63 16 29 0 31 2 15
9 -27 12 -33 11 -90 -11z"/>
<path d="M1153 2063 c4 -3 10 -3 14 0 3 4 0 7 -7 7 -7 0 -10 -3 -7 -7z"/>
<path d="M1715 2059 c7 -11 35 -12 35 -1 0 4 -9 8 -20 9 -11 1 -18 -2 -15 -8z"/>
<path d="M1593 2053 c4 -3 10 -3 14 0 3 4 0 7 -7 7 -7 0 -10 -3 -7 -7z"/>
<path d="M1623 2053 c4 -3 10 -3 14 0 3 4 0 7 -7 7 -7 0 -10 -3 -7 -7z"/>
<path d="M515 2020 c-50 -7 -50 -7 -5 -8 25 -1 52 3 60 8 8 5 11 9 5 8 -5 -1
-32 -4 -60 -8z"/>
<path d="M6 1968 c4 -13 7 -31 6 -41 0 -9 3 -15 8 -12 5 3 7 18 5 33 -2 15 -4
30 -4 35 -1 4 -6 7 -12 7 -6 0 -8 -9 -3 -22z"/>
<path d="M2231 1974 c0 -11 3 -14 6 -6 3 7 2 16 -1 19 -3 4 -6 -2 -5 -13z"/>
<path d="M1820 1962 c0 -13 47 -28 57 -18 4 3 -3 6 -13 6 -11 0 -25 5 -32 12
-9 9 -12 9 -12 0z"/>
<path d="M1008 1953 c17 -2 47 -2 65 0 17 2 3 4 -33 4 -36 0 -50 -2 -32 -4z"/>
<path d="M635 1940 c-4 -6 -15 -8 -26 -5 -14 5 -17 3 -13 -9 4 -11 0 -16 -11
-16 -10 0 -14 5 -9 13 9 15 -44 -30 -68 -58 -10 -11 -18 -31 -18 -45 0 -14 4
-20 8 -15 4 6 36 26 72 45 40 21 60 27 51 16 -18 -22 -139 -82 -148 -73 -11
12 -11 102 0 109 6 4 8 10 4 14 -4 4 -42 -9 -85 -29 -43 -21 -81 -37 -85 -37
-4 0 -60 -22 -124 -50 -64 -28 -132 -50 -150 -50 -24 0 -33 -4 -30 -12 2 -7
13 -12 24 -11 18 2 20 -10 31 -180 27 -393 36 -495 46 -505 2 -2 1 44 -1 102
-7 126 -18 108 145 233 68 53 121 97 119 100 -3 2 -60 -39 -128 -91 -68 -53
-128 -95 -134 -93 -10 4 -18 60 -28 207 -3 41 -9 105 -13 143 -7 67 -7 67 82
107 49 23 98 45 109 50 199 92 195 91 195 26 0 -49 0 -49 -240 -180 -58 -32
-112 -65 -120 -73 -14 -15 12 -2 168 86 41 22 75 41 78 41 2 0 25 14 51 30 60
38 82 40 59 5 -9 -13 -16 -28 -16 -32 0 -4 4 -1 10 7 5 8 12 12 15 9 10 -11
20 -134 19 -256 0 -121 0 -121 -57 -183 -32 -34 -55 -66 -51 -71 3 -5 0 -8 -7
-7 -7 2 -13 -1 -14 -7 0 -5 -4 -16 -8 -22 -5 -8 -3 -13 4 -13 10 0 10 -3 1
-12 -15 -15 -56 -22 -47 -8 3 5 13 10 22 10 9 0 13 3 10 7 -4 3 -2 12 4 20 6
7 7 13 2 13 -8 0 -274 -267 -288 -290 -9 -14 40 -5 67 12 55 36 188 176 182
192 -3 9 -1 16 6 16 6 0 8 -4 5 -10 -19 -31 19 1 97 81 56 57 95 89 106 87 11
-2 40 23 81 69 35 40 68 73 75 73 6 0 3 5 -7 11 -16 9 -28 2 -75 -45 -31 -31
-61 -56 -68 -56 -26 0 3 39 97 128 101 96 139 113 169 78 6 -8 24 -16 38 -18
27 -3 27 -3 27 -113 0 -110 0 -110 -59 -200 -33 -49 -68 -100 -79 -112 -19
-21 -19 -21 63 -25 45 -2 87 0 94 4 6 4 -17 8 -51 9 -35 1 -67 3 -73 4 -5 1
-13 3 -17 4 -5 1 -3 5 2 9 6 4 25 30 43 59 18 28 44 59 58 67 22 15 37 45 15
32 -5 -3 -1 10 9 29 15 29 17 52 12 140 -5 105 -5 105 159 103 114 -2 171 -7
188 -17 13 -7 21 -9 17 -3 -3 6 11 8 37 6 23 -2 80 -6 126 -10 62 -5 82 -4 77
5 -5 7 3 11 23 11 16 0 32 -4 36 -9 3 -5 50 -8 105 -7 70 2 97 0 93 -8 -4 -7
-1 -6 8 1 17 14 149 9 182 -8 22 -10 22 -10 2 6 -19 15 -18 16 23 9 28 -4 42
-3 42 5 0 7 -31 11 -92 11 -51 1 -145 3 -208 5 -63 2 -285 6 -494 10 -280 6
-385 11 -403 20 -14 8 -32 11 -40 8 -10 -4 -13 0 -9 18 3 13 2 40 -3 59 -9 34
-9 33 -10 -18 -1 -47 -5 -56 -33 -80 -18 -15 -66 -58 -105 -96 -40 -38 -75
-67 -78 -64 -8 7 -26 348 -20 368 14 44 35 30 37 -23 1 -50 2 -50 5 -10 5 48
31 74 116 113 46 22 68 40 48 40 -16 0 -61 -22 -61 -31 0 -4 -8 -10 -17 -14
-10 -3 7 18 38 49 41 39 54 57 46 65 -14 14 -54 14 -62 1z m23 -22 c-19 -28
-38 -34 -38 -12 0 9 3 15 6 11 4 -3 13 0 21 8 22 22 27 18 11 -7z m-48 -23 c0
-2 -22 -17 -50 -34 -53 -32 -66 -26 -27 13 19 19 77 34 77 21z m-31 -89 c-2
-2 -15 -9 -29 -15 -24 -11 -24 -11 -6 3 16 13 49 24 35 12z m638 -283 c-4 -3
-10 -3 -14 0 -3 4 0 7 7 7 7 0 10 -3 7 -7z m171 -10 c-10 -2 -26 -2 -35 0 -10
3 -2 5 17 5 19 0 27 -2 18 -5z m49 0 c-4 -3 -10 -3 -14 0 -3 4 0 7 7 7 7 0 10
-3 7 -7z m120 0 c-4 -3 -10 -3 -14 0 -3 4 0 7 7 7 7 0 10 -3 7 -7z m-1067
-203 c0 -5 -7 -10 -16 -10 -8 0 -12 5 -9 10 3 6 10 10 16 10 5 0 9 -4 9 -10z
m50 -4 c0 -2 -7 -7 -16 -10 -8 -3 -12 -2 -9 4 6 10 25 14 25 6z m-118 -78 c-7
-7 -20 -13 -29 -14 -14 -2 -13 1 6 17 25 20 44 18 23 -3z m-200 -199 c-29 -28
-55 -49 -58 -46 -7 7 85 97 99 97 7 0 -12 -23 -41 -51z m-92 -85 c-8 -8 -23
-20 -34 -25 -15 -7 -13 -3 7 15 31 29 47 35 27 10z"/>
<path d="M1893 1943 c4 -3 10 -3 14 0 3 4 0 7 -7 7 -7 0 -10 -3 -7 -7z"/>
<path d="M1928 1943 c7 -3 16 -2 19 1 4 3 -2 6 -13 5 -11 0 -14 -3 -6 -6z"/>
<path d="M2227 1943 c-10 -10 -8 -43 2 -43 5 0 8 11 7 25 0 14 -1 25 -2 25 0
0 -4 -3 -7 -7z"/>
<path d="M1849 1911 c38 -34 80 -43 136 -31 40 9 40 9 -5 8 -75 -1 -86 1 -126
27 -39 25 -39 25 -5 -4z"/>
<path d="M523 1913 c4 -3 10 -3 14 0 3 4 0 7 -7 7 -7 0 -10 -3 -7 -7z"/>
<path d="M1544 1912 c-10 -7 -27 -42 -20 -42 3 0 13 -3 23 -6 13 -4 15 -3 4 4
-10 7 -11 14 -2 31 13 23 12 25 -5 13z"/>
<path d="M27 1902 c-43 -5 -32 -18 13 -14 22 2 40 5 40 7 0 7 -27 10 -53 7z"/>
<path d="M720 1901 c0 -5 5 -13 10 -16 6 -3 10 -2 10 4 0 5 -4 13 -10 16 -5 3
-10 2 -10 -4z"/>
<path d="M1018 1893 c53 -4 53 -4 -44 -108 -95 -103 -97 -104 -148 -108 -51
-3 -51 -3 4 -5 56 -2 56 -2 158 107 56 60 102 112 102 115 0 3 -28 5 -62 4
-63 -2 -63 -2 -10 -5z"/>
<path d="M1158 1867 c-9 -14 -14 -27 -11 -31 13 -13 30 -5 43 19 13 24 17 25
114 25 56 0 118 -5 140 -9 29 -7 36 -7 27 2 -8 8 -63 13 -154 15 -141 3 -142
3 -159 -21z"/>
<path d="M2292 1860 c17 -17 33 -28 36 -25 6 6 -47 54 -60 55 -3 0 7 -14 24
-30z"/>
<path d="M2093 1873 c9 -2 25 -2 35 0 9 3 1 5 -18 5 -19 0 -27 -2 -17 -5z"/>
<path d="M2178 1873 c36 -5 40 -27 26 -162 -7 -61 -7 -61 -68 -63 -61 -2 -61
-2 -1 -5 59 -3 61 -4 113 -61 33 -35 57 -73 64 -98 10 -35 18 -43 62 -63 50
-23 124 -38 95 -20 -8 5 -24 9 -36 9 -12 0 -25 5 -28 10 -3 6 -14 10 -24 10
-22 0 -47 27 -56 60 -3 14 -31 57 -62 95 -60 75 -60 71 -37 253 6 42 6 42 -38
40 -36 -1 -38 -2 -10 -5z"/>
<path d="M136 1849 c-27 -11 -68 -20 -92 -21 -35 0 -44 -4 -44 -18 0 -35 103
-33 145 2 5 4 20 8 33 8 21 0 22 2 12 15 -9 10 -9 15 -1 15 6 0 11 5 11 10 0
13 -7 12 -64 -11z m-29 -36 c-4 -3 -10 -3 -14 0 -3 4 0 7 7 7 7 0 10 -3 7 -7z"/>
<path d="M705 1850 c-11 -12 -53 -43 -95 -71 -41 -27 -70 -49 -64 -49 6 0 23
9 36 20 29 22 79 43 76 32 -1 -4 2 -14 5 -22 4 -8 8 -55 10 -105 3 -90 3 -90
5 8 1 54 -2 107 -8 117 -8 15 -5 23 16 39 40 31 43 28 46 -56 3 -68 6 -78 22
-81 18 -4 19 -3 3 13 -13 12 -17 34 -17 83 0 83 -9 101 -35 72z"/>
<path d="M1982 1821 c63 -74 71 -152 27 -264 -11 -26 -19 -50 -19 -52 0 -3 31
-5 68 -5 80 0 90 -6 135 -81 34 -56 34 -56 -62 -52 -120 5 -141 9 -141 29 0 8
-7 22 -15 30 -12 13 -15 13 -15 2 0 -31 25 -68 47 -68 12 0 25 -4 28 -10 3 -5
11 -10 16 -10 6 0 7 5 3 11 -4 8 1 9 16 4 12 -4 29 -8 36 -9 14 -2 43 -35 44
-49 0 -18 -25 1 -32 24 -6 19 -7 18 -3 -8 3 -25 1 -31 -13 -28 -9 1 -20 -2
-24 -8 -3 -6 -16 5 -28 24 -12 19 -20 26 -17 17 8 -22 -19 -31 -38 -12 -13 14
-15 14 -15 -1 0 -10 -7 -15 -17 -13 -10 2 -18 11 -17 21 0 9 1 49 2 87 2 56 5
70 18 70 8 0 12 5 9 10 -4 7 -13 7 -26 0 -11 -6 -17 -15 -15 -19 3 -4 2 -47
-2 -95 -8 -86 -8 -86 30 -86 31 0 38 -4 38 -20 0 -16 -7 -20 -34 -20 -19 0
-38 -4 -41 -10 -4 -6 8 -10 29 -10 20 0 36 -5 36 -11 0 -12 -30 -44 -30 -32
-1 4 -10 -3 -20 -16 -20 -23 -27 -53 -12 -49 23 7 92 -14 92 -27 0 -8 7 -15
15 -15 18 0 20 16 3 23 -7 3 -8 6 -3 6 22 1 37 -17 30 -38 -5 -16 -10 -19 -19
-12 -19 16 -126 12 -126 -4 0 -8 12 -14 28 -14 93 -3 107 -6 110 -29 2 -12 8
-22 14 -22 5 0 7 -8 4 -17 -5 -15 -4 -15 9 1 8 11 15 28 15 38 0 10 5 18 10
18 11 0 13 -62 4 -97 -4 -13 -13 -23 -20 -23 -18 0 -18 -3 5 -42 11 -17 18
-35 15 -40 -3 -4 0 -8 7 -8 7 0 10 11 7 29 -4 26 -2 29 21 28 22 -2 27 -8 29
-36 5 -51 -7 -103 -21 -95 -8 5 -9 4 -2 -3 6 -5 22 -14 36 -20 32 -14 39 6 39
121 0 71 0 71 20 46 11 -14 22 -33 25 -42 3 -9 27 -54 53 -100 26 -46 56 -100
67 -122 23 -45 68 -96 85 -96 6 0 8 5 5 10 -3 6 -12 10 -18 10 -13 0 -20 11
-113 181 -66 120 -79 152 -43 109 21 -25 21 -25 7 0 -9 14 -18 23 -22 20 -10
-8 -66 82 -58 94 3 6 8 67 10 136 2 69 10 154 17 190 15 70 -1 129 -42 161
-16 12 -16 12 1 -8 10 -12 16 -27 14 -34 -2 -7 -19 10 -36 37 -18 27 -45 67
-61 89 -16 22 -32 52 -35 66 -6 29 -36 48 -36 23 0 -8 5 -12 10 -9 6 3 10 -5
10 -19 0 -14 5 -28 10 -31 22 -14 8 -21 -32 -16 -49 7 -55 23 -12 32 22 5 24
7 7 8 -12 0 -25 6 -29 13 -4 7 -3 8 4 4 16 -10 24 50 14 110 -10 59 -53 138
-84 155 -16 9 -12 1 14 -30z m193 -511 c3 -5 4 -10 1 -10 -3 0 -8 5 -11 10 -3
6 -4 10 -1 10 3 0 8 -4 11 -10z m42 -22 c-3 -8 -6 -5 -6 6 -1 11 2 17 5 13 3
-3 4 -12 1 -19z m20 -5 c-4 -3 -7 0 -7 7 0 7 3 10 7 7 3 -4 3 -10 0 -14z
m-183 -34 c-10 -16 -24 -9 -24 12 0 18 2 19 15 9 8 -7 12 -16 9 -21z m79 -51
c-6 -114 -13 -159 -24 -152 -10 6 -2 209 8 227 13 22 20 -11 16 -75z m66 -54
c-2 -110 -10 -139 -28 -91 -8 21 -4 177 5 205 2 7 9 10 14 7 7 -4 10 -51 9
-121z m38 9 c-2 -16 -4 -3 -4 27 0 30 2 43 4 28 2 -16 2 -40 0 -55z m-191 25
c-6 -32 -20 -48 -43 -48 -7 0 -4 14 8 40 24 49 44 54 35 8z m-76 -33 c0 -8 -2
-15 -4 -15 -2 0 -6 7 -10 15 -3 8 -1 15 4 15 6 0 10 -7 10 -15z m247 -82 c-2
-21 -4 -6 -4 32 0 39 2 55 4 38 2 -18 2 -50 0 -70z m20 35 c-3 -8 -6 -5 -6 6
-1 11 2 17 5 13 3 -3 4 -12 1 -19z m-47 -122 c0 -12 -3 -38 -7 -59 -9 -57 -23
-25 -23 53 1 59 2 63 15 46 8 -11 15 -29 15 -40z m37 22 c-3 -8 -6 -5 -6 6 -1
11 2 17 5 13 3 -3 4 -12 1 -19z m-25 -186 c2 -28 0 -52 -4 -52 -5 0 -7 33 -7
73 2 76 6 68 11 -21z m15 21 c-3 -10 -5 -4 -5 12 0 17 2 24 5 18 2 -7 2 -21 0
-30z"/>
<path d="M2110 1130 c0 -7 3 -10 7 -7 3 4 3 10 0 14 -4 3 -7 0 -7 -7z"/>
<path d="M402 1799 c-17 -27 -6 -38 15 -16 11 11 14 20 7 27 -6 6 -14 2 -22
-11z"/>
<path d="M1280 1810 c-9 -6 -10 -10 -3 -10 6 0 15 5 18 10 8 12 4 12 -15 0z"/>
<path d="M590 1732 c-45 -37 -45 -37 -36 -114 8 -77 8 -77 52 -42 44 36 44 36
42 115 -1 43 -5 79 -8 78 -3 0 -25 -17 -50 -37z m37 -22 c-3 -11 0 -34 6 -50
10 -27 9 -33 -12 -53 -16 -15 -25 -18 -28 -9 -3 6 -8 10 -13 7 -10 -6 -24 51
-16 64 3 5 15 7 26 4 12 -3 20 0 20 6 0 7 -4 9 -10 6 -13 -8 -13 1 0 26 14 25
34 25 27 -1z"/>
<path d="M1023 1743 c4 -3 10 -3 14 0 3 4 0 7 -7 7 -7 0 -10 -3 -7 -7z"/>
<path d="M216 1721 c-16 -17 -22 -41 -10 -41 15 0 44 22 44 35 0 23 -16 26
-34 6z m11 -18 c-4 -3 -7 0 -7 7 0 7 3 10 7 7 3 -4 3 -10 0 -14z"/>
<path d="M978 1733 c7 -3 16 -2 19 1 4 3 -2 6 -13 5 -11 0 -14 -3 -6 -6z"/>
<path d="M957 1633 c-7 -10 51 -38 60 -29 4 3 0 6 -7 6 -7 0 -21 7 -31 16 -9
8 -19 11 -22 7z"/>
<path d="M800 1610 c-19 -4 -27 -8 -18 -9 9 0 23 -4 31 -7 8 -3 17 2 20 10 4
9 5 15 4 15 -1 -1 -18 -5 -37 -9z"/>
<path d="M885 1600 c-16 -7 -17 -9 -3 -9 9 -1 20 4 23 9 7 11 7 11 -20 0z"/>
<path d="M507 1545 c3 -33 7 -62 9 -64 7 -8 2 74 -6 99 -5 16 -6 2 -3 -35z"/>
<path d="M844 1578 c-4 -7 -3 -8 4 -4 7 4 12 9 12 12 0 8 -9 4 -16 -8z"/>
<path d="M1284 1578 c-4 -7 -3 -8 4 -4 7 4 12 9 12 12 0 8 -9 4 -16 -8z"/>
<path d="M1740 1550 c0 -7 3 -10 7 -7 3 4 3 10 0 14 -4 3 -7 0 -7 -7z"/>
<path d="M226 1517 c-13 -9 -16 -20 -12 -34 7 -21 7 -21 32 4 34 34 19 58 -20
30z m11 -24 c-4 -3 -7 0 -7 7 0 7 3 10 7 7 3 -4 3 -10 0 -14z"/>
<path d="M665 1480 c-10 -11 -13 -20 -8 -20 13 0 38 29 31 35 -3 3 -13 -4 -23
-15z"/>
<path d="M912 1223 c2 -189 6 -239 15 -231 9 7 11 32 8 83 -5 72 -5 72 92 74
53 1 100 4 105 7 4 3 8 0 8 -5 0 -6 -13 -11 -30 -11 -52 0 -33 -16 22 -19 63
-3 60 -1 62 -48 1 -41 11 -63 28 -63 7 0 6 5 -1 14 -9 10 -9 20 -3 33 6 10 9
23 9 28 -1 6 18 13 43 16 45 6 45 6 3 7 -35 2 -43 6 -44 22 -1 11 -2 26 -3 33
-2 23 -21 27 -136 27 -168 0 -156 -8 -163 116 -7 147 -8 145 69 143 108 -4
130 -28 159 -174 7 -37 -34 23 -47 68 -14 51 -34 76 -24 32 6 -30 6 -30 -14 5
-25 45 -25 30 0 -44 24 -70 23 -69 8 -64 -7 3 -21 36 -30 74 -16 63 -17 65
-13 20 9 -86 25 -126 52 -126 14 0 21 -4 18 -10 -4 -6 6 -10 22 -9 25 0 26 1
8 9 -14 6 -15 9 -4 9 8 1 20 -4 26 -10 21 -21 37 125 20 184 -6 24 -5 27 15
28 68 3 -51 18 -160 21 -123 3 -123 3 -120 -239z m237 203 c9 -10 9 -16 1 -21
-12 -7 -40 11 -40 26 0 14 26 10 39 -5z m-52 -108 c-3 -8 -6 -5 -6 6 -1 11 2
17 5 13 3 -3 4 -12 1 -19z m20 -55 c-4 -3 -7 0 -7 7 0 7 3 10 7 7 3 -4 3 -10
0 -14z m-160 -100 c-4 -3 -7 0 -7 7 0 7 3 10 7 7 3 -4 3 -10 0 -14z m135 8
c-12 -7 -102 -4 -111 5 -2 2 25 4 60 4 38 0 59 -4 51 -9z"/>
<path d="M1400 1447 c11 -12 128 -21 282 -20 180 0 188 -4 169 -82 -8 -37 -9
-37 -10 -10 -2 48 -7 50 -163 51 -103 0 -151 4 -162 13 -10 9 -61 14 -154 16
-138 4 -204 -6 -120 -18 24 -3 53 -9 63 -12 16 -6 17 -5 5 4 -9 7 -10 11 -3
11 6 0 15 -4 18 -10 3 -5 23 -9 43 -9 37 2 37 2 2 9 -35 7 -35 7 -4 9 16 0 35
-4 42 -11 6 -6 27 -11 47 -10 27 1 39 -4 51 -24 23 -34 13 -39 -64 -36 -37 1
-94 -2 -127 -7 -55 -8 -51 -9 60 -10 77 -2 113 -5 100 -11 -19 -8 -19 -9 3 -9
17 -1 22 -7 22 -27 0 -19 4 -25 15 -21 8 4 17 2 20 -4 4 -5 11 -7 16 -3 5 3
15 1 22 -4 7 -5 66 -12 132 -15 66 -2 127 -6 135 -8 12 -3 17 17 24 114 5 65
6 120 4 123 -8 7 -474 18 -468 11z m77 -54 c-4 -3 -10 -3 -14 0 -3 4 0 7 7 7
7 0 10 -3 7 -7z m103 -47 c0 -2 -11 -3 -24 -2 -14 0 -22 6 -19 13 4 11 43 1
43 -11z m17 17 c-4 -3 -10 -3 -14 0 -3 4 0 7 7 7 7 0 10 -3 7 -7z m155 0 c-12
-3 -20 -8 -17 -13 3 -4 -9 -10 -26 -12 -19 -3 -33 0 -38 10 -5 8 -11 11 -13 6
-3 -5 3 -18 13 -28 11 -11 19 -15 19 -9 0 6 11 10 24 9 13 0 22 -4 20 -7 -5
-9 34 -19 74 -19 33 0 38 -5 23 -29 -6 -9 -15 -11 -27 -6 -40 17 -272 21 -266
5 4 -11 2 -12 -7 -4 -25 23 8 54 50 48 41 -6 87 10 59 20 -8 3 -24 7 -35 9
-15 4 -13 5 7 6 15 0 29 4 32 9 2 4 33 8 68 8 35 0 53 -1 40 -3z m78 -23 c0
-5 -6 -10 -14 -10 -8 0 -18 5 -21 10 -3 6 3 10 14 10 12 0 21 -4 21 -10z
m-111 -98 c3 -6 17 -12 31 -15 14 -3 -15 -5 -65 -5 -86 1 -137 16 -102 32 19
9 129 -1 136 -12z"/>
<path d="M1698 1353 c7 -3 16 -2 19 1 4 3 -2 6 -13 5 -11 0 -14 -3 -6 -6z"/>
<path d="M985 1400 c14 -110 15 -115 6 -90 -9 25 -9 25 -10 -1 -1 -14 8 -35
19 -47 11 -12 20 -25 20 -30 0 -5 7 -9 15 -9 18 0 18 2 5 25 -6 9 -22 55 -35
102 -14 47 -23 69 -20 50z"/>
<path d="M2008 1413 c7 -3 16 -2 19 1 4 3 -2 6 -13 5 -11 0 -14 -3 -6 -6z"/>
<path d="M1323 1353 c4 -3 10 -3 14 0 3 4 0 7 -7 7 -7 0 -10 -3 -7 -7z"/>
<path d="M1413 1343 c4 -3 10 -3 14 0 3 4 0 7 -7 7 -7 0 -10 -3 -7 -7z"/>
<path d="M1970 1340 c0 -5 5 -10 10 -10 6 0 10 5 10 10 0 6 -4 10 -10 10 -5 0
-10 -4 -10 -10z"/>
<path d="M2008 1343 c7 -3 16 -2 19 1 4 3 -2 6 -13 5 -11 0 -14 -3 -6 -6z"/>
<path d="M2000 1320 c0 -7 3 -10 7 -7 3 4 3 10 0 14 -4 3 -7 0 -7 -7z"/>
<path d="M699 1283 c-13 -16 -12 -17 4 -4 9 7 17 15 17 17 0 8 -8 3 -21 -13z"/>
<path d="M948 1285 c-10 -10 4 -63 16 -59 8 3 11 17 8 34 -4 28 -12 37 -24 25z"/>
<path d="M241 1244 c-24 -31 -26 -44 -8 -44 19 0 47 33 47 53 0 25 -16 21 -39
-9z"/>
<path d="M1458 1263 c7 -3 16 -2 19 1 4 3 -2 6 -13 5 -11 0 -14 -3 -6 -6z"/>
<path d="M659 1233 c-13 -16 -12 -17 4 -4 9 7 17 15 17 17 0 8 -8 3 -21 -13z"/>
<path d="M846 1189 c-8 -25 -12 -89 -5 -89 3 0 9 21 12 48 5 47 2 68 -7 41z"/>
<path d="M1235 1171 c-15 -25 -12 -25 228 -30 70 -1 77 -3 77 -21 0 -22 -40
-37 -62 -24 -16 11 -58 13 -58 3 0 -4 -3 -15 -6 -24 -6 -15 0 -17 54 -13 63 3
72 -2 72 -39 0 -12 -16 -14 -104 -11 -57 1 -102 0 -99 -4 2 -5 68 -8 146 -8
130 1 139 2 110 15 -30 13 -32 17 -31 58 0 24 -3 53 -6 64 -6 20 -3 21 61 21
53 -1 60 -3 33 -8 -29 -5 -22 -7 40 -11 41 -3 83 -1 92 3 28 14 46 -1 50 -43
4 -39 4 -39 -47 -41 -50 -1 -50 -1 0 -7 64 -8 70 -33 10 -42 -40 -6 -40 -6 -4
-8 41 -1 53 -9 39 -26 -8 -9 -6 -15 7 -19 10 -4 15 -4 11 -1 -3 3 -2 21 2 40
4 19 3 38 -2 43 -6 6 -6 12 1 16 12 8 15 102 4 109 -20 12 -610 19 -618 8z
m143 -8 c-15 -2 -42 -2 -60 0 -18 2 -6 4 27 4 33 0 48 -2 33 -4z m139 -10 c-4
-3 -10 -3 -14 0 -3 4 0 7 7 7 7 0 10 -3 7 -7z m200 0 c-4 -3 -10 -3 -14 0 -3
4 0 7 7 7 7 0 10 -3 7 -7z m70 0 c-4 -3 -10 -3 -14 0 -3 4 0 7 7 7 7 0 10 -3
7 -7z m-322 -63 c3 -5 4 -10 1 -10 -3 0 -8 5 -11 10 -3 6 -4 10 -1 10 3 0 8
-4 11 -10z m-28 -17 c-4 -3 -7 0 -7 7 0 7 3 10 7 7 3 -4 3 -10 0 -14z"/>
<path d="M1573 1143 c4 -3 10 -3 14 0 3 4 0 7 -7 7 -7 0 -10 -3 -7 -7z"/>
<path d="M1346 1112 c6 -4 14 -17 18 -29 4 -13 14 -23 22 -23 16 0 12 12 -14
43 -8 9 -20 17 -26 17 -8 0 -8 -2 0 -8z"/>
<path d="M1920 1090 c0 -7 3 -10 7 -7 3 4 3 10 0 14 -4 3 -7 0 -7 -7z"/>
<path d="M993 1083 c4 -3 10 -3 14 0 3 4 0 7 -7 7 -7 0 -10 -3 -7 -7z"/>
<path d="M1033 1080 c23 -15 138 -26 117 -11 -8 5 -30 9 -51 9 -20 0 -47 3
-60 6 -21 6 -22 5 -6 -4z"/>
<path d="M1600 1085 c0 -16 22 -35 40 -35 11 1 10 4 -5 12 -11 6 -23 16 -27
22 -5 7 -8 8 -8 1z"/>
<path d="M1978 1083 c7 -3 16 -2 19 1 4 3 -2 6 -13 5 -11 0 -14 -3 -6 -6z"/>
<path d="M960 1050 c0 -16 2 -30 4 -30 2 0 6 14 8 30 3 17 1 30 -4 30 -4 0 -8
-13 -8 -30z"/>
<path d="M1095 1030 c3 -5 8 -10 11 -10 2 0 4 5 4 10 0 6 -5 10 -11 10 -5 0
-7 -4 -4 -10z"/>
<path d="M1165 1030 c3 -5 8 -10 11 -10 3 0 2 5 -1 10 -3 6 -8 10 -11 10 -3 0
-2 -4 1 -10z"/>
<path d="M1288 1013 c7 -3 16 -2 19 1 4 3 -2 6 -13 5 -11 0 -14 -3 -6 -6z"/>
<path d="M1655 1010 c3 -5 16 -10 28 -9 21 0 21 1 2 9 -28 12 -37 12 -30 0z"/>
<path d="M1947 1009 c7 -7 15 -10 18 -7 3 3 -2 9 -12 12 -14 6 -15 5 -6 -5z"/>
<path d="M2550 1010 c0 -7 3 -10 7 -7 3 4 3 10 0 14 -4 3 -7 0 -7 -7z"/>
<path d="M1093 983 c4 -3 10 -3 14 0 3 4 0 7 -7 7 -7 0 -10 -3 -7 -7z"/>
<path d="M1923 965 c-8 -22 6 -33 17 -15 13 20 12 30 0 30 -6 0 -13 -7 -17
-15z"/>
<path d="M1965 970 c3 -5 8 -10 11 -10 2 0 4 5 4 10 0 6 -5 10 -11 10 -5 0 -7
-4 -4 -10z"/>
<path d="M2549 963 c-2 -17 -8 -92 -13 -170 -3 -45 -10 -101 -15 -125 -5 -24
-9 -70 -10 -103 -1 -33 -6 -102 -12 -154 -17 -171 -1 -115 29 99 9 65 9 65 11
-40 2 -58 6 -114 11 -125 5 -12 8 115 8 303 -1 273 -3 356 -9 315z"/>
<path d="M913 893 c4 -38 7 -101 7 -140 0 -73 0 -73 48 -71 40 1 42 2 12 5
-39 5 -54 20 -37 38 9 10 16 8 29 -8 29 -33 28 -18 -7 93 -19 58 -34 115 -34
128 -1 12 -6 22 -12 22 -9 0 -10 -20 -6 -67z m24 -140 c-4 -3 -7 0 -7 7 0 7 3
10 7 7 3 -4 3 -10 0 -14z"/>
<path d="M940 950 c0 -7 3 -10 7 -7 3 4 3 10 0 14 -4 3 -7 0 -7 -7z"/>
<path d="M1071 951 c-9 -6 -10 -11 -2 -15 6 -4 11 -16 11 -27 0 -11 9 -50 21
-87 37 -119 38 -122 71 -122 16 0 27 -4 24 -9 -3 -5 5 -11 19 -13 30 -6 30 -4
6 64 -25 69 -51 157 -51 172 -1 34 -64 58 -99 37z m97 -84 c7 -34 14 -84 17
-112 4 -49 3 -49 -10 -20 -7 17 -20 53 -28 80 -8 28 -21 65 -28 83 -12 28 -12
34 1 42 22 14 33 -3 48 -73z"/>
<path d="M2047 940 c3 -11 14 -20 24 -20 24 0 24 9 2 26 -25 19 -32 17 -26 -6z"/>
<path d="M997 938 c16 -26 62 -183 48 -164 -8 11 -15 25 -15 32 0 7 -5 16 -11
20 -14 8 -5 -23 23 -83 14 -29 25 -41 38 -40 16 1 17 3 6 17 -7 8 -16 29 -20
45 -4 17 -16 61 -28 99 -17 57 -18 70 -7 77 10 6 6 9 -14 9 -20 0 -26 -4 -20
-12z"/>
<path d="M1200 942 c0 -4 6 -16 13 -27 8 -11 31 -64 53 -117 21 -54 45 -98 52
-98 16 0 15 18 -3 36 -8 9 -15 21 -15 27 1 12 35 -24 42 -42 2 -5 16 -13 32
-17 28 -7 28 -7 22 37 -3 24 -6 51 -7 59 -3 23 -60 120 -71 120 -5 0 2 -21 15
-47 31 -59 40 -86 27 -78 -14 9 -12 -6 5 -35 8 -14 14 -31 15 -39 0 -28 -25 8
-74 103 -54 104 -80 131 -41 41 14 -30 21 -55 17 -55 -4 0 -16 24 -27 53 -11
28 -21 55 -23 60 -2 4 31 7 74 7 42 0 75 2 73 4 -9 7 -179 16 -179 8z"/>
<path d="M1915 828 c-11 -177 -6 -278 15 -342 7 -21 10 -40 7 -43 -3 -3 -74
-4 -158 -4 -194 2 -190 -7 7 -14 177 -6 179 -6 157 60 -13 40 -16 90 -15 248
1 108 0 197 -2 197 -2 0 -7 -46 -11 -102z"/>
<path d="M1190 911 c0 -6 4 -13 10 -16 6 -3 7 1 4 9 -7 18 -14 21 -14 7z"/>
<path d="M1828 913 c14 -5 15 -97 3 -205 -8 -76 3 -94 13 -22 14 103 7 234
-11 233 -11 0 -13 -3 -5 -6z"/>
<path d="M961 900 c0 -8 4 -24 9 -35 5 -13 9 -14 9 -5 0 8 -4 24 -9 35 -5 13
-9 14 -9 5z"/>
<path d="M1940 901 c0 -10 30 -24 37 -17 3 2 -5 9 -16 16 -12 6 -21 7 -21 1z"/>
<path d="M2060 890 c0 -7 3 -10 7 -7 3 4 3 10 0 14 -4 3 -7 0 -7 -7z"/>
<path d="M5 880 c-3 -5 -2 -10 4 -10 5 0 13 5 16 10 3 6 2 10 -4 10 -5 0 -13
-4 -16 -10z"/>
<path d="M2013 883 c4 -3 10 -3 14 0 3 4 0 7 -7 7 -7 0 -10 -3 -7 -7z"/>
<path d="M1520 870 c0 -5 5 -10 11 -10 5 0 7 5 4 10 -3 6 -8 10 -11 10 -2 0
-4 -4 -4 -10z"/>
<path d="M1709 863 c13 -26 18 -108 6 -107 -5 1 -66 4 -135 7 -134 5 -100 -7
52 -19 47 -4 75 -10 72 -16 -4 -6 0 -14 7 -19 9 -6 -5 -9 -38 -9 -34 0 -53 -4
-53 -12 0 -6 -3 -8 -6 -5 -4 4 -1 14 7 24 8 9 9 14 2 10 -6 -4 -13 -2 -15 3
-4 14 -58 17 -130 7 -58 -8 -58 -8 -58 27 0 20 -4 36 -9 36 -4 0 -5 -19 0 -42
4 -24 8 -49 9 -55 0 -15 30 -18 30 -3 0 6 12 10 28 9 24 0 25 -1 7 -9 -20 -9
-20 -9 0 -10 11 -1 34 -3 50 -5 30 -4 30 -4 0 10 -30 14 -30 14 6 15 24 0 39
-5 43 -15 6 -17 66 -21 66 -5 0 6 5 10 11 10 5 0 7 -4 4 -10 -3 -5 3 -10 14
-10 10 0 26 -3 35 -6 21 -8 33 23 17 48 -6 10 -9 24 -5 29 4 8 9 7 15 -2 10
-16 1 65 -13 109 -5 17 -14 32 -19 32 -6 0 -6 -7 0 -17z"/>
<path d="M1301 865 c0 -5 11 -23 24 -40 14 -16 25 -25 25 -20 0 6 -11 24 -25
40 -13 17 -24 26 -24 20z"/>
<path d="M1503 848 c1 -18 7 -28 17 -28 13 0 13 -2 0 -11 -13 -9 -13 -10 0 -6
20 5 26 37 6 37 -8 0 -17 8 -19 18 -3 9 -4 5 -4 -10z"/>
<path d="M1211 855 c-1 -18 48 -148 59 -159 6 -6 -1 22 -14 61 -24 72 -45 117
-45 98z"/>
<path d="M1651 834 c0 -11 3 -14 6 -6 3 7 2 16 -1 19 -3 4 -6 -2 -5 -13z"/>
<path d="M7 833 c-4 -3 -7 -11 -7 -17 0 -6 5 -5 12 2 6 6 9 14 7 17 -3 3 -9 2
-12 -2z"/>
<path d="M980 830 c0 -8 5 -22 10 -30 9 -13 10 -13 10 0 0 8 -5 22 -10 30 -9
13 -10 13 -10 0z"/>
<path d="M1460 830 c0 -7 3 -10 7 -7 3 4 3 10 0 14 -4 3 -7 0 -7 -7z"/>
<path d="M1623 793 c4 -3 10 -3 14 0 3 4 0 7 -7 7 -7 0 -10 -3 -7 -7z"/>
<path d="M1965 790 c3 -5 8 -10 11 -10 3 0 2 5 -1 10 -3 6 -8 10 -11 10 -3 0
-2 -4 1 -10z"/>
<path d="M2445 770 c-3 -6 1 -7 9 -4 18 7 21 14 7 14 -6 0 -13 -4 -16 -10z"/>
<path d="M1968 753 c7 -3 16 -2 19 1 4 3 -2 6 -13 5 -11 0 -14 -3 -6 -6z"/>
<path d="M2020 750 c0 -7 3 -10 7 -7 3 4 3 10 0 14 -4 3 -7 0 -7 -7z"/>
<path d="M1005 730 c3 -5 8 -10 11 -10 3 0 2 5 -1 10 -3 6 -8 10 -11 10 -3 0
-2 -4 1 -10z"/>
<path d="M2460 710 c0 -7 3 -10 7 -7 3 4 3 10 0 14 -4 3 -7 0 -7 -7z"/>
<path d="M2170 679 c0 -5 5 -7 10 -4 6 3 10 8 10 11 0 2 -4 4 -10 4 -5 0 -10
-5 -10 -11z"/>
<path d="M2200 680 c0 -7 3 -10 7 -7 3 4 3 10 0 14 -4 3 -7 0 -7 -7z"/>
<path d="M2390 686 c0 -2 7 -9 15 -16 13 -11 14 -10 9 4 -5 14 -24 23 -24 12z"/>
<path d="M1073 673 c4 -3 10 -3 14 0 3 4 0 7 -7 7 -7 0 -10 -3 -7 -7z"/>
<path d="M1793 643 c4 -3 10 -3 14 0 3 4 0 7 -7 7 -7 0 -10 -3 -7 -7z"/>
<path d="M2070 625 c0 -5 5 -17 10 -25 5 -8 10 -10 10 -5 0 6 -5 17 -10 25 -5
8 -10 11 -10 5z"/>
<path d="M2480 580 c0 -7 3 -10 7 -7 3 4 3 10 0 14 -4 3 -7 0 -7 -7z"/>
<path d="M2090 570 c0 -7 3 -10 7 -7 3 4 3 10 0 14 -4 3 -7 0 -7 -7z"/>
<path d="M1940 540 c0 -7 3 -10 7 -7 3 4 3 10 0 14 -4 3 -7 0 -7 -7z"/>
<path d="M2105 520 c9 -42 34 -105 39 -99 5 5 -33 121 -41 129 -3 3 -2 -11 2
-30z"/>
<path d="M833 483 c8 -13 80 -20 267 -26 269 -9 455 -18 483 -22 15 -3 26 -1
23 4 -3 4 -74 11 -158 15 -299 13 -517 25 -569 32 -34 5 -50 4 -46 -3z"/>
<path d="M873 453 c4 -3 10 -3 14 0 3 4 0 7 -7 7 -7 0 -10 -3 -7 -7z"/>
<path d="M993 443 c4 -3 10 -3 14 0 3 4 0 7 -7 7 -7 0 -10 -3 -7 -7z"/>
<path d="M2172 274 c16 -65 36 -129 44 -143 10 -16 13 -18 9 -6 -4 11 -21 73
-39 137 -42 154 -52 162 -14 12z"/>
<path d="M1101 356 c2 -2 49 -6 104 -9 55 -2 89 -1 75 3 -24 8 -187 14 -179 6z"/>
<path d="M1311 346 c2 -2 60 -7 129 -11 68 -3 121 -3 117 1 -4 5 -62 10 -129
11 -67 2 -120 2 -117 -1z"/>
<path d="M2231 84 c0 -11 3 -14 6 -6 3 7 2 16 -1 19 -3 4 -6 -2 -5 -13z"/>
</g>
</svg>
