<?xml version="1.0" standalone="no"?>
<!DOCTYPE svg PUBLIC "-//W3C//DTD SVG 20010904//EN"
 "http://www.w3.org/TR/2001/REC-SVG-20010904/DTD/svg10.dtd">
<svg version="1.0" xmlns="http://www.w3.org/2000/svg"
 width="376.000000pt" height="256.000000pt" viewBox="0 0 376.000000 256.000000"
 preserveAspectRatio="xMidYMid meet">
<metadata>
Created by potrace 1.16, written by Peter Selinger 2001-2019
</metadata>
<g transform="translate(0.000000,256.000000) scale(0.100000,-0.100000)"
fill="#000000" stroke="none">
<path d="M791 2556 c3 -3 39 -10 80 -16 90 -12 199 -49 199 -67 0 -7 7 -13 15
-13 18 0 20 -14 3 -27 -110 -83 -746 -1 -742 95 1 27 -12 29 -19 3 -25 -98
565 -191 756 -119 29 11 30 15 27 63 -2 32 -28 90 -37 82 -2 -3 0 -14 6 -25
20 -38 -5 -50 -44 -22 -32 23 -264 67 -244 46z"/>
<path d="M2494 2528 c-4 -7 -3 -8 4 -4 12 7 16 16 8 16 -3 0 -8 -5 -12 -12z"/>
<path d="M845 2510 c-3 -5 3 -10 15 -10 12 0 18 5 15 10 -3 6 -10 10 -15 10
-5 0 -12 -4 -15 -10z"/>
<path d="M2448 2504 c-38 -20 -36 -28 2 -9 17 9 30 18 30 20 0 7 -1 6 -32 -11z"/>
<path d="M890 2491 c0 -5 5 -13 10 -16 6 -3 10 -2 10 4 0 5 -4 13 -10 16 -5 3
-10 2 -10 -4z"/>
<path d="M1053 2450 c1 -11 7 -20 14 -20 21 0 23 15 3 28 -16 10 -18 8 -17 -8z"/>
<path d="M885 2450 c3 -5 8 -10 11 -10 3 0 2 5 -1 10 -3 6 -8 10 -11 10 -3 0
-2 -4 1 -10z"/>
<path d="M3518 2373 c6 -2 18 -2 25 0 6 3 1 5 -13 5 -14 0 -19 -2 -12 -5z"/>
<path d="M3325 2355 c-49 -7 -124 -17 -165 -23 -235 -31 -456 -66 -464 -73 -8
-7 -46 -331 -81 -689 -9 -96 -20 -204 -25 -240 -9 -77 -14 -69 46 -75 27 -3
44 -3 39 0 -8 4 -5 48 7 138 9 72 17 150 17 172 -1 22 -10 -27 -20 -110 -26
-207 -28 -211 -66 -187 -14 9 4 231 63 752 13 115 28 190 38 191 6 1 17 1 24
0 8 -1 11 7 8 23 -3 15 0 26 5 26 5 0 100 13 211 29 112 16 226 32 253 36 101
12 260 37 264 41 7 7 -60 2 -154 -11z m-585 -109 c0 -3 -4 -8 -10 -11 -5 -3
-10 -1 -10 4 0 6 5 11 10 11 6 0 10 -2 10 -4z"/>
<path d="M3371 2299 c-34 -4 -68 -10 -75 -13 -23 -9 51 -4 124 8 83 15 51 18
-49 5z"/>
<path d="M1086 2183 c4 -65 10 -120 13 -123 3 -3 7 -41 7 -85 1 -44 4 -109 8
-145 3 -36 6 -82 6 -102 0 -34 3 -38 26 -38 14 0 23 4 19 9 -3 6 2 14 12 19
14 8 15 13 5 25 -9 10 -10 17 -2 22 5 3 10 0 10 -8 0 -8 12 -18 28 -21 15 -4
36 -10 47 -13 17 -5 18 -4 7 10 -7 9 -18 28 -23 44 -9 28 -9 28 -6 -4 5 -45
-9 -42 -18 4 -4 23 -9 32 -14 24 -14 -23 -21 16 -21 122 -1 56 -7 127 -15 157
-11 41 -13 45 -9 15 3 -22 7 -92 9 -155 1 -63 0 -95 -4 -70 -10 69 -19 11 -11
-70 7 -63 5 -79 -5 -68 -10 10 -25 113 -25 172 0 36 -5 68 -12 75 -9 10 -9 12
-1 7 13 -7 11 190 -2 252 -8 32 -7 32 20 22 53 -20 111 -29 230 -35 163 -9
202 -12 260 -25 28 -6 65 -13 84 -15 33 -4 48 -11 40 -19 -2 -2 -83 5 -179 15
-210 23 -254 27 -343 33 -38 3 -75 10 -83 17 -9 7 -14 8 -14 1 0 -6 4 -13 9
-17 5 -3 13 -20 17 -38 8 -32 8 -32 15 -2 5 25 7 21 8 -22 0 -28 6 -55 11 -58
7 -4 8 14 5 52 -6 58 -6 58 14 13 20 -45 20 -45 14 -2 -5 35 -3 42 11 42 10 0
15 -4 12 -8 -2 -4 -1 -14 5 -22 7 -12 9 -10 9 8 0 22 14 30 25 12 3 -5 13 -6
21 -3 24 9 295 -18 384 -39 8 -1 18 -7 21 -11 3 -4 16 -9 28 -10 22 -1 23 -4
17 -67 -3 -36 -9 -109 -12 -163 -4 -58 -10 -93 -15 -85 -6 9 -9 7 -9 -9 0 -31
-15 -37 -102 -40 -56 -2 -78 1 -78 10 0 9 -2 9 -8 1 -8 -12 -23 -14 -149 -17
-98 -2 -113 -17 -17 -17 108 0 63 -17 -66 -25 -66 -4 -120 -11 -120 -16 0 -5
12 -7 28 -4 23 3 355 17 504 20 26 0 49 3 52 5 8 9 15 97 22 282 8 218 18 199
-121 218 -49 6 -103 13 -120 16 -16 2 -70 6 -120 9 -49 3 -127 13 -172 21 -45
8 -88 14 -95 13 -7 -1 -26 3 -41 9 -16 7 -30 12 -33 12 -3 0 -2 -53 2 -117z
m114 77 c18 -12 2 -12 -25 0 -13 6 -15 9 -5 9 8 0 22 -4 30 -9z m109 -16 c10
-9 -55 -3 -69 6 -10 6 -2 7 25 3 22 -3 42 -7 44 -9z m358 -41 c-4 -3 -10 -3
-14 0 -3 4 0 7 7 7 7 0 10 -3 7 -7z m-560 -55 c-2 -13 -4 -5 -4 17 -1 22 1 32
4 23 2 -10 2 -28 0 -40z m670 -30 c-3 -8 -6 -5 -6 6 -1 11 2 17 5 13 3 -3 4
-12 1 -19z m-39 -373 c-2 -2 -49 -7 -103 -10 -55 -3 -121 -8 -147 -10 -42 -4
-67 7 -38 17 16 5 293 8 288 3z"/>
<path d="M3400 2269 c-73 -9 -183 -21 -410 -43 -85 -9 -165 -18 -177 -21 -14
-3 -25 1 -32 12 -12 21 -11 23 -17 -42 -3 -27 -9 -66 -14 -85 -6 -19 -9 -53
-9 -75 1 -24 3 -30 6 -15 12 84 37 190 45 190 11 0 10 -26 -6 -143 -7 -54 -9
-94 -5 -90 4 5 12 52 18 107 15 132 18 136 89 135 44 -1 51 -3 32 -9 -23 -7
-23 -8 -3 -9 12 -1 25 4 28 9 4 7 13 6 26 -1 11 -6 27 -8 34 -5 32 12 60 -40
29 -54 -7 -3 8 -15 32 -26 43 -21 46 -17 15 19 -8 10 -16 25 -17 33 -1 9 -10
24 -20 35 -24 27 -10 35 15 10 22 -22 41 -27 41 -11 0 15 26 12 39 -3 6 -8 31
-15 57 -15 25 -1 53 -6 62 -11 16 -8 20 -10 40 -12 4 0 -6 -7 -23 -15 -30 -15
-30 -15 -2 -11 18 3 27 0 27 -10 0 -21 -29 -73 -40 -73 -6 0 -10 -15 -10 -32
0 -23 -3 -29 -9 -19 -7 11 -13 6 -26 -20 -10 -19 -21 -36 -24 -39 -16 -13 -7
-50 13 -50 15 0 17 3 8 12 -17 17 -15 23 13 36 35 16 44 15 40 -5 -27 -147
-40 -200 -49 -212 -8 -11 -8 -13 2 -7 23 14 13 -31 -14 -58 -28 -27 -22 -35 8
-12 19 14 49 150 68 309 6 48 15 99 20 113 6 14 10 40 10 59 0 45 30 135 45
135 7 0 26 3 43 6 31 6 31 6 16 -57 -8 -35 -26 -118 -39 -184 -13 -66 -27
-133 -31 -149 -4 -19 -3 -27 3 -23 6 4 16 36 23 72 7 36 15 65 19 65 3 0 7 24
8 53 2 77 23 132 50 132 12 0 25 4 29 8 4 4 -2 7 -14 7 -12 0 -22 5 -22 10 0
6 32 11 73 11 39 1 86 5 102 9 17 4 -15 6 -72 3 -85 -4 -103 -2 -103 10 0 19
30 44 60 50 44 8 -27 5 -100 -4z m-120 -39 c0 -7 6 -7 20 0 14 8 20 8 20 0 0
-6 -11 -15 -24 -20 -13 -5 -27 -14 -32 -21 -5 -9 -2 -10 9 -6 10 3 17 2 17 -4
0 -7 -14 -8 -37 -5 -21 4 -53 8 -72 11 -52 6 -60 22 -20 39 39 17 119 21 119
6z m-166 -15 c-22 -16 -44 -19 -44 -6 0 8 16 14 54 20 6 0 1 -6 -10 -14z
m-107 -21 c-9 -9 -28 6 -21 18 4 6 10 6 17 -1 6 -6 8 -13 4 -17z m300 -11 c-4
-3 -7 0 -7 7 0 7 3 10 7 7 3 -4 3 -10 0 -14z m-40 -200 c-4 -3 -7 0 -7 7 0 7
3 10 7 7 3 -4 3 -10 0 -14z"/>
<path d="M3075 2260 c-12 -5 1 -6 35 -3 30 3 57 7 59 9 9 8 -75 2 -94 -6z"/>
<path d="M405 2240 c28 -4 82 -11 122 -15 84 -9 88 -25 6 -25 -62 0 -69 -8
-11 -12 20 -1 34 -6 31 -11 -3 -5 -40 -7 -82 -4 -71 5 -74 4 -48 -9 15 -8 27
-21 27 -29 0 -7 5 -17 10 -20 7 -4 8 3 4 21 -5 19 -4 25 5 20 6 -4 11 -14 11
-23 0 -9 7 -21 15 -27 19 -14 34 -83 16 -71 -8 5 -7 -3 3 -23 9 -17 18 -57 22
-89 3 -32 10 -80 15 -108 4 -27 16 -117 24 -200 15 -150 15 -150 -10 -170 -27
-23 -34 -51 -10 -41 8 3 15 1 15 -4 0 -18 -20 -11 -78 27 -95 60 -182 95 -182
72 0 -5 4 -8 8 -5 12 7 118 -44 184 -88 29 -20 61 -36 71 -36 10 0 20 -7 23
-15 9 -23 29 -18 42 10 6 14 16 25 22 25 14 0 12 67 -5 201 -8 63 -22 173 -30
244 -9 72 -22 172 -30 224 -15 95 -8 135 25 156 22 14 7 20 -47 20 -32 1 -94
4 -138 7 -51 4 -62 3 -30 -2z m164 -117 c16 -56 95 -703 87 -711 -4 -3 -15 -1
-25 5 -10 7 -29 9 -41 6 -16 -4 -21 -3 -16 5 4 7 16 12 28 12 15 0 18 4 13 18
-4 9 -15 80 -25 157 -10 77 -26 194 -35 260 -8 66 -18 135 -20 154 -6 48 -15
73 -34 95 -15 18 -15 19 3 13 13 -5 17 -3 13 6 -3 8 4 14 19 15 19 1 25 -5 33
-35z m48 -740 c-4 -3 -7 0 -7 7 0 7 3 10 7 7 3 -4 3 -10 0 -14z"/>
<path d="M2868 2243 c-21 -2 -38 -8 -38 -12 0 -9 77 2 87 13 4 3 2 5 -3 4 -5
-1 -26 -3 -46 -5z"/>
<path d="M2933 2243 c4 -3 10 -3 14 0 3 4 0 7 -7 7 -7 0 -10 -3 -7 -7z"/>
<path d="M13 2193 c4 -3 10 -3 14 0 3 4 0 7 -7 7 -7 0 -10 -3 -7 -7z"/>
<path d="M3638 2193 c7 -3 16 -2 19 1 4 3 -2 6 -13 5 -11 0 -14 -3 -6 -6z"/>
<path d="M197 2182 c7 -5 55 -9 105 -9 84 -1 88 0 38 7 -73 11 -158 12 -143 2z"/>
<path d="M3523 2183 c9 -2 25 -2 35 0 9 3 1 5 -18 5 -19 0 -27 -2 -17 -5z"/>
<path d="M3189 2133 c-13 -16 -12 -17 4 -4 9 7 17 15 17 17 0 8 -8 3 -21 -13z"/>
<path d="M3420 2125 c0 -8 2 -15 4 -15 2 0 6 7 10 15 3 8 1 15 -4 15 -6 0 -10
-7 -10 -15z"/>
<path d="M2817 2110 c-3 -11 -1 -20 4 -20 5 0 9 9 9 20 0 11 -2 20 -4 20 -2 0
-6 -9 -9 -20z"/>
<path d="M2955 2047 c-22 -22 -32 -38 -22 -34 9 3 17 2 17 -4 0 -6 5 -7 11 -3
8 4 8 9 1 13 -6 4 -1 15 13 29 24 23 24 23 14 -10 -12 -45 -11 -48 7 -15 8 15
20 25 25 21 7 -4 7 1 0 14 -17 33 -23 32 -66 -11z"/>
<path d="M3120 2075 c-10 -12 -10 -15 4 -15 9 0 16 7 16 15 0 8 -2 15 -4 15
-2 0 -9 -7 -16 -15z"/>
<path d="M2805 2020 c-4 -12 -5 -24 -2 -27 3 -2 8 5 12 17 4 12 5 24 2 27 -3
2 -8 -5 -12 -17z"/>
<path d="M3132 1999 c-7 -11 -27 -28 -45 -39 -38 -23 -29 -27 13 -5 16 8 34
25 41 36 14 27 7 34 -9 8z"/>
<path d="M1160 2000 c0 -7 3 -10 7 -7 3 4 3 10 0 14 -4 3 -7 0 -7 -7z"/>
<path d="M2972 1965 c0 -16 2 -22 5 -12 2 9 2 23 0 30 -3 6 -5 -1 -5 -18z"/>
<path d="M2726 1901 c-3 -41 -4 -76 -2 -78 6 -6 19 123 14 139 -3 7 -8 -20
-12 -61z"/>
<path d="M2950 1930 c0 -7 3 -10 7 -7 3 4 3 10 0 14 -4 3 -7 0 -7 -7z"/>
<path d="M3087 1922 c-20 -22 -21 -32 -5 -32 6 0 8 3 5 7 -4 3 0 15 10 25 9
10 14 18 11 18 -3 0 -12 -8 -21 -18z"/>
<path d="M2850 1920 c0 -7 3 -10 7 -7 3 4 3 10 0 14 -4 3 -7 0 -7 -7z"/>
<path d="M2830 1890 c0 -7 3 -10 7 -7 3 4 3 10 0 14 -4 3 -7 0 -7 -7z"/>
<path d="M3100 1890 c0 -5 5 -10 10 -10 6 0 10 5 10 10 0 6 -4 10 -10 10 -5 0
-10 -4 -10 -10z"/>
<path d="M3020 1800 c-8 -5 -12 -12 -9 -15 4 -3 12 1 19 10 14 17 11 19 -10 5z"/>
<path d="M2760 1780 c0 -7 3 -10 7 -7 3 4 3 10 0 14 -4 3 -7 0 -7 -7z"/>
<path d="M1266 1755 c4 -8 10 -15 15 -15 4 0 6 7 3 15 -4 8 -10 15 -15 15 -4
0 -6 -7 -3 -15z"/>
<path d="M2752 1725 c0 -16 2 -22 5 -12 2 9 2 23 0 30 -3 6 -5 -1 -5 -18z"/>
<path d="M2845 1740 c3 -5 8 -10 11 -10 3 0 2 5 -1 10 -3 6 -8 10 -11 10 -3 0
-2 -4 1 -10z"/>
<path d="M2075 1721 c-102 -6 -110 -7 -108 -26 11 -115 4 -307 -12 -325 -16
-18 -16 -18 4 -13 17 4 21 0 23 -18 1 -13 2 -31 3 -39 0 -8 4 -21 9 -29 7 -10
4 -11 -13 -2 -14 8 -21 8 -21 1 0 -6 12 -16 28 -22 15 -7 49 -26 75 -41 42
-26 54 -29 95 -23 147 22 242 26 277 13 11 -5 7 -1 -10 9 -16 9 -31 17 -32 18
-1 1 7 28 18 60 22 67 25 139 7 154 -7 5 -33 16 -58 23 -62 17 -59 11 -64 137
-3 62 -8 117 -11 122 -6 10 -17 10 -210 1z m195 -30 c5 -11 10 -62 9 -113 0
-93 0 -93 -19 -53 -21 44 -25 69 -11 60 18 -11 -9 60 -29 77 -11 9 -20 19 -20
22 0 11 28 6 33 -6 3 -8 6 -6 6 5 1 23 -30 22 -52 -3 -10 -12 -31 -21 -49 -21
-33 -2 -62 -4 -86 -7 -10 -2 -12 -15 -8 -54 3 -29 5 -68 6 -86 0 -44 23 -51
140 -43 52 4 100 4 105 0 6 -3 26 -10 45 -14 66 -13 83 -31 77 -82 -2 -25 -10
-50 -17 -56 -10 -9 -11 -9 -5 2 5 9 3 12 -6 9 -8 -3 -13 -11 -11 -18 1 -7 -4
-9 -16 -6 -10 4 -56 0 -103 -8 -103 -18 -138 -15 -177 13 -17 12 -33 17 -36
13 -3 -5 6 -14 19 -20 14 -7 25 -16 25 -22 0 -14 -37 -12 -47 3 -12 19 -33 80
-33 99 0 9 -4 18 -9 20 -5 2 -11 72 -13 156 -4 152 -4 152 134 152 126 0 138
-2 148 -19z m-44 -116 c13 -38 23 -73 24 -76 0 -4 -28 -10 -62 -13 -35 -4 -67
-8 -72 -9 -11 -3 -20 15 -41 78 -26 80 -26 79 30 86 95 12 95 12 121 -66z
m-146 -86 c0 -6 -4 -7 -10 -4 -5 3 -10 11 -10 16 0 6 5 7 10 4 6 -3 10 -11 10
-16z m-83 -131 c-3 -7 -5 -2 -5 12 0 14 2 19 5 13 2 -7 2 -19 0 -25z m343 -88
c0 -30 0 -30 -37 -15 -56 24 -51 31 30 44 4 0 7 -13 7 -29z m27 -17 c-3 -10
-5 -4 -5 12 0 17 2 24 5 18 2 -7 2 -21 0 -30z m-350 10 c-4 -3 -7 0 -7 7 0 7
3 10 7 7 3 -4 3 -10 0 -14z m370 -5 c-3 -8 -6 -5 -6 6 -1 11 2 17 5 13 3 -3 4
-12 1 -19z m-243 6 c9 -3 16 -13 16 -22 0 -13 3 -12 14 4 13 16 18 17 36 6 11
-7 26 -10 32 -6 6 4 8 3 4 -4 -3 -6 6 -15 21 -20 27 -10 27 -10 -12 -11 -22
-1 -62 -4 -90 -7 -50 -6 -50 -6 -50 30 -1 37 2 40 29 30z m-49 -34 c8 -13 -5
-13 -25 0 -13 8 -13 10 2 10 9 0 20 -4 23 -10z m226 -8 c-7 -2 -18 1 -23 6 -8
8 -4 9 13 5 13 -4 18 -8 10 -11z m46 1 c-4 -3 -10 -3 -14 0 -3 4 0 7 7 7 7 0
10 -3 7 -7z"/>
<path d="M2262 1650 c0 -19 2 -27 5 -17 2 9 2 25 0 35 -3 9 -5 1 -5 -18z"/>
<path d="M2000 1457 c0 -17 18 -28 70 -41 14 -3 8 2 -14 13 -21 10 -42 25 -47
32 -7 11 -9 10 -9 -4z"/>
<path d="M2210 1420 c-25 -8 -25 -8 0 -8 14 0 34 3 45 8 20 9 20 9 0 8 -11 0
-31 -4 -45 -8z"/>
<path d="M2293 1423 c4 -3 10 -3 14 0 3 4 0 7 -7 7 -7 0 -10 -3 -7 -7z"/>
<path d="M2118 1403 c12 -2 30 -2 40 0 9 3 -1 5 -23 4 -22 0 -30 -2 -17 -4z"/>
<path d="M2120 1380 c0 -7 3 -10 7 -7 3 4 3 10 0 14 -4 3 -7 0 -7 -7z"/>
<path d="M2100 1619 c0 -13 23 -75 33 -87 7 -9 13 -6 24 14 14 28 8 49 -7 25
-6 -11 -13 -6 -29 20 -12 19 -21 31 -21 28z"/>
<path d="M3140 1680 c0 -7 3 -10 7 -7 3 4 3 10 0 14 -4 3 -7 0 -7 -7z"/>
<path d="M2766 1654 c-8 -22 -7 -52 2 -58 4 -2 9 13 9 35 2 42 -1 49 -11 23z"/>
<path d="M2737 1595 c-4 -27 -12 -100 -17 -162 -6 -62 -12 -118 -14 -125 -13
-40 -15 -68 -7 -68 16 0 31 70 32 150 0 49 3 68 8 55 8 -17 36 -24 220 -54
116 -19 211 -38 211 -43 0 -4 -7 -49 -16 -99 -8 -49 -13 -98 -11 -107 3 -10 5
-6 6 10 0 15 6 30 11 33 6 4 8 11 4 16 -3 6 1 42 10 82 9 40 16 83 15 97 -1
14 3 63 10 109 11 85 8 127 -4 55 -20 -122 -19 -119 -49 -122 -48 -6 -66 7
-33 24 36 19 34 26 -4 12 -42 -14 -35 -41 14 -49 39 -6 66 -24 55 -35 -6 -5
-123 11 -331 48 -88 15 -97 22 -103 87 -4 46 -3 53 10 48 9 -4 16 -2 16 3 0 6
-4 10 -9 10 -6 0 -11 17 -13 38 -3 36 -3 36 -11 -13z"/>
<path d="M2892 1620 c0 -14 2 -19 5 -12 2 6 2 18 0 25 -3 6 -5 1 -5 -13z"/>
<path d="M2822 1605 c0 -16 2 -22 5 -12 2 9 2 23 0 30 -3 6 -5 -1 -5 -18z"/>
<path d="M3007 1619 c-21 -12 -49 -64 -46 -87 1 -9 0 -19 -1 -22 -8 -24 -9
-81 0 -75 5 3 10 14 10 23 0 9 7 30 15 46 13 25 13 28 -1 22 -12 -5 -15 -2
-10 10 3 8 6 18 6 20 0 3 5 2 11 -2 9 -5 10 1 5 20 -6 23 -3 29 14 33 11 3 20
9 20 14 0 11 -1 11 -23 -2z"/>
<path d="M3204 1608 c-4 -7 -3 -8 4 -4 7 4 12 9 12 12 0 8 -9 4 -16 -8z"/>
<path d="M561 1584 c0 -11 3 -14 6 -6 3 7 2 16 -1 19 -3 4 -6 -2 -5 -13z"/>
<path d="M2844 1525 c1 -72 3 -80 21 -84 19 -3 19 -2 3 16 -11 12 -18 41 -21
83 -3 56 -3 54 -3 -15z"/>
<path d="M2804 1530 c-4 -22 -13 -45 -20 -51 -8 -6 -14 -16 -14 -22 0 -5 8 -3
18 6 10 10 22 14 25 10 4 -3 7 17 7 45 0 62 -7 67 -16 12z"/>
<path d="M2921 1518 c0 -9 -6 -18 -12 -20 -17 -6 -20 -55 -4 -68 16 -13 30 39
22 81 -2 13 -5 17 -6 7z m-4 -45 c-4 -3 -7 0 -7 7 0 7 3 10 7 7 3 -4 3 -10 0
-14z"/>
<path d="M925 1480 c-29 -31 -29 -31 0 -55 60 -49 100 -25 68 41 -23 49 -33
51 -68 14z"/>
<path d="M3056 1498 c-3 -7 -7 -26 -11 -42 -5 -25 -9 -28 -36 -22 -19 3 -28 2
-24 -4 7 -12 65 -14 65 -2 0 4 4 24 9 45 8 34 5 53 -3 25z"/>
<path d="M3301 1444 c0 -11 3 -14 6 -6 3 7 2 16 -1 19 -3 4 -6 -2 -5 -13z"/>
<path d="M1317 1403 c27 -27 63 -66 80 -88 17 -22 34 -37 37 -34 7 7 -142 169
-156 169 -6 0 12 -21 39 -47z"/>
<path d="M1240 1430 c0 -6 7 -13 15 -16 15 -6 114 -125 133 -161 7 -12 21 -57
32 -100 19 -78 19 -78 14 -18 -7 80 -40 146 -109 225 -61 68 -85 88 -85 70z"/>
<path d="M3290 1400 c0 -7 3 -10 7 -7 3 4 3 10 0 14 -4 3 -7 0 -7 -7z"/>
<path d="M716 1356 c-16 -37 -19 -39 -27 -21 -7 15 -8 10 -6 -20 2 -22 7 -48
12 -59 16 -36 -19 -11 -39 28 -10 20 -20 35 -23 33 -11 -11 12 -60 48 -99 36
-40 38 -66 3 -37 -25 21 -47 -14 -78 -125 -31 -108 -33 -244 -5 -341 14 -50
14 -50 64 -50 50 0 50 0 47 30 -4 32 -47 85 -69 85 -16 0 -16 9 -2 102 12 85
59 250 73 260 21 15 38 -14 20 -33 -20 -22 -14 -98 11 -135 20 -31 75 -45 123
-32 67 18 74 31 70 130 -3 87 -3 87 25 60 50 -47 69 -82 93 -165 21 -75 21
-83 7 -119 -10 -25 -12 -48 -7 -65 4 -16 7 -31 6 -35 -1 -5 2 -8 7 -8 5 0 12
10 14 23 4 22 4 22 6 0 1 -26 13 -29 34 -8 8 8 17 11 21 8 13 -13 5 36 -14 92
-11 32 -20 84 -20 117 0 66 -15 103 -79 186 -40 54 -100 106 -110 97 -2 -3 5
-12 17 -21 55 -38 152 -171 152 -208 2 -77 10 -138 24 -164 20 -39 21 -63 2
-56 -8 3 -24 1 -35 -6 -25 -13 -26 -5 -5 46 29 70 -15 204 -93 286 -29 29 -43
51 -38 59 6 9 2 11 -12 7 -39 -10 -89 63 -77 115 8 36 -11 60 -37 47 -14 -8
-23 -6 -41 12 -33 33 -41 30 -62 -16z m74 -28 c0 -19 -2 -20 -10 -8 -13 19
-13 30 0 30 6 0 10 -10 10 -22z m39 -22 c-9 -8 -10 -7 -5 7 3 10 7 24 7 30 1
7 3 4 6 -7 3 -10 -1 -23 -8 -30z m-72 12 c-3 -8 -6 -5 -6 6 -1 11 2 17 5 13 3
-3 4 -12 1 -19z m-40 -40 c-3 -8 -6 -5 -6 6 -1 11 2 17 5 13 3 -3 4 -12 1 -19z
m126 -59 c-8 -29 -13 -23 -13 14 0 22 3 28 9 18 5 -7 6 -22 4 -32z m-108 1 c3
-5 4 -10 1 -10 -3 0 -8 5 -11 10 -3 6 -4 10 -1 10 3 0 8 -4 11 -10z m52 -37
c-4 -3 -7 0 -7 7 0 7 3 10 7 7 3 -4 3 -10 0 -14z m-100 -21 c9 -6 5 -29 -17
-92 -15 -47 -34 -123 -40 -170 -6 -46 -14 -88 -17 -93 -2 -4 17 -28 43 -52 27
-24 45 -47 41 -51 -3 -4 -13 -2 -20 4 -8 7 -17 9 -20 6 -9 -9 -44 28 -52 55
-19 61 -14 176 12 271 34 128 41 140 70 122z m163 -52 c13 -9 13 -10 0 -10 -8
0 -33 -3 -55 -6 -41 -7 -41 9 0 19 32 8 39 7 55 -3z m-92 -95 c-3 -3 -9 2 -12
12 -6 14 -5 15 5 6 7 -7 10 -15 7 -18z m73 -52 c10 3 22 1 25 -4 3 -5 -9 -9
-25 -9 -26 0 -31 4 -30 23 1 18 2 19 6 4 3 -13 11 -17 24 -14z m-148 -272 c21
-2 3 -20 -18 -19 -14 1 -25 8 -25 14 0 7 8 11 18 9 9 -2 20 -4 25 -4z"/>
<path d="M3251 1295 c-8 -33 -14 -72 -14 -87 0 -21 -4 -25 -16 -18 -15 8 -18
-5 -12 -62 1 -5 10 -8 20 -8 10 0 21 -6 24 -14 3 -7 20 -16 39 -19 18 -3 43
-9 56 -13 16 -5 22 -2 22 9 0 21 -20 33 -30 17 -12 -20 -44 -4 -35 18 8 21 8
16 6 77 -1 56 -10 51 -35 -17 -21 -58 -41 -64 -32 -10 19 103 24 112 59 106
83 -15 107 -25 107 -44 0 -10 4 -21 9 -25 12 -7 11 36 -1 52 -5 6 -40 17 -78
24 -67 12 -69 13 -72 43 -3 26 -6 21 -17 -29z m40 -168 c-17 -17 -22 -3 -8 26
11 25 12 25 15 6 2 -12 -1 -26 -7 -32z m-64 26 c-4 -3 -7 0 -7 7 0 7 3 10 7 7
3 -4 3 -10 0 -14z"/>
<path d="M947 1303 c-4 -3 -7 -11 -7 -17 0 -6 5 -5 12 2 6 6 9 14 7 17 -3 3
-9 2 -12 -2z"/>
<path d="M3545 1212 c10 -46 -16 -55 -85 -31 -30 10 -58 19 -62 19 -15 0 -30
-52 -18 -64 5 -5 10 -27 10 -47 0 -36 2 -38 43 -47 47 -10 67 -6 67 13 0 7 14
29 30 50 31 40 43 116 19 131 -8 4 -9 -3 -4 -24z m-85 -62 c0 -5 -8 -10 -17
-10 -15 0 -16 2 -3 10 19 12 20 12 20 0z m54 -42 c-44 -64 -43 -64 -40 -43 1
10 13 28 26 42 12 13 19 27 15 31 -4 4 -10 1 -12 -5 -3 -7 -9 -13 -14 -13 -6
0 -8 4 -5 9 4 5 0 12 -6 15 -7 3 2 5 20 3 17 -2 32 0 32 5 0 4 5 8 10 8 6 0
-6 -24 -26 -52z m-47 -5 c-4 -3 -7 0 -7 7 0 7 3 10 7 7 3 -4 3 -10 0 -14z
m-30 -20 c-4 -3 -7 0 -7 7 0 7 3 10 7 7 3 -4 3 -10 0 -14z m17 -22 c4 -5 -3
-7 -14 -4 -23 6 -26 13 -6 13 8 0 17 -4 20 -9z"/>
<path d="M3685 1230 c-3 -5 -4 -13 -1 -18 2 -4 -2 -32 -10 -61 -14 -57 -13
-76 5 -44 10 19 24 133 16 133 -2 0 -7 -4 -10 -10z"/>
<path d="M3363 1213 c4 -3 10 -3 14 0 3 4 0 7 -7 7 -7 0 -10 -3 -7 -7z"/>
<path d="M2365 1175 c-52 -24 -71 -47 -126 -154 -30 -57 -62 -109 -71 -115
-10 -6 -18 -14 -18 -19 0 -4 5 -5 10 -2 12 7 13 -35 1 -53 -6 -10 -10 -10 -20
2 -10 12 -9 17 6 26 16 10 14 11 -8 6 -18 -4 -32 0 -44 14 -10 11 -24 20 -32
20 -19 0 -16 14 6 34 19 17 20 17 33 -3 7 -12 17 -21 22 -21 4 0 0 12 -9 27
-17 26 -17 26 19 20 20 -3 36 -2 36 2 0 12 -76 22 -155 22 -50 0 -67 4 -75 17
-9 14 -10 13 -5 -5 4 -16 2 -23 -7 -23 -8 0 -9 -3 -2 -8 24 -16 47 -85 35
-104 -8 -13 -8 -18 0 -18 7 0 9 -15 5 -45 -5 -36 -4 -45 8 -45 10 0 13 6 10
15 -7 18 9 19 37 4 21 -11 10 -39 -15 -39 -6 0 -17 -9 -23 -19 -10 -17 -16
-18 -37 -8 -23 11 -23 13 -9 29 15 17 15 18 0 18 -10 0 -17 -4 -17 -10 0 -19
-79 -50 -130 -50 -50 0 -80 17 -92 51 -3 8 -8 11 -12 7 -4 -3 -1 -16 6 -27 12
-19 10 -24 -14 -44 -29 -25 -71 -104 -62 -119 4 -5 -7 -24 -24 -41 -16 -18
-33 -47 -37 -65 -4 -17 -11 -32 -16 -32 -5 0 -9 -4 -9 -10 0 -9 -19 -53 -75
-175 -12 -27 -26 -66 -30 -85 -6 -34 -6 -34 9 -13 13 18 23 20 57 16 31 -5 40
-3 35 6 -4 6 -11 9 -16 6 -14 -8 -50 13 -50 29 0 8 7 19 15 26 9 7 13 20 10
28 -7 20 33 62 59 62 18 1 48 31 76 80 13 22 33 -2 33 -40 0 -16 4 -30 8 -30
3 0 9 -10 13 -23 5 -17 -4 -30 -42 -64 -26 -23 -42 -42 -35 -43 6 0 14 4 17 9
3 5 16 7 29 5 16 -3 17 -2 6 3 -14 7 -13 12 12 36 26 25 29 26 38 10 10 -16
10 -17 11 -1 0 9 -5 20 -10 23 -6 4 -5 12 5 21 12 13 19 13 47 1 36 -15 69
-47 49 -47 -6 0 -14 6 -17 13 -8 22 -34 16 -34 -9 0 -29 27 -38 57 -18 14 8
27 13 30 10 10 -10 -50 -71 -65 -68 -12 3 -13 1 -5 -10 8 -10 8 -18 -1 -31
-16 -21 -35 -22 -42 -2 -4 8 -18 15 -33 14 -24 -1 -22 -2 18 -15 28 -9 -16
-41 -50 -36 -20 3 -34 0 -40 -9 -6 -11 -11 -11 -21 -1 -9 9 -9 12 0 12 7 0 11
13 9 34 -2 31 -4 33 -25 25 -13 -5 -28 -7 -33 -3 -5 3 -9 0 -9 -5 0 -6 5 -11
10 -11 18 0 10 -36 -13 -58 -29 -27 -41 -28 -34 -2 6 24 -5 26 -23 5 -8 -10
-21 -13 -34 -9 -17 5 -19 4 -8 -7 20 -21 14 -32 -16 -26 -28 6 -63 -25 -47
-41 4 -4 11 1 16 11 12 20 29 23 29 4 0 -9 14 -13 43 -14 23 0 36 2 30 4 -21
7 -15 17 17 31 17 8 30 20 30 28 0 17 26 18 69 3 35 -12 38 -24 14 -51 -15
-17 -15 -18 5 -18 12 0 22 5 22 10 0 6 9 10 20 10 11 0 20 -3 20 -7 0 -5 14
-9 31 -10 26 -2 29 0 19 12 -10 12 -9 15 7 15 10 0 27 9 36 21 13 15 25 19 42
15 18 -5 27 -1 36 15 8 16 8 20 0 14 -7 -4 -18 -1 -26 5 -8 7 -26 9 -40 6 -14
-4 -25 -2 -25 2 0 16 41 62 55 62 8 0 17 5 21 11 4 8 -1 9 -16 4 -20 -6 -21
-5 -11 14 14 26 52 36 79 22 17 -9 20 -7 26 19 3 17 12 30 20 30 9 0 12 7 9
20 -3 11 0 20 6 20 6 0 11 -7 11 -15 0 -8 4 -15 9 -15 4 0 6 12 4 28 -4 22 -2
24 7 12 9 -11 13 -12 17 -2 9 23 22 12 29 -23 3 -19 10 -38 15 -41 5 -3 7 -10
4 -15 -4 -5 1 -9 10 -9 9 0 27 -12 41 -26 15 -14 36 -24 48 -23 53 4 116 -2
116 -11 0 -5 -9 -19 -20 -30 -11 -11 -20 -24 -20 -30 0 -5 -9 -10 -20 -10 -16
0 -20 7 -20 35 0 38 -18 47 -40 20 -16 -19 -34 -20 -27 -1 7 17 -22 30 -47 20
-9 -3 -16 -13 -16 -21 0 -9 -7 -13 -17 -10 -55 15 -93 17 -93 5 0 -9 -3 -10
-8 -2 -8 12 -52 1 -52 -13 1 -4 12 -21 25 -38 23 -28 23 -30 7 -48 -16 -19
-16 -19 6 -12 22 6 23 5 13 -14 -12 -21 -5 -27 16 -13 11 7 13 11 13 37 0 24
31 31 46 10 13 -17 14 -18 14 -1 0 13 5 16 23 11 19 -5 20 -4 4 5 -9 6 -21 9
-25 6 -4 -2 -14 0 -22 5 -21 13 6 31 38 26 12 -2 22 -1 22 3 0 12 32 22 42 12
9 -9 -12 -62 -24 -62 -5 0 -8 -7 -8 -15 0 -8 5 -15 11 -15 6 0 9 -7 5 -15 -7
-19 50 -21 57 -2 4 9 8 9 15 -2 8 -11 16 -8 41 15 22 19 28 30 19 35 -9 6 -8
13 6 28 10 11 23 18 28 15 9 -6 -31 -84 -44 -84 -4 0 -8 -4 -8 -10 0 -22 17
-8 48 40 18 28 40 50 50 50 15 0 15 2 2 10 -8 5 -11 10 -6 10 5 0 2 8 -7 18
-10 10 -14 22 -11 25 16 16 -19 36 -56 31 -26 -3 -43 0 -54 11 -9 9 -16 12
-16 6 0 -17 -25 -13 -54 10 -34 26 -33 35 4 48 26 9 34 7 55 -11 35 -30 94
-49 116 -37 36 19 42 11 35 -41 -4 -27 -3 -50 1 -50 4 0 19 -16 31 -35 15 -21
38 -38 60 -45 21 -6 43 -14 51 -16 10 -3 11 -8 4 -15 -9 -9 -93 27 -117 52
-20 19 -31 8 -33 -32 -3 -41 -3 -41 17 -17 19 23 19 23 62 0 47 -24 117 -29
136 -10 9 9 12 9 12 -1 0 -7 5 -9 10 -6 6 4 8 10 5 15 -3 5 3 13 12 19 18 11
4 31 -22 31 -5 0 -4 -4 3 -9 45 -28 -82 -21 -142 9 -76 36 -97 127 -32 132 12
0 26 2 33 2 7 1 17 6 23 12 8 8 1 9 -22 6 -33 -5 -33 -5 -3 34 16 21 34 42 39
46 7 5 7 8 -2 8 -7 0 -15 -7 -18 -15 -8 -20 -24 -19 -24 1 0 9 -8 22 -17 29
-30 22 9 52 45 34 15 -7 36 -16 46 -19 17 -5 18 -7 3 -21 -8 -9 -18 -33 -21
-55 -6 -39 -6 -39 18 -9 25 30 25 30 26 3 0 -23 4 -27 22 -25 17 1 28 -9 50
-48 25 -45 28 -48 34 -27 8 26 7 26 45 7 16 -9 35 -13 41 -9 8 5 9 2 5 -10 -5
-13 -2 -16 12 -14 18 3 61 -27 61 -42 0 -4 -11 -12 -25 -18 -26 -12 -33 -36
-13 -48 8 -5 9 -2 5 10 -5 12 1 20 18 28 30 14 69 -14 60 -42 -4 -13 0 -17 19
-17 25 0 25 0 -1 33 -14 19 -20 34 -14 34 6 0 10 3 10 8 -4 23 4 32 30 32 17
0 33 -5 36 -10 3 -6 11 -10 16 -10 21 0 -3 20 -34 28 -22 6 -40 4 -60 -6 -28
-14 -31 -13 -65 21 -36 36 -36 36 -8 48 20 10 29 10 38 1 15 -15 29 -15 25 -1
-1 6 14 17 33 24 21 8 27 14 16 14 -15 1 -16 4 -6 16 6 8 9 19 5 25 -3 5 -2
10 3 10 10 0 -12 48 -39 87 -18 26 -14 83 7 83 18 0 27 -18 26 -54 -1 -20 10
-49 28 -76 16 -24 26 -48 23 -53 -3 -4 1 -8 8 -6 22 2 33 -1 54 -17 17 -13 18
-16 5 -25 -13 -9 -13 -10 0 -7 18 3 55 -16 91 -46 14 -11 7 -3 -15 19 -23 23
-39 40 -37 38 2 -2 13 5 23 14 17 16 20 15 46 -4 15 -12 26 -28 26 -37 -1 -9
1 -14 5 -11 4 2 25 -16 45 -41 21 -25 41 -42 45 -39 3 4 -2 12 -12 19 -29 22
-69 86 -53 86 8 0 17 -6 19 -12 4 -10 6 -10 6 0 1 17 -29 62 -41 62 -6 0 -8
-7 -4 -15 3 -8 2 -15 -2 -15 -10 1 -42 26 -42 34 0 10 68 7 75 -4 3 -5 15 -15
26 -21 19 -10 20 -9 9 10 -12 23 7 30 27 10 6 -6 21 -9 34 -7 24 3 24 3 -7 31
-17 15 -39 34 -50 42 -35 27 32 -1 86 -37 44 -29 60 -58 23 -44 -8 3 -11 1 -8
-4 4 -6 -12 -10 -40 -10 -45 0 -47 -1 -41 -25 4 -14 2 -25 -4 -25 -5 0 -10 -4
-10 -9 0 -5 10 -7 23 -3 19 5 20 3 9 -11 -11 -13 -10 -17 7 -27 14 -7 21 -7
21 0 0 21 46 8 74 -20 16 -17 32 -28 35 -25 2 3 -1 11 -7 17 -7 7 -12 22 -12
34 0 13 -5 26 -10 29 -6 4 -9 19 -8 35 2 24 5 27 19 19 10 -5 30 -9 45 -9 15
0 37 -10 49 -22 34 -34 48 -44 93 -67 22 -11 46 -26 53 -34 8 -7 22 -18 32
-23 16 -9 17 -12 3 -23 -13 -11 -16 -11 -16 3 0 9 -4 16 -10 16 -5 0 -10 -11
-10 -25 0 -18 5 -25 20 -25 11 0 20 5 20 12 0 6 7 19 16 29 15 17 11 45 -5 35
-4 -3 -18 6 -30 20 -12 14 -25 22 -30 19 -9 -5 -47 12 -71 33 -49 41 -55 46
-45 41 21 -13 87 -21 80 -10 -4 7 0 8 10 5 9 -4 14 -13 11 -20 -6 -15 50 -59
58 -46 3 5 -6 14 -19 20 -27 12 -34 32 -11 32 7 0 29 -11 49 -24 19 -13 38
-22 40 -19 7 6 67 -28 67 -38 0 -19 -53 -18 -77 1 -14 11 -31 20 -36 20 -16 0
13 -26 48 -44 30 -16 30 -16 5 -17 -14 0 -19 -3 -12 -6 10 -4 10 -9 -3 -23
-15 -17 -14 -18 19 -17 22 1 36 6 36 14 0 7 -7 10 -15 7 -8 -4 -15 -1 -15 5 0
11 19 16 53 13 9 -1 17 2 17 7 0 5 -8 12 -17 14 -17 4 -17 5 0 6 20 1 23 21 5
39 -9 9 -9 12 0 12 18 0 15 21 -5 36 -17 13 -17 14 0 8 14 -5 17 0 17 25 0 17
-5 31 -11 31 -8 0 -7 5 1 15 7 9 10 18 6 22 -3 4 -12 -2 -20 -12 -11 -16 -14
-16 -22 -3 -11 19 -47 38 -71 38 -17 -1 -17 -2 1 -15 11 -8 16 -15 11 -15 -22
0 -64 52 -52 65 7 7 18 10 25 7 11 -4 11 -6 0 -13 -8 -6 3 -9 31 -9 34 0 42
-3 37 -15 -3 -8 -1 -15 5 -15 5 0 12 7 15 15 4 8 11 15 16 15 6 0 8 -7 4 -15
-3 -9 0 -15 9 -15 12 0 15 14 15 62 0 34 -3 59 -6 55 -3 -3 -11 -2 -18 4 -6 5
-23 19 -39 30 -15 11 -25 24 -23 27 2 4 -6 8 -19 8 -13 1 -34 10 -47 19 -23
17 -23 17 15 12 53 -8 37 9 -23 24 -28 7 -58 22 -68 32 -16 19 -16 19 3 9 34
-18 190 -72 208 -72 9 0 17 5 17 10 0 6 -8 10 -17 10 -17 1 -17 1 0 11 30 17
20 37 -24 44 -67 11 -226 163 -253 242 -7 22 -20 38 -29 38 -8 0 -23 7 -34 16
-11 9 -66 22 -136 32 -129 18 -140 23 -275 110 -51 33 -95 57 -97 55 -6 -6
205 -145 240 -158 14 -5 25 -13 25 -18 0 -5 12 -14 26 -21 15 -6 24 -14 21
-18 -3 -3 1 -12 9 -20 8 -8 12 -18 9 -23 -3 -5 -1 -11 5 -15 12 -7 14 -25 3
-25 -5 0 -21 11 -38 25 -16 14 -22 22 -12 19 14 -5 16 -3 8 17 -5 15 -17 25
-32 26 -13 1 -18 0 -11 -3 24 -11 11 -21 -27 -20 -39 1 -39 1 -24 27 17 28 12
59 -9 59 -7 0 -28 -41 -47 -90 -21 -58 -37 -87 -45 -83 -6 4 -47 34 -91 66
-44 33 -81 61 -83 62 -1 1 13 35 33 76 34 72 44 106 26 95 -4 -3 -11 -19 -14
-35 -7 -32 -42 -75 -56 -67 -4 3 -52 8 -107 11 -54 4 -117 10 -138 15 -30 7
-47 5 -70 -7 -37 -19 -109 -18 -168 3 -23 8 -38 11 -33 5 18 -17 105 -41 149
-41 42 0 86 -29 86 -57 0 -6 8 -17 17 -24 14 -12 16 -12 9 1 -4 8 5 1 21 -16
17 -17 38 -34 49 -38 16 -6 16 -9 4 -17 -13 -9 -12 -10 1 -6 10 3 26 -5 40
-19 12 -13 27 -24 33 -24 6 0 -10 20 -34 45 -24 24 -47 42 -51 39 -4 -2 -15 6
-23 18 -20 28 -6 38 41 31 24 -4 45 -20 80 -62 26 -31 53 -60 60 -64 7 -4 13
-18 13 -30 0 -12 7 -31 15 -41 11 -14 12 -23 4 -33 -9 -10 -8 -13 5 -13 27 0
-2 -47 -33 -53 -28 -6 -96 21 -96 38 0 6 14 17 31 25 47 23 43 55 -11 79 -23
10 -46 24 -49 30 -4 6 -12 11 -18 11 -7 0 -7 -5 1 -14 9 -11 9 -15 -1 -19 -7
-3 -2 -6 12 -6 35 -1 77 -31 59 -42 -7 -4 -22 -3 -32 3 -11 6 -41 8 -66 5 -25
-2 -40 -2 -33 0 6 3 10 9 6 14 -3 5 4 9 15 9 23 0 26 7 11 30 -9 13 -11 13
-21 0 -8 -11 -12 -12 -16 -2 -2 6 -9 10 -14 6 -5 -3 -18 1 -29 9 -19 14 -19
14 7 26 18 8 29 9 37 1 19 -19 24 -10 13 20 -15 39 -30 43 -72 18 -39 -22 -45
-22 -184 6 -104 22 -147 44 -143 76 5 31 97 220 125 256 31 40 81 58 122 44
40 -13 54 -33 86 -122 13 -38 27 -68 31 -68 10 0 12 -5 -21 78 -43 112 -97
150 -166 117z m-338 -218 c7 0 10 -5 7 -11 -3 -6 2 -2 10 8 23 28 31 12 9 -18
-33 -44 -83 -56 -83 -19 0 11 3 13 13 5 8 -7 18 -7 27 -2 8 5 12 10 10 12 -35
23 -49 26 -53 15 -3 -7 -6 -4 -6 7 -1 15 4 17 27 11 15 -4 32 -8 39 -8z m511
-59 c20 -24 6 -23 -19 1 -13 12 -18 24 -13 32 6 10 9 10 12 -1 3 -8 11 -23 20
-32z m42 17 c7 -8 19 -15 26 -15 8 0 14 -4 14 -8 0 -15 -58 0 -76 19 -16 18
-16 19 3 19 11 0 26 -7 33 -15z m133 5 c17 0 27 -5 27 -15 0 -8 -5 -15 -11
-15 -5 0 -8 4 -5 9 3 5 -13 7 -37 6 -23 -2 -55 3 -72 10 -29 13 -29 13 20 10
28 -2 62 -4 78 -5z m87 -8 c0 -4 -9 -15 -19 -24 -18 -15 -19 -15 -24 8 -3 20
0 24 19 24 13 0 24 -3 24 -8z m24 -17 c-4 -8 -8 -15 -10 -15 -2 0 -4 7 -4 15
0 8 4 15 10 15 5 0 7 -7 4 -15z m-739 -21 c26 -19 4 -36 -38 -31 -20 3 -26 0
-23 -10 3 -7 1 -13 -4 -13 -6 0 -10 7 -10 16 0 8 -4 12 -10 9 -5 -3 -10 -1
-10 5 0 8 14 11 40 8 25 -2 39 0 37 7 -2 5 -11 9 -21 7 -9 -2 -16 2 -16 8 0
15 32 12 55 -6z m590 6 c3 -5 19 -7 35 -3 20 3 30 1 30 -6 0 -8 -8 -10 -20 -6
-11 4 -20 2 -20 -4 0 -6 10 -11 21 -11 22 0 81 -43 154 -114 34 -33 36 -36 10
-21 -16 11 -38 25 -47 33 -16 14 -18 13 -18 -7 0 -12 4 -20 9 -17 5 4 22 -5
38 -18 16 -14 38 -24 48 -23 11 1 24 -8 30 -21 15 -29 28 -42 19 -19 -4 12 -1
17 13 17 25 0 57 -35 48 -50 -9 -14 -77 -4 -87 13 -5 9 -10 9 -20 -1 -9 -9 -8
-12 6 -12 15 0 17 -5 12 -26 -5 -19 -3 -25 6 -21 7 2 12 12 10 22 -3 14 1 16
15 10 10 -4 23 -8 30 -9 15 -3 63 -71 66 -94 5 -36 -19 -25 -43 20 -31 57 -45
73 -31 35 17 -43 13 -55 -9 -27 -15 19 -26 24 -54 22 -32 -3 -36 -1 -36 20 -1
36 -24 113 -39 132 -28 33 -29 14 -3 -59 26 -70 26 -75 10 -91 -21 -22 -36 3
-20 32 16 29 -27 125 -84 188 -28 30 -49 58 -46 61 3 3 0 5 -6 5 -7 0 -12 7
-12 16 0 11 -6 13 -19 9 -14 -4 -23 0 -31 15 -9 17 -8 20 9 20 11 0 23 -4 26
-10z m411 -26 c-19 -18 -21 -11 -4 19 7 14 13 17 15 10 3 -7 -3 -20 -11 -29z
m-284 7 c-1 -6 26 -31 60 -56 81 -57 130 -98 78 -64 -35 23 -35 23 -11 -4 14
-15 19 -27 13 -27 -11 0 -42 25 -127 102 -16 16 -33 28 -37 28 -3 0 -4 9 -1
20 6 21 30 22 25 1z m473 4 c95 -14 145 -34 145 -57 0 -6 -9 -3 -20 7 -11 10
-20 13 -20 7 0 -18 -24 -14 -50 8 -13 11 -28 20 -34 20 -6 0 -3 -7 6 -14 10
-7 15 -16 12 -19 -8 -8 -56 14 -70 32 -6 8 -16 11 -22 7 -7 -4 -22 0 -34 8
-27 19 -33 19 87 1z m-668 -1 c-3 -3 -12 -4 -19 -1 -8 3 -5 6 6 6 11 1 17 -2
13 -5z m-415 -74 c41 -18 72 -50 49 -50 -5 0 -5 -19 0 -41 12 -52 6 -58 -29
-33 -51 36 -80 47 -109 39 -15 -3 -30 -7 -33 -8 -13 -3 -37 -43 -33 -55 4 -10
64 -42 79 -42 17 0 -1 20 -18 21 -22 0 -22 1 -3 10 17 8 16 9 -6 4 -33 -6 -45
17 -20 39 22 20 63 20 101 1 36 -18 37 -31 8 -62 -12 -13 -17 -23 -10 -23 6 0
19 11 30 25 22 27 37 33 29 11 -4 -10 2 -16 16 -18 17 -2 21 -10 22 -46 1 -28
-2 -37 -7 -27 -11 19 -29 20 -22 0 4 -8 1 -15 -6 -15 -10 0 -10 -3 -1 -14 18
-21 47 -26 48 -7 5 72 4 114 -4 120 -5 3 -11 32 -12 63 -2 49 0 58 19 68 12 6
19 14 16 17 -3 3 -12 0 -21 -7 -12 -10 -15 -10 -15 2 0 8 -19 22 -42 31 -58
23 -43 30 23 11 114 -34 123 -48 64 -99 -39 -33 -49 -63 -16 -45 11 5 30 10
43 10 23 0 23 0 -2 -20 -20 -16 -22 -20 -7 -20 9 0 17 -4 17 -9 0 -5 12 -11
28 -14 15 -3 35 -9 45 -12 9 -4 17 -3 17 3 0 6 -16 14 -35 18 -33 6 -53 20
-42 30 6 6 93 -32 101 -45 12 -19 81 -13 100 8 24 27 72 45 93 36 15 -7 13 -9
-12 -15 -30 -8 -30 -8 -2 -9 32 -1 37 -21 5 -21 -21 0 -21 0 0 -19 12 -10 22
-23 22 -29 0 -6 7 -9 16 -5 40 15 131 -55 103 -81 -9 -8 -10 -8 -6 0 4 8 -6
14 -29 19 -20 3 -41 11 -48 16 -6 5 -39 29 -73 54 -73 52 -75 36 -3 -19 51
-39 56 -56 16 -56 -29 0 -39 10 -25 27 7 8 8 13 1 13 -21 0 -35 -29 -22 -45
26 -32 -14 -15 -62 26 -53 44 -78 48 -31 5 22 -21 24 -26 10 -26 -13 0 -9 -7
15 -30 27 -24 29 -29 14 -30 -19 0 -96 71 -114 106 -10 19 -9 21 16 17 23 -3
24 -2 7 6 -20 10 -20 10 0 11 19 1 19 1 1 11 -13 8 -20 8 -26 0 -8 -14 -38
-17 -65 -5 -18 7 -18 6 -6 -9 7 -9 19 -17 26 -17 7 0 18 -7 25 -15 10 -12 9
-15 -6 -15 -15 0 -16 -2 -5 -9 19 -12 4 -33 -19 -26 -10 3 -22 0 -26 -6 -5 -8
-2 -10 8 -6 9 3 24 -1 35 -8 10 -8 33 -15 51 -15 24 0 35 -6 42 -22 5 -13 9
-17 9 -10 1 19 18 14 24 -8 9 -37 -2 -57 -29 -52 -17 3 -23 9 -19 19 3 11 1
13 -10 9 -9 -3 -24 4 -36 17 -45 50 -53 57 -61 57 -4 0 -8 -8 -8 -17 0 -9 3
-13 7 -10 3 4 12 -5 20 -19 16 -33 16 -34 -1 -34 -20 0 -38 26 -42 62 -2 18
-13 41 -23 52 -19 19 -20 19 -17 -7 2 -15 -1 -27 -6 -27 -5 0 -6 -6 -2 -12 4
-7 -4 -3 -18 10 -13 12 -28 19 -31 15 -4 -3 -18 3 -30 16 -19 17 -29 20 -48
12 -24 -10 -24 -10 -1 -10 12 -1 22 -5 22 -11 0 -5 -10 -10 -22 -10 -13 0 -34
-3 -47 -7 -17 -4 -22 -3 -17 5 4 7 3 12 -3 12 -5 0 -13 -5 -17 -11 -4 -7 -14
-2 -28 14 -11 14 -31 28 -44 32 -22 6 -22 6 3 -19 30 -30 32 -46 5 -53 -18 -5
-24 -15 -21 -35 0 -5 -2 -8 -6 -9 -53 -5 -74 -3 -110 14 -24 10 -43 22 -43 26
0 17 14 19 41 6 42 -22 75 -19 98 11 21 26 21 26 -2 45 -13 11 -17 18 -9 19 7
0 10 5 7 10 -3 6 0 10 7 11 10 0 10 2 1 6 -22 8 -14 32 10 31 12 -1 35 2 51 7
19 5 36 4 48 -4 10 -6 18 -7 18 -2 0 5 -21 17 -47 27 -59 22 -75 33 -69 50 3
9 -1 11 -11 7 -32 -12 28 58 63 75 29 13 40 14 69 3 24 -8 40 -9 52 -2 10 6
12 11 6 11 -16 0 -17 30 -2 30 6 0 19 -5 30 -10 11 -6 19 -7 19 -1 0 10 -24
21 -48 21 -20 0 -52 29 -52 48 0 13 3 13 18 -1 10 -9 38 -25 64 -37z m1124 14
c13 5 36 -50 27 -66 -3 -5 -33 7 -72 29 -2 2 2 10 10 19 13 16 12 16 -8 6 -27
-15 -36 -15 -28 -1 4 5 -1 19 -10 29 -17 18 -15 18 25 -1 23 -11 48 -18 56
-15z m-1201 -14 c34 -49 30 -55 -26 -40 -31 9 -39 14 -28 21 10 6 7 9 -13 9
-47 0 -26 28 38 50 1 0 14 -18 29 -40z m-128 8 c-3 -8 -6 -5 -6 6 -1 11 2 17
5 13 3 -3 4 -12 1 -19z m1470 -25 c9 -21 19 -41 21 -45 2 -5 -1 -8 -7 -8 -11
0 -19 16 -35 68 -11 35 2 26 21 -15z m-368 13 c-20 -18 -48 -25 -43 -11 4 8
15 15 27 15 11 0 18 -2 16 -4z m99 -27 c34 -33 40 -49 20 -50 -7 0 -30 -1 -50
-3 -31 -2 -42 3 -65 27 -15 17 -23 27 -17 24 6 -3 22 -8 37 -11 32 -6 48 13
18 21 -11 3 -18 9 -15 14 11 18 41 8 72 -22z m228 23 c20 -14 25 -42 6 -43 -9
0 6 -9 33 -20 45 -18 133 -98 135 -122 0 -5 -15 -7 -32 -5 -32 3 -33 5 -31 43
2 33 1 36 -7 18 -8 -19 -13 -21 -35 -13 -14 5 -25 7 -25 4 0 -2 -13 2 -30 11
-37 19 -51 19 -25 -1 19 -14 17 -15 -25 -9 -45 5 -45 5 3 -10 26 -9 47 -20 47
-25 0 -13 -69 -1 -112 20 -38 17 -38 17 -38 -17 0 -19 5 -43 10 -54 16 -28 -2
-23 -34 10 -16 16 -25 34 -22 40 4 6 0 11 -8 11 -28 0 -17 17 14 24 22 4 30
11 28 23 -2 15 4 18 32 16 32 -2 33 -1 10 8 -14 5 -33 21 -43 34 -18 24 -17
25 3 25 11 0 33 -12 47 -26 18 -18 28 -22 33 -14 5 8 10 9 14 1 10 -15 94 -51
120 -51 12 0 -5 11 -37 24 -84 35 -88 40 -78 99 1 9 33 9 47 -1z m-1016 -22
c25 -25 27 -49 3 -29 -14 12 -15 12 -11 -1 3 -8 -1 -22 -9 -31 -12 -15 -10
-18 21 -33 19 -9 45 -16 59 -16 26 0 55 25 43 38 -4 4 -12 -1 -17 -11 -6 -9
-20 -16 -32 -16 -18 1 -19 2 -4 6 11 3 16 11 13 19 -9 23 43 39 63 19 13 -13
13 -15 1 -15 -13 0 -13 -1 0 -10 12 -7 12 -12 -4 -29 -19 -21 -75 -29 -90 -13
-8 7 -13 8 -41 11 -9 0 -20 12 -26 24 -8 19 -17 23 -36 19 -18 -3 -24 -1 -19
7 4 6 12 11 18 11 20 0 37 33 27 52 -14 25 15 24 41 -2z m140 10 c0 -5 -7 -10
-16 -10 -8 0 -12 5 -9 10 3 6 10 10 16 10 5 0 9 -4 9 -10z m-40 -28 c0 -5 -11
-14 -24 -21 -24 -13 -46 -8 -46 10 0 6 4 7 10 4 5 -3 18 -1 27 4 22 13 33 14
33 3z m569 -18 c18 -9 30 -18 28 -20 -7 -7 -67 17 -67 27 0 12 2 12 39 -7z
m196 -14 c3 -5 -1 -10 -9 -10 -8 0 -18 5 -21 10 -3 6 1 10 9 10 8 0 18 -4 21
-10z m-1347 -74 c-34 -34 -50 -44 -66 -39 -12 3 -19 10 -16 15 3 5 12 7 19 4
10 -3 13 5 12 32 -2 36 -1 37 38 42 60 9 64 -5 13 -54z m1093 44 c31 -25 23
-25 -27 0 -29 14 -34 19 -18 20 12 0 32 -9 45 -20z m64 11 c18 -7 17 -8 -6
-13 -29 -5 -49 0 -49 13 0 11 27 11 55 0z m110 -7 c17 -17 16 -35 -2 -41 -6
-2 -18 10 -26 26 -18 35 -1 44 28 15z m54 3 c6 -8 8 -17 4 -20 -7 -8 -33 11
-33 24 0 13 16 11 29 -4z m-1454 -18 c4 -6 14 -8 24 -4 15 6 15 5 0 -10 -29
-29 -109 -21 -109 11 0 17 75 20 85 3z m1359 -11 c3 -13 0 -27 -6 -33 -8 -7
-9 -6 -4 2 4 7 2 22 -4 33 -6 11 -7 20 -2 20 6 0 12 -10 16 -22z m-1309 -25
c-26 -18 -32 -7 -9 18 12 14 20 17 23 8 2 -7 -4 -18 -14 -26z m1272 19 c-15
-3 -12 -10 18 -43 19 -21 35 -44 35 -49 0 -6 7 -10 16 -10 10 0 14 -6 10 -15
-3 -8 -1 -15 3 -15 15 0 20 27 8 39 -8 8 -8 14 1 23 9 9 18 6 39 -13 16 -14
46 -36 68 -48 29 -16 35 -17 20 -4 -19 16 -23 53 -7 53 4 0 25 -14 46 -30 36
-27 45 -30 88 -24 33 5 48 3 48 -5 0 -6 -6 -11 -12 -12 -7 0 -3 -4 10 -9 14
-6 22 -18 22 -32 0 -17 3 -19 9 -9 7 11 12 10 27 -3 11 -10 30 -26 44 -37 25
-20 25 -20 0 -14 -25 6 -25 6 3 -12 15 -10 27 -23 27 -30 0 -7 5 -13 10 -13
20 0 10 47 -15 70 -35 33 -34 53 3 38 40 -18 102 -68 102 -83 0 -7 3 -15 8
-18 4 -2 1 -2 -6 0 -8 1 -21 3 -29 3 -11 0 -14 7 -11 25 6 29 -3 32 -19 7 -6
-11 -8 -25 -3 -32 12 -19 1 -43 -14 -31 -25 21 -69 32 -63 17 7 -18 -9 -31
-18 -16 -9 15 -25 12 -25 -5 0 -8 6 -15 14 -15 7 0 20 -8 27 -17 12 -15 12
-16 -6 -10 -19 7 -19 6 -2 -7 15 -12 5 -14 -79 -12 -53 0 -98 -2 -101 -7 -2
-4 23 -7 57 -7 34 0 59 -4 56 -9 -4 -5 0 -12 6 -14 7 -3 -17 -6 -54 -6 -63 -1
-67 0 -86 30 -12 19 -22 27 -26 20 -4 -6 -2 -11 5 -11 7 0 9 -3 6 -6 -4 -4
-24 4 -44 18 -21 14 -59 37 -85 52 -27 15 -48 32 -48 39 0 7 -4 6 -10 -3 -9
-13 -12 -12 -25 4 -14 18 -20 15 -15 -9 1 -5 -7 -2 -18 8 -23 21 -32 22 -32 2
0 -22 -15 -18 -28 8 -8 17 -11 18 -11 5 -1 -9 4 -20 9 -23 13 -8 13 -35 0 -55
-13 -20 -64 36 -55 59 4 9 7 21 8 26 1 6 16 12 32 15 23 4 30 10 29 27 -1 27
38 26 64 -2 16 -17 16 -17 -5 -12 -25 5 -30 -7 -13 -33 8 -13 10 -12 10 3 0
15 6 18 28 14 15 -2 22 -2 16 0 -11 4 -27 31 -38 66 -6 19 28 39 52 30 6 -3
12 -1 12 3 0 5 -29 22 -65 38 -74 33 -118 72 -92 82 15 5 15 7 1 21 -19 19 -9
30 31 35 33 4 60 -4 32 -10z m-1389 -23 c17 -6 29 -16 26 -23 -7 -19 -59 -46
-88 -46 -29 0 -30 2 -17 28 5 9 12 25 15 35 6 20 21 21 64 6z m287 -29 c8 0
15 -4 15 -10 0 -5 -9 -10 -21 -10 -13 0 -18 4 -13 13 5 8 3 8 -9 -2 -14 -11
-18 -11 -23 3 -4 11 -13 15 -28 11 -20 -6 -20 -5 3 13 23 19 24 19 42 1 11
-11 26 -19 34 -19z m538 20 c-4 -5 -21 -12 -38 -15 -30 -7 -30 -7 0 13 28 18
57 19 38 2z m167 4 c0 -2 -9 -4 -21 -4 -11 0 -18 4 -14 10 5 8 35 3 35 -6z
m800 -24 c12 -16 16 -30 10 -30 -20 0 -50 20 -50 35 0 7 -8 16 -17 18 -12 3
-8 5 9 6 19 1 33 -8 48 -29z m-1720 16 c0 -2 -6 -9 -13 -15 -10 -8 -14 -7 -14
4 0 8 6 15 14 15 7 0 13 -2 13 -4z m30 -15 c0 -15 54 -38 79 -34 12 2 20 -1
17 -6 -8 -12 -106 -11 -106 1 0 5 -4 6 -10 3 -11 -7 -14 28 -3 38 9 10 23 8
23 -2z m1360 -13 c0 -16 -3 -19 -11 -11 -6 6 -8 16 -5 22 11 17 16 13 16 -11z
m194 -4 c15 -14 26 -27 23 -30 -8 -8 -57 7 -57 18 0 6 -9 8 -19 5 -11 -3 -22
1 -25 8 -13 34 39 33 78 -1z m246 11 c11 -13 10 -14 -4 -9 -9 3 -16 10 -16 15
0 13 6 11 20 -6z m-152 -36 c22 -27 22 -29 5 -29 -20 0 -41 14 -62 43 -25 32
31 19 57 -14z m32 0 c0 -14 -17 -10 -23 5 -4 10 -1 13 9 9 7 -3 14 -9 14 -14z
m143 -9 c26 -16 47 -32 47 -34 0 -7 -123 43 -134 54 -23 23 43 8 87 -20z
m-1866 13 c-4 -3 -10 -3 -14 0 -3 4 0 7 7 7 7 0 10 -3 7 -7z m-37 -14 c0 -6
-13 -27 -30 -45 -36 -41 -45 -71 -31 -104 10 -22 10 -21 5 10 -6 42 57 130 80
110 7 -5 16 -7 19 -3 4 3 7 2 7 -3 -1 -5 -15 -18 -32 -29 -17 -11 -38 -31 -47
-45 -14 -22 -11 -21 27 9 24 18 46 31 49 27 4 -3 1 -6 -5 -6 -7 0 -12 -4 -12
-10 0 -5 7 -10 15 -10 25 0 17 -19 -17 -41 -18 -12 -25 -19 -15 -15 9 3 17 1
17 -4 0 -6 7 -10 17 -10 21 0 12 -9 -15 -15 -24 -4 -62 -23 -62 -31 0 -2 9 0
19 6 30 16 80 12 106 -8 21 -17 22 -20 8 -46 -16 -30 -38 -30 -38 0 0 13 -6
18 -19 16 -11 -2 -15 1 -11 7 10 17 -21 24 -54 13 -28 -10 -30 -8 -40 21 -6
17 -19 39 -28 49 -10 11 -11 18 -5 18 7 0 12 8 12 18 0 10 -3 13 -8 6 -10 -15
-42 -25 -42 -14 0 6 5 10 10 10 6 0 10 4 10 10 0 5 -7 7 -15 4 -17 -7 -48 14
-40 27 3 4 12 6 20 3 7 -3 22 3 31 15 21 24 34 19 28 -12 -2 -12 5 -1 17 25
18 41 30 52 62 57 4 0 7 -4 7 -10z m210 -3 c0 -7 -14 -16 -32 -20 -17 -3 -38
-15 -45 -26 -10 -15 -21 -19 -36 -15 -16 5 -18 4 -8 -3 8 -6 9 -12 3 -16 -6
-3 -13 -2 -16 3 -12 19 7 41 52 57 26 10 51 21 57 26 14 12 25 10 25 -6z
m1111 -3 c13 -16 12 -17 -3 -4 -10 7 -18 15 -18 17 0 8 8 3 21 -13z m670 -3
c5 0 9 -4 9 -10 0 -16 -26 -12 -41 7 -12 15 -12 16 4 10 10 -4 23 -7 28 -7z
m-2064 -7 c-4 -3 -10 -3 -14 0 -3 4 0 7 7 7 7 0 10 -3 7 -7z m1161 -21 c4 -25
-13 -30 -22 -6 -9 25 -7 36 7 32 6 -3 13 -14 15 -26z m609 11 c-4 -3 -10 -3
-14 0 -3 4 0 7 7 7 7 0 10 -3 7 -7z m-460 -25 c18 -13 33 -30 33 -38 -1 -13
-2 -13 -13 0 -11 14 -51 40 -61 40 -2 0 -2 -9 1 -19 5 -19 28 -31 92 -48 19
-4 36 -14 39 -22 3 -9 -2 -11 -14 -7 -11 3 -43 8 -72 11 -75 7 -142 54 -129
89 10 25 84 21 124 -6z m177 -7 c-2 -3 -12 3 -22 13 -16 17 -16 18 5 5 12 -7
20 -15 17 -18z m-1534 15 c0 -3 -4 -8 -10 -11 -5 -3 -10 -1 -10 4 0 6 5 11 10
11 6 0 10 -2 10 -4z m1498 -9 c13 -15 -1 -42 -17 -33 -6 4 -16 16 -21 27 -13
23 20 28 38 6z m453 3 c5 0 9 -4 9 -10 0 -12 -47 -13 -54 -1 -8 12 6 22 22 16
7 -3 18 -5 23 -5z m-1613 -33 c4 -18 -31 -40 -56 -34 -13 3 -11 7 11 17 17 8
26 19 22 28 -3 8 0 12 7 10 7 -3 14 -12 16 -21z m758 -5 c-4 -3 -14 2 -24 12
-16 18 -16 18 6 6 13 -6 21 -14 18 -18z m-296 8 c0 -5 -4 -10 -10 -10 -5 0
-10 5 -10 10 0 6 5 10 10 10 6 0 10 -4 10 -10z m135 -6 c14 -9 22 -20 19 -25
-3 -5 7 -14 21 -19 15 -6 29 -19 32 -30 7 -28 122 -45 131 -19 12 32 81 -44
86 -96 4 -31 -46 -87 -70 -78 -11 4 -12 9 -3 19 9 11 9 14 -1 14 -6 0 -10 8
-7 18 2 9 -3 30 -11 46 -12 24 -12 30 0 37 9 6 7 9 -9 9 -17 0 -23 -6 -23 -22
0 -19 -2 -20 -10 -8 -9 14 -10 12 -10 -15 0 -3 2 -4 4 -2 7 4 46 -36 46 -47
-1 -6 -9 -1 -20 12 -15 18 -19 19 -22 7 -5 -24 -58 30 -58 60 0 31 -10 36 -40
19 -19 -10 -21 -13 -7 -14 9 0 17 -5 17 -11 0 -6 -9 -9 -20 -6 -11 3 -18 1
-14 -4 3 -5 17 -9 31 -9 18 0 24 -4 20 -14 -4 -9 -1 -13 6 -10 17 6 71 -51 63
-65 -4 -6 -2 -11 3 -11 6 0 11 5 11 12 0 9 3 9 13 -1 10 -10 8 -15 -7 -26 -23
-17 -102 20 -171 80 -40 36 -40 36 -1 15 50 -27 56 -20 9 11 -41 27 -54 49
-28 49 17 0 13 32 -7 58 -14 16 33 17 50 0 6 -6 14 -9 17 -7 2 3 -13 24 -36
47 -42 45 -44 52 -4 26z m125 -17 c0 -13 3 -17 8 -11 8 13 72 -1 72 -16 0 -13
-7 -13 -30 0 -14 8 -21 6 -28 -6 -8 -15 -11 -15 -31 5 -11 11 -31 21 -43 21
-21 0 -21 2 7 19 35 21 45 19 45 -12z m80 7 c0 -2 -7 -4 -15 -4 -8 0 -15 4
-15 10 0 5 7 7 15 4 8 -4 15 -8 15 -10z m108 -19 c-3 -3 -9 2 -12 12 -6 14 -5
15 5 6 7 -7 10 -15 7 -18z m-651 2 c3 -4 -1 -7 -10 -7 -9 0 -20 -7 -25 -16 -6
-11 -11 -13 -16 -5 -11 16 -26 13 -20 -4 5 -11 -1 -15 -19 -15 -36 0 -57 10
-57 27 0 8 5 11 10 8 6 -3 10 -2 10 4 0 18 110 25 127 8z m97 -89 c18 -91 -14
-129 -89 -105 -59 18 -99 98 -56 110 25 6 34 -2 21 -18 -8 -9 -3 -14 18 -17
39 -6 54 12 37 43 -25 43 -28 50 -21 56 10 10 35 -28 42 -65 8 -41 -10 -66
-43 -57 -26 6 -32 -9 -7 -19 30 -11 74 29 74 67 0 8 -11 31 -25 51 -36 53 -30
68 9 23 19 -21 36 -52 40 -69z m476 75 c0 -21 -3 -24 -9 -14 -5 8 -7 20 -4 28
8 21 13 15 13 -14z m-1186 -9 c9 -24 -33 -82 -68 -94 -37 -13 -37 -13 -10 35
17 29 24 35 24 20 1 -19 1 -19 11 -1 9 14 8 20 -1 26 -7 4 -9 13 -6 19 11 17
43 13 50 -5z m234 -22 c2 -12 -1 -22 -6 -22 -15 0 -34 28 -27 40 10 17 30 6
33 -18z m482 15 c0 -8 9 -22 20 -32 20 -18 26 -35 13 -35 -5 0 -18 18 -31 40
-12 22 -18 40 -12 40 5 0 10 -6 10 -13z m327 6 c-4 -3 -10 -3 -14 0 -3 4 0 7
7 7 7 0 10 -3 7 -7z m10 -20 c-4 -3 -10 -3 -14 0 -3 4 0 7 7 7 7 0 10 -3 7 -7z
m293 -5 c0 -4 -16 -8 -35 -8 -19 0 -35 -5 -35 -11 0 -5 -4 -7 -10 -4 -6 4 -6
11 2 19 13 13 78 17 78 4z m-1022 -33 c10 -9 9 -11 -7 -10 -11 1 -24 4 -27 8
-4 4 -16 7 -26 7 -10 0 -18 7 -18 14 0 17 54 4 78 -19z m282 25 c0 -5 -7 -10
-15 -10 -8 0 -15 5 -15 10 0 6 7 10 15 10 8 0 15 -4 15 -10z m537 3 c-4 -3
-10 -3 -14 0 -3 4 0 7 7 7 7 0 10 -3 7 -7z m-757 -24 c-17 -14 -26 -17 -28 -9
-5 14 16 30 38 30 10 -1 7 -7 -10 -21z m150 11 c0 -5 -11 -10 -25 -10 -18 0
-25 -5 -25 -19 0 -24 -29 -36 -37 -15 -8 22 26 54 59 54 15 0 28 -4 28 -10z
m818 -10 c29 0 28 -10 -6 -53 -29 -36 -29 -36 -51 -6 -28 37 -21 74 12 65 12
-3 32 -6 45 -6z m-1049 -56 c7 -20 10 -38 7 -41 -3 -3 -10 6 -15 20 -5 14 -15
28 -20 32 -16 9 -13 35 2 29 7 -2 19 -21 26 -40z m221 13 c0 -5 -4 -5 -10 -2
-5 3 -10 14 -10 23 0 15 2 15 10 2 5 -8 10 -19 10 -23z m-199 9 c5 3 9 0 9 -6
0 -16 -23 -7 -27 11 -2 9 -1 10 3 1 3 -6 10 -10 15 -6z m444 -53 c-4 -61 -4
-61 -26 -56 -14 4 -18 11 -14 22 4 9 9 31 12 49 7 40 31 27 28 -15z m619 32
c4 -10 -1 -15 -16 -15 -17 0 -18 2 -8 15 7 8 14 15 15 15 2 0 5 -7 9 -15z
m150 -1 c10 -25 -1 -29 -14 -5 -6 12 -7 21 -1 21 5 0 12 -7 15 -16z m-1256
-26 c5 -19 5 -34 0 -37 -13 -5 -17 1 -24 37 -9 43 13 42 24 0z m1327 -9 c20
-23 20 -23 -14 -3 -19 10 -36 25 -39 33 -6 18 27 0 53 -30z m-1100 21 c-16
-25 -44 -31 -55 -10 -10 18 -8 20 25 20 22 0 34 -4 30 -10z m1000 0 c3 -5 4
-10 1 -10 -3 0 -8 5 -11 10 -3 6 -4 10 -1 10 3 0 8 -4 11 -10z m-85 -25 c21
-25 -30 -42 -64 -20 -14 10 -26 21 -26 26 0 15 77 10 90 -6z m-1245 -25 c3 -5
1 -10 -4 -10 -6 0 -11 5 -11 10 0 6 2 10 4 10 3 0 8 -4 11 -10z m1760 0 c3 -5
4 -10 1 -10 -3 0 -8 5 -11 10 -3 6 -4 10 -1 10 3 0 8 -4 11 -10z m160 -10 c10
-11 14 -20 9 -21 -5 0 2 -5 16 -11 25 -11 25 -11 2 -16 -33 -5 -72 22 -65 48
7 25 15 25 38 0z m-29 -46 c80 -51 79 -68 -2 -37 -13 5 -15 3 -9 -7 5 -9 4
-11 -4 -6 -6 4 -9 11 -6 16 3 4 -6 10 -18 14 -28 7 -77 43 -77 58 0 17 61 -3
116 -38z m-403 -9 c21 -27 24 -35 12 -35 -18 0 -65 43 -65 60 0 21 26 9 53
-25z m28 3 c8 -15 8 -18 0 -14 -6 4 -16 16 -22 28 -8 15 -8 18 0 14 6 -4 16
-16 22 -28z m269 10 c0 -6 -6 -5 -15 2 -8 7 -15 14 -15 16 0 2 7 1 15 -2 8 -4
15 -11 15 -16z m-1397 -60 c-5 -24 -8 -26 -26 -17 -20 11 -20 12 4 30 28 21
29 21 22 -13z m1144 5 c-4 -3 -7 0 -7 7 0 7 3 10 7 7 3 -4 3 -10 0 -14z
m-1317 3 c0 -1 -5 -17 -11 -35 -13 -38 -39 -42 -39 -5 0 17 4 23 12 18 8 -5 9
-2 5 9 -5 12 -1 17 13 17 11 0 20 -2 20 -4z m-70 -16 c0 -5 -2 -10 -4 -10 -3
0 -8 5 -11 10 -3 6 -1 10 4 10 6 0 11 -4 11 -10z m-343 -7 c-4 -3 -10 -3 -14
0 -3 4 0 7 7 7 7 0 10 -3 7 -7z m143 -22 c0 -5 9 -13 20 -16 30 -10 24 -25 -9
-25 -33 0 -46 13 -37 35 6 16 26 20 26 6z m27 2 c-4 -3 -10 -3 -14 0 -3 4 0 7
7 7 7 0 10 -3 7 -7z m403 -13 c0 -5 -3 -10 -8 -10 -4 0 -13 -9 -19 -20 -11
-17 -10 -18 4 -13 15 6 16 5 3 -9 -13 -14 -16 -14 -28 4 -12 17 -12 22 4 39
18 20 44 26 44 9z m650 0 c0 -5 -2 -10 -4 -10 -3 0 -8 5 -11 10 -3 6 -1 10 4
10 6 0 11 -4 11 -10z m-1110 -40 c0 -14 -14 -12 -28 2 -19 19 -14 30 8 18 11
-6 20 -15 20 -20z m485 10 c8 -13 -5 -13 -25 0 -13 8 -13 10 2 10 9 0 20 -4
23 -10z"/>
<path d="M2200 732 c0 -5 7 -17 16 -28 14 -17 15 -17 10 -1 -3 10 -6 23 -6 28
0 5 -4 9 -10 9 -5 0 -10 -4 -10 -8z"/>
<path d="M2330 595 c0 -2 15 -12 33 -20 32 -16 32 -16 8 5 -22 19 -41 26 -41
15z"/>
<path d="M2488 573 c7 -3 16 -2 19 1 4 3 -2 6 -13 5 -11 0 -14 -3 -6 -6z"/>
<path d="M2133 563 c4 -3 10 -3 14 0 3 4 0 7 -7 7 -7 0 -10 -3 -7 -7z"/>
<path d="M2097 537 c-2 -6 12 -17 32 -24 47 -16 50 -10 7 15 -24 14 -36 17
-39 9z"/>
<path d="M2170 540 c8 -5 20 -10 25 -10 6 0 3 5 -5 10 -8 5 -19 10 -25 10 -5
0 -3 -5 5 -10z"/>
<path d="M2328 523 c7 -3 16 -2 19 1 4 3 -2 6 -13 5 -11 0 -14 -3 -6 -6z"/>
<path d="M2738 503 c7 -3 16 -2 19 1 4 3 -2 6 -13 5 -11 0 -14 -3 -6 -6z"/>
<path d="M2438 403 c7 -3 16 -2 19 1 4 3 -2 6 -13 5 -11 0 -14 -3 -6 -6z"/>
<path d="M2105 770 c3 -5 8 -10 11 -10 2 0 4 5 4 10 0 6 -5 10 -11 10 -5 0 -7
-4 -4 -10z"/>
<path d="M3160 741 c0 -5 5 -13 10 -16 6 -3 10 -2 10 4 0 5 -4 13 -10 16 -5 3
-10 2 -10 -4z"/>
<path d="M3313 653 c4 -3 10 -3 14 0 3 4 0 7 -7 7 -7 0 -10 -3 -7 -7z"/>
<path d="M1763 653 c4 -3 10 -3 14 0 3 4 0 7 -7 7 -7 0 -10 -3 -7 -7z"/>
<path d="M3060 639 c0 -5 5 -7 10 -4 6 3 10 8 10 11 0 2 -4 4 -10 4 -5 0 -10
-5 -10 -11z"/>
<path d="M3120 570 c-13 -8 -12 -10 3 -10 9 0 17 5 17 10 0 12 -1 12 -20 0z"/>
<path d="M3260 490 c-8 -5 -10 -10 -5 -10 6 0 17 5 25 10 8 5 11 10 5 10 -5 0
-17 -5 -25 -10z"/>
<path d="M3300 494 c0 -2 21 -14 48 -27 36 -17 47 -28 46 -45 0 -13 5 -22 14
-22 7 0 12 -6 10 -12 -3 -7 -8 -12 -11 -10 -4 1 -24 2 -45 2 -26 0 -53 10 -85
31 -48 32 -77 35 -85 9 -4 -13 -3 -13 11 -2 19 16 57 0 57 -22 0 -9 16 -17 42
-21 23 -4 48 -14 56 -21 7 -8 21 -14 30 -14 15 0 15 2 2 10 -12 8 -10 10 11
10 36 0 79 -22 79 -41 0 -24 -24 -30 -50 -12 -16 11 -25 12 -33 4 -8 -8 -8
-11 2 -11 7 0 9 -5 5 -12 -4 -7 -3 -8 5 -4 6 4 23 0 38 -9 27 -18 42 -10 44
25 0 8 2 27 4 43 2 18 -1 27 -11 27 -8 0 -14 5 -14 11 0 15 -61 121 -66 116
-2 -2 7 -25 22 -50 19 -35 22 -46 10 -41 -9 3 -16 12 -16 19 0 19 -32 43 -78
59 -23 8 -42 13 -42 10z"/>
<path d="M3320 439 c-12 -8 -10 -9 8 -4 12 3 22 2 22 -3 0 -6 7 -12 15 -16 13
-4 14 -2 5 14 -12 22 -27 25 -50 9z"/>
<path d="M3520 415 c-8 -9 -8 -15 -2 -15 12 0 26 19 19 26 -2 2 -10 -2 -17
-11z"/>
<path d="M3239 360 c24 -11 46 -19 48 -16 5 5 -62 36 -79 36 -7 0 7 -9 31 -20z"/>
<path d="M1664 578 c-4 -7 -3 -8 4 -4 12 7 16 16 8 16 -3 0 -8 -5 -12 -12z"/>
<path d="M1853 503 c4 -3 10 -3 14 0 3 4 0 7 -7 7 -7 0 -10 -3 -7 -7z"/>
<path d="M2890 490 c13 -23 20 -26 20 -6 0 8 -7 16 -15 20 -13 4 -14 2 -5 -14z"/>
<path d="M2793 313 c4 -3 10 -3 14 0 3 4 0 7 -7 7 -7 0 -10 -3 -7 -7z"/>
<path d="M2790 274 c0 -8 5 -12 10 -9 6 4 8 11 5 16 -9 14 -15 11 -15 -7z"/>
<path d="M2538 1173 c7 -3 16 -2 19 1 4 3 -2 6 -13 5 -11 0 -14 -3 -6 -6z"/>
<path d="M2763 1173 c4 -3 10 -3 14 0 3 4 0 7 -7 7 -7 0 -10 -3 -7 -7z"/>
<path d="M2573 1163 c4 -3 10 -3 14 0 3 4 0 7 -7 7 -7 0 -10 -3 -7 -7z"/>
<path d="M2793 1163 c4 -3 10 -3 14 0 3 4 0 7 -7 7 -7 0 -10 -3 -7 -7z"/>
<path d="M2913 1133 c4 -3 10 -3 14 0 3 4 0 7 -7 7 -7 0 -10 -3 -7 -7z"/>
<path d="M2948 1123 c6 -2 18 -2 25 0 6 3 1 5 -13 5 -14 0 -19 -2 -12 -5z"/>
<path d="M2780 1110 c8 -5 22 -9 30 -9 10 0 8 3 -5 9 -27 12 -43 12 -25 0z"/>
<path d="M2573 1103 c4 -3 10 -3 14 0 3 4 0 7 -7 7 -7 0 -10 -3 -7 -7z"/>
<path d="M3038 1103 c7 -3 16 -2 19 1 4 3 -2 6 -13 5 -11 0 -14 -3 -6 -6z"/>
<path d="M2610 1090 c8 -5 22 -9 30 -9 10 0 8 3 -5 9 -27 12 -43 12 -25 0z"/>
<path d="M2845 1090 c11 -5 29 -8 40 -8 16 0 15 2 -5 8 -34 11 -60 11 -35 0z"/>
<path d="M2918 1073 c7 -3 16 -2 19 1 4 3 -2 6 -13 5 -11 0 -14 -3 -6 -6z"/>
<path d="M3167 1061 c11 -41 44 -59 121 -63 39 -2 72 0 72 4 0 4 -31 8 -68 8
-69 0 -112 22 -112 58 0 7 -4 12 -9 12 -5 0 -7 -9 -4 -19z"/>
<path d="M3585 1060 c-30 -20 -30 -20 8 -20 20 0 37 -4 37 -10 0 -5 -13 -10
-28 -10 -40 0 -72 -34 -45 -48 31 -17 132 -44 142 -38 5 4 21 2 35 -4 26 -10
26 -10 26 65 0 68 -9 91 -25 66 -3 -6 -19 -4 -40 5 -46 19 -74 18 -110 -6z
m70 -50 c3 -5 4 -10 1 -10 -3 0 -8 5 -11 10 -3 6 -4 10 -1 10 3 0 8 -4 11 -10z
m-58 -17 c-4 -3 -10 -3 -14 0 -3 4 0 7 7 7 7 0 10 -3 7 -7z m100 -27 c13 -13
-44 -5 -63 8 -17 13 -15 14 19 6 21 -4 41 -11 44 -14z m47 9 c-7 -16 -24 -21
-24 -6 0 8 7 13 27 20 1 1 0 -6 -3 -14z"/>
<path d="M1832 1057 c-7 -8 -8 -17 -4 -21 4 -4 -7 -5 -23 -2 -17 3 -23 3 -15
-1 10 -4 -5 -11 -40 -20 -55 -12 -55 -12 -5 -7 101 10 125 22 106 53 -6 9 -11
9 -19 -2z"/>
<path d="M2743 1053 c4 -3 10 -3 14 0 3 4 0 7 -7 7 -7 0 -10 -3 -7 -7z"/>
<path d="M2778 1043 c7 -3 16 -2 19 1 4 3 -2 6 -13 5 -11 0 -14 -3 -6 -6z"/>
<path d="M2818 1033 c7 -3 16 -2 19 1 4 3 -2 6 -13 5 -11 0 -14 -3 -6 -6z"/>
<path d="M2455 1020 c3 -5 10 -10 16 -10 5 0 9 5 9 10 0 6 -7 10 -16 10 -8 0
-12 -4 -9 -10z"/>
<path d="M2594 1022 c6 -10 103 -43 123 -41 9 0 -66 31 -106 44 -15 5 -21 4
-17 -3z"/>
<path d="M1442 988 c3 -7 22 -14 44 -14 33 -1 34 -1 6 3 -18 2 -30 9 -27 14 4
5 -1 9 -10 9 -9 0 -15 -6 -13 -12z"/>
<path d="M1600 990 c-45 -7 -45 -7 -5 -7 22 0 54 3 70 7 40 10 0 10 -65 0z"/>
<path d="M1830 988 c0 -9 4 -20 10 -23 5 -3 19 -38 31 -78 22 -76 47 -132 55
-124 3 2 -6 30 -20 61 -14 31 -28 72 -31 90 -8 39 -45 101 -45 74z"/>
<path d="M2740 970 c8 -5 24 -9 35 -9 20 0 20 0 0 9 -30 13 -55 13 -35 0z"/>
<path d="M2480 820 c20 -13 33 -13 25 0 -3 6 -14 10 -23 10 -15 0 -15 -2 -2
-10z"/>
<path d="M1660 786 c0 -33 -40 -45 -300 -91 -80 -14 -233 -41 -340 -60 -107
-19 -235 -41 -285 -49 -49 -8 -151 -26 -225 -40 -239 -44 -391 -68 -406 -62
-8 3 -14 19 -14 38 0 19 -4 28 -9 22 -4 -5 -6 -25 -4 -45 5 -37 5 -37 91 -36
133 0 134 0 182 -163 69 -238 96 -308 111 -293 5 5 -4 42 -22 88 -50 134 -112
326 -112 353 0 6 -5 12 -11 13 -6 0 0 5 14 10 18 7 21 12 11 18 -7 5 16 9 56
9 66 1 151 18 108 22 -32 3 28 18 78 20 99 4 115 1 110 -19 -3 -11 5 -28 20
-42 13 -13 57 -80 98 -149 40 -69 92 -147 114 -175 22 -27 56 -74 75 -102 18
-29 36 -51 38 -48 5 5 -59 101 -113 170 -18 22 -56 81 -85 130 -30 50 -71 118
-92 153 -45 75 -46 80 -10 87 71 15 88 24 37 20 -44 -4 -46 -3 -20 6 17 5 45
7 64 5 19 -3 53 -1 75 3 57 12 172 24 165 17 -3 -3 33 -45 81 -93 47 -49 121
-126 163 -173 42 -47 77 -81 77 -77 0 8 -272 313 -298 334 -22 18 -16 21 81
36 93 15 134 31 51 21 -27 -4 -46 -3 -41 1 4 5 55 10 113 11 116 3 118 2 203
-69 18 -16 36 -26 39 -22 3 3 -10 18 -29 34 -86 72 -85 71 -56 71 28 0 37 14
15 23 -7 3 19 5 59 4 63 -2 74 1 93 21 22 23 40 31 22 9 -6 -7 -13 -25 -16
-40 -2 -15 -11 -34 -20 -42 -8 -8 -17 -28 -21 -44 -3 -16 -13 -35 -21 -42 -8
-6 -14 -16 -14 -22 0 -6 -20 -49 -44 -96 -24 -48 -47 -97 -51 -111 -4 -14 -13
-32 -19 -40 -7 -8 -28 -55 -46 -105 -38 -100 -65 -154 -89 -173 -13 -10 -10
-12 15 -12 28 0 33 6 72 88 23 48 42 92 42 98 0 11 97 232 109 249 4 6 18 37
31 70 13 33 46 104 72 158 47 95 58 137 38 137 -5 0 -10 -6 -10 -14z m-95 -76
c-11 -5 -27 -9 -35 -9 -9 0 -8 4 5 9 11 5 27 9 35 9 9 0 8 -4 -5 -9z m-132
-27 c-7 -2 -21 -2 -30 0 -10 3 -4 5 12 5 17 0 24 -2 18 -5z m-76 -9 c-3 -3
-12 -4 -19 -1 -8 3 -5 6 6 6 11 1 17 -2 13 -5z m-40 -11 c-4 -3 -10 -3 -14 0
-3 4 0 7 7 7 7 0 10 -3 7 -7z m-174 -30 c-7 -2 -19 -2 -25 0 -7 3 -2 5 12 5
14 0 19 -2 13 -5z m-128 -24 c-53 -11 -90 -10 -55 1 14 4 41 8 60 8 35 0 35 0
-5 -9z m-102 -16 c-7 -2 -19 -2 -25 0 -7 3 -2 5 12 5 14 0 19 -2 13 -5z m-440
-80 c-7 -2 -21 -2 -30 0 -10 3 -4 5 12 5 17 0 24 -2 18 -5z m-66 -10 c-4 -3
-10 -3 -14 0 -3 4 0 7 7 7 7 0 10 -3 7 -7z m-94 -20 c-7 -2 -21 -2 -30 0 -10
3 -4 5 12 5 17 0 24 -2 18 -5z"/>
<path d="M2760 630 c0 -7 3 -10 7 -7 3 4 3 10 0 14 -4 3 -7 0 -7 -7z"/>
<path d="M2751 591 c-7 -5 -23 -6 -35 -4 -17 4 -18 3 -6 -6 19 -14 47 -14 55
0 10 14 2 20 -14 10z"/>
<path d="M1120 581 c0 -12 272 -302 279 -296 2 2 -59 71 -135 152 -76 81 -139
150 -141 152 -2 2 -3 -1 -3 -8z"/>
<path d="M730 531 c0 -8 100 -165 151 -236 15 -22 65 -97 110 -167 46 -71 87
-128 93 -127 6 0 5 3 -1 6 -7 2 -13 9 -13 14 0 6 -58 97 -129 203 -71 106
-138 211 -149 233 -11 21 -28 45 -36 52 -9 7 -13 17 -10 22 3 5 0 9 -5 9 -6 0
-11 -4 -11 -9z"/>
<path d="M553 523 c4 -3 10 -3 14 0 3 4 0 7 -7 7 -7 0 -10 -3 -7 -7z"/>
<path d="M343 453 c4 -3 10 -3 14 0 3 4 0 7 -7 7 -7 0 -10 -3 -7 -7z"/>
<path d="M3745 450 c3 -5 8 -10 11 -10 2 0 4 5 4 10 0 6 -5 10 -11 10 -5 0 -7
-4 -4 -10z"/>
<path d="M258 423 c7 -3 16 -2 19 1 4 3 -2 6 -13 5 -11 0 -14 -3 -6 -6z"/>
<path d="M1720 290 c0 -5 5 -10 11 -10 5 0 7 5 4 10 -3 6 -8 10 -11 10 -2 0
-4 -4 -4 -10z"/>
<path d="M1515 226 c-18 -13 -18 -14 -1 -32 18 -17 18 -17 12 4 -5 13 -3 22 3
22 6 0 11 -5 11 -12 0 -15 13 -1 16 17 3 19 -16 19 -41 1z"/>
<path d="M1870 210 c0 -5 5 -10 10 -10 6 0 10 5 10 10 0 6 -4 10 -10 10 -5 0
-10 -4 -10 -10z"/>
<path d="M2023 203 c9 -2 23 -2 30 0 6 3 -1 5 -18 5 -16 0 -22 -2 -12 -5z"/>
<path d="M3075 200 c3 -5 8 -10 11 -10 3 0 2 5 -1 10 -3 6 -8 10 -11 10 -3 0
-2 -4 1 -10z"/>
<path d="M1680 193 c-36 -5 -60 -18 -60 -35 0 -5 10 -2 22 6 12 9 37 16 55 16
17 0 35 5 38 10 3 6 0 9 -7 8 -7 0 -29 -3 -48 -5z"/>
<path d="M1888 187 c-14 -11 -11 -13 23 -12 21 0 37 5 36 10 -5 15 -40 16 -59
2z"/>
<path d="M2507 160 c32 -33 31 -61 -1 -60 -6 0 -2 6 9 12 19 11 19 11 0 19
-33 13 -104 11 -81 -2 10 -6 27 -20 37 -30 22 -22 40 -24 57 -7 8 8 15 8 24 0
19 -16 93 -28 84 -13 -11 17 0 13 20 -6 17 -17 18 -17 11 0 -4 10 -2 27 3 37
6 11 6 21 1 24 -5 3 -11 -4 -14 -16 -6 -20 -7 -20 -32 -4 -14 9 -30 14 -34 11
-18 -10 -40 7 -46 36 -4 16 -11 29 -15 29 -5 0 -7 -7 -3 -16 5 -14 2 -14 -23
2 -29 18 -29 18 3 -16z m-17 -50 c0 -5 -2 -10 -4 -10 -3 0 -8 5 -11 10 -3 6
-1 10 4 10 6 0 11 -4 11 -10z m120 -10 c0 -5 -5 -10 -11 -10 -5 0 -7 5 -4 10
3 6 8 10 11 10 2 0 4 -4 4 -10z"/>
<path d="M2408 168 c-32 -11 -36 -29 -11 -49 15 -13 16 -11 10 10 -4 18 -1 24
14 28 10 3 19 9 19 14 0 5 -1 9 -2 8 -2 0 -15 -5 -30 -11z"/>
<path d="M2750 171 c0 -12 29 -35 36 -28 4 3 -1 13 -9 22 -17 17 -27 19 -27 6z"/>
<path d="M1833 153 c4 -3 10 -3 14 0 3 4 0 7 -7 7 -7 0 -10 -3 -7 -7z"/>
<path d="M2818 143 c12 -2 30 -2 40 0 9 3 -1 5 -23 4 -22 0 -30 -2 -17 -4z"/>
<path d="M3012 138 c-7 -7 -12 -24 -12 -39 0 -15 -6 -30 -12 -32 -10 -4 -10
-6 0 -6 7 -1 10 -5 7 -11 -3 -5 1 -10 10 -10 8 0 18 7 22 16 3 9 12 13 22 9
12 -5 13 -4 4 6 -10 10 -16 9 -29 -2 -16 -13 -16 -11 0 17 21 35 11 75 -12 52z"/>
<path d="M1481 131 c-10 -6 -10 -10 -1 -16 13 -8 24 -1 19 14 -3 6 -10 7 -18
2z"/>
<path d="M1663 113 c4 -3 10 -3 14 0 3 4 0 7 -7 7 -7 0 -10 -3 -7 -7z"/>
<path d="M3432 100 c44 -23 47 -28 50 -69 1 -18 8 -31 15 -31 11 0 11 5 3 20
-6 10 -10 23 -9 27 4 23 -4 35 -33 53 -18 11 -40 20 -48 20 -8 -1 2 -10 22
-20z"/>
<path d="M1402 89 c-19 -30 -8 -34 12 -4 9 14 13 25 9 25 -5 0 -14 -9 -21 -21z"/>
<path d="M2870 95 c0 -5 7 -16 16 -26 13 -15 19 -30 23 -60 1 -3 14 -4 31 -1
16 2 27 8 24 13 -3 5 -9 7 -14 4 -5 -3 -12 0 -16 6 -3 6 -1 15 6 19 12 7 3 14
-25 19 -5 2 -18 10 -27 18 -10 9 -18 12 -18 8z"/>
<path d="M2980 90 c0 -7 3 -10 7 -7 3 4 3 10 0 14 -4 3 -7 0 -7 -7z"/>
<path d="M3227 87 c-3 -9 -2 -19 4 -23 15 -9 18 -2 9 20 -6 17 -7 18 -13 3z"/>
<path d="M3381 79 c-22 -18 -26 -18 -48 -4 -13 9 -30 14 -36 12 -7 -3 1 -10
17 -16 18 -7 26 -16 22 -26 -6 -18 5 -20 21 -4 8 8 17 5 33 -11 12 -12 24 -19
27 -17 2 3 -5 15 -17 27 -19 19 -19 22 -5 36 13 14 19 25 13 24 -2 -1 -14 -10
-27 -21z"/>
<path d="M2447 79 c7 -7 15 -10 18 -7 3 3 -2 9 -12 12 -14 6 -15 5 -6 -5z"/>
<path d="M3136 75 c5 -11 -3 -17 -25 -21 -17 -4 -31 -10 -31 -15 0 -5 10 -5
23 -1 12 5 36 8 53 8 32 -1 32 -1 7 22 -28 26 -35 28 -27 7z"/>
<path d="M3513 73 c4 -3 10 -3 14 0 3 4 0 7 -7 7 -7 0 -10 -3 -7 -7z"/>
<path d="M1856 54 c-11 -7 -18 -16 -15 -18 2 -2 13 2 23 10 11 7 18 16 15 18
-2 2 -13 -2 -23 -10z"/>
<path d="M2860 63 c0 -13 29 -38 35 -31 3 3 -4 13 -15 23 -11 10 -20 13 -20 8z"/>
<path d="M3280 40 c0 -7 3 -10 7 -7 3 4 3 10 0 14 -4 3 -7 0 -7 -7z"/>
<path d="M2618 33 c8 -3 11 -11 8 -19 -6 -15 35 -16 50 -1 4 4 13 2 21 -5 7
-6 16 -9 19 -6 2 3 -7 13 -22 23 -15 9 -23 11 -19 4 6 -9 3 -10 -11 -6 -23 7
-64 16 -46 10z"/>
<path d="M3029 20 c-13 -10 -19 -19 -12 -20 6 0 15 5 18 11 4 6 13 8 21 5 8
-3 14 1 14 9 0 20 -13 19 -41 -5z"/>
<path d="M3554 21 c0 -11 4 -17 8 -15 4 3 8 12 8 20 0 8 -4 14 -8 14 -4 0 -8
-9 -8 -19z"/>
<path d="M3215 20 c3 -5 11 -10 16 -10 6 0 7 5 4 10 -3 6 -11 10 -16 10 -6 0
-7 -4 -4 -10z"/>
<path d="M1553 3 c4 -3 10 -3 14 0 3 4 0 7 -7 7 -7 0 -10 -3 -7 -7z"/>
<path d="M3743 3 c4 -3 10 -3 14 0 3 4 0 7 -7 7 -7 0 -10 -3 -7 -7z"/>
</g>
</svg>
