<?xml version="1.0" standalone="no"?>
<!DOCTYPE svg PUBLIC "-//W3C//DTD SVG 20010904//EN"
 "http://www.w3.org/TR/2001/REC-SVG-20010904/DTD/svg10.dtd">
<svg version="1.0" xmlns="http://www.w3.org/2000/svg"
 width="344.000000pt" height="256.000000pt" viewBox="0 0 344.000000 256.000000"
 preserveAspectRatio="xMidYMid meet">
<metadata>
Created by potrace 1.16, written by Peter Selinger 2001-2019
</metadata>
<g transform="translate(0.000000,256.000000) scale(0.100000,-0.100000)"
fill="#000000" stroke="none">
<path d="M2327 2463 c-3 -5 -2 -15 4 -23 16 -27 10 -60 -13 -70 -23 -9 -23 -9
0 -9 15 -1 26 -8 29 -21 7 -27 21 -25 26 3 3 16 5 13 6 -10 1 -21 -4 -33 -12
-33 -20 0 -36 21 -30 38 4 10 2 13 -5 8 -7 -4 -12 -13 -12 -20 0 -29 -36 -44
-125 -50 -156 -12 -265 -36 -216 -49 12 -3 19 -1 16 3 -3 5 11 12 32 15 21 4
52 9 68 11 30 5 30 5 -10 -33 -22 -21 -51 -46 -65 -56 -24 -17 -24 -17 10 -1
19 9 49 28 65 43 30 26 30 26 2 -5 -16 -18 -45 -40 -65 -50 -20 -11 -43 -25
-50 -31 -8 -8 -44 -14 -90 -14 -77 -2 -77 -2 -7 -9 53 -6 75 -4 92 6 28 17 36
18 28 2 -3 -7 2 -3 11 10 16 21 41 32 29 12 -10 -16 11 -12 25 5 11 13 10 14
-6 9 -10 -3 -1 10 21 29 44 39 115 67 167 67 27 -1 30 -3 18 -13 -10 -8 -15
-33 -16 -82 -1 -47 1 -62 6 -45 4 14 8 37 9 52 1 15 9 47 18 70 17 42 17 42
24 15 9 -32 1 -108 -12 -122 -14 -14 -11 -25 6 -19 8 4 16 20 16 38 2 31 2 31
6 3 5 -32 -10 -55 -44 -68 -13 -5 -23 -17 -23 -28 0 -13 -13 -24 -40 -35 -47
-19 -53 -28 -11 -16 29 8 29 7 21 -16 -5 -13 -6 -24 -3 -24 4 0 2 -5 -5 -12
-7 -7 -12 -15 -12 -18 0 -9 84 -5 100 5 8 4 6 -2 -5 -13 -18 -18 -26 -20 -67
-12 -61 12 -78 5 -78 -31 0 -15 -7 -32 -16 -37 -11 -6 -5 -9 23 -9 21 0 30 2
21 4 -12 3 -18 14 -18 34 0 27 3 29 38 29 20 0 50 -7 66 -15 18 -10 41 -13 67
-9 26 4 39 3 39 -5 0 -6 -9 -11 -20 -11 -11 0 -20 -5 -20 -11 0 -6 7 -8 16 -5
9 3 21 6 28 6 7 0 19 11 26 25 15 28 64 37 53 9 -3 -8 -12 -13 -20 -10 -8 3
-11 1 -8 -4 3 -6 -2 -10 -12 -10 -11 0 -4 -7 17 -18 54 -27 73 -112 25 -112
-13 0 -39 53 -40 80 0 19 -65 18 -80 -2 -18 -25 -58 -30 -52 -8 3 11 -2 25 -9
31 -8 7 -12 19 -9 28 4 10 -5 6 -22 -10 -37 -33 -97 -58 -154 -62 -47 -4 -47
-4 -52 52 -7 69 -30 91 -94 91 -59 0 -98 -28 -128 -94 -24 -51 -24 -51 -19 -1
4 28 14 59 23 70 43 51 44 54 22 50 -12 -2 -25 -6 -29 -9 -5 -3 -2 17 7 44 10
33 22 52 39 60 14 6 22 13 19 16 -3 3 -20 -2 -39 -12 -31 -17 -56 -22 -198
-43 -30 -4 -47 -9 -37 -10 9 0 17 -5 17 -11 0 -5 7 -10 15 -10 8 0 15 4 15 8
0 22 128 40 148 20 27 -27 -4 -47 -68 -43 -33 2 -60 0 -60 -6 0 -5 22 -9 49
-9 66 0 75 -13 67 -93 -4 -34 -10 -75 -13 -92 -6 -30 -6 -30 15 -12 11 11 25
16 31 13 18 -11 61 5 61 23 0 54 75 78 109 35 10 -13 24 -24 30 -24 29 0 6
-21 -34 -31 -25 -6 -43 -15 -40 -19 3 -5 -1 -11 -7 -13 -7 -3 3 -6 22 -6 26
-1 31 -4 20 -11 -8 -5 -24 -7 -35 -3 -19 6 -20 5 -2 -15 17 -19 17 -20 2 -18
-20 3 -39 32 -30 45 3 5 0 13 -6 17 -8 4 -9 3 -5 -4 4 -7 2 -12 -4 -12 -6 0 0
-16 14 -37 32 -47 25 -60 -56 -103 -69 -37 -156 -44 -189 -14 -8 8 -24 14 -35
14 -16 0 -17 2 -4 10 13 8 13 10 -2 10 -9 0 -23 6 -30 13 -7 8 -23 19 -36 26
-12 6 -22 15 -22 19 0 12 97 53 155 66 50 11 50 11 51 56 1 25 0 36 -2 25 -8
-34 -124 -19 -124 16 0 10 -5 21 -11 25 -8 4 -9 0 -4 -15 5 -17 2 -21 -14 -21
-23 0 -51 25 -51 46 0 17 -27 19 -32 3 -7 -22 -76 12 -87 43 -6 15 -13 28 -17
28 -3 0 -3 -8 0 -17 4 -10 -4 -4 -18 12 -23 29 -28 30 -100 29 -59 0 -76 3
-76 14 0 8 -6 12 -15 8 -23 -8 -66 12 -72 34 -3 12 -13 19 -26 17 -15 -1 -22
6 -30 33 -5 19 -12 29 -14 22 -3 -7 0 -26 6 -42 6 -20 7 -30 0 -30 -6 0 -7 -4
-4 -10 3 -5 1 -10 -5 -10 -6 0 -8 10 -4 24 3 15 1 27 -8 33 -15 9 -38 69 -38
100 0 16 -5 20 -20 16 -23 -6 -26 -21 -6 -29 23 -9 25 -41 5 -60 -11 -9 -22
-14 -26 -10 -4 4 -2 11 5 15 8 5 1 8 -19 9 -36 1 -72 -30 -62 -54 3 -8 -1 -14
-10 -14 -8 0 -17 -6 -20 -12 -3 -10 -9 -10 -26 0 -11 6 -29 12 -38 13 -14 0
-13 2 5 9 22 10 30 44 12 55 -5 3 -10 -1 -10 -10 0 -11 -5 -15 -14 -12 -8 3
-13 -1 -12 -11 1 -17 -6 -19 -36 -7 -11 4 -18 3 -18 -4 0 -6 8 -11 18 -11 11
0 27 -9 37 -20 15 -17 16 -20 3 -20 -9 0 -18 7 -22 15 -3 8 -15 15 -26 15 -11
0 -20 5 -20 11 0 6 -9 23 -20 37 -15 18 -19 34 -15 54 4 17 2 28 -4 28 -6 0
-11 -6 -11 -12 0 -7 -7 -2 -16 10 -9 13 -13 26 -10 29 3 4 6 1 6 -5 0 -7 4
-12 10 -12 16 0 0 28 -20 33 -15 4 -18 -1 -17 -22 2 -22 -2 -25 -20 -23 -17 2
-21 -1 -17 -12 3 -9 9 -14 13 -12 3 3 6 -13 6 -35 0 -33 -2 -38 -17 -33 -10 3
-18 1 -18 -5 0 -6 7 -11 15 -11 8 0 15 -4 15 -10 0 -5 -7 -10 -16 -10 -12 0
-15 -6 -10 -22 3 -13 6 -27 6 -31 0 -5 5 -5 10 -2 6 3 10 2 10 -4 0 -29 -20
-15 -37 27 -19 46 -14 102 9 102 4 0 8 9 8 20 0 24 -13 26 -31 4 -7 -8 -20
-13 -30 -11 -13 3 -16 0 -12 -11 4 -9 2 -13 -4 -9 -7 4 -14 -5 -18 -23 -9 -42
-22 -45 -40 -10 -9 17 -26 35 -38 40 -16 6 -18 9 -5 9 9 1 20 -3 23 -9 16 -26
23 -6 8 25 -18 39 -34 47 -26 14 9 -33 -17 -14 -72 54 -51 61 -52 62 -75 47
-12 -8 -13 -13 -2 -30 6 -11 12 -37 11 -57 -1 -34 -2 -35 -9 -13 -6 19 -8 11
-9 -32 -1 -33 3 -58 9 -58 6 0 10 -4 10 -10 0 -22 -26 -8 -28 15 -1 21 -42
114 -77 177 -10 19 -31 19 -29 0 1 -7 2 -24 2 -38 2 -21 5 -24 16 -15 16 13
30 0 40 -39 6 -23 6 -23 -7 -8 -12 16 -14 9 -13 -55 0 -39 2 -62 4 -50 3 19 6
21 22 11 13 -8 16 -16 9 -24 -6 -7 -4 -16 6 -24 13 -10 15 -9 16 11 0 24 0 24
11 2 16 -34 38 -37 38 -6 0 24 2 25 14 13 18 -20 10 -86 -9 -70 -7 6 -2 -11
11 -37 28 -58 29 -61 7 -65 -15 -3 -15 -5 -3 -9 23 -10 63 8 53 23 -13 21 -32
100 -33 136 0 17 -4 32 -10 32 -5 0 -10 4 -10 9 0 4 11 6 25 3 22 -4 25 -9 25
-52 0 -47 35 -150 51 -150 12 0 13 -4 -16 65 -27 65 -30 92 -15 115 9 13 12
12 25 -4 11 -14 15 -16 15 -5 1 10 3 9 11 -3 15 -26 32 -23 18 3 -7 14 -7 19
0 15 6 -4 18 -22 27 -41 21 -45 31 -44 26 1 -5 44 8 42 41 -6 13 -19 29 -34
35 -33 10 2 42 -66 42 -92 0 -29 44 -10 55 23 5 18 13 32 18 32 4 0 5 -4 2
-10 -3 -5 1 -10 9 -10 21 0 20 -6 -9 -44 -14 -18 -25 -41 -25 -52 0 -25 23
-69 35 -69 14 -1 52 -24 39 -25 -5 0 -15 5 -22 12 -7 7 -12 8 -12 4 0 -13 33
-35 52 -36 10 0 23 -10 29 -22 15 -28 -5 -43 -69 -51 -26 -3 -73 -17 -106 -32
-58 -26 -58 -26 -102 15 -42 38 -64 49 -64 32 0 -5 12 -14 26 -21 15 -6 24
-15 20 -18 -3 -4 1 -15 10 -25 20 -22 6 -44 -41 -64 -30 -13 -30 -13 -5 -22
19 -7 30 -6 45 7 19 16 20 15 3 -4 -18 -22 -63 -31 -73 -15 -3 5 -26 -5 -50
-23 -24 -18 -56 -40 -70 -50 -15 -11 -24 -22 -21 -25 4 -3 16 4 29 15 31 29
59 42 101 47 36 4 36 4 20 -25 -10 -19 -32 -37 -60 -50 -51 -21 -68 -24 -59
-9 4 6 -6 10 -24 10 -16 0 -33 -4 -36 -10 -3 -5 -11 -10 -16 -10 -6 0 -7 5 -4
10 4 7 -2 9 -17 5 -156 -36 -155 -34 -8 -28 74 3 140 9 145 14 6 4 17 4 25 -1
17 -10 33 -3 24 12 -4 6 1 8 13 4 21 -7 38 9 82 74 24 35 24 35 -7 6 -18 -16
-34 -27 -37 -25 -7 7 33 49 48 50 31 3 68 17 134 52 45 23 52 35 9 16 -27 -13
-76 0 -76 20 0 8 130 61 151 61 6 0 7 -5 4 -11 -5 -7 5 -9 26 -7 26 2 35 8 37
26 4 24 17 29 25 10 3 -7 6 0 6 15 1 16 -3 26 -8 23 -5 -3 -32 19 -60 49 -53
56 -67 105 -41 145 6 10 10 11 10 3 0 -7 7 -13 16 -13 11 0 15 -6 11 -19 -7
-28 20 -61 50 -61 21 0 23 2 13 15 -10 12 -9 16 4 21 22 8 -7 44 -36 44 -22 0
-23 16 -3 36 13 14 16 13 23 -7 9 -22 9 -22 25 2 9 13 17 18 17 12 0 -7 11
-24 24 -38 14 -15 23 -32 20 -39 -7 -17 38 -29 47 -14 10 15 -29 91 -41 83 -5
-3 -8 0 -5 7 8 22 -13 46 -25 28 -8 -13 -10 -13 -10 2 0 23 16 31 32 15 12
-11 63 -37 73 -37 3 0 5 5 5 10 0 6 -9 10 -19 10 -11 0 -22 4 -25 8 -7 12 56
2 72 -11 10 -8 16 -7 22 2 5 10 9 10 15 1 4 -7 -1 -14 -15 -17 -32 -8 -22 -45
18 -64 46 -21 65 -59 31 -59 -6 0 -7 5 -4 10 3 6 1 10 -4 10 -6 0 -11 -4 -11
-10 0 -5 -5 -10 -11 -10 -5 0 -7 5 -4 10 3 6 -1 10 -9 10 -10 0 -13 -6 -10
-15 4 -8 2 -15 -4 -15 -14 0 -23 28 -12 35 6 4 3 16 -6 30 -9 13 -13 29 -9 35
3 5 1 10 -4 10 -15 0 -14 -33 1 -48 9 -9 7 -13 -6 -18 -30 -12 19 -54 55 -47
15 3 41 1 56 -4 17 -6 52 -7 88 -2 52 7 64 6 87 -11 67 -49 178 3 178 84 0 27
2 28 34 23 21 -3 36 -1 38 5 3 8 9 8 19 3 8 -5 19 -11 24 -12 43 -10 119 -43
136 -59 20 -18 20 -18 -38 -48 -38 -19 -82 -31 -128 -36 -38 -4 -71 -13 -73
-19 -2 -6 -10 -11 -18 -11 -9 0 -12 -5 -9 -10 3 -6 17 -7 30 -4 12 3 26 1 29
-5 4 -6 2 -11 -4 -11 -6 0 -8 -4 -5 -10 3 -6 -1 -7 -10 -3 -13 5 -14 7 -3 14
9 6 9 9 1 9 -26 0 -22 -20 7 -35 38 -20 57 -49 66 -102 9 -57 -11 -57 -55 -3
-17 22 -28 40 -22 40 5 0 16 3 25 6 10 4 16 1 16 -9 0 -9 5 -19 10 -22 15 -9
11 17 -6 40 -10 14 -17 16 -22 8 -15 -24 -39 -16 -99 30 -54 41 -153 94 -153
82 0 -3 -18 5 -40 16 -23 12 -43 20 -45 17 -2 -2 12 -13 33 -23 20 -11 40 -24
44 -30 5 -6 8 -6 8 2 0 7 7 10 16 6 10 -4 12 -8 5 -13 -7 -4 -1 -11 14 -18 15
-7 31 -10 36 -6 12 7 41 -15 33 -27 -3 -5 3 -6 12 -2 12 4 15 3 10 -5 -4 -7
-3 -12 3 -12 5 0 13 -9 16 -21 4 -13 12 -18 22 -15 38 15 124 -109 96 -137 -8
-8 -62 52 -104 116 -32 48 -41 57 -36 35 1 -9 -11 -12 -40 -11 -42 1 -103 37
-123 72 -4 9 -12 13 -15 9 -4 -4 10 -22 31 -40 59 -50 94 -90 88 -100 -3 -5
-12 -4 -19 2 -7 6 -17 9 -21 8 -9 -3 -84 40 -84 48 0 6 14 -2 54 -30 16 -11
26 -15 22 -8 -4 6 -27 26 -52 42 -24 17 -56 42 -70 55 -32 29 -44 31 -45 8 0
-14 -2 -15 -6 -3 -3 8 -12 19 -19 23 -8 4 -14 12 -14 17 0 9 64 -10 104 -32
13 -7 17 -6 14 2 -2 7 -24 19 -48 29 -54 20 -104 48 -138 79 -27 24 -58 28
-82 11 -11 -7 -5 -8 21 -3 21 3 39 1 43 -4 3 -5 -9 -13 -27 -16 -27 -5 -38
-16 -66 -69 -45 -82 -65 -101 -99 -93 -20 5 -23 4 -12 -4 13 -8 12 -10 -4 -10
-11 0 -17 -2 -14 -5 10 -11 88 8 88 20 0 17 28 27 36 13 4 -7 2 -14 -4 -16
-19 -6 -14 -18 8 -18 12 0 19 5 16 12 -15 38 -18 87 -6 79 8 -5 11 -4 6 3 -12
20 56 80 80 71 35 -13 37 -27 11 -80 -13 -27 -20 -49 -16 -49 4 0 18 22 31 50
25 54 43 60 43 14 1 -73 -49 -123 -110 -112 -33 7 -166 -17 -207 -36 -18 -9
-44 -17 -57 -18 -13 -2 -34 -12 -46 -23 -12 -11 -38 -33 -59 -48 -21 -16 -35
-31 -33 -34 3 -2 26 12 53 32 27 21 55 35 65 32 10 -3 16 0 13 7 -10 26 162
75 263 76 34 0 73 5 87 11 26 12 76 5 76 -11 0 -6 -17 -8 -43 -4 -23 4 -39 4
-36 0 4 -4 30 -10 58 -15 37 -6 49 -5 42 2 -15 15 -14 31 4 74 15 36 15 36 38
12 13 -13 22 -27 20 -31 -2 -4 6 -12 17 -18 11 -6 20 -20 20 -30 0 -24 -10
-25 -36 -4 -17 14 -17 15 -1 10 11 -3 16 -2 12 4 -9 15 -42 12 -42 -4 0 -8 13
-20 29 -27 45 -18 186 -165 199 -206 2 -7 33 14 72 48 39 35 73 59 81 56 11
-4 14 3 12 29 -3 32 -1 34 28 34 29 -1 66 -19 66 -34 0 -3 -9 -6 -20 -6 -10 0
-34 -13 -52 -28 -38 -32 -165 -126 -220 -162 -21 -14 -38 -28 -38 -32 0 -12
14 -10 28 4 14 14 19 15 147 28 55 6 110 12 123 15 16 4 22 1 22 -13 0 -10 5
-23 11 -29 13 -13 -6 -57 -21 -48 -5 3 -20 -1 -33 -10 -16 -10 -60 -18 -127
-22 -102 -6 -103 -6 -98 15 3 12 -1 29 -8 39 -14 17 -14 17 -12 -1 2 -12 -4
-20 -15 -22 -26 -4 -34 -14 -12 -14 14 0 16 -3 8 -11 -8 -8 -28 -9 -60 -4 -41
7 -44 9 -23 15 19 5 12 7 -25 8 -28 0 -57 -3 -65 -8 -11 -7 -3 -10 25 -10 29
0 36 -3 25 -10 -8 -5 -22 -7 -31 -4 -9 2 -31 -7 -48 -22 -28 -24 -33 -25 -60
-13 -18 8 -26 16 -19 20 6 4 -1 6 -16 6 -24 -2 -25 -3 -9 -14 59 -41 50 -59
-20 -38 -40 12 -47 12 -47 0 0 -7 -2 -20 -5 -27 -4 -9 5 -20 20 -28 18 -10 22
-16 13 -22 -34 -21 52 -5 91 17 24 14 38 19 31 10 -7 -8 -10 -22 -6 -30 4 -11
-1 -15 -17 -15 -12 0 -42 -6 -67 -14 -45 -13 -45 -13 0 -21 40 -6 126 -52 117
-62 -2 -2 -20 4 -40 12 -20 8 -49 15 -65 15 -29 0 -62 26 -62 48 0 7 -10 12
-22 12 -21 -1 -21 -2 -5 -11 24 -14 21 -48 -5 -59 -19 -7 -20 -9 -4 -9 12 -1
16 -6 12 -17 -3 -8 -2 -12 4 -9 15 9 12 -39 -3 -54 -10 -11 -7 -12 13 -6 19 5
21 4 10 -4 -8 -6 -21 -11 -29 -11 -8 0 -22 -7 -31 -15 -14 -13 -18 -12 -33 5
-9 11 -12 20 -7 20 6 0 10 5 10 11 0 6 -7 9 -15 5 -12 -4 -15 3 -15 33 0 23
-8 48 -20 64 -30 38 -29 127 3 127 12 0 33 3 47 6 24 5 24 5 6 -10 -11 -9 -14
-16 -8 -16 22 0 12 -31 -18 -57 -17 -13 -30 -30 -30 -36 0 -6 15 4 34 22 18
17 42 33 53 34 15 1 20 8 19 23 0 12 -5 20 -9 17 -5 -3 -11 5 -14 16 -5 20
-10 21 -72 15 -66 -7 -66 -7 -47 15 11 11 17 24 14 27 -3 3 -23 -16 -44 -42
-34 -41 -39 -54 -38 -96 1 -57 -2 -59 -14 -14 -7 25 -5 50 8 97 19 71 38 82
101 60 18 -6 29 -6 29 0 0 5 11 9 25 9 28 0 31 -9 13 -29 -11 -11 -10 -12 1
-6 9 5 19 2 27 -10 8 -10 17 -15 21 -10 5 4 2 10 -4 12 -23 8 -15 51 10 55 12
2 -23 2 -78 0 -55 -2 -131 -4 -170 -5 -38 0 -53 -2 -32 -5 20 -2 35 -8 32 -13
-4 -5 -11 -6 -17 -3 -7 5 -8 2 -3 -6 5 -8 9 -37 9 -65 1 -46 -2 -53 -39 -88
-22 -21 -31 -34 -20 -29 11 6 29 20 39 31 26 29 28 27 49 -24 11 -25 22 -45
26 -45 4 0 13 -11 19 -24 6 -14 34 -35 66 -51 46 -22 54 -30 45 -41 -10 -12
-9 -13 5 -8 10 4 24 -2 37 -17 17 -20 18 -21 10 -4 -14 29 3 52 44 59 19 4 54
22 78 40 60 46 75 49 135 28 72 -26 72 -24 6 -90 -53 -53 -86 -74 -149 -97
-12 -4 -15 -9 -8 -12 7 -2 22 1 34 7 17 10 23 9 30 -1 9 -16 14 -14 48 12 28
23 49 25 31 4 -7 -8 -16 -12 -21 -9 -5 3 -9 1 -9 -4 0 -5 -24 -22 -54 -38 -57
-30 -70 -44 -20 -22 38 16 123 70 153 97 13 12 30 21 37 21 7 0 12 8 11 18 -1
18 -41 23 -68 7 -11 -7 -12 -6 -2 6 31 38 163 45 163 10 0 -28 -148 -172 -207
-201 -24 -12 -41 -25 -39 -28 2 -4 -6 -7 -17 -8 -12 -1 -56 -9 -97 -19 -90
-20 -279 -23 -336 -5 -154 50 -324 216 -324 317 0 10 -6 25 -12 32 -18 17 -14
189 4 208 12 11 14 0 10 -76 -4 -92 8 -150 48 -231 22 -43 94 -126 124 -142
11 -6 -3 14 -32 45 -80 85 -116 171 -118 277 -3 141 0 150 52 150 43 0 58 -12
29 -24 -11 -4 -14 -19 -11 -63 5 -76 16 -124 27 -117 5 3 9 -6 9 -20 0 -13 7
-32 16 -40 8 -9 13 -16 10 -16 -3 0 2 -8 12 -19 9 -10 33 -36 51 -57 19 -22
35 -37 35 -34 1 3 15 -4 31 -16 46 -32 118 -55 186 -60 34 -3 70 -9 80 -15 10
-5 24 -9 31 -9 26 0 -48 32 -82 35 -19 2 -38 3 -42 4 -4 1 -5 9 -1 19 5 15 4
15 -9 -2 -25 -32 -136 14 -210 88 -46 45 -112 161 -103 177 3 5 1 18 -5 29 -9
17 -7 22 12 30 17 6 19 9 6 9 -27 1 -27 48 0 69 14 11 14 12 0 12 -9 0 -15 8
-14 18 1 14 -9 18 -54 22 -48 4 -51 6 -24 12 16 4 47 3 67 -2 20 -4 35 -4 32
0 -3 5 3 10 12 13 11 2 8 4 -7 4 -120 0 -130 2 -130 26 0 13 6 29 13 37 8 10
5 9 -13 -2 -14 -8 -27 -24 -29 -34 -2 -10 -14 -34 -27 -54 -25 -36 -32 -66
-13 -54 8 4 9 -1 3 -17 -12 -36 -10 -175 3 -190 6 -8 14 -31 18 -52 5 -23 23
-57 46 -83 22 -25 39 -49 39 -53 0 -19 153 -123 221 -152 72 -30 77 -31 194
-26 116 5 302 37 314 55 3 4 22 19 41 32 65 45 161 134 177 164 9 16 22 36 29
44 8 7 14 22 14 32 0 10 6 25 14 33 10 10 12 23 6 48 -6 27 -8 29 -9 9 -2 -50
-31 -108 -52 -103 -10 3 -19 9 -19 12 0 4 -6 8 -13 8 -7 0 -33 9 -58 20 -24
12 -55 26 -69 31 -25 11 -25 11 5 11 17 1 41 8 53 17 21 15 22 14 12 -11 -13
-33 -13 -38 0 -30 6 3 10 1 10 -5 0 -7 6 -8 19 -1 21 12 51 79 52 119 0 24 1
25 10 7 7 -15 8 -10 4 20 -14 127 -13 140 20 140 30 -1 30 -1 32 -68 1 -37 -2
-65 -7 -62 -5 3 -8 -3 -7 -14 2 -27 37 -36 37 -10 0 32 26 21 37 -16 14 -43
-8 -71 -27 -35 -6 12 -14 20 -16 17 -8 -8 39 -96 48 -91 4 3 10 -1 13 -8 3 -8
23 -25 45 -38 22 -14 40 -30 40 -37 0 -7 5 -13 11 -13 5 0 7 6 3 13 -7 12 45
-30 57 -46 3 -5 9 -2 12 7 4 10 1 16 -7 16 -7 0 -19 6 -25 14 -9 11 -4 13 24
11 38 -2 44 5 20 25 -18 15 -69 115 -79 155 -7 29 -7 29 23 -5 17 -19 31 -30
31 -23 0 6 -4 15 -10 18 -5 3 -10 11 -10 17 0 6 10 3 21 -8 21 -19 21 -19 0
16 -22 37 -28 70 -11 70 6 0 10 -7 10 -16 0 -11 5 -14 16 -10 9 3 19 6 24 6 5
0 6 16 3 35 -4 25 -2 35 8 35 20 0 -23 29 -44 30 -10 0 -16 4 -13 8 3 5 -8 9
-25 9 -16 0 -25 -3 -19 -7 15 -9 -27 -21 -46 -13 -23 9 -7 20 48 34 29 6 60
17 69 22 19 12 49 3 49 -14 0 -7 -9 -9 -24 -5 -30 7 -40 -3 -18 -20 20 -16 36
-18 27 -4 -3 6 3 10 14 10 12 0 21 -7 21 -16 0 -8 -4 -12 -10 -9 -14 9 -12 -8
3 -26 19 -24 53 -47 43 -30 -6 9 -5 12 5 9 16 -5 56 -73 64 -110 4 -18 11 -25
21 -21 10 4 11 9 5 17 -5 6 -15 25 -21 41 -10 29 -9 28 25 -10 20 -22 47 -56
60 -77 13 -20 29 -39 35 -43 6 -4 -5 18 -24 48 -34 53 -32 84 3 50 14 -15 31
-3 31 22 0 6 -4 4 -9 -4 -7 -10 -12 -8 -25 10 -12 17 -16 19 -16 7 0 -31 -28
-27 -57 10 -68 87 -76 112 -37 112 14 0 23 -4 20 -8 -2 -4 0 -14 5 -22 9 -13
10 -13 8 0 -3 30 1 50 11 50 6 0 10 -7 10 -15 0 -9 9 -15 25 -15 14 0 25 5 25
10 0 6 12 15 28 21 15 7 22 13 15 16 -15 6 -17 33 -3 33 6 0 15 -11 20 -25 6
-16 14 -23 25 -19 8 4 15 1 15 -7 0 -7 3 -10 6 -6 3 3 2 12 -2 19 -24 39 -8
36 27 -5 37 -42 69 -54 69 -25 0 7 -5 7 -13 0 -18 -15 -97 83 -97 121 0 15 -2
27 -4 27 -12 0 -96 -53 -96 -61 0 -5 -7 -9 -15 -9 -16 0 -38 -34 -28 -44 3 -3
1 -6 -5 -6 -7 0 -12 4 -12 10 0 11 -51 -9 -62 -25 -5 -6 -8 -6 -8 0 0 6 -5 3
-10 -5 -8 -13 -11 -13 -26 2 -19 19 11 42 146 110 104 53 124 76 118 139 -5
46 -4 49 16 44 19 -6 19 -5 4 8 -10 8 -13 18 -9 26 10 16 18 5 31 -39 6 -21 4
-32 -6 -41 -8 -6 -14 -20 -14 -30 0 -18 1 -18 18 -1 10 9 26 22 36 27 14 9 15
17 7 62 -13 68 -6 91 20 67 20 -18 19 -18 23 26 1 8 5 30 10 48 8 34 8 34 32
11 27 -25 32 -15 8 19 -8 12 -11 22 -6 22 5 0 15 -14 23 -31 11 -28 10 -33 -5
-44 -16 -12 -15 -13 1 -20 12 -5 14 -9 6 -12 -20 -7 -15 -23 8 -23 11 0 17 -4
14 -10 -3 -5 -2 -10 3 -10 24 0 29 62 7 80 -22 18 -19 43 8 68 32 30 50 28
125 -14 42 -24 63 -31 59 -22 -3 9 -1 20 4 25 5 5 20 29 33 53 13 25 29 46 35
48 14 5 3 -27 -18 -51 -8 -10 -16 -23 -17 -30 -4 -25 -66 -187 -73 -191 -4 -3
-6 8 -3 23 7 51 -24 47 -49 -7 -54 -120 -53 -115 -23 -95 26 17 26 17 19 -18
-11 -53 -23 -69 -53 -70 -23 -2 -24 -2 -4 -6 12 -2 22 -11 22 -20 0 -11 -7
-14 -25 -11 -30 6 -34 -7 -5 -15 21 -5 25 -23 11 -46 -7 -11 -13 -10 -33 3
-22 14 -24 14 -37 -6 -12 -19 -11 -20 13 -16 30 6 51 -14 42 -38 -5 -14 -4
-15 9 -4 23 19 20 -1 -16 -105 -31 -92 -51 -125 -76 -125 -21 0 -16 15 28 87
24 38 37 69 30 71 -6 2 -9 21 -7 45 2 23 2 33 -1 22 -2 -11 -8 -29 -12 -40 -5
-11 -19 -49 -30 -85 -12 -36 -26 -77 -31 -92 -7 -23 -6 -28 8 -28 40 0 72 44
107 150 20 58 43 126 52 152 12 37 21 48 37 48 12 0 40 11 64 25 23 13 42 23
42 22 0 -1 -5 -18 -11 -37 -16 -53 -18 -201 -2 -219 7 -9 20 -25 29 -36 16
-20 16 -20 9 0 -7 22 73 -57 100 -99 48 -73 255 -89 390 -32 58 25 65 37 8 15
-63 -24 -123 -34 -213 -34 -107 0 -149 17 -183 74 -10 17 -24 31 -30 31 -14 0
-42 40 -39 55 1 6 -8 12 -20 12 -13 1 -28 10 -35 19 -17 24 -16 44 1 22 7 -10
19 -18 27 -18 12 0 12 2 0 9 -11 7 -12 25 -6 87 4 44 9 89 10 102 1 12 7 28
13 34 7 7 12 19 12 29 0 50 59 145 120 193 86 66 91 47 14 -53 -62 -80 -78
-110 -51 -95 7 4 9 3 4 -2 -5 -5 -14 -9 -20 -9 -7 0 -13 -9 -15 -20 -3 -16 -1
-18 9 -7 29 27 38 14 22 -35 -19 -63 -18 -196 1 -231 8 -15 19 -37 25 -49 22
-49 124 -104 188 -102 34 1 33 2 -14 9 -58 9 -131 52 -149 89 -7 13 -16 26
-21 30 -25 17 -43 141 -20 141 6 0 37 16 67 35 61 38 68 35 68 -32 0 -46 1
-45 -97 -84 -13 -5 -21 -12 -18 -15 2 -3 33 7 67 21 44 19 66 23 73 16 6 -6 7
-11 2 -11 -5 0 7 -8 27 -19 40 -20 90 -18 82 4 -8 19 12 28 35 16 26 -15 121
79 121 119 0 44 -37 106 -91 151 -36 30 -48 36 -40 21 6 -12 22 -27 34 -34 12
-7 23 -21 23 -31 2 -14 -1 -15 -12 -6 -8 7 -12 14 -9 17 3 3 -8 13 -23 22 -21
13 -36 37 -55 91 -34 94 -36 89 23 89 134 0 198 -89 187 -261 -5 -84 -37 -175
-67 -194 -5 -3 -10 -11 -10 -17 0 -6 9 -3 21 8 12 10 24 18 28 18 11 -2 42
108 47 171 6 60 14 88 14 45 0 -13 7 -31 15 -40 17 -19 -13 -167 -34 -163 -10
3 -15 -11 -12 -31 3 -15 -32 -46 -52 -46 -19 0 -20 1 -2 20 17 18 8 30 -9 13
-4 -5 -13 -8 -19 -8 -7 0 -11 -8 -11 -18 1 -9 -2 -14 -7 -12 -4 3 -12 -3 -18
-12 -6 -10 -11 -14 -11 -9 0 5 -9 -3 -20 -16 -18 -23 -64 -41 -130 -51 -23 -4
-23 -4 4 -6 46 -2 107 20 159 57 35 25 47 30 47 18 0 -9 -6 -16 -13 -16 -7 0
-18 -9 -25 -20 -23 -38 4 -20 73 48 38 37 65 61 61 55 -4 -7 -2 -13 3 -13 6 0
11 3 12 8 0 4 2 25 3 47 5 62 18 118 32 140 14 19 14 19 14 -3 0 -14 4 -20 10
-17 15 10 2 -44 -21 -80 -18 -29 -18 -29 48 -57 86 -37 105 -35 24 2 -69 32
-67 26 -36 110 50 134 -16 330 -135 403 -19 11 -38 25 -41 30 -4 5 -17 7 -30
5 -20 -2 -17 -7 26 -27 108 -51 166 -134 179 -257 6 -54 -22 -50 -62 8 -15 22
-35 49 -44 59 -10 11 -15 19 -12 19 3 0 -5 14 -17 32 -13 17 -18 28 -11 24 16
-10 15 5 -3 28 -13 17 -15 18 -15 3 0 -21 -9 -21 -38 -1 -14 10 -49 17 -90 19
-37 2 -70 4 -73 4 -4 1 -12 14 -19 30 -14 36 8 78 47 87 50 13 173 -2 203 -25
32 -23 50 -27 50 -10 0 5 -4 7 -10 4 -5 -3 -10 -2 -10 3 0 15 -76 42 -139 49
-67 6 -126 -9 -141 -38 -11 -19 -46 -25 -65 -11 -46 33 -23 110 24 80 12 -7
21 -16 21 -20 0 -5 5 -8 12 -8 6 0 0 13 -15 28 -15 15 -27 35 -27 44 0 9 -4
19 -9 22 -5 3 -14 20 -20 36 -15 45 3 27 40 -38 39 -68 37 -67 45 -59 3 3 -1
15 -9 27 -19 28 -11 73 13 65 9 -3 28 -1 41 5 24 10 24 10 -1 6 -35 -7 -54 7
-45 33 3 11 11 21 16 21 6 0 8 -4 4 -9 -3 -5 9 -11 27 -13 24 -2 33 -8 32 -20
-1 -13 6 -18 24 -18 25 0 25 1 6 14 -19 15 -18 16 9 64 30 56 34 70 12 52 -12
-10 -16 -9 -21 3 -8 23 5 40 28 34 13 -4 18 -1 15 7 -11 29 8 80 33 87 25 6
25 6 1 16 -16 6 -20 12 -13 17 7 4 12 4 12 1 0 -4 12 3 26 14 15 12 32 21 39
21 6 0 20 9 30 20 10 11 29 20 42 20 31 0 42 -29 18 -46 -38 -28 -70 -94 -45
-94 6 0 10 9 10 19 0 34 50 85 67 68 12 -12 12 -25 2 -81 -13 -68 -13 -68 -46
-61 -27 5 -32 3 -27 -10 3 -8 3 -15 0 -15 -4 0 -12 14 -17 30 -8 22 -17 30
-34 30 -13 0 -30 3 -38 6 -12 4 -15 -2 -13 -33 2 -30 -4 -45 -26 -71 -44 -52
-31 -122 23 -122 13 0 38 -1 54 -3 17 -3 22 -2 12 0 -24 6 -11 23 17 23 22 0
23 -2 15 -42 -13 -71 -11 -88 14 -97 38 -14 87 -21 87 -12 0 5 -19 11 -41 14
-23 3 -45 9 -50 14 -6 6 17 211 24 220 1 1 22 -2 47 -7 29 -5 50 -4 58 2 9 8
12 6 12 -5 0 -18 52 -17 58 1 4 14 53 0 65 -19 7 -11 5 -53 -4 -125 -16 -121
-13 -119 -98 -101 -49 10 -29 -5 25 -19 60 -15 69 -5 82 86 24 163 25 186 8
203 -9 8 -16 19 -16 23 0 4 -7 12 -17 19 -20 15 -11 44 14 41 10 -2 12 -1 6 1
-7 3 -13 9 -13 14 0 6 4 8 8 5 5 -3 9 2 9 10 0 11 -7 14 -25 9 -25 -6 -56 23
-57 54 0 8 -6 16 -12 18 -14 5 -18 -33 -5 -41 18 -11 0 -77 -24 -86 -13 -5
-24 -16 -24 -25 0 -8 -5 -15 -11 -15 -5 0 -7 5 -3 11 4 8 1 8 -12 1 -18 -9
-19 -6 -15 41 2 29 6 46 8 40 9 -25 23 -12 23 21 0 23 -7 38 -21 48 -16 10
-20 20 -15 36 7 21 13 22 108 22 56 0 99 3 96 6 -3 3 -24 5 -47 6 -23 0 -41 4
-41 9 0 5 7 9 15 9 8 0 15 4 15 8 0 5 10 14 23 20 19 10 18 11 -13 6 -19 -2
-45 -9 -57 -16 -19 -9 -26 -8 -41 5 -11 10 -34 17 -58 16 -36 0 -37 -1 -14
-10 14 -6 32 -8 42 -6 16 5 33 -18 23 -32 -2 -4 -31 -6 -63 -4 -48 3 -63 0
-86 -18 -16 -12 -51 -34 -80 -48 -51 -26 -51 -26 -74 23 -27 59 -18 76 39 74
37 -1 59 -28 23 -28 -8 0 -22 -7 -30 -15 -9 -8 -11 -15 -5 -15 5 0 12 4 16 9
3 5 19 12 35 16 30 7 52 33 57 70 2 18 1 18 -17 -4 -29 -34 -130 -35 -160 0
-21 24 -21 24 -6 -8 13 -25 13 -32 2 -36 -9 -4 -16 9 -23 39 -9 38 -8 44 4 40
8 -3 13 -1 11 5 -2 6 -36 11 -80 12 -42 1 -74 -1 -71 -5 2 -5 19 -8 36 -9 65
-2 80 -12 92 -59 31 -121 46 -111 -149 -104 -173 7 -173 7 -196 -24 -27 -36
-70 -57 -100 -47 -20 6 -20 8 10 45 19 24 43 41 63 46 17 4 26 9 19 11 -29 11
-121 -47 -193 -122 -72 -75 -57 3 17 85 37 40 37 40 30 116 -7 75 -7 75 165
69 95 -3 176 -8 181 -11 4 -3 8 -1 8 4 0 6 -15 12 -32 14 -18 3 -42 9 -52 13
-14 6 -17 5 -11 -4 6 -10 0 -12 -21 -7 -16 3 -63 6 -104 7 -113 1 -150 8 -150
27 0 12 3 13 12 4 7 -7 24 -12 38 -12 26 0 26 1 20 48 -7 59 -18 80 -32 61 -5
-9 -6 -4 -2 14 4 17 2 27 -5 27 -6 0 -11 7 -11 16 0 14 2 15 17 3 14 -12 16
-12 11 1 -5 17 -33 25 -41 13z m-92 -210 c-27 -2 -54 -8 -59 -14 -16 -15 -29
-10 -16 6 9 11 29 14 69 13 56 -2 56 -2 6 -5z m-1947 -79 c2 -20 6 -42 9 -48
4 -7 2 -7 -6 0 -15 14 -29 100 -15 91 6 -3 11 -22 12 -43z m56 -39 c18 -28 20
-35 7 -35 -5 0 -13 9 -16 20 -4 11 -11 18 -16 15 -5 -4 -9 1 -9 9 0 23 16 19
34 -9z m2676 21 c0 -3 -5 -8 -12 -12 -7 -4 -8 -3 -4 4 7 12 16 16 16 8z m-140
-46 c9 -16 8 -18 -5 -14 -8 4 -15 12 -15 20 0 20 7 17 20 -6z m377 14 c-3 -3
-12 -4 -19 -1 -8 3 -5 6 6 6 11 1 17 -2 13 -5z m-3060 -41 c-4 -3 -7 0 -7 7 0
7 3 10 7 7 3 -4 3 -10 0 -14z m140 0 c-4 -3 -10 -3 -14 0 -3 4 0 7 7 7 7 0 10
-3 7 -7z m77 -29 c8 -21 -12 -17 -24 6 -8 16 -8 18 4 14 8 -3 17 -12 20 -20z
m126 17 c0 -5 -7 -11 -15 -15 -9 -3 -15 0 -15 9 0 8 7 15 15 15 8 0 15 -4 15
-9z m-320 -20 c0 -4 -7 -8 -15 -8 -16 0 -20 9 -9 20 8 8 24 -1 24 -12z m80 3
c0 -8 -4 -12 -10 -9 -5 3 -10 10 -10 16 0 5 5 9 10 9 6 0 10 -7 10 -16z m2620
-17 c0 -5 -4 -5 -10 -2 -5 3 -10 14 -10 23 0 15 2 15 10 2 5 -8 10 -19 10 -23z
m-1975 13 c3 -5 1 -10 -4 -10 -6 0 -11 5 -11 10 0 6 2 10 4 10 3 0 8 -4 11
-10z m1780 -10 c-51 -13 3 -16 91 -6 22 2 47 0 55 -6 10 -7 7 -7 -10 -3 -15 5
-21 3 -17 -3 3 -6 0 -13 -6 -15 -8 -3 -5 -6 5 -6 13 -1 17 -6 12 -20 -3 -11
-1 -22 5 -26 16 -10 12 -38 -4 -32 -16 6 -12 -16 6 -40 6 -7 7 -16 4 -21 -3
-6 4 -12 15 -15 30 -8 15 -25 -16 -19 -16 3 -24 10 -21 18 3 7 0 11 -7 8 -7
-2 -30 12 -51 32 -25 23 -43 33 -54 29 -9 -3 -13 -3 -10 1 9 8 -11 28 -37 38
-15 5 -16 9 -6 15 8 5 -3 9 -30 9 -24 0 -37 -3 -29 -5 39 -14 81 -46 70 -53
-9 -5 -5 -10 11 -15 13 -4 35 -16 49 -25 14 -9 38 -25 54 -35 54 -33 6 -38
-55 -6 -114 60 -135 69 -169 75 -19 3 -30 3 -24 -2 15 -9 23 -39 28 -93 2 -24
7 -60 10 -79 6 -28 3 -40 -14 -58 -28 -29 -36 -22 -20 18 20 49 -12 191 -37
166 -3 -3 -2 -11 3 -18 23 -31 36 -89 24 -103 -14 -17 -30 -11 -30 11 0 9 -12
31 -26 50 -21 27 -25 39 -18 61 7 27 8 26 17 -19 6 -26 16 -49 23 -52 9 -4 9
4 -2 30 -10 24 -12 40 -5 48 6 7 6 17 1 26 -5 8 -6 18 -4 22 6 9 14 43 19 73
1 11 7 19 13 18 5 -1 13 4 16 12 3 9 0 15 -7 15 -15 0 -72 -61 -73 -78 -2 -28
-5 -32 -24 -32 -24 0 -25 3 -3 38 29 47 71 81 105 84 62 6 206 -4 173 -12z
m-1699 -12 c2 -13 -3 -15 -19 -9 -30 11 -35 34 -7 29 13 -1 24 -11 26 -20z
m-506 -8 c0 -11 -3 -20 -8 -20 -4 0 -13 9 -20 20 -11 18 -10 20 8 20 13 0 20
-7 20 -20z m154 5 c3 -8 1 -15 -4 -15 -6 0 -10 7 -10 15 0 8 2 15 4 15 2 0 6
-7 10 -15z m296 -10 c0 -8 8 -15 18 -15 23 0 87 -35 85 -46 0 -5 4 -12 10 -16
7 -4 -4 -8 -23 -8 -19 0 -58 -3 -87 -6 -49 -6 -52 -6 -67 24 -21 41 0 62 42
41 45 -23 48 -23 28 0 -11 11 -26 21 -35 21 -14 0 -14 2 -1 10 21 14 30 12 30
-5z m-83 -22 c-4 -3 -7 0 -7 7 0 7 3 10 7 7 3 -4 3 -10 0 -14z m2027 -54 c-13
-21 -24 -6 -24 34 1 42 1 42 15 8 8 -18 12 -37 9 -42z m-2194 31 c0 -8 -62
-20 -69 -14 -2 2 7 12 20 23 23 18 49 13 49 -9z m34 15 c19 -15 19 -15 -1 -15
-11 0 -23 7 -27 15 -7 19 3 19 28 0z m1593 -18 c-13 -28 -37 -37 -37 -13 0 12
41 48 47 42 2 -1 -3 -14 -10 -29z m164 10 c-10 -9 -11 -8 -5 6 3 10 9 15 12
12 3 -3 0 -11 -7 -18z m416 1 c-3 -8 -6 -5 -6 6 -1 11 2 17 5 13 3 -3 4 -12 1
-19z m-2078 3 c11 -7 9 -17 -13 -52 -21 -35 -26 -40 -26 -21 0 12 -3 22 -7 23
-51 5 -63 4 -58 -9 2 -7 1 -11 -4 -7 -5 3 -16 -2 -25 -11 -9 -8 -24 -13 -33
-10 -21 6 -48 -8 -41 -20 3 -5 2 -18 -3 -29 -6 -16 -8 -13 -8 16 -1 19 4 40
11 47 9 9 9 12 -1 12 -8 0 -20 -8 -27 -17 -13 -17 -13 -17 -14 0 0 9 5 17 10
17 6 0 10 12 10 27 0 25 1 25 13 9 13 -18 19 -18 81 -5 44 8 70 10 74 3 8 -11
52 -17 52 -7 0 4 -7 15 -17 25 -18 20 -1 26 26 9z m-299 -26 c14 -19 14 -19
-2 -6 -10 7 -18 18 -18 24 0 6 1 8 3 6 1 -2 9 -13 17 -24z m1878 5 c-13 -21
-29 -22 -35 -3 -4 10 11 17 40 22 4 0 2 -8 -5 -19z m-1228 -16 c13 -14 -32
-14 -80 2 -25 8 -25 8 5 14 37 7 61 2 75 -16z m2115 17 c3 -5 1 -12 -5 -16 -5
-3 -10 1 -10 9 0 18 6 21 15 7z m-1028 -28 c-4 -3 -7 0 -7 7 0 7 3 10 7 7 3
-4 3 -10 0 -14z m-1387 -3 c0 -5 -4 -10 -9 -10 -6 0 -13 5 -16 10 -3 6 1 10 9
10 9 0 16 -4 16 -10z m377 -7 c-4 -3 -7 0 -7 7 0 7 3 10 7 7 3 -4 3 -10 0 -14z
m98 -5 c15 -13 25 -32 24 -47 0 -26 0 -26 -10 -1 -14 33 -47 63 -64 56 -8 -3
-17 -1 -20 4 -12 19 45 9 70 -12z m1005 7 c-12 -15 -30 -12 -30 6 0 5 10 9 21
9 18 0 19 -2 9 -15z m920 -9 c0 -8 -7 -16 -15 -20 -12 -4 -13 -2 -2 14 14 24
17 25 17 6z m-2136 -27 c-3 -5 2 -6 10 -3 20 8 22 -29 4 -43 -22 -16 -62 -10
-66 10 -6 29 26 71 44 57 7 -7 11 -16 8 -21z m36 27 c0 -3 -4 -8 -10 -11 -5
-3 -10 -1 -10 4 0 6 5 11 10 11 6 0 10 -2 10 -4z m1154 -28 c7 -5 4 -8 -6 -8
-12 0 -18 7 -17 23 0 15 2 17 6 7 3 -8 11 -18 17 -22z m42 15 c-4 -9 -1 -20 6
-25 8 -5 9 -8 2 -8 -17 0 -37 27 -29 40 10 17 28 11 21 -7z m-1336 3 c0 -11
-19 -15 -25 -6 -3 5 1 10 9 10 9 0 16 -2 16 -4z m299 -10 c38 -24 30 -139 -11
-152 -16 -5 -18 -8 -7 -15 19 -12 6 -11 -25 1 -17 6 -27 6 -32 -1 -4 -8 -9 -7
-15 2 -4 8 -3 19 3 26 12 15 4 17 -20 4 -9 -4 -37 -11 -62 -15 -43 -7 -44 -6
-28 11 46 49 58 64 58 71 0 4 6 20 13 35 13 29 37 37 37 12 0 -8 -7 -15 -15
-15 -19 0 -19 -7 0 -26 19 -19 75 7 75 35 0 29 -13 33 -27 9 -12 -23 -12 -23
-13 5 0 26 3 28 29 24 17 -3 34 -8 40 -11z m-1041 -21 c-3 -3 -9 2 -12 12 -6
14 -5 15 5 6 7 -7 10 -15 7 -18z m2818 8 c0 -10 -7 -21 -15 -24 -8 -3 -20 -21
-27 -40 -16 -45 -18 -10 -2 41 13 41 47 58 44 23z m-2036 -24 c0 -6 -7 -6 -20
1 -11 6 -20 15 -20 21 0 6 7 6 20 -1 11 -6 20 -15 20 -21z m1973 -21 c-3 -15
-10 -25 -15 -22 -6 4 -8 -2 -4 -14 5 -14 0 -27 -16 -42 -20 -18 -23 -19 -26
-5 -6 29 7 62 26 67 15 4 18 12 14 39 -4 30 -3 32 11 19 10 -10 14 -25 10 -42z
m-2266 25 c-4 -3 -7 0 -7 7 0 7 3 10 7 7 3 -4 3 -10 0 -14z m1211 -23 c14 -35
14 -35 -10 -13 -52 49 -104 35 -133 -34 -13 -31 -35 -45 -35 -23 0 20 40 89
57 99 10 6 38 10 62 8 41 -2 46 -5 59 -37z m299 33 c-4 -3 -10 -3 -14 0 -3 4
0 7 7 7 7 0 10 -3 7 -7z m873 -3 c0 -5 -2 -10 -4 -10 -3 0 -8 5 -11 10 -3 6
-1 10 4 10 6 0 11 -4 11 -10z m-2129 -11 c11 -5 17 -14 14 -19 -8 -13 -45 0
-45 16 0 17 5 17 31 3z m1569 -8 c0 -11 4 -23 10 -26 7 -5 28 -61 35 -95 0 -3
9 -17 19 -33 18 -26 18 -28 1 -47 -10 -11 -22 -20 -26 -20 -10 0 -35 89 -44
155 -3 28 -8 58 -11 68 -3 9 -1 17 5 17 6 0 11 -9 11 -19z m142 -75 c-2 -19
-9 -37 -16 -39 -13 -5 -77 61 -66 68 5 3 20 -9 35 -27 26 -33 26 -33 10 0 -14
29 -25 37 -47 33 -5 0 -9 4 -9 9 -3 20 -4 25 -12 37 -4 6 19 -2 51 -18 56 -28
58 -30 54 -63z m555 77 c-4 -3 -10 -3 -14 0 -3 4 0 7 7 7 7 0 10 -3 7 -7z
m-1847 -13 c0 -5 -7 -7 -15 -4 -8 4 -15 8 -15 10 0 2 7 4 15 4 8 0 15 -4 15
-10z m-580 -44 c0 -12 -5 -7 -19 24 -11 24 -11 24 3 6 9 -11 16 -24 16 -30z
m2127 37 c-4 -3 -10 -3 -14 0 -3 4 0 7 7 7 7 0 10 -3 7 -7z m-1923 -24 c27 22
61 17 64 -9 2 -23 1 -24 -11 -7 -19 23 -24 22 -23 -5 1 -14 -6 -24 -16 -26
-11 -2 -18 3 -18 13 0 9 -4 14 -9 11 -4 -3 -19 6 -32 20 -24 25 -24 25 6 10
17 -9 33 -12 39 -7z m1172 0 c7 -11 -12 -29 -31 -29 -5 1 -1 6 10 12 19 11 19
11 0 19 -16 6 -17 8 -3 8 9 1 20 -4 24 -10z m581 -6 c-4 -3 -10 -3 -14 0 -3 4
0 7 7 7 7 0 10 -3 7 -7z m139 -25 c-7 -34 -13 -44 -21 -36 -9 8 7 68 18 68 5
0 7 -13 3 -32z m-2196 11 c0 -5 -4 -8 -9 -4 -5 3 -13 -4 -16 -16 -6 -17 -9
-18 -16 -8 -9 15 7 39 27 39 8 0 14 -5 14 -11z m1564 -4 c-7 -18 7 -20 25 -2
11 10 13 9 7 -6 -4 -14 -1 -20 13 -24 19 -5 36 -31 26 -41 -2 -3 -12 1 -21 9
-16 13 -17 12 -12 -9 6 -20 3 -22 -15 -16 -12 3 -28 12 -36 18 -12 9 -13 8 -8
-7 4 -10 7 -23 7 -29 0 -6 7 -8 15 -4 9 3 15 0 15 -9 0 -8 -6 -15 -14 -15 -8
0 -17 -6 -19 -12 -3 -7 -6 -1 -6 15 -1 19 -6 27 -18 27 -15 0 -16 -2 -3 -10 8
-5 11 -12 7 -16 -3 -4 -14 -1 -23 7 -9 7 -33 12 -55 10 -21 -1 -39 2 -39 7 0
6 10 8 23 5 22 -5 22 -5 0 11 -13 10 -23 25 -23 34 1 16 2 16 14 0 7 -10 18
-18 23 -18 6 0 10 8 9 18 -1 13 5 16 28 14 17 -2 26 0 22 6 -8 13 34 3 53 -12
12 -9 12 -8 1 10 -12 19 -9 54 4 54 3 0 3 -7 0 -15z m596 -5 c0 -5 -5 -10 -11
-10 -5 0 -7 5 -4 10 3 6 8 10 11 10 2 0 4 -4 4 -10z m-773 -7 c-4 -3 -10 -3
-14 0 -3 4 0 7 7 7 7 0 10 -3 7 -7z m150 -10 c-4 -3 -10 -3 -14 0 -3 4 0 7 7
7 7 0 10 -3 7 -7z m-1660 -30 c-4 -3 -7 0 -7 7 0 7 3 10 7 7 3 -4 3 -10 0 -14z
m1510 10 c-4 -3 -10 -3 -14 0 -3 4 0 7 7 7 7 0 10 -3 7 -7z m-16 -13 c25 -14
24 -27 -1 -35 -35 -11 -62 3 -50 26 12 22 23 24 51 9z m380 -17 c-12 -20 -14
-14 -5 12 4 9 9 14 11 11 3 -2 0 -13 -6 -23z m66 -5 c-3 -7 -5 -2 -5 12 0 14
2 19 5 13 2 -7 2 -19 0 -25z m-1310 5 c-4 -3 -10 -3 -14 0 -3 4 0 7 7 7 7 0
10 -3 7 -7z m751 -11 c6 -18 -15 -14 -22 4 -4 10 -1 14 6 12 6 -2 14 -10 16
-16z m452 8 c0 -5 -5 -10 -11 -10 -5 0 -7 5 -4 10 3 6 8 10 11 10 2 0 4 -4 4
-10z m247 -7 c-4 -3 -7 0 -7 7 0 7 3 10 7 7 3 -4 3 -10 0 -14z m-752 -13 c-3
-5 -10 -10 -16 -10 -5 0 -9 5 -9 10 0 6 7 10 16 10 8 0 12 -4 9 -10z m455 -5
c-7 -8 -17 -15 -22 -15 -6 0 -5 7 2 15 7 8 17 15 22 15 6 0 5 -7 -2 -15z
m-291 -11 c2 -2 -16 -5 -40 -5 -24 -1 -62 -3 -83 -3 -22 -1 -41 -7 -44 -14 -5
-17 -22 -15 -22 2 0 14 52 32 67 23 5 -2 17 -1 28 4 18 7 84 2 94 -7z m433 -6
c-16 -16 -15 -41 1 -35 6 2 12 9 12 15 0 7 5 12 10 12 6 0 10 -6 10 -12 0 -7
6 -17 13 -21 6 -4 21 -26 32 -48 13 -25 27 -39 40 -39 10 0 22 -5 26 -12 5 -8
2 -9 -9 -5 -10 3 -17 2 -17 -3 0 -6 -5 -10 -11 -10 -17 0 -39 27 -39 47 0 26
-29 66 -30 41 0 -9 4 -28 10 -42 13 -36 4 -33 -15 4 -9 17 -29 42 -46 57 -29
26 -29 26 -7 50 12 12 24 21 27 18 2 -3 -1 -11 -7 -17z m-115 -5 c-4 -3 -7 0
-7 7 0 7 3 10 7 7 3 -4 3 -10 0 -14z m-982 -13 c-3 -5 0 -7 9 -4 15 6 102 -44
92 -53 -3 -3 -21 4 -41 16 -42 24 -52 27 -36 8 12 -16 72 -43 114 -51 39 -9
33 -23 -14 -36 -55 -15 -69 -11 -92 30 -10 19 -30 47 -43 61 -24 25 -23 39 3
39 8 0 11 -4 8 -10z m633 -21 c-3 -8 -7 -3 -11 10 -4 17 -3 21 5 13 5 -5 8
-16 6 -23z m52 22 c0 -5 -7 -11 -15 -15 -9 -3 -15 0 -15 9 0 8 7 15 15 15 8 0
15 -4 15 -9z m83 -3 c-17 -8 -29 -8 -45 0 -20 9 -18 11 22 11 40 0 42 -2 23
-11z m-1003 -18 c8 -5 11 -10 5 -10 -5 0 -17 5 -25 10 -8 5 -10 10 -5 10 6 0
17 -5 25 -10z m794 -6 c5 -14 4 -15 -9 -4 -17 14 -19 20 -6 20 5 0 12 -7 15
-16z m266 7 c0 -5 -9 -7 -20 -4 -11 3 -20 7 -20 9 0 2 9 4 20 4 11 0 20 -4 20
-9z m90 -1 c0 -5 -4 -10 -10 -10 -5 0 -10 5 -10 10 0 6 5 10 10 10 6 0 10 -4
10 -10z m115 0 c3 -5 -1 -10 -10 -10 -9 0 -13 5 -10 10 3 6 8 10 10 10 2 0 7
-4 10 -10z m-525 -10 c0 -5 -8 -10 -17 -10 -15 0 -16 2 -3 10 19 12 20 12 20
0z m256 -5 c12 -9 14 -14 6 -15 -7 0 -20 7 -28 15 -20 19 -4 20 22 0z m-76
-30 c0 -8 -6 -15 -14 -15 -20 0 -29 17 -14 23 22 9 28 7 28 -8z m408 2 c7 -6
20 -24 28 -40 14 -26 14 -30 -3 -43 -25 -19 -32 -17 -45 11 -6 13 -15 22 -19
19 -5 -3 -9 -4 -9 -2 0 2 -4 17 -9 34 -8 30 -7 32 18 32 14 0 32 -5 39 -11z
m-1068 -45 c13 -50 8 -49 -16 2 -13 29 -15 42 -7 39 7 -3 17 -21 23 -41z m847
41 c-4 -3 -10 -3 -14 0 -3 4 0 7 7 7 7 0 10 -3 7 -7z m70 -10 c-4 -3 -7 0 -7
7 0 7 3 10 7 7 3 -4 3 -10 0 -14z m96 -50 c38 -61 38 -61 -2 -105 -23 -23 -52
-67 -66 -95 -29 -63 -28 -62 -54 -18 -11 19 -26 35 -32 35 -8 0 -5 -9 7 -22
36 -43 47 -69 33 -82 -7 -6 -9 -6 -6 -1 7 13 -2 27 -28 41 -11 6 -21 21 -23
33 -4 24 -12 27 -30 9 -9 -9 -13 -7 -18 5 -8 21 14 50 33 43 7 -3 13 0 13 7 0
24 50 141 77 179 34 50 49 46 96 -29z m-573 47 c0 -5 -8 -10 -17 -10 -15 0
-16 2 -3 10 19 12 20 12 20 0z m106 -3 c24 -14 17 -70 -10 -80 -19 -8 -61 4
-47 13 13 8 33 70 22 70 -3 0 -12 -14 -18 -31 -11 -27 -15 -30 -28 -19 -23 19
-19 48 8 53 39 8 52 7 73 -6z m294 -9 c0 -13 -23 -5 -28 10 -2 7 2 10 12 6 9
-3 16 -11 16 -16z m-443 -8 c31 -19 32 -20 17 -48 -8 -17 -21 -35 -29 -42 -19
-15 -19 -39 -2 -65 13 -20 47 -104 47 -118 0 -28 -26 5 -58 74 -38 81 -38 81
-61 61 -24 -19 -24 -19 3 -73 24 -47 31 -45 11 4 -11 25 22 22 35 -4 7 -11 13
-41 14 -66 3 -45 3 -45 -12 -17 -9 16 -17 24 -19 17 -2 -7 0 -21 6 -31 13 -24
3 -36 -17 -19 -13 10 -15 9 -9 -5 9 -26 -5 -21 -27 9 -19 26 -19 26 2 21 29
-8 28 -4 -10 69 -24 46 -37 61 -49 58 -45 -15 -108 55 -80 89 9 11 9 15 -1 19
-7 2 1 8 17 11 17 4 62 22 100 41 83 40 82 40 122 15z m-192 -24 c-22 -7 -54
-20 -72 -29 -18 -9 -42 -17 -55 -17 -19 1 -16 5 17 21 22 11 45 22 52 23 7 1
16 5 19 9 4 4 23 7 43 6 36 0 36 0 -4 -13z m-394 -20 c20 -8 109 -111 109
-125 0 -6 -11 -18 -25 -27 -25 -16 -27 -16 -55 11 -17 16 -30 35 -30 42 0 8
-4 11 -10 8 -5 -3 -10 1 -10 9 0 8 -10 21 -22 27 -14 8 -18 14 -11 16 7 3 25
-5 39 -16 15 -12 30 -18 33 -15 3 4 0 9 -7 12 -19 6 -82 62 -82 72 0 8 33 1
71 -14z m-775 -11 c18 -15 18 -15 -5 -13 -14 2 -26 9 -29 16 -5 17 10 15 34
-3z m1011 9 c-3 -3 -12 -4 -19 -1 -8 3 -5 6 6 6 11 1 17 -2 13 -5z m452 -95
c12 -40 15 -76 4 -65 -11 10 -43 118 -42 141 0 23 18 -12 38 -76z m611 87 c0
-3 -5 -8 -12 -12 -7 -4 -8 -3 -4 4 7 12 16 16 16 8z m-2093 -38 c-13 -8 -39
10 -31 23 3 5 14 3 24 -3 13 -9 16 -14 7 -20z m643 17 c3 -15 87 -45 107 -39
12 4 14 3 6 -3 -9 -7 -1 -21 31 -52 47 -46 49 -54 26 -87 -15 -21 -15 -21 -43
18 -16 22 -22 37 -15 33 21 -11 -53 57 -96 89 -22 17 -34 32 -28 34 7 2 9 9 5
15 -3 7 -4 10 0 7 3 -3 6 -9 7 -15z m1005 6 c3 -5 1 -12 -4 -15 -5 -3 -11 1
-15 9 -6 16 9 21 19 6z m-611 -10 c7 -11 -22 -36 -31 -27 -4 4 -8 13 -9 21 -2
16 31 21 40 6z m1186 -1 c0 -5 -7 -6 -17 -3 -12 5 -14 3 -8 -7 5 -9 4 -11 -4
-6 -6 4 -9 12 -6 17 8 12 35 12 35 -1z m-1130 -44 c0 -8 14 -29 31 -47 17 -18
26 -35 20 -37 -6 -2 -10 -13 -10 -25 1 -17 2 -18 6 -4 2 9 9 15 14 12 5 -4 9
6 9 20 0 23 3 25 23 19 38 -12 75 -43 81 -70 8 -31 -1 -45 -14 -24 -6 8 -10
11 -11 5 0 -5 -4 -1 -9 10 -8 18 -9 17 -9 -7 -1 -19 -5 -26 -15 -22 -8 3 -34
-10 -59 -28 -24 -18 -53 -38 -63 -45 -18 -12 -18 -12 1 -6 21 7 21 5 -8 -17
-10 -7 -17 -9 -16 -4 1 5 -4 22 -11 38 -16 31 6 61 36 49 8 -3 14 -1 14 5 0 5
11 13 25 16 14 4 25 11 25 17 0 6 4 7 10 4 6 -3 7 1 4 9 -5 14 -8 14 -21 1
-21 -21 -43 -18 -43 5 0 12 -7 31 -15 43 -22 34 -28 97 -10 97 8 0 15 -6 15
-14z m1168 -43 c35 -79 42 -103 32 -103 -6 0 -10 3 -10 8 0 4 -20 28 -45 54
-50 53 -53 62 -27 77 26 15 27 15 50 -36z m-481 20 c-4 -3 -7 0 -7 7 0 7 3 10
7 7 3 -4 3 -10 0 -14z m438 -87 c17 -44 14 -103 -5 -91 -9 6 -46 114 -53 160
-5 30 -5 30 18 3 12 -15 31 -47 40 -72z m-900 65 c-3 -6 -11 -11 -16 -11 -5 0
-4 6 3 14 14 16 24 13 13 -3z m-295 -17 c0 -8 -4 -13 -10 -9 -5 3 -16 -8 -24
-24 -9 -16 -21 -31 -28 -33 -7 -3 11 -13 40 -22 50 -17 52 -19 33 -32 -15 -11
-153 -32 -225 -34 -9 0 38 39 149 123 69 54 65 51 65 31z m950 -4 c-6 -11 -13
-20 -16 -20 -2 0 0 9 6 20 6 11 13 20 16 20 2 0 0 -9 -6 -20z m-896 -25 c9
-13 16 -29 16 -35 0 -13 -37 -13 -45 0 -3 6 1 10 9 10 20 0 20 14 0 34 -8 9
-11 16 -6 16 5 0 17 -11 26 -25z m686 21 c0 -3 -5 -8 -12 -12 -7 -4 -8 -3 -4
4 7 12 16 16 16 8z m412 -76 c12 -30 30 -63 42 -72 11 -9 18 -20 14 -23 -18
-18 -108 107 -108 151 0 16 24 24 28 10 2 -6 13 -36 24 -66z m-2292 66 c0 -3
-5 -8 -12 -12 -7 -4 -8 -3 -4 4 7 12 16 16 16 8z m1118 -36 c-7 -11 -17 -20
-22 -20 -5 0 -1 9 9 20 10 11 20 20 22 20 2 0 -2 -9 -9 -20z m942 -15 c-6 -15
-13 -26 -16 -23 -2 3 0 18 6 33 6 15 13 26 16 23 2 -3 0 -18 -6 -33z m324 -17
c15 -25 26 -36 26 -25 0 19 25 23 36 5 4 -6 3 -8 -3 -5 -6 4 -18 -2 -28 -13
-19 -21 -45 -27 -45 -10 0 6 4 10 9 10 5 0 7 9 4 20 -3 11 -9 20 -13 20 -4 0
-10 9 -13 20 -8 30 -1 24 27 -22z m-1219 -6 c-3 -3 -11 0 -18 7 -9 10 -8 11 6
5 10 -3 15 -9 12 -12z m1015 8 c0 -5 -5 -10 -11 -10 -5 0 -7 5 -4 10 3 6 8 10
11 10 2 0 4 -4 4 -10z m52 -4 c25 -18 88 -113 88 -130 0 -10 -6 -13 -17 -9
-11 4 -13 8 -5 11 7 2 10 8 7 12 -7 12 -40 -1 -104 -40 -29 -18 -55 -30 -58
-26 -15 14 45 196 64 196 4 0 16 -6 25 -14z m-357 -61 c-9 -31 -19 -54 -22
-51 -3 2 3 30 12 61 9 32 18 55 21 52 3 -3 -2 -30 -11 -62z m62 44 c3 -16 -35
-65 -43 -56 -3 3 -1 22 6 42 12 35 33 43 37 14z m710 -6 c-4 -3 -7 0 -7 7 0 7
3 10 7 7 3 -4 3 -10 0 -14z m20 -30 c-3 -10 -5 -2 -5 17 0 19 2 27 5 18 2 -10
2 -26 0 -35z m-635 5 c-8 -8 -9 -4 -5 13 4 13 8 18 11 10 2 -7 -1 -18 -6 -23z
m-707 12 c3 -5 4 -10 1 -10 -3 0 -8 5 -11 10 -3 6 -4 10 -1 10 3 0 8 -4 11
-10z m1122 -7 c-4 -3 -10 -3 -14 0 -3 4 0 7 7 7 7 0 10 -3 7 -7z m267 -24 c-4
-6 -11 -6 -20 2 -21 17 -17 31 6 19 11 -6 18 -15 14 -21z m-164 -24 c13 -39 7
-55 -20 -55 -27 0 -34 19 -15 40 11 12 14 26 10 41 -5 14 -3 19 3 15 6 -3 16
-22 22 -41z m-1280 21 c0 -3 -5 -8 -12 -12 -7 -4 -8 -3 -4 4 7 12 16 16 16 8z
m37 -20 c-7 -14 -14 -21 -17 -16 -3 5 -12 5 -20 0 -33 -21 -32 -8 0 15 44 31
51 31 37 1z m58 -16 c-3 -5 -11 -10 -16 -10 -6 0 -7 5 -4 10 3 6 11 10 16 10
6 0 7 -4 4 -10z m1098 -21 c-6 -6 -21 -9 -34 -6 -24 4 -24 4 -1 12 12 4 22 12
22 18 0 7 4 7 12 -1 9 -9 9 -15 1 -23z m-1233 7 c0 -3 -5 -8 -12 -12 -7 -4 -8
-3 -4 4 7 12 16 16 16 8z m254 -5 c4 -5 -3 -7 -14 -4 -23 6 -26 13 -6 13 8 0
17 -4 20 -9z m523 -13 c-3 -8 -6 -5 -6 6 -1 11 2 17 5 13 3 -3 4 -12 1 -19z
m383 12 c0 -5 -7 -10 -16 -10 -8 0 -12 5 -9 10 3 6 10 10 16 10 5 0 9 -4 9
-10z m-1120 -10 c0 -5 -5 -10 -11 -10 -5 0 -7 5 -4 10 3 6 8 10 11 10 2 0 4
-4 4 -10z m45 0 c-3 -5 -10 -10 -16 -10 -5 0 -9 5 -9 10 0 6 7 10 16 10 8 0
12 -4 9 -10z m1174 -19 c15 -5 -24 -27 -42 -24 -16 3 -26 -2 -35 -19 -10 -18
-22 -24 -52 -24 -51 -2 -51 11 0 33 22 10 40 23 40 29 0 10 65 13 89 5z m-652
-26 c-4 -8 -11 -15 -17 -15 -7 0 -7 6 0 21 13 23 26 19 17 -6z m523 16 c0 -5
-7 -11 -15 -15 -9 -3 -15 0 -15 9 0 8 7 15 15 15 8 0 15 -4 15 -9z m198 1 c14
12 14 11 1 -10 -8 -12 -15 -18 -17 -12 -2 6 -8 8 -13 5 -5 -4 -6 2 -2 11 4 12
8 14 11 6 3 -10 7 -10 20 0z m-554 -59 c3 -24 2 -43 -2 -43 -5 0 -10 21 -11
47 -2 56 4 54 13 -4z m-1239 4 c-1 -15 4 -27 10 -27 46 0 96 -130 61 -159 -10
-8 -16 -9 -16 -3 0 6 5 14 10 17 6 3 10 11 10 16 0 6 -4 8 -9 4 -5 -3 -12 -1
-16 5 -3 5 -1 10 4 10 6 0 10 12 10 28 -2 24 -2 24 -6 4 -5 -27 -28 -24 -28 4
0 12 -13 25 -39 37 -51 23 -58 21 -19 -4 28 -18 31 -24 22 -41 -10 -18 -9 -20
5 -15 8 3 18 2 21 -3 7 -11 -136 -1 -149 10 -10 10 12 80 26 80 6 0 7 -7 4
-16 -4 -11 1 -10 20 5 15 12 34 21 43 22 9 0 11 3 4 5 -7 3 -22 0 -33 -6 -36
-19 -36 -2 0 30 41 37 65 35 65 -3z m-80 3 c-13 -21 -127 -100 -143 -100 -23
0 -4 18 78 73 64 43 79 50 65 27z m121 12 c6 -4 13 -19 16 -34 7 -36 -17 -26
-31 13 -10 29 -6 35 15 21z m208 2 c13 -5 11 -10 -11 -28 -30 -23 -35 -23 -44
3 -6 14 -2 17 25 14 25 -3 27 -2 11 6 -22 11 -6 15 19 5z m1491 -34 c-15 -16
-32 -27 -37 -23 -6 3 5 19 22 35 41 37 53 28 15 -12z m-2639 3 c-10 -10 -19 5
-10 18 6 11 8 11 12 0 2 -7 1 -15 -2 -18z m1279 8 c3 -5 1 -12 -5 -16 -5 -3
-10 1 -10 9 0 18 6 21 15 7z m-25 -33 c0 -14 -5 -18 -16 -14 -12 4 -15 2 -10
-9 5 -15 -5 -21 -16 -9 -9 8 25 63 34 58 5 -3 8 -14 8 -26z m1250 22 c0 -5 -5
-10 -11 -10 -5 0 -7 5 -4 10 3 6 8 10 11 10 2 0 4 -4 4 -10z m-1321 -83 c17
-64 29 -89 51 -109 41 -36 40 -59 -2 -57 -18 1 -44 -1 -57 -5 -21 -7 -23 -6
-18 13 6 24 -29 139 -49 159 -10 9 -10 17 -1 35 38 70 49 64 76 -36z m-514 41
c6 -5 -2 -5 -17 1 -18 7 -28 7 -28 1 0 -6 8 -10 17 -10 9 0 14 -3 10 -6 -11
-12 -46 7 -40 22 6 15 38 11 58 -8z m1842 8 c0 -8 -6 -12 -14 -9 -7 3 -10 9
-7 14 8 14 21 11 21 -5z m-2071 -70 c-5 -31 -1 -49 14 -74 11 -17 23 -51 26
-74 7 -41 7 -41 -26 -22 -18 11 -40 36 -50 57 -10 22 -20 33 -22 25 -3 -7 -4
13 -3 44 3 69 28 117 52 97 11 -9 13 -24 9 -53z m884 54 c0 -5 -4 -10 -10 -10
-5 0 -10 5 -10 10 0 6 5 10 10 10 6 0 10 -4 10 -10z m-243 -27 c-4 -3 -7 0 -7
7 0 7 3 10 7 7 3 -4 3 -10 0 -14z m180 10 c-4 -3 -10 -3 -14 0 -3 4 0 7 7 7 7
0 10 -3 7 -7z m-697 -7 c0 -3 -4 -8 -10 -11 -5 -3 -10 -1 -10 4 0 6 5 11 10
11 6 0 10 -2 10 -4z m195 -60 c-31 -13 -79 -10 -69 5 3 5 26 9 52 9 47 -1 47
-1 17 -14z m180 -7 c15 -15 -11 -32 -39 -25 -13 3 -32 13 -40 22 -10 9 -24 13
-36 9 -12 -4 -20 -2 -20 5 0 14 119 4 135 -11z m-92 -24 c53 -16 74 -34 45
-36 -7 0 -25 -3 -40 -5 -28 -5 -81 16 -94 37 -6 11 14 31 26 25 3 -2 31 -11
63 -21z m-124 -36 c31 -11 31 -11 -1 -28 -18 -9 -45 -25 -60 -35 -26 -17 -28
-17 -28 -2 0 10 5 14 10 11 6 -4 10 8 10 29 0 40 12 45 69 25z m405 -15 c3 -8
2 -12 -4 -9 -6 3 -10 10 -10 16 0 14 7 11 14 -7z m140 -53 c-2 -2 6 -11 18
-20 38 -26 -17 -33 -64 -8 -45 24 -41 37 12 34 21 -1 36 -4 34 -6z m-347 -28
c-4 -3 -7 0 -7 7 0 7 3 10 7 7 3 -4 3 -10 0 -14z m-53 -62 c3 -5 -3 -11 -15
-14 -16 -4 -18 -3 -8 9 13 16 16 17 23 5z m-56 -20 c-7 -11 -21 -22 -33 -25
-15 -4 -13 0 10 19 36 30 39 31 23 6z"/>
<path d="M2578 2033 c7 -3 16 -2 19 1 4 3 -2 6 -13 5 -11 0 -14 -3 -6 -6z"/>
<path d="M2573 2013 c4 -3 10 -3 14 0 3 4 0 7 -7 7 -7 0 -10 -3 -7 -7z"/>
<path d="M2613 2013 c4 -3 10 -3 14 0 3 4 0 7 -7 7 -7 0 -10 -3 -7 -7z"/>
<path d="M2761 2011 c-10 -7 -7 -9 12 -8 14 1 23 5 20 10 -6 9 -15 9 -32 -2z"/>
<path d="M2725 1950 c-4 -6 6 -10 21 -10 15 0 38 -10 51 -22 13 -12 25 -19 28
-16 7 6 -67 58 -82 58 -7 0 -15 -4 -18 -10z"/>
<path d="M2533 1893 c4 -3 10 -3 14 0 3 4 0 7 -7 7 -7 0 -10 -3 -7 -7z"/>
<path d="M1336 1823 c-4 -5 -12 -8 -17 -8 -5 0 -9 -4 -10 -10 0 -5 -6 -13 -12
-17 -6 -4 -9 -10 -5 -13 3 -3 19 5 34 19 16 13 26 27 23 30 -3 3 -9 3 -13 -1z"/>
<path d="M2518 1433 c7 -3 16 -2 19 1 4 3 -2 6 -13 5 -11 0 -14 -3 -6 -6z"/>
<path d="M1455 1240 c-19 -8 -19 -9 3 -9 12 -1 22 4 22 9 0 6 -1 10 -2 9 -2 0
-12 -4 -23 -9z"/>
<path d="M1490 850 c0 -7 3 -10 7 -7 3 4 3 10 0 14 -4 3 -7 0 -7 -7z"/>
<path d="M2380 2467 c0 -17 36 -69 53 -78 32 -17 87 -71 87 -86 0 -17 -62 -17
-78 -1 -9 9 -12 8 -12 -4 0 -22 32 -27 135 -19 69 5 92 4 98 -6 9 -15 55 -17
77 -3 12 8 11 10 -7 10 -67 0 -11 56 66 65 14 1 29 9 35 16 6 8 24 14 40 14
16 0 31 6 34 14 3 10 0 11 -9 5 -8 -5 -24 -7 -36 -6 -11 2 -24 -2 -28 -7 -3
-6 -16 -11 -28 -11 -26 0 -127 -49 -127 -62 0 -5 -4 -6 -10 -3 -5 3 -16 3 -22
-2 -18 -11 -51 -10 -64 2 -9 7 -8 12 5 17 11 5 8 7 -12 7 -16 1 -26 5 -22 10
3 6 -3 15 -14 20 -25 14 -44 14 -36 0 4 -5 -13 5 -38 23 -25 18 -50 45 -56 61
-8 21 -31 39 -31 24z"/>
<path d="M2978 2423 c7 -3 16 -2 19 1 4 3 -2 6 -13 5 -11 0 -14 -3 -6 -6z"/>
<path d="M3123 2423 c4 -3 10 -3 14 0 3 4 0 7 -7 7 -7 0 -10 -3 -7 -7z"/>
<path d="M3033 2403 c4 -3 10 -3 14 0 3 4 0 7 -7 7 -7 0 -10 -3 -7 -7z"/>
<path d="M2420 2363 c0 -13 5 -23 10 -23 13 0 13 11 0 30 -8 12 -10 11 -10 -7z"/>
<path d="M980 2360 c0 -7 3 -10 7 -7 3 4 3 10 0 14 -4 3 -7 0 -7 -7z"/>
<path d="M2450 2341 c0 -5 7 -12 16 -15 14 -5 15 -4 4 9 -14 17 -20 19 -20 6z"/>
<path d="M2751 2321 c-7 -5 -9 -11 -4 -14 6 -4 19 0 29 8 22 16 0 22 -25 6z"/>
<path d="M1002 2300 c0 -14 6 -47 13 -75 14 -50 14 -50 8 5 -6 63 -22 113 -21
70z"/>
<path d="M1 2156 c-1 -122 0 -128 17 -114 20 19 62 7 62 -17 0 -8 5 -15 10
-15 6 0 10 -7 10 -15 0 -8 -7 -15 -15 -15 -9 0 -15 9 -15 23 0 34 -8 37 -41
19 -32 -18 -38 -32 -14 -32 8 0 15 -6 15 -13 0 -8 9 -22 20 -32 21 -19 29 -8
8 13 -8 8 -4 10 17 6 16 -3 34 -13 41 -22 19 -25 19 5 -1 51 -8 20 -15 55 -15
77 0 43 -14 80 -30 80 -6 0 -10 -7 -10 -16 0 -8 -4 -13 -9 -9 -6 3 -8 -8 -6
-25 3 -22 0 -30 -11 -30 -11 0 -15 9 -13 33 1 17 -2 41 -6 51 -5 10 -4 36 2
58 6 21 7 38 2 38 -4 0 -10 8 -12 18 -3 9 -5 -41 -6 -112z m88 -74 c1 -10 -3
-9 -15 3 -10 9 -13 22 -9 33 7 15 8 15 15 -3 5 -11 9 -26 9 -33z"/>
<path d="M1816 2259 c-16 -5 -32 -6 -36 -4 -3 2 -7 -5 -7 -16 -2 -18 0 -18 20
-4 12 8 31 15 42 15 16 0 14 -3 -10 -16 -16 -8 -37 -22 -45 -31 -13 -13 -11
-13 17 1 18 9 37 16 43 16 6 0 18 7 27 15 8 8 19 12 25 9 15 -10 -50 -61 -86
-68 -18 -4 -38 0 -52 9 -20 13 -26 12 -55 -2 -18 -9 -28 -18 -21 -21 7 -2 21
3 31 12 16 14 20 14 54 -3 38 -19 38 -19 10 -34 -15 -7 -50 -26 -77 -40 -49
-27 -117 -35 -144 -18 -10 6 -2 11 24 16 21 3 49 15 62 26 28 22 17 26 -13 5
-11 -7 -33 -16 -50 -19 -19 -4 -11 3 25 19 61 29 65 32 59 38 -4 5 -51 -14
-92 -36 -17 -8 -50 -6 -101 9 -11 3 -16 1 -12 -5 4 -6 -2 -8 -14 -5 -12 3 -20
0 -20 -7 0 -7 -8 -9 -20 -5 -15 5 -18 3 -14 -8 3 -8 0 -18 -7 -23 -9 -5 -10 1
-6 26 4 18 7 38 7 44 0 6 4 4 10 -4 5 -8 12 -12 15 -8 7 7 -22 38 -36 38 -6 0
-7 -9 -4 -21 7 -21 5 -22 -39 -17 -43 5 -62 -4 -33 -15 6 -3 4 -6 -7 -6 -18
-1 -18 -2 -3 -19 20 -22 22 -49 5 -55 -7 -2 -1 -6 15 -9 15 -3 27 -2 27 2 0 4
18 15 40 25 22 10 37 22 34 26 -3 5 1 9 10 9 8 0 17 -6 19 -12 4 -10 6 -10 6
0 1 15 33 16 48 1 17 -17 -14 -61 -37 -54 -10 3 -22 0 -26 -6 -5 -9 -2 -10 9
-6 10 3 17 2 17 -3 0 -6 -11 -10 -25 -10 -14 0 -25 -5 -25 -10 0 -6 6 -10 13
-8 60 11 137 -29 142 -74 4 -37 4 -38 16 -38 5 0 7 5 4 10 -6 10 21 7 63 -6 6
-2 12 0 12 5 0 5 -19 12 -43 15 -34 5 -43 11 -43 26 0 17 7 20 55 20 30 0 52
3 48 6 -3 3 -21 6 -40 6 -31 0 -36 3 -39 29 -3 16 0 33 6 38 16 12 152 71 165
71 6 0 11 4 11 8 0 6 93 80 144 114 18 12 -15 40 -40 34 -12 -3 -24 -2 -26 2
-2 5 -16 5 -32 1z m-313 -146 c-7 -2 -19 -2 -25 0 -7 3 -2 5 12 5 14 0 19 -2
13 -5z m42 -63 c3 -5 -3 -10 -14 -10 -12 0 -21 5 -21 10 0 6 6 10 14 10 8 0
18 -4 21 -10z m50 0 c-3 -5 -13 -10 -21 -10 -8 0 -14 5 -14 10 0 6 9 10 21 10
11 0 17 -4 14 -10z m-91 -35 c3 -9 0 -15 -9 -15 -8 0 -15 7 -15 15 0 8 4 15 9
15 5 0 11 -7 15 -15z m46 5 c0 -5 -8 -10 -17 -10 -15 0 -16 2 -3 10 19 12 20
12 20 0z m26 -31 c12 -20 -13 -32 -35 -17 -12 8 -18 18 -14 21 10 11 41 8 49
-4z"/>
<path d="M988 2225 c6 -49 18 -52 14 -4 -2 21 -7 39 -11 39 -4 0 -5 -16 -3
-35z"/>
<path d="M2033 2233 c4 -3 10 -3 14 0 3 4 0 7 -7 7 -7 0 -10 -3 -7 -7z"/>
<path d="M749 2213 c-13 -17 -13 -17 6 -3 11 8 22 16 24 17 2 2 0 3 -6 3 -6 0
-17 -8 -24 -17z"/>
<path d="M2447 2180 c21 -41 57 -72 67 -58 6 8 -7 98 -14 98 -4 0 -5 -20 -2
-45 6 -58 0 -57 -34 5 -35 65 -51 65 -17 0z"/>
<path d="M2204 2208 c-4 -7 -3 -8 4 -4 12 7 16 16 8 16 -3 0 -8 -5 -12 -12z"/>
<path d="M786 2165 c4 -52 14 -69 35 -63 11 2 8 16 -12 57 -27 54 -27 54 -23
6z"/>
<path d="M1053 2153 c4 -20 12 -41 18 -47 9 -8 10 -5 5 14 -3 14 -6 35 -6 48
0 12 -5 22 -11 22 -8 0 -10 -13 -6 -37z"/>
<path d="M2170 2180 c-23 -7 -23 -8 -3 -9 12 -1 25 4 28 9 3 6 5 10 3 9 -2 -1
-14 -5 -28 -9z"/>
<path d="M2555 2180 c3 -5 8 -10 11 -10 3 0 2 5 -1 10 -3 6 -8 10 -11 10 -3 0
-2 -4 1 -10z"/>
<path d="M1218 2173 c6 -2 18 -2 25 0 6 3 1 5 -13 5 -14 0 -19 -2 -12 -5z"/>
<path d="M3430 2170 c0 -7 3 -10 7 -7 3 4 3 10 0 14 -4 3 -7 0 -7 -7z"/>
<path d="M714 2157 c-8 -22 -1 -30 21 -25 14 3 14 5 1 23 -14 19 -15 19 -22 2z"/>
<path d="M1723 2153 c4 -3 10 -3 14 0 3 4 0 7 -7 7 -7 0 -10 -3 -7 -7z"/>
<path d="M3340 2148 c0 -4 14 -8 30 -8 17 0 30 2 30 4 0 2 -13 6 -30 8 -16 3
-30 1 -30 -4z"/>
<path d="M867 2131 c-3 -12 -1 -21 3 -21 15 0 23 21 12 32 -6 6 -11 2 -15 -11z"/>
<path d="M1225 2130 c-3 -5 -2 -10 4 -10 5 0 13 5 16 10 3 6 2 10 -4 10 -5 0
-13 -4 -16 -10z"/>
<path d="M2183 2133 c-7 -2 -13 -11 -13 -18 0 -34 -34 -57 -70 -47 -35 9 -35
9 3 17 22 4 42 16 48 27 9 16 8 19 -7 16 -10 -1 -17 -7 -15 -13 3 -13 -32 -23
-84 -24 -30 -1 -36 -4 -25 -11 13 -8 12 -10 -4 -10 -11 0 -17 -2 -14 -5 8 -8
134 -14 144 -7 8 6 57 83 51 81 -1 0 -8 -3 -14 -6z"/>
<path d="M450 2117 c0 -8 7 -14 15 -14 11 0 12 4 4 14 -6 7 -13 13 -15 13 -2
0 -4 -6 -4 -13z"/>
<path d="M3393 2113 c4 -3 10 -3 14 0 3 4 0 7 -7 7 -7 0 -10 -3 -7 -7z"/>
<path d="M3426 2085 c4 -8 8 -15 10 -15 2 0 4 7 4 15 0 8 -4 15 -10 15 -5 0
-7 -7 -4 -15z"/>
<path d="M1080 2080 c0 -7 3 -10 7 -7 3 4 3 10 0 14 -4 3 -7 0 -7 -7z"/>
<path d="M1281 2074 c0 -11 3 -14 6 -6 3 7 2 16 -1 19 -3 4 -6 -2 -5 -13z"/>
<path d="M1182 2072 c-22 -14 -12 -69 13 -67 32 4 32 4 37 23 9 34 -22 61 -50
44z"/>
<path d="M2965 2070 c-3 -5 -1 -10 4 -10 6 0 11 5 11 10 0 6 -2 10 -4 10 -3 0
-8 -4 -11 -10z"/>
<path d="M831 2048 c-1 -16 4 -28 9 -28 12 0 12 8 0 35 -8 18 -9 17 -9 -7z"/>
<path d="M1445 2060 c-3 -6 1 -7 9 -4 18 7 21 14 7 14 -6 0 -13 -4 -16 -10z"/>
<path d="M3377 2054 c-33 -18 -34 -28 -4 -41 18 -9 24 -8 24 2 0 7 -7 11 -15
7 -10 -3 -13 0 -10 9 3 8 17 13 37 13 35 -2 38 1 13 15 -12 6 -26 5 -45 -5z"/>
<path d="M1090 2050 c0 -7 3 -10 7 -7 3 4 3 10 0 14 -4 3 -7 0 -7 -7z"/>
<path d="M1394 2049 c-3 -6 -20 -19 -38 -30 -17 -10 -24 -19 -16 -19 18 1 90
59 73 60 -6 0 -15 -5 -19 -11z"/>
<path d="M130 2019 c0 -6 5 -20 12 -32 7 -12 15 -50 19 -85 7 -71 5 -67 39
-77 20 -6 23 -5 13 6 -7 7 -13 24 -13 37 0 17 -4 23 -15 18 -12 -4 -15 4 -15
44 0 27 -4 52 -10 55 -5 3 -10 15 -10 26 0 10 -4 19 -10 19 -5 0 -10 -5 -10
-11z"/>
<path d="M2140 2010 c8 -5 20 -10 25 -10 6 0 3 5 -5 10 -8 5 -19 10 -25 10 -5
0 -3 -5 5 -10z"/>
<path d="M1303 2003 c4 -3 10 -3 14 0 3 4 0 7 -7 7 -7 0 -10 -3 -7 -7z"/>
<path d="M2133 1983 c4 -3 10 -3 14 0 3 4 0 7 -7 7 -7 0 -10 -3 -7 -7z"/>
<path d="M2060 1970 c-34 -7 -34 -7 -5 -8 17 0 39 3 50 8 24 10 4 10 -45 0z"/>
<path d="M3230 1970 c0 -5 5 -10 10 -10 6 0 10 5 10 10 0 6 -4 10 -10 10 -5 0
-10 -4 -10 -10z"/>
<path d="M1896 1962 c-2 -4 11 -6 30 -4 19 2 34 6 34 8 0 8 -59 4 -64 -4z"/>
<path d="M3190 1950 c0 -7 3 -10 7 -7 3 4 3 10 0 14 -4 3 -7 0 -7 -7z"/>
<path d="M2157 1940 c-20 -4 -40 -9 -43 -12 -9 -9 90 4 101 13 10 10 -2 10
-58 -1z"/>
<path d="M83 1933 c4 -3 10 -3 14 0 3 4 0 7 -7 7 -7 0 -10 -3 -7 -7z"/>
<path d="M961 1874 c0 -11 3 -14 6 -6 3 7 2 16 -1 19 -3 4 -6 -2 -5 -13z"/>
<path d="M1590 1870 c0 -13 11 -13 30 0 12 8 11 10 -7 10 -13 0 -23 -4 -23
-10z"/>
<path d="M2066 1839 c1 -24 5 -43 8 -41 3 1 11 2 16 2 6 0 7 6 1 18 -5 9 -13
28 -18 41 -8 21 -9 17 -7 -20z"/>
<path d="M130 1851 c0 -5 5 -13 10 -16 6 -3 10 -2 10 4 0 5 -4 13 -10 16 -5 3
-10 2 -10 -4z"/>
<path d="M910 1841 c0 -6 5 -13 10 -16 6 -3 10 1 10 9 0 9 -4 16 -10 16 -5 0
-10 -4 -10 -9z"/>
<path d="M240 1829 c0 -5 5 -7 10 -4 6 3 10 8 10 11 0 2 -4 4 -10 4 -5 0 -10
-5 -10 -11z"/>
<path d="M823 1823 c4 -3 10 -3 14 0 3 4 0 7 -7 7 -7 0 -10 -3 -7 -7z"/>
<path d="M3308 1823 c7 -3 16 -2 19 1 4 3 -2 6 -13 5 -11 0 -14 -3 -6 -6z"/>
<path d="M1926 1793 c-10 -24 -7 -28 19 -28 18 0 25 5 25 20 0 25 -35 31 -44
8z"/>
<path d="M3273 1783 c4 -3 10 -3 14 0 3 4 0 7 -7 7 -7 0 -10 -3 -7 -7z"/>
<path d="M838 1773 c7 -3 16 -2 19 1 4 3 -2 6 -13 5 -11 0 -14 -3 -6 -6z"/>
<path d="M2451 1764 c0 -11 3 -14 6 -6 3 7 2 16 -1 19 -3 4 -6 -2 -5 -13z"/>
<path d="M2472 1760 c0 -14 2 -19 5 -12 2 6 2 18 0 25 -3 6 -5 1 -5 -13z"/>
<path d="M3167 1743 c-4 -3 -7 -22 -7 -41 0 -44 12 -35 16 13 3 36 2 40 -9 28z"/>
<path d="M3206 1718 c-21 -29 -20 -35 4 -41 17 -4 20 0 20 25 0 19 4 27 12 22
7 -4 8 -3 4 4 -11 18 -23 14 -40 -10z"/>
<path d="M3258 1700 c-2 -23 1 -40 7 -40 13 0 18 67 6 74 -5 3 -11 -12 -13
-34z"/>
<path d="M1873 1723 c4 -3 10 -3 14 0 3 4 0 7 -7 7 -7 0 -10 -3 -7 -7z"/>
<path d="M2803 1713 c15 -2 37 -2 50 0 12 2 0 4 -28 4 -27 0 -38 -2 -22 -4z"/>
<path d="M2983 1713 c4 -3 10 -3 14 0 3 4 0 7 -7 7 -7 0 -10 -3 -7 -7z"/>
<path d="M834 1678 c-4 -7 -3 -8 4 -4 7 4 12 9 12 12 0 8 -9 4 -16 -8z"/>
<path d="M1044 1675 c11 -8 24 -15 30 -15 5 0 1 7 -10 15 -10 8 -23 14 -29 14
-5 0 -1 -6 9 -14z"/>
<path d="M1348 1673 c12 -2 30 -2 40 0 9 3 -1 5 -23 4 -22 0 -30 -2 -17 -4z"/>
<path d="M1660 1650 c-9 -6 -10 -10 -3 -10 6 0 15 5 18 10 8 12 4 12 -15 0z"/>
<path d="M1640 1620 c0 -7 3 -10 7 -7 3 4 3 10 0 14 -4 3 -7 0 -7 -7z"/>
<path d="M3171 1564 c0 -11 3 -14 6 -6 3 7 2 16 -1 19 -3 4 -6 -2 -5 -13z"/>
<path d="M372 1518 c-11 -4 -4 -7 20 -7 20 -1 39 3 42 8 7 10 -36 10 -62 -1z"/>
<path d="M614 1515 c-10 -8 -14 -15 -8 -15 6 0 17 7 24 15 16 19 9 19 -16 0z"/>
<path d="M683 1513 c4 -3 10 -3 14 0 3 4 0 7 -7 7 -7 0 -10 -3 -7 -7z"/>
<path d="M2326 1475 c9 -14 21 -25 26 -25 5 0 2 7 -6 16 -9 8 -16 20 -16 25 0
5 -5 9 -10 9 -6 0 -3 -11 6 -25z"/>
<path d="M2915 1480 c3 -5 8 -10 11 -10 3 0 2 5 -1 10 -3 6 -8 10 -11 10 -3 0
-2 -4 1 -10z"/>
<path d="M3 1463 c4 -3 10 -3 14 0 3 4 0 7 -7 7 -7 0 -10 -3 -7 -7z"/>
<path d="M1001 1428 c-10 -24 -21 -49 -23 -57 -3 -11 -30 -14 -126 -15 -113
-1 -141 4 -109 18 6 3 -3 3 -21 0 -20 -4 -39 -1 -50 8 -15 12 -16 11 -4 -4 10
-13 10 -17 0 -22 -7 -3 -1 -3 13 0 47 10 40 -13 -9 -31 -57 -22 -90 -44 -163
-111 -47 -43 -62 -51 -98 -52 -42 -2 -42 -2 -23 26 11 15 39 47 61 72 52 57
53 70 2 18 -42 -42 -73 -40 -87 6 -12 37 -154 -138 -154 -189 0 -21 20 4 38
48 12 29 40 70 60 90 38 38 38 38 65 17 27 -21 27 -21 -2 -64 -29 -42 -29 -42
32 -38 34 2 67 9 74 14 7 6 14 5 18 -2 3 -5 18 -10 33 -9 25 1 24 2 -8 11 -35
10 -35 10 14 56 48 45 49 45 65 25 29 -35 52 -42 105 -32 53 10 76 4 30 -7
-16 -4 -31 -10 -34 -14 -3 -3 -21 -11 -40 -17 -35 -11 -35 -11 -5 -12 17 0 45
8 63 19 42 26 107 28 98 3 -4 -10 -4 -15 -1 -11 3 3 21 2 40 -2 27 -6 35 -4
38 9 4 14 5 14 6 -1 2 -40 30 -17 37 30 8 61 31 115 44 107 5 -3 7 0 4 8 -3 8
6 44 20 80 28 74 25 91 -3 25z m-142 -90 c11 -10 13 -10 7 0 -9 15 17 16 44 2
27 -14 8 -70 -24 -70 -22 0 -96 54 -96 71 0 13 54 11 69 -3z m-76 -30 c14 -33
3 -53 -14 -27 -6 10 -9 11 -9 2 0 -8 -13 -13 -32 -13 -55 0 -21 -12 38 -14 77
-1 88 -25 12 -27 -29 -1 -74 -3 -101 -5 -41 -2 -50 1 -64 22 -15 23 -15 26 3
39 26 20 34 18 34 -5 0 -11 4 -20 9 -20 4 0 6 11 4 24 -5 26 17 40 49 30 10
-3 18 -2 17 3 -7 38 38 31 54 -9z m69 -46 c20 -28 36 -34 59 -22 18 10 20 9
17 -6 -6 -33 -45 -23 -90 24 -26 27 -34 40 -21 33 12 -6 28 -19 35 -29z m55
-9 c-4 -3 -10 -3 -14 0 -3 4 0 7 7 7 7 0 10 -3 7 -7z m-60 -70 c-4 -3 -7 0 -7
7 0 7 3 10 7 7 3 -4 3 -10 0 -14z"/>
<path d="M903 1323 c4 -3 10 -3 14 0 3 4 0 7 -7 7 -7 0 -10 -3 -7 -7z"/>
<path d="M740 1321 c0 -5 7 -11 15 -15 8 -3 15 -1 15 3 0 5 -7 11 -15 15 -8 3
-15 1 -15 -3z"/>
<path d="M2230 1425 c-19 -44 -33 -55 -45 -35 -4 6 -11 7 -17 4 -5 -4 -24 4
-40 16 -17 13 -27 16 -23 9 5 -8 17 -20 27 -27 18 -13 24 -38 11 -44 -5 -1
-16 -16 -25 -33 -11 -20 -28 -32 -48 -36 -33 -7 -85 -49 -73 -58 5 -3 10 -15
11 -26 2 -11 8 -21 13 -23 5 -2 9 -10 9 -18 0 -9 4 -13 9 -9 5 3 12 1 16 -5 3
-5 15 -10 26 -10 11 0 22 -7 25 -15 5 -13 8 -13 21 0 8 8 22 15 31 15 15 1 14
3 -2 15 -11 8 -14 15 -8 15 14 0 95 169 112 231 6 21 15 41 20 44 6 3 10 11
10 16 0 6 -4 7 -10 4 -5 -3 -10 -1 -10 4 0 26 -22 7 -40 -34z m9 -57 c-8 -14
-14 -18 -17 -10 -4 13 17 46 25 38 3 -2 -1 -15 -8 -28z m-39 -13 c0 -8 -4 -23
-10 -33 -22 -39 -49 -105 -55 -132 -9 -40 -23 -47 -31 -15 -9 36 62 195 87
195 5 0 9 -7 9 -15z m-103 -112 c-9 -9 -20 -14 -24 -10 -3 4 2 14 13 21 25 19
33 10 11 -11z m-4 -103 c-3 -3 -8 0 -10 7 -2 7 -11 9 -19 6 -8 -3 -14 1 -14 9
0 26 12 28 30 5 10 -12 16 -24 13 -27z"/>
<path d="M1104 1441 c11 -11 23 -21 28 -21 14 0 -1 19 -25 31 -22 12 -22 12
-3 -10z"/>
<path d="M306 1425 c-11 -8 -15 -15 -9 -15 6 0 16 7 23 15 16 19 11 19 -14 0z"/>
<path d="M2932 1410 c0 -14 2 -19 5 -12 2 6 2 18 0 25 -3 6 -5 1 -5 -13z"/>
<path d="M1157 1409 c7 -7 15 -10 18 -7 3 3 -2 9 -12 12 -14 6 -15 5 -6 -5z"/>
<path d="M1135 1400 c3 -5 8 -10 11 -10 3 0 2 5 -1 10 -3 6 -8 10 -11 10 -3 0
-2 -4 1 -10z"/>
<path d="M1510 1395 c0 -9 6 -12 15 -9 8 4 12 10 9 15 -8 14 -24 10 -24 -6z"/>
<path d="M3067 1358 c42 -63 46 -68 37 -43 -11 30 -56 95 -65 95 -4 0 8 -24
28 -52z"/>
<path d="M385 1390 c-19 -8 -19 -9 2 -9 12 -1 25 4 28 9 7 12 -2 12 -30 0z"/>
<path d="M1180 1373 c0 -5 18 -25 41 -43 22 -19 49 -49 60 -67 12 -18 25 -33
30 -33 15 0 10 13 -14 40 -38 44 -117 113 -117 103z"/>
<path d="M1155 1360 c3 -5 8 -10 11 -10 3 0 2 5 -1 10 -3 6 -8 10 -11 10 -3 0
-2 -4 1 -10z"/>
<path d="M1050 1328 c0 -10 19 -35 42 -58 42 -40 44 -49 7 -30 -16 9 -19 7
-19 -8 0 -13 7 -18 21 -18 13 1 23 -6 24 -16 3 -15 -4 -17 -53 -12 -31 3 -61
8 -66 10 -6 3 -3 -1 6 -9 10 -8 44 -15 83 -16 64 -2 65 -1 53 18 -18 30 -3 36
26 10 15 -13 37 -25 51 -26 23 -3 23 -3 -8 33 -34 38 -120 104 -137 104 -5 0
-14 8 -19 18 -10 16 -10 16 -11 0z m125 -98 c3 -5 4 -10 1 -10 -3 0 -8 5 -11
10 -3 6 -4 10 -1 10 3 0 8 -4 11 -10z"/>
<path d="M1170 1333 c0 -4 14 -31 32 -60 30 -49 58 -75 58 -53 0 6 -4 10 -9
10 -5 0 -24 25 -41 55 -30 52 -40 64 -40 48z"/>
<path d="M999 1309 c-7 -14 -7 -25 -1 -31 6 -6 11 1 14 21 5 36 3 38 -13 10z"/>
<path d="M3 1286 c0 -8 6 -12 14 -9 17 7 17 23 0 23 -8 0 -14 -6 -14 -14z"/>
<path d="M1021 1265 c-2 -36 -41 -62 -41 -28 0 22 -6 14 -14 -19 -4 -18 -2
-28 4 -28 6 0 8 5 5 10 -3 6 1 11 9 11 9 1 21 3 26 4 6 1 22 3 36 4 14 0 23 5
19 11 -3 5 -12 7 -20 4 -9 -4 -15 4 -18 23 -2 18 -5 21 -6 8z"/>
<path d="M565 1210 c11 -5 29 -9 40 -9 20 0 20 0 0 9 -11 5 -29 9 -40 9 -20 0
-20 0 0 -9z"/>
<path d="M1250 1200 c-12 -8 -11 -10 8 -10 12 0 22 5 22 10 0 13 -11 13 -30 0z"/>
<path d="M95 1180 c-13 -5 -14 -9 -5 -9 8 0 24 4 35 9 13 5 14 9 5 9 -8 0 -24
-4 -35 -9z"/>
<path d="M578 1163 c7 -3 16 -2 19 1 4 3 -2 6 -13 5 -11 0 -14 -3 -6 -6z"/>
<path d="M3 1143 c4 -3 10 -3 14 0 3 4 0 7 -7 7 -7 0 -10 -3 -7 -7z"/>
<path d="M2505 1095 c-4 -30 -5 -65 -2 -77 4 -14 0 -29 -10 -40 -15 -17 -15
-18 5 -18 13 0 22 -6 22 -16 0 -8 -4 -12 -10 -9 -14 9 -12 -5 5 -35 8 -14 14
-19 15 -11 0 9 4 10 13 4 26 -21 55 -22 50 -2 -3 11 -10 22 -16 26 -6 4 -8 0
-4 -10 4 -11 1 -17 -8 -17 -15 0 -24 11 -30 38 -1 9 -8 37 -15 61 -7 27 -9 67
-5 103 4 32 5 58 2 58 -3 0 -9 -25 -12 -55z m22 -192 c-4 -3 -7 0 -7 7 0 7 3
10 7 7 3 -4 3 -10 0 -14z"/>
<path d="M2137 1107 c-3 -9 -2 -19 4 -23 15 -9 18 -2 9 20 -6 17 -7 18 -13 3z"/>
<path d="M605 1090 c-66 -5 -43 -7 83 -5 95 1 175 5 179 9 8 7 -135 5 -262 -4z"/>
<path d="M2094 1065 c3 -20 24 -41 33 -31 8 8 -8 38 -24 43 -6 2 -10 -3 -9
-12z"/>
<path d="M493 1053 c4 -3 10 -3 14 0 3 4 0 7 -7 7 -7 0 -10 -3 -7 -7z"/>
<path d="M523 1053 c4 -3 10 -3 14 0 3 4 0 7 -7 7 -7 0 -10 -3 -7 -7z"/>
<path d="M565 1036 c11 -9 26 -20 33 -26 8 -7 12 -7 12 -1 0 6 -15 18 -32 26
-28 13 -30 14 -13 1z"/>
<path d="M2143 1033 c4 -3 10 -3 14 0 3 4 0 7 -7 7 -7 0 -10 -3 -7 -7z"/>
<path d="M1975 1020 c3 -5 1 -10 -4 -10 -6 0 -11 -22 -11 -51 0 -42 3 -50 16
-45 8 3 12 2 9 -4 -3 -6 -13 -10 -21 -10 -8 0 -14 -5 -14 -11 0 -7 7 -8 18 -4
9 4 28 10 42 12 14 3 32 7 40 10 16 7 25 10 38 12 4 1 -1 6 -11 12 -13 8 -17
18 -13 34 6 22 3 21 -26 -8 -36 -36 -49 -22 -30 33 9 24 8 28 -4 23 -8 -3 -14
0 -14 6 0 6 -5 11 -11 11 -5 0 -7 -4 -4 -10z"/>
<path d="M2020 980 c0 -5 4 -10 9 -10 6 0 13 5 16 10 3 6 -1 10 -9 10 -9 0
-16 -4 -16 -10z"/>
<path d="M1665 960 c3 -5 8 -10 11 -10 3 0 2 5 -1 10 -3 6 -8 10 -11 10 -3 0
-2 -4 1 -10z"/>
<path d="M793 943 c0 -9 4 -10 14 -2 7 6 13 12 13 14 0 1 -6 2 -13 2 -8 0 -14
-6 -14 -14z"/>
<path d="M2125 950 c-3 -5 -8 -20 -10 -32 -5 -26 -25 -49 -25 -29 0 10 -4 11
-13 3 -7 -6 -40 -14 -74 -18 -36 -4 -68 -13 -75 -22 -11 -13 -10 -14 7 -9 11
3 46 11 78 16 32 6 62 13 68 16 5 4 9 1 9 -6 0 -27 38 24 42 57 4 36 3 40 -7
24z"/>
<path d="M1692 945 c15 -40 37 -73 61 -93 15 -13 24 -29 20 -34 -3 -7 -1 -8 5
-4 7 4 14 -4 18 -21 4 -15 11 -34 17 -40 6 -9 6 -13 -2 -13 -6 0 -11 4 -11 9
0 5 -18 5 -42 -1 -36 -8 -44 -6 -55 8 -12 16 -13 16 -13 -5 0 -14 -4 -20 -12
-15 -7 5 -8 3 -4 -5 5 -7 15 -10 25 -7 12 5 11 2 -3 -9 -11 -8 -25 -15 -31
-15 -7 0 -26 -13 -43 -30 -32 -30 -102 -44 -102 -20 0 6 7 10 16 10 8 0 13 4
10 9 -3 5 -14 7 -25 4 -23 -6 -76 20 -90 44 -10 16 -10 16 -11 -2 0 -15 12
-26 45 -40 25 -10 43 -20 40 -23 -8 -8 -88 30 -107 51 -12 13 -15 29 -11 53 4
22 2 34 -6 34 -16 0 -7 -90 11 -101 8 -5 9 -9 2 -9 -7 0 -19 12 -29 26 -9 14
-19 23 -22 21 -11 -12 31 -57 52 -57 13 0 42 -9 66 -20 69 -31 184 -18 184 20
0 9 11 16 25 17 25 3 25 3 2 -7 -23 -10 -23 -10 -2 -50 12 -23 36 -58 53 -78
47 -53 70 -93 60 -103 -4 -4 -46 -12 -93 -16 -85 -7 -85 -7 -16 -15 44 -5 73
-5 81 2 7 6 19 8 26 5 23 -8 20 46 -4 80 -11 16 -36 47 -55 69 -22 24 -32 45
-29 57 3 10 1 19 -5 19 -5 0 -6 5 -3 10 12 19 42 10 53 -15 6 -14 18 -25 26
-25 9 0 20 -9 26 -20 14 -27 60 -75 60 -63 0 5 -22 37 -50 71 -27 34 -50 67
-50 73 0 23 46 2 67 -31 37 -58 55 -73 66 -55 9 16 2 35 -13 35 -5 0 -7 -8 -3
-17 12 -35 -18 4 -42 53 -32 67 -25 66 42 -5 48 -50 64 -61 91 -61 25 0 45
-12 91 -54 54 -49 138 -102 148 -92 2 2 -18 14 -44 27 -26 12 -75 50 -108 85
-33 34 -82 81 -110 104 -27 24 -50 46 -50 49 0 14 -66 121 -75 122 -6 1 -14 3
-20 4 -5 1 -15 3 -21 4 -5 0 -8 5 -4 10 3 5 -4 12 -15 16 -11 3 -20 12 -20 18
0 7 -10 23 -21 37 -11 14 -19 21 -17 15z m243 -291 c42 -36 46 -44 28 -44 -27
0 -113 67 -113 88 0 19 35 1 85 -44z m-192 -231 c-7 -2 -19 -2 -25 0 -7 3 -2
5 12 5 14 0 19 -2 13 -5z"/>
<path d="M1640 930 c0 -7 3 -10 7 -7 3 4 3 10 0 14 -4 3 -7 0 -7 -7z"/>
<path d="M760 909 c0 -5 5 -7 10 -4 6 3 10 8 10 11 0 2 -4 4 -10 4 -5 0 -10
-5 -10 -11z"/>
<path d="M1688 879 c26 -43 28 -56 5 -38 -14 12 -14 10 1 -13 10 -16 24 -28
31 -28 7 0 15 -7 19 -15 3 -8 10 -15 15 -15 5 0 4 11 -2 24 -7 14 -16 24 -22
23 -5 -1 -10 8 -9 20 0 12 -3 20 -8 17 -4 -3 -8 1 -8 9 0 8 -10 22 -22 33 -22
19 -22 19 0 -17z"/>
<path d="M3019 877 c-11 -20 -11 -21 4 -8 15 12 32 6 137 -48 66 -34 120 -58
120 -54 0 5 -17 16 -38 25 -20 10 -70 35 -110 57 -99 53 -100 54 -113 28z"/>
<path d="M2248 868 c23 -9 114 -9 128 0 7 4 -23 7 -67 7 -43 0 -71 -3 -61 -7z"/>
<path d="M1895 860 c3 -5 8 -10 11 -10 3 0 2 5 -1 10 -3 6 -8 10 -11 10 -3 0
-2 -4 1 -10z"/>
<path d="M800 850 c-11 -7 -11 -10 -2 -10 7 0 10 -4 7 -10 -3 -5 -1 -10 4 -10
6 0 11 9 11 20 0 23 0 23 -20 10z"/>
<path d="M2050 844 c-10 -12 -11 -17 -1 -27 10 -9 12 -9 9 3 -2 8 3 14 10 13
14 -3 17 13 3 21 -5 3 -14 -1 -21 -10z"/>
<path d="M2884 845 c-18 -13 -18 -14 4 -8 12 3 25 9 28 14 8 14 -10 11 -32 -6z"/>
<path d="M2984 848 c-4 -7 -3 -8 4 -4 12 7 16 16 8 16 -3 0 -8 -5 -12 -12z"/>
<path d="M371 834 c0 -11 3 -14 6 -6 3 7 2 16 -1 19 -3 4 -6 -2 -5 -13z"/>
<path d="M3035 825 c-16 -8 -23 -14 -15 -14 8 0 26 6 40 14 32 18 15 18 -25 0z"/>
<path d="M2533 801 c8 -23 13 -28 15 -16 2 10 -3 25 -12 33 -14 15 -15 13 -3
-17z"/>
<path d="M2838 823 c7 -3 16 -2 19 1 4 3 -2 6 -13 5 -11 0 -14 -3 -6 -6z"/>
<path d="M1605 788 c4 -18 12 -37 18 -43 7 -7 8 -4 3 8 -3 10 -6 30 -6 43 0
13 -5 24 -11 24 -7 0 -8 -12 -4 -32z"/>
<path d="M801 794 c0 -11 3 -14 6 -6 3 7 2 16 -1 19 -3 4 -6 -2 -5 -13z"/>
<path d="M2194 795 c-18 -13 -18 -14 4 -8 12 3 25 9 28 14 8 14 -10 11 -32 -6z"/>
<path d="M1873 783 c4 -3 10 -3 14 0 3 4 0 7 -7 7 -7 0 -10 -3 -7 -7z"/>
<path d="M2150 780 c-9 -6 -10 -10 -3 -10 6 0 15 5 18 10 8 12 4 12 -15 0z"/>
<path d="M1400 768 c0 -9 5 -20 10 -23 13 -8 13 5 0 25 -8 13 -10 13 -10 -2z"/>
<path d="M1945 756 c17 -8 24 -15 16 -15 -8 -1 -12 -3 -10 -6 3 -2 27 2 54 10
50 13 50 13 10 13 -22 0 -53 3 -70 6 -30 7 -30 7 0 -8z"/>
<path d="M665 749 c-11 -17 1 -21 15 -4 8 9 8 15 2 15 -6 0 -14 -5 -17 -11z"/>
<path d="M2550 750 c0 -7 3 -10 7 -7 3 4 3 10 0 14 -4 3 -7 0 -7 -7z"/>
<path d="M1923 723 c4 -3 10 -3 14 0 3 4 0 7 -7 7 -7 0 -10 -3 -7 -7z"/>
<path d="M3155 705 c-115 -26 -109 -32 10 -10 44 9 86 15 95 14 8 -1 24 0 35
1 20 1 20 1 0 10 -27 11 -25 12 -140 -15z"/>
<path d="M880 635 c-1 -35 50 -69 66 -44 4 7 0 9 -12 5 -14 -4 -24 2 -36 22
-10 15 -18 22 -18 17z"/>
<path d="M505 610 c3 -5 8 -10 11 -10 3 0 2 5 -1 10 -3 6 -8 10 -11 10 -3 0
-2 -4 1 -10z"/>
<path d="M540 595 c0 -12 107 -57 167 -71 73 -17 188 -14 233 5 21 9 16 10
-25 5 -140 -17 -212 -9 -312 36 -35 16 -63 27 -63 25z"/>
<path d="M842 591 c5 -17 58 -35 58 -20 0 5 -8 9 -18 9 -10 0 -24 6 -31 13
-11 10 -13 9 -9 -2z"/>
<path d="M1900 591 c0 -6 -20 -43 -45 -83 -47 -75 -46 -96 2 -58 27 21 28 21
43 2 16 -19 16 -19 43 0 15 11 39 23 55 28 20 6 22 8 7 9 -11 1 -32 -5 -47
-13 -33 -18 -41 -4 -39 65 2 26 -2 50 -8 54 -6 3 -11 1 -11 -4z m0 -71 c0 -19
-36 -60 -52 -60 -5 0 -1 11 8 25 9 14 21 22 27 18 6 -4 8 0 4 9 -3 9 -3 19 0
22 10 10 13 7 13 -14z m17 -67 c-4 -3 -7 0 -7 7 0 7 3 10 7 7 3 -4 3 -10 0
-14z"/>
<path d="M975 580 c-8 -13 5 -13 25 0 13 8 13 10 -2 10 -9 0 -20 -4 -23 -10z"/>
<path d="M1960 555 c19 -19 36 -35 38 -35 8 0 -53 69 -62 69 -6 1 5 -15 24
-34z"/>
<path d="M2063 573 c4 -3 10 -3 14 0 3 4 0 7 -7 7 -7 0 -10 -3 -7 -7z"/>
<path d="M943 563 c4 -3 10 -3 14 0 3 4 0 7 -7 7 -7 0 -10 -3 -7 -7z"/>
<path d="M1598 563 c7 -3 16 -2 19 1 4 3 -2 6 -13 5 -11 0 -14 -3 -6 -6z"/>
<path d="M2000 566 c0 -4 9 -16 20 -28 11 -12 20 -17 20 -11 0 5 -9 18 -20 28
-11 10 -20 15 -20 11z"/>
<path d="M1668 553 c6 -2 18 -2 25 0 6 3 1 5 -13 5 -14 0 -19 -2 -12 -5z"/>
<path d="M783 543 c4 -3 10 -3 14 0 3 4 0 7 -7 7 -7 0 -10 -3 -7 -7z"/>
<path d="M1513 423 c4 -3 10 -3 14 0 3 4 0 7 -7 7 -7 0 -10 -3 -7 -7z"/>
<path d="M1546 411 c-4 -5 3 -7 14 -4 23 6 26 13 6 13 -8 0 -17 -4 -20 -9z"/>
<path d="M1668 403 c7 -3 16 -2 19 1 4 3 -2 6 -13 5 -11 0 -14 -3 -6 -6z"/>
</g>
</svg>
