<?xml version="1.0" standalone="no"?>
<!DOCTYPE svg PUBLIC "-//W3C//DTD SVG 20010904//EN"
 "http://www.w3.org/TR/2001/REC-SVG-20010904/DTD/svg10.dtd">
<svg version="1.0" xmlns="http://www.w3.org/2000/svg"
 width="344.000000pt" height="256.000000pt" viewBox="0 0 344.000000 256.000000"
 preserveAspectRatio="xMidYMid meet">
<metadata>
Created by potrace 1.16, written by Peter Selinger 2001-2019
</metadata>
<g transform="translate(0.000000,256.000000) scale(0.100000,-0.100000)"
fill="#000000" stroke="none">
<path d="M3119 2476 c-2 -2 -128 -7 -279 -11 -282 -7 -304 -11 -295 -49 6 -24
13 -142 15 -236 1 -69 20 -114 41 -93 8 8 5 15 -9 24 -17 13 -20 31 -24 171
-6 186 -44 166 324 170 247 3 247 3 254 -42 9 -67 12 -71 13 -13 1 51 -22 96
-40 79z"/>
<path d="M2185 2457 c-159 -4 -296 -10 -304 -12 -11 -4 -12 -65 -7 -363 3
-196 7 -434 8 -528 1 -154 3 -172 20 -183 12 -7 18 -8 18 -1 0 6 -6 13 -13 15
-20 8 -32 1041 -11 1049 7 3 15 0 17 -7 3 -9 7 -9 18 0 10 8 92 13 276 15 304
3 273 19 273 -131 0 -80 -2 -92 -14 -82 -26 22 -100 10 -104 -16 -2 -13 1 -23
7 -23 6 0 11 -5 11 -12 0 -6 -3 -8 -7 -4 -4 4 -13 -8 -19 -26 -11 -33 -12 -33
-75 -34 -35 -1 -71 3 -80 7 -9 5 -19 5 -23 1 -4 -3 -48 -7 -98 -8 -107 -3
-158 -11 -158 -25 0 -6 4 -8 9 -4 6 3 24 -9 42 -26 51 -50 79 -58 160 -44 38
7 72 15 76 18 3 4 15 0 27 -8 11 -8 30 -15 41 -14 14 0 8 6 -19 18 -39 17 -39
17 -11 39 15 12 38 22 51 22 38 0 69 16 83 44 10 18 20 24 32 21 9 -3 19 1 22
9 4 10 1 13 -10 9 -17 -7 -33 12 -33 40 0 12 8 17 30 17 35 0 54 -28 44 -66
-5 -20 -4 -25 5 -20 16 10 3 -43 -16 -66 -13 -14 -12 -17 6 -23 25 -8 28 -40
5 -49 -9 -4 -32 -4 -50 0 -36 7 -40 -1 -25 -40 7 -19 8 -19 15 -1 6 17 9 16
25 -11 10 -16 25 -35 34 -43 20 -16 25 -169 6 -188 -7 -7 -7 -34 0 -89 14
-111 21 -248 13 -261 -6 -9 -225 -19 -309 -14 -7 1 -13 12 -13 25 0 14 -4 28
-10 31 -6 4 -10 -8 -10 -28 0 -35 0 -35 -107 -39 -60 -2 -118 0 -130 4 -30 10
-29 -5 1 -21 14 -8 30 -10 38 -5 19 12 172 12 180 -1 5 -6 8 -5 8 3 0 9 40 12
168 12 161 0 168 -1 169 -20 1 -14 -4 -20 -18 -20 -11 0 -22 -7 -25 -15 -4 -8
-10 -15 -16 -15 -5 0 -7 3 -5 8 6 9 -12 11 -150 16 -62 2 -113 1 -113 -2 0 -4
-15 -7 -32 -8 -51 -1 -201 -15 -221 -21 -12 -3 -16 -11 -12 -23 3 -10 8 -171
10 -358 3 -198 9 -351 15 -367 6 -17 7 -41 2 -63 -5 -21 -9 -93 -8 -162 1
-125 1 -125 36 -126 379 -15 539 -9 567 19 12 12 14 41 12 153 -4 188 -4 189
1 359 2 86 8 153 14 157 6 4 6 11 -2 21 -8 9 -12 80 -14 220 -1 114 -4 205 -6
202 -16 -16 -29 31 -14 52 12 19 13 41 8 113 -4 51 -3 91 3 94 5 3 7 66 4 147
-9 310 -8 677 2 672 5 -3 4 0 -2 8 -7 7 -13 28 -13 45 0 18 -3 34 -7 36 -5 2
-138 0 -298 -5z m41 -369 c-9 -5 -16 -15 -16 -23 0 -15 -41 -29 -117 -41 -37
-6 -48 -3 -78 20 -64 49 -51 57 96 55 81 -2 125 -6 115 -11z m41 5 c-4 -3 -10
-3 -14 0 -3 4 0 7 7 7 7 0 10 -3 7 -7z m212 -158 c0 -17 -3 -16 -24 10 -32 38
-32 51 0 28 13 -10 24 -27 24 -38z m10 -257 c0 -28 -2 -30 -9 -13 -12 28 -12
45 0 45 6 0 10 -15 9 -32z m1 -414 c0 -2 -12 -4 -26 -4 -14 0 -23 4 -20 9 6 8
46 4 46 -5z m-115 -4 c6 -5 34 -10 64 -12 52 -3 53 -3 48 -33 -2 -16 -8 -39
-12 -49 -6 -14 -5 -17 3 -12 9 5 12 -26 12 -123 0 -131 0 -131 -24 -131 -28 0
-43 -16 -76 -84 -14 -28 -32 -51 -40 -51 -8 1 -29 -10 -47 -22 -38 -28 -74
-33 -156 -23 -34 4 -63 4 -65 0 -4 -9 -42 -1 -59 13 -9 6 -13 6 -13 -2 0 -16
49 -33 75 -27 11 3 27 1 35 -4 12 -8 11 -10 -7 -10 -12 0 -25 -5 -29 -12 -5
-8 -2 -9 10 -5 22 9 57 -26 53 -54 -2 -17 4 -22 31 -25 17 -2 32 0 32 6 0 5
-7 7 -15 4 -8 -4 -15 -1 -15 6 0 7 -7 10 -15 6 -13 -4 -13 -2 -5 14 8 15 6 21
-7 29 -17 10 -17 12 0 25 24 19 111 20 104 1 -3 -7 0 -16 7 -18 10 -4 12 1 9
14 -6 23 19 26 40 4 8 -8 17 -11 21 -8 16 16 3 -28 -15 -51 -21 -27 -20 -56 2
-56 8 0 8 4 -1 15 -17 20 -5 32 15 15 12 -10 15 -10 15 4 0 9 4 16 10 16 5 0
15 18 21 40 9 31 41 79 39 59 -5 -40 -48 -173 -55 -169 -5 3 -9 11 -9 17 1 7
-2 13 -7 13 -5 0 -9 -6 -9 -13 0 -8 -9 -22 -19 -31 -11 -10 -17 -24 -14 -32
17 -44 -9 -107 -64 -161 -59 -56 -64 -73 -7 -24 18 16 39 33 46 38 22 14 38
51 38 87 0 18 7 39 15 46 8 7 15 19 15 27 0 11 4 11 17 -3 14 -14 17 -34 16
-98 -1 -69 0 -73 6 -29 5 37 14 60 33 80 25 26 65 103 53 103 -2 0 -12 -15
-21 -32 -9 -18 -24 -41 -32 -51 -26 -29 -44 32 -27 88 7 22 19 67 26 100 12
60 41 129 58 139 16 11 23 -88 6 -100 -19 -14 -19 -28 0 -20 17 6 21 -29 6
-53 -6 -9 -6 -22 0 -34 8 -13 6 -30 -5 -58 -18 -43 -22 -73 -7 -50 12 19 22
-56 20 -152 -1 -60 -5 -80 -18 -87 -14 -8 -14 -9 2 -10 21 0 22 -29 3 -56 -14
-18 -29 -19 -248 -20 -128 -1 -250 2 -270 6 -23 5 -41 3 -47 -3 -8 -8 -11 1
-11 31 0 36 3 42 23 43 22 2 22 2 0 6 -33 6 -28 23 7 23 17 0 30 5 30 10 0 6
-6 10 -12 9 -49 -6 -50 -5 -49 109 1 129 -8 728 -11 794 -3 46 -3 46 49 53
103 13 211 3 234 -21 11 -12 19 -25 18 -30 -1 -5 2 -36 7 -69 9 -60 9 -60 14
0 3 33 0 76 -6 95 -12 35 -12 35 69 37 45 1 86 -2 92 -7z m95 -383 c0 -2 -11
-18 -25 -37 -14 -18 -22 -36 -19 -39 3 -3 9 1 14 9 8 12 10 12 10 2 0 -18 -32
-72 -43 -72 -4 0 -19 -24 -32 -52 -16 -36 -24 -46 -24 -31 -1 13 10 46 23 75
13 29 33 74 45 101 11 26 27 47 36 47 8 0 15 -1 15 -3z m30 -11 c0 -7 -7 -19
-15 -26 -16 -13 -20 -3 -9 24 8 20 24 21 24 2z m-150 -145 c-15 -29 -25 -32
-46 -16 -23 17 -6 35 34 35 19 0 21 -3 12 -19z m-10 -195 c0 -3 -5 -8 -12 -12
-7 -4 -8 -3 -4 4 7 12 16 16 16 8z"/>
<path d="M2108 2079 c19 -6 39 -6 49 -1 11 7 1 9 -33 10 -47 0 -48 -1 -16 -9z"/>
<path d="M2356 1241 c-4 -5 -2 -12 3 -15 5 -4 12 -2 15 3 4 5 2 12 -3 15 -5 4
-12 2 -15 -3z"/>
<path d="M2200 1048 c0 -28 -58 -80 -81 -73 -13 4 -18 0 -21 -16 -5 -34 -25
-33 -32 1 -3 17 -10 29 -16 25 -6 -4 -6 -15 1 -33 7 -18 7 -28 0 -30 -17 -6
-13 -31 12 -83 20 -45 44 -70 30 -32 -6 14 -2 13 21 -5 16 -12 37 -22 47 -22
24 0 24 -9 2 -26 -16 -12 -15 -13 12 -13 17 0 24 3 17 6 -6 2 -9 9 -6 15 7 11
-31 54 -61 71 -17 8 -18 8 -10 -4 6 -8 -2 -1 -17 16 -35 38 -35 59 0 84 36 25
78 21 106 -11 23 -27 111 -98 120 -98 18 0 2 39 -20 50 -14 8 -30 22 -35 33
-7 12 -17 16 -30 12 -14 -5 -19 -2 -19 13 0 11 -7 22 -15 26 -20 7 -19 18 3
43 29 34 65 23 128 -39 32 -32 60 -55 63 -53 12 12 -125 125 -151 125 -25 0
-33 9 -29 33 0 4 -3 7 -9 7 -5 0 -10 -10 -10 -22z"/>
<path d="M2004 974 c-4 -10 -15 -39 -25 -63 -11 -24 -20 -60 -20 -80 -1 -36
-1 -36 -8 -6 -5 23 -8 26 -13 13 -15 -37 69 -198 103 -198 6 0 -10 27 -35 59
-25 33 -46 65 -46 73 0 8 4 7 11 -4 5 -10 15 -18 21 -18 7 0 7 4 1 13 -19 23
-23 88 -7 118 8 16 12 29 9 29 -3 0 2 16 10 37 8 20 13 38 10 41 -2 3 -7 -4
-11 -14z"/>
<path d="M2080 901 c0 -6 4 -13 10 -16 6 -3 7 1 4 9 -7 18 -14 21 -14 7z"/>
<path d="M2010 762 c0 -4 14 -13 30 -19 17 -6 30 -8 30 -3 0 4 -13 13 -30 19
-16 5 -30 7 -30 3z"/>
<path d="M2099 648 c-7 -23 -5 -39 4 -45 7 -3 9 -3 5 2 -4 4 -3 16 3 26 6 13
6 19 -1 19 -5 0 -10 -1 -11 -2z"/>
<path d="M2234 619 c-14 -29 -14 -31 0 -26 8 3 18 2 21 -3 11 -18 23 -10 18
10 -3 11 -9 20 -14 20 -5 0 -6 7 -3 15 11 27 -5 15 -22 -16z"/>
<path d="M2350 480 c0 -7 3 -10 7 -7 3 4 3 10 0 14 -4 3 -7 0 -7 -7z"/>
<path d="M2380 315 c0 -12 59 -60 65 -53 2 2 -12 17 -31 34 -18 17 -34 26 -34
19z"/>
<path d="M2186 263 c-6 -14 -5 -15 5 -6 7 7 10 15 7 18 -3 3 -9 -2 -12 -12z"/>
<path d="M2101 202 c-1 -20 2 -22 22 -16 12 4 99 11 192 15 170 7 170 7 -17 4
-131 -1 -189 1 -192 9 -2 6 -5 1 -5 -12z"/>
<path d="M475 2450 c-16 -7 -17 -9 -3 -9 9 -1 20 4 23 9 7 11 7 11 -20 0z"/>
<path d="M510 2451 c0 -12 202 -12 221 0 9 5 -29 9 -103 9 -65 0 -118 -4 -118
-9z"/>
<path d="M770 2450 c-22 -7 -20 -8 15 -9 22 -1 47 -1 56 -2 14 0 16 -13 13
-84 -1 -47 -5 -89 -8 -94 -4 -5 -2 -12 3 -16 5 -3 10 -34 10 -69 0 -75 -11
-88 -213 -246 -12 -9 -53 -17 -110 -21 -91 -6 -91 -6 6 -7 56 -1 99 2 103 8
14 22 166 131 175 125 6 -3 10 -1 10 5 0 7 9 23 20 37 18 23 20 39 18 195 -1
93 -5 171 -8 173 -16 9 -68 12 -90 5z"/>
<path d="M946 2452 c-16 -4 -17 -17 -14 -177 2 -95 6 -176 10 -180 3 -4 26 -2
50 4 43 10 43 10 3 8 -40 -2 -40 -2 -46 89 -4 50 -6 125 -5 165 3 74 3 74 144
76 78 1 144 -2 147 -7 2 -4 24 -4 48 2 23 5 92 7 151 6 109 -3 109 -3 108
-281 0 -304 2 -295 -110 -414 -16 -18 -26 -33 -21 -33 11 0 75 70 106 115 13
19 26 35 29 35 6 0 0 -510 -6 -511 -71 -9 -566 -2 -577 9 -11 12 -23 538 -15
690 1 18 -2 30 -7 28 -12 -8 -1 -718 11 -733 12 -15 587 -16 606 0 10 8 11
120 7 560 -6 549 -6 549 -304 551 -163 0 -305 -1 -315 -2z"/>
<path d="M398 2443 c7 -3 16 -2 19 1 4 3 -2 6 -13 5 -11 0 -14 -3 -6 -6z"/>
<path d="M2980 2432 c0 -12 19 -26 26 -19 2 2 -2 10 -11 17 -9 8 -15 8 -15 2z"/>
<path d="M3065 2414 c-11 -8 -25 -18 -32 -22 -8 -5 -9 -28 -4 -82 8 -75 8 -75
10 0 1 53 4 71 11 60 8 -13 10 -13 10 2 0 9 12 26 28 37 16 13 21 20 12 20 -8
0 -24 -7 -35 -15z"/>
<path d="M1396 2400 c4 -14 11 -43 15 -65 7 -37 8 -36 5 13 -2 29 -9 59 -16
65 -10 10 -11 7 -4 -13z"/>
<path d="M1130 2392 c-68 -3 -79 -6 -112 -35 -37 -32 -38 -33 -27 -77 5 -24 8
-53 5 -63 -4 -15 -2 -16 10 -6 9 7 12 19 8 28 -45 109 3 141 210 141 149 0
137 6 121 -60 -2 -8 -4 -18 -4 -22 -1 -5 -34 -9 -73 -10 -73 -2 -73 -2 -5 -5
65 -4 68 -5 61 -26 -6 -19 -5 -20 8 -9 15 12 48 7 48 -8 0 -4 -9 -15 -20 -25
-11 -10 -18 -20 -16 -23 3 -2 19 10 36 27 29 28 46 36 68 29 4 -2 6 -7 4 -12
-2 -5 4 -4 12 3 20 17 11 31 -20 31 -13 0 -24 5 -24 12 0 7 -6 4 -12 -5 -16
-21 -58 -12 -58 12 1 9 7 34 15 56 8 21 12 42 9 45 -6 5 -125 7 -244 2z"/>
<path d="M1067 2264 c-16 -9 -27 -18 -24 -21 3 -2 15 1 28 8 12 6 45 15 73 19
51 8 51 8 1 8 -28 1 -63 -6 -78 -14z"/>
<path d="M3158 2253 c-2 -10 -1 -31 3 -48 6 -26 7 -23 8 18 1 48 -3 61 -11 30z"/>
<path d="M1160 2236 c0 -2 7 -9 15 -16 13 -11 14 -10 9 4 -5 14 -24 23 -24 12z"/>
<path d="M1308 2202 c-4 -15 -2 -22 8 -22 9 0 11 -6 7 -17 -6 -16 -5 -16 10
-4 15 11 15 15 3 25 -7 6 -16 18 -18 26 -3 10 -6 8 -10 -8z"/>
<path d="M1430 2210 c0 -7 3 -10 7 -7 3 4 3 10 0 14 -4 3 -7 0 -7 -7z"/>
<path d="M3030 1995 c0 -120 3 -216 6 -213 6 7 6 420 -1 427 -3 2 -5 -94 -5
-214z"/>
<path d="M1193 2176 c-113 -15 -111 -23 3 -12 52 6 94 13 94 18 0 4 -3 7 -7 7
-5 -1 -45 -7 -90 -13z"/>
<path d="M1278 2133 c7 -3 16 -2 19 1 4 3 -2 6 -13 5 -11 0 -14 -3 -6 -6z"/>
<path d="M2630 2113 c0 -5 23 -8 50 -8 28 -1 50 3 50 7 0 4 -22 8 -50 8 -27 0
-50 -3 -50 -7z"/>
<path d="M2378 2103 c-10 -2 -18 -11 -18 -18 0 -7 -2 -20 -5 -27 -6 -14 18
-31 64 -43 16 -5 21 -4 17 4 -4 6 -15 11 -25 11 -10 0 -24 7 -31 15 -7 8 -9
15 -4 15 5 0 14 11 21 25 6 14 8 24 5 24 -4 -1 -15 -3 -24 -6z"/>
<path d="M2546 2084 c-4 -11 -3 -20 3 -22 6 -2 9 -8 6 -13 -3 -4 4 -29 15 -55
12 -25 19 -52 16 -60 -3 -7 -1 -26 4 -41 6 -19 5 -54 -5 -108 -14 -80 -14 -80
-11 40 1 66 -1 131 -4 145 -4 14 -8 -54 -9 -150 0 -104 3 -169 8 -161 9 15 5
-133 -8 -236 -6 -52 -5 -66 9 -78 17 -16 50 -21 50 -7 0 4 55 8 123 10 67 2
154 5 192 8 48 3 65 1 55 -6 -19 -12 123 -2 158 11 34 13 23 19 -18 11 -42 -9
-83 -4 -75 9 4 5 2 9 -4 9 -5 0 -11 -4 -13 -9 -1 -5 -85 -11 -186 -13 -178 -3
-196 0 -174 28 4 5 -2 -1 -14 -14 -15 -17 -30 -22 -55 -21 -34 3 -34 3 -27
158 4 86 13 185 19 221 6 36 11 72 11 80 1 8 6 18 11 22 6 4 3 31 -8 77 -18
67 -15 103 5 71 8 -13 10 -12 10 3 0 11 -8 17 -24 17 -13 0 -27 7 -30 16 -8
22 -8 26 4 19 5 -3 40 -7 77 -9 37 -2 82 -6 98 -10 30 -6 30 -6 0 9 -30 16
-30 16 20 12 51 -5 75 -1 75 11 0 4 -30 5 -67 4 -183 -9 -193 -9 -212 17 -17
22 -18 22 -25 5z"/>
<path d="M1345 2080 c-3 -5 -1 -10 4 -10 6 0 11 5 11 10 0 6 -2 10 -4 10 -3 0
-8 -4 -11 -10z"/>
<path d="M1449 2038 c23 -26 23 -26 -5 -31 -16 -2 -8 -4 18 -3 36 0 43 3 30
10 -9 5 -19 12 -22 15 -3 3 -14 13 -25 21 -16 11 -15 9 4 -12z"/>
<path d="M1395 2020 c3 -5 8 -10 11 -10 3 0 2 5 -1 10 -3 6 -8 10 -11 10 -3 0
-2 -4 1 -10z"/>
<path d="M861 1764 c0 -250 -9 -364 -32 -364 -7 0 -16 172 -10 204 7 37 4 143
-3 136 -17 -17 -11 -329 7 -347 20 -21 31 -1 46 89 10 61 6 525 -5 537 -2 3
-4 -112 -3 -255z"/>
<path d="M2677 1988 c3 -18 9 -43 15 -55 6 -11 8 -27 5 -35 -3 -8 -8 -4 -15
12 -10 23 -11 23 -11 4 -1 -12 6 -27 14 -34 8 -7 15 -16 15 -21 0 -15 -19 -10
-40 11 -13 13 -20 15 -20 7 0 -7 15 -27 34 -44 26 -23 32 -33 23 -42 -7 -7 -8
-11 0 -11 25 0 31 25 21 90 -6 36 -11 84 -12 107 -1 32 -5 43 -17 43 -12 0
-15 -8 -12 -32z"/>
<path d="M830 2000 c0 -7 3 -10 7 -7 3 4 3 10 0 14 -4 3 -7 0 -7 -7z"/>
<path d="M967 1998 c6 -10 122 -9 148 1 12 5 -16 8 -66 7 -48 -1 -85 -4 -82
-8z"/>
<path d="M1256 1959 c-14 -17 -26 -36 -26 -42 0 -7 3 -7 8 -1 4 5 20 24 36 42
17 17 25 32 19 32 -6 0 -23 -14 -37 -31z"/>
<path d="M2097 1958 c3 -18 12 -51 19 -73 14 -40 14 -40 9 9 -3 27 -5 59 -5
72 0 15 -6 24 -15 24 -11 0 -13 -8 -8 -32z"/>
<path d="M2795 1976 c17 -7 55 -19 85 -26 30 -7 68 -22 83 -32 16 -11 31 -18
33 -15 11 11 -49 40 -129 63 -91 26 -117 30 -72 10z"/>
<path d="M1928 1973 c17 -2 47 -2 65 0 17 2 3 4 -33 4 -36 0 -50 -2 -32 -4z"/>
<path d="M2038 1973 c7 -3 16 -2 19 1 4 3 -2 6 -13 5 -11 0 -14 -3 -6 -6z"/>
<path d="M1483 1963 c9 -2 25 -2 35 0 9 3 1 5 -18 5 -19 0 -27 -2 -17 -5z"/>
<path d="M1980 1921 c24 -31 52 -52 93 -70 59 -26 59 -26 52 -81 -4 -30 -11
-58 -17 -61 -5 -4 -3 -9 6 -12 12 -5 17 3 21 31 4 20 8 48 11 62 5 33 -2 42
-56 65 -25 11 -67 40 -95 65 -49 45 -49 45 -15 1z"/>
<path d="M2383 1933 c4 -3 10 -3 14 0 3 4 0 7 -7 7 -7 0 -10 -3 -7 -7z"/>
<path d="M1011 1914 c0 -11 3 -14 6 -6 3 7 2 16 -1 19 -3 4 -6 -2 -5 -13z"/>
<path d="M1520 1900 c0 -7 3 -10 7 -7 3 4 3 10 0 14 -4 3 -7 0 -7 -7z"/>
<path d="M800 1881 c0 -5 5 -13 10 -16 6 -3 10 -2 10 4 0 5 -4 13 -10 16 -5 3
-10 2 -10 -4z"/>
<path d="M1004 1845 c3 -22 9 -71 12 -110 6 -68 23 -125 24 -81 0 42 -23 202
-32 216 -6 10 -7 2 -4 -25z"/>
<path d="M2930 1871 c0 -9 48 -36 54 -30 3 2 -9 12 -25 21 -16 9 -29 14 -29 9z"/>
<path d="M2385 1731 c-3 -5 -3 -54 0 -108 3 -54 6 -119 7 -145 1 -26 6 -44 10
-40 5 5 4 46 0 93 -4 46 -7 112 -5 147 3 60 0 72 -12 53z"/>
<path d="M1248 1703 c7 -3 16 -2 19 1 4 3 -2 6 -13 5 -11 0 -14 -3 -6 -6z"/>
<path d="M1354 1655 c4 -24 16 -30 16 -7 0 12 -4 22 -9 22 -5 0 -8 -7 -7 -15z"/>
<path d="M2442 1628 c-14 -14 -16 -28 -3 -28 5 0 11 9 14 20 6 23 5 24 -11 8z"/>
<path d="M1354 1595 c-10 -8 -14 -14 -9 -15 15 0 40 18 34 24 -3 3 -14 -1 -25
-9z"/>
<path d="M1100 1580 c0 -7 3 -10 7 -7 3 4 3 10 0 14 -4 3 -7 0 -7 -7z"/>
<path d="M1000 1564 c0 -16 24 -64 33 -64 4 0 0 15 -9 33 -20 38 -24 44 -24
31z"/>
<path d="M1090 1550 c0 -7 3 -10 7 -7 3 4 3 10 0 14 -4 3 -7 0 -7 -7z"/>
<path d="M1111 1544 c-1 -11 9 -29 21 -40 13 -11 17 -12 11 -3 -7 8 -17 26
-22 40 -9 22 -10 22 -10 3z"/>
<path d="M2451 1550 c0 -8 4 -22 9 -30 12 -18 12 -2 0 25 -6 13 -9 15 -9 5z"/>
<path d="M1145 1460 c3 -5 25 -18 49 -29 26 -11 47 -28 51 -41 5 -17 9 -19 15
-9 6 8 2 18 -8 26 -15 11 -13 12 15 13 38 0 65 -9 58 -20 -3 -5 -1 -11 5 -15
5 -3 10 1 10 10 0 9 10 25 23 36 22 18 22 18 -1 19 -13 0 -21 -3 -18 -8 11
-19 -119 -13 -159 8 -45 23 -49 24 -40 10z"/>
<path d="M867 1393 c-7 -39 -10 -42 -50 -51 -42 -10 -42 -10 0 -11 49 -1 66
19 61 72 -3 31 -3 31 -11 -10z"/>
<path d="M1161 1415 c0 -18 28 -61 29 -44 0 8 -7 24 -15 35 -8 10 -14 15 -14
9z"/>
<path d="M280 1340 c8 -5 28 -10 44 -10 39 0 30 6 -19 13 -27 4 -35 3 -25 -3z"/>
<path d="M2569 1284 c-5 -7 -8 -81 -6 -172 2 -88 1 -159 -3 -157 -3 2 -6 -8
-7 -22 -1 -19 1 -22 8 -12 10 17 9 52 15 -381 3 -216 9 -339 16 -347 8 -10 42
-12 127 -11 116 2 116 2 -4 8 -77 4 -17 6 168 5 303 -1 316 1 302 44 -3 10
-12 22 -20 25 -13 4 -12 1 1 -19 9 -14 15 -25 13 -26 -2 -1 -135 -2 -296 -3
-292 -3 -292 -3 -291 339 0 189 -2 347 -6 353 -3 5 -6 90 -7 188 -1 179 -1
179 148 180 83 0 154 3 159 6 5 3 23 4 39 3 17 -1 49 -3 73 -4 28 -1 41 -5 36
-12 -3 -6 -15 -9 -25 -6 -11 3 -19 1 -19 -4 0 -5 9 -9 20 -9 27 0 28 -2 34
-179 3 -85 8 -156 11 -159 6 -7 6 -10 6 203 -1 180 -1 180 -242 180 -167 0
-244 -3 -250 -11z"/>
<path d="M3151 1274 c8 -10 16 -53 20 -103 6 -86 6 -86 7 5 1 59 -2 94 -10
102 -18 18 -32 14 -17 -4z"/>
<path d="M1420 1269 c-30 -5 -147 -8 -259 -7 -167 3 -205 0 -209 -11 -3 -10 0
-11 9 -5 30 18 369 2 369 -17 0 -6 -4 -7 -10 -4 -16 10 -12 0 10 -25 11 -13
20 -19 20 -14 0 6 -5 15 -12 22 -9 9 -8 12 5 12 9 0 24 -11 33 -25 9 -14 20
-22 26 -19 5 3 -4 19 -21 35 -17 16 -26 31 -20 35 19 11 164 15 179 5 23 -15
23 -498 0 -492 -36 8 -164 9 -150 1 8 -5 25 -6 38 -3 44 11 133 -17 130 -41
-2 -17 -12 -22 -53 -27 -50 -6 -50 -6 -8 -7 23 -1 44 -6 47 -10 12 -19 19
-259 7 -266 -6 -4 -11 -12 -11 -17 0 -6 5 -7 11 -3 8 5 10 -15 7 -70 -2 -42 0
-76 3 -76 14 0 18 72 12 220 -3 85 -4 175 -3 200 2 25 3 63 3 85 -3 548 0 511
-42 523 -21 7 -42 11 -47 11 -5 -1 -34 -6 -64 -10z"/>
<path d="M279 1254 c-7 -9 -14 -43 -15 -77 -3 -62 -3 -62 6 -9 10 67 31 92 73
87 29 -4 50 -21 60 -49 2 -6 8 -8 12 -4 5 5 1 16 -8 26 -10 10 -17 24 -17 30
0 19 -95 15 -111 -4z"/>
<path d="M762 1234 c-19 -19 -31 -38 -27 -42 3 -3 22 11 42 31 44 48 48 43 25
-24 -45 -129 -51 -149 -44 -149 4 0 6 -21 5 -47 -1 -34 5 -16 22 62 32 150 44
185 67 185 21 0 21 7 3 -105 -16 -99 -18 -136 -4 -90 24 82 31 189 13 202 -31
23 -67 15 -102 -23z"/>
<path d="M2685 1260 c-16 -7 -17 -9 -3 -9 9 -1 20 4 23 9 7 11 7 11 -20 0z"/>
<path d="M945 1033 c3 -109 7 -298 10 -421 5 -235 6 -242 33 -242 15 1 15 2
-1 14 -14 11 -18 26 -17 68 4 129 -14 778 -21 778 -5 0 -6 -89 -4 -197z"/>
<path d="M1062 1205 c0 -16 2 -22 5 -12 2 9 2 23 0 30 -3 6 -5 -1 -5 -18z"/>
<path d="M1506 1217 c3 -10 9 -15 12 -12 3 3 0 11 -7 18 -10 9 -11 8 -5 -6z"/>
<path d="M403 1158 c-17 -29 -1 -218 19 -218 6 0 7 7 2 18 -5 9 -9 61 -9 115
0 53 -1 97 -2 97 -1 0 -5 -6 -10 -12z"/>
<path d="M693 1153 c4 -3 10 -3 14 0 3 4 0 7 -7 7 -7 0 -10 -3 -7 -7z"/>
<path d="M1390 1151 c0 -5 5 -13 10 -16 6 -3 10 -2 10 4 0 5 -4 13 -10 16 -5
3 -10 2 -10 -4z"/>
<path d="M876 945 c2 -71 0 -156 -5 -187 -4 -32 -5 -58 -2 -58 8 0 12 -234 5
-277 -3 -18 -11 -33 -20 -35 -9 -2 -22 -20 -29 -40 -13 -38 -13 -38 16 -38 19
0 29 -5 29 -15 0 -12 -7 -14 -27 -9 -22 4 -25 3 -13 -5 8 -6 22 -11 31 -11 14
0 16 -6 9 -36 -15 -67 -21 -69 -204 -68 -265 2 -376 12 -376 34 0 11 -5 22
-10 25 -12 8 -3 -44 10 -59 10 -10 517 -21 556 -12 22 6 25 9 13 17 -8 5 -9 9
-2 9 14 0 33 53 33 95 0 35 -21 60 -44 52 -23 -9 -7 32 19 49 23 15 23 15 22
312 -1 163 -4 317 -8 342 -4 25 -6 -12 -3 -85z"/>
<path d="M1000 1040 c0 -7 3 -10 7 -7 3 4 3 10 0 14 -4 3 -7 0 -7 -7z"/>
<path d="M3160 1030 c0 -7 3 -10 7 -7 3 4 3 10 0 14 -4 3 -7 0 -7 -7z"/>
<path d="M1001 994 c0 -11 3 -14 6 -6 3 7 2 16 -1 19 -3 4 -6 -2 -5 -13z"/>
<path d="M1403 960 c0 -30 2 -43 4 -27 2 15 2 39 0 55 -2 15 -4 2 -4 -28z"/>
<path d="M535 981 c-28 -12 -85 -66 -85 -81 0 -7 17 7 38 30 28 32 45 43 69
44 17 0 29 4 26 9 -5 9 -22 8 -48 -2z"/>
<path d="M1266 981 c4 -8 11 -28 15 -45 6 -29 7 -29 8 -5 1 14 -6 34 -15 45
-8 10 -12 13 -8 5z"/>
<path d="M633 927 c20 -26 41 -67 47 -90 16 -60 21 -68 14 -22 -7 50 -35 103
-69 135 -23 20 -21 16 8 -23z"/>
<path d="M1001 954 c0 -11 3 -14 6 -6 3 7 2 16 -1 19 -3 4 -6 -2 -5 -13z"/>
<path d="M1000 875 c0 -32 3 -56 6 -52 8 7 7 97 -1 105 -3 3 -5 -21 -5 -53z"/>
<path d="M1329 901 c13 -23 71 -45 84 -32 5 5 -3 9 -19 9 -16 0 -35 8 -45 21
-21 26 -33 28 -20 2z"/>
<path d="M778 887 c40 -42 30 -97 -34 -184 -9 -13 -13 -23 -8 -23 21 0 74 97
78 140 4 45 -20 90 -47 90 -6 0 -1 -10 11 -23z"/>
<path d="M1440 850 c0 -7 3 -10 7 -7 3 4 3 10 0 14 -4 3 -7 0 -7 -7z"/>
<path d="M1170 823 c0 -16 5 -35 11 -43 8 -12 10 -10 5 10 -5 24 -4 24 19 -5
14 -16 25 -25 25 -19 0 6 -7 17 -15 24 -9 7 -13 20 -10 28 5 14 -10 31 -27 32
-5 0 -8 -12 -8 -27z"/>
<path d="M530 830 c0 -7 3 -10 7 -7 3 4 3 10 0 14 -4 3 -7 0 -7 -7z"/>
<path d="M500 821 c0 -5 7 -15 17 -22 15 -13 15 -12 4 9 -12 23 -21 28 -21 13z"/>
<path d="M1258 805 c23 -15 48 -25 54 -23 15 5 -33 36 -68 43 -25 6 -23 3 14
-20z"/>
<path d="M1371 804 c23 -25 35 -25 26 -1 -3 8 -15 17 -27 20 -22 6 -22 6 1
-19z"/>
<path d="M1093 775 c23 -46 51 -66 99 -71 23 -2 61 -6 83 -8 28 -4 34 -3 20 4
-11 4 -46 12 -78 15 -31 4 -60 12 -63 16 -3 5 -10 7 -15 4 -5 -4 -9 -3 -9 2
-1 4 -12 22 -26 38 -26 30 -26 30 -11 0z"/>
<path d="M1330 760 c-13 -9 -13 -10 0 -10 8 0 22 5 30 10 13 9 13 10 0 10 -8
0 -22 -5 -30 -10z"/>
<path d="M633 750 c-24 -10 -31 -34 -12 -45 6 -4 9 0 7 11 -7 43 29 23 51 -28
53 -119 103 -220 107 -215 2 2 -15 46 -39 98 -25 52 -54 115 -66 142 -11 26
-22 47 -24 46 -1 0 -12 -4 -24 -9z"/>
<path d="M1273 753 c4 -3 10 -3 14 0 3 4 0 7 -7 7 -7 0 -10 -3 -7 -7z"/>
<path d="M1323 733 c4 -3 10 -3 14 0 3 4 0 7 -7 7 -7 0 -10 -3 -7 -7z"/>
<path d="M1340 700 c14 -9 119 -15 109 -6 -2 2 -31 6 -64 9 -39 4 -54 3 -45
-3z"/>
<path d="M630 681 c0 -5 5 -13 10 -16 6 -3 10 -2 10 4 0 5 -4 13 -10 16 -5 3
-10 2 -10 -4z"/>
<path d="M1088 623 c3 -45 7 -62 13 -51 9 16 1 118 -10 118 -3 0 -4 -30 -3
-67z"/>
<path d="M1353 613 c4 -3 10 -3 14 0 3 4 0 7 -7 7 -7 0 -10 -3 -7 -7z"/>
<path d="M1157 594 c6 -16 77 -37 101 -31 11 3 7 5 -8 6 -14 0 -42 9 -62 19
-26 14 -35 15 -31 6z"/>
<path d="M2649 562 c11 -22 26 -44 32 -47 6 -4 1 11 -10 33 -11 22 -26 44 -32
47 -6 4 -1 -11 10 -33z"/>
<path d="M1240 496 c0 -2 8 -10 18 -17 15 -13 16 -12 3 4 -13 16 -21 21 -21
13z"/>
<path d="M1305 480 c3 -5 8 -10 11 -10 3 0 2 5 -1 10 -3 6 -8 10 -11 10 -3 0
-2 -4 1 -10z"/>
<path d="M740 370 c-6 -11 -8 -20 -6 -20 3 0 10 9 16 20 6 11 8 20 6 20 -3 0
-10 -9 -16 -20z"/>
<path d="M1503 383 c4 -3 10 -3 14 0 3 4 0 7 -7 7 -7 0 -10 -3 -7 -7z"/>
<path d="M2710 270 c0 -7 3 -10 7 -7 3 4 3 10 0 14 -4 3 -7 0 -7 -7z"/>
<path d="M797 222 c-10 -10 -17 -24 -17 -32 0 -7 10 -1 21 14 24 31 21 45 -4
18z"/>
<path d="M1536 214 c-4 -9 -4 -19 -1 -22 2 -3 7 3 11 12 4 9 4 19 1 22 -2 3
-7 -3 -11 -12z"/>
<path d="M1564 221 c3 -5 -2 -19 -12 -31 -18 -22 -25 -23 -251 -27 -293 -6
-338 -2 -344 35 -4 19 -4 17 -3 -8 1 -35 1 -35 299 -35 284 0 299 1 313 19 16
23 19 56 3 56 -5 0 -8 -4 -5 -9z"/>
<path d="M300 209 c0 -5 5 -7 10 -4 6 3 10 8 10 11 0 2 -4 4 -10 4 -5 0 -10
-5 -10 -11z"/>
</g>
</svg>
