<?xml version="1.0" standalone="no"?>
<!DOCTYPE svg PUBLIC "-//W3C//DTD SVG 20010904//EN"
 "http://www.w3.org/TR/2001/REC-SVG-20010904/DTD/svg10.dtd">
<svg version="1.0" xmlns="http://www.w3.org/2000/svg"
 width="344.000000pt" height="256.000000pt" viewBox="0 0 344.000000 256.000000"
 preserveAspectRatio="xMidYMid meet">
<metadata>
Created by potrace 1.16, written by Peter Selinger 2001-2019
</metadata>
<g transform="translate(0.000000,256.000000) scale(0.100000,-0.100000)"
fill="#000000" stroke="none">
<path d="M30 2240 c8 -5 38 -10 65 -11 28 0 70 -4 95 -9 41 -8 39 -9 -20 -5
-37 2 -56 0 -45 -4 27 -10 354 -35 362 -27 4 3 -20 6 -53 7 -32 0 -52 3 -44 6
18 8 246 -13 445 -39 83 -11 160 -19 172 -19 12 0 25 -4 28 -9 3 -6 11 -10 16
-10 6 0 8 3 5 8 -2 4 41 2 97 -5 56 -6 164 -17 239 -24 76 -7 136 -15 134 -18
-2 -3 26 -7 63 -8 95 -3 243 -20 201 -23 -83 -7 69 -15 170 -9 58 3 106 5 108
3 2 -1 -8 -18 -22 -39 -14 -20 -28 -46 -32 -58 -3 -12 -20 -37 -37 -54 -24
-26 -27 -33 -14 -33 9 0 17 -6 17 -14 0 -8 4 -17 8 -20 4 -2 6 10 4 28 -3 24
2 39 16 52 10 11 22 31 25 45 14 59 91 118 128 99 11 -6 16 -5 16 7 0 15 -62
14 -243 -2 -21 -2 -56 0 -78 5 -23 5 -138 19 -256 31 -118 11 -334 34 -480 50
-271 31 -558 60 -780 79 -69 6 -155 15 -192 21 -89 12 -138 12 -118 -1z m237
-27 c-4 -3 -10 -3 -14 0 -3 4 0 7 7 7 7 0 10 -3 7 -7z m86 -10 c-13 -2 -35 -2
-50 0 -16 2 -5 4 22 4 28 0 40 -2 28 -4z m1514 -160 c-4 -3 -10 -3 -14 0 -3 4
0 7 7 7 7 0 10 -3 7 -7z"/>
<path d="M623 2163 c15 -2 39 -2 55 0 15 2 2 4 -28 4 -30 0 -43 -2 -27 -4z"/>
<path d="M199 2146 c-88 -31 -137 -85 -109 -119 31 -36 57 -62 66 -64 5 -1 27
-9 49 -17 40 -15 40 -15 -44 -16 -143 0 -84 -9 92 -13 92 -2 170 -7 173 -10 4
-3 -3 -18 -14 -34 -27 -39 -56 -103 -49 -109 3 -3 22 27 43 66 36 69 73 110
100 110 8 0 13 -6 11 -12 -1 -7 4 -12 11 -11 16 4 15 0 -8 -27 -11 -13 -20
-17 -20 -10 0 9 -6 8 -20 -5 -11 -10 -20 -23 -20 -28 0 -6 9 -2 20 8 17 15 20
16 20 3 0 -9 7 -21 15 -28 9 -8 15 -9 15 -2 0 6 -4 14 -10 17 -13 8 -13 25 1
25 6 0 17 7 26 15 14 14 17 14 33 0 22 -20 48 -10 46 19 -1 23 -9 26 -58 28
-16 0 -28 4 -28 9 0 4 12 10 28 12 15 3 2 3 -28 2 -30 -2 -66 -7 -79 -11 -17
-5 -26 -2 -33 10 -12 21 -26 21 -24 -1 1 -21 -86 -22 -111 -2 -9 8 -13 8 -13
0 0 -28 -127 22 -154 61 -82 116 185 180 374 89 25 -12 37 -14 34 -6 -5 13
-59 36 -129 54 -54 15 -162 13 -206 -3z m241 -227 c0 -4 -7 -6 -15 -3 -8 4
-15 10 -15 15 0 4 7 6 15 3 8 -4 15 -10 15 -15z m169 -13 c8 -9 8 -16 2 -20
-6 -4 -15 3 -21 14 -12 23 2 27 19 6z"/>
<path d="M713 2153 c4 -3 10 -3 14 0 3 4 0 7 -7 7 -7 0 -10 -3 -7 -7z"/>
<path d="M531 2127 c19 -12 40 -36 48 -52 8 -17 18 -31 23 -33 4 -2 8 -8 8
-14 0 -7 -5 -7 -12 -1 -7 5 -26 15 -42 22 -26 11 -28 10 -16 -3 7 -9 20 -16
29 -17 9 -1 5 -4 -9 -9 -17 -5 -29 -3 -36 6 -6 7 -35 30 -65 51 -52 35 -58 37
-144 39 -90 2 -90 2 -10 -5 77 -7 115 -19 143 -48 7 -7 20 -13 27 -13 21 0 30
-21 14 -32 -11 -7 -9 -8 6 -6 16 2 20 -2 18 -24 -2 -35 10 -36 25 -3 10 22 18
25 60 25 62 0 192 -58 220 -97 40 -57 64 -116 58 -143 -2 -15 2 -49 10 -75 20
-68 18 -109 -10 -164 -25 -48 -25 -48 32 -62 57 -13 132 -72 132 -102 0 -7 21
-56 46 -108 72 -146 92 -259 64 -361 -14 -50 3 -106 86 -289 36 -79 71 -160
77 -179 11 -34 11 -34 15 -8 2 15 -4 38 -12 51 -9 13 -13 27 -9 30 3 4 1 7 -6
7 -7 0 -10 4 -6 9 3 5 -2 17 -12 26 -25 26 -5 47 63 68 78 23 88 27 83 32 -8
7 -143 -33 -147 -44 -5 -15 -19 -14 -19 2 0 7 -19 58 -42 112 -42 98 -42 98
-36 234 4 81 3 146 -3 161 -7 19 -9 6 -6 -50 3 -75 3 -75 -6 -2 -8 70 -27 119
-129 331 -9 19 -15 42 -13 52 9 52 -34 610 -50 652 -13 34 -58 63 -58 37 0 -5
7 -10 16 -10 27 0 42 -63 54 -230 6 -91 15 -223 20 -294 14 -185 17 -171 -27
-141 -21 14 -47 25 -58 25 -36 0 -47 14 -36 43 6 15 14 27 18 27 15 0 13 83
-4 143 -12 45 -14 62 -5 65 7 2 12 15 12 28 0 16 -4 23 -11 18 -8 -4 -9 0 -4
15 4 13 2 20 -4 19 -5 -2 -25 22 -43 52 -29 48 -42 60 -106 90 -40 20 -69 39
-65 44 4 4 -1 4 -10 0 -21 -8 -72 36 -81 70 -3 12 -18 29 -35 39 -43 25 -60
21 -20 -6z m656 -1364 c-4 -3 -7 0 -7 7 0 7 3 10 7 7 3 -4 3 -10 0 -14z m63
-137 c0 -12 -5 -7 -19 24 -11 24 -11 24 3 6 9 -11 16 -24 16 -30z"/>
<path d="M808 2143 c6 -2 18 -2 25 0 6 3 1 5 -13 5 -14 0 -19 -2 -12 -5z"/>
<path d="M860 2133 c0 -2 10 -7 22 -12 22 -8 22 -8 -2 -21 -14 -8 -38 -17 -55
-21 -27 -6 -28 -7 -5 -8 27 -1 90 33 90 48 0 5 -11 11 -25 13 -14 3 -25 3 -25
1z"/>
<path d="M2906 2118 c-3 -13 -6 -48 -6 -79 0 -76 -10 -119 -26 -119 -10 0 -13
-7 -9 -23 5 -19 -1 -29 -30 -51 -48 -37 -38 -45 14 -10 32 21 40 31 35 46 -3
12 1 27 12 39 13 15 18 42 22 119 4 98 0 123 -12 78z"/>
<path d="M595 2108 c4 -9 18 -19 31 -22 20 -5 24 -11 18 -29 -6 -21 -5 -21 12
-5 20 20 5 48 -25 48 -9 0 -23 6 -30 13 -10 10 -11 9 -6 -5z"/>
<path d="M2240 2062 c0 -4 21 -27 47 -52 40 -38 44 -40 24 -12 -12 17 -26 32
-31 32 -4 0 -10 7 -14 15 -5 13 -2 13 19 -1 16 -11 25 -12 25 -5 0 9 5 9 20 1
14 -7 20 -7 20 0 0 5 11 10 25 10 14 0 25 4 25 10 0 5 -36 9 -80 9 -44 0 -80
-3 -80 -7z"/>
<path d="M2435 2060 c-3 -6 1 -7 9 -4 18 7 21 14 7 14 -6 0 -13 -4 -16 -10z"/>
<path d="M2458 2049 c-10 -11 -13 -21 -8 -24 6 -4 10 -2 10 2 0 5 15 8 33 7
31 -1 31 -1 2 4 -25 4 -27 5 -11 11 15 6 16 9 5 13 -8 2 -22 -4 -31 -13z"/>
<path d="M2553 2063 c4 -3 1 -13 -6 -21 -7 -9 -7 -13 -1 -9 6 3 33 9 60 11 49
5 49 5 48 -63 0 -37 -4 -73 -9 -81 -4 -7 -8 -30 -8 -52 0 -43 -16 -32 -18 12
0 18 -5 11 -18 -25 -41 -120 -51 -135 -93 -135 -29 0 -38 4 -39 18 -2 25 -2
22 6 77 7 49 7 50 -13 32 -25 -23 -34 -87 -15 -106 24 -23 7 -23 -30 1 -19 13
-43 28 -53 34 -18 10 -18 12 -1 28 9 10 17 32 18 49 1 18 2 47 4 65 1 18 -1
35 -6 38 -5 3 -9 11 -9 17 0 7 4 6 10 -3 9 -13 10 -13 11 0 1 8 3 27 4 42 5
35 -17 53 -43 37 -15 -10 -18 -18 -12 -44 8 -35 -13 -101 -29 -91 -11 7 8 -63
22 -81 5 -7 13 -10 18 -7 5 3 6 -2 3 -10 -3 -9 -11 -17 -18 -18 -6 0 -15 -2
-21 -3 -5 -2 -15 -3 -22 -4 -6 0 -17 -18 -23 -38 -19 -59 -34 -71 -89 -69 -58
2 -78 16 -102 73 -22 52 -30 55 -19 8 8 -35 53 -119 76 -143 18 -17 28 -75 19
-104 -7 -21 -6 -22 9 -9 13 11 16 23 11 47 -6 34 6 55 63 110 12 12 27 37 34
55 23 70 32 72 114 23 55 -34 164 -57 164 -35 0 4 7 16 16 27 10 13 14 14 11
4 -3 -9 1 -29 9 -45 13 -30 13 -30 8 7 -8 52 2 85 36 116 27 26 29 33 38 142
5 63 7 118 5 123 -2 4 -32 7 -65 7 -34 0 -58 -3 -55 -7z m-196 -70 c-4 -3 -7
0 -7 7 0 7 3 10 7 7 3 -4 3 -10 0 -14z m0 -73 c-1 -11 -5 -20 -9 -20 -10 0
-10 4 -2 24 8 22 13 20 11 -4z m-157 -290 c-20 -36 -37 -42 -54 -18 -23 33
-20 38 23 36 34 -1 39 -4 31 -18z"/>
<path d="M2523 2053 c4 -3 10 -3 14 0 3 4 0 7 -7 7 -7 0 -10 -3 -7 -7z"/>
<path d="M880 2030 c-12 -8 -9 -9 12 -8 15 1 24 6 22 10 -7 10 -16 10 -34 -2z"/>
<path d="M2124 2008 c-29 -31 -62 -114 -50 -125 3 -3 12 11 20 31 8 20 29 50
45 67 17 17 28 36 24 44 -7 19 -4 20 -39 -17z"/>
<path d="M2615 2023 c1 -10 -1 -22 -5 -28 -12 -16 -20 -86 -9 -80 5 4 9 21 9
38 0 22 3 28 9 18 6 -10 9 -2 9 23 0 20 -4 38 -8 41 -5 3 -7 -3 -5 -12z"/>
<path d="M1898 2023 c6 -2 9 -9 6 -15 -4 -5 4 -4 17 2 36 19 35 20 -2 19 -19
0 -28 -3 -21 -6z"/>
<path d="M1963 2023 c4 -3 10 -3 14 0 3 4 0 7 -7 7 -7 0 -10 -3 -7 -7z"/>
<path d="M931 2015 c-1 -5 -6 -39 -11 -73 -5 -37 -5 -73 0 -85 11 -27 12 -19
12 58 0 48 2 54 8 30 8 -30 8 -30 8 0 0 29 -15 90 -17 70z"/>
<path d="M1165 1996 c-27 -7 -62 -18 -76 -24 -19 -8 -30 -7 -38 1 -8 8 -11 -4
-11 -48 0 -60 0 -60 52 -55 53 4 53 4 9 10 -40 5 -45 8 -48 35 -2 17 0 25 4
19 14 -19 37 -21 68 -8 20 9 24 13 12 14 -10 0 -16 4 -13 9 4 5 -4 7 -16 4
-38 -8 1 15 42 26 55 14 116 22 103 14 -6 -4 -12 -10 -13 -13 -7 -25 -28 -47
-43 -44 -9 1 -15 -1 -12 -6 3 -5 -1 -11 -7 -14 -7 -4 -3 -4 10 -2 17 3 22 -1
23 -17 0 -14 6 -7 16 20 24 70 54 84 138 67 38 -8 87 -25 109 -37 41 -22 41
-22 46 -142 5 -103 14 -139 12 -50 0 17 -1 68 -1 114 -1 46 -4 82 -7 78 -4 -3
-24 3 -45 13 -89 46 -218 60 -314 36z m-88 -63 c-4 -3 -7 0 -7 7 0 7 3 10 7 7
3 -4 3 -10 0 -14z m43 3 c0 -2 -7 -7 -16 -10 -8 -3 -12 -2 -9 4 6 10 25 14 25
6z"/>
<path d="M1883 1983 c4 -3 10 -3 14 0 3 4 0 7 -7 7 -7 0 -10 -3 -7 -7z"/>
<path d="M620 1971 c0 -6 9 -11 20 -11 10 0 32 -16 47 -35 15 -19 32 -35 36
-35 4 0 19 -12 33 -27 26 -28 26 -28 8 5 -10 17 -24 32 -31 32 -7 0 -13 3 -13
8 -2 30 -100 93 -100 63z"/>
<path d="M1765 1967 c6 -14 45 -41 51 -34 2 2 -10 13 -26 25 -16 12 -27 16
-25 9z"/>
<path d="M1140 1960 c0 -7 3 -10 7 -7 3 4 3 10 0 14 -4 3 -7 0 -7 -7z"/>
<path d="M1264 1953 c-3 -10 -10 -28 -15 -41 -5 -13 -9 -31 -8 -40 0 -13 3
-11 9 5 8 19 15 22 42 17 33 -5 33 -5 6 11 -16 8 -28 23 -27 33 0 14 2 14 9
-3 8 -18 9 -17 9 8 1 30 -17 37 -25 10z"/>
<path d="M1325 1960 c4 -6 8 -25 10 -43 2 -18 8 -47 14 -65 5 -18 6 -30 1 -27
-10 6 -35 -34 -26 -43 3 -3 6 1 6 9 1 8 7 -1 16 -20 8 -19 17 -31 20 -28 3 3
1 14 -5 25 -13 24 -14 42 -3 42 4 0 17 -23 29 -50 21 -49 21 -50 3 -60 -11 -6
-31 -22 -44 -35 -25 -25 -25 -25 10 -25 25 0 33 3 28 13 -5 7 0 6 11 -3 17
-14 17 -13 11 8 -5 16 -3 29 9 41 15 17 14 23 -9 82 -13 35 -35 92 -48 126
-13 35 -27 63 -31 63 -5 0 -5 -5 -2 -10z"/>
<path d="M1705 1950 c3 -5 8 -10 11 -10 3 0 2 5 -1 10 -3 6 -8 10 -11 10 -3 0
-2 -4 1 -10z"/>
<path d="M760 1936 c0 -4 11 -22 24 -39 13 -18 31 -48 39 -67 9 -21 16 -28 16
-17 1 24 -32 88 -58 111 -12 11 -21 16 -21 12z"/>
<path d="M1405 1875 c14 -39 33 -89 42 -113 15 -39 15 -44 -1 -61 -19 -21 -8
-61 16 -61 9 0 9 3 0 12 -16 16 -15 28 3 28 11 0 13 8 8 33 -9 45 -70 208 -83
221 -6 6 1 -21 15 -59z"/>
<path d="M1895 1884 c3 -12 1 -33 -4 -48 -7 -16 -7 -26 -1 -26 5 0 7 -15 5
-32 -5 -33 -5 -33 6 -5 6 15 14 27 17 27 14 0 6 57 -11 81 -16 22 -17 22 -12
3z"/>
<path d="M880 1871 c0 -6 5 -13 10 -16 6 -3 10 1 10 9 0 9 -4 16 -10 16 -5 0
-10 -4 -10 -9z"/>
<path d="M1235 1836 c-20 -20 -25 -22 -25 -8 0 11 -8 17 -25 17 -26 0 -33 -9
-15 -20 6 -3 10 -22 10 -41 0 -31 -2 -34 -24 -28 -13 3 -27 1 -30 -5 -4 -6 -1
-9 7 -5 8 3 18 1 22 -5 3 -6 1 -11 -5 -11 -7 0 -20 -10 -30 -22 -10 -13 -22
-19 -27 -15 -4 5 -1 14 8 20 13 10 14 15 4 24 -9 8 -16 8 -24 0 -12 -12 -40
44 -43 88 -2 16 -6 21 -12 15 -7 -7 -4 -29 9 -66 10 -30 19 -74 19 -96 1 -31
7 -44 24 -56 13 -9 22 -10 22 -4 0 6 -9 16 -20 22 -17 9 -18 14 -9 32 10 18
13 19 23 7 6 -8 24 -15 40 -16 17 0 35 -8 42 -17 6 -9 17 -16 25 -16 8 0 5 5
-7 14 -17 13 -18 15 -2 21 9 4 25 5 34 3 23 -4 30 -28 8 -28 -29 0 -6 -13 25
-14 16 -1 29 4 28 9 -1 6 3 9 9 8 7 -1 10 14 9 42 -2 53 -10 66 -19 30 -7 -27
-17 -31 -47 -14 -48 25 -58 40 -47 70 12 34 29 39 21 7 -6 -23 -6 -23 14 -3
11 11 27 32 37 47 24 36 3 46 -29 14z m-147 -120 c-7 -8 -17 -12 -22 -9 -4 3
-2 9 5 14 22 13 31 11 17 -5z m112 -8 c21 -23 21 -23 -7 -29 -33 -6 -51 0 -32
12 11 7 10 9 -3 9 -21 0 -24 16 -5 23 21 9 26 8 47 -15z"/>
<path d="M2028 1823 c-3 -36 -6 -39 -66 -63 -52 -21 -77 -40 -140 -106 -42
-45 -103 -100 -134 -124 -53 -39 -118 -119 -118 -144 0 -17 -54 -126 -62 -126
-13 0 -28 38 -34 84 -8 56 11 89 60 107 22 8 36 20 39 35 2 14 0 21 -8 18 -17
-7 -25 28 -25 109 0 41 -4 66 -10 62 -5 -3 -6 -13 -3 -22 5 -11 3 -14 -6 -8
-10 6 -11 3 -2 -13 6 -11 11 -43 11 -69 0 -27 5 -54 11 -60 15 -15 -27 -52
-54 -47 -132 23 -137 25 -137 60 0 36 -18 29 -22 -8 -3 -30 -6 -33 -35 -34
-18 0 -41 -8 -51 -17 -21 -20 -32 -22 -32 -6 0 16 -27 40 -42 37 -7 -2 -12 2
-11 8 2 11 -32 26 -62 28 -5 1 -10 7 -9 14 3 33 4 34 19 22 12 -10 18 -9 31 4
11 12 27 15 55 12 28 -4 37 -2 33 6 -5 8 -1 9 12 4 26 -11 74 -14 68 -5 -2 4
4 8 13 9 135 7 202 13 198 20 -2 4 -28 6 -57 5 -29 -1 -131 -4 -225 -6 -173
-3 -173 -3 -173 -38 0 -28 9 -46 40 -79 44 -48 47 -52 25 -52 -8 0 -22 14 -30
31 -9 17 -19 29 -21 26 -3 -3 2 -19 11 -36 9 -18 11 -31 5 -31 -25 0 -33 -48
-13 -79 19 -31 19 -31 19 4 0 19 -3 35 -8 35 -4 0 -5 6 -2 14 3 9 19 14 40 13
19 -1 40 5 47 12 10 10 8 11 -8 5 -11 -4 -17 -4 -13 1 4 4 -2 22 -13 39 -21
31 -21 31 4 4 14 -15 27 -25 30 -22 2 2 10 -3 17 -11 11 -13 10 -19 -8 -36
-12 -11 -22 -30 -22 -44 0 -16 -8 -27 -27 -34 -28 -11 -28 -11 2 -4 17 4 57 7
90 6 34 -2 77 4 100 12 22 8 54 17 72 18 17 2 38 9 46 15 12 10 15 2 20 -49 8
-94 58 -122 78 -45 4 16 14 36 22 45 7 9 19 34 25 56 14 46 59 99 119 139 50
33 107 87 149 141 21 26 56 52 100 74 76 37 94 54 94 87 0 39 -19 36 -22 -3z
m-911 -240 c-4 -3 -10 -3 -14 0 -3 4 0 7 7 7 7 0 10 -3 7 -7z m350 -137 c7 -7
-13 -27 -63 -61 -11 -8 -49 -18 -84 -22 -45 -4 -58 -9 -45 -14 17 -6 16 -8 -8
-8 -31 -1 -87 24 -87 39 0 12 52 60 65 60 6 0 25 -13 43 -29 18 -18 32 -24 32
-17 0 8 -11 21 -25 30 -43 28 -20 38 76 34 49 -3 92 -8 96 -12z"/>
<path d="M2709 1844 c-1 -10 -1 -28 0 -39 1 -15 0 -17 -7 -7 -7 10 -11 5 -16
-18 -9 -49 -7 -70 8 -86 15 -14 25 28 28 119 1 37 -11 67 -13 31z"/>
<path d="M485 1806 c2 -22 18 -58 35 -82 35 -49 39 -70 11 -55 -10 6 -24 25
-30 42 -6 18 -14 29 -17 26 -4 -3 6 -27 20 -52 27 -45 20 -64 -8 -23 -9 12
-16 18 -16 12 0 -5 7 -20 16 -32 14 -20 14 -22 0 -22 -9 0 -21 9 -28 20 -16
26 -32 26 -18 1 17 -33 11 -38 -9 -7 -11 16 -23 51 -26 78 -6 40 -9 47 -21 37
-24 -20 -18 -101 11 -142 24 -37 24 -37 -13 -31 -20 3 -63 14 -95 24 -63 20
-119 17 -138 -6 -14 -17 2 -19 18 -3 19 19 163 -5 163 -27 0 -8 5 -14 10 -14
6 0 10 4 10 8 0 10 108 7 118 -3 4 -5 -2 -5 -13 -1 -16 6 -18 5 -7 -5 24 -25
14 -39 -27 -39 -22 0 -43 5 -46 10 -3 6 -11 10 -17 10 -6 0 -3 -9 6 -19 25
-27 -9 -48 -42 -26 -11 8 -27 12 -36 9 -9 -3 -16 -1 -16 5 0 6 5 11 10 11 6 0
10 7 10 15 0 7 8 18 17 24 10 5 15 13 11 17 -10 9 -38 -15 -38 -32 0 -8 -4
-14 -9 -14 -15 0 -22 -33 -9 -42 9 -5 6 -8 -9 -8 -12 0 -24 -4 -27 -9 -3 -5
-22 -12 -43 -16 -28 -5 -33 -9 -22 -17 11 -7 9 -9 -8 -5 -13 3 -23 1 -23 -4 0
-5 7 -9 16 -9 11 0 15 -6 11 -20 -3 -11 -1 -20 4 -20 5 0 18 -9 29 -20 14 -14
20 -16 20 -6 0 7 -10 21 -23 30 -22 15 -22 15 2 36 32 27 38 26 74 -17 47 -54
79 -83 91 -83 6 1 0 10 -13 20 -38 32 -81 92 -74 103 3 5 2 7 -3 4 -6 -3 -16
-2 -24 4 -8 5 -10 9 -5 10 31 5 74 9 100 9 16 1 37 8 47 17 21 19 125 9 109
-10 -5 -7 -11 -23 -13 -37 -2 -14 -9 -24 -16 -22 -6 1 -12 -4 -12 -11 0 -7
-26 -38 -57 -69 -57 -55 -60 -57 -136 -67 -43 -6 -81 -12 -85 -12 -4 -1 7 -5
23 -9 17 -4 -23 -5 -87 -2 -118 5 -118 5 -118 -22 0 -22 4 -26 23 -22 47 10
279 38 283 34 4 -5 -10 -93 -32 -188 -8 -36 -14 -78 -14 -93 0 -16 -4 -36 -9
-45 -4 -9 -11 -35 -14 -57 -5 -40 -5 -40 9 -8 7 17 18 60 24 95 5 35 16 86 25
113 8 28 15 66 15 85 0 73 17 103 110 195 49 49 90 95 90 102 0 26 31 12 91
-42 38 -34 74 -57 95 -61 19 -3 37 -10 40 -15 9 -15 88 -10 110 6 27 20 31 19
38 -16 7 -35 -2 -79 -15 -79 -5 0 -5 8 -2 18 6 14 4 15 -9 4 -13 -11 -23 -10
-54 3 -20 8 -39 13 -41 11 -7 -7 54 -36 76 -36 20 0 61 -43 61 -65 0 -6 9 -20
20 -30 13 -12 20 -14 20 -5 0 21 29 -8 51 -51 22 -45 24 -62 4 -35 -8 11 -15
15 -15 8 0 -6 11 -18 23 -27 13 -8 29 -27 36 -41 6 -15 14 -24 17 -22 2 3 -7
28 -21 56 -14 27 -25 53 -25 56 0 14 -46 76 -56 76 -6 0 -17 7 -24 15 -10 12
-10 15 3 15 9 0 19 5 23 11 4 8 -3 9 -25 4 -32 -7 -40 2 -20 22 20 20 -46 213
-73 213 -6 0 -3 -12 7 -26 63 -97 -112 -106 -220 -12 -38 34 -65 88 -44 88 5
0 9 -5 9 -11 0 -6 14 -22 31 -37 53 -45 67 -47 22 -2 -24 23 -43 45 -43 49 0
20 16 19 37 -1 13 -12 23 -17 23 -12 0 17 -65 74 -84 74 -10 0 -36 16 -57 35
-31 28 -35 35 -20 35 11 0 23 -5 26 -10 3 -6 20 -17 37 -26 29 -15 31 -15 24
2 -4 11 -10 41 -12 69 -3 27 -9 54 -14 58 -4 5 -3 22 3 38 9 22 8 32 -1 41
-11 11 -12 10 -7 -4 4 -9 3 -24 -2 -33 -13 -22 -38 7 -58 66 -15 44 -15 44
-10 5z m-60 -176 c21 -26 27 -40 16 -40 -16 0 -38 40 -45 80 -6 35 -6 35 5 5
7 -16 17 -37 24 -45z m136 -31 c8 -17 8 -20 -2 -17 -7 2 -13 12 -15 21 -3 23
3 21 17 -4z m-31 -69 c0 -5 -4 -10 -9 -10 -6 0 -13 5 -16 10 -3 6 1 10 9 10 9
0 16 -4 16 -10z m40 -14 c0 -3 -4 -8 -10 -11 -5 -3 -10 -1 -10 4 0 6 5 11 10
11 6 0 10 -2 10 -4z m25 -16 c-3 -5 -11 -10 -16 -10 -6 0 -7 5 -4 10 3 6 11
10 16 10 6 0 7 -4 4 -10z m-275 -20 c0 -5 -7 -10 -16 -10 -8 0 -12 5 -9 10 3
6 10 10 16 10 5 0 9 -4 9 -10z m0 -230 c-8 -5 -31 -9 -50 -8 -35 1 -35 1 5 8
59 11 61 11 45 0z m577 -22 c-3 -8 -6 -5 -6 6 -1 11 2 17 5 13 3 -3 4 -12 1
-19z m-774 -5 c-13 -2 -33 -2 -45 0 -13 2 -3 4 22 4 25 0 35 -2 23 -4z m-76
-10 c-4 -3 -10 -3 -14 0 -3 4 0 7 7 7 7 0 10 -3 7 -7z"/>
<path d="M2185 1831 c-3 -6 1 -11 11 -11 18 0 12 -71 -7 -78 -10 -4 -2 -22 9
-22 16 0 31 56 24 84 -9 32 -26 44 -37 27z"/>
<path d="M439 1792 c-20 -40 -23 -48 -14 -40 4 4 16 -3 26 -15 21 -25 24 -19
8 17 -9 19 -9 29 0 40 7 8 8 17 3 20 -5 3 -15 -7 -23 -22z"/>
<path d="M628 1783 c7 -3 16 -2 19 1 4 3 -2 6 -13 5 -11 0 -14 -3 -6 -6z"/>
<path d="M775 1783 c-11 -3 -24 -10 -30 -15 -7 -7 -2 -9 15 -4 14 3 31 6 38 6
6 0 12 5 12 10 0 10 -3 11 -35 3z"/>
<path d="M667 1760 c-3 -11 -19 -20 -41 -24 -20 -4 -36 -12 -36 -18 0 -5 7 -7
16 -4 9 3 28 9 42 12 15 4 32 11 39 16 7 5 17 7 23 3 5 -3 10 -3 10 2 0 4 -11
13 -24 19 -20 10 -25 9 -29 -6z"/>
<path d="M2661 1710 c-2 -74 -6 -79 -71 -76 -82 5 -109 -2 -103 -25 3 -10 13
-19 22 -19 30 0 90 -21 106 -37 12 -12 19 -13 28 -4 32 32 90 -1 81 -47 -6
-31 32 -82 62 -82 9 0 34 -14 56 -31 21 -17 41 -29 44 -26 7 7 -71 67 -88 67
-34 0 -50 26 -55 86 -2 32 -5 68 -6 79 -3 34 35 30 55 -5 17 -31 18 -31 78
-24 42 5 64 3 75 -6 12 -10 15 -10 15 1 0 22 -19 45 -27 34 -11 -14 -123 -20
-123 -6 0 16 -37 51 -54 51 -26 0 -46 -29 -37 -53 8 -21 6 -22 -40 -22 -27 0
-49 2 -49 5 0 3 -21 11 -47 19 -89 24 -92 31 -11 25 98 -7 116 11 100 98 -10
53 -10 53 -11 -2z"/>
<path d="M690 1690 c0 -5 16 -10 35 -10 19 0 35 5 35 10 0 6 -16 10 -35 10
-19 0 -35 -4 -35 -10z"/>
<path d="M3000 1696 c0 -2 8 -10 18 -17 15 -13 16 -12 3 4 -13 16 -21 21 -21
13z"/>
<path d="M3090 1680 c6 -11 13 -20 16 -20 2 0 0 9 -6 20 -6 11 -13 20 -16 20
-2 0 0 -9 6 -20z"/>
<path d="M95 1671 c-3 -6 -15 -11 -26 -11 -14 0 -19 -7 -19 -25 0 -16 6 -25
15 -25 8 0 15 -6 15 -13 0 -19 -20 -36 -35 -31 -9 4 -11 -3 -8 -20 4 -21 1
-26 -16 -26 -12 0 -21 -6 -21 -16 0 -8 4 -13 10 -9 10 6 50 -15 50 -27 0 -5
-8 -8 -17 -8 -14 0 -14 -3 -5 -12 13 -13 24 -4 35 27 3 6 16 6 37 -2 19 -7 36
-10 39 -8 10 11 -19 28 -48 29 -17 1 -33 7 -36 15 -4 9 1 12 14 8 12 -3 22 1
25 10 9 21 8 22 -16 15 -16 -4 -19 -2 -12 9 10 16 10 18 23 79 9 46 8 60 -4
41z m-8 -38 c-4 -3 -10 -3 -14 0 -3 4 0 7 7 7 7 0 10 -3 7 -7z"/>
<path d="M765 1651 c-70 -17 -96 -54 -49 -71 32 -13 37 -12 29 0 -7 12 61 44
74 35 9 -5 21 17 21 36 0 10 -31 10 -75 0z m55 -11 c0 -5 -8 -10 -17 -10 -10
0 -31 -7 -47 -15 -40 -21 -56 -18 -26 5 14 10 39 21 55 23 17 2 31 5 33 5 1 1
2 -2 2 -8z"/>
<path d="M0 1610 c0 -13 18 -22 24 -11 3 5 -1 11 -9 15 -8 3 -15 1 -15 -4z"/>
<path d="M2083 1613 c4 -3 10 -3 14 0 3 4 0 7 -7 7 -7 0 -10 -3 -7 -7z"/>
<path d="M123 1603 c4 -3 10 -3 14 0 3 4 0 7 -7 7 -7 0 -10 -3 -7 -7z"/>
<path d="M3162 1549 c42 -51 65 -87 90 -141 7 -16 18 -28 25 -28 8 0 5 12 -10
36 -12 20 -31 50 -42 68 -29 48 -87 116 -98 116 -5 0 11 -23 35 -51z"/>
<path d="M120 1580 c0 -5 5 -10 11 -10 5 0 7 5 4 10 -3 6 -8 10 -11 10 -2 0
-4 -4 -4 -10z"/>
<path d="M1927 1567 c-11 -29 -9 -53 4 -40 6 6 9 21 7 34 -3 21 -4 22 -11 6z"/>
<path d="M1193 1553 c4 -3 10 -3 14 0 3 4 0 7 -7 7 -7 0 -10 -3 -7 -7z"/>
<path d="M1867 1553 c-4 -3 -7 -25 -7 -48 0 -25 -7 -49 -18 -61 -9 -10 -26
-32 -36 -49 -32 -50 -53 -59 -137 -59 -53 -1 -82 -5 -91 -15 -10 -11 -10 -12
0 -7 16 9 108 10 156 1 21 -4 36 -3 34 2 -2 5 14 24 35 42 20 18 37 38 37 44
0 6 7 18 15 27 18 20 39 83 25 75 -6 -4 -7 7 -4 25 6 30 4 36 -9 23z"/>
<path d="M2440 1526 c-5 -15 -10 -33 -10 -41 0 -8 -4 -16 -9 -19 -8 -6 -55
-147 -96 -288 -25 -89 -104 -137 -215 -131 -75 4 -106 17 -126 53 -14 25 -14
25 -11 -5 7 -63 159 -85 269 -38 75 32 95 52 108 107 5 23 24 84 41 136 18 52
33 104 35 115 1 11 9 45 18 75 15 59 13 81 -4 36z"/>
<path d="M625 1530 c3 -5 11 -10 16 -10 6 0 7 5 4 10 -3 6 -11 10 -16 10 -6 0
-7 -4 -4 -10z"/>
<path d="M2910 1530 c-35 -7 -35 -7 11 -9 52 -1 98 -34 65 -47 -10 -4 -35 0
-57 9 -21 8 -39 12 -39 7 0 -4 18 -15 40 -24 37 -14 40 -18 30 -37 -7 -13 -17
-18 -27 -15 -14 6 -14 4 0 -17 8 -13 13 -36 10 -53 -4 -26 -3 -27 8 -10 7 11
12 32 11 48 0 16 4 26 9 23 5 -4 9 2 9 12 0 11 7 28 15 39 20 26 19 40 -5 64
-21 21 -25 22 -80 10z"/>
<path d="M1180 1520 c-13 -8 -12 -10 3 -10 9 0 17 5 17 10 0 12 -1 12 -20 0z"/>
<path d="M2554 1488 c-56 -43 -104 -88 -92 -88 13 0 75 45 99 72 9 10 21 18
27 18 6 0 14 5 17 10 11 18 -22 10 -51 -12z"/>
<path d="M2768 1503 c6 -2 18 -2 25 0 6 3 1 5 -13 5 -14 0 -19 -2 -12 -5z"/>
<path d="M1947 1465 c3 -16 10 -55 13 -85 7 -55 7 -55 8 0 1 30 -5 69 -14 85
-14 30 -14 30 -7 0z"/>
<path d="M391 1449 c-29 -37 -23 -48 9 -14 13 14 27 25 32 25 17 0 7 -40 -14
-54 -18 -13 -19 -16 -6 -16 23 0 41 36 34 66 -8 32 -26 30 -55 -7z"/>
<path d="M1900 1413 c-3 -23 -2 -39 3 -34 5 5 7 24 5 42 -3 33 -4 33 -8 -8z"/>
<path d="M3157 1435 c-21 -7 -42 -17 -45 -21 -4 -4 2 -4 13 1 11 4 30 10 43
12 12 3 25 9 28 14 6 11 7 11 -39 -6z"/>
<path d="M83 1403 c4 -3 10 -3 14 0 3 4 0 7 -7 7 -7 0 -10 -3 -7 -7z"/>
<path d="M120 1385 c7 -8 10 -27 8 -43 -4 -26 -2 -28 32 -29 30 -1 32 1 13 8
-18 6 -23 16 -23 44 0 29 -4 35 -21 35 -18 0 -19 -2 -9 -15z"/>
<path d="M365 1364 c-30 -14 -30 -14 0 -8 31 6 41 11 34 18 -2 2 -17 -2 -34
-10z"/>
<path d="M1832 1284 c-3 -62 1 -83 21 -127 21 -46 22 -56 11 -72 -8 -10 -14
-39 -14 -64 0 -44 7 -51 14 -15 3 11 9 40 15 66 10 42 8 52 -11 90 -17 31 -22
60 -22 114 -1 96 -10 101 -14 8z"/>
<path d="M3296 1345 c4 -8 10 -15 15 -15 4 0 6 7 3 15 -4 8 -10 15 -15 15 -4
0 -6 -7 -3 -15z"/>
<path d="M1 1324 c0 -11 3 -14 6 -6 3 7 2 16 -1 19 -3 4 -6 -2 -5 -13z"/>
<path d="M2871 1320 c14 -31 19 -36 19 -24 0 6 -7 19 -16 30 -14 18 -14 18 -3
-6z"/>
<path d="M2984 1305 c-34 -41 -44 -44 -45 -12 -1 17 -3 16 -8 -8 -4 -16 -13
-40 -20 -52 -8 -15 -8 -23 -1 -23 6 0 15 11 20 25 5 14 14 25 19 25 12 0 71
59 71 71 0 15 -5 11 -36 -26z"/>
<path d="M290 1320 c-9 -6 -10 -10 -3 -10 6 0 15 5 18 10 8 12 4 12 -15 0z"/>
<path d="M196 1305 c-3 -10 -14 -13 -33 -9 -15 3 -46 -2 -68 -10 -40 -14 -40
-14 30 -9 39 3 73 10 76 15 3 5 16 10 27 11 30 2 28 17 -2 17 -13 0 -26 -7
-30 -15z"/>
<path d="M1950 1310 c0 -7 3 -10 7 -7 3 4 3 10 0 14 -4 3 -7 0 -7 -7z"/>
<path d="M2530 1305 c-12 -15 -9 -109 6 -182 5 -28 3 -33 -19 -38 -38 -10 -71
-62 -70 -109 3 -52 20 -69 20 -19 0 21 3 49 7 61 9 28 68 71 74 54 2 -7 9 -18
16 -25 7 -7 19 -30 25 -50 7 -21 15 -36 18 -33 6 6 -16 76 -29 93 -6 7 -7 24
-4 38 5 19 3 23 -8 19 -21 -8 -7 37 21 70 17 19 21 33 16 60 -8 48 -23 46 -23
-3 0 -39 -20 -68 -40 -56 -11 7 -6 106 5 126 10 14 -1 11 -15 -6z m17 -152
c-4 -3 -7 0 -7 7 0 7 3 10 7 7 3 -4 3 -10 0 -14z"/>
<path d="M0 1285 c0 -8 5 -15 10 -15 6 0 10 7 10 15 0 8 -4 15 -10 15 -5 0
-10 -7 -10 -15z"/>
<path d="M1310 1275 c-13 -14 -19 -25 -13 -25 12 0 48 38 41 45 -2 3 -15 -6
-28 -20z"/>
<path d="M3192 1256 c8 -6 15 -13 14 -16 0 -3 7 -25 16 -50 8 -25 20 -61 26
-80 10 -35 10 -35 11 -6 2 57 -40 163 -64 163 -15 0 -16 -2 -3 -11z"/>
<path d="M3136 1228 c-16 -22 -9 -49 18 -65 7 -4 18 -17 24 -28 7 -11 12 -14
12 -7 0 8 -9 27 -21 43 -14 20 -19 38 -15 54 8 31 2 32 -18 3z"/>
<path d="M2716 1231 c-4 -5 -2 -12 4 -16 5 -3 10 0 10 7 0 10 2 10 9 -1 5 -7
13 -11 19 -7 13 8 62 -13 62 -26 0 -21 -23 -49 -51 -64 -17 -8 -28 -11 -24 -4
4 6 1 17 -5 25 -14 17 -45 21 -35 5 4 -6 10 -8 13 -6 4 2 8 -11 8 -29 0 -22
-4 -31 -12 -28 -6 2 -15 0 -19 -6 -4 -7 3 -11 18 -11 16 0 26 7 30 19 2 10 17
21 33 25 15 4 34 16 42 27 18 27 28 24 43 -12 10 -27 10 -33 -2 -43 -20 -16
-56 -61 -42 -53 6 4 13 1 16 -5 2 -8 8 -9 13 -4 5 5 4 11 -3 13 -7 3 0 15 19
32 26 24 29 30 19 48 -18 35 -13 51 20 58 36 8 31 18 -12 21 -17 2 -43 13 -57
26 -14 13 -22 17 -17 9 5 -10 3 -12 -11 -8 -50 14 -83 17 -88 8z m140 -48 c-7
-7 -26 7 -26 19 0 6 6 6 15 -2 9 -7 13 -15 11 -17z"/>
<path d="M2985 1190 c-18 -19 -26 -34 -19 -38 5 -4 15 -25 21 -47 31 -106 21
-137 -32 -104 -16 11 -25 19 -20 20 14 1 -35 17 -57 18 -10 1 -18 -3 -18 -9 0
-5 7 -10 16 -10 21 0 11 -47 -17 -75 -23 -24 -43 -5 -32 30 5 18 4 18 -11 3
-9 -9 -16 -21 -16 -27 0 -16 -35 -31 -74 -31 -19 0 -38 -4 -41 -10 -8 -13 30
-13 73 -1 26 8 34 7 39 -5 3 -10 12 -13 22 -8 9 4 27 6 41 5 20 -1 22 1 10 9
-11 8 -8 9 13 4 27 -6 28 -5 25 29 -2 41 6 55 24 39 17 -13 60 -18 76 -9 16
11 15 92 -3 141 -12 34 -12 42 2 62 25 38 10 47 -22 14z"/>
<path d="M3040 1210 c-12 -8 -11 -10 8 -10 12 0 22 5 22 10 0 13 -11 13 -30 0z"/>
<path d="M1930 1206 c0 -11 30 -66 36 -66 2 0 -3 15 -12 33 -19 36 -24 44 -24
33z"/>
<path d="M2611 1162 c-1 -18 6 -47 15 -63 8 -17 14 -38 12 -48 -2 -10 2 -20 7
-22 15 -6 14 49 -1 62 -8 6 -14 23 -15 38 -1 44 -17 73 -18 33z"/>
<path d="M2935 1130 c-8 -13 5 -13 25 0 13 8 13 10 -2 10 -9 0 -20 -4 -23 -10z"/>
<path d="M955 1080 c3 -5 8 -10 11 -10 3 0 2 5 -1 10 -3 6 -8 10 -11 10 -3 0
-2 -4 1 -10z"/>
<path d="M3190 1032 c0 -52 0 -52 -27 -35 -28 18 -28 18 -6 -10 23 -29 22 -52
-2 -61 -23 -9 -46 -75 -35 -97 17 -31 26 -22 24 24 -1 51 12 73 33 55 10 -8
12 -22 8 -50 -6 -34 -4 -39 20 -48 42 -16 60 -14 44 6 -12 15 -11 16 7 10 34
-10 108 59 92 87 -11 21 -11 21 -18 2 -22 -58 -92 -94 -119 -61 -14 16 -20
104 -11 162 4 24 3 49 -1 56 -5 8 -9 -8 -9 -40z m20 -192 c0 -5 -2 -10 -4 -10
-3 0 -8 5 -11 10 -3 6 -1 10 4 10 6 0 11 -4 11 -10z"/>
<path d="M3120 1046 c0 -2 8 -10 18 -17 15 -13 16 -12 3 4 -13 16 -21 21 -21
13z"/>
<path d="M2520 987 c0 -23 -8 -41 -25 -57 -14 -13 -25 -31 -25 -41 0 -22 -91
-85 -104 -72 -8 8 -37 -17 -31 -27 2 -4 -9 -7 -25 -8 -31 -1 -121 -39 -154
-66 -16 -13 -18 -20 -8 -41 10 -22 17 -25 69 -25 58 0 58 0 13 -38 -24 -20
-46 -35 -49 -32 -14 15 -18 -54 -4 -83 20 -41 18 -39 45 -43 81 -14 90 -17 77
-26 -11 -8 -10 -9 3 -4 10 3 34 -1 55 -9 38 -15 38 -15 3 -10 -30 5 -32 4 -16
-6 18 -11 55 -19 101 -21 34 -1 146 -57 295 -148 25 -15 56 -31 70 -35 14 -4
-4 11 -40 32 -122 74 -225 131 -247 138 -27 8 -30 32 -5 38 9 2 -10 4 -43 4
-35 1 -85 10 -120 22 -33 12 -78 27 -100 35 -25 8 -41 20 -44 32 -1 10 -10 27
-18 36 -16 18 -8 28 66 85 9 7 39 13 68 13 28 0 55 5 58 10 3 6 23 19 43 30
46 24 14 28 -41 5 -67 -28 -217 -17 -217 15 0 28 83 70 137 70 35 0 49 5 66
25 26 30 140 72 192 70 32 -1 34 1 19 12 -21 16 -41 17 -49 3 -3 -5 -18 -10
-32 -10 -25 0 -25 0 6 35 32 36 44 106 21 120 -6 4 -10 -8 -10 -28z m37 -124
c-4 -3 -10 -3 -14 0 -3 4 0 7 7 7 7 0 10 -3 7 -7z m-187 -57 c0 -3 -5 -8 -12
-12 -7 -4 -8 -3 -4 4 7 12 16 16 16 8z m10 -156 c-8 -5 -19 -10 -25 -10 -5 0
-3 5 5 10 8 5 20 10 25 10 6 0 3 -5 -5 -10z"/>
<path d="M3163 1013 c4 -3 10 -3 14 0 3 4 0 7 -7 7 -7 0 -10 -3 -7 -7z"/>
<path d="M3345 990 c3 -5 8 -10 11 -10 2 0 4 5 4 10 0 6 -5 10 -11 10 -5 0 -7
-4 -4 -10z"/>
<path d="M1861 904 c-1 -73 -21 -117 -53 -120 -7 0 -20 -2 -29 -2 -9 -1 -19
-9 -23 -17 -5 -13 -2 -14 17 -3 12 6 34 12 49 11 49 -1 59 23 49 118 -8 84 -8
84 -10 13z"/>
<path d="M3022 950 c14 -22 49 -35 70 -27 7 3 4 6 -8 6 -11 1 -29 10 -39 21
-24 26 -39 26 -23 0z"/>
<path d="M2090 951 c0 -5 9 -19 20 -32 21 -24 21 -24 5 9 -15 31 -25 41 -25
23z"/>
<path d="M2616 945 c-3 -9 -12 -12 -23 -9 -14 5 -15 4 -4 -4 11 -8 9 -12 -9
-22 -12 -6 -19 -14 -16 -17 3 -3 20 6 39 20 26 19 37 23 51 15 14 -8 17 -7 12
1 -14 22 -44 32 -50 16z"/>
<path d="M2842 865 c3 -13 1 -22 -3 -19 -5 3 -9 11 -9 18 0 8 -11 14 -25 14
-32 0 -34 4 29 -51 54 -47 54 -47 89 -32 44 18 50 27 33 50 -11 15 -16 15 -33
4 -18 -11 -24 -9 -46 14 -30 34 -41 34 -35 2z m108 -39 c0 -3 -5 -8 -12 -12
-7 -4 -8 -3 -4 4 7 12 16 16 16 8z"/>
<path d="M221 784 c0 -11 3 -14 6 -6 3 7 2 16 -1 19 -3 4 -6 -2 -5 -13z"/>
<path d="M3090 780 c0 -5 -18 -23 -39 -38 -32 -23 -37 -31 -29 -46 13 -23 -14
-86 -45 -106 -12 -7 -47 -17 -77 -21 -47 -7 -43 -7 30 -5 47 2 123 -3 169 -11
46 -8 85 -12 88 -10 4 5 -147 42 -159 39 -9 -2 0 25 18 53 6 11 19 43 28 72
10 28 24 54 32 57 8 3 12 10 9 16 -8 13 -25 13 -25 0z"/>
<path d="M1833 753 c4 -3 10 -3 14 0 3 4 0 7 -7 7 -7 0 -10 -3 -7 -7z"/>
<path d="M1863 747 c4 -11 10 -30 13 -43 3 -13 10 -22 14 -19 12 7 0 53 -18
67 -13 11 -15 10 -9 -5z"/>
<path d="M1625 729 c-22 -12 -44 -26 -50 -31 -5 -6 6 -2 25 8 19 11 49 24 65
31 17 6 23 12 15 12 -8 1 -33 -8 -55 -20z"/>
<path d="M1483 672 c-24 -9 -43 -23 -43 -31 0 -12 3 -11 18 2 10 10 23 17 28
17 6 0 19 7 30 15 24 18 20 18 -33 -3z"/>
<path d="M1890 627 c4 -41 5 -41 8 -8 2 18 0 37 -5 42 -5 5 -6 -11 -3 -34z"/>
<path d="M176 598 c-8 -65 -5 -102 11 -123 11 -14 124 -69 147 -71 19 -1 66
-47 66 -62 -1 -19 -30 -40 -82 -62 -32 -13 -56 -25 -54 -28 10 -10 89 12 104
28 23 25 38 14 52 -40 6 -25 18 -58 25 -75 7 -16 20 -52 30 -78 12 -34 25 -51
42 -58 39 -15 42 -1 6 29 -43 37 -137 306 -109 315 13 5 -52 39 -127 67 -89
33 -91 37 -97 137 -5 88 -5 88 -14 21z"/>
<path d="M1166 583 c-3 -10 -8 -36 -12 -58 -12 -72 -66 -157 -86 -137 -20 20
-32 13 -13 -8 26 -28 30 -26 69 32 35 51 35 51 46 24 5 -15 10 -31 10 -36 0
-5 6 -15 13 -22 7 -7 18 -25 24 -40 11 -24 10 -27 -17 -38 -17 -7 -46 -10 -67
-6 -31 5 -34 4 -20 -5 11 -6 37 -8 60 -5 53 7 54 7 100 0 30 -5 37 -3 37 10 0
36 49 102 99 132 164 100 464 74 526 -46 15 -30 15 -30 -21 -63 -64 -56 -102
-80 -151 -93 -44 -12 -45 -13 -15 -13 40 -1 100 28 150 73 52 47 107 76 145
76 24 0 28 3 17 10 -17 10 -57 3 -79 -14 -9 -7 -15 -7 -18 -1 -30 90 -155 148
-316 146 -150 -1 -276 -58 -336 -151 -33 -51 -71 -68 -71 -32 0 11 -14 47 -31
80 -28 57 -30 67 -24 126 7 60 -6 101 -19 59z"/>
<path d="M2385 555 c40 -25 147 -36 159 -17 3 5 -21 7 -52 6 -41 -1 -66 4 -90
17 -49 28 -64 22 -17 -6z"/>
<path d="M2755 560 c-70 -6 -70 -6 -5 -8 36 -1 72 3 80 8 8 5 11 9 5 8 -5 -1
-41 -4 -80 -8z"/>
<path d="M1080 501 c0 -36 -18 -59 -51 -66 -28 -6 -30 -9 -16 -22 17 -17 52
-4 75 29 7 10 19 16 25 12 7 -3 5 0 -3 8 -8 7 -17 22 -18 33 -5 29 -12 32 -12
6z"/>
<path d="M2945 500 c-4 -6 -8 -27 -10 -47 -2 -20 -12 -48 -23 -62 -31 -42 -25
-42 -296 25 -55 13 -110 31 -123 39 -12 8 -28 15 -35 15 -8 0 -6 -5 5 -11 9
-5 17 -17 17 -26 0 -10 6 -14 20 -10 11 3 27 -2 35 -10 9 -8 22 -12 30 -9 8 3
15 1 15 -5 0 -7 12 -8 33 -4 24 5 28 4 17 -4 -11 -8 2 -11 50 -12 44 -1 57 -3
40 -8 -22 -7 -20 -8 20 -16 43 -9 65 -12 102 -14 9 -1 23 -8 32 -16 13 -14 16
-13 26 5 6 11 8 20 6 20 -3 0 6 16 19 36 14 20 25 44 26 53 0 9 2 28 4 44 4
28 0 34 -10 17z m-155 -140 c8 -5 11 -10 5 -10 -5 0 -17 5 -25 10 -8 5 -10 10
-5 10 6 0 17 -5 25 -10z"/>
<path d="M2890 468 c-26 -43 -25 -60 1 -28 31 39 41 60 29 60 -6 0 -19 -15
-30 -32z"/>
<path d="M1900 480 c0 -7 3 -10 7 -7 3 4 3 10 0 14 -4 3 -7 0 -7 -7z"/>
<path d="M435 410 c-15 -16 -14 -18 17 -23 82 -14 153 -18 138 -8 -8 6 -26 11
-40 11 -14 0 -42 8 -62 19 -35 18 -38 18 -53 1z m35 -10 c0 -5 -2 -10 -4 -10
-3 0 -8 5 -11 10 -3 6 -1 10 4 10 6 0 11 -4 11 -10z"/>
<path d="M2128 414 c-26 -8 -50 -19 -53 -24 -5 -8 51 8 115 33 33 12 -15 6
-62 -9z"/>
<path d="M1870 370 c30 -38 49 -54 34 -27 -20 33 -49 67 -57 67 -5 0 6 -18 23
-40z"/>
<path d="M613 373 c4 -3 10 -3 14 0 3 4 0 7 -7 7 -7 0 -10 -3 -7 -7z"/>
<path d="M645 361 c-3 -5 0 -13 6 -17 8 -4 9 -3 5 4 -4 7 -3 12 3 12 5 0 13
-4 16 -10 3 -5 12 -10 18 -10 7 0 3 7 -7 15 -23 17 -33 19 -41 6z"/>
<path d="M2200 350 c-8 -16 -8 -18 4 -14 17 6 30 34 16 34 -5 0 -14 -9 -20
-20z"/>
<path d="M2393 363 c4 -3 10 -3 14 0 3 4 0 7 -7 7 -7 0 -10 -3 -7 -7z"/>
<path d="M573 353 c4 -3 10 -3 14 0 3 4 0 7 -7 7 -7 0 -10 -3 -7 -7z"/>
<path d="M2467 327 c77 -47 106 -64 223 -125 58 -30 116 -63 130 -72 14 -10
27 -17 30 -17 3 0 31 -16 63 -36 57 -37 149 -77 175 -77 8 0 -35 25 -95 56
-140 72 -134 69 -163 84 -14 8 -68 36 -120 63 -89 46 -119 63 -213 126 -22 14
-49 26 -60 28 -13 2 -1 -10 30 -30z"/>
<path d="M461 313 c79 -133 159 -154 362 -91 59 18 71 19 95 7 45 -22 48 -23
33 -6 -7 10 -21 17 -30 17 -14 0 -14 2 -1 10 11 7 3 11 -29 16 -25 4 -57 18
-75 34 -35 30 -93 56 -103 46 -3 -3 -1 -6 6 -6 7 0 26 -12 41 -27 16 -15 35
-28 42 -29 7 -1 28 -9 46 -17 34 -14 34 -14 5 -25 -43 -18 -169 -42 -216 -42
-55 0 -96 26 -147 94 -47 64 -62 74 -29 19z"/>
<path d="M2825 330 c3 -5 8 -10 11 -10 3 0 2 5 -1 10 -3 6 -8 10 -11 10 -3 0
-2 -4 1 -10z"/>
<path d="M713 323 c4 -3 10 -3 14 0 3 4 0 7 -7 7 -7 0 -10 -3 -7 -7z"/>
<path d="M2230 315 c0 -2 10 -10 23 -16 20 -11 21 -11 8 4 -13 16 -31 23 -31
12z"/>
<path d="M2850 312 c0 -4 16 -23 35 -42 19 -19 35 -31 35 -27 0 4 9 3 21 -3
25 -14 123 -40 148 -40 10 0 36 -8 57 -17 22 -9 53 -17 69 -18 17 -1 41 -5 55
-10 16 -4 21 -4 15 2 -9 9 -69 25 -249 68 -78 18 -110 33 -148 69 -28 27 -38
32 -38 18z"/>
<path d="M3060 291 c0 -5 7 -11 15 -15 8 -3 15 -1 15 3 0 5 -7 11 -15 15 -8 3
-15 1 -15 -3z"/>
<path d="M2153 263 c9 -2 25 -2 35 0 9 3 1 5 -18 5 -19 0 -27 -2 -17 -5z"/>
<path d="M1084 242 c-10 -9 -32 -23 -48 -30 -16 -7 -26 -15 -24 -18 9 -8 62
16 81 37 24 26 17 35 -9 11z"/>
<path d="M2109 243 c-13 -16 -12 -17 4 -4 16 13 21 21 13 21 -2 0 -10 -8 -17
-17z"/>
<path d="M1200 213 c0 -45 -11 -58 -55 -68 -17 -4 -95 -29 -175 -56 -80 -27
-175 -54 -212 -61 -81 -15 -82 -27 -1 -17 32 3 62 4 67 1 5 -3 6 0 2 6 -5 8 1
12 14 12 14 0 19 -4 14 -12 -6 -10 -4 -10 7 0 7 6 21 12 31 12 10 0 18 4 18 9
0 5 7 12 16 15 8 3 12 2 9 -4 -3 -6 -1 -10 4 -10 6 0 11 7 11 15 0 8 9 15 19
15 11 0 22 4 25 8 3 5 19 9 36 10 17 0 39 7 47 14 12 9 17 10 20 2 3 -8 16 -6
41 7 20 10 55 26 77 35 57 24 86 45 79 56 -3 5 -21 -2 -39 -16 -33 -26 -33
-26 -40 4 -4 16 -4 33 -1 38 6 10 66 3 83 -10 22 -17 83 -149 83 -178 0 -16 5
-32 12 -36 17 -11 2 84 -19 115 -10 14 -27 47 -40 74 -14 30 -28 47 -40 47
-10 0 -35 3 -55 6 -38 7 -38 7 -38 -33z m-70 -93 c-20 -13 -33 -13 -25 0 3 6
14 10 23 10 15 0 15 -2 2 -10z m-63 -17 c-4 -3 -10 -3 -14 0 -3 4 0 7 7 7 7 0
10 -3 7 -7z"/>
<path d="M990 230 c8 -5 22 -10 30 -10 13 0 13 1 0 10 -8 5 -22 10 -30 10 -13
0 -13 -1 0 -10z"/>
<path d="M2450 220 c0 -5 5 -12 10 -15 6 -3 10 -2 10 4 0 6 7 8 16 4 11 -4 12
-8 4 -13 -8 -5 -6 -11 5 -20 13 -11 15 -10 12 8 -2 12 -6 24 -9 27 -10 10 -48
14 -48 5z"/>
<path d="M1374 201 c11 -11 23 -21 28 -21 14 0 -1 19 -25 31 -22 12 -22 12 -3
-10z"/>
<path d="M1890 198 c0 -13 -2 -32 -5 -43 -3 -15 6 -28 36 -50 22 -16 60 -47
83 -67 24 -21 47 -38 51 -38 10 0 -68 75 -114 110 -27 20 -32 31 -29 55 3 30
3 30 42 -12 22 -24 44 -43 51 -43 6 0 28 -16 49 -35 39 -36 97 -48 112 -24 4
8 -3 9 -23 5 -29 -7 -113 40 -113 63 0 5 -13 14 -29 19 -16 6 -32 20 -36 31
-3 12 -12 21 -19 21 -8 0 -19 7 -26 15 -18 22 -30 19 -30 -7z"/>
<path d="M2100 209 c0 -5 5 -7 10 -4 6 3 10 8 10 11 0 2 -4 4 -10 4 -5 0 -10
-5 -10 -11z"/>
<path d="M2126 193 c-6 -14 -5 -15 5 -6 7 7 10 15 7 18 -3 3 -9 -2 -12 -12z"/>
<path d="M2940 206 c0 -2 7 -9 15 -16 9 -7 15 -8 15 -2 0 5 -7 12 -15 16 -8 3
-15 4 -15 2z"/>
<path d="M2525 180 c3 -5 8 -10 11 -10 3 0 2 5 -1 10 -3 6 -8 10 -11 10 -3 0
-2 -4 1 -10z"/>
<path d="M1423 173 c4 -3 10 -3 14 0 3 4 0 7 -7 7 -7 0 -10 -3 -7 -7z"/>
<path d="M2330 171 c0 -5 5 -13 10 -16 6 -3 10 -2 10 4 0 5 -4 13 -10 16 -5 3
-10 2 -10 -4z"/>
<path d="M2095 160 c-3 -6 1 -7 9 -4 18 7 21 14 7 14 -6 0 -13 -4 -16 -10z"/>
<path d="M2918 153 c7 -3 16 -2 19 1 4 3 -2 6 -13 5 -11 0 -14 -3 -6 -6z"/>
<path d="M3300 140 c0 -11 4 -20 9 -20 6 0 9 9 8 20 -1 11 -5 20 -9 20 -4 0
-8 -9 -8 -20z"/>
<path d="M2975 126 c24 -21 119 -74 209 -115 5 -2 6 2 1 8 -4 7 -44 29 -88 51
-45 21 -98 48 -117 61 -35 22 -35 22 -5 -5z"/>
<path d="M2043 133 c4 -3 10 -3 14 0 3 4 0 7 -7 7 -7 0 -10 -3 -7 -7z"/>
<path d="M2410 111 c24 -20 40 -26 40 -16 0 2 -15 12 -32 20 -33 16 -33 16 -8
-4z"/>
<path d="M2215 100 c8 -13 64 -42 74 -38 4 2 -12 13 -36 25 -24 13 -41 18 -38
13z"/>
<path d="M2263 93 c4 -3 10 -3 14 0 3 4 0 7 -7 7 -7 0 -10 -3 -7 -7z"/>
<path d="M1867 47 c-9 -22 -14 -37 -10 -34 3 4 13 1 21 -6 13 -10 14 -8 9 15
-9 36 11 48 34 20 23 -29 33 -28 14 1 -8 13 -13 26 -10 29 3 3 -5 8 -18 10
-19 4 -26 -2 -40 -35z"/>
<path d="M2173 73 c4 -3 10 -3 14 0 3 4 0 7 -7 7 -7 0 -10 -3 -7 -7z"/>
<path d="M1023 43 c4 -3 10 -3 14 0 3 4 0 7 -7 7 -7 0 -10 -3 -7 -7z"/>
<path d="M2892 34 c10 -10 20 -16 22 -13 3 3 -5 11 -17 18 -21 13 -21 12 -5
-5z"/>
<path d="M2340 10 c-10 -6 3 -9 42 -7 32 1 58 5 58 10 0 10 -82 8 -100 -3z"/>
<path d="M923 3 c4 -3 10 -3 14 0 3 4 0 7 -7 7 -7 0 -10 -3 -7 -7z"/>
<path d="M1173 3 c4 -3 10 -3 14 0 3 4 0 7 -7 7 -7 0 -10 -3 -7 -7z"/>
<path d="M2163 3 c4 -3 10 -3 14 0 3 4 0 7 -7 7 -7 0 -10 -3 -7 -7z"/>
<path d="M2923 3 c9 -2 23 -2 30 0 6 3 -1 5 -18 5 -16 0 -22 -2 -12 -5z"/>
</g>
</svg>
