<?xml version="1.0" standalone="no"?>
<!DOCTYPE svg PUBLIC "-//W3C//DTD SVG 20010904//EN"
 "http://www.w3.org/TR/2001/REC-SVG-20010904/DTD/svg10.dtd">
<svg version="1.0" xmlns="http://www.w3.org/2000/svg"
 width="256.000000pt" height="344.000000pt" viewBox="0 0 256.000000 344.000000"
 preserveAspectRatio="xMidYMid meet">
<metadata>
Created by potrace 1.16, written by Peter Selinger 2001-2019
</metadata>
<g transform="translate(0.000000,344.000000) scale(0.100000,-0.100000)"
fill="#000000" stroke="none">
<path d="M163 3433 c4 -3 10 -3 14 0 3 4 0 7 -7 7 -7 0 -10 -3 -7 -7z"/>
<path d="M238 3428 c12 -6 32 -27 43 -45 22 -34 22 -34 -8 -66 -16 -18 -40
-48 -52 -68 -33 -57 -96 -88 -186 -91 -30 -1 -35 -5 -35 -25 0 -12 5 -23 11
-23 8 0 8 -4 1 -12 -29 -36 -2 -82 30 -50 19 19 48 15 48 -7 0 -11 5 -23 11
-26 6 -4 10 -1 8 6 -7 55 0 66 67 98 36 17 90 47 121 67 44 28 67 36 115 39
33 2 65 8 69 12 5 5 -6 7 -26 5 -22 -3 -35 0 -35 8 0 21 73 8 85 -16 6 -11 15
-19 22 -17 14 5 53 -14 53 -26 0 -18 -54 -23 -66 -7 -15 21 -36 20 -32 0 6
-33 -73 -22 -95 14 -5 7 -13 10 -18 6 -24 -14 34 -108 63 -101 12 4 19 -3 23
-24 4 -16 8 -29 11 -29 8 0 44 40 44 50 0 21 26 8 48 -23 26 -37 29 -20 8 41
-14 38 -14 40 10 51 39 18 20 72 -31 85 -14 4 -25 11 -25 17 0 6 5 9 12 7 6
-2 20 4 29 13 15 15 24 16 51 8 18 -6 40 -13 49 -16 9 -2 30 8 48 23 41 34 63
24 72 -32 3 -21 7 -31 8 -21 1 18 21 25 21 7 0 -5 5 -10 10 -10 19 0 11 76
-10 95 -11 10 -20 13 -20 8 0 -6 7 -16 15 -23 8 -7 15 -19 15 -28 0 -12 -6
-10 -26 9 -33 31 -54 71 -54 104 0 14 -5 25 -11 25 -6 0 -9 -6 -6 -12 2 -7 -3
-18 -12 -25 -15 -11 -15 -12 0 -13 9 0 20 -7 23 -16 8 -20 -22 -57 -41 -50 -7
3 -13 -1 -13 -8 0 -23 -45 -14 -45 9 -1 11 -4 25 -8 31 -10 17 50 61 76 56 4
-1 7 5 7 13 0 20 -29 19 -52 -1 -14 -13 -21 -14 -32 -5 -11 9 -15 9 -19 -1 -3
-10 -10 -8 -26 6 -19 17 -21 17 -21 3 0 -10 -7 -17 -16 -17 -8 0 -13 -4 -9
-10 3 -5 -2 -18 -11 -29 -22 -25 -56 -11 -54 22 4 45 2 46 -65 46 -36 -1 -63
-5 -60 -10 4 -5 2 -16 -3 -24 -7 -13 -10 -12 -22 10 -7 14 -18 25 -23 25 -5 0
-2 -11 7 -25 28 -43 17 -50 -18 -12 -18 20 -42 37 -52 36 -16 0 -16 -2 4 -11z
m222 -20 c0 -13 -23 -5 -28 10 -2 7 2 10 12 6 9 -3 16 -11 16 -16z m-24 -13
c18 -15 18 -15 -10 -13 -16 2 -31 9 -34 16 -5 17 20 15 44 -3z m161 -2 c-4 -3
-10 -3 -14 0 -3 4 0 7 7 7 7 0 10 -3 7 -7z m-227 -21 c0 -13 -39 -46 -46 -40
-3 4 3 16 13 27 18 22 33 27 33 13z m209 -1 c7 -5 9 -11 5 -14 -5 -3 -15 1
-22 9 -14 16 -5 18 17 5z m-120 -10 c7 -5 10 -14 6 -20 -5 -9 -10 -9 -21 0
-26 22 -14 38 15 20z m101 -17 c0 -8 -4 -14 -9 -14 -12 0 -32 26 -25 33 10 9
34 -4 34 -19z m-136 -23 c4 -37 -25 -57 -56 -37 -35 21 -23 49 18 43 28 -5 33
-3 25 7 -6 7 -8 16 -4 19 9 10 13 4 17 -32z m-146 -63 c-25 -44 -53 -64 -46
-32 2 11 10 18 16 17 7 -2 11 0 10 5 -4 13 35 77 39 65 3 -7 -6 -32 -19 -55z
m262 52 c0 -5 -4 -10 -10 -10 -5 0 -10 5 -10 10 0 6 5 10 10 10 6 0 10 -4 10
-10z m-80 -20 c0 -5 -2 -10 -4 -10 -3 0 -8 5 -11 10 -3 6 -1 10 4 10 6 0 11
-4 11 -10z m-140 -45 c-27 -29 -42 -32 -33 -7 11 31 36 53 47 42 6 -6 2 -18
-14 -35z m167 28 c-4 -3 -7 0 -7 7 0 7 3 10 7 7 3 -4 3 -10 0 -14z m-102 -13
c3 -5 -3 -10 -14 -10 -12 0 -21 5 -21 10 0 6 6 10 14 10 8 0 18 -4 21 -10z
m-148 -92 c-5 -3 -16 -4 -24 -1 -7 3 -16 -2 -19 -11 -7 -17 -34 -22 -34 -6 0
6 5 10 10 10 6 0 20 9 32 19 16 15 23 17 33 8 9 -8 9 -14 2 -19z m189 -32 c3
-20 -12 -11 -27 16 -9 17 -9 19 7 10 10 -5 19 -17 20 -26z m119 7 c7 -19 0
-27 -14 -18 -6 3 -9 12 -5 18 3 7 -4 1 -15 -13 -11 -14 -21 -31 -21 -38 0 -17
-22 -11 -28 8 -3 7 0 10 7 6 7 -5 9 -1 5 9 -9 22 23 54 46 48 10 -3 21 -12 25
-20z m-466 -32 c-19 -22 -41 -40 -49 -40 -10 0 -7 5 8 17 15 12 21 24 16 35
-4 13 -1 17 14 17 12 0 24 5 27 11 4 6 9 8 12 5 3 -3 -9 -23 -28 -45z m-35 13
c3 -8 2 -12 -4 -9 -6 3 -10 10 -10 16 0 14 7 11 14 -7z"/>
<path d="M790 3433 c8 -4 29 -17 46 -30 17 -12 34 -20 39 -15 5 4 5 1 1 -6 -6
-9 -14 -7 -37 8 -22 17 -29 18 -29 7 0 -8 13 -20 30 -27 16 -7 35 -18 41 -26
6 -8 18 -14 27 -14 13 0 12 3 -3 20 -24 27 1 27 33 1 28 -24 28 -27 -5 -57
-25 -23 -25 -25 -9 -43 14 -15 15 -24 7 -40 -21 -38 -15 -56 14 -37 23 15 25
15 40 -6 15 -22 15 -22 17 2 2 44 3 48 11 56 4 4 7 -5 7 -21 0 -22 3 -25 14
-16 35 29 17 81 -27 81 -19 0 -20 55 -1 70 7 7 11 16 8 21 -3 5 0 18 6 30 10
17 8 23 -7 34 -20 15 -117 19 -108 4 4 -5 12 -9 19 -9 8 0 21 -11 30 -25 15
-23 15 -25 0 -25 -9 0 -22 7 -28 15 -6 8 -24 16 -39 17 -15 1 -35 10 -44 20
-9 10 -28 18 -42 17 -16 0 -20 -3 -11 -6z m210 -23 c0 -5 -4 -10 -10 -10 -5 0
-10 5 -10 10 0 6 5 10 10 10 6 0 10 -4 10 -10z m-23 -147 c-4 -3 -7 0 -7 7 0
7 3 10 7 7 3 -4 3 -10 0 -14z m-20 -10 c-4 -3 -7 0 -7 7 0 7 3 10 7 7 3 -4 3
-10 0 -14z"/>
<path d="M855 3430 c3 -5 8 -10 11 -10 3 0 2 5 -1 10 -3 6 -8 10 -11 10 -3 0
-2 -4 1 -10z"/>
<path d="M1049 3438 c0 -2 -3 -14 -5 -28 -2 -13 -8 -27 -13 -30 -18 -12 -7
-43 21 -52 24 -9 28 -15 28 -48 0 -21 -5 -40 -12 -42 -7 -3 -9 -12 -5 -22 5
-12 13 -15 27 -11 23 7 70 -20 48 -28 -7 -3 -4 -6 8 -6 26 -1 56 30 37 36 -20
7 4 43 27 43 11 0 20 5 20 10 0 6 -6 10 -14 10 -21 0 -31 21 -16 30 11 6 10
12 -4 25 -13 13 -14 20 -5 31 17 21 4 28 -15 9 -13 -14 -16 -14 -16 -2 0 8 -7
21 -16 28 -15 12 -16 11 -9 -10 6 -21 5 -23 -14 -18 -17 4 -20 3 -12 -7 6 -7
10 -24 9 -38 -2 -25 -2 -25 -29 1 -28 28 -28 43 0 57 13 7 16 15 10 34 -7 25
-7 25 -14 3 -10 -31 -29 -29 -21 2 5 18 -10 40 -15 23z m108 -115 c-4 -3 -10
-3 -14 0 -3 4 0 7 7 7 7 0 10 -3 7 -7z m-10 -58 c-4 -8 -2 -17 3 -20 6 -4 5
-12 -3 -19 -17 -19 -27 -10 -27 25 0 20 5 29 16 29 10 0 14 -6 11 -15z m-40
-41 c-3 -3 -12 -4 -19 -1 -8 3 -5 6 6 6 11 1 17 -2 13 -5z"/>
<path d="M1135 3430 c3 -5 11 -10 16 -10 6 0 7 5 4 10 -3 6 -11 10 -16 10 -6
0 -7 -4 -4 -10z"/>
<path d="M1190 3436 c0 -2 7 -9 15 -16 9 -7 15 -8 15 -2 0 5 -7 12 -15 16 -8
3 -15 4 -15 2z"/>
<path d="M1235 3430 c-3 -5 5 -12 19 -16 25 -6 46 1 46 14 0 11 -59 12 -65 2z"/>
<path d="M2357 3381 c-42 -22 -92 -51 -110 -64 -17 -14 -103 -60 -189 -103
-115 -57 -158 -84 -158 -96 0 -10 5 -18 10 -18 6 0 10 -11 10 -25 0 -14 6 -25
13 -25 10 0 14 -22 15 -87 1 -49 6 -101 11 -118 5 -16 12 -94 16 -173 3 -78 8
-153 10 -165 2 -12 6 -68 10 -124 7 -103 7 -103 -28 -103 -20 0 -56 -9 -82
-20 -25 -11 -51 -19 -58 -17 -8 1 -12 -14 -12 -48 0 -83 -20 -56 -26 35 -3 53
-6 67 -7 38 -2 -46 -3 -48 -42 -59 -33 -10 -39 -16 -34 -32 22 -70 3 -105 -71
-128 -22 -7 -49 -20 -60 -30 -11 -9 -33 -24 -50 -32 -16 -9 -25 -16 -19 -17 6
0 31 13 55 30 24 16 51 30 59 30 8 0 30 9 48 20 21 13 42 18 54 14 14 -4 18
-2 14 5 -5 7 6 17 28 26 43 18 53 19 53 2 0 -9 -10 -12 -29 -9 -17 3 -28 0
-28 -7 0 -7 6 -11 13 -10 31 4 43 -1 27 -11 -12 -8 -11 -10 8 -10 31 0 29 -3
-39 -79 -56 -63 -66 -70 -142 -94 -45 -15 -90 -27 -99 -27 -9 0 -19 -4 -22 -9
-6 -10 -1 -9 89 15 120 32 129 33 136 22 4 -7 9 -7 13 0 3 6 0 12 -6 15 -8 3
-6 7 7 12 11 3 32 13 47 21 34 18 49 18 24 -1 -19 -14 -18 -15 10 -15 37 0 56
-13 49 -32 -3 -8 1 -21 10 -28 11 -9 15 -9 15 -1 0 7 5 9 13 5 6 -4 4 2 -5 13
-10 11 -18 34 -18 52 0 17 -7 46 -16 63 -16 32 -16 32 -60 -16 -24 -26 -48
-46 -55 -44 -7 2 11 29 40 63 45 51 51 63 46 89 -6 30 -5 30 10 11 16 -19 16
-18 9 20 -3 22 -8 42 -10 44 -7 8 18 41 31 41 36 0 65 23 65 52 0 25 4 29 22
26 42 -6 30 -68 -13 -68 -25 0 -24 -16 1 -23 11 -3 20 -1 20 4 0 5 6 9 14 9
21 0 33 49 25 100 -4 25 -12 126 -18 225 -6 99 -19 255 -28 347 -13 130 -14
170 -5 181 10 12 8 16 -9 20 -13 4 -19 12 -17 24 2 10 -3 23 -11 29 -12 10
-11 13 10 23 23 12 23 12 4 -4 -20 -17 -20 -17 1 -11 44 13 134 68 128 78 -4
6 1 8 15 3 13 -4 31 0 49 12 15 10 44 26 65 36 21 9 35 21 32 27 -3 5 13 14
36 20 28 8 39 16 35 25 -3 9 0 12 10 8 9 -3 14 0 12 7 -2 6 21 24 49 39 49 25
72 41 62 41 -3 0 -39 -18 -82 -39z m-67 -55 c0 -3 -5 -8 -12 -12 -7 -4 -8 -3
-4 4 7 12 16 16 16 8z m-95 -66 c-3 -5 -12 -10 -18 -10 -7 0 -6 4 3 10 19 12
23 12 15 0z m-35 -14 c0 -2 -7 -7 -16 -10 -8 -3 -12 -2 -9 4 6 10 25 14 25 6z
m-45 -26 c-3 -5 -11 -10 -16 -10 -6 0 -7 5 -4 10 3 6 11 10 16 10 6 0 7 -4 4
-10z m-60 -30 c-3 -5 -12 -10 -18 -10 -7 0 -6 4 3 10 19 12 23 12 15 0z m-35
-14 c0 -3 -5 -8 -12 -12 -7 -4 -8 -3 -4 4 7 12 16 16 16 8z m-33 -23 c-4 -3
-10 -3 -14 0 -3 4 0 7 7 7 7 0 10 -3 7 -7z m-57 -897 c0 -3 -5 -8 -12 -12 -7
-4 -8 -3 -4 4 7 12 16 16 16 8z m-93 -58 c-3 -8 -6 -5 -6 6 -1 11 2 17 5 13 3
-3 4 -12 1 -19z m-47 -66 c0 -10 -44 -32 -62 -32 -6 0 -3 9 7 20 18 20 55 28
55 12z m70 -146 c0 -2 -8 -10 -17 -17 -16 -13 -17 -12 -4 4 13 16 21 21 21 13z
m3 -60 c4 -10 1 -13 -9 -9 -15 6 -19 23 -5 23 5 0 11 -7 14 -14z"/>
<path d="M3 3375 c-9 -24 1 -27 15 -5 8 13 8 20 2 20 -6 0 -13 -7 -17 -15z"/>
<path d="M690 3370 c0 -7 3 -10 7 -7 3 4 3 10 0 14 -4 3 -7 0 -7 -7z"/>
<path d="M663 3353 c4 -3 10 -3 14 0 3 4 0 7 -7 7 -7 0 -10 -3 -7 -7z"/>
<path d="M2210 3195 c-7 -8 -8 -15 -2 -15 5 0 15 7 22 15 7 8 8 15 2 15 -5 0
-15 -7 -22 -15z"/>
<path d="M845 3188 c-11 -6 -41 -31 -67 -55 -26 -23 -52 -43 -57 -43 -14 0
-102 -62 -96 -68 2 -2 23 10 47 27 23 17 47 31 52 31 6 0 25 12 41 26 17 14
48 41 69 60 42 36 44 41 11 22z"/>
<path d="M2148 3158 c-13 -13 -17 -18 -8 -12 8 6 24 16 35 22 11 6 15 12 8 12
-7 0 -22 -10 -35 -22z"/>
<path d="M2362 3148 c-22 -18 -49 -44 -60 -58 -27 -35 -64 -122 -50 -118 7 3
18 24 26 49 10 29 35 63 74 102 66 65 69 72 10 25z"/>
<path d="M2060 3115 c-19 -14 -30 -25 -25 -25 12 0 75 38 75 45 0 10 -16 4
-50 -20z"/>
<path d="M140 3036 c0 -8 -6 -16 -12 -19 -20 -7 33 -45 54 -39 30 8 31 21 1
47 -32 28 -43 31 -43 11z m35 -26 c3 -6 -1 -7 -9 -4 -18 7 -21 14 -7 14 6 0
13 -4 16 -10z"/>
<path d="M2104 3035 c-35 -24 -93 -101 -99 -131 -6 -29 -6 -29 9 3 8 17 37 55
65 84 52 54 61 70 25 44z"/>
<path d="M2421 3028 c1 -30 14 -63 25 -63 5 0 9 -52 10 -115 0 -63 4 -124 9
-135 6 -14 2 -13 -13 6 -12 15 -27 40 -34 55 -11 29 -11 29 -17 -6 -6 -35 -6
-35 -19 6 -15 52 -16 141 0 184 8 25 8 35 0 38 -6 2 -8 11 -5 20 4 13 3 14 -6
6 -18 -17 -26 -172 -11 -234 7 -28 12 -85 12 -126 -1 -69 1 -74 21 -74 22 -1
22 -1 3 -15 -11 -8 -15 -15 -9 -15 6 0 16 7 23 15 7 8 16 15 21 15 21 0 47 41
53 82 8 56 -12 315 -27 347 -16 33 -37 39 -36 9z m19 -369 c0 -40 -3 -49 -17
-49 -14 0 -18 8 -17 33 1 17 2 45 3 61 2 53 31 11 31 -45z m17 -6 c-4 -3 -7 0
-7 7 0 7 3 10 7 7 3 -4 3 -10 0 -14z"/>
<path d="M2205 3020 c3 -5 8 -10 11 -10 3 0 2 5 -1 10 -3 6 -8 10 -11 10 -3 0
-2 -4 1 -10z"/>
<path d="M7 3013 c-4 -3 -7 -24 -7 -45 0 -47 19 -42 21 5 1 32 1 32 13 -4 6
-20 17 -43 24 -52 18 -22 6 -40 -17 -27 -22 11 -41 -5 -41 -37 0 -15 5 -21 14
-17 23 9 55 -14 74 -53 24 -52 42 -54 42 -5 0 44 -8 56 -25 42 -19 -16 -40 17
-36 58 0 7 8 12 17 10 13 -2 17 6 19 40 1 32 -2 42 -14 42 -9 0 -27 12 -40 25
-24 26 -33 30 -44 18z m70 -80 c-4 -3 -7 0 -7 7 0 7 3 10 7 7 3 -4 3 -10 0
-14z m-47 -74 c0 -6 -4 -7 -10 -4 -5 3 -10 11 -10 16 0 6 5 7 10 4 6 -3 10
-11 10 -16z"/>
<path d="M565 3010 c-20 -9 -20 -9 0 -9 11 0 27 4 35 9 20 13 -5 13 -35 0z"/>
<path d="M658 3013 c6 -2 18 -2 25 0 6 3 1 5 -13 5 -14 0 -19 -2 -12 -5z"/>
<path d="M460 2979 c-61 -22 -189 -21 -216 2 -8 6 -18 9 -21 5 -4 -4 -1 -11 7
-16 12 -8 9 -10 -10 -11 -14 0 -35 -2 -48 -3 -13 -2 -25 1 -28 6 -12 20 -22 5
-17 -26 3 -19 1 -36 -6 -40 -6 -4 -11 -11 -11 -15 0 -14 78 -63 90 -56 6 4 19
-13 32 -42 15 -32 23 -42 26 -31 2 10 -7 38 -19 63 -12 25 -20 48 -16 51 4 4
-1 13 -11 20 -16 12 -15 13 5 14 13 0 35 -16 56 -41 35 -40 35 -40 71 -9 20
18 36 37 36 43 0 6 -3 7 -7 4 -9 -9 -43 22 -43 40 0 9 14 13 43 13 23 0 71 11
107 25 36 13 58 24 50 24 -8 0 -40 -9 -70 -20z m-145 -39 c4 -6 -8 -10 -29
-10 -20 0 -36 5 -36 10 0 6 13 10 29 10 17 0 33 -4 36 -10z m-114 -13 c-4 -4
-18 -3 -32 2 -23 9 -22 9 8 8 18 -1 28 -6 24 -10z m134 -27 c3 -5 -3 -18 -14
-29 -17 -17 -20 -17 -34 -3 -15 14 -15 17 1 28 20 16 39 18 47 4z m-178 -7
c-4 -3 -10 -3 -14 0 -3 4 0 7 7 7 7 0 10 -3 7 -7z"/>
<path d="M2320 2950 c0 -7 3 -10 7 -7 3 4 3 10 0 14 -4 3 -7 0 -7 -7z"/>
<path d="M2327 2745 c2 -93 7 -172 9 -174 13 -14 13 24 0 175 -15 169 -15 169
-9 -1z"/>
<path d="M2445 2449 c3 -4 -10 -12 -28 -18 -32 -11 -111 -81 -91 -81 5 0 15 9
22 20 32 51 161 83 176 44 10 -27 -5 -46 -33 -41 -27 5 -69 -12 -90 -37 -13
-16 6 -12 69 11 22 9 75 12 62 4 -7 -4 -8 -28 -2 -76 16 -121 13 -151 -14
-169 -25 -16 -25 -16 -34 27 -10 42 -10 42 -11 -1 -1 -43 -8 -50 -51 -56 -3
-1 -8 13 -12 29 -4 17 -5 3 -2 -30 3 -33 10 -64 14 -69 5 -5 6 -16 1 -25 -4
-9 -5 -49 -2 -88 4 -40 3 -73 -1 -73 -7 0 -11 30 -28 230 -15 172 -20 210 -29
210 -5 0 -5 -20 0 -45 17 -93 32 -395 19 -410 -10 -12 -7 -13 17 -6 33 10 40
11 52 11 6 0 7 15 4 34 -3 19 -1 36 6 40 7 5 11 -2 12 -16 1 -17 3 -18 6 -5 6
24 23 22 23 -3 0 -11 -8 -24 -17 -28 -14 -5 -9 -8 17 -12 20 -3 34 -11 32 -18
-1 -7 5 -12 15 -12 15 0 16 21 9 258 -4 141 -7 262 -6 267 6 74 3 109 -10 115
-25 12 -100 28 -95 19z m33 -413 c-2 -26 -24 -29 -38 -5 -7 10 -4 16 8 21 28
11 32 9 30 -16z m19 -3 c-4 -3 -7 0 -7 7 0 7 3 10 7 7 3 -4 3 -10 0 -14z"/>
<path d="M2461 2314 c0 -11 3 -14 6 -6 3 7 2 16 -1 19 -3 4 -6 -2 -5 -13z"/>
<path d="M2353 2313 c4 -3 10 -3 14 0 3 4 0 7 -7 7 -7 0 -10 -3 -7 -7z"/>
<path d="M2393 2235 c0 -22 2 -30 4 -17 2 12 2 30 0 40 -3 9 -5 -1 -4 -23z"/>
<path d="M2462 2225 c0 -16 2 -22 5 -12 2 9 2 23 0 30 -3 6 -5 -1 -5 -18z"/>
<path d="M1660 2185 c-14 -17 -40 -20 -40 -4 0 20 -55 5 -65 -18 -9 -22 -70
-54 -127 -68 -27 -7 -27 -8 -21 -65 6 -59 6 -59 -58 -89 -64 -30 -206 -85
-264 -101 -127 -36 -206 -80 -144 -80 11 0 18 4 15 9 -3 5 3 11 14 14 11 3 17
1 14 -4 -3 -6 5 -7 20 -3 15 3 26 2 26 -4 0 -17 43 -1 72 26 15 13 33 22 41
19 9 -3 23 3 33 14 9 10 21 19 26 19 5 0 25 7 46 17 20 9 43 15 51 14 7 -1 10
2 7 8 -4 6 5 13 21 17 15 4 34 14 41 23 9 10 11 11 6 2 -6 -11 -3 -13 12 -7
10 4 24 9 29 10 6 1 24 10 40 19 30 16 30 16 -2 10 -18 -3 -33 -2 -33 1 0 7
102 57 123 60 7 1 13 6 15 11 2 6 10 14 18 18 9 5 14 26 14 62 0 30 5 55 10
55 6 0 10 -20 10 -45 0 -52 19 -68 49 -41 10 9 22 16 27 16 5 0 7 22 6 50 -4
52 -11 60 -32 35z m11 -48 c-10 -9 -11 -8 -5 6 3 10 9 15 12 12 3 -3 0 -11 -7
-18z m-34 -19 c-3 -8 -6 -5 -6 6 -1 11 2 17 5 13 3 -3 4 -12 1 -19z m-70 -5
c-4 -3 -10 -3 -14 0 -3 4 0 7 7 7 7 0 10 -3 7 -7z m-32 -29 c-18 -14 -9 -25
13 -16 38 14 -14 -31 -56 -49 -56 -24 -59 -24 -66 7 -8 31 1 45 14 24 6 -9 10
-10 10 -3 0 7 -8 17 -17 23 -15 9 -14 10 6 4 15 -4 21 -2 17 4 -7 12 16 19 62
18 26 -1 29 -3 17 -12z m-435 -269 c-7 -8 -24 -15 -39 -14 -24 0 -24 1 9 14
45 17 44 17 30 0z m-43 -32 c-4 -3 -10 -3 -14 0 -3 4 0 7 7 7 7 0 10 -3 7 -7z"/>
<path d="M1898 2173 c-19 -5 -22 -30 -8 -73 7 -23 8 -23 9 -3 1 12 6 25 11 28
6 4 8 11 5 16 -3 5 1 6 9 3 11 -4 13 0 9 15 -3 12 -8 20 -12 20 -3 -1 -14 -3
-23 -6z"/>
<path d="M2010 2162 c0 -10 -5 -23 -12 -30 -9 -9 -8 -12 5 -12 12 0 17 8 17
30 0 17 -2 30 -5 30 -3 0 -5 -8 -5 -18z"/>
<path d="M1964 2119 c-3 -6 -1 -15 6 -19 7 -4 10 -12 6 -18 -3 -6 -2 -13 4
-17 6 -4 10 5 10 19 0 14 -5 26 -11 26 -5 0 -7 5 -4 10 3 6 4 10 1 10 -3 0 -8
-5 -12 -11z"/>
<path d="M2008 2093 c7 -3 16 -2 19 1 4 3 -2 6 -13 5 -11 0 -14 -3 -6 -6z"/>
<path d="M1920 2077 c0 -10 -4 -15 -10 -12 -15 9 -12 -7 4 -31 8 -11 16 -40
18 -65 3 -42 5 -44 33 -44 25 0 30 4 28 23 -3 25 9 29 27 7 16 -19 6 -43 -22
-55 -13 -5 -18 -9 -13 -10 6 -1 18 -3 28 -5 9 -2 15 1 11 6 -3 5 2 9 11 9 11
0 15 5 11 15 -3 8 -8 37 -12 63 -3 26 -10 54 -16 62 -7 11 -8 8 -4 -10 8 -39
-9 -60 -31 -38 -13 14 -14 21 -5 30 7 7 12 16 12 20 0 13 -28 9 -33 -4 -3 -7
-12 3 -20 22 -10 21 -16 28 -17 17z m7 -34 c-4 -3 -7 0 -7 7 0 7 3 10 7 7 3
-4 3 -10 0 -14z m27 -38 c-4 -8 -8 -15 -10 -15 -2 0 -4 7 -4 15 0 8 4 15 10
15 5 0 7 -7 4 -15z m30 -60 c4 -10 -1 -15 -14 -15 -11 0 -20 7 -20 15 0 8 6
15 14 15 8 0 16 -7 20 -15z"/>
<path d="M1950 2070 c0 -7 3 -10 7 -7 3 4 3 10 0 14 -4 3 -7 0 -7 -7z"/>
<path d="M2000 2070 c0 -5 5 -10 11 -10 5 0 7 5 4 10 -3 6 -8 10 -11 10 -2 0
-4 -4 -4 -10z"/>
<path d="M1878 2033 c7 -3 16 -2 19 1 4 3 -2 6 -13 5 -11 0 -14 -3 -6 -6z"/>
<path d="M1770 2010 c0 -7 3 -10 7 -7 3 4 3 10 0 14 -4 3 -7 0 -7 -7z"/>
<path d="M1905 1980 c3 -5 8 -10 11 -10 3 0 2 5 -1 10 -3 6 -8 10 -11 10 -3 0
-2 -4 1 -10z"/>
<path d="M1901 1944 c0 -11 3 -14 6 -6 3 7 2 16 -1 19 -3 4 -6 -2 -5 -13z"/>
<path d="M885 1929 c-22 -10 -57 -19 -77 -19 -38 0 -38 0 -38 -75 0 -74 0 -75
-25 -75 -33 0 -91 -24 -132 -56 -27 -21 -35 -23 -52 -12 -47 29 -160 -41 -200
-126 -18 -36 -21 -62 -21 -163 0 -183 0 -183 -71 -183 -32 0 -61 5 -64 10 -3
6 -2 10 3 10 5 0 12 12 15 26 3 19 1 24 -10 20 -8 -3 -22 -6 -31 -6 -15 -1
-15 -2 2 -15 18 -13 17 -14 -14 -10 -17 2 -42 12 -54 22 -11 10 -23 19 -25 20
-2 1 2 16 9 33 10 24 10 33 0 45 -13 15 -8 19 23 16 12 -2 17 5 17 24 0 15 -4
24 -10 20 -6 -3 -10 1 -10 9 0 9 -4 16 -10 16 -5 0 -10 -4 -10 -10 0 -5 -7 -7
-15 -4 -18 7 -1 34 21 34 8 0 14 4 14 10 0 5 -6 7 -14 4 -8 -3 -22 -2 -31 4
-20 11 -65 4 -65 -10 0 -6 11 -8 24 -6 22 4 23 3 13 -14 -7 -10 -19 -17 -28
-15 -9 2 -16 -1 -16 -8 0 -7 8 -10 19 -7 10 2 18 -1 18 -7 0 -6 -7 -11 -15
-11 -8 0 -15 -7 -15 -16 0 -8 4 -13 9 -10 5 3 11 -4 15 -17 9 -35 7 -39 -14
-32 -14 5 -20 2 -20 -9 0 -19 46 -22 53 -3 4 8 6 9 6 0 1 -6 -13 -21 -30 -33
-35 -26 -33 -35 5 -20 24 9 26 8 16 -9 -13 -26 -13 -34 2 -25 7 4 8 3 4 -4 -4
-7 -18 -9 -32 -6 -14 4 -24 2 -24 -5 0 -6 6 -8 14 -5 8 3 17 0 21 -6 10 -16
35 7 35 31 0 23 35 26 44 4 3 -10 -3 -17 -20 -21 -13 -3 -29 -15 -35 -25 -5
-11 -17 -19 -25 -19 -8 0 -12 5 -9 10 3 6 -1 10 -9 10 -10 0 -14 -10 -14 -29
1 -20 5 -28 14 -24 8 3 14 0 14 -6 0 -6 -4 -11 -10 -11 -5 0 -10 -5 -10 -11 0
-6 15 0 32 13 18 12 38 22 45 20 6 -1 13 10 15 25 2 19 10 29 23 31 16 2 17 1
6 -7 -12 -8 -12 -12 -2 -24 9 -12 9 -16 -1 -19 -10 -4 -10 -8 -1 -19 9 -11 6
-18 -13 -32 -19 -14 -23 -15 -18 -2 8 20 -5 19 -23 -2 -14 -17 -14 -17 -8 2 4
14 3 17 -5 9 -13 -13 -4 -40 16 -48 7 -3 19 1 26 8 7 7 19 11 28 9 8 -2 24 4
35 14 19 18 61 20 50 3 -3 -5 -1 -11 5 -15 6 -3 13 0 16 9 3 8 12 12 19 10 8
-3 11 -12 8 -21 -5 -12 -7 -12 -14 -1 -7 10 -9 10 -9 1 0 -7 -7 -13 -15 -13
-8 0 -15 -4 -15 -10 0 -5 18 -10 40 -10 45 0 56 -19 13 -21 -16 -1 -32 0 -38
1 -5 1 -16 3 -22 3 -7 0 -13 6 -13 13 0 16 -28 26 -36 13 -3 -5 -13 -9 -22 -8
-19 2 -43 -5 -82 -25 -14 -8 -30 -12 -36 -9 -6 2 -11 -14 -12 -37 -2 -31 0
-39 12 -34 8 3 12 13 10 22 -5 15 -5 16 5 1 7 -10 19 -15 35 -12 26 5 66 -12
66 -27 0 -15 -37 -12 -44 3 -4 8 -10 5 -22 -11 -9 -12 -23 -22 -32 -22 -13 0
-13 -2 1 -18 10 -10 17 -24 17 -31 0 -7 5 -9 10 -6 6 4 8 14 6 23 -11 34 9 48
49 33 19 -7 53 -11 75 -10 21 2 42 0 46 -4 4 -4 -4 -8 -17 -9 -13 -1 -33 -2
-44 -3 -11 -1 -28 2 -37 7 -13 6 -18 5 -18 -7 0 -8 8 -15 18 -15 15 -1 15 -2
-3 -16 -11 -8 -19 -22 -17 -30 3 -16 -7 -18 -42 -4 -24 9 -26 8 -26 -20 0 -20
5 -30 15 -30 9 0 12 -6 9 -15 -4 -8 -12 -15 -20 -15 -7 0 -11 -6 -8 -14 4 -10
13 -12 34 -6 23 7 29 5 33 -11 3 -10 18 -23 34 -29 15 -5 37 -15 47 -21 15 -9
21 -8 27 4 5 8 18 13 32 10 14 -3 29 2 38 13 8 10 9 15 2 11 -6 -4 -14 -3 -18
3 -3 6 3 10 15 10 17 0 20 -4 15 -20 -7 -24 10 -27 19 -4 20 53 2 79 -50 70
-29 -6 -34 -11 -34 -36 0 -32 -18 -32 -51 1 -14 14 -15 18 -3 23 7 3 11 12 8
20 -6 16 -61 19 -70 4 -9 -14 -34 -9 -34 7 0 8 -7 15 -16 15 -8 0 -12 5 -9 10
4 6 12 7 18 3 17 -10 129 -4 143 8 9 7 19 7 35 -1 16 -9 31 -10 59 -1 37 11
50 26 59 69 1 4 6 -1 12 -12 7 -12 8 -21 2 -25 -12 -7 -33 -46 -33 -58 0 -4 6
0 13 9 17 22 43 7 32 -18 -4 -11 -9 -24 -9 -31 -1 -7 -10 -19 -21 -27 -20 -15
-20 -15 4 -16 24 0 24 -1 18 -74 -6 -66 -5 -75 11 -80 21 -7 85 -174 85 -221
0 -44 -6 -95 -13 -95 -13 0 -1 -194 12 -196 18 -2 43 254 33 332 -5 31 -3 59
4 72 8 16 7 21 -4 26 -10 4 -15 -1 -16 -17 0 -22 0 -22 -10 2 -5 13 -7 32 -4
41 3 10 -1 24 -8 32 -19 18 -40 59 -34 64 3 3 12 -2 21 -11 9 -9 16 -13 16 -9
0 4 7 -1 15 -12 8 -10 15 -29 15 -40 0 -12 7 -25 16 -28 12 -5 15 -22 13 -92
-1 -71 1 -88 16 -102 17 -16 17 -16 12 1 -11 31 89 227 115 227 7 0 6 -7 -3
-17 -19 -25 -55 -100 -69 -148 -7 -22 -17 -45 -21 -51 -5 -6 -7 -61 -4 -122 3
-67 1 -113 -5 -117 -15 -9 -12 -25 5 -25 10 0 15 11 16 33 3 175 15 241 64
342 27 55 59 108 71 118 21 16 24 28 26 110 3 81 5 92 21 89 9 -2 17 2 17 8 0
5 -7 10 -15 10 -22 0 -24 98 -2 112 7 4 6 12 -3 23 -12 15 -11 16 16 13 25 -3
29 -8 32 -36 2 -18 8 -30 13 -27 5 4 9 1 9 -4 0 -15 -33 -14 -48 1 -6 6 -15 9
-19 5 -15 -16 16 -25 90 -29 85 -4 99 3 35 18 -32 7 -45 16 -59 43 -10 19 -24
38 -31 43 -16 10 -91 11 -85 1 3 -5 -19 -9 -49 -9 -29 -1 -51 2 -48 7 3 5 -10
9 -29 9 -21 0 -37 6 -40 14 -5 12 2 12 45 -1 51 -15 51 -15 119 19 38 19 70
31 71 28 2 -4 16 -10 31 -14 19 -4 26 -3 22 4 -3 5 -14 10 -24 10 -26 0 -33
11 -18 29 14 17 39 71 33 71 -2 0 -13 -16 -24 -34 -25 -43 -91 -86 -131 -86
-16 0 -33 -4 -36 -10 -3 -5 -11 -10 -16 -10 -6 0 -7 5 -3 12 5 7 2 9 -8 5 -24
-9 -95 57 -104 96 -13 54 -4 139 19 177 17 29 21 52 21 138 1 87 3 101 16 95
8 -4 40 -9 71 -11 66 -4 83 9 70 54 -4 16 -7 37 -5 47 1 9 -2 17 -7 17 -5 0
-9 3 -9 8 0 4 20 6 44 4 43 -4 45 -5 49 -40 3 -28 4 -23 5 18 1 31 -3 61 -8
66 -14 14 -2 44 19 44 13 0 13 -2 2 -9 -10 -7 -8 -10 10 -16 13 -4 33 -15 44
-24 24 -20 -15 35 -58 81 -26 28 -32 30 -83 26 -34 -3 -50 -1 -40 4 8 4 39 9
68 9 29 1 58 5 64 10 13 11 68 -27 87 -61 37 -63 32 -215 -7 -230 -41 -15 -50
-36 -37 -80 14 -48 33 -64 25 -21 -8 38 12 88 37 96 17 6 19 17 19 103 0 97 0
97 63 116 34 11 108 34 164 52 142 45 164 49 174 33 14 -22 11 -185 -3 -197
-13 -10 -81 -30 -203 -58 -96 -22 -208 -55 -203 -59 2 -2 40 5 83 16 44 11 86
17 94 14 9 -3 12 -3 8 1 -4 4 46 21 110 37 65 16 125 35 134 43 20 18 56 30
163 53 87 19 88 19 93 0 3 -10 9 -16 15 -13 5 3 15 0 23 -6 23 -19 18 -3 -6
19 -13 12 -17 21 -10 26 14 8 14 75 1 75 -5 0 -10 -13 -10 -29 0 -26 -5 -31
-47 -44 -80 -25 -203 -50 -210 -43 -4 3 -9 44 -11 91 -5 97 1 111 57 121 20 4
30 9 23 11 -6 3 -58 -10 -113 -27 -83 -27 -103 -30 -110 -19 -7 11 -9 11 -9
-2 0 -10 -21 -21 -62 -34 -35 -10 -83 -25 -108 -33 -96 -32 -106 -32 -129 -1
-12 15 -21 31 -21 35 0 3 -12 20 -26 38 -24 27 -26 28 -19 7 5 -17 4 -21 -5
-16 -11 7 -10 37 4 94 6 27 16 40 16 22 0 -9 8 -11 25 -7 24 6 25 4 25 -39 0
-25 3 -45 8 -45 4 0 7 26 8 58 1 31 3 66 5 76 6 26 -9 28 -56 5z m32 -36 c-4
-3 -7 0 -7 7 0 7 3 10 7 7 3 -4 3 -10 0 -14z m-97 -66 c4 -57 3 -67 -11 -67
-20 0 -29 28 -29 93 0 41 3 48 18 45 13 -3 18 -17 22 -71z m17 21 c-2 -13 -4
-5 -4 17 -1 22 1 32 4 23 2 -10 2 -28 0 -40z m40 -95 c-4 -3 -10 -3 -14 0 -3
4 0 7 7 7 7 0 10 -3 7 -7z m-242 -63 c-10 -11 -21 -18 -23 -15 -3 3 3 12 14
20 27 20 30 18 9 -5z m139 -8 c3 -5 -11 -9 -31 -10 -47 -2 -71 -23 -49 -42 11
-8 16 -9 16 -1 0 11 43 10 73 -3 9 -5 17 -15 17 -23 0 -20 -99 -11 -112 9 -6
10 -8 10 -8 1 0 -18 -66 -17 -73 1 -16 40 144 105 167 68z m-205 -11 c25 -16
-7 -22 -41 -7 -33 14 -33 14 -3 15 17 0 36 -3 44 -8z m-23 -53 c3 -4 -5 -9
-18 -10 -13 0 -29 -2 -37 -2 -32 -2 -21 -25 14 -28 37 -3 37 -3 39 -53 2 -43
-3 -58 -36 -107 -21 -32 -48 -82 -59 -112 -18 -46 -27 -56 -60 -69 -39 -15
-39 -15 -36 71 2 87 2 87 52 87 59 0 78 14 69 50 -8 34 3 75 21 75 8 0 15 4
15 9 0 4 -28 9 -62 10 -75 2 -74 1 -46 36 34 43 127 71 144 43z m163 -90 c13
-59 7 -68 -49 -68 -47 0 -60 15 -60 65 0 52 3 55 56 55 42 0 42 0 53 -52z
m-122 -15 c-3 -10 -5 -4 -5 12 0 17 2 24 5 18 2 -7 2 -21 0 -30z m-159 7 c26
0 27 -2 27 -53 -1 -52 -1 -52 -50 -52 -50 0 -50 0 -51 35 -2 50 13 83 32 76 9
-3 28 -6 42 -6z m131 -175 c-2 -46 -2 -47 -8 -15 -6 33 -7 32 -13 -21 -3 -31
-15 -71 -25 -90 -15 -29 -17 -49 -12 -119 3 -47 1 -90 -3 -97 -18 -23 -75 -43
-99 -34 -26 9 -21 12 48 26 28 5 56 35 34 35 -15 0 -18 79 -4 84 7 3 13 18 13
33 0 23 -2 25 -11 13 -8 -12 -10 -10 -5 10 3 13 0 43 -5 66 -12 46 2 88 50
152 30 41 41 29 40 -43z m-388 -123 c-7 -2 -18 1 -23 6 -8 8 -4 9 13 5 13 -4
18 -8 10 -11z m272 -42 c-4 -16 -14 -20 -50 -20 -53 0 -53 14 -2 48 37 26 62
12 52 -28z m-235 1 c3 -10 -2 -11 -18 -6 -15 5 -26 2 -31 -6 -7 -11 -9 -9 -9
6 0 24 50 30 58 6z m-148 -11 c-6 -11 -13 -20 -16 -20 -2 0 0 9 6 20 6 11 13
20 16 20 2 0 0 -9 -6 -20z m247 4 c13 -4 20 -10 17 -16 -4 -5 -10 -5 -17 1 -7
5 -23 11 -37 14 -19 3 -20 5 -5 6 11 0 30 -2 42 -5z m-61 -27 c4 -4 -17 -7
-47 -7 -30 0 -49 4 -42 8 14 9 79 9 89 -1z m176 -38 c-5 -46 -14 -53 -41 -28
-12 12 -25 18 -28 15 -10 -10 -43 14 -43 32 1 16 1 16 11 0 12 -21 49 -24 49
-4 0 14 25 26 45 21 6 -1 8 -17 7 -36z m-15 -91 c-3 -8 -6 -5 -6 6 -1 11 2 17
5 13 3 -3 4 -12 1 -19z m-347 -8 c-6 -11 -13 -20 -16 -20 -2 0 0 9 6 20 6 11
13 20 16 20 2 0 0 -9 -6 -20z m187 2 c-10 -2 -16 -11 -15 -20 2 -10 -9 -22
-26 -30 -22 -11 -25 -16 -15 -23 11 -7 11 -9 1 -9 -7 0 -27 10 -45 22 -18 13
-33 23 -33 23 -1 0 -5 10 -8 23 -6 16 -3 22 9 22 9 0 13 -4 10 -10 -9 -14 11
-12 23 3 7 8 29 11 64 8 29 -3 45 -6 35 -9z m307 -27 c4 -11 -1 -15 -17 -15
-13 0 -28 -5 -35 -12 -6 -6 -17 -13 -24 -15 -7 -1 -25 -5 -40 -9 -36 -8 -74 2
-82 21 -5 14 -2 14 23 -1 34 -20 69 -14 108 21 32 28 58 32 67 10z m-224 -40
c0 -19 -60 -21 -61 -2 0 10 -2 10 -6 0 -2 -7 -11 -13 -19 -13 -12 0 -13 3 -2
15 18 20 88 20 88 0z m283 -42 c-7 -2 -21 -2 -30 0 -10 3 -4 5 12 5 17 0 24
-2 18 -5z m-326 -10 c-4 -3 -10 -3 -14 0 -3 4 0 7 7 7 7 0 10 -3 7 -7z m200 0
c-10 -9 -58 -10 -63 -1 -3 4 12 8 32 8 21 0 34 -3 31 -7z m91 -41 c19 -33 28
-41 43 -37 16 5 19 1 19 -23 0 -26 -3 -29 -26 -24 -17 3 -36 -3 -55 -17 -29
-22 -29 -22 -29 18 0 22 4 41 9 43 14 5 18 73 4 73 -6 0 -15 4 -20 9 -4 4 1 7
12 4 11 -2 30 -22 43 -46z m52 30 c0 -14 -11 -21 -26 -15 -8 3 -11 9 -8 14 7
11 34 12 34 1z m-286 -27 c-10 -8 -23 -14 -29 -14 -5 0 -1 6 9 14 11 8 24 15
30 15 5 0 1 -7 -10 -15z m403 9 c-3 -3 -12 -4 -19 -1 -8 3 -5 6 6 6 11 1 17
-2 13 -5z m-140 -31 c-4 -3 -7 0 -7 7 0 7 3 10 7 7 3 -4 3 -10 0 -14z m-437
-3 c0 -5 -7 -10 -15 -10 -8 0 -15 5 -15 10 0 6 7 10 15 10 8 0 15 -4 15 -10z
m549 -4 c9 -10 9 -16 1 -21 -8 -5 -6 -14 5 -31 8 -13 14 -37 13 -53 -1 -16 3
-35 9 -43 19 -22 12 -58 -11 -58 -16 0 -17 -3 -8 -12 17 -17 15 -31 -3 -24 -8
3 -15 1 -15 -4 0 -5 7 -10 17 -12 15 -3 15 -4 -1 -17 -15 -13 -18 -12 -23 7
-3 12 -9 22 -12 22 -4 0 -6 15 -4 33 3 27 1 29 -7 12 -7 -14 -8 7 -5 70 2 50
4 96 4 103 1 7 7 10 14 7 6 -4 4 0 -5 8 -10 8 -18 17 -18 21 0 12 38 6 49 -8z
m-416 -3 c-7 -2 -19 -2 -25 0 -7 3 -2 5 12 5 14 0 19 -2 13 -5z m-176 -90 c-4
-3 -7 0 -7 7 0 7 3 10 7 7 3 -4 3 -10 0 -14z m30 -15 c-3 -8 -6 -5 -6 6 -1 11
2 17 5 13 3 -3 4 -12 1 -19z m136 15 c-7 -2 -19 -2 -25 0 -7 3 -2 5 12 5 14 0
19 -2 13 -5z m324 -17 c24 -23 26 -29 20 -87 -6 -70 -15 -80 -72 -76 -40 3
-40 3 -39 65 1 67 7 83 26 64 14 -14 68 -16 68 -3 0 5 -9 7 -20 4 -22 -6 -36
17 -26 42 7 20 12 19 43 -9z m-80 -13 c-4 -3 -7 0 -7 7 0 7 3 10 7 7 3 -4 3
-10 0 -14z m-85 -45 c-7 -7 -13 -32 -14 -57 -1 -39 -2 -41 -5 -12 -6 42 4 81
19 81 9 0 9 -3 0 -12z m5 -50 c-3 -8 -6 -5 -6 6 -1 11 2 17 5 13 3 -3 4 -12 1
-19z m153 -72 c0 -8 -60 -12 -72 -4 -8 4 4 8 30 8 23 0 42 -2 42 -4z m43 -33
c-3 -7 -9 -13 -14 -13 -11 0 -12 34 -2 43 9 10 22 -13 16 -30z m-36 -45 c-3
-8 -6 -5 -6 6 -1 11 2 17 5 13 3 -3 4 -12 1 -19z m-40 -30 c-3 -8 -6 -5 -6 6
-1 11 2 17 5 13 3 -3 4 -12 1 -19z m-80 -370 c-3 -8 -6 -5 -6 6 -1 11 2 17 5
13 3 -3 4 -12 1 -19z"/>
<path d="M520 1520 c0 -7 3 -10 7 -7 3 4 3 10 0 14 -4 3 -7 0 -7 -7z"/>
<path d="M540 1390 c0 -7 3 -10 7 -7 3 4 3 10 0 14 -4 3 -7 0 -7 -7z"/>
<path d="M400 1080 c0 -7 3 -10 7 -7 3 4 3 10 0 14 -4 3 -7 0 -7 -7z"/>
<path d="M163 1003 c4 -3 10 -3 14 0 3 4 0 7 -7 7 -7 0 -10 -3 -7 -7z"/>
<path d="M971 1915 c16 -15 122 -37 113 -24 -3 5 -15 9 -27 9 -12 1 -40 7 -61
15 -32 11 -37 11 -25 0z"/>
<path d="M1770 1879 c-13 -9 -12 -10 3 -5 19 6 21 -2 7 -24 -6 -10 -10 -11
-10 -2 0 6 -5 12 -11 12 -5 0 -7 -4 -4 -10 3 -5 -1 -10 -10 -10 -9 0 -13 5
-10 11 4 6 -3 5 -15 -3 -20 -12 -22 -19 -17 -88 3 -44 2 -66 -3 -54 -8 21 -40
41 -40 25 0 -5 7 -11 15 -15 8 -3 15 -13 15 -23 0 -10 7 -26 14 -36 12 -15 14
-6 14 65 1 46 1 86 1 89 1 9 73 29 83 23 4 -3 8 4 8 15 0 12 3 20 8 19 4 -2 9
2 12 7 7 14 -42 17 -60 4z"/>
<path d="M1703 1863 c4 -3 10 -3 14 0 3 4 0 7 -7 7 -7 0 -10 -3 -7 -7z"/>
<path d="M1984 1858 c-4 -7 -3 -8 4 -4 12 7 16 16 8 16 -3 0 -8 -5 -12 -12z"/>
<path d="M2014 1861 c4 -5 0 -12 -6 -14 -10 -4 -10 -6 0 -6 8 -1 12 -19 12
-57 0 -36 -4 -53 -11 -49 -6 4 -8 13 -6 19 3 7 -1 13 -8 13 -15 0 -8 -32 11
-48 16 -13 19 -39 4 -39 -5 0 -21 24 -35 53 -33 72 -63 98 -117 103 -43 4 -43
4 -3 -6 59 -16 115 -77 115 -128 0 -12 11 -24 30 -32 18 -7 30 -20 30 -30 0
-10 6 -20 12 -22 7 -3 1 -12 -16 -23 -23 -15 -29 -16 -36 -4 -15 23 -22 3 -13
-33 21 -76 12 -83 -125 -86 -122 -3 -122 -3 -123 55 -1 32 -4 45 -6 29 -3 -22
-7 -26 -13 -16 -16 26 -20 5 -5 -24 8 -16 15 -34 15 -42 0 -7 8 -18 18 -23 11
-7 13 -10 3 -11 -7 0 -28 16 -46 36 -39 43 -161 107 -140 75 3 -5 29 -21 59
-34 34 -16 60 -36 72 -56 10 -17 24 -31 31 -31 7 0 13 -4 13 -10 0 -23 -71
-10 -95 18 -13 15 -27 24 -31 20 -4 -4 3 -16 16 -26 22 -18 22 -18 -5 -30 -14
-7 -24 -8 -21 -3 3 5 0 11 -7 14 -8 3 -13 -8 -15 -31 -3 -42 -10 -52 -22 -32
-8 13 -10 12 -10 -2 0 -11 -5 -15 -15 -12 -8 4 -15 1 -15 -5 0 -6 6 -11 13
-11 6 -1 1 -7 -13 -15 -25 -14 -25 -14 1 -15 26 0 68 -35 56 -46 -9 -9 -28 6
-22 17 8 12 -18 12 -30 0 -22 -21 -115 -12 -115 11 0 5 5 6 10 3 13 -8 13 -3
-5 32 -20 41 -45 62 -45 39 0 -10 -4 -14 -10 -11 -5 3 -10 1 -10 -4 0 -6 11
-11 25 -11 15 0 25 -6 25 -14 0 -22 -17 -28 -33 -12 -15 15 -77 2 -77 -16 0
-4 7 -5 15 -2 8 4 26 -1 40 -10 34 -22 45 -20 15 4 -25 19 -25 19 -2 13 13 -3
27 -15 31 -27 5 -11 11 -20 15 -18 3 1 16 2 28 2 23 0 23 0 -2 -24 -24 -23
-40 -25 -40 -5 0 6 5 7 10 4 6 -3 10 -2 10 3 0 5 -11 12 -24 14 -24 5 -25 4
-10 -23 14 -28 24 -33 52 -30 6 1 12 -3 12 -8 0 -5 19 -14 43 -19 23 -5 41
-14 40 -20 -2 -7 4 -12 12 -12 10 0 15 -7 13 -17 -2 -12 3 -17 14 -15 34 5 27
-17 -8 -24 -26 -5 -40 -2 -52 10 -15 15 -15 16 1 16 42 0 2 35 -43 38 -25 1
-31 -1 -20 -7 8 -6 11 -13 7 -17 -3 -4 -34 20 -67 53 -33 33 -60 56 -60 50 0
-18 143 -149 150 -137 5 8 11 6 20 -5 7 -8 21 -15 31 -15 10 0 21 -5 24 -11 5
-6 12 -4 20 8 7 10 17 14 21 10 5 -4 2 -13 -6 -18 -13 -9 -12 -12 4 -22 46
-29 53 -43 55 -113 1 -37 4 -71 8 -74 3 -3 3 34 1 83 -3 63 -1 87 7 87 14 0
32 -237 19 -249 -4 -3 -9 -1 -11 6 -3 9 -12 9 -29 2 -46 -17 -74 -2 -74 39 0
20 -5 50 -12 68 -9 26 -9 39 1 60 10 24 10 26 -2 15 -16 -12 -28 -81 -15 -81
13 0 19 -44 9 -75 -9 -30 -9 -30 -19 -5 -7 15 -11 19 -11 9 -1 -13 -20 -17
-112 -23 -126 -8 -139 -4 -119 43 11 28 10 33 -14 62 -17 20 -26 42 -26 65 0
33 13 46 23 22 3 -7 5 10 5 37 0 28 -3 40 -5 27 -5 -26 -23 -20 -23 9 0 10 -5
19 -11 19 -6 0 -9 -7 -5 -15 4 -12 -2 -15 -28 -15 -21 0 -36 6 -40 15 -3 8
-11 15 -18 15 -10 0 -9 -3 1 -9 8 -5 11 -16 7 -26 -10 -27 11 -53 47 -57 32
-3 32 -3 43 -78 7 -41 12 -63 13 -47 0 15 5 27 10 27 19 0 21 -20 5 -51 -10
-21 -19 -28 -23 -20 -5 8 -13 6 -25 -8 -17 -18 -34 -22 -96 -21 -39 1 -69 6
-76 13 -4 4 -16 7 -26 7 -14 0 -18 8 -18 33 0 17 -5 39 -11 47 -8 12 -9 10 -5
-10 3 -14 6 -44 6 -67 0 -43 0 -43 120 -43 115 0 132 -4 110 -26 -12 -12 -1
-54 14 -54 6 0 22 7 35 16 22 16 60 19 204 16 60 -2 95 -15 50 -19 -80 -8
-124 -18 -134 -29 -6 -8 -22 -14 -35 -14 -12 0 -26 -5 -30 -11 -5 -8 3 -10 27
-6 19 4 96 7 172 8 149 2 146 0 139 82 -1 9 3 17 9 17 5 0 8 4 5 9 -7 10 135
14 151 3 27 -17 -3 -34 -41 -24 -20 6 -52 8 -70 5 -34 -5 -37 -14 -27 -97 1
-4 9 -5 19 -1 9 4 46 9 82 11 36 2 117 7 180 11 63 4 175 8 248 8 130 -1 142
1 122 21 -7 7 -6 11 5 11 8 0 15 -9 15 -19 0 -13 7 -18 25 -18 14 0 25 5 25
10 0 6 -7 10 -15 10 -8 0 -15 7 -15 15 0 8 6 15 13 15 18 0 42 -18 35 -25 -3
-4 2 -15 13 -26 29 -29 15 -39 -57 -39 -83 0 -85 -20 -1 -21 107 -2 116 -3
112 -8 -6 -6 -427 -1 -437 5 -5 3 -70 7 -146 9 -75 2 -138 4 -139 5 -8 6 -50
3 -61 -4 -6 -4 -12 -2 -12 3 0 6 -9 11 -21 11 -11 0 -18 -4 -15 -8 6 -10 -36
-8 -54 3 -9 5 -15 4 -18 -3 -2 -7 -9 -9 -15 -5 -13 8 -57 11 -57 3 0 -7 -210
-11 -221 -4 -6 4 -6 11 2 20 7 9 8 14 1 14 -6 0 -14 -4 -17 -10 -3 -6 -15 -10
-26 -10 -11 0 -17 -5 -14 -10 4 -6 -17 -10 -54 -10 -34 0 -61 4 -61 10 0 6
-12 11 -27 11 -16 1 8 7 52 14 44 7 70 13 58 14 -12 0 -24 5 -27 10 -4 5 -19
3 -37 -6 -21 -11 -46 -13 -82 -9 -29 3 -70 1 -92 -3 -40 -9 -40 -9 17 -10 47
-1 56 -4 52 -16 -4 -8 -12 -15 -19 -15 -8 0 -17 -5 -21 -11 -5 -9 35 -10 152
-5 310 11 645 7 1142 -14 274 -12 272 -12 272 0 0 6 -11 10 -25 10 -27 0 -34
15 -10 24 8 3 15 1 15 -4 0 -6 5 -10 11 -10 11 0 12 209 1 265 -6 30 -6 30
-13 -10 -6 -40 -6 -40 -8 1 0 23 -8 55 -16 70 -8 16 -16 43 -16 59 -2 26 -3
25 -8 -10 -6 -34 -8 -27 -15 50 -4 50 -9 101 -12 113 -3 15 -1 21 6 17 12 -8
12 108 -1 145 -6 18 -7 13 -3 -20 3 -30 2 -40 -4 -30 -5 8 -13 56 -17 105 -3
50 -9 104 -11 121 -4 23 2 37 21 58 36 39 35 97 -4 141 -29 34 -29 34 -48 13
-10 -11 -31 -27 -48 -35 -44 -23 -63 -63 -30 -63 8 0 12 6 9 14 -3 8 -1 17 4
20 6 3 15 -6 21 -22 11 -29 29 -59 47 -78 6 -7 14 -57 18 -111 4 -54 9 -115
13 -136 5 -32 3 -36 -11 -31 -14 5 -14 2 0 -42 31 -102 49 -414 26 -451 -10
-15 -88 -23 -101 -10 -8 8 -11 8 -11 -1 0 -13 -157 -17 -176 -4 -6 4 -14 34
-17 67 -4 33 -4 53 0 45 13 -32 45 -43 112 -41 65 2 67 1 78 -26 11 -28 11
-28 12 2 0 17 -5 50 -10 75 -6 25 -10 62 -10 83 1 21 -4 104 -10 185 -6 81
-10 165 -10 187 1 30 -1 36 -9 25 -7 -10 -12 -12 -17 -4 -6 8 -26 9 -63 3 -78
-11 -100 -11 -100 2 0 6 9 8 22 4 18 -6 20 -4 13 11 -5 11 -10 40 -13 66 -2
26 -10 52 -18 59 -16 13 -19 49 -4 49 6 0 10 -8 11 -17 0 -12 2 -13 6 -5 4 10
11 9 31 -3 19 -12 16 -6 -11 19 -21 20 -49 39 -62 42 -32 8 -50 58 -29 79 12
12 12 15 2 16 -38 2 213 57 262 57 88 -1 110 14 102 68 -5 32 -92 29 -118 -4
-11 -13 -41 -29 -69 -37 -48 -14 -48 -15 -10 -10 22 2 51 7 65 11 18 5 22 4
15 -4 -6 -6 -57 -21 -115 -33 -129 -26 -134 -26 -138 -14 -2 6 -8 12 -12 15
-5 3 -12 47 -16 98 -4 50 -11 92 -16 92 -5 0 -7 -4 -4 -9z m387 -101 c10 0 19
-7 19 -15 0 -18 -11 -19 -29 -2 -8 6 -11 7 -8 1 4 -6 -1 -20 -9 -30 -12 -15
-16 -16 -21 -5 -5 11 -7 11 -15 0 -5 -9 -6 -3 -2 16 9 41 14 47 31 41 8 -3 23
-6 34 -6z m52 -146 c30 -41 19 -79 -23 -79 -52 0 -75 43 -41 79 30 32 41 32
64 0z m-403 -45 c0 -6 -5 -19 -11 -30 -10 -20 -11 -20 -30 2 -21 24 -26 40 -7
21 16 -16 28 -15 28 3 0 8 5 15 10 15 6 0 10 -5 10 -11z m30 -48 c0 -5 -7 -11
-15 -15 -9 -3 -15 0 -15 9 0 8 7 15 15 15 8 0 15 -4 15 -9z m-53 -58 c-4 -3
-7 0 -7 7 0 7 3 10 7 7 3 -4 3 -10 0 -14z m70 0 c-4 -3 -7 0 -7 7 0 7 3 10 7
7 3 -4 3 -10 0 -14z m-154 -10 c-7 -2 -21 -2 -30 0 -10 3 -4 5 12 5 17 0 24
-2 18 -5z m137 -14 c0 -5 -7 -9 -16 -9 -8 0 -12 -4 -9 -10 3 -6 -1 -7 -9 -4
-9 3 -16 10 -16 16 0 5 -5 6 -12 2 -6 -4 -8 -3 -4 4 3 6 18 9 32 6 18 -3 23
-1 18 7 -4 8 -3 9 4 5 7 -4 12 -11 12 -17z m-293 -12 c-8 -18 -14 -21 -23 -13
-9 8 -9 12 2 14 8 2 14 8 14 13 0 5 4 9 9 9 5 0 4 -11 -2 -23z m230 -14 c-4
-3 -10 -3 -14 0 -3 4 0 7 7 7 7 0 10 -3 7 -7z m-67 -24 c0 -5 9 -9 21 -9 11 0
18 -4 14 -10 -3 -5 -11 -7 -18 -5 -65 23 -71 26 -58 35 16 9 41 3 41 -11z
m-254 -9 c18 0 18 -16 0 -23 -18 -7 -26 1 -25 27 0 12 3 15 6 9 2 -7 11 -13
19 -13z m369 10 c9 -15 -15 -42 -32 -36 -7 3 -13 1 -13 -4 0 -6 -4 -10 -10
-10 -16 0 -11 32 8 46 21 16 39 18 47 4z m-280 -9 c3 -5 2 -12 -3 -15 -5 -3
-9 1 -9 9 0 17 3 19 12 6z m-28 -8 c-4 -3 -10 -3 -14 0 -3 4 0 7 7 7 7 0 10
-3 7 -7z m73 -13 c0 -5 -5 -10 -11 -10 -5 0 -7 5 -4 10 3 6 8 10 11 10 2 0 4
-4 4 -10z m-200 -40 c12 -23 12 -24 -3 -11 -10 7 -17 20 -17 29 0 18 3 16 20
-18z m445 10 c-3 -5 3 -15 15 -22 11 -7 20 -20 20 -28 0 -13 -1 -13 -10 0 -5
8 -10 10 -10 5 0 -6 5 -16 12 -23 9 -9 8 -12 -5 -12 -18 0 -41 35 -32 50 3 6
-1 10 -9 10 -8 0 -18 4 -21 10 -4 6 1 7 11 3 12 -4 15 -3 10 5 -4 7 -1 12 9
12 9 0 13 -4 10 -10z m-485 -10 c0 -5 -2 -10 -4 -10 -3 0 -8 5 -11 10 -3 6 -1
10 4 10 6 0 11 -4 11 -10z m110 -10 c0 -5 -4 -10 -10 -10 -5 0 -10 5 -10 10 0
6 5 10 10 10 6 0 10 -4 10 -10z m-43 -17 c-4 -3 -7 0 -7 7 0 7 3 10 7 7 3 -4
3 -10 0 -14z m243 7 c0 -5 -6 -7 -13 -4 -8 3 -25 0 -40 -5 -15 -6 -29 -6 -32
-1 -6 10 16 17 58 19 15 0 27 -3 27 -9z m47 4 c-3 -3 -12 -4 -19 -1 -8 3 -5 6
6 6 11 1 17 -2 13 -5z m80 -1 c-4 -3 -10 -3 -14 0 -3 4 0 7 7 7 7 0 10 -3 7
-7z m-450 -9 c-3 -3 -12 -4 -19 -1 -8 3 -5 6 6 6 11 1 17 -2 13 -5z m180 -1
c-4 -3 -10 -3 -14 0 -3 4 0 7 7 7 7 0 10 -3 7 -7z m509 -3 c24 -9 29 -16 30
-45 0 -19 -3 -35 -7 -35 -12 0 -30 36 -22 44 3 3 -1 6 -9 6 -13 0 -14 -7 -7
-37 4 -21 6 -39 3 -42 -2 -2 -4 1 -4 8 0 7 -4 9 -10 6 -5 -3 -10 -2 -10 2 0 5
-9 10 -20 11 -45 4 -50 6 -50 21 0 9 -3 26 -6 38 -8 31 53 43 112 23z m-651
-20 c3 -5 2 -10 -4 -10 -5 0 -13 5 -16 10 -3 6 -2 10 4 10 5 0 13 -4 16 -10z
m85 -6 c0 -8 -4 -12 -10 -9 -5 3 -10 10 -10 16 0 5 5 9 10 9 6 0 10 -7 10 -16z
m247 9 c-4 -3 -10 -3 -14 0 -3 4 0 7 7 7 7 0 10 -3 7 -7z m128 -23 c16 -16 25
-30 21 -30 -15 0 -65 34 -70 47 -9 24 20 14 49 -17z m-331 5 c-4 -8 -10 -12
-15 -9 -11 6 -2 24 11 24 5 0 7 -7 4 -15z m93 -1 c-3 -3 -12 -4 -19 -1 -8 3
-5 6 6 6 11 1 17 -2 13 -5z m-334 -26 c3 -10 7 -10 17 -1 10 9 24 5 61 -19 30
-18 56 -27 67 -24 29 10 39 -12 44 -91 4 -73 4 -73 -50 -73 -53 0 -53 0 -51
58 3 75 -8 92 -75 122 -31 13 -56 28 -56 32 0 13 38 9 43 -4z m210 -2 c4 -10
1 -13 -8 -9 -8 3 -12 9 -9 14 7 12 11 11 17 -5z m237 4 c0 -13 -28 -25 -38
-16 -3 4 0 11 8 16 20 13 30 12 30 0z m88 -14 c3 -12 -1 -17 -10 -14 -7 3 -15
13 -16 22 -3 12 1 17 10 14 7 -3 15 -13 16 -22z m-253 4 c3 -5 4 -10 1 -10 -3
0 -8 5 -11 10 -3 6 -4 10 -1 10 3 0 8 -4 11 -10z m-150 -10 c3 -5 -1 -10 -9
-10 -8 0 -18 5 -21 10 -3 6 1 10 9 10 8 0 18 -4 21 -10z m139 -17 c12 -16 14
-24 6 -21 -16 5 -46 48 -34 48 5 0 18 -12 28 -27z m336 -20 c0 -14 -6 -23 -15
-23 -8 0 -15 5 -15 11 0 5 5 7 10 4 6 -3 10 -2 10 3 0 5 -9 12 -20 15 -11 3
-20 12 -20 20 0 13 4 13 25 4 16 -8 25 -20 25 -34z m-620 22 c7 -8 18 -15 25
-15 18 0 38 -27 26 -34 -5 -4 -12 -2 -16 4 -3 5 -15 10 -26 10 -28 0 -81 29
-74 40 9 15 51 12 65 -5z m230 -16 c0 -6 -4 -7 -10 -4 -5 3 -10 11 -10 16 0 6
5 7 10 4 6 -3 10 -11 10 -16z m30 -9 c6 -11 8 -20 6 -20 -3 0 -10 9 -16 20 -6
11 -8 20 -6 20 3 0 10 -9 16 -20z m70 10 c0 -5 -2 -10 -4 -10 -3 0 -8 5 -11
10 -3 6 -1 10 4 10 6 0 11 -4 11 -10z m127 3 c-4 -3 -10 -3 -14 0 -3 4 0 7 7
7 7 0 10 -3 7 -7z m263 -3 c0 -5 -4 -10 -9 -10 -6 0 -13 5 -16 10 -3 6 1 10 9
10 9 0 16 -4 16 -10z m255 -11 c4 -11 4 -23 0 -27 -7 -7 -25 17 -25 36 0 20
18 14 25 -9z m-585 7 c0 -3 -4 -8 -10 -11 -5 -3 -10 -1 -10 4 0 6 5 11 10 11
6 0 10 -2 10 -4z m140 -16 c0 -11 -2 -20 -3 -20 -2 0 -12 9 -22 20 -18 19 -17
20 3 20 15 0 22 -6 22 -20z m-215 -10 c3 -5 4 -10 1 -10 -3 0 -8 5 -11 10 -3
6 -4 10 -1 10 3 0 8 -4 11 -10z m56 -12 c11 -21 11 -22 -4 -9 -10 7 -17 17
-17 22 0 15 9 10 21 -13z m67 4 c2 -7 -6 -12 -17 -12 -21 0 -27 11 -14 24 9 9
26 2 31 -12z m60 6 c30 -30 8 -36 -28 -8 -23 18 -24 20 -4 20 11 0 25 -5 32
-12z m69 -13 c-4 -8 -14 -15 -23 -15 -16 0 -16 2 2 19 21 21 29 19 21 -4z
m153 4 c0 -5 -7 -9 -17 -9 -36 0 0 -14 42 -16 39 -3 45 -1 45 17 0 29 24 18
28 -12 3 -23 0 -24 -50 -26 -73 -2 -81 -4 -69 -16 7 -7 16 -6 26 3 28 23 62
-23 70 -96 7 -62 7 -62 -32 -66 -53 -7 -59 0 -73 100 -6 48 -14 96 -15 106 -2
11 -2 23 1 27 6 10 44 -1 44 -12z m50 0 c0 -6 -4 -7 -10 -4 -5 3 -10 11 -10
16 0 6 5 7 10 4 6 -3 10 -11 10 -16z m-150 -14 c0 -8 -2 -15 -4 -15 -2 0 -6 7
-10 15 -3 8 -1 15 4 15 6 0 10 -7 10 -15z m-321 -67 c0 -11 -2 -11 -6 0 -3 7
-16 17 -29 22 -16 6 -24 17 -24 32 0 22 2 21 30 -9 17 -18 30 -38 29 -45z
m108 55 c-4 -3 -10 -3 -14 0 -3 4 0 7 7 7 7 0 10 -3 7 -7z m237 -78 c3 -27 5
-84 4 -125 -1 -67 -2 -64 -8 36 -4 60 -12 119 -19 130 -9 16 -10 11 -5 -26 4
-25 8 -92 8 -150 1 -58 4 -107 7 -110 4 -3 8 -33 11 -67 4 -59 -2 -77 -18 -52
-5 8 -9 8 -14 -1 -5 -9 -13 -6 -27 9 -23 25 -136 39 -158 21 -15 -13 -41 23
-30 40 8 14 92 13 101 -1 4 -7 9 -7 13 -2 7 11 76 24 84 16 3 -2 1 -18 -3 -34
-7 -24 -6 -29 10 -29 30 0 41 70 15 96 -10 11 -14 28 -10 57 5 41 4 41 -14
-13 -20 -61 -37 -69 -130 -61 -41 3 -43 5 -38 30 3 14 1 46 -3 71 -7 45 -7 45
-10 -15 -3 -60 -3 -60 -11 -10 -12 78 -27 148 -35 170 -7 18 -6 19 11 5 13
-11 19 -12 22 -3 2 7 11 9 19 6 20 -7 18 14 -3 27 -17 11 -17 11 -1 6 11 -3
17 0 15 7 -3 15 35 10 45 -6 5 -8 8 -6 8 6 0 17 24 22 55 11 19 -8 44 -60 62
-129 12 -50 12 -50 8 4 -2 30 -9 57 -15 61 -13 8 -25 74 -17 94 6 14 10 14 35
-1 25 -14 31 -25 36 -68z m-657 68 c-4 -3 -10 -3 -14 0 -3 4 0 7 7 7 7 0 10
-3 7 -7z m568 -13 c3 -5 4 -10 1 -10 -3 0 -8 5 -11 10 -3 6 -4 10 -1 10 3 0 8
-4 11 -10z m-165 -10 c0 -5 -2 -10 -4 -10 -3 0 -8 5 -11 10 -3 6 -1 10 4 10 6
0 11 -4 11 -10z m-110 -47 c0 -8 10 -28 21 -45 26 -36 41 -234 17 -226 -7 3
-16 26 -20 52 -10 69 -20 71 -12 3 7 -57 7 -57 -40 -57 -56 0 -54 -4 -59 133
-3 107 -3 107 21 107 13 0 32 -5 42 -10 22 -12 38 6 21 23 -14 14 -15 50 -1
42 6 -3 10 -13 10 -22z m537 -20 c-3 -10 -5 -2 -5 17 0 19 2 27 5 18 2 -10 2
-26 0 -35z m-467 17 c0 -5 -7 -10 -15 -10 -8 0 -15 5 -15 10 0 6 7 10 15 10 8
0 15 -4 15 -10z m-615 -40 c0 -10 -12 -16 -37 -18 -33 -3 -38 0 -38 18 0 18 5
21 38 18 25 -2 37 -8 37 -18z m595 10 c0 -5 -2 -10 -4 -10 -3 0 -8 5 -11 10
-3 6 -1 10 4 10 6 0 11 -4 11 -10z m40 -51 c0 -6 -4 -7 -10 -4 -5 3 -10 11
-10 16 0 6 5 7 10 4 6 -3 10 -11 10 -16z m297 -21 c-3 -7 -5 -2 -5 12 0 14 2
19 5 13 2 -7 2 -19 0 -25z m63 -29 c19 -4 29 -7 23 -8 -9 -1 -10 -8 -3 -25 9
-26 -11 -58 -24 -37 -4 6 -13 8 -21 4 -11 -4 -15 3 -15 25 0 16 -2 45 -5 63
-4 27 -3 29 3 9 6 -18 17 -27 42 -31z m-361 12 c11 -20 5 -31 -16 -31 -7 0
-13 11 -13 25 0 29 15 33 29 6z m443 -50 c-5 -23 -6 -24 -13 -6 -11 29 -11 32
4 32 9 0 12 -9 9 -26z m201 -26 c-7 -40 -7 -40 -14 0 -7 42 -2 62 12 48 5 -5
5 -26 2 -48z m-624 -20 c1 -40 -2 -55 -12 -55 -24 0 -37 23 -37 67 0 38 2 43
23 43 22 0 24 -4 26 -55z m-624 -55 c3 -5 -1 -10 -9 -10 -9 0 -16 5 -16 10 0
6 4 10 9 10 6 0 13 -4 16 -10z m1281 -62 c-34 -19 -46 4 -37 71 1 3 12 -10 26
-29 21 -28 23 -36 11 -42z m-897 36 c13 -13 -20 -28 -38 -17 -11 7 -57 12
-109 11 -50 0 -95 3 -101 6 -6 4 -11 2 -11 -4 0 -7 -6 -10 -14 -7 -14 6 -48
-2 -88 -18 -14 -5 -18 -2 -18 13 0 18 8 22 48 25 55 5 324 -2 331 -9z m-4 -64
c3 -5 -1 -10 -9 -10 -8 0 -18 5 -21 10 -3 6 1 10 9 10 8 0 18 -4 21 -10z m150
0 c3 -5 1 -10 -4 -10 -6 0 -11 5 -11 10 0 6 2 10 4 10 3 0 8 -4 11 -10z m125
1 c0 -6 -4 -13 -10 -16 -5 -3 -10 1 -10 9 0 9 5 16 10 16 6 0 10 -4 10 -9z
m356 2 c-11 -11 -106 -13 -106 -2 0 5 26 9 57 9 31 0 53 -3 49 -7z m41 1 c-3
-3 -12 -4 -19 -1 -8 3 -5 6 6 6 11 1 17 -2 13 -5z m216 -1 c-7 -2 -19 -2 -25
0 -7 3 -2 5 12 5 14 0 19 -2 13 -5z m-1256 -90 c-4 -3 -10 -3 -14 0 -3 4 0 7
7 7 7 0 10 -3 7 -7z"/>
<path d="M1630 1060 c0 -5 9 -10 21 -10 11 0 17 5 14 10 -3 6 -13 10 -21 10
-8 0 -14 -4 -14 -10z"/>
<path d="M1960 990 c0 -7 3 -10 7 -7 3 4 3 10 0 14 -4 3 -7 0 -7 -7z"/>
<path d="M1972 930 c0 -25 3 -54 8 -65 12 -28 12 14 1 70 -9 40 -9 40 -9 -5z"/>
<path d="M1891 934 c0 -11 3 -14 6 -6 3 7 2 16 -1 19 -3 4 -6 -2 -5 -13z"/>
<path d="M2005 900 c3 -5 11 -10 16 -10 6 0 7 5 4 10 -3 6 -11 10 -16 10 -6 0
-7 -4 -4 -10z"/>
<path d="M2206 862 c-3 -5 1 -15 9 -22 16 -14 20 -3 6 19 -5 8 -11 9 -15 3z"/>
<path d="M870 1851 c0 -5 9 -7 20 -4 11 3 20 7 20 9 0 2 -9 4 -20 4 -11 0 -20
-4 -20 -9z"/>
<path d="M1349 1833 c-13 -16 -12 -17 4 -4 9 7 17 15 17 17 0 8 -8 3 -21 -13z"/>
<path d="M1473 1823 c4 -3 10 -3 14 0 3 4 0 7 -7 7 -7 0 -10 -3 -7 -7z"/>
<path d="M870 1800 c0 -7 3 -10 7 -7 3 4 3 10 0 14 -4 3 -7 0 -7 -7z"/>
<path d="M1790 1763 c0 -13 4 -23 8 -23 4 0 7 -17 6 -37 -3 -38 -3 -38 5 -3 5
22 9 27 10 15 2 -11 5 -15 7 -9 3 7 -4 27 -15 45 -18 30 -21 31 -21 12z"/>
<path d="M1875 1709 c-4 -6 -17 -14 -29 -19 -19 -8 -19 -9 -2 -9 20 -1 20 -1
0 -15 -10 -8 -29 -12 -41 -9 -17 4 -23 1 -23 -12 0 -14 3 -15 15 -5 12 10 15
9 15 -4 0 -16 1 -16 16 -2 24 25 53 38 66 30 8 -5 6 -10 -7 -14 -10 -4 -14 -9
-9 -12 5 -4 18 0 29 8 19 14 19 14 -3 29 -12 9 -19 22 -16 30 7 17 -2 20 -11
4z"/>
<path d="M1905 1690 c-3 -5 -1 -10 4 -10 6 0 11 5 11 10 0 6 -2 10 -4 10 -3 0
-8 -4 -11 -10z"/>
<path d="M2173 1693 c4 -3 10 -3 14 0 3 4 0 7 -7 7 -7 0 -10 -3 -7 -7z"/>
<path d="M2078 1683 c7 -3 16 -2 19 1 4 3 -2 6 -13 5 -11 0 -14 -3 -6 -6z"/>
<path d="M1756 1645 c7 -32 31 -65 47 -65 6 0 3 8 -5 18 -9 9 -23 31 -32 47
-16 30 -16 30 -10 0z"/>
<path d="M1973 1641 c0 -10 12 -22 25 -29 20 -9 23 -9 18 4 -3 9 -6 19 -6 24
0 4 -9 10 -19 13 -14 3 -19 0 -18 -12z"/>
<path d="M828 1583 c6 -2 18 -2 25 0 6 3 1 5 -13 5 -14 0 -19 -2 -12 -5z"/>
<path d="M1590 1576 c0 -2 7 -9 15 -16 9 -7 15 -8 15 -2 0 5 -7 12 -15 16 -8
3 -15 4 -15 2z"/>
<path d="M1494 1552 c3 -5 19 -15 36 -22 34 -14 39 -34 13 -49 -16 -9 -16 -10
5 -11 41 0 29 46 -19 71 -23 11 -38 16 -35 11z"/>
<path d="M2275 1531 c-3 -5 -2 -12 3 -15 5 -3 9 1 9 9 0 17 -3 19 -12 6z"/>
<path d="M2170 1519 c0 -4 7 -9 15 -13 8 -3 15 -10 15 -15 0 -9 39 -52 78 -85
22 -19 22 -19 22 15 0 25 -6 38 -22 48 -22 13 -23 13 -5 -6 18 -21 23 -43 8
-43 -5 0 -23 18 -40 39 -26 33 -28 40 -15 45 9 3 19 4 23 1 4 -2 8 2 8 8 0 9
-15 13 -44 13 -23 -1 -43 -4 -43 -7z"/>
<path d="M2540 1519 c0 -5 5 -7 10 -4 6 3 10 8 10 11 0 2 -4 4 -10 4 -5 0 -10
-5 -10 -11z"/>
<path d="M1380 1493 c26 -24 50 -30 50 -13 0 6 -8 10 -17 10 -16 0 -16 2 -3
11 12 8 10 9 -8 4 -13 -4 -29 -3 -35 2 -7 4 -1 -2 13 -14z"/>
<path d="M1535 1500 c3 -5 8 -10 11 -10 3 0 2 5 -1 10 -3 6 -8 10 -11 10 -3 0
-2 -4 1 -10z"/>
<path d="M1420 1460 c-12 -8 -11 -10 6 -10 13 0 25 -10 33 -26 6 -15 14 -24
17 -21 7 6 -24 67 -34 67 -4 0 -14 -5 -22 -10z"/>
<path d="M1343 1453 c-17 -6 -16 -21 1 -38 11 -11 13 -9 12 16 -1 16 -1 29 -1
28 0 0 -6 -3 -12 -6z"/>
<path d="M792 1365 c0 -16 2 -22 5 -12 2 9 2 23 0 30 -3 6 -5 -1 -5 -18z"/>
<path d="M2378 1383 c7 -3 16 -2 19 1 4 3 -2 6 -13 5 -11 0 -14 -3 -6 -6z"/>
<path d="M978 1373 c7 -3 16 -2 19 1 4 3 -2 6 -13 5 -11 0 -14 -3 -6 -6z"/>
<path d="M138 1363 c26 -5 29 -19 4 -27 -10 -3 -18 -15 -19 -27 -1 -12 3 -18
10 -16 7 3 11 9 10 15 -1 5 4 16 12 22 25 20 18 40 -12 39 -24 -2 -25 -2 -5
-6z"/>
<path d="M2243 1343 c4 -3 10 -3 14 0 3 4 0 7 -7 7 -7 0 -10 -3 -7 -7z"/>
<path d="M2290 1339 c0 -5 5 -7 10 -4 6 3 10 8 10 11 0 2 -4 4 -10 4 -5 0 -10
-5 -10 -11z"/>
<path d="M210 1316 c0 -9 5 -16 10 -16 6 0 10 4 10 9 0 6 -4 13 -10 16 -5 3
-10 -1 -10 -9z"/>
<path d="M765 1319 c-31 -7 -21 -10 35 -13 17 0 30 2 30 5 0 11 -34 15 -65 8z"/>
<path d="M860 1300 c33 -26 52 -25 21 0 -13 11 -28 20 -35 20 -6 0 0 -9 14
-20z"/>
<path d="M1229 1293 c14 -28 17 -28 25 -6 4 10 4 14 0 10 -4 -4 -14 -1 -22 6
-13 10 -14 9 -3 -10z"/>
<path d="M685 1285 c-5 -2 -23 -6 -38 -9 -126 -28 -142 -234 -22 -290 82 -39
188 22 210 122 16 77 -86 198 -150 177z m58 -26 c34 -15 77 -86 77 -127 0 -74
-69 -142 -143 -142 -55 0 -117 58 -117 109 0 16 -3 37 -7 46 -5 15 -1 16 23
11 20 -4 41 0 69 15 22 12 31 19 19 16 -12 -2 -29 0 -38 5 -16 9 -16 12 6 36
18 21 19 23 3 12 -11 -8 -30 -26 -42 -40 -20 -24 -43 -24 -28 0 33 53 125 83
178 59z m-136 -86 c-4 -3 -10 -3 -14 0 -3 4 0 7 7 7 7 0 10 -3 7 -7z"/>
<path d="M673 1253 c9 -2 25 -2 35 0 9 3 1 5 -18 5 -19 0 -27 -2 -17 -5z"/>
<path d="M1098 1283 c6 -2 18 -2 25 0 6 3 1 5 -13 5 -14 0 -19 -2 -12 -5z"/>
<path d="M1140 1280 c0 -7 3 -10 7 -7 3 4 3 10 0 14 -4 3 -7 0 -7 -7z"/>
<path d="M240 1273 c0 -4 5 -15 10 -23 8 -13 10 -13 10 2 0 9 -4 20 -10 23 -5
3 -10 3 -10 -2z"/>
<path d="M862 1247 c22 -13 46 -40 59 -65 12 -23 24 -40 26 -38 19 19 -81 128
-115 126 -4 -1 10 -11 30 -23z"/>
<path d="M1202 1191 c-13 -30 -8 -56 13 -64 21 -9 5 -56 -24 -72 -14 -8 -19
-14 -11 -14 21 0 50 23 50 41 0 8 9 25 20 38 26 30 25 65 -2 84 -30 21 -31 21
-46 -13z m48 -6 c12 -15 5 -55 -10 -55 -21 0 -40 31 -30 51 13 23 23 24 40 4z"/>
<path d="M1115 1180 c3 -5 8 -10 11 -10 3 0 2 5 -1 10 -3 6 -8 10 -11 10 -3 0
-2 -4 1 -10z"/>
<path d="M1066 1143 c-6 -14 -5 -15 5 -6 7 7 10 15 7 18 -3 3 -9 -2 -12 -12z"/>
<path d="M1016 1098 c-18 -33 -18 -33 3 -8 18 22 26 40 18 40 -1 0 -11 -15
-21 -32z"/>
<path d="M866 1106 c6 -15 54 -40 54 -28 0 4 -13 15 -29 24 -21 11 -28 12 -25
4z"/>
<path d="M2430 1090 c0 -7 3 -10 7 -7 3 4 3 10 0 14 -4 3 -7 0 -7 -7z"/>
<path d="M0 1080 c0 -5 4 -10 9 -10 6 0 13 5 16 10 3 6 -1 10 -9 10 -9 0 -16
-4 -16 -10z"/>
<path d="M1020 1061 c0 -8 -7 -11 -15 -7 -28 10 -65 -11 -65 -39 0 -16 6 -25
16 -25 14 0 14 3 3 16 -12 15 0 33 23 34 12 0 19 -18 9 -25 -6 -3 -8 -12 -4
-21 3 -8 -6 -25 -22 -40 -15 -14 -25 -28 -21 -31 8 -9 56 45 56 63 0 8 7 29
16 45 8 17 13 33 10 37 -3 3 -6 0 -6 -7z"/>
<path d="M1084 1045 c-19 -14 -18 -14 4 -15 13 0 22 6 22 15 0 19 -1 19 -26 0z"/>
<path d="M1305 1030 c-13 -6 -15 -9 -5 -9 8 0 22 4 30 9 18 12 2 12 -25 0z"/>
<path d="M1353 1033 c4 -3 10 -3 14 0 3 4 0 7 -7 7 -7 0 -10 -3 -7 -7z"/>
<path d="M913 1023 c4 -3 10 -3 14 0 3 4 0 7 -7 7 -7 0 -10 -3 -7 -7z"/>
<path d="M1110 1010 c0 -7 3 -10 7 -7 3 4 3 10 0 14 -4 3 -7 0 -7 -7z"/>
<path d="M2403 1013 c9 -2 23 -2 30 0 6 3 -1 5 -18 5 -16 0 -22 -2 -12 -5z"/>
<path d="M900 990 c0 -13 18 -22 24 -11 3 5 -1 11 -9 15 -8 3 -15 1 -15 -4z"/>
<path d="M0 914 c0 -12 4 -14 13 -7 6 6 19 13 27 16 9 3 3 6 -12 6 -20 1 -28
-4 -28 -15z"/>
<path d="M938 874 c2 -19 7 -34 11 -34 9 0 1 59 -8 64 -4 3 -5 -11 -3 -30z"/>
<path d="M970 895 c0 -8 4 -15 10 -15 5 0 7 7 4 15 -4 8 -8 15 -10 15 -2 0 -4
-7 -4 -15z"/>
<path d="M1630 813 c0 -4 5 -15 10 -23 8 -13 10 -13 10 2 0 9 -4 20 -10 23 -5
3 -10 3 -10 -2z"/>
<path d="M887 773 c-9 -2 -15 -9 -12 -14 4 -5 -8 -9 -26 -9 -49 0 -20 -23 31
-26 34 -2 39 0 29 12 -15 18 -6 29 17 20 9 -3 14 -12 10 -21 -3 -8 -1 -15 4
-15 16 0 21 19 10 40 -10 19 -26 23 -63 13z"/>
<path d="M1580 769 c0 -5 5 -7 10 -4 6 3 10 8 10 11 0 2 -4 4 -10 4 -5 0 -10
-5 -10 -11z"/>
<path d="M803 763 c9 -2 25 -2 35 0 9 3 1 5 -18 5 -19 0 -27 -2 -17 -5z"/>
<path d="M2283 753 c4 -3 10 -3 14 0 3 4 0 7 -7 7 -7 0 -10 -3 -7 -7z"/>
<path d="M2310 750 c0 -7 3 -10 7 -7 3 4 3 10 0 14 -4 3 -7 0 -7 -7z"/>
<path d="M5 730 c4 -6 11 -8 16 -5 14 9 11 15 -7 15 -8 0 -12 -5 -9 -10z"/>
<path d="M1163 693 c4 -3 10 -3 14 0 3 4 0 7 -7 7 -7 0 -10 -3 -7 -7z"/>
<path d="M360 659 c0 -5 5 -7 10 -4 6 3 10 8 10 11 0 2 -4 4 -10 4 -5 0 -10
-5 -10 -11z"/>
<path d="M0 647 c0 -9 23 -11 76 -9 93 4 91 12 -5 17 -50 2 -71 0 -71 -8z"/>
<path d="M963 643 c9 -2 23 -2 30 0 6 3 -1 5 -18 5 -16 0 -22 -2 -12 -5z"/>
<path d="M913 633 c4 -3 10 -3 14 0 3 4 0 7 -7 7 -7 0 -10 -3 -7 -7z"/>
<path d="M848 603 c7 -3 16 -2 19 1 4 3 -2 6 -13 5 -11 0 -14 -3 -6 -6z"/>
<path d="M2273 583 c4 -3 10 -3 14 0 3 4 0 7 -7 7 -7 0 -10 -3 -7 -7z"/>
<path d="M1400 319 c0 -8 231 0 240 8 2 2 -51 3 -118 2 -67 -1 -122 -6 -122
-10z"/>
<path d="M8 293 c7 -3 16 -2 19 1 4 3 -2 6 -13 5 -11 0 -14 -3 -6 -6z"/>
<path d="M2200 240 c-13 -8 -12 -10 3 -10 9 0 17 5 17 10 0 12 -1 12 -20 0z"/>
<path d="M2073 223 c20 -2 54 -2 75 0 20 2 3 4 -38 4 -41 0 -58 -2 -37 -4z"/>
<path d="M1998 213 c6 -2 18 -2 25 0 6 3 1 5 -13 5 -14 0 -19 -2 -12 -5z"/>
<path d="M13 203 c4 -3 10 -3 14 0 3 4 0 7 -7 7 -7 0 -10 -3 -7 -7z"/>
<path d="M1890 193 c-17 -9 -20 -13 -8 -13 9 0 20 5 23 10 4 6 11 8 16 5 5 -4
17 -1 26 4 27 16 -25 10 -57 -6z"/>
<path d="M1805 170 c-27 -7 -28 -8 -5 -8 14 0 34 3 45 8 25 11 2 11 -40 0z"/>
<path d="M1640 150 c-55 -7 -55 -7 0 -7 30 0 69 3 85 7 30 8 30 8 0 7 -16 0
-55 -3 -85 -7z"/>
<path d="M198 143 c7 -3 16 -2 19 1 4 3 -2 6 -13 5 -11 0 -14 -3 -6 -6z"/>
<path d="M1315 104 c-100 -13 -100 -13 -5 -8 94 5 204 23 135 21 -16 0 -75 -6
-130 -13z"/>
<path d="M490 9 c0 -5 5 -7 10 -4 6 3 10 8 10 11 0 2 -4 4 -10 4 -5 0 -10 -5
-10 -11z"/>
</g>
</svg>
