<?xml version="1.0" standalone="no"?>
<!DOCTYPE svg PUBLIC "-//W3C//DTD SVG 20010904//EN"
 "http://www.w3.org/TR/2001/REC-SVG-20010904/DTD/svg10.dtd">
<svg version="1.0" xmlns="http://www.w3.org/2000/svg"
 width="344.000000pt" height="256.000000pt" viewBox="0 0 344.000000 256.000000"
 preserveAspectRatio="xMidYMid meet">
<metadata>
Created by potrace 1.16, written by Peter Selinger 2001-2019
</metadata>
<g transform="translate(0.000000,256.000000) scale(0.100000,-0.100000)"
fill="#000000" stroke="none">
<path d="M1900 2550 c0 -7 3 -10 7 -7 3 4 3 10 0 14 -4 3 -7 0 -7 -7z"/>
<path d="M3005 2550 c3 -5 13 -10 21 -10 8 0 17 -6 20 -14 3 -8 12 -12 19 -10
32 13 70 -118 47 -162 -5 -10 -6 -28 -2 -39 4 -11 3 -28 -2 -38 -14 -28 -12
-128 4 -138 10 -6 9 -9 -2 -14 -21 -7 -21 -115 -1 -115 12 0 12 -3 -1 -17 -23
-28 -27 -47 -18 -89 6 -24 5 -40 0 -42 -6 -2 -10 -33 -10 -68 0 -38 -4 -64
-11 -64 -5 0 -8 -4 -4 -9 3 -5 1 -13 -5 -16 -6 -4 -9 -1 -8 5 6 26 -39 29 -91
5 -28 -14 -64 -26 -79 -29 -15 -2 -28 -5 -29 -6 -6 -5 -28 -6 -36 -2 -5 2 0
10 9 16 12 9 14 15 5 20 -6 4 -14 0 -17 -8 -8 -20 -24 -21 -24 -1 0 23 -23 18
-60 -15 -26 -22 -30 -30 -16 -28 10 2 21 -3 23 -10 3 -7 -1 -11 -7 -10 -7 2
-15 -4 -18 -12 -2 -8 -1 -12 3 -8 10 9 45 -35 45 -56 0 -9 -8 -16 -17 -16 -15
0 -14 -2 3 -15 19 -14 19 -15 -5 -34 -24 -19 -24 -19 2 -44 36 -33 42 -136 6
-117 -11 6 -25 9 -32 6 -9 -3 -8 -5 1 -5 7 -1 11 -5 7 -10 -3 -6 14 -14 37
-19 39 -9 25 -18 -19 -13 -7 1 -9 -7 -6 -19 7 -25 4 -25 -35 3 -17 13 -28 28
-24 32 10 12 -20 -5 -40 -22 -10 -9 -18 -11 -22 -4 -4 5 -1 13 4 16 6 4 15 18
20 31 8 19 17 24 44 24 19 0 39 7 47 17 13 15 12 16 -8 11 -27 -7 -29 0 -5 18
14 11 15 13 1 14 -8 0 -20 -5 -25 -10 -15 -15 -54 25 -55 58 -2 23 -2 24 -6 5
-8 -41 -76 -23 -70 18 2 8 19 32 40 52 36 37 48 67 26 67 -23 0 -1 25 27 31
26 6 25 7 -11 8 -47 2 -65 11 -69 37 -2 14 -9 18 -27 15 -44 -8 -138 -1 -145
11 -3 4 0 8 6 8 6 0 8 5 4 11 -3 6 -17 9 -30 6 -17 -3 -24 0 -24 11 0 11 -7
13 -31 8 -17 -3 -36 -6 -41 -6 -5 0 -7 -3 -5 -7 3 -5 -19 -8 -49 -7 -30 0 -54
-4 -54 -9 0 -5 -14 3 -31 17 -22 19 -42 26 -73 26 -23 0 -52 7 -64 16 -12 8
-22 11 -22 6 0 -6 15 -19 33 -31 26 -17 28 -21 12 -21 -12 0 -26 5 -33 12 -9
9 -12 9 -12 0 0 -7 7 -15 15 -18 8 -4 15 -10 15 -15 0 -4 -6 -6 -14 -3 -11 4
-13 0 -9 -15 3 -12 11 -17 19 -14 9 3 14 -2 14 -15 0 -15 -5 -19 -20 -15 -32
8 -23 -7 10 -19 33 -11 53 -42 65 -98 7 -33 6 -34 -9 -15 -15 19 -15 19 -10
-12 8 -41 -1 -42 -21 -4 -13 27 -50 49 -61 38 -2 -2 7 -24 21 -48 37 -65 31
-75 -20 -32 -44 38 -44 38 -42 111 1 39 6 72 11 72 4 0 4 6 -2 13 -16 19 -10
60 12 80 10 9 15 17 9 17 -15 0 -33 46 -34 88 -1 20 -4 48 -8 62 -7 23 -8 21
-21 -21 -10 -35 -18 -46 -34 -46 -40 -1 -46 -3 -46 -18 0 -23 -26 -18 -80 18
-34 22 -50 38 -49 52 3 43 1 46 -22 33 -17 -10 -23 -10 -26 0 -7 18 -50 15
-57 -5 -5 -12 -9 -14 -18 -5 -18 18 -76 14 -95 -5 -10 -10 -28 -17 -41 -15
-22 3 -23 4 -5 17 10 9 13 14 6 15 -7 0 -13 5 -13 12 0 26 -32 48 -53 37 -18
-10 -19 -9 -13 17 6 24 5 26 -8 15 -17 -14 -36 -7 -36 14 0 8 -7 11 -19 8 -12
-3 -17 -11 -14 -19 3 -8 0 -14 -6 -14 -6 0 -11 4 -11 9 0 5 -11 11 -25 13 -22
5 -25 3 -19 -16 11 -36 10 -41 -10 -41 -13 0 -23 11 -29 30 -6 16 -17 36 -26
45 -13 13 -14 13 -6 -5 4 -11 10 -37 13 -58 3 -24 9 -37 16 -34 7 3 21 -2 31
-10 19 -14 18 -15 -14 -9 -30 5 -32 4 -20 -11 8 -9 9 -14 3 -10 -8 5 -11 -4
-9 -26 1 -21 9 -35 23 -42 11 -5 23 -17 25 -26 4 -15 2 -15 -24 -1 -32 19 -49
10 -31 -18 7 -12 8 -20 2 -20 -5 0 -10 -7 -10 -15 0 -9 9 -15 21 -15 20 0 21
-1 5 -24 -15 -24 -15 -25 7 -28 15 -2 22 -10 21 -25 0 -12 3 -20 8 -17 14 9 9
-9 -9 -29 -18 -19 -17 -19 14 -12 20 4 33 3 33 -3 0 -14 -60 -21 -61 -8 -1 6
-1 17 1 25 1 10 -7 12 -33 7 -38 -7 -70 1 -61 16 3 5 12 7 20 4 8 -3 14 -2 14
3 0 9 -45 31 -65 31 -18 0 -19 12 -3 28 9 9 8 12 -5 12 -9 0 -17 -7 -17 -16 0
-12 -7 -14 -30 -9 -26 6 -30 4 -30 -16 0 -18 -3 -20 -12 -11 -14 14 -88 16
-88 2 0 -5 5 -10 11 -10 5 0 7 -5 3 -11 -5 -8 1 -10 20 -7 18 4 26 1 26 -8 0
-9 -11 -14 -30 -14 -16 0 -30 -3 -30 -7 1 -19 18 -33 33 -27 12 4 17 1 17 -10
0 -9 -8 -16 -19 -16 -11 0 -21 -6 -24 -12 -4 -10 -7 -10 -18 0 -7 6 -20 12
-28 12 -13 -1 -12 -4 4 -17 20 -15 20 -15 -3 -10 -19 4 -22 2 -17 -14 4 -10 2
-19 -4 -19 -5 0 -23 -11 -39 -25 -33 -28 -37 -25 -52 45 -5 19 -11 44 -13 55
-19 70 -20 88 -6 83 55 -23 55 -23 40 -5 -7 9 -24 17 -37 17 -12 0 -26 5 -29
11 -10 16 1 22 22 11 116 -60 166 -70 156 -31 -5 18 -11 20 -45 15 -28 -4 -47
-1 -62 10 -21 16 -21 16 2 9 14 -4 22 -2 22 5 0 7 -9 14 -20 17 -11 3 -20 9
-20 14 0 14 12 11 49 -12 18 -11 36 -18 39 -15 3 4 -1 6 -9 7 -8 1 -3 5 11 9
25 8 25 8 -3 9 -30 1 -59 15 -94 45 -13 11 -26 17 -29 13 -4 -3 -15 5 -26 18
-10 13 -25 22 -32 19 -8 -3 -17 0 -22 7 -5 9 -9 7 -15 -7 -7 -17 -8 -17 -8 -1
-1 9 -5 17 -11 17 -5 0 -10 7 -10 15 0 8 -4 15 -10 15 -5 0 -7 -7 -4 -15 7
-18 -26 -21 -43 -4 -8 8 -17 8 -31 0 -37 -20 -36 -12 3 19 42 33 57 38 49 15
-4 -10 -2 -13 8 -10 13 5 117 -35 170 -65 25 -14 32 -12 16 4 -8 8 -23 15 -33
17 -10 2 -23 13 -29 24 -6 11 -15 23 -21 27 -17 13 10 9 49 -7 35 -15 36 -15
36 6 0 17 -5 20 -25 17 -14 -3 -28 -1 -31 3 -3 5 -21 16 -40 24 -19 8 -34 18
-34 22 0 10 79 33 110 33 25 0 26 25 3 39 -15 8 -15 11 -3 12 8 1 26 3 40 4
112 15 119 13 122 -27 2 -26 3 -26 35 -13 24 10 33 11 37 2 2 -7 5 -2 5 11 1
18 -4 22 -31 22 -35 1 -68 19 -68 39 0 16 11 14 25 -5 16 -23 75 -10 75 16 0
15 -6 17 -31 13 -17 -2 -37 1 -47 9 -11 9 -14 10 -8 1 4 -8 2 -14 -6 -14 -7
-1 -23 -3 -36 -4 -19 -2 -20 0 -10 13 12 13 10 14 -11 3 -14 -8 -27 -9 -32 -4
-12 12 -8 13 114 19 113 7 211 -14 259 -54 19 -17 26 -19 22 -8 -8 22 -43 39
-133 66 -69 20 -81 21 -195 10 -149 -13 -196 -20 -196 -30 0 -4 -11 -5 -25 -2
-14 2 -36 -3 -50 -12 -24 -16 -26 -15 -57 20 -27 28 -42 36 -78 39 -40 4 -41
4 -10 -3 70 -16 108 -52 55 -52 -14 0 -25 -4 -25 -10 0 -5 -5 -10 -11 -10 -6
0 -21 -8 -34 -18 -22 -18 -23 -20 -7 -35 15 -16 15 -17 -6 -17 -27 0 -28 -40
-2 -52 13 -6 13 -7 -1 -7 -14 -1 -15 -8 -9 -43 5 -24 8 -45 7 -47 -1 -2 7 -8
18 -12 19 -8 19 -8 -3 -15 -28 -8 -24 -25 9 -41 22 -12 22 -13 4 -14 -11 -1
-24 -1 -29 0 -5 1 -6 -5 -2 -14 3 -9 6 -20 6 -24 0 -5 14 -8 31 -9 26 -1 30 2
26 20 -7 25 1 48 17 48 8 0 11 -11 8 -30 -3 -21 0 -30 8 -28 7 2 14 -2 17 -9
2 -6 -6 -13 -19 -16 -23 -4 -22 -4 2 -6 23 -2 24 -3 5 -11 -18 -8 -18 -9 5
-10 14 -2 28 -2 33 -1 4 0 7 -11 8 -26 0 -16 3 -22 6 -15 7 17 23 15 23 -3 0
-10 7 -15 18 -13 20 4 41 28 36 43 -2 5 7 15 21 21 23 11 24 10 19 -15 -3 -15
4 -55 15 -89 28 -81 26 -93 -5 -46 -15 21 -30 40 -34 42 -4 1 -5 15 -2 30 4
27 4 27 -21 2 -26 -25 -26 -25 -2 -46 27 -25 42 -52 49 -87 4 -24 2 -26 -14
-17 -10 6 -22 15 -25 20 -9 14 -85 50 -85 40 0 -4 14 -13 30 -19 30 -10 41
-23 17 -20 -26 3 -47 -1 -47 -11 0 -5 16 -10 36 -10 21 0 33 -4 29 -10 -4 -6
-12 -10 -18 -9 -32 4 -43 -3 -45 -27 -1 -20 2 -25 13 -20 8 3 15 2 15 -3 0 -5
-10 -11 -22 -14 -12 -4 -19 -9 -15 -13 3 -4 24 1 47 10 64 26 120 15 120 -23
0 -5 7 -11 15 -13 10 -2 12 -7 5 -18 -8 -12 -11 -12 -27 1 -26 23 -47 34 -40
22 4 -6 0 -14 -9 -17 -11 -4 -15 -2 -11 8 5 12 -3 11 -39 -4 -25 -11 -42 -16
-39 -11 3 5 0 13 -6 16 -7 5 -10 -2 -8 -21 3 -31 -6 -54 -22 -54 -5 0 -9 6 -8
13 3 28 -2 48 -11 42 -6 -4 -8 -11 -5 -16 4 -5 -4 -9 -15 -9 -21 0 -20 2 9 29
31 29 44 81 20 81 -6 0 -9 -7 -6 -15 8 -19 -8 -28 -34 -20 -19 6 -20 8 -3 26
9 10 25 19 36 19 15 0 18 9 19 58 1 31 2 87 3 124 2 67 2 67 -31 65 -32 -2
-48 -17 -18 -17 8 0 15 -5 15 -11 0 -5 5 -7 10 -4 6 3 10 -1 10 -9 0 -9 -7
-16 -15 -16 -19 0 -19 -16 0 -24 8 -3 15 -12 15 -21 0 -13 -10 -16 -50 -14
-27 2 -53 0 -56 -4 -12 -11 -42 12 -47 35 -4 23 -4 23 -12 0 -7 -21 -8 -21
-20 -5 -7 9 -25 17 -41 18 -24 0 -29 5 -35 35 -9 42 -9 42 35 43 40 1 55 37
16 37 -11 0 -20 5 -20 10 0 6 6 10 13 10 8 0 14 7 14 15 0 8 -6 16 -14 19 -7
3 -13 17 -13 32 0 15 -7 32 -15 38 -21 16 -27 116 -8 116 9 0 13 -6 9 -15 -10
-26 4 -46 24 -35 9 5 20 6 24 3 3 -3 6 1 6 10 0 15 -11 22 -32 18 -5 0 -8 3
-8 9 0 5 9 10 20 10 13 0 20 7 20 20 0 16 -7 20 -30 20 -19 0 -30 5 -30 14 0
21 -21 31 -31 15 -6 -8 -7 -31 -4 -51 3 -21 1 -38 -4 -38 -18 0 -23 46 -11 95
5 21 -1 24 -27 14 -29 -11 -62 -4 -47 11 17 17 97 21 90 5 -3 -8 -1 -15 4 -15
6 0 10 6 10 14 0 9 16 17 41 21 30 5 43 13 49 31 6 14 20 29 32 34 17 6 18 9
6 9 -17 1 -26 -7 -51 -41 -10 -13 -42 -19 -157 -29 -150 -12 -226 -31 -113
-27 35 1 66 -1 69 -5 8 -8 -45 -29 -55 -22 -5 2 -13 -6 -19 -19 -10 -23 -9
-23 31 -19 33 4 39 2 30 -7 -6 -7 -23 -12 -37 -12 -28 0 -31 -5 -17 -27 5 -8
19 -12 35 -9 14 3 26 1 26 -3 0 -11 -46 -23 -59 -15 -5 4 -12 2 -16 -4 -3 -5
-2 -10 3 -10 10 0 9 -50 -1 -67 -5 -7 6 -10 33 -7 23 2 40 0 40 -6 0 -6 -8
-11 -17 -12 -10 -1 -25 -2 -33 -4 -8 -1 -19 -2 -25 -3 -5 -1 -4 -5 4 -10 10
-7 11 -13 1 -31 -9 -17 -9 -21 0 -15 9 5 10 2 6 -12 -5 -17 -2 -19 23 -15 16
2 32 -1 35 -7 4 -7 -1 -12 -13 -12 -12 -1 -26 -2 -31 -3 -12 -1 -30 -26 -30
-41 0 -5 5 -3 10 5 7 10 10 11 10 2 0 -7 -8 -16 -17 -19 -29 -11 -43 -30 -43
-57 0 -26 23 -36 35 -16 3 6 11 10 16 10 6 0 7 -5 4 -11 -7 -10 49 -71 58 -63
2 3 7 -2 10 -11 4 -8 2 -15 -4 -15 -6 0 -9 -6 -6 -13 8 -21 -10 -42 -37 -42
-19 -1 -23 2 -16 15 7 12 3 16 -17 18 -33 3 -40 9 -25 24 17 17 15 28 -3 22
-8 -4 -15 -19 -15 -35 0 -21 4 -27 15 -23 20 8 19 -5 -2 -28 -17 -19 -16 -19
12 -13 30 6 30 6 3 -12 -41 -26 -40 -75 1 -63 41 12 53 0 30 -30 -11 -15 -17
-18 -13 -7 3 9 2 17 -4 17 -22 0 -42 -13 -42 -27 0 -13 3 -13 15 -3 8 7 15 8
15 2 0 -5 -7 -15 -15 -22 -17 -14 -21 -75 -4 -64 8 5 8 1 0 -14 -9 -18 -8 -19
12 -14 12 3 25 10 29 16 5 8 8 7 8 -1 0 -6 -14 -20 -30 -30 -17 -9 -30 -23
-30 -31 0 -7 5 -10 10 -7 6 3 10 2 10 -4 0 -5 -4 -13 -10 -16 -5 -3 -10 -20
-10 -37 0 -26 2 -29 15 -18 11 9 15 9 15 1 0 -6 -7 -14 -15 -17 -16 -6 -21
-54 -6 -54 5 0 12 12 15 26 5 19 12 25 26 21 16 -4 17 -1 10 19 -5 13 -7 32
-3 41 5 15 3 16 -8 5 -15 -14 -29 -16 -29 -3 0 13 36 20 51 10 12 -8 11 -11
-1 -20 -11 -8 -12 -12 -2 -16 6 -2 12 -16 12 -29 0 -14 4 -23 10 -19 5 3 7 12
3 20 -10 27 6 65 27 65 13 0 22 9 26 25 3 14 10 22 15 19 5 -3 9 4 9 15 0 12
9 30 21 42 11 11 24 30 29 42 7 19 9 16 9 -16 1 -24 7 -40 16 -43 31 -12 -1
-77 -33 -66 -7 2 -11 -4 -10 -15 5 -66 1 -73 -48 -73 -49 0 -60 -24 -12 -26
38 -1 55 -10 60 -31 4 -16 -3 -18 -75 -20 -62 -2 -78 0 -69 9 7 7 12 18 12 26
0 9 -8 4 -21 -12 -11 -14 -27 -26 -35 -26 -8 0 -14 -4 -14 -9 0 -5 21 -8 48
-7 26 1 78 3 115 4 68 2 68 2 65 29 -2 21 1 27 20 28 15 1 22 -4 22 -17 0 -12
7 -18 23 -18 19 0 22 6 24 40 4 66 16 80 60 69 57 -13 70 -11 76 11 3 11 1 20
-4 20 -5 0 -9 -7 -9 -16 0 -12 -6 -15 -22 -10 -13 3 -29 6 -37 6 -10 0 -7 7 9
23 25 22 25 22 2 25 -16 2 -22 10 -22 27 0 30 47 29 63 -1 13 -24 27 -34 51
-34 15 0 16 2 6 15 -9 11 -15 13 -20 5 -5 -8 -9 -6 -13 5 -4 9 -3 13 3 10 14
-9 12 29 -2 43 -9 9 -8 12 4 12 9 0 19 -6 21 -12 3 -8 6 -6 6 5 1 9 6 17 11
17 6 0 9 -3 9 -7 -3 -21 3 -33 17 -33 9 0 12 5 8 12 -4 7 -9 23 -10 36 -4 34
19 22 23 -13 5 -34 2 -31 31 -39 17 -6 24 -2 31 16 7 17 10 19 10 6 1 -10 5
-18 10 -18 4 0 7 12 5 27 -2 16 -1 22 2 16 11 -24 26 -14 20 12 -4 14 -2 25 4
25 5 0 10 -10 11 -22 0 -22 1 -22 9 -3 6 17 9 13 14 -20 13 -75 21 -85 36 -41
9 30 16 37 31 33 10 -3 19 -1 19 4 0 5 5 9 10 9 6 0 10 -9 10 -20 0 -11 6 -20
13 -21 6 0 20 -2 30 -4 9 -2 17 3 17 11 0 8 -6 11 -15 8 -12 -5 -15 2 -15 31
0 32 3 37 20 32 15 -4 20 0 20 15 0 10 -4 17 -9 13 -5 -3 -12 -1 -15 4 -9 14
31 20 45 7 8 -6 10 -7 6 -2 -4 5 -2 14 3 21 7 8 -5 18 -40 33 -28 12 -50 24
-50 27 0 6 82 -26 124 -49 27 -14 31 -13 41 1 15 21 -10 53 -40 52 -19 0 -18
-1 3 -9 12 -5 22 -11 22 -13 0 -9 -61 3 -97 18 -43 18 -92 12 -74 -9 18 -21 1
-26 -20 -5 -27 27 -27 64 0 47 15 -9 26 -9 45 0 16 7 28 8 31 2 4 -6 14 -10
23 -9 11 0 9 4 -8 11 -24 9 -24 10 -5 17 35 14 96 20 90 10 -4 -5 2 -9 13 -9
10 0 42 -22 70 -49 29 -27 54 -46 57 -41 3 5 1 11 -5 15 -23 14 -10 35 17 29
37 -9 37 -9 23 -34 -8 -15 -8 -20 -1 -16 6 4 11 0 11 -8 0 -33 36 -17 38 16 3
40 7 44 26 25 14 -13 14 -16 1 -21 -30 -11 -14 -26 43 -37 44 -9 58 -16 58
-30 0 -10 -4 -17 -9 -16 -5 1 -12 -4 -15 -12 -3 -8 0 -11 7 -7 6 4 11 1 11 -6
1 -9 5 -7 14 5 13 17 14 17 20 0 11 -29 26 4 27 62 0 36 3 44 8 30 5 -11 8
-44 7 -73 -1 -44 1 -50 12 -35 6 9 12 11 12 5 0 -7 5 -12 11 -12 6 0 9 7 6 15
-4 8 -2 17 2 20 14 8 21 -21 21 -81 0 -30 4 -54 8 -54 19 0 54 -61 42 -75 -8
-10 -8 -15 1 -21 8 -4 9 -3 5 4 -9 15 -1 15 25 2 11 -6 19 -7 19 -1 0 5 -6 11
-14 14 -7 3 -16 24 -20 47 -3 23 -11 38 -16 35 -6 -3 -10 1 -10 10 0 9 5 13
10 10 5 -3 10 -2 10 4 0 6 -8 15 -19 20 -31 17 -35 42 -6 31 34 -13 32 4 -2
20 -28 14 -28 14 0 18 21 3 27 9 28 30 1 18 5 12 11 -20 13 -61 28 -62 28 -3
0 29 4 45 13 45 8 0 11 -14 9 -42 -6 -105 -6 -226 1 -221 4 2 7 46 7 96 1 89
1 91 16 63 12 -20 14 -45 11 -85 -3 -33 -3 -44 2 -26 6 25 8 17 15 -44 4 -45
11 -69 16 -62 4 8 12 11 18 7 14 -8 44 -68 37 -74 -2 -3 -7 3 -11 12 -7 19
-34 22 -34 4 0 -9 -4 -8 -10 2 -5 8 -10 10 -10 3 0 -6 -9 -9 -22 -5 -13 3 -19
1 -15 -5 5 -7 0 -9 -13 -6 -16 4 -20 14 -21 52 -2 46 -2 46 -8 6 -8 -55 -41
-63 -41 -11 0 20 -4 36 -10 36 -6 0 -7 -19 -3 -47 6 -47 6 -48 -14 -30 -21 18
-38 23 -29 8 4 -5 -3 -7 -13 -4 -16 4 -22 -2 -29 -28 -12 -43 -5 -55 19 -33
10 9 19 12 19 6 0 -6 17 -16 38 -21 47 -14 75 -13 42 1 -25 10 -25 10 5 20 17
5 55 7 85 4 30 -3 59 -5 63 -6 5 0 6 -4 3 -8 -3 -5 11 -14 30 -21 29 -10 32
-14 20 -26 -10 -10 -61 -15 -197 -20 -101 -3 -188 -10 -194 -15 -5 -4 -21 -10
-35 -12 -14 -2 18 -8 70 -12 52 -4 106 -6 120 -3 14 2 -6 5 -45 6 -131 4 -105
16 33 16 89 -1 144 -5 157 -13 17 -11 11 -12 -40 -11 -90 1 -89 -2 5 -16 47
-7 89 -9 93 -5 12 11 47 0 47 -14 0 -30 -53 -50 -63 -23 -4 7 -8 3 -13 -11 -7
-24 -7 -24 -193 -19 -186 5 -186 5 -6 -7 99 -6 188 -8 198 -3 10 4 17 4 17 -2
0 -5 -5 -11 -10 -13 -6 -2 7 -8 27 -15 31 -9 35 -9 21 1 -23 17 -23 26 2 26
11 0 20 4 20 9 0 21 50 18 71 -5 12 -13 25 -22 27 -19 3 3 -7 18 -22 34 -16
16 -25 34 -22 40 9 15 676 3 861 -15 369 -37 577 -55 665 -59 136 -6 48 5
-380 44 -190 18 -367 36 -395 40 -50 9 -50 9 -5 11 25 1 54 1 65 0 11 -1 17 1
13 6 -4 4 -36 7 -70 6 -41 -1 -56 2 -43 7 13 5 -23 10 -96 13 -94 3 -120 8
-134 22 -10 9 -29 24 -42 33 -15 10 -22 22 -18 33 4 12 -3 27 -19 43 -24 24
-24 24 -33 3 -14 -32 -5 -66 18 -66 17 0 23 -9 17 -26 -2 -4 -20 -7 -40 -8
-31 -2 -37 1 -41 21 -5 29 2 36 21 21 13 -11 14 -7 8 29 -5 26 -3 43 3 48 6 3
9 10 6 15 -3 5 0 12 6 16 14 8 52 -33 43 -47 -3 -5 -2 -9 3 -9 12 0 33 50 33
77 0 13 5 23 10 23 17 0 10 63 -11 100 -16 28 -19 30 -14 10 3 -14 8 -41 10
-60 5 -35 5 -35 -6 3 -8 25 -17 37 -29 37 -10 0 -31 5 -45 10 -24 9 -26 12
-14 27 12 14 12 16 -1 9 -8 -4 -4 2 9 13 13 12 31 19 40 16 9 -2 23 0 31 5 11
7 4 10 -27 10 -23 0 -45 5 -48 10 -3 6 -15 10 -25 10 -15 0 -19 6 -18 24 2 20
6 22 29 16 14 -4 32 -4 39 0 33 20 80 -12 80 -54 0 -43 21 -87 39 -81 9 4 12
-1 8 -15 -9 -34 30 -47 45 -15 14 31 25 32 31 3 2 -13 4 7 4 44 0 36 4 71 7
77 14 22 26 10 26 -23 0 -19 4 -37 9 -40 5 -3 7 -15 4 -27 -4 -12 0 -25 8 -30
10 -6 7 -9 -13 -9 -25 0 -26 -2 -21 -42 4 -29 3 -39 -5 -34 -8 5 -12 0 -12
-13 0 -12 6 -21 14 -21 8 0 14 6 13 13 -2 75 2 87 33 81 29 -6 30 -5 30 27 1
34 1 34 14 4 13 -30 13 -29 12 22 -2 84 24 88 32 5 3 -33 10 -52 23 -60 24
-15 31 10 27 87 -2 30 1 55 7 57 6 3 11 -24 12 -68 1 -40 4 -99 8 -130 4 -32
3 -58 -2 -58 -17 0 -45 43 -40 61 3 11 1 17 -4 13 -12 -7 -11 -41 2 -49 6 -4
8 -13 5 -21 -4 -11 2 -14 27 -12 31 2 33 5 35 38 2 20 -4 55 -12 78 -10 26
-11 42 -5 42 6 0 9 19 7 47 -2 35 1 47 10 46 14 -3 16 13 3 22 -6 3 4 28 21
55 17 28 29 53 25 56 -3 3 -10 -4 -17 -15 -11 -22 -30 -28 -30 -10 0 40 60 46
80 8 11 -19 -31 -99 -51 -99 -5 0 -9 -15 -9 -34 0 -19 -6 -36 -12 -39 -10 -3
-10 -7 0 -20 8 -9 16 -52 19 -97 7 -95 19 -98 15 -4 -2 35 0 64 5 64 18 0 31
-17 36 -45 3 -17 4 7 1 53 -2 45 0 82 5 82 11 0 21 -56 16 -92 -2 -17 4 -33
16 -44 26 -23 24 -31 -10 -37 -29 -6 -69 -67 -56 -87 3 -5 -32 -11 -87 -13
-93 -3 -93 -3 5 -5 76 -2 99 -5 103 -17 4 -8 11 -15 16 -15 6 0 7 8 4 17 -4
10 -4 14 0 10 4 -4 16 1 27 10 11 10 17 13 14 6 -8 -13 1 -43 14 -43 4 0 6 6
3 14 -6 16 12 31 21 17 9 -15 35 -1 35 19 0 10 9 20 21 23 18 5 20 11 15 44
-6 37 -5 39 34 57 47 22 46 21 18 51 -17 18 -22 33 -19 69 2 36 -1 46 -13 46
-12 0 -16 -11 -16 -45 0 -25 -4 -45 -9 -45 -6 0 -9 18 -9 40 0 23 -2 44 -6 47
-3 4 -6 -10 -6 -31 0 -22 -4 -35 -10 -31 -5 3 -10 -2 -10 -12 0 -18 -17 -43
-30 -43 -12 0 -30 49 -24 64 4 11 14 13 35 9 30 -6 44 19 17 30 -10 4 -10 6 0
6 6 1 12 6 12 11 0 16 -50 12 -56 -5 -13 -32 -27 -14 -21 27 5 37 4 40 -7 26
-17 -22 -37 -23 -29 -2 10 28 59 42 116 33 29 -4 90 -10 136 -12 67 -4 87 -8
98 -23 18 -24 16 -37 -3 -30 -8 3 -24 1 -34 -4 -16 -8 -18 -7 -14 4 3 8 1 17
-5 21 -6 3 -11 -1 -11 -9 0 -9 -11 -18 -25 -22 -16 -4 -25 -13 -25 -25 0 -24
17 -25 23 -2 4 17 5 17 6 1 1 -14 10 -18 36 -18 33 0 35 -2 35 -34 0 -19 5
-38 10 -41 6 -4 10 17 10 54 0 92 16 73 23 -26 5 -86 -15 -176 -54 -247 -10
-17 -8 -18 13 -12 12 4 29 8 36 8 6 1 12 8 12 17 1 14 2 13 11 -1 15 -27 99
-26 99 1 0 15 -10 20 -50 25 -27 4 -50 11 -50 17 0 6 -4 8 -9 5 -4 -3 1 12 11
34 16 32 21 66 24 187 2 82 5 157 5 168 1 11 -2 45 -5 75 -6 40 -5 51 3 40 9
-12 11 -10 11 11 0 23 3 26 26 21 19 -3 25 -1 20 7 -4 6 -13 11 -20 11 -8 0
-19 7 -26 15 -11 13 -2 15 69 15 54 0 80 -4 76 -10 -4 -6 -12 -10 -18 -9 -52
6 -51 -28 1 -36 56 -10 62 -13 56 -30 -7 -17 -24 -21 -24 -5 0 7 -13 8 -33 5
-21 -4 -48 -1 -72 9 -47 20 -56 20 -30 0 11 -8 21 -19 21 -24 1 -6 2 -17 3
-25 0 -8 7 -14 14 -12 18 3 21 -58 3 -76 -9 -9 -16 -17 -16 -20 0 -4 1 -5 119
-10 78 -3 95 -7 97 -21 1 -9 -3 -16 -9 -15 -7 1 -21 1 -32 -1 -20 -1 -20 -1 0
-10 19 -8 18 -9 -5 -11 -14 -1 -31 -2 -38 -2 -7 1 -11 -5 -8 -13 3 -8 1 -14
-4 -14 -17 0 -11 -22 11 -46 12 -13 16 -24 11 -28 -10 -6 -37 23 -72 73 -23
33 -32 24 -10 -11 17 -28 18 -44 13 -125 -4 -65 -3 -93 5 -93 7 0 12 26 14 67
2 54 6 67 21 69 9 1 17 -2 17 -7 0 -5 10 -9 21 -9 20 0 21 -4 17 -45 -3 -25
-2 -48 3 -51 5 -3 9 20 9 51 0 41 4 57 15 62 23 8 28 -1 31 -53 3 -58 -3 -74
-29 -74 -26 0 -20 -5 15 -14 27 -6 27 -6 28 200 1 195 0 206 -17 202 -34 -9
-47 25 -44 113 1 25 41 52 41 28 0 -5 5 -9 10 -9 6 0 10 45 10 115 0 102 -9
141 -23 103 -3 -9 -7 -8 -11 3 -11 27 -104 -7 -147 -54 -16 -17 -32 -25 -42
-21 -18 6 -31 34 -17 34 18 0 10 57 -12 85 -22 28 -22 28 0 23 12 -4 22 -3 22
2 0 11 -50 84 -68 98 -10 7 -11 12 -3 12 6 0 23 -11 36 -24 14 -14 27 -21 29
-17 7 11 -31 51 -48 51 -7 0 -21 9 -31 20 -18 19 -17 20 4 20 12 0 35 -15 51
-32 29 -33 29 -33 30 -5 0 16 -4 26 -10 22 -10 -6 -90 71 -90 87 0 5 10 6 21
3 13 -5 25 -2 30 6 4 7 12 10 16 5 4 -4 0 -14 -10 -21 -17 -12 -17 -14 8 -40
14 -16 25 -24 25 -20 0 5 -7 16 -16 26 -15 17 -15 19 0 34 17 18 17 17 21 84
3 32 0 40 -8 32 -16 -16 -36 -14 -64 9 -14 11 -21 20 -15 20 6 0 14 -4 17 -10
21 -33 86 11 77 53 -4 18 -22 24 -22 7 0 -17 -17 -11 -47 14 -35 30 -22 47 19
23 28 -16 48 -15 48 3 0 4 -8 6 -18 3 -12 -3 -19 1 -19 10 0 10 9 14 24 12 17
-2 23 3 23 17 0 11 -4 16 -10 13 -7 -4 -7 3 0 20 14 36 -25 94 -63 95 -6 0 -4
5 5 11 13 7 24 5 42 -6 22 -14 24 -14 28 2 7 30 -2 49 -27 63 -14 7 -25 18
-25 23 0 5 -9 20 -20 34 -11 14 -20 30 -20 36 0 6 6 2 14 -9 8 -10 20 -19 28
-19 7 0 20 -15 28 -32 18 -39 34 -44 19 -7 -16 44 -3 66 36 58 29 -5 38 -1 62
22 28 29 28 29 -86 32 -85 2 -117 -1 -123 -10 -6 -10 -8 -10 -8 0 0 8 -17 12
-51 12 -31 0 -48 -4 -44 -10z m210 -21 c-7 -10 -35 -1 -35 11 0 5 9 6 20 3 11
-3 17 -9 15 -14z m-108 -16 c-4 -3 -7 0 -7 7 0 7 3 10 7 7 3 -4 3 -10 0 -14z
m94 -3 c5 0 9 -4 9 -9 0 -4 -11 -6 -25 -3 -14 2 -25 9 -25 14 0 6 7 7 16 4 9
-3 20 -6 25 -6z m-56 -60 c3 -5 4 -10 1 -10 -3 0 -8 5 -11 10 -3 6 -4 10 -1
10 3 0 8 -4 11 -10z m33 -51 c-11 -7 -10 -9 1 -9 8 0 12 -3 8 -6 -11 -12 -37
5 -31 20 3 8 12 12 21 9 12 -5 12 -7 1 -14z m12 -94 c38 -40 10 -56 -28 -17
-17 17 -27 33 -24 36 11 12 29 5 52 -19z m-10 -75 c0 -5 -12 -10 -27 -9 -24 0
-25 2 -9 8 14 5 16 10 8 15 -7 4 -12 14 -12 22 0 10 5 9 20 -6 11 -11 20 -24
20 -30z m-30 -111 c0 -6 -4 -7 -10 -4 -5 3 -10 11 -10 16 0 6 5 7 10 4 6 -3
10 -11 10 -16z m44 -14 c-4 -8 -13 -15 -21 -15 -13 0 -13 3 -3 15 7 8 16 15
21 15 5 0 6 -7 3 -15z m-2510 -39 c-41 -37 -57 -32 -30 9 11 16 26 25 42 25
26 0 25 -1 -12 -34z m73 27 c-4 -3 -10 -3 -14 0 -3 4 0 7 7 7 7 0 10 -3 7 -7z
m19 -29 c-8 -8 -17 -14 -20 -14 -9 0 -2 24 9 32 16 12 26 -3 11 -18z m-49 9
c-4 -3 -10 -3 -14 0 -3 4 0 7 7 7 7 0 10 -3 7 -7z m70 -20 c-4 -3 -10 -3 -14
0 -3 4 0 7 7 7 7 0 10 -3 7 -7z m2337 -9 c9 -3 14 -10 11 -15 -7 -10 -35 0
-35 12 0 11 3 11 24 3z m50 -26 c-15 -27 -37 -47 -45 -42 -15 9 -10 26 7 20 8
-3 12 -2 9 4 -8 14 3 30 21 30 9 0 12 -5 8 -12z m8 -30 c-7 -7 -12 -8 -12 -2
0 14 12 26 19 19 2 -3 -1 -11 -7 -17z m-2685 -5 c-4 -3 -7 0 -7 7 0 7 3 10 7
7 3 -4 3 -10 0 -14z m83 3 c0 -3 -4 -8 -10 -11 -5 -3 -10 -1 -10 4 0 6 5 11
10 11 6 0 10 -2 10 -4z m-397 -13 c-7 -2 -19 -2 -25 0 -7 3 -2 5 12 5 14 0 19
-2 13 -5z m77 -14 c0 -5 -4 -9 -10 -9 -5 0 -10 7 -10 16 0 8 5 12 10 9 6 -3
10 -10 10 -16z m207 14 c-4 -3 -10 -3 -14 0 -3 4 0 7 7 7 7 0 10 -3 7 -7z
m-295 -42 c21 11 34 7 24 -9 -5 -9 -76 -22 -76 -15 0 10 25 30 28 22 2 -5 13
-4 24 2z m323 -21 c-3 -5 -11 -10 -16 -10 -6 0 -7 5 -4 10 3 6 11 10 16 10 6
0 7 -4 4 -10z m-265 -12 c0 -4 -7 -8 -15 -8 -8 0 -15 4 -15 8 0 5 7 9 15 9 8
0 15 -4 15 -9z m210 -9 c0 -11 -4 -18 -10 -14 -5 3 -7 12 -3 20 7 21 13 19 13
-6z m167 4 c-4 -3 -7 0 -7 7 0 7 3 10 7 7 3 -4 3 -10 0 -14z m40 10 c-4 -3
-10 -3 -14 0 -3 4 0 7 7 7 7 0 10 -3 7 -7z m639 -6 c4 -4 -5 -7 -19 -7 -15 0
-27 4 -27 8 0 10 36 9 46 -1z m-1102 -21 c-7 -19 -42 -27 -48 -11 -3 9 5 15
22 18 15 2 28 5 29 6 1 0 0 -5 -3 -13z m1178 -40 c21 -20 19 -30 -5 -21 -15 6
-28 37 -26 65 1 8 3 6 6 -5 3 -11 14 -28 25 -39z m-1136 -52 c0 -49 -4 -102
-8 -119 -5 -18 -4 -31 2 -33 5 -2 10 -10 10 -18 0 -8 -6 -11 -15 -8 -8 4 -15
14 -15 24 0 13 -5 17 -20 13 -11 -3 -20 0 -20 6 0 6 9 11 20 11 13 0 20 7 20
20 0 11 -3 19 -7 19 -20 -3 -33 2 -33 12 0 8 4 8 14 0 17 -14 31 2 22 26 -4
10 -14 13 -29 9 -12 -3 -29 -1 -37 4 -12 8 -9 10 12 10 27 0 83 42 71 53 -3 4
-11 3 -17 -3 -7 -5 -17 -5 -26 0 -12 8 -10 10 8 10 18 0 23 5 22 23 -3 34 -1
39 13 34 8 -2 12 -31 13 -93z m1454 87 c0 -5 -10 -11 -22 -14 -22 -6 -22 -6
-4 8 23 17 26 18 26 6z m-1580 -11 c0 -5 -9 -10 -19 -10 -11 0 -23 5 -26 10
-4 6 5 10 19 10 14 0 26 -4 26 -10z m1115 0 c3 -5 1 -10 -4 -10 -6 0 -11 5
-11 10 0 6 2 10 4 10 3 0 8 -4 11 -10z m362 3 c-4 -3 -10 -3 -14 0 -3 4 0 7 7
7 7 0 10 -3 7 -7z m1533 -34 c0 -6 -4 -7 -10 -4 -5 3 -10 11 -10 16 0 6 5 7
10 4 6 -3 10 -11 10 -16z m-1613 -25 c-9 -9 -28 6 -21 18 4 6 10 6 17 -1 6 -6
8 -13 4 -17z m128 -8 c0 -14 -3 -22 -7 -20 -4 3 -8 17 -8 31 0 32 13 22 15
-11z m-1478 7 c-4 -3 -7 0 -7 7 0 7 3 10 7 7 3 -4 3 -10 0 -14z m1413 13 c0
-11 -19 -15 -25 -6 -3 5 1 10 9 10 9 0 16 -2 16 -4z m209 -9 c6 -8 8 -17 4
-20 -3 -4 -2 -7 4 -7 6 0 10 -10 9 -22 -1 -20 -6 -23 -38 -20 -21 2 -38 -1
-38 -7 0 -5 17 -11 37 -13 30 -2 39 -8 44 -28 4 -14 7 -19 8 -12 1 7 6 10 11
7 15 -9 12 -25 -5 -25 -8 0 -15 -5 -15 -11 0 -7 18 -10 50 -7 50 3 50 3 50
-73 0 -75 0 -75 -36 -76 -40 -1 -75 -27 -67 -50 5 -13 3 -13 -16 -2 -11 8 -21
17 -21 22 0 4 5 5 10 2 6 -3 10 1 10 9 0 10 -9 16 -24 16 -29 0 -44 -19 -25
-31 10 -6 4 -9 -19 -9 -27 0 -35 5 -40 23 -6 20 -7 20 -12 -7 -9 -51 -30 -43
-30 11 0 42 -3 49 -20 50 -16 1 -20 -4 -20 -33 0 -19 -5 -34 -11 -34 -6 0 -8
-8 -4 -19 3 -11 1 -22 -5 -26 -6 -4 -8 13 -6 52 6 82 12 94 42 83 15 -6 24 -6
24 1 0 5 -10 13 -22 18 -25 9 -58 -6 -58 -26 0 -15 -16 -17 -25 -3 -13 21 44
62 76 55 27 -6 30 -5 22 10 -13 22 -4 65 13 72 8 3 14 15 14 27 0 16 2 18 9 7
5 -8 8 -31 5 -50 -4 -33 -3 -34 9 -16 8 11 17 37 20 58 7 46 25 71 41 58 7 -6
17 -5 26 2 20 16 23 37 5 37 -8 0 -15 5 -15 10 0 14 16 12 29 -3z m-1509 -7
c0 -5 -2 -10 -4 -10 -3 0 -8 5 -11 10 -3 6 -1 10 4 10 6 0 11 -4 11 -10z
m1098 -7 c34 -13 42 -20 39 -35 -4 -13 0 -18 15 -18 15 0 19 5 15 20 -6 25 13
31 39 11 22 -16 22 -16 -3 -39 -13 -12 -29 -20 -34 -17 -5 4 -9 2 -9 -4 0 -5
9 -13 20 -16 23 -7 27 -35 5 -35 -9 0 -12 6 -8 16 5 14 3 14 -16 2 -17 -10
-19 -14 -6 -16 23 -5 13 -26 -15 -30 -17 -3 -19 -6 -10 -12 16 -10 6 -40 -15
-40 -10 0 -15 10 -15 30 0 27 -2 29 -30 24 -23 -5 -30 -3 -30 10 0 11 9 16 30
16 35 0 35 -2 14 50 -9 23 -14 43 -11 46 2 3 9 -9 15 -25 12 -33 13 -34 35
-25 13 5 13 10 3 36 -16 37 -45 56 -56 38 -6 -9 -11 -7 -19 9 -14 25 -9 26 47
4z m1807 -35 c9 -11 11 -18 4 -18 -16 0 -49 40 -49 59 1 13 3 12 16 -4 8 -11
21 -28 29 -37z m-1965 27 c20 -11 21 -14 7 -15 -10 0 -25 7 -33 15 -19 19 -7
19 26 0z m96 -12 c-7 -7 -26 7 -26 19 0 6 6 6 15 -2 9 -7 13 -15 11 -17z m589
17 c3 -5 4 -10 1 -10 -3 0 -8 5 -11 10 -3 6 -4 10 -1 10 3 0 8 -4 11 -10z
m-1217 -25 c-3 -3 -13 -2 -22 1 -14 5 -15 9 -4 15 13 8 36 -6 26 -16z m909 18
c-4 -3 -10 -3 -14 0 -3 4 0 7 7 7 7 0 10 -3 7 -7z m-1467 -23 c-11 -21 -60
-28 -60 -9 0 6 6 9 14 6 8 -3 22 1 33 8 24 19 26 18 13 -5z m160 5 c0 -8 -4
-15 -10 -15 -5 0 -10 7 -10 15 0 8 5 15 10 15 6 0 10 -7 10 -15z m310 -5 c0
-9 9 -22 20 -30 11 -8 20 -20 20 -27 0 -15 -26 -17 -35 -3 -9 15 -25 12 -25
-5 0 -20 -27 -8 -33 16 -3 10 -1 19 4 19 5 0 9 8 9 18 0 14 -2 15 -10 2 -8
-13 -10 -13 -10 1 0 22 7 27 36 25 14 0 24 -7 24 -16z m55 -6 c9 -9 14 -18 11
-21 -6 -6 -46 20 -46 29 0 13 18 9 35 -8z m65 -3 c0 -25 -25 -46 -36 -30 -4 7
-2 15 4 17 7 2 12 10 12 18 0 8 5 14 10 14 6 0 10 -8 10 -19z m25 -1 c3 -5 4
-10 1 -10 -3 0 -8 5 -11 10 -3 6 -4 10 -1 10 3 0 8 -4 11 -10z m1150 0 c3 -5
4 -10 1 -10 -3 0 -8 5 -11 10 -3 6 -4 10 -1 10 3 0 8 -4 11 -10z m1260 -10 c3
-5 1 -10 -4 -10 -6 0 -11 5 -11 10 0 6 2 10 4 10 3 0 8 -4 11 -10z m-2865 -15
c0 -8 -2 -15 -4 -15 -2 0 -6 7 -10 15 -3 8 -1 15 4 15 6 0 10 -7 10 -15z
m1570 11 c0 -3 -5 -8 -12 -12 -7 -4 -8 -3 -4 4 7 12 16 16 16 8z m-1690 -31
c0 -8 -2 -15 -4 -15 -2 0 -6 7 -10 15 -3 8 -1 15 4 15 6 0 10 -7 10 -15z
m1153 -5 c3 -11 1 -20 -4 -20 -5 0 -9 2 -9 4 0 2 -3 11 -6 20 -3 9 -2 16 4 16
5 0 12 -9 15 -20z m504 3 c-4 -3 -7 0 -7 7 0 7 3 10 7 7 3 -4 3 -10 0 -14z
m43 7 c0 -5 -5 -10 -11 -10 -5 0 -7 5 -4 10 3 6 8 10 11 10 2 0 4 -4 4 -10z
m247 -6 c-3 -3 -12 -4 -19 -1 -8 3 -5 6 6 6 11 1 17 -2 13 -5z m1038 -4 c3 -5
-1 -10 -9 -10 -9 0 -16 5 -16 10 0 6 4 10 9 10 6 0 13 -4 16 -10z m-1055 -20
c14 -10 22 -21 19 -25 -4 -3 -20 5 -35 19 -34 30 -21 35 16 6z m684 -2 c-4 -7
-2 -8 4 -4 12 7 52 -13 52 -27 0 -5 -8 -6 -18 -3 -22 7 -26 -19 -8 -44 6 -8 1
-6 -12 4 -14 13 -20 26 -16 38 4 13 0 18 -12 18 -13 0 -14 3 -5 13 6 8 7 18 3
22 -4 5 -1 5 6 1 7 -4 9 -12 6 -18z m421 -26 c-8 -8 -35 20 -35 37 1 12 5 11
21 -8 11 -13 17 -26 14 -29z m-2920 28 c3 -5 1 -10 -4 -10 -6 0 -11 5 -11 10
0 6 2 10 4 10 3 0 8 -4 11 -10z m1859 4 c20 -8 21 -24 2 -24 -8 0 -16 7 -20
15 -6 17 -4 18 18 9z m927 -14 c32 0 40 -15 12 -22 -32 -7 -53 3 -52 25 0 12
3 16 6 10 2 -7 18 -13 34 -13z m-1171 0 c0 -5 -4 -10 -9 -10 -6 0 -13 5 -16
10 -3 6 1 10 9 10 9 0 16 -4 16 -10z m1117 3 c-4 -3 -10 -3 -14 0 -3 4 0 7 7
7 7 0 10 -3 7 -7z m-1740 -20 c-4 -3 -7 0 -7 7 0 7 3 10 7 7 3 -4 3 -10 0 -14z
m340 0 c-4 -3 -7 0 -7 7 0 7 3 10 7 7 3 -4 3 -10 0 -14z m-1487 -8 c0 -8 -7
-15 -15 -15 -26 0 -18 20 13 29 1 1 2 -6 2 -14z m40 5 c0 -5 -2 -10 -4 -10 -3
0 -8 5 -11 10 -3 6 -1 10 4 10 6 0 11 -4 11 -10z m677 3 c-4 -3 -10 -3 -14 0
-3 4 0 7 7 7 7 0 10 -3 7 -7z m2050 0 c-4 -3 -10 -3 -14 0 -3 4 0 7 7 7 7 0
10 -3 7 -7z m-1287 -25 c0 -4 -4 -8 -9 -8 -6 0 -12 4 -15 8 -3 5 1 9 9 9 8 0
15 -4 15 -9z m507 6 c-3 -3 -12 -4 -19 -1 -8 3 -5 6 6 6 11 1 17 -2 13 -5z
m1080 -11 c-4 -3 -7 0 -7 7 0 7 3 10 7 7 3 -4 3 -10 0 -14z m-1837 -27 c0 -12
-5 -27 -12 -34 -15 -15 -48 -16 -48 -1 0 5 -4 8 -9 4 -5 -3 -9 8 -9 24 1 32
15 40 56 33 15 -3 22 -11 22 -26z m1135 24 c-3 -5 0 -10 8 -10 8 0 17 -9 20
-20 7 -27 -7 -25 -30 3 -10 13 -25 26 -33 30 -9 3 -3 6 13 6 16 1 26 -3 22 -9z
m465 0 c0 -5 -4 -10 -10 -10 -5 0 -10 5 -10 10 0 6 5 10 10 10 6 0 10 -4 10
-10z m117 4 c-3 -3 -12 -4 -19 -1 -8 3 -5 6 6 6 11 1 17 -2 13 -5z m-40 -26
c-3 -8 -6 -5 -6 6 -1 11 2 17 5 13 3 -3 4 -12 1 -19z m-2790 -10 c6 -5 9 -17
6 -25 -5 -12 -2 -15 9 -11 10 4 19 -2 27 -18 11 -24 10 -25 -22 -19 -17 3 -41
8 -52 10 -11 2 -29 4 -40 4 -16 1 -17 3 -5 10 8 6 18 7 23 4 9 -6 27 14 27 30
0 5 -28 8 -62 7 -79 -3 -86 -2 -69 9 7 5 31 9 53 9 22 1 43 3 46 6 7 7 42 -3
59 -16z m-215 -10 c-7 -7 -12 -8 -12 -2 0 14 12 26 19 19 2 -3 -1 -11 -7 -17z
m1448 12 c0 -5 -4 -10 -10 -10 -5 0 -10 -10 -10 -22 0 -19 2 -20 10 -8 8 13
10 13 10 -1 0 -11 -12 -19 -35 -23 -19 -4 -41 -17 -50 -29 -15 -21 -15 -21
-15 6 0 20 5 27 20 27 11 0 20 5 20 11 0 13 41 59 53 59 4 0 7 -4 7 -10z m694
-27 c12 -25 22 -33 43 -33 28 -1 28 -1 4 -21 -14 -11 -33 -18 -43 -16 -10 3
-18 1 -18 -4 0 -5 -4 -9 -10 -9 -5 0 -7 14 -4 33 5 32 5 32 -11 7 -10 -15 -14
-18 -11 -7 3 10 -1 25 -9 33 -27 27 -19 55 14 52 22 -2 33 -10 45 -35z m403
30 c-4 -3 -10 -3 -14 0 -3 4 0 7 7 7 7 0 10 -3 7 -7z m333 -2 c0 -9 -41 -23
-49 -16 -3 4 28 20 47 24 1 1 2 -3 2 -8z m-1833 -18 c-4 -3 -7 0 -7 7 0 7 3
10 7 7 3 -4 3 -10 0 -14z m1353 7 c0 -5 -4 -10 -9 -10 -6 0 -13 5 -16 10 -3 6
1 10 9 10 9 0 16 -4 16 -10z m596 -6 c35 -17 60 -49 56 -71 -1 -6 2 -14 8 -18
13 -8 13 -25 0 -25 -5 0 -10 6 -10 13 0 18 -49 75 -50 57 0 -9 -8 -2 -20 15
-11 16 -27 33 -37 37 -17 6 -17 7 0 7 11 1 34 -6 53 -15z m139 6 c3 -5 2 -10
-4 -10 -5 0 -13 5 -16 10 -3 6 -2 10 4 10 5 0 13 -4 16 -10z m-688 -31 c-3
-10 -1 -22 5 -25 5 -3 8 -17 6 -29 -2 -13 1 -25 7 -27 5 -2 10 4 11 12 2 34 4
40 14 40 31 0 6 -55 -47 -105 -64 -62 -68 -61 -68 3 0 29 -4 47 -12 47 -6 0
-15 4 -20 9 -5 6 -2 6 6 1 11 -6 13 -4 8 9 -4 10 -7 23 -7 30 0 7 -10 17 -22
23 -12 5 -17 12 -12 16 6 3 22 0 37 -8 22 -11 26 -11 31 1 8 21 21 17 34 -8
10 -22 11 -21 11 10 1 21 5 31 12 26 6 -3 9 -15 6 -25z m107 22 c4 -5 -3 -7
-14 -4 -23 6 -26 13 -6 13 8 0 17 -4 20 -9z m373 -8 c-4 -3 -10 -3 -14 0 -3 4
0 7 7 7 7 0 10 -3 7 -7z m240 -30 c-3 -3 -14 0 -24 6 -17 10 -17 10 0 11 9 0
18 6 18 13 1 6 3 4 6 -6 3 -10 2 -21 0 -24z m-3077 23 c0 -3 -5 -8 -12 -12 -7
-4 -8 -3 -4 4 7 12 16 16 16 8z m30 -11 c-7 -8 -16 -15 -21 -15 -5 0 -6 7 -3
15 4 8 13 15 21 15 13 0 13 -3 3 -15z m167 -2 c-4 -3 -7 0 -7 7 0 7 3 10 7 7
3 -4 3 -10 0 -14z m783 7 c0 -5 -2 -10 -4 -10 -3 0 -8 5 -11 10 -3 6 -1 10 4
10 6 0 11 -4 11 -10z m1816 -5 c-20 -15 -36 -19 -36 -10 0 5 38 23 50 24 3 0
-4 -6 -14 -14z m324 5 c0 -5 13 -10 29 -10 16 0 35 -8 42 -17 12 -16 12 -17
-2 -6 -18 14 -59 6 -59 -12 0 -15 -27 -28 -35 -16 -7 13 6 71 16 71 5 0 9 -4
9 -10z m-2203 -6 c-3 -3 -12 -4 -19 -1 -8 3 -5 6 6 6 11 1 17 -2 13 -5z m321
-10 c22 -7 3 -24 -26 -24 -16 0 -32 8 -40 20 -11 18 -10 19 21 14 17 -3 38 -8
45 -10z m967 -22 c-8 -8 -25 10 -25 26 0 13 2 13 14 -4 8 -10 13 -21 11 -22z
m706 -18 c6 -8 9 -17 5 -21 -3 -3 -6 -1 -6 5 0 7 -10 12 -22 12 -24 0 -58 27
-58 46 0 15 59 -16 81 -42z m136 17 c-5 -2 -13 3 -18 10 -15 24 -10 30 9 12
10 -10 14 -20 9 -22z m-2097 19 c0 -5 -2 -10 -4 -10 -3 0 -8 5 -11 10 -3 6 -1
10 4 10 6 0 11 -4 11 -10z m975 -30 c9 -16 14 -30 12 -30 -2 0 -13 14 -25 30
-13 17 -18 30 -13 30 6 0 17 -13 26 -30z m-1898 -2 c-3 -8 -6 -5 -6 6 -1 11 2
17 5 13 3 -3 4 -12 1 -19z m290 15 c-4 -3 -10 -3 -14 0 -3 4 0 7 7 7 7 0 10
-3 7 -7z m753 -8 c-12 -15 -30 -12 -30 6 0 5 10 9 21 9 18 0 19 -2 9 -15z
m307 8 c-4 -3 -10 -3 -14 0 -3 4 0 7 7 7 7 0 10 -3 7 -7z m72 -9 c6 -6 -1 -10
-31 -18 -23 -5 -28 -3 -28 13 0 16 5 19 27 15 15 -3 30 -7 32 -10z m991 6 c0
-5 -4 -10 -10 -10 -5 0 -10 5 -10 10 0 6 5 10 10 10 6 0 10 -4 10 -10z m277
-7 c-4 -3 -7 0 -7 7 0 7 3 10 7 7 3 -4 3 -10 0 -14z m-2317 -3 c0 -5 -2 -10
-4 -10 -3 0 -8 5 -11 10 -3 6 -1 10 4 10 6 0 11 -4 11 -10z m480 1 c0 -5 -23
-11 -50 -13 -28 -1 -50 0 -50 4 0 4 21 9 48 11 26 2 48 4 50 5 1 1 2 -2 2 -7z
m457 2 c-4 -3 -10 -3 -14 0 -3 4 0 7 7 7 7 0 10 -3 7 -7z m794 -6 c-8 -11 -3
-16 24 -27 35 -14 93 -83 100 -120 6 -30 -11 -24 -53 16 -20 19 -49 38 -65 41
-21 4 -25 8 -15 15 9 7 6 8 -10 5 -18 -4 -22 -2 -18 9 4 11 2 12 -14 4 -32
-17 -33 -30 -3 -40 42 -15 65 -28 98 -56 30 -25 30 -25 -20 -6 -27 11 -59 23
-69 27 -16 7 -18 5 -14 -13 4 -15 2 -19 -9 -15 -7 3 -12 11 -10 17 3 6 -2 18
-10 28 -13 14 -11 21 17 60 17 23 41 48 53 55 29 16 32 16 18 0z m704 3 c4 -6
-6 -10 -22 -10 -22 0 -25 2 -13 10 19 12 27 12 35 0z m-2688 -7 c-10 -3 -14
-9 -10 -16 4 -7 -2 -5 -13 3 -10 8 -21 16 -23 17 -2 2 11 2 30 2 19 -1 26 -3
16 -6z m615 -5 c-21 -21 -14 -23 62 -20 68 4 75 2 90 -19 13 -19 16 -20 16 -6
0 11 8 17 21 17 12 0 23 8 26 19 4 17 8 18 24 8 23 -14 24 -25 3 -48 -14 -16
-13 -19 7 -38 26 -24 20 -25 -61 -21 -40 2 -109 58 -88 71 6 4 -11 5 -37 3
-27 -3 -52 -9 -55 -14 -3 -5 -25 -16 -48 -24 -42 -15 -42 -15 -42 10 0 14 7
27 18 31 9 4 19 10 22 13 5 7 42 29 50 30 2 0 -1 -5 -8 -12z m478 -2 c0 -13
-28 -26 -57 -26 -6 0 -11 9 -10 20 2 24 67 30 67 6z m988 -6 c7 -11 9 -20 4
-20 -4 0 -13 9 -20 20 -7 11 -9 20 -4 20 4 0 13 -9 20 -20z m442 10 c0 -5 -2
-10 -4 -10 -3 0 -8 5 -11 10 -3 6 -1 10 4 10 6 0 11 -4 11 -10z m414 1 c8 -13
-3 -19 -24 -14 -11 3 -17 9 -14 14 7 11 31 12 38 0z m103 3 c-3 -3 -12 -4 -19
-1 -8 3 -5 6 6 6 11 1 17 -2 13 -5z m-1306 -49 c29 -25 58 -45 65 -45 11 0 54
-50 54 -63 0 -3 -9 -3 -21 0 -11 3 -18 11 -15 19 11 28 -16 24 -43 -5 -16 -17
-38 -31 -49 -31 -11 0 -25 -7 -32 -15 -15 -18 -7 -19 22 -4 16 9 19 8 16 -2
-10 -29 -52 -15 -70 22 -9 20 -28 43 -42 52 -16 11 -23 23 -20 32 4 9 0 15 -7
15 -10 1 -9 5 4 14 9 7 17 21 17 30 0 10 5 14 10 11 6 -3 10 -17 10 -31 0 -29
26 -33 35 -4 4 11 11 17 17 14 6 -4 6 2 -1 15 -17 30 -9 27 50 -24z m136 13
c-5 -17 -3 -17 11 -6 9 7 20 18 24 23 4 6 8 6 8 2 0 -5 -12 -24 -27 -43 -19
-26 -23 -38 -14 -43 16 -10 19 -73 3 -78 -7 -3 -10 1 -6 10 3 8 -2 30 -12 48
-9 18 -13 34 -8 36 5 2 8 22 6 44 -3 31 -1 40 8 34 6 -4 9 -16 7 -27z m683 22
c0 -5 -2 -10 -4 -10 -3 0 -8 5 -11 10 -3 6 -1 10 4 10 6 0 11 -4 11 -10z
m-2389 -23 c-10 -9 -11 -8 -5 6 3 10 9 15 12 12 3 -3 0 -11 -7 -18z m-264 -4
c-4 -3 -7 0 -7 7 0 7 3 10 7 7 3 -4 3 -10 0 -14z m313 7 c0 -5 -7 -10 -16 -10
-8 0 -12 5 -9 10 3 6 10 10 16 10 5 0 9 -4 9 -10z m933 -40 c-7 -26 5 -25 34
2 27 25 28 24 36 -22 3 -19 3 -29 0 -22 -6 16 -26 16 -20 -1 10 -27 -8 -40
-34 -24 -13 8 -35 17 -49 20 -14 4 -34 13 -45 22 -19 16 -19 16 8 10 15 -3 27
-1 27 5 0 5 -9 10 -19 10 -46 0 -38 29 11 40 38 8 59 -9 51 -40z m110 -17 c-2
-32 -6 -64 -8 -70 -6 -18 5 -16 26 3 16 15 19 14 40 -10 33 -38 51 -34 43 9
-4 23 -2 35 5 35 6 0 11 -6 11 -12 0 -10 2 -10 8 0 5 7 16 10 24 7 9 -4 19 -2
23 4 3 7 -2 11 -14 11 -11 0 -23 5 -26 10 -3 6 1 10 11 10 13 0 14 3 5 13 -17
21 -8 23 61 17 82 -7 177 -73 178 -123 0 -17 -10 -18 -125 -15 -132 3 -135 3
-107 -18 14 -11 15 -13 2 -17 -8 -2 -30 -9 -48 -15 -43 -14 -65 -6 -52 18 12
23 4 30 -36 30 -24 0 -33 5 -38 23 -8 30 -8 142 0 150 15 15 21 -6 17 -60z
m1344 60 c-4 -3 -10 -3 -14 0 -3 4 0 7 7 7 7 0 10 -3 7 -7z m-2107 -19 c0 -8
5 -12 10 -9 6 3 10 -2 10 -11 0 -16 -1 -16 -20 1 -22 20 -26 35 -10 35 6 0 10
-7 10 -16z m1816 -6 c1 -10 -6 -15 -23 -15 -13 0 -30 -6 -36 -12 -9 -9 -8 -11
7 -5 13 5 22 1 28 -11 8 -14 12 -15 19 -4 7 11 9 11 9 -2 0 -9 7 -22 15 -29
24 -20 18 -33 -12 -26 -26 6 -27 5 -10 -8 29 -23 47 -9 47 35 0 21 5 39 10 39
16 0 11 -62 -7 -82 -19 -21 -45 -23 -72 -6 -15 9 -25 9 -43 1 -23 -12 -23 -12
2 -12 14 -1 43 -8 65 -15 38 -14 36 -14 -51 -9 -89 6 -154 -7 -154 -30 0 -5 5
-5 10 -2 25 15 -18 -71 -49 -99 -11 -10 -18 -22 -16 -27 3 -4 0 -11 -6 -15 -7
-4 -9 -3 -5 4 3 5 0 12 -6 14 -9 3 2 24 29 61 24 31 39 58 34 61 -4 3 -23 -17
-40 -44 -28 -43 -51 -63 -51 -45 0 26 87 125 110 125 23 0 60 29 60 46 0 9 -5
12 -11 8 -6 -3 -3 5 6 20 13 19 24 25 39 21 11 -2 15 -2 9 1 -19 8 2 41 40 64
36 22 49 22 53 -2z m494 -9 c0 -3 -19 -1 -42 5 -32 9 -42 8 -46 -2 -2 -6 -8
-10 -13 -6 -5 3 -9 0 -9 -7 0 -6 8 -9 20 -6 11 3 20 1 20 -4 0 -5 -27 -8 -60
-6 -33 2 -64 -1 -69 -6 -5 -5 -8 2 -8 17 0 26 29 37 42 16 3 -6 24 -3 53 8 44
17 112 11 112 -9z m-2365 1 c3 -5 4 -10 1 -10 -3 0 -8 5 -11 10 -3 6 -4 10 -1
10 3 0 8 -4 11 -10z m1939 -5 c3 -8 1 -15 -4 -15 -6 0 -10 7 -10 15 0 8 2 15
4 15 2 0 6 -7 10 -15z m676 5 c0 -5 -8 -10 -17 -10 -15 0 -16 2 -3 10 19 12
20 12 20 0z m-2660 -4 c0 -11 -19 -15 -25 -6 -3 5 1 10 9 10 9 0 16 -2 16 -4z
m2147 -63 c-2 -16 -4 -5 -4 22 0 28 2 40 4 28 2 -13 2 -35 0 -50z m560 5 c-2
-13 -4 -5 -4 17 -1 22 1 32 4 23 2 -10 2 -28 0 -40z m-692 32 c3 -5 4 -10 1
-10 -3 0 -8 5 -11 10 -3 6 -4 10 -1 10 3 0 8 -4 11 -10z m-2581 -6 c20 -8 21
-44 1 -44 -8 0 -15 5 -15 11 0 8 -4 8 -14 -1 -13 -10 -13 -8 -3 14 7 14 13 26
14 26 1 0 8 -3 17 -6z m1156 -18 c0 -2 -9 -2 -20 1 -11 3 -20 9 -20 15 0 5 9
4 20 -2 11 -6 20 -12 20 -14z m297 -8 c-3 -7 -5 -2 -5 12 0 14 2 19 5 13 2 -7
2 -19 0 -25z m1118 12 c3 -5 4 -10 1 -10 -3 0 -8 5 -11 10 -3 6 -4 10 -1 10 3
0 8 -4 11 -10z m370 0 c4 -6 -8 -10 -29 -10 -19 0 -38 5 -41 10 -4 6 8 10 29
10 19 0 38 -4 41 -10z m-2895 -4 c0 -3 -5 -8 -12 -12 -7 -4 -8 -3 -4 4 7 12
16 16 16 8z m2943 -15 c-5 -21 -63 -94 -69 -88 -5 5 24 77 38 95 16 19 37 15
31 -7z m-1703 -11 c0 -5 -9 -6 -20 -3 -11 3 -17 9 -15 14 7 10 35 1 35 -11z
m1594 11 c3 -5 -10 -8 -29 -7 -19 1 -35 -2 -35 -6 0 -4 -7 -5 -15 -2 -8 4 -27
-1 -41 -11 -14 -9 -28 -15 -30 -12 -7 7 40 35 67 40 43 8 78 7 83 -2z m-2938
-28 c-10 -10 -19 5 -10 18 6 11 8 11 12 0 2 -7 1 -15 -2 -18z m1454 6 c0 -11
-4 -17 -10 -14 -5 3 -10 13 -10 21 0 8 5 14 10 14 6 0 10 -9 10 -21z m1620 9
c0 -20 -44 -108 -53 -108 -5 0 2 19 15 43 14 23 23 50 20 60 -2 9 1 17 7 17 6
0 11 -6 11 -12z m-1803 -5 c-4 -3 -10 -3 -14 0 -3 4 0 7 7 7 7 0 10 -3 7 -7z
m118 -3 c3 -5 4 -10 1 -10 -3 0 -8 5 -11 10 -3 6 -4 10 -1 10 3 0 8 -4 11 -10z
m-1298 -25 c-7 -14 -18 -25 -26 -25 -10 0 -7 8 9 25 29 31 31 31 17 0z m1220
18 c-4 -3 -10 -3 -14 0 -3 4 0 7 7 7 7 0 10 -3 7 -7z m924 -13 c5 0 9 -4 9
-10 0 -15 -20 -12 -38 7 -16 16 -16 16 1 10 10 -4 23 -7 28 -7z m-967 -9 c8
-13 -3 -19 -24 -14 -11 3 -17 9 -14 14 7 11 31 12 38 0z m176 -6 c7 -8 8 -15
2 -15 -5 0 -15 7 -22 15 -7 8 -8 15 -2 15 5 0 15 -7 22 -15z m-823 -8 c-2 -7
-12 -11 -21 -9 -10 2 -24 -2 -32 -9 -9 -7 -14 -8 -14 -1 0 14 24 27 51 29 12
1 19 -3 16 -10z m1580 7 c-3 -3 -12 -4 -19 -1 -8 3 -5 6 6 6 11 1 17 -2 13 -5z
m113 -5 c0 -5 -4 -8 -10 -4 -5 3 -17 -9 -26 -27 -18 -36 -31 -48 -52 -48 -10
0 -9 9 6 33 26 41 82 73 82 46z m520 -32 c8 -4 -3 -5 -25 -2 -22 3 -49 5 -60
6 -13 0 -9 5 15 14 28 10 37 10 45 1 6 -7 17 -16 25 -19z m-840 14 c0 -6 -4
-13 -10 -16 -5 -3 -10 1 -10 9 0 9 5 16 10 16 6 0 10 -4 10 -9z m157 -6 c0
-11 -4 -12 -14 -4 -7 6 -13 13 -13 15 0 2 6 4 13 4 8 0 14 -7 14 -15z m-2027
-10 c-7 -8 -22 -14 -34 -14 -17 1 -17 2 -3 6 9 2 17 9 17 14 0 5 7 9 16 9 14
0 14 -3 4 -15z m54 -17 c-16 -18 -30 -35 -31 -37 -2 -2 -3 1 -3 8 0 11 47 61
58 61 3 0 -7 -15 -24 -32z m1891 22 c3 -5 -1 -10 -10 -10 -9 0 -13 5 -10 10 3
6 8 10 10 10 2 0 7 -4 10 -10z m878 -7 c-7 -2 -9 -12 -6 -21 5 -14 3 -15 -7
-5 -11 10 -11 15 0 28 7 8 16 13 19 9 3 -4 1 -9 -6 -11z m67 13 c0 -3 -5 -8
-12 -12 -7 -4 -8 -3 -4 4 7 12 16 16 16 8z m270 -6 c0 -5 -5 -10 -11 -10 -5 0
-7 5 -4 10 3 6 8 10 11 10 2 0 4 -4 4 -10z m-1540 -11 c0 -4 -14 -7 -31 -7
-16 1 -26 4 -20 7 14 9 51 8 51 0z m193 -199 c5 19 6 67 4 106 -3 49 0 77 10
90 11 15 13 5 13 -73 0 -72 3 -92 15 -97 8 -3 15 -10 15 -16 0 -5 -7 -10 -15
-10 -8 0 -15 -4 -15 -10 0 -13 17 -13 25 1 4 6 13 8 21 5 13 -5 20 30 15 72
-1 6 2 12 8 12 5 0 16 3 25 6 9 3 16 1 16 -6 0 -6 -4 -9 -9 -5 -21 13 -32 -34
-21 -88 19 -89 23 -118 14 -116 -20 3 -34 -2 -34 -12 0 -5 5 -7 12 -3 6 4 8 3
4 -4 -11 -18 -84 -9 -99 12 -16 22 -37 14 -37 -15 0 -10 -5 -19 -11 -19 -8 0
-9 13 -5 40 6 40 6 41 -15 29 -13 -6 -17 -14 -11 -18 19 -12 -14 -44 -38 -36
-21 7 -21 6 -7 -21 14 -26 12 -32 -19 -89 -19 -34 -34 -69 -34 -78 0 -11 -8
-17 -25 -17 -25 0 -35 23 -16 35 5 3 13 20 16 38 4 17 15 41 25 52 26 28 2 68
-25 41 -25 -25 -49 -19 -65 17 -7 17 -13 34 -13 37 1 3 -6 13 -14 23 -9 9 -14
19 -12 20 32 26 60 37 91 37 20 0 40 5 43 10 10 17 25 11 25 -10 0 -11 4 -20
8 -20 4 0 4 27 -2 61 -7 45 -7 65 2 80 8 12 9 19 1 19 -5 0 -7 5 -4 11 12 18
17 3 22 -63 7 -89 12 -84 12 12 0 68 3 84 18 95 24 17 22 25 24 -103 3 -101
16 -138 20 -52 2 35 2 35 9 -5 6 -34 7 -29 8 30 0 52 -2 63 -9 45 -7 -21 -8
-18 -5 15 1 22 7 49 11 59 6 14 5 17 -3 12 -17 -10 -16 46 1 63 10 10 13 -12
17 -111 4 -93 7 -115 13 -88z m-563 191 c0 -6 -4 -13 -10 -16 -5 -3 -10 1 -10
9 0 9 5 16 10 16 6 0 10 -4 10 -9z m484 -28 c-16 -14 -47 -33 -69 -42 -40 -18
-40 -18 -40 -90 0 -66 -1 -71 -21 -71 -12 0 -41 -11 -65 -23 -54 -29 -66 -26
-75 19 -13 68 17 109 48 66 7 -10 20 -22 28 -27 8 -5 4 5 -10 22 -14 18 -30
32 -36 32 -18 1 -45 48 -38 66 10 26 89 66 120 61 91 -17 109 -16 133 3 38 29
62 14 25 -16z m721 16 c52 -52 -66 -86 -135 -39 -14 9 -33 20 -44 23 -15 6
-16 10 -5 23 18 22 161 16 184 -7z m202 14 c-4 -3 -10 -3 -14 0 -3 4 0 7 7 7
7 0 10 -3 7 -7z m303 -105 c0 -61 -2 -109 -4 -107 -6 6 -14 193 -9 207 10 28
13 7 13 -100z m-3050 98 c0 -3 -5 -8 -12 -12 -7 -4 -8 -3 -4 4 7 12 16 16 16
8z m1407 -13 c-4 -3 -7 0 -7 7 0 7 3 10 7 7 3 -4 3 -10 0 -14z m330 10 c-4 -3
-10 -3 -14 0 -3 4 0 7 7 7 7 0 10 -3 7 -7z m-1019 -22 c3 -8 -1 -12 -9 -9 -7
2 -15 10 -17 17 -3 8 1 12 9 9 7 -2 15 -10 17 -17z m1407 9 c3 -5 -1 -10 -10
-10 -9 0 -13 5 -10 10 3 6 8 10 10 10 2 0 7 -4 10 -10z m-1368 -37 c-3 -10 -5
-4 -5 12 0 17 2 24 5 18 2 -7 2 -21 0 -30z m-757 13 c0 -2 -8 -10 -17 -17 -16
-13 -17 -12 -4 4 13 16 21 21 21 13z m210 -18 c0 -16 -3 -19 -11 -11 -6 6 -8
16 -5 22 11 17 16 13 16 -11z m1785 2 c3 -5 4 -10 1 -10 -3 0 -8 5 -11 10 -3
6 -4 10 -1 10 3 0 8 -4 11 -10z m-1885 -14 c0 -3 -4 -8 -10 -11 -5 -3 -10 -1
-10 4 0 6 5 11 10 11 6 0 10 -2 10 -4z m1747 -13 c-4 -3 -7 0 -7 7 0 7 3 10 7
7 3 -4 3 -10 0 -14z m568 7 c3 -5 2 -10 -4 -10 -5 0 -13 5 -16 10 -3 6 -2 10
4 10 5 0 13 -4 16 -10z m202 -17 c-4 -3 -7 0 -7 7 0 7 3 10 7 7 3 -4 3 -10 0
-14z m29 -20 c-11 -11 -19 6 -11 24 8 17 8 17 12 0 3 -10 2 -21 -1 -24z
m-2588 15 c9 -9 7 -17 -10 -35 -27 -29 -38 -29 -31 0 11 52 18 58 41 35z
m2299 -35 c-3 -10 -5 -2 -5 17 0 19 2 27 5 18 2 -10 2 -26 0 -35z m-2367 13
c0 -3 -5 -8 -12 -12 -7 -4 -8 -3 -4 4 7 12 16 16 16 8z m1743 -33 c-8 -52 -13
-54 -13 -5 0 23 4 42 9 42 6 0 7 -17 4 -37z m864 5 c-3 -7 -5 -2 -5 12 0 14 2
19 5 13 2 -7 2 -19 0 -25z m-330 -15 c-3 -10 -5 -4 -5 12 0 17 2 24 5 18 2 -7
2 -21 0 -30z m200 15 c-3 -8 -6 -5 -6 6 -1 11 2 17 5 13 3 -3 4 -12 1 -19z
m843 13 c0 -5 3 -17 7 -27 4 -12 2 -15 -8 -12 -8 3 -14 9 -14 14 0 5 -4 15 -8
22 -5 8 -3 12 7 12 9 0 16 -4 16 -9z m40 -1 c0 -5 -4 -10 -9 -10 -6 0 -13 5
-16 10 -3 6 1 10 9 10 9 0 16 -4 16 -10z m-1310 -46 c0 -19 -4 -34 -9 -34 -9
0 -20 67 -13 75 11 11 22 -9 22 -41z m-1743 19 c-4 -3 -7 0 -7 7 0 7 3 10 7 7
3 -4 3 -10 0 -14z m-104 -37 c-7 -38 -9 -40 -28 -33 -27 11 -19 65 10 65 22 0
23 -4 18 -32z m2490 14 c3 -11 1 -20 -4 -20 -5 0 -9 9 -9 20 0 11 2 20 4 20 2
0 6 -9 9 -20z m100 -20 c16 -19 16 -20 -3 -20 -13 0 -20 7 -20 20 0 11 1 20 3
20 1 0 10 -9 20 -20z m-2552 -33 c-8 -8 -11 -5 -11 9 0 27 14 41 18 19 2 -9
-1 -22 -7 -28z m2599 -2 c-7 -9 -15 -13 -17 -11 -7 7 7 26 19 26 6 0 6 -6 -2
-15z m-93 -45 c2 -18 1 -18 -18 1 -24 24 -24 28 -1 22 10 -2 18 -13 19 -23z
m-52 -39 c3 -6 -3 -15 -14 -21 -24 -12 -42 7 -20 21 18 11 26 11 34 0z m102
-18 c-4 -3 -7 0 -7 7 0 7 3 10 7 7 3 -4 3 -10 0 -14z m-150 -45 c-3 -7 -5 -2
-5 12 0 14 2 19 5 13 2 -7 2 -19 0 -25z m-747 18 c0 -3 -4 -8 -10 -11 -5 -3
-10 -1 -10 4 0 6 5 11 10 11 6 0 10 -2 10 -4z m-413 -12 c-3 -3 -12 -4 -19 -1
-8 3 -5 6 6 6 11 1 17 -2 13 -5z m80 0 c-3 -3 -12 -4 -19 -1 -8 3 -5 6 6 6 11
1 17 -2 13 -5z m73 -4 c0 -5 -4 -10 -10 -10 -5 0 -10 5 -10 10 0 6 5 10 10 10
6 0 10 -4 10 -10z m90 -16 c0 -8 -19 -13 -24 -6 -3 5 1 9 9 9 8 0 15 -2 15 -3z
m201 -36 c-5 -22 -13 -34 -26 -35 -19 -3 -19 -3 0 6 20 9 20 10 -1 10 -32 1
-37 14 -12 33 35 27 46 23 39 -14z m1204 22 c-3 -5 -13 -10 -21 -10 -8 0 -12
5 -9 10 3 6 13 10 21 10 8 0 12 -4 9 -10z m-1301 -15 c-18 -14 -18 -14 4 -15
21 0 22 -2 8 -15 -16 -17 -36 -20 -36 -6 0 5 -10 7 -22 4 -22 -4 -22 -4 -3 8
11 7 26 19 33 26 7 7 18 13 25 13 6 0 2 -7 -9 -15z m176 -30 c0 -8 -4 -15 -9
-15 -13 0 -22 16 -14 24 11 11 23 6 23 -9z m-130 -5 c0 -5 -8 -10 -17 -10 -15
0 -16 2 -3 10 19 12 20 12 20 0z m-196 -24 c-7 -19 -25 -22 -21 -3 2 12 19 28
24 23 2 -2 1 -11 -3 -20z m163 -13 c-4 -3 -10 -3 -14 0 -3 4 0 7 7 7 7 0 10
-3 7 -7z m183 -15 c0 -5 -8 -8 -17 -7 -32 3 -44 -1 -38 -11 4 -6 -35 -10 -109
-10 -110 0 -136 7 -112 31 9 9 276 6 276 -3z m193 -3 c19 -4 34 -13 34 -20 0
-8 -5 -12 -10 -8 -5 3 -47 5 -93 5 -65 -1 -84 2 -84 13 0 13 74 26 107 19 6
-2 27 -6 46 -9z m-163 -10 c0 -11 -10 -15 -32 -14 -31 2 -31 2 -5 6 15 2 27 9
27 14 0 5 2 9 5 9 3 0 5 -7 5 -15z m-403 -82 c-4 -3 -10 -3 -14 0 -3 4 0 7 7
7 7 0 10 -3 7 -7z"/>
<path d="M1738 1702 c-29 -6 -20 -22 12 -22 17 0 30 4 30 9 0 12 -21 18 -42
13z"/>
<path d="M1720 1650 c0 -5 11 -10 25 -10 14 0 25 5 25 10 0 6 -11 10 -25 10
-14 0 -25 -4 -25 -10z"/>
<path d="M1743 1623 c-33 -6 -28 -23 7 -23 22 0 28 4 24 15 -4 8 -7 14 -8 14
0 -1 -11 -4 -23 -6z"/>
<path d="M1833 1623 c-44 -6 -42 -23 2 -23 19 0 35 -4 35 -10 0 -5 -9 -10 -19
-10 -11 0 -22 -4 -25 -9 -6 -10 33 -20 52 -13 16 5 16 73 0 70 -7 0 -28 -3
-45 -5z"/>
<path d="M1740 1572 c-27 -13 -20 -29 11 -24 16 2 29 10 29 18 0 15 -15 17
-40 6z"/>
<path d="M1748 1532 c-16 -2 -28 -9 -28 -18 0 -13 43 -11 59 2 11 9 -8 19 -31
16z"/>
<path d="M1876 1527 c3 -10 9 -15 12 -12 3 3 0 11 -7 18 -10 9 -11 8 -5 -6z"/>
<path d="M1318 1583 c7 -3 16 -2 19 1 4 3 -2 6 -13 5 -11 0 -14 -3 -6 -6z"/>
<path d="M2441 1449 c-7 -12 -10 -23 -8 -26 3 -3 11 5 17 17 6 12 10 23 8 25
-2 2 -10 -5 -17 -16z"/>
<path d="M1047 1426 c-9 -7 -17 -18 -17 -25 0 -6 9 -2 21 10 24 24 22 33 -4
15z"/>
<path d="M1893 1393 c4 -3 10 -3 14 0 3 4 0 7 -7 7 -7 0 -10 -3 -7 -7z"/>
<path d="M1670 1309 c0 -5 5 -7 10 -4 6 3 10 8 10 11 0 2 -4 4 -10 4 -5 0 -10
-5 -10 -11z"/>
<path d="M1710 1310 c0 -7 3 -10 7 -7 3 4 3 10 0 14 -4 3 -7 0 -7 -7z"/>
<path d="M1860 1310 c8 -5 20 -10 25 -10 6 0 3 5 -5 10 -8 5 -19 10 -25 10 -5
0 -3 -5 5 -10z"/>
<path d="M2517 1349 c7 -7 15 -10 18 -7 3 3 -2 9 -12 12 -14 6 -15 5 -6 -5z"/>
<path d="M2040 1005 c0 -8 5 -15 10 -15 6 0 10 7 10 15 0 8 -4 15 -10 15 -5 0
-10 -7 -10 -15z"/>
<path d="M1820 961 c0 -16 12 -41 20 -41 4 0 5 11 2 25 -4 23 -22 36 -22 16z"/>
<path d="M1750 1129 c0 -13 5 -31 10 -39 7 -11 8 -5 4 20 -8 43 -14 51 -14 19z"/>
<path d="M1902 2500 c0 -14 2 -19 5 -12 2 6 2 18 0 25 -3 6 -5 1 -5 -13z"/>
<path d="M1903 2215 c0 -33 2 -45 4 -27 2 18 2 45 0 60 -2 15 -4 0 -4 -33z"/>
<path d="M1900 2140 c0 -7 3 -10 7 -7 3 4 3 10 0 14 -4 3 -7 0 -7 -7z"/>
<path d="M903 2103 c4 -3 10 -3 14 0 3 4 0 7 -7 7 -7 0 -10 -3 -7 -7z"/>
<path d="M1040 2059 c0 -10 6 -19 14 -19 8 0 17 -6 19 -12 3 -7 6 -1 6 13 1
19 -5 28 -19 32 -15 4 -20 0 -20 -14z"/>
<path d="M1100 2039 c0 -5 5 -7 10 -4 6 3 10 8 10 11 0 2 -4 4 -10 4 -5 0 -10
-5 -10 -11z"/>
<path d="M274 2029 c-3 -5 0 -9 6 -9 7 0 10 -7 6 -15 -8 -21 7 -19 28 4 16 18
16 19 -9 23 -14 3 -28 1 -31 -3z"/>
<path d="M800 2019 c-34 -6 -33 -6 13 -8 46 -1 59 3 35 11 -7 2 -29 1 -48 -3z"/>
<path d="M1040 2012 c1 -17 19 -34 29 -28 17 11 13 23 -9 29 -11 3 -20 2 -20
-1z"/>
<path d="M1100 1989 c0 -5 5 -7 10 -4 6 3 10 8 10 11 0 2 -4 4 -10 4 -5 0 -10
-5 -10 -11z"/>
<path d="M903 1973 c-23 -9 -14 -33 12 -33 14 0 25 5 25 11 0 6 7 9 15 5 9 -3
15 0 15 9 0 15 -40 20 -67 8z"/>
<path d="M795 1960 c-3 -5 3 -10 14 -10 12 0 21 -4 21 -10 0 -5 9 -10 20 -10
24 0 27 25 4 34 -24 9 -52 7 -59 -4z"/>
<path d="M718 1946 c-15 -8 -29 -12 -32 -10 -3 2 -4 1 -1 -3 12 -16 61 -9 62
9 2 21 4 21 -29 4z"/>
<path d="M770 1950 c0 -7 3 -10 7 -7 3 4 3 10 0 14 -4 3 -7 0 -7 -7z"/>
<path d="M1058 1943 c7 -3 16 -2 19 1 4 3 -2 6 -13 5 -11 0 -14 -3 -6 -6z"/>
<path d="M1100 1929 c0 -5 5 -7 10 -4 6 3 10 8 10 11 0 2 -4 4 -10 4 -5 0 -10
-5 -10 -11z"/>
<path d="M917 1912 c-32 -3 -35 -5 -23 -18 17 -16 56 -19 56 -3 0 5 5 7 10 4
6 -3 10 -2 10 4 0 14 -10 17 -53 13z"/>
<path d="M805 1902 c-31 -10 -28 -29 5 -34 22 -3 27 -1 20 7 -12 14 -3 25 15
19 7 -3 16 -1 20 5 7 12 -27 13 -60 3z"/>
<path d="M1050 1885 c12 -15 30 -12 30 6 0 5 -10 9 -21 9 -18 0 -19 -2 -9 -15z"/>
<path d="M1096 1875 c-3 -8 -1 -15 4 -15 13 0 22 18 11 24 -5 3 -11 -1 -15 -9z"/>
<path d="M274 1854 c3 -9 6 -18 6 -20 0 -2 7 -4 15 -4 8 0 15 6 15 13 0 8 4 7
11 -3 9 -12 10 -12 5 3 -3 10 -6 21 -6 23 0 2 -12 4 -26 4 -20 0 -25 -4 -20
-16z"/>
<path d="M904 1849 c-10 -18 11 -31 40 -23 36 9 34 34 -3 34 -17 0 -33 -5 -37
-11z"/>
<path d="M787 1843 c-16 -16 -4 -23 38 -23 33 0 45 4 45 15 0 15 -69 22 -83 8z"/>
<path d="M1960 1841 c0 -5 21 -16 48 -26 26 -10 54 -23 62 -28 13 -10 13 -9 0
5 -18 20 -110 61 -110 49z"/>
<path d="M1050 1830 c0 -5 7 -10 15 -10 8 0 15 5 15 10 0 6 -7 10 -15 10 -8 0
-15 -4 -15 -10z"/>
<path d="M300 1796 c0 -9 5 -16 10 -16 6 0 10 4 10 9 0 6 -4 13 -10 16 -5 3
-10 -1 -10 -9z"/>
<path d="M955 1790 c3 -5 8 -10 11 -10 3 0 2 5 -1 10 -3 6 -8 10 -11 10 -3 0
-2 -4 1 -10z"/>
<path d="M905 1780 c3 -5 8 -10 11 -10 3 0 2 5 -1 10 -3 6 -8 10 -11 10 -3 0
-2 -4 1 -10z"/>
<path d="M1058 1773 c7 -3 16 -2 19 1 4 3 -2 6 -13 5 -11 0 -14 -3 -6 -6z"/>
<path d="M1103 1763 c4 -3 10 -3 14 0 3 4 0 7 -7 7 -7 0 -10 -3 -7 -7z"/>
<path d="M898 1718 c3 -12 10 -17 19 -14 8 3 17 6 19 6 3 0 2 5 -1 10 -3 6 0
10 9 10 8 0 17 -6 19 -12 3 -8 6 -6 6 5 1 15 -6 17 -38 16 -32 -2 -37 -6 -33
-21z"/>
<path d="M1100 1709 c0 -5 5 -7 10 -4 6 3 10 8 10 11 0 2 -4 4 -10 4 -5 0 -10
-5 -10 -11z"/>
<path d="M407 1704 c-3 -4 0 -12 7 -20 17 -16 57 -7 49 12 -5 14 -44 19 -56 8z"/>
<path d="M405 1642 c3 -8 5 -16 5 -18 0 -2 13 -4 29 -4 24 0 28 3 24 20 -4 14
-13 19 -34 17 -20 -1 -28 -6 -24 -15z"/>
<path d="M5 1639 c-11 -17 1 -21 15 -4 8 9 8 15 2 15 -6 0 -14 -5 -17 -11z"/>
<path d="M270 1642 c0 -4 4 -13 9 -21 10 -16 45 -7 39 11 -4 12 -48 22 -48 10z"/>
<path d="M2633 1623 c4 -3 10 -3 14 0 3 4 0 7 -7 7 -7 0 -10 -3 -7 -7z"/>
<path d="M790 1608 c0 -5 7 -8 15 -8 8 0 15 -3 15 -7 0 -5 11 -8 25 -8 17 0
25 6 25 17 0 14 -8 17 -40 15 -22 -1 -40 -5 -40 -9z"/>
<path d="M408 1595 c-3 -3 -4 -14 -1 -24 7 -27 65 -23 61 4 -3 19 -46 34 -60
20z"/>
<path d="M788 1583 c7 -3 16 -2 19 1 4 3 -2 6 -13 5 -11 0 -14 -3 -6 -6z"/>
<path d="M773 1553 c4 -3 10 -3 14 0 3 4 0 7 -7 7 -7 0 -10 -3 -7 -7z"/>
<path d="M805 1550 c3 -5 8 -10 11 -10 3 0 2 5 -1 10 -3 6 -8 10 -11 10 -3 0
-2 -4 1 -10z"/>
<path d="M5 1519 c-11 -17 1 -21 15 -4 8 9 8 15 2 15 -6 0 -14 -5 -17 -11z"/>
<path d="M50 1510 c0 -7 3 -10 7 -7 3 4 3 10 0 14 -4 3 -7 0 -7 -7z"/>
<path d="M2590 1468 c0 -4 4 -8 9 -8 6 0 12 4 15 8 3 5 -1 9 -9 9 -8 0 -15 -4
-15 -9z"/>
<path d="M80 1440 c0 -5 7 -7 15 -4 8 4 15 8 15 10 0 2 -7 4 -15 4 -8 0 -15
-4 -15 -10z"/>
<path d="M3213 1413 c4 -3 10 -3 14 0 3 4 0 7 -7 7 -7 0 -10 -3 -7 -7z"/>
<path d="M625 1370 c-3 -5 1 -10 9 -10 8 0 18 5 21 10 3 6 -1 10 -9 10 -8 0
-18 -4 -21 -10z"/>
<path d="M585 1350 c-3 -6 1 -7 9 -4 18 7 21 14 7 14 -6 0 -13 -4 -16 -10z"/>
<path d="M990 1354 c0 -11 34 -33 49 -34 11 0 10 5 -4 20 -17 19 -45 27 -45
14z"/>
<path d="M3390 1330 c0 -7 3 -10 7 -7 3 4 3 10 0 14 -4 3 -7 0 -7 -7z"/>
<path d="M3426 1331 c-4 -7 -5 -15 -2 -18 9 -9 19 4 14 18 -4 11 -6 11 -12 0z"/>
<path d="M50 1310 c0 -7 3 -10 7 -7 3 4 3 10 0 14 -4 3 -7 0 -7 -7z"/>
<path d="M1020 1285 c0 -14 2 -25 4 -25 2 0 6 11 8 25 3 14 1 25 -3 25 -5 0
-9 -11 -9 -25z"/>
<path d="M3197 1291 c-3 -12 -2 -23 3 -26 11 -7 20 19 10 34 -5 9 -9 7 -13 -8z"/>
<path d="M916 1273 c-4 -13 -15 -23 -24 -24 -10 -1 -7 -4 8 -8 28 -9 62 0 68
17 2 7 -5 12 -16 12 -11 0 -22 6 -25 13 -2 7 -7 2 -11 -10z m29 -21 c-3 -3
-11 0 -18 7 -9 10 -8 11 6 5 10 -3 15 -9 12 -12z"/>
<path d="M1145 1251 c-3 -10 -3 -26 1 -35 5 -13 -1 -16 -35 -17 -54 -2 -58 -3
-67 -11 -4 -5 -2 -8 5 -8 7 0 9 -4 6 -10 -10 -17 -25 -11 -25 9 0 11 -4 23
-10 26 -6 4 -10 -6 -10 -24 0 -22 6 -31 22 -37 21 -6 21 -6 -3 -25 -13 -10
-36 -19 -51 -19 -21 0 -28 -5 -28 -20 0 -11 5 -20 11 -20 7 0 8 -12 4 -32 -7
-33 -7 -33 14 -9 12 14 27 21 36 17 33 -12 10 -45 -36 -49 -32 -4 -34 -7 -36
-43 -2 -38 -2 -38 8 -11 6 15 16 26 23 24 6 -2 16 3 23 12 11 14 13 11 14 -16
1 -18 2 -38 3 -45 1 -8 -13 -12 -36 -12 -21 0 -38 -4 -38 -8 0 -4 20 -8 45 -8
45 0 45 0 45 65 0 72 15 85 44 40 24 -36 22 -98 -3 -90 -11 3 -22 1 -26 -5 -3
-5 1 -10 9 -10 8 0 16 -8 18 -17 2 -13 9 -7 22 20 10 22 16 47 13 58 -3 12 0
19 9 19 13 0 20 -32 15 -68 -2 -9 6 -12 21 -10 21 3 23 9 28 69 5 67 20 99 47
99 10 0 14 -7 10 -20 -3 -11 -1 -20 4 -20 5 0 9 -15 10 -32 0 -27 2 -29 8 -13
5 11 6 26 4 33 -12 30 20 8 33 -24 17 -41 30 -41 15 -1 -10 26 0 44 18 33 7
-5 8 -54 1 -105 0 -2 -6 2 -14 8 -10 8 -16 9 -21 1 -10 -17 -25 -11 -25 10 0
32 -15 23 -17 -10 -2 -22 1 -28 12 -23 8 3 15 0 15 -7 0 -7 6 -10 13 -7 6 2
21 1 32 -4 12 -4 -32 -8 -103 -7 -67 0 -126 -2 -129 -6 -4 -3 55 -6 129 -6
136 0 136 0 130 23 -5 19 -3 20 10 9 13 -10 17 -10 22 3 3 10 -1 15 -13 15
-21 0 -31 18 -26 46 2 11 4 31 4 46 1 20 5 26 16 22 8 -4 15 -1 15 6 0 7 7 10
15 6 11 -4 15 1 15 18 0 19 -5 22 -29 21 -28 -2 -29 0 -35 52 -3 30 -3 59 0
65 4 7 2 8 -4 4 -7 -4 -12 -27 -12 -52 0 -53 -6 -54 -55 -9 -33 32 -37 40 -33
75 4 47 1 49 -27 14 -20 -26 -20 -26 -23 0 -1 15 3 26 11 26 6 0 -1 7 -17 15
-35 19 -33 19 -41 -4z m22 -18 c-4 -3 -7 0 -7 7 0 7 3 10 7 7 3 -4 3 -10 0
-14z m-60 -90 c-3 -10 -5 -4 -5 12 0 17 2 24 5 18 2 -7 2 -21 0 -30z m61 26
c-2 -6 3 -14 10 -16 6 -3 12 2 12 11 0 21 5 20 32 -6 13 -13 45 -42 72 -65 43
-36 48 -44 37 -57 -12 -14 -17 -14 -51 5 -46 26 -148 139 -126 139 9 0 15 -5
14 -11z m-31 -26 c-4 -3 -7 0 -7 7 0 7 3 10 7 7 3 -4 3 -10 0 -14z m-60 -28
c-4 -8 -14 -15 -23 -15 -16 0 -16 2 1 20 20 22 31 20 22 -5z m-17 -50 c-7 -9
-15 -13 -17 -11 -7 7 7 26 19 26 6 0 6 -6 -2 -15z m134 -2 c5 -13 -66 -93 -83
-93 -17 0 -21 17 -7 29 11 9 15 9 18 -1 3 -8 6 -9 11 -1 4 6 0 18 -8 26 -20
21 -19 24 11 40 33 17 52 17 58 0z m-110 -29 c20 -8 21 -21 1 -21 -8 0 -16 6
-19 14 -6 15 -4 15 18 7z m181 -4 c3 -5 1 -10 -4 -10 -6 0 -11 5 -11 10 0 6 2
10 4 10 3 0 8 -4 11 -10z m-98 -47 c-4 -3 -7 0 -7 7 0 7 3 10 7 7 3 -4 3 -10
0 -14z m3 -45 c0 -36 -16 -55 -22 -26 -2 13 -3 29 0 36 6 20 22 13 22 -10z"/>
<path d="M1130 1046 c0 -9 40 -13 46 -5 3 5 -6 9 -20 9 -14 0 -26 -2 -26 -4z"/>
<path d="M1073 1253 c4 -3 10 -3 14 0 3 4 0 7 -7 7 -7 0 -10 -3 -7 -7z"/>
<path d="M1021 1234 c0 -11 3 -14 6 -6 3 7 2 16 -1 19 -3 4 -6 -2 -5 -13z"/>
<path d="M2666 1234 c-9 -25 -2 -26 17 -4 13 16 14 20 3 20 -8 0 -17 -7 -20
-16z"/>
<path d="M924 1197 c3 -26 2 -27 -14 -12 -17 15 -18 13 -23 -37 -8 -77 -18
-119 -28 -113 -4 3 -6 19 -3 35 5 22 3 28 -10 26 -19 -3 -34 -16 -18 -16 7 0
12 -6 12 -14 0 -9 -7 -12 -20 -9 -16 4 -20 14 -22 52 -1 46 -1 46 -8 1 -7 -45
-7 -45 -10 -5 -2 40 -2 40 -10 5 -5 -19 -4 -42 0 -51 6 -10 5 -20 -2 -27 -14
-14 -10 -14 56 -12 31 1 52 -3 58 -12 6 -8 8 2 6 29 -1 23 1 45 5 49 4 4 7 2
7 -4 0 -7 9 -12 20 -12 16 0 19 5 14 28 -4 20 0 34 11 46 15 15 16 19 2 34 -8
9 -17 24 -21 32 -3 8 -4 2 -2 -13z m3 -54 c-4 -3 -7 0 -7 7 0 7 3 10 7 7 3 -4
3 -10 0 -14z m-7 -35 c0 -5 -4 -8 -10 -8 -5 0 -10 10 -10 23 0 18 2 19 10 7 5
-8 10 -18 10 -22z"/>
<path d="M1387 1165 c-2 -14 -1 -40 3 -58 7 -27 8 -24 9 26 1 61 -4 73 -12 32z"/>
<path d="M3190 1167 c5 -16 10 -43 10 -60 1 -27 2 -29 11 -14 13 21 6 54 -16
82 -14 19 -15 19 -5 -8z"/>
<path d="M1290 1170 c0 -7 3 -10 7 -7 3 4 3 10 0 14 -4 3 -7 0 -7 -7z"/>
<path d="M1365 1160 c-3 -5 -1 -10 4 -10 6 0 11 5 11 10 0 6 -2 10 -4 10 -3 0
-8 -4 -11 -10z"/>
<path d="M1514 1162 c-11 -7 -7 -102 5 -102 3 0 6 25 6 55 0 30 0 55 0 55 0 0
-5 -4 -11 -8z"/>
<path d="M201 1153 c0 -5 4 -17 9 -28 8 -17 8 -16 7 8 -1 15 -5 27 -9 27 -4 0
-8 -3 -7 -7z"/>
<path d="M603 1133 c4 -3 10 -3 14 0 3 4 0 7 -7 7 -7 0 -10 -3 -7 -7z"/>
<path d="M1010 1129 c0 -5 5 -7 10 -4 6 3 10 8 10 11 0 2 -4 4 -10 4 -5 0 -10
-5 -10 -11z"/>
<path d="M1356 1125 c4 -8 8 -15 10 -15 2 0 4 7 4 15 0 8 -4 15 -10 15 -5 0
-7 -7 -4 -15z"/>
<path d="M515 1110 c3 -5 11 -10 16 -10 6 0 7 5 4 10 -3 6 -11 10 -16 10 -6 0
-7 -4 -4 -10z"/>
<path d="M160 1094 c0 -8 5 -12 10 -9 6 3 10 10 10 16 0 5 -4 9 -10 9 -5 0
-10 -7 -10 -16z"/>
<path d="M576 1098 c-14 -8 -15 -12 -5 -24 7 -8 8 -14 3 -12 -11 3 -94 -52
-94 -63 0 -5 7 -6 15 -3 25 10 18 -25 -11 -51 -23 -21 -23 -23 -4 -18 11 3 27
15 35 26 13 18 14 16 13 -31 -1 -51 -1 -51 -52 -55 -45 -3 -43 -4 18 -5 68 -2
68 -2 62 26 -20 85 -19 109 5 115 37 10 41 9 28 -14 -9 -17 -8 -23 2 -30 10
-6 11 -9 2 -9 -20 0 -15 -49 8 -73 20 -22 20 -22 13 6 -5 22 -2 33 14 47 20
19 21 19 25 -3 4 -21 4 -21 7 3 2 25 2 25 10 0 7 -22 8 -21 9 13 1 36 0 37
-34 37 -36 0 -36 0 -30 38 9 53 14 64 24 58 7 -5 21 14 21 28 0 7 -69 2 -84
-6z m44 -2 c0 -3 -4 -8 -10 -11 -5 -3 -10 -1 -10 4 0 6 5 11 10 11 6 0 10 -2
10 -4z m-80 -70 c0 -3 -5 -8 -12 -12 -7 -4 -8 -3 -4 4 7 12 16 16 16 8z m7
-153 c-4 -3 -7 0 -7 7 0 7 3 10 7 7 3 -4 3 -10 0 -14z"/>
<path d="M688 1102 c-15 -6 -15 -9 6 -29 22 -22 22 -22 18 8 -2 16 -5 29 -6
28 0 0 -9 -3 -18 -7z"/>
<path d="M1436 1073 c-3 -3 -6 -25 -5 -47 0 -37 1 -39 10 -17 5 14 8 30 5 37
-3 7 0 14 7 17 7 2 8 5 0 10 -5 4 -13 4 -17 0z"/>
<path d="M3191 1058 c-1 -10 3 -18 8 -18 10 0 28 -42 34 -80 3 -14 3 -2 2 27
-2 33 1 54 8 57 7 2 0 5 -15 5 -14 1 -29 7 -31 14 -3 7 -6 5 -6 -5z"/>
<path d="M647 1036 c-3 -8 -2 -18 3 -21 13 -8 20 9 11 24 -6 10 -10 9 -14 -3z"/>
<path d="M2945 1040 c-3 -5 -1 -10 4 -10 6 0 11 5 11 10 0 6 -2 10 -4 10 -3 0
-8 -4 -11 -10z"/>
<path d="M710 1030 c0 -13 18 -22 24 -11 3 5 -1 11 -9 15 -8 3 -15 1 -15 -4z"/>
<path d="M1581 1004 c0 -11 3 -14 6 -6 3 7 2 16 -1 19 -3 4 -6 -2 -5 -13z"/>
<path d="M3040 1010 c0 -7 3 -10 7 -7 3 4 3 10 0 14 -4 3 -7 0 -7 -7z"/>
<path d="M367 1003 c-11 -11 -8 -43 4 -43 6 0 9 6 6 14 -3 8 2 17 11 21 9 3
18 1 20 -4 2 -6 8 -11 13 -11 4 0 6 7 3 15 -6 15 -45 21 -57 8z"/>
<path d="M913 1003 c4 -3 10 -3 14 0 3 4 0 7 -7 7 -7 0 -10 -3 -7 -7z"/>
<path d="M3320 995 c0 -11 -3 -38 -7 -59 -4 -26 -3 -37 4 -33 16 10 25 75 14
95 -10 16 -10 15 -11 -3z"/>
<path d="M1211 959 c1 -25 -1 -50 -5 -57 -5 -8 -2 -10 8 -6 12 5 14 16 9 52
-8 62 -15 68 -12 11z"/>
<path d="M778 982 c-24 -5 -26 -77 -3 -86 20 -7 27 12 23 56 -2 26 -7 33 -20
30z m9 -52 c2 -11 -2 -20 -7 -20 -6 0 -10 12 -10 27 0 29 12 24 17 -7z"/>
<path d="M879 978 c0 -7 -2 -28 -3 -45 -2 -18 0 -33 5 -33 5 0 9 20 9 45 0 39
-9 66 -11 33z"/>
<path d="M910 958 c0 -21 5 -38 10 -38 13 0 13 40 0 60 -7 11 -10 5 -10 -22z"/>
<path d="M1381 963 c-1 -18 4 -33 9 -33 12 0 12 17 0 45 -7 17 -9 15 -9 -12z"/>
<path d="M2320 955 c0 -19 5 -35 10 -35 6 0 10 16 10 35 0 19 -4 35 -10 35 -5
0 -10 -16 -10 -35z"/>
<path d="M736 967 c-5 -9 -5 -29 0 -45 7 -25 8 -26 11 -4 7 36 -2 71 -11 49z"/>
<path d="M818 974 c-5 -4 -8 -28 -8 -53 1 -36 3 -42 11 -28 11 19 8 93 -3 81z"/>
<path d="M841 948 c1 -61 18 -78 18 -20 1 28 -3 52 -9 52 -5 0 -10 -15 -9 -32z"/>
<path d="M2275 970 c-3 -5 -1 -10 4 -10 6 0 11 5 11 10 0 6 -2 10 -4 10 -3 0
-8 -4 -11 -10z"/>
<path d="M2480 970 c0 -7 3 -10 7 -7 3 4 3 10 0 14 -4 3 -7 0 -7 -7z"/>
<path d="M395 961 c-3 -5 -1 -12 5 -16 5 -3 10 1 10 9 0 18 -6 21 -15 7z"/>
<path d="M440 960 c0 -7 3 -10 7 -7 3 4 3 10 0 14 -4 3 -7 0 -7 -7z"/>
<path d="M690 960 c0 -7 3 -10 7 -7 3 4 3 10 0 14 -4 3 -7 0 -7 -7z"/>
<path d="M712 950 c0 -14 2 -19 5 -12 2 6 2 18 0 25 -3 6 -5 1 -5 -13z"/>
<path d="M1190 960 c0 -7 3 -10 7 -7 3 4 3 10 0 14 -4 3 -7 0 -7 -7z"/>
<path d="M1431 954 c0 -11 3 -14 6 -6 3 7 2 16 -1 19 -3 4 -6 -2 -5 -13z"/>
<path d="M3030 940 c-6 -11 -7 -20 -2 -20 6 0 12 9 15 20 3 11 3 20 1 20 -2 0
-8 -9 -14 -20z"/>
<path d="M3170 950 c0 -7 3 -10 7 -7 3 4 3 10 0 14 -4 3 -7 0 -7 -7z"/>
<path d="M2974 939 c-3 -6 -1 -16 5 -22 8 -8 11 -5 11 11 0 24 -5 28 -16 11z"/>
<path d="M981 924 c0 -11 3 -14 6 -6 3 7 2 16 -1 19 -3 4 -6 -2 -5 -13z"/>
<path d="M2900 933 c44 -17 61 -76 38 -128 -8 -17 -6 -16 11 4 21 23 30 91 12
91 -5 0 -13 9 -16 20 -4 14 -15 20 -33 19 -16 0 -21 -3 -12 -6z"/>
<path d="M560 920 c0 -7 3 -10 7 -7 3 4 3 10 0 14 -4 3 -7 0 -7 -7z"/>
<path d="M1053 923 c4 -3 10 -3 14 0 3 4 0 7 -7 7 -7 0 -10 -3 -7 -7z"/>
<path d="M2451 918 c0 -9 -11 -18 -23 -21 -13 -2 9 -4 47 -4 52 0 63 2 42 8
-16 4 -35 5 -42 3 -7 -3 -15 3 -18 13 -4 15 -5 15 -6 1z"/>
<path d="M3180 920 c0 -7 3 -10 7 -7 3 4 3 10 0 14 -4 3 -7 0 -7 -7z"/>
<path d="M2991 900 c-7 -4 1 -7 18 -8 17 0 31 1 31 3 0 7 -39 12 -49 5z"/>
<path d="M900 890 c0 -7 3 -10 7 -7 3 4 3 10 0 14 -4 3 -7 0 -7 -7z"/>
<path d="M2250 890 c0 -7 3 -10 7 -7 3 4 3 10 0 14 -4 3 -7 0 -7 -7z"/>
<path d="M2293 888 c16 -6 33 -6 37 -2 5 5 -7 10 -28 11 -37 2 -37 2 -9 -9z"/>
<path d="M2373 893 c4 -3 10 -3 14 0 3 4 0 7 -7 7 -7 0 -10 -3 -7 -7z"/>
<path d="M3221 895 c0 -5 6 -21 14 -35 8 -14 14 -20 14 -15 0 6 -6 21 -14 35
-8 14 -14 21 -14 15z"/>
<path d="M2900 855 c-7 -9 -10 -18 -7 -21 3 -3 10 4 17 15 13 25 8 27 -10 6z"/>
<path d="M973 853 c4 -3 10 -3 14 0 3 4 0 7 -7 7 -7 0 -10 -3 -7 -7z"/>
<path d="M1018 853 c7 -3 16 -2 19 1 4 3 -2 6 -13 5 -11 0 -14 -3 -6 -6z"/>
<path d="M2239 847 c5 -5 26 -7 47 -5 39 3 39 3 -8 8 -26 3 -43 1 -39 -3z"/>
<path d="M2851 844 c0 -11 3 -14 6 -6 3 7 2 16 -1 19 -3 4 -6 -2 -5 -13z"/>
<path d="M3010 844 c-25 -14 -25 -14 3 -12 15 1 27 8 27 15 0 7 -1 13 -2 12
-2 -1 -14 -7 -28 -15z"/>
<path d="M3431 853 c-1 -9 -26 -14 -83 -15 -83 -1 -83 -1 2 -8 97 -7 93 -7 87
17 -3 10 -5 12 -6 6z"/>
<path d="M5 840 c-3 -5 3 -10 15 -10 12 0 18 5 15 10 -3 6 -10 10 -15 10 -5 0
-12 -4 -15 -10z"/>
<path d="M2368 843 c12 -2 30 -2 40 0 9 3 -1 5 -23 4 -22 0 -30 -2 -17 -4z"/>
<path d="M2468 843 c7 -3 16 -2 19 1 4 3 -2 6 -13 5 -11 0 -14 -3 -6 -6z"/>
<path d="M118 833 c7 -3 16 -2 19 1 4 3 -2 6 -13 5 -11 0 -14 -3 -6 -6z"/>
<path d="M163 833 c4 -3 10 -3 14 0 3 4 0 7 -7 7 -7 0 -10 -3 -7 -7z"/>
<path d="M198 833 c6 -2 18 -2 25 0 6 3 1 5 -13 5 -14 0 -19 -2 -12 -5z"/>
<path d="M570 830 c0 -6 -10 -15 -22 -20 -16 -6 -18 -9 -6 -9 26 -1 48 10 48
25 0 8 -4 14 -10 14 -5 0 -10 -5 -10 -10z"/>
<path d="M1613 823 c4 -3 10 -3 14 0 3 4 0 7 -7 7 -7 0 -10 -3 -7 -7z"/>
<path d="M478 813 c6 -2 18 -2 25 0 6 3 1 5 -13 5 -14 0 -19 -2 -12 -5z"/>
<path d="M1248 643 c7 -3 16 -2 19 1 4 3 -2 6 -13 5 -11 0 -14 -3 -6 -6z"/>
<path d="M1778 593 c7 -3 16 -2 19 1 4 3 -2 6 -13 5 -11 0 -14 -3 -6 -6z"/>
<path d="M600 574 c48 -15 210 -44 375 -69 55 -8 154 -26 220 -40 65 -14 133
-24 150 -24 23 1 20 3 -15 9 -25 4 -112 21 -195 37 -82 17 -220 41 -305 53
-85 13 -175 29 -200 36 -25 8 -52 14 -60 13 -8 0 5 -7 30 -15z"/>
<path d="M1405 431 c77 -22 314 -63 325 -56 5 3 11 1 15 -5 3 -5 16 -10 28 -9
19 1 18 2 -8 14 -16 8 -37 12 -47 9 -9 -3 -19 0 -22 5 -4 6 -14 7 -23 4 -9 -4
-14 -2 -11 3 3 5 -23 10 -60 12 -37 1 -80 6 -97 11 -16 6 -52 12 -80 15 -38 4
-43 4 -20 -3z"/>
<path d="M1823 359 c25 -15 171 -49 208 -49 27 0 149 -29 274 -65 58 -17 234
-49 390 -70 162 -22 291 -43 373 -59 41 -9 77 -15 80 -14 25 3 52 -4 48 -11
-7 -10 11 -15 114 -31 98 -15 130 -13 130 8 0 13 -10 18 -48 20 -26 2 -81 10
-122 19 -41 8 -86 17 -99 20 -14 2 -27 6 -31 8 -13 8 -257 46 -286 44 -41 -2
-208 19 -236 30 -13 5 -37 7 -54 4 -22 -3 -26 -2 -14 6 8 6 11 11 6 11 -17 0
-171 31 -254 52 -46 11 -86 17 -89 14 -4 -3 2 -6 12 -6 10 0 16 -2 13 -5 -3
-4 -18 -3 -33 1 -20 5 -23 9 -13 15 9 6 1 9 -22 8 -19 -1 -57 4 -83 10 -26 6
-60 9 -75 5 -21 -4 -24 -3 -12 5 11 8 7 10 -20 6 -27 -4 -30 -3 -15 4 18 8 16
9 -10 10 -56 1 -104 7 -111 14 -4 4 -14 7 -23 7 -13 -1 -13 -3 2 -11z m454
-85 c-3 -3 -12 -4 -19 -1 -8 3 -5 6 6 6 11 1 17 -2 13 -5z m40 -11 c-4 -3 -10
-3 -14 0 -3 4 0 7 7 7 7 0 10 -3 7 -7z m60 -20 c-4 -3 -10 -3 -14 0 -3 4 0 7
7 7 7 0 10 -3 7 -7z m130 -20 c-4 -3 -10 -3 -14 0 -3 4 0 7 7 7 7 0 10 -3 7
-7z m396 -60 c-7 -2 -19 -2 -25 0 -7 3 -2 5 12 5 14 0 19 -2 13 -5z m44 -10
c-4 -3 -10 -3 -14 0 -3 4 0 7 7 7 7 0 10 -3 7 -7z m131 -20 c-10 -2 -26 -2
-35 0 -10 3 -2 5 17 5 19 0 27 -2 18 -5z m39 -10 c-4 -3 -10 -3 -14 0 -3 4 0
7 7 7 7 0 10 -3 7 -7z m136 -30 c-7 -2 -21 -2 -30 0 -10 3 -4 5 12 5 17 0 24
-2 18 -5z m44 -9 c-3 -3 -12 -4 -19 -1 -8 3 -5 6 6 6 11 1 17 -2 13 -5z m100
-21 c-4 -3 -10 -3 -14 0 -3 4 0 7 7 7 7 0 10 -3 7 -7z"/>
<path d="M14 248 c-4 -7 -3 -8 4 -4 7 4 12 9 12 12 0 8 -9 4 -16 -8z"/>
</g>
</svg>
