<?xml version="1.0" standalone="no"?>
<!DOCTYPE svg PUBLIC "-//W3C//DTD SVG 20010904//EN"
 "http://www.w3.org/TR/2001/REC-SVG-20010904/DTD/svg10.dtd">
<svg version="1.0" xmlns="http://www.w3.org/2000/svg"
 width="344.000000pt" height="256.000000pt" viewBox="0 0 344.000000 256.000000"
 preserveAspectRatio="xMidYMid meet">
<metadata>
Created by potrace 1.16, written by Peter Selinger 2001-2019
</metadata>
<g transform="translate(0.000000,256.000000) scale(0.100000,-0.100000)"
fill="#000000" stroke="none">
<path d="M3031 2371 c-8 -5 -20 -7 -27 -4 -6 2 -15 0 -19 -6 -3 -7 2 -11 13
-11 15 0 19 -5 15 -18 -4 -16 9 -23 79 -45 46 -15 89 -27 96 -27 17 0 25 -19
27 -72 2 -46 9 -67 19 -57 3 2 1 32 -3 66 -8 70 -3 85 42 127 22 20 26 26 12
21 -26 -10 -28 -10 -114 14 -81 23 -118 26 -140 12z m152 -27 c32 -8 61 -14
63 -14 3 0 -3 -15 -13 -32 -10 -18 -18 -34 -18 -35 -2 -12 -185 64 -185 77 0
31 40 32 153 4z"/>
<path d="M3270 2279 c-31 -42 -20 -45 13 -4 15 19 23 35 18 35 -5 0 -19 -14
-31 -31z"/>
<path d="M2970 2235 c-26 -60 -91 -270 -81 -259 5 5 21 45 35 89 61 184 67
195 95 196 23 0 24 1 6 9 -32 14 -35 12 -55 -35z"/>
<path d="M3010 2126 c-52 -37 -81 -72 -74 -90 3 -9 10 -16 15 -16 5 0 9 -6 9
-13 0 -8 11 -24 25 -37 14 -13 25 -18 25 -11 0 6 -7 14 -15 17 -8 3 -17 16
-21 27 -4 12 -13 26 -20 32 -17 13 14 50 69 83 20 13 37 26 37 28 0 10 -18 2
-50 -20z"/>
<path d="M1605 2110 c-105 -6 -154 -13 -195 -29 -30 -11 -71 -21 -90 -21 -53
0 -159 -28 -178 -46 -15 -15 -17 -15 -31 2 -43 52 -104 53 -189 3 -43 -25
-168 -75 -212 -84 -19 -4 -63 -19 -98 -32 -57 -23 -67 -24 -108 -13 -24 7 -47
10 -50 7 -7 -7 2 -46 15 -67 15 -22 24 -5 11 20 -6 12 -9 24 -7 27 9 8 48 -8
42 -17 -7 -11 5 -40 16 -40 5 0 8 9 6 21 -2 18 10 25 88 50 199 64 250 82 260
90 19 18 27 8 10 -11 -10 -11 -24 -20 -31 -20 -21 0 -28 -22 -10 -32 20 -11
21 -38 1 -38 -8 0 -15 -8 -14 -17 0 -11 3 -13 6 -5 6 16 33 16 33 -1 0 -7 -6
-19 -12 -26 -7 -8 -8 -11 -3 -8 16 9 31 -5 43 -40 13 -38 0 -43 -22 -11 -9 12
-18 19 -21 16 -3 -3 4 -17 15 -31 20 -25 20 -25 -9 -46 -30 -21 -61 -28 -61
-13 0 8 -46 35 -62 36 -3 1 -10 5 -15 10 -5 5 -3 6 5 2 6 -4 12 -2 12 3 0 6
-11 11 -24 11 -34 0 -79 55 -71 87 3 12 1 23 -4 23 -5 0 -17 3 -27 7 -17 6
-17 5 -1 -17 9 -14 17 -31 17 -38 0 -17 60 -87 74 -87 6 0 17 -12 24 -27 7
-16 18 -28 24 -28 6 0 6 6 -2 15 -21 25 -4 28 19 4 30 -33 24 -60 -14 -65 -48
-6 -49 -7 -20 -13 25 -6 35 -2 65 26 20 18 39 33 43 33 12 0 8 -29 -6 -37 -7
-4 -23 -23 -36 -40 -20 -30 -24 -32 -44 -19 -12 8 -42 17 -67 20 -25 4 -60 9
-79 12 -20 3 -31 2 -27 -4 3 -5 38 -13 78 -17 78 -7 112 -23 103 -48 -5 -11
-17 -14 -43 -11 -20 2 -62 5 -94 8 -31 2 -69 11 -85 19 -28 15 -28 15 -1 27
26 12 26 12 -3 53 -16 22 -29 50 -29 63 0 43 -18 77 -34 62 -10 -9 -11 -14 -3
-17 30 -10 36 -64 13 -109 -18 -35 -17 -81 1 -109 12 -19 13 -26 3 -38 -8 -9
-8 -15 -2 -15 6 0 12 4 14 9 2 6 28 -6 58 -25 30 -18 60 -34 68 -34 7 0 27 -7
43 -16 17 -8 33 -13 36 -10 6 6 -55 39 -82 43 -10 2 -22 7 -25 11 -3 5 -20 14
-38 21 -56 23 -87 86 -34 72 19 -6 27 -14 26 -30 0 -12 4 -20 10 -18 6 2 10
12 10 21 -3 28 11 18 24 -18 7 -19 20 -40 29 -48 15 -12 15 -10 0 19 -26 50
-23 53 51 52 37 -1 55 -4 40 -6 -16 -2 -28 -9 -28 -14 0 -6 10 -8 23 -4 17 5
19 4 7 -4 -8 -6 -31 -11 -50 -12 -29 0 -31 -2 -15 -9 12 -5 14 -9 6 -9 -8 -1
-12 -4 -9 -7 4 -3 20 2 38 11 17 9 38 14 47 11 10 -4 13 -1 9 12 -6 19 44 43
97 46 31 1 36 13 10 23 -35 12 -43 24 -32 45 11 20 12 20 35 -8 13 -16 23 -24
24 -18 0 5 -5 15 -12 22 -9 9 -8 15 8 27 10 8 14 15 9 15 -6 0 -16 -5 -23 -12
-6 -6 -14 -9 -18 -6 -3 4 7 13 23 21 15 9 41 29 57 46 31 32 51 41 43 19 -2
-7 11 -31 30 -53 19 -22 39 -46 44 -53 9 -11 15 -10 35 3 23 15 24 15 30 -25
5 -31 10 -38 19 -30 11 9 10 17 -2 41 -8 17 -12 33 -9 36 3 3 9 -3 13 -13 17
-45 103 -73 137 -45 22 18 89 -5 131 -45 39 -36 48 -61 16 -44 -11 5 -28 10
-38 10 -10 0 -45 14 -78 30 -33 16 -62 27 -64 24 -8 -7 32 -32 71 -43 46 -14
68 -35 68 -67 0 -48 -47 -26 -79 36 -16 33 -77 65 -85 45 -3 -10 -15 -12 -41
-8 -33 5 -37 4 -33 -13 4 -22 39 -21 76 2 24 16 23 17 38 -34 2 -7 14 -16 27
-21 14 -5 34 -24 46 -43 12 -18 33 -42 48 -53 26 -20 53 -47 114 -114 37 -40
28 -55 -31 -56 -22 0 -40 -3 -40 -6 0 -3 -28 -6 -62 -6 -35 0 -72 -1 -82 -2
-51 -5 -25 43 43 78 20 11 26 10 52 -15 16 -15 29 -23 29 -17 0 5 -9 18 -20
28 -11 10 -20 24 -20 32 0 7 -11 18 -25 23 -14 5 -25 13 -25 18 0 4 -14 16
-30 26 -17 9 -28 21 -25 26 9 14 -40 4 -71 -14 -37 -22 -111 -3 -106 27 2 9
-2 17 -8 17 -35 0 6 -60 45 -66 41 -6 85 -59 85 -103 0 -4 10 -20 21 -35 21
-27 21 -27 -27 -21 -55 6 -64 2 -81 -37 -15 -33 -46 -37 -83 -10 -13 9 -49 31
-79 48 -36 19 -56 36 -55 47 1 9 -2 17 -7 17 -5 0 -9 -5 -9 -10 0 -6 -13 -4
-30 5 -19 10 -27 20 -24 30 4 8 11 12 17 8 6 -3 7 -1 3 5 -4 6 2 20 12 30 13
13 17 25 11 33 -6 10 -10 9 -15 -6 -4 -11 -16 -32 -27 -47 -24 -32 -18 -51 20
-71 116 -61 143 -76 180 -101 50 -33 73 -29 103 20 22 34 23 34 73 28 29 -4
56 -10 61 -15 5 -4 16 -4 25 1 10 5 50 10 91 11 89 3 129 14 166 45 29 26 60
31 66 13 3 -8 24 -5 71 10 65 22 92 38 43 25 -13 -3 -27 -1 -30 5 -4 6 -2 11
3 11 6 0 11 5 11 10 0 6 -4 10 -9 10 -5 0 -31 20 -57 45 -47 43 -48 45 -29 59
11 9 24 16 28 16 5 0 5 5 2 11 -5 7 -13 5 -24 -5 -10 -9 -23 -16 -29 -16 -26
0 -9 -31 40 -73 52 -45 52 -45 18 -66 -19 -11 -43 -18 -55 -15 -13 3 -28 -2
-39 -15 -18 -20 -18 -20 -52 13 -19 18 -34 38 -34 43 0 6 -25 32 -56 58 -45
39 -53 50 -40 57 20 11 66 -18 66 -41 0 -10 18 -27 41 -40 22 -13 43 -29 46
-37 4 -12 8 -11 19 3 15 20 19 67 4 58 -5 -3 -7 -12 -4 -19 10 -25 -12 -25
-49 -1 -19 14 -38 34 -42 45 -3 11 -19 29 -36 40 -20 15 -29 30 -29 50 0 28 0
28 38 15 20 -7 38 -12 40 -10 6 6 -31 59 -58 85 -25 23 -46 60 -34 60 17 0 44
-23 44 -38 0 -15 2 -15 10 -2 16 25 12 49 -7 44 -10 -3 -33 5 -52 16 -32 20
-32 22 -16 40 9 10 27 21 39 23 20 4 19 4 -3 6 -15 1 -41 -15 -74 -44 -48 -44
-52 -46 -106 -43 -47 3 -56 6 -56 21 0 15 9 19 48 22 27 1 51 6 55 10 4 4 -12
4 -35 0 -40 -6 -62 7 -30 18 6 2 9 7 6 11 -4 4 -19 -4 -34 -18 -31 -29 -44
-26 -68 16 -10 17 -20 28 -23 26 -3 -3 5 -22 17 -42 21 -36 18 -42 -20 -37 -7
2 -10 -2 -6 -8 3 -6 3 -11 -2 -11 -17 1 -65 82 -54 93 7 7 -1 20 -25 40 -33
29 -47 77 -23 77 6 0 9 5 7 12 -5 14 55 143 71 152 11 7 43 -33 35 -46 -3 -4
0 -8 5 -8 6 0 11 6 11 14 0 18 -48 76 -63 76 -5 0 -7 -3 -4 -7 4 -3 1 -16 -6
-27 -8 -12 -27 -50 -42 -86 -16 -36 -35 -73 -43 -82 -10 -12 -11 -18 -4 -18 7
0 12 -7 12 -15 0 -28 -17 -15 -36 27 -39 88 -17 152 50 142 30 -4 30 -4 6 7
-24 10 -24 11 -5 19 11 4 29 17 39 29 45 50 97 15 150 -101 21 -46 41 -90 46
-100 10 -17 -5 -28 -39 -28 -22 0 -91 71 -91 94 0 9 -4 15 -9 12 -10 -6 -2
-56 9 -56 4 0 19 -11 34 -25 27 -25 27 -51 -1 -41 -8 3 -11 1 -8 -4 3 -6 2
-10 -4 -10 -6 0 -13 16 -17 35 -3 19 -9 35 -13 35 -3 0 -12 14 -20 31 -7 16
-16 28 -18 25 -3 -3 4 -21 16 -41 23 -40 26 -49 11 -40 -6 4 -2 -8 9 -26 21
-34 21 -34 -2 -47 -21 -13 -21 -13 7 -7 16 3 36 14 45 24 22 25 104 41 180 37
64 -4 64 -4 40 14 -16 13 -27 15 -36 9 -6 -6 -26 -9 -43 -7 -28 3 -34 9 -60
73 -16 39 -34 78 -40 87 -17 29 -12 38 20 38 17 0 30 4 30 9 0 5 14 14 30 20
18 6 30 6 30 0 0 -5 -7 -9 -15 -9 -8 0 -15 -4 -15 -10 0 -15 7 -12 41 12 26
19 31 20 39 8 7 -10 10 -11 10 -2 0 6 7 12 16 12 13 0 14 -3 5 -14 -9 -11 -8
-15 6 -20 10 -4 14 -4 11 0 -11 11 9 41 32 47 11 3 20 2 20 -3 0 -13 -26 -30
-35 -22 -5 4 -5 1 -1 -5 12 -21 30 -15 48 17 21 38 56 51 127 50 31 -1 89 1
129 5 60 5 72 3 72 -10 0 -8 4 -15 10 -15 5 0 7 7 4 15 -5 12 3 15 35 15 47 0
95 -21 105 -45 7 -19 -10 -55 -25 -55 -6 0 -6 8 1 21 7 11 9 23 7 26 -3 2 -8
-5 -12 -16 -3 -11 -18 -30 -32 -41 -26 -21 -48 -27 -39 -11 4 5 -3 7 -14 4
-24 -6 -23 -8 -5 42 21 58 19 73 -6 47 -11 -12 -17 -27 -13 -33 10 -17 -17
-63 -28 -47 -5 8 -6 -3 -2 -24 8 -47 6 -47 -58 2 -64 48 -70 49 -102 7 -29
-38 -34 -56 -11 -37 8 7 15 18 15 25 0 13 21 25 46 25 10 0 11 -6 4 -25 -6
-16 -6 -25 0 -25 6 0 10 6 11 13 0 6 4 3 9 -8 7 -17 9 -17 9 -2 1 23 13 21 39
-6 22 -23 22 -23 0 -43 -13 -11 -36 -26 -53 -33 -20 -9 -25 -15 -15 -19 7 -3
16 1 18 8 3 9 6 9 12 1 4 -8 24 7 54 39 27 29 56 53 65 55 9 2 43 15 75 29 68
28 104 25 66 -6 -28 -23 -22 -31 10 -15 38 19 133 -14 117 -40 -8 -13 -53 -9
-71 6 -18 15 -58 9 -133 -21 -62 -24 -62 -24 -24 -104 33 -69 36 -71 109 -70
41 1 49 -1 37 -10 -18 -14 -19 -24 -2 -24 22 0 85 130 81 171 -2 32 2 38 38
62 22 14 54 29 72 33 17 3 34 11 37 17 4 5 15 -5 25 -24 9 -19 19 -29 21 -22
5 15 -26 63 -41 63 -6 0 -20 -6 -31 -13 -31 -22 -65 -27 -58 -11 3 8 16 17 29
20 20 5 24 13 24 43 0 20 2 47 5 61 3 14 0 11 -7 -8 -9 -27 -15 -32 -32 -27
-127 37 -164 42 -197 25 -10 -6 -19 -7 -19 -2 0 30 -106 41 -295 32z m459 -54
c75 -18 82 -36 27 -70 -22 -14 -42 -30 -45 -35 -9 -13 -38 -2 -33 13 3 7 -9
12 -30 13 -33 2 -73 26 -73 45 0 13 27 9 40 -7 7 -8 17 -15 23 -15 6 0 0 11
-13 25 -13 14 -19 25 -14 25 5 0 2 4 -6 10 -16 10 76 7 124 -4z m-1100 -41
c-10 -8 -26 -14 -34 -14 -9 0 -4 6 10 14 33 19 49 19 24 0z m1106 -69 c0 -3
-5 -8 -12 -12 -7 -4 -8 -3 -4 4 7 12 16 16 16 8z m-94 -58 c30 -27 35 -29 25
-10 -7 14 -8 22 -1 22 5 0 10 -3 11 -7 7 -51 4 -84 -12 -115 -19 -38 -19 -38
-85 -38 -65 0 -65 0 -94 63 -29 62 -29 62 13 81 23 11 56 23 72 27 17 4 31 7
32 8 1 1 19 -14 39 -31z m-1024 -136 c-7 -2 -12 -9 -12 -15 0 -19 -52 -66 -66
-60 -10 3 -1 18 29 47 23 23 46 40 52 37 5 -2 4 -6 -3 -9z m-408 -144 c-3 -5
-12 -4 -22 4 -13 11 -15 10 -9 -4 4 -10 2 -18 -4 -18 -7 0 -9 9 -5 23 3 12 6
29 6 37 1 11 6 8 20 -9 11 -12 17 -27 14 -33z m821 -9 c2 -23 2 -23 -36 -3
-29 15 -30 16 -14 34 20 22 48 5 50 -31z m-105 -8 c-8 -5 -33 -5 -55 -1 -40 8
-40 8 15 9 35 0 50 -3 40 -8z m-430 -20 c0 -5 -11 -16 -25 -25 -25 -16 -25
-16 -13 9 11 24 38 35 38 16z m458 -91 c7 -11 9 -20 4 -20 -10 0 -32 22 -32
32 0 15 15 8 28 -12z m-25 -140 c40 -23 70 -71 49 -78 -7 -2 -26 -15 -41 -28
-40 -33 -43 -32 -69 37 -23 58 -23 61 -5 74 24 19 26 18 66 -5z m414 -97 c-4
-3 -10 -3 -14 0 -3 4 0 7 7 7 7 0 10 -3 7 -7z m-30 -10 c-4 -3 -10 -3 -14 0
-3 4 0 7 7 7 7 0 10 -3 7 -7z"/>
<path d="M1987 2049 c7 -7 15 -10 18 -7 3 3 -2 9 -12 12 -14 6 -15 5 -6 -5z"/>
<path d="M1546 2046 c-72 -53 -81 -62 -56 -69 15 -4 24 2 35 24 9 16 36 39 63
53 35 18 41 24 23 23 -13 -1 -42 -15 -65 -31z"/>
<path d="M2990 2070 c0 -7 3 -10 7 -7 3 4 3 10 0 14 -4 3 -7 0 -7 -7z"/>
<path d="M1663 2063 c4 -3 10 -3 14 0 3 4 0 7 -7 7 -7 0 -10 -3 -7 -7z"/>
<path d="M1725 2060 c3 -5 8 -10 11 -10 3 0 2 5 -1 10 -3 6 -8 10 -11 10 -3 0
-2 -4 1 -10z"/>
<path d="M1692 2053 c-14 -6 -36 -43 -25 -43 4 0 16 12 26 25 10 14 17 25 15
24 -2 0 -9 -3 -16 -6z"/>
<path d="M3059 2055 c-4 -3 -21 -7 -39 -10 -18 -2 -35 -7 -39 -11 -3 -4 13 -4
37 0 24 3 41 3 39 -2 -6 -8 72 -6 81 3 3 3 -11 5 -30 5 -20 0 -38 5 -40 11 -2
5 -6 8 -9 4z"/>
<path d="M1458 2037 c8 -10 4 -16 -19 -26 -16 -7 -29 -17 -29 -23 0 -6 8 -4
18 4 9 9 27 19 40 23 23 7 15 35 -10 35 -7 0 -7 -5 0 -13z"/>
<path d="M3146 2015 c-30 -39 -80 -69 -102 -61 -7 3 -16 1 -19 -4 -9 -15 42
-12 73 4 29 15 99 96 84 96 -5 0 -22 -16 -36 -35z"/>
<path d="M1731 2024 c0 -11 3 -14 6 -6 3 7 2 16 -1 19 -3 4 -6 -2 -5 -13z"/>
<path d="M2180 2031 c0 -4 27 -20 60 -36 33 -16 60 -31 60 -35 0 -16 -34 -50
-50 -50 -10 0 -22 -5 -25 -11 -4 -6 -17 -14 -29 -19 -21 -9 -21 -9 0 -9 33 -1
35 -24 8 -64 -13 -20 -24 -40 -24 -45 0 -5 -13 -26 -30 -47 -29 -37 -29 -37
-41 -11 -7 14 -18 26 -24 26 -7 0 -20 9 -30 20 -17 19 -17 21 9 60 16 24 31
38 38 34 7 -4 8 -3 4 5 -5 7 7 28 28 51 52 58 44 62 -12 7 -36 -36 -51 -44
-59 -36 -9 9 -11 7 -7 -7 3 -11 -12 -55 -32 -99 -21 -44 -36 -84 -35 -89 2
-10 -38 -56 -49 -56 -4 0 -25 16 -46 35 -20 19 -39 33 -41 31 -8 -8 11 -36 29
-42 17 -5 15 -9 -21 -37 -46 -35 -47 -52 0 -18 16 12 35 21 40 19 6 -2 -14
-20 -43 -41 -66 -45 -113 -93 -100 -101 6 -3 37 21 69 53 32 33 74 68 94 78
47 24 93 64 108 91 17 32 13 37 -9 11 -20 -24 -20 -24 -3 14 11 25 19 33 25
25 4 -7 8 -9 8 -4 0 18 58 -56 65 -82 9 -38 67 -132 81 -132 7 0 33 23 58 52
36 42 46 48 52 35 9 -24 24 -21 24 4 0 14 22 43 58 77 61 58 53 60 -15 3 -24
-19 -46 -43 -49 -53 -3 -10 -10 -15 -16 -12 -10 6 -26 0 -101 -36 -38 -19 -38
-19 -57 13 -25 40 -25 66 -1 95 23 27 38 28 64 5 19 -17 20 -17 14 0 -7 20 3
22 22 5 10 -11 12 -10 9 2 -3 17 107 130 157 161 17 10 42 19 58 19 15 0 27 5
27 11 0 7 10 9 27 4 23 -5 25 -4 14 9 -8 9 -20 16 -27 16 -8 0 -14 4 -14 9 0
16 80 -9 168 -53 48 -24 111 -51 139 -60 29 -10 63 -26 75 -36 23 -19 23 -19
-12 -20 -19 -1 -28 -4 -20 -7 8 -3 22 -12 31 -20 14 -12 17 -11 22 7 8 31 30
24 103 -35 38 -30 93 -69 121 -86 114 -67 225 -199 264 -311 12 -35 18 -45 18
-28 1 87 -154 287 -266 344 -17 9 -60 40 -95 69 -35 30 -72 59 -83 66 -15 9
-16 11 -2 7 9 -3 17 -2 17 3 0 4 -26 14 -57 21 -32 7 -62 17 -68 20 -5 4 -21
11 -35 15 -14 3 -78 32 -143 62 -105 50 -126 56 -199 60 -48 3 -91 11 -104 20
-14 8 -32 12 -44 8 -13 -4 -44 4 -85 24 -36 16 -65 27 -65 22z m190 -66 c7 -8
25 -15 41 -15 36 0 79 -17 79 -31 0 -6 -6 -9 -14 -6 -8 3 -16 3 -18 -1 -5 -11
-88 -51 -88 -42 0 4 13 19 30 33 26 22 27 25 10 30 -15 4 -23 -7 -43 -52 -13
-31 -32 -62 -41 -70 -19 -16 -46 -8 -46 14 0 8 -4 15 -10 15 -5 0 -10 -5 -10
-12 0 -6 -2 -9 -5 -6 -3 3 -2 15 3 28 7 19 10 20 15 7 3 -9 16 -21 29 -28 21
-11 20 -10 -5 20 -27 33 -27 33 -6 70 36 59 58 72 79 46z m-120 -86 c-7 -11
-14 -18 -17 -15 -3 3 0 12 7 21 18 21 23 19 10 -6z m3 -78 c4 -1 12 -1 17 -1
6 0 10 -4 10 -10 0 -5 -5 -10 -12 -10 -6 0 -19 -7 -27 -14 -29 -26 -48 -3 -27
29 11 16 21 23 25 17 3 -5 9 -11 14 -11z m27 -36 c0 -2 -10 -10 -22 -16 -21
-11 -22 -11 -9 4 13 16 31 23 31 12z m-55 -36 c-7 -10 -35 -1 -35 11 0 5 9 6
20 3 11 -3 17 -9 15 -14z m7 -161 c-25 -25 -34 -30 -44 -20 -13 13 -14 12 32
34 48 23 49 22 12 -14z"/>
<path d="M3207 2033 c-12 -19 -57 -157 -52 -161 2 -3 9 8 15 24 6 16 20 53 32
82 17 45 21 81 5 55z"/>
<path d="M3245 2018 c-30 -87 -33 -103 -24 -121 13 -22 2 -38 -11 -17 -8 13
-10 13 -10 -1 0 -9 6 -19 13 -22 20 -8 41 9 34 27 -4 9 -2 16 3 16 6 0 9 10 9
23 -1 16 -2 18 -6 5 -5 -19 -23 -25 -23 -8 0 5 4 19 9 32 5 13 12 31 15 41 5
15 9 16 26 7 21 -11 28 -40 10 -40 -5 0 -10 7 -10 16 0 8 -5 12 -11 9 -17 -11
-5 -28 28 -39 32 -11 32 -11 11 -58 -11 -27 -24 -48 -29 -48 -12 0 -11 7 7 41
8 17 14 35 12 41 -2 6 -14 -8 -25 -33 -21 -43 -21 -44 -2 -53 24 -11 45 13 55
62 3 17 10 32 15 32 12 0 0 -60 -17 -87 -16 -26 -17 -33 -5 -33 5 0 13 9 16
20 3 11 12 20 19 20 10 0 13 13 11 43 -1 23 1 52 6 65 5 13 5 22 -1 22 -6 0
-10 -6 -10 -14 0 -8 -5 -18 -11 -22 -8 -5 -10 1 -7 20 3 14 1 29 -3 32 -5 3
-9 -4 -9 -15 0 -11 -4 -23 -10 -26 -6 -4 -10 6 -10 23 0 19 -6 32 -17 36 -10
3 -24 9 -30 12 -7 3 -15 0 -18 -8z"/>
<path d="M1003 2013 c4 -3 10 -3 14 0 3 4 0 7 -7 7 -7 0 -10 -3 -7 -7z"/>
<path d="M1252 1978 c-8 -10 -1 -13 31 -15 41 -1 41 -1 17 12 -31 18 -35 18
-48 3z"/>
<path d="M1350 1980 c0 -5 5 -10 11 -10 5 0 7 5 4 10 -3 6 -8 10 -11 10 -2 0
-4 -4 -4 -10z"/>
<path d="M3040 1979 c0 -5 5 -7 10 -4 6 3 10 8 10 11 0 2 -4 4 -10 4 -5 0 -10
-5 -10 -11z"/>
<path d="M1170 1966 c0 -3 14 -11 30 -20 17 -8 30 -11 30 -7 0 4 -11 13 -25
19 -28 13 -35 14 -35 8z"/>
<path d="M1303 1933 c-29 -22 -35 -24 -50 -12 -14 12 -15 12 -10 -1 4 -8 10
-23 13 -33 4 -12 13 -16 26 -12 13 5 27 -2 46 -23 15 -16 38 -35 52 -42 18 -9
13 -1 -17 30 -24 23 -43 47 -43 52 0 5 -5 6 -11 2 -8 -4 -7 0 1 15 6 12 18 25
26 28 14 5 20 23 7 23 -5 -1 -23 -13 -40 -27z"/>
<path d="M1381 1945 c9 -11 23 -41 33 -67 17 -46 92 -138 114 -138 6 0 -11 22
-37 49 -27 28 -53 64 -59 81 -11 29 -10 31 26 45 45 20 66 16 70 -12 2 -17 -6
-27 -35 -42 -21 -11 -33 -20 -28 -21 6 0 23 8 40 18 29 18 29 18 67 -32 21
-28 38 -53 38 -56 0 -3 14 -13 30 -22 30 -17 30 -17 13 -53 -14 -30 -22 -35
-52 -37 -55 -3 -63 -2 -105 5 -29 5 -36 3 -28 -5 7 -7 46 -12 90 -12 81 -1 88
-4 144 -55 23 -20 31 -23 50 -13 23 11 23 11 -2 11 -14 1 -42 16 -63 34 -39
32 -39 32 -22 68 14 29 22 35 41 31 30 -6 41 -21 23 -33 -11 -7 -11 -9 2 -9 8
0 35 -14 60 -31 44 -32 44 -32 -3 14 -27 24 -48 50 -48 56 0 6 -12 11 -27 11
-26 0 -26 1 -10 18 12 11 32 17 64 16 44 -1 45 -1 17 11 -32 13 -74 4 -94 -20
-17 -20 -46 1 -102 73 -44 55 -51 82 -23 82 8 0 17 5 21 11 4 8 -1 9 -15 4
-12 -4 -27 -2 -34 3 -14 11 -78 21 -72 11 13 -19 -52 -16 -75 4 -22 19 -23 19
-9 2z"/>
<path d="M270 1895 c47 -20 91 -39 98 -42 6 -3 12 -2 12 1 0 11 -121 64 -160
71 -21 4 -1 -8 50 -30z"/>
<path d="M783 1923 c4 -3 10 -3 14 0 3 4 0 7 -7 7 -7 0 -10 -3 -7 -7z"/>
<path d="M1616 1921 c-4 -5 -2 -12 3 -15 5 -4 12 -2 15 3 4 5 2 12 -3 15 -5 4
-12 2 -15 -3z"/>
<path d="M2901 1925 c9 -8 153 -64 156 -61 2 2 -30 18 -71 35 -70 29 -95 37
-85 26z"/>
<path d="M1010 1910 c0 -7 3 -10 7 -7 3 4 3 10 0 14 -4 3 -7 0 -7 -7z"/>
<path d="M1663 1913 c4 -3 10 -3 14 0 3 4 0 7 -7 7 -7 0 -10 -3 -7 -7z"/>
<path d="M726 1885 c-9 -14 -12 -25 -7 -25 5 0 36 -20 69 -44 50 -37 61 -42
66 -29 4 9 2 21 -4 27 -7 7 -10 4 -11 -9 0 -11 -3 -14 -6 -8 -2 7 -22 22 -43
34 -38 21 -57 46 -45 58 3 3 9 1 13 -4 4 -6 20 -10 35 -10 25 -1 27 1 12 11
-9 7 -24 10 -33 7 -10 -4 -13 -2 -8 5 15 24 -22 11 -38 -13z"/>
<path d="M150 1888 c14 -7 31 -19 39 -26 7 -7 20 -11 29 -7 8 3 22 -1 31 -8 9
-8 42 -24 74 -37 41 -16 57 -28 57 -41 0 -11 -7 -19 -15 -19 -8 0 -19 -9 -25
-21 -6 -11 -19 -19 -28 -18 -25 3 -72 -12 -72 -22 0 -5 14 -3 30 6 26 14 30
14 30 1 0 -22 -89 -164 -107 -170 -8 -3 -11 -11 -8 -17 4 -6 -4 -23 -18 -37
-14 -15 -28 -38 -32 -52 -4 -14 -13 -32 -20 -40 -7 -8 -18 -32 -26 -52 -7 -20
-16 -35 -21 -32 -4 3 -8 -3 -9 -13 0 -10 -2 -25 -4 -33 -22 -107 -11 -118 20
-20 21 69 89 214 111 237 9 10 36 53 61 96 25 43 48 76 50 73 3 -3 -4 -18 -16
-34 -38 -54 -22 -48 37 13 32 33 67 67 78 75 11 8 15 12 10 8 -22 -17 -30 -6
-9 11 23 19 21 34 -3 24 -8 -3 -14 -11 -14 -19 0 -8 -7 -14 -15 -14 -9 0 -19
-8 -22 -17 -10 -25 -31 -45 -37 -35 -6 11 61 84 93 101 19 11 25 10 37 -6 12
-17 13 -16 14 9 0 18 7 29 20 33 11 3 20 11 20 17 0 6 -8 7 -17 3 -47 -18 -71
-15 -136 14 -38 17 -81 40 -97 51 -15 10 -47 22 -71 25 -40 5 -42 4 -19 -7z
m65 -18 c3 -5 2 -10 -4 -10 -5 0 -13 5 -16 10 -3 6 -2 10 4 10 5 0 13 -4 16
-10z m162 -187 c-4 -3 -10 -3 -14 0 -3 4 0 7 7 7 7 0 10 -3 7 -7z"/>
<path d="M1216 1874 c-9 -24 -7 -34 8 -34 8 0 16 -7 20 -15 3 -8 11 -15 17
-15 7 0 6 8 -4 23 -8 12 -21 21 -27 19 -7 -2 -9 5 -5 18 7 24 0 27 -9 4z"/>
<path d="M2567 1867 c4 -18 -4 -31 -28 -51 -25 -21 -29 -30 -19 -36 11 -7 11
-11 1 -24 -11 -13 -10 -18 3 -31 14 -14 16 -14 22 10 3 14 10 25 16 25 21 0
48 -22 48 -39 0 -10 7 -24 15 -31 21 -17 19 -30 -6 -30 -11 0 -17 -5 -14 -10
4 -6 11 -8 16 -5 5 4 9 2 9 -2 0 -5 -9 -14 -20 -21 -19 -11 -20 -10 -20 22 0
18 -7 39 -16 47 -16 13 -15 3 2 -62 3 -9 -7 -31 -22 -48 -15 -18 -24 -34 -21
-38 4 -3 18 9 33 26 41 49 77 65 98 42 20 -22 20 -31 2 -31 -8 0 -18 -5 -21
-10 -4 -7 2 -9 17 -5 19 5 33 -2 63 -31 22 -20 53 -42 69 -49 30 -13 30 -13
-5 -34 -18 -11 -39 -21 -45 -21 -6 0 -17 -7 -24 -15 -6 -8 -36 -26 -66 -39
-48 -22 -71 -46 -44 -46 6 0 10 4 10 9 0 5 15 17 33 26 29 14 27 11 -15 -28
-53 -49 -55 -54 -30 -74 26 -21 -47 -11 -81 12 -16 10 -38 15 -52 13 -14 -3
-28 -1 -31 3 -3 5 -10 9 -16 9 -7 0 -6 -6 2 -15 7 -8 26 -15 42 -15 26 0 88
-24 88 -35 0 -2 -12 -11 -26 -18 -40 -21 -143 22 -201 83 -50 52 -59 42 -10
-11 19 -20 62 -49 96 -65 56 -26 61 -31 56 -54 -6 -25 -6 -25 17 2 26 31 112
72 134 64 8 -3 14 -16 15 -28 0 -23 0 -23 10 2 10 24 11 24 25 6 12 -17 12
-23 1 -40 -18 -27 -37 -32 -37 -9 -1 16 -2 16 -12 -2 -6 -11 -31 -42 -57 -69
-26 -27 -37 -44 -24 -37 17 8 22 8 27 -4 3 -8 10 -15 16 -15 6 0 8 5 5 10 -3
6 -1 10 4 10 6 0 11 -6 11 -14 0 -8 7 -22 16 -31 16 -15 15 -18 -4 -37 -18
-19 -43 -20 -81 -5 -2 1 -6 -3 -8 -9 -2 -7 18 -11 54 -11 58 -1 58 -1 56 -39
-1 -22 -11 -61 -22 -87 -20 -47 -22 -48 -58 -45 -30 2 -37 7 -35 21 2 9 -1 16
-5 15 -4 -2 -40 23 -80 54 -69 55 -123 137 -123 185 0 8 -4 12 -10 8 -5 -3 -7
-13 -3 -23 16 -48 49 -110 70 -133 15 -16 21 -29 14 -33 -5 -4 -14 2 -20 11
-16 29 -21 11 -6 -23 7 -17 27 -38 44 -47 41 -20 40 -7 -1 16 -29 17 -30 19
-15 34 15 16 18 15 41 -7 14 -12 23 -28 19 -33 -4 -6 0 -8 9 -4 9 3 25 -4 37
-17 22 -23 28 -42 11 -31 -6 4 -10 -5 -10 -19 0 -48 -76 -24 -109 35 -29 51
-39 44 -12 -9 15 -29 31 -44 61 -56 49 -19 49 -23 -1 -63 -62 -50 -103 -20
-62 45 17 27 17 27 -7 7 -20 -17 -22 -18 -17 -3 3 10 -3 43 -13 74 -24 70 -25
80 -4 63 15 -12 16 -11 9 10 -17 54 -36 92 -63 123 -15 18 -40 52 -55 76 -15
23 -30 42 -33 42 -8 0 32 -65 76 -125 44 -59 50 -73 39 -101 -5 -14 1 -44 16
-88 13 -36 19 -66 14 -66 -6 0 -9 -6 -8 -12 1 -7 -4 -27 -10 -45 -13 -32 -13
-32 -42 1 -37 43 -37 67 1 94 17 13 30 27 30 33 0 28 -69 -47 -70 -76 -1 -30
-1 -30 -40 15 -22 25 -40 40 -40 35 0 -6 18 -31 40 -55 37 -40 45 -59 63 -139
4 -14 -2 -40 -14 -64 -16 -31 -17 -39 -6 -34 8 3 19 1 24 -4 7 -7 23 7 47 40
40 56 58 62 94 28 25 -22 25 -22 7 6 -9 15 -22 27 -28 27 -7 0 -7 4 1 12 10
10 14 10 20 1 4 -7 28 -23 52 -36 29 -16 44 -30 42 -40 -2 -11 2 -15 12 -11
12 5 13 11 5 25 -5 10 -7 19 -3 19 3 0 1 6 -5 13 -9 11 -3 14 30 15 23 1 64 9
92 17 64 19 71 19 63 -1 -5 -12 -2 -15 10 -10 14 5 16 1 10 -26 -9 -44 -63
-97 -104 -102 -31 -3 -105 -46 -96 -55 2 -3 17 4 32 16 15 11 45 23 66 26 80
13 153 121 111 164 -14 13 -15 18 -4 22 7 2 15 -1 17 -7 5 -17 24 -14 52 8 33
26 92 28 84 3 -4 -12 1 -9 15 7 11 14 21 19 21 12 0 -7 4 -11 10 -7 5 3 17 1
27 -5 10 -5 44 -19 76 -31 38 -14 57 -26 57 -37 0 -14 2 -15 10 -2 6 9 5 17
-2 21 -7 4 -6 9 3 12 11 5 11 6 -1 6 -34 -3 -43 4 -15 11 29 7 29 8 -10 10
-75 5 -89 7 -93 19 -2 6 -8 8 -14 5 -27 -17 59 120 107 170 41 42 61 56 82 56
39 -1 108 -34 138 -66 14 -15 25 -23 25 -17 0 30 -101 93 -149 93 -18 0 -35 7
-41 18 -11 16 -11 16 -6 0 3 -10 0 -18 -7 -18 -12 -1 -67 -67 -116 -139 -14
-20 -30 -40 -38 -44 -7 -4 -13 -17 -13 -27 0 -11 -5 -20 -11 -20 -5 0 -7 5 -4
10 3 5 2 10 -4 10 -5 0 -13 -5 -16 -10 -4 -6 -26 -10 -49 -9 -26 2 -51 -4 -69
-16 -24 -16 -31 -16 -53 -4 -19 10 -27 10 -33 1 -22 -36 -192 -62 -257 -39
-41 15 -68 9 -86 -17 -5 -7 -8 -6 -8 4 0 8 -16 -11 -36 -43 -45 -72 -70 -82
-39 -15 15 30 14 38 -3 90 -19 56 -19 57 0 47 11 -6 19 -20 18 -32 -4 -49 2
-50 27 -2 26 50 26 50 41 17 15 -30 42 -44 42 -21 0 6 5 9 11 7 6 -2 33 18 61
45 56 56 69 59 157 28 70 -24 71 -24 71 -11 0 6 -5 10 -12 10 -24 0 -177 53
-173 60 7 12 98 0 135 -18 35 -18 35 -18 124 25 49 24 100 43 113 43 14 0 21
4 18 10 -13 20 7 9 43 -24 20 -19 38 -33 41 -30 7 7 -61 74 -75 74 -6 0 -18 7
-25 16 -16 19 14 48 43 41 25 -7 29 39 7 67 -30 38 -24 65 17 82 20 8 34 18
31 20 -3 3 -15 0 -27 -6 -12 -6 -39 -10 -61 -7 -45 5 -63 -9 -24 -19 15 -4 25
-13 25 -24 0 -9 9 -29 21 -44 20 -26 20 -28 4 -46 -10 -11 -27 -20 -37 -20
-11 0 -16 -4 -13 -10 9 -14 5 -13 -43 10 -72 35 -97 43 -84 27 7 -8 31 -20 54
-27 36 -11 88 -49 88 -63 0 -3 -17 -12 -39 -20 -21 -9 -68 -30 -103 -46 -69
-33 -125 -29 -122 9 2 32 5 36 34 48 27 12 34 11 65 -8 19 -12 35 -17 35 -11
0 6 -5 11 -11 11 -6 0 -8 7 -5 16 5 12 2 15 -10 10 -8 -3 -28 1 -45 9 -26 14
-29 14 -29 0 0 -8 -5 -15 -11 -15 -5 0 -7 5 -3 12 14 22 22 93 13 109 -14 26
77 37 121 14 21 -11 36 -13 42 -7 13 13 -6 48 -32 62 -41 22 -25 50 28 50 29
1 66 10 96 25 48 23 79 24 70 1 -2 -6 4 -21 14 -31 10 -11 21 -29 25 -39 4
-10 10 -16 13 -13 3 3 1 14 -4 24 -15 29 -3 43 36 44 37 1 37 1 -8 11 -89 19
-147 86 -116 133 21 32 41 32 72 -2 13 -14 27 -24 30 -21 3 3 -12 23 -32 43
-33 34 -37 43 -35 82 1 29 -2 43 -8 38 -6 -3 -11 -15 -11 -25 0 -18 -2 -18
-27 -5 -16 8 -53 18 -83 22 -55 9 -55 9 -20 31 19 12 49 22 65 23 17 0 24 3
17 6 -39 16 -88 -10 -158 -83 -71 -75 -98 -88 -134 -64 -40 28 226 204 300
199 47 -2 70 1 70 11 0 5 -12 8 -27 5 -46 -7 -129 -13 -110 -8 27 7 1 33 -32
32 -22 0 -23 -1 -7 -8 13 -5 16 -10 9 -14 -6 -4 -18 -1 -25 7 -8 7 -23 16 -35
20 -51 16 -48 36 7 36 44 0 56 -4 82 -30 36 -37 52 -31 17 6 -20 21 -21 27 -9
34 20 13 53 -25 45 -51 -7 -21 6 -24 35 -9 13 7 29 5 54 -5 32 -13 36 -20 37
-53 3 -78 5 -92 17 -104 17 -17 15 -48 -2 -48 -8 0 -18 -5 -22 -11 -7 -12 23
-9 58 6 13 5 24 -4 47 -40 17 -26 44 -59 60 -74 44 -40 22 -59 -28 -25 -19 13
-41 24 -47 24 -6 0 -17 7 -24 15 -7 8 -17 15 -22 15 -20 0 5 -21 62 -51 33
-17 60 -35 60 -38 0 -12 -34 -56 -58 -75 -14 -11 -31 -35 -39 -55 -15 -35 -15
-35 -31 -8 -9 15 -20 27 -25 27 -9 0 23 -61 38 -72 6 -4 -17 -8 -50 -8 -55 0
-58 -1 -39 -15 16 -11 29 -12 55 -5 19 6 35 10 37 10 64 0 74 2 105 30 19 17
39 30 44 30 6 0 18 9 28 20 9 10 20 18 24 17 3 -1 18 7 34 17 26 18 27 20 12
42 -8 13 -11 24 -5 24 16 0 12 123 -5 146 -8 10 -14 26 -15 34 0 13 1 13 10 0
5 -8 10 -12 10 -7 0 4 -11 25 -26 46 -17 27 -23 46 -19 63 4 16 1 31 -9 41 -9
8 -16 22 -16 29 0 8 -7 23 -16 34 -15 19 -16 19 -9 -1 4 -11 10 -30 12 -42 3
-13 9 -23 14 -23 5 0 9 -12 9 -27 0 -41 23 -143 32 -143 4 0 8 -10 8 -22 -1
-21 -2 -21 -13 -6 -8 10 -18 13 -26 9 -7 -4 -23 -6 -37 -3 -23 4 -24 3 -13
-21 7 -15 16 -24 21 -21 4 3 6 10 3 15 -4 5 3 9 14 9 11 0 22 -4 26 -10 3 -5
13 -6 23 -3 14 5 15 4 4 -8 -10 -11 -16 -11 -32 -1 -16 10 -20 10 -20 -2 0
-25 -25 -25 -47 0 -12 13 -18 24 -15 24 4 0 2 4 -4 8 -6 4 -28 28 -48 54 -35
46 -35 48 -15 59 11 6 18 13 16 16 -3 2 -17 -3 -31 -12 -25 -17 -25 -17 -36
27 -6 24 -15 51 -20 60 -6 10 -10 30 -10 46 0 15 -6 34 -12 41 -11 10 -10 11
5 6 9 -4 17 -12 17 -18 0 -6 2 -8 5 -5 14 14 -9 39 -30 34 -28 -7 -87 3 -80
14 3 4 -3 29 -12 55 -15 46 -16 47 -32 28 -29 -37 -56 -45 -76 -23 -10 11 -24
20 -32 20 -8 0 -11 4 -8 10 3 5 0 7 -9 4 -9 -3 -23 6 -37 25 -29 39 -43 40
-22 2 10 -16 32 -37 50 -47 37 -19 39 -37 5 -42 -16 -2 -22 2 -23 15 0 10 -3
13 -6 6 -8 -22 -37 -13 -62 18 -26 33 -21 50 9 31 11 -7 20 -8 20 -4 0 11 -30
37 -52 45 -10 3 -24 22 -32 41 -10 24 -24 38 -50 47 -37 13 -45 24 -23 32 6 2
22 -5 34 -16 13 -11 26 -18 29 -15 3 4 -5 14 -19 23 -22 14 -24 21 -20 55 3
24 1 40 -4 40 -6 0 -8 -11 -6 -23z m349 -256 c-4 -5 -1 -22 4 -37 9 -23 8 -25
-3 -15 -8 6 -13 21 -12 34 3 26 3 27 11 27 3 0 3 -4 0 -9z m-99 -38 c-4 -3 -7
0 -7 7 0 7 3 10 7 7 3 -4 3 -10 0 -14z m83 -238 c25 -15 25 -15 3 -21 -13 -3
-23 -10 -23 -15 0 -15 -73 -79 -90 -79 -17 0 -31 -20 -29 -43 0 -7 4 -3 9 8 5
11 9 14 9 7 1 -7 15 -33 31 -58 31 -44 31 -44 4 -44 -32 0 -64 26 -64 52 0 10
-4 18 -9 18 -20 0 -23 41 -4 62 18 21 18 21 -2 14 -11 -4 -16 -4 -13 0 4 4 3
15 -2 25 -8 14 -2 24 32 53 46 40 101 48 148 21z m51 -29 c21 13 7 -39 -18
-64 -23 -23 -27 -24 -32 -9 -6 16 -7 16 -18 -1 -9 -15 -7 -23 9 -43 19 -24 19
-24 13 1 -5 23 -5 23 6 5 6 -11 18 -27 26 -37 13 -15 10 -19 -32 -43 -25 -15
-47 -26 -49 -24 -39 52 -76 126 -57 115 21 -14 74 21 103 69 17 27 33 44 35
37 3 -6 9 -10 14 -6z m-256 -56 c-30 -13 -65 -13 -45 0 8 5 26 9 40 9 23 0 23
-1 5 -9z m15 -24 c0 -3 -4 -8 -10 -11 -5 -3 -10 -1 -10 4 0 6 5 11 10 11 6 0
10 -2 10 -4z m20 -91 c13 -27 20 -58 18 -74 -3 -23 1 -30 23 -38 15 -6 32 -20
39 -33 11 -20 10 -21 -12 -9 -13 7 -52 16 -87 20 -80 8 -114 43 -78 81 52 55
34 50 -31 -10 -8 -7 -17 -10 -20 -7 -9 8 38 53 74 70 19 9 34 22 34 30 0 29
18 14 40 -30z m576 -4 c-2 -20 0 -43 5 -52 5 -10 2 -24 -9 -40 -16 -23 -16
-23 -23 1 -3 14 -1 39 6 55 10 24 9 33 -1 43 -18 16 -29 15 -15 -2 13 -16 2
-55 -21 -74 -8 -6 -23 -29 -32 -50 -19 -42 -77 -87 -101 -78 -23 8 -17 57 10
91 14 17 25 25 25 18 0 -6 -4 -15 -10 -18 -14 -9 -32 -45 -22 -45 4 0 24 28
44 63 47 82 86 122 121 124 26 1 27 -1 23 -36z m-288 -39 c6 -18 -15 -14 -22
4 -4 10 -1 14 6 12 6 -2 14 -10 16 -16z m232 -76 c-23 -21 -23 -21 -4 12 10
18 20 28 23 21 2 -6 -7 -21 -19 -33z m-770 -446 c24 -15 7 -19 -20 -5 -15 8
-19 14 -10 14 8 1 22 -3 30 -9z"/>
<path d="M2774 1264 c-18 -14 -18 -15 4 -4 12 6 22 13 22 15 0 8 -5 6 -26 -11z"/>
<path d="M675 1870 c-3 -5 1 -10 10 -10 9 0 13 5 10 10 -3 6 -8 10 -10 10 -2
0 -7 -4 -10 -10z"/>
<path d="M1380 1860 c6 -11 12 -20 14 -20 2 0 2 9 -1 20 -3 11 -9 20 -15 20
-5 0 -4 -9 2 -20z"/>
<path d="M2140 1860 c0 -7 3 -10 7 -7 3 4 3 10 0 14 -4 3 -7 0 -7 -7z"/>
<path d="M3368 1845 c-19 -25 -23 -45 -10 -45 7 0 34 61 29 66 -1 1 -10 -8
-19 -21z"/>
<path d="M3085 1848 c21 -15 96 -40 103 -34 1 2 -16 11 -40 19 -24 8 -52 18
-63 22 -20 7 -20 7 0 -7z"/>
<path d="M2530 1839 c0 -5 5 -7 10 -4 6 3 10 8 10 11 0 2 -4 4 -10 4 -5 0 -10
-5 -10 -11z"/>
<path d="M3018 1823 c-2 -13 12 -25 55 -45 70 -33 62 -32 64 -10 1 14 -40 41
-108 70 -4 2 -9 -5 -11 -15z m78 -34 c8 -14 -10 -11 -32 6 -18 13 -18 14 4 8
12 -3 25 -9 28 -14z"/>
<path d="M1620 1819 c0 -5 5 -7 10 -4 6 3 10 8 10 11 0 2 -4 4 -10 4 -5 0 -10
-5 -10 -11z"/>
<path d="M2160 1820 c0 -7 3 -10 7 -7 3 4 3 10 0 14 -4 3 -7 0 -7 -7z"/>
<path d="M2774 1805 c36 -19 47 -19 22 0 -11 8 -27 15 -35 15 -9 0 -3 -7 13
-15z"/>
<path d="M3395 1800 c-3 -5 -1 -10 4 -10 6 0 11 5 11 10 0 6 -2 10 -4 10 -3 0
-8 -4 -11 -10z"/>
<path d="M1370 1787 c28 -16 80 -30 80 -22 0 7 -41 23 -78 30 -27 6 -27 6 -2
-8z"/>
<path d="M3263 1773 c4 -3 10 -3 14 0 3 4 0 7 -7 7 -7 0 -10 -3 -7 -7z"/>
<path d="M3167 1764 c-15 -16 -4 -25 83 -66 90 -44 90 -44 90 -18 0 23 -9 29
-72 54 -40 16 -78 30 -84 32 -5 3 -13 1 -17 -2z m23 -14 c0 -5 -2 -10 -4 -10
-3 0 -8 5 -11 10 -3 6 -1 10 4 10 6 0 11 -4 11 -10z m79 -31 c28 -12 51 -26
51 -31 0 -5 -7 -5 -17 0 -10 5 -38 18 -63 30 -58 28 -38 28 29 1z"/>
<path d="M3290 1766 c0 -2 7 -7 16 -10 8 -3 12 -2 9 4 -6 10 -25 14 -25 6z"/>
<path d="M1340 1740 c0 -5 7 -10 16 -10 8 0 12 5 9 10 -3 6 -10 10 -16 10 -5
0 -9 -4 -9 -10z"/>
<path d="M2910 1730 c0 -11 5 -20 10 -20 6 0 10 9 10 20 0 11 -4 20 -10 20 -5
0 -10 -9 -10 -20z"/>
<path d="M1430 1722 c0 -4 9 -13 20 -20 22 -13 27 -3 8 16 -14 14 -28 16 -28
4z"/>
<path d="M1770 1726 c0 -2 7 -7 16 -10 8 -3 12 -2 9 4 -6 10 -25 14 -25 6z"/>
<path d="M2954 1712 c3 -5 17 -12 32 -15 30 -5 20 8 -15 18 -15 4 -21 3 -17
-3z"/>
<path d="M1890 1695 c0 -18 19 -40 26 -32 4 4 0 15 -9 24 -9 10 -17 13 -17 8z"/>
<path d="M2865 1670 c-16 -16 -26 -33 -22 -36 6 -6 56 45 57 59 0 12 -5 9 -35
-23z"/>
<path d="M3187 1689 c7 -7 15 -10 18 -7 3 3 -2 9 -12 12 -14 6 -15 5 -6 -5z"/>
<path d="M209 1673 c-13 -16 -12 -17 4 -4 9 7 17 15 17 17 0 8 -8 3 -21 -13z"/>
<path d="M2444 1666 c-5 -12 -12 -19 -16 -16 -12 8 -40 -39 -34 -58 4 -12 -9
-33 -44 -67 -28 -27 -50 -55 -50 -63 0 -19 100 92 127 140 26 49 29 52 42 43
7 -4 2 -23 -14 -55 -14 -27 -24 -55 -23 -61 2 -7 -8 -18 -20 -25 -15 -7 -20
-14 -12 -19 6 -4 17 -2 24 4 9 7 16 7 25 -2 12 -11 6 9 -10 33 -2 3 11 31 29
62 32 57 32 57 8 81 -23 23 -23 23 -32 3z m-32 -68 c-7 -7 -12 -8 -12 -2 0 6
3 14 7 17 3 4 9 5 12 2 2 -3 -1 -11 -7 -17z"/>
<path d="M3220 1676 c0 -2 7 -7 16 -10 8 -3 12 -2 9 4 -6 10 -25 14 -25 6z"/>
<path d="M1430 1650 c0 -5 5 -10 10 -10 6 0 10 5 10 10 0 6 -4 10 -10 10 -5 0
-10 -4 -10 -10z"/>
<path d="M2260 1648 c0 -15 16 -16 40 -3 25 14 25 14 -7 12 -18 -1 -33 -5 -33
-9z"/>
<path d="M2524 1648 c-4 -7 -3 -8 4 -4 7 4 12 9 12 12 0 8 -9 4 -16 -8z"/>
<path d="M3288 1641 c32 -21 99 -51 111 -51 3 0 -18 14 -47 30 -65 36 -112 51
-64 21z"/>
<path d="M3005 1635 c68 -16 107 -38 155 -85 24 -23 40 -33 40 -25 0 38 -157
126 -220 124 -16 -1 -6 -6 25 -14z"/>
<path d="M2000 1630 c0 -7 3 -10 7 -7 3 4 3 10 0 14 -4 3 -7 0 -7 -7z"/>
<path d="M1542 1613 c-5 -10 -12 -31 -16 -48 -4 -16 -17 -38 -29 -47 -20 -16
-20 -18 -3 -18 13 0 17 -5 13 -19 -2 -10 0 -25 5 -32 6 -10 8 -1 6 25 -2 35 0
39 24 42 14 1 50 13 79 27 30 13 61 27 69 30 12 4 12 6 -2 6 -9 1 -40 -10 -70
-24 -86 -40 -99 -29 -63 58 4 9 5 17 1 17 -3 0 -9 -8 -14 -17z"/>
<path d="M995 1592 c-51 -32 -61 -49 -40 -72 10 -11 29 -20 41 -20 14 0 30
-10 40 -25 9 -14 21 -25 26 -25 6 0 -3 15 -19 33 -19 22 -35 32 -49 29 -41 -7
-39 30 2 66 42 36 42 40 -1 14z"/>
<path d="M2041 1587 c2 -2 20 -14 39 -26 35 -23 35 -23 7 3 -15 14 -33 26 -39
26 -6 0 -9 -1 -7 -3z"/>
<path d="M2590 1570 c0 -5 5 -10 11 -10 5 0 7 5 4 10 -3 6 -8 10 -11 10 -2 0
-4 -4 -4 -10z"/>
<path d="M3280 1550 c0 -5 5 -10 10 -10 6 0 10 5 10 10 0 6 -4 10 -10 10 -5 0
-10 -4 -10 -10z"/>
<path d="M1731 1524 c-20 -26 -20 -26 -50 -5 -39 28 -49 27 -15 -2 31 -27 28
-57 -5 -57 -11 0 -23 -4 -26 -10 -3 -5 0 -10 9 -10 8 0 17 -6 19 -12 4 -10 6
-10 6 0 1 16 62 80 99 104 25 17 26 18 5 18 -12 0 -31 -12 -42 -26z"/>
<path d="M1960 1540 c0 -5 5 -10 10 -10 6 0 10 5 10 10 0 6 -4 10 -10 10 -5 0
-10 -4 -10 -10z"/>
<path d="M2604 1539 c-4 -8 1 -9 15 -4 13 4 28 1 36 -5 9 -8 15 -8 15 -2 0 20
-54 30 -66 11z"/>
<path d="M3335 1531 c16 -11 31 -18 34 -15 7 7 -12 21 -39 29 -23 6 -23 5 5
-14z"/>
<path d="M1900 1530 c-13 -9 -13 -10 0 -10 8 0 22 5 30 10 13 9 13 10 0 10 -8
0 -22 -5 -30 -10z"/>
<path d="M2563 1533 c4 -3 10 -3 14 0 3 4 0 7 -7 7 -7 0 -10 -3 -7 -7z"/>
<path d="M2095 1519 c-5 -7 4 -9 25 -5 43 6 50 16 12 16 -17 0 -34 -5 -37 -11z"/>
<path d="M400 1501 c0 -10 -7 -22 -16 -25 -15 -6 -15 -8 -1 -24 14 -16 29 -20
75 -24 22 -2 13 -33 -18 -63 -23 -22 -30 -25 -30 -12 0 9 7 17 15 17 13 0 42
39 30 41 -3 1 -8 2 -12 3 -5 1 -14 5 -20 9 -16 10 -17 -5 -2 -20 8 -8 5 -15
-9 -25 -15 -10 -18 -18 -12 -28 6 -10 2 -22 -12 -37 -12 -13 -19 -26 -15 -29
4 -4 27 16 53 45 25 28 51 51 57 51 7 0 21 11 32 24 20 23 21 23 65 7 37 -13
41 -16 22 -19 -14 -2 -32 -18 -43 -37 -11 -18 -27 -36 -36 -40 -14 -5 -13 -2
3 16 19 22 19 22 -12 6 -34 -17 -56 -51 -27 -40 13 5 15 2 10 -11 -4 -10 -7
-20 -7 -22 0 -2 -10 -4 -22 -4 -12 0 -18 -3 -14 -7 16 -16 37 -10 50 15 8 15
26 37 40 49 14 13 26 27 26 33 0 5 7 10 15 10 8 0 15 4 15 9 0 18 32 20 67 6
42 -18 43 -18 43 -5 0 6 -5 10 -11 10 -6 0 -39 13 -73 29 -106 49 -187 67
-169 38 4 -7 0 -8 -13 -3 -10 4 -26 9 -34 10 -24 4 -8 21 17 18 29 -4 40 18
18 35 -26 19 -45 16 -45 -6z m45 -11 c3 -5 2 -10 -4 -10 -5 0 -13 5 -16 10 -3
6 -2 10 4 10 5 0 13 -4 16 -10z m69 -49 c3 -5 -1 -14 -9 -21 -8 -7 -15 -10
-15 -7 0 3 -3 12 -6 21 -7 17 20 23 30 7z"/>
<path d="M2534 1506 c-3 -9 -12 -16 -20 -16 -7 0 -34 -22 -60 -50 -49 -52 -89
-65 -113 -37 -8 11 -5 17 14 27 14 7 25 18 25 23 0 5 -10 2 -22 -7 -42 -30
-66 -36 -98 -25 -29 11 -38 23 -22 32 4 2 3 3 -3 2 -5 -1 -17 7 -26 18 -15 19
-17 18 -80 -43 -36 -36 -77 -67 -94 -71 -30 -7 -30 -7 -1 -8 22 -1 43 12 88
55 59 56 84 64 82 26 0 -12 3 -19 8 -16 5 3 24 0 43 -6 34 -11 34 -11 -1 -56
-18 -25 -34 -51 -34 -57 0 -7 8 0 18 14 29 43 70 89 80 89 5 0 15 -7 22 -15 7
-8 21 -13 34 -10 22 6 86 -28 86 -45 0 -5 4 -10 9 -10 5 0 4 11 -2 25 -7 14
-20 25 -29 25 -26 0 -22 12 12 45 30 29 30 29 55 5 14 -13 27 -21 30 -18 3 2
-4 13 -15 23 -23 21 -26 45 -7 45 16 0 57 -42 57 -58 0 -6 -12 -19 -27 -27
-16 -9 -19 -13 -8 -10 11 4 28 9 37 12 9 3 14 11 12 18 -14 35 41 95 87 95 12
0 19 3 15 7 -14 14 -40 11 -64 -7 -13 -11 -28 -18 -32 -15 -4 3 -13 -2 -20
-10 -8 -9 -8 -15 -2 -15 6 0 13 6 15 13 4 9 6 9 6 0 1 -19 -17 -25 -38 -11
-15 9 -17 16 -9 31 5 10 7 21 4 24 -3 3 -8 -2 -12 -11z"/>
<path d="M1882 1480 c0 -14 2 -19 5 -12 2 6 2 18 0 25 -3 6 -5 1 -5 -13z"/>
<path d="M2718 1493 c6 -2 18 -2 25 0 6 3 1 5 -13 5 -14 0 -19 -2 -12 -5z"/>
<path d="M1564 1472 c-8 -11 -5 -21 8 -34 26 -26 33 -22 14 7 -17 25 -15 29
17 26 9 -1 17 1 17 6 0 15 -46 11 -56 -5z"/>
<path d="M1815 1481 c-3 -5 -1 -12 5 -16 5 -3 10 1 10 9 0 18 -6 21 -15 7z"/>
<path d="M3184 1478 c-4 -7 -3 -8 4 -4 12 7 16 16 8 16 -3 0 -8 -5 -12 -12z"/>
<path d="M3340 1475 c7 -9 15 -13 17 -11 7 7 -7 26 -19 26 -6 0 -6 -6 2 -15z"/>
<path d="M899 1430 c30 -28 56 -48 58 -46 7 7 -85 96 -99 96 -7 0 11 -23 41
-50z"/>
<path d="M3060 1470 c0 -7 3 -10 7 -7 3 4 3 10 0 14 -4 3 -7 0 -7 -7z"/>
<path d="M350 1455 c0 -8 4 -15 10 -15 5 0 7 7 4 15 -4 8 -8 15 -10 15 -2 0
-4 -7 -4 -15z"/>
<path d="M1160 1455 c1 -22 27 -62 35 -53 4 3 -3 21 -14 39 -16 26 -21 29 -21
14z"/>
<path d="M1976 1445 c4 -8 11 -15 16 -15 6 0 5 6 -2 15 -7 8 -14 15 -16 15 -2
0 -1 -7 2 -15z"/>
<path d="M205 1440 c-3 -6 1 -7 9 -4 18 7 21 14 7 14 -6 0 -13 -4 -16 -10z"/>
<path d="M835 1440 c3 -5 8 -10 11 -10 2 0 4 5 4 10 0 6 -5 10 -11 10 -5 0 -7
-4 -4 -10z"/>
<path d="M1807 1405 c-12 -24 -30 -42 -57 -54 -22 -10 -37 -20 -34 -24 3 -3
23 3 43 14 20 11 37 15 39 9 2 -5 21 -1 42 10 49 25 47 25 55 -9 3 -16 13 -32
21 -35 14 -5 14 -8 0 -22 -9 -8 -16 -22 -16 -29 0 -8 -9 -19 -20 -25 -11 -6
-20 -15 -20 -21 0 -18 55 31 61 54 4 16 11 21 30 19 22 -3 21 -1 -9 18 -51 31
-42 65 16 64 26 0 38 2 30 7 -7 5 -37 9 -65 9 -54 0 -62 6 -40 29 10 11 9 13
-2 9 -8 -2 -19 -13 -25 -23 -12 -21 -37 -44 -48 -45 -3 0 0 14 9 30 8 17 13
35 11 41 -2 6 -11 -6 -21 -26z"/>
<path d="M281 1427 c2 -1 15 -11 29 -22 25 -20 25 -20 6 3 -11 12 -24 22 -29
22 -6 0 -8 -1 -6 -3z"/>
<path d="M2400 1419 c0 -5 5 -7 10 -4 6 3 10 8 10 11 0 2 -4 4 -10 4 -5 0 -10
-5 -10 -11z"/>
<path d="M360 1411 c0 -6 4 -13 10 -16 6 -3 7 1 4 9 -7 18 -14 21 -14 7z"/>
<path d="M875 1400 c3 -5 8 -10 11 -10 3 0 2 5 -1 10 -3 6 -8 10 -11 10 -3 0
-2 -4 1 -10z"/>
<path d="M1020 1400 c0 -5 -7 -10 -17 -10 -9 0 -14 -3 -10 -6 8 -8 47 5 47 17
0 5 -4 9 -10 9 -5 0 -10 -4 -10 -10z"/>
<path d="M1245 1400 c-3 -5 -3 -10 2 -10 4 0 19 -3 33 -6 24 -6 25 -6 5 9 -24
19 -32 21 -40 7z"/>
<path d="M163 1368 c-13 -18 -33 -45 -45 -60 -25 -31 -37 -220 -16 -245 8 -10
6 -13 -7 -13 -14 0 -15 -3 -6 -14 9 -10 9 -15 1 -18 -9 -3 -9 -13 -2 -38 10
-35 10 -35 11 -3 2 79 44 18 90 -129 28 -92 42 -117 132 -236 90 -117 98 -135
34 -72 -25 24 -45 49 -45 55 0 15 -55 67 -62 60 -7 -8 -88 93 -99 125 -5 14
-12 31 -15 39 -2 8 -7 11 -10 8 -10 -10 32 -91 71 -137 70 -81 216 -220 226
-215 5 4 9 2 9 -3 0 -13 104 -82 124 -82 9 0 15 -4 12 -9 -3 -4 6 -13 20 -20
15 -6 23 -7 19 -1 -9 15 1 12 43 -9 44 -23 223 -78 375 -116 60 -15 120 -33
135 -41 15 -8 36 -14 47 -14 11 0 56 -10 100 -21 139 -35 619 -54 755 -29 30
6 84 15 120 20 65 9 65 9 -18 4 -46 -2 -107 -10 -135 -16 -69 -14 -460 -4
-632 16 -69 9 -230 48 -264 65 -20 10 -56 21 -81 25 -54 8 -275 69 -345 95
-197 74 -252 114 -368 274 -103 141 -104 143 -136 242 -16 50 -42 117 -56 150
-55 123 -54 245 3 301 31 31 31 31 25 -17 -4 -31 -2 -49 4 -49 6 0 11 6 10 13
-2 51 4 68 28 77 14 5 28 16 31 23 3 8 15 13 27 12 27 -2 82 -76 74 -99 -9
-23 -89 -77 -104 -71 -8 3 -11 0 -7 -6 3 -6 15 -9 25 -6 11 3 20 -1 24 -12 7
-22 99 -121 113 -121 7 0 -9 21 -34 47 -45 48 -61 81 -50 108 6 15 46 21 46 7
0 -13 39 -52 52 -52 7 0 4 6 -6 13 -10 7 -20 29 -22 48 -5 37 -29 95 -44 104
-6 3 -10 12 -10 18 0 7 9 1 19 -13 16 -20 21 -22 35 -11 16 13 13 31 -4 31 -5
0 -7 -8 -4 -17 4 -12 0 -10 -14 6 -11 14 -24 21 -31 16 -8 -4 -18 1 -27 13 -8
12 -22 20 -32 20 -9 -1 -33 2 -52 6 -32 6 -37 4 -57 -26z m63 -16 c-18 -16
-18 -16 -6 6 6 13 14 21 18 18 3 -4 -2 -14 -12 -24z m141 -119 c-4 -3 -7 0 -7
7 0 7 3 10 7 7 3 -4 3 -10 0 -14z m-102 -593 c3 -5 4 -10 1 -10 -3 0 -8 5 -11
10 -3 6 -4 10 -1 10 3 0 8 -4 11 -10z m20 -30 c3 -5 4 -10 1 -10 -3 0 -8 5
-11 10 -3 6 -4 10 -1 10 3 0 8 -4 11 -10z m130 -120 c3 -5 4 -10 1 -10 -3 0
-8 5 -11 10 -3 6 -4 10 -1 10 3 0 8 -4 11 -10z m182 -117 c-4 -3 -10 -3 -14 0
-3 4 0 7 7 7 7 0 10 -3 7 -7z"/>
<path d="M1680 1393 c0 -5 12 -16 26 -27 26 -19 26 -19 9 8 -16 25 -35 35 -35
19z"/>
<path d="M343 1383 c4 -3 10 -3 14 0 3 4 0 7 -7 7 -7 0 -10 -3 -7 -7z"/>
<path d="M770 1349 c-6 -11 -9 -25 -7 -32 3 -7 10 1 16 17 9 22 15 26 23 18
17 -17 33 -15 18 3 -17 21 -37 19 -50 -6z"/>
<path d="M2106 1335 c3 -22 10 -44 15 -50 11 -11 3 35 -13 70 -5 13 -6 7 -2
-20z"/>
<path d="M940 1339 c-24 -7 -23 -7 7 -8 21 -1 33 -7 35 -18 3 -17 4 -17 10 -1
9 23 -19 37 -52 27z"/>
<path d="M1075 1330 c3 -5 8 -10 11 -10 3 0 2 5 -1 10 -3 6 -8 10 -11 10 -3 0
-2 -4 1 -10z"/>
<path d="M1755 1310 c-17 -7 -14 -9 13 -9 20 -1 31 3 27 9 -7 12 -13 12 -40 0z"/>
<path d="M1093 1293 c4 -3 10 -3 14 0 3 4 0 7 -7 7 -7 0 -10 -3 -7 -7z"/>
<path d="M982 1269 c-16 -26 -15 -34 3 -19 8 7 22 10 30 6 20 -7 19 -4 -3 15
-17 15 -20 15 -30 -2z"/>
<path d="M1131 1270 c-13 -11 -36 -20 -52 -20 -16 0 -29 -4 -29 -10 0 -12 58
-2 88 16 12 8 22 19 22 24 0 13 -1 13 -29 -10z"/>
<path d="M1755 1281 c-3 -6 4 -15 15 -21 31 -17 42 -8 15 13 -14 9 -26 13 -30
8z"/>
<path d="M2031 1233 c-7 -32 -17 -71 -22 -87 -5 -16 -9 -38 -8 -50 1 -15 4
-11 10 12 14 48 10 51 124 -102 36 -48 36 -48 14 -72 -12 -13 -32 -27 -43 -30
-12 -4 -36 -20 -54 -35 -18 -16 -43 -29 -55 -29 -12 0 -39 -9 -60 -20 -48 -26
-53 -25 -33 5 9 13 16 32 16 41 0 10 8 26 17 36 16 18 16 19 -9 9 -19 -7 -28
-7 -31 2 -2 7 -12 3 -27 -11 -28 -26 -36 -27 -44 -6 -9 24 -7 34 7 34 13 0 15
53 2 83 -4 10 -2 24 6 35 13 15 12 16 -3 4 -15 -12 -20 -11 -40 8 -13 12 -35
28 -50 36 -15 8 -25 20 -23 27 3 6 -9 20 -27 30 -22 13 -28 21 -20 26 8 5 0 8
-19 8 -32 0 -32 0 -3 -24 16 -12 32 -23 37 -23 4 0 7 -7 7 -15 0 -8 -7 -15
-15 -15 -8 0 -15 -4 -15 -9 0 -5 10 -7 23 -4 15 3 9 -4 -18 -21 -35 -23 -40
-24 -44 -9 -2 9 3 21 11 27 12 9 8 14 -19 27 -18 9 -33 12 -33 7 0 -5 6 -11
14 -14 8 -3 11 -14 9 -28 -3 -13 0 -33 6 -44 11 -20 11 -20 41 8 43 40 65 45
102 23 39 -23 86 -93 62 -93 -9 0 -18 9 -21 20 -3 11 -9 20 -14 20 -5 0 -6 -8
-2 -17 5 -15 3 -16 -8 -5 -15 14 -29 16 -29 3 0 -5 16 -15 36 -21 26 -9 34
-17 31 -29 -2 -9 -6 -20 -7 -26 -2 -5 1 -25 5 -42 7 -33 7 -33 33 -13 13 11
31 20 38 20 16 0 19 -46 4 -55 -6 -4 -10 -15 -8 -24 2 -10 -3 -25 -10 -34 -19
-22 -12 -47 18 -65 25 -16 25 -16 1 11 -23 26 -24 28 -8 44 20 20 37 9 40 -26
1 -11 7 -21 14 -21 16 0 16 9 -2 40 -8 14 -14 28 -15 31 0 9 48 29 69 29 10 0
37 14 59 30 23 17 46 30 50 30 5 0 27 16 49 35 35 30 43 33 53 20 7 -8 17 -15
23 -15 6 0 1 10 -11 23 -12 13 -19 27 -15 32 5 4 1 6 -8 3 -10 -4 -30 15 -65
64 -27 38 -59 82 -71 99 -22 30 -22 73 -2 111 11 21 12 38 1 38 -5 0 -15 -26
-21 -57z"/>
<path d="M2205 1252 c-4 -18 0 -31 16 -48 33 -35 45 -29 14 7 -31 38 -22 52
25 39 41 -12 56 -13 46 -3 -4 4 -27 12 -51 18 -42 11 -44 11 -50 -13z"/>
<path d="M755 1260 c3 -5 14 -10 23 -10 15 0 15 2 2 10 -20 13 -33 13 -25 0z"/>
<path d="M667 1226 c17 -22 19 -23 36 -9 9 9 17 21 17 26 0 6 -8 2 -19 -7 -16
-15 -19 -15 -24 -1 -4 8 -11 15 -17 15 -6 0 -3 -11 7 -24z"/>
<path d="M1844 1238 c-4 -7 -3 -8 4 -4 12 7 16 16 8 16 -3 0 -8 -5 -12 -12z"/>
<path d="M1944 1175 c-75 -73 -92 -109 -69 -151 9 -18 21 -47 25 -66 6 -26 9
-29 15 -16 4 11 -2 35 -15 63 -30 61 -21 88 47 151 31 28 54 55 52 60 -2 5
-27 -13 -55 -41z"/>
<path d="M2290 1190 c0 -31 12 -77 26 -99 5 -6 111 58 125 76 12 14 12 15 -1
11 -8 -3 -32 3 -52 13 -21 11 -45 19 -55 19 -10 -1 6 -11 35 -24 57 -24 57
-28 -7 -61 -42 -21 -51 -11 -51 58 0 26 -4 47 -10 47 -5 0 -10 -18 -10 -40z"/>
<path d="M456 1208 c3 -5 10 -6 15 -3 13 9 11 12 -6 12 -8 0 -12 -4 -9 -9z"/>
<path d="M200 1200 c0 -7 3 -10 7 -7 3 4 3 10 0 14 -4 3 -7 0 -7 -7z"/>
<path d="M1153 1203 c4 -3 10 -3 14 0 3 4 0 7 -7 7 -7 0 -10 -3 -7 -7z"/>
<path d="M1700 1200 c0 -5 5 -10 12 -10 6 0 19 -7 29 -16 20 -18 139 -56 139
-44 0 4 -21 13 -46 20 -25 7 -61 24 -80 37 -38 25 -54 29 -54 13z"/>
<path d="M415 1183 c12 -9 45 -68 45 -78 0 -4 -13 -5 -29 -3 -17 2 -28 1 -25
-4 3 -4 13 -8 22 -8 10 0 28 -7 40 -16 24 -16 27 -14 14 14 -31 65 -51 97 -63
100 -9 2 -10 0 -4 -5z"/>
<path d="M450 1180 c0 -7 3 -10 7 -7 3 4 3 10 0 14 -4 3 -7 0 -7 -7z"/>
<path d="M590 1170 c8 -5 20 -10 25 -10 6 0 3 5 -5 10 -8 5 -19 10 -25 10 -5
0 -3 -5 5 -10z"/>
<path d="M236 1117 c-15 -52 -16 -70 -5 -158 7 -54 16 -99 20 -99 5 0 16 -14
25 -31 29 -57 114 -109 176 -109 11 0 35 -16 53 -36 21 -22 40 -34 49 -31 10
4 23 -5 35 -22 20 -27 20 -27 -7 -44 -43 -26 -78 -57 -66 -57 6 0 24 11 40 25
16 14 47 31 69 39 27 10 33 15 18 15 -12 1 -31 14 -43 31 -13 19 -29 29 -41
27 -13 -1 -30 10 -46 31 -26 32 -26 32 5 32 17 0 33 4 36 9 7 10 66 -15 66
-28 0 -3 -12 -8 -27 -9 -15 -1 -32 -7 -37 -12 -7 -7 0 -8 22 -4 21 4 38 2 48
-7 15 -12 16 -11 10 11 -4 14 -19 34 -32 46 -13 11 -33 42 -43 70 -14 36 -25
50 -41 52 -23 4 -23 4 -2 -26 12 -16 18 -33 14 -37 -4 -5 -2 -5 4 -2 15 9 27
-35 12 -44 -70 -44 -218 3 -254 81 -9 19 -22 38 -27 42 -7 4 2 19 22 37 29 27
31 28 26 8 -7 -25 37 47 48 78 5 13 -1 10 -15 -9 -22 -29 -22 -29 -32 15 -11
45 -34 55 -61 27 -7 -8 -5 -9 7 -5 37 13 51 -54 16 -77 -21 -13 -28 -7 -38 38
-5 23 -3 43 5 60 7 13 11 27 8 29 -2 3 0 8 6 12 6 3 11 -1 11 -9 0 -9 4 -16 9
-16 6 0 9 9 8 20 -1 11 -4 20 -8 20 -4 0 -11 17 -16 38 -9 37 -9 37 -27 -21z"/>
<path d="M637 1141 c-38 -34 -64 -39 -73 -16 -7 17 -24 21 -24 5 0 -5 13 -16
29 -25 29 -14 31 -14 60 15 35 35 42 36 66 10 10 -11 23 -20 30 -20 27 0 135
-80 141 -105 3 -14 11 -25 16 -25 6 0 7 8 3 18 -4 9 -11 31 -15 47 -14 55 -31
80 -69 98 -44 20 -68 23 -31 4 14 -8 24 -19 23 -25 -2 -7 2 -12 8 -12 11 0 59
-46 59 -56 0 -7 -42 17 -63 37 -10 9 -31 20 -45 24 -15 3 -39 18 -53 31 -27
25 -27 25 -62 -5z"/>
<path d="M52 1100 c-2 -47 -21 -112 -22 -72 0 6 -5 12 -11 12 -27 0 21 -229
71 -331 69 -142 211 -293 374 -396 60 -38 209 -113 225 -113 6 0 11 -4 11 -10
0 -5 9 -10 19 -10 11 0 23 -4 26 -10 3 -5 31 -17 61 -26 29 -8 60 -21 66 -28
7 -6 22 -12 33 -13 11 0 74 -14 140 -32 176 -45 331 -67 495 -70 178 -3 181 7
4 14 -295 11 -646 87 -813 174 -20 11 -71 35 -113 54 -283 130 -514 380 -561
607 -26 127 -27 136 -11 158 11 15 14 40 11 84 -3 63 -3 63 -5 8z"/>
<path d="M1358 1143 c7 -3 16 -2 19 1 4 3 -2 6 -13 5 -11 0 -14 -3 -6 -6z"/>
<path d="M1287 1117 c-37 -22 -74 -74 -61 -86 5 -6 28 27 29 42 0 4 20 21 44
37 52 35 43 40 -12 7z"/>
<path d="M1387 1098 c-22 -11 -37 -22 -34 -24 3 -3 19 2 36 10 42 22 47 21 87
-20 20 -19 38 -33 41 -31 2 3 -6 14 -18 26 -33 31 -4 26 37 -6 36 -29 45 -49
18 -39 -12 5 -15 2 -10 -10 3 -8 6 -18 6 -20 0 -13 18 -1 27 19 7 15 6 29 -4
47 -7 14 -13 19 -13 12 0 -9 -8 -7 -26 7 -15 12 -33 21 -41 21 -8 0 -26 6 -41
14 -24 12 -31 12 -65 -6z"/>
<path d="M1406 1050 c-9 -23 -18 -69 -21 -103 -5 -62 -5 -62 10 -22 9 22 20
44 25 49 16 16 11 30 -5 16 -27 -22 -16 8 12 34 15 14 24 29 19 33 -4 4 -11 1
-17 -7 -7 -11 -8 -7 -3 13 9 40 -1 33 -20 -13z"/>
<path d="M1115 1066 c-23 -7 -50 -18 -60 -25 -20 -12 -20 -12 0 -6 11 4 41 13
68 21 26 8 47 17 47 19 0 7 -10 5 -55 -9z"/>
<path d="M1291 1061 c-17 -11 1 -23 23 -15 20 8 21 -10 1 -26 -21 -18 -19 -29
5 -23 24 6 27 -12 3 -21 -14 -6 -15 -9 -4 -15 15 -9 18 -72 7 -109 -5 -15 -3
-22 7 -22 11 0 13 23 13 118 -1 109 -2 117 -21 120 -11 1 -26 -2 -34 -7z"/>
<path d="M1723 1055 c4 -9 7 -21 7 -27 0 -7 5 -7 13 1 8 6 18 7 22 3 5 -4 5
-1 1 5 -4 7 -17 18 -28 24 -18 10 -20 9 -15 -6z"/>
<path d="M426 1048 c3 -4 13 -8 23 -8 9 0 27 -13 39 -29 20 -27 20 -30 4 -35
-9 -4 -42 -29 -72 -57 -53 -49 -46 -50 14 -1 29 23 29 23 60 -7 23 -21 45 -31
81 -36 28 -3 61 -8 75 -11 24 -4 24 -4 5 11 -11 9 -24 14 -31 11 -6 -2 -26 -1
-45 4 -34 7 -34 7 -9 17 25 10 25 10 -12 26 -20 8 -47 13 -60 10 -23 -6 -23
-6 0 16 18 18 26 20 37 11 9 -7 15 -8 15 -2 0 5 -11 17 -25 26 -19 13 -24 22
-19 38 4 14 2 18 -5 14 -6 -4 -16 -4 -23 0 -16 10 -58 12 -52 2z m99 -129 c11
-17 -1 -21 -15 -4 -8 9 -8 15 -2 15 6 0 14 -5 17 -11z"/>
<path d="M1242 1003 c-11 -15 -47 -46 -81 -67 -68 -45 -76 -62 -9 -21 75 46
126 91 118 105 -5 8 -13 3 -28 -17z"/>
<path d="M2090 1020 c0 -5 5 -10 11 -10 5 0 7 5 4 10 -3 6 -8 10 -11 10 -2 0
-4 -4 -4 -10z"/>
<path d="M1003 1013 c4 -3 10 -3 14 0 3 4 0 7 -7 7 -7 0 -10 -3 -7 -7z"/>
<path d="M1663 1013 c4 -3 10 -3 14 0 3 4 0 7 -7 7 -7 0 -10 -3 -7 -7z"/>
<path d="M1497 975 c4 -28 1 -43 -16 -65 -28 -39 -27 -59 2 -23 33 42 47 70
46 95 0 22 -1 22 -9 3 -7 -16 -9 -17 -9 -3 -1 9 -5 19 -10 23 -6 3 -7 -9 -4
-30z"/>
<path d="M110 990 c0 -7 3 -10 7 -7 3 4 3 10 0 14 -4 3 -7 0 -7 -7z"/>
<path d="M2055 981 c-61 -22 -84 -34 -89 -46 -3 -8 12 -4 37 11 23 13 50 24
59 24 9 0 20 5 23 10 7 11 -1 11 -30 1z"/>
<path d="M1082 945 c-53 -36 -60 -56 -19 -54 20 0 20 1 3 8 -16 6 -12 11 28
37 25 16 46 32 46 37 0 10 -1 10 -58 -28z"/>
<path d="M894 958 c-3 -4 2 -8 10 -8 9 0 19 -1 23 -2 3 -2 8 2 10 7 4 12 -36
15 -43 3z"/>
<path d="M1284 928 c-19 -23 -19 -23 4 -4 21 18 27 26 19 26 -2 0 -12 -10 -23
-22z"/>
<path d="M2041 924 c0 -11 3 -14 6 -6 3 7 2 16 -1 19 -3 4 -6 -2 -5 -13z"/>
<path d="M900 910 c0 -10 -3 -27 -6 -37 -5 -17 -5 -17 9 0 13 16 17 15 48 -20
19 -21 58 -53 87 -72 28 -18 49 -37 46 -42 -3 -5 -9 -7 -14 -4 -5 3 -11 1 -15
-5 -3 -5 -1 -10 4 -10 6 0 11 -6 11 -14 0 -8 4 -17 9 -20 5 -4 7 2 4 13 -7 25
17 38 32 18 8 -11 27 -17 51 -17 21 0 55 -4 74 -9 52 -14 121 -20 115 -11 -2
4 -30 10 -62 12 -31 3 -58 9 -60 14 -2 5 -22 8 -44 6 -34 -4 -46 0 -72 25 -18
16 -51 42 -74 57 -23 15 -65 52 -93 81 -36 39 -50 49 -50 35z"/>
<path d="M955 910 c24 -38 232 -157 259 -147 6 3 -1 8 -16 12 -16 4 -28 11
-28 16 0 5 -7 9 -16 9 -19 0 -101 48 -155 91 -37 29 -55 37 -44 19z"/>
<path d="M605 900 c3 -5 8 -10 11 -10 2 0 4 5 4 10 0 6 -5 10 -11 10 -5 0 -7
-4 -4 -10z"/>
<path d="M2490 901 c0 -5 5 -13 10 -16 6 -3 10 -2 10 4 0 5 -4 13 -10 16 -5 3
-10 2 -10 -4z"/>
<path d="M1155 864 c-19 -15 -22 -21 -9 -15 18 9 52 41 43 41 -2 0 -17 -12
-34 -26z"/>
<path d="M1720 867 c-6 -7 -18 -23 -28 -36 -16 -21 -27 -24 -95 -25 -42 0 -77
2 -77 5 0 7 -19 16 -62 29 -16 5 -28 5 -28 1 0 -4 18 -13 41 -20 47 -14 47
-33 0 -42 -30 -6 -35 -3 -62 34 -16 22 -29 44 -29 49 0 4 -4 8 -9 8 -6 0 -6
-12 0 -30 6 -16 15 -30 20 -30 5 0 9 -7 9 -15 0 -7 7 -18 15 -22 13 -7 13 -14
0 -55 -8 -26 -19 -84 -26 -128 -13 -81 -13 -81 -58 -75 -46 5 -46 5 2 -10 26
-9 47 -19 47 -24 0 -12 -43 -22 -50 -12 -3 5 -37 14 -75 21 -66 12 -74 11
-123 -10 -37 -16 -52 -28 -52 -42 0 -16 3 -15 24 9 23 27 29 28 108 28 63 -1
90 -5 110 -19 15 -10 31 -15 37 -12 5 4 11 -2 14 -11 2 -10 7 9 11 42 10 78
34 201 48 243 14 45 76 72 161 72 69 0 75 -3 100 -42 21 -34 3 -48 -63 -48
-41 0 -41 0 -34 -37 4 -21 13 -53 20 -72 8 -18 14 -51 14 -72 0 -21 10 -64 21
-95 15 -40 18 -58 10 -63 -9 -6 -131 14 -261 44 -20 4 -22 3 -8 -5 18 -11 247
-60 279 -60 14 0 19 7 19 25 0 25 18 40 55 46 11 2 23 9 27 14 4 6 45 10 90 9
52 0 70 2 48 6 -19 3 -44 11 -55 18 -18 10 -16 11 17 12 46 0 90 -19 84 -37
-6 -15 10 -18 19 -3 4 6 11 8 16 5 5 -4 9 -1 9 5 0 7 -6 10 -12 8 -7 -3 -19 2
-27 9 -7 8 -26 17 -42 20 -16 3 -32 9 -34 13 -9 14 69 22 99 10 33 -12 70 6
81 40 13 40 36 16 55 -57 10 -38 10 -38 6 10 -4 56 8 61 45 14 49 -61 97 -165
64 -137 -10 9 -15 9 -15 1 0 -6 3 -11 8 -12 31 -3 48 -11 71 -33 15 -15 30
-24 33 -20 4 3 11 -4 18 -15 6 -12 7 -21 3 -21 -4 0 -2 -4 6 -9 19 -12 25 -51
8 -51 -13 0 12 -20 26 -20 11 0 0 49 -18 76 -8 13 -15 32 -15 42 0 10 -10 27
-21 38 -22 19 -22 19 -14 -5 7 -24 7 -24 -18 -5 -13 10 -22 25 -20 31 3 7 -1
13 -9 13 -8 0 -22 17 -32 38 -38 79 -84 127 -141 147 -54 18 -54 18 -48 61 6
44 6 44 -25 44 -22 0 -36 -7 -47 -24 -9 -13 -22 -27 -29 -29 -16 -6 -67 38
-83 73 -11 24 -12 25 -12 3 -1 -13 -5 -23 -11 -23 -5 0 -10 -4 -10 -9 0 -5 8
-7 19 -4 10 3 21 0 25 -5 3 -5 -6 -9 -19 -9 -15 0 -30 8 -36 19 -11 21 -3 58
13 58 6 0 8 3 5 6 -4 4 -13 1 -22 -6 -22 -18 -36 26 -24 76 13 59 12 61 -31
72 -30 7 -44 7 -50 -1z m49 -14 c22 -6 23 -9 17 -58 -4 -36 -1 -67 9 -95 22
-63 21 -65 -52 -107 -36 -21 -69 -45 -71 -53 -5 -13 -3 -13 11 -2 45 38 137
86 175 92 53 9 75 -9 38 -33 -15 -10 -23 -25 -23 -42 0 -21 2 -23 14 -14 10 9
11 14 3 19 -7 4 -1 14 16 25 26 17 29 17 80 -5 29 -12 58 -19 64 -15 14 9 12
-8 -4 -30 -11 -16 -28 -19 -94 -21 -65 -1 -85 -5 -107 -22 -15 -12 -32 -22
-37 -22 -5 0 -36 -18 -68 -40 -60 -40 -60 -40 -74 -6 -8 19 -16 54 -17 78 -2
24 -11 67 -21 95 -23 66 -24 94 -3 86 18 -6 105 24 105 38 0 5 -4 9 -8 9 -4 0
-16 13 -25 30 -18 29 -18 30 9 65 29 38 28 38 63 28z m273 -228 c-5 -46 -30
-53 -70 -20 -2 2 7 15 19 29 30 35 55 30 51 -9z"/>
<path d="M1680 670 c0 -7 3 -10 7 -7 3 4 3 10 0 14 -4 3 -7 0 -7 -7z"/>
<path d="M1750 670 c-21 -7 -21 -8 -5 -9 11 0 27 4 35 9 18 11 5 11 -30 0z"/>
<path d="M1690 645 c-6 -8 -10 -21 -8 -31 2 -11 7 -6 15 15 13 34 11 38 -7 16z"/>
<path d="M1993 543 c4 -3 10 -3 14 0 3 4 0 7 -7 7 -7 0 -10 -3 -7 -7z"/>
<path d="M698 853 c7 -3 16 -2 19 1 4 3 -2 6 -13 5 -11 0 -14 -3 -6 -6z"/>
<path d="M3388 799 c-9 -27 -13 -49 -8 -49 8 0 35 88 29 94 -2 3 -11 -18 -21
-45z"/>
<path d="M620 825 c14 -8 33 -14 42 -15 9 0 20 -9 23 -21 5 -15 10 -18 18 -10
6 6 15 7 21 3 29 -22 126 -39 126 -23 0 5 -12 9 -26 9 -15 0 -29 5 -33 11 -4
6 -14 9 -23 6 -8 -3 -40 8 -72 25 -60 31 -128 45 -76 15z"/>
<path d="M2763 833 c4 -3 10 -3 14 0 3 4 0 7 -7 7 -7 0 -10 -3 -7 -7z"/>
<path d="M964 780 c-12 -5 -25 -13 -29 -19 -10 -17 -81 -51 -110 -53 -14 -1
-25 -6 -25 -11 0 -5 7 -7 15 -4 8 4 17 2 21 -4 4 -7 12 -5 22 4 10 8 31 22 47
30 29 15 95 67 85 66 -3 0 -15 -4 -26 -9z"/>
<path d="M1311 753 c-23 -19 -41 -39 -41 -45 0 -5 13 4 30 22 25 27 34 31 60
25 23 -5 30 -3 30 8 0 30 -38 25 -79 -10z"/>
<path d="M1255 756 c-18 -13 -18 -14 8 -9 15 3 27 9 27 14 0 13 -13 11 -35 -5z"/>
<path d="M670 734 c59 -18 97 -17 45 1 -22 8 -51 14 -65 14 -18 0 -12 -4 20
-15z"/>
<path d="M3249 690 c-46 -45 -46 -45 -16 -60 39 -19 43 -31 17 -61 -15 -17
-23 -20 -27 -11 -17 43 -49 64 -84 57 -34 -8 -34 -8 11 -19 39 -9 48 -17 70
-57 14 -25 46 -70 73 -99 26 -28 47 -56 47 -61 0 -12 -17 -11 -25 1 -3 6 -11
10 -17 10 -7 0 -6 -5 1 -14 14 -16 9 -20 -41 -34 -52 -14 -64 -1 -71 80 -5 58
-4 66 10 61 19 -7 8 15 -29 60 -24 29 -24 29 -114 -60 -282 -278 -693 -433
-1239 -468 -126 -9 -135 -15 -19 -15 479 0 1024 214 1307 513 39 42 39 42 55
18 12 -18 16 -42 13 -95 -4 -102 16 -126 85 -108 27 7 51 17 52 23 2 5 12 9
23 9 32 0 22 36 -22 82 -76 79 -81 90 -53 111 29 22 31 62 4 79 -26 17 -25 24
7 52 22 19 33 22 56 15 15 -4 39 -4 52 1 25 9 43 30 26 30 -5 0 -13 -5 -17
-11 -7 -12 -73 -5 -83 8 -3 4 -27 -12 -52 -37z"/>
<path d="M654 704 c3 -9 6 -21 6 -27 0 -8 3 -8 9 1 6 10 19 9 65 -8 57 -22 57
-22 22 -41 -46 -24 -55 -24 -66 4 -5 12 -9 16 -9 8 -1 -8 7 -23 16 -33 16 -18
15 -19 -6 -34 -28 -20 -14 -42 16 -25 17 10 17 10 -2 11 -16 0 -17 2 -5 10 9
6 20 5 30 -3 13 -11 13 -10 1 6 -8 9 -12 19 -10 21 36 30 104 57 130 52 19 -3
28 -2 24 4 -3 6 -19 10 -34 10 -35 0 -130 28 -156 46 -26 18 -39 18 -31 -2z"/>
<path d="M945 710 c3 -5 8 -10 11 -10 3 0 2 5 -1 10 -3 6 -8 10 -11 10 -3 0
-2 -4 1 -10z"/>
<path d="M2855 701 c6 -5 24 -13 40 -17 20 -4 27 -3 20 3 -5 6 -23 14 -40 17
-20 5 -27 4 -20 -3z"/>
<path d="M885 673 c11 -3 25 -9 32 -15 7 -6 14 -5 18 2 4 6 13 7 23 1 9 -4 36
-11 60 -14 24 -3 67 -16 95 -30 66 -31 86 -39 115 -42 44 -6 21 11 -45 35
-169 58 -201 67 -258 68 -33 0 -51 -2 -40 -5z m102 -10 c-4 -3 -10 -3 -14 0
-3 4 0 7 7 7 7 0 10 -3 7 -7z"/>
<path d="M2656 665 c-18 -14 -17 -14 12 -12 23 1 28 5 20 15 -6 6 -11 12 -12
12 0 0 -10 -7 -20 -15z"/>
<path d="M2590 650 c-13 -9 -13 -10 0 -10 8 0 22 5 30 10 13 9 13 10 0 10 -8
0 -22 -5 -30 -10z"/>
<path d="M890 610 c0 -7 3 -10 7 -7 3 4 3 10 0 14 -4 3 -7 0 -7 -7z"/>
<path d="M2663 563 c4 -3 10 -3 14 0 3 4 0 7 -7 7 -7 0 -10 -3 -7 -7z"/>
<path d="M830 550 c38 -12 69 -12 50 0 -8 5 -28 9 -45 9 -29 -1 -29 -1 -5 -9z"/>
<path d="M1137 553 c-3 -5 30 -8 73 -8 43 0 76 3 73 8 -2 4 -35 7 -73 7 -38 0
-71 -3 -73 -7z"/>
<path d="M2240 550 c0 -7 3 -10 7 -7 3 4 3 10 0 14 -4 3 -7 0 -7 -7z"/>
<path d="M978 531 c-15 -9 -37 -29 -49 -44 -17 -22 -24 -25 -35 -16 -12 10
-13 9 -7 -6 5 -15 3 -17 -12 -12 -16 7 -16 5 -4 -9 7 -9 15 -12 17 -6 1 5 11
8 21 5 13 -3 20 2 25 20 3 13 24 36 46 51 38 25 49 37 33 35 -5 0 -20 -8 -35
-18z"/>
<path d="M2553 519 c-33 -33 -75 -44 -106 -28 -10 6 -21 8 -24 6 -3 -3 9 -13
26 -21 43 -23 104 3 132 56 14 25 8 23 -28 -13z"/>
<path d="M2633 528 c-26 -29 -40 -53 -25 -44 5 3 12 1 14 -6 3 -7 7 -5 11 6 4
10 3 15 -3 11 -6 -3 -10 -1 -10 4 0 6 4 11 10 11 5 0 14 9 20 20 14 26 8 25
-17 -2z"/>
<path d="M2666 531 c-4 -5 3 -7 14 -4 23 6 26 13 6 13 -8 0 -17 -4 -20 -9z"/>
<path d="M695 521 c-11 -10 -3 -18 17 -17 12 0 23 6 25 13 4 11 -32 15 -42 4z"/>
<path d="M800 513 c-7 -12 -13 -14 -16 -7 -6 14 -44 6 -44 -8 0 -5 10 -6 22
-2 19 6 21 4 11 -7 -9 -11 -6 -14 15 -16 24 -2 27 2 27 28 0 34 -1 34 -15 12z"/>
<path d="M1153 523 c4 -3 10 -3 14 0 3 4 0 7 -7 7 -7 0 -10 -3 -7 -7z"/>
<path d="M1085 504 c-46 -24 -55 -39 -10 -16 22 10 47 22 55 25 13 5 13 6 0 6
-8 1 -28 -6 -45 -15z"/>
<path d="M2345 500 c-3 -5 -1 -10 4 -10 6 0 11 5 11 10 0 6 -2 10 -4 10 -3 0
-8 -4 -11 -10z"/>
<path d="M2385 500 c-16 -7 -17 -9 -3 -9 9 -1 20 4 23 9 7 11 7 11 -20 0z"/>
<path d="M2653 503 c4 -3 10 -3 14 0 3 4 0 7 -7 7 -7 0 -10 -3 -7 -7z"/>
<path d="M2080 481 c0 -5 -8 -12 -17 -14 -14 -4 -12 -5 5 -6 13 -1 22 5 22 14
0 8 -2 15 -5 15 -3 0 -5 -4 -5 -9z"/>
<path d="M1010 450 c0 -7 3 -10 7 -7 3 4 3 10 0 14 -4 3 -7 0 -7 -7z"/>
<path d="M2533 453 c4 -3 10 -3 14 0 3 4 0 7 -7 7 -7 0 -10 -3 -7 -7z"/>
<path d="M3220 457 c0 -2 15 -16 33 -33 32 -29 32 -29 3 4 -28 30 -36 37 -36
29z"/>
<path d="M2075 424 c-30 -14 -30 -14 8 -8 25 4 37 2 37 -5 0 -7 -4 -10 -9 -6
-5 3 -12 1 -16 -5 -3 -5 1 -10 9 -10 17 0 39 34 29 44 -9 9 -24 6 -58 -10z"/>
<path d="M923 410 c14 -11 29 -20 33 -20 4 0 -2 9 -14 20 -12 11 -26 20 -33
20 -6 0 0 -9 14 -20z"/>
<path d="M1315 420 c-4 -6 3 -10 14 -10 25 0 27 6 6 13 -8 4 -17 2 -20 -3z"/>
<path d="M300 401 c0 -11 4 -22 9 -25 4 -3 6 6 3 19 -5 30 -12 33 -12 6z"/>
<path d="M1834 412 c4 -7 12 -12 18 -12 7 0 22 -10 35 -22 13 -12 23 -16 23
-9 0 7 5 9 10 6 6 -3 10 -2 10 2 0 5 -17 15 -37 22 -21 8 -44 16 -52 19 -9 3
-12 1 -7 -6z"/>
<path d="M1990 405 c-7 -8 -8 -15 -2 -15 5 0 15 7 22 15 7 8 8 15 2 15 -5 0
-15 -7 -22 -15z"/>
<path d="M2407 409 c-10 -6 -24 -8 -32 -5 -8 3 -16 -3 -20 -13 -6 -21 3 -51
16 -51 14 0 11 28 -3 33 -7 3 -3 6 8 6 12 1 32 10 45 21 25 21 16 26 -14 9z"/>
<path d="M970 402 c0 -5 9 -17 20 -27 19 -17 19 -17 7 9 -12 25 -27 35 -27 18z"/>
<path d="M1270 395 c-7 -8 -8 -15 -2 -15 5 0 15 7 22 15 7 8 8 15 2 15 -5 0
-15 -7 -22 -15z"/>
<path d="M1723 388 c-13 -6 -23 -15 -23 -20 0 -7 55 15 69 28 9 8 -25 2 -46
-8z"/>
<path d="M1948 383 c7 -3 16 -2 19 1 4 3 -2 6 -13 5 -11 0 -14 -3 -6 -6z"/>
<path d="M1043 368 c-13 -6 -23 -14 -23 -18 0 -11 32 -22 39 -14 3 4 0 9 -7
11 -10 4 -8 9 5 19 21 16 16 17 -14 2z"/>
<path d="M2055 370 c-3 -6 1 -7 9 -4 18 7 21 14 7 14 -6 0 -13 -4 -16 -10z"/>
<path d="M1823 353 c4 -3 10 -3 14 0 3 4 0 7 -7 7 -7 0 -10 -3 -7 -7z"/>
<path d="M1073 333 c4 -3 10 -3 14 0 3 4 0 7 -7 7 -7 0 -10 -3 -7 -7z"/>
<path d="M1778 319 c-16 -17 -14 -29 5 -29 6 0 7 3 4 7 -4 3 -2 12 5 20 17 20
6 22 -14 2z"/>
<path d="M2645 311 c-79 -39 -66 -39 16 -1 35 16 60 29 54 30 -5 0 -37 -13
-70 -29z"/>
<path d="M1108 323 c6 -2 18 -2 25 0 6 3 1 5 -13 5 -14 0 -19 -2 -12 -5z"/>
<path d="M1172 320 c5 -15 117 -84 125 -76 5 4 -60 46 -73 46 -4 0 -19 10 -32
23 -16 14 -23 17 -20 7z"/>
<path d="M1881 304 c0 -11 3 -14 6 -6 3 7 2 16 -1 19 -3 4 -6 -2 -5 -13z"/>
<path d="M1907 313 c-4 -3 -7 -13 -7 -21 0 -8 -8 -21 -17 -28 -10 -7 -13 -14
-7 -14 16 0 38 28 39 51 2 21 1 22 -8 12z"/>
<path d="M340 300 c0 -7 3 -10 7 -7 3 4 3 10 0 14 -4 3 -7 0 -7 -7z"/>
<path d="M1743 277 c-4 -7 -28 -25 -53 -39 -45 -26 -45 -26 -57 -3 -8 18 -8
25 1 28 6 2 -1 4 -16 4 -16 0 -28 -3 -28 -8 0 -5 6 -9 13 -9 7 0 23 -19 34
-42 17 -33 22 -38 22 -21 1 16 13 29 41 43 21 11 44 29 50 40 12 22 6 28 -7 7z"/>
<path d="M2135 255 c-22 -19 -46 -34 -53 -35 -7 0 -10 -5 -6 -11 4 -7 17 -1
34 16 18 17 35 25 45 21 9 -3 13 -2 10 3 -3 5 1 11 10 13 8 2 11 8 7 15 -5 8
-19 2 -47 -22z"/>
<path d="M1525 270 c-7 -12 2 -12 30 0 19 8 19 9 -2 9 -12 1 -25 -3 -28 -9z"/>
<path d="M2203 263 c-3 -10 -8 -22 -11 -27 -3 -5 0 -6 5 -3 11 7 25 47 17 47
-3 0 -7 -8 -11 -17z"/>
<path d="M2515 259 c-54 -22 -75 -36 -35 -24 37 12 107 44 95 44 -5 0 -32 -9
-60 -20z"/>
<path d="M1397 260 c12 -5 27 -19 33 -30 6 -12 14 -19 17 -16 4 3 12 1 19 -5
8 -7 14 -7 19 1 3 5 0 10 -8 10 -8 0 -27 11 -43 25 -16 14 -36 25 -44 24 -9 0
-6 -4 7 -9z"/>
<path d="M1550 250 c-8 -5 -10 -10 -5 -10 6 0 17 5 25 10 8 5 11 10 5 10 -5 0
-17 -5 -25 -10z"/>
<path d="M2295 250 c3 -5 8 -10 11 -10 3 0 2 5 -1 10 -3 6 -8 10 -11 10 -3 0
-2 -4 1 -10z"/>
<path d="M533 237 c38 -105 46 -203 20 -223 -17 -14 -17 -14 2 -12 26 4 35 16
35 49 0 37 -38 181 -52 194 -8 7 -9 5 -5 -8z"/>
<path d="M1810 215 c-20 -21 -28 -35 -19 -34 15 1 77 69 62 69 -5 0 -24 -16
-43 -35z"/>
<path d="M2024 224 c-17 -12 -31 -13 -65 -5 -23 5 -49 6 -57 2 -9 -5 -3 -8 18
-9 17 0 44 -3 60 -7 19 -4 38 0 61 14 19 12 27 21 19 20 -8 0 -25 -7 -36 -15z"/>
<path d="M903 223 c4 -3 10 -3 14 0 3 4 0 7 -7 7 -7 0 -10 -3 -7 -7z"/>
<path d="M2425 220 c-3 -6 1 -7 9 -4 18 7 21 14 7 14 -6 0 -13 -4 -16 -10z"/>
<path d="M931 216 c15 -16 320 -87 369 -85 14 0 -37 13 -113 29 -76 15 -150
33 -165 38 -35 14 -99 26 -91 18z"/>
<path d="M1748 203 c7 -3 16 -2 19 1 4 3 -2 6 -13 5 -11 0 -14 -3 -6 -6z"/>
<path d="M1585 180 c-4 -6 3 -10 14 -10 25 0 27 6 6 13 -8 4 -17 2 -20 -3z"/>
<path d="M1980 180 c0 -7 3 -10 7 -7 3 4 3 10 0 14 -4 3 -7 0 -7 -7z"/>
<path d="M2283 183 c9 -2 23 -2 30 0 6 3 -1 5 -18 5 -16 0 -22 -2 -12 -5z"/>
<path d="M679 154 c-8 -10 -27 -25 -44 -36 -21 -12 -25 -18 -13 -18 20 0 86
55 77 64 -3 4 -12 -1 -20 -10z"/>
<path d="M1335 129 c-7 -11 126 -21 215 -17 75 4 75 4 -20 7 -52 1 -117 6
-143 10 -26 4 -50 5 -52 0z"/>
<path d="M800 113 c0 -9 3 -14 6 -10 3 3 25 -17 47 -45 23 -28 49 -53 57 -56
8 -2 1 11 -16 29 -17 19 -41 49 -53 67 -24 35 -41 41 -41 15z"/>
<path d="M900 84 c0 -20 73 -84 96 -84 23 0 23 1 7 20 -21 25 -27 25 -19 3 4
-10 -13 2 -38 27 -25 24 -46 40 -46 34z"/>
</g>
</svg>
