<?xml version="1.0" standalone="no"?>
<!DOCTYPE svg PUBLIC "-//W3C//DTD SVG 20010904//EN"
 "http://www.w3.org/TR/2001/REC-SVG-20010904/DTD/svg10.dtd">
<svg version="1.0" xmlns="http://www.w3.org/2000/svg"
 width="384.000000pt" height="256.000000pt" viewBox="0 0 384.000000 256.000000"
 preserveAspectRatio="xMidYMid meet">
<metadata>
Created by potrace 1.16, written by Peter Selinger 2001-2019
</metadata>
<g transform="translate(0.000000,256.000000) scale(0.100000,-0.100000)"
fill="#000000" stroke="none">
<path d="M3446 2520 c-23 -22 -46 -37 -49 -33 -4 3 -7 1 -7 -5 0 -21 18 -13
55 23 19 20 45 40 57 45 18 7 19 9 5 9 -9 1 -37 -17 -61 -39z"/>
<path d="M3413 2543 c4 -3 10 -3 14 0 3 4 0 7 -7 7 -7 0 -10 -3 -7 -7z"/>
<path d="M3364 2530 c-20 -8 -42 -30 -30 -30 3 0 20 9 38 20 34 20 30 25 -8
10z"/>
<path d="M3530 2510 c0 -7 3 -10 7 -7 3 4 3 10 0 14 -4 3 -7 0 -7 -7z"/>
<path d="M3273 2493 c4 -3 10 -3 14 0 3 4 0 7 -7 7 -7 0 -10 -3 -7 -7z"/>
<path d="M3240 2475 c0 -8 7 -15 15 -15 9 0 12 6 9 15 -4 8 -10 15 -15 15 -5
0 -9 -7 -9 -15z"/>
<path d="M3280 2445 c-7 -9 -8 -15 -2 -15 5 0 12 7 16 15 3 8 4 15 2 15 -2 0
-9 -7 -16 -15z"/>
<path d="M3360 2440 c0 -7 3 -10 7 -7 3 4 3 10 0 14 -4 3 -7 0 -7 -7z"/>
<path d="M2940 2431 c-54 -11 -86 -31 -69 -43 11 -8 9 -8 -5 -4 -34 11 -46
-12 -46 -89 0 -77 16 -135 70 -251 17 -38 43 -96 57 -129 39 -93 59 -121 118
-160 59 -38 62 -44 43 -64 -11 -11 -9 -12 12 -7 14 4 63 10 110 13 91 6 148
27 209 79 32 26 32 26 26 -2 -18 -90 -33 -325 -20 -312 3 2 7 47 10 98 3 52
10 122 16 157 6 35 9 69 6 77 -3 7 8 51 23 97 16 46 40 125 54 174 24 90 24
90 37 58 8 -18 17 -33 21 -33 4 0 5 6 2 14 -3 8 5 21 18 30 26 19 38 20 38 5
0 -5 -4 -7 -10 -4 -12 7 -11 28 -15 -262 -3 -144 -1 -233 5 -233 5 0 9 10 9
23 -3 62 14 336 23 364 5 18 10 46 10 63 1 16 4 30 7 30 3 0 15 7 25 15 16 13
17 17 5 31 -8 9 -15 35 -15 58 -1 23 -4 48 -8 57 -8 17 53 39 108 39 14 0 26
5 26 10 0 14 -25 12 -106 -8 -70 -18 -72 -18 -84 1 -10 17 -7 24 19 51 17 18
31 36 31 41 0 5 -14 -6 -31 -23 -33 -34 -61 -44 -38 -14 7 9 -1 4 -19 -12 -27
-25 -34 -27 -47 -16 -15 13 -15 15 2 29 35 30 59 63 41 56 -9 -4 -24 -18 -33
-32 -12 -18 -23 -24 -41 -20 -24 4 -24 4 3 -21 27 -25 27 -25 -5 -40 -27 -13
-34 -14 -45 -2 -10 10 -9 12 5 7 11 -4 15 -2 12 7 -4 11 -95 38 -174 51 -107
18 -165 28 -227 41 -77 15 -107 16 -163 5z m229 -31 c58 -11 133 -26 166 -32
71 -13 105 -33 105 -59 0 -11 7 -22 15 -25 19 -8 19 -36 0 -97 -23 -77 -10
-91 51 -55 31 18 37 19 31 6 -3 -9 -1 -18 5 -20 13 -5 -36 -183 -70 -256 -45
-93 -112 -140 -211 -148 -31 -3 -71 -7 -90 -9 -34 -4 -34 -4 -6 25 32 33 27
39 -11 14 -21 -15 -27 -15 -42 -2 -9 7 -30 20 -46 28 -16 8 -39 28 -51 45 -31
42 -117 239 -119 275 -1 16 -6 33 -10 37 -5 4 -5 -3 -2 -17 7 -25 7 -25 -8 0
-17 28 -21 54 -7 46 5 -4 7 3 4 14 -3 11 -9 20 -12 20 -4 0 -6 12 -5 28 11 98
11 132 0 123 -8 -7 -12 -4 -12 8 0 11 7 18 16 16 20 -3 41 15 33 29 -3 6 -3 8
2 4 4 -4 14 -1 22 7 21 21 124 19 252 -5z m296 -68 c-3 -3 -11 0 -18 7 -9 10
-8 11 6 5 10 -3 15 -9 12 -12z m-616 -69 c-1 -54 -2 -56 -11 -26 -10 29 -5 83
7 83 3 0 5 -26 4 -57z m629 38 c3 -8 -1 -12 -9 -9 -7 2 -15 10 -17 17 -3 8 1
12 9 9 7 -2 15 -10 17 -17z m107 9 c-7 -11 -77 -32 -84 -25 -2 3 10 8 28 11
17 4 34 11 37 15 3 5 10 9 15 9 6 0 8 -4 4 -10z m75 -41 c0 -9 -4 -8 -15 1 -8
7 -15 19 -15 27 0 12 2 12 15 -1 8 -8 15 -20 15 -27z m-34 -3 c9 -36 -2 -47
-31 -34 -44 20 -43 58 0 58 18 0 26 -7 31 -24z m-75 -23 c4 -12 4 -25 -1 -28
-11 -7 -40 22 -40 41 0 23 31 12 41 -13z m-54 -10 c-4 -3 -7 0 -7 7 0 7 3 10
7 7 3 -4 3 -10 0 -14z m132 -47 c24 -26 24 -26 -6 -26 -22 0 -33 6 -41 25 -24
53 -2 53 47 1z m-129 20 c0 -23 -22 -76 -31 -76 -12 0 -11 20 2 59 11 31 29
42 29 17z m30 -26 c0 -17 -17 -37 -25 -29 -2 2 -1 16 2 31 6 30 23 28 23 -2z
m147 -77 c-4 -3 -7 0 -7 7 0 7 3 10 7 7 3 -4 3 -10 0 -14z"/>
<path d="M3378 2343 c7 -3 16 -2 19 1 4 3 -2 6 -13 5 -11 0 -14 -3 -6 -6z"/>
<path d="M3410 2310 c0 -5 5 -10 11 -10 5 0 7 5 4 10 -3 6 -8 10 -11 10 -2 0
-4 -4 -4 -10z"/>
<path d="M2995 1870 c3 -5 8 -10 11 -10 3 0 2 5 -1 10 -3 6 -8 10 -11 10 -3 0
-2 -4 1 -10z"/>
<path d="M3475 2400 c-3 -5 -1 -10 4 -10 6 0 11 5 11 10 0 6 -2 10 -4 10 -3 0
-8 -4 -11 -10z"/>
<path d="M3793 2213 c4 -3 10 -3 14 0 3 4 0 7 -7 7 -7 0 -10 -3 -7 -7z"/>
<path d="M3823 2213 c4 -3 10 -3 14 0 3 4 0 7 -7 7 -7 0 -10 -3 -7 -7z"/>
<path d="M1771 2036 c-11 -25 -26 -46 -33 -46 -7 0 -80 5 -163 10 -82 5 -197
12 -255 15 -58 4 -124 8 -147 10 -67 4 -95 -4 -91 -29 2 -14 11 -22 28 -24 14
-2 35 -8 48 -14 23 -12 23 -12 -5 -25 -26 -11 -24 -12 22 -6 28 3 65 11 83 19
17 7 32 11 32 9 0 -3 11 0 25 5 14 5 27 5 30 1 6 -11 97 -18 625 -46 52 -3
119 -9 148 -14 29 -4 55 -4 58 0 3 5 0 10 -5 10 -6 1 -15 3 -21 4 -5 1 -17 3
-25 4 -9 0 -15 10 -14 24 0 20 1 20 8 3 5 -14 10 -16 15 -7 11 18 1 24 -42 28
-20 1 -85 6 -143 10 -59 5 -117 5 -130 2 -19 -6 -17 -7 14 -8 61 -2 50 -31
-12 -31 -61 0 -67 13 -40 82 25 64 16 77 -10 14z m-581 -57 c0 -23 -10 -24
-36 -3 -10 8 -13 13 -6 9 6 -3 15 1 18 9 8 21 24 10 24 -15z m33 16 c4 -8 2
-17 -3 -20 -6 -4 -10 3 -10 14 0 25 6 27 13 6z m77 8 c0 -11 -41 -45 -47 -40
-3 4 0 7 8 7 9 0 6 7 -9 18 -23 18 -23 18 12 18 20 0 36 -2 36 -3z m-170 -13
c0 -5 -2 -10 -4 -10 -3 0 -8 5 -11 10 -3 6 -1 10 4 10 6 0 11 -4 11 -10z m227
3 c-4 -3 -10 -3 -14 0 -3 4 0 7 7 7 7 0 10 -3 7 -7z m285 -9 c102 -6 107 -8
97 -26 -7 -14 -17 -18 -32 -15 -12 3 -89 9 -172 13 -164 7 -167 8 -158 30 5
14 18 15 82 10 42 -3 124 -9 183 -12z m-412 -34 c-8 -5 -19 -10 -25 -10 -5 0
-3 5 5 10 8 5 20 10 25 10 6 0 3 -5 -5 -10z m770 5 c0 -2 -10 -9 -21 -16 -13
-6 -19 -7 -15 -1 3 6 0 13 -6 15 -7 3 -1 6 15 6 15 1 27 -1 27 -4z m60 -31 c0
-2 -9 0 -20 6 -11 6 -20 13 -20 16 0 2 9 0 20 -6 11 -6 20 -13 20 -16z m-133
9 c-4 -3 -10 -3 -14 0 -3 4 0 7 7 7 7 0 10 -3 7 -7z"/>
<path d="M3700 2045 c0 -18 4 -23 15 -19 8 4 15 12 15 19 0 7 -7 15 -15 19
-11 4 -15 -1 -15 -19z"/>
<path d="M880 2030 c-9 -6 -7 -10 9 -15 27 -8 33 -4 16 12 -6 6 -18 7 -25 3z"/>
<path d="M954 2018 c-16 -25 -16 -52 0 -39 9 8 16 8 20 2 4 -6 -3 -15 -14 -21
-22 -12 -18 -33 4 -24 8 3 17 0 21 -6 4 -7 -1 -13 -12 -16 -17 -5 -19 -11 -13
-50 9 -60 22 -72 49 -43 24 26 29 48 6 29 -24 -20 -19 23 6 51 11 13 18 18 14
12 -3 -7 -1 -13 4 -13 6 0 11 -10 11 -22 1 -31 23 -59 39 -49 9 6 10 11 2 15
-7 5 -5 19 9 46 26 50 26 70 1 63 -11 -3 -27 1 -36 9 -34 28 -43 38 -47 47 -6
17 -55 24 -64 9z m36 -2 c0 -3 -4 -8 -10 -11 -5 -3 -10 -1 -10 4 0 6 5 11 10
11 6 0 10 -2 10 -4z m51 -61 c10 4 19 2 19 -3 0 -15 -42 -22 -57 -10 -11 9
-11 14 -1 26 12 13 13 13 16 -2 3 -12 10 -15 23 -11z m49 -35 c0 -5 -4 -10
-10 -10 -5 0 -10 5 -10 10 0 6 5 10 10 10 6 0 10 -4 10 -10z"/>
<path d="M1050 2015 c7 -9 15 -13 17 -11 7 7 -7 26 -19 26 -6 0 -6 -6 2 -15z"/>
<path d="M3700 2000 c0 -7 3 -10 7 -7 3 4 3 10 0 14 -4 3 -7 0 -7 -7z"/>
<path d="M317 1918 c2 -46 6 -88 8 -94 2 -8 45 -12 125 -13 121 -1 121 -1 119
76 -3 122 7 113 -134 113 -123 0 -123 0 -118 -82z m118 53 c39 -1 73 -8 77
-14 5 -9 8 -8 9 3 1 8 5 -1 8 -20 8 -40 -3 -61 -30 -57 -31 5 -33 16 -5 26 14
6 26 16 26 22 0 8 -4 8 -15 -1 -8 -6 -23 -9 -33 -5 -13 3 -20 1 -19 -7 1 -46
-3 -54 -18 -34 -8 11 -15 28 -15 38 0 10 -4 18 -10 18 -5 0 -10 -8 -10 -19 0
-18 -33 -35 -44 -23 -3 3 -6 26 -6 51 0 25 4 41 8 36 4 -6 38 -12 77 -14z
m-48 -98 c-4 -3 -10 -3 -14 0 -3 4 0 7 7 7 7 0 10 -3 7 -7z m173 2 c0 -2 -9
-9 -20 -15 -12 -6 -20 -7 -20 -1 0 5 8 12 18 14 9 3 18 5 20 6 1 0 2 -1 2 -4z
m-93 -32 c-4 -3 -10 -3 -14 0 -3 4 0 7 7 7 7 0 10 -3 7 -7z"/>
<path d="M1036 1812 c-6 -9 33 -46 41 -39 6 6 -19 47 -29 47 -4 0 -9 -4 -12
-8z"/>
<path d="M3712 1795 c0 -16 2 -22 5 -12 2 9 2 23 0 30 -3 6 -5 -1 -5 -18z"/>
<path d="M2471 1791 c-18 -11 -5 -31 20 -31 28 0 35 -27 13 -51 -17 -19 -17
-19 20 -4 21 9 41 14 44 11 2 -3 -4 -9 -14 -12 -14 -5 -97 -52 -142 -80 -4 -3
33 -69 79 -141 26 -43 26 -43 27 0 1 24 6 55 11 70 11 28 4 33 -52 36 -62 2
-62 20 3 61 39 25 56 30 80 25 43 -9 37 23 -14 81 -41 45 -51 50 -75 35z m9
-242 c0 -6 -4 -7 -10 -4 -5 3 -10 11 -10 16 0 6 5 7 10 4 6 -3 10 -11 10 -16z"/>
<path d="M1049 1634 c-1 -71 0 -154 1 -185 1 -33 -4 -65 -12 -78 -11 -18 -11
-23 2 -31 12 -7 12 -12 2 -22 -18 -18 -15 -48 5 -48 14 0 14 -2 -3 -21 -12
-13 -15 -23 -7 -27 5 -4 9 -23 8 -42 -1 -19 1 -40 6 -45 10 -13 15 -377 5
-393 -4 -7 -12 -10 -17 -7 -5 4 -19 -1 -31 -9 -12 -9 -34 -16 -48 -16 -17 0
-21 3 -12 9 11 7 10 9 -3 14 -9 4 -18 1 -21 -8 -4 -8 -10 -15 -16 -15 -28 0
-48 -44 -24 -53 19 -7 78 21 71 34 -11 16 27 9 40 -7 11 -16 20 -15 121 4 128
24 135 21 127 -56 -6 -58 -16 -66 -96 -81 -34 -7 -93 -18 -130 -25 -69 -14
-69 -14 -108 47 -21 33 -39 63 -39 67 0 5 -7 11 -16 14 -16 6 -17 8 28 -63 33
-54 35 -66 7 -51 -11 7 -23 9 -26 7 -2 -3 5 -10 16 -17 34 -18 24 -28 -19 -20
-22 4 -41 5 -44 3 -8 -8 18 -88 32 -99 8 -6 12 -17 9 -25 -4 -12 -6 -11 -6 1
-1 8 -25 26 -54 39 -29 13 -46 25 -39 28 8 3 19 0 25 -6 6 -6 15 -11 20 -11
13 0 -15 24 -43 37 -25 12 -25 12 0 13 23 1 23 2 5 9 -11 5 -24 6 -28 4 -5 -3
-7 3 -5 13 2 13 18 23 53 31 50 12 50 12 -10 6 -60 -5 -60 -5 -18 26 59 43 67
101 28 214 -11 33 -11 38 2 35 30 -6 58 -57 58 -104 0 -44 10 -58 21 -29 8 20
-22 105 -42 119 -18 14 -33 78 -34 147 0 60 -15 76 -76 84 -40 5 -52 3 -57 -8
-8 -20 27 -28 64 -15 23 8 33 7 42 -2 9 -10 8 -12 -5 -7 -20 7 -35 -9 -16 -16
8 -4 7 -6 -4 -6 -9 -1 -20 4 -24 10 -5 8 -8 8 -13 0 -10 -16 -71 15 -71 36 0
24 -68 9 -100 -22 -32 -30 -49 -19 -20 12 36 39 -5 36 -44 -3 -14 -14 -19 -13
-53 13 -21 15 -41 32 -45 38 -4 5 -11 6 -15 1 -4 -4 0 -13 9 -20 10 -7 22 -24
27 -37 7 -18 10 -20 10 -6 1 10 6 15 11 12 15 -9 12 -22 -5 -29 -19 -7 -55 14
-55 31 0 8 -7 10 -17 6 -16 -6 -17 -5 -3 11 13 17 11 22 -30 57 -45 39 -45 39
-54 8 -9 -29 -12 -31 -46 -25 -38 6 -92 -22 -129 -68 -8 -10 -27 -24 -43 -32
-15 -8 -28 -21 -28 -29 0 -18 19 -19 40 -4 13 9 12 10 -3 5 -25 -8 -22 -5 30
39 26 21 43 34 39 27 -10 -17 4 -15 25 4 16 14 23 15 48 4 30 -12 30 -12 10
-43 -10 -18 -19 -38 -19 -45 0 -8 -9 -25 -19 -38 -21 -27 -29 -126 -8 -105 13
13 47 -14 47 -38 -1 -13 -3 -13 -15 3 -8 11 -15 15 -15 9 0 -12 18 -28 32 -28
12 0 21 -15 9 -15 -8 0 -10 -7 -6 -20 7 -23 4 -24 -47 -10 -29 9 -44 22 -72
67 -36 58 -50 58 -20 2 12 -23 13 -34 4 -44 -7 -8 -10 -20 -7 -27 3 -8 6 -6 6
5 1 29 24 15 45 -27 22 -45 38 -108 25 -100 -13 8 -11 -10 2 -23 6 -6 -11 -1
-37 13 -27 13 -55 24 -61 24 -7 0 -13 3 -14 8 -3 34 -10 76 -13 79 -2 3 -5
-56 -5 -130 -1 -99 2 -136 12 -140 9 -3 11 16 9 84 -2 49 -2 89 1 89 15 0 90
-40 132 -71 28 -21 84 -55 125 -76 41 -22 93 -52 114 -67 21 -14 46 -26 55
-25 11 0 9 4 -6 11 -26 12 -32 33 -7 24 9 -3 20 -6 25 -6 5 0 14 -11 19 -25 8
-20 50 -38 50 -21 0 10 -113 116 -124 116 -6 -1 3 -12 19 -26 30 -26 30 -26 4
-20 -41 9 -115 44 -130 62 -16 20 2 34 47 34 17 0 45 5 63 11 34 12 101 4 101
-12 0 -6 12 -26 26 -45 28 -36 23 -44 -14 -18 -13 9 -22 11 -22 4 0 -6 12 -16
27 -23 15 -6 36 -20 45 -29 10 -10 27 -18 37 -18 11 0 21 -5 23 -11 3 -8 27
-8 83 -1 44 5 87 6 96 1 22 -11 39 -77 38 -150 -1 -53 -2 -59 -9 -35 -5 16 -7
33 -4 38 3 4 0 8 -5 8 -6 0 -11 -5 -11 -11 0 -5 -17 2 -37 18 -40 29 -33 15
20 -39 10 -11 17 -33 17 -56 0 -42 26 -76 51 -68 8 2 43 7 79 10 59 6 63 5 46
-9 -19 -14 -18 -15 16 -15 20 0 72 7 115 15 101 19 96 20 91 -19 -4 -33 -4
-33 39 -33 43 0 43 0 43 52 0 35 5 57 15 65 22 18 18 25 -14 25 -16 0 -27 -3
-25 -7 2 -4 -17 -10 -43 -13 -27 -4 -116 -18 -200 -31 -196 -31 -187 -31 -180
9 3 17 11 74 18 125 13 95 26 125 22 50 -1 -38 -1 -37 8 12 6 30 16 67 24 82
7 15 11 36 8 46 -2 11 0 23 6 26 7 5 11 -4 11 -24 0 -38 14 -36 91 15 48 32
169 58 187 41 3 -4 7 -35 9 -69 2 -34 8 -75 13 -91 17 -51 13 -85 -12 -90 -54
-11 -157 -26 -181 -26 -40 0 -33 16 11 23 20 4 46 8 57 11 11 2 30 5 41 5 20
1 21 6 17 49 -2 26 -5 61 -7 77 -2 24 -7 30 -24 29 -121 -4 -112 0 -112 -46
-2 -128 -26 -165 -112 -167 -64 -2 -41 -31 23 -31 17 0 28 4 24 10 -8 13 39
24 75 16 38 -7 190 12 207 26 7 6 13 27 13 47 1 36 1 36 17 6 9 -16 23 -46 30
-65 14 -35 14 -35 10 -4 -2 24 1 30 17 32 17 1 18 -1 6 -8 -16 -11 -7 -12 83
-12 55 0 64 5 71 44 3 19 -1 31 -11 37 -14 8 -15 13 -3 40 13 32 13 32 48 -31
19 -35 38 -65 42 -68 4 -3 10 -15 14 -27 4 -13 13 -23 21 -23 7 0 16 -8 20
-17 7 -20 16 -9 30 37 6 20 5 23 -6 13 -15 -15 -33 -17 -24 -3 3 5 -5 16 -18
25 -31 20 -87 124 -87 159 0 17 -4 25 -11 20 -8 -4 -9 11 -5 52 3 33 6 72 7
88 1 16 8 36 16 44 8 8 12 23 10 33 -7 27 44 26 68 -1 16 -18 17 -23 5 -45
-18 -34 -9 -39 21 -12 14 12 18 18 10 12 -12 -8 -13 -4 -8 30 4 27 3 35 -3 25
-7 -11 -10 -11 -10 -2 0 21 102 141 134 157 16 8 41 15 55 14 24 0 24 -1 6 -9
-19 -8 -19 -9 2 -9 12 -1 28 5 35 12 7 6 22 12 33 13 11 0 40 4 65 8 33 5 41
4 30 -3 -12 -9 -10 -10 10 -9 23 2 64 -21 260 -147 36 -22 91 -56 123 -75 31
-19 57 -38 57 -42 0 -4 10 -16 22 -28 22 -20 22 -20 -1 -20 -12 0 -32 5 -44
11 -20 10 -21 10 -7 -5 9 -9 29 -18 45 -20 40 -5 66 -16 60 -26 -8 -13 6 -40
21 -40 8 0 13 -8 11 -20 -4 -22 -17 -39 -17 -21 0 7 -4 9 -10 6 -5 -3 -10 -2
-10 4 0 5 -13 3 -30 -5 -37 -19 -54 -11 -39 19 12 22 12 22 -9 4 -22 -20 -47
-14 -38 9 3 8 1 14 -4 14 -6 0 -10 -11 -10 -25 0 -15 6 -25 14 -25 9 0 12 -7
9 -20 -5 -21 -33 -28 -33 -9 0 5 5 7 10 4 6 -3 10 -2 10 4 0 5 -9 13 -20 16
-11 3 -20 10 -20 15 0 5 -8 7 -17 4 -14 -5 -15 -4 -4 4 8 6 21 8 28 5 10 -4
14 0 13 13 -4 34 0 43 13 38 8 -3 14 2 14 10 0 8 -3 15 -6 14 -19 -2 -24 4
-11 12 13 8 13 10 -1 10 -9 0 -19 7 -23 15 -3 8 -13 15 -23 15 -14 0 -15 -2
-5 -9 17 -10 42 -58 35 -65 -3 -3 -20 2 -37 11 -29 15 -30 15 -17 0 7 -10 20
-17 28 -17 13 0 13 -3 3 -15 -7 -8 -18 -15 -24 -15 -6 0 -4 5 4 10 12 7 11 9
-5 8 -11 0 -29 3 -40 7 -17 6 -17 5 3 -9 12 -10 22 -25 22 -34 0 -10 9 -23 21
-30 12 -8 18 -9 14 -3 -3 6 -2 11 3 11 6 0 12 -7 16 -15 3 -8 1 -15 -5 -15 -6
0 -7 -4 -4 -10 3 -5 -1 -10 -9 -10 -9 0 -16 4 -16 9 0 5 -16 18 -35 30 -19 11
-35 17 -35 12 0 -4 11 -13 25 -19 14 -6 25 -19 25 -28 0 -15 -2 -15 -22 2 -19
16 -20 16 -9 1 18 -23 15 -25 -48 -37 -43 -8 -57 -7 -77 6 -15 10 -24 12 -25
5 -4 -36 -4 -36 -40 -44 -24 -6 -26 -4 -21 18 2 14 0 25 -5 25 -5 0 -9 -10
-10 -21 -1 -12 -4 -24 -7 -26 -9 -9 -67 -13 -79 -6 -17 10 -58 13 -52 3 3 -4
-1 -11 -7 -13 -7 -3 -4 -6 7 -7 35 -1 -4 -17 -63 -24 -37 -5 -52 -4 -47 4 3 5
1 10 -4 10 -6 0 -11 -9 -11 -21 0 -16 4 -20 18 -14 9 3 40 9 67 12 28 3 55 10
61 14 6 5 42 13 80 19 76 11 92 14 114 23 43 16 282 67 290 62 6 -4 10 6 10
22 1 25 2 26 14 11 16 -22 23 -22 78 -4 24 7 69 19 101 25 66 14 75 34 25 56
-47 20 -25 18 71 -6 84 -21 84 -21 105 4 21 26 21 26 65 3 42 -22 43 -24 24
-34 -54 -29 -22 -80 79 -126 66 -30 78 -32 78 -11 0 30 31 66 46 54 9 -7 14
-8 14 -1 0 6 -5 12 -10 14 -6 2 -12 17 -13 33 -2 20 -10 33 -25 40 -23 10 -28
30 -13 54 8 12 15 13 35 3 24 -10 25 -10 17 11 -10 26 -4 48 17 65 14 11 14
12 -4 12 -27 0 -36 10 -24 25 6 7 14 55 19 106 5 52 10 99 11 104 4 20 0 36
-8 31 -5 -3 -46 9 -93 25 -67 24 -76 29 -44 26 22 -2 48 -7 58 -11 13 -6 16
-5 11 8 -3 9 -17 16 -30 16 -38 0 -208 31 -219 40 -5 4 -37 15 -70 24 -33 8
-61 20 -63 26 -2 5 -9 7 -15 3 -7 -4 -6 1 2 10 15 19 36 24 25 6 -4 -8 0 -9
15 -4 14 4 23 1 27 -9 3 -9 16 -16 28 -16 11 0 55 -12 95 -25 58 -19 77 -22
83 -12 11 17 10 24 -4 24 -22 0 -132 34 -145 45 -22 18 -4 38 30 31 67 -12
159 -46 147 -53 -9 -5 -5 -10 11 -15 13 -4 34 -17 47 -28 27 -25 30 -12 3 17
-17 20 -18 31 -7 224 6 112 8 206 4 209 -5 2 -8 -3 -8 -12 0 -9 -4 -14 -9 -10
-6 3 -32 8 -58 10 -26 3 -68 12 -93 20 -25 7 -68 16 -97 19 -184 18 -183 17
-183 140 0 106 -9 152 -24 127 -4 -6 -2 -11 5 -11 17 0 -5 -554 -24 -577 -6
-9 -6 -13 2 -13 6 0 11 -14 11 -31 0 -32 -3 -33 -65 -9 -24 10 -85 72 -89 91
-7 37 -62 128 -86 143 -36 21 -43 20 -35 -4 9 -28 -21 -38 -40 -14 -8 11 -15
14 -15 7 0 -6 10 -19 23 -28 15 -12 18 -19 10 -22 -8 -3 -13 -25 -13 -58 0
-30 -5 -57 -10 -60 -6 -4 -10 -3 -9 2 1 4 -1 20 -5 35 -5 15 -3 35 4 48 9 17
9 25 0 34 -8 8 -10 7 -5 -6 5 -11 2 -18 -5 -18 -9 0 -11 12 -7 40 3 25 0 43
-7 50 -21 16 -26 0 -24 -74 1 -71 1 -71 8 -16 7 55 7 55 8 8 1 -25 5 -54 9
-64 5 -13 3 -16 -10 -11 -13 5 -16 -2 -19 -31 -3 -36 -4 -37 -53 -43 -99 -12
-150 -22 -155 -30 -7 -10 -134 -27 -198 -25 -28 0 -52 -2 -52 -6 0 -5 -7 -8
-15 -8 -8 0 -15 3 -15 8 0 8 -75 2 -243 -17 -54 -7 -105 -11 -115 -10 -47 4
-52 0 -40 -28 14 -34 31 -55 26 -33 -5 22 100 32 106 10 3 -12 4 -11 5 3 1 21
21 23 21 1 0 -8 5 -12 10 -9 6 4 8 10 5 15 -3 5 -1 11 5 15 5 3 10 -3 10 -13
0 -15 5 -19 20 -15 11 3 20 12 20 19 0 8 9 14 20 14 11 0 20 -4 20 -10 0 -5
-7 -7 -15 -4 -8 4 -15 1 -15 -5 0 -6 11 -11 25 -11 19 0 25 5 23 17 -2 13 4
18 24 18 15 0 30 4 34 8 11 11 112 8 119 -3 16 -27 -20 -50 -78 -50 -33 0 -56
-4 -52 -9 3 -5 -8 -9 -23 -9 -16 1 -34 -2 -41 -6 -6 -4 -11 -2 -11 5 0 10 -3
10 -12 1 -15 -15 -65 -16 -74 -1 -5 8 -8 8 -14 0 -3 -6 -31 -14 -60 -18 -51
-6 -53 -5 -48 15 4 12 2 22 -3 22 -5 0 -9 -11 -9 -25 0 -22 -4 -25 -36 -25
-21 0 -33 -4 -29 -10 5 -9 -33 -15 -82 -13 -7 1 -13 -3 -13 -8 0 -10 53 -6
185 16 147 23 357 47 364 40 11 -11 -48 -54 -82 -59 -138 -21 -290 -34 -311
-27 -25 10 -34 -15 -11 -31 14 -11 -17 -10 -33 1 -16 9 -139 -14 -158 -30 -16
-13 -21 14 -28 158 -5 90 -4 103 11 112 17 10 17 10 1 11 -16 0 -18 11 -18 81
0 71 2 80 15 69 12 -10 15 -9 15 4 0 9 -7 19 -15 22 -17 7 -22 84 -6 84 20 0
41 -33 41 -63 0 -50 12 -62 51 -51 33 10 33 10 11 32 -13 13 -20 28 -16 34 5
7 12 5 22 -8 14 -18 14 -18 8 -1 -3 10 -6 27 -6 37 0 11 -14 35 -30 54 -24 27
-29 38 -21 57 8 23 9 22 16 -10 7 -31 9 -33 20 -18 9 13 27 17 69 17 31 0 56
4 56 9 0 5 -30 6 -67 4 -38 -3 -65 -2 -61 2 8 8 30 12 93 14 32 1 37 4 22 12
-9 5 -23 7 -30 4 -6 -4 -3 1 8 10 19 16 16 17 -58 13 -43 -3 -83 -10 -89 -16
-6 -6 -17 -8 -24 -5 -8 3 -14 0 -14 -6 0 -6 5 -11 10 -11 6 0 10 -9 10 -20 0
-11 -6 -20 -14 -20 -18 0 -24 70 -26 275 0 87 -3 161 -5 164 -3 2 -6 -54 -6
-125z m1520 -328 c-9 -8 -10 -7 -5 7 3 10 7 35 8 55 1 35 2 35 5 -7 3 -26 -1
-48 -8 -55z m66 77 c5 -15 4 -16 -6 -5 -26 25 -30 10 -27 -105 3 -118 3 -118
80 -144 54 -19 75 -23 71 -13 -3 7 -8 13 -11 12 -4 -1 -30 6 -59 15 -51 18
-51 18 -51 97 0 44 -3 88 -7 100 -8 26 7 26 30 0 24 -27 34 -123 12 -114 -22
8 -29 -10 -16 -40 7 -15 19 -24 31 -23 20 1 20 2 -1 15 -12 8 -21 19 -21 24 0
6 7 5 15 -2 13 -11 15 -8 15 16 1 69 32 62 45 -10 6 -28 5 -37 -4 -32 -6 4
-12 17 -12 29 -1 17 -2 18 -6 5 -2 -10 5 -30 18 -45 22 -28 22 -28 16 22 -8
64 -22 135 -32 158 -4 10 -3 17 4 17 6 0 11 -8 11 -17 1 -10 15 -34 32 -53 31
-35 31 -35 3 15 -15 28 -22 44 -14 38 18 -18 30 -16 22 4 -5 14 -1 15 27 9 18
-3 30 -3 27 1 -4 4 -26 10 -50 14 -42 8 -42 8 -2 4 22 -1 63 -9 90 -17 49 -14
50 -15 56 -59 6 -44 6 -44 7 -1 2 41 3 43 30 40 23 -3 28 -9 31 -38 4 -35 4
-35 11 0 3 19 4 -23 2 -95 -3 -71 -8 -137 -13 -145 -4 -8 -5 32 -2 90 3 58 3
103 0 100 -3 -3 -9 -59 -13 -125 -3 -66 -9 -124 -12 -129 -3 -5 2 -7 11 -3 10
3 17 2 17 -3 0 -15 -17 -12 -60 10 -22 11 -40 18 -40 14 0 -3 -10 0 -22 8 -13
8 -52 22 -88 32 -142 38 -170 47 -182 60 -10 9 -12 48 -10 149 3 125 5 137 21
137 11 0 22 -8 26 -17z m-1450 -3 c-3 -5 -10 -10 -16 -10 -5 0 -9 5 -9 10 0 6
7 10 16 10 8 0 12 -4 9 -10z m1513 -35 c26 -54 26 -56 8 -49 -15 6 -22 19 -36
67 -13 42 4 32 28 -18z m-1581 -7 c-3 -8 -6 -5 -6 6 -1 11 2 17 5 13 3 -3 4
-12 1 -19z m23 -65 c0 -7 8 -13 18 -13 12 0 14 -2 4 -8 -7 -5 -10 -16 -6 -26
6 -16 5 -17 -14 -5 -13 8 -20 21 -18 34 2 11 1 14 -1 7 -3 -9 -12 -5 -29 13
-29 31 -29 32 -6 38 20 4 52 -20 52 -40z m1430 -68 c0 -41 -3 -75 -7 -75 -5 0
-7 34 -5 75 5 97 12 97 12 0z m47 38 c-4 -3 -7 0 -7 7 0 7 3 10 7 7 3 -4 3
-10 0 -14z m-297 -17 c0 -2 7 -21 16 -42 15 -35 15 -37 0 -25 -30 25 -16 -6
19 -42 40 -41 44 -57 16 -57 -21 0 -66 52 -74 85 -4 19 -5 19 -6 -2 0 -12 10
-35 24 -51 20 -24 25 -41 25 -85 0 -56 0 -56 55 -81 63 -29 74 -57 28 -74 -27
-10 -27 -10 -4 -11 33 -1 22 -58 -25 -127 -66 -98 -37 -106 -338 87 -46 30
-52 31 -120 25 -70 -6 -73 -6 -99 22 -27 28 -27 28 95 40 85 8 124 8 127 1 2
-6 9 2 17 17 16 31 10 46 -9 22 -12 -16 -212 -46 -224 -34 -3 3 -14 1 -25 -5
-23 -12 -59 13 -57 40 0 10 2 12 6 4 2 -7 9 -13 15 -13 6 0 8 7 5 15 -4 8 -2
17 3 20 6 4 10 0 10 -7 0 -10 17 -14 61 -15 54 -1 60 0 56 16 -4 17 7 20 102
32 58 7 121 13 139 13 29 -1 33 2 28 21 -4 16 -1 21 14 21 11 0 20 -1 20 -2 0
-21 -24 -54 -38 -54 -11 0 -31 -9 -45 -20 -25 -20 -25 -22 -11 -55 8 -19 14
-45 14 -57 0 -19 6 -23 31 -24 20 -1 26 2 17 7 -7 5 -9 9 -5 9 5 0 0 16 -12
36 -27 46 -27 58 2 44 22 -11 22 -11 -1 9 -13 11 -21 24 -18 29 6 10 65 8 109
-3 17 -4 27 -3 27 3 0 6 -16 14 -36 18 -28 5 -34 10 -28 23 4 9 7 25 8 36 1
11 6 29 13 40 10 18 12 16 27 -18 8 -20 20 -37 26 -37 7 0 10 -13 8 -32 -2
-19 2 -33 10 -35 24 -9 13 56 -19 100 -30 44 -57 123 -36 110 6 -4 8 3 3 20
-9 37 12 69 36 56 10 -5 18 -11 18 -13z m-1177 -46 c-7 -28 -13 -25 -13 6 0
14 4 23 9 20 5 -3 7 -15 4 -26z m-849 -112 c0 -23 2 -25 15 -15 14 11 14 10 2
-5 -7 -10 -19 -18 -25 -18 -7 0 -13 -14 -14 -30 -1 -17 -11 -44 -21 -60 -18
-30 -18 -80 0 -80 15 0 -14 -38 -37 -49 -25 -11 -34 -6 -34 21 0 11 -5 16 -10
13 -27 -17 -19 31 14 80 38 58 45 62 64 43 9 -9 12 -9 12 0 0 6 -9 16 -20 22
-20 11 -18 29 12 88 16 31 43 24 42 -10z m2279 -10 c-5 -22 -5 -22 9 -5 14 18
16 18 52 -7 22 -14 44 -26 49 -26 26 0 -11 -19 -43 -22 -31 -3 -35 0 -34 20 1
27 -7 28 -24 2 -19 -31 -30 -24 -30 20 -1 27 4 40 13 40 9 0 11 -8 8 -22z
m-2379 6 c19 -7 11 -24 -10 -24 -8 0 -13 4 -10 9 4 5 0 12 -6 14 -9 4 -9 6 -1
6 6 1 18 -2 27 -5z m2503 -26 c15 -6 37 -13 47 -15 26 -5 34 -13 12 -13 -11 0
-14 -4 -10 -12 4 -7 -6 -3 -22 9 -16 11 -38 25 -49 31 -26 15 -14 15 22 0z
m73 2 c0 -5 -4 -10 -9 -10 -6 0 -13 5 -16 10 -3 6 1 10 9 10 9 0 16 -4 16 -10z
m-301 -33 c47 -19 109 -41 136 -50 50 -15 471 -159 502 -172 14 -5 14 -8 5
-14 -8 -5 -42 2 -80 17 -84 30 -363 129 -417 147 -94 31 -241 87 -249 96 -18
17 16 9 103 -24z m-1860 19 c-2 -2 -17 -6 -34 -10 -22 -5 -26 -4 -15 4 14 9
59 15 49 6z m1486 -16 c-3 -5 -10 -10 -16 -10 -5 0 -9 5 -9 10 0 6 7 10 16 10
8 0 12 -4 9 -10z m-1730 -25 c14 -13 25 -31 25 -40 0 -23 -9 -18 -21 13 -6 15
-13 22 -16 15 -7 -20 16 -53 38 -53 16 0 19 4 14 20 -6 20 9 28 20 10 3 -5 15
-10 25 -10 10 0 23 -7 28 -16 6 -10 12 -12 16 -6 3 5 -5 17 -19 26 -14 9 -25
25 -25 36 0 25 5 25 28 3 11 -10 33 -26 50 -35 21 -11 32 -25 33 -40 0 -13 3
-18 5 -11 4 9 13 9 31 2 14 -5 28 -7 31 -4 3 3 -9 11 -26 17 -31 12 -45 29
-19 24 101 -21 107 -25 85 -58 -15 -22 -93 -34 -115 -17 -8 7 -26 5 -55 -5
-34 -12 -38 -15 -18 -16 15 0 31 5 38 12 9 9 17 9 36 -1 15 -8 36 -10 56 -6
51 11 33 -16 -22 -32 -25 -7 -51 -20 -58 -28 -7 -8 -27 -15 -44 -15 -17 -1
-54 -11 -83 -23 -29 -13 -67 -22 -86 -22 -43 2 -50 -36 -10 -54 32 -15 63 -14
63 2 0 8 21 12 70 12 75 0 95 -16 44 -35 -17 -7 -24 -15 -20 -25 4 -10 -6 -22
-27 -35 -35 -22 -52 -26 -42 -10 3 6 1 10 -4 10 -6 0 -11 -15 -11 -32 0 -18 4
-28 8 -22 10 15 40 25 47 15 6 -11 -63 -53 -76 -46 -5 4 -9 15 -9 25 0 11 -10
26 -22 34 -58 38 -100 105 -104 166 -6 81 17 96 79 50 29 -21 43 -27 46 -18 2
7 9 19 15 27 9 12 8 14 -5 9 -10 -4 -23 2 -33 14 -21 24 -15 35 7 13 9 -8 23
-15 31 -15 9 0 16 -5 16 -11 0 -5 5 -7 10 -4 17 11 11 24 -15 31 -18 4 -25 13
-26 33 -2 23 -2 24 -6 4 -6 -33 -43 -12 -43 25 0 15 -5 34 -10 42 -8 13 -10
12 -10 -2 0 -10 -4 -18 -10 -18 -13 0 -12 11 4 32 10 14 15 15 25 5 10 -9 11
-6 6 15 -13 52 20 64 60 23z m248 8 c-7 -2 -21 -2 -30 0 -10 3 -4 5 12 5 17 0
24 -2 18 -5z m-178 -13 c3 -5 1 -10 -4 -10 -6 0 -11 5 -11 10 0 6 2 10 4 10 3
0 8 -4 11 -10z m232 3 c-4 -3 -10 -3 -14 0 -3 4 0 7 7 7 7 0 10 -3 7 -7z
m1798 -39 c47 -4 58 -12 42 -28 -10 -12 -13 -11 -19 3 -6 14 -7 14 -7 -1 -1
-30 -90 26 -91 56 0 5 9 1 20 -9 11 -10 36 -19 55 -21z m0 26 c13 -6 15 -9 5
-9 -8 0 -22 4 -30 9 -18 12 -2 12 25 0z m-568 -22 c-3 -8 -6 -5 -6 6 -1 11 2
17 5 13 3 -3 4 -12 1 -19z m-1120 -40 c-2 -13 -4 -5 -4 17 -1 22 1 32 4 23 2
-10 2 -28 0 -40z m1066 45 c-7 -2 -19 -2 -25 0 -7 3 -2 5 12 5 14 0 19 -2 13
-5z m34 0 c-4 -3 -10 -3 -14 0 -3 4 0 7 7 7 7 0 10 -3 7 -7z m-1138 -50 c0
-48 0 -48 -13 -13 -13 36 -11 60 5 60 5 0 9 -21 8 -47z m558 10 c-4 -3 -7 0
-7 7 0 7 3 10 7 7 3 -4 3 -10 0 -14z m193 -3 c0 -5 -4 -10 -10 -10 -5 0 -10 5
-10 10 0 6 5 10 10 10 6 0 10 -4 10 -10z m-1203 -17 c-4 -3 -10 -3 -14 0 -3 4
0 7 7 7 7 0 10 -3 7 -7z m2370 -33 c108 -41 132 -54 120 -66 -4 -4 -46 10 -94
30 -49 20 -95 36 -103 36 -8 0 -21 9 -28 20 -16 26 -20 27 105 -20z m-917 -22
c0 -39 -1 -40 -15 -22 -8 11 -15 14 -15 7 0 -23 -2 -27 -27 -78 -30 -58 -51
-85 -69 -85 -12 0 29 76 97 182 30 46 29 46 29 -4z m72 13 c33 -29 33 -29 6
-36 -41 -11 -61 -3 -63 25 -4 49 11 52 57 11z m711 12 c-11 -32 -44 -73 -58
-73 -9 0 -12 6 -9 15 4 8 10 12 15 9 5 -3 9 1 9 8 0 15 31 58 42 58 4 0 5 -8
1 -17z m197 6 c-12 -9 -11 -10 8 -6 12 3 20 2 17 -3 -5 -8 18 -20 38 -20 7 0
6 4 -3 10 -20 13 -10 12 28 -1 18 -6 29 -15 26 -21 -4 -6 1 -8 12 -4 23 6 240
-66 237 -80 0 -5 4 -12 9 -16 18 -10 10 -131 -8 -145 -9 -6 -17 -26 -19 -43
-3 -37 -10 -46 -27 -33 -7 5 -29 16 -48 23 -75 28 -100 43 -100 59 0 13 2 13
9 2 5 -8 9 4 9 34 1 46 1 47 -46 67 -57 26 -112 60 -112 71 0 5 10 1 22 -7 33
-24 36 -20 25 28 -9 40 -13 44 -59 61 -35 12 -46 20 -36 26 19 13 36 11 18 -2z
m-2430 -31 c0 -7 10 -23 23 -37 22 -26 22 -26 -5 -3 -24 22 -47 69 -27 56 5
-3 9 -10 9 -16z m2310 -10 c0 -6 -6 -5 -15 2 -8 7 -15 14 -15 16 0 2 7 1 15
-2 8 -4 15 -11 15 -16z m-1854 -17 c-9 -13 -93 -15 -101 -2 -3 6 11 13 32 16
21 4 43 8 48 10 15 4 28 -12 21 -24z m1829 6 c11 -8 57 -28 102 -46 85 -34
137 -72 79 -57 -61 15 -211 86 -214 101 -4 19 7 19 33 2z m125 -29 c0 -6 8 -7
18 -3 14 5 15 4 4 -7 -10 -10 -17 -8 -35 10 -17 18 -18 22 -4 16 9 -3 17 -11
17 -16z m-1936 -3 c-7 -18 -48 -30 -65 -19 -8 4 0 11 22 19 47 17 49 17 43 0z
m13 -72 c-2 -16 -4 -5 -4 22 0 28 2 40 4 28 2 -13 2 -35 0 -50z m846 50 c-4
-11 -3 -14 5 -9 8 5 10 2 6 -8 -3 -9 -10 -16 -16 -16 -5 0 -7 -4 -4 -8 3 -5
-7 -24 -23 -42 -33 -40 -55 -38 -124 15 -63 48 -58 58 43 71 123 16 120 16
113 -3z m-1018 -3 c3 -5 1 -10 -4 -10 -6 0 -11 5 -11 10 0 6 2 10 4 10 3 0 8
-4 11 -10z m75 4 c0 -7 -40 -58 -41 -53 0 2 -2 12 -4 21 -2 10 4 22 13 28 20
11 32 13 32 4z m-122 -16 c-3 -7 -8 -13 -13 -13 -5 0 -10 6 -12 13 -3 6 3 12
12 12 9 0 15 -6 13 -12z m1952 -9 c10 -5 -1 -8 -32 -9 -27 0 -48 4 -48 9 0 21
43 21 80 0z m-1762 -22 c14 -39 15 -67 3 -67 -9 0 -25 54 -24 78 1 9 -6 12
-18 9 -10 -3 -17 -1 -13 4 12 21 40 8 52 -24z m1879 26 c-4 -3 -10 -3 -14 0
-3 4 0 7 7 7 7 0 10 -3 7 -7z m-2098 -19 c7 -6 -67 -34 -89 -34 -46 0 -78 34
-42 43 17 5 124 -2 131 -9z m934 -44 c31 -25 57 -47 57 -50 0 -10 -131 -40
-184 -42 -48 -3 -48 -3 -62 47 -7 28 -16 59 -19 70 -6 19 -1 20 72 20 77 0 79
0 136 -45z m1148 33 c13 -16 12 -17 -3 -4 -17 13 -22 21 -14 21 2 0 10 -8 17
-17z m73 -30 c3 -10 3 -37 1 -60 -6 -58 11 -55 20 3 6 45 -2 65 -40 97 -6 5
-1 6 10 2 11 -4 38 -12 60 -17 131 -32 150 -42 148 -77 -2 -40 -23 -68 -23
-30 0 19 -2 21 -10 9 -6 -10 -10 -11 -10 -2 0 6 -7 12 -15 12 -8 0 -15 5 -15
11 0 7 12 8 33 4 39 -8 26 10 -14 20 -23 6 -27 2 -39 -35 -13 -39 -15 -40 -49
-35 -36 6 -36 6 4 -11 85 -34 83 -33 60 -33 -11 0 -51 8 -88 18 -42 12 -67 15
-64 8 2 -6 17 -14 33 -18 16 -3 55 -12 87 -19 51 -12 77 -30 45 -30 -7 0 -5
-5 5 -11 16 -9 15 -12 -9 -43 -26 -33 -26 -33 -93 -15 -36 9 -97 25 -136 35
-70 18 -70 18 -35 33 19 8 42 14 50 13 10 -1 11 0 2 4 -9 4 -8 12 6 32 10 15
25 53 32 84 12 54 12 60 -6 79 -19 22 -19 22 13 5 17 -8 34 -24 37 -33z
m-2082 18 c-17 -11 13 -42 34 -35 12 3 9 -1 -6 -11 -25 -15 -25 -15 10 -11 40
6 82 -2 75 -14 -3 -4 -25 -11 -50 -14 -25 -4 -52 -14 -60 -22 -13 -13 -20 -14
-45 -2 -30 13 -36 35 -16 67 7 11 6 12 -5 6 -12 -8 -12 -6 0 8 7 9 20 17 28
17 7 0 16 7 19 15 4 8 11 12 16 9 7 -4 7 -9 0 -13z m463 9 c-4 -6 -11 -7 -17
-4 -6 4 -8 2 -4 -4 3 -6 2 -13 -4 -17 -5 -3 -10 -4 -10 -1 0 2 -3 11 -6 20 -5
12 0 16 21 16 15 0 24 -4 20 -10z m134 6 c-2 -2 -17 -6 -34 -10 -22 -5 -26 -4
-15 4 14 9 59 15 49 6z m1391 -16 c45 -23 46 -27 24 -96 -29 -88 -85 -117
-141 -70 -15 13 -51 38 -80 55 -52 32 -52 32 -15 81 37 49 37 49 105 49 49 1
79 -5 107 -19z m-2231 -16 c2 -2 2 -6 0 -9 -8 -7 -49 7 -49 17 0 8 38 2 49 -8z
m358 -1 c-4 -3 -7 0 -7 7 0 7 3 10 7 7 3 -4 3 -10 0 -14z m-532 -13 c3 -5 -3
-10 -14 -10 -11 0 -23 5 -26 10 -3 6 3 10 14 10 11 0 23 -4 26 -10z m337 -42
c-19 -19 -15 -26 28 -48 44 -23 46 -25 26 -33 -8 -3 -24 4 -36 15 -21 19 -24
20 -54 5 -27 -12 -74 -8 -56 5 3 2 22 15 42 28 21 14 38 28 38 33 0 4 5 7 12
7 9 0 9 -3 0 -12z m248 1 c0 -11 -40 -32 -48 -25 -3 3 0 6 6 6 7 0 12 6 12 13
0 8 7 14 15 14 8 0 15 -4 15 -8z m487 -11 c-3 -8 -6 -5 -6 6 -1 11 2 17 5 13
3 -3 4 -12 1 -19z m-1024 -5 c-7 -2 -21 -2 -30 0 -10 3 -4 5 12 5 17 0 24 -2
18 -5z m1270 -35 c3 -13 2 -52 -2 -88 -7 -64 -8 -65 -20 -35 -8 17 -16 51 -19
78 -3 33 -8 45 -16 38 -6 -4 -28 -11 -48 -15 -38 -7 -38 -7 -32 -54 3 -26 8
-53 10 -60 5 -18 -76 47 -84 66 -3 9 0 18 6 20 7 2 12 10 12 18 0 8 6 11 15 8
8 -4 22 -1 29 5 14 12 96 37 127 40 10 0 19 -9 22 -21z m1337 -10 c0 -14 -5
-16 -22 -9 -31 11 -34 29 -3 27 16 -1 25 -7 25 -18z m-2632 2 c-10 -6 -25 -7
-40 -1 -20 9 -18 10 17 10 31 0 36 -2 23 -9z m88 -4 c10 -8 15 -18 11 -22 -4
-4 -17 2 -30 14 -24 25 -12 30 19 8z m979 5 c3 -5 1 -12 -5 -16 -5 -3 -10 1
-10 9 0 18 6 21 15 7z m-755 -21 c0 -13 -11 -13 -30 0 -12 8 -11 10 8 10 12 0
22 -4 22 -10z m2435 -25 c70 -35 70 -35 8 -29 -50 5 -68 3 -89 -11 -25 -16
-27 -16 -21 0 4 9 7 30 7 46 0 37 9 37 95 -6z m-1518 8 c-4 -3 -7 0 -7 7 0 7
3 10 7 7 3 -4 3 -10 0 -14z m-1107 -19 c0 -9 -11 -14 -30 -14 -16 0 -30 -4
-30 -10 0 -5 -7 -6 -17 -3 -11 4 -14 3 -9 -5 5 -8 2 -10 -9 -6 -26 10 6 48 46
55 40 6 49 3 49 -17z m210 7 c19 -4 49 -3 65 2 79 24 129 14 106 -22 -12 -18
21 -55 78 -89 24 -14 39 -28 33 -30 -17 -5 -92 37 -92 53 0 8 -6 15 -13 15
-23 0 -78 31 -72 41 4 5 3 9 -2 10 -4 0 -21 2 -37 4 -30 4 -30 4 -1 -22 15
-15 36 -27 45 -28 33 -2 67 -33 72 -64 6 -38 -19 -43 -28 -7 -3 14 -17 32 -30
41 -26 17 -30 11 -24 -39 1 -11 -3 -15 -9 -12 -6 4 -11 15 -11 26 0 33 -98
120 -136 120 -7 0 -16 5 -20 12 -5 8 0 9 17 4 13 -4 40 -11 59 -15z m670 2
c-19 -8 -37 -18 -40 -22 -7 -11 -70 -22 -70 -12 0 9 105 49 130 49 8 0 -1 -6
-20 -15z m-260 -29 c0 -8 -4 -14 -10 -14 -5 0 -10 9 -10 21 0 11 5 17 10 14 6
-3 10 -13 10 -21z m520 -148 c0 -58 -13 -64 -43 -24 -30 40 -53 163 -35 185
17 21 78 -104 78 -161z m-392 150 c-10 -7 -15 -16 -12 -19 5 -5 -47 -37 -61
-37 -22 0 3 34 38 50 50 22 58 24 35 6z m-78 -6 c0 -5 -5 -10 -11 -10 -5 0 -7
5 -4 10 3 6 8 10 11 10 2 0 4 -4 4 -10z m1987 -26 c3 -8 12 -14 20 -14 8 0 13
-6 10 -12 -2 -7 -9 -12 -15 -11 -7 2 -33 3 -59 4 -46 2 -73 12 -73 29 0 15 31
20 52 9 17 -9 20 -9 15 3 -4 11 1 14 20 10 13 -3 27 -11 30 -18z m63 11 c0 -8
-4 -15 -10 -15 -5 0 -10 7 -10 15 0 8 5 15 10 15 6 0 10 -7 10 -15z m-2451
-58 c2 -15 -36 13 -54 40 -19 28 -19 28 17 -2 20 -16 37 -34 37 -38z m291 -4
c0 -18 -5 -33 -11 -33 -5 0 -8 4 -4 10 3 5 -1 25 -9 44 -8 19 -12 37 -9 40 11
11 32 -29 33 -61z m441 38 c34 -29 35 -31 34 -98 0 -37 3 -74 8 -80 11 -15 41
-18 32 -3 -4 6 -10 8 -14 6 -4 -3 -5 9 -3 26 5 31 5 31 37 -3 39 -41 38 -43
-19 -58 -70 -17 -90 -14 -107 17 -30 50 -31 79 -7 102 22 20 22 22 5 51 -18
32 -23 69 -9 69 4 0 23 -13 43 -29z m124 19 c3 -5 4 -10 1 -10 -3 0 -8 5 -11
10 -3 6 -4 10 -1 10 3 0 8 -4 11 -10z m-198 -77 c-2 -16 -4 -5 -4 22 0 28 2
40 4 28 2 -13 2 -35 0 -50z m-274 32 c-7 -21 -13 -19 -13 6 0 11 4 18 10 14 5
-3 7 -12 3 -20z m1614 18 c-4 -3 -10 -3 -14 0 -3 4 0 7 7 7 7 0 10 -3 7 -7z
m19 -28 c15 -11 16 -14 4 -15 -9 0 -20 4 -25 9 -6 5 -19 11 -30 14 -16 4 -15
5 6 6 14 0 34 -6 45 -14z m-1846 -43 c-7 -3 -19 3 -28 13 -16 15 -15 16 12 4
15 -7 23 -15 16 -17z m525 19 c3 -5 1 -12 -5 -16 -5 -3 -10 1 -10 9 0 18 6 21
15 7z m1648 -8 c-4 -11 -3 -14 5 -9 7 4 12 2 12 -3 0 -6 -11 -11 -25 -11 -27
0 -32 9 -13 28 17 17 28 15 21 -5z m-326 0 c-4 -3 -10 -3 -14 0 -3 4 0 7 7 7
7 0 10 -3 7 -7z m460 -7 c3 -3 -2 -6 -12 -6 -18 0 -18 -1 1 -16 19 -15 19 -15
-1 -10 -58 14 -98 34 -79 38 25 6 83 2 91 -6z m-1921 -53 c-4 -39 -3 -50 3
-33 9 24 9 24 10 -7 1 -23 -4 -33 -14 -33 -11 0 -15 14 -17 58 -1 57 -1 57 -8
-3 -7 -60 -7 -60 -8 -4 -1 38 -7 59 -16 62 -22 9 -26 -2 -26 -65 0 -36 -4 -58
-11 -58 -7 0 -9 9 -5 23 3 12 6 43 6 68 0 45 0 45 46 48 46 2 46 2 40 -56z
m-306 26 c0 -6 -4 -7 -10 -4 -5 3 -10 11 -10 16 0 6 5 7 10 4 6 -3 10 -11 10
-16z m47 -11 c-3 -8 -6 -5 -6 6 -1 11 2 17 5 13 3 -3 4 -12 1 -19z m160 -15
c-3 -10 -5 -4 -5 12 0 17 2 24 5 18 2 -7 2 -21 0 -30z m1440 31 c-3 -3 -12 -4
-19 -1 -8 3 -5 6 6 6 11 1 17 -2 13 -5z m563 -35 c0 -21 -104 -26 -127 -7 -16
13 -17 38 -2 38 5 0 7 -5 3 -11 -3 -6 6 -4 21 4 29 14 105 -3 105 -24z m-1954
-20 c-5 -67 -16 -76 -16 -12 0 43 5 63 16 63 2 0 2 -23 0 -51z m-236 -10 c0
-6 -4 -7 -10 -4 -5 3 -10 11 -10 16 0 6 5 7 10 4 6 -3 10 -11 10 -16z m617
-51 c-3 -8 -6 -5 -6 6 -1 11 2 17 5 13 3 -3 4 -12 1 -19z m-437 2 c0 -5 -5
-10 -11 -10 -5 0 -7 5 -4 10 3 6 8 10 11 10 2 0 4 -4 4 -10z m414 -16 c5 -13
2 -15 -16 -10 -13 3 -30 6 -38 7 -10 0 -8 3 5 9 30 13 42 12 49 -6z m-183
-118 c-6 -7 -9 -21 -5 -30 3 -9 1 -16 -5 -16 -6 0 -11 -9 -11 -19 0 -11 -4
-23 -10 -26 -13 -8 -13 7 0 41 9 23 8 25 -3 15 -11 -9 -17 -8 -27 4 -19 23 -5
33 64 44 5 0 3 -5 -3 -13z m-93 -13 c-10 -2 -26 -2 -35 0 -10 3 -2 5 17 5 19
0 27 -2 18 -5z m-71 -9 c-3 -3 -12 -4 -19 -1 -8 3 -5 6 6 6 11 1 17 -2 13 -5z
m-80 -11 c-4 -3 -10 -3 -14 0 -3 4 0 7 7 7 7 0 10 -3 7 -7z m60 -10 c-4 -3
-10 -3 -14 0 -3 4 0 7 7 7 7 0 10 -3 7 -7z"/>
<path d="M2833 1333 c4 -3 10 -3 14 0 3 4 0 7 -7 7 -7 0 -10 -3 -7 -7z"/>
<path d="M2840 1281 c0 -6 4 -13 10 -16 6 -3 7 1 4 9 -7 18 -14 21 -14 7z"/>
<path d="M2660 1250 c0 -7 3 -10 7 -7 3 4 3 10 0 14 -4 3 -7 0 -7 -7z"/>
<path d="M2868 1200 c3 -38 1 -55 -9 -62 -12 -8 -11 -9 1 -5 18 4 26 78 12
103 -6 11 -8 -1 -4 -36z"/>
<path d="M2920 1230 c0 -7 3 -10 7 -7 3 4 3 10 0 14 -4 3 -7 0 -7 -7z"/>
<path d="M2916 1165 c-4 -27 -13 -57 -19 -65 -10 -13 -10 -13 5 -1 19 14 32
67 26 98 -2 10 -8 -4 -12 -32z"/>
<path d="M2790 1100 c-25 -8 -25 -8 0 -9 14 0 32 4 40 9 19 12 -1 12 -40 0z"/>
<path d="M2863 1083 c4 -3 10 -3 14 0 3 4 0 7 -7 7 -7 0 -10 -3 -7 -7z"/>
<path d="M2296 1217 c3 -10 9 -15 12 -12 3 3 0 11 -7 18 -10 9 -11 8 -5 -6z"/>
<path d="M2251 1044 c0 -11 3 -14 6 -6 3 7 2 16 -1 19 -3 4 -6 -2 -5 -13z"/>
<path d="M2250 1010 c0 -5 5 -10 11 -10 5 0 7 5 4 10 -3 6 -8 10 -11 10 -2 0
-4 -4 -4 -10z"/>
<path d="M1930 940 c0 -7 3 -10 7 -7 3 4 3 10 0 14 -4 3 -7 0 -7 -7z"/>
<path d="M2218 910 c25 -10 28 -20 10 -38 -17 -17 -17 -52 0 -52 8 0 12 6 8
15 -6 16 12 65 29 77 5 4 -8 7 -30 7 -34 0 -37 -2 -17 -9z"/>
<path d="M2314 775 c11 -8 31 -14 45 -14 26 2 26 2 1 6 -14 3 -29 9 -34 14 -6
5 -15 9 -20 9 -6 0 -2 -7 8 -15z"/>
<path d="M2393 763 c4 -3 10 -3 14 0 3 4 0 7 -7 7 -7 0 -10 -3 -7 -7z"/>
<path d="M322 880 c0 -14 2 -19 5 -12 2 6 2 18 0 25 -3 6 -5 1 -5 -13z"/>
<path d="M373 893 c4 -3 10 -3 14 0 3 4 0 7 -7 7 -7 0 -10 -3 -7 -7z"/>
<path d="M430 870 c8 -5 20 -10 25 -10 6 0 3 5 -5 10 -8 5 -19 10 -25 10 -5 0
-3 -5 5 -10z"/>
<path d="M400 866 c0 -2 11 -11 25 -20 14 -9 25 -13 25 -8 0 5 -11 14 -25 20
-14 6 -25 10 -25 8z"/>
<path d="M463 823 c4 -3 10 -3 14 0 3 4 0 7 -7 7 -7 0 -10 -3 -7 -7z"/>
<path d="M493 813 c4 -3 10 -3 14 0 3 4 0 7 -7 7 -7 0 -10 -3 -7 -7z"/>
<path d="M318 633 c6 -2 18 -2 25 0 6 3 1 5 -13 5 -14 0 -19 -2 -12 -5z"/>
<path d="M332 618 c-23 -5 -40 -13 -37 -18 3 -6 16 -5 30 0 13 5 46 7 73 3 31
-3 52 -1 56 6 5 7 -2 9 -23 5 -17 -4 -37 -2 -43 3 -8 6 -29 6 -56 1z"/>
<path d="M2798 833 c7 -3 16 -2 19 1 4 3 -2 6 -13 5 -11 0 -14 -3 -6 -6z"/>
<path d="M3043 513 c4 -3 10 -3 14 0 3 4 0 7 -7 7 -7 0 -10 -3 -7 -7z"/>
<path d="M2755 680 c3 -5 8 -10 11 -10 2 0 4 5 4 10 0 6 -5 10 -11 10 -5 0 -7
-4 -4 -10z"/>
<path d="M2670 492 c30 -10 66 -24 79 -31 17 -10 22 -10 16 -1 -5 9 -1 10 16
5 18 -5 21 -4 13 4 -9 10 -46 19 -149 36 -16 3 -5 -3 25 -13z"/>
<path d="M645 520 c3 -5 8 -10 11 -10 3 0 2 5 -1 10 -3 6 -8 10 -11 10 -3 0
-2 -4 1 -10z"/>
<path d="M3390 1630 c0 -7 3 -10 7 -7 3 4 3 10 0 14 -4 3 -7 0 -7 -7z"/>
<path d="M3647 1623 c-12 -11 -8 -23 8 -23 8 0 15 7 15 15 0 16 -12 20 -23 8z"/>
<path d="M3654 1582 c-13 -8 -20 -53 -30 -187 -4 -51 -13 -100 -21 -114 -10
-15 -11 -26 -5 -30 7 -4 7 -47 1 -129 -5 -67 -13 -177 -18 -244 -5 -72 -14
-124 -20 -126 -6 -2 -11 -8 -11 -13 0 -6 5 -7 10 -4 16 10 12 -59 -5 -81 -16
-22 -20 -48 -5 -39 6 3 10 3 10 -2 0 -6 -29 -301 -30 -309 0 -1 -10 -4 -21 -7
-18 -5 -21 -12 -17 -46 4 -49 10 -49 -79 -5 -73 35 -73 35 -68 122 5 93 5 94
-20 -71 -3 -21 -2 -36 3 -33 5 3 41 -10 80 -29 39 -19 75 -35 81 -35 31 0 -11
-33 -89 -69 -93 -43 -110 -48 -110 -31 0 13 -98 60 -125 60 -11 0 -41 11 -67
25 -57 30 -74 33 -33 4 39 -26 73 -40 109 -45 16 -2 50 -16 75 -31 46 -27 46
-27 -7 -51 -28 -13 -52 -28 -52 -33 0 -5 -28 -9 -62 -10 -35 0 -72 -4 -83 -9
-13 -5 3 -8 50 -8 88 0 125 6 125 21 0 7 21 22 46 33 46 22 46 22 105 -17 73
-49 93 -50 117 -3 12 24 22 33 26 25 4 -7 0 -23 -8 -36 -14 -21 -14 -25 -2
-25 7 0 16 9 19 20 6 22 28 19 60 -9 17 -14 17 -13 8 13 -15 38 -16 37 34 33
25 -2 68 2 97 9 29 8 67 14 85 14 18 0 33 5 33 10 0 11 -22 9 -160 -11 -128
-18 -144 -13 -152 46 -3 28 -11 72 -16 98 -10 50 -9 53 31 80 21 15 31 80 47
312 5 83 14 200 19 260 6 61 17 207 26 325 22 308 25 342 31 368 5 24 4 25
-12 14z m-164 -1501 c-27 -72 -33 -75 -90 -43 -80 45 -80 45 12 84 46 20 87
32 92 27 5 -4 -1 -33 -14 -68z"/>
<path d="M3803 1405 c0 -38 2 -53 4 -32 2 20 2 52 0 70 -2 17 -4 1 -4 -38z"/>
<path d="M2226 1445 c4 -8 11 -15 16 -15 6 0 5 6 -2 15 -7 8 -14 15 -16 15 -2
0 -1 -7 2 -15z"/>
<path d="M2278 1388 c28 -30 108 -74 164 -92 15 -4 17 -17 13 -93 -4 -88 -4
-88 5 -13 5 41 11 83 14 93 3 12 -4 19 -22 24 -53 12 -117 45 -162 80 -45 37
-45 37 -12 1z"/>
<path d="M1080 1215 c0 -8 5 -15 10 -15 6 0 10 7 10 15 0 8 -4 15 -10 15 -5 0
-10 -7 -10 -15z"/>
<path d="M3409 1152 c-3 -20 -2 -29 4 -23 5 5 7 19 5 32 -3 20 -5 19 -9 -9z"/>
<path d="M3293 1100 c0 -25 2 -35 4 -22 2 12 2 32 0 45 -2 12 -4 2 -4 -23z"/>
<path d="M1092 1100 c0 -14 2 -19 5 -12 2 6 2 18 0 25 -3 6 -5 1 -5 -13z"/>
<path d="M2400 1109 c0 -4 7 -9 15 -13 8 -3 15 -9 14 -13 -3 -20 2 -24 16 -13
24 20 18 37 -15 42 -16 3 -30 1 -30 -3z"/>
<path d="M3400 1085 c0 -14 2 -25 4 -25 2 0 6 11 8 25 3 14 1 25 -3 25 -5 0
-9 -11 -9 -25z"/>
<path d="M3203 1030 c0 -30 2 -43 4 -27 2 15 2 39 0 55 -2 15 -4 2 -4 -28z"/>
<path d="M1095 1060 c3 -5 8 -10 11 -10 3 0 2 5 -1 10 -3 6 -8 10 -11 10 -3 0
-2 -4 1 -10z"/>
<path d="M3441 1060 c9 -5 36 -12 60 -15 42 -5 41 -4 -11 10 -65 17 -70 17
-49 5z"/>
<path d="M3563 1033 c4 -3 10 -3 14 0 3 4 0 7 -7 7 -7 0 -10 -3 -7 -7z"/>
<path d="M3282 1003 c-1 -17 -4 -38 -8 -46 -7 -18 75 -42 91 -26 10 10 -4 42
-21 44 -5 1 -6 0 -1 -2 14 -9 7 -22 -10 -16 -11 4 -14 3 -9 -5 5 -8 2 -10 -9
-6 -9 4 -14 13 -11 21 3 8 2 11 -3 8 -6 -3 -12 9 -14 27 -4 33 -4 33 -5 1z"/>
<path d="M3820 1000 c0 -7 3 -10 7 -7 3 4 3 10 0 14 -4 3 -7 0 -7 -7z"/>
<path d="M83 923 c4 -3 10 -3 14 0 3 4 0 7 -7 7 -7 0 -10 -3 -7 -7z"/>
<path d="M1625 920 c-3 -5 1 -10 9 -10 9 0 16 5 16 10 0 6 -4 10 -9 10 -6 0
-13 -4 -16 -10z"/>
<path d="M3 872 c0 -21 2 -29 4 -19 5 21 19 21 57 2 15 -8 31 -15 35 -15 11 1
-44 40 -56 40 -6 0 -18 6 -26 14 -12 12 -14 9 -14 -22z"/>
<path d="M3100 890 c0 -5 5 -10 10 -10 6 0 10 -9 10 -20 0 -11 -7 -20 -15 -20
-8 0 -15 -5 -15 -11 0 -23 34 -2 47 29 8 19 9 31 4 28 -5 -4 -12 -2 -16 4 -8
13 -25 13 -25 0z"/>
<path d="M1342 870 c0 -14 2 -19 5 -12 2 6 2 18 0 25 -3 6 -5 1 -5 -13z"/>
<path d="M1372 870 c0 -14 2 -19 5 -12 2 6 2 18 0 25 -3 6 -5 1 -5 -13z"/>
<path d="M3380 840 c0 -5 9 -10 19 -10 10 0 49 -9 86 -21 37 -11 69 -18 72
-15 4 4 -152 56 -170 56 -4 0 -7 -4 -7 -10z"/>
<path d="M1100 827 c0 -14 19 -37 31 -37 4 0 2 11 -4 25 -13 27 -27 33 -27 12z"/>
<path d="M2 770 c-1 -48 2 -59 8 -43 5 13 5 41 1 65 -9 42 -9 41 -9 -22z"/>
<path d="M3382 790 c0 -19 2 -27 5 -17 2 9 2 25 0 35 -3 9 -5 1 -5 -18z"/>
<path d="M1928 793 c7 -3 16 -2 19 1 4 3 -2 6 -13 5 -11 0 -14 -3 -6 -6z"/>
<path d="M1927 739 c7 -7 15 -10 18 -7 3 3 -2 9 -12 12 -14 6 -15 5 -6 -5z"/>
<path d="M130 729 c0 -5 5 -7 10 -4 6 3 10 8 10 11 0 2 -4 4 -10 4 -5 0 -10
-5 -10 -11z"/>
<path d="M3172 690 c-2 -8 -4 -62 -7 -120 -4 -105 -4 -105 6 -25 5 44 8 98 6
120 -2 22 -4 33 -5 25z"/>
<path d="M51 654 c0 -11 3 -14 6 -6 3 7 2 16 -1 19 -3 4 -6 -2 -5 -13z"/>
<path d="M3718 615 c-5 -33 -11 -91 -14 -129 -12 -126 -25 -159 -68 -174 -21
-6 -49 -21 -63 -32 -14 -11 -32 -20 -39 -20 -8 0 -14 -4 -14 -10 0 -14 23 -13
38 2 9 9 12 8 12 -4 0 -9 -4 -20 -10 -23 -5 -3 -10 -13 -10 -22 0 -13 3 -13
15 -3 8 7 15 25 15 40 0 37 12 45 100 69 56 15 85 18 113 11 34 -7 38 -6 43
17 8 31 2 36 -27 25 -13 -5 -42 -15 -64 -22 -22 -7 -46 -15 -52 -17 -9 -4 -9
3 2 23 8 16 15 48 15 72 0 24 5 74 11 112 6 38 9 86 7 107 -3 33 -4 31 -10
-22z m89 -281 c-3 -3 -12 -4 -19 -1 -8 3 -5 6 6 6 11 1 17 -2 13 -5z"/>
<path d="M80 650 c0 -7 3 -10 7 -7 3 4 3 10 0 14 -4 3 -7 0 -7 -7z"/>
<path d="M2240 546 c0 -2 8 -10 18 -17 15 -13 16 -12 3 4 -13 16 -21 21 -21
13z"/>
<path d="M50 525 c7 -9 15 -13 17 -11 7 7 -7 26 -19 26 -6 0 -6 -6 2 -15z"/>
<path d="M80 519 c0 -5 5 -7 10 -4 6 3 10 8 10 11 0 2 -4 4 -10 4 -5 0 -10 -5
-10 -11z"/>
<path d="M3241 514 c0 -11 3 -14 6 -6 3 7 2 16 -1 19 -3 4 -6 -2 -5 -13z"/>
<path d="M40 501 c0 -5 5 -13 10 -16 6 -3 10 -2 10 4 0 5 -4 13 -10 16 -5 3
-10 2 -10 -4z"/>
<path d="M3352 485 c0 -16 2 -22 5 -12 2 9 2 23 0 30 -3 6 -5 -1 -5 -18z"/>
<path d="M80 475 c-11 -13 -11 -18 1 -28 7 -7 10 -8 6 -3 -13 17 14 36 41 29
17 -4 23 -2 18 6 -10 16 -51 14 -66 -4z"/>
<path d="M3241 474 c0 -11 3 -14 6 -6 3 7 2 16 -1 19 -3 4 -6 -2 -5 -13z"/>
<path d="M440 466 c-1 -33 138 -151 157 -133 8 9 -27 36 -47 36 -8 1 -36 24
-62 53 -26 29 -48 49 -48 44z"/>
<path d="M2424 441 c1 -18 20 -29 51 -30 17 -1 17 1 5 9 -13 9 -7 14 13 11 4
0 7 5 7 12 0 7 -15 13 -39 13 -30 2 -38 -2 -37 -15z"/>
<path d="M3153 420 c0 -25 2 -35 4 -22 2 12 2 32 0 45 -2 12 -4 2 -4 -23z"/>
<path d="M3516 408 c-7 -66 -8 -103 0 -96 7 8 18 148 12 148 -3 0 -8 -24 -12
-52z"/>
<path d="M126 435 c7 -18 24 -20 24 -2 0 9 2 9 9 -1 7 -11 9 -11 14 2 5 12 0
16 -23 16 -22 0 -28 -4 -24 -15z"/>
<path d="M3220 310 c-7 -77 -11 -143 -8 -145 8 -8 36 269 28 278 -3 4 -12 -56
-20 -133z"/>
<path d="M1170 430 c-24 -8 -24 -8 7 -9 17 -1 35 4 38 9 7 11 -9 11 -45 0z"/>
<path d="M223 413 c9 -2 25 -2 35 0 9 3 1 5 -18 5 -19 0 -27 -2 -17 -5z"/>
<path d="M1038 413 c7 -3 16 -2 19 1 4 3 -2 6 -13 5 -11 0 -14 -3 -6 -6z"/>
<path d="M2190 410 c20 -13 33 -13 25 0 -3 6 -14 10 -23 10 -15 0 -15 -2 -2
-10z"/>
<path d="M129 398 c14 -19 98 -27 86 -8 -3 5 -19 7 -35 3 -19 -3 -37 0 -47 8
-16 13 -17 12 -4 -3z"/>
<path d="M2460 389 c0 -5 5 -7 10 -4 6 3 10 8 10 11 0 2 -4 4 -10 4 -5 0 -10
-5 -10 -11z"/>
<path d="M0 371 c0 -14 6 -17 25 -13 14 2 25 0 25 -6 0 -5 6 -10 13 -9 46 1
54 -3 54 -33 0 -20 -6 -32 -19 -36 -28 -8 -34 3 -14 25 17 19 17 20 -3 31 -16
8 -21 8 -21 -2 0 -10 -2 -10 -9 0 -4 8 -19 12 -32 10 -23 -3 -23 -4 9 -23 28
-17 45 -39 25 -33 -9 3 -53 -33 -53 -44 0 -3 14 -2 32 3 32 9 32 9 -1 -22 -40
-36 -39 -38 17 -27 34 8 41 12 32 23 -8 9 -6 14 6 19 25 10 37 7 31 -8 -3 -8
2 -16 13 -19 37 -10 13 -47 -31 -47 -44 0 -85 -16 -94 -37 -4 -13 2 -14 32 -9
75 13 104 27 114 54 10 26 10 26 34 -5 14 -17 36 -33 49 -37 24 -6 103 20 92
31 -3 3 -19 0 -35 -7 -48 -19 -77 -6 -117 55 -20 30 -40 52 -45 49 -5 -3 -9
-1 -9 5 0 32 51 31 63 -1 3 -10 16 -18 27 -18 26 0 62 -18 73 -36 4 -8 18 -19
30 -25 16 -9 13 -2 -13 27 -45 49 -50 53 -67 47 -13 -5 -43 13 -43 26 0 3 30
7 67 9 37 1 70 7 73 13 15 24 69 -12 76 -49 9 -54 14 -72 23 -72 4 0 3 25 -3
56 -9 49 -13 57 -45 74 -20 10 -40 18 -46 18 -5 1 -32 4 -60 9 -27 4 -54 8
-60 8 -5 1 -19 6 -30 12 -11 5 -45 13 -75 17 -30 4 -67 9 -82 12 -22 3 -28 0
-28 -15z"/>
<path d="M2021 357 c-13 -21 -12 -21 5 -5 10 10 16 20 13 22 -3 3 -11 -5 -18
-17z"/>
<path d="M2085 360 c-10 -11 -13 -20 -7 -20 6 0 14 5 17 11 4 6 13 8 21 5 8
-3 14 1 14 9 0 21 -24 18 -45 -5z"/>
<path d="M286 361 c-3 -4 6 -6 19 -3 14 2 32 -1 40 -8 13 -11 14 -10 9 4 -6
17 -59 23 -68 7z"/>
<path d="M2183 363 c9 -2 25 -2 35 0 9 3 1 5 -18 5 -19 0 -27 -2 -17 -5z"/>
<path d="M3141 334 c0 -11 3 -14 6 -6 3 7 2 16 -1 19 -3 4 -6 -2 -5 -13z"/>
<path d="M2040 329 c0 -5 5 -7 10 -4 6 3 10 8 10 11 0 2 -4 4 -10 4 -5 0 -10
-5 -10 -11z"/>
<path d="M1820 320 c0 -7 3 -10 7 -7 3 4 3 10 0 14 -4 3 -7 0 -7 -7z"/>
<path d="M440 299 c7 -11 9 -31 6 -44 -3 -13 -2 -27 4 -30 6 -4 10 6 10 24 0
18 7 34 18 40 15 9 15 10 -5 11 -13 0 -23 5 -23 10 0 6 -5 10 -10 10 -7 0 -7
-7 0 -21z"/>
<path d="M1760 301 c0 -11 4 -22 9 -25 4 -3 6 6 3 19 -5 30 -12 33 -12 6z"/>
<path d="M3130 300 c0 -5 5 -10 10 -10 6 0 10 5 10 10 0 6 -4 10 -10 10 -5 0
-10 -4 -10 -10z"/>
<path d="M1510 290 c0 -7 3 -10 7 -7 3 4 3 10 0 14 -4 3 -7 0 -7 -7z"/>
<path d="M2610 296 c0 -2 25 -20 55 -40 69 -45 72 -40 5 8 -47 34 -60 41 -60
32z"/>
<path d="M5 280 c-3 -5 -2 -10 4 -10 5 0 13 5 16 10 3 6 2 10 -4 10 -5 0 -13
-4 -16 -10z"/>
<path d="M1640 257 c0 -4 9 -16 20 -27 15 -15 19 -27 14 -47 -7 -26 -7 -26 37
-19 24 4 49 12 54 18 7 8 4 9 -10 4 -19 -6 -19 -5 -2 8 15 12 15 15 2 26 -12
10 -15 9 -15 -4 0 -17 -36 -14 -50 3 -12 15 -50 43 -50 38z m80 -66 c0 -5 -7
-12 -16 -15 -14 -5 -15 -4 -4 9 14 17 20 19 20 6z"/>
<path d="M1680 250 c0 -7 3 -10 7 -7 3 4 3 10 0 14 -4 3 -7 0 -7 -7z"/>
<path d="M880 220 c0 -7 3 -10 7 -7 3 4 3 10 0 14 -4 3 -7 0 -7 -7z"/>
<path d="M689 205 c-3 -2 -36 -10 -75 -16 -38 -6 -103 -17 -144 -23 -54 -9
-79 -10 -89 -2 -11 8 -13 8 -8 0 4 -7 0 -15 -9 -18 -82 -32 228 13 371 53 30
9 30 9 -6 10 -20 1 -38 -1 -40 -4z"/>
<path d="M2745 200 c3 -5 8 -10 11 -10 3 0 2 5 -1 10 -3 6 -8 10 -11 10 -3 0
-2 -4 1 -10z"/>
<path d="M323 123 c4 -3 10 -3 14 0 3 4 0 7 -7 7 -7 0 -10 -3 -7 -7z"/>
<path d="M3593 103 c4 -3 10 -3 14 0 3 4 0 7 -7 7 -7 0 -10 -3 -7 -7z"/>
<path d="M100 90 c-20 -13 5 -13 35 0 20 9 20 9 0 9 -11 0 -27 -4 -35 -9z"/>
<path d="M2241 44 c13 -17 26 -30 28 -27 3 2 -8 16 -24 31 -28 27 -28 27 -4
-4z"/>
<path d="M3617 21 c-3 -12 -1 -21 3 -21 14 0 19 15 11 29 -6 9 -10 7 -14 -8z"/>
<path d="M1418 13 c7 -3 16 -2 19 1 4 3 -2 6 -13 5 -11 0 -14 -3 -6 -6z"/>
<path d="M1458 13 c7 -3 16 -2 19 1 4 3 -2 6 -13 5 -11 0 -14 -3 -6 -6z"/>
<path d="M1508 13 c12 -2 30 -2 40 0 9 3 -1 5 -23 4 -22 0 -30 -2 -17 -4z"/>
<path d="M1570 16 c0 -2 7 -6 15 -10 8 -3 15 -1 15 4 0 6 -7 10 -15 10 -8 0
-15 -2 -15 -4z"/>
<path d="M1620 10 c20 -13 33 -13 25 0 -3 5 -14 10 -23 10 -15 0 -15 -2 -2
-10z"/>
<path d="M2280 10 c0 -5 7 -7 15 -4 8 4 15 8 15 10 0 2 -7 4 -15 4 -8 0 -15
-4 -15 -10z"/>
<path d="M2810 16 c0 -2 7 -7 16 -10 8 -3 12 -2 9 4 -6 10 -25 14 -25 6z"/>
<path d="M2933 13 c4 -3 10 -3 14 0 3 4 0 7 -7 7 -7 0 -10 -3 -7 -7z"/>
<path d="M2970 16 c0 -2 9 -6 20 -9 11 -3 18 -1 14 4 -5 9 -34 13 -34 5z"/>
<path d="M3235 11 c-2 -5 25 -9 62 -10 37 -1 65 0 62 2 -9 9 -119 15 -124 8z"/>
<path d="M3535 10 c3 -5 8 -10 11 -10 2 0 4 5 4 10 0 6 -5 10 -11 10 -5 0 -7
-4 -4 -10z"/>
<path d="M1673 3 c4 -3 10 -3 14 0 3 4 0 7 -7 7 -7 0 -10 -3 -7 -7z"/>
<path d="M2463 3 c4 -3 10 -3 14 0 3 4 0 7 -7 7 -7 0 -10 -3 -7 -7z"/>
<path d="M2668 3 c7 -3 16 -2 19 1 4 3 -2 6 -13 5 -11 0 -14 -3 -6 -6z"/>
<path d="M2713 3 c4 -3 10 -3 14 0 3 4 0 7 -7 7 -7 0 -10 -3 -7 -7z"/>
<path d="M2883 3 c9 -2 23 -2 30 0 6 3 -1 5 -18 5 -16 0 -22 -2 -12 -5z"/>
</g>
</svg>
