<?xml version="1.0" standalone="no"?>
<!DOCTYPE svg PUBLIC "-//W3C//DTD SVG 20010904//EN"
 "http://www.w3.org/TR/2001/REC-SVG-20010904/DTD/svg10.dtd">
<svg version="1.0" xmlns="http://www.w3.org/2000/svg"
 width="384.000000pt" height="256.000000pt" viewBox="0 0 384.000000 256.000000"
 preserveAspectRatio="xMidYMid meet">
<metadata>
Created by potrace 1.16, written by Peter Selinger 2001-2019
</metadata>
<g transform="translate(0.000000,256.000000) scale(0.100000,-0.100000)"
fill="#000000" stroke="none">
<path d="M2853 2553 c4 -3 10 -3 14 0 3 4 0 7 -7 7 -7 0 -10 -3 -7 -7z"/>
<path d="M2904 2550 c-5 -5 -21 -11 -34 -12 -18 -1 -25 -8 -26 -25 -1 -12 -9
-30 -19 -39 -13 -14 -14 -19 -3 -25 10 -7 8 -10 -9 -15 -12 -3 -30 -18 -39
-32 -17 -25 -17 -25 -35 -1 -24 31 -24 19 0 -24 23 -42 -1 -49 -33 -10 -23 30
-34 22 -14 -9 22 -34 29 -81 11 -74 -17 7 -9 -122 9 -139 7 -7 8 -2 3 15 -8
25 -8 25 15 0 18 -21 20 -22 14 -5 -25 70 -22 109 8 137 17 16 23 26 14 22
-26 -10 -18 4 12 20 15 8 21 15 15 16 -7 0 -13 6 -13 13 0 17 34 49 43 41 4
-4 14 -1 23 7 9 8 29 20 43 27 26 12 26 12 -6 7 -58 -8 -35 60 30 93 29 15 36
22 22 22 -12 0 -25 -4 -31 -10z m-59 -130 c-3 -5 -11 -10 -16 -10 -6 0 -7 5
-4 10 3 6 11 10 16 10 6 0 7 -4 4 -10z"/>
<path d="M3178 2553 c7 -3 16 -2 19 1 4 3 -2 6 -13 5 -11 0 -14 -3 -6 -6z"/>
<path d="M3449 2548 c55 -12 132 -87 166 -161 21 -46 23 -48 18 -17 -15 88
-122 191 -195 189 -31 -1 -30 -2 11 -11z"/>
<path d="M3658 2430 c3 -106 1 -130 -11 -130 -14 0 -37 40 -37 64 0 7 -11 25
-25 40 -14 15 -25 31 -25 35 0 4 -11 18 -25 31 -14 13 -25 20 -25 16 0 -4 11
-24 25 -44 14 -20 25 -42 25 -48 0 -10 37 -71 81 -136 20 -29 27 -94 9 -83 -6
4 -8 11 -5 16 4 5 1 9 -4 9 -16 0 -13 -31 7 -68 14 -28 16 -48 11 -117 -7 -90
-12 -105 -36 -105 -13 0 -13 3 -3 15 7 9 11 18 8 21 -3 2 -18 -12 -33 -31 -28
-37 -29 -58 -2 -30 9 8 18 11 21 7 3 -5 -8 -22 -25 -38 -42 -40 -65 -84 -49
-94 9 -6 7 -11 -9 -19 -14 -8 -21 -8 -21 -1 0 12 -37 -10 -90 -52 -19 -15 -41
-28 -50 -28 -13 0 -13 -2 -1 -9 10 -7 19 -5 26 6 12 16 44 14 73 -5 20 -13 4
-39 -29 -46 -23 -4 -29 -11 -29 -30 0 -21 18 -37 99 -91 55 -36 103 -70 106
-75 3 -6 11 -10 17 -10 6 0 3 9 -7 20 -10 11 -15 20 -11 20 10 0 50 -21 56
-30 3 -4 23 -12 45 -17 22 -5 39 -15 38 -21 -2 -6 4 -9 13 -5 8 3 14 2 12 -3
-3 -13 31 -74 41 -74 5 0 3 16 -4 36 -13 38 -49 73 -75 74 -8 0 -36 11 -62 25
-26 14 -55 25 -66 25 -37 0 -192 106 -192 132 0 6 3 8 7 5 3 -4 17 0 30 8 13
9 23 12 24 8 0 -5 5 5 10 22 9 31 -1 45 -33 45 -10 0 -18 4 -18 10 0 10 66 41
84 39 25 -3 34 2 40 24 7 21 7 21 16 2 8 -16 9 -12 8 20 -1 60 1 75 12 75 6 0
8 -10 5 -23 -4 -16 -2 -24 7 -24 7 0 14 13 15 29 4 66 6 78 14 78 11 0 21 -39
18 -71 -1 -13 -1 -105 1 -204 3 -179 3 -179 11 110 9 291 2 825 -10 825 -3 0
-5 -58 -3 -130z"/>
<path d="M1890 2540 c0 -7 3 -10 7 -7 3 4 3 10 0 14 -4 3 -7 0 -7 -7z"/>
<path d="M2585 2500 c-3 -6 1 -10 10 -10 9 0 35 -9 58 -21 29 -15 37 -16 27
-6 -22 24 -88 49 -95 37z"/>
<path d="M3084 2498 c-4 -7 -3 -8 4 -4 12 7 16 16 8 16 -3 0 -8 -5 -12 -12z"/>
<path d="M3258 2483 c7 -3 16 -2 19 1 4 3 -2 6 -13 5 -11 0 -14 -3 -6 -6z"/>
<path d="M3436 2431 c54 -67 96 -133 100 -158 7 -38 37 -84 42 -62 4 24 -67
144 -118 198 -25 26 -36 36 -24 22z"/>
<path d="M3250 2419 c0 -5 5 -7 10 -4 6 3 10 8 10 11 0 2 -4 4 -10 4 -5 0 -10
-5 -10 -11z"/>
<path d="M745 2391 c16 -16 111 -61 129 -61 8 0 34 -7 56 -16 23 -9 43 -14 46
-11 4 3 -32 17 -78 31 -46 14 -92 32 -103 39 -27 18 -63 31 -50 18z"/>
<path d="M2350 2375 c7 -9 15 -13 17 -11 7 7 -7 26 -19 26 -6 0 -6 -6 2 -15z"/>
<path d="M2941 2369 c-13 -11 -22 -22 -19 -24 2 -3 15 6 28 20 28 30 24 32 -9
4z"/>
<path d="M2793 2373 c4 -3 10 -3 14 0 3 4 0 7 -7 7 -7 0 -10 -3 -7 -7z"/>
<path d="M3337 2333 c4 -11 3 -14 -5 -9 -17 10 -14 -5 4 -29 16 -20 16 -19 9
4 -5 16 -4 21 4 17 13 -8 14 -4 5 18 -3 9 -10 16 -15 16 -4 0 -5 -7 -2 -17z"/>
<path d="M2365 2328 c-22 -5 -54 -6 -71 -3 -30 5 -33 3 -56 -47 -32 -68 -43
-130 -28 -158 9 -17 9 -29 0 -51 -15 -36 -7 -69 25 -107 25 -30 25 -30 -24
-65 -27 -19 -62 -53 -77 -74 -26 -35 -233 -273 -237 -273 -1 0 -1 160 1 355 3
251 1 355 -7 355 -8 0 -11 -106 -11 -354 0 -195 -3 -362 -6 -371 -22 -56 185
157 274 282 25 35 112 103 132 103 9 0 11 -13 7 -46 -3 -31 1 -61 15 -97 18
-48 19 -79 2 -135 -3 -9 3 -3 12 13 11 19 17 47 15 77 -2 53 9 66 33 39 30
-34 94 -57 109 -39 6 8 32 31 57 51 25 20 82 77 125 126 44 50 85 89 91 87 15
-6 38 38 31 58 -3 8 -14 12 -24 10 -24 -7 -66 50 -66 87 0 16 -4 26 -9 23 -14
-9 -9 -62 7 -78 29 -28 15 -28 -22 1 -56 44 -57 44 -102 28 -46 -16 -66 -12
-75 13 -4 9 -13 28 -21 42 -8 14 -15 44 -15 68 0 76 -20 94 -85 80z m48 -24
c11 -4 14 -18 11 -52 -2 -25 0 -49 4 -52 5 -3 18 -21 30 -41 22 -36 22 -36
-15 -43 -31 -5 -50 0 -100 26 -59 30 -83 33 -68 9 3 -6 16 -16 28 -23 21 -10
21 -10 7 7 -14 17 -14 17 19 0 32 -16 33 -18 15 -29 -10 -6 -21 -20 -23 -31
-3 -19 -2 -19 17 -2 11 10 37 20 58 23 39 6 39 6 2 -29 -50 -47 -49 -56 1 -17
63 51 108 21 62 -41 -26 -35 -16 -37 22 -4 15 13 30 38 33 54 9 44 84 77 112
49 32 -32 -26 -158 -74 -158 -23 0 -16 35 13 64 20 20 24 29 15 38 -9 9 -12 9
-12 -2 0 -7 -7 -21 -16 -31 -9 -10 -19 -34 -24 -53 -10 -47 11 -49 65 -6 44
35 61 38 70 10 5 -15 -7 -35 -47 -81 -53 -60 -178 -167 -178 -151 0 4 -18 16
-40 26 -55 24 -82 63 -54 79 10 6 24 12 29 12 6 1 9 7 7 14 -1 7 2 10 7 7 5
-4 22 5 38 20 24 22 25 24 3 10 -31 -21 -59 -20 -82 1 -17 15 -18 15 -13 -13
4 -20 -1 -37 -15 -54 -20 -25 -20 -25 -20 22 0 28 6 52 14 61 13 13 13 17 0
33 -13 17 -13 17 -8 1 9 -24 -42 -16 -62 10 -13 18 -20 42 -8 30 3 -3 18 -1
33 4 21 8 24 8 14 -2 -21 -21 -15 -33 7 -14 25 23 25 59 0 95 -11 15 -21 37
-23 48 -2 12 -11 30 -20 40 -22 24 -21 47 3 100 19 42 19 42 84 42 35 0 71 -3
79 -6z m-153 -189 c0 -8 9 -30 21 -49 20 -35 20 -35 0 -45 -49 -27 -85 1 -56
45 13 20 13 27 0 58 -8 19 -15 41 -15 48 1 17 50 -39 50 -57z m237 -52 c-4 -3
-7 0 -7 7 0 7 3 10 7 7 3 -4 3 -10 0 -14z m181 -8 c-3 -3 -9 2 -12 12 -6 14
-5 15 5 6 7 -7 10 -15 7 -18z m73 -9 c9 0 15 -6 12 -13 -6 -16 -6 -16 -38 -1
-28 12 -35 35 -7 23 9 -5 24 -8 33 -9z m-57 -39 c-1 -10 3 -14 10 -10 6 4 5
-1 -3 -10 -17 -21 -31 -13 -31 19 0 16 5 24 13 21 6 -2 11 -11 11 -20z"/>
<path d="M2420 1791 c0 -5 5 -13 10 -16 6 -3 10 -2 10 4 0 5 -4 13 -10 16 -5
3 -10 2 -10 -4z"/>
<path d="M2450 1760 c0 -7 3 -10 7 -7 3 4 3 10 0 14 -4 3 -7 0 -7 -7z"/>
<path d="M3371 2324 c0 -11 3 -14 6 -6 3 7 2 16 -1 19 -3 4 -6 -2 -5 -13z"/>
<path d="M699 2287 c5 -5 19 -7 32 -5 20 3 19 5 -9 9 -20 3 -29 2 -23 -4z"/>
<path d="M3310 2259 c0 -24 4 -30 18 -27 16 4 52 -26 52 -43 0 -19 -20 -17
-34 3 -9 12 -19 19 -22 15 -4 -4 -2 -12 4 -19 10 -12 16 -41 13 -64 -1 -13
-78 -57 -89 -50 -5 3 -7 19 -4 36 4 31 -19 80 -39 80 -8 0 -7 -5 1 -15 7 -8 8
-15 3 -15 -15 0 -32 22 -27 35 6 16 -22 40 -31 26 -3 -6 12 -30 35 -53 22 -24
37 -34 33 -24 -4 13 -3 17 5 12 7 -4 12 -19 12 -34 0 -35 -36 -52 -109 -52
-40 0 -52 -3 -44 -11 6 -6 28 -11 48 -11 27 0 34 -3 24 -9 -16 -11 54 -5 85 7
16 6 18 4 11 -12 -21 -50 -18 -84 16 -139 21 -35 38 -54 47 -50 8 3 19 5 25 5
7 0 6 4 -3 10 -12 8 -12 10 -1 10 8 0 11 3 7 8 -4 4 -11 6 -14 5 -4 0 -20 6
-35 15 -39 23 -54 79 -33 119 8 17 12 33 9 37 -4 3 -1 6 6 6 9 0 12 -10 8 -32
-4 -23 2 -49 18 -83 13 -27 24 -44 24 -37 1 7 -6 27 -15 43 -21 42 -15 164 6
129 4 -7 4 -27 -1 -44 -15 -51 -9 -65 7 -15 14 48 38 69 48 44 3 -8 1 -17 -4
-20 -16 -10 -11 -35 6 -35 8 0 12 5 9 10 -3 6 1 10 10 10 11 0 15 -5 11 -16
-3 -8 -2 -12 4 -9 13 8 13 35 1 35 -14 0 -51 64 -51 86 1 16 3 15 15 -6 17
-30 22 -2 5 30 -7 13 -7 21 0 25 17 11 1 47 -36 82 -34 32 -34 32 -34 2z m50
-168 c0 -10 -26 -9 -36 2 -4 4 2 7 14 7 12 0 22 -4 22 -9z"/>
<path d="M830 2256 c3 -2 59 -7 125 -10 120 -7 120 -7 157 -43 62 -61 72 -134
32 -238 -16 -44 -16 -44 31 -150 48 -106 48 -106 41 -194 -4 -52 -3 -91 2 -95
9 -5 16 73 14 159 -1 24 -17 74 -41 126 -47 99 -49 119 -21 180 35 78 14 174
-49 220 -17 12 -28 25 -26 29 3 5 -10 10 -28 13 -38 7 -243 10 -237 3z"/>
<path d="M2740 2240 c0 -5 5 -10 11 -10 5 0 7 5 4 10 -3 6 -8 10 -11 10 -2 0
-4 -4 -4 -10z"/>
<path d="M3413 2233 c4 -3 10 -3 14 0 3 4 0 7 -7 7 -7 0 -10 -3 -7 -7z"/>
<path d="M933 2184 c-73 -77 -87 -162 -39 -246 20 -35 20 -37 3 -74 -10 -20
-30 -71 -44 -112 -26 -74 -26 -75 -9 -129 10 -30 20 -53 22 -50 3 3 -1 28 -10
55 -15 54 -8 88 47 216 22 50 21 68 -3 108 -39 64 -21 152 46 227 56 63 45 67
-13 5z"/>
<path d="M3076 2213 c-6 -14 -5 -15 5 -6 7 7 10 15 7 18 -3 3 -9 -2 -12 -12z"/>
<path d="M3014 2180 c-12 -4 -24 -16 -28 -26 -6 -16 -8 -16 -16 -4 -13 20 -12
5 2 -44 14 -47 38 -79 38 -50 0 14 2 15 17 3 15 -12 16 -12 10 4 -19 52 -20
98 -1 112 21 16 10 18 -22 5z m-22 -62 c-7 -7 -12 -8 -12 -2 0 14 12 26 19 19
2 -3 -1 -11 -7 -17z"/>
<path d="M3445 2180 c-11 -5 -14 -9 -7 -9 7 -1 12 -15 12 -35 0 -22 6 -36 16
-40 13 -5 15 -1 12 25 -5 29 -4 30 9 14 9 -14 13 -15 13 -4 -1 28 -34 57 -55
49z"/>
<path d="M3572 2178 c3 -7 -4 -20 -15 -29 -13 -10 -17 -20 -12 -29 7 -11 10
-9 16 6 7 18 8 17 8 -3 2 -45 16 -29 17 18 0 27 -4 49 -9 49 -5 0 -7 -6 -5
-12z"/>
<path d="M3262 2138 c12 -55 18 -60 18 -15 0 41 17 46 37 12 10 -18 11 -18 10
6 -1 14 -7 26 -12 26 -6 0 -22 3 -37 6 -26 7 -26 7 -16 -35z"/>
<path d="M3113 2145 c8 -17 24 -39 36 -49 37 -34 30 -13 -11 34 -33 37 -37 40
-25 15z"/>
<path d="M3050 2150 c0 -7 3 -10 7 -7 3 4 3 10 0 14 -4 3 -7 0 -7 -7z"/>
<path d="M3416 2143 c-4 -9 -3 -20 1 -24 4 -4 9 3 9 17 2 28 -1 31 -10 7z"/>
<path d="M3080 2142 c0 -5 10 -17 21 -28 22 -19 22 -19 10 3 -12 24 -31 39
-31 25z"/>
<path d="M3182 2114 c10 -10 20 -16 22 -13 3 3 -5 11 -17 18 -21 13 -21 12 -5
-5z"/>
<path d="M3060 2116 c0 -2 8 -10 18 -17 15 -13 16 -12 3 4 -13 16 -21 21 -21
13z"/>
<path d="M3505 2085 c4 -16 14 -36 23 -44 12 -10 14 -15 5 -18 -7 -3 -13 -11
-13 -18 0 -8 -15 -25 -32 -40 -18 -15 -23 -22 -12 -16 12 6 24 8 27 5 3 -3 15
13 27 35 17 35 19 45 8 64 -7 12 -11 28 -9 36 1 7 -2 10 -7 7 -6 -3 -13 0 -16
6 -3 7 -4 0 -1 -17z"/>
<path d="M3431 2095 c0 -5 6 -19 14 -29 8 -11 15 -15 15 -10 0 6 -7 19 -15 30
-8 10 -14 15 -14 9z"/>
<path d="M2867 2073 c-4 -3 -7 -13 -7 -22 1 -13 3 -13 11 2 11 19 8 33 -4 20z"/>
<path d="M3560 2050 c0 -7 3 -10 7 -7 3 4 3 10 0 14 -4 3 -7 0 -7 -7z"/>
<path d="M2950 2020 c0 -11 2 -20 4 -20 2 0 6 9 9 20 3 11 1 20 -4 20 -5 0 -9
-9 -9 -20z"/>
<path d="M3460 2031 c0 -25 13 -43 21 -29 12 19 11 25 -6 32 -8 3 -15 1 -15
-3z"/>
<path d="M2968 1995 c-10 -22 -12 -35 -5 -32 14 4 57 -75 57 -105 -1 -22 -1
-22 -18 5 -23 37 -46 37 -27 0 8 -15 12 -30 10 -33 -2 -4 9 -20 25 -35 34 -32
36 -41 16 -61 -19 -18 -36 -17 -62 4 -22 18 -47 69 -40 81 3 4 1 13 -5 21 -13
22 -12 -29 2 -69 11 -31 69 -71 102 -71 8 0 22 -9 32 -20 11 -12 13 -20 6 -20
-6 0 -14 7 -17 15 -4 8 -13 15 -21 15 -10 0 -5 -8 13 -22 29 -23 32 -25 60
-27 9 0 30 -16 48 -35 17 -19 45 -37 61 -40 30 -6 30 -6 -2 9 -17 8 -34 23
-37 33 -4 10 -24 32 -45 48 -44 32 -77 79 -62 88 9 6 111 -101 111 -116 0 -4
6 -8 14 -8 16 0 76 -56 68 -64 -8 -9 11 -7 25 2 14 9 -8 33 -42 46 -16 6 -17
9 -5 17 19 12 -3 29 -37 29 -24 0 -63 47 -63 77 0 11 -10 29 -23 41 -32 30
-46 28 -17 -3 28 -29 24 -41 -5 -17 -25 20 -68 148 -64 188 2 16 0 35 -4 42
-5 6 -4 12 2 12 15 0 14 27 -1 36 -8 5 -9 2 -5 -9 7 -20 -15 -19 -23 1 -3 7
-12 -2 -22 -23z m42 -43 c0 -15 -2 -15 -10 -2 -13 20 -13 33 0 25 6 -3 10 -14
10 -23z m24 -148 c3 -8 2 -12 -4 -9 -6 3 -10 10 -10 16 0 14 7 11 14 -7z m186
-174 c0 -5 -2 -10 -4 -10 -3 0 -8 5 -11 10 -3 6 -1 10 4 10 6 0 11 -4 11 -10z"/>
<path d="M3181 1956 c-1 -62 2 -76 12 -68 9 7 19 1 37 -23 40 -53 68 -64 30
-12 -18 25 -43 76 -55 114 -23 68 -23 68 -24 -11z m16 -43 c-4 -3 -7 0 -7 7 0
7 3 10 7 7 3 -4 3 -10 0 -14z"/>
<path d="M3096 2007 c3 -10 9 -15 12 -12 3 3 0 11 -7 18 -10 9 -11 8 -5 -6z"/>
<path d="M3121 2003 c0 -11 3 -13 6 -5 2 6 9 10 14 6 5 -3 9 0 9 5 0 6 -7 11
-15 11 -8 0 -15 -8 -14 -17z"/>
<path d="M3344 1980 c8 -61 25 -86 41 -60 9 14 34 0 28 -16 -3 -8 -17 -22 -32
-30 -24 -14 -14 -13 25 3 21 8 12 -42 -12 -68 -8 -9 -12 -18 -9 -21 10 -10
-34 -40 -67 -45 -48 -7 -50 -15 -3 -13 22 2 48 -1 58 -5 10 -4 21 -5 24 -1 4
3 -1 6 -10 6 -9 0 -17 4 -17 9 0 5 9 7 19 4 16 -4 20 2 24 39 3 23 10 66 16
93 17 72 19 116 7 112 -6 -2 -12 -9 -12 -15 -1 -7 -2 -17 -3 -23 0 -5 -6 -7
-11 -4 -6 4 -9 14 -8 23 2 12 -3 16 -16 14 -11 -2 -26 4 -33 14 -12 16 -13 14
-9 -16z m43 -37 c-4 -3 -7 0 -7 7 0 7 3 10 7 7 3 -4 3 -10 0 -14z"/>
<path d="M3630 1970 c0 -7 3 -10 7 -7 3 4 3 10 0 14 -4 3 -7 0 -7 -7z"/>
<path d="M2889 1967 c-2 -13 -1 -67 1 -84 1 -10 6 2 11 27 5 28 5 48 -1 54 -6
6 -10 7 -11 3z"/>
<path d="M3565 1941 c-8 -16 -20 -31 -27 -34 -9 -4 -8 -6 3 -6 8 -1 23 15 32
34 20 42 14 47 -8 6z"/>
<path d="M3080 1940 c0 -11 7 -20 15 -20 8 0 15 9 15 20 0 11 -7 20 -15 20 -8
0 -15 -9 -15 -20z"/>
<path d="M2800 1946 c0 -4 6 -17 14 -29 7 -12 16 -57 20 -100 7 -92 25 -140
71 -187 33 -35 33 -35 15 -75 -10 -22 -21 -57 -25 -78 -3 -21 -10 -35 -16 -32
-5 4 -9 -3 -9 -14 0 -13 -8 -22 -22 -25 -13 -2 -47 -9 -77 -15 -66 -14 -68
-12 -42 36 45 85 122 255 117 261 -3 3 -29 -44 -57 -104 -93 -201 -103 -217
-152 -244 -25 -14 -66 -45 -91 -68 -47 -44 -62 -52 -52 -27 3 8 -2 21 -10 30
-21 21 -12 55 35 130 45 71 78 134 63 120 -25 -23 -114 -182 -119 -210 -7 -43
-57 -38 -93 10 -31 42 -37 38 -11 -6 11 -19 22 -47 25 -63 6 -35 28 -60 68
-77 27 -11 29 -15 24 -48 -6 -36 -6 -36 9 -11 16 25 16 25 9 1 -6 -24 -38 -76
-73 -122 -11 -14 -25 -37 -32 -51 -25 -56 -96 -49 -209 20 -77 48 -122 52
-135 13 -3 -11 -12 -22 -20 -25 -10 -3 -13 -19 -11 -55 3 -44 1 -51 -15 -51
-10 0 -22 -8 -27 -17 -13 -22 5 -63 24 -56 11 4 11 8 -2 20 -8 8 -13 20 -11
27 4 12 126 27 167 20 24 -4 24 -4 3 5 -12 6 -40 12 -62 15 -68 7 -77 27 -40
90 25 44 40 44 110 7 30 -16 84 -41 121 -56 82 -33 96 -47 79 -79 -13 -23 -13
-23 -114 15 -55 22 -102 37 -104 35 -4 -4 143 -66 175 -73 29 -7 28 -21 -3
-35 -23 -10 -126 17 -160 43 -11 8 -120 -3 -130 -13 -3 -3 3 -8 15 -11 11 -3
20 -1 20 4 0 5 14 9 30 9 38 0 40 -17 3 -22 -28 -3 -28 -4 4 -9 18 -3 30 -2
27 2 -11 19 16 17 30 -2 14 -21 69 -59 84 -59 4 0 -11 16 -33 35 -45 39 -32
45 33 15 42 -19 42 -19 9 -63 -21 -27 -33 -54 -31 -68 1 -13 3 -28 3 -32 1 -5
6 -5 11 -2 6 3 10 2 10 -4 0 -10 -71 -244 -121 -396 -19 -60 -27 -195 -11
-195 4 0 6 29 4 64 -3 48 1 74 15 107 11 25 23 63 27 84 7 38 96 325 104 335
2 2 19 -14 38 -37 49 -59 182 -168 228 -187 54 -23 57 -12 4 15 -58 29 -150
104 -221 178 -32 34 -62 61 -67 61 -28 0 -4 47 50 102 33 33 72 81 87 106 15
26 33 51 41 55 16 10 72 124 72 147 0 8 -16 -18 -36 -58 -25 -52 -39 -72 -50
-68 -9 3 -14 -1 -14 -14 0 -26 -16 -34 -25 -13 -4 12 1 24 14 35 12 9 21 20
21 26 0 5 16 29 35 53 19 24 35 48 35 52 0 5 9 20 19 33 11 14 22 44 26 67 4
23 16 52 28 65 11 12 16 22 10 22 -16 0 -41 -33 -46 -60 -4 -24 -4 -24 -6 3
-1 22 12 42 51 83 47 50 80 72 62 42 -5 -7 8 1 29 19 35 31 130 66 209 78 36
6 37 7 59 80 20 70 35 92 43 63 2 -7 8 -27 13 -45 8 -25 8 -36 -4 -52 -8 -12
-12 -25 -9 -30 10 -15 97 -41 135 -40 20 1 27 3 16 5 -53 11 -112 28 -128 36
-17 9 -17 11 -2 21 17 13 11 132 -6 121 -5 -3 -9 4 -9 16 0 11 -18 40 -41 65
-23 25 -47 64 -55 91 -16 55 -19 108 -4 99 6 -3 10 -2 10 4 0 5 -4 12 -9 15
-5 4 -12 30 -17 59 -4 28 -9 46 -11 39 -4 -10 -8 -10 -19 -1 -8 6 -14 8 -14 5z
m-345 -676 c13 0 37 -75 27 -85 -20 -20 -81 37 -74 70 3 18 9 24 19 21 8 -3
20 -6 28 -6z"/>
<path d="M930 1927 c0 -17 55 -67 73 -67 6 0 2 7 -10 15 -12 8 -31 27 -42 41
-14 18 -21 22 -21 11z"/>
<path d="M3120 1920 c0 -7 3 -10 7 -7 3 4 3 10 0 14 -4 3 -7 0 -7 -7z"/>
<path d="M2920 1913 c0 -7 11 -38 25 -69 14 -31 22 -60 19 -65 -6 -11 20 -39
37 -39 8 0 6 6 -4 18 -10 10 -15 21 -11 24 3 3 -4 21 -15 39 -12 19 -21 41
-21 50 0 18 -29 60 -30 42z"/>
<path d="M3084 1863 c14 -46 36 -87 43 -80 2 3 -3 19 -11 36 -9 16 -16 41 -16
56 0 15 -6 25 -14 25 -11 0 -12 -7 -2 -37z"/>
<path d="M2743 1806 c-17 -39 -37 -89 -44 -111 -6 -22 -14 -44 -16 -48 -3 -4
-30 20 -62 54 -57 62 -58 63 -81 46 -14 -9 -34 -17 -45 -17 -15 0 -17 -2 -6
-9 18 -12 48 -3 56 16 4 12 22 -2 69 -53 70 -75 75 -75 96 -9 7 22 21 53 31
69 9 16 15 35 12 42 -3 8 2 26 12 40 9 14 15 31 13 38 -2 7 -17 -19 -35 -58z"/>
<path d="M3148 1845 c-14 -49 -8 -101 13 -102 12 -1 31 -13 44 -27 34 -37 42
-32 12 7 -13 18 -26 41 -28 52 -2 10 -8 17 -14 14 -5 -2 -12 14 -15 36 -4 29
-7 35 -12 20z"/>
<path d="M2870 1800 c0 -7 3 -10 7 -7 3 4 3 10 0 14 -4 3 -7 0 -7 -7z"/>
<path d="M3313 1773 c4 -3 10 -3 14 0 3 4 0 7 -7 7 -7 0 -10 -3 -7 -7z"/>
<path d="M3257 1754 c3 -9 9 -11 12 -6 3 5 13 12 21 15 9 3 4 6 -12 6 -21 1
-26 -3 -21 -15z"/>
<path d="M2180 1750 c0 -7 3 -10 7 -7 3 4 3 10 0 14 -4 3 -7 0 -7 -7z"/>
<path d="M2222 1736 c-15 -33 -64 -256 -59 -269 2 -7 10 21 17 62 8 41 16 68
18 61 3 -8 13 26 24 74 19 93 19 113 0 72z"/>
<path d="M3141 1727 c2 -1 12 -9 22 -16 15 -12 17 -12 11 3 -3 9 -13 16 -22
16 -8 0 -13 -1 -11 -3z"/>
<path d="M2460 1690 c-30 -30 -25 -39 18 -33 57 9 85 22 50 22 -18 1 -28 6
-28 16 0 21 -16 19 -40 -5z"/>
<path d="M3305 1676 c-27 -14 -45 -25 -40 -25 14 0 112 47 100 48 -5 0 -32
-10 -60 -23z"/>
<path d="M2111 1615 c-11 -20 -21 -38 -21 -40 0 -3 -14 -27 -31 -55 -38 -62
-77 -90 -132 -96 -23 -2 -64 -8 -90 -12 -42 -8 -49 -7 -58 10 -8 15 -3 22 35
46 55 33 61 50 8 23 -63 -32 -68 -44 -40 -92 12 -23 34 -49 48 -58 25 -15 25
-15 3 10 -27 30 -30 51 -5 48 30 -5 136 13 162 26 61 32 118 94 125 138 4 23
12 50 17 60 18 35 0 28 -21 -8z m-11 -69 c0 -3 -5 -8 -12 -12 -7 -4 -8 -3 -4
4 7 12 16 16 16 8z"/>
<path d="M2603 1643 c4 -3 10 -3 14 0 3 4 0 7 -7 7 -7 0 -10 -3 -7 -7z"/>
<path d="M2871 1633 c-1 -7 -13 -38 -28 -70 -26 -57 -40 -139 -22 -127 5 3 9
11 9 17 0 7 11 48 26 91 14 43 23 83 20 89 -3 9 -5 9 -5 0z m-38 -133 c-3 -12
-8 -19 -11 -16 -5 6 5 36 12 36 2 0 2 -9 -1 -20z"/>
<path d="M3300 1621 c0 -6 5 -13 10 -16 6 -3 10 1 10 9 0 9 -4 16 -10 16 -5 0
-10 -4 -10 -9z"/>
<path d="M3180 1600 c0 -7 3 -10 7 -7 3 4 3 10 0 14 -4 3 -7 0 -7 -7z"/>
<path d="M2251 1583 c-1 -6 -4 -20 -7 -30 -5 -17 -5 -17 6 0 6 10 9 23 6 30
-3 9 -5 9 -5 0z"/>
<path d="M3324 1568 c-3 -4 3 -8 13 -8 10 0 28 -3 41 -6 12 -4 22 -2 22 4 0
12 -69 21 -76 10z"/>
<path d="M1010 1555 c0 -8 4 -15 10 -15 5 0 7 7 4 15 -4 8 -8 15 -10 15 -2 0
-4 -7 -4 -15z"/>
<path d="M3128 1563 c6 -2 18 -2 25 0 6 3 1 5 -13 5 -14 0 -19 -2 -12 -5z"/>
<path d="M3173 1553 c4 -3 10 -3 14 0 3 4 0 7 -7 7 -7 0 -10 -3 -7 -7z"/>
<path d="M1950 1515 c-15 -8 -19 -14 -10 -14 18 -1 46 16 40 23 -3 2 -16 -2
-30 -9z"/>
<path d="M2435 1471 c-6 -11 9 -23 19 -14 9 9 7 23 -3 23 -6 0 -12 -4 -16 -9z"/>
<path d="M2098 1446 c-7 -14 -29 -37 -48 -51 -18 -14 -30 -25 -26 -25 26 0
106 84 93 97 -3 3 -11 -7 -19 -21z"/>
<path d="M1216 1433 c12 -52 47 -148 61 -164 7 -8 13 -20 13 -26 0 -22 44
-147 47 -136 5 13 -43 160 -57 178 -4 6 -20 47 -35 93 -28 82 -41 107 -29 55z"/>
<path d="M1720 1391 c0 -5 5 -13 10 -16 6 -3 10 -2 10 4 0 5 -4 13 -10 16 -5
3 -10 2 -10 -4z"/>
<path d="M2120 1383 c0 -10 -7 -31 -16 -48 -10 -19 -11 -31 -5 -33 12 -4 14
-44 5 -77 -5 -21 -95 -72 -164 -94 -31 -10 -37 -9 -51 11 -16 20 -20 21 -59 9
-40 -12 -46 -11 -104 19 -33 17 -50 23 -37 13 68 -50 67 -47 35 -70 -16 -11
-66 -32 -112 -47 -86 -27 -147 -55 -196 -89 -29 -21 -29 -21 -53 9 -13 16 -29
41 -35 56 -12 26 -12 26 -48 -1 -19 -16 -70 -47 -113 -71 -80 -43 -98 -63 -33
-36 40 17 51 9 42 -30 -8 -32 24 -95 65 -127 36 -28 33 -40 -26 -97 -36 -35
-36 -35 -173 -38 -190 -4 -197 -9 -14 -11 152 -1 152 -1 197 40 44 41 85 110
85 144 0 10 25 48 55 85 62 76 124 114 251 154 43 14 95 36 115 50 20 14 58
27 90 31 55 7 55 7 51 -567 -2 -315 -1 -570 3 -566 3 3 9 248 11 545 3 296 7
543 9 549 2 6 25 17 52 23 26 7 68 23 92 37 64 35 67 33 76 -43 13 -130 20
-101 20 92 0 107 -3 195 -7 195 -5 0 -8 -8 -8 -17z m-776 -393 c38 -50 38 -50
-4 -100 -51 -61 -77 -80 -98 -73 -10 4 -13 2 -8 -5 10 -16 56 -15 57 1 0 9 2
9 5 0 3 -7 0 -21 -6 -33 -11 -21 -12 -21 -46 14 -19 19 -34 41 -34 48 0 11 2
10 9 0 11 -18 85 71 95 113 6 30 6 30 -10 0 -25 -44 -51 -75 -57 -68 -3 3 4
14 16 24 12 10 17 18 10 19 -6 0 -15 -4 -18 -10 -15 -24 -65 1 -65 33 0 8 26
30 58 50 31 20 57 36 57 37 1 0 18 -22 39 -50z m-129 -98 c18 -13 16 -34 -2
-30 -10 2 -19 11 -21 21 -4 18 6 22 23 9z"/>
<path d="M3545 1380 c-30 -8 -30 -8 7 -9 20 0 40 4 43 9 7 11 -6 11 -50 0z"/>
<path d="M2536 1364 c-9 -24 -2 -26 12 -4 7 11 8 20 3 20 -5 0 -12 -7 -15 -16z"/>
<path d="M3170 1358 c57 -8 230 -8 295 0 28 4 -38 7 -145 7 -107 0 -175 -3
-150 -7z"/>
<path d="M1082 1330 c0 -19 2 -27 5 -17 2 9 2 25 0 35 -3 9 -5 1 -5 -18z"/>
<path d="M1740 1350 c0 -7 3 -10 7 -7 3 4 3 10 0 14 -4 3 -7 0 -7 -7z"/>
<path d="M1774 1325 c10 -17 33 -41 52 -54 19 -13 47 -38 62 -56 31 -35 68
-63 43 -32 -12 15 -11 17 5 17 13 1 10 5 -11 14 -16 7 -61 42 -99 77 -53 48
-65 56 -52 34z"/>
<path d="M1174 1278 c11 -110 34 -159 74 -157 23 1 23 2 5 6 -37 7 -63 71 -66
166 -1 26 -6 47 -11 47 -5 0 -6 -28 -2 -62z"/>
<path d="M1895 1320 c10 -11 20 -20 23 -20 3 0 -3 9 -13 20 -10 11 -20 20 -23
20 -3 0 3 -9 13 -20z"/>
<path d="M3070 1327 c0 -8 147 -40 162 -34 7 2 -16 9 -52 16 -36 6 -75 14 -87
17 -13 4 -23 4 -23 1z"/>
<path d="M1588 1313 c7 -3 16 -2 19 1 4 3 -2 6 -13 5 -11 0 -14 -3 -6 -6z"/>
<path d="M1236 1271 c4 -24 15 -59 26 -77 22 -38 36 -47 17 -11 -7 12 -21 47
-30 77 -18 55 -18 55 -13 11z"/>
<path d="M1516 1273 c-21 -21 -43 -50 -48 -65 -6 -16 -35 -46 -66 -69 -32 -23
-48 -38 -38 -35 36 12 125 91 126 110 0 27 29 56 48 49 10 -5 13 -3 8 6 -5 7
0 18 10 26 11 8 14 15 9 15 -6 0 -28 -17 -49 -37z"/>
<path d="M1980 1300 c-18 -12 -2 -12 25 0 13 6 15 9 5 9 -8 0 -22 -4 -30 -9z"/>
<path d="M2063 1303 c4 -3 10 -3 14 0 3 4 0 7 -7 7 -7 0 -10 -3 -7 -7z"/>
<path d="M3558 1303 c6 -2 18 -2 25 0 6 3 1 5 -13 5 -14 0 -19 -2 -12 -5z"/>
<path d="M855 1278 c-4 -13 -27 -65 -52 -117 -24 -52 -49 -119 -54 -150 -6
-31 -19 -68 -30 -83 -22 -32 -24 -55 -6 -77 7 -9 21 -42 30 -73 17 -56 87
-158 108 -158 6 0 -8 21 -30 46 -36 42 -81 134 -81 168 0 8 -7 19 -15 26 -20
16 -19 26 5 60 11 16 25 55 31 87 6 32 30 99 53 148 41 87 62 145 52 145 -3 0
-8 -10 -11 -22z"/>
<path d="M1895 1290 c3 -5 8 -10 11 -10 3 0 2 5 -1 10 -3 6 -8 10 -11 10 -3 0
-2 -4 1 -10z"/>
<path d="M3445 1290 c-50 -7 -50 -7 -5 -7 25 0 59 3 75 7 39 10 3 10 -70 0z"/>
<path d="M2744 1277 c-33 -19 -143 -119 -149 -136 -3 -8 18 8 47 35 29 27 71
64 93 82 41 33 44 40 9 19z"/>
<path d="M3258 1283 c7 -3 16 -2 19 1 4 3 -2 6 -13 5 -11 0 -14 -3 -6 -6z"/>
<path d="M1091 1264 c0 -11 3 -14 6 -6 3 7 2 16 -1 19 -3 4 -6 -2 -5 -13z"/>
<path d="M1715 1270 c3 -5 8 -10 11 -10 3 0 2 5 -1 10 -3 6 -8 10 -11 10 -3 0
-2 -4 1 -10z"/>
<path d="M1925 1270 c3 -5 8 -10 11 -10 3 0 2 5 -1 10 -3 6 -8 10 -11 10 -3 0
-2 -4 1 -10z"/>
<path d="M1561 1257 c2 -1 13 -9 24 -17 19 -14 19 -14 6 3 -7 9 -18 17 -24 17
-6 0 -8 -1 -6 -3z"/>
<path d="M1610 1238 c0 -15 5 -30 11 -33 16 -11 17 -2 3 30 -13 30 -13 30 -14
3z"/>
<path d="M3764 1228 c-21 -10 -21 -10 10 -71 18 -33 37 -62 43 -64 7 -3 -2 21
-19 52 -16 31 -27 62 -24 70 7 19 35 19 42 0 4 -8 11 -12 17 -8 6 4 3 11 -8
20 -22 15 -32 15 -61 1z"/>
<path d="M1790 1195 c19 -19 38 -35 44 -35 5 0 -5 16 -24 35 -19 19 -38 35
-44 35 -5 0 5 -16 24 -35z"/>
<path d="M1860 1190 c0 -5 5 -10 11 -10 5 0 7 5 4 10 -3 6 -8 10 -11 10 -2 0
-4 -4 -4 -10z"/>
<path d="M1968 1188 c5 -5 16 -8 23 -6 8 3 3 7 -10 11 -17 4 -21 3 -13 -5z"/>
<path d="M1010 1180 c0 -7 3 -10 7 -7 3 4 3 10 0 14 -4 3 -7 0 -7 -7z"/>
<path d="M1612 1156 c7 -7 19 -11 25 -9 18 7 5 23 -18 23 -16 0 -18 -2 -7 -14z"/>
<path d="M3468 1125 c-20 -14 -47 -25 -60 -25 -51 0 -95 -48 -96 -103 -1 -22
-6 -61 -13 -88 -10 -38 -10 -52 -1 -61 9 -9 12 -4 12 22 0 20 11 53 25 75 22
37 24 38 25 15 0 -14 -7 -36 -16 -48 -9 -14 -14 -36 -12 -53 3 -20 0 -29 -10
-29 -7 0 -33 -16 -56 -35 -24 -19 -46 -35 -50 -35 -4 0 -46 -27 -94 -60 -159
-111 -328 -200 -379 -200 -16 0 1 83 23 107 25 28 25 28 10 -4 -31 -63 -14
-57 18 7 19 36 43 74 55 84 12 11 21 23 21 28 0 10 20 33 98 116 28 30 52 59
52 62 0 17 -108 -92 -163 -164 -33 -44 -73 -91 -89 -105 -17 -15 -33 -43 -38
-66 -16 -70 -89 -196 -120 -208 -30 -11 -117 -152 -126 -204 -6 -34 15 -133
28 -133 6 0 7 7 3 17 -17 41 -18 122 -1 129 9 3 16 10 16 16 0 5 -4 6 -10 3
-12 -8 -2 20 21 59 15 24 19 27 24 13 3 -9 7 -24 10 -33 3 -9 8 -14 11 -11 3
3 1 22 -6 42 -13 40 6 85 35 85 13 0 68 65 77 90 2 5 27 -2 57 -17 95 -48 302
-27 353 35 11 13 10 14 -7 5 -104 -56 -257 -68 -341 -27 -62 30 -56 47 25 68
39 10 78 24 88 32 10 7 25 14 34 14 9 0 24 9 34 20 10 11 27 22 39 26 11 3 29
13 39 22 9 8 27 16 40 17 12 2 21 8 19 14 -1 7 2 10 7 7 5 -4 29 12 53 34 66
61 80 55 53 -24 -22 -64 -14 -74 49 -71 52 4 52 4 64 -54 20 -98 29 -103 109
-60 92 49 127 99 130 179 2 72 5 78 40 74 28 -4 28 -4 3 5 -26 9 -26 10 4 16
20 4 126 108 126 125 0 5 8 10 18 11 10 0 12 3 5 6 -7 2 -13 15 -13 28 0 13
-5 37 -12 52 -14 33 -58 89 -58 74 0 -5 5 -13 11 -17 6 -3 20 -26 31 -50 27
-62 10 -127 -41 -154 -26 -13 -26 -13 16 49 31 46 29 72 -12 123 -20 23 -49
60 -66 81 -27 33 -93 58 -74 27 3 -5 0 -10 -9 -10 -8 0 -16 -4 -18 -9 -3 -10
-22 -14 -52 -12 -29 2 61 69 99 74 30 4 30 4 0 5 -18 1 -45 -8 -67 -23z m105
-52 c12 -15 40 -46 61 -70 46 -51 51 -89 18 -131 -12 -15 -26 -37 -31 -48 -5
-12 -21 -30 -35 -42 -14 -11 -26 -24 -26 -29 0 -5 -11 -16 -25 -23 -17 -9 -23
-19 -20 -31 4 -11 -1 -22 -12 -28 -17 -10 -17 -10 1 -11 24 0 17 -70 -12 -109
-20 -28 -141 -103 -152 -96 -15 9 -32 97 -27 136 5 38 4 40 -12 25 -19 -18
-81 -22 -81 -6 0 6 11 10 25 10 52 0 129 56 147 106 7 19 16 34 21 34 4 0 5
-4 2 -10 -3 -6 1 -7 9 -4 22 8 20 24 -2 24 -23 0 -86 -65 -77 -79 3 -6 3 -10
-2 -9 -10 3 -53 -20 -71 -39 -7 -7 -24 -13 -38 -13 -15 0 -24 -6 -24 -15 0 -8
-4 -15 -10 -15 -28 0 -4 56 48 112 29 32 38 36 50 25 13 -10 15 -9 9 7 -4 10
-2 25 4 32 31 37 -14 8 -55 -36 -34 -36 -46 -44 -46 -31 0 21 54 72 100 96 27
14 32 14 54 -1 14 -8 34 -13 44 -10 11 4 24 0 32 -9 7 -8 16 -13 20 -10 4 3
14 -3 21 -13 13 -15 12 -16 -3 -3 -11 8 -18 9 -18 3 0 -6 5 -14 11 -18 7 -4 2
-16 -14 -33 -40 -43 -87 -118 -86 -138 0 -14 2 -13 10 6 10 26 98 144 111 149
16 7 93 74 97 86 2 6 -9 -1 -25 -16 -22 -20 -36 -25 -57 -21 -18 4 -24 9 -17
13 6 4 -3 8 -22 8 -67 2 -78 4 -73 12 3 5 0 12 -6 16 -8 5 -9 3 -4 -6 5 -8 3
-11 -6 -8 -23 8 -23 84 -1 116 30 41 56 108 37 92 -8 -7 -15 -18 -15 -24 0 -7
-7 -21 -16 -32 -14 -18 -15 -16 -9 21 7 42 29 75 52 75 16 0 18 -41 2 -57 -8
-8 -8 -13 0 -17 6 -4 11 -3 11 2 0 12 91 112 102 112 4 0 18 -12 31 -27z
m-163 9 c0 -4 -9 -13 -20 -19 -11 -7 -28 -30 -39 -50 -20 -38 -20 -38 -21 -7
0 33 14 55 45 72 24 13 35 15 35 4z m220 -285 c0 -2 -10 -12 -22 -23 -23 -19
-23 -19 -4 4 18 21 26 27 26 19z"/>
<path d="M3520 1047 c0 -7 -13 -23 -30 -35 -18 -14 -30 -31 -29 -45 0 -21 1
-21 9 -2 9 23 40 52 40 38 0 -5 -5 -14 -12 -21 -16 -16 -7 -23 13 -9 17 13 33
87 18 87 -5 0 -9 -6 -9 -13z"/>
<path d="M3546 1003 c-10 -10 -7 -43 4 -43 5 0 7 6 4 14 -3 9 2 16 13 18 16 3
16 4 1 10 -9 4 -19 4 -22 1z"/>
<path d="M3576 965 c4 -8 8 -15 10 -15 2 0 4 7 4 15 0 8 -4 15 -10 15 -5 0 -7
-7 -4 -15z"/>
<path d="M3620 960 c0 -7 3 -10 7 -7 3 4 3 10 0 14 -4 3 -7 0 -7 -7z"/>
<path d="M3420 930 c-15 -28 -3 -60 22 -60 12 0 29 -7 38 -15 20 -18 50 -10
50 12 0 12 -3 13 -13 4 -10 -8 -22 -7 -45 1 -31 12 -37 23 -34 61 2 23 -5 22
-18 -3z"/>
<path d="M3503 943 c-19 -7 -15 -33 5 -33 14 0 14 2 3 9 -11 7 -10 10 5 13 10
2 15 6 9 9 -5 4 -16 4 -22 2z"/>
<path d="M3642 930 c0 -14 2 -19 5 -12 2 6 2 18 0 25 -3 6 -5 1 -5 -13z"/>
<path d="M3450 930 c0 -5 5 -10 11 -10 5 0 7 5 4 10 -3 6 -8 10 -11 10 -2 0
-4 -4 -4 -10z"/>
<path d="M3595 927 c-15 -19 -36 -57 -31 -57 2 0 16 16 30 35 24 32 25 52 1
22z"/>
<path d="M3540 905 c-7 -9 -8 -15 -2 -15 5 0 12 7 16 15 3 8 4 15 2 15 -2 0
-9 -7 -16 -15z"/>
<path d="M3381 884 c0 -11 3 -14 6 -6 3 7 2 16 -1 19 -3 4 -6 -2 -5 -13z"/>
<path d="M3443 813 c4 -3 10 -3 14 0 3 4 0 7 -7 7 -7 0 -10 -3 -7 -7z"/>
<path d="M3413 703 c-15 -20 -41 -49 -57 -65 -20 -20 -24 -28 -12 -28 9 0 29
19 45 43 16 23 39 52 52 65 12 12 17 22 11 22 -6 0 -24 -17 -39 -37z"/>
<path d="M3435 578 c-30 -32 -30 -32 -1 -10 16 12 31 20 34 17 8 -7 -29 -45
-60 -61 -38 -20 -44 -17 -22 7 19 22 19 22 -3 8 -13 -8 -23 -22 -23 -32 0 -16
3 -16 38 -2 41 17 95 70 89 88 -7 21 -23 17 -52 -15z"/>
<path d="M1460 1117 c0 -9 51 -59 56 -54 2 2 -10 16 -26 32 -17 16 -30 26 -30
22z"/>
<path d="M1620 1110 c0 -7 3 -10 7 -7 3 4 3 10 0 14 -4 3 -7 0 -7 -7z"/>
<path d="M2650 1105 c7 -9 15 -13 17 -11 7 7 -7 26 -19 26 -6 0 -6 -6 2 -15z"/>
<path d="M3041 1084 c-40 -33 -43 -86 -7 -126 14 -14 22 -29 19 -32 -23 -23
78 22 105 47 38 35 21 108 -30 126 -44 16 -53 14 -87 -15z m88 1 c43 -22 50
-73 14 -103 -52 -43 -74 -46 -100 -15 -29 35 -24 79 15 110 32 27 35 27 71 8z"/>
<path d="M3068 1066 c-28 -21 -21 -28 11 -12 16 9 32 12 36 8 5 -4 5 -1 1 6
-9 15 -26 15 -48 -2z"/>
<path d="M3075 1030 c-6 -10 1 -14 18 -11 4 1 3 -8 -3 -19 -12 -23 -30 -27
-30 -6 0 8 -5 18 -11 22 -8 4 -9 -1 -4 -17 11 -35 27 -40 48 -16 10 12 30 27
45 34 15 7 19 11 10 9 -10 -3 -20 -1 -23 4 -8 13 -42 13 -50 0z"/>
<path d="M2735 1012 c26 -52 49 -92 51 -89 7 7 -63 148 -82 167 -8 8 6 -27 31
-78z"/>
<path d="M3620 1093 c0 -6 8 -17 18 -24 16 -13 16 -13 2 6 -8 11 -16 22 -17
24 -2 2 -3 0 -3 -6z"/>
<path d="M2355 1050 c4 -6 11 -8 16 -5 14 9 11 15 -7 15 -8 0 -12 -5 -9 -10z"/>
<path d="M1669 1008 c-2 -13 -2 -75 2 -138 5 -115 5 -115 7 23 2 129 -1 165
-9 115z"/>
<path d="M936 995 c4 -9 16 -21 28 -27 19 -10 19 -9 -3 16 -28 30 -33 32 -25
11z"/>
<path d="M2270 1005 c0 -5 5 -17 10 -25 5 -8 10 -10 10 -5 0 6 -5 17 -10 25
-5 8 -10 11 -10 5z"/>
<path d="M1010 990 c0 -7 3 -10 7 -7 3 4 3 10 0 14 -4 3 -7 0 -7 -7z"/>
<path d="M1062 935 c-1 -22 -5 -58 -7 -80 -5 -35 -4 -37 5 -15 6 13 9 49 7 80
-2 43 -4 46 -5 15z"/>
<path d="M1008 892 c2 -37 9 -72 14 -79 6 -8 3 -18 -11 -32 -37 -37 -27 -57
36 -71 34 -8 34 -8 28 23 -4 18 -18 48 -31 68 -18 27 -24 48 -24 91 0 31 -4
59 -8 62 -4 2 -6 -25 -4 -62z m48 -137 c8 -34 0 -41 -31 -27 -22 10 -24 15
-15 32 15 28 38 25 46 -5z"/>
<path d="M2813 903 c4 -3 10 -3 14 0 3 4 0 7 -7 7 -7 0 -10 -3 -7 -7z"/>
<path d="M2781 870 c0 -8 4 -22 9 -30 12 -18 12 -2 0 25 -6 13 -9 15 -9 5z"/>
<path d="M3773 873 c4 -3 10 -3 14 0 3 4 0 7 -7 7 -7 0 -10 -3 -7 -7z"/>
<path d="M3728 817 c-14 -12 -34 -37 -43 -55 -9 -19 -19 -32 -22 -29 -2 3 1
15 7 27 6 11 9 26 6 33 -2 7 -5 5 -5 -5 -1 -9 -15 -30 -32 -47 -17 -17 -27
-31 -22 -31 5 0 14 5 21 12 8 8 15 8 25 0 11 -9 17 -3 31 28 27 61 92 102 111
70 3 -5 11 -10 17 -10 7 0 6 6 -2 15 -18 22 -61 18 -92 -8z"/>
<path d="M2763 784 c-32 -24 -119 -152 -110 -161 3 -2 16 15 30 38 14 23 47
64 73 91 52 54 56 71 7 32z"/>
<path d="M3761 794 c-34 -24 -52 -66 -35 -82 10 -9 14 -9 14 -1 0 22 32 79 45
79 7 0 18 -7 25 -15 7 -8 17 -15 22 -15 13 0 -10 28 -32 40 -11 6 -24 4 -39
-6z"/>
<path d="M2761 723 c-10 -26 -10 -27 4 -9 8 11 15 23 15 28 0 15 -7 8 -19 -19z"/>
<path d="M3766 724 c-10 -14 -15 -31 -13 -37 3 -7 9 0 15 15 6 14 16 29 21 33
14 8 14 -18 0 -32 -6 -6 -9 -17 -7 -25 3 -8 11 -1 21 18 12 23 13 34 4 43 -16
16 -23 14 -41 -15z"/>
<path d="M3715 653 c10 -56 25 -68 69 -53 40 13 76 60 46 60 -5 0 -10 -6 -10
-13 0 -22 -60 -52 -73 -37 -9 10 -9 11 3 6 8 -4 7 -1 -4 8 -11 9 -16 22 -12
31 4 11 2 14 -6 9 -8 -5 -9 -2 -5 9 4 10 2 17 -4 17 -7 0 -9 -13 -4 -37z"/>
<path d="M3760 665 c0 -27 35 -44 43 -21 4 10 1 13 -10 9 -8 -3 -19 0 -24 8
-5 8 -9 9 -9 4z"/>
<path d="M3681 644 c0 -11 3 -14 6 -6 3 7 2 16 -1 19 -3 4 -6 -2 -5 -13z"/>
<path d="M1155 600 c-27 -4 65 -5 205 -2 140 3 257 6 259 8 7 7 -412 1 -464
-6z"/>
<path d="M813 593 c48 -2 125 -2 170 0 45 1 6 3 -88 3 -93 0 -130 -2 -82 -3z"/>
<path d="M1078 593 c7 -3 16 -2 19 1 4 3 -2 6 -13 5 -11 0 -14 -3 -6 -6z"/>
<path d="M3023 593 c4 -3 10 -3 14 0 3 4 0 7 -7 7 -7 0 -10 -3 -7 -7z"/>
<path d="M3820 592 c0 -5 -10 -14 -22 -20 -14 -6 -17 -11 -8 -11 22 -1 54 26
41 34 -6 3 -11 2 -11 -3z"/>
<path d="M2965 560 c-16 -11 -25 -20 -20 -20 10 0 64 39 55 40 -3 0 -18 -9
-35 -20z"/>
<path d="M3730 574 c1 -16 28 -45 34 -36 3 5 -3 17 -14 27 -11 10 -20 14 -20
9z"/>
<path d="M3625 553 c-38 -29 -62 -128 -32 -137 70 -22 121 7 121 69 0 49 -56
92 -89 68z m63 -26 c23 -18 15 -75 -15 -94 -52 -34 -89 -13 -74 42 18 66 48
84 89 52z"/>
<path d="M3640 491 c-16 -30 -12 -36 10 -16 21 19 26 35 10 35 -5 0 -14 -9
-20 -19z"/>
<path d="M3613 443 c4 -3 10 -3 14 0 3 4 0 7 -7 7 -7 0 -10 -3 -7 -7z"/>
<path d="M3786 350 c-23 -48 -24 -55 -12 -85 12 -29 12 -37 -5 -75 -11 -24
-17 -45 -14 -48 2 -3 14 16 26 42 17 40 19 52 9 81 -10 29 -8 41 9 81 29 65
18 68 -13 4z"/>
<path d="M490 338 c-14 -5 -63 -18 -109 -28 -107 -24 -121 -36 -93 -82 11 -18
37 -42 56 -52 35 -18 35 -20 35 -78 -1 -33 2 -62 5 -65 7 -7 10 32 7 90 -2 37
-2 37 86 35 48 -1 80 -4 70 -6 -21 -4 -18 -21 7 -36 14 -8 20 -8 23 2 8 21 21
13 21 -13 0 -15 -5 -22 -12 -18 -6 3 -5 0 2 -8 11 -12 14 -12 22 1 8 13 11 13
22 1 10 -11 10 -14 1 -18 -21 -8 -15 -39 7 -40 24 -2 25 12 5 51 -14 25 -14
27 0 16 8 -7 15 -19 15 -26 0 -8 5 -14 11 -14 7 0 8 7 4 18 -4 9 -8 23 -8 30
0 7 -6 11 -13 8 -8 -3 -28 8 -46 24 -32 30 -32 30 8 30 40 0 94 -37 78 -53 -4
-3 7 -1 24 5 26 10 30 16 26 35 -4 14 -2 23 5 23 6 0 11 -6 11 -14 0 -7 15
-21 34 -30 37 -17 96 -22 96 -7 0 5 9 13 20 16 11 3 20 13 20 21 0 8 -4 13 -9
9 -5 -3 -12 -1 -16 5 -4 7 44 10 141 10 81 0 144 -3 141 -7 -4 -3 -25 -6 -48
-5 -32 2 -40 -1 -36 -12 4 -11 -2 -14 -24 -14 -16 1 -29 6 -29 13 0 8 -16 12
-47 11 -27 0 -47 -4 -45 -8 1 -5 2 -12 2 -18 0 -17 27 -11 34 7 4 11 10 13 14
7 20 -30 69 -36 117 -15 26 12 56 21 66 21 11 0 19 7 19 16 0 17 -133 17 -705
0 -133 -4 -178 8 -204 57 -19 35 -10 43 68 61 38 9 82 21 98 27 43 16 632 24
786 10 142 -13 245 -40 295 -77 69 -53 42 -64 -158 -64 -80 0 -151 -4 -159 -9
-12 -8 171 -6 302 3 47 3 47 3 47 -90 0 -52 3 -94 8 -94 4 0 7 52 7 116 -1
113 -1 117 -27 139 -33 29 -117 61 -200 76 -78 15 -841 21 -878 7z m200 -178
c0 -5 -4 -10 -10 -10 -5 0 -10 5 -10 10 0 6 5 10 10 10 6 0 10 -4 10 -10z m97
3 c-4 -3 -10 -3 -14 0 -3 4 0 7 7 7 7 0 10 -3 7 -7z m110 -16 c-6 -19 -97 -19
-97 0 0 12 7 14 35 10 19 -3 35 -2 35 3 0 5 7 7 15 3 9 -3 14 -10 12 -16z
m-330 -14 c-4 -3 -10 -3 -14 0 -3 4 0 7 7 7 7 0 10 -3 7 -7z"/>
<path d="M3405 269 c-20 -5 -9 -6 30 -2 33 3 62 7 64 9 8 7 -63 2 -94 -7z"/>
<path d="M3175 212 c-22 -11 -35 -21 -28 -25 6 -4 16 0 23 8 7 8 20 15 29 15
9 0 23 5 31 10 27 17 -10 12 -55 -8z"/>
<path d="M2155 160 c2 -24 15 -40 15 -17 0 22 -1 26 -10 32 -4 3 -6 -3 -5 -15z"/>
<path d="M330 98 c0 -34 3 -58 7 -54 4 3 6 25 4 48 -1 23 3 44 9 48 8 5 7 9
-4 13 -14 5 -16 -3 -16 -55z"/>
<path d="M1325 140 c27 -10 42 -29 48 -60 4 -22 4 -21 6 6 1 35 -24 64 -55 63
-18 0 -18 -1 1 -9z"/>
<path d="M3041 104 c-69 -47 -74 -56 -13 -25 30 15 97 73 81 70 -2 0 -33 -20
-68 -45z"/>
<path d="M1249 123 c-13 -15 -12 -15 9 -4 23 12 28 21 13 21 -5 0 -15 -7 -22
-17z"/>
<path d="M520 106 c0 -8 5 -18 10 -21 6 -3 10 3 10 14 0 12 -4 21 -10 21 -5 0
-10 -6 -10 -14z"/>
<path d="M2167 113 c-6 -9 18 -73 27 -73 8 0 -5 63 -14 73 -4 5 -10 5 -13 0z"/>
<path d="M351 94 c0 -11 3 -14 6 -6 3 7 2 16 -1 19 -3 4 -6 -2 -5 -13z"/>
<path d="M1100 91 c0 -10 24 -21 48 -21 11 0 6 6 -12 15 -33 18 -36 18 -36 6z"/>
<path d="M955 81 c-8 -15 3 -31 21 -31 9 0 14 7 12 17 -4 20 -24 28 -33 14z"/>
<path d="M1021 76 c-15 -17 5 -26 60 -26 45 0 52 17 12 26 -16 3 -35 8 -44 10
-9 3 -21 -2 -28 -10z m46 -12 c-3 -3 -12 -4 -19 -1 -8 3 -5 6 6 6 11 1 17 -2
13 -5z"/>
<path d="M530 60 c0 -5 7 -10 15 -10 8 0 15 5 15 10 0 6 -7 10 -15 10 -8 0
-15 -4 -15 -10z"/>
<path d="M573 58 c5 -14 1 -18 -16 -19 -12 0 -31 -4 -42 -9 -15 -6 -9 -8 23
-8 46 1 65 20 42 41 -10 10 -12 8 -7 -5z"/>
<path d="M935 50 c3 -5 8 -10 11 -10 3 0 2 5 -1 10 -3 6 -8 10 -11 10 -3 0 -2
-4 1 -10z"/>
<path d="M1146 48 c-2 -7 -7 -21 -10 -31 -3 -11 -2 -16 4 -12 6 3 10 13 10 21
0 8 5 14 10 14 6 0 10 -7 10 -15 0 -8 4 -15 8 -15 5 0 8 10 7 23 -2 24 -33 37
-39 15z"/>
<path d="M270 26 c0 -2 7 -7 16 -10 8 -3 12 -2 9 4 -6 10 -25 14 -25 6z"/>
<path d="M2165 20 c3 -5 16 -10 27 -10 26 0 16 13 -13 17 -12 2 -18 -1 -14 -7z"/>
<path d="M330 10 c0 -7 3 -10 7 -7 3 4 3 10 0 14 -4 3 -7 0 -7 -7z"/>
<path d="M370 10 c20 -13 33 -13 25 0 -3 5 -14 10 -23 10 -15 0 -15 -2 -2 -10z"/>
<path d="M543 3 c4 -3 10 -3 14 0 3 4 0 7 -7 7 -7 0 -10 -3 -7 -7z"/>
</g>
</svg>
