<?xml version="1.0" standalone="no"?>
<!DOCTYPE svg PUBLIC "-//W3C//DTD SVG 20010904//EN"
 "http://www.w3.org/TR/2001/REC-SVG-20010904/DTD/svg10.dtd">
<svg version="1.0" xmlns="http://www.w3.org/2000/svg"
 width="340.000000pt" height="256.000000pt" viewBox="0 0 340.000000 256.000000"
 preserveAspectRatio="xMidYMid meet">
<metadata>
Created by potrace 1.16, written by Peter Selinger 2001-2019
</metadata>
<g transform="translate(0.000000,256.000000) scale(0.100000,-0.100000)"
fill="#000000" stroke="none">
<path d="M2875 2525 c156 -95 234 -131 395 -180 30 -9 67 -25 81 -36 15 -10
33 -19 41 -19 29 1 -95 62 -163 81 -88 24 -195 73 -292 132 -40 25 -83 48 -97
52 -14 4 2 -10 35 -30z"/>
<path d="M2000 2371 c0 -26 133 -201 153 -201 5 0 -8 19 -30 43 -21 23 -56 70
-77 105 -38 61 -46 70 -46 53z"/>
<path d="M1727 2355 c-37 -19 -137 -105 -137 -117 0 -5 28 15 63 44 34 29 74
61 87 70 31 21 24 23 -13 3z"/>
<path d="M1777 2302 c-10 -11 -17 -35 -17 -60 0 -39 2 -42 38 -51 20 -6 46
-10 57 -10 11 1 0 6 -25 11 -25 6 -48 15 -52 22 -12 17 -9 61 4 74 17 17 28
15 28 -5 0 -10 5 -25 10 -33 7 -11 10 -4 10 28 0 47 -23 58 -53 24z"/>
<path d="M1910 2313 c1 -11 59 -119 60 -111 0 12 -48 118 -54 118 -4 0 -6 -3
-6 -7z"/>
<path d="M1536 2284 c-5 -14 -4 -15 9 -4 17 14 19 20 6 20 -5 0 -12 -7 -15
-16z"/>
<path d="M1385 2230 c-27 -42 -54 -54 -150 -65 -88 -10 -97 -12 -130 -25 -16
-6 -56 -11 -89 -11 -55 1 -263 -36 -331 -58 -161 -53 -226 -91 -328 -192 -62
-62 -87 -99 -67 -99 6 0 10 5 10 11 0 14 121 133 168 166 82 57 230 109 413
144 110 22 119 22 158 7 23 -9 39 -12 36 -8 -11 19 102 49 234 63 26 3 31 1
20 -7 -8 -6 -14 -20 -14 -31 0 -12 -6 -19 -14 -17 -12 3 -12 0 -1 -13 16 -19
8 -158 -10 -181 -10 -11 -10 -14 1 -14 9 0 10 -3 3 -8 -19 -13 -26 -45 -9 -38
24 9 18 -29 -9 -61 -25 -28 -25 -28 -35 -3 -10 22 -11 21 -6 -13 5 -32 3 -39
-17 -47 -22 -10 -22 -10 4 -5 20 4 28 0 32 -13 8 -24 -36 -113 -63 -130 -12
-7 -21 -20 -21 -30 1 -14 3 -13 13 5 12 23 12 23 26 1 7 -11 9 -23 4 -27 -4
-3 -8 -10 -8 -16 0 -9 -18 -67 -32 -105 -3 -8 -7 -46 -8 -83 -3 -75 -7 -86
-30 -67 -13 11 -14 10 -9 -3 3 -8 12 -18 20 -21 16 -6 14 -21 -11 -86 -7 -19
-21 -64 -31 -99 -13 -46 -20 -58 -25 -45 -6 16 -8 14 -13 -11 -4 -16 -13 -43
-20 -60 -14 -30 -14 -30 -21 16 -9 59 15 122 42 112 17 -6 17 -5 -1 15 -15 18
-17 26 -7 53 6 18 11 57 11 88 0 31 5 74 10 96 6 22 14 71 20 108 11 72 52
167 73 167 9 0 9 2 0 8 -25 16 -11 153 32 304 27 95 30 113 13 84 -14 -26 -68
-238 -62 -247 2 -4 0 -18 -5 -32 -5 -13 -12 -37 -15 -53 -3 -16 -14 -65 -26
-109 -26 -104 -41 -198 -64 -404 -3 -23 -8 -46 -12 -50 -4 -3 -4 11 -1 32 7
43 1 48 -13 12 -5 -14 -24 -31 -42 -40 -33 -15 -33 -15 1 -9 33 6 34 5 28 -22
-3 -16 -9 -38 -13 -48 -5 -12 -4 -17 3 -13 10 7 27 -78 18 -92 -2 -4 -9 -39
-15 -77 -6 -38 -13 -78 -15 -89 -3 -11 2 -6 10 10 8 17 15 44 16 60 1 30 1 30
10 5 7 -19 8 -14 5 23 -3 34 0 47 10 47 12 0 15 -17 14 -88 0 -12 -15 -52 -34
-90 -35 -66 -35 -67 -37 -32 -1 35 -1 35 -12 -10 -6 -25 -18 -50 -26 -57 -9
-6 -12 -15 -8 -19 4 -5 12 -2 17 6 7 10 9 -6 9 -50 0 -36 -3 -60 -5 -54 -6 13
-44 6 -44 -7 0 -6 7 -12 15 -15 11 -5 12 -11 4 -27 -6 -14 1 -9 19 11 21 24
31 30 35 20 4 -7 4 0 2 15 -4 26 -2 28 20 23 22 -6 25 -3 25 23 0 16 -5 42
-10 57 -7 18 -8 36 -1 53 5 14 12 39 16 55 10 45 12 26 6 -47 -6 -59 -4 -68
11 -73 19 -6 44 -43 40 -57 -1 -5 2 -6 8 -2 13 8 50 -3 50 -16 0 -5 -12 -9
-27 -9 -23 0 -28 -4 -28 -24 0 -18 4 -22 14 -16 8 4 21 5 30 3 13 -3 20 5 27
34 7 29 18 43 49 60 23 13 40 30 41 41 1 10 4 34 8 54 4 21 1 48 -8 69 -28 69
-29 79 -8 79 11 0 31 12 45 26 14 14 31 23 37 19 8 -5 9 6 5 37 -7 47 -20 68
-41 68 -38 0 -38 178 -1 194 7 2 5 5 -5 5 -24 1 -43 61 -19 61 9 0 22 -5 29
-12 7 -7 12 -9 12 -4 0 14 -25 33 -38 28 -6 -2 -16 7 -21 20 -16 39 -13 -29 3
-75 8 -20 10 -39 6 -42 -4 -2 -5 -16 -2 -30 4 -21 0 -27 -18 -32 -16 -4 -20
-11 -16 -27 3 -11 6 -27 6 -34 0 -7 5 -10 10 -7 6 3 10 -1 10 -9 0 -11 -9 -16
-27 -16 -24 -1 -26 -2 -10 -11 9 -5 22 -7 27 -4 15 9 71 -27 66 -42 -3 -7 -1
-15 4 -18 17 -10 11 -28 -6 -21 -11 4 -15 2 -11 -8 7 -18 -24 -46 -51 -46 -22
0 -62 -68 -62 -104 0 -9 -4 -16 -10 -16 -5 0 -10 -5 -10 -11 0 -5 4 -8 9 -5
12 8 75 -55 76 -77 1 -12 -11 -25 -36 -38 -38 -19 -38 -19 -55 4 -16 21 -15
15 2 -27 4 -10 -2 -12 -21 -9 -16 4 -27 14 -31 29 -3 13 -12 28 -20 35 -8 6
-14 16 -14 21 0 5 10 -1 22 -12 13 -12 24 -16 26 -10 2 5 15 10 28 10 13 0 24
4 24 9 0 5 -9 7 -20 4 -11 -3 -20 0 -20 6 0 6 7 11 15 11 8 0 15 6 15 12 0 21
-52 149 -58 143 -7 -7 -32 60 -38 103 -3 23 -1 31 6 27 6 -4 10 -14 9 -23 -1
-10 0 -24 0 -32 3 -22 70 180 71 211 0 14 10 34 22 45 12 10 19 14 15 8 -3 -5
5 -23 19 -40 21 -24 23 -25 11 -4 -21 36 -30 80 -16 80 8 0 9 19 5 63 -8 80 3
122 32 121 14 0 22 6 22 15 1 13 4 12 16 -4 10 -13 13 -31 9 -50 -3 -19 0 -38
9 -50 13 -18 14 -17 9 21 -4 30 0 52 16 82 29 57 40 60 47 12 4 -22 10 -43 15
-46 10 -6 5 36 -10 94 -7 24 -9 52 -5 64 4 14 2 18 -5 14 -6 -4 -11 -14 -11
-21 0 -8 -11 -17 -24 -21 -15 -3 -23 -11 -20 -19 3 -7 -5 -22 -17 -34 -62 -57
-82 8 -37 122 15 40 26 77 24 82 -3 6 -5 2 -5 -7 -1 -10 -5 -18 -11 -18 -13 0
0 30 28 65 25 32 42 23 42 -22 0 -13 3 -23 8 -23 4 0 6 18 4 40 -2 22 -7 40
-11 40 -7 0 -10 70 -10 249 -1 105 1 115 22 135 12 11 31 40 41 64 19 42 19
42 78 39 40 -2 62 1 70 10 24 29 123 4 276 -71 40 -20 77 -36 83 -36 14 0 123
-75 194 -133 98 -81 171 -171 234 -287 47 -87 51 -106 20 -90 -11 7 -23 9 -26
7 -2 -3 4 -8 14 -11 20 -7 73 -85 73 -108 0 -8 8 -23 19 -32 23 -21 55 -130
47 -162 -5 -17 2 -32 25 -56 21 -23 27 -26 20 -11 -6 12 -16 25 -21 28 -6 4
-8 15 -5 25 7 23 -30 158 -49 179 -8 9 -29 55 -46 102 -58 162 -161 314 -278
411 -69 58 -197 148 -210 148 -6 0 -57 22 -115 49 -137 65 -211 87 -243 72
-22 -9 -26 -8 -34 13 -21 57 -91 60 -125 6z m109 -2 c20 -29 9 -35 -60 -36
-56 0 -58 3 -26 41 21 24 67 22 86 -5z m-114 -57 c0 -5 -6 -16 -13 -23 -8 -7
-12 -18 -10 -23 4 -13 -23 -52 -31 -44 -8 8 14 69 25 69 5 0 9 7 9 15 0 8 5
15 10 15 6 0 10 -4 10 -9z m-71 -461 c-4 -8 -15 -24 -24 -35 -17 -20 -17 -20
-10 0 4 11 9 31 11 45 5 29 12 63 15 70 1 3 5 -11 8 -30 4 -19 4 -42 0 -50z
m-29 40 c0 -5 -4 -10 -9 -10 -6 0 -13 5 -16 10 -3 6 1 10 9 10 9 0 16 -4 16
-10z m-137 -160 c-3 -12 -8 -19 -11 -16 -5 6 5 36 12 36 2 0 2 -9 -1 -20z m94
-4 c-3 -8 -1 -17 6 -19 7 -2 8 -8 4 -13 -11 -11 -27 15 -20 33 3 7 7 13 10 13
3 0 3 -6 0 -14z m-17 -208 c0 -13 -23 -5 -28 10 -2 7 2 10 12 6 9 -3 16 -11
16 -16z m-33 -40 c-3 -8 -6 -5 -6 6 -1 11 2 17 5 13 3 -3 4 -12 1 -19z m-5
-70 c-7 -7 -12 -8 -12 -2 0 14 12 26 19 19 2 -3 -1 -11 -7 -17z m-5 -75 c-3
-10 -5 -2 -5 17 0 19 2 27 5 18 2 -10 2 -26 0 -35z m20 -5 c-3 -8 -6 -5 -6 6
-1 11 2 17 5 13 3 -3 4 -12 1 -19z m-27 -34 c0 -3 -9 -17 -20 -31 -23 -29 -25
-25 -8 12 10 22 28 35 28 19z m-33 -81 c-4 -3 -7 0 -7 7 0 7 3 10 7 7 3 -4 3
-10 0 -14z m110 -40 c-4 -3 -7 0 -7 7 0 7 3 10 7 7 3 -4 3 -10 0 -14z m-147
-79 c0 -8 -5 -12 -10 -9 -6 4 -8 11 -5 16 9 14 15 11 15 -7z m124 -206 c-4 -6
-3 -13 2 -17 20 -13 34 -62 24 -79 -8 -15 -9 -14 -10 6 0 13 -10 33 -23 46
-24 24 -21 76 3 61 6 -4 7 -11 4 -17z m-152 -100 c-5 -5 -8 1 -6 14 1 13 4 41
5 63 2 35 3 33 6 -14 2 -30 0 -58 -5 -63z m143 42 c3 -5 4 -10 1 -10 -3 0 -8
5 -11 10 -3 6 -4 10 -1 10 3 0 8 -4 11 -10z m-80 -20 c3 -5 1 -10 -4 -10 -6 0
-11 5 -11 10 0 6 2 10 4 10 3 0 8 -4 11 -10z m92 -17 c-4 -3 -7 0 -7 7 0 7 3
10 7 7 3 -4 3 -10 0 -14z m-240 -110 c-4 -3 -7 0 -7 7 0 7 3 10 7 7 3 -4 3
-10 0 -14z m27 1 c3 -8 2 -12 -4 -9 -6 3 -10 10 -10 16 0 14 7 11 14 -7z"/>
<path d="M1890 2255 c0 -5 5 -17 10 -25 5 -8 10 -10 10 -5 0 6 -5 17 -10 25
-5 8 -10 11 -10 5z"/>
<path d="M2885 2231 c-113 -33 -193 -89 -231 -163 -9 -17 -24 -40 -35 -51 -59
-63 -61 -78 -57 -473 3 -363 3 -363 31 -391 15 -16 27 -36 27 -44 -1 -8 -11
-2 -25 16 -14 17 -25 26 -25 22 0 -16 32 -63 50 -75 15 -9 17 -6 14 26 -2 37
-29 145 -41 166 -3 6 9 -3 28 -21 57 -52 132 -89 126 -60 -1 6 5 10 13 9 30
-7 86 -6 115 3 17 5 51 7 78 6 50 -3 56 4 36 41 -9 16 -7 24 10 42 26 28 43
81 35 112 -8 30 -92 74 -220 114 -107 34 -193 88 -194 123 0 10 -4 16 -10 12
-9 -6 -46 42 -38 50 2 2 28 -18 58 -45 30 -28 58 -50 62 -50 4 0 10 -9 13 -20
7 -22 40 -43 58 -37 7 2 -4 12 -23 22 -29 16 -32 20 -16 23 33 7 49 29 28 38
-9 4 -22 8 -28 8 -19 2 -104 100 -104 121 0 11 -6 32 -14 46 -27 51 -29 114
-6 159 26 51 32 47 41 -32 5 -42 13 -67 26 -78 10 -8 31 -31 46 -51 30 -40
131 -99 168 -99 16 1 7 7 -26 19 -88 31 -117 54 -149 118 -25 50 -19 49 17 -2
59 -86 117 -110 267 -110 143 1 169 10 234 79 53 55 66 90 57 149 -10 63 -19
70 -14 10 3 -27 0 -64 -6 -83 -11 -35 -11 -35 -6 -2 3 18 1 31 -4 28 -4 -3 -6
5 -4 17 7 44 -58 139 -123 177 -57 34 -62 35 -153 33 -62 -2 -99 1 -110 9 -9
7 -13 8 -8 3 9 -11 -21 -45 -40 -45 -8 0 -12 -4 -8 -9 3 -5 1 -12 -5 -16 -5
-3 -10 -1 -10 4 0 16 -36 7 -60 -14 -31 -28 -49 -77 -51 -140 -3 -60 -13 -64
-24 -9 -8 45 12 118 41 149 11 12 18 27 16 34 -2 7 5 15 17 18 12 3 21 10 21
15 0 5 -6 6 -12 3 -7 -4 -2 2 11 13 14 11 32 18 40 15 12 -4 13 -3 3 4 -15 11
12 25 100 53 97 30 238 -11 320 -94 48 -47 121 -209 126 -276 5 -63 -10 -103
-33 -94 -10 4 -15 0 -15 -15 0 -11 -8 -25 -18 -30 -10 -5 -24 -21 -32 -35 -7
-14 -19 -26 -25 -26 -6 0 -20 -17 -31 -37 -13 -24 -27 -37 -37 -35 -14 2 -15
-2 -5 -29 9 -27 8 -34 -5 -44 -10 -7 -17 -21 -17 -31 0 -14 7 -9 27 19 14 20
30 37 35 37 4 0 8 5 8 11 0 8 -5 8 -15 -1 -12 -10 -15 -10 -15 4 0 9 7 16 15
16 8 0 15 6 15 14 0 8 15 24 34 35 81 51 126 131 126 226 0 55 -6 74 -54 171
-72 146 -131 197 -266 228 -78 19 -70 19 -145 -3z m120 -112 c-15 -7 -9 -8 20
-4 27 4 35 3 26 -4 -11 -7 -3 -12 30 -20 70 -18 92 -33 122 -86 54 -98 30
-211 -48 -231 -14 -3 -23 -10 -20 -14 3 -5 0 -12 -6 -16 -8 -5 -9 -3 -4 6 6
10 4 11 -11 6 -120 -50 -281 -22 -353 60 -76 86 -86 156 -31 216 27 29 46 26
34 -6 -10 -27 4 -60 33 -78 35 -20 178 -52 198 -44 8 3 15 1 15 -3 0 -39 -187
-6 -237 41 -13 12 -23 29 -23 39 0 24 -19 34 -27 14 -3 -10 0 -21 7 -25 7 -4
9 -13 6 -19 -4 -6 -1 -11 7 -11 8 0 22 -9 31 -19 19 -20 86 -41 135 -41 36 0
61 -9 61 -22 0 -6 -13 -8 -30 -6 -16 3 -30 1 -30 -2 0 -4 14 -10 30 -13 17 -4
30 -12 30 -18 0 -14 -42 -5 -93 22 -21 10 -49 19 -62 19 -25 0 -65 35 -65 57
0 7 -7 13 -15 13 -47 0 20 -82 70 -86 22 -2 67 -14 100 -28 33 -14 61 -21 63
-16 2 5 17 4 33 -2 17 -6 33 -7 37 -4 3 4 -4 9 -16 13 -12 3 -22 9 -22 14 0 5
-7 9 -15 9 -18 0 -20 16 -3 26 6 4 18 -2 27 -13 43 -53 144 -37 171 27 16 38
9 138 -11 151 -43 28 -214 48 -249 29 -11 -6 -21 -5 -28 2 -21 21 -13 27 41
31 52 3 52 3 -5 5 -31 1 -60 7 -63 12 -6 10 3 12 72 14 23 1 45 4 49 9 4 4 14
7 23 6 12 0 11 -3 -4 -10z m82 -16 c-4 -3 -10 -3 -14 0 -3 4 0 7 7 7 7 0 10
-3 7 -7z m-221 -47 c15 -11 20 -23 16 -45 -4 -31 -15 -40 -27 -21 -3 6 -1 10
4 10 22 0 10 20 -20 36 -25 12 -29 18 -18 25 19 12 21 11 45 -5z m-66 -6 c0
-6 15 -17 33 -25 17 -8 26 -14 19 -15 -7 0 -22 5 -33 10 -16 9 -19 7 -19 -10
0 -11 -4 -20 -9 -20 -5 0 -9 16 -8 35 1 30 17 53 17 25z m230 -10 c0 -12 -17
-12 -45 0 -17 7 -15 9 13 9 17 1 32 -3 32 -9z m-31 -21 c33 -12 34 -13 25 -46
-6 -23 -34 -21 -34 3 0 8 -4 14 -10 14 -5 0 -10 -4 -10 -9 0 -5 -10 -7 -22 -3
-13 3 -19 1 -15 -5 5 -7 -1 -9 -15 -5 -16 4 -19 2 -13 -8 5 -9 4 -11 -3 -6
-16 10 -15 47 1 45 32 -4 40 1 27 16 -16 19 20 21 69 4z m151 -16 c30 -25 32
-30 26 -71 -7 -55 -14 -66 -31 -52 -11 9 -12 7 -8 -8 6 -26 -12 -36 -31 -17
-14 14 -16 13 -22 -9 -3 -15 -11 -23 -19 -20 -8 3 -11 13 -8 21 4 10 2 14 -4
10 -6 -4 -14 0 -17 9 -4 12 -2 15 9 10 12 -4 14 0 9 19 -8 31 9 33 30 3 9 -12
18 -19 22 -16 3 4 -4 16 -15 27 -12 12 -21 28 -21 36 0 8 -4 15 -10 15 -5 0
-10 5 -10 11 0 5 4 7 10 4 7 -4 7 3 0 20 -14 36 -14 35 24 35 23 0 45 -9 66
-27z m-299 -23 c29 -26 30 -30 15 -36 -11 -4 -21 -1 -27 7 -4 8 -12 12 -16 9
-4 -3 -9 7 -11 23 -4 34 -1 34 39 -3z m129 -50 c-8 -15 -16 -17 -38 -10 -50
16 -57 20 -25 16 21 -4 33 -1 37 9 3 8 12 12 20 9 12 -5 13 -11 6 -24z m40 0
c0 -5 -4 -10 -10 -10 -5 0 -10 5 -10 10 0 6 5 10 10 10 6 0 10 -4 10 -10z
m-414 -181 c4 -23 15 -46 25 -52 23 -14 25 -26 3 -23 -19 3 -38 33 -40 61 0
11 -4 31 -8 44 -6 16 -5 21 3 17 6 -4 14 -25 17 -47z m704 -33 c0 -3 -5 -8
-12 -12 -7 -4 -8 -3 -4 4 7 12 16 16 16 8z m-40 -51 c-7 -9 -15 -13 -18 -10
-3 2 1 11 8 20 7 9 15 13 18 10 3 -2 -1 -11 -8 -20z m-550 -45 c6 0 10 -4 10
-10 0 -5 -4 -10 -8 -10 -12 0 -52 39 -52 50 0 6 9 1 20 -10 11 -11 25 -20 30
-20z m510 16 c0 -3 -5 -8 -12 -12 -7 -4 -8 -3 -4 4 7 12 16 16 16 8z m-617
-100 c-10 -54 -23 -53 -23 1 0 28 -3 60 -6 70 -3 10 3 5 14 -11 15 -21 19 -39
15 -60z m94 -8 c33 -37 -12 -19 -48 18 -34 37 -34 37 -1 18 18 -10 40 -27 49
-36z m-62 -37 c-8 -45 -25 -46 -25 -1 0 40 10 64 22 52 6 -6 7 -28 3 -51z
m155 4 c24 -14 24 -14 4 -15 -17 0 -23 -8 -28 -35 -4 -21 -13 -35 -21 -35 -17
0 -20 16 -5 25 6 4 6 15 -1 32 -7 20 -6 28 3 35 17 10 18 10 48 -7z m-69 -21
c10 -13 10 -17 -1 -24 -16 -10 -33 -3 -25 11 3 5 -2 6 -11 2 -15 -6 -15 -8 4
-24 31 -25 27 -32 -8 -14 -42 22 -43 65 -1 65 16 0 34 -7 42 -16z m195 -20
c76 -33 94 -50 94 -87 0 -30 -1 -30 -16 -11 -8 10 -13 13 -9 7 8 -16 -17 -17
-33 -1 -7 7 -12 18 -12 26 0 8 -9 25 -19 38 -18 23 -20 23 -29 8 -11 -20 -72
-2 -72 21 0 32 21 32 96 -1z m-339 -1 c-4 -3 -7 0 -7 7 0 7 3 10 7 7 3 -4 3
-10 0 -14z m230 -10 c-4 -3 -7 0 -7 7 0 7 3 10 7 7 3 -4 3 -10 0 -14z m-186
-63 c5 0 9 9 9 20 0 22 12 25 39 10 13 -6 17 -17 14 -37 -4 -28 -4 -28 9 -3
12 22 19 25 58 22 55 -5 65 -13 50 -42 -6 -12 -9 -24 -6 -28 3 -3 6 -1 6 5 0
15 90 83 109 83 12 0 13 -2 3 -8 -9 -6 -3 -17 19 -40 31 -31 31 -33 13 -47
-32 -23 -64 -27 -97 -10 -25 12 -33 13 -43 3 -17 -18 -29 -68 -16 -68 6 0 13
10 15 23 3 16 5 14 6 -9 1 -42 -21 -61 -55 -45 -23 10 -25 15 -19 50 6 37 5
38 -26 45 -44 8 -59 23 -59 58 0 17 -4 27 -10 23 -5 -3 -10 -15 -10 -26 0 -26
-10 -24 -38 9 -20 22 -21 28 -8 30 9 2 17 13 18 25 0 12 3 7 5 -10 2 -18 8
-33 14 -33z m219 35 c10 -12 10 -19 2 -27 -15 -15 -48 14 -38 31 10 15 21 14
36 -4z m-63 -12 c-4 -3 -7 0 -7 7 0 7 3 10 7 7 3 -4 3 -10 0 -14z m-127 -99
c19 -10 40 -19 45 -19 6 -1 16 -3 22 -3 13 -2 7 -59 -7 -75 -20 -23 -100 46
-119 102 -15 45 -14 47 7 29 9 -9 33 -24 52 -34z m329 -13 c-13 -16 -29 -30
-36 -30 -6 -1 -25 -14 -41 -31 -39 -39 -65 -40 -56 -3 5 19 2 30 -11 39 -27
20 -14 25 38 15 47 -8 92 7 112 39 4 6 9 9 12 6 3 -3 -5 -18 -18 -35z m-39
-65 c0 -2 -7 -7 -16 -10 -8 -3 -12 -2 -9 4 6 10 25 14 25 6z m35 -6 c3 -5 2
-10 -4 -10 -5 0 -13 5 -16 10 -3 6 -2 10 4 10 5 0 13 -4 16 -10z m-148 -17
c-4 -3 -7 0 -7 7 0 7 3 10 7 7 3 -4 3 -10 0 -14z"/>
<path d="M2933 2103 c4 -3 10 -3 14 0 3 4 0 7 -7 7 -7 0 -10 -3 -7 -7z"/>
<path d="M2987 2099 c7 -7 15 -10 18 -7 3 3 -2 9 -12 12 -14 6 -15 5 -6 -5z"/>
<path d="M2790 1880 c0 -6 7 -10 15 -10 8 0 15 2 15 4 0 2 -7 6 -15 10 -8 3
-15 1 -15 -4z"/>
<path d="M2793 1823 c9 -2 25 -2 35 0 9 3 1 5 -18 5 -19 0 -27 -2 -17 -5z"/>
<path d="M3118 1793 c7 -3 16 -2 19 1 4 3 -2 6 -13 5 -11 0 -14 -3 -6 -6z"/>
<path d="M2920 1770 c0 -7 3 -10 7 -7 3 4 3 10 0 14 -4 3 -7 0 -7 -7z"/>
<path d="M2961 1776 c2 -2 15 -9 29 -16 23 -12 24 -12 11 3 -7 10 -20 17 -29
17 -8 0 -13 -2 -11 -4z"/>
<path d="M2953 1743 c4 -3 10 -3 14 0 3 4 0 7 -7 7 -7 0 -10 -3 -7 -7z"/>
<path d="M3130 1910 c0 -7 3 -10 7 -7 3 4 3 10 0 14 -4 3 -7 0 -7 -7z"/>
<path d="M3150 1900 c0 -7 3 -10 7 -7 3 4 3 10 0 14 -4 3 -7 0 -7 -7z"/>
<path d="M2738 1374 c-8 -7 2 -44 12 -44 4 0 10 11 12 25 5 23 -9 34 -24 19z"/>
<path d="M2873 1361 c-13 -20 -8 -31 14 -31 7 0 13 11 13 25 0 30 -11 32 -27
6z"/>
<path d="M2090 2180 c15 -28 70 -86 70 -73 -1 4 -19 28 -42 53 -24 27 -36 35
-28 20z"/>
<path d="M1944 2178 c-4 -7 -3 -8 4 -4 7 4 12 9 12 12 0 8 -9 4 -16 -8z"/>
<path d="M345 2150 c3 -5 8 -10 11 -10 3 0 2 5 -1 10 -3 6 -8 10 -11 10 -3 0
-2 -4 1 -10z"/>
<path d="M1250 2090 c12 -8 10 -14 -13 -38 -15 -15 -27 -32 -27 -37 0 -14 41
28 56 57 14 27 13 28 -8 28 -18 0 -20 -2 -8 -10z"/>
<path d="M3232 2051 c13 -15 24 -27 26 -26 6 6 -30 55 -40 55 -5 0 1 -13 14
-29z"/>
<path d="M1070 2046 c0 -14 4 -26 10 -26 5 0 7 6 4 14 -4 12 2 13 33 6 34 -8
36 -7 19 5 -10 8 -23 12 -28 9 -5 -3 -15 0 -23 6 -13 10 -15 8 -15 -14z"/>
<path d="M1051 1987 c-13 -21 -12 -21 5 -5 10 10 16 20 13 22 -3 3 -11 -5 -18
-17z"/>
<path d="M1821 1986 c7 -15 15 -23 17 -16 3 7 -3 19 -13 28 -15 16 -16 15 -4
-12z"/>
<path d="M1096 1936 c-14 -19 -26 -43 -26 -53 0 -14 3 -12 13 7 7 14 21 37 31
53 26 38 13 34 -18 -7z"/>
<path d="M1841 1934 c0 -11 3 -14 6 -6 3 7 2 16 -1 19 -3 4 -6 -2 -5 -13z"/>
<path d="M1976 1928 c3 -10 10 -18 14 -18 13 0 28 -56 54 -208 13 -79 27 -146
31 -150 4 -4 5 10 1 30 -5 29 -3 39 11 47 17 10 17 10 1 11 -10 0 -20 10 -22
23 -3 12 -14 69 -25 126 -16 84 -25 110 -46 130 -18 18 -24 21 -19 9z"/>
<path d="M735 1910 c-3 -5 -2 -10 4 -10 5 0 13 5 16 10 3 6 2 10 -4 10 -5 0
-13 -4 -16 -10z"/>
<path d="M1840 1859 c0 -19 30 -82 36 -76 5 5 -16 69 -27 82 -6 5 -9 3 -9 -6z"/>
<path d="M1250 1850 c0 -7 3 -10 7 -7 3 4 3 10 0 14 -4 3 -7 0 -7 -7z"/>
<path d="M403 1833 c4 -3 10 -3 14 0 3 4 0 7 -7 7 -7 0 -10 -3 -7 -7z"/>
<path d="M388 1813 c7 -3 16 -2 19 1 4 3 -2 6 -13 5 -11 0 -14 -3 -6 -6z"/>
<path d="M246 1757 c-9 -30 -16 -62 -16 -70 0 -8 -11 -30 -24 -50 -28 -41 -44
-83 -27 -73 6 4 11 11 11 17 0 16 67 103 114 147 25 23 46 45 46 48 0 4 -21
-12 -46 -36 -54 -49 -61 -47 -44 15 7 25 10 48 7 51 -3 3 -12 -19 -21 -49z"/>
<path d="M3315 1779 c-4 -6 -5 -12 -2 -15 2 -3 7 2 10 11 7 17 1 20 -8 4z"/>
<path d="M650 1680 c-29 -32 -55 -62 -59 -67 -3 -4 12 8 34 27 22 18 47 43 55
54 8 12 21 26 30 33 8 7 10 13 4 13 -6 0 -35 -27 -64 -60z"/>
<path d="M3342 1670 c-1 -25 -5 -56 -7 -70 -6 -25 -6 -25 5 0 6 13 9 45 7 70
-3 45 -3 45 -5 0z"/>
<path d="M2143 1663 c9 -2 25 -2 35 0 9 3 1 5 -18 5 -19 0 -27 -2 -17 -5z"/>
<path d="M2203 1653 c4 -3 10 -3 14 0 3 4 0 7 -7 7 -7 0 -10 -3 -7 -7z"/>
<path d="M2280 1650 c8 -5 20 -10 25 -10 6 0 3 5 -5 10 -8 5 -19 10 -25 10 -5
0 -3 -5 5 -10z"/>
<path d="M3013 1595 c0 -33 2 -45 4 -27 2 18 2 45 0 60 -2 15 -4 0 -4 -33z"/>
<path d="M3031 1634 c0 -11 3 -14 6 -6 3 7 2 16 -1 19 -3 4 -6 -2 -5 -13z"/>
<path d="M2200 1620 c8 -5 20 -10 25 -10 6 0 3 5 -5 10 -8 5 -19 10 -25 10 -5
0 -3 -5 5 -10z"/>
<path d="M3063 1585 c0 -22 2 -30 4 -17 2 12 2 30 0 40 -3 9 -5 -1 -4 -23z"/>
<path d="M3310 1610 c0 -7 3 -10 7 -7 3 4 3 10 0 14 -4 3 -7 0 -7 -7z"/>
<path d="M2273 1603 c4 -3 10 -3 14 0 3 4 0 7 -7 7 -7 0 -10 -3 -7 -7z"/>
<path d="M2887 1590 c-3 -11 -1 -20 4 -20 5 0 9 9 9 20 0 11 -2 20 -4 20 -2 0
-6 -9 -9 -20z"/>
<path d="M2942 1585 c0 -16 2 -22 5 -12 2 9 2 23 0 30 -3 6 -5 -1 -5 -18z"/>
<path d="M1330 1590 c0 -6 -4 -9 -8 -6 -4 2 -14 1 -22 -5 -12 -7 -10 -9 7 -9
27 0 38 -16 23 -34 -8 -11 -6 -14 15 -12 26 1 32 10 15 21 -5 3 -10 15 -10 25
0 10 -4 22 -10 25 -5 3 -10 1 -10 -5z"/>
<path d="M2961 1564 c0 -11 3 -14 6 -6 3 7 2 16 -1 19 -3 4 -6 -2 -5 -13z"/>
<path d="M3042 1560 c0 -14 2 -19 5 -12 2 6 2 18 0 25 -3 6 -5 1 -5 -13z"/>
<path d="M2992 1550 c0 -14 2 -19 5 -12 2 6 2 18 0 25 -3 6 -5 1 -5 -13z"/>
<path d="M3091 1554 c0 -11 3 -14 6 -6 3 7 2 16 -1 19 -3 4 -6 -2 -5 -13z"/>
<path d="M2818 1533 c7 -3 16 -2 19 1 4 3 -2 6 -13 5 -11 0 -14 -3 -6 -6z"/>
<path d="M3218 1508 c-12 -18 -33 -44 -46 -58 -24 -25 -24 -25 -17 0 7 24 7
24 -19 -5 -31 -36 -31 -37 -7 -59 19 -17 20 -17 34 15 8 19 25 48 39 64 26 32
52 75 44 75 -3 0 -15 -15 -28 -32z m-71 -115 c-4 -3 -10 -3 -14 0 -3 4 0 7 7
7 7 0 10 -3 7 -7z"/>
<path d="M234 1464 c-18 -14 -18 -14 6 -3 31 14 36 19 24 19 -6 0 -19 -7 -30
-16z"/>
<path d="M105 1460 c-4 -6 -11 -8 -16 -5 -5 4 -9 -6 -9 -20 0 -14 -9 -42 -19
-63 -10 -20 -26 -59 -34 -87 -8 -27 -18 -59 -22 -70 -6 -14 -5 -17 2 -10 6 6
16 28 23 50 13 43 65 169 80 198 11 18 6 24 -5 7z"/>
<path d="M185 1443 c-25 -6 -45 -22 -45 -36 0 -5 8 -3 18 6 10 10 24 17 30 17
6 0 14 5 17 10 3 6 5 9 3 9 -2 -1 -12 -4 -23 -6z"/>
<path d="M3175 1363 c-28 -38 -60 -82 -73 -99 -26 -35 -21 -64 12 -64 32 0 46
-18 36 -46 -5 -13 -6 -24 -1 -24 5 0 12 17 15 38 4 20 11 48 16 62 5 14 15 45
21 70 12 44 13 45 19 15 3 -16 0 -50 -7 -74 -16 -55 -10 -64 13 -19 19 36 28
144 13 154 -5 3 -9 1 -9 -4 0 -5 -6 -9 -14 -9 -13 0 -13 5 -1 34 19 44 17 43
-40 -34z m-1 -60 c-15 -21 -33 -41 -38 -45 -6 -4 -7 -11 -2 -15 4 -4 16 3 27
16 14 16 19 19 19 8 0 -18 -49 -59 -64 -54 -25 8 -14 38 31 86 54 57 69 60 27
4z"/>
<path d="M2361 1403 c-1 -12 4 -25 9 -28 12 -7 12 2 0 30 -8 19 -9 19 -9 -2z"/>
<path d="M3237 1413 c-4 -3 -7 -11 -7 -17 0 -6 5 -5 12 2 6 6 9 14 7 17 -3 3
-9 2 -12 -2z"/>
<path d="M2275 1390 c3 -5 8 -10 11 -10 3 0 2 5 -1 10 -3 6 -8 10 -11 10 -3 0
-2 -4 1 -10z"/>
<path d="M1435 1371 c80 -17 173 -31 201 -30 34 2 -94 25 -181 33 -48 4 -52 3
-20 -3z"/>
<path d="M1337 1349 c5 -17 3 -20 -7 -14 -9 5 -11 4 -6 -3 10 -17 36 -15 36 2
0 7 -6 19 -14 25 -12 10 -13 8 -9 -10z"/>
<path d="M2336 1355 c4 -8 8 -15 10 -15 2 0 4 7 4 15 0 8 -4 15 -10 15 -5 0
-7 -7 -4 -15z"/>
<path d="M1930 1349 c42 -19 80 -28 80 -20 0 5 -12 11 -27 15 -16 3 -39 8 -53
11 -25 6 -25 6 0 -6z"/>
<path d="M2130 1329 c63 -4 140 -12 170 -17 30 -6 57 -8 59 -6 13 12 -162 34
-262 32 -81 -1 -80 -1 33 -9z"/>
<path d="M2384 1330 c3 -8 9 -23 12 -32 4 -10 11 -18 16 -18 14 0 48 -81 48
-116 0 -17 7 -37 16 -45 40 -33 -25 -257 -111 -378 -24 -34 -49 -76 -56 -94
-37 -90 -206 -244 -309 -280 -13 -5 -13 -6 0 -6 24 -2 -242 -130 -271 -131
-15 0 -46 -7 -70 -16 -61 -22 -157 -42 -199 -40 -34 1 -35 2 -41 51 -12 94 -2
103 43 40 21 -30 41 -55 43 -55 9 0 -21 55 -39 74 -19 19 -18 19 50 44 86 30
187 102 144 102 -5 0 -10 -4 -10 -9 0 -21 -159 -101 -200 -101 -25 0 -53 154
-51 282 1 42 -3 79 -8 82 -18 12 0 36 28 37 26 1 26 1 -1 12 -25 10 -28 16
-28 57 0 25 -4 50 -9 56 -11 12 -23 122 -14 127 16 10 3 325 -13 331 -12 4
-14 1 -9 -14 4 -11 8 -50 10 -85 3 -63 2 -65 -19 -59 -18 6 -19 5 -7 -10 9
-11 12 -29 8 -54 -4 -22 -3 -31 2 -23 6 9 10 0 13 -27 2 -22 1 -39 -3 -37 -11
8 2 -117 16 -152 22 -53 20 -103 -5 -103 -22 0 -40 27 -41 62 0 21 -1 21 -8 3
-10 -25 8 -72 30 -78 20 -5 33 -92 27 -186 -2 -47 1 -63 14 -73 12 -9 18 -32
20 -78 3 -71 4 -71 -70 -54 -15 3 -21 1 -17 -6 3 -5 24 -13 46 -16 38 -6 39
-8 41 -48 1 -22 2 -48 4 -56 1 -8 2 -23 3 -32 2 -28 91 -23 212 12 57 16 111
30 120 30 20 0 164 66 201 91 14 11 36 19 47 19 12 0 24 7 27 15 3 7 39 35 79
60 91 56 197 169 237 250 15 33 42 78 57 100 51 71 103 211 111 300 4 44 10
87 14 97 5 11 2 18 -11 22 -11 4 -29 25 -41 47 -25 47 -27 53 -9 44 6 -4 2 2
-10 12 -12 10 -31 29 -43 43 -12 14 -19 18 -16 10z m113 -175 c8 -22 -6 -33
-17 -15 -13 20 -12 30 0 30 6 0 13 -7 17 -15z m-1140 -67 c-3 -8 -6 -5 -6 6
-1 11 2 17 5 13 3 -3 4 -12 1 -19z"/>
<path d="M2341 1283 c-3 -38 60 -136 76 -119 3 3 1 6 -6 6 -6 0 -25 28 -41 63
-16 34 -29 57 -29 50z"/>
<path d="M1497 1204 c-21 -14 -54 -32 -74 -40 -19 -8 -33 -17 -30 -20 7 -8 90
33 122 60 39 33 30 33 -18 0z"/>
<path d="M3223 1186 c-17 -24 -45 -50 -62 -57 -33 -15 -41 -29 -17 -29 21 0
71 45 97 86 31 51 18 51 -18 0z"/>
<path d="M1327 1193 c-10 -9 -9 -23 2 -23 5 0 11 7 15 15 5 15 -5 20 -17 8z"/>
<path d="M1607 1143 c-49 -19 -87 -37 -84 -39 5 -5 160 55 172 67 12 12 13 12
-88 -28z"/>
<path d="M2976 1144 c-4 -12 -2 -15 9 -10 8 3 15 1 15 -3 0 -14 -26 -21 -37
-10 -12 12 -53 20 -53 10 0 -11 74 -35 90 -29 17 5 22 41 7 50 -18 11 -24 10
-31 -8z"/>
<path d="M2664 1135 c-17 -13 -17 -14 -2 -15 9 0 20 5 23 11 11 17 0 20 -21 4z"/>
<path d="M3188 1100 c-26 -28 -44 -50 -39 -50 11 0 69 59 82 83 14 25 9 21
-43 -33z"/>
<path d="M3020 1090 c0 -7 3 -10 7 -7 3 4 3 10 0 14 -4 3 -7 0 -7 -7z"/>
<path d="M3230 1075 c-12 -13 -27 -22 -33 -18 -6 3 -7 2 -4 -4 4 -6 -5 -21
-19 -34 -15 -13 -30 -34 -35 -47 -28 -73 -257 -94 -381 -34 -42 21 -81 49
-107 79 -23 25 -43 44 -46 41 -11 -11 104 -113 151 -134 145 -64 346 -38 429
56 20 23 20 23 -10 4 -22 -13 -14 -1 28 43 51 55 64 73 54 73 -2 0 -14 -11
-27 -25z"/>
<path d="M445 1080 c-13 -6 -15 -9 -5 -9 8 0 22 4 30 9 18 12 2 12 -25 0z"/>
<path d="M1452 1071 c-9 -5 -3 -8 18 -9 17 0 28 4 25 9 -8 11 -26 11 -43 0z"/>
<path d="M1550 1063 c0 -5 21 -25 47 -43 25 -19 43 -29 40 -23 -12 19 -87 75
-87 66z"/>
<path d="M2767 1030 c13 -13 56 -23 49 -12 -3 5 -17 12 -32 15 -14 2 -22 1
-17 -3z"/>
<path d="M2141 1011 c10 -6 48 -17 85 -25 38 -8 78 -18 89 -21 20 -6 20 -6 0
6 -10 7 -49 18 -85 26 -36 7 -74 16 -85 19 -17 4 -18 3 -4 -5z"/>
<path d="M2420 1000 c0 -11 2 -20 4 -20 2 0 6 9 9 20 3 11 1 20 -4 20 -5 0 -9
-9 -9 -20z"/>
<path d="M2995 1010 c-3 -5 -2 -10 4 -10 5 0 13 5 16 10 3 6 2 10 -4 10 -5 0
-13 -4 -16 -10z"/>
<path d="M2924 986 c-3 -8 -4 -27 -1 -43 3 -24 4 -23 6 9 1 32 5 37 29 41 27
4 27 4 -1 6 -16 0 -30 -5 -33 -13z"/>
<path d="M2850 969 c-16 -30 -8 -31 13 -3 10 13 13 24 8 24 -6 0 -15 -9 -21
-21z"/>
<path d="M2361 961 c10 -14 9 -23 -5 -42 -19 -29 -249 -269 -358 -376 -43 -42
-78 -81 -78 -88 0 -15 -113 -120 -163 -152 -44 -27 -94 -73 -79 -73 5 0 17 9
28 21 10 12 31 27 46 35 45 23 158 129 193 180 38 57 92 110 101 101 4 -3 -10
-21 -30 -39 -20 -17 -36 -36 -36 -40 0 -17 78 54 84 76 7 27 122 146 141 146
10 0 12 -6 8 -17 -6 -16 -5 -16 10 -4 10 8 15 21 12 30 -5 18 30 45 46 36 5
-4 8 -3 7 2 -3 10 44 84 66 102 9 7 16 18 16 24 0 5 12 26 27 45 18 24 21 34
11 29 -9 -3 -22 1 -28 9 -18 21 -32 17 -19 -5z m-71 -155 c-5 -15 -14 -24 -20
-21 -6 4 -3 15 7 30 22 29 27 26 13 -9z"/>
<path d="M493 956 c-18 -6 -36 -16 -40 -20 -4 -5 0 -6 10 -3 10 4 24 7 31 7 7
0 21 7 32 15 22 17 12 17 -33 1z"/>
<path d="M1163 943 c4 -3 10 -3 14 0 3 4 0 7 -7 7 -7 0 -10 -3 -7 -7z"/>
<path d="M1240 941 c0 -5 5 -13 10 -16 6 -3 10 -2 10 4 0 5 -4 13 -10 16 -5 3
-10 2 -10 -4z"/>
<path d="M2954 938 c-4 -7 -3 -8 4 -4 7 4 12 9 12 12 0 8 -9 4 -16 -8z"/>
<path d="M701 926 c-7 -9 -8 -17 -2 -20 13 -8 38 3 45 20 7 19 -28 19 -43 0z"/>
<path d="M10 883 c0 -25 70 -162 117 -228 30 -42 85 -98 135 -140 47 -38 94
-85 104 -103 16 -30 21 -33 53 -27 35 6 39 3 98 -64 110 -122 359 -228 381
-163 3 11 0 12 -14 4 -26 -13 -66 -6 -145 24 -95 36 -146 71 -218 152 -61 69
-71 74 -112 57 -12 -4 -20 3 -29 25 -7 17 -21 35 -32 41 -10 5 -15 15 -12 21
4 6 3 8 -3 5 -17 -11 -155 116 -204 188 -26 39 -60 99 -75 135 -28 67 -44 93
-44 73z"/>
<path d="M1734 798 c-4 -7 -3 -8 4 -4 12 7 16 16 8 16 -3 0 -8 -5 -12 -12z"/>
<path d="M1970 761 c-47 -15 -144 -69 -217 -122 -25 -17 -73 -96 -73 -119 0
-8 14 10 31 40 28 51 72 99 92 100 5 0 28 14 52 30 58 40 130 70 166 70 18 0
28 4 24 10 -8 13 -9 13 -75 -9z"/>
<path d="M1666 744 c-5 -14 -4 -15 9 -4 17 14 19 20 6 20 -5 0 -12 -7 -15 -16z"/>
<path d="M2254 718 c-4 -7 -3 -8 4 -4 12 7 16 16 8 16 -3 0 -8 -5 -12 -12z"/>
<path d="M1644 708 c-4 -7 -3 -8 4 -4 12 7 16 16 8 16 -3 0 -8 -5 -12 -12z"/>
<path d="M951 700 c0 -9 -10 -32 -20 -53 -10 -20 -15 -37 -9 -37 13 0 40 69
35 88 -4 14 -5 14 -6 2z"/>
<path d="M2226 674 c-11 -16 -21 -22 -25 -15 -4 7 -24 -7 -51 -34 -51 -52 -48
-60 5 -14 19 17 35 27 35 22 0 -5 -13 -19 -29 -30 -15 -12 -43 -41 -61 -65
-28 -36 -23 -33 34 22 73 70 133 140 119 140 -4 0 -16 -12 -27 -26z"/>
<path d="M1444 654 c8 -50 16 -56 16 -11 0 20 -5 39 -11 42 -7 5 -9 -5 -5 -31z"/>
<path d="M524 668 c-4 -7 -3 -8 4 -4 12 7 16 16 8 16 -3 0 -8 -5 -12 -12z"/>
<path d="M1830 605 c-11 -13 -8 -15 21 -14 24 1 27 3 11 6 -12 2 -20 9 -17 14
10 15 -1 10 -15 -6z"/>
<path d="M846 585 c-3 -8 -1 -15 3 -15 5 0 11 7 15 15 3 8 1 15 -3 15 -5 0
-11 -7 -15 -15z"/>
<path d="M2085 570 c3 -5 8 -10 11 -10 2 0 4 5 4 10 0 6 -5 10 -11 10 -5 0 -7
-4 -4 -10z"/>
<path d="M1610 550 c-6 -11 -8 -20 -6 -20 3 0 10 9 16 20 6 11 8 20 6 20 -3 0
-10 -9 -16 -20z"/>
<path d="M1740 525 c-19 -14 -41 -25 -49 -25 -9 0 -24 -12 -35 -26 -18 -26
-18 -26 23 -3 42 24 111 78 100 79 -3 0 -20 -11 -39 -25z"/>
<path d="M1180 525 c0 -2 9 -19 20 -37 11 -18 20 -37 20 -43 0 -5 -5 -2 -11 8
-13 22 -29 13 -22 -13 6 -21 40 -19 54 2 3 5 9 3 12 -6 4 -9 12 -16 19 -16 7
0 -7 19 -30 43 -23 23 -42 48 -42 55 0 7 -4 12 -10 12 -5 0 -10 -2 -10 -5z"/>
<path d="M1590 510 c0 -5 5 -10 11 -10 5 0 7 5 4 10 -3 6 -8 10 -11 10 -2 0
-4 -4 -4 -10z"/>
<path d="M445 478 c-4 -13 -13 -26 -19 -30 -7 -5 -5 -13 8 -25 18 -17 18 -17
13 0 -4 9 -2 29 4 43 5 15 8 29 5 31 -2 3 -7 -6 -11 -19z"/>
<path d="M293 423 c4 -3 10 -3 14 0 3 4 0 7 -7 7 -7 0 -10 -3 -7 -7z"/>
<path d="M894 405 c1 -11 8 -33 14 -48 8 -19 9 -34 2 -47 -5 -10 -10 -37 -10
-59 0 -28 -6 -46 -22 -61 -12 -11 -16 -20 -10 -20 7 0 19 8 28 19 16 18 18 17
83 -10 81 -35 147 -38 185 -8 14 11 26 25 26 31 0 7 -12 1 -26 -13 -37 -35
-109 -32 -189 7 -66 32 -76 52 -55 105 7 16 13 29 15 29 21 0 170 -62 177 -74
5 -9 13 -14 19 -11 5 4 9 2 9 -2 0 -5 -9 -14 -20 -21 -11 -7 -20 -17 -20 -23
0 -6 13 0 29 13 17 14 25 27 20 32 -5 6 -9 19 -10 30 0 12 -3 16 -6 9 -3 -9
-9 -9 -21 -2 -9 6 -53 23 -97 37 -82 28 -106 55 -76 85 17 17 13 22 -18 22
-24 0 -29 -4 -27 -20z m23 -22 c-4 -3 -7 0 -7 7 0 7 3 10 7 7 3 -4 3 -10 0
-14z"/>
<path d="M528 364 c17 -22 39 -47 49 -55 27 -22 -20 41 -53 71 -27 24 -27 24
4 -16z"/>
<path d="M1133 373 c4 -3 10 -3 14 0 3 4 0 7 -7 7 -7 0 -10 -3 -7 -7z"/>
<path d="M2205 330 c3 -5 11 -10 16 -10 6 0 7 5 4 10 -3 6 -11 10 -16 10 -6 0
-7 -4 -4 -10z"/>
<path d="M513 273 c4 -3 10 -3 14 0 3 4 0 7 -7 7 -7 0 -10 -3 -7 -7z"/>
<path d="M1450 220 c6 -11 13 -20 16 -20 2 0 0 9 -6 20 -6 11 -13 20 -16 20
-2 0 0 -9 6 -20z"/>
</g>
</svg>
