<?xml version="1.0" standalone="no"?>
<!DOCTYPE svg PUBLIC "-//W3C//DTD SVG 20010904//EN"
 "http://www.w3.org/TR/2001/REC-SVG-20010904/DTD/svg10.dtd">
<svg version="1.0" xmlns="http://www.w3.org/2000/svg"
 width="540.000000pt" height="256.000000pt" viewBox="0 0 540.000000 256.000000"
 preserveAspectRatio="xMidYMid meet">
<metadata>
Created by potrace 1.16, written by Peter Selinger 2001-2019
</metadata>
<g transform="translate(0.000000,256.000000) scale(0.100000,-0.100000)"
fill="#000000" stroke="none">
<path d="M0 1633 c0 -24 1 -24 60 -17 48 5 60 4 60 -7 0 -11 2 -12 9 -1 8 13
135 12 198 -2 42 -9 143 -17 143 -11 0 3 -10 9 -22 14 -14 5 56 9 175 10 169
1 202 -2 220 -15 20 -15 20 -16 2 -10 -11 4 -51 10 -90 12 -66 5 -69 5 -48
-10 12 -9 26 -15 30 -14 7 2 43 -2 191 -18 33 -4 42 -2 36 7 -6 10 32 11 167
4 96 -4 181 -7 189 -7 168 3 561 1 577 -2 65 -14 163 -18 163 -7 0 6 -8 11
-17 11 -9 0 -14 3 -10 6 8 8 48 -6 43 -15 -4 -5 451 -15 579 -13 11 1 56 2
100 3 119 3 379 -11 389 -22 6 -5 0 -9 -15 -9 -14 0 -34 -6 -45 -14 -17 -13
-15 -14 21 -10 56 7 106 5 124 -6 12 -7 5 -10 -26 -11 -24 -1 -46 -2 -50 -3
-66 -17 -231 -25 -618 -32 -187 -3 -344 -10 -349 -15 -17 -16 637 -14 719 3
54 11 219 15 764 18 197 1 337 6 330 11 -17 10 -24 10 166 10 179 0 202 -1
155 -11 -38 -8 -39 -8 85 -15 11 -1 25 -4 30 -7 21 -12 75 -18 230 -24 265
-11 345 -10 345 2 0 17 -27 37 -34 26 -7 -11 -100 -3 -104 9 -2 5 -7 7 -12 4
-11 -7 -42 24 -35 34 5 10 53 2 60 -9 3 -5 -5 -6 -17 -3 -23 5 -23 5 -3 -10
26 -21 44 -21 68 1 11 9 18 13 15 7 -3 -5 0 -16 8 -23 11 -10 14 -10 14 1 0
10 13 13 48 10 69 -5 143 -3 153 3 15 9 10 -13 -6 -26 -8 -7 -12 -16 -9 -22 3
-5 -5 -6 -20 -2 -14 3 -46 7 -71 8 -61 3 -53 -18 9 -22 26 -2 44 -7 41 -13 -4
-5 15 -9 42 -10 26 0 59 -2 73 -3 14 -1 53 -3 86 -4 42 -1 64 -6 67 -16 4 -11
-20 -13 -136 -11 -78 1 -136 0 -129 -2 19 -7 4 -23 -16 -17 -14 5 -15 4 -2 -5
13 -10 11 -14 -10 -31 -25 -19 -25 -20 -3 -20 12 0 25 -5 29 -12 5 -8 2 -9
-10 -5 -10 4 -24 7 -32 7 -8 0 -14 6 -14 14 0 15 -37 7 -83 -16 -13 -6 -28 -3
-51 11 -27 17 -39 19 -66 11 -18 -5 -38 -6 -44 -1 -27 20 -148 0 -153 -26 -1
-6 11 -13 27 -15 16 -2 27 -1 24 4 -3 4 -13 8 -22 8 -11 0 -6 6 12 15 36 19
57 5 39 -24 -10 -16 -9 -19 10 -17 17 1 22 7 22 26 0 16 6 25 15 25 9 0 15 -9
14 -20 0 -27 80 -34 94 -8 5 9 15 13 21 9 6 -4 9 -12 6 -17 -3 -5 0 -6 8 -3 7
2 33 -4 58 -14 28 -12 51 -16 64 -11 17 7 16 8 -7 8 -16 1 -28 5 -28 10 0 5
-8 12 -17 14 -10 3 15 3 55 0 49 -3 72 -1 72 6 0 6 11 11 25 11 38 0 229 -51
237 -64 4 -6 8 78 8 187 0 125 -4 197 -10 197 -5 0 -10 -4 -10 -10 0 -5 -9
-10 -20 -10 -11 0 -20 -4 -20 -10 0 -5 -9 -10 -20 -10 -11 0 -20 5 -20 10 0 6
5 10 10 10 6 0 10 4 10 9 0 5 -17 7 -37 5 -49 -4 -73 3 -66 22 6 17 -12 18
-56 3 -21 -7 -36 -8 -44 -1 -7 5 -21 6 -32 1 -19 -8 -19 -8 3 -15 12 -3 22
-10 22 -15 0 -13 -11 -11 -45 7 -23 12 -66 17 -178 20 -81 2 -152 6 -157 9 -6
3 -10 1 -10 -4 0 -6 -9 -11 -19 -11 -11 0 -22 -6 -25 -12 -5 -10 -7 -10 -12 0
-8 18 -24 15 -24 -5 0 -15 -2 -14 -14 2 -8 11 -12 23 -10 27 6 9 -118 9 -133
0 -35 -22 45 -48 96 -32 10 3 17 -6 21 -27 7 -31 7 -31 -194 -27 -111 2 -260
4 -332 5 -72 0 -137 5 -145 11 -10 6 -3 8 24 6 31 -3 37 -1 37 15 0 12 4 16
12 11 7 -5 43 -7 80 -6 41 2 68 -2 68 -8 0 -14 37 -12 44 3 3 9 8 8 15 -4 12
-18 60 -14 73 5 5 8 8 7 8 -1 0 -9 20 -13 65 -13 36 0 65 4 65 9 0 4 12 6 27
3 23 -4 25 -2 18 14 -4 10 -8 25 -8 32 -1 19 -25 14 -32 -7 -7 -23 -27 -32
-44 -21 -9 5 -5 9 13 14 37 9 32 23 -9 24 -19 1 -35 -3 -35 -10 0 -7 -4 -7
-13 0 -7 6 -27 8 -47 4 -19 -4 -61 -7 -92 -7 -40 0 -58 -3 -58 -12 0 -7 -8
-13 -18 -13 -27 0 -34 11 -16 25 14 10 8 12 -32 11 -45 0 -46 -1 -21 -10 70
-26 9 -28 -72 -3 -72 22 -149 22 -173 0 -17 -15 -21 -15 -29 -3 -8 11 -12 12
-16 3 -6 -16 -25 -17 -40 -2 -6 6 -61 10 -134 10 -68 1 -137 6 -153 12 -23 8
-31 8 -34 -1 -4 -14 -38 -16 -46 -3 -3 5 -34 6 -68 3 -107 -10 -553 -1 -888
19 -228 13 -464 15 -1140 9 -289 -2 -583 -1 -655 4 -71 4 -237 9 -367 11 -238
3 -238 3 -238 -22z m27 0 c-4 -3 -10 -3 -14 0 -3 4 0 7 7 7 7 0 10 -3 7 -7z
m1110 -19 c-3 -3 -12 -4 -19 -1 -8 3 -5 6 6 6 11 1 17 -2 13 -5z m120 -1 c-4
-3 -10 -3 -14 0 -3 4 0 7 7 7 7 0 10 -3 7 -7z m40 0 c-4 -3 -10 -3 -14 0 -3 4
0 7 7 7 7 0 10 -3 7 -7z m116 -3 c-13 -5 -41 -5 -65 -1 -42 9 -41 9 22 9 48 1
59 -2 43 -8z m492 1 c5 -9 -385 -5 -394 5 -2 2 84 4 192 4 110 0 198 -4 202
-9z m87 -6 c-4 -12 -53 -7 -67 7 -7 6 4 8 30 6 22 -2 39 -7 37 -13z m78 5 c11
-7 6 -9 -18 -7 -17 2 -35 7 -39 10 -10 11 40 8 57 -3z m237 -2 c18 -7 33 -16
33 -20 0 -12 -12 -9 -33 6 -10 8 -26 12 -36 9 -10 -3 -22 0 -25 6 -9 15 19 14
61 -1z m-53 -15 c10 -6 -10 -8 -57 -8 -39 0 -81 6 -92 13 -24 14 122 10 149
-5z m183 11 c-3 -3 -12 -4 -19 -1 -8 3 -5 6 6 6 11 1 17 -2 13 -5z m30 -1 c-4
-3 -10 -3 -14 0 -3 4 0 7 7 7 7 0 10 -3 7 -7z m360 -10 c-4 -3 -10 -3 -14 0
-3 4 0 7 7 7 7 0 10 -3 7 -7z m1111 -11 c3 -11 -6 -12 -44 -7 -68 10 -76 23
-13 21 34 0 54 -6 57 -14z m-2996 0 c-12 -8 -72 -4 -72 4 0 2 19 4 43 4 25 0
37 -4 29 -8z m1555 1 c-4 -3 -10 -3 -14 0 -3 4 0 7 7 7 7 0 10 -3 7 -7z m963
-8 c14 -16 10 -18 -14 -9 -9 3 -16 10 -16 15 0 14 16 11 30 -6z m-244 -2 c-7
-7 -177 -5 -185 2 -2 3 40 5 94 5 54 0 95 -3 91 -7z m351 0 c-4 -3 -10 -3 -14
0 -3 4 0 7 7 7 7 0 10 -3 7 -7z m793 3 c0 -2 -7 -6 -15 -10 -8 -3 -15 -1 -15
4 0 6 7 10 15 10 8 0 15 -2 15 -4z m540 -12 c0 -14 1 -14 16 0 22 23 34 20 34
-8 0 -31 -8 -36 -64 -38 -50 -3 -70 8 -43 23 9 6 15 15 11 20 -4 7 -12 5 -22
-4 -17 -15 -72 -32 -72 -22 0 3 6 14 12 25 17 26 128 30 128 4z m237 -1 c-4
-3 -7 0 -7 7 0 7 3 10 7 7 3 -4 3 -10 0 -14z m33 6 c0 -5 4 -8 9 -4 6 3 15 -4
21 -15 8 -16 8 -20 -3 -20 -8 0 -20 -7 -27 -15 -10 -11 -30 -15 -76 -14 -63 2
-64 2 -64 30 0 19 5 29 15 29 8 0 15 -4 15 -9 0 -5 20 -11 45 -13 41 -3 45 -1
45 19 0 13 5 23 10 23 6 0 10 -5 10 -11z m-1825 -20 c5 -5 22 -9 37 -9 15 0
28 -4 28 -10 0 -14 -27 -12 -59 5 -16 8 -31 12 -33 9 -3 -2 -20 3 -39 11 -34
16 -34 16 11 9 25 -3 49 -10 55 -15z m42 14 c-4 -3 -10 -3 -14 0 -3 4 0 7 7 7
7 0 10 -3 7 -7z m159 -3 c14 0 22 -4 19 -10 -10 -16 -62 -12 -69 6 -5 12 -2
15 10 10 8 -3 27 -6 40 -6z m1431 -22 c-3 -7 -5 -2 -5 12 0 14 2 19 5 13 2 -7
2 -19 0 -25z m-1360 15 c-4 -3 -10 -3 -14 0 -3 4 0 7 7 7 7 0 10 -3 7 -7z
m257 -9 c9 -22 2 -27 -24 -19 -17 5 -19 10 -9 21 15 18 25 18 33 -2z m1133 -1
c-4 -3 -7 0 -7 7 0 7 3 10 7 7 3 -4 3 -10 0 -14z m-307 -3 c0 -5 -8 -10 -17
-10 -15 0 -16 2 -3 10 19 12 20 12 20 0z m-967 -7 c-7 -2 -21 -2 -30 0 -10 3
-4 5 12 5 17 0 24 -2 18 -5z m164 -10 c-4 -3 -7 0 -7 7 0 7 3 10 7 7 3 -4 3
-10 0 -14z m-410 0 c-4 -3 -10 -3 -14 0 -3 4 0 7 7 7 7 0 10 -3 7 -7z m102
-17 c-2 -2 -20 -1 -39 2 -35 6 -35 6 -5 12 27 6 56 -3 44 -14z m-277 2 c-8 -8
-17 -8 -34 0 -22 10 -21 11 12 11 26 1 31 -2 22 -11z m1648 2 c0 -5 -4 -10
-10 -10 -5 0 -10 5 -10 10 0 6 5 10 10 10 6 0 10 -4 10 -10z m60 0 c0 -12 -8
-12 -35 0 -18 8 -17 9 8 9 15 1 27 -3 27 -9z m250 1 c0 -16 -19 -23 -40 -16
-30 10 -24 25 10 25 17 0 30 -4 30 -9z m-1923 -8 c-4 -3 -10 -3 -14 0 -3 4 0
7 7 7 7 0 10 -3 7 -7z m443 -13 c0 -6 -11 -8 -27 -4 -40 10 -41 14 -5 14 18 0
32 -5 32 -10z m107 4 c-3 -3 -12 -4 -19 -1 -8 3 -5 6 6 6 11 1 17 -2 13 -5z
m211 -1 c-10 -2 -28 -2 -40 0 -13 2 -5 4 17 4 22 1 32 -1 23 -4z m59 0 c-4 -3
-10 -3 -14 0 -3 4 0 7 7 7 7 0 10 -3 7 -7z m408 -3 c22 -5 9 -7 -44 -8 -76 -1
-127 -21 -60 -23 24 -1 27 -3 11 -6 -13 -3 -31 -1 -40 3 -9 4 -29 6 -44 5 -34
-3 -37 16 -5 29 26 10 139 11 182 0z m223 -5 c12 -3 22 -12 22 -19 0 -8 6 -16
13 -19 6 -2 -12 -4 -40 -3 -29 1 -47 3 -40 5 6 3 -10 9 -37 15 -73 16 -73 37
1 31 32 -3 68 -8 81 -10z m-798 1 c0 -2 -7 -7 -16 -10 -8 -3 -12 -2 -9 4 6 10
25 14 25 6z m-423 -23 c-4 -3 -10 -3 -14 0 -3 4 0 7 7 7 7 0 10 -3 7 -7z m170
1 c-3 -3 -12 -4 -19 -1 -8 3 -5 6 6 6 11 1 17 -2 13 -5z m100 -1 c-4 -3 -10
-3 -14 0 -3 4 0 7 7 7 7 0 10 -3 7 -7z m90 1 c-3 -3 -12 -4 -19 -1 -8 3 -5 6
6 6 11 1 17 -2 13 -5z m680 -11 c-4 -3 -10 -3 -14 0 -3 4 0 7 7 7 7 0 10 -3 7
-7z m663 -12 c0 -15 -22 -25 -55 -27 -34 -2 -53 17 -27 28 26 10 82 9 82 -1z
m-113 -108 c-4 -3 -10 -3 -14 0 -3 4 0 7 7 7 7 0 10 -3 7 -7z m-27 -24 c0 -5
4 -8 9 -5 5 3 29 8 52 11 41 4 43 4 25 -10 -27 -20 -106 -20 -106 0 0 8 5 15
10 15 6 0 10 -5 10 -11z m218 -8 c4 -11 -4 -13 -34 -8 -22 4 -47 7 -56 7 -10
0 -18 3 -18 8 0 14 103 7 108 -7z m-480 -47 c-11 -12 -21 -13 -33 -6 -21 11
-3 27 20 18 8 -3 15 0 15 6 0 6 3 8 7 4 4 -3 0 -14 -9 -22z m359 9 c-4 -3 -7
0 -7 7 0 7 3 10 7 7 3 -4 3 -10 0 -14z m148 -3 c-3 -5 -11 -10 -16 -10 -6 0
-7 5 -4 10 3 6 11 10 16 10 6 0 7 -4 4 -10z"/>
<path d="M4680 1610 c0 -5 5 -10 10 -10 6 0 10 5 10 10 0 6 -4 10 -10 10 -5 0
-10 -4 -10 -10z"/>
<path d="M80 1600 c0 -7 3 -10 7 -7 3 4 3 10 0 14 -4 3 -7 0 -7 -7z"/>
<path d="M513 1593 c4 -3 10 -3 14 0 3 4 0 7 -7 7 -7 0 -10 -3 -7 -7z"/>
<path d="M1110 1550 c36 -11 50 -11 50 0 0 6 -17 10 -37 9 -34 -1 -35 -2 -13
-9z"/>
<path d="M1233 1543 c4 -3 10 -3 14 0 3 4 0 7 -7 7 -7 0 -10 -3 -7 -7z"/>
<path d="M2 1500 c0 -14 2 -19 5 -12 2 6 2 18 0 25 -3 6 -5 1 -5 -13z"/>
<path d="M1483 1513 c9 -2 23 -2 30 0 6 3 -1 5 -18 5 -16 0 -22 -2 -12 -5z"/>
<path d="M3003 1493 c9 -2 25 -2 35 0 9 3 1 5 -18 5 -19 0 -27 -2 -17 -5z"/>
<path d="M2513 1483 c4 -3 10 -3 14 0 3 4 0 7 -7 7 -7 0 -10 -3 -7 -7z"/>
<path d="M2553 1483 c4 -3 10 -3 14 0 3 4 0 7 -7 7 -7 0 -10 -3 -7 -7z"/>
<path d="M2598 1483 c12 -2 30 -2 40 0 9 3 -1 5 -23 4 -22 0 -30 -2 -17 -4z"/>
<path d="M2733 1483 c43 -2 110 -2 150 0 40 1 5 3 -78 3 -82 0 -115 -2 -72 -3z"/>
<path d="M2963 1483 c4 -3 10 -3 14 0 3 4 0 7 -7 7 -7 0 -10 -3 -7 -7z"/>
<path d="M1971 1471 c23 -15 159 -26 159 -14 0 6 -30 11 -66 11 -36 1 -76 4
-88 7 -17 5 -18 4 -5 -4z"/>
<path d="M1853 1463 c4 -3 10 -3 14 0 3 4 0 7 -7 7 -7 0 -10 -3 -7 -7z"/>
<path d="M2158 1463 c12 -2 30 -2 40 0 9 3 -1 5 -23 4 -22 0 -30 -2 -17 -4z"/>
<path d="M2228 1463 c6 -2 18 -2 25 0 6 3 1 5 -13 5 -14 0 -19 -2 -12 -5z"/>
<path d="M1888 1453 c7 -3 16 -2 19 1 4 3 -2 6 -13 5 -11 0 -14 -3 -6 -6z"/>
<path d="M4068 1453 c29 -2 74 -2 100 0 26 2 2 3 -53 3 -55 0 -76 -1 -47 -3z"/>
<path d="M4233 1453 c9 -2 25 -2 35 0 9 3 1 5 -18 5 -19 0 -27 -2 -17 -5z"/>
<path d="M143 1443 c9 -2 23 -2 30 0 6 3 -1 5 -18 5 -16 0 -22 -2 -12 -5z"/>
<path d="M3101 1430 c-7 -4 1 -7 18 -8 17 0 31 1 31 3 0 7 -39 12 -49 5z"/>
<path d="M0 1406 c0 -11 5 -16 14 -13 8 3 17 -1 20 -9 3 -8 15 -14 26 -14 13
0 19 4 14 11 -4 8 4 9 27 4 53 -11 54 -11 51 6 -3 19 51 19 86 0 29 -16 61
-14 79 5 15 14 15 16 -3 13 -10 -2 -30 1 -44 6 -14 5 -80 9 -147 9 -113 1
-123 0 -123 -18z"/>
<path d="M460 1410 c25 -8 117 -13 109 -6 -2 2 -33 6 -69 9 -39 3 -55 2 -40
-3z"/>
<path d="M615 1409 c-22 -3 23 -6 100 -6 139 0 143 4 10 9 -38 2 -88 0 -110
-3z"/>
<path d="M2016 1409 c2 -4 -6 -10 -19 -13 -21 -7 -21 -7 -2 -16 29 -13 35 -12
29 5 -4 8 -1 15 5 15 6 0 11 -3 11 -7 0 -9 52 -35 57 -29 2 2 -11 13 -29 25
-39 25 -37 25 25 6 26 -8 47 -11 47 -8 0 3 6 1 13 -5 20 -16 95 -23 101 -9 3
7 3 0 0 -14 -5 -24 -1 -28 31 -39 24 -8 33 -15 25 -20 -8 -5 0 -11 21 -19 32
-11 56 -7 25 5 -9 3 -16 12 -16 20 0 21 38 17 51 -5 8 -12 19 -16 33 -13 18 5
19 3 9 -9 -11 -13 -8 -15 17 -11 25 3 30 0 36 -22 3 -14 12 -26 19 -26 7 0 18
-7 25 -15 20 -24 24 -10 5 19 -9 14 -15 33 -12 43 4 14 5 13 6 -4 1 -18 7 -23
26 -23 14 0 25 -4 25 -10 0 -5 5 -10 10 -10 19 0 10 21 -14 30 -44 16 -40 30
9 30 49 0 67 -18 45 -45 -9 -11 -9 -15 -1 -15 18 0 25 31 12 52 -9 15 -9 20 4
24 8 3 12 11 8 17 -4 7 0 8 13 3 49 -21 108 -27 208 -22 85 4 116 1 138 -10
16 -8 35 -13 41 -11 16 6 -64 41 -87 38 -11 -2 -17 2 -14 11 6 17 85 23 104 7
8 -6 21 -26 29 -43 8 -17 29 -39 45 -48 17 -9 30 -24 30 -33 0 -10 10 -15 33
-15 65 0 94 -5 94 -16 0 -6 -12 -11 -26 -12 -14 0 -47 -1 -73 -2 -26 0 -50 -5
-53 -10 -3 -6 -16 -5 -33 1 -59 22 -185 18 -129 -4 7 -3 5 -6 -5 -6 -10 -1
-18 -4 -18 -9 0 -4 18 -6 40 -4 24 3 37 8 33 15 -4 6 4 7 23 2 16 -5 49 -9 74
-11 58 -3 58 -3 38 -15 -23 -13 -23 -27 -1 -25 18 1 19 -3 22 -49 0 -14 6 -25
12 -25 6 0 8 7 5 17 -4 9 -1 20 6 24 15 10 38 -40 38 -85 0 -19 3 -26 8 -18 7
9 14 8 32 -8 26 -23 37 -26 23 -7 -5 6 -10 22 -11 34 -1 22 -1 22 19 2 16 -16
23 -18 35 -8 8 6 17 9 21 5 3 -3 0 -6 -8 -7 -22 -1 32 -21 66 -24 17 -2 25 -1
18 1 -9 4 -9 13 -2 31 12 32 19 84 10 79 -4 -3 -16 11 -29 30 -22 34 -18 46 7
22 11 -10 10 -8 0 10 -14 23 -25 26 -71 23 -14 -1 -30 3 -34 10 -5 9 -1 10 14
7 12 -4 22 -2 22 3 0 5 -13 9 -30 9 -32 0 -38 11 -16 29 15 13 61 6 85 -13 12
-9 13 -8 6 3 -6 11 -2 12 21 6 16 -4 55 -9 87 -10 31 -1 60 -5 64 -8 3 -4 15
0 24 9 17 15 20 15 43 0 35 -22 46 -20 17 4 -24 20 -87 28 -76 10 4 -6 -2 -7
-17 -1 -15 6 -31 5 -42 -1 -12 -7 -31 -7 -59 0 -76 20 -135 23 -175 11 -30 -9
-44 -9 -62 1 -16 9 -24 9 -29 1 -7 -11 -91 45 -91 61 0 8 19 12 48 11 7 -1 11
4 9 11 -5 11 -11 12 -37 2 -26 -10 -46 9 -31 28 12 14 10 16 -10 17 -19 1 -20
2 -5 6 10 3 23 0 29 -6 6 -6 26 -11 43 -11 18 0 36 -5 39 -10 4 -6 10 -8 15
-5 4 3 10 -2 13 -9 3 -8 16 -20 29 -27 23 -12 23 -12 -1 15 -32 34 -26 38 58
40 38 0 67 4 63 8 -10 10 -124 27 -141 20 -9 -3 -12 -1 -8 5 9 15 417 17 417
3 0 -6 8 -10 18 -10 15 0 15 2 2 11 -11 8 -3 9 33 6 26 -3 50 -1 53 4 3 5 -5
10 -18 11 -36 2 -109 6 -148 7 -19 1 -46 2 -60 3 -28 2 -253 1 -375 -1 -44 -1
-87 -1 -95 -1 -8 0 -39 -2 -69 -4 -29 -3 -65 0 -78 5 -17 6 -30 6 -37 0 -7 -6
-55 -9 -108 -8 -57 1 -94 -2 -90 -7 3 -5 -3 -6 -14 -2 -26 10 -23 10 -72 1
-37 -7 -42 -10 -37 -29 5 -19 5 -19 -5 -3 -6 9 -23 17 -39 17 -16 0 -34 6 -40
14 -16 20 -64 28 -57 10 6 -16 -34 -20 -49 -5 -13 13 -347 33 -339 20z m1041
-36 c-4 -3 -10 -3 -14 0 -3 4 0 7 7 7 7 0 10 -3 7 -7z m111 -4 c-8 -5 -35 -5
-59 0 -44 9 -44 9 15 9 37 -1 53 -4 44 -9z m-863 -12 c0 -4 7 -12 15 -17 19
-12 -5 -13 -30 -2 -21 10 -22 29 -2 27 9 0 17 -4 17 -8z m90 -8 c11 -16 1 -19
-13 -3 -7 8 -8 14 -3 14 5 0 13 -5 16 -11z m75 1 c0 -5 -2 -10 -4 -10 -3 0 -8
5 -11 10 -3 6 -1 10 4 10 6 0 11 -4 11 -10z m147 -17 c-4 -3 -7 0 -7 7 0 7 3
10 7 7 3 -4 3 -10 0 -14z m176 -8 c19 -20 18 -20 -14 -23 -25 -3 -37 2 -49 19
-12 14 -19 18 -24 10 -5 -7 -13 -8 -24 -2 -10 5 -24 6 -33 1 -11 -7 -16 -5
-16 6 0 25 136 15 160 -11z m71 -2 c16 -22 16 -23 -5 -23 -17 0 -59 33 -59 46
0 14 50 -5 64 -23z m40 21 c17 -7 22 -34 7 -34 -21 0 -41 13 -41 26 0 15 10
17 34 8z m313 -11 c-4 -3 -7 0 -7 7 0 7 3 10 7 7 3 -4 3 -10 0 -14z m-717 -23
c0 -5 -8 -10 -17 -10 -15 0 -16 2 -3 10 19 12 20 12 20 0z m110 0 c8 -5 12
-12 9 -15 -8 -8 -39 5 -39 16 0 11 11 11 30 -1z m-155 -10 c3 -5 4 -10 1 -10
-3 0 -8 5 -11 10 -3 6 -4 10 -1 10 3 0 8 -4 11 -10z m72 3 c-4 -3 -10 -3 -14
0 -3 4 0 7 7 7 7 0 10 -3 7 -7z m808 -172 c27 -5 51 -14 53 -20 2 -7 15 -25
28 -40 28 -34 30 -51 9 -91 -18 -36 -21 -36 -35 -9 -8 15 -8 24 0 33 8 11 2
13 -36 8 -37 -4 -49 -1 -56 12 -5 9 -16 16 -24 16 -19 0 -69 58 -69 79 0 16
40 31 65 25 8 -2 37 -8 65 -13z m-78 -128 c-4 -3 -7 0 -7 7 0 7 3 10 7 7 3 -4
3 -10 0 -14z m20 0 c-4 -3 -7 0 -7 7 0 7 3 10 7 7 3 -4 3 -10 0 -14z"/>
<path d="M873 1403 c4 -3 10 -3 14 0 3 4 0 7 -7 7 -7 0 -10 -3 -7 -7z"/>
<path d="M1928 1393 c7 -3 16 -2 19 1 4 3 -2 6 -13 5 -11 0 -14 -3 -6 -6z"/>
<path d="M3790 1392 c0 -15 20 -18 70 -11 45 6 45 6 3 7 -23 1 -48 5 -57 8 -9
3 -16 2 -16 -4z"/>
<path d="M4630 1390 c0 -7 3 -10 7 -7 3 4 3 10 0 14 -4 3 -7 0 -7 -7z"/>
<path d="M1893 1383 c4 -3 10 -3 14 0 3 4 0 7 -7 7 -7 0 -10 -3 -7 -7z"/>
<path d="M3763 1383 c4 -3 10 -3 14 0 3 4 0 7 -7 7 -7 0 -10 -3 -7 -7z"/>
<path d="M3973 1383 c4 -3 10 -3 14 0 3 4 0 7 -7 7 -7 0 -10 -3 -7 -7z"/>
<path d="M15 1370 c-3 -5 -1 -10 4 -10 6 0 11 5 11 10 0 6 -2 10 -4 10 -3 0
-8 -4 -11 -10z"/>
<path d="M182 1372 c-18 -2 -30 -7 -27 -12 3 -5 -3 -9 -12 -9 -44 -1 -83 -15
-88 -31 -3 -10 -17 -21 -30 -24 -14 -4 -25 -10 -25 -15 0 -6 12 -6 28 -2 25 8
28 6 27 -14 0 -13 -4 -27 -8 -31 -4 -5 -5 -1 -2 8 5 12 1 14 -19 11 -28 -6
-36 -23 -11 -23 9 0 18 -7 21 -15 4 -8 11 -12 18 -8 6 4 5 -1 -3 -10 -7 -9
-19 -17 -27 -17 -18 0 -26 -17 -19 -40 6 -20 45 -29 45 -10 0 6 -9 10 -20 10
-28 0 -25 17 5 22 13 3 22 2 20 -3 -8 -12 6 -40 16 -33 5 3 7 10 4 15 -4 5 3
9 14 9 11 0 24 -8 29 -17 15 -26 92 -37 100 -14 3 8 0 11 -6 7 -16 -10 -62 4
-62 19 0 15 62 11 106 -6 14 -5 35 -9 47 -8 20 1 20 2 -3 8 -25 8 -25 8 7 15
18 4 43 5 55 1 18 -5 20 -4 8 4 -8 6 -27 11 -43 11 -27 0 -33 17 -12 33 6 4 1
10 -12 13 -13 4 -20 11 -16 20 3 9 -2 14 -16 14 -12 0 -21 6 -21 16 0 8 -5 12
-10 9 -7 -4 -6 -14 2 -28 10 -20 10 -21 -5 -8 -19 15 -85 16 -134 2 -29 -8
-33 -7 -33 9 0 22 24 33 68 32 26 0 31 2 23 12 -9 10 14 12 117 10 121 -3 125
3 12 20 -50 8 -91 19 -95 26 -3 5 8 6 25 4 16 -3 30 -1 30 4 0 13 -27 18 -68
14z m-72 -61 c0 -5 -7 -12 -16 -15 -14 -5 -15 -4 -4 9 14 17 20 19 20 6z m31
-101 c-19 -5 -40 -6 -48 -3 -7 3 -13 -2 -13 -11 0 -9 -5 -16 -10 -16 -7 0 -7
6 0 20 9 16 20 20 58 19 46 -1 46 -1 13 -9z m138 -4 c9 -11 3 -14 -35 -14 -51
-1 -68 4 -59 19 9 14 81 11 94 -5z m-72 -33 c-4 -3 -10 -3 -14 0 -3 4 0 7 7 7
7 0 10 -3 7 -7z m68 -3 c3 -6 -1 -7 -9 -4 -18 7 -21 14 -7 14 6 0 13 -4 16
-10z"/>
<path d="M1838 1368 c12 -6 25 -21 28 -33 3 -12 21 -29 40 -38 43 -21 44 -13
2 13 -18 11 -29 20 -24 20 5 0 -1 11 -14 25 -13 14 -31 25 -39 24 -11 0 -9 -4
7 -11z"/>
<path d="M5000 1370 c0 -7 3 -10 7 -7 3 4 3 10 0 14 -4 3 -7 0 -7 -7z"/>
<path d="M1790 1356 c0 -8 4 -17 9 -20 5 -4 7 3 4 14 -6 23 -13 26 -13 6z"/>
<path d="M4583 1363 c4 -3 10 -3 14 0 3 4 0 7 -7 7 -7 0 -10 -3 -7 -7z"/>
<path d="M4710 1350 c0 -7 3 -10 7 -7 3 4 3 10 0 14 -4 3 -7 0 -7 -7z"/>
<path d="M5035 1350 c-3 -5 1 -10 10 -10 9 0 13 5 10 10 -3 6 -8 10 -10 10 -2
0 -7 -4 -10 -10z"/>
<path d="M3400 1340 c0 -7 3 -10 7 -7 3 4 3 10 0 14 -4 3 -7 0 -7 -7z"/>
<path d="M4558 1343 c7 -3 16 -2 19 1 4 3 -2 6 -13 5 -11 0 -14 -3 -6 -6z"/>
<path d="M1318 1331 c23 -4 49 -16 57 -27 8 -10 15 -14 15 -8 0 23 -37 44 -76
43 -39 -2 -39 -2 4 -8z"/>
<path d="M1510 1314 c-25 -14 -46 -30 -48 -35 -2 -5 -10 -9 -18 -9 -9 0 -13
-4 -10 -9 9 -14 108 -22 123 -10 7 6 24 8 39 5 23 -6 25 -4 20 16 -3 13 -3 17
0 11 3 -7 12 -13 21 -13 12 0 12 2 -1 15 -13 14 -18 14 -38 2 -25 -16 -98 -12
-98 5 0 15 71 40 96 34 14 -4 24 -2 24 4 0 19 -65 10 -110 -16z m40 -56 c0 -6
-10 -8 -22 -4 -13 3 -29 6 -35 6 -7 0 -13 4 -13 8 0 4 16 6 35 4 19 -2 35 -9
35 -14z"/>
<path d="M2056 1332 c-3 -6 3 -8 14 -5 11 3 28 -1 37 -8 14 -12 16 -12 11 1
-5 17 -53 26 -62 12z"/>
<path d="M3653 1333 c4 -3 10 -3 14 0 3 4 0 7 -7 7 -7 0 -10 -3 -7 -7z"/>
<path d="M5 1320 c-4 -6 2 -9 14 -7 29 4 39 17 13 17 -11 0 -24 -5 -27 -10z"/>
<path d="M3292 1314 c10 -10 20 -15 24 -12 3 4 -5 12 -18 18 -22 12 -22 12 -6
-6z"/>
<path d="M3538 1323 c7 -3 16 -2 19 1 4 3 -2 6 -13 5 -11 0 -14 -3 -6 -6z"/>
<path d="M5060 1320 c0 -7 3 -10 7 -7 3 4 3 10 0 14 -4 3 -7 0 -7 -7z"/>
<path d="M4564 1308 c-4 -6 -3 -8 3 -5 14 9 58 -27 50 -40 -7 -11 -55 -6 -72
8 -6 4 -17 4 -24 0 -21 -13 77 -31 106 -20 28 10 16 40 -24 58 -30 14 -30 14
-39 -1z"/>
<path d="M1828 1303 c7 -3 16 -2 19 1 4 3 -2 6 -13 5 -11 0 -14 -3 -6 -6z"/>
<path d="M4240 1302 c0 -10 32 -22 59 -22 16 0 7 13 -12 16 -7 1 -20 5 -29 9
-10 4 -18 3 -18 -3z"/>
<path d="M2105 1290 c28 -12 37 -12 30 0 -3 6 -16 10 -28 9 -21 0 -21 -1 -2
-9z"/>
<path d="M2190 1290 c-42 -7 -40 -7 22 -7 37 0 65 4 62 8 -6 10 -17 10 -84 -1z"/>
<path d="M3343 1293 c4 -3 10 -3 14 0 3 4 0 7 -7 7 -7 0 -10 -3 -7 -7z"/>
<path d="M4145 1290 c3 -5 8 -10 11 -10 3 0 2 5 -1 10 -3 6 -8 10 -11 10 -3 0
-2 -4 1 -10z"/>
<path d="M4940 1296 c0 -2 9 -6 20 -9 11 -3 20 -1 20 4 0 5 -9 9 -20 9 -11 0
-20 -2 -20 -4z"/>
<path d="M1330 1286 c0 -2 9 -6 20 -9 11 -3 18 -1 14 4 -5 9 -34 13 -34 5z"/>
<path d="M1810 1282 c-19 -2 -38 -8 -41 -14 -4 -5 -22 -14 -40 -18 -34 -8 -34
-8 1 -9 27 -1 40 -8 55 -31 11 -16 26 -32 34 -35 15 -6 7 7 -33 53 -33 38 -6
48 87 33 26 -4 45 -5 42 -3 -13 13 -73 27 -105 24z"/>
<path d="M3463 1283 c4 -3 10 -3 14 0 3 4 0 7 -7 7 -7 0 -10 -3 -7 -7z"/>
<path d="M3528 1283 c18 -2 45 -2 60 0 15 2 0 4 -33 4 -33 0 -45 -2 -27 -4z"/>
<path d="M1708 1273 c6 -2 18 -2 25 0 6 3 1 5 -13 5 -14 0 -19 -2 -12 -5z"/>
<path d="M2720 1270 c0 -7 3 -10 7 -7 3 4 3 10 0 14 -4 3 -7 0 -7 -7z"/>
<path d="M2963 1273 c4 -3 10 -3 14 0 3 4 0 7 -7 7 -7 0 -10 -3 -7 -7z"/>
<path d="M3000 1270 c13 -8 12 -10 -3 -10 -10 0 -16 -4 -13 -9 3 -5 28 -8 56
-8 50 1 50 1 3 19 -54 20 -65 22 -43 8z"/>
<path d="M4185 1270 c-4 -6 3 -10 14 -10 25 0 27 6 6 13 -8 4 -17 2 -20 -3z"/>
<path d="M1660 1266 c0 -2 7 -6 15 -10 8 -3 15 -1 15 4 0 6 -7 10 -15 10 -8 0
-15 -2 -15 -4z"/>
<path d="M2861 1266 c2 -2 15 -9 29 -16 23 -12 24 -12 11 3 -7 10 -20 17 -29
17 -8 0 -13 -2 -11 -4z"/>
<path d="M2263 1248 c1 -9 -12 -13 -40 -13 -22 0 -39 -3 -36 -7 4 -8 103 -11
103 -4 0 2 -3 11 -6 20 -7 19 -25 22 -21 4z"/>
<path d="M2375 1241 c-3 -8 -3 -12 1 -8 4 4 13 -1 20 -11 12 -15 13 -15 14 9
0 28 -25 36 -35 10z"/>
<path d="M4371 1251 c-10 -6 -1 -9 27 -7 23 1 44 5 48 9 11 10 -59 8 -75 -2z"/>
<path d="M1638 1243 c7 -3 16 -2 19 1 4 3 -2 6 -13 5 -11 0 -14 -3 -6 -6z"/>
<path d="M1860 1240 c0 -5 5 -10 11 -10 5 0 7 5 4 10 -3 6 -8 10 -11 10 -2 0
-4 -4 -4 -10z"/>
<path d="M2660 1229 c0 -5 9 -9 20 -9 11 0 20 2 20 4 0 2 -9 6 -20 9 -11 3
-20 1 -20 -4z"/>
<path d="M3034 1225 c5 -11 9 -25 9 -31 1 -16 27 -13 27 3 0 7 6 13 14 13 8 0
17 4 20 9 3 4 -6 6 -19 3 -14 -2 -33 2 -42 9 -15 12 -16 12 -9 -6z"/>
<path d="M3461 1236 c2 -2 22 -6 44 -9 27 -4 35 -3 25 3 -14 9 -79 15 -69 6z"/>
<path d="M2343 1223 c4 -3 10 -3 14 0 3 4 0 7 -7 7 -7 0 -10 -3 -7 -7z"/>
<path d="M2747 1219 c7 -7 15 -10 18 -7 3 3 -2 9 -12 12 -14 6 -15 5 -6 -5z"/>
<path d="M2897 1217 c-3 -8 1 -14 8 -14 7 0 11 6 8 14 -3 7 -6 13 -8 13 -2 0
-5 -6 -8 -13z"/>
<path d="M2845 1210 c3 -5 8 -10 11 -10 2 0 4 5 4 10 0 6 -5 10 -11 10 -5 0
-7 -4 -4 -10z"/>
<path d="M4196 1195 c-21 -14 -42 -23 -47 -20 -5 4 -9 1 -9 -4 0 -17 38 -13
48 6 11 18 122 33 122 16 0 -23 41 -58 50 -43 5 8 7 17 5 20 -9 14 61 -3 73
-18 11 -14 12 -14 12 2 0 12 5 16 16 12 9 -3 12 -2 9 5 -4 6 -13 8 -21 5 -8
-3 -22 -2 -31 1 -15 6 -14 8 7 14 54 15 73 11 68 -15 -4 -19 -1 -22 16 -18 11
3 15 7 8 10 -7 2 -10 7 -7 12 16 26 -112 51 -142 28 -7 -6 -19 -5 -32 1 -36
20 -105 13 -145 -14z"/>
<path d="M1580 1200 c20 -13 43 -13 35 0 -3 6 -16 10 -28 10 -18 0 -19 -2 -7
-10z"/>
<path d="M3110 1200 c0 -12 28 -25 36 -17 3 3 -4 10 -15 17 -15 7 -21 7 -21 0z"/>
<path d="M5115 1200 c-3 -5 -19 -11 -35 -15 -36 -8 -32 -19 28 -69 44 -36 44
-36 15 -37 -28 0 -28 0 -3 -10 28 -11 100 -2 100 12 0 5 20 8 45 6 62 -6 95 2
88 19 -3 8 1 14 8 14 8 1 -3 7 -24 14 -21 8 -46 12 -56 9 -26 -7 -91 23 -91
41 0 9 -8 16 -17 17 -10 0 -26 2 -35 4 -10 2 -20 -1 -23 -5z m55 -35 c0 -13
63 -33 120 -37 55 -5 31 -23 -27 -22 -29 1 -53 -3 -53 -7 0 -16 -47 -9 -71 10
-23 18 -23 18 2 27 23 8 23 8 -10 14 -40 6 -52 27 -19 32 33 5 58 -2 58 -17z"/>
<path d="M2363 1173 c4 -3 10 -3 14 0 3 4 0 7 -7 7 -7 0 -10 -3 -7 -7z"/>
<path d="M5383 1173 c4 -3 10 -3 14 0 3 4 0 7 -7 7 -7 0 -10 -3 -7 -7z"/>
<path d="M397 1163 c-6 -9 71 -8 80 1 4 3 -12 6 -35 6 -22 0 -43 -3 -45 -7z"/>
<path d="M1958 1163 c7 -3 16 -2 19 1 4 3 -2 6 -13 5 -11 0 -14 -3 -6 -6z"/>
<path d="M2490 1159 c23 -11 179 -13 189 -3 2 2 -30 4 -71 4 -42 0 -91 2 -109
5 -32 5 -33 5 -9 -6z"/>
<path d="M2903 1163 c4 -3 10 -3 14 0 3 4 0 7 -7 7 -7 0 -10 -3 -7 -7z"/>
<path d="M4540 1154 c0 -11 5 -14 16 -10 21 8 94 -12 94 -25 0 -6 -10 -13 -22
-17 -21 -5 -21 -6 -2 -13 21 -8 100 -12 93 -4 -4 4 -16 7 -59 14 -3 1 1 5 8
10 10 6 2 14 -30 29 -65 30 -98 36 -98 16z"/>
<path d="M2933 1153 c4 -3 10 -3 14 0 3 4 0 7 -7 7 -7 0 -10 -3 -7 -7z"/>
<path d="M5343 1153 c4 -3 10 -3 14 0 3 4 0 7 -7 7 -7 0 -10 -3 -7 -7z"/>
<path d="M5378 1153 c7 -3 16 -2 19 1 4 3 -2 6 -13 5 -11 0 -14 -3 -6 -6z"/>
<path d="M4204 1118 c1 -34 15 -59 29 -51 4 2 5 9 2 14 -11 16 37 10 50 -7 14
-20 77 -11 69 10 -3 8 9 20 28 29 18 9 26 17 16 17 -9 0 -30 -13 -46 -30 -17
-16 -35 -30 -41 -30 -15 0 -54 40 -47 47 11 11 -16 33 -39 33 -20 0 -23 -5
-21 -32z"/>
<path d="M90 1129 c0 -5 5 -7 10 -4 6 3 10 8 10 11 0 2 -4 4 -10 4 -5 0 -10
-5 -10 -11z"/>
<path d="M398 1133 c12 -2 30 -2 40 0 9 3 -1 5 -23 4 -22 0 -30 -2 -17 -4z"/>
<path d="M2593 1133 c4 -3 10 -3 14 0 3 4 0 7 -7 7 -7 0 -10 -3 -7 -7z"/>
<path d="M3450 1135 c0 -29 94 -47 118 -23 22 22 13 26 -53 26 -36 0 -65 -2
-65 -3z m45 -15 c3 -5 1 -10 -4 -10 -6 0 -11 5 -11 10 0 6 2 10 4 10 3 0 8 -4
11 -10z"/>
<path d="M5384 1115 c4 -38 16 -43 16 -7 0 18 -4 32 -9 32 -5 0 -8 -11 -7 -25z"/>
<path d="M239 1119 c-1 -8 -1 -18 0 -22 1 -5 -3 -6 -9 -2 -6 4 -17 1 -25 -5
-8 -6 -19 -9 -25 -5 -23 14 -119 12 -125 -3 -8 -21 -1 -24 29 -13 14 6 26 7
26 2 0 -14 -28 -33 -39 -27 -5 4 -12 2 -16 -4 -3 -5 -13 -10 -21 -10 -9 0 -12
5 -8 11 4 7 1 10 -6 7 -33 -11 -20 -28 21 -28 36 0 47 5 70 33 20 23 28 27 29
15 0 -9 -6 -19 -12 -21 -8 -3 -6 -6 5 -6 9 -1 17 5 17 13 0 11 13 13 63 9 43
-3 58 -2 48 5 -12 8 -12 14 -3 25 10 11 9 17 -3 27 -12 10 -15 10 -16 -1z"/>
<path d="M3635 1120 c-3 -5 -1 -10 4 -10 6 0 11 5 11 10 0 6 -2 10 -4 10 -3 0
-8 -4 -11 -10z"/>
<path d="M4310 1115 c-10 -12 -10 -15 4 -15 9 0 16 7 16 15 0 8 -2 15 -4 15
-2 0 -9 -7 -16 -15z"/>
<path d="M4517 1123 c-5 -7 -5 -17 -2 -23 3 -5 1 -10 -4 -10 -6 0 -11 4 -11 9
0 13 -40 18 -75 9 -30 -7 -30 -7 3 -4 17 1 32 -1 32 -6 0 -5 4 -7 9 -3 5 3 12
1 16 -5 3 -5 23 -9 43 -9 20 1 29 3 20 6 -9 2 -18 14 -20 26 -2 15 -5 18 -11
10z"/>
<path d="M2410 1110 c0 -6 7 -10 15 -10 8 0 15 2 15 4 0 2 -7 6 -15 10 -8 3
-15 1 -15 -4z"/>
<path d="M3115 1110 c3 -5 8 -10 11 -10 3 0 2 5 -1 10 -3 6 -8 10 -11 10 -3 0
-2 -4 1 -10z"/>
<path d="M3665 1110 c3 -5 8 -10 11 -10 2 0 4 5 4 10 0 6 -5 10 -11 10 -5 0
-7 -4 -4 -10z"/>
<path d="M4540 1108 c0 -4 14 -8 30 -8 17 0 30 2 30 4 0 2 -13 6 -30 8 -16 3
-30 1 -30 -4z"/>
<path d="M2507 1098 c2 -5 10 -8 18 -8 12 0 11 -5 -2 -28 -11 -19 -14 -35 -8
-48 7 -17 9 -15 14 11 12 64 23 71 74 51 35 -13 50 -26 64 -54 10 -20 24 -38
32 -40 10 -3 8 4 -6 24 -11 16 -23 38 -27 50 -4 14 -22 24 -59 34 -57 16 -108
19 -100 8z"/>
<path d="M12 1088 c-17 -17 -15 -33 3 -18 12 10 15 10 15 -1 0 -11 2 -11 10 1
19 30 -2 44 -28 18z"/>
<path d="M4175 1090 c3 -5 8 -10 11 -10 2 0 4 5 4 10 0 6 -5 10 -11 10 -5 0
-7 -4 -4 -10z"/>
<path d="M4583 1083 c4 -3 10 -3 14 0 3 4 0 7 -7 7 -7 0 -10 -3 -7 -7z"/>
<path d="M4998 1073 c6 -2 18 -2 25 0 6 3 1 5 -13 5 -14 0 -19 -2 -12 -5z"/>
<path d="M5235 1070 c3 -5 8 -10 11 -10 2 0 4 5 4 10 0 6 -5 10 -11 10 -5 0
-7 -4 -4 -10z"/>
<path d="M5350 1059 c0 -7 -11 -9 -27 -6 -30 6 -126 -12 -140 -27 -4 -4 10 -5
32 -2 22 4 58 9 80 13 36 6 39 5 27 -10 -12 -13 -10 -16 15 -19 15 -2 26 -7
23 -13 -3 -5 -13 -9 -22 -8 -10 2 -18 -2 -18 -7 0 -6 11 -10 24 -10 13 0 31
-3 40 -6 13 -5 16 2 16 45 0 49 -12 67 -24 36 -3 -8 -10 -15 -16 -15 -8 0 -8
6 0 20 7 14 7 20 0 20 -5 0 -10 -5 -10 -11z"/>
<path d="M4178 1053 c7 -3 16 -2 19 1 4 3 -2 6 -13 5 -11 0 -14 -3 -6 -6z"/>
<path d="M5073 1053 c4 -3 10 -3 14 0 3 4 0 7 -7 7 -7 0 -10 -3 -7 -7z"/>
<path d="M5020 1040 c0 -5 5 -10 11 -10 5 0 7 5 4 10 -3 6 -8 10 -11 10 -2 0
-4 -4 -4 -10z"/>
<path d="M4920 1025 c-7 -9 -20 -13 -28 -10 -18 7 24 -66 45 -79 13 -7 13 -10
2 -17 -8 -4 -19 -3 -26 3 -7 6 -13 6 -13 1 0 -5 -15 -7 -32 -5 -54 8 -25 -8
32 -17 100 -16 169 23 124 70 -25 27 -25 27 10 31 48 5 106 -2 106 -14 0 -5
-4 -7 -9 -4 -5 3 -12 -5 -15 -19 -4 -14 -13 -25 -20 -25 -8 0 -17 -7 -20 -16
-9 -25 -7 -27 10 -13 15 12 16 11 10 -9 -6 -18 -4 -22 16 -22 13 -1 39 -7 59
-14 35 -12 36 -12 52 17 20 34 13 55 -12 33 -14 -13 -20 -13 -31 -3 -9 8 -11
8 -6 0 11 -19 -34 -27 -52 -9 -15 15 -15 17 6 32 12 8 20 19 17 24 -8 13 60
32 88 25 19 -5 27 -15 32 -41 7 -38 0 -58 -17 -48 -7 5 -9 -2 -6 -20 5 -23 1
-29 -31 -43 -42 -18 -25 -30 21 -14 47 17 47 4 0 -36 -32 -27 -40 -38 -30 -44
10 -7 8 -13 -8 -30 -12 -12 -27 -18 -33 -15 -16 10 -13 26 4 26 8 0 15 5 15
11 0 6 -8 8 -19 4 -11 -3 -22 -2 -25 4 -3 5 -15 7 -26 4 -13 -3 -20 0 -20 8 0
12 -2 12 -9 0 -5 -8 -7 -19 -5 -26 7 -16 -32 -49 -47 -39 -9 5 -10 2 -6 -9 10
-27 -16 -39 -48 -23 -16 8 -33 13 -39 10 -6 -3 -3 1 7 9 9 8 17 19 17 26 0 6
7 11 16 11 11 0 14 -5 10 -16 -6 -15 -4 -15 10 -3 10 8 27 12 38 11 12 -2 18
-1 15 3 -4 3 -18 7 -31 9 -13 1 -29 5 -35 9 -6 4 -24 -4 -39 -18 -15 -14 -30
-25 -34 -25 -4 0 -25 -14 -46 -31 -22 -17 -57 -39 -80 -49 -38 -16 -67 -50
-44 -50 6 0 10 3 10 8 0 21 116 67 164 63 39 -2 47 0 40 10 -6 11 -4 11 9 0
24 -19 21 -20 -52 -22 -45 -2 -58 -5 -46 -11 15 -9 15 -11 -2 -23 -17 -13 -17
-14 2 -11 11 2 26 -4 33 -13 12 -14 13 -14 9 -1 -3 10 5 20 19 27 17 8 24 8
24 0 0 -6 3 -7 7 -4 3 4 13 1 20 -5 12 -10 14 -8 11 7 -4 22 41 30 49 8 8 -20
-6 -30 -17 -13 -5 8 -12 11 -16 7 -4 -4 8 -21 27 -38 19 -17 27 -27 18 -24
-10 4 -20 2 -24 -4 -4 -7 4 -11 19 -11 13 0 27 6 30 13 5 10 7 10 12 0 10 -23
24 -14 24 15 0 46 36 40 37 -6 1 -35 0 -36 -10 -12 -11 25 -11 25 -14 0 -3
-22 -9 -25 -38 -24 -19 1 -33 -2 -30 -7 3 -4 12 -6 19 -3 22 8 30 -16 11 -30
-17 -12 -16 -14 4 -33 20 -19 21 -22 7 -30 -15 -8 -15 -11 1 -28 10 -11 19
-33 21 -50 2 -26 1 -28 -9 -11 -9 14 -13 15 -19 6 -5 -8 -2 -19 6 -27 8 -8 11
-20 7 -26 -4 -6 -9 -3 -14 9 -3 10 -23 32 -43 49 -20 16 -36 39 -37 50 0 20 0
20 -9 0 -8 -18 -15 -8 -12 17 1 3 -5 9 -13 12 -9 3 -15 -1 -15 -9 0 -8 5 -15
11 -15 6 0 8 -9 4 -20 -5 -14 -3 -18 8 -14 19 7 39 -20 35 -48 -2 -15 -9 -22
-20 -20 -10 2 -18 -6 -21 -20 -3 -17 -5 -14 -6 10 -1 24 3 31 12 26 9 -5 9 -4
0 6 -10 11 -16 10 -33 -5 -19 -17 -20 -17 -32 11 -16 37 -86 144 -93 144 -7 0
-3 -7 41 -75 38 -59 49 -91 34 -100 -19 -12 -10 -22 15 -17 15 2 25 0 25 -7 0
-7 -4 -10 -9 -7 -14 9 -41 -5 -41 -21 0 -9 -6 -13 -15 -9 -12 4 -14 0 -9 -19
7 -30 -4 -53 -17 -34 -6 10 -9 6 -9 -13 0 -15 -9 -36 -21 -46 -20 -20 -20 -20
11 -31 25 -8 30 -14 25 -31 -4 -12 -2 -20 5 -20 7 0 14 9 17 20 3 11 10 20 15
20 6 0 8 -7 4 -15 -7 -19 8 -19 24 0 16 19 34 20 27 1 -8 -20 44 -18 60 3 11
15 12 14 13 -1 0 -23 17 -23 23 0 4 14 5 13 6 -4 1 -17 6 -20 31 -16 17 2 30
8 30 13 0 5 7 9 15 9 8 0 15 -5 15 -12 0 -8 3 -9 10 -2 19 19 1 90 -22 91 -19
2 -19 1 -2 -18 9 -10 14 -22 10 -27 -4 -4 -14 1 -21 11 -10 13 -14 15 -18 5
-3 -7 -6 -3 -6 9 -1 12 -6 25 -12 29 -8 4 -9 0 -4 -15 8 -26 -10 -28 -24 -3
-9 15 -12 15 -20 2 -6 -8 -13 -11 -17 -8 -10 11 4 40 16 33 5 -3 10 -1 10 4 0
6 -10 11 -22 11 -17 0 -19 3 -11 11 9 9 18 8 37 -5 25 -16 26 -16 26 3 0 25
27 18 35 -9 4 -12 12 -17 21 -13 8 3 12 13 9 22 -2 9 -1 29 3 45 7 27 9 27 22
10 9 -11 10 -15 3 -10 -21 12 -15 -9 11 -37 13 -14 22 -28 19 -31 -8 -8 8 -46
19 -46 7 0 9 19 6 51 -3 29 -2 45 2 38 8 -14 13 -56 11 -98 -1 -18 -5 -22 -21
-18 -13 3 -20 0 -20 -9 0 -8 7 -14 15 -14 9 0 12 -6 9 -15 -8 -21 13 -19 25 3
10 16 10 16 11 0 0 -20 15 -24 25 -8 5 8 11 8 20 0 10 -8 15 -8 20 1 6 8 10 8
15 -2 7 -10 11 -10 24 0 11 9 16 10 16 2 0 -6 7 -11 15 -11 13 0 15 52 15 410
0 282 -3 410 -11 410 -5 0 -7 4 -4 10 3 5 0 7 -8 4 -17 -6 -11 -44 7 -44 6 0
4 -5 -4 -10 -10 -6 -26 -3 -50 11 -19 12 -29 15 -22 8 18 -20 15 -29 -12 -29
-14 0 -37 -5 -53 -10 -25 -10 -24 -7 15 30 38 37 41 42 27 56 -21 21 -19 29
11 40 26 9 26 9 5 33 -26 29 -27 61 -3 62 13 0 12 2 -5 9 -13 5 -23 14 -23 19
0 5 -8 8 -18 6 -36 -6 -97 -8 -112 -2 -8 3 -46 8 -85 10 -38 3 -82 8 -96 12
-18 5 -29 2 -39 -10z m75 -40 c5 -16 17 -35 25 -42 13 -10 10 -12 -16 -13 -30
0 -74 30 -74 51 0 6 -4 7 -10 4 -14 -9 -12 9 2 23 23 23 62 10 73 -23z m266
-254 c-6 -10 -20 -21 -31 -24 -20 -5 -19 2 3 31 16 21 39 15 28 -7z m-132 -26
c2 -14 -2 -17 -18 -12 -12 3 -24 1 -27 -4 -3 -5 0 -9 5 -9 6 0 11 -4 11 -10 0
-5 -7 -10 -15 -10 -20 0 -19 16 3 45 19 27 35 27 41 0z m-214 -55 c3 -5 1 -10
-4 -10 -6 0 -11 5 -11 10 0 6 2 10 4 10 3 0 8 -4 11 -10z m195 -44 c-1 -31 -1
-31 -27 -1 -17 19 -28 25 -31 17 -5 -16 -22 -16 -22 1 0 8 14 13 40 13 38 1
40 -1 40 -30z m114 25 c3 -5 16 -7 28 -3 14 3 19 1 14 -6 -9 -16 -66 -12 -66
5 0 15 16 18 24 4z m-158 -56 c1 -8 -2 -13 -7 -9 -5 3 -9 12 -9 21 0 19 13 9
16 -12z m284 16 c0 -10 -30 -24 -37 -17 -3 3 -2 9 2 15 8 13 35 15 35 2z
m-423 -7 c-3 -3 -12 -4 -19 -1 -8 3 -5 6 6 6 11 1 17 -2 13 -5z m311 -23 c6
-1 12 -6 12 -12 0 -7 -10 -9 -26 -5 -15 4 -32 2 -40 -5 -11 -9 -14 -8 -14 3 0
21 7 25 32 22 13 -1 29 -3 36 -3z m89 -58 c-4 -3 -10 -3 -14 0 -3 4 0 7 7 7 7
0 10 -3 7 -7z m-110 -9 c-3 -3 -12 -4 -19 -1 -8 3 -5 6 6 6 11 1 17 -2 13 -5z
m40 -1 c-4 -3 -10 -3 -14 0 -3 4 0 7 7 7 7 0 10 -3 7 -7z m-78 -29 c-10 -13
-10 -17 0 -24 11 -6 9 -11 -8 -19 -26 -15 -31 18 -5 43 20 21 30 21 13 0z
m165 -9 c-4 -8 -12 -15 -20 -15 -8 0 -14 7 -14 15 0 8 9 15 20 15 13 0 18 -5
14 -15z m-97 -52 c-4 -3 -7 0 -7 7 0 7 3 10 7 7 3 -4 3 -10 0 -14z m90 10 c-4
-3 -10 -3 -14 0 -3 4 0 7 7 7 7 0 10 -3 7 -7z m-196 -22 c7 11 9 11 9 1 0 -14
-27 -28 -36 -19 -3 3 -2 11 2 18 6 10 9 10 12 0 4 -11 6 -11 13 0z m89 -1 c0
-5 -5 -10 -11 -10 -5 0 -7 5 -4 10 3 6 8 10 11 10 2 0 4 -4 4 -10z m-80 -104
c0 -39 -6 -30 -13 19 -4 27 -3 35 3 25 5 -8 10 -28 10 -44z m44 42 c-5 -8 -2
-9 11 -4 15 5 16 4 6 -8 -7 -8 -21 -14 -32 -13 -22 2 -23 3 -6 22 15 17 31 20
21 3z m60 -33 c3 -8 1 -15 -4 -15 -6 0 -10 7 -10 15 0 8 2 15 4 15 2 0 6 -7
10 -15z m-212 -27 c-9 -9 -12 -7 -12 12 0 19 3 21 12 12 9 -9 9 -15 0 -24z
m145 -5 c-4 -3 -7 0 -7 7 0 7 3 10 7 7 3 -4 3 -10 0 -14z m-71 -79 c-6 -17
-26 -10 -26 9 0 7 4 6 10 -3 8 -12 10 -10 11 10 0 14 3 19 6 12 3 -7 2 -20 -1
-28z m-196 16 c0 -5 6 -7 14 -4 9 3 17 -3 22 -18 15 -43 13 -50 -7 -29 -11 12
-25 21 -32 21 -7 0 -13 9 -13 20 0 11 4 20 8 20 4 0 8 -4 8 -10z m137 -32 c-3
-7 -5 -2 -5 12 0 14 2 19 5 13 2 -7 2 -19 0 -25z m204 -31 c-8 -8 -11 -7 -11
4 0 20 13 34 18 19 3 -7 -1 -17 -7 -23z m-341 13 c0 -5 -9 -10 -20 -10 -11 0
-20 5 -20 10 0 6 9 10 20 10 11 0 20 -4 20 -10z m-30 -30 c0 -5 -2 -10 -4 -10
-3 0 -8 5 -11 10 -3 6 -1 10 4 10 6 0 11 -4 11 -10z m25 -20 c3 -5 4 -10 1
-10 -3 0 -8 5 -11 10 -3 6 -4 10 -1 10 3 0 8 -4 11 -10z m70 0 c3 -5 1 -10 -4
-10 -6 0 -11 5 -11 10 0 6 2 10 4 10 3 0 8 -4 11 -10z m272 -27 c-4 -3 -7 0
-7 7 0 7 3 10 7 7 3 -4 3 -10 0 -14z m-300 -10 c-4 -3 -7 0 -7 7 0 7 3 10 7 7
3 -4 3 -10 0 -14z m140 -20 c-4 -3 -7 0 -7 7 0 7 3 10 7 7 3 -4 3 -10 0 -14z"/>
<path d="M126 1014 c-8 -20 -8 -24 2 -23 21 4 32 -3 32 -19 0 -20 45 -50 57
-39 3 4 1 7 -6 7 -7 0 -9 5 -6 10 3 6 15 10 26 10 10 0 19 3 19 6 0 11 -28 33
-34 27 -3 -4 -6 -1 -6 6 0 7 -5 9 -10 6 -8 -5 -8 -11 0 -20 8 -10 8 -15 0 -20
-7 -4 -14 2 -17 14 -8 30 -49 55 -57 35z"/>
<path d="M2532 995 c-6 -14 -17 -24 -23 -23 -6 2 -13 -2 -16 -9 -3 -7 5 -10
21 -9 14 2 26 -1 26 -5 0 -5 41 -8 90 -8 96 1 120 13 44 22 -28 3 -50 12 -59
23 -13 18 -14 17 -8 -6 4 -19 3 -22 -6 -14 -7 6 -14 20 -15 30 -4 30 -40 29
-54 -1z m35 -22 c-4 -3 -10 -3 -14 0 -3 4 0 7 7 7 7 0 10 -3 7 -7z"/>
<path d="M80 1000 c0 -5 -8 -10 -18 -10 -20 0 -62 -27 -62 -40 0 -4 23 3 50
16 28 14 48 29 45 34 -8 13 -15 13 -15 0z"/>
<path d="M3157 986 c-6 -16 19 -30 35 -19 6 3 8 1 4 -5 -3 -6 -2 -13 3 -16 18
-11 21 27 4 40 -23 17 -40 17 -46 0z"/>
<path d="M403 963 c4 -3 10 -3 14 0 3 4 0 7 -7 7 -7 0 -10 -3 -7 -7z"/>
<path d="M2420 966 c0 -2 13 -6 29 -8 17 -2 28 -1 25 4 -5 8 -54 12 -54 4z"/>
<path d="M29 940 c-13 -10 -18 -19 -11 -20 6 0 12 5 12 10 0 6 7 10 15 10 8 0
15 5 15 10 0 14 -5 13 -31 -10z"/>
<path d="M127 933 c-12 -12 -7 -22 8 -17 8 4 15 10 15 15 0 11 -14 12 -23 2z"/>
<path d="M268 929 c17 -5 32 -15 32 -21 0 -6 3 -8 6 -5 13 12 -18 37 -45 36
-24 -1 -24 -1 7 -10z"/>
<path d="M5337 928 c-8 -5 -6 -8 5 -8 11 0 15 -5 12 -14 -5 -13 -2 -13 20 -3
14 7 26 17 26 23 0 13 -44 14 -63 2z"/>
<path d="M88 923 c7 -3 16 -2 19 1 4 3 -2 6 -13 5 -11 0 -14 -3 -6 -6z"/>
<path d="M340 912 c0 -4 15 -8 34 -8 19 0 32 4 30 8 -3 4 -18 8 -35 8 -16 0
-29 -4 -29 -8z"/>
<path d="M21 888 c-30 -11 -27 -13 23 -15 25 -1 49 4 55 11 12 14 -43 17 -78
4z"/>
<path d="M5005 882 c4 -15 2 -24 -9 -28 -16 -6 -13 -24 4 -24 14 0 22 52 9 64
-8 8 -10 5 -4 -12z"/>
<path d="M5386 885 c-3 -8 -1 -15 4 -15 6 0 10 7 10 15 0 8 -2 15 -4 15 -2 0
-6 -7 -10 -15z"/>
<path d="M197 870 c-14 -13 -31 -17 -72 -15 -32 2 -58 -1 -61 -7 -4 -7 -2 -8
4 -4 7 4 12 3 12 -2 0 -6 10 -8 23 -5 18 5 20 3 9 -8 -7 -8 -27 -12 -48 -10
-19 1 -42 -3 -50 -9 -18 -15 -20 -37 -1 -23 6 6 21 13 32 17 16 5 15 2 -5 -14
-14 -11 -28 -20 -32 -20 -5 0 -8 -26 -7 -57 0 -58 0 -58 17 -23 9 19 23 39 29
43 7 4 13 13 13 18 0 6 -5 7 -12 3 -7 -4 -8 -3 -4 5 4 6 11 9 16 6 5 -3 14 0
22 7 44 42 155 87 227 92 112 7 136 -11 140 -106 1 -10 4 -17 9 -17 22 4 28
-4 24 -37 -3 -27 -7 -33 -14 -23 -7 10 -8 5 -5 -16 3 -16 -2 -43 -10 -58 -13
-25 -11 -68 3 -55 15 16 40 110 37 141 -3 30 -1 35 12 31 13 -5 12 0 -4 27
-25 42 -56 112 -54 121 8 24 -225 22 -250 -2z"/>
<path d="M2678 883 c7 -3 16 -2 19 1 4 3 -2 6 -13 5 -11 0 -14 -3 -6 -6z"/>
<path d="M8 853 c7 -3 16 -2 19 1 4 3 -2 6 -13 5 -11 0 -14 -3 -6 -6z"/>
<path d="M575 840 c3 -5 8 -10 11 -10 2 0 4 5 4 10 0 6 -5 10 -11 10 -5 0 -7
-4 -4 -10z"/>
<path d="M615 840 c3 -5 8 -10 11 -10 2 0 4 5 4 10 0 6 -5 10 -11 10 -5 0 -7
-4 -4 -10z"/>
<path d="M4953 843 c4 -3 10 -3 14 0 3 4 0 7 -7 7 -7 0 -10 -3 -7 -7z"/>
<path d="M5174 838 c-4 -7 -3 -8 4 -4 12 7 16 16 8 16 -3 0 -8 -5 -12 -12z"/>
<path d="M710 833 c0 -11 59 -43 79 -43 6 0 11 4 11 9 0 5 -11 9 -25 9 -14 0
-35 8 -45 17 -11 10 -20 13 -20 8z"/>
<path d="M5115 830 c3 -5 16 -10 28 -9 21 0 21 1 2 9 -28 12 -37 12 -30 0z"/>
<path d="M643 813 c4 -3 10 -3 14 0 3 4 0 7 -7 7 -7 0 -10 -3 -7 -7z"/>
<path d="M945 810 c-3 -5 -1 -10 4 -10 6 0 11 5 11 10 0 6 -2 10 -4 10 -3 0
-8 -4 -11 -10z"/>
<path d="M865 800 c-25 -7 -23 -8 17 -7 27 1 48 5 48 10 0 9 -24 7 -65 -3z"/>
<path d="M980 806 c0 -2 11 -6 25 -8 14 -3 25 -1 25 3 0 5 -11 9 -25 9 -14 0
-25 -2 -25 -4z"/>
<path d="M1084 802 c5 -8 -1 -12 -16 -13 -22 0 -22 -1 -3 -9 11 -5 27 -9 35
-9 10 1 11 2 2 6 -6 2 -10 9 -7 13 3 5 0 12 -6 16 -8 4 -9 3 -5 -4z"/>
<path d="M1150 790 c-9 -6 -10 -10 -3 -10 6 0 15 5 18 10 8 12 4 12 -15 0z"/>
<path d="M5143 780 c1 -13 6 -19 15 -15 7 3 18 5 23 5 5 0 9 5 9 12 0 6 -3 8
-6 5 -4 -3 -15 -2 -25 3 -14 8 -17 6 -16 -10z"/>
<path d="M5083 783 c4 -3 10 -3 14 0 3 4 0 7 -7 7 -7 0 -10 -3 -7 -7z"/>
<path d="M655 770 c3 -5 10 -10 16 -10 5 0 9 5 9 10 0 6 -7 10 -16 10 -8 0
-12 -4 -9 -10z"/>
<path d="M853 773 c4 -3 10 -3 14 0 3 4 0 7 -7 7 -7 0 -10 -3 -7 -7z"/>
<path d="M1230 770 c0 -7 3 -10 7 -7 3 4 3 10 0 14 -4 3 -7 0 -7 -7z"/>
<path d="M1204 758 c-4 -7 -3 -8 4 -4 7 4 12 9 12 12 0 8 -9 4 -16 -8z"/>
<path d="M1423 763 c-7 -2 -13 -11 -13 -19 0 -8 -5 -14 -11 -14 -5 0 -8 -4 -5
-9 3 -5 15 -7 26 -4 16 4 18 8 9 19 -9 12 -9 13 3 9 9 -4 18 1 21 9 6 16 -6
19 -30 9z"/>
<path d="M4975 760 c3 -5 8 -10 11 -10 3 0 2 5 -1 10 -3 6 -8 10 -11 10 -3 0
-2 -4 1 -10z"/>
<path d="M1507 748 c15 -7 33 -7 60 0 38 10 37 10 -22 10 -49 1 -56 -1 -38
-10z"/>
<path d="M1630 756 c0 -3 9 -10 20 -16 11 -6 20 -8 20 -6 0 3 -9 10 -20 16
-11 6 -20 8 -20 6z"/>
<path d="M1723 752 c-7 -4 -9 -13 -4 -21 6 -9 14 -10 22 -5 8 5 23 7 34 6 14
-2 12 1 -9 12 -33 19 -28 18 -43 8z"/>
<path d="M682 733 c-15 -26 -15 -36 -2 -28 6 3 10 -4 11 -17 1 -13 2 -37 4
-54 1 -16 -4 -39 -11 -49 -13 -18 -14 -18 -34 0 -11 10 -20 24 -20 32 0 7 -10
12 -22 12 -13 -1 -16 -3 -8 -5 8 -3 20 -15 26 -28 10 -21 9 -24 -5 -19 -9 4
-5 -3 9 -14 14 -11 35 -23 47 -27 27 -9 37 -34 21 -55 -11 -14 -11 -14 3 -4
12 10 20 9 38 -3 27 -19 86 -31 76 -15 -13 21 10 10 41 -20 31 -30 31 -30 38
-5 5 21 13 26 36 26 37 0 39 -15 4 -24 -22 -6 -24 -9 -13 -22 10 -12 14 -12
21 -2 7 10 11 10 14 1 3 -7 12 -9 20 -6 8 3 14 1 14 -5 0 -6 9 -8 20 -5 11 3
17 9 14 14 -3 5 -9 7 -14 4 -5 -3 -11 -1 -15 5 -4 6 -11 8 -16 5 -5 -3 -6 1
-3 10 5 12 10 13 17 6 6 -6 19 -11 29 -11 10 0 18 -4 18 -8 0 -4 9 -8 20 -8
23 0 23 1 9 28 -6 11 -7 18 -1 14 28 -17 10 87 -23 135 -34 47 -34 49 -13 50
15 0 18 2 8 6 -8 3 -25 15 -38 26 -12 12 -32 22 -44 24 -12 2 -28 8 -35 15
-15 12 -40 17 -122 24 -57 4 -89 -11 -92 -45 -1 -9 -5 2 -8 24 -6 38 -7 39
-19 18z m234 -39 c22 -9 46 -20 54 -24 8 -4 23 -24 33 -46 11 -21 29 -49 40
-62 15 -16 18 -25 10 -30 -6 -4 -13 -18 -14 -32 -5 -32 -25 -33 -66 -3 -18 13
-42 27 -55 33 -16 6 -18 9 -6 9 9 1 20 6 24 13 5 8 -3 9 -29 5 -21 -3 -39 -1
-43 4 -3 6 -12 8 -20 5 -7 -3 -16 -1 -19 4 -4 6 2 10 12 10 12 1 8 5 -12 14
-38 17 -47 9 -36 -32 11 -38 6 -40 -26 -10 -18 17 -23 32 -23 74 0 91 64 116
176 68z m-199 -86 c-3 -7 -5 -2 -5 12 0 14 2 19 5 13 2 -7 2 -19 0 -25z m0
-35 c-4 -3 -7 0 -7 7 0 7 3 10 7 7 3 -4 3 -10 0 -14z m148 -43 c3 -5 4 -10 1
-10 -3 0 -8 5 -11 10 -3 6 -4 10 -1 10 3 0 8 -4 11 -10z m15 -40 c0 -5 -5 -10
-11 -10 -5 0 -7 5 -4 10 3 6 8 10 11 10 2 0 4 -4 4 -10z m-3 -47 c-4 -3 -7 0
-7 7 0 7 3 10 7 7 3 -4 3 -10 0 -14z"/>
<path d="M1185 739 c4 -5 -30 -10 -82 -10 -80 -1 -83 -2 -37 -9 28 -4 71 -6
95 -4 24 1 46 -2 50 -7 3 -6 18 -7 34 -3 24 6 25 8 11 16 -28 16 -77 28 -71
17z m52 -26 c-4 -3 -10 -3 -14 0 -3 4 0 7 7 7 7 0 10 -3 7 -7z"/>
<path d="M1813 743 c4 -3 10 -3 14 0 3 4 0 7 -7 7 -7 0 -10 -3 -7 -7z"/>
<path d="M5050 740 c0 -7 3 -10 7 -7 3 4 3 10 0 14 -4 3 -7 0 -7 -7z"/>
<path d="M284 725 c-16 -12 -16 -14 -3 -15 9 0 22 7 29 15 16 19 0 19 -26 0z"/>
<path d="M2333 733 c4 -3 10 -3 14 0 3 4 0 7 -7 7 -7 0 -10 -3 -7 -7z"/>
<path d="M590 720 c0 -5 11 -10 24 -10 14 0 28 -4 31 -10 3 -5 -2 -10 -12 -10
-16 -1 -16 -2 2 -12 11 -6 26 -19 33 -27 14 -17 13 -11 -3 48 -7 25 -75 44
-75 21z"/>
<path d="M2323 713 c4 -3 10 -3 14 0 3 4 0 7 -7 7 -7 0 -10 -3 -7 -7z"/>
<path d="M1147 690 c-3 -11 -1 -20 4 -20 5 0 9 9 9 20 0 11 -2 20 -4 20 -2 0
-6 -9 -9 -20z"/>
<path d="M230 690 c-8 -5 -10 -10 -5 -10 6 0 17 5 25 10 8 5 11 10 5 10 -5 0
-17 -5 -25 -10z"/>
<path d="M565 690 c3 -5 8 -10 11 -10 3 0 2 5 -1 10 -3 6 -8 10 -11 10 -3 0
-2 -4 1 -10z"/>
<path d="M523 679 c-7 -7 -13 -18 -13 -23 0 -6 4 -5 9 2 11 18 24 0 46 -63 15
-46 15 -50 -1 -62 -15 -11 -14 -13 10 -19 14 -3 26 -10 26 -16 0 -5 -4 -7 -9
-3 -5 3 -21 0 -36 -7 -18 -8 -22 -14 -13 -19 7 -4 18 -3 25 3 9 7 13 7 13 -1
0 -6 7 -11 15 -11 8 0 15 5 15 10 0 21 20 9 26 -15 6 -24 15 -31 27 -19 3 3
-3 14 -14 25 -27 27 -24 39 11 39 17 0 30 5 30 10 0 6 -17 10 -39 10 -40 0
-58 13 -64 46 -8 48 -52 125 -64 113z"/>
<path d="M1200 656 c0 -2 9 -6 20 -9 11 -3 18 -1 14 4 -5 9 -34 13 -34 5z"/>
<path d="M398 629 c-10 -10 -29 -19 -41 -19 -19 0 -27 -8 -37 -40 -9 -27 -19
-40 -32 -40 -11 0 -18 -7 -18 -20 0 -11 -4 -20 -10 -20 -5 0 -10 7 -10 15 0
20 -36 19 -44 -1 -3 -9 -4 -20 0 -25 3 -5 1 -9 -3 -9 -15 0 -33 23 -33 42 0
13 -11 19 -40 24 -24 4 -40 12 -40 20 0 20 -18 17 -47 -6 -14 -11 -29 -17 -34
-14 -5 3 -9 -2 -9 -12 0 -13 6 -15 33 -10 60 14 77 13 77 0 0 -7 7 -19 15 -28
13 -13 14 -19 3 -36 -11 -17 -11 -22 0 -29 11 -7 10 -10 -3 -15 -11 -4 -14
-12 -10 -26 5 -17 2 -20 -24 -20 -17 0 -32 3 -32 8 -1 4 -2 20 -3 35 -1 16
-10 33 -19 39 -11 6 -16 16 -12 28 3 11 0 20 -10 24 -12 4 -15 -4 -15 -50 0
-46 3 -55 15 -50 11 4 19 -3 25 -19 7 -19 17 -25 38 -25 15 0 32 -4 38 -9 5
-5 31 -6 63 0 30 4 58 6 62 3 5 -3 11 7 15 21 3 14 11 26 18 27 15 2 24 3 67
12 32 7 35 10 31 36 -2 15 1 36 6 47 11 19 11 20 28 -36 4 -11 8 -9 19 7 15
20 30 22 68 7 12 -5 17 -2 17 8 0 9 -10 17 -22 19 -12 2 -27 12 -33 24 -6 11
-15 19 -21 17 -6 -2 -11 2 -12 9 -1 7 -5 28 -8 46 -4 20 -2 38 6 47 18 22 -2
17 -22 -6z m-240 -134 c-3 -3 -9 2 -12 12 -6 14 -5 15 5 6 7 -7 10 -15 7 -18z
m289 -2 c-4 -3 -10 -3 -14 0 -3 4 0 7 7 7 7 0 10 -3 7 -7z m-205 -125 c-17
-17 -32 1 -32 36 0 47 12 52 28 11 10 -25 11 -40 4 -47z m34 63 c0 -11 -4 -17
-8 -15 -4 3 -8 12 -8 20 0 8 4 14 8 14 4 0 8 -9 8 -19z m-79 -28 c-4 -3 -7 0
-7 7 0 7 3 10 7 7 3 -4 3 -10 0 -14z m3 -34 c0 -4 -7 -6 -15 -3 -8 4 -15 10
-15 15 0 4 7 6 15 3 8 -4 15 -10 15 -15z m-43 -6 c-4 -3 -7 0 -7 7 0 7 3 10 7
7 3 -4 3 -10 0 -14z"/>
<path d="M3365 630 c-3 -5 -1 -10 4 -10 6 0 11 5 11 10 0 6 -2 10 -4 10 -3 0
-8 -4 -11 -10z"/>
<path d="M1190 620 c0 -7 3 -10 7 -7 3 4 3 10 0 14 -4 3 -7 0 -7 -7z"/>
<path d="M0 610 c0 -7 3 -10 7 -7 3 4 3 10 0 14 -4 3 -7 0 -7 -7z"/>
<path d="M3170 614 c1 -12 39 -61 40 -51 0 5 -9 20 -20 34 -11 14 -20 22 -20
17z"/>
<path d="M3115 600 c3 -5 16 -10 28 -10 18 0 19 2 7 10 -20 13 -43 13 -35 0z"/>
<path d="M4655 600 c-3 -5 -1 -10 4 -10 6 0 11 5 11 10 0 6 -2 10 -4 10 -3 0
-8 -4 -11 -10z"/>
<path d="M1 574 c0 -11 3 -14 6 -6 3 7 2 16 -1 19 -3 4 -6 -2 -5 -13z"/>
<path d="M241 571 c-10 -6 -11 -13 -3 -27 10 -18 11 -18 18 1 4 11 12 23 18
27 16 11 -16 10 -33 -1z"/>
<path d="M3265 570 c3 -5 8 -10 11 -10 3 0 2 5 -1 10 -3 6 -8 10 -11 10 -3 0
-2 -4 1 -10z"/>
<path d="M4690 561 c0 -6 4 -13 10 -16 6 -3 7 1 4 9 -7 18 -14 21 -14 7z"/>
<path d="M3113 553 c4 -3 10 -3 14 0 3 4 0 7 -7 7 -7 0 -10 -3 -7 -7z"/>
<path d="M4980 540 c0 -7 3 -10 7 -7 3 4 3 10 0 14 -4 3 -7 0 -7 -7z"/>
<path d="M515 530 c3 -5 8 -10 11 -10 2 0 4 5 4 10 0 6 -5 10 -11 10 -5 0 -7
-4 -4 -10z"/>
<path d="M2468 533 c7 -3 16 -2 19 1 4 3 -2 6 -13 5 -11 0 -14 -3 -6 -6z"/>
<path d="M2560 530 c0 -5 5 -10 11 -10 5 0 7 5 4 10 -3 6 -8 10 -11 10 -2 0
-4 -4 -4 -10z"/>
<path d="M4770 532 c0 -12 39 -60 40 -49 0 5 -9 20 -20 34 -11 14 -20 21 -20
15z"/>
<path d="M2596 513 c-6 -14 -5 -15 5 -6 7 7 10 15 7 18 -3 3 -9 -2 -12 -12z"/>
<path d="M4660 510 c0 -7 3 -10 7 -7 3 4 3 10 0 14 -4 3 -7 0 -7 -7z"/>
<path d="M4981 504 c0 -11 3 -14 6 -6 3 7 2 16 -1 19 -3 4 -6 -2 -5 -13z"/>
<path d="M1222 498 c-13 -13 -16 -38 -4 -38 4 0 12 11 19 25 12 27 5 33 -15
13z"/>
<path d="M4480 500 c0 -7 3 -10 7 -7 3 4 3 10 0 14 -4 3 -7 0 -7 -7z"/>
<path d="M1090 491 c0 -24 23 -36 61 -33 62 6 51 27 -19 38 -29 5 -42 3 -42
-5z"/>
<path d="M2033 493 c4 -3 10 -3 14 0 3 4 0 7 -7 7 -7 0 -10 -3 -7 -7z"/>
<path d="M4596 485 c4 -8 8 -15 10 -15 2 0 4 7 4 15 0 8 -4 15 -10 15 -5 0 -7
-7 -4 -15z"/>
<path d="M4830 490 c0 -6 7 -10 15 -10 8 0 15 2 15 4 0 2 -7 6 -15 10 -8 3
-15 1 -15 -4z"/>
<path d="M1270 475 c-11 -13 -9 -15 15 -15 16 0 25 5 23 12 -7 19 -24 20 -38
3z"/>
<path d="M3230 480 c0 -7 3 -10 7 -7 3 4 3 10 0 14 -4 3 -7 0 -7 -7z"/>
<path d="M5010 473 c0 -12 -4 -25 -10 -28 -5 -3 -10 1 -10 11 0 13 -3 14 -15
4 -24 -20 -17 -37 15 -38 20 0 30 4 30 14 0 8 5 12 10 9 6 -4 8 -10 5 -15 -3
-5 -2 -11 3 -14 16 -10 10 30 -9 54 -18 25 -19 25 -19 3z"/>
<path d="M2155 470 c-3 -6 1 -7 9 -4 18 7 21 14 7 14 -6 0 -13 -4 -16 -10z"/>
<path d="M2510 459 c0 -5 11 -9 25 -9 14 0 25 2 25 4 0 2 -11 6 -25 8 -14 3
-25 1 -25 -3z"/>
<path d="M4930 461 c0 -5 5 -13 10 -16 6 -3 10 -2 10 4 0 5 -4 13 -10 16 -5 3
-10 2 -10 -4z"/>
<path d="M574 439 c-3 -5 -2 -9 2 -9 4 0 -1 -9 -11 -20 -10 -11 -14 -20 -9
-20 5 0 16 9 24 20 11 15 17 17 28 7 12 -9 14 -8 11 7 -4 20 -35 30 -45 15z"/>
<path d="M532 415 c0 -16 2 -22 5 -12 2 9 2 23 0 30 -3 6 -5 -1 -5 -18z"/>
<path d="M3240 418 c0 -9 7 -19 16 -22 15 -6 15 -4 3 11 -7 10 -15 20 -16 22
-2 2 -3 -3 -3 -11z"/>
<path d="M400 410 c0 -7 3 -10 7 -7 3 4 3 10 0 14 -4 3 -7 0 -7 -7z"/>
<path d="M630 408 c0 -4 7 -8 15 -8 8 0 15 4 15 8 0 5 -7 9 -15 9 -8 0 -15 -4
-15 -9z"/>
<path d="M763 413 c4 -3 10 -3 14 0 3 4 0 7 -7 7 -7 0 -10 -3 -7 -7z"/>
<path d="M4735 410 c-3 -5 -1 -10 4 -10 6 0 11 5 11 10 0 6 -2 10 -4 10 -3 0
-8 -4 -11 -10z"/>
<path d="M4900 401 c5 -11 15 -23 21 -27 6 -3 3 5 -6 20 -20 30 -30 35 -15 7z"/>
<path d="M813 403 c4 -3 10 -3 14 0 3 4 0 7 -7 7 -7 0 -10 -3 -7 -7z"/>
<path d="M3177 375 c7 -46 8 -48 22 -44 6 3 2 20 -9 44 -18 40 -18 40 -13 0z"/>
<path d="M700 387 c0 -20 -11 -22 -28 -5 -9 9 -12 9 -12 0 0 -7 -7 -12 -15
-12 -8 0 -15 -4 -15 -10 0 -5 -9 -10 -19 -10 -10 0 -22 -7 -25 -16 -4 -11 -2
-15 8 -11 8 3 22 0 31 -6 30 -22 -34 -69 -77 -56 -42 12 -41 12 -34 -6 4 -11
-1 -15 -19 -15 -14 0 -25 -4 -25 -10 0 -5 18 -10 41 -10 32 0 40 3 35 15 -3 9
0 15 9 15 8 0 15 -9 15 -20 0 -21 15 -27 25 -10 4 6 16 10 28 8 15 -2 22 4 27
22 5 20 13 26 43 28 48 4 48 22 1 20 -26 -1 -41 4 -51 17 -20 29 -11 40 40 45
43 5 45 6 31 24 -12 17 -14 18 -14 3z"/>
<path d="M2846 393 c-4 -5 -22 -13 -39 -20 -32 -11 -32 -11 -4 -12 15 -1 36 8
47 19 11 11 16 20 12 20 -5 0 -12 -3 -16 -7z"/>
<path d="M3050 390 c0 -7 3 -10 7 -7 3 4 3 10 0 14 -4 3 -7 0 -7 -7z"/>
<path d="M920 380 c0 -5 5 -10 11 -10 5 0 7 5 4 10 -3 6 -8 10 -11 10 -2 0 -4
-4 -4 -10z"/>
<path d="M950 383 c0 -4 5 -15 10 -23 8 -13 10 -13 10 2 0 9 -4 20 -10 23 -5
3 -10 3 -10 -2z"/>
<path d="M4782 365 c0 -16 2 -22 5 -12 2 9 2 23 0 30 -3 6 -5 -1 -5 -18z"/>
<path d="M753 373 c4 -3 10 -3 14 0 3 4 0 7 -7 7 -7 0 -10 -3 -7 -7z"/>
<path d="M1110 370 c0 -7 3 -10 7 -7 3 4 3 10 0 14 -4 3 -7 0 -7 -7z"/>
<path d="M2673 373 c13 -12 74 -20 74 -9 0 6 -18 12 -39 13 -22 0 -37 -1 -35
-4z"/>
<path d="M2881 364 c0 -11 3 -14 6 -6 3 7 2 16 -1 19 -3 4 -6 -2 -5 -13z"/>
<path d="M3162 360 c0 -14 2 -19 5 -12 2 6 2 18 0 25 -3 6 -5 1 -5 -13z"/>
<path d="M3 363 c4 -3 10 -3 14 0 3 4 0 7 -7 7 -7 0 -10 -3 -7 -7z"/>
<path d="M3265 360 c-3 -5 -1 -18 5 -29 13 -25 13 -44 0 -36 -5 3 -10 -3 -10
-14 0 -24 -25 -28 -34 -6 -8 21 -32 19 -32 -4 0 -10 5 -17 12 -14 6 2 14 -5
17 -16 5 -22 -15 -35 -31 -19 -6 6 -17 2 -31 -14 -12 -12 -17 -24 -11 -26 17
-6 12 -20 -10 -27 -11 -3 -19 -12 -17 -18 1 -7 -4 -11 -10 -10 -17 4 -16 -15
1 -33 19 -18 28 -18 24 1 -2 9 8 21 22 28 25 13 27 23 15 63 -6 20 16 24 77
15 4 -1 9 -13 11 -28 4 -27 4 -26 6 4 1 37 20 55 22 21 1 -17 3 -18 6 -5 6 22
44 22 84 1 17 -8 36 -13 42 -11 6 2 -8 12 -31 22 -23 11 -41 24 -39 29 2 6 -3
16 -12 23 -12 9 -13 14 -4 24 9 9 15 3 27 -26 19 -45 31 -42 15 3 -6 17 -9 39
-6 49 4 14 5 13 6 -4 1 -15 7 -23 19 -22 10 0 12 3 5 6 -7 2 -13 13 -13 23 0
9 -7 23 -15 30 -15 13 -19 8 -16 -21 2 -22 -25 -31 -49 -16 -19 11 -24 26 -21
55 2 14 -15 16 -24 2z m59 -95 c6 -17 4 -18 -18 -9 -20 8 -21 24 -2 24 8 0 16
-7 20 -15z m-20 -24 c3 -5 -9 -11 -27 -14 -36 -5 -42 -3 -32 12 8 13 52 15 59
2z m-124 -91 c0 -5 -7 -10 -16 -10 -8 0 -12 5 -9 10 3 6 10 10 16 10 5 0 9 -4
9 -10z"/>
<path d="M5060 360 c0 -7 3 -10 7 -7 3 4 3 10 0 14 -4 3 -7 0 -7 -7z"/>
<path d="M856 345 c4 -8 10 -15 16 -15 5 0 16 -7 24 -15 9 -8 20 -15 25 -15 5
0 -6 14 -24 30 -38 33 -49 37 -41 15z"/>
<path d="M1205 349 c-4 -6 -14 -8 -24 -4 -13 5 -14 4 -3 -6 10 -11 15 -10 29
4 10 9 14 17 11 17 -4 0 -10 -5 -13 -11z"/>
<path d="M1265 341 c3 -11 9 -33 11 -48 3 -16 12 -38 20 -50 8 -12 14 -29 14
-38 0 -18 16 -20 26 -3 4 6 2 14 -4 16 -7 2 -12 8 -12 13 0 6 4 8 9 4 15 -9
22 30 11 60 -13 34 -23 26 -22 -16 1 -29 0 -30 -13 -13 -8 11 -17 34 -21 52
-3 18 -11 35 -16 38 -6 4 -8 -2 -3 -15z"/>
<path d="M1340 358 c0 -3 11 -17 25 -32 14 -15 25 -23 25 -18 0 5 -11 19 -25
32 -14 13 -25 21 -25 18z"/>
<path d="M3137 353 c-4 -3 -7 -13 -7 -22 1 -13 3 -13 11 2 11 19 8 33 -4 20z"/>
<path d="M4817 354 c-3 -6 -2 -16 4 -24 5 -8 9 -26 9 -40 0 -14 4 -32 9 -39 6
-10 8 1 4 30 -7 55 -18 85 -26 73z"/>
<path d="M2230 328 c15 -15 32 -23 44 -20 18 5 18 5 0 15 -11 6 -22 15 -26 21
-5 7 -8 6 -8 -3 0 -11 -3 -11 -17 0 -10 7 -7 1 7 -13z"/>
<path d="M2567 339 c14 -12 53 -21 53 -11 0 5 -14 12 -30 14 -17 3 -27 1 -23
-3z"/>
<path d="M3094 307 c-11 -52 -32 -55 -51 -7 -12 32 -13 33 -8 5 4 -16 6 -38 6
-47 0 -10 5 -20 10 -23 11 -7 2 -25 -12 -25 -5 0 -9 7 -9 15 0 9 -6 12 -16 8
-9 -3 -11 -9 -6 -12 5 -3 15 -17 22 -31 13 -24 13 -24 23 0 9 24 9 24 17 5 7
-19 8 -18 12 5 5 24 5 24 7 -3 0 -16 5 -26 9 -23 5 3 7 19 4 36 -2 18 0 30 7
30 6 0 11 -7 11 -16 0 -9 6 -14 13 -11 15 5 13 90 -3 95 -5 2 -10 10 -10 17 0
33 -17 20 -26 -18z m13 -39 c-3 -8 -6 -5 -6 6 -1 11 2 17 5 13 3 -3 4 -12 1
-19z"/>
<path d="M543 333 c4 -3 10 -3 14 0 3 4 0 7 -7 7 -7 0 -10 -3 -7 -7z"/>
<path d="M726 331 c-4 -5 3 -7 14 -4 23 6 26 13 6 13 -8 0 -17 -4 -20 -9z"/>
<path d="M1645 330 c3 -5 8 -10 11 -10 3 0 2 5 -1 10 -3 6 -8 10 -11 10 -3 0
-2 -4 1 -10z"/>
<path d="M1673 333 c4 -3 10 -3 14 0 3 4 0 7 -7 7 -7 0 -10 -3 -7 -7z"/>
<path d="M1730 330 c8 -5 24 -10 34 -10 26 0 18 6 -19 14 -22 5 -26 4 -15 -4z"/>
<path d="M2340 328 c0 -9 5 -20 11 -23 17 -11 20 0 4 21 -13 17 -14 17 -15 2z"/>
<path d="M3310 330 c0 -7 3 -10 7 -7 3 4 3 10 0 14 -4 3 -7 0 -7 -7z"/>
<path d="M3330 330 c0 -7 3 -10 7 -7 3 4 3 10 0 14 -4 3 -7 0 -7 -7z"/>
<path d="M3413 318 c4 -12 7 -29 7 -36 0 -8 8 -10 24 -6 17 4 27 0 34 -13 8
-14 13 -15 23 -6 13 13 -5 73 -23 73 -5 0 -4 -9 2 -20 16 -30 -15 -26 -47 6
-26 26 -26 26 -20 2z"/>
<path d="M4530 325 c7 -9 15 -13 17 -11 7 7 -7 26 -19 26 -6 0 -6 -6 2 -15z"/>
<path d="M1800 320 c20 -13 33 -13 25 0 -3 6 -14 10 -23 10 -15 0 -15 -2 -2
-10z"/>
<path d="M2303 323 c4 -3 10 -3 14 0 3 4 0 7 -7 7 -7 0 -10 -3 -7 -7z"/>
<path d="M2914 319 c-3 -6 -15 -9 -25 -6 -24 6 -24 -2 -1 -19 21 -16 36 -18
27 -4 -4 6 -1 17 5 25 7 8 10 15 7 15 -3 0 -9 -5 -13 -11z"/>
<path d="M3070 320 c0 -7 3 -10 7 -7 3 4 3 10 0 14 -4 3 -7 0 -7 -7z"/>
<path d="M3163 288 c1 -27 5 -48 9 -48 10 0 9 36 -2 70 -6 19 -8 14 -7 -22z"/>
<path d="M360 311 c0 -4 11 -6 25 -3 14 2 25 6 25 8 0 2 -11 4 -25 4 -14 0
-25 -4 -25 -9z"/>
<path d="M530 311 c0 -6 4 -13 10 -16 6 -3 7 1 4 9 -7 18 -14 21 -14 7z"/>
<path d="M3210 310 c0 -7 3 -10 7 -7 3 4 3 10 0 14 -4 3 -7 0 -7 -7z"/>
<path d="M3538 293 c12 -17 19 -33 15 -37 -3 -3 -2 -6 3 -7 5 0 23 -2 39 -4
28 -3 28 -2 8 7 -13 6 -23 14 -23 18 0 3 -14 17 -32 30 -32 23 -32 23 -10 -7z"/>
<path d="M133 303 c-18 -7 -16 -23 2 -23 8 0 15 7 15 15 0 8 -1 15 -2 14 -2 0
-9 -3 -15 -6z"/>
<path d="M160 300 c0 -6 7 -10 15 -10 8 0 15 2 15 4 0 2 -7 6 -15 10 -8 3 -15
1 -15 -4z"/>
<path d="M197 288 c-7 -26 2 -45 13 -28 6 10 14 7 32 -11 47 -48 78 -72 78
-61 0 6 -6 16 -12 22 -7 6 -24 19 -36 30 -13 10 -21 24 -17 30 3 6 3 10 -2 9
-40 -7 -60 16 -20 24 20 4 19 4 -4 6 -20 1 -28 -5 -32 -21z"/>
<path d="M275 300 c3 -5 8 -10 11 -10 2 0 4 5 4 10 0 6 -5 10 -11 10 -5 0 -7
-4 -4 -10z"/>
<path d="M474 296 c-10 -8 -16 -18 -11 -22 4 -4 7 -2 7 4 0 7 7 12 15 12 8 0
15 5 15 10 0 13 -3 13 -26 -4z"/>
<path d="M1460 300 c0 -7 3 -10 7 -7 3 4 3 10 0 14 -4 3 -7 0 -7 -7z"/>
<path d="M1670 301 c0 -5 7 -15 17 -22 15 -13 15 -12 4 9 -12 23 -21 28 -21
13z"/>
<path d="M2398 290 c12 -12 22 -23 22 -26 0 -9 -45 8 -52 20 -5 7 -8 5 -8 -5
0 -23 24 -41 44 -33 9 3 28 -2 44 -11 27 -18 27 -18 5 7 -13 13 -23 28 -23 33
0 9 -31 34 -44 35 -6 0 0 -9 12 -20z"/>
<path d="M2997 303 c-10 -9 -9 -43 1 -43 4 0 9 11 10 25 2 26 0 29 -11 18z"/>
<path d="M4930 300 c0 -7 3 -10 7 -7 3 4 3 10 0 14 -4 3 -7 0 -7 -7z"/>
<path d="M7 293 c-15 -14 -5 -23 21 -18 15 3 21 2 14 -1 -6 -3 -10 -10 -6 -15
3 -5 -4 -9 -15 -9 -12 0 -21 -4 -21 -9 0 -4 10 -6 23 -4 32 6 31 -46 -1 -60
-24 -11 -31 -32 -7 -23 19 7 19 -8 0 -24 -25 -20 -17 -30 12 -15 15 8 30 12
34 10 16 -10 17 60 1 73 -13 10 -14 16 -5 31 7 10 9 22 5 26 -4 4 -8 11 -8 16
-1 5 -2 14 -3 19 -1 11 -34 14 -44 3z m44 -136 c-10 -9 -11 -8 -5 6 3 10 9 15
12 12 3 -3 0 -11 -7 -18z"/>
<path d="M1112 280 c4 -16 85 -33 94 -18 3 4 -6 8 -21 8 -14 0 -28 6 -31 14
-8 20 -45 16 -42 -4z"/>
<path d="M1230 290 c20 -13 33 -13 25 0 -3 6 -14 10 -23 10 -15 0 -15 -2 -2
-10z"/>
<path d="M2942 286 c7 -8 15 -12 17 -11 5 6 -10 25 -20 25 -5 0 -4 -6 3 -14z"/>
<path d="M3610 290 c0 -7 3 -10 7 -7 3 4 3 10 0 14 -4 3 -7 0 -7 -7z"/>
<path d="M3640 283 c0 -9 8 -9 30 -2 38 14 38 19 0 16 -16 -1 -30 -7 -30 -14z"/>
<path d="M80 280 c0 -7 3 -10 7 -7 3 4 3 10 0 14 -4 3 -7 0 -7 -7z"/>
<path d="M1050 286 c0 -2 7 -9 15 -16 9 -7 15 -8 15 -2 0 5 -7 12 -15 16 -8 3
-15 4 -15 2z"/>
<path d="M1371 277 c-8 -11 -4 -13 24 -13 31 1 33 3 18 14 -21 15 -28 15 -42
-1z"/>
<path d="M1473 282 c-7 -4 -9 -13 -4 -21 6 -9 10 -7 14 8 3 12 4 21 4 21 -1 0
-7 -4 -14 -8z"/>
<path d="M1520 275 c0 -10 -6 -12 -17 -8 -16 6 -16 5 -4 -10 15 -19 46 -23 56
-7 3 6 -2 10 -12 10 -14 0 -15 2 -5 9 11 7 11 9 -2 14 -10 4 -16 1 -16 -8z"/>
<path d="M2246 273 c-6 -14 -5 -15 5 -6 7 7 10 15 7 18 -3 3 -9 -2 -12 -12z"/>
<path d="M1643 273 c4 -3 10 -3 14 0 3 4 0 7 -7 7 -7 0 -10 -3 -7 -7z"/>
<path d="M2315 270 c3 -5 8 -10 11 -10 2 0 4 5 4 10 0 6 -5 10 -11 10 -5 0 -7
-4 -4 -10z"/>
<path d="M2633 255 c7 -13 14 -20 15 -14 5 14 -6 39 -17 39 -5 0 -4 -11 2 -25z"/>
<path d="M3690 273 c0 -7 -8 -10 -17 -7 -11 3 -10 0 3 -7 31 -16 32 -93 0 -83
-19 6 -19 5 -7 -10 10 -11 17 -14 24 -7 7 7 15 7 24 0 10 -9 13 -7 13 9 0 11
-7 22 -15 26 -11 4 -14 13 -9 30 3 14 1 33 -5 43 -6 10 -11 13 -11 6z"/>
<path d="M364 248 c2 -22 -1 -28 -15 -28 -19 0 -32 -13 -22 -24 3 -3 12 -1 18
4 16 13 45 2 45 -17 0 -9 -6 -13 -15 -9 -8 3 -15 1 -15 -4 0 -6 7 -10 15 -10
11 0 15 -11 15 -36 0 -23 -4 -33 -11 -28 -6 3 -8 17 -5 30 4 14 2 24 -4 24 -5
0 -10 -6 -10 -14 0 -20 -29 -48 -43 -39 -6 4 -1 10 12 15 14 5 21 15 19 25 -2
10 -8 16 -13 13 -6 -3 -9 -8 -7 -12 1 -5 -2 -8 -6 -8 -10 0 -72 69 -72 79 0
11 -33 10 -48 -2 -9 -7 -12 -4 -10 14 3 22 -1 24 -52 27 -39 2 -51 -1 -40 -7
8 -6 26 -8 40 -5 25 6 25 6 2 -11 -12 -9 -20 -20 -18 -24 3 -4 -6 -14 -19 -21
-27 -14 -35 -36 -10 -26 29 11 11 -15 -60 -87 -17 -16 -23 -27 -13 -24 9 3 19
3 23 -1 4 -4 19 -8 33 -8 36 -2 36 -2 22 -19 -20 -24 0 -17 21 7 20 23 20 23
14 1 -4 -14 -2 -23 4 -23 6 0 11 5 11 10 0 11 36 50 46 50 3 0 4 -6 1 -13 -3
-8 6 -12 26 -12 22 0 31 5 33 18 4 30 13 31 20 3 3 -14 10 -26 15 -26 5 0 6
-8 3 -18 -5 -16 -5 -16 9 0 16 20 37 24 37 7 0 -8 5 -8 15 1 12 10 15 10 15
-4 0 -24 19 -19 32 9 6 14 15 25 20 25 12 0 10 -24 -4 -40 -10 -11 -9 -11 6 0
15 12 20 12 23 3 3 -7 9 -13 14 -13 17 0 9 27 -16 54 -14 15 -23 31 -20 36 7
12 45 -20 45 -37 0 -8 12 -13 29 -13 23 0 30 5 34 28 6 33 4 36 -20 24 -22
-12 -43 -5 -43 14 0 8 -4 14 -10 14 -5 0 -10 10 -10 23 0 12 -8 31 -17 42 -9
11 -14 14 -11 5 19 -57 19 -58 1 -54 -14 4 -19 16 -19 46 -1 24 -8 46 -16 52
-8 6 -18 18 -21 26 -4 8 -5 3 -3 -12z m-164 -78 c0 -5 -5 -10 -11 -10 -5 0 -7
5 -4 10 3 6 8 10 11 10 2 0 4 -4 4 -10z m37 3 c-4 -3 -10 -3 -14 0 -3 4 0 7 7
7 7 0 10 -3 7 -7z m-77 -22 c0 -5 -10 -12 -22 -16 -14 -4 -18 -8 -10 -12 19
-8 14 -26 -16 -48 -20 -14 -24 -15 -14 -2 8 9 12 22 10 29 -3 7 -17 -5 -32
-27 -15 -22 -26 -34 -24 -28 12 44 108 136 108 104z m62 -12 c-13 -5 -22 -17
-22 -29 0 -11 -7 -20 -15 -20 -21 0 -19 20 6 46 12 13 28 20 37 17 12 -5 11
-8 -6 -14z m17 -45 c3 -16 1 -17 -13 -5 -19 16 -21 34 -3 29 6 -3 14 -13 16
-24z m58 -26 c-3 -8 -6 -5 -6 6 -1 11 2 17 5 13 3 -3 4 -12 1 -19z m70 5 c-4
-27 -22 -31 -25 -5 -2 15 2 22 12 22 9 0 15 -7 13 -17z"/>
<path d="M665 260 c3 -5 8 -10 11 -10 3 0 2 5 -1 10 -3 6 -8 10 -11 10 -3 0
-2 -4 1 -10z"/>
<path d="M3780 263 c0 -7 5 -15 10 -18 6 -3 11 -16 11 -28 1 -17 2 -18 6 -5 2
10 -3 28 -11 40 -9 12 -16 17 -16 11z"/>
<path d="M432 244 c10 -10 20 -16 22 -13 3 3 -5 11 -17 18 -21 13 -21 12 -5
-5z"/>
<path d="M909 246 c9 -11 9 -15 -1 -19 -7 -3 -1 -6 14 -6 15 -1 30 -5 33 -11
9 -15 -39 -12 -71 5 -36 19 -84 19 -119 1 -25 -13 -26 -14 -7 -21 12 -3 23
-14 26 -23 3 -9 4 -4 2 11 -4 33 15 45 47 29 21 -10 21 -11 -5 -11 -16 -1 -28
-6 -28 -12 0 -5 5 -7 10 -4 6 3 10 2 10 -4 0 -12 151 -3 165 10 13 13 49 11
63 -3 9 -9 12 -8 12 5 0 9 4 17 9 17 5 0 16 3 24 6 9 3 17 -3 21 -18 4 -13 10
-18 12 -11 9 21 -16 55 -34 47 -33 -14 -75 -17 -68 -5 4 6 12 9 17 6 5 -4 9
-1 9 5 0 7 -7 9 -16 6 -9 -4 -23 -1 -30 5 -12 10 -13 9 -8 -5 3 -9 1 -16 -6
-16 -6 0 -8 -4 -5 -10 11 -17 -7 -11 -41 15 -36 28 -53 33 -35 11z m-32 -53
c-4 -3 -10 -3 -14 0 -3 4 0 7 7 7 7 0 10 -3 7 -7z"/>
<path d="M1220 249 c0 -5 -4 -7 -10 -4 -6 3 -9 -4 -8 -18 3 -32 26 -24 26 9 0
13 -2 24 -4 24 -2 0 -4 -5 -4 -11z"/>
<path d="M1977 253 c-10 -10 -8 -23 4 -23 5 0 7 5 3 11 -5 8 1 10 20 7 14 -3
26 -1 26 3 0 10 -44 12 -53 2z"/>
<path d="M2081 242 c0 -13 -5 -20 -11 -17 -21 13 -9 -12 17 -36 14 -13 22 -17
18 -9 -5 8 -12 30 -16 50 -4 23 -7 27 -8 12z"/>
<path d="M2260 251 c0 -6 4 -13 10 -16 6 -3 7 1 4 9 -7 18 -14 21 -14 7z"/>
<path d="M713 243 c4 -3 10 -3 14 0 3 4 0 7 -7 7 -7 0 -10 -3 -7 -7z"/>
<path d="M1165 240 c-19 -8 -19 -9 3 -9 12 -1 22 4 22 9 0 6 -1 10 -2 9 -2 0
-12 -4 -23 -9z"/>
<path d="M1353 243 c4 -3 10 -3 14 0 3 4 0 7 -7 7 -7 0 -10 -3 -7 -7z"/>
<path d="M2105 240 c3 -5 8 -10 11 -10 2 0 4 5 4 10 0 6 -5 10 -11 10 -5 0 -7
-4 -4 -10z"/>
<path d="M2236 235 c-3 -8 -1 -15 4 -15 6 0 10 7 10 15 0 8 -2 15 -4 15 -2 0
-6 -7 -10 -15z"/>
<path d="M2323 230 c6 -22 -3 -26 -20 -9 -7 7 -16 2 -28 -18 -40 -61 -68 -73
-100 -43 -20 19 -20 19 -19 -17 1 -21 9 -42 18 -49 9 -6 16 -19 16 -28 0 -10
5 -14 10 -11 6 3 10 -4 10 -16 0 -18 3 -20 12 -11 10 10 9 19 -5 44 -10 17
-15 33 -12 36 7 8 34 -31 29 -40 -3 -5 0 -9 5 -9 6 -1 17 -2 24 -3 6 -1 11 -8
9 -15 -1 -7 2 -10 7 -7 5 3 12 -1 15 -10 4 -9 9 -14 12 -11 3 3 -2 20 -11 37
-9 18 -12 29 -6 25 6 -3 20 -23 31 -43 12 -23 19 -30 20 -19 0 9 -14 42 -31
71 -26 46 -28 57 -18 74 16 26 59 2 59 -33 0 -12 7 -28 15 -35 8 -7 15 -21 15
-31 0 -10 4 -21 10 -24 6 -4 7 1 3 10 -3 10 0 21 7 25 11 7 10 11 -2 24 -9 8
-18 13 -21 10 -2 -3 -8 8 -12 23 -3 15 -14 37 -23 47 -11 13 -12 17 -3 11 11
-6 13 -4 8 9 -4 10 -7 26 -7 37 0 10 -5 19 -11 19 -6 0 -9 -9 -6 -20z m-36
-57 c-4 -3 -10 -3 -14 0 -3 4 0 7 7 7 7 0 10 -3 7 -7z m-8 -71 c1 -9 -6 -11
-21 -6 -35 10 -40 27 -16 48 22 18 23 18 29 -5 4 -13 7 -30 8 -37z"/>
<path d="M2481 234 c0 -11 3 -14 6 -6 3 7 2 16 -1 19 -3 4 -6 -2 -5 -13z"/>
<path d="M2525 240 c-16 -7 -17 -9 -3 -9 9 -1 20 4 23 9 7 11 7 11 -20 0z"/>
<path d="M2672 236 c7 -7 19 -11 26 -8 11 4 11 6 0 13 -23 15 -41 11 -26 -5z"/>
<path d="M2753 243 c4 -3 10 -3 14 0 3 4 0 7 -7 7 -7 0 -10 -3 -7 -7z"/>
<path d="M2780 240 c0 -7 3 -10 7 -7 3 4 3 10 0 14 -4 3 -7 0 -7 -7z"/>
<path d="M3895 240 c3 -5 8 -10 11 -10 3 0 2 5 -1 10 -3 6 -8 10 -11 10 -3 0
-2 -4 1 -10z"/>
<path d="M1940 230 c0 -7 3 -10 7 -7 3 4 3 10 0 14 -4 3 -7 0 -7 -7z"/>
<path d="M2560 233 c0 -7 9 -15 20 -18 11 -3 20 -10 20 -15 0 -14 -32 -21 -46
-9 -18 15 -17 1 1 -31 11 -19 14 -21 15 -8 0 27 37 42 49 21 14 -25 14 0 -1
32 -6 14 -17 24 -24 21 -6 -2 -17 1 -23 7 -8 8 -11 8 -11 0z"/>
<path d="M2860 231 c0 -5 9 -7 20 -4 11 3 20 7 20 9 0 2 -9 4 -20 4 -11 0 -20
-4 -20 -9z"/>
<path d="M2941 208 c1 -24 3 -27 6 -10 4 20 6 21 20 7 8 -9 18 -14 20 -11 8 7
-6 25 -28 36 -17 10 -19 7 -18 -22z"/>
<path d="M4820 230 c0 -7 3 -10 7 -7 3 4 3 10 0 14 -4 3 -7 0 -7 -7z"/>
<path d="M1257 219 c7 -7 15 -10 18 -7 3 3 -2 9 -12 12 -14 6 -15 5 -6 -5z"/>
<path d="M1415 220 c3 -5 14 -10 23 -10 15 0 15 2 2 10 -20 13 -33 13 -25 0z"/>
<path d="M1794 215 c11 -8 27 -15 37 -15 10 0 24 -16 34 -37 10 -21 24 -42 31
-48 7 -5 16 -22 19 -37 7 -26 6 -27 -18 -15 -19 9 -27 22 -32 54 -7 48 -17 53
-38 22 -11 -15 -17 -17 -22 -8 -5 7 -1 17 8 24 23 16 10 27 -14 12 -16 -10
-21 -9 -29 3 -8 12 -10 11 -10 -7 0 -13 -4 -23 -10 -23 -5 0 -10 -12 -10 -26
0 -15 -4 -23 -11 -19 -6 4 -8 13 -5 21 3 8 1 14 -4 14 -6 0 -10 7 -10 15 0 8
-4 15 -8 15 -4 0 -6 -16 -4 -35 5 -41 -16 -41 -38 1 -7 13 -17 24 -22 24 -12
0 -5 -23 12 -37 23 -19 3 -15 -27 4 -20 13 -28 14 -31 5 -2 -7 -8 -9 -14 -6
-7 4 -1 14 13 26 24 19 24 19 -1 12 -14 -4 -27 -11 -29 -16 -2 -5 -10 0 -18
11 -21 30 -59 1 -68 -52 -4 -22 -14 -41 -23 -44 -18 -7 -32 -23 -32 -37 0 -5
10 -1 23 10 30 27 70 21 62 -9 -6 -21 -5 -20 14 3 17 21 21 22 21 7 0 -10 4
-15 10 -12 5 3 7 19 3 35 -4 23 -2 30 11 30 12 0 16 -9 16 -36 0 -21 4 -33 10
-29 6 4 8 23 5 43 -5 37 -5 37 10 7 8 -16 14 -37 15 -45 0 -12 3 -12 14 3 18
23 29 22 21 -3 -4 -11 -2 -20 4 -20 6 0 11 14 11 30 0 28 2 30 26 24 17 -4 29
-2 35 7 6 10 9 8 9 -8 0 -18 -6 -23 -25 -23 -39 0 -29 -15 10 -16 26 0 34 3
31 13 -3 7 -1 13 5 13 14 0 28 43 18 55 -4 6 -4 17 1 25 9 14 16 -13 11 -43 0
-4 4 -7 9 -7 6 0 10 9 10 20 0 18 3 19 22 9 19 -10 20 -9 14 7 -5 14 -4 16 4
8 13 -13 3 -44 -14 -44 -8 0 -11 -11 -8 -30 4 -28 5 -29 19 -13 13 17 14 16 7
-6 -4 -17 -3 -22 7 -19 9 3 13 16 11 33 -3 25 -2 26 13 11 9 -9 13 -21 9 -28
-4 -7 5 0 20 15 25 27 26 30 12 58 -8 16 -11 29 -6 29 5 0 10 8 12 18 3 13 9
9 26 -18 21 -34 21 -34 15 5 -6 38 -6 38 29 12 38 -29 52 -34 46 -15 -7 19 18
39 38 31 11 -4 15 -2 11 4 -11 17 -56 23 -50 6 3 -7 0 -13 -6 -13 -6 0 -11 4
-11 9 0 5 -9 7 -20 4 -14 -4 -21 1 -26 22 -5 19 -9 23 -15 14 -4 -7 -5 -17 -3
-21 3 -4 1 -8 -5 -8 -5 0 -12 6 -14 13 -4 7 -6 6 -6 -5 -1 -21 -29 -14 -91 20
-59 34 -90 43 -56 17z m-259 -119 c-7 -44 -25 -56 -25 -16 0 10 -6 21 -12 24
-9 3 -5 11 11 26 31 26 34 22 26 -34z m-38 -23 c-4 -3 -7 0 -7 7 0 7 3 10 7 7
3 -4 3 -10 0 -14z m220 0 c-4 -3 -10 -3 -14 0 -3 4 0 7 7 7 7 0 10 -3 7 -7z
m-72 -13 c3 -5 1 -10 -4 -10 -6 0 -11 5 -11 10 0 6 2 10 4 10 3 0 8 -4 11 -10z"/>
<path d="M4865 220 c3 -5 8 -10 11 -10 2 0 4 5 4 10 0 6 -5 10 -11 10 -5 0 -7
-4 -4 -10z"/>
<path d="M1518 207 c15 -7 26 -7 33 0 6 6 -1 10 -23 10 -30 0 -30 -1 -10 -10z"/>
<path d="M3467 200 c3 -11 9 -17 14 -14 14 8 10 34 -5 34 -9 0 -12 -7 -9 -20z"/>
<path d="M3913 201 c1 -11 7 -23 14 -25 17 -7 16 4 -2 28 -13 18 -14 18 -12
-3z"/>
<path d="M4842 190 c0 -19 2 -27 5 -17 2 9 2 25 0 35 -3 9 -5 1 -5 -18z"/>
<path d="M462 180 c3 -30 42 -92 51 -80 1 3 -10 30 -25 60 -27 53 -28 54 -26
20z"/>
<path d="M525 201 c-3 -5 2 -12 11 -15 8 -3 12 -11 9 -17 -5 -8 -10 -8 -18 0
-16 16 -32 14 -18 -2 6 -8 8 -17 4 -20 -3 -4 3 -7 15 -7 23 0 26 -9 22 -82 -1
-23 3 -38 10 -38 8 0 9 10 5 29 -7 31 9 51 19 25 4 -9 9 -14 12 -12 8 9 -24
78 -36 78 -8 0 -9 10 -5 29 6 28 -17 52 -30 32z"/>
<path d="M2241 194 c0 -11 3 -14 6 -6 3 7 2 16 -1 19 -3 4 -6 -2 -5 -13z"/>
<path d="M2506 182 c10 -18 20 -28 22 -23 2 6 -7 21 -19 33 -22 23 -22 23 -3
-10z"/>
<path d="M2797 197 c4 -6 -2 -8 -16 -4 -16 4 -21 2 -17 -8 7 -20 -5 -26 -21
-9 -18 18 -31 10 -15 -9 7 -8 10 -16 8 -18 -3 -2 10 -4 27 -4 35 0 57 14 50
31 -2 7 0 15 6 19 6 3 11 1 11 -4 0 -6 5 -11 11 -11 24 0 1 25 -24 26 -15 1
-24 -3 -20 -9z m0 -34 c-4 -3 -7 0 -7 7 0 7 3 10 7 7 3 -4 3 -10 0 -14z"/>
<path d="M579 183 c-12 -16 -12 -17 2 -5 9 7 24 10 33 6 9 -3 16 -1 16 5 0 17
-36 13 -51 -6z"/>
<path d="M1153 193 c4 -3 10 -3 14 0 3 4 0 7 -7 7 -7 0 -10 -3 -7 -7z"/>
<path d="M1610 190 c0 -5 5 -10 10 -10 6 0 10 5 10 10 0 6 -4 10 -10 10 -5 0
-10 -4 -10 -10z"/>
<path d="M2216 185 c-9 -26 -7 -32 5 -12 6 10 9 21 6 23 -2 3 -7 -2 -11 -11z"/>
<path d="M2370 190 c-8 -5 -12 -12 -9 -15 4 -3 12 1 19 10 14 17 11 19 -10 5z"/>
<path d="M2861 171 c1 -16 3 -19 6 -9 2 9 14 18 26 20 20 3 19 4 -5 9 -25 6
-28 4 -27 -20z"/>
<path d="M3583 194 c9 -9 67 -11 67 -2 0 4 -16 8 -37 8 -20 0 -34 -3 -30 -6z"/>
<path d="M1224 177 c2 -19 23 -43 30 -36 3 2 -4 15 -14 29 -14 19 -18 21 -16
7z"/>
<path d="M1675 180 c3 -5 8 -10 11 -10 3 0 2 5 -1 10 -3 6 -8 10 -11 10 -3 0
-2 -4 1 -10z"/>
<path d="M1720 180 c0 -7 3 -10 7 -7 3 4 3 10 0 14 -4 3 -7 0 -7 -7z"/>
<path d="M3773 183 c4 -3 10 -3 14 0 3 4 0 7 -7 7 -7 0 -10 -3 -7 -7z"/>
<path d="M1345 170 c3 -5 8 -10 11 -10 3 0 2 5 -1 10 -3 6 -8 10 -11 10 -3 0
-2 -4 1 -10z"/>
<path d="M2463 143 c1 -24 5 -43 10 -43 9 0 8 27 -3 60 -7 20 -8 17 -7 -17z"/>
<path d="M1005 160 c-3 -5 -1 -10 4 -10 6 0 11 5 11 10 0 6 -2 10 -4 10 -3 0
-8 -4 -11 -10z"/>
<path d="M2880 160 c0 -7 3 -10 7 -7 3 4 3 10 0 14 -4 3 -7 0 -7 -7z"/>
<path d="M2952 158 c3 -7 13 -15 24 -17 16 -3 17 -1 5 13 -16 19 -34 21 -29 4z"/>
<path d="M3060 160 c0 -7 3 -10 7 -7 3 4 3 10 0 14 -4 3 -7 0 -7 -7z"/>
<path d="M3445 150 c-10 -11 -13 -20 -7 -20 6 0 13 4 16 9 3 5 15 7 26 4 12
-3 20 0 20 6 0 7 -5 9 -11 5 -6 -3 -14 -1 -18 5 -5 8 -13 5 -26 -9z"/>
<path d="M3910 160 c0 -7 3 -10 7 -7 3 4 3 10 0 14 -4 3 -7 0 -7 -7z"/>
<path d="M4510 160 c0 -7 3 -10 7 -7 3 4 3 10 0 14 -4 3 -7 0 -7 -7z"/>
<path d="M4566 155 c-9 -7 -16 -20 -16 -29 0 -9 -8 -16 -17 -16 -24 0 -5 -15
37 -29 23 -8 36 -8 38 -1 6 17 23 11 44 -15 11 -14 28 -25 39 -25 10 0 19 -4
19 -10 0 -5 5 -10 10 -10 6 0 10 6 10 14 0 8 7 16 15 20 9 3 15 0 15 -10 0
-10 6 -14 15 -10 8 3 15 0 15 -6 0 -6 6 -6 16 3 15 12 14 14 -5 23 -12 5 -20
15 -17 23 8 20 -15 16 -40 -8 -28 -26 -44 -18 -45 24 -1 32 -1 32 -11 -2 -7
-25 -12 -31 -18 -21 -5 8 -6 18 -4 22 6 9 -12 11 -70 8 -36 -2 -38 0 -23 14 8
9 20 16 26 16 6 0 11 8 11 18 0 21 -20 24 -44 7z"/>
<path d="M1060 150 c0 -7 3 -10 7 -7 3 4 3 10 0 14 -4 3 -7 0 -7 -7z"/>
<path d="M1277 153 c-4 -6 0 -17 9 -24 9 -7 20 -24 26 -38 7 -21 11 -23 18
-11 9 14 14 -11 13 -57 -1 -7 3 -13 7 -13 14 0 20 31 10 50 -13 24 -13 33 0
25 6 -3 10 -1 10 5 0 6 -13 13 -30 17 -16 3 -30 9 -30 12 0 16 -27 43 -33 34z"/>
<path d="M1410 150 c0 -7 3 -10 7 -7 3 4 3 10 0 14 -4 3 -7 0 -7 -7z"/>
<path d="M2913 153 c4 -3 10 -3 14 0 3 4 0 7 -7 7 -7 0 -10 -3 -7 -7z"/>
<path d="M3315 150 c-3 -6 -11 -8 -16 -5 -5 4 -9 1 -9 -4 0 -6 6 -11 14 -11 8
0 17 -6 19 -12 3 -7 6 -4 6 7 1 17 3 18 12 5 8 -12 10 -12 7 4 -3 22 -23 32
-33 16z"/>
<path d="M4734 146 c-27 -10 -30 -14 -23 -34 5 -13 7 -28 4 -32 -3 -4 4 -6 15
-3 19 5 19 7 5 23 -20 23 -19 27 10 34 14 4 25 11 25 16 0 6 -1 9 -2 9 -2 -1
-17 -7 -34 -13z"/>
<path d="M4794 144 c3 -9 6 -18 6 -21 0 -3 7 0 15 7 21 18 19 30 -6 30 -15 0
-19 -4 -15 -16z"/>
<path d="M640 137 c-30 -15 -38 -47 -16 -59 9 -5 16 -18 16 -29 0 -11 -4 -17
-10 -14 -5 3 -10 -2 -10 -12 0 -16 1 -16 17 0 16 15 18 15 35 0 17 -15 18 -15
18 3 0 11 -14 27 -32 37 -22 12 -28 21 -21 28 24 24 55 0 76 -56 3 -5 8 -7 12
-3 4 4 2 15 -5 23 -10 12 -10 21 -1 42 6 14 10 26 9 27 -2 1 -12 8 -23 16 -17
12 -18 12 -7 0 14 -16 16 -50 3 -50 -5 0 -11 14 -14 30 -7 34 -11 35 -47 17z"/>
<path d="M1110 146 c0 -9 40 -13 46 -5 3 5 -6 9 -20 9 -14 0 -26 -2 -26 -4z"/>
<path d="M1343 139 c-27 -10 -31 -23 -5 -17 26 7 42 -16 44 -67 2 -45 3 -45
22 -26 17 18 18 23 5 53 -8 18 -13 37 -11 41 1 5 -2 6 -7 3 -5 -4 -13 0 -18 8
-6 9 -15 11 -30 5z"/>
<path d="M2434 83 c-1 -38 1 -59 3 -48 3 11 8 34 13 52 5 21 4 37 -4 48 -9 12
-11 2 -12 -52z"/>
<path d="M2825 140 c-3 -5 -1 -10 4 -10 6 0 11 5 11 10 0 6 -2 10 -4 10 -3 0
-8 -4 -11 -10z"/>
<path d="M3220 139 c0 -12 24 -17 45 -9 17 6 15 8 -13 12 -17 2 -32 1 -32 -3z"/>
<path d="M3810 141 c0 -5 5 -13 10 -16 6 -3 10 -2 10 4 0 5 -4 13 -10 16 -5 3
-10 2 -10 -4z"/>
<path d="M778 120 c12 -12 27 -20 32 -18 15 5 -3 25 -30 33 -25 7 -25 7 -2
-15z"/>
<path d="M834 129 c-7 -12 12 -29 34 -29 10 0 10 4 0 20 -14 23 -24 25 -34 9z"/>
<path d="M984 126 c-3 -9 -14 -16 -23 -17 -10 0 -11 -2 -3 -6 21 -8 13 -25
-10 -18 -17 6 -20 4 -15 -9 4 -9 2 -16 -3 -16 -6 0 -10 -5 -10 -11 0 -6 7 -9
15 -5 18 7 20 -5 3 -22 -9 -9 -9 -12 0 -12 14 0 31 31 25 46 -2 7 15 9 53 6
41 -3 59 -1 65 9 7 11 9 10 9 -3 0 -10 -7 -18 -15 -18 -8 0 -15 -9 -15 -20 0
-11 5 -20 10 -20 6 0 10 7 10 15 0 20 17 19 28 -1 9 -17 32 -12 32 7 0 6 -5 7
-10 4 -6 -3 -15 5 -20 19 -6 14 -15 38 -20 52 -11 28 -20 27 -24 -3 -2 -10
-11 -18 -22 -18 -10 0 -25 -4 -31 -8 -22 -14 -33 1 -22 30 5 14 7 28 5 31 -3
3 -8 -3 -12 -12z"/>
<path d="M1205 130 c-3 -5 1 -10 9 -10 20 0 21 -29 1 -36 -19 -8 -19 -15 0
-40 14 -18 14 -18 8 4 -3 13 -1 22 6 22 6 0 11 -8 11 -17 0 -14 2 -15 9 -4 7
11 10 9 16 -9 6 -20 9 -21 16 -8 6 10 18 14 31 12 15 -3 9 2 -14 16 -35 19
-69 60 -51 60 10 0 -19 20 -29 20 -4 0 -10 -4 -13 -10z"/>
<path d="M2526 131 c-4 -6 -12 -9 -17 -6 -5 4 -9 -3 -9 -14 0 -12 7 -21 15
-21 9 0 12 6 9 15 -4 8 -2 15 4 15 6 0 12 -6 15 -12 2 -7 7 -10 11 -7 3 3 0
14 -8 24 -9 13 -15 15 -20 6z"/>
<path d="M923 123 c4 -3 10 -3 14 0 3 4 0 7 -7 7 -7 0 -10 -3 -7 -7z"/>
<path d="M1120 115 c0 -9 9 -15 21 -15 16 0 19 -5 15 -22 -6 -23 -6 -23 5 0 7
12 16 22 21 22 4 0 8 4 8 10 0 5 -6 7 -14 4 -8 -3 -24 -1 -35 6 -17 9 -21 8
-21 -5z"/>
<path d="M2120 120 c0 -7 3 -10 7 -7 3 4 3 10 0 14 -4 3 -7 0 -7 -7z"/>
<path d="M2678 105 c2 -14 8 -25 12 -25 10 0 1 38 -10 45 -4 2 -5 -7 -2 -20z"/>
<path d="M2955 117 c-8 -19 -2 -31 13 -26 5 2 6 13 2 24 -7 19 -8 19 -15 2z"/>
<path d="M3000 120 c0 -7 3 -10 7 -7 3 4 3 10 0 14 -4 3 -7 0 -7 -7z"/>
<path d="M3960 120 c0 -6 11 -32 25 -58 30 -56 34 -34 5 26 -20 42 -30 52 -30
32z"/>
<path d="M4333 123 c-7 -2 -13 -17 -14 -31 0 -27 0 -27 -11 -4 -6 12 -15 22
-20 22 -6 0 -1 -15 9 -32 12 -20 26 -32 36 -30 20 3 21 -2 6 -31 -9 -19 -8
-19 9 2 21 26 101 43 86 19 -5 -7 -2 -9 9 -5 10 4 17 0 20 -11 2 -9 4 -1 3 19
-1 36 -1 36 -31 24 -31 -13 -55 -10 -55 6 0 5 7 9 15 9 8 0 15 8 14 18 0 10
-3 12 -6 5 -2 -7 -10 -13 -16 -13 -6 0 -19 -8 -30 -17 -19 -18 -19 -17 -15 20
2 20 4 37 3 36 0 0 -6 -3 -12 -6z"/>
<path d="M4465 120 c-7 -12 2 -30 16 -30 5 0 9 9 9 20 0 21 -15 27 -25 10z"/>
<path d="M44 106 c-3 -9 -10 -14 -14 -11 -4 3 -13 -1 -19 -9 -9 -11 -6 -12 13
-9 23 5 43 30 31 41 -2 3 -7 -3 -11 -12z"/>
<path d="M1420 110 c0 -7 3 -10 7 -7 3 4 3 10 0 14 -4 3 -7 0 -7 -7z"/>
<path d="M2326 112 c-4 -7 3 -30 16 -53 12 -22 24 -35 26 -29 2 6 -1 17 -8 25
-6 7 -15 26 -19 41 -5 19 -10 24 -15 16z"/>
<path d="M3873 98 c6 -16 17 -28 22 -28 6 0 18 -14 28 -31 10 -18 20 -29 23
-26 4 3 -3 18 -14 34 -11 15 -19 31 -18 35 0 3 -3 10 -8 15 -5 5 -6 3 -2 -4
12 -21 -4 -15 -25 10 -19 22 -19 22 -6 -5z"/>
<path d="M4248 109 c6 -7 12 -21 12 -30 0 -10 -6 -20 -12 -22 -8 -3 -6 -6 5
-6 12 -1 17 7 17 28 0 18 -6 31 -17 36 -15 5 -16 4 -5 -6z"/>
<path d="M2420 100 c0 -7 3 -10 7 -7 3 4 3 10 0 14 -4 3 -7 0 -7 -7z"/>
<path d="M2846 94 c-8 -22 1 -31 16 -16 9 9 9 15 1 23 -7 7 -12 5 -17 -7z"/>
<path d="M3157 104 c-13 -13 -7 -24 13 -24 11 0 20 5 20 11 0 5 -4 8 -9 5 -5
-4 -11 -1 -13 5 -2 5 -7 7 -11 3z"/>
<path d="M1440 90 c0 -5 5 -10 10 -10 6 0 10 5 10 10 0 6 -4 10 -10 10 -5 0
-10 -4 -10 -10z"/>
<path d="M2813 93 c4 -3 10 -3 14 0 3 4 0 7 -7 7 -7 0 -10 -3 -7 -7z"/>
<path d="M2886 84 c-5 -14 -4 -15 9 -4 17 14 19 20 6 20 -5 0 -12 -7 -15 -16z"/>
<path d="M881 69 c9 -17 7 -25 -13 -46 -23 -26 -23 -26 5 -8 16 10 27 13 27 6
0 -6 4 -11 8 -11 12 0 1 64 -12 72 -20 14 -27 8 -15 -13z"/>
<path d="M2782 65 c0 -16 2 -22 5 -12 2 9 2 23 0 30 -3 6 -5 -1 -5 -18z"/>
<path d="M3564 78 c-4 -7 -3 -8 4 -4 7 4 12 9 12 12 0 8 -9 4 -16 -8z"/>
<path d="M4040 80 c0 -7 3 -10 7 -7 3 4 3 10 0 14 -4 3 -7 0 -7 -7z"/>
<path d="M4120 79 c0 -5 5 -7 10 -4 6 3 10 8 10 11 0 2 -4 4 -10 4 -5 0 -10
-5 -10 -11z"/>
<path d="M720 73 c1 -4 12 -21 26 -38 26 -30 26 -30 10 2 -15 31 -36 52 -36
36z"/>
<path d="M2121 53 c-25 -24 -55 -33 -33 -11 22 22 12 32 -10 11 -13 -11 -29
-18 -37 -16 -7 3 -17 -1 -22 -8 -15 -24 -10 -28 18 -14 19 10 32 11 45 4 14
-7 23 -6 34 6 18 17 34 20 34 5 0 -5 5 -10 10 -10 14 0 12 22 -3 40 -10 13
-15 12 -36 -7z"/>
<path d="M3858 50 c9 -16 21 -30 25 -30 5 0 -1 14 -13 30 -27 39 -34 39 -12 0z"/>
<path d="M4497 65 c-4 -10 -3 -23 3 -29 7 -7 10 -6 10 2 0 9 5 10 18 3 15 -8
18 -5 20 15 2 21 -1 23 -17 14 -14 -7 -21 -6 -23 2 -3 7 -7 4 -11 -7z"/>
<path d="M1980 60 c0 -7 3 -10 7 -7 3 4 3 10 0 14 -4 3 -7 0 -7 -7z"/>
<path d="M2500 60 c0 -5 5 -10 11 -10 5 0 7 5 4 10 -3 6 -8 10 -11 10 -2 0 -4
-4 -4 -10z"/>
<path d="M770 50 c0 -5 7 -7 15 -4 8 4 15 8 15 10 0 2 -7 4 -15 4 -8 0 -15 -4
-15 -10z"/>
<path d="M820 60 c-6 -19 -4 -60 2 -60 14 0 18 19 9 42 -6 12 -10 21 -11 18z"/>
<path d="M840 50 c0 -7 3 -10 7 -7 3 4 3 10 0 14 -4 3 -7 0 -7 -7z"/>
<path d="M2880 46 c0 -9 5 -16 10 -16 6 0 10 4 10 9 0 6 -4 13 -10 16 -5 3
-10 -1 -10 -9z"/>
<path d="M2974 49 c-3 -5 13 -8 35 -6 21 1 37 5 35 9 -6 9 -64 7 -70 -3z"/>
<path d="M3095 50 c3 -5 8 -10 11 -10 2 0 4 5 4 10 0 6 -5 10 -11 10 -5 0 -7
-4 -4 -10z"/>
<path d="M3130 50 c0 -7 3 -10 7 -7 3 4 3 10 0 14 -4 3 -7 0 -7 -7z"/>
<path d="M3260 50 c0 -7 3 -10 7 -7 3 4 3 10 0 14 -4 3 -7 0 -7 -7z"/>
<path d="M3290 50 c0 -5 5 -10 11 -10 5 0 7 5 4 10 -3 6 -8 10 -11 10 -2 0 -4
-4 -4 -10z"/>
<path d="M3748 53 c7 -3 16 -2 19 1 4 3 -2 6 -13 5 -11 0 -14 -3 -6 -6z"/>
<path d="M4065 50 c3 -5 1 -18 -4 -29 -11 -19 -10 -19 22 -3 24 12 28 17 15
20 -10 2 -18 8 -18 13 0 5 -5 9 -11 9 -5 0 -7 -4 -4 -10z"/>
<path d="M1182 30 c0 -14 2 -19 5 -12 2 6 2 18 0 25 -3 6 -5 1 -5 -13z"/>
<path d="M2721 34 c0 -11 3 -14 6 -6 3 7 2 16 -1 19 -3 4 -6 -2 -5 -13z"/>
<path d="M3063 43 c4 -3 10 -3 14 0 3 4 0 7 -7 7 -7 0 -10 -3 -7 -7z"/>
<path d="M4040 40 c0 -7 3 -10 7 -7 3 4 3 10 0 14 -4 3 -7 0 -7 -7z"/>
<path d="M4580 38 c0 -4 7 -8 15 -8 8 0 15 4 15 8 0 5 -7 9 -15 9 -8 0 -15 -4
-15 -9z"/>
<path d="M581 24 c0 -11 3 -14 6 -6 3 7 2 16 -1 19 -3 4 -6 -2 -5 -13z"/>
<path d="M986 24 c-9 -24 -7 -29 5 -17 6 6 18 9 25 6 8 -3 14 -1 14 5 0 5 -7
13 -16 16 -21 8 -21 8 -28 -10z"/>
<path d="M1942 20 c0 -14 2 -19 5 -12 2 6 2 18 0 25 -3 6 -5 1 -5 -13z"/>
<path d="M2180 31 c0 -5 5 -13 10 -16 6 -3 10 -2 10 4 0 5 -4 13 -10 16 -5 3
-10 2 -10 -4z"/>
<path d="M2560 30 c0 -7 3 -10 7 -7 3 4 3 10 0 14 -4 3 -7 0 -7 -7z"/>
<path d="M2803 33 c4 -3 10 -3 14 0 3 4 0 7 -7 7 -7 0 -10 -3 -7 -7z"/>
<path d="M3382 20 c0 -14 2 -19 5 -12 2 6 2 18 0 25 -3 6 -5 1 -5 -13z"/>
<path d="M4120 30 c0 -7 3 -10 7 -7 3 4 3 10 0 14 -4 3 -7 0 -7 -7z"/>
<path d="M1467 23 c-4 -3 -7 -11 -7 -17 0 -6 5 -5 12 2 6 6 9 14 7 17 -3 3 -9
2 -12 -2z"/>
<path d="M3096 21 c-4 -7 -5 -15 -2 -18 9 -9 19 4 14 18 -4 11 -6 11 -12 0z"/>
<path d="M4269 13 c-13 -16 -12 -17 4 -4 9 7 17 15 17 17 0 8 -8 3 -21 -13z"/>
<path d="M4657 23 c-4 -3 -7 -11 -7 -17 0 -6 5 -5 12 2 6 6 9 14 7 17 -3 3 -9
2 -12 -2z"/>
<path d="M5175 20 c-3 -5 1 -10 10 -10 9 0 13 5 10 10 -3 6 -8 10 -10 10 -2 0
-7 -4 -10 -10z"/>
<path d="M15 10 c-3 -5 -1 -10 4 -10 6 0 11 5 11 10 0 6 -2 10 -4 10 -3 0 -8
-4 -11 -10z"/>
<path d="M55 10 c-3 -5 -1 -10 4 -10 6 0 11 5 11 10 0 6 -2 10 -4 10 -3 0 -8
-4 -11 -10z"/>
<path d="M170 10 c0 -5 7 -7 15 -4 8 4 15 8 15 10 0 2 -7 4 -15 4 -8 0 -15 -4
-15 -10z"/>
<path d="M263 13 c4 -3 10 -3 14 0 3 4 0 7 -7 7 -7 0 -10 -3 -7 -7z"/>
<path d="M730 10 c0 -7 3 -10 7 -7 3 4 3 10 0 14 -4 3 -7 0 -7 -7z"/>
<path d="M4534 8 c-4 -7 -3 -8 4 -4 12 7 16 16 8 16 -3 0 -8 -5 -12 -12z"/>
<path d="M4823 13 c4 -3 10 -3 14 0 3 4 0 7 -7 7 -7 0 -10 -3 -7 -7z"/>
</g>
</svg>
