<?xml version="1.0" standalone="no"?>
<!DOCTYPE svg PUBLIC "-//W3C//DTD SVG 20010904//EN"
 "http://www.w3.org/TR/2001/REC-SVG-20010904/DTD/svg10.dtd">
<svg version="1.0" xmlns="http://www.w3.org/2000/svg"
 width="344.000000pt" height="256.000000pt" viewBox="0 0 344.000000 256.000000"
 preserveAspectRatio="xMidYMid meet">
<metadata>
Created by potrace 1.16, written by Peter Selinger 2001-2019
</metadata>
<g transform="translate(0.000000,256.000000) scale(0.100000,-0.100000)"
fill="#000000" stroke="none">
<path d="M2471 2408 c-7 -84 -14 -171 -16 -193 -4 -37 -4 -38 5 -10 14 48 41
338 32 347 -5 5 -14 -60 -21 -144z"/>
<path d="M2544 2543 c0 -10 -4 -49 -7 -88 -4 -38 -11 -124 -17 -190 -9 -113
-25 -287 -51 -576 -7 -69 -10 -132 -7 -140 6 -17 28 149 28 209 0 23 9 128 20
234 21 207 26 263 35 403 3 50 8 107 11 128 3 20 2 37 -3 37 -5 0 -9 -8 -9
-17z"/>
<path d="M2996 2552 c-3 -5 11 -9 32 -8 34 1 37 -1 34 -24 -2 -14 -9 -29 -15
-35 -8 -6 -11 -36 -9 -82 3 -67 5 -74 33 -94 38 -27 111 -46 171 -45 25 1 44
-2 41 -6 -7 -13 32 -9 45 4 10 10 17 10 32 0 13 -8 21 -8 26 -1 3 6 14 9 24 6
23 -6 36 22 18 35 -10 8 -10 11 0 15 23 9 12 20 -29 27 -49 8 -47 16 5 18 33
1 54 18 23 18 -8 0 -14 6 -14 14 0 8 6 12 14 9 7 -3 13 0 13 6 0 6 -7 11 -15
11 -8 0 -15 7 -15 16 0 10 6 14 15 10 8 -3 15 0 15 7 0 7 -13 11 -32 10 -45
-2 -45 -2 -25 -17 10 -8 15 -20 11 -30 -8 -20 -24 -21 -24 0 0 11 -6 14 -21 9
-21 -7 -21 -7 1 15 26 26 22 33 -15 24 -22 -5 -26 -11 -22 -30 2 -15 -1 -24
-8 -24 -14 0 -13 36 2 51 6 6 38 14 70 18 54 6 58 8 60 34 2 26 -12 38 -19 16
-5 -14 -38 0 -38 17 0 10 -13 14 -45 14 -28 0 -45 -4 -45 -12 0 -9 -3 -9 -12
0 -16 16 -68 15 -68 0 0 -8 -3 -9 -8 -3 -9 13 -198 19 -206 7z m239 -12 c3 -5
1 -10 -4 -10 -6 0 -11 5 -11 10 0 6 2 10 4 10 3 0 8 -4 11 -10z m-45 -10 c0
-5 3 -15 6 -24 3 -9 1 -16 -5 -16 -6 0 -11 7 -11 15 0 8 -3 14 -7 14 -19 -3
-34 2 -29 9 6 11 46 13 46 2z m75 -9 c-3 -6 -11 -11 -17 -11 -6 0 -6 6 2 15
14 17 26 13 15 -4z m52 12 c-4 -3 -10 -3 -14 0 -3 4 0 7 7 7 7 0 10 -3 7 -7z
m40 0 c-4 -3 -10 -3 -14 0 -3 4 0 7 7 7 7 0 10 -3 7 -7z m-70 -30 c-4 -3 -7 0
-7 7 0 7 3 10 7 7 3 -4 3 -10 0 -14z m103 1 c0 -8 -5 -12 -10 -9 -6 4 -8 11
-5 16 9 14 15 11 15 -7z m-280 -20 c0 -8 -5 -12 -10 -9 -6 4 -8 11 -5 16 9 14
15 11 15 -7z m115 -14 c-3 -5 -13 -10 -21 -10 -8 0 -12 5 -9 10 3 6 13 10 21
10 8 0 12 -4 9 -10z m40 -10 c-3 -5 -12 -10 -18 -10 -7 0 -6 4 3 10 19 12 23
12 15 0z m-148 -17 c-4 -3 -7 0 -7 7 0 7 3 10 7 7 3 -4 3 -10 0 -14z m-60 -25
c-3 -8 -6 -5 -6 6 -1 11 2 17 5 13 3 -3 4 -12 1 -19z m175 -3 c-2 -14 -8 -25
-13 -25 -5 0 -9 11 -9 25 0 14 6 25 14 25 9 0 12 -8 8 -25z m48 5 c0 -5 -4
-10 -9 -10 -6 0 -13 5 -16 10 -3 6 1 10 9 10 9 0 16 -4 16 -10z m65 -30 c-3
-5 -12 -10 -18 -10 -7 0 -6 4 3 10 19 12 23 12 15 0z m-182 -7 c-7 -2 -19 -2
-25 0 -7 3 -2 5 12 5 14 0 19 -2 13 -5z m113 -51 c-11 -10 -14 3 -8 33 7 30 7
30 10 2 2 -16 1 -31 -2 -35z m124 48 c0 -5 -7 -10 -16 -10 -8 0 -12 5 -9 10 3
6 10 10 16 10 5 0 9 -4 9 -10z m-277 -20 c3 -11 1 -20 -4 -20 -5 0 -9 9 -9 20
0 11 2 20 4 20 2 0 6 -9 9 -20z m105 -4 c12 0 22 -3 22 -7 0 -10 -51 -12 -75
-3 -13 5 -14 9 -4 15 7 4 18 4 24 0 5 -4 20 -6 33 -5z m115 -1 c-3 -9 -8 -14
-10 -11 -3 3 -2 9 2 15 9 16 15 13 8 -4z m-189 -10 c3 -8 1 -15 -4 -15 -6 0
-10 7 -10 15 0 8 2 15 4 15 2 0 6 -7 10 -15z m166 11 c0 -2 -7 -6 -15 -10 -8
-3 -15 -1 -15 4 0 6 7 10 15 10 8 0 15 -2 15 -4z m-140 -46 c0 -5 -5 -10 -11
-10 -5 0 -7 5 -4 10 3 6 8 10 11 10 2 0 4 -4 4 -10z m118 -10 c-7 -11 -14 -16
-16 -10 -2 5 -11 10 -20 11 -10 1 -7 4 8 9 39 12 41 11 28 -10z m39 13 c-4 -3
-10 -3 -14 0 -3 4 0 7 7 7 7 0 10 -3 7 -7z m73 -17 c14 -18 14 -18 -7 -6 -12
8 -19 18 -16 23 3 4 6 7 7 5 1 -2 8 -12 16 -22z m-83 -13 c-4 -3 -7 0 -7 7 0
7 3 10 7 7 3 -4 3 -10 0 -14z m-130 0 c-4 -3 -10 -3 -14 0 -3 4 0 7 7 7 7 0
10 -3 7 -7z m50 0 c-4 -3 -10 -3 -14 0 -3 4 0 7 7 7 7 0 10 -3 7 -7z"/>
<path d="M3395 2550 c-3 -5 -1 -10 4 -10 6 0 11 5 11 10 0 6 -2 10 -4 10 -3 0
-8 -4 -11 -10z"/>
<path d="M310 2546 c0 -2 7 -7 16 -10 8 -3 12 -2 9 4 -6 10 -25 14 -25 6z"/>
<path d="M499 2537 c-16 -12 -15 -22 2 -132 28 -180 33 -165 -58 -160 -229 13
-443 16 -443 6 0 -7 50 -12 143 -13 142 -2 142 -2 25 -5 -185 -5 -144 -23 50
-22 153 1 163 2 117 13 -46 11 -39 12 75 8 115 -4 127 -6 151 -28 34 -32 46
-31 16 2 -23 24 -23 29 -11 53 8 14 13 44 12 66 -1 40 -1 40 -7 -5 -6 -40 -8
-33 -19 65 -8 61 -16 117 -18 125 -3 9 2 8 11 -4 12 -16 15 -16 15 -4 0 13
-30 49 -41 48 -2 0 -11 -6 -20 -13z m25 -29 c3 -13 8 -61 11 -108 3 -47 8
-101 10 -120 4 -34 4 -35 -4 -5 -5 17 -15 68 -21 115 -6 47 -14 97 -16 113 -7
33 13 37 20 5z"/>
<path d="M650 2504 c0 -12 7 -27 15 -34 19 -16 19 -3 0 30 -13 24 -14 24 -15
4z"/>
<path d="M2986 2507 c3 -10 9 -15 12 -12 3 3 0 11 -7 18 -10 9 -11 8 -5 -6z"/>
<path d="M620 2490 c0 -7 3 -10 7 -7 3 4 3 10 0 14 -4 3 -7 0 -7 -7z"/>
<path d="M691 2475 c0 -11 4 -29 9 -40 8 -18 9 -18 9 5 0 14 -4 32 -9 40 -8
12 -10 12 -9 -5z"/>
<path d="M631 2434 c0 -11 3 -14 6 -6 3 7 2 16 -1 19 -3 4 -6 -2 -5 -13z"/>
<path d="M560 2430 c0 -7 3 -10 7 -7 3 4 3 10 0 14 -4 3 -7 0 -7 -7z"/>
<path d="M560 2390 c0 -7 3 -10 7 -7 3 4 3 10 0 14 -4 3 -7 0 -7 -7z"/>
<path d="M641 2384 c0 -11 3 -14 6 -6 3 7 2 16 -1 19 -3 4 -6 -2 -5 -13z"/>
<path d="M2412 2355 c0 -16 2 -22 5 -12 2 9 2 23 0 30 -3 6 -5 -1 -5 -18z"/>
<path d="M2686 2228 c-3 -24 -10 -104 -16 -178 -6 -74 -13 -151 -16 -170 -2
-19 -9 -82 -14 -140 -5 -58 -14 -148 -20 -200 -6 -52 -15 -147 -20 -210 -12
-147 -38 -380 -49 -447 -7 -35 -30 -86 -72 -155 -34 -57 -68 -114 -76 -128
-12 -24 -13 -22 -13 25 0 28 4 91 9 140 5 50 12 126 16 170 3 44 13 150 21
235 8 85 16 173 18 194 2 27 11 45 27 56 23 18 23 18 4 59 -35 80 -65 67 -65
-29 0 -21 -4 -50 -10 -64 -8 -23 -7 -26 11 -26 19 0 20 -4 15 -52 -11 -102
-36 -375 -51 -573 -9 -110 -20 -224 -24 -253 -5 -29 -5 -54 -2 -56 3 -2 105
-35 226 -74 121 -39 346 -111 500 -161 297 -95 335 -107 335 -97 0 3 -87 33
-192 67 -106 33 -283 90 -393 125 -110 36 -236 76 -280 90 -131 42 -162 55
-162 70 0 8 4 14 8 14 5 0 26 37 47 82 22 46 49 91 60 101 11 11 26 40 33 66
12 48 12 48 64 35 29 -6 75 -19 102 -28 62 -21 287 -79 428 -111 61 -14 128
-29 150 -34 52 -13 57 -6 8 9 -21 7 -41 14 -45 16 -3 2 3 43 14 91 31 140 48
226 47 248 0 11 -9 -18 -20 -65 -10 -47 -28 -127 -40 -177 -11 -51 -25 -93
-31 -93 -5 0 -38 7 -72 16 -33 9 -68 17 -76 19 -39 8 -132 34 -137 39 -3 2 1
36 8 75 11 60 17 71 34 72 17 1 17 2 3 6 -20 5 -23 38 -9 93 15 53 17 85 6 85
-6 0 -9 -4 -7 -9 10 -29 -23 -148 -42 -156 -17 -7 -18 -9 -3 -9 20 -1 21 -15
5 -94 -12 -59 -12 -59 -58 -52 -77 12 -84 19 -76 84 16 130 14 179 -2 66 -19
-135 -15 -131 -106 -98 -22 8 -52 17 -66 19 -47 10 -50 18 -44 138 2 61 9 147
14 191 13 107 48 453 60 590 15 179 21 238 26 270 14 105 29 325 21 325 -3 0
-8 -19 -11 -42z m-161 -1485 c-9 -21 -27 -49 -41 -64 -13 -14 -24 -31 -24 -38
0 -7 -11 -26 -25 -43 -30 -35 -34 -22 -5 15 11 14 20 28 20 31 0 4 11 23 23
44 13 20 31 49 41 65 24 39 29 34 11 -10z m-128 -220 c-3 -10 -5 -4 -5 12 0
17 2 24 5 18 2 -7 2 -21 0 -30z m40 15 c-3 -8 -6 -5 -6 6 -1 11 2 17 5 13 3
-3 4 -12 1 -19z"/>
<path d="M2436 2238 c-3 -13 -10 -52 -16 -88 -6 -36 -14 -73 -17 -84 -3 -12
-1 -16 6 -12 6 4 11 16 11 27 0 13 4 18 12 13 7 -4 8 -3 4 4 -4 6 -4 23 0 37
5 20 9 23 15 13 7 -10 9 -9 9 4 0 9 -5 20 -11 24 -7 4 -9 21 -5 45 7 41 0 55
-8 17z"/>
<path d="M307 2143 c18 -2 50 -2 70 0 21 2 7 4 -32 4 -38 0 -55 -2 -38 -4z"/>
<path d="M433 2143 c9 -2 25 -2 35 0 9 3 1 5 -18 5 -19 0 -27 -2 -17 -5z"/>
<path d="M548 2143 c7 -3 16 -2 19 1 4 3 -2 6 -13 5 -11 0 -14 -3 -6 -6z"/>
<path d="M583 2143 c4 -3 10 -3 14 0 3 4 0 7 -7 7 -7 0 -10 -3 -7 -7z"/>
<path d="M2445 2080 c-4 -28 -5 -54 -2 -56 3 -3 8 18 12 46 4 28 5 54 2 56 -3
3 -8 -18 -12 -46z"/>
<path d="M385 2089 c-97 -5 -80 -6 90 -6 116 0 221 4 235 8 27 9 -132 8 -325
-2z"/>
<path d="M7 2073 c7 -2 19 -2 25 0 7 3 2 5 -12 5 -14 0 -19 -2 -13 -5z"/>
<path d="M2406 2018 c-9 -48 -21 -217 -14 -210 4 4 10 36 13 72 3 36 8 86 11
113 5 48 -2 65 -10 25z"/>
<path d="M3120 2010 c0 -5 5 -10 10 -10 6 0 10 5 10 10 0 6 -4 10 -10 10 -5 0
-10 -4 -10 -10z"/>
<path d="M3305 2000 c-3 -5 -1 -10 4 -10 6 0 11 5 11 10 0 6 -2 10 -4 10 -3 0
-8 -4 -11 -10z"/>
<path d="M2440 1990 c0 -7 3 -10 7 -7 3 4 3 10 0 14 -4 3 -7 0 -7 -7z"/>
<path d="M3120 1980 c0 -7 3 -10 7 -7 3 4 3 10 0 14 -4 3 -7 0 -7 -7z"/>
<path d="M3303 1973 c4 -3 10 -3 14 0 3 4 0 7 -7 7 -7 0 -10 -3 -7 -7z"/>
<path d="M0 1885 c0 -8 4 -15 8 -15 5 0 9 7 9 15 0 8 -4 15 -9 15 -4 0 -8 -7
-8 -15z"/>
<path d="M2431 1854 c0 -11 3 -14 6 -6 3 7 2 16 -1 19 -3 4 -6 -2 -5 -13z"/>
<path d="M0 1824 c0 -23 42 -45 56 -31 13 12 -8 45 -31 50 -21 3 -25 0 -25
-19z"/>
<path d="M19 1772 c11 -8 11 -10 0 -14 -22 -8 -5 -18 19 -11 29 7 23 27 -9 31
-17 2 -20 0 -10 -6z"/>
<path d="M2421 1754 c0 -11 3 -14 6 -6 3 7 2 16 -1 19 -3 4 -6 -2 -5 -13z"/>
<path d="M2415 1700 c-3 -5 -12 -7 -20 -4 -17 7 -20 -13 -34 -201 -29 -381
-26 -343 -41 -520 -7 -77 -14 -142 -16 -144 -12 -13 -222 51 -235 71 -11 18 3
57 27 73 13 8 24 21 24 28 0 8 -2 9 -8 1 -4 -6 -18 -15 -32 -19 -25 -7 -25 -7
0 21 14 16 31 33 38 37 6 4 12 20 12 35 0 18 15 45 43 77 52 59 63 88 88 220
21 112 20 115 -17 86 -15 -11 -34 -21 -43 -21 -14 0 -14 -2 -1 -9 8 -6 18 -7
22 -5 10 7 11 9 -11 -66 -19 -67 -46 -127 -86 -190 -13 -19 -26 -53 -30 -74
-18 -105 -171 -156 -319 -106 -67 22 -84 40 -71 79 11 36 109 89 178 98 53 7
57 15 28 71 -25 50 -61 167 -62 206 -1 24 -3 26 -6 8 -7 -33 24 -160 52 -214
26 -50 22 -58 -28 -58 -12 0 -48 -13 -79 -28 -64 -32 -60 -36 -72 68 -2 19 -3
3 -3 -35 1 -55 -3 -79 -19 -106 -18 -31 -19 -38 -8 -54 35 -48 18 -73 -116
-166 -47 -32 -107 -77 -135 -99 -27 -22 -71 -52 -97 -67 -48 -28 -48 -28 -42
-133 3 -58 10 -141 14 -185 9 -94 -1 -117 -45 -97 -33 15 -32 65 2 87 20 14
32 45 17 45 -3 0 -24 -16 -47 -35 -218 -182 -389 -323 -421 -347 -21 -15 -32
-28 -24 -28 8 0 53 33 100 73 221 187 299 248 308 242 6 -4 10 -3 9 2 -3 20 2
27 10 14 15 -23 -1 -43 -101 -128 -51 -42 -114 -97 -140 -122 -60 -56 -78 -68
-108 -74 -14 -3 -9 -4 10 -2 43 4 61 8 78 18 11 8 16 2 13 -15 0 -5 10 -8 24
-8 14 0 25 3 25 8 0 4 27 29 61 56 60 49 60 49 150 3 50 -26 95 -47 102 -47
18 0 61 42 172 165 55 61 105 115 111 120 40 36 256 277 252 280 -3 3 -54 -48
-113 -112 -276 -301 -257 -288 -352 -243 -100 47 -102 39 32 157 95 83 327
309 285 277 -14 -10 -57 -49 -96 -86 -70 -69 -70 -69 -118 -47 -26 11 -50 19
-52 16 -3 -3 15 -13 40 -22 25 -10 46 -21 46 -24 0 -4 -47 -48 -104 -98 -104
-91 -104 -91 -110 -61 -11 53 -7 101 7 95 87 -36 92 -38 73 -22 -11 8 -25 15
-32 15 -17 0 -64 40 -63 53 0 11 88 85 194 164 23 17 45 39 49 49 7 18 6 18
-11 1 -10 -9 -49 -42 -86 -72 -65 -52 -70 -54 -90 -40 -12 8 -28 15 -37 14 -8
0 1 -7 20 -16 35 -15 35 -15 0 -44 -19 -16 -36 -26 -37 -22 -1 5 -3 38 -6 74
-4 65 -4 66 27 84 17 10 65 44 106 75 133 100 229 162 241 154 7 -4 9 -3 6 3
-5 7 10 11 43 10 27 -1 50 -4 51 -7 0 -3 2 -14 4 -24 2 -11 -1 -29 -8 -40 -6
-12 -12 -23 -13 -26 -2 -12 -16 -46 -23 -60 -5 -9 -2 -24 7 -38 41 -63 174
-84 231 -36 17 14 37 27 43 28 18 2 68 47 68 60 0 6 -7 3 -14 -6 -17 -23 -32
-23 -40 -1 -5 12 5 28 31 54 38 37 38 37 101 24 35 -7 81 -20 102 -29 37 -14
40 -14 49 2 9 17 25 215 36 432 4 63 10 147 15 185 5 39 12 111 16 160 4 50 9
84 11 78 8 -23 33 -14 33 12 0 26 -5 31 -15 15z m-180 -363 c-20 -81 -38 -122
-58 -130 -8 -3 -5 11 10 42 13 25 30 77 40 115 9 38 19 64 21 57 2 -6 -4 -44
-13 -84z m-355 -381 c30 0 72 3 94 7 39 8 39 8 -7 -49 -25 -32 -44 -61 -41
-64 6 -5 20 10 81 85 32 40 32 40 33 -8 0 -41 -3 -49 -24 -57 -33 -12 -42 -54
-16 -80 29 -29 25 -43 -20 -84 -32 -29 -48 -36 -80 -36 -46 0 -116 26 -124 45
-5 13 51 127 65 133 4 2 -4 14 -17 28 -14 13 -31 39 -39 57 -8 17 -14 25 -15
15 -1 -43 -60 -27 -60 17 0 32 0 32 58 12 31 -10 82 -20 112 -21z m164 -117
c-11 -13 -21 -16 -27 -10 -7 7 -2 17 14 30 29 23 39 8 13 -20z m-240 6 c-4 -8
-8 -15 -10 -15 -2 0 -4 7 -4 15 0 8 4 15 10 15 5 0 7 -7 4 -15z m-401 -630
c79 -36 79 -36 31 -88 -54 -59 -93 -97 -99 -97 -2 0 -45 21 -96 47 -92 46 -92
46 -29 105 34 32 61 61 58 63 -2 2 -31 -20 -64 -50 -32 -30 -65 -55 -72 -55
-7 0 14 23 45 50 32 28 63 55 68 60 18 16 79 3 158 -35z m-319 -105 c9 7 19
10 23 6 7 -6 -95 -105 -109 -106 -21 -1 -4 31 27 50 34 21 46 40 24 40 -5 0
-7 5 -3 11 4 8 9 7 14 -2 7 -10 11 -10 24 1z"/>
<path d="M2010 890 c0 -7 3 -10 7 -7 3 4 3 10 0 14 -4 3 -7 0 -7 -7z"/>
<path d="M1950 810 c0 -5 5 -10 11 -10 5 0 7 5 4 10 -3 6 -8 10 -11 10 -2 0
-4 -4 -4 -10z"/>
<path d="M2411 1634 c0 -11 3 -14 6 -6 3 7 2 16 -1 19 -3 4 -6 -2 -5 -13z"/>
<path d="M3055 1580 c-3 -5 -1 -10 4 -10 6 0 11 5 11 10 0 6 -2 10 -4 10 -3 0
-8 -4 -11 -10z"/>
<path d="M3118 1573 c7 -3 16 -2 19 1 4 3 -2 6 -13 5 -11 0 -14 -3 -6 -6z"/>
<path d="M3225 1504 c-3 -22 -10 -57 -15 -79 -5 -22 -11 -67 -15 -100 -4 -33
-9 -69 -12 -80 -3 -13 -2 -17 4 -10 6 6 16 46 22 90 7 44 17 108 23 143 6 35
8 65 5 68 -3 4 -8 -11 -12 -32z"/>
<path d="M2397 1490 c-4 -25 -10 -55 -14 -67 -3 -13 -1 -23 5 -23 12 0 26 75
20 111 -3 17 -6 11 -11 -21z"/>
<path d="M3052 1510 c0 -14 2 -19 5 -12 2 6 2 18 0 25 -3 6 -5 1 -5 -13z"/>
<path d="M2490 1491 c0 -6 4 -13 10 -16 6 -3 7 1 4 9 -7 18 -14 21 -14 7z"/>
<path d="M1373 1369 c-13 -5 -23 -6 -23 -3 0 3 -10 -2 -21 -10 -12 -8 -28 -12
-35 -9 -8 3 -14 1 -14 -5 0 -13 25 -22 36 -13 30 27 78 31 102 9 23 -22 24
-22 14 -2 -17 33 -35 43 -59 33z"/>
<path d="M3030 1355 c0 -14 2 -25 4 -25 2 0 6 11 8 25 3 14 1 25 -3 25 -5 0
-9 -11 -9 -25z"/>
<path d="M2860 1320 c0 -7 3 -10 7 -7 3 4 3 10 0 14 -4 3 -7 0 -7 -7z"/>
<path d="M810 1294 c-36 -14 -77 -29 -92 -34 -32 -10 -67 -29 -53 -30 10 0 42
11 145 50 72 26 81 25 105 -12 21 -34 10 -30 363 -113 42 -10 22 -25 -140
-104 -414 -201 -628 -305 -681 -332 -58 -29 -58 -29 -126 6 -85 42 -87 48
-128 310 -4 29 -3 31 79 61 66 25 85 28 91 18 4 -7 13 -11 20 -9 6 3 18 1 26
-4 14 -9 12 -20 -14 -83 -9 -23 41 -25 70 -4 18 13 17 14 -7 47 -33 45 -41 60
-31 58 25 -4 63 2 58 10 -7 12 -78 9 -87 -4 -5 -6 -11 -6 -19 2 -9 9 -5 13 17
18 52 12 99 27 111 37 24 19 30 -64 8 -114 -6 -16 -3 -17 26 -12 48 9 51 15
29 59 -11 22 -20 50 -20 63 0 13 -4 20 -10 17 -5 -3 -10 1 -10 10 0 11 5 15
15 11 10 -3 15 1 15 11 0 27 48 -24 55 -59 8 -35 30 -31 30 5 -1 28 9 36 18
14 7 -18 -3 -67 -14 -67 -5 0 -9 -4 -9 -10 0 -13 67 -13 75 0 3 5 -5 26 -19
46 -28 41 -26 60 5 44 22 -12 25 -5 7 14 -8 7 -23 9 -38 6 -18 -5 -32 -1 -50
14 -14 11 -19 14 -12 6 6 -8 12 -19 12 -24 -1 -6 -14 4 -29 22 -32 37 -38 35
-83 -30 -9 -13 -36 -30 -60 -37 -23 -8 -90 -31 -148 -53 -58 -22 -111 -40
-117 -41 -7 0 -13 -1 -13 -2 0 -20 53 -278 62 -298 12 -31 128 -97 170 -97 31
0 118 41 111 53 -3 6 -1 7 4 4 12 -8 73 20 73 33 0 5 7 7 15 4 8 -4 17 1 21
10 3 9 11 13 17 9 5 -3 15 0 21 8 18 22 56 40 68 33 7 -4 8 -3 4 4 -5 8 1 11
16 9 14 -1 22 3 20 11 -1 6 4 13 10 14 7 0 18 2 23 2 6 1 22 10 37 20 15 10
33 19 40 20 7 1 42 17 78 36 273 141 338 169 351 149 6 -9 7 -1 3 21 -3 19 -7
47 -9 63 -4 23 -1 27 18 27 28 0 107 58 107 78 0 11 -3 12 -14 3 -10 -8 -23
-8 -53 3 -36 13 -40 12 -51 -5 -11 -16 -9 -19 9 -19 12 0 17 4 13 11 -7 12 34
3 49 -11 9 -8 -38 -50 -55 -50 -5 0 -22 15 -39 32 -20 22 -29 27 -29 16 0 -8
7 -21 15 -28 8 -7 15 -25 15 -41 0 -38 -6 -37 -200 9 -153 37 -155 38 -179 75
-28 43 -27 43 -111 11z m-100 -174 c0 -5 -4 -10 -10 -10 -5 0 -10 5 -10 10 0
6 5 10 10 10 6 0 10 -4 10 -10z m-130 -40 c0 -5 -7 -10 -16 -10 -8 0 -12 5 -9
10 3 6 10 10 16 10 5 0 9 -4 9 -10z m-121 -60 c-6 -5 -19 -6 -27 -2 -13 4 -12
7 4 12 23 9 41 1 23 -10z m318 -167 c-4 -3 -10 -3 -14 0 -3 4 0 7 7 7 7 0 10
-3 7 -7z"/>
<path d="M2382 1290 c0 -14 2 -19 5 -12 2 6 2 18 0 25 -3 6 -5 1 -5 -13z"/>
<path d="M3010 1250 c-7 -33 -18 -60 -24 -60 -7 0 -6 -3 2 -8 9 -6 10 -21 2
-62 -10 -55 -13 -86 -6 -79 6 6 47 261 43 265 -2 3 -10 -23 -17 -56z"/>
<path d="M2848 1270 c-3 -16 -1 -30 4 -30 4 0 8 14 8 30 0 17 -2 30 -4 30 -2
0 -6 -13 -8 -30z"/>
<path d="M2681 1241 c-10 -6 -9 -10 3 -14 8 -3 18 -2 21 3 8 13 -9 20 -24 11z"/>
<path d="M1998 1203 c7 -3 16 -2 19 1 4 3 -2 6 -13 5 -11 0 -14 -3 -6 -6z"/>
<path d="M2373 1145 c0 -27 2 -38 4 -22 2 15 2 37 0 50 -2 12 -4 0 -4 -28z"/>
<path d="M2683 1140 c0 -25 2 -35 4 -22 2 12 2 32 0 45 -2 12 -4 2 -4 -23z"/>
<path d="M3063 1173 c9 -2 23 -2 30 0 6 3 -1 5 -18 5 -16 0 -22 -2 -12 -5z"/>
<path d="M3123 1163 c4 -3 10 -3 14 0 3 4 0 7 -7 7 -7 0 -10 -3 -7 -7z"/>
<path d="M2832 1125 c0 -16 2 -22 5 -12 2 9 2 23 0 30 -3 6 -5 -1 -5 -18z"/>
<path d="M798 1093 c7 -3 16 -2 19 1 4 3 -2 6 -13 5 -11 0 -14 -3 -6 -6z"/>
<path d="M2141 1084 c0 -11 3 -14 6 -6 3 7 2 16 -1 19 -3 4 -6 -2 -5 -13z"/>
<path d="M965 1080 c3 -5 8 -10 11 -10 3 0 2 5 -1 10 -3 6 -8 10 -11 10 -3 0
-2 -4 1 -10z"/>
<path d="M2366 1059 c-6 -31 -34 -345 -37 -400 -1 -21 -2 -20 -9 6 -4 17 -8
22 -9 13 0 -10 -6 -18 -12 -18 -5 0 -8 -3 -6 -7 3 -5 1 -55 -3 -113 -4 -59 -4
-109 1 -114 5 -6 9 -20 9 -33 0 -13 4 -23 10 -23 5 0 7 7 4 15 -4 10 0 15 15
15 12 0 21 5 21 10 0 6 -7 10 -15 10 -13 0 -15 10 -10 58 6 57 30 331 45 512
8 97 6 129 -4 69z m-52 -536 c-4 -54 -9 -89 -12 -79 -5 25 8 189 15 182 3 -3
2 -49 -3 -103z"/>
<path d="M2673 1055 c0 -22 2 -30 4 -17 2 12 2 30 0 40 -3 9 -5 -1 -4 -23z"/>
<path d="M3152 1060 c0 -14 2 -19 5 -12 2 6 2 18 0 25 -3 6 -5 1 -5 -13z"/>
<path d="M2630 1066 c0 -2 7 -6 15 -10 8 -3 15 -1 15 4 0 6 -7 10 -15 10 -8 0
-15 -2 -15 -4z"/>
<path d="M2820 1030 c0 -7 3 -10 7 -7 3 4 3 10 0 14 -4 3 -7 0 -7 -7z"/>
<path d="M3131 960 c-7 -41 -17 -93 -23 -115 -10 -41 -12 -50 -22 -145 -5 -54
-5 -53 10 15 9 39 20 71 24 73 5 2 6 10 3 17 -3 8 3 57 12 109 9 52 15 101 13
108 -3 7 -11 -21 -17 -62z"/>
<path d="M2656 938 c-3 -40 -8 -95 -11 -123 -4 -45 -4 -46 5 -15 10 40 25 210
18 210 -3 0 -8 -33 -12 -72z"/>
<path d="M2814 995 c-3 -8 -4 -20 -2 -27 3 -7 7 -1 10 15 6 29 1 36 -8 12z"/>
<path d="M3035 990 c19 -8 83 -14 74 -6 -2 2 -24 6 -49 9 -30 4 -38 3 -25 -3z"/>
<path d="M1270 943 c-8 -4 -44 -24 -80 -46 -70 -43 -331 -194 -505 -292 -142
-80 -232 -135 -223 -135 10 0 268 142 323 178 22 14 103 61 180 105 203 115
205 116 244 143 36 24 36 24 42 -13 6 -38 6 -38 8 1 0 24 8 44 19 52 18 14 16
16 -8 7z"/>
<path d="M2733 873 c4 -3 10 -3 14 0 3 4 0 7 -7 7 -7 0 -10 -3 -7 -7z"/>
<path d="M2828 853 c6 -2 18 -2 25 0 6 3 1 5 -13 5 -14 0 -19 -2 -12 -5z"/>
<path d="M2100 831 c0 -15 -4 -19 -17 -14 -10 4 -14 2 -10 -4 4 -6 0 -16 -8
-23 -8 -7 -15 -17 -15 -23 0 -5 8 -3 18 6 10 10 23 17 29 17 13 0 23 49 12 56
-5 3 -9 -4 -9 -15z"/>
<path d="M2883 843 c4 -3 10 -3 14 0 3 4 0 7 -7 7 -7 0 -10 -3 -7 -7z"/>
<path d="M2513 833 c4 -3 10 -3 14 0 3 4 0 7 -7 7 -7 0 -10 -3 -7 -7z"/>
<path d="M3008 813 c7 -3 16 -2 19 1 4 3 -2 6 -13 5 -11 0 -14 -3 -6 -6z"/>
<path d="M1720 800 c0 -7 3 -10 7 -7 3 4 3 10 0 14 -4 3 -7 0 -7 -7z"/>
<path d="M3048 803 c6 -2 18 -2 25 0 6 3 1 5 -13 5 -14 0 -19 -2 -12 -5z"/>
<path d="M1292 765 c0 -16 2 -22 5 -12 2 9 2 23 0 30 -3 6 -5 -1 -5 -18z"/>
<path d="M3175 775 c22 -8 49 -13 60 -13 11 0 2 6 -20 13 -22 8 -49 13 -60 13
-11 0 -2 -6 20 -13z"/>
<path d="M1132 768 c-15 -15 -16 -48 -1 -48 6 0 9 -9 6 -20 -3 -11 -2 -20 1
-20 10 1 42 68 41 88 0 13 -3 11 -9 -5 -5 -13 -14 -23 -20 -23 -14 0 -13 13 2
28 7 7 8 12 2 12 -5 0 -15 -5 -22 -12z"/>
<path d="M2570 731 c0 -6 5 -13 10 -16 6 -3 10 1 10 9 0 9 -4 16 -10 16 -5 0
-10 -4 -10 -9z"/>
<path d="M245 695 c4 -22 11 -47 16 -55 6 -10 7 -1 3 25 -4 22 -11 47 -16 55
-6 10 -7 1 -3 -25z"/>
<path d="M1292 705 c0 -16 2 -22 5 -12 2 9 2 23 0 30 -3 6 -5 -1 -5 -18z"/>
<path d="M1420 690 c8 -5 20 -10 25 -10 6 0 3 5 -5 10 -8 5 -19 10 -25 10 -5
0 -3 -5 5 -10z"/>
<path d="M2136 656 c-14 -19 -32 -40 -39 -48 -7 -7 -47 -58 -89 -113 -163
-213 -193 -252 -247 -320 -30 -38 -56 -72 -58 -74 -1 -2 -42 13 -90 33 -127
53 -126 44 2 -15 174 -79 273 -119 300 -119 25 0 72 59 144 180 64 109 58 106
132 77 74 -30 309 -114 356 -128 32 -10 32 -10 12 -66 -10 -31 -17 -58 -14
-61 5 -6 24 41 32 81 7 35 6 35 148 -18 108 -41 181 -57 161 -37 -4 4 -13 7
-19 7 -11 0 -12 53 -1 64 2 2 35 -7 74 -20 53 -18 66 -26 53 -32 -14 -6 -13
-6 5 -3 12 2 48 -5 80 -16 31 -11 84 -22 117 -24 55 -3 57 -2 15 5 -43 7 -165
47 -655 216 -121 42 -258 87 -305 101 -47 14 -95 32 -107 40 -30 19 -36 18
-28 -6 13 -42 -14 -98 -138 -280 -44 -64 -50 -70 -75 -64 -35 9 -175 63 -184
72 -4 4 21 41 55 84 34 42 104 130 154 197 93 120 93 120 149 101 32 -11 64
-20 73 -19 9 0 -13 11 -49 24 -41 14 -64 27 -62 36 3 11 65 91 100 127 14 16
35 52 29 52 -3 0 -16 -15 -31 -34z m107 -341 c86 -28 87 -28 87 -61 0 -34 0
-34 -87 -3 -90 32 -113 49 -113 82 0 11 5 17 13 14 6 -2 51 -17 100 -32z m153
-51 c13 -3 21 -11 17 -17 -4 -6 0 -8 10 -4 9 3 40 -3 69 -14 29 -11 61 -22 71
-26 20 -6 24 -63 5 -63 -15 0 -176 60 -200 75 -24 15 -37 71 -14 62 10 -4 29
-10 42 -13z m339 -115 c123 -41 123 -41 113 -73 -6 -17 -12 -32 -13 -34 -3 -4
-218 79 -228 88 -13 12 -18 60 -6 60 6 0 66 -19 134 -41z"/>
<path d="M2560 160 c0 -7 3 -10 7 -7 3 4 3 10 0 14 -4 3 -7 0 -7 -7z"/>
<path d="M2534 619 c-20 -41 -45 -87 -56 -102 -11 -16 -18 -30 -16 -33 6 -5
58 76 92 144 15 30 25 56 22 59 -2 3 -21 -28 -42 -68z"/>
<path d="M280 677 c0 -5 11 -57 25 -115 50 -217 115 -544 110 -553 -4 -5 1 -9
10 -9 11 0 15 6 11 18 -2 9 -16 73 -31 142 -14 69 -35 163 -45 210 -10 47 -28
130 -40 185 -19 87 -39 147 -40 122z"/>
<path d="M2759 633 c-11 -35 -20 -48 -33 -47 -16 2 -16 0 -2 -15 9 -10 13 -27
10 -41 -4 -23 -4 -24 5 -4 5 12 15 25 21 29 9 5 9 9 1 14 -7 5 -4 23 9 59 11
29 16 52 12 52 -5 0 -15 -21 -23 -47z"/>
<path d="M1545 650 c3 -4 25 -15 50 -24 25 -8 43 -11 40 -6 -3 4 -25 15 -50
24 -25 8 -43 11 -40 6z"/>
<path d="M2005 620 c11 -5 27 -9 35 -9 9 0 8 4 -5 9 -11 5 -27 9 -35 9 -9 0
-8 -4 5 -9z"/>
<path d="M2967 613 c-9 -28 -59 -255 -64 -283 -14 -91 35 86 68 249 9 44 6 69
-4 34z"/>
<path d="M2248 603 c-25 -29 -91 -136 -79 -129 16 10 104 136 99 142 -3 2 -12
-4 -20 -13z"/>
<path d="M1132 574 c-3 -40 17 -45 49 -13 24 24 22 27 -18 38 -28 8 -29 7 -31
-25z m46 4 c-6 -18 -28 -21 -28 -4 0 9 7 16 16 16 9 0 14 -5 12 -12z"/>
<path d="M170 570 c-8 -5 -10 -10 -5 -10 6 0 17 5 25 10 8 5 11 10 5 10 -5 0
-17 -5 -25 -10z"/>
<path d="M3177 566 c-9 -23 -20 -192 -13 -184 8 6 27 190 22 196 -2 1 -6 -4
-9 -12z"/>
<path d="M113 548 c-37 -18 -36 -40 12 -230 49 -197 59 -228 75 -228 6 0 5 9
-3 23 -7 12 -22 58 -31 102 -10 44 -29 119 -42 167 -32 116 -31 143 4 162 31
17 19 20 -15 4z"/>
<path d="M800 553 c-39 -11 -60 -28 -60 -49 0 -39 58 -37 79 4 11 23 0 50 -19
45z m10 -27 c0 -16 -19 -25 -37 -19 -19 7 -16 21 5 26 29 8 32 7 32 -7z"/>
<path d="M2351 534 c0 -11 3 -14 6 -6 3 7 2 16 -1 19 -3 4 -6 -2 -5 -13z"/>
<path d="M137 527 c-4 -10 2 -13 19 -9 13 2 21 8 18 13 -8 14 -31 11 -37 -4z"/>
<path d="M230 531 c0 -5 6 -11 13 -14 26 -10 -12 -29 -60 -30 -48 -1 -48 -1
-45 -37 2 -19 7 -44 12 -55 5 -11 10 -25 12 -32 2 -9 11 -8 35 3 29 14 31 18
22 42 -12 31 24 79 40 53 5 -7 14 -10 20 -7 17 11 13 44 -9 66 -21 21 -40 26
-40 11z m-5 -61 c-3 -5 -10 -10 -16 -10 -5 0 -9 5 -9 10 0 6 7 10 16 10 8 0
12 -4 9 -10z"/>
<path d="M1926 521 c9 -9 83 -27 74 -18 -3 3 -23 10 -44 16 -22 5 -35 6 -30 2z"/>
<path d="M430 500 c6 -11 13 -20 16 -20 2 0 0 9 -6 20 -6 11 -13 20 -16 20 -2
0 0 -9 6 -20z"/>
<path d="M2800 500 c-12 -7 -7 -12 20 -24 37 -15 57 -8 47 18 -7 18 -44 21
-67 6z m45 -10 c8 -13 -5 -13 -25 0 -13 8 -13 10 2 10 9 0 20 -4 23 -10z"/>
<path d="M624 468 c-19 -23 -19 -23 4 -4 21 18 27 26 19 26 -2 0 -12 -10 -23
-22z"/>
<path d="M2880 480 c0 -7 3 -10 7 -7 3 4 3 10 0 14 -4 3 -7 0 -7 -7z"/>
<path d="M1155 446 c-21 -15 -15 -46 9 -46 17 0 48 39 40 52 -8 12 -28 10 -49
-6z m35 -5 c0 -12 -20 -25 -27 -18 -7 7 6 27 18 27 5 0 9 -4 9 -9z"/>
<path d="M235 439 c-4 -6 -5 -13 -2 -16 7 -7 27 6 27 18 0 12 -17 12 -25 -2z"/>
<path d="M445 400 c13 -116 74 -415 81 -395 2 6 -17 107 -41 225 -25 118 -42
195 -40 170z"/>
<path d="M1783 423 c4 -3 10 -3 14 0 3 4 0 7 -7 7 -7 0 -10 -3 -7 -7z"/>
<path d="M1848 399 c24 -11 46 -18 49 -15 6 6 -24 19 -67 30 -14 3 -5 -4 18
-15z"/>
<path d="M2695 410 c-3 -5 -1 -10 4 -10 6 0 11 5 11 10 0 6 -2 10 -4 10 -3 0
-8 -4 -11 -10z"/>
<path d="M562 365 c0 -16 2 -22 5 -12 2 9 2 23 0 30 -3 6 -5 -1 -5 -18z"/>
<path d="M1530 356 c14 -7 36 -16 50 -20 14 -3 7 3 -15 13 -45 22 -73 27 -35
7z"/>
<path d="M1952 365 c2 -3 38 -16 79 -30 40 -14 69 -21 63 -15 -5 5 -36 19 -68
30 -58 20 -84 25 -74 15z"/>
<path d="M1026 295 c3 -33 8 -62 10 -64 10 -10 9 8 -3 64 -12 60 -12 60 -7 0z"/>
<path d="M225 323 c-29 -6 -65 -25 -65 -35 0 -5 4 -7 9 -4 5 3 11 -7 13 -22 3
-15 9 -36 13 -46 6 -15 5 -17 -5 -11 -9 5 -11 4 -6 -3 9 -15 46 -16 46 -2 0 6
6 10 14 10 24 0 26 27 4 55 -16 21 -18 28 -8 41 15 17 12 22 -15 17z"/>
<path d="M572 315 c-1 -11 5 -49 13 -85 7 -36 13 -54 14 -40 0 14 -6 52 -13
85 -8 33 -14 51 -14 40z"/>
<path d="M1690 295 c0 -5 52 -28 91 -40 13 -4 22 -5 19 -2 -8 8 -110 47 -110
42z"/>
<path d="M2553 293 c4 -3 10 -3 14 0 3 4 0 7 -7 7 -7 0 -10 -3 -7 -7z"/>
<path d="M2581 286 c6 -6 224 -76 235 -75 11 1 -216 79 -230 79 -5 0 -7 -2 -5
-4z"/>
<path d="M270 264 c0 -17 17 -36 24 -26 3 5 -1 15 -9 22 -8 7 -15 9 -15 4z"/>
<path d="M3150 250 c0 -7 3 -10 7 -7 3 4 3 10 0 14 -4 3 -7 0 -7 -7z"/>
<path d="M1846 231 c15 -13 167 -71 172 -66 3 3 3 6 1 8 -10 8 -182 66 -173
58z"/>
<path d="M2831 206 c7 -7 160 -56 173 -55 6 0 -27 13 -74 29 -82 28 -108 35
-99 26z"/>
<path d="M925 190 c-3 -5 -2 -10 4 -10 5 0 13 5 16 10 3 6 2 10 -4 10 -5 0
-13 -4 -16 -10z"/>
<path d="M225 182 c-20 -15 -16 -34 7 -30 13 2 23 9 23 17 0 17 -16 24 -30 13z"/>
<path d="M2294 128 c-16 -34 -39 -77 -51 -95 -14 -21 -18 -33 -10 -33 7 0 18
13 25 30 15 34 30 37 73 14 17 -8 36 -13 42 -11 6 2 -12 12 -41 22 -52 19 -52
19 -22 72 32 57 34 63 22 63 -5 0 -22 -28 -38 -62z"/>
<path d="M291 144 c0 -11 3 -14 6 -6 3 7 2 16 -1 19 -3 4 -6 -2 -5 -13z"/>
<path d="M602 130 c0 -19 2 -27 5 -17 2 9 2 25 0 35 -3 9 -5 1 -5 -18z"/>
<path d="M2060 151 c0 -7 99 -45 180 -68 43 -12 -27 20 -79 37 -33 10 -70 24
-81 30 -12 6 -20 7 -20 1z"/>
<path d="M3023 143 c4 -3 10 -3 14 0 3 4 0 7 -7 7 -7 0 -10 -3 -7 -7z"/>
<path d="M3080 126 c42 -17 58 -20 45 -7 -6 5 -26 12 -45 15 -35 6 -35 6 0 -8z"/>
<path d="M243 123 c4 -3 10 -3 14 0 3 4 0 7 -7 7 -7 0 -10 -3 -7 -7z"/>
<path d="M3250 111 c19 -11 44 -20 55 -20 15 0 12 3 -11 13 -56 25 -82 28 -44
7z"/>
<path d="M3140 105 c0 -2 10 -10 23 -16 20 -11 21 -11 8 4 -13 16 -31 23 -31
12z"/>
<path d="M3333 83 c4 -3 10 -3 14 0 3 4 0 7 -7 7 -7 0 -10 -3 -7 -7z"/>
<path d="M610 70 c0 -7 3 -10 7 -7 3 4 3 10 0 14 -4 3 -7 0 -7 -7z"/>
<path d="M1440 70 c8 -5 20 -10 25 -10 6 0 3 5 -5 10 -8 5 -19 10 -25 10 -5 0
-3 -5 5 -10z"/>
<path d="M3279 54 c41 -14 76 -23 78 -20 6 5 -117 46 -136 45 -9 -1 17 -12 58
-25z"/>
<path d="M1573 47 c13 -14 25 -18 29 -12 8 11 -18 35 -39 35 -7 0 -3 -9 10
-23z"/>
<path d="M1660 48 c-11 -12 -20 -28 -20 -37 0 -8 1 -12 3 -10 44 56 56 88 17
47z"/>
<path d="M1488 33 c4 -20 7 -23 10 -10 3 16 23 26 21 10 -3 -21 2 -33 16 -33
8 0 15 5 15 10 0 6 -4 10 -10 10 -5 0 -10 4 -10 9 0 5 9 7 21 4 12 -3 18 -11
15 -19 -3 -8 -1 -14 4 -14 29 0 7 40 -27 49 -56 16 -61 14 -55 -16z"/>
<path d="M620 20 c0 -7 3 -10 7 -7 3 4 3 10 0 14 -4 3 -7 0 -7 -7z"/>
<path d="M2405 14 c21 -15 49 -19 41 -5 -3 5 -18 11 -33 14 -26 5 -26 4 -8 -9z"/>
<path d="M3383 15 c0 -8 4 -15 9 -15 4 0 8 4 8 9 0 6 -4 12 -8 15 -5 3 -9 -1
-9 -9z"/>
<path d="M3263 3 c4 -3 10 -3 14 0 3 4 0 7 -7 7 -7 0 -10 -3 -7 -7z"/>
<path d="M3298 3 c7 -3 16 -2 19 1 4 3 -2 6 -13 5 -11 0 -14 -3 -6 -6z"/>
</g>
</svg>
