<?xml version="1.0" standalone="no"?>
<!DOCTYPE svg PUBLIC "-//W3C//DTD SVG 20010904//EN"
 "http://www.w3.org/TR/2001/REC-SVG-20010904/DTD/svg10.dtd">
<svg version="1.0" xmlns="http://www.w3.org/2000/svg"
 width="384.000000pt" height="256.000000pt" viewBox="0 0 384.000000 256.000000"
 preserveAspectRatio="xMidYMid meet">
<metadata>
Created by potrace 1.16, written by Peter Selinger 2001-2019
</metadata>
<g transform="translate(0.000000,256.000000) scale(0.100000,-0.100000)"
fill="#000000" stroke="none">
<path d="M170 2266 c0 -2 44 -19 98 -36 224 -74 397 -136 562 -200 96 -38 200
-75 230 -84 114 -31 239 -58 252 -53 7 2 -14 10 -47 16 -136 28 -265 65 -345
98 -226 94 -750 275 -750 259z"/>
<path d="M1370 1880 c25 -3 56 -12 70 -18 14 -7 106 -32 205 -57 99 -25 198
-55 220 -65 21 -11 43 -16 47 -12 11 11 -120 55 -272 91 -69 16 -152 39 -184
50 -33 12 -75 20 -95 20 -35 -2 -34 -2 9 -9z"/>
<path d="M2262 1850 c61 -33 94 -111 52 -127 -39 -15 -154 48 -154 85 0 19
-25 -6 -34 -35 -8 -26 -40 -20 -61 10 -13 18 -15 19 -15 4 0 -9 -4 -17 -10
-17 -5 0 -7 -7 -4 -15 5 -12 9 -13 21 -4 8 7 13 8 12 3 -5 -15 12 -54 22 -54
6 0 5 8 -1 21 -13 23 -8 35 10 24 7 -4 10 -19 7 -33 -3 -17 2 -35 14 -51 11
-14 19 -41 20 -65 1 -34 2 -37 8 -16 5 15 13 23 22 21 8 -3 34 -6 59 -9 41 -4
53 -12 136 -94 56 -56 101 -111 118 -144 15 -30 34 -54 41 -54 8 0 17 -5 21
-12 4 -6 3 -8 -4 -4 -6 3 -13 -3 -17 -14 -3 -11 -10 -20 -15 -20 -6 0 -8 -13
-6 -30 3 -30 3 -30 -38 -7 -22 12 -45 28 -49 35 -4 6 -13 12 -20 12 -18 1 -91
76 -84 87 14 22 52 8 69 -26 26 -53 34 -55 52 -17 9 19 20 36 24 39 4 2 2 3
-4 1 -6 -1 -27 15 -45 37 -19 21 -38 39 -44 39 -5 0 -3 -4 5 -10 8 -5 12 -11
9 -15 -3 -3 -19 5 -34 17 -16 13 -26 17 -21 10 5 -8 0 -12 -13 -12 -19 0 -20
2 -9 22 7 13 20 28 28 34 8 7 12 15 9 18 -3 3 -21 -8 -41 -25 -37 -29 -37 -29
-54 26 -18 56 -44 75 -44 31 0 -14 -4 -28 -10 -31 -14 -8 -73 -136 -66 -142 3
-4 22 27 41 68 20 41 33 61 29 44 -5 -16 -9 -61 -10 -98 -1 -68 -1 -69 -53
-121 -28 -30 -51 -56 -51 -59 0 -3 27 -27 60 -52 82 -63 93 -85 40 -78 -35 5
-40 3 -40 -15 0 -11 5 -22 11 -24 6 -2 3 -13 -9 -28 -20 -24 -20 -24 -57 13
-20 20 -42 37 -48 37 -17 0 -18 48 -1 54 7 3 18 -3 24 -12 8 -14 9 -11 7 13
-1 17 3 30 8 30 6 0 10 -26 10 -57 0 -47 3 -58 16 -58 19 0 33 26 19 35 -5 3
-11 -3 -13 -12 -3 -12 -5 -8 -6 9 0 14 4 28 11 30 7 3 8 9 3 19 -5 8 -8 21 -7
30 5 28 -39 65 -83 72 -40 6 -40 6 3 -9 44 -16 52 -28 27 -38 -8 -3 -15 -12
-15 -20 0 -18 -26 -28 -57 -20 -20 5 -23 11 -19 30 4 13 3 24 -2 24 -11 0 -52
100 -53 130 0 14 -4 34 -9 45 -6 13 -7 1 -3 -35 3 -30 15 -75 25 -100 26 -59
30 -83 15 -77 -7 3 -11 9 -10 15 2 6 -24 27 -56 47 -59 37 -77 58 -65 77 4 6
0 15 -7 20 -10 7 -11 11 -3 14 16 7 -10 105 -30 116 -8 5 -22 15 -30 23 -13
13 -15 13 -13 -4 0 -11 4 -19 7 -19 9 2 40 -14 40 -21 0 -3 -23 -6 -50 -6 -49
0 -50 1 -30 17 13 11 20 27 19 50 0 27 -2 30 -9 13 -7 -16 -9 -14 -9 15 -1 27
2 32 10 20 8 -11 9 -8 4 13 -4 22 0 37 20 63 26 35 52 46 41 19 -3 -8 -1 -15
4 -15 5 0 7 -9 5 -19 -2 -11 3 -22 10 -25 10 -3 12 0 8 11 -5 13 -2 15 13 10
17 -6 17 -6 3 5 -29 23 -42 57 -28 74 24 30 98 65 146 71 50 5 50 5 65 -33 9
-22 19 -59 23 -84 4 -25 12 -51 17 -57 13 -16 38 -17 38 -3 0 6 -8 10 -17 8
-13 -2 -19 11 -29 64 -7 36 -17 75 -23 86 -7 13 -7 22 1 30 9 9 -3 10 -43 6
-148 -15 -279 -127 -280 -241 -1 -26 -7 -58 -15 -69 -8 -14 -11 -35 -7 -58 5
-31 2 -37 -18 -45 -13 -5 -18 -10 -10 -10 8 -1 23 -8 33 -18 10 -9 18 -11 18
-5 0 6 -4 14 -10 17 -5 3 -10 11 -10 16 0 6 5 7 10 4 7 -4 9 2 4 19 -9 36 31
55 72 34 26 -12 29 -19 27 -56 -1 -23 2 -42 8 -42 15 0 10 -27 -7 -34 -30 -11
-42 -6 -54 24 -15 36 -30 39 -30 6 0 -13 -7 -30 -16 -37 -21 -17 -104 -145
-104 -159 0 -6 15 -17 34 -25 32 -14 55 -53 37 -65 -5 -3 -8 -9 -8 -13 2 -11
-70 -37 -101 -37 -12 0 -34 -7 -47 -16 -23 -15 -25 -15 -25 0 0 9 -4 16 -9 16
-5 0 -7 -10 -3 -22 4 -16 2 -19 -8 -13 -8 5 -11 4 -7 -2 6 -10 -60 -53 -101
-65 -20 -6 -26 -2 -37 26 -8 18 -20 38 -29 45 -22 18 -30 -4 -10 -33 9 -14 14
-31 11 -38 -2 -7 -13 5 -23 27 -13 25 -26 39 -37 39 -24 -2 -21 27 3 33 11 3
20 11 20 18 0 21 242 137 289 139 23 0 41 5 41 10 0 30 -156 -26 -289 -104
-94 -54 -183 -170 -97 -125 34 18 46 19 46 4 0 -6 10 -25 22 -42 22 -30 22
-30 -3 -23 -13 5 -43 8 -67 7 -52 -2 -67 5 -51 25 7 8 7 14 1 14 -5 0 -15 -7
-22 -15 -11 -13 -15 -13 -22 -3 -6 10 -10 10 -18 -2 -11 -17 76 -39 159 -40
34 0 42 -3 37 -15 -4 -10 1 -15 15 -15 11 0 17 5 14 10 -8 13 19 40 39 40 16
0 61 24 141 75 28 18 63 32 80 32 34 0 134 47 236 111 36 22 36 22 83 0 56
-28 57 -32 6 -58 -60 -31 -120 -88 -113 -108 4 -14 3 -15 -6 -2 -12 17 -26 7
-18 -14 5 -12 13 -12 47 -4 39 10 43 9 75 -22 19 -19 37 -31 40 -28 14 14 -76
78 -100 72 -55 -14 1 51 82 95 58 32 64 56 16 72 -20 6 -31 14 -25 18 7 4 8
12 2 21 -8 13 -10 12 -10 -2 0 -26 -15 -22 -52 12 -24 22 -30 32 -20 38 13 9
-19 52 -38 52 -24 0 -18 -24 15 -63 36 -42 36 -42 5 -68 -21 -18 -39 -25 -52
-21 -14 3 -19 1 -14 -6 3 -6 -2 -16 -13 -21 -26 -14 -31 -14 -31 4 0 24 -34
72 -47 68 -21 -7 -15 26 12 61 14 18 25 38 25 43 0 45 126 26 173 -27 37 -42
95 -80 121 -80 29 0 84 -29 120 -63 48 -45 96 -48 96 -7 0 10 5 22 10 25 6 3
10 -2 10 -13 0 -21 -53 -76 -64 -65 -4 4 -5 1 -2 -7 4 -11 -25 -35 -97 -81
-129 -84 -125 -83 -169 -41 -21 20 -38 31 -38 24 0 -7 11 -22 25 -34 40 -35
32 -64 -9 -33 -26 19 -40 19 -32 0 5 -14 4 -14 -16 0 -13 8 -33 15 -45 15 -25
0 -30 18 -10 39 10 11 9 13 -6 7 -10 -3 -21 -6 -23 -6 -3 0 -3 -4 0 -9 3 -5
-1 -14 -9 -21 -13 -11 -14 -10 -9 4 4 11 1 16 -11 16 -9 0 -13 -4 -10 -10 3
-5 -4 -10 -17 -11 -30 -1 46 -27 84 -28 27 -1 118 -36 128 -50 3 -4 25 -17 50
-28 25 -12 85 -40 133 -63 84 -39 89 -40 102 -23 14 18 11 47 -7 70 -7 8 0 13
24 16 18 2 5 4 -29 3 -35 -1 -63 1 -63 4 0 3 -8 6 -17 7 -10 1 -48 8 -85 16
-38 8 -68 11 -68 7 0 -4 28 -13 63 -19 34 -7 76 -19 92 -27 31 -15 61 -51 51
-62 -11 -10 -56 18 -68 43 -9 19 -19 25 -43 25 -45 0 -94 19 -105 40 -14 26
-13 27 19 38 90 32 270 179 302 249 10 23 24 43 31 46 14 4 -40 62 -101 109
-34 26 -34 26 14 74 26 27 60 70 77 97 34 54 40 56 63 21 16 -26 39 -47 115
-112 19 -16 65 -40 102 -53 71 -25 75 -33 31 -77 -13 -13 -23 -27 -23 -32 0
-5 -31 -30 -68 -56 -70 -48 -76 -55 -144 -184 -49 -91 -56 -100 -78 -100 -13
0 -19 -11 -24 -41 -5 -30 -10 -39 -21 -35 -8 3 -15 1 -15 -4 0 -6 27 -10 60
-10 33 0 60 4 60 9 0 5 -18 7 -40 4 -26 -4 -40 -2 -40 6 0 11 5 13 51 16 14 1
39 6 55 10 16 4 72 11 124 15 95 7 95 7 5 8 -50 1 -104 -2 -122 -7 -51 -15
-73 7 -46 45 11 16 41 68 67 115 40 72 59 95 111 133 110 81 154 149 120 186
-16 17 -11 50 7 50 5 0 6 -5 3 -10 -3 -5 -1 -10 6 -10 16 0 38 -31 39 -52 0
-10 4 -18 9 -18 11 0 3 39 -12 58 -6 8 -6 12 2 12 6 0 11 -4 11 -10 0 -14 27
-12 33 3 3 7 6 6 6 -5 1 -9 -3 -20 -9 -23 -5 -3 -10 -11 -10 -17 0 -7 6 -6 15
2 16 14 21 60 6 60 -5 0 -16 6 -23 13 -7 6 -39 30 -70 51 -40 27 -67 56 -87
90 -44 78 -197 221 -247 230 -62 12 -102 41 -96 71 6 32 17 32 38 0 16 -25 44
-34 44 -15 0 6 14 1 30 -12 17 -12 30 -28 30 -35 0 -7 6 -10 14 -7 8 3 12 12
10 19 -3 7 2 27 10 44 38 72 14 160 -50 187 -48 20 -55 16 -12 -6z m-99 -77
c-6 -2 -9 -13 -6 -23 3 -11 1 -20 -5 -20 -6 0 -15 -12 -20 -27 -10 -28 -10
-28 -11 2 0 17 6 39 14 49 8 10 12 23 9 27 -3 5 3 6 12 2 10 -4 13 -8 7 -10z
m97 -57 c44 -9 66 -31 51 -50 -17 -20 -47 -21 -55 0 -3 8 -14 14 -23 13 -28
-3 -53 11 -53 30 0 25 9 31 33 21 12 -5 33 -11 47 -14z m-20 -286 c0 -13 -1
-13 -10 0 -7 11 -10 4 -10 -27 0 -23 -5 -45 -10 -48 -6 -4 -8 -10 -6 -14 3 -4
0 -13 -5 -21 -10 -15 -9 8 7 113 6 42 8 45 20 30 7 -10 13 -25 14 -33z m138
-46 c5 3 21 -8 35 -23 35 -40 6 -54 -33 -16 -15 14 -31 25 -36 24 -19 -3 -34
1 -34 10 0 13 33 19 47 8 7 -5 16 -6 21 -3z m47 -83 c-3 -6 -11 -8 -17 -5 -6
4 -5 9 3 15 16 10 23 4 14 -10z m141 -54 c-20 -7 -26 -15 -26 -38 0 -16 -5
-29 -10 -29 -10 0 -8 29 5 71 6 17 9 19 16 8 7 -11 9 -10 9 5 0 16 2 17 16 5
15 -12 13 -14 -10 -22z m64 -19 c0 -13 -23 -5 -28 10 -2 7 2 10 12 6 9 -3 16
-11 16 -16z m-865 -20 c22 3 108 -46 133 -77 6 -8 9 -24 6 -34 -5 -17 -2 -18
25 -12 34 7 72 -7 52 -20 -28 -17 -80 7 -137 60 -36 34 -72 59 -96 65 -21 6
-38 12 -38 15 0 2 -3 12 -7 22 -6 16 -5 16 16 -2 13 -11 33 -19 46 -17z m0
-78 c10 -11 16 -20 13 -20 -3 0 -13 9 -23 20 -10 11 -16 20 -13 20 3 0 13 -9
23 -20z m250 -80 c3 -5 2 -10 -4 -10 -5 0 -13 5 -16 10 -3 6 -2 10 4 10 5 0
13 -4 16 -10z m-738 -197 c-4 -3 -7 0 -7 7 0 7 3 10 7 7 3 -4 3 -10 0 -14z
m737 -208 c4 -13 2 -14 -14 -5 -23 13 -26 20 -6 20 8 0 16 -7 20 -15z m116
-40 c0 -5 -5 -3 -10 5 -5 8 -10 20 -10 25 0 6 5 3 10 -5 5 -8 10 -19 10 -25z"/>
<path d="M2386 1355 c4 -8 11 -15 16 -15 6 0 5 6 -2 15 -7 8 -14 15 -16 15 -2
0 -1 -7 2 -15z"/>
<path d="M1860 1132 c0 -12 19 -26 26 -19 2 2 -2 10 -11 17 -9 8 -15 8 -15 2z"/>
<path d="M2177 1853 c-10 -9 -9 -23 2 -23 5 0 11 7 15 15 5 15 -5 20 -17 8z"/>
<path d="M2223 1843 c4 -3 10 -3 14 0 3 4 0 7 -7 7 -7 0 -10 -3 -7 -7z"/>
<path d="M1680 1720 c0 -7 3 -10 7 -7 3 4 3 10 0 14 -4 3 -7 0 -7 -7z"/>
<path d="M2023 1723 c4 -3 10 -3 14 0 3 4 0 7 -7 7 -7 0 -10 -3 -7 -7z"/>
<path d="M1952 1665 c0 -16 2 -22 5 -12 2 9 2 23 0 30 -3 6 -5 -1 -5 -18z"/>
<path d="M1895 1665 c3 -11 8 -32 11 -47 2 -16 6 -42 9 -59 5 -28 3 -30 -12
-18 -15 12 -16 12 -10 -3 3 -10 2 -18 -3 -18 -10 0 -14 15 -11 34 4 18 -23 95
-31 90 -4 -3 -1 -21 7 -41 17 -41 19 -57 5 -48 -13 8 -13 -1 0 -26 6 -11 7
-19 1 -19 -11 0 -21 25 -21 54 0 12 -7 31 -16 42 -15 18 -15 18 -9 -3 11 -39
9 -87 -3 -91 -7 -2 -12 -18 -12 -35 -1 -30 -1 -31 -15 -13 -20 26 -28 15 -9
-12 12 -17 103 -72 120 -72 19 0 -16 30 -47 39 -21 7 -39 18 -39 26 0 19 39
55 59 55 9 0 28 6 43 14 27 14 27 14 39 -42 6 -32 13 -63 15 -69 7 -26 143 47
165 89 12 22 4 68 -12 68 -6 0 -6 -6 -1 -17 15 -29 -17 -89 -33 -63 -3 5 1 10
9 10 10 0 13 6 9 16 -3 9 -9 12 -12 7 -3 -5 -19 -19 -35 -31 -16 -12 -24 -22
-18 -22 6 0 14 5 17 10 7 12 25 13 25 3 0 -8 -50 -41 -82 -55 -23 -10 -44 74
-30 123 10 34 10 34 11 -7 1 -22 8 -49 17 -60 15 -18 15 -18 5 3 -6 12 -11 42
-11 67 0 25 -4 46 -9 46 -5 0 -12 10 -14 23 -2 12 -5 0 -7 -28 -2 -48 -2 -49
-11 -18 -5 17 -21 51 -35 75 -14 23 -23 34 -19 23z m45 -110 c0 -5 -5 -3 -10
5 -5 8 -10 20 -10 25 0 6 5 3 10 -5 5 -8 10 -19 10 -25z"/>
<path d="M1982 1625 c0 -16 2 -22 5 -12 2 9 2 23 0 30 -3 6 -5 -1 -5 -18z"/>
<path d="M2345 1602 c16 -17 122 -32 214 -30 47 1 68 3 46 5 -118 10 -235 23
-251 29 -13 5 -16 4 -9 -4z"/>
<path d="M610 1423 c0 -12 -4 -24 -9 -27 -10 -7 9 -56 22 -56 4 0 7 9 7 20 0
25 -21 26 325 -9 160 -16 355 -34 435 -40 80 -7 163 -14 185 -16 27 -3 34 -2
20 4 -11 5 -87 14 -170 20 -143 12 -219 19 -613 58 -168 16 -174 18 -187 43
-14 24 -14 24 -15 3z"/>
<path d="M1770 1420 c0 -7 3 -10 7 -7 3 4 3 10 0 14 -4 3 -7 0 -7 -7z"/>
<path d="M1805 1390 c10 -11 20 -18 23 -15 7 6 -18 35 -31 35 -5 0 -2 -9 8
-20z"/>
<path d="M1990 1325 c0 -7 63 -45 74 -45 5 0 -8 11 -28 25 -37 25 -46 29 -46
20z"/>
<path d="M2356 1316 c21 -15 30 -14 19 3 -3 6 -14 11 -23 11 -13 0 -13 -2 4
-14z"/>
<path d="M2465 1280 c3 -5 8 -10 11 -10 3 0 2 5 -1 10 -3 6 -8 10 -11 10 -3 0
-2 -4 1 -10z"/>
<path d="M2430 1271 c0 -6 4 -12 8 -15 5 -3 9 1 9 9 0 8 -4 15 -9 15 -4 0 -8
-4 -8 -9z"/>
<path d="M1978 1248 c5 -5 16 -8 23 -6 8 3 3 7 -10 11 -17 4 -21 3 -13 -5z"/>
<path d="M2476 1252 c-2 -4 -1 -14 5 -22 7 -12 9 -10 9 8 0 23 -5 28 -14 14z"/>
<path d="M1677 1164 c-4 -4 9 -23 28 -41 19 -18 35 -37 35 -43 0 -5 7 -10 16
-10 19 0 -33 68 -53 69 -6 1 -13 8 -15 17 -2 9 -6 12 -11 8z"/>
<path d="M1650 1125 c-8 -9 -8 -15 -2 -15 12 0 26 19 19 26 -2 2 -10 -2 -17
-11z"/>
<path d="M1689 1103 c12 -23 29 -38 37 -31 2 3 -8 15 -22 29 -25 23 -26 23
-15 2z"/>
<path d="M2140 1090 c0 -6 7 -10 15 -10 8 0 15 2 15 4 0 2 -7 6 -15 10 -8 3
-15 1 -15 -4z"/>
<path d="M1680 1074 c0 -17 35 -31 55 -23 19 8 19 9 -1 6 -11 -1 -28 4 -37 12
-10 7 -17 9 -17 5z"/>
<path d="M1660 1051 c0 -5 7 -11 15 -15 8 -3 15 -1 15 3 0 5 -7 11 -15 15 -8
3 -15 1 -15 -3z"/>
<path d="M1421 973 c7 -12 15 -20 18 -17 3 2 -3 12 -13 22 -17 16 -18 16 -5
-5z"/>
<path d="M1380 950 c0 -7 3 -10 7 -7 3 4 3 10 0 14 -4 3 -7 0 -7 -7z"/>
<path d="M1570 886 c0 -8 5 -18 10 -21 6 -3 10 1 10 9 0 8 -4 18 -10 21 -5 3
-10 -1 -10 -9z"/>
<path d="M1465 790 c3 -5 14 -10 23 -10 15 0 15 2 2 10 -20 13 -33 13 -25 0z"/>
<path d="M1205 760 c3 -5 8 -10 11 -10 3 0 2 5 -1 10 -3 6 -8 10 -11 10 -3 0
-2 -4 1 -10z"/>
<path d="M1468 765 c-3 -3 -42 -6 -87 -7 -44 0 -81 -3 -81 -6 0 -11 36 -31 55
-32 11 0 29 -6 40 -14 25 -17 121 -46 129 -39 3 3 14 0 23 -8 14 -10 15 -10 6
0 -7 9 -8 23 -2 44 5 17 8 31 6 32 -1 1 -14 9 -29 18 -28 17 -50 22 -60 12z
m20 -47 c4 -32 -12 -36 -40 -11 -14 13 -18 13 -18 2 0 -12 -2 -12 -9 0 -5 8
-26 17 -47 21 -39 8 -39 8 -3 9 19 0 40 -4 47 -11 9 -9 12 -8 12 6 0 32 54 17
58 -16z m33 15 c13 -16 12 -17 -3 -4 -17 13 -22 21 -14 21 2 0 10 -8 17 -17z
m4 -32 c3 -5 1 -12 -5 -16 -5 -3 -10 1 -10 9 0 18 6 21 15 7z"/>
<path d="M2810 723 c19 -2 44 -8 55 -13 27 -13 146 -42 151 -37 5 4 -106 36
-133 38 -10 1 0 5 22 9 30 5 19 7 -45 7 -47 0 -69 -2 -50 -4z"/>
<path d="M2953 723 c4 -3 10 -3 14 0 3 4 0 7 -7 7 -7 0 -10 -3 -7 -7z"/>
<path d="M2733 713 c4 -3 10 -3 14 0 3 4 0 7 -7 7 -7 0 -10 -3 -7 -7z"/>
<path d="M2730 700 c-35 -7 -35 -7 2 -9 20 0 40 4 43 9 7 11 7 11 -45 0z"/>
<path d="M2803 703 c9 -2 25 -2 35 0 9 3 1 5 -18 5 -19 0 -27 -2 -17 -5z"/>
<path d="M2593 693 c4 -3 10 -3 14 0 3 4 0 7 -7 7 -7 0 -10 -3 -7 -7z"/>
<path d="M2673 693 c4 -3 10 -3 14 0 3 4 0 7 -7 7 -7 0 -10 -3 -7 -7z"/>
<path d="M2330 660 c-40 -6 -36 -7 33 -8 46 -1 77 2 77 8 0 11 -40 11 -110 0z"/>
<path d="M2450 663 c0 -5 18 -9 40 -10 22 -1 40 2 40 6 0 4 -18 8 -40 9 -22 2
-40 -1 -40 -5z"/>
<path d="M2550 666 c0 -2 18 -6 39 -8 22 -2 37 0 35 4 -5 8 -74 11 -74 4z"/>
<path d="M3108 663 c7 -3 16 -2 19 1 4 3 -2 6 -13 5 -11 0 -14 -3 -6 -6z"/>
<path d="M1598 653 c17 -2 32 -9 32 -14 0 -14 -29 -70 -49 -94 -16 -20 -16
-20 8 0 26 22 63 94 55 107 -3 4 -22 7 -42 6 -37 -1 -37 -1 -4 -5z"/>
<path d="M1701 642 c0 -12 -8 -39 -16 -59 -8 -20 -13 -38 -10 -41 9 -10 36 70
32 97 -3 23 -4 23 -6 3z"/>
<path d="M1434 598 c-4 -7 -3 -8 4 -4 7 4 12 9 12 12 0 8 -9 4 -16 -8z"/>
<path d="M1720 575 c-6 -15 -13 -32 -16 -36 -3 -5 -3 -9 0 -9 9 0 38 61 32 67
-3 3 -10 -7 -16 -22z"/>
<path d="M2150 568 c0 -4 16 -8 35 -8 19 0 35 2 35 4 0 2 -16 6 -35 8 -19 2
-35 0 -35 -4z"/>
<path d="M1544 518 c-4 -7 -3 -8 4 -4 12 7 16 16 8 16 -3 0 -8 -5 -12 -12z"/>
<path d="M1524 488 c-4 -7 -3 -8 4 -4 12 7 16 16 8 16 -3 0 -8 -5 -12 -12z"/>
<path d="M469 323 c-24 -28 -24 -28 4 -4 15 14 27 26 27 28 0 8 -8 1 -31 -24z"/>
<path d="M1647 278 c6 -91 11 -103 12 -28 0 36 -3 71 -7 78 -5 7 -7 -16 -5
-50z"/>
<path d="M1740 320 c0 -7 3 -10 7 -7 3 4 3 10 0 14 -4 3 -7 0 -7 -7z"/>
<path d="M1082 285 c-17 -37 -14 -45 4 -12 9 16 14 31 11 33 -2 2 -9 -7 -15
-21z"/>
<path d="M1450 290 c0 -7 3 -10 7 -7 3 4 3 10 0 14 -4 3 -7 0 -7 -7z"/>
<path d="M1442 205 c0 -16 2 -22 5 -12 2 9 2 23 0 30 -3 6 -5 -1 -5 -18z"/>
<path d="M1331 204 c0 -11 3 -14 6 -6 3 7 2 16 -1 19 -3 4 -6 -2 -5 -13z"/>
<path d="M1492 185 c0 -16 2 -22 5 -12 2 9 2 23 0 30 -3 6 -5 -1 -5 -18z"/>
<path d="M1320 170 c0 -7 3 -10 7 -7 3 4 3 10 0 14 -4 3 -7 0 -7 -7z"/>
<path d="M1662 155 c0 -16 2 -22 5 -12 2 9 2 23 0 30 -3 6 -5 -1 -5 -18z"/>
<path d="M1380 160 c0 -7 3 -10 7 -7 3 4 3 10 0 14 -4 3 -7 0 -7 -7z"/>
<path d="M1670 100 c0 -7 3 -10 7 -7 3 4 3 10 0 14 -4 3 -7 0 -7 -7z"/>
</g>
</svg>
