<?xml version="1.0" standalone="no"?>
<!DOCTYPE svg PUBLIC "-//W3C//DTD SVG 20010904//EN"
 "http://www.w3.org/TR/2001/REC-SVG-20010904/DTD/svg10.dtd">
<svg version="1.0" xmlns="http://www.w3.org/2000/svg"
 width="256.000000pt" height="320.000000pt" viewBox="0 0 256.000000 320.000000"
 preserveAspectRatio="xMidYMid meet">
<metadata>
Created by potrace 1.16, written by Peter Selinger 2001-2019
</metadata>
<g transform="translate(0.000000,320.000000) scale(0.100000,-0.100000)"
fill="#000000" stroke="none">
<path d="M492 3160 c-1 -25 -11 -58 -22 -75 -22 -34 -25 -45 -10 -45 6 0 10 5
10 12 0 6 7 19 16 29 11 12 14 32 11 70 -3 53 -3 53 -5 9z"/>
<path d="M550 3190 c0 -7 3 -10 7 -7 3 4 3 10 0 14 -4 3 -7 0 -7 -7z"/>
<path d="M581 3148 c0 -32 2 -58 7 -58 4 0 6 19 4 43 -5 70 -10 76 -11 15z"/>
<path d="M521 3136 c-1 -38 2 -57 9 -50 5 5 6 29 1 59 -9 50 -9 50 -10 -9z"/>
<path d="M689 3178 c0 -7 -2 -34 -4 -60 -2 -26 0 -50 5 -53 6 -4 10 8 10 26 0
38 13 31 14 -7 1 -15 7 -29 15 -32 8 -3 11 0 7 6 -3 6 -2 13 3 16 5 4 12 -2
16 -13 3 -10 14 -21 25 -24 18 -5 19 -1 14 51 -6 67 -19 86 -39 58 -8 -10 -12
-22 -10 -27 3 -4 0 -11 -6 -14 -7 -5 -10 4 -9 26 3 54 1 59 -20 59 -11 0 -20
-6 -21 -12z m23 -30 c-9 -9 -12 -7 -12 12 0 19 3 21 12 12 9 -9 9 -15 0 -24z
m65 -70 c-2 -13 -4 -3 -4 22 0 25 2 35 4 23 2 -13 2 -33 0 -45z"/>
<path d="M1245 3135 c28 -36 37 -64 25 -80 -14 -20 10 -95 31 -95 16 0 19 8
21 48 1 47 1 47 5 2 6 -63 23 -76 23 -18 0 52 -8 80 -20 73 -8 -5 -80 72 -80
86 0 4 -7 10 -15 13 -10 3 -6 -7 10 -29z m52 -132 c-2 -16 -4 -3 -4 27 0 30 2
43 4 28 2 -16 2 -40 0 -55z"/>
<path d="M555 3121 c3 -25 9 -49 15 -55 15 -15 12 -26 -7 -26 -22 0 -14 -6 19
-14 25 -6 26 -5 15 19 -7 14 -15 25 -19 25 -5 0 -8 12 -9 28 0 15 -5 36 -10
47 -6 14 -7 7 -4 -24z"/>
<path d="M610 3131 c0 -33 37 -117 47 -107 3 3 -2 17 -11 31 -9 14 -19 42 -22
62 -6 47 -14 55 -14 14z"/>
<path d="M926 3108 c1 -29 3 -61 3 -70 1 -10 4 -18 9 -18 8 0 0 125 -9 134 -3
4 -5 -17 -3 -46z"/>
<path d="M814 3088 c1 -44 5 -68 12 -68 17 0 24 26 23 83 -1 29 -4 40 -6 25
-2 -16 -8 -28 -13 -28 -5 0 -11 12 -13 28 -2 15 -4 -3 -3 -40z"/>
<path d="M983 3143 c-15 -5 -6 -113 11 -131 10 -10 16 -9 30 7 17 18 16 20 -9
44 -20 18 -26 31 -22 53 4 27 5 28 12 7 4 -13 11 -20 16 -18 21 13 -13 47 -38
38z"/>
<path d="M863 3085 c0 -30 3 -55 8 -55 4 0 15 -3 24 -6 14 -6 16 0 14 42 -3
63 -7 74 -29 74 -14 0 -17 -9 -17 -55z m31 37 c2 -4 1 -14 -3 -21 -6 -9 -10
-7 -14 8 -5 20 7 29 17 13z m-7 -69 c-4 -3 -7 0 -7 7 0 7 3 10 7 7 3 -4 3 -10
0 -14z"/>
<path d="M1042 3059 c3 -69 18 -73 18 -5 0 31 -5 56 -10 56 -6 0 -9 -22 -8
-51z"/>
<path d="M1078 3098 c-8 -23 4 -97 18 -108 20 -17 28 28 14 79 -11 41 -24 52
-32 29z m20 -49 c-3 -20 -5 -19 -9 9 -3 20 -2 29 4 23 5 -5 7 -19 5 -32z"/>
<path d="M1127 3058 c3 -24 10 -52 15 -63 6 -14 7 -8 3 20 -2 22 -5 50 -5 63
0 12 -4 22 -9 22 -5 0 -7 -19 -4 -42z"/>
<path d="M1151 3069 c-1 -33 24 -96 31 -78 2 8 5 34 6 59 0 36 -1 40 -7 20 -8
-25 -8 -25 -19 0 -11 25 -11 25 -11 -1z"/>
<path d="M1201 3028 c1 -47 3 -57 9 -38 8 24 8 24 9 3 2 -46 21 -21 21 27 0
39 -4 52 -20 60 -19 10 -20 8 -19 -52z m16 20 c-3 -8 -6 -5 -6 6 -1 11 2 17 5
13 3 -3 4 -12 1 -19z"/>
<path d="M1360 3042 c0 -10 7 -28 16 -40 9 -13 13 -26 10 -29 -3 -4 -6 -1 -6
5 0 7 -4 12 -10 12 -15 0 -12 -17 6 -35 28 -27 43 -1 21 36 -18 32 -24 66 -7
39 6 -10 10 -11 10 -2 0 6 5 12 10 12 6 0 10 -23 10 -52 0 -28 3 -49 6 -45 3
3 17 2 30 -3 22 -9 24 -7 30 30 4 22 10 37 15 34 5 -3 9 0 9 7 0 10 2 10 13 0
10 -10 9 -15 -5 -25 -10 -7 -18 -24 -17 -37 0 -24 0 -24 11 1 11 25 11 25 15
3 8 -45 18 -22 13 29 -5 51 -6 53 -37 54 -32 2 -33 1 -33 -42 0 -24 -3 -44 -7
-44 -5 0 -6 22 -5 50 3 30 0 50 -6 50 -6 0 -13 -21 -15 -47 -3 -48 -3 -48 -5
-2 -2 39 -6 48 -24 53 -37 10 -48 7 -48 -12z"/>
<path d="M480 3040 c0 -5 15 -10 33 -9 27 0 29 2 12 9 -28 12 -45 12 -45 0z"/>
<path d="M1558 2983 c5 -49 17 -66 39 -58 7 2 15 0 19 -6 4 -6 11 -6 20 2 11
9 14 9 14 0 0 -19 44 -8 48 12 4 20 -24 24 -31 5 -3 -8 -6 -6 -6 5 -1 12 7 17
23 17 23 0 24 2 15 30 -9 24 -17 30 -40 30 -16 0 -32 1 -36 3 -4 1 -11 -11
-14 -28 -7 -30 -7 -30 -8 3 -2 49 -19 38 -24 -15 -3 -48 -3 -48 -5 0 -1 26 -6
47 -11 47 -5 0 -6 -21 -3 -47z m87 5 c0 -13 -6 -32 -12 -43 -11 -18 -12 -17
-13 16 0 34 6 49 20 49 3 0 6 -10 5 -22z m35 2 c0 -5 -5 -10 -11 -10 -5 0 -7
5 -4 10 3 6 8 10 11 10 2 0 4 -4 4 -10z m-75 -39 c3 -5 1 -12 -5 -16 -5 -3
-10 1 -10 9 0 18 6 21 15 7z"/>
<path d="M1957 2990 c-16 -5 -34 -13 -40 -19 -7 -5 -46 -13 -87 -16 -41 -4
-79 -8 -84 -9 -5 0 -13 10 -17 24 -7 25 -7 25 -8 0 -1 -31 14 -57 23 -41 4 6
24 11 44 11 64 0 142 12 136 21 -3 5 -1 9 5 9 5 0 11 -4 13 -8 2 -5 28 -5 58
-2 55 7 55 7 0 10 -55 2 -55 2 -5 15 39 10 43 13 20 13 -16 0 -43 -4 -58 -8z"/>
<path d="M2132 2960 c7 -11 16 -20 21 -20 4 0 6 4 3 9 -4 5 6 14 21 19 27 10
26 10 -15 11 -40 1 -41 0 -30 -19z"/>
<path d="M2062 2945 c0 -16 2 -22 5 -12 2 9 2 23 0 30 -3 6 -5 -1 -5 -18z"/>
<path d="M1462 2843 c24 -46 47 -83 51 -83 9 0 -59 127 -80 150 -8 8 5 -22 29
-67z"/>
<path d="M301 2888 c0 -15 -9 -32 -18 -37 -17 -10 -17 -10 0 -11 17 0 22 -28
19 -100 -1 -14 1 -19 4 -12 8 18 24 15 25 -5 0 -12 2 -13 6 -5 3 7 0 18 -5 25
-17 20 -25 97 -11 113 7 9 8 14 1 14 -6 0 -13 10 -15 23 -4 19 -4 19 -6 -5z"/>
<path d="M350 2901 c8 -5 35 -11 60 -14 45 -6 45 -6 5 8 -46 16 -89 20 -65 6z"/>
<path d="M1720 2890 c0 -5 7 -10 16 -10 8 0 12 5 9 10 -3 6 -10 10 -16 10 -5
0 -9 -4 -9 -10z"/>
<path d="M463 2873 c4 -3 10 -3 14 0 3 4 0 7 -7 7 -7 0 -10 -3 -7 -7z"/>
<path d="M530 2859 c0 -5 9 -9 19 -9 11 0 28 -3 38 -7 10 -3 15 -3 12 1 -11
12 -69 25 -69 15z"/>
<path d="M1721 2854 c0 -11 3 -14 6 -6 3 7 2 16 -1 19 -3 4 -6 -2 -5 -13z"/>
<path d="M1950 2860 c0 -7 3 -10 7 -7 3 4 3 10 0 14 -4 3 -7 0 -7 -7z"/>
<path d="M353 2843 c4 -3 10 -3 14 0 3 4 0 7 -7 7 -7 0 -10 -3 -7 -7z"/>
<path d="M1721 2817 c0 -10 -17 -38 -36 -62 -40 -48 -53 -50 -178 -19 -32 8
-89 13 -125 12 -65 -2 -65 -2 -12 -5 30 -1 91 -10 135 -19 44 -9 91 -18 103
-20 24 -5 24 -5 19 -127 -6 -122 -6 -122 6 0 13 137 36 190 38 88 4 -242 6
-285 12 -291 4 -4 7 17 7 46 0 107 19 34 26 -95 3 -72 8 -137 12 -145 9 -22 8
-80 0 -80 -19 0 -8 -107 12 -125 11 -10 20 -13 20 -7 0 6 -4 14 -10 17 -5 3
-10 11 -10 16 0 18 20 -1 55 -54 19 -28 35 -47 35 -41 0 13 -59 94 -84 115
-18 15 -19 20 -7 57 8 22 10 45 7 51 -4 6 -3 11 2 11 11 0 8 100 -3 138 -5 14
-3 22 4 22 6 0 11 -4 11 -10 0 -5 5 -10 11 -10 6 0 0 13 -14 29 -20 24 -45
126 -34 137 9 9 85 -102 77 -112 -7 -7 -3 -17 10 -29 21 -19 28 -7 8 13 -6 6
-9 14 -7 17 3 2 32 -28 65 -67 32 -40 98 -116 146 -170 48 -54 95 -113 104
-130 9 -18 36 -53 61 -77 24 -24 65 -68 90 -98 52 -60 53 -54 -29 -109 -21
-13 -38 -29 -38 -34 0 -5 25 10 56 33 34 25 65 41 78 39 12 -2 16 0 10 5 -11
8 -135 153 -289 337 -44 53 -106 127 -138 164 -32 37 -71 85 -88 106 -16 22
-52 64 -79 93 -54 57 -75 91 -65 101 3 4 23 -13 43 -38 20 -24 73 -85 117
-135 44 -50 100 -115 125 -145 25 -30 64 -75 87 -100 23 -25 58 -67 79 -95 21
-27 65 -82 99 -121 34 -39 81 -97 105 -127 24 -31 47 -54 52 -51 4 3 -27 46
-70 95 -42 50 -103 123 -135 162 -32 40 -85 101 -117 137 -32 36 -69 79 -82
95 -12 17 -76 92 -142 168 -120 139 -120 139 -118 230 1 78 -1 87 -9 57 -6
-19 -9 -54 -6 -77 5 -45 -2 -53 -23 -28 -20 24 -10 188 13 213 11 12 17 30 14
44 -3 16 -5 17 -6 5z m16 -629 c-3 -8 -6 -5 -6 6 -1 11 2 17 5 13 3 -3 4 -12
1 -19z"/>
<path d="M1930 2810 c-6 -11 -8 -20 -6 -20 3 0 10 9 16 20 6 11 8 20 6 20 -3
0 -10 -9 -16 -20z"/>
<path d="M813 2813 c15 -2 37 -2 50 0 12 2 0 4 -28 4 -27 0 -38 -2 -22 -4z"/>
<path d="M934 2796 c52 -15 142 -24 151 -14 3 3 -27 8 -67 11 -40 4 -86 9
-103 12 -16 2 -8 -2 19 -9z"/>
<path d="M769 2783 c-13 -16 -12 -17 4 -4 9 7 17 15 17 17 0 8 -8 3 -21 -13z"/>
<path d="M2007 2787 c-6 -15 29 -21 38 -6 4 5 -2 6 -11 2 -12 -4 -15 -3 -10 5
4 7 3 12 -2 12 -6 0 -12 -6 -15 -13z"/>
<path d="M2120 2758 c0 -49 5 -47 13 5 3 20 2 37 -4 37 -5 0 -9 -19 -9 -42z"/>
<path d="M1150 2780 c0 -6 7 -10 16 -10 8 0 29 -13 45 -30 27 -27 30 -27 23
-7 -3 12 -7 22 -8 22 0 0 -18 8 -38 18 -21 9 -38 12 -38 7z"/>
<path d="M1108 2773 c6 -2 18 -2 25 0 6 3 1 5 -13 5 -14 0 -19 -2 -12 -5z"/>
<path d="M1285 2740 c3 -5 11 -10 16 -10 6 0 7 5 4 10 -3 6 -11 10 -16 10 -6
0 -7 -4 -4 -10z"/>
<path d="M744 2728 c-4 -7 -3 -8 4 -4 7 4 12 9 12 12 0 8 -9 4 -16 -8z"/>
<path d="M1292 2707 c-7 -8 -8 -24 -3 -43 8 -28 8 -28 12 14 5 47 5 47 -9 29z"/>
<path d="M2122 2690 c0 -14 2 -19 5 -12 2 6 2 18 0 25 -3 6 -5 1 -5 -13z"/>
<path d="M2061 2654 c0 -11 3 -14 6 -6 3 7 2 16 -1 19 -3 4 -6 -2 -5 -13z"/>
<path d="M2165 2660 c3 -5 8 -10 11 -10 2 0 4 5 4 10 0 6 -5 10 -11 10 -5 0
-7 -4 -4 -10z"/>
<path d="M312 2620 c0 -19 2 -27 5 -17 2 9 2 25 0 35 -3 9 -5 1 -5 -18z"/>
<path d="M2156 2578 c-11 -68 19 -77 50 -15 16 32 16 32 -16 -3 -29 -33 -31
-33 -26 -10 3 14 6 31 6 38 0 7 5 10 10 7 6 -3 10 -2 10 3 0 6 -6 12 -14 15
-10 4 -16 -6 -20 -35z"/>
<path d="M1970 2570 c0 -7 3 -10 7 -7 3 4 3 10 0 14 -4 3 -7 0 -7 -7z"/>
<path d="M751 2537 c-13 -21 -12 -21 5 -5 10 10 16 20 13 22 -3 3 -11 -5 -18
-17z"/>
<path d="M2018 2553 c7 -3 16 -2 19 1 4 3 -2 6 -13 5 -11 0 -14 -3 -6 -6z"/>
<path d="M680 2539 c0 -5 5 -7 10 -4 6 3 10 8 10 11 0 2 -4 4 -10 4 -5 0 -10
-5 -10 -11z"/>
<path d="M1977 2543 c-4 -3 -7 -11 -7 -17 0 -6 5 -5 12 2 6 6 9 14 7 17 -3 3
-9 2 -12 -2z"/>
<path d="M697 2503 c-10 -11 -17 -13 -17 -5 0 7 -26 -1 -67 -20 -81 -39 -77
-37 -72 -42 2 -3 30 8 62 25 69 35 80 36 72 7 -6 -23 -6 -23 10 -3 35 43 43
69 12 38z"/>
<path d="M365 2460 c3 -5 8 -10 11 -10 2 0 4 5 4 10 0 6 -5 10 -11 10 -5 0 -7
-4 -4 -10z"/>
<path d="M887 2463 c-4 -3 -7 -13 -7 -22 1 -13 3 -13 11 2 11 19 8 33 -4 20z"/>
<path d="M2175 2456 c-23 -25 -26 -40 -4 -19 12 12 21 24 18 27 -2 2 -9 -1
-14 -8z"/>
<path d="M2224 2448 c20 -34 20 -38 0 -38 -8 0 -13 -4 -10 -9 6 -10 46 -3 46
8 0 3 -12 20 -26 36 -25 29 -25 29 -10 3z"/>
<path d="M320 2451 c0 -5 5 -13 10 -16 6 -3 10 -2 10 4 0 5 -4 13 -10 16 -5 3
-10 2 -10 -4z"/>
<path d="M306 2430 c7 -8 14 -24 17 -35 4 -19 5 -19 6 1 0 12 -7 28 -16 35
-16 12 -17 12 -7 -1z"/>
<path d="M463 2433 c4 -3 10 -3 14 0 3 4 0 7 -7 7 -7 0 -10 -3 -7 -7z"/>
<path d="M2123 2380 c-1 -51 1 -57 6 -30 4 20 11 42 16 49 5 9 4 12 -3 7 -6
-3 -12 3 -15 16 -2 13 -4 -6 -4 -42z"/>
<path d="M753 2423 c4 -3 10 -3 14 0 3 4 0 7 -7 7 -7 0 -10 -3 -7 -7z"/>
<path d="M383 2413 c9 -2 23 -2 30 0 6 3 -1 5 -18 5 -16 0 -22 -2 -12 -5z"/>
<path d="M1015 2395 c242 -24 323 -29 313 -20 -6 6 -317 34 -453 40 -55 2 8
-6 140 -20z"/>
<path d="M2051 2404 c0 -11 3 -14 6 -6 3 7 2 16 -1 19 -3 4 -6 -2 -5 -13z"/>
<path d="M473 2403 c9 -2 23 -2 30 0 6 3 -1 5 -18 5 -16 0 -22 -2 -12 -5z"/>
<path d="M1621 2400 c0 -8 6 -26 15 -40 15 -25 15 -25 8 0 -9 36 -23 60 -23
40z"/>
<path d="M220 2396 c0 -3 20 -18 44 -35 25 -16 43 -24 40 -18 -4 12 -84 62
-84 53z"/>
<path d="M345 2380 c8 -36 9 -173 2 -255 -6 -70 -6 -70 6 -5 13 77 11 260 -4
275 -7 7 -9 2 -4 -15z"/>
<path d="M533 2393 c9 -2 25 -2 35 0 9 3 1 5 -18 5 -19 0 -27 -2 -17 -5z"/>
<path d="M630 2389 c-18 -5 -10 -7 28 -8 28 -1 52 1 52 3 0 8 -56 12 -80 5z"/>
<path d="M743 2373 c15 -2 37 -2 50 0 12 2 0 4 -28 4 -27 0 -38 -2 -22 -4z"/>
<path d="M1343 2373 c4 -3 10 -3 14 0 3 4 0 7 -7 7 -7 0 -10 -3 -7 -7z"/>
<path d="M2180 2376 c0 -9 30 -14 35 -6 4 6 -3 10 -14 10 -12 0 -21 -2 -21 -4z"/>
<path d="M873 2363 c15 -2 37 -2 50 0 12 2 0 4 -28 4 -27 0 -38 -2 -22 -4z"/>
<path d="M958 2358 c5 -5 16 -8 23 -6 8 3 3 7 -10 11 -17 4 -21 3 -13 -5z"/>
<path d="M1383 2363 c4 -3 10 -3 14 0 3 4 0 7 -7 7 -7 0 -10 -3 -7 -7z"/>
<path d="M1423 2363 c4 -3 10 -3 14 0 3 4 0 7 -7 7 -7 0 -10 -3 -7 -7z"/>
<path d="M2046 2357 c3 -10 9 -15 12 -12 3 3 0 11 -7 18 -10 9 -11 8 -5 -6z"/>
<path d="M1003 2353 c4 -3 10 -3 14 0 3 4 0 7 -7 7 -7 0 -10 -3 -7 -7z"/>
<path d="M1670 2356 c0 -2 7 -9 15 -16 13 -11 14 -10 9 4 -5 14 -24 23 -24 12z"/>
<path d="M633 2343 c15 -2 37 -2 50 0 12 2 0 4 -28 4 -27 0 -38 -2 -22 -4z"/>
<path d="M1038 2269 c4 -92 -3 -138 -20 -121 -6 6 -11 47 -12 91 0 45 -3 81
-7 81 -6 0 -10 -67 -14 -263 -2 -128 -8 -157 -26 -124 -6 9 -15 17 -22 17 -7
0 -6 -4 3 -10 13 -8 11 -13 -9 -32 -23 -23 -23 -23 -11 2 13 24 12 25 -7 8
-11 -10 -28 -18 -39 -18 -10 0 -26 -5 -34 -11 -11 -8 -8 -9 16 -5 31 5 31 5 5
-23 -14 -16 -43 -49 -64 -74 -32 -39 -44 -46 -80 -50 -42 -4 -42 -4 1 -5 23
-1 42 -6 42 -10 0 -14 -24 -32 -45 -33 -16 -1 -17 -2 -2 -6 32 -8 17 -23 -25
-24 -26 -1 -33 -3 -18 -6 51 -8 54 -11 35 -41 -10 -15 -31 -39 -46 -54 -16
-15 -29 -35 -29 -45 0 -10 -10 -29 -23 -43 -13 -14 -22 -31 -19 -38 2 -6 -1
-12 -6 -12 -6 0 -18 -18 -28 -40 -10 -22 -21 -40 -26 -40 -4 0 -8 -7 -8 -16 0
-8 5 -12 10 -9 6 3 10 1 10 -4 0 -6 -6 -11 -12 -11 -9 0 -8 -3 2 -9 8 -6 17
-8 21 -5 4 2 10 -3 13 -12 9 -23 8 -24 -16 -20 -13 3 -26 5 -29 5 -8 1 -21 39
-24 71 -2 29 26 81 68 127 19 20 27 38 23 48 -4 10 2 19 17 25 21 8 21 9 1 9
-24 1 -44 -17 -38 -34 3 -7 -11 -34 -31 -60 -44 -58 -67 -102 -56 -107 4 -2
-5 -23 -21 -48 -15 -24 -28 -37 -28 -30 0 8 9 26 20 40 21 27 25 40 12 40 -5
0 -14 -11 -20 -24 -15 -33 -60 -41 -54 -9 2 13 10 23 18 23 8 0 11 -6 7 -17
-13 -37 81 86 112 147 18 35 18 35 -5 15 -23 -20 -23 -20 -12 1 12 23 -9 56
-22 35 -3 -5 0 -11 6 -13 9 -3 4 -18 -16 -46 -16 -23 -33 -39 -38 -36 -5 3 -5
11 2 19 11 13 4 45 -10 45 -4 0 -11 -7 -14 -16 -9 -23 -8 -26 7 -18 10 6 10 4
0 -7 -18 -18 -16 -40 2 -33 9 4 15 0 15 -7 0 -8 14 2 31 21 34 39 29 27 -15
-38 -16 -23 -31 -40 -34 -37 -3 3 0 11 6 17 15 15 15 28 2 28 -6 0 -15 -11
-20 -25 -14 -37 -22 -30 -20 18 4 92 0 178 -8 173 -5 -3 -9 -67 -10 -143 -1
-76 -5 -152 -8 -169 -6 -31 -6 -31 121 -38 155 -9 152 -8 181 -70 30 -65 31
-86 2 -85 -13 0 -66 -2 -118 -6 -101 -8 -191 -7 -200 1 -3 3 -5 35 -6 70 -1
86 -10 90 -19 9 -8 -78 1 -94 54 -96 36 -2 36 -2 -4 -8 -22 -3 -35 -9 -30 -13
6 -3 30 -2 55 3 90 19 254 31 272 20 12 -7 18 -7 21 2 2 7 10 -15 16 -48 57
-274 166 -453 213 -350 12 27 -11 144 -33 171 -5 6 -21 45 -35 85 -33 97 -112
214 -154 230 -19 8 -55 118 -48 146 4 16 -1 19 -29 20 -57 2 -86 52 -48 83 9
7 31 44 49 81 19 37 35 66 38 64 2 -2 21 29 42 70 42 81 45 84 69 57 33 -36
11 -108 -53 -177 -47 -51 -61 -87 -49 -130 8 -26 8 -45 0 -61 -13 -28 5 -71
34 -78 11 -3 57 -6 102 -6 95 0 99 -4 83 -70 -11 -44 -15 -50 -38 -50 -15 0
-34 -5 -42 -11 -11 -8 -7 -9 18 -4 21 4 39 2 49 -7 12 -9 15 -9 9 0 -4 7 -2
12 5 12 8 0 10 -20 7 -71 -7 -98 27 -209 109 -346 59 -101 61 -113 23 -151
-62 -63 -110 -76 -232 -63 -60 5 -117 15 -128 21 -11 6 -68 15 -128 20 -59 5
-159 15 -222 23 -237 30 -427 16 -250 -18 19 -4 55 -18 80 -30 49 -25 140 -41
140 -25 0 6 -13 10 -28 10 -16 0 -37 7 -48 15 -10 8 -30 15 -44 15 -22 1 -23
2 -7 11 12 7 28 7 50 0 18 -5 68 -12 112 -14 44 -3 87 -7 95 -10 8 -3 69 -8
135 -11 148 -6 283 -23 353 -43 51 -14 227 -27 188 -13 -28 9 2 20 56 20 41 0
41 0 35 62 -6 66 -23 90 -57 81 -17 -5 -20 0 -20 28 0 50 -25 177 -44 229 -10
25 -20 53 -23 62 -11 37 -20 16 -12 -29 5 -26 6 -49 2 -52 -5 -3 -14 -18 -22
-33 -17 -34 -27 -29 -36 19 -4 21 -20 64 -36 96 -38 78 -38 108 1 74 13 -10
13 -10 2 3 -6 7 -12 33 -12 57 0 28 -4 43 -12 43 -7 0 -5 5 5 11 11 6 40 8 74
3 55 -7 55 -7 50 -58 -6 -51 -6 -51 18 2 13 29 31 59 39 67 8 8 20 28 28 45
19 44 33 37 31 -17 -1 -7 2 -11 6 -9 7 5 21 -41 42 -134 6 -30 16 -64 22 -75
6 -11 12 -49 12 -85 1 -36 12 -102 23 -148 27 -103 27 -102 0 -103 -21 0 -21
-1 -4 -8 13 -5 16 -10 8 -14 -16 -10 -42 -66 -42 -90 0 -12 10 -32 23 -45 22
-24 22 -24 -22 -21 -26 2 -46 -1 -48 -7 -5 -15 131 -18 157 -4 33 18 23 34
-41 69 -50 27 -58 36 -45 43 23 13 82 6 78 -9 -1 -7 2 -13 8 -13 5 0 10 -6 10
-14 0 -8 5 -18 10 -21 6 -4 10 12 10 40 0 39 -5 51 -34 78 -34 32 -65 124 -50
149 4 6 2 13 -4 17 -5 3 -13 31 -16 61 -5 39 -4 51 3 40 23 -33 10 46 -14 85
-14 22 -25 47 -25 55 1 8 8 2 16 -13 8 -16 24 -37 35 -48 27 -27 25 0 -2 36
-12 15 -23 42 -25 61 -2 18 -11 45 -20 59 -21 32 -21 32 56 42 65 8 65 8 62
71 -2 45 0 62 8 57 6 -4 8 -10 5 -14 -5 -5 166 -28 236 -32 11 0 15 -7 12 -20
-4 -13 0 -19 11 -19 9 0 16 -6 16 -14 0 -7 10 -14 23 -14 12 0 49 -8 82 -16
83 -23 238 -44 380 -52 120 -7 120 -7 117 55 -3 42 0 61 8 61 7 0 10 7 6 15
-3 8 -1 15 4 15 6 0 10 -7 10 -15 0 -8 9 -15 20 -15 18 0 19 5 16 63 -2 34 -4
79 -5 100 -1 28 -4 36 -13 31 -10 -6 -10 -5 -1 7 7 8 13 48 15 88 3 73 3 73
-40 75 -44 2 -44 2 -21 -15 13 -10 21 -21 17 -25 -4 -4 -14 -1 -23 6 -18 15
-20 -1 -3 -18 9 -9 9 -15 3 -20 -6 -4 -10 -19 -10 -34 1 -15 -3 -24 -7 -22 -4
3 -8 16 -8 30 0 13 -4 24 -10 24 -5 0 -7 -8 -3 -17 3 -10 -8 -2 -25 17 -39 44
-42 30 -3 -19 15 -20 34 -47 41 -60 7 -14 23 -35 36 -48 13 -13 24 -30 24 -38
0 -8 5 -15 10 -15 6 0 10 -7 10 -17 0 -14 -43 35 -75 86 -5 9 -29 39 -52 68
-24 28 -43 56 -43 62 0 6 -4 11 -10 11 -5 0 -10 -4 -10 -9 0 -6 5 -13 10 -16
6 -3 10 -11 10 -17 0 -15 -38 20 -45 41 -2 9 -14 22 -25 29 -20 12 -20 12 -5
-11 9 -14 13 -32 8 -42 -5 -14 -3 -17 10 -12 15 5 53 -33 81 -80 19 -33 -13
-8 -34 27 -28 45 -35 48 -43 20 -4 -14 -10 -18 -23 -13 -16 6 -16 7 2 14 10 4
14 8 7 8 -6 1 -20 17 -32 36 -11 19 -26 35 -32 35 -7 0 -4 -9 8 -22 30 -34 42
-57 20 -39 -10 8 -17 9 -17 3 0 -6 5 -14 10 -17 15 -9 12 -25 -6 -25 -8 0 -12
-4 -9 -10 12 -20 -6 -10 -30 16 -14 15 -25 23 -25 19 0 -5 7 -17 17 -27 18
-20 5 -25 -16 -5 -8 6 -5 -1 4 -16 15 -23 16 -30 6 -37 -14 -8 1 -48 23 -62 6
-4 7 -11 2 -15 -5 -4 -11 -3 -13 3 -5 14 -110 155 -125 169 -14 12 15 -37 47
-80 27 -36 48 -75 41 -75 -3 0 -31 36 -62 80 -31 45 -58 79 -61 76 -3 -2 16
-34 41 -70 25 -36 42 -66 36 -66 -5 0 -24 22 -42 50 -38 57 -49 60 -17 4 28
-49 60 -85 69 -79 4 3 13 -2 20 -10 23 -28 -21 -17 -52 12 -27 26 -41 21 -15
-6 10 -11 10 -14 0 -18 -7 -3 -13 -8 -13 -13 0 -4 6 -7 13 -6 16 1 16 -18 -1
-21 -8 -1 -18 12 -24 28 -5 16 -14 26 -20 23 -5 -3 -7 -12 -4 -20 3 -8 1 -14
-4 -14 -6 0 -10 5 -10 10 0 6 -6 10 -14 10 -9 0 -15 16 -18 48 -5 52 4 71 25
53 12 -9 13 -7 9 14 -2 14 -9 28 -15 32 -7 4 -8 -1 -3 -13 5 -12 4 -15 -2 -9
-6 6 -12 19 -15 30 -3 13 -6 8 -8 -15 -1 -23 -5 -10 -9 35 -5 58 -7 46 -8 -65
0 -84 3 -128 8 -115 9 20 9 20 15 0 4 -14 25 -26 68 -39 81 -25 82 -25 81 2
-1 31 28 29 62 -5 18 -18 29 -23 32 -15 5 15 32 15 69 1 15 -7 60 -11 99 -10
72 3 72 3 69 -31 -2 -18 -4 -41 -4 -51 -1 -10 -7 -17 -13 -16 -35 4 -50 -4
-18 -11 33 -7 31 -7 -18 -9 -34 -1 -51 3 -50 10 2 6 -3 14 -11 17 -8 3 -11 0
-7 -7 5 -7 -4 -11 -26 -10 -30 1 -31 2 -8 8 58 16 -21 22 -82 6 -22 -6 -28 -4
-28 10 0 9 -5 13 -10 10 -6 -4 -8 -10 -6 -14 6 -9 -102 -1 -129 10 -12 5 -2 6
28 3 33 -3 47 -1 42 6 -3 5 -21 10 -40 10 -38 0 -48 9 -35 30 8 12 13 13 30 3
26 -17 35 -16 17 1 -8 8 -20 15 -28 16 -26 4 -49 0 -48 -7 4 -28 -2 -47 -10
-33 -6 8 -7 19 -5 25 3 5 -3 1 -13 -10 -19 -21 -69 -23 -88 -3 -7 7 -6 9 1 5
7 -4 9 3 6 20 -5 27 -5 27 -13 4 -13 -35 -29 -15 -29 37 0 36 -3 43 -12 34
-22 -22 -32 -12 -10 11 20 22 22 33 22 158 0 74 4 149 9 167 13 44 3 132 -15
132 -19 0 -18 -57 0 -67 12 -7 12 -17 4 -55 -10 -42 -13 -46 -30 -37 -17 9
-18 8 -7 -9 10 -16 9 -25 -5 -49 -17 -28 -17 -28 8 2 17 20 26 25 26 14 0 -8
-10 -26 -21 -38 -22 -23 -22 -23 0 -16 28 9 27 -3 -4 -27 -14 -11 -25 -26 -25
-34 0 -8 -5 -14 -12 -14 -6 0 -8 -3 -4 -7 4 -4 16 3 26 17 21 28 29 24 36 -19
4 -25 2 -30 -11 -25 -9 4 -14 13 -11 21 4 8 1 11 -5 8 -6 -4 -8 -14 -4 -23 3
-8 -4 -25 -16 -39 -13 -12 -18 -23 -12 -23 6 0 16 7 23 15 15 18 40 20 40 3
-1 -18 -27 -51 -43 -54 -6 -2 -22 -6 -34 -10 -14 -4 -23 -2 -23 5 0 16 -17 13
-24 -5 -3 -8 -2 -12 4 -9 6 3 10 1 10 -5 0 -6 5 -8 10 -5 6 3 10 1 10 -4 0 -6
-14 -9 -32 -7 -18 3 -43 5 -55 5 -13 1 -23 6 -23 11 0 6 11 8 25 4 19 -5 25
-2 25 9 0 17 -37 20 -57 4 -9 -7 -13 -5 -13 6 0 8 -6 18 -12 20 -10 4 -9 8 2
16 10 7 11 11 3 11 -17 0 -16 18 2 36 15 15 7 49 -15 64 -10 7 -21 98 -12 103
4 2 2 2 -5 1 -6 -2 -15 12 -19 29 -12 56 -43 106 -69 113 -14 3 -22 10 -19 15
3 5 10 7 15 3 5 -3 9 -2 8 3 -7 42 41 61 88 33 19 -11 43 -20 53 -20 10 0 25
-7 34 -15 9 -9 31 -14 58 -13 40 1 40 2 9 5 -19 3 -44 11 -55 19 -11 8 -30 14
-41 14 -11 1 -33 12 -50 25 -34 28 -28 33 55 38 55 3 55 3 -7 5 -47 2 -70 -3
-98 -19 -31 -19 -34 -19 -28 -3 4 11 3 15 -5 10 -13 -8 -19 14 -25 92 -2 30
-11 60 -21 71 -14 15 -15 24 -6 40 13 26 3 28 -17 4 -8 -10 -12 -12 -8 -5 3 6
1 12 -4 12 -6 0 -11 -4 -11 -8 0 -23 -83 -92 -110 -92 -17 0 -30 5 -30 11 0 6
9 9 19 6 26 -6 43 6 35 27 -5 14 -9 14 -23 4 -14 -12 -14 -11 -3 4 8 10 19 16
25 15 7 -1 12 5 12 13 0 8 -11 17 -24 18 -16 3 -21 0 -16 -9 5 -8 4 -10 -4 -5
-6 4 -9 11 -6 16 3 4 -1 11 -7 14 -7 3 3 4 22 2 19 -2 27 -1 17 1 -9 2 -24 18
-33 35 -12 24 -18 28 -25 17 -5 -9 -9 -10 -9 -2 0 6 -3 20 -6 30 -4 11 8 4 29
-18 31 -33 118 -65 102 -38 -4 5 -17 9 -30 9 -26 0 -85 55 -85 80 0 8 10 21
21 29 18 11 19 15 8 23 -10 6 -3 7 21 4 19 -3 29 -3 22 0 -6 3 -9 11 -5 17 4
7 0 8 -13 3 -14 -5 -16 -4 -8 4 14 14 104 -9 104 -26 0 -7 -9 -10 -22 -8 -16
3 -15 1 5 -7 33 -13 31 -36 -3 -31 -14 2 -20 0 -16 -7 4 -6 16 -11 27 -11 24
0 25 -25 0 -73 -19 -36 -19 -37 0 -37 12 0 23 10 29 25 6 16 15 23 24 19 13
-5 14 0 6 28 -6 18 -11 46 -11 63 -1 30 -1 30 -9 0 -8 -30 -8 -30 -9 8 -1 42
-68 121 -95 111 -8 -3 -17 -1 -21 5 -3 6 -1 11 4 11 6 0 11 5 11 10 0 20 -21
9 -31 -17 -14 -37 -28 -18 -31 42 -3 50 -3 50 72 48 73 -1 74 -1 20 6 -78 11
-101 20 -98 38 2 9 -2 18 -7 19 -6 3 -9 -25 -7 -77z m99 -106 c-4 -3 -10 -3
-14 0 -3 4 0 7 7 7 7 0 10 -3 7 -7z m28 -13 c3 -5 4 -10 1 -10 -3 0 -8 5 -11
10 -3 6 -4 10 -1 10 3 0 8 -4 11 -10z m-109 -241 c20 -22 17 -34 -3 -18 -11
10 -14 10 -9 2 4 -7 2 -13 -3 -13 -6 0 -12 7 -12 15 -3 28 -4 33 -11 41 -5 4
-8 26 -7 48 1 41 1 41 16 -9 8 -27 21 -57 29 -66z m161 74 c-4 -3 -7 0 -7 7 0
7 3 10 7 7 3 -4 3 -10 0 -14z m-160 -30 c-4 -3 -7 0 -7 7 0 7 3 10 7 7 3 -4 3
-10 0 -14z m-82 -82 c-3 -6 -11 -11 -17 -11 -6 0 -6 6 2 15 14 17 26 13 15 -4z
m245 -16 c12 -15 24 -123 22 -213 -1 -51 -42 -128 -102 -190 -23 -24 -40 -46
-37 -49 7 -7 75 69 112 125 28 43 30 44 33 22 5 -47 32 -105 57 -123 14 -10
25 -13 25 -8 0 5 -9 16 -20 24 -11 8 -17 17 -13 20 3 4 1 7 -6 7 -8 0 -11 6
-7 16 4 10 2 13 -6 8 -8 -5 -9 -2 -5 9 3 10 3 17 -2 17 -16 0 -19 61 -4 67 30
12 62 -63 83 -195 17 -100 11 -108 -83 -118 -177 -18 -259 -7 -312 42 -24 22
-26 29 -19 72 3 26 11 53 17 60 5 7 7 28 4 48 -5 31 -4 34 14 30 10 -4 29 -9
42 -12 12 -4 18 -3 14 2 -5 5 -25 14 -45 20 -25 7 -37 16 -36 27 2 14 -1 15
-25 3 -32 -17 -69 -56 -52 -56 6 0 14 7 17 15 6 15 34 22 34 8 0 -50 -126
-207 -158 -196 -14 4 -13 3 3 -10 19 -15 21 -14 37 6 10 12 18 26 18 31 0 4 6
6 14 3 8 -3 17 3 21 16 8 22 8 22 12 0 2 -13 8 -23 12 -23 12 0 9 34 -3 42 -7
4 -4 13 7 26 9 10 17 24 17 30 0 6 5 14 11 18 13 7 9 -23 -7 -61 -7 -17 -6
-18 8 -7 15 12 15 9 6 -28 -6 -22 -14 -40 -18 -40 -4 0 -10 -9 -13 -20 -3 -12
-1 -17 5 -14 5 3 12 -3 15 -15 3 -12 10 -21 17 -22 6 -1 0 -4 -14 -8 -20 -6
-24 -13 -22 -34 1 -15 -2 -27 -7 -27 -6 0 -8 7 -5 15 4 8 1 15 -5 15 -6 0 -11
-7 -11 -16 0 -8 -4 -12 -10 -9 -6 4 -4 18 7 38 15 30 15 31 0 18 -18 -14 -20
-12 -11 13 4 11 11 13 30 6 13 -5 24 -6 24 -1 0 5 -9 11 -20 14 -11 3 -24 16
-29 29 -10 23 -10 23 -10 -4 -2 -57 -42 -83 -56 -37 -5 15 -10 18 -18 10 -15
-15 -37 5 -37 33 0 17 -2 18 -10 6 -8 -12 -10 -9 -10 12 0 14 -5 28 -11 30
-13 4 25 73 58 105 43 41 71 164 41 176 -8 4 -7 6 3 6 9 1 19 -8 22 -18 2 -10
14 -24 26 -30 18 -10 21 -9 21 10 0 26 44 19 73 -12 10 -10 25 -19 35 -19 12
1 9 5 -10 15 -20 11 -25 20 -21 37 4 18 2 20 -5 9 -9 -12 -14 -12 -36 2 -14
10 -25 21 -24 25 1 4 -4 20 -11 36 -6 16 -10 36 -9 45 2 9 12 -10 23 -42 17
-51 35 -75 35 -46 0 5 4 8 10 4 5 -3 7 16 4 49 -6 53 -5 54 38 94 43 41 43 41
66 11 33 -42 87 -34 136 20 23 25 30 26 46 6z m-346 -41 c18 -17 22 -49 5 -39
-6 4 -8 10 -5 13 3 3 -1 14 -11 24 -20 22 -11 24 11 2z m43 -1 c-4 -3 -10 -3
-14 0 -3 4 0 7 7 7 7 0 10 -3 7 -7z m-80 -50 c-4 -3 -7 0 -7 7 0 7 3 10 7 7 3
-4 3 -10 0 -14z m-22 -75 c-27 -20 -35 15 -13 55 12 21 13 21 18 -13 3 -19 1
-38 -5 -42z m49 -5 c4 -13 3 -23 -2 -23 -8 0 -33 66 -32 86 1 12 25 -34 34
-63z m53 50 c-4 -3 -7 0 -7 7 0 7 3 10 7 7 3 -4 3 -10 0 -14z m0 -40 c-4 -3
-7 0 -7 7 0 7 3 10 7 7 3 -4 3 -10 0 -14z m-145 -15 c-7 -7 -12 -8 -12 -2 0
14 12 26 19 19 2 -3 -1 -11 -7 -17z m73 -28 c3 -5 1 -10 -4 -10 -6 0 -11 5
-11 10 0 6 2 10 4 10 3 0 8 -4 11 -10z m782 -12 c-3 -8 -6 -5 -6 6 -1 11 2 17
5 13 3 -3 4 -12 1 -19z m-695 -140 c-7 -7 -12 -8 -12 -2 0 14 12 26 19 19 2
-3 -1 -11 -7 -17z m18 -22 c0 -3 -4 -8 -10 -11 -5 -3 -10 -1 -10 4 0 6 5 11
10 11 6 0 10 -2 10 -4z m1340 -28 c0 -26 -9 -19 -15 11 -2 12 0 19 6 16 5 -4
9 -16 9 -27z m-90 -145 c0 -6 4 -13 8 -15 4 -1 20 -19 35 -39 32 -43 37 -71 7
-44 -11 10 -20 22 -20 27 0 4 -25 42 -55 83 -30 40 -55 78 -55 82 0 12 79 -81
80 -94z m87 80 c-4 -3 -7 0 -7 7 0 7 3 10 7 7 3 -4 3 -10 0 -14z m-192 -33 c3
-5 1 -10 -4 -10 -6 0 -11 5 -11 10 0 6 2 10 4 10 3 0 8 -4 11 -10z m180 0 c-4
-6 -11 -8 -16 -5 -15 10 -10 -7 8 -27 25 -28 6 -35 -23 -7 -23 22 -24 24 -8
36 21 15 48 17 39 3z m-240 -10 c3 -5 2 -10 -4 -10 -5 0 -13 5 -16 10 -3 6 -2
10 4 10 5 0 13 -4 16 -10z m35 -10 c0 -5 -2 -10 -4 -10 -3 0 -8 5 -11 10 -3 6
-1 10 4 10 6 0 11 -4 11 -10z m-1134 -27 c-7 -7 -26 7 -26 19 0 6 6 6 15 -2 9
-7 13 -15 11 -17z m454 18 c0 -6 -4 -13 -10 -16 -5 -3 -10 1 -10 9 0 9 5 16
10 16 6 0 10 -4 10 -9z m614 -34 c14 -20 22 -37 18 -37 -4 0 -13 9 -20 21 -7
12 -16 18 -19 15 -3 -3 0 -12 7 -21 7 -8 8 -15 2 -15 -18 0 -37 31 -24 39 8 4
10 16 6 27 -9 25 -1 17 30 -29z m33 8 c15 -32 0 -32 -21 0 -12 18 -13 25 -4
25 7 0 18 -11 25 -25z m89 17 c6 -4 17 -18 24 -32 8 -15 15 -20 18 -12 2 7 -2
20 -10 30 -12 16 -11 16 6 2 10 -8 36 -41 58 -73 40 -59 40 -59 7 -52 -19 4
-35 10 -37 14 -9 24 -80 115 -92 119 -13 5 -13 3 -1 -12 12 -14 12 -16 -3 -10
-17 6 -20 16 -9 27 8 9 25 9 39 -1z m-1358 -38 c6 3 12 -3 15 -13 4 -17 1 -18
-17 -12 -11 5 -30 5 -41 0 -28 -11 -43 -11 -26 0 12 8 12 12 2 24 -17 22 8 28
36 10 12 -8 26 -12 31 -9z m-274 0 c4 -9 4 -19 1 -22 -3 -3 -5 0 -5 7 0 7 -7
11 -14 8 -10 -4 -13 -1 -9 9 7 19 19 18 27 -2z m1664 -54 c12 -15 22 -33 22
-39 0 -6 5 -11 10 -11 6 0 10 -5 10 -11 0 -18 -64 -6 -68 14 -2 10 3 17 12 17
9 0 16 5 16 10 0 6 -6 10 -12 9 -33 -4 -41 1 -28 16 10 12 7 17 -15 27 -24 11
-25 13 -8 19 11 5 22 2 28 -8 6 -9 20 -28 33 -43z m-1544 39 c8 12 26 15 26 4
0 -5 -4 -14 -9 -22 -11 -16 -41 1 -41 23 0 6 4 5 9 -3 6 -9 11 -10 15 -2z
m716 -18 c0 -16 3 -36 6 -45 3 -9 1 -16 -5 -16 -7 0 -22 -12 -35 -27 -26 -30
-57 -28 -97 8 -25 22 -13 23 34 4 10 -4 17 -3 17 3 0 6 -8 13 -17 15 -11 3 -5
5 12 6 30 2 30 2 -10 20 -40 19 -40 19 -10 20 22 1 26 4 15 10 -8 6 -19 7 -25
4 -7 -4 -7 -2 0 5 11 11 42 18 88 21 24 1 27 -3 27 -28z m36 4 c4 -14 3 -29 0
-33 -9 -8 -26 18 -26 41 0 26 19 20 26 -8z m371 8 c-4 -3 -7 0 -7 7 0 7 3 10
7 7 3 -4 3 -10 0 -14z m-910 -25 c-3 -8 -6 -5 -6 6 -1 11 2 17 5 13 3 -3 4
-12 1 -19z m256 15 c-7 -2 -19 -2 -25 0 -7 3 -2 5 12 5 14 0 19 -2 13 -5z
m-668 -13 c3 -5 1 -10 -4 -10 -6 0 -11 5 -11 10 0 6 2 10 4 10 3 0 8 -4 11
-10z m32 -7 c-4 -3 -7 0 -7 7 0 7 3 10 7 7 3 -4 3 -10 0 -14z m90 -9 c-9 -9
-28 6 -21 18 4 6 10 6 17 -1 6 -6 8 -13 4 -17z m207 19 c-5 -5 -12 -12 -16
-18 -4 -6 -8 -2 -8 8 0 9 7 17 17 17 9 0 12 -3 7 -7z m321 -14 c5 -5 -17 -9
-53 -9 -49 0 -62 -3 -62 -15 0 -14 10 -15 63 -9 76 8 72 2 -14 -24 -67 -19
-67 -19 -67 15 0 50 21 65 77 57 25 -3 50 -10 56 -15z m-488 4 c-4 -3 -10 -3
-14 0 -3 4 0 7 7 7 7 0 10 -3 7 -7z m200 -20 c-4 -3 -7 0 -7 7 0 7 3 10 7 7 3
-4 3 -10 0 -14z m1280 10 c-4 -3 -10 -3 -14 0 -3 4 0 7 7 7 7 0 10 -3 7 -7z
m-867 -17 c0 -2 -7 -7 -16 -10 -8 -3 -12 -2 -9 4 6 10 25 14 25 6z m379 -25
c-15 -5 -22 6 -14 19 6 9 10 9 16 -1 5 -8 4 -15 -2 -18z m544 22 c3 -5 -4 -17
-14 -27 -17 -18 -19 -18 -25 -1 -9 22 27 48 39 28z m177 -28 c0 -8 -2 -15 -4
-15 -2 0 -6 7 -10 15 -3 8 -1 15 4 15 6 0 10 -7 10 -15z m-952 -26 c-4 -29
-33 -48 -49 -32 -10 10 -8 17 6 33 24 27 47 26 43 -1z m-293 -9 c3 -5 1 -10
-5 -10 -6 0 -8 -4 -5 -10 4 -6 -6 -10 -22 -10 -15 0 -46 -3 -68 -7 -35 -6 -38
-5 -25 8 36 36 110 53 125 29z m213 -10 c12 0 13 -3 5 -11 -8 -8 -17 -7 -35 6
-16 12 -18 16 -5 11 10 -3 26 -6 35 -6z m-525 -46 c28 -38 30 -64 4 -64 -20 1
-21 2 -5 14 15 11 16 15 3 32 -13 18 -14 18 -8 -3 3 -14 1 -23 -6 -23 -6 0
-11 6 -11 13 0 6 -3 22 -6 35 -8 29 6 28 29 -4z m583 8 c-16 -2 -32 0 -37 5
-5 5 7 7 29 4 34 -5 35 -6 8 -9z m-359 -9 c-4 -3 -10 -3 -14 0 -3 4 0 7 7 7 7
0 10 -3 7 -7z m-163 -98 c30 -32 116 -254 116 -297 -1 -82 -37 -75 -87 18 -55
100 -91 230 -79 279 8 32 21 32 50 0z m274 -227 c0 -7 5 -38 10 -68 5 -30 7
-60 5 -67 -3 -7 0 -13 6 -13 6 0 11 -12 11 -27 0 -26 0 -26 -21 -7 -31 28 -61
91 -48 100 6 3 16 1 22 -6 9 -10 9 -11 -3 -5 -13 8 -13 7 -1 -8 7 -9 17 -17
22 -17 12 0 -7 47 -32 79 -18 22 -19 26 -5 29 9 2 16 8 16 13 0 14 17 11 18
-3z m103 -255 c11 -29 0 -43 -33 -43 -10 0 -18 -6 -18 -13 0 -9 10 -12 30 -9
18 3 30 0 30 -7 0 -6 -17 -11 -39 -11 -39 0 -39 0 -30 38 4 20 8 38 9 40 0 1
0 9 0 17 0 26 40 17 51 -12z m142 10 c-3 -7 -9 -10 -14 -7 -14 8 -11 21 5 21
8 0 12 -6 9 -14z m-217 -20 c-2 -16 -6 -26 -10 -23 -4 3 -12 -3 -17 -13 -6 -9
-14 -15 -19 -12 -4 3 -10 -2 -14 -10 -3 -8 -13 -15 -23 -15 -15 0 -16 -2 -3
-10 26 -16 5 -19 -45 -6 -40 11 -46 15 -30 21 52 18 106 48 127 70 30 32 37
31 34 -2z m-1003 10 c-7 -2 -21 -2 -30 0 -10 3 -4 5 12 5 17 0 24 -2 18 -5z
m160 -10 c-7 -2 -21 -2 -30 0 -10 3 -4 5 12 5 17 0 24 -2 18 -5z m137 -13 c0
-9 -81 -1 -92 9 -4 3 15 4 42 3 28 -2 50 -8 50 -12z m947 13 c-4 -3 -10 -3
-14 0 -3 4 0 7 7 7 7 0 10 -3 7 -7z m-752 -28 c6 -2 -26 -4 -70 -4 -44 0 -86
3 -93 8 -12 7 140 4 163 -4z m63 -12 c-10 -2 -26 -2 -35 0 -10 3 -2 5 17 5 19
0 27 -2 18 -5z m637 -33 c3 -6 -1 -7 -9 -4 -18 7 -21 14 -7 14 6 0 13 -4 16
-10z"/>
<path d="M1197 1798 c-8 -12 -25 -54 -37 -93 -25 -82 -66 -158 -127 -236 -52
-67 -52 -72 -9 -93 35 -16 136 -22 136 -8 0 5 -20 7 -44 5 -97 -7 -125 27 -72
88 42 49 116 191 141 269 10 30 22 61 28 68 5 7 7 15 4 18 -3 3 -12 -5 -20
-18z"/>
<path d="M1020 1781 c0 -5 5 -13 10 -16 6 -3 10 -2 10 4 0 5 -4 13 -10 16 -5
3 -10 2 -10 -4z"/>
<path d="M1205 1733 c-10 -27 -29 -70 -42 -96 -13 -27 -22 -51 -20 -53 7 -7
74 129 80 164 9 45 3 40 -18 -15z"/>
<path d="M1030 1733 c0 -28 18 -87 33 -107 12 -16 14 -16 42 8 16 14 26 28 23
31 -3 3 -13 -1 -22 -10 -25 -26 -44 -11 -51 40 -7 45 -25 73 -25 38z"/>
<path d="M914 1588 c-4 -7 -3 -8 4 -4 7 4 12 9 12 12 0 8 -9 4 -16 -8z"/>
<path d="M1010 1574 c-24 -9 -29 -13 -14 -13 11 -1 29 6 40 14 22 17 20 17
-26 -1z"/>
<path d="M840 1530 c0 -7 3 -10 7 -7 3 4 3 10 0 14 -4 3 -7 0 -7 -7z"/>
<path d="M840 1479 c0 -5 5 -7 10 -4 6 3 10 8 10 11 0 2 -4 4 -10 4 -5 0 -10
-5 -10 -11z"/>
<path d="M803 1423 c4 -3 10 -3 14 0 3 4 0 7 -7 7 -7 0 -10 -3 -7 -7z"/>
<path d="M725 1390 c-19 -8 -19 -9 3 -9 12 -1 22 4 22 9 0 6 -1 10 -2 9 -2 0
-12 -4 -23 -9z"/>
<path d="M760 1379 c0 -5 5 -7 10 -4 6 3 10 8 10 11 0 2 -4 4 -10 4 -5 0 -10
-5 -10 -11z"/>
<path d="M1220 1359 c-25 -11 -70 -24 -100 -28 -55 -9 -55 -9 -5 -10 30 0 67
7 94 19 24 11 64 20 90 21 38 1 42 2 21 9 -37 12 -51 10 -100 -11z"/>
<path d="M1001 1336 c2 -2 15 -9 29 -16 23 -12 24 -12 11 3 -7 10 -20 17 -29
17 -8 0 -13 -2 -11 -4z"/>
<path d="M817 1303 c-4 -3 -7 -11 -7 -17 0 -6 5 -5 12 2 6 6 9 14 7 17 -3 3
-9 2 -12 -2z"/>
<path d="M1088 1293 c7 -3 16 -2 19 1 4 3 -2 6 -13 5 -11 0 -14 -3 -6 -6z"/>
<path d="M1123 1283 c4 -3 10 -3 14 0 3 4 0 7 -7 7 -7 0 -10 -3 -7 -7z"/>
<path d="M2140 1170 c0 -5 7 -10 15 -10 8 0 15 5 15 10 0 6 -7 10 -15 10 -8 0
-15 -4 -15 -10z"/>
<path d="M1265 1160 c-3 -5 -2 -10 4 -10 5 0 13 5 16 10 3 6 2 10 -4 10 -5 0
-13 -4 -16 -10z"/>
<path d="M1290 1120 c0 -5 7 -10 16 -10 8 0 12 5 9 10 -3 6 -10 10 -16 10 -5
0 -9 -4 -9 -10z"/>
<path d="M1044 718 c-4 -7 -3 -8 4 -4 12 7 16 16 8 16 -3 0 -8 -5 -12 -12z"/>
<path d="M1138 473 c7 -3 16 -2 19 1 4 3 -2 6 -13 5 -11 0 -14 -3 -6 -6z"/>
<path d="M2174 2338 c-4 -7 -3 -8 4 -4 12 7 16 16 8 16 -3 0 -8 -5 -12 -12z"/>
<path d="M1090 2328 c0 -4 21 -8 48 -7 52 1 48 6 -10 11 -21 2 -38 0 -38 -4z"/>
<path d="M808 2323 c6 -2 18 -2 25 0 6 3 1 5 -13 5 -14 0 -19 -2 -12 -5z"/>
<path d="M738 2313 c7 -3 16 -2 19 1 4 3 -2 6 -13 5 -11 0 -14 -3 -6 -6z"/>
<path d="M928 2310 c25 -10 28 -29 10 -50 -11 -12 -10 -12 4 -1 14 10 17 9 21
-6 2 -10 4 -2 4 17 0 38 -10 50 -42 49 -18 0 -18 -1 3 -9z"/>
<path d="M1318 2313 c7 -3 16 -2 19 1 4 3 -2 6 -13 5 -11 0 -14 -3 -6 -6z"/>
<path d="M2156 2311 c-4 -7 -5 -15 -2 -18 9 -9 19 4 14 18 -4 11 -6 11 -12 0z"/>
<path d="M1393 2303 c9 -2 23 -2 30 0 6 3 -1 5 -18 5 -16 0 -22 -2 -12 -5z"/>
<path d="M1658 2303 c6 -2 12 -18 12 -33 0 -16 5 -32 10 -35 7 -4 9 3 5 22
-11 47 -14 53 -27 52 -10 0 -10 -2 0 -6z"/>
<path d="M2131 2294 c0 -11 3 -14 6 -6 3 7 2 16 -1 19 -3 4 -6 -2 -5 -13z"/>
<path d="M1253 2273 c9 -2 23 -2 30 0 6 3 -1 5 -18 5 -16 0 -22 -2 -12 -5z"/>
<path d="M1798 2265 c5 -11 7 -26 5 -33 -3 -7 13 -35 36 -62 22 -26 50 -64 62
-84 11 -20 23 -36 25 -36 10 0 -15 43 -62 106 -56 74 -69 101 -34 69 32 -29
23 -7 -11 28 -19 20 -27 24 -21 12z"/>
<path d="M840 2260 c0 -7 3 -10 7 -7 3 4 3 10 0 14 -4 3 -7 0 -7 -7z"/>
<path d="M1343 2263 c15 -2 37 -2 50 0 12 2 0 4 -28 4 -27 0 -38 -2 -22 -4z"/>
<path d="M1489 2247 c7 -7 14 -8 21 -1 6 6 2 10 -12 11 -16 2 -18 -1 -9 -10z"/>
<path d="M1628 2191 c3 -40 -1 -67 -11 -83 -18 -28 -31 -82 -19 -74 5 3 12 20
16 38 5 26 9 30 16 18 7 -10 10 5 10 50 0 36 3 75 6 88 4 15 2 22 -7 22 -11 0
-13 -14 -11 -59z"/>
<path d="M2120 2240 c0 -7 3 -10 7 -7 3 4 3 10 0 14 -4 3 -7 0 -7 -7z"/>
<path d="M2053 2205 c0 -22 2 -30 4 -17 2 12 2 30 0 40 -3 9 -5 -1 -4 -23z"/>
<path d="M2141 2223 c-1 -18 19 -27 32 -13 9 10 8 12 -5 7 -9 -3 -19 -1 -22 6
-3 9 -5 9 -5 0z"/>
<path d="M2120 2210 c0 -7 3 -10 7 -7 3 4 3 10 0 14 -4 3 -7 0 -7 -7z"/>
<path d="M2360 2213 c0 -6 4 -15 10 -18 9 -6 109 -136 124 -162 19 -34 -15 -7
-44 35 -56 78 -102 133 -109 127 -3 -3 -1 -9 5 -13 5 -4 34 -41 63 -82 56 -78
78 -101 122 -124 26 -13 26 -13 28 45 0 32 -4 61 -9 64 -6 4 -33 36 -60 72
-28 36 -50 61 -50 56 0 -6 25 -43 55 -82 30 -39 55 -74 55 -78 0 -13 -43 34
-87 95 -25 35 -47 61 -50 58 -3 -3 27 -47 66 -99 39 -51 71 -97 71 -103 0 -11
-71 68 -108 121 -37 55 -82 103 -82 88z"/>
<path d="M304 2153 c-4 -32 -8 -72 -8 -90 -1 -18 -5 -35 -9 -39 -12 -12 -8
-26 5 -18 8 5 9 2 5 -10 -4 -10 -3 -16 3 -14 10 3 25 228 16 228 -3 0 -8 -26
-12 -57z"/>
<path d="M2298 2102 c43 -53 93 -118 111 -144 17 -27 37 -48 43 -48 7 0 6 5
-2 15 -31 37 12 11 45 -27 23 -27 32 -34 24 -18 -7 14 -31 48 -54 75 -22 28
-65 83 -94 123 -30 40 -56 70 -59 67 -3 -3 8 -22 24 -43 48 -59 77 -103 72
-107 -2 -3 -40 40 -83 95 -43 54 -84 101 -92 104 -7 3 22 -38 65 -92z m146
-151 c-6 -6 -34 20 -34 32 0 6 8 2 19 -9 10 -10 17 -21 15 -23z"/>
<path d="M2146 2181 c-4 -6 -2 -18 4 -26 6 -8 8 -19 4 -26 -11 -19 -14 -68 -5
-74 13 -8 24 86 13 114 -6 17 -11 21 -16 12z"/>
<path d="M2317 2178 c6 -7 49 -66 97 -130 47 -65 90 -118 96 -118 11 0 -182
259 -194 259 -5 1 -4 -5 1 -11z"/>
<path d="M1795 2152 c0 -16 8 -36 18 -46 9 -10 17 -13 17 -7 0 5 -4 13 -10 16
-5 3 -10 19 -10 36 0 16 -3 29 -7 29 -5 0 -8 -13 -8 -28z"/>
<path d="M2121 2133 c0 -29 3 -53 7 -53 4 0 6 17 4 38 -6 64 -10 69 -11 15z"/>
<path d="M382 2135 c0 -16 2 -22 5 -12 2 9 2 23 0 30 -3 6 -5 -1 -5 -18z"/>
<path d="M2210 2134 c0 -6 33 -53 73 -106 109 -143 157 -201 157 -190 0 6 -16
30 -36 54 -20 23 -68 86 -107 138 -81 111 -87 118 -87 104z"/>
<path d="M960 2120 c0 -7 3 -10 7 -7 3 4 3 10 0 14 -4 3 -7 0 -7 -7z"/>
<path d="M2265 2105 c42 -67 196 -265 207 -265 9 0 -174 244 -205 275 -20 20
-20 20 -2 -10z"/>
<path d="M948 2052 c5 -96 10 -108 11 -27 0 39 -3 76 -7 82 -4 7 -6 -18 -4
-55z"/>
<path d="M1770 2110 c0 -7 3 -10 7 -7 3 4 3 10 0 14 -4 3 -7 0 -7 -7z"/>
<path d="M1501 2094 c0 -11 3 -14 6 -6 3 7 2 16 -1 19 -3 4 -6 -2 -5 -13z"/>
<path d="M1080 2060 c-27 -9 -28 -8 38 -15 13 -1 22 3 22 11 0 15 -21 16 -60
4z"/>
<path d="M1633 2035 c0 -22 2 -30 4 -17 2 12 2 30 0 40 -3 9 -5 -1 -4 -23z"/>
<path d="M1740 2060 c0 -5 5 -10 11 -10 5 0 7 5 4 10 -3 6 -8 10 -11 10 -2 0
-4 -4 -4 -10z"/>
<path d="M442 2040 c0 -14 2 -19 5 -12 2 6 2 18 0 25 -3 6 -5 1 -5 -13z"/>
<path d="M481 2055 c-9 -41 -9 -67 0 -58 6 6 9 23 6 39 -2 16 -5 25 -6 19z"/>
<path d="M1825 2050 c3 -5 8 -10 11 -10 3 0 2 5 -1 10 -3 6 -8 10 -11 10 -3 0
-2 -4 1 -10z"/>
<path d="M2245 2033 c26 -41 116 -153 122 -153 3 0 1 6 -4 13 -111 150 -166
214 -118 140z"/>
<path d="M381 2034 c0 -11 3 -14 6 -6 3 7 2 16 -1 19 -3 4 -6 -2 -5 -13z"/>
<path d="M1554 2015 c-9 -22 -18 -55 -20 -74 -2 -20 -2 -29 2 -21 39 99 46
122 40 127 -3 3 -13 -11 -22 -32z"/>
<path d="M341 2024 c0 -11 3 -14 6 -6 3 7 2 16 -1 19 -3 4 -6 -2 -5 -13z"/>
<path d="M2047 1978 c7 -78 11 -82 12 -10 1 34 -3 62 -8 62 -4 0 -6 -24 -4
-52z"/>
<path d="M1324 1998 c-4 -7 -3 -8 4 -4 7 4 12 9 12 12 0 8 -9 4 -16 -8z"/>
<path d="M1130 1990 c0 -5 7 -10 16 -10 8 0 12 5 9 10 -3 6 -10 10 -16 10 -5
0 -9 -4 -9 -10z"/>
<path d="M1628 1963 c-2 -16 -1 -57 3 -93 6 -64 6 -64 7 28 2 91 -2 117 -10
65z"/>
<path d="M301 1954 c0 -11 3 -14 6 -6 3 7 2 16 -1 19 -3 4 -6 -2 -5 -13z"/>
<path d="M1264 1936 c2 -20 12 -33 32 -44 26 -14 28 -14 16 1 -11 13 -10 16
10 20 21 4 21 4 -3 6 -15 0 -33 11 -42 24 -15 22 -15 22 -13 -7z"/>
<path d="M1897 1939 c12 -12 25 -20 28 -17 3 3 -7 13 -22 23 -28 17 -28 17 -6
-6z"/>
<path d="M2276 1947 c3 -10 9 -15 12 -12 3 3 0 11 -7 18 -10 9 -11 8 -5 -6z"/>
<path d="M1554 1938 c-4 -7 -3 -8 4 -4 12 7 16 16 8 16 -3 0 -8 -5 -12 -12z"/>
<path d="M1720 1919 c0 -17 7 -37 15 -45 18 -18 18 -14 5 20 -8 21 -7 24 8 19
15 -6 15 -4 -2 15 -25 28 -26 28 -26 -9z"/>
<path d="M1853 1943 c4 -3 10 -3 14 0 3 4 0 7 -7 7 -7 0 -10 -3 -7 -7z"/>
<path d="M1770 1933 c0 -5 9 -18 20 -28 11 -10 20 -14 20 -8 0 5 -9 18 -20 28
-11 10 -20 14 -20 8z"/>
<path d="M1352 1905 c-16 -19 -3 -19 22 0 14 11 16 15 5 15 -8 -1 -20 -7 -27
-15z"/>
<path d="M1396 1905 c-17 -13 -18 -15 -3 -15 9 0 17 5 17 10 0 6 7 10 16 10 8
0 12 -4 9 -10 -3 -5 -1 -10 4 -10 6 0 11 4 11 10 0 5 6 7 14 4 8 -3 16 -1 19
3 10 16 -67 13 -87 -2z"/>
<path d="M1559 1900 c-24 -21 -24 -21 11 -4 43 21 47 24 28 24 -9 0 -26 -9
-39 -20z"/>
<path d="M2118 1841 c-2 -43 0 -92 3 -107 4 -16 7 19 8 79 1 124 -6 144 -11
28z"/>
<path d="M2300 1916 c0 -2 8 -10 18 -17 15 -13 16 -12 3 4 -13 16 -21 21 -21
13z"/>
<path d="M2490 1862 c6 -13 14 -21 18 -18 3 4 -2 14 -12 24 -18 16 -18 16 -6
-6z"/>
<path d="M2380 1865 c0 -4 11 -20 25 -37 14 -16 25 -26 25 -23 0 4 -11 20 -25
37 -14 16 -25 26 -25 23z"/>
<path d="M2055 1821 c-3 -5 -1 -12 5 -16 5 -3 10 1 10 9 0 18 -6 21 -15 7z"/>
<path d="M339 1743 c0 -78 -1 -96 -13 -343 -4 -80 -3 -147 3 -165 8 -25 9 -16
10 50 1 44 4 182 8 308 3 125 3 227 0 227 -4 0 -7 -35 -8 -77z"/>
<path d="M1720 1810 c0 -7 3 -10 7 -7 3 4 3 10 0 14 -4 3 -7 0 -7 -7z"/>
<path d="M2505 1790 c10 -11 20 -20 23 -20 3 0 -3 9 -13 20 -10 11 -20 20 -23
20 -3 0 3 -9 13 -20z"/>
<path d="M1723 1755 c0 -22 2 -30 4 -17 2 12 2 30 0 40 -3 9 -5 -1 -4 -23z"/>
<path d="M2057 1715 c3 -44 10 -88 15 -98 14 -26 3 -32 -24 -13 -24 17 -38 20
-38 8 0 -12 58 -34 70 -27 7 4 8 19 4 38 -4 18 -13 64 -20 102 -13 70 -13 70
-7 -10z"/>
<path d="M2440 1784 c0 -5 6 -16 13 -23 10 -10 8 -15 -7 -27 -19 -13 -19 -14
8 -14 24 0 26 3 21 23 -8 24 -35 57 -35 41z"/>
<path d="M2510 1740 c0 -7 3 -10 7 -7 3 4 3 10 0 14 -4 3 -7 0 -7 -7z"/>
<path d="M1573 1713 c4 -3 10 -3 14 0 3 4 0 7 -7 7 -7 0 -10 -3 -7 -7z"/>
<path d="M1620 1710 c0 -7 3 -10 7 -7 3 4 3 10 0 14 -4 3 -7 0 -7 -7z"/>
<path d="M2142 1690 c0 -19 2 -27 5 -17 6 25 20 21 27 -8 4 -14 12 -25 18 -25
9 0 9 3 0 12 -7 7 -12 20 -12 30 0 10 -6 18 -14 18 -8 0 -17 6 -19 13 -3 6 -5
-4 -5 -23z"/>
<path d="M465 1700 c3 -5 8 -10 11 -10 3 0 2 5 -1 10 -3 6 -8 10 -11 10 -3 0
-2 -4 1 -10z"/>
<path d="M1720 1680 c0 -7 3 -10 7 -7 3 4 3 10 0 14 -4 3 -7 0 -7 -7z"/>
<path d="M470 1670 c0 -7 3 -10 7 -7 3 4 3 10 0 14 -4 3 -7 0 -7 -7z"/>
<path d="M1875 1660 c10 -11 20 -20 23 -20 3 0 -3 9 -13 20 -10 11 -20 20 -23
20 -3 0 3 -9 13 -20z"/>
<path d="M2324 1669 c-16 -4 31 -7 104 -8 72 0 132 2 132 7 0 9 -194 10 -236
1z"/>
<path d="M1580 1640 c0 -7 3 -10 7 -7 3 4 3 10 0 14 -4 3 -7 0 -7 -7z"/>
<path d="M2160 1640 c0 -7 3 -10 7 -7 3 4 3 10 0 14 -4 3 -7 0 -7 -7z"/>
<path d="M2414 1634 c5 -13 -1 -15 -37 -12 -42 3 -42 3 -45 -60 -1 -37 2 -62
8 -62 6 0 10 25 10 56 0 57 0 57 31 50 17 -3 35 -6 39 -6 3 0 5 -13 2 -29 -2
-16 1 -37 6 -47 8 -14 11 -1 14 54 3 65 1 72 -16 72 -12 0 -16 -5 -12 -16z"/>
<path d="M1930 1621 c0 -10 19 -25 25 -20 1 2 -3 10 -11 17 -8 7 -14 8 -14 3z"/>
<path d="M1578 1613 c7 -3 16 -2 19 1 4 3 -2 6 -13 5 -11 0 -14 -3 -6 -6z"/>
<path d="M2122 1600 c0 -14 2 -19 5 -12 2 6 2 18 0 25 -3 6 -5 1 -5 -13z"/>
<path d="M2151 1616 c9 -8 98 -13 93 -5 -3 5 -26 9 -51 9 -26 0 -44 -2 -42 -4z"/>
<path d="M1973 1603 c4 -3 10 -3 14 0 3 4 0 7 -7 7 -7 0 -10 -3 -7 -7z"/>
<path d="M1323 1587 c4 -10 7 -20 7 -23 0 -2 21 -15 48 -29 26 -14 56 -32 68
-40 20 -15 21 -14 19 12 -3 39 -4 43 -14 43 -5 0 -7 -10 -3 -22 5 -22 4 -22
-14 -7 -10 9 -30 20 -43 24 -13 4 -35 19 -49 34 -18 18 -23 21 -19 8z"/>
<path d="M395 1570 c3 -5 8 -10 11 -10 3 0 2 5 -1 10 -3 6 -8 10 -11 10 -3 0
-2 -4 1 -10z"/>
<path d="M2217 1559 c-3 -13 -1 -19 6 -16 15 5 22 37 9 37 -5 0 -12 -9 -15
-21z"/>
<path d="M2362 1560 c0 -14 2 -19 5 -12 2 6 2 18 0 25 -3 6 -5 1 -5 -13z"/>
<path d="M447 1509 c-7 -26 2 -51 17 -46 6 2 13 12 14 22 3 10 0 15 -7 11 -7
-4 -9 -1 -5 7 3 8 1 18 -4 21 -5 3 -12 -4 -15 -15z"/>
<path d="M2120 1520 c0 -7 3 -10 7 -7 3 4 3 10 0 14 -4 3 -7 0 -7 -7z"/>
<path d="M2220 1520 c0 -7 3 -10 7 -7 3 4 3 10 0 14 -4 3 -7 0 -7 -7z"/>
<path d="M400 1500 c0 -5 5 -10 11 -10 5 0 7 5 4 10 -3 6 -8 10 -11 10 -2 0
-4 -4 -4 -10z"/>
<path d="M1400 1485 c28 -30 28 -30 26 -7 -1 19 -15 32 -35 32 -10 0 -7 -8 9
-25z"/>
<path d="M2170 1493 c0 -12 28 -38 34 -32 2 2 -5 13 -15 23 -11 11 -19 15 -19
9z"/>
<path d="M1746 1475 c4 -8 11 -15 16 -15 6 0 5 6 -2 15 -7 8 -14 15 -16 15 -2
0 -1 -7 2 -15z"/>
<path d="M2151 1478 c0 -9 6 -24 15 -32 19 -20 25 -20 18 -1 -4 8 -10 15 -14
15 -5 0 -11 8 -13 18 -4 15 -5 15 -6 0z"/>
<path d="M1530 1466 c0 -4 7 -14 15 -22 8 -9 15 -11 15 -6 0 5 -7 15 -15 22
-8 7 -15 9 -15 6z"/>
<path d="M1820 1461 c0 -7 15 -30 33 -53 64 -80 77 -92 41 -38 -53 79 -74 104
-74 91z"/>
<path d="M2123 1463 c4 -3 10 -3 14 0 3 4 0 7 -7 7 -7 0 -10 -3 -7 -7z"/>
<path d="M1440 1450 c0 -5 5 -10 11 -10 5 0 7 5 4 10 -3 6 -8 10 -11 10 -2 0
-4 -4 -4 -10z"/>
<path d="M2030 1440 c0 -5 5 -10 11 -10 5 0 7 5 4 10 -3 6 -8 10 -11 10 -2 0
-4 -4 -4 -10z"/>
<path d="M1910 1420 c6 -11 13 -20 16 -20 2 0 0 9 -6 20 -6 11 -13 20 -16 20
-2 0 0 -9 6 -20z"/>
<path d="M1483 1415 c0 -8 3 -15 7 -15 9 0 40 -57 34 -63 -3 -3 -1 -14 4 -24
9 -14 10 -10 8 20 -2 20 -11 46 -20 55 -9 10 -16 24 -16 30 0 7 -4 12 -8 12
-5 0 -9 -7 -9 -15z"/>
<path d="M1875 1420 c3 -5 8 -10 11 -10 2 0 4 5 4 10 0 6 -5 10 -11 10 -5 0
-7 -4 -4 -10z"/>
<path d="M1382 1400 c0 -14 2 -19 5 -12 2 6 2 18 0 25 -3 6 -5 1 -5 -13z"/>
<path d="M1457 1393 c-12 -12 -7 -33 8 -33 17 0 19 9 7 28 -5 7 -11 9 -15 5z"/>
<path d="M1440 1330 c-6 -11 -8 -20 -6 -20 3 0 10 9 16 20 6 11 8 20 6 20 -3
0 -10 -9 -16 -20z"/>
<path d="M570 1330 c0 -7 3 -10 7 -7 3 4 3 10 0 14 -4 3 -7 0 -7 -7z"/>
<path d="M1465 1290 c-16 -17 -16 -20 -3 -15 9 4 19 13 22 21 7 19 2 18 -19
-6z"/>
<path d="M1800 1300 c0 -7 3 -10 7 -7 3 4 3 10 0 14 -4 3 -7 0 -7 -7z"/>
<path d="M1570 1245 c-10 -12 -10 -15 3 -15 8 0 17 7 21 15 3 8 2 15 -3 15 -5
0 -14 -7 -21 -15z"/>
<path d="M1530 1220 c0 -7 3 -10 7 -7 3 4 3 10 0 14 -4 3 -7 0 -7 -7z"/>
<path d="M2057 1113 c-4 -3 -7 -11 -7 -17 0 -6 5 -5 12 2 6 6 9 14 7 17 -3 3
-9 2 -12 -2z"/>
<path d="M2004 1098 c-4 -7 -3 -8 4 -4 12 7 16 16 8 16 -3 0 -8 -5 -12 -12z"/>
<path d="M1538 1083 c12 -2 32 -2 45 0 12 2 2 4 -23 4 -25 0 -35 -2 -22 -4z"/>
<path d="M2020 1079 c0 -5 5 -7 10 -4 6 3 10 8 10 11 0 2 -4 4 -10 4 -5 0 -10
-5 -10 -11z"/>
<path d="M1418 1073 c18 -2 45 -2 60 0 15 2 0 4 -33 4 -33 0 -45 -2 -27 -4z"/>
<path d="M828 1033 c7 -3 16 -2 19 1 4 3 -2 6 -13 5 -11 0 -14 -3 -6 -6z"/>
<path d="M2280 1021 c-17 -6 6 -10 75 -15 55 -3 124 -8 153 -10 29 -3 50 -1
48 3 -3 4 -52 11 -108 14 -57 4 -112 9 -123 11 -11 2 -31 1 -45 -3z"/>
<path d="M1030 930 c0 -7 3 -10 7 -7 3 4 3 10 0 14 -4 3 -7 0 -7 -7z"/>
<path d="M1340 895 c1 -17 39 -81 40 -65 0 8 -9 29 -20 45 -11 17 -20 26 -20
20z"/>
<path d="M1372 780 c0 -14 2 -19 5 -12 2 6 2 18 0 25 -3 6 -5 1 -5 -13z"/>
<path d="M1372 740 c3 -9 18 -16 39 -17 24 -1 26 0 9 4 -14 3 -31 10 -39 16
-11 10 -13 9 -9 -3z"/>
<path d="M1281 714 c0 -11 3 -14 6 -6 3 7 2 16 -1 19 -3 4 -6 -2 -5 -13z"/>
<path d="M1476 718 c2 -3 52 -9 111 -12 191 -11 417 -26 463 -31 27 -3 41 -2
35 4 -6 5 -30 12 -55 15 -25 3 -58 8 -75 10 -72 12 -134 13 -128 2 5 -8 3 -8
-8 0 -19 15 -69 24 -69 12 0 -5 -5 -6 -11 -2 -19 11 -88 14 -94 4 -3 -6 -12
-10 -18 -10 -9 0 -9 2 0 8 6 4 -26 7 -72 7 -46 0 -81 -3 -79 -7z m201 -5 c-4
-3 -10 -3 -14 0 -3 4 0 7 7 7 7 0 10 -3 7 -7z m40 0 c-4 -3 -10 -3 -14 0 -3 4
0 7 7 7 7 0 10 -3 7 -7z m230 -20 c-4 -3 -10 -3 -14 0 -3 4 0 7 7 7 7 0 10 -3
7 -7z"/>
<path d="M1362 679 c-1 -25 -7 -60 -13 -78 -6 -18 -9 -34 -6 -38 10 -10 28 78
24 120 -4 42 -4 42 -5 -4z"/>
<path d="M2110 680 c0 -6 7 -10 15 -10 8 0 15 2 15 4 0 2 -7 6 -15 10 -8 3
-15 1 -15 -4z"/>
<path d="M2158 673 c7 -3 16 -2 19 1 4 3 -2 6 -13 5 -11 0 -14 -3 -6 -6z"/>
<path d="M2200 670 c0 -7 3 -10 7 -7 3 4 3 10 0 14 -4 3 -7 0 -7 -7z"/>
<path d="M2233 673 c4 -3 10 -3 14 0 3 4 0 7 -7 7 -7 0 -10 -3 -7 -7z"/>
<path d="M2263 673 c4 -3 10 -3 14 0 3 4 0 7 -7 7 -7 0 -10 -3 -7 -7z"/>
<path d="M1015 550 c-19 -8 -19 -9 3 -9 12 -1 22 4 22 9 0 6 -1 10 -2 9 -2 0
-12 -4 -23 -9z"/>
<path d="M50 422 c0 -16 276 -46 285 -32 3 4 -35 10 -83 14 -121 9 -157 13
-181 21 -12 3 -21 2 -21 -3z"/>
<path d="M1129 369 c-11 -7 -9 -9 6 -9 17 0 17 -2 5 -10 -12 -8 -11 -10 6 -10
28 0 39 26 14 33 -10 2 -24 1 -31 -4z"/>
<path d="M935 290 c-40 -7 -40 -7 -5 -8 19 0 46 4 60 8 32 10 2 10 -55 0z"/>
</g>
</svg>
