<?xml version="1.0" standalone="no"?>
<!DOCTYPE svg PUBLIC "-//W3C//DTD SVG 20010904//EN"
 "http://www.w3.org/TR/2001/REC-SVG-20010904/DTD/svg10.dtd">
<svg version="1.0" xmlns="http://www.w3.org/2000/svg"
 width="344.000000pt" height="256.000000pt" viewBox="0 0 344.000000 256.000000"
 preserveAspectRatio="xMidYMid meet">
<metadata>
Created by potrace 1.16, written by Peter Selinger 2001-2019
</metadata>
<g transform="translate(0.000000,256.000000) scale(0.100000,-0.100000)"
fill="#000000" stroke="none">
<path d="M2330 2549 c0 -5 5 -7 10 -4 6 3 10 8 10 11 0 2 -4 4 -10 4 -5 0 -10
-5 -10 -11z"/>
<path d="M2456 2548 c3 -5 11 -7 17 -5 7 2 21 0 32 -6 17 -9 18 -8 7 5 -13 16
-66 22 -56 6z"/>
<path d="M2260 2500 c-8 -5 -11 -10 -6 -10 5 0 -15 -22 -44 -50 -29 -27 -56
-50 -60 -50 -4 0 -12 -12 -19 -27 -11 -28 -11 -28 9 -4 27 31 25 15 -5 -36
-13 -24 -19 -43 -14 -43 5 0 12 7 15 15 11 29 24 15 22 -24 -1 -21 7 -56 16
-76 12 -25 16 -50 13 -72 -6 -38 8 -87 22 -79 9 6 23 -17 25 -40 1 -6 9 -18
19 -28 36 -36 39 -53 9 -49 -15 1 -21 0 -14 -3 6 -3 12 -14 12 -24 0 -10 5
-22 10 -25 6 -3 10 -18 10 -33 0 -15 7 -47 16 -71 8 -24 12 -46 9 -49 -3 -3
-5 0 -5 6 0 6 -6 9 -13 6 -8 -3 -18 6 -25 20 -6 14 -28 30 -54 40 -26 10 -48
27 -55 41 -14 30 -3 32 22 5 10 -11 23 -20 28 -20 6 0 0 11 -12 24 -13 14 -20
30 -16 36 4 7 -2 9 -19 6 -14 -3 -26 0 -26 6 0 5 7 8 15 4 8 -3 15 -1 15 3 0
5 2 15 5 23 2 7 -7 21 -21 32 -26 18 -26 18 -15 -2 15 -28 14 -42 -3 -42 -10
0 -12 -7 -9 -22 5 -21 4 -21 -27 7 -33 30 -33 30 -14 -2 10 -18 24 -33 31 -33
7 0 13 -5 13 -11 0 -5 -6 -7 -12 -3 -8 4 -10 3 -5 -2 5 -5 13 -10 18 -10 5 -1
14 -2 19 -3 6 0 10 -7 10 -15 0 -8 19 -22 43 -31 35 -15 39 -19 23 -25 -19 -6
-19 -7 1 -12 14 -4 23 -15 25 -34 3 -25 8 -29 34 -30 78 -3 94 -18 94 -91 0
-33 0 -33 -68 -33 -68 0 -68 0 -64 -41 3 -22 10 -43 18 -46 18 -7 18 -23 0
-23 -8 0 -18 -5 -22 -12 -5 -8 -2 -9 12 -4 10 5 24 9 31 9 6 0 9 7 5 15 -3 10
-1 13 6 8 7 -4 12 -2 12 3 0 6 12 11 27 11 14 0 23 3 20 6 -4 4 3 15 15 25 20
18 21 25 14 126 -4 59 -12 113 -18 120 -8 11 -6 12 13 9 13 -3 28 -5 32 -5 5
-1 6 -5 2 -10 -3 -5 6 -22 21 -38 25 -28 25 -28 20 0 -7 30 -4 32 24 17 16 -9
17 -7 6 15 -11 25 -12 25 -131 40 -39 5 -51 23 -53 82 -2 42 0 46 12 31 7 -10
21 -18 31 -18 9 0 19 -9 22 -21 4 -13 8 -16 13 -10 4 7 11 2 18 -14 11 -24 11
-25 -16 -19 -47 10 -50 12 -55 36 -3 18 -5 16 -6 -8 -1 -38 5 -41 104 -50 75
-6 75 -6 74 28 -2 30 -2 30 -6 6 -4 -29 -12 -32 -50 -22 -15 4 -23 14 -23 29
0 28 -26 51 -67 60 -18 3 -33 12 -33 20 0 7 -24 51 -53 98 -54 85 -54 85 -61
212 -8 139 -3 157 71 244 29 33 29 33 97 10 68 -24 69 -25 108 -94 61 -109 65
-123 72 -242 6 -113 6 -113 -25 -168 -17 -30 -35 -58 -40 -61 -6 -3 -4 -15 4
-28 8 -12 18 -62 22 -112 10 -130 32 -152 54 -56 5 24 7 41 4 38 -7 -7 -33 19
-33 33 0 16 22 13 48 -5 19 -13 22 -24 22 -75 0 -32 3 -59 8 -60 4 0 14 -2 23
-4 18 -3 36 66 23 87 -4 6 1 8 12 6 10 -2 33 -26 51 -53 17 -28 46 -70 64 -94
32 -45 40 -64 57 -138 6 -29 5 -40 -2 -37 -6 2 -26 -18 -44 -45 -19 -27 -49
-57 -68 -67 -19 -10 -34 -22 -34 -26 0 -4 -13 -14 -29 -23 -32 -16 -52 -5 -32
18 6 8 6 18 1 27 -8 13 -10 13 -10 -1 0 -19 -40 -33 -54 -19 -14 14 -26 12
-26 -4 0 -8 -8 -14 -19 -13 -24 1 -16 24 12 33 20 6 20 8 -8 31 -20 15 -38 22
-52 18 -18 -4 -24 0 -32 27 -10 34 -7 -176 5 -327 5 -73 13 -85 55 -85 14 0
38 -11 53 -25 15 -14 32 -25 38 -25 6 0 21 -11 34 -25 25 -27 53 -32 72 -13
12 12 13 11 16 -24 1 -9 -35 -16 -119 -25 -120 -11 -120 -11 4 -6 90 4 122 2
117 -6 -5 -8 11 -11 54 -11 38 0 59 4 55 10 -3 6 -1 10 4 10 6 0 11 -5 11 -12
0 -6 3 -8 7 -5 3 4 12 2 20 -4 26 -22 46 9 40 64 -4 31 -1 64 9 94 9 25 13 47
10 50 -5 5 -12 -10 -28 -57 -3 -8 -9 17 -13 55 -10 90 -8 89 -61 55 -66 -42
-84 -28 -31 23 23 22 35 38 27 35 -8 -3 -46 -1 -84 3 -65 8 -115 -3 -136 -30
-16 -21 -83 -43 -91 -30 -7 11 -9 10 -9 -3 0 -11 -5 -15 -15 -12 -11 5 -15 -1
-15 -25 0 -17 5 -31 11 -31 6 0 8 9 4 23 -5 19 -5 20 5 4 11 -17 30 -15 30 4
0 6 -4 7 -10 4 -5 -3 -10 -1 -10 4 0 6 9 11 20 11 18 0 19 -3 10 -20 -6 -11
-7 -20 -2 -20 5 0 9 -7 9 -14 0 -11 -5 -12 -18 -5 -23 12 -32 12 -23 -2 4 -8
0 -8 -15 0 -20 11 -21 18 -17 119 2 72 7 106 15 105 6 -2 12 9 12 25 1 15 3
20 6 10 7 -27 33 -31 35 -5 1 12 4 -3 8 -33 7 -55 7 -55 8 -7 2 36 5 46 15 40
6 -4 19 -8 27 -10 130 -18 130 -18 130 -55 0 -28 2 -30 27 -25 15 3 36 1 45
-4 12 -7 18 -6 18 1 0 6 18 1 40 -10 50 -26 51 -20 2 12 -41 28 -54 85 -19 82
9 -1 14 2 11 7 -3 5 -1 9 5 9 5 0 12 -6 14 -12 3 -8 6 -6 6 5 1 9 6 17 12 17
5 0 7 5 4 11 -5 6 -16 4 -33 -7 -15 -10 -43 -16 -66 -16 -45 2 -57 9 -36 23
12 7 11 9 -5 7 -11 -2 -22 2 -25 7 -9 17 37 17 70 0 18 -9 34 -14 36 -12 3 2
-13 14 -36 25 -30 15 -37 22 -28 30 14 11 70 -7 82 -27 20 -32 28 -7 21 62 -4
39 -8 91 -8 114 -1 35 -11 56 -59 120 -31 43 -87 138 -124 211 -58 116 -91
162 -115 162 -17 0 1 -33 39 -72 43 -43 60 -77 21 -42 -12 10 -23 17 -25 14
-2 -3 -20 8 -39 23 -36 29 -36 29 -31 -25 5 -51 4 -50 -6 10 -9 51 -8 65 4 80
8 9 23 36 33 60 13 31 21 39 28 30 6 -9 7 -3 4 17 -3 17 -9 59 -13 95 -6 51
-9 59 -15 40 -5 -19 -7 -12 -8 27 -1 44 -10 69 -56 152 -55 98 -55 98 -120
120 -72 23 -93 25 -115 11z m-83 -237 c-2 -16 -4 -3 -4 27 0 30 2 43 4 28 2
-16 2 -40 0 -55z m390 -175 c-3 -8 -6 -5 -6 6 -1 11 2 17 5 13 3 -3 4 -12 1
-19z m43 -296 c0 -10 -42 33 -52 53 -5 11 4 5 21 -14 17 -18 31 -36 31 -39z
m45 -23 c11 -17 0 -20 -21 -4 -17 13 -17 14 -2 15 9 0 20 -5 23 -11z m-321
-21 c10 -38 6 -45 -9 -18 -17 29 -18 40 -6 40 5 0 11 -10 15 -22z m203 -10
c-3 -8 -6 -5 -6 6 -1 11 2 17 5 13 3 -3 4 -12 1 -19z m103 -2 c0 -3 -4 -8 -10
-11 -5 -3 -10 -1 -10 4 0 6 5 11 10 11 6 0 10 -2 10 -4z m-295 -207 c-4 -6
-18 -8 -30 -5 -14 4 -25 1 -27 -6 -2 -6 -10 -8 -16 -4 -23 14 -11 23 34 24 30
2 43 -1 39 -9z m-55 -38 c0 -6 -4 -13 -10 -16 -5 -3 -10 1 -10 9 0 9 5 16 10
16 6 0 10 -4 10 -9z m548 -139 c2 -7 8 -10 13 -6 5 3 9 -7 9 -21 0 -25 -1 -25
-18 -8 -37 38 -45 52 -26 49 10 -2 20 -8 22 -14z m-34 -10 c3 -5 -1 -9 -9 -9
-8 0 -12 4 -9 9 3 4 7 8 9 8 2 0 6 -4 9 -8z m-304 -35 c0 -10 -4 -15 -10 -12
-5 3 -10 -2 -10 -11 0 -23 -6 -15 -14 18 -5 23 -3 27 14 25 12 -1 20 -8 20
-20z m27 6 c-4 -3 -10 -3 -14 0 -3 4 0 7 7 7 7 0 10 -3 7 -7z m-47 -80 c0 -14
-2 -15 -9 -4 -7 11 -9 11 -14 0 -3 -8 -6 1 -6 19 -1 30 1 32 14 18 8 -8 15
-23 15 -33z m77 20 c-4 -3 -7 0 -7 7 0 7 3 10 7 7 3 -4 3 -10 0 -14z m43 -3
c0 -5 -7 -7 -15 -4 -8 4 -15 8 -15 10 0 2 7 4 15 4 8 0 15 -4 15 -10z m120 1
c0 -9 -24 -21 -42 -21 -6 0 -6 6 2 15 14 16 40 20 40 6z m17 -38 c-4 -3 -7 0
-7 7 0 7 3 10 7 7 3 -4 3 -10 0 -14z m46 0 c-7 -2 -19 -2 -25 0 -7 3 -2 5 12
5 14 0 19 -2 13 -5z m3 -36 c8 3 14 -1 14 -11 0 -19 -9 -20 -32 -2 -10 7 -14
16 -11 20 4 4 9 3 11 -3 2 -5 10 -7 18 -4z m-132 -79 c-10 -13 -12 -18 -4 -11
19 14 112 24 128 14 10 -6 10 -10 -2 -20 -8 -7 -20 -10 -26 -6 -6 4 -9 1 -8
-7 3 -13 -68 -21 -87 -9 -6 3 -3 -2 7 -11 18 -16 18 -17 -4 -22 -13 -3 9 -3
47 -1 66 4 68 3 40 -10 -16 -8 -41 -14 -55 -15 -20 0 -22 -2 -10 -10 20 -12
54 -3 116 32 65 36 63 37 59 -29 -2 -32 -4 -66 -4 -75 -1 -25 -21 -23 -21 2 0
11 -7 20 -15 20 -8 0 -15 -5 -15 -11 0 -5 -5 -7 -12 -3 -15 10 -68 13 -63 4
17 -28 -61 -58 -91 -35 -19 15 -18 16 4 31 12 9 22 22 22 29 0 18 -48 55 -69
54 -9 0 -4 -5 11 -10 47 -18 45 -79 -3 -79 -26 0 -50 39 -39 61 6 10 10 28 10
40 0 17 4 20 21 16 17 -5 18 -3 8 9 -13 16 -12 17 35 52 37 28 44 28 20 0z
m-94 -93 c0 -8 -2 -15 -4 -15 -2 0 -6 7 -10 15 -3 8 -1 15 4 15 6 0 10 -7 10
-15z m307 -97 c-3 -8 -6 -5 -6 6 -1 11 2 17 5 13 3 -3 4 -12 1 -19z m-63 -29
c27 -54 -36 -102 -64 -49 -6 11 -8 20 -6 20 3 0 1 11 -4 24 -8 21 -6 25 13 29
42 8 46 7 61 -24z m13 9 c-3 -8 -6 -5 -6 6 -1 11 2 17 5 13 3 -3 4 -12 1 -19z
m40 -55 c-3 -10 -5 -2 -5 17 0 19 2 27 5 18 2 -10 2 -26 0 -35z m40 0 c-4 -3
-7 0 -7 7 0 7 3 10 7 7 3 -4 3 -10 0 -14z"/>
<path d="M2810 1020 c-9 -6 -10 -10 -3 -10 6 0 15 5 18 10 8 12 4 12 -15 0z"/>
<path d="M2830 990 c0 -7 3 -10 7 -7 3 4 3 10 0 14 -4 3 -7 0 -7 -7z"/>
<path d="M2825 960 c3 -5 8 -10 11 -10 2 0 4 5 4 10 0 6 -5 10 -11 10 -5 0 -7
-4 -4 -10z"/>
<path d="M2520 2495 c7 -9 15 -13 17 -11 7 7 -7 26 -19 26 -6 0 -6 -6 2 -15z"/>
<path d="M1585 2471 c-3 -6 -11 -9 -16 -5 -6 3 -8 -4 -4 -18 5 -25 -30 -77
-43 -63 -4 4 -1 10 6 12 11 4 38 43 29 43 -8 0 -42 -36 -53 -55 -11 -20 -24
-25 -244 -92 -74 -23 -96 -33 -98 -49 -8 -57 -13 -63 -46 -69 -18 -4 -49 -2
-68 3 -41 11 -68 -3 -65 -36 1 -19 6 -20 72 -19 38 2 78 6 88 11 10 5 17 4 17
-2 0 -5 -15 -13 -32 -17 -33 -7 -33 -7 -8 -16 17 -7 26 -7 28 0 2 6 10 11 17
11 7 0 15 6 18 13 2 7 38 21 78 31 70 18 116 35 94 36 -5 0 -44 -9 -85 -20
-91 -24 -113 -25 -87 -6 11 9 14 15 6 18 -8 3 -6 15 7 43 24 48 44 57 45 18 0
-15 3 -21 6 -13 14 43 28 61 45 57 10 -3 16 -1 12 4 -3 5 2 9 11 9 25 0 184
51 190 61 3 4 12 6 19 3 17 -7 70 61 61 77 -4 6 -1 15 6 20 7 4 11 11 7 14 -3
4 -9 1 -13 -4z m-328 -198 c-4 -3 -10 -3 -14 0 -3 4 0 7 7 7 7 0 10 -3 7 -7z
m-64 -21 c-6 -4 -12 -11 -12 -17 -2 -25 -10 -27 -10 -2 -1 19 4 27 17 27 11 0
13 -3 5 -8z m-50 -99 c-9 -7 -31 -13 -47 -13 -17 0 -41 -3 -53 -6 -17 -5 -23
-2 -23 10 0 9 -5 16 -11 16 -5 0 -7 -5 -3 -12 4 -7 3 -8 -5 -4 -24 15 1 22 79
22 67 -1 78 -3 63 -13z"/>
<path d="M2252 2404 c-44 -66 -44 -66 -35 -178 9 -107 11 -114 59 -199 54 -99
58 -102 129 -110 50 -6 50 -6 88 59 38 65 38 65 33 160 -6 100 -13 123 -78
235 -28 50 -46 70 -69 78 -50 17 -58 11 -12 -9 33 -15 48 -31 77 -83 20 -35
36 -67 36 -70 0 -11 -48 -8 -55 3 -4 6 -15 10 -24 8 -10 -2 -29 2 -42 9 -25
12 -95 28 -116 26 -7 0 -13 4 -13 9 0 12 69 109 85 120 6 5 4 8 -5 8 -8 0 -34
-30 -58 -66z m28 -103 c15 -30 12 -49 -5 -27 -23 30 -30 10 -9 -21 11 -15 26
-49 35 -75 16 -46 16 -46 -9 -59 -22 -12 -26 -11 -43 10 -20 25 -26 61 -9 61
5 0 14 -9 20 -21 7 -11 14 -18 17 -15 3 3 -6 28 -21 55 -36 70 -34 106 6 110
4 1 12 -8 18 -18z m79 -15 c9 -11 9 -16 0 -21 -21 -14 -5 -142 21 -170 23 -24
70 -35 70 -16 0 5 -9 7 -19 4 -40 -10 -76 107 -52 170 8 20 40 40 41 25 0 -2
7 -21 16 -43 15 -40 15 -40 10 -2 -4 34 -3 37 20 37 26 0 35 -16 47 -78 6 -28
4 -35 -13 -39 -14 -4 -20 -13 -19 -32 1 -26 1 -26 8 -2 6 24 6 24 19 -3 19
-41 15 -59 -24 -125 -39 -65 -74 -80 -108 -46 -17 17 -30 20 -21 5 3 -5 3 -10
-2 -10 -9 0 -103 142 -103 156 0 5 18 9 40 9 40 -1 40 -1 40 65 0 38 -6 77
-15 94 -8 15 -15 30 -15 32 0 11 49 2 59 -10z"/>
<path d="M2400 2234 c0 -39 13 -114 20 -114 9 0 0 100 -11 120 -7 12 -8 11 -9
-6z"/>
<path d="M2470 2200 c0 -11 5 -20 10 -20 6 0 10 9 10 20 0 11 -4 20 -10 20 -5
0 -10 -9 -10 -20z"/>
<path d="M2443 2145 c0 -27 2 -38 4 -22 2 15 2 37 0 50 -2 12 -4 0 -4 -28z"/>
<path d="M2470 2070 c-9 -6 -10 -10 -3 -10 6 0 15 5 18 10 8 12 4 12 -15 0z"/>
<path d="M2876 2414 c-5 -14 -4 -15 9 -4 17 14 19 20 6 20 -5 0 -12 -7 -15
-16z"/>
<path d="M3049 2418 c-6 -12 -5 -48 2 -48 4 0 16 -3 26 -6 14 -5 13 -3 -4 10
-13 10 -20 23 -17 31 5 12 -2 23 -7 13z"/>
<path d="M3083 2403 c4 -3 10 -3 14 0 3 4 0 7 -7 7 -7 0 -10 -3 -7 -7z"/>
<path d="M3120 2390 c6 -11 15 -20 21 -20 6 0 6 7 -1 20 -6 11 -15 20 -21 20
-6 0 -6 -7 1 -20z"/>
<path d="M1577 2393 c-4 -3 -7 -11 -7 -17 0 -6 5 -5 12 2 6 6 9 14 7 17 -3 3
-9 2 -12 -2z"/>
<path d="M3210 2378 c0 -7 -12 -22 -27 -32 -25 -19 -28 -19 -57 -3 -31 17 -31
17 4 -13 38 -32 50 -36 68 -18 16 16 42 -7 42 -38 0 -18 -4 -22 -17 -18 -15 5
-16 4 -3 -5 8 -6 18 -11 21 -11 10 0 17 60 8 66 -5 2 -6 11 -2 19 3 8 0 15 -6
15 -6 0 -11 11 -11 25 0 25 -20 37 -20 13z m10 -35 c0 -5 -12 -13 -26 -20 -26
-12 -26 -12 -9 7 18 20 35 26 35 13z"/>
<path d="M2090 2370 c0 -7 3 -10 7 -7 3 4 3 10 0 14 -4 3 -7 0 -7 -7z"/>
<path d="M2850 2370 c0 -7 3 -10 7 -7 3 4 3 10 0 14 -4 3 -7 0 -7 -7z"/>
<path d="M3430 2298 c-1 -35 -5 -82 -9 -105 -5 -24 -6 -43 -2 -43 3 0 5 -38 3
-85 -2 -46 1 -92 7 -102 7 -13 10 42 11 190 0 114 -2 207 -5 207 -3 0 -5 -28
-5 -62z"/>
<path d="M2963 2343 c4 -3 10 -3 14 0 3 4 0 7 -7 7 -7 0 -10 -3 -7 -7z"/>
<path d="M3050 2328 c6 -7 10 -20 10 -29 0 -10 5 -21 11 -25 16 -9 1 38 -17
54 -9 7 -10 8 -4 0z"/>
<path d="M3297 2324 c-3 -3 -1 -18 4 -32 12 -31 3 -77 -22 -112 -10 -14 -21
-45 -25 -69 -7 -44 -7 -44 14 -23 12 12 22 33 22 46 0 14 5 28 10 31 6 3 10
17 10 31 0 13 5 24 10 24 14 0 13 47 -1 56 -6 3 -9 17 -6 30 4 23 -3 31 -16
18z"/>
<path d="M2050 2319 c0 -4 18 -39 40 -79 22 -40 38 -75 36 -79 -2 -3 10 -16
25 -29 38 -31 37 -29 -19 64 -52 87 -82 132 -82 123z"/>
<path d="M2846 2205 c6 -106 22 -185 38 -190 6 -2 29 -6 51 -9 40 -5 40 -5 -7
10 -53 17 -55 22 -63 144 -3 41 -9 89 -15 105 -6 22 -8 5 -4 -60z"/>
<path d="M3140 2280 c-8 -5 -10 -10 -5 -10 6 0 17 5 25 10 8 5 11 10 5 10 -5
0 -17 -5 -25 -10z"/>
<path d="M1474 2268 c-4 -7 -3 -8 4 -4 12 7 16 16 8 16 -3 0 -8 -5 -12 -12z"/>
<path d="M3097 2269 c7 -7 15 -10 18 -7 3 3 -2 9 -12 12 -14 6 -15 5 -6 -5z"/>
<path d="M2771 2248 c-1 -15 4 -30 9 -33 12 -7 12 12 0 40 -8 18 -9 17 -9 -7z"/>
<path d="M3275 2260 c-8 -13 -1 -24 14 -19 6 3 7 10 2 18 -6 10 -10 10 -16 1z"/>
<path d="M3353 2243 c-6 -15 -14 -39 -18 -53 -4 -14 -14 -36 -22 -50 -15 -23
-14 -23 15 4 30 28 48 76 40 110 -2 12 -6 9 -15 -11z"/>
<path d="M1494 2248 c-4 -7 -3 -8 4 -4 12 7 16 16 8 16 -3 0 -8 -5 -12 -12z"/>
<path d="M2640 2246 c0 -7 -3 -33 -6 -57 -5 -36 -2 -48 15 -68 12 -13 21 -19
21 -13 0 6 -3 13 -7 15 -5 3 -8 35 -8 71 0 36 -3 66 -7 66 -5 0 -8 -6 -8 -14z"/>
<path d="M1405 2235 c-16 -8 -43 -14 -60 -15 -16 0 -37 -4 -45 -10 -21 -13 76
-4 112 11 15 6 28 15 28 20 0 5 -1 9 -2 8 -2 0 -16 -7 -33 -14z"/>
<path d="M1453 2243 c4 -3 10 -3 14 0 3 4 0 7 -7 7 -7 0 -10 -3 -7 -7z"/>
<path d="M2700 2230 c0 -7 3 -10 7 -7 3 4 3 10 0 14 -4 3 -7 0 -7 -7z"/>
<path d="M3114 2228 c-4 -7 -3 -8 4 -4 7 4 12 9 12 12 0 8 -9 4 -16 -8z"/>
<path d="M3170 2230 c-12 -8 -10 -10 8 -10 13 0 20 -4 17 -10 -3 -6 4 -10 18
-10 15 0 24 6 24 15 0 9 -6 14 -13 11 -8 -3 -16 -1 -19 4 -8 12 -16 12 -35 0z"/>
<path d="M2991 2129 c0 -57 4 -122 9 -144 6 -27 8 4 5 99 -5 163 -15 196 -14
45z"/>
<path d="M1235 2194 c-30 -13 -30 -13 -3 -14 15 0 30 5 33 11 11 16 2 17 -30
3z"/>
<path d="M1412 2201 c-18 -11 -22 -120 -4 -114 7 3 10 13 6 25 -3 12 1 27 12
39 16 17 16 19 1 19 -20 0 -22 11 -5 28 14 14 9 15 -10 3z"/>
<path d="M2723 2140 c0 -41 2 -58 4 -37 2 20 2 54 0 75 -2 20 -4 3 -4 -38z"/>
<path d="M755 2175 c-164 -82 -321 -155 -330 -155 -6 0 -26 -11 -45 -25 -19
-14 -41 -25 -49 -25 -14 1 -13 3 2 14 18 14 25 72 7 61 -6 -3 -10 1 -10 10 0
24 -24 12 -28 -13 -4 -23 -17 -29 -27 -12 -10 16 -25 11 -18 -6 5 -14 3 -15
-16 -5 -21 12 -22 11 -20 -58 1 -39 5 -71 10 -71 4 0 7 -9 6 -19 -1 -16 -5
-17 -25 -10 -27 11 -44 3 -23 -10 7 -5 9 -11 5 -14 -5 -2 -22 9 -39 25 -16 17
-24 27 -18 24 9 -5 11 -2 7 9 -6 14 -9 14 -32 -1 -24 -16 -26 -15 -41 5 -13
17 -19 19 -29 9 -9 -9 -12 -9 -12 0 0 6 -6 9 -14 6 -11 -4 -14 -34 -8 -67 1
-4 18 -5 38 -3 36 5 36 5 17 -16 -18 -21 -18 -21 2 -14 45 18 49 18 27 1 -19
-14 -29 -15 -47 -7 -19 9 -26 8 -37 -5 -11 -14 -11 -16 4 -11 9 4 24 1 34 -7
17 -12 17 -15 -14 -46 -18 -18 -32 -39 -32 -46 0 -21 14 -15 25 10 9 19 16 22
60 18 60 -4 63 -6 41 -30 -14 -16 -15 -19 -2 -24 8 -3 17 1 20 8 3 9 13 12 23
9 17 -5 17 -5 0 9 -24 20 -21 25 9 19 18 -3 25 -1 20 6 -9 15 7 23 24 11 12
-8 9 -15 -18 -39 -31 -29 -32 -30 -8 -24 34 8 50 -3 32 -21 -8 -8 -16 -20 -18
-27 -4 -10 -8 -10 -19 -1 -8 7 -25 10 -37 6 -38 -9 -24 -19 28 -20 27 0 48 2
46 6 -12 19 14 36 34 23 24 -15 26 -9 4 12 -17 18 0 23 24 8 15 -10 -21 -62
-42 -62 -7 0 -20 -16 -29 -35 -9 -19 -22 -35 -27 -35 -6 0 -8 -5 -5 -11 5 -7
15 -4 29 9 11 10 29 22 38 25 11 4 15 12 12 22 -3 8 -1 15 6 15 6 0 9 -4 6 -9
-6 -10 24 -25 32 -16 3 2 -1 11 -8 20 -9 11 -9 15 -1 15 7 0 9 5 6 10 -3 6 4
24 15 41 12 16 19 33 16 36 -3 4 -6 1 -6 -5 0 -7 -6 -12 -14 -12 -18 0 -48 57
-35 66 14 8 11 41 -7 58 -8 9 -13 22 -11 29 4 9 6 9 6 0 1 -14 41 -18 41 -4 0
5 9 11 20 14 22 6 28 -8 8 -16 -7 -3 -3 -6 10 -6 20 -1 21 -3 11 -23 -11 -21
-11 -22 5 -9 9 8 22 23 27 34 9 16 8 18 -10 12 -36 -11 -24 20 14 38 45 21 51
21 34 0 -13 -14 -12 -15 6 -6 11 6 31 16 45 22 21 9 21 10 3 5 -27 -6 -62 9
-44 20 6 4 11 2 11 -3 0 -6 4 -11 9 -11 6 0 9 12 8 27 -1 19 3 28 16 31 24 5
47 -15 47 -42 0 -18 2 -17 19 9 15 24 16 31 5 38 -21 12 -17 27 7 27 30 0 12
20 -19 21 -17 1 -4 7 33 16 237 57 261 61 250 43 -3 -5 -15 -10 -25 -10 -16 0
-17 -4 -10 -30 11 -37 2 -38 -25 -3 -21 25 -23 26 -66 14 -24 -7 -60 -16 -79
-20 -30 -6 -32 -8 -17 -17 16 -9 16 -13 3 -45 -9 -22 -13 -51 -9 -77 4 -28 2
-42 -6 -42 -6 0 -11 -5 -11 -11 0 -5 5 -7 12 -3 8 5 9 0 6 -14 -4 -12 -2 -20
3 -16 5 3 9 34 9 70 0 99 31 155 93 166 52 10 97 -61 64 -100 -6 -8 -12 -21
-13 -30 -11 -73 -36 -101 -99 -115 -11 -3 -3 -5 18 -6 27 -1 36 -5 31 -13 -3
-7 5 1 19 17 14 17 38 67 53 112 14 45 33 84 40 87 7 3 24 23 38 44 23 38 28
40 123 62 54 12 102 26 108 31 10 10 -41 3 -89 -12 -40 -12 -161 -23 -180 -16
-14 5 -14 11 -1 47 8 22 10 40 5 40 -5 0 -12 -16 -16 -35 -3 -19 -11 -38 -18
-44 -19 -16 -249 -71 -321 -77 -40 -3 -40 -3 -5 16 19 10 108 54 198 96 163
78 163 78 229 45 36 -17 68 -30 70 -27 7 7 -113 66 -134 66 -10 0 -40 -11 -68
-25z m-438 -142 c-4 -3 -7 0 -7 7 0 7 3 10 7 7 3 -4 3 -10 0 -14z m521 -11
c-25 -31 -36 -26 -18 7 6 12 18 21 26 21 12 0 10 -6 -8 -28z m-538 -32 c0 -5
-5 -10 -11 -10 -5 0 -7 5 -4 10 3 6 8 10 11 10 2 0 4 -4 4 -10z m120 6 c0 -2
-7 -7 -16 -10 -8 -3 -12 -2 -9 4 6 10 25 14 25 6z m87 -12 c-3 -3 -12 -4 -19
-1 -8 3 -5 6 6 6 11 1 17 -2 13 -5z m-49 -11 c-10 -2 -26 -2 -35 0 -10 3 -2 5
17 5 19 0 27 -2 18 -5z m-23 -49 c-5 -47 -59 -83 -84 -56 -13 14 -12 15 7 10
25 -7 26 -5 11 24 -6 11 -7 18 -2 15 4 -3 19 1 32 8 24 12 24 13 -13 17 -23 2
-40 0 -42 -7 -3 -6 -19 -9 -39 -7 -19 2 -32 8 -29 13 3 6 13 8 22 5 10 -3 30
1 46 7 42 18 95 1 91 -29z m95 38 c0 -5 -7 -9 -15 -9 -8 0 -12 4 -9 9 3 4 9 8
15 8 5 0 9 -4 9 -8z m-275 -12 c3 -5 -1 -10 -9 -10 -9 0 -16 5 -16 10 0 6 4
10 9 10 6 0 13 -4 16 -10z m72 -50 c24 0 24 0 3 -22 -11 -12 -23 -18 -27 -14
-4 4 -2 11 6 15 9 6 7 10 -8 14 -12 3 -21 11 -21 18 0 10 3 10 12 1 7 -7 23
-12 35 -12z m-52 -20 c3 -5 2 -10 -4 -10 -5 0 -13 5 -16 10 -3 6 -2 10 4 10 5
0 13 -4 16 -10z m-235 -4 c0 -3 -4 -8 -10 -11 -5 -3 -10 -1 -10 4 0 6 5 11 10
11 6 0 10 -2 10 -4z m37 -13 c-4 -3 -10 -3 -14 0 -3 4 0 7 7 7 7 0 10 -3 7 -7z
m50 -9 c-3 -3 -12 -4 -19 -1 -8 3 -5 6 6 6 11 1 17 -2 13 -5z m143 -14 c0 -5
-2 -10 -4 -10 -3 0 -8 5 -11 10 -3 6 -1 10 4 10 6 0 11 -4 11 -10z m70 0 c-18
-12 -30 -13 -30 -2 0 4 10 9 22 9 18 2 20 0 8 -7z m-123 -17 c-4 -3 -10 -3
-14 0 -3 4 0 7 7 7 7 0 10 -3 7 -7z m-77 -39 c0 -10 -7 -14 -22 -12 -32 5 -35
28 -4 28 17 0 26 -5 26 -16z m97 -11 c7 -9 10 -21 6 -26 -3 -6 -10 0 -15 12
-6 17 -12 21 -21 13 -8 -6 -18 -3 -32 11 -20 20 -20 20 15 13 19 -3 40 -14 47
-23z m33 -9 c0 -8 -4 -12 -10 -9 -5 3 -10 10 -10 16 0 5 5 9 10 9 6 0 10 -7
10 -16z m-156 -10 c29 -11 17 -25 -19 -22 -34 2 -42 8 -28 21 8 9 27 9 47 1z
m43 -1 c-4 -3 -10 -3 -14 0 -3 4 0 7 7 7 7 0 10 -3 7 -7z m123 -17 c0 -11 -19
-15 -25 -6 -3 5 1 10 9 10 9 0 16 -2 16 -4z m-10 -47 c0 -6 -4 -7 -10 -4 -5 3
-10 11 -10 16 0 6 5 7 10 4 6 -3 10 -11 10 -16z m-30 1 c0 -5 -4 -10 -10 -10
-5 0 -10 5 -10 10 0 6 5 10 10 10 6 0 10 -4 10 -10z"/>
<path d="M3185 2180 c-3 -5 1 -10 11 -10 11 0 15 -6 11 -20 -6 -24 8 -27 17
-4 14 37 -19 66 -39 34z"/>
<path d="M1458 2173 c7 -3 16 -2 19 1 4 3 -2 6 -13 5 -11 0 -14 -3 -6 -6z"/>
<path d="M3385 2149 c-6 -17 -9 -18 -23 -7 -11 9 -14 9 -9 1 5 -8 -8 -28 -33
-51 -37 -37 -53 -61 -30 -47 6 3 10 1 10 -5 0 -7 6 -5 15 4 8 8 15 21 15 28 0
10 2 10 9 -1 19 -29 -48 -192 -134 -326 -19 -30 -19 -30 6 -7 25 22 129 217
129 241 0 6 9 37 20 68 11 31 17 60 13 66 -3 6 -1 7 5 3 12 -7 21 4 27 34 5
26 -12 26 -20 -1z"/>
<path d="M2771 2160 c-8 -23 -8 -130 -1 -125 6 3 10 -2 10 -13 0 -20 79 -137
87 -128 3 2 -7 20 -22 40 -15 19 -29 50 -32 68 -3 18 -10 39 -16 47 -7 7 -15
37 -18 65 -3 28 -7 49 -8 46z"/>
<path d="M1308 2143 c7 -3 16 -2 19 1 4 3 -2 6 -13 5 -11 0 -14 -3 -6 -6z"/>
<path d="M1548 2042 c3 -119 11 -157 22 -102 7 35 7 35 9 2 0 -20 5 -31 11
-27 14 9 6 120 -10 160 -7 17 -14 36 -16 44 -10 52 -19 13 -16 -77z m29 -14
c-3 -8 -6 -5 -6 6 -1 11 2 17 5 13 3 -3 4 -12 1 -19z"/>
<path d="M3050 2130 c0 -13 -8 -33 -17 -44 -14 -16 -14 -18 -2 -8 30 23 42
-33 13 -62 -14 -15 -13 -16 9 -16 22 0 55 27 72 60 4 8 -7 0 -24 -19 -31 -34
-31 -34 -31 -5 -1 36 -11 108 -16 113 -2 2 -4 -6 -4 -19z"/>
<path d="M1248 2133 c7 -3 16 -2 19 1 4 3 -2 6 -13 5 -11 0 -14 -3 -6 -6z"/>
<path d="M1196 2121 c-4 -5 3 -7 14 -4 23 6 26 13 6 13 -8 0 -17 -4 -20 -9z"/>
<path d="M1330 2108 c0 -13 -3 -55 -6 -94 -4 -39 -2 -74 2 -77 5 -3 10 39 12
94 1 54 0 99 -3 99 -3 0 -5 -10 -5 -22z"/>
<path d="M1620 2128 c0 -4 11 -27 24 -50 13 -24 27 -69 30 -100 9 -69 25 -77
23 -12 -1 30 3 48 11 51 8 3 12 -8 12 -35 0 -27 6 -45 21 -58 21 -19 21 -19
15 61 -7 74 -16 115 -16 67 0 -29 -20 -28 -21 1 0 16 -2 18 -7 7 -9 -20 -32
-24 -32 -5 0 14 -59 87 -60 73z m124 -163 c3 -8 1 -15 -4 -15 -6 0 -10 7 -10
15 0 8 2 15 4 15 2 0 6 -7 10 -15z"/>
<path d="M2060 2126 c0 -2 7 -7 16 -10 8 -3 12 -2 9 4 -6 10 -25 14 -25 6z"/>
<path d="M1805 2100 c4 -6 2 -16 -3 -23 -12 -16 -7 -48 10 -58 10 -6 14 1 16
27 4 42 -3 64 -18 64 -6 0 -8 -5 -5 -10z"/>
<path d="M1890 2078 c0 -12 -5 -16 -17 -11 -15 5 -16 3 -5 -8 6 -7 13 -36 13
-63 2 -48 2 -49 9 -16 5 26 8 31 13 18 22 -56 20 -54 24 -30 6 31 16 27 35
-14 16 -36 16 -36 -16 -30 -48 9 -64 -9 -68 -76 -2 -31 0 -55 4 -52 4 3 8 -2
8 -10 0 -9 4 -16 9 -16 5 0 12 -13 16 -30 4 -16 11 -33 17 -36 6 -4 8 1 3 15
-5 16 -2 26 10 35 17 12 47 104 38 118 -2 4 -19 10 -38 14 -47 8 -45 24 3 24
52 0 80 -23 93 -76 12 -48 29 -59 29 -19 0 14 6 25 13 25 7 0 8 3 2 8 -5 4
-21 28 -34 55 -13 26 -28 47 -33 47 -5 0 -1 -14 7 -31 16 -30 16 -30 -9 -13
-19 12 -26 25 -26 48 0 17 -5 38 -10 46 -8 13 -10 12 -10 -4 0 -28 -26 -3 -55
53 -13 25 -24 38 -25 29z m87 -130 c-3 -8 -6 -5 -6 6 -1 11 2 17 5 13 3 -3 4
-12 1 -19z m-23 -86 c3 -5 -1 -9 -9 -9 -8 0 -15 4 -15 9 0 4 4 8 9 8 6 0 12
-4 15 -8z"/>
<path d="M2143 2083 c4 -3 10 -3 14 0 3 4 0 7 -7 7 -7 0 -10 -3 -7 -7z"/>
<path d="M1090 2061 c-13 -26 -13 -44 1 -35 12 7 -4 -26 -32 -66 -10 -14 -30
-63 -44 -110 -15 -47 -41 -125 -57 -173 -17 -49 -27 -91 -24 -94 3 -3 8 2 12
11 3 9 12 16 20 16 8 0 11 6 7 15 -7 21 24 101 55 143 17 22 20 30 9 26 -25
-9 -5 54 59 194 25 55 31 92 14 92 -5 0 -14 -9 -20 -19z"/>
<path d="M1137 2061 c-4 -17 -3 -21 5 -13 5 5 8 16 6 23 -3 8 -7 3 -11 -10z"/>
<path d="M2640 2075 c0 -2 9 -27 20 -55 24 -62 25 -67 3 -74 -11 -3 -9 -4 6
-3 13 1 27 -5 31 -13 17 -34 52 -127 56 -150 6 -31 20 -45 28 -31 13 20 47 12
77 -18 31 -32 38 -29 14 5 -8 12 -12 24 -9 27 7 7 -38 90 -89 162 -37 52 -137
162 -137 150z m80 -108 c0 -5 20 -35 45 -67 25 -32 45 -64 45 -71 0 -20 -49
36 -61 70 -6 17 -16 31 -23 31 -11 0 -46 49 -46 64 0 3 9 1 20 -6 11 -7 20
-17 20 -21z m129 -189 c11 -18 10 -19 -11 -13 -25 8 -68 43 -68 57 0 13 66
-23 79 -44z m-59 -2 c0 -3 -4 -8 -10 -11 -5 -3 -10 -1 -10 4 0 6 5 11 10 11 6
0 10 -2 10 -4z"/>
<path d="M0 2060 c0 -7 3 -10 7 -7 3 4 3 10 0 14 -4 3 -7 0 -7 -7z"/>
<path d="M1441 1983 c0 -46 2 -83 7 -83 4 0 6 26 4 57 -5 101 -9 111 -11 26z"/>
<path d="M1474 1988 c1 -42 5 -80 9 -84 9 -9 7 91 -3 131 -5 20 -7 5 -6 -47z"/>
<path d="M3242 2048 c6 -18 28 -21 28 -4 0 9 -7 16 -16 16 -9 0 -14 -5 -12
-12z"/>
<path d="M1053 2043 c4 -3 10 -3 14 0 3 4 0 7 -7 7 -7 0 -10 -3 -7 -7z"/>
<path d="M2 2010 c0 -19 2 -27 5 -17 2 9 2 25 0 35 -3 9 -5 1 -5 -18z"/>
<path d="M3165 2027 c-6 -6 -9 -24 -7 -40 3 -21 1 -28 -7 -23 -6 4 -8 13 -5
19 5 8 4 9 -4 2 -6 -6 -13 -19 -15 -30 -13 -68 -28 -92 -40 -62 -4 7 -6 6 -6
-4 -1 -9 6 -20 15 -23 22 -8 2 -102 -32 -147 -5 -8 -11 -27 -13 -43 -2 -16
-10 -41 -18 -55 -15 -26 -15 -26 6 -2 12 13 21 29 21 36 0 7 11 37 24 66 32
70 103 307 94 314 -2 2 -8 -2 -13 -8z"/>
<path d="M3220 2030 c0 -7 3 -10 7 -7 3 4 3 10 0 14 -4 3 -7 0 -7 -7z"/>
<path d="M3386 2014 c-9 -22 -8 -24 9 -18 8 4 15 12 15 20 0 19 -16 18 -24 -2z"/>
<path d="M1055 2010 c-3 -5 -2 -10 4 -10 5 0 13 5 16 10 3 6 2 10 -4 10 -5 0
-13 -4 -16 -10z"/>
<path d="M1782 1982 c0 -23 4 -42 8 -42 5 0 11 -8 13 -17 3 -10 5 -4 6 13 0
18 -5 44 -13 59 -15 28 -15 28 -14 -13z"/>
<path d="M3245 2010 c3 -5 -1 -24 -9 -42 -8 -18 -20 -60 -26 -93 -6 -33 -13
-70 -16 -82 -2 -13 0 -23 6 -23 5 0 9 3 8 8 0 4 8 27 20 52 23 49 28 75 12 65
-12 -8 -4 32 16 82 12 27 11 32 -2 37 -8 3 -12 2 -9 -4z"/>
<path d="M880 1990 c0 -7 3 -10 7 -7 3 4 3 10 0 14 -4 3 -7 0 -7 -7z"/>
<path d="M1393 1965 c0 -22 2 -30 4 -17 2 12 2 30 0 40 -3 9 -5 -1 -4 -23z"/>
<path d="M916 1977 c3 -10 9 -15 12 -12 3 3 0 11 -7 18 -10 9 -11 8 -5 -6z"/>
<path d="M1511 1974 c0 -11 3 -14 6 -6 3 7 2 16 -1 19 -3 4 -6 -2 -5 -13z"/>
<path d="M3076 1974 c-11 -7 -18 -16 -15 -18 2 -2 13 2 23 10 11 7 18 16 15
18 -2 2 -13 -2 -23 -10z"/>
<path d="M2886 1936 c3 -27 7 -53 10 -57 2 -4 6 -31 9 -59 5 -55 35 -173 42
-166 3 2 -4 36 -16 76 -22 79 -17 89 33 70 39 -14 52 -2 46 42 -5 37 -5 37
-17 13 -6 -14 -7 -23 -2 -19 5 3 9 -2 9 -11 0 -13 -6 -15 -32 -10 -44 10 -48
13 -49 38 0 12 -9 47 -19 77 -19 55 -19 55 -14 6z"/>
<path d="M2928 1965 c17 -8 32 -18 32 -23 0 -5 11 -14 25 -20 14 -6 25 -8 25
-4 -1 10 -85 62 -101 62 -8 -1 1 -7 19 -15z"/>
<path d="M3373 1947 c-13 -18 -23 -37 -23 -41 0 -4 -16 -35 -35 -67 -44 -76
-44 -79 6 -68 22 5 44 7 50 4 5 -4 9 -2 9 2 0 5 9 14 20 21 17 10 20 10 20 -3
0 -8 -8 -15 -17 -16 -14 0 -15 -2 -3 -6 44 -17 31 -45 -18 -39 -20 3 -29 3
-19 0 9 -3 17 -12 17 -20 0 -15 -36 -1 -52 21 -4 6 -8 7 -8 3 0 -4 -13 -3 -29
2 -23 6 -33 4 -45 -9 -18 -20 -20 -31 -6 -31 6 0 10 7 10 15 0 20 17 19 29 -2
10 -20 11 -24 11 -55 0 -19 2 -20 10 -8 8 12 10 9 10 -13 0 -16 -4 -26 -9 -22
-5 3 -12 1 -16 -5 -3 -5 -11 -10 -16 -10 -6 0 -7 5 -4 10 4 6 -13 10 -44 10
-47 0 -51 -2 -66 -32 -8 -18 -26 -46 -40 -62 -25 -30 -32 -69 -16 -95 12 -18
27 30 17 54 -3 8 -2 15 3 15 4 0 18 9 30 20 13 10 44 27 70 37 46 17 123 62
129 75 2 4 10 4 18 1 9 -3 14 0 12 8 -2 8 5 14 17 14 24 0 33 -39 13 -62 -9
-12 -10 -15 0 -9 7 4 12 1 12 -9 0 -9 -4 -14 -8 -11 -16 10 -9 -19 10 -38 17
-19 18 -13 18 199 0 230 -9 281 -19 114 -1 -17 -44 -41 -94 -53 -29 -7 -29 -7
-11 22 11 20 23 28 34 25 10 -3 21 1 25 7 5 9 1 10 -14 5 -11 -3 -21 -4 -21
-2 0 14 43 104 57 120 9 9 12 17 7 17 -5 0 -19 -15 -31 -33z m-16 -254 c3 -8
-3 -24 -14 -35 -21 -20 -21 -20 -24 19 -4 35 -2 39 14 35 10 -3 21 -11 24 -19z
m61 -3 c-9 -14 -14 -16 -20 -7 -6 10 5 20 30 26 1 1 -3 -8 -10 -19z m-181 -87
c-4 -3 -10 -3 -14 0 -3 4 0 7 7 7 7 0 10 -3 7 -7z m-50 -30 c-9 -2 -15 -8 -13
-11 2 -4 -8 -16 -22 -26 -15 -12 -22 -14 -17 -5 17 30 39 49 54 48 13 -1 13
-2 -2 -6z"/>
<path d="M2160 1960 c0 -7 3 -10 7 -7 3 4 3 10 0 14 -4 3 -7 0 -7 -7z"/>
<path d="M1820 1950 c0 -7 3 -10 7 -7 3 4 3 10 0 14 -4 3 -7 0 -7 -7z"/>
<path d="M3271 1934 c0 -11 3 -14 6 -6 3 7 2 16 -1 19 -3 4 -6 -2 -5 -13z"/>
<path d="M0 1930 c0 -7 3 -10 7 -7 3 4 3 10 0 14 -4 3 -7 0 -7 -7z"/>
<path d="M918 1933 c7 -3 16 -2 19 1 4 3 -2 6 -13 5 -11 0 -14 -3 -6 -6z"/>
<path d="M1500 1919 c0 -4 7 -9 15 -13 9 -3 15 0 15 8 0 7 -7 13 -15 13 -8 0
-15 -4 -15 -8z"/>
<path d="M1420 1910 c0 -7 3 -10 7 -7 3 4 3 10 0 14 -4 3 -7 0 -7 -7z"/>
<path d="M1340 1905 c0 -4 23 -32 50 -61 59 -62 60 -74 18 -139 -18 -27 -38
-57 -44 -67 -10 -17 -13 -16 -43 17 -17 20 -38 47 -47 61 -9 13 -19 22 -22 20
-5 -6 36 -65 75 -107 17 -18 31 -25 45 -21 14 3 16 7 7 13 -16 10 35 79 63 87
16 4 17 7 6 14 -10 7 -10 11 0 15 21 8 13 38 -21 84 -19 24 -33 49 -32 54 1 6
0 6 -3 2 -2 -5 -15 2 -28 14 -13 12 -24 19 -24 14z"/>
<path d="M1821 1894 c0 -11 3 -14 6 -6 3 7 2 16 -1 19 -3 4 -6 -2 -5 -13z"/>
<path d="M1600 1889 c0 -7 -12 -10 -28 -7 -28 4 -28 4 -21 -52 13 -101 14 -98
-36 -106 -26 -3 -44 -11 -42 -17 2 -8 112 -41 112 -34 0 1 5 11 11 22 10 19
18 205 9 205 -3 0 -5 -5 -5 -11z"/>
<path d="M3061 1890 c-7 -38 -6 -142 1 -146 4 -3 8 12 8 33 0 22 5 44 12 51 9
9 9 12 1 12 -7 0 -14 15 -16 33 -2 17 -5 25 -6 17z"/>
<path d="M1501 1876 c-24 -13 -24 -13 -2 -26 27 -14 34 -9 29 18 -3 19 -5 19
-27 8z"/>
<path d="M1621 1874 c0 -11 3 -14 6 -6 3 7 2 16 -1 19 -3 4 -6 -2 -5 -13z"/>
<path d="M843 1810 c0 -57 2 -66 7 -37 4 20 4 54 0 75 -5 28 -7 19 -7 -38z"/>
<path d="M1265 1870 c-3 -6 1 -7 9 -4 18 7 21 14 7 14 -6 0 -13 -4 -16 -10z"/>
<path d="M1297 1834 c-37 -62 -34 -70 4 -11 18 26 30 49 28 52 -3 2 -17 -16
-32 -41z"/>
<path d="M2420 1870 c8 -5 29 -9 45 -9 29 1 29 1 5 9 -38 12 -69 12 -50 0z"/>
<path d="M1673 1828 c3 -24 9 -54 13 -67 5 -16 4 -22 -4 -18 -6 4 -9 1 -8 -8
3 -21 7 -23 61 -30 28 -3 64 -8 81 -10 31 -5 31 -5 27 47 -6 72 -11 83 -12 25
-1 -47 -1 -47 -52 -42 -70 7 -79 16 -79 86 0 48 -3 59 -16 59 -14 0 -16 -8
-11 -42z"/>
<path d="M1717 1846 c7 -35 46 -59 41 -25 -2 12 3 24 10 26 7 3 12 -5 12 -22
0 -14 4 -24 9 -20 5 3 12 -3 14 -12 3 -10 5 1 6 25 1 35 -2 42 -18 42 -10 0
-32 3 -49 6 -28 6 -29 4 -25 -20z"/>
<path d="M2260 1860 c0 -7 3 -10 7 -7 3 4 3 10 0 14 -4 3 -7 0 -7 -7z"/>
<path d="M1426 1853 c5 -5 12 -12 15 -16 3 -5 9 -2 12 7 5 12 0 16 -15 16 -12
0 -17 -3 -12 -7z"/>
<path d="M1477 1800 c9 -71 47 -82 49 -14 1 34 1 35 -3 6 -6 -43 -23 -37 -39
14 -13 39 -13 39 -7 -6z"/>
<path d="M518 1823 c7 -3 16 -2 19 1 4 3 -2 6 -13 5 -11 0 -14 -3 -6 -6z"/>
<path d="M1100 1818 c0 -9 -2 -31 -5 -49 -4 -26 -3 -30 4 -14 9 18 10 17 10
-7 1 -20 -4 -28 -16 -28 -15 0 -15 -2 2 -14 18 -13 18 -15 -14 -34 -19 -11
-41 -18 -50 -15 -13 4 -13 3 1 -7 14 -8 24 -7 45 7 49 31 49 33 41 101 -7 60
-18 96 -18 60z"/>
<path d="M553 1793 c4 -3 10 -3 14 0 3 4 0 7 -7 7 -7 0 -10 -3 -7 -7z"/>
<path d="M3115 1709 c-22 -51 -59 -118 -82 -150 -30 -41 -43 -68 -43 -91 1
-28 2 -30 11 -15 6 10 8 24 5 32 -2 7 2 16 10 19 8 3 14 12 14 19 0 21 26 41
35 27 4 -6 1 -9 -5 -8 -7 2 -14 -5 -15 -16 -3 -16 -1 -16 21 5 13 12 24 27 24
33 0 6 -5 4 -10 -4 -5 -8 -10 -11 -10 -6 0 4 14 26 31 48 17 21 29 42 26 45
-4 3 -2 13 2 22 5 9 11 30 14 46 3 17 8 42 12 58 12 48 1 29 -40 -64z"/>
<path d="M305 1780 c-3 -5 1 -10 10 -10 9 0 13 5 10 10 -3 6 -8 10 -10 10 -2
0 -7 -4 -10 -10z"/>
<path d="M10 1765 c-7 -9 -11 -18 -8 -20 3 -3 11 1 18 10 7 9 11 18 8 20 -3 3
-11 -1 -18 -10z"/>
<path d="M923 1773 c4 -3 10 -3 14 0 3 4 0 7 -7 7 -7 0 -10 -3 -7 -7z"/>
<path d="M2070 1770 c0 -7 3 -10 7 -7 3 4 3 10 0 14 -4 3 -7 0 -7 -7z"/>
<path d="M2130 1770 c0 -5 5 -10 10 -10 6 0 10 5 10 10 0 6 -4 10 -10 10 -5 0
-10 -4 -10 -10z"/>
<path d="M2998 1773 c7 -3 16 -2 19 1 4 3 -2 6 -13 5 -11 0 -14 -3 -6 -6z"/>
<path d="M503 1763 c4 -3 10 -3 14 0 3 4 0 7 -7 7 -7 0 -10 -3 -7 -7z"/>
<path d="M862 1750 c0 -14 2 -19 5 -12 2 6 2 18 0 25 -3 6 -5 1 -5 -13z"/>
<path d="M885 1749 c-8 -23 12 -69 28 -69 6 0 2 8 -7 19 -12 13 -15 27 -10 45
7 31 -2 35 -11 5z"/>
<path d="M1620 1760 c0 -7 3 -10 7 -7 3 4 3 10 0 14 -4 3 -7 0 -7 -7z"/>
<path d="M1753 1763 c4 -3 10 -3 14 0 3 4 0 7 -7 7 -7 0 -10 -3 -7 -7z"/>
<path d="M1800 1760 c0 -7 3 -10 7 -7 3 4 3 10 0 14 -4 3 -7 0 -7 -7z"/>
<path d="M522 1753 c-6 -3 -10 -8 -7 -13 3 -4 -2 -11 -11 -14 -12 -4 -15 -2
-10 9 4 11 -1 15 -22 14 -17 -1 -20 -3 -9 -6 9 -2 15 -9 12 -14 -4 -5 0 -9 7
-9 9 0 9 -3 -2 -10 -9 -6 -10 -10 -3 -10 14 0 70 46 63 53 -3 2 -11 2 -18 0z"/>
<path d="M613 1753 c4 -3 10 -3 14 0 3 4 0 7 -7 7 -7 0 -10 -3 -7 -7z"/>
<path d="M1887 1743 c-2 -5 0 -21 4 -38 7 -29 7 -29 8 8 1 35 -3 46 -12 30z"/>
<path d="M2140 1740 c0 -7 3 -10 7 -7 3 4 3 10 0 14 -4 3 -7 0 -7 -7z"/>
<path d="M421 1727 c-8 -10 -7 -14 2 -14 8 0 14 6 14 14 0 7 -1 13 -2 13 -2 0
-8 -6 -14 -13z"/>
<path d="M915 1730 c3 -5 8 -10 11 -10 2 0 4 5 4 10 0 6 -5 10 -11 10 -5 0 -7
-4 -4 -10z"/>
<path d="M1020 1730 c0 -7 3 -10 7 -7 3 4 3 10 0 14 -4 3 -7 0 -7 -7z"/>
<path d="M2989 1693 c-22 -44 -34 -137 -16 -126 13 8 41 68 38 82 -1 7 3 27
10 43 22 54 -6 55 -32 1z"/>
<path d="M2772 1710 c7 -11 17 -20 22 -20 5 0 1 9 -9 20 -10 11 -20 20 -22 20
-2 0 2 -9 9 -20z"/>
<path d="M54 1698 c-4 -7 -3 -8 4 -4 12 7 16 16 8 16 -3 0 -8 -5 -12 -12z"/>
<path d="M3186 1684 c-10 -37 -2 -39 11 -4 6 17 8 30 3 30 -4 0 -11 -12 -14
-26z"/>
<path d="M670 1690 c0 -7 3 -10 7 -7 3 4 3 10 0 14 -4 3 -7 0 -7 -7z"/>
<path d="M1626 1692 c-2 -4 -1 -23 4 -42 8 -35 8 -35 9 8 1 41 -3 50 -13 34z"/>
<path d="M1165 1680 c-3 -5 -1 -10 4 -10 6 0 11 5 11 10 0 6 -2 10 -4 10 -3 0
-8 -4 -11 -10z"/>
<path d="M2815 1686 c6 -3 22 -7 37 -10 19 -4 26 -11 22 -21 -4 -8 1 -17 9
-21 9 -3 18 -12 21 -21 4 -10 2 -13 -8 -10 -10 4 -12 0 -8 -15 3 -14 7 -16 13
-7 8 13 11 4 23 -68 19 -107 31 -137 47 -111 10 15 2 47 -17 66 -8 7 -15 19
-15 25 -5 51 -10 75 -26 120 -9 29 -17 56 -18 62 0 5 -20 10 -45 12 -25 1 -40
1 -35 -1z"/>
<path d="M50 1671 c0 -5 -8 -12 -17 -14 -14 -4 -13 -5 4 -6 24 -1 39 14 23 24
-5 3 -10 2 -10 -4z"/>
<path d="M83 1673 c4 -3 10 -3 14 0 3 4 0 7 -7 7 -7 0 -10 -3 -7 -7z"/>
<path d="M842 1650 c0 -19 2 -27 5 -17 2 9 2 25 0 35 -3 9 -5 1 -5 -18z"/>
<path d="M995 1669 c-4 -6 -5 -12 -2 -15 2 -3 7 2 10 11 7 17 1 20 -8 4z"/>
<path d="M2411 1664 c0 -11 3 -14 6 -6 3 7 2 16 -1 19 -3 4 -6 -2 -5 -13z"/>
<path d="M665 1660 c-16 -7 -17 -9 -3 -9 9 -1 20 4 23 9 7 11 7 11 -20 0z"/>
<path d="M1930 1656 c-34 -11 -35 -13 -36 -61 0 -28 2 -66 4 -85 5 -33 6 -34
13 -10 4 16 7 19 8 8 1 -10 6 -19 11 -19 6 -1 16 -2 23 -3 13 -1 25 34 34 97
5 35 4 37 -23 37 -16 0 -35 4 -43 9 -20 13 21 24 62 17 17 -3 25 -3 17 0 -8 4
-19 10 -25 14 -5 4 -26 3 -45 -4z m39 -80 c0 -6 -3 -6 -6 2 -4 10 -8 10 -19 1
-15 -12 -22 10 -7 24 8 9 33 -12 32 -27z m-52 -23 c-4 -3 -7 0 -7 7 0 7 3 10
7 7 3 -4 3 -10 0 -14z"/>
<path d="M2840 1648 c11 -12 20 -26 20 -32 0 -5 2 -7 5 -4 10 10 -15 58 -30
58 -13 0 -12 -4 5 -22z"/>
<path d="M400 1650 c-9 -6 -10 -10 -3 -10 6 0 15 5 18 10 8 12 4 12 -15 0z"/>
<path d="M1255 1650 c3 -5 8 -10 11 -10 3 0 2 5 -1 10 -3 6 -8 10 -11 10 -3 0
-2 -4 1 -10z"/>
<path d="M1103 1635 c-10 -11 -9 -13 7 -12 11 1 20 7 20 14 0 17 -12 16 -27
-2z"/>
<path d="M2521 1634 c0 -11 3 -14 6 -6 3 7 2 16 -1 19 -3 4 -6 -2 -5 -13z"/>
<path d="M484 1628 c-4 -7 -3 -8 4 -4 7 4 12 9 12 12 0 8 -9 4 -16 -8z"/>
<path d="M50 1620 c0 -4 11 -10 25 -12 13 -3 22 -2 20 2 -7 11 -45 20 -45 10z"/>
<path d="M355 1620 c-3 -5 1 -10 10 -10 9 0 13 5 10 10 -3 6 -8 10 -10 10 -2
0 -7 -4 -10 -10z"/>
<path d="M1218 1623 c6 -2 18 -2 25 0 6 3 1 5 -13 5 -14 0 -19 -2 -12 -5z"/>
<path d="M1268 1623 c7 -3 16 -2 19 1 4 3 -2 6 -13 5 -11 0 -14 -3 -6 -6z"/>
<path d="M2610 1620 c0 -7 3 -10 7 -7 3 4 3 10 0 14 -4 3 -7 0 -7 -7z"/>
<path d="M10 1610 c-8 -5 -11 -12 -7 -16 4 -4 13 -2 19 4 15 15 7 24 -12 12z"/>
<path d="M564 1608 c-4 -7 -3 -8 4 -4 12 7 16 16 8 16 -3 0 -8 -5 -12 -12z"/>
<path d="M3359 1615 c0 -6 -3 -29 -5 -52 -4 -34 -2 -43 10 -43 15 0 22 30 16
70 -2 18 -20 38 -21 25z"/>
<path d="M395 1600 c3 -5 8 -10 11 -10 2 0 4 5 4 10 0 6 -5 10 -11 10 -5 0 -7
-4 -4 -10z"/>
<path d="M840 1600 c0 -7 3 -10 7 -7 3 4 3 10 0 14 -4 3 -7 0 -7 -7z"/>
<path d="M1630 1600 c0 -7 3 -10 7 -7 3 4 3 10 0 14 -4 3 -7 0 -7 -7z"/>
<path d="M2711 1594 c0 -11 3 -14 6 -6 3 7 2 16 -1 19 -3 4 -6 -2 -5 -13z"/>
<path d="M1005 1590 c3 -5 8 -10 11 -10 2 0 4 5 4 10 0 6 -5 10 -11 10 -5 0
-7 -4 -4 -10z"/>
<path d="M450 1575 c-11 -13 -10 -14 4 -9 9 3 16 10 16 15 0 13 -6 11 -20 -6z"/>
<path d="M1203 1583 c4 -3 10 -3 14 0 3 4 0 7 -7 7 -7 0 -10 -3 -7 -7z"/>
<path d="M1735 1584 c-12 -5 -7 -104 6 -104 5 0 9 21 10 48 1 43 2 44 9 18 5
-16 7 -33 5 -37 -3 -3 2 -12 10 -19 13 -10 15 -9 15 9 0 28 17 27 23 -1 2 -13
5 0 6 28 1 50 0 52 -30 58 -34 7 -39 7 -54 0z"/>
<path d="M135 1570 c3 -5 8 -10 11 -10 2 0 4 5 4 10 0 6 -5 10 -11 10 -5 0 -7
-4 -4 -10z"/>
<path d="M1312 1571 c-11 -6 -10 -10 3 -15 10 -3 15 -12 11 -21 -3 -8 -1 -15
4 -15 6 0 9 14 8 30 -2 32 -5 34 -26 21z"/>
<path d="M2548 1573 c6 -2 18 -2 25 0 6 3 1 5 -13 5 -14 0 -19 -2 -12 -5z"/>
<path d="M160 1560 c0 -5 -11 -12 -25 -16 -13 -3 -29 -12 -36 -20 -7 -8 -20
-12 -30 -9 -23 8 -25 -10 -3 -19 9 -3 28 2 42 12 15 10 39 24 54 31 15 8 25
18 22 23 -7 11 -24 10 -24 -2z"/>
<path d="M840 1560 c0 -7 3 -10 7 -7 3 4 3 10 0 14 -4 3 -7 0 -7 -7z"/>
<path d="M2423 1498 c0 -57 3 -78 13 -78 7 0 14 -10 16 -21 3 -21 3 -21 23 1
14 16 16 21 5 18 -25 -8 -49 35 -53 98 -3 51 -4 48 -4 -18z"/>
<path d="M2516 1555 c-9 -24 -8 -27 6 -19 7 4 8 3 4 -4 -4 -6 -25 -16 -46 -22
-36 -10 -56 -30 -29 -30 6 0 8 -8 4 -19 -5 -16 -2 -18 15 -14 11 3 23 9 26 14
3 5 -3 6 -13 2 -16 -6 -16 -5 -4 10 12 15 12 17 -3 11 -9 -3 -16 -2 -16 4 0 6
18 13 40 17 25 4 40 12 40 21 0 8 5 14 11 14 8 0 9 -11 5 -32 -4 -24 -3 -29 4
-18 13 20 13 60 0 60 -20 0 -25 2 -31 12 -3 5 -9 2 -13 -7z"/>
<path d="M2762 1545 c0 -16 3 -52 8 -80 7 -50 7 -50 7 0 1 28 -3 64 -7 80 -8
30 -8 30 -8 0z"/>
<path d="M524 1548 c-4 -7 -3 -8 4 -4 12 7 16 16 8 16 -3 0 -8 -5 -12 -12z"/>
<path d="M1388 1550 c6 -8 12 -28 12 -45 0 -26 6 -34 35 -48 28 -13 33 -14 28
-2 -3 9 4 19 18 25 24 11 24 11 -1 5 -49 -12 -55 -10 -58 16 -2 15 -13 35 -25
45 -12 10 -16 12 -9 4z"/>
<path d="M1640 1556 c0 -2 7 -9 15 -16 13 -11 14 -10 9 4 -5 14 -24 23 -24 12z"/>
<path d="M2 1538 c5 -15 28 -23 28 -10 0 5 -7 13 -16 16 -10 4 -14 1 -12 -6z"/>
<path d="M1249 1535 c44 -19 64 -19 27 0 -15 8 -36 15 -45 15 -9 -1 -1 -7 18
-15z"/>
<path d="M2591 1512 c-24 -37 -24 -37 6 -9 16 15 34 27 41 27 7 0 12 -12 12
-27 0 -16 5 -35 10 -43 7 -11 9 -2 8 33 -1 30 -6 47 -14 47 -7 0 -18 2 -26 5
-7 3 -23 -11 -37 -33z"/>
<path d="M3206 1537 c-26 -11 -27 -14 -12 -26 14 -11 16 -11 16 2 0 10 6 14
13 11 8 -3 20 2 27 11 16 19 -1 20 -44 2z"/>
<path d="M3315 1540 c3 -5 0 -10 -7 -10 -9 0 -9 -3 -2 -8 6 -4 10 -19 10 -34
-1 -16 2 -28 6 -28 4 0 8 20 8 45 0 25 -5 45 -11 45 -5 0 -7 -4 -4 -10z"/>
<path d="M803 1533 c4 -3 10 -3 14 0 3 4 0 7 -7 7 -7 0 -10 -3 -7 -7z"/>
<path d="M943 1533 c4 -3 10 -3 14 0 3 4 0 7 -7 7 -7 0 -10 -3 -7 -7z"/>
<path d="M1160 1531 c0 -5 8 -11 18 -14 9 -2 26 -8 37 -12 20 -8 20 -8 0 12
-20 19 -55 28 -55 14z"/>
<path d="M252 1522 c-14 -4 -62 -50 -62 -58 0 -2 11 3 25 12 14 9 25 13 25 9
0 -3 7 1 16 9 18 18 15 35 -4 28z"/>
<path d="M583 1523 c4 -3 10 -3 14 0 3 4 0 7 -7 7 -7 0 -10 -3 -7 -7z"/>
<path d="M913 1523 c4 -3 10 -3 14 0 3 4 0 7 -7 7 -7 0 -10 -3 -7 -7z"/>
<path d="M1275 1500 c3 -5 1 -10 -5 -10 -6 0 2 -12 19 -26 25 -21 34 -23 48
-14 16 10 16 11 -4 7 -15 -3 -20 -1 -16 9 3 8 9 14 14 14 5 0 9 5 9 12 0 9 -3
9 -12 0 -7 -7 -19 -12 -27 -12 -13 0 -13 2 -3 9 11 7 10 10 -3 15 -23 8 -27 8
-20 -4z"/>
<path d="M2621 1494 c0 -11 3 -14 6 -6 3 7 2 16 -1 19 -3 4 -6 -2 -5 -13z"/>
<path d="M3356 1493 c3 -13 -28 -43 -45 -43 -7 0 -24 -9 -38 -20 -15 -11 -29
-18 -32 -14 -3 3 2 11 12 19 20 15 13 47 -10 38 -11 -4 -11 -8 -3 -13 9 -5 9
-9 1 -14 -6 -4 -16 4 -23 18 -12 29 -28 34 -28 11 0 -8 5 -15 11 -15 8 0 8 -4
0 -14 -6 -7 -10 -24 -9 -37 3 -20 -1 -24 -22 -21 -18 2 -21 0 -11 -6 16 -12
-3 -27 -21 -16 -7 4 -8 3 -4 -4 4 -8 -3 -16 -20 -22 -15 -6 -24 -13 -21 -16 3
-3 15 -1 26 6 29 15 44 4 31 -21 -9 -15 -15 -17 -30 -9 -10 5 -29 10 -42 9
-18 -1 -17 -3 10 -10 38 -11 43 -29 8 -29 -14 0 -28 -5 -32 -12 -4 -6 -3 -8 4
-4 21 12 21 -11 1 -30 -20 -18 -21 -18 -35 1 -14 18 -14 18 -14 -3 0 -12 5
-22 11 -22 5 0 7 -4 4 -10 -3 -5 0 -10 8 -10 8 0 22 -9 32 -20 10 -11 25 -20
34 -20 10 1 6 6 -10 15 -50 27 -41 52 34 100 34 22 61 6 30 -16 -11 -8 -23
-23 -27 -33 -7 -19 -6 -19 12 -3 26 24 54 12 50 -22 -2 -20 -10 -27 -33 -32
-30 -7 -30 -7 5 -8 30 -1 33 -3 19 -14 -9 -7 -38 -11 -65 -10 -27 2 -57 3 -66
3 -9 1 -20 10 -23 21 -9 27 -27 24 -23 -3 2 -18 12 -25 43 -31 22 -5 64 -18
93 -29 29 -11 56 -18 59 -14 4 3 0 6 -8 7 -9 0 -6 4 6 10 17 8 15 8 -7 4 -35
-7 -36 9 -3 31 24 16 27 16 45 -1 16 -14 23 -16 32 -7 9 9 9 12 0 12 -7 0 -12
5 -12 11 0 12 134 2 163 -13 12 -6 17 -5 17 7 0 8 -8 16 -17 16 -31 3 -117 9
-133 9 -55 3 -80 12 -80 30 0 11 4 20 10 20 5 0 7 -7 4 -15 -9 -23 6 -18 28
10 11 14 28 25 39 25 13 0 18 4 13 12 -4 7 -3 8 4 4 7 -4 22 0 33 8 22 15 22
15 -6 22 -29 7 -29 7 -5 16 20 8 22 11 10 19 -13 9 -13 10 0 6 35 -11 57 29
49 90 -4 32 -8 68 -8 81 -1 13 -5 21 -10 18 -5 -4 -11 -3 -14 1 -2 5 -3 3 -1
-4z m17 -63 c3 -11 1 -20 -4 -20 -5 0 -9 9 -9 21 0 11 -5 17 -10 14 -6 -4 -7
-11 -4 -17 4 -7 2 -8 -5 -4 -9 6 -9 11 0 22 14 17 25 11 32 -16z m-83 -20
c-33 -26 -49 -26 -19 0 13 10 29 19 34 19 6 1 -1 -8 -15 -19z m17 -27 c-14
-15 -29 -24 -33 -20 -3 3 7 17 22 31 38 32 46 23 11 -11z m63 3 c0 -8 -14 -16
-32 -18 -28 -4 -29 -4 -13 8 10 7 22 11 26 8 5 -3 9 0 9 5 0 6 2 11 5 11 3 0
5 -6 5 -14z m-175 -36 c-3 -5 -14 -10 -23 -10 -15 0 -15 2 -2 10 20 13 33 13
25 0z m191 -8 c-3 -2 -25 -6 -48 -8 -43 -3 -43 -3 -13 10 27 11 73 10 61 -2z
m-146 -14 c5 -13 9 -18 10 -13 0 6 4 4 8 -3 6 -9 16 -10 34 -3 19 7 25 6 25
-5 0 -8 -6 -14 -14 -14 -7 0 -13 -6 -13 -13 0 -9 -10 -12 -32 -10 -25 3 -30 2
-18 -6 13 -9 13 -11 -2 -11 -10 0 -20 1 -23 3 -3 1 -10 -5 -15 -13 -7 -11 -10
-11 -10 -2 0 7 8 25 17 40 17 26 17 26 0 13 -15 -12 -17 -11 -17 8 0 12 6 21
15 21 9 0 12 6 9 15 -4 8 -1 15 5 15 7 0 16 -10 21 -22z m-63 -35 c-4 -3 -10
-3 -14 0 -3 4 0 7 7 7 7 0 10 -3 7 -7z m150 -40 c-4 -3 -10 -3 -14 0 -3 4 0 7
7 7 7 0 10 -3 7 -7z m-90 -110 c-4 -3 -10 -3 -14 0 -3 4 0 7 7 7 7 0 10 -3 7
-7z m-84 -40 c-7 -2 -19 -2 -25 0 -7 3 -2 5 12 5 14 0 19 -2 13 -5z"/>
<path d="M13 1493 c-17 -6 -17 -56 -1 -51 6 2 14 10 16 18 3 7 0 10 -7 6 -6
-4 -11 -3 -11 3 0 5 6 11 13 14 6 2 10 7 7 9 -3 3 -11 3 -17 1z"/>
<path d="M930 1496 c0 -2 8 -10 18 -17 15 -13 16 -12 3 4 -13 16 -21 21 -21
13z"/>
<path d="M3420 1484 c0 -8 5 -12 10 -9 6 3 10 10 10 16 0 5 -4 9 -10 9 -5 0
-10 -7 -10 -16z"/>
<path d="M135 1480 c-3 -5 -1 -10 4 -10 6 0 11 5 11 10 0 6 -2 10 -4 10 -3 0
-8 -4 -11 -10z"/>
<path d="M280 1465 c0 -8 4 -15 10 -15 5 0 7 7 4 15 -4 8 -8 15 -10 15 -2 0
-4 -7 -4 -15z"/>
<path d="M670 1470 c0 -7 3 -10 7 -7 3 4 3 10 0 14 -4 3 -7 0 -7 -7z"/>
<path d="M973 1473 c4 -3 10 -3 14 0 3 4 0 7 -7 7 -7 0 -10 -3 -7 -7z"/>
<path d="M1195 1470 c-3 -5 0 -10 9 -10 8 0 23 -3 33 -6 16 -5 16 -4 -1 10
-23 19 -32 20 -41 6z"/>
<path d="M1638 1473 c7 -3 16 -2 19 1 4 3 -2 6 -13 5 -11 0 -14 -3 -6 -6z"/>
<path d="M2861 1464 c0 -12 6 -27 14 -34 8 -7 15 -20 16 -29 0 -11 2 -12 6 -3
3 7 -2 21 -10 30 -8 9 -17 26 -20 37 -4 19 -5 19 -6 -1z"/>
<path d="M1583 1463 c4 -3 10 -3 14 0 3 4 0 7 -7 7 -7 0 -10 -3 -7 -7z"/>
<path d="M1897 1456 c-3 -8 -16 -16 -29 -19 -21 -4 -21 -4 3 -6 24 -1 48 24
35 36 -2 2 -6 -3 -9 -11z"/>
<path d="M2560 1460 c0 -7 3 -10 7 -7 3 4 3 10 0 14 -4 3 -7 0 -7 -7z"/>
<path d="M2610 1463 c0 -5 8 -17 17 -28 14 -18 15 -18 9 -2 -3 10 -6 23 -6 28
0 5 -4 9 -10 9 -5 0 -10 -3 -10 -7z"/>
<path d="M63 1453 c4 -3 10 -3 14 0 3 4 0 7 -7 7 -7 0 -10 -3 -7 -7z"/>
<path d="M240 1450 c0 -7 3 -10 7 -7 3 4 3 10 0 14 -4 3 -7 0 -7 -7z"/>
<path d="M433 1453 c4 -3 10 -3 14 0 3 4 0 7 -7 7 -7 0 -10 -3 -7 -7z"/>
<path d="M1613 1453 c4 -3 10 -3 14 0 3 4 0 7 -7 7 -7 0 -10 -3 -7 -7z"/>
<path d="M1740 1438 c-12 -22 -12 -22 6 -6 10 10 15 20 12 24 -4 3 -12 -5 -18
-18z"/>
<path d="M1780 1450 c0 -7 3 -10 7 -7 3 4 3 10 0 14 -4 3 -7 0 -7 -7z"/>
<path d="M2160 1455 c0 -21 42 -46 86 -52 54 -7 54 -27 -1 -31 -27 -2 -35 -6
-25 -12 12 -7 11 -10 -4 -16 -11 -4 -21 -2 -27 7 -6 10 -9 10 -9 2 0 -7 -7
-13 -15 -13 -18 0 -19 -12 -3 -28 16 -16 -33 -17 -65 -1 -21 10 -21 10 -3 -5
19 -16 19 -16 -5 -16 -19 0 -21 -2 -9 -10 8 -5 11 -10 5 -10 -5 -1 1 -6 15
-12 15 -6 20 -12 13 -15 -27 -10 -11 -24 25 -23 75 4 75 4 67 -37 -4 -21 -9
-40 -12 -43 -11 -12 -178 -17 -192 -6 -11 8 -13 8 -9 -4 5 -17 -33 -52 -82
-74 -34 -15 -34 -15 -5 -9 17 3 50 18 74 34 51 33 109 44 200 36 90 -7 88 -10
93 89 1 30 6 40 15 37 8 -3 13 3 13 16 0 12 4 21 9 21 15 0 33 -29 25 -41 -4
-8 -3 -9 4 -5 8 5 12 -3 12 -24 0 -18 -4 -29 -10 -25 -6 4 -7 -1 -3 -11 4 -10
2 -15 -4 -11 -5 3 -10 0 -10 -8 0 -8 5 -11 10 -8 6 3 16 -2 23 -11 8 -11 14
-13 19 -7 3 6 3 11 -2 11 -4 0 -3 4 3 8 6 4 14 23 17 42 4 21 4 30 -2 21 -5
-8 -9 10 -10 50 -2 35 -3 78 -4 95 0 25 -4 30 -19 26 -24 -6 -23 10 2 26 11 7
20 17 20 24 0 6 -10 2 -23 -10 -25 -24 -52 -28 -62 -12 -4 6 -15 8 -26 5 -19
-6 -88 21 -101 39 -5 7 -8 8 -8 1z m147 -97 c-2 -7 -11 -12 -21 -10 -14 2 -20
-7 -18 -28 0 -3 -12 -7 -28 -8 -41 -3 -30 22 18 42 46 19 55 19 49 4z m36 -17
c-2 -6 4 -11 12 -11 11 0 15 -10 14 -37 0 -21 -3 -31 -6 -23 -4 8 -17 25 -31
37 -16 14 -23 27 -18 38 7 18 33 15 29 -4z m-56 -66 c2 -18 1 -18 -4 -1 -4 14
-11 17 -34 12 -17 -3 -29 -1 -29 5 0 21 65 5 67 -16z m-94 3 c12 -7 31 -13 41
-13 11 0 21 -7 24 -15 5 -13 3 -13 -11 -1 -12 9 -17 10 -17 2 0 -8 -14 -11
-37 -9 -22 2 -37 8 -36 15 1 6 -4 14 -13 17 -9 4 -12 2 -8 -5 4 -7 1 -10 -6
-7 -8 2 -16 10 -18 16 -5 16 53 16 81 0z m38 -151 c-12 -12 -15 4 -11 58 3 52
15 52 18 1 2 -27 -2 -54 -7 -59z"/>
<path d="M3420 1451 c0 -6 5 -13 10 -16 6 -3 10 1 10 9 0 9 -4 16 -10 16 -5 0
-10 -4 -10 -9z"/>
<path d="M100 1440 c0 -7 3 -10 7 -7 3 4 3 10 0 14 -4 3 -7 0 -7 -7z"/>
<path d="M213 1435 c-6 -6 -8 -18 -3 -24 5 -9 9 -5 13 10 7 28 6 31 -10 14z"/>
<path d="M1263 1443 c4 -3 10 -3 14 0 3 4 0 7 -7 7 -7 0 -10 -3 -7 -7z"/>
<path d="M1494 1443 c24 -6 92 -55 92 -66 -1 -10 59 -37 81 -37 8 0 11 5 8 10
-3 6 -15 10 -25 10 -11 0 -27 8 -37 18 -30 30 -102 72 -120 71 -16 -1 -16 -2
1 -6z"/>
<path d="M1650 1446 c0 -2 9 -6 20 -9 11 -3 18 -1 14 4 -5 9 -34 13 -34 5z"/>
<path d="M1814 1441 c11 -17 -6 -41 -27 -41 -20 0 -20 0 -1 -15 25 -19 33 -19
33 3 -1 9 2 27 6 40 5 14 3 22 -4 22 -7 0 -10 -4 -7 -9z"/>
<path d="M1970 1440 c0 -7 3 -10 7 -7 3 4 3 10 0 14 -4 3 -7 0 -7 -7z"/>
<path d="M2343 1443 c4 -3 10 -3 14 0 3 4 0 7 -7 7 -7 0 -10 -3 -7 -7z"/>
<path d="M154 1426 c-10 -8 -16 -17 -13 -20 3 -3 14 1 25 8 10 8 16 17 13 20
-3 3 -14 -1 -25 -8z"/>
<path d="M514 1418 c-4 -7 -3 -8 4 -4 7 4 12 9 12 12 0 8 -9 4 -16 -8z"/>
<path d="M996 1415 c4 -8 11 -15 16 -15 6 0 5 6 -2 15 -7 8 -14 15 -16 15 -2
0 -1 -7 2 -15z"/>
<path d="M15 1409 c-11 -17 1 -21 15 -4 8 9 8 15 2 15 -6 0 -14 -5 -17 -11z"/>
<path d="M74 1408 c-4 -7 -3 -8 4 -4 12 7 16 16 8 16 -3 0 -8 -5 -12 -12z"/>
<path d="M1144 1409 c-3 -5 6 -9 20 -9 31 0 34 6 6 13 -11 3 -23 1 -26 -4z"/>
<path d="M1610 1412 c0 -5 7 -13 16 -16 10 -4 14 -1 12 6 -5 15 -28 23 -28 10z"/>
<path d="M1975 1410 c3 -5 8 -10 11 -10 2 0 4 5 4 10 0 6 -5 10 -11 10 -5 0
-7 -4 -4 -10z"/>
<path d="M2070 1411 c0 -5 5 -13 10 -16 6 -3 10 -2 10 4 0 5 -4 13 -10 16 -5
3 -10 2 -10 -4z"/>
<path d="M3415 1385 c0 -20 5 -35 12 -35 7 0 11 14 10 35 -3 46 -22 46 -22 0z"/>
<path d="M240 1403 c0 -5 15 -17 33 -28 44 -27 54 -31 37 -14 -24 22 -70 50
-70 42z"/>
<path d="M1057 1390 c-13 -15 -14 -20 -3 -20 7 0 16 9 19 20 3 11 4 20 3 20
-1 0 -9 -9 -19 -20z"/>
<path d="M1715 1400 c3 -5 11 -10 16 -10 6 0 7 5 4 10 -3 6 -11 10 -16 10 -6
0 -7 -4 -4 -10z"/>
<path d="M2150 1397 c0 -7 9 -13 20 -14 18 -2 18 0 6 13 -18 17 -26 18 -26 1z"/>
<path d="M2617 1403 c-4 -3 -7 -11 -7 -16 0 -6 3 -7 7 -4 3 4 16 -1 27 -10 21
-18 21 -18 1 7 -11 14 -20 26 -21 28 0 1 -4 -1 -7 -5z"/>
<path d="M3080 1400 c8 -5 20 -10 25 -10 6 0 3 5 -5 10 -8 5 -19 10 -25 10 -5
0 -3 -5 5 -10z"/>
<path d="M50 1390 c0 -7 3 -10 7 -7 3 4 3 10 0 14 -4 3 -7 0 -7 -7z"/>
<path d="M1406 1385 c4 -8 11 -15 16 -15 6 0 5 6 -2 15 -7 8 -14 15 -16 15 -2
0 -1 -7 2 -15z"/>
<path d="M1540 1348 c43 -45 48 -54 36 -66 -12 -12 -18 -12 -39 -1 -79 44
-107 56 -107 48 0 -5 12 -14 27 -20 43 -16 57 -30 41 -41 -9 -7 -7 -8 7 -4 40
11 49 -10 12 -31 -18 -11 -46 -28 -60 -38 -27 -17 -27 -17 -26 16 0 19 3 29 6
22 3 -9 10 -7 25 6 27 26 10 62 -30 60 -27 -2 -27 -2 -2 -6 43 -8 55 -43 15
-43 -28 0 -42 -39 -37 -102 3 -25 72 8 72 33 0 29 81 62 98 40 7 -9 18 -17 25
-17 7 -1 18 -2 25 -3 6 0 12 -9 12 -18 0 -15 2 -15 9 -4 15 24 91 24 91 0 0
-13 -7 -19 -21 -19 -15 0 -19 -5 -15 -15 11 -29 -27 -36 -50 -8 -20 25 -20 25
-34 -18 -16 -48 -59 -119 -71 -119 -5 0 -6 6 -3 13 8 21 -16 35 -71 39 -27 3
-58 8 -68 12 -13 7 -16 5 -11 -8 4 -11 2 -16 -7 -14 -8 2 -16 14 -19 28 -5 24
-8 25 -80 25 -75 0 -75 0 -81 30 -6 30 -6 30 -8 -2 -1 -32 -21 -48 -21 -18 0
11 -11 15 -36 15 -37 0 -37 0 -31 -37 4 -21 3 -43 -1 -50 -7 -11 -121 -58
-126 -51 -1 1 -12 16 -25 33 -23 30 -23 30 -15 0 10 -41 8 -67 -8 -76 -8 -6 0
-9 22 -9 27 0 38 5 45 23 6 14 27 28 56 37 63 21 80 36 70 63 -12 35 -7 52 15
55 25 4 39 -48 20 -69 -8 -9 -6 -10 7 -6 40 15 107 19 107 7 0 -7 -8 -10 -20
-7 -11 3 -23 1 -26 -4 -3 -5 11 -9 30 -9 25 0 36 5 36 15 0 22 -29 33 -71 25
-27 -5 -39 -4 -39 4 0 21 161 28 167 8 3 -7 -1 -10 -11 -6 -21 8 -20 -6 1 -21
28 -21 6 -80 -31 -80 -33 -1 -48 -21 -40 -57 5 -23 2 -28 -15 -28 -11 0 -23 5
-26 11 -4 6 -29 8 -62 5 -60 -5 -83 0 -83 18 -1 24 -44 45 -64 31 -10 -8 -15
-18 -12 -23 3 -6 0 -12 -6 -15 -10 -3 -10 -7 0 -20 11 -13 35 -16 139 -15 97
1 127 -2 134 -13 13 -21 11 -103 -3 -118 -11 -10 -10 -11 5 -6 22 9 22 7 13
124 -7 83 -7 83 21 77 18 -4 23 -3 15 2 -11 7 -10 10 3 16 23 8 27 8 20 -4 -3
-5 0 -10 8 -10 8 0 17 -7 21 -15 5 -15 -12 -20 -59 -17 -20 2 -20 1 -1 -13 12
-9 24 -11 30 -6 6 5 26 12 44 16 17 3 32 11 32 15 0 5 -6 7 -14 4 -14 -5 -36
23 -36 47 0 8 3 9 13 0 19 -15 99 -43 92 -31 -3 5 -20 14 -39 20 -25 8 -35 18
-39 38 -7 38 -2 42 53 42 43 0 50 -3 62 -27 7 -15 24 -33 37 -39 32 -17 304
-19 277 -2 -11 6 -36 11 -55 12 -35 1 -36 2 -39 44 -3 37 0 44 17 49 15 4 21
13 21 34 0 30 -14 39 -24 17 -3 -7 -5 -4 -3 7 2 15 11 21 38 23 36 3 36 3 31
-47 -3 -34 -1 -51 7 -51 6 0 11 8 11 18 0 14 2 15 9 2 6 -8 8 -17 5 -21 -2 -4
1 -11 7 -14 7 -5 9 1 7 16 -3 22 0 24 32 21 26 -2 31 0 20 7 -12 9 -12 11 2
16 10 4 20 15 23 26 4 10 12 19 19 19 6 0 12 10 13 21 3 32 17 43 41 30 11 -6
29 -11 39 -11 12 1 8 5 -12 15 -25 11 -27 14 -9 14 26 1 50 26 34 36 -5 3 -10
1 -10 -5 0 -7 -6 -10 -12 -7 -7 2 -12 10 -10 16 1 6 -4 11 -10 11 -10 0 -10 3
0 9 12 7 -28 27 -48 23 -3 0 -17 8 -30 19 -25 19 -25 19 -1 19 13 0 44 -11 68
-25 45 -27 58 -21 23 10 -11 10 -20 15 -20 11 0 -4 -10 -2 -21 5 -18 9 -19 13
-8 21 10 7 4 8 -19 4 -23 -4 -31 -2 -26 6 5 8 0 9 -17 5 -15 -4 -30 0 -41 10
-10 9 -18 11 -18 5 0 -6 9 -16 20 -22 11 -6 20 -18 20 -28 0 -9 19 -28 42 -42
51 -31 70 -49 63 -60 -7 -11 -54 8 -78 32 -19 20 -32 24 -22 8 3 -6 -4 -10
-17 -10 -19 0 -20 2 -8 11 12 8 10 9 -7 4 -14 -4 -36 3 -62 20 -44 27 -51 30
-51 16 0 -5 15 -16 34 -25 41 -19 66 -46 43 -46 -8 0 -20 7 -27 15 -9 11 -17
12 -32 4 -14 -8 -32 -6 -69 6 -57 19 -61 24 -19 23 16 -1 27 -5 24 -10 -9 -14
13 -9 26 7 10 12 10 19 1 28 -9 9 -14 9 -21 -3 -8 -12 -13 -13 -30 -2 -11 7
-20 8 -20 3 0 -5 -10 -7 -22 -3 -14 3 -19 2 -14 -6 4 -7 4 -16 1 -22 -7 -12
-82 39 -90 63 -4 9 -20 24 -36 32 -24 13 -21 7 21 -37z m71 -82 c-6 -7 -8 -16
-4 -19 3 -4 1 -7 -5 -7 -6 0 -14 5 -17 10 -3 6 -1 10 4 10 6 0 11 7 11 16 0 8
5 12 10 9 8 -5 8 -11 1 -19z m29 -6 c-25 -16 -4 -21 25 -6 26 14 63 10 64 -6
2 -23 -1 -26 -21 -21 -19 4 -20 3 -8 -6 12 -8 8 -11 -20 -11 -50 0 -60 10 -52
53 1 4 8 7 15 7 8 0 7 -3 -3 -10z m170 -22 c0 -19 -2 -20 -10 -8 -13 19 -13
30 0 30 6 0 10 -10 10 -22z m-37 -4 c8 -8 -3 -34 -14 -34 -5 0 -9 9 -9 20 0
19 11 26 23 14z m212 -14 c0 -11 -10 -15 -38 -14 -42 1 -52 7 -42 24 10 17 80
8 80 -10z m-137 -31 c4 -24 3 -24 -12 -4 -19 24 -20 38 -3 33 6 -3 13 -15 15
-29z m62 -1 c0 -13 -20 -9 -36 6 -21 22 -17 27 11 14 14 -6 25 -15 25 -20z
m-123 0 c-3 -8 -6 -5 -6 6 -1 11 2 17 5 13 3 -3 4 -12 1 -19z m30 -15 c-4 -3
-7 0 -7 7 0 7 3 10 7 7 3 -4 3 -10 0 -14z m30 -45 c-3 -8 -6 -5 -6 6 -1 11 2
17 5 13 3 -3 4 -12 1 -19z m-220 -50 c-3 -7 -5 -2 -5 12 0 14 2 19 5 13 2 -7
2 -19 0 -25z m43 -54 c0 -8 -7 -14 -15 -14 -8 0 -15 -4 -15 -10 0 -5 7 -6 17
-3 11 4 14 3 9 -5 -4 -7 -21 -12 -38 -12 -29 0 -30 1 -15 18 10 10 17 23 17
28 0 5 9 10 20 11 11 1 20 -4 20 -13z m35 -42 c-3 -3 -11 0 -18 7 -9 10 -8 11
6 5 10 -3 15 -9 12 -12z m-639 -69 c19 -25 17 -33 -5 -33 -23 0 -35 15 -27 35
7 20 16 19 32 -2z"/>
<path d="M1659 1392 c11 -8 11 -10 0 -14 -8 -3 1 -5 19 -5 36 0 32 11 -8 22
-17 4 -21 3 -11 -3z"/>
<path d="M2120 1390 c0 -7 3 -10 7 -7 3 4 3 10 0 14 -4 3 -7 0 -7 -7z"/>
<path d="M161 1381 c-24 -4 -39 -15 -51 -35 -17 -31 -27 -38 -75 -53 -27 -7
-53 -56 -28 -52 30 5 35 -2 15 -21 -35 -33 -25 -43 14 -14 21 16 31 30 24 34
-6 4 8 26 36 56 26 27 47 53 46 57 -2 5 2 5 8 2 6 -4 19 0 28 8 9 8 24 17 32
20 21 7 -2 7 -49 -2z m-111 -116 c-16 -19 -30 -19 -30 -1 0 8 8 16 18 18 24 6
27 1 12 -17z"/>
<path d="M1200 1380 c0 -7 3 -10 7 -7 3 4 3 10 0 14 -4 3 -7 0 -7 -7z"/>
<path d="M0 1365 c0 -9 6 -12 15 -9 19 8 19 10 0 18 -9 3 -15 0 -15 -9z"/>
<path d="M1448 1368 c5 -5 16 -8 23 -6 8 3 3 7 -10 11 -17 4 -21 3 -13 -5z"/>
<path d="M2565 1370 c-2 -3 5 -7 16 -7 10 -1 19 2 19 6 0 9 -29 10 -35 1z"/>
<path d="M51 1350 c-24 -11 -42 -23 -39 -26 8 -7 88 26 88 37 0 11 3 12 -49
-11z"/>
<path d="M1710 1360 c-8 -5 -11 -12 -7 -17 5 -4 11 -2 15 4 4 6 16 13 27 16
20 5 20 5 0 6 -11 0 -27 -3 -35 -9z"/>
<path d="M3079 1359 c14 -5 28 -6 33 -1 4 4 -7 9 -25 9 -30 2 -31 2 -8 -8z"/>
<path d="M215 1343 c-20 -15 -19 -15 5 -10 25 6 25 6 1 -14 -13 -10 -38 -19
-57 -19 -23 0 -37 -6 -44 -21 -11 -19 -10 -20 10 -9 11 6 29 9 38 7 15 -3 14
-5 -3 -12 -25 -10 -55 -35 -55 -46 0 -5 7 -5 17 -2 10 4 14 2 10 -4 -4 -6 -22
-10 -41 -9 -54 5 -93 -32 -94 -88 -1 -38 1 -44 15 -39 11 4 13 8 5 11 -20 6
-13 22 14 32 33 13 51 2 27 -16 -13 -9 -14 -13 -4 -14 18 0 40 30 34 47 -6 16
-37 17 -64 3 -10 -6 -19 -7 -19 -2 0 17 35 40 60 39 14 0 36 3 48 7 22 7 23 6
16 -16 -12 -34 -12 -81 0 -96 10 -15 -6 -30 -34 -33 -46 -5 -59 -7 -71 -13 -8
-4 -4 1 8 12 27 24 19 36 -12 16 -17 -11 -22 -24 -22 -56 0 -39 0 -40 16 -21
24 30 54 43 103 43 41 0 42 -1 18 -13 -14 -7 -30 -28 -36 -46 -9 -29 -19 -37
-58 -49 -25 -8 -46 -19 -46 -23 0 -12 17 -11 25 1 3 6 18 10 33 10 26 0 92 60
92 84 0 15 34 35 61 36 14 0 29 4 35 10 5 5 35 13 67 16 63 7 115 -15 171 -75
27 -28 35 -31 93 -31 35 0 63 -2 63 -4 0 -3 -4 -16 -10 -31 -10 -25 -9 -26 11
-11 12 8 26 13 33 10 8 -3 10 16 8 61 -2 65 -2 65 27 65 29 0 30 -1 34 -57 2
-32 3 -17 2 32 -1 50 -5 100 -10 113 -5 14 -3 22 4 22 6 0 11 -9 11 -20 0 -11
5 -20 11 -20 8 0 10 -14 6 -44 -6 -43 -6 -43 21 -38 24 5 26 4 13 -11 -7 -10
-9 -17 -4 -17 20 0 39 -50 23 -60 -12 -8 -10 -10 7 -10 17 0 24 7 29 28 3 15
7 33 10 40 2 7 -1 10 -6 7 -6 -3 -10 3 -10 14 0 13 5 19 14 15 7 -3 16 2 19
10 4 9 1 15 -5 13 -11 -2 -18 23 -21 76 -2 21 -4 24 -12 14 -9 -12 -15 -12
-42 3 -32 17 -32 17 -7 29 17 8 31 8 44 1 10 -5 25 -10 32 -10 7 1 -2 7 -21
16 -19 8 -44 11 -55 8 -12 -4 -21 -5 -22 -3 0 2 -8 -4 -18 -13 -13 -14 -22
-15 -36 -8 -10 6 -29 10 -42 9 -18 -1 -17 -3 10 -10 30 -9 32 -13 32 -53 0
-26 5 -46 13 -49 6 -3 -22 -6 -64 -6 -68 -1 -78 1 -93 22 -17 22 -17 22 -5 -2
12 -26 1 -40 -36 -42 -11 0 -29 -4 -40 -9 -14 -6 -3 -8 35 -7 55 2 55 2 55
-28 0 -42 -60 -52 -71 -11 -3 14 -10 26 -16 26 -5 0 -6 -4 -3 -10 11 -18 -6
-10 -33 16 -46 43 -78 55 -143 53 -32 -1 -62 1 -66 4 -3 4 -14 0 -23 -8 -16
-14 -19 -14 -34 1 -10 9 -15 22 -12 30 3 7 0 15 -7 18 -7 3 -5 4 3 3 8 -2 27
0 43 4 16 5 25 4 22 -2 -4 -5 -14 -9 -23 -10 -11 0 -8 -4 8 -10 31 -13 36 -11
32 13 -2 10 4 21 12 24 11 4 15 18 14 50 -1 24 -5 38 -9 32 -4 -6 -10 -1 -14
13 -4 13 -13 27 -19 31 -8 6 -7 8 2 8 6 0 21 -9 32 -20 11 -11 25 -20 30 -20
6 0 0 10 -11 21 -22 22 -22 22 2 40 24 19 24 19 -9 8 -18 -6 -36 -9 -39 -5 -4
3 -14 -7 -24 -23 -20 -33 -55 -56 -63 -42 -4 5 6 19 21 31 22 17 24 23 13 30
-10 6 -4 10 21 15 50 10 75 30 59 50 -16 19 -40 19 -65 -2z m62 -9 c-3 -3 -12
-4 -19 -1 -8 3 -5 6 6 6 11 1 17 -2 13 -5z m-37 -124 c0 -5 -5 -10 -11 -10 -5
0 -7 5 -4 10 3 6 8 10 11 10 2 0 4 -4 4 -10z m-83 -17 c-4 -3 -7 0 -7 7 0 7 3
10 7 7 3 -4 3 -10 0 -14z m83 -19 c0 -10 -6 -14 -15 -11 -8 4 -17 2 -20 -3 -4
-6 -2 -10 4 -10 6 0 8 -7 5 -15 -10 -25 -31 -17 -36 15 -4 23 0 30 16 33 40 8
46 7 46 -9z m30 -4 c0 -5 -2 -10 -4 -10 -3 0 -8 5 -11 10 -3 6 -1 10 4 10 6 0
11 -4 11 -10z m569 -80 c0 -10 -2 -11 -6 -2 -2 6 -8 10 -13 7 -4 -3 -15 7 -25
21 -17 26 -17 26 14 8 17 -10 31 -25 30 -34z m-2 -42 c-3 -8 -6 -5 -6 6 -1 11
2 17 5 13 3 -3 4 -12 1 -19z m-660 -5 c-4 -3 -7 0 -7 7 0 7 3 10 7 7 3 -4 3
-10 0 -14z m620 0 c-4 -3 -7 0 -7 7 0 7 3 10 7 7 3 -4 3 -10 0 -14z m-137 -40
c0 -29 -2 -29 -19 5 -10 18 -9 22 4 22 10 0 15 -9 15 -27z m-33 -10 c-4 -3 -7
0 -7 7 0 7 3 10 7 7 3 -4 3 -10 0 -14z m10 -30 c-4 -3 -7 0 -7 7 0 7 3 10 7 7
3 -4 3 -10 0 -14z"/>
<path d="M1040 1351 c0 -6 4 -13 10 -16 6 -3 7 1 4 9 -7 18 -14 21 -14 7z"/>
<path d="M1285 1350 c-3 -6 1 -7 9 -4 18 7 21 14 7 14 -6 0 -13 -4 -16 -10z"/>
<path d="M2013 1353 c4 -3 10 -3 14 0 3 4 0 7 -7 7 -7 0 -10 -3 -7 -7z"/>
<path d="M2075 1350 c-4 -6 5 -10 20 -10 15 0 24 4 20 10 -3 6 -12 10 -20 10
-8 0 -17 -4 -20 -10z"/>
<path d="M2682 1340 c7 -10 14 -18 15 -16 6 6 -9 36 -18 36 -5 0 -4 -9 3 -20z"/>
<path d="M416 1341 c-3 -5 -15 -7 -25 -4 -10 3 -22 0 -25 -5 -4 -6 3 -8 16 -4
15 4 19 2 13 -7 -6 -10 -3 -11 13 -2 24 13 38 31 23 31 -5 0 -12 -4 -15 -9z"/>
<path d="M1325 1340 c3 -5 8 -10 11 -10 3 0 2 5 -1 10 -3 6 -8 10 -11 10 -3 0
-2 -4 1 -10z"/>
<path d="M1853 1343 c4 -3 10 -3 14 0 3 4 0 7 -7 7 -7 0 -10 -3 -7 -7z"/>
<path d="M3420 1320 c8 -15 8 -20 -1 -20 -9 0 -9 -3 0 -14 9 -11 5 -19 -19
-37 -16 -13 -30 -28 -30 -32 0 -11 -20 -30 -44 -44 -15 -8 -8 -10 30 -9 27 0
57 -3 67 -8 14 -7 17 -3 17 28 0 22 -5 36 -12 36 -10 0 -10 2 0 9 18 11 14
111 -5 111 -11 0 -11 -5 -3 -20z m4 -129 c3 -5 -5 -8 -19 -7 -14 0 -25 4 -25
9 0 10 38 9 44 -2z"/>
<path d="M2560 1326 c0 -24 28 -34 43 -15 9 10 13 19 7 19 -5 0 -12 -5 -15
-10 -5 -8 -11 -7 -21 1 -8 6 -14 8 -14 5z"/>
<path d="M2992 1300 c0 -19 2 -27 5 -17 2 9 2 25 0 35 -3 9 -5 1 -5 -18z"/>
<path d="M3030 1316 c0 -9 5 -16 10 -16 6 0 10 4 10 9 0 6 -4 13 -10 16 -5 3
-10 -1 -10 -9z"/>
<path d="M1063 1313 c4 -3 10 -3 14 0 3 4 0 7 -7 7 -7 0 -10 -3 -7 -7z"/>
<path d="M1330 1310 c0 -7 3 -10 7 -7 3 4 3 10 0 14 -4 3 -7 0 -7 -7z"/>
<path d="M2660 1305 c0 -8 4 -15 10 -15 5 0 7 7 4 15 -4 8 -8 15 -10 15 -2 0
-4 -7 -4 -15z"/>
<path d="M3373 1290 c1 -20 8 -25 20 -14 7 8 -3 34 -13 34 -5 0 -8 -9 -7 -20z"/>
<path d="M1080 1290 c0 -5 5 -10 11 -10 5 0 7 5 4 10 -3 6 -8 10 -11 10 -2 0
-4 -4 -4 -10z"/>
<path d="M1233 1293 c4 -3 10 -3 14 0 3 4 0 7 -7 7 -7 0 -10 -3 -7 -7z"/>
<path d="M1260 1290 c0 -7 3 -10 7 -7 3 4 3 10 0 14 -4 3 -7 0 -7 -7z"/>
<path d="M1292 1284 c-10 -10 -9 -16 2 -26 9 -9 11 -21 5 -41 -5 -16 -4 -25 2
-22 5 4 9 0 9 -7 0 -10 3 -9 10 2 6 10 10 0 13 -35 2 -33 4 -19 5 38 2 69 -1
87 -12 87 -8 0 -16 4 -18 9 -1 5 -9 3 -16 -5z"/>
<path d="M851 1236 c-23 -24 -23 -24 -1 -31 12 -4 24 -4 27 -1 4 3 1 6 -5 6
-7 0 -12 5 -12 11 0 5 4 8 8 5 4 -2 8 4 8 15 0 23 2 24 -25 -5z"/>
<path d="M80 1239 c0 -5 5 -7 10 -4 6 3 10 8 10 11 0 2 -4 4 -10 4 -5 0 -10
-5 -10 -11z"/>
<path d="M495 1240 c3 -5 8 -10 11 -10 3 0 2 5 -1 10 -3 6 -8 10 -11 10 -3 0
-2 -4 1 -10z"/>
<path d="M1254 1215 c-10 -8 -14 -15 -8 -15 6 0 17 7 24 15 16 19 9 19 -16 0z"/>
<path d="M3102 1218 c-16 -16 -15 -28 2 -28 7 0 16 9 19 20 6 23 -3 26 -21 8z"/>
<path d="M2315 1210 c3 -5 8 -10 11 -10 2 0 4 5 4 10 0 6 -5 10 -11 10 -5 0
-7 -4 -4 -10z"/>
<path d="M574 1195 c11 -8 24 -15 30 -15 5 0 1 7 -10 15 -10 8 -23 14 -29 14
-5 0 -1 -6 9 -14z"/>
<path d="M443 1193 c4 -3 10 -3 14 0 3 4 0 7 -7 7 -7 0 -10 -3 -7 -7z"/>
<path d="M903 1193 c4 -3 10 -3 14 0 3 4 0 7 -7 7 -7 0 -10 -3 -7 -7z"/>
<path d="M1000 1185 c-7 -9 -14 -30 -15 -47 -2 -21 0 -26 6 -17 5 8 9 23 9 35
0 11 5 25 12 32 7 7 9 12 6 12 -3 0 -11 -7 -18 -15z"/>
<path d="M2626 1175 c-9 -14 -13 -25 -8 -25 5 0 14 11 20 25 6 14 10 25 8 25
-2 0 -11 -11 -20 -25z"/>
<path d="M394 1178 c-4 -7 -3 -8 4 -4 12 7 16 16 8 16 -3 0 -8 -5 -12 -12z"/>
<path d="M433 1173 c4 -3 10 -3 14 0 3 4 0 7 -7 7 -7 0 -10 -3 -7 -7z"/>
<path d="M1227 1169 c7 -7 15 -10 18 -7 3 3 -2 9 -12 12 -14 6 -15 5 -6 -5z"/>
<path d="M3113 1173 c4 -3 10 -3 14 0 3 4 0 7 -7 7 -7 0 -10 -3 -7 -7z"/>
<path d="M920 1160 c0 -7 3 -10 7 -7 3 4 3 10 0 14 -4 3 -7 0 -7 -7z"/>
<path d="M466 1129 c9 -18 14 -45 12 -61 -3 -16 -1 -31 4 -34 14 -9 9 66 -7
96 -9 17 -18 30 -21 30 -2 0 3 -14 12 -31z"/>
<path d="M820 1150 c0 -7 3 -10 7 -7 3 4 3 10 0 14 -4 3 -7 0 -7 -7z"/>
<path d="M1250 1140 c0 -7 3 -10 7 -7 3 4 3 10 0 14 -4 3 -7 0 -7 -7z"/>
<path d="M1290 1135 c0 -8 4 -15 10 -15 5 0 7 7 4 15 -4 8 -8 15 -10 15 -2 0
-4 -7 -4 -15z"/>
<path d="M2590 1146 c0 -3 9 -10 20 -16 11 -6 20 -8 20 -6 0 3 -9 10 -20 16
-11 6 -20 8 -20 6z"/>
<path d="M926 1125 c4 -8 8 -15 10 -15 2 0 4 7 4 15 0 8 -4 15 -10 15 -5 0 -7
-7 -4 -15z"/>
<path d="M1797 1133 c-2 -5 0 -37 3 -73 7 -65 7 -65 8 8 2 67 -1 83 -11 65z"/>
<path d="M2470 1136 c0 -3 5 -17 12 -31 13 -28 31 -35 21 -7 -7 17 -33 48 -33
38z"/>
<path d="M2536 1107 c-6 -26 0 -35 15 -20 6 6 18 9 25 6 22 -8 16 3 -10 20
-23 15 -24 15 -30 -6z"/>
<path d="M952 1105 c-7 -8 -8 -15 -3 -15 5 0 12 -8 14 -17 3 -10 5 -3 6 15 1
36 1 37 -17 17z"/>
<path d="M3320 1106 c25 -15 25 -15 0 -17 -14 -1 -31 -1 -37 0 -41 6 23 -38
72 -49 20 -4 35 -4 35 1 0 5 -6 9 -13 9 -7 0 -17 15 -22 33 -8 24 -16 33 -35
35 -25 2 -25 2 0 -12z m10 -36 c8 -5 11 -10 5 -10 -5 0 -17 5 -25 10 -8 5 -10
10 -5 10 6 0 17 -5 25 -10z"/>
<path d="M301 1094 c0 -11 3 -14 6 -6 3 7 2 16 -1 19 -3 4 -6 -2 -5 -13z"/>
<path d="M635 1100 c3 -5 8 -10 11 -10 3 0 2 5 -1 10 -3 6 -8 10 -11 10 -3 0
-2 -4 1 -10z"/>
<path d="M1400 1100 c0 -5 5 -10 10 -10 6 0 10 5 10 10 0 6 -4 10 -10 10 -5 0
-10 -4 -10 -10z"/>
<path d="M2165 1101 c-7 -13 32 -21 95 -20 62 0 101 11 82 23 -6 4 -20 3 -29
-2 -18 -9 -104 -8 -129 2 -7 3 -16 1 -19 -3z"/>
<path d="M2974 1098 c-4 -7 -3 -8 4 -4 7 4 12 9 12 12 0 8 -9 4 -16 -8z"/>
<path d="M2030 1087 c-52 -18 -34 -32 35 -28 69 3 72 5 55 26 -15 18 -42 18
-90 2z"/>
<path d="M670 1069 c0 -5 5 -7 10 -4 6 3 10 8 10 11 0 2 -4 4 -10 4 -5 0 -10
-5 -10 -11z"/>
<path d="M2330 1064 c0 -8 5 -24 10 -34 13 -24 1 -31 -54 -36 -23 -2 -54 -8
-69 -13 -20 -8 -26 -7 -24 2 1 7 13 15 27 19 23 6 23 7 -5 5 -17 -1 -36 2 -43
7 -21 13 -62 -2 -62 -23 0 -16 -12 -19 -87 -24 -53 -4 -89 -3 -91 3 -2 5 -12
20 -22 32 -23 29 -53 9 -48 -31 3 -24 6 -26 53 -25 28 1 113 3 190 4 77 2 160
7 185 12 62 13 110 17 111 10 6 -72 4 -144 -5 -148 -6 -2 -73 -8 -148 -13 -76
-6 -166 -15 -200 -21 -80 -12 -204 -27 -342 -41 -102 -10 -111 -10 -124 7 -13
18 -14 17 -9 -6 29 -124 33 -120 -145 -128 -134 -5 -151 -1 -161 39 -4 16 -3
18 9 8 8 -6 15 -8 15 -3 8 51 8 52 -27 44 -35 -8 -51 1 -38 22 4 7 3 8 -4 4
-7 -4 -12 -2 -12 3 0 6 -4 11 -10 11 -6 0 -6 -9 1 -26 5 -15 7 -29 5 -32 -9
-9 -34 18 -40 43 -4 14 -13 25 -21 25 -23 0 -26 -17 -4 -23 12 -3 19 -9 16
-14 -13 -22 13 -53 38 -47 15 4 25 2 25 -5 0 -6 17 -22 38 -35 44 -29 179 -37
292 -18 36 6 142 10 235 10 94 0 235 5 315 11 80 6 184 12 233 13 87 3 87 3
88 -82 0 -47 3 -79 6 -72 2 6 9 10 14 6 5 -3 9 2 9 11 0 9 -4 14 -9 11 -5 -3
-9 16 -9 42 -1 33 1 43 8 32 15 -24 12 4 -5 36 -8 17 -17 47 -21 68 -3 21 -7
47 -9 57 -2 11 1 19 6 19 6 0 7 5 4 10 -16 26 -25 5 -20 -50 6 -73 5 -74 -115
-77 -52 -2 -169 -8 -260 -13 -260 -15 -412 -9 -416 15 -2 10 -5 28 -8 39 -4
17 0 21 22 23 44 2 220 22 332 37 58 8 159 20 225 26 263 25 240 16 241 90 2
92 -6 140 -22 140 -8 0 -14 4 -14 10 0 5 7 6 17 3 11 -4 14 -3 9 5 -4 7 -12
12 -17 12 -6 0 -17 7 -25 15 -20 19 -34 19 -34 -1z m-430 -104 c-9 -6 -19 -5
-25 1 -6 6 -5 13 5 19 9 6 19 5 25 -1 6 -6 5 -13 -5 -19z m264 9 c-7 -11 -34
-12 -34 -1 0 14 11 21 26 15 8 -3 11 -9 8 -14z m141 11 c3 -6 -4 -10 -17 -10
-18 0 -20 2 -8 10 19 12 18 12 25 0z"/>
<path d="M2947 1053 c-11 -13 -17 -26 -14 -29 2 -3 12 7 21 22 23 33 17 39 -7
7z"/>
<path d="M3015 1070 c-12 -19 5 -227 19 -227 90 2 169 -5 153 -14 -19 -11
-141 -14 -157 -4 -13 8 -13 1 2 -49 7 -22 17 -44 23 -48 14 -11 59 -10 71 1 5
6 41 11 79 12 39 1 72 5 75 10 3 4 33 13 67 20 59 12 64 12 78 -7 14 -17 15
-11 14 72 -1 92 -1 92 -33 90 -38 -3 -58 3 -50 15 8 14 -25 10 -62 -7 -22 -10
-47 -14 -68 -11 -25 4 -36 1 -40 -9 -4 -9 2 -14 17 -15 21 -1 20 -1 -3 -8 -33
-10 -121 -3 -137 11 -7 6 -13 20 -14 32 -1 19 -2 18 -9 -4 -7 -22 -8 -20 -10
15 -1 22 -3 57 -4 78 -3 45 5 47 23 6 10 -22 19 -29 35 -27 11 1 28 -1 36 -6
8 -4 4 2 -9 13 -23 21 -23 21 0 21 21 1 22 2 6 11 -9 6 -15 13 -13 17 3 4 -3
8 -12 8 -9 1 -29 4 -43 8 -17 5 -29 3 -34 -4z m357 -172 c8 -7 18 -22 22 -33
6 -16 1 -14 -26 10 -18 17 -35 31 -37 33 -2 1 2 2 10 2 9 0 22 -6 31 -12z
m-72 -33 c0 -8 -4 -15 -10 -15 -5 0 -7 7 -4 15 4 8 8 15 10 15 2 0 4 -7 4 -15z
m48 -3 c3 -9 -2 -13 -14 -10 -9 1 -19 9 -22 16 -3 9 2 13 14 10 9 -1 19 -9 22
-16z m-241 1 c-4 -3 -10 -3 -14 0 -3 4 0 7 7 7 7 0 10 -3 7 -7z m248 -33 c4
-6 -7 -10 -25 -10 -18 0 -29 4 -25 10 3 6 15 10 25 10 10 0 22 -4 25 -10z
m-128 -7 c-4 -3 -10 -3 -14 0 -3 4 0 7 7 7 7 0 10 -3 7 -7z m40 1 c-3 -3 -12
-4 -19 -1 -8 3 -5 6 6 6 11 1 17 -2 13 -5z m150 -21 c-10 -10 -99 -15 -93 -5
3 5 27 10 52 10 26 1 44 -1 41 -5z m-297 -13 c0 -5 -4 -10 -9 -10 -5 0 -15 -2
-23 -5 -7 -3 -22 1 -33 9 -19 14 -17 15 23 16 23 0 42 -4 42 -10z m190 6 c0
-3 -5 -8 -12 -12 -7 -4 -8 -3 -4 4 7 12 16 16 16 8z"/>
<path d="M2240 1044 c0 -8 5 -12 10 -9 6 3 10 10 10 16 0 5 -4 9 -10 9 -5 0
-10 -7 -10 -16z"/>
<path d="M3158 1037 c24 -13 39 -27 35 -32 -4 -4 0 -5 10 -2 11 4 24 4 30 0 7
-5 55 -8 107 -9 75 -1 86 1 52 7 -24 5 -68 20 -99 34 -40 18 -52 20 -42 9 7
-9 22 -19 33 -23 15 -6 16 -9 4 -13 -8 -3 -45 7 -82 23 -80 34 -109 38 -48 6z"/>
<path d="M1820 1024 c0 -8 5 -12 10 -9 6 3 10 10 10 16 0 5 -4 9 -10 9 -5 0
-10 -7 -10 -16z"/>
<path d="M278 1018 c5 -5 16 -8 23 -6 8 3 3 7 -10 11 -17 4 -21 3 -13 -5z"/>
<path d="M1771 1014 c0 -11 3 -14 6 -6 3 7 2 16 -1 19 -3 4 -6 -2 -5 -13z"/>
<path d="M375 1008 c19 -12 19 -12 -5 -19 -23 -6 -23 -7 -3 -8 12 -1 25 -6 28
-11 4 -6 10 -8 15 -5 4 3 13 -2 20 -10 16 -19 -49 -22 -79 -3 -23 14 -51 4
-51 -18 0 -15 9 -16 76 -11 42 3 79 9 82 12 9 8 -73 85 -90 85 -7 0 -4 -6 7
-12z"/>
<path d="M1183 1013 c9 -2 23 -2 30 0 6 3 -1 5 -18 5 -16 0 -22 -2 -12 -5z"/>
<path d="M225 1002 c-31 -10 -59 -34 -80 -65 -18 -28 -18 -29 5 -50 18 -18 22
-19 17 -4 -4 10 -1 17 7 17 7 0 25 9 39 20 31 24 46 25 62 3 11 -14 12 -12 11
14 0 17 -5 29 -9 26 -5 -3 -8 1 -6 8 5 39 -3 44 -46 31z m-37 -69 c-10 -2 -18
-9 -18 -14 0 -5 -4 -9 -10 -9 -5 0 -10 7 -10 15 0 10 9 15 28 14 16 -1 20 -3
10 -6z"/>
<path d="M921 993 c-1 -12 4 -25 9 -28 12 -7 12 2 0 30 -8 19 -9 19 -9 -2z"/>
<path d="M760 971 c0 -11 4 -22 9 -25 4 -3 6 6 3 19 -5 30 -12 33 -12 6z"/>
<path d="M2073 983 c4 -3 10 -3 14 0 3 4 0 7 -7 7 -7 0 -10 -3 -7 -7z"/>
<path d="M3298 973 c7 -3 16 -2 19 1 4 3 -2 6 -13 5 -11 0 -14 -3 -6 -6z"/>
<path d="M1529 956 c8 -10 9 -16 1 -21 -19 -12 -1 -22 37 -20 43 3 53 28 13
33 -14 2 -29 8 -34 13 -16 15 -30 10 -17 -5z"/>
<path d="M3348 963 c7 -3 16 -2 19 1 4 3 -2 6 -13 5 -11 0 -14 -3 -6 -6z"/>
<path d="M1650 936 c0 -9 30 -14 35 -6 4 6 -3 10 -14 10 -12 0 -21 -2 -21 -4z"/>
<path d="M13 923 c4 -3 10 -3 14 0 3 4 0 7 -7 7 -7 0 -10 -3 -7 -7z"/>
<path d="M1556 902 c-12 -20 23 -82 42 -74 16 6 15 7 0 10 -10 2 -21 16 -24
30 -3 15 -7 31 -8 37 -1 5 -6 4 -10 -3z"/>
<path d="M444 878 c-19 -23 -19 -23 4 -4 21 18 27 26 19 26 -2 0 -12 -10 -23
-22z"/>
<path d="M261 881 c-8 -5 -9 -11 -3 -15 14 -8 43 4 36 15 -7 11 -15 11 -33 0z"/>
<path d="M677 876 c-4 -10 -1 -13 8 -9 8 3 12 9 9 14 -7 12 -11 11 -17 -5z"/>
<path d="M1425 881 c-3 -5 -1 -12 5 -16 5 -3 10 1 10 9 0 18 -6 21 -15 7z"/>
<path d="M2083 883 c4 -3 10 -3 14 0 3 4 0 7 -7 7 -7 0 -10 -3 -7 -7z"/>
<path d="M2451 874 c0 -11 3 -14 6 -6 3 7 2 16 -1 19 -3 4 -6 -2 -5 -13z"/>
<path d="M469 851 c-19 -14 -56 -21 -181 -30 -154 -12 -258 -29 -178 -29 19
-1 70 3 113 6 42 4 77 4 77 0 0 -5 -10 -9 -22 -9 -13 -1 -36 -3 -53 -4 -158
-17 -153 -17 -157 7 -2 12 -17 30 -35 41 -33 19 -33 19 -33 -12 0 -22 5 -31
16 -31 10 0 14 6 10 15 -3 8 -1 15 3 15 5 0 11 -7 15 -15 3 -8 1 -15 -5 -15
-6 0 -6 -7 1 -19 19 -36 12 -68 -15 -75 -14 -4 -25 -11 -25 -16 0 -12 -6 -13
60 5 30 8 90 15 133 15 43 0 97 4 120 10 68 16 599 31 615 17 10 -7 12 -24 9
-50 -4 -31 -3 -36 8 -27 10 8 15 8 21 -1 4 -8 2 -15 -6 -17 -68 -23 -155 -207
-106 -225 8 -3 16 -16 18 -29 3 -20 8 -22 47 -19 24 1 55 7 68 12 14 5 34 9
46 8 34 -1 -2 -14 -82 -31 -64 -13 -64 -13 -20 -21 24 -4 58 -9 74 -11 17 -2
48 -8 69 -12 39 -7 39 -7 32 22 -4 16 -16 37 -27 46 -11 10 -15 19 -9 23 6 4
2 22 -12 48 -11 23 -38 89 -58 147 -20 58 -42 116 -49 129 -18 32 -3 40 74 42
33 0 67 2 75 5 43 12 166 31 173 27 4 -2 7 1 7 7 0 7 -12 9 -32 6 -18 -3 -80
-13 -138 -21 -58 -9 -132 -21 -165 -26 -33 -6 -136 -13 -228 -16 -169 -6 -169
-6 -162 50 6 49 5 56 -13 66 -29 15 -46 14 -73 -8z m59 -23 c31 -31 3 -99 -41
-97 -12 0 -16 3 -10 6 10 4 10 10 -2 26 -33 48 13 105 53 65z m-93 -17 c-13
-11 -125 -20 -125 -10 0 8 38 15 100 17 20 1 30 -2 25 -7z m-40 -32 c-22 -5
-69 -12 -105 -15 -36 -2 -94 -9 -129 -15 -38 -6 -68 -6 -73 -1 -5 5 23 12 69
17 43 4 110 10 148 15 103 11 141 10 90 -1z m37 -26 c4 -16 -4 -18 -55 -20
-88 -3 -64 16 44 36 4 0 9 -7 11 -16z m-194 -20 c-15 -2 -42 -2 -60 0 -18 2
-6 4 27 4 33 0 48 -2 33 -4z m-128 -18 c-46 -17 -50 -18 -44 -2 2 7 21 13 42
14 37 1 37 1 2 -12z m785 -210 c-24 -78 -24 -78 52 -71 80 6 96 12 74 25 -8 5
-9 11 -4 14 8 5 33 -32 33 -48 0 -3 -15 -9 -32 -14 -30 -8 -31 -9 -8 -11 15
-1 1 -8 -35 -16 -74 -16 -95 -17 -95 -3 0 5 5 7 12 3 6 -4 8 -3 4 4 -3 5 -3
12 1 15 5 2 2 2 -5 0 -17 -4 -42 21 -42 42 0 19 60 149 66 143 2 -3 -7 -39
-21 -83z m79 54 c10 9 16 9 21 1 10 -15 2 -21 -31 -23 -24 -2 -29 2 -32 23 -2
24 -2 24 12 6 12 -15 18 -17 30 -7z m-57 -61 c-3 -8 -6 -5 -6 6 -1 11 2 17 5
13 3 -3 4 -12 1 -19z m98 12 c3 -5 4 -10 1 -10 -3 0 -8 5 -11 10 -3 6 -4 10
-1 10 3 0 8 -4 11 -10z m-85 -60 c-20 -13 -33 -13 -25 0 3 6 14 10 23 10 15 0
15 -2 2 -10z m67 4 c-3 -3 -12 -4 -19 -1 -8 3 -5 6 6 6 11 1 17 -2 13 -5z m83
-103 c0 -12 -37 -21 -85 -20 -40 1 -40 1 4 10 24 5 46 11 49 14 9 8 32 6 32
-4z m10 -31 c0 -5 -2 -10 -4 -10 -3 0 -8 5 -11 10 -3 6 -1 10 4 10 6 0 11 -4
11 -10z"/>
<path d="M1888 863 c7 -3 16 -2 19 1 4 3 -2 6 -13 5 -11 0 -14 -3 -6 -6z"/>
<path d="M1764 848 c-4 -7 -3 -8 4 -4 12 7 16 16 8 16 -3 0 -8 -5 -12 -12z"/>
<path d="M1795 850 c3 -5 12 -7 20 -3 21 7 19 13 -6 13 -11 0 -18 -4 -14 -10z"/>
<path d="M53 843 c4 -3 10 -3 14 0 3 4 0 7 -7 7 -7 0 -10 -3 -7 -7z"/>
<path d="M240 840 c0 -7 3 -10 7 -7 3 4 3 10 0 14 -4 3 -7 0 -7 -7z"/>
<path d="M620 840 c-8 -5 -10 -10 -5 -10 6 -1 -3 -7 -20 -15 -20 -9 -24 -14
-12 -14 23 -1 77 26 77 39 0 13 -21 13 -40 0z"/>
<path d="M1430 840 c0 -7 3 -10 7 -7 3 4 3 10 0 14 -4 3 -7 0 -7 -7z"/>
<path d="M1693 843 c9 -2 23 -2 30 0 6 3 -1 5 -18 5 -16 0 -22 -2 -12 -5z"/>
<path d="M188 833 c7 -3 16 -2 19 1 4 3 -2 6 -13 5 -11 0 -14 -3 -6 -6z"/>
<path d="M128 823 c7 -3 16 -2 19 1 4 3 -2 6 -13 5 -11 0 -14 -3 -6 -6z"/>
<path d="M2456 803 c1 -16 3 -45 3 -65 1 -30 5 -37 24 -41 22 -4 22 -4 0 -12
-31 -10 -29 -25 2 -25 16 0 25 6 25 15 0 8 1 15 3 16 1 0 65 5 142 10 259 18
259 18 239 40 -10 11 -12 19 -6 19 7 0 12 5 12 10 0 6 -6 10 -14 10 -15 0 -16
-16 -3 -37 6 -9 0 -13 -20 -13 -29 -1 -260 -18 -323 -25 -57 -6 -70 8 -70 70
0 30 -4 55 -8 55 -4 0 -7 -12 -6 -27z"/>
<path d="M2920 756 c0 -20 4 -35 9 -32 4 3 7 17 5 32 -4 41 -14 41 -14 0z"/>
<path d="M1440 740 c0 -7 3 -10 7 -7 3 4 3 10 0 14 -4 3 -7 0 -7 -7z"/>
<path d="M866 716 c42 -18 45 -25 29 -63 -32 -76 -154 -102 -347 -72 -72 11
-138 18 -147 17 -9 -2 52 -13 134 -25 231 -33 324 -13 371 80 30 57 23 72 -33
75 -38 2 -38 2 -7 -12z"/>
<path d="M990 721 c0 -5 5 -13 10 -16 6 -3 10 -2 10 4 0 5 -4 13 -10 16 -5 3
-10 2 -10 -4z"/>
<path d="M3040 690 c-8 -5 -10 -10 -5 -10 6 0 17 5 25 10 8 5 11 10 5 10 -5 0
-17 -5 -25 -10z"/>
<path d="M1442 665 c0 -16 2 -22 5 -12 2 9 2 23 0 30 -3 6 -5 -1 -5 -18z"/>
<path d="M1753 683 c4 -3 10 -3 14 0 3 4 0 7 -7 7 -7 0 -10 -3 -7 -7z"/>
<path d="M1785 680 c-3 -5 -1 -10 4 -10 6 0 11 5 11 10 0 6 -2 10 -4 10 -3 0
-8 -4 -11 -10z"/>
<path d="M996 672 c-3 -6 -1 -14 5 -17 15 -10 25 3 12 16 -7 7 -13 7 -17 1z"/>
<path d="M2980 670 c-21 -7 -21 -8 -5 -9 11 0 27 4 35 9 18 11 5 11 -30 0z"/>
<path d="M0 653 c0 -8 226 -43 325 -49 75 -5 44 3 -95 25 -173 28 -230 34
-230 24z"/>
<path d="M2863 653 c9 -2 23 -2 30 0 6 3 -1 5 -18 5 -16 0 -22 -2 -12 -5z"/>
<path d="M1085 643 c-22 -3 -44 -9 -50 -15 -7 -7 2 -8 30 -3 22 4 63 11 90 15
46 7 47 7 10 7 -22 0 -58 -2 -80 -4z"/>
<path d="M4 612 c3 -5 27 -12 53 -15 26 -3 86 -11 133 -17 47 -5 96 -12 110
-15 21 -4 22 -4 7 5 -20 13 -106 29 -187 35 -30 3 -70 7 -88 10 -20 4 -32 2
-28 -3z"/>
<path d="M1181 613 c25 -4 49 -37 49 -67 0 -8 9 -16 19 -19 17 -4 16 2 -11 44
-24 40 -35 49 -56 48 -27 -2 -27 -2 -1 -6z"/>
<path d="M353 563 c4 -3 10 -3 14 0 3 4 0 7 -7 7 -7 0 -10 -3 -7 -7z"/>
<path d="M418 553 c6 -2 18 -2 25 0 6 3 1 5 -13 5 -14 0 -19 -2 -12 -5z"/>
<path d="M468 543 c6 -2 18 -2 25 0 6 3 1 5 -13 5 -14 0 -19 -2 -12 -5z"/>
<path d="M1200 540 c12 -10 11 -11 -7 -7 -13 3 -26 1 -29 -4 -3 -5 9 -9 26 -9
32 0 38 20 9 28 -11 3 -11 1 1 -8z"/>
<path d="M2 510 c0 -19 2 -27 5 -17 2 9 2 25 0 35 -3 9 -5 1 -5 -18z"/>
<path d="M523 533 c4 -3 10 -3 14 0 3 4 0 7 -7 7 -7 0 -10 -3 -7 -7z"/>
<path d="M603 533 c4 -3 10 -3 14 0 3 4 0 7 -7 7 -7 0 -10 -3 -7 -7z"/>
<path d="M553 523 c4 -3 10 -3 14 0 3 4 0 7 -7 7 -7 0 -10 -3 -7 -7z"/>
<path d="M500 510 c-18 -12 -2 -12 25 0 13 6 15 9 5 9 -8 0 -22 -4 -30 -9z"/>
<path d="M683 503 c4 -3 10 -3 14 0 3 4 0 7 -7 7 -7 0 -10 -3 -7 -7z"/>
<path d="M1285 500 c3 -5 8 -10 11 -10 3 0 2 5 -1 10 -3 6 -8 10 -11 10 -3 0
-2 -4 1 -10z"/>
<path d="M463 493 c4 -3 10 -3 14 0 3 4 0 7 -7 7 -7 0 -10 -3 -7 -7z"/>
<path d="M433 483 c4 -3 10 -3 14 0 3 4 0 7 -7 7 -7 0 -10 -3 -7 -7z"/>
<path d="M370 460 c-19 -11 -30 -19 -25 -19 6 0 26 8 45 19 19 11 31 19 25 19
-5 0 -26 -8 -45 -19z"/>
<path d="M2424 468 c-4 -7 -3 -8 4 -4 12 7 16 16 8 16 -3 0 -8 -5 -12 -12z"/>
<path d="M1 454 c0 -11 3 -14 6 -6 3 7 2 16 -1 19 -3 4 -6 -2 -5 -13z"/>
<path d="M1300 454 c0 -6 7 -19 15 -30 8 -10 14 -14 14 -9 0 6 -6 19 -14 29
-8 11 -15 15 -15 10z"/>
<path d="M790 428 c-12 -22 -12 -22 6 -6 10 10 15 20 12 24 -4 3 -12 -5 -18
-18z"/>
<path d="M2430 390 c0 -35 3 -60 7 -57 7 8 5 108 -3 116 -2 2 -4 -24 -4 -59z"/>
<path d="M269 403 c-65 -59 -102 -118 -94 -153 11 -50 81 -120 118 -119 28 2
29 2 6 6 -32 5 -83 56 -103 104 -15 36 -15 36 28 96 24 33 59 69 77 81 19 12
28 22 22 22 -7 0 -31 -17 -54 -37z"/>
<path d="M1 414 c0 -11 3 -14 6 -6 3 7 2 16 -1 19 -3 4 -6 -2 -5 -13z"/>
<path d="M478 403 c7 -3 16 -2 19 1 4 3 -2 6 -13 5 -11 0 -14 -3 -6 -6z"/>
<path d="M804 385 c11 -8 26 -15 33 -15 22 0 14 8 -19 19 -30 10 -31 9 -14 -4z"/>
<path d="M0 380 c0 -7 3 -10 7 -7 3 4 3 10 0 14 -4 3 -7 0 -7 -7z"/>
<path d="M416 371 c-27 -30 -18 -89 19 -128 37 -38 163 -106 187 -100 10 3 16
0 15 -5 -1 -6 13 -17 31 -25 19 -7 31 -9 27 -3 -3 5 0 10 7 10 8 0 6 5 -5 11
-10 6 -25 8 -33 5 -8 -3 -12 -2 -9 4 6 9 -34 36 -47 32 -5 -1 -8 3 -8 8 0 6
-6 10 -14 10 -8 0 -16 4 -18 8 -1 4 -21 21 -42 37 -35 27 -38 28 -27 7 6 -12
17 -22 24 -22 7 -1 28 -14 47 -30 42 -36 30 -39 -25 -5 -22 13 -50 29 -62 34
-26 12 -32 26 -7 17 13 -5 14 -4 6 7 -7 8 -11 16 -9 18 1 2 -3 -1 -9 -8 -13
-15 -36 5 -40 34 -2 12 2 11 19 -4 21 -18 21 -18 0 12 -29 44 -32 58 -15 78
21 23 9 22 -12 -2z m201 -218 c-4 -3 -10 -3 -14 0 -3 4 0 7 7 7 7 0 10 -3 7
-7z"/>
<path d="M1250 339 c-36 -9 -75 -17 -87 -18 -12 -1 -25 -6 -29 -12 -5 -9 1
-10 22 -4 16 4 63 15 104 24 41 10 70 19 65 22 -6 3 -39 -3 -75 -12z"/>
<path d="M2 325 c0 -16 2 -22 5 -12 2 9 2 23 0 30 -3 6 -5 -1 -5 -18z"/>
<path d="M375 290 c3 -5 8 -10 11 -10 2 0 4 5 4 10 0 6 -5 10 -11 10 -5 0 -7
-4 -4 -10z"/>
<path d="M2440 260 c0 -7 3 -10 7 -7 3 4 3 10 0 14 -4 3 -7 0 -7 -7z"/>
<path d="M585 250 c3 -5 8 -10 11 -10 3 0 2 5 -1 10 -3 6 -8 10 -11 10 -3 0
-2 -4 1 -10z"/>
<path d="M615 233 c6 -5 35 -27 65 -47 44 -31 48 -32 20 -8 -32 28 -107 77
-85 55z"/>
<path d="M1810 216 c-98 -22 -250 -87 -250 -107 0 -21 230 -19 256 2 15 12 56
9 194 -16 47 -8 94 -14 105 -14 11 1 -36 12 -105 25 -69 13 -135 28 -147 33
-13 6 -23 7 -23 2 0 -5 -14 -14 -31 -20 -38 -13 -42 -13 -35 -3 3 5 -31 3 -76
-5 -131 -23 -144 3 -23 47 133 48 130 48 186 -2 10 -10 23 -18 29 -18 17 0 60
23 60 32 0 5 -9 4 -19 -2 -36 -19 -46 -10 -16 14 17 13 28 26 25 29 -13 13
-80 14 -130 3z m100 -14 c0 -4 -18 -6 -40 -4 -22 2 -40 6 -40 8 0 2 18 4 40 4
22 0 40 -3 40 -8z"/>
<path d="M2 215 c11 -11 138 -34 138 -25 0 4 -17 10 -37 13 -21 4 -54 9 -73
13 -19 4 -32 3 -28 -1z"/>
<path d="M1793 183 c4 -3 10 -3 14 0 3 4 0 7 -7 7 -7 0 -10 -3 -7 -7z"/>
<path d="M2443 120 c0 -41 2 -58 4 -37 2 20 2 54 0 75 -2 20 -4 3 -4 -38z"/>
<path d="M1725 165 c-16 -8 -23 -14 -14 -15 8 0 24 7 35 15 23 18 18 18 -21 0z"/>
<path d="M2315 170 c3 -5 8 -10 11 -10 3 0 2 5 -1 10 -3 6 -8 10 -11 10 -3 0
-2 -4 1 -10z"/>
<path d="M63 163 c-35 -2 -63 -9 -63 -14 0 -12 120 -2 155 12 22 9 29 9 -92 2z"/>
<path d="M2340 156 c0 -2 7 -7 16 -10 8 -3 12 -2 9 4 -6 10 -25 14 -25 6z"/>
<path d="M755 140 c3 -5 8 -10 11 -10 3 0 2 5 -1 10 -3 6 -8 10 -11 10 -3 0
-2 -4 1 -10z"/>
<path d="M343 123 c9 -2 23 -2 30 0 6 3 -1 5 -18 5 -16 0 -22 -2 -12 -5z"/>
<path d="M785 120 c3 -5 8 -10 11 -10 3 0 2 5 -1 10 -3 6 -8 10 -11 10 -3 0
-2 -4 1 -10z"/>
<path d="M390 116 c0 -2 7 -7 16 -10 8 -3 12 -2 9 4 -6 10 -25 14 -25 6z"/>
<path d="M810 106 c0 -3 9 -10 20 -16 11 -6 20 -8 20 -6 0 3 -9 10 -20 16 -11
6 -20 8 -20 6z"/>
<path d="M730 94 c0 -11 112 -54 138 -53 18 0 10 5 -27 15 -30 8 -59 18 -65
23 -15 11 -46 21 -46 15z"/>
<path d="M865 70 c3 -5 11 -10 16 -10 6 0 7 5 4 10 -3 6 -11 10 -16 10 -6 0
-7 -4 -4 -10z"/>
<path d="M2195 69 c33 -6 103 -19 155 -29 59 -12 100 -15 110 -10 11 7 4 9
-22 10 -20 0 -67 6 -105 14 -37 8 -97 17 -133 20 -65 5 -65 5 -5 -5z"/>
<path d="M904 48 c-4 -7 -3 -8 4 -4 7 4 12 9 12 12 0 8 -9 4 -16 -8z"/>
<path d="M1610 9 c-19 -5 -14 -7 23 -8 26 -1 47 1 47 3 0 8 -46 12 -70 5z"/>
<path d="M128 3 c7 -3 16 -2 19 1 4 3 -2 6 -13 5 -11 0 -14 -3 -6 -6z"/>
<path d="M753 3 c4 -3 10 -3 14 0 3 4 0 7 -7 7 -7 0 -10 -3 -7 -7z"/>
</g>
</svg>
