<?xml version="1.0" standalone="no"?>
<!DOCTYPE svg PUBLIC "-//W3C//DTD SVG 20010904//EN"
 "http://www.w3.org/TR/2001/REC-SVG-20010904/DTD/svg10.dtd">
<svg version="1.0" xmlns="http://www.w3.org/2000/svg"
 width="256.000000pt" height="388.000000pt" viewBox="0 0 256.000000 388.000000"
 preserveAspectRatio="xMidYMid meet">
<metadata>
Created by potrace 1.16, written by Peter Selinger 2001-2019
</metadata>
<g transform="translate(0.000000,388.000000) scale(0.100000,-0.100000)"
fill="#000000" stroke="none">
<path d="M844 3872 c-25 -16 -34 -56 -34 -143 0 -118 12 -109 16 12 2 69 7 96
20 110 18 20 16 33 -2 21z"/>
<path d="M990 3876 c0 -2 6 -19 14 -37 25 -62 29 -82 15 -74 -9 6 -10 3 -5
-11 5 -10 11 -27 13 -36 3 -10 10 -18 15 -18 5 0 6 5 3 11 -4 6 -7 27 -7 47 0
35 -30 122 -42 122 -3 0 -6 -2 -6 -4z"/>
<path d="M1540 3876 c0 -7 8 -24 40 -85 23 -45 23 -45 -3 -67 -14 -12 -30 -23
-35 -25 -13 -6 -83 -130 -80 -141 2 -5 19 18 38 52 32 57 105 130 129 130 6 0
27 -15 47 -32 27 -24 34 -27 26 -12 -6 11 -23 29 -38 40 -63 45 -83 66 -89 94
-5 25 -35 64 -35 46z"/>
<path d="M1690 3870 c0 -7 3 -10 7 -7 3 4 3 10 0 14 -4 3 -7 0 -7 -7z"/>
<path d="M1773 3800 c0 -47 2 -66 4 -42 2 23 2 61 0 85 -2 23 -4 4 -4 -43z"/>
<path d="M1852 3850 c0 -19 2 -27 5 -17 2 9 2 25 0 35 -3 9 -5 1 -5 -18z"/>
<path d="M1951 3833 c75 -65 179 -172 179 -184 0 -6 -29 -9 -70 -7 -39 2 -70
0 -70 -4 0 -5 11 -8 25 -8 22 0 25 -4 25 -34 0 -19 3 -41 6 -49 6 -17 -21 -47
-42 -47 -12 0 -14 10 -10 48 4 33 3 41 -3 27 -5 -11 -10 -30 -10 -42 -1 -31
-75 -107 -96 -99 -9 3 -24 6 -32 6 -13 0 -13 3 -3 15 7 8 9 15 6 15 -11 0 -50
-22 -57 -32 -3 -5 -9 18 -12 52 -9 77 9 104 44 69 12 -12 19 -29 16 -40 -3
-10 -1 -19 4 -19 10 0 12 60 3 83 -3 8 -14 12 -28 10 -15 -3 -29 2 -37 14 -19
25 -79 66 -79 53 0 -5 19 -23 42 -40 22 -16 35 -30 27 -30 -11 0 -14 -21 -16
-96 -2 -97 -15 -134 -48 -134 -7 0 -18 -7 -25 -15 -10 -12 -15 -13 -21 -4 -4
8 -16 -6 -33 -38 -25 -50 -25 -51 -6 -68 18 -16 18 -19 3 -41 -9 -14 -11 -24
-5 -24 6 0 14 5 17 10 3 6 37 30 75 55 68 44 91 65 71 65 -5 0 -13 -4 -16 -10
-3 -5 -15 -15 -27 -21 -18 -10 -19 -8 -13 11 5 15 3 20 -3 16 -24 -15 -21 17
5 50 59 75 84 94 103 84 39 -21 99 -4 119 34 11 20 37 28 91 26 14 0 58 -1 98
-2 65 -1 72 -3 73 -22 0 -15 2 -16 6 -6 12 31 25 41 39 29 18 -15 17 1 0 24
-12 15 -14 16 -20 2 -3 -8 -17 -15 -31 -15 -24 0 -25 3 -25 58 0 51 -4 62 -27
84 -16 14 -48 48 -74 74 -73 79 -167 164 -179 164 -7 0 12 -21 41 -47z m219
-222 c12 -23 14 -111 3 -111 -42 1 -53 13 -47 51 4 23 2 44 -5 52 -6 8 -8 17
-4 20 13 14 43 7 53 -12z m-60 -16 c11 -13 10 -23 0 -56 -14 -42 -41 -51 -48
-15 -3 12 0 16 8 11 10 -6 11 1 6 27 -9 47 9 64 34 33z m-46 -31 c3 -8 2 -12
-4 -9 -6 3 -10 10 -10 16 0 14 7 11 14 -7z m-287 -96 c-3 -7 -5 -2 -5 12 0 14
2 19 5 13 2 -7 2 -19 0 -25z m-75 -173 c23 -39 22 -42 -7 -61 -44 -29 -70 13
-44 70 15 32 29 29 51 -9z"/>
<path d="M2080 3587 c0 -10 8 -17 18 -17 9 0 13 4 7 8 -5 4 -13 11 -17 16 -5
5 -8 2 -8 -7z"/>
<path d="M2090 3550 c0 -7 3 -10 7 -7 3 4 3 10 0 14 -4 3 -7 0 -7 -7z"/>
<path d="M1982 3765 c0 -11 4 -33 8 -50 8 -30 8 -30 8 0 0 17 -3 39 -8 50 -9
20 -9 20 -8 0z"/>
<path d="M1488 3713 c-23 -21 -52 -48 -64 -60 -14 -14 -35 -23 -54 -23 -17 0
-29 -4 -26 -9 3 -5 15 -7 27 -4 19 5 20 4 7 -17 -10 -18 -10 -24 0 -27 14 -6
16 -33 2 -33 -5 0 -10 -4 -10 -10 0 -19 18 -10 36 18 10 15 17 36 16 46 -2 29
16 55 72 108 60 56 55 65 -6 11z"/>
<path d="M1772 3680 c0 -19 2 -27 5 -17 2 9 2 25 0 35 -3 9 -5 1 -5 -18z"/>
<path d="M1033 3683 c4 -3 10 -3 14 0 3 4 0 7 -7 7 -7 0 -10 -3 -7 -7z"/>
<path d="M792 3623 c-10 -4 -9 -8 3 -17 24 -17 11 -37 -53 -79 -31 -20 -64
-42 -73 -49 -22 -15 -49 -3 -49 22 0 12 -4 18 -10 15 -5 -3 -10 -17 -10 -31 0
-17 -5 -24 -19 -24 -11 0 -23 -4 -26 -10 -3 -5 1 -10 10 -10 9 0 14 -4 11 -9
-3 -5 5 -12 19 -15 40 -10 33 -40 -7 -31 -199 45 -351 24 -304 -41 7 -9 24
-19 37 -21 66 -9 136 -70 110 -96 -17 -17 -13 -31 5 -16 13 10 17 10 26 -2 7
-11 9 -9 5 9 -4 18 -1 22 21 22 22 0 24 -2 12 -11 -18 -12 17 -4 67 16 45 19
66 -4 36 -38 -31 -35 -34 -55 -21 -139 9 -59 17 -84 33 -96 42 -34 38 -40 -27
-35 -73 5 -75 5 -83 43 -4 17 -10 30 -15 30 -5 0 -15 2 -23 6 -14 5 -15 -15
-5 -108 2 -15 12 -18 60 -18 59 0 77 -10 54 -29 -9 -8 -22 -8 -39 -2 -37 14
-64 9 -139 -26 -90 -43 -100 -72 -29 -88 39 -8 80 -50 107 -109 12 -28 32 -64
43 -81 28 -40 26 -59 -6 -81 -49 -32 -54 -30 -98 35 -16 24 -45 51 -65 60 -63
29 -67 51 -7 51 38 0 136 27 112 31 -5 1 -14 2 -20 3 -5 0 -23 10 -38 20 -16
10 -50 21 -77 24 -56 5 -83 -16 -94 -72 -5 -23 -9 -26 -20 -17 -28 24 -91 -26
-72 -57 3 -5 -8 -35 -24 -66 -46 -89 -43 -164 8 -202 61 -47 93 -114 75 -162
-5 -13 -5 -64 -1 -115 17 -188 39 -368 49 -390 9 -20 9 -20 6 5 -3 16 0 28 4
28 5 0 9 -13 9 -28 0 -27 -35 -72 -56 -72 -5 0 -22 -16 -38 -36 -36 -45 -41
-37 -50 71 -12 134 -47 420 -53 425 -3 3 -2 -31 2 -75 5 -44 9 -103 10 -131 1
-28 4 -55 8 -60 6 -11 26 -185 29 -251 2 -49 1 -49 25 -25 70 67 103 86 55 30
-8 -10 -18 -35 -22 -57 -7 -40 -6 -41 69 -120 73 -75 78 -79 131 -86 30 -3 69
-9 85 -11 17 -3 70 -28 118 -55 49 -28 90 -49 92 -47 3 2 -37 29 -87 59 -69
41 -86 55 -70 57 13 2 48 -13 83 -35 133 -84 186 -114 234 -132 91 -34 355
-61 387 -39 10 7 10 9 -2 7 -33 -3 -38 3 -50 54 -7 28 -25 82 -41 119 -28 65
-37 113 -21 120 6 2 109 127 143 173 4 6 4 17 -1 25 -6 10 -12 4 -24 -23 -8
-20 -18 -37 -21 -37 -3 0 -3 5 0 10 3 6 4 10 2 10 -8 0 -59 -70 -61 -83 -1 -7
-4 -12 -7 -12 -12 0 -39 -28 -34 -35 3 -4 -1 -10 -9 -13 -39 -15 -22 26 56
139 41 61 54 73 81 75 86 10 121 -9 216 -116 49 -56 44 -41 -9 27 -19 25 -48
55 -65 67 -26 18 -27 21 -9 21 45 0 143 -87 191 -170 43 -74 85 -132 91 -126
3 3 -3 15 -12 25 -10 11 -19 31 -20 45 -4 33 -34 78 -47 70 -6 -3 -9 1 -7 9 2
9 -6 23 -17 32 -11 9 -13 13 -5 9 8 -4 4 5 -9 19 -13 15 -28 24 -33 20 -16 -9
9 30 39 62 15 17 78 68 138 114 149 114 164 128 160 157 -1 13 1 21 5 19 4 -3
24 2 44 10 19 8 61 15 93 16 32 0 78 4 103 9 34 7 18 8 -65 6 -60 -2 -118 -7
-127 -11 -14 -6 -16 -1 -13 29 2 25 -1 36 -11 36 -8 0 -11 -6 -8 -15 10 -24
-5 -65 -22 -65 -21 0 -52 40 -87 114 -16 34 -36 69 -44 79 -15 16 -15 28 2
140 30 200 26 302 -19 407 -7 16 86 70 119 70 23 0 18 37 -16 125 -66 172 -66
172 31 121 84 -43 87 -43 102 -11 9 20 8 28 -6 44 -17 18 -80 36 -70 19 3 -4
13 -8 23 -8 24 0 41 -20 41 -47 0 -23 -23 -32 -35 -13 -4 6 -22 17 -41 25 -19
8 -37 21 -40 29 -4 11 -13 12 -36 5 -17 -4 -35 -6 -40 -3 -5 3 -15 1 -22 -5
-7 -6 -20 -9 -28 -6 -8 3 -27 1 -43 -5 -22 -8 -33 -7 -53 6 -26 17 -26 17 -4
35 24 19 56 16 84 -9 16 -13 23 -12 70 6 86 34 123 35 228 9 94 -24 95 -24
132 -6 58 30 82 26 74 -11 -5 -27 -1 -33 27 -50 17 -10 42 -29 55 -42 12 -12
22 -18 22 -12 0 14 -38 54 -52 54 -6 0 -19 7 -29 16 -18 16 -12 47 23 109 7
15 2 12 -19 -7 -16 -16 -34 -28 -41 -28 -25 0 -10 26 44 77 31 29 52 53 48 53
-21 0 -88 -58 -110 -96 -37 -62 -64 -70 -162 -45 -99 26 -137 26 -229 2 -40
-11 -73 -15 -73 -11 0 5 -21 12 -47 16 -70 10 -93 20 -71 29 10 4 15 11 13 16
-3 4 8 22 24 40 29 30 54 129 36 147 -3 4 -35 5 -71 3 -71 -3 -78 1 -35 23 22
12 37 13 66 5 20 -6 39 -8 42 -5 6 5 -63 26 -88 26 -9 0 -22 -7 -29 -15 -7 -9
-32 -28 -54 -44 -62 -41 -97 -20 -168 102 -16 27 -16 31 -1 54 15 23 15 26 0
34 -9 5 -23 16 -31 24 -15 15 -50 10 -40 -6 3 -5 10 -6 16 -3 6 4 8 2 5 -3
-11 -17 -45 -22 -51 -7 -9 25 5 45 26 38 14 -4 18 -2 14 5 -4 6 -25 11 -47 11
-40 0 -40 0 -21 -27 10 -16 17 -34 15 -40 -6 -17 25 -16 56 1 26 14 51 11 51
-6 0 -6 -23 -33 -51 -60 -28 -28 -49 -44 -47 -37 7 19 -11 81 -28 100 -8 9
-20 48 -25 85 -6 38 -20 84 -31 102 -27 45 -33 40 -8 -8 11 -21 20 -53 20 -69
0 -30 0 -30 -49 1 -49 30 -50 31 -34 54 9 14 13 27 10 30 -3 3 -13 -9 -23 -27
-16 -32 -16 -34 1 -44 60 -35 82 -56 111 -105 21 -34 33 -69 34 -91 0 -22 7
-42 18 -52 25 -23 30 -21 34 9 2 15 12 33 24 40 19 13 23 10 66 -50 36 -49 61
-72 107 -96 76 -41 76 -43 35 -126 -20 -38 -33 -77 -30 -86 5 -22 -8 -23 -63
-3 -58 20 -95 0 -147 -80 -16 -25 -19 -26 -25 -9 -11 27 -10 34 2 34 19 0 69
58 69 80 0 29 23 114 33 121 5 3 5 23 2 43 -6 32 -11 36 -34 34 -34 -2 -82 31
-75 53 2 9 -3 22 -12 30 -15 12 -16 11 -10 -11 6 -21 0 -18 -36 20 -36 38 -80
76 -156 133 -9 7 -11 6 -6 -7 3 -9 10 -16 15 -16 5 0 14 -21 20 -46 8 -30 16
-43 25 -40 7 3 15 -3 17 -12 4 -14 5 -14 6 3 2 38 77 -55 89 -111 11 -49 6
-130 -8 -149 -9 -12 -40 -125 -34 -125 2 0 10 15 18 33 14 30 14 31 15 7 1
-28 -11 -49 -58 -99 -24 -26 -31 -42 -31 -75 0 -25 -12 -66 -29 -103 -17 -35
-26 -65 -20 -68 5 -4 9 -2 9 4 0 6 12 36 26 68 15 31 27 76 28 100 3 82 57 97
83 22 13 -38 17 -138 5 -154 -4 -6 -25 -12 -47 -14 -48 -4 -55 -7 -55 -28 0
-23 -30 -42 -67 -43 -27 0 -39 8 -69 48 -86 114 -145 200 -160 232 -9 19 -25
53 -37 76 -28 57 -21 272 10 307 10 12 28 41 38 65 24 55 31 60 93 63 29 2 52
6 52 11 0 4 5 8 11 8 7 0 5 -10 -5 -25 -20 -31 -8 -32 28 -4 26 21 28 21 41 3
8 -11 15 -14 15 -8 0 23 -29 38 -45 24 -13 -11 -14 -10 -10 3 8 20 -34 35 -45
16 -5 -7 -30 -14 -57 -15 -36 -2 -53 -9 -68 -27 -12 -13 -27 -22 -35 -20 -10
2 -10 1 -2 -3 19 -9 14 -31 -9 -48 -12 -8 -24 -29 -28 -48 -9 -45 -27 -42 -23
4 3 33 1 37 -14 31 -14 -5 -16 -2 -10 18 3 13 11 46 16 72 12 58 18 70 32 61
7 -5 8 -2 2 7 -16 25 -12 37 12 43 13 4 24 10 24 15 0 5 24 23 54 40 65 38 81
55 71 78 -5 10 -7 21 -7 26 2 8 -6 8 -26 0z m368 -163 c0 -5 -2 -10 -4 -10 -3
0 -8 5 -11 10 -3 6 -1 10 4 10 6 0 11 -4 11 -10z m-523 -8 c19 -12 -2 -36 -23
-27 -18 8 -18 8 0 13 15 3 16 6 5 13 -8 5 -9 9 -4 9 6 0 15 -4 22 -8z m-148
-63 c128 -20 141 -35 96 -102 -28 -40 -43 -45 -118 -33 -27 4 -40 29 -19 38
15 6 14 7 -3 7 -25 1 -133 45 -148 60 -7 7 -1 15 24 25 41 18 81 19 168 5z
m536 -49 c3 -5 4 -10 1 -10 -3 0 -8 5 -11 10 -3 6 -4 10 -1 10 3 0 8 -4 11
-10z m-339 -98 c-18 -16 -18 -16 -6 6 6 13 14 21 18 18 3 -4 -2 -14 -12 -24z
m902 -49 c0 -25 -10 -54 -30 -86 -28 -44 -34 -48 -60 -43 -21 4 -28 2 -25 -7
2 -6 12 -11 21 -11 19 2 19 -1 6 -26 -26 -49 -57 -72 -79 -58 -24 14 -22 26
16 101 13 26 28 45 33 42 11 -7 5 26 -9 54 -6 11 -19 25 -29 31 -32 19 13 40
89 40 67 0 67 0 67 -37z m-418 -52 c1 -14 7 -37 15 -51 22 -38 19 -103 -6
-134 -19 -25 -40 -35 -38 -18 5 30 -2 44 -16 32 -12 -10 -15 -9 -15 6 0 43 25
184 32 184 5 0 4 9 -2 19 -16 31 -11 38 10 12 11 -13 20 -35 20 -50z m-520
-63 c0 -80 -2 -89 -17 -86 -35 7 -57 169 -26 187 33 18 43 -6 43 -101z m564
102 c18 -6 26 -17 26 -34 0 -35 -11 -86 -19 -86 -13 0 -41 70 -41 100 0 34 -1
34 34 20z m320 -176 c13 -5 12 -9 -4 -27 -21 -22 -29 -50 -9 -30 9 9 22 4 51
-20 38 -31 38 -31 84 -9 24 12 46 22 48 22 5 0 96 -227 96 -239 0 -11 -126
-69 -168 -77 -24 -5 -32 -3 -32 7 0 8 -10 25 -21 39 -17 21 -20 21 -14 5 13
-40 28 -175 17 -158 -4 6 -8 -11 -9 -38 -1 -26 2 -51 8 -55 18 -11 48 27 51
65 3 36 3 36 20 1 21 -44 22 -20 3 44 -17 56 -19 76 -7 76 15 0 32 -49 47
-137 14 -80 14 -96 -5 -226 -22 -154 -21 -149 -36 -139 -8 5 -6 39 7 117 10
61 18 128 17 150 0 22 -11 -22 -23 -98 -21 -124 -35 -179 -35 -135 0 9 -6 21
-14 27 -8 7 -18 26 -21 42 -4 16 -11 29 -16 29 -22 0 -203 141 -225 176 -14
21 -16 42 -10 140 9 142 31 198 104 267 48 44 67 52 117 47 15 -1 10 6 -17 26
-32 23 -37 32 -36 63 1 51 5 56 32 45z m-1040 -30 c3 -9 6 -25 6 -36 0 -16 5
-19 24 -14 24 6 107 -17 90 -25 -5 -3 -36 -3 -69 -1 -60 4 -61 4 -72 40 -6 20
-9 40 -7 44 8 13 21 9 28 -8z m853 -21 c29 -9 53 -20 53 -23 0 -4 -28 -28 -61
-54 -61 -48 -61 -48 -105 -36 -55 16 -60 24 -30 43 13 9 34 32 46 51 25 41 26
42 97 19z m143 7 c0 -5 -4 -10 -10 -10 -5 0 -10 5 -10 10 0 6 5 10 10 10 6 0
10 -4 10 -10z m-24 -29 c-4 -5 0 -11 6 -13 9 -3 -3 -25 -32 -61 -116 -146
-120 -157 -120 -305 0 -103 0 -103 -68 -66 -64 35 -68 39 -68 72 0 19 -7 39
-14 46 -9 6 -14 24 -13 41 17 221 12 205 56 189 44 -16 87 -18 87 -5 0 12 81
66 100 66 8 1 14 6 13 13 -2 7 6 12 16 12 11 0 23 5 26 10 3 6 8 10 11 10 3 0
3 -4 0 -9z m184 -1 c-8 -5 -24 -9 -35 -9 -16 1 -16 2 5 9 35 11 48 11 30 0z
m-517 -20 c3 -11 1 -20 -4 -20 -5 0 -9 9 -9 20 0 11 2 20 4 20 2 0 6 -9 9 -20z
m-357 -180 c60 -81 59 -93 -4 -57 -105 59 -210 207 -147 207 9 0 15 -9 15 -25
0 -14 5 -25 11 -25 7 0 9 9 5 23 -3 12 -2 34 1 47 6 22 9 18 35 -35 15 -33 53
-94 84 -135z m334 150 c0 -5 -5 -10 -11 -10 -5 0 -7 5 -4 10 3 6 8 10 11 10 2
0 4 -4 4 -10z m44 -37 c9 -57 6 -105 -8 -138 -11 -27 -13 -20 -12 73 1 105 9
131 20 65z m-649 -3 c3 -5 11 -10 16 -10 6 0 7 5 3 12 -5 7 -3 8 7 2 8 -4 26
-7 40 -6 21 3 28 -4 43 -37 10 -21 38 -57 61 -79 24 -22 40 -44 37 -48 -4 -4
-2 -4 5 -1 15 9 95 -34 101 -55 2 -9 11 -19 20 -23 14 -5 15 -4 5 6 -7 7 -13
20 -13 29 0 9 15 -3 36 -27 31 -37 41 -43 75 -43 27 0 38 -4 33 -11 -4 -7 0
-9 12 -6 78 23 174 18 174 -8 0 -22 -14 -25 -55 -11 -22 8 -46 11 -55 8 -17
-7 39 -21 106 -26 51 -4 146 -57 175 -97 20 -28 124 -116 182 -152 15 -10 27
-22 27 -27 0 -5 -12 -11 -27 -13 -16 -2 -11 -3 9 -2 35 3 39 0 64 -43 15 -25
41 -60 58 -77 17 -17 48 -63 68 -101 37 -70 37 -70 -32 -66 -133 8 -302 -74
-457 -222 -29 -28 -53 -54 -53 -59 0 -5 31 19 68 55 149 141 313 222 436 216
66 -4 70 -5 101 -42 34 -41 36 -74 7 -98 -13 -11 -14 -10 -4 9 7 12 12 30 12
40 0 10 -10 -3 -23 -29 -17 -37 -46 -67 -136 -139 -63 -50 -123 -102 -133
-115 -19 -24 -19 -24 -96 15 -42 21 -95 41 -118 44 -22 4 -63 14 -90 22 -224
69 -419 121 -484 130 -65 9 -72 17 -105 110 -16 44 -33 83 -38 86 -11 8 -75
200 -84 253 -4 25 -2 41 6 45 12 8 5 41 -9 41 -27 0 -18 -80 24 -211 13 -42
21 -80 17 -85 -8 -11 -118 -11 -151 0 -38 13 -66 46 -49 57 21 13 41 11 33 -3
-5 -9 -2 -8 9 1 10 8 15 16 12 19 -3 3 0 11 7 19 6 7 8 16 4 20 -3 3 -6 1 -6
-5 0 -11 -50 -42 -69 -42 -5 0 -5 13 2 33 15 43 14 42 32 27 18 -15 34 -5 17
12 -6 6 -25 11 -42 10 -33 -1 -44 30 -14 42 22 8 51 7 39 -2 -14 -10 -17 -32
-5 -32 5 0 10 6 10 13 0 7 10 22 23 34 24 20 24 20 37 -11 8 -17 13 -40 12
-51 -1 -14 1 -15 5 -5 4 9 13 -6 24 -40 10 -30 17 -55 16 -56 -10 -10 -77 -14
-77 -5 0 6 -4 11 -9 11 -5 0 -7 -8 -4 -19 3 -11 12 -17 21 -15 10 1 33 6 53 9
37 5 37 5 17 68 -10 34 -28 79 -39 100 -10 21 -20 50 -21 65 -1 15 -6 33 -11
40 -6 8 -5 12 4 12 8 0 20 9 27 21 7 12 16 19 18 16 3 -2 18 7 34 22 73 67
125 94 74 39 -19 -21 -12 -18 21 11 28 25 51 45 52 46 1 0 -8 1 -21 0 -13 0
-29 -5 -37 -12 -8 -6 -37 -26 -65 -45 -91 -59 -137 -104 -130 -126 8 -25 -14
-34 -63 -27 -29 4 -31 3 -11 -4 23 -8 22 -9 -12 -10 -20 -1 -40 -5 -43 -11
-11 -18 -42 -10 -59 15 -22 33 -20 36 12 19 15 -7 38 -13 52 -13 21 1 19 2
-10 11 -19 5 -41 15 -48 20 -7 6 -15 8 -19 5 -9 -10 -61 21 -73 42 -45 85 57
261 151 261 71 0 155 -57 174 -117 4 -16 14 -23 32 -23 18 0 24 -4 19 -15 -3
-8 12 3 34 26 45 47 49 71 20 114 -11 17 -29 48 -39 70 -26 58 -69 104 -112
122 -51 20 -49 29 14 57 83 39 102 43 112 26z m612 -7 c-4 -3 -7 0 -7 7 0 7 3
10 7 7 3 -4 3 -10 0 -14z m-732 -169 c28 -18 28 -18 4 -25 -13 -4 -40 -7 -59
-8 -22 -1 -42 -9 -53 -21 -37 -43 -51 9 -15 55 25 32 74 31 123 -1z m765 -29
c0 -8 -7 -15 -15 -15 -9 0 -12 6 -9 15 4 8 10 15 15 15 5 0 9 -7 9 -15z m-110
-15 c0 -5 -5 -10 -11 -10 -5 0 -7 5 -4 10 3 6 8 10 11 10 2 0 4 -4 4 -10z m60
0 c-20 -13 -43 -13 -35 0 3 6 16 10 28 10 18 0 19 -2 7 -10z m520 -95 c0 -63
-10 -98 -25 -83 -8 7 8 167 16 162 5 -3 9 -38 9 -79z m-1420 68 c-1 -9 -50
-47 -55 -41 -1 1 1 13 6 26 8 20 49 33 49 15z m866 -2 c-3 -4 12 -3 33 2 44
12 71 5 71 -19 0 -12 -5 -14 -17 -8 -19 8 -89 7 -138 -2 -30 -5 -30 -5 -5 15
24 20 66 29 56 12z m571 -53 c-3 -8 -6 -5 -6 6 -1 11 2 17 5 13 3 -3 4 -12 1
-19z m-1267 -317 c0 -14 -10 -18 -67 -26 -64 -8 -71 7 -10 22 57 14 77 15 77
4z m-93 -57 c-3 -3 -12 -4 -19 -1 -8 3 -5 6 6 6 11 1 17 -2 13 -5z m0 -21 c-4
-3 -10 -3 -14 0 -3 4 0 7 7 7 7 0 10 -3 7 -7z m33 -29 c0 -24 -19 -54 -34 -54
-8 0 -24 -8 -36 -18 -20 -16 -21 -19 -6 -31 20 -17 21 -32 1 -25 -8 4 -15 1
-15 -5 0 -6 11 -11 25 -11 18 0 23 4 19 15 -4 8 -1 15 5 15 6 0 11 -9 11 -20
0 -11 7 -20 16 -20 19 0 10 -39 -14 -57 -13 -10 -20 -10 -38 2 -20 13 -23 13
-27 -3 -2 -9 -4 -3 -4 13 0 17 -3 69 -7 118 -6 62 -5 87 3 87 6 0 11 -6 11
-12 0 -7 5 -5 11 5 13 23 79 24 79 1z m-21 -85 c1 21 31 -7 31 -29 0 -10 6
-18 13 -17 44 1 45 -1 25 -43 -11 -22 -25 -40 -32 -39 -7 0 -7 2 2 6 15 6 16
33 2 33 -6 0 -10 7 -8 15 2 8 -12 28 -31 44 -22 19 -31 33 -26 42 6 9 10 8 16
-7 4 -10 8 -13 8 -5z m201 -84 c6 -19 9 -41 7 -48 -3 -7 -6 -5 -6 5 -1 25 -21
72 -27 65 -3 -3 1 -27 9 -54 35 -109 27 -133 -46 -133 -16 0 -18 -3 -8 -9 8
-5 9 -11 3 -15 -12 -7 -46 37 -66 86 -22 53 15 121 70 129 21 3 42 7 46 8 3 0
12 -15 18 -34z m40 -30 c7 -22 23 -61 37 -87 23 -48 19 -63 -9 -30 -15 16 -39
84 -53 147 -9 42 9 20 25 -30z m62 -46 c28 -69 33 -89 19 -89 -9 0 -71 129
-71 149 0 31 27 -1 52 -60z m-289 12 c10 -1 21 -11 26 -24 10 -26 68 -114 80
-122 5 -2 21 7 37 20 16 14 39 28 52 31 15 4 21 12 18 23 -2 9 -7 30 -10 46
-5 30 -5 30 9 0 8 -16 14 -35 15 -41 1 -26 43 -43 165 -68 72 -14 204 -49 295
-77 91 -27 201 -59 245 -69 85 -19 82 -21 -42 -24 -28 -1 -39 -4 -32 -12 6 -7
-10 -40 -44 -91 -28 -45 -57 -89 -63 -99 -7 -11 -15 -16 -18 -13 -8 7 79 185
94 194 12 7 13 25 2 25 -4 0 -16 -15 -27 -32 -10 -18 -26 -39 -34 -46 -9 -8
-10 -11 -4 -7 9 4 11 1 7 -9 -3 -9 -10 -13 -15 -10 -9 5 -13 -9 -10 -35 2 -8
-2 -10 -10 -5 -7 4 -10 3 -6 -3 3 -5 -6 -23 -21 -40 -30 -32 -30 -33 40 -56
10 -4 20 -22 24 -44 4 -21 17 -59 30 -84 13 -26 30 -75 37 -109 15 -63 15 -63
-82 -56 -183 11 -264 39 -405 135 -114 77 -130 83 -177 71 -87 -24 -146 -5
-220 69 -86 86 -92 115 -38 195 20 30 40 52 43 49 3 -4 6 1 6 10 0 11 5 14 16
10 8 -3 13 -12 10 -20 -3 -8 -1 -11 4 -8 14 9 12 -9 -6 -55 -9 -23 -14 -44
-10 -47 3 -4 6 1 6 9 0 25 26 42 34 22 3 -9 4 -20 1 -25 -4 -5 1 -6 10 -3 11
4 14 12 9 23 -4 9 -9 33 -12 55 -4 34 -51 123 -53 100 0 -5 -4 2 -10 14 -5 13
-6 28 -3 33 8 14 34 -17 34 -40 0 -12 4 -21 9 -21 16 0 61 68 61 92 0 18 -2
20 -10 8 -9 -15 -30 23 -30 56 0 9 -20 35 -45 58 -44 43 -49 57 -17 51 9 -2
25 -4 35 -4z m-59 -31 c14 0 61 -78 52 -87 -3 -4 -6 0 -7 8 0 8 -4 5 -8 -6
-10 -26 -24 -23 -33 7 -4 13 -5 1 -3 -27 3 -33 2 -43 -4 -30 -5 11 -11 54 -14
95 -3 41 -4 67 -1 58 3 -10 11 -18 18 -18z m75 -142 c-1 -51 -1 -52 -10 -18
-7 32 -4 70 7 70 2 0 4 -24 3 -52z m-52 -5 c-4 -3 -7 0 -7 7 0 7 3 10 7 7 3
-4 3 -10 0 -14z m83 -12 c0 -6 -4 -13 -10 -16 -5 -3 -10 1 -10 9 0 9 5 16 10
16 6 0 10 -4 10 -9z m-103 -23 c-3 -8 -6 -5 -6 6 -1 11 2 17 5 13 3 -3 4 -12
1 -19z m30 -65 c-4 -3 -7 0 -7 7 0 7 3 10 7 7 3 -4 3 -10 0 -14z m1308 -233
c9 -16 13 -30 11 -30 -3 0 -12 14 -21 30 -9 17 -13 30 -11 30 3 0 12 -13 21
-30z m-465 6 c0 -3 -5 -8 -12 -12 -7 -4 -8 -3 -4 4 7 12 16 16 16 8z"/>
<path d="M1468 3213 c7 -3 16 -2 19 1 4 3 -2 6 -13 5 -11 0 -14 -3 -6 -6z"/>
<path d="M1508 3213 c6 -2 18 -2 25 0 6 3 1 5 -13 5 -14 0 -19 -2 -12 -5z"/>
<path d="M1618 2859 c-10 -5 -18 -15 -18 -21 0 -7 7 -5 18 4 9 9 24 18 32 21
13 5 13 5 0 6 -8 0 -23 -4 -32 -10z"/>
<path d="M1500 2853 c0 -2 5 -12 12 -22 8 -14 9 -26 2 -42 -9 -20 -5 -28 39
-66 27 -25 51 -42 54 -39 3 2 -14 21 -36 41 -40 37 -53 65 -29 65 9 0 9 3 0
12 -7 7 -12 22 -12 33 0 13 -6 22 -15 22 -8 0 -15 -2 -15 -4z"/>
<path d="M1588 2763 c7 -3 16 -2 19 1 4 3 -2 6 -13 5 -11 0 -14 -3 -6 -6z"/>
<path d="M1641 2763 c0 -6 -4 -20 -7 -30 -5 -14 -4 -15 5 -7 7 7 11 20 8 30
-3 11 -5 14 -6 7z"/>
<path d="M1670 2440 c0 -7 3 -10 7 -7 3 4 3 10 0 14 -4 3 -7 0 -7 -7z"/>
<path d="M1600 2400 c0 -5 5 -10 11 -10 5 0 7 5 4 10 -3 6 -8 10 -11 10 -2 0
-4 -4 -4 -10z"/>
<path d="M1303 2530 c0 -30 2 -43 4 -27 2 15 2 39 0 55 -2 15 -4 2 -4 -28z"/>
<path d="M530 2828 c0 -2 32 -37 71 -78 84 -90 161 -189 154 -200 -2 -4 -25
-13 -50 -19 -54 -14 -128 -72 -85 -67 49 5 160 65 160 86 0 10 -74 105 -121
155 -20 22 -43 54 -50 70 -8 17 -19 29 -24 28 -6 -1 -20 5 -32 13 -13 8 -23
13 -23 12z m187 -314 c-3 -3 -12 -4 -19 -1 -8 3 -5 6 6 6 11 1 17 -2 13 -5z"/>
<path d="M269 2558 c44 -11 121 -73 121 -97 0 -13 -38 8 -88 51 -39 33 -86 36
-119 9 -34 -28 -28 -31 15 -10 23 12 46 17 62 14 36 -9 47 -23 13 -18 -18 2
-3 -9 42 -32 94 -47 111 -47 83 0 -30 52 -80 86 -130 91 -43 3 -43 3 1 -8z"/>
<path d="M580 2546 c0 -2 9 -6 20 -9 11 -3 18 -1 14 4 -5 9 -34 13 -34 5z"/>
<path d="M1008 2533 c7 -3 16 -2 19 1 4 3 -2 6 -13 5 -11 0 -14 -3 -6 -6z"/>
<path d="M578 2493 c6 -2 18 -2 25 0 6 3 1 5 -13 5 -14 0 -19 -2 -12 -5z"/>
<path d="M965 2469 c-21 -5 -48 -18 -60 -27 -11 -10 -47 -26 -80 -36 -33 -10
-66 -23 -72 -28 -7 -6 -32 -7 -56 -4 -40 6 -47 4 -88 -32 -24 -21 -53 -44 -64
-50 -11 -6 -14 -12 -7 -12 7 0 35 18 61 40 53 45 107 53 161 25 28 -14 33 -14
70 5 45 23 75 27 47 6 -28 -22 15 -59 58 -50 30 6 59 24 39 24 -6 0 -17 19
-23 43 -7 23 -17 47 -23 54 -9 11 32 27 117 46 12 3 9 5 -10 5 -16 0 -48 -4
-70 -9z m-40 -64 c0 -14 -136 -57 -155 -49 -16 6 -17 6 80 44 48 19 75 21 75
5z m23 -65 c-4 -18 -37 -24 -58 -11 -25 17 16 54 41 38 11 -7 18 -19 17 -27z"/>
<path d="M1250 2313 c-84 -30 -139 -65 -149 -96 -10 -29 -9 -30 4 -13 8 11 15
23 15 28 0 4 37 25 83 48 72 35 93 49 47 33z"/>
<path d="M765 2245 c-16 -8 -23 -14 -14 -15 8 0 24 7 35 15 23 18 18 18 -21 0z"/>
<path d="M670 2201 c0 -8 52 -22 58 -16 2 1 -11 7 -27 13 -17 6 -31 7 -31 3z"/>
<path d="M1255 2165 c-22 -7 -53 -10 -70 -7 -43 7 -27 -5 36 -27 30 -10 81
-30 114 -45 33 -14 67 -26 77 -26 18 0 95 61 117 94 14 20 14 21 -6 3 -11 -9
-23 -14 -28 -10 -4 5 -5 3 -2 -3 4 -6 -12 -26 -34 -43 -45 -37 -42 -37 -182
22 -58 24 -58 24 0 35 32 7 67 13 78 16 11 2 2 4 -20 4 -22 0 -58 -6 -80 -13z"/>
<path d="M305 2160 c3 -5 8 -10 11 -10 2 0 4 5 4 10 0 6 -5 10 -11 10 -5 0 -7
-4 -4 -10z"/>
<path d="M1383 2163 c4 -3 10 -3 14 0 3 4 0 7 -7 7 -7 0 -10 -3 -7 -7z"/>
<path d="M586 2090 c-20 -35 -35 -65 -32 -67 2 -3 12 10 22 29 9 18 26 45 37
60 11 15 18 30 15 34 -4 3 -23 -22 -42 -56z"/>
<path d="M1425 2119 c-22 -10 -33 -18 -25 -18 8 0 31 8 50 19 45 25 27 24 -25
-1z"/>
<path d="M850 2111 c0 -5 7 -15 17 -22 15 -13 15 -12 4 9 -12 23 -21 28 -21
13z"/>
<path d="M420 2090 c0 -7 3 -10 7 -7 3 4 3 10 0 14 -4 3 -7 0 -7 -7z"/>
<path d="M949 2033 c26 -38 49 -56 33 -27 -6 11 -20 28 -33 39 -23 20 -23 20
0 -12z"/>
<path d="M984 2031 c7 -11 61 -20 146 -25 65 -4 65 -4 5 3 -33 5 -76 13 -95
20 -42 13 -63 14 -56 2z"/>
<path d="M1033 1993 c4 -3 10 -3 14 0 3 4 0 7 -7 7 -7 0 -10 -3 -7 -7z"/>
<path d="M1371 1751 c-12 -22 -21 -46 -20 -53 0 -7 11 9 24 36 14 27 23 51 21
54 -3 2 -14 -14 -25 -37z"/>
<path d="M1278 1703 c-16 -19 -38 -58 -38 -68 0 -15 22 10 40 46 22 42 21 49
-2 22z"/>
<path d="M341 1954 c0 -11 3 -14 6 -6 3 7 2 16 -1 19 -3 4 -6 -2 -5 -13z"/>
<path d="M350 1791 c0 -6 4 -13 10 -16 6 -3 7 1 4 9 -7 18 -14 21 -14 7z"/>
<path d="M468 1741 c-45 -29 -85 -74 -107 -121 -12 -25 -12 -25 6 -1 27 36 94
103 128 128 43 32 27 28 -27 -6z"/>
<path d="M529 1673 c-14 -9 -32 -25 -39 -37 -13 -21 -13 -21 11 0 13 11 35 28
49 37 31 22 13 22 -21 0z"/>
<path d="M714 1681 c3 -5 45 -25 93 -46 157 -68 204 -118 95 -102 -37 6 -37 6
-1 -6 33 -11 35 -14 28 -44 -3 -17 -16 -48 -28 -69 -12 -20 -20 -38 -18 -40 9
-9 57 74 57 99 0 15 9 36 21 48 20 20 20 21 2 41 -24 27 -262 141 -249 119z"/>
<path d="M440 1590 c-24 -15 -7 -19 20 -5 15 8 19 14 10 14 -8 1 -22 -3 -30
-9z"/>
<path d="M430 1551 c0 -14 40 -60 62 -72 14 -8 8 4 -18 35 -40 48 -44 51 -44
37z"/>
<path d="M253 1453 c4 -3 10 -3 14 0 3 4 0 7 -7 7 -7 0 -10 -3 -7 -7z"/>
<path d="M927 1224 c101 -119 128 -146 157 -161 30 -14 30 -14 -4 14 -37 30
-49 43 -130 141 -28 34 -55 62 -61 62 -6 0 11 -25 38 -56z"/>
<path d="M962 1090 c7 -11 19 -22 28 -25 8 -4 4 5 -9 19 -29 31 -36 33 -19 6z"/>
<path d="M1163 3623 c9 -2 23 -2 30 0 6 3 -1 5 -18 5 -16 0 -22 -2 -12 -5z"/>
<path d="M313 3613 c4 -3 10 -3 14 0 3 4 0 7 -7 7 -7 0 -10 -3 -7 -7z"/>
<path d="M1083 3613 c4 -3 10 -3 14 0 3 4 0 7 -7 7 -7 0 -10 -3 -7 -7z"/>
<path d="M610 3569 c0 -6 -21 -31 -47 -56 -46 -45 -46 -45 -155 -13 -76 22
-113 29 -121 22 -7 -6 -39 -10 -72 -9 -56 2 -64 -1 -123 -41 -34 -24 -62 -48
-62 -53 0 -13 22 -6 40 13 59 65 178 96 168 43 -7 -32 5 -32 20 0 20 44 70 41
214 -10 43 -15 92 -9 84 11 -6 15 38 54 60 54 8 0 14 11 14 25 0 14 -4 25 -10
25 -5 0 -10 -5 -10 -11z"/>
<path d="M1450 3523 c0 -9 3 -13 7 -10 3 4 13 1 22 -5 10 -8 9 -4 -3 10 -23
26 -26 27 -26 5z"/>
<path d="M1795 3530 c3 -5 8 -10 11 -10 3 0 2 5 -1 10 -3 6 -8 10 -11 10 -3 0
-2 -4 1 -10z"/>
<path d="M1474 3487 c11 -6 35 -25 54 -42 28 -23 33 -25 24 -9 -14 27 -31 41
-67 53 -25 9 -27 8 -11 -2z"/>
<path d="M170 3451 c0 -11 39 -41 52 -41 5 0 8 5 8 10 0 6 -7 10 -15 10 -9 0
-18 7 -21 15 -7 16 -24 21 -24 6z"/>
<path d="M2138 3434 c-2 -5 -3 -15 -2 -21 1 -7 2 -21 3 -30 1 -14 11 -18 44
-19 23 0 53 -4 67 -8 23 -7 24 -6 5 5 -11 7 -38 16 -60 19 -32 4 -40 9 -40 25
0 18 6 20 53 18 28 -1 61 -7 71 -13 14 -7 20 -6 24 4 3 7 0 13 -6 13 -7 1 -44
4 -83 8 -39 4 -73 4 -76 -1z"/>
<path d="M1495 3421 c-17 -7 -16 -9 13 -15 17 -4 32 -11 32 -16 0 -4 7 -10 14
-13 19 -8 9 23 -13 40 -18 14 -19 14 -46 4z"/>
<path d="M1270 3370 c-11 -7 -3 -10 28 -10 26 0 41 4 37 10 -8 13 -45 13 -65
0z"/>
<path d="M1743 3333 c-21 -8 -15 -22 7 -16 11 3 20 9 20 14 0 10 -8 10 -27 2z"/>
<path d="M2150 3304 c0 -5 7 -18 15 -28 32 -42 20 -64 -42 -82 -32 -9 -62 -19
-67 -22 -12 -7 2 80 15 93 12 12 12 25 0 25 -10 0 -25 -41 -36 -97 -8 -40 5
-42 96 -15 62 18 74 32 64 75 -7 25 -45 69 -45 51z"/>
<path d="M2125 3250 c3 -5 8 -10 11 -10 2 0 4 5 4 10 0 6 -5 10 -11 10 -5 0
-7 -4 -4 -10z"/>
<path d="M740 3200 c-12 -9 -7 -10 20 -6 19 3 51 2 69 -4 25 -7 32 -7 24 1
-16 16 -95 22 -113 9z"/>
<path d="M967 3188 c-15 -11 -7 -13 46 -13 52 0 61 2 48 12 -21 16 -73 16 -94
1z"/>
<path d="M465 3150 c11 -5 38 -8 60 -8 34 0 36 1 15 8 -36 12 -102 12 -75 0z"/>
<path d="M755 3153 c14 -15 95 -26 95 -13 0 5 -8 10 -19 10 -10 0 -34 3 -52 6
-23 5 -31 3 -24 -3z"/>
<path d="M962 3139 c5 -14 88 -21 88 -6 0 4 -13 7 -29 7 -16 0 -37 3 -47 7
-12 4 -15 2 -12 -8z"/>
<path d="M845 3049 c-11 -17 1 -21 15 -4 8 9 8 15 2 15 -6 0 -14 -5 -17 -11z"/>
<path d="M940 3050 c0 -5 4 -10 9 -10 4 0 21 -12 36 -27 22 -22 26 -23 17 -7
-13 24 -62 59 -62 44z"/>
<path d="M315 3040 c30 -13 55 -13 35 0 -8 5 -24 9 -35 9 -20 0 -20 0 0 -9z"/>
<path d="M1330 3035 c-7 -9 -10 -18 -7 -21 3 -3 10 4 17 15 13 25 8 27 -10 6z"/>
<path d="M530 3006 c0 -2 7 -7 16 -10 8 -3 12 -2 9 4 -6 10 -25 14 -25 6z"/>
<path d="M201 2954 c-7 -103 -56 -255 -115 -359 -67 -117 -82 -150 -66 -140 6
4 22 29 36 56 14 28 43 79 64 114 42 68 96 268 87 323 -3 20 -4 21 -6 6z"/>
<path d="M828 2963 c-40 -10 -2 -53 45 -52 32 1 32 1 -5 11 -84 22 -4 36 96
17 10 -2 21 1 23 7 2 6 -2 11 -9 11 -7 0 -40 2 -73 5 -33 3 -68 4 -77 1z"/>
<path d="M2130 2901 c36 -23 83 -56 105 -75 40 -33 105 -138 105 -169 0 -8 5
-17 11 -19 15 -5 28 -125 29 -266 0 -72 5 -132 11 -144 6 -12 12 -46 13 -76 1
-48 -2 -56 -28 -78 -16 -14 -39 -46 -52 -72 -27 -54 -77 -92 -119 -92 -34 0
-182 33 -273 61 -34 10 -85 19 -111 19 -53 0 -71 11 -96 61 -9 16 -20 29 -25
29 -5 0 4 -22 21 -50 29 -47 33 -50 72 -50 23 0 48 -7 59 -16 11 -11 47 -19
100 -24 46 -5 111 -15 146 -24 130 -34 180 -20 234 67 44 73 60 90 69 75 6 -9
8 -7 9 7 0 11 3 44 6 73 4 32 1 65 -6 83 -8 17 -13 83 -14 157 -1 70 -6 157
-10 193 -8 63 -7 69 18 101 14 19 26 46 26 59 0 18 -7 10 -25 -28 -30 -65 -36
-66 -64 -4 -44 99 -163 210 -251 235 -14 4 4 -11 40 -33z m-235 -931 c19 -8
19 -9 -2 -9 -12 -1 -25 4 -28 9 -7 12 2 12 30 0z"/>
<path d="M2344 2930 c-35 -14 -38 -30 -4 -17 16 6 30 15 30 19 0 9 1 9 -26 -2z"/>
<path d="M930 2921 c-15 -4 -20 -10 -13 -14 13 -8 43 1 43 14 0 5 -1 9 -2 8
-2 -1 -14 -4 -28 -8z"/>
<path d="M715 2870 c3 -5 8 -10 11 -10 3 0 2 5 -1 10 -3 6 -8 10 -11 10 -3 0
-2 -4 1 -10z"/>
<path d="M140 2830 c0 -7 3 -10 7 -7 3 4 3 10 0 14 -4 3 -7 0 -7 -7z"/>
<path d="M2100 2768 c-22 -33 -40 -68 -39 -77 0 -9 6 -4 13 12 15 33 32 60 63
96 34 39 28 4 -7 -48 -63 -93 -85 -248 -56 -400 18 -93 21 -227 6 -236 -12 -8
-12 -10 -15 95 -1 47 -10 121 -19 165 -9 44 -17 120 -18 168 -2 60 -5 81 -11
65 -11 -31 -1 -174 18 -247 9 -35 16 -103 16 -157 0 -97 12 -125 42 -95 15 15
10 151 -10 271 -25 151 -3 273 66 373 38 56 37 77 -5 77 -2 0 -22 -28 -44 -62z"/>
<path d="M2077 2778 c-34 -59 -51 -112 -44 -132 8 -21 27 -12 26 12 0 14 -2
13 -9 -3 -7 -15 -9 -16 -9 -4 -1 25 26 97 50 130 12 17 19 32 16 35 -3 3 -16
-14 -30 -38z"/>
<path d="M118 2759 c-9 -30 -39 -94 -67 -144 -28 -49 -51 -97 -51 -105 0 -8 8
-1 18 17 102 185 125 235 120 267 -2 12 -10 -3 -20 -35z"/>
<path d="M849 2787 c5 -5 26 -7 47 -5 39 3 39 3 -8 8 -26 3 -43 1 -39 -3z"/>
<path d="M948 2793 c7 -3 16 -2 19 1 4 3 -2 6 -13 5 -11 0 -14 -3 -6 -6z"/>
<path d="M1861 2489 c-13 -17 -21 -33 -18 -35 6 -6 47 45 47 57 0 14 -5 11
-29 -22z"/>
<path d="M2120 2446 c0 -5 18 -28 40 -52 22 -24 40 -39 40 -33 0 12 -79 97
-80 85z"/>
<path d="M1854 2338 c-51 -11 -84 -41 -84 -76 0 -49 8 -53 106 -44 89 7 89 7
89 59 -1 29 -3 54 -5 57 -11 10 -68 12 -106 4z m96 -40 c0 -20 -1 -21 -20 -3
-11 10 -20 24 -20 32 0 11 4 11 20 3 11 -6 20 -20 20 -32z m-44 5 c9 -16 25
-33 33 -40 26 -19 2 -30 -76 -36 -61 -5 -73 -3 -73 9 0 24 26 45 47 37 15 -5
16 -3 6 8 -7 7 -13 20 -13 29 0 9 14 0 36 -25 33 -37 39 -31 6 7 -13 16 -9 38
7 38 5 0 17 -12 27 -27z m-86 -8 c0 -2 -9 -9 -20 -15 -16 -9 -18 -8 -14 5 5
13 34 22 34 10z"/>
<path d="M2 2290 c0 -14 2 -19 5 -12 2 6 2 18 0 25 -3 6 -5 1 -5 -13z"/>
<path d="M50 2243 c0 -13 9 -32 20 -43 26 -26 26 -10 0 32 -18 29 -20 30 -20
11z"/>
<path d="M0 2186 c0 -9 5 -16 10 -16 6 0 10 4 10 9 0 6 -4 13 -10 16 -5 3 -10
-1 -10 -9z"/>
<path d="M125 2050 c12 -113 27 -225 31 -229 11 -11 -15 238 -27 259 -5 9 -7
-2 -4 -30z"/>
<path d="M2290 1896 c0 -9 40 -13 46 -5 3 5 -6 9 -20 9 -14 0 -26 -2 -26 -4z"/>
<path d="M2307 1832 c-16 -25 -42 -47 -70 -60 -25 -12 -48 -30 -51 -40 -11
-35 -163 -153 -260 -202 -15 -8 -58 -41 -95 -73 -36 -33 -81 -71 -99 -85 -18
-13 -30 -27 -28 -30 3 -2 47 31 97 74 51 42 122 95 158 117 109 66 200 137
226 175 14 20 25 33 25 29 0 -19 83 52 112 96 4 7 39 -3 95 -26 111 -47 135
-48 29 -2 -44 19 -87 42 -97 51 -16 15 -19 13 -42 -24z"/>
<path d="M162 1760 c0 -19 2 -27 5 -17 2 9 2 25 0 35 -3 9 -5 1 -5 -18z"/>
<path d="M1925 1707 c-110 -33 -127 -88 -31 -104 67 -11 147 45 122 85 -11 19
-60 29 -91 19z m70 -37 c0 -38 -62 -66 -110 -50 -55 18 -44 48 25 68 57 17 85
11 85 -18z"/>
<path d="M1965 1680 c4 -6 -4 -20 -17 -31 -23 -21 -23 -21 2 -6 26 15 40 47
20 47 -6 0 -8 -5 -5 -10z"/>
<path d="M1885 1640 c3 -5 13 -10 21 -10 8 0 12 5 9 10 -3 6 -13 10 -21 10 -8
0 -12 -4 -9 -10z"/>
<path d="M172 1665 c-1 -16 3 -48 7 -70 11 -53 12 -5 2 55 -6 34 -9 37 -9 15z"/>
<path d="M1277 1533 c-12 -19 2 -36 63 -82 33 -24 57 -48 54 -53 -3 -4 2 -5
11 -2 10 4 15 2 13 -7 -2 -7 3 -13 10 -14 8 0 20 -9 28 -19 16 -23 19 -40 4
-31 -14 9 0 -25 22 -54 11 -14 16 -33 13 -45 -5 -21 -5 -21 6 0 9 18 7 27 -12
53 -12 17 -20 33 -17 37 4 3 23 -19 44 -50 20 -31 39 -54 42 -51 14 14 -114
178 -167 214 -59 41 -95 76 -103 101 -3 9 -7 10 -11 3z"/>
<path d="M2185 1464 c-123 -57 -195 -88 -440 -188 -77 -32 -166 -69 -198 -82
-70 -29 -68 -28 -60 -6 4 10 2 14 -3 9 -5 -5 -14 11 -21 40 -11 48 -11 48 -12
-9 -1 -40 3 -58 12 -58 16 0 -37 -31 -88 -52 -98 -39 -125 -51 -121 -55 6 -7
90 24 148 53 28 14 112 51 187 81 345 139 721 305 721 318 0 7 4 9 -125 -51z"/>
<path d="M107 1388 c-45 -71 -60 -99 -54 -104 2 -3 17 14 31 38 15 24 24 34
20 23 -20 -57 -12 -63 15 -10 35 68 35 69 20 59 -7 -4 -7 1 1 16 24 45 0 29
-33 -22z"/>
<path d="M1272 1353 c-11 -27 -24 -61 -28 -78 -4 -16 -18 -52 -31 -78 -13 -27
-23 -53 -21 -59 2 -5 14 12 27 39 14 26 46 81 73 121 27 39 45 72 40 72 -5 0
-22 -18 -37 -40 -37 -54 -39 -50 -10 15 13 30 20 55 16 55 -5 0 -18 -21 -29
-47z"/>
<path d="M1435 1350 c3 -5 8 -10 11 -10 3 0 2 5 -1 10 -3 6 -8 10 -11 10 -3 0
-2 -4 1 -10z"/>
<path d="M1620 1315 c7 -9 15 -13 17 -11 7 7 -7 26 -19 26 -6 0 -6 -6 2 -15z"/>
<path d="M2160 1302 c-72 -35 -149 -69 -290 -127 -63 -26 -137 -58 -165 -70
-27 -13 -112 -51 -188 -86 -76 -34 -141 -67 -144 -72 -3 -5 -2 -8 3 -5 26 12
157 74 214 100 36 16 108 48 160 70 353 150 501 218 475 217 -5 0 -35 -13 -65
-27z"/>
<path d="M1665 1290 c3 -5 8 -10 11 -10 3 0 2 5 -1 10 -3 6 -8 10 -11 10 -3 0
-2 -4 1 -10z"/>
<path d="M392 1193 c18 -16 49 -37 68 -47 44 -24 80 -56 80 -72 0 -6 7 -15 16
-18 12 -4 15 -15 12 -36 -3 -17 -1 -30 4 -30 15 0 8 55 -11 87 -17 27 -99 93
-116 93 -3 0 -21 11 -39 25 -44 34 -55 32 -14 -2z"/>
<path d="M1525 1210 c3 -5 8 -10 11 -10 3 0 2 5 -1 10 -3 6 -8 10 -11 10 -3 0
-2 -4 1 -10z"/>
<path d="M353 1187 c12 -19 15 -33 9 -44 -8 -13 -12 -11 -28 16 -23 39 -34 40
-34 2 0 -50 182 -201 242 -201 15 0 28 4 28 8 0 4 -15 8 -33 8 -46 0 -127 67
-126 104 0 23 1 23 9 5 7 -16 9 -17 9 -3 1 21 -15 32 -25 16 -9 -14 -28 28
-25 58 1 11 -8 29 -21 40 -22 19 -22 19 -5 -9z m-3 -69 c0 -5 -4 -8 -8 -8 -15
0 -32 24 -32 45 0 19 2 18 20 -5 11 -14 20 -28 20 -32z m39 -33 c6 -3 11 -11
11 -17 0 -6 -9 -3 -20 7 -11 10 -20 28 -19 39 0 21 0 21 9 0 5 -12 13 -25 19
-29z"/>
<path d="M220 1173 c0 -5 12 -20 28 -34 27 -24 27 -24 2 6 -14 17 -26 32 -27
34 -2 2 -3 0 -3 -6z"/>
<path d="M1207 1118 c-10 -17 -16 -33 -13 -35 7 -7 38 45 34 56 -1 6 -11 -3
-21 -21z"/>
<path d="M430 1133 c0 -4 14 -21 30 -38 17 -17 32 -41 35 -54 4 -22 46 -63 55
-54 3 2 -3 9 -12 14 -9 5 -22 25 -28 44 -14 41 -80 114 -80 88z"/>
<path d="M513 1073 c4 -3 10 -3 14 0 3 4 0 7 -7 7 -7 0 -10 -3 -7 -7z"/>
<path d="M1297 1050 c-26 -16 -62 -34 -80 -39 -32 -9 -32 -9 3 -10 34 -1 34
-1 -47 -78 -45 -43 -87 -91 -93 -107 -14 -39 -6 -45 10 -7 15 37 150 160 168
154 6 -3 10 -9 6 -14 -8 -13 10 -11 24 3 6 6 14 9 18 6 3 -4 -9 -14 -26 -23
-18 -9 -29 -12 -26 -6 4 6 2 11 -3 11 -6 0 -11 -5 -11 -11 0 -6 -24 -35 -53
-63 -123 -118 -143 -243 -82 -489 20 -81 34 -155 31 -163 -3 -8 -2 -13 3 -10
8 6 44 -79 57 -136 3 -16 12 -28 20 -28 17 0 17 1 3 37 -47 123 -102 421 -97
532 3 97 45 201 95 241 14 11 20 20 14 20 -24 0 2 21 80 67 89 52 86 47 59 91
-11 18 -18 37 -15 43 10 15 -8 9 -58 -21z m60 -26 c16 -26 16 -27 -7 -46 -13
-10 -30 -16 -37 -13 -8 3 -25 5 -38 5 -23 0 -23 1 -10 27 13 24 48 52 67 53 4
0 15 -12 25 -26z m-193 -221 c-69 -115 -77 -198 -38 -386 22 -108 12 -107 -15
2 -28 115 -30 219 -6 291 20 59 71 150 85 150 5 0 -7 -26 -26 -57z m-7 -570
c-4 -3 -7 0 -7 7 0 7 3 10 7 7 3 -4 3 -10 0 -14z m10 -30 c-4 -3 -7 0 -7 7 0
7 3 10 7 7 3 -4 3 -10 0 -14z"/>
<path d="M266 1063 c-3 -3 -6 -11 -6 -16 0 -6 3 -7 7 -4 3 4 15 -1 26 -10 19
-17 20 -17 8 4 -13 26 -26 35 -35 26z"/>
<path d="M161 1058 c-1 -4 12 -40 29 -80 16 -40 30 -64 30 -53 0 19 -58 148
-59 133z"/>
<path d="M227 996 c-10 -25 26 -98 62 -129 25 -21 27 -26 15 -42 -19 -26 -20
-23 30 -92 33 -45 52 -62 75 -66 43 -9 46 -61 4 -70 -16 -3 -37 -13 -48 -21
-20 -16 -19 -17 25 -55 49 -43 119 -61 121 -31 3 70 -4 197 -12 218 -8 23 -5
21 28 -14 21 -23 47 -47 58 -54 11 -8 -1 8 -27 34 -33 33 -48 57 -48 75 -1 26
-1 26 -20 3 -11 -13 -21 -18 -25 -12 -7 12 28 65 52 79 14 8 13 12 -13 35 -16
14 -35 26 -41 26 -14 0 -18 20 -4 20 4 0 20 -10 35 -21 27 -21 41 -23 28 -3
-10 15 -67 44 -87 44 -9 0 -37 -16 -61 -37 -45 -36 -45 -36 -75 -7 -38 36 -51
59 -59 104 -4 28 -7 31 -13 16z m213 -111 c0 -7 -16 -36 -35 -65 -19 -29 -35
-58 -35 -65 0 -22 28 -38 55 -31 22 6 25 3 25 -19 0 -24 -3 -26 -32 -23 -27 2
-40 13 -70 58 -48 71 -48 69 20 122 56 45 72 50 72 23z m45 -35 c20 -22 12
-40 -40 -92 -22 -22 -31 -25 -46 -17 -21 11 -19 19 29 92 28 43 33 44 57 17z
m5 -156 c6 -14 10 -63 10 -108 0 -78 -1 -84 -22 -90 -26 -6 -103 42 -103 65 0
7 18 18 40 25 43 12 41 8 44 107 1 34 18 35 31 1z"/>
<path d="M470 610 c0 -5 5 -10 10 -10 6 0 10 5 10 10 0 6 -4 10 -10 10 -5 0
-10 -4 -10 -10z"/>
<path d="M370 986 c0 -3 9 -10 20 -16 11 -6 20 -8 20 -6 0 3 -9 10 -20 16 -11
6 -20 8 -20 6z"/>
<path d="M1125 963 c-61 -31 -112 -78 -173 -160 -25 -35 -47 -61 -50 -59 -7 8
29 67 66 108 29 33 31 38 11 25 -31 -21 -59 -58 -93 -125 -26 -51 -26 -51
-117 13 -81 57 -109 73 -109 62 0 -2 43 -32 95 -67 114 -75 106 -65 93 -121
-7 -32 -8 -61 -1 -95 11 -49 11 -49 12 22 1 69 29 192 38 166 3 -7 30 19 63
60 70 89 110 126 173 162 26 15 47 29 47 31 0 7 1 7 -55 -22z"/>
<path d="M540 862 c0 -4 9 -13 20 -20 11 -7 20 -17 20 -23 0 -5 -4 -8 -9 -5
-5 4 -7 -3 -4 -14 7 -25 10 -25 24 1 9 17 7 25 -12 45 -22 24 -39 31 -39 16z"/>
<path d="M188 803 c7 -72 21 -97 15 -28 -3 33 -9 64 -13 68 -4 5 -5 -13 -2
-40z"/>
<path d="M240 808 c17 -18 38 -45 46 -60 8 -16 19 -28 25 -28 6 0 6 8 -1 21
-17 30 -81 99 -92 99 -6 0 4 -15 22 -32z"/>
<path d="M245 760 c3 -5 8 -10 11 -10 3 0 2 5 -1 10 -3 6 -8 10 -11 10 -3 0
-2 -4 1 -10z"/>
<path d="M540 726 c8 -7 62 -55 120 -105 58 -51 122 -111 143 -133 20 -22 37
-36 37 -31 0 9 -219 218 -278 266 -26 20 -43 23 -22 3z"/>
<path d="M270 724 c0 -15 37 -61 43 -54 3 3 -6 19 -19 35 -13 17 -24 25 -24
19z"/>
<path d="M930 690 c0 -7 3 -10 7 -7 3 4 3 10 0 14 -4 3 -7 0 -7 -7z"/>
<path d="M2177 514 c-57 -29 -64 -43 -43 -81 15 -28 15 -28 10 7 -5 33 -3 36
48 67 63 38 53 43 -15 7z"/>
<path d="M474 453 c-10 -7 -57 -26 -104 -41 -47 -14 -78 -28 -70 -29 14 -3
105 25 186 58 32 12 32 12 118 -72 48 -46 92 -86 99 -88 7 -2 -32 39 -87 90
-106 101 -112 104 -142 82z"/>
<path d="M2091 455 c-1 -11 13 -49 31 -85 29 -60 96 -239 120 -320 6 -19 13
-30 15 -25 4 13 -89 280 -118 337 -12 23 -27 58 -34 77 -9 24 -14 29 -14 16z"/>
<path d="M2221 432 c-20 -22 -45 -44 -56 -50 -12 -7 -14 -12 -6 -12 7 0 29 9
47 21 33 20 33 20 57 -28 14 -26 46 -100 72 -163 54 -133 91 -200 108 -199 9
0 9 2 0 6 -7 2 -13 13 -13 24 0 10 -4 19 -9 19 -5 0 -30 51 -56 113 -26 61
-61 142 -77 179 -31 68 -31 68 -4 89 15 12 25 24 21 27 -3 3 -16 -5 -30 -18
-29 -28 -46 -19 -20 10 10 11 14 20 10 20 -4 0 -24 -17 -44 -38z"/>
<path d="M780 450 c0 -7 3 -10 7 -7 3 4 3 10 0 14 -4 3 -7 0 -7 -7z"/>
<path d="M857 440 c3 -11 7 -20 9 -20 2 0 4 9 4 20 0 11 -4 20 -9 20 -5 0 -7
-9 -4 -20z"/>
<path d="M660 432 c1 -12 58 -77 63 -72 3 3 -10 22 -29 42 -19 21 -34 34 -34
30z"/>
<path d="M881 414 c0 -11 3 -14 6 -6 3 7 2 16 -1 19 -3 4 -6 -2 -5 -13z"/>
<path d="M842 400 c0 -14 2 -19 5 -12 2 6 2 18 0 25 -3 6 -5 1 -5 -13z"/>
<path d="M760 405 c0 -5 5 -17 10 -25 5 -8 10 -10 10 -5 0 6 -5 17 -10 25 -5
8 -10 11 -10 5z"/>
<path d="M375 371 c-11 -5 -19 -12 -18 -17 1 -5 -7 -29 -19 -52 -22 -47 -22
-108 2 -220 20 -88 23 -51 5 58 -16 102 -16 102 18 171 18 38 33 69 33 68 -1
0 -10 -4 -21 -8z"/>
<path d="M861 364 c0 -11 3 -14 6 -6 3 7 2 16 -1 19 -3 4 -6 -2 -5 -13z"/>
<path d="M890 340 c0 -7 3 -10 7 -7 3 4 3 10 0 14 -4 3 -7 0 -7 -7z"/>
<path d="M842 300 c0 -19 2 -27 5 -17 2 9 2 25 0 35 -3 9 -5 1 -5 -18z"/>
<path d="M2340 310 c0 -7 3 -10 7 -7 3 4 3 10 0 14 -4 3 -7 0 -7 -7z"/>
<path d="M370 245 c56 -56 353 -166 441 -164 37 1 32 3 -34 15 -117 19 -344
108 -392 154 -31 29 -44 25 -15 -5z"/>
<path d="M863 263 c-14 -5 1 -26 64 -91 39 -39 46 -42 78 -36 53 10 51 22 -2
16 -33 -3 -44 -2 -39 7 4 6 1 11 -7 11 -16 0 -63 48 -74 76 -4 11 -13 19 -20
17z"/>
<path d="M770 140 c-34 -11 3 -11 45 0 27 7 27 8 5 8 -14 0 -36 -4 -50 -8z"/>
<path d="M843 113 c4 -3 10 -3 14 0 3 4 0 7 -7 7 -7 0 -10 -3 -7 -7z"/>
<path d="M2431 118 c-2 -14 19 -58 27 -58 4 0 17 7 28 16 18 14 18 15 -4 4
-13 -7 -25 -10 -26 -8 -1 2 -7 14 -13 28 -7 14 -12 22 -12 18z"/>
<path d="M743 3 c4 -3 10 -3 14 0 3 4 0 7 -7 7 -7 0 -10 -3 -7 -7z"/>
<path d="M903 3 c4 -3 10 -3 14 0 3 4 0 7 -7 7 -7 0 -10 -3 -7 -7z"/>
<path d="M2483 3 c9 -2 23 -2 30 0 6 3 -1 5 -18 5 -16 0 -22 -2 -12 -5z"/>
</g>
</svg>
