<?xml version="1.0" standalone="no"?>
<!DOCTYPE svg PUBLIC "-//W3C//DTD SVG 20010904//EN"
 "http://www.w3.org/TR/2001/REC-SVG-20010904/DTD/svg10.dtd">
<svg version="1.0" xmlns="http://www.w3.org/2000/svg"
 width="344.000000pt" height="256.000000pt" viewBox="0 0 344.000000 256.000000"
 preserveAspectRatio="xMidYMid meet">
<metadata>
Created by potrace 1.16, written by Peter Selinger 2001-2019
</metadata>
<g transform="translate(0.000000,256.000000) scale(0.100000,-0.100000)"
fill="#000000" stroke="none">
<path d="M2679 2533 c-1 -16 -2 -40 -3 -55 -1 -16 1 -25 5 -20 10 10 16 102 7
102 -5 0 -9 -12 -9 -27z"/>
<path d="M1814 2459 c-19 -22 -19 -22 4 -10 12 6 22 16 22 21 0 15 -5 12 -26
-11z"/>
<path d="M2801 2430 c0 -8 5 -24 10 -35 9 -19 9 -19 5 2 -2 13 2 24 12 28 13
5 14 -3 8 -57 -3 -35 -8 -94 -10 -133 -2 -38 -2 -53 1 -32 2 20 8 37 12 37 5
0 9 32 10 72 2 103 7 116 44 120 20 2 8 6 -31 8 -51 4 -62 2 -61 -10z"/>
<path d="M1367 2426 c-6 -14 -10 -16 -21 -7 -10 8 -16 9 -21 1 -3 -5 -1 -10 4
-10 6 0 11 -7 11 -16 0 -8 5 -12 10 -9 6 3 10 -2 11 -12 0 -10 5 -3 10 15 11
37 7 67 -4 38z"/>
<path d="M2673 2405 c0 -22 2 -30 4 -17 2 12 2 30 0 40 -3 9 -5 -1 -4 -23z"/>
<path d="M1729 2361 c23 -25 27 -27 38 -12 7 9 12 21 12 26 0 6 -6 2 -13 -7
-12 -17 -14 -17 -31 2 -10 11 -21 20 -25 20 -4 0 4 -13 19 -29z"/>
<path d="M1320 2351 c0 -26 10 -51 21 -51 5 0 9 10 9 23 0 18 -2 19 -11 7 -8
-12 -9 -9 -5 13 4 15 2 27 -4 27 -5 0 -10 -9 -10 -19z"/>
<path d="M2810 2350 c0 -7 3 -10 7 -7 3 4 3 10 0 14 -4 3 -7 0 -7 -7z"/>
<path d="M1363 2298 c1 -33 -4 -53 -18 -68 -23 -25 -55 -27 -55 -2 0 29 -36
58 -44 37 -9 -23 -8 -25 9 -19 26 10 20 -62 -7 -80 -25 -18 -73 -22 -63 -6 4
6 16 8 28 4 20 -6 21 -5 7 11 -14 17 -13 17 6 7 19 -10 23 -9 27 8 3 13 -1 21
-14 25 -11 4 -31 24 -46 46 -28 42 -58 51 -68 19 -6 -19 24 -74 50 -92 17 -12
-56 -9 -92 4 -45 16 -106 -11 -101 -45 2 -12 -3 -27 -11 -33 -32 -25 22 -35
101 -19 40 9 92 15 117 13 35 -1 47 3 63 22 12 15 34 26 63 30 43 6 45 6 45
-17 0 -14 -4 -21 -10 -18 -6 4 -10 -12 -10 -41 0 -38 2 -44 14 -35 10 9 16 8
26 -4 14 -16 105 -21 114 -6 3 4 37 6 76 3 62 -4 70 -3 64 11 -3 9 1 24 10 32
11 12 14 28 10 63 -8 68 -10 72 -44 72 -33 0 -36 9 -19 59 6 18 9 34 6 37 -3
3 -13 -21 -22 -53 -10 -32 -20 -65 -23 -73 -3 -9 -10 4 -19 30 -10 34 -11 50
-2 66 6 12 9 30 6 40 -4 17 -5 17 -6 -1 -1 -19 -6 -21 -66 -17 -65 4 -65 4
-65 -24 0 -34 -11 -24 -27 24 -12 37 -12 37 -10 -10z m89 -20 c-9 -9 -15 -9
-24 0 -9 9 -7 12 12 12 19 0 21 -3 12 -12z m48 3 c0 -17 -18 -21 -24 -6 -3 9
0 15 9 15 8 0 15 -4 15 -9z m-320 -31 c0 -5 -8 -7 -17 -6 -10 2 -17 6 -15 9 1
4 2 12 2 18 0 8 5 8 15 -1 8 -7 15 -16 15 -20z m5 -40 c3 -5 4 -10 1 -10 -3 0
-8 5 -11 10 -3 6 -4 10 -1 10 3 0 8 -4 11 -10z m445 -10 c0 -5 -12 -10 -26
-10 -14 0 -23 4 -19 10 3 6 15 10 26 10 10 0 19 -4 19 -10z m-305 -20 c-3 -5
-16 -10 -28 -9 -21 0 -21 1 -2 9 28 12 37 12 30 0z m-200 -18 c53 -12 26 -24
-55 -26 -65 -1 -79 6 -59 30 13 16 28 16 114 -4z m515 -11 c0 -24 -3 -28 -20
-24 -23 6 -27 23 -5 23 8 0 15 7 15 15 0 8 2 15 5 15 3 0 5 -13 5 -29z m-78
-15 c14 4 18 2 14 -5 -13 -21 -46 -13 -45 12 1 17 2 18 6 4 3 -13 10 -16 25
-11z m-73 -13 c0 -28 0 -28 -11 -3 -6 14 -12 20 -14 15 -5 -13 -74 -7 -74 6 0
5 23 9 50 9 48 0 50 -1 49 -27z m-242 10 c-4 -3 -10 -3 -14 0 -3 4 0 7 7 7 7
0 10 -3 7 -7z m-110 -10 c-4 -3 -10 -3 -14 0 -3 4 0 7 7 7 7 0 10 -3 7 -7z
m-40 -10 c-4 -3 -10 -3 -14 0 -3 4 0 7 7 7 7 0 10 -3 7 -7z"/>
<path d="M1670 2330 c0 -7 3 -10 7 -7 3 4 3 10 0 14 -4 3 -7 0 -7 -7z"/>
<path d="M1844 2318 c-4 -7 -3 -8 4 -4 12 7 16 16 8 16 -3 0 -8 -5 -12 -12z"/>
<path d="M1760 2310 c0 -5 5 -10 11 -10 5 0 7 5 4 10 -3 6 -8 10 -11 10 -2 0
-4 -4 -4 -10z"/>
<path d="M1915 2290 c-3 -6 1 -7 9 -4 18 7 21 14 7 14 -6 0 -13 -4 -16 -10z"/>
<path d="M2660 2290 c0 -7 3 -10 7 -7 3 4 3 10 0 14 -4 3 -7 0 -7 -7z"/>
<path d="M1342 2265 c0 -16 2 -22 5 -12 2 9 2 23 0 30 -3 6 -5 -1 -5 -18z"/>
<path d="M1982 2253 c-41 -41 -65 -46 -182 -38 -85 5 -111 4 -105 -5 4 -7 17
-9 31 -6 26 7 34 -8 9 -18 -8 -3 -15 -11 -15 -18 0 -8 3 -9 8 -3 4 6 23 12 42
14 19 2 38 8 41 13 15 24 145 -13 135 -37 -7 -19 -1 -19 30 1 19 13 38 15 89
10 56 -6 65 -4 65 10 0 12 -6 14 -29 9 -18 -4 -32 -2 -36 5 -6 9 -10 9 -16 -1
-6 -10 -9 -11 -9 -1 0 8 -18 12 -52 13 -41 0 -48 2 -31 9 12 5 26 18 32 29 6
11 21 22 33 24 23 4 23 4 1 6 -13 0 -31 -7 -41 -16z m45 -69 c-3 -3 -12 -4
-19 -1 -8 3 -5 6 6 6 11 1 17 -2 13 -5z"/>
<path d="M2186 2248 c-9 -12 -16 -28 -16 -35 0 -6 -7 -19 -16 -27 -14 -15 -12
-16 20 -16 36 0 58 22 49 47 -5 14 -33 6 -33 -9 0 -6 8 -7 18 -3 14 5 15 4 5
-6 -10 -10 -16 -10 -24 -2 -13 13 6 57 22 48 5 -4 9 1 9 9 0 23 -16 20 -34 -6z"/>
<path d="M2650 2219 c0 -16 -4 -28 -8 -25 -4 2 -9 -4 -9 -15 -1 -11 3 -17 8
-13 6 3 8 -4 5 -18 -3 -12 -8 -49 -11 -81 -4 -31 -10 -55 -13 -53 -4 2 -5 -16
-3 -41 4 -57 -8 -155 -19 -148 -4 3 -11 -2 -14 -11 -8 -21 -9 -20 13 -20 22 0
23 8 41 186 23 236 26 270 18 270 -4 0 -8 -14 -8 -31z"/>
<path d="M2040 2229 c0 -8 37 -19 63 -19 35 0 16 18 -23 22 -22 2 -40 1 -40
-3z"/>
<path d="M2750 2230 c0 -7 3 -10 7 -7 3 4 3 10 0 14 -4 3 -7 0 -7 -7z"/>
<path d="M1738 2149 c-65 -37 34 -48 257 -29 83 7 78 8 -58 6 -134 -1 -147 1
-147 17 0 19 -25 22 -52 6z"/>
<path d="M2310 2147 c0 -4 19 -24 43 -46 27 -26 36 -41 26 -41 -19 0 -65 -47
-56 -57 4 -3 7 -2 7 4 0 14 61 53 72 47 14 -9 9 -34 -6 -28 -9 3 -19 -8 -29
-33 -8 -21 -22 -47 -30 -57 -13 -18 -15 -17 -21 19 -4 22 -16 56 -27 77 -10
20 -19 46 -19 57 0 11 -4 23 -10 26 -15 9 -12 -21 6 -63 31 -71 55 -153 48
-163 -4 -8 1 -9 15 -4 22 7 101 -35 101 -53 0 -5 22 -23 48 -40 43 -28 55 -31
98 -26 43 5 57 2 119 -31 101 -53 176 -107 171 -121 -3 -7 2 -14 11 -16 9 -2
18 -12 19 -23 2 -11 7 -45 13 -75 10 -52 10 -51 5 25 -3 44 -11 86 -17 94 -20
23 107 8 277 -33 82 -20 154 -35 160 -33 6 3 0 7 -14 11 -14 3 -83 20 -155 37
-75 19 -164 34 -209 35 -69 3 -85 7 -120 33 -104 74 -193 112 -255 109 -63 -3
-76 4 -170 90 -28 25 -50 38 -60 35 -9 -4 -14 -3 -11 0 30 39 61 75 88 103 37
37 37 58 0 90 -22 19 -22 19 0 -13 26 -36 28 -53 7 -53 -8 0 -15 6 -15 13 0 7
-17 29 -37 48 -47 43 -73 63 -73 56z m73 -172 c-9 -19 -18 -33 -21 -31 -4 5
26 66 33 66 3 0 -3 -16 -12 -35z"/>
<path d="M2108 2133 c6 -2 18 -2 25 0 6 3 1 5 -13 5 -14 0 -19 -2 -12 -5z"/>
<path d="M2812 2120 c0 -14 3 -45 7 -70 8 -45 8 -45 9 -5 0 22 -4 54 -8 70 -7
27 -8 28 -8 5z"/>
<path d="M2186 2116 c3 -9 2 -16 -2 -16 -102 -3 -295 -15 -313 -20 -14 -3 45
-4 130 -2 84 2 167 8 182 14 27 11 32 28 9 36 -7 2 -10 -2 -6 -12z"/>
<path d="M2740 2100 c0 -7 3 -10 7 -7 3 4 3 10 0 14 -4 3 -7 0 -7 -7z"/>
<path d="M855 2044 c11 -9 27 -21 35 -27 29 -23 50 -67 53 -109 1 -28 10 -52
25 -68 20 -22 61 -99 84 -155 39 -99 48 -139 50 -214 1 -45 5 -84 8 -86 20
-12 0 193 -24 253 -25 62 -25 62 -3 73 12 6 37 25 54 42 19 17 62 40 100 53
75 25 65 32 -13 9 -27 -8 -71 -33 -98 -55 -45 -38 -76 -50 -76 -32 0 5 -20 40
-45 78 -30 47 -45 80 -45 103 0 55 -50 123 -105 144 -20 7 -20 7 0 -9z"/>
<path d="M1793 2052 c-18 -2 -33 -7 -33 -13 0 -14 58 -11 63 4 3 7 6 5 6 -5 1
-11 6 -15 16 -12 21 8 19 33 -2 31 -10 -1 -33 -3 -50 -5z"/>
<path d="M2730 2044 c-1 -10 -7 -73 -14 -139 -13 -115 -14 -157 -2 -98 10 51
27 245 21 251 -3 3 -5 -3 -5 -14z"/>
<path d="M1680 2041 c0 -5 12 -11 28 -15 15 -3 38 -9 52 -12 44 -12 14 7 -34
21 -25 8 -46 10 -46 6z"/>
<path d="M955 2010 c3 -5 16 -10 28 -9 21 0 21 1 2 9 -28 12 -37 12 -30 0z"/>
<path d="M2802 2000 c0 -14 2 -19 5 -12 2 6 2 18 0 25 -3 6 -5 1 -5 -13z"/>
<path d="M2600 1980 c0 -7 3 -10 7 -7 3 4 3 10 0 14 -4 3 -7 0 -7 -7z"/>
<path d="M2796 1954 c-3 -9 -11 -59 -17 -112 -6 -53 -13 -101 -16 -107 -4 -7
-2 -7 5 0 6 6 16 51 22 100 6 50 14 100 17 113 6 25 -2 30 -11 6z"/>
<path d="M2601 1934 c0 -11 3 -14 6 -6 3 7 2 16 -1 19 -3 4 -6 -2 -5 -13z"/>
<path d="M3218 1933 c6 -2 18 -2 25 0 6 3 1 5 -13 5 -14 0 -19 -2 -12 -5z"/>
<path d="M3263 1923 c4 -3 10 -3 14 0 3 4 0 7 -7 7 -7 0 -10 -3 -7 -7z"/>
<path d="M2600 1900 c0 -7 3 -10 7 -7 3 4 3 10 0 14 -4 3 -7 0 -7 -7z"/>
<path d="M2075 1860 c-10 -11 -14 -20 -8 -20 5 0 18 9 28 20 10 11 14 20 8 20
-5 0 -18 -9 -28 -20z"/>
<path d="M2240 1870 c0 -5 8 -13 18 -19 16 -9 16 -11 -3 -25 -11 -9 -31 -19
-45 -22 -53 -12 -53 -18 0 -24 31 -4 85 -17 120 -28 36 -12 85 -24 110 -27 72
-8 102 -16 142 -36 21 -11 43 -19 50 -19 51 2 -148 71 -209 73 -7 0 -10 4 -8
8 6 9 -109 100 -147 116 -16 7 -28 8 -28 3z m112 -76 c27 -20 47 -38 44 -41
-2 -2 -41 6 -86 18 -82 23 -82 23 -58 41 32 25 44 23 100 -18z"/>
<path d="M2918 1873 c7 -3 16 -2 19 1 4 3 -2 6 -13 5 -11 0 -14 -3 -6 -6z"/>
<path d="M2960 1872 c18 -12 130 -36 136 -29 3 2 -23 10 -57 16 -33 7 -68 15
-78 17 -13 5 -14 4 -1 -4z"/>
<path d="M3175 1830 c19 -8 83 -14 74 -6 -2 2 -24 6 -49 9 -30 4 -38 3 -25 -3z"/>
<path d="M1681 1821 c-7 -5 -21 -7 -31 -4 -9 3 -24 -2 -31 -10 -24 -23 -88
-26 -148 -5 -88 29 -93 20 -7 -12 72 -27 143 -42 91 -20 -18 8 -18 9 -2 9 11
1 21 -7 24 -17 2 -10 25 -29 51 -44 66 -37 87 -62 122 -148 43 -102 41 -134
-12 -245 -19 -40 -19 -40 5 -11 18 21 26 25 31 15 3 -8 4 -1 1 14 -4 19 -2 26
5 22 6 -3 10 4 10 17 1 13 3 39 6 59 9 61 -47 195 -103 246 -45 41 -45 41 -27
67 17 24 25 26 80 25 33 -1 66 1 72 5 6 3 13 2 17 -4 3 -5 11 -10 16 -10 6 0
7 5 4 10 -3 6 0 10 9 10 8 0 17 -6 19 -12 4 -10 6 -10 6 0 1 6 13 12 29 13 15
0 36 4 47 9 19 8 -20 7 -210 -5 -78 -5 -87 -1 -57 21 19 15 5 19 -17 5z m-26
-21 c-3 -5 -14 -10 -23 -10 -15 0 -15 2 -2 10 20 13 33 13 25 0z m-2 -45 c-10
-13 -21 -25 -24 -25 -11 0 -32 30 -25 37 3 3 6 1 6 -5 0 -7 4 -12 10 -12 5 0
7 7 4 15 -5 11 1 15 20 15 27 0 27 0 9 -25z"/>
<path d="M2043 1792 c0 -14 -9 -32 -19 -39 -10 -7 -12 -13 -6 -13 13 0 17 -96
5 -103 -5 -2 -39 -2 -76 1 -65 4 -69 6 -82 36 -14 31 -14 31 -8 -1 5 -29 3
-33 -18 -34 -18 -1 -15 -3 11 -9 19 -5 38 -6 43 -3 21 13 137 -9 137 -25 0 -9
9 -30 20 -47 11 -16 30 -45 41 -62 18 -29 26 -33 65 -33 39 0 44 -3 45 -22 1
-19 2 -20 6 -5 3 12 11 17 21 14 10 -3 45 -13 79 -22 46 -13 64 -24 69 -39 4
-12 12 -28 20 -36 13 -16 9 -60 -6 -60 -4 0 -18 9 -31 19 -45 35 -144 91 -161
91 -19 0 -187 91 -188 102 0 4 15 2 32 -3 42 -12 44 -11 30 3 -7 7 -35 12 -63
13 -39 0 -54 4 -60 18 -5 9 -13 25 -17 34 -5 9 -15 19 -23 22 -9 3 -8 -1 4
-13 30 -30 22 -51 -10 -26 -102 79 -131 123 -119 181 3 19 2 28 -4 24 -13 -8
-13 -64 0 -102 12 -34 121 -126 176 -149 34 -14 49 -29 17 -17 -11 4 -14 3 -9
-5 4 -7 13 -12 20 -12 7 0 21 -9 31 -20 10 -11 23 -20 29 -20 6 0 -2 11 -19
25 -38 31 -22 32 30 1 22 -14 64 -37 93 -52 28 -16 52 -32 52 -36 0 -4 5 -8
11 -8 5 0 7 5 4 10 -12 19 12 10 53 -19 22 -17 43 -39 47 -50 3 -12 10 -21 15
-21 5 0 7 8 4 18 -4 12 1 10 16 -7 14 -17 19 -32 15 -48 -3 -15 1 -34 12 -51
64 -97 69 -110 54 -134 -7 -11 -10 -22 -7 -25 3 -3 8 2 12 11 3 9 10 14 15 11
4 -3 5 -13 2 -22 -4 -9 -2 -14 3 -10 5 3 17 -8 26 -24 17 -29 17 -29 -4 -18
-19 10 -20 9 -14 -15 6 -25 2 -29 -49 -51 -67 -30 -77 -31 -100 -5 -10 11 -20
18 -23 16 -2 -3 -26 13 -53 34 -27 21 -65 44 -86 51 -20 6 -50 20 -67 30 -44
25 -112 46 -178 54 -41 4 -67 14 -94 36 -40 32 -44 33 -44 20 0 -19 89 -60
149 -70 35 -6 93 -24 129 -40 37 -16 78 -33 92 -37 33 -8 126 -78 140 -104 6
-11 15 -18 19 -15 12 7 41 -74 41 -112 0 -71 -41 -185 -76 -214 -13 -10 -10 0
10 36 27 50 27 50 2 20 -14 -16 -33 -44 -41 -61 -15 -32 -73 -64 -117 -64 -38
0 -132 51 -185 101 -28 27 -58 49 -66 49 -8 0 -47 17 -88 38 -41 21 -94 44
-119 51 -25 7 -60 21 -78 32 -18 10 -44 19 -57 19 -52 0 -58 13 -14 27 50 17
119 61 119 76 0 6 -8 3 -17 -5 -25 -22 -96 -56 -127 -62 -14 -2 -30 -7 -35
-10 -20 -13 -84 21 -110 59 -14 21 -30 38 -36 38 -5 0 -24 12 -42 27 -17 16
-57 36 -88 45 -31 8 -58 22 -62 30 -3 8 -9 15 -15 15 -5 0 -6 -5 -2 -12 5 -8
0 -9 -17 -5 -15 4 -30 0 -41 -10 -27 -24 -22 -6 7 25 17 18 25 38 25 64 0 20
4 38 9 40 5 2 11 38 14 80 5 87 -7 97 -17 14 -16 -124 -56 -206 -133 -270
-127 -105 -509 -30 -642 127 -14 17 -32 38 -39 46 -11 13 -12 13 -6 1 4 -8 13
-22 21 -32 13 -14 7 -25 -50 -100 -118 -154 -248 -375 -212 -362 7 3 24 31 36
62 37 90 237 381 252 366 8 -8 -2 -35 -21 -56 -18 -22 -13 -22 23 -4 65 34 64
6 -3 -98 -63 -98 -128 -273 -93 -251 6 3 11 16 11 28 1 35 44 131 102 227 53
88 53 88 80 72 35 -21 35 -21 -11 -100 -21 -37 -44 -92 -52 -122 -7 -30 -19
-67 -26 -82 -7 -16 -9 -28 -4 -28 10 0 23 33 46 113 19 68 20 69 117 65 75 -3
75 -3 44 -86 -31 -82 -31 -82 -91 -82 -103 0 -148 -40 -302 -268 -31 -46 -71
-102 -89 -124 -39 -46 -46 -76 -15 -56 11 7 17 16 14 21 -3 5 6 21 19 35 14
15 62 81 106 147 137 201 177 235 278 235 58 0 58 0 27 -32 -16 -18 -49 -58
-72 -89 -42 -57 -42 -57 -93 -38 -67 24 -73 18 -9 -9 50 -21 50 -21 0 -104
-35 -59 -54 -82 -67 -80 -13 2 -14 1 -4 -6 16 -11 -43 -116 -59 -107 -5 4 -6
-1 -3 -9 3 -9 -3 -19 -16 -26 -11 -6 -18 -15 -15 -21 7 -11 -28 -72 -58 -100
-21 -19 -21 -19 1 -19 12 0 22 5 22 11 0 6 13 29 28 52 33 48 65 99 112 177
102 169 132 213 139 203 18 -27 124 -113 139 -113 14 1 14 3 -4 13 -12 7 -47
35 -79 64 -57 51 -58 53 -42 75 9 13 24 34 34 48 9 14 34 43 55 66 37 39 42
41 79 34 22 -4 46 -16 54 -26 14 -18 14 -18 15 1 0 17 3 15 18 -10 11 -16 26
-36 36 -44 9 -8 30 -33 46 -57 29 -43 29 -43 -31 -159 -32 -64 -68 -130 -80
-147 -22 -30 -22 -30 -40 -1 -13 18 -19 23 -19 12 0 -9 7 -22 15 -29 20 -17
19 -49 -4 -84 -20 -30 -20 -30 -31 -4 -7 13 -25 32 -40 42 -32 18 -33 13 15
111 36 74 32 70 50 55 8 -7 15 -9 15 -5 0 4 -7 13 -15 19 -14 10 -12 17 16 54
24 32 34 40 44 32 17 -14 77 -31 70 -20 -3 5 -21 14 -40 20 -44 14 -44 24 0
79 32 40 42 61 31 61 -2 0 -14 -15 -25 -32 -52 -81 -58 -85 -94 -51 -32 31
-103 73 -122 73 -5 -1 4 -9 21 -18 49 -26 123 -86 124 -98 0 -6 -14 -30 -31
-54 -17 -23 -44 -74 -59 -113 -16 -38 -33 -74 -37 -78 -4 -4 -45 19 -91 51
-46 33 -89 60 -95 60 -6 0 6 -12 28 -27 22 -15 59 -41 82 -59 23 -18 47 -34
54 -36 17 -6 -4 -59 -33 -85 -19 -17 -20 -17 -29 0 -6 9 -16 17 -23 17 -8 0
-21 11 -30 25 -9 14 -20 24 -24 23 -4 -1 -26 8 -50 20 -23 12 -42 19 -42 14 0
-5 12 -14 26 -21 22 -9 59 -36 153 -108 2 -1 -2 -9 -9 -18 -7 -8 -9 -15 -6
-15 14 0 43 36 66 83 14 26 27 47 30 47 11 -1 46 -36 53 -52 3 -10 11 -18 17
-18 6 0 2 -14 -10 -30 -12 -17 -16 -30 -10 -30 6 0 13 6 16 14 3 8 12 12 20 9
10 -4 12 0 8 11 -4 11 2 26 16 42 22 23 24 23 41 7 33 -33 50 -45 56 -40 3 3
-14 24 -38 46 -43 40 -43 40 -5 95 44 64 45 64 75 32 13 -14 40 -28 62 -31 48
-8 48 -13 0 -101 -43 -78 -49 -74 81 -60 16 1 29 -3 32 -11 3 -7 11 -13 17
-13 8 0 9 4 0 13 -6 8 -8 17 -4 20 3 4 -26 5 -65 2 -77 -6 -78 -5 -61 27 9 17
13 18 21 7 7 -11 9 -9 5 7 -2 12 2 32 9 45 26 47 18 66 -33 78 -26 7 -58 24
-71 38 -23 26 -23 26 7 87 16 33 37 70 45 81 15 20 15 20 16 -2 0 -13 4 -23 8
-23 13 0 42 -68 42 -98 0 -15 5 -34 10 -42 16 -25 11 61 -5 90 -19 34 -18 49
2 57 20 7 42 33 43 47 0 6 -9 1 -20 -10 -50 -50 -70 -53 -70 -13 0 16 4 19 23
13 16 -5 12 3 -18 29 -40 37 -37 45 9 27 21 -7 26 -6 26 5 0 8 6 12 12 10 27
-9 102 -14 108 -7 3 4 25 2 50 -4 25 -7 36 -13 25 -14 -17 -1 -17 -3 5 -11 29
-12 65 5 117 54 20 18 36 26 44 21 9 -5 8 -9 -7 -14 -12 -5 -4 -8 24 -8 29 -1
42 3 39 11 -2 7 -11 11 -19 9 -9 -1 -18 4 -22 13 -4 10 1 15 15 15 11 0 17 5
14 10 -3 6 -20 10 -37 10 -17 0 -28 -3 -25 -6 11 -11 -13 -44 -51 -69 -33 -21
-42 -23 -74 -15 -20 6 -40 10 -45 8 -31 -8 -65 26 -46 46 4 4 8 13 8 19 0 7 8
41 17 77 10 36 21 83 27 105 8 33 9 35 8 10 -1 -33 15 -68 45 -102 25 -27 43
-100 28 -118 -9 -10 -19 -10 -57 1 -41 12 -77 12 -42 0 112 -40 118 -38 120
41 1 31 2 34 8 13 3 -14 14 -26 24 -27 12 0 16 4 13 13 -4 10 6 16 33 20 21 3
56 17 77 30 93 55 117 66 143 60 26 -6 26 -6 3 7 -21 12 -21 14 -5 32 15 16
15 17 1 6 -21 -15 -33 2 -13 19 18 15 82 24 104 14 9 -4 25 -8 36 -10 46 -8
55 -10 61 -17 4 -4 17 -7 28 -7 25 0 126 -49 144 -70 8 -9 11 -32 8 -58 -2
-28 0 -40 6 -34 5 5 10 26 11 46 2 42 9 43 71 16 35 -15 46 -25 46 -42 0 -16
3 -19 8 -10 7 9 13 7 28 -9 10 -12 55 -38 98 -58 80 -37 80 -37 45 -54 -20
-10 -27 -17 -16 -17 10 0 39 11 65 24 90 45 115 49 208 36 47 -7 83 -14 81
-16 -5 -5 -140 -42 -217 -60 -40 -9 -47 -13 -25 -13 17 -1 62 8 100 20 198 58
224 61 247 34 10 -11 17 -15 18 -8 0 6 -4 15 -10 18 -17 10 -11 23 13 28 12 2
0 2 -28 -1 -69 -7 -79 -7 -168 9 -78 13 -78 13 -40 50 35 35 83 52 83 29 0 -5
-6 -10 -12 -10 -7 0 -3 -6 8 -13 12 -6 31 -18 43 -25 25 -15 27 -10 5 12 -26
26 7 20 50 -9 42 -29 55 -32 32 -9 -9 8 -16 22 -16 31 0 9 -6 13 -15 9 -9 -3
-18 1 -22 9 -3 10 -12 13 -23 10 -10 -3 -21 -1 -25 5 -4 6 6 10 26 10 57 0 24
10 -38 12 -55 2 -60 4 -50 19 10 16 12 16 23 1 11 -15 14 -15 33 3 37 33 126
33 196 -1 49 -23 56 -29 39 -35 -18 -7 -18 -8 3 -8 12 -1 27 -10 33 -21 9 -16
8 -18 -5 -14 -8 3 -12 11 -8 18 3 6 -3 2 -15 -8 -17 -14 -22 -16 -22 -5 0 12
-2 12 -9 0 -5 -8 -17 -11 -32 -7 -23 7 -23 7 -5 -8 11 -9 15 -16 10 -16 -6 0
-11 -6 -11 -14 0 -16 45 -15 87 2 39 15 42 14 94 -41 27 -29 46 -44 42 -34 -4
13 -2 17 6 14 7 -2 12 -10 10 -17 -2 -8 6 -11 23 -8 22 5 23 3 13 -10 -8 -10
-8 -13 -2 -9 7 4 17 0 24 -7 6 -8 24 -17 39 -21 15 -3 45 -23 66 -44 22 -21
49 -43 60 -49 13 -7 15 -11 6 -12 -8 0 -26 10 -39 22 -20 18 -24 19 -19 6 11
-30 -12 -30 -27 1 -15 29 -85 91 -103 91 -19 0 -9 -26 11 -28 11 0 33 -15 49
-32 31 -33 30 -55 -1 -27 -10 10 -22 17 -27 17 -14 0 19 -32 42 -41 13 -5 23
-15 23 -23 0 -14 -81 -66 -102 -66 -6 0 -26 -13 -44 -30 -19 -16 -47 -33 -62
-36 -36 -9 -99 -41 -107 -55 -4 -6 12 -1 35 11 24 12 61 28 83 36 22 8 47 23
54 34 8 11 19 20 25 20 6 0 41 14 77 31 97 47 142 53 188 28 38 -21 38 -21 8
6 -21 19 -24 24 -8 16 12 -6 28 -8 36 -5 9 3 28 -2 44 -11 27 -15 27 -15 3
-10 -23 6 -23 5 -5 -6 29 -17 65 -51 65 -61 0 -5 -4 -6 -10 -3 -5 3 -10 -1
-10 -9 0 -12 10 -16 41 -16 28 0 38 -4 33 -12 -5 -8 -2 -9 12 -3 31 13 67 12
96 -2 36 -17 38 -17 38 12 0 14 -6 25 -12 25 -9 0 -8 4 2 11 12 8 10 9 -8 4
-28 -8 -124 44 -166 89 -27 29 -27 30 -12 4 20 -34 14 -34 -67 -4 -94 35 -146
64 -180 99 -16 18 -26 25 -22 17 5 -8 4 -12 0 -8 -8 8 -45 105 -45 119 0 11
192 -38 205 -53 18 -19 34 -73 26 -87 -7 -11 -73 6 -106 27 -6 4 -2 -1 8 -10
10 -10 38 -23 60 -30 23 -6 47 -18 53 -25 7 -8 13 -10 15 -4 3 7 26 7 71 -2
66 -12 69 -14 103 -65 20 -28 40 -52 45 -52 6 0 -3 19 -20 42 -16 22 -30 47
-30 55 0 7 -6 24 -14 36 -20 32 -31 117 -15 117 8 0 7 5 -4 13 -13 10 -17 36
-20 139 -4 123 -15 167 -39 152 -5 -3 -5 -11 2 -19 14 -17 -6 -31 -23 -16 -8
6 -18 6 -27 1 -8 -6 -27 -10 -42 -10 -23 0 -26 3 -22 28 3 18 -1 34 -11 42
-16 13 -21 45 -6 36 5 -4 11 -2 13 3 1 5 32 11 68 15 37 3 57 2 46 -2 -19 -8
-19 -9 0 -16 18 -7 18 -8 -3 -24 -23 -17 -23 -17 7 -18 26 -1 30 2 30 25 0 15
5 32 10 37 7 7 6 24 -5 53 -8 24 -14 63 -13 87 3 44 3 44 48 39 45 -5 45 -5 2
8 -24 7 -48 20 -53 30 -13 23 -28 22 -22 -2 3 -13 -1 -21 -14 -24 -16 -4 -16
-5 2 -6 17 -1 20 -8 19 -48 -1 -27 5 -60 12 -74 18 -37 5 -45 -80 -54 -51 -6
-67 -5 -62 4 7 11 -12 86 -20 78 -2 -2 1 -18 7 -36 15 -42 15 -41 -93 -57 -51
-8 -107 -17 -124 -20 -31 -6 -31 -6 -44 87 -11 83 -11 94 4 104 22 17 20 34
-4 28 -11 -3 -17 -10 -13 -16 4 -6 0 -8 -10 -4 -9 3 -19 2 -23 -4 -3 -6 -31
-9 -62 -8 -72 3 -137 -8 -153 -27 -26 -32 -48 -10 -73 74 -7 20 -4 22 26 22
18 0 67 6 108 14 82 16 90 14 72 -14 -14 -23 -16 -64 -3 -56 5 3 12 18 16 33
3 15 12 31 18 35 8 5 7 16 -5 41 -17 35 -17 35 35 30 83 -6 97 -11 97 -34 0
-20 -4 -21 -52 -16 -35 4 -44 3 -28 -3 14 -4 39 -9 55 -10 17 -1 25 -4 18 -6
-7 -3 -9 -12 -6 -20 7 -19 23 -18 23 1 0 21 58 20 82 -2 10 -9 18 -11 18 -5 0
6 7 9 15 6 8 -4 12 -10 9 -15 -3 -5 2 -9 10 -9 9 0 16 5 16 10 0 6 6 10 14 10
33 0 21 15 -12 17 -129 8 -152 14 -152 39 0 25 1 25 63 19 34 -4 89 -13 122
-20 86 -20 154 -28 205 -26 25 1 61 -3 80 -9 22 -6 38 -6 44 0 12 12 -7 28
-76 67 -27 14 -48 32 -48 40 0 7 -4 13 -10 13 -10 0 -14 112 -5 122 3 3 33 0
66 -7 34 -7 57 -9 52 -4 -5 5 -29 13 -53 17 -40 7 -46 11 -60 47 -21 57 -60
128 -66 122 -3 -3 8 -32 25 -64 38 -71 41 -97 9 -87 -13 4 -36 7 -53 8 -23 1
-33 8 -45 31 -15 30 -15 30 -18 2 -3 -25 -6 -27 -35 -23 -18 3 -66 11 -107 17
-44 7 -80 18 -88 28 -12 14 -13 14 -10 -4 3 -20 56 -35 180 -49 55 -7 57 -8
67 -44 10 -37 10 -37 8 -2 -1 26 2 34 13 31 14 -3 61 -9 86 -10 6 -1 10 -26
10 -63 0 -35 2 -70 4 -78 3 -8 0 -14 -7 -13 -7 2 -10 -4 -7 -12 4 -8 2 -15 -4
-15 -5 0 -12 -9 -15 -20 -5 -21 -29 -25 -85 -14 -31 6 -31 6 -12 55 23 56 22
57 -53 60 -31 1 -57 7 -57 12 0 5 -6 4 -13 -2 -8 -6 -16 -9 -18 -6 -4 3 -46
10 -91 14 -5 1 -8 9 -8 19 -1 16 -1 16 -14 0 -11 -15 -23 -17 -78 -11 -72 6
-69 2 -52 91 4 19 2 32 -4 32 -6 0 -8 -9 -5 -20 3 -11 0 -27 -7 -35 -7 -8 -10
-21 -7 -29 10 -25 -17 -38 -49 -25 -16 7 -35 11 -42 10 -7 -1 -12 2 -11 6 3
18 -2 27 -9 16 -12 -19 -99 14 -106 40 -16 60 -13 62 76 61 46 -1 61 1 33 2
-122 9 -115 2 -115 119 0 57 3 105 8 107 4 2 5 19 1 38 -5 35 -5 35 -13 -2 -8
-39 -23 -42 -118 -23 -35 6 -41 -29 -26 -133 14 -91 9 -95 -72 -71 -75 23
-113 59 -135 129 -12 39 -14 41 -14 16 -1 -16 10 -49 24 -73 26 -43 26 -43 -4
-43 -17 0 -35 6 -41 13 -95 112 -95 137 -2 138 37 0 90 4 117 9 50 7 50 7 -17
9 -68 1 -68 1 -69 34 -2 32 -2 32 -8 -3 -6 -34 -7 -35 -51 -35 -45 1 -45 1
-48 44 -4 55 1 60 71 62 36 1 57 6 57 14 0 8 -15 9 -52 4 -63 -8 -70 -5 -62
26 3 12 2 25 -3 28 -4 3 -9 -7 -10 -21z m435 -168 c21 -6 22 -11 22 -105 0
-99 0 -99 -55 -96 -30 2 -57 5 -59 8 -3 2 -8 48 -12 102 -7 97 -7 97 37 97 24
0 54 -3 67 -6z m16 -227 c-3 -8 0 -26 5 -40 10 -26 10 -27 -29 -27 -30 0 -43
6 -59 26 -34 44 -28 54 34 54 41 0 53 -3 49 -13z m93 -112 c58 -19 112 -35
119 -35 17 0 19 -51 2 -68 -16 -16 -159 -16 -193 0 -30 14 -34 60 -8 92 13 16
11 15 -9 -3 -15 -13 -25 -28 -22 -32 10 -17 -11 -8 -38 16 -31 27 -34 35 -16
53 19 19 52 14 165 -23z m-144 -52 c33 -35 70 -119 64 -144 -3 -10 -1 -21 4
-24 8 -6 31 -79 32 -102 1 -22 53 -19 78 3 9 8 47 16 90 19 41 3 88 8 104 10
30 5 30 5 30 -43 1 -26 4 -71 9 -99 9 -53 9 -53 -37 -53 -65 0 -80 29 -86 158
-1 6 -5 12 -10 12 -12 0 -1 -99 15 -139 8 -19 12 -36 9 -39 -8 -8 -117 -6
-137 3 -23 9 -55 66 -61 107 -2 19 -16 52 -31 75 -30 45 -50 103 -35 103 6 0
6 5 -1 13 -5 6 -20 25 -31 40 -17 22 -24 26 -31 15 -7 -9 -8 -7 -3 8 3 13 -1
26 -10 34 -19 15 -20 70 -2 70 7 0 25 -12 40 -27z m423 0 c10 -4 10 -10 2 -29
-6 -13 -8 -27 -4 -31 10 -10 26 17 26 46 0 17 4 22 16 17 9 -3 60 -9 114 -12
123 -8 126 -10 103 -58 -16 -35 -20 -38 -53 -32 -19 3 -43 6 -52 6 -15 0 -16
4 -7 26 5 15 7 29 5 32 -5 4 -8 -2 -20 -41 -3 -11 -17 -12 -68 -5 -34 5 -79
10 -98 12 -77 8 -90 15 -90 53 0 35 0 35 57 28 31 -4 62 -9 69 -12z m-179 -79
c50 -5 75 -25 51 -40 -18 -11 -130 -33 -170 -34 -34 0 -37 3 -51 43 -14 43
-14 43 52 40 36 -2 89 -6 118 -9z m653 -18 c7 -9 18 -16 24 -16 6 0 22 -9 36
-20 25 -19 25 -19 -25 -4 -88 28 -89 28 -81 16 5 -8 0 -12 -13 -12 -20 0 -20
1 -3 34 18 35 33 36 62 2z m-2263 -163 c-4 -3 -10 -3 -14 0 -3 4 0 7 7 7 7 0
10 -3 7 -7z m136 -27 c84 -34 136 -150 106 -234 -15 -42 -94 -95 -131 -88 -16
3 -28 1 -28 -5 0 -6 -5 -7 -10 -4 -6 4 -8 11 -5 16 4 5 -4 9 -17 9 -18 0 -20
-2 -8 -10 13 -8 12 -10 -2 -10 -10 0 -18 7 -18 15 0 7 -6 18 -13 22 -8 4 -27
27 -42 51 -26 40 -28 47 -22 123 6 90 15 106 68 119 52 12 87 11 122 -4z
m-709 -18 c41 -13 41 -13 -9 -19 -49 -6 -49 -6 18 -7 74 -2 73 -1 52 -42 -15
-29 -17 -30 -95 -30 -91 0 -90 0 -50 63 33 53 29 51 84 35z m461 -28 c-13 -14
-13 -19 -3 -23 10 -3 8 -9 -6 -26 -14 -15 -16 -25 -9 -32 7 -7 17 3 31 33 27
56 29 22 2 -48 -10 -29 -16 -54 -13 -58 7 -7 -26 -147 -39 -163 -8 -10 -15 -9
-34 4 -14 9 -27 13 -30 10 -3 -3 8 -13 25 -22 31 -16 39 -29 22 -40 -9 -5 -88
9 -96 17 -10 10 9 48 24 48 13 0 14 2 2 9 -25 16 47 231 78 231 12 0 13 2 4 8
-10 6 -5 19 19 52 18 24 34 38 36 31 2 -7 -3 -20 -13 -31z m1542 23 c-4 -3 -7
0 -7 7 0 7 3 10 7 7 3 -4 3 -10 0 -14z m-21 -22 c-12 -19 -24 -12 -19 10 4 13
9 17 15 11 6 -6 7 -15 4 -21z m-1797 -17 c2 -2 -1 -15 -7 -29 -9 -20 -20 -25
-49 -27 -37 -1 -37 -1 -5 -5 39 -5 38 2 5 -100 -26 -83 -26 -83 -77 -77 -28 4
-52 7 -52 8 -2 2 72 190 86 218 12 25 17 27 54 21 23 -3 43 -7 45 -9z m629 -9
c-3 -3 -9 2 -12 12 -6 14 -5 15 5 6 7 -7 10 -15 7 -18z m1129 11 c-4 -9 1 -16
11 -19 9 -2 2 -4 -16 -4 -19 0 -37 -6 -42 -13 -10 -16 -22 3 -14 24 5 13 18
18 58 25 4 0 6 -5 3 -13z m-1550 -23 c-23 -44 -34 -73 -61 -165 -25 -83 -28
-87 -49 -78 -12 5 -52 12 -89 15 -76 7 -75 5 -48 83 57 167 50 157 106 156 27
-1 66 -6 87 -12 21 -5 37 -6 37 -1 0 5 -5 9 -11 9 -5 0 -7 5 -4 10 3 6 15 10
26 10 19 0 19 -2 6 -27z m1682 -76 c35 -36 62 -82 30 -50 -6 6 -19 9 -28 6
-14 -4 -14 -3 -1 6 11 8 -5 10 -65 9 -44 -1 -71 -3 -61 -6 15 -3 16 -6 5 -13
-9 -5 -5 -7 14 -5 15 1 30 5 33 9 3 3 19 1 36 -5 22 -8 26 -13 16 -19 -9 -6
-6 -8 11 -7 13 2 26 -3 29 -11 3 -10 -6 -12 -47 -6 -34 4 -51 3 -51 -4 0 -6
-7 -8 -15 -5 -8 3 -35 -2 -61 -12 -52 -20 -74 -7 -74 40 1 19 2 19 11 4 13
-24 29 -23 29 2 0 11 -5 20 -10 20 -11 0 -3 45 12 70 8 13 9 13 5 0 -2 -8 2
-21 9 -28 8 -7 14 -8 14 -2 0 5 14 10 31 10 17 0 28 4 24 10 -3 5 -13 6 -22 3
-15 -6 -16 -5 -3 9 14 15 17 15 35 0 11 -9 14 -10 8 -2 -18 19 -16 33 2 26 11
-4 15 2 15 22 0 27 0 27 15 -1 8 -15 32 -47 54 -70z m-209 51 c0 -5 -4 -8 -10
-8 -5 0 -10 10 -10 23 0 18 2 19 10 7 5 -8 10 -18 10 -22z m87 6 c-3 -3 -12
-4 -19 -1 -8 3 -5 6 6 6 11 1 17 -2 13 -5z m671 -71 c14 -66 16 -62 -45 -80
-48 -13 -48 -13 -3 -9 45 5 45 5 43 -48 0 -29 4 -71 10 -93 15 -57 6 -74 -35
-64 -170 43 -168 41 -188 82 -23 43 -26 89 -7 90 6 0 39 7 72 14 60 14 60 14
13 13 -26 -1 -50 1 -54 5 -3 3 -19 4 -33 1 -42 -9 -95 18 -114 57 -16 34 -16
34 15 42 43 11 54 5 77 -49 12 -26 24 -45 27 -41 3 3 -2 19 -10 36 -29 55 -24
65 42 76 36 6 42 4 43 -12 1 -16 2 -16 6 -1 4 17 17 22 73 31 55 9 55 9 68
-50z m-1738 12 c11 -13 8 -15 -14 -15 -16 0 -26 5 -26 15 0 8 6 15 14 15 7 0
19 -7 26 -15z m1374 -25 c3 -8 10 -25 15 -37 10 -22 10 -22 -31 -7 -37 13
-108 51 -108 58 0 13 120 -1 124 -14z m-64 -98 c0 -11 71 -78 98 -91 12 -7 22
-21 22 -32 0 -11 5 -29 10 -39 18 -33 -6 -30 -61 8 -55 39 -90 102 -105 191
-6 36 -6 36 15 3 12 -18 21 -36 21 -40z m-77 38 c3 -11 1 -18 -4 -14 -5 3 -9
12 -9 20 0 20 7 17 13 -6z m159 -33 c45 -4 53 -10 33 -27 -8 -7 -15 -21 -15
-31 0 -35 -29 -20 -64 33 -35 51 -40 88 -8 48 10 -12 32 -21 54 -23z m-3 17
c14 -12 -19 -1 -35 12 -18 14 -18 14 6 3 14 -6 27 -13 29 -15z m511 6 c0 -5
-5 -10 -11 -10 -7 0 -9 -13 -5 -37 3 -21 6 -46 7 -55 0 -10 4 -20 10 -23 11
-7 12 -75 1 -91 -5 -8 -28 -10 -72 -5 -65 6 -65 6 -66 51 0 25 -4 75 -7 111
-7 66 -7 66 68 68 46 1 75 -2 75 -9z m-363 -26 c-3 -3 -12 -4 -19 -1 -8 3 -5
6 6 6 11 1 17 -2 13 -5z m-46 -22 c-6 -11 -5 -30 5 -57 10 -30 10 -41 1 -47
-8 -5 -6 -9 6 -13 9 -4 21 -21 26 -38 5 -18 12 -40 16 -50 13 -32 -72 18 -90
53 -19 36 -20 74 -2 64 6 -4 2 3 -10 15 -33 32 -29 59 10 76 43 19 50 18 38
-3z m406 -14 c-3 -8 -6 -5 -6 6 -1 11 2 17 5 13 3 -3 4 -12 1 -19z m-2552 -13
c69 -8 74 -11 68 -35 -8 -29 -21 -34 -41 -16 -16 14 -18 14 -18 -4 0 -14 7
-20 23 -20 12 0 25 -4 28 -10 3 -5 -1 -10 -9 -10 -9 0 -16 -6 -16 -12 0 -7 -5
-5 -11 5 -5 9 -16 17 -24 17 -12 0 -31 35 -28 51 1 3 -7 5 -19 5 -11 -1 -27 9
-34 20 -14 20 -13 21 8 18 13 -2 46 -6 73 -9z m1922 -62 c-4 -3 -10 -3 -14 0
-3 4 0 7 7 7 7 0 10 -3 7 -7z m-1749 -47 c10 -10 6 -12 -20 -9 -58 7 -78 13
-78 24 0 14 80 1 98 -15z m2377 -56 c20 0 24 -13 29 -90 1 -23 -3 -25 -39 -26
-64 -1 -92 12 -98 49 -4 18 -9 43 -13 56 -7 24 -7 24 47 18 30 -4 63 -7 74 -7z
m-45 -230 c13 -8 13 -10 -2 -10 -9 0 -20 5 -23 10 -8 13 5 13 25 0z m55 0 c3
-5 4 -10 1 -10 -3 0 -8 5 -11 10 -3 6 -4 10 -1 10 3 0 8 -4 11 -10z m20 -21
c-4 -6 -1 -9 6 -8 21 4 99 -32 99 -44 0 -7 -4 -7 -12 1 -7 7 -26 12 -42 12
-40 0 -98 36 -70 43 11 3 20 5 22 6 2 0 0 -4 -3 -10z m-29 -24 c19 -14 19 -14
-2 -15 -12 0 -24 7 -28 15 -7 19 5 19 30 0z"/>
<path d="M2420 1230 c0 -7 3 -10 7 -7 3 4 3 10 0 14 -4 3 -7 0 -7 -7z"/>
<path d="M2560 920 c0 -7 3 -10 7 -7 3 4 3 10 0 14 -4 3 -7 0 -7 -7z"/>
<path d="M733 863 c4 -3 10 -3 14 0 3 4 0 7 -7 7 -7 0 -10 -3 -7 -7z"/>
<path d="M700 819 c0 -5 17 -9 39 -9 21 0 52 -5 70 -11 18 -6 34 -9 38 -6 6 6
-51 22 -109 30 -21 3 -38 2 -38 -4z"/>
<path d="M2407 753 c-10 -9 -9 -23 1 -23 5 0 9 7 9 15 0 17 -1 18 -10 8z"/>
<path d="M2467 709 c7 -7 15 -10 18 -7 3 3 -2 9 -12 12 -14 6 -15 5 -6 -5z"/>
<path d="M3278 1813 c7 -3 16 -2 19 1 4 3 -2 6 -13 5 -11 0 -14 -3 -6 -6z"/>
<path d="M3338 1803 c12 -2 30 -2 40 0 9 3 -1 5 -23 4 -22 0 -30 -2 -17 -4z"/>
<path d="M3403 1793 c4 -3 10 -3 14 0 3 4 0 7 -7 7 -7 0 -10 -3 -7 -7z"/>
<path d="M2858 1783 c7 -3 16 -2 19 1 4 3 -2 6 -13 5 -11 0 -14 -3 -6 -6z"/>
<path d="M2898 1773 c7 -3 16 -2 19 1 4 3 -2 6 -13 5 -11 0 -14 -3 -6 -6z"/>
<path d="M2948 1763 c6 -2 18 -2 25 0 6 3 1 5 -13 5 -14 0 -19 -2 -12 -5z"/>
<path d="M1865 1750 c-3 -5 -1 -10 4 -10 6 0 11 5 11 10 0 6 -2 10 -4 10 -3 0
-8 -4 -11 -10z"/>
<path d="M3085 1739 c50 -10 97 -17 105 -16 16 3 -160 38 -181 36 -8 -1 27
-10 76 -20z"/>
<path d="M2373 1702 c-7 -12 -8 -24 -2 -33 10 -16 10 -15 15 24 3 32 2 33 -13
9z"/>
<path d="M3225 1710 c28 -12 37 -12 30 0 -3 6 -16 10 -28 9 -21 0 -21 -1 -2
-9z"/>
<path d="M1750 1642 c0 -5 7 -15 15 -22 8 -7 15 -8 15 -2 0 5 -7 15 -15 22 -8
7 -15 8 -15 2z"/>
<path d="M2630 1643 c0 -6 -10 -14 -22 -16 -13 -2 9 -4 47 -4 39 0 52 2 30 4
-22 3 -43 10 -47 16 -6 9 -8 9 -8 0z"/>
<path d="M1185 1609 c9 -17 40 -54 69 -82 30 -29 73 -86 96 -127 46 -79 91
-135 125 -152 11 -6 1 9 -22 32 -23 23 -61 74 -84 114 -63 109 -89 144 -108
149 -10 2 -31 25 -47 50 -33 52 -53 63 -29 16z"/>
<path d="M2313 1633 c4 -3 10 -3 14 0 3 4 0 7 -7 7 -7 0 -10 -3 -7 -7z"/>
<path d="M2558 1633 c7 -3 16 -2 19 1 4 3 -2 6 -13 5 -11 0 -14 -3 -6 -6z"/>
<path d="M2750 1588 c0 -55 8 -62 12 -10 2 28 6 32 33 33 21 1 24 3 10 6 -11
3 -24 9 -29 14 -20 18 -26 8 -26 -43z"/>
<path d="M3120 1632 c8 -5 49 -17 90 -25 41 -9 88 -20 103 -26 22 -9 35 -7 58
5 37 19 33 30 -5 13 -20 -10 -35 -9 -67 0 -22 7 -64 16 -92 21 -29 5 -63 12
-77 15 -18 5 -21 4 -10 -3z"/>
<path d="M1240 1615 c0 -5 5 -17 10 -25 5 -8 10 -10 10 -5 0 6 -5 17 -10 25
-5 8 -10 11 -10 5z"/>
<path d="M2965 1590 c19 -8 73 -14 64 -6 -2 2 -22 6 -44 9 -28 5 -34 4 -20 -3z"/>
<path d="M3100 1562 c106 -37 293 -121 318 -144 25 -23 25 -23 11 0 -12 21
-181 112 -207 112 -5 0 -29 9 -53 19 -24 11 -62 22 -84 25 -36 6 -34 5 15 -12z"/>
<path d="M3373 1563 c-32 -6 -28 -20 6 -25 17 -3 27 0 24 5 -3 5 1 13 8 18 16
10 5 10 -38 2z"/>
<path d="M2750 1505 c0 -21 2 -24 14 -13 7 7 11 19 9 25 -9 22 -23 14 -23 -12z"/>
<path d="M3126 1503 c10 -42 40 -110 53 -117 16 -10 14 -2 -8 36 -11 18 -23
50 -26 71 -4 20 -11 37 -16 37 -5 0 -7 -12 -3 -27z"/>
<path d="M3031 1474 c0 -11 3 -14 6 -6 3 7 2 16 -1 19 -3 4 -6 -2 -5 -13z"/>
<path d="M760 1442 c-19 -6 -50 -33 -50 -42 0 -4 12 -15 26 -25 30 -20 58 -5
49 26 -5 14 -1 19 12 20 14 0 15 2 3 6 -8 3 -17 9 -20 13 -3 4 -12 5 -20 2z
m7 -49 c-4 -3 -10 -3 -14 0 -3 4 0 7 7 7 7 0 10 -3 7 -7z"/>
<path d="M2690 1400 c0 -5 5 -10 11 -10 5 0 7 5 4 10 -3 6 -8 10 -11 10 -2 0
-4 -4 -4 -10z"/>
<path d="M2768 1393 c6 -2 18 -2 25 0 6 3 1 5 -13 5 -14 0 -19 -2 -12 -5z"/>
<path d="M810 1378 c0 -9 -6 -19 -12 -21 -10 -4 -10 -6 0 -6 14 -1 28 26 18
36 -3 4 -6 -1 -6 -9z"/>
<path d="M2828 1383 c12 -2 30 -2 40 0 9 3 -1 5 -23 4 -22 0 -30 -2 -17 -4z"/>
<path d="M2135 1370 c3 -5 14 -10 23 -10 15 0 15 2 2 10 -20 13 -33 13 -25 0z"/>
<path d="M1101 1340 c-7 -17 -11 -34 -8 -36 8 -8 29 35 25 52 -2 9 -8 3 -17
-16z"/>
<path d="M2320 1366 c0 -8 71 -48 76 -43 3 2 -10 14 -29 26 -33 20 -47 25 -47
17z"/>
<path d="M2899 1363 c-5 -29 -4 -61 2 -57 7 4 9 64 2 64 -1 0 -4 -3 -4 -7z"/>
<path d="M2219 1343 c-12 -16 -12 -17 2 -6 9 7 19 10 22 6 4 -3 7 -1 7 5 0 17
-16 15 -31 -5z"/>
<path d="M3055 1310 c3 -5 8 -10 11 -10 3 0 2 5 -1 10 -3 6 -8 10 -11 10 -3 0
-2 -4 1 -10z"/>
<path d="M3310 1300 c0 -5 5 -10 10 -10 6 0 10 5 10 10 0 6 -4 10 -10 10 -5 0
-10 -4 -10 -10z"/>
<path d="M1771 1284 c0 -11 3 -14 6 -6 3 7 2 16 -1 19 -3 4 -6 -2 -5 -13z"/>
<path d="M3140 1245 c34 -35 89 -61 113 -52 6 2 -6 9 -28 15 -23 7 -54 25 -70
42 -16 16 -33 30 -39 30 -5 0 5 -16 24 -35z"/>
<path d="M2340 1260 c0 -7 3 -10 7 -7 3 4 3 10 0 14 -4 3 -7 0 -7 -7z"/>
<path d="M781 1241 c-17 -31 -61 -157 -61 -174 0 -28 83 -36 129 -13 65 34 65
66 -1 141 -24 27 -42 50 -42 52 6 15 -17 10 -25 -6z m59 -92 c0 -7 -9 -2 -20
11 -20 23 -20 23 -20 2 0 -12 -5 -22 -11 -22 -6 0 -9 -9 -6 -20 3 -11 -2 -25
-11 -32 -13 -11 -11 -14 14 -20 27 -6 27 -6 -6 -5 -28 2 -35 6 -33 22 2 35 30
99 36 84 3 -8 6 -1 6 16 1 30 1 30 26 3 14 -15 25 -33 25 -39z m25 -9 c3 -5 4
-10 1 -10 -3 0 -8 5 -11 10 -3 6 -4 10 -1 10 3 0 8 -4 11 -10z m-48 -57 c-4
-3 -10 -3 -14 0 -3 4 0 7 7 7 7 0 10 -3 7 -7z"/>
<path d="M910 1105 c0 -8 4 -15 10 -15 5 0 7 7 4 15 -4 8 -8 15 -10 15 -2 0
-4 -7 -4 -15z"/>
<path d="M2963 1103 c4 -3 10 -3 14 0 3 4 0 7 -7 7 -7 0 -10 -3 -7 -7z"/>
<path d="M3130 1082 c-23 -11 -14 -142 10 -142 5 0 4 15 -1 32 -16 57 -14 60
41 56 28 -1 50 0 50 5 0 4 -20 7 -44 7 -50 0 -65 18 -32 37 23 13 3 17 -24 5z"/>
<path d="M610 1072 c0 -4 18 -22 40 -40 44 -36 52 -32 17 9 -23 25 -57 45 -57
31z"/>
<path d="M154 1017 c-58 -63 -154 -192 -154 -206 0 -7 22 17 50 53 27 36 58
76 70 88 11 12 20 25 20 30 0 4 14 23 31 43 44 50 29 44 -17 -8z"/>
<path d="M2640 1046 c0 -8 5 -18 10 -21 6 -3 10 1 10 9 0 8 -4 18 -10 21 -5 3
-10 -1 -10 -9z"/>
<path d="M698 923 c7 -3 16 -2 19 1 4 3 -2 6 -13 5 -11 0 -14 -3 -6 -6z"/>
<path d="M2990 900 c0 -7 3 -10 7 -7 3 4 3 10 0 14 -4 3 -7 0 -7 -7z"/>
<path d="M205 870 c-14 -7 -8 -8 20 -3 22 3 42 7 44 9 9 8 -45 2 -64 -6z"/>
<path d="M2992 860 c0 -14 2 -19 5 -12 2 6 2 18 0 25 -3 6 -5 1 -5 -13z"/>
<path d="M1372 845 c9 -10 21 -16 28 -13 7 2 -1 10 -16 17 -27 12 -28 11 -12
-4z"/>
<path d="M20 799 c-31 -42 -20 -45 13 -4 15 19 23 35 18 35 -5 0 -19 -14 -31
-31z"/>
<path d="M133 783 c4 -3 10 -3 14 0 3 4 0 7 -7 7 -7 0 -10 -3 -7 -7z"/>
<path d="M1573 783 c4 -3 10 -3 14 0 3 4 0 7 -7 7 -7 0 -10 -3 -7 -7z"/>
<path d="M95 650 c-8 -13 5 -13 25 0 13 8 13 10 -2 10 -9 0 -20 -4 -23 -10z"/>
<path d="M140 650 c0 -5 10 -10 23 -10 18 0 19 2 7 10 -19 13 -30 13 -30 0z"/>
<path d="M1422 643 c6 -7 14 -13 18 -13 3 0 7 6 7 13 0 7 -8 13 -18 13 -13 0
-15 -3 -7 -13z"/>
<path d="M2450 640 c0 -7 3 -10 7 -7 3 4 3 10 0 14 -4 3 -7 0 -7 -7z"/>
<path d="M2473 643 c4 -3 10 -3 14 0 3 4 0 7 -7 7 -7 0 -10 -3 -7 -7z"/>
<path d="M2423 633 c4 -3 10 -3 14 0 3 4 0 7 -7 7 -7 0 -10 -3 -7 -7z"/>
<path d="M2500 628 c0 -5 -4 -6 -10 -3 -5 3 -10 -1 -10 -9 0 -9 -4 -16 -10
-16 -5 0 -10 -5 -10 -11 0 -8 5 -7 15 1 13 10 19 10 35 -5 11 -10 20 -13 20
-7 0 6 -4 14 -10 17 -16 10 -12 28 5 21 8 -3 15 -2 15 3 0 5 -9 11 -20 14 -11
3 -20 1 -20 -5z"/>
<path d="M52 601 c-39 -29 -60 -51 -47 -51 4 0 19 9 33 20 15 12 38 30 52 40
40 31 7 23 -38 -9z"/>
<path d="M2563 613 c4 -3 10 -3 14 0 3 4 0 7 -7 7 -7 0 -10 -3 -7 -7z"/>
<path d="M126 600 c5 -4 35 -10 67 -12 32 -3 54 -1 50 3 -4 4 -34 9 -67 12
-32 3 -54 2 -50 -3z"/>
<path d="M1720 545 c-7 -9 -8 -15 -2 -15 5 0 12 7 16 15 3 8 4 15 2 15 -2 0
-9 -7 -16 -15z"/>
<path d="M1745 540 c-3 -5 1 -10 10 -10 9 0 13 5 10 10 -3 6 -8 10 -10 10 -2
0 -7 -4 -10 -10z"/>
<path d="M1593 533 c4 -3 10 -3 14 0 3 4 0 7 -7 7 -7 0 -10 -3 -7 -7z"/>
<path d="M13 523 c9 -2 23 -2 30 0 6 3 -1 5 -18 5 -17 0 -22 -2 -12 -5z"/>
<path d="M1486 522 c-3 -5 8 -6 25 -4 16 2 29 6 29 8 0 8 -49 4 -54 -4z"/>
<path d="M163 503 c4 -3 10 -3 14 0 3 4 0 7 -7 7 -7 0 -10 -3 -7 -7z"/>
<path d="M1933 483 c4 -3 10 -3 14 0 3 4 0 7 -7 7 -7 0 -10 -3 -7 -7z"/>
<path d="M1896 472 c-2 -4 6 -12 19 -18 18 -9 22 -9 18 2 -6 15 -31 26 -37 16z"/>
<path d="M1650 448 c0 -4 12 -8 27 -8 14 0 23 3 19 7 -10 10 -46 11 -46 1z"/>
<path d="M1720 429 c0 -7 -10 -9 -25 -7 -14 3 -28 1 -31 -3 -3 -5 -14 -9 -25
-9 -11 0 -17 5 -14 10 10 16 -11 12 -25 -5 -7 -8 -17 -15 -22 -15 -5 0 -42
-13 -81 -28 -40 -16 -88 -32 -107 -35 -19 -3 -30 -3 -23 -1 14 6 -4 44 -21 44
-4 0 -3 -6 3 -14 17 -21 -14 -35 -85 -41 -31 -2 -59 -7 -62 -10 -7 -7 145 2
193 11 17 3 71 21 120 39 110 40 195 53 195 30 0 -8 -4 -15 -10 -15 -5 0 -10
-4 -10 -10 0 -19 16 -10 33 19 19 33 22 51 7 51 -5 0 -10 -5 -10 -11z"/>
<path d="M2680 427 c0 -9 10 -19 21 -22 17 -6 19 -9 8 -16 -21 -13 -3 -11 34
4 18 8 39 12 47 10 13 -4 13 -3 0 6 -8 5 -27 7 -42 4 -20 -4 -35 0 -48 12 -17
16 -20 16 -20 2z"/>
<path d="M1065 420 c-3 -5 -1 -10 4 -10 6 0 11 5 11 10 0 6 -2 10 -4 10 -3 0
-8 -4 -11 -10z"/>
<path d="M1210 420 c0 -5 7 -7 15 -4 8 4 15 8 15 10 0 2 -7 4 -15 4 -8 0 -15
-4 -15 -10z"/>
<path d="M1990 419 c0 -5 11 -9 25 -9 14 0 25 2 25 4 0 2 -11 6 -25 8 -14 3
-25 1 -25 -3z"/>
<path d="M1150 410 c-20 -13 5 -13 35 0 20 9 20 9 0 9 -11 0 -27 -4 -35 -9z"/>
<path d="M2370 400 c-8 -5 -12 -11 -9 -14 2 -3 11 -1 19 4 8 5 12 11 9 14 -2
3 -11 1 -19 -4z"/>
<path d="M938 392 c-5 -13 -74 -52 -92 -52 -20 0 -20 -10 -2 -36 13 -17 16
-18 28 -3 7 9 39 23 72 32 72 20 74 22 51 47 -18 20 -50 27 -57 12z m46 -21
c6 -9 -45 -31 -73 -31 -12 0 -9 6 9 20 27 21 55 26 64 11z m-109 -51 c-3 -5
-10 -10 -16 -10 -5 0 -9 5 -9 10 0 6 7 10 16 10 8 0 12 -4 9 -10z"/>
<path d="M1220 390 c0 -7 3 -10 7 -7 3 4 3 10 0 14 -4 3 -7 0 -7 -7z"/>
<path d="M1390 371 c-6 -12 -7 -21 -1 -21 10 0 24 30 17 37 -2 3 -9 -5 -16
-16z"/>
<path d="M1828 369 c-10 -10 -15 -19 -12 -19 13 0 44 21 44 30 0 15 -13 11
-32 -11z"/>
<path d="M2400 380 c0 -5 5 -10 11 -10 5 0 7 5 4 10 -3 6 -8 10 -11 10 -2 0
-4 -4 -4 -10z"/>
<path d="M2615 347 c15 -21 30 -35 33 -32 3 3 -9 20 -27 38 -34 32 -34 32 -6
-6z"/>
<path d="M2415 345 c-17 -13 -27 -27 -23 -31 4 -4 10 0 14 9 5 15 8 15 21 1 9
-8 18 -12 21 -9 4 3 0 10 -8 16 -13 8 -13 10 0 18 8 6 12 12 9 15 -2 3 -18 -6
-34 -19z"/>
<path d="M427 353 c-4 -3 -7 -11 -7 -17 0 -6 5 -5 12 2 6 6 9 14 7 17 -3 3 -9
2 -12 -2z"/>
<path d="M1987 343 c-4 -3 -7 -15 -7 -25 0 -22 -13 -23 -30 -3 -7 8 -16 15
-21 15 -4 0 4 -12 18 -26 29 -29 48 -21 48 21 1 28 1 28 -8 18z"/>
<path d="M1953 333 c4 -3 10 -3 14 0 3 4 0 7 -7 7 -7 0 -10 -3 -7 -7z"/>
<path d="M1007 311 c-37 -24 -45 -34 -22 -25 18 7 18 6 6 -9 -12 -15 -11 -15
18 -1 19 9 31 23 31 35 0 10 -1 19 -2 18 -2 0 -15 -8 -31 -18z m10 -18 c-4 -3
-10 -3 -14 0 -3 4 0 7 7 7 7 0 10 -3 7 -7z"/>
<path d="M1712 314 c-12 -8 -22 -10 -22 -5 0 6 -4 11 -8 11 -5 0 -9 -12 -9
-28 0 -27 0 -27 34 2 30 27 38 36 30 36 -1 0 -13 -7 -25 -16z"/>
<path d="M145 310 c3 -5 16 -10 28 -9 21 0 21 1 2 9 -28 12 -37 12 -30 0z"/>
<path d="M710 311 c0 -5 14 -11 30 -13 32 -5 41 6 14 16 -23 9 -44 7 -44 -3z"/>
<path d="M2677 296 c20 -26 27 -28 17 -3 -3 8 -12 18 -20 21 -11 4 -10 0 3
-18z"/>
<path d="M394 298 c-4 -7 -3 -8 4 -4 12 7 16 16 8 16 -3 0 -8 -5 -12 -12z"/>
<path d="M1780 270 c0 -11 5 -20 11 -20 5 0 8 4 5 9 -4 5 -1 11 6 13 8 3 6 7
-5 11 -12 5 -17 1 -17 -13z"/>
<path d="M1245 270 c-3 -5 9 -9 30 -8 19 1 35 5 35 10 0 11 -57 10 -65 -2z"/>
<path d="M607 259 c7 -7 15 -10 18 -7 3 3 -2 9 -12 12 -14 6 -15 5 -6 -5z"/>
<path d="M870 260 c0 -7 3 -10 7 -7 3 4 3 10 0 14 -4 3 -7 0 -7 -7z"/>
<path d="M2150 260 c0 -5 5 -10 11 -10 5 0 7 5 4 10 -3 6 -8 10 -11 10 -2 0
-4 -4 -4 -10z"/>
<path d="M2674 239 c22 -31 65 -79 70 -79 3 0 -3 15 -14 33 -11 17 -20 39 -20
48 0 11 -8 16 -24 15 -20 -1 -22 -4 -12 -17z m23 -16 c-4 -3 -7 0 -7 7 0 7 3
10 7 7 3 -4 3 -10 0 -14z"/>
<path d="M932 234 c-12 -8 -43 -16 -67 -17 -57 -2 -59 -17 -2 -17 30 0 51 7
72 25 34 27 32 33 -3 9z"/>
<path d="M1420 240 c-8 -5 -12 -12 -9 -15 4 -3 12 1 19 10 14 17 11 19 -10 5z"/>
<path d="M3014 236 c11 -9 24 -16 30 -16 12 0 7 5 -24 19 -24 11 -24 11 -6 -3z"/>
<path d="M1360 226 c7 -7 13 -7 20 0 6 6 3 10 -10 10 -13 0 -16 -4 -10 -10z"/>
<path d="M928 202 c-32 -23 -38 -33 -38 -67 0 -22 -3 -51 -6 -65 -4 -18 -3
-21 4 -10 5 8 13 34 17 58 4 27 19 57 37 78 36 41 34 42 -14 6z"/>
<path d="M2224 218 c-4 -7 -3 -8 4 -4 12 7 16 16 8 16 -3 0 -8 -5 -12 -12z"/>
<path d="M3092 215 c9 -10 21 -16 28 -13 7 2 -1 10 -16 17 -27 12 -28 11 -12
-4z"/>
<path d="M1869 184 c-19 -39 -11 -44 18 -11 30 33 33 43 15 44 -10 1 -24 -13
-33 -33z"/>
<path d="M2391 203 c-14 -12 -18 -23 -12 -31 10 -16 41 10 41 34 0 18 -3 18
-29 -3z"/>
<path d="M2600 200 c-9 -6 -10 -10 -3 -10 6 0 15 5 18 10 8 12 4 12 -15 0z"/>
<path d="M2660 200 c0 -7 3 -10 7 -7 3 4 3 10 0 14 -4 3 -7 0 -7 -7z"/>
<path d="M3091 171 c48 -62 89 -107 89 -96 -1 6 -28 39 -62 75 -41 44 -50 51
-27 21z"/>
<path d="M3040 190 c0 -7 3 -10 7 -7 3 4 3 10 0 14 -4 3 -7 0 -7 -7z"/>
<path d="M2843 173 c4 -3 10 -3 14 0 3 4 0 7 -7 7 -7 0 -10 -3 -7 -7z"/>
<path d="M2109 156 c9 -10 8 -15 -3 -19 -8 -3 -17 -1 -20 6 -3 9 -5 9 -5 0 -1
-19 17 -25 38 -12 16 10 17 15 6 26 -18 17 -31 17 -16 -1z"/>
<path d="M2143 163 c4 -3 10 -3 14 0 3 4 0 7 -7 7 -7 0 -10 -3 -7 -7z"/>
<path d="M2820 160 c0 -5 5 -10 11 -10 5 0 7 5 4 10 -3 6 -8 10 -11 10 -2 0
-4 -4 -4 -10z"/>
<path d="M1759 99 c-44 -41 -44 -41 -2 -9 40 29 60 50 50 50 -2 0 -24 -18 -48
-41z"/>
<path d="M2570 132 c0 -7 -6 -12 -14 -12 -8 0 -17 -4 -20 -9 -4 -5 3 -7 14 -4
22 6 35 21 26 30 -3 4 -6 1 -6 -5z"/>
<path d="M926 115 c-3 -8 -1 -15 4 -15 6 0 10 7 10 15 0 8 -2 15 -4 15 -2 0
-6 -7 -10 -15z"/>
<path d="M965 113 c-20 -15 -19 -15 5 -9 14 3 29 6 33 6 5 0 5 5 2 10 -8 14
-16 12 -40 -7z"/>
<path d="M1544 98 c-4 -7 -3 -8 4 -4 12 7 16 16 8 16 -3 0 -8 -5 -12 -12z"/>
<path d="M2574 88 c-4 -7 -3 -8 4 -4 7 4 12 9 12 12 0 8 -9 4 -16 -8z"/>
<path d="M2980 85 c7 -9 15 -13 17 -11 7 7 -7 26 -19 26 -6 0 -6 -6 2 -15z"/>
<path d="M3060 90 c0 -7 3 -10 7 -7 3 4 3 10 0 14 -4 3 -7 0 -7 -7z"/>
<path d="M2543 63 c4 -3 10 -3 14 0 3 4 0 7 -7 7 -7 0 -10 -3 -7 -7z"/>
<path d="M2957 29 c7 -7 15 -10 18 -7 3 3 -2 9 -12 12 -14 6 -15 5 -6 -5z"/>
<path d="M3075 30 c3 -5 8 -10 11 -10 3 0 2 5 -1 10 -3 6 -8 10 -11 10 -3 0
-2 -4 1 -10z"/>
<path d="M220 9 c0 -5 5 -7 10 -4 6 3 10 8 10 11 0 2 -4 4 -10 4 -5 0 -10 -5
-10 -11z"/>
<path d="M1373 3 c4 -3 10 -3 14 0 3 4 0 7 -7 7 -7 0 -10 -3 -7 -7z"/>
<path d="M1423 3 c4 -3 10 -3 14 0 3 4 0 7 -7 7 -7 0 -10 -3 -7 -7z"/>
<path d="M1453 3 c4 -3 10 -3 14 0 3 4 0 7 -7 7 -7 0 -10 -3 -7 -7z"/>
<path d="M1573 3 c4 -3 10 -3 14 0 3 4 0 7 -7 7 -7 0 -10 -3 -7 -7z"/>
<path d="M2573 3 c4 -3 10 -3 14 0 3 4 0 7 -7 7 -7 0 -10 -3 -7 -7z"/>
</g>
</svg>
