<?xml version="1.0" standalone="no"?>
<!DOCTYPE svg PUBLIC "-//W3C//DTD SVG 20010904//EN"
 "http://www.w3.org/TR/2001/REC-SVG-20010904/DTD/svg10.dtd">
<svg version="1.0" xmlns="http://www.w3.org/2000/svg"
 width="344.000000pt" height="256.000000pt" viewBox="0 0 344.000000 256.000000"
 preserveAspectRatio="xMidYMid meet">
<metadata>
Created by potrace 1.16, written by Peter Selinger 2001-2019
</metadata>
<g transform="translate(0.000000,256.000000) scale(0.100000,-0.100000)"
fill="#000000" stroke="none">
<path d="M434 2528 c-82 -98 -126 -288 -90 -394 6 -15 2 -23 -16 -32 -23 -13
-23 -13 0 -8 19 3 22 0 22 -25 0 -16 -6 -29 -12 -30 -7 0 -41 -1 -75 -2 -34
-1 -65 -5 -69 -10 -11 -10 138 -8 155 2 17 11 17 71 -1 142 -22 92 29 269 103
354 17 19 27 35 21 35 -6 0 -23 -15 -38 -32z"/>
<path d="M916 2538 c12 -40 31 -72 63 -104 36 -37 53 -75 40 -95 -7 -11 -9 -9
-9 7 0 24 -48 84 -66 84 -7 0 -34 18 -60 40 -27 22 -55 40 -63 40 -7 0 4 -12
25 -26 21 -15 43 -32 49 -39 5 -6 25 -22 43 -34 44 -30 66 -75 58 -119 -7 -45
-18 -51 -80 -45 -28 3 -62 0 -76 -6 -25 -11 -25 -11 5 -7 46 7 79 -14 61 -39
-12 -17 -17 -18 -42 -6 -27 13 -28 14 -9 22 16 6 14 8 -12 8 -25 1 -31 -3 -27
-14 4 -8 10 -15 14 -15 4 0 19 -12 34 -27 26 -26 26 -26 52 -2 14 13 32 36 40
52 8 15 19 27 25 27 8 0 8 -4 0 -13 -6 -8 -8 -17 -4 -21 4 -3 -1 -12 -11 -19
-20 -14 -8 -88 16 -103 8 -5 9 0 3 17 -12 37 -9 77 6 95 8 10 13 25 11 35 -2
10 6 36 17 58 34 66 24 117 -31 160 -14 12 -34 41 -44 66 -17 45 -41 64 -28
23z"/>
<path d="M2536 2518 c-5 -35 -27 -340 -39 -523 -1 -31 -6 -40 -19 -39 -25 2
-23 -12 2 -19 27 -7 28 -3 45 263 2 36 9 129 16 208 11 132 8 209 -5 110z"/>
<path d="M610 2529 c-6 -11 -10 -25 -7 -32 2 -6 9 3 15 21 12 36 8 42 -8 11z"/>
<path d="M534 2518 c-4 -7 -3 -8 4 -4 12 7 16 16 8 16 -3 0 -8 -5 -12 -12z"/>
<path d="M470 2500 c0 -7 3 -10 7 -7 3 4 3 10 0 14 -4 3 -7 0 -7 -7z"/>
<path d="M451 2461 c-18 -32 -42 -112 -39 -123 2 -6 10 9 17 33 7 24 19 59 27
77 15 35 11 44 -5 13z"/>
<path d="M501 2363 c-7 -27 -15 -70 -18 -98 -2 -27 -9 -52 -14 -56 -16 -10 14
-71 54 -112 20 -19 47 -57 61 -84 13 -27 42 -63 63 -78 21 -16 40 -33 41 -37
2 -5 13 -13 25 -19 12 -6 -5 15 -38 48 -74 72 -155 243 -114 243 6 0 8 -9 4
-21 -5 -15 -4 -19 4 -15 6 4 11 14 11 23 0 9 8 22 18 29 15 12 15 15 2 24 -9
6 -10 10 -3 10 22 0 25 -21 6 -42 -18 -21 -18 -21 4 -9 20 10 23 9 29 -14 6
-26 6 -26 29 5 12 17 25 48 29 70 4 29 14 44 39 61 17 13 50 39 73 58 22 20
49 41 59 47 16 9 13 10 -16 8 -26 -2 -43 -13 -76 -48 -22 -25 -52 -50 -66 -55
-18 -7 -26 -19 -31 -50 -7 -49 -12 -50 -52 -12 -25 24 -33 41 -39 86 -5 42
-10 54 -18 46 -8 -8 -8 -20 1 -44 16 -44 15 -49 -5 -39 -10 5 -28 8 -40 6 -23
-4 -24 15 -3 71 12 32 13 45 2 45 -4 0 -14 -21 -21 -47z m61 -100 c26 -23 22
-41 -9 -45 -14 -2 -28 -8 -30 -14 -2 -7 9 -9 29 -7 31 3 32 3 10 -9 -20 -10
-23 -18 -20 -50 3 -37 3 -37 -25 -10 -45 43 -26 138 23 112 31 -17 37 -4 9 19
-13 11 -20 20 -15 21 5 0 18 -7 28 -17z"/>
<path d="M970 2270 c0 -7 3 -10 7 -7 3 4 3 10 0 14 -4 3 -7 0 -7 -7z"/>
<path d="M1045 2234 c-9 -15 -13 -24 -7 -20 9 5 26 -29 23 -47 -1 -4 10 0 24
9 25 17 34 57 15 69 -6 4 -10 -7 -10 -25 0 -21 -4 -30 -12 -27 -7 2 -12 18
-12 36 2 38 1 38 -21 5z"/>
<path d="M650 2240 c0 -7 3 -10 7 -7 3 4 3 10 0 14 -4 3 -7 0 -7 -7z"/>
<path d="M1730 2182 c6 -13 14 -21 18 -18 3 4 -2 14 -12 24 -18 16 -18 16 -6
-6z"/>
<path d="M2490 2180 c0 -7 3 -10 7 -7 3 4 3 10 0 14 -4 3 -7 0 -7 -7z"/>
<path d="M1110 2129 c0 -17 -6 -20 -32 -19 -66 4 -81 -3 -23 -10 33 -3 60 -6
61 -6 8 6 12 56 4 56 -5 0 -10 -9 -10 -21z"/>
<path d="M895 2098 c-11 -24 -21 -46 -23 -50 -2 -5 1 -8 6 -8 12 0 45 75 40
90 -2 6 -12 -8 -23 -32z"/>
<path d="M2640 2136 c0 -5 112 -39 204 -62 57 -14 79 -26 122 -65 31 -28 69
-52 91 -58 168 -43 304 -72 333 -70 17 1 -35 14 -230 59 -140 32 -148 36 -190
84 -22 26 -23 28 -5 22 38 -15 328 -77 339 -73 6 2 -25 12 -69 21 -127 27
-288 66 -443 108 -152 40 -152 40 -152 34z"/>
<path d="M2465 2120 c3 -5 11 -10 16 -10 6 0 7 5 4 10 -3 6 -11 10 -16 10 -6
0 -7 -4 -4 -10z"/>
<path d="M240 2100 c-45 -7 -45 -7 -3 -8 23 -1 45 3 48 8 3 6 5 9 3 8 -2 0
-23 -4 -48 -8z"/>
<path d="M1218 2103 c6 -2 18 -2 25 0 6 3 1 5 -13 5 -14 0 -19 -2 -12 -5z"/>
<path d="M1350 2103 c109 -7 218 -7 213 0 -2 4 -61 6 -131 5 -70 -1 -107 -3
-82 -5z"/>
<path d="M1588 2093 c6 -2 18 -2 25 0 6 3 1 5 -13 5 -14 0 -19 -2 -12 -5z"/>
<path d="M1758 2083 c6 -2 18 -2 25 0 6 3 1 5 -13 5 -14 0 -19 -2 -12 -5z"/>
<path d="M1796 2075 c-9 -26 -7 -32 5 -12 6 10 9 21 6 23 -2 3 -7 -2 -11 -11z"/>
<path d="M2620 2080 c8 -5 20 -10 25 -10 6 0 3 5 -5 10 -8 5 -19 10 -25 10 -5
0 -3 -5 5 -10z"/>
<path d="M510 2076 c0 -5 14 -33 31 -63 20 -35 29 -62 25 -76 -5 -23 -101
-101 -114 -93 -4 2 -19 -12 -32 -32 -43 -65 -84 -90 -93 -54 -3 11 -4 10 -3
-5 0 -12 -10 -31 -23 -42 -32 -28 -23 -26 32 5 43 23 87 66 101 96 5 10 7 10
12 0 4 -8 20 -26 38 -40 17 -15 58 -54 91 -88 33 -33 76 -66 95 -74 90 -35
290 -203 290 -244 0 -6 5 -4 10 4 12 19 13 60 1 60 -15 0 -32 62 -38 140 -3
41 -10 84 -14 95 -12 29 0 -132 13 -180 6 -22 18 -47 25 -56 7 -8 13 -22 13
-29 0 -7 -24 14 -54 47 -59 65 -178 152 -249 182 -25 11 -57 35 -72 55 -15 19
-49 52 -76 73 -27 20 -49 43 -49 51 0 15 59 72 76 72 20 0 45 36 37 56 -3 10
23 -8 58 -42 73 -67 153 -118 174 -110 10 3 12 -4 9 -30 -2 -19 0 -34 6 -34 5
0 7 8 3 18 -5 14 -1 13 17 -5 15 -14 28 -44 36 -85 12 -61 12 -62 13 -19 1 27
-9 65 -25 102 -26 57 -26 60 -9 79 10 11 24 20 32 20 7 0 13 5 13 10 0 6 -5
10 -12 10 -7 0 -5 7 5 18 8 9 24 41 36 71 11 29 28 62 37 72 9 11 12 19 6 19
-6 0 -14 -5 -18 -11 -4 -8 -9 -7 -15 2 -11 18 175 27 331 17 58 -3 206 -11
330 -18 225 -12 225 -12 635 -115 226 -58 425 -109 443 -114 42 -12 62 -5 62
23 0 38 -17 48 -140 91 -36 12 -74 25 -85 29 -19 7 -19 7 -2 -8 11 -8 49 -24
85 -35 103 -32 158 -72 119 -87 -7 -2 -128 24 -268 60 -693 177 -571 155
-1029 181 -228 12 -530 16 -530 7 0 -2 12 -13 27 -26 36 -31 25 -42 -37 -37
-49 3 -51 4 -35 21 13 15 14 22 5 37 -9 15 -11 15 -6 1 2 -9 -2 -22 -10 -28
-8 -7 -14 -18 -14 -26 0 -7 -15 -27 -32 -43 -18 -17 -28 -31 -22 -31 5 0 23
14 40 31 25 27 34 30 67 26 49 -7 48 -6 37 -49 -14 -49 -42 -72 -81 -66 -29 5
-30 4 -14 -9 11 -7 25 -13 33 -13 12 0 12 -3 1 -16 -8 -10 -23 -14 -40 -12
-16 3 -26 1 -23 -4 9 -14 -29 4 -69 32 -40 29 -147 128 -147 136 0 3 -16 28
-35 57 -19 28 -35 48 -35 43z"/>
<path d="M1888 2068 c5 -7 12 -22 15 -33 4 -17 5 -17 6 4 1 27 -18 29 225 -23
93 -20 171 -34 174 -32 5 5 4 5 -143 36 -55 12 -127 28 -159 36 -88 23 -131
27 -118 12z"/>
<path d="M2690 2072 c0 -5 10 -13 23 -19 40 -18 259 -84 264 -80 5 5 -83 35
-182 63 -33 9 -70 22 -82 30 -13 8 -23 11 -23 6z"/>
<path d="M155 2030 c-3 -5 1 -10 9 -10 9 0 16 5 16 10 0 6 -4 10 -9 10 -6 0
-13 -4 -16 -10z"/>
<path d="M2320 1996 c0 -3 24 -12 53 -21 28 -9 59 -19 67 -22 10 -4 12 -2 5 5
-13 13 -125 47 -125 38z"/>
<path d="M765 1830 c3 -5 8 -10 11 -10 3 0 2 5 -1 10 -3 6 -8 10 -11 10 -3 0
-2 -4 1 -10z"/>
<path d="M747 1770 c13 -12 65 -22 59 -12 -3 6 -19 12 -36 14 -17 3 -27 1 -23
-2z"/>
<path d="M1070 1725 c21 -44 31 -81 36 -140 6 -80 6 -80 -17 -59 -41 36 -56
39 -21 4 18 -18 49 -69 69 -113 21 -43 39 -75 41 -69 1 5 -13 43 -32 85 -19
41 -32 78 -29 81 24 24 -13 199 -52 243 -24 27 -24 26 5 -32z"/>
<path d="M1326 1686 c-89 -32 -90 -34 -88 -112 1 -54 -1 -65 -13 -60 -18 7
-18 4 -3 -48 6 -22 22 -54 35 -69 35 -43 30 -54 -31 -61 -80 -10 -87 -19 -91
-107 -2 -40 -6 -92 -9 -114 -6 -40 -6 -40 9 5 8 25 15 75 15 111 0 81 13 90
140 96 141 8 231 -38 181 -91 -34 -37 -84 -50 -184 -51 -76 0 -91 3 -103 19
-31 43 -20 7 17 -54 36 -60 39 -70 39 -141 0 -75 0 -75 -55 -98 -30 -13 -55
-28 -56 -34 0 -7 -4 -3 -9 8 -6 15 -1 27 16 46 13 14 21 28 18 32 -4 4 -1 13
6 22 8 9 8 15 2 15 -6 0 -22 -23 -36 -51 -24 -48 -25 -52 -11 -86 16 -37 9
-52 -22 -53 -13 0 -43 50 -43 70 0 41 65 164 97 182 40 24 39 32 -4 16 -23 -9
-38 -28 -67 -85 -39 -80 -45 -129 -20 -167 18 -29 18 -29 -141 -49 -55 -8
-110 -19 -121 -27 -34 -21 -106 -135 -115 -182 -16 -82 -14 -88 29 -87 70 1
317 59 369 87 31 17 32 16 27 -21 -5 -34 79 -216 104 -225 6 -2 36 19 65 47
62 58 66 60 59 26 -4 -24 -82 -105 -101 -105 -14 0 -23 -32 -11 -44 7 -7 10
-4 10 11 0 14 10 25 30 33 17 7 37 21 44 32 21 30 28 4 10 -38 -9 -22 -20 -49
-25 -62 -7 -19 -11 -21 -23 -10 -12 11 -10 18 11 47 15 18 21 32 16 30 -16 -6
-83 -89 -83 -102 0 -6 7 -1 16 11 13 18 19 21 30 11 16 -13 19 -39 4 -39 -5 0
-10 5 -10 10 0 6 -5 10 -10 10 -7 0 -7 -6 0 -19 14 -27 13 -31 -7 -31 -14 0
-15 -2 -4 -9 16 -10 6 -31 -14 -31 -8 0 -17 -5 -20 -10 -4 -6 3 -9 17 -7 27 5
61 59 106 172 33 83 38 100 24 91 -5 -3 1 24 12 60 21 64 21 64 43 14 25 -55
33 -63 25 -25 -2 14 -1 25 2 25 8 0 60 -111 70 -150 7 -25 7 -25 -8 0 -17 28
-22 19 -5 -11 5 -11 14 -17 20 -14 5 4 9 2 9 -4 0 -5 3 -17 6 -25 4 -11 2 -15
-7 -12 -8 2 -26 7 -40 10 -16 4 -31 16 -38 34 -6 15 -20 33 -31 40 -14 8 -11
0 12 -34 33 -49 37 -52 83 -56 27 -3 32 -10 69 -102 22 -54 42 -93 44 -86 3 7
-5 33 -16 59 -12 25 -44 104 -72 176 -63 158 -77 185 -94 185 -37 0 -113 253
-83 278 14 12 164 8 176 -4 3 -4 0 -4 -6 0 -7 4 -13 2 -13 -3 0 -6 5 -11 10
-11 6 0 10 -11 10 -24 0 -33 80 -119 135 -146 25 -12 43 -26 40 -30 -3 -5 -1
-11 5 -15 5 -3 10 -1 10 4 0 6 5 11 11 11 5 0 7 -5 3 -12 -5 -7 -2 -9 8 -6 27
11 191 -38 199 -58 7 -18 8 -18 8 -1 1 14 6 17 24 11 12 -3 22 -7 23 -8 1 0
13 -22 28 -48 50 -86 155 -162 270 -195 79 -22 80 -23 69 -34 -6 -6 -23 -4
-50 5 -30 11 -44 11 -52 3 -25 -25 -8 -41 67 -62 14 -4 30 -21 38 -42 18 -41
30 -39 14 2 -6 15 -8 36 -5 46 4 11 2 19 -5 19 -6 0 -8 -4 -5 -10 12 -20 -77
7 -98 30 -12 13 8 12 86 -6 24 -6 27 -3 27 17 0 21 -7 26 -52 37 -76 18 -169
64 -218 108 -54 49 -93 111 -85 132 5 13 11 7 24 -23 36 -80 134 -152 260
-194 74 -24 71 -24 71 -13 0 5 -22 14 -49 21 -76 19 -163 65 -203 107 -36 38
-37 40 -23 68 19 36 19 42 0 26 -8 -7 -15 -22 -15 -34 -1 -21 -1 -21 -16 -1
-10 13 -14 32 -10 55 4 23 2 30 -4 20 -5 -8 -12 -11 -17 -7 -10 11 37 97 53
97 7 0 19 8 26 18 24 33 89 55 183 61 89 6 89 6 38 14 -65 9 -123 0 -192 -30
-59 -26 -79 -22 -41 8 21 17 22 19 5 15 -51 -13 -159 -26 -176 -21 -23 7 -59
-2 -59 -16 0 -5 7 -9 15 -9 8 0 15 4 15 8 0 4 16 6 35 4 32 -4 35 -7 35 -38 0
-45 -5 -46 -116 -23 -123 26 -174 52 -243 123 -51 51 -54 57 -43 81 6 14 16
25 22 25 16 0 12 -18 -6 -28 -9 -5 -12 -12 -7 -15 5 -3 26 9 46 28 36 33 75
58 110 71 10 4 17 17 17 31 0 13 -4 21 -10 18 -5 -3 -10 -1 -10 5 0 6 -4 9 -9
6 -5 -3 -26 1 -46 10 -20 8 -39 13 -42 10 -3 -3 10 -11 28 -19 78 -32 75 -82
-3 -57 -24 7 -51 20 -61 28 -9 9 -19 13 -22 10 -3 -3 10 -17 30 -32 19 -15 35
-33 35 -40 0 -23 -26 -26 -41 -5 -17 24 -32 25 -25 1 4 -13 -1 -23 -19 -32
-19 -10 -22 -16 -14 -27 7 -8 8 -13 1 -13 -5 0 -15 7 -22 15 -7 8 -17 12 -24
8 -6 -4 -54 -8 -107 -8 -95 0 -97 0 -127 -31 -19 -20 -32 -47 -37 -75 -9 -53
-29 -94 -52 -108 -16 -9 -17 -10 -1 -11 20 0 54 46 63 86 16 68 27 92 50 102
23 11 25 9 30 -26 3 -20 13 -73 23 -118 11 -45 15 -89 11 -100 -6 -15 -8 -12
-8 14 -1 39 -21 44 -21 5 0 -29 -20 -56 -77 -107 -32 -28 -32 -28 -83 74 -50
100 -60 139 -28 106 27 -26 30 -18 6 14 -22 30 -22 30 13 60 18 16 41 32 49
35 8 3 23 18 32 35 17 29 17 29 -50 -7 -37 -20 -89 -47 -115 -61 -32 -17 -44
-28 -35 -33 14 -9 -30 -29 -62 -29 -11 0 -37 -6 -57 -14 -61 -24 -213 -50
-224 -39 -15 15 8 102 41 153 55 85 79 101 167 110 104 11 196 34 288 71 42
17 107 36 143 44 37 7 94 24 127 37 33 14 69 28 79 32 15 5 17 9 8 18 -7 7
-12 20 -12 29 0 10 -11 19 -28 22 -15 3 -40 17 -55 31 -30 28 -31 28 -17 -8 7
-19 17 -26 35 -26 37 0 30 -17 -12 -28 -35 -9 -35 -10 -10 -11 16 -1 37 4 49
10 11 6 23 7 26 3 4 -4 1 -9 -6 -11 -6 -3 -10 -8 -7 -13 6 -11 -128 -66 -180
-75 -22 -3 -50 -8 -63 -11 -22 -5 -23 -4 -6 21 27 42 20 136 -16 209 -17 33
-29 60 -28 61 2 2 45 5 97 7 52 2 85 1 75 -3 -10 -4 -39 -8 -64 -9 -37 -2 -41
-3 -20 -10 14 -4 38 -5 54 -2 27 5 28 3 23 -20 -6 -24 -4 -27 42 -38 27 -6 62
-9 79 -7 34 5 178 -8 206 -19 16 -6 18 -4 14 14 -4 14 -2 22 7 22 7 0 11 9 8
23 -4 22 -4 22 125 22 77 0 128 -4 124 -9 -16 -27 48 34 81 76 38 49 57 54 57
17 0 -11 6 -22 14 -25 8 -3 17 -15 20 -27 3 -12 23 -40 45 -62 29 -29 38 -46
35 -61 -4 -16 5 -29 38 -54 65 -50 66 -52 23 -37 -86 31 -140 31 -163 3 -14
-18 -22 -22 -25 -14 -3 7 -6 0 -6 -15 -1 -19 3 -26 11 -21 7 4 8 3 4 -5 -4 -6
-11 -9 -15 -7 -4 3 -19 -6 -34 -20 -14 -13 -31 -24 -37 -24 -19 0 -10 19 20
40 17 12 30 28 30 37 0 12 -6 9 -23 -9 -13 -14 -35 -33 -50 -42 -34 -23 -25
-49 15 -44 16 3 31 1 34 -3 6 -11 80 71 88 99 9 29 42 47 49 27 3 -7 16 -19
29 -26 23 -12 23 -12 4 10 -24 27 -5 29 51 6 19 -8 43 -15 53 -15 44 0 215
-129 196 -147 -3 -3 -22 7 -41 22 -31 23 -35 24 -23 6 7 -12 25 -27 41 -34 29
-13 34 -26 16 -44 -6 -6 -12 -19 -13 -29 -2 -11 -15 -23 -30 -29 -29 -10 -33
-7 -99 77 -19 23 -19 23 -3 -4 9 -15 16 -36 16 -48 0 -11 3 -19 8 -19 26 4 32
-1 20 -21 -7 -11 -18 -18 -25 -16 -7 3 -15 1 -18 -4 -10 -16 42 -11 55 5 7 9
18 14 24 12 21 -8 64 22 70 48 8 32 30 28 34 -7 2 -16 -7 -35 -25 -55 -28 -30
-28 -30 17 -46 89 -32 171 -89 218 -152 25 -33 42 -52 39 -43 -11 30 0 20 26
-25 64 -109 220 -204 364 -221 37 -5 28 0 -39 19 -117 33 -181 67 -248 131
-99 94 -141 217 -105 310 22 58 27 52 30 -43 5 -137 51 -223 159 -293 66 -43
169 -80 220 -79 21 0 9 6 -40 18 -89 22 -167 59 -222 106 -38 33 -59 67 -30
49 6 -4 0 8 -15 27 -40 53 -57 102 -57 169 0 59 1 60 28 60 23 0 27 4 28 30 1
35 -13 41 -18 8 -3 -25 -23 -23 -23 2 -1 35 150 124 162 95 15 -40 -39 -124
-81 -126 -18 -1 -18 -2 -3 -6 48 -12 107 72 99 143 -4 47 -4 47 -98 17 -50
-16 -52 -16 -82 5 -36 26 -37 27 -40 5 -1 -10 -4 -34 -8 -54 -4 -25 -1 -40 10
-51 22 -23 7 -31 -23 -12 -53 33 -55 47 -29 151 9 38 14 42 53 52 73 18 101
14 155 -25 28 -20 53 -34 56 -31 14 13 -102 77 -139 77 -116 0 -140 -23 -154
-146 -5 -49 -4 -52 30 -78 34 -26 35 -27 20 -57 -16 -32 -15 -143 2 -184 5
-11 -7 -2 -26 21 -39 47 -136 115 -191 135 -44 15 -44 16 -21 49 19 27 18 62
-2 94 -7 12 -15 33 -19 48 -6 27 -115 128 -138 128 -18 0 -148 101 -148 116 0
7 9 28 20 46 24 40 25 48 4 48 -8 0 -12 -5 -9 -10 4 -6 1 -17 -5 -26 -14 -16
-40 -2 -40 23 0 8 -4 12 -9 9 -5 -3 -16 5 -25 19 -9 14 -12 25 -7 25 5 0 7 9
4 19 -3 12 -11 17 -19 14 -9 -3 -14 2 -14 15 0 12 -5 24 -10 27 -9 6 -7 160 5
270 3 29 2 35 -5 20 -5 -11 -12 -78 -17 -150 -4 -71 -9 -113 -11 -92 -2 20 -7
37 -12 37 -5 0 -7 -13 -4 -28 4 -19 0 -35 -13 -50 -34 -41 -257 -37 -290 6 -9
10 -13 11 -13 3 0 -7 -4 -9 -10 -6 -5 3 -10 2 -10 -3 0 -19 122 -44 199 -40
139 6 75 -60 -67 -69 -110 -8 -150 6 -186 63 -32 50 -28 59 27 71 26 5 39 23
16 23 -5 0 -8 4 -4 10 3 5 0 18 -7 29 -10 17 -9 24 10 44 12 13 22 29 22 36 0
7 4 9 10 6 5 -3 7 0 5 7 -4 9 11 22 41 36 26 13 44 25 41 28 -3 3 -19 -2 -36
-10 -16 -9 -36 -16 -43 -16 -8 0 -22 -19 -33 -42 -40 -86 -65 -49 -65 97 0 73
-4 97 -16 110 -65 65 -228 84 -348 41z m269 -13 c78 -33 82 -39 84 -172 2
-139 23 -122 -179 -145 -152 -18 -213 -18 -207 -2 3 6 -6 26 -20 44 -13 17
-19 32 -13 32 6 0 8 5 5 10 -3 6 -1 10 5 10 7 0 10 -7 7 -15 -4 -8 -1 -17 4
-21 7 -4 9 5 7 22 -2 19 -8 28 -17 26 -35 -7 -47 9 -21 28 14 11 20 20 14 20
-6 0 -9 13 -6 31 5 34 18 28 25 -11 4 -21 5 -19 6 8 0 20 -4 35 -13 38 -8 3
-17 12 -20 20 -29 76 210 130 339 77z m116 -313 c29 -16 24 -54 -8 -69 -26
-12 -30 -11 -55 20 -35 41 -35 47 0 52 15 2 31 5 35 6 5 0 17 -4 28 -9z m-138
-17 c-13 -2 -23 -11 -23 -20 0 -9 -6 -13 -15 -9 -8 3 -15 1 -15 -3 0 -5 5 -11
11 -13 16 -5 -15 -63 -38 -72 -15 -6 -16 -5 -1 11 33 38 29 50 -23 74 -50 24
-50 24 8 30 71 7 128 8 96 2z m63 -40 c40 -60 55 -96 52 -125 -2 -17 2 -33 9
-35 7 -3 9 4 6 18 -4 16 -3 20 6 15 14 -9 5 -67 -13 -78 -7 -5 -6 -8 3 -8 8 0
12 -3 8 -6 -3 -4 -21 3 -39 14 -18 11 -65 26 -103 32 -39 7 -80 19 -93 27 -21
13 -23 13 -20 -3 2 -13 -4 -18 -22 -19 -15 0 -24 -5 -23 -12 2 -7 -2 -13 -7
-13 -40 0 41 94 90 103 26 6 35 16 56 62 30 65 59 74 90 28z m501 -70 c-4 -3
-7 0 -7 7 0 7 3 10 7 7 3 -4 3 -10 0 -14z m-629 -115 c-3 -7 -13 -15 -24 -17
-16 -3 -17 -1 -5 13 16 19 34 21 29 4z m-51 -5 c-4 -3 -10 -3 -14 0 -3 4 0 7
7 7 7 0 10 -3 7 -7z m183 -13 c20 -13 -5 -13 -35 0 -20 9 -20 9 0 9 11 0 27
-4 35 -9z m-383 -97 c-3 -10 -5 -4 -5 12 0 17 2 24 5 18 2 -7 2 -21 0 -30z
m-22 -102 c-6 -11 -63 -41 -77 -41 -19 0 -6 19 25 34 36 17 61 21 52 7z m-88
-68 c-4 -3 -7 0 -7 7 0 7 3 10 7 7 3 -4 3 -10 0 -14z m1732 -52 c24 -18 25
-18 55 0 17 10 40 19 51 19 13 0 6 -7 -20 -19 -22 -10 -55 -30 -73 -45 -48
-41 -84 -19 -63 37 12 32 18 33 50 8z m-1171 -220 c23 -12 86 -30 139 -41 107
-22 123 -31 107 -58 -14 -22 -45 -18 -156 19 -99 33 -161 66 -152 81 4 6 -1 8
-13 4 -14 -4 -28 3 -49 26 -29 33 -29 33 2 6 50 -46 50 -32 0 22 -71 76 -58
95 17 23 34 -33 81 -70 105 -82z m-548 81 c0 -9 -45 -37 -83 -51 -44 -17 -30
-1 18 20 24 11 47 24 50 29 7 12 15 13 15 2z m910 -47 c0 -3 -10 -10 -22 -16
-21 -9 -21 -9 5 -4 35 7 34 -2 -5 -42 -47 -48 -71 -45 -66 10 1 23 8 45 13 49
11 9 75 11 75 3z m-55 -130 c0 -14 -8 -21 -26 -23 -24 -3 -26 0 -21 23 6 32
47 32 47 0z m886 -62 c13 -16 12 -17 -3 -4 -10 7 -18 15 -18 17 0 8 8 3 21
-13z"/>
<path d="M1430 1665 c-36 -7 -72 -10 -80 -7 -12 4 -12 2 -3 -8 9 -10 25 -10
80 0 38 7 90 11 116 9 56 -5 63 6 10 15 -45 7 -42 7 -123 -9z"/>
<path d="M1625 1220 c-10 -11 -15 -23 -12 -27 7 -6 36 25 37 40 0 11 -6 8 -25
-13z"/>
<path d="M1540 1160 c0 -5 5 -10 10 -10 6 0 10 5 10 10 0 6 -4 10 -10 10 -5 0
-10 -4 -10 -10z"/>
<path d="M1655 1140 c3 -5 8 -10 11 -10 2 0 4 5 4 10 0 6 -5 10 -11 10 -5 0
-7 -4 -4 -10z"/>
<path d="M1139 1646 c-11 -48 5 -78 35 -67 13 6 27 7 31 3 7 -7 -4 49 -11 57
-2 2 -4 -8 -4 -22 0 -50 -38 -35 -42 16 -3 39 -4 40 -9 13z"/>
<path d="M248 1589 c-18 -16 -24 -26 -13 -20 33 17 71 51 58 51 -7 0 -27 -14
-45 -31z"/>
<path d="M2303 1520 c-35 -41 -43 -61 -18 -40 22 18 20 -8 -2 -32 -9 -10 -11
-18 -5 -18 15 0 35 38 28 56 -3 8 -2 14 3 14 5 0 11 9 14 20 7 29 35 36 53 14
15 -18 15 -18 10 -1 -3 10 -6 21 -6 23 0 20 -51 -3 -77 -36z"/>
<path d="M2463 1548 c-4 -7 -12 -22 -18 -32 -5 -11 -16 -21 -24 -24 -8 -3 -11
-1 -8 4 3 5 -5 9 -18 9 -13 0 -21 -3 -18 -7 2 -5 12 -8 21 -8 12 0 7 -9 -16
-33 -25 -26 -29 -36 -20 -45 17 -17 25 -15 31 6 2 11 17 22 36 25 17 4 31 12
31 18 0 6 -6 9 -12 6 -53 -21 -54 -21 -40 -4 8 9 22 19 32 22 10 3 20 15 22
27 5 32 36 47 52 26 18 -24 29 -23 16 2 -12 22 -54 27 -67 8z m-78 -117 c-3
-6 -11 -11 -17 -11 -6 0 -6 6 2 15 14 17 26 13 15 -4z"/>
<path d="M1857 1459 c7 -7 15 -10 18 -7 3 3 -2 9 -12 12 -14 6 -15 5 -6 -5z"/>
<path d="M2565 1450 c21 -24 26 -25 19 -6 -3 8 -13 17 -22 21 -13 5 -13 2 3
-15z"/>
<path d="M2273 1376 c7 -15 16 -21 21 -16 6 6 4 15 -4 25 -19 23 -29 18 -17
-9z"/>
<path d="M2636 1375 c-18 -27 -18 -27 -114 -22 -54 3 -110 8 -127 11 -17 3
-11 -1 15 -10 74 -25 204 -24 231 2 12 12 20 27 17 34 -2 8 -11 2 -22 -15z"/>
<path d="M2330 1370 c0 -5 5 -10 10 -10 6 0 10 5 10 10 0 6 -4 10 -10 10 -5 0
-10 -4 -10 -10z"/>
<path d="M1785 1360 c11 -5 29 -9 40 -9 20 0 20 0 0 9 -11 5 -29 9 -40 9 -20
0 -20 0 0 -9z"/>
<path d="M2210 1350 c-13 -8 -12 -10 3 -10 9 0 17 5 17 10 0 12 -1 12 -20 0z"/>
<path d="M1853 1343 c4 -3 10 -3 14 0 3 4 0 7 -7 7 -7 0 -10 -3 -7 -7z"/>
<path d="M2320 1343 c-8 -3 -22 -12 -31 -20 -14 -12 -18 -11 -30 3 -13 16 -15
13 -19 -22 -4 -29 -9 -39 -22 -38 -20 2 -23 -40 -7 -86 7 -19 8 -15 4 20 -3
40 -1 46 20 56 20 10 25 9 29 -5 3 -9 4 -7 3 6 -2 23 38 73 60 73 7 0 13 5 13
10 0 6 -1 10 -2 9 -2 0 -10 -3 -18 -6z"/>
<path d="M2590 1320 c-9 -6 -10 -10 -3 -10 6 0 15 5 18 10 8 12 4 12 -15 0z"/>
<path d="M2330 1295 c-7 -9 -11 -18 -8 -20 3 -3 11 1 18 10 7 9 11 18 8 20 -3
3 -11 -1 -18 -10z"/>
<path d="M2438 1293 c12 -2 30 -2 40 0 9 3 -1 5 -23 4 -22 0 -30 -2 -17 -4z"/>
<path d="M2575 1276 c17 -14 41 -31 55 -38 14 -7 27 -13 29 -15 2 -1 -17 -27
-42 -57 -35 -43 -47 -52 -50 -39 -3 13 -5 11 -6 -6 0 -13 -17 -46 -37 -73 -60
-84 -31 -63 41 29 38 49 79 96 92 106 33 26 29 44 -15 66 -21 11 -44 27 -51
35 -8 9 -21 16 -30 16 -11 0 -7 -8 14 -24z"/>
<path d="M2100 1240 c0 -7 3 -10 7 -7 3 4 3 10 0 14 -4 3 -7 0 -7 -7z"/>
<path d="M2318 1238 c-18 -15 -35 -74 -18 -63 5 3 10 14 10 24 0 26 41 36 58
14 17 -24 11 -48 -13 -48 -14 0 -19 -7 -18 -20 1 -11 -4 -23 -10 -27 -9 -5 -9
-10 -1 -18 8 -8 17 -1 31 27 18 34 24 38 52 35 18 -2 43 4 56 12 41 27 39 18
-9 -35 -25 -28 -46 -56 -46 -63 0 -6 11 3 24 19 13 17 30 30 38 30 7 1 12 7
10 14 -2 8 4 21 13 31 8 9 12 20 8 23 -3 4 5 7 18 7 13 0 31 5 39 10 34 22
-38 9 -86 -15 -62 -32 -65 -31 -57 5 3 19 1 30 -6 30 -6 0 -11 -10 -11 -22 0
-20 -2 -19 -20 10 -21 34 -37 39 -62 20z"/>
<path d="M2340 1200 c0 -7 3 -10 7 -7 3 4 3 10 0 14 -4 3 -7 0 -7 -7z"/>
<path d="M2376 1118 c8 -28 12 -33 20 -25 9 8 -6 47 -17 47 -6 0 -7 -10 -3
-22z"/>
<path d="M1763 1113 c4 -3 10 -3 14 0 3 4 0 7 -7 7 -7 0 -10 -3 -7 -7z"/>
<path d="M240 1070 c0 -7 3 -10 7 -7 3 4 3 10 0 14 -4 3 -7 0 -7 -7z"/>
<path d="M1387 1063 c-3 -5 -1 -17 4 -28 7 -17 8 -17 8 8 1 27 -4 34 -12 20z"/>
<path d="M251 1040 c-1 -8 13 -44 29 -79 17 -35 29 -65 27 -67 -1 -2 -51 -6
-110 -10 -59 -4 -107 -11 -107 -15 0 -8 31 -6 160 6 64 6 65 6 96 -27 40 -43
91 -113 76 -104 -7 4 -12 2 -12 -3 0 -6 6 -11 13 -11 7 0 31 -18 52 -40 39
-40 39 -40 41 -127 1 -48 5 -113 8 -143 4 -42 3 -49 -4 -31 -12 29 -22 24 -13
-7 3 -12 12 -22 19 -22 18 0 18 -20 0 -45 -23 -34 -27 -72 -11 -102 8 -15 29
-62 46 -103 33 -79 55 -114 40 -64 -15 50 -68 175 -79 186 -11 11 -5 39 11 49
12 8 13 61 4 219 -9 152 -9 154 -61 211 -22 26 -57 68 -76 94 -19 26 -44 56
-56 67 -18 16 -46 69 -82 158 -6 14 -11 18 -11 10z"/>
<path d="M1510 1040 c0 -7 3 -10 7 -7 3 4 3 10 0 14 -4 3 -7 0 -7 -7z"/>
<path d="M1645 1038 c53 -15 70 -37 43 -57 -18 -12 -25 -12 -54 3 -40 19 -48
20 -39 6 3 -5 1 -10 -4 -10 -6 0 -11 4 -11 9 0 5 -7 11 -15 15 -8 3 -15 1 -15
-4 0 -15 39 -31 81 -34 48 -4 64 -16 23 -17 -29 -1 -29 -1 5 -9 63 -15 75 4
62 100 -1 3 -27 6 -59 7 -57 1 -57 1 -17 -9z m70 -78 c-3 -5 -10 -10 -16 -10
-5 0 -9 5 -9 10 0 6 7 10 16 10 8 0 12 -4 9 -10z"/>
<path d="M2369 1024 c-13 -15 -18 -25 -10 -22 13 4 49 48 39 48 -2 0 -15 -12
-29 -26z"/>
<path d="M2422 1023 c-18 -48 -25 -79 -15 -68 16 16 44 95 34 95 -5 0 -13 -12
-19 -27z"/>
<path d="M1816 1005 c4 -8 11 -15 16 -15 6 0 8 -7 4 -15 -3 -8 -1 -15 4 -15 6
0 10 7 10 15 0 8 4 15 9 15 5 0 11 -7 15 -15 3 -8 11 -15 17 -15 8 0 9 4 0 13
-20 25 4 25 161 1 20 -3 44 -2 53 3 11 6 -26 13 -116 22 -72 6 -134 10 -137 7
-2 -3 -13 -1 -23 5 -15 7 -17 6 -13 -6z"/>
<path d="M1395 990 c3 -5 8 -10 11 -10 3 0 2 5 -1 10 -3 6 -8 10 -11 10 -3 0
-2 -4 1 -10z"/>
<path d="M2520 989 c0 -5 5 -7 10 -4 6 3 10 8 10 11 0 2 -4 4 -10 4 -5 0 -10
-5 -10 -11z"/>
<path d="M1765 980 c3 -5 -1 -10 -10 -10 -9 0 -13 -5 -10 -10 4 -6 15 -8 24
-5 11 3 25 -3 37 -16 10 -11 28 -26 39 -31 11 -6 -1 10 -27 35 -44 44 -67 60
-53 37z"/>
<path d="M1910 960 c0 -5 17 -10 38 -10 27 0 33 3 22 10 -20 13 -60 13 -60 0z"/>
<path d="M2621 957 c14 -7 40 -24 58 -39 18 -16 37 -28 42 -28 12 0 -48 53
-78 69 -12 6 -28 11 -35 10 -7 0 -1 -6 13 -12z"/>
<path d="M2031 944 c0 -11 3 -14 6 -6 3 7 2 16 -1 19 -3 4 -6 -2 -5 -13z"/>
<path d="M2595 925 c17 -13 35 -24 40 -24 6 0 -3 11 -20 24 -16 14 -34 25 -40
25 -5 0 4 -11 20 -25z"/>
<path d="M1077 925 c-4 -8 -2 -17 3 -20 6 -4 10 3 10 14 0 25 -6 27 -13 6z"/>
<path d="M1715 920 c3 -5 8 -10 11 -10 2 0 4 5 4 10 0 6 -5 10 -11 10 -5 0 -7
-4 -4 -10z"/>
<path d="M2463 923 c4 -3 10 -3 14 0 3 4 0 7 -7 7 -7 0 -10 -3 -7 -7z"/>
<path d="M2208 913 c7 -3 16 -2 19 1 4 3 -2 6 -13 5 -11 0 -14 -3 -6 -6z"/>
<path d="M2323 913 c4 -3 10 -3 14 0 3 4 0 7 -7 7 -7 0 -10 -3 -7 -7z"/>
<path d="M2368 897 c13 -14 33 -27 44 -30 24 -7 23 -5 -27 29 -40 26 -40 26
-17 1z"/>
<path d="M1740 896 c0 -8 7 -17 16 -20 25 -9 26 -2 4 17 -16 13 -20 14 -20 3z"/>
<path d="M1890 895 c-7 -8 -22 -16 -34 -16 -18 -1 -18 -2 -2 -6 10 -3 23 0 28
5 6 6 22 7 40 1 30 -8 30 -8 13 11 -22 24 -29 25 -45 5z"/>
<path d="M2284 882 c16 -17 38 -34 48 -38 13 -4 17 -12 13 -24 -3 -10 -1 -21
5 -25 6 -4 10 6 10 24 0 21 -5 31 -15 31 -8 0 -31 14 -52 32 -38 32 -38 32 -9
0z"/>
<path d="M13 833 c2 -27 14 -86 25 -133 12 -47 36 -150 53 -230 57 -263 76
-340 78 -315 1 12 -26 143 -40 198 -22 83 -91 425 -96 475 -3 28 -10 52 -15
52 -6 0 -8 -20 -5 -47z"/>
<path d="M1793 855 c0 -12 3 -12 16 -3 9 7 18 14 20 15 2 2 -5 3 -16 3 -11 0
-20 -7 -20 -15z"/>
<path d="M2280 850 c0 -7 3 -10 7 -7 3 4 3 10 0 14 -4 3 -7 0 -7 -7z"/>
<path d="M2303 813 c4 -3 10 -3 14 0 3 4 0 7 -7 7 -7 0 -10 -3 -7 -7z"/>
<path d="M2126 775 c4 -8 10 -15 15 -15 5 0 4 -11 -1 -25 -9 -23 -8 -25 10
-15 27 14 25 34 -5 54 -21 14 -24 14 -19 1z"/>
<path d="M1846 768 c3 -4 9 -8 15 -8 5 0 9 4 9 8 0 5 -7 9 -15 9 -8 0 -12 -4
-9 -9z"/>
<path d="M2280 776 c0 -2 8 -10 18 -17 15 -13 16 -12 3 4 -13 16 -21 21 -21
13z"/>
<path d="M260 739 c0 -4 7 -12 15 -19 18 -15 42 0 31 18 -7 12 -46 12 -46 1z
m40 -9 c0 -5 -4 -10 -10 -10 -5 0 -10 5 -10 10 0 6 5 10 10 10 6 0 10 -4 10
-10z"/>
<path d="M1626 732 c-3 -5 3 -17 14 -27 10 -9 17 -22 16 -28 -2 -7 -1 -9 1 -5
2 4 13 -2 24 -13 10 -10 24 -19 31 -19 6 0 1 9 -11 19 -16 14 -18 21 -9 24 9
4 7 6 -4 6 -9 1 -26 12 -36 26 -11 14 -23 22 -26 17z"/>
<path d="M1668 733 c7 -3 16 -2 19 1 4 3 -2 6 -13 5 -11 0 -14 -3 -6 -6z"/>
<path d="M2185 730 c3 -6 21 -17 38 -26 32 -16 32 -16 2 10 -31 26 -51 34 -40
16z"/>
<path d="M1755 710 c3 -5 8 -10 11 -10 3 0 2 5 -1 10 -3 6 -8 10 -11 10 -3 0
-2 -4 1 -10z"/>
<path d="M2155 700 c-3 -5 -1 -10 4 -10 6 0 11 5 11 10 0 6 -2 10 -4 10 -3 0
-8 -4 -11 -10z"/>
<path d="M1780 690 c0 -5 5 -10 11 -10 5 0 7 5 4 10 -3 6 -8 10 -11 10 -2 0
-4 -4 -4 -10z"/>
<path d="M2036 693 c-10 -10 -7 -25 4 -18 6 4 18 1 26 -6 8 -6 17 -10 20 -7 2
3 -6 12 -20 21 -13 9 -26 13 -30 10z"/>
<path d="M1958 683 c7 -3 16 -2 19 1 4 3 -2 6 -13 5 -11 0 -14 -3 -6 -6z"/>
<path d="M2263 683 c4 -3 10 -3 14 0 3 4 0 7 -7 7 -7 0 -10 -3 -7 -7z"/>
<path d="M1733 673 c4 -3 10 -3 14 0 3 4 0 7 -7 7 -7 0 -10 -3 -7 -7z"/>
<path d="M1890 660 c-14 -11 -20 -20 -14 -20 6 0 17 7 24 15 9 11 15 13 20 5
5 -8 9 -7 13 4 9 22 -13 20 -43 -4z"/>
<path d="M1370 650 c0 -7 3 -10 7 -7 3 4 3 10 0 14 -4 3 -7 0 -7 -7z"/>
<path d="M1735 640 c8 -13 93 -50 114 -50 9 1 0 8 -19 16 -32 15 -33 17 -15
25 14 6 9 7 -16 3 -22 -3 -39 -1 -43 5 -4 6 -12 11 -17 11 -6 0 -7 -4 -4 -10z"/>
<path d="M3164 635 c88 -31 156 -111 157 -184 0 -38 2 -43 10 -25 35 70 -95
226 -187 224 -10 -1 -2 -7 20 -15z"/>
<path d="M2450 630 c20 -13 33 -13 25 0 -3 6 -14 10 -23 10 -15 0 -15 -2 -2
-10z"/>
<path d="M465 620 c-30 -8 -30 -8 -3 -9 15 0 30 4 33 9 3 6 5 9 3 9 -2 -1 -16
-5 -33 -9z"/>
<path d="M1387 610 c10 -39 42 -107 42 -90 0 8 -10 38 -24 65 -14 28 -22 39
-18 25z"/>
<path d="M363 603 c9 -2 25 -2 35 0 9 3 1 5 -18 5 -19 0 -27 -2 -17 -5z"/>
<path d="M2473 603 c4 -3 10 -3 14 0 3 4 0 7 -7 7 -7 0 -10 -3 -7 -7z"/>
<path d="M215 584 c-40 -13 -40 -13 0 -8 40 6 52 11 44 18 -2 2 -22 -3 -44
-10z"/>
<path d="M283 593 c9 -2 25 -2 35 0 9 3 1 5 -18 5 -19 0 -27 -2 -17 -5z"/>
<path d="M1176 555 c4 -8 8 -15 10 -15 2 0 4 7 4 15 0 8 -4 15 -10 15 -5 0 -7
-7 -4 -15z"/>
<path d="M131 554 c-1 -7 6 -27 14 -45 8 -19 14 -27 14 -19 0 18 -27 79 -28
64z"/>
<path d="M2615 550 c3 -5 8 -10 11 -10 3 0 2 5 -1 10 -3 6 -8 10 -11 10 -3 0
-2 -4 1 -10z"/>
<path d="M3054 521 c3 -29 12 -51 27 -65 22 -21 22 -21 6 6 -10 15 -22 45 -27
65 -10 38 -10 38 -6 -6z"/>
<path d="M3140 551 c0 -5 -11 -23 -25 -39 -22 -26 -23 -31 -9 -48 15 -19 15
-18 10 1 -3 11 3 31 13 44 18 24 18 24 40 2 18 -18 20 -25 10 -37 -7 -9 -8
-14 -1 -14 18 0 20 24 5 55 -14 30 -14 30 9 3 13 -14 34 -42 48 -62 17 -24 33
-35 50 -35 24 -1 24 0 -5 14 -17 9 -39 31 -49 50 -27 50 -96 98 -96 66z"/>
<path d="M2941 512 c-1 -30 22 -92 35 -92 2 0 0 9 -6 20 -6 12 -15 40 -20 63
-7 40 -8 40 -9 9z"/>
<path d="M2320 521 c0 -5 5 -13 10 -16 6 -3 10 -2 10 4 0 5 -4 13 -10 16 -5 3
-10 2 -10 -4z"/>
<path d="M2363 513 c9 -2 23 -2 30 0 6 3 -1 5 -18 5 -16 0 -22 -2 -12 -5z"/>
<path d="M2981 505 c0 -11 9 -31 20 -45 20 -25 20 -25 6 5 -8 17 -17 37 -20
45 -4 11 -6 9 -6 -5z"/>
<path d="M1640 506 c0 -2 8 -10 18 -17 15 -13 16 -12 3 4 -13 16 -21 21 -21
13z"/>
<path d="M2707 482 c17 -16 40 -47 51 -68 20 -40 42 -161 24 -135 -6 8 -12 9
-16 3 -3 -6 0 -12 6 -15 40 -14 -86 -94 -159 -101 -63 -7 -95 -18 -85 -28 6
-6 18 -6 32 2 21 11 22 10 18 -7 -3 -13 2 -24 13 -32 15 -9 19 -8 19 4 0 8 -4
15 -10 15 -31 0 -1 21 56 40 72 24 125 64 143 109 23 55 -40 201 -101 232 -17
8 -15 4 9 -19z"/>
<path d="M3010 505 c0 -35 73 -126 88 -110 3 2 -7 15 -23 27 -15 12 -34 36
-41 55 -13 29 -24 43 -24 28z"/>
<path d="M2104 488 c-4 -7 -3 -8 4 -4 7 4 12 9 12 12 0 8 -9 4 -16 -8z"/>
<path d="M2395 491 c-11 -5 -26 -6 -34 -3 -9 3 -12 1 -8 -5 12 -19 70 -35 63
-18 -3 10 5 18 27 24 32 9 32 9 2 9 -16 1 -39 -3 -50 -7z"/>
<path d="M2500 480 c0 -5 9 -14 20 -20 11 -6 20 -17 20 -24 0 -28 -61 -35
-106 -11 -16 8 -36 15 -46 15 -9 0 -18 5 -20 12 -3 9 -6 9 -11 0 -5 -7 6 -15
32 -22 22 -6 43 -15 46 -20 11 -18 134 -9 127 9 -15 42 -62 88 -62 61z"/>
<path d="M3140 475 c0 -8 4 -15 10 -15 5 0 7 7 4 15 -4 8 -8 15 -10 15 -2 0
-4 -7 -4 -15z"/>
<path d="M1785 450 c27 -12 43 -12 25 0 -8 5 -22 9 -30 9 -10 0 -8 -3 5 -9z"/>
<path d="M2165 428 c-27 -15 -43 -28 -35 -28 8 0 29 9 45 20 17 11 41 20 55
20 14 0 31 4 39 9 37 23 -59 4 -104 -21z"/>
<path d="M170 439 c0 -5 5 -7 10 -4 6 3 10 8 10 11 0 2 -4 4 -10 4 -5 0 -10
-5 -10 -11z"/>
<path d="M2320 440 c0 -7 3 -10 7 -7 3 4 3 10 0 14 -4 3 -7 0 -7 -7z"/>
<path d="M1833 433 c4 -3 10 -3 14 0 3 4 0 7 -7 7 -7 0 -10 -3 -7 -7z"/>
<path d="M170 410 c0 -5 5 -10 11 -10 5 0 7 5 4 10 -3 6 -8 10 -11 10 -2 0 -4
-4 -4 -10z"/>
<path d="M560 413 c0 -13 71 -79 95 -87 11 -4 17 -5 15 -3 -3 2 -29 25 -57 52
-29 26 -53 44 -53 38z"/>
<path d="M1793 403 c4 -3 10 -3 14 0 3 4 0 7 -7 7 -7 0 -10 -3 -7 -7z"/>
<path d="M2602 373 c14 -16 40 -50 57 -78 32 -52 43 -52 13 0 -37 65 -68 105
-81 105 -10 0 -6 -9 11 -27z"/>
<path d="M1860 369 c-25 -5 -52 -6 -61 -4 -22 7 -43 -20 -36 -47 6 -25 71
-183 110 -268 40 -85 32 -39 -9 53 -58 132 -92 224 -85 233 3 5 21 10 39 12
35 4 126 30 102 30 -8 0 -35 -4 -60 -9z"/>
<path d="M2210 365 c7 -8 20 -15 29 -15 13 1 13 3 -3 15 -26 19 -42 19 -26 0z"/>
<path d="M2272 355 c-11 -12 -10 -15 3 -15 8 0 15 7 15 15 0 18 -2 18 -18 0z"/>
<path d="M181 344 c0 -11 3 -14 6 -6 3 7 2 16 -1 19 -3 4 -6 -2 -5 -13z"/>
<path d="M190 306 c0 -8 4 -17 9 -20 5 -4 7 3 4 14 -6 23 -13 26 -13 6z"/>
<path d="M1420 310 c0 -7 3 -10 7 -7 3 4 3 10 0 14 -4 3 -7 0 -7 -7z"/>
<path d="M2706 260 c21 -43 24 -47 24 -28 0 9 -9 26 -20 39 -21 24 -21 24 -4
-11z"/>
<path d="M1183 206 c-24 -25 -34 -116 -14 -116 6 0 7 15 4 34 -4 25 1 44 17
70 25 42 24 45 -7 12z"/>
<path d="M2490 210 c0 -7 3 -10 7 -7 3 4 3 10 0 14 -4 3 -7 0 -7 -7z"/>
<path d="M2890 210 c8 -5 20 -10 25 -10 6 0 3 5 -5 10 -8 5 -19 10 -25 10 -5
0 -3 -5 5 -10z"/>
<path d="M2385 182 c11 -12 155 -21 155 -10 0 5 -19 8 -42 8 -24 0 -61 3 -83
6 -28 5 -37 3 -30 -4z"/>
<path d="M220 160 c0 -7 3 -10 7 -7 3 4 3 10 0 14 -4 3 -7 0 -7 -7z"/>
<path d="M367 139 c4 -13 8 -18 11 -10 2 7 -1 18 -6 23 -8 8 -9 4 -5 -13z"/>
<path d="M2480 142 c0 -13 23 -32 40 -32 12 1 12 3 -3 11 -9 6 -15 14 -12 20
4 5 -1 9 -9 9 -9 0 -16 -4 -16 -8z"/>
<path d="M1436 100 c4 -14 15 -43 25 -65 11 -22 16 -29 13 -15 -4 14 -15 43
-25 65 -11 22 -16 29 -13 15z"/>
<path d="M1541 100 c-1 -17 35 -100 43 -100 3 0 -3 19 -13 43 -10 23 -20 49
-24 57 -5 13 -5 13 -6 0z"/>
<path d="M1810 100 c0 -7 3 -10 7 -7 3 4 3 10 0 14 -4 3 -7 0 -7 -7z"/>
<path d="M2408 103 c12 -2 30 -2 40 0 9 3 -1 5 -23 4 -22 0 -30 -2 -17 -4z"/>
<path d="M2503 73 c4 -3 10 -3 14 0 3 4 0 7 -7 7 -7 0 -10 -3 -7 -7z"/>
<path d="M2586 72 c6 -4 14 -14 17 -22 4 -10 6 -8 6 8 1 15 -5 22 -16 22 -11
0 -14 -3 -7 -8z"/>
<path d="M2060 46 c0 -2 8 -10 18 -17 15 -13 16 -12 3 4 -13 16 -21 21 -21 13z"/>
<path d="M2543 43 c4 -3 10 -3 14 0 3 4 0 7 -7 7 -7 0 -10 -3 -7 -7z"/>
<path d="M2500 10 c-12 -8 -11 -10 8 -10 12 0 22 5 22 10 0 13 -11 13 -30 0z"/>
</g>
</svg>
