<?xml version="1.0" standalone="no"?>
<!DOCTYPE svg PUBLIC "-//W3C//DTD SVG 20010904//EN"
 "http://www.w3.org/TR/2001/REC-SVG-20010904/DTD/svg10.dtd">
<svg version="1.0" xmlns="http://www.w3.org/2000/svg"
 width="344.000000pt" height="256.000000pt" viewBox="0 0 344.000000 256.000000"
 preserveAspectRatio="xMidYMid meet">
<metadata>
Created by potrace 1.16, written by Peter Selinger 2001-2019
</metadata>
<g transform="translate(0.000000,256.000000) scale(0.100000,-0.100000)"
fill="#000000" stroke="none">
<path d="M380 2554 c0 -5 4 -14 9 -19 5 -6 46 -109 91 -230 123 -328 143 -374
151 -344 6 21 7 20 8 -10 2 -56 60 -157 134 -232 37 -38 74 -69 82 -69 7 0 21
-3 31 -7 12 -4 15 -3 10 5 -4 7 -15 12 -25 12 -10 0 -40 22 -67 49 -63 63 -93
97 -75 86 11 -6 13 -4 6 11 -4 10 -17 42 -27 69 -19 50 -19 50 -15 10 5 -40 5
-40 -8 -10 -23 49 -19 84 18 187 13 38 91 107 128 115 18 3 34 14 38 26 7 19
8 19 14 3 5 -13 14 -16 31 -12 14 3 36 2 51 -4 17 -7 24 -7 20 0 -9 14 1 12
38 -6 52 -27 97 -65 90 -77 -3 -5 -1 -7 4 -4 12 8 75 -81 98 -138 18 -42 19
-87 3 -103 -13 -13 -19 -52 -7 -52 3 0 9 10 13 22 8 32 26 11 31 -38 3 -21 3
-33 -1 -26 -3 6 -10 9 -15 6 -6 -4 -6 -11 1 -19 17 -20 -2 -47 -34 -51 -18 -2
-24 1 -20 9 5 9 4 9 -6 0 -19 -17 -3 -35 21 -23 28 15 24 4 -18 -46 -60 -72
-81 -79 -161 -54 -37 12 -75 25 -84 31 -41 22 -67 11 -99 -41 -33 -54 -44 -60
-52 -32 -15 49 -96 235 -97 221 0 -17 79 -218 107 -272 11 -23 12 -35 3 -56
-6 -16 -11 -52 -10 -82 3 -95 1 -108 -16 -141 -32 -62 -12 -159 40 -193 37
-25 72 -7 119 60 44 63 60 68 83 23 44 -87 73 -99 213 -89 109 7 113 9 146 41
33 32 35 38 35 101 0 77 -9 129 -21 129 -5 0 -6 -12 -2 -27 13 -45 8 -160 -7
-178 -27 -33 -71 -46 -173 -51 -117 -7 -140 3 -177 77 -11 21 -28 39 -36 39
-13 0 -15 7 -9 38 11 64 28 112 36 106 5 -3 9 2 9 10 0 9 9 16 20 16 13 0 24
10 30 25 5 14 19 38 31 54 40 55 16 69 -37 22 -26 -22 -50 -38 -55 -35 -5 3
-9 -3 -9 -13 0 -11 -12 -64 -26 -118 -52 -203 -139 -281 -195 -175 -32 60 -21
128 29 173 11 10 26 33 33 50 7 18 33 64 59 102 77 117 78 125 2 28 -22 -29
-53 -79 -68 -110 -28 -58 -28 -58 -38 -4 -7 43 -6 67 8 115 9 34 18 68 20 76
6 26 47 90 58 90 5 0 6 -4 3 -10 -3 -5 0 -7 9 -4 8 3 12 12 9 20 -4 10 8 8 48
-8 63 -25 86 -41 48 -35 -14 3 -32 1 -40 -4 -12 -7 -12 -9 1 -9 9 0 4 -6 -10
-14 -14 -7 -38 -12 -55 -10 -30 2 -30 2 3 -12 30 -13 36 -13 75 10 23 13 65
28 92 31 45 7 56 14 108 69 31 33 63 73 69 88 12 26 13 24 43 -55 35 -90 68
-120 222 -198 78 -40 139 -96 148 -138 9 -42 22 -47 17 -7 -3 26 1 34 22 44
31 14 48 41 71 112 9 30 34 105 55 165 51 148 90 277 89 295 0 18 -35 -77 -74
-204 -15 -49 -36 -97 -46 -107 -20 -20 -25 -34 -9 -24 12 8 13 2 1 -27 -5 -13
-19 -56 -32 -96 -16 -54 -30 -79 -52 -97 -31 -23 -31 -23 -67 14 -20 21 -93
70 -163 110 -153 88 -167 110 -227 380 -46 210 -184 346 -358 353 -61 3 -72 1
-72 -13 0 -11 -12 -19 -34 -23 -47 -9 -132 -102 -148 -162 -7 -24 -15 -44 -18
-44 -6 0 -60 124 -60 139 0 5 -11 36 -24 68 -14 32 -48 121 -76 198 -45 122
-80 192 -80 159z m585 -344 c14 -6 7 -7 -24 -5 -24 2 -46 6 -49 9 -8 9 51 6
73 -4z m-200 -50 c-3 -5 -12 -10 -18 -10 -7 0 -6 4 3 10 19 12 23 12 15 0z
m-35 -35 c-7 -8 -17 -15 -22 -15 -6 0 -5 7 2 15 7 8 17 15 22 15 6 0 5 -7 -2
-15z m-53 -62 c-4 -3 -7 0 -7 7 0 7 3 10 7 7 3 -4 3 -10 0 -14z m-7 -22 c0 -6
-4 -13 -10 -16 -5 -3 -10 1 -10 9 0 9 5 16 10 16 6 0 10 -4 10 -9z m227 -428
c-4 -3 -10 -3 -14 0 -3 4 0 7 7 7 7 0 10 -3 7 -7z m-80 -115 c-3 -8 -6 -5 -6
6 -1 11 2 17 5 13 3 -3 4 -12 1 -19z m293 -61 c0 -2 -10 -12 -22 -23 -23 -19
-23 -19 -4 4 18 21 26 27 26 19z m-38 -72 c-5 -31 -21 -42 -32 -24 -10 16 6
49 24 49 9 0 12 -9 8 -25z"/>
<path d="M3040 2550 c-8 -5 -31 -12 -51 -15 -56 -8 -75 -35 -54 -74 11 -23 13
-36 5 -50 -10 -19 -11 -19 -72 5 -34 13 -75 36 -90 51 -15 15 -28 22 -28 15 0
-17 60 -59 115 -79 29 -11 51 -26 53 -36 5 -24 -18 -22 -85 10 -32 14 -62 25
-68 24 -5 -2 -7 1 -3 4 6 7 -17 65 -26 65 -2 0 0 -17 6 -38 9 -36 14 -40 94
-74 75 -32 86 -35 91 -20 25 76 116 203 151 211 14 3 14 1 3 -13 -20 -24 14
-21 46 4 26 20 26 20 -23 19 -27 0 -56 -4 -64 -9z m-47 -64 c-32 -40 -38 -42
-47 -20 -8 22 22 53 52 53 24 1 24 1 -5 -33z"/>
<path d="M3186 2538 c-8 -13 -29 -54 -46 -91 -28 -61 -33 -67 -47 -55 -12 9
-15 10 -9 0 11 -19 -81 -262 -141 -372 -16 -27 -21 -46 -14 -48 13 -4 15 -22
2 -22 -13 0 -71 122 -71 149 0 12 6 21 13 21 9 0 9 2 0 8 -21 13 12 120 49
159 12 13 18 26 14 30 -11 11 -43 -34 -62 -87 -10 -25 -21 -49 -26 -54 -22
-26 4 -132 56 -220 28 -48 28 -48 55 -22 22 22 26 34 24 74 -3 54 58 212 114
297 18 27 33 58 33 69 0 11 20 57 45 103 40 74 48 117 11 61z m-76 -187 c0 -5
-6 -14 -14 -20 -12 -10 -13 -8 -9 8 5 21 23 30 23 12z m-141 -373 c1 -4 -5 -5
-13 -2 -8 3 -12 13 -8 27 5 20 6 20 13 1 4 -10 8 -22 8 -26z"/>
<path d="M3226 2538 c-9 -12 -16 -26 -16 -30 0 -4 -16 -33 -35 -65 -19 -32
-35 -62 -35 -68 0 -5 19 22 41 60 22 39 49 82 60 98 11 15 15 27 10 27 -5 0
-17 -10 -25 -22z"/>
<path d="M3285 2506 c-14 -31 -25 -64 -24 -74 0 -12 4 -10 12 8 6 14 20 44 30
68 11 23 17 46 13 49 -3 3 -17 -19 -31 -51z"/>
<path d="M3331 2509 c-11 -18 -23 -47 -27 -64 -3 -16 -28 -74 -55 -128 -27
-54 -49 -105 -49 -114 0 -21 -79 -202 -99 -228 -16 -20 -56 -23 -76 -4 -18 18
-24 9 -13 -18 16 -38 32 -54 25 -26 -5 21 -2 22 27 17 41 -6 63 18 98 111 46
122 78 199 98 240 11 22 31 73 45 114 14 41 32 85 41 99 8 13 13 26 10 29 -3
3 -14 -10 -25 -28z"/>
<path d="M3387 2533 c-4 -3 -7 -15 -7 -25 0 -10 -9 -37 -20 -61 -27 -59 -51
-129 -45 -135 2 -3 9 8 15 24 24 66 26 66 23 3 -6 -86 -20 -158 -39 -194 -9
-17 -18 -60 -19 -100 -2 -38 -12 -110 -24 -160 -35 -150 -22 -135 -110 -136
-42 0 -93 -2 -114 -4 -20 -1 -40 1 -43 6 -3 5 -1 9 4 9 6 0 13 17 17 38 7 41
27 92 36 92 7 0 40 -48 64 -93 11 -21 21 -33 23 -28 2 5 -9 31 -24 58 -15 26
-36 64 -46 83 -18 34 -18 34 -40 -18 -21 -51 -23 -52 -62 -52 -75 1 -138 30
-152 70 -12 33 -13 34 -13 8 -2 -51 62 -86 162 -90 45 -2 45 -2 30 -40 -21
-52 -6 -70 50 -61 30 4 38 3 33 -6 -4 -6 -16 -9 -27 -6 -29 9 -23 -4 7 -15 25
-10 26 -16 7 -67 -3 -7 -1 -13 5 -13 15 0 26 60 13 73 -7 7 -4 16 11 29 26 22
24 22 51 -2 12 -11 26 -19 32 -16 12 4 15 -7 17 -66 1 -38 18 -55 18 -18 0 23
28 27 36 5 3 -8 -4 -31 -15 -51 -24 -40 -20 -59 5 -28 15 19 16 19 9 -1 -4
-11 -15 -54 -26 -95 -11 -41 -31 -113 -45 -160 -23 -75 -62 -207 -69 -235 -1
-5 -6 4 -9 20 -15 63 -24 69 -19 13 4 -40 2 -63 -7 -74 -11 -12 -11 -17 -2
-23 13 -8 32 -64 32 -93 0 -23 -33 -23 -96 -2 -25 8 -48 13 -51 10 -7 -7 127
-47 137 -41 7 4 29 -95 31 -141 0 -18 1 -18 8 1 7 16 9 13 14 -20 11 -69 16
-213 7 -180 -6 25 -7 23 -4 -14 2 -24 4 -51 5 -60 1 -9 5 -5 9 9 6 19 8 12 8
-30 1 -39 -2 -49 -8 -35 -9 20 -9 20 -8 0 0 -11 4 -31 8 -45 8 -25 8 -25 9 2
1 15 6 30 12 34 6 3 9 17 6 30 -2 13 0 21 4 18 5 -3 9 4 9 16 0 19 33 107 155
421 19 47 37 98 40 112 4 15 11 24 16 21 5 -3 9 20 9 50 0 31 -4 56 -8 56 -5
0 -17 46 -27 103 -10 56 -21 109 -23 117 -2 8 -9 47 -16 85 -6 39 -14 75 -19
82 -4 6 -2 35 4 63 6 28 8 54 5 57 -3 4 -6 -2 -7 -13 0 -18 -1 -18 -8 1 -6 15
-12 1 -26 -55 -17 -69 -75 -275 -140 -495 -14 -49 -30 -94 -35 -99 -17 -17
-24 4 -13 42 65 232 153 556 153 567 0 7 8 16 18 18 16 4 16 5 -1 6 -15 1 -16
4 -7 22 15 27 40 110 39 129 0 8 -11 -14 -23 -49 -13 -39 -25 -60 -30 -53 -4
7 -16 12 -27 12 -10 0 -20 6 -21 13 -5 41 -4 67 2 67 11 0 50 37 45 42 -3 3 6
56 20 118 14 62 25 133 25 158 0 24 6 58 14 75 32 76 36 91 37 145 1 31 4 68
8 82 7 25 7 25 15 -4 4 -15 9 -26 11 -24 3 2 -2 30 -10 62 -8 32 -12 63 -8 69
6 10 23 87 18 87 -1 0 -5 -3 -8 -7z m-190 -809 c-3 -3 -12 -4 -19 -1 -8 3 -5
6 6 6 11 1 17 -2 13 -5z m143 -309 c5 -33 23 -127 40 -210 37 -174 44 -134
-72 -439 -44 -116 -87 -230 -95 -254 -8 -24 -17 -42 -19 -40 -1 2 -10 73 -19
158 -32 297 -32 300 -12 360 31 93 147 506 148 526 1 29 19 -32 29 -101z
m-201 -605 c-1 -53 -6 -44 -12 24 -3 30 -1 43 4 35 5 -8 8 -34 8 -59z"/>
<path d="M633 2404 c-59 -63 -110 -121 -111 -127 -4 -13 95 90 179 186 86 97
47 63 -68 -59z"/>
<path d="M2731 2357 c-2 -19 32 -68 66 -96 51 -42 52 -33 1 20 -24 24 -48 53
-55 64 -6 11 -12 16 -12 12z"/>
<path d="M2332 2325 c-60 -28 -102 -64 -147 -125 -20 -28 -42 -50 -48 -50 -24
0 -66 -46 -75 -82 -9 -34 -8 -37 16 -43 43 -11 53 -24 47 -64 -4 -27 -3 -31 4
-16 9 18 10 18 10 -6 1 -14 6 -30 12 -36 6 -6 19 -45 28 -86 28 -118 94 -177
199 -177 12 0 31 -4 44 -9 45 -16 80 -22 74 -12 -4 5 -41 17 -84 26 -102 22
-128 32 -146 60 -14 22 -14 23 14 27 21 3 30 0 33 -13 3 -12 22 -20 63 -28 33
-6 73 -15 89 -20 65 -20 78 -20 36 -1 -43 20 -43 20 -17 41 14 11 26 26 26 34
0 7 9 23 20 36 14 17 18 19 14 7 -3 -10 -1 -18 5 -18 6 0 11 -6 11 -13 0 -15
41 -57 55 -57 5 0 -4 14 -21 32 -29 32 -29 32 9 10 45 -26 47 -26 47 -6 0 8
-4 13 -9 9 -5 -3 -13 0 -17 6 -4 8 3 9 25 4 41 -9 40 2 -3 20 -33 14 -53 49
-35 61 5 3 10 0 10 -5 1 -6 3 -15 4 -21 1 -5 3 -13 4 -17 1 -5 7 3 12 16 14
35 -17 56 -45 30 -15 -14 -23 -16 -33 -7 -16 13 -15 14 -43 -42 -31 -63 -65
-89 -118 -90 -52 0 -82 14 -82 39 0 10 -9 29 -21 42 -20 24 -20 24 -9 1 15
-31 5 -43 -25 -32 -21 8 -24 6 -23 -13 1 -12 4 -27 7 -32 3 -6 -4 1 -17 15
-12 14 -21 33 -18 43 2 9 1 15 -4 12 -8 -5 -21 44 -19 74 0 12 2 11 9 -4 8
-19 9 -19 9 2 1 12 -7 28 -17 35 -48 34 -60 125 -22 161 23 22 23 22 6 -6 -10
-16 -15 -31 -13 -33 8 -8 47 53 47 73 0 11 16 37 35 59 32 35 34 36 23 11 -9
-22 -9 -30 1 -36 7 -5 10 -18 6 -32 -4 -16 3 -41 21 -74 25 -48 25 -49 4 -30
-13 11 -31 34 -41 50 -14 22 -19 25 -19 12 0 -10 18 -36 40 -59 23 -24 36 -45
30 -48 -6 -4 3 -7 20 -7 17 0 26 3 21 6 -6 4 -7 12 -3 18 10 16 52 5 52 -13 0
-7 9 -12 19 -11 11 0 19 5 18 10 -1 5 8 15 20 24 25 17 28 -2 3 -32 -12 -15
-11 -16 11 -11 35 9 52 -7 47 -42 -4 -27 -2 -29 14 -18 10 6 18 16 18 23 0 16
6 16 31 3 13 -8 19 -7 19 0 0 6 6 10 13 9 26 -3 36 2 31 16 -4 11 1 15 17 16
24 1 24 1 -1 9 -25 7 -25 7 3 19 35 14 47 14 47 1 0 -5 -5 -10 -12 -10 -6 0
-3 -7 8 -15 23 -17 43 -20 26 -3 -15 15 -16 55 -1 63 6 4 17 -1 24 -11 12 -16
14 -16 15 -3 0 22 -37 59 -61 59 -22 0 -39 32 -21 38 7 2 9 9 5 15 -4 7 1 6
10 -2 9 -7 17 -11 17 -7 0 3 12 1 28 -5 27 -10 27 -10 1 18 -14 15 -39 54 -54
85 -16 31 -32 55 -35 53 -4 -2 -22 11 -40 30 -36 37 -24 48 20 19 22 -14 22
-12 -3 10 -18 16 -40 26 -60 26 -29 1 -30 2 -14 14 44 34 80 3 137 -118 24
-52 50 -98 57 -100 7 -3 2 13 -12 34 -14 22 -34 63 -45 90 -41 104 -110 153
-150 105 -8 -10 -18 -12 -29 -6 -39 20 -141 18 -189 -4z m78 1 c0 -11 -19 -15
-25 -6 -3 5 1 10 9 10 9 0 16 -2 16 -4z m74 -8 c-4 -6 -3 -8 4 -5 13 9 44 -2
37 -13 -3 -4 7 -13 23 -18 39 -14 90 -146 75 -195 -10 -32 -10 -32 -23 16 -15
56 -26 66 -45 41 -20 -26 -18 -41 5 -64 25 -25 25 -32 3 -28 -10 2 -24 17 -32
33 -8 19 -15 25 -18 17 -7 -18 -42 34 -44 63 -1 16 -2 17 -6 3 -2 -9 1 -27 8
-40 14 -26 40 -120 35 -126 -2 -2 -14 18 -27 43 -27 54 -39 65 -39 35 0 -18
-3 -19 -20 -10 -25 14 -25 6 1 -31 13 -19 16 -29 8 -29 -10 0 -10 -3 -2 -11
18 -18 3 -39 -29 -39 -29 0 -30 1 -24 43 5 41 5 41 -6 10 -13 -38 -23 -42 -31
-13 -3 11 -9 19 -14 18 -10 -4 -13 5 -12 35 0 18 2 19 7 5 6 -15 9 -14 19 7
12 27 1 33 -27 15 -26 -16 -30 87 -6 123 11 15 26 27 33 27 8 0 13 12 13 30 0
28 -8 35 -35 31 -5 -1 -1 6 9 14 11 8 25 15 30 15 6 0 5 -4 -3 -9 -8 -5 4 -9
33 -9 26 -1 44 3 41 8 -6 10 11 18 43 19 15 1 21 -3 16 -11z m-171 -77 c-25
-39 -109 -131 -120 -131 -4 0 -16 -12 -25 -27 -12 -20 -18 -23 -18 -11 0 9 22
38 50 65 27 26 50 52 50 57 0 18 51 76 66 76 14 0 13 -4 -3 -29z m342 -62 c20
-39 34 -73 31 -76 -3 -3 -9 3 -12 13 -4 10 -17 33 -29 49 -34 47 -55 95 -40
89 7 -3 30 -37 50 -75z m-405 47 c0 -3 -5 -8 -12 -12 -7 -4 -8 -3 -4 4 7 12
16 16 16 8z m-32 -46 c-7 -10 -14 -17 -17 -15 -4 4 18 35 25 35 2 0 -1 -9 -8
-20z m-78 -55 c0 -18 -45 -85 -57 -85 -21 0 -9 50 19 73 19 16 38 22 38 12z
m-10 -85 c-6 -12 -14 -19 -17 -17 -2 3 1 15 7 27 6 12 14 19 17 17 2 -3 -1
-15 -7 -27z m494 -5 c3 -8 1 -15 -4 -15 -6 0 -10 7 -10 15 0 8 2 15 4 15 2 0
6 -7 10 -15z m-77 -12 c-4 -3 -7 0 -7 7 0 7 3 10 7 7 3 -4 3 -10 0 -14z m133
8 c0 -5 10 -11 23 -13 12 -2 21 -7 20 -13 -1 -9 -45 -38 -68 -45 -5 -1 -14 -4
-20 -5 -5 -2 -21 -6 -35 -9 -25 -5 -25 -5 -2 14 13 11 30 16 39 13 12 -5 15
-2 10 9 -9 24 4 30 19 10 12 -16 13 -16 14 0 0 9 -4 20 -10 23 -5 3 -10 10
-10 16 0 5 5 9 10 9 6 0 10 -4 10 -9z m-96 -16 c-4 -8 -10 -12 -15 -9 -11 6
-2 24 11 24 5 0 7 -7 4 -15z m-37 -47 c-3 -8 -6 -5 -6 6 -1 11 2 17 5 13 3 -3
4 -12 1 -19z m57 -184 c10 -25 1 -27 -19 -4 -15 17 -16 20 -3 20 9 0 19 -7 22
-16z"/>
<path d="M2453 2313 c4 -3 10 -3 14 0 3 4 0 7 -7 7 -7 0 -10 -3 -7 -7z"/>
<path d="M2400 2278 c0 -4 14 -8 30 -8 17 0 30 2 30 4 0 2 -13 6 -30 8 -16 3
-30 1 -30 -4z"/>
<path d="M2530 2260 c-9 -6 -10 -10 -3 -10 6 0 15 5 18 10 8 12 4 12 -15 0z"/>
<path d="M2364 2248 c-4 -7 -3 -8 4 -4 12 7 16 16 8 16 -3 0 -8 -5 -12 -12z"/>
<path d="M2480 2229 c0 -5 5 -7 10 -4 6 3 10 8 10 11 0 2 -4 4 -10 4 -5 0 -10
-5 -10 -11z"/>
<path d="M2405 2220 c-3 -5 -2 -10 4 -10 5 0 13 5 16 10 3 6 2 10 -4 10 -5 0
-13 -4 -16 -10z"/>
<path d="M2324 2208 c-4 -7 -3 -8 4 -4 12 7 16 16 8 16 -3 0 -8 -5 -12 -12z"/>
<path d="M2321 2158 c-1 -21 4 -38 9 -38 11 0 11 14 0 50 -7 22 -8 21 -9 -12z"/>
<path d="M2398 2155 c-3 -14 -2 -28 2 -30 4 -3 10 9 12 25 5 36 -8 40 -14 5z"/>
<path d="M2521 2134 c0 -11 3 -14 6 -6 3 7 2 16 -1 19 -3 4 -6 -2 -5 -13z"/>
<path d="M2690 2000 c0 -5 5 -10 10 -10 6 0 10 5 10 10 0 6 -4 10 -10 10 -5 0
-10 -4 -10 -10z"/>
<path d="M3170 2340 c0 -7 3 -10 7 -7 3 4 3 10 0 14 -4 3 -7 0 -7 -7z"/>
<path d="M3160 2310 c0 -7 3 -10 7 -7 3 4 3 10 0 14 -4 3 -7 0 -7 -7z"/>
<path d="M100 1975 c96 -203 407 -816 580 -1144 176 -334 174 -284 25 -616
-35 -78 -58 -143 -47 -130 6 6 25 46 45 90 100 229 120 271 133 286 8 8 14 20
14 26 0 5 9 18 20 28 11 10 20 23 20 29 0 6 13 37 29 68 16 32 25 58 20 58 -5
0 -12 6 -14 12 -33 99 -80 216 -92 228 -8 8 0 -19 18 -60 18 -41 33 -84 35
-95 2 -11 10 -42 18 -69 13 -38 13 -46 2 -37 -11 9 -12 7 -9 -12 3 -13 -3 -41
-12 -63 -16 -39 -16 -39 -40 -10 -45 57 -204 359 -560 1069 -230 456 -303 593
-185 342z"/>
<path d="M2221 2064 c0 -11 3 -14 6 -6 3 7 2 16 -1 19 -3 4 -6 -2 -5 -13z"/>
<path d="M1037 2053 c5 -12 50 -30 57 -22 2 2 -11 11 -29 20 -26 12 -32 12
-28 2z"/>
<path d="M1060 2066 c0 -2 7 -7 16 -10 8 -3 12 -2 9 4 -6 10 -25 14 -25 6z"/>
<path d="M1009 2052 c7 -5 9 -12 5 -14 -5 -3 -6 -4 -1 -4 10 1 6 15 -7 22 -6
3 -5 1 3 -4z"/>
<path d="M1120 2050 c0 -4 9 -10 20 -13 11 -3 20 -2 20 3 0 4 -9 10 -20 13
-11 3 -20 2 -20 -3z"/>
<path d="M249 2028 c23 -58 61 -138 66 -138 5 0 -4 22 -44 113 -22 47 -38 66
-22 25z"/>
<path d="M2740 2040 c0 -7 3 -10 7 -7 3 4 3 10 0 14 -4 3 -7 0 -7 -7z"/>
<path d="M2782 2010 c0 -19 2 -27 5 -17 2 9 2 25 0 35 -3 9 -5 1 -5 -18z"/>
<path d="M112 2021 c10 -29 263 -530 265 -527 5 5 -255 536 -263 536 -3 0 -4
-4 -2 -9z"/>
<path d="M1940 2020 c0 -7 3 -10 7 -7 3 4 3 10 0 14 -4 3 -7 0 -7 -7z"/>
<path d="M3010 2006 c0 -2 7 -7 16 -10 8 -3 12 -2 9 4 -6 10 -25 14 -25 6z"/>
<path d="M1925 1980 c-4 -12 -5 -24 -2 -27 3 -2 8 5 12 17 4 12 5 24 2 27 -3
2 -8 -5 -12 -17z"/>
<path d="M2240 1976 c0 -2 8 -10 18 -17 15 -13 16 -12 3 4 -13 16 -21 21 -21
13z"/>
<path d="M3120 1940 c0 -7 3 -10 7 -7 3 4 3 10 0 14 -4 3 -7 0 -7 -7z"/>
<path d="M3330 1929 c0 -4 14 -67 31 -140 17 -74 37 -163 45 -198 17 -75 28
-94 22 -36 -11 87 -96 414 -98 374z"/>
<path d="M1210 1890 c0 -7 3 -10 7 -7 3 4 3 10 0 14 -4 3 -7 0 -7 -7z"/>
<path d="M2101 1869 c-6 -18 -11 -41 -10 -53 0 -12 6 2 14 29 15 57 13 72 -4
24z"/>
<path d="M2323 1873 c9 -2 23 -2 30 0 6 3 -1 5 -18 5 -16 0 -22 -2 -12 -5z"/>
<path d="M1184 1858 c-4 -7 -3 -8 4 -4 7 4 12 9 12 12 0 8 -9 4 -16 -8z"/>
<path d="M3060 1860 c0 -7 3 -10 7 -7 3 4 3 10 0 14 -4 3 -7 0 -7 -7z"/>
<path d="M2313 1853 c-18 -7 -16 -20 4 -27 17 -7 103 13 103 24 0 6 -91 9
-107 3z"/>
<path d="M345 1815 c9 -22 27 -62 38 -90 12 -27 44 -97 72 -155 28 -58 71
-147 95 -198 24 -50 45 -90 47 -88 2 2 -18 50 -45 107 -27 57 -84 181 -127
274 -71 153 -123 251 -80 150z"/>
<path d="M1154 1838 c-4 -7 -3 -8 4 -4 7 4 12 9 12 12 0 8 -9 4 -16 -8z"/>
<path d="M1118 1833 c7 -3 16 -2 19 1 4 3 -2 6 -13 5 -11 0 -14 -3 -6 -6z"/>
<path d="M1153 1805 c7 -17 -37 -55 -64 -55 -10 0 -21 -4 -24 -10 -4 -6 6 -7
27 -4 35 7 101 61 92 76 -9 15 -37 9 -31 -7z m24 -2 c-4 -3 -10 -3 -14 0 -3 4
0 7 7 7 7 0 10 -3 7 -7z"/>
<path d="M2273 1813 c4 -3 10 -3 14 0 3 4 0 7 -7 7 -7 0 -10 -3 -7 -7z"/>
<path d="M2313 1803 c4 -3 10 -3 14 0 3 4 0 7 -7 7 -7 0 -10 -3 -7 -7z"/>
<path d="M754 1781 c3 -4 18 -14 34 -20 15 -6 32 -21 37 -34 6 -12 20 -26 31
-32 12 -6 29 -17 38 -24 9 -8 19 -11 22 -8 3 3 -15 19 -40 37 -55 37 -55 37
-13 33 17 -2 25 0 17 3 -48 20 -78 32 -103 43 -16 6 -26 7 -23 2z"/>
<path d="M410 1755 c0 -5 5 -17 10 -25 5 -8 10 -10 10 -5 0 6 -5 17 -10 25 -5
8 -10 11 -10 5z"/>
<path d="M440 1755 c0 -5 5 -17 10 -25 5 -8 10 -10 10 -5 0 6 -5 17 -10 25 -5
8 -10 11 -10 5z"/>
<path d="M2393 1713 c4 -3 10 -3 14 0 3 4 0 7 -7 7 -7 0 -10 -3 -7 -7z"/>
<path d="M430 1701 c0 -6 4 -13 10 -16 6 -3 7 1 4 9 -7 18 -14 21 -14 7z"/>
<path d="M466 1697 c3 -10 9 -15 12 -12 3 3 0 11 -7 18 -10 9 -11 8 -5 -6z"/>
<path d="M2620 1686 c0 -3 16 -21 35 -40 35 -35 51 -71 20 -46 -20 16 -122 22
-147 9 -13 -7 -17 -17 -13 -29 6 -20 -32 -39 -52 -27 -14 9 -59 -71 -93 -163
-33 -88 -44 -207 -23 -245 7 -11 8 10 5 62 -3 68 0 89 27 168 49 139 61 159
106 166 21 4 44 14 51 24 8 11 19 15 33 10 23 -7 28 -31 9 -38 -7 -2 -4 -3 8
-1 25 4 64 -22 64 -42 0 -16 -33 -11 -57 8 -19 16 -35 0 -23 -23 12 -22 -11
-25 -88 -10 -49 10 -63 0 -27 -19 16 -8 31 -33 44 -69 21 -56 21 -56 18 2 -2
53 -1 57 21 57 12 0 39 7 59 15 49 21 58 19 39 -7 -30 -42 -63 -113 -70 -148
-25 -127 -121 -200 -265 -200 -63 0 -67 2 -89 33 -12 17 -33 46 -46 64 -27 37
-26 49 26 216 16 54 31 113 33 130 1 18 10 50 19 72 17 40 17 40 -3 17 -11
-13 -23 -40 -26 -60 -3 -20 -18 -80 -34 -132 -16 -52 -32 -111 -36 -130 -3
-19 -11 -47 -17 -62 -14 -37 6 -86 35 -90 12 -2 31 -17 42 -35 11 -18 27 -35
35 -38 8 -3 30 -24 49 -46 34 -41 34 -41 13 -61 -20 -21 -20 -21 -36 10 -9 17
-16 38 -16 47 0 8 -4 15 -10 15 -5 0 -10 -3 -10 -7 0 -22 24 -91 39 -113 26
-38 43 -106 35 -145 -4 -23 -2 -35 5 -35 24 0 6 141 -23 179 -8 11 -8 13 0 8
6 -3 16 5 22 18 14 29 13 29 92 9 34 -9 73 -13 87 -9 58 14 59 -15 3 -139 -24
-53 -23 -92 4 -164 19 -50 10 -106 -25 -154 -11 -16 -14 -25 -6 -23 16 7 49
-48 41 -68 -10 -26 -73 -29 -204 -12 -14 2 -31 4 -38 4 -14 1 -42 60 -42 90 0
27 38 34 96 16 58 -17 57 -17 50 -7 -7 12 -107 35 -136 31 -30 -5 -38 -39 -19
-75 18 -35 11 -37 -113 -21 -183 25 -223 29 -217 23 6 -6 45 -12 244 -37 50
-6 101 -17 115 -24 35 -17 233 -29 259 -15 25 13 27 47 5 78 -14 20 -13 28 2
83 15 52 15 67 4 107 -23 81 -18 149 15 217 17 33 35 58 40 55 12 -6 13 -163
3 -533 -3 -149 -2 -257 3 -257 5 0 9 72 9 161 0 160 0 160 23 154 22 -7 22 -7
2 8 -19 15 -20 25 -17 249 2 128 8 237 13 242 5 6 73 5 175 -3 130 -9 169 -10
178 0 8 9 5 10 -14 6 -16 -4 -48 5 -97 28 -73 34 -73 34 -73 115 0 72 2 80 19
80 30 0 51 11 51 26 0 8 -7 14 -16 14 -8 0 -13 -4 -10 -9 10 -15 -21 -20 -40
-6 -23 17 -10 64 23 80 20 10 20 12 4 22 -10 7 -35 42 -56 79 -36 64 -37 68
-19 81 42 31 162 -15 151 -58 -6 -21 3 -25 20 -8 9 9 8 15 -3 27 -32 31 -3 23
34 -10 21 -19 59 -43 85 -54 46 -19 46 -19 53 -86 4 -38 11 -68 16 -68 8 0 5
51 -9 123 -3 16 -14 33 -26 38 -20 9 -20 9 -2 6 23 -5 57 24 37 31 -18 6 -15
37 7 63 17 22 22 23 51 12 26 -10 31 -10 26 2 -2 7 0 16 7 18 7 2 9 7 6 11 -4
4 -18 1 -33 -5 -24 -11 -29 -10 -57 19 -31 32 -62 41 -74 22 -3 -5 -11 -10
-16 -10 -14 0 -1 60 18 82 9 10 11 18 4 22 -14 9 -32 -29 -46 -95 -12 -56 -12
-56 14 -50 19 4 21 6 9 9 -31 6 -19 27 17 29 33 1 35 0 29 -25 -5 -25 -4 -25
7 -7 18 30 19 31 29 15 12 -20 -7 -53 -27 -46 -15 6 -14 -13 3 -57 11 -29 -33
-41 -69 -19 -107 64 -133 96 -136 166 -2 42 24 64 90 77 33 6 59 15 59 19 0
15 -106 -14 -138 -37 -30 -22 -32 -27 -25 -65 3 -23 12 -53 19 -67 18 -34 13
-36 -32 -12 -41 22 -76 20 -106 -7 -24 -20 -23 -34 5 -76 56 -89 65 -106 57
-106 -22 0 -42 -61 -27 -83 10 -16 11 -33 4 -74 -16 -93 -5 -121 59 -149 30
-13 54 -26 54 -29 0 -4 -3 -4 -8 -1 -4 2 -52 7 -107 11 -55 4 -120 11 -145 15
-25 5 -74 6 -110 3 -90 -7 -140 8 -189 60 -23 23 -41 45 -41 48 0 4 33 8 74
11 143 7 228 101 308 343 5 17 11 41 13 53 2 13 10 31 18 40 25 29 29 60 12
89 -16 27 -75 81 -75 69z m67 -131 c-8 -22 -71 -11 -84 15 -7 14 -13 21 -13
17 0 -5 -6 -5 -12 0 -9 5 -3 10 17 13 32 6 98 -26 92 -45z m-80 -82 c-4 -3
-10 -3 -14 0 -3 4 0 7 7 7 7 0 10 -3 7 -7z m-2 -119 c-8 -20 -15 -39 -15 -42
0 -3 -3 -3 -6 0 -6 7 22 78 31 78 3 0 -2 -16 -10 -36z m-30 -395 c4 -6 5 -12
2 -15 -7 -7 -37 7 -37 17 0 13 27 11 35 -2z"/>
<path d="M1199 1606 c-26 -44 -39 -56 -66 -61 -18 -3 -35 -11 -39 -17 -5 -8
-1 -9 12 -3 10 4 29 9 42 10 15 1 34 18 57 53 48 73 47 72 36 72 -5 0 -24 -24
-42 -54z"/>
<path d="M490 1640 c0 -7 3 -10 7 -7 3 4 3 10 0 14 -4 3 -7 0 -7 -7z"/>
<path d="M466 1627 c3 -10 9 -15 12 -12 3 3 0 11 -7 18 -10 9 -11 8 -5 -6z"/>
<path d="M1304 1587 c3 -10 13 -46 22 -80 8 -34 41 -113 71 -176 46 -94 54
-117 44 -132 -16 -26 -14 -31 8 -19 31 16 38 11 13 -8 -22 -17 -22 -19 -7 -32
15 -12 19 -12 31 5 13 18 14 18 14 -6 1 -24 1 -24 15 1 16 28 20 101 6 116 -5
5 -33 54 -62 109 -28 55 -68 120 -88 143 -20 24 -44 56 -55 70 -10 15 -15 19
-12 9z m92 -135 c10 -20 40 -76 67 -125 53 -98 53 -97 31 -97 -8 0 -12 -4 -9
-10 3 -5 2 -10 -2 -10 -11 0 -130 246 -138 285 -6 29 -6 29 13 12 10 -10 28
-34 38 -55z"/>
<path d="M1436 1315 c9 -14 19 -24 21 -21 7 7 -16 46 -28 46 -5 0 -2 -11 7
-25z"/>
<path d="M520 1575 c0 -5 5 -17 10 -25 5 -8 10 -10 10 -5 0 6 -5 17 -10 25 -5
8 -10 11 -10 5z"/>
<path d="M1092 1483 c6 -8 17 -12 23 -9 7 2 17 0 23 -6 12 -12 35 -1 29 15 -2
6 -22 12 -45 13 -35 1 -40 -1 -30 -13z"/>
<path d="M510 1223 c74 -145 136 -261 138 -258 5 5 -245 496 -260 510 -6 6 49
-108 122 -252z"/>
<path d="M570 1461 c0 -6 4 -13 10 -16 6 -3 7 1 4 9 -7 18 -14 21 -14 7z"/>
<path d="M2965 1450 c3 -5 8 -10 11 -10 2 0 4 5 4 10 0 6 -5 10 -11 10 -5 0
-7 -4 -4 -10z"/>
<path d="M590 1425 c0 -5 5 -17 10 -25 5 -8 10 -10 10 -5 0 6 -5 17 -10 25 -5
8 -10 11 -10 5z"/>
<path d="M1710 1410 c0 -7 3 -10 7 -7 3 4 3 10 0 14 -4 3 -7 0 -7 -7z"/>
<path d="M580 1380 c0 -7 3 -10 7 -7 3 4 3 10 0 14 -4 3 -7 0 -7 -7z"/>
<path d="M2845 1360 c-3 -5 -2 -10 4 -10 5 0 13 5 16 10 3 6 2 10 -4 10 -5 0
-13 -4 -16 -10z"/>
<path d="M2883 1343 c4 -3 10 -3 14 0 3 4 0 7 -7 7 -7 0 -10 -3 -7 -7z"/>
<path d="M2980 1315 c-14 -8 -33 -14 -43 -15 -23 0 -67 -44 -67 -67 0 -13 6
-8 20 14 13 23 29 34 54 38 19 4 42 16 52 26 20 22 18 23 -16 4z"/>
<path d="M3037 1293 c-4 -3 -7 -11 -7 -17 0 -6 5 -5 12 2 6 6 9 14 7 17 -3 3
-9 2 -12 -2z"/>
<path d="M1535 1280 c3 -5 8 -10 11 -10 2 0 4 5 4 10 0 6 -5 10 -11 10 -5 0
-7 -4 -4 -10z"/>
<path d="M2985 1243 c-14 -15 -25 -33 -25 -38 0 -6 -13 -29 -29 -51 -16 -22
-33 -52 -36 -66 -4 -15 -15 -34 -26 -44 -10 -9 -16 -21 -12 -27 3 -5 1 -7 -5
-3 -6 3 -13 2 -17 -4 -3 -5 3 -10 14 -10 12 0 28 12 38 28 9 15 26 38 38 52
12 14 28 47 35 73 7 27 24 64 36 83 28 41 24 44 -11 7z m-69 -151 c-18 -16
-18 -16 -6 6 6 13 14 21 18 18 3 -4 -2 -14 -12 -24z"/>
<path d="M2586 1248 c-5 -10 3 -38 18 -71 36 -75 31 -140 -12 -173 -23 -18 -1
-18 23 0 27 19 32 110 10 161 -10 22 -21 54 -25 70 -6 23 -9 26 -14 13z"/>
<path d="M610 1246 c0 -11 30 -66 36 -66 2 0 -3 15 -12 33 -19 36 -24 44 -24
33z"/>
<path d="M1540 1245 c0 -2 10 -10 23 -16 20 -11 21 -11 8 4 -13 16 -31 23 -31
12z"/>
<path d="M1657 1203 c-51 -95 -59 -120 -61 -188 -2 -88 -40 -164 -103 -209
-50 -35 -50 -48 -1 -18 80 49 119 123 120 227 1 59 6 80 36 138 32 64 41 110
9 50z"/>
<path d="M1610 1205 c7 -8 17 -15 22 -15 6 0 5 7 -2 15 -7 8 -17 15 -22 15 -6
0 -5 -7 2 -15z"/>
<path d="M3080 1170 c0 -7 3 -10 7 -7 3 4 3 10 0 14 -4 3 -7 0 -7 -7z"/>
<path d="M651 1165 c0 -5 13 -35 29 -65 16 -30 29 -50 29 -45 0 6 -13 35 -29
65 -16 30 -29 51 -29 45z"/>
<path d="M2438 1093 c-26 -15 -46 -28 -44 -30 6 -6 73 26 86 41 16 21 14 20
-42 -11z"/>
<path d="M963 1093 c4 -3 10 -3 14 0 3 4 0 7 -7 7 -7 0 -10 -3 -7 -7z"/>
<path d="M1123 1083 c9 -2 23 -2 30 0 6 3 -1 5 -18 5 -16 0 -22 -2 -12 -5z"/>
<path d="M2465 1055 c-82 -39 -105 -43 -112 -15 -3 11 -12 20 -20 20 -12 0
-12 -2 1 -16 9 -8 16 -20 16 -25 0 -18 47 -8 118 26 40 19 72 37 72 40 0 7 4
8 -75 -30z"/>
<path d="M1413 989 c-19 -101 -64 -133 -138 -97 -40 19 -48 20 -84 8 -49 -16
-107 -6 -140 23 -21 20 -21 17 8 -38 18 -33 43 -78 56 -100 20 -32 24 -48 19
-81 -6 -46 7 -80 53 -134 18 -22 27 -45 28 -70 2 -63 103 -165 154 -154 36 7
111 47 111 58 0 5 -19 26 -42 45 -144 122 -184 195 -152 276 9 25 20 45 24 45
11 0 48 -74 53 -105 4 -36 60 -54 177 -58 75 -2 75 -2 73 28 -4 50 -34 80 -84
83 -79 4 -86 8 -93 53 -4 22 -13 51 -22 64 -9 13 -13 28 -10 34 4 5 9 30 12
56 3 26 9 58 15 72 5 13 6 31 1 39 -5 8 -12 -8 -19 -47z m-123 -121 c32 -15
37 -15 72 3 21 11 38 15 38 9 0 -6 -10 -15 -22 -20 -17 -6 -19 -9 -6 -9 21 -1
37 -30 53 -91 11 -45 11 -45 73 -50 61 -5 116 -35 85 -47 -7 -3 -13 -9 -13
-15 0 -6 7 -8 15 -4 9 3 15 0 15 -9 0 -20 -59 -29 -95 -15 -17 6 -32 11 -35
10 -25 -5 -82 15 -92 33 -11 21 -10 21 8 7 18 -15 18 -14 2 10 -45 65 -69 117
-65 138 6 33 -11 38 -19 5 -4 -15 -17 -52 -30 -81 -21 -49 -22 -55 -9 -98 17
-59 53 -110 107 -154 102 -84 96 -75 68 -98 -58 -48 -136 -31 -183 41 -18 28
-32 71 -20 64 4 -3 19 1 33 9 25 15 25 15 -7 9 -25 -5 -33 -3 -33 8 0 8 -16
34 -35 58 -44 56 -60 101 -45 128 12 23 0 53 -51 128 -16 23 -29 43 -29 45 0
12 190 0 220 -14z"/>
<path d="M1500 635 c14 -8 32 -14 40 -14 8 0 0 6 -19 14 -42 19 -54 19 -21 0z"/>
<path d="M1413 404 c-12 -26 -3 -33 15 -11 6 7 8 18 4 24 -5 7 -11 3 -19 -13z"/>
<path d="M897 985 c-9 -19 -15 -35 -13 -35 2 0 13 16 25 35 11 19 17 35 13 35
-5 0 -16 -16 -25 -35z"/>
<path d="M1300 995 c-27 -20 -47 -25 -94 -26 -61 -1 -61 -1 -13 -11 53 -11 82
-3 132 37 39 33 19 32 -25 0z"/>
<path d="M1930 1010 c0 -7 3 -10 7 -7 3 4 3 10 0 14 -4 3 -7 0 -7 -7z"/>
<path d="M2463 1003 c4 -3 10 -3 14 0 3 4 0 7 -7 7 -7 0 -10 -3 -7 -7z"/>
<path d="M1917 966 c-4 -10 -7 -30 -6 -44 1 -25 1 -25 10 6 11 37 7 67 -4 38z"/>
<path d="M3020 965 c7 -9 15 -13 17 -11 7 7 -7 26 -19 26 -6 0 -6 -6 2 -15z"/>
<path d="M1355 950 c-16 -11 -25 -20 -19 -20 11 0 64 39 54 40 -3 0 -18 -9
-35 -20z"/>
<path d="M2973 953 c4 -3 10 -3 14 0 3 4 0 7 -7 7 -7 0 -10 -3 -7 -7z"/>
<path d="M3041 914 c0 -11 3 -14 6 -6 3 7 2 16 -1 19 -3 4 -6 -2 -5 -13z"/>
<path d="M1901 874 c0 -11 3 -14 6 -6 3 7 2 16 -1 19 -3 4 -6 -2 -5 -13z"/>
<path d="M2494 878 c-4 -7 -3 -8 4 -4 12 7 16 16 8 16 -3 0 -8 -5 -12 -12z"/>
<path d="M2172 802 c-23 -22 -32 -39 -32 -62 0 -32 0 -32 101 -28 112 3 133
-7 123 -61 -2 -14 2 -51 9 -81 14 -55 14 -55 10 30 -7 119 -16 139 -62 130
-87 -18 -202 0 -162 25 6 3 11 0 11 -7 0 -10 3 -9 9 2 12 17 4 33 -12 24 -7
-3 1 6 16 21 16 14 36 24 45 21 54 -16 77 -18 66 -7 -27 29 -88 25 -122 -7z"/>
<path d="M1872 745 c0 -16 2 -22 5 -12 2 9 2 23 0 30 -3 6 -5 -1 -5 -18z"/>
<path d="M2265 760 c3 -5 11 -10 16 -10 6 0 7 5 4 10 -3 6 -11 10 -16 10 -6 0
-7 -4 -4 -10z"/>
<path d="M2230 750 c-9 -6 -10 -10 -3 -10 6 0 15 5 18 10 8 12 4 12 -15 0z"/>
<path d="M870 705 c0 -5 5 -17 10 -25 5 -8 10 -10 10 -5 0 6 -5 17 -10 25 -5
8 -10 11 -10 5z"/>
<path d="M1847 626 c-10 -48 -16 -90 -14 -92 7 -7 39 143 35 163 -2 9 -11 -23
-21 -71z"/>
<path d="M1323 693 c4 -3 10 -3 14 0 3 4 0 7 -7 7 -7 0 -10 -3 -7 -7z"/>
<path d="M3143 665 c0 -22 2 -30 4 -17 2 12 2 30 0 40 -3 9 -5 -1 -4 -23z"/>
<path d="M3346 576 c-63 -147 -146 -311 -157 -309 -11 3 -10 -91 1 -127 6 -20
8 -15 9 24 1 38 19 91 81 235 45 102 88 203 97 224 9 20 14 39 12 41 -2 2 -22
-37 -43 -88z"/>
<path d="M523 588 c-21 -27 -84 -150 -79 -155 2 -3 19 24 36 58 18 35 39 72
48 82 8 9 13 19 10 22 -3 3 -10 0 -15 -7z"/>
<path d="M2840 590 c-9 -6 -10 -10 -3 -10 6 0 15 5 18 10 8 12 4 12 -15 0z"/>
<path d="M567 538 c-44 -77 -108 -210 -103 -215 4 -4 104 183 128 240 13 31 0
18 -25 -25z"/>
<path d="M3430 570 c0 -7 3 -10 7 -7 3 4 3 10 0 14 -4 3 -7 0 -7 -7z"/>
<path d="M925 561 c11 -5 43 -10 70 -11 28 0 70 -5 95 -10 25 -4 51 -5 59 -1
8 5 -22 11 -70 15 -46 4 -104 9 -129 11 -33 4 -40 3 -25 -4z"/>
<path d="M3411 537 c-6 -8 -24 -45 -40 -83 -16 -38 -57 -127 -91 -197 -34 -71
-59 -131 -56 -134 3 -3 13 11 22 33 9 21 40 90 70 152 30 63 54 115 54 118 0
2 13 31 29 64 30 61 32 71 12 47z"/>
<path d="M1383 513 c4 -3 10 -3 14 0 3 4 0 7 -7 7 -7 0 -10 -3 -7 -7z"/>
<path d="M1435 503 c17 -2 107 -13 200 -24 94 -12 171 -22 173 -24 2 -1 -2
-32 -8 -68 -7 -36 -10 -74 -8 -84 2 -10 10 16 17 57 7 41 14 89 17 105 4 21 2
26 -4 16 -10 -14 -7 -14 -254 20 -37 5 -88 8 -115 8 -31 -1 -37 -3 -18 -6z"/>
<path d="M1056 353 c-32 -82 -60 -157 -62 -168 -9 -35 22 24 50 100 15 39 35
88 45 110 18 40 36 105 29 105 -2 0 -30 -66 -62 -147z"/>
<path d="M3400 458 c0 -8 -40 -96 -90 -195 -77 -157 -88 -186 -83 -217 3 -20
10 -39 16 -43 6 -4 7 10 3 38 -6 40 -1 56 62 184 78 157 108 232 98 242 -3 3
-6 -1 -6 -9z"/>
<path d="M2528 373 c7 -3 16 -2 19 1 4 3 -2 6 -13 5 -11 0 -14 -3 -6 -6z"/>
<path d="M2643 363 c9 -2 25 -2 35 0 9 3 1 5 -18 5 -19 0 -27 -2 -17 -5z"/>
<path d="M2730 350 c19 -5 76 -12 125 -14 67 -4 77 -3 40 3 -83 13 -206 21
-165 11z"/>
<path d="M3170 305 c0 -8 7 -15 16 -15 14 0 14 3 4 15 -7 8 -14 15 -16 15 -2
0 -4 -7 -4 -15z"/>
<path d="M3200 90 c0 -7 3 -10 7 -7 3 4 3 10 0 14 -4 3 -7 0 -7 -7z"/>
</g>
</svg>
