<?xml version="1.0" standalone="no"?>
<!DOCTYPE svg PUBLIC "-//W3C//DTD SVG 20010904//EN"
 "http://www.w3.org/TR/2001/REC-SVG-20010904/DTD/svg10.dtd">
<svg version="1.0" xmlns="http://www.w3.org/2000/svg"
 width="384.000000pt" height="256.000000pt" viewBox="0 0 384.000000 256.000000"
 preserveAspectRatio="xMidYMid meet">
<metadata>
Created by potrace 1.16, written by Peter Selinger 2001-2019
</metadata>
<g transform="translate(0.000000,256.000000) scale(0.100000,-0.100000)"
fill="#000000" stroke="none">
<path d="M1564 2343 c2 -120 4 -251 5 -291 1 -40 4 -71 9 -69 4 3 5 -24 4 -59
-2 -35 -8 -64 -13 -64 -6 0 -7 -5 -3 -12 12 -19 7 -97 -7 -114 -10 -12 -10
-15 2 -12 8 2 14 -4 14 -12 0 -8 -8 -16 -17 -18 -10 -2 -18 1 -18 7 0 6 -6 8
-14 5 -8 -3 -17 -1 -21 5 -3 6 -11 11 -17 11 -6 0 -4 -8 5 -18 18 -19 14 -32
-10 -32 -7 0 -13 7 -13 15 0 17 -14 18 -45 5 -21 -9 -22 -9 27 -14 6 0 13 -7
16 -13 5 -18 -30 -16 -54 2 -10 8 -27 15 -36 15 -9 0 -40 13 -68 30 -27 16
-50 25 -50 20 0 -5 9 -14 19 -20 11 -5 19 -19 18 -30 -1 -23 -17 -28 -17 -6 0
18 -84 70 -88 56 -2 -6 -12 -15 -23 -20 -18 -10 -19 -6 -19 85 0 95 0 95 105
94 83 -1 105 -4 105 -15 0 -8 -6 -14 -12 -14 -9 0 -10 -2 -2 -8 6 -4 12 -29
12 -55 1 -45 0 -48 -21 -42 -20 5 -20 5 -4 -5 14 -9 16 -15 6 -26 -9 -11 -8
-14 4 -14 21 0 27 22 27 101 0 48 4 69 13 69 8 1 7 4 -3 9 -8 5 -68 11 -132
13 -118 3 -118 3 -114 -97 2 -55 4 -112 5 -127 1 -22 6 -28 24 -27 16 1 18 2
5 6 -10 2 -18 9 -18 14 0 6 9 7 22 3 20 -6 21 -5 10 8 -19 23 9 44 37 28 27
-14 27 -19 -1 -13 -20 4 -21 3 -5 -7 9 -6 21 -9 26 -6 5 3 14 -1 20 -8 10 -12
8 -15 -11 -19 -13 -2 -2 -5 23 -6 30 -1 54 -8 68 -20 23 -20 37 -24 119 -36
32 -5 48 -3 60 8 44 40 57 28 55 -53 -1 -56 1 -66 7 -40 6 29 8 31 9 10 2 -23
3 -23 10 -5 7 17 9 14 13 -15 3 -21 1 -38 -6 -42 -8 -6 -7 -8 2 -8 6 0 12 -6
12 -12 0 -8 -17 -14 -48 -15 -26 -1 -60 -9 -77 -17 -34 -18 -61 -20 -70 -6 -3
6 -22 -6 -40 -26 -35 -36 -35 -36 -67 -14 -18 12 -41 24 -50 27 -10 3 -20 13
-23 24 -4 10 -12 16 -20 13 -8 -3 -29 9 -47 28 -58 58 -172 138 -153 107 5 -6
-2 -6 -16 2 -13 7 -31 15 -39 20 -8 4 -14 11 -14 16 1 4 5 23 9 41 6 28 4 32
-14 32 -12 0 -21 4 -21 10 0 5 6 7 14 4 22 -9 27 45 5 59 -17 10 -17 13 -2 29
17 19 11 50 -9 47 -43 -5 -70 2 -75 21 -8 31 -23 24 -25 -12 -1 -18 -2 -41 -2
-51 -1 -10 -8 -22 -16 -27 -13 -9 -13 -10 0 -10 10 0 16 -12 18 -36 2 -35 2
-35 -56 -30 -32 3 -74 1 -93 -5 -19 -6 -62 -12 -96 -13 -56 -2 -63 0 -63 17 0
17 7 18 77 16 54 -3 78 0 81 9 2 8 26 12 70 12 36 0 63 3 60 6 -3 3 -36 5 -72
5 -67 0 -74 5 -56 40 8 13 21 19 48 19 27 0 33 3 22 10 -20 12 -62 2 -80 -21
-10 -12 -32 -19 -65 -22 -50 -3 -50 -3 3 -5 38 -2 52 -6 52 -16 0 -14 -28 -29
-46 -25 -5 1 -35 1 -68 0 -52 -1 -57 -3 -45 -17 21 -26 -24 -47 -49 -22 -9 9
-12 8 -12 -5 0 -9 6 -17 13 -17 6 0 23 -10 37 -21 24 -20 18 -20 -25 -3 -26
11 -16 -10 18 -35 29 -21 25 -22 -18 -5 -8 3 -15 2 -15 -4 0 -6 13 -15 30 -21
33 -11 40 -37 13 -44 -17 -4 -17 -5 0 -6 13 -1 17 -10 18 -38 0 -21 3 -32 6
-25 2 6 13 12 24 12 25 0 24 15 -1 40 -24 24 -28 62 -5 54 11 -5 15 1 15 25 0
20 5 31 14 31 8 0 16 6 19 14 5 12 -1 13 -29 9 -22 -4 -34 -2 -34 6 0 12 11
14 87 15 29 1 53 -2 53 -6 0 -5 -4 -8 -10 -8 -5 0 -7 -7 -4 -15 4 -11 2 -13
-9 -9 -8 3 -18 1 -22 -5 -7 -12 24 -15 41 -3 6 4 14 20 18 35 8 32 26 27 26
-8 0 -34 18 -40 23 -8 3 21 4 17 6 -13 0 -25 11 -55 26 -78 21 -30 22 -38 10
-42 -22 -9 -18 -21 6 -20 28 1 34 -17 13 -38 -17 -17 -50 -4 -38 15 3 5 0 9
-5 9 -6 0 -11 -6 -11 -12 -1 -29 -58 -71 -90 -66 -16 3 -30 1 -30 -4 0 -4 16
-8 35 -8 40 0 40 1 19 -36 -14 -27 -15 -27 -12 -5 2 18 -2 25 -18 26 -15 1
-20 -3 -17 -16 3 -9 0 -20 -6 -23 -6 -4 -11 -1 -12 6 -3 55 -29 91 -29 41 0
-18 -4 -35 -10 -38 -5 -3 -10 0 -10 8 0 8 -7 18 -16 21 -8 3 -13 10 -10 15 3
5 2 20 -3 33 -6 13 -10 16 -11 8 -1 -13 -2 -13 -13 1 -14 18 -57 32 -57 18 0
-5 6 -9 13 -9 19 0 57 -45 57 -68 0 -18 -4 -19 -37 -11 -21 6 -55 12 -75 16
-35 5 -76 33 -49 33 6 0 11 9 11 20 0 17 -6 20 -34 18 -19 -1 -32 -6 -30 -10
3 -4 1 -8 -4 -8 -6 0 -12 7 -16 15 -3 8 -14 15 -25 15 -11 0 -24 6 -28 13 -13
20 -43 41 -43 29 0 -15 51 -62 67 -62 7 0 16 -8 22 -17 9 -17 11 -17 40 0 19
11 32 14 36 7 3 -6 -4 -14 -16 -19 -23 -8 -23 -8 -1 -20 12 -6 22 -16 22 -21
0 -15 -26 -12 -40 5 -14 17 -45 21 -35 5 11 -18 -3 -11 -31 15 -18 17 -30 22
-34 14 -5 -8 -13 -8 -29 0 -11 6 -30 16 -41 21 -56 28 -150 -10 -150 -62 0
-16 8 -18 78 -14 42 2 87 7 100 11 14 5 22 3 22 -4 0 -12 -48 -61 -60 -61 -4
0 -12 -12 -18 -26 -15 -31 -32 -23 -32 16 0 33 -26 48 -35 19 -4 -10 -15 -19
-27 -19 -14 0 -18 5 -14 15 3 8 1 15 -4 15 -15 0 -12 -58 3 -63 9 -4 9 -7 0
-18 -22 -23 -14 -26 39 -17 87 14 118 4 118 -37 0 -25 5 -35 15 -35 9 0 19
-10 24 -22 8 -23 8 -23 15 -1 4 12 14 24 23 28 15 5 15 4 0 -13 -9 -10 -17
-23 -17 -28 1 -5 10 2 20 15 26 30 25 63 0 79 -29 17 -26 42 5 42 39 0 51 -36
35 -110 -7 -33 -10 -63 -7 -66 11 -12 25 6 31 41 9 45 26 45 26 0 0 -29 4 -35
22 -35 20 0 20 1 4 19 -13 14 -16 28 -11 54 5 23 2 45 -9 65 -18 35 -20 46 -7
38 5 -3 11 1 15 9 3 8 1 15 -4 15 -5 0 -14 9 -20 20 -10 19 -9 19 17 8 15 -6
32 -15 37 -20 6 -4 24 -8 40 -7 30 1 30 1 6 8 -32 9 -40 41 -11 41 12 0 21 -4
21 -10 0 -5 6 -10 14 -10 7 0 21 -10 29 -23 15 -20 16 -21 16 -2 1 15 4 16 13
7 13 -13 29 -16 26 -5 -2 5 0 9 5 11 18 6 27 1 28 -15 0 -11 3 -13 6 -5 2 6
10 9 16 5 20 -12 47 -10 47 4 0 7 5 13 10 13 6 0 10 -7 10 -15 0 -11 11 -15
40 -15 32 0 40 -4 40 -18 0 -11 20 -33 50 -53 59 -40 60 -44 15 -66 -29 -14
-39 -14 -58 -4 -54 29 -122 -9 -83 -46 18 -17 18 -17 8 3 -20 39 14 54 74 32
26 -9 39 -9 60 1 31 14 31 14 36 -19 3 -21 -1 -25 -30 -27 -23 -2 -31 1 -26 9
5 7 2 9 -8 5 -9 -3 -24 1 -35 8 -10 8 -24 15 -32 15 -11 0 -9 -4 5 -15 19 -15
19 -15 -1 -9 -13 5 -16 4 -10 -3 24 -23 66 -31 139 -27 75 4 76 4 94 -24 9
-15 32 -46 51 -69 35 -40 35 -40 54 -2 21 43 25 45 53 25 18 -14 18 -16 -16
-45 -19 -17 -40 -30 -46 -31 -16 0 -73 -59 -88 -90 -16 -32 -15 -185 2 -202 7
-7 12 -17 12 -23 0 -6 13 -24 30 -40 34 -33 37 -50 13 -77 -15 -17 -15 -18 6
-18 29 0 38 -27 15 -45 -18 -13 -18 -14 3 -8 34 8 48 30 33 48 -9 10 -9 19 -2
27 5 7 18 40 27 73 9 33 23 82 32 109 16 49 16 49 29 10 18 -51 18 -89 0 -104
-8 -6 -12 -18 -9 -26 3 -7 -2 -17 -11 -20 -29 -11 -17 -24 23 -24 39 0 39 0
36 35 -2 21 3 39 11 46 21 17 13 51 -37 154 -13 26 46 141 64 126 7 -5 25 -11
42 -13 27 -3 31 -9 56 -83 14 -44 36 -96 47 -115 25 -43 45 -114 44 -157 -1
-26 2 -31 16 -27 14 5 14 4 2 -4 -8 -6 -17 -9 -21 -6 -4 2 -12 -3 -18 -10 -15
-18 -2 -27 40 -28 41 -1 69 48 39 67 -5 3 -10 21 -10 40 0 18 -11 55 -25 82
-24 46 -54 194 -55 265 0 33 22 47 88 55 46 5 50 3 80 -31 40 -45 40 -43 -3
-122 -41 -75 -42 -84 -15 -84 11 0 20 4 20 10 0 5 -7 7 -15 4 -24 -10 -8 20
17 31 12 6 35 28 50 50 68 96 66 81 23 125 -21 22 -37 41 -34 44 14 13 67 15
77 3 28 -33 102 -193 102 -220 0 -55 25 -23 30 39 5 50 1 67 -22 116 -41 85
-33 139 11 68 52 -86 50 -204 -4 -267 -41 -48 -105 -156 -105 -177 0 -26 17
-26 56 1 22 14 50 29 64 34 25 7 25 7 -2 8 -43 1 -42 4 51 154 13 20 24 37 25
37 8 0 96 -91 96 -99 0 -5 -6 -12 -12 -14 -8 -3 -5 -6 6 -6 18 -1 20 -39 5
-101 -3 -11 6 -16 35 -18 34 -3 38 -1 28 11 -10 11 -9 17 3 27 14 12 14 15 -1
31 -21 23 -11 69 17 76 11 3 18 11 15 19 -3 8 0 11 8 8 20 -8 81 51 93 88 6
21 15 32 24 29 8 -2 34 -9 59 -16 45 -12 45 -12 51 -82 4 -38 10 -85 15 -104
4 -19 8 -38 8 -44 1 -5 9 -11 19 -13 17 -4 18 -2 3 20 -8 13 -20 55 -26 93
-13 92 -11 134 4 69 6 -28 16 -58 22 -65 6 -8 15 -24 18 -36 4 -12 25 -36 46
-53 110 -87 265 50 278 246 4 71 4 71 56 66 42 -3 56 -10 81 -37 40 -42 75
-63 122 -71 35 -5 42 -2 85 38 46 42 88 111 88 144 0 13 9 15 58 10 31 -3 63
-5 70 -6 7 0 12 -14 12 -38 0 -117 85 -239 160 -229 114 15 210 178 210 357 0
86 0 87 -50 168 -49 82 -49 82 -24 88 30 8 34 4 43 -37 9 -43 27 -48 36 -10 8
39 25 50 32 22 6 -23 23 -29 23 -8 0 21 -38 47 -69 47 -31 0 -46 21 -28 39 6
6 8 11 4 11 -4 0 -3 9 3 20 7 14 7 20 0 20 -5 0 -10 -4 -10 -10 0 -5 -5 -10
-10 -10 -6 0 -9 13 -8 28 2 22 7 28 22 26 12 -1 26 -3 32 -3 29 -2 54 -38 48
-69 -6 -27 -3 -33 20 -41 19 -8 24 -15 19 -28 -4 -14 -3 -15 6 -7 9 8 9 17 0
38 -12 25 -10 30 19 58 17 18 34 29 37 26 3 -3 -1 -13 -9 -21 -20 -20 -10 -53
10 -36 8 6 25 8 39 5 26 -7 31 11 12 42 -5 7 -4 12 2 12 6 0 11 7 11 15 0 8
-7 15 -15 15 -9 0 -15 -9 -15 -24 0 -14 -4 -28 -10 -31 -6 -4 -10 8 -10 29 0
32 3 36 25 36 25 0 25 0 25 98 0 53 -5 115 -11 137 -12 43 -56 115 -71 115 -5
0 3 -17 20 -37 27 -36 56 -118 46 -134 -8 -14 -401 -8 -428 6 -26 14 -41 -5
-16 -20 20 -12 9 -49 -27 -89 -44 -48 -45 -48 -50 -16 -2 13 -8 27 -15 31 -6
4 -7 12 -3 19 6 9 3 9 -15 0 -12 -6 -27 -9 -35 -7 -7 3 -17 1 -23 -5 -12 -12
-35 -1 -27 12 3 5 -12 6 -32 3 -38 -6 -38 -6 -17 18 12 13 29 38 39 54 17 30
17 30 -6 3 -13 -15 -32 -38 -41 -51 -16 -23 -68 -29 -68 -7 0 20 31 91 47 107
10 10 29 32 43 48 41 48 56 57 77 46 10 -5 32 -13 48 -16 30 -7 30 -7 6 -26
-13 -11 -21 -22 -17 -26 3 -4 17 4 31 17 24 23 25 23 46 4 11 -10 25 -27 31
-37 9 -17 7 -18 -19 -13 -22 5 -33 2 -49 -16 -29 -33 -56 -79 -50 -85 2 -3 19
18 36 46 34 54 44 59 74 36 31 -24 423 -19 428 5 3 12 -24 50 -34 50 -9 0 -9
-3 0 -12 22 -22 12 -36 -29 -40 -36 -3 -42 -1 -61 30 -11 18 -22 31 -25 28 -3
-2 3 -16 12 -30 17 -26 17 -26 -71 -27 -209 -2 -187 -6 -202 37 -7 22 -11 51
-8 66 3 15 2 27 -2 27 -28 -4 -56 2 -43 10 10 7 6 10 -15 15 -63 14 -74 15
-69 5 4 -5 1 -9 -4 -9 -6 0 -11 -4 -11 -10 0 -5 13 -10 29 -10 57 0 100 -26
101 -60 0 -10 -5 -7 -15 7 -16 23 -86 45 -144 46 -28 0 -31 2 -18 12 22 16 3
35 -34 35 -35 0 -67 -44 -48 -66 8 -10 21 -13 38 -9 26 7 26 7 1 -22 -13 -15
-35 -38 -47 -51 -12 -12 -27 -39 -33 -60 -12 -45 -27 -69 -36 -59 -4 3 -1 14
7 23 11 13 11 18 2 21 -7 3 -13 14 -13 26 0 18 -2 19 -10 7 -6 -9 -5 -19 3
-29 9 -11 9 -15 0 -18 -7 -3 -13 -11 -13 -19 0 -8 -7 -14 -16 -14 -8 0 -13 4
-10 9 3 5 -35 6 -87 3 -85 -5 -91 -4 -78 11 26 33 0 17 -33 -19 -32 -35 -50
-41 -98 -31 -10 2 -21 7 -25 12 -4 4 -2 5 5 1 22 -13 13 10 -15 36 -44 40
-155 84 -146 57 3 -9 -54 -17 -66 -10 -5 3 -32 4 -60 3 -45 -4 -56 -9 -103
-55 -57 -55 -64 -52 -56 19 2 20 -1 34 -7 34 -10 1 24 30 35 30 3 0 13 -12 23
-27 18 -28 18 -28 15 1 -3 26 1 31 30 38 17 5 32 13 32 19 0 6 -8 5 -22 -2
-18 -9 -20 -9 -12 0 6 7 18 13 27 15 8 1 22 8 31 15 14 12 16 9 17 -25 1 -22
1 -42 0 -46 0 -5 5 -8 13 -8 19 0 28 27 10 34 -19 7 -18 46 5 95 10 23 16 53
13 67 -5 27 -50 64 -79 64 -15 -1 -13 -3 7 -15 14 -8 20 -14 13 -15 -6 0 -14
-8 -18 -19 -3 -10 -25 -38 -48 -61 -23 -23 -32 -38 -21 -31 22 11 56 48 85 91
14 21 18 23 33 11 19 -16 21 -57 2 -68 -7 -4 -18 -18 -25 -31 -7 -12 -17 -20
-23 -16 -7 4 -8 3 -4 -4 12 -20 -40 -38 -60 -21 -16 13 -17 11 -10 -13 4 -17
2 -28 -4 -28 -5 0 -10 7 -10 15 0 14 -13 20 -35 15 -5 -1 -2 7 8 18 9 10 17
27 17 38 0 16 -3 15 -17 -7 -18 -29 -53 -55 -53 -39 0 5 4 10 8 10 5 0 21 22
35 48 31 57 61 87 78 77 7 -5 10 -3 7 6 -3 8 4 27 15 43 17 23 18 30 6 38 -11
8 -11 9 2 5 9 -3 22 -1 30 4 11 7 11 9 -3 9 -12 0 -18 8 -18 24 0 32 -7 35
-54 27 -36 -6 -40 -9 -40 -38 0 -37 30 -86 47 -77 7 4 -7 -13 -29 -37 -23 -24
-45 -53 -48 -64 -4 -11 -23 -38 -42 -60 -35 -40 -35 -40 -172 -46 -137 -6
-137 -6 -2 -4 74 1 154 5 177 9 26 4 44 3 48 -4 11 -19 -27 -39 -75 -40 -283
-5 -300 -5 -301 8 -1 6 -2 17 -3 24 0 6 -29 23 -63 37 -35 14 -63 32 -63 39 0
6 -5 12 -11 12 -7 0 -8 -7 -4 -17 19 -47 17 -59 -4 -33 -14 17 -21 20 -21 10
0 -26 17 -42 44 -42 15 0 29 -4 32 -9 3 -5 -4 -9 -15 -9 -33 0 -71 19 -71 35
0 28 -15 15 -16 -14 -1 -21 3 -28 13 -24 9 4 11 0 7 -11 -15 -40 -55 -1 -60
59 -2 26 1 45 7 45 6 0 6 6 0 18 -5 10 -10 78 -11 152 -1 74 -3 151 -5 170 -2
19 -4 133 -5 253 -2 205 -3 217 -21 217 -18 0 -18 -10 -15 -217z m766 -382 c0
-11 -52 -21 -65 -13 -5 4 6 10 25 13 19 4 36 7 38 8 1 0 2 -3 2 -8z m-16 -52
c-6 -11 -24 -2 -24 11 0 5 7 7 15 4 8 -4 12 -10 9 -15z m-714 -64 c0 -8 -2
-15 -4 -15 -2 0 -6 7 -10 15 -3 8 -1 15 4 15 6 0 10 -7 10 -15z m0 -47 c0 -19
-2 -20 -10 -8 -13 19 -13 30 0 30 6 0 10 -10 10 -22z m-685 2 c3 -5 -1 -10 -9
-10 -9 0 -16 5 -16 10 0 6 4 10 9 10 6 0 13 -4 16 -10z m2240 -30 c3 -6 -5
-10 -19 -10 -14 0 -28 5 -31 10 -3 6 5 10 19 10 14 0 28 -4 31 -10z m-2288
-32 c-3 -8 -6 -5 -6 6 -1 11 2 17 5 13 3 -3 4 -12 1 -19z m30 -10 c-3 -8 -6
-5 -6 6 -1 11 2 17 5 13 3 -3 4 -12 1 -19z m700 -40 c-2 -13 -4 -3 -4 22 0 25
2 35 4 23 2 -13 2 -33 0 -45z m-730 10 c-3 -8 -6 -5 -6 6 -1 11 2 17 5 13 3
-3 4 -12 1 -19z m913 -8 c8 -5 11 -10 5 -10 -5 0 -17 5 -25 10 -8 5 -10 10 -5
10 6 0 17 -5 25 -10z m-445 -20 c3 -5 4 -10 1 -10 -3 0 -8 5 -11 10 -3 6 -4
10 -1 10 3 0 8 -4 11 -10z m220 -8 c-3 -3 -11 0 -18 7 -9 10 -8 11 6 5 10 -3
15 -9 12 -12z m-655 -2 c0 -5 -5 -10 -11 -10 -5 0 -7 5 -4 10 3 6 8 10 11 10
2 0 4 -4 4 -10z m510 -7 c5 -5 -32 -28 -40 -25 -3 1 -5 5 -5 10 0 4 -4 13 -9
21 -7 11 -3 13 20 7 16 -4 31 -10 34 -13z m420 -4 c0 -11 -12 -11 -35 -3 -12
5 -14 9 -4 14 14 9 39 2 39 -11z m-1050 -12 c0 -13 11 -34 24 -47 22 -20 23
-24 10 -37 -13 -13 -17 -12 -39 9 -29 27 -36 98 -10 98 9 0 15 -9 15 -23z
m747 16 c-4 -3 -10 -3 -14 0 -3 4 0 7 7 7 7 0 10 -3 7 -7z m70 -10 c-4 -3 -7
0 -7 7 0 7 3 10 7 7 3 -4 3 -10 0 -14z m-1082 -3 c3 -5 4 -10 1 -10 -3 0 -8 5
-11 10 -3 6 -4 10 -1 10 3 0 8 -4 11 -10z m325 -21 c0 -17 -4 -28 -10 -24 -5
3 -10 17 -10 31 0 13 5 24 10 24 6 0 10 -14 10 -31z m600 6 c0 -8 -9 -15 -20
-15 -22 0 -27 15 -7 23 21 9 27 7 27 -8z m55 5 c3 -5 2 -10 -4 -10 -5 0 -13 5
-16 10 -3 6 -2 10 4 10 5 0 13 -4 16 -10z m146 -45 c2 -30 2 -30 6 -1 4 27 6
28 46 23 23 -3 43 -11 45 -16 2 -6 8 -11 13 -11 6 0 7 5 4 10 -3 6 -1 10 4 10
6 0 11 -3 11 -7 -1 -22 -20 -32 -65 -36 -33 -2 -20 -4 37 -5 48 -1 89 -6 92
-11 4 -5 -29 -24 -71 -41 -43 -18 -89 -41 -103 -52 -25 -20 -25 -20 -33 59 -9
90 -10 102 -8 123 2 26 20 -10 22 -45z m313 24 c-3 -5 -1 -9 5 -9 5 0 11 5 13
11 2 6 23 9 48 7 45 -3 45 -3 -5 -21 -27 -11 -62 -25 -77 -33 -26 -14 -28 -14
-34 11 -9 38 0 53 30 48 14 -3 23 -9 20 -14z m162 -4 c-15 -14 -31 -25 -36
-25 -16 0 -29 -35 -19 -51 8 -11 14 -9 36 16 29 33 82 75 95 75 11 0 10 -122
-2 -140 -6 -9 -21 -14 -44 -12 -24 3 -41 -3 -55 -17 -12 -12 -16 -21 -10 -21
6 0 17 7 25 15 9 8 23 15 32 15 13 0 11 -5 -9 -22 -27 -22 -27 -22 5 -50 17
-15 36 -28 42 -28 7 0 14 -16 16 -35 6 -52 -17 -45 -83 25 -56 60 -56 60 -165
66 -108 6 -149 18 -122 35 7 5 32 9 55 9 23 0 45 5 49 12 5 8 -12 9 -67 5 -90
-8 -114 2 -63 26 19 10 33 13 29 7 -7 -12 -3 -12 19 -4 9 3 14 10 11 14 -3 5
3 6 14 3 10 -3 32 2 49 11 24 12 31 13 35 2 3 -7 21 -21 41 -30 45 -21 45 -33
4 -51 -18 -8 -26 -15 -18 -15 8 -1 25 -3 37 -6 17 -3 26 3 38 25 15 30 15 30
-41 55 -30 14 -53 30 -50 35 8 13 149 78 175 81 2 0 -8 -11 -23 -25z m-226
-15 c0 -30 0 -30 -56 -30 -40 0 -54 3 -51 13 2 6 14 11 26 10 15 -2 21 3 21
17 0 16 7 20 30 20 27 0 30 -3 30 -30z m714 -3 c13 -9 27 -30 31 -46 3 -16 12
-34 18 -40 7 -5 24 -35 37 -65 14 -31 28 -56 33 -56 10 0 9 18 -4 43 -9 16 -9
22 0 25 6 2 11 9 11 15 0 16 92 9 102 -7 19 -28 8 -105 -17 -130 -14 -14 -25
-37 -25 -51 0 -36 16 -23 24 20 4 20 11 33 15 30 5 -3 5 -22 1 -42 -6 -24 -5
-40 1 -44 7 -4 4 -12 -6 -23 -9 -9 -12 -16 -7 -16 25 0 71 74 96 151 24 74 62
139 82 139 3 0 -3 -15 -14 -33 -11 -19 -30 -69 -43 -112 -16 -54 -33 -88 -56
-113 -41 -43 -41 -42 2 -35 19 3 42 2 52 -2 10 -5 24 -7 31 -6 6 1 12 -3 12
-10 0 -13 -110 -5 -172 13 -34 10 -37 14 -43 59 -4 26 -4 52 -1 57 3 5 -6 14
-20 20 -13 7 -29 24 -35 39 -5 16 -27 56 -47 90 -35 60 -39 63 -77 64 -70 1
-110 13 -100 29 3 5 1 10 -5 10 -7 0 -10 -6 -7 -14 8 -21 -12 -25 -65 -11 -27
6 -48 8 -48 4 0 -5 18 -13 41 -19 42 -12 42 -12 11 -50 -3 -3 -1 5 2 18 6 17
3 22 -9 22 -13 0 -16 -6 -13 -24 5 -25 -32 -56 -66 -56 -18 0 -13 51 10 88 20
31 -2 30 -50 -3 -36 -24 -66 -32 -66 -17 0 4 16 18 35 31 19 13 37 32 41 43 9
30 40 37 166 34 87 -3 124 -7 142 -19z m-1702 -22 c-3 -17 -10 -25 -20 -23
-21 4 -28 28 -8 28 9 0 16 7 16 16 0 8 4 13 9 10 4 -3 6 -17 3 -31z m2603 16
c-6 -5 -19 -11 -30 -14 -12 -3 -6 -5 15 -6 27 -1 31 -4 20 -11 -13 -9 -13 -10
0 -11 36 -5 144 -5 133 -2 -7 3 -13 11 -13 19 0 20 66 19 74 -1 3 -9 0 -15 -9
-15 -7 0 -17 -4 -20 -10 -3 -6 1 -7 9 -4 9 3 16 2 16 -4 0 -5 -7 -12 -15 -16
-8 -3 -15 -12 -15 -20 0 -9 -10 -20 -21 -27 -24 -12 -39 1 -39 34 0 9 -7 17
-16 17 -12 0 -14 -4 -6 -12 21 -27 23 -55 5 -62 -10 -4 -14 -4 -10 0 16 16
-36 54 -74 54 -20 0 -42 7 -49 15 -15 19 -23 14 -14 -9 4 -10 18 -16 38 -17
17 0 40 -5 51 -10 13 -6 -12 -8 -78 -6 -82 2 -95 0 -80 -11 10 -7 34 -12 53
-11 51 3 70 0 70 -10 0 -4 -23 -7 -51 -5 -32 3 -48 1 -44 -6 3 -5 13 -10 21
-10 8 0 14 -5 14 -11 0 -6 -7 -9 -15 -5 -11 4 -22 -9 -41 -50 -23 -50 -44 -64
-44 -28 0 8 4 13 8 10 5 -3 5 16 1 42 -4 26 -8 59 -8 74 -1 35 46 91 70 85 16
-4 17 -2 8 14 -11 21 14 29 26 9 3 -5 11 -10 16 -10 15 0 -11 23 -41 37 -22
10 -19 12 35 12 35 1 55 -3 50 -8z m282 2 c-4 -3 -10 -3 -14 0 -3 4 0 7 7 7 7
0 10 -3 7 -7z m-41 -18 c10 -8 14 -15 8 -15 -5 0 -19 7 -30 15 -10 8 -14 15
-8 15 5 0 19 -7 30 -15z m-126 -5 c0 -5 -6 -10 -14 -10 -8 0 -18 5 -21 10 -3
6 3 10 14 10 12 0 21 -4 21 -10z m191 -7 c13 -16 12 -17 -3 -4 -10 7 -18 15
-18 17 0 8 8 3 21 -13z m-2840 -13 c29 0 92 -43 160 -109 64 -62 68 -75 42
-124 -9 -18 -16 -34 -15 -37 1 -7 -101 -60 -117 -60 -7 0 -31 -16 -52 -35 -39
-35 -84 -54 -97 -40 -4 3 1 13 12 20 11 8 16 21 13 30 -4 8 -1 15 5 15 9 0 9
3 0 12 -21 21 -13 30 22 24 28 -5 37 -3 49 14 14 20 14 20 26 -6 11 -26 39
-28 32 -3 -23 83 -25 101 -7 111 11 6 15 16 11 31 -4 15 0 12 15 -10 23 -35
28 -37 46 -25 8 5 7 11 -4 22 -14 13 -15 12 -9 -3 15 -41 -6 -12 -30 39 -23
50 -87 114 -115 114 -16 0 -8 -18 12 -23 21 -5 79 -112 66 -124 -11 -12 -40
11 -55 44 -14 31 -33 43 -81 49 -42 5 -103 31 -91 38 6 4 21 1 33 -6 13 -6 32
-13 43 -15 11 -2 30 -5 43 -8 19 -5 22 -3 15 10 -5 9 -7 30 -5 48 3 18 7 26 9
20 3 -7 13 -13 24 -13z m2599 10 c0 -5 -5 -10 -11 -10 -5 0 -7 5 -4 10 3 6 8
10 11 10 2 0 4 -4 4 -10z m-565 -14 c108 -5 163 -13 183 -29 14 -11 17 -31 2
-22 -5 3 -10 -1 -10 -9 0 -11 9 -16 28 -16 35 0 79 -78 84 -150 5 -76 -15 -60
-31 25 -16 85 -23 98 -58 107 -22 6 -22 3 -26 -81 -3 -86 -3 -86 -5 22 -2 107
-2 107 -79 108 -44 0 -70 4 -60 8 13 5 1 10 -41 17 -38 6 -58 6 -55 0 4 -5 -8
-7 -28 -4 -19 3 -43 2 -54 -2 -11 -4 -30 -4 -42 1 -14 5 -23 5 -23 -1 0 -6 8
-10 18 -11 9 0 4 -4 -11 -9 -49 -15 -60 -2 -26 29 26 24 37 27 82 24 28 -1 97
-5 152 -7z m-2148 -3 c-4 -3 -10 -3 -14 0 -3 4 0 7 7 7 7 0 10 -3 7 -7z m2933
-3 c0 -5 -7 -10 -16 -10 -8 0 -12 5 -9 10 3 6 10 10 16 10 5 0 9 -4 9 -10z
m-47 -7 c-7 -2 -13 -11 -13 -19 0 -8 -3 -13 -7 -13 -27 4 -22 -5 15 -27 43
-26 43 -26 20 -43 -65 -50 -104 -44 -92 15 6 33 57 95 77 93 9 0 9 -2 0 -6z
m-2856 -20 c-4 -3 -7 0 -7 7 0 7 3 10 7 7 3 -4 3 -10 0 -14z m198 7 c3 -5 2
-10 -4 -10 -5 0 -13 5 -16 10 -3 6 -2 10 4 10 5 0 13 -4 16 -10z m2175 0 c0
-5 -4 -10 -10 -10 -5 0 -10 5 -10 10 0 6 5 10 10 10 6 0 10 -4 10 -10z m565 0
c3 -5 1 -10 -4 -10 -6 0 -11 5 -11 10 0 6 2 10 4 10 3 0 8 -4 11 -10z m-1522
-36 c-5 -29 -2 -40 13 -51 18 -13 17 -14 -8 -9 -16 2 -28 0 -28 -5 0 -5 21 -9
46 -9 49 0 53 2 104 74 31 43 40 45 40 7 0 -28 -37 -85 -67 -104 -7 -4 -13
-15 -13 -22 0 -11 -12 -15 -44 -15 -70 0 -96 14 -97 52 -2 31 -2 31 -6 5 -2
-15 -9 -25 -14 -22 -5 4 -9 2 -9 -4 0 -5 5 -13 10 -16 6 -3 11 -16 11 -28 1
-18 2 -19 6 -4 4 14 11 17 31 13 15 -3 46 -7 70 -8 45 -2 56 -24 32 -69 -17
-31 -158 -17 -147 15 3 6 -2 19 -10 28 -15 17 -25 109 -15 136 4 10 87 71 99
72 1 0 -1 -16 -4 -36z m225 -5 c26 -45 75 -79 112 -78 25 1 25 1 -2 9 -40 12
-80 44 -101 79 -18 31 -18 31 21 31 55 0 73 -20 126 -140 18 -42 12 -46 -57
-30 -64 15 -147 95 -147 142 0 40 21 35 48 -13z m-1388 -1 c0 -12 -6 -9 -26
13 -19 22 -19 22 4 8 12 -8 22 -17 22 -21z m1763 25 c-7 -2 -21 -2 -30 0 -10
3 -4 5 12 5 17 0 24 -2 18 -5z m6 -97 c-11 -25 -25 -46 -29 -46 -5 0 -13 -12
-18 -27 -9 -25 -11 -25 -11 -6 -1 12 4 25 10 29 7 4 9 21 6 40 -3 19 -2 32 2
29 5 -2 11 5 14 16 4 15 2 19 -8 15 -9 -3 -12 0 -9 8 3 7 17 17 32 22 37 13
41 -17 11 -80z m-2362 77 c-4 -3 -10 -3 -14 0 -3 4 0 7 7 7 7 0 10 -3 7 -7z
m2723 -3 c0 -5 -4 -10 -10 -10 -5 0 -10 5 -10 10 0 6 5 10 10 10 6 0 10 -4 10
-10z m550 1 c0 -5 -5 -11 -12 -13 -19 -7 -58 3 -52 13 7 12 64 12 64 0z m-670
-92 c0 -64 -3 -89 -12 -89 -9 0 -8 -4 2 -10 12 -7 8 -10 -15 -10 -16 0 -47 -3
-67 -6 -32 -6 -38 -4 -38 11 0 36 -14 4 -15 -36 -1 -27 3 -43 13 -46 14 -6 -1
-22 -20 -23 -10 0 -11 189 -2 252 6 45 6 45 80 46 74 0 74 0 74 -89z m-2221
72 c10 -3 -24 -31 -39 -31 -16 0 -34 23 -25 32 4 3 53 3 64 -1z m109 -16 c-3
-3 -9 2 -12 12 -6 14 -5 15 5 6 7 -7 10 -15 7 -18z m732 5 c7 -13 18 -19 28
-16 23 7 55 -39 54 -78 0 -26 7 -36 46 -62 26 -17 57 -46 70 -64 23 -34 30
-66 12 -55 -6 3 -10 -4 -10 -17 -1 -66 -32 -58 -65 16 -30 66 -125 160 -163
161 -23 0 -27 4 -24 25 1 14 4 43 6 65 4 48 3 45 21 45 8 0 19 -9 25 -20z m17
3 c-4 -3 -7 0 -7 7 0 7 3 10 7 7 3 -4 3 -10 0 -14z m-87 -43 c0 -31 -4 -40
-17 -41 -17 -1 -17 -2 0 -6 9 -2 17 -11 17 -18 0 -7 -8 -16 -17 -18 -10 -3 5
-5 32 -6 46 -1 55 -5 95 -46 42 -43 44 -48 51 -122 4 -43 13 -79 18 -81 6 -2
9 -8 5 -13 -10 -17 -101 -9 -172 16 -39 14 -80 25 -89 25 -28 0 -101 55 -129
96 -25 37 -25 37 0 32 30 -6 41 14 24 42 -9 14 -16 16 -24 9 -10 -8 -20 1 -41
33 -15 24 -32 46 -38 50 -5 4 -6 10 -2 15 5 4 12 1 17 -6 5 -9 15 -11 26 -6
18 7 18 8 -1 15 -19 8 -19 9 3 9 17 1 27 -8 37 -31 8 -18 15 -31 15 -28 6 24
5 48 -2 44 -4 -3 -8 2 -8 10 0 20 5 20 35 0 28 -19 33 -44 8 -44 -23 0 -11 -9
26 -20 29 -8 31 -7 26 10 -5 15 -3 18 9 14 9 -3 13 -10 10 -15 -3 -5 7 -8 23
-8 16 1 21 3 11 6 -25 7 -19 104 8 114 37 15 44 10 44 -31z m482 28 c-7 -7
-12 -20 -12 -31 0 -10 -4 -15 -10 -12 -17 11 5 55 28 55 3 0 1 -5 -6 -12z
m1458 2 c0 -5 -7 -10 -16 -10 -8 0 -12 5 -9 10 3 6 10 10 16 10 5 0 9 -4 9
-10z m-2463 -15 c0 -8 -4 -12 -9 -9 -5 3 -6 10 -3 15 9 13 12 11 12 -6z m72
-30 c61 -38 72 -48 59 -56 -19 -13 -28 -11 -28 5 0 8 -10 22 -22 30 -26 18
-38 20 -38 6 0 -5 7 -10 15 -10 18 0 40 -50 27 -59 -5 -3 -15 -23 -21 -43 -12
-38 -27 -55 -38 -44 -3 3 0 13 8 23 9 10 2 8 -18 -6 -42 -31 -26 -49 65 -68
80 -16 111 -39 42 -30 -74 10 -144 27 -154 37 -9 9 17 70 46 107 15 19 19 115
5 132 -12 15 -6 12 52 -24z m2291 15 c0 -13 -5 -18 -15 -14 -29 11 -15 -4 19
-20 28 -13 32 -20 28 -41 -9 -50 -72 -15 -72 41 0 6 -7 14 -15 18 -30 11 -16
28 18 21 24 -5 28 -4 17 4 -13 9 -13 11 3 11 10 0 17 -8 17 -20z m17 3 c-4 -3
-7 0 -7 7 0 7 3 10 7 7 3 -4 3 -10 0 -14z m-2003 -9 c3 -8 2 -12 -4 -9 -6 3
-10 10 -10 16 0 14 7 11 14 -7z m330 -1 c11 -32 40 -70 85 -109 60 -53 91 -84
91 -91 0 -4 10 -18 23 -31 19 -21 19 -24 4 -19 -13 5 -17 3 -15 -5 3 -7 9 -13
14 -13 5 0 19 -10 32 -22 12 -13 28 -23 35 -23 8 0 22 -10 33 -22 19 -21 19
-21 -6 -14 -14 5 -35 9 -47 10 -12 1 -28 8 -36 14 -8 7 -17 9 -21 5 -4 -4 -4
0 0 10 3 10 1 17 -5 17 -19 0 -12 -38 10 -59 13 -12 17 -21 10 -26 -6 -3 -9
-11 -6 -16 4 -5 2 -9 -3 -9 -5 0 -12 15 -16 33 -5 22 -9 28 -15 19 -7 -11 -10
-10 -15 3 -9 24 -7 37 4 30 11 -7 9 6 -10 78 -10 39 -24 58 -76 104 -35 31
-64 60 -64 65 0 5 -9 27 -19 48 -14 30 -16 40 -6 40 7 0 15 -8 19 -17z m-1034
-3 c13 -8 13 -10 -2 -10 -10 0 -18 -10 -21 -27 -3 -23 -4 -21 -6 10 -1 39 4
43 29 27z m70 -15 c0 -26 -14 -33 -25 -15 -9 14 1 40 15 40 5 0 10 -11 10 -25z
m1033 17 c-8 -5 -2 -15 20 -32 45 -36 69 -61 64 -67 -14 -13 -107 60 -107 84
0 8 -5 11 -12 7 -7 -4 -8 -3 -4 4 4 7 17 12 29 12 14 0 18 -3 10 -8z m44 2
c-3 -3 -12 -4 -19 -1 -8 3 -5 6 6 6 11 1 17 -2 13 -5z m493 -15 c0 -5 -4 -9
-10 -9 -5 0 -10 7 -10 16 0 8 5 12 10 9 6 -3 10 -10 10 -16z m735 -9 c15 0 25
-22 24 -53 0 -21 -1 -21 -9 -2 -11 25 -13 1 -3 -34 6 -23 7 -23 14 -5 7 17 8
17 8 1 2 -33 -25 -51 -46 -30 -15 15 -17 30 -14 88 2 39 6 62 8 53 3 -10 10
-18 18 -18z m72 13 c-4 -3 -7 0 -7 7 0 7 3 10 7 7 3 -4 3 -10 0 -14z m-3219
-18 c1 -21 -3 -25 -23 -25 -29 0 -34 24 -7 39 25 15 27 14 30 -14z m57 15 c-3
-5 -15 -10 -26 -10 -10 0 -19 5 -19 10 0 6 12 10 26 10 14 0 23 -4 19 -10z
m855 -11 c0 -6 -4 -7 -10 -4 -5 3 -10 11 -10 16 0 6 5 7 10 4 6 -3 10 -11 10
-16z m627 -11 c-3 -7 -5 -2 -5 12 0 14 2 19 5 13 2 -7 2 -19 0 -25z m1863 -8
c25 -48 25 -50 0 -50 -15 0 -20 7 -20 29 0 16 -3 36 -6 45 -12 32 6 15 26 -24z
m-2633 3 c-4 -3 -7 0 -7 7 0 7 3 10 7 7 3 -4 3 -10 0 -14z m1239 -43 c39 -38
56 -60 46 -60 -15 0 -15 -2 -2 -10 13 -9 13 -10 0 -9 -8 1 -44 32 -79 70 -83
89 -55 96 35 9z m31 10 c29 -35 75 -53 94 -37 11 10 11 9 0 -5 -18 -24 -69 -2
-125 54 -28 28 -34 37 -17 28 14 -7 35 -25 48 -40z m351 44 c13 -4 22 -14 22
-25 0 -14 7 -19 27 -19 41 0 24 -7 -34 -13 -55 -6 -70 5 -58 44 7 21 9 22 43
13z m52 -20 c0 -8 -4 -12 -10 -9 -5 3 -10 13 -10 21 0 8 5 12 10 9 6 -3 10
-13 10 -21z m1187 9 c-4 -3 -7 0 -7 7 0 7 3 10 7 7 3 -4 3 -10 0 -14z m-3592
-3 c3 -5 -1 -10 -10 -10 -9 0 -13 5 -10 10 3 6 8 10 10 10 2 0 7 -4 10 -10z
m2865 -65 c0 -75 0 -75 -33 -75 -43 0 -50 8 -34 34 8 12 22 42 32 69 25 66 35
59 35 -28z m451 48 c-4 -15 -12 -28 -19 -31 -8 -2 -10 3 -6 15 3 10 8 24 10
31 7 25 22 11 15 -15z m-3161 -8 c16 -19 1 -19 -24 0 -16 12 -17 15 -4 15 8 0
21 -7 28 -15z m500 -5 c0 -5 -4 -10 -10 -10 -5 0 -10 5 -10 10 0 6 5 10 10 10
6 0 10 -4 10 -10z m631 -24 c5 -16 20 -46 35 -68 53 -76 -3 -120 -98 -75 -18
8 -50 18 -70 22 -21 4 -38 8 -38 10 0 3 52 118 55 123 4 4 89 20 99 18 6 -1
13 -15 17 -30z m48 -16 c17 -27 28 -50 25 -50 -19 0 -43 24 -53 51 -23 65 -12
65 28 -1z m1206 39 c42 -12 55 -23 55 -51 0 -22 -24 -23 -79 -3 -22 8 -41 10
-41 6 0 -13 89 -38 121 -33 25 4 29 8 24 26 -5 18 -4 18 4 4 12 -18 4 -75 -11
-84 -5 -3 -30 -3 -55 1 -33 5 -42 9 -32 16 10 6 5 9 -16 9 -17 0 -36 5 -41 10
-7 7 -21 6 -44 -3 -22 -10 -28 -16 -19 -21 8 -3 4 -4 -9 -2 -12 2 -20 0 -16
-5 11 -19 -46 -8 -66 13 -11 12 -21 20 -22 17 -2 -2 -8 -13 -14 -24 -10 -18
-22 -20 -98 -20 -47 0 -86 3 -86 7 0 4 6 5 13 2 10 -4 13 3 9 25 -4 30 -4 30
71 24 69 -5 76 -4 86 16 11 19 14 20 34 7 54 -35 147 -6 147 46 0 32 17 36 85
17z m-2198 -16 c-4 -3 -7 0 -7 7 0 7 3 10 7 7 3 -4 3 -10 0 -14z m370 0 c-4
-3 -7 0 -7 7 0 7 3 10 7 7 3 -4 3 -10 0 -14z m43 13 c0 -3 -5 -8 -12 -12 -7
-4 -8 -3 -4 4 7 12 16 16 16 8z m2577 -18 c-3 -8 -6 -5 -6 6 -1 11 2 17 5 13
3 -3 4 -12 1 -19z m-3212 3 c3 -5 -4 -12 -14 -16 -12 -4 -18 -12 -14 -21 3 -7
0 -14 -6 -14 -15 0 -14 33 1 48 14 14 25 15 33 3z m275 5 c0 -3 -4 -8 -10 -11
-5 -3 -10 -1 -10 4 0 6 5 11 10 11 6 0 10 -2 10 -4z m259 -59 c-1 -50 -1 -51
-13 -24 -7 16 -19 32 -26 37 -18 11 -6 35 19 37 19 2 21 -3 20 -50z m224 38
c-3 -9 -8 -14 -10 -11 -3 3 -2 9 2 15 9 16 15 13 8 -4z m1497 5 c0 -5 -4 -10
-9 -10 -6 0 -13 5 -16 10 -3 6 1 10 9 10 9 0 16 -4 16 -10z m-1689 -30 c6 0 7
-5 3 -11 -3 -6 0 -15 7 -20 10 -6 10 -9 2 -9 -15 0 -33 32 -32 57 1 17 2 17 6
1 2 -10 9 -18 14 -18z m24 20 c3 -5 1 -10 -4 -10 -6 0 -11 5 -11 10 0 6 2 10
4 10 3 0 8 -4 11 -10z m2692 -7 c-4 -3 -7 0 -7 7 0 7 3 10 7 7 3 -4 3 -10 0
-14z m-2567 -3 c0 -5 -5 -10 -11 -10 -5 0 -7 5 -4 10 3 6 8 10 11 10 2 0 4 -4
4 -10z m1088 -2 c16 -16 15 -29 -2 -22 -16 6 -30 34 -18 34 5 0 13 -5 20 -12z
m826 -3 c-4 -8 -11 -15 -16 -15 -6 0 -5 6 2 15 7 8 14 15 16 15 2 0 1 -7 -2
-15z m496 5 c0 -5 -4 -10 -10 -10 -5 0 -10 5 -10 10 0 6 5 10 10 10 6 0 10 -4
10 -10z m59 -19 c-3 -29 1 -34 16 -21 9 7 17 11 20 9 2 -2 -22 -22 -53 -43
-55 -36 -56 -37 -23 -6 18 18 30 35 25 39 -17 12 -17 51 1 45 9 -4 15 -14 14
-23z m66 19 c4 -6 -7 -10 -24 -10 -17 0 -31 5 -31 10 0 6 11 10 24 10 14 0 28
-4 31 -10z m-3207 -18 c2 -8 -8 -12 -27 -12 -33 0 -42 16 -13 23 23 6 35 3 40
-11z m422 8 c0 -5 -4 -10 -10 -10 -5 0 -10 5 -10 10 0 6 5 10 10 10 6 0 10 -4
10 -10z m-620 -25 c0 -28 -3 -30 -29 -13 -14 9 -16 14 -7 24 18 21 36 16 36
-11z m77 -12 c-3 -10 -5 -4 -5 12 0 17 2 24 5 18 2 -7 2 -21 0 -30z m1349 10
c-10 -10 -19 5 -10 18 6 11 8 11 12 0 2 -7 1 -15 -2 -18z m1657 16 c-12 -12
-143 -21 -143 -9 0 4 15 7 33 6 17 -1 48 1 67 5 52 10 55 10 43 -2z m373 -16
c-7 -7 -26 7 -26 19 0 6 6 6 15 -2 9 -7 13 -15 11 -17z m-1341 -1 c-3 -3 -11
0 -18 7 -9 10 -8 11 6 5 10 -3 15 -9 12 -12z m1169 12 c9 -3 16 -11 16 -17 0
-8 -3 -8 -11 0 -9 9 -18 8 -36 -4 -21 -14 -27 -14 -49 -2 -23 12 -24 14 -7 20
23 10 67 11 87 3z m-2514 -25 c0 -7 10 -20 22 -30 21 -19 21 -19 0 -19 -11 0
-27 -3 -36 -6 -11 -4 -16 -1 -16 10 0 9 -4 16 -10 16 -11 0 20 38 33 39 4 1 7
-4 7 -10z m270 -4 c-7 -9 -15 -13 -17 -11 -7 7 7 26 19 26 6 0 6 -6 -2 -15z
m2084 6 c8 -13 -3 -19 -24 -14 -11 3 -17 9 -14 14 7 11 31 12 38 0z m-2997 -8
c-4 -3 -10 -3 -14 0 -3 4 0 7 7 7 7 0 10 -3 7 -7z m3333 -8 c87 -45 106 -239
37 -378 -58 -118 -131 -168 -199 -136 -30 14 -79 123 -86 190 -5 50 -5 50 29
44 64 -12 122 33 84 65 -22 18 -19 30 8 30 34 0 49 14 68 62 10 24 18 37 18
31 1 -7 8 -13 17 -13 12 0 14 5 9 18 -16 37 -18 75 -4 70 22 -7 43 -58 30 -71
-17 -17 -13 -26 8 -20 25 6 42 -49 32 -99 -7 -32 -9 -33 -54 -31 -26 1 -47 -2
-47 -6 0 -5 -11 -6 -24 -4 -18 4 -32 -3 -55 -28 -32 -36 -42 -60 -14 -38 15
13 16 11 10 -21 -14 -77 -18 -126 -8 -105 5 11 10 37 10 58 2 83 31 21 31 -67
0 -24 4 -36 8 -29 4 7 5 48 1 90 -9 90 -6 99 15 49 9 -20 23 -52 32 -72 8 -20
18 -33 21 -30 3 3 -9 38 -27 76 -17 39 -30 73 -28 75 2 3 23 -9 47 -26 38 -28
41 -35 36 -63 -8 -45 10 -13 39 67 40 113 28 221 -34 287 -30 32 -64 41 -53
14 7 -18 -25 -94 -40 -94 -9 0 -5 39 9 88 6 22 5 23 -14 11 -11 -7 -18 -18
-15 -25 2 -7 -3 -24 -12 -37 -9 -15 -12 -26 -6 -29 19 -6 0 -48 -23 -49 -11 0
-15 -3 -8 -6 18 -7 14 -23 -6 -23 -34 0 -55 33 -41 64 13 27 24 33 34 16 3 -5
-2 -10 -11 -10 -23 0 -7 -15 25 -25 17 -5 21 -4 16 5 -12 20 -24 80 -14 74 5
-3 9 1 9 9 0 19 58 57 88 57 13 0 36 -7 52 -15z m-1359 -11 c7 -9 14 -25 14
-37 2 -18 -1 -17 -21 9 -33 40 -26 68 7 28z m1084 6 c-30 -13 -55 -13 -35 0 8
5 24 9 35 9 20 0 20 0 0 -9z m-3021 -49 c-7 -7 -34 21 -34 36 0 10 6 8 19 -8
11 -13 18 -26 15 -28z m2954 33 c2 -1 -18 -2 -44 -1 -33 0 -42 3 -29 8 17 6
63 2 73 -7z m107 -3 c-3 -6 -11 -11 -17 -11 -6 0 -6 6 2 15 14 17 26 13 15 -4z
m-1408 -39 c19 -50 20 -64 6 -69 -7 -2 -15 16 -22 47 -18 84 -10 95 16 22z
m1160 41 c-4 -3 -10 -3 -14 0 -3 4 0 7 7 7 7 0 10 -3 7 -7z m-1562 -33 c22
-43 19 -50 -25 -50 -41 0 -41 0 -20 22 11 12 20 30 20 40 0 26 7 22 25 -12z
m1272 23 c-4 -3 -2 -12 4 -19 6 -8 9 -21 5 -29 -3 -8 -2 -15 3 -15 5 0 12 -11
15 -25 25 -100 192 -149 355 -105 32 8 116 60 98 60 -12 0 29 73 52 94 21 19
21 19 21 0 0 -26 -38 -86 -50 -79 -6 3 -10 -3 -10 -14 0 -12 5 -21 10 -21 15
0 12 -43 -3 -65 -8 -10 -19 -15 -26 -11 -9 6 -9 11 0 22 15 18 -1 17 -25 -1
-27 -21 -47 -19 -39 3 6 14 4 15 -9 4 -42 -34 -275 -28 -369 9 -35 14 -64 18
-179 25 -52 3 -99 10 -105 15 -14 14 -25 11 -19 -6 4 -9 0 -15 -10 -15 -9 0
-15 -4 -13 -8 4 -13 -66 -82 -76 -75 -6 3 -7 1 -3 -5 3 -6 -3 -16 -14 -22 -29
-15 -25 4 5 29 33 25 26 62 -20 97 -52 39 -95 145 -59 143 13 0 14 -2 5 -6 -7
-3 -9 -8 -4 -12 5 -3 23 -25 42 -48 18 -24 38 -43 44 -43 6 0 21 -10 34 -22
18 -16 23 -18 23 -6 0 22 36 21 267 -7 18 -2 38 -7 45 -10 7 -4 -19 25 -58 64
-73 72 -114 90 -128 55 -7 -18 -26 -10 -26 11 0 21 41 28 87 16 37 -10 121
-82 145 -125 5 -9 13 -16 19 -16 5 0 1 12 -11 28 -11 15 -21 41 -23 59 -2 17
-11 43 -21 57 -16 25 -16 26 5 26 12 0 19 -3 16 -7z m-1628 -44 c-5 -9 -25
-27 -44 -39 -20 -12 -34 -28 -32 -35 4 -8 -7 -12 -30 -13 -46 -2 -59 6 -36 24
13 10 14 13 4 14 -12 0 -11 3 1 18 9 9 19 27 22 39 5 14 12 20 22 16 12 -4 13
-8 4 -13 -7 -4 -9 -13 -5 -20 4 -7 2 -16 -5 -20 -13 -8 -5 -30 11 -30 6 0 8 4
4 9 -3 6 5 15 17 22 13 7 27 18 31 26 5 7 13 10 19 7 7 -4 8 -2 4 4 -4 7 -4
17 0 23 11 18 24 -12 13 -32z m1701 32 c0 -11 100 -34 109 -26 3 3 -1 11 -9
16 -8 6 -10 9 -5 6 78 -31 90 -42 60 -53 -8 -4 -15 -14 -15 -24 0 -23 -16 -35
-23 -18 -3 7 -6 3 -6 -9 -1 -16 3 -21 14 -17 16 7 48 -20 37 -30 -3 -4 0 -12
8 -17 30 -21 -91 0 -133 23 -41 23 -100 128 -76 136 5 2 7 8 3 13 -3 5 4 9 15
9 12 0 21 -4 21 -9z m-350 -11 c0 -5 -4 -10 -10 -10 -5 0 -10 5 -10 10 0 6 5
10 10 10 6 0 10 -4 10 -10z m230 1 c0 -10 -26 -9 -36 2 -4 4 2 7 14 7 12 0 22
-4 22 -9z m-2500 -5 c0 -3 -4 -8 -10 -11 -5 -3 -10 -1 -10 4 0 6 5 11 10 11 6
0 10 -2 10 -4z m1789 -63 c1 -15 -8 -24 -28 -31 -30 -10 -30 -10 -15 31 25 73
26 74 34 47 5 -14 8 -35 9 -47z m1082 30 c1 -38 1 -38 14 -8 14 30 14 30 15 2
0 -22 -7 -31 -35 -44 -42 -20 -50 -48 -9 -33 31 12 37 12 30 1 -25 -40 -102
-9 -86 35 7 16 6 24 -1 24 -8 0 -7 5 1 15 15 18 37 19 43 3 3 -7 6 -1 6 15 1
41 21 32 22 -10z m-725 4 c3 -23 -3 -21 -17 4 -8 17 -8 20 2 17 7 -2 13 -12
15 -21z m-966 3 c20 -6 21 -8 5 -8 -11 0 -29 3 -40 8 -25 11 1 11 35 0z m150
-6 c20 -24 -8 -48 -41 -35 -24 10 -24 10 4 10 24 1 41 21 17 21 -5 0 -10 5
-10 10 0 15 16 12 30 -6z m615 6 c3 -5 4 -10 1 -10 -3 0 -8 5 -11 10 -3 6 -4
10 -1 10 3 0 8 -4 11 -10z m315 -21 c0 -10 -4 -19 -10 -19 -5 0 -10 12 -10 26
0 14 4 23 10 19 6 -3 10 -15 10 -26z m-1592 -19 c11 -31 5 -39 -16 -18 -14 14
-17 62 -3 54 5 -3 14 -19 19 -36z m42 9 c0 -10 -4 -19 -10 -19 -12 0 -31 35
-24 43 11 11 34 -5 34 -24z m385 21 c3 -5 16 -10 27 -10 34 0 97 -22 102 -36
2 -6 -1 -29 -7 -51 -12 -38 -12 -38 -18 -3 -6 35 -6 35 -8 0 -1 -24 -4 -31
-10 -22 -5 8 -17 12 -27 10 -15 -4 -13 -8 14 -20 33 -15 33 -15 -3 -42 -20
-16 -34 -31 -30 -34 3 -4 10 0 15 8 15 24 20 6 6 -21 -7 -14 -12 -32 -11 -40
1 -7 5 -42 9 -77 4 -35 10 -70 13 -78 3 -8 1 -14 -5 -14 -5 0 -12 10 -15 22
-4 12 -9 19 -13 15 -8 -8 -44 87 -44 114 0 10 -13 27 -29 39 -30 20 -30 21
-16 60 8 22 10 40 5 40 -6 0 -10 -6 -10 -12 0 -9 -4 -8 -11 2 -8 12 -10 8 -7
-17 5 -37 -6 -34 -33 11 -10 17 -19 26 -19 20 0 -6 11 -27 25 -47 40 -60 8
-54 -42 6 -6 8 -20 31 -31 51 -11 19 -23 32 -27 28 -5 -4 -5 -1 -1 6 5 7 14
11 22 8 8 -3 14 0 14 7 0 7 14 29 31 50 28 33 35 37 79 37 27 0 52 -4 55 -10z
m908 -10 c3 -11 3 -20 1 -20 -2 0 -8 9 -14 20 -6 11 -7 20 -2 20 6 0 12 -9 15
-20z m1003 -17 c-10 -10 -19 5 -10 18 6 11 8 11 12 0 2 -7 1 -15 -2 -18z
m-794 -23 c6 0 9 -3 6 -6 -9 -8 -48 14 -48 27 0 6 7 3 16 -5 8 -9 20 -16 26
-16z m-1317 10 c-3 -5 -11 -10 -16 -10 -6 0 -7 5 -4 10 3 6 11 10 16 10 6 0 7
-4 4 -10z m508 3 c-7 -2 -19 -2 -25 0 -7 3 -2 5 12 5 14 0 19 -2 13 -5z m674
-10 c-4 -3 -7 0 -7 7 0 7 3 10 7 7 3 -4 3 -10 0 -14z m-634 -24 c31 -14 26
-29 -9 -29 -13 0 -24 -5 -24 -11 0 -6 -9 -9 -19 -6 -10 2 -25 1 -32 -4 -21
-13 38 -12 62 1 13 8 19 7 19 0 0 -7 9 -9 23 -5 20 5 20 5 -3 -9 -15 -8 -26
-10 -29 -5 -1 6 -8 3 -15 -6 -18 -24 -55 -27 -69 -4 -6 10 -20 19 -29 19 -26
0 -22 -18 4 -22 13 -2 24 -11 26 -22 3 -11 0 -16 -7 -12 -17 11 -13 -5 9 -42
27 -43 25 -52 -2 -16 -13 16 -22 32 -21 36 1 3 -12 9 -30 13 -46 9 -77 26 -77
43 0 36 23 90 36 85 18 -7 18 -44 -1 -69 -20 -26 -19 -37 4 -25 12 7 21 26 25
54 10 65 67 78 159 36z m1012 21 c6 0 4 -4 -3 -9 -15 -9 -106 -4 -150 9 -16 5
6 6 58 4 47 -2 90 -4 95 -4z m-198 -7 c-4 -3 -10 -3 -14 0 -3 4 0 7 7 7 7 0
10 -3 7 -7z m228 -3 c3 -5 1 -10 -4 -10 -6 0 -11 5 -11 10 0 6 2 10 4 10 3 0
8 -4 11 -10z m505 -11 c0 -5 -7 -9 -15 -9 -8 0 -15 7 -15 15 0 9 6 12 15 9 8
-4 15 -10 15 -15z m-869 -28 c21 -26 21 -26 -5 -29 -14 -2 -33 2 -43 8 -14 9
-11 10 16 4 23 -4 31 -3 27 5 -4 6 -18 11 -32 11 -27 0 -64 16 -64 28 0 20 81
-1 101 -27z m1039 -17 c0 -7 -13 -15 -30 -19 -42 -9 -37 -22 8 -18 29 2 33 1
17 -6 -11 -5 -32 -10 -47 -10 -26 -1 -27 1 -21 32 8 41 10 44 33 29 16 -10 18
-9 14 3 -4 8 -12 15 -20 15 -8 0 -14 7 -14 15 0 13 6 11 30 -7 17 -12 30 -27
30 -34z m-1463 29 c-4 -3 -7 0 -7 7 0 7 3 10 7 7 3 -4 3 -10 0 -14z m105 -25
c-12 -12 -72 -1 -72 13 0 9 13 12 43 10 9 -1 17 4 17 11 0 8 5 5 11 -5 8 -13
8 -22 1 -29z m1405 35 c-4 -3 -10 -3 -14 0 -3 4 0 7 7 7 7 0 10 -3 7 -7z
m-2387 -35 c0 -16 -5 -19 -25 -16 -17 4 -25 0 -28 -11 -2 -13 -37 34 -37 51 0
2 20 2 45 0 37 -3 45 -7 45 -24z m1160 11 c0 -5 -7 -9 -17 -9 -15 0 -15 -2 1
-19 10 -11 24 -17 32 -14 8 3 14 0 14 -6 0 -6 9 -11 19 -11 11 0 22 -4 25 -8
3 -5 -17 -4 -44 2 -27 5 -47 13 -44 18 3 4 -6 10 -20 14 -25 6 -42 40 -23 47
17 5 57 -4 57 -14z m-1104 -11 c18 -13 38 -33 43 -45 6 -13 15 -23 21 -23 5 0
10 -7 10 -15 0 -9 -20 6 -48 35 -26 27 -53 50 -60 50 -7 0 -12 5 -12 10 0 15
10 12 46 -12z m701 15 c-4 -3 -10 -3 -14 0 -3 4 0 7 7 7 7 0 10 -3 7 -7z m63
-2 c0 -4 -11 -6 -25 -3 -14 2 -25 6 -25 8 0 2 11 4 25 4 14 0 25 -4 25 -9z
m27 -8 c-4 -3 -10 -3 -14 0 -3 4 0 7 7 7 7 0 10 -3 7 -7z m-59 -9 c19 -4 32
-14 35 -26 3 -11 10 -17 16 -13 6 3 11 1 11 -5 0 -6 16 -33 35 -61 38 -56 39
-58 26 -78 -11 -17 -29 -2 -48 39 -6 14 -12 19 -12 12 -1 -7 -5 -11 -10 -8 -4
3 -6 -5 -4 -18 3 -14 0 -32 -7 -43 -10 -16 -11 -16 -6 0 8 24 -15 72 -26 55
-5 -9 -8 -7 -8 7 0 11 -13 48 -30 83 -31 66 -30 67 28 56z m510 -29 c23 -4 42
-11 42 -17 0 -6 -9 -8 -20 -5 -11 3 -22 1 -25 -3 -7 -12 -54 14 -72 40 -15 22
-15 22 8 7 13 -8 43 -18 67 -22z m397 -48 c21 -29 19 -37 -8 -37 -33 0 -97 65
-97 98 0 15 87 -36 105 -61z m-693 25 c-19 -3 -21 -6 -11 -18 9 -11 9 -18 0
-27 -15 -15 -74 16 -89 46 -6 12 -11 16 -11 10 -1 -20 -21 -15 -21 5 0 17 4
17 78 3 42 -9 67 -17 54 -19z m61 25 c4 3 7 1 7 -6 0 -17 -32 -10 -38 9 -4 12
-3 13 10 3 8 -7 18 -10 21 -6z m509 -7 c72 -56 83 -204 25 -316 -19 -37 -72
-84 -93 -84 -9 0 -13 -4 -10 -8 3 -5 -9 -7 -27 -5 -27 3 -29 2 -12 -7 17 -9
15 -9 -10 -5 -103 20 -146 145 -101 295 37 122 154 189 228 130z m95 13 c-4
-3 -10 -3 -14 0 -3 4 0 7 7 7 7 0 10 -3 7 -7z m-975 -11 c-9 -6 -5 -23 18 -71
42 -87 31 -88 -14 -2 -26 49 -33 71 -24 74 21 9 34 7 20 -1z m-302 -27 c0 -8
-7 -15 -16 -15 -14 0 -14 3 -4 15 7 8 14 15 16 15 2 0 4 -7 4 -15z m1338 -10
c16 -34 15 -40 -2 -26 -16 13 -28 51 -17 51 4 0 13 -11 19 -25z m117 -1 c28
-4 55 -6 60 -5 6 2 6 -1 2 -6 -5 -4 -12 -8 -15 -9 -4 0 -18 -3 -32 -7 -75 -18
-90 -17 -90 3 0 11 -4 20 -9 20 -5 0 -11 6 -14 14 -5 12 0 13 21 6 15 -5 50
-12 77 -16z m694 -6 c-5 -17 -12 -35 -16 -39 -10 -10 -73 38 -73 54 0 8 3 8 9
-1 6 -10 10 -10 21 3 7 8 25 15 41 15 26 0 27 -1 18 -32z m-1303 2 c14 0 24
-6 24 -14 0 -11 -8 -12 -42 -5 -54 13 -87 33 -39 25 18 -3 44 -6 57 -6z
m-1123 -26 c34 -31 31 -81 -9 -151 -31 -53 -36 -54 -28 -4 4 24 2 41 -5 45
-19 12 -12 136 8 136 3 0 19 -12 34 -26z m580 -26 c20 -48 9 -41 -22 14 -11
21 -15 35 -8 32 7 -2 20 -23 30 -46z m266 3 c10 -12 15 -13 18 -3 3 6 14 12
25 12 20 0 21 -1 3 -20 -29 -32 -96 -6 -108 41 -5 20 -5 20 21 3 15 -9 33 -24
41 -33z m71 39 c0 -5 -4 -10 -10 -10 -5 0 -10 5 -10 10 0 6 5 10 10 10 6 0 10
-4 10 -10z m145 -16 c17 -6 18 -8 3 -11 -20 -5 -58 13 -58 27 0 7 6 7 18 1 9
-5 26 -13 37 -17z m125 10 c0 -8 -4 -12 -10 -9 -5 3 -10 10 -10 16 0 5 5 9 10
9 6 0 10 -7 10 -16z m760 11 c0 -2 -5 -16 -12 -30 -14 -31 -32 -28 -36 8 -3
23 0 27 22 27 14 0 26 -2 26 -5z m-1469 -67 c17 -31 2 -19 -32 25 -30 39 -31
40 -5 17 15 -14 32 -33 37 -42z m1392 29 c-1 -18 3 -24 11 -21 26 10 25 -33 0
-45 -13 -6 -24 -7 -25 -3 -9 66 -8 103 3 99 7 -2 12 -16 11 -30z m-728 -7 c8
-12 -23 -6 -37 8 -8 8 -5 9 11 5 12 -3 24 -9 26 -13z m697 -31 c2 -41 -1 -53
-15 -60 -18 -10 -21 -7 -30 36 -4 18 -5 18 -6 -2 -1 -32 -31 -29 -71 6 -32 27
-32 29 -12 35 12 4 38 2 59 -3 39 -11 49 -9 39 8 -4 6 -13 8 -21 4 -8 -3 -15
0 -15 5 0 9 19 16 57 21 7 0 12 -19 15 -50z m-665 34 c-4 -3 -10 -3 -14 0 -3
4 0 7 7 7 7 0 10 -3 7 -7z m540 0 c-4 -3 -10 -3 -14 0 -3 4 0 7 7 7 7 0 10 -3
7 -7z m-1598 -17 c9 -10 9 -16 1 -21 -16 -10 -40 2 -40 20 0 19 24 20 39 1z
m1017 -38 c3 -11 3 -22 1 -25 -9 -8 -28 7 -22 18 7 11 -2 11 -30 0 -16 -7 -12
-10 25 -24 45 -15 45 -15 10 -16 -80 -2 -103 27 -58 74 20 21 24 22 45 8 12
-8 25 -24 29 -35z m69 19 c-19 -68 -40 -99 -41 -59 0 9 -3 29 -7 45 -6 23 -4
29 15 36 30 11 40 4 33 -22z m-158 12 c-14 -8 -22 -8 -30 0 -8 8 -3 11 19 11
25 -1 27 -2 11 -11z m-1197 -23 c0 -2 -8 -10 -17 -17 -16 -13 -17 -12 -4 4 13
16 21 21 21 13z m1000 -6 c0 -5 -4 -10 -10 -10 -5 0 -10 5 -10 10 0 6 5 10 10
10 6 0 10 -4 10 -10z m-921 -28 c10 -23 9 -43 -4 -98 -35 -148 -34 -146 -18
-140 11 5 14 -1 11 -22 -5 -40 -31 -35 -38 9 -4 19 -16 45 -27 56 -48 48 -37
152 20 198 40 31 42 31 56 -3z m1089 12 c6 -2 12 -8 12 -14 0 -6 -4 -9 -9 -5
-5 3 -11 -2 -13 -11 -2 -12 -10 -8 -33 16 -30 32 -30 32 0 25 17 -4 36 -8 43
-11z m-388 -32 c0 -15 -2 -15 -10 -2 -13 20 -13 33 0 25 6 -3 10 -14 10 -23z
m230 17 c0 -5 5 -7 10 -4 13 8 13 -84 0 -105 -11 -17 -23 10 -35 78 -6 35 -4
42 9 42 9 0 16 -5 16 -11z m107 -11 c28 -26 29 -40 4 -62 -17 -16 -19 -14 -35
27 -24 65 -14 77 31 35z m-1149 -8 c-7 -10 -14 -18 -15 -16 -6 6 9 36 18 36 5
0 4 -9 -3 -20z m1106 -37 c13 -37 13 -48 4 -55 -36 -22 -46 1 -32 71 8 40 9
40 28 -16z m843 40 c-4 -3 -10 -3 -14 0 -3 4 0 7 7 7 7 0 10 -3 7 -7z m-1040
-20 c-4 -3 -7 0 -7 7 0 7 3 10 7 7 3 -4 3 -10 0 -14z m67 -13 c20 -68 20 -67
-8 -35 -14 17 -26 36 -26 43 0 20 28 14 34 -8z m26 10 c0 -5 -2 -10 -4 -10 -3
0 -8 5 -11 10 -3 6 -1 10 4 10 6 0 11 -4 11 -10z m377 -32 c-3 -8 -6 -5 -6 6
-1 11 2 17 5 13 3 -3 4 -12 1 -19z m-1245 -23 c3 -13 1 -22 -3 -19 -9 5 -13
44 -5 44 2 0 6 -11 8 -25z m905 -84 c-10 -11 -13 -7 -19 25 -3 21 -9 50 -13
64 -4 14 5 3 18 -25 20 -39 23 -53 14 -64z m-1050 72 c-4 -3 -7 0 -7 7 0 7 3
10 7 7 3 -4 3 -10 0 -14z m454 -87 c17 -36 30 -69 27 -71 -5 -5 -88 155 -88
170 0 16 27 -28 61 -99z m936 82 c-3 -8 -6 -5 -6 6 -1 11 2 17 5 13 3 -3 4
-12 1 -19z m-1367 -107 c0 -3 -7 4 -15 15 -8 10 -14 35 -14 54 0 33 1 32 14
-15 8 -27 14 -52 15 -54z m796 39 c0 -10 -2 -17 -5 -15 -2 3 -11 -1 -19 -8
-11 -9 -11 -4 2 16 22 32 22 32 22 7z m-695 -23 c-8 -8 -11 -7 -11 4 0 20 13
34 18 19 3 -7 -1 -17 -7 -23z m102 18 c4 -8 2 -17 -3 -20 -6 -4 -10 3 -10 14
0 25 6 27 13 6z m-188 -55 c3 -5 4 -10 1 -10 -3 0 -8 5 -11 10 -3 6 -4 10 -1
10 3 0 8 -4 11 -10z m735 -20 c-6 -12 -14 -19 -17 -17 -2 3 1 15 7 27 6 12 14
19 17 17 2 -3 -1 -15 -7 -27z m297 3 c-4 -3 -10 -3 -14 0 -3 4 0 7 7 7 7 0 10
-3 7 -7z m-30 -20 c-4 -3 -7 0 -7 7 0 7 3 10 7 7 3 -4 3 -10 0 -14z m-840 -10
c-4 -3 -7 0 -7 7 0 7 3 10 7 7 3 -4 3 -10 0 -14z m593 13 c0 -2 -8 -10 -17
-17 -16 -13 -17 -12 -4 4 13 16 21 21 21 13z m-300 -111 c-7 -9 -15 -13 -19
-10 -3 3 1 10 9 15 21 14 24 12 10 -5z"/>
<path d="M1790 1490 c-9 -6 -10 -10 -3 -10 6 0 15 5 18 10 8 12 4 12 -15 0z"/>
<path d="M1983 1483 c4 -3 10 -3 14 0 3 4 0 7 -7 7 -7 0 -10 -3 -7 -7z"/>
<path d="M1928 1443 c7 -3 16 -2 19 1 4 3 -2 6 -13 5 -11 0 -14 -3 -6 -6z"/>
<path d="M2330 1570 c0 -5 5 -10 11 -10 5 0 7 5 4 10 -3 6 -8 10 -11 10 -2 0
-4 -4 -4 -10z"/>
<path d="M2388 1563 c12 -2 30 -2 40 0 9 3 -1 5 -23 4 -22 0 -30 -2 -17 -4z"/>
<path d="M2758 1453 c12 -2 32 -2 45 0 12 2 2 4 -23 4 -25 0 -35 -2 -22 -4z"/>
<path d="M2740 1420 c0 -7 24 -20 36 -20 13 0 1 19 -16 23 -11 3 -20 2 -20 -3z"/>
<path d="M2744 1378 c-4 -7 -3 -8 4 -4 12 7 16 16 8 16 -3 0 -8 -5 -12 -12z"/>
<path d="M2785 1220 c3 -5 8 -10 11 -10 3 0 2 5 -1 10 -3 6 -8 10 -11 10 -3 0
-2 -4 1 -10z"/>
<path d="M3505 1510 c3 -5 16 -10 28 -9 21 0 21 1 2 9 -28 12 -37 12 -30 0z"/>
<path d="M946 1175 c-4 -13 -2 -14 14 -5 23 13 26 20 6 20 -8 0 -16 -7 -20
-15z"/>
<path d="M3686 1448 c3 -4 11 -5 19 -1 21 7 19 12 -4 10 -11 0 -18 -5 -15 -9z"/>
<path d="M3010 1449 c0 -5 5 -7 10 -4 6 3 10 8 10 11 0 2 -4 4 -10 4 -5 0 -10
-5 -10 -11z"/>
<path d="M3012 1410 c0 -14 2 -19 5 -12 2 6 2 18 0 25 -3 6 -5 1 -5 -13z"/>
<path d="M3010 1360 c0 -7 3 -10 7 -7 3 4 3 10 0 14 -4 3 -7 0 -7 -7z"/>
<path d="M903 1443 c4 -3 10 -3 14 0 3 4 0 7 -7 7 -7 0 -10 -3 -7 -7z"/>
<path d="M1745 1410 c4 -14 9 -37 12 -52 5 -24 9 -26 34 -21 18 3 29 1 29 -6
0 -6 4 -11 9 -11 5 0 2 19 -7 41 -16 41 -16 41 -34 19 -17 -21 -18 -21 -18 -3
0 11 -7 28 -16 39 -15 18 -15 18 -9 -6z"/>
<path d="M1760 1148 c12 -52 32 -94 37 -80 8 21 -18 112 -32 112 -9 0 -11 -9
-5 -32z"/>
<path d="M1718 1104 c13 -24 40 -49 47 -42 3 2 -9 18 -26 34 -24 22 -29 24
-21 8z"/>
<path d="M1224 1288 c-4 -7 -3 -8 4 -4 12 7 16 16 8 16 -3 0 -8 -5 -12 -12z"/>
<path d="M3210 1340 c0 -7 3 -10 7 -7 3 4 3 10 0 14 -4 3 -7 0 -7 -7z"/>
<path d="M3499 1061 c-10 -16 -33 -37 -53 -46 -46 -22 -40 -31 6 -12 41 17 97
87 71 87 -5 0 -15 -13 -24 -29z"/>
<path d="M3505 1010 c-3 -6 1 -7 9 -4 18 7 21 14 7 14 -6 0 -13 -4 -16 -10z"/>
<path d="M2918 1087 c-3 -17 -9 -41 -13 -52 -8 -20 -8 -20 13 -1 13 11 22 31
22 47 0 40 -17 45 -22 6z"/>
<path d="M1320 820 c0 -7 3 -10 7 -7 3 4 3 10 0 14 -4 3 -7 0 -7 -7z"/>
<path d="M1350 800 c0 -7 3 -10 7 -7 3 4 3 10 0 14 -4 3 -7 0 -7 -7z"/>
<path d="M1507 939 c7 -7 15 -10 18 -7 3 3 -2 9 -12 12 -14 6 -15 5 -6 -5z"/>
<path d="M1800 976 c0 -2 7 -6 15 -10 8 -3 15 -1 15 4 0 6 -7 10 -15 10 -8 0
-15 -2 -15 -4z"/>
<path d="M1870 930 c0 -7 3 -10 7 -7 3 4 3 10 0 14 -4 3 -7 0 -7 -7z"/>
<path d="M1915 870 c3 -5 8 -10 11 -10 3 0 2 5 -1 10 -3 6 -8 10 -11 10 -3 0
-2 -4 1 -10z"/>
<path d="M2532 963 c-10 -4 -10 -8 0 -21 12 -15 11 -15 -13 0 -33 21 -64 7
-49 -22 5 -10 10 -30 10 -43 0 -22 -4 -24 -40 -22 -22 1 -40 -1 -40 -6 0 -15
18 -19 63 -13 43 6 45 8 36 31 -18 49 -12 55 29 33 20 -11 54 -26 75 -34 35
-14 37 -17 37 -60 0 -25 -5 -48 -10 -51 -6 -4 -8 -10 -5 -15 3 -5 -1 -24 -10
-41 -17 -31 -17 -31 -46 -3 -16 15 -29 33 -29 39 0 27 -24 35 -37 13 -8 -16
-12 -18 -13 -8 0 27 -76 41 -96 19 -16 -18 -16 -19 7 -20 24 -1 29 -1 64 9 18
5 18 4 6 -11 -12 -15 -11 -17 3 -17 12 0 16 -6 12 -17 -14 -50 -18 -96 -7 -89
6 4 11 22 11 41 0 55 18 49 31 -10 7 -30 15 -55 19 -55 8 0 -5 84 -15 100 -3
5 0 12 6 16 14 8 48 -33 49 -60 0 -12 11 -2 34 30 31 46 33 54 32 124 -2 92
-3 96 -43 137 -31 32 -44 37 -71 26z m67 -42 c24 -33 26 -41 9 -41 -16 0 -58
41 -58 57 0 23 28 14 49 -16z m-54 -11 c3 -5 1 -10 -4 -10 -6 0 -11 5 -11 10
0 6 2 10 4 10 3 0 8 -4 11 -10z"/>
<path d="M2520 866 c0 -8 4 -17 9 -20 5 -4 7 3 4 14 -6 23 -13 26 -13 6z"/>
<path d="M2560 830 c0 -5 7 -10 15 -10 8 0 15 5 15 10 0 6 -7 10 -15 10 -8 0
-15 -4 -15 -10z"/>
<path d="M2442 810 c-14 -23 -16 -42 -2 -20 9 13 11 13 20 0 6 -10 12 -11 18
-5 6 6 3 16 -7 27 -16 16 -17 16 -29 -2z"/>
<path d="M2541 813 c8 -10 18 -21 23 -25 6 -4 4 -14 -5 -25 -13 -16 -13 -17 4
-4 15 12 17 11 17 -3 0 -9 7 -16 15 -16 21 0 19 13 -5 35 -11 10 -18 21 -15
25 2 4 -7 12 -22 19 -25 11 -25 11 -12 -6z"/>
<path d="M2493 813 c4 -3 10 -3 14 0 3 4 0 7 -7 7 -7 0 -10 -3 -7 -7z"/>
<path d="M2430 610 c0 -7 3 -10 7 -7 3 4 3 10 0 14 -4 3 -7 0 -7 -7z"/>
<path d="M2497 589 c7 -7 15 -10 18 -7 3 3 -2 9 -12 12 -14 6 -15 5 -6 -5z"/>
<path d="M3126 2284 c-9 -8 -16 -20 -16 -25 0 -5 10 1 22 13 20 20 23 21 26 5
2 -9 8 -17 13 -17 5 0 9 -8 9 -17 0 -11 3 -13 9 -7 5 5 7 21 4 37 -6 31 -41
37 -67 11z"/>
<path d="M3239 2259 c-47 -43 -69 -52 -69 -30 0 31 -19 35 -46 10 -25 -24 -25
-24 5 -32 30 -7 30 -7 5 -54 -13 -26 -32 -55 -40 -65 -12 -13 -16 -37 -15 -97
1 -71 -1 -81 -16 -82 -11 0 -13 -3 -5 -6 9 -3 7 -12 -9 -34 -11 -16 -17 -29
-14 -29 4 0 -3 -9 -16 -20 -13 -10 -20 -19 -15 -20 4 0 22 11 38 25 21 17 37
24 52 20 14 -4 17 -3 8 3 -21 14 10 22 108 29 47 3 88 11 92 16 4 6 10 -1 13
-16 5 -20 16 -29 43 -37 47 -13 53 -5 8 10 -20 6 -36 17 -36 25 0 22 -30 41
-40 26 -4 -8 -13 -10 -19 -7 -6 4 -8 12 -5 18 3 5 7 30 8 54 1 30 8 49 21 60
13 10 15 14 5 11 -12 -4 -16 5 -17 37 -1 22 -6 79 -10 125 -8 83 -8 83 -34 60z
m21 -19 c0 -5 -7 -10 -16 -10 -8 0 -12 5 -9 10 3 6 10 10 16 10 5 0 9 -4 9
-10z m-66 -74 c-9 -14 -22 -26 -29 -26 -7 0 -16 -7 -19 -16 -4 -9 -9 -14 -12
-11 -3 3 7 24 22 46 28 44 37 52 27 24 -4 -11 -3 -14 5 -9 7 4 12 15 13 24 0
9 3 12 5 5 3 -6 -2 -23 -12 -37z m63 27 c-4 -3 -7 0 -7 7 0 7 3 10 7 7 3 -4 3
-10 0 -14z m-30 -10 c-4 -3 -7 0 -7 7 0 7 3 10 7 7 3 -4 3 -10 0 -14z m8 -45
c-3 -23 0 -28 18 -28 16 0 18 -3 9 -9 -7 -4 -25 -6 -40 -3 -15 3 -24 1 -20 -3
4 -5 3 -14 -3 -22 -9 -10 -5 -13 19 -13 37 0 48 -33 37 -116 -6 -52 -8 -54
-36 -54 -65 0 -64 105 1 127 28 9 32 13 17 18 -9 4 -23 2 -31 -4 -27 -22 -31
67 -5 115 16 31 38 26 34 -8z m-105 -53 c-7 -8 -17 -15 -22 -15 -6 0 -5 7 2
15 7 8 17 15 22 15 6 0 5 -7 -2 -15z m123 -12 c-7 -2 -19 -2 -25 0 -7 3 -2 5
12 5 14 0 19 -2 13 -5z m-103 -32 c0 -6 -4 -13 -10 -16 -5 -3 -10 1 -10 9 0 9
5 16 10 16 6 0 10 -4 10 -9z m14 -48 c-18 -35 -18 -53 1 -79 17 -25 11 -34
-20 -34 -24 0 -35 30 -35 97 0 29 2 33 14 24 11 -9 17 -9 28 3 21 24 28 18 12
-11z"/>
<path d="M3240 1966 c0 -8 -6 -17 -12 -19 -8 -3 -6 -6 5 -6 11 -1 17 6 17 19
0 11 -2 20 -5 20 -3 0 -5 -6 -5 -14z"/>
<path d="M3480 2195 c-7 -14 -20 -25 -27 -25 -8 0 -11 4 -8 10 3 5 0 7 -9 4
-28 -11 5 -32 36 -24 21 7 26 5 21 -6 -3 -8 0 -14 7 -14 6 0 9 4 6 9 -4 5 0
12 6 14 10 4 9 6 -1 6 -10 1 -11 4 -2 15 8 10 8 16 -2 25 -11 8 -17 5 -27 -14z
m20 1 c0 -3 -5 -8 -12 -12 -7 -4 -8 -3 -4 4 7 12 16 16 16 8z"/>
<path d="M3794 2208 c-4 -7 -3 -8 4 -4 12 7 16 16 8 16 -3 0 -8 -5 -12 -12z"/>
<path d="M3810 2195 c-14 -16 -10 -18 14 -9 9 3 16 10 16 15 0 14 -16 11 -30
-6z"/>
<path d="M3830 2170 c0 -7 3 -10 7 -7 3 4 3 10 0 14 -4 3 -7 0 -7 -7z"/>
<path d="M2966 2161 c-4 -7 -5 -15 -2 -18 9 -9 19 4 14 18 -4 11 -6 11 -12 0z"/>
<path d="M3543 2143 c2 -22 -3 -29 -28 -36 -61 -19 -62 -20 -43 -24 16 -4 16
-6 3 -19 -8 -9 -18 -13 -23 -10 -4 2 -8 -3 -9 -12 -1 -12 7 -18 28 -19 16 -1
29 2 29 7 0 5 -7 7 -15 4 -11 -5 -13 -2 -9 10 3 9 9 16 14 16 4 0 17 9 30 20
13 11 32 20 42 20 15 0 18 5 12 22 -6 21 -5 21 10 9 14 -12 19 -12 29 -1 9 10
9 11 -1 6 -6 -4 -25 2 -41 14 -30 21 -30 21 -28 -7z"/>
<path d="M3403 2153 c4 -3 10 -3 14 0 3 4 0 7 -7 7 -7 0 -10 -3 -7 -7z"/>
<path d="M1144 2142 c-5 -4 -20 -24 -33 -44 -17 -29 -29 -38 -49 -38 -21 0
-23 -3 -12 -10 12 -8 12 -14 -3 -45 -21 -44 -22 -64 -2 -71 12 -5 15 -25 15
-94 0 -89 0 -89 -32 -93 -33 -4 -33 -4 0 -5 45 -3 40 -22 -5 -23 -38 -1 -38
-1 -7 -8 17 -4 36 -11 43 -15 19 -12 1 -28 -24 -22 -41 10 -53 -1 -47 -47 6
-56 25 -68 32 -20 6 41 30 58 30 21 0 -24 59 -104 60 -81 0 6 -5 15 -11 18
-20 13 -27 49 -13 70 13 21 21 265 7 251 -4 -4 -10 -44 -14 -89 -6 -72 -7 -67
-5 43 2 125 2 125 96 131 93 5 71 11 -47 12 -51 1 -53 2 -53 28 0 15 3 29 8
31 7 3 62 72 76 96 8 14 6 15 -10 4z m-67 -489 c-4 -3 -7 0 -7 7 0 7 3 10 7 7
3 -4 3 -10 0 -14z"/>
<path d="M3094 2138 c-4 -7 -3 -8 4 -4 7 4 12 9 12 12 0 8 -9 4 -16 -8z"/>
<path d="M1320 2132 c0 -5 21 -33 47 -63 46 -54 46 -54 12 -60 -30 -6 -28 -6
14 -6 63 0 65 -5 23 -48 -20 -19 -36 -39 -36 -42 0 -4 18 11 40 32 44 43 49
61 21 70 -10 3 -40 32 -66 65 -49 61 -55 67 -55 52z"/>
<path d="M3400 2120 c-11 -7 -7 -9 17 -7 17 1 29 5 26 10 -6 10 -25 9 -43 -3z"/>
<path d="M1040 2110 c0 -12 8 -12 35 0 18 8 17 9 -7 9 -16 1 -28 -3 -28 -9z"/>
<path d="M2971 2106 c0 -11 -8 -27 -17 -37 -19 -21 -7 -30 25 -18 17 7 21 13
13 22 -5 6 -12 21 -15 32 -4 19 -5 19 -6 1z"/>
<path d="M3351 2096 c-10 -12 -8 -13 8 -9 12 3 21 9 21 14 0 14 -16 11 -29 -5z"/>
<path d="M3433 2073 c4 -3 10 -3 14 0 3 4 0 7 -7 7 -7 0 -10 -3 -7 -7z"/>
<path d="M3314 2058 c-4 -7 -3 -8 4 -4 12 7 16 16 8 16 -3 0 -8 -5 -12 -12z"/>
<path d="M3388 2063 c7 -3 16 -2 19 1 4 3 -2 6 -13 5 -11 0 -14 -3 -6 -6z"/>
<path d="M3524 2054 c-18 -14 -18 -15 6 -8 41 11 59 23 34 24 -11 0 -29 -7
-40 -16z"/>
<path d="M3696 2054 c-5 -14 -4 -15 8 -5 9 7 25 10 38 6 18 -5 20 -4 8 4 -22
16 -47 13 -54 -5z"/>
<path d="M920 2050 c0 -7 3 -10 7 -7 3 4 3 10 0 14 -4 3 -7 0 -7 -7z"/>
<path d="M3800 2050 c0 -7 3 -10 7 -7 3 4 3 10 0 14 -4 3 -7 0 -7 -7z"/>
<path d="M2950 2018 c0 -5 5 -8 10 -8 6 0 10 -42 10 -105 0 -63 -4 -105 -10
-105 -12 0 -13 -27 -1 -32 5 -1 12 -21 15 -42 4 -22 9 -42 11 -45 5 -4 10 61
6 89 -10 94 -12 228 -2 234 19 12 12 21 -14 21 -14 0 -25 -3 -25 -7z"/>
<path d="M876 1980 c-49 -55 -46 -62 5 -11 37 36 44 40 58 28 9 -8 23 -17 31
-22 8 -4 2 4 -15 19 -39 33 -36 33 -79 -14z"/>
<path d="M1318 2003 c7 -3 16 -2 19 1 4 3 -2 6 -13 5 -11 0 -14 -3 -6 -6z"/>
<path d="M1283 1973 c4 -3 10 -3 14 0 3 4 0 7 -7 7 -7 0 -10 -3 -7 -7z"/>
<path d="M1320 1976 c0 -9 39 -13 51 -5 10 6 4 9 -18 9 -18 0 -33 -2 -33 -4z"/>
<path d="M1400 1970 c-9 -6 -10 -10 -3 -10 6 0 15 5 18 10 8 12 4 12 -15 0z"/>
<path d="M985 1950 c3 -5 8 -10 11 -10 3 0 2 5 -1 10 -3 6 -8 10 -11 10 -3 0
-2 -4 1 -10z"/>
<path d="M3353 1953 c4 -3 10 -3 14 0 3 4 0 7 -7 7 -7 0 -10 -3 -7 -7z"/>
<path d="M822 1895 c-7 -15 -11 -30 -8 -32 7 -7 28 36 24 49 -2 6 -9 -2 -16
-17z"/>
<path d="M1000 1911 c0 -5 5 -13 10 -16 6 -3 10 -2 10 4 0 5 -4 13 -10 16 -5
3 -10 2 -10 -4z"/>
<path d="M2323 1863 c4 -3 10 -3 14 0 3 4 0 7 -7 7 -7 0 -10 -3 -7 -7z"/>
<path d="M1783 1853 c13 -3 16 -10 11 -25 -4 -15 -2 -19 7 -16 8 3 15 14 17
26 3 18 -1 22 -25 21 -17 -1 -21 -3 -10 -6z"/>
<path d="M3203 1853 c4 -3 10 -3 14 0 3 4 0 7 -7 7 -7 0 -10 -3 -7 -7z"/>
<path d="M1730 1840 c0 -7 3 -10 7 -7 3 4 3 10 0 14 -4 3 -7 0 -7 -7z"/>
<path d="M2781 1837 c-6 -8 -29 -22 -51 -32 -30 -13 -37 -21 -28 -27 8 -6 2
-7 -17 -4 -20 4 -25 3 -16 -2 11 -8 11 -10 0 -14 -14 -5 -4 -28 12 -28 6 0 8
4 4 10 -3 5 7 16 22 24 16 9 22 16 13 16 -8 1 6 12 33 26 26 13 47 29 47 34 0
14 -5 13 -19 -3z"/>
<path d="M2827 1815 c-4 -8 -2 -16 3 -16 20 -3 25 -5 39 -13 23 -15 8 15 -16
31 -18 12 -21 12 -26 -2z"/>
<path d="M1627 1809 c7 -7 15 -10 18 -7 3 3 -2 9 -12 12 -14 6 -15 5 -6 -5z"/>
<path d="M2280 1800 c0 -7 3 -10 7 -7 3 4 3 10 0 14 -4 3 -7 0 -7 -7z"/>
<path d="M2390 1800 c0 -7 3 -10 7 -7 3 4 3 10 0 14 -4 3 -7 0 -7 -7z"/>
<path d="M3394 1798 c-4 -7 -3 -8 4 -4 12 7 16 16 8 16 -3 0 -8 -5 -12 -12z"/>
<path d="M1215 1790 c3 -5 8 -10 11 -10 3 0 2 5 -1 10 -3 6 -8 10 -11 10 -3 0
-2 -4 1 -10z"/>
<path d="M1665 1790 c3 -5 8 -10 11 -10 3 0 2 5 -1 10 -3 6 -8 10 -11 10 -3 0
-2 -4 1 -10z"/>
<path d="M2912 1787 c-12 -7 -19 -16 -16 -20 11 -11 26 -8 19 3 -3 6 1 10 9
10 9 0 16 5 16 10 0 12 0 12 -28 -3z"/>
<path d="M1170 1776 c0 -8 4 -17 9 -20 5 -4 7 3 4 14 -6 23 -13 26 -13 6z"/>
<path d="M203 1763 c4 -3 10 -3 14 0 3 4 0 7 -7 7 -7 0 -10 -3 -7 -7z"/>
<path d="M2808 1763 c6 -2 18 -2 25 0 6 3 1 5 -13 5 -14 0 -19 -2 -12 -5z"/>
<path d="M1288 1743 c7 -3 16 -2 19 1 4 3 -2 6 -13 5 -11 0 -14 -3 -6 -6z"/>
<path d="M313 1733 c4 -3 10 -3 14 0 3 4 0 7 -7 7 -7 0 -10 -3 -7 -7z"/>
<path d="M1770 1730 c0 -5 10 -10 23 -10 18 0 19 2 7 10 -19 13 -30 13 -30 0z"/>
<path d="M3003 1733 c4 -3 10 -3 14 0 3 4 0 7 -7 7 -7 0 -10 -3 -7 -7z"/>
<path d="M3196 1725 c4 -8 10 -12 15 -9 14 8 10 24 -6 24 -9 0 -12 -6 -9 -15z"/>
<path d="M1399 1711 c-13 -11 -19 -20 -14 -20 14 0 50 28 43 34 -3 3 -16 -3
-29 -14z"/>
<path d="M1448 1723 c7 -3 16 -2 19 1 4 3 -2 6 -13 5 -11 0 -14 -3 -6 -6z"/>
<path d="M1930 1726 c0 -2 9 -6 20 -9 11 -3 20 -1 20 4 0 5 -9 9 -20 9 -11 0
-20 -2 -20 -4z"/>
<path d="M2726 1711 c-10 -11 -28 -22 -40 -24 -19 -4 -19 -4 -1 -6 11 0 34 10
50 24 17 13 25 24 19 25 -6 0 -19 -9 -28 -19z"/>
<path d="M2505 1690 c-27 -28 -27 -28 11 -20 21 5 42 6 47 3 6 -3 7 -1 3 6 -6
8 0 10 18 5 15 -3 32 -1 41 6 8 6 19 9 24 6 5 -4 12 -2 15 3 10 15 -22 21 -34
5 -14 -16 -46 -19 -54 -5 -14 22 -45 18 -71 -9z m52 3 c-4 -3 -10 -3 -14 0 -3
4 0 7 7 7 7 0 10 -3 7 -7z m-30 -10 c-4 -3 -10 -3 -14 0 -3 4 0 7 7 7 7 0 10
-3 7 -7z"/>
<path d="M3012 1710 c0 -26 16 -69 16 -45 0 11 -3 29 -8 40 -5 12 -8 14 -8 5z"/>
<path d="M260 1700 c0 -5 3 -10 8 -11 4 0 15 -2 25 -4 15 -3 16 -1 6 11 -13
16 -39 19 -39 4z"/>
<path d="M2450 1695 c7 -8 17 -15 22 -15 6 0 5 7 -2 15 -7 8 -17 15 -22 15 -6
0 -5 -7 2 -15z"/>
<path d="M3152 1698 c-7 -7 -12 -17 -12 -24 0 -7 -6 -14 -12 -17 -7 -2 -10 -8
-6 -12 5 -5 16 -1 26 8 43 39 102 9 84 -41 -6 -18 -7 -32 -2 -32 5 0 13 19 17
43 9 40 8 42 -18 49 -14 5 -32 15 -39 23 -15 18 -22 19 -38 3z"/>
<path d="M408 1688 c5 -5 16 -8 23 -6 8 3 3 7 -10 11 -17 4 -21 3 -13 -5z"/>
<path d="M70 1660 c-40 -3 -66 -10 -67 -17 -2 -8 4 -10 15 -6 16 6 16 5 0 -14
-12 -12 -17 -34 -17 -59 2 -39 2 -39 8 -4 12 67 49 100 70 63 6 -11 11 -13 11
-5 0 7 4 10 10 7 5 -3 19 3 31 13 26 25 18 28 -61 22z"/>
<path d="M2926 1655 c-11 -8 -15 -15 -9 -15 6 0 16 7 23 15 16 19 11 19 -14 0z"/>
<path d="M166 1652 c-3 -5 6 -15 19 -22 17 -9 22 -17 15 -24 -5 -7 -5 -17 0
-26 8 -12 10 -11 11 5 1 17 2 16 9 -5 7 -22 8 -21 9 13 1 31 5 40 23 45 21 5
21 6 2 13 -26 10 -82 11 -88 1z"/>
<path d="M1193 1653 c4 -3 10 -3 14 0 3 4 0 7 -7 7 -7 0 -10 -3 -7 -7z"/>
<path d="M2453 1645 c0 -8 4 -15 9 -15 4 0 8 7 8 15 0 8 -4 15 -8 15 -5 0 -9
-7 -9 -15z"/>
<path d="M2535 1650 c3 -5 8 -10 11 -10 2 0 4 5 4 10 0 6 -5 10 -11 10 -5 0
-7 -4 -4 -10z"/>
<path d="M295 1620 c3 -5 8 -10 11 -10 2 0 4 5 4 10 0 6 -5 10 -11 10 -5 0 -7
-4 -4 -10z"/>
<path d="M400 1620 c0 -5 5 -10 10 -10 6 0 10 5 10 10 0 6 -4 10 -10 10 -5 0
-10 -4 -10 -10z"/>
<path d="M1125 1590 c3 -5 8 -10 11 -10 2 0 4 5 4 10 0 6 -5 10 -11 10 -5 0
-7 -4 -4 -10z"/>
<path d="M3310 1563 c0 -9 36 -43 45 -43 3 0 5 3 5 8 -1 10 -50 45 -50 35z"/>
<path d="M26 1513 c-6 -15 -8 -15 -16 -3 -7 11 -9 1 -8 -30 0 -25 3 -35 5 -22
3 15 15 27 34 34 24 8 27 13 18 24 -15 19 -25 18 -33 -3z"/>
<path d="M1306 1505 c4 -8 10 -15 15 -15 4 0 6 7 3 15 -4 8 -10 15 -15 15 -4
0 -6 -7 -3 -15z"/>
<path d="M200 1500 c0 -6 7 -10 15 -10 8 0 15 2 15 4 0 2 -7 6 -15 10 -8 3
-15 1 -15 -4z"/>
<path d="M1230 1495 c0 -18 56 -49 65 -35 3 6 3 19 0 30 -8 24 -65 29 -65 5z
m54 -10 c7 -19 -3 -19 -28 0 -19 15 -19 15 1 15 11 0 23 -7 27 -15z"/>
<path d="M1466 1492 c-4 -13 -5 -26 -2 -29 10 -11 18 4 14 29 -4 23 -4 23 -12
0z"/>
<path d="M110 1490 c-35 -6 -35 -6 -7 -15 18 -5 33 -3 40 4 15 15 7 18 -33 11z"/>
<path d="M600 1480 c0 -5 5 -10 11 -10 5 0 7 5 4 10 -3 6 -8 10 -11 10 -2 0
-4 -4 -4 -10z"/>
<path d="M287 1474 c-8 -14 8 -37 22 -33 8 3 8 10 -2 23 -8 11 -17 15 -20 10z"/>
<path d="M1400 1470 c0 -5 9 -9 20 -7 31 5 36 17 7 17 -15 0 -27 -4 -27 -10z"/>
<path d="M400 1455 c0 -8 5 -15 10 -15 6 0 10 7 10 15 0 8 -4 15 -10 15 -5 0
-10 -7 -10 -15z"/>
<path d="M1570 1460 c0 -5 5 -10 11 -10 5 0 7 5 4 10 -3 6 -8 10 -11 10 -2 0
-4 -4 -4 -10z"/>
<path d="M120 1453 c0 -14 59 -42 66 -32 3 6 -3 13 -15 16 -12 3 -21 9 -21 14
0 5 -7 9 -15 9 -8 0 -15 -3 -15 -7z"/>
<path d="M1471 1434 c0 -11 3 -14 6 -6 3 7 2 16 -1 19 -3 4 -6 -2 -5 -13z"/>
<path d="M53 1423 c4 -3 10 -3 14 0 3 4 0 7 -7 7 -7 0 -10 -3 -7 -7z"/>
<path d="M1440 1420 c0 -7 3 -10 7 -7 3 4 3 10 0 14 -4 3 -7 0 -7 -7z"/>
<path d="M390 1410 c0 -12 8 -12 35 0 18 8 17 9 -7 9 -16 1 -28 -3 -28 -9z"/>
<path d="M580 1410 c0 -7 3 -10 7 -7 3 4 3 10 0 14 -4 3 -7 0 -7 -7z"/>
<path d="M1330 1401 c0 -5 7 -12 16 -15 24 -9 28 -7 14 9 -14 17 -30 20 -30 6z"/>
<path d="M413 1363 c4 -3 10 -3 14 0 3 4 0 7 -7 7 -7 0 -10 -3 -7 -7z"/>
<path d="M478 1363 c7 -3 16 -2 19 1 4 3 -2 6 -13 5 -11 0 -14 -3 -6 -6z"/>
<path d="M3760 1290 c0 -14 9 -21 35 -26 43 -8 50 -3 35 25 -15 29 -70 30 -70
1z"/>
<path d="M0 1074 c0 -18 11 -23 84 -37 47 -10 94 -17 105 -17 14 0 19 -5 15
-15 -6 -16 40 -23 49 -7 5 7 49 5 357 -13 69 -4 123 -5 120 -2 -3 3 -71 11
-150 17 -80 5 -180 13 -222 16 -101 7 -133 17 -132 37 2 21 -10 22 -26 2 -21
-25 -172 -4 -191 26 -6 10 -9 9 -9 -7z m247 -61 c-4 -3 -10 -3 -14 0 -3 4 0 7
7 7 7 0 10 -3 7 -7z"/>
<path d="M3705 960 c-22 -6 -9 -8 48 -9 45 -1 77 3 77 9 0 11 -80 11 -125 0z"/>
<path d="M1535 620 c-4 -6 -11 -8 -16 -5 -21 13 -27 -7 -8 -26 20 -20 22 -20
40 -3 10 9 19 23 19 31 0 15 -26 18 -35 3z m25 -4 c0 -2 -8 -10 -17 -17 -16
-13 -17 -12 -4 4 13 16 21 21 21 13z"/>
<path d="M2250 560 c20 -13 33 -13 25 0 -3 6 -14 10 -23 10 -15 0 -15 -2 -2
-10z"/>
<path d="M1845 520 c19 -8 93 -14 84 -6 -2 2 -26 6 -54 9 -32 4 -43 3 -30 -3z"/>
<path d="M1528 513 c6 -2 18 -2 25 0 6 3 1 5 -13 5 -14 0 -19 -2 -12 -5z"/>
<path d="M1600 502 c35 -6 35 -6 -5 -13 -37 -6 -35 -7 18 -6 31 0 57 4 57 7 0
9 -54 21 -84 18 -11 0 -5 -4 14 -6z"/>
<path d="M1698 433 c7 -3 16 -2 19 1 4 3 -2 6 -13 5 -11 0 -14 -3 -6 -6z"/>
<path d="M970 380 c0 -5 5 -10 11 -10 5 0 7 5 4 10 -3 6 -8 10 -11 10 -2 0 -4
-4 -4 -10z"/>
<path d="M993 343 c9 -2 25 -2 35 0 9 3 1 5 -18 5 -19 0 -27 -2 -17 -5z"/>
</g>
</svg>
