<?xml version="1.0" standalone="no"?>
<!DOCTYPE svg PUBLIC "-//W3C//DTD SVG 20010904//EN"
 "http://www.w3.org/TR/2001/REC-SVG-20010904/DTD/svg10.dtd">
<svg version="1.0" xmlns="http://www.w3.org/2000/svg"
 width="256.000000pt" height="384.000000pt" viewBox="0 0 256.000000 384.000000"
 preserveAspectRatio="xMidYMid meet">
<metadata>
Created by potrace 1.16, written by Peter Selinger 2001-2019
</metadata>
<g transform="translate(0.000000,384.000000) scale(0.100000,-0.100000)"
fill="#000000" stroke="none">
<path d="M0 2540 c0 -7 3 -10 7 -7 3 4 3 10 0 14 -4 3 -7 0 -7 -7z"/>
<path d="M3 2475 c0 -22 2 -30 4 -17 2 12 2 30 0 40 -3 9 -5 -1 -4 -23z"/>
<path d="M123 2434 c-37 -29 -100 -57 -112 -50 -5 3 -9 -36 -9 -87 -1 -103 6
-108 10 -7 3 65 3 65 49 90 59 32 105 67 99 74 -3 3 -20 -6 -37 -20z"/>
<path d="M296 2419 c-33 -21 -65 -39 -72 -39 -42 0 -70 -70 -44 -110 6 -11 9
-2 7 29 -2 45 -2 45 54 75 51 28 132 86 119 85 -3 0 -32 -18 -64 -40z"/>
<path d="M740 2440 c0 -11 7 -20 15 -20 8 0 15 9 15 20 0 11 -7 20 -15 20 -8
0 -15 -9 -15 -20z"/>
<path d="M831 2451 c-9 -6 -2 -10 23 -13 20 -2 36 0 36 4 0 4 -4 8 -9 8 -5 0
-15 2 -23 5 -7 3 -19 1 -27 -4z"/>
<path d="M660 2396 c-19 -12 -53 -27 -75 -31 -22 -4 -35 -9 -28 -12 20 -7 87
16 118 42 38 31 30 32 -15 1z"/>
<path d="M804 2411 c4 -6 18 -11 30 -11 13 0 44 -18 69 -40 25 -22 51 -40 59
-40 7 0 4 5 -7 11 -11 6 -33 26 -50 44 -29 33 -118 65 -101 36z"/>
<path d="M900 2416 c0 -2 30 -33 66 -68 58 -56 71 -64 115 -68 54 -6 59 0 28
31 -11 11 -18 27 -15 35 3 8 1 12 -4 9 -5 -3 -20 -1 -32 6 -23 11 -23 11 0
-10 12 -12 20 -26 17 -32 -4 -5 -1 -9 4 -9 6 0 11 -4 11 -9 0 -25 -69 11 -115
59 -37 38 -75 67 -75 56z"/>
<path d="M1063 2413 c4 -3 10 -3 14 0 3 4 0 7 -7 7 -7 0 -10 -3 -7 -7z"/>
<path d="M995 2400 c3 -5 8 -10 11 -10 3 0 2 5 -1 10 -3 6 -8 10 -11 10 -3 0
-2 -4 1 -10z"/>
<path d="M1023 2403 c4 -3 10 -3 14 0 3 4 0 7 -7 7 -7 0 -10 -3 -7 -7z"/>
<path d="M380 2380 c0 -7 3 -10 7 -7 3 4 3 10 0 14 -4 3 -7 0 -7 -7z"/>
<path d="M475 2355 c-33 -13 -68 -21 -77 -19 -10 3 -18 1 -18 -5 0 -6 7 -11
16 -11 25 0 144 43 144 52 0 4 -1 7 -2 7 -2 -1 -30 -12 -63 -24z"/>
<path d="M1323 2373 c4 -3 10 -3 14 0 3 4 0 7 -7 7 -7 0 -10 -3 -7 -7z"/>
<path d="M1350 2366 c0 -2 7 -7 16 -10 8 -3 12 -2 9 4 -6 10 -25 14 -25 6z"/>
<path d="M1705 2360 c3 -5 8 -10 11 -10 3 0 2 5 -1 10 -3 6 -8 10 -11 10 -3 0
-2 -4 1 -10z"/>
<path d="M840 2355 c0 -2 10 -10 23 -16 20 -11 21 -11 8 4 -13 16 -31 23 -31
12z"/>
<path d="M1153 2353 c4 -3 10 -3 14 0 3 4 0 7 -7 7 -7 0 -10 -3 -7 -7z"/>
<path d="M1190 2353 c0 -5 10 -18 23 -29 22 -19 22 -19 2 6 -11 14 -21 27 -22
29 -2 2 -3 0 -3 -6z"/>
<path d="M485 2315 c-39 -32 -28 -32 15 0 19 14 30 25 24 25 -5 0 -22 -11 -39
-25z"/>
<path d="M1757 2329 c7 -7 15 -10 18 -7 3 3 -2 9 -12 12 -14 6 -15 5 -6 -5z"/>
<path d="M1410 2321 c0 -6 4 -13 10 -16 6 -3 7 1 4 9 -7 18 -14 21 -14 7z"/>
<path d="M1800 2310 c8 -5 20 -10 25 -10 6 0 3 5 -5 10 -8 5 -19 10 -25 10 -5
0 -3 -5 5 -10z"/>
<path d="M406 2293 c-10 -10 -16 -12 -12 -5 4 6 5 12 2 12 -13 0 -87 -44 -111
-66 -14 -13 -31 -24 -36 -24 -6 0 -7 -5 -4 -10 3 -6 -1 -13 -9 -16 -30 -12
-16 -22 24 -18 30 4 40 1 40 -10 0 -14 -78 -12 -90 3 -8 10 -33 13 -90 11
-101 -3 -113 -5 -118 -18 -2 -8 3 -10 15 -6 17 5 17 5 1 -9 -21 -17 -23 -33
-5 -40 9 -4 9 -6 0 -6 -7 -1 -13 -5 -13 -11 0 -11 28 -9 48 4 11 7 11 4 1 -12
-7 -12 -15 -20 -18 -20 -18 2 -31 -3 -31 -11 0 -14 44 1 57 20 8 11 21 15 34
12 15 -4 17 -8 8 -17 -8 -8 -13 -8 -16 2 -3 9 -14 2 -29 -19 -13 -18 -24 -29
-24 -25 0 5 -7 3 -15 -4 -17 -14 -21 -35 -5 -25 6 3 10 1 10 -4 0 -6 -4 -11
-10 -11 -5 0 -10 -12 -10 -26 0 -23 3 -26 29 -22 26 4 28 2 21 -13 -7 -12 -5
-19 5 -23 11 -4 15 2 15 21 0 44 10 20 11 -29 2 -35 6 -45 16 -41 10 4 11 9 2
19 -7 8 -8 33 -4 68 6 48 10 56 29 56 15 0 17 -3 8 -9 -9 -5 -13 -27 -12 -62
2 -64 -7 -99 -25 -99 -8 0 -16 9 -20 20 -6 19 -8 19 -31 3 -14 -8 -28 -13 -31
-9 -4 4 3 9 15 13 24 6 30 23 8 23 -18 0 -32 -20 -34 -47 -1 -26 -1 -26 32
-13 21 8 24 7 19 -7 -5 -12 -3 -14 8 -7 19 12 37 15 82 16 20 0 40 4 43 9 8
14 24 10 24 -6 0 -8 5 -15 11 -15 6 0 9 7 5 15 -4 11 1 15 17 15 18 0 19 -2 7
-10 -10 -6 -11 -10 -2 -10 13 0 18 -159 5 -161 -42 -4 -183 -3 -183 2 0 3 -7
6 -15 6 -8 0 -12 -4 -10 -8 3 -4 -2 -10 -11 -13 -12 -5 -15 -2 -10 10 4 10 1
14 -6 12 -7 -3 -14 -16 -16 -30 -3 -22 0 -25 22 -21 15 3 26 10 26 16 0 6 3 7
7 3 4 -4 -3 -15 -15 -25 -23 -17 -21 -17 63 -13 47 2 93 1 103 -4 28 -12 42
-13 48 -3 9 14 24 10 24 -6 0 -12 5 -13 18 -7 9 5 23 7 30 5 6 -3 12 -1 12 5
0 5 121 8 298 6 244 -2 301 0 319 11 12 8 30 12 40 10 10 -3 8 0 -5 6 -18 10
-25 9 -42 -6 -11 -10 -23 -16 -26 -13 -3 3 6 15 20 26 23 17 24 20 8 24 -15 4
-18 15 -18 57 1 49 -6 63 -19 40 -4 -6 -13 -8 -21 -5 -7 3 -16 1 -19 -4 -3 -5
7 -10 22 -12 16 -2 26 -7 23 -13 -3 -6 -77 -11 -185 -12 -99 -1 -209 -4 -245
-7 -36 -2 -49 -2 -30 1 33 6 34 6 10 13 -21 7 236 16 278 11 8 -1 21 4 30 11
9 8 13 8 9 1 -5 -7 0 -9 14 -6 47 13 -3 22 -116 22 -330 -1 -345 -1 -345 -14
0 -12 31 -31 65 -38 11 -3 1 -5 -22 -6 -24 0 -43 -5 -43 -11 0 -5 -9 -10 -19
-10 -11 0 -23 -5 -26 -10 -16 -26 -23 8 -22 99 2 75 -1 97 -10 94 -8 -3 -13 3
-13 16 0 17 4 19 23 12 12 -5 26 -8 31 -7 18 2 17 -22 -1 -28 -10 -3 0 -3 22
1 22 3 46 6 53 6 6 0 12 6 12 14 0 17 -30 17 -30 1 0 -7 -5 -5 -11 5 -5 9 -17
17 -25 17 -8 0 -12 5 -9 10 3 6 4 14 0 20 -7 11 -32 3 -38 -13 -2 -7 -3 -2 -1
9 4 21 -22 42 -34 29 -3 -3 0 -5 6 -5 16 0 15 -30 0 -31 -45 -4 -55 -3 -70 4
-13 6 -18 3 -19 -10 0 -14 -2 -15 -6 -3 -3 8 -11 18 -16 22 -6 4 -4 12 6 23
10 9 17 12 17 6 0 -6 5 -11 11 -11 7 0 10 12 7 30 -3 20 0 30 8 30 7 0 14 -12
16 -27 2 -14 9 -29 17 -31 8 -3 11 0 7 7 -5 8 19 11 85 11 93 0 121 12 32 14
-42 1 -48 4 -51 24 -3 20 0 22 47 22 39 0 51 -4 51 -15 0 -8 5 -15 10 -15 19
0 11 42 -9 47 -20 5 -35 50 -20 59 5 3 9 -6 9 -19 0 -44 29 -49 228 -42 182 6
182 6 182 -20 0 -16 -4 -24 -11 -20 -6 4 -5 -2 2 -13 11 -17 10 -24 -2 -38
-12 -15 -12 -16 0 -9 9 5 12 4 8 -2 -12 -20 -90 -20 -141 -1 -27 11 -51 17
-54 14 -5 -5 39 -25 61 -27 7 -1 -4 -5 -23 -8 -36 -7 -55 1 -55 22 0 6 -9 13
-20 14 -20 3 -20 3 0 -6 16 -8 17 -10 3 -10 -9 -1 -19 3 -22 8 -9 13 -56 0
-56 -15 0 -29 -48 -39 -73 -17 -18 17 -26 19 -47 10 -24 -11 -24 -11 14 -15
28 -2 40 -9 44 -24 4 -16 10 -19 35 -14 16 3 47 6 69 6 24 0 37 4 33 10 -3 6
-15 10 -26 10 -11 0 -17 5 -14 10 3 6 -1 10 -9 10 -9 0 -16 5 -16 11 0 6 8 8
18 6 9 -3 29 -8 45 -11 16 -4 27 -13 27 -22 0 -14 8 -16 48 -10 119 17 151 18
181 5 38 -17 39 -26 4 -32 -16 -3 -2 -3 29 -2 31 2 58 -1 60 -6 2 -5 1 34 -1
87 -2 72 0 95 9 89 7 -4 10 -25 9 -49 -6 -80 25 -152 52 -120 7 8 18 13 26 10
9 -4 13 3 13 21 0 22 2 24 16 12 13 -10 17 -10 25 2 7 11 9 10 9 -7 0 -27 55
-44 128 -40 57 4 69 -14 16 -25 -26 -6 -24 -7 13 -8 23 0 45 4 49 10 5 8 8 8
13 0 5 -7 73 -11 199 -12 106 -1 195 -5 198 -10 3 -5 0 -9 -5 -9 -6 0 -10 -18
-10 -42 2 -43 2 -43 9 -8 4 19 8 27 9 17 0 -10 8 -20 16 -23 8 -4 15 -10 15
-15 0 -5 -7 -9 -15 -9 -8 0 -15 -8 -15 -18 0 -46 -31 -58 -136 -55 -132 5
-127 4 -142 22 -8 9 -11 10 -7 4 4 -8 0 -13 -9 -13 -8 0 -17 6 -19 13 -3 7 -6
5 -6 -6 -1 -15 -4 -16 -22 -6 -17 9 -23 8 -30 -2 -8 -12 -13 -6 -10 13 1 9
-20 4 -45 -9 -11 -7 -26 -8 -33 -4 -11 7 -11 10 0 15 8 3 2 4 -13 1 -16 -3
-28 0 -31 8 -3 6 -6 1 -6 -12 -1 -21 -3 -22 -18 -10 -9 8 -14 9 -10 3 4 -7
-21 -11 -75 -12 -97 -3 -118 -12 -30 -13 34 0 77 -1 95 -2 19 0 35 -7 39 -16
6 -14 7 -14 7 1 1 13 9 16 44 13 23 -2 46 -4 50 -4 5 -1 6 -5 3 -10 -3 -5 6
-12 21 -16 19 -4 29 -2 35 9 12 21 54 20 68 -1 8 -13 13 -14 16 -5 3 6 10 9
15 6 6 -3 16 0 24 6 11 9 15 9 15 1 0 -8 19 -11 56 -10 33 1 50 5 42 10 -9 6
-7 9 9 9 12 0 24 -6 26 -12 4 -10 6 -10 6 0 1 17 26 15 41 -3 8 -10 23 -13 46
-9 37 6 74 -2 74 -16 0 -5 -26 -9 -57 -9 -32 1 -122 -1 -201 -3 -122 -4 -145
-2 -152 11 -8 13 -11 14 -18 3 -6 -9 -26 -13 -53 -12 -24 1 -48 1 -54 0 -14
-3 -83 0 -130 5 -35 4 -37 3 -15 -6 23 -9 133 -24 278 -36 64 -6 73 -14 46
-44 -12 -13 -22 -15 -45 -9 -19 6 -29 5 -29 -2 0 -7 -4 -7 -12 -1 -15 12 -118
27 -163 24 -16 -1 -75 5 -130 14 -93 13 -359 23 -825 29 -213 3 -210 3 -210
-35 0 -25 3 -28 18 -20 41 22 1185 -3 1329 -29 29 -5 48 -3 59 5 9 6 28 10 41
7 21 -4 23 -2 18 20 -8 29 5 34 94 37 30 1 59 5 64 8 5 3 46 9 91 13 44 5 117
13 161 20 49 6 197 10 382 8 282 -3 301 -2 300 14 -1 11 -7 16 -17 13 -71 -21
-167 -11 -124 13 15 8 15 10 0 15 -9 4 -16 16 -16 27 0 22 -10 26 -26 10 -5
-5 -63 -11 -129 -13 -120 -3 -120 -3 5 -5 91 -2 121 -5 110 -13 -11 -8 -12
-12 -2 -16 28 -11 8 -20 -50 -21 -35 -1 -165 -5 -290 -8 -199 -5 -229 -4 -234
9 -3 9 -12 18 -20 21 -8 3 -13 2 -10 -3 3 -5 -12 -9 -34 -9 -47 -1 -53 16 -10
24 16 4 28 10 25 14 -9 15 21 17 260 19 233 2 337 6 382 16 22 5 41 54 28 75
-3 6 4 10 17 10 41 0 58 20 18 21 -19 0 -44 4 -55 9 -13 6 13 9 78 7 97 -2 97
-2 97 29 0 30 -1 31 -50 32 -60 1 -104 20 -55 23 47 4 58 3 83 -5 16 -6 22 -3
22 8 0 9 -5 16 -10 16 -6 0 -5 8 2 20 10 16 10 22 -1 32 -8 7 -11 8 -8 2 4 -7
-3 -11 -18 -11 -14 0 -25 3 -25 8 0 5 5 9 12 9 6 0 9 3 5 6 -3 3 -32 -2 -64
-11 -59 -18 -389 -32 -379 -17 2 4 -17 7 -42 7 -48 1 -141 8 -297 25 -49 5
-118 10 -152 10 -55 0 -63 2 -63 19 0 22 -61 23 -113 2 -41 -16 -47 -15 -102
28 -39 32 -55 39 -77 34 -34 -7 -42 31 -8 42 11 3 20 11 20 17 0 6 8 20 18 31
17 19 16 19 -5 6 -13 -8 -23 -19 -23 -25 0 -7 -7 -15 -16 -18 -25 -9 -30 -6
-13 7 13 10 2 12 -58 8 -41 -2 -79 1 -85 7 -6 6 -23 6 -50 -1 -29 -7 -46 -7
-59 1 -25 16 -159 16 -159 1 0 -6 9 -9 19 -6 10 2 25 0 32 -5 11 -8 11 -9 -2
-5 -9 3 -22 0 -28 -6 -9 -9 -14 -9 -19 0 -6 9 -55 12 -176 12 -92 0 -171 2
-174 5 -5 5 149 11 190 7 9 -1 19 3 22 8 4 6 14 7 23 4 11 -4 14 -3 9 6 -5 7
-15 10 -23 7 -8 -3 -64 -9 -123 -12 -109 -6 -109 -6 -100 25 5 19 5 31 -1 31
-5 0 -9 -9 -9 -21 0 -14 -5 -19 -14 -16 -10 4 -13 1 -9 -8 7 -20 -44 -40 -63
-24 -11 9 -14 8 -15 -2 0 -8 -4 -5 -9 6 -14 32 -12 34 33 38 39 3 38 4 -12 5
-68 2 -62 10 15 18 79 8 84 16 9 13 -35 -2 -58 1 -55 7 2 5 10 8 16 6 7 -1 15
2 19 8 4 6 -1 7 -12 3 -14 -5 -15 -3 -7 6 13 14 138 15 649 7 207 -3 241 -2
130 4 -82 4 -233 8 -335 9 -258 2 -359 10 -335 28 14 10 15 13 4 13 -8 0 -23
-8 -33 -17z m-278 -158 c4 -4 -7 -6 -23 -4 -17 2 -36 0 -43 -4 -12 -8 -17 5
-6 16 8 8 62 2 72 -8z m69 -12 c-4 -3 -7 0 -7 7 0 7 3 10 7 7 3 -4 3 -10 0
-14z m60 10 c-4 -3 -10 -3 -14 0 -3 4 0 7 7 7 7 0 10 -3 7 -7z m678 -3 c3 -5
18 -10 33 -10 27 0 27 0 28 -98 0 -89 -1 -98 -18 -97 -25 2 -28 7 -30 53 -1
23 -5 42 -10 42 -4 0 -8 7 -8 16 0 9 5 12 13 8 9 -5 9 -4 0 6 -6 7 -9 19 -6
28 4 10 2 13 -5 8 -8 -5 -12 2 -12 19 0 24 -3 26 -24 21 -14 -3 -28 -2 -31 4
-4 6 8 10 29 10 19 0 38 -4 41 -10z m240 -25 c2 -37 18 -55 48 -55 30 0 93
-34 101 -55 2 -6 -17 -11 -43 -13 -25 -2 -68 -7 -96 -11 -42 -8 -37 -9 35 -5
95 4 216 19 242 29 13 5 15 2 11 -14 -4 -17 -14 -21 -47 -23 -22 -1 -52 -3
-66 -4 -14 -1 -38 -3 -55 -4 -25 -2 -26 -3 -7 -7 36 -7 20 -28 -23 -31 -36 -3
-38 -2 -24 14 12 16 12 17 -4 11 -10 -4 -31 -8 -45 -8 -17 -1 -21 -3 -10 -6
16 -4 16 -6 4 -19 -8 -8 -19 -14 -25 -14 -6 0 -11 -5 -11 -11 0 -6 6 -9 13 -6
6 2 17 -1 24 -8 9 -10 7 -13 -13 -11 -13 0 -24 5 -24 10 0 4 -7 6 -15 2 -9 -3
-16 1 -17 12 -1 9 -2 24 -4 32 -1 8 -2 36 -3 63 -1 45 -2 47 -31 47 -29 0 -30
1 -30 50 0 51 0 51 58 48 31 -2 57 -7 57 -13z m-1075 1 c0 -3 -4 -8 -10 -11
-5 -3 -10 -1 -10 4 0 6 5 11 10 11 6 0 10 -2 10 -4z m943 -39 c-7 -11 -23 12
-23 33 1 12 4 11 15 -4 8 -10 12 -23 8 -29z m-633 7 c0 -14 -4 -23 -9 -20 -7
5 -8 23 -2 44 4 12 11 -3 11 -24z m310 11 c9 -11 9 -15 1 -15 -7 0 -11 -7 -9
-16 2 -10 -2 -19 -8 -21 -7 -2 -10 5 -7 22 4 18 1 25 -11 25 -11 0 -16 -9 -17
-27 -1 -17 -3 -21 -6 -10 -3 10 -14 17 -29 17 -15 0 -24 6 -24 15 0 11 7 14
25 9 15 -4 25 -2 25 5 0 16 46 13 60 -4z m-232 -12 c2 -8 -5 -13 -18 -13 -19
0 -20 -2 -6 -15 16 -16 32 -19 39 -7 2 4 3 3 2 -3 -1 -5 -20 -11 -43 -13 -43
-3 -52 9 -37 50 7 17 57 18 63 1z m-298 -1 c0 -13 -12 -22 -22 -16 -10 6 -1
24 13 24 5 0 9 -4 9 -8z m84 -8 c3 -8 2 -12 -4 -9 -6 3 -10 10 -10 16 0 14 7
11 14 -7z m253 -1 c-4 -3 -7 0 -7 7 0 7 3 10 7 7 3 -4 3 -10 0 -14z m33 7 c0
-5 -4 -10 -10 -10 -5 0 -10 5 -10 10 0 6 5 10 10 10 6 0 10 -4 10 -10z m30 6
c0 -3 -4 -8 -10 -11 -5 -3 -10 -1 -10 4 0 6 5 11 10 11 6 0 10 -2 10 -4z m265
-31 c0 -20 -5 -25 -25 -25 -24 1 -24 1 -6 15 14 11 16 15 5 15 -12 0 -12 2 1
10 22 14 25 13 25 -15z m-501 -27 c-9 -14 -23 2 -17 18 4 12 8 13 14 3 4 -7 5
-17 3 -21z m241 22 c-3 -5 -11 -10 -16 -10 -6 0 -7 5 -4 10 3 6 11 10 16 10 6
0 7 -4 4 -10z m-331 -15 c-4 -8 -8 -15 -10 -15 -2 0 -4 7 -4 15 0 8 4 15 10
15 5 0 7 -7 4 -15z m383 8 c-4 -3 -10 -3 -14 0 -3 4 0 7 7 7 7 0 10 -3 7 -7z
m-547 -12 c0 -5 -7 -12 -16 -15 -14 -5 -15 -4 -4 9 14 17 20 19 20 6z m195 -1
c-3 -5 -12 -10 -18 -10 -7 0 -6 4 3 10 19 12 23 12 15 0z m-244 -23 c-10 -9
-11 -8 -5 6 3 10 9 15 12 12 3 -3 0 -11 -7 -18z m126 17 c-3 -3 -12 -4 -19 -1
-8 3 -5 6 6 6 11 1 17 -2 13 -5z m40 0 c-3 -3 -12 -4 -19 -1 -8 3 -5 6 6 6 11
1 17 -2 13 -5z m43 -30 c0 -18 -27 -25 -39 -10 -6 7 -8 15 -5 19 10 10 44 3
44 -9z m-203 -21 c-4 -3 -7 0 -7 7 0 7 3 10 7 7 3 -4 3 -10 0 -14z m-27 -19
c0 -8 -5 -12 -10 -9 -6 4 -8 11 -5 16 9 14 15 11 15 -7z m1667 10 c-3 -3 -12
-4 -19 -1 -8 3 -5 6 6 6 11 1 17 -2 13 -5z m52 -23 c-6 -2 -18 4 -27 13 -15
15 -15 15 10 4 15 -7 23 -15 17 -17z m-87 5 c9 0 15 -4 12 -8 -2 -4 8 -18 23
-32 15 -14 22 -26 15 -26 -6 0 -12 5 -12 11 0 6 -7 8 -16 5 -8 -3 -28 1 -44 9
-16 8 -32 15 -35 15 -13 0 8 -22 29 -30 21 -9 21 -9 -1 -9 -13 -1 -23 2 -23 7
0 13 -50 32 -50 19 0 -9 -2 -9 -8 -1 -4 6 -18 10 -32 9 -28 -3 -50 11 -50 31
0 12 16 13 88 7 48 -3 95 -7 104 -7z m-285 -2 c-3 -3 -12 -4 -19 -1 -8 3 -5 6
6 6 11 1 17 -2 13 -5z m361 -20 c5 3 13 0 16 -6 4 -9 8 -9 11 -2 8 15 84 2
119 -21 36 -24 56 -27 75 -12 17 14 181 19 197 6 6 -5 24 -11 40 -12 16 -2 43
-11 59 -20 30 -16 30 -16 -32 -17 -38 0 -67 5 -75 13 -13 13 -78 31 -78 22 0
-2 17 -14 38 -25 36 -20 36 -20 7 -15 -16 3 -52 7 -78 10 -26 2 -52 7 -57 10
-6 3 -7 -1 -4 -9 5 -12 -1 -16 -22 -15 -16 0 -23 3 -16 6 6 2 12 9 12 15 0 6
-6 8 -12 5 -7 -2 -53 -1 -103 3 -61 5 -74 8 -40 9 50 1 50 1 20 21 -32 21 -50
26 -40 11 7 -13 -52 4 -71 20 -8 6 -11 16 -8 21 3 5 12 1 18 -8 7 -9 18 -14
24 -10z m130 19 c-16 -2 -40 -2 -55 0 -16 2 -3 4 27 4 30 0 43 -2 28 -4z m667
-14 c-4 -5 -12 -9 -18 -8 -9 0 -8 2 1 6 6 2 9 10 6 15 -4 7 -2 8 5 4 6 -4 9
-12 6 -17z m-1475 0 c0 -4 -7 -9 -15 -13 -9 -3 -15 0 -15 8 0 7 7 13 15 13 8
0 15 -4 15 -8z m1024 -4 c11 -9 14 -15 7 -15 -7 0 -19 7 -27 15 -20 19 -5 19
20 0z m-1137 -17 c-3 -8 -6 -5 -6 6 -1 11 2 17 5 13 3 -3 4 -12 1 -19z m1007
10 c-5 -8 -2 -9 12 -4 38 16 50 17 74 7 23 -9 21 -10 -15 -9 -22 0 -47 -2 -56
-6 -9 -4 -21 0 -29 9 -10 12 -10 15 4 15 11 0 14 -5 10 -12z m401 -18 c-3 -5
-2 -10 2 -13 5 -2 2 -2 -4 -1 -24 6 -46 -8 -31 -18 13 -10 -2 -7 -67 13 -27 8
-26 8 11 5 23 -2 48 0 55 5 12 7 11 9 -1 9 -13 0 -13 2 -1 9 16 10 43 3 36 -9z
m-1075 6 c0 -8 -51 -13 -56 -5 -3 5 9 9 25 9 17 0 31 -2 31 -4z m37 -2 c-3 -3
-12 -4 -19 -1 -8 3 -5 6 6 6 11 1 17 -2 13 -5z m143 2 c0 -2 -7 -6 -15 -10 -8
-3 -15 -1 -15 4 0 6 7 10 15 10 8 0 15 -2 15 -4z m798 -3 c-10 -2 -28 -2 -40
0 -13 2 -5 4 17 4 22 1 32 -1 23 -4z m-901 -20 c-4 -3 -10 -3 -14 0 -3 4 0 7
7 7 7 0 10 -3 7 -7z m-1137 -13 c0 -5 -7 -10 -15 -10 -8 0 -15 5 -15 10 0 6 7
10 15 10 8 0 15 -4 15 -10z m1045 0 c-3 -5 -10 -10 -16 -10 -5 0 -9 5 -9 10 0
6 7 10 16 10 8 0 12 -4 9 -10z m231 -1 c3 -6 15 -8 26 -6 11 3 33 1 49 -5 28
-9 28 -11 12 -24 -10 -7 -31 -13 -48 -13 -26 0 -27 2 -10 9 19 8 19 9 -2 9
-12 1 -23 -5 -26 -11 -3 -10 -17 -9 -58 6 -33 11 -55 14 -57 8 -2 -7 -15 -7
-38 -1 -19 6 -39 7 -46 3 -7 -5 -8 -3 -3 5 4 8 21 11 41 9 19 -2 34 -1 34 3 0
5 21 10 48 12 26 2 52 4 59 5 6 1 15 -3 19 -9z m188 -4 c-4 -8 -11 -12 -16 -9
-6 4 -5 10 3 15 19 12 19 11 13 -6z m735 -3 c9 -18 7 -18 -31 -8 -41 11 -41
11 -12 17 16 4 30 7 31 8 1 0 7 -7 12 -17z m-2252 -7 c7 -20 -2 -29 -21 -22
-9 4 -13 13 -10 22 8 19 23 19 31 0z m1573 -17 c0 -6 -6 -5 -15 2 -8 7 -15 14
-15 16 0 2 7 1 15 -2 8 -4 15 -11 15 -16z m50 3 c0 -5 -9 -11 -20 -14 -13 -3
-20 0 -20 9 0 8 9 14 20 14 11 0 20 -4 20 -9z m-383 -18 c-4 -3 -10 -3 -14 0
-3 4 0 7 7 7 7 0 10 -3 7 -7z m200 0 c-4 -3 -10 -3 -14 0 -3 4 0 7 7 7 7 0 10
-3 7 -7z m410 1 c-3 -3 -12 -4 -19 -1 -8 3 -5 6 6 6 11 1 17 -2 13 -5z m215
-22 c6 -6 -13 -9 -49 -9 -127 0 -161 -4 -129 -13 16 -5 34 -6 39 -3 9 5 71 5
172 -3 22 -1 56 -3 75 -5 95 -6 -64 -15 -300 -18 -210 -2 -256 -5 -263 -17 -4
-8 -14 -14 -21 -14 -13 0 -56 33 -56 42 0 3 68 6 152 7 92 0 156 5 162 11 8 8
-3 10 -37 7 -54 -5 -113 6 -87 17 36 14 327 13 342 -2z m-486 -7 c-11 -8 -22
-12 -25 -9 -6 6 19 24 34 24 6 -1 1 -7 -9 -15z m554 5 c0 -5 -4 -10 -10 -10
-5 0 -10 5 -10 10 0 6 5 10 10 10 6 0 10 -4 10 -10z m42 -2 c-9 -9 -15 -9 -24
0 -9 9 -7 12 12 12 19 0 21 -3 12 -12z m-635 -15 c-4 -3 -7 0 -7 7 0 7 3 10 7
7 3 -4 3 -10 0 -14z m113 13 c0 -3 -4 -8 -10 -11 -5 -3 -10 -1 -10 4 0 6 5 11
10 11 6 0 10 -2 10 -4z m37 -3 c-4 -3 -10 -3 -14 0 -3 4 0 7 7 7 7 0 10 -3 7
-7z m170 -70 c-4 -3 -10 -3 -14 0 -3 4 0 7 7 7 7 0 10 -3 7 -7z m130 1 c-3 -3
-12 -4 -19 -1 -8 3 -5 6 6 6 11 1 17 -2 13 -5z m233 -4 c0 -5 -8 -10 -17 -10
-15 0 -16 2 -3 10 19 12 20 12 20 0z m-485 -10 c3 -5 4 -10 1 -10 -3 0 -8 5
-11 10 -3 6 -4 10 -1 10 3 0 8 -4 11 -10z m-1508 -7 c-4 -3 -10 -3 -14 0 -3 4
0 7 7 7 7 0 10 -3 7 -7z m40 1 c-3 -3 -12 -4 -19 -1 -8 3 -5 6 6 6 11 1 17 -2
13 -5z m1536 -1 c-7 -2 -19 -2 -25 0 -7 3 -2 5 12 5 14 0 19 -2 13 -5z m74 0
c-4 -3 -10 -3 -14 0 -3 4 0 7 7 7 7 0 10 -3 7 -7z m50 1 c-3 -3 -12 -4 -19 -1
-8 3 -5 6 6 6 11 1 17 -2 13 -5z m80 0 c-3 -3 -12 -4 -19 -1 -8 3 -5 6 6 6 11
1 17 -2 13 -5z m40 0 c-3 -3 -12 -4 -19 -1 -8 3 -5 6 6 6 11 1 17 -2 13 -5z
m43 -4 c0 -5 -2 -10 -4 -10 -3 0 -8 5 -11 10 -3 6 -1 10 4 10 6 0 11 -4 11
-10z m37 3 c-4 -3 -10 -3 -14 0 -3 4 0 7 7 7 7 0 10 -3 7 -7z m-460 -20 c-4
-3 -10 -3 -14 0 -3 4 0 7 7 7 7 0 10 -3 7 -7z m-907 -13 c0 -5 -3 -9 -7 -9
-30 5 -106 -3 -95 -9 7 -5 30 -7 52 -5 22 2 40 -2 40 -7 0 -8 -127 -14 -265
-12 -16 0 -88 1 -159 1 -170 1 -158 9 17 12 75 1 137 5 137 8 0 4 -68 6 -151
5 -88 -1 -147 2 -142 7 5 5 132 10 283 12 151 1 278 3 283 5 4 1 7 -2 7 -8z
m760 -20 c0 -5 -4 -10 -10 -10 -5 0 -10 5 -10 10 0 6 5 10 10 10 6 0 10 -4 10
-10z m27 3 c-4 -3 -10 -3 -14 0 -3 4 0 7 7 7 7 0 10 -3 7 -7z m-1382 -33 c10
-32 -3 -40 -34 -22 -26 15 -27 18 -13 29 24 18 40 16 47 -7z m-215 1 c0 -16
-18 -22 -23 -9 -4 10 -8 9 -16 -2 -6 -8 -11 -10 -11 -4 0 6 3 14 7 17 10 10
43 8 43 -2z m40 -6 c0 -8 -2 -15 -4 -15 -2 0 -6 7 -10 15 -3 8 -1 15 4 15 6 0
10 -7 10 -15z m45 5 c-3 -5 -13 -10 -21 -10 -8 0 -14 5 -14 10 0 6 9 10 21 10
11 0 17 -4 14 -10z m39 -5 c4 -11 -1 -15 -17 -14 -12 0 -16 3 -9 6 6 2 10 9 6
14 -3 5 -1 9 4 9 6 0 12 -7 16 -15z m1273 -1 c-3 -3 -12 -4 -19 -1 -8 3 -5 6
6 6 11 1 17 -2 13 -5z m30 -1 c-4 -3 -10 -3 -14 0 -3 4 0 7 7 7 7 0 10 -3 7
-7z m-710 -10 c-4 -3 -10 -3 -14 0 -3 4 0 7 7 7 7 0 10 -3 7 -7z m70 0 c-4 -3
-10 -3 -14 0 -3 4 0 7 7 7 7 0 10 -3 7 -7z m516 -60 c-7 -2 -19 -2 -25 0 -7 3
-2 5 12 5 14 0 19 -2 13 -5z m34 0 c-4 -3 -10 -3 -14 0 -3 4 0 7 7 7 7 0 10
-3 7 -7z m-720 -40 c-4 -3 -10 -3 -14 0 -3 4 0 7 7 7 7 0 10 -3 7 -7z m201 0
c-32 -2 -86 -2 -120 0 -35 2 -9 3 57 3 66 0 94 -1 63 -3z"/>
<path d="M933 2103 c4 -3 10 -3 14 0 3 4 0 7 -7 7 -7 0 -10 -3 -7 -7z"/>
<path d="M1153 1923 c4 -3 10 -3 14 0 3 4 0 7 -7 7 -7 0 -10 -3 -7 -7z"/>
<path d="M1760 1730 c0 -7 3 -10 7 -7 3 4 3 10 0 14 -4 3 -7 0 -7 -7z"/>
<path d="M720 1640 c0 -6 7 -10 15 -10 8 0 15 2 15 4 0 2 -7 6 -15 10 -8 3
-15 1 -15 -4z"/>
<path d="M780 1640 c0 -5 7 -10 15 -10 8 0 15 5 15 10 0 6 -7 10 -15 10 -8 0
-15 -4 -15 -10z"/>
<path d="M1520 2300 c0 -5 5 -10 11 -10 5 0 7 5 4 10 -3 6 -8 10 -11 10 -2 0
-4 -4 -4 -10z"/>
<path d="M755 2291 c-12 -5 29 -9 94 -10 63 -1 113 0 110 2 -9 9 -185 15 -204
8z"/>
<path d="M1230 2296 c0 -2 8 -10 18 -17 15 -13 16 -12 3 4 -13 16 -21 21 -21
13z"/>
<path d="M1870 2290 c0 -5 5 -10 11 -10 5 0 7 5 4 10 -3 6 -8 10 -11 10 -2 0
-4 -4 -4 -10z"/>
<path d="M1348 2283 c7 -3 16 -2 19 1 4 3 -2 6 -13 5 -11 0 -14 -3 -6 -6z"/>
<path d="M1638 2268 c5 -5 16 -8 23 -6 8 3 3 7 -10 11 -17 4 -21 3 -13 -5z"/>
<path d="M1700 2255 c14 -8 30 -14 35 -14 6 0 -1 6 -15 14 -14 8 -29 14 -35
14 -5 0 1 -6 15 -14z"/>
<path d="M375 2240 c-3 -6 5 -10 19 -10 14 0 28 5 31 10 3 6 -5 10 -19 10 -14
0 -28 -4 -31 -10z"/>
<path d="M455 2240 c-4 -7 27 -10 94 -10 56 0 101 3 101 8 0 12 -187 14 -195
2z"/>
<path d="M1422 2244 c8 -7 108 -7 115 0 4 3 -22 6 -57 6 -35 0 -61 -3 -58 -6z"/>
<path d="M1563 2243 c4 -3 10 -3 14 0 3 4 0 7 -7 7 -7 0 -10 -3 -7 -7z"/>
<path d="M1800 2246 c0 -2 11 -6 25 -8 13 -3 22 -1 19 3 -5 9 -44 13 -44 5z"/>
<path d="M154 2224 c3 -8 2 -12 -4 -9 -5 3 -18 1 -27 -4 -14 -8 -2 -10 47 -11
46 0 61 3 50 10 -8 5 -23 10 -32 10 -10 0 -18 5 -18 10 0 6 -5 10 -11 10 -6 0
-8 -7 -5 -16z"/>
<path d="M681 2219 c-13 -11 -21 -22 -18 -25 8 -8 25 4 37 27 13 24 11 23 -19
-2z"/>
<path d="M793 2233 c4 -3 10 -3 14 0 3 4 0 7 -7 7 -7 0 -10 -3 -7 -7z"/>
<path d="M960 2230 c0 -7 3 -10 7 -7 3 4 3 10 0 14 -4 3 -7 0 -7 -7z"/>
<path d="M990 2236 c0 -2 7 -6 15 -10 8 -3 15 -1 15 4 0 6 -7 10 -15 10 -8 0
-15 -2 -15 -4z"/>
<path d="M1040 2230 c0 -6 7 -10 15 -10 8 0 15 2 15 4 0 2 -7 6 -15 10 -8 3
-15 1 -15 -4z"/>
<path d="M1080 2228 c0 -4 16 -8 35 -8 19 0 35 2 35 4 0 2 -16 6 -35 8 -19 2
-35 0 -35 -4z"/>
<path d="M1274 2228 c-2 -3 34 -8 80 -10 47 -2 82 0 78 4 -10 9 -153 15 -158
6z"/>
<path d="M1660 2233 c14 -3 38 -14 55 -25 30 -20 30 -20 0 6 -17 15 -41 25
-55 25 -25 -2 -25 -2 0 -6z"/>
<path d="M1473 2213 c4 -3 10 -3 14 0 3 4 0 7 -7 7 -7 0 -10 -3 -7 -7z"/>
<path d="M630 2179 c0 -5 5 -7 10 -4 6 3 10 8 10 11 0 2 -4 4 -10 4 -5 0 -10
-5 -10 -11z"/>
<path d="M1755 2170 c3 -5 8 -10 11 -10 3 0 2 5 -1 10 -3 6 -8 10 -11 10 -3 0
-2 -4 1 -10z"/>
<path d="M750 2160 c0 -7 3 -10 7 -7 3 4 3 10 0 14 -4 3 -7 0 -7 -7z"/>
<path d="M1793 2163 c4 -3 10 -3 14 0 3 4 0 7 -7 7 -7 0 -10 -3 -7 -7z"/>
<path d="M718 2153 c7 -3 16 -2 19 1 4 3 -2 6 -13 5 -11 0 -14 -3 -6 -6z"/>
<path d="M1294 2138 c3 -10 -1 -18 -12 -21 -9 -3 -2 -4 15 -3 18 0 35 6 37 13
3 7 -1 10 -11 6 -8 -3 -19 0 -25 8 -8 11 -9 11 -4 -3z"/>
<path d="M1423 2143 c4 -3 10 -3 14 0 3 4 0 7 -7 7 -7 0 -10 -3 -7 -7z"/>
<path d="M1473 2143 c4 -3 10 -3 14 0 3 4 0 7 -7 7 -7 0 -10 -3 -7 -7z"/>
<path d="M1603 2143 c4 -3 10 -3 14 0 3 4 0 7 -7 7 -7 0 -10 -3 -7 -7z"/>
<path d="M1749 2123 c-13 -17 -13 -17 6 -3 11 8 22 16 24 17 2 2 0 3 -6 3 -6
0 -17 -8 -24 -17z"/>
<path d="M1405 2119 c-60 -6 -60 -6 13 -7 39 -1 72 0 72 2 0 9 -29 11 -85 5z"/>
<path d="M1508 2123 c7 -3 16 -2 19 1 4 3 -2 6 -13 5 -11 0 -14 -3 -6 -6z"/>
<path d="M1555 2120 c4 -6 11 -8 16 -5 14 9 11 15 -7 15 -8 0 -12 -5 -9 -10z"/>
<path d="M1695 2088 c-16 -12 -32 -25 -35 -29 -3 -4 -34 -14 -70 -23 -65 -16
-65 -16 -2 -10 71 6 92 12 92 26 0 5 12 20 28 33 34 30 27 32 -13 3z"/>
<path d="M1530 1999 c0 -11 47 -12 54 -1 2 4 -9 8 -25 8 -16 1 -29 -2 -29 -7z"/>
<path d="M1940 1990 c0 -7 3 -10 7 -7 3 4 3 10 0 14 -4 3 -7 0 -7 -7z"/>
<path d="M2013 1993 c15 -2 39 -2 55 0 15 2 2 4 -28 4 -30 0 -43 -2 -27 -4z"/>
<path d="M623 1963 c20 -2 54 -2 75 0 20 2 3 4 -38 4 -41 0 -58 -2 -37 -4z"/>
<path d="M420 1950 c0 -9 138 -3 149 6 2 2 -30 4 -72 4 -45 0 -77 -4 -77 -10z"/>
<path d="M2513 1863 c4 -3 10 -3 14 0 3 4 0 7 -7 7 -7 0 -10 -3 -7 -7z"/>
<path d="M686 1848 c-11 -6 -44 -12 -74 -14 -30 -1 -57 -6 -61 -10 -3 -3 9 -5
27 -2 17 2 32 1 32 -4 0 -4 7 -8 15 -8 8 0 15 3 15 8 0 4 28 7 62 7 52 0 63 3
66 18 4 20 -50 24 -82 5z"/>
<path d="M438 1813 c-10 -2 -18 -11 -18 -19 0 -18 -19 -18 -26 -1 -5 13 -34
20 -32 8 3 -31 -4 -50 -17 -45 -8 4 -15 1 -15 -5 0 -8 36 -10 118 -9 68 2 117
7 117 13 0 5 -5 9 -11 7 -7 -1 -14 4 -18 13 -3 8 -17 15 -31 15 -14 0 -24 5
-22 12 2 13 -19 18 -45 11z m72 -41 c0 -5 -13 -9 -30 -9 -16 0 -30 4 -30 9 0
4 14 8 30 8 17 0 30 -4 30 -8z"/>
<path d="M500 1810 c0 -5 7 -7 15 -4 8 4 15 8 15 10 0 2 -7 4 -15 4 -8 0 -15
-4 -15 -10z"/>
<path d="M985 1809 c-12 -5 12 -8 64 -8 46 -1 82 1 79 4 -9 9 -122 12 -143 4z"/>
<path d="M320 1802 c0 -12 19 -26 26 -19 2 2 -2 10 -11 17 -9 8 -15 8 -15 2z"/>
<path d="M550 1802 c0 -5 9 -12 21 -15 12 -3 19 -10 16 -14 -16 -25 15 -28
178 -20 93 5 172 11 175 14 11 11 -32 30 -58 24 -27 -5 -27 -5 8 -12 34 -6 34
-6 -10 -8 -25 -1 -82 -4 -128 -8 -49 -3 -92 -2 -105 4 -12 6 -35 17 -52 24
-16 7 -33 15 -37 17 -5 2 -8 -1 -8 -6z"/>
<path d="M1143 1803 c4 -3 10 -3 14 0 3 4 0 7 -7 7 -7 0 -10 -3 -7 -7z"/>
<path d="M11 1766 c-9 -11 -6 -12 14 -8 14 2 25 8 25 13 0 14 -26 11 -39 -5z"/>
<path d="M56 1764 c-3 -8 -17 -19 -30 -25 -19 -9 -24 -19 -23 -40 1 -18 6 -24
12 -18 12 12 48 12 41 0 -4 -5 3 -7 14 -4 11 3 20 13 21 22 0 9 2 28 3 43 2
29 -28 47 -38 22z m4 -34 c-19 -27 -60 -45 -45 -20 4 6 11 8 16 5 5 -4 14 5
21 19 6 14 15 26 20 26 5 0 0 -13 -12 -30z"/>
<path d="M117 1768 c-14 -9 -14 -9 65 -10 34 0 64 4 65 9 4 11 -113 12 -130 1z"/>
<path d="M1380 1768 c0 -5 18 -8 40 -8 22 0 40 2 40 4 0 2 -18 6 -40 8 -22 2
-40 0 -40 -4z"/>
<path d="M1515 1770 c-3 -5 -1 -10 4 -10 6 0 11 5 11 10 0 6 -2 10 -4 10 -3 0
-8 -4 -11 -10z"/>
<path d="M1153 1763 c4 -3 10 -3 14 0 3 4 0 7 -7 7 -7 0 -10 -3 -7 -7z"/>
<path d="M1188 1763 c7 -3 16 -2 19 1 4 3 -2 6 -13 5 -11 0 -14 -3 -6 -6z"/>
<path d="M1258 1763 c23 -2 59 -2 80 0 20 2 1 4 -43 4 -44 0 -61 -2 -37 -4z"/>
<path d="M1473 1763 c4 -3 10 -3 14 0 3 4 0 7 -7 7 -7 0 -10 -3 -7 -7z"/>
<path d="M2540 1760 c-13 -8 -12 -10 3 -10 9 0 17 5 17 10 0 12 -1 12 -20 0z"/>
<path d="M1050 1750 c0 -7 3 -10 7 -7 3 4 3 10 0 14 -4 3 -7 0 -7 -7z"/>
<path d="M1293 1743 c-18 -2 -33 -8 -33 -13 0 -4 -14 -3 -30 3 -21 8 -33 8
-38 1 -4 -5 -23 -10 -42 -10 -29 1 -35 -3 -35 -19 0 -13 7 -20 20 -20 14 0 19
6 17 18 -3 19 6 21 28 7 13 -8 13 -10 1 -10 -11 0 -9 -4 4 -14 23 -17 57 -4
49 18 -4 11 0 13 15 9 11 -3 20 -8 19 -12 -3 -28 3 -31 29 -17 23 12 30 12 49
0 18 -13 23 -12 34 1 10 12 9 15 -6 16 -17 0 -16 2 3 11 19 9 26 7 41 -12 21
-25 42 -20 42 10 0 23 -18 36 -32 22 -7 -7 -19 -7 -36 -1 -15 6 -37 7 -50 4
-15 -4 -21 -2 -17 5 3 5 5 9 3 8 -2 0 -18 -3 -35 -5z m14 -35 c-3 -8 -6 -5 -6
6 -1 11 2 17 5 13 3 -3 4 -12 1 -19z m-170 -5 c-4 -3 -7 0 -7 7 0 7 3 10 7 7
3 -4 3 -10 0 -14z m308 7 c3 -5 1 -10 -4 -10 -6 0 -11 5 -11 10 0 6 2 10 4 10
3 0 8 -4 11 -10z"/>
<path d="M210 1730 c0 -7 3 -10 7 -7 3 4 3 10 0 14 -4 3 -7 0 -7 -7z"/>
<path d="M234 1726 c-3 -8 -1 -23 5 -33 8 -15 10 -13 9 15 -1 35 -5 40 -14 18z"/>
<path d="M170 1720 c0 -7 3 -10 7 -7 3 4 3 10 0 14 -4 3 -7 0 -7 -7z"/>
<path d="M830 1720 c0 -5 7 -10 16 -10 8 0 12 5 9 10 -3 6 -10 10 -16 10 -5 0
-9 -4 -9 -10z"/>
<path d="M130 1700 c0 -7 3 -10 7 -7 3 4 3 10 0 14 -4 3 -7 0 -7 -7z"/>
<path d="M160 1689 c0 -5 5 -7 10 -4 6 3 10 8 10 11 0 2 -4 4 -10 4 -5 0 -10
-5 -10 -11z"/>
<path d="M200 1690 c0 -7 3 -10 7 -7 3 4 3 10 0 14 -4 3 -7 0 -7 -7z"/>
<path d="M508 1683 c7 -3 16 -2 19 1 4 3 -2 6 -13 5 -11 0 -14 -3 -6 -6z"/>
<path d="M2043 1643 c15 -2 39 -2 55 0 15 2 2 4 -28 4 -30 0 -43 -2 -27 -4z"/>
<path d="M1758 1633 c7 -3 16 -2 19 1 4 3 -2 6 -13 5 -11 0 -14 -3 -6 -6z"/>
<path d="M1828 1633 c18 -2 45 -2 60 0 15 2 0 4 -33 4 -33 0 -45 -2 -27 -4z"/>
<path d="M1988 1633 c7 -3 16 -2 19 1 4 3 -2 6 -13 5 -11 0 -14 -3 -6 -6z"/>
<path d="M2480 1621 c-35 -5 -39 -8 -20 -11 36 -7 100 0 100 11 0 10 -10 10
-80 0z"/>
<path d="M1950 1609 c-36 -4 36 -5 159 -3 123 2 226 6 229 9 8 7 -312 3 -388
-6z"/>
<path d="M1022 1598 c5 -13 38 -20 38 -8 0 4 -9 10 -21 13 -12 3 -19 1 -17 -5z"/>
<path d="M1105 1590 c3 -5 8 -10 11 -10 3 0 2 5 -1 10 -3 6 -8 10 -11 10 -3 0
-2 -4 1 -10z"/>
<path d="M1140 1590 c0 -7 3 -10 7 -7 3 4 3 10 0 14 -4 3 -7 0 -7 -7z"/>
<path d="M2055 1523 c-27 -1 -86 -7 -130 -13 -44 -5 -105 -12 -135 -15 -224
-19 -207 -32 40 -30 278 2 307 -5 341 -78 28 -64 31 -62 -101 -59 -66 2 -118
7 -116 11 3 4 1 13 -5 21 -7 12 -9 9 -9 -9 0 -24 0 -24 -652 -17 -358 4 -654
8 -657 10 -3 2 -136 7 -296 11 -160 3 -297 9 -307 11 -21 6 -35 -16 -17 -27
10 -6 11 -9 2 -9 -7 0 -13 -7 -13 -16 0 -14 3 -14 15 -4 9 7 15 8 15 2 0 -5
-7 -12 -15 -16 -8 -3 -15 -13 -15 -21 0 -9 4 -13 10 -10 5 3 10 2 10 -4 0 -5
-4 -12 -9 -15 -15 -10 -10 -58 5 -52 19 7 18 -3 -3 -26 -15 -17 -15 -18 3 -15
10 1 25 6 32 11 11 7 11 4 1 -12 -7 -12 -20 -23 -29 -25 -11 -3 -17 -16 -18
-36 -1 -31 -1 -31 29 -10 43 30 47 17 4 -15 -32 -25 -35 -31 -34 -76 1 -34 5
-47 13 -42 6 4 42 7 81 7 70 0 70 0 76 -50 4 -35 2 -54 -7 -65 -8 -8 -14 -10
-14 -3 0 6 -9 9 -20 6 -28 -7 -25 -23 5 -23 15 0 25 -6 25 -14 0 -27 -30 -39
-95 -38 -54 0 -65 -2 -64 -16 0 -11 2 -12 6 -4 2 6 13 12 24 12 10 0 19 -6 19
-12 0 -10 2 -10 8 -2 4 7 22 10 41 8 48 -6 52 -14 6 -14 -24 0 -43 -6 -51 -17
-13 -17 -14 -17 -8 0 7 20 -18 24 -33 5 -16 -22 -16 -73 1 -59 11 9 15 8 20
-4 3 -9 2 -14 -3 -11 -13 8 -32 -19 -26 -35 4 -10 27 -15 75 -17 75 -3 120
-15 120 -32 0 -6 -5 -8 -12 -4 -23 14 -122 10 -136 -6 -11 -13 -11 -13 -6 3 7
18 -11 23 -35 8 -18 -12 -4 -51 19 -51 10 0 20 4 22 9 1 5 8 3 15 -4 10 -10 7
-19 -12 -39 -25 -27 -45 -34 -45 -16 0 6 9 10 20 10 11 0 20 5 20 10 0 14 -27
12 -37 -2 -15 -23 -12 -109 3 -97 8 6 20 9 28 6 7 -3 18 -1 24 5 7 7 10 2 9
-15 -1 -14 -5 -23 -9 -21 -4 2 -10 0 -13 -6 -5 -8 -11 -7 -21 1 -12 9 -18 9
-27 0 -9 -9 -9 -14 2 -20 7 -5 9 -11 4 -14 -6 -4 -10 -20 -11 -37 -1 -26 2
-29 14 -19 10 8 14 8 14 0 0 -6 -7 -14 -15 -17 -24 -10 -17 -22 10 -16 14 2
25 9 25 15 0 6 3 7 7 3 5 -4 -8 -20 -27 -36 -32 -26 -33 -28 -10 -23 14 4 31
14 38 22 7 9 5 0 -4 -19 -16 -34 -16 -34 1 -20 17 14 18 14 6 -8 -7 -13 -23
-27 -37 -32 -13 -5 -24 -15 -24 -21 0 -6 7 -8 16 -5 9 3 19 6 23 6 4 0 15 14
24 30 20 34 37 39 38 13 0 -16 1 -15 8 2 4 11 3 29 -4 41 -6 13 -11 66 -11
126 1 103 1 103 44 101 23 -1 42 2 42 7 0 6 -13 10 -30 10 -32 0 -43 26 -16
36 8 3 12 12 9 20 -3 9 2 14 18 15 50 3 145 0 181 -4 26 -4 38 -1 42 9 4 10
20 14 55 13 28 -1 48 -6 45 -10 -2 -4 -22 -6 -44 -4 -22 2 -42 -1 -45 -6 -6
-9 2 -11 100 -14 82 -3 241 -15 295 -23 36 -6 45 -12 51 -32 6 -23 7 -23 8 -3
1 30 11 53 23 53 6 0 8 -11 6 -25 -3 -14 -1 -25 3 -25 5 0 9 5 9 11 0 6 8 18
17 27 15 16 16 16 11 0 -6 -13 1 -17 38 -20 24 -2 44 1 44 5 0 5 5 5 12 1 7
-4 30 -9 53 -10 22 -1 123 -5 225 -9 102 -5 196 -9 210 -10 14 -2 44 -3 67 -4
23 0 48 -7 56 -15 11 -11 17 -12 26 -3 8 8 14 8 23 -1 17 -17 25 -15 24 5 -1
10 4 18 9 19 6 0 9 -7 7 -18 -2 -10 2 -18 7 -18 6 0 11 4 11 9 0 5 17 9 38 9
61 -1 74 1 66 14 -5 7 -3 8 6 3 20 -12 60 -14 60 -3 0 6 -7 8 -15 4 -8 -3 -15
-1 -15 5 0 16 44 6 59 -14 10 -14 23 -18 52 -14 22 2 42 0 45 -4 3 -5 9 -7 14
-4 5 3 64 1 131 -4 164 -14 169 -10 169 133 0 130 8 120 11 -14 3 -116 7 -143
20 -134 6 3 39 8 76 10 69 4 88 -3 103 -41 5 -11 9 100 9 255 0 244 -1 273
-14 256 -13 -17 -15 -17 -15 -3 0 17 -80 107 -95 107 -5 0 8 -18 30 -40 21
-22 36 -43 32 -46 -4 -4 -7 -2 -7 4 0 6 -10 12 -22 14 -28 4 -81 98 -60 105 6
3 12 11 12 19 0 11 16 14 70 14 70 0 70 0 70 160 0 160 0 160 -30 202 -16 22
-30 35 -30 29 0 -7 9 -26 21 -42 11 -16 19 -34 17 -41 -2 -6 -17 10 -32 36
-15 26 -30 45 -33 43 -2 -3 3 -17 13 -32 26 -41 27 -75 1 -74 -12 0 -16 3 -9
6 6 2 12 10 12 15 0 16 -51 100 -57 95 -3 -3 7 -26 22 -51 15 -25 23 -46 18
-46 -5 0 -17 17 -28 38 -10 20 -26 45 -34 55 -13 16 1 23 40 19 3 -1 25 -2 48
-3 23 -2 40 -8 38 -14 -1 -6 3 -13 8 -15 6 -3 11 15 13 43 3 43 1 47 -20 47
-118 3 -444 5 -483 3z m-6 -28 c-8 -7 -119 -9 -126 -2 -3 4 24 7 62 7 38 0 66
-2 64 -5z m100 -14 c9 -17 23 -19 123 -20 80 0 114 -4 120 -13 4 -7 19 -32 33
-55 14 -24 21 -43 16 -43 -6 0 -19 17 -30 38 -11 21 -28 45 -37 53 -14 11 -12
4 6 -26 13 -22 29 -48 34 -57 6 -10 20 -19 31 -20 11 -1 -9 -4 -45 -7 -103 -9
-124 -4 -147 35 -19 34 -19 34 -19 -3 1 -21 11 -55 24 -76 12 -21 22 -42 22
-47 0 -5 4 -11 9 -14 5 -4 7 3 4 14 -3 12 0 20 7 20 8 0 11 -12 8 -37 -3 -25
3 -52 19 -85 13 -26 23 -52 23 -57 0 -17 -20 -23 -35 -11 -10 8 -15 9 -15 2 0
-6 -9 -8 -22 -5 -13 4 -76 8 -140 10 -118 4 -118 4 -117 46 2 42 2 42 8 7 6
-35 6 -35 143 -35 76 0 137 2 135 5 -2 3 -12 26 -24 51 -19 42 -23 45 -52 41
-35 -5 -45 9 -39 55 3 28 3 28 31 -1 32 -34 34 -26 7 29 -11 22 -19 46 -20 54
0 27 -63 131 -79 131 -17 1 -51 23 -51 34 0 16 60 5 69 -13z m304 12 c-51 -2
-135 -2 -185 0 -51 1 -10 3 92 3 102 0 143 -2 93 -3z m-198 -153 c3 -5 1 -10
-4 -10 -6 0 -11 5 -11 10 0 6 2 10 4 10 3 0 8 -4 11 -10z m-2128 -6 c-3 -3
-12 -4 -19 -1 -8 3 -5 6 6 6 11 1 17 -2 13 -5z m166 -1 c-29 -2 -77 -2 -105 0
-29 2 -6 3 52 3 58 0 81 -1 53 -3z m105 0 c-10 -2 -26 -2 -35 0 -10 3 -2 5 17
5 19 0 27 -2 18 -5z m2139 0 c-4 -3 -10 -3 -14 0 -3 4 0 7 7 7 7 0 10 -3 7 -7z
m-2477 -7 c0 -3 -5 -8 -12 -12 -7 -4 -8 -3 -4 4 7 12 16 16 16 8z m1017 -13
c-4 -3 -10 -3 -14 0 -3 4 0 7 7 7 7 0 10 -3 7 -7z m40 0 c-4 -3 -10 -3 -14 0
-3 4 0 7 7 7 7 0 10 -3 7 -7z m-1017 -7 c0 -2 -8 -10 -17 -17 -16 -13 -17 -12
-4 4 13 16 21 21 21 13z m528 -22 c37 -6 45 -34 10 -35 -23 0 -23 0 0 -9 38
-16 25 -18 -70 -16 -72 2 -93 6 -94 17 -1 8 -2 22 -3 31 0 9 -9 19 -18 21 -22
6 129 -2 175 -9z m59 9 c-4 -3 -10 -3 -14 0 -3 4 0 7 7 7 7 0 10 -3 7 -7z m73
0 c0 -5 25 -8 56 -8 63 1 68 -3 59 -45 -6 -28 -9 -30 -56 -30 -46 0 -49 2 -49
25 0 14 -9 34 -20 45 -16 16 -17 20 -5 20 8 0 15 -3 15 -7z m152 -15 c-4 -16
-7 -18 -10 -8 -3 8 -10 18 -16 22 -6 5 -2 8 11 8 17 0 20 -4 15 -22z m-512
-39 c25 -3 38 -7 30 -8 -60 -9 -81 -9 -125 -2 -50 9 -50 9 -7 10 39 1 42 3 43
29 1 27 1 27 8 2 6 -21 15 -26 51 -31z m757 35 c16 -3 22 -11 20 -26 -1 -16 5
-23 23 -28 34 -9 -119 -17 -201 -10 -63 5 -63 5 -67 40 -3 36 -3 36 100 32 57
-1 113 -5 125 -8z m-927 -9 c0 -8 -7 -15 -16 -15 -8 0 -12 -4 -9 -10 3 -5 4
-10 1 -10 -14 0 -14 20 0 34 19 20 24 20 24 1z m1892 -29 c1 -20 -2 -39 -5
-43 -4 -3 -7 15 -7 42 0 55 10 56 12 1z m-2022 28 c0 -3 -7 -12 -15 -20 -13
-14 -15 -13 -15 5 0 12 6 21 15 21 8 0 15 -3 15 -6z m1859 -8 c7 -5 9 -11 5
-15 -5 -3 -14 -15 -20 -26 -10 -17 -23 -20 -98 -22 -48 -1 -85 1 -82 5 6 10
-44 8 -67 -2 -13 -6 -24 -4 -35 8 -15 15 -15 16 1 16 9 0 17 -4 17 -10 0 -5 4
-10 9 -10 4 0 8 12 9 28 0 15 0 30 1 34 1 10 243 4 260 -6z m114 5 c5 -1 7
-16 5 -33 -4 -46 -30 -47 -51 -3 -22 46 -22 46 11 41 15 -2 31 -5 35 -5z m74
-43 c-2 -13 -4 -5 -4 17 -1 22 1 32 4 23 2 -10 2 -28 0 -40z m341 -21 c9 -3 1
-6 -18 -7 -19 -1 -46 -4 -60 -6 -14 -2 -41 -1 -60 2 -34 6 -35 6 -10 16 14 5
40 7 58 3 25 -5 34 -2 39 12 14 37 28 42 31 13 2 -17 10 -31 20 -33z m-2442
38 c-20 -15 -36 -19 -36 -10 0 5 38 23 50 24 3 0 -4 -6 -14 -14z m411 -12 c-4
-3 -7 0 -7 7 0 7 3 10 7 7 3 -4 3 -10 0 -14z m450 -5 c-3 -8 -6 -5 -6 6 -1 11
2 17 5 13 3 -3 4 -12 1 -19z m470 -4 c-3 -3 -12 -4 -19 -1 -8 3 -5 6 6 6 11 1
17 -2 13 -5z m188 -4 c-28 -12 -63 -12 -70 0 -4 6 12 10 42 9 36 0 43 -3 28
-9z m68 3 c-7 -2 -21 -2 -30 0 -10 3 -4 5 12 5 17 0 24 -2 18 -5z m-1573 -7
c0 -3 -5 -8 -12 -12 -7 -4 -8 -3 -4 4 7 12 16 16 16 8z m2477 -12 c-3 -3 -12
-4 -19 -1 -8 3 -5 6 6 6 11 1 17 -2 13 -5z m-2430 -11 c-4 -3 -10 -3 -14 0 -3
4 0 7 7 7 7 0 10 -3 7 -7z m83 3 c0 -3 -4 -8 -10 -11 -5 -3 -10 -1 -10 4 0 6
5 11 10 11 6 0 10 -2 10 -4z m67 -12 c-3 -3 -12 -4 -19 -1 -8 3 -5 6 6 6 11 1
17 -2 13 -5z m270 -1 c-4 -3 -10 -3 -14 0 -3 4 0 7 7 7 7 0 10 -3 7 -7z m588
-11 c-4 -4 -32 -8 -62 -9 -31 -1 -51 2 -44 6 15 9 115 12 106 3z m-365 -12 c0
-5 -21 -10 -46 -10 -27 0 -43 4 -39 10 3 6 24 10 46 10 21 0 39 -4 39 -10z
m747 3 c-4 -3 -10 -3 -14 0 -3 4 0 7 7 7 7 0 10 -3 7 -7z m-1372 -15 c3 -2 -7
-15 -23 -29 -15 -13 -21 -17 -14 -9 6 8 12 18 12 22 0 12 -38 10 -45 -2 -3 -5
-14 -10 -23 -9 -14 0 -14 2 -2 6 8 3 18 11 22 18 7 11 63 14 73 3z m2092 -5
c-4 -3 -7 0 -7 7 0 7 3 10 7 7 3 -4 3 -10 0 -14z m-1799 1 c-4 -3 -34 -7 -67
-9 -34 -1 -67 -7 -74 -13 -9 -8 -26 -8 -56 -1 -94 21 -77 28 63 29 77 0 137
-3 134 -6z m59 -11 c-4 -3 -10 -3 -14 0 -3 4 0 7 7 7 7 0 10 -3 7 -7z m40 1
c-3 -3 -12 -4 -19 -1 -8 3 -5 6 6 6 11 1 17 -2 13 -5z m40 0 c-3 -3 -12 -4
-19 -1 -8 3 -5 6 6 6 11 1 17 -2 13 -5z m40 0 c-3 -3 -12 -4 -19 -1 -8 3 -5 6
6 6 11 1 17 -2 13 -5z m1583 -10 c0 -2 -21 -3 -47 -3 -41 1 -44 2 -18 8 28 7
65 4 65 -5z m-1475 -4 c-3 -5 -12 -10 -18 -10 -7 0 -6 4 3 10 19 12 23 12 15
0z m45 6 c0 -3 -4 -8 -10 -11 -5 -3 -10 -1 -10 4 0 6 5 11 10 11 6 0 10 -2 10
-4z m27 -13 c-4 -3 -7 0 -7 7 0 7 3 10 7 7 3 -4 3 -10 0 -14z m83 8 c0 -10
-55 -9 -66 2 -4 4 9 7 29 7 21 0 37 -4 37 -9z m1573 -19 c47 0 63 -11 19 -13
-18 -1 -38 -2 -44 -3 -11 -1 -25 -40 -30 -83 -4 -33 -11 3 -12 61 -1 58 0 64
14 51 8 -7 32 -13 53 -13z m-1776 11 c-4 -3 -10 -3 -14 0 -3 4 0 7 7 7 7 0 10
-3 7 -7z m108 -18 c17 -2 102 -7 190 -10 88 -4 180 -8 205 -9 25 -2 227 -3
450 -4 667 -1 641 1 681 -38 42 -40 55 -90 40 -160 -6 -32 -11 -95 -11 -141 0
-67 -3 -83 -15 -84 -8 -1 -18 -2 -23 -3 -4 0 -21 -13 -37 -28 -16 -15 -32 -25
-35 -21 -3 3 1 8 8 10 10 4 10 8 1 19 -9 11 -6 19 15 39 28 26 34 45 13 45 -7
0 -17 -10 -22 -23 -9 -19 -17 -22 -64 -21 -35 1 -49 -1 -40 -7 8 -5 26 -9 42
-9 15 0 27 -4 27 -10 0 -12 -45 -24 -59 -15 -7 4 -11 -9 -11 -36 0 -38 1 -41
13 -24 8 10 19 15 25 11 7 -4 12 -1 12 9 0 9 3 15 8 13 58 -28 82 -44 82 -55
0 -7 5 -13 10 -13 6 0 10 7 10 15 0 8 5 15 10 15 13 0 2 -50 -17 -71 -11 -13
-23 -14 -64 -8 -28 4 -134 9 -235 11 -117 2 -183 7 -181 13 2 6 29 10 60 9 48
0 57 2 57 17 0 12 -5 16 -14 13 -8 -3 -17 -1 -21 5 -7 13 -9 13 83 15 39 2 72
-1 72 -5 0 -12 -35 -29 -59 -29 -12 0 -21 -4 -21 -10 0 -9 66 -8 73 1 2 2 11
16 20 31 11 18 23 25 32 21 13 -4 14 -2 4 20 -10 23 -17 25 -70 24 -32 0 -59
-4 -59 -9 0 -4 -7 -8 -15 -8 -8 0 -15 -5 -15 -11 0 -6 -9 -8 -20 -4 -13 4 -20
2 -20 -7 0 -8 -4 -6 -11 5 -13 22 -29 22 -29 -1 0 -19 -18 -42 -32 -42 -5 0
-4 8 1 18 6 11 6 24 0 33 -5 7 -9 10 -9 4 0 -5 -6 -3 -13 5 -14 17 -74 25 -91
11 -21 -18 -169 -18 -196 -1 -13 9 -13 11 -1 19 12 8 12 11 0 24 -23 22 -59
39 -59 27 0 -5 5 -10 10 -10 6 0 14 -10 19 -22 8 -22 6 -23 -53 -28 -53 -4
-61 -8 -62 -26 -2 -32 -13 -45 -37 -39 -43 9 -227 14 -227 6 0 -15 302 -23
312 -9 12 20 10 28 -8 28 -9 0 -14 6 -11 13 2 6 7 11 10 10 4 -2 14 -3 23 -3
9 0 14 -6 11 -13 -3 -8 -1 -20 4 -28 5 -9 9 -10 9 -2 0 6 11 10 25 9 37 -4 43
-16 9 -17 -27 -1 -26 -2 11 -13 37 -12 38 -13 19 -24 -12 -6 -23 -9 -26 -7 -2
2 -68 5 -146 6 -78 0 -142 4 -142 7 0 8 -7 9 -181 12 -136 3 -136 3 -136 31 0
16 4 29 9 29 4 0 8 -9 8 -20 0 -16 7 -20 30 -20 28 0 30 2 20 21 -7 11 -9 23
-7 26 11 10 46 -9 52 -27 6 -19 45 -24 45 -5 -2 38 -29 60 -78 61 -37 1 -58 7
-84 27 -31 24 -36 25 -54 12 -10 -8 -26 -15 -35 -15 -9 0 -22 -7 -29 -15 -7
-8 -24 -15 -39 -16 -14 0 -46 -9 -71 -19 -50 -21 -58 -18 65 -24 72 -4 75 -5
75 -18 0 -15 -152 -14 -240 2 -30 6 -111 13 -180 16 -69 3 -127 7 -129 10 -4
4 -8 42 -10 102 -1 6 -8 12 -16 12 -13 0 -15 23 -15 153 1 172 4 181 93 233
42 25 42 25 247 19 113 -4 219 -8 235 -10z m575 11 c0 -2 -7 -7 -16 -10 -8 -3
-12 -2 -9 4 6 10 25 14 25 6z m40 0 c0 -2 -7 -6 -15 -10 -8 -3 -15 -1 -15 4 0
6 7 10 15 10 8 0 15 -2 15 -4z m40 0 c0 -2 -7 -6 -15 -10 -8 -3 -15 -1 -15 4
0 6 7 10 15 10 8 0 15 -2 15 -4z m37 -2 c-3 -3 -12 -4 -19 -1 -8 3 -5 6 6 6
11 1 17 -2 13 -5z m335 -1 c-62 -2 -161 -2 -220 0 -59 1 -8 3 113 3 121 0 169
-2 107 -3z m746 -10 c-10 -2 -26 -2 -35 0 -10 3 -2 5 17 5 19 0 27 -2 18 -5z
m-2351 -22 c0 -11 -5 -17 -9 -15 -4 3 -10 -12 -14 -34 -6 -37 -7 -38 -48 -38
-23 -1 -48 -4 -54 -8 -7 -4 -12 -3 -12 3 0 5 -10 11 -22 14 -22 3 -22 4 -3 12
11 5 28 18 38 30 10 11 15 13 11 5 -4 -8 5 -4 21 10 27 25 27 25 21 3 -10 -32
8 -29 36 6 27 35 37 38 35 12z m-127 -15 c0 -3 -5 -8 -12 -12 -7 -4 -8 -3 -4
4 7 12 16 16 16 8z m-38 -28 c-7 -7 -12 -8 -12 -2 0 14 12 26 19 19 2 -3 -1
-11 -7 -17z m2366 -133 c11 17 12 9 7 -55 -3 -41 -10 -79 -16 -84 -5 -6 -10
-21 -10 -35 -1 -21 -3 -18 -8 9 -4 20 -5 80 -2 135 4 77 7 89 11 55 5 -41 6
-43 18 -25z m47 25 c3 -5 4 -10 1 -10 -3 0 -8 5 -11 10 -3 6 -4 10 -1 10 3 0
8 -4 11 -10z m14 -77 c-1 -53 -6 -49 -11 10 -2 20 0 37 4 37 4 0 8 -21 7 -47z
m86 -42 c3 -5 1 -12 -5 -16 -5 -3 -10 1 -10 9 0 18 6 21 15 7z m-108 -48 c-4
-3 -7 0 -7 7 0 7 3 10 7 7 3 -4 3 -10 0 -14z m105 -22 c-2 -17 -7 -29 -11 -26
-4 2 -6 18 -3 34 2 17 7 29 11 26 4 -2 6 -18 3 -34z m-2502 -11 c0 -5 -5 -10
-11 -10 -5 0 -7 5 -4 10 3 6 8 10 11 10 2 0 4 -4 4 -10z m2317 -7 c-4 -3 -7 0
-7 7 0 7 3 10 7 7 3 -4 3 -10 0 -14z m-2296 -26 c-10 -9 -11 -8 -5 6 3 10 9
15 12 12 3 -3 0 -11 -7 -18z m2296 -9 c-3 -8 -6 -5 -6 6 -1 11 2 17 5 13 3 -3
4 -12 1 -19z m20 -5 c-4 -3 -7 0 -7 7 0 7 3 10 7 7 3 -4 3 -10 0 -14z m-2321
-29 c-23 -16 -40 -19 -31 -4 3 6 13 10 21 10 8 0 14 5 14 12 0 6 3 8 7 4 5 -4
-1 -14 -11 -22z m2481 9 c-4 -3 -7 0 -7 7 0 7 3 10 7 7 3 -4 3 -10 0 -14z
m-2417 -7 c0 -3 -5 -8 -12 -12 -7 -4 -8 -3 -4 4 7 12 16 16 16 8z m2376 -31
c19 -16 24 -25 14 -25 -14 0 -50 33 -50 45 0 9 7 5 36 -20z m-1596 -6 c0 -5
-4 -9 -10 -9 -5 0 -10 7 -10 16 0 8 5 12 10 9 6 -3 10 -10 10 -16z m-110 -3
c0 -3 -5 -8 -12 -12 -7 -4 -8 -3 -4 4 7 12 16 16 16 8z m695 -6 c3 -6 -4 -10
-17 -10 -18 0 -20 2 -8 10 19 12 18 12 25 0z m-615 -12 c0 -4 -9 -8 -20 -8
-11 0 -20 4 -20 8 0 4 9 8 20 8 11 0 20 -4 20 -8z m880 2 c0 -5 -9 -10 -19
-10 -11 0 -26 -3 -35 -6 -9 -3 -16 -1 -16 4 0 6 12 13 28 15 15 2 30 5 35 6 4
0 7 -3 7 -9z m310 -2 c0 -4 -7 -8 -15 -8 -8 0 -15 4 -15 8 0 5 7 9 15 9 8 0
15 -4 15 -9z m-448 -17 c9 -9 14 -56 5 -58 -22 -8 -39 -2 -33 13 10 25 -2 34
-31 23 -29 -11 -28 -11 -37 18 -7 22 -6 23 41 17 26 -4 51 -9 55 -13z m718 9
c0 -5 -9 -10 -19 -10 -11 0 -23 5 -26 10 -4 6 5 10 19 10 14 0 26 -4 26 -10z
m-2290 -14 c0 -3 -5 -8 -12 -12 -7 -4 -8 -3 -4 4 7 12 16 16 16 8z m1827 -23
c-4 -3 -7 0 -7 7 0 7 3 10 7 7 3 -4 3 -10 0 -14z m-1741 -25 c-17 -49 -27 -63
-36 -48 -5 7 -12 3 -24 -14 -17 -26 -46 -35 -46 -15 0 6 6 9 14 6 9 -4 21 5
31 19 9 14 20 22 25 19 6 -4 10 3 10 14 0 29 11 51 25 51 10 0 10 -7 1 -32z
m249 22 c-3 -5 -12 -10 -18 -10 -7 0 -6 4 3 10 19 12 23 12 15 0z m600 -40
c-3 -5 -10 -10 -16 -10 -5 0 -9 5 -9 10 0 6 7 10 16 10 8 0 12 -4 9 -10z m119
1 c-8 -9 -104 -9 -99 0 3 4 27 7 55 6 28 0 47 -3 44 -6z m686 5 c0 -3 -4 -8
-10 -11 -5 -3 -10 -1 -10 4 0 6 5 11 10 11 6 0 10 -2 10 -4z m-653 -13 c-4 -3
-10 -3 -14 0 -3 4 0 7 7 7 7 0 10 -3 7 -7z m1313 -13 c0 -5 -7 -10 -15 -10 -8
0 -15 5 -15 10 0 6 7 10 15 10 8 0 15 -4 15 -10z m-231 -14 c-8 -8 -258 -13
-253 -4 3 4 62 8 131 8 70 0 124 -2 122 -4z m-402 -13 c-4 -3 -10 -3 -14 0 -3
4 0 7 7 7 7 0 10 -3 7 -7z m-1729 -23 c-7 -10 -14 -17 -17 -15 -4 4 18 35 25
35 2 0 -1 -9 -8 -20z m-17 -103 c-10 -9 -11 -8 -5 6 3 10 9 15 12 12 3 -3 0
-11 -7 -18z m-21 -7 c0 -5 -5 -10 -11 -10 -5 0 -7 5 -4 10 3 6 8 10 11 10 2 0
4 -4 4 -10z m21 -33 c-10 -9 -11 -8 -5 6 3 10 9 15 12 12 3 -3 0 -11 -7 -18z"/>
<path d="M2200 1441 c0 -5 7 -15 17 -22 15 -13 15 -12 4 9 -12 23 -21 28 -21
13z"/>
<path d="M2240 1446 c0 -17 43 -106 51 -106 5 0 -3 24 -18 53 -30 58 -33 63
-33 53z"/>
<path d="M2300 1447 c0 -13 55 -107 62 -107 4 0 -4 21 -18 48 -27 48 -44 71
-44 59z"/>
<path d="M2330 1444 c0 -3 11 -22 25 -42 14 -20 25 -42 25 -49 0 -7 7 -13 16
-13 13 0 13 2 2 14 -8 7 -22 32 -32 55 -16 35 -36 55 -36 35z"/>
<path d="M2295 1390 c14 -29 28 -50 31 -48 6 6 -34 85 -47 93 -6 4 1 -16 16
-45z"/>
<path d="M560 1255 c-8 -9 -8 -15 -2 -15 18 0 42 12 42 21 0 14 -26 10 -40 -6z"/>
<path d="M525 1250 c-3 -5 -1 -10 4 -10 6 0 11 5 11 10 0 6 -2 10 -4 10 -3 0
-8 -4 -11 -10z"/>
<path d="M225 979 c-27 -10 -17 -12 118 -17 30 -2 37 -6 37 -23 0 -19 -4 -20
-77 -14 -43 4 -81 9 -85 11 -4 2 -9 0 -13 -6 -3 -5 1 -10 9 -10 9 0 16 -3 17
-7 0 -5 3 -52 5 -107 4 -127 14 -136 16 -15 0 52 3 79 5 62 3 -23 10 -33 21
-33 9 0 31 -9 48 -19 32 -19 32 -19 21 9 -7 18 -16 26 -27 23 -17 -4 -58 33
-47 43 3 4 22 -1 41 -10 19 -9 37 -16 40 -16 13 0 5 30 -11 39 -13 8 12 10 91
11 118 0 140 -7 38 -12 -63 -3 -76 -10 -44 -23 15 -7 14 -9 -8 -15 -18 -6 -20
-8 -7 -9 13 -1 17 -7 15 -23 -2 -15 -9 -22 -21 -22 -10 1 -16 -1 -14 -5 31
-58 46 -127 17 -81 -7 11 -10 8 -10 -12 0 -18 -5 -28 -15 -28 -8 0 -15 -5 -15
-12 0 -6 -7 -3 -15 8 -13 18 -14 17 -15 -18 0 -37 0 -37 -32 -25 -25 8 -28 12
-15 15 12 2 16 9 13 19 -3 8 -6 17 -6 19 0 2 -7 4 -15 4 -8 0 -15 -7 -15 -15
0 -8 -9 -15 -20 -15 -23 0 -25 -8 -7 -31 8 -10 36 -19 76 -23 36 -4 69 -10 74
-13 6 -3 16 2 24 12 12 17 13 17 13 2 0 -21 16 -22 24 -2 3 9 -1 18 -9 21 -21
8 -19 54 3 70 28 21 73 18 79 -7 6 -23 58 -24 58 -1 0 6 -4 11 -10 10 -5 -2
-9 -7 -7 -11 3 -10 -35 10 -43 23 -4 6 10 10 35 10 23 0 39 -4 36 -9 -3 -5 5
-16 18 -25 22 -14 30 -14 82 0 49 12 60 13 69 1 8 -11 14 -11 35 0 26 13 21
17 -17 14 -27 -3 -37 13 -18 29 7 6 11 18 8 26 -4 10 -10 4 -22 -18 -14 -30
-20 -33 -61 -33 -57 -1 -81 5 -74 17 3 5 -18 8 -53 7 -58 -2 -88 5 -79 19 2 4
50 5 105 2 126 -6 121 -8 121 50 0 42 -2 48 -19 43 -10 -3 -22 0 -25 6 -5 7 3
11 18 11 18 0 26 5 26 17 0 12 3 14 11 6 14 -14 49 -5 49 13 0 14 12 17 60 15
23 -1 23 0 5 8 -14 7 1 10 53 10 66 1 73 -1 81 -21 7 -19 5 -24 -13 -27 -11
-1 -24 -8 -28 -15 -5 -6 -8 -2 -8 11 0 12 -4 24 -8 27 -4 2 -6 -44 -5 -104 3
-101 2 -109 -17 -115 -11 -3 -25 -3 -31 1 -7 4 -9 3 -6 -3 4 -6 23 -13 43 -15
36 -4 36 -4 30 43 -4 25 -2 57 3 70 9 21 10 19 10 -17 1 -38 4 -42 31 -47 16
-4 30 -13 30 -21 0 -7 10 -16 23 -20 32 -8 39 -7 32 4 -3 6 -14 10 -25 10 -18
0 -36 26 -20 32 21 8 15 133 -8 165 -24 33 -17 49 17 38 31 -10 81 -92 81
-133 0 -15 6 -51 13 -80 12 -54 12 -54 73 -49 34 3 65 2 70 -3 15 -14 94 -24
94 -12 0 6 6 9 13 6 7 -2 24 0 38 5 17 7 19 10 7 10 -10 1 -18 6 -18 11 0 6
-5 10 -11 10 -5 0 -7 -4 -4 -10 3 -6 -1 -10 -9 -10 -9 0 -16 5 -16 10 0 6 -7
10 -16 10 -10 0 -14 -6 -10 -15 4 -11 -2 -15 -22 -15 -19 0 -23 3 -13 9 7 5
10 14 7 20 -9 14 -126 15 -126 1 0 -5 -7 -10 -16 -10 -8 0 -13 4 -10 9 3 5 -1
11 -9 15 -9 3 -15 18 -14 38 1 30 2 31 8 8 8 -29 51 -37 204 -39 87 -1 87 -1
87 38 0 31 4 40 18 40 28 -1 57 7 55 14 -2 4 -3 12 -3 17 0 6 -7 10 -15 10 -8
0 -15 5 -15 11 0 6 7 9 15 5 8 -3 15 -1 15 4 0 17 -5 25 -12 23 -5 -2 -8 2 -8
8 0 6 7 8 16 5 9 -4 22 -2 29 4 9 8 17 7 26 -2 8 -7 29 -14 48 -16 45 -3 44 0
42 -81 -1 -38 3 -72 9 -76 9 -5 17 109 10 154 -1 9 4 12 14 8 9 -4 16 -2 16 3
0 5 -21 8 -47 7 -30 -1 -48 2 -50 11 -3 8 9 12 43 12 61 0 53 9 -10 12 -31 1
-51 -3 -56 -12 -7 -11 -12 -11 -23 -2 -11 9 -24 9 -57 -3 -57 -20 -126 -20
-134 1 -3 8 -11 12 -16 9 -6 -4 -17 -1 -25 5 -16 13 -78 4 -69 -11 10 -17 -19
-9 -33 9 -13 16 -14 15 -8 -5 8 -29 -9 -30 -54 -2 -28 17 -56 22 -135 25 -56
2 -120 6 -143 9 -23 2 -45 0 -48 -5 -12 -20 -113 -32 -177 -20 -35 6 -72 12
-83 14 -33 4 -79 17 -101 28 -11 5 -27 8 -35 7 -8 -2 -23 2 -34 8 -26 14 -134
22 -160 12z m72 -75 c-3 -3 -12 -4 -19 -1 -8 3 -5 6 6 6 11 1 17 -2 13 -5z
m280 -10 c-3 -3 -12 -4 -19 -1 -8 3 -5 6 6 6 11 1 17 -2 13 -5z m723 -4 c0
-13 -20 -13 -40 0 -12 8 -9 10 13 10 15 0 27 -4 27 -10z m-155 -10 c3 -5 4
-10 1 -10 -3 0 -8 5 -11 10 -3 6 -4 10 -1 10 3 0 8 -4 11 -10z m-625 -28 c0
-4 -16 -6 -35 -4 -19 2 -35 6 -35 8 0 2 16 4 35 4 19 0 35 -4 35 -8z m40 -2
c0 -5 -4 -10 -9 -10 -6 0 -13 5 -16 10 -3 6 1 10 9 10 9 0 16 -4 16 -10z m40
0 c0 -5 -4 -10 -9 -10 -6 0 -13 5 -16 10 -3 6 1 10 9 10 9 0 16 -4 16 -10z
m777 3 c-20 -2 -52 -2 -70 0 -17 2 0 4 38 4 39 0 53 -2 32 -4z m-727 -13 c0
-5 -7 -7 -15 -4 -8 4 -15 8 -15 10 0 2 7 4 15 4 8 0 15 -4 15 -10z m479 -4 c7
-8 8 -17 3 -20 -6 -3 -12 3 -15 14 -6 24 -4 25 12 6z m310 -27 c1 -7 -159 -3
-166 5 -4 3 28 6 70 6 66 0 77 2 78 18 0 14 2 14 9 -3 5 -11 9 -23 9 -26z
m-512 14 c-4 -3 -7 0 -7 7 0 7 3 10 7 7 3 -4 3 -10 0 -14z m50 0 c-4 -3 -10
-3 -14 0 -3 4 0 7 7 7 7 0 10 -3 7 -7z m-527 -63 c22 -22 25 -30 11 -30 -12 0
-41 29 -41 41 0 14 8 11 30 -11z m547 -37 c-4 -3 -7 0 -7 7 0 7 3 10 7 7 3 -4
3 -10 0 -14z m-630 -105 c-3 -8 -6 -5 -6 6 -1 11 2 17 5 13 3 -3 4 -12 1 -19z"/>
<path d="M1696 899 c17 -21 13 -49 -7 -49 -23 0 -34 -52 -24 -116 7 -47 30
-68 46 -43 7 11 9 11 9 1 0 -8 8 -12 18 -10 24 5 36 123 15 155 -9 13 -19 21
-23 18 -5 -3 -6 4 -3 14 3 13 -3 23 -19 32 -19 10 -21 10 -12 -2z"/>
<path d="M1783 903 c-18 -6 -16 -30 3 -37 9 -4 14 -13 10 -21 -3 -9 0 -15 9
-15 9 0 15 -10 15 -25 0 -16 6 -25 15 -25 10 0 15 10 15 30 0 17 4 30 10 30 5
0 7 -25 3 -63 -4 -50 -2 -65 10 -76 20 -16 281 -29 290 -14 9 15 12 127 4 141
-6 8 0 12 22 12 35 0 41 -15 10 -23 -12 -3 -18 -10 -15 -16 9 -14 56 -7 67 10
6 10 9 7 9 -13 0 -15 -7 -34 -16 -42 -14 -15 -14 -16 1 -16 19 0 33 34 29 69
-1 14 3 29 9 33 9 5 8 8 -3 8 -8 0 -28 7 -45 16 -60 33 -236 45 -285 20 -29
-14 -30 -14 -31 7 0 21 -1 21 -8 3 -5 -14 -10 -16 -15 -8 -4 7 -12 12 -19 12
-8 0 -8 -3 1 -12 22 -22 15 -44 -7 -24 -15 13 -20 14 -24 4 -4 -9 -8 -6 -12 9
-7 22 -30 33 -52 26z m157 -114 c0 -4 -7 -6 -15 -3 -8 4 -15 10 -15 15 0 4 7
6 15 3 8 -4 15 -10 15 -15z m-43 4 c-4 -3 -10 -3 -14 0 -3 4 0 7 7 7 7 0 10
-3 7 -7z m263 -3 c0 -5 -9 -10 -20 -10 -11 0 -20 5 -20 10 0 6 9 10 20 10 11
0 20 -4 20 -10z"/>
<path d="M210 890 c0 -7 3 -10 7 -7 3 4 3 10 0 14 -4 3 -7 0 -7 -7z"/>
<path d="M818 872 c-10 -2 -18 -7 -18 -10 -1 -4 -3 -32 -6 -62 -6 -68 2 -80
52 -83 39 -2 39 -2 42 69 3 71 2 72 -25 81 -15 5 -36 7 -45 5z m32 -42 c0 -5
-4 -10 -10 -10 -5 0 -10 5 -10 10 0 6 5 10 10 10 6 0 10 -4 10 -10z"/>
<path d="M210 850 c0 -7 3 -10 7 -7 3 4 3 10 0 14 -4 3 -7 0 -7 -7z"/>
<path d="M380 840 c0 -7 3 -10 7 -7 3 4 3 10 0 14 -4 3 -7 0 -7 -7z"/>
<path d="M1521 841 c-8 -5 -12 -18 -8 -30 3 -12 2 -21 -3 -21 -4 0 -5 -20 -2
-45 5 -45 4 -45 -27 -45 -17 0 -31 5 -31 11 0 5 -5 7 -11 3 -30 -18 34 -33 80
-18 17 5 22 4 17 -4 -5 -8 5 -12 32 -12 48 0 52 8 52 98 0 67 0 67 -43 69 -23
2 -48 -1 -56 -6z"/>
<path d="M205 810 c-3 -5 -1 -10 4 -10 6 0 11 5 11 10 0 6 -2 10 -4 10 -3 0
-8 -4 -11 -10z"/>
<path d="M206 775 c-3 -8 -1 -15 4 -15 6 0 10 7 10 15 0 8 -2 15 -4 15 -2 0
-6 -7 -10 -15z"/>
<path d="M2190 772 c0 -12 19 -26 26 -19 2 2 -2 10 -11 17 -9 8 -15 8 -15 2z"/>
<path d="M260 760 c0 -5 7 -10 16 -10 10 0 14 -6 10 -15 -6 -18 26 -37 48 -29
21 8 20 33 -1 40 -10 3 -26 10 -35 15 -23 12 -38 12 -38 -1z m80 -30 c0 -5 -6
-10 -14 -10 -8 0 -18 5 -21 10 -3 6 3 10 14 10 12 0 21 -4 21 -10z"/>
<path d="M1812 702 c-1 -41 -6 -71 -11 -68 -5 4 -7 -3 -4 -15 12 -44 24 1 20
77 -3 79 -3 79 -5 6z"/>
<path d="M1476 751 c-4 -7 -5 -15 -2 -18 9 -9 19 4 14 18 -4 11 -6 11 -12 0z"/>
<path d="M363 743 c4 -3 10 -3 14 0 3 4 0 7 -7 7 -7 0 -10 -3 -7 -7z"/>
<path d="M200 718 c0 -19 2 -20 10 -8 13 19 13 30 0 30 -5 0 -10 -10 -10 -22z"/>
<path d="M1073 675 c-6 -33 -7 -64 -3 -69 10 -10 24 70 18 105 -2 16 -8 3 -15
-36z"/>
<path d="M2193 715 c-3 -9 -3 -19 1 -22 3 -4 6 1 6 10 0 8 6 18 13 20 9 4 9 6
-1 6 -7 1 -15 -6 -19 -14z"/>
<path d="M1640 680 c0 -7 3 -10 7 -7 3 4 3 10 0 14 -4 3 -7 0 -7 -7z"/>
<path d="M1524 658 c-4 -7 -3 -8 4 -4 12 7 16 16 8 16 -3 0 -8 -5 -12 -12z"/>
<path d="M1860 646 c0 -31 12 -39 45 -30 31 8 30 39 0 39 -11 1 -26 4 -33 8
-8 6 -12 1 -12 -17z"/>
<path d="M1957 649 c-8 -29 35 -44 46 -16 2 6 6 17 8 22 2 6 -8 10 -23 10 -17
1 -28 -5 -31 -16z"/>
<path d="M2030 662 c0 -16 37 -24 57 -13 16 9 16 10 -4 11 -12 0 -28 3 -37 6
-9 3 -16 1 -16 -4z"/>
<path d="M320 650 c0 -7 3 -10 7 -7 3 4 3 10 0 14 -4 3 -7 0 -7 -7z"/>
<path d="M1642 640 c0 -14 2 -19 5 -12 2 6 2 18 0 25 -3 6 -5 1 -5 -13z"/>
<path d="M600 632 c0 -8 8 -12 22 -10 31 4 33 24 3 24 -14 0 -25 -6 -25 -14z"/>
<path d="M680 636 c0 -9 5 -16 10 -16 6 0 10 4 10 9 0 6 -4 13 -10 16 -5 3
-10 -1 -10 -9z"/>
<path d="M1443 643 c4 -3 10 -3 14 0 3 4 0 7 -7 7 -7 0 -10 -3 -7 -7z"/>
<path d="M544 625 c-17 -13 -17 -14 -2 -15 9 0 20 5 23 11 11 17 0 20 -21 4z"/>
<path d="M1040 610 c0 -7 3 -10 7 -7 3 4 3 10 0 14 -4 3 -7 0 -7 -7z"/>
<path d="M1117 601 c-3 -14 1 -18 18 -18 16 0 22 4 18 13 -3 8 0 14 6 14 6 0
11 -7 11 -15 0 -8 5 -15 10 -15 6 0 10 6 10 14 0 8 8 16 18 18 9 2 -6 5 -34 5
-43 2 -53 -1 -57 -16z"/>
<path d="M1235 598 c9 -24 52 -37 71 -23 16 11 16 13 -4 24 -26 14 -54 15 -32
1 9 -6 10 -10 3 -10 -6 0 -15 5 -18 10 -9 14 -25 12 -20 -2z"/>
<path d="M511 586 c10 -9 79 -14 79 -5 0 5 -19 9 -42 9 -23 0 -39 -2 -37 -4z"/>
<path d="M2228 533 c6 -2 12 -11 12 -19 0 -9 4 -13 10 -9 14 9 0 35 -19 34
-10 0 -11 -2 -3 -6z"/>
<path d="M133 1015 c-8 -9 -9 -16 -3 -20 6 -3 13 1 16 10 9 21 2 26 -13 10z"/>
<path d="M84 998 c-4 -7 -3 -8 4 -4 12 7 16 16 8 16 -3 0 -8 -5 -12 -12z"/>
<path d="M1140 1510 c0 -7 3 -10 7 -7 3 4 3 10 0 14 -4 3 -7 0 -7 -7z"/>
<path d="M1831 1434 c0 -11 3 -14 6 -6 3 7 2 16 -1 19 -3 4 -6 -2 -5 -13z"/>
<path d="M1951 1445 c1 -19 18 -51 18 -35 0 8 -4 22 -9 30 -5 8 -9 11 -9 5z"/>
<path d="M1992 1430 c0 -14 2 -19 5 -12 2 6 2 18 0 25 -3 6 -5 1 -5 -13z"/>
<path d="M2010 1450 c2 -17 39 -112 40 -99 0 20 -20 81 -31 94 -5 5 -9 7 -9 5z"/>
<path d="M2045 1433 c4 -10 12 -31 17 -48 13 -37 33 -61 23 -26 -13 42 -35 91
-41 91 -3 0 -3 -8 1 -17z"/>
<path d="M1891 1424 c0 -11 3 -14 6 -6 3 7 2 16 -1 19 -3 4 -6 -2 -5 -13z"/>
<path d="M1926 1415 c8 -37 14 -45 14 -19 0 10 -5 26 -10 34 -8 11 -9 7 -4
-15z"/>
<path d="M1861 1414 c0 -11 3 -14 6 -6 3 7 2 16 -1 19 -3 4 -6 -2 -5 -13z"/>
<path d="M2120 1420 c0 -7 3 -10 7 -7 3 4 3 10 0 14 -4 3 -7 0 -7 -7z"/>
<path d="M1800 1410 c0 -7 3 -10 7 -7 3 4 3 10 0 14 -4 3 -7 0 -7 -7z"/>
<path d="M1831 1394 c0 -11 3 -14 6 -6 3 7 2 16 -1 19 -3 4 -6 -2 -5 -13z"/>
<path d="M1901 1373 c-1 -24 3 -33 15 -33 12 0 14 3 6 13 -5 6 -12 21 -15 32
-3 13 -5 9 -6 -12z"/>
<path d="M2000 1390 c0 -7 3 -10 7 -7 3 4 3 10 0 14 -4 3 -7 0 -7 -7z"/>
<path d="M1970 1365 c0 -14 4 -25 9 -25 4 0 6 11 3 25 -2 14 -6 25 -8 25 -2 0
-4 -11 -4 -25z"/>
<path d="M2106 1370 c7 -28 12 -35 18 -29 2 2 -2 15 -10 29 -15 25 -15 25 -8
0z"/>
<path d="M423 1363 c9 -2 25 -2 35 0 9 3 1 5 -18 5 -19 0 -27 -2 -17 -5z"/>
<path d="M553 1363 c9 -2 23 -2 30 0 6 3 -1 5 -18 5 -16 0 -22 -2 -12 -5z"/>
<path d="M733 1363 c4 -3 10 -3 14 0 3 4 0 7 -7 7 -7 0 -10 -3 -7 -7z"/>
<path d="M1125 1360 c-19 -8 -19 -9 3 -9 12 -1 22 4 22 9 0 6 -1 10 -2 9 -2 0
-12 -4 -23 -9z"/>
<path d="M1340 1360 c0 -7 3 -10 7 -7 3 4 3 10 0 14 -4 3 -7 0 -7 -7z"/>
<path d="M1736 1361 c-4 -7 -5 -15 -2 -18 9 -9 19 4 14 18 -4 11 -6 11 -12 0z"/>
<path d="M1836 1361 c-4 -7 -5 -15 -2 -18 9 -9 19 4 14 18 -4 11 -6 11 -12 0z"/>
<path d="M1866 1355 c-3 -9 0 -15 9 -15 16 0 20 16 6 24 -5 3 -11 -1 -15 -9z"/>
<path d="M2140 1355 c0 -8 4 -15 10 -15 5 0 7 7 4 15 -4 8 -8 15 -10 15 -2 0
-4 -7 -4 -15z"/>
<path d="M1505 1350 c3 -5 8 -10 11 -10 3 0 2 5 -1 10 -3 6 -8 10 -11 10 -3 0
-2 -4 1 -10z"/>
<path d="M1540 1350 c0 -5 5 -10 11 -10 5 0 7 5 4 10 -3 6 -8 10 -11 10 -2 0
-4 -4 -4 -10z"/>
<path d="M1630 1350 c-13 -8 -12 -10 3 -10 9 0 17 5 17 10 0 12 -1 12 -20 0z"/>
<path d="M1660 1350 c0 -5 7 -10 15 -10 8 0 15 5 15 10 0 6 -7 10 -15 10 -8 0
-15 -4 -15 -10z"/>
<path d="M1700 1350 c0 -5 5 -10 10 -10 6 0 10 5 10 10 0 6 -4 10 -10 10 -5 0
-10 -4 -10 -10z"/>
<path d="M1770 1349 c0 -5 9 -9 20 -9 11 0 20 2 20 4 0 2 -9 6 -20 9 -11 3
-20 1 -20 -4z"/>
<path d="M2010 1350 c0 -5 5 -10 11 -10 5 0 7 5 4 10 -3 6 -8 10 -11 10 -2 0
-4 -4 -4 -10z"/>
<path d="M4 915 c-10 -26 1 -35 13 -10 6 14 7 25 2 25 -5 0 -12 -7 -15 -15z"/>
<path d="M53 913 c4 -3 10 -3 14 0 3 4 0 7 -7 7 -7 0 -10 -3 -7 -7z"/>
<path d="M83 913 c4 -3 10 -3 14 0 3 4 0 7 -7 7 -7 0 -10 -3 -7 -7z"/>
<path d="M110 910 c0 -5 7 -7 15 -4 8 4 15 8 15 10 0 2 -7 4 -15 4 -8 0 -15
-4 -15 -10z"/>
<path d="M5 842 c-3 -3 -5 -16 -5 -30 0 -24 0 -24 36 -3 23 14 35 17 31 8 -3
-8 3 -13 17 -14 11 0 15 1 8 4 -10 4 -10 8 -1 19 9 11 8 14 -2 15 -8 0 -28 2
-46 3 -18 2 -35 1 -38 -2z m16 -25 c-10 -9 -11 -8 -5 6 3 10 9 15 12 12 3 -3
0 -11 -7 -18z"/>
<path d="M110 800 c0 -13 11 -13 30 0 12 8 11 10 -7 10 -13 0 -23 -4 -23 -10z"/>
<path d="M50 510 c0 -7 3 -10 7 -7 3 4 3 10 0 14 -4 3 -7 0 -7 -7z"/>
<path d="M203 433 c9 -2 23 -2 30 0 6 3 -1 5 -18 5 -16 0 -22 -2 -12 -5z"/>
<path d="M2323 412 c-6 -4 -13 -25 -15 -47 -2 -34 -6 -40 -25 -39 -12 0 -20
-3 -17 -8 3 -4 14 -8 25 -8 21 0 26 -29 7 -48 -8 -8 -8 -15 3 -28 13 -16 1
-16 -186 -10 -394 13 -415 16 -415 57 0 21 4 28 13 23 7 -5 7 -1 -2 10 -11 14
-12 19 -2 25 9 6 7 14 -8 32 -20 24 -20 24 -14 2 3 -14 1 -23 -6 -23 -8 0 -8
-6 1 -20 15 -23 11 -27 -27 -34 -17 -2 -32 -5 -35 -5 -3 -1 3 -6 13 -12 9 -5
20 -8 25 -6 4 3 13 -2 21 -11 13 -14 -4 -15 -185 -8 -205 7 -602 34 -615 41
-11 7 -16 -52 -6 -70 5 -9 7 -30 5 -46 -3 -19 0 -29 8 -29 7 0 18 -8 23 -18 9
-15 12 -15 21 -2 7 12 4 16 -13 20 -15 4 -23 15 -25 34 -2 17 0 26 6 22 7 -4
9 9 7 33 -2 32 0 38 12 34 18 -7 44 -9 158 -11 52 -1 85 -6 85 -13 0 -5 -4 -7
-10 -4 -5 3 -10 2 -10 -4 0 -5 8 -12 18 -14 18 -5 -20 -11 -47 -8 -7 2 -10 -2
-6 -8 8 -14 -8 -14 -22 0 -7 7 -12 6 -16 -5 -5 -13 1 -16 33 -16 21 0 41 -4
44 -9 3 -5 -2 -8 -11 -7 -9 0 -18 -5 -21 -13 -3 -8 0 -11 7 -7 6 4 11 2 11 -3
0 -6 -8 -11 -17 -12 -12 -1 -10 -4 7 -9 14 -4 19 -8 13 -9 -18 -1 -16 -18 2
-18 8 0 15 6 15 14 0 7 6 32 13 54 12 41 12 41 112 34 55 -4 101 -8 103 -9 1
-2 3 -44 3 -94 0 -51 5 -94 10 -98 5 -3 9 0 9 5 0 6 17 12 38 12 37 2 37 2 -3
8 -22 3 -39 9 -37 14 1 4 2 16 2 26 0 15 8 21 38 24 37 4 37 4 -1 5 -23 1 -36
6 -32 12 3 5 1 10 -4 10 -6 0 -11 5 -11 11 0 6 7 9 15 5 8 -3 15 -1 15 3 0 5
-6 11 -12 14 -40 14 18 17 137 8 149 -12 155 -11 155 22 1 20 2 20 11 4 5 -9
8 -21 4 -26 -3 -5 -1 -12 5 -16 5 -3 10 -1 10 5 0 6 8 9 18 6 16 -5 79 -9 302
-21 58 -3 135 -8 172 -12 59 -5 69 -3 75 13 6 17 7 17 13 -1 17 -48 -13 -81
-50 -54 -12 8 -9 9 13 5 15 -4 27 -2 27 4 0 6 -24 9 -57 9 -32 -1 -46 -4 -30
-6 15 -2 27 -11 27 -18 0 -9 16 -15 48 -18 47 -3 47 -3 -1 -5 -28 -1 -57 4
-70 13 -16 10 -50 15 -107 15 -47 0 -94 0 -105 0 -11 0 -40 2 -65 6 -33 4 -41
2 -30 -5 20 -14 -8 -15 -43 -2 -20 8 -27 6 -31 -5 -3 -8 -2 -13 3 -9 5 3 31 1
58 -5 60 -12 233 -18 233 -7 0 4 -26 8 -57 9 -58 2 -58 2 -8 6 70 5 169 -8
135 -19 -20 -6 -16 -7 20 -8 57 -2 91 -11 84 -22 -3 -5 0 -9 6 -9 18 0 26 39
19 93 -3 29 -3 57 1 62 5 6 9 15 10 20 4 21 10 17 10 -6 -1 -13 1 -46 4 -74 3
-27 5 -56 6 -62 0 -7 12 -13 26 -13 14 0 23 4 20 9 -3 5 4 12 17 16 19 7 17 9
-18 16 -29 5 -17 7 47 5 47 -2 92 0 100 5 10 7 -140 16 -174 10 -5 0 -8 6 -8
14 0 13 14 14 95 9 84 -6 95 -5 95 10 0 19 -1 19 -32 7 -16 -6 -33 -4 -53 5
-17 8 -21 12 -10 9 19 -5 19 -4 3 9 -30 22 -21 28 37 24 46 -2 55 0 55 14 0
13 -14 17 -89 20 -90 3 -117 12 -91 28 11 7 11 11 1 24 -21 25 -31 19 -33 -21
-1 -21 -4 10 -7 69 -5 79 -9 105 -18 100z m-1129 -160 c3 -5 -1 -9 -9 -9 -8 0
-15 4 -15 9 0 4 4 8 9 8 6 0 12 -4 15 -8z m259 -19 c-7 -2 -21 -2 -30 0 -10 3
-4 5 12 5 17 0 24 -2 18 -5z m254 -10 c-4 -3 -7 0 -7 7 0 7 3 10 7 7 3 -4 3
-10 0 -14z m-371 0 c-7 -7 -97 -5 -105 3 -2 2 22 4 54 4 32 0 55 -3 51 -7z
m225 -15 c0 -10 2 -10 6 0 7 17 80 16 80 -2 0 -7 -5 -13 -11 -13 -6 0 -20 -1
-31 -2 -20 -2 -20 -2 0 -12 13 -6 -11 -7 -70 -3 -63 4 -99 11 -120 25 -30 19
-30 19 58 19 63 0 87 -3 88 -12z m487 0 c130 -9 172 -15 172 -25 0 -8 -8 -17
-17 -20 -15 -6 -15 -7 3 -14 14 -6 9 -8 -19 -8 -22 -1 -45 6 -53 14 -9 8 -34
15 -57 15 -23 1 -81 2 -129 3 -49 1 -88 -1 -88 -5 0 -4 -12 -1 -26 7 -15 7
-33 11 -42 8 -10 -4 -13 -2 -8 5 5 8 2 10 -9 6 -13 -5 -13 -9 -3 -22 11 -13
10 -14 -2 -10 -8 2 -16 17 -18 31 -3 27 -3 27 60 27 35 0 141 -5 236 -12z
m-401 -35 c-4 -3 -10 -3 -14 0 -3 4 0 7 7 7 7 0 10 -3 7 -7z m610 1 c-3 -3
-12 -4 -19 -1 -8 3 -5 6 6 6 11 1 17 -2 13 -5z m160 0 c-3 -3 -12 -4 -19 -1
-8 3 -5 6 6 6 11 1 17 -2 13 -5z m-590 -11 c-4 -3 -10 -3 -14 0 -3 4 0 7 7 7
7 0 10 -3 7 -7z m150 -100 c-4 -3 -10 -3 -14 0 -3 4 0 7 7 7 7 0 10 -3 7 -7z"/>
<path d="M1493 193 c4 -3 10 -3 14 0 3 4 0 7 -7 7 -7 0 -10 -3 -7 -7z"/>
<path d="M2150 159 c0 -5 5 -7 10 -4 6 3 10 8 10 11 0 2 -4 4 -10 4 -5 0 -10
-5 -10 -11z"/>
<path d="M128 403 c12 -2 30 -2 40 0 9 3 -1 5 -23 4 -22 0 -30 -2 -17 -4z"/>
<path d="M837 356 c6 -56 6 -56 -33 -56 -54 0 -439 28 -549 40 -49 5 -100 10
-112 10 -17 0 -21 4 -17 18 5 15 4 15 -9 -1 -9 -11 -14 -24 -11 -31 6 -15 13
-77 16 -133 2 -45 28 -59 56 -31 8 8 15 8 26 -1 11 -9 16 -9 21 0 6 8 10 7 16
-2 7 -12 9 -12 9 0 0 7 6 11 15 7 8 -3 63 -7 122 -10 66 -3 94 -1 73 3 -35 8
-35 8 -2 10 25 1 32 5 32 21 0 16 -6 20 -32 19 -18 -1 -25 -3 -15 -6 27 -7 20
-26 -8 -21 -14 3 -23 1 -22 -6 2 -13 -36 -8 -41 5 -2 5 -8 9 -13 9 -6 0 -7 -5
-3 -12 5 -8 0 -9 -17 -5 -13 4 -31 7 -39 7 -13 0 -13 1 0 11 12 8 7 9 -17 6
-27 -3 -33 0 -33 15 0 12 -7 18 -22 18 -21 -1 -21 -2 -5 -11 21 -12 22 -26 1
-26 -8 0 -25 14 -36 30 -21 30 -21 30 43 23 35 -3 125 -11 199 -16 74 -6 145
-15 158 -20 12 -5 22 -6 22 -1 0 5 21 8 47 7 52 -1 72 20 21 22 -18 1 -46 4
-63 8 -16 3 -40 2 -52 -3 -39 -14 -254 5 -277 25 -11 9 -16 11 -12 4 6 -10 0
-10 -22 2 -42 22 -89 21 -95 -1 -3 -10 -5 -3 -6 16 -1 26 2 31 12 23 6 -6 46
-13 87 -16 50 -4 68 -3 55 3 -28 13 -5 14 104 1 47 -5 125 -12 174 -16 48 -3
85 -10 82 -15 -4 -5 1 -6 9 -3 9 3 16 1 16 -5 0 -6 13 -10 30 -9 17 1 30 5 30
9 0 10 58 5 69 -6 6 -6 12 -31 13 -55 3 -45 3 -45 -87 -43 -49 1 -84 -1 -77
-4 6 -2 10 -8 8 -12 -3 -4 3 -7 12 -8 112 -6 172 -25 172 -54 0 -11 -71 -11
-180 0 -47 5 -138 12 -204 15 -65 4 -121 8 -125 10 -4 3 -38 7 -76 11 -39 4
-99 10 -135 13 -64 7 -65 7 -102 -28 -35 -33 -55 -67 -24 -41 11 9 15 8 20 -4
3 -9 2 -14 -3 -11 -5 3 -14 0 -20 -8 -9 -11 -6 -13 21 -10 18 1 35 4 38 5 3 1
9 1 13 0 5 -1 6 3 3 8 -3 5 1 14 9 21 8 7 15 21 15 32 0 11 5 16 11 13 6 -4 8
-13 5 -21 -4 -10 2 -13 19 -12 14 1 25 9 25 16 0 11 15 13 78 8 42 -3 89 -6
105 -6 19 0 27 -5 27 -17 0 -10 4 -14 8 -8 9 12 42 13 61 1 10 -6 12 -6 6 3
-5 9 0 12 16 9 13 -2 27 -10 31 -18 6 -13 7 -13 7 1 1 17 38 19 49 2 9 -14
149 -26 154 -13 2 6 29 7 73 3 65 -7 67 -8 30 -14 -40 -6 -40 -6 3 -8 23 0 42
4 42 9 0 6 17 9 38 9 30 -2 32 -3 10 -6 -16 -2 -28 -9 -28 -14 0 -11 57 -12
62 -1 2 4 42 6 91 4 50 -2 85 -7 82 -13 -4 -5 -1 -9 4 -9 6 0 11 6 11 13 0 9
2 9 9 -1 7 -11 10 -10 15 3 9 23 8 24 -13 18 -15 -4 -208 11 -255 20 -17 3
-28 71 -32 201 -2 66 -8 124 -13 129 -6 6 -8 -9 -4 -47z m-657 -137 c0 -3 -7
-6 -15 -6 -9 0 -15 10 -15 26 0 24 1 24 15 5 8 -10 15 -22 15 -25z m407 24
c-4 -3 -10 -3 -14 0 -3 4 0 7 7 7 7 0 10 -3 7 -7z m40 0 c-4 -3 -10 -3 -14 0
-3 4 0 7 7 7 7 0 10 -3 7 -7z m60 -10 c-4 -3 -10 -3 -14 0 -3 4 0 7 7 7 7 0
10 -3 7 -7z m30 -80 c-4 -3 -10 -3 -14 0 -3 4 0 7 7 7 7 0 10 -3 7 -7z m116
-10 c-7 -2 -21 -2 -30 0 -10 3 -4 5 12 5 17 0 24 -2 18 -5z m-740 -52 c-6 -3
-16 -17 -22 -29 -7 -13 -15 -22 -17 -19 -3 2 5 22 18 42 12 22 24 33 26 25 3
-7 0 -15 -5 -19z m-30 4 c-3 -9 -8 -14 -10 -11 -3 3 -2 9 2 15 9 16 15 13 8
-4z"/>
<path d="M1583 343 c9 -2 25 -2 35 0 9 3 1 5 -18 5 -19 0 -27 -2 -17 -5z"/>
<path d="M2350 310 c0 -5 7 -10 16 -10 8 0 12 5 9 10 -3 6 -10 10 -16 10 -5 0
-9 -4 -9 -10z"/>
<path d="M2400 308 c0 -5 26 -8 58 -9 31 0 67 -2 80 -3 12 -2 22 2 22 8 0 7
-29 11 -80 11 -44 0 -80 -3 -80 -7z"/>
<path d="M1723 285 c-3 -9 -3 -18 -1 -21 3 -3 8 4 11 16 6 23 -1 27 -10 5z"/>
<path d="M573 273 c4 -3 10 -3 14 0 3 4 0 7 -7 7 -7 0 -10 -3 -7 -7z"/>
<path d="M2484 248 c-4 -7 -3 -8 4 -4 12 7 16 16 8 16 -3 0 -8 -5 -12 -12z"/>
<path d="M2522 251 c-11 -6 -10 -10 4 -15 9 -3 19 -4 22 -1 3 3 0 5 -7 5 -7 0
-9 5 -6 10 7 12 4 12 -13 1z"/>
<path d="M798 233 c7 -3 16 -2 19 1 4 3 -2 6 -13 5 -11 0 -14 -3 -6 -6z"/>
<path d="M947 229 c7 -7 15 -10 18 -7 3 3 -2 9 -12 12 -14 6 -15 5 -6 -5z"/>
<path d="M793 213 c4 -3 10 -3 14 0 3 4 0 7 -7 7 -7 0 -10 -3 -7 -7z"/>
<path d="M988 203 c6 -2 18 -2 25 0 6 3 1 5 -13 5 -14 0 -19 -2 -12 -5z"/>
<path d="M1033 203 c4 -3 10 -3 14 0 3 4 0 7 -7 7 -7 0 -10 -3 -7 -7z"/>
<path d="M544 181 c29 -5 52 -14 58 -24 13 -24 47 -22 45 2 0 11 -5 17 -9 15
-5 -3 -6 -10 -3 -15 10 -16 -4 -10 -25 11 -15 15 -32 20 -67 19 -48 -2 -48 -2
1 -8z"/>
<path d="M1033 173 c4 -3 10 -3 14 0 3 4 0 7 -7 7 -7 0 -10 -3 -7 -7z"/>
<path d="M13 163 c4 -3 10 -3 14 0 3 4 0 7 -7 7 -7 0 -10 -3 -7 -7z"/>
<path d="M520 160 c39 -12 59 -12 40 0 -8 5 -26 9 -40 9 -25 -1 -25 -1 0 -9z"/>
<path d="M2504 138 c-4 -7 -3 -8 4 -4 12 7 16 16 8 16 -3 0 -8 -5 -12 -12z"/>
<path d="M993 123 c15 -2 37 -2 50 0 12 2 0 4 -28 4 -27 0 -38 -2 -22 -4z"/>
<path d="M1662 123 c35 -9 7 -33 -41 -35 -38 -1 -40 -2 -11 -5 72 -7 80 -11
80 -44 0 -19 4 -28 11 -23 7 4 9 25 5 58 -3 28 -6 52 -6 54 0 1 -12 1 -27 1
-16 -1 -21 -3 -11 -6z"/>
<path d="M1718 123 c6 -2 18 -2 25 0 6 3 1 5 -13 5 -14 0 -19 -2 -12 -5z"/>
<path d="M1783 123 c4 -3 10 -3 14 0 3 4 0 7 -7 7 -7 0 -10 -3 -7 -7z"/>
<path d="M1083 113 c4 -3 10 -3 14 0 3 4 0 7 -7 7 -7 0 -10 -3 -7 -7z"/>
<path d="M1887 113 c18 -2 50 -2 70 0 21 2 7 4 -32 4 -38 0 -55 -2 -38 -4z"/>
<path d="M1568 103 c6 -2 18 -2 25 0 6 3 1 5 -13 5 -14 0 -19 -2 -12 -5z"/>
<path d="M2033 103 c4 -3 10 -3 14 0 3 4 0 7 -7 7 -7 0 -10 -3 -7 -7z"/>
<path d="M2083 103 c15 -2 39 -2 55 0 15 2 2 4 -28 4 -30 0 -43 -2 -27 -4z"/>
<path d="M210 86 c0 -8 -2 -21 -5 -29 -4 -8 0 -14 8 -14 16 0 20 44 6 53 -5 3
-9 -1 -9 -10z"/>
<path d="M240 90 c0 -7 3 -10 7 -7 3 4 3 10 0 14 -4 3 -7 0 -7 -7z"/>
<path d="M1720 83 c0 -12 3 -14 8 -7 4 7 16 14 27 17 15 4 14 5 -7 6 -21 1
-28 -4 -28 -16z"/>
<path d="M1798 93 c6 -2 18 -2 25 0 6 3 1 5 -13 5 -14 0 -19 -2 -12 -5z"/>
<path d="M2340 90 c0 -7 3 -10 7 -7 3 4 3 10 0 14 -4 3 -7 0 -7 -7z"/>
<path d="M1498 83 c12 -2 32 -2 45 0 12 2 2 4 -23 4 -25 0 -35 -2 -22 -4z"/>
<path d="M1798 73 c7 -3 16 -2 19 1 4 3 -2 6 -13 5 -11 0 -14 -3 -6 -6z"/>
<path d="M130 60 c0 -5 -6 -8 -12 -6 -7 1 -10 1 -5 -1 4 -3 4 -10 0 -16 -3 -6
4 -3 16 5 12 9 32 14 44 11 18 -4 19 -3 7 6 -19 13 -50 14 -50 1z"/>
<path d="M2483 53 c15 -2 39 -2 55 0 15 2 2 4 -28 4 -30 0 -43 -2 -27 -4z"/>
<path d="M753 43 c4 -3 10 -3 14 0 3 4 0 7 -7 7 -7 0 -10 -3 -7 -7z"/>
<path d="M2148 43 c7 -3 16 -2 19 1 4 3 -2 6 -13 5 -11 0 -14 -3 -6 -6z"/>
<path d="M1493 23 c4 -3 10 -3 14 0 3 4 0 7 -7 7 -7 0 -10 -3 -7 -7z"/>
<path d="M20 9 c0 -5 5 -7 10 -4 6 3 10 8 10 11 0 2 -4 4 -10 4 -5 0 -10 -5
-10 -11z"/>
<path d="M50 9 c0 -5 5 -7 10 -4 6 3 10 8 10 11 0 2 -4 4 -10 4 -5 0 -10 -5
-10 -11z"/>
<path d="M95 10 c-3 -5 -1 -10 4 -10 6 0 11 5 11 10 0 6 -2 10 -4 10 -3 0 -8
-4 -11 -10z"/>
<path d="M174 8 c-4 -7 -3 -8 4 -4 7 4 12 9 12 12 0 8 -9 4 -16 -8z"/>
<path d="M2383 3 c4 -3 10 -3 14 0 3 4 0 7 -7 7 -7 0 -10 -3 -7 -7z"/>
</g>
</svg>
