<?xml version="1.0" standalone="no"?>
<!DOCTYPE svg PUBLIC "-//W3C//DTD SVG 20010904//EN"
 "http://www.w3.org/TR/2001/REC-SVG-20010904/DTD/svg10.dtd">
<svg version="1.0" xmlns="http://www.w3.org/2000/svg"
 width="344.000000pt" height="256.000000pt" viewBox="0 0 344.000000 256.000000"
 preserveAspectRatio="xMidYMid meet">
<metadata>
Created by potrace 1.16, written by Peter Selinger 2001-2019
</metadata>
<g transform="translate(0.000000,256.000000) scale(0.100000,-0.100000)"
fill="#000000" stroke="none">
<path d="M3188 2518 c-4 -112 -7 -131 -15 -137 -25 -16 -45 -91 -25 -91 30 -1
34 -19 12 -54 -17 -29 -21 -48 -18 -94 3 -57 3 -57 -42 -58 -69 -2 -80 3 -80
38 0 35 -12 31 -15 -5 -2 -16 -8 -21 -24 -20 -29 4 -18 -15 49 -87 52 -55 52
-55 45 -105 -3 -27 -8 -96 -11 -152 -4 -92 -34 -247 -50 -262 -4 -3 -4 13 -1
37 6 53 -13 57 -32 7 -10 -27 -18 -35 -37 -35 -31 0 -28 20 4 35 19 8 22 17
20 53 -2 50 13 72 37 52 8 -7 15 -8 15 -2 0 5 -7 16 -16 23 -17 14 -16 59 5
259 8 81 6 96 -12 81 -8 -6 -29 -6 -57 -1 -56 11 -260 13 -260 2 0 -4 57 -9
127 -10 141 -4 193 -21 193 -65 0 -31 -15 -53 -25 -37 -5 8 -11 5 -22 -9 -8
-12 -21 -21 -29 -21 -23 0 -16 27 12 49 18 14 22 21 11 21 -8 0 -27 -14 -41
-31 -14 -17 -26 -27 -26 -22 0 4 -4 2 -9 -6 -13 -20 -74 -24 -87 -6 -10 13
-13 12 -18 -9 -3 -13 -21 -37 -39 -53 -58 -51 -51 -56 11 -9 56 43 112 61 112
36 0 -7 7 -7 21 1 15 8 19 8 15 0 -9 -14 7 -14 21 0 18 18 33 1 34 -39 1 -37
1 -37 10 -7 5 17 7 40 4 52 -6 27 9 38 25 18 7 -9 10 -25 5 -42 -3 -15 -9 -57
-11 -93 -4 -49 -12 -77 -34 -112 -16 -27 -25 -48 -20 -48 6 0 10 5 10 10 0 6
7 10 15 10 28 0 15 -17 -30 -41 -25 -13 -45 -30 -45 -36 0 -8 -14 -13 -36 -13
-24 0 -34 4 -31 13 2 6 16 12 30 12 15 -1 27 2 27 6 0 11 -80 27 -174 35 -88
7 -88 7 -82 73 3 42 2 57 -3 41 -5 -14 -9 -43 -10 -65 -1 -22 -7 -49 -15 -60
-14 -21 -27 -75 -18 -75 3 0 10 8 17 17 9 12 26 17 61 16 27 -1 38 1 24 3 -59
11 -70 15 -70 30 0 14 10 15 78 10 125 -11 137 -14 117 -36 -12 -14 -24 -16
-55 -10 -22 4 -40 4 -40 0 0 -10 75 -21 134 -20 85 2 104 -12 99 -73 -9 -96
-15 -111 -54 -118 -34 -6 -34 -6 -1 -8 32 -1 32 -1 32 -83 0 -46 -4 -101 -9
-123 -5 -22 -11 -71 -13 -109 -3 -70 -3 -70 61 -83 36 -7 68 -18 72 -24 17
-28 37 67 54 256 22 247 34 366 40 398 2 15 0 27 -5 27 -6 0 -10 -9 -10 -20 0
-11 -4 -20 -9 -20 -5 0 -11 -13 -13 -30 -3 -16 -1 -30 4 -30 4 0 8 -16 8 -36
0 -19 -4 -33 -9 -29 -6 3 -8 -8 -5 -27 3 -18 -1 -101 -10 -184 -9 -83 -16
-167 -16 -188 0 -20 -7 -50 -15 -65 -14 -28 -14 -28 -72 -17 -68 14 -73 27
-54 151 6 39 13 108 16 155 2 47 9 110 15 139 5 30 10 69 10 88 0 31 1 33 16
19 21 -22 27 -20 14 3 -22 41 6 53 46 21 10 -8 15 -10 11 -4 -4 6 1 26 10 45
14 29 17 31 23 13 7 -17 8 -16 11 6 2 14 9 25 16 25 19 0 21 7 27 80 3 39 10
100 16 137 5 37 7 74 4 82 -7 19 -34 9 -34 -13 -1 -15 -1 -15 -10 0 -16 27 0
116 27 151 25 33 25 33 19 -24 -3 -33 -1 -60 4 -63 6 -3 10 4 10 17 3 164 13
278 27 311 12 29 14 40 5 49 -16 16 -15 43 2 76 15 30 27 202 14 202 -4 0 -9
-19 -10 -42z m-61 -453 c14 -5 -22 -75 -37 -75 -12 0 -69 49 -80 69 -8 16 -3
17 48 14 31 -3 63 -6 69 -8z m-10 -251 c-3 -3 -12 -4 -19 -1 -8 3 -5 6 6 6 11
1 17 -2 13 -5z m-4 -56 c-3 -18 -14 -46 -25 -63 -18 -28 -19 -28 -14 -5 3 14
6 42 6 63 0 30 4 37 20 37 17 0 19 -5 13 -32z m-23 -129 c-14 -33 -20 -38 -20
-21 0 27 31 92 37 76 2 -6 -5 -31 -17 -55z m-99 -122 c-10 -9 -11 -8 -5 6 3
10 9 15 12 12 3 -3 0 -11 -7 -18z m-85 -6 c-3 -5 4 -11 16 -14 12 -4 20 -9 16
-12 -3 -3 -17 0 -32 6 -19 9 -23 15 -14 21 17 10 20 10 14 -1z"/>
<path d="M319 2528 c0 -7 1 -92 2 -188 1 -96 2 -237 1 -312 -1 -128 1 -138 18
-138 10 0 20 4 22 10 6 20 67 25 248 20 212 -6 206 -8 -50 -16 -102 -3 -187
-8 -189 -10 -2 -2 104 -4 237 -4 242 0 242 0 244 178 5 398 16 354 -92 374
-282 55 -407 81 -422 89 -13 7 -18 6 -19 -3z m50 -46 c6 -11 22 -18 43 -19 33
-1 33 -1 1 9 -18 6 -33 15 -33 21 0 10 33 5 135 -18 33 -7 116 -23 185 -35 73
-13 131 -29 140 -38 13 -13 13 -14 0 -6 -8 4 -21 9 -30 9 -8 1 -33 5 -55 9
-29 5 -36 4 -25 -3 8 -6 22 -11 30 -11 39 0 90 -22 90 -38 0 -14 -2 -14 -9 -3
-5 8 -16 11 -24 8 -8 -3 -20 0 -27 6 -7 7 -4 -1 6 -18 25 -41 28 -44 20 -17
-5 13 -3 22 3 22 6 0 13 -11 17 -25 7 -29 -3 -385 -11 -394 -3 -3 -107 -6
-231 -7 -137 -1 -229 -6 -237 -12 -9 -8 -13 49 -14 275 -2 156 -5 289 -8 294
-4 5 1 9 9 9 8 0 20 -8 25 -18z"/>
<path d="M550 2440 c139 -28 172 -33 140 -19 -14 6 -38 12 -55 15 -16 2 -39 5
-50 8 -11 2 -45 6 -75 9 -35 4 -20 -1 40 -13z"/>
<path d="M364 2414 c-3 -19 -2 -54 3 -77 8 -38 9 -35 9 36 -1 87 -2 92 -12 41z"/>
<path d="M563 2413 c4 -3 10 -3 14 0 3 4 0 7 -7 7 -7 0 -10 -3 -7 -7z"/>
<path d="M593 2403 c4 -3 10 -3 14 0 3 4 0 7 -7 7 -7 0 -10 -3 -7 -7z"/>
<path d="M627 2399 c7 -7 15 -10 18 -7 3 3 -2 9 -12 12 -14 6 -15 5 -6 -5z"/>
<path d="M670 2361 c0 -6 4 -12 10 -16 5 -3 6 -13 3 -22 -4 -10 -2 -14 4 -10
5 4 15 -21 23 -59 15 -71 45 -130 33 -64 -3 19 -14 59 -24 88 -16 46 -16 52
-2 52 11 0 8 6 -10 20 -28 22 -37 25 -37 11z"/>
<path d="M571 2325 c0 -11 4 -27 9 -35 13 -20 13 5 0 35 -9 20 -9 20 -9 0z"/>
<path d="M769 2311 c20 -15 23 -27 25 -84 2 -90 21 -87 21 4 0 65 -2 72 -25
84 -36 20 -49 18 -21 -4z"/>
<path d="M506 2285 c4 -11 29 -41 56 -67 49 -49 78 -67 41 -25 -84 92 -103
110 -97 92z"/>
<path d="M669 2262 c-3 -20 -2 -29 4 -23 5 5 7 19 5 32 -3 20 -5 19 -9 -9z"/>
<path d="M361 2259 c-1 -35 18 -90 40 -115 11 -11 19 -26 19 -32 0 -7 5 -12
10 -12 6 0 -4 28 -21 63 -18 34 -36 76 -40 92 -7 29 -7 29 -8 4z"/>
<path d="M490 2230 c0 -7 3 -10 7 -7 3 4 3 10 0 14 -4 3 -7 0 -7 -7z"/>
<path d="M640 2213 c0 -12 -9 -42 -20 -68 -11 -26 -20 -55 -20 -64 0 -10 -9
-26 -20 -36 -11 -10 -17 -22 -14 -27 9 -15 53 52 60 91 10 60 13 68 24 51 7
-11 10 -7 10 15 0 17 -5 37 -10 45 -8 12 -10 11 -10 -7z"/>
<path d="M685 2220 c3 -5 8 -10 11 -10 3 0 2 5 -1 10 -3 6 -8 10 -11 10 -3 0
-2 -4 1 -10z"/>
<path d="M491 2183 c7 -10 15 -20 16 -22 2 -2 3 3 3 11 0 9 -7 19 -16 22 -15
6 -15 4 -3 -11z"/>
<path d="M764 2156 c3 -16 8 -31 11 -34 9 -10 5 33 -5 48 -8 11 -9 8 -6 -14z"/>
<path d="M350 2169 c0 -3 7 -29 15 -57 12 -38 13 -57 5 -71 -5 -11 -9 -32 -9
-48 1 -20 3 -22 6 -8 2 11 9 32 15 47 12 31 3 98 -17 125 -8 10 -15 15 -15 12z"/>
<path d="M554 2115 c1 -24 4 -31 12 -24 7 5 10 19 7 30 -9 33 -19 30 -19 -6z"/>
<path d="M480 2103 c0 -43 5 -41 13 5 4 18 2 32 -3 32 -6 0 -10 -16 -10 -37z"/>
<path d="M740 2130 c0 -5 5 -10 10 -10 6 0 10 5 10 10 0 6 -4 10 -10 10 -5 0
-10 -4 -10 -10z"/>
<path d="M650 2111 c0 -5 7 -15 17 -22 15 -13 15 -12 4 9 -12 23 -21 28 -21
13z"/>
<path d="M780 2093 c0 -10 7 -27 15 -37 14 -19 15 -18 15 17 0 26 -4 37 -15
37 -8 0 -15 -8 -15 -17z"/>
<path d="M537 2040 c-3 -11 -1 -20 4 -20 5 0 9 9 9 20 0 11 -2 20 -4 20 -2 0
-6 -9 -9 -20z"/>
<path d="M690 2050 c0 -7 3 -10 7 -7 3 4 3 10 0 14 -4 3 -7 0 -7 -7z"/>
<path d="M770 2020 c0 -6 7 -13 15 -16 8 -4 15 -10 15 -15 0 -4 -7 -6 -15 -3
-8 4 -15 1 -15 -5 0 -6 2 -11 4 -11 2 0 11 -3 20 -6 24 -9 21 38 -4 54 -13 7
-20 8 -20 2z"/>
<path d="M613 2013 c4 -3 10 -3 14 0 3 4 0 7 -7 7 -7 0 -10 -3 -7 -7z"/>
<path d="M690 2010 c0 -7 3 -10 7 -7 3 4 3 10 0 14 -4 3 -7 0 -7 -7z"/>
<path d="M473 1985 c-15 -13 -23 -25 -17 -25 6 0 21 11 34 25 30 32 19 32 -17
0z"/>
<path d="M530 1994 c0 -8 5 -12 10 -9 6 3 10 10 10 16 0 5 -4 9 -10 9 -5 0
-10 -7 -10 -16z"/>
<path d="M750 1990 c0 -7 3 -10 7 -7 3 4 3 10 0 14 -4 3 -7 0 -7 -7z"/>
<path d="M3015 2518 c-11 -7 -90 -13 -195 -16 -175 -5 -175 -5 -177 -146 -1
-160 4 -155 15 14 7 115 7 115 192 121 102 4 186 6 187 5 1 -1 -2 -33 -7 -71
-5 -39 -10 -107 -12 -152 -3 -76 -9 -96 -22 -75 -3 5 -26 9 -53 10 -48 1 -48
1 6 -14 30 -8 60 -19 66 -24 9 -8 14 24 18 128 4 75 10 158 13 185 7 49 2 54
-31 35z"/>
<path d="M2428 2512 c10 -7 12 -31 8 -98 -4 -72 -3 -81 5 -49 14 58 8 147 -11
152 -12 4 -12 2 -2 -5z"/>
<path d="M2118 2503 c7 -3 16 -2 19 1 4 3 -2 6 -13 5 -11 0 -14 -3 -6 -6z"/>
<path d="M2150 2501 c0 -5 -9 -11 -20 -14 -18 -4 -20 -13 -19 -69 1 -63 1 -63
9 -12 11 76 8 74 136 74 95 0 114 3 114 15 0 12 -19 15 -110 15 -60 0 -110 -4
-110 -9z m128 -8 c-21 -2 -55 -2 -75 0 -21 2 -4 4 37 4 41 0 58 -2 38 -4z"/>
<path d="M1712 2348 c-15 -15 -16 -45 -2 -53 6 -4 11 -65 12 -143 2 -137 2
-137 5 -24 2 62 7 111 12 108 4 -3 6 19 3 49 -2 30 -3 55 -1 55 36 -2 94 -31
92 -46 -1 -11 0 -13 3 -6 3 6 10 9 16 6 6 -4 9 -1 6 7 -2 8 -31 24 -64 36 -71
26 -67 26 -82 11z"/>
<path d="M2110 2330 c0 -7 3 -10 7 -7 3 4 3 10 0 14 -4 3 -7 0 -7 -7z"/>
<path d="M1760 2288 c0 -9 13 -21 32 -27 39 -14 51 -5 12 9 -16 6 -32 17 -36
23 -5 8 -8 7 -8 -5z"/>
<path d="M1850 2270 c0 -7 3 -10 7 -7 3 4 3 10 0 14 -4 3 -7 0 -7 -7z"/>
<path d="M2122 2220 c0 -14 2 -19 5 -12 2 6 2 18 0 25 -3 6 -5 1 -5 -13z"/>
<path d="M2743 2223 c-13 -2 -23 -9 -23 -14 0 -12 10 -11 40 6 25 15 23 16
-17 8z"/>
<path d="M1765 2212 c6 -5 21 -13 35 -17 17 -5 22 -4 15 3 -5 5 -21 13 -35 17
-17 5 -22 4 -15 -3z"/>
<path d="M2808 2213 c7 -3 16 -2 19 1 4 3 -2 6 -13 5 -11 0 -14 -3 -6 -6z"/>
<path d="M2642 2185 c0 -16 2 -22 5 -12 2 9 2 23 0 30 -3 6 -5 -1 -5 -18z"/>
<path d="M3363 2143 c-63 -4 -63 -4 -63 -56 0 -29 -3 -82 -7 -119 -6 -68 -6
-68 68 -66 74 1 74 1 10 7 -65 6 -65 6 -63 66 5 113 12 147 30 133 13 -11 14
-11 7 1 -6 10 -4 13 6 9 45 -17 61 -20 55 -9 -4 6 -2 11 3 11 6 0 11 -8 12
-17 0 -15 2 -15 9 2 11 26 12 46 3 43 -5 -1 -36 -3 -70 -5z"/>
<path d="M2850 2130 c0 -7 3 -10 7 -7 3 4 3 10 0 14 -4 3 -7 0 -7 -7z"/>
<path d="M2890 2121 c0 -5 7 -14 15 -21 16 -14 18 -10 9 14 -6 17 -24 22 -24
7z"/>
<path d="M2410 2090 c0 -7 3 -10 7 -7 3 4 3 10 0 14 -4 3 -7 0 -7 -7z"/>
<path d="M2790 2096 c0 -3 9 -23 20 -43 12 -24 20 -31 20 -19 0 10 -9 29 -20
43 -11 14 -20 23 -20 19z"/>
<path d="M2091 2055 c0 -26 2 -35 8 -26 6 9 11 10 15 2 4 -6 12 -11 18 -11 6
0 2 8 -9 18 -11 9 -23 26 -26 37 -2 11 -5 2 -6 -20z"/>
<path d="M2326 2068 c-27 -89 -38 -188 -22 -188 6 0 12 10 12 23 1 83 4 99 20
93 13 -5 14 -2 8 11 -4 10 -8 30 -8 46 -1 29 -4 34 -10 15z"/>
<path d="M2849 2069 c-12 -7 -12 -9 2 -9 9 0 21 -10 27 -22 6 -14 11 -17 11
-8 1 26 -23 50 -40 39z"/>
<path d="M2177 2050 c-5 -14 -10 -48 -12 -77 -1 -28 -6 -56 -10 -62 -9 -15
-45 5 -45 24 0 21 -15 19 -18 -2 -1 -10 -7 -70 -13 -133 -13 -139 -17 -162
-28 -155 -5 2 -11 -2 -15 -10 -3 -9 0 -15 9 -15 8 0 15 -4 15 -10 0 -5 7 -7
15 -4 8 4 23 0 32 -7 14 -12 15 -12 9 -1 -6 10 -3 13 10 10 45 -8 17 -78 -31
-78 -27 0 -38 13 -39 48 -1 38 -26 40 -26 3 0 -17 -1 -34 -2 -38 -4 -12 86
-27 114 -20 53 14 25 104 -33 109 -23 2 -24 5 -24 75 0 68 13 106 16 46 2 -26
2 -26 6 -4 3 13 0 28 -6 34 -6 6 -11 27 -11 47 0 26 3 31 10 20 6 -9 10 -10
10 -3 0 6 -4 15 -10 18 -13 8 -13 35 1 35 5 0 19 -20 30 -45 24 -55 43 -60 24
-6 -7 22 -12 41 -10 43 10 9 83 -5 80 -15 -2 -7 -6 -53 -9 -103 -5 -88 -5 -93
22 -127 30 -40 39 -45 39 -22 0 8 -5 15 -11 15 -6 0 -5 4 3 9 12 8 51 4 51 -6
0 -2 -5 -13 -11 -25 -15 -29 -3 -66 23 -70 15 -2 25 -15 35 -45 8 -23 22 -44
31 -47 36 -10 97 -17 91 -12 -3 4 -26 10 -50 14 -44 8 -44 8 -41 100 3 82 2
93 -15 99 -10 3 -21 11 -24 16 -4 5 -15 5 -27 -2 -24 -13 -30 -6 -28 29 1 20
6 24 26 22 13 -1 21 0 17 4 -3 4 -20 8 -36 10 -29 3 -30 2 -27 -26 4 -34 -15
-55 -40 -46 -15 6 -16 19 -11 107 6 109 10 122 31 94 9 -12 27 -18 57 -19 44
-1 44 -1 45 44 1 25 0 35 -3 22 -2 -12 -8 -20 -13 -17 -5 3 -11 1 -15 -5 -3
-5 1 -10 9 -10 9 0 16 -6 16 -14 0 -21 -56 -10 -99 20 -20 13 -49 24 -64 24
-26 0 -29 3 -23 23 3 12 6 30 6 39 0 9 7 24 16 32 8 9 11 16 5 16 -5 0 -11 12
-13 28 -3 27 -3 27 -11 2z m196 -403 c12 -8 16 -21 13 -37 -2 -14 -5 -38 -6
-55 -1 -29 -1 -29 -16 -10 -8 11 -20 20 -27 20 -8 0 -12 17 -12 48 0 50 13 60
48 34z"/>
<path d="M2350 1640 c0 -7 3 -10 7 -7 3 4 3 10 0 14 -4 3 -7 0 -7 -7z"/>
<path d="M2350 1590 c0 -7 3 -10 7 -7 3 4 3 10 0 14 -4 3 -7 0 -7 -7z"/>
<path d="M2626 2034 c-4 -9 -5 -17 -4 -18 2 -1 14 -10 27 -21 14 -11 21 -14
17 -7 -4 6 -13 23 -20 37 -12 22 -15 23 -20 9z"/>
<path d="M2937 2029 c4 -13 8 -18 11 -10 2 7 -1 18 -6 23 -8 8 -9 4 -5 -13z"/>
<path d="M1754 2032 c-17 -11 -13 -44 8 -71 10 -13 18 -32 18 -43 0 -11 5 -16
10 -13 6 3 23 -4 38 -16 17 -14 20 -20 8 -15 -14 5 -17 3 -12 -10 3 -8 6 -18
6 -20 0 -3 5 -2 10 1 6 3 10 1 10 -6 0 -8 4 -8 15 1 9 7 14 19 11 27 -4 9 3
13 20 13 28 0 59 -24 50 -39 -3 -5 0 -11 8 -14 7 -3 16 -15 19 -26 3 -12 2
-19 -3 -16 -4 3 -19 -4 -31 -15 -13 -11 -19 -19 -13 -20 5 0 15 5 22 12 9 9
12 -5 12 -66 0 -76 0 -77 -22 -70 -13 4 -26 12 -30 18 -5 6 -8 2 -8 -11 0 -12
8 -27 18 -32 9 -6 12 -11 5 -11 -10 0 1 -54 32 -157 4 -13 3 -23 -3 -23 -5 0
-9 -7 -8 -16 0 -9 -10 -23 -24 -32 -20 -14 -22 -14 -15 -2 5 8 8 25 7 37 -2
12 1 37 6 56 9 31 7 36 -13 45 -21 10 -22 14 -14 57 7 37 5 51 -8 72 -19 29
-30 15 -13 -17 13 -25 3 -110 -14 -110 -7 0 -10 21 -8 65 3 54 1 65 -12 65 -9
0 -16 -8 -16 -21 0 -11 5 -17 10 -14 16 10 12 -71 -4 -84 -14 -12 -27 -111
-14 -111 4 0 12 -9 18 -20 10 -19 8 -20 -69 -20 -79 0 -79 0 -95 40 -11 29
-14 53 -9 83 4 23 6 45 5 50 -1 4 2 7 7 7 4 0 9 -28 10 -62 3 -112 32 -84 44
43 1 18 37 3 37 -16 0 -5 7 0 15 12 12 17 13 38 8 100 -7 80 -19 69 -22 -20 0
-21 -5 -36 -10 -33 -8 6 -5 301 4 358 3 20 1 26 -9 22 -8 -3 -11 -15 -8 -30 2
-13 0 -24 -5 -24 -5 0 -9 -61 -8 -136 0 -171 5 -166 -153 -162 -61 2 -112 0
-112 -4 0 -8 75 -12 133 -8 15 1 27 -3 27 -9 0 -8 -57 -11 -177 -11 -97 0
-174 -3 -170 -6 3 -3 80 -6 171 -5 103 0 168 -4 172 -10 4 -7 -58 -9 -193 -7
-124 2 -197 7 -196 13 1 10 -16 25 -29 25 -3 0 1 -18 9 -40 17 -42 30 -50 39
-25 15 39 57 0 75 -70 9 -36 35 -128 45 -164 3 -8 6 -12 9 -10 3 4 -41 179
-62 243 -6 17 -1 18 65 12 39 -4 114 -7 167 -7 95 0 95 0 95 -45 0 -25 7 -60
14 -79 15 -34 16 -35 78 -37 82 -2 138 2 138 10 0 2 -10 18 -22 35 -43 61 -25
110 33 92 30 -10 21 -111 -11 -137 -20 -16 -57 -114 -39 -102 5 3 9 12 9 20 0
8 16 24 35 35 19 12 35 25 35 29 0 5 10 12 23 16 12 4 25 11 29 17 12 19 19
-36 11 -78 -7 -34 -15 -43 -51 -59 -59 -27 -53 -39 7 -14 55 23 62 41 55 128
-8 88 -9 428 -1 423 16 -10 6 32 -19 78 -24 44 -30 48 -68 51 -36 3 -42 6 -47
33 -5 21 -7 23 -8 9 -1 -17 -6 -20 -26 -16 -14 2 -25 9 -25 14 0 5 6 6 13 2 6
-4 -1 7 -17 24 -22 24 -27 37 -22 56 7 28 6 29 -10 18z m209 -442 c3 -11 1
-20 -4 -20 -5 0 -9 9 -9 20 0 11 2 20 4 20 2 0 6 -9 9 -20z m-238 -20 c3 -5
-9 -8 -29 -6 -22 1 -37 -3 -40 -11 -7 -17 -26 -17 -26 1 0 22 82 36 95 16z
m228 -25 c4 -8 2 -17 -3 -20 -6 -4 -10 3 -10 14 0 25 6 27 13 6z m-256 -77
c-2 -13 -4 -5 -4 17 -1 22 1 32 4 23 2 -10 2 -28 0 -40z m260 25 c-4 -3 -7 0
-7 7 0 7 3 10 7 7 3 -4 3 -10 0 -14z m-60 -170 c-4 -3 -10 -3 -14 0 -3 4 0 7
7 7 7 0 10 -3 7 -7z"/>
<path d="M2360 2011 c0 -5 11 -8 25 -5 14 2 25 0 25 -6 0 -6 5 -8 11 -4 8 4 7
9 -2 15 -19 12 -59 11 -59 0z"/>
<path d="M1709 2008 c-8 -15 -4 -48 6 -48 8 0 10 9 7 25 -4 22 -9 31 -13 23z"/>
<path d="M13 1983 c9 -2 25 -2 35 0 9 3 1 5 -18 5 -19 0 -27 -2 -17 -5z"/>
<path d="M1810 1980 c0 -7 3 -10 7 -7 3 4 3 10 0 14 -4 3 -7 0 -7 -7z"/>
<path d="M2610 1980 c0 -7 3 -10 7 -7 3 4 3 10 0 14 -4 3 -7 0 -7 -7z"/>
<path d="M73 1973 c4 -3 10 -3 14 0 3 4 0 7 -7 7 -7 0 -10 -3 -7 -7z"/>
<path d="M110 1970 c0 -5 5 -10 11 -10 5 0 7 5 4 10 -3 6 -8 10 -11 10 -2 0
-4 -4 -4 -10z"/>
<path d="M2768 1973 c6 -2 18 -2 25 0 6 3 1 5 -13 5 -14 0 -19 -2 -12 -5z"/>
<path d="M3322 1955 c0 -16 2 -22 5 -12 2 9 2 23 0 30 -3 6 -5 -1 -5 -18z"/>
<path d="M2361 1954 c0 -11 3 -14 6 -6 3 7 2 16 -1 19 -3 4 -6 -2 -5 -13z"/>
<path d="M2933 1963 c4 -3 10 -3 14 0 3 4 0 7 -7 7 -7 0 -10 -3 -7 -7z"/>
<path d="M11 1951 c8 -5 39 -11 68 -12 135 -6 142 -12 178 -150 18 -68 32
-126 33 -128 1 -10 -262 8 -275 19 -12 10 -15 9 -15 -8 0 -18 9 -20 119 -27
102 -6 181 -2 181 10 0 8 -43 185 -56 231 -15 51 -15 51 -77 58 -160 17 -172
17 -156 7z"/>
<path d="M2724 1897 c-32 -34 -48 -53 -34 -42 14 10 38 32 54 49 18 20 30 27
33 19 7 -20 23 -15 23 6 0 37 -17 30 -76 -32z"/>
<path d="M1155 1937 c-3 -6 -6 -87 -7 -180 -3 -167 -3 -167 57 -167 33 -1 99
-3 146 -6 58 -4 89 -2 93 5 5 8 -35 11 -138 11 -146 0 -146 0 -146 100 0 55 4
100 9 100 4 0 11 23 14 50 8 71 6 69 120 65 183 -6 398 -7 405 -1 3 4 0 12 -7
19 -18 18 -540 22 -546 4z m42 -3 c-3 -3 -12 -4 -19 -1 -8 3 -5 6 6 6 11 1 17
-2 13 -5z m216 -1 c-29 -2 -78 -2 -110 0 -32 2 -8 3 52 3 61 0 87 -1 58 -3z
m104 1 c-3 -3 -12 -4 -19 -1 -8 3 -5 6 6 6 11 1 17 -2 13 -5z m162 -10 c2 -2
-17 -4 -42 -4 -26 0 -47 4 -47 9 0 8 79 3 89 -5z m-106 -1 c-7 -2 -19 -2 -25
0 -7 3 -2 5 12 5 14 0 19 -2 13 -5z"/>
<path d="M4 1810 c0 -58 1 -81 3 -52 2 28 2 76 0 105 -2 28 -3 5 -3 -53z"/>
<path d="M2390 1890 c0 -7 3 -10 7 -7 3 4 3 10 0 14 -4 3 -7 0 -7 -7z"/>
<path d="M1770 1796 c0 -111 8 -128 11 -23 2 67 15 91 21 40 2 -14 9 -29 17
-31 8 -3 11 0 7 7 -4 6 -2 11 4 11 8 0 7 5 -2 15 -24 26 -34 40 -46 60 -9 16
-11 1 -12 -79z"/>
<path d="M1892 1858 c2 -6 10 -14 16 -16 7 -2 10 2 6 12 -7 18 -28 22 -22 4z"/>
<path d="M2300 1820 c0 -7 3 -10 7 -7 3 4 3 10 0 14 -4 3 -7 0 -7 -7z"/>
<path d="M2333 1809 c2 -13 9 -25 15 -27 6 -2 8 5 5 18 -8 29 -24 36 -20 9z"/>
<path d="M1855 1810 c3 -5 8 -10 11 -10 2 0 4 5 4 10 0 6 -5 10 -11 10 -5 0
-7 -4 -4 -10z"/>
<path d="M1932 1811 c-10 -6 -9 -10 7 -14 14 -3 21 0 21 9 0 16 -9 18 -28 5z"/>
<path d="M2280 1796 c0 -10 8 -16 22 -16 12 0 19 1 17 3 -2 1 -12 9 -21 16
-15 12 -18 11 -18 -3z"/>
<path d="M1170 1780 c0 -7 3 -10 7 -7 3 4 3 10 0 14 -4 3 -7 0 -7 -7z"/>
<path d="M1828 1773 c-27 -7 -10 -31 18 -25 13 2 24 8 24 12 0 11 -21 17 -42
13z"/>
<path d="M1891 1766 c-8 -10 -8 -16 3 -25 11 -9 14 -7 14 14 0 29 -2 30 -17
11z"/>
<path d="M2346 1755 c4 -8 8 -15 10 -15 2 0 4 7 4 15 0 8 -4 15 -10 15 -5 0
-7 -7 -4 -15z"/>
<path d="M2602 1730 c0 -19 2 -27 5 -17 2 9 2 25 0 35 -3 9 -5 1 -5 -18z"/>
<path d="M2657 1753 c-4 -3 -7 -11 -7 -17 0 -6 5 -5 12 2 6 6 9 14 7 17 -3 3
-9 2 -12 -2z"/>
<path d="M2390 1740 c0 -7 3 -10 7 -7 3 4 3 10 0 14 -4 3 -7 0 -7 -7z"/>
<path d="M2377 1696 c10 -11 18 -22 19 -24 1 -1 4 6 7 17 3 14 -1 20 -20 24
-23 4 -23 4 -6 -17z"/>
<path d="M1820 1670 c0 -7 3 -10 7 -7 3 4 3 10 0 14 -4 3 -7 0 -7 -7z"/>
<path d="M76 1615 c4 -9 19 -15 37 -15 29 0 30 1 11 15 -26 19 -55 20 -48 0z"/>
<path d="M2621 1614 c0 -11 3 -14 6 -6 3 7 2 16 -1 19 -3 4 -6 -2 -5 -13z"/>
<path d="M2130 1580 c0 -7 3 -10 7 -7 3 4 3 10 0 14 -4 3 -7 0 -7 -7z"/>
<path d="M45 1560 c-8 -13 5 -80 15 -80 4 0 10 -6 13 -13 3 -9 -6 -11 -34 -9
-24 3 -39 0 -39 -7 0 -6 13 -11 29 -11 16 0 34 -7 41 -15 7 -8 17 -15 22 -15
6 0 5 7 -2 15 -8 9 -9 15 -2 15 6 0 14 -4 17 -10 3 -5 18 -11 33 -11 23 -2 23
-2 5 -6 -16 -3 -21 -11 -21 -32 1 -23 5 -27 19 -24 16 4 19 0 19 -26 0 -25 -4
-31 -22 -32 -97 -4 -148 -13 -137 -24 5 -5 196 11 234 19 11 3 26 5 33 5 17 1
15 21 -3 35 -12 8 -1 10 47 8 70 -4 77 4 10 11 -23 2 -44 6 -45 8 -2 2 -8 18
-15 34 -11 26 -10 28 1 13 29 -37 53 -16 31 27 -8 16 -13 34 -10 40 8 23 -47
9 -74 -19 -28 -27 -30 -28 -71 -14 -36 12 -40 16 -27 28 8 8 17 24 20 35 3 11
9 28 13 37 6 15 2 18 -32 16 -22 0 -45 2 -51 6 -6 3 -13 2 -17 -4z m75 -30 c0
-5 -7 -7 -15 -4 -8 4 -15 8 -15 10 0 2 7 4 15 4 8 0 15 -4 15 -10z m140 -80
c-19 -13 -30 -13 -30 0 0 6 10 10 23 10 18 0 19 -2 7 -10z m-50 -123 c0 -11
-4 -15 -11 -11 -6 3 -15 1 -19 -6 -5 -7 -7 -3 -7 13 0 19 4 25 18 24 11 -1 19
-9 19 -20z"/>
<path d="M986 1525 c-46 -22 -51 -23 -98 -8 -45 13 -52 13 -74 -2 -41 -27
-194 -47 -267 -35 -81 13 -83 13 -102 -7 -9 -9 -39 -18 -66 -21 -27 -2 -52 -9
-55 -14 -3 -5 5 -6 18 -3 44 10 143 10 148 0 3 -6 -22 -14 -58 -18 -34 -5 -60
-12 -57 -17 4 -7 58 0 122 15 30 7 85 -41 58 -51 -9 -4 -20 -2 -24 3 -9 14
-60 22 -67 11 -4 -5 -22 -7 -41 -3 -22 4 -33 3 -29 -4 3 -5 0 -12 -6 -15 -7
-3 2 -4 21 -2 34 3 34 3 0 -25 -19 -16 -37 -29 -41 -29 -5 0 -8 -5 -8 -11 0
-6 14 1 31 15 32 27 56 35 43 14 -5 -8 0 -9 16 -5 12 3 46 -3 76 -14 30 -11
62 -18 72 -16 10 3 7 5 -10 6 -30 1 -45 16 -26 25 7 4 2 4 -11 2 -27 -6 -104
35 -82 42 7 2 17 0 22 -5 7 -7 29 -7 60 -1 36 7 55 6 65 -3 12 -10 13 -9 8 5
-3 9 -10 16 -15 16 -10 0 -59 70 -59 84 0 6 6 3 13 -6 19 -24 102 -31 144 -11
21 10 62 17 106 17 70 1 70 1 99 -98 28 -101 46 -140 33 -76 -3 19 -13 56 -21
82 -9 26 -16 63 -17 81 -2 34 -2 34 -72 30 -70 -5 -70 -5 -37 16 34 22 67 27
76 12 3 -5 15 -7 26 -4 11 3 20 1 20 -5 0 -11 46 4 99 32 34 18 34 18 75 -11
22 -16 49 -44 59 -63 12 -25 16 -28 11 -10 -10 39 -32 69 -67 90 -40 25 -50
24 -111 -5z m-472 -64 c3 -4 -6 -6 -19 -3 -14 2 -25 6 -25 8 0 8 39 4 44 -5z
m188 2 c-6 -2 -10 -8 -7 -12 2 -4 -16 -7 -40 -7 -79 2 -47 18 45 24 10 0 11
-1 2 -5z m-159 -37 c4 -10 1 -13 -9 -9 -7 3 -14 9 -14 14 0 14 17 10 23 -5z
m-23 -60 c0 -11 -19 -15 -25 -6 -3 5 1 10 9 10 9 0 16 -2 16 -4z"/>
<path d="M2180 1542 c0 -5 28 -10 62 -11 35 -1 60 0 58 2 -10 9 -120 17 -120
9z"/>
<path d="M2145 1489 c-4 -5 -11 -7 -16 -4 -5 4 -9 -4 -9 -17 1 -21 2 -22 14
-5 7 9 20 17 29 17 23 0 29 16 7 17 -11 1 -22 -3 -25 -8z"/>
<path d="M2413 1483 c4 -3 10 -3 14 0 3 4 0 7 -7 7 -7 0 -10 -3 -7 -7z"/>
<path d="M2493 1473 c9 -2 25 -2 35 0 9 3 1 5 -18 5 -19 0 -27 -2 -17 -5z"/>
<path d="M2780 1445 c14 -7 27 -11 30 -9 6 7 -22 24 -40 23 -9 0 -5 -6 10 -14z"/>
<path d="M2135 1441 c-3 -6 -9 -52 -12 -101 -5 -79 -4 -90 11 -90 9 0 16 -5
16 -11 0 -10 -30 -9 -69 2 -7 2 -16 -2 -18 -9 -3 -8 1 -10 13 -5 10 4 15 2 11
-3 -3 -6 14 -11 39 -12 49 -2 53 6 23 47 -18 25 -19 34 -10 106 10 80 9 96 -4
76z"/>
<path d="M2527 1437 c17 -7 35 -15 39 -19 4 -5 14 -8 23 -8 9 0 2 9 -17 20
-18 11 -42 20 -55 19 -18 0 -16 -3 10 -12z"/>
<path d="M770 1422 c43 -30 90 -74 90 -85 0 -6 10 -21 22 -34 20 -22 21 -23 2
-24 -46 -2 -101 -19 -61 -19 9 0 17 -5 17 -12 0 -7 6 -5 18 4 9 9 28 14 40 12
13 -2 22 -1 20 3 -35 75 -112 162 -148 168 -25 4 -25 4 0 -13z"/>
<path d="M13 1423 c-18 -7 -16 -33 2 -33 18 0 20 -17 3 -23 -7 -2 -5 -3 4 -2
21 4 33 -11 18 -20 -13 -8 -3 -25 15 -25 11 0 12 6 5 25 -7 19 -6 25 5 25 12
0 14 35 3 45 -8 7 -45 13 -55 8z"/>
<path d="M1120 1420 c0 -7 3 -10 7 -7 3 4 3 10 0 14 -4 3 -7 0 -7 -7z"/>
<path d="M1750 1410 c0 -7 3 -10 7 -7 3 4 3 10 0 14 -4 3 -7 0 -7 -7z"/>
<path d="M2649 1407 c5 -5 21 -7 37 -5 27 3 26 4 -8 9 -22 3 -34 1 -29 -4z"/>
<path d="M2781 1407 c0 -4 -8 -51 -17 -105 -25 -155 -26 -189 -2 -195 14 -4
16 -2 10 6 -5 7 -8 30 -6 52 5 62 13 136 20 176 3 20 4 45 1 55 -3 11 -5 16
-6 11z"/>
<path d="M2723 1393 c4 -3 10 -3 14 0 3 4 0 7 -7 7 -7 0 -10 -3 -7 -7z"/>
<path d="M433 1383 c4 -3 10 -3 14 0 3 4 0 7 -7 7 -7 0 -10 -3 -7 -7z"/>
<path d="M771 1363 c-1 -35 25 -51 66 -40 12 3 10 5 -8 6 -29 1 -44 15 -52 46
-3 13 -5 9 -6 -12z"/>
<path d="M644 1332 c5 -8 0 -11 -15 -9 -12 1 -24 -4 -27 -12 -3 -10 1 -13 15
-9 11 3 28 1 37 -4 10 -6 16 -5 16 2 0 6 5 8 10 5 6 -3 10 -1 10 5 0 7 -8 9
-21 5 -14 -5 -19 -3 -15 3 3 6 1 14 -5 18 -8 4 -9 3 -5 -4z"/>
<path d="M3 1323 c4 -3 10 -3 14 0 3 4 0 7 -7 7 -7 0 -10 -3 -7 -7z"/>
<path d="M1052 1285 c-11 -12 -10 -15 3 -15 8 0 15 7 15 15 0 18 -2 18 -18 0z"/>
<path d="M1940 1279 c7 -11 14 -19 16 -16 7 7 -7 37 -17 37 -6 0 -5 -9 1 -21z"/>
<path d="M280 1275 c-14 -7 -52 -16 -85 -19 -33 -3 -78 -10 -100 -15 -22 -6
-52 -13 -68 -17 -15 -3 -27 -12 -27 -20 0 -14 24 -10 49 10 12 9 13 7 8 -7 -4
-10 -7 -21 -7 -23 0 -2 -7 -4 -15 -4 -12 0 -35 -28 -35 -43 0 -3 18 4 40 14
22 11 53 22 70 25 28 6 29 5 27 -25 -2 -32 -15 -38 -47 -21 -22 12 -83 -26
-89 -55 -3 -18 -2 -18 15 2 30 35 101 43 113 12 6 -15 10 -18 10 -8 1 9 8 22
17 30 10 8 14 25 12 48 -2 31 0 36 17 33 11 -1 40 -5 65 -8 25 -3 103 -17 174
-30 71 -13 138 -24 150 -23 23 1 -273 63 -355 74 -47 7 -60 17 -39 30 6 3 10
1 10 -5 0 -6 3 -9 8 -6 4 2 27 1 50 -4 42 -7 45 -6 62 23 28 45 17 56 -30 32z
m17 -22 c-4 -3 -10 -3 -14 0 -3 4 0 7 7 7 7 0 10 -3 7 -7z m-50 -10 c-4 -3
-10 -3 -14 0 -3 4 0 7 7 7 7 0 10 -3 7 -7z m-87 -29 c0 -8 -4 -12 -10 -9 -5 3
-10 10 -10 16 0 5 5 9 10 9 6 0 10 -7 10 -16z m-40 2 c0 -2 -8 -10 -17 -17
-16 -13 -17 -12 -4 4 13 16 21 21 21 13z m-40 -20 c0 -3 -4 -8 -10 -11 -5 -3
-10 -1 -10 4 0 6 5 11 10 11 6 0 10 -2 10 -4z"/>
<path d="M692 1283 c-16 -6 -5 -23 15 -23 9 0 35 -9 57 -19 55 -27 251 -50
269 -32 9 10 9 11 -3 6 -43 -16 -295 36 -320 66 -3 3 -11 4 -18 2z"/>
<path d="M2712 1260 c0 -19 2 -27 5 -17 2 9 2 25 0 35 -3 9 -5 1 -5 -18z"/>
<path d="M1150 1270 c-55 -7 -55 -7 10 -7 36 -1 76 3 90 7 32 10 -16 10 -100
0z"/>
<path d="M1288 1273 c6 -2 18 -2 25 0 6 3 1 5 -13 5 -14 0 -19 -2 -12 -5z"/>
<path d="M783 1263 c4 -3 10 -3 14 0 3 4 0 7 -7 7 -7 0 -10 -3 -7 -7z"/>
<path d="M455 1220 c-3 -5 -22 -10 -42 -10 -44 0 -40 -7 7 -15 19 -2 55 -9 80
-14 25 -6 56 -10 70 -9 14 0 5 4 -20 9 -25 5 -56 12 -68 15 -16 3 -22 10 -18
19 6 17 0 20 -9 5z"/>
<path d="M1120 1216 c0 -2 9 -6 20 -9 11 -3 18 -1 14 4 -5 9 -34 13 -34 5z"/>
<path d="M2796 1188 c-3 -17 -5 -32 -4 -34 10 -9 72 -7 75 3 3 7 -3 9 -16 6
-12 -3 -21 -1 -21 5 0 6 -3 18 -6 26 -7 17 25 12 37 -7 3 -5 9 1 12 12 4 19 1
21 -33 21 -34 0 -38 -3 -44 -32z"/>
<path d="M776 1187 c3 -10 9 -15 12 -12 3 3 0 11 -7 18 -10 9 -11 8 -5 -6z"/>
<path d="M1743 1177 c-102 -44 -151 -127 -75 -125 15 0 52 -3 82 -7 48 -6 59
-4 83 15 15 12 26 25 23 28 -3 2 -12 -1 -21 -8 -12 -10 -15 -10 -15 1 0 8 -5
6 -13 -6 -12 -15 -22 -17 -63 -11 -27 4 -59 7 -71 7 -58 -1 -1 61 90 98 55 22
55 22 95 2 55 -28 78 -60 54 -77 -14 -10 -12 -11 13 -7 17 3 34 12 38 19 4 8
18 14 30 14 18 0 19 -2 7 -11 -12 -9 -12 -10 -1 -7 38 10 23 31 -17 24 -35 -5
-44 -2 -70 22 -51 46 -60 52 -89 52 -15 -1 -51 -11 -80 -23z"/>
<path d="M2060 1190 c0 -5 5 -10 11 -10 5 0 7 5 4 10 -3 6 -8 10 -11 10 -2 0
-4 -4 -4 -10z"/>
<path d="M2176 1183 c-4 -10 -2 -13 8 -10 8 3 39 0 68 -8 56 -14 220 -35 327
-40 35 -2 76 -9 92 -15 15 -7 36 -10 46 -7 13 3 11 5 -7 6 -14 0 -36 8 -48 17
-16 11 -34 13 -66 9 -26 -4 -59 -2 -79 4 -32 11 -79 17 -202 25 -27 2 -69 11
-92 19 -37 14 -42 14 -47 0z"/>
<path d="M1253 1170 c-18 -4 -33 -5 -33 -3 0 2 -20 -12 -45 -32 -46 -38 -93
-42 -147 -13 -11 5 -18 5 -18 -1 0 -11 17 -17 77 -26 37 -6 49 -2 100 29 70
43 108 46 205 14 70 -24 81 -33 51 -41 -10 -3 0 -3 22 0 22 2 54 0 70 -6 30
-11 30 -11 7 7 -24 19 -24 19 35 40 32 11 69 23 83 25 21 4 20 4 -7 6 -17 0
-52 -8 -78 -19 -55 -24 -113 -24 -175 0 -60 23 -108 30 -147 20z m254 -57 c-4
-3 -10 -3 -14 0 -3 4 0 7 7 7 7 0 10 -3 7 -7z"/>
<path d="M628 1163 c7 -3 16 -2 19 1 4 3 -2 6 -13 5 -11 0 -14 -3 -6 -6z"/>
<path d="M2050 1160 c0 -5 5 -10 11 -10 5 0 7 5 4 10 -3 6 -8 10 -11 10 -2 0
-4 -4 -4 -10z"/>
<path d="M2080 1150 c0 -6 14 -10 30 -10 39 0 39 14 0 17 -17 1 -30 -2 -30 -7z"/>
<path d="M783 1143 c4 -3 10 -3 14 0 3 4 0 7 -7 7 -7 0 -10 -3 -7 -7z"/>
<path d="M1820 1126 c6 -8 19 -12 27 -9 14 6 14 8 -3 14 -30 12 -37 10 -24 -5z"/>
<path d="M630 1123 c14 -2 79 -12 145 -23 149 -25 219 -35 413 -60 175 -22
234 -32 422 -65 74 -13 182 -32 239 -42 57 -10 109 -23 116 -29 8 -8 19 -5 40
13 27 21 27 23 6 15 -13 -5 -44 -5 -70 -1 -25 5 -91 15 -146 24 -55 8 -145 24
-200 34 -151 29 -287 50 -420 66 -66 8 -163 21 -215 29 -209 34 -296 46 -325
44 -26 -1 -27 -1 -5 -5z"/>
<path d="M1746 1094 c-11 -7 -18 -16 -15 -18 2 -2 13 2 23 10 11 7 18 16 15
18 -2 2 -13 -2 -23 -10z"/>
<path d="M2330 1095 c7 -8 17 -15 22 -15 6 0 5 7 -2 15 -7 8 -17 15 -22 15 -6
0 -5 -7 2 -15z"/>
<path d="M2518 1103 c6 -2 18 -2 25 0 6 3 1 5 -13 5 -14 0 -19 -2 -12 -5z"/>
<path d="M2428 1076 c37 -17 37 -18 18 -54 -11 -22 -37 -36 -133 -71 -65 -25
-145 -57 -178 -72 -69 -31 -136 -59 -141 -59 -2 0 -4 8 -4 18 0 9 -5 24 -10
32 -7 11 -10 -3 -9 -45 0 -46 3 -55 10 -40 6 11 33 30 62 42 299 123 402 163
420 163 12 0 29 5 37 11 11 7 6 8 -19 3 -35 -6 -35 -6 -17 21 21 32 10 50 -39
60 -30 6 -30 6 3 -9z"/>
<path d="M620 1057 c0 -9 52 -97 61 -102 14 -9 11 -2 -17 49 -22 40 -44 66
-44 53z"/>
<path d="M2526 1044 c-5 -14 -4 -15 9 -4 17 14 19 20 6 20 -5 0 -12 -7 -15
-16z"/>
<path d="M13 1043 c-8 -2 -13 -20 -12 -41 1 -37 1 -37 8 -6 4 17 11 36 15 42
8 13 7 13 -11 5z"/>
<path d="M2530 1013 c0 -5 15 -10 32 -11 60 -5 104 -49 115 -115 7 -46 -16
-91 -77 -155 -56 -56 -56 -57 -35 -139 18 -72 11 -102 -44 -179 -58 -82 -51
-90 9 -11 61 80 70 126 45 212 -16 58 -16 58 33 109 102 105 109 210 18 269
-28 19 -96 33 -96 20z"/>
<path d="M1810 990 c-13 -8 -13 -10 2 -10 9 0 20 5 23 10 8 13 -5 13 -25 0z"/>
<path d="M1981 984 c0 -11 3 -14 6 -6 3 7 2 16 -1 19 -3 4 -6 -2 -5 -13z"/>
<path d="M1633 953 c4 -3 10 -3 14 0 3 4 0 7 -7 7 -7 0 -10 -3 -7 -7z"/>
<path d="M1990 950 c0 -7 3 -10 7 -7 3 4 3 10 0 14 -4 3 -7 0 -7 -7z"/>
<path d="M21 914 c0 -11 3 -14 6 -6 3 7 2 16 -1 19 -3 4 -6 -2 -5 -13z"/>
<path d="M31 864 c0 -11 3 -14 6 -6 3 7 2 16 -1 19 -3 4 -6 -2 -5 -13z"/>
<path d="M3031 835 c5 -4 102 -21 179 -31 24 -4 30 -2 20 4 -21 13 -210 39
-199 27z"/>
<path d="M27 801 c-9 -43 -13 -40 111 -81 56 -19 102 -38 102 -42 0 -13 39 -9
63 6 12 8 59 27 103 42 82 28 82 28 194 6 62 -13 115 -21 118 -17 3 3 -1 5 -9
6 -8 0 -59 11 -114 23 -100 23 -100 23 -197 -10 -54 -19 -104 -31 -114 -27
-12 4 -15 3 -10 -5 4 -7 1 -12 -9 -12 -10 0 -13 5 -9 12 4 6 3 8 -3 5 -6 -4
-55 8 -109 27 -97 32 -99 34 -104 67 -6 34 -6 34 -13 0z"/>
<path d="M750 700 c34 -11 60 -11 35 0 -11 5 -29 8 -40 8 -16 0 -15 -2 5 -8z"/>
<path d="M95 658 c-57 -22 -66 -33 -55 -62 4 -12 11 -84 15 -160 11 -204 24
-219 18 -20 -7 193 -47 184 350 79 76 -20 143 -35 148 -33 5 2 -79 28 -188 57
-327 89 -358 102 -296 117 37 10 76 31 66 36 -4 3 -30 -4 -58 -14z"/>
<path d="M175 653 c-22 -12 -49 -23 -60 -23 -16 -1 -17 -2 -5 -9 13 -8 38 -13
160 -37 50 -9 -4 14 -63 27 -57 12 -57 12 -26 27 26 13 37 13 66 3 44 -16 54
-8 11 10 -18 7 -35 16 -38 19 -3 3 -23 -4 -45 -17z"/>
<path d="M1130 620 c14 -4 36 -8 50 -8 22 0 22 1 -5 8 -42 11 -79 11 -45 0z"/>
<path d="M1242 585 c29 -19 38 -35 48 -75 14 -59 25 -60 15 -1 -7 43 -54 101
-82 101 -12 0 -5 -9 19 -25z"/>
<path d="M306 589 c8 -13 44 -31 44 -22 0 4 -11 13 -25 20 -14 6 -23 7 -19 2z"/>
<path d="M1125 534 c-49 -29 -95 -54 -101 -54 -6 0 -33 -16 -60 -35 -51 -37
-51 -50 1 -14 17 11 55 33 87 49 69 36 187 110 173 109 -5 0 -50 -25 -100 -55z"/>
<path d="M380 556 c0 -2 7 -7 16 -10 8 -3 12 -2 9 4 -6 10 -25 14 -25 6z"/>
<path d="M80 530 c0 -7 3 -10 7 -7 3 4 3 10 0 14 -4 3 -7 0 -7 -7z"/>
<path d="M593 453 c4 -3 10 -3 14 0 3 4 0 7 -7 7 -7 0 -10 -3 -7 -7z"/>
<path d="M1025 424 c-29 -31 -31 -44 -9 -44 8 0 13 4 10 9 -3 5 4 20 15 35 27
34 15 34 -16 0z"/>
<path d="M1174 423 c-95 -65 -123 -89 -119 -101 3 -8 5 -31 5 -53 0 -21 5 -39
11 -39 6 0 8 15 4 43 -7 43 -6 44 50 95 67 62 106 75 153 54 17 -9 32 -19 32
-22 0 -9 -37 -40 -95 -80 -27 -19 -53 -39 -57 -44 -11 -16 -9 -48 2 -41 6 3
10 15 10 26 0 10 5 19 10 19 6 0 10 -5 10 -11 0 -5 16 2 35 17 20 15 33 29 31
32 -3 3 -14 -1 -23 -9 -16 -13 -17 -12 -4 4 8 10 21 15 31 12 12 -4 28 6 49
30 26 30 32 33 38 19 6 -17 -18 -43 -96 -102 -26 -20 -31 -31 -33 -70 -1 -47
-1 -47 -8 3 -6 42 -7 45 -10 18 -1 -18 -4 -37 -5 -43 -1 -5 -3 -13 -4 -16 -2
-9 -75 57 -83 75 -6 14 -7 13 -7 -2 -1 -25 25 -73 44 -81 42 -16 110 -6 120
16 7 16 20 23 46 25 36 2 37 1 43 -44 3 -25 6 -70 6 -99 0 -31 4 -54 11 -54 5
0 8 4 5 9 -4 5 -1 11 6 13 10 4 10 10 0 32 -6 15 -12 54 -12 86 0 60 0 60 29
60 20 0 31 -6 35 -17 9 -32 17 -99 18 -141 0 -23 4 -42 9 -42 11 0 11 87 0
152 -11 67 -5 72 74 63 61 -6 69 -5 91 16 13 12 27 20 30 16 8 -8 -85 -67
-107 -67 -14 0 -15 -6 -9 -37 12 -62 42 -143 53 -143 5 0 6 8 2 17 -39 98 -47
137 -29 150 10 7 22 13 27 13 4 0 23 11 41 25 52 39 65 28 66 -55 0 -26 3 -31
10 -20 5 8 10 10 10 5 0 -6 -4 -15 -9 -20 -6 -6 -13 -33 -17 -62 -6 -47 -5
-51 12 -49 20 3 23 16 39 219 5 48 11 87 16 87 43 0 110 -25 124 -46 18 -28
12 -46 -13 -38 -12 4 -13 3 -4 -3 10 -7 9 -17 -5 -44 -10 -19 -17 -41 -16 -49
11 -101 16 -130 25 -130 5 0 7 12 4 27 -3 16 0 48 8 73 13 42 16 45 47 42 18
-1 39 -7 46 -14 9 -7 13 -7 13 0 0 6 -18 16 -40 22 -40 11 -40 11 -38 70 1 33
-1 62 -4 66 -12 11 -147 40 -158 34 -6 -4 -14 -39 -17 -79 -7 -84 -19 -100
-28 -36 -4 25 -10 45 -14 45 -3 0 -6 20 -6 44 0 55 3 53 -80 66 -39 6 -77 13
-86 16 -9 2 -33 -7 -54 -21 -44 -31 -49 -29 -30 9 18 34 18 36 4 36 -5 0 -7
-6 -3 -12 6 -10 4 -10 -7 0 -16 15 -46 16 -51 1 -2 -7 -18 2 -35 19 -46 47
-114 53 -169 15z m239 -49 c19 -19 -55 -101 -124 -138 -20 -10 -41 -31 -47
-45 -10 -24 -11 -22 -6 14 3 30 13 46 37 65 17 14 50 44 72 67 39 41 55 50 68
37z m173 -25 c80 -14 83 -21 30 -65 -55 -46 -52 -60 3 -16 22 18 42 32 45 32
15 0 -10 -31 -43 -54 -38 -26 -38 -26 -122 -9 -105 22 -115 43 -47 92 49 34
53 35 134 20z m-371 -59 c-3 -5 -11 -10 -16 -10 -6 0 -7 5 -4 10 3 6 11 10 16
10 6 0 7 -4 4 -10z m123 -58 c-18 -17 -35 -28 -38 -25 -3 2 11 17 30 33 45 37
52 30 8 -8z m112 -2 c0 -11 -26 -20 -56 -20 -26 0 -31 9 -14 26 12 12 70 6 70
-6z m447 -47 c-4 -3 -7 0 -7 7 0 7 3 10 7 7 3 -4 3 -10 0 -14z m-752 -3 c3 -5
4 -10 1 -10 -3 0 -8 5 -11 10 -3 6 -4 10 -1 10 3 0 8 -4 11 -10z m732 -22 c-3
-8 -6 -5 -6 6 -1 11 2 17 5 13 3 -3 4 -12 1 -19z"/>
<path d="M1045 380 c-3 -5 -1 -10 4 -10 6 0 11 5 11 10 0 6 -2 10 -4 10 -3 0
-8 -4 -11 -10z"/>
<path d="M1213 359 c-29 -17 -53 -35 -53 -40 0 -10 96 47 105 62 9 13 6 12
-52 -22z"/>
<path d="M13 330 c0 -25 2 -35 4 -22 2 12 2 32 0 45 -2 12 -4 2 -4 -23z"/>
<path d="M1090 313 c0 -7 9 -27 20 -45 20 -33 20 -33 18 7 -1 22 -3 34 -6 27
-3 -10 -8 -8 -18 5 -8 10 -13 13 -14 6z"/>
<path d="M2455 300 c-10 -11 -13 -20 -8 -20 13 0 38 29 31 35 -3 3 -13 -4 -23
-15z"/>
<path d="M1978 273 c59 -15 61 -17 46 -34 -11 -13 -26 -17 -48 -13 -31 4 -31
4 -3 -7 26 -10 27 -14 27 -82 0 -84 12 -80 22 6 5 54 6 51 3 -23 -1 -47 -6
-93 -10 -103 -4 -9 -3 -17 2 -17 6 0 16 26 23 58 8 31 22 71 31 89 19 33 16
45 -7 36 -8 -3 -14 0 -14 6 0 6 4 11 8 11 5 0 8 10 8 23 -1 25 18 27 116 6
103 -21 104 -37 7 -199 -21 -35 -21 -35 9 -1 37 40 82 125 83 154 0 15 3 17 6
7 7 -16 43 -57 43 -47 0 3 -9 21 -20 41 -22 36 -60 49 -225 75 -33 5 -73 14
-88 20 -16 6 -40 11 -55 10 -16 0 -2 -7 36 -16z m59 -60 c-4 -3 -10 -3 -14 0
-3 4 0 7 7 7 7 0 10 -3 7 -7z m15 -75 c-8 -8 -9 -4 -5 13 4 13 8 18 11 10 2
-7 -1 -18 -6 -23z"/>
<path d="M1014 256 c11 -9 24 -16 30 -16 12 0 7 5 -24 19 -24 11 -24 11 -6 -3z"/>
<path d="M1806 251 c-8 -12 33 -19 64 -11 17 4 21 8 12 14 -7 4 -19 3 -27 -4
-9 -7 -15 -8 -20 0 -8 12 -22 13 -29 1z"/>
<path d="M1781 234 c0 -11 3 -14 6 -6 3 7 2 16 -1 19 -3 4 -6 -2 -5 -13z"/>
<path d="M1781 194 c0 -11 3 -14 6 -6 3 7 2 16 -1 19 -3 4 -6 -2 -5 -13z"/>
<path d="M71 173 c-1 -26 -4 -31 -18 -26 -12 5 -11 1 5 -15 12 -12 22 -29 22
-38 0 -12 7 -15 28 -11 17 4 67 -7 134 -29 59 -19 116 -34 125 -33 10 0 -29
16 -87 36 -138 46 -170 54 -170 40 0 -25 -16 9 -26 56 -10 43 -12 46 -13 20z"/>
<path d="M2173 169 c-24 -17 -43 -35 -43 -40 0 -10 74 43 85 62 9 13 4 11 -42
-22z"/>
<path d="M2095 133 c-4 -20 -18 -59 -31 -85 -13 -26 -21 -48 -17 -48 16 1 67
101 70 135 3 46 -13 45 -22 -2z"/>
<path d="M1770 133 c0 -10 -3 -28 -6 -40 -4 -13 -2 -23 4 -23 5 0 12 18 14 40
2 22 0 40 -4 40 -5 0 -8 -8 -8 -17z"/>
<path d="M2156 70 c-31 -38 -53 -70 -47 -70 11 0 115 130 108 136 -2 3 -30
-27 -61 -66z"/>
<path d="M1830 106 c0 -13 -3 -38 -6 -55 -4 -17 -2 -31 3 -31 5 0 11 25 12 55
1 30 0 55 -3 55 -4 0 -6 -11 -6 -24z"/>
<path d="M2271 80 c-7 -28 -11 -53 -8 -56 6 -7 30 82 25 96 -2 7 -10 -11 -17
-40z"/>
<path d="M1995 40 c-3 -5 -1 -10 4 -10 6 0 11 5 11 10 0 6 -2 10 -4 10 -3 0
-8 -4 -11 -10z"/>
<path d="M2223 3 c4 -3 10 -3 14 0 3 4 0 7 -7 7 -7 0 -10 -3 -7 -7z"/>
</g>
</svg>
