<?xml version="1.0" standalone="no"?>
<!DOCTYPE svg PUBLIC "-//W3C//DTD SVG 20010904//EN"
 "http://www.w3.org/TR/2001/REC-SVG-20010904/DTD/svg10.dtd">
<svg version="1.0" xmlns="http://www.w3.org/2000/svg"
 width="256.000000pt" height="256.000000pt" viewBox="0 0 256.000000 256.000000"
 preserveAspectRatio="xMidYMid meet">
<metadata>
Created by potrace 1.16, written by Peter Selinger 2001-2019
</metadata>
<g transform="translate(0.000000,256.000000) scale(0.100000,-0.100000)"
fill="#000000" stroke="none">
<path d="M1425 2521 c11 -5 54 -16 95 -25 177 -40 360 -135 414 -216 34 -51
44 -52 16 -1 -47 82 -206 172 -390 220 -87 22 -166 35 -135 22z"/>
<path d="M875 2509 c-44 -10 -203 -61 -277 -89 -46 -17 -47 -17 -80 5 -120 83
-219 -47 -158 -207 26 -69 25 -78 -7 -78 -22 0 -42 14 -86 62 -59 63 -59 63
-11 -1 41 -55 45 -65 30 -73 -23 -13 73 -123 115 -132 21 -4 32 -16 48 -51 25
-56 33 -59 14 -4 -17 51 -14 54 37 41 48 -12 52 -7 7 11 -33 14 -33 14 -34 96
-2 83 -11 119 -22 89 -3 -9 -26 -31 -50 -49 -25 -19 -47 -41 -49 -49 -3 -8 18
5 46 29 29 23 53 41 53 39 1 -1 3 -36 4 -75 2 -69 1 -73 -19 -73 -33 1 -65 23
-102 70 -44 55 -43 61 7 58 59 -4 69 15 41 80 -53 123 -9 245 83 228 60 -12
168 -128 194 -208 23 -74 28 -56 5 21 -11 38 -28 65 -61 96 -45 43 -45 43 -14
59 67 35 95 16 125 -84 24 -82 21 -146 -9 -175 -13 -14 -19 -25 -12 -25 70 1
72 172 2 274 -13 20 -23 36 -21 36 2 0 41 13 85 29 45 16 100 32 122 36 21 4
39 11 39 16 0 5 -1 9 -2 8 -2 -1 -21 -5 -43 -10z"/>
<path d="M1894 2446 c-10 -8 -17 -16 -14 -19 3 -2 14 4 24 14 23 22 18 25 -10
5z"/>
<path d="M2140 2455 c8 -2 49 -9 90 -16 123 -20 140 -35 50 -44 -185 -19 -325
-117 -304 -214 8 -36 8 -36 14 18 7 66 58 117 147 151 63 24 193 43 229 34 22
-6 41 -37 35 -59 -1 -5 1 -7 4 -3 10 9 45 -35 45 -55 0 -9 5 -19 10 -22 43
-27 -36 122 -85 159 -36 28 -149 57 -213 55 -20 -1 -30 -3 -22 -4z"/>
<path d="M1963 2443 c4 -3 10 -3 14 0 3 4 0 7 -7 7 -7 0 -10 -3 -7 -7z"/>
<path d="M2033 2443 c4 -3 10 -3 14 0 3 4 0 7 -7 7 -7 0 -10 -3 -7 -7z"/>
<path d="M1302 2425 c3 -4 41 -8 85 -10 83 -4 178 -34 201 -63 11 -14 12 -14
12 0 0 30 -115 71 -215 75 -49 2 -86 1 -83 -2z"/>
<path d="M1158 2413 c7 -3 16 -2 19 1 4 3 -2 6 -13 5 -11 0 -14 -3 -6 -6z"/>
<path d="M1208 2413 c12 -2 30 -2 40 0 9 3 -1 5 -23 4 -22 0 -30 -2 -17 -4z"/>
<path d="M1273 2413 c4 -3 10 -3 14 0 3 4 0 7 -7 7 -7 0 -10 -3 -7 -7z"/>
<path d="M1891 2401 c-1 -8 -7 -11 -18 -7 -11 5 -9 -1 7 -16 28 -26 35 -22 21
13 -5 13 -10 18 -10 10z"/>
<path d="M935 2380 c-3 -6 3 -10 17 -10 13 0 36 -7 52 -15 34 -18 39 -19 31
-4 -7 10 -26 19 -72 33 -12 4 -24 2 -28 -4z"/>
<path d="M1140 2380 c-9 -6 -10 -10 -3 -10 6 0 15 5 18 10 8 12 4 12 -15 0z"/>
<path d="M1150 2360 c-78 -17 -120 -34 -120 -50 0 -5 -6 -10 -14 -12 -12 -2
-10 -12 7 -48 36 -74 89 -94 257 -98 135 -3 135 -3 168 25 133 114 -62 234
-298 183z m250 -22 c69 -36 88 -69 67 -113 -27 -56 -69 -69 -202 -62 -156 7
-235 46 -235 116 0 68 267 111 370 59z"/>
<path d="M1313 2326 c59 -22 78 -43 66 -74 -6 -16 -6 -23 -1 -17 28 29 23 54
-15 79 -21 14 -49 26 -63 26 -21 -1 -19 -3 13 -14z"/>
<path d="M1193 2313 c4 -3 10 -3 14 0 3 4 0 7 -7 7 -7 0 -10 -3 -7 -7z"/>
<path d="M1310 2230 c-8 -5 -10 -10 -5 -10 6 0 17 5 25 10 8 5 11 10 5 10 -5
0 -17 -5 -25 -10z"/>
<path d="M972 2343 c-10 -4 -10 -8 -1 -19 8 -10 7 -17 -5 -29 -14 -15 -20 -35
-29 -115 -6 -47 28 -139 64 -172 29 -28 31 -28 147 -26 117 2 117 2 2 5 -108
4 -116 5 -142 30 -58 56 -75 176 -37 259 12 24 18 47 15 53 -3 5 0 12 6 14 7
3 9 5 3 5 -5 0 -16 -2 -23 -5z"/>
<path d="M1586 2274 c4 -27 7 -82 8 -121 0 -39 4 -66 7 -61 3 5 9 -12 13 -38
4 -33 2 -50 -6 -57 -10 -6 -9 -7 2 -4 10 3 15 16 14 43 -1 59 -25 246 -35 269
-5 13 -6 2 -3 -31z"/>
<path d="M2142 2290 c-8 -13 -10 -34 -6 -54 6 -36 7 -36 -58 -50 -15 -3 -29
-15 -33 -25 -7 -22 29 -113 51 -132 18 -15 8 -30 -14 -22 -15 6 -15 4 2 -15
22 -25 28 -28 20 -8 -8 20 15 31 29 14 7 -8 35 -27 62 -43 38 -22 46 -24 33
-9 -20 23 -13 30 58 58 39 16 39 16 13 -7 -32 -29 -23 -56 29 -87 32 -20 32
-20 49 6 24 38 25 102 1 141 -11 18 -16 38 -12 44 3 6 8 48 10 93 2 60 1 73
-6 52 -5 -17 -10 -50 -11 -75 -1 -25 -6 -54 -11 -64 -7 -13 -5 -24 6 -36 17
-19 22 -36 7 -26 -5 3 -12 1 -15 -4 -4 -5 -24 -12 -46 -16 -23 -4 -54 -18 -69
-31 -17 -14 -36 -22 -44 -18 -25 9 -57 78 -49 106 6 22 7 22 13 -7 7 -30 7
-30 8 2 2 50 -17 49 -32 -2 -12 -43 -14 -45 -28 -28 -23 27 -41 78 -37 105 2
19 11 24 45 29 54 7 61 3 69 -49 5 -29 11 -42 20 -38 7 3 29 8 48 12 61 11
106 74 105 143 -2 56 -2 56 -8 6 -8 -57 -19 -80 -55 -114 -28 -27 -26 -29 -41
61 -16 99 -68 143 -103 88z m73 -26 c25 -61 31 -140 10 -148 -20 -7 -35 0 -35
17 0 7 -8 29 -19 50 -27 53 -31 77 -18 98 19 30 45 23 62 -17z m145 -238 c0
-3 -5 -8 -12 -12 -7 -4 -8 -3 -4 4 7 12 16 16 16 8z m20 -44 c0 -21 -6 -47
-14 -57 -12 -17 -13 -14 -12 26 3 70 26 97 26 31z m-44 -17 c-1 -36 -13 -44
-34 -23 -17 17 -15 33 3 18 13 -11 14 -10 9 5 -5 13 7 32 22 35 0 0 0 -16 0
-35z"/>
<path d="M2221 2144 c0 -11 3 -14 6 -6 3 7 2 16 -1 19 -3 4 -6 -2 -5 -13z"/>
<path d="M1672 2266 c9 -12 48 -79 86 -151 102 -189 114 -207 164 -248 50 -41
139 -77 189 -77 31 0 31 0 9 36 -12 19 -20 38 -17 41 8 8 97 -173 97 -197 0
-11 4 -20 9 -20 13 0 51 -85 51 -114 0 -13 -13 -37 -28 -54 -41 -44 -152 -71
-152 -36 0 8 -3 13 -7 11 -5 -3 -8 10 -9 28 0 27 3 32 20 28 13 -2 9 2 -9 11
-17 8 -54 30 -83 50 -71 48 -107 53 -170 26 -28 -12 -59 -31 -68 -41 -65 -72
43 -183 166 -172 62 6 62 6 46 -24 -8 -17 -22 -33 -31 -36 -8 -4 -15 -11 -15
-17 0 -19 43 18 67 58 31 51 29 33 -3 -28 -30 -58 -41 -65 -108 -74 -68 -8
-131 20 -151 68 -17 41 -21 142 -4 114 5 -10 20 -23 32 -29 22 -11 22 -11 1 9
-44 42 -49 76 -20 127 17 28 34 45 46 45 19 0 23 8 35 68 10 47 11 183 3 189
-5 2 -8 -1 -8 -8 0 -35 -246 -139 -329 -139 -17 0 -20 -10 -24 -107 -9 -181
-19 -225 -51 -218 -120 24 -124 16 -6 -14 164 -42 366 -126 446 -187 40 -31
39 -31 39 16 1 22 7 46 14 52 15 15 238 15 314 0 34 -7 47 -6 47 2 0 6 -15 12
-32 12 -158 6 -271 18 -243 27 43 14 50 22 64 67 12 42 38 60 83 60 36 0 106
40 126 72 31 48 34 -11 8 -154 -3 -16 -2 -28 3 -28 12 0 33 181 25 216 -3 16
-13 40 -21 53 -9 13 -57 107 -108 210 -82 166 -144 264 -129 204 5 -19 -21
-51 -32 -41 -8 9 8 88 17 82 16 -9 10 13 -7 27 -8 7 -24 30 -35 51 -19 37 -70
73 -92 65 -7 -2 5 -11 25 -20 25 -10 43 -28 56 -54 19 -37 19 -69 1 -57 -12 7
-11 -3 3 -29 12 -21 13 -21 19 13 6 34 6 34 8 5 2 -58 -14 -61 -49 -10 -39 57
-49 54 -15 -6 13 -24 25 -51 25 -59 0 -24 -59 89 -85 163 -41 116 -85 169
-123 148 -15 -9 -14 -10 5 -11 13 0 29 -11 39 -29 10 -17 22 -27 28 -24 5 4 7
-1 3 -11 -5 -11 1 -31 12 -50 11 -18 38 -68 59 -111 95 -193 100 -209 52 -175
-17 12 -27 26 -24 32 4 7 2 8 -4 4 -18 -11 -47 30 -124 176 -40 77 -89 157
-108 177 -19 21 -27 28 -18 17z m172 -92 c3 -8 2 -12 -4 -9 -6 3 -10 10 -10
16 0 14 7 11 14 -7z m222 -259 c17 -45 17 -45 -10 -70 -34 -31 -30 -32 -55 11
-28 47 -27 60 9 76 17 7 30 16 30 20 0 19 10 5 26 -37z m21 -90 c0 -8 -6 -15
-14 -15 -7 0 -13 7 -13 15 0 8 6 15 13 15 8 0 14 -7 14 -15z m-281 -52 c-3
-21 -6 -57 -6 -80 0 -49 -35 -97 -51 -72 -6 11 -9 11 -10 2 -1 -7 -3 -16 -4
-20 -2 -5 -6 -19 -10 -31 -6 -18 -10 -20 -16 -10 -5 7 -9 -38 -9 -108 0 -106
3 -125 20 -146 24 -31 81 -59 120 -60 26 -1 30 -5 30 -30 0 -34 -3 -34 -42 -7
-52 38 -205 108 -296 135 -48 15 -88 28 -90 29 -1 1 5 18 13 38 11 26 15 72
15 157 0 88 3 122 13 124 6 2 58 16 114 31 56 16 123 40 150 55 64 37 67 36
59 -7z m171 -201 c79 -56 20 -172 -87 -172 -50 0 -134 56 -138 92 -10 88 140
141 225 80z m71 -78 c3 -35 -26 -79 -59 -87 -19 -5 -17 -1 10 24 28 25 32 35
29 65 -2 21 0 33 6 31 6 -2 12 -17 14 -33z m-13 -120 c-14 -48 -30 -72 -41
-62 -5 6 42 108 51 108 2 0 -2 -21 -10 -46z"/>
<path d="M2392 2270 c0 -14 2 -19 5 -12 2 6 2 18 0 25 -3 6 -5 1 -5 -13z"/>
<path d="M400 2230 c0 -7 3 -10 7 -7 3 4 3 10 0 14 -4 3 -7 0 -7 -7z"/>
<path d="M450 2220 c0 -7 3 -10 7 -7 3 4 3 10 0 14 -4 3 -7 0 -7 -7z"/>
<path d="M960 2220 c0 -7 3 -10 7 -7 3 4 3 10 0 14 -4 3 -7 0 -7 -7z"/>
<path d="M149 2183 c6 -12 16 -25 21 -28 6 -4 8 -10 5 -15 -3 -4 10 -11 29
-14 47 -9 106 -74 83 -91 -22 -16 -23 -11 18 -156 38 -135 83 -259 93 -259 4
0 18 -18 31 -40 14 -22 27 -38 29 -35 5 4 -35 73 -54 92 -6 6 -17 33 -24 60
-7 26 -16 53 -21 58 -19 26 -71 247 -63 266 8 17 17 8 72 -69 34 -49 72 -98
84 -108 26 -23 17 -4 -26 51 -17 21 -35 46 -41 55 -35 58 -86 128 -100 140
-10 8 -29 32 -42 53 -13 22 -27 36 -31 33 -3 -4 0 -12 6 -18 7 -7 12 -15 12
-20 0 -14 -33 5 -62 36 -22 23 -27 25 -19 9z"/>
<path d="M555 2152 c70 -28 70 -28 67 -77 -2 -28 -8 -55 -14 -62 -7 -9 -4 -11
12 -8 19 4 21 1 15 -23 -3 -15 -13 -32 -21 -38 -13 -11 -13 -16 1 -45 15 -34
15 -34 12 -1 -2 17 0 32 4 32 4 0 10 15 13 33 6 33 16 47 85 120 52 55 28 45
-35 -15 -63 -59 -71 -58 -57 13 9 44 8 51 -6 56 -9 3 -37 13 -63 24 -26 10
-55 19 -65 19 -10 -1 14 -13 52 -28z"/>
<path d="M740 2141 c0 -5 7 -11 15 -15 33 -12 89 -253 83 -353 -2 -35 0 -64 5
-66 5 -1 11 -18 13 -37 2 -19 6 -45 9 -56 3 -16 -9 -38 -42 -79 -43 -52 -48
-55 -55 -35 -4 12 -4 29 1 39 6 10 6 23 0 32 -6 10 -9 6 -10 -16 -1 -30 -1
-30 -12 -5 -14 31 -47 77 -47 67 0 -4 9 -24 20 -45 12 -21 16 -38 10 -40 -5
-2 -10 -8 -10 -13 0 -4 6 -6 13 -3 19 7 39 -40 24 -55 -6 -6 -18 -11 -27 -11
-13 0 -13 -2 -1 -9 8 -5 53 -8 100 -7 99 4 92 -8 64 121 -8 39 -16 84 -17 100
-13 171 -75 459 -104 483 -18 14 -32 16 -32 3z m154 -648 c6 -43 6 -43 -60
-43 -65 0 -65 0 -13 61 58 66 60 66 73 -18z"/>
<path d="M1520 2085 c7 -9 15 -13 17 -11 7 7 -7 26 -19 26 -6 0 -6 -6 2 -15z"/>
<path d="M1707 2045 c-15 -19 -21 -32 -13 -29 16 6 50 53 44 59 -2 2 -16 -11
-31 -30z"/>
<path d="M2240 2040 c-9 -6 -10 -10 -3 -10 6 0 15 5 18 10 8 12 4 12 -15 0z"/>
<path d="M2060 2030 c0 -7 3 -10 7 -7 3 4 3 10 0 14 -4 3 -7 0 -7 -7z"/>
<path d="M2170 2017 c0 -15 4 -27 9 -27 6 0 8 10 6 21 -6 33 -15 36 -15 6z"/>
<path d="M1550 2021 c0 -5 7 -12 16 -15 24 -9 27 -7 10 9 -17 17 -26 19 -26 6z"/>
<path d="M1653 2003 c4 -3 10 -3 14 0 3 4 0 7 -7 7 -7 0 -10 -3 -7 -7z"/>
<path d="M1303 1993 c9 -2 25 -2 35 0 9 3 1 5 -18 5 -19 0 -27 -2 -17 -5z"/>
<path d="M1490 1990 c-35 -7 -35 -7 -3 -9 17 0 35 4 38 9 3 6 5 9 3 9 -2 -1
-19 -5 -38 -9z"/>
<path d="M1423 1983 c4 -3 10 -3 14 0 3 4 0 7 -7 7 -7 0 -10 -3 -7 -7z"/>
<path d="M768 1943 c7 -3 16 -2 19 1 4 3 -2 6 -13 5 -11 0 -14 -3 -6 -6z"/>
<path d="M2137 1933 c-12 -12 -7 -22 8 -17 18 7 49 -58 95 -201 18 -55 44
-117 57 -137 24 -35 25 -44 20 -120 -6 -89 -44 -268 -57 -268 -4 0 -10 -13
-12 -29 -2 -17 -1 -28 4 -25 4 3 8 14 8 25 0 10 4 19 10 19 5 0 12 15 15 33 7
37 -13 34 183 24 34 -2 62 0 62 5 0 4 -45 8 -100 8 -55 0 -100 2 -100 5 0 2
13 32 29 67 60 129 78 183 65 196 -15 14 -48 -13 -38 -30 5 -7 12 -4 21 7 19
27 16 16 -17 -66 -49 -118 -73 -169 -80 -169 -12 0 7 80 34 149 32 79 32 91 4
126 -21 28 -21 28 3 15 24 -13 24 -13 5 8 -10 12 -27 24 -37 27 -37 12 -68
108 -45 135 9 9 11 23 6 35 -7 18 -8 19 -15 3 -8 -20 -25 -14 -25 8 0 9 5 12
12 8 7 -5 8 -3 4 5 -5 7 -11 10 -14 7 -3 -4 -18 24 -34 61 -37 87 -52 105 -71
86z m204 -493 c-8 -21 -9 -17 -6 20 5 56 7 62 12 30 2 -14 -1 -37 -6 -50z"/>
<path d="M1033 1901 c-186 -69 -199 -196 -26 -261 110 -41 292 -24 370 35 31
25 71 91 60 101 -2 3 -10 -9 -16 -25 -16 -36 -61 -81 -62 -60 0 8 -4 4 -10 -9
-7 -18 -14 -22 -30 -17 -13 5 -19 3 -15 -3 20 -33 -207 -43 -286 -13 -156 59
-159 159 -8 230 83 39 232 38 309 -2 29 -16 50 -23 46 -18 -33 54 -232 79
-332 42z"/>
<path d="M1380 1891 c0 -6 4 -11 9 -11 15 0 62 -66 77 -107 7 -21 13 -29 14
-19 0 33 -40 105 -71 127 -16 11 -29 16 -29 10z"/>
<path d="M2200 1889 c0 -5 5 -7 10 -4 6 3 10 8 10 11 0 2 -4 4 -10 4 -5 0 -10
-5 -10 -11z"/>
<path d="M2235 1860 c3 -5 8 -10 11 -10 3 0 2 5 -1 10 -3 6 -8 10 -11 10 -3 0
-2 -4 1 -10z"/>
<path d="M432 1788 c11 -29 26 -82 33 -118 7 -36 14 -56 14 -44 3 57 -41 214
-59 214 -4 0 1 -24 12 -52z"/>
<path d="M521 1800 c29 -46 29 -45 29 -32 0 6 -12 24 -26 39 -26 28 -26 28 -3
-7z"/>
<path d="M640 1820 c0 -7 3 -10 7 -7 3 4 3 10 0 14 -4 3 -7 0 -7 -7z"/>
<path d="M1270 1819 c0 -5 8 -9 18 -9 10 0 37 -21 61 -46 23 -25 45 -44 47
-41 10 9 -78 95 -102 100 -13 2 -24 0 -24 -4z"/>
<path d="M362 1780 c0 -14 2 -19 5 -12 2 6 2 18 0 25 -3 6 -5 1 -5 -13z"/>
<path d="M646 1773 c4 -16 11 -35 16 -43 7 -11 8 -8 4 10 -3 14 -6 33 -6 43 0
9 -5 17 -10 17 -6 0 -8 -11 -4 -27z"/>
<path d="M701 1784 c0 -11 3 -14 6 -6 3 7 2 16 -1 19 -3 4 -6 -2 -5 -13z"/>
<path d="M565 1769 c4 -13 22 -40 40 -59 19 -19 37 -47 40 -63 11 -41 24 -42
15 -1 -5 20 -25 53 -44 73 -20 20 -36 42 -36 48 0 7 -5 15 -11 19 -8 4 -9 -1
-4 -17z"/>
<path d="M981 1751 c-26 -36 -27 -55 -2 -22 18 24 18 24 30 -12 7 -20 17 -39
22 -42 5 -4 4 6 -1 21 -6 15 -8 40 -5 56 9 38 -17 38 -44 -1z"/>
<path d="M1214 1735 c0 -24 3 -41 5 -39 2 2 13 -2 25 -8 24 -13 88 -19 80 -7
-2 4 0 10 6 14 6 4 8 11 5 16 -3 5 1 6 9 3 9 -3 16 -2 16 3 0 5 -6 10 -12 10
-7 0 -21 4 -30 8 -13 5 -15 2 -11 -13 6 -26 -27 -39 -43 -17 -9 12 -13 13 -18
3 -3 -7 -5 -2 -3 12 2 14 -5 32 -14 41 -15 15 -16 13 -15 -26z"/>
<path d="M1083 1733 c4 -3 10 -3 14 0 3 4 0 7 -7 7 -7 0 -10 -3 -7 -7z"/>
<path d="M1120 1736 c0 -2 8 -10 18 -17 15 -13 16 -12 3 4 -13 16 -21 21 -21
13z"/>
<path d="M290 1716 c0 -2 -7 -20 -15 -40 -19 -46 -13 -46 14 0 24 40 25 44 11
44 -5 0 -10 -2 -10 -4z"/>
<path d="M1190 1705 c-7 -8 -16 -13 -20 -10 -8 5 -33 -45 -26 -52 3 -3 11 4
18 16 7 12 18 21 24 21 7 0 14 9 17 20 6 24 4 25 -13 5z"/>
<path d="M1080 1685 c-10 -12 -10 -15 4 -15 9 0 16 7 16 15 0 8 -2 15 -4 15
-2 0 -9 -7 -16 -15z"/>
<path d="M812 1678 c-16 -16 -15 -25 2 -31 10 -4 13 2 12 19 0 13 -1 24 -1 24
-1 0 -6 -5 -13 -12z"/>
<path d="M720 1650 c0 -19 3 -21 12 -12 9 9 9 15 0 24 -9 9 -12 7 -12 -12z"/>
<path d="M760 1670 c0 -3 11 -27 25 -54 21 -42 25 -45 25 -23 0 20 -49 96 -50
77z"/>
<path d="M286 1643 c-6 -14 -5 -15 5 -6 7 7 10 15 7 18 -3 3 -9 -2 -12 -12z"/>
<path d="M374 1578 c-9 -18 -35 -54 -56 -80 -22 -27 -35 -48 -29 -48 6 0 29
25 52 55 23 30 44 53 48 51 3 -2 6 9 7 25 1 37 -2 36 -22 -3z"/>
<path d="M541 1594 c0 -12 7 -28 17 -35 15 -12 16 -12 6 1 -7 8 -14 24 -17 35
-4 19 -5 19 -6 -1z"/>
<path d="M480 1590 c0 -7 3 -10 7 -7 3 4 3 10 0 14 -4 3 -7 0 -7 -7z"/>
<path d="M635 1577 c10 -15 20 -25 23 -22 3 3 -5 16 -17 28 -23 22 -23 22 -6
-6z"/>
<path d="M2090 1550 c8 -5 24 -10 35 -10 18 -1 18 -2 4 -13 -8 -7 -15 -22 -15
-34 0 -23 0 -22 27 3 26 25 38 74 13 54 -6 -6 -13 -8 -15 -6 -2 2 -17 6 -34
10 -22 5 -26 4 -15 -4z m60 -35 c-7 -8 -16 -15 -21 -15 -5 0 -1 8 9 18 20 22
31 19 12 -3z"/>
<path d="M580 1546 c0 -2 7 -7 16 -10 8 -3 12 -2 9 4 -6 10 -25 14 -25 6z"/>
<path d="M678 1535 c-7 -24 -4 -72 5 -82 4 -3 7 1 7 10 0 10 5 17 11 17 8 0 8
4 1 13 -5 6 -12 23 -14 37 -3 22 -4 23 -10 5z"/>
<path d="M400 1534 c0 -6 7 -19 15 -30 8 -10 14 -14 14 -9 0 6 -6 19 -14 29
-8 11 -15 15 -15 10z"/>
<path d="M1421 1442 c-17 -31 -13 -40 5 -14 9 13 14 26 11 29 -3 2 -10 -4 -16
-15z"/>
<path d="M933 1443 c4 -3 10 -3 14 0 3 4 0 7 -7 7 -7 0 -10 -3 -7 -7z"/>
<path d="M519 1425 c-105 -15 -175 -30 -257 -57 -97 -31 -66 -33 37 -2 66 20
94 25 102 17 16 -16 6 -27 -69 -77 -98 -65 -142 -110 -142 -145 0 -5 18 -31
40 -56 22 -25 40 -55 40 -66 0 -11 5 -29 11 -40 5 -11 12 -42 14 -70 3 -27 10
-59 16 -71 6 -11 15 -41 19 -67 8 -46 8 -46 9 -6 0 22 -6 58 -14 80 -17 48
-19 68 -5 60 15 -9 12 4 -9 49 -10 23 -21 52 -25 66 -3 14 -19 41 -36 60 -31
35 -41 92 -18 106 7 4 8 3 4 -4 -4 -7 -3 -12 3 -12 16 0 22 18 9 23 -16 7 32
48 49 43 6 -3 13 3 15 12 5 19 110 85 164 102 39 13 34 15 132 -58 18 -14 30
-18 27 -11 -3 8 -34 34 -67 58 -72 51 -67 58 46 63 36 2 66 6 66 11 0 10 -59
7 -161 -8z m-29 -23 c0 -15 -48 -35 -66 -28 -21 8 -8 23 26 29 14 2 28 5 33 6
4 0 7 -3 7 -7z"/>
<path d="M963 1433 c4 -3 10 -3 14 0 3 4 0 7 -7 7 -7 0 -10 -3 -7 -7z"/>
<path d="M690 1415 c-7 -9 -11 -17 -9 -20 3 -2 10 5 17 15 14 24 10 26 -8 5z"/>
<path d="M1245 1410 c11 -5 27 -9 35 -9 9 0 8 4 -5 9 -11 5 -27 9 -35 9 -9 0
-8 -4 5 -9z"/>
<path d="M1783 1403 c4 -3 10 -3 14 0 3 4 0 7 -7 7 -7 0 -10 -3 -7 -7z"/>
<path d="M1864 1328 c3 -24 5 -45 6 -48 0 -3 4 2 9 10 11 19 2 80 -11 80 -6 0
-8 -18 -4 -42z"/>
<path d="M1770 1356 c0 -8 71 -48 76 -43 3 2 -13 14 -36 26 -22 11 -40 19 -40
17z"/>
<path d="M650 1321 c0 -16 31 -21 125 -21 52 0 97 -4 100 -10 3 -5 34 -23 68
-40 48 -23 69 -41 94 -79 35 -54 56 -130 32 -116 -11 7 -12 6 -2 -6 6 -8 14
-31 18 -51 4 -21 12 -38 17 -38 6 0 7 8 4 17 -4 10 -11 48 -16 86 -6 47 -15
76 -29 91 -12 12 -21 27 -21 32 0 19 -54 62 -103 83 -26 11 -50 27 -53 35 -5
12 -21 14 -89 9 -49 -3 -96 -1 -114 5 -17 6 -31 7 -31 3z"/>
<path d="M441 1294 c-1 -6 6 -27 14 -46 10 -26 11 -38 3 -46 -8 -8 -5 -11 11
-9 11 1 21 2 21 3 0 9 -49 106 -49 98z"/>
<path d="M713 1283 c4 -3 10 -3 14 0 3 4 0 7 -7 7 -7 0 -10 -3 -7 -7z"/>
<path d="M771 1261 c30 -22 69 -44 69 -36 0 6 -77 55 -86 55 -4 0 4 -8 17 -19z"/>
<path d="M639 1236 c12 -16 35 -38 51 -48 30 -17 30 -17 26 13 -2 16 -7 33
-11 37 -4 4 -4 -3 -1 -15 11 -33 -12 -29 -53 10 -34 31 -34 32 -12 3z"/>
<path d="M1420 1212 c0 -23 -28 -49 -100 -95 -212 -134 -251 -325 -100 -490
118 -129 317 -178 514 -127 84 22 176 66 216 102 51 46 103 186 103 280 1 46
5 69 14 72 7 3 13 15 13 26 0 19 -5 20 -41 16 -22 -2 -48 -11 -57 -19 -18 -15
-62 -32 -74 -29 -5 1 -8 -4 -8 -12 0 -13 4 -13 28 0 15 7 32 14 38 14 6 0 17
6 23 14 13 16 69 27 77 15 2 -4 -4 -13 -15 -18 -14 -8 -21 -8 -24 2 -3 6 -6 2
-6 -10 -1 -30 -11 -53 -23 -53 -6 0 -22 -10 -37 -23 -60 -50 -141 -57 -141
-11 0 18 38 37 58 29 14 -5 15 -4 5 6 -23 23 -68 -1 -68 -36 0 -39 40 -56 88
-36 18 8 44 14 60 15 15 1 27 6 27 12 0 6 6 17 14 23 29 24 28 -83 -1 -154
-48 -117 -99 -159 -253 -206 -272 -84 -570 54 -606 280 -7 47 5 126 15 99 5
-14 9 -10 17 17 6 19 7 32 3 30 -4 -3 -5 4 -2 14 7 27 130 144 143 136 5 -3
10 -1 10 5 0 6 4 9 9 6 5 -3 14 1 21 9 7 8 16 12 21 9 5 -3 9 -1 9 4 0 5 9 19
20 32 11 13 20 29 20 37 0 16 24 11 73 -14 28 -14 34 -27 17 -38 -5 -3 -15
-16 -20 -28 -6 -12 7 -3 28 21 44 47 62 50 168 31 54 -10 214 -84 214 -99 0
-4 12 -5 28 -3 15 3 34 -2 44 -9 15 -12 14 -15 -12 -35 -28 -23 -28 -23 -53
-3 -14 11 -29 20 -33 20 -4 0 7 -11 26 -25 33 -24 33 -25 9 -26 -69 -3 -139
18 -139 41 0 6 -3 9 -7 8 -5 -1 -24 1 -45 5 -27 6 -46 3 -75 -12 -47 -24 -170
-76 -199 -85 -43 -13 0 -91 66 -121 35 -16 46 -17 74 -7 45 16 46 16 46 -17 0
-41 -32 -61 -97 -61 -53 0 -54 1 -83 47 -40 63 -52 105 -48 163 2 31 -1 49 -7
47 -5 -2 -10 -31 -9 -64 1 -78 55 -181 114 -218 21 -13 51 -40 65 -60 15 -19
32 -35 37 -35 16 0 -55 83 -83 98 -22 11 -20 12 22 10 58 -2 94 20 103 63 10
51 10 51 -48 44 -66 -8 -119 13 -142 57 -16 32 -12 48 14 48 9 0 31 8 47 18
17 11 54 27 83 36 28 10 54 22 57 27 12 18 75 9 113 -15 45 -30 125 -51 145
-39 27 15 87 72 87 82 0 14 -34 31 -60 31 -12 0 -59 20 -103 44 -87 47 -162
66 -270 66 -37 0 -73 7 -99 20 -51 25 -58 25 -58 2z m629 -335 c1 -5 -3 -5 -9
-2 -5 3 -10 16 -9 28 0 21 1 21 9 2 5 -11 9 -24 9 -28z"/>
<path d="M2540 1220 c0 -7 3 -10 7 -7 3 4 3 10 0 14 -4 3 -7 0 -7 -7z"/>
<path d="M853 1213 c4 -3 10 -3 14 0 3 4 0 7 -7 7 -7 0 -10 -3 -7 -7z"/>
<path d="M2047 1189 c-22 -11 -36 -23 -33 -26 3 -3 17 2 32 12 14 9 47 21 73
25 46 8 46 8 6 8 -22 1 -57 -8 -78 -19z"/>
<path d="M2228 1203 c7 -3 16 -2 19 1 4 3 -2 6 -13 5 -11 0 -14 -3 -6 -6z"/>
<path d="M2313 1183 c4 -3 10 -3 14 0 3 4 0 7 -7 7 -7 0 -10 -3 -7 -7z"/>
<path d="M930 1174 c0 -10 64 -73 104 -103 17 -12 17 -12 7 7 -6 12 -16 24
-21 27 -6 4 -7 11 -4 17 5 7 2 8 -5 3 -8 -4 -26 5 -47 26 -19 18 -34 28 -34
23z"/>
<path d="M845 1160 c3 -5 8 -10 11 -10 3 0 2 5 -1 10 -3 6 -8 10 -11 10 -3 0
-2 -4 1 -10z"/>
<path d="M359 1147 c-9 -7 -21 -22 -28 -34 -11 -21 -10 -23 16 -23 30 0 73 24
73 41 0 5 -10 1 -22 -11 -21 -19 -58 -28 -58 -13 0 4 10 17 22 30 23 25 22 29
-3 10z"/>
<path d="M1583 1146 c-28 -13 -30 -26 -3 -19 11 3 20 1 20 -5 0 -5 12 -18 28
-27 27 -18 27 -18 -3 14 -25 27 -27 33 -15 41 20 13 0 10 -27 -4z"/>
<path d="M1945 1120 c3 -5 8 -10 11 -10 2 0 4 5 4 10 0 6 -5 10 -11 10 -5 0
-7 -4 -4 -10z"/>
<path d="M851 1093 c7 -12 15 -20 18 -17 3 2 -3 12 -13 22 -17 16 -18 16 -5
-5z"/>
<path d="M890 1094 c0 -16 24 -44 67 -80 50 -43 93 -63 93 -45 0 6 -8 11 -18
11 -9 0 -45 27 -80 59 -34 33 -62 57 -62 55z"/>
<path d="M2223 1093 c4 -3 10 -3 14 0 3 4 0 7 -7 7 -7 0 -10 -3 -7 -7z"/>
<path d="M1465 1042 c-40 -47 -40 -47 -3 -17 19 17 38 38 41 48 7 22 8 24 -38
-31z"/>
<path d="M1174 1047 c-17 -17 -41 -51 -52 -74 -12 -22 -27 -43 -34 -46 -10 -4
-10 -6 0 -6 7 -1 11 -5 8 -10 -3 -5 -6 -41 -7 -81 -1 -44 -5 -67 -10 -59 -6
10 -9 9 -9 -7 0 -28 88 -152 142 -199 45 -40 174 -105 205 -105 10 1 -10 12
-43 25 -266 102 -357 362 -193 549 46 52 40 63 -7 13z"/>
<path d="M2200 1070 c0 -7 3 -10 7 -7 3 4 3 10 0 14 -4 3 -7 0 -7 -7z"/>
<path d="M2221 1053 c-12 -13 -12 -16 0 -24 21 -13 33 -11 20 5 -9 11 -9 15 1
18 7 3 8 7 3 10 -6 3 -16 -1 -24 -9z"/>
<path d="M1815 1030 c3 -5 8 -10 11 -10 3 0 2 5 -1 10 -3 6 -8 10 -11 10 -3 0
-2 -4 1 -10z"/>
<path d="M1265 985 c-49 -44 -49 -45 -13 -28 20 10 44 30 53 46 21 36 19 35
-40 -18z"/>
<path d="M1503 1013 c4 -3 10 -3 14 0 3 4 0 7 -7 7 -7 0 -10 -3 -7 -7z"/>
<path d="M955 971 c37 -40 84 -69 50 -31 -11 12 -33 31 -50 43 -30 20 -30 20
0 -12z"/>
<path d="M1196 975 c-4 -13 -2 -14 14 -5 23 13 26 20 6 20 -8 0 -16 -7 -20
-15z"/>
<path d="M365 940 c3 -5 13 -10 21 -10 8 0 12 5 9 10 -3 6 -13 10 -21 10 -8 0
-12 -4 -9 -10z"/>
<path d="M358 900 c17 -19 20 -20 50 -4 38 18 38 20 12 20 -11 0 -20 -4 -20
-8 0 -11 -34 -10 -48 2 -7 5 -4 1 6 -10z"/>
<path d="M600 890 c-9 -6 -10 -10 -3 -10 6 0 15 5 18 10 8 12 4 12 -15 0z"/>
<path d="M564 858 c-4 -7 -3 -8 4 -4 12 7 16 16 8 16 -3 0 -8 -5 -12 -12z"/>
<path d="M2116 835 c26 -62 24 -203 -4 -285 -41 -115 -129 -229 -247 -318 -76
-58 -89 -70 -47 -46 176 100 303 283 337 487 6 38 7 39 45 33 22 -3 42 -1 45
4 3 5 -16 10 -42 12 -47 3 -47 3 -59 61 -6 33 -19 66 -28 75 -16 16 -16 14 0
-23z"/>
<path d="M1695 839 c-20 -22 -20 -22 5 -8 14 7 33 12 43 10 27 -4 210 -90 231
-109 15 -14 18 -14 15 -2 -5 17 -198 116 -244 125 -24 5 -35 1 -50 -16z"/>
<path d="M932 828 c7 -13 20 -28 29 -35 9 -7 32 -36 50 -65 37 -58 47 -68 69
-67 10 0 8 4 -6 10 -19 10 -62 69 -50 69 3 0 -15 21 -39 46 -25 25 -45 50 -45
55 0 5 -5 9 -10 9 -6 0 -5 -9 2 -22z"/>
<path d="M290 823 c0 -4 5 -15 10 -23 8 -13 10 -13 10 2 0 9 -4 20 -10 23 -5
3 -10 3 -10 -2z"/>
<path d="M644 808 c-4 -7 -3 -8 4 -4 7 4 12 9 12 12 0 8 -9 4 -16 -8z"/>
<path d="M548 755 c-45 -31 -65 -51 -61 -60 3 -8 9 -15 13 -15 13 0 56 39 43
40 -6 0 -15 -4 -18 -10 -3 -5 -11 -10 -17 -10 -14 0 11 30 26 30 11 1 96 70
86 70 -3 0 -35 -21 -72 -45z"/>
<path d="M450 765 c-6 -8 -10 -19 -8 -26 2 -6 9 0 16 15 13 29 10 33 -8 11z"/>
<path d="M1300 761 c0 -6 4 -13 10 -16 6 -3 7 1 4 9 -7 18 -14 21 -14 7z"/>
<path d="M2080 745 c0 -8 2 -15 4 -15 2 0 6 7 10 15 3 8 1 15 -4 15 -6 0 -10
-7 -10 -15z"/>
<path d="M574 738 c-4 -7 -3 -8 4 -4 12 7 16 16 8 16 -3 0 -8 -5 -12 -12z"/>
<path d="M1335 730 c3 -5 11 -10 16 -10 6 0 7 5 4 10 -3 6 -11 10 -16 10 -6 0
-7 -4 -4 -10z"/>
<path d="M1410 720 c0 -5 5 -10 11 -10 5 0 7 5 4 10 -3 6 -8 10 -11 10 -2 0
-4 -4 -4 -10z"/>
<path d="M1433 647 c-40 -93 -44 -107 -33 -107 6 0 10 6 10 13 0 7 16 45 35
86 38 79 39 81 28 81 -5 0 -22 -33 -40 -73z"/>
<path d="M2033 683 c-9 -16 -21 -34 -26 -40 -23 -31 3 -9 32 27 17 22 27 40
22 40 -6 0 -18 -12 -28 -27z"/>
<path d="M810 690 c0 -7 3 -10 7 -7 3 4 3 10 0 14 -4 3 -7 0 -7 -7z"/>
<path d="M1375 690 c3 -5 8 -10 11 -10 3 0 2 5 -1 10 -3 6 -8 10 -11 10 -3 0
-2 -4 1 -10z"/>
<path d="M393 653 c4 -3 10 -3 14 0 3 4 0 7 -7 7 -7 0 -10 -3 -7 -7z"/>
<path d="M1070 641 c0 -6 4 -13 10 -16 6 -3 7 1 4 9 -7 18 -14 21 -14 7z"/>
<path d="M880 616 c0 -2 7 -7 16 -10 8 -3 12 -2 9 4 -6 10 -25 14 -25 6z"/>
<path d="M1100 605 c0 -10 8 -25 18 -34 35 -30 36 -67 2 -103 -25 -28 -31 -31
-40 -18 -10 15 -13 9 -11 -20 1 -19 -7 -30 -43 -58 -39 -30 -50 -28 -29 6 17
27 17 27 -10 3 -14 -13 -24 -27 -22 -31 6 -9 -73 4 -110 19 -38 15 -124 73
-125 84 0 5 4 6 8 3 10 -6 122 99 122 114 0 6 -26 -15 -58 -47 -31 -32 -64
-57 -72 -57 -8 1 -20 2 -26 3 -8 1 -10 17 -6 47 3 34 2 45 -7 40 -6 -4 -11
-30 -11 -57 0 -28 4 -48 8 -45 5 3 19 -8 31 -25 12 -16 26 -27 31 -24 12 7 93
-56 105 -83 12 -26 17 -27 55 -7 17 9 30 11 30 6 0 -21 102 43 159 99 71 72
75 93 31 159 -19 28 -30 37 -30 26z m-199 -278 c-12 -12 -45 -1 -37 12 3 5 15
7 27 4 13 -4 17 -9 10 -16z"/>
<path d="M750 603 c-28 -11 -39 -40 -15 -40 8 0 13 3 10 5 -3 3 2 14 12 24 17
19 17 20 -7 11z"/>
<path d="M1350 590 c0 -7 3 -10 7 -7 3 4 3 10 0 14 -4 3 -7 0 -7 -7z"/>
<path d="M1074 578 c-4 -7 -3 -8 4 -4 7 4 12 9 12 12 0 8 -9 4 -16 -8z"/>
<path d="M1675 578 c17 -6 39 -19 51 -29 32 -29 41 -22 11 9 -17 18 -38 28
-59 29 -33 2 -33 2 -3 -9z"/>
<path d="M973 573 c9 -2 23 -2 30 0 6 3 -1 5 -18 5 -16 0 -22 -2 -12 -5z"/>
<path d="M935 560 c-3 -5 1 -10 10 -10 9 0 13 5 10 10 -3 6 -8 10 -10 10 -2 0
-7 -4 -10 -10z"/>
<path d="M745 539 c-4 -6 -5 -12 -2 -15 2 -3 7 2 10 11 7 17 1 20 -8 4z"/>
<path d="M1030 475 c-6 -8 -10 -19 -8 -26 2 -6 9 0 16 15 13 29 10 33 -8 11z"/>
<path d="M1448 453 c7 -3 16 -2 19 1 4 3 -2 6 -13 5 -11 0 -14 -3 -6 -6z"/>
<path d="M525 411 c61 -26 81 -130 36 -188 -29 -36 -26 -51 2 -16 13 15 29 54
36 87 13 58 13 58 -20 92 -18 19 -42 34 -53 33 -21 0 -21 0 -1 -8z"/>
<path d="M1390 376 c0 -2 7 -7 16 -10 8 -3 12 -2 9 4 -6 10 -25 14 -25 6z"/>
<path d="M515 340 c-40 -42 -28 -45 19 -4 22 19 33 34 25 34 -9 0 -28 -13 -44
-30z"/>
<path d="M344 164 c3 -9 6 -20 6 -25 0 -5 9 -9 21 -9 11 0 29 -5 40 -10 11 -7
19 -7 19 -1 0 5 -14 12 -31 16 -19 4 -33 15 -36 26 -3 10 -10 19 -15 19 -6 0
-7 -7 -4 -16z"/>
<path d="M1670 110 c-9 -6 -10 -10 -3 -10 6 0 15 5 18 10 8 12 4 12 -15 0z"/>
<path d="M405 90 c17 -4 44 -8 60 -8 29 0 29 0 5 8 -14 4 -41 8 -60 8 -35 0
-35 0 -5 -8z"/>
<path d="M1573 63 c4 -3 10 -3 14 0 3 4 0 7 -7 7 -7 0 -10 -3 -7 -7z"/>
<path d="M1515 45 c-25 -12 -26 -14 -5 -9 28 7 60 23 45 23 -5 0 -23 -6 -40
-14z"/>
</g>
</svg>
