<?xml version="1.0" standalone="no"?>
<!DOCTYPE svg PUBLIC "-//W3C//DTD SVG 20010904//EN"
 "http://www.w3.org/TR/2001/REC-SVG-20010904/DTD/svg10.dtd">
<svg version="1.0" xmlns="http://www.w3.org/2000/svg"
 width="256.000000pt" height="344.000000pt" viewBox="0 0 256.000000 344.000000"
 preserveAspectRatio="xMidYMid meet">
<metadata>
Created by potrace 1.16, written by Peter Selinger 2001-2019
</metadata>
<g transform="translate(0.000000,344.000000) scale(0.100000,-0.100000)"
fill="#000000" stroke="none">
<path d="M60 3433 c0 -4 12 -44 26 -88 14 -44 28 -86 30 -92 7 -25 43 -15 36
9 -5 21 -6 21 -12 2 -8 -20 -8 -17 -51 129 -11 40 -29 64 -29 40z"/>
<path d="M580 3436 c0 -9 36 -185 50 -241 12 -51 12 -124 0 -85 -8 24 -8 24
-9 3 -1 -13 9 -33 20 -44 18 -18 20 -26 11 -40 -9 -14 -7 -23 10 -44 20 -26
20 -27 2 -60 -25 -48 -284 -304 -284 -282 0 9 -5 17 -11 17 -6 0 -9 -7 -5 -15
5 -14 -23 -75 -34 -75 -3 0 -13 30 -22 68 -18 70 -37 135 -112 392 -25 85 -46
166 -46 180 0 18 -3 21 -12 12 -9 -9 -2 -44 29 -149 103 -346 143 -485 143
-494 0 -12 -105 -12 -209 1 -53 7 -87 8 -94 1 -9 -9 42 -15 236 -26 82 -4 98
-3 104 10 3 9 22 25 43 35 21 11 47 32 58 47 27 37 36 26 14 -18 -11 -22 -27
-37 -48 -43 -29 -9 -31 -12 -27 -45 4 -29 0 -40 -18 -56 -12 -11 -19 -14 -15
-7 5 8 -1 12 -21 11 -15 0 -22 -3 -15 -6 21 -8 13 -21 -15 -26 -26 -4 -25 -4
5 -6 55 -2 91 23 98 69 5 28 15 47 33 59 15 11 33 32 41 48 8 15 30 45 49 65
19 21 32 40 29 43 -3 4 -18 -6 -32 -22 -14 -15 -26 -24 -26 -18 0 19 63 73 79
68 12 -4 13 -3 2 5 -19 14 -3 20 70 28 48 4 68 11 81 27 9 12 20 18 24 14 4
-4 2 -7 -4 -7 -6 0 -17 -18 -23 -40 -7 -23 -33 -65 -58 -94 -38 -43 -128 -156
-222 -278 -15 -20 -16 -20 -173 -3 -87 9 -160 14 -163 11 -8 -8 32 -14 172
-26 72 -6 137 -13 145 -16 10 -2 27 13 45 40 31 45 92 121 182 229 29 34 64
85 77 114 13 28 34 58 45 65 12 7 21 20 21 28 0 19 -71 21 -83 2 -5 -7 -13 -9
-19 -6 -7 5 -9 2 -6 -7 3 -8 0 -19 -7 -26 -20 -18 -18 77 2 99 8 9 13 24 10
33 -7 17 -2 18 28 5 18 -8 19 -9 1 -9 -16 -1 -16 -3 5 -22 24 -20 24 -20 1 -9
-30 15 -37 8 -15 -13 25 -22 82 -36 67 -16 -17 22 -24 49 -14 49 6 0 10 -9 10
-19 0 -20 18 -31 51 -31 27 0 24 -6 -17 -42 -19 -17 -46 -53 -60 -79 -13 -27
-38 -64 -55 -84 -41 -47 -113 -139 -190 -245 -34 -47 -87 -111 -118 -143 -56
-58 -83 -94 -209 -282 -37 -55 -94 -135 -126 -177 -32 -43 -56 -82 -54 -89 4
-12 39 35 154 206 108 160 202 285 263 350 32 33 72 83 91 110 19 28 77 104
130 171 53 67 111 146 129 177 41 72 79 99 147 105 52 4 52 4 59 -28 5 -21 3
-36 -5 -43 -10 -9 -11 -6 -6 13 7 24 6 24 -9 6 -8 -11 -13 -28 -10 -38 7 -20
-14 -98 -27 -98 -4 0 -8 -5 -8 -11 0 -5 5 -7 11 -3 8 4 8 0 0 -15 -7 -12 -8
-20 -4 -19 4 1 24 -6 43 -17 19 -10 41 -20 49 -21 8 -2 30 -19 49 -38 37 -39
59 -47 42 -17 -21 39 -13 46 47 44 58 -3 58 -3 20 12 -21 8 -44 12 -52 9 -9
-4 -15 0 -15 7 0 8 -16 25 -35 39 -60 45 -62 65 -10 117 40 41 54 63 41 63 -3
0 -23 -18 -46 -41 -60 -60 -75 -47 -52 45 11 41 47 84 112 132 21 16 43 39 49
52 6 12 15 22 19 22 12 0 45 -86 46 -121 1 -15 4 -25 9 -22 17 10 4 64 -33
143 -57 116 -59 146 -20 250 41 109 50 140 42 140 -9 0 -45 -81 -63 -140 -14
-45 -14 -45 -17 -5 -1 22 4 65 12 95 14 52 14 71 0 57 -29 -29 -32 -247 -5
-327 23 -64 22 -66 -87 -166 -67 -61 -67 -61 -134 -62 -47 0 -70 4 -79 14 -6
8 -20 14 -30 14 -10 0 -21 5 -24 10 -8 13 45 2 60 -11 5 -5 25 -9 44 -9 35 0
35 0 13 20 -12 12 -22 27 -22 35 0 8 -6 15 -12 16 -56 3 -82 17 -102 54 -11
20 -41 48 -67 65 -40 24 -49 35 -54 67 -4 21 -11 53 -17 71 -16 52 -7 47 75
-37 42 -44 77 -74 77 -67 0 7 -36 48 -81 91 -76 74 -82 83 -96 144 -14 57 -33
102 -33 77z m160 -386 c30 -28 39 -50 21 -50 -12 0 -91 71 -91 81 0 14 41 -4
70 -31z m48 -71 c89 -31 114 -49 71 -49 -27 0 -170 59 -189 78 -19 18 -12 17
118 -29z m-128 -144 c0 -8 -6 -15 -14 -15 -8 0 -22 -3 -31 -7 -16 -5 -15 -4 1
15 21 25 44 29 44 7z m308 -140 c-10 -21 -28 -35 -28 -21 0 18 22 56 30 51 6
-4 5 -15 -2 -30z m96 -63 c38 -29 30 -35 -23 -16 -23 8 -47 12 -52 9 -11 -7
-11 1 -3 42 6 30 6 30 27 9 12 -12 35 -31 51 -44z"/>
<path d="M977 3400 c-21 -133 -21 -150 2 -174 23 -25 108 -62 118 -53 3 3 -12
13 -33 21 -86 35 -101 60 -84 139 7 28 10 66 8 82 -3 27 -5 25 -11 -15z"/>
<path d="M826 3263 c3 -82 9 -163 14 -180 4 -18 6 -33 3 -33 -11 0 -71 46
-115 89 -27 25 -48 40 -48 34 0 -14 114 -120 138 -127 11 -4 24 -16 31 -29 9
-18 10 -9 6 48 -3 39 -8 132 -12 208 -3 75 -10 137 -14 137 -4 0 -6 -66 -3
-147z"/>
<path d="M1276 3378 c-32 -77 -47 -105 -75 -138 -16 -19 -32 -45 -36 -58 -7
-23 -7 -23 31 -1 21 11 51 35 66 52 28 32 37 54 18 42 -15 -9 -12 61 4 100 8
19 13 35 10 35 -2 0 -10 -15 -18 -32z m-26 -137 c-11 -22 -49 -51 -64 -51 -5
0 0 9 12 20 12 12 22 25 22 31 0 6 4 8 9 4 5 -3 12 -1 16 5 11 18 16 10 5 -9z"/>
<path d="M1021 3389 c-13 -5 -22 -12 -19 -15 3 -3 21 2 39 10 37 16 19 21 -20
5z"/>
<path d="M1398 3272 c-1 -4 -21 -21 -42 -37 -22 -17 -37 -24 -32 -17 16 26 -6
10 -54 -40 -27 -28 -48 -53 -46 -56 7 -6 54 28 60 43 3 8 27 25 53 39 45 23
96 76 74 76 -5 0 -11 -4 -13 -8z"/>
<path d="M883 3025 c0 -27 2 -38 4 -22 2 15 2 37 0 50 -2 12 -4 0 -4 -28z"/>
<path d="M1157 2935 c-21 -20 -37 -41 -37 -47 0 -6 11 -1 25 12 14 13 26 22
28 19 1 -2 16 -31 32 -64 18 -36 31 -53 33 -43 2 10 -9 38 -23 63 -19 31 -25
53 -21 70 8 32 6 32 -37 -10z"/>
<path d="M1256 2885 c-20 -46 -20 -51 -2 -36 15 13 30 60 22 68 -3 3 -12 -12
-20 -32z"/>
<path d="M1143 2838 c-10 -38 -10 -41 3 -24 12 17 20 66 11 66 -2 0 -8 -19
-14 -42z"/>
<path d="M922 2745 c-7 -14 -12 -34 -11 -43 0 -9 7 1 15 22 16 45 13 59 -4 21z"/>
<path d="M260 2530 c-14 -4 -47 -8 -74 -9 -63 -1 -55 -11 10 -13 45 -1 104 14
104 27 0 6 -8 5 -40 -5z"/>
<path d="M1947 2396 c-15 -14 -37 -27 -49 -31 -72 -20 -98 -38 -98 -68 0 -31
26 -61 64 -73 11 -4 41 -22 66 -41 25 -18 56 -41 68 -51 26 -18 119 -102 276
-247 95 -87 146 -150 146 -179 0 -8 6 -16 14 -19 18 -7 56 3 56 14 0 5 3 8 8
6 11 -3 57 36 57 50 0 21 -13 25 -19 6 -6 -20 -55 -53 -78 -53 -8 0 -25 22
-38 50 -23 49 -65 94 -170 180 -30 25 -57 47 -60 51 -11 13 -279 237 -328 274
-53 40 -53 40 -31 57 30 25 49 23 49 -6 0 -14 5 -28 11 -32 17 -10 89 -13 89
-4 0 5 -19 10 -42 12 -39 3 -43 6 -46 31 -3 27 4 31 46 30 6 -1 12 8 12 18 0
23 43 36 73 22 12 -6 67 -47 122 -91 102 -82 231 -199 206 -186 -8 4 -12 3 -8
-2 7 -12 -9 -41 -18 -32 -4 3 -2 16 5 27 12 24 11 25 -27 10 -27 -10 -27 -10
21 -55 27 -25 55 -43 63 -40 20 8 15 26 -7 26 -13 0 -20 7 -20 20 0 11 0 23 0
28 0 17 22 3 90 -58 40 -36 80 -69 89 -74 59 -32 -293 280 -448 396 -84 64
-106 69 -144 34z"/>
<path d="M1935 2330 c3 -5 12 -10 20 -10 7 0 19 -13 27 -30 14 -33 54 -42 64
-15 4 8 12 15 20 15 8 0 14 5 14 10 0 7 -8 7 -22 -1 -16 -9 -23 -9 -26 0 -2 6
-8 11 -14 11 -6 0 -7 -8 -4 -17 3 -10 -6 -3 -21 15 -25 28 -74 48 -58 22z"/>
<path d="M1955 2250 c-3 -5 3 -10 14 -10 12 0 21 5 21 10 0 6 -6 10 -14 10 -8
0 -18 -4 -21 -10z"/>
<path d="M2086 2235 c-8 -8 -22 -12 -30 -9 -9 3 -16 2 -16 -4 0 -6 -3 -19 -6
-29 -5 -17 -5 -17 6 0 15 23 29 22 23 -2 -8 -32 38 -55 92 -47 36 6 45 11 45
28 0 25 -47 83 -53 65 -3 -9 -9 -9 -25 0 -17 10 -24 10 -36 -2z m89 -51 c0
-27 -78 -28 -83 -1 -4 21 34 38 63 27 11 -4 20 -16 20 -26z"/>
<path d="M1814 2206 c-1 -15 3 -23 10 -20 6 2 21 -18 33 -45 13 -26 30 -54 38
-61 15 -13 21 -2 8 16 -5 5 -1 2 7 -7 9 -9 26 -21 38 -28 12 -6 22 -17 22 -24
0 -8 -4 -7 -10 3 -5 8 -11 12 -14 9 -5 -5 51 -69 61 -69 4 0 -4 11 -17 25 -13
14 -19 25 -13 25 6 0 26 -17 45 -38 39 -43 100 -92 114 -92 5 1 -2 10 -15 21
-104 86 -252 236 -263 265 -8 23 -15 30 -20 21 -5 -8 -8 -7 -8 6 0 26 -15 20
-16 -7z"/>
<path d="M2201 2150 c-13 -11 -34 -20 -47 -20 -12 0 -26 -4 -29 -10 -3 -5 0
-10 8 -10 8 0 17 -7 21 -15 8 -23 28 -18 21 5 -5 15 -2 20 13 20 11 0 23 7 26
15 4 12 10 14 25 5 25 -13 28 -13 34 4 4 10 0 12 -14 9 -10 -3 -19 0 -19 6 0
16 -12 13 -39 -9z"/>
<path d="M2180 2060 c0 -5 17 -21 38 -35 32 -22 37 -23 41 -9 2 10 -7 25 -20
35 -26 20 -59 25 -59 9z"/>
<path d="M2272 1998 c5 -15 28 -23 28 -10 0 5 -7 13 -16 16 -10 4 -14 1 -12
-6z"/>
<path d="M2375 1992 c-16 -8 -24 -17 -17 -20 14 -4 72 19 72 30 0 12 -21 8
-55 -10z"/>
<path d="M2465 1940 c-3 -5 3 -10 15 -10 12 0 18 5 15 10 -3 6 -10 10 -15 10
-5 0 -12 -4 -15 -10z"/>
<path d="M690 1896 c0 -39 5 -49 44 -86 54 -51 60 -73 41 -136 -22 -74 -20
-143 7 -171 12 -13 23 -39 24 -59 2 -19 13 -51 25 -71 12 -19 24 -54 27 -76 7
-64 15 -59 10 6 -3 31 -2 57 2 57 21 0 69 -23 64 -31 -3 -5 1 -9 10 -9 8 0 17
6 19 13 11 25 7 -41 -4 -71 -15 -43 -86 -85 -189 -111 -47 -12 -123 -38 -170
-57 -47 -19 -102 -34 -123 -34 -47 0 -110 -31 -138 -69 -21 -29 -21 -29 -151
50 -71 44 -133 79 -138 79 -5 0 -18 12 -29 26 -18 23 -21 24 -21 8 0 -14 38
-42 138 -102 198 -120 312 -202 312 -226 0 -8 15 -20 33 -27 41 -17 168 -112
185 -138 16 -28 27 -26 28 4 3 41 20 53 72 50 48 -2 83 -15 113 -42 25 -21
167 -63 215 -63 24 0 58 6 76 14 107 45 140 61 150 73 6 8 25 21 42 28 75 35
167 115 131 115 -8 0 -15 6 -15 13 0 8 -12 20 -27 27 -44 22 -63 41 -63 64 0
20 1 19 13 -3 6 -14 19 -27 27 -29 12 -4 13 -3 2 10 -10 13 -7 17 20 29 33 14
33 14 3 19 -30 6 -30 6 13 30 54 31 55 45 0 20 -24 -10 -45 -15 -48 -11 -7 11
-42 10 -56 -1 -8 -5 -14 -3 -18 7 -8 22 -26 19 -26 -5 0 -11 -4 -20 -10 -20
-5 0 -7 7 -3 16 5 13 2 15 -16 9 -12 -3 -21 -3 -20 2 5 27 -2 67 -10 55 -4 -7
-6 -24 -4 -37 6 -28 -28 -65 -59 -65 -17 0 -19 3 -10 12 7 7 12 19 12 28 0 9
-7 4 -18 -12 -17 -29 -46 -39 -36 -13 4 8 1 15 -5 15 -6 0 -11 -7 -11 -15 0
-16 -21 -29 -62 -39 -27 -6 -27 -6 -12 21 16 33 18 59 4 68 -6 3 -10 -5 -10
-19 0 -53 -18 -76 -82 -106 -35 -17 -68 -30 -75 -30 -9 0 -55 -19 -117 -48 -5
-3 -5 2 -1 9 4 8 -12 -6 -36 -30 -24 -23 -61 -52 -82 -63 -39 -19 -39 -19 -75
8 -42 32 -53 45 -46 56 7 12 -10 10 -22 -2 -8 -8 -18 -5 -34 8 -23 19 -23 19
63 61 48 22 92 41 99 41 7 1 24 7 38 16 19 12 21 14 5 10 -54 -12 -75 -20
-142 -52 -88 -42 -86 -42 -137 -1 -23 19 -49 36 -58 40 -21 7 -22 16 -5 38 26
35 90 69 128 69 20 0 75 16 121 35 46 20 128 47 182 62 66 17 119 38 155 62
56 36 56 36 59 100 1 35 6 80 12 100 6 23 6 49 1 68 -11 39 26 95 88 133 46
28 50 36 21 45 -11 4 -18 10 -15 15 3 5 16 5 31 0 21 -8 33 -4 79 30 110 82
209 93 298 33 46 -30 47 -30 93 -15 39 13 57 13 108 4 34 -7 119 -19 190 -27
206 -24 400 -89 442 -150 11 -15 33 -43 50 -63 17 -21 59 -80 94 -132 73 -111
69 -105 74 -99 6 5 -117 195 -145 225 -10 11 -16 24 -12 29 5 4 3 5 -4 1 -7
-3 -14 2 -17 12 -26 81 -241 165 -491 192 -55 5 -118 14 -140 20 -51 12 -137
13 -169 0 -20 -7 -32 -4 -61 16 -38 26 -99 43 -151 44 -25 0 -33 5 -38 25 -10
38 -65 72 -155 97 -81 21 -85 21 -150 5 -65 -17 -67 -17 -156 8 -49 14 -109
25 -132 25 -43 0 -43 0 -43 -44z m182 3 c70 -18 89 -20 131 -10 66 15 122 14
182 -4 59 -18 125 -60 125 -79 0 -24 -12 -46 -25 -46 -7 0 -33 -16 -59 -36
-26 -20 -53 -33 -61 -30 -9 3 -12 0 -8 -10 6 -16 -32 -20 -42 -4 -19 31 82
105 131 97 35 -6 47 6 18 17 -48 18 -124 -22 -162 -85 -21 -34 -27 -40 -30
-25 -7 31 -42 -33 -42 -76 0 -24 -8 -46 -25 -66 -13 -16 -21 -33 -17 -37 4 -5
2 -5 -5 -1 -7 4 -10 13 -6 21 3 9 -1 15 -11 15 -17 0 -20 12 -17 75 3 53 10
77 22 70 5 -4 9 -1 9 4 0 16 -16 13 -30 -4 -7 -8 -19 -15 -26 -15 -8 0 -14 -9
-14 -21 0 -12 -5 -19 -12 -16 -17 6 -78 -57 -78 -80 1 -16 2 -16 12 2 13 23
28 35 44 35 14 0 2 -76 -15 -93 -14 -14 -15 -97 -1 -97 6 0 8 15 5 38 -5 34
-3 39 34 65 28 19 42 24 47 16 4 -7 3 -9 -4 -5 -6 3 -13 2 -16 -3 -4 -5 6 -11
21 -13 32 -4 47 -43 37 -100 -10 -67 -66 -50 -81 24 -3 16 -10 31 -14 34 -13
8 -11 -12 5 -51 17 -40 17 -40 -28 -21 -40 17 -60 82 -34 113 11 14 11 15 -2
11 -50 -18 -67 67 -34 178 17 61 12 75 -55 138 -23 22 -31 39 -31 63 0 32 1
33 40 33 22 0 77 -10 122 -21z m471 -926 c9 -2 18 -14 18 -26 1 -17 3 -15 9 8
8 30 8 30 9 -6 2 -55 22 -109 32 -83 7 16 8 17 8 2 1 -10 9 -18 19 -18 14 0
15 2 2 10 -8 5 -10 10 -4 10 15 0 36 -25 28 -33 -3 -3 -12 -3 -18 -1 -7 3 -18
-1 -25 -9 -9 -12 -5 -13 31 -7 38 7 41 7 23 -6 -10 -8 -22 -14 -26 -14 -5 0
-21 -12 -36 -26 -15 -14 -42 -32 -60 -39 -18 -8 -42 -23 -54 -33 -11 -11 -48
-30 -82 -42 -34 -12 -66 -26 -71 -31 -28 -26 -206 20 -276 70 -57 41 -199 46
-184 6 10 -25 -13 -24 -37 1 -19 21 -20 24 -5 18 12 -5 23 -2 30 7 25 34 137
100 216 129 47 18 113 43 148 56 35 13 91 26 125 28 34 2 63 5 65 6 1 1 6 3
12 4 5 0 15 7 21 13 12 12 47 15 82 6z"/>
<path d="M849 1854 c17 -14 31 -35 31 -46 0 -10 5 -29 11 -40 8 -15 8 -19 0
-14 -6 4 -11 2 -11 -3 0 -6 14 -11 31 -11 25 0 29 -3 21 -13 -8 -10 -6 -13 9
-13 10 0 19 5 19 11 0 24 -50 115 -63 115 -8 0 -22 9 -32 20 -10 11 -24 20
-32 20 -8 0 -1 -11 16 -26z m81 -90 c0 -8 -2 -14 -5 -14 -6 0 -35 56 -35 67 1
14 40 -39 40 -53z"/>
<path d="M1129 1841 c7 -5 17 -15 22 -22 6 -10 9 -8 9 9 0 16 -6 22 -22 22
-17 0 -19 -3 -9 -9z"/>
<path d="M815 1785 c4 -11 10 -45 14 -75 7 -51 8 -53 15 -24 5 25 11 31 27 27
10 -3 19 -2 19 1 0 11 -50 62 -50 51 -1 -6 -8 1 -16 15 -10 17 -13 18 -9 5z"/>
<path d="M947 1438 c4 -22 4 -23 -11 -4 -20 24 -20 17 -2 -18 13 -27 13 -27
20 -4 8 33 7 48 -3 48 -5 0 -7 -10 -4 -22z"/>
<path d="M2125 1875 c17 -13 34 -24 39 -25 17 0 -25 38 -47 44 -18 4 -16 1 8
-19z"/>
<path d="M2155 1890 c19 -36 47 -70 54 -65 11 6 63 -50 54 -58 -3 -4 2 -7 13
-8 10 0 14 -3 7 -6 -15 -6 18 -42 62 -69 22 -13 18 -7 -13 20 -24 21 -40 41
-37 44 3 3 19 -8 37 -24 31 -29 31 -29 12 -2 -10 15 -22 28 -25 28 -3 0 -30
23 -60 51 -97 92 -112 104 -104 89z"/>
<path d="M2380 1890 c0 -5 7 -10 15 -10 8 0 15 5 15 10 0 6 -7 10 -15 10 -8 0
-15 -4 -15 -10z"/>
<path d="M1838 1790 c2 -16 6 -30 8 -30 2 0 4 14 4 30 0 17 -4 30 -8 30 -5 0
-7 -13 -4 -30z"/>
<path d="M1227 1656 c-90 -70 -99 -80 -67 -72 23 6 23 6 5 -5 -19 -11 -59 -51
-100 -100 -20 -23 52 36 88 73 10 10 22 18 27 18 5 0 24 13 42 29 18 16 53 34
78 40 45 10 45 10 -10 6 -55 -5 -55 -5 -32 14 13 11 28 19 35 17 7 -1 8 -1 4
2 -4 2 -3 10 4 18 23 28 -8 11 -74 -40z m-3 -41 c-10 -8 -26 -14 -34 -15 -8 0
-2 9 15 20 33 22 49 18 19 -5z"/>
<path d="M1460 1650 c-41 -21 -68 -39 -59 -40 21 0 139 61 139 72 0 10 6 13
-80 -32z"/>
<path d="M680 1645 c0 -6 56 -35 67 -35 13 1 -41 40 -54 40 -7 0 -13 -2 -13
-5z"/>
<path d="M1720 1625 c-32 -18 -25 -18 25 0 22 8 31 14 20 14 -11 0 -31 -6 -45
-14z"/>
<path d="M1638 1583 c-15 -16 -45 -46 -68 -68 -66 -64 -149 -200 -179 -297 -7
-20 -21 -48 -31 -61 -10 -13 -21 -37 -24 -53 -6 -29 -6 -29 6 -3 7 14 18 32
24 40 6 8 19 36 29 62 19 51 42 76 32 36 -3 -13 -2 -33 2 -44 8 -20 8 -20 15
1 7 23 10 82 5 99 -9 32 83 167 173 254 35 34 58 61 53 61 -6 0 -22 -12 -37
-27z"/>
<path d="M1774 1589 c-32 -9 -67 -39 -46 -39 6 0 14 4 17 10 3 5 27 16 53 24
26 8 38 15 27 14 -11 0 -34 -4 -51 -9z"/>
<path d="M1385 1571 c-3 -5 -1 -12 5 -16 12 -7 30 2 30 16 0 12 -27 12 -35 0z"/>
<path d="M1225 1551 c-3 -6 -18 -8 -33 -5 -27 6 -27 6 -4 -11 22 -16 25 -16
40 -1 9 8 13 18 10 21 -3 4 -9 2 -13 -4z"/>
<path d="M1198 1502 c-22 -4 -22 -9 -4 -27 11 -12 16 -12 24 -2 14 17 2 34
-20 29z"/>
<path d="M1665 1479 c-21 -16 -44 -28 -51 -25 -14 5 -64 -40 -64 -59 0 -7 -21
-32 -47 -54 -26 -22 -45 -43 -42 -46 4 -3 37 24 75 61 38 36 61 61 52 54 -12
-8 -18 -9 -18 -2 0 13 13 22 40 27 19 4 110 62 110 70 0 11 -17 3 -55 -26z"/>
<path d="M1767 1480 c-20 -15 -45 -26 -55 -23 -10 2 -29 -8 -46 -26 -17 -17
-25 -31 -20 -31 6 0 21 11 34 25 13 14 28 25 33 25 20 0 -37 -50 -75 -67 -35
-16 -38 -19 -22 -30 17 -12 17 -15 -3 -50 -12 -21 -27 -57 -34 -80 -6 -23 -16
-40 -20 -37 -5 3 -9 -7 -9 -21 0 -14 -9 -44 -20 -65 -11 -22 -18 -40 -14 -40
10 0 33 27 27 33 -3 3 4 17 15 32 11 14 26 49 32 78 7 28 23 70 35 92 13 22
21 45 19 50 -2 6 23 33 56 60 109 90 125 104 115 104 -5 0 -27 -13 -48 -29z"/>
<path d="M1855 1500 c-20 -9 -20 -9 0 -8 11 0 31 4 45 8 25 8 25 8 0 8 -14 0
-34 -3 -45 -8z"/>
<path d="M1332 1480 c7 -11 19 -20 27 -20 11 0 10 5 -4 20 -10 11 -22 20 -27
20 -4 0 -3 -9 4 -20z"/>
<path d="M1087 1443 c-20 -14 -37 -30 -37 -35 0 -5 10 0 22 11 12 12 30 23 40
27 10 3 18 10 18 15 0 13 -1 12 -43 -18z"/>
<path d="M2095 1461 c11 -5 36 -11 55 -15 35 -6 35 -6 0 8 -19 8 -44 15 -55
15 -20 0 -20 0 0 -8z"/>
<path d="M1321 1425 c-7 -16 -13 -41 -13 -55 0 -34 -7 -43 -24 -29 -11 9 -11
7 0 -17 24 -49 22 -70 -13 -133 -29 -52 -37 -59 -50 -48 -9 7 -8 2 3 -11 19
-22 19 -23 -8 -51 -16 -17 -25 -34 -21 -41 9 -15 45 38 68 101 10 25 29 61 42
79 14 19 25 39 25 46 0 6 6 17 14 23 8 7 18 27 22 44 3 18 16 45 27 60 18 26
18 30 4 44 -15 15 -15 14 -10 -5 3 -13 -3 -31 -16 -48 -12 -15 -21 -33 -21
-40 0 -7 -3 -15 -7 -17 -5 -3 -6 14 -5 37 2 24 2 54 0 67 -4 23 -5 23 -17 -6z"/>
<path d="M2060 1430 c8 -5 22 -10 30 -10 13 0 13 1 0 10 -8 5 -22 10 -30 10
-13 0 -13 -1 0 -10z"/>
<path d="M1825 1401 c-17 -4 -40 -13 -50 -20 -18 -11 -18 -11 5 -5 14 4 50 13
80 20 36 8 45 12 25 12 -16 0 -44 -3 -60 -7z"/>
<path d="M2096 1388 c11 -7 36 -30 53 -50 18 -21 41 -38 51 -38 9 0 30 -10 45
-22 18 -14 26 -17 23 -7 -2 8 -24 24 -48 36 -25 11 -56 34 -70 51 -14 16 -36
32 -50 36 -24 7 -24 6 -4 -6z"/>
<path d="M2270 1358 c41 -45 50 -53 50 -45 0 2 -21 23 -47 47 -48 45 -48 45
-3 -2z"/>
<path d="M1960 1339 c-11 -7 -1 -8 35 -3 28 4 52 8 54 10 10 9 -76 3 -89 -7z"/>
<path d="M1057 1281 c-23 -40 -21 -52 16 -81 18 -13 26 -17 19 -8 -7 9 -12 29
-9 45 4 28 4 28 12 -6 12 -51 115 -150 115 -111 0 6 -4 10 -8 10 -4 0 -8 9 -9
20 -1 12 3 18 8 14 6 -3 -1 17 -16 46 -14 29 -29 49 -32 46 -3 -3 4 -21 16
-41 23 -40 26 -49 11 -40 -6 4 -21 27 -35 53 -16 32 -24 40 -25 27 0 -12 4
-25 8 -30 21 -24 53 -85 44 -85 -12 0 -82 132 -82 154 0 25 -14 19 -33 -13z"/>
<path d="M2170 1275 c24 -32 43 -44 84 -56 22 -6 55 -22 73 -36 18 -14 33 -21
33 -16 0 15 -82 66 -106 68 -12 0 -39 14 -60 30 -25 18 -34 22 -24 10z"/>
<path d="M1909 1265 c18 -8 38 -15 45 -15 6 1 -4 7 -23 15 -18 8 -38 15 -45
15 -6 -1 4 -7 23 -15z"/>
<path d="M1897 1187 c22 -12 71 -49 107 -83 36 -33 78 -66 93 -72 23 -10 25
-9 9 1 -10 6 -48 40 -85 75 -64 61 -127 102 -153 102 -7 -1 6 -11 29 -23z"/>
<path d="M1331 1186 c-8 -10 -9 -16 -1 -21 5 -3 13 1 16 10 9 22 -1 29 -15 11z"/>
<path d="M1467 1145 c-9 -64 -9 -85 2 -85 11 0 21 101 11 119 -4 8 -10 -5 -13
-34z"/>
<path d="M985 1129 c61 -25 75 -36 68 -55 -3 -9 2 -14 16 -14 14 0 25 -9 31
-25 8 -21 13 -24 29 -16 10 6 21 7 25 4 3 -3 6 8 6 25 0 36 -17 44 -22 10 -5
-34 -20 -30 -58 17 -33 40 -95 76 -130 74 -8 0 7 -9 35 -20z"/>
<path d="M1566 1035 c-42 -37 -42 -46 0 -19 20 14 53 55 42 54 -2 -1 -21 -16
-42 -35z"/>
<path d="M1647 1036 c-27 -13 -58 -33 -70 -43 -12 -11 -31 -23 -42 -28 -13 -5
-16 -9 -7 -12 7 -3 31 8 54 24 22 15 55 37 74 49 65 39 60 44 -9 10z"/>
<path d="M931 1031 c-1 -15 -6 -21 -14 -18 -10 4 -13 -6 -11 -37 1 -22 5 -40
8 -38 3 1 10 2 15 2 12 0 41 29 41 41 0 5 -6 9 -14 9 -8 0 -18 4 -21 10 -4 6
1 7 12 4 11 -4 14 -3 7 3 -7 4 -14 17 -17 28 -4 17 -5 17 -6 -4z"/>
<path d="M2145 1032 c13 -12 73 -32 94 -31 15 0 -23 17 -79 34 -16 5 -22 4
-15 -3z"/>
<path d="M553 1005 c-7 -8 -20 -18 -29 -23 -9 -5 -15 -14 -13 -20 2 -6 20 5
39 24 19 19 30 34 25 34 -6 -1 -16 -7 -22 -15z"/>
<path d="M615 850 c3 -5 12 -10 20 -10 8 0 17 5 20 10 4 6 -5 10 -20 10 -15 0
-24 -4 -20 -10z"/>
<path d="M1904 827 c8 -26 87 -139 93 -133 3 2 -10 26 -29 51 -18 26 -41 59
-52 74 -10 14 -15 18 -12 8z"/>
<path d="M598 803 c12 -2 30 -2 40 0 9 3 -1 5 -23 4 -22 0 -30 -2 -17 -4z"/>
<path d="M1860 710 c17 -33 33 -60 35 -60 3 0 -8 27 -25 60 -17 33 -33 60 -35
60 -3 0 8 -27 25 -60z"/>
<path d="M1516 695 c-14 -22 -16 -35 -8 -78 6 -30 10 -41 11 -25 0 15 6 30 11
33 6 3 10 11 10 17 0 7 -6 6 -15 -2 -20 -17 -20 5 0 44 20 37 13 45 -9 11z"/>
<path d="M1750 673 c0 -5 3 -13 8 -17 4 -4 12 -24 18 -44 12 -37 12 -37 13 -6
1 18 -7 41 -19 54 -11 13 -20 19 -20 13z"/>
<path d="M1999 643 c12 -24 23 -43 26 -43 8 0 -18 54 -33 70 -8 8 -5 -4 7 -27z"/>
<path d="M741 607 c19 -18 41 -44 49 -59 7 -16 15 -26 18 -23 3 2 -1 11 -8 20
-7 8 -9 15 -5 15 13 0 130 -114 130 -126 0 -6 15 -25 33 -43 37 -38 44 -25 7
15 -14 15 -25 31 -25 35 0 14 55 11 102 -5 72 -25 142 -29 213 -15 49 10 74
10 95 2 33 -12 58 4 85 57 21 41 25 38 22 -22 -2 -42 1 -53 15 -56 9 -2 18 5
21 15 4 14 5 13 6 -4 0 -13 6 -23 12 -23 7 0 8 7 3 18 -4 9 -7 36 -6 60 1 23
-2 42 -8 42 -5 0 -10 -12 -11 -27 -1 -53 -18 -73 -19 -23 -1 53 -3 90 -7 90
-1 0 -14 -20 -28 -44 -31 -52 -66 -86 -72 -69 -2 7 -10 10 -18 7 -23 -9 -25
12 -6 70 11 34 14 56 8 56 -6 0 -2 6 9 14 10 8 17 17 14 19 -3 3 -16 -3 -29
-14 -13 -10 -18 -19 -12 -19 6 0 11 -7 11 -16 0 -14 -3 -14 -15 -4 -22 18 -18
36 12 59 14 12 24 24 20 27 -12 13 -67 -52 -72 -86 -3 -19 -7 -48 -10 -65 -5
-30 -5 -30 9 1 19 40 46 64 46 40 0 -84 -129 -123 -266 -81 -27 8 -68 15 -92
15 -37 0 -49 6 -100 53 -79 73 -147 127 -158 127 -5 -1 7 -15 27 -33z"/>
<path d="M1800 610 c0 -8 7 -23 15 -33 7 -10 19 -41 25 -68 7 -27 16 -49 21
-49 13 0 11 14 -10 69 -21 55 -51 104 -51 81z"/>
<path d="M1412 577 c-6 -12 -13 -32 -16 -44 -3 -13 -9 -33 -12 -45 -5 -19 -4
-21 7 -10 12 11 41 113 35 119 -2 2 -8 -7 -14 -20z"/>
<path d="M1371 543 c0 -12 -4 -30 -7 -40 -5 -14 -4 -15 5 -7 7 6 11 24 8 40
-3 21 -4 23 -6 7z"/>
<path d="M1680 505 c4 -25 10 -48 13 -52 9 -8 9 44 1 75 -11 40 -21 23 -14
-23z"/>
<path d="M1605 510 c3 -19 10 -39 15 -44 7 -7 7 -1 1 19 -17 54 -21 61 -16 25z"/>
<path d="M1961 535 c16 -42 83 -158 86 -149 5 14 -51 122 -74 144 -9 8 -14 11
-12 5z"/>
<path d="M2161 525 c0 -6 9 -28 20 -50 19 -40 19 -40 14 -5 -5 30 -36 81 -34
55z"/>
<path d="M1720 471 c0 -6 5 -13 10 -16 6 -3 10 -14 10 -25 0 -10 6 -20 14 -23
10 -4 8 5 -6 34 -18 38 -28 49 -28 30z"/>
<path d="M1638 433 c16 -31 24 -75 12 -68 -6 4 -10 -4 -10 -18 0 -25 -76 -87
-106 -87 -14 0 -88 -37 -125 -63 -38 -28 -13 -19 75 23 46 23 97 40 117 40 19
0 57 7 84 16 28 9 93 20 145 24 114 10 231 41 282 75 21 14 68 34 105 45 67
20 67 20 20 16 -29 -2 -75 -18 -120 -41 -91 -48 -182 -74 -277 -80 -41 -3
-108 -15 -148 -27 -87 -25 -98 -19 -48 26 31 29 36 39 31 63 -9 38 -26 73 -37
73 -5 0 -5 -8 0 -17z"/>
<path d="M1543 392 c22 -24 21 -28 -5 -64 -14 -20 -16 -29 -7 -26 7 2 22 19
33 37 18 30 18 33 1 51 -10 11 -23 20 -28 20 -6 0 -3 -8 6 -18z"/>
<path d="M1050 340 c117 -110 190 -160 235 -160 51 0 65 10 74 50 5 28 13 35
46 46 56 17 33 16 -97 -2 -132 -18 -158 -30 -45 -20 78 7 78 7 75 -21 -3 -24
-8 -28 -40 -31 -49 -4 -81 14 -191 107 -116 97 -142 111 -57 31z"/>
<path d="M1210 341 c0 -6 13 -17 30 -26 34 -18 44 -19 35 -5 -10 16 -65 42
-65 31z"/>
<path d="M346 234 c-123 -66 -143 -88 -25 -28 39 19 84 36 99 36 38 1 193 -91
278 -164 18 -15 38 -28 45 -28 25 0 -174 145 -260 189 -55 27 -78 27 -137 -5z"/>
<path d="M1495 183 c-10 -21 -20 -42 -23 -48 -12 -24 16 13 37 48 13 20 18 37
13 37 -5 0 -18 -17 -27 -37z"/>
<path d="M1213 149 c-17 -11 -41 -40 -53 -65 -31 -68 -19 -75 15 -9 21 40 39
61 58 67 15 6 27 14 27 19 0 14 -12 11 -47 -12z"/>
</g>
</svg>
