<?xml version="1.0" standalone="no"?>
<!DOCTYPE svg PUBLIC "-//W3C//DTD SVG 20010904//EN"
 "http://www.w3.org/TR/2001/REC-SVG-20010904/DTD/svg10.dtd">
<svg version="1.0" xmlns="http://www.w3.org/2000/svg"
 width="256.000000pt" height="344.000000pt" viewBox="0 0 256.000000 344.000000"
 preserveAspectRatio="xMidYMid meet">
<metadata>
Created by potrace 1.16, written by Peter Selinger 2001-2019
</metadata>
<g transform="translate(0.000000,344.000000) scale(0.100000,-0.100000)"
fill="#000000" stroke="none">
<path d="M60 3436 c0 -4 12 -44 26 -89 14 -45 28 -88 30 -94 2 -7 7 -13 12
-13 8 0 -48 183 -60 196 -5 4 -8 4 -8 0z"/>
<path d="M580 3440 c0 -3 15 -79 34 -170 25 -123 31 -168 23 -179 -9 -10 -7
-16 6 -26 20 -14 23 -41 5 -47 -8 -3 -5 -11 10 -23 27 -24 27 -36 3 -76 -33
-53 -276 -293 -279 -275 -2 9 -7 16 -12 16 -5 0 -7 -7 -4 -14 5 -14 -24 -76
-36 -76 -3 0 -13 30 -22 68 -10 37 -31 112 -48 167 -47 155 -110 383 -110 400
0 8 -4 15 -10 15 -14 0 -13 -9 10 -81 29 -96 152 -521 157 -546 5 -22 3 -23
-68 -22 -41 0 -99 4 -130 8 -30 3 -66 4 -80 0 -29 -7 58 -17 209 -22 82 -3
105 -1 109 10 3 8 23 23 44 33 21 11 46 33 55 49 21 36 37 31 23 -7 -15 -40
-39 -62 -66 -62 -20 0 -22 -4 -17 -25 12 -49 -2 -75 -38 -68 -21 4 -29 3 -24
-5 4 -6 14 -8 24 -5 9 3 14 3 10 -2 -4 -4 -25 -11 -45 -15 -38 -8 -38 -8 0 -9
47 -1 97 42 97 83 0 16 9 32 26 42 14 9 32 31 41 48 8 17 31 48 51 69 20 20
30 37 23 37 -7 0 -21 -10 -32 -22 -10 -13 -18 -18 -18 -13 0 6 16 27 35 48 38
41 76 57 136 57 28 0 44 7 63 27 14 15 25 23 25 17 0 -7 -6 -17 -14 -23 -7 -6
-16 -24 -19 -39 -3 -15 -36 -63 -72 -107 -143 -174 -172 -211 -191 -243 -19
-34 -19 -34 -99 -27 -44 4 -109 11 -145 16 -84 11 -120 11 -100 0 8 -5 78 -14
155 -20 77 -7 147 -14 155 -16 9 -3 25 10 40 33 34 50 155 205 206 261 22 25
53 72 68 104 15 31 34 57 42 57 8 0 14 7 14 15 0 18 -48 20 -85 3 -18 -8 -22
-14 -13 -20 9 -5 7 -8 -7 -8 -17 0 -18 -2 -5 -11 11 -7 5 -8 -23 -3 -24 4 -43
2 -52 -6 -22 -18 -18 1 6 30 20 24 21 24 35 5 15 -20 17 -16 14 27 -1 15 6 38
15 52 9 14 14 30 10 37 -5 8 -1 9 16 4 48 -16 79 -32 73 -38 -11 -11 17 -37
40 -36 21 0 21 0 0 9 -12 5 -25 14 -29 20 -9 14 54 4 70 -11 5 -5 22 -9 39 -9
26 0 28 2 14 13 -8 6 -20 21 -26 32 -6 11 -28 23 -53 30 -30 7 -47 18 -56 34
-18 37 -58 77 -92 90 -24 11 -31 21 -36 54 -4 23 -11 57 -17 75 -16 52 -7 48
77 -35 43 -43 68 -64 57 -48 -11 17 -49 58 -85 92 -58 56 -65 68 -76 120 -9
47 -30 104 -31 83z m174 -403 c25 -34 18 -41 -23 -24 -17 7 -29 16 -26 19 3 2
-4 13 -15 23 -11 10 -20 22 -20 27 0 16 64 -18 84 -45z m-9 -43 c39 -14 85
-30 103 -35 36 -11 43 -29 11 -29 -27 0 -170 57 -189 76 -20 20 -6 17 75 -12z"/>
<path d="M977 3395 c-24 -162 -22 -170 61 -206 66 -29 75 -22 12 9 -72 35 -87
65 -70 136 6 28 10 65 8 81 -3 25 -5 21 -11 -20z"/>
<path d="M1148 3418 c-21 -37 -17 -273 6 -320 22 -46 15 -59 -88 -151 -74 -67
-74 -67 -139 -67 -73 0 -117 -22 -152 -77 -11 -18 -32 -51 -47 -75 -15 -24
-57 -79 -92 -123 -36 -44 -97 -123 -135 -175 -38 -52 -86 -111 -106 -130 -37
-35 -155 -194 -259 -350 -31 -47 -75 -111 -98 -142 -23 -32 -39 -60 -36 -63 3
-3 20 17 38 46 18 28 39 57 46 64 8 7 44 60 81 117 88 133 202 285 243 323 18
17 59 68 92 115 34 46 67 91 75 98 7 8 26 30 41 50 15 21 52 69 82 109 30 39
67 92 82 117 38 64 79 87 151 85 58 -2 58 -2 51 -33 -3 -17 -13 -44 -22 -61
-20 -39 -40 -116 -34 -133 4 -13 56 -44 80 -48 7 -1 28 -16 48 -33 32 -29 61
-44 37 -20 -24 24 -4 44 43 43 46 -2 49 8 5 21 -16 5 -21 4 -17 -4 5 -7 1 -9
-8 -5 -9 3 -16 11 -16 18 0 6 -16 22 -35 36 -59 44 -62 64 -13 116 59 62 61
78 5 27 -70 -65 -90 -53 -61 36 13 42 30 63 90 117 40 36 76 75 80 86 9 29 21
12 50 -68 20 -56 24 -61 20 -30 -3 22 -21 73 -41 115 -45 94 -53 147 -32 203
57 153 65 178 59 178 -9 0 -28 -42 -58 -130 -22 -65 -22 -65 -23 -14 -1 28 6
73 14 99 16 55 13 69 -7 33z m-168 -700 c-1 -17 -39 -67 -40 -51 0 21 19 63
30 63 5 0 10 -6 10 -12z m84 -86 c31 -24 30 -40 -2 -23 -11 6 -34 12 -51 13
-17 1 -31 8 -31 15 0 7 -5 13 -11 13 -5 0 -7 -4 -4 -10 3 -5 1 -10 -4 -10 -19
0 -12 22 9 27 12 3 20 14 20 26 0 19 1 19 23 -4 12 -13 35 -34 51 -47z"/>
<path d="M831 3325 c-3 -88 -1 -159 4 -200 1 -11 3 -30 4 -42 0 -13 6 -23 11
-23 7 0 9 13 5 33 -4 17 -10 97 -14 177 -7 134 -8 138 -10 55z"/>
<path d="M1028 3393 c-10 -2 -18 -8 -18 -13 0 -10 38 -1 46 11 5 9 1 10 -28 2z"/>
<path d="M1262 3335 c-1 -11 -22 -44 -46 -74 -24 -29 -46 -64 -49 -77 -6 -33
-2 -30 23 19 36 69 70 98 70 60 0 -9 -12 -31 -27 -47 -28 -31 -28 -31 5 -1 33
30 65 74 44 61 -7 -4 -12 10 -15 36 -2 24 -4 34 -5 23z"/>
<path d="M1371 3244 c-25 -19 -47 -31 -50 -27 -3 5 -28 -16 -56 -46 -27 -30
-41 -49 -29 -43 11 6 27 18 34 27 8 10 37 32 65 50 42 27 98 76 84 74 -2 0
-24 -16 -48 -35z"/>
<path d="M680 3174 c0 -13 90 -97 127 -119 17 -10 36 -28 42 -39 10 -21 10
-21 10 1 1 16 -9 28 -31 39 -18 9 -58 42 -90 72 -32 30 -58 51 -58 46z"/>
<path d="M883 3025 c0 -27 2 -38 4 -22 2 15 2 37 0 50 -2 12 -4 0 -4 -28z"/>
<path d="M1175 2948 c-24 -14 -54 -49 -54 -63 0 -5 11 3 24 20 13 16 25 27 27
25 6 -10 46 -96 54 -115 7 -19 7 -19 12 -1 2 10 -6 32 -19 49 -12 17 -23 46
-23 64 -1 18 -1 33 -1 33 0 0 -9 -6 -20 -12z"/>
<path d="M740 2936 c0 -15 21 -56 29 -56 13 0 -2 53 -17 58 -7 2 -12 1 -12 -2z"/>
<path d="M715 2910 c10 -11 20 -18 23 -15 7 6 -18 35 -31 35 -5 0 -2 -9 8 -20z"/>
<path d="M1255 2881 c-8 -17 -12 -31 -7 -31 10 0 35 50 28 57 -2 3 -12 -9 -21
-26z"/>
<path d="M921 2739 c-6 -18 -11 -37 -10 -43 0 -6 7 7 15 28 8 22 12 41 10 43
-2 2 -9 -10 -15 -28z"/>
<path d="M200 2520 c-55 -7 -55 -7 0 -8 30 -1 62 3 70 8 17 11 21 11 -70 0z"/>
<path d="M1958 2404 c-16 -8 -28 -19 -28 -24 0 -4 -15 -12 -32 -16 -70 -15
-98 -35 -98 -70 0 -17 6 -34 13 -38 6 -3 30 -17 52 -31 22 -13 49 -29 60 -34
26 -12 166 -129 235 -197 30 -30 66 -61 79 -70 44 -31 146 -144 172 -192 21
-39 30 -46 50 -44 13 2 26 8 27 13 2 5 8 9 14 9 30 0 63 48 46 66 -5 4 -8 0
-8 -9 0 -17 -58 -57 -82 -57 -8 0 -24 19 -34 42 -23 51 -70 102 -86 92 -6 -4
-8 -3 -4 4 6 10 -239 228 -426 380 -79 63 -101 76 -77 45 12 -17 12 -17 -6 0
-29 26 -9 49 63 71 35 11 62 25 62 33 0 18 47 28 74 15 21 -9 192 -143 241
-189 11 -10 63 -55 115 -99 52 -45 104 -92 115 -104 19 -21 55 -45 55 -36 0 4
-163 153 -226 206 -16 14 -58 50 -93 80 -100 86 -215 170 -231 170 -8 -1 -27
-8 -42 -16z"/>
<path d="M1940 2330 c0 -6 6 -10 14 -10 8 0 20 -14 28 -30 10 -24 18 -30 38
-28 14 2 23 7 20 13 -3 5 -10 9 -17 7 -6 -1 -19 8 -30 21 -20 25 -53 42 -53
27z"/>
<path d="M1880 2306 c0 -16 26 -40 33 -29 2 4 -4 16 -15 26 -13 13 -18 14 -18
3z"/>
<path d="M1945 2280 c3 -5 13 -10 21 -10 8 0 14 5 14 10 0 6 -9 10 -21 10 -11
0 -17 -4 -14 -10z"/>
<path d="M1960 2250 c0 -5 7 -10 15 -10 8 0 15 5 15 10 0 6 -7 10 -15 10 -8 0
-15 -4 -15 -10z"/>
<path d="M2079 2227 c-35 -27 -3 -87 47 -87 35 0 74 18 74 34 0 44 -84 81
-121 53z m95 -27 c20 -19 -3 -40 -43 -40 -49 0 -58 13 -31 40 21 21 51 20 74
0z"/>
<path d="M1840 2192 c0 -14 48 -112 55 -112 2 0 2 7 -1 15 -8 19 12 20 23 2
13 -23 144 -141 138 -125 -3 8 -27 33 -53 55 -80 70 -116 106 -139 143 -12 19
-23 29 -23 22z"/>
<path d="M2201 2150 c-13 -11 -34 -20 -47 -20 -29 0 -30 -5 -3 -33 21 -22 21
-22 14 1 -5 19 -3 22 19 22 17 0 26 5 26 16 0 10 5 14 15 10 8 -3 22 -9 30
-12 8 -3 15 -1 15 5 0 6 -7 11 -15 11 -8 0 -15 5 -15 10 0 15 -12 12 -39 -10z"/>
<path d="M2286 2113 c-6 -6 52 -63 64 -63 3 0 6 9 7 20 2 17 -2 20 -19 15 -17
-6 -19 -4 -13 14 6 21 -21 31 -39 14z"/>
<path d="M2180 2060 c0 -5 17 -21 38 -35 32 -22 37 -23 41 -9 2 10 -7 25 -20
35 -26 20 -59 25 -59 9z"/>
<path d="M2365 2041 c-7 -12 12 -24 25 -16 11 7 4 25 -10 25 -5 0 -11 -4 -15
-9z"/>
<path d="M2400 2000 c0 -5 -9 -10 -19 -10 -11 0 -23 -4 -26 -10 -10 -16 31
-12 45 5 7 8 17 12 23 8 6 -3 7 -1 3 5 -9 15 -26 16 -26 2z"/>
<path d="M2076 1948 c6 -18 53 -53 61 -45 2 3 -6 11 -19 18 -12 7 -29 19 -36
28 -11 14 -11 14 -6 -1z"/>
<path d="M690 1900 c0 -34 8 -48 50 -95 54 -59 55 -63 40 -114 -5 -18 -12 -63
-16 -100 -5 -62 -4 -67 20 -88 18 -16 26 -33 26 -54 0 -18 10 -48 22 -68 13
-20 25 -56 29 -81 6 -45 6 -45 8 -7 0 21 -4 47 -9 57 -10 18 -8 18 35 3 25 -8
45 -19 45 -24 0 -5 5 -9 11 -9 5 0 7 5 4 10 -3 6 -1 10 4 10 12 0 14 -32 5
-77 -8 -42 -85 -85 -204 -117 -52 -14 -128 -39 -169 -55 -41 -17 -89 -31 -107
-31 -48 0 -84 -16 -129 -59 -40 -39 -40 -39 -180 45 -77 46 -148 94 -158 105
-16 20 -17 20 -17 2 0 -14 34 -39 125 -92 172 -100 325 -211 325 -235 0 -7 11
-18 25 -24 15 -7 25 -8 25 -2 0 6 -6 10 -14 10 -8 0 -16 7 -20 15 -6 16 140
95 175 95 10 0 21 5 24 10 13 21 -92 -18 -206 -78 -3 -1 -26 16 -51 38 -25 22
-51 40 -56 40 -20 0 -23 19 -7 44 24 36 80 66 125 66 22 0 74 15 121 35 46 20
128 49 184 64 124 34 197 77 201 117 6 54 25 167 29 174 7 12 -24 80 -36 80
-5 0 -7 5 -3 11 3 6 1 15 -6 19 -17 10 -22 110 -8 128 6 7 8 15 5 19 -4 3 -9
-2 -13 -11 -3 -9 -12 -16 -20 -16 -8 0 -14 -6 -14 -14 0 -7 -9 -16 -21 -19
-13 -4 -18 -10 -13 -18 4 -7 3 -10 -3 -6 -15 9 -40 -14 -47 -43 -7 -24 -6 -24
9 3 10 17 24 27 40 27 13 0 30 3 39 6 9 3 16 1 16 -4 0 -6 -9 -14 -20 -17 -11
-4 -18 -11 -15 -16 4 -5 -5 -24 -19 -42 -25 -33 -37 -107 -18 -107 5 0 7 14 4
30 -4 28 35 80 60 80 3 0 8 8 10 18 3 14 5 13 10 -6 3 -12 2 -20 -3 -16 -5 3
-9 1 -9 -5 0 -5 10 -11 22 -13 27 -4 41 -47 32 -100 -9 -59 -49 -62 -72 -5
-26 63 -31 72 -31 59 -1 -7 6 -29 14 -49 8 -19 15 -37 15 -38 0 -2 -18 5 -40
16 -42 21 -59 63 -45 111 4 12 4 20 0 16 -4 -4 -16 -3 -26 3 -24 12 -26 102
-4 174 16 56 12 70 -45 130 -23 24 -40 53 -43 73 -5 32 -5 32 44 32 27 0 83
-9 125 -21 69 -19 83 -20 136 -9 137 29 312 -33 294 -105 -4 -14 -11 -25 -17
-25 -7 0 -34 -16 -61 -36 -28 -19 -57 -33 -65 -30 -8 4 -11 2 -7 -5 4 -6 0
-15 -7 -20 -7 -4 -11 -11 -7 -14 4 -4 31 12 62 35 110 83 208 94 300 34 37
-25 43 -26 83 -16 57 16 91 15 166 -2 34 -8 110 -19 168 -25 183 -19 371 -86
420 -150 13 -18 38 -49 54 -69 17 -20 57 -77 90 -127 71 -108 64 -99 70 -94 4
5 -108 177 -155 237 -70 91 -82 100 -164 136 -109 46 -174 63 -304 76 -59 7
-135 18 -169 26 -72 16 -134 18 -181 5 -28 -8 -39 -6 -80 20 -32 20 -66 31
-107 35 -55 6 -61 9 -75 38 -33 69 -195 119 -300 92 -60 -16 -64 -15 -158 9
-53 14 -113 25 -134 25 -38 0 -38 0 -38 -40z"/>
<path d="M848 1855 c16 -14 32 -35 35 -47 2 -13 8 -32 12 -42 6 -14 5 -17 -3
-12 -7 4 -12 3 -12 -2 0 -5 11 -9 25 -9 14 0 32 -9 40 -19 19 -25 19 -4 -1 45
-15 39 -90 111 -114 111 -6 0 2 -11 18 -25z m75 -70 c20 -42 4 -47 -18 -5 -17
33 -18 40 -7 40 5 0 16 -16 25 -35z"/>
<path d="M1142 1830 c14 -22 24 -19 15 5 -4 8 -11 15 -17 15 -6 0 -6 -7 2 -20z"/>
<path d="M2245 1800 c38 -39 45 -45 45 -35 0 10 -63 75 -73 75 -6 0 7 -18 28
-40z"/>
<path d="M1180 1778 c-52 -24 -120 -117 -120 -162 0 -14 -4 -26 -9 -26 -5 0
-5 14 -1 33 22 84 22 83 1 47 -11 -19 -20 -51 -21 -71 0 -21 -8 -44 -20 -57
-11 -12 -20 -25 -20 -29 0 -4 17 10 38 32 20 22 48 48 62 58 23 16 24 17 3 12
-21 -6 -22 -4 -12 24 11 32 29 51 29 32 0 -6 5 -11 11 -11 8 0 8 4 -1 15 -27
32 68 110 126 103 26 -3 31 -1 22 9 -15 18 -36 16 -88 -9z"/>
<path d="M824 1767 c3 -10 6 -40 7 -65 1 -47 1 -47 13 -9 6 21 15 35 19 31 4
-4 7 -3 7 2 0 14 -29 52 -30 39 0 -5 -5 -3 -11 5 -9 12 -10 12 -5 -3z"/>
<path d="M2300 1757 c0 -2 14 -16 32 -33 31 -29 31 -29 12 -2 -16 23 -44 45
-44 35z"/>
<path d="M2280 1747 c0 -2 15 -16 33 -33 32 -29 32 -29 3 4 -28 30 -36 37 -36
29z"/>
<path d="M1223 1652 c-39 -31 -75 -61 -79 -65 -12 -12 29 5 42 17 15 14 84 71
109 90 11 9 16 15 10 15 -5 0 -42 -26 -82 -57z"/>
<path d="M1517 1673 c-27 -7 -131 -63 -117 -63 13 0 140 60 140 66 0 2 -1 3
-2 3 -2 -1 -11 -3 -21 -6z"/>
<path d="M696 1635 c10 -8 24 -14 29 -14 6 0 1 6 -9 14 -11 8 -24 15 -30 15
-5 0 -1 -7 10 -15z"/>
<path d="M1090 1641 c0 -11 31 -24 39 -16 3 3 -1 10 -9 15 -19 12 -30 12 -30
1z"/>
<path d="M1183 1588 c-30 -17 -53 -37 -53 -46 0 -13 4 -11 16 6 8 12 21 22 27
22 7 0 26 11 42 25 39 32 31 30 -32 -7z"/>
<path d="M1748 1574 c-39 -21 -35 -28 5 -8 37 19 44 24 31 24 -5 -1 -21 -8
-36 -16z"/>
<path d="M1386 1571 c-3 -5 0 -11 8 -14 8 -3 17 1 20 9 6 15 -19 20 -28 5z"/>
<path d="M1586 1528 c-30 -29 -66 -69 -80 -88 -30 -41 -111 -204 -120 -240 -3
-14 5 -2 18 25 13 28 25 42 25 33 1 -10 5 -18 10 -18 14 0 19 23 11 45 -13 36
67 165 158 252 25 23 43 43 39 43 -4 0 -31 -24 -61 -52z"/>
<path d="M1671 1483 c-18 -15 -42 -27 -52 -28 -22 -2 -69 -43 -69 -61 0 -7
-21 -31 -47 -55 -32 -28 -38 -36 -18 -24 45 26 86 68 81 81 -5 13 39 56 48 47
5 -5 106 55 106 63 0 10 -18 2 -49 -23z"/>
<path d="M1800 1502 c0 -4 -15 -16 -32 -26 -18 -10 -48 -32 -65 -49 -18 -17
-36 -28 -39 -24 -3 3 7 18 22 32 16 15 22 23 14 19 -33 -16 -60 -48 -48 -55 8
-5 3 -12 -15 -20 -29 -13 -34 -25 -15 -31 9 -3 5 -20 -15 -60 -15 -30 -30 -72
-34 -92 -4 -27 -8 -34 -15 -24 -7 9 -8 6 -5 -9 3 -13 1 -26 -4 -29 -5 -3 -9
-11 -9 -17 1 -25 38 38 44 73 3 20 17 58 31 85 14 28 25 58 25 67 0 9 30 41
66 70 109 87 120 97 107 98 -7 0 -13 -4 -13 -8z"/>
<path d="M1860 1500 c-20 -6 -21 -8 -5 -8 11 0 31 4 45 8 20 6 21 8 5 8 -11 0
-31 -4 -45 -8z"/>
<path d="M1330 1492 c0 -5 7 -15 15 -22 8 -7 15 -8 15 -2 0 5 -7 15 -15 22 -8
7 -15 8 -15 2z"/>
<path d="M1192 1476 c13 -14 28 -12 28 5 0 5 -9 9 -20 9 -17 0 -19 -2 -8 -14z"/>
<path d="M1083 1439 c-35 -22 -46 -37 -15 -20 22 13 58 40 52 41 -3 0 -20 -10
-37 -21z"/>
<path d="M1319 1406 c-1 -3 -3 -10 -4 -16 -1 -5 -3 -22 -4 -36 -1 -18 -5 -24
-15 -21 -11 4 -11 -1 0 -34 13 -37 12 -41 -21 -102 -19 -35 -35 -70 -35 -79 0
-8 -9 -23 -20 -33 -11 -10 -20 -24 -20 -32 0 -8 11 -2 25 15 14 17 25 35 25
41 0 12 34 78 75 146 31 52 41 73 49 110 6 28 5 29 -9 11 -8 -11 -15 -27 -15
-35 0 -9 -5 -23 -11 -31 -7 -11 -8 0 -5 37 3 29 1 55 -4 58 -6 3 -11 4 -11 1z"/>
<path d="M2144 1345 c25 -25 51 -45 59 -45 8 0 27 -10 42 -22 18 -14 26 -17
23 -7 -2 8 -25 24 -51 36 -25 12 -56 36 -68 53 -13 16 -28 30 -36 30 -7 0 7
-20 31 -45z"/>
<path d="M1993 1343 c9 -2 25 -2 35 0 9 3 1 5 -18 5 -19 0 -27 -2 -17 -5z"/>
<path d="M1063 1283 c-7 -14 -10 -30 -6 -36 3 -6 1 -7 -5 -3 -22 14 -11 -9 16
-34 15 -14 24 -21 20 -15 -5 5 -8 25 -8 45 0 26 3 31 10 20 5 -8 10 -24 10
-34 0 -28 46 -84 83 -101 29 -14 30 -14 13 0 -11 8 -15 15 -8 15 6 0 -5 27
-26 59 -20 33 -38 58 -40 56 -5 -5 28 -67 46 -88 17 -19 8 -37 -10 -19 -6 6
-27 45 -47 86 -35 74 -36 75 -48 49z"/>
<path d="M2198 1250 c18 -16 43 -30 55 -30 13 0 38 -11 57 -25 49 -36 52 -31
6 9 -22 18 -47 31 -56 29 -8 -2 -33 8 -55 22 -40 26 -40 26 -7 -5z"/>
<path d="M1150 1259 c0 -4 11 -27 25 -50 14 -24 25 -39 25 -34 0 11 -49 94
-50 84z"/>
<path d="M1467 1137 c-5 -32 -6 -61 -3 -65 13 -12 17 8 14 64 -3 59 -3 59 -11
1z"/>
<path d="M1963 1143 c127 -115 123 -112 98 -75 -12 17 -25 32 -29 32 -4 0 -29
20 -56 45 -26 25 -52 45 -57 45 -4 0 15 -21 44 -47z"/>
<path d="M1357 1153 c-13 -15 -38 -87 -25 -73 7 8 48 90 44 90 -1 0 -10 -8
-19 -17z"/>
<path d="M984 1129 c27 -11 51 -18 53 -15 7 7 -65 36 -86 35 -9 0 6 -9 33 -20z"/>
<path d="M1054 1085 c2 -11 8 -20 15 -20 7 0 20 -11 30 -24 22 -29 61 -22 61
12 0 22 -1 22 -19 -2 -18 -24 -18 -24 -54 15 -27 30 -35 34 -33 19z"/>
<path d="M1258 1039 c-3 -39 -7 -46 -37 -61 -37 -18 -53 -16 -33 4 7 7 12 19
12 28 0 9 -7 4 -18 -12 -16 -27 -42 -38 -42 -18 0 6 -9 1 -20 -10 -11 -11 -26
-20 -34 -20 -8 0 -21 -3 -30 -6 -14 -6 -14 -3 -1 30 9 20 12 42 9 48 -4 7 -12
-8 -18 -33 -12 -48 -64 -86 -151 -110 -22 -6 -60 -22 -84 -35 -50 -27 -57 -29
-45 -11 5 7 -2 1 -16 -14 -14 -15 -44 -41 -68 -57 -26 -18 -38 -33 -32 -37 6
-4 17 0 23 8 26 32 146 106 202 126 146 50 175 60 194 71 12 6 48 12 81 14 33
2 67 9 75 16 12 10 15 10 15 -1 1 -11 4 -10 13 3 15 19 84 22 107 5 13 -10 13
-10 1 6 -7 9 -10 17 -6 17 4 0 2 7 -5 15 -7 8 -16 15 -21 15 -5 0 -9 -7 -9
-15 0 -8 -8 -15 -17 -15 -15 0 -16 2 -3 10 8 5 11 12 7 16 -3 4 -13 2 -20 -4
-11 -10 -14 -5 -15 25 -2 52 -10 53 -14 2z"/>
<path d="M1634 1027 c-56 -30 -116 -78 -88 -71 11 3 34 17 50 31 16 14 41 31
57 39 15 8 27 17 27 19 0 7 0 7 -46 -18z"/>
<path d="M1470 1019 c-19 -10 -43 -16 -54 -13 -12 4 -16 2 -12 -5 4 -6 2 -11
-3 -11 -6 0 -11 7 -11 16 0 9 -6 14 -12 11 -7 -2 -11 -11 -9 -18 2 -8 6 -30 8
-49 3 -19 7 -42 10 -50 3 -8 7 -21 9 -28 4 -21 14 -27 14 -9 0 9 5 17 10 17 6
0 9 -5 8 -12 -2 -7 9 -13 25 -13 31 -1 36 11 8 20 -48 15 -98 85 -61 85 5 0 7
-6 4 -13 -3 -8 3 -20 12 -28 16 -12 17 -12 11 4 -3 9 -3 17 1 17 5 0 17 7 28
16 18 15 18 15 -9 11 -26 -4 -27 -4 -11 14 9 11 22 19 29 19 7 0 20 9 30 20
22 24 20 24 -25 -1z"/>
<path d="M1555 1020 c-16 -11 -25 -20 -20 -20 10 0 64 39 55 40 -3 0 -18 -9
-35 -20z"/>
<path d="M2190 1015 c46 -18 64 -17 25 0 -16 8 -37 14 -45 14 -8 0 1 -7 20
-14z"/>
<path d="M553 1005 c-7 -8 -21 -18 -30 -24 -10 -5 -15 -13 -11 -16 4 -4 22 7
40 24 18 17 29 31 23 31 -5 -1 -16 -7 -22 -15z"/>
<path d="M917 996 c-12 -29 -8 -39 8 -26 9 7 18 10 21 7 9 -9 -5 -27 -22 -27
-8 0 -14 -5 -14 -11 0 -11 15 -4 43 19 22 20 22 32 -2 32 -11 0 -21 5 -23 12
-3 7 -7 5 -11 -6z"/>
<path d="M616 849 c3 -5 11 -9 19 -9 8 0 16 4 19 9 3 5 -5 9 -19 9 -14 0 -22
-4 -19 -9z"/>
<path d="M1445 833 c-11 -3 -24 -9 -29 -14 -5 -4 6 -4 25 1 19 5 43 11 54 13
15 4 14 5 -5 5 -14 0 -34 -2 -45 -5z"/>
<path d="M517 813 c-14 -13 -5 -23 69 -79 42 -31 81 -65 87 -76 16 -24 22 -23
23 7 3 42 21 55 73 51 47 -3 82 -16 112 -43 25 -21 166 -63 213 -63 46 0 168
47 231 89 22 15 47 31 56 36 47 28 118 79 115 82 -6 6 -45 -15 -86 -47 -19
-15 -45 -30 -56 -34 -12 -4 -34 -17 -48 -30 -32 -27 -173 -86 -206 -86 -48 0
-177 43 -227 76 -69 46 -167 50 -183 9 -9 -25 -9 -25 -90 36 -44 33 -78 64
-75 70 7 10 2 12 -8 2z"/>
<path d="M598 803 c12 -2 30 -2 40 0 9 3 -1 5 -23 4 -22 0 -30 -2 -17 -4z"/>
<path d="M1947 757 c21 -31 42 -56 46 -57 9 0 -50 85 -71 102 -8 7 3 -13 25
-45z"/>
<path d="M1517 691 c-9 -16 -17 -35 -17 -42 0 -7 9 4 20 26 23 46 21 57 -3 16z"/>
<path d="M1991 665 c0 -5 6 -21 14 -35 8 -14 14 -20 14 -15 0 6 -6 21 -14 35
-8 14 -14 21 -14 15z"/>
<path d="M1523 634 c-7 -7 -12 -23 -12 -36 1 -21 2 -21 6 -3 3 11 10 26 16 33
14 17 5 23 -10 6z"/>
<path d="M1771 640 c0 -8 4 -24 9 -35 9 -20 9 -20 9 0 0 11 -4 27 -9 35 -9 13
-10 13 -9 0z"/>
<path d="M745 606 c22 -19 40 -38 40 -42 1 -14 24 -50 25 -38 0 5 -5 15 -12
22 -7 7 -8 12 -4 12 5 0 36 -26 71 -58 56 -53 65 -58 99 -54 21 2 56 -3 80
-12 51 -20 155 -23 251 -9 39 6 60 11 48 12 -14 0 -23 7 -23 18 0 14 -2 14
-20 -2 -29 -26 -159 -33 -232 -11 -31 9 -75 16 -98 16 -35 0 -48 7 -93 48 -73
67 -153 132 -163 132 -5 0 9 -16 31 -34z"/>
<path d="M1321 614 c-28 -24 -47 -85 -21 -69 18 11 10 -10 -10 -28 -11 -9 -20
-21 -20 -27 0 -16 4 -12 29 21 18 24 20 33 10 45 -10 12 -6 21 21 49 40 41 35
46 -9 9z"/>
<path d="M1826 552 c13 -31 24 -63 24 -69 0 -7 5 -13 11 -13 12 0 5 26 -23 88
-30 64 -39 60 -12 -6z"/>
<path d="M1400 540 c-6 -23 -14 -48 -17 -57 -4 -10 -2 -14 4 -10 13 8 38 95
30 103 -3 3 -11 -13 -17 -36z"/>
<path d="M1682 525 c0 -16 4 -41 8 -55 7 -23 8 -22 8 10 0 19 -3 44 -8 55 -7
17 -9 15 -8 -10z"/>
<path d="M1331 528 c0 -9 -4 -25 -7 -35 -5 -17 -5 -17 6 0 6 10 9 25 7 35 -4
15 -5 15 -6 0z"/>
<path d="M1425 490 c-16 -27 -35 -52 -42 -54 -7 -3 -13 -11 -13 -17 0 -19 39
22 67 69 14 24 24 45 21 47 -2 3 -17 -18 -33 -45z"/>
<path d="M2160 529 c0 -3 9 -23 21 -45 18 -36 19 -36 14 -9 -5 25 -35 71 -35
54z"/>
<path d="M2000 461 c16 -33 34 -62 40 -66 6 -4 -4 23 -22 59 -18 36 -36 66
-40 66 -5 0 5 -27 22 -59z"/>
<path d="M1461 495 c-1 -11 -4 -31 -7 -45 -5 -22 -4 -23 6 -7 6 10 9 30 7 45
-3 18 -5 20 -6 7z"/>
<path d="M1490 486 c0 -38 -18 -78 -32 -70 -7 4 -8 3 -4 -4 11 -18 34 -14 39
6 4 16 5 16 6 0 0 -10 6 -18 11 -18 7 0 7 7 0 21 -6 11 -9 36 -7 55 3 19 1 34
-4 34 -5 0 -9 -11 -9 -24z"/>
<path d="M1732 453 c17 -41 30 -53 17 -15 -6 18 -15 35 -20 38 -5 3 -4 -7 3
-23z"/>
<path d="M1644 435 c2 -11 7 -33 10 -48 5 -19 3 -26 -4 -22 -6 4 -10 -4 -10
-20 0 -25 -74 -85 -106 -85 -19 0 -146 -74 -134 -78 6 -2 18 2 26 9 32 26 167
79 188 73 12 -3 33 0 46 6 23 9 22 10 -7 4 -51 -9 -59 5 -19 32 41 28 49 77
20 124 -12 20 -14 21 -10 5z"/>
<path d="M2192 429 c-18 -6 -55 -23 -81 -39 -56 -35 -213 -78 -291 -79 -53 -1
-136 -18 -128 -26 2 -2 21 0 43 5 22 5 65 10 95 10 71 0 235 45 281 76 20 14
60 31 89 39 29 8 55 16 58 19 8 9 -28 6 -66 -5z"/>
<path d="M930 428 c0 -3 14 -21 32 -39 17 -19 26 -25 20 -14 -10 21 -52 62
-52 53z"/>
<path d="M1540 407 c0 -4 5 -16 12 -26 9 -15 7 -24 -12 -51 -15 -21 -18 -31
-9 -28 7 2 22 19 33 37 19 32 19 33 -3 54 -11 12 -21 18 -21 14z"/>
<path d="M1000 386 c22 -28 181 -161 220 -185 35 -21 94 -28 117 -13 6 4 15
22 20 41 7 26 17 38 43 48 34 12 34 13 5 8 -16 -2 -69 -9 -117 -15 -107 -15
-116 -24 -15 -15 74 7 74 7 69 -23 -3 -26 -9 -31 -40 -35 -49 -6 -73 8 -189
106 -108 91 -138 113 -113 83z"/>
<path d="M1210 342 c0 -10 60 -45 66 -39 3 2 -11 14 -31 25 -19 12 -35 18 -35
14z"/>
<path d="M323 220 c-97 -54 -92 -58 11 -9 83 40 84 40 122 24 50 -21 155 -87
227 -143 31 -25 59 -43 62 -40 7 6 -116 97 -206 152 -105 65 -127 66 -216 16z"/>
<path d="M1497 183 c-15 -32 -15 -35 -1 -18 24 30 36 55 26 55 -4 0 -16 -17
-25 -37z"/>
<path d="M1220 151 c-35 -18 -86 -99 -78 -123 2 -6 16 15 31 46 20 43 36 61
57 69 17 6 30 15 30 19 0 11 0 11 -40 -11z"/>
</g>
</svg>
