<?xml version="1.0" standalone="no"?>
<!DOCTYPE svg PUBLIC "-//W3C//DTD SVG 20010904//EN"
 "http://www.w3.org/TR/2001/REC-SVG-20010904/DTD/svg10.dtd">
<svg version="1.0" xmlns="http://www.w3.org/2000/svg"
 width="256.000000pt" height="344.000000pt" viewBox="0 0 256.000000 344.000000"
 preserveAspectRatio="xMidYMid meet">
<metadata>
Created by potrace 1.16, written by Peter Selinger 2001-2019
</metadata>
<g transform="translate(0.000000,344.000000) scale(0.100000,-0.100000)"
fill="#000000" stroke="none">
<path d="M38 3428 c7 -7 12 -22 12 -34 0 -12 7 -38 15 -57 21 -51 19 -68 -7
-66 -44 4 -58 -1 -58 -20 0 -17 9 -20 76 -23 42 -2 78 0 81 5 7 12 -58 198
-68 191 -5 -3 -9 0 -9 5 0 6 -12 11 -27 11 -21 0 -24 -3 -15 -12z"/>
<path d="M575 3398 c3 -24 12 -65 20 -93 7 -27 17 -72 21 -100 9 -70 32 -176
38 -182 3 -3 36 -16 73 -30 116 -42 132 -49 139 -56 15 -14 -32 -6 -71 13 -22
11 -46 19 -53 20 -7 0 -31 9 -54 20 l-40 19 5 -29 c4 -16 2 -32 -3 -35 -6 -3
-10 -14 -10 -23 0 -9 -57 -75 -125 -146 -69 -71 -125 -134 -125 -139 0 -4 -9
-6 -19 -2 -15 5 -21 0 -26 -24 -4 -17 -10 -33 -14 -35 -3 -2 -27 68 -53 157
-130 454 -141 487 -158 487 -14 0 -13 -19 5 -76 9 -27 33 -110 55 -184 21 -74
52 -182 69 -240 31 -105 38 -145 23 -136 -4 2 -66 6 -137 7 -98 2 -130 -1
-133 -10 -8 -24 22 -31 128 -31 101 0 146 -9 121 -24 -15 -10 -9 -56 9 -66 8
-4 31 -10 52 -14 29 -5 41 -2 63 16 14 13 27 35 29 50 2 18 14 36 36 50 33 23
65 94 54 122 -3 7 18 35 47 63 49 49 52 50 86 40 26 -8 40 -8 55 2 11 7 22 10
25 7 8 -7 -83 -130 -154 -207 -35 -39 -77 -92 -94 -119 -30 -48 -32 -50 -76
-50 -25 0 -62 4 -82 10 -20 5 -96 13 -169 17 -130 8 -132 8 -132 -13 0 -20 6
-21 142 -28 83 -4 163 -14 191 -23 28 -9 60 -13 79 -9 31 6 30 4 -33 -61 -35
-38 -85 -96 -109 -131 -25 -35 -53 -73 -63 -85 -11 -12 -31 -42 -45 -67 -14
-25 -57 -87 -95 -138 -51 -69 -67 -99 -65 -119 3 -23 12 -14 79 78 41 57 86
122 99 144 13 22 40 60 60 85 20 25 52 67 70 94 18 27 63 81 100 120 37 39 79
90 94 114 15 23 41 59 60 80 18 20 43 53 56 72 13 19 46 60 73 90 28 30 55 66
61 80 25 53 51 87 79 103 34 20 132 23 141 5 5 -10 8 -10 12 1 12 25 85 100
119 121 18 11 39 34 47 51 l15 30 17 -48 c10 -26 20 -58 23 -70 3 -13 12 -23
20 -23 30 0 1 109 -48 180 -23 34 -37 119 -38 233 -1 44 -4 57 -16 57 -9 0
-15 -9 -15 -25 0 -15 -5 -23 -12 -20 -18 6 -92 -47 -96 -68 -5 -26 28 -34 47
-11 9 11 26 28 39 38 l22 19 0 -56 0 -56 -51 15 c-73 22 -93 43 -85 91 18 113
19 143 2 143 -11 0 -16 -9 -16 -32 0 -18 -5 -51 -10 -73 -5 -22 -7 -59 -4 -81
5 -34 12 -45 42 -62 21 -11 58 -26 84 -32 50 -13 58 -25 58 -90 0 -30 -9 -43
-77 -105 -67 -62 -80 -70 -109 -67 -40 5 -40 7 -50 257 -4 99 -8 196 -10 215
-2 19 -4 43 -4 53 -1 9 -7 17 -13 17 -9 0 -10 -35 -5 -142 7 -132 9 -300 4
-305 -5 -6 -76 19 -82 28 -11 19 6 23 24 6 30 -28 45 -21 38 16 -3 17 -6 114
-7 215 0 153 -3 182 -15 182 -13 0 -15 -27 -12 -185 2 -102 2 -185 1 -185 -4
0 -41 31 -78 65 -18 17 -47 42 -64 58 -17 15 -31 36 -31 48 0 18 4 16 28 -12
49 -60 69 -79 81 -79 17 0 13 27 -6 50 -10 11 -20 35 -23 53 -5 30 -8 32 -47
35 -46 3 -50 10 -69 115 -4 23 -12 37 -21 37 -12 0 -13 -9 -8 -42z m148 -347
c11 -8 24 -25 29 -35 11 -21 5 -17 -72 45 l-25 20 25 -7 c14 -3 33 -14 43 -23z
m57 -153 c0 -5 -4 -8 -10 -8 -5 0 -10 10 -10 23 0 18 2 19 10 7 5 -8 10 -18
10 -22z m-31 -25 c4 -3 -3 -3 -14 0 -11 3 -33 8 -48 11 -15 4 -25 11 -22 16 6
9 71 -12 84 -27z m77 2 c-11 -8 -24 -15 -30 -15 -5 0 -1 7 10 15 10 8 24 14
29 14 6 0 1 -6 -9 -14z m-71 -76 c-9 -17 -19 -29 -21 -26 -7 7 18 57 28 57 5
0 1 -14 -7 -31z m-301 -165 c-5 -18 -50 -54 -68 -54 -3 0 11 17 32 38 20 21
38 38 39 37 1 0 0 -10 -3 -21z"/>
<path d="M654 3378 c1 -49 4 -63 16 -63 12 0 14 11 12 52 -4 51 -3 52 30 62
l33 9 -46 1 -47 1 2 -62z"/>
<path d="M1124 3429 c-13 -22 12 -30 31 -9 18 19 18 20 -3 20 -11 0 -24 -5
-28 -11z"/>
<path d="M1182 3395 c-27 -55 -40 -125 -23 -125 6 0 14 8 17 18 18 60 49 129
62 140 14 10 12 12 -9 12 -20 0 -30 -10 -47 -45z"/>
<path d="M1272 3428 c-4 -49 -42 -140 -74 -179 -37 -45 -49 -79 -28 -79 25 0
70 32 90 65 12 20 35 42 51 50 16 9 29 22 29 30 0 18 -41 20 -57 4 -7 -7 -4
14 6 46 10 31 24 61 32 66 10 6 5 9 -17 9 -17 0 -31 -5 -32 -12z"/>
<path d="M1396 3284 c-16 -19 -47 -44 -69 -56 -22 -11 -60 -40 -83 -64 -40
-40 -43 -46 -32 -69 14 -31 32 -28 36 6 5 32 28 57 77 81 56 28 115 87 115
115 0 31 -10 28 -44 -13z"/>
<path d="M2485 2960 c-7 -12 2 -30 16 -30 12 0 12 27 0 35 -5 3 -12 1 -16 -5z"/>
<path d="M1125 2912 c-23 -20 -60 -63 -84 -94 -34 -46 -47 -56 -69 -55 -23 2
-28 -3 -30 -25 -3 -22 0 -27 12 -22 26 10 18 -12 -9 -24 -18 -9 -25 -19 -25
-41 0 -24 8 -34 44 -55 25 -14 51 -33 59 -41 8 -8 54 -35 102 -60 69 -37 90
-44 101 -34 20 17 17 26 -10 33 -35 9 -95 49 -96 64 0 17 73 16 108 -2 35 -17
122 -29 122 -16 0 6 -7 10 -15 10 -9 0 -30 8 -48 17 -18 9 -45 18 -62 20 -49
4 -120 19 -133 27 -7 4 -19 21 -28 39 -9 17 -26 38 -37 48 -21 16 -21 17 21
60 23 24 42 54 42 66 0 12 9 27 19 33 26 14 31 13 31 -6 0 -27 20 -4 21 24 l0
27 10 -25 c6 -13 21 -39 35 -57 46 -61 62 -31 19 37 -14 22 -25 46 -25 53 0
13 -19 37 -29 37 -4 -1 -24 -18 -46 -38z"/>
<path d="M1257 2903 c-10 -9 -8 -53 2 -53 5 0 14 7 21 15 20 24 -2 59 -23 38z"/>
<path d="M965 2809 c-10 -15 3 -25 16 -12 7 7 7 13 1 17 -6 3 -14 1 -17 -5z"/>
<path d="M1924 2409 c-14 -15 -45 -32 -67 -38 -57 -14 -77 -31 -83 -68 -4 -26
0 -34 25 -52 16 -12 32 -21 36 -21 13 0 201 -154 340 -279 33 -29 88 -79 123
-110 52 -46 92 -95 92 -113 0 -2 -12 -5 -27 -6 -55 -4 -53 -31 4 -74 44 -34
78 -36 94 -5 7 12 32 39 56 60 28 26 43 47 43 63 0 30 -11 31 -30 3 -8 -11
-32 -29 -52 -40 l-37 -19 -11 35 c-11 34 -93 124 -179 195 -23 19 -55 46 -70
60 -160 142 -349 290 -370 290 -6 0 -11 4 -11 8 0 10 65 42 84 42 7 0 32 14
56 31 l42 31 34 -18 c42 -23 362 -291 490 -410 53 -50 54 -50 54 -23 0 25 -49
89 -69 89 -3 0 -14 8 -22 18 -9 9 -38 36 -65 59 -27 22 -99 83 -159 135 -171
144 -215 175 -258 180 -30 3 -42 -1 -63 -23z"/>
<path d="M807 2353 c-14 -13 -6 -33 12 -33 19 0 35 23 24 34 -8 8 -28 8 -36
-1z"/>
<path d="M880 2278 c0 -7 5 -20 10 -28 12 -19 35 2 27 24 -7 19 -37 21 -37 4z"/>
<path d="M530 2245 c0 -9 6 -12 15 -9 8 4 15 10 15 15 0 5 -7 9 -15 9 -8 0
-15 -7 -15 -15z"/>
<path d="M2068 2231 c-54 -54 13 -118 100 -95 27 8 30 52 6 89 -20 31 -79 34
-106 6z m92 -46 c0 -9 -10 -15 -24 -15 -54 0 -74 24 -33 39 26 10 57 -3 57
-24z"/>
<path d="M1836 2153 c-12 -12 -6 -46 12 -59 9 -8 31 -21 49 -30 18 -9 63 -46
100 -82 78 -77 109 -101 175 -136 86 -45 67 -12 -56 98 -16 14 -35 26 -42 26
-7 0 -22 16 -34 35 -12 19 -25 35 -30 35 -4 0 -29 17 -56 38 -27 21 -57 42
-66 45 -10 4 -18 11 -18 16 0 11 -26 22 -34 14z"/>
<path d="M2280 2100 c0 -21 76 -83 94 -77 25 8 13 34 -29 65 -51 37 -65 40
-65 12z"/>
<path d="M715 2078 c-3 -11 -16 -56 -32 -118 -3 -8 -7 -39 -10 -68 l-6 -54 53
-49 53 -49 -11 -43 c-6 -23 -14 -74 -18 -113 -5 -68 -5 -72 20 -92 20 -15 26
-29 26 -59 0 -41 22 -73 51 -73 30 -1 46 -26 52 -81 l5 -56 -38 -22 c-21 -11
-46 -21 -57 -21 -28 0 -199 -56 -258 -84 -27 -13 -77 -27 -110 -30 -54 -4 -64
-9 -97 -44 l-36 -39 -49 32 c-92 62 -146 95 -156 95 -5 0 -29 13 -53 30 l-44
29 0 -29 c0 -26 7 -33 58 -57 31 -15 83 -44 114 -65 31 -21 60 -38 64 -38 4 0
17 -8 28 -19 12 -10 45 -31 75 -47 30 -16 66 -42 81 -58 l27 -30 28 22 c15 12
34 22 41 22 7 0 28 6 46 14 18 8 45 17 61 21 15 3 27 12 27 20 0 10 10 15 29
15 33 0 49 16 33 32 -14 14 -102 1 -102 -15 0 -7 -28 -23 -62 -36 -35 -14 -71
-31 -81 -39 -20 -18 -35 -9 -19 11 13 16 -2 37 -27 37 -27 0 -81 24 -81 35 0
29 71 69 120 67 21 -1 70 13 125 37 50 22 133 49 185 61 52 13 104 30 115 40
11 10 30 23 43 29 31 16 44 52 54 146 4 44 9 91 12 105 2 14 4 35 5 46 0 12
25 46 54 75 48 48 83 100 57 84 -16 -10 -12 7 11 45 31 50 58 70 94 70 31 0
52 20 38 34 -11 11 -52 6 -88 -11 -39 -19 -73 -64 -100 -135 -10 -27 -21 -48
-25 -48 -5 0 -21 -20 -37 -45 -15 -25 -31 -45 -35 -45 -3 0 -14 14 -22 32 -12
23 -13 34 -5 39 7 4 9 17 6 30 -3 12 -1 31 4 41 6 11 8 22 6 25 -11 11 -49
-10 -59 -33 -6 -14 -22 -27 -34 -30 -32 -8 -47 -29 -53 -74 -6 -35 -7 -37 -25
-25 -19 14 -19 17 11 203 5 30 0 38 -47 81 -43 40 -51 52 -48 77 2 24 8 29 35
32 17 2 65 -9 107 -23 59 -22 85 -26 123 -21 140 19 146 18 220 -5 72 -22 113
-48 113 -72 0 -7 -32 -29 -70 -50 -66 -36 -87 -57 -56 -57 20 0 123 47 131 59
13 23 95 12 158 -21 57 -29 71 -32 167 -33 132 -3 294 -19 385 -38 64 -14 94
-23 225 -71 53 -20 116 -85 198 -204 78 -114 103 -165 112 -225 l8 -52 1 73
c1 46 -4 83 -13 100 -26 49 -104 167 -130 195 -14 16 -26 32 -26 37 0 17 -90
98 -116 104 -14 4 -45 16 -68 26 -68 32 -184 59 -301 70 -60 6 -129 16 -153
22 -24 6 -83 8 -131 6 -75 -5 -90 -3 -110 13 -31 25 -113 49 -150 43 -27 -5
-31 -2 -37 23 -10 39 -34 59 -96 78 -29 10 -70 23 -91 31 -48 18 -85 18 -121
-1 -38 -20 -77 -19 -155 5 -36 11 -83 22 -104 25 l-37 6 6 42 c3 23 7 52 10
65 5 23 -13 32 -21 10z m174 -517 c12 -8 10 -12 -12 -22 -18 -8 -27 -20 -27
-36 0 -26 12 -30 30 -8 7 8 19 15 26 15 8 0 14 6 14 13 0 15 49 -43 50 -59 0
-7 -8 -11 -17 -10 -13 1 -19 -8 -21 -31 -2 -19 1 -33 7 -33 6 0 11 -7 11 -15
0 -24 -38 0 -58 36 -20 34 -57 41 -49 8 5 -17 3 -18 -10 -7 -26 21 -1 158 29
158 7 0 20 -4 27 -9z"/>
<path d="M2167 2084 c-12 -13 16 -50 61 -79 61 -40 62 -40 62 -16 0 12 -17 32
-45 52 -25 18 -45 36 -45 41 0 9 -24 11 -33 2z"/>
<path d="M1843 1898 c-6 -7 -13 -33 -16 -58 -3 -25 -8 -57 -12 -72 -6 -22 -4
-28 8 -28 22 0 27 12 37 82 10 66 2 100 -17 76z"/>
<path d="M868 1802 c-8 -31 13 -56 41 -47 24 7 25 42 2 37 -7 -1 -19 5 -26 14
-11 16 -12 15 -17 -4z"/>
<path d="M820 1747 c0 -7 6 -22 14 -33 19 -24 41 -6 31 25 -7 23 -45 29 -45 8z"/>
<path d="M1193 1633 c-34 -32 -67 -63 -74 -70 -15 -13 -33 -34 -62 -69 -31
-39 0 -37 45 3 24 21 52 45 62 53 18 14 19 14 9 -5 -13 -26 2 -85 22 -85 8 0
16 3 16 8 1 4 3 18 5 32 1 14 4 34 6 45 2 14 -2 20 -14 19 -27 -2 -22 8 22 51
36 35 53 75 32 75 -5 0 -36 -26 -69 -57z"/>
<path d="M395 1670 c-3 -5 -7 -25 -9 -43 -2 -18 -11 -45 -20 -59 -11 -17 -16
-41 -14 -70 4 -52 22 -57 26 -8 1 19 6 44 11 55 15 37 33 90 38 113 4 15 1 22
-10 22 -9 0 -19 -4 -22 -10z"/>
<path d="M1394 1626 c-3 -7 -4 -19 -2 -27 2 -9 -6 -14 -22 -14 -16 0 -29 -9
-38 -25 -11 -21 -11 -26 4 -37 25 -18 64 -17 64 2 0 9 9 35 20 57 11 23 20 45
20 50 0 14 -40 9 -46 -6z"/>
<path d="M1 1554 c-1 -18 9 -43 21 -60 13 -15 22 -36 20 -45 -4 -21 47 -41 70
-28 11 6 18 4 22 -6 10 -28 27 -16 24 18 -2 25 -8 33 -27 35 -15 3 -30 -3 -38
-14 -13 -18 -18 -9 -14 24 1 7 -11 25 -26 40 -15 15 -33 36 -40 47 -11 18 -12
17 -12 -11z"/>
<path d="M410 1505 c0 -17 5 -25 13 -22 6 2 12 12 12 22 0 10 -6 20 -12 23 -8
2 -13 -6 -13 -23z"/>
<path d="M1706 1515 c-14 -8 -36 -21 -48 -29 -12 -9 -32 -16 -44 -16 -26 0
-94 -74 -94 -102 0 -28 13 -22 53 27 26 31 46 45 62 45 31 0 32 -13 2 -37 -33
-26 -40 -42 -27 -58 7 -8 8 -15 3 -15 -10 0 -19 -20 -62 -130 -24 -63 -26 -83
-8 -78 6 3 22 31 35 64 12 32 32 78 43 101 12 23 19 46 16 50 -8 12 83 109
110 117 11 4 27 13 33 21 8 10 32 15 70 15 39 0 62 5 70 15 7 8 11 16 9 16 -2
1 -47 3 -100 5 -67 2 -104 -2 -123 -11z"/>
<path d="M175 1498 c-7 -19 33 -81 47 -72 15 9 9 32 -16 61 -21 24 -25 26 -31
11z"/>
<path d="M274 1496 c-8 -21 -1 -49 14 -54 8 -2 12 8 12 32 0 36 -16 49 -26 22z"/>
<path d="M1306 1485 c6 -25 -13 -121 -29 -142 -7 -9 -14 -7 -30 7 -11 11 -25
20 -29 20 -5 0 -14 14 -19 30 -14 37 -42 42 -33 5 7 -28 -3 -32 -32 -11 -11 9
-32 12 -49 10 -25 -5 -27 -3 -12 6 17 11 24 40 9 40 -21 0 -44 -28 -40 -51 2
-19 10 -25 37 -27 19 -2 44 -10 55 -18 11 -8 31 -14 43 -14 25 0 103 -64 103
-85 0 -7 -8 -23 -19 -36 -10 -13 -20 -33 -22 -44 -7 -32 -35 -30 -47 4 -14 39
-71 111 -89 111 -7 0 -13 7 -13 15 0 8 -7 15 -15 15 -8 0 -15 -4 -15 -9 0 -6
-13 -25 -30 -43 -16 -18 -30 -35 -30 -39 0 -13 175 -115 206 -120 23 -4 54 16
54 36 0 6 14 31 30 53 17 23 30 49 30 57 0 8 4 15 10 15 11 0 40 64 40 90 0
10 18 36 40 58 22 22 40 49 40 61 0 27 -16 27 -30 0 -7 -11 -20 -29 -31 -40
-10 -10 -19 -24 -19 -30 0 -6 -9 -22 -20 -36 l-20 -26 0 34 c0 19 7 47 15 63
20 38 11 66 -21 66 -21 0 -24 -3 -18 -25z"/>
<path d="M1972 1473 c-28 -4 -31 -7 -21 -19 10 -12 59 -21 59 -10 0 2 3 11 6
20 3 9 2 15 -2 14 -5 0 -24 -3 -42 -5z"/>
<path d="M1479 1427 c-51 -81 -59 -105 -59 -172 0 -37 4 -65 10 -65 9 0 12 16
15 97 0 17 8 40 18 51 9 10 17 24 17 30 0 6 11 28 25 48 22 33 25 54 7 54 -4
0 -19 -19 -33 -43z"/>
<path d="M2037 1444 c-13 -13 -7 -34 8 -34 23 0 125 -111 125 -136 0 -24 25
-49 60 -59 14 -4 49 -21 78 -37 50 -28 52 -29 52 -9 0 24 -63 68 -119 84 -34
9 -35 10 -13 18 27 10 22 23 -16 43 -33 17 -122 102 -122 116 0 5 -4 10 -9 10
-5 0 -16 2 -23 5 -8 3 -17 2 -21 -1z"/>
<path d="M284 1398 c-11 -18 -14 -131 -4 -147 4 -8 15 -11 25 -7 13 5 15 12 9
38 -5 18 -7 54 -6 81 3 45 -8 61 -24 35z"/>
<path d="M1955 1346 c-18 -13 -18 -15 -3 -21 26 -10 63 -2 63 15 0 20 -36 24
-60 6z"/>
<path d="M1682 1268 c-18 -18 -15 -28 8 -28 10 0 24 9 30 20 9 17 8 20 -8 20
-10 0 -23 -5 -30 -12z"/>
<path d="M1945 1270 c-3 -5 -1 -19 5 -30 12 -23 50 -27 50 -6 0 18 -47 49 -55
36z"/>
<path d="M1790 1240 c0 -5 7 -10 15 -10 8 0 15 5 15 10 0 6 -7 10 -15 10 -8 0
-15 -4 -15 -10z"/>
<path d="M1852 1204 c4 -25 68 -34 68 -10 0 9 -6 16 -12 16 -7 0 -24 3 -37 7
-19 5 -22 2 -19 -13z"/>
<path d="M1314 1196 c-15 -39 18 -111 40 -89 10 10 7 43 -4 43 -6 0 -9 12 -8
26 3 30 -19 45 -28 20z"/>
<path d="M1456 1164 c-3 -9 -6 -29 -6 -44 0 -16 -4 -32 -10 -35 -5 -3 -10 -16
-10 -29 0 -21 -3 -22 -63 -18 -49 3 -73 0 -103 -16 -44 -22 -124 -35 -124 -20
0 5 7 16 15 24 8 8 12 21 9 29 -8 20 -34 19 -34 0 0 -22 -6 -19 -51 25 -39 38
-69 51 -69 30 0 -5 25 -35 55 -66 31 -31 54 -58 53 -59 -15 -12 -51 -25 -70
-25 -13 0 -32 -6 -43 -13 -11 -8 -42 -22 -70 -31 -68 -24 -213 -97 -239 -121
-63 -57 -64 -57 -96 -38 -34 20 -39 33 -11 33 19 0 61 47 61 69 0 19 -19 12
-42 -14 -17 -20 -28 -24 -49 -20 -18 4 -32 0 -44 -11 -17 -17 -16 -19 17 -48
107 -94 132 -116 136 -116 7 0 28 25 34 41 9 24 104 13 143 -17 37 -28 201
-84 247 -84 35 0 175 65 212 98 11 11 35 27 53 36 18 9 53 30 79 47 46 32 46
32 42 81 -4 32 -12 53 -24 62 -13 10 -15 18 -8 27 12 16 12 68 0 87 -5 9 -2
18 10 26 19 15 34 126 16 126 -5 0 -13 -7 -16 -16z m-82 -201 c4 -3 5 -39 1
-80 -5 -52 -3 -78 5 -88 10 -12 10 -15 -1 -16 -8 0 -39 -18 -69 -39 -80 -57
-189 -110 -224 -110 -17 0 -50 9 -72 19 -23 10 -57 22 -75 26 -19 4 -52 20
-73 36 -28 21 -52 29 -80 29 -23 0 -48 5 -56 11 -11 8 -3 9 31 4 54 -7 79 10
72 48 -6 30 12 44 81 62 31 8 67 22 79 30 13 8 43 19 68 24 69 15 131 31 174
46 37 12 117 11 139 -2z"/>
<path d="M1941 1152 c-9 -17 -7 -24 11 -36 48 -34 67 -7 24 33 -24 23 -24 23
-35 3z"/>
<path d="M2087 1109 c-4 -15 -11 -19 -25 -14 -11 3 -23 2 -26 -4 -19 -30 52
-81 113 -81 23 0 55 -7 70 -15 16 -8 48 -16 72 -17 35 -2 44 1 47 15 3 14 -4
17 -37 17 -54 0 -131 38 -131 64 0 16 3 17 12 8 7 -7 19 -12 28 -12 8 0 33 -9
54 -21 40 -21 57 -18 41 7 -13 20 -148 74 -185 74 -20 0 -29 -6 -33 -21z"/>
<path d="M1895 1094 c-25 -27 -33 -54 -15 -54 14 0 60 49 60 65 0 23 -18 18
-45 -11z"/>
<path d="M1190 1075 c-10 -12 -10 -19 -2 -27 13 -13 42 6 42 28 0 19 -24 18
-40 -1z"/>
<path d="M1780 1062 c0 -11 9 -27 19 -36 11 -10 23 -31 26 -47 7 -29 19 -37
29 -20 9 15 -15 71 -30 71 -8 0 -14 6 -13 13 3 26 -2 37 -16 37 -8 0 -15 -8
-15 -18z"/>
<path d="M906 1058 c-10 -31 -13 -97 -6 -109 7 -10 14 -10 35 -1 23 11 26 18
23 43 -3 16 -1 32 3 34 4 3 5 14 2 25 -6 22 -51 28 -57 8z"/>
<path d="M1611 1033 c-67 -40 -83 -59 -57 -69 9 -4 31 7 55 25 21 17 45 31 53
31 20 0 37 20 31 36 -7 19 -10 19 -82 -23z"/>
<path d="M1730 1051 c-5 -11 -24 -28 -41 -38 -60 -35 -67 -93 -12 -93 24 0 32
24 11 34 -9 4 -9 8 -2 11 26 13 84 74 84 89 0 22 -27 20 -40 -3z"/>
<path d="M2553 990 c0 -25 2 -35 4 -22 2 12 2 32 0 45 -2 12 -4 2 -4 -23z"/>
<path d="M785 1003 c-35 -19 -20 -28 31 -18 21 3 34 11 31 18 -6 18 -29 18
-62 0z"/>
<path d="M1950 1011 c0 -5 11 -18 25 -29 14 -11 25 -25 25 -31 0 -14 17 -14
25 -1 3 6 15 10 26 10 10 0 19 4 19 9 0 12 -26 32 -33 25 -3 -3 -16 1 -29 10
-25 18 -58 21 -58 7z"/>
<path d="M533 993 c-7 -2 -13 -9 -13 -15 0 -14 43 -6 48 10 4 12 -12 15 -35 5z"/>
<path d="M1905 973 c9 -37 22 -50 36 -36 8 8 6 18 -6 37 -23 34 -39 34 -30 -1z"/>
<path d="M2467 994 c-10 -11 11 -41 33 -47 28 -7 33 6 9 31 -20 23 -31 27 -42
16z"/>
<path d="M2237 943 c-14 -13 -6 -24 27 -38 19 -8 37 -24 41 -35 3 -11 12 -20
18 -20 7 0 23 -9 37 -20 31 -25 50 -25 50 -2 0 11 -17 28 -42 42 -23 13 -51
34 -62 46 -23 24 -58 38 -69 27z"/>
<path d="M2501 916 c-8 -10 -8 -21 0 -45 11 -32 12 -33 31 -14 16 17 17 23 7
46 -14 30 -22 33 -38 13z"/>
<path d="M1747 892 c-58 -5 -40 -26 31 -35 51 -7 62 -12 62 -27 0 -24 18 -36
33 -21 8 8 6 18 -9 38 -25 33 -67 50 -117 45z"/>
<path d="M2155 889 c-4 -6 -5 -11 -4 -13 35 -25 82 -47 89 -40 11 11 2 25 -30
47 -28 20 -46 22 -55 6z"/>
<path d="M1942 875 c-7 -8 -22 -15 -32 -15 -20 0 -28 -24 -11 -34 15 -10 61
12 61 29 0 8 5 15 10 15 6 0 10 5 10 10 0 15 -23 11 -38 -5z"/>
<path d="M2086 831 c-8 -12 21 -34 34 -26 8 5 8 11 -1 21 -13 16 -25 18 -33 5z"/>
<path d="M2470 825 c-7 -8 -10 -26 -8 -40 3 -13 1 -26 -4 -27 -5 -2 -11 -42
-14 -88 -3 -47 -9 -89 -14 -94 -6 -6 -10 -18 -10 -28 0 -10 -7 -18 -15 -18 -8
0 -15 6 -15 13 0 43 -73 56 -86 15 -4 -12 -11 -17 -21 -14 -9 4 -22 1 -30 -5
-11 -10 -15 -8 -20 9 -3 12 -12 22 -19 22 -11 0 -13 -12 -8 -57 4 -43 3 -54
-5 -43 -6 8 -11 25 -11 37 0 12 -5 25 -11 29 -17 10 -28 -17 -18 -44 6 -14 9
-39 7 -55 l-3 -29 110 1 c84 1 123 6 168 22 59 22 62 25 49 47 -7 10 -14 9
-38 -2 -36 -18 -89 -24 -89 -11 0 6 7 10 15 11 73 2 84 22 84 151 1 46 4 83 7
83 4 0 9 17 12 38 4 20 9 49 13 65 7 30 -6 36 -26 12z m-142 -335 l11 -30 -50
0 c-27 0 -49 4 -49 8 0 14 23 32 42 32 10 0 18 7 18 16 0 23 17 8 28 -26z"/>
<path d="M2015 801 c-8 -14 26 -44 37 -33 5 5 6 16 2 25 -7 18 -29 23 -39 8z"/>
<path d="M1764 778 c14 -47 17 -51 27 -41 14 14 2 53 -16 53 -8 0 -13 -6 -11
-12z"/>
<path d="M1930 765 c0 -12 24 -55 31 -55 15 0 20 20 9 40 -9 17 -40 29 -40 15z"/>
<path d="M2336 752 c-3 -5 -8 -29 -12 -53 l-6 -44 30 35 c23 27 28 39 21 53
-10 18 -25 22 -33 9z"/>
<path d="M1840 732 c0 -22 27 -79 41 -87 15 -10 10 43 -6 75 -17 34 -35 39
-35 12z"/>
<path d="M2080 730 c-11 -11 -26 -20 -33 -20 -7 0 -18 -13 -24 -30 -9 -23 -8
-32 3 -41 13 -11 15 -9 18 16 1 6 5 11 9 13 18 6 25 0 20 -18 -8 -30 20 -25
35 7 8 18 9 30 2 37 -17 17 -11 27 11 16 11 -7 18 -17 16 -24 -7 -17 49 -70
58 -56 4 6 4 22 1 36 -7 27 -4 29 26 13 18 -10 20 -9 15 6 -4 9 -7 21 -7 26 0
5 -17 9 -39 9 -22 0 -44 6 -51 15 -17 20 -36 19 -60 -5z"/>
<path d="M2277 733 c-8 -7 11 -33 24 -33 5 0 9 9 9 20 0 19 -20 27 -33 13z"/>
<path d="M1507 698 c-16 -39 -10 -88 10 -88 12 0 13 8 8 42 -6 35 -5 40 9 35
19 -7 28 5 20 27 -10 26 -33 18 -47 -16z"/>
<path d="M1626 721 c-6 -10 31 -51 46 -51 4 0 8 11 8 25 0 14 -4 25 -9 25 -5
0 -16 3 -24 6 -8 3 -18 1 -21 -5z"/>
<path d="M99 623 c-35 -36 -72 -75 -81 -85 -18 -18 -25 -58 -11 -58 4 0 18 12
31 28 13 15 50 55 83 88 53 56 74 94 50 94 -5 0 -38 -30 -72 -67z"/>
<path d="M1727 674 c-9 -9 63 -94 79 -94 10 0 14 -13 14 -40 0 -31 5 -43 25
-56 14 -9 34 -14 45 -11 26 7 45 -16 32 -40 -13 -22 2 -53 24 -53 13 0 15 10
12 55 -3 54 -3 54 14 32 10 -12 18 -26 18 -30 0 -5 9 -21 19 -36 l20 -28 -53
-16 c-77 -25 -146 -33 -146 -17 0 12 -72 90 -84 90 -3 0 -3 -21 -1 -47 3 -27
3 -42 -1 -35 -3 6 -12 12 -20 12 -8 0 -28 7 -45 15 -26 14 -30 14 -35 0 -3 -8
-13 -15 -21 -15 -19 0 -42 -29 -43 -52 0 -10 -4 -18 -9 -18 -5 0 -18 -3 -28
-6 -17 -5 -17 -5 0 6 23 15 22 50 -1 50 -10 0 -23 -5 -30 -12 -7 -7 -31 -13
-54 -14 -24 -1 -72 -9 -108 -18 -107 -26 -135 -22 -181 24 -22 22 -49 40 -60
40 -10 0 -42 11 -71 24 -88 39 -118 47 -124 31 -9 -22 2 -31 63 -50 31 -10 71
-32 89 -49 110 -105 171 -146 217 -146 36 0 72 30 79 65 7 42 111 64 121 25 5
-19 10 -20 89 -14 45 4 96 13 113 22 16 8 76 18 135 23 78 6 126 16 190 39 47
17 90 36 97 42 19 16 16 38 -6 38 -10 0 -22 8 -26 18 -6 16 -7 16 -16 -1 -9
-15 -14 -11 -43 31 -18 27 -36 57 -39 66 -8 20 -37 21 -37 2 0 -21 -25 -26
-59 -13 -27 10 -31 16 -31 50 0 27 -5 40 -17 44 -10 4 -33 22 -52 40 -35 34
-43 38 -54 27z m-434 -451 c-13 -2 -33 -2 -45 0 -13 2 -3 4 22 4 25 0 35 -2
23 -4z"/>
<path d="M1979 667 c-1 -4 -2 -10 -3 -14 -1 -5 -5 -14 -9 -20 -5 -7 -5 -17 -2
-23 7 -12 65 -14 65 -2 0 10 -50 67 -51 59z"/>
<path d="M710 635 c0 -13 79 -75 97 -75 4 0 30 -25 57 -55 40 -46 54 -55 81
-55 18 0 52 -9 76 -19 24 -10 74 -22 112 -26 56 -5 67 -4 67 9 0 20 -10 25
-67 32 -75 8 -164 37 -158 51 7 20 -53 63 -90 63 -20 0 -35 6 -39 15 -3 8 -26
24 -51 36 -25 12 -48 25 -51 30 -9 14 -34 10 -34 -6z"/>
<path d="M1570 627 c0 -13 -5 -28 -11 -34 -16 -16 8 -28 26 -13 20 17 20 70 0
70 -9 0 -15 -9 -15 -23z"/>
<path d="M2548 554 c-2 -53 0 -98 5 -101 4 -2 7 41 7 96 0 56 -2 101 -4 101
-3 0 -6 -43 -8 -96z"/>
<path d="M1624 605 c-3 -8 -3 -19 1 -25 11 -18 25 -11 25 15 0 27 -17 34 -26
10z"/>
<path d="M1387 538 c-11 -28 -14 -45 -7 -52 19 -19 10 -25 -47 -28 -95 -5 -59
-32 56 -43 24 -2 52 -12 65 -23 11 -11 37 -22 56 -24 19 -3 42 -7 50 -9 9 -2
16 4 18 18 2 17 -3 25 -21 32 -28 11 -57 52 -57 80 0 11 -9 25 -20 31 -11 6
-20 17 -20 26 0 11 -36 34 -54 34 -2 0 -10 -19 -19 -42z m71 -80 c21 -21 13
-28 -15 -16 -42 18 -50 28 -22 28 14 0 30 -5 37 -12z"/>
<path d="M2544 313 c-14 -45 -35 -84 -49 -89 -15 -6 -58 -74 -69 -111 -6 -18
-3 -23 12 -23 10 0 24 10 30 23 10 19 11 16 6 -21 -4 -33 -3 -42 9 -42 33 0
64 84 73 198 6 76 1 106 -12 65z"/>
<path d="M2078 303 c-8 -10 -26 -45 -39 -78 -13 -33 -27 -65 -32 -72 -10 -14
0 -36 14 -28 5 4 9 -7 9 -24 0 -16 4 -33 10 -36 11 -7 18 21 23 91 1 29 8 58
14 65 10 13 43 86 43 95 0 11 -29 2 -42 -13z"/>
<path d="M372 268 c-18 -5 -66 -27 -106 -48 -41 -22 -87 -40 -103 -40 -16 0
-45 -12 -64 -26 -19 -14 -49 -32 -67 -39 -18 -8 -32 -21 -32 -31 0 -23 50 -12
93 20 18 13 50 27 72 31 22 4 83 29 136 56 53 27 101 49 108 49 25 0 137 -64
228 -130 52 -39 99 -67 104 -64 12 7 12 34 0 34 -5 0 -16 6 -23 13 -19 19 -86
69 -146 111 -83 58 -146 78 -200 64z"/>
<path d="M1912 260 c-12 -12 -22 -24 -22 -28 0 -5 -12 -22 -27 -38 -16 -16
-39 -41 -52 -56 l-23 -27 33 -10 c27 -9 19 -9 -41 -4 -41 3 -126 7 -187 7 -69
1 -113 5 -113 11 0 6 9 28 21 49 14 26 17 42 10 49 -12 12 -48 -44 -57 -90 -6
-32 -7 -33 -58 -33 -58 0 -71 -6 -55 -27 15 -18 100 -17 125 2 25 19 128 19
219 0 97 -21 194 -20 202 1 3 9 0 20 -8 25 -10 6 -10 9 -1 9 6 0 12 6 12 14 0
7 7 19 15 26 8 7 15 27 15 46 0 22 7 38 21 48 13 9 19 21 16 30 -8 21 -19 20
-45 -4z"/>
<path d="M1203 164 c-39 -16 -92 -134 -60 -134 8 0 20 13 25 30 6 16 27 44 47
61 27 24 33 34 23 40 -14 9 -17 10 -35 3z"/>
<path d="M2200 115 c-14 -36 -13 -37 10 -25 21 11 27 35 10 45 -6 3 -15 -6
-20 -20z"/>
<path d="M2337 92 c-41 -42 -45 -52 -21 -52 20 0 74 54 74 74 0 25 -13 19 -53
-22z"/>
</g>
</svg>
