<?xml version="1.0" standalone="no"?>
<!DOCTYPE svg PUBLIC "-//W3C//DTD SVG 20010904//EN"
 "http://www.w3.org/TR/2001/REC-SVG-20010904/DTD/svg10.dtd">
<svg version="1.0" xmlns="http://www.w3.org/2000/svg"
 width="380.000000pt" height="256.000000pt" viewBox="0 0 380.000000 256.000000"
 preserveAspectRatio="xMidYMid meet">
<metadata>
Created by potrace 1.16, written by Peter Selinger 2001-2019
</metadata>
<g transform="translate(0.000000,256.000000) scale(0.100000,-0.100000)"
fill="#000000" stroke="none">
<path d="M1844 1743 c-10 -16 -24 -34 -31 -41 -23 -23 -14 -30 43 -34 66 -4
69 -2 47 31 -9 14 -22 36 -29 49 -11 22 -11 22 -30 -5z"/>
<path d="M3 1753 c4 -6 44 -21 89 -32 163 -43 153 -35 109 -94 -21 -29 -48
-70 -60 -92 -46 -88 -96 -150 -119 -148 -23 3 -30 -12 -9 -20 9 -4 10 -6 0 -6
-8 -1 -13 -14 -13 -32 0 -19 4 -28 11 -23 8 4 7 0 -1 -15 -6 -12 -10 -45 -8
-73 3 -52 3 -52 29 13 27 65 109 249 136 304 32 67 45 85 76 109 17 15 38 31
45 37 31 26 70 39 115 39 30 0 46 4 42 10 -16 25 -125 1 -166 -36 -13 -11 -22
-13 -36 -6 -10 5 -61 21 -113 35 -52 14 -104 29 -114 33 -13 5 -17 4 -13 -3z
m32 -474 c-14 -30 -25 -49 -25 -42 0 18 40 107 45 101 3 -3 -6 -29 -20 -59z"/>
<path d="M1526 1671 c-42 -24 -55 -67 -28 -93 21 -22 23 -22 237 -32 77 -4
178 -11 225 -16 164 -18 175 -18 178 7 5 32 -15 63 -51 78 -32 14 -32 14 11
15 113 1 804 -107 873 -136 78 -34 109 -80 204 -301 26 -62 52 -113 58 -113 6
0 6 4 -1 13 -5 6 -28 58 -51 115 -106 265 -142 298 -361 336 -394 68 -872 124
-800 94 17 -7 30 -23 37 -47 14 -44 14 -45 -36 -36 -40 7 -41 8 -41 46 0 30
-4 39 -17 41 -10 0 -22 2 -28 3 -5 1 -56 5 -112 9 -56 4 -126 14 -155 22 -68
18 -106 17 -142 -5z m142 -7 c19 -5 22 -13 22 -51 0 -34 -3 -44 -14 -40 -7 3
-34 9 -60 12 -40 6 -49 12 -61 39 -12 28 -13 29 -14 8 -1 -28 -27 -57 -36 -42
-12 19 5 61 28 70 26 10 102 12 135 4z m195 -29 c104 -8 118 -16 97 -54 -9
-18 -20 -21 -69 -21 -93 0 -178 11 -178 24 0 6 -3 23 -6 37 -7 29 -17 28 156
14z m243 -46 c3 -5 0 -9 -6 -9 -6 0 -8 -4 -5 -10 3 -5 3 -10 -1 -10 -8 0 -33
31 -34 42 0 9 39 -2 46 -13z"/>
<path d="M440 1571 c-14 -4 -25 -11 -25 -17 0 -5 -17 -30 -39 -54 -38 -45 -38
-45 -17 -3 11 22 26 43 33 46 7 3 8 6 2 6 -46 4 -105 -167 -214 -614 -76 -316
-86 -398 -57 -467 31 -75 -1 -72 752 -66 369 3 661 4 650 1 -11 -3 -34 -11
-51 -19 -25 -12 -36 -12 -61 -2 -21 9 -63 11 -141 8 -107 -5 -113 -6 -139 -34
-28 -29 -28 -29 9 -7 48 29 213 41 274 20 21 -7 50 -12 64 -11 24 3 24 2 6
-13 -27 -20 -6 -19 23 2 26 18 29 18 171 28 84 6 99 4 135 -14 22 -12 31 -21
22 -21 -10 0 -15 -4 -12 -10 3 -5 1 -10 -5 -10 -6 0 -8 -5 -5 -10 4 -6 -7 -9
-27 -9 -114 6 -284 -4 -303 -17 -18 -13 -15 -14 30 -7 67 10 267 8 450 -5 148
-10 446 -9 700 3 118 5 128 4 111 -10 -13 -10 -15 -15 -6 -15 7 0 21 6 29 14
9 7 45 16 81 20 45 4 69 11 78 23 21 28 118 19 190 -19 53 -27 55 -28 30 -5
-35 31 -35 37 2 37 17 0 30 -5 30 -11 0 -14 64 -39 97 -38 22 1 19 3 -14 11
-26 5 -50 19 -63 35 -18 24 -26 26 -105 27 -47 0 -85 -2 -85 -5 0 -3 -7 -6
-16 -6 -12 0 -10 5 7 19 26 19 25 19 239 -3 122 -13 289 -45 359 -70 30 -10
62 -19 71 -19 48 0 89 -21 93 -48 2 -15 5 11 5 58 2 85 2 85 -206 85 -114 0
-213 1 -220 3 -6 3 -15 22 -19 44 -6 40 -6 40 -67 33 -70 -8 -244 -10 -251 -3
-6 5 -4 6 96 8 129 3 157 57 114 215 -173 634 -206 708 -320 739 -16 4 -271
31 -595 61 -94 9 -298 24 -460 35 -85 5 -177 12 -205 15 -27 2 -95 7 -150 10
-55 3 -111 8 -125 10 -22 4 -166 13 -490 30 -52 3 -169 10 -260 15 -91 6 -167
9 -170 9 -3 -1 -16 -4 -30 -8z m143 -41 c50 0 67 -22 27 -35 -29 -9 -25 -16
25 -48 45 -29 76 -31 148 -11 48 14 -5 54 -72 54 -22 0 -44 6 -51 15 -11 13
-5 15 44 15 31 0 56 -4 56 -10 0 -6 16 -18 35 -27 21 -10 34 -22 31 -30 -9
-23 9 -14 45 23 34 36 34 36 204 29 94 -3 203 -11 243 -16 55 -8 77 -8 88 1
10 9 21 10 41 2 16 -6 66 -13 113 -16 47 -4 105 -8 130 -11 48 -5 389 -26 478
-30 29 -1 54 -4 57 -7 3 -2 12 -65 20 -139 8 -74 17 -143 19 -154 3 -11 7 -60
11 -110 8 -120 35 -377 41 -390 4 -10 -1 88 -12 245 -7 85 -7 85 17 63 13 -12
55 -83 94 -157 38 -74 71 -133 73 -131 8 7 -122 252 -158 297 -37 46 -37 46
-54 225 -10 98 -22 193 -26 211 -8 32 -8 32 53 32 34 0 105 -5 157 -10 295
-31 419 -40 450 -35 26 4 31 3 20 -4 -13 -9 -12 -11 5 -11 51 -1 73 -45 165
-332 36 -110 68 -194 73 -191 6 3 7 1 3 -6 -10 -15 33 -181 52 -204 8 -9 12
-20 9 -24 -4 -3 -7 -1 -7 5 0 7 -3 11 -7 10 -5 -2 -18 7 -29 18 -45 45 -142
50 -197 12 -27 -20 -27 -20 -61 10 -52 45 -86 49 -146 16 -53 -29 -83 -65 -61
-72 6 -2 11 -21 11 -43 0 -21 4 -39 10 -39 5 0 17 -14 25 -30 10 -19 21 -28
28 -24 9 5 9 4 1 -5 -16 -18 -358 -29 -368 -12 -5 7 8 12 41 13 75 2 81 3 89
11 4 4 -27 7 -69 7 -70 0 -77 -2 -77 -20 0 -31 -15 -24 -29 15 -13 37 -33 49
-24 15 3 -11 1 -20 -5 -20 -10 0 -24 35 -35 85 -3 11 -5 -6 -6 -37 -1 -58 -1
-58 33 -58 28 0 34 -4 38 -25 5 -25 5 -25 -116 -26 -240 -2 -379 0 -384 6 -3
3 107 5 243 5 179 0 246 3 238 11 -11 11 -213 13 -443 4 -496 -19 -469 -20
-463 22 2 21 0 49 -6 63 -10 22 -10 19 -5 -17 4 -34 2 -45 -15 -62 -21 -21
-30 -21 -453 -22 -755 -2 -816 0 -803 22 3 5 0 6 -8 3 -28 -10 -47 36 -47 113
0 39 3 74 8 76 4 3 6 -30 4 -73 -3 -63 -1 -78 12 -83 9 -4 16 -2 16 3 0 6 -4
10 -10 10 -5 0 -9 15 -9 33 1 22 3 25 6 10 6 -32 58 -78 101 -91 32 -10 1149
-7 1160 2 1 2 -1 145 -4 320 -4 174 -10 313 -13 310 -3 -3 -6 -135 -6 -292 0
-158 -2 -294 -5 -302 -4 -11 -27 -16 -95 -20 -125 -8 -815 -12 -815 -6 0 3 11
22 25 42 14 20 23 46 21 58 -9 44 -36 95 -55 101 -33 10 -31 31 5 50 28 15 34
24 34 52 0 19 -5 32 -11 31 -6 -2 -14 3 -17 11 -3 10 0 12 11 8 21 -8 15 37
-8 63 -45 50 -3 125 97 176 56 28 64 41 13 19 -51 -21 -116 -70 -145 -109 -27
-36 -78 -76 -98 -76 -17 0 -15 25 8 108 11 39 20 84 19 99 -1 22 -4 17 -16
-22 -8 -27 -20 -63 -26 -80 -7 -16 -12 -37 -13 -45 -1 -8 -2 -27 -3 -42 0 -16
-7 -28 -15 -28 -16 0 -26 -43 -21 -96 3 -37 3 -38 -8 -11 -17 42 -39 35 -34
-10 2 -29 7 -37 20 -35 9 2 17 -3 17 -10 0 -8 -10 -14 -21 -15 -12 -1 -32 -12
-45 -24 -29 -27 -39 -20 -29 18 4 15 9 35 11 43 2 8 15 67 29 130 14 63 30
147 36 185 11 76 39 194 69 293 33 106 97 199 122 174 8 -8 4 -13 -16 -18 -40
-10 -31 -19 19 -19 47 -1 58 12 30 35 -20 17 0 33 30 25 11 -2 41 -5 68 -5z
m335 3 c-16 -2 -40 -2 -55 0 -16 2 -3 4 27 4 30 0 43 -2 28 -4z m-583 -125
c-4 -18 -14 -44 -22 -58 -14 -25 -14 -25 -7 0 9 39 28 90 32 90 2 0 0 -15 -3
-32z m2759 -286 c21 -62 36 -115 33 -118 -4 -4 -87 236 -94 276 -7 33 26 -51
61 -158z m-2839 1 c-11 -61 -26 -115 -31 -110 -6 5 25 147 32 147 3 0 2 -17
-1 -37z m-44 -197 c-6 -14 -21 -80 -35 -147 -23 -112 -47 -184 -32 -94 20 120
63 281 73 272 2 -2 -1 -16 -6 -31z m2948 -16 c0 -9 -4 -8 -9 5 -5 11 -9 27 -9
35 0 9 4 8 9 -5 5 -11 9 -27 9 -35z m-2709 -9 c0 -12 -29 -41 -41 -41 -16 0
-10 29 9 39 22 13 32 14 32 2z m30 -57 c0 -7 -4 -16 -10 -19 -15 -9 -12 -42 5
-49 45 -17 -3 -65 -65 -64 -81 1 -127 80 -76 131 18 18 146 18 146 1z m-154
-137 c1 -9 -4 -17 -11 -17 -14 0 -27 25 -17 34 10 10 25 1 28 -17z m2603 -64
c24 -28 24 -28 3 -31 -12 -2 -20 -7 -17 -12 3 -4 13 -6 23 -3 16 4 19 -2 20
-37 4 -106 -139 -126 -188 -25 -28 57 -25 72 17 112 46 44 102 42 142 -4z
m-2524 16 c95 -24 131 -113 67 -170 -18 -16 -40 -29 -50 -29 -10 1 -2 9 19 20
20 11 39 26 42 34 4 9 -12 3 -38 -15 -29 -20 -57 -29 -86 -31 -44 -1 -44 -1 1
-8 44 -7 44 -7 -18 -8 -72 -2 -95 7 -117 46 -16 27 -16 27 -11 2 5 -25 5 -25
-20 3 -80 92 58 195 211 156z m2762 -27 c71 -50 64 -114 -15 -140 -74 -25
-165 19 -178 84 -14 71 118 109 193 56z m73 -132 c-6 -12 -14 -19 -17 -17 -2
3 1 15 7 27 6 12 14 19 17 17 2 -3 -1 -15 -7 -27z m-240 -32 c0 -5 -4 -7 -9
-3 -5 3 -12 1 -16 -5 -10 -16 -25 -11 -25 9 0 14 6 17 25 13 14 -2 25 -9 25
-14z m200 2 c-8 -5 -26 -9 -40 -9 -25 1 -25 1 0 9 39 12 59 12 40 0z m-389
-49 c-8 -5 -103 -9 -210 -9 -223 1 -178 12 64 16 103 1 155 -1 146 -7z m127 2
c-10 -2 -28 -2 -40 0 -13 2 -5 4 17 4 22 1 32 -1 23 -4z m-1068 -13 c-8 -5
-49 -9 -90 -8 -60 1 -67 2 -35 7 71 12 142 12 125 1z m-195 -10 c-46 -12 -133
-12 -115 0 8 5 44 9 80 9 51 -1 58 -3 35 -9z m1065 -14 c0 -5 3 -7 6 -3 15 15
65 -24 58 -45 -5 -17 -3 -20 10 -15 10 4 16 1 16 -8 0 -9 -10 -15 -26 -15 -19
0 -25 4 -20 15 8 22 -17 19 -31 -4 -17 -27 -63 -25 -64 3 0 21 0 21 -11 -1 -7
-15 -22 -23 -52 -26 -50 -6 -406 -5 -423 1 -19 6 -16 40 5 45 13 4 11 5 -5 6
-13 1 -23 7 -23 16 0 15 13 18 60 16 14 -1 37 2 50 7 14 5 38 6 55 1 18 -5 33
-5 39 1 15 15 59 13 50 -2 -6 -10 -5 -10 7 -1 9 8 58 13 125 15 161 4 174 4
174 -6z m370 3 c0 -6 -16 -9 -38 -8 -21 2 -42 0 -48 -4 -6 -3 -14 -4 -18 0
-16 16 -2 23 49 23 33 0 55 -4 55 -11z m227 -26 c-14 -13 -27 9 -15 24 12 15
13 14 16 -1 2 -10 1 -20 -1 -23z m-467 -23 c0 -21 -18 -64 -21 -50 0 3 -2 14
-4 25 -2 11 -7 33 -11 48 -6 27 -6 28 15 16 12 -8 21 -24 21 -39z m-853 28
c-2 -9 -21 -12 -59 -10 -31 2 -66 -1 -77 -7 -18 -10 -21 -9 -21 9 0 18 6 20
81 20 60 0 80 -3 76 -12z m973 2 c3 -1 -5 -5 -18 -11 -13 -5 -35 -6 -49 -3
-20 6 -24 4 -18 -7 7 -12 5 -12 -6 -1 -26 24 32 38 91 22z m-1033 -46 c-9 -9
-28 6 -21 18 4 6 10 6 17 -1 6 -6 8 -13 4 -17z m100 6 c8 0 13 -6 10 -12 -3
-9 6 -13 27 -13 21 0 32 5 34 17 3 13 7 12 28 -8 32 -33 32 -33 -23 -33 -70 0
-100 8 -105 27 -6 21 3 53 10 35 2 -7 11 -13 19 -13z m-167 -5 c0 -8 -4 -15
-9 -15 -13 0 -22 16 -14 24 11 11 23 6 23 -9z m1819 9 c29 -6 48 -44 21 -44
-5 0 -10 7 -10 15 0 8 -3 15 -7 16 -5 0 -55 3 -113 5 -57 3 -107 7 -109 10 -7
6 183 5 218 -2z m-1699 -24 c21 -13 10 -19 -23 -13 -21 4 -25 8 -15 14 16 11
20 11 38 -1z"/>
<path d="M1254 1466 c-8 -8 -5 -14 9 -21 11 -5 29 -26 40 -45 30 -55 53 -72
27 -20 -32 64 -63 99 -76 86z"/>
<path d="M1431 1433 c-1 -28 4 -53 9 -55 15 -5 14 -250 -1 -348 -1 -8 -1 -55
1 -105 4 -90 4 -90 10 5 6 90 6 87 9 -65 5 -250 12 -309 36 -314 17 -3 18 -1
6 13 -16 19 -8 46 14 46 9 0 13 -5 10 -10 -3 -6 -4 -18 -1 -28 5 -16 22 -18
146 -20 127 -1 160 4 130 23 -18 11 -12 38 8 32 9 -3 41 -12 71 -21 30 -8 57
-19 60 -23 3 -5 18 -9 33 -8 26 0 27 2 21 43 -4 32 -2 42 8 42 11 0 11 2 -1
10 -8 5 -16 21 -17 35 -2 23 1 25 38 23 39 -1 39 -1 39 -55 0 -66 15 -71 18
-5 1 26 2 56 3 67 2 11 2 53 1 93 -2 65 -4 74 -24 82 -26 10 -14 13 20 4 16
-5 22 -14 23 -38 1 -30 2 -30 9 7 10 52 20 59 68 51 42 -7 42 -7 42 -58 0 -28
4 -87 10 -131 5 -44 11 -97 12 -117 1 -21 8 -40 16 -43 9 -3 12 1 8 13 -6 17
-15 110 -35 352 -5 58 -17 173 -27 257 -18 151 -18 151 -56 157 -33 5 -122 11
-493 31 -138 7 -196 16 -200 29 -24 87 -23 85 -24 29z m199 -73 c47 0 137 -5
200 -10 119 -10 249 -18 311 -19 36 -1 36 -1 43 -97 4 -53 10 -102 13 -110 3
-9 -10 -29 -32 -49 -20 -20 -30 -35 -22 -35 8 0 22 9 32 20 21 24 35 18 35
-16 0 -24 -3 -25 -53 -23 -59 3 -76 -4 -78 -29 -1 -9 -7 24 -14 73 -12 90 -12
90 -15 15 -2 -75 -2 -75 -11 -20 -4 30 -11 104 -14 163 -4 60 -9 106 -12 104
-7 -8 -6 -151 1 -175 5 -13 3 -22 -3 -22 -6 0 -11 -6 -11 -13 0 -20 -71 -56
-77 -39 -10 27 -55 71 -101 99 -44 26 -53 28 -164 28 -67 0 -118 4 -118 9 0 6
-7 1 -15 -10 -15 -19 -15 -19 -30 0 -8 11 -16 16 -17 10 -1 -5 -4 27 -7 71 -7
99 -9 95 36 84 21 -5 76 -9 123 -9z m76 -171 c49 -7 94 -20 120 -35 45 -27 80
-61 71 -70 -6 -7 -48 14 -62 32 -17 22 -94 56 -107 48 -14 -9 -132 -7 -162 3
-19 5 -19 6 -1 19 23 17 41 17 141 3z m-191 -35 c32 -33 48 -64 33 -64 -16 0
-78 61 -78 76 0 18 22 12 45 -12z m205 -67 c0 -6 -11 0 -25 13 -14 13 -25 28
-25 33 0 6 11 0 25 -13 14 -13 25 -28 25 -33z m-205 -7 c15 -30 15 -30 -20
-12 -24 12 -35 24 -35 40 0 31 33 14 55 -28z m347 -2 c31 -21 65 -39 75 -40
37 -3 53 2 53 17 0 8 4 15 9 15 5 0 12 10 14 23 2 12 5 3 6 -21 1 -37 -2 -44
-24 -52 -36 -14 -32 -34 5 -27 16 4 32 2 35 -3 4 -6 -9 -10 -30 -10 -36 0 -36
-1 -33 -37 2 -28 8 -39 22 -41 16 -3 18 1 14 27 -3 18 0 31 6 32 6 1 18 2 26
3 44 5 66 -30 25 -40 -13 -3 -37 -21 -53 -40 -29 -34 -30 -34 -88 -28 -33 4
-53 9 -46 12 14 4 -110 51 -138 52 -9 0 -31 -13 -50 -29 -20 -16 -47 -28 -62
-28 -26 0 -26 0 -3 21 55 51 73 62 118 80 42 16 63 36 37 36 -5 0 -10 5 -10
10 0 6 10 10 23 10 18 0 19 2 7 10 -13 9 -13 11 0 19 20 14 27 6 28 -30 1 -48
25 -68 69 -59 19 5 42 6 49 3 36 -14 -4 31 -57 63 -32 20 -59 43 -59 51 0 8
-4 12 -9 9 -16 -10 -41 6 -41 26 0 21 -4 23 82 -34z m-169 -38 c-3 -8 -7 -26
-8 -40 -1 -14 -6 -24 -11 -22 -5 1 -13 3 -18 5 -5 2 -5 18 -1 36 5 22 10 29
15 21 5 -9 9 -9 14 -1 14 22 -25 23 -65 2 -52 -27 -54 -25 -29 33 20 47 20 47
64 14 31 -22 43 -38 39 -48z m-195 3 c5 -10 7 -24 4 -32 -2 -7 1 -17 8 -21 9
-5 9 -9 1 -14 -7 -5 -14 4 -17 23 -4 17 -10 31 -14 31 -4 0 -10 7 -14 15 -8
21 21 19 32 -2z m714 -49 c4 -3 8 -20 8 -38 0 -32 0 -32 -50 -26 -27 4 -50 3
-50 -2 0 -4 -4 -8 -8 -8 -5 0 -9 21 -11 46 -2 47 -2 47 50 40 29 -4 56 -9 61
-12z m-572 -31 c0 -18 -40 -83 -51 -83 -20 0 -15 44 8 70 28 34 43 38 43 13z
m-89 -18 c4 -46 3 -55 -5 -57 -5 -2 -10 5 -12 16 -1 10 -7 23 -13 29 -17 17
-13 27 9 27 11 0 21 -7 21 -15z m252 -99 c53 -28 109 -50 121 -47 4 1 15 -6
23 -16 10 -13 16 -15 19 -5 9 20 26 13 22 -9 -4 -31 -35 -49 -48 -29 -6 10
-10 11 -10 3 0 -7 -6 -13 -14 -13 -9 0 -12 7 -9 20 4 13 0 20 -9 20 -21 0
-121 56 -143 80 -24 27 -6 25 48 -4z m237 4 c0 -5 -10 -10 -22 -10 -19 0 -20
2 -8 10 19 13 30 13 30 0z m33 -73 c6 -90 -10 -73 -19 18 -4 47 -3 67 4 60 5
-5 12 -41 15 -78z m-289 27 c31 -16 56 -32 56 -36 0 -5 9 -8 19 -8 10 0 21 -7
25 -15 8 -22 -20 -19 -45 6 -20 20 -104 62 -126 64 -7 0 -18 6 -24 12 -22 22
36 8 95 -23z m-151 -13 c15 -6 27 -17 27 -25 0 -19 -96 -116 -116 -116 -20 0
-15 51 10 102 9 17 16 39 16 50 0 14 4 16 18 9 9 -5 29 -14 45 -20z m-129 -36
c4 -20 11 -33 17 -30 11 7 12 -5 1 -23 -6 -9 -11 -6 -19 10 -17 34 -25 78 -14
78 5 0 12 -16 15 -35z m216 -35 c0 -21 -40 -53 -70 -55 -10 -1 -29 -9 -44 -18
-49 -32 -26 1 32 47 63 49 82 55 82 26z m230 -15 c0 -8 -6 -15 -14 -15 -20 0
-29 17 -14 23 22 9 28 7 28 -8z m-230 -60 c0 -8 5 -15 11 -15 6 0 3 -7 -6 -16
-9 -9 -14 -22 -12 -29 4 -8 -12 -12 -54 -14 -37 -1 -59 2 -59 9 0 8 -6 8 -20
0 -16 -8 -18 -8 -14 4 3 9 16 18 27 22 39 11 77 29 77 36 0 6 19 13 43 17 4 0
7 -6 7 -14z m180 -25 c0 -5 -12 -10 -26 -10 -14 0 -23 4 -19 10 3 6 15 10 26
10 10 0 19 -4 19 -10z"/>
<path d="M2041 1288 c-1 -16 4 -28 9 -28 12 0 12 8 0 35 -8 18 -9 17 -9 -7z"/>
<path d="M1920 898 c-21 -9 -22 -12 -7 -15 23 -6 47 3 47 17 0 12 -8 12 -40
-2z"/>
<path d="M1386 1428 c9 -59 14 -60 14 -5 0 26 -5 47 -10 47 -6 0 -8 -16 -4
-42z"/>
<path d="M2960 1219 c0 -11 81 -252 89 -267 19 -32 11 1 -30 127 -33 104 -59
164 -59 140z"/>
<path d="M1327 1032 c-10 -10 -17 -25 -17 -33 0 -31 -50 -116 -90 -154 -23
-22 -46 -49 -52 -60 -14 -27 77 61 112 107 15 21 31 34 35 30 5 -4 5 -2 2 4
-3 6 0 22 7 35 12 24 29 89 22 89 -1 0 -10 -8 -19 -18z"/>
<path d="M1272 981 c-12 -25 -20 -46 -18 -48 7 -7 48 67 43 80 -2 6 -14 -8
-25 -32z"/>
<path d="M980 982 c0 -12 39 -60 40 -49 0 5 -9 20 -20 34 -11 14 -20 21 -20
15z"/>
<path d="M2110 718 c0 -12 88 -10 95 2 4 7 -12 10 -44 9 -28 -1 -51 -6 -51
-11z"/>
<path d="M2060 570 c0 -22 -15 -27 -26 -9 -7 12 -24 -6 -24 -26 0 -5 5 -3 10
5 9 13 11 13 20 0 11 -17 24 -7 35 28 4 13 2 22 -4 22 -6 0 -11 -9 -11 -20z"/>
<path d="M2842 616 c6 -14 15 -26 20 -26 10 0 -7 36 -22 45 -6 4 -5 -5 2 -19z"/>
<path d="M2796 611 c-5 -7 -3 -18 3 -24 14 -14 20 -6 11 17 -5 15 -9 16 -14 7z"/>
<path d="M2791 561 c-32 -20 33 -71 91 -71 10 0 30 11 43 25 42 41 26 77 -17
38 -16 -15 -21 -15 -28 -3 -5 8 -12 11 -15 8 -10 -9 4 -28 20 -28 7 0 21 7 29
16 13 12 16 12 16 2 0 -24 -23 -38 -59 -38 -44 0 -58 9 -62 37 -3 16 -8 20
-18 14z"/>
<path d="M270 590 c-27 -27 -25 -46 5 -66 24 -15 65 -12 65 6 0 14 -18 21 -25
10 -9 -15 -45 7 -45 27 0 12 7 14 35 10 36 -6 43 1 23 21 -17 17 -35 15 -58
-8z"/>
<path d="M360 555 c0 -48 12 -58 30 -25 6 11 14 19 18 17 4 -1 7 2 7 8 0 5 -5
9 -12 7 -6 -1 -14 2 -18 8 -4 6 4 10 19 10 14 0 28 5 31 10 4 6 -10 10 -34 10
-41 0 -41 0 -41 -45z"/>
<path d="M3031 588 c-11 -30 -3 -48 21 -48 16 0 19 5 16 25 -4 17 -1 25 8 25
8 0 14 -9 14 -19 0 -11 5 -23 12 -27 8 -5 9 0 5 15 -3 14 0 24 9 28 25 9 4 23
-37 23 -32 0 -41 -4 -48 -22z"/>
<path d="M3146 601 c-3 -5 -5 -15 -3 -23 2 -7 2 -10 0 -5 -8 13 -22 -3 -16
-18 9 -26 31 -16 35 15 5 31 -5 49 -16 31z"/>
<path d="M3415 1457 c9 -22 14 -44 12 -50 -2 -7 0 -23 6 -37 5 -14 12 -61 14
-105 3 -44 7 -82 9 -84 4 -4 9 129 6 154 -4 31 -39 136 -50 147 -9 9 -8 0 3
-25z"/>
<path d="M3311 1438 c19 -35 53 -168 44 -168 -2 0 -16 20 -32 45 -15 25 -31
45 -35 45 -4 0 -16 17 -27 38 -11 20 -20 31 -21 24 0 -18 18 -51 42 -76 28
-30 51 -76 55 -111 1 -16 5 -40 8 -52 6 -26 -20 -97 -33 -89 -4 2 -8 -4 -8
-15 0 -22 7 -24 24 -7 9 9 12 9 12 0 0 -7 -4 -12 -10 -12 -5 0 -10 -8 -10 -17
0 -15 2 -16 10 -3 10 16 14 8 11 -22 -1 -10 4 -18 11 -18 7 0 18 -16 24 -35 6
-19 8 -35 4 -35 -22 0 -86 92 -76 108 6 11 -30 52 -46 52 -6 0 -2 -10 10 -23
22 -24 29 -47 14 -47 -5 0 -14 10 -21 23 -10 18 -11 19 -7 2 17 -68 197 -581
209 -592 9 -9 29 -13 51 -11 35 3 36 4 21 23 -12 16 -14 17 -9 3 7 -21 -6 -24
-24 -6 -9 9 -12 9 -12 -2 0 -12 -3 -11 -16 2 -15 14 -15 18 0 40 17 26 11 45
-9 28 -8 -7 -15 -2 -24 16 -14 32 -9 41 12 20 13 -14 16 -14 21 0 8 21 8 22
-6 21 -37 -1 -48 4 -48 24 0 29 50 22 66 -8 6 -13 14 -20 18 -15 4 4 14 -2 22
-12 8 -11 14 -15 14 -9 0 20 -80 84 -98 79 -36 -11 -62 35 -35 62 11 12 18 13
20 5 3 -7 11 -9 19 -6 8 3 14 0 14 -6 0 -6 7 -8 15 -5 9 4 18 -2 24 -17 9 -21
10 -19 10 18 1 34 -2 41 -14 37 -8 -4 -15 -1 -15 5 0 6 -7 11 -16 11 -8 0 -12
-5 -9 -11 7 -11 -64 -2 -77 10 -4 3 -18 38 -31 76 -13 39 -27 78 -32 88 -5 13
-2 17 14 17 13 0 25 -9 31 -22 7 -18 9 -19 9 -5 1 30 37 3 62 -48 25 -50 16
-81 -16 -55 -8 7 -18 10 -21 8 -10 -11 50 -48 77 -48 22 0 34 -8 49 -32 11
-18 20 -28 20 -22 0 22 51 36 74 21 11 -8 23 -14 26 -14 15 1 50 -26 44 -34
-3 -6 2 -9 11 -7 10 2 20 -3 22 -10 4 -9 -1 -10 -22 -2 -15 6 -32 7 -38 3 -6
-3 7 -12 29 -18 31 -10 43 -9 61 2 21 13 23 12 21 -13 -2 -19 -9 -27 -30 -31
-35 -7 -35 -16 -2 -31 14 -7 23 -16 20 -21 -3 -5 1 -12 10 -15 8 -3 12 -10 9
-16 -3 -5 1 -10 9 -10 14 0 16 23 16 175 0 110 -4 175 -10 175 -5 0 -10 -4
-10 -8 0 -4 -12 -8 -27 -7 -34 0 -35 16 -4 31 17 9 19 14 10 20 -7 4 -14 3
-17 -4 -5 -15 -62 -46 -62 -35 0 5 -9 14 -20 21 -17 11 -20 10 -20 -7 0 -18
31 -35 59 -31 7 1 10 -3 7 -8 -3 -5 15 -15 40 -21 25 -6 44 -16 42 -22 -5 -16
-82 -41 -86 -29 -2 6 -15 10 -28 10 -24 0 -32 14 -14 25 14 9 12 26 -2 24 -30
-4 -49 2 -68 21 -11 11 -23 20 -27 19 -5 0 -12 7 -18 16 -15 23 9 34 69 30 28
-1 41 -1 29 2 -13 2 -28 12 -35 22 -7 10 -16 18 -20 17 -9 -1 -51 54 -46 60
11 10 37 -9 41 -29 4 -22 4 -22 6 0 0 12 -5 28 -12 35 -12 11 -12 16 0 26 11
11 20 6 50 -23 20 -19 41 -35 47 -35 6 0 -4 13 -22 28 -24 20 -31 32 -26 45 4
12 -1 26 -14 40 -11 12 -23 33 -27 46 -5 16 -10 20 -15 11 -5 -8 -10 -9 -14
-2 -11 19 33 24 66 8 36 -19 38 -19 38 -7 0 5 -12 14 -27 19 -18 7 -22 11 -10
11 9 1 17 6 17 11 0 7 -6 7 -19 0 -32 -17 -51 -12 -62 18 -6 15 -15 34 -19 42
-6 13 -2 15 24 13 31 -4 66 11 54 22 -3 4 -16 1 -28 -5 -15 -8 -25 -8 -34 -1
-7 6 -16 8 -19 4 -4 -3 -7 1 -7 10 0 10 -3 17 -8 17 -4 0 -8 -26 -8 -59 -1
-52 1 -58 18 -53 19 5 25 -12 8 -23 -6 -4 -8 -11 -5 -16 4 -5 1 -9 -4 -9 -6 0
-11 -4 -11 -10 0 -5 7 -7 15 -4 11 5 13 2 9 -10 -3 -9 -11 -13 -17 -9 -6 3 -7
1 -3 -6 4 -6 16 -9 26 -6 20 6 80 -38 68 -51 -4 -4 -14 -1 -22 5 -8 7 -17 8
-20 3 -11 -19 -76 -1 -77 22 0 15 -4 11 -12 -14 -10 -28 -10 -36 0 -38 18 -5
16 -19 -3 -30 -21 -12 -2 -52 34 -75 20 -12 23 -17 10 -17 -10 0 -18 5 -18 10
0 6 -3 9 -7 9 -23 -4 -43 2 -38 11 3 6 2 10 -4 10 -5 0 -11 -5 -13 -11 -2 -7
-10 -4 -18 7 -12 14 -12 16 -1 10 11 -7 13 3 9 58 -5 60 -4 66 13 66 12 0 19
7 19 19 0 11 3 26 6 35 3 9 1 16 -5 16 -6 0 -11 -11 -11 -25 0 -16 -6 -25 -16
-25 -9 0 -18 -9 -21 -20 -7 -27 -30 -25 -36 3 -9 39 -3 82 11 79 15 -3 7 38
-9 49 -5 3 -4 19 3 35 9 25 8 35 -8 59 -10 16 -17 39 -16 51 2 12 -1 25 -7 28
-6 4 -18 22 -27 41 -9 19 -20 35 -25 35 -6 0 -4 -10 2 -22z m59 -226 c0 -7 -4
-10 -10 -7 -5 3 -10 16 -10 28 0 25 20 4 20 -21z m-1 -74 c0 -42 -2 -48 -9
-30 -8 20 -3 82 6 82 2 0 4 -24 3 -52z m53 -124 c0 -8 1 -18 2 -24 1 -5 -3 -9
-9 -7 -5 1 -10 7 -10 14 0 6 -4 15 -8 19 -12 13 -8 24 8 18 8 -4 16 -12 17
-20z m-112 -19 c10 -12 10 -15 -3 -15 -8 0 -17 7 -21 15 -3 8 -2 15 3 15 5 0
14 -7 21 -15z m233 -33 c19 -31 19 -31 -11 -21 -28 10 -47 40 -34 54 11 10 27
-1 45 -33z m-85 -45 c19 0 92 -67 92 -84 0 -12 3 -13 14 -4 12 10 16 8 21 -10
4 -12 3 -24 -1 -28 -5 -3 -9 -12 -10 -18 -2 -29 -5 -33 -25 -33 -16 0 -19 4
-14 19 4 14 0 23 -14 30 -11 6 -25 27 -32 46 -8 22 -20 35 -31 35 -10 0 -18 4
-18 10 0 5 -10 19 -22 31 -23 21 -23 21 2 14 14 -5 31 -8 38 -8z m24 -102 c11
-20 11 -20 -11 -1 -11 11 -21 26 -21 35 0 17 7 10 32 -34z m285 -96 c-3 -12 0
-16 10 -12 13 5 13 2 3 -16 -11 -21 -37 -24 -33 -3 1 5 -14 13 -35 17 -71 13
-61 35 16 33 37 0 43 -3 39 -19z"/>
<path d="M3210 1357 c0 -4 18 -32 40 -62 22 -30 40 -58 40 -62 0 -10 39 -61
40 -52 0 3 -12 29 -27 56 -28 50 -93 134 -93 120z"/>
<path d="M3417 1328 c-8 -30 -1 -35 12 -9 6 11 7 22 2 25 -5 3 -11 -4 -14 -16z"/>
<path d="M3690 1273 c-22 -13 -23 -14 -3 -10 15 3 20 1 16 -9 -3 -8 -9 -11
-14 -8 -5 3 -9 -1 -9 -8 0 -7 9 -19 19 -25 16 -10 18 -9 14 7 -4 16 0 19 38
17 41 -2 44 0 47 26 2 15 -1 27 -6 27 -15 0 -33 -26 -24 -35 4 -4 1 -6 -5 -4
-7 2 -13 9 -14 14 -2 25 -25 28 -59 8z"/>
<path d="M3640 1270 c0 -5 -8 -10 -17 -10 -15 0 -16 -2 -3 -10 20 -13 33 -13
25 0 -3 6 -1 10 4 10 6 0 11 5 11 10 0 6 -4 10 -10 10 -5 0 -10 -4 -10 -10z"/>
<path d="M3220 1235 c0 -6 5 -16 11 -22 6 -6 15 -26 19 -45 8 -33 8 -33 9 -3
0 17 -8 41 -19 55 -11 14 -20 20 -20 15z"/>
<path d="M3770 1215 c6 -7 2 -15 -11 -23 -11 -7 -17 -17 -14 -22 4 -6 11 -7
17 -4 6 4 17 -1 25 -11 12 -17 13 -14 13 26 0 38 -3 45 -19 45 -13 0 -17 -4
-11 -11z"/>
<path d="M3423 1150 c0 -17 4 -30 9 -30 4 0 8 11 8 24 0 14 -4 27 -8 30 -5 3
-9 -8 -9 -24z"/>
<path d="M3685 1110 c-3 -6 1 -7 10 -4 10 4 22 -1 30 -12 8 -11 15 -14 15 -8
0 26 -42 45 -55 24z"/>
<path d="M3453 1020 c0 -25 2 -35 4 -22 2 12 2 32 0 45 -2 12 -4 2 -4 -23z"/>
<path d="M3749 1047 c7 -10 10 -17 5 -17 -5 0 2 -9 15 -19 35 -26 19 -43 -37
-39 -39 2 -47 0 -50 -16 -3 -14 0 -17 13 -12 14 5 17 2 13 -19 -7 -32 10 -33
22 0 10 27 34 25 57 -4 10 -13 12 -6 13 41 0 46 -3 57 -17 61 -17 4 -17 5 0 6
9 0 17 9 17 18 0 13 -3 14 -12 5 -8 -8 -16 -8 -32 0 -19 10 -20 10 -7 -5z"/>
<path d="M3360 863 c0 -11 70 -66 76 -60 3 2 -13 19 -36 37 -22 17 -40 28 -40
23z"/>
<path d="M3560 710 c0 -6 4 -10 9 -10 5 0 11 -10 13 -22 2 -15 11 -24 27 -26
23 -4 23 -4 2 19 -11 13 -21 26 -21 30 0 4 -7 9 -15 13 -8 3 -15 1 -15 -4z"/>
<path d="M3614 616 c-12 -5 -27 -18 -33 -28 -11 -17 -10 -18 6 -9 51 30 71 58
27 37z"/>
<path d="M3610 561 c0 -5 9 -11 21 -14 16 -4 18 -3 8 9 -13 16 -29 19 -29 5z"/>
<path d="M3669 535 c-1 -5 -1 -13 -1 -16 1 -4 -4 -6 -11 -5 -7 0 -13 -3 -15
-9 -2 -5 -15 -22 -29 -37 -27 -28 -27 -28 33 -29 32 -1 78 -2 102 -3 23 -1 43
0 43 3 6 23 3 61 -3 61 -4 0 -8 -5 -8 -11 0 -6 -6 -9 -12 -6 -7 2 -12 8 -11
13 1 5 -5 13 -13 17 -8 5 -12 12 -9 17 3 4 -11 10 -30 12 -20 2 -36 -1 -36 -7z
m85 -70 c18 -13 18 -14 -2 -12 -11 0 -19 4 -16 8 2 4 -4 10 -13 12 -13 3 -13
5 -3 6 8 0 23 -6 34 -14z"/>
<path d="M3385 410 c3 -5 27 -9 53 -9 42 1 44 2 17 9 -45 11 -77 11 -70 0z"/>
<path d="M3638 403 c12 -2 30 -2 40 0 9 3 -1 5 -23 4 -22 0 -30 -2 -17 -4z"/>
<path d="M76 391 c-7 -11 3 -41 14 -41 10 0 50 -36 50 -45 0 -4 -7 -5 -14 -2
-24 10 -27 -24 -11 -119 23 -136 51 -205 70 -174 3 6 1 10 -4 10 -6 0 -11 8
-11 18 0 10 -4 22 -9 27 -13 15 -20 87 -11 110 7 19 8 19 15 2 4 -10 19 -24
34 -33 26 -15 26 -15 -1 -11 -16 2 -28 0 -28 -6 0 -5 15 -7 35 -4 25 4 41 0
59 -14 13 -10 27 -19 31 -19 14 0 -39 47 -71 63 -17 9 -36 23 -43 31 -18 21
-42 104 -32 110 10 6 271 -249 271 -264 0 -5 7 -10 15 -10 8 0 15 -6 15 -12 0
-8 7 -5 15 6 18 24 21 111 3 100 -7 -4 -8 -3 -4 4 17 27 26 8 27 -55 1 -52 3
-60 8 -33 5 27 8 31 14 17 4 -10 11 -16 16 -13 5 4 12 -2 14 -11 3 -10 6 2 7
27 3 38 4 40 8 15 5 -30 5 -30 12 -5 7 21 8 19 9 -15 1 -33 3 -37 12 -22 6 10
8 25 5 34 -5 11 -2 14 9 9 9 -3 13 -2 10 3 -3 5 -1 12 5 16 5 3 10 -1 10 -10
0 -12 4 -14 19 -6 23 13 31 5 32 -33 1 -22 3 -25 6 -11 3 11 12 29 19 40 13
18 14 17 14 -18 0 -20 5 -37 11 -37 5 0 9 8 8 18 -5 56 2 92 19 92 14 0 15 -2
2 -10 -11 -7 -12 -12 -3 -18 6 -4 13 -25 16 -47 3 -30 4 -24 5 23 2 48 5 62
17 62 8 0 15 -4 15 -10 0 -5 -4 -10 -10 -10 -5 0 -10 -5 -10 -11 0 -5 5 -7 10
-4 6 3 10 -4 10 -17 0 -18 2 -20 9 -8 6 8 7 18 5 22 -3 4 3 8 13 9 16 0 16 1
-2 9 -19 8 -19 9 3 9 20 1 22 -3 22 -61 0 -76 7 -73 12 5 3 60 28 84 28 27 0
-38 20 -40 21 -2 0 15 4 36 9 47 10 22 8 28 15 -73 7 -100 22 -15 18 101 -1
17 4 27 13 27 9 0 13 -10 12 -27 -3 -44 2 -147 6 -142 4 4 14 65 19 112 4 42
17 12 17 -40 0 -72 19 -110 21 -43 1 25 0 53 -1 64 -1 11 3 17 12 14 7 -3 13
-11 14 -19 3 -42 5 -49 13 -49 5 0 8 14 7 31 0 18 5 34 12 36 9 3 12 -11 12
-53 0 -31 3 -54 7 -51 8 9 15 53 15 89 -1 18 3 25 12 22 8 -3 12 -17 10 -34
-2 -16 1 -32 6 -35 6 -4 10 8 10 28 0 23 5 34 15 34 12 0 15 -15 17 -66 1 -66
1 -66 7 -4 7 76 31 110 31 45 0 -24 5 -42 11 -42 7 0 10 14 7 35 -3 24 0 35 9
35 8 0 13 -13 13 -35 0 -19 4 -35 9 -35 4 0 7 16 6 35 -3 62 22 40 31 -28 9
-62 9 -62 12 10 3 81 13 92 30 35 7 -25 10 -28 8 -10 -4 36 9 57 25 41 10 -10
10 -24 1 -63 -13 -57 -8 -79 18 -77 14 1 20 12 25 47 4 25 19 71 33 103 27 57
27 57 76 54 57 -4 76 -26 24 -28 -18 -1 -37 -1 -41 0 -5 1 -5 -4 -1 -10 5 -9
2 -10 -12 -5 -10 4 -15 4 -12 0 4 -3 0 -13 -8 -21 -24 -24 -9 -26 31 -3 49 27
57 19 9 -9 -20 -12 -34 -24 -31 -27 6 -6 77 27 77 37 0 11 28 19 45 13 8 -4
15 -11 15 -16 0 -17 33 -37 62 -38 35 0 59 -10 52 -21 -3 -5 7 -9 23 -9 36 -1
157 -32 174 -46 8 -6 21 -11 29 -11 8 0 26 -3 39 -7 15 -5 21 -5 17 2 -3 6
-21 14 -39 17 -17 4 -34 11 -37 15 -3 4 -43 17 -90 30 -47 12 -106 33 -132 46
-55 28 -62 29 -54 9 9 -26 -28 0 -44 29 -7 14 -17 26 -21 26 -4 0 -10 11 -13
25 -8 30 -27 41 -86 50 -41 6 -47 4 -58 -17 -13 -23 -13 -23 -314 -27 -293 -3
-302 -2 -288 15 14 18 14 18 -7 1 -13 -11 -23 -14 -27 -8 -4 6 7 17 23 26 35
18 45 19 35 4 -4 -8 0 -7 15 1 12 6 19 15 17 19 -3 4 24 18 60 30 54 19 91 41
70 41 -39 0 -236 -97 -236 -116 0 -20 -21 -28 -31 -13 -8 12 -11 12 -19 -1 -6
-10 -12 -12 -20 -4 -36 36 233 165 347 166 13 0 21 3 19 7 -5 8 -828 5 -949
-3 -56 -4 -86 -3 -83 3 4 5 2 12 -3 15 -5 4 -12 2 -15 -3z m864 -32 c0 -5 -9
-13 -19 -19 -25 -13 -41 -13 -21 0 10 7 11 10 2 10 -7 0 -20 -9 -29 -20 -10
-11 -22 -20 -28 -20 -6 0 -30 -16 -53 -36 -29 -24 -40 -30 -36 -17 5 16 4 16
-13 -2 -12 -14 -31 -21 -60 -21 -41 -1 -41 -1 -22 19 21 23 24 42 9 52 -17 10
-11 25 13 35 14 6 17 9 7 11 -8 1 5 5 30 9 62 10 220 9 220 -1z m-541 -10 c51
-16 64 -28 50 -46 -7 -7 -9 -16 -5 -20 3 -3 6 -1 6 5 0 8 7 9 23 3 14 -5 30
-5 40 0 11 7 17 6 17 -1 0 -18 49 -11 62 10 7 11 19 20 27 20 11 0 11 -3 1
-15 -11 -13 -10 -15 6 -13 11 2 19 -1 19 -7 0 -5 -6 -8 -14 -7 -7 2 -10 -1 -6
-7 9 -16 -137 -14 -154 2 -10 10 -12 8 -9 -8 2 -15 14 -21 48 -26 26 -3 34 -7
18 -7 -14 -1 -28 -6 -30 -11 -1 -5 -52 -11 -113 -13 -106 -3 -110 -2 -120 20
-5 12 -15 22 -22 22 -7 0 -13 8 -13 19 0 10 -9 21 -20 24 -11 3 -20 14 -20 25
0 16 7 20 47 20 25 1 50 5 55 10 13 13 68 13 107 1z m256 1 c8 -12 9 -12 -95
-15 -88 -3 -104 0 -95 16 8 12 182 12 190 -1z m-144 -41 c-16 -6 -28 -6 -35 1
-7 7 1 10 25 9 32 0 33 -1 10 -10z m74 1 c-3 -5 -12 -10 -20 -10 -8 0 -17 5
-20 10 -4 6 5 10 20 10 15 0 24 -4 20 -10z m447 -142 c-10 -10 -15 -10 -22 2
-6 9 -5 17 3 22 18 11 33 -10 19 -24z m42 -3 c-7 -18 -8 -18 -14 1 -9 23 -1
39 11 27 6 -6 6 -18 3 -28z m46 9 c0 -8 -4 -12 -10 -9 -5 3 -10 13 -10 21 0 8
5 12 10 9 6 -3 10 -13 10 -21z m40 4 c0 -16 -3 -19 -11 -11 -6 6 -8 16 -5 22
11 17 16 13 16 -11z m50 7 c0 -8 -7 -15 -15 -15 -16 0 -20 12 -8 23 11 12 23
8 23 -8z m39 -2 c0 -5 -3 -9 -9 -11 -5 -2 -10 4 -10 13 0 16 16 14 19 -2z m49
0 c-2 -10 -8 -18 -13 -18 -5 0 -11 8 -13 18 -2 10 3 17 13 17 10 0 15 -7 13
-17z m82 3 c0 -20 -20 -31 -29 -17 -4 6 -15 9 -24 5 -12 -4 -17 -1 -17 10 0
12 10 16 35 16 24 0 35 -5 35 -14z m77 2 c-2 -7 -11 -13 -20 -13 -8 0 -19 -3
-23 -7 -10 -10 -24 0 -24 18 0 9 11 14 36 14 24 0 34 -4 31 -12z m-1059 -17
c3 -10 -2 -12 -23 -7 -20 5 -26 3 -23 -6 3 -7 22 -15 44 -18 39 -5 39 -5 40
-50 1 -25 0 -34 -3 -20 -9 51 -13 57 -29 35 -14 -19 -15 -19 -20 3 -4 12 -12
22 -19 22 -14 0 -47 45 -39 53 11 10 68 1 72 -12z m78 9 c14 0 23 -4 20 -9 -7
-11 -86 -13 -86 -2 0 14 14 22 28 16 7 -3 25 -5 38 -5z m64 -5 c0 -8 -7 -15
-15 -15 -16 0 -20 12 -8 23 11 12 23 8 23 -8z m37 -12 c-3 -3 -11 -2 -17 2 -9
6 -9 10 1 16 14 8 27 -7 16 -18z m50 1 c-9 -9 -28 6 -21 18 4 6 10 6 17 -1 6
-6 8 -13 4 -17z m53 13 c0 -8 -3 -17 -7 -20 -9 -9 -34 13 -27 24 8 14 34 11
34 -4z m39 -2 c3 -12 -13 -9 -17 4 -2 7 0 11 6 7 5 -3 10 -8 11 -11z m91 1 c0
-8 -4 -17 -9 -20 -10 -7 -23 19 -14 28 11 11 23 6 23 -8z m50 -1 c0 -8 -7 -15
-15 -15 -8 0 -15 7 -15 15 0 8 7 15 15 15 8 0 15 -7 15 -15z m83 -1 c-6 -17
-19 -18 -29 -3 -5 8 -9 8 -14 -1 -4 -7 -13 -9 -19 -6 -19 12 -3 24 33 24 26 0
33 -4 29 -14z m-176 -14 c-1 -11 -2 -20 -4 -20 -1 0 -7 9 -13 20 -8 16 -8 20
4 20 9 0 14 -8 13 -20z m-44 -56 c-4 -10 -8 -10 -17 -1 -9 8 -10 14 -2 23 13
14 27 -2 19 -22z"/>
<path d="M128 393 c12 -2 30 -2 40 0 9 3 -1 5 -23 4 -22 0 -30 -2 -17 -4z"/>
<path d="M1730 240 c-15 -9 -3 -16 90 -47 25 -8 60 -24 79 -34 18 -11 35 -18
38 -16 5 6 -52 40 -96 57 -30 12 -32 15 -15 22 13 6 11 7 -10 3 -17 -4 -37 0
-50 9 -14 9 -28 11 -36 6z"/>
<path d="M3550 242 c0 -14 101 -40 190 -48 23 -2 30 0 21 5 -8 5 -46 12 -85
16 -39 4 -83 14 -98 21 -16 8 -28 11 -28 6z"/>
<path d="M3081 235 c8 -7 78 -9 85 -2 4 4 -14 7 -41 7 -27 0 -46 -2 -44 -5z"/>
<path d="M2515 220 c-18 -8 -17 -9 7 -9 35 -1 79 -21 72 -33 -3 -5 -2 -8 3 -6
4 1 26 -3 48 -9 46 -13 181 -25 172 -17 -3 4 -45 10 -93 15 -72 8 -93 14 -127
39 -43 32 -50 34 -82 20z"/>
<path d="M2221 216 c12 -10 60 -16 54 -6 -3 5 -18 10 -32 10 -15 0 -24 -2 -22
-4z"/>
<path d="M2291 216 c2 -2 27 -6 54 -9 34 -4 42 -3 25 3 -25 8 -87 13 -79 6z"/>
<path d="M3207 210 c13 -5 46 -12 75 -15 66 -6 26 9 -47 18 -36 5 -44 4 -28
-3z"/>
<path d="M2728 198 c17 -17 90 -38 132 -37 28 0 23 3 -27 14 -34 7 -70 18 -82
24 -26 15 -38 14 -23 -1z"/>
<path d="M2950 202 c0 -7 167 -33 200 -31 18 1 -157 38 -182 39 -10 0 -18 -4
-18 -8z"/>
<path d="M3340 190 c0 -6 9 -10 19 -10 11 0 62 -11 113 -25 110 -30 114 -30
122 -9 5 13 4 14 -7 6 -8 -7 -17 -9 -21 -5 -4 4 -19 9 -34 10 -15 2 -52 11
-82 19 -72 21 -110 25 -110 14z"/>
<path d="M1603 125 c-20 -22 -17 -27 37 -70 28 -22 50 -43 50 -47 0 -5 7 -8
16 -8 14 0 14 3 4 15 -7 9 -10 18 -6 22 3 3 6 2 6 -3 0 -9 16 -13 63 -15 9 0
17 -4 17 -10 0 -5 5 -9 10 -9 6 0 5 8 -2 20 -7 11 -19 18 -26 15 -8 -3 -10 0
-6 7 5 7 0 9 -14 6 -14 -4 -22 -2 -22 7 0 7 -20 26 -45 42 -25 15 -45 31 -45
36 0 12 -24 7 -37 -8z"/>
<path d="M2741 106 c12 -10 79 -16 79 -6 0 5 -19 10 -42 10 -23 0 -39 -2 -37
-4z"/>
<path d="M3725 80 c-7 -12 2 -12 30 0 19 8 19 9 -2 9 -12 1 -25 -3 -28 -9z"/>
<path d="M1506 36 c21 -19 42 -32 46 -30 10 6 -56 64 -72 64 -7 0 5 -15 26
-34z"/>
<path d="M286 38 c-3 -13 -1 -27 4 -32 7 -7 10 -4 10 6 0 9 3 23 6 32 3 9 2
16 -4 16 -5 0 -12 -10 -16 -22z"/>
<path d="M1570 19 c0 -9 48 -24 55 -17 2 2 -9 9 -25 15 -17 6 -30 7 -30 2z"/>
</g>
</svg>
