<?xml version="1.0" standalone="no"?>
<!DOCTYPE svg PUBLIC "-//W3C//DTD SVG 20010904//EN"
 "http://www.w3.org/TR/2001/REC-SVG-20010904/DTD/svg10.dtd">
<svg version="1.0" xmlns="http://www.w3.org/2000/svg"
 width="380.000000pt" height="256.000000pt" viewBox="0 0 380.000000 256.000000"
 preserveAspectRatio="xMidYMid meet">
<metadata>
Created by potrace 1.16, written by Peter Selinger 2001-2019
</metadata>
<g transform="translate(0.000000,256.000000) scale(0.100000,-0.100000)"
fill="#000000" stroke="none">
<path d="M35 1742 c22 -10 72 -27 110 -36 99 -24 101 -26 65 -67 -16 -19 -39
-52 -49 -74 -43 -86 -116 -180 -139 -178 -12 2 -22 -1 -22 -6 0 -12 29 -23 41
-16 5 4 6 -1 3 -9 -7 -18 -24 -22 -24 -6 0 6 -4 10 -9 10 -5 0 -9 -43 -10 -96
-1 -85 5 -114 13 -72 4 17 16 46 65 150 23 48 41 91 41 94 0 27 89 179 119
204 20 17 43 37 51 44 29 26 59 36 107 36 38 1 44 3 30 11 -26 15 -90 2 -132
-27 -26 -17 -41 -22 -53 -15 -9 5 -60 20 -112 34 -52 14 -104 28 -115 31 -11
4 -2 -2 20 -12z m0 -463 c-14 -30 -25 -49 -25 -42 0 18 40 107 45 101 3 -3 -6
-29 -20 -59z"/>
<path d="M1850 1751 c0 -6 -11 -22 -25 -37 -32 -35 -32 -46 3 -41 15 2 39 0
55 -4 34 -10 36 6 5 55 -23 34 -38 45 -38 27z m24 -42 c-3 -5 0 -9 7 -9 7 0 9
-3 6 -6 -9 -10 -37 16 -37 33 0 13 3 13 15 3 8 -7 12 -16 9 -21z"/>
<path d="M1526 1671 c-38 -22 -53 -69 -28 -92 19 -18 159 -35 307 -38 50 -1
119 -6 155 -11 141 -19 175 -17 177 10 3 28 -24 65 -59 80 -61 27 462 -37 781
-96 173 -31 200 -60 316 -332 26 -62 49 -111 51 -109 5 4 -70 186 -112 274
-40 83 -94 135 -163 157 -54 18 -351 67 -577 96 -88 12 -170 23 -184 25 -62
11 -195 14 -170 4 13 -5 27 -13 30 -17 3 -4 19 -14 35 -21 17 -8 24 -16 17
-18 -6 -3 -10 -8 -7 -13 8 -12 -50 -23 -85 -15 -27 6 -30 10 -30 46 0 24 -5
39 -12 39 -39 1 -288 29 -296 34 -25 15 -118 14 -146 -3z m127 -6 c36 -6 37
-7 37 -52 0 -50 3 -50 -93 -25 -33 9 -38 8 -33 -5 6 -13 3 -13 -19 1 -17 11
-25 13 -25 4 0 -9 -3 -9 -11 -1 -32 32 29 95 85 87 11 -2 38 -6 59 -9z m240
-32 c71 -5 77 -8 77 -28 0 -42 -22 -48 -141 -42 -61 3 -112 7 -114 9 -1 2 -5
20 -8 42 -6 39 -6 39 51 32 31 -3 92 -9 135 -13z"/>
<path d="M1540 1633 c0 -13 5 -23 10 -23 13 0 13 11 0 30 -8 12 -10 11 -10 -7z"/>
<path d="M435 1566 c-16 -7 -29 -17 -29 -22 1 -5 -14 -27 -32 -48 -19 -22 -34
-37 -34 -34 0 14 33 69 48 78 12 8 13 10 2 7 -47 -12 -85 -124 -197 -567 -104
-415 -108 -521 -21 -566 30 -16 85 -16 768 -10 404 4 781 9 838 12 58 3 102 1
102 -4 0 -5 -64 -12 -142 -16 -190 -9 -178 -9 -221 -5 -22 1 -42 -2 -45 -8 -4
-6 -14 -13 -22 -16 -8 -2 -3 -3 11 -1 14 1 31 -2 37 -8 8 -8 15 -8 24 0 7 5
24 10 38 10 14 0 73 4 133 8 73 5 107 4 107 -4 0 -6 12 -15 28 -20 16 -6 20
-11 10 -11 -11 -1 -16 -8 -13 -20 3 -18 -4 -19 -128 -22 -196 -3 -197 -3 -197
-10 0 -4 66 -5 146 -3 84 2 167 -1 193 -7 52 -12 607 -15 822 -5 122 6 132 5
115 -9 -16 -12 -17 -15 -4 -15 8 0 21 6 27 14 6 7 42 16 81 20 52 5 72 12 79
25 13 23 120 17 174 -10 20 -11 37 -15 37 -9 0 5 -4 10 -10 10 -5 0 -10 5 -10
10 0 16 57 12 63 -4 6 -15 85 -42 94 -33 2 3 -8 8 -24 11 -16 4 -41 18 -56 32
-24 22 -35 25 -96 23 -38 -1 -74 1 -80 5 -6 4 -11 2 -11 -3 0 -6 -7 -11 -15
-11 -23 0 -18 16 11 29 52 23 440 -27 580 -75 27 -9 76 -22 109 -28 50 -9 60
-15 66 -36 5 -15 7 7 7 55 -1 80 -1 80 -207 79 -113 0 -212 1 -219 4 -6 2 -15
22 -18 44 -7 40 -7 40 -68 32 -122 -14 -897 -28 -847 -15 19 5 145 10 280 11
135 0 260 3 276 5 17 2 71 5 122 6 179 4 182 30 54 474 -56 194 -117 369 -144
410 -42 64 -64 70 -437 104 -363 34 -430 40 -590 51 -85 6 -182 13 -215 16
-33 2 -130 9 -215 14 -85 6 -168 12 -185 15 -16 2 -75 7 -130 10 -55 3 -138 8
-185 10 -206 13 -242 15 -370 20 -74 4 -157 8 -185 10 -27 2 -63 -2 -80 -9z
m199 -47 c5 -4 -3 -13 -17 -20 -15 -7 -27 -15 -27 -18 1 -10 87 -61 103 -61
27 0 47 12 40 24 -3 6 -1 6 8 -1 15 -15 43 -17 34 -3 -3 6 1 7 9 4 9 -3 16 -2
16 4 0 20 -33 36 -77 38 -26 1 -52 9 -61 18 -15 15 -11 16 41 16 32 0 57 -4
57 -10 0 -6 18 -17 40 -26 33 -13 38 -19 29 -30 -25 -30 9 -12 42 22 34 36 34
36 204 29 94 -3 203 -11 243 -16 54 -8 77 -8 87 1 10 8 23 9 47 1 30 -9 185
-23 418 -36 52 -3 145 -10 205 -15 61 -5 120 -7 131 -4 20 5 22 1 29 -58 6
-49 9 -58 16 -41 4 12 4 35 -1 52 -4 16 -7 31 -5 33 5 4 275 -16 415 -31 143
-15 260 -21 225 -12 -27 8 -28 9 -5 9 35 0 83 -15 55 -18 -14 -1 -10 -5 12
-11 18 -5 37 -18 43 -30 6 -11 16 -16 22 -13 6 4 8 3 4 -4 -9 -16 144 -473
157 -465 6 4 8 -3 3 -21 -5 -20 -4 -26 5 -20 8 4 9 3 5 -5 -10 -16 23 -151 42
-174 8 -9 12 -20 8 -25 -4 -4 -18 5 -29 19 -45 54 -127 68 -191 34 -49 -26
-49 -26 -76 0 -49 47 -92 51 -154 15 -50 -28 -79 -60 -56 -60 6 0 10 -20 10
-45 0 -25 4 -45 10 -45 5 0 17 -14 25 -30 9 -17 20 -28 25 -25 6 4 10 2 10 -3
0 -21 -362 -32 -375 -12 -4 6 11 10 39 10 25 0 48 4 51 10 3 6 -16 9 -50 8
-47 -1 -55 -4 -55 -21 0 -14 -5 -17 -16 -13 -13 5 -15 2 -11 -14 4 -14 0 -20
-11 -20 -204 -5 -453 -4 -472 1 -14 4 87 7 223 8 182 1 246 4 241 12 -5 9 -89
10 -313 5 -168 -4 -391 -9 -496 -11 -543 -13 -1351 -8 -1381 8 -76 39 -76 109
-4 422 12 50 23 97 25 105 30 131 48 200 51 200 7 0 -5 -71 -22 -132 -8 -29
-16 -62 -18 -73 -7 -37 -56 -260 -66 -303 -17 -74 -13 -172 8 -171 10 0 12 3
5 6 -7 2 -12 19 -12 36 1 21 3 25 6 11 6 -30 62 -80 103 -92 22 -7 130 -9 295
-7 143 2 396 4 562 4 303 1 303 1 297 314 -4 171 -9 314 -11 316 -2 3 -4 -121
-4 -275 -1 -153 -2 -291 -2 -305 -2 -35 -7 -35 -532 -37 -392 -2 -409 -1 -389
16 49 39 56 64 37 122 -13 41 -23 56 -45 64 -37 14 -35 29 7 52 29 15 35 24
35 51 0 19 -5 32 -11 31 -6 -2 -14 3 -17 11 -3 9 0 12 10 8 21 -7 15 41 -7 57
-52 38 -3 131 97 182 57 29 64 41 11 19 -43 -18 -108 -67 -137 -103 -50 -63
-134 -114 -122 -74 15 48 38 151 42 182 3 27 -1 21 -15 -23 -11 -32 -23 -66
-27 -75 -7 -18 -10 -31 -12 -74 -1 -16 -8 -28 -16 -28 -16 0 -25 -41 -21 -95
4 -40 4 -40 -9 -12 -11 25 -14 27 -26 12 -9 -11 -10 -19 -2 -27 6 -6 8 -17 5
-24 -4 -10 0 -12 11 -8 11 4 16 1 16 -10 0 -9 -8 -16 -18 -16 -11 0 -29 -9
-42 -20 -32 -28 -44 -25 -36 8 4 15 8 34 9 42 2 8 8 33 14 55 6 22 14 60 18
85 11 69 11 72 23 115 6 22 13 65 17 95 27 217 141 488 187 442 8 -8 4 -13
-16 -18 -40 -10 -31 -19 19 -19 47 -1 60 15 29 33 -9 5 -14 14 -10 20 7 12
145 5 160 -9z m284 14 c-15 -2 -42 -2 -60 0 -18 2 -6 4 27 4 33 0 48 -2 33 -4z
m587 -33 c25 -11 -1 -11 -35 0 -20 6 -21 8 -5 8 11 0 29 -3 40 -8z m103 -7
c-10 -2 -28 -2 -40 0 -13 2 -5 4 17 4 22 1 32 -1 23 -4z m-938 -13 c0 -5 -7
-10 -15 -10 -8 0 -15 5 -15 10 0 6 7 10 15 10 8 0 15 -4 15 -10z m-335 -72
c-7 -30 -34 -91 -35 -77 0 12 31 109 36 109 3 0 2 -15 -1 -32z m2263 5 c-10
-2 -26 -2 -35 0 -10 3 -2 5 17 5 19 0 27 -2 18 -5z m492 -279 c29 -85 50 -157
47 -160 -2 -2 -29 70 -59 160 -30 91 -51 163 -47 160 4 -2 31 -74 59 -160z
m-2814 70 c-4 -14 -9 -24 -12 -21 -3 2 -2 17 2 31 3 15 9 25 11 22 3 -3 2 -17
-1 -32z m2883 -294 c0 -9 -4 -8 -9 5 -5 11 -9 27 -9 35 0 9 4 8 9 -5 5 -11 9
-27 9 -35z m-2709 -13 c0 -17 -20 -37 -37 -37 -19 0 -16 27 5 39 23 14 32 13
32 -2z m35 -47 c3 -4 -2 -13 -10 -20 -17 -14 -20 -50 -5 -50 20 0 22 -31 5
-50 -19 -20 -97 -28 -121 -12 -39 25 -50 95 -20 125 15 14 143 20 151 7z
m-159 -143 c1 -9 -4 -17 -11 -17 -14 0 -27 25 -17 34 10 10 25 1 28 -17z
m2593 -53 c37 -31 39 -41 9 -47 -21 -4 -21 -4 3 -6 23 -1 26 -5 27 -45 5 -111
-152 -120 -193 -11 -39 101 71 179 154 109z m-2513 5 c50 -13 104 -66 104
-103 0 -88 -165 -140 -270 -85 -158 83 -23 235 166 188z m2738 -13 c48 -20 82
-71 70 -105 -32 -92 -221 -64 -240 35 -12 62 90 104 170 70z m96 -146 c-12
-23 -49 -41 -83 -39 -17 1 -16 3 8 10 17 4 35 9 40 9 6 1 16 12 23 26 8 14 16
24 19 21 2 -3 -1 -15 -7 -27z m-232 -36 c-3 -2 -18 -7 -36 -10 -27 -6 -30 -4
-25 14 3 14 11 18 24 15 12 -3 19 0 19 8 1 9 4 8 11 -4 6 -10 9 -20 7 -23z
m332 -74 c0 -21 -5 -30 -16 -30 -9 0 -13 5 -10 13 3 6 9 20 12 30 9 25 14 21
14 -13z m-571 -1 c-12 -7 -11 -9 2 -9 9 0 24 -9 34 -20 11 -12 13 -20 6 -20
-7 0 -9 -5 -6 -10 4 -6 11 -8 16 -5 5 4 9 -4 9 -15 0 -16 -4 -20 -16 -16 -9 3
-20 6 -26 6 -6 0 -8 7 -4 15 3 9 0 15 -8 15 -18 0 -28 -27 -13 -33 7 -3 -9 -5
-34 -5 -42 0 -46 3 -42 22 4 21 4 21 -8 0 -8 -17 -24 -24 -64 -29 -57 -7 -392
-5 -412 3 -19 6 -16 40 5 45 13 4 11 5 -5 6 -24 1 -33 31 -10 32 20 0 100 7
135 11 17 2 32 0 32 -5 0 -4 6 -5 13 0 6 4 73 10 147 13 240 9 264 9 249 -1z
m77 -7 c27 -22 35 -57 19 -78 -14 -20 -20 -12 -30 41 -4 22 -12 43 -18 47 -7
4 -7 8 -2 8 6 -1 19 -8 31 -18z m83 7 c-12 -7 -11 -9 1 -10 50 -5 61 -7 66
-11 7 -8 -65 -20 -76 -13 -6 3 -10 1 -10 -6 0 -10 -3 -10 -12 -1 -10 10 -10
15 2 22 12 8 13 11 1 19 -9 6 -5 9 14 9 19 0 23 -3 14 -9z m191 1 c0 -5 -20
-10 -44 -10 -25 0 -48 -5 -52 -11 -4 -8 -9 -7 -15 2 -16 25 -9 29 51 29 33 0
60 -4 60 -10z m-1103 -22 c-2 -9 -22 -12 -66 -10 -63 4 -63 4 -61 -25 1 -15 2
-32 1 -38 -3 -17 -25 29 -29 58 -3 27 -3 27 78 27 61 0 81 -3 77 -12z m-57
-39 c0 -5 -7 -9 -15 -9 -15 0 -20 12 -9 23 8 8 24 -1 24 -14z m99 2 c26 -29
58 -35 66 -12 6 18 7 18 30 -5 35 -35 34 -35 -47 -29 -40 3 -90 6 -110 8 -21
1 -36 7 -34 12 2 6 18 9 35 7 20 -1 30 2 26 8 -17 27 12 37 34 11z m1650 3
c29 -6 48 -44 21 -44 -5 0 -10 7 -10 15 0 9 -10 15 -27 16 -85 2 -198 11 -202
15 -7 6 182 5 218 -2z"/>
<path d="M1260 1467 c0 -8 7 -20 16 -28 8 -7 24 -30 35 -50 10 -21 24 -41 30
-44 15 -10 -29 75 -57 108 -15 17 -24 23 -24 14z"/>
<path d="M1431 1440 c-1 -26 5 -52 11 -58 17 -17 15 -327 -2 -348 -10 -11 -9
-14 4 -14 14 0 16 -15 16 -107 1 -128 10 -333 15 -350 8 -26 21 -12 17 17 -4
25 -1 30 16 30 15 0 19 -5 15 -19 -7 -29 7 -32 152 -36 123 -4 155 1 125 20
-5 3 -10 15 -10 26 0 18 2 18 28 5 15 -7 43 -17 62 -21 19 -4 44 -12 55 -18
47 -25 65 -16 58 30 -4 33 -2 43 8 43 10 1 9 4 -3 11 -10 5 -18 21 -18 34 0
22 4 25 40 25 40 0 40 0 40 -55 0 -30 3 -55 8 -55 10 0 7 44 -9 158 -12 89 -8
122 12 92 8 -12 9 -9 7 9 -5 37 -51 47 -75 15 -16 -22 -22 -23 -93 -17 -41 3
-82 10 -90 14 -9 5 -2 6 18 3 53 -10 37 3 -32 26 -70 23 -86 20 -132 -22 -12
-11 -28 -18 -36 -16 -7 2 -16 -1 -18 -7 -3 -5 5 -11 18 -13 14 -2 22 -10 22
-23 0 -11 -5 -17 -10 -14 -6 4 -8 11 -5 16 4 5 1 9 -4 9 -6 0 -11 -4 -11 -10
0 -5 -4 -10 -10 -10 -5 0 -10 7 -10 15 0 8 -5 15 -10 15 -20 0 9 38 50 67 22
15 38 34 35 41 -3 7 0 10 6 6 13 -8 99 24 99 37 0 5 -4 9 -10 9 -5 0 -10 5
-10 10 0 6 6 10 14 10 8 0 13 8 12 18 0 9 6 17 14 17 8 0 15 -7 16 -15 3 -40
28 -86 46 -81 7 2 30 4 51 4 21 1 33 3 27 5 -5 2 -10 9 -10 15 0 13 -54 50
-88 61 -13 4 -22 15 -22 27 0 25 3 24 64 -11 34 -19 60 -27 74 -23 26 6 29 20
5 26 -12 3 -8 5 9 6 19 1 28 7 31 24 2 12 5 3 6 -21 1 -37 -2 -44 -25 -53 -33
-12 -24 -23 18 -24 18 0 33 -6 36 -14 3 -8 0 -11 -7 -7 -6 4 -11 2 -11 -4 0
-7 6 -10 13 -7 14 5 47 -10 47 -22 0 -5 -15 -15 -32 -21 -33 -13 -33 -13 5
-22 31 -9 41 -7 57 7 17 15 82 17 95 3 2 -2 6 -52 10 -113 4 -60 9 -113 10
-116 2 -3 5 -29 6 -57 2 -32 7 -52 14 -52 9 0 10 15 4 53 -4 28 -13 113 -19
187 -6 74 -18 196 -27 270 -8 74 -18 163 -20 197 -5 61 -5 61 -47 67 -73 9
-166 16 -396 27 -293 13 -291 13 -306 69 -12 45 -12 45 -13 0z m189 -80 c41 0
147 -5 235 -12 160 -12 160 -12 160 -121 0 -110 0 -110 -35 -133 -36 -25 -60
-31 -60 -14 0 20 -60 77 -107 100 -42 22 -62 25 -165 26 -65 1 -118 -2 -118
-7 0 -16 -29 -10 -39 9 -8 14 -11 14 -13 2 -1 -8 -4 23 -7 70 -7 104 -9 100
36 89 21 -5 72 -9 113 -9z m528 -29 c31 -1 32 -3 32 -43 0 -24 5 -74 11 -113
10 -70 10 -70 -25 -102 -20 -18 -30 -33 -22 -33 7 0 21 9 31 20 21 24 35 18
35 -16 0 -24 -3 -25 -48 -23 -58 3 -88 -11 -78 -37 5 -13 4 -16 -3 -9 -5 6
-14 46 -19 90 -11 80 -11 80 -8 8 3 -130 -14 -60 -25 97 -12 169 -12 169 49
165 20 -1 52 -3 70 -4z m-442 -142 c85 -12 136 -33 173 -73 49 -52 2 -41 -70
16 -20 16 -45 29 -55 28 -62 -2 -189 2 -197 7 -14 9 23 33 49 33 12 0 58 -5
100 -11z m-190 -35 c13 -14 24 -28 24 -31 0 -4 7 -15 17 -25 29 -33 -6 -19
-47 18 -39 35 -52 64 -29 64 7 0 22 -11 35 -26z m204 -62 c0 -12 -6 -10 -25 8
-14 13 -25 27 -25 32 0 5 11 1 25 -8 14 -9 25 -23 25 -32z m-214 3 c29 -38 26
-59 -4 -32 -10 10 -24 17 -30 17 -7 0 -12 11 -12 25 0 34 14 31 46 -10z m317
-1 c-6 -20 -38 -8 -41 15 -4 24 -3 24 20 9 12 -8 22 -19 21 -24z m-179 1 c18
-14 39 -25 46 -25 8 0 10 -7 5 -22 -4 -13 -8 -35 -8 -50 0 -31 -1 -32 -28 -18
-16 9 -19 7 -19 -15 0 -25 -36 -85 -51 -85 -32 0 -2 73 48 115 6 6 15 22 19
38 7 30 -6 30 -54 -1 -31 -20 -34 -14 -14 41 20 55 15 53 56 22z m-149 -45
c10 -11 15 -28 12 -40 -3 -11 -1 -20 4 -20 4 0 5 -8 2 -17 -5 -12 -2 -15 10
-10 20 8 35 -17 32 -53 -2 -31 -19 -33 -23 -3 -2 13 -11 28 -20 35 -9 7 -18
28 -20 46 -1 19 -9 40 -17 49 -16 16 -20 33 -7 33 5 0 17 -9 27 -20z m699 -50
c21 -7 26 -16 26 -42 0 -33 0 -33 -47 -29 -36 2 -50 -1 -60 -15 -11 -16 -13
-11 -13 39 0 57 0 57 34 57 19 0 46 -4 60 -10z m-394 -150 c14 -11 28 -20 31
-20 4 0 24 -8 45 -17 22 -9 43 -16 48 -14 4 1 15 -6 23 -16 10 -13 16 -15 19
-5 9 21 24 13 24 -12 0 -29 -37 -47 -51 -25 -6 10 -9 11 -9 2 0 -22 -67 -16
-91 8 -12 12 -26 22 -33 23 -6 1 -26 9 -45 19 -19 9 -40 17 -46 17 -7 0 -18 6
-24 14 -10 12 -8 14 11 12 26 -3 141 -56 146 -68 2 -4 10 -8 18 -8 8 0 14 -4
14 -10 0 -5 7 -10 15 -10 32 0 12 20 -56 55 -38 20 -79 45 -90 56 -19 19 -19
19 4 19 12 0 33 -9 47 -20z m240 2 c0 -14 -11 -21 -26 -15 -8 3 -11 9 -8 14 7
11 34 12 34 1z m-407 -61 c39 -15 34 -32 -29 -95 -78 -79 -92 -65 -52 55 18
52 26 65 38 59 8 -4 27 -13 43 -19z m-112 -66 c11 8 12 -6 0 -24 -7 -11 -11
-10 -19 5 -14 27 -22 80 -14 89 4 4 11 -12 15 -34 5 -23 12 -39 18 -36z m199
-5 c0 -22 -57 -63 -77 -55 -7 2 -15 0 -18 -5 -10 -16 -45 -32 -45 -21 0 12
111 100 128 101 6 0 12 -9 12 -20z m230 -15 c0 -8 -6 -15 -14 -15 -17 0 -28
14 -19 24 12 12 33 6 33 -9z m-217 -42 c-16 -6 -17 -33 -2 -33 6 0 3 -7 -5
-16 -19 -19 -20 -30 -3 -38 6 -3 -27 -5 -74 -4 -66 2 -86 5 -82 15 3 7 15 15
26 18 25 7 69 27 77 35 12 12 65 36 70 32 3 -3 -1 -7 -7 -9z m158 -33 c5 0 9
-4 9 -10 0 -5 -11 -10 -24 -10 -22 0 -23 2 -13 25 8 17 13 20 15 10 2 -8 8
-15 13 -15z"/>
<path d="M1387 1438 c8 -46 13 -48 13 -5 0 21 -4 37 -10 37 -5 0 -7 -14 -3
-32z"/>
<path d="M2250 1280 c0 -19 6 -88 14 -155 8 -66 20 -181 26 -255 6 -74 15
-151 20 -170 9 -31 9 -30 5 15 -3 28 -8 95 -11 150 -7 100 -7 100 18 77 14
-12 42 -56 63 -97 21 -42 40 -74 42 -71 7 7 -66 139 -100 182 -30 37 -34 50
-46 150 -19 167 -23 199 -27 203 -2 2 -4 -11 -4 -29z"/>
<path d="M2960 1219 c0 -11 81 -252 89 -267 19 -31 11 -2 -30 126 -34 105 -59
165 -59 141z"/>
<path d="M1327 1032 c-10 -10 -17 -26 -17 -36 0 -35 -31 -89 -85 -145 -66 -70
-74 -93 -9 -31 60 59 97 114 117 174 19 56 18 64 -6 38z"/>
<path d="M1272 975 c-12 -19 -20 -35 -17 -35 7 0 47 61 42 66 -2 3 -14 -11
-25 -31z"/>
<path d="M990 960 c6 -11 16 -20 22 -20 6 0 3 9 -7 20 -10 11 -20 20 -22 20
-2 0 1 -9 7 -20z"/>
<path d="M1972 960 c-2 -31 9 -60 23 -60 16 0 17 41 0 52 -6 5 -2 8 8 8 10 0
16 4 12 9 -9 15 -42 9 -43 -9z"/>
<path d="M1935 902 c-33 -7 -42 -22 -13 -22 15 0 30 5 33 11 9 14 4 16 -20 11z"/>
<path d="M2073 785 c0 -22 2 -30 4 -17 2 12 2 30 0 40 -3 9 -5 -1 -4 -23z"/>
<path d="M2452 715 c12 -24 23 -43 26 -41 4 5 -36 86 -43 86 -3 0 5 -20 17
-45z"/>
<path d="M2117 718 c6 -11 83 -10 83 1 0 5 -20 9 -44 8 -24 -1 -42 -5 -39 -9z"/>
<path d="M2060 570 c0 -22 -15 -27 -26 -9 -7 12 -24 -6 -24 -26 0 -5 5 -3 10
5 8 13 11 13 19 1 5 -7 13 -11 19 -7 13 8 22 56 11 56 -5 0 -9 -9 -9 -20z"/>
<path d="M2321 518 c-1 -58 -1 -58 39 -58 39 0 39 1 28 25 -13 30 -28 33 -21
5 3 -11 1 -20 -5 -20 -11 0 -29 41 -35 80 -2 14 -5 -1 -6 -32z"/>
<path d="M1454 493 c0 -29 4 -53 9 -53 9 0 8 59 -3 85 -5 14 -7 3 -6 -32z"/>
<path d="M2842 616 c6 -14 15 -26 20 -26 10 0 -7 36 -22 45 -6 4 -5 -5 2 -19z"/>
<path d="M2794 609 c-3 -6 -1 -16 5 -22 8 -8 11 -5 11 11 0 24 -5 28 -16 11z"/>
<path d="M2794 563 c-22 -7 -1 -45 32 -59 48 -20 72 -17 99 11 42 41 26 77
-17 38 -16 -15 -21 -15 -28 -3 -5 8 -12 11 -15 8 -10 -9 4 -28 20 -28 7 0 21
7 29 16 13 12 16 12 16 2 0 -24 -23 -38 -59 -38 -44 0 -58 9 -62 36 -2 11 -9
19 -15 17z"/>
<path d="M282 603 c-19 -7 -33 -39 -26 -58 8 -20 48 -37 69 -29 24 9 18 27 -7
21 -25 -7 -48 8 -48 31 0 11 8 13 35 9 38 -6 47 6 16 23 -11 5 -21 10 -23 9
-2 0 -9 -3 -16 -6z"/>
<path d="M360 555 c0 -48 12 -58 30 -25 6 11 15 18 21 15 5 -4 9 1 9 9 0 9 -6
13 -14 10 -8 -3 -17 -1 -21 5 -4 7 4 11 19 11 14 0 28 5 31 10 4 6 -10 10 -34
10 -41 0 -41 0 -41 -45z"/>
<path d="M445 500 c-26 -19 -54 -30 -80 -31 -40 -2 -40 -2 -2 -6 39 -4 111 27
121 54 7 16 9 17 -39 -17z"/>
<path d="M3036 603 c-17 -17 -5 -63 15 -63 17 0 20 5 17 25 -4 17 -1 25 8 25
8 0 14 -9 14 -19 0 -11 5 -23 12 -27 8 -5 9 0 5 15 -3 14 0 24 9 28 8 3 12 9
9 13 -6 9 -80 11 -89 3z"/>
<path d="M3142 589 c-16 -25 -15 -49 2 -49 8 0 16 13 18 30 6 37 -4 46 -20 19z"/>
<path d="M3427 1415 c3 -27 10 -55 14 -61 5 -6 8 -20 8 -30 -1 -11 -1 -48 1
-84 3 -65 3 -65 9 15 5 66 2 91 -16 145 -22 65 -22 65 -16 15z"/>
<path d="M3324 1416 c9 -21 16 -47 16 -58 0 -10 7 -29 15 -41 8 -12 11 -28 6
-35 -7 -11 -44 31 -95 110 -10 16 -21 27 -24 24 -2 -3 1 -14 9 -25 65 -89 82
-118 85 -140 8 -70 16 -97 24 -76 6 14 9 5 9 -32 1 -28 4 -58 7 -67 3 -9 2
-16 -4 -16 -5 0 -13 19 -17 43 -8 42 -8 42 -18 15 -6 -16 -14 -28 -19 -28 -4
0 -8 -4 -8 -10 0 -5 7 -7 15 -4 8 4 15 1 15 -5 0 -6 -6 -11 -12 -11 -8 0 -6
-5 4 -10 10 -6 14 -18 11 -30 -4 -16 0 -20 20 -20 16 0 26 -7 30 -20 3 -11 1
-20 -4 -20 -5 0 -9 5 -9 12 0 6 -3 9 -6 6 -3 -4 -1 -16 6 -27 12 -23 2 -27
-22 -8 -21 17 -58 81 -58 100 0 18 -26 47 -42 47 -7 0 -2 -10 10 -23 23 -24
29 -47 12 -47 -5 0 -14 8 -20 18 -14 21 -13 19 37 -118 19 -52 61 -177 94
-276 32 -100 66 -187 74 -194 18 -15 20 1 3 18 -9 9 -9 15 0 24 19 19 16 54
-3 38 -12 -10 -16 -8 -25 15 -13 33 -3 47 15 22 11 -16 13 -16 19 -1 8 21 8
22 -6 21 -36 -1 -48 5 -48 23 0 13 7 20 20 20 11 0 20 5 20 10 0 6 -11 8 -25
4 -28 -7 -64 45 -37 54 7 2 10 8 7 12 -3 5 10 8 29 7 22 -1 32 -6 29 -15 -4
-8 0 -10 11 -6 11 4 19 -1 25 -17 9 -21 10 -19 10 18 1 32 -2 41 -13 37 -8 -3
-17 -1 -21 5 -3 6 -11 11 -16 11 -6 0 -7 -5 -4 -11 7 -11 -64 -2 -77 10 -4 3
-18 38 -31 76 -13 39 -27 78 -32 88 -5 13 -2 17 14 17 13 0 25 -9 31 -22 7
-18 9 -19 9 -5 1 27 37 5 58 -36 9 -18 18 -26 21 -19 2 8 11 3 24 -13 21 -26
17 -48 -4 -27 -8 8 -14 7 -24 -5 -10 -15 -14 -15 -28 -4 -9 8 -19 11 -22 9
-10 -11 49 -48 77 -48 27 0 59 -22 59 -40 0 -5 6 -7 14 -4 14 6 49 -34 41 -47
-5 -7 25 -22 32 -15 2 2 -10 20 -26 39 -37 41 -18 61 28 30 14 -9 31 -18 37
-19 18 -3 64 -35 64 -45 0 -12 -7 -11 -32 2 -13 7 -24 7 -30 1 -17 -17 70 -24
95 -7 12 8 26 15 32 15 5 0 4 -4 -3 -9 -7 -4 -14 -18 -15 -30 -1 -16 -10 -24
-29 -28 -35 -7 -35 -16 -2 -31 14 -7 23 -16 20 -21 -3 -5 1 -12 10 -15 8 -3
12 -10 9 -16 -3 -5 1 -10 9 -10 19 0 21 26 4 33 -10 4 -10 6 0 6 8 1 12 23 12
76 0 78 -4 87 -26 58 -13 -17 -15 -17 -28 0 -8 10 -30 21 -50 24 -40 6 -47 18
-17 28 27 8 15 35 -15 35 -23 0 -24 1 -10 23 14 21 14 22 -10 23 -31 2 -104
50 -104 68 0 17 24 27 45 20 17 -7 -5 47 -33 79 -8 9 -13 19 -10 22 9 10 37
-6 41 -23 4 -16 5 -16 6 0 0 9 -6 24 -15 32 -8 9 -11 16 -6 16 6 0 13 7 16 15
3 9 1 15 -7 14 -44 -5 -77 2 -78 19 0 10 -5 5 -11 -12 -8 -22 -8 -31 1 -34 16
-5 14 -29 -4 -36 -21 -8 0 -50 32 -65 14 -7 23 -14 20 -17 -8 -9 -77 18 -71
28 3 4 0 8 -5 8 -6 0 -11 -6 -11 -12 -1 -7 -12 1 -25 17 -14 17 -23 35 -20 42
2 7 0 15 -5 18 -6 4 -10 13 -10 21 0 26 31 -12 34 -41 4 -36 16 -43 16 -9 0
48 -11 74 -31 74 -13 0 -20 10 -24 34 -8 42 -3 72 13 69 17 -4 15 8 -5 36 -13
19 -14 28 -5 42 16 26 15 37 -8 66 -11 15 -18 34 -15 44 3 10 -5 33 -20 55
-36 53 -40 55 -21 10z m46 -204 c0 -7 -4 -10 -10 -7 -5 3 -10 16 -10 28 0 25
20 4 20 -21z m-60 -217 c10 -12 10 -15 -3 -15 -8 0 -17 7 -21 15 -3 8 -2 15 3
15 5 0 14 -7 21 -15z m222 -12 c30 -36 30 -53 -2 -42 -26 10 -45 41 -32 53 9
10 18 7 34 -11z m-94 -64 c33 -3 50 -12 81 -43 20 -20 41 -36 47 -36 21 0 33
-23 23 -42 -6 -12 -6 -18 0 -18 6 0 8 -7 4 -15 -3 -9 -8 -14 -10 -11 -3 3 -12
-1 -20 -9 -21 -21 -36 -18 -30 5 3 12 -4 29 -19 45 -13 14 -27 37 -30 50 -4
15 -13 25 -24 25 -10 0 -21 9 -25 19 -3 11 -12 22 -20 25 -8 3 -15 13 -15 21
0 15 1 15 16 1 8 -9 18 -16 22 -17z m82 -151 c0 -13 -23 -5 -28 10 -2 7 2 10
12 6 9 -3 16 -11 16 -16z"/>
<path d="M3226 1328 c30 -35 64 -86 64 -96 0 -5 7 -15 15 -22 13 -11 14 -9 3
17 -16 37 -80 122 -92 123 -5 0 -1 -10 10 -22z"/>
<path d="M3515 1251 c0 -50 2 -57 18 -53 21 5 21 -4 3 -40 -12 -23 -12 -26 0
-21 17 6 18 -9 3 -24 -9 -9 -6 -10 10 -6 16 4 31 -3 54 -23 28 -27 30 -27 14
-4 -10 14 -22 38 -29 53 -7 19 -13 25 -18 17 -5 -8 -10 -9 -14 -2 -3 6 3 13
13 17 20 6 20 6 0 26 -10 10 -19 28 -19 38 0 11 -4 23 -10 26 -5 3 -10 15 -10
25 0 10 -3 21 -7 23 -5 3 -8 -21 -8 -52z"/>
<path d="M3696 1275 c-11 -8 -14 -15 -8 -15 7 0 12 -7 12 -15 0 -8 -5 -15 -12
-15 -6 0 -8 -3 -5 -7 4 -3 16 2 26 11 21 19 67 14 55 -6 -4 -6 2 -6 15 1 21
12 29 45 12 55 -5 3 -12 -1 -15 -10 -3 -8 -2 -12 4 -9 6 3 7 -1 4 -9 -5 -12
-10 -13 -25 -5 -11 5 -17 14 -14 18 3 5 -2 12 -11 15 -19 7 -15 8 -38 -9z"/>
<path d="M3570 1270 c-12 -8 -12 -10 5 -10 11 0 27 5 35 10 12 8 12 10 -5 10
-11 0 -27 -5 -35 -10z"/>
<path d="M3640 1271 c0 -6 -8 -11 -17 -11 -15 0 -16 -2 -3 -10 19 -12 33 -13
26 -1 -4 5 -1 11 6 13 9 3 9 6 0 12 -7 4 -12 2 -12 -3z"/>
<path d="M3220 1233 c0 -6 4 -15 10 -18 5 -3 14 -20 19 -38 8 -28 9 -29 10 -7
0 14 -8 36 -19 50 -11 14 -20 20 -20 13z"/>
<path d="M3768 1199 c-10 -10 -18 -24 -18 -31 0 -6 6 -3 14 8 8 10 18 16 22
11 4 -4 2 -7 -5 -7 -7 0 -9 -4 -6 -10 12 -20 24 -10 23 20 -1 34 -6 36 -30 9z"/>
<path d="M3605 1181 c-6 -11 26 -31 47 -30 7 0 0 6 -17 14 -25 11 -27 13 -10
18 16 4 16 5 3 6 -9 0 -19 -3 -23 -8z"/>
<path d="M3440 1097 c-22 -9 -23 -11 -6 -14 10 -3 23 0 29 6 16 16 5 20 -23 8z"/>
<path d="M3453 1015 c0 -22 2 -30 4 -17 2 12 2 30 0 40 -3 9 -5 -1 -4 -23z"/>
<path d="M3621 1023 c13 -16 25 -30 27 -32 1 -2 5 -2 8 1 5 6 -42 58 -53 58
-4 0 4 -12 18 -27z"/>
<path d="M3770 1011 c14 -11 27 -15 29 -10 4 13 2 15 -29 23 -25 7 -25 7 0
-13z"/>
<path d="M3765 971 c-11 -5 -35 -6 -52 -4 -25 4 -33 1 -33 -11 0 -10 6 -13 15
-10 11 5 15 -1 15 -21 0 -15 4 -24 10 -20 6 3 10 14 10 25 0 13 7 17 25 16 14
0 25 -6 25 -13 0 -6 4 -15 10 -18 5 -3 9 9 8 30 -1 37 -2 38 -33 26z"/>
<path d="M3732 880 c-12 -19 -11 -20 8 -8 20 13 27 28 12 28 -4 0 -13 -9 -20
-20z"/>
<path d="M3640 868 c0 -19 46 -38 59 -25 8 8 11 6 11 -6 0 -10 11 -19 28 -23
47 -10 54 -14 50 -27 -3 -6 -13 -14 -24 -16 -10 -2 -28 -10 -39 -17 -18 -13
-18 -14 11 -14 37 0 48 -9 33 -26 -8 -9 -5 -11 10 -7 19 5 21 13 21 79 0 43
-4 74 -10 74 -5 0 -10 -4 -10 -9 0 -5 -15 -7 -32 -5 -18 3 -43 5 -55 5 -13 1
-20 6 -16 12 3 6 1 7 -5 3 -7 -4 -12 -2 -12 3 0 6 -4 11 -10 11 -5 0 -10 -6
-10 -12z"/>
<path d="M3400 833 c0 -13 29 -38 35 -31 3 3 -4 13 -15 23 -11 10 -20 13 -20
8z"/>
<path d="M3470 633 c1 -13 24 -37 50 -52 21 -11 19 -7 -9 23 -36 38 -41 41
-41 29z"/>
<path d="M3600 600 c-19 -17 -26 -27 -15 -21 19 9 63 51 54 51 -3 0 -20 -14
-39 -30z"/>
<path d="M3671 534 c-1 -12 -7 -21 -13 -20 -7 0 -14 -3 -16 -9 -2 -5 -13 -20
-24 -32 -12 -13 -19 -25 -17 -27 6 -7 189 -12 190 -6 6 21 3 60 -3 60 -4 0 -8
-5 -8 -11 0 -6 -6 -9 -12 -6 -7 2 -12 10 -10 17 2 8 -3 10 -14 6 -13 -5 -15
-2 -11 15 5 18 2 21 -23 17 -16 -3 -32 0 -34 6 -2 6 -5 1 -5 -10z m9 -54 c12
-8 9 -10 -13 -10 -16 0 -26 4 -22 10 8 12 16 12 35 0z m76 -15 c27 -14 28 -15
6 -15 -13 0 -30 7 -38 15 -20 19 -4 19 32 0z"/>
<path d="M3490 456 c0 -11 9 -16 31 -16 18 0 28 4 24 10 -4 6 -11 8 -16 4 -5
-3 -16 0 -24 6 -12 10 -15 9 -15 -4z"/>
<path d="M3390 412 c0 -5 21 -9 48 -9 41 -1 43 0 17 7 -42 11 -65 11 -65 2z"/>
<path d="M76 391 c-7 -11 3 -41 14 -41 10 0 50 -36 50 -45 0 -4 -7 -5 -14 -2
-24 9 -27 -23 -11 -114 24 -141 51 -210 70 -179 3 6 1 10 -4 10 -6 0 -11 8
-11 18 0 10 -5 23 -11 29 -6 6 -12 35 -12 64 -1 30 -5 56 -9 60 -4 3 -10 27
-13 55 -5 49 -5 49 8 9 23 -67 46 -103 69 -110 13 -4 37 -18 55 -31 44 -33 51
-30 11 6 -18 17 -37 30 -43 30 -31 0 -100 130 -77 144 4 2 38 -25 76 -61 52
-48 71 -61 78 -51 7 10 8 9 6 -3 -2 -9 15 -37 38 -62 22 -24 49 -56 60 -69 43
-54 74 -43 74 26 0 44 -6 45 -14 2 -9 -48 -16 -42 -15 12 1 43 4 50 20 49 16
-1 19 -11 21 -72 0 -38 3 -55 5 -38 4 32 5 32 29 17 24 -16 24 -16 25 17 1 32
2 32 9 9 8 -24 8 -23 9 8 1 20 -3 31 -9 27 -5 -3 -10 3 -10 15 0 19 2 20 15 6
9 -9 15 -35 16 -68 0 -38 3 -47 9 -33 4 11 6 31 4 45 -2 14 -1 19 2 12 5 -10
9 -10 20 -1 11 9 14 9 14 -1 0 -8 8 -10 25 -6 23 6 25 4 26 -31 1 -21 3 -29 6
-18 3 11 9 24 14 30 5 5 8 20 8 35 -1 24 -2 23 -9 -5 -8 -30 -8 -30 -9 0 -1
34 17 68 26 48 2 -7 16 -13 30 -13 23 0 24 -2 12 -17 -8 -9 -9 -14 -2 -10 7 5
13 -1 16 -15 3 -14 5 -9 6 15 1 35 3 37 29 33 15 -2 33 -5 40 -5 6 -1 12 -10
12 -22 0 -11 4 -17 10 -14 6 4 8 15 5 24 -3 12 0 18 10 18 9 0 15 -9 15 -24 0
-12 5 -23 11 -23 5 0 9 8 8 18 -1 9 1 25 5 34 4 9 5 21 2 26 -6 10 -106 9
-123 -1 -8 -5 -13 -4 -13 2 0 6 -1 14 -2 19 -2 4 34 8 80 9 83 1 83 1 78 -30
-3 -18 -2 -59 3 -92 8 -60 8 -60 12 5 1 36 3 76 3 90 1 14 6 25 11 25 11 0 12
-4 15 -95 3 -65 3 -65 12 -20 8 45 10 67 5 105 -1 12 4 20 13 20 12 0 14 -12
12 -62 -2 -35 1 -64 8 -68 6 -4 10 7 10 30 0 47 22 42 31 -6 6 -34 6 -34 9 1
2 19 3 41 3 47 -1 21 15 15 23 -9 3 -12 6 -42 6 -67 0 -46 0 -46 10 -11 12 47
12 51 4 85 -7 29 -7 29 12 12 11 -10 29 -19 41 -20 19 -1 21 -7 21 -66 0 -81
8 -76 11 7 1 34 6 62 11 62 5 0 6 5 2 12 -4 7 -3 8 4 4 7 -4 12 -22 12 -41 0
-19 4 -36 9 -39 5 -3 7 10 4 29 -4 27 -1 35 11 35 11 0 16 -10 17 -32 0 -27 2
-29 8 -13 5 11 6 26 4 33 -3 6 1 12 9 12 10 0 18 -19 25 -58 11 -57 11 -57 8
-3 -2 30 -1 61 2 68 7 18 23 16 23 -3 0 -8 5 -12 11 -9 6 4 8 13 5 21 -4 12
-2 12 14 4 22 -12 25 -29 10 -80 -12 -44 -5 -69 20 -67 16 1 20 9 20 34 0 53
54 172 80 175 8 0 22 2 30 3 8 1 21 -3 28 -8 8 -6 12 -5 12 4 0 11 2 11 10 -1
15 -23 12 -27 -21 -34 -31 -6 -94 -45 -86 -52 3 -3 21 5 41 17 48 28 58 18 11
-11 -20 -12 -34 -24 -31 -27 5 -5 52 22 82 50 14 12 24 15 29 8 3 -6 11 -11
17 -11 6 0 5 7 -4 18 -9 9 -19 27 -22 40 -9 27 -28 38 -87 47 -41 6 -46 5 -56
-17 -11 -23 -11 -23 -321 -26 -218 -3 -312 0 -317 8 -6 10 150 90 178 90 7 0
22 7 33 15 17 12 13 12 -29 0 -85 -25 -167 -67 -193 -99 -17 -21 -27 -27 -31
-18 -4 10 -8 10 -19 1 -11 -9 -18 -9 -26 -1 -21 21 154 132 210 132 9 0 24 5
32 11 12 8 8 9 -15 7 -16 -1 -36 -6 -42 -11 -7 -5 -20 -7 -28 -3 -10 4 -14 2
-9 -5 4 -8 -1 -9 -15 -4 -12 4 -21 2 -21 -4 0 -6 -17 -19 -37 -30 -21 -10 -47
-28 -57 -40 -23 -25 -44 -28 -26 -3 8 9 -3 0 -23 -21 -40 -41 -51 -46 -42 -18
5 15 1 18 -22 14 -16 -3 -24 -1 -18 4 25 21 36 54 23 70 -10 12 -9 17 5 28 9
6 14 14 12 17 -10 9 107 19 217 17 59 0 112 2 119 7 8 5 10 3 4 -6 -6 -9 0
-10 26 -4 19 4 42 8 52 8 9 0 17 3 17 6 0 7 -789 4 -923 -4 -69 -4 -106 -3
-103 3 4 5 2 12 -3 15 -5 4 -12 2 -15 -3z m108 -46 c-4 -8 -14 -15 -23 -15
-14 1 -13 3 3 15 25 19 27 19 20 0z m236 -1 c28 -11 39 -21 36 -31 -7 -18 34
-34 52 -20 8 7 16 7 20 1 12 -16 48 -15 62 1 12 14 10 16 -12 10 -15 -4 -29
-2 -32 4 -5 7 10 11 43 11 39 0 53 -4 60 -19 12 -22 5 -32 -17 -24 -10 4 -13
2 -8 -5 5 -9 -9 -12 -51 -13 -69 -2 -64 -2 -83 3 -8 1 -17 -2 -20 -7 -3 -6 17
-13 45 -16 34 -4 40 -6 18 -7 -17 -1 -33 -7 -35 -12 -2 -6 -52 -13 -116 -16
-112 -5 -112 -5 -122 21 -6 15 -14 23 -20 20 -6 -4 -10 5 -10 19 0 19 -5 26
-20 26 -14 0 -20 7 -20 24 0 21 4 24 47 24 25 1 51 6 57 12 15 15 80 12 126
-6z m237 4 c-5 -18 -189 -18 -195 0 -3 9 21 12 98 12 77 0 101 -3 97 -12z
m-146 -39 c-16 -6 -28 -6 -35 1 -7 7 1 10 25 9 32 0 33 -1 10 -10z m569 -123
c0 -46 -27 -61 -28 -16 0 20 4 30 14 30 8 0 14 -6 14 -14z m40 -12 c0 -8 -4
-12 -10 -9 -5 3 -10 13 -10 21 0 8 5 12 10 9 6 -3 10 -13 10 -21z m43 12 c6
-16 -2 -28 -14 -20 -12 7 -11 34 0 34 5 0 11 -6 14 -14z m92 4 c3 -5 0 -12 -6
-16 -6 -3 -15 -1 -19 5 -5 9 -10 8 -20 -3 -14 -17 -30 -12 -30 9 0 14 66 19
75 5z m43 -7 c-5 -25 -28 -28 -28 -4 0 12 6 21 16 21 9 0 14 -7 12 -17z m80 0
c-3 -12 -12 -17 -28 -15 -13 1 -27 -3 -32 -10 -5 -9 -8 -3 -8 15 0 24 3 27 36
27 28 0 35 -3 32 -17z m79 5 c-2 -7 -11 -13 -20 -13 -8 0 -19 -3 -23 -7 -10
-10 -24 0 -24 18 0 9 11 14 36 14 24 0 34 -4 31 -12z m-1057 -15 c0 -11 -7
-14 -26 -9 -19 5 -25 3 -22 -6 3 -7 22 -15 44 -18 38 -5 39 -6 41 -50 2 -32 0
-39 -6 -25 -5 11 -7 23 -5 27 8 13 -18 20 -27 7 -7 -11 -10 -9 -15 9 -4 12
-12 22 -20 22 -14 0 -46 39 -39 50 9 14 75 8 75 -7z m140 2 c0 -7 -25 -12 -65
-12 -58 -1 -75 4 -61 18 10 10 126 4 126 -6z m37 -12 c-3 -3 -11 -2 -17 2 -9
6 -9 10 1 16 14 8 27 -7 16 -18z m53 12 c0 -8 -4 -15 -9 -15 -13 0 -22 16 -14
24 11 11 23 6 23 -9z m98 -4 c3 -10 -2 -12 -19 -8 -12 3 -29 1 -37 -5 -14 -12
-36 7 -26 23 8 13 77 4 82 -10z m39 -11 c-1 -11 -4 -20 -8 -20 -4 0 -9 9 -12
20 -3 13 0 20 8 20 8 0 13 -9 12 -20z"/>
<path d="M123 393 c9 -2 25 -2 35 0 9 3 1 5 -18 5 -19 0 -27 -2 -17 -5z"/>
<path d="M1151 369 c-18 -11 -31 -23 -27 -26 3 -3 14 1 24 10 10 10 27 17 38
18 10 0 28 4 39 9 17 7 16 9 -10 9 -16 1 -45 -8 -64 -20z"/>
<path d="M1270 384 c35 -7 148 -9 144 -2 -3 4 -40 7 -82 7 -42 -1 -70 -3 -62
-5z"/>
<path d="M1736 231 c5 -4 43 -21 84 -36 41 -16 84 -36 95 -44 20 -15 20 -15 0
6 -11 11 -54 35 -95 52 -76 31 -102 38 -84 22z"/>
<path d="M3108 233 c12 -2 32 -2 45 0 12 2 2 4 -23 4 -25 0 -35 -2 -22 -4z"/>
<path d="M2522 221 c-9 -6 -3 -10 22 -14 19 -3 47 -15 63 -26 16 -12 50 -23
78 -26 50 -5 50 -5 -6 8 -31 8 -72 26 -91 40 -38 29 -46 31 -66 18z"/>
<path d="M3590 222 c8 -5 39 -12 68 -16 29 -4 59 -9 67 -12 8 -4 15 -2 15 4 0
5 -28 13 -62 17 -35 3 -72 9 -83 11 -15 4 -17 3 -5 -4z"/>
<path d="M2221 216 c12 -10 60 -16 54 -6 -3 5 -18 10 -32 10 -15 0 -24 -2 -22
-4z"/>
<path d="M2291 216 c2 -2 27 -6 54 -9 34 -4 42 -3 25 3 -25 8 -87 13 -79 6z"/>
<path d="M3211 211 c8 -6 40 -12 70 -15 62 -7 31 7 -41 17 -30 5 -40 4 -29 -2z"/>
<path d="M2730 202 c0 -13 97 -42 137 -41 15 0 -3 7 -42 16 -38 8 -76 19 -82
25 -9 7 -13 7 -13 0z"/>
<path d="M2950 202 c0 -10 199 -37 207 -28 4 3 -5 6 -18 6 -13 0 -56 7 -94 15
-81 17 -95 18 -95 7z"/>
<path d="M3365 192 c-11 -3 28 -17 90 -33 122 -32 135 -34 135 -19 0 6 -3 9
-7 8 -10 -3 -163 32 -183 41 -8 4 -24 5 -35 3z"/>
<path d="M2741 156 c2 -2 22 -6 44 -9 28 -5 34 -4 20 3 -19 8 -73 14 -64 6z"/>
<path d="M1610 126 c0 -8 -6 -16 -12 -19 -8 -3 2 -18 27 -38 22 -19 48 -42 58
-52 10 -10 24 -16 30 -13 9 3 9 5 0 5 -7 1 -13 9 -13 19 0 9 4 13 8 7 4 -5 23
-12 42 -13 19 -2 37 -8 38 -13 2 -5 9 -9 15 -9 6 0 0 12 -14 26 -14 15 -31 23
-41 21 -10 -3 -18 0 -18 8 0 10 -100 85 -115 85 -3 0 -5 -6 -5 -14z m34 -38
c16 -33 16 -33 -4 -9 -11 13 -20 27 -20 32 0 17 9 9 24 -23z"/>
<path d="M1700 130 c0 -5 5 -10 11 -10 5 0 7 -4 4 -10 -3 -5 3 -10 14 -10 30
0 52 -11 44 -23 -4 -6 0 -8 8 -5 9 3 54 -5 102 -17 48 -13 87 -20 87 -15 0 4
-30 15 -66 24 -37 9 -81 23 -98 30 -17 8 -48 21 -68 30 -22 9 -38 12 -38 6z"/>
<path d="M720 58 c0 -62 6 -60 14 5 3 28 2 47 -4 47 -6 0 -10 -23 -10 -52z"/>
<path d="M808 85 c6 -32 12 -32 12 0 0 14 -4 25 -9 25 -4 0 -6 -11 -3 -25z"/>
<path d="M863 35 c0 -22 2 -30 4 -17 2 12 2 30 0 40 -3 9 -5 -1 -4 -23z"/>
<path d="M1508 36 c20 -19 40 -32 44 -30 9 6 -55 64 -71 64 -6 0 6 -15 27 -34z"/>
<path d="M286 38 c-3 -13 -2 -26 3 -31 5 -5 11 5 13 22 5 36 -7 42 -16 9z"/>
<path d="M1570 20 c0 -8 50 -24 56 -18 2 2 -10 9 -26 15 -17 6 -30 8 -30 3z"/>
<path d="M1980 20 c0 -5 8 -8 18 -8 9 1 28 -2 42 -6 19 -5 21 -4 9 3 -22 14
-69 21 -69 11z"/>
</g>
</svg>
