<?xml version="1.0" standalone="no"?>
<!DOCTYPE svg PUBLIC "-//W3C//DTD SVG 20010904//EN"
 "http://www.w3.org/TR/2001/REC-SVG-20010904/DTD/svg10.dtd">
<svg version="1.0" xmlns="http://www.w3.org/2000/svg"
 width="380.000000pt" height="256.000000pt" viewBox="0 0 380.000000 256.000000"
 preserveAspectRatio="xMidYMid meet">
<metadata>
Created by potrace 1.16, written by Peter Selinger 2001-2019
</metadata>
<g transform="translate(0.000000,256.000000) scale(0.100000,-0.100000)"
fill="#000000" stroke="none">
<path d="M2134 2500 c12 -71 0 -94 -35 -71 -26 15 -40 4 -33 -26 7 -26 67 -41
90 -22 20 16 19 132 -1 149 -8 7 -12 16 -9 21 3 5 -1 9 -8 9 -12 0 -12 -11 -4
-60z"/>
<path d="M1880 2005 c0 -9 12 -20 28 -26 15 -6 44 -19 64 -30 58 -30 90 -22
51 13 -46 40 -143 69 -143 43z"/>
<path d="M1811 1720 c-29 -45 -36 -50 -69 -50 -50 0 -61 -9 -64 -53 -2 -41 -8
-43 -82 -30 -26 4 -40 12 -44 25 -5 22 -32 24 -32 3 0 -8 -5 -15 -10 -15 -7 0
-8 13 -4 35 4 21 2 35 -4 35 -5 0 -12 9 -15 20 -4 17 -14 20 -59 21 -82 1
-167 8 -238 18 -36 6 -224 13 -418 16 -194 4 -361 8 -370 9 -32 5 -97 -15
-129 -40 -17 -13 -35 -24 -40 -24 -14 -1 -71 -83 -98 -145 -15 -33 -47 -102
-71 -153 -43 -92 -55 -137 -33 -130 7 2 32 49 56 103 95 215 124 265 175 297
101 65 72 62 398 49 162 -6 329 -14 370 -16 41 -3 160 -8 263 -11 l188 -7 -6
-47 c-6 -43 -4 -48 21 -65 15 -10 46 -19 68 -20 257 -14 435 -28 499 -41 56
-10 92 29 67 75 -18 35 -105 67 -185 70 -38 1 -74 7 -79 12 -6 5 0 9 17 9 29
0 51 30 29 38 -7 2 -19 17 -27 33 -9 16 -21 29 -29 29 -7 0 -27 -22 -45 -50z
m-26 -100 c3 -5 40 -10 81 -10 41 0 74 -4 74 -9 0 -5 3 -17 6 -26 6 -15 -3
-16 -92 -10 -137 9 -144 11 -144 40 0 22 4 25 34 25 19 0 38 -4 41 -10z m265
-57 c0 -8 -13 -11 -37 -9 -47 4 -55 29 -16 50 26 13 29 13 40 -7 7 -12 12 -27
13 -34z"/>
<path d="M2135 1640 c-14 -22 14 -32 104 -38 79 -4 91 -3 91 11 0 16 -27 27
-60 25 -8 -1 -40 2 -72 6 -38 5 -58 4 -63 -4z"/>
<path d="M435 1566 c-16 -8 -49 -33 -72 -57 -50 -52 -69 -101 -119 -309 -19
-80 -41 -165 -49 -190 -49 -157 -95 -383 -95 -470 0 -67 3 -78 26 -103 14 -16
23 -31 20 -34 -3 -4 -26 -6 -51 -5 -25 0 -45 -4 -45 -9 0 -6 25 -33 56 -62
146 -135 262 -250 274 -272 24 -45 171 -73 213 -40 11 7 25 11 32 9 15 -6 25
37 25 107 0 27 4 49 9 49 5 0 8 -21 6 -48 -3 -66 6 -123 19 -119 6 2 11 26 12
53 2 96 4 114 12 114 4 0 6 -41 4 -91 -3 -72 -1 -90 10 -87 8 3 15 28 19 64 5
57 6 58 7 12 4 -97 32 -109 32 -13 0 37 4 65 10 65 6 0 10 -24 10 -52 0 -59
13 -92 24 -63 3 9 6 41 6 71 0 34 4 53 10 49 6 -3 10 -33 10 -67 0 -51 2 -59
14 -49 10 9 13 33 12 87 -1 41 1 77 6 80 4 3 8 -33 8 -80 0 -70 3 -86 15 -86
12 0 15 16 15 87 0 47 3 83 6 80 4 -4 6 -43 5 -87 -2 -67 0 -80 13 -80 13 0
16 12 16 60 0 33 4 60 10 60 6 0 10 -27 10 -61 0 -44 3 -60 13 -56 8 2 12 29
13 81 1 42 4 80 8 83 7 8 10 -35 7 -99 -2 -26 0 -57 4 -68 13 -42 25 -4 26 83
1 48 5 87 10 87 5 0 9 -44 9 -97 0 -121 20 -116 25 6 4 116 15 114 15 -2 0
-54 4 -97 9 -97 15 0 21 29 23 113 l2 82 5 -94 c4 -62 10 -96 19 -99 9 -3 12
20 12 93 0 61 4 94 10 90 6 -3 10 -46 10 -96 0 -90 14 -119 26 -54 3 20 4 60
2 90 -3 30 -1 55 3 55 5 0 10 -39 11 -87 4 -106 21 -116 29 -18 l5 70 2 -67
c1 -37 6 -69 11 -73 12 -7 25 56 18 82 -3 10 -2 36 3 58 6 34 8 26 9 -47 1
-82 12 -117 25 -82 3 9 7 52 8 97 1 45 3 64 5 42 2 -22 6 -51 10 -65 6 -23 7
-22 15 15 5 22 10 50 10 62 0 13 8 23 20 26 11 3 18 12 16 19 -4 10 -54 12
-251 10 -245 -3 -247 -3 -247 18 0 28 39 41 125 43 65 2 70 4 73 25 7 48 25
50 355 51 170 0 317 3 327 6 14 4 19 0 22 -17 3 -25 14 -27 117 -27 55 0 81
11 81 34 0 28 560 29 625 0 17 -7 46 -15 65 -17 19 -1 41 -8 47 -15 9 -7 24
-8 50 -2 21 5 51 9 67 9 24 0 27 -3 18 -12 -15 -15 -101 -18 -597 -25 -222 -3
-376 -1 -420 6 -100 16 -365 17 -393 2 -13 -7 -22 -21 -22 -36 0 -13 -4 -26
-9 -29 -4 -3 -11 -23 -15 -45 -3 -22 -17 -57 -31 -77 -25 -36 -31 -67 -19 -98
15 -39 48 -5 60 60 4 22 16 58 26 82 17 35 25 42 49 42 30 0 38 -13 17 -27
-18 -11 -40 -52 -34 -62 3 -4 18 -6 33 -4 23 3 32 -2 53 -33 13 -20 37 -41 52
-46 15 -6 28 -14 28 -19 0 -5 18 -9 39 -9 l40 0 -11 33 c-6 17 -18 40 -26 50
-19 22 -4 22 27 1 13 -9 44 -22 70 -29 38 -10 46 -15 44 -33 -3 -21 1 -22 99
-22 100 0 101 0 83 20 -10 11 -26 20 -36 20 -25 0 -32 15 -14 30 13 11 27 10
78 -5 95 -27 121 -37 134 -53 9 -11 29 -13 95 -8 105 7 88 7 197 0 76 -5 93
-4 89 7 -6 18 -255 66 -399 78 -59 4 -111 11 -118 15 -6 4 -36 11 -67 16 -34
6 -66 18 -80 31 -23 21 -47 19 -38 -4 2 -7 -11 -21 -31 -31 -34 -18 -36 -18
-77 -1 -24 9 -56 22 -73 29 -45 17 -85 47 -85 62 0 26 -39 55 -64 48 -13 -3
-27 -1 -31 6 -5 8 37 10 166 5 96 -3 338 -9 539 -13 238 -5 363 -10 360 -17
-3 -5 -26 -9 -51 -7 -32 3 -49 -1 -58 -12 -8 -9 -20 -16 -28 -16 -22 0 -11
-31 20 -53 24 -18 33 -20 70 -11 23 6 72 9 110 6 58 -3 67 -6 67 -23 0 -22 14
-26 120 -33 41 -4 92 -9 113 -12 29 -5 37 -3 37 9 0 17 -36 26 -127 34 -98 7
-83 22 39 38 26 3 50 10 53 16 7 10 84 12 109 3 26 -10 19 -32 -9 -26 -30 5
-75 -5 -75 -18 0 -5 15 -16 34 -25 29 -14 43 -15 90 -5 39 8 53 15 50 25 -3 7
3 16 15 20 25 8 28 30 5 39 -9 3 -30 6 -49 6 -18 0 -37 6 -43 13 -14 17 72 11
115 -9 17 -8 43 -14 58 -14 38 0 211 -39 275 -62 30 -11 70 -23 88 -25 29 -5
33 -3 30 13 -2 11 -13 20 -27 22 -14 2 -34 10 -45 17 -22 14 -56 22 -226 55
-58 12 -125 26 -150 32 -71 18 -137 19 -151 2 -6 -8 -28 -14 -49 -14 -23 0
-48 -8 -65 -22 -23 -18 -39 -21 -96 -19 -61 2 -72 6 -98 32 -28 28 -45 34 -85
29 -33 -3 -7 19 30 26 22 4 45 2 60 -7 20 -10 32 -10 58 -1 18 7 48 12 68 12
20 0 50 10 69 23 44 29 128 27 136 -4 4 -12 15 -19 32 -20 178 -5 404 -33 460
-55 18 -8 48 -14 67 -14 18 0 45 -5 60 -11 16 -5 45 -12 66 -14 l38 -4 0 48 0
47 -55 19 c-60 20 -57 35 7 35 30 0 37 -4 41 -23 2 -12 5 35 6 106 0 70 -3
127 -8 127 -15 0 -18 58 -4 91 7 18 12 64 12 108 -1 42 -4 67 -6 56 -3 -17
-10 -20 -51 -17 -70 4 -92 11 -92 27 0 14 -29 35 -47 35 -5 0 -19 -21 -32 -46
l-22 -47 -17 34 c-12 24 -24 34 -39 33 -25 -1 -31 12 -10 19 9 3 9 11 0 35
-14 41 -9 40 31 -3 36 -38 57 -43 75 -21 10 12 8 17 -8 26 -25 13 -27 29 -4
45 19 14 23 99 5 117 -7 7 -12 20 -12 30 0 15 -8 18 -45 18 l-46 0 7 -37 c4
-21 15 -44 26 -51 22 -16 25 -44 3 -36 -8 4 -15 1 -15 -5 0 -14 -25 -14 -49 1
-16 10 -18 20 -14 67 3 31 10 62 16 69 7 9 6 21 -4 38 -8 15 -9 28 -4 32 12 8
13 19 17 129 1 45 7 81 12 80 5 -1 10 32 10 73 l0 75 -47 6 c-55 6 -65 -2 -45
-34 23 -35 42 -185 33 -253 -4 -32 -8 -102 -9 -155 -1 -84 -3 -95 -18 -92 -10
3 -18 -3 -22 -14 -9 -28 -72 -19 -80 10 -13 48 -6 72 27 95 l32 22 6 -24 c11
-41 21 -51 31 -32 5 9 6 21 2 27 -11 18 -13 169 -3 197 7 18 6 27 -5 36 -20
15 -31 62 -17 70 23 14 6 131 -21 148 -48 30 -100 -11 -113 -90 -6 -39 -4 -46
27 -82 18 -22 43 -52 56 -67 15 -19 25 -24 28 -15 3 6 10 12 16 12 6 0 5 -6
-2 -15 -7 -8 -14 -34 -15 -58 -3 -55 -20 -90 -55 -110 -25 -15 -27 -21 -26
-69 2 -47 52 -211 92 -305 8 -17 14 -36 14 -42 0 -19 63 -205 78 -228 11 -18
20 -21 50 -16 20 3 41 10 46 14 17 15 -11 33 -49 32 -34 -1 -46 9 -25 22 5 3
10 20 10 37 0 17 7 39 16 49 15 16 14 20 -3 43 -11 16 -32 28 -55 32 -39 7
-51 27 -22 38 19 7 64 -3 64 -15 0 -18 22 -9 43 17 19 25 21 26 34 8 7 -10 13
-26 13 -36 0 -10 9 -23 20 -30 24 -15 26 -28 5 -28 -8 0 -15 -7 -15 -15 0 -18
12 -19 27 -4 8 8 13 8 17 0 12 -19 26 -12 26 12 0 12 -18 42 -40 66 -22 24
-37 47 -35 51 7 11 74 -11 105 -33 20 -14 22 -19 11 -26 -7 -5 -10 -14 -7 -20
9 -14 56 -14 56 0 0 5 4 8 10 4 15 -9 0 -35 -21 -35 -25 0 -24 -26 1 -40 11
-6 20 -17 20 -26 0 -8 7 -17 15 -20 17 -7 20 -40 5 -49 -5 -3 -16 8 -25 25
-14 27 -20 31 -58 29 -62 -2 -87 -10 -87 -25 0 -8 5 -14 10 -14 6 0 10 -4 10
-9 0 -6 -12 -9 -27 -8 -19 1 -28 -3 -31 -15 -3 -16 7 -18 107 -18 108 0 141
-10 110 -32 -11 -7 -11 -11 -1 -15 6 -2 12 -11 12 -19 0 -11 -32 -14 -182 -14
-237 1 -242 2 -254 48 l-9 37 -62 -1 -62 -1 20 25 c27 35 24 84 -12 220 -83
316 -181 614 -215 659 -37 49 -77 65 -189 75 -55 5 -138 13 -185 18 -102 11
-313 27 -465 34 -60 3 -153 10 -205 16 -52 5 -178 14 -280 20 -102 6 -219 15
-260 20 -41 5 -149 11 -240 14 -91 4 -248 11 -350 16 -374 19 -374 19 -405 6z
m216 -35 c129 -8 163 -16 138 -32 -8 -5 -33 -9 -57 -9 -24 0 -53 -5 -64 -11
-14 -8 -23 -8 -31 0 -16 16 -57 14 -57 -4 0 -8 20 -26 43 -40 47 -27 41 -27
195 -1 12 2 31 11 41 20 9 9 23 16 29 16 7 0 12 7 12 15 0 8 12 18 26 21 27 7
422 -4 434 -11 4 -2 10 -179 13 -392 4 -213 10 -443 13 -511 l7 -122 -436 0
c-382 0 -437 -2 -437 -15 0 -13 37 -15 273 -16 508 -2 609 -1 620 10 7 7 7 94
-1 278 -14 319 -16 763 -3 763 13 0 22 -93 27 -260 8 -331 22 -679 28 -689 4
-6 14 -11 22 -11 11 0 14 11 12 41 -2 24 2 44 8 46 7 2 11 -10 10 -34 l-1 -38
143 -3 c124 -2 143 0 149 14 3 9 0 20 -8 24 -7 5 -10 12 -6 16 3 4 12 2 19 -3
7 -6 29 -14 48 -18 19 -4 42 -14 52 -22 9 -8 29 -13 45 -11 27 3 28 4 28 63
-1 33 -4 67 -8 76 -7 13 6 15 108 11 110 -4 115 -3 115 16 0 18 -9 21 -74 27
l-74 7 2 74 c1 87 11 97 96 92 l55 -3 3 -65 c7 -141 27 -283 41 -288 15 -5 15
-8 -8 258 -19 212 -23 245 -32 294 -5 27 -9 84 -9 127 0 122 -3 126 -102 133
-46 3 -141 10 -213 16 -71 6 -197 14 -280 18 l-149 7 -9 38 c-5 21 -7 40 -5
42 2 3 29 1 59 -4 30 -5 133 -12 229 -15 96 -4 209 -11 250 -16 41 -6 111 -11
155 -13 l80 -2 7 -60 c18 -144 30 -257 39 -350 4 -55 13 -143 19 -195 6 -52
13 -161 16 -241 l6 -146 -24 -8 c-12 -4 -30 -9 -38 -12 -8 -2 -82 -4 -165 -3
-221 1 -236 1 -405 -1 -85 -1 -160 -6 -167 -11 -6 -5 -84 -9 -173 -9 -146 1
-165 -1 -195 -19 -18 -11 -35 -26 -38 -34 -3 -7 -29 -16 -61 -20 -78 -9 -146
-43 -153 -77 -4 -22 -12 -28 -41 -31 -20 -3 -46 -3 -58 0 -36 7 -9 37 53 63
54 22 78 49 43 49 -52 0 -125 -48 -143 -93 -3 -9 -17 -17 -29 -18 -60 -3 -89
-1 -95 5 -4 3 0 6 7 6 29 0 50 33 50 77 l0 43 63 2 c34 1 114 0 177 -1 117 -3
170 7 170 32 0 11 -40 14 -212 14 -494 2 -553 3 -538 13 8 5 25 10 37 10 12 0
47 12 77 26 44 20 57 33 70 63 23 59 0 133 -47 150 -17 6 -16 10 12 40 28 30
31 39 31 102 0 58 -3 71 -20 81 -37 23 -16 80 47 131 26 21 31 47 9 47 -8 0
-52 -38 -99 -85 -47 -47 -91 -85 -97 -85 -21 0 11 153 47 228 13 26 14 35 4
45 -15 15 -39 -13 -48 -55 -3 -16 -10 -28 -15 -28 -6 0 -8 -9 -5 -19 5 -19
-22 -161 -47 -241 -10 -33 -20 -47 -40 -54 -54 -20 -55 19 -4 229 5 22 13 72
18 111 8 68 32 166 52 209 5 11 14 42 21 69 11 42 17 50 47 60 29 10 35 16 33
38 -1 15 5 29 13 32 11 4 13 0 8 -19 -5 -20 -2 -25 19 -30 34 -9 80 -2 84 12
3 7 -8 15 -24 19 -63 14 -65 15 -52 30 13 16 17 16 190 5z m2654 -111 c7 -8
15 -28 19 -45 4 -16 9 -38 12 -47 3 -10 1 -18 -5 -18 -6 0 -11 6 -11 13 -1 16
-35 57 -49 57 -14 0 -14 17 -1 25 6 4 8 11 5 16 -4 5 -3 19 1 32 7 21 8 21 12
2 2 -11 10 -27 17 -35z m-685 -19 c52 -6 140 -15 195 -20 113 -10 158 -28 186
-75 28 -45 165 -477 197 -623 l10 -42 -47 24 c-25 14 -62 25 -82 25 -42 0 -99
-18 -99 -31 0 -16 -28 -10 -42 9 -26 38 -85 52 -145 36 -38 -10 -63 -63 -63
-132 0 -51 4 -65 27 -92 23 -28 24 -32 7 -30 -66 7 -174 -1 -188 -15 -22 -22
-258 -22 -250 0 5 12 28 15 118 15 93 0 116 3 140 19 31 20 66 81 66 113 0 25
-17 23 -31 -4 -6 -12 -26 -37 -44 -55 -31 -32 -34 -33 -113 -33 -76 0 -83 2
-98 25 -9 14 -20 22 -25 19 -5 -3 -9 35 -9 86 0 50 -4 99 -9 108 -4 9 -11 59
-13 110 l-6 93 22 -20 c12 -12 28 -21 34 -21 24 0 11 29 -28 63 -39 33 -40 36
-40 95 0 33 -4 72 -9 86 -6 13 -13 58 -16 98 -4 40 -10 99 -14 132 l-8 58 141
-5 c78 -4 184 -11 236 -16z m-758 -59 c64 -4 118 -9 121 -12 2 -3 7 -60 10
-126 l7 -122 -33 -5 c-36 -5 -71 9 -61 24 9 16 -45 68 -96 92 -40 20 -61 22
-192 22 l-148 -1 0 74 0 74 138 -6 c75 -3 190 -10 254 -14z m297 -27 c5 -6 11
-58 14 -117 5 -86 3 -108 -7 -108 -16 0 -29 -27 -20 -41 3 -5 -7 -9 -21 -9
-14 0 -39 -7 -55 -15 -19 -10 -31 -11 -35 -5 -4 6 -9 79 -12 162 l-6 151 66
-5 c37 -2 71 -8 76 -13z m-490 -139 c-2 -2 -33 -6 -69 -9 -40 -4 -57 -2 -45 3
19 8 123 14 114 6z m-139 -58 c0 -6 -7 -5 -15 2 -8 7 -15 17 -15 22 0 6 7 5
15 -2 8 -7 15 -17 15 -22z m323 4 c15 -15 27 -37 27 -48 0 -30 20 -44 61 -44
33 0 36 -2 31 -25 -6 -34 -24 -31 -68 10 -20 19 -43 35 -50 35 -7 0 -16 9 -19
20 -4 12 -15 20 -29 20 -31 0 -36 7 -22 35 15 32 36 31 69 -3z m-196 -47 c12
-9 21 -25 21 -42 0 -15 5 -29 11 -31 16 -5 14 -22 -4 -22 -8 0 -33 -18 -57
-41 -70 -66 -72 -68 -63 -39 4 14 24 43 45 65 49 51 58 81 30 90 -26 8 -50
-11 -50 -40 0 -22 -25 -53 -35 -43 -9 9 15 72 37 95 25 27 36 28 65 8z m167
-83 c7 -54 14 -66 30 -53 25 19 63 21 80 3 20 -23 11 -34 -20 -26 -19 5 -24 2
-24 -14 0 -30 -40 -32 -91 -5 -67 35 -89 30 -136 -30 -12 -16 -19 -35 -16 -43
3 -9 -1 -14 -12 -14 -16 0 -16 -2 -1 -25 16 -24 15 -25 -41 -79 -31 -31 -60
-53 -64 -51 -8 5 8 73 21 90 4 6 10 25 13 43 4 18 11 38 17 45 5 6 22 27 36
45 15 19 37 38 48 43 12 5 28 13 36 19 8 5 27 14 43 20 15 5 27 17 27 25 0 21
30 66 40 60 4 -2 10 -26 14 -53z m-334 26 c0 -19 -2 -20 -10 -8 -13 19 -13 30
0 30 6 0 10 -10 10 -22z m707 -34 c8 -22 -5 -31 -54 -37 -42 -5 -43 -4 -43 24
0 28 2 29 45 29 32 0 47 -5 52 -16z m-157 -19 c13 -14 22 -26 19 -27 -46 -28
-49 -29 -49 -4 0 13 -3 31 -6 40 -9 24 9 19 36 -9z m1342 -69 c24 -4 37 -3 40
5 2 7 10 9 16 5 17 -10 15 -26 -3 -26 -9 0 -15 -9 -15 -25 0 -18 -5 -25 -19
-25 -11 0 -21 -6 -24 -12 -7 -20 -28 4 -44 49 -16 48 -16 58 0 46 6 -6 28 -13
49 -17z m-2952 -11 c-7 -8 -16 -12 -21 -9 -13 8 -1 24 18 24 13 0 13 -3 3 -15z
m1347 -28 c17 -12 55 -33 84 -46 30 -13 62 -28 72 -33 13 -6 23 -5 33 3 11 9
14 8 14 -2 0 -28 -18 -40 -62 -43 -40 -3 -45 -1 -41 15 3 11 0 19 -6 19 -6 0
-11 -7 -11 -16 0 -25 -24 -11 -39 24 -9 19 -25 35 -38 38 -12 3 -25 15 -28 25
-4 10 -11 19 -16 19 -5 0 -9 5 -9 10 0 16 13 12 47 -13z m-1321 -39 c-3 -17
-1 -37 5 -44 23 -28 1 -51 -53 -56 -46 -5 -54 -3 -74 21 -25 28 -32 79 -13 98
6 6 40 11 76 11 l65 1 -6 -31z m1284 1 c0 -5 -13 -9 -30 -9 -28 0 -38 9 -25
22 8 8 55 -3 55 -13z m-231 -91 l-12 -22 -9 23 c-6 18 -4 27 9 37 15 10 19 10
21 -1 2 -8 -2 -24 -9 -37z m1960 32 c29 -1 33 -2 18 -11 -25 -14 -109 -7 -115
10 -4 11 3 13 28 8 18 -4 49 -7 69 -7z m-1759 -39 c0 -18 -32 -41 -56 -41 -32
0 -30 6 9 30 35 22 47 25 47 11z m2062 -8 c26 -23 23 -42 -4 -35 -13 3 -25 8
-28 12 -3 4 -18 14 -35 23 l-30 16 39 1 c23 0 47 -7 58 -17z m-3517 -13 c20
-5 23 -8 10 -9 -11 -1 -35 -10 -54 -22 -34 -20 -55 -19 -33 3 7 7 12 21 12 31
0 14 4 17 18 12 9 -4 31 -11 47 -15z m2644 -46 c38 -25 51 -52 51 -111 0 -68
-102 -98 -160 -46 -27 23 -30 33 -30 82 0 47 4 59 23 71 54 36 67 37 116 4z
m-1173 -1 c-3 -10 1 -30 9 -45 l14 -28 -105 0 c-68 0 -103 4 -99 10 3 6 22 10
41 10 22 0 37 6 40 15 4 8 14 15 23 15 9 0 30 9 46 19 38 25 37 24 31 4z
m-1299 -18 c38 -19 73 -60 73 -85 0 -23 -50 -65 -92 -79 -45 -14 -138 -21
-138 -10 0 5 -18 18 -40 29 -56 28 -80 54 -73 79 6 24 71 71 115 82 45 11 116
4 155 -16z m1531 -19 c3 -34 -9 -48 -23 -26 -3 6 -27 15 -53 22 -42 11 -44 13
-22 18 14 4 24 12 22 19 -1 8 10 10 35 8 36 -4 38 -6 41 -41z m1169 23 c113
-43 90 -149 -33 -149 -30 0 -54 5 -54 10 0 6 -8 10 -19 10 -19 0 -51 52 -51
83 0 41 96 69 157 46z m340 -34 c2 -5 -8 -11 -22 -11 -16 -1 -25 3 -25 13 0
16 41 15 47 -2z m-3227 -176 c0 -18 -42 -9 -76 17 -55 42 -42 56 21 22 30 -16
55 -34 55 -39z m3474 55 c4 -10 1 -14 -6 -12 -15 5 -23 28 -10 28 5 0 13 -7
16 -16z m-39 -4 c-3 -5 -13 -10 -21 -10 -8 0 -14 5 -14 10 0 6 9 10 21 10 11
0 17 -4 14 -10z m-790 -60 c-11 -5 -33 -9 -50 -9 -23 -1 -26 2 -15 9 8 5 31 9
50 9 29 0 31 -2 15 -9z m-907 -57 c-10 -2 -26 -2 -35 0 -10 3 -2 5 17 5 19 0
27 -2 18 -5z m-1370 -13 c17 0 32 -4 32 -10 0 -5 -15 -10 -34 -10 -19 0 -38
-5 -41 -10 -4 -7 -11 -8 -18 -1 -7 5 -32 11 -56 12 -41 3 -45 1 -54 -24 -7
-21 -5 -34 8 -53 9 -14 15 -27 13 -29 -2 -2 -30 -7 -63 -12 -54 -8 -60 -11
-58 -31 3 -21 1 -21 -30 8 -128 119 -170 161 -152 157 11 -3 40 -2 65 2 25 5
115 7 200 5 85 -2 170 -4 188 -4z m2767 -21 c16 -5 47 -9 68 -9 21 0 83 -13
139 -30 55 -16 109 -30 119 -30 22 0 88 -32 89 -42 0 -12 -31 -9 -75 7 -22 8
-53 15 -70 15 -16 0 -52 9 -80 19 -34 13 -91 21 -180 26 -138 7 -181 18 -189
48 -4 17 0 18 72 11 42 -4 90 -11 107 -15z m-664 -138 c13 -11 21 -23 17 -27
-10 -9 -118 14 -118 26 0 25 71 25 101 1z m-1911 -22 c0 -11 -4 -17 -10 -14
-5 3 -10 13 -10 21 0 8 5 14 10 14 6 0 10 -9 10 -21z m180 7 c0 -8 -4 -18 -10
-21 -5 -3 -10 3 -10 14 0 12 5 21 10 21 6 0 10 -6 10 -14z m1558 7 c-10 -2
-26 -2 -35 0 -10 3 -2 5 17 5 19 0 27 -2 18 -5z m-2141 -68 c9 -25 -4 -29 -17
-6 -7 15 -7 21 0 21 6 0 13 -7 17 -15z"/>
<path d="M680 1295 c0 -9 16 -23 35 -32 31 -15 35 -21 35 -54 0 -43 19 -54 85
-50 22 2 53 4 68 5 15 1 33 -4 39 -11 16 -20 28 -15 28 12 0 37 -32 49 -110
41 l-67 -6 -9 37 c-6 24 -19 42 -39 54 -38 22 -65 24 -65 4z"/>
<path d="M527 1194 c-4 -4 5 -21 19 -37 24 -29 30 -31 86 -29 64 2 78 6 78 25
0 8 -20 12 -59 12 -42 0 -65 5 -78 18 -20 18 -35 21 -46 11z"/>
<path d="M1050 1050 c-8 -5 -24 -10 -36 -10 -24 0 -54 -29 -54 -52 0 -8 12
-28 27 -44 26 -28 73 -130 73 -159 0 -8 4 -15 9 -15 21 0 21 23 2 80 -12 33
-21 63 -21 68 0 4 31 7 68 8 91 1 124 10 120 32 -2 10 -11 16 -23 14 -11 -2
-60 -6 -108 -10 -80 -7 -90 -6 -98 11 -16 29 4 71 23 51 4 -3 47 -7 98 -8 77
-2 90 -1 88 13 -2 8 -14 18 -28 22 -38 11 -123 10 -140 -1z"/>
<path d="M2770 1123 c0 -38 27 -130 41 -139 19 -12 21 5 6 53 -9 26 -17 61
-19 77 -4 40 -28 47 -28 9z"/>
<path d="M2430 728 c1 -29 51 -130 68 -136 20 -6 14 24 -20 93 -34 68 -48 81
-48 43z"/>
<path d="M3070 720 c0 -11 2 -20 5 -20 2 0 9 9 15 20 9 16 8 20 -5 20 -8 0
-15 -9 -15 -20z"/>
<path d="M283 609 c-22 -8 -43 -38 -43 -61 1 -7 10 -24 21 -37 18 -22 22 -23
44 -11 31 17 35 55 5 45 -25 -8 -41 1 -34 20 4 10 14 13 30 9 17 -4 24 -2 24
9 0 23 -22 36 -47 26z"/>
<path d="M366 608 c-11 -6 -16 -23 -16 -58 0 -28 3 -50 8 -50 19 1 50 40 56
72 5 30 3 36 -12 40 -11 3 -27 1 -36 -4z"/>
<path d="M3534 1455 c-4 -8 -3 -22 0 -31 4 -9 2 -22 -3 -28 -23 -27 -29 -99
-18 -197 9 -90 12 -99 29 -93 15 4 23 -4 40 -43 11 -26 25 -49 29 -51 5 -2 9
-10 9 -17 0 -7 11 -20 25 -29 13 -9 38 -30 55 -46 31 -31 54 -33 43 -4 -6 16
12 34 34 34 7 0 13 -19 16 -47 3 -39 4 -35 5 20 2 54 -2 75 -17 95 -10 15 -26
44 -34 65 -9 20 -23 37 -31 37 -20 0 -20 -20 -1 -46 8 -10 15 -26 15 -35 0 -9
7 -22 15 -29 21 -18 19 -27 -9 -32 -18 -4 -23 -1 -18 10 3 8 -3 21 -13 28 -9
7 -15 20 -12 28 3 8 -1 22 -8 33 -23 29 -36 -1 -19 -43 20 -47 18 -51 -11 -24
-14 13 -25 32 -25 42 0 30 -53 98 -72 94 -10 -2 -18 0 -18 5 0 13 57 11 80 -3
17 -11 22 -10 29 1 11 17 3 47 -17 63 -12 10 -16 10 -19 1 -7 -21 -41 -15 -57
9 -22 31 -20 35 14 34 16 -1 30 -4 30 -7 0 -4 7 -10 16 -13 21 -8 44 11 44 35
0 21 -25 26 -34 7 -3 -7 -4 -1 -1 14 6 33 -10 45 -33 25 -16 -14 -70 -17 -64
-4 1 4 2 13 2 20 0 7 7 22 15 33 12 15 16 16 24 5 12 -18 31 -5 31 20 0 52
-52 102 -66 64z"/>
<path d="M3681 1286 c-8 -9 -10 -24 -6 -37 7 -22 8 -22 21 -5 11 15 18 17 43
8 16 -6 31 -8 34 -6 10 11 -6 44 -22 44 -9 0 -25 3 -37 6 -12 3 -26 -1 -33
-10z"/>
<path d="M3623 894 c-10 -27 11 -48 78 -76 54 -22 65 -24 72 -12 11 19 2 30
-30 39 -15 3 -47 20 -70 36 -38 25 -45 27 -50 13z"/>
<path d="M3565 411 c-11 -19 34 -31 104 -28 68 3 98 12 70 21 -33 11 -168 16
-174 7z"/>
<path d="M107 283 c-12 -11 -8 -85 9 -158 9 -39 18 -82 21 -98 6 -30 33 -38
33 -9 0 11 -7 41 -15 68 -16 52 -20 97 -7 78 4 -6 21 -18 38 -27 45 -23 98
-87 85 -100 -16 -16 -13 -37 4 -37 8 0 15 9 15 20 0 11 5 28 11 38 10 16 5 25
-32 60 -24 23 -56 46 -71 52 -15 7 -31 25 -38 43 -27 73 -37 86 -53 70z"/>
<path d="M3725 97 c-19 -14 -13 -37 9 -37 18 0 35 21 29 36 -6 17 -14 18 -38
1z"/>
<path d="M2592 80 c6 -20 66 -37 152 -45 53 -5 76 -4 76 4 0 6 -12 13 -27 17
-16 3 -41 10 -58 14 -16 5 -56 12 -89 16 -46 5 -58 4 -54 -6z"/>
<path d="M1474 56 c-12 -30 29 -56 86 -56 65 0 63 19 -4 36 -25 7 -53 18 -61
24 -12 10 -16 9 -21 -4z"/>
<path d="M2877 43 l-49 -4 39 -20 c32 -16 42 -18 67 -7 23 9 31 9 34 0 2 -7
17 -12 33 -12 19 0 28 4 23 11 -3 6 -15 9 -25 6 -12 -3 -23 2 -29 14 -6 10
-18 18 -28 17 -9 -1 -39 -3 -65 -5z"/>
</g>
</svg>
