<?xml version="1.0" standalone="no"?>
<!DOCTYPE svg PUBLIC "-//W3C//DTD SVG 20010904//EN"
 "http://www.w3.org/TR/2001/REC-SVG-20010904/DTD/svg10.dtd">
<svg version="1.0" xmlns="http://www.w3.org/2000/svg"
 width="344.000000pt" height="256.000000pt" viewBox="0 0 344.000000 256.000000"
 preserveAspectRatio="xMidYMid meet">
<metadata>
Created by potrace 1.16, written by Peter Selinger 2001-2019
</metadata>
<g transform="translate(0.000000,256.000000) scale(0.100000,-0.100000)"
fill="#000000" stroke="none">
<path d="M475 2550 c3 -5 -3 -15 -15 -22 -11 -7 -20 -18 -20 -25 0 -7 -9 -13
-19 -13 -11 0 -21 -5 -23 -11 -7 -20 -46 12 -40 33 6 23 -33 26 -46 3 -7 -14
-11 -14 -39 0 -39 19 -94 5 -73 -19 9 -12 7 -17 -9 -26 -12 -6 -21 -15 -21
-20 0 -14 94 -12 108 2 9 9 15 9 24 0 7 -7 30 -12 52 -12 l41 0 -25 -20 c-14
-11 -35 -20 -47 -20 -12 0 -26 -7 -31 -16 -8 -14 -18 -15 -82 -5 -50 8 -76 8
-85 1 -7 -6 -21 -7 -34 -2 l-22 8 20 23 c25 29 21 37 -21 43 -18 3 -41 8 -50
13 -14 5 -18 2 -18 -13 0 -11 6 -23 13 -26 9 -5 9 -7 0 -12 -7 -3 -13 -14 -13
-24 0 -18 25 -32 63 -35 9 -1 27 -11 40 -23 12 -11 37 -22 56 -24 19 -2 36 -8
38 -14 2 -7 -8 -9 -28 -6 -27 4 -31 2 -26 -12 5 -12 0 -16 -21 -18 -32 -1 -36
-2 -84 -12 -37 -7 -38 -8 -38 -50 0 -45 19 -66 44 -48 10 8 56 14 120 16 16 1
31 6 33 12 6 17 -42 26 -93 18 -38 -5 -44 -4 -44 11 0 16 10 17 118 11 158 -8
265 -7 277 5 5 5 10 19 10 31 0 24 31 34 39 12 7 -19 32 -18 40 2 11 28 7 33
-31 41 -50 10 -53 10 -55 13 -2 1 -21 3 -43 5 -49 4 -97 -16 -119 -50 -9 -14
-22 -25 -28 -25 -9 0 -9 3 0 12 18 18 14 38 -8 38 -11 0 -20 6 -20 13 0 7 -12
18 -27 24 -25 10 -26 11 -6 12 12 1 25 -3 28 -9 9 -15 48 -12 74 6 14 11 26
13 30 7 11 -18 70 -2 90 23 10 13 25 24 33 24 15 0 48 34 48 50 0 5 -9 15 -20
22 -23 15 -27 38 -5 38 7 0 18 6 22 13 6 10 15 10 43 0 19 -6 29 -12 23 -12
-25 -2 -13 -21 12 -21 18 0 28 7 36 27 7 20 13 23 21 15 17 -17 32 -15 45 8
12 19 10 19 -102 19 -68 0 -113 -4 -110 -9z m-231 -56 c23 -9 20 -23 -4 -17
-11 3 -20 9 -20 14 0 11 3 11 24 3z m209 -61 c-17 -17 -53 -20 -53 -4 0 6 61
29 68 25 2 -1 -5 -11 -15 -21z m-96 -179 c-2 -2 -12 -1 -22 3 -18 6 -18 7 1
13 17 7 33 -5 21 -16z"/>
<path d="M716 2541 c-9 -10 -16 -25 -16 -35 0 -11 -15 -23 -40 -33 -26 -11
-40 -22 -38 -31 2 -9 6 -15 11 -14 4 1 25 2 48 2 33 0 40 3 35 16 -9 22 21 51
37 35 9 -10 8 -15 -5 -25 -28 -20 -21 -27 20 -24 20 2 36 8 35 14 -1 6 10 9
28 6 16 -2 29 0 29 6 0 5 9 12 21 15 12 3 19 12 17 19 -7 22 -51 21 -76 -2
-21 -20 -23 -20 -29 -3 -4 10 -11 21 -17 25 -8 5 -7 8 1 8 6 0 14 -4 18 -10 7
-11 54 7 70 26 6 7 24 14 40 17 17 2 -16 4 -72 5 -84 0 -104 -3 -117 -17z"/>
<path d="M952 2519 c-23 -22 -42 -47 -42 -55 0 -18 29 -18 36 0 3 8 21 22 40
31 36 17 43 35 21 53 -9 8 -23 1 -55 -29z"/>
<path d="M1080 2545 c0 -20 28 -31 43 -16 6 6 26 11 43 11 18 0 36 5 39 10 4
6 -18 10 -59 10 -53 0 -66 -3 -66 -15z"/>
<path d="M1410 2550 c36 -12 78 -12 85 0 4 6 -16 10 -52 9 -44 -1 -52 -3 -33
-9z"/>
<path d="M1550 2550 c0 -12 17 -12 45 0 17 7 15 9 -12 9 -18 1 -33 -3 -33 -9z"/>
<path d="M1723 2553 c9 -2 25 -2 35 0 9 3 1 5 -18 5 -19 0 -27 -2 -17 -5z"/>
<path d="M1833 2548 c2 -7 7 -13 12 -13 5 0 10 6 13 13 2 6 -4 12 -13 12 -9 0
-15 -6 -12 -12z"/>
<path d="M1917 2549 c8 -8 19 -8 40 -1 28 10 28 10 -11 11 -29 1 -37 -2 -29
-10z"/>
<path d="M2000 2550 c13 -8 12 -10 -4 -10 -15 0 -16 -3 -6 -15 10 -12 16 -12
26 -4 10 8 22 8 44 1 16 -6 31 -10 31 -9 1 1 3 12 4 25 2 20 -2 22 -54 22 -40
0 -52 -3 -41 -10z"/>
<path d="M2124 2545 c9 -9 19 -23 24 -31 13 -23 59 -24 79 -2 10 11 31 26 48
33 l30 13 -38 1 c-23 1 -36 -3 -32 -9 4 -6 -12 -9 -42 -9 -47 2 -47 2 -13 9
32 7 31 7 -18 9 -48 1 -52 -1 -38 -14z"/>
<path d="M2358 2553 c22 -8 13 -20 -27 -31 -21 -7 -45 -20 -52 -29 -13 -15
-10 -16 41 -8 30 5 75 9 100 9 25 1 50 5 57 9 7 4 24 5 39 1 17 -4 29 -2 35 7
15 25 10 29 -38 29 -29 0 -43 4 -35 9 7 4 -18 8 -60 8 -40 0 -67 -2 -60 -4z"/>
<path d="M2563 2553 c9 -2 25 -2 35 0 9 3 1 5 -18 5 -19 0 -27 -2 -17 -5z"/>
<path d="M2648 2553 c12 -2 30 -2 40 0 9 3 -1 5 -23 4 -22 0 -30 -2 -17 -4z"/>
<path d="M2725 2551 c19 -8 165 -3 174 5 2 2 -40 4 -95 3 -59 0 -91 -4 -79 -8z"/>
<path d="M2910 2550 c0 -6 12 -15 26 -21 20 -7 32 -6 50 6 13 8 24 18 24 20 0
3 -22 5 -50 5 -27 0 -50 -5 -50 -10z"/>
<path d="M3208 2553 c12 -2 30 -2 40 0 9 3 -1 5 -23 4 -22 0 -30 -2 -17 -4z"/>
<path d="M43 2518 c-20 -12 -30 -25 -26 -34 6 -17 13 -17 37 1 11 8 32 15 47
15 36 0 59 9 59 24 0 20 -81 16 -117 -6z"/>
<path d="M2700 2531 c0 -5 -21 -11 -47 -13 -53 -3 -74 -28 -24 -28 24 0 31 -4
31 -20 0 -11 4 -20 9 -20 12 0 62 63 58 74 -5 14 -27 20 -27 7z"/>
<path d="M1190 2516 c0 -8 9 -18 20 -21 16 -5 19 -12 14 -32 -6 -21 -3 -24 12
-21 41 7 22 88 -21 88 -15 0 -25 -6 -25 -14z"/>
<path d="M3300 2515 c-10 -12 -7 -17 14 -25 14 -5 26 -14 26 -20 0 -5 7 -10
15 -10 30 0 9 51 -27 63 -9 3 -22 -1 -28 -8z"/>
<path d="M1648 2509 c-26 -14 -22 -29 7 -29 18 0 25 5 25 20 0 22 -7 24 -32 9z"/>
<path d="M2890 2505 c0 -8 7 -15 15 -15 8 0 15 7 15 15 0 8 -7 15 -15 15 -8 0
-15 -7 -15 -15z"/>
<path d="M3022 2512 c-7 -5 -10 -15 -7 -23 4 -11 29 -14 110 -14 91 0 105 2
105 16 0 9 -7 20 -16 23 -23 9 -177 7 -192 -2z"/>
<path d="M1040 2505 c0 -3 5 -15 11 -26 7 -15 7 -24 -2 -35 -11 -13 -5 -19 15
-15 6 1 21 0 34 -4 19 -5 22 -9 12 -20 -10 -13 -14 -12 -27 1 -11 11 -19 12
-26 5 -6 -6 -22 -11 -35 -11 -20 0 -22 -4 -16 -22 7 -23 6 -23 -14 -5 -26 24
-75 19 -80 -7 -4 -20 30 -54 81 -82 23 -12 45 -14 103 -9 70 7 92 19 59 31
-21 8 -19 39 3 42 9 1 42 4 73 6 31 2 62 6 68 10 14 9 14 1 -1 -24 -19 -30 0
-40 76 -43 48 -1 69 2 75 12 7 10 31 13 94 12 78 -2 112 8 93 26 -12 13 -164
11 -210 -3 -58 -16 -106 -18 -106 -4 0 6 14 10 30 10 33 0 40 14 13 25 -10 4
-58 9 -108 12 -103 6 -133 16 -114 39 6 8 20 14 30 14 11 0 19 7 19 15 0 14
-4 17 -32 19 -7 1 -17 6 -23 13 -11 12 -95 29 -95 18z m75 -184 c-6 -5 -21
-12 -35 -16 -24 -7 -24 -7 -5 9 21 16 56 23 40 7z"/>
<path d="M1368 2502 c-10 -2 -18 -8 -18 -13 0 -5 -7 -9 -15 -9 -21 0 -19 -22
5 -43 15 -12 33 -16 70 -13 59 5 71 11 63 32 -4 11 -13 14 -29 10 -19 -5 -24
-2 -24 13 0 20 -23 30 -52 23z"/>
<path d="M1522 2494 c-15 -10 -22 -24 -20 -37 4 -28 22 -28 26 -1 2 17 9 21
38 18 37 -3 45 10 15 26 -26 13 -33 13 -59 -6z"/>
<path d="M1763 2502 c-13 -2 -23 -7 -23 -12 0 -5 -15 -10 -32 -12 -22 -2 -34
-9 -36 -20 -5 -24 45 -24 78 -1 17 12 25 13 28 5 5 -15 78 -16 88 -1 4 7 22 9
49 5 32 -5 44 -3 48 8 8 20 -60 31 -109 17 -29 -8 -42 -7 -53 2 -9 7 -26 11
-38 9z"/>
<path d="M2017 2483 c-10 -3 -17 -12 -15 -21 7 -33 87 -14 88 21 0 7 -43 8
-73 0z"/>
<path d="M2114 2465 c-4 -8 -12 -15 -19 -15 -7 0 -15 -7 -19 -15 -7 -20 23
-35 70 -35 21 0 46 -7 56 -16 14 -14 20 -15 33 -4 13 11 20 11 39 0 15 -8 38
-10 63 -6 91 16 123 18 123 7 0 -6 -16 -11 -35 -11 -24 0 -35 -5 -35 -15 0
-10 11 -15 35 -15 29 0 37 5 45 26 6 14 8 35 4 48 -5 22 -7 22 -76 13 -46 -6
-78 -5 -92 1 -11 6 -28 13 -36 16 -8 4 -26 13 -40 21 -34 20 -109 20 -116 0z"/>
<path d="M2905 2464 c-45 -11 -111 -38 -134 -56 -17 -13 -27 -15 -37 -7 -13
11 -62 -8 -96 -38 -9 -8 -22 -12 -29 -7 -7 4 -26 8 -43 10 -24 2 -38 -5 -63
-33 -54 -58 -40 -88 15 -33 22 22 40 30 73 31 24 2 46 6 49 10 3 4 30 8 60 10
30 2 66 11 80 19 51 33 121 60 152 59 33 0 33 0 8 -11 -14 -6 -32 -12 -40 -12
-8 -1 -19 -4 -25 -7 -5 -4 -25 -10 -42 -14 -20 -4 -33 -13 -33 -22 0 -12 8
-13 40 -8 28 5 40 3 40 -5 0 -7 7 -10 15 -7 8 4 17 2 20 -3 8 -13 52 -13 59
-1 11 17 86 23 136 10 44 -11 52 -11 68 4 23 21 32 21 32 3 0 -21 28 -27 87
-17 49 7 52 7 50 -13 -2 -24 35 -35 57 -17 7 6 16 8 19 4 11 -11 8 -193 -3
-193 -5 0 -10 6 -10 14 0 8 -14 25 -31 37 -27 19 -40 21 -92 16 -46 -4 -67 -2
-82 9 -11 8 -32 12 -50 9 -16 -2 -55 -7 -86 -10 -51 -6 -57 -4 -62 14 -5 21
-36 29 -51 14 -4 -5 -20 -8 -34 -9 -15 0 -71 -8 -124 -18 -54 -10 -106 -15
-115 -12 -10 3 -43 2 -73 -3 -63 -10 -69 -8 -46 14 9 9 16 20 16 25 0 4 9 10
20 13 11 3 20 12 20 21 0 23 -76 21 -124 -4 -22 -10 -43 -17 -48 -14 -13 8
-48 -6 -48 -19 0 -7 -9 -18 -20 -25 -17 -11 -20 -10 -20 7 0 22 -45 55 -66 47
-22 -9 -18 -46 6 -46 11 0 20 -7 20 -15 0 -19 -36 -20 -44 0 -3 8 -12 12 -21
9 -13 -5 -13 -9 -3 -22 10 -12 10 -16 1 -19 -7 -3 -13 -11 -13 -18 0 -7 6 -15
13 -18 21 -7 1 -18 -34 -19 -36 0 -83 -24 -75 -37 3 -4 29 -6 58 -4 29 2 66 4
82 4 16 0 34 3 40 7 16 12 56 12 56 1 0 -6 5 -7 10 -4 6 3 10 12 10 20 0 7 14
27 30 44 29 28 31 29 40 10 9 -16 7 -21 -12 -28 -21 -8 -21 -10 -5 -16 19 -8
32 -1 32 18 0 5 5 12 11 14 7 2 15 -12 18 -32 6 -30 11 -36 28 -33 25 4 37 28
14 28 -9 0 -16 7 -16 15 0 20 5 19 27 -4 34 -35 113 -31 113 7 0 19 -17 23
-60 13 -36 -8 -41 -7 -38 7 2 13 17 18 62 20 58 3 58 3 54 -22 -6 -31 5 -33
30 -5 17 18 20 18 26 3 4 -11 -7 -28 -36 -55 -36 -32 -50 -38 -88 -39 -64 0
-120 -18 -120 -37 0 -10 5 -13 17 -8 35 13 136 18 129 7 -10 -17 -53 -22 -246
-32 -96 -5 -192 -12 -213 -16 -73 -12 -180 20 -317 96 -28 16 -54 20 -126 20
-50 0 -115 4 -145 9 -79 14 -295 24 -436 22 -142 -3 -203 4 -203 25 0 11 -16
14 -71 14 -64 0 -70 2 -64 19 4 15 -1 20 -26 25 -52 10 -72 -17 -20 -29 20 -4
28 -11 24 -21 -7 -19 16 -25 145 -36 21 -2 13 -12 -21 -28 -38 -18 -77 -82
-77 -127 0 -30 -2 -31 -33 -26 -18 2 -57 -2 -87 -10 -30 -8 -62 -15 -70 -14
-25 1 -71 -34 -68 -52 5 -25 45 -26 60 -2 7 12 18 21 25 21 7 0 13 5 13 10 0
6 5 10 10 10 6 0 10 -7 10 -15 0 -41 103 -85 116 -51 3 9 10 16 15 16 7 0 -6
-40 -41 -125 -5 -11 -18 -45 -29 -75 -17 -48 -20 -51 -20 -24 l-1 31 -62 -3
c-34 -1 -64 -7 -66 -13 -2 -7 -18 -9 -43 -5 -29 5 -39 3 -39 -7 0 -10 -3 -10
-12 -1 -17 17 -110 15 -134 -3 -10 -8 -29 -15 -41 -15 -14 0 -23 -6 -23 -15 0
-8 6 -15 14 -15 8 0 22 -10 30 -21 13 -18 21 -21 55 -15 31 5 41 3 41 -7 0
-43 -78 -52 -104 -12 -9 14 -23 25 -31 25 -7 0 -23 13 -35 29 -16 24 -28 30
-58 30 -56 1 -86 5 -99 14 -12 8 -43 -28 -43 -51 0 -9 -5 -10 -19 -2 -37 19
-44 13 -38 -35 8 -55 -11 -62 -36 -12 l-16 32 0 -50 -1 -50 100 -3 c85 -3 101
-1 106 13 6 13 25 15 138 14 72 -1 140 -1 151 0 11 1 243 1 515 1 l495 -2 28
-33 c33 -40 31 -46 -39 -131 -38 -47 -64 -104 -64 -141 0 -6 9 -27 19 -45 11
-18 27 -62 36 -98 9 -35 22 -76 29 -90 7 -14 16 -37 20 -52 5 -23 3 -28 -13
-28 -20 0 -31 -25 -31 -72 0 -18 5 -28 15 -28 8 0 15 -4 15 -9 0 -4 18 -21 40
-36 23 -16 40 -36 40 -47 0 -22 17 -29 153 -64 97 -24 143 -44 103 -44 -10 0
-31 -10 -48 -21 -28 -20 -41 -22 -167 -20 -203 3 -247 8 -431 52 -111 27 -129
29 -162 18 -63 -21 -49 -37 63 -72 47 -15 95 -37 105 -48 21 -23 63 -43 139
-66 28 -8 70 -26 95 -39 55 -30 80 -31 80 -4 0 18 5 20 38 15 20 -2 152 -9
292 -15 264 -11 273 -12 405 -29 44 -5 160 -10 258 -10 148 -1 182 2 203 15
26 18 85 16 254 -5 41 -6 134 -11 205 -11 72 -1 152 -5 178 -9 26 -4 50 -5 52
-1 8 13 -11 27 -45 34 -58 12 -386 28 -530 27 -517 -5 -718 0 -980 28 -47 5
-131 10 -187 10 -56 1 -105 5 -108 11 -10 16 -44 11 -64 -9 -19 -19 -20 -19
-58 -1 -21 10 -69 28 -106 40 -38 12 -80 33 -95 47 l-27 25 30 -5 c17 -3 97
-14 178 -23 l148 -18 6 -28 5 -28 108 0 c60 0 115 3 124 6 19 7 21 35 5 51
-14 14 16 49 46 55 11 2 18 7 15 11 -3 4 6 13 20 20 14 7 26 22 28 34 3 20 6
21 25 10 12 -7 32 -20 44 -31 34 -29 171 -49 293 -42 261 15 451 4 620 -33
122 -26 169 -29 181 -11 26 45 23 44 98 25 84 -22 118 -13 127 35 7 34 5 33
38 19 29 -13 58 -6 51 13 -3 8 -28 24 -56 37 -27 13 -54 32 -60 42 -5 10 -23
19 -42 21 -27 3 -32 7 -29 26 2 14 -5 30 -17 41 -25 22 -27 31 -6 31 22 0 19
52 -6 106 -24 55 -61 195 -53 203 3 3 16 -6 28 -21 18 -23 30 -28 68 -28 38 0
50 5 67 26 12 15 21 35 21 44 0 10 11 25 24 33 33 22 66 71 57 85 -4 7 -23 -5
-53 -36 -66 -66 -73 -75 -73 -92 0 -10 -12 -16 -40 -17 -31 -2 -44 2 -57 20
-22 27 -23 44 -3 27 12 -10 15 -9 15 4 0 9 -7 19 -15 22 -19 8 -20 69 -1 143
8 31 19 92 26 136 6 44 18 102 25 128 8 26 11 55 8 63 -3 9 5 27 19 42 14 15
35 42 47 60 16 23 30 32 49 32 15 0 38 7 50 16 12 8 27 12 32 9 6 -4 10 7 10
27 -1 30 -2 31 -13 13 -9 -14 -25 -21 -57 -23 l-45 -3 25 20 c14 11 30 21 37
21 7 0 17 10 24 21 9 17 13 19 20 8 6 -10 9 -2 9 23 0 30 -3 36 -16 31 -10 -4
-20 0 -26 10 -10 19 -83 41 -100 31 -7 -4 -30 -7 -53 -5 -31 1 -46 -4 -60 -19
l-19 -21 87 6 c77 6 92 4 121 -14 18 -12 36 -19 39 -16 4 3 5 2 2 -2 -3 -4
-46 -7 -95 -8 -89 0 -117 -8 -90 -25 11 -7 2 -10 -28 -10 -26 0 -41 4 -37 10
3 6 -3 10 -14 10 -17 0 -21 -6 -21 -34 0 -32 19 -53 34 -38 4 3 40 6 81 7 48
0 71 -3 64 -10 -5 -5 -36 -8 -68 -7 -33 2 -62 -1 -65 -7 -4 -5 -21 -7 -40 -4
l-33 5 -6 -54 c-5 -44 -50 -158 -62 -158 -4 0 2 103 10 173 3 26 1 56 -5 68
-21 38 -93 94 -184 142 -50 27 -95 52 -99 56 -9 9 89 31 133 31 16 0 37 11 53
28 14 15 40 38 58 51 31 24 32 24 46 5 8 -12 10 -20 3 -22 -18 -6 -11 -34 8
-30 9 2 17 10 17 18 0 9 12 15 35 15 106 4 160 26 147 59 -5 11 3 15 36 15 43
-1 97 -18 97 -31 0 -4 -12 -3 -26 2 -35 14 -36 13 -32 -12 3 -20 9 -23 45 -22
47 1 56 -13 46 -71 -3 -18 0 -41 6 -51 8 -14 10 39 10 201 0 162 -3 214 -11
198 -12 -25 -37 -38 -50 -25 -5 5 1 17 12 27 44 40 21 58 -95 75 -60 8 -93 8
-130 0 -60 -14 -103 -14 -119 -1 -19 16 -111 32 -141 25z m415 -74 c21 -7 17
-8 -22 -9 -25 -1 -55 -4 -65 -8 -16 -6 -16 -5 -4 10 14 18 49 20 91 7z m-350
-225 c0 -20 -51 -38 -122 -44 -57 -5 -68 -4 -71 11 -5 17 18 28 64 28 14 0 29
4 35 9 22 21 94 18 94 -4z m130 -5 c0 -5 -7 -10 -15 -10 -8 0 -15 -9 -15 -20
0 -11 -4 -20 -10 -20 -16 0 -11 32 8 46 21 16 32 17 32 4z m140 -15 c0 -8 -4
-15 -10 -15 -5 0 -10 7 -10 15 0 8 5 15 10 15 6 0 10 -7 10 -15z m-316 -80
c-5 -11 -115 -35 -164 -35 -16 0 -30 4 -30 10 0 18 43 32 84 27 23 -3 48 -2
55 2 19 12 59 8 55 -4z m-1519 -20 c27 -3 55 -11 62 -18 15 -14 19 -109 8
-185 -6 -39 -3 -67 9 -105 9 -29 23 -78 32 -109 8 -31 28 -76 44 -100 32 -47
38 -83 16 -91 -29 -11 -68 59 -59 107 5 24 3 27 -14 22 -14 -4 -38 10 -90 54
-73 61 -120 90 -231 140 l-63 29 -8 -22 c-5 -12 -48 -57 -95 -100 l-85 -77
-36 20 c-19 11 -43 20 -51 20 -13 0 -15 7 -9 37 4 21 12 49 20 63 7 14 22 58
35 99 19 62 20 77 9 97 -11 21 -10 27 9 47 12 13 22 28 22 34 0 6 7 16 15 23
13 11 15 8 15 -14 0 -28 18 -34 38 -14 7 7 12 20 12 30 0 14 11 18 73 21 87 4
253 0 322 -8z m333 -23 c105 -6 136 -11 146 -23 25 -35 153 -87 240 -98 l51
-6 0 -60 c0 -47 3 -60 15 -60 16 0 21 62 7 101 -6 18 -2 22 32 32 21 7 85 12
142 13 93 0 162 6 308 25 40 6 55 1 139 -42 52 -27 117 -70 144 -96 l51 -46
-1 -89 c-1 -48 -6 -112 -12 -142 -5 -29 -10 -68 -10 -86 0 -21 -8 -38 -25 -54
-29 -24 -45 -20 -45 10 0 32 -26 75 -66 107 -35 29 -36 32 -41 113 -5 96 -37
209 -59 209 -18 0 -18 -9 5 -61 12 -28 22 -82 26 -149 l7 -105 39 -36 c26 -24
39 -45 39 -62 0 -27 19 -78 32 -87 9 -7 -2 -52 -13 -48 -4 2 -28 22 -53 46
-25 24 -50 41 -55 37 -5 -3 -35 6 -67 20 -31 14 -58 25 -60 25 -2 0 -5 -10 -5
-22 -1 -21 -2 -21 -6 -3 -3 11 -10 31 -16 45 -6 14 -9 29 -8 34 4 17 -9 56
-19 56 -6 0 -10 -14 -10 -30 0 -33 -38 -80 -65 -80 -8 0 -15 -4 -15 -10 0 -11
-67 -41 -157 -70 -80 -25 -194 -24 -318 3 -99 22 -136 39 -125 57 5 8 8 22 6
30 -2 8 -7 32 -11 52 -5 30 -15 44 -50 68 -24 17 -58 33 -75 36 -16 4 -30 13
-30 20 0 22 -35 16 -64 -11 -19 -18 -26 -34 -26 -62 1 -36 2 -37 15 -19 8 11
15 25 15 31 0 6 11 17 23 24 21 11 29 9 63 -13 21 -14 48 -34 59 -44 23 -19
26 -62 6 -86 -11 -13 -8 -16 21 -25 l33 -9 -44 -1 c-34 -1 -51 -7 -70 -27 -25
-25 -26 -29 -18 -98 4 -39 12 -97 18 -130 17 -95 6 -83 -28 33 -3 11 -6 12
-15 3 -15 -15 -44 57 -54 134 -3 30 -10 57 -15 60 -5 3 -9 17 -9 32 0 15 -9
38 -20 52 -11 14 -20 33 -20 43 0 10 -13 37 -28 60 -53 77 -97 233 -87 303 4
27 8 82 8 123 l2 73 45 -7 c25 -3 105 -9 178 -13z m996 -20 c3 -4 -11 -9 -31
-9 -25 -1 -32 2 -22 8 18 11 46 12 53 1z m-1891 -138 c3 -3 -3 -16 -14 -27
-17 -18 -21 -19 -29 -7 -15 24 23 54 43 34z m405 -178 c48 -25 110 -65 137
-90 28 -25 52 -46 55 -46 3 0 14 -13 23 -30 l18 -30 -28 0 c-15 0 -52 3 -80 6
-40 5 -53 11 -53 24 0 9 -9 26 -20 38 -11 12 -20 26 -20 31 0 17 -48 48 -94
61 -36 10 -49 10 -72 -1 -49 -25 -39 -36 30 -35 39 1 70 -4 77 -11 19 -19 4
-26 -64 -30 -34 -3 -71 -8 -82 -14 -11 -5 -37 -12 -58 -16 -45 -9 -51 -23 -17
-40 23 -12 22 -13 -25 -13 -28 0 -56 -5 -63 -12 -6 -6 -15 -8 -19 -5 -4 4 3
14 15 23 12 8 22 23 23 32 0 9 43 55 95 102 52 47 94 88 94 93 0 17 46 4 128
-37z m2022 35 c0 -5 -7 -16 -15 -25 -8 -8 -15 -17 -15 -20 0 -3 -11 -16 -24
-29 -19 -19 -24 -38 -30 -103 -8 -83 -28 -217 -45 -294 -6 -25 -11 -70 -12
-100 -1 -55 -2 -55 -8 -14 -5 30 -22 59 -62 105 -52 61 -87 115 -78 122 2 2
17 11 33 21 23 15 27 23 23 49 -3 23 6 50 34 103 21 40 44 94 49 121 l11 50
62 10 c34 5 65 11 70 11 4 1 7 -2 7 -7z m-2706 -206 c3 -8 0 -15 -7 -16 -7 0
-22 -2 -34 -5 -13 -2 -23 0 -23 4 0 6 35 28 51 31 4 0 9 -6 13 -14z m232 -10
c14 -13 11 -15 -28 -14 -24 1 -33 4 -20 6 12 2 22 9 22 14 0 13 9 11 26 -6z
m-596 -45 c0 -11 -40 -11 -85 0 -25 6 -20 8 28 9 32 0 57 -3 57 -9z m2425
-137 c14 -49 33 -106 40 -128 8 -23 16 -74 17 -115 1 -65 -3 -85 -32 -150 -40
-89 -89 -161 -123 -179 -14 -7 -31 -24 -38 -37 -13 -25 -33 -31 -44 -14 -9 15
-35 12 -35 -5 0 -27 44 -43 140 -49 127 -9 150 -14 150 -37 0 -16 26 -39 44
-39 12 0 6 24 -11 42 -13 15 -14 18 -2 18 8 0 19 -4 25 -10 5 -5 55 -19 112
-31 95 -20 107 -25 150 -66 l46 -44 -44 7 c-25 4 -52 10 -61 15 -22 11 -128
30 -214 39 -77 7 -115 18 -115 31 0 5 -8 9 -18 9 -11 0 -26 8 -36 19 -13 15
-38 20 -124 25 -68 5 -113 13 -122 21 -16 15 -44 17 -170 16 -86 -2 -160 7
-177 21 -7 5 -21 7 -33 3 -17 -5 -20 -2 -20 19 0 19 -5 26 -20 26 -14 0 -18
-5 -14 -17 5 -14 4 -15 -4 -4 -8 11 -16 11 -42 2 -45 -15 -50 -14 -50 12 0 28
9 41 38 56 27 14 29 54 6 126 -15 48 -23 106 -44 315 -7 83 -7 97 8 108 21 16
60 15 113 -4 168 -60 416 -65 504 -10 11 7 40 20 65 29 25 9 56 28 70 41 14
14 28 25 32 25 4 1 19 -38 33 -86z m96 -26 c8 -26 19 -50 22 -54 14 -13 7 -30
-17 -41 -27 -12 -37 1 -56 76 -8 32 -8 45 2 57 20 22 32 13 49 -38z m129 -34
c29 -32 78 -86 110 -121 32 -34 68 -82 80 -107 55 -114 85 -416 37 -377 -6 5
-51 13 -100 17 -75 6 -86 5 -81 -8 7 -20 34 -26 134 -28 56 -1 98 -7 125 -19
22 -10 61 -27 88 -38 47 -21 57 -38 35 -60 -18 -18 -46 -15 -104 13 -87 41
-106 48 -169 60 -88 18 -227 54 -247 65 -9 5 -51 10 -92 11 -77 2 -84 6 -66
39 8 15 17 18 45 13 31 -5 35 -3 40 23 11 48 36 138 46 159 92 212 99 236 80
273 -11 19 -31 103 -31 126 0 27 16 18 70 -41z m192 -59 c21 -23 38 -45 38
-50 0 -5 -11 -14 -25 -20 -22 -11 -28 -8 -70 37 -46 49 -54 74 -34 111 11 21
12 21 33 -8 11 -16 38 -48 58 -70z m-1375 20 c8 -21 25 -77 38 -124 13 -47 31
-103 39 -125 37 -97 10 -201 -60 -235 -23 -12 -46 -20 -50 -19 -5 1 -17 -1
-26 -5 -34 -15 -40 0 -12 31 45 48 70 101 57 121 -5 9 -20 18 -32 20 -22 4
-28 18 -10 24 15 5 4 39 -20 65 -27 28 -71 128 -71 160 0 19 16 42 55 81 31
29 61 52 67 50 6 -2 18 -22 25 -44z m123 -247 c12 -38 20 -76 18 -85 -2 -9
-10 6 -17 33 -7 28 -21 72 -32 99 -22 56 -25 97 -3 51 7 -16 23 -61 34 -98z
m949 93 c4 0 12 5 19 12 17 17 15 0 -7 -46 -11 -23 -34 -76 -51 -118 -18 -43
-36 -78 -41 -78 -13 0 -12 5 17 68 15 31 29 77 31 102 6 65 15 100 20 78 3
-10 8 -18 12 -18z m-1209 -73 c0 -6 7 -18 16 -28 9 -10 13 -23 9 -29 -9 -15
-31 16 -38 55 -3 17 -8 41 -12 55 -4 16 -1 13 9 -9 9 -18 16 -38 16 -44z
m1588 -27 c26 -85 36 -132 27 -127 -3 1 -9 -4 -14 -11 -4 -7 -14 25 -23 80 -9
51 -19 102 -23 113 l-7 20 14 -20 c9 -11 20 -36 26 -55z m56 -305 c-4 -8 -10
-13 -15 -10 -4 3 -6 12 -3 20 4 8 10 13 15 10 4 -3 6 -12 3 -20z m-1414 -5 c0
-21 25 -38 38 -26 3 4 0 16 -7 28 -7 11 -9 18 -4 15 4 -2 25 -12 45 -22 21 -9
40 -27 44 -38 4 -12 12 -25 18 -29 19 -13 -21 -9 -66 7 -24 8 -67 19 -96 25
-28 7 -52 14 -52 16 0 2 6 13 12 24 18 28 68 28 68 0z m-112 -8 c2 -7 -2 -10
-12 -6 -9 3 -16 11 -16 16 0 13 23 5 28 -10z m485 -19 c86 1 157 0 157 -3 0
-3 13 -13 28 -22 19 -12 64 -19 135 -24 80 -5 107 -10 107 -20 0 -8 -3 -14 -7
-14 -169 -9 -416 -10 -426 -2 -6 5 -34 12 -60 15 -51 5 -107 45 -107 76 0 11
3 12 8 4 5 -9 52 -11 165 -10z"/>
<path d="M1915 1828 c-9 -23 34 -98 55 -98 44 0 69 -31 35 -44 -8 -3 -12 -12
-9 -21 10 -25 31 -17 38 16 6 32 -8 54 -47 74 -11 5 -28 25 -38 43 -23 44 -27
48 -34 30z"/>
<path d="M2137 1744 c-3 -4 -2 -15 4 -25 5 -11 12 -47 16 -82 4 -50 2 -65 -11
-76 -22 -19 -20 -40 9 -95 23 -42 24 -52 14 -88 -13 -51 1 -70 25 -33 12 18
15 36 11 58 -10 49 -29 101 -39 109 -6 4 -4 13 4 23 26 31 9 215 -20 215 -3 0
-10 -3 -13 -6z"/>
<path d="M2056 1715 c-4 -11 2 -15 24 -15 20 0 30 5 30 15 0 9 -9 15 -24 15
-13 0 -26 -7 -30 -15z"/>
<path d="M3163 1675 c-14 -14 -23 -37 -23 -55 0 -16 -4 -30 -10 -30 -5 0 -10
-7 -10 -15 0 -10 10 -15 30 -15 33 0 35 2 19 32 -10 18 -8 24 9 39 26 20 40
69 21 68 -8 0 -24 -11 -36 -24z"/>
<path d="M1813 1278 c2 -7 12 -13 22 -13 10 0 20 6 23 13 2 7 -6 12 -23 12
-17 0 -25 -5 -22 -12z"/>
<path d="M2455 1261 c-10 -17 4 -31 31 -31 19 0 25 5 22 18 -4 19 -43 29 -53
13z"/>
<path d="M1904 793 c1 -44 27 -53 36 -13 9 37 63 41 86 6 20 -31 44 -34 44 -5
0 26 -54 49 -118 49 l-49 0 1 -37z"/>
<path d="M2140 814 c0 -8 -9 -14 -21 -14 -14 0 -19 -5 -17 -17 3 -15 16 -18
86 -21 60 -2 84 1 87 10 4 10 37 12 139 11 109 -2 136 0 146 12 7 9 11 18 8
20 -3 3 -100 7 -216 9 -179 4 -212 2 -212 -10z"/>
<path d="M1974 735 c-7 -18 3 -35 21 -35 19 0 24 22 9 37 -16 17 -23 16 -30
-2z"/>
<path d="M2050 705 c0 -11 11 -15 43 -15 23 0 52 -3 63 -6 16 -4 23 0 27 15 5
20 1 21 -64 21 -55 0 -69 -3 -69 -15z"/>
<path d="M553 2443 c-7 -2 -13 -11 -13 -19 0 -22 54 -14 58 9 3 17 -17 22 -45
10z"/>
<path d="M1585 2440 c-11 -17 4 -29 36 -28 22 1 28 5 24 15 -3 8 -5 17 -5 19
0 9 -49 3 -55 -6z"/>
<path d="M698 2414 c-2 -2 -32 -6 -67 -8 -34 -3 -69 -10 -77 -17 -11 -9 -18
-9 -26 -1 -17 17 -23 15 -36 -13 -10 -21 -9 -27 4 -32 9 -3 19 -2 23 3 3 5 20
10 38 11 25 2 31 0 27 -12 -9 -22 14 -18 26 5 14 26 28 25 32 -2 2 -13 8 -23
13 -23 6 0 11 10 13 23 2 12 11 23 20 23 9 1 30 2 45 3 16 1 32 8 37 16 5 8 8
15 7 16 -6 4 -76 12 -79 8z"/>
<path d="M1953 2399 c-16 -16 1 -39 29 -39 14 0 19 6 16 22 -3 26 -28 34 -45
17z"/>
<path d="M1470 2380 c0 -5 14 -10 30 -10 17 0 30 5 30 10 0 6 -13 10 -30 10
-16 0 -30 -4 -30 -10z"/>
<path d="M1695 2369 c-10 -15 -5 -18 58 -25 41 -5 57 -3 57 5 0 14 -10 17 -67
25 -25 4 -44 2 -48 -5z"/>
<path d="M2110 2355 c0 -8 9 -15 20 -15 11 0 20 -5 20 -11 0 -13 -61 -4 -70
11 -3 5 -52 7 -108 6 -77 -3 -107 -8 -121 -20 -10 -9 -27 -16 -39 -16 -29 0
-28 -16 1 -25 l22 -8 -23 -4 c-31 -6 -22 -27 13 -31 24 -3 27 -1 22 17 -3 13
4 27 19 42 29 27 45 18 19 -11 -10 -11 -14 -21 -9 -22 23 -3 30 -5 47 -13 9
-4 30 -4 45 0 64 15 209 35 230 30 15 -4 22 -1 22 9 0 7 8 13 17 12 26 -2 28
31 2 39 -15 5 -26 2 -34 -9 -18 -24 -26 -20 -19 9 6 24 4 25 -35 25 -30 0 -41
-4 -41 -15z"/>
<path d="M676 2304 c-21 -25 -37 -46 -35 -48 2 -2 13 -8 24 -14 19 -11 18 -11
-7 -12 -15 0 -30 -4 -33 -10 -10 -16 -28 -12 -22 5 9 21 -9 27 -24 8 -11 -13
-11 -17 -1 -20 6 -3 12 -10 12 -17 0 -10 19 -12 78 -8 63 3 80 8 94 25 23 30
18 55 -14 70 -30 13 -40 34 -10 22 34 -15 60 -17 66 -6 9 13 66 15 66 2 0 -6
-17 -11 -37 -13 -26 -2 -38 -8 -38 -18 0 -20 52 -22 82 -3 21 12 23 12 20 -9
-2 -26 21 -34 46 -16 20 15 14 48 -8 48 -7 0 -26 14 -43 31 -20 21 -37 30 -53
27 -13 -2 -23 -8 -22 -13 2 -13 -75 -7 -83 6 -9 15 -18 10 -58 -37z m74 -63
c0 -5 -9 -11 -20 -14 -13 -3 -20 0 -20 9 0 8 9 14 20 14 11 0 20 -4 20 -9z"/>
<path d="M1238 2333 c-29 -7 -20 -23 13 -23 19 0 29 4 27 12 -5 14 -17 17 -40
11z"/>
<path d="M0 2294 c0 -31 3 -35 23 -32 17 2 22 10 24 36 1 28 -2 32 -23 32 -21
0 -24 -5 -24 -36z"/>
<path d="M1685 2316 c-19 -14 -19 -15 -2 -21 22 -9 50 2 45 17 -6 18 -22 20
-43 4z"/>
<path d="M2745 2310 c-14 -15 -16 -23 -7 -32 14 -14 62 15 62 37 0 22 -34 18
-55 -5z"/>
<path d="M2980 2314 c0 -9 5 -14 12 -12 18 6 21 28 4 28 -9 0 -16 -7 -16 -16z"/>
<path d="M2349 2316 c-2 -3 -24 -6 -47 -9 -24 -2 -51 -12 -60 -22 -16 -17 -14
-17 47 -12 58 5 80 16 81 40 0 8 -14 10 -21 3z"/>
<path d="M2640 2305 c0 -8 9 -15 20 -15 11 0 20 7 20 15 0 8 -9 15 -20 15 -11
0 -20 -7 -20 -15z"/>
<path d="M1205 2290 c-4 -7 -2 -16 5 -20 19 -12 118 -11 126 1 9 16 1 19 -64
25 -41 4 -62 2 -67 -6z"/>
<path d="M2822 2263 c-34 -19 -59 -39 -56 -45 9 -15 65 -1 89 22 21 20 65 18
65 -3 0 -7 4 -7 12 1 7 7 20 12 30 12 12 0 18 7 18 21 0 19 -4 21 -31 15 -17
-3 -38 -2 -47 3 -13 7 -35 0 -80 -26z"/>
<path d="M3033 2292 c-44 -4 -43 -29 2 -38 43 -8 67 0 59 20 -7 18 -21 22 -61
18z"/>
<path d="M3203 2294 c-7 -3 -13 -11 -13 -18 0 -9 24 -15 72 -19 71 -6 103 3
83 22 -12 11 -125 22 -142 15z"/>
<path d="M1715 2271 c-3 -5 -1 -12 4 -15 12 -8 41 3 41 15 0 12 -37 12 -45 0z"/>
<path d="M2667 2272 c-14 -3 -16 -7 -6 -18 15 -18 25 -18 32 1 7 17 -1 23 -26
17z"/>
<path d="M1431 2256 c-7 -8 -8 -17 -4 -19 14 -9 76 8 81 21 5 17 -63 16 -77
-2z"/>
<path d="M2132 2260 c-39 -9 -46 -15 -38 -29 6 -9 74 -6 105 4 11 4 11 8 1 20
-14 16 -19 17 -68 5z"/>
<path d="M1096 2232 c-9 -14 55 -35 68 -22 5 5 7 12 5 15 -11 11 -67 16 -73 7z"/>
<path d="M782 2218 c3 -7 24 -16 49 -20 24 -4 56 -10 72 -13 37 -10 35 10 -3
30 -36 19 -124 21 -118 3z"/>
<path d="M1985 2220 c-4 -6 8 -10 29 -10 20 0 36 5 36 10 0 6 -13 10 -29 10
-17 0 -33 -4 -36 -10z"/>
<path d="M513 2199 c-6 -6 -60 -11 -129 -12 -116 -2 -144 -9 -144 -37 0 -8 23
-9 83 -4 45 5 105 7 132 6 58 -2 95 13 95 40 0 20 -20 24 -37 7z"/>
<path d="M1310 2203 c-36 -2 -76 -6 -90 -9 -24 -5 -24 -6 -6 -20 24 -17 105
-18 170 -1 59 15 74 38 24 35 -18 -1 -62 -3 -98 -5z"/>
<path d="M1483 2194 c-3 -9 0 -20 7 -24 7 -4 9 -13 6 -19 -4 -7 1 -11 13 -11
33 0 51 11 51 31 0 22 -11 24 -28 7 -9 -9 -12 -7 -12 10 0 26 -27 30 -37 6z"/>
<path d="M1762 2200 c-20 -8 -21 -12 -10 -30 17 -26 35 -25 58 2 17 21 18 21
43 5 33 -21 63 -22 71 -1 8 22 9 22 -16 22 -13 0 -45 2 -73 6 -27 3 -60 2 -73
-4z"/>
<path d="M2080 2194 c-19 -7 -45 -13 -57 -13 -13 -1 -23 -5 -23 -10 0 -11 59
-26 67 -17 4 3 12 -3 20 -14 16 -23 53 -27 53 -6 0 7 -10 17 -22 21 -19 6 -15
9 26 18 65 16 73 37 14 36 -23 -1 -59 -7 -78 -15z"/>
<path d="M657 2163 c-14 -13 -6 -33 12 -33 14 0 18 -5 14 -20 -6 -22 5 -24 70
-14 23 4 37 12 37 22 0 12 -9 14 -45 9 -45 -7 -64 6 -25 16 34 9 22 27 -18 27
-21 0 -42 -3 -45 -7z"/>
<path d="M1714 2155 c-4 -8 -12 -15 -19 -15 -19 0 -38 -28 -31 -45 4 -11 11
-13 21 -8 27 16 209 -4 247 -27 32 -18 68 -19 68 -1 0 4 -15 15 -32 24 -31 16
-31 17 -6 12 31 -6 80 13 75 29 -2 6 -8 11 -13 11 -5 0 -53 -4 -106 -9 -121
-10 -178 -2 -178 25 0 23 -18 25 -26 4z"/>
<path d="M591 2114 c-9 -20 -17 -25 -34 -20 -12 3 -37 6 -54 6 -21 0 -32 5
-30 13 1 9 -15 11 -63 10 -92 -4 -277 -4 -329 -1 -29 2 -46 -1 -48 -9 -3 -7 2
-13 11 -13 23 0 20 -17 -4 -23 -19 -5 -24 3 -21 30 1 6 -3 14 -9 18 -6 4 -10
-9 -10 -34 0 -39 2 -41 30 -41 16 0 45 7 64 16 30 15 48 15 152 5 148 -15 163
-15 249 -12 90 3 153 -3 168 -18 16 -16 24 -14 30 8 5 20 -27 41 -60 41 -13 0
-14 3 -5 12 18 18 15 38 -6 38 -11 0 -24 -12 -31 -26z"/>
<path d="M2054 2105 c5 -18 2 -25 -8 -25 -16 0 -40 -26 -29 -33 12 -6 73 12
73 23 0 5 -4 20 -10 34 -13 34 -34 35 -26 1z"/>
<path d="M702 2022 c5 -27 119 -45 134 -21 11 18 -8 26 -74 32 -54 4 -63 3
-60 -11z"/>
<path d="M3340 2030 c-8 -5 -11 -12 -7 -16 4 -4 15 0 24 9 18 18 8 23 -17 7z"/>
<path d="M307 2012 c-62 -6 -39 -27 27 -26 51 1 76 8 65 18 -9 7 -56 12 -92 8z"/>
<path d="M3242 1996 c-28 -14 -25 -40 6 -44 16 -2 25 3 31 20 14 38 4 45 -37
24z"/>
<path d="M3317 1986 c-3 -8 1 -17 9 -20 22 -8 22 -8 34 14 9 17 8 20 -14 20
-13 0 -26 -6 -29 -14z"/>
<path d="M32 1973 c-24 -3 -32 -9 -32 -24 0 -17 5 -18 39 -13 21 3 47 1 58 -4
17 -9 55 0 43 11 -23 18 -56 37 -65 35 -5 0 -25 -3 -43 -5z"/>
<path d="M567 1973 c-17 -16 -4 -33 34 -43 33 -9 44 -9 50 1 15 25 -63 64 -84
42z"/>
<path d="M18 1923 c-15 -4 -18 -17 -18 -92 l0 -88 26 5 c14 2 32 16 41 29 12
17 18 21 24 12 6 -10 11 -10 25 2 10 8 19 10 21 4 7 -22 254 7 288 35 5 4 29
9 52 12 41 3 42 3 48 -32 6 -28 3 -38 -16 -53 -19 -15 -20 -20 -8 -28 21 -13
25 -12 44 17 11 17 15 38 12 59 -4 27 -1 34 25 50 25 14 28 19 16 31 -19 20
-62 22 -63 4 0 -12 -14 -15 -65 -15 -36 0 -71 -4 -77 -8 -9 -6 -13 0 -13 22 0
34 -15 42 -23 12 -5 -22 -53 -31 -152 -28 -43 1 -63 -2 -72 -13 -9 -10 -12
-11 -13 -2 0 8 -18 12 -56 12 -36 0 -53 4 -49 11 4 6 10 8 13 5 6 -7 42 23 42
36 0 8 -22 9 -52 1z"/>
<path d="M694 1822 c-7 -4 -13 -16 -15 -26 -6 -31 -35 -43 -57 -23 -29 26 -54
20 -34 -9 24 -34 157 -64 157 -35 0 7 -10 17 -22 22 -14 5 -23 5 -23 -1 0 -6
-4 -10 -10 -10 -5 0 -10 7 -10 15 0 18 41 20 57 4 13 -13 58 -8 58 6 0 6 -15
14 -32 20 -18 5 -36 17 -39 27 -6 19 -13 22 -30 10z"/>
<path d="M336 1767 c-13 -10 -16 -16 -7 -21 15 -10 53 3 48 17 -5 17 -21 18
-41 4z"/>
<path d="M434 1769 c-9 -15 12 -33 30 -26 9 4 16 13 16 22 0 17 -35 21 -46 4z"/>
<path d="M90 1350 c-8 -5 -12 -11 -9 -14 9 -9 508 -13 503 -5 -12 20 -95 29
-279 29 -110 0 -207 -4 -215 -10z"/>
<path d="M790 1325 c10 -12 39 -15 141 -15 71 0 129 4 129 9 0 14 -56 21 -172
21 -97 0 -109 -2 -98 -15z"/>
<path d="M1070 1311 c0 -17 33 -21 211 -28 176 -6 195 -3 167 25 -14 14 -378
17 -378 3z"/>
<path d="M3433 1105 c0 -22 2 -30 4 -17 2 12 2 30 0 40 -3 9 -5 -1 -4 -23z"/>
<path d="M0 1002 c0 -18 8 -21 83 -26 266 -18 383 -27 477 -36 58 -6 164 -15
235 -20 72 -5 191 -14 265 -20 201 -18 274 -20 290 -10 26 16 3 22 -112 31
-62 5 -156 14 -208 20 -52 6 -158 15 -235 20 -77 4 -187 13 -245 19 -58 6
-163 15 -235 20 -72 5 -172 12 -222 16 -89 6 -93 6 -93 -14z"/>
<path d="M1200 790 c-8 -5 -39 -10 -67 -10 -46 0 -53 -3 -53 -20 0 -17 7 -20
49 -20 31 0 55 6 65 15 10 10 24 13 39 9 28 -6 47 13 26 27 -18 11 -40 11 -59
-1z"/>
<path d="M1290 750 c-20 -13 -1 -26 53 -34 23 -4 47 -12 54 -18 18 -14 38 4
30 26 -7 18 -37 22 -37 5 0 -6 -7 -3 -16 5 -8 9 -21 16 -29 16 -7 0 -19 2 -27
5 -7 3 -20 0 -28 -5z"/>
<path d="M1037 433 c-18 -17 -1 -23 68 -23 60 0 75 3 75 15 0 12 -14 15 -68
15 -38 0 -72 -3 -75 -7z"/>
<path d="M630 410 c-8 -6 -32 -15 -52 -20 -24 -7 -38 -17 -38 -27 0 -12 6 -14
28 -7 15 4 69 8 120 7 50 0 92 4 92 8 0 23 -126 55 -150 39z"/>
<path d="M2908 257 c-35 -9 -67 -41 -68 -68 0 -9 -12 -22 -27 -30 -16 -7 -31
-15 -35 -17 -4 -2 -6 9 -5 25 2 25 -1 28 -25 25 -14 -1 -29 2 -33 8 -11 19
-35 10 -35 -12 -1 -22 -1 -22 -15 -4 -11 14 -29 20 -72 21 -67 2 -109 -15
-125 -50 -6 -14 -15 -25 -20 -25 -4 0 -8 -10 -8 -21 0 -19 4 -20 33 -15 17 3
48 1 67 -4 53 -16 107 -3 122 27 9 19 22 27 47 30 28 3 32 1 22 -11 -7 -8 -22
-16 -34 -18 -12 -2 -22 -10 -22 -18 0 -20 40 -25 56 -7 10 10 22 12 43 6 15
-5 48 -6 72 -2 36 5 43 9 39 23 -9 29 4 47 29 43 29 -6 41 10 21 27 -13 11
-20 10 -40 0 -25 -14 -42 -9 -31 8 3 5 26 15 52 22 36 10 53 11 79 2 17 -7 46
-9 64 -6 25 5 31 11 29 28 -3 19 -9 21 -75 21 -40 0 -87 -4 -105 -8z"/>
<path d="M3325 203 c-62 -9 -74 -43 -16 -43 22 0 43 -4 46 -10 7 -12 42 -13
48 -2 3 4 3 19 0 35 -6 28 -11 29 -78 20z"/>
<path d="M2019 143 c-5 -30 -2 -39 16 -50 42 -26 75 -11 75 33 0 17 -40 19
-40 2 0 -7 -5 -5 -11 5 -10 17 -38 24 -40 10z"/>
<path d="M2216 132 c-4 -7 -17 -10 -33 -6 -28 7 -43 -7 -43 -42 0 -24 28 -36
53 -22 21 11 69 -1 64 -16 -2 -6 -25 -15 -50 -20 -64 -11 -59 -26 8 -26 54 0
54 0 64 37 14 50 14 50 -12 57 -13 3 -28 16 -34 28 -6 15 -12 18 -17 10z"/>
<path d="M2400 20 c0 -11 4 -20 9 -20 13 0 32 26 24 33 -13 14 -33 6 -33 -13z"/>
<path d="M2030 15 c0 -12 13 -15 60 -15 47 0 60 3 60 15 0 12 -13 15 -60 15
-47 0 -60 -3 -60 -15z"/>
</g>
</svg>
