<?xml version="1.0" standalone="no"?>
<!DOCTYPE svg PUBLIC "-//W3C//DTD SVG 20010904//EN"
 "http://www.w3.org/TR/2001/REC-SVG-20010904/DTD/svg10.dtd">
<svg version="1.0" xmlns="http://www.w3.org/2000/svg"
 width="344.000000pt" height="256.000000pt" viewBox="0 0 344.000000 256.000000"
 preserveAspectRatio="xMidYMid meet">
<metadata>
Created by potrace 1.16, written by Peter Selinger 2001-2019
</metadata>
<g transform="translate(0.000000,256.000000) scale(0.100000,-0.100000)"
fill="#000000" stroke="none">
<path d="M1019 2081 c-25 -4 -58 -14 -72 -24 -52 -34 -103 -157 -65 -157 10 0
-3 -25 -32 -59 -18 -21 -24 -22 -61 -13 -23 6 -38 7 -33 2 11 -11 95 -40 90
-31 -5 8 22 46 29 40 2 -3 -11 -45 -31 -95 -66 -166 -76 -204 -55 -204 6 0 18
-13 27 -29 29 -48 113 -41 114 10 0 14 33 48 181 185 37 34 37 34 44 6 5 -17
9 -22 12 -12 12 40 14 44 21 35 4 -6 38 -25 75 -44 37 -18 90 -53 117 -78 49
-44 49 -44 29 -64 -23 -23 -49 -19 -49 7 0 9 -8 23 -17 31 -17 14 -17 14 -1 9
10 -3 20 -1 23 4 4 6 -6 10 -20 10 -15 0 -25 -3 -23 -7 2 -5 10 -25 18 -45 8
-21 20 -38 27 -38 7 0 13 -8 13 -17 0 -11 9 -4 25 20 33 47 37 47 72 -8 15
-25 45 -68 66 -95 38 -50 38 -50 2 -93 -36 -43 -36 -43 -118 -36 -140 13 -323
18 -307 10 8 -5 96 -12 195 -15 99 -4 181 -9 183 -11 2 -2 -8 -19 -22 -38 -37
-48 -44 -98 -19 -134 11 -15 28 -57 38 -93 9 -36 28 -86 41 -112 31 -60 31
-78 0 -78 -16 0 -26 -7 -30 -23 -9 -35 -7 -47 8 -47 7 0 20 -7 27 -16 12 -15
11 -16 -10 -9 -16 5 -21 4 -17 -4 4 -6 24 -14 46 -17 34 -6 39 -10 45 -40 6
-37 34 -56 95 -67 56 -11 190 -50 190 -57 0 -3 -12 -11 -27 -17 -16 -7 -44
-21 -63 -33 -69 -40 -446 -10 -612 50 -84 29 -168 23 -168 -12 0 -6 3 -9 6 -5
9 9 164 -51 211 -82 23 -16 71 -38 105 -51 35 -12 88 -35 119 -51 69 -35 69
-35 69 -3 0 25 2 26 43 21 23 -4 103 -9 177 -12 74 -4 254 -13 399 -21 290
-16 534 -19 556 -7 7 4 -43 6 -113 5 -139 -4 -565 17 -962 48 -118 9 -111 10
-113 -19 -2 -26 3 -27 -65 8 -31 16 -83 39 -116 52 -32 12 -83 37 -114 55 -31
19 -61 34 -66 34 -6 1 -29 10 -51 21 -40 20 -40 20 5 16 25 -2 81 -14 125 -26
79 -22 168 -36 295 -48 65 -6 72 -6 100 -2 8 1 38 1 65 0 50 -2 50 -2 10 -21
-22 -11 -56 -20 -75 -20 -19 0 -30 -4 -23 -8 16 -10 104 -2 97 9 -3 5 3 12 13
15 10 3 26 10 35 15 10 5 23 9 28 9 6 0 28 11 48 25 20 14 44 25 54 25 28 0
53 68 35 97 -4 6 -2 15 5 19 6 4 14 2 16 -4 2 -6 24 -26 50 -44 79 -56 123
-63 447 -64 310 -1 320 -2 494 -33 62 -12 124 -21 137 -21 33 0 32 34 -2 57
-14 10 -37 28 -52 41 -27 22 -27 22 3 16 17 -3 66 -23 110 -45 104 -50 139
-57 166 -33 39 35 42 52 15 79 -31 30 -19 33 18 4 15 -12 29 -19 32 -16 12 12
-51 48 -80 45 -27 -3 -31 0 -28 19 4 25 -7 30 -26 11 -9 -9 -12 -8 -12 8 0 11
5 25 12 32 9 9 5 16 -15 32 -31 25 -36 60 -9 60 23 0 23 33 0 75 -31 58 -69
208 -55 217 7 5 19 -1 32 -17 35 -42 145 -26 145 21 0 8 18 38 40 66 23 28 38
53 35 57 -4 3 -11 -2 -16 -12 -6 -9 -16 -14 -22 -11 -7 4 -9 4 -5 0 3 -4 -7
-22 -23 -38 -16 -17 -29 -41 -29 -54 0 -18 -7 -25 -27 -30 -16 -3 -35 -8 -44
-10 -9 -2 -24 5 -34 16 -10 11 -15 20 -10 20 4 0 2 6 -4 14 -37 45 -3 295 53
390 15 26 26 60 26 80 0 20 4 36 9 36 5 0 11 9 14 20 3 11 2 20 -3 20 -16 0
-80 -81 -81 -103 -1 -39 -6 -70 -29 -187 -13 -63 -25 -145 -27 -182 -5 -70
-20 -97 -17 -30 0 20 -4 41 -10 45 -8 6 -7 10 2 14 19 7 14 22 -5 17 -28 -7
-83 53 -119 129 -21 45 -21 46 55 60 70 13 82 27 19 21 -43 -5 -43 -5 -10 10
34 16 45 30 15 19 -12 -4 -8 5 11 25 17 18 25 32 19 32 -6 0 -23 -14 -37 -31
-26 -30 -26 -30 -37 -2 -9 22 -8 48 5 114 9 47 16 111 16 142 0 55 0 55 -64
109 -69 57 -238 148 -275 148 -12 0 -33 -7 -46 -16 -17 -11 -47 -16 -92 -16
-68 -1 -68 -1 -12 -10 49 -9 62 -7 102 11 45 20 48 21 89 4 108 -43 228 -121
228 -148 0 -7 9 -34 21 -60 17 -38 20 -61 16 -114 -8 -104 -30 -241 -39 -241
-4 0 -8 6 -8 14 0 8 -4 17 -9 20 -12 8 -5 -57 9 -86 17 -31 88 -127 117 -157
18 -18 23 -35 23 -72 0 -51 41 -209 70 -271 21 -44 16 -53 -16 -31 -21 14 -24
14 -24 0 0 -8 6 -17 13 -20 6 -2 8 -8 4 -13 -13 -14 -23 12 -47 127 -28 136
-61 191 -209 350 -76 80 -109 109 -122 106 -10 -3 -23 1 -30 9 -22 26 -29 14
-12 -21 12 -25 19 -32 26 -23 5 8 6 -1 2 -24 -3 -21 -1 -39 5 -43 5 -3 10 -17
10 -29 0 -13 7 -40 15 -59 16 -38 20 -70 7 -52 -18 26 -53 49 -46 32 9 -25
-11 -21 -30 6 -13 17 -16 18 -12 4 3 -10 6 -33 6 -50 1 -30 1 -31 15 -13 8 11
15 14 15 8 0 -7 6 -11 12 -10 7 2 14 -7 16 -19 2 -13 0 -23 -5 -23 -5 0 -9 -8
-10 -18 -2 -25 -49 -128 -62 -136 -6 -4 -11 -12 -11 -17 0 -6 4 -7 10 -4 6 4
7 -1 3 -11 -4 -11 -8 -13 -11 -6 -2 8 -8 8 -22 0 -10 -6 -16 -17 -14 -23 3 -7
-3 -18 -12 -26 -16 -13 -16 -12 -5 9 6 12 9 22 7 22 -3 0 6 22 19 49 14 27 25
53 25 59 0 5 6 12 14 15 11 4 13 24 9 89 -6 130 -8 143 -14 148 -7 6 -39 99
-39 112 0 5 5 6 10 3 15 -10 12 2 -6 20 -10 9 -18 33 -19 53 -1 20 -3 40 -4
44 -2 13 -53 0 -74 -20 -32 -29 -155 -88 -218 -105 -116 -30 -210 -21 -402 39
-68 21 -84 23 -123 13 -59 -15 -58 -12 -39 -144 9 -63 13 -120 9 -126 -5 -8
-3 -9 5 -5 9 6 11 -1 6 -26 -4 -18 0 -60 7 -93 14 -61 13 -155 -2 -155 -5 0
-6 10 -3 23 4 18 3 19 -6 7 -8 -12 -11 -6 -11 25 0 44 -13 99 -59 254 -17 57
-28 108 -25 112 2 5 -7 31 -21 60 -15 28 -27 65 -27 83 0 17 -9 48 -19 68 -11
21 -19 41 -19 46 0 5 -15 35 -34 65 -18 31 -39 78 -45 104 -7 26 -17 57 -23
67 -15 29 -22 130 -10 153 7 12 8 37 3 69 -9 49 -9 49 -10 3 0 -26 -6 -70 -11
-99 -13 -69 33 -223 95 -319 13 -20 28 -55 35 -78 6 -23 15 -45 20 -48 6 -4 8
-10 5 -15 -3 -5 -1 -27 4 -49 5 -23 6 -41 4 -41 -11 0 -32 35 -33 53 0 11 -21
40 -47 66 -27 26 -59 67 -73 91 -33 56 -138 147 -231 198 -41 22 -83 49 -94
60 -20 19 -45 10 -45 -16 0 -5 -44 -48 -97 -97 -54 -48 -105 -103 -113 -121
-16 -36 -38 -50 -53 -35 -5 5 -1 17 12 30 29 29 27 40 -3 12 -13 -12 -26 -19
-28 -14 -3 4 -3 2 -1 -5 5 -22 -17 -9 -35 21 -13 21 -14 31 -6 45 6 10 15 33
19 52 4 19 15 49 23 65 9 17 15 34 14 38 -4 15 53 107 67 107 9 0 11 7 7 24
-6 24 10 85 22 87 75 9 106 34 100 80 -4 26 -4 26 111 22 64 -2 168 -9 231
-14 63 -6 194 -15 290 -19 175 -8 175 -8 275 -60 100 -52 100 -52 240 -47 77
3 151 10 165 16 19 7 6 8 -50 3 -206 -18 -301 -1 -412 75 -35 24 -46 25 -195
29 -87 2 -174 6 -193 8 -130 16 -262 26 -337 25 -48 0 -95 1 -103 4 -8 2 -36
1 -61 -2z m24 -30 c5 -22 -18 -61 -36 -60 -9 0 -9 2 1 6 6 2 12 20 12 39 0 37
14 46 23 15z m-75 -34 c-11 -35 -28 -42 -28 -10 0 16 30 57 36 50 2 -2 -2 -19
-8 -40z m-34 -64 c-4 -10 -8 -34 -8 -53 0 -28 -4 -36 -18 -36 -12 0 -14 4 -8
10 6 6 10 22 10 37 0 35 9 59 22 59 6 0 7 -7 2 -17z m2106 -207 c0 -18 -3 -17
-20 9 -26 39 -26 53 0 30 11 -10 20 -28 20 -39z m201 -227 c-9 -22 -10 -22
-10 -3 -1 11 2 24 6 27 12 12 14 0 4 -24z m-606 -182 c30 -100 30 -100 6 -87
-26 14 -31 13 -25 -5 4 -10 0 -16 -12 -17 -11 0 1 -4 26 -7 45 -6 45 -6 58
-76 18 -98 11 -140 -42 -249 -35 -73 -57 -104 -94 -136 -27 -22 -55 -52 -62
-66 -8 -13 -20 -22 -27 -20 -7 3 -13 1 -13 -4 0 -6 36 -10 83 -9 137 0 396
-67 481 -126 61 -42 74 -70 29 -62 -145 27 -213 42 -213 49 0 5 -11 6 -23 3
-18 -5 -28 0 -41 20 -21 31 -33 27 -16 -5 12 -22 11 -22 -32 -15 -52 9 -71 18
-125 63 -27 21 -43 29 -43 21 0 -11 -2 -11 -10 1 -5 8 -12 11 -15 8 -10 -10 4
-28 20 -28 8 0 19 -9 25 -20 6 -11 15 -18 20 -15 10 6 40 -4 40 -14 0 -4 -84
-8 -187 -9 -104 -1 -198 -4 -211 -7 -13 -2 -44 0 -70 6 -26 5 -63 12 -82 15
-39 7 -130 71 -130 91 0 8 7 16 15 19 8 4 15 11 15 16 0 6 -7 7 -16 4 -9 -3
-35 -1 -58 6 -25 7 -34 13 -23 15 9 3 17 9 17 15 0 5 7 8 15 4 8 -3 15 -1 15
4 0 15 -20 12 -68 -10 -45 -20 -45 -21 -55 28 -4 19 2 28 30 44 40 24 40 21 0
164 -15 57 -21 96 -16 106 5 9 3 43 -6 84 -29 137 -33 132 106 126 78 -3 120
-1 116 5 -3 5 -57 11 -119 12 -62 1 -116 5 -120 7 -19 12 -6 42 22 54 35 15
56 12 175 -25 90 -27 311 -50 322 -32 2 4 16 7 31 7 30 0 168 65 222 104 19
14 36 25 37 26 1 0 14 -37 28 -83z m-1040 -39 c-4 -13 -20 -32 -36 -42 -16 -9
-27 -22 -23 -27 3 -5 2 -9 -3 -8 -22 4 -33 -3 -33 -20 0 -25 -16 -36 -24 -15
-3 8 3 25 14 36 11 12 20 25 20 28 0 3 18 16 40 29 22 12 40 29 40 38 0 9 2
14 5 11 4 -3 3 -17 0 -30z m1256 -15 c61 -58 61 -61 0 -61 -54 0 -61 9 -61 76
0 42 3 41 61 -15z m-1156 -109 c14 -49 32 -111 42 -138 54 -162 46 -246 -32
-295 -42 -26 -135 -43 -135 -24 1 16 50 63 65 63 9 0 13 5 9 11 -3 6 -1 21 6
34 15 29 7 55 -20 62 -12 3 -27 18 -36 34 -8 16 -18 29 -23 29 -5 0 -14 14
-20 30 -5 17 -15 30 -20 30 -12 0 -4 -25 16 -55 15 -23 17 -35 3 -35 -5 0 -21
36 -35 81 -14 44 -30 89 -35 99 -11 20 2 68 16 60 4 -3 11 6 15 20 11 40 10 6
-1 -47 -9 -40 -8 -55 5 -83 9 -19 14 -25 11 -12 -2 12 0 20 5 16 5 -3 9 -10 9
-16 0 -17 64 -115 83 -127 17 -11 17 -10 6 11 -7 13 -22 37 -35 53 -59 79 -79
170 -46 212 27 35 106 93 114 85 5 -5 19 -48 33 -98z m1261 -9 c63 -58 110
-144 129 -233 9 -42 21 -98 26 -124 6 -26 10 -66 9 -90 -1 -24 -1 -48 -1 -53
1 -6 37 -28 81 -49 69 -33 80 -42 81 -65 1 -26 1 -26 8 -1 5 18 9 21 15 11 5
-8 1 -23 -11 -39 -26 -34 -43 -32 -153 19 -47 22 -105 42 -130 45 -65 7 -151
28 -306 75 -17 5 -50 9 -74 9 -34 0 -41 3 -32 12 7 7 12 25 12 40 0 15 5 28
10 28 6 0 10 -8 10 -17 0 -9 3 -13 7 -10 3 4 12 2 19 -4 8 -7 14 -7 19 1 3 5
1 10 -4 10 -6 0 -11 5 -11 11 0 6 7 9 15 5 10 -4 15 1 14 17 -1 28 84 247 117
305 24 41 25 44 11 93 -15 50 -15 50 40 47 50 -3 61 -8 99 -43z m-1372 -389
c-3 -8 -12 -17 -20 -20 -12 -4 -12 -2 -4 14 12 23 32 27 24 6z m996 -41 c-13
-14 -27 -25 -31 -25 -5 0 4 13 19 29 15 15 29 26 31 25 3 -2 -6 -15 -19 -29z
m597 -37 c-20 -13 -24 -9 -24 23 0 31 0 31 18 8 13 -17 14 -26 6 -31z m-1335
-29 c29 -15 47 -39 42 -54 -4 -8 -1 -15 5 -15 6 0 11 -9 11 -20 0 -26 -1 -26
-53 10 -25 17 -58 30 -73 30 -27 -1 -27 -2 10 -15 21 -7 43 -18 49 -24 6 -6
-12 -2 -38 8 -27 10 -51 24 -53 30 -5 15 -32 14 -32 -1 0 -8 -5 -6 -10 4 -7
11 -7 25 0 42 9 25 12 26 67 20 32 -4 66 -11 75 -15z m708 11 c0 -5 -9 -10
-19 -10 -11 0 -23 5 -26 10 -4 6 5 10 19 10 14 0 26 -4 26 -10z"/>
<path d="M2580 1290 c0 -8 24 -20 41 -20 6 0 8 4 5 9 -8 12 -46 21 -46 11z"/>
<path d="M2360 1266 c0 -11 -9 -16 -30 -16 -16 0 -30 -5 -30 -11 0 -17 245 -8
262 10 11 11 6 12 -32 6 -53 -8 -42 -8 -110 -5 -55 3 -55 3 5 10 59 7 59 7 13
8 -25 1 -53 5 -62 8 -11 4 -16 1 -16 -10z"/>
<path d="M2080 1260 c-12 -8 -11 -10 7 -10 12 0 25 5 28 10 8 13 -15 13 -35 0z"/>
<path d="M2285 810 c-30 -8 -30 -8 3 -9 17 0 32 4 32 9 0 6 -1 9 -2 9 -2 -1
-16 -5 -33 -9z"/>
<path d="M2425 801 c-13 -5 -1 -8 38 -8 31 0 57 4 57 8 0 11 -68 10 -95 0z"/>
<path d="M2060 709 c0 -5 21 -9 47 -9 25 0 44 2 42 4 -10 8 -89 13 -89 5z"/>
<path d="M2004 644 c-19 -15 -19 -16 1 -9 24 9 26 9 92 2 29 -3 55 -2 58 2 2
5 -19 9 -47 10 -28 0 -59 3 -68 6 -9 3 -25 -2 -36 -11z"/>
<path d="M2245 650 c-4 -6 -10 -8 -15 -5 -4 3 -18 1 -31 -3 -16 -6 -18 -10 -8
-14 19 -7 86 17 72 25 -7 4 -14 3 -18 -3z"/>
<path d="M2332 615 c21 -19 42 -35 48 -35 5 0 -7 16 -29 35 -21 19 -42 35 -47
35 -5 0 8 -16 28 -35z"/>
<path d="M2370 613 c0 -4 58 -33 67 -33 4 0 1 5 -7 10 -28 18 11 11 58 -10 43
-19 60 -10 20 11 -19 10 -138 30 -138 22z"/>
<path d="M2710 614 c0 -9 32 -33 44 -34 5 0 1 9 -9 20 -18 20 -35 26 -35 14z"/>
<path d="M2884 672 c6 -10 37 -15 166 -26 44 -4 50 -3 30 6 -14 5 -52 11 -85
13 -33 1 -73 6 -89 10 -20 5 -27 5 -22 -3z"/>
<path d="M3190 550 c0 -5 9 -10 21 -10 11 0 17 5 14 10 -3 6 -13 10 -21 10 -8
0 -14 -4 -14 -10z"/>
<path d="M1760 659 c0 -9 48 -24 55 -17 2 2 -9 9 -25 15 -17 6 -30 7 -30 2z"/>
<path d="M2714 2055 c-10 -8 -14 -14 -9 -14 6 0 19 6 29 14 11 8 15 15 10 15
-6 0 -19 -7 -30 -15z"/>
<path d="M732 2015 c9 -10 21 -16 28 -13 7 2 -1 10 -16 17 -27 12 -28 11 -12
-4z"/>
<path d="M2638 2013 c12 -2 32 -2 45 0 12 2 2 4 -23 4 -25 0 -35 -2 -22 -4z"/>
<path d="M1896 1913 c7 -21 18 -57 24 -79 10 -42 44 -94 60 -94 5 0 -1 16 -15
35 -13 20 -26 50 -30 68 -8 42 -36 107 -46 107 -4 0 -1 -17 7 -37z"/>
<path d="M2428 1943 c12 -2 30 -2 40 0 9 3 -1 5 -23 4 -22 0 -30 -2 -17 -4z"/>
<path d="M2159 1897 c16 -8 29 -28 39 -62 8 -27 17 -44 20 -36 13 38 -32 111
-70 111 -7 0 -2 -6 11 -13z"/>
<path d="M2660 1902 c0 -4 25 -32 55 -62 63 -63 73 -88 84 -218 6 -76 12 -96
29 -113 12 -11 22 -24 22 -29 0 -6 5 -9 12 -8 7 2 19 -28 31 -73 13 -50 24
-76 33 -76 33 0 -17 130 -66 174 -34 31 -49 79 -50 164 0 74 -25 129 -86 192
-55 57 -64 64 -64 49z"/>
<path d="M780 1888 c-19 -6 -56 -12 -82 -15 -52 -5 -103 -43 -58 -43 13 0 32
7 42 17 16 14 25 15 66 5 38 -9 50 -8 62 4 9 9 10 14 3 14 -7 0 -14 -4 -17 -9
-3 -5 -16 -7 -28 -3 -32 8 2 20 60 21 23 1 42 6 42 11 0 12 -43 11 -90 -2z"/>
<path d="M1096 1875 c8 -37 31 -95 37 -95 7 0 -27 108 -37 117 -4 4 -4 -6 0
-22z"/>
<path d="M3034 1841 c21 -17 44 -31 50 -31 6 1 0 7 -14 15 -25 14 -25 14 5 15
29 0 65 -27 65 -50 0 -6 4 -10 9 -10 16 0 0 39 -23 53 -12 8 -37 18 -56 21
-19 4 -44 10 -55 13 -12 3 -5 -7 19 -26z"/>
<path d="M703 1798 c15 -5 27 -14 27 -19 0 -5 6 -9 13 -9 6 0 25 -7 40 -15 19
-10 27 -11 25 -3 -2 6 -17 16 -34 21 -16 5 -36 16 -45 23 -8 8 -24 14 -35 13
-14 0 -12 -3 9 -11z"/>
<path d="M640 1751 c15 -13 38 -20 60 -20 35 1 35 1 0 8 -19 4 -46 13 -60 20
-25 12 -25 12 0 -8z"/>
<path d="M3107 1739 c4 -20 -2 -52 -19 -97 -64 -171 -67 -218 -6 -89 37 78 53
149 42 191 -9 37 -25 33 -17 -5z"/>
<path d="M2140 1759 c0 -3 9 -43 20 -87 15 -59 18 -87 10 -106 -6 -16 -6 -26
0 -26 29 0 18 138 -15 200 -8 14 -14 22 -15 19z"/>
<path d="M3190 1740 c0 -5 -7 -10 -16 -10 -14 0 -14 -1 0 -16 20 -19 20 -23
-1 -46 -9 -10 -19 -35 -22 -55 -5 -28 -12 -39 -31 -44 -19 -5 -13 -7 23 -8 44
-1 51 2 90 44 24 25 41 48 38 52 -3 4 1 2 10 -5 16 -12 29 -7 29 10 0 5 -4 6
-10 3 -5 -3 -10 -2 -10 4 0 14 18 23 22 11 1 -5 13 -7 26 -3 23 6 23 6 2 20
-20 14 -30 50 -10 38 6 -3 10 -1 10 4 0 14 -13 14 -28 -1 -8 -8 -15 -8 -26 1
-8 7 -25 9 -40 5 -36 -9 -33 -25 4 -17 41 8 40 -14 -2 -64 -18 -21 -40 -50
-49 -64 -26 -38 -34 -15 -11 33 21 43 28 118 11 118 -5 0 -9 -4 -9 -10z"/>
<path d="M1085 1625 c-52 -25 -147 -105 -125 -105 7 0 34 20 61 44 55 49 126
81 161 73 28 -7 97 -57 79 -57 -7 0 1 -16 18 -35 17 -20 31 -40 31 -45 0 -6 5
-10 10 -10 18 0 11 19 -21 55 -19 22 -26 35 -18 36 8 0 4 5 -8 11 -13 6 -23
15 -23 19 0 14 -57 39 -87 39 -15 0 -50 -11 -78 -25z"/>
<path d="M2566 1600 c7 -42 52 -145 60 -137 5 5 -21 77 -52 142 -14 30 -14 30
-8 -5z"/>
<path d="M306 1540 c19 -38 67 -90 82 -89 12 0 10 3 -5 9 -13 5 -23 13 -23 18
0 5 -14 25 -31 43 -17 19 -28 27 -23 19z"/>
<path d="M761 1539 c-1 -9 8 -28 20 -43 20 -26 20 -26 -55 -26 -74 0 -106 13
-106 42 0 6 -3 8 -7 5 -3 -4 -12 -2 -20 5 -11 8 -12 7 -7 -6 3 -9 12 -16 20
-16 17 0 18 -16 2 -22 -30 -11 -98 4 -98 21 0 13 -4 12 -18 -6 -9 -12 -30 -27
-46 -33 -16 -6 -26 -13 -23 -16 3 -3 20 1 38 10 25 12 50 15 113 10 121 -9
926 -10 926 -1 0 4 -17 7 -37 7 -21 0 -56 5 -78 10 -22 5 -42 6 -45 2 -4 -6
-354 -17 -464 -15 -51 1 -80 18 -99 56 -9 18 -16 25 -16 16z"/>
<path d="M2145 1515 c50 -75 60 -119 36 -162 -22 -38 -22 -38 9 -4 36 40 35
36 9 97 -25 57 -56 104 -69 104 -5 0 1 -16 15 -35z"/>
<path d="M1136 1524 c-9 -23 6 -36 21 -19 10 10 9 16 -1 24 -10 9 -15 7 -20
-5z"/>
<path d="M1442 1508 c2 -6 10 -14 16 -16 7 -2 10 2 6 12 -7 18 -28 22 -22 4z"/>
<path d="M260 1503 c1 -27 70 -69 70 -42 0 5 -7 9 -15 9 -8 0 -24 9 -35 20
-11 11 -20 17 -20 13z"/>
<path d="M1891 1478 c5 -18 9 -45 9 -60 0 -16 5 -28 11 -28 11 0 5 72 -8 106
-11 29 -21 13 -12 -18z"/>
<path d="M1672 1470 c0 -19 2 -27 5 -17 2 9 2 25 0 35 -3 9 -5 1 -5 -18z"/>
<path d="M1456 1405 c10 -8 24 -14 29 -14 6 0 1 6 -9 14 -11 8 -24 15 -30 15
-5 0 -1 -7 10 -15z"/>
<path d="M290 1331 c24 -9 248 -15 239 -7 -2 2 -62 6 -134 9 -77 4 -120 3
-105 -2z"/>
<path d="M875 1314 c71 -8 165 -8 165 -1 0 4 -44 6 -97 5 -54 0 -84 -3 -68 -4z"/>
<path d="M1731 1165 c-1 -22 27 -99 37 -103 8 -2 5 13 -6 40 -11 23 -21 50
-25 58 -3 8 -6 11 -6 5z"/>
<path d="M1214 783 c-16 -10 -28 -11 -48 -3 -39 14 -75 4 -69 -21 6 -22 23
-24 73 -8 19 6 51 13 70 16 44 6 45 8 17 20 -16 8 -28 7 -43 -4z"/>
<path d="M1307 776 c-12 -9 -14 -16 -7 -21 5 -3 8 -10 5 -15 -3 -5 6 -12 20
-15 14 -3 36 -7 50 -10 14 -3 25 -2 25 3 0 15 -22 31 -35 25 -8 -2 -24 1 -36
7 -32 18 -1 34 37 20 24 -9 25 -9 14 5 -15 19 -49 19 -73 1z"/>
<path d="M1405 743 c3 -16 11 -32 17 -38 8 -7 9 -2 4 15 -3 14 -6 31 -6 38 0
6 -5 12 -11 12 -7 0 -9 -10 -4 -27z"/>
<path d="M1460 725 c13 -14 25 -25 26 -25 7 0 -10 36 -20 42 -24 17 -28 6 -6
-17z"/>
<path d="M1518 443 c12 -2 32 -2 45 0 12 2 2 4 -23 4 -25 0 -35 -2 -22 -4z"/>
<path d="M3033 443 c15 -2 39 -2 55 0 15 2 2 4 -28 4 -30 0 -43 -2 -27 -4z"/>
<path d="M1755 410 c-18 -8 -17 -9 8 -9 16 -1 26 3 22 9 -3 6 -7 10 -8 9 -1 0
-11 -4 -22 -9z"/>
<path d="M2750 331 c14 -4 120 -11 235 -14 116 -4 220 -10 233 -13 12 -4 22
-2 22 4 0 6 -59 12 -147 16 -82 3 -197 8 -258 11 -61 2 -99 0 -85 -4z"/>
<path d="M2525 184 c-35 -18 -47 -30 -22 -21 11 4 26 -1 39 -13 24 -22 36 -24
58 -10 12 8 10 10 -11 10 -14 0 -34 7 -45 15 -18 14 -18 14 4 15 27 0 87 -24
96 -39 4 -6 1 -9 -7 -5 -8 3 -17 -2 -20 -10 -7 -19 -64 -18 -94 1 -17 11 -26
12 -43 3 -26 -14 -16 -34 14 -26 11 3 48 1 80 -3 52 -7 61 -6 78 11 20 20 20
20 -1 40 -17 15 -80 48 -93 48 -2 0 -16 -7 -33 -16z"/>
<path d="M2820 141 c-20 -6 -22 -8 -8 -13 9 -4 22 -1 28 8 7 8 11 14 9 13 -2
-1 -15 -4 -29 -8z"/>
<path d="M2747 126 c-3 -8 -16 -17 -29 -19 -13 -2 -7 -2 12 0 19 3 43 5 53 6
17 1 17 2 1 14 -23 17 -31 16 -37 -1z"/>
<path d="M2190 80 c-13 -11 -19 -20 -14 -20 14 1 48 29 42 35 -2 3 -15 -4 -28
-15z"/>
<path d="M2085 10 c-8 -13 15 -13 35 0 12 8 11 10 -7 10 -12 0 -25 -4 -28 -10z"/>
<path d="M2170 9 c0 -11 45 -10 80 1 19 6 13 8 -27 8 -29 -1 -53 -5 -53 -9z"/>
</g>
</svg>
