<?xml version="1.0" standalone="no"?>
<!DOCTYPE svg PUBLIC "-//W3C//DTD SVG 20010904//EN"
 "http://www.w3.org/TR/2001/REC-SVG-20010904/DTD/svg10.dtd">
<svg version="1.0" xmlns="http://www.w3.org/2000/svg"
 width="344.000000pt" height="256.000000pt" viewBox="0 0 344.000000 256.000000"
 preserveAspectRatio="xMidYMid meet">
<metadata>
Created by potrace 1.16, written by Peter Selinger 2001-2019
</metadata>
<g transform="translate(0.000000,256.000000) scale(0.100000,-0.100000)"
fill="#000000" stroke="none">
<path d="M1879 1665 c-6 -6 -791 -14 -1401 -15 -465 0 -478 -1 -478 -19 0 -19
14 -19 699 -14 l700 6 -6 -21 c-4 -15 -16 -23 -42 -27 -50 -8 -103 -33 -119
-56 -7 -10 -22 -19 -33 -19 -24 0 -56 -50 -65 -104 -11 -71 -18 -77 -77 -70
-53 6 -70 1 -177 -55 -71 -37 -77 -36 -98 11 -24 56 -34 106 -22 113 22 13 -4
25 -54 25 -34 0 -58 -5 -65 -14 -9 -11 -9 -15 1 -19 7 -2 -7 -7 -32 -12 -25
-4 -52 -11 -60 -15 -16 -9 -16 -9 34 -24 12 -4 13 -12 4 -43 -19 -72 -22 -73
-204 -73 -152 0 -191 -6 -169 -28 4 -4 79 -8 166 -10 136 -3 164 -1 185 13 25
16 25 16 21 -13 -8 -49 -25 -69 -80 -99 -45 -24 -52 -32 -55 -62 -2 -19 2 -45
9 -58 14 -27 47 -31 56 -6 6 14 37 46 106 106 33 29 37 22 7 -13 -13 -15 -20
-37 -20 -67 l0 -43 -40 0 c-28 0 -40 -4 -40 -14 0 -20 23 -26 126 -33 l92 -6
7 32 c4 18 5 67 3 108 -2 64 0 78 15 87 27 17 66 -10 103 -74 40 -66 42 -99 9
-138 -26 -31 -33 -70 -15 -88 6 -6 12 -20 15 -32 2 -13 14 -35 25 -50 20 -24
20 -27 5 -30 -9 -2 -45 1 -79 7 -35 6 -96 11 -137 11 -65 1 -71 2 -51 13 35
20 16 27 -74 27 -70 0 -85 -3 -96 -19 -7 -10 -27 -21 -45 -25 -27 -6 -33 -4
-44 16 -7 13 -17 27 -23 31 -15 10 -155 -2 -177 -16 -13 -8 -24 -8 -42 2 -18
10 -30 10 -45 2 -11 -6 -39 -11 -61 -11 -35 0 -41 -3 -41 -20 0 -18 5 -20 35
-15 19 3 51 7 70 10 21 4 35 2 35 -5 0 -12 35 -13 58 -1 9 5 42 12 74 15 55 7
57 6 70 -21 15 -31 -2 -30 203 -18 108 6 213 -1 369 -26 78 -12 79 -12 99 12
17 22 26 24 96 22 42 -1 99 -8 126 -17 28 -9 76 -16 107 -16 47 0 59 4 68 20
9 17 21 20 70 20 44 0 60 4 60 14 0 7 9 16 20 19 25 6 27 37 2 37 -10 0 -26
-6 -37 -14 -11 -7 -54 -16 -95 -20 -72 -7 -76 -6 -99 18 -14 14 -29 26 -34 26
-5 0 -40 19 -78 43 -58 36 -72 50 -97 102 -16 33 -39 69 -51 79 -13 12 -21 31
-21 52 0 41 14 51 28 19 17 -37 64 -55 170 -67 102 -11 142 -27 142 -56 0 -23
60 -102 77 -102 19 0 107 49 116 66 13 23 -2 53 -29 60 -34 9 -25 28 14 32 20
2 32 9 32 18 0 19 23 18 48 -3 19 -16 20 -24 13 -82 -6 -51 -4 -70 9 -97 10
-18 15 -44 13 -58 -6 -30 3 -33 127 -40 52 -2 98 -11 118 -21 26 -13 47 -16
95 -11 57 6 258 -13 298 -29 9 -3 21 1 28 9 16 19 92 9 109 -16 17 -23 50 -23
75 0 16 14 36 17 111 15 50 -1 120 -4 156 -8 67 -6 98 3 85 25 -5 9 -24 11
-60 7 -37 -4 -61 -1 -81 10 -28 15 -39 15 -236 0 -20 -1 -34 7 -57 37 -17 21
-31 45 -31 52 0 7 -8 18 -17 23 -16 9 -16 10 4 11 24 0 53 34 53 63 0 10 9 31
21 46 16 21 19 33 11 47 -11 22 -10 80 2 107 12 26 27 21 20 -7 -3 -13 -1 -27
5 -30 6 -4 11 -19 11 -33 0 -14 17 -46 40 -75 22 -28 40 -56 40 -63 0 -16 78
-75 99 -75 9 -1 32 -14 51 -30 24 -21 45 -30 70 -30 19 0 51 -5 71 -10 23 -6
77 -7 143 -2 58 4 110 5 114 1 4 -4 63 -10 130 -13 116 -7 124 -6 120 11 -4
22 -89 36 -185 31 l-61 -4 5 33 c6 38 -40 195 -63 214 -12 10 -21 9 -44 -4
-16 -10 -49 -20 -74 -23 -41 -6 -44 -5 -40 14 8 28 -13 37 -37 16 -23 -20 -21
-22 -44 39 -10 26 -25 52 -33 56 -16 9 -18 35 -11 124 4 50 9 56 30 31 7 -8
21 -13 31 -11 13 4 18 0 18 -16 0 -17 -2 -19 -9 -8 -12 19 -41 6 -41 -17 0
-18 47 -48 58 -38 2 3 17 -4 33 -14 34 -25 46 -11 19 23 -41 51 -28 77 77 164
51 42 81 40 58 -4 -8 -15 -15 -31 -15 -35 0 -4 -18 -36 -40 -70 -22 -35 -40
-69 -40 -76 0 -7 -6 -22 -12 -35 -7 -12 -14 -23 -14 -25 -1 -2 -16 11 -33 28
-38 38 -84 39 -89 3 -2 -15 2 -23 12 -23 8 0 39 -25 70 -56 30 -31 60 -53 65
-49 6 3 11 26 11 51 0 46 45 159 73 182 16 14 71 6 86 -12 7 -8 -4 -10 -41 -7
-44 3 -49 1 -46 -15 3 -18 16 -19 172 -19 123 0 170 3 173 12 3 8 -16 13 -64
15 -57 3 -68 6 -65 20 1 9 -6 22 -16 30 -23 15 -62 77 -62 97 0 8 8 20 18 27
15 12 15 15 2 24 -8 6 -23 8 -33 6 -10 -2 -30 7 -46 20 -16 13 -41 24 -57 24
-33 0 -109 -42 -146 -81 -30 -33 -62 -41 -33 -9 15 17 16 22 4 36 -8 10 -14
30 -14 46 0 26 3 28 38 28 20 0 37 4 37 9 0 5 8 8 17 7 30 -2 25 28 -12 68
-35 38 -36 39 -92 33 -31 -3 -59 -11 -63 -17 -8 -13 -122 -17 -162 -6 -22 7
-27 4 -33 -16 -3 -12 -18 -49 -33 -80 l-26 -58 -61 -2 c-33 -1 -202 0 -375 1
-356 2 -329 -3 -419 89 l-54 55 -59 -6 c-51 -5 -62 -2 -85 18 l-27 22 75 7
c41 4 461 7 934 7 473 1 868 3 878 6 9 2 17 11 17 19 0 12 -107 14 -763 14
-420 0 -766 -2 -768 -5z m-409 -74 c28 -28 29 -29 9 -34 -38 -10 -77 32 -52
56 10 10 12 9 43 -22z m1498 -29 c6 -9 12 -18 12 -21 0 -10 -65 -5 -85 6 -16
9 -17 14 -6 27 16 19 59 12 79 -12z m-1559 -21 c12 -8 13 -16 2 -51 -11 -37
-10 -44 5 -61 11 -12 30 -19 52 -19 33 0 38 -10 9 -17 -7 -1 -24 -5 -39 -9
-44 -10 -80 4 -120 48 -40 44 -69 46 -64 6 3 -33 14 -48 35 -48 10 0 25 -7 32
-16 7 -9 23 -20 36 -25 13 -5 23 -15 23 -24 0 -18 -2 -19 -45 -1 -19 8 -56 18
-82 21 -79 11 -83 13 -83 48 0 38 9 53 42 75 14 9 43 29 65 44 35 23 53 29
108 36 6 1 16 -2 24 -7z m1453 -16 c17 -14 23 -25 15 -25 -20 0 -77 30 -77 41
0 17 32 9 62 -16z m-1298 -4 c10 -16 -63 -71 -93 -71 -24 0 -28 4 -28 30 0 24
5 30 21 30 12 0 28 5 36 10 19 12 57 13 64 1z m1119 -29 c3 -15 19 -45 36 -66
17 -21 31 -44 31 -51 0 -7 7 -18 15 -25 17 -14 20 -50 5 -50 -5 0 -10 4 -10 9
0 5 -9 12 -20 16 -21 7 -110 118 -110 138 0 16 28 57 39 57 5 0 11 -12 14 -28z
m-963 -2 c6 -11 9 -20 7 -20 -2 0 -12 9 -22 20 -10 11 -13 20 -7 20 6 0 16 -9
22 -20z m1044 -7 c-10 -39 -13 -41 -35 -14 -26 32 -24 41 11 41 28 0 30 -2 24
-27z m-1084 -13 c0 -5 -6 -10 -14 -10 -17 0 -56 -51 -56 -73 0 -9 5 -17 10
-19 13 -4 -34 -104 -51 -110 -6 -2 -14 -21 -18 -43 -6 -40 -31 -62 -31 -27 0
11 -7 22 -15 26 -8 3 -15 12 -15 19 0 8 -10 19 -22 25 -20 9 -21 11 -4 11 10
1 24 -6 30 -14 10 -12 14 -12 36 5 24 18 24 20 6 33 -15 11 -17 17 -7 35 10
18 9 22 -4 22 -26 0 -16 14 30 42 25 15 50 39 55 52 8 22 24 32 58 35 6 0 12
-3 12 -9z m133 -60 c30 -19 47 -37 47 -49 0 -28 -18 -36 -40 -16 -10 9 -40 23
-67 31 -29 8 -35 12 -15 9 26 -4 32 -1 32 13 0 10 -5 23 -12 30 -22 22 7 12
55 -18z m847 -61 c7 -16 19 -29 26 -29 8 0 14 -4 14 -10 0 -13 -14 -13 -63 2
-34 10 -41 10 -52 -5 -9 -12 -21 -15 -42 -11 -22 4 -59 -5 -134 -34 -94 -36
-118 -41 -250 -51 -138 -10 -147 -10 -185 10 -35 18 -51 19 -164 14 -150 -7
-180 -12 -180 -31 0 -12 24 -13 150 -7 148 6 150 6 187 -19 21 -14 53 -32 71
-39 22 -10 36 -24 43 -46 13 -41 36 -43 79 -7 36 31 52 26 20 -6 -11 -11 -18
-25 -15 -30 13 -20 41 -8 63 26 13 20 26 33 30 30 3 -4 -4 -20 -16 -36 -26
-35 -27 -40 -7 -40 9 0 30 23 47 51 l32 51 45 -92 c43 -86 44 -93 32 -123 -22
-52 -25 -96 -8 -115 8 -9 19 -26 25 -38 11 -20 9 -21 -69 -20 -48 1 -83 6 -87
12 -6 11 -218 23 -475 28 -42 1 -58 5 -61 16 -14 51 -19 94 -17 161 1 62 -1
78 -16 90 -33 26 -62 39 -89 39 -22 0 -24 2 -14 15 6 8 14 41 17 74 4 36 16
77 32 107 l26 49 61 -1 c46 -1 69 -6 92 -22 16 -12 35 -22 40 -22 19 0 52 52
52 82 l0 28 334 -1 c211 0 341 3 353 9 22 13 55 -14 73 -59z m495 61 c3 -5 1
-10 -4 -10 -6 0 -11 5 -11 10 0 6 2 10 4 10 3 0 8 -4 11 -10z m-285 -19 c0 -3
-12 -11 -26 -18 -20 -9 -30 -9 -45 0 -28 18 -24 22 26 23 25 1 45 -1 45 -5z
m-2187 -58 c-15 -23 -18 -24 -21 -9 -2 10 2 22 10 27 24 16 29 9 11 -18z m807
2 c0 -16 -35 -21 -44 -6 -8 12 4 21 26 21 10 0 18 -7 18 -15z m1400 -5 c0 -5
-4 -10 -9 -10 -6 0 -13 5 -16 10 -3 6 1 10 9 10 9 0 16 -4 16 -10z m-2145 -50
c16 -31 20 -60 8 -60 -11 0 -33 50 -33 72 0 26 7 22 25 -12z m520 20 c16 -7
14 -9 -15 -9 -19 0 -42 4 -50 9 -11 7 -8 10 15 9 17 0 39 -4 50 -9z m-593 -17
c10 -9 18 -24 18 -33 0 -9 5 -21 10 -26 8 -8 6 -15 -5 -24 -13 -11 -15 -9 -15
11 0 13 -5 31 -10 39 -9 13 -12 13 -24 -2 -20 -27 -36 -22 -36 10 0 46 27 57
62 25z m398 -3 c0 -5 -4 -10 -10 -10 -5 0 -10 -9 -10 -19 0 -11 -5 -23 -11
-27 -12 -7 -3 -72 13 -92 6 -7 9 -15 6 -17 -3 -3 -24 15 -47 40 -44 48 -44 48
-2 102 25 31 61 45 61 23z m2174 -17 c29 -38 -12 -30 -42 9 -12 15 -11 17 5
15 11 0 27 -11 37 -24z m-2068 -20 c-1 -30 4 -40 22 -48 26 -12 30 -39 5 -31
-10 2 -37 8 -61 11 -37 6 -41 9 -27 19 9 7 16 19 14 27 -5 25 12 59 30 59 15
0 18 -8 17 -37z m172 16 c1 -8 -4 -23 -11 -34 -14 -18 -16 -18 -31 -2 -16 15
-15 18 1 36 20 22 37 22 41 0z m74 -16 c13 17 15 15 27 -18 7 -20 11 -38 9
-40 -6 -6 -88 66 -88 77 0 6 9 0 19 -13 19 -23 20 -23 33 -6z m1121 13 c23 -5
27 -12 27 -39 0 -25 -6 -36 -29 -50 -37 -22 -39 -22 -38 6 0 12 -3 39 -7 60
-7 29 -5 36 5 33 8 -2 26 -7 42 -10z m83 -48 l-1 -52 38 -9 c20 -5 37 -14 37
-19 0 -6 -7 -7 -16 -4 -9 3 -38 6 -65 6 -27 0 -49 5 -49 10 0 6 7 10 15 10 12
0 15 13 15 55 0 40 4 55 14 55 10 0 13 -14 12 -52z m-1380 5 c-11 -11 -17 4
-9 23 7 18 8 18 11 1 2 -10 1 -21 -2 -24z m-362 -10 c-4 -16 -14 -35 -24 -44
-15 -15 -18 -15 -40 1 l-23 18 39 25 c50 33 56 33 48 0z m1843 5 c-3 -8 -6 -5
-6 6 -1 11 2 17 5 13 3 -3 4 -12 1 -19z m-327 -3 c0 -11 -34 -75 -41 -75 -7 0
-43 50 -37 54 6 4 63 24 71 25 4 1 7 -1 7 -4z m-1030 -25 c0 -5 -4 -10 -10
-10 -5 0 -10 5 -10 10 0 6 5 10 10 10 6 0 10 -4 10 -10z m134 -42 c6 -4 5 -13
-4 -24 -14 -15 -15 -15 -21 7 -4 13 -7 33 -8 44 l0 20 11 -20 c6 -11 16 -23
22 -27z m-219 -20 c9 -29 19 -59 21 -65 4 -8 -2 -13 -13 -13 -14 0 -21 12 -31
53 -14 63 -15 77 -3 77 5 0 17 -24 26 -52z m-50 -36 c19 -43 19 -42 -5 -42
-27 0 -70 21 -70 35 0 6 -9 21 -20 33 -11 12 -20 23 -20 25 0 2 23 0 50 -6 45
-9 53 -14 65 -45z m1532 14 c14 -41 9 -66 -10 -47 -6 6 -12 16 -14 23 -15 68
-16 71 -3 66 7 -2 19 -21 27 -42z m-2097 4 c0 -5 -5 -10 -11 -10 -5 0 -7 5 -4
10 3 6 8 10 11 10 2 0 4 -4 4 -10z m61 3 c7 -63 8 -143 3 -163 -6 -21 -9 -15
-20 35 -15 67 -17 118 -7 128 9 9 23 9 24 0z m1948 -30 c8 -15 11 -15 27 -3
16 14 17 13 12 -7 -4 -13 -2 -26 3 -29 24 -15 3 -19 -45 -10 -64 13 -70 18
-61 45 8 26 50 28 64 4z m-1188 -53 c29 -26 31 -30 14 -36 -11 -5 -22 -1 -30
9 -7 10 -24 17 -39 17 -30 0 -33 8 -8 26 24 19 27 18 63 -16z m-805 3 c-3 -10
-10 -37 -16 -60 -6 -24 -15 -43 -20 -43 -14 0 -12 94 2 108 18 18 40 15 34 -5z
m2094 -49 c52 -1 130 -6 172 -10 l76 -7 -15 -32 c-12 -26 -27 -37 -69 -51 -30
-10 -54 -24 -54 -31 0 -16 13 -16 65 -2 54 15 129 91 119 122 -7 22 -6 22 15
3 25 -22 41 -74 41 -133 l0 -43 -82 -2 c-108 -2 -103 -2 -178 11 -36 6 -76 20
-90 31 -14 11 -44 29 -66 40 -33 16 -42 26 -47 52 -3 18 -9 42 -13 52 -6 17
-5 18 12 11 10 -5 62 -10 114 -11z m-1730 -46 c5 -13 11 -35 14 -49 4 -19 17
-30 48 -43 24 -9 70 -34 103 -56 33 -22 65 -40 72 -40 6 0 11 -9 10 -20 -1
-13 -7 -18 -17 -16 -56 17 -158 27 -234 24 l-89 -3 -26 46 -26 47 30 28 c17
16 41 46 55 66 29 43 46 48 60 16z m463 16 c36 -6 53 -24 22 -24 -8 0 -15 -4
-15 -9 0 -20 -45 -20 -67 1 -40 38 -25 46 60 32z"/>
<path d="M13 1583 c-9 -3 -13 -32 -13 -95 0 -73 3 -89 14 -85 8 3 22 -1 33 -8
17 -13 17 -14 -2 -29 -11 -8 -26 -16 -32 -16 -8 0 -13 -14 -13 -36 0 -27 7
-41 27 -58 15 -11 31 -20 35 -19 5 2 8 -2 8 -7 0 -5 -7 -10 -15 -10 -8 0 -15
-9 -15 -20 0 -29 -17 -25 -28 8 -8 20 -11 -8 -11 -115 -1 -141 -1 -143 24
-159 14 -9 25 -20 25 -24 0 -4 -11 -11 -25 -14 -17 -4 -25 -13 -25 -27 0 -19
4 -20 43 -14 55 9 57 11 57 47 0 23 -11 40 -46 73 -37 33 -45 46 -37 59 8 15
11 14 21 -9 10 -21 18 -25 56 -25 25 0 48 4 51 10 9 14 38 12 59 -3 17 -12 17
-15 1 -52 -9 -22 -29 -60 -45 -86 -34 -51 -36 -59 -17 -59 19 0 70 67 90 118
27 67 23 98 -15 116 -17 9 -40 16 -50 16 -18 0 -19 5 -13 53 8 53 52 154 78
175 18 15 54 3 81 -27 23 -25 78 -28 97 -5 10 12 10 25 2 55 -12 45 -10 49 30
49 26 0 28 2 16 17 -20 23 -72 43 -114 43 -28 0 -37 5 -44 23 -14 37 -39 53
-62 39 -10 -7 -27 -12 -38 -12 -11 0 -32 -11 -48 -24 -30 -24 -73 -50 -77 -44
-1 2 -8 11 -15 20 -11 15 -8 23 23 60 20 23 36 46 36 52 0 6 -12 21 -27 33
-25 22 -53 27 -80 16z m185 -219 c-9 -20 -9 -27 0 -33 10 -6 5 -22 -19 -63
-28 -50 -34 -55 -51 -45 -10 7 -18 20 -18 30 0 15 -3 16 -21 6 -34 -17 -21 5
41 72 60 64 88 78 68 33z m186 7 c3 -5 0 -11 -8 -14 -7 -3 -16 -24 -20 -46 -3
-23 -10 -41 -15 -41 -14 0 -23 32 -11 44 5 5 10 20 10 31 0 12 3 25 7 28 9 10
31 9 37 -2z m-350 -76 c-4 -8 -8 -15 -10 -15 -2 0 -4 7 -4 15 0 8 4 15 10 15
5 0 7 -7 4 -15z m71 -135 c3 -5 2 -10 -4 -10 -5 0 -13 5 -16 10 -3 6 -2 10 4
10 5 0 13 -4 16 -10z m-32 -43 c3 -8 1 -20 -4 -28 -6 -10 -9 -7 -9 14 0 29 5
35 13 14z"/>
<path d="M1010 1444 c0 -12 10 -14 47 -12 66 4 70 28 4 28 -39 0 -51 -4 -51
-16z"/>
<path d="M1552 683 c4 -19 58 -37 72 -23 15 15 -13 40 -46 40 -22 0 -29 -4
-26 -17z"/>
<path d="M996 465 c-5 -13 18 -15 166 -15 150 0 169 2 158 15 -18 22 -315 22
-324 0z"/>
<path d="M2710 445 c0 -20 77 -27 295 -23 161 3 190 5 190 18 0 13 -35 15
-242 17 -203 2 -243 0 -243 -12z"/>
</g>
</svg>
