<?xml version="1.0" standalone="no"?>
<!DOCTYPE svg PUBLIC "-//W3C//DTD SVG 20010904//EN"
 "http://www.w3.org/TR/2001/REC-SVG-20010904/DTD/svg10.dtd">
<svg version="1.0" xmlns="http://www.w3.org/2000/svg"
 width="344.000000pt" height="256.000000pt" viewBox="0 0 344.000000 256.000000"
 preserveAspectRatio="xMidYMid meet">
<metadata>
Created by potrace 1.16, written by Peter Selinger 2001-2019
</metadata>
<g transform="translate(0.000000,256.000000) scale(0.100000,-0.100000)"
fill="#000000" stroke="none">
<path d="M2495 1650 c-100 -4 -78 -6 131 -10 214 -4 255 -7 270 -21 11 -9 29
-20 42 -24 23 -7 72 -53 72 -69 0 -4 -13 -6 -30 -4 -16 3 -30 0 -30 -5 0 -5
-9 1 -20 14 -23 29 -27 13 -4 -19 12 -18 19 -20 30 -12 8 7 69 14 146 17 161
6 181 13 35 13 -106 0 -106 0 -134 34 -15 18 -45 41 -66 51 -51 24 -45 26 79
27 60 0 118 5 129 9 21 9 -436 8 -650 -1z"/>
<path d="M1150 1639 c-43 -4 -11 -6 98 -7 162 -2 162 -2 160 -31 -2 -26 -6
-30 -45 -36 -23 -3 -66 -22 -94 -41 -28 -19 -54 -34 -58 -34 -14 0 -48 -45
-59 -77 -10 -30 -8 -34 21 -59 32 -27 32 -27 0 -22 -22 3 -34 0 -38 -9 -2 -8
-9 -12 -14 -8 -36 22 -131 6 -197 -32 -121 -70 -134 -75 -134 -52 0 22 -29 83
-36 77 -2 -3 3 -18 11 -35 14 -28 12 -63 -4 -63 -16 0 -41 62 -39 95 3 46 -32
86 -56 65 -9 -7 -16 -17 -16 -23 0 -7 4 -7 12 1 7 7 18 12 25 12 16 0 17 -32
2 -47 -14 -14 19 -92 39 -93 18 0 15 -17 -5 -23 -10 -2 -27 -8 -37 -13 -18 -7
-19 -3 -13 42 5 48 5 48 -10 21 -17 -33 -35 -31 -44 4 -8 34 7 61 32 54 14 -5
17 -3 13 9 -16 43 -73 -11 -59 -55 4 -12 1 -19 -7 -19 -8 0 -6 -4 5 -11 36
-21 11 -24 -195 -21 -117 1 -209 0 -206 -3 3 -4 94 -6 202 -5 196 1 196 1 196
-29 0 -17 -6 -31 -16 -35 -8 -3 -13 -10 -9 -15 3 -6 -5 -15 -17 -22 -33 -18
-109 -81 -104 -87 3 -2 19 6 36 18 16 12 36 20 43 17 6 -2 -5 -15 -25 -28 -47
-30 -40 -79 12 -79 13 0 13 1 0 10 -13 9 -11 13 10 31 46 37 130 122 130 131
0 4 4 8 9 8 18 0 -4 -54 -36 -86 -18 -19 -28 -34 -21 -34 7 0 19 9 26 20 17
28 60 27 64 -2 2 -13 4 3 4 34 0 68 9 81 35 49 18 -22 19 -22 19 -3 0 45 42
49 72 7 4 -5 10 -8 14 -5 4 3 18 -15 31 -39 13 -25 30 -52 38 -61 20 -23 19
-56 -4 -77 -54 -53 -55 -64 -11 -141 22 -39 40 -73 40 -74 0 -2 -80 -5 -178
-6 -97 -2 -217 -8 -267 -12 -66 -6 -36 -7 108 -4 108 3 205 1 215 -4 9 -5 37
-12 62 -14 45 -6 45 -6 15 9 -30 14 -30 14 10 8 22 -4 42 -11 43 -16 6 -16 47
-9 129 22 11 4 50 4 85 -1 153 -21 223 -21 238 0 12 17 23 19 94 15 71 -4 76
-3 41 6 -22 6 -77 9 -123 6 -76 -4 -83 -3 -94 16 -8 16 -8 22 1 25 6 2 -28 27
-76 56 -70 43 -92 62 -111 97 -12 24 -33 55 -46 69 -26 27 -50 71 -60 110 -7
25 -7 25 13 0 12 -15 21 -19 21 -11 0 7 -15 28 -34 45 -60 57 -70 97 -36 134
41 44 111 18 82 -29 -20 -31 26 -71 89 -77 48 -4 53 -8 81 -51 24 -38 26 -47
13 -49 -13 -3 -14 -7 -4 -18 32 -39 -32 -9 -86 40 -33 30 -61 53 -64 51 -7 -8
32 -46 61 -61 16 -8 28 -19 28 -25 0 -5 -13 -3 -29 5 -31 17 -81 71 -81 89 0
15 -41 99 -46 94 -3 -2 10 -37 27 -78 46 -109 71 -125 216 -140 74 -8 182 -39
136 -39 -26 0 -12 -44 24 -75 35 -30 38 -31 72 -19 20 7 43 13 52 14 15 0 29
19 29 39 0 16 -43 52 -57 47 -8 -3 -26 2 -40 11 -15 10 -37 16 -50 15 -30 -4
-31 27 -3 53 12 10 18 25 15 33 -4 12 -3 13 10 2 8 -7 13 -16 10 -20 -3 -5 5
-21 18 -36 22 -26 28 -27 95 -25 85 3 102 -16 81 -91 -7 -27 -7 -44 -1 -50 6
-6 8 -17 5 -24 -3 -8 -1 -14 5 -14 6 0 19 -3 29 -7 17 -6 17 -6 0 14 -9 11
-14 23 -10 26 11 12 10 157 -1 173 -6 7 -42 25 -81 38 -38 14 -62 25 -53 25
20 1 39 59 31 92 -6 20 -3 22 27 16 18 -4 106 -7 196 -7 133 0 164 -3 164 -14
0 -8 12 -17 27 -21 15 -3 35 -13 43 -21 8 -8 28 -24 43 -35 22 -17 25 -24 16
-35 -9 -11 -8 -14 4 -14 8 0 21 7 28 16 7 9 24 20 37 25 15 6 22 15 19 24 -6
14 27 8 35 -6 3 -7 -46 -49 -77 -67 -17 -10 -17 -11 -3 -12 9 0 20 5 23 10 3
6 11 10 17 10 7 0 6 -6 -2 -15 -7 -8 -8 -15 -2 -15 5 0 15 7 22 15 9 11 9 15
1 15 -7 0 -9 5 -6 11 4 6 9 8 11 6 7 -7 62 51 67 71 3 12 5 10 6 -7 0 -13 -13
-43 -29 -68 -17 -25 -25 -43 -18 -41 7 3 27 28 44 57 35 58 40 56 70 -19 10
-25 29 -62 42 -83 27 -40 24 -58 -20 -119 -10 -14 -6 -26 25 -72 44 -67 46
-77 10 -67 -16 4 -48 6 -73 4 -25 -2 -106 -7 -180 -11 -135 -7 -135 -7 29 -19
91 -7 169 -9 175 -5 17 10 89 2 113 -14 29 -18 54 -18 47 0 -6 17 128 20 276
7 56 -5 99 -5 104 0 6 5 -22 10 -70 11 -75 1 -76 2 -24 7 95 10 23 19 -121 14
-74 -2 -140 -6 -147 -8 -33 -12 -80 26 -114 93 -17 34 -17 34 23 71 21 21 39
44 39 51 0 10 -3 11 -11 3 -9 -9 -18 -4 -35 17 -33 38 -30 46 6 20 29 -20 60
-21 60 -2 0 4 -11 31 -25 59 -13 28 -26 62 -27 76 -2 14 -10 32 -17 40 -7 9
-10 21 -6 28 6 8 10 7 17 -2 7 -11 8 -9 4 4 -3 10 -6 26 -6 35 -1 13 -4 11
-13 -6 -7 -12 -16 -20 -19 -17 -3 3 -8 -1 -12 -10 -3 -9 -2 -14 3 -11 9 6 30
-55 36 -106 2 -17 13 -40 24 -52 32 -34 26 -51 -7 -27 -16 11 -43 46 -60 78
-17 32 -32 52 -32 45 0 -7 12 -34 26 -58 15 -25 24 -47 21 -50 -7 -7 -24 24
-59 106 -26 59 -37 113 -21 97 3 -4 30 7 58 23 64 36 63 36 68 3 4 -24 4 -23
3 3 -3 55 42 70 87 29 27 -26 36 -55 17 -55 -5 0 -10 -6 -10 -14 0 -7 -6 -19
-14 -26 -8 -6 -16 -21 -18 -33 -3 -17 -7 -12 -20 23 -9 25 -17 38 -17 30 -1
-27 19 -89 36 -105 10 -11 13 -25 9 -45 -4 -21 -2 -28 7 -24 8 3 29 -21 51
-55 25 -37 59 -74 93 -97 72 -50 77 -39 5 14 -54 39 -114 123 -99 139 4 3 15
-14 26 -39 12 -28 27 -47 40 -51 25 -6 25 -7 4 38 -20 41 -14 51 24 38 15 -6
76 -9 136 -8 59 1 110 -2 113 -6 3 -5 27 -9 55 -9 42 0 49 -3 49 -20 0 -11 -4
-20 -10 -20 -5 0 -9 -10 -7 -22 2 -20 -2 -23 -25 -20 -16 2 -28 -2 -28 -9 0
-6 7 -8 16 -5 8 3 12 2 9 -4 -10 -16 -36 -12 -52 8 -14 16 -14 16 -9 0 4 -13
0 -18 -14 -18 -10 0 -22 -5 -26 -11 -4 -8 10 -9 47 -6 67 6 149 80 129 117
-12 23 -13 22 16 25 14 1 21 -3 20 -14 0 -9 4 -15 9 -14 6 1 11 -6 12 -15 3
-44 11 -74 21 -84 7 -7 12 -17 12 -23 0 -5 -4 -3 -10 5 -7 12 -10 11 -16 -5
-5 -11 -3 -20 4 -23 20 -6 0 -32 -27 -33 -18 -1 -14 -4 14 -8 40 -7 89 0 53 7
-13 3 -15 8 -8 26 14 38 -19 156 -55 196 -24 26 -52 26 -60 -1 -7 -20 -12 -21
-61 -15 -79 9 -100 22 -123 77 -12 26 -21 52 -21 58 0 6 -5 10 -11 9 -13 -3
-31 50 -24 70 3 7 10 10 16 6 8 -5 9 -3 4 6 -9 14 -9 79 0 88 7 7 34 -29 35
-47 0 -8 -6 -11 -17 -7 -15 6 -15 5 1 -13 9 -10 26 -21 36 -24 18 -5 19 -3 4
25 -12 23 -13 33 -3 44 10 12 16 6 35 -36 13 -27 27 -50 31 -50 21 0 53 -67
47 -99 -7 -32 -7 -32 -28 -11 -12 11 -26 20 -30 20 -4 0 -20 10 -36 22 -16 12
-32 19 -36 16 -3 -4 16 -19 43 -34 26 -16 53 -36 60 -45 13 -18 53 -32 53 -19
0 5 -5 10 -11 12 -28 9 49 228 80 228 37 0 89 -22 112 -47 18 -19 19 -25 7
-20 -10 3 -20 2 -22 -2 -3 -4 25 -8 62 -9 54 -1 64 1 52 11 -9 7 -14 20 -12
30 2 11 -7 31 -21 45 -14 15 -41 52 -61 84 -44 69 -79 98 -120 98 -24 0 -27
-3 -16 -10 12 -8 11 -10 -6 -10 -20 0 -98 -29 -81 -30 5 0 -7 -17 -27 -37 -32
-34 -37 -36 -58 -25 -38 21 -54 68 -33 93 15 15 16 23 7 41 -10 22 -11 21 -11
-10 -1 -21 -5 -31 -12 -27 -5 4 -8 12 -6 18 2 6 -10 25 -27 41 -30 30 -30 30
-41 -12 -15 -62 -27 -69 -59 -32 -33 40 -36 71 -6 78 77 16 118 13 149 -13 18
-16 31 -36 31 -49 0 -19 6 -23 33 -23 27 -1 29 0 12 9 -11 5 -33 30 -49 56
-28 45 -31 47 -75 46 -97 -2 -128 -13 -171 -60 -41 -45 -41 -45 -18 -86 13
-22 40 -60 61 -84 38 -43 38 -43 13 -50 -32 -8 -75 2 -98 23 -19 17 -25 4 -7
-14 17 -17 2 -33 -24 -26 -66 16 -76 14 -154 -26 -68 -35 -88 -41 -143 -41
-46 0 -71 -5 -97 -21 -28 -18 -39 -19 -56 -10 -12 6 -46 10 -76 8 -39 -1 -56
2 -59 12 -3 9 0 11 9 6 8 -5 11 -4 6 0 -4 5 -80 8 -170 6 -89 -1 -179 1 -199
4 -42 7 -41 18 8 96 26 42 26 42 92 36 48 -5 71 -12 82 -26 19 -24 49 -19 72
11 23 30 29 21 -92 127 -78 68 -112 91 -132 91 -25 0 -27 -2 -16 -20 19 -30 1
-36 -28 -9 -15 13 -25 18 -22 10 5 -16 -83 -81 -111 -81 -23 -1 -61 -30 -38
-30 9 0 17 5 17 10 0 6 10 10 22 10 12 0 18 -3 15 -7 -4 -3 -2 -12 3 -18 15
-18 -15 -41 -34 -26 -11 9 -15 8 -20 -5 -5 -13 -14 -15 -47 -10 -30 5 -39 3
-33 -5 5 -8 3 -9 -5 -5 -7 5 -10 11 -7 14 3 3 -1 13 -10 23 -8 9 -19 30 -24
45 -8 29 -8 29 -9 -1 -1 -17 5 -37 12 -44 6 -7 -7 -4 -31 7 -23 10 -45 22 -49
25 -10 11 -25 8 -18 -3 3 -5 28 -20 56 -31 27 -12 49 -26 49 -31 0 -5 14 -14
30 -19 35 -13 37 -20 11 -36 -15 -10 -22 -9 -31 2 -8 10 -31 15 -62 15 -79 0
-137 42 -121 87 8 25 44 63 59 63 6 0 17 7 24 15 15 18 61 41 110 55 31 9 36
7 56 -17 21 -27 16 -73 -8 -73 -17 0 -7 -16 11 -17 14 -1 18 3 14 13 -3 8 0
14 6 14 19 0 12 43 -11 67 -12 13 -17 23 -11 23 19 0 48 -42 45 -66 -3 -18 1
-24 15 -24 15 0 16 2 3 10 -13 9 -12 13 7 29 15 12 18 22 12 32 -7 10 -11 11
-17 2 -8 -12 -62 27 -62 46 0 25 38 31 54 8 16 -22 16 -22 10 4 -7 35 12 38
216 32 94 -3 165 0 180 6 27 11 -606 11 -730 0z m287 -16 c-4 -3 -10 -3 -14 0
-3 4 0 7 7 7 7 0 10 -3 7 -7z m358 -179 c53 -48 93 -89 90 -92 -3 -3 -12 3
-19 14 -8 10 -18 15 -22 11 -5 -4 -3 -11 3 -15 14 -9 20 -26 11 -29 -5 -2 -8
-1 -8 2 1 11 -29 35 -44 35 -18 0 -32 20 -14 20 7 0 4 6 -7 12 -30 17 -65 50
-60 58 2 4 -7 18 -20 30 -26 25 -32 40 -15 40 6 0 53 -39 105 -86z m933 -7
c17 -28 32 -57 32 -63 0 -6 8 -18 17 -25 11 -10 14 -10 9 -1 -11 18 9 14 27
-6 15 -16 14 -18 -13 -31 -35 -15 -68 4 -119 67 -53 67 -58 88 -30 118 22 23
25 24 34 9 5 -9 25 -40 43 -68z m102 43 c12 -23 12 -24 -3 -11 -10 7 -17 20
-17 29 0 18 3 16 20 -18z m-1125 0 c12 -13 14 -20 6 -20 -7 0 0 -15 16 -34 15
-18 33 -31 38 -28 6 3 7 1 2 -3 -4 -5 0 -17 10 -27 9 -10 11 -18 5 -18 -6 0
-14 5 -17 11 -4 6 -14 8 -22 5 -8 -3 -11 -1 -8 4 3 6 0 10 -7 10 -7 0 -18 10
-23 22 -18 38 -44 46 -66 19 -10 -12 -16 -28 -12 -34 3 -5 2 -7 -4 -4 -5 4
-25 -5 -43 -18 -36 -27 -60 -32 -60 -14 0 6 7 9 15 5 10 -3 15 1 15 13 0 10
11 26 25 35 14 9 25 23 25 31 0 13 63 63 81 64 3 1 14 -8 24 -19z m-129 -35
c-11 -8 -22 -12 -25 -9 -6 6 19 24 34 24 6 -1 1 -7 -9 -15z m1614 -66 c0 -10
4 -19 8 -19 4 0 25 -24 47 -52 21 -29 30 -46 20 -38 -17 14 -18 14 -7 -7 29
-54 -2 -59 -48 -7 -17 20 -43 62 -56 93 -14 31 -30 64 -35 73 -19 36 -8 39 31
8 22 -17 40 -40 40 -51z m-370 54 c0 -14 -2 -15 -9 -5 -6 11 -10 10 -15 -4 -8
-22 -4 -26 36 -28 24 -1 34 -7 37 -21 2 -11 11 -25 20 -32 13 -9 13 -14 4 -24
-10 -10 -21 -6 -52 19 -22 18 -44 32 -50 32 -18 0 -21 17 -10 49 12 33 39 43
39 14z m298 -42 c2 -13 14 -43 27 -67 25 -47 18 -57 -15 -24 -11 11 -17 26
-14 35 4 9 2 15 -2 13 -5 -2 -22 7 -37 19 -25 20 -26 22 -11 38 22 22 48 15
52 -14z m-1458 -21 c0 -5 -4 -10 -10 -10 -5 0 -10 5 -10 10 0 6 5 10 10 10 6
0 10 -4 10 -10z m-40 -4 c0 -3 -5 -8 -12 -12 -7 -4 -8 -3 -4 4 7 12 16 16 16
8z m1455 -21 c25 -20 27 -24 11 -25 -15 0 -16 -3 -6 -15 9 -11 9 -15 1 -15 -6
0 -28 7 -48 15 -42 18 -43 18 -43 6 0 -5 17 -15 37 -22 30 -9 34 -14 22 -23
-8 -6 -13 -19 -11 -28 2 -10 -1 -18 -7 -18 -6 0 -11 -9 -11 -20 0 -11 -5 -20
-12 -20 -9 0 -9 -3 0 -12 7 -7 12 -17 12 -22 0 -11 -58 54 -77 88 -20 35 -16
66 7 61 11 -2 18 0 15 5 -4 7 62 69 75 70 3 0 19 -11 35 -25z m-1258 8 c-4 -3
-10 -3 -14 0 -3 4 0 7 7 7 7 0 10 -3 7 -7z m-204 -27 c-2 -3 -3 -10 -3 -16 0
-5 -4 -10 -9 -10 -5 0 -22 -5 -38 -11 -26 -10 -27 -12 -8 -20 14 -6 10 -7 -15
-3 -44 8 -47 11 -32 34 11 18 9 20 -25 21 -21 1 -41 1 -45 0 -5 0 -8 3 -8 9 0
5 38 8 93 6 50 -2 91 -6 90 -10z m-358 -16 c3 -5 3 -15 -1 -21 -6 -11 -23 6
-24 24 0 10 18 9 25 -3z m-195 -10 c11 -8 7 -9 -15 -4 -37 8 -45 14 -19 14 10
0 26 -5 34 -10z m160 -16 c0 -8 -4 -14 -10 -14 -5 0 -10 2 -10 4 0 2 -3 12 -6
20 -5 12 -2 15 10 10 9 -3 16 -12 16 -20z m-84 0 c-9 -8 -16 -20 -16 -26 0 -6
-3 -9 -6 -5 -10 10 7 47 22 47 13 0 13 -2 0 -16z m314 4 c19 -6 39 -17 43 -24
4 -8 21 -14 37 -14 28 0 30 -3 30 -37 0 -63 -15 -72 -39 -25 -23 45 -64 82
-92 82 -9 0 -19 5 -21 12 -3 9 -6 9 -11 1 -4 -7 6 -16 25 -23 45 -15 112 -125
95 -155 -6 -11 -11 -24 -12 -29 0 -5 -6 -11 -14 -14 -8 -3 -11 0 -8 5 13 21
-94 186 -110 170 -7 -8 20 -57 32 -57 11 0 55 -53 55 -66 0 -4 -8 0 -17 8 -12
10 -34 15 -65 13 -27 -1 -48 2 -48 6 0 5 -6 9 -14 9 -9 0 -17 15 -21 40 -4 22
-11 42 -16 46 -15 9 -10 24 9 24 10 0 22 3 26 8 25 24 88 34 136 20z m-353
-15 c-4 -3 -7 0 -7 7 0 7 3 10 7 7 3 -4 3 -10 0 -14z m89 6 c3 -6 2 -15 -3
-20 -29 -29 3 -64 71 -78 24 -5 32 -13 38 -41 8 -30 30 -87 45 -112 2 -5 -4
-8 -14 -8 -20 0 -83 95 -83 125 0 9 -3 14 -8 11 -18 -11 -127 20 -130 37 -3
14 1 17 21 12 14 -4 28 -2 31 4 5 7 -2 11 -17 11 -14 0 -30 7 -37 15 -11 13
-10 14 4 9 11 -4 23 3 37 20 22 28 34 32 45 15z m1487 -6 c-7 -2 -21 -2 -30 0
-10 3 -4 5 12 5 17 0 24 -2 18 -5z m55 -13 c-7 -10 -14 -18 -15 -16 -6 6 9 36
18 36 5 0 4 -9 -3 -20z m-1808 -14 c0 -8 -4 -18 -10 -21 -12 -7 -14 -52 -2
-57 4 -2 20 -18 36 -35 25 -28 26 -31 8 -26 -12 3 -34 16 -48 30 -25 23 -29
24 -39 9 -11 -14 -14 -13 -34 5 -12 12 -20 26 -18 32 5 15 22 6 21 -10 -1 -7
5 -13 12 -13 11 0 13 7 8 27 -6 22 -2 31 22 50 34 27 44 29 44 9z m1738 8 c12
-4 22 -13 22 -20 0 -17 -12 -18 -28 -2 -9 9 -12 6 -12 -14 0 -15 -4 -30 -10
-33 -19 -12 -10 -25 18 -25 32 -1 67 -24 58 -39 -4 -6 -19 -8 -34 -6 -15 2
-44 7 -64 10 -34 5 -38 9 -37 33 1 18 3 21 6 9 7 -29 28 -13 25 18 -7 64 7 82
56 69z m109 -1 c-4 -3 -10 -3 -14 0 -3 4 0 7 7 7 7 0 10 -3 7 -7z m-1503 -18
c3 -8 0 -15 -7 -15 -8 0 -7 -4 3 -10 12 -8 12 -10 -3 -16 -23 -9 -26 -4 -20
29 6 30 18 35 27 12z m1486 -2 c-1 -12 -29 -47 -34 -42 -7 7 13 49 24 49 5 0
10 -3 10 -7z m30 -7 c0 -3 -4 -8 -10 -11 -5 -3 -10 -1 -10 4 0 6 5 11 10 11 6
0 10 -2 10 -4z m-1285 -16 c3 -5 4 -10 1 -10 -3 0 -8 5 -11 10 -3 6 -4 10 -1
10 3 0 8 -4 11 -10z m-524 -41 c14 -28 -6 -42 -27 -18 -10 13 -13 19 -6 15 8
-5 12 1 13 21 0 16 3 21 6 13 3 -8 9 -22 14 -31z m1689 26 c0 -8 -4 -15 -10
-15 -5 0 -7 7 -4 15 4 8 8 15 10 15 2 0 4 -7 4 -15z m140 5 c0 -5 -5 -10 -11
-10 -5 0 -7 5 -4 10 3 6 8 10 11 10 2 0 4 -4 4 -10z m-487 -16 c-4 -10 -10
-11 -24 -3 -25 13 -24 17 5 17 16 0 23 -5 19 -14z m384 -1 c-4 -3 -7 0 -7 7 0
7 3 10 7 7 3 -4 3 -10 0 -14z m-450 0 c-4 -3 -10 -3 -14 0 -3 4 0 7 7 7 7 0
10 -3 7 -7z m-681 -51 c-14 -15 -15 -13 -3 17 8 23 13 28 15 16 2 -10 -3 -25
-12 -33z m1171 31 c-4 -3 -7 0 -7 7 0 7 3 10 7 7 3 -4 3 -10 0 -14z m71 -18
c-3 -3 -13 -2 -22 1 -14 5 -15 9 -4 15 13 8 36 -6 26 -16z m-709 -9 c10 -12 8
-13 -9 -9 -25 7 -37 23 -17 23 8 0 20 -6 26 -14z m40 7 c-4 -28 2 -33 24 -23
20 10 21 10 4 -4 -23 -18 -43 -12 -50 15 -3 12 0 19 9 19 8 0 13 -3 13 -7z
m439 -27 c9 -3 35 -8 56 -10 21 -3 44 -10 49 -15 19 -19 34 -12 43 22 6 17 16
32 23 32 21 0 45 -76 32 -97 -14 -23 -14 -26 2 -24 6 0 13 -2 15 -6 1 -5 0 -8
-3 -8 -3 0 -12 0 -20 0 -9 0 -15 9 -15 24 0 14 -3 27 -8 30 -4 2 -7 -11 -6
-30 2 -39 -15 -44 -77 -23 -71 24 -146 108 -120 135 3 3 7 -1 9 -10 2 -8 11
-17 20 -20z m-1701 7 c-4 -3 -7 0 -7 7 0 7 3 10 7 7 3 -4 3 -10 0 -14z m440
-5 c-3 -8 -6 -5 -6 6 -1 11 2 17 5 13 3 -3 4 -12 1 -19z m77 -6 c13 -3 17 -1
12 6 -11 17 9 15 24 -3 10 -13 9 -15 -12 -15 -16 0 -29 -9 -38 -25 -16 -30
-25 -23 -35 24 -7 31 -5 33 11 26 11 -4 28 -10 38 -13z m-774 -2 c0 -5 -5 -10
-11 -10 -5 0 -7 5 -4 10 3 6 8 10 11 10 2 0 4 -4 4 -10z m317 -15 c36 -32 17
-32 -22 0 -16 13 -25 24 -18 25 7 0 25 -11 40 -25z m61 0 c-3 -3 -9 2 -12 12
-6 14 -5 15 5 6 7 -7 10 -15 7 -18z m1811 8 c20 -19 61 -83 61 -95 0 -18 -39
-6 -54 17 -23 35 -19 45 5 15 15 -18 19 -20 15 -7 -3 10 -6 23 -6 28 0 5 -6 9
-13 9 -8 0 -19 11 -25 25 -14 29 -8 32 17 8z m-1381 -21 c9 -6 6 -14 -13 -32
-30 -28 -44 -20 -25 15 14 27 18 29 38 17z m-848 -11 c0 -5 -7 -12 -16 -15
-14 -5 -15 -4 -4 9 14 17 20 19 20 6z m361 -9 c73 -27 156 -92 119 -92 -6 0
-10 4 -10 8 0 5 -29 21 -64 36 -35 15 -72 36 -82 47 -21 23 -20 23 37 1z m79
3 c0 -19 -11 -19 -36 0 -18 14 -18 14 9 15 17 0 27 -5 27 -15z m512 -7 c-7 -7
-12 -8 -12 -2 0 14 12 26 19 19 2 -3 -1 -11 -7 -17z m70 -1 c7 -7 22 -17 33
-22 16 -8 10 -10 -29 -13 -70 -5 -88 4 -57 29 27 22 35 23 53 6z m1019 -44
c13 -16 12 -17 -3 -4 -17 13 -22 21 -14 21 2 0 10 -8 17 -17z m-1656 -33 c3
-5 2 -10 -4 -10 -5 0 -13 5 -16 10 -3 6 -2 10 4 10 5 0 13 -4 16 -10z m32 -22
c-3 -8 -6 -5 -6 6 -1 11 2 17 5 13 3 -3 4 -12 1 -19z m483 -1 c13 -9 32 -17
42 -17 26 0 30 -17 5 -24 -35 -9 -67 -7 -67 5 0 6 -8 8 -19 4 -12 -3 -21 0
-25 10 -7 18 10 21 18 3 3 -7 5 -1 3 13 -4 30 7 32 43 6z m15 13 c3 -5 4 -10
1 -10 -3 0 -8 5 -11 10 -3 6 -4 10 -1 10 3 0 8 -4 11 -10z m1142 -7 c-4 -3 -7
0 -7 7 0 7 3 10 7 7 3 -4 3 -10 0 -14z m-1567 -60 c0 -18 28 -53 42 -53 5 0
41 -21 81 -46 40 -26 83 -53 95 -61 38 -24 20 -27 -158 -27 -169 -1 -169 -1
-190 52 -20 54 -20 54 20 99 21 25 45 58 52 74 13 30 13 30 36 4 12 -14 22
-33 22 -42z m-86 28 c10 -15 -55 -81 -80 -81 -27 0 -29 7 -10 32 8 11 21 15
37 12 20 -4 21 -3 5 4 -14 6 -16 11 -8 16 7 4 12 16 12 27 0 16 3 18 19 9 11
-5 22 -14 25 -19z m121 -1 c3 -5 4 -10 1 -10 -3 0 -8 5 -11 10 -3 6 -4 10 -1
10 3 0 8 -4 11 -10z m1349 -7 c4 -11 -1 -24 -16 -37 -13 -12 -17 -14 -10 -6
14 17 16 34 2 25 -12 -7 -12 -3 -4 19 8 21 20 20 28 -1z m-1329 -23 c3 -5 4
-10 1 -10 -3 0 -8 5 -11 10 -3 6 -4 10 -1 10 3 0 8 -4 11 -10z m562 -7 c-4 -3
-7 0 -7 7 0 7 3 10 7 7 3 -4 3 -10 0 -14z m-577 -8 c20 -24 6 -28 -15 -5 -10
11 -13 20 -8 20 6 0 16 -7 23 -15z m400 11 c0 -9 -40 -13 -46 -5 -3 5 6 9 20
9 14 0 26 -2 26 -4z m895 -35 c3 -5 1 -12 -5 -16 -5 -3 -10 1 -10 9 0 18 6 21
15 7z m-1185 -52 c25 -21 25 -21 -6 -4 -17 10 -41 26 -55 37 -24 19 -24 19 6
4 17 -8 41 -25 55 -37z m1137 -96 c-4 -3 -10 -3 -14 0 -3 4 0 7 7 7 7 0 10 -3
7 -7z m-1170 -10 c-4 -3 -10 -3 -14 0 -3 4 0 7 7 7 7 0 10 -3 7 -7z m1308 -3
c3 -5 4 -10 1 -10 -3 0 -8 5 -11 10 -3 6 -4 10 -1 10 3 0 8 -4 11 -10z m-1468
-7 c-4 -3 -10 -3 -14 0 -3 4 0 7 7 7 7 0 10 -3 7 -7z m341 0 c-10 -2 -28 -2
-40 0 -13 2 -5 4 17 4 22 1 32 -1 23 -4z m-371 -9 c-3 -3 -12 -4 -19 -1 -8 3
-5 6 6 6 11 1 17 -2 13 -5z"/>
<path d="M2945 1260 c3 -5 8 -10 11 -10 3 0 2 5 -1 10 -3 6 -8 10 -11 10 -3 0
-2 -4 1 -10z"/>
<path d="M1345 1220 c3 -5 8 -10 11 -10 2 0 4 5 4 10 0 6 -5 10 -11 10 -5 0
-7 -4 -4 -10z"/>
<path d="M1320 1170 c0 -7 3 -10 7 -7 3 4 3 10 0 14 -4 3 -7 0 -7 -7z"/>
<path d="M2585 1090 c-3 -5 1 -10 9 -10 9 0 16 5 16 10 0 6 -4 10 -9 10 -6 0
-13 -4 -16 -10z"/>
<path d="M1913 1643 c4 -3 10 -3 14 0 3 4 0 7 -7 7 -7 0 -10 -3 -7 -7z"/>
<path d="M155 1630 c-15 -6 -7 -9 30 -9 36 -1 46 2 35 9 -18 12 -38 12 -65 0z"/>
<path d="M0 1622 c0 -5 13 -7 30 -4 17 2 30 6 30 8 0 2 -13 4 -30 4 -17 0 -30
-4 -30 -8z"/>
<path d="M40 1595 c0 -8 -6 -15 -12 -16 -23 -1 26 -18 54 -18 42 -1 25 -31
-18 -31 -28 0 -34 -4 -34 -20 0 -11 -6 -23 -13 -26 -7 -2 -14 -21 -15 -42 -2
-34 -1 -36 13 -18 8 10 16 24 18 30 3 7 9 7 20 -3 15 -11 17 -11 17 1 0 7 13
29 30 48 37 45 37 64 0 80 -16 7 -30 16 -30 21 0 5 -7 9 -15 9 -8 0 -15 -7
-15 -15z"/>
<path d="M1500 1605 c0 -5 9 -21 20 -35 11 -14 20 -20 20 -15 0 6 -9 21 -20
35 -11 14 -20 21 -20 15z"/>
<path d="M2880 1589 c0 -5 5 -7 10 -4 6 3 10 8 10 11 0 2 -4 4 -10 4 -5 0 -10
-5 -10 -11z"/>
<path d="M3 1553 c4 -3 10 -3 14 0 3 4 0 7 -7 7 -7 0 -10 -3 -7 -7z"/>
<path d="M1490 1500 c0 -7 3 -10 7 -7 3 4 3 10 0 14 -4 3 -7 0 -7 -7z"/>
<path d="M250 1481 c0 -6 -11 -11 -25 -11 -14 0 -25 -3 -25 -7 0 -5 -23 -21
-51 -37 -43 -24 -55 -27 -75 -17 -39 18 -52 13 -21 -8 29 -19 29 -19 -12 -51
-46 -37 -54 -70 -18 -70 21 0 23 -4 21 -40 -1 -28 2 -38 10 -33 6 4 6 1 -2 -9
-11 -14 -8 -17 25 -22 60 -11 74 -17 67 -28 -14 -23 -136 29 -128 54 3 10 1
18 -5 18 -6 0 -10 -15 -8 -35 1 -25 6 -34 16 -30 10 4 9 -1 -3 -20 -11 -17
-12 -24 -4 -23 17 4 16 -33 -1 -55 -18 -21 -9 -33 11 -14 12 12 16 6 30 -42
14 -47 14 -53 2 -36 -9 11 -19 19 -24 18 -5 -2 -7 3 -4 10 3 8 -2 14 -11 14
-10 0 -15 -10 -15 -30 0 -17 3 -27 7 -24 4 4 20 -5 35 -20 29 -28 29 -28 -4
-39 -41 -14 -53 -48 -14 -39 14 3 37 7 50 10 34 7 41 37 16 77 -34 57 -29 66
40 62 36 -3 60 0 60 6 0 5 -15 10 -34 10 -20 0 -36 6 -39 14 -5 11 1 12 31 4
46 -12 87 -47 72 -62 -5 -5 -10 -18 -10 -28 0 -10 -16 -42 -35 -73 -40 -62
-32 -72 18 -20 35 36 74 132 64 158 -3 8 -29 21 -57 28 -48 12 -51 15 -45 39
3 14 10 46 16 72 22 104 78 165 127 139 25 -13 35 -14 28 -2 -10 16 5 41 24
41 22 0 33 -37 14 -44 -21 -8 -17 -24 8 -32 16 -5 27 -1 40 16 27 33 -10 76
-63 73 -34 -2 -39 2 -50 30 -7 18 -15 36 -17 40 -2 4 8 -4 23 -18 16 -14 33
-25 39 -25 6 0 4 6 -5 13 -9 7 -28 33 -42 57 -24 43 -47 63 -47 41z m25 -32
c11 -17 -1 -21 -15 -4 -8 9 -8 15 -2 15 6 0 14 -5 17 -11z m-32 -36 c6 -10
-171 -199 -178 -191 -9 8 36 76 74 113 17 17 43 42 58 58 28 28 39 32 46 20z
m-123 -52 c-12 -23 -29 -35 -37 -27 -3 3 5 14 18 25 30 25 32 26 19 2z m63
-56 c-3 -9 -8 -14 -10 -11 -3 3 -2 9 2 15 9 16 15 13 8 -4z m124 8 c-4 -3 -10
-3 -14 0 -3 4 0 7 7 7 7 0 10 -3 7 -7z m-97 -17 c0 -3 -5 -8 -12 -12 -7 -4 -8
-3 -4 4 7 12 16 16 16 8z m191 -19 c-10 -9 -11 -8 -5 6 3 10 9 15 12 12 3 -3
0 -11 -7 -18z m-249 -13 c-12 -8 -20 -20 -17 -25 4 -5 -3 -21 -14 -34 -22 -29
-41 -16 -20 13 29 38 53 62 63 62 6 0 0 -7 -12 -16z m-62 -144 c7 -14 7 -20 0
-20 -5 0 -10 -15 -10 -32 0 -23 -3 -29 -9 -19 -7 11 -9 11 -14 0 -4 -12 -2 14
5 79 2 18 16 15 28 -8z"/>
<path d="M60 1090 c0 -7 3 -10 7 -7 3 4 3 10 0 14 -4 3 -7 0 -7 -7z"/>
<path d="M1263 1448 c2 -7 8 -13 13 -13 5 0 14 -4 21 -8 7 -5 9 -1 6 13 -3 11
-14 20 -25 20 -11 0 -18 -5 -15 -12z"/>
<path d="M843 1413 c4 -3 10 -3 14 0 3 4 0 7 -7 7 -7 0 -10 -3 -7 -7z"/>
<path d="M963 1413 c4 -3 10 -3 14 0 3 4 0 7 -7 7 -7 0 -10 -3 -7 -7z"/>
<path d="M370 1390 c29 -23 48 -26 31 -6 -6 8 -22 16 -34 20 -21 5 -21 4 3
-14z"/>
<path d="M1103 1403 c4 -3 10 -3 14 0 3 4 0 7 -7 7 -7 0 -10 -3 -7 -7z"/>
<path d="M1061 1244 c0 -11 3 -14 6 -6 3 7 2 16 -1 19 -3 4 -6 -2 -5 -13z"/>
<path d="M1783 1233 c9 -2 23 -2 30 0 6 3 -1 5 -18 5 -16 0 -22 -2 -12 -5z"/>
<path d="M1853 1233 c4 -3 10 -3 14 0 3 4 0 7 -7 7 -7 0 -10 -3 -7 -7z"/>
<path d="M3160 1210 c-13 -8 -12 -10 3 -10 9 0 17 5 17 10 0 12 -1 12 -20 0z"/>
<path d="M3330 1210 c0 -5 18 -10 41 -10 24 0 38 4 34 10 -3 6 -22 10 -41 10
-19 0 -34 -4 -34 -10z"/>
<path d="M3423 1203 c4 -3 10 -3 14 0 3 4 0 7 -7 7 -7 0 -10 -3 -7 -7z"/>
<path d="M2860 1164 c0 -10 7 -14 18 -11 9 2 32 -5 51 -17 19 -11 31 -14 27
-8 -7 11 -78 52 -91 52 -3 0 -5 -7 -5 -16z"/>
<path d="M1190 1125 c7 -9 15 -13 17 -11 7 7 -7 26 -19 26 -6 0 -6 -6 2 -15z"/>
<path d="M782 1100 c0 -14 2 -19 5 -12 2 6 2 18 0 25 -3 6 -5 1 -5 -13z"/>
<path d="M440 1040 c0 -7 3 -10 7 -7 3 4 3 10 0 14 -4 3 -7 0 -7 -7z"/>
<path d="M740 1024 c12 -31 13 -84 1 -102 -17 -27 -46 -9 -52 33 -6 37 -10 29
-13 -20 -2 -32 -31 -24 -34 10 -2 17 -7 33 -11 37 -4 5 -5 -8 -3 -28 4 -36 4
-36 -42 -31 -25 3 -46 2 -46 -3 0 -5 30 -11 68 -14 37 -4 83 -8 104 -10 35 -4
36 -2 47 38 8 27 8 52 2 73 -5 17 -7 34 -3 37 3 3 -2 6 -11 6 -14 0 -15 -5 -7
-26z"/>
<path d="M2926 1031 c-4 -7 -5 -15 -2 -18 9 -9 19 4 14 18 -4 11 -6 11 -12 0z"/>
<path d="M2989 1001 c12 -8 51 -4 51 5 0 2 -15 4 -32 4 -23 0 -29 -3 -19 -9z"/>
<path d="M701 968 c-1 -15 4 -30 9 -33 12 -7 12 12 0 40 -8 18 -9 17 -9 -7z"/>
<path d="M130 880 c0 -7 3 -10 7 -7 3 4 3 10 0 14 -4 3 -7 0 -7 -7z"/>
<path d="M2734 851 c17 -17 26 -31 22 -31 -5 0 -3 -7 4 -15 7 -8 21 -15 31
-15 10 0 23 -8 28 -17 10 -17 10 -17 11 0 0 9 8 17 18 18 9 0 -6 11 -34 23
-28 13 -54 29 -58 35 -4 6 -17 16 -29 22 -18 10 -17 6 7 -20z"/>
<path d="M1688 788 c-17 -17 -17 -18 1 -18 10 0 21 7 24 15 9 22 -6 24 -25 3z"/>
<path d="M2753 773 c4 -3 10 -3 14 0 3 4 0 7 -7 7 -7 0 -10 -3 -7 -7z"/>
<path d="M76 740 c-47 -3 -71 -10 -74 -19 -4 -11 5 -12 49 -6 30 4 92 11 139
14 85 7 85 7 20 11 -36 3 -96 3 -134 0z"/>
<path d="M170 710 c0 -5 5 -10 10 -10 6 0 10 5 10 10 0 6 -4 10 -10 10 -5 0
-10 -4 -10 -10z"/>
<path d="M1583 703 c4 -3 10 -3 14 0 3 4 0 7 -7 7 -7 0 -10 -3 -7 -7z"/>
<path d="M1545 682 c6 -6 30 -13 55 -17 29 -5 42 -4 35 3 -5 5 -30 12 -55 16
-28 5 -41 4 -35 -2z"/>
</g>
</svg>
