<?xml version="1.0" standalone="no"?>
<!DOCTYPE svg PUBLIC "-//W3C//DTD SVG 20010904//EN"
 "http://www.w3.org/TR/2001/REC-SVG-20010904/DTD/svg10.dtd">
<svg version="1.0" xmlns="http://www.w3.org/2000/svg"
 width="412.000000pt" height="256.000000pt" viewBox="0 0 412.000000 256.000000"
 preserveAspectRatio="xMidYMid meet">
<metadata>
Created by potrace 1.16, written by Peter Selinger 2001-2019
</metadata>
<g transform="translate(0.000000,256.000000) scale(0.100000,-0.100000)"
fill="#000000" stroke="none">
<path d="M3950 2503 c-25 -11 -74 -16 -170 -18 -110 -3 -143 -7 -180 -24 -25
-11 -54 -21 -65 -21 -11 0 -45 -9 -75 -20 l-54 -20 -22 21 c-22 20 -24 20 -77
5 -30 -9 -83 -16 -117 -16 -87 0 -141 -28 -158 -81 -6 -21 -12 -49 -12 -63 0
-14 -10 -30 -23 -39 -12 -8 -45 -37 -73 -64 -30 -29 -74 -59 -107 -73 -58 -24
-69 -36 -42 -46 18 -7 116 37 144 65 11 11 27 18 36 15 25 -10 65 5 76 29 9
19 16 22 47 19 20 -2 44 -10 52 -16 36 -29 76 -37 138 -27 34 5 76 7 94 4 27
-4 39 1 65 25 17 17 51 43 75 59 24 15 45 30 48 33 3 3 38 6 79 6 53 1 78 6
85 17 6 8 22 14 35 13 13 -1 26 5 28 12 3 7 -5 12 -21 12 -13 0 -28 5 -31 10
-4 6 -11 8 -16 4 -5 -3 -7 -10 -4 -15 4 -5 2 -9 -3 -9 -6 0 -12 7 -16 15 -3 8
-17 15 -31 15 -15 0 -28 7 -32 18 -8 22 -33 41 -53 41 -22 0 -53 -47 -55 -86
-2 -28 -10 -39 -46 -62 -24 -15 -53 -38 -63 -49 -15 -18 -30 -22 -75 -22 -31
0 -71 -4 -90 -10 -28 -8 -39 -6 -60 10 -15 10 -38 21 -52 24 -82 17 -76 12
-74 63 2 62 12 91 33 97 45 12 91 19 137 21 58 1 107 14 117 29 4 6 11 -1 17
-17 13 -32 31 -34 103 -8 130 46 215 64 318 67 58 2 132 10 165 19 32 8 62 12
66 7 4 -4 9 -20 11 -37 4 -42 23 -28 22 17 -1 66 -29 81 -94 51z m-944 -328
c-11 -8 -24 -15 -30 -15 -5 0 -1 7 10 15 10 8 24 14 29 14 6 0 1 -6 -9 -14z"/>
<path d="M2899 2481 c-36 -19 -55 -36 -57 -50 -3 -17 1 -22 15 -20 10 1 30 -1
44 -5 36 -10 83 15 99 53 24 59 -16 67 -101 22z m61 -26 c-7 -8 -24 -15 -39
-15 l-26 1 30 14 c40 18 50 18 35 0z"/>
<path d="M3061 2461 c-26 -17 0 -31 55 -31 47 0 55 3 52 18 -2 13 -15 18 -48
20 -25 1 -51 -2 -59 -7z"/>
<path d="M2533 2418 c-15 -18 -19 -33 -15 -65 3 -32 -1 -49 -17 -72 -12 -16
-21 -33 -21 -38 0 -13 55 -43 65 -35 20 15 40 53 49 95 4 17 16 31 32 37 14 6
28 19 31 30 7 26 27 25 62 -1 l29 -21 36 27 c30 23 34 30 25 47 -10 19 -11 19
-36 -6 -31 -32 -34 -32 -61 -3 -19 20 -33 24 -90 25 -60 2 -71 -1 -89 -20z
m102 -28 c-3 -5 -18 -9 -33 -9 l-27 1 30 8 c17 4 31 8 33 9 2 0 0 -3 -3 -9z
m-71 -55 c-3 -49 -19 -85 -38 -85 -11 0 -6 28 6 32 7 3 13 25 14 54 2 57 2 54
12 54 5 0 7 -25 6 -55z"/>
<path d="M2832 2388 c-13 -13 -5 -38 13 -38 7 0 18 6 24 14 10 12 8 17 -7 25
-13 7 -22 7 -30 -1z"/>
<path d="M3980 2275 c0 -19 -7 -43 -16 -54 -16 -18 -17 -18 -50 1 -18 11 -41
21 -50 22 -8 1 -19 8 -23 15 -5 7 -16 11 -24 9 -14 -2 -15 -7 -4 -27 6 -13 20
-25 29 -27 18 -2 59 -21 94 -44 12 -7 32 -10 47 -6 23 5 26 11 29 66 4 70 1
80 -18 80 -9 0 -14 -11 -14 -35z"/>
<path d="M3945 2058 c4 -13 14 -33 22 -46 8 -13 11 -32 8 -43 -4 -11 -1 -26 5
-34 6 -7 10 -31 8 -52 -3 -35 -6 -38 -38 -44 -19 -3 -44 -10 -56 -17 -12 -6
-51 -14 -88 -18 -36 -4 -66 -11 -66 -16 0 -6 -7 -7 -16 -4 -18 7 -66 -22 -61
-38 2 -7 40 -10 114 -7 94 2 115 0 138 -15 27 -18 28 -18 51 11 13 16 26 26
30 22 4 -3 1 -13 -5 -21 -7 -8 -10 -20 -6 -26 4 -6 -9 -10 -34 -10 -22 0 -46
-6 -53 -14 -23 -23 -96 -56 -123 -56 -16 0 -25 -6 -25 -15 0 -10 10 -15 29
-15 33 0 115 32 126 50 4 7 29 10 62 9 35 -2 57 2 62 10 13 20 2 85 -16 98
-14 11 -15 18 -4 51 8 24 11 59 7 88 -3 27 -8 67 -10 89 -2 22 -9 41 -15 43
-6 2 -11 12 -11 23 0 13 -7 19 -21 19 -16 0 -19 -4 -14 -22z m32 -264 c-3 -3
-12 -4 -19 -1 -8 3 -5 6 6 6 11 1 17 -2 13 -5z"/>
<path d="M1930 2019 c-19 -10 -51 -19 -70 -19 -54 -1 -135 -25 -135 -41 0 -16
13 -16 120 -1 39 6 85 18 103 27 38 20 40 19 48 -22 5 -27 2 -34 -32 -57 -22
-15 -77 -38 -123 -53 -72 -21 -96 -24 -155 -19 -191 18 -192 18 -224 2 -40
-21 -118 -22 -164 -2 -41 17 -128 22 -128 6 0 -15 36 -30 72 -30 18 0 46 -7
62 -15 37 -19 92 -19 147 1 36 12 69 14 175 9 168 -9 253 4 324 50 28 18 62
36 75 39 13 3 27 15 30 26 3 11 14 20 23 20 9 0 26 7 36 15 11 8 36 15 57 15
35 0 66 20 52 33 -14 15 -90 6 -130 -15 -41 -22 -42 -22 -62 -4 -12 11 -21 25
-21 31 0 12 -22 26 -38 24 -4 0 -23 -9 -42 -20z"/>
<path d="M3689 1955 c-22 -12 -39 -12 -89 -3 -47 8 -72 8 -104 -2 -57 -16 -89
-33 -94 -49 -4 -11 3 -12 31 -7 20 4 47 13 61 20 18 9 44 10 102 3 65 -7 83
-6 115 8 25 12 49 15 71 11 72 -14 175 0 154 22 -3 2 -53 6 -113 7 -78 3 -115
0 -134 -10z"/>
<path d="M1089 1949 c-15 -9 -16 -8 35 -38 38 -21 71 -22 64 0 -6 17 -84 48
-99 38z"/>
<path d="M2843 1806 c-33 -26 -55 -34 -100 -39 -32 -4 -83 -16 -113 -27 -30
-11 -62 -18 -71 -15 -9 3 -24 3 -33 -1 -30 -12 -5 -24 50 -24 52 0 55 -1 49
-21 -7 -21 -5 -22 36 -15 23 4 57 13 73 20 17 8 60 19 96 25 135 23 264 57
274 74 17 26 0 30 -51 14 -26 -9 -84 -23 -128 -33 -44 -9 -86 -19 -94 -22 -28
-11 0 17 49 49 28 18 50 36 50 41 0 19 -48 5 -87 -26z"/>
<path d="M4114 1725 c0 -55 1 -76 3 -47 2 29 2 74 0 100 -2 26 -3 2 -3 -53z"/>
<path d="M36 1724 c-9 -43 7 -67 23 -36 8 15 7 27 -3 47 l-14 26 -6 -37z"/>
<path d="M975 1696 c-18 -13 -18 -18 -6 -97 7 -46 17 -102 21 -124 20 -97 39
-204 44 -251 6 -47 4 -52 -20 -64 -18 -10 -27 -11 -32 -3 -18 28 -132 37 -148
12 -7 -12 -71 -11 -95 1 -11 6 -59 12 -107 14 -135 4 -464 26 -490 32 -16 3
-22 10 -18 19 3 8 1 17 -5 20 -5 4 -8 29 -5 56 3 30 -1 63 -9 83 -8 17 -16 72
-20 122 -8 115 -12 134 -30 134 -8 0 -15 -3 -15 -7 0 -36 34 -272 41 -285 6
-11 5 -19 -2 -24 -7 -4 -9 -22 -6 -45 3 -26 1 -38 -6 -36 -16 3 -22 -110 -7
-128 8 -9 6 -14 -8 -17 -24 -7 -24 -73 1 -108 26 -36 38 -11 34 73 -2 52 0 67
11 67 11 0 13 -8 8 -34 l-6 -33 72 -6 c263 -24 342 -38 173 -32 -66 3 -143 8
-172 11 -49 6 -53 5 -64 -20 -10 -22 -9 -29 4 -44 19 -21 23 -42 5 -24 -26 26
-36 12 -40 -60 -5 -69 3 -111 20 -105 11 3 11 -15 -1 -43 -5 -14 -12 -49 -15
-77 -4 -50 -3 -53 19 -54 68 -2 197 3 268 10 55 6 95 5 128 -4 32 -8 71 -9
118 -4 39 4 147 8 242 8 143 1 182 4 235 21 79 26 190 36 226 21 15 -6 47 -13
72 -15 25 -2 48 -4 53 -5 4 -1 7 -9 6 -18 0 -11 -3 -13 -6 -5 -2 6 -8 10 -13
7 -4 -3 -126 -7 -271 -11 -145 -3 -277 -7 -294 -10 -16 -3 -194 -7 -395 -10
-201 -3 -371 -7 -377 -9 -10 -3 -10 -11 -3 -31 7 -19 7 -36 -2 -60 -9 -27 -9
-44 1 -83 7 -28 11 -92 10 -146 -3 -91 -1 -99 20 -116 31 -25 46 -14 25 19
-14 21 -17 55 -19 188 -1 89 -6 167 -10 173 -4 7 -4 15 0 19 7 8 204 11 845
14 425 2 436 2 480 -19 68 -32 144 -42 250 -35 75 6 95 10 95 22 0 12 -15 15
-90 12 -89 -2 -245 23 -245 40 0 4 6 8 14 8 8 0 22 7 31 16 20 20 66 14 180
-23 71 -23 103 -27 285 -33 113 -4 212 -10 220 -14 8 -3 62 -12 120 -20 58 -8
141 -21 185 -30 116 -22 345 -57 380 -56 49 0 106 -20 130 -46 26 -28 66 -31
90 -8 11 11 25 14 48 10 18 -3 82 -8 142 -11 61 -3 144 -10 185 -15 41 -5 104
-12 140 -15 36 -4 128 -17 205 -30 77 -14 149 -22 160 -19 18 4 20 0 21 -35 1
-23 7 -47 13 -55 9 -11 8 -15 -4 -20 -8 -3 -15 -15 -15 -26 0 -11 -4 -20 -10
-20 -5 0 -10 5 -10 11 0 6 -9 8 -22 3 -13 -4 -51 -7 -84 -5 -36 1 -76 -4 -95
-12 -19 -7 -39 -12 -46 -10 -6 2 -38 -3 -70 -12 -54 -15 -79 -21 -110 -24 -7
0 -13 -8 -13 -16 0 -18 54 -21 96 -5 14 6 47 12 73 13 25 2 61 11 78 20 24 13
48 16 94 13 34 -3 70 -1 80 5 14 7 21 5 29 -11 13 -25 32 -26 54 -1 25 27 19
137 -6 135 -23 -2 -23 24 -1 48 13 15 17 45 19 164 3 118 6 150 19 164 10 11
13 20 6 24 -15 9 -49 -14 -55 -38 -3 -11 -8 -17 -12 -13 -11 10 17 57 33 57
11 0 13 12 7 59 -3 33 -3 77 1 98 l8 38 6 -30 c9 -43 26 -28 24 20 -10 186
-31 312 -56 343 -7 9 -6 20 3 36 8 16 10 42 6 77 -5 43 -4 49 4 29 15 -34 26
-12 22 44 -5 53 -17 60 -27 15 -7 -31 -19 -32 -20 -1 -1 9 -2 51 -3 94 l-2 76
-52 4 c-56 4 -78 1 -78 -12 0 -11 25 -19 66 -22 31 -2 32 -3 37 -63 3 -33 9
-68 12 -77 5 -13 -2 -18 -38 -23 -24 -4 -76 -5 -116 -3 -80 5 -95 -3 -89 -48
4 -37 26 -42 30 -7 3 25 7 28 33 25 51 -5 59 -10 41 -28 -9 -8 -16 -21 -16
-28 0 -13 6 -13 -160 -22 -69 -3 -129 -10 -133 -14 -5 -4 -23 -4 -40 0 -171
42 -157 41 -662 29 -264 -6 -608 -15 -765 -19 -157 -5 -396 -12 -531 -15
l-246 -7 -28 36 c-27 35 -45 39 -45 10 0 -8 15 -29 33 -47 l32 -33 495 8 c305
5 553 14 645 23 165 16 766 26 880 14 114 -12 268 -57 319 -93 36 -24 88 -78
82 -83 -2 -3 -12 0 -23 6 -68 37 -196 55 -231 33 -21 -14 -32 -69 -16 -83 8
-6 14 -9 14 -6 0 3 13 2 29 -3 62 -18 152 28 98 50 -16 6 -17 9 -5 9 9 1 29
-10 45 -23 22 -18 40 -23 85 -24 46 0 65 -6 99 -28 84 -57 101 -116 41 -147
-15 -8 -52 -27 -82 -43 -80 -42 -123 -59 -140 -55 -19 4 -92 -20 -108 -36 -17
-17 -52 -17 -52 0 0 8 -3 9 -8 1 -14 -22 -72 -28 -179 -18 -62 6 -63 5 -63
-19 0 -20 -6 -26 -32 -30 -18 -2 -38 -1 -44 4 -6 5 -18 7 -26 4 -9 -4 -22 4
-32 19 -13 21 -25 26 -57 26 -45 0 -50 -20 -8 -31 23 -6 23 -6 -6 -10 -31 -4
-110 5 -183 21 -23 6 -82 10 -132 10 -49 0 -92 5 -95 10 -3 6 -2 10 4 10 6 0
8 7 5 15 -10 24 -82 37 -196 36 -90 -1 -108 2 -108 14 0 21 -40 54 -107 86
-32 16 -50 29 -40 29 10 0 17 8 17 18 0 30 -106 71 -137 53 -16 -9 -15 -11 10
-20 16 -6 34 -11 42 -11 8 0 16 -4 19 -9 10 -16 -95 -17 -219 -3 -169 20 -210
20 -210 2 0 -10 17 -18 55 -24 l55 -10 -43 -6 c-100 -15 -149 -143 -81 -211
11 -11 19 -23 16 -25 -9 -9 -142 28 -170 48 -28 20 -57 72 -57 101 0 23 78 95
110 102 42 9 39 35 -4 35 -19 0 -38 4 -41 10 -3 6 39 10 112 12 75 2 111 6 98
11 -11 5 -29 13 -40 17 -20 8 -92 15 -285 25 -52 3 -120 8 -150 11 l-54 6 43
20 c42 19 61 20 333 16 208 -2 288 0 288 8 0 18 -62 24 -262 24 -108 0 -189 4
-193 10 -3 5 -11 7 -18 5 -7 -2 -41 -6 -76 -9 -53 -5 -62 -4 -57 9 8 22 -15
30 -30 10 -12 -16 -18 -17 -39 -7 -14 7 -56 12 -93 13 -54 1 -61 3 -37 9 17 5
51 15 77 23 25 9 49 13 52 10 11 -11 56 20 56 39 0 10 -3 18 -8 18 -4 0 -13
15 -20 33 -19 46 -119 271 -153 342 -15 33 -32 72 -38 88 -12 31 -19 33 -46
13z m62 -128 c15 -34 33 -78 33 -84 0 -3 -4 -2 -10 1 -9 6 -15 -16 -11 -40 1
-5 -5 -3 -13 5 -18 18 -35 140 -19 140 5 0 14 -10 20 -22z m73 -166 c0 -7 -4
-11 -9 -7 -6 3 -7 -25 -4 -70 4 -53 3 -75 -6 -75 -6 0 -11 -15 -11 -34 0 -19
-4 -37 -8 -40 -15 -9 -15 222 0 254 l13 29 12 -22 c7 -12 12 -28 13 -35z
m2803 -109 c-3 -18 -10 -33 -17 -33 -13 0 -15 49 -2 68 13 21 24 0 19 -35z
m81 10 c9 -34 -10 -53 -44 -43 -14 5 -18 8 -9 9 19 1 35 34 20 39 -15 5 -4 22
14 22 7 0 16 -12 19 -27z m-3907 -110 c-3 -10 -5 -2 -5 17 0 19 2 27 5 18 2
-10 2 -26 0 -35z m1073 17 c0 -5 -4 -10 -10 -10 -5 0 -10 5 -10 10 0 6 5 10
10 10 6 0 10 -4 10 -10z m2824 -25 c4 -20 4 -39 1 -44 -3 -5 -1 -20 4 -33 8
-20 10 -20 10 -3 1 14 4 16 12 8 16 -16 25 -148 10 -157 -6 -4 -11 -3 -11 3 0
5 -4 21 -10 36 l-10 26 -22 -20 c-12 -12 -30 -23 -40 -27 -10 -3 -18 -10 -18
-17 0 -6 -19 7 -42 30 -24 23 -59 50 -80 60 -32 18 -34 21 -18 31 10 6 21 29
25 54 13 78 25 88 109 88 l74 0 6 -35z m-299 5 c-4 -12 -1 -27 5 -35 20 -24 1
-17 -28 10 -15 14 -32 25 -39 25 -6 0 -15 5 -18 10 -4 6 12 10 40 10 42 0 46
-2 40 -20z m-3105 -44 c36 -7 70 -11 77 -9 7 3 13 0 13 -6 0 -6 -4 -11 -10
-11 -5 0 -10 -9 -10 -20 0 -17 7 -20 45 -20 44 0 60 15 30 26 -62 24 72 23
175 -1 l55 -13 -43 -1 c-46 -1 -56 -23 -14 -29 12 -2 22 -6 22 -10 0 -4 -53
-4 -117 1 -65 4 -179 11 -253 15 -146 8 -152 10 -131 65 9 24 16 27 53 27 24
0 72 -7 108 -14z m-228 -44 c14 -14 -1 -15 -118 -5 -49 4 -71 9 -59 13 32 12
163 6 177 -8z m661 -2 c-5 -17 0 -20 26 -20 24 0 31 -4 31 -19 0 -18 -3 -19
-30 -9 -17 5 -33 14 -36 19 -3 5 -15 9 -27 9 -20 0 -19 2 8 19 17 11 31 20 32
20 0 1 -1 -8 -4 -19z m-943 -40 c0 -5 -2 -10 -4 -10 -3 0 -8 5 -11 10 -3 6 -1
10 4 10 6 0 11 -4 11 -10z m775 -46 c22 -2 108 -8 190 -13 83 -5 163 -13 178
-20 16 -6 56 -12 90 -12 34 -1 49 -4 33 -6 -23 -4 -26 -7 -15 -14 18 -12 -106
0 -141 14 -14 5 -81 13 -150 18 -375 27 -459 35 -467 43 -7 8 186 2 282 -10z
m-380 -41 c0 -6 3 -15 7 -19 16 -16 -4 -20 -64 -13 -65 8 -108 3 -108 -12 0
-12 33 -18 110 -21 l65 -3 -2 -40 c-1 -22 -7 -62 -13 -88 -8 -33 -9 -52 -2
-59 19 -19 78 -22 420 -17 238 4 242 4 201 -14 -35 -15 -85 -18 -372 -21 -183
-2 -395 -8 -471 -12 -135 -7 -139 -7 -132 12 5 10 11 27 13 37 3 9 14 17 24
17 27 0 37 30 15 42 -16 9 -16 12 4 33 23 24 20 45 -6 45 -8 0 -14 9 -14 20 0
11 -7 23 -15 26 -30 12 -14 21 53 30 74 10 87 25 29 35 -54 9 -57 19 -6 19 24
0 51 5 59 10 21 14 205 8 205 -7z m75 13 c0 -3 -4 -8 -10 -11 -5 -3 -10 -1
-10 4 0 6 5 11 10 11 6 0 10 -2 10 -4z m350 -31 c79 -23 102 -27 94 -14 -5 9
14 11 78 7 77 -5 90 -9 138 -42 29 -20 56 -36 61 -36 5 0 32 -11 61 -25 28
-14 58 -25 66 -25 12 0 12 -3 2 -15 -9 -11 -35 -15 -106 -15 -84 0 -99 3 -134
25 -40 25 -49 40 -29 47 18 6 -12 58 -33 58 -15 0 -18 -5 -13 -20 6 -18 2 -20
-27 -18 -32 3 -33 2 -36 -38 -3 -37 -6 -41 -24 -36 -11 3 -24 -1 -28 -8 -7
-11 -11 -11 -24 -1 -9 8 -16 11 -16 8 0 -3 -21 1 -46 9 -42 12 -49 12 -86 -7
-34 -17 -55 -20 -124 -17 -46 1 -84 0 -84 -4 0 -5 -9 -8 -20 -8 -18 0 -20 7
-20 73 0 109 4 115 59 119 89 6 246 -3 291 -17z m594 -44 c17 -7 16 -9 -8 -24
-14 -10 -26 -13 -26 -7 0 5 -18 13 -40 16 -22 4 -40 10 -40 15 0 11 87 11 114
0z m2546 -17 c0 -8 -4 -12 -10 -9 -5 3 -10 10 -10 16 0 5 5 9 10 9 6 0 10 -7
10 -16z m-2107 -20 c37 -5 46 -11 50 -29 3 -17 -2 -26 -21 -34 -20 -10 -22
-14 -12 -26 7 -8 29 -15 49 -15 20 0 42 -4 49 -9 20 -12 -20 -21 -99 -21 l-67
0 -6 36 c-4 19 -15 38 -24 41 -21 8 -32 23 -32 46 0 19 31 22 113 11z m2027
-14 c0 -5 -4 -10 -10 -10 -5 0 -10 5 -10 10 0 6 5 10 10 10 6 0 10 -4 10 -10z
m33 -90 c-7 -64 -8 -67 -27 -51 -9 7 -55 12 -120 13 -58 1 -106 4 -106 8 0 4
23 17 50 30 28 13 56 30 62 37 6 8 32 13 63 13 46 0 54 3 59 23 7 21 7 21 16
2 4 -11 6 -45 3 -75z m-2263 56 c0 -3 -4 -8 -10 -11 -5 -3 -10 -1 -10 4 0 6 5
11 10 11 6 0 10 -2 10 -4z m-355 -96 c10 -11 31 -20 49 -21 27 0 28 -1 10 -9
-11 -4 -40 -4 -65 1 -24 4 -79 8 -121 9 -115 0 -101 21 22 33 76 8 87 6 105
-13z m2328 -14 c-15 -13 -30 -22 -32 -20 -7 7 31 44 46 44 8 0 2 -10 -14 -24z
m-1264 3 l106 -2 -117 -12 c-88 -9 -123 -17 -138 -30 -20 -18 -20 -17 -20 20
0 37 1 37 31 31 17 -3 79 -7 138 -7z m-369 -43 c0 -14 -5 -17 -22 -12 -13 3
-70 6 -127 6 -91 0 -102 2 -91 15 9 11 35 15 94 16 44 1 92 4 106 8 27 8 40
-2 40 -33z m1550 24 c0 -6 -7 -13 -15 -16 -18 -7 -20 -30 -3 -40 6 -4 17 1 25
11 13 18 13 18 27 0 11 -16 27 -19 94 -19 49 0 86 5 95 13 13 10 16 8 19 -11
4 -31 34 -35 44 -6 l7 23 8 -24 c6 -15 14 -21 24 -17 9 3 15 0 15 -9 0 -8 8
-15 17 -15 12 0 4 -12 -24 -36 -40 -35 -44 -36 -125 -38 -46 0 -90 -5 -98 -11
-13 -8 -83 -13 -211 -16 -15 0 -39 12 -57 29 -38 36 -42 49 -7 26 23 -15 25
-15 32 1 6 18 -5 31 -57 66 -16 10 -21 20 -15 29 6 10 10 8 17 -9 7 -19 14
-22 55 -19 47 3 48 4 48 37 0 30 4 36 35 47 44 16 50 16 50 4z m230 -11 c0 -5
-4 -8 -9 -5 -5 3 -27 -1 -50 -9 -28 -9 -43 -11 -47 -3 -4 5 0 14 7 19 20 12
99 11 99 -2z m40 1 c0 -5 -2 -10 -4 -10 -3 0 -8 5 -11 10 -3 6 -1 10 4 10 6 0
11 -4 11 -10z m86 -37 c-7 -7 -46 16 -46 28 0 5 11 2 25 -7 14 -9 24 -19 21
-21z m-2166 13 c0 -3 -4 -8 -10 -11 -5 -3 -10 -1 -10 4 0 6 5 11 10 11 6 0 10
-2 10 -4z m757 -2 c-3 -3 -12 -4 -19 -1 -8 3 -5 6 6 6 11 1 17 -2 13 -5z
m-190 -10 c-3 -3 -12 -4 -19 -1 -8 3 -5 6 6 6 11 1 17 -2 13 -5z m38 -4 c-3
-5 -10 -10 -16 -10 -5 0 -9 5 -9 10 0 6 7 10 16 10 8 0 12 -4 9 -10z m375 -1
c36 -6 79 -13 95 -16 47 -8 246 -24 294 -24 58 0 71 6 71 31 0 17 6 20 40 20
35 0 40 -3 40 -24 0 -17 9 -27 30 -36 29 -12 41 -30 20 -30 -5 0 -10 -7 -10
-16 0 -9 -11 -25 -25 -36 -14 -11 -25 -26 -25 -35 0 -10 -6 -13 -17 -9 -20 8
-124 24 -228 36 -38 4 -113 13 -165 19 -52 5 -135 15 -185 20 -49 5 -112 17
-140 25 -27 9 -61 16 -75 16 l-24 0 22 16 c20 14 35 13 154 -1 172 -21 190
-22 195 -9 5 14 -103 44 -164 45 -27 1 -61 5 -78 9 -48 12 99 12 175 -1z
m-543 -33 c18 -22 31 -27 116 -41 38 -6 52 -25 18 -25 -11 0 -77 12 -147 26
-110 22 -147 25 -275 22 -81 -2 -151 1 -155 5 -21 20 32 27 193 25 94 -2 175
1 179 5 15 15 53 6 71 -17z m323 -81 l65 -14 -70 5 c-39 3 -86 9 -105 14 l-35
8 40 1 c22 0 69 -6 105 -14z m395 -51 c22 -8 60 -14 85 -15 25 0 56 -5 70 -10
66 -22 -241 7 -370 35 l-65 15 120 -6 c66 -3 138 -11 160 -19z m987 4 c-7 -7
-12 -8 -12 -2 0 14 12 26 19 19 2 -3 -1 -11 -7 -17z m-467 -38 c20 0 48 -31
37 -42 -11 -11 -112 1 -112 13 0 5 7 9 15 9 9 0 15 10 15 26 0 23 1 24 16 10
8 -9 22 -16 29 -16z m405 10 c0 -13 -40 -13 -60 0 -11 7 -5 10 23 10 20 0 37
-4 37 -10z m-671 -16 c2 -2 -12 -4 -32 -4 -20 0 -37 4 -37 10 0 8 58 3 69 -6z
m493 6 c5 0 8 -10 6 -22 -3 -20 -9 -23 -43 -23 -33 0 -41 4 -43 22 -2 16 3 23
20 26 13 2 29 3 36 1 8 -2 18 -4 24 -4z m-417 -28 c-7 -7 -55 8 -55 17 0 5 13
4 30 -2 16 -6 27 -13 25 -15z m577 -60 c11 -14 10 -15 -12 -8 -14 5 -40 10
-59 13 -18 3 -28 9 -22 12 18 11 79 0 93 -17z m108 -12 c0 -5 -10 -10 -22 -10
-19 0 -20 2 -8 10 19 13 30 13 30 0z"/>
<path d="M582 1118 c-18 -18 -14 -28 8 -28 11 0 20 6 20 14 0 21 -15 27 -28
14z"/>
<path d="M679 912 c-31 -4 -64 -35 -54 -51 4 -7 15 -5 32 6 28 19 131 20 164
2 13 -6 24 -6 37 2 16 10 28 9 61 -4 53 -22 61 -21 61 2 0 16 -11 22 -52 30
-54 11 -202 19 -249 13z"/>
<path d="M2292 1693 c7 -36 199 -42 212 -7 7 19 -21 30 -43 17 -11 -7 -35 -7
-66 -2 -83 13 -107 11 -103 -8z"/>
<path d="M3165 1640 c-9 -14 3 -30 22 -30 9 0 24 -6 32 -14 24 -20 71 -29 71
-13 0 7 14 17 32 22 36 11 48 32 23 41 -10 4 -28 -2 -45 -15 -36 -26 -62 -27
-85 -1 -20 22 -40 26 -50 10z"/>
<path d="M3996 1615 c-3 -9 1 -18 10 -22 19 -7 26 0 18 21 -8 20 -20 21 -28 1z"/>
<path d="M3731 1556 c-10 -11 -8 -16 9 -21 26 -8 35 -1 27 20 -8 19 -21 19
-36 1z"/>
<path d="M4020 1550 c0 -27 33 -90 45 -86 23 7 -11 106 -36 106 -5 0 -9 -9 -9
-20z"/>
<path d="M2715 1550 c3 -5 12 -10 20 -10 8 0 17 5 20 10 4 6 -5 10 -20 10 -15
0 -24 -4 -20 -10z"/>
<path d="M1650 1486 c0 -21 5 -23 93 -31 51 -4 77 -3 77 4 0 17 -31 28 -102
36 -57 5 -68 4 -68 -9z"/>
<path d="M2288 1474 c-14 -14 -23 -15 -60 -6 -57 15 -75 -2 -25 -23 45 -19 66
-19 92 1 15 11 33 13 72 8 37 -4 53 -3 53 5 0 30 -105 41 -132 15z"/>
<path d="M3257 1472 c-21 -23 -22 -52 -2 -52 8 0 15 7 15 15 0 17 55 21 65 5
3 -5 15 -10 26 -10 38 0 16 32 -31 46 -57 17 -54 17 -73 -4z"/>
<path d="M4108 1163 c-3 -142 -2 -276 2 -298 4 -23 8 85 9 258 0 163 -1 297
-2 297 -2 0 -6 -116 -9 -257z"/>
<path d="M3006 1175 c-23 -47 -32 -50 -45 -15 -14 43 -37 48 -69 16 -24 -23
-27 -34 -27 -94 0 -38 4 -67 10 -67 6 0 10 23 10 52 0 69 17 87 41 42 9 -19
20 -36 24 -39 5 -3 10 -19 12 -35 4 -35 22 -31 24 5 2 31 12 57 36 92 19 27
25 78 9 78 -5 0 -16 -16 -25 -35z"/>
<path d="M2634 1126 c-32 -71 -43 -116 -26 -116 4 0 18 26 31 58 13 31 33 67
44 79 19 22 18 53 -3 53 -6 0 -27 -33 -46 -74z"/>
<path d="M2707 1163 c-32 -51 -37 -72 -29 -112 11 -49 37 -56 29 -7 -7 41 15
103 38 113 20 7 19 43 0 43 -8 0 -25 -17 -38 -37z"/>
<path d="M2780 1168 c-53 -52 -61 -71 -54 -117 8 -49 27 -55 23 -7 -2 19 3 41
10 50 12 14 15 14 31 -7 10 -12 20 -33 22 -47 1 -13 9 -25 16 -28 9 -3 12 20
12 92 0 109 -7 117 -60 64z"/>
<path d="M2254 1165 c-20 -30 -34 -32 -34 -5 0 11 -4 20 -9 20 -12 0 -56 -60
-65 -87 -4 -11 -13 -24 -21 -27 -15 -5 -21 -56 -7 -56 4 0 15 12 24 28 9 15
30 43 47 62 l31 35 -2 -32 c-2 -24 -7 -33 -20 -33 -13 0 -18 -8 -18 -30 0 -16
5 -30 10 -30 6 0 10 5 10 10 0 6 7 10 16 8 12 -2 20 10 29 45 7 26 22 58 34
70 11 13 21 29 21 35 0 21 -29 13 -46 -13z"/>
<path d="M2331 1176 c-6 -7 -8 -22 -4 -31 5 -14 3 -17 -10 -12 -26 10 -57 -30
-57 -74 0 -35 2 -38 30 -37 25 1 30 5 30 25 0 20 -4 23 -20 18 -27 -8 -27 16
0 33 24 14 27 9 32 -47 2 -19 9 -36 16 -39 9 -3 12 18 12 82 0 85 -8 108 -29
82z"/>
<path d="M2386 1178 c-10 -31 -15 -144 -7 -157 12 -18 18 -5 25 59 4 30 9 67
12 83 4 20 2 27 -11 27 -8 0 -17 -6 -19 -12z"/>
<path d="M2451 1171 c-6 -10 -10 -48 -10 -84 1 -35 -2 -74 -6 -86 -8 -28 1
-27 16 1 12 22 16 38 24 108 3 19 6 44 7 54 4 26 -18 31 -31 7z"/>
<path d="M2560 1183 c-31 -6 -52 -22 -47 -37 2 -6 -4 -29 -14 -51 -20 -43 -24
-75 -11 -75 5 0 16 18 25 40 16 41 43 53 53 25 9 -21 -5 -38 -20 -26 -16 13
-26 4 -26 -21 0 -15 5 -18 20 -13 11 4 20 2 20 -4 0 -6 5 -11 10 -11 6 0 10
10 10 23 0 13 4 27 9 33 13 13 18 117 6 119 -5 1 -21 0 -35 -2z"/>
<path d="M3079 1122 c-13 -10 -32 -21 -41 -25 -28 -10 -22 -37 8 -37 23 0 25
-2 13 -16 -11 -14 -10 -18 6 -30 10 -8 23 -14 28 -14 16 0 45 40 52 71 7 29
19 37 29 20 4 -5 2 -11 -3 -13 -6 -1 -11 -36 -13 -75 -2 -62 -5 -73 -20 -73
-9 0 -22 8 -27 18 -10 16 -10 16 -11 0 0 -29 -18 -21 -22 10 -2 15 -7 26 -13
26 -11 -2 -8 -64 3 -76 4 -3 27 -8 51 -10 42 -3 44 -2 56 32 8 23 19 36 33 38
17 3 22 10 22 33 0 36 -17 72 -31 64 -10 -7 -13 18 -3 27 3 3 17 0 32 -7 41
-19 142 -27 142 -11 0 22 -22 31 -80 35 -30 1 -68 9 -84 17 -40 19 -99 18
-127 -4z m36 -38 c-9 -9 -19 -13 -23 -10 -3 4 0 11 8 16 24 15 33 11 15 -6z"/>
<path d="M1870 1055 c0 -36 13 -47 24 -19 11 28 6 54 -9 54 -10 0 -15 -11 -15
-35z"/>
<path d="M1927 1083 c-13 -13 -7 -53 8 -53 10 0 15 10 15 30 0 29 -9 38 -23
23z"/>
<path d="M2020 1044 c0 -20 4 -25 16 -20 9 3 22 6 30 6 8 0 14 9 14 20 0 16
-7 20 -30 20 -26 0 -30 -4 -30 -26z"/>
<path d="M2653 1063 c-15 -5 -18 -53 -3 -53 9 0 26 48 19 54 -2 2 -10 1 -16
-1z"/>
<path d="M2770 1040 c0 -21 4 -30 13 -27 6 2 12 14 12 27 0 13 -6 25 -12 28
-9 2 -13 -7 -13 -28z"/>
<path d="M2910 1035 c0 -19 4 -35 10 -35 12 0 24 45 15 59 -13 22 -25 10 -25
-24z"/>
<path d="M3585 970 c-3 -5 -5 -10 -3 -10 13 0 217 -74 234 -85 11 -7 26 -10
33 -5 25 15 -24 47 -120 79 -98 32 -134 38 -144 21z"/>
<path d="M3430 949 c0 -7 8 -18 18 -25 16 -12 16 -14 -3 -28 -11 -8 -26 -16
-32 -16 -7 0 -13 -4 -13 -9 0 -17 19 -23 49 -16 23 5 30 13 36 42 5 27 2 38
-12 49 -22 16 -43 18 -43 3z"/>
<path d="M3240 876 c0 -12 11 -16 46 -16 59 0 55 24 -4 28 -33 2 -42 0 -42
-12z"/>
<path d="M3346 871 c-3 -5 0 -11 8 -14 15 -6 26 1 26 15 0 11 -27 10 -34 -1z"/>
<path d="M4108 793 c-2 -16 -2 -181 2 -368 l6 -340 2 368 c1 202 0 367 -2 367
-2 0 -5 -12 -8 -27z"/>
<path d="M1500 796 c0 -8 17 -16 46 -20 50 -6 64 -2 64 20 0 10 -14 14 -55 14
-40 0 -55 -4 -55 -14z"/>
<path d="M1908 455 c-4 -5 -67 -10 -140 -12 -73 -2 -164 -5 -203 -7 -38 -3
-76 -5 -82 -5 -7 -1 -13 -8 -13 -17 0 -15 19 -16 201 -9 111 4 216 11 233 16
47 14 155 11 219 -6 70 -18 67 -18 67 0 0 8 -17 19 -37 25 -46 14 -235 25
-245 15z"/>
<path d="M2708 395 c-4 -4 -4 -13 -2 -20 7 -17 -66 -29 -141 -23 -30 3 -55 1
-55 -3 0 -19 45 -29 130 -29 82 0 92 2 97 19 4 16 9 18 36 10 18 -5 67 -9 110
-9 69 0 78 2 75 18 -3 14 -19 18 -93 24 -50 3 -104 9 -120 13 -17 4 -33 4 -37
0z"/>
<path d="M2410 356 c0 -11 10 -16 31 -16 38 0 35 24 -4 28 -19 2 -27 -1 -27
-12z"/>
<path d="M1039 346 c15 -17 60 -27 68 -14 8 14 -17 28 -51 28 -23 0 -26 -3
-17 -14z"/>
<path d="M2721 237 c-5 -13 -16 -29 -25 -36 -19 -16 -21 -41 -3 -41 16 0 41
27 51 54 5 15 9 17 19 7 9 -9 7 -20 -11 -51 -38 -67 -28 -84 43 -67 69 17 347
24 370 10 26 -17 55 -16 55 2 0 21 -80 56 -102 44 -10 -5 -64 -7 -125 -3 -82
5 -122 3 -165 -9 -56 -15 -69 -12 -48 9 6 6 14 24 19 41 7 25 6 35 -8 47 -26
24 -60 20 -70 -7z"/>
<path d="M2130 230 c-9 -16 -21 -20 -69 -20 -40 0 -63 -5 -71 -15 -16 -19
-111 -20 -153 -1 -32 14 -116 36 -138 36 -7 0 -9 -9 -5 -24 5 -21 2 -24 -32
-30 -64 -10 -102 -7 -143 15 -37 19 -42 19 -58 5 -10 -9 -23 -16 -29 -16 -7 0
-12 -9 -12 -20 0 -23 21 -26 49 -8 15 9 25 9 46 0 27 -12 161 -17 189 -6 9 3
16 13 16 21 0 17 42 13 117 -13 54 -17 143 -16 150 2 4 10 25 14 77 14 79 0
96 9 96 52 0 33 -15 37 -30 8z"/>
<path d="M2647 230 c-15 -18 -30 -20 -136 -19 -98 1 -126 -2 -164 -19 -39 -17
-52 -19 -89 -10 -24 6 -47 15 -52 19 -19 17 -37 10 -34 -13 4 -31 108 -57 153
-38 19 8 86 15 178 17 156 3 177 9 177 52 0 29 -14 33 -33 11z"/>
<path d="M1399 224 c-10 -12 -24 -15 -61 -10 -61 8 -150 -3 -145 -18 2 -6 32
-12 71 -12 38 -1 81 -5 97 -8 21 -4 35 0 54 18 14 13 25 28 25 35 0 16 -26 13
-41 -5z"/>
<path d="M1005 180 c-10 -17 26 -31 72 -28 34 2 48 7 48 18 0 11 -14 15 -58
16 -31 1 -59 -2 -62 -6z"/>
<path d="M3236 163 c-12 -30 14 -43 81 -43 44 0 79 -7 110 -21 43 -20 70 -16
55 7 -15 24 -73 44 -129 44 -32 0 -70 6 -85 14 -23 12 -27 12 -32 -1z"/>
<path d="M910 160 c-8 -5 -25 -10 -37 -10 -24 0 -31 -14 -13 -25 12 -7 87 14
115 32 18 12 17 13 -15 13 -19 0 -42 -5 -50 -10z"/>
<path d="M1184 155 c-13 -10 -45 -14 -101 -15 -72 0 -84 -3 -93 -20 -13 -24 8
-37 36 -22 9 5 44 8 78 5 54 -3 65 -1 91 21 20 18 26 29 19 36 -7 7 -16 5 -30
-5z"/>
<path d="M1287 164 c-15 -15 -6 -24 23 -24 17 0 30 -4 30 -9 0 -5 -13 -15 -30
-23 -33 -14 -37 -23 -17 -31 24 -9 97 30 97 52 0 11 -3 22 -7 24 -16 10 -89
18 -96 11z"/>
<path d="M66 152 c-3 -5 -2 -21 3 -34 8 -20 10 -21 16 -6 8 20 -9 56 -19 40z"/>
<path d="M654 150 c-29 -4 -58 -11 -65 -16 -8 -5 -68 -9 -134 -10 -81 -1 -139
-7 -178 -18 -106 -32 -48 -51 73 -25 25 6 79 7 120 4 63 -6 84 -3 131 14 48
18 83 24 187 30 6 1 12 7 12 15 0 15 -62 18 -146 6z"/>
<path d="M132 98 c2 -17 11 -24 31 -26 31 -4 35 8 9 31 -26 24 -44 21 -40 -5z"/>
<path d="M603 3 c9 -2 25 -2 35 0 9 3 1 5 -18 5 -19 0 -27 -2 -17 -5z"/>
</g>
</svg>
