<?xml version="1.0" standalone="no"?>
<!DOCTYPE svg PUBLIC "-//W3C//DTD SVG 20010904//EN"
 "http://www.w3.org/TR/2001/REC-SVG-20010904/DTD/svg10.dtd">
<svg version="1.0" xmlns="http://www.w3.org/2000/svg"
 width="256.000000pt" height="304.000000pt" viewBox="0 0 256.000000 304.000000"
 preserveAspectRatio="xMidYMid meet">
<metadata>
Created by potrace 1.16, written by Peter Selinger 2001-2019
</metadata>
<g transform="translate(0.000000,304.000000) scale(0.100000,-0.100000)"
fill="#000000" stroke="none">
<path d="M387 3021 c-10 -10 -39 -26 -65 -35 -61 -22 -75 -30 -80 -44 -7 -22
46 -13 110 18 50 24 74 30 129 30 37 0 71 -4 74 -10 4 -6 -21 -10 -68 -10 -56
0 -78 -4 -88 -16 -7 -9 -23 -20 -36 -25 -13 -5 -23 -13 -23 -19 0 -20 31 -22
51 -4 23 21 161 32 140 11 -16 -16 -14 -37 4 -37 8 0 15 -4 15 -9 0 -10 -58
-21 -112 -21 -53 0 -128 -22 -128 -37 0 -15 22 -16 87 -4 82 16 203 23 203 11
0 -5 -13 -10 -28 -10 -16 0 -37 -9 -47 -20 -16 -18 -16 -20 -2 -20 10 0 17 -5
17 -10 0 -6 -6 -10 -12 -8 -7 1 -35 -13 -63 -30 -27 -18 -67 -35 -87 -39 -45
-7 -53 -33 -9 -33 42 0 91 20 131 52 36 29 102 38 139 19 9 -5 23 -6 30 -1 22
13 5 40 -29 46 -16 4 -30 13 -30 20 0 10 7 13 25 8 42 -10 58 -10 62 3 3 8
-13 17 -41 25 -25 7 -46 17 -46 24 0 7 -6 14 -12 17 -7 3 -21 19 -31 36 -16
27 -16 31 -3 31 12 0 16 10 16 39 0 22 -5 43 -10 46 -6 4 -8 11 -5 16 4 5 -28
9 -77 8 -67 0 -87 -4 -101 -18z"/>
<path d="M1050 3017 c16 -14 34 -49 48 -94 23 -72 37 -89 63 -72 8 5 26 9 41
9 15 0 30 5 33 10 4 6 -12 10 -40 10 -44 0 -47 2 -62 38 -9 20 -16 51 -17 67
-1 37 -21 54 -61 54 l-30 0 25 -22z"/>
<path d="M1182 3015 c-6 -14 -18 -25 -27 -25 -13 0 -13 -3 -3 -20 19 -29 37
-24 53 14 8 19 23 40 32 45 15 9 13 10 -13 11 -23 0 -34 -6 -42 -25z"/>
<path d="M1996 3026 c8 -21 -13 -29 -76 -27 -49 1 -63 -2 -88 -24 -16 -14 -33
-37 -36 -51 -12 -46 -83 -93 -100 -65 -3 4 -20 11 -38 15 -46 9 -79 43 -71 74
8 34 -19 25 -31 -11 -8 -22 -5 -30 24 -57 18 -16 52 -35 76 -41 25 -6 47 -15
50 -20 9 -15 44 -10 51 8 9 22 54 62 71 63 8 0 25 9 39 20 14 11 34 20 45 20
30 0 81 29 106 61 13 16 31 29 40 29 9 0 24 5 32 10 11 7 -2 10 -42 10 -45 0
-56 -3 -52 -14z"/>
<path d="M2118 3033 c7 -3 16 -2 19 1 4 3 -2 6 -13 5 -11 0 -14 -3 -6 -6z"/>
<path d="M2208 3032 c12 -8 72 -4 72 4 0 2 -19 4 -42 4 -26 0 -38 -4 -30 -8z"/>
<path d="M2426 3025 c-4 -12 3 -15 33 -15 45 0 71 8 71 21 0 16 -97 11 -104
-6z"/>
<path d="M2130 2995 c-9 -11 -22 -14 -39 -10 -22 5 -31 0 -50 -25 -30 -41 -40
-100 -17 -100 9 0 16 8 16 18 0 10 7 27 15 38 14 19 15 18 21 -4 4 -14 12 -21
20 -18 8 3 14 -1 14 -9 0 -26 16 -16 43 26 28 42 31 56 21 83 -8 20 -28 20
-44 1z m20 -35 c0 -5 -5 -10 -11 -10 -5 0 -7 5 -4 10 3 6 8 10 11 10 2 0 4 -4
4 -10z m-20 -24 c0 -3 -4 -8 -10 -11 -5 -3 -10 -1 -10 4 0 6 5 11 10 11 6 0
10 -2 10 -4z"/>
<path d="M2340 3000 c-13 -8 -13 -11 2 -26 16 -17 18 -17 38 1 11 10 20 22 20
27 0 11 -41 10 -60 -2z"/>
<path d="M194 2989 c-10 -17 13 -36 27 -22 12 12 4 33 -11 33 -5 0 -12 -5 -16
-11z"/>
<path d="M640 2989 c0 -6 10 -25 23 -42 12 -18 30 -48 41 -67 42 -80 81 -106
126 -83 18 9 45 16 59 17 16 1 27 8 29 19 4 21 -17 22 -71 3 -34 -13 -39 -12
-44 2 -10 27 -34 51 -47 46 -7 -3 -17 6 -23 19 -14 30 -72 97 -84 97 -5 0 -9
-5 -9 -11z"/>
<path d="M1230 2990 c0 -15 38 -50 55 -50 23 0 18 26 -10 44 -28 18 -45 21
-45 6z"/>
<path d="M1368 2975 c-13 -29 -28 -33 -28 -7 0 14 -2 15 -10 2 -22 -34 -1 -68
33 -54 15 5 47 56 47 73 0 21 -31 11 -42 -14z"/>
<path d="M1488 2983 c-20 -24 -30 -53 -18 -53 16 0 60 42 60 57 0 19 -24 16
-42 -4z"/>
<path d="M2505 2991 c-3 -6 -24 -15 -46 -21 -37 -10 -59 -33 -46 -46 7 -7 127
36 127 46 0 15 -28 31 -35 21z"/>
<path d="M133 2954 c-7 -18 3 -29 35 -39 32 -9 30 28 -3 43 -21 10 -27 9 -32
-4z"/>
<path d="M2257 2960 c-44 -8 -44 -8 -52 -43 -6 -21 -4 -27 9 -27 10 0 16 8 16
22 0 16 3 19 11 11 14 -14 82 14 76 31 -4 13 -16 15 -60 6z"/>
<path d="M80 2946 c0 -9 5 -16 10 -16 6 0 10 4 10 9 0 6 -4 13 -10 16 -5 3
-10 -1 -10 -9z"/>
<path d="M2547 2923 c-11 -10 -8 -43 3 -43 6 0 10 11 10 25 0 26 -2 29 -13 18z"/>
<path d="M1464 2876 c-3 -8 -15 -11 -31 -8 -33 6 -27 -18 8 -35 75 -36 172
-73 229 -88 81 -21 122 -39 185 -82 27 -18 58 -33 67 -33 11 0 15 -5 12 -15
-4 -8 -4 -15 -2 -15 18 0 110 -42 133 -61 116 -97 172 -149 183 -170 7 -13 28
-58 47 -99 46 -100 93 -183 108 -191 7 -4 45 -5 85 -2 63 5 72 8 72 25 0 17
-5 19 -47 13 -27 -3 -58 -8 -69 -10 -18 -4 -29 7 -61 63 -46 79 -123 236 -123
250 0 6 6 12 13 15 6 2 -2 4 -18 5 -23 0 -45 14 -85 54 -70 68 -118 103 -167
123 -21 8 -44 25 -52 37 -12 19 -11 20 11 13 12 -4 41 -10 63 -12 30 -3 44
-11 50 -26 9 -18 18 -22 65 -22 121 -1 165 -5 150 -15 -8 -5 -12 -12 -8 -15 3
-4 18 1 31 10 24 15 25 17 9 36 -14 16 -30 19 -119 19 -81 0 -103 3 -103 14 0
16 35 27 47 15 4 -4 26 -4 48 1 22 5 74 14 115 20 87 14 144 35 135 50 -8 14
-26 13 -77 -4 -58 -20 -168 -32 -168 -18 0 5 29 13 65 17 60 6 86 18 71 32 -5
5 -61 -3 -159 -24 -17 -3 -33 -15 -39 -29 -9 -20 -19 -24 -54 -24 -24 0 -46 5
-49 10 -3 6 -15 10 -26 10 -10 0 -19 -4 -19 -10 0 -5 -7 -10 -15 -10 -8 0 -15
4 -15 8 0 11 -60 32 -106 36 -53 5 -234 61 -297 91 -28 14 -58 25 -66 25 -12
0 -12 3 -3 12 7 7 12 16 12 20 0 14 -30 9 -36 -6z m446 -196 c0 -5 -4 -10 -10
-10 -5 0 -10 5 -10 10 0 6 5 10 10 10 6 0 10 -4 10 -10z"/>
<path d="M230 2866 c-7 -9 -23 -16 -36 -16 -34 0 -39 -18 -9 -30 36 -14 42
-13 48 8 6 27 47 36 47 11 0 -10 5 -19 10 -19 6 0 9 12 7 28 -3 20 -10 28 -29
30 -13 2 -31 -4 -38 -12z"/>
<path d="M2380 2850 c-11 -6 -12 -12 -4 -20 8 -8 18 -5 35 9 22 19 23 20 4 21
-11 0 -27 -5 -35 -10z"/>
<path d="M1920 2825 c0 -28 15 -34 24 -9 10 25 7 34 -9 34 -9 0 -15 -9 -15
-25z"/>
<path d="M2086 2825 c-21 -19 -26 -31 -20 -48 3 -12 3 -19 -1 -15 -9 8 -35 -9
-35 -23 0 -5 9 -13 21 -19 17 -10 24 -7 44 14 15 16 24 37 23 54 -1 15 2 35 6
45 12 25 -7 21 -38 -8z m14 -35 c0 -5 -4 -10 -10 -10 -5 0 -10 5 -10 10 0 6 5
10 10 10 6 0 10 -4 10 -10z"/>
<path d="M2300 2821 c0 -11 9 -23 22 -27 12 -3 28 -13 36 -21 8 -8 22 -11 30
-8 9 3 35 9 59 12 24 3 43 10 43 14 0 5 -3 9 -7 9 -5 1 -34 2 -66 3 -44 2 -61
6 -68 20 -14 24 -49 22 -49 -2z"/>
<path d="M1230 2822 c0 -4 30 -16 68 -26 37 -10 86 -26 109 -37 23 -10 49 -19
58 -19 22 0 94 -39 139 -76 l38 -32 -34 -5 c-18 -2 -34 -1 -36 4 -2 5 -9 9
-16 9 -8 0 -24 8 -37 18 -42 32 -220 89 -364 116 -75 15 -275 10 -275 -6 0
-18 52 -27 183 -32 141 -5 210 -19 305 -62 29 -13 64 -24 77 -24 18 0 25 -5
25 -20 0 -13 7 -20 20 -20 12 0 32 -7 45 -16 15 -10 36 -14 52 -11 23 4 72 -8
138 -34 11 -4 30 -11 43 -14 12 -4 22 -12 22 -20 0 -8 9 -17 20 -20 11 -3 20
-10 20 -15 0 -11 67 -78 150 -150 126 -110 218 -206 246 -257 17 -33 35 -53
46 -53 9 0 22 -8 27 -17 8 -16 4 -18 -32 -19 -58 -1 -136 -31 -174 -67 -28
-26 -36 -29 -75 -23 -41 6 -75 -4 -71 -21 1 -4 -9 -6 -24 -5 -36 5 -26 -12 32
-56 28 -21 57 -52 65 -69 8 -17 30 -44 48 -61 18 -17 41 -50 52 -74 10 -24 31
-55 45 -68 15 -14 33 -37 41 -51 14 -28 52 -41 77 -27 9 4 27 33 41 63 20 43
24 66 20 103 -4 37 -1 57 18 92 21 42 24 44 39 29 15 -15 14 -23 -12 -99 -33
-95 -34 -100 -15 -100 21 0 87 201 79 240 -3 18 -12 34 -19 37 -9 3 -14 22
-14 56 0 28 -4 64 -9 81 -31 104 -37 121 -46 116 -5 -3 -9 -12 -8 -20 1 -8 5
-68 7 -132 5 -110 -2 -160 -25 -178 -13 -9 -29 -85 -29 -135 0 -54 -11 -82
-29 -71 -6 4 -16 -4 -23 -18 -12 -28 -28 -35 -28 -12 0 8 -14 27 -31 43 -39
36 -62 79 -54 103 4 13 2 20 -7 20 -14 1 -45 25 -66 51 -10 14 -9 16 13 14 14
-2 27 1 31 6 3 5 -4 9 -15 9 -14 0 -21 6 -21 18 0 10 -7 27 -15 38 -20 27 -19
40 3 21 13 -12 22 -13 36 -5 17 10 18 8 12 -25 -5 -26 -3 -36 9 -41 8 -3 15
-12 15 -21 0 -8 6 -15 14 -15 9 0 14 12 14 35 0 22 -5 35 -13 35 -23 0 -27 33
-6 54 17 16 26 18 48 10 17 -6 29 -18 31 -32 2 -15 10 -22 24 -22 18 0 20 -5
15 -40 -6 -45 -5 -46 17 -24 11 10 16 34 16 71 0 40 5 59 16 68 33 24 15 233
-27 303 -10 18 -19 39 -19 47 0 15 -21 55 -65 125 -35 56 -66 90 -82 90 -22 0
-14 -30 17 -63 16 -17 35 -45 42 -62 6 -16 15 -32 18 -35 13 -10 30 -74 30
-109 -1 -36 -1 -36 -36 29 -38 72 -41 77 -101 170 -53 82 -255 270 -290 270
-24 0 -13 -37 20 -68 47 -45 87 -88 87 -94 0 -3 23 -28 50 -55 54 -55 68 -88
23 -54 -16 11 -43 35 -61 53 -182 186 -291 276 -397 330 -81 42 -295 85 -295
60z m1047 -874 c6 -7 13 -25 17 -40 5 -21 3 -28 -9 -28 -8 0 -15 8 -15 18 0 9
-4 13 -8 7 -11 -15 -142 -13 -142 3 0 7 13 12 33 12 17 1 48 9 67 20 42 23 45
23 57 8z m-274 -112 c4 -10 1 -13 -9 -9 -15 6 -19 23 -5 23 5 0 11 -7 14 -14z
m424 -78 c-3 -7 -5 -2 -5 12 0 14 2 19 5 13 2 -7 2 -19 0 -25z"/>
<path d="M68 2795 c-8 -9 6 -78 18 -82 6 -2 10 13 10 38 -1 38 -13 58 -28 44z"/>
<path d="M1865 2781 c-6 -10 9 -19 65 -36 24 -7 24 -7 8 16 -16 25 -62 37 -73
20z"/>
<path d="M132 2758 c6 -16 73 -32 96 -23 13 6 8 11 -23 21 -52 16 -78 17 -73
2z"/>
<path d="M316 2728 c-18 -26 -15 -32 13 -23 12 3 21 15 21 26 0 25 -15 24 -34
-3z"/>
<path d="M122 2699 c-9 -11 -24 -19 -34 -19 -29 0 -31 -19 -3 -30 38 -14 44
-13 38 10 -5 18 0 20 37 20 40 0 42 -1 36 -25 -6 -22 -3 -25 20 -25 23 0 25 2
13 17 -8 9 -14 26 -14 37 0 30 -71 41 -93 15z"/>
<path d="M665 2706 c-67 -21 -88 -32 -130 -70 -22 -20 -50 -39 -62 -42 -13 -4
-23 -10 -23 -15 0 -16 32 -23 49 -11 9 7 61 34 115 62 79 40 109 50 149 50 42
0 48 -2 38 -14 -7 -8 -27 -18 -44 -21 -71 -15 -134 -41 -178 -72 -26 -18 -49
-33 -52 -33 -3 0 -17 -11 -31 -25 -14 -14 -31 -25 -38 -25 -21 -1 -78 -93 -78
-127 0 -16 -4 -43 -10 -59 -5 -16 -14 -60 -19 -99 -8 -56 -7 -75 4 -99 8 -16
15 -42 15 -57 0 -15 5 -29 11 -31 8 -3 5 -17 -8 -43 -46 -91 -63 -131 -63
-151 0 -26 -21 -31 -172 -43 -106 -8 -138 -19 -138 -48 0 -11 5 -13 18 -7 9 4
56 9 104 12 l86 4 7 -104 c12 -201 12 -204 -13 -230 -19 -21 -23 -37 -26 -124
-3 -91 -5 -102 -34 -144 -17 -25 -34 -58 -37 -73 -4 -15 -11 -27 -16 -27 -22
0 -6 -21 26 -34 19 -8 36 -21 37 -28 0 -7 2 -17 3 -23 0 -5 15 -39 33 -74 24
-47 32 -76 32 -117 0 -39 4 -55 17 -62 9 -6 14 -16 10 -25 -3 -9 1 -23 9 -32
13 -13 13 -17 -6 -37 -12 -13 -28 -35 -37 -49 -8 -14 -27 -31 -42 -38 -58 -26
-68 -37 -106 -105 -43 -77 -46 -87 -28 -93 7 -3 22 17 35 44 13 26 26 50 29
53 4 3 8 14 11 25 2 11 11 20 20 20 10 0 23 6 30 13 6 6 26 12 43 12 19 0 39
8 50 20 18 20 37 27 33 12 -5 -14 53 -61 67 -55 9 3 17 -5 21 -23 4 -16 17
-37 28 -47 15 -13 17 -20 9 -23 -21 -9 -16 -77 6 -91 25 -16 61 -5 61 18 0 24
-18 33 -36 18 -19 -16 -30 -4 -14 16 13 16 40 19 78 9 19 -6 20 -8 7 -18 -18
-14 -25 -77 -8 -83 7 -2 15 7 19 21 3 14 11 26 16 26 6 0 8 9 5 20 -4 16 0 20
23 20 36 0 68 -44 52 -71 -13 -20 -6 -30 14 -22 8 3 11 10 8 17 -3 6 13 -8 36
-32 30 -31 40 -49 37 -64 -3 -11 -1 -28 5 -38 9 -14 8 -22 -5 -34 -8 -9 -23
-16 -31 -16 -17 0 -21 -17 -8 -37 6 -9 17 -6 44 12 34 23 36 28 40 87 5 87 0
110 -22 103 -12 -4 -25 5 -43 27 -64 84 -94 108 -130 108 -19 0 -48 7 -63 15
-16 8 -38 15 -49 15 -20 1 -58 68 -87 151 -6 19 -16 37 -22 41 -8 5 -7 8 1 8
7 0 10 7 7 15 -4 8 -10 12 -16 9 -5 -3 -19 5 -31 18 -45 49 -57 76 -57 133 0
39 -8 73 -26 112 -14 31 -28 69 -31 84 -3 15 -18 39 -34 54 l-29 25 19 38 c11
20 29 50 39 65 15 23 18 43 16 106 -2 52 2 85 11 102 39 69 46 95 40 144 -17
144 -17 186 2 223 18 37 18 37 21 10 2 -15 -2 -36 -7 -47 -24 -43 -3 -120 21
-77 5 9 15 16 23 16 11 0 10 -8 -5 -42 -13 -31 -19 -72 -21 -143 -4 -150 2
-330 11 -346 5 -8 4 -19 -2 -26 -15 -19 -4 -114 22 -193 12 -35 23 -79 25 -97
2 -23 15 -44 45 -72 34 -31 41 -44 37 -63 -7 -24 9 -94 27 -116 8 -11 5 -13
-9 -10 -24 4 -30 -21 -12 -46 11 -16 17 -17 36 -6 15 8 20 17 16 28 -4 9 -13
47 -22 85 -15 64 -14 70 5 116 18 39 20 60 15 120 -6 71 -5 73 26 105 34 36
31 55 -6 31 -29 -20 -29 -15 2 21 13 15 27 41 31 57 3 16 17 38 30 50 13 11
24 24 24 29 0 13 -22 9 -40 -7 -15 -14 -20 -13 -43 5 -14 11 -30 20 -36 20
-20 0 -12 -37 9 -43 11 -3 23 -12 26 -21 9 -25 -17 -71 -48 -85 -27 -12 -28
-15 -23 -64 3 -28 9 -55 13 -61 10 -16 2 -48 -20 -78 -16 -23 -22 -26 -38 -16
-10 6 -16 17 -13 25 3 7 0 27 -6 45 -9 26 -9 34 4 40 8 5 15 18 15 30 0 15 -5
19 -20 15 -13 -3 -24 1 -30 13 -13 24 -13 60 -1 60 6 0 13 20 17 45 3 25 9 45
13 45 4 0 23 -18 41 -40 37 -44 50 -50 50 -21 0 27 -10 51 -22 51 -5 0 -22 9
-38 20 -15 11 -30 17 -32 14 -3 -3 -9 11 -12 31 -4 20 -14 39 -23 42 -14 6
-14 8 1 19 10 7 18 26 18 43 1 17 6 31 13 31 16 0 29 168 16 203 -6 16 -7 38
-1 58 6 21 6 37 0 43 -12 12 -35 -41 -45 -104 -4 -25 -11 -52 -15 -60 -13 -23
0 110 15 155 7 22 21 74 30 115 10 41 30 104 45 140 15 36 36 86 46 112 15 37
23 46 37 42 12 -4 17 0 17 15 0 12 -4 21 -10 21 -5 0 -10 12 -10 28 0 29 -15
60 -25 50 -3 -3 -7 -25 -8 -50 -2 -24 -11 -55 -20 -68 -9 -14 -17 -31 -17 -40
0 -26 -73 -160 -87 -160 -21 0 -15 25 15 74 16 25 43 89 61 143 18 54 39 112
46 128 7 17 16 57 20 90 10 91 42 170 93 226 24 27 50 49 58 49 7 0 23 14 36
30 26 36 77 65 91 51 5 -5 16 -8 23 -5 8 2 21 6 29 9 11 3 13 10 5 30 -8 22
-6 26 16 31 17 4 29 2 35 -7 5 -9 9 -10 9 -2 0 6 16 21 35 33 31 19 47 21 150
19 113 -2 160 5 94 15 -224 32 -422 42 -484 22z m-4 -152 c-11 -14 -40 -39
-64 -53 -23 -15 -55 -42 -69 -60 -25 -29 -107 -75 -117 -66 -10 11 55 78 97
99 26 14 62 38 80 55 34 31 84 62 91 56 2 -2 -6 -16 -18 -31z m-191 -231 c0
-7 -4 -21 -9 -31 -5 -9 -15 -44 -21 -77 -14 -71 -29 -105 -46 -105 -19 0 -22
21 -12 80 5 30 11 67 13 82 6 42 27 68 52 66 13 -2 23 -8 23 -15z m-110 -933
c0 -5 -4 -10 -10 -10 -5 0 -10 5 -10 10 0 6 5 10 10 10 6 0 10 -4 10 -10z
m-20 -261 c0 -6 -4 -7 -10 -4 -5 3 -10 11 -10 16 0 6 5 7 10 4 6 -3 10 -11 10
-16z"/>
<path d="M427 2643 c-4 -3 -40 -10 -79 -14 -40 -4 -101 -13 -136 -20 -45 -8
-69 -9 -85 -1 -39 18 -89 32 -98 26 -16 -10 0 -22 50 -39 27 -9 69 -29 94 -46
43 -29 77 -31 77 -5 0 18 43 56 63 56 9 0 19 5 22 10 4 7 13 6 26 -1 15 -8 18
-14 10 -23 -17 -20 10 -40 31 -23 18 15 48 63 48 77 0 11 -13 13 -23 3z"/>
<path d="M1030 2639 c0 -20 50 -59 76 -59 28 0 43 25 25 43 -9 9 -16 9 -29 0
-15 -9 -21 -7 -30 8 -13 21 -42 26 -42 8z"/>
<path d="M2040 2631 c0 -5 5 -13 10 -16 6 -3 10 -2 10 4 0 5 -4 13 -10 16 -5
3 -10 2 -10 -4z"/>
<path d="M0 2598 c0 -17 49 -58 69 -58 9 0 27 -7 39 -16 16 -11 21 -21 16 -40
-6 -23 -4 -24 43 -24 27 0 54 5 60 11 8 8 13 8 17 0 8 -13 106 -15 106 -2 0
13 -26 21 -68 21 -79 0 -143 12 -138 26 5 14 -52 64 -73 64 -7 0 -25 7 -41 15
-23 12 -30 12 -30 3z"/>
<path d="M925 2601 c-3 -5 4 -12 15 -15 11 -3 29 -9 40 -12 15 -4 20 -1 20 15
0 17 -6 21 -34 21 -19 0 -37 -4 -41 -9z"/>
<path d="M2188 2578 c7 -7 12 -20 12 -31 0 -10 5 -17 13 -14 6 2 11 6 9 8 -1
2 -5 14 -8 27 -4 12 -13 22 -22 22 -12 0 -13 -3 -4 -12z"/>
<path d="M1403 2560 c-40 -16 -27 -32 20 -25 50 9 59 13 52 26 -8 11 -43 11
-72 -1z"/>
<path d="M733 2510 c-12 -31 -6 -39 15 -18 13 13 16 48 4 48 -4 0 -13 -13 -19
-30z"/>
<path d="M801 2498 c-1 -23 3 -28 24 -28 16 0 25 6 25 15 0 8 -9 15 -19 15
-11 0 -22 6 -24 13 -3 6 -6 0 -6 -15z"/>
<path d="M2200 2500 c0 -5 11 -10 25 -10 14 0 25 5 25 10 0 6 -11 10 -25 10
-14 0 -25 -4 -25 -10z"/>
<path d="M681 2444 c-20 -20 -21 -24 -8 -30 26 -10 40 0 41 29 2 32 -2 32 -33
1z"/>
<path d="M2370 2459 c0 -5 5 -7 10 -4 6 3 10 8 10 11 0 2 -4 4 -10 4 -5 0 -10
-5 -10 -11z"/>
<path d="M890 2421 c0 -12 29 -23 41 -15 5 3 7 10 4 15 -8 12 -45 12 -45 0z"/>
<path d="M1040 2391 c0 -26 16 -35 24 -15 10 25 7 34 -9 34 -8 0 -15 -9 -15
-19z"/>
<path d="M2488 2393 c-16 -2 -28 -11 -28 -19 0 -10 13 -14 50 -14 43 0 50 3
50 20 0 21 -10 22 -72 13z"/>
<path d="M880 2370 c0 -5 7 -10 15 -10 8 0 15 5 15 10 0 6 -7 10 -15 10 -8 0
-15 -4 -15 -10z"/>
<path d="M1140 2373 c0 -20 34 -83 44 -80 21 7 16 27 -13 59 -17 18 -31 28
-31 21z"/>
<path d="M1337 2372 c-8 -11 31 -44 43 -37 13 8 13 35 1 35 -5 0 -16 3 -24 6
-8 3 -17 1 -20 -4z"/>
<path d="M936 2341 c-4 -7 -5 -15 -2 -18 9 -9 19 4 14 18 -4 11 -6 11 -12 0z"/>
<path d="M1300 2341 c0 -17 18 -21 24 -6 3 9 0 15 -9 15 -8 0 -15 -4 -15 -9z"/>
<path d="M995 2319 c-10 -16 2 -23 41 -26 24 -1 34 2 31 10 -2 7 -12 12 -23
12 -10 0 -24 3 -31 8 -6 4 -15 2 -18 -4z"/>
<path d="M1263 2301 c3 -13 0 -24 -9 -29 -12 -6 -12 -13 -2 -35 7 -15 16 -27
21 -27 4 0 7 -6 7 -14 0 -20 38 -27 55 -10 17 17 29 53 21 62 -3 3 -13 -3 -21
-14 -13 -17 -14 -17 -15 -1 0 10 -8 17 -20 17 -16 0 -20 6 -18 31 2 20 -2 34
-11 37 -10 3 -12 -1 -8 -17z"/>
<path d="M1095 2258 c-3 -7 -6 -42 -8 -77 -2 -36 -8 -66 -15 -69 -17 -5 -2
-32 19 -32 10 0 33 6 51 14 18 8 45 17 61 21 23 5 27 10 27 40 0 19 -4 35 -9
35 -5 0 -11 12 -13 28 -4 34 -33 38 -32 3 1 -24 -27 -61 -46 -61 -5 0 -10 25
-10 55 0 50 -14 74 -25 43z m35 -118 c0 -5 -4 -10 -10 -10 -5 0 -10 5 -10 10
0 6 5 10 10 10 6 0 10 -4 10 -10z"/>
<path d="M1518 2187 c-16 -13 -28 -28 -28 -34 0 -24 18 -22 49 6 52 47 33 72
-21 28z"/>
<path d="M1360 2157 c0 -10 -10 -15 -32 -13 -29 1 -33 -2 -33 -24 0 -21 5 -26
33 -28 36 -4 39 -9 17 -38 -8 -10 -15 -27 -15 -36 0 -25 -15 -22 -33 6 -23 34
-84 69 -110 63 -12 -3 -62 -23 -112 -45 -77 -34 -91 -37 -100 -25 -10 13 -20
11 -71 -15 -33 -17 -66 -37 -73 -46 -8 -9 -22 -16 -32 -16 -40 0 -14 -32 34
-44 27 -7 85 17 128 53 9 7 41 22 70 32 40 14 49 15 35 4 -11 -8 -23 -15 -28
-15 -4 0 -8 -7 -8 -15 0 -8 7 -15 15 -15 22 0 18 -17 -6 -23 -16 -4 -19 -10
-14 -29 7 -21 5 -20 -18 7 -22 25 -27 27 -33 12 -9 -25 2 -46 30 -57 56 -21
56 -105 1 -123 -17 -6 -33 -15 -37 -21 -5 -7 -16 -5 -37 7 -40 23 -45 22 -67
-19 l-19 -35 28 -24 c39 -35 35 -46 -18 -38 -33 4 -51 1 -70 -11 -14 -9 -25
-14 -25 -10 0 6 -34 -35 -67 -83 -20 -28 -52 -92 -85 -173 -6 -14 -11 -38 -12
-54 -1 -26 -6 -30 -55 -42 -66 -17 -71 -21 -71 -45 0 -20 10 -24 26 -10 5 4
44 16 87 26 60 14 77 22 77 35 0 10 -7 20 -15 24 -22 8 -18 44 10 101 14 28
25 55 25 61 0 6 9 19 20 29 11 10 20 24 20 30 0 7 18 29 40 49 56 50 96 50
130 -2 14 -20 32 -49 40 -64 11 -23 20 -28 51 -28 21 0 41 5 44 10 3 6 10 10
16 10 5 0 9 -4 9 -10 0 -5 -7 -10 -15 -10 -8 0 -15 -9 -15 -20 0 -22 -28 -27
-58 -10 -33 19 -136 40 -146 30 -14 -14 22 -39 59 -41 60 -4 95 -16 95 -33 0
-7 14 -22 30 -34 36 -27 41 -70 9 -90 -18 -12 -25 -10 -56 14 -20 15 -43 40
-52 55 -18 33 -41 45 -41 23 0 -21 29 -63 72 -105 35 -33 36 -36 21 -52 -13
-13 -14 -19 -5 -29 7 -7 12 -20 12 -29 0 -25 30 -28 68 -6 37 22 44 7 7 -17
-39 -25 -100 -21 -135 11 -17 14 -30 31 -30 37 0 5 -9 19 -20 31 -16 17 -19
27 -12 46 12 33 -4 90 -23 83 -17 -7 -20 -30 -4 -39 7 -5 4 -14 -7 -26 -13
-15 -31 -19 -76 -19 -49 0 -58 -3 -58 -17 0 -15 8 -18 55 -15 50 4 59 1 81
-23 18 -19 22 -33 18 -51 -4 -17 -1 -31 11 -44 10 -11 13 -20 8 -20 -6 0 -16
7 -24 16 -23 28 -69 47 -84 34 -10 -8 -19 -5 -39 15 -28 28 -66 34 -66 10 0
-9 12 -18 30 -21 33 -7 39 -18 15 -28 -11 -4 -15 -20 -15 -56 0 -27 -4 -50
-10 -50 -18 0 -10 -59 15 -112 14 -28 23 -54 20 -56 -5 -5 -39 16 -74 47 -29
25 -37 26 -45 5 -10 -25 -7 -34 11 -34 9 0 26 -9 37 -19 32 -30 142 -63 200
-60 55 3 65 -6 41 -34 -17 -20 -20 -70 -5 -98 8 -14 7 -19 -1 -19 -15 0 -99
86 -99 100 0 6 -7 10 -15 10 -29 0 -15 -40 29 -85 25 -25 48 -45 53 -45 4 -1
28 -19 52 -41 l44 -40 -44 6 c-57 8 -231 60 -289 87 -24 11 -50 28 -58 39 -19
28 -32 23 -32 -11 0 -16 5 -30 10 -30 6 0 10 -7 10 -15 0 -8 5 -15 10 -15 6 0
10 4 10 9 0 6 19 -1 43 -14 23 -14 50 -25 60 -25 9 0 25 -5 35 -11 9 -5 44
-19 77 -29 l60 -20 -53 5 c-41 3 -54 1 -59 -11 -3 -8 -2 -18 1 -22 4 -4 76 -9
160 -13 119 -5 159 -10 177 -23 13 -9 31 -16 41 -16 30 0 20 27 -14 40 -28 9
-31 13 -17 23 10 8 14 25 13 50 -3 39 9 49 25 20 5 -10 30 -40 54 -66 48 -51
57 -53 130 -25 27 10 37 28 16 28 -6 0 -10 18 -9 43 3 61 1 69 -11 61 -7 -4
-10 -1 -7 7 3 8 15 13 27 11 13 -2 31 4 41 13 17 15 19 15 25 -5 5 -15 0 -26
-19 -41 -25 -20 -37 -69 -16 -69 6 0 10 5 10 11 0 6 7 8 16 5 12 -4 14 -1 9
14 -4 14 -2 20 9 20 8 0 18 -5 21 -10 4 -7 12 -7 25 0 10 5 26 7 34 4 9 -3 16
-2 16 2 0 14 -46 64 -59 64 -19 0 -12 28 9 35 11 4 36 22 54 41 21 21 37 31
41 25 3 -6 10 -44 15 -84 7 -65 6 -73 -11 -86 -16 -11 -28 -51 -15 -51 10 0
130 72 190 114 36 25 72 46 79 46 17 0 62 49 105 115 27 41 30 51 19 60 -54
39 -32 200 41 295 39 50 52 78 52 110 0 15 11 44 26 65 18 27 24 48 22 74 -3
31 -7 37 -32 41 -28 5 -29 8 -33 65 -4 52 -1 64 16 79 12 11 21 25 21 33 0 17
-27 17 -37 -1 -4 -7 -27 -25 -51 -40 -40 -25 -44 -26 -77 -12 -19 8 -35 18
-35 21 0 3 9 24 20 46 16 30 19 49 14 77 l-7 37 24 -29 25 -28 17 25 c15 23
20 25 48 17 36 -11 58 -36 59 -67 0 -14 6 -23 15 -23 8 0 15 5 15 10 0 7 6 7
19 0 30 -16 51 -12 51 9 0 13 -8 21 -22 23 -18 2 -22 9 -20 29 2 20 -9 36 -47
71 -27 25 -52 44 -54 42 -7 -7 -57 18 -57 29 0 5 9 7 20 4 18 -5 18 -3 4 18
-8 13 -46 38 -85 56 -38 18 -71 40 -74 50 -6 18 -42 36 -52 25 -3 -3 -22 2
-42 10 -20 9 -58 23 -86 32 -27 8 -57 21 -66 29 -8 7 -21 13 -27 13 -7 0 -12
5 -12 10 0 6 9 10 20 10 11 0 20 7 20 15 0 8 -4 15 -8 15 -5 0 -16 16 -25 35
-11 23 -24 35 -37 35 -12 0 -20 -6 -19 -12 1 -7 -2 -21 -6 -32 -5 -11 -3 -26
4 -37 9 -16 8 -19 -8 -19 -11 0 -23 -4 -26 -10 -3 -5 -11 -10 -18 -10 -6 0 -3
6 7 13 14 10 17 25 14 71 -2 36 -8 61 -15 64 -7 2 -13 -3 -13 -11z m-120 -129
c17 -12 30 -27 30 -32 1 -15 48 -48 59 -42 5 3 14 -1 20 -8 16 -19 105 -40
136 -32 20 5 26 2 31 -20 4 -14 4 -57 2 -95 -4 -51 -2 -72 8 -80 21 -17 17
-35 -12 -54 -24 -16 -25 -18 -10 -33 14 -15 18 -14 46 13 16 15 27 32 24 37
-3 5 11 25 30 44 27 27 36 44 36 70 0 27 -4 34 -19 34 -20 0 -51 -24 -51 -39
0 -5 12 -6 26 -3 19 3 25 1 20 -7 -4 -6 -13 -11 -21 -11 -7 0 -15 -7 -19 -15
-14 -37 -26 -10 -26 58 0 39 -4 87 -10 105 -8 30 -7 33 8 27 9 -4 31 -11 47
-15 17 -4 40 -12 52 -18 12 -7 35 -12 52 -12 30 0 39 -10 72 -80 6 -14 15 -32
19 -40 4 -9 11 -31 15 -50 7 -33 6 -34 -9 -15 -8 11 -16 23 -16 27 0 13 -74
88 -86 88 -18 0 -6 -30 26 -67 51 -57 64 -86 63 -139 0 -27 -6 -60 -12 -73
-11 -20 -18 -22 -54 -18 -72 9 -101 19 -127 42 -15 14 -45 26 -72 30 -30 5
-45 11 -42 19 6 16 -123 13 -139 -3 -6 -6 -35 -11 -65 -11 -46 0 -53 -3 -50
-17 5 -28 92 -30 140 -3 30 17 38 18 38 7 0 -8 -10 -22 -22 -30 -20 -14 -21
-18 -8 -26 21 -15 24 -14 51 12 20 18 31 21 59 15 77 -15 88 -21 100 -46 7
-15 16 -35 21 -44 18 -35 11 -48 -27 -48 -36 0 -36 1 -31 33 3 17 8 39 11 47
5 13 -6 15 -66 15 -59 0 -73 -3 -76 -16 -5 -28 23 -43 59 -30 18 6 35 8 38 5
3 -4 0 -9 -8 -12 -29 -10 -52 -43 -49 -70 3 -23 7 -27 33 -25 17 1 24 0 18 -3
-15 -7 -17 -44 -3 -44 6 0 19 5 30 12 17 11 24 8 49 -16 28 -27 47 -23 35 8
-4 9 -1 16 6 16 8 0 11 11 7 33 -3 22 2 41 15 60 25 35 42 35 35 0 -3 -18 1
-36 14 -52 23 -29 26 -81 4 -81 -35 0 -39 -68 -6 -100 14 -14 34 -36 43 -50
11 -17 20 -21 25 -14 4 6 24 14 44 18 19 3 44 14 55 24 28 26 54 34 54 17 0
-8 -4 -15 -10 -15 -5 0 -18 -8 -28 -17 -10 -10 -30 -24 -44 -32 -16 -8 -30
-26 -33 -41 l-6 -27 -37 18 c-20 11 -43 19 -52 19 -22 0 -110 87 -110 109 0
10 -3 20 -6 24 -9 9 -64 -20 -96 -51 -53 -49 -39 -13 16 42 31 31 56 65 56 76
0 23 -25 27 -34 5 -9 -25 -34 -17 -51 15 -10 18 -23 30 -36 30 -11 0 -17 4
-14 10 9 14 -4 72 -21 95 -14 19 -16 19 -78 2 -35 -9 -89 -17 -120 -17 -44 0
-57 -4 -66 -19 -18 -34 -12 -60 15 -67 33 -8 45 4 22 20 -32 24 -17 33 66 40
45 3 98 8 117 11 l35 6 -38 -15 c-39 -15 -107 -57 -107 -67 0 -3 26 -6 58 -6
58 -1 153 -32 160 -51 2 -6 -16 -23 -39 -38 l-43 -27 23 -18 c14 -11 20 -23
15 -31 -5 -7 -7 -27 -5 -45 2 -23 -7 -45 -28 -77 l-31 -44 -52 26 c-29 15 -54
30 -56 35 -6 11 -42 8 -42 -4 0 -15 47 -52 84 -65 25 -8 32 -17 34 -43 4 -39
-7 -50 -95 -92 -62 -31 -91 -54 -79 -66 7 -7 20 -2 121 49 68 34 70 36 79 81
4 26 12 47 16 47 5 0 20 -14 33 -30 14 -17 31 -30 38 -30 15 0 38 -30 39 -51
0 -12 16 -16 81 -18 77 -2 84 0 110 25 20 19 35 25 53 22 30 -6 35 15 12 47
-7 11 -18 41 -23 67 -10 46 -10 46 12 36 41 -18 75 -125 54 -165 -12 -22 -10
-26 19 -49 31 -25 43 -54 21 -54 -13 0 -77 -48 -102 -75 -12 -14 -16 -30 -13
-53 4 -29 1 -36 -27 -52 -22 -14 -42 -18 -63 -14 -18 3 -41 1 -52 -5 -19 -10
-22 -7 -33 44 -7 31 -16 58 -21 61 -17 11 -7 21 17 16 22 -4 25 -1 23 19 -3
25 -3 25 57 14 23 -4 20 -1 -12 12 -24 9 -43 23 -43 30 0 9 5 11 18 5 101 -50
106 -51 115 -5 6 33 -1 53 -19 53 -10 0 -13 -7 -8 -25 3 -14 4 -25 2 -25 -2 0
-31 14 -63 30 -92 47 -108 41 -118 -48 -9 -79 -49 -125 -127 -146 -24 -7 -24
-6 -6 8 11 9 17 19 13 22 -11 12 -56 -6 -62 -25 -7 -22 -106 -53 -146 -45 -20
5 -31 0 -43 -17 l-16 -23 -16 22 c-8 12 -25 22 -37 22 -20 -1 -32 -13 -82 -85
-21 -31 -31 -8 -11 25 17 30 17 30 -7 39 -40 15 -39 28 0 27 l37 -1 -2 45 c-2
27 -10 51 -20 60 -14 13 -16 27 -11 95 3 44 9 92 14 108 4 15 3 27 -2 27 -15
0 -33 -23 -33 -40 0 -9 -9 -25 -20 -35 -24 -21 -27 -47 -5 -39 9 4 15 0 15 -9
0 -8 -8 -14 -17 -13 -11 0 -17 -6 -17 -16 2 -27 -12 -22 -36 13 -18 25 -22 40
-18 85 3 33 13 65 25 82 11 15 23 44 27 65 7 40 11 42 52 27 22 -9 26 -15 21
-38 -4 -21 0 -31 20 -45 13 -11 25 -17 26 -15 1 1 8 13 15 25 6 13 12 29 12
36 0 8 8 22 19 31 16 15 25 15 65 5 25 -6 46 -15 46 -19 0 -13 50 -41 60 -35
19 12 -11 46 -55 65 -40 17 -77 49 -44 38 8 -3 19 2 26 11 10 14 13 14 30 -2
11 -9 23 -17 27 -17 4 0 6 35 5 78 -2 94 -1 101 10 83 8 -12 15 -9 41 12 31
27 70 36 70 17 0 -5 9 -10 20 -10 20 0 27 25 12 45 -4 6 -45 11 -91 12 -50 2
-95 9 -113 18 -31 15 -53 12 -42 -6 3 -5 1 -16 -6 -24 -9 -11 -7 -16 9 -25 31
-16 25 -27 -11 -22 -40 5 -61 21 -54 39 3 7 -3 22 -14 33 -21 21 -26 32 -12
28 11 -4 72 63 72 79 0 7 9 18 20 25 11 7 20 20 20 28 0 17 49 50 74 50 20 0
21 16 1 24 -8 3 -15 14 -15 24 0 10 -25 45 -55 78 -55 59 -66 78 -42 69 9 -4
12 25 12 127 l0 132 40 23 c50 28 59 28 95 1z m232 -68 c26 -32 22 -45 -7 -22
-14 11 -43 23 -65 27 -57 10 -51 29 7 22 32 -3 53 -12 65 -27z m-562 -4 c0 -2
-7 -7 -16 -10 -8 -3 -12 -2 -9 4 6 10 25 14 25 6z m941 -146 c13 -10 19 -19
12 -20 -6 0 -15 5 -18 10 -3 6 -15 10 -25 10 -10 0 -22 5 -25 10 -11 18 32 11
56 -10z m82 -96 c4 -1 10 -2 15 -3 12 -2 62 -48 62 -57 0 -4 -12 4 -27 18 -16
14 -40 28 -55 32 -16 3 -28 11 -28 17 0 6 5 7 13 2 6 -4 15 -8 20 -9z m-839
-47 c60 -59 70 -80 48 -99 -9 -9 -30 -18 -47 -21 -16 -3 -38 -9 -47 -12 -10
-4 -18 -3 -18 3 0 5 15 13 34 16 19 4 37 13 40 21 10 27 -64 18 -119 -15 -52
-31 -75 -37 -75 -20 0 6 6 10 13 10 9 0 11 13 9 43 -3 30 -11 48 -31 64 -23
19 -24 22 -8 28 11 5 25 1 36 -9 19 -17 41 -21 41 -7 0 7 21 17 77 40 2 1 23
-18 47 -42z m776 33 c0 -5 -7 -7 -15 -4 -8 4 -15 8 -15 10 0 2 7 4 15 4 8 0
15 -4 15 -10z m-880 -215 c0 -30 -11 -32 -34 -6 -13 15 -14 20 -4 24 27 11 38
6 38 -18z m801 -11 c8 -8 40 -24 70 -36 l55 -23 -8 -41 c-5 -22 -17 -50 -28
-62 -17 -18 -24 -19 -55 -10 -37 12 -95 68 -95 92 0 7 -7 19 -15 26 -11 9 -13
16 -5 24 14 14 13 43 -2 50 -7 3 5 3 27 -1 22 -3 47 -12 56 -19z m-201 -94 c0
-5 -2 -10 -4 -10 -3 0 -8 5 -11 10 -3 6 -1 10 4 10 6 0 11 -4 11 -10z m403
-52 c6 -19 -23 -59 -37 -51 -6 4 -21 6 -33 4 -27 -3 -28 2 -7 34 18 27 69 35
77 13z m-773 -48 c0 -5 -5 -10 -11 -10 -5 0 -7 5 -4 10 3 6 8 10 11 10 2 0 4
-4 4 -10z m580 -20 c0 -5 -7 -10 -16 -10 -8 0 -12 5 -9 10 3 6 10 10 16 10 5
0 9 -4 9 -10z m35 0 c3 -5 2 -10 -4 -10 -5 0 -13 5 -16 10 -3 6 -2 10 4 10 5
0 13 -4 16 -10z m-361 -14 c-10 -8 -21 -12 -24 -10 -5 6 21 24 34 24 6 0 1 -6
-10 -14z m-337 -32 c50 -34 49 -49 -4 -46 -26 2 -60 -5 -92 -19 -29 -12 -54
-20 -56 -17 -7 6 18 58 28 58 4 0 17 11 29 25 27 32 48 31 95 -1z m443 -46
l24 -22 -25 -6 c-33 -9 -74 17 -58 36 16 20 32 17 59 -8z m281 -83 c-5 -27
-15 -54 -23 -59 -7 -6 -19 -22 -25 -36 l-12 -25 0 24 c-1 37 21 102 44 126 11
11 21 20 23 20 1 -1 -2 -24 -7 -50z m-371 41 c0 -3 -4 -8 -10 -11 -5 -3 -10
-1 -10 4 0 6 5 11 10 11 6 0 10 -2 10 -4z m-630 -27 c0 -6 -4 -7 -10 -4 -5 3
-10 11 -10 16 0 6 5 7 10 4 6 -3 10 -11 10 -16z m725 -3 c29 -1 67 -83 51
-109 -9 -15 -7 -22 13 -38 26 -21 25 -24 -19 -48 -22 -12 -101 -1 -107 15 -3
8 -13 14 -23 14 -20 0 -30 27 -30 83 0 30 -4 37 -19 37 -20 0 -39 -32 -22 -38
14 -5 14 -32 1 -32 -5 0 -10 6 -10 14 0 8 -5 16 -10 18 -7 2 -6 13 2 30 10 20
22 28 54 33 24 3 45 13 48 21 4 11 13 13 28 8 13 -4 32 -7 43 -8z m98 -57 c4
-16 3 -18 -8 -9 -7 6 -15 20 -18 31 -4 16 -3 18 8 9 7 -6 15 -20 18 -31z
m-883 -10 l33 -32 -22 -44 c-11 -24 -21 -51 -21 -59 0 -19 -57 -77 -69 -70 -9
6 -7 25 9 111 5 28 12 67 15 88 3 20 10 37 14 37 4 0 23 -14 41 -31z m8 -243
c11 -25 11 -28 -3 -22 -9 3 -32 6 -52 6 -39 0 -42 23 -4 28 12 2 25 10 28 18
7 18 14 10 31 -30z m106 -112 c26 -10 18 -27 -9 -20 -16 4 -25 2 -25 -5 0 -7
-2 -10 -5 -7 -7 7 5 38 15 38 5 0 15 -3 24 -6z m646 -134 c0 -5 -4 -10 -10
-10 -5 0 -10 5 -10 10 0 6 5 10 10 10 6 0 10 -4 10 -10z m-376 -15 c-16 -12
-17 -16 -5 -24 8 -5 11 -16 8 -25 -4 -9 1 -20 11 -26 14 -8 15 -11 3 -19 -17
-11 -40 13 -41 40 0 9 -3 19 -7 23 -4 3 -7 15 -8 26 -1 16 5 20 29 20 28 0 29
-1 10 -15z"/>
<path d="M1049 901 c13 -8 13 -15 1 -53 -8 -24 -20 -54 -27 -68 -7 -14 -13
-30 -13 -36 0 -18 57 -37 91 -30 36 7 122 -32 139 -64 17 -32 37 -24 44 18 9
56 8 59 -16 66 -13 3 -36 17 -52 30 -22 20 -32 23 -47 15 -11 -5 -19 -14 -19
-19 0 -6 -16 -10 -35 -10 -19 0 -35 5 -35 10 0 6 7 10 15 10 9 0 15 9 16 23 0
12 2 36 5 54 3 25 -1 33 -16 38 -11 4 -20 11 -20 16 0 5 -10 9 -22 9 -18 0
-20 -2 -9 -9z"/>
<path d="M1020 701 c0 -5 -2 -16 -5 -23 -4 -9 7 -20 30 -31 31 -15 40 -26 36
-49 -2 -12 14 -9 27 4 21 21 13 35 -38 72 -27 20 -50 32 -50 27z"/>
<path d="M1720 2123 c0 -10 9 -33 20 -51 14 -22 20 -50 20 -88 0 -45 4 -59 25
-79 42 -43 65 -23 24 21 -17 18 -20 36 -22 107 -2 69 -5 83 -15 74 -10 -8 -14
-5 -19 11 -6 26 -33 29 -33 5z"/>
<path d="M2540 2030 c0 -5 -20 -10 -44 -10 -44 0 -74 -19 -61 -40 7 -11 47
-13 94 -4 26 6 31 11 31 35 0 16 -4 29 -10 29 -5 0 -10 -4 -10 -10z"/>
<path d="M728 1962 c-45 -20 -48 -32 -9 -32 29 0 61 22 61 41 0 12 -7 10 -52
-9z"/>
<path d="M2506 1933 c-47 -14 -48 -16 -42 -46 4 -18 9 -58 13 -89 6 -58 20
-76 30 -37 4 16 12 20 29 16 20 -3 24 0 24 18 0 24 -25 41 -35 24 -11 -16 -25
1 -25 29 0 38 14 56 39 49 18 -4 21 -1 21 24 0 16 -1 29 -2 28 -2 -1 -25 -8
-52 -16z"/>
<path d="M2267 1423 c-2 -5 -7 -24 -11 -43 -4 -19 -20 -53 -36 -75 -40 -54
-74 -125 -63 -135 14 -13 113 -22 113 -10 0 10 -36 28 -70 35 -8 2 -16 4 -18
4 -7 2 27 31 36 31 17 0 86 175 76 192 -6 10 -21 10 -27 1z"/>
<path d="M563 1327 c-56 -61 -71 -117 -21 -78 24 19 56 86 46 97 -3 2 -14 -6
-25 -19z"/>
<path d="M2096 1128 c-9 -12 -16 -41 -16 -65 0 -23 -5 -54 -10 -68 -6 -16 -7
-33 -1 -42 13 -25 31 16 39 90 6 53 10 62 27 62 18 0 20 -6 17 -57 -1 -35 2
-58 8 -58 9 0 15 38 13 87 -1 16 6 22 33 27 32 6 44 19 27 29 -5 3 -33 8 -65
11 -51 7 -57 5 -72 -16z"/>
<path d="M185 1100 c-20 -38 -19 -40 7 -37 16 1 23 -4 24 -18 2 -31 14 -65 24
-65 18 0 20 20 7 47 -8 15 -17 45 -21 66 -8 45 -20 47 -41 7z"/>
<path d="M2033 1028 c-6 -13 -28 -68 -48 -123 -20 -55 -43 -115 -51 -133 -17
-40 -17 -42 0 -42 14 0 37 42 51 90 4 14 22 64 41 111 34 87 41 119 26 119 -5
0 -13 -10 -19 -22z"/>
<path d="M2217 1003 c-11 -18 -4 -63 9 -63 9 0 14 11 14 29 0 29 -14 49 -23
34z"/>
<path d="M2115 930 c-18 -35 -19 -40 -2 -40 16 0 47 -36 47 -55 0 -16 25 -21
34 -6 4 5 -5 23 -19 39 -15 18 -25 42 -25 61 0 39 -15 40 -35 1z"/>
<path d="M0 899 c0 -14 7 -19 25 -19 18 0 25 5 25 19 0 13 -7 19 -25 19 -18 0
-25 -6 -25 -19z"/>
<path d="M2054 883 c-3 -10 -10 -28 -16 -40 -13 -27 -2 -49 17 -33 10 8 15 6
20 -9 7 -22 27 -32 44 -22 9 6 8 17 -4 44 -8 20 -20 37 -25 37 -6 0 -10 9 -10
20 0 25 -19 26 -26 3z"/>
<path d="M98 854 c-27 -13 -48 -31 -48 -40 0 -17 30 -12 65 12 11 8 27 14 37
14 11 0 18 8 18 20 0 25 -13 24 -72 -6z"/>
<path d="M2437 844 c-7 -7 22 -64 34 -64 17 0 9 49 -10 59 -10 6 -21 8 -24 5z"/>
<path d="M2300 825 c0 -8 -4 -15 -10 -15 -5 0 -10 5 -10 10 0 16 -27 12 -34
-5 -3 -9 0 -15 9 -15 8 0 18 -8 24 -17 9 -17 12 -16 37 8 26 27 26 49 -2 49
-8 0 -14 -7 -14 -15z"/>
<path d="M2381 812 c-15 -28 -14 -42 3 -42 16 0 27 33 16 50 -6 9 -11 7 -19
-8z"/>
<path d="M0 800 c0 -5 7 -10 15 -10 8 0 15 5 15 10 0 6 -7 10 -15 10 -8 0 -15
-4 -15 -10z"/>
<path d="M2003 741 c-13 -11 -23 -25 -23 -32 0 -7 -12 -28 -27 -48 -17 -21
-29 -51 -30 -74 -2 -20 -10 -51 -18 -67 -20 -39 -19 -57 6 -65 23 -8 40 2 22
13 -9 5 -7 21 6 61 l17 53 34 -31 c25 -23 30 -31 17 -31 -18 0 -23 -15 -7 -25
6 -4 5 -15 -2 -30 -11 -25 -5 -55 10 -55 5 0 12 18 15 41 3 23 15 50 26 60 28
26 27 28 -14 45 -19 8 -35 19 -35 25 0 7 -12 23 -26 36 -14 13 -23 27 -20 30
4 4 12 1 18 -5 21 -21 41 -14 34 12 -3 14 0 28 8 35 10 8 15 5 24 -15 7 -14
12 -34 12 -44 0 -11 5 -20 10 -20 17 0 24 30 12 53 -19 40 -25 62 -23 80 3 22
-18 21 -46 -2z"/>
<path d="M2335 750 c-3 -6 1 -18 10 -26 9 -9 23 -27 32 -40 8 -13 19 -21 24
-18 15 9 10 23 -16 46 -14 12 -25 28 -25 35 0 15 -16 17 -25 3z"/>
<path d="M179 745 c-1 -3 -3 -9 -4 -15 -1 -5 -3 -15 -4 -21 -1 -8 -5 -8 -16 1
-19 16 -32 7 -38 -27 -3 -16 -8 -38 -12 -50 -12 -37 21 -29 34 8 11 31 33 32
30 1 -3 -36 2 -53 14 -50 17 6 27 158 10 158 -7 0 -14 -2 -14 -5z"/>
<path d="M2215 708 c-11 -18 -28 -45 -38 -61 -10 -16 -16 -39 -14 -51 3 -19 5
-18 17 9 8 17 30 50 47 73 30 39 35 62 15 62 -4 0 -16 -15 -27 -32z"/>
<path d="M612 706 c-23 -11 -40 -25 -38 -31 9 -26 106 11 106 41 0 18 -15 16
-68 -10z"/>
<path d="M44 705 c-3 -8 -3 -19 1 -25 9 -14 35 6 35 26 0 19 -29 18 -36 -1z"/>
<path d="M54 606 c-4 -11 -1 -21 7 -27 17 -11 26 18 10 34 -7 7 -12 5 -17 -7z"/>
<path d="M1821 548 c-24 -46 -37 -64 -69 -95 -19 -19 -32 -41 -32 -57 0 -44
-18 -78 -38 -72 -10 4 -37 -3 -60 -14 -35 -17 -50 -19 -89 -11 l-48 9 41 1
c23 0 47 7 53 14 13 16 5 28 -15 20 -23 -9 -16 22 11 47 24 23 34 60 16 60 -4
0 -31 -21 -60 -47 -34 -30 -51 -54 -51 -70 0 -14 -6 -23 -15 -23 -8 0 -15 9
-15 20 0 20 0 20 -42 -1 -24 -12 -56 -33 -72 -46 -16 -13 -35 -22 -42 -19 -7
3 -18 -2 -26 -11 -12 -15 -8 -16 34 -11 26 3 54 13 63 22 19 18 31 20 40 7 9
-16 205 -11 237 5 34 17 38 17 38 1 0 -14 31 -47 42 -47 4 0 2 16 -3 36 -7 22
-7 40 -1 47 5 7 13 26 16 44 8 37 37 73 59 73 19 0 29 24 15 38 -8 8 -4 17 14
31 28 22 44 71 23 71 -6 0 -17 -10 -24 -22z"/>
<path d="M2460 509 c-13 -8 -12 -12 8 -26 12 -8 22 -24 22 -34 0 -20 15 -26
25 -10 4 7 -31 82 -38 81 -1 0 -9 -5 -17 -11z"/>
<path d="M2537 513 c-12 -11 -8 -31 8 -37 11 -4 15 1 15 19 0 24 -10 32 -23
18z"/>
<path d="M260 450 c0 -5 5 -10 10 -10 6 0 10 5 10 10 0 6 -4 10 -10 10 -5 0
-10 -4 -10 -10z"/>
<path d="M1911 382 c-12 -22 -6 -32 21 -32 20 0 25 -26 6 -32 -8 -3 -7 -14 5
-38 9 -18 17 -39 17 -47 0 -7 5 -13 10 -13 13 0 13 31 0 66 -7 18 -7 30 1 40
8 9 7 20 -3 41 -16 34 -43 41 -57 15z"/>
<path d="M1843 358 c-12 -16 -14 -56 -3 -63 4 -3 11 6 14 20 4 14 11 25 16 25
6 0 10 7 10 15 0 18 -24 20 -37 3z"/>
<path d="M2424 356 c-10 -8 -16 -17 -12 -21 8 -8 48 13 48 25 0 14 -13 12 -36
-4z"/>
<path d="M730 349 l-25 -10 30 -25 c39 -31 54 -30 88 12 l29 34 -49 -1 c-26 0
-59 -5 -73 -10z"/>
<path d="M1125 344 c-27 -7 -92 -20 -144 -29 -97 -15 -181 -41 -181 -56 0 -14
44 -11 83 6 20 8 52 15 72 15 73 0 275 55 275 75 0 9 -55 4 -105 -11z"/>
<path d="M2496 323 c-4 -9 -3 -20 2 -25 11 -11 47 16 38 30 -11 17 -33 15 -40
-5z"/>
<path d="M1175 303 c-195 -46 -248 -61 -254 -72 -3 -5 -20 -12 -36 -16 -66
-15 -66 -15 -54 -38 10 -17 8 -24 -10 -38 -11 -9 -21 -23 -21 -30 0 -8 6 -7
18 4 10 10 26 17 35 17 9 0 24 12 34 28 10 15 24 33 31 40 20 22 101 19 152
-5 65 -30 165 -39 224 -19 26 9 59 16 74 15 27 0 27 -1 5 -11 -28 -13 -29 -29
-5 -51 21 -19 42 -22 42 -6 0 6 8 9 18 7 15 -4 18 -1 14 19 -3 13 -13 29 -22
36 -10 6 -16 15 -14 21 2 6 0 18 -6 26 -8 13 -15 12 -57 -5 -57 -24 -233 -29
-241 -7 -2 6 -15 12 -28 12 -37 0 -29 20 9 21 17 0 41 2 51 4 11 2 28 -1 38
-6 12 -6 18 -6 18 0 0 6 20 19 45 30 25 11 45 25 45 30 0 14 -29 12 -105 -6z"/>
<path d="M2420 281 c0 -18 6 -31 16 -35 24 -9 26 -3 8 32 -19 40 -24 40 -24 3z"/>
<path d="M1881 276 c-14 -26 -11 -71 4 -71 11 0 25 84 15 90 -4 2 -13 -6 -19
-19z"/>
<path d="M2543 273 c-17 -6 -16 -28 2 -43 13 -11 15 -8 15 19 0 17 -1 31 -2
30 -2 0 -9 -3 -15 -6z"/>
<path d="M2129 256 c-7 -8 2 -86 10 -86 4 0 8 20 8 45 0 41 -6 53 -18 41z"/>
<path d="M2206 235 c-4 -16 0 -34 9 -49 11 -16 13 -26 6 -31 -6 -3 -8 -17 -5
-30 3 -12 1 -26 -5 -29 -19 -12 -12 -36 10 -36 15 0 19 4 15 16 -4 9 -1 22 5
30 7 9 7 18 0 33 -7 13 -8 22 -1 26 16 10 12 35 -6 35 -13 0 -15 7 -10 30 7
36 -9 41 -18 5z"/>
<path d="M1770 230 c-12 -8 -12 -10 3 -16 22 -8 50 3 42 16 -8 12 -25 13 -45
0z"/>
<path d="M544 205 c-4 -14 -5 -27 -3 -28 2 -1 19 -15 36 -31 26 -24 35 -27 47
-17 31 26 -6 101 -51 101 -16 0 -25 -8 -29 -25z"/>
<path d="M250 200 c0 -11 -6 -20 -13 -20 -8 0 -22 -9 -32 -20 -15 -16 -16 -23
-6 -33 10 -9 19 -5 42 23 26 31 32 33 50 22 19 -12 39 -9 39 6 0 8 -57 42 -71
42 -5 0 -9 -9 -9 -20z"/>
<path d="M2310 207 c0 -8 8 -21 18 -30 20 -18 19 -21 13 36 -2 13 -31 7 -31
-6z"/>
<path d="M1497 193 c-11 -17 0 -68 14 -68 10 0 13 9 11 30 -4 33 -17 52 -25
38z"/>
<path d="M1641 181 c-9 -16 -6 -20 15 -25 33 -9 39 -3 24 23 -13 26 -26 27
-39 2z"/>
<path d="M1853 183 c3 -5 10 -28 17 -53 12 -42 13 -44 22 -21 11 30 -7 81 -29
81 -8 0 -12 -3 -10 -7z"/>
<path d="M1916 181 c-7 -11 20 -48 29 -39 9 8 -4 48 -15 48 -5 0 -11 -4 -14
-9z"/>
<path d="M1755 170 c-3 -5 3 -10 14 -10 12 0 21 5 21 10 0 6 -6 10 -14 10 -8
0 -18 -4 -21 -10z"/>
<path d="M2266 154 c-3 -9 -4 -20 -1 -24 9 -15 35 1 35 21 0 23 -25 25 -34 3z"/>
<path d="M137 144 c-14 -14 -7 -35 11 -32 9 2 17 10 17 17 0 16 -18 25 -28 15z"/>
<path d="M2533 129 c4 -13 7 -39 7 -56 0 -18 5 -33 11 -33 16 0 7 102 -10 108
-10 4 -12 -1 -8 -19z"/>
<path d="M1202 128 c2 -6 17 -13 34 -15 28 -3 28 -2 10 12 -23 18 -49 20 -44
3z"/>
<path d="M1613 133 c-7 -2 -13 -13 -13 -22 0 -13 8 -18 30 -18 17 0 30 4 30 8
0 7 -29 40 -33 38 -1 0 -8 -3 -14 -6z"/>
<path d="M1817 124 c5 -14 1 -15 -28 -9 l-34 7 23 -23 c18 -19 26 -22 40 -13
23 15 29 54 8 54 -10 0 -13 -6 -9 -16z"/>
<path d="M2367 123 c-11 -11 -8 -35 3 -28 6 4 18 1 26 -6 22 -18 30 -2 9 21
-19 21 -28 24 -38 13z"/>
<path d="M65 111 c-3 -5 -1 -12 5 -16 5 -3 10 1 10 9 0 18 -6 21 -15 7z"/>
<path d="M894 107 c-37 -21 -74 -55 -74 -66 0 -16 12 -13 44 13 16 14 35 22
43 19 7 -3 13 0 13 6 0 15 37 14 44 -1 3 -7 4 -2 3 11 -2 29 -39 38 -73 18z"/>
<path d="M2442 109 c2 -7 10 -15 17 -17 8 -3 12 1 9 9 -2 7 -10 15 -17 17 -8
3 -12 -1 -9 -9z"/>
<path d="M1000 87 c0 -8 9 -25 19 -38 l19 -24 -7 34 c-6 34 -31 56 -31 28z"/>
<path d="M0 69 c0 -17 8 -30 25 -39 39 -21 42 -3 7 33 l-32 32 0 -26z"/>
<path d="M1195 81 c-8 -13 16 -26 41 -23 11 2 27 -4 34 -12 7 -9 24 -16 39
-16 l26 1 -35 29 c-34 30 -92 41 -105 21z"/>
<path d="M1840 61 c0 -12 5 -21 10 -21 6 0 10 6 10 14 0 8 -4 18 -10 21 -5 3
-10 -3 -10 -14z"/>
<path d="M773 3 c9 -2 23 -2 30 0 6 3 -1 5 -18 5 -16 0 -22 -2 -12 -5z"/>
<path d="M918 3 c7 -3 16 -2 19 1 4 3 -2 6 -13 5 -11 0 -14 -3 -6 -6z"/>
<path d="M1118 3 c7 -3 16 -2 19 1 4 3 -2 6 -13 5 -11 0 -14 -3 -6 -6z"/>
<path d="M1373 3 c9 -2 25 -2 35 0 9 3 1 5 -18 5 -19 0 -27 -2 -17 -5z"/>
</g>
</svg>
