<?xml version="1.0" standalone="no"?>
<!DOCTYPE svg PUBLIC "-//W3C//DTD SVG 20010904//EN"
 "http://www.w3.org/TR/2001/REC-SVG-20010904/DTD/svg10.dtd">
<svg version="1.0" xmlns="http://www.w3.org/2000/svg"
 width="344.000000pt" height="256.000000pt" viewBox="0 0 344.000000 256.000000"
 preserveAspectRatio="xMidYMid meet">
<metadata>
Created by potrace 1.16, written by Peter Selinger 2001-2019
</metadata>
<g transform="translate(0.000000,256.000000) scale(0.100000,-0.100000)"
fill="#000000" stroke="none">
<path d="M82 2540 c10 -16 10 -24 1 -39 -8 -13 -9 -21 -2 -23 8 -3 8 -23 1
-68 -7 -44 -7 -69 1 -78 16 -20 1 -25 -32 -11 -30 13 -30 15 -25 65 5 41 3 52
-10 57 -14 6 -16 -4 -16 -76 l0 -83 35 4 c28 3 35 1 35 -13 0 -12 -5 -15 -16
-11 -9 4 -25 4 -35 1 -17 -6 -19 -18 -19 -123 1 -104 2 -115 15 -98 8 10 12
22 10 26 -2 4 -7 39 -9 78 -5 57 -3 71 10 76 21 8 54 -11 55 -32 0 -9 2 -39 4
-67 1 -27 -1 -58 -6 -67 -5 -10 -5 -19 0 -22 9 -6 7 -148 -4 -383 -7 -138 0
-213 21 -213 9 0 14 11 13 33 -4 121 15 724 24 735 18 23 110 6 103 -20 -1 -7
-1 -10 1 -5 6 10 47 9 78 -3 l26 -10 -2 -106 c-3 -123 3 -133 76 -132 36 1 45
5 48 22 4 19 5 6 8 -69 4 -83 -6 -283 -13 -279 -5 4 -8 70 -6 150 3 99 1 148
-7 154 -6 5 -29 7 -51 5 -21 -2 -52 0 -69 5 -16 5 -51 16 -77 24 -34 10 -50
11 -54 4 -10 -16 34 -48 66 -48 15 0 37 -8 49 -17 21 -17 22 -28 25 -243 2
-124 4 -231 5 -237 1 -18 41 -16 41 1 0 8 -4 18 -10 21 -17 10 -12 75 5 75 9
0 20 12 25 26 12 31 32 22 24 -11 -6 -23 -3 -24 32 -22 30 2 41 8 51 27 8 16
9 28 3 34 -18 18 -10 24 33 27 l43 4 -15 -39 c-15 -38 -15 -39 13 -63 21 -18
36 -23 53 -18 16 4 22 2 18 -5 -3 -5 1 -10 10 -10 11 0 15 -5 12 -15 -4 -8 -2
-17 4 -21 7 -4 6 -10 -1 -19 -9 -10 -6 -16 9 -25 13 -6 21 -21 21 -36 0 -18 5
-25 17 -22 9 2 17 11 19 21 4 32 14 32 14 1 0 -22 3 -25 10 -14 5 8 12 11 16
8 3 -4 -1 -14 -9 -22 -11 -12 -17 -13 -20 -3 -2 6 -8 9 -12 4 -14 -12 11 -30
31 -23 11 4 28 13 38 21 19 14 18 15 -5 50 -24 35 -44 45 -51 24 -2 -6 -15 -9
-28 -6 l-25 4 23 8 c17 6 22 15 22 42 0 22 4 32 11 28 11 -7 64 49 64 69 1 24
26 54 49 60 13 3 26 15 29 26 10 38 29 22 25 -22 -2 -40 -1 -43 23 -46 15 -2
32 -14 42 -31 9 -16 28 -39 42 -52 13 -13 25 -29 25 -36 0 -7 10 -18 22 -24
22 -12 73 -67 73 -80 0 -4 3 -11 8 -15 4 -4 7 -16 7 -26 0 -11 7 -26 15 -34
24 -24 18 -32 -25 -30 -41 1 -52 9 -25 20 30 11 18 65 -24 107 -56 56 -63 52
-57 -35 3 -40 8 -86 12 -101 6 -24 5 -26 -12 -17 -24 12 -102 26 -131 23 -13
-1 -26 6 -32 18 -11 20 -16 74 -9 102 6 25 63 69 103 80 19 6 35 14 35 19 0
15 -40 32 -61 27 -26 -7 -24 8 3 27 18 13 19 18 8 31 -9 11 -16 13 -24 5 -5
-5 -22 -10 -37 -10 -61 0 -88 -12 -103 -45 -21 -43 -20 -47 8 -79 20 -24 26
-27 45 -16 22 11 22 11 7 -18 -8 -16 -12 -32 -9 -36 4 -3 -1 -6 -9 -6 -18 0
-58 -62 -58 -89 0 -9 -5 -22 -12 -29 -17 -17 -2 -28 17 -12 8 7 15 8 15 2 0
-5 -7 -15 -15 -22 -9 -7 -13 -21 -10 -31 5 -16 1 -17 -31 -12 -49 8 -42 -13
14 -41 40 -20 42 -23 37 -56 -8 -46 -35 -121 -51 -140 -7 -8 -18 -44 -25 -80
-7 -36 -19 -70 -27 -76 -18 -13 -8 -34 15 -34 9 0 25 -7 35 -16 15 -14 20 -15
33 -4 9 7 14 19 11 25 -2 7 2 25 10 41 8 15 28 69 44 119 38 116 52 136 92
131 35 -3 62 -33 79 -86 11 -35 86 -152 101 -158 4 -2 8 -8 8 -14 0 -5 16 -25
36 -44 42 -39 94 -48 94 -15 0 11 -3 21 -7 23 -10 4 -41 70 -64 136 -10 29
-33 71 -50 93 -23 29 -33 53 -35 87 -3 33 -1 40 4 22 6 -19 15 -25 37 -25 25
0 31 4 33 28 2 15 7 27 12 27 12 0 18 -58 7 -69 -14 -14 0 -18 96 -31 104 -13
150 -13 145 2 -2 6 -17 12 -34 14 -16 1 -55 8 -87 14 -48 10 -56 15 -46 26 6
8 17 14 24 14 7 0 16 10 19 22 6 21 7 22 17 5 5 -9 8 -21 5 -25 -3 -5 9 -16
26 -26 26 -16 32 -17 45 -4 22 23 32 83 21 130 -5 24 -7 62 -3 86 9 64 -5 274
-19 269 -7 -2 -11 -36 -11 -93 0 -94 -18 -144 -50 -144 -18 0 -20 -21 -3 -38
9 -9 8 -12 -4 -12 -10 0 -17 11 -20 30 -3 16 -2 28 1 25 11 -11 51 40 51 66 0
32 -32 75 -48 65 -6 -4 -16 -25 -22 -46 -16 -61 -31 -49 -24 19 4 33 4 71 0
85 -10 39 -43 33 -37 -6 0 -5 -8 -8 -20 -8 -16 0 -19 -4 -14 -20 3 -11 2 -20
-3 -20 -5 0 -12 9 -15 20 -7 26 -35 36 -58 22 -25 -16 -30 -15 -23 3 4 9 0 15
-8 15 -14 0 -38 39 -38 63 0 7 -11 33 -24 59 -23 46 -23 46 -3 52 30 7 39 -2
32 -34 -4 -19 1 -44 16 -76 l23 -47 9 27 c7 21 6 30 -4 37 -21 13 -3 22 19 10
35 -19 83 -14 89 9 5 19 7 19 18 4 19 -26 67 -6 78 33 6 18 20 36 35 43 26 11
26 11 9 -7 -32 -36 -15 -73 33 -73 37 0 64 22 58 48 -4 15 0 22 15 26 28 7 40
-2 23 -19 -8 -8 -12 -24 -9 -35 4 -15 14 -20 42 -20 40 0 61 14 61 40 0 9 11
22 24 28 13 6 27 20 31 31 7 23 25 29 25 9 -1 -7 -14 -24 -30 -38 -35 -28 -38
-46 -10 -55 34 -11 80 4 80 26 0 26 16 24 23 -2 5 -17 11 -20 31 -17 14 3 26
2 26 -1 -1 -19 -21 -32 -51 -31 -86 1 -82 3 -62 -25 19 -25 33 -32 33 -15 0 6
9 10 19 10 11 0 23 -4 26 -10 11 -18 27 -10 22 11 -4 16 -3 18 9 8 15 -12 19
-41 7 -52 -3 -4 -7 -85 -7 -179 -1 -95 -5 -179 -10 -186 -5 -8 -4 -18 2 -24 6
-6 8 -24 5 -39 -5 -28 9 -41 21 -20 8 13 10 526 2 539 -3 5 8 12 27 15 40 6
45 2 24 -21 -19 -21 -24 -122 -7 -122 6 0 10 9 10 20 0 11 6 20 14 20 21 0 27
28 8 39 -9 5 -14 13 -10 17 4 4 15 1 24 -7 14 -11 19 -10 35 11 10 14 19 30
19 36 0 7 7 15 16 18 28 11 35 7 24 -15 -13 -23 -13 -22 16 -37 17 -9 25 -7
43 9 12 11 19 24 16 29 -3 4 9 13 25 19 24 8 30 7 30 -3 0 -8 -8 -17 -17 -20
-27 -11 0 -28 38 -24 22 2 34 8 34 18 0 8 -8 14 -18 14 -10 -1 -16 3 -14 10 2
6 15 10 30 8 30 -4 74 22 79 46 2 9 4 -39 5 -107 1 -69 -3 -133 -8 -143 -8
-15 -6 -18 11 -18 11 0 22 6 25 13 2 6 5 114 7 240 3 182 1 227 -9 223 -7 -3
-13 -1 -13 3 0 5 7 11 15 15 11 4 15 22 15 76 0 59 -3 70 -17 70 -15 0 -14 2
3 14 16 12 19 28 20 113 1 54 3 127 4 163 1 36 1 109 1 163 l-1 97 -255 0
-255 0 -17 -35 c-9 -19 -22 -35 -29 -35 -7 0 -15 -6 -17 -12 -4 -10 -6 -10 -6
0 -1 7 11 29 25 48 l26 34 -132 -1 -132 0 19 -22 c11 -12 23 -29 27 -37 4 -8
-1 -5 -12 8 -11 12 -24 22 -29 22 -12 0 -53 -46 -53 -60 0 -6 -13 -23 -30 -37
-16 -13 -30 -29 -30 -35 0 -5 -14 -25 -32 -43 l-31 -34 -30 30 c-16 17 -26 33
-22 37 4 4 15 -3 25 -15 21 -26 50 -30 50 -8 0 9 7 18 15 21 21 8 19 15 -11
47 -14 16 -24 31 -21 34 3 3 14 -5 24 -16 22 -27 33 -26 61 4 l23 24 -32 31
c-18 16 -29 34 -25 38 4 4 19 -6 32 -23 l24 -30 25 27 c14 15 25 29 25 32 0 3
-43 4 -97 3 -67 -1 -98 -6 -100 -14 -5 -15 33 -18 42 -3 3 6 14 10 23 10 14 0
14 -3 -4 -18 -12 -9 -25 -26 -28 -38 -4 -11 -18 -27 -31 -34 -14 -7 -25 -22
-25 -32 0 -10 -16 -28 -35 -40 -42 -27 -43 -37 -9 -77 14 -17 24 -36 22 -42
-2 -7 -12 1 -23 17 -10 16 -24 33 -32 37 -7 4 -13 14 -13 22 0 8 -8 18 -17 24
-10 5 -15 12 -11 16 3 4 14 2 24 -3 13 -7 24 -6 41 5 29 19 29 40 1 71 l-23
24 33 -19 c22 -12 35 -15 40 -7 4 6 15 13 24 17 15 5 16 10 6 32 -6 14 -15 25
-21 25 -5 0 -7 6 -4 14 4 11 -15 14 -103 15 -91 1 -108 -1 -104 -13 4 -9 -9
-24 -35 -42 -23 -15 -41 -33 -41 -41 0 -8 -13 -26 -30 -40 -16 -13 -30 -33
-30 -43 0 -15 -38 -50 -55 -50 -14 0 -3 18 15 23 21 5 20 44 -2 58 -7 4 -9 11
-5 15 3 4 13 1 21 -5 12 -10 20 -8 40 10 14 13 26 31 26 41 0 9 13 24 29 32
24 13 41 34 41 52 0 2 -67 4 -148 4 -132 0 -151 -2 -165 -18 -10 -10 -17 -26
-17 -35 0 -9 -7 -17 -16 -17 -9 0 -24 -10 -34 -22 -10 -13 -22 -20 -26 -16 -4
4 5 17 20 29 19 15 26 29 24 44 -4 17 -1 21 13 18 9 -3 20 0 23 6 5 8 -50 11
-189 11 l-196 0 3 -174 c3 -161 2 -173 -14 -165 -9 5 -30 9 -45 9 -16 0 -34 5
-40 11 -5 5 -42 10 -82 11 -39 0 -71 4 -71 9 0 5 7 9 15 9 13 0 15 23 15 145
l0 145 -25 0 c-23 0 -24 -2 -13 -20z m340 -71 c1 -80 -4 -99 -28 -99 -10 0
-14 13 -14 48 0 26 -3 63 -6 84 -5 30 -3 37 12 41 33 8 36 3 36 -74z m132 54
c8 -16 28 -41 45 -57 17 -17 31 -37 30 -45 0 -11 -2 -12 -6 -3 -6 16 -73 82
-83 82 -4 0 -10 11 -12 25 -7 33 8 32 26 -2z m278 7 c7 -11 17 -20 23 -20 6 0
16 9 23 20 17 28 66 27 86 -2 18 -26 20 -38 6 -38 -5 0 -10 7 -10 15 0 28 -34
35 -68 13 -36 -23 -39 -34 -15 -60 9 -10 11 -18 5 -18 -6 0 -14 5 -17 10 -10
16 -44 -7 -66 -43 -10 -18 -35 -43 -54 -57 -19 -14 -35 -30 -35 -36 0 -18 -70
-75 -70 -57 0 5 14 17 30 26 17 10 30 24 30 30 0 7 18 29 40 50 46 42 48 52
18 78 -11 11 -19 22 -16 25 3 3 15 -5 27 -17 l21 -22 25 27 c30 33 31 38 5 61
-11 10 -20 22 -20 27 0 15 20 8 32 -12z m374 4 c-3 -9 -6 -22 -6 -30 0 -8 -5
-14 -10 -14 -22 0 -53 -39 -47 -59 3 -14 0 -21 -8 -21 -19 0 -65 -47 -65 -65
0 -8 -4 -15 -10 -15 -13 0 -60 -49 -60 -63 0 -7 -16 -23 -35 -37 -19 -14 -35
-33 -35 -42 0 -10 -4 -18 -10 -18 -16 0 1 33 37 69 37 38 40 46 18 55 -8 3
-15 12 -15 21 0 8 -4 15 -10 15 -5 0 -10 6 -10 13 1 6 11 0 23 -15 13 -16 27
-28 33 -28 17 0 63 60 57 75 -3 10 1 15 12 15 9 0 25 10 36 23 19 23 25 47 11
47 -5 0 -14 12 -21 28 l-11 27 24 -29 23 -28 23 23 c12 13 26 34 31 47 5 12
14 22 20 22 6 0 8 -7 5 -16z m444 4 c0 -6 -14 -24 -32 -38 l-32 -27 27 -42
c15 -22 29 -41 32 -41 9 0 55 52 56 63 0 7 3 5 6 -3 3 -8 15 -26 27 -40 l21
-25 -22 19 c-21 17 -22 17 -47 -1 -14 -10 -26 -24 -26 -32 0 -7 -18 6 -39 30
-39 44 -39 44 -60 25 -12 -11 -21 -14 -21 -8 0 7 4 12 10 12 5 0 12 11 16 25
7 27 61 95 76 95 4 0 8 -5 8 -12z m252 -14 c-12 -8 -22 -21 -22 -28 0 -7 -9
-21 -19 -30 -11 -10 -25 -31 -31 -47 -7 -16 -16 -29 -21 -29 -15 0 2 54 22 70
10 8 23 27 28 43 6 15 21 31 33 36 31 12 36 4 10 -15z m168 -7 c0 -4 -10 -2
-22 4 -18 10 -24 8 -35 -7 -7 -10 -13 -24 -13 -31 0 -6 -11 -23 -25 -36 -15
-13 -27 -33 -28 -45 -1 -25 -47 -51 -47 -27 0 8 7 15 15 15 19 0 19 10 -2 40
-14 21 -15 23 -1 12 14 -11 21 -7 52 29 20 24 36 48 36 55 0 7 8 14 18 16 18
4 52 -12 52 -25z m94 16 c4 -10 4 -14 0 -10 -10 9 -44 -22 -44 -40 0 -8 -16
-30 -35 -50 -41 -42 -46 -33 -10 19 14 20 25 41 25 46 0 11 38 52 49 52 5 0
12 -8 15 -17z m-1644 -33 c0 -5 -4 -10 -10 -10 -5 0 -10 5 -10 10 0 6 5 10 10
10 6 0 10 -4 10 -10z m1715 -18 c-6 -4 -17 -20 -25 -36 -8 -16 -21 -31 -28
-34 -8 -2 -1 17 15 46 18 34 31 47 38 41 6 -6 6 -12 0 -17z m-441 -18 c3 -8 2
-12 -4 -9 -6 3 -10 10 -10 16 0 14 7 11 14 -7z m236 -24 c0 -5 -4 -10 -10 -10
-5 0 -10 5 -10 10 0 6 5 10 10 10 6 0 10 -4 10 -10z m-1560 -20 c0 -5 -2 -10
-4 -10 -3 0 -8 5 -11 10 -3 6 -1 10 4 10 6 0 11 -4 11 -10z m1062 -25 c12 -16
9 -37 -4 -32 -7 2 -13 9 -13 16 0 7 -8 18 -17 25 -10 7 -18 16 -18 20 0 8 42
-15 52 -29z m608 31 c0 -3 -4 -8 -10 -11 -5 -3 -10 -1 -10 4 0 6 5 11 10 11 6
0 10 -2 10 -4z m-1615 -62 c20 -19 25 -28 16 -37 -8 -8 -11 -7 -11 3 0 7 -10
24 -22 37 -29 31 -18 29 17 -3z m1335 16 c0 -5 -2 -10 -4 -10 -3 0 -8 5 -11
10 -3 6 -1 10 4 10 6 0 11 -4 11 -10z m200 4 c0 -4 -9 -14 -20 -24 -10 -9 -24
-29 -29 -43 -6 -16 -18 -27 -28 -27 -17 1 -16 2 1 15 11 8 17 17 14 20 -3 3 6
19 20 35 25 28 42 38 42 24z m107 -16 c-3 -8 -6 -5 -6 6 -1 11 2 17 5 13 3 -3
4 -12 1 -19z m103 -17 c-6 -12 -15 -21 -21 -21 -5 0 -2 11 7 25 20 30 31 26
14 -4z m-820 -12 c16 -18 30 -37 30 -44 0 -17 55 -67 64 -58 4 5 5 -4 1 -20
-6 -21 -4 -27 8 -27 16 0 50 -40 42 -48 -3 -3 -17 7 -31 21 -30 30 -40 33 -47
15 -2 -8 -8 -9 -13 -4 -5 5 -4 11 4 13 18 7 15 40 -6 55 -10 7 -22 22 -26 33
-6 16 -9 17 -16 5 -5 -8 -12 -11 -16 -7 -4 3 -2 13 5 20 9 11 8 17 -4 27 -17
15 -39 50 -30 50 2 0 18 -14 35 -31z m-862 3 c2 -7 -2 -10 -12 -6 -9 3 -16 11
-16 16 0 13 23 5 28 -10z m1548 -7 c-11 -8 -16 -21 -13 -30 4 -9 1 -15 -8 -15
-8 0 -15 3 -15 6 0 11 23 49 34 56 19 13 21 -3 2 -17z m-1671 5 c3 -5 -1 -10
-9 -10 -9 0 -16 5 -16 10 0 6 4 10 9 10 6 0 13 -4 16 -10z m1040 0 c-3 -5 -10
-10 -16 -10 -5 0 -9 5 -9 10 0 6 7 10 16 10 8 0 12 -4 9 -10z m75 -17 c28 -30
29 -58 3 -67 -24 -9 -29 2 -9 17 18 13 17 15 -8 40 -14 14 -26 29 -26 32 0 12
17 3 40 -22z m108 9 c3 -11 0 -12 -16 -3 -11 6 -28 8 -38 4 -12 -4 -15 -3 -10
6 10 16 58 10 64 -7z m92 13 c0 -3 -11 -18 -25 -33 -14 -15 -25 -35 -25 -44 0
-10 -4 -18 -9 -18 -5 0 -8 11 -7 24 0 13 4 22 8 20 4 -2 15 9 24 26 16 27 34
40 34 25z m120 -13 c0 -9 9 -23 20 -30 11 -7 20 -17 20 -23 0 -18 -59 35 -59
54 -1 9 4 17 9 17 6 0 10 -8 10 -18z m-1484 -7 c-5 -15 17 -31 63 -46 16 -4
19 -8 9 -8 -10 -1 -18 -6 -18 -11 0 -7 -6 -7 -19 0 -28 15 -33 13 -29 -12 2
-19 8 -22 36 -20 18 2 32 -1 32 -7 0 -6 -12 -11 -26 -11 -15 0 -34 -10 -44
-22 -10 -13 -21 -20 -25 -16 -14 14 -13 126 2 147 16 24 28 28 19 6z m1824
-29 c0 -7 -11 -23 -25 -36 -14 -13 -25 -29 -25 -36 0 -7 -12 -25 -27 -41 -16
-15 -27 -33 -25 -41 2 -7 -8 -22 -22 -33 -14 -11 -26 -29 -26 -41 0 -11 -4
-18 -10 -16 -5 2 -10 6 -10 11 0 4 0 14 0 23 0 8 4 13 8 10 11 -7 42 30 42 50
0 9 8 24 18 33 27 24 33 48 17 65 -23 22 -18 32 5 11 20 -18 21 -18 35 1 8 10
18 29 21 41 6 23 24 22 24 -1z m-1380 -2 c0 -9 9 -27 20 -41 11 -14 20 -31 20
-37 -1 -11 -22 13 -40 44 -7 12 -11 12 -29 -4 -12 -11 -21 -14 -21 -7 0 6 7
14 15 17 8 4 15 15 15 25 0 10 5 19 10 19 6 0 10 -7 10 -16z m269 -4 c18 -15
21 -23 12 -33 -6 -8 -8 -17 -4 -20 3 -4 1 -7 -5 -7 -7 0 -12 10 -12 22 0 12
-7 30 -17 40 -22 24 -4 23 26 -2z m51 10 c0 -5 -4 -10 -10 -10 -5 0 -10 5 -10
10 0 6 5 10 10 10 6 0 10 -4 10 -10z m179 -4 c10 -12 8 -13 -9 -9 -24 6 -70
-34 -70 -62 0 -8 -6 -15 -13 -15 -11 0 -52 -46 -52 -59 0 -3 -15 -20 -32 -37
-18 -17 -33 -36 -33 -42 0 -14 -48 -62 -62 -62 -6 0 -8 -11 -6 -25 4 -19 0
-26 -16 -31 -27 -9 -58 -44 -52 -60 3 -7 -6 -20 -19 -28 -28 -19 -35 -20 -35
-6 0 6 7 10 15 10 25 0 17 43 -14 73 l-28 27 -26 -20 c-14 -11 -31 -20 -37
-20 -18 0 -4 -60 18 -76 13 -10 14 -15 5 -25 -9 -9 -9 -16 0 -30 15 -24 -16
-59 -54 -59 -26 0 -28 -3 -32 -47 -3 -48 -3 -48 -5 9 -2 57 -14 82 -26 52 -3
-9 -6 -67 -6 -130 0 -63 -3 -114 -7 -114 -9 0 -8 353 1 375 3 9 3 36 -1 61 -5
38 -12 50 -40 67 -27 18 -33 28 -31 52 2 21 -1 29 -10 27 -8 -1 1 18 19 43 42
59 65 79 74 66 3 -6 16 -11 27 -11 26 0 79 -55 72 -74 -3 -8 -1 -17 5 -20 6
-4 8 -12 5 -19 -2 -7 2 -21 10 -32 12 -17 11 -20 -11 -32 -14 -7 -41 -13 -60
-13 l-34 0 3 -57 c2 -46 7 -59 21 -61 24 -5 33 26 12 42 -19 13 -13 38 8 35
28 -3 40 4 98 61 33 33 65 57 71 54 7 -4 4 -10 -6 -16 -9 -5 -28 -20 -44 -34
l-27 -26 22 -18 c12 -9 20 -20 18 -22 -3 -3 6 -11 20 -18 22 -12 26 -11 44 11
24 29 26 46 6 65 -24 24 -17 37 7 14 12 -11 24 -20 27 -20 11 1 37 25 54 49
13 20 14 28 4 40 -10 12 -9 14 4 9 20 -8 25 -4 79 62 24 30 48 57 52 58 5 2 8
8 8 14 0 14 53 68 66 68 6 0 17 -6 23 -14z m456 4 c3 -5 1 -10 -4 -10 -6 0
-11 5 -11 10 0 6 2 10 4 10 3 0 8 -4 11 -10z m55 0 c0 -5 -5 -10 -11 -10 -5 0
-7 5 -4 10 3 6 8 10 11 10 2 0 4 -4 4 -10z m310 0 c0 -5 -4 -10 -10 -10 -5 0
-10 5 -10 10 0 6 5 10 10 10 6 0 10 -4 10 -10z m-140 -10 c0 -5 -4 -10 -10
-10 -5 0 -10 5 -10 10 0 6 5 10 10 10 6 0 10 -4 10 -10z m52 -32 c-7 -7 -12
-18 -12 -25 0 -8 -9 -23 -20 -35 -19 -21 -20 -21 -20 -2 0 10 9 30 20 44 11
14 20 32 20 40 0 11 3 11 12 2 9 -9 9 -15 0 -24z m-244 -13 c-9 -9 -30 14 -23
25 6 9 10 8 17 -4 6 -10 8 -19 6 -21z m-424 -7 c-5 -28 0 -38 29 -67 23 -22
33 -39 29 -50 -9 -26 -42 -42 -42 -21 0 6 7 10 15 10 20 0 19 12 -2 38 -10 11
-25 29 -34 39 -23 28 -30 63 -13 63 8 0 14 5 14 10 0 6 2 10 4 10 3 0 2 -15 0
-32z m531 -22 c-17 -13 -31 -23 -33 -22 -7 8 12 36 25 36 10 0 12 6 8 23 -7
21 -6 21 11 4 18 -17 18 -18 -11 -41z m-1339 23 c18 -20 18 -21 -1 -35 -24
-18 -43 -18 -61 1 -12 11 -12 19 -4 35 14 26 42 26 66 -1z m458 -52 c9 -13 4
-24 -22 -49 -17 -18 -32 -28 -32 -22 0 6 9 19 20 29 20 18 27 45 12 45 -4 0
-13 10 -21 22 -14 22 -13 22 10 7 12 -9 28 -23 33 -32z m36 33 c0 -5 -5 -10
-11 -10 -5 0 -7 5 -4 10 3 6 8 10 11 10 2 0 4 -4 4 -10z m578 -4 c-10 -7 -18
-19 -18 -25 0 -16 -49 -65 -57 -57 -4 3 6 19 21 35 17 18 25 34 21 42 -5 7 -4
10 3 5 6 -3 13 -2 17 4 3 5 12 10 18 10 7 0 4 -7 -5 -14z m72 4 c0 -5 7 -10
15 -10 8 0 15 -9 15 -20 0 -11 -4 -20 -9 -20 -5 0 -13 9 -16 20 -3 11 -11 20
-16 20 -5 0 -9 5 -9 10 0 6 5 10 10 10 6 0 10 -4 10 -10z m60 0 c0 -5 -4 -10
-10 -10 -5 0 -10 5 -10 10 0 6 5 10 10 10 6 0 10 -4 10 -10z m66 -17 c-7 -7
-26 7 -26 19 0 6 6 6 15 -2 9 -7 13 -15 11 -17z m-711 6 c11 -17 -1 -21 -15
-4 -8 9 -8 15 -2 15 6 0 14 -5 17 -11z m158 -35 c12 -4 23 -2 25 5 2 6 8 11
14 11 6 0 4 -7 -3 -17 -8 -9 -12 -26 -11 -37 2 -12 1 -18 -4 -14 -4 4 -13 3
-21 -4 -12 -9 -13 -7 -8 13 4 17 1 30 -9 38 -9 8 -15 21 -15 30 1 14 2 14 6
-1 2 -9 14 -20 26 -24z m577 6 c0 -5 -4 -10 -10 -10 -5 0 -10 5 -10 10 0 6 5
10 10 10 6 0 10 -4 10 -10z m305 0 c3 -5 1 -10 -4 -10 -6 0 -11 5 -11 10 0 6
2 10 4 10 3 0 8 -4 11 -10z m65 6 c0 -2 -7 -9 -15 -16 -13 -11 -14 -10 -9 4 5
14 24 23 24 12z m-1380 -20 c0 -3 -4 -8 -10 -11 -5 -3 -10 -1 -10 4 0 6 5 11
10 11 6 0 10 -2 10 -4z m1133 -19 c-4 -6 -20 -22 -35 -35 -15 -13 -28 -32 -28
-43 0 -20 -15 -26 -24 -10 -4 5 0 12 6 15 10 5 10 7 1 12 -17 7 -17 25 0 19 6
-3 26 10 42 28 28 31 55 41 38 14z m-1479 -31 c6 -25 5 -28 -7 -17 -8 6 -14
20 -12 29 2 9 4 19 4 21 2 9 9 -6 15 -33z m414 22 c7 -7 12 -16 12 -20 0 -15
-15 -8 -28 12 -13 22 -3 27 16 8z m142 -3 c7 -8 8 -15 2 -15 -5 0 -15 7 -22
15 -7 8 -8 15 -2 15 5 0 15 -7 22 -15z m590 5 c0 -5 -2 -10 -4 -10 -3 0 -8 5
-11 10 -3 6 -1 10 4 10 6 0 11 -4 11 -10z m60 6 c0 -3 -4 -8 -10 -11 -5 -3
-10 -1 -10 4 0 6 5 11 10 11 6 0 10 -2 10 -4z m55 -6 c3 -5 1 -10 -4 -10 -6 0
-11 5 -11 10 0 6 2 10 4 10 3 0 8 -4 11 -10z m103 -2 c7 -7 12 -16 12 -22 0
-5 -6 -2 -13 9 -17 22 -32 14 -58 -29 -17 -28 -19 -29 -19 -8 0 12 4 22 9 22
5 0 11 9 14 20 6 22 36 27 55 8z m-1493 -71 c-1 -74 -9 -101 -28 -94 -6 2 -10
28 -8 68 2 76 8 99 24 99 8 0 12 -23 12 -73z m1809 38 c-29 -22 -37 -18 -17 9
11 15 22 21 27 15 6 -5 3 -14 -10 -24z m-504 4 c0 -12 16 -37 35 -56 19 -19
35 -41 35 -49 0 -8 -16 -28 -35 -45 -19 -17 -35 -40 -35 -50 0 -10 -7 -19 -15
-19 -18 0 -20 17 -2 23 9 3 7 13 -7 38 -19 34 -19 34 0 17 18 -15 21 -15 47 7
33 30 34 39 2 73 -22 23 -28 25 -45 14 -23 -14 -30 -15 -30 -3 0 5 10 11 21
14 17 5 20 11 15 31 -4 15 -2 26 4 26 5 0 10 -9 10 -21z m-110 -4 c0 -8 -5
-15 -10 -15 -17 0 -60 -53 -55 -67 2 -7 -2 -13 -10 -13 -8 0 -15 -5 -15 -12 0
-6 -3 -8 -6 -5 -4 4 -1 13 5 21 7 9 10 25 6 38 -4 15 -3 18 3 10 7 -10 15 -6
35 14 15 15 27 31 27 35 0 5 5 9 10 9 6 0 10 -7 10 -15z m-1100 -2 c-1 -14
-27 -43 -39 -43 -6 0 -11 -11 -11 -25 0 -14 -4 -25 -10 -25 -5 0 -10 13 -10
30 0 23 5 31 25 36 14 3 25 12 25 20 0 8 5 14 10 14 6 0 10 -3 10 -7z m738 -5
c10 -10 17 -10 32 0 23 14 25 10 8 -18 -11 -17 -8 -24 17 -50 16 -16 26 -33
22 -36 -4 -4 -15 3 -26 14 -10 12 -23 22 -28 22 -6 0 -16 14 -23 30 -7 17 -16
30 -21 30 -5 0 -9 5 -9 10 0 14 13 13 28 -2z m143 -12 c16 -14 25 -27 20 -31
-5 -3 -21 6 -35 20 -42 42 -31 50 15 11z m659 14 c0 -5 -2 -10 -4 -10 -3 0 -8
5 -11 10 -3 6 -1 10 4 10 6 0 11 -4 11 -10z m110 0 c0 -5 -5 -10 -11 -10 -5 0
-7 5 -4 10 3 6 8 10 11 10 2 0 4 -4 4 -10z m-645 -10 c3 -5 -1 -10 -9 -10 -9
0 -16 5 -16 10 0 6 4 10 9 10 6 0 13 -4 16 -10z m675 -25 c0 -8 -13 -29 -30
-47 -16 -17 -30 -36 -30 -43 0 -7 -9 -20 -20 -30 -11 -10 -20 -13 -20 -7 0 6
5 14 10 17 6 3 10 17 10 31 0 13 -4 24 -10 24 -5 0 -10 5 -10 10 0 6 8 5 19
-2 17 -10 23 -9 40 6 12 11 21 27 21 38 0 10 5 18 10 18 6 0 10 -7 10 -15z
m-539 -14 c14 -13 19 -26 14 -40 -9 -30 -27 -26 -19 4 4 18 1 27 -10 31 -9 3
-16 10 -16 15 0 14 9 11 31 -10z m169 9 c0 -5 -4 -10 -10 -10 -5 0 -10 5 -10
10 0 6 5 10 10 10 6 0 10 -4 10 -10z m310 6 c0 -3 -4 -8 -10 -11 -5 -3 -10 -1
-10 4 0 6 5 11 10 11 6 0 10 -2 10 -4z m-212 -53 c-12 -27 -33 -51 -73 -83
-10 -8 -16 -10 -12 -4 4 7 -2 14 -13 17 -20 5 -28 27 -10 27 6 0 10 -4 10 -10
0 -18 26 -10 50 14 12 14 20 32 17 40 -5 13 5 20 35 25 4 0 2 -11 -4 -26z
m119 3 c-9 -7 -17 -18 -17 -23 0 -11 -34 -53 -44 -53 -13 0 -4 17 30 58 20 23
40 40 43 36 3 -3 -2 -11 -12 -18z m-1417 4 c0 -5 -4 -10 -10 -10 -5 0 -10 5
-10 10 0 6 5 10 10 10 6 0 10 -4 10 -10z m578 -9 c12 -11 20 -26 17 -34 -3 -7
1 -20 10 -27 8 -7 15 -18 15 -25 0 -6 11 -17 24 -25 30 -15 48 -1 72 56 17 41
25 42 17 1 -3 -15 -18 -41 -34 -57 -16 -16 -29 -34 -29 -42 0 -7 -19 -24 -41
-36 -30 -17 -40 -29 -36 -42 3 -12 0 -17 -8 -14 -7 3 -15 16 -17 28 -4 17 -1
22 11 19 20 -5 71 39 71 61 0 9 -5 16 -10 16 -6 0 -21 12 -33 26 -25 28 -52
25 -60 -7 -5 -19 -47 -28 -47 -9 0 6 7 10 15 10 8 0 20 9 27 20 7 11 19 20 26
20 17 0 7 40 -14 56 -8 6 -14 14 -14 18 0 11 14 6 38 -13z m52 9 c0 -5 -4 -10
-10 -10 -5 0 -10 5 -10 10 0 6 5 10 10 10 6 0 10 -4 10 -10z m179 -4 c9 -11 6
-12 -15 -8 -16 3 -30 -1 -35 -9 -7 -11 -9 -11 -9 2 0 31 38 41 59 15z m781
-16 c0 -5 -2 -10 -4 -10 -3 0 -8 5 -11 10 -3 6 -1 10 4 10 6 0 11 -4 11 -10z
m-1690 -40 c13 -11 18 -20 12 -20 -10 0 -42 27 -42 36 0 8 7 4 30 -16z m960
-12 c0 -17 -3 -28 -7 -24 -11 10 -11 56 -1 56 4 0 8 -14 8 -32z m134 17 c-10
-6 -14 -17 -10 -23 3 -6 2 -13 -3 -16 -5 -3 -11 7 -13 23 -4 24 -1 29 19 29
21 0 22 -2 7 -13z m612 -20 c-3 -8 -13 -15 -23 -15 -17 1 -17 1 0 14 9 7 17
19 18 27 0 11 2 11 6 1 3 -7 2 -19 -1 -27z m-1122 -11 c5 -14 4 -15 -9 -4 -17
14 -19 20 -6 20 5 0 12 -7 15 -16z m273 -16 c-3 -8 -6 -5 -6 6 -1 11 2 17 5
13 3 -3 4 -12 1 -19z m609 -50 c4 -7 -2 -4 -14 6 -12 11 -22 29 -22 40 0 18 2
17 14 -6 8 -16 18 -34 22 -40z m-1286 31 c0 -5 -6 -9 -13 -9 -8 0 -22 -9 -32
-20 -10 -11 -20 -18 -22 -16 -3 2 8 18 23 35 25 28 44 33 44 10z m1493 -4 c-3
-13 -16 -31 -29 -40 -13 -8 -31 -30 -40 -48 -9 -17 -21 -35 -27 -39 -6 -3 -15
-21 -21 -40 -7 -20 -19 -34 -31 -36 -19 -4 -19 -3 3 17 12 12 22 30 22 41 0
10 10 26 21 34 18 12 21 21 15 48 -4 21 -3 28 3 19 7 -11 13 -10 35 5 14 11
26 27 26 36 0 9 6 19 13 21 6 3 13 6 13 6 1 1 -1 -10 -3 -24z m-1683 5 c0 -5
-4 -10 -10 -10 -5 0 -10 5 -10 10 0 6 5 10 10 10 6 0 10 -4 10 -10z m940 0 c0
-5 -4 -10 -10 -10 -5 0 -10 5 -10 10 0 6 5 10 10 10 6 0 10 -4 10 -10z m125 0
c-3 -5 -11 -10 -16 -10 -6 0 -7 5 -4 10 3 6 11 10 16 10 6 0 7 -4 4 -10z m275
0 c0 -5 -7 -10 -15 -10 -8 0 -15 -5 -15 -12 0 -6 -3 -8 -6 -5 -8 8 14 37 27
37 5 0 9 -4 9 -10z m224 -6 c8 -21 8 -24 -4 -24 -17 0 -50 -34 -50 -52 0 -29
-15 -28 -16 1 -1 20 6 33 26 46 15 10 26 25 23 32 -3 7 -1 13 5 13 5 0 13 -7
16 -16z m-663 -6 c0 -7 2 -22 4 -33 3 -15 -6 -25 -33 -38 l-37 -19 24 25 c12
14 24 37 25 51 1 26 15 37 17 14z m229 2 c0 -5 -2 -10 -4 -10 -3 0 -8 5 -11
10 -3 6 -1 10 4 10 6 0 11 -4 11 -10z m287 -28 c-10 -10 -17 -26 -17 -35 0 -9
-4 -17 -10 -17 -20 0 -10 47 13 58 31 15 32 14 14 -6z m-1524 -25 c14 -26 16
-39 7 -61 -5 -15 -8 -32 -4 -37 3 -5 6 -40 7 -78 3 -75 -13 -115 -35 -93 -9 9
-9 30 -1 90 7 47 8 96 3 127 -16 94 -8 111 23 52z m742 23 c3 -5 -2 -10 -11
-10 -21 0 -74 -48 -74 -67 0 -7 -4 -13 -10 -13 -18 0 -10 20 20 52 17 17 30
35 30 39 0 12 37 11 45 -1z m642 -23 c-15 -33 -31 -36 -21 -4 6 20 25 40 31
33 2 -1 -3 -14 -10 -29z m-117 11 c0 -19 -18 -44 -25 -36 -4 3 0 15 7 27 15
24 18 26 18 9z m-1050 -29 c0 -5 -4 -9 -10 -9 -5 0 -10 7 -10 16 0 8 5 12 10
9 6 -3 10 -10 10 -16z m927 5 c2 -5 -11 -9 -27 -10 -32 -1 -41 12 -12 19 22 6
35 3 39 -9z m-230 -89 c-13 -11 -32 -32 -42 -47 -21 -34 -34 -36 -28 -5 3 14
-2 29 -11 36 -23 19 -20 34 3 19 11 -7 17 -16 15 -20 -3 -4 0 -8 5 -8 6 0 11
4 11 8 0 4 14 16 30 25 21 13 30 27 31 45 2 26 2 26 6 -3 4 -22 -1 -34 -20
-50z m303 50 c-7 -8 -20 -15 -28 -15 -13 0 -12 3 4 15 25 19 40 19 24 0z
m-1052 -15 c-7 -10 -14 -18 -15 -16 -6 6 9 36 18 36 5 0 4 -9 -3 -20z m902 -1
c0 -6 -4 -7 -10 -4 -5 3 -10 11 -10 16 0 6 5 7 10 4 6 -3 10 -11 10 -16z m262
9 c-7 -7 -12 -21 -12 -32 0 -10 -3 -16 -7 -12 -13 13 -9 41 7 48 23 10 25 9
12 -4z m138 8 c0 -3 -4 -8 -10 -11 -5 -3 -10 -1 -10 4 0 6 5 11 10 11 6 0 10
-2 10 -4z m120 -6 c0 -5 -4 -10 -10 -10 -5 0 -10 5 -10 10 0 6 5 10 10 10 6 0
10 -4 10 -10z m60 0 c0 -5 -4 -10 -10 -10 -5 0 -10 5 -10 10 0 6 5 10 10 10 6
0 10 -4 10 -10z m164 -5 c-4 -8 -8 -15 -10 -15 -2 0 -4 7 -4 15 0 8 4 15 10
15 5 0 7 -7 4 -15z m-1694 -10 c6 -8 10 -21 8 -29 -2 -11 -8 -7 -20 14 -18 31
-10 41 12 15z m1640 0 c0 -8 -2 -15 -4 -15 -2 0 -6 7 -10 15 -3 8 -1 15 4 15
6 0 10 -7 10 -15z m-320 -9 c0 -8 3 -23 7 -33 3 -10 2 -15 -2 -10 -5 4 -17 0
-27 -10 -10 -9 -21 -13 -25 -9 -5 4 0 12 10 17 9 6 17 21 17 34 0 14 5 25 10
25 6 0 10 -6 10 -14z m109 -42 c-7 -13 -19 -24 -28 -23 -12 0 -10 4 7 16 12 9
22 27 23 42 1 19 3 21 6 7 3 -10 -1 -29 -8 -42z m-774 36 c-3 -5 -16 -15 -28
-21 -21 -10 -21 -9 2 10 25 23 36 27 26 11z m415 -6 c0 -8 -5 -12 -10 -9 -6 4
-8 11 -5 16 9 14 15 11 15 -7z m-598 -6 c25 25 26 10 2 -25 -25 -37 -64 -71
-64 -56 0 5 9 14 20 21 20 12 28 52 10 52 -5 0 -10 5 -10 11 0 8 5 7 15 -1 12
-10 19 -10 27 -2z m463 0 c-11 -6 -23 -16 -27 -22 -4 -6 -10 -7 -14 -3 -11 11
17 37 40 37 21 -1 21 -1 1 -12z m735 -14 c0 -9 -8 -23 -17 -30 -26 -20 -39
-17 -20 4 10 10 17 24 17 30 0 7 5 12 10 12 6 0 10 -7 10 -16z m-1073 -26 c-3
-7 -5 -2 -5 12 0 14 2 19 5 13 2 -7 2 -19 0 -25z m453 28 c0 -9 -32 -36 -42
-36 -7 0 -3 9 8 19 18 19 34 26 34 17z m124 -11 c-4 -9 -15 -20 -26 -26 -37
-20 -31 6 7 28 26 15 25 15 19 -2z m-994 -17 c0 -5 -6 -8 -14 -5 -8 3 -17 -1
-20 -10 -4 -9 -9 -13 -13 -9 -9 8 28 47 38 40 5 -3 9 -10 9 -16z m-149 -5 c13
-16 12 -17 -3 -5 -10 8 -26 11 -38 7 -11 -4 -20 -2 -20 4 0 18 46 13 61 -6z
m1205 2 c9 -8 11 -15 6 -15 -5 0 -15 7 -22 15 -7 8 -9 15 -6 15 4 0 14 -7 22
-15z m-611 -25 c3 -5 1 -10 -4 -10 -6 0 -11 5 -11 10 0 6 2 10 4 10 3 0 8 -4
11 -10z m245 -10 c0 -5 -7 -10 -16 -10 -8 0 -12 5 -9 10 3 6 10 10 16 10 5 0
9 -4 9 -10z m144 -6 c4 -11 2 -15 -8 -11 -7 3 -19 0 -25 -6 -12 -12 -14 -7 -5
17 8 21 30 21 38 0z m245 -1 c0 -5 -3 -9 -9 -11 -5 -2 -10 4 -10 13 0 16 16
14 19 -2z m123 -8 c3 -14 2 -25 -1 -25 -3 0 -16 -3 -28 -6 -14 -4 -23 -2 -23
5 0 6 7 11 15 11 8 0 15 9 15 20 0 29 17 25 22 -5z m118 1 c0 -23 -26 -43 -39
-30 -3 4 0 9 7 11 6 3 12 13 12 24 0 10 5 19 10 19 6 0 10 -11 10 -24z m110 7
c0 -20 -17 -50 -24 -43 -2 3 -2 17 1 33 6 30 23 37 23 10z m-1517 -33 c3 -12
0 -17 -8 -14 -7 3 -15 16 -18 30 -3 18 -1 22 8 14 7 -6 15 -19 18 -30z m1577
20 c0 -5 -4 -10 -10 -10 -5 0 -10 5 -10 10 0 6 5 10 10 10 6 0 10 -4 10 -10z
m-984 -35 c-13 -43 -26 -45 -26 -6 0 20 6 31 18 34 9 3 17 5 18 6 1 0 -4 -15
-10 -34z m544 15 c0 -5 -4 -10 -10 -10 -5 0 -10 5 -10 10 0 6 5 10 10 10 6 0
10 -4 10 -10z m-230 -20 c0 -5 -4 -10 -10 -10 -5 0 -10 5 -10 10 0 6 5 10 10
10 6 0 10 -4 10 -10z m-727 -71 c-5 -5 -7 7 -4 29 5 34 6 35 9 8 2 -16 0 -32
-5 -37z m1219 39 c-7 -7 -12 -8 -12 -2 0 6 3 14 7 17 3 4 9 5 12 2 2 -3 -1
-11 -7 -17z m-112 2 c0 -5 -8 -10 -17 -10 -15 0 -16 2 -3 10 19 12 20 12 20 0z
m-1543 -22 c-3 -8 -6 -5 -6 6 -1 11 2 17 5 13 3 -3 4 -12 1 -19z m103 -15 c0
-7 -4 -13 -10 -13 -5 0 -10 12 -10 28 0 21 2 24 10 12 5 -8 10 -21 10 -27z
m215 -23 c-20 -22 -35 -26 -35 -10 0 6 7 10 15 10 16 0 16 24 1 50 -5 8 2 5
14 -7 23 -22 23 -23 5 -43z m340 30 c-3 -5 -11 -10 -16 -10 -6 0 -7 5 -4 10 3
6 11 10 16 10 6 0 7 -4 4 -10z m-409 -37 c-6 -6 -36 9 -36 18 0 5 9 4 20 -3
10 -7 18 -14 16 -15z m104 -3 c0 -5 -2 -10 -4 -10 -3 0 -8 5 -11 10 -3 6 -1
10 4 10 6 0 11 -4 11 -10z m200 -75 c0 -8 -4 -15 -10 -15 -5 0 -10 7 -10 15 0
8 5 15 10 15 6 0 10 -7 10 -15z m335 -134 c-3 -6 -11 -11 -17 -11 -6 0 -6 6 2
15 14 17 26 13 15 -4z m-375 -61 c0 -5 -5 -10 -11 -10 -5 0 -7 5 -4 10 3 6 8
10 11 10 2 0 4 -4 4 -10z m411 -84 c-7 -29 -7 -36 4 -36 24 0 26 -19 5 -40
l-20 -20 0 23 c0 12 -9 33 -20 47 -25 32 -25 50 0 43 15 -4 20 0 20 14 0 11 3
23 8 27 12 13 14 -20 3 -58z m102 4 c3 -11 1 -23 -4 -26 -5 -3 -9 4 -9 15 0
11 -4 23 -10 26 -5 3 -10 11 -10 17 0 17 27 -10 33 -32z m-270 -23 c-8 -12
-23 14 -22 38 0 18 1 17 13 -5 8 -14 12 -29 9 -33z m-3 -21 c0 -3 -4 -8 -10
-11 -5 -3 -10 -1 -10 4 0 6 5 11 10 11 6 0 10 -2 10 -4z m125 -6 c-3 -5 -10
-10 -16 -10 -5 0 -9 5 -9 10 0 6 7 10 16 10 8 0 12 -4 9 -10z m110 0 c3 -5 1
-10 -4 -10 -6 0 -11 5 -11 10 0 6 2 10 4 10 3 0 8 -4 11 -10z m-290 -70 c3 -5
-1 -10 -9 -10 -9 0 -16 5 -16 10 0 6 4 10 9 10 6 0 13 -4 16 -10z m-230 -119
c-7 -23 -25 -29 -25 -8 0 14 21 39 28 33 2 -3 1 -14 -3 -25z m-63 -93 c-7 -7
-12 -8 -12 -2 0 14 12 26 19 19 2 -3 -1 -11 -7 -17z"/>
<path d="M208 2428 c-3 -127 3 -169 21 -140 4 8 9 72 10 143 2 108 0 129 -13
129 -12 0 -15 -24 -18 -132z"/>
<path d="M2318 2553 c7 -3 12 -23 12 -48 0 -28 5 -45 15 -48 21 -9 26 5 15 44
-12 41 0 56 25 29 20 -22 40 -26 50 -9 12 18 -27 36 -79 37 -28 0 -45 -2 -38
-5z"/>
<path d="M2475 2550 c7 -12 49 -12 85 0 19 6 11 8 -33 9 -36 1 -56 -3 -52 -9z"/>
<path d="M2678 2553 c7 -3 16 -2 19 1 4 3 -2 6 -13 5 -11 0 -14 -3 -6 -6z"/>
<path d="M2710 2556 c3 -3 24 -6 47 -7 24 -2 45 -9 47 -16 3 -7 21 -13 41 -13
19 0 56 -6 81 -12 l46 -13 -8 -150 c-4 -82 -8 -173 -8 -201 l-1 -52 -60 -5
c-91 -8 -157 -17 -166 -23 -5 -3 -9 6 -9 20 0 21 -5 26 -25 26 -26 0 -35 -24
-12 -33 8 -4 7 -6 -3 -7 -23 -2 -43 -7 -64 -16 -15 -6 -18 -4 -14 8 4 8 2 21
-2 28 -7 11 -16 8 -42 -12 -32 -25 -93 -37 -182 -37 -56 -1 -66 -9 -66 -57 0
-34 4 -44 16 -44 12 0 15 7 12 23 -3 17 2 26 19 34 25 12 33 -1 8 -14 -12 -7
-12 -13 -2 -33 16 -33 58 -34 72 -2 5 12 13 22 17 22 5 0 8 6 8 14 0 16 28 41
36 33 4 -3 -1 -13 -10 -22 -24 -24 -21 -61 7 -69 12 -3 23 -2 25 3 1 4 16 23
32 41 17 19 30 37 30 42 0 4 5 8 10 8 17 0 11 -22 -11 -46 -23 -25 -18 -44 11
-44 23 0 90 62 90 84 0 9 5 16 11 16 7 0 9 -10 6 -25 -3 -19 1 -29 16 -36 16
-9 24 -7 43 15 13 14 24 29 24 34 0 6 7 13 16 16 25 9 25 7 4 -14 -28 -28 -25
-46 11 -59 26 -9 32 -8 36 7 2 9 16 26 31 37 l27 20 -17 -27 c-15 -22 -16 -32
-6 -53 15 -33 34 -32 52 3 14 25 15 16 13 -116 -3 -132 -2 -143 15 -139 16 5
16 1 -2 -47 -21 -55 -26 -106 -10 -106 5 0 12 11 16 25 10 39 24 30 24 -15 l0
-40 76 0 c47 0 73 -4 69 -10 -3 -5 -30 -10 -58 -10 -29 0 -59 -5 -67 -10 -13
-9 -13 -12 3 -24 15 -12 15 -15 2 -26 -8 -7 -15 -18 -15 -25 0 -8 -4 -15 -9
-17 -13 -4 -18 -52 -6 -58 6 -3 15 11 22 30 6 19 16 34 22 33 5 -2 16 13 22
32 11 30 18 35 44 35 27 -1 28 -2 13 -14 -10 -7 -18 -19 -18 -26 0 -7 -8 -19
-17 -26 -15 -10 -16 -15 -6 -25 11 -10 20 -7 47 20 32 31 51 76 47 114 -2 11
5 17 17 17 29 0 36 28 9 32 -14 2 -21 9 -18 18 26 103 34 129 47 153 11 20 13
32 6 39 -21 21 -28 7 -71 -141 -7 -23 -13 -25 -79 -28 l-72 -3 0 71 0 72 85
-5 c80 -4 86 -3 90 16 3 12 4 28 3 36 0 8 0 60 0 115 l2 100 38 12 c20 6 40 9
43 5 3 -4 2 -52 -1 -107 -6 -90 -1 -129 15 -113 6 5 11 90 16 258 2 48 -1 84
-7 84 -5 -1 -24 -5 -41 -9 -20 -4 -33 -3 -33 3 0 6 18 13 39 17 22 4 42 13 45
21 3 8 6 71 7 140 0 68 4 124 7 124 27 -1 33 -24 39 -138 5 -110 8 -122 25
-122 14 0 17 6 14 23 -3 12 -8 65 -11 117 -4 54 -12 98 -18 103 -7 4 6 6 28 5
l40 -3 6 -55 c4 -43 6 -35 6 40 0 52 -2 80 -4 63 -5 -37 -10 -40 -27 -18 -7
10 -62 24 -151 40 -77 14 -183 34 -235 46 -86 18 -322 38 -310 25z m405 -86
c117 -18 166 -32 160 -48 -3 -7 -5 -27 -5 -43 0 -21 -4 -27 -15 -23 -19 8 -19
-5 0 -30 17 -23 20 -56 5 -56 -7 0 -7 -6 0 -19 13 -25 13 -71 0 -71 -5 0 -10
7 -10 16 0 13 -5 12 -29 -5 -35 -25 -61 -27 -61 -5 0 9 -6 14 -12 12 -7 -3
-13 -13 -13 -24 0 -13 -8 -20 -28 -22 -16 -2 -26 -8 -24 -15 4 -13 36 -14 85
-3 17 4 32 4 32 -1 0 -5 -42 -16 -92 -25 -84 -14 -95 -14 -111 0 -16 14 -17
27 -12 92 3 41 8 122 10 180 2 58 4 106 4 106 1 1 17 -1 116 -16z m-535 -410
c0 -5 -2 -10 -4 -10 -3 0 -8 5 -11 10 -3 6 -1 10 4 10 6 0 11 -4 11 -10z m430
-93 c8 -9 35 14 57 49 11 18 12 17 12 -8 1 -35 11 -40 44 -23 l27 14 0 -45 c0
-37 -3 -44 -20 -44 -14 0 -20 -7 -20 -24 0 -13 -7 -29 -15 -36 -17 -14 -21
-64 -4 -58 6 2 22 23 35 47 l23 44 -1 -59 -2 -59 -74 3 c-67 3 -74 2 -79 -17
-14 -55 -20 -7 -17 139 3 157 16 236 22 135 2 -27 7 -54 12 -58z m100 93 c0
-5 -5 -10 -11 -10 -5 0 -7 5 -4 10 3 6 8 10 11 10 2 0 4 -4 4 -10z m157 -22
c-3 -8 -6 -5 -6 6 -1 11 2 17 5 13 3 -3 4 -12 1 -19z m-347 2 c0 -5 -4 -10
-10 -10 -5 0 -10 5 -10 10 0 6 5 10 10 10 6 0 10 -4 10 -10z m-400 -70 c0 -5
-5 -10 -11 -10 -5 0 -7 5 -4 10 3 6 8 10 11 10 2 0 4 -4 4 -10z m390 -10 c0
-5 -5 -10 -11 -10 -5 0 -7 5 -4 10 3 6 8 10 11 10 2 0 4 -4 4 -10z"/>
<path d="M3020 2430 c0 -30 4 -40 16 -40 12 0 15 6 10 25 -4 14 -2 25 4 25 5
0 10 7 10 15 0 8 -9 15 -20 15 -17 0 -20 -7 -20 -40z"/>
<path d="M3168 2383 c-24 -6 -23 -23 2 -23 11 0 20 7 20 15 0 8 -1 14 -2 14
-2 -1 -11 -3 -20 -6z"/>
<path d="M3043 2373 c-17 -3 -23 -12 -24 -31 0 -15 -2 -42 -5 -59 -2 -18 0
-33 5 -33 14 0 23 35 15 64 -5 22 -3 26 15 26 14 0 21 6 21 20 0 11 -1 19 -2
19 -2 -1 -13 -4 -25 -6z"/>
<path d="M3118 2345 c-8 -8 2 -45 13 -45 4 0 11 5 15 11 7 12 -19 43 -28 34z"/>
<path d="M3016 2206 c-3 -14 -3 -31 0 -39 3 -8 1 -18 -5 -21 -14 -9 -2 -36 15
-36 10 0 14 10 13 33 -1 17 3 44 9 60 10 24 9 27 -7 27 -12 0 -21 -9 -25 -24z"/>
<path d="M3012 1865 c-16 -36 -15 -75 2 -75 9 0 17 16 21 41 9 49 -6 71 -23
34z"/>
<path d="M3070 2557 c0 -9 62 -26 150 -43 101 -18 100 -19 97 16 -2 24 -7 30
-25 30 -15 0 -21 -4 -16 -12 5 -8 -5 -9 -37 -4 -77 12 -169 19 -169 13z"/>
<path d="M3373 2553 c-28 -11 -4 -83 28 -83 15 0 10 38 -7 48 -14 8 -14 10 1
25 17 17 6 22 -22 10z"/>
<path d="M3431 2544 c0 -11 3 -14 6 -6 3 7 2 16 -1 19 -3 4 -6 -2 -5 -13z"/>
<path d="M7 2533 c-4 -3 -7 -20 -7 -36 0 -25 2 -28 15 -17 8 7 15 23 15 36 0
23 -10 31 -23 17z"/>
<path d="M2670 2490 c0 -11 9 -25 20 -32 11 -7 20 -18 20 -24 0 -6 7 -17 15
-24 22 -18 19 -31 -15 -70 -16 -19 -30 -38 -30 -42 0 -27 57 19 93 75 17 26
17 27 -3 27 -12 0 -20 7 -20 18 0 10 -8 25 -17 33 -10 9 -25 26 -33 37 -18 27
-30 28 -30 2z"/>
<path d="M2747 2490 c6 -22 21 -35 30 -27 2 3 2 15 -2 26 -8 28 -35 28 -28 1z"/>
<path d="M2818 2461 c-10 -20 -18 -41 -18 -44 0 -17 24 -4 54 28 23 24 29 38
22 45 -20 20 -41 9 -58 -29z"/>
<path d="M2440 2480 c0 -5 5 -10 10 -10 6 0 10 5 10 10 0 6 -4 10 -10 10 -5 0
-10 -4 -10 -10z"/>
<path d="M2680 2266 c0 -9 5 -16 10 -16 6 0 10 4 10 9 0 6 -4 13 -10 16 -5 3
-10 -1 -10 -9z"/>
<path d="M3428 2188 c-3 -24 -1 -52 3 -63 5 -13 8 2 8 43 1 71 -5 82 -11 20z"/>
<path d="M2517 2196 c-3 -7 3 -20 14 -30 24 -20 26 -20 32 3 8 33 -34 58 -46
27z"/>
<path d="M2440 2166 c-19 -20 -40 -36 -45 -36 -13 0 -85 -62 -85 -72 0 -15 40
-8 58 10 9 9 22 17 27 17 18 0 87 83 83 101 -2 13 -11 8 -38 -20z"/>
<path d="M3341 2128 c-11 -29 3 -46 24 -28 9 7 15 8 15 2 0 -6 2 -16 5 -24 3
-7 -5 -17 -17 -23 -22 -10 -44 -70 -29 -79 4 -3 4 -42 0 -88 -3 -46 -5 -85 -2
-87 13 -16 22 28 24 117 1 100 2 102 25 102 22 0 24 3 23 55 -1 43 -6 58 -20
65 -27 15 -39 12 -48 -12z"/>
<path d="M2497 2094 c-13 -13 -7 -24 14 -24 11 0 19 5 17 12 -5 14 -22 21 -31
12z"/>
<path d="M220 2045 c0 -14 4 -25 9 -25 4 0 6 11 3 25 -2 14 -6 25 -8 25 -2 0
-4 -11 -4 -25z"/>
<path d="M3426 2004 c-9 -23 -6 -196 4 -219 5 -13 9 27 9 108 1 70 -1 127 -3
127 -2 0 -7 -7 -10 -16z"/>
<path d="M0 1805 c0 -129 4 -204 10 -200 5 3 9 81 9 183 1 97 2 186 3 196 2
10 -3 21 -9 23 -10 4 -13 -41 -13 -202z"/>
<path d="M2850 1930 c-11 -7 -12 -12 -3 -21 13 -13 33 -4 33 17 0 16 -9 18
-30 4z"/>
<path d="M2324 1922 c-12 -7 -17 -35 -15 -89 2 -50 21 -39 21 11 0 25 5 48 10
51 12 7 14 35 3 35 -5 0 -13 -4 -19 -8z"/>
<path d="M2775 1900 c-7 -12 2 -30 16 -30 5 0 9 9 9 20 0 21 -15 27 -25 10z"/>
<path d="M2730 1870 c-14 -10 -22 -22 -18 -25 10 -10 48 14 48 30 0 19 0 19
-30 -5z"/>
<path d="M2876 1792 c-2 -4 -7 -24 -11 -45 -8 -40 9 -54 18 -14 3 12 9 32 12
45 7 21 -8 32 -19 14z"/>
<path d="M3345 1768 c-13 -43 -27 -148 -22 -162 12 -31 24 -8 30 56 4 35 9 75
13 91 6 27 -12 41 -21 15z"/>
<path d="M2576 1763 c-11 -11 -6 -23 9 -23 8 0 15 4 15 9 0 13 -16 22 -24 14z"/>
<path d="M2316 1737 c-3 -12 -6 -47 -6 -77 1 -51 2 -54 16 -35 10 13 14 38 13
73 -3 57 -13 75 -23 39z"/>
<path d="M3430 1636 c0 -105 -1 -114 -20 -119 -28 -7 -25 -34 5 -39 l25 -5 0
138 c0 77 -2 139 -5 139 -3 0 -5 -51 -5 -114z"/>
<path d="M2407 1632 c-21 -23 -22 -42 -2 -42 8 0 17 11 21 25 8 34 1 40 -19
17z"/>
<path d="M2590 1608 c-14 -22 -35 -44 -47 -49 -23 -9 -23 -33 1 -42 17 -7 29
2 44 33 7 14 20 37 30 52 11 18 13 31 7 37 -7 6 -19 -5 -35 -31z"/>
<path d="M2784 1625 c-3 -14 -13 -29 -21 -33 -9 -6 -13 -20 -11 -38 3 -28 4
-27 35 26 17 30 29 58 27 62 -10 16 -24 8 -30 -17z"/>
<path d="M2893 1643 c-18 -7 -16 -43 2 -43 18 0 31 28 19 39 -5 5 -15 6 -21 4z"/>
<path d="M2506 1622 c-4 -7 -14 -11 -22 -8 -15 6 -40 -31 -36 -51 2 -7 -1 -13
-7 -13 -5 0 -11 6 -14 13 -4 10 -7 10 -18 0 -17 -17 -3 -31 39 -39 28 -6 32
-4 32 14 0 12 9 30 21 41 11 10 19 27 17 38 -3 14 -5 15 -12 5z"/>
<path d="M2642 1577 c-37 -36 -30 -57 19 -57 22 0 28 6 33 31 14 70 0 76 -52
26z"/>
<path d="M2207 1573 c-4 -3 -7 -20 -7 -37 1 -29 1 -30 15 -12 24 31 16 74 -8
49z"/>
<path d="M2322 1568 c-6 -6 -12 -20 -12 -31 0 -15 6 -18 33 -15 27 2 32 7 32
28 0 28 -32 39 -53 18z"/>
<path d="M0 1555 c0 -8 5 -15 10 -15 6 0 10 7 10 15 0 8 -4 15 -10 15 -5 0
-10 -7 -10 -15z"/>
<path d="M1320 1545 c0 -8 -7 -15 -16 -15 -9 0 -14 -7 -12 -17 4 -23 33 -23
33 -1 0 9 4 20 8 24 10 11 9 24 -3 24 -5 0 -10 -7 -10 -15z"/>
<path d="M3322 1528 c-8 -22 -9 -35 -2 -42 14 -14 30 10 30 47 0 36 -13 34
-28 -5z"/>
<path d="M1447 1518 c-4 -31 6 -58 22 -58 15 0 39 26 46 48 5 16 2 22 -9 22
-9 0 -16 -4 -16 -10 0 -5 -4 -10 -9 -10 -5 0 -7 9 -4 20 4 13 0 20 -10 20 -9
0 -17 -12 -20 -32z"/>
<path d="M1584 1539 c-3 -6 -17 -9 -30 -6 -29 5 -30 3 -3 -24 l21 -21 25 24
c21 21 22 26 9 31 -8 3 -18 1 -22 -4z"/>
<path d="M2795 1540 c-9 -15 4 -30 26 -30 22 0 24 11 7 28 -15 15 -25 15 -33
2z"/>
<path d="M2900 1530 c0 -11 6 -20 14 -20 9 0 12 7 9 20 -3 11 -9 20 -14 20 -5
0 -9 -9 -9 -20z"/>
<path d="M1230 1515 c0 -8 7 -15 15 -15 8 0 15 4 15 9 0 5 -7 11 -15 15 -9 3
-15 0 -15 -9z"/>
<path d="M2306 1494 c-3 -8 -6 -20 -6 -25 0 -14 27 -11 34 4 5 10 7 10 12 0 3
-7 12 -13 19 -13 7 0 16 6 18 13 3 7 6 6 6 -5 2 -40 40 -28 41 13 0 13 -9 16
-47 13 -26 -1 -53 1 -59 7 -8 6 -14 4 -18 -7z"/>
<path d="M2483 1492 c-13 -2 -23 -10 -23 -18 0 -18 61 -16 67 2 5 14 -15 21
-44 16z"/>
<path d="M2593 1486 c-13 -6 -23 -16 -23 -21 0 -13 20 -35 32 -35 7 0 38 52
38 65 0 8 -22 4 -47 -9z"/>
<path d="M2856 1485 c-10 -27 -7 -38 8 -32 8 3 17 -1 20 -9 9 -22 23 -17 30
12 8 31 8 30 -25 39 -19 5 -28 2 -33 -10z"/>
<path d="M530 1481 c0 -4 -15 -12 -32 -17 -28 -8 -33 -14 -30 -37 3 -23 -3
-29 -45 -49 -38 -18 -49 -29 -51 -51 -4 -33 17 -37 36 -7 8 13 17 18 25 13 7
-4 15 -8 19 -8 3 0 10 -4 15 -9 5 -5 -1 -7 -14 -3 -34 8 -39 -12 -10 -39 32
-29 35 -30 39 -3 2 18 15 30 46 46 2 0 -4 15 -13 33 -18 35 -15 49 5 25 16
-19 40 -19 40 0 0 8 4 15 8 15 5 0 14 11 20 25 11 23 9 29 -14 50 -28 26 -44
32 -44 16z"/>
<path d="M2205 1481 c-3 -5 -1 -12 5 -16 5 -3 10 1 10 9 0 18 -6 21 -15 7z"/>
<path d="M2666 1474 c-9 -8 -16 -21 -16 -28 0 -7 -9 -21 -21 -32 -17 -15 -20
-29 -19 -89 2 -68 -22 -191 -40 -209 -5 -5 -5 -16 -1 -25 5 -9 6 -25 4 -36
-13 -63 -13 -86 2 -91 36 -14 8 -19 -87 -16 -57 2 -114 8 -127 15 -24 12 -23
12 14 17 61 8 55 28 -9 32 -67 4 -76 -8 -45 -58 20 -33 22 -34 91 -34 82 0
198 -18 213 -32 10 -10 -93 -6 -244 10 l-63 7 -44 87 c-38 74 -49 87 -75 93
-18 4 -35 3 -42 -4 -6 -6 -16 -11 -21 -11 -6 0 -3 7 8 15 19 14 14 35 -9 35
-7 0 -15 -6 -18 -14 -3 -8 -27 -15 -59 -19 -51 -5 -84 6 -72 24 4 8 -7 12 -68
24 -12 2 -18 -3 -18 -16 0 -12 7 -19 19 -19 33 0 51 -11 51 -31 0 -10 -5 -19
-11 -19 -7 0 -9 -11 -5 -31 l6 -31 -72 4 c-60 2 -73 0 -76 -13 -2 -13 19 -17
124 -27 69 -7 130 -9 135 -6 16 9 -1 24 -27 24 -27 0 -64 32 -64 56 0 12 5 14
18 8 9 -4 29 -7 45 -7 20 0 27 -5 27 -19 0 -23 24 -50 42 -47 7 2 24 -1 36 -5
17 -6 22 -13 19 -27 -4 -14 3 -23 22 -34 58 -29 74 -79 35 -108 -23 -17 -23
-17 -17 17 5 30 2 35 -27 50 l-32 16 7 -58 c4 -31 11 -64 16 -73 4 -9 6 -19 2
-22 -7 -7 -33 18 -33 31 0 6 -17 24 -37 42 -21 17 -31 30 -23 27 10 -3 16 2
16 14 0 11 -4 19 -8 19 -4 0 -8 11 -8 25 0 27 -21 42 -41 29 -9 -5 -8 -10 5
-19 11 -9 14 -19 9 -33 -5 -11 -12 -20 -17 -19 -35 7 19 -60 71 -88 2 -1 -3
-14 -10 -29 -9 -21 -17 -25 -35 -21 -27 6 -43 -22 -21 -36 15 -10 170 -6 188
5 6 4 11 18 11 32 0 13 4 24 8 24 14 0 72 97 72 120 0 23 1 23 88 15 48 -4
119 -8 157 -10 l70 -3 7 -49 c10 -66 -6 -117 -44 -144 -29 -21 -30 -23 -12
-36 22 -16 103 -17 125 0 12 9 17 30 18 77 2 98 11 154 24 141 6 -6 50 -11
100 -11 48 0 98 -5 110 -12 30 -16 223 -23 231 -9 11 17 -33 28 -104 26 -66
-2 -130 15 -130 35 0 8 10 9 30 5 17 -4 56 -8 88 -11 161 -11 291 -24 325 -32
l37 -10 -2 177 c-1 97 -3 149 -5 116 -2 -32 -9 -65 -15 -72 -7 -9 -7 -17 0
-26 11 -13 14 -157 3 -157 -3 0 -22 5 -41 11 -19 7 -71 11 -114 9 -54 -1 -81
2 -87 11 -4 8 -35 13 -82 15 -40 1 -83 5 -95 8 -11 4 -30 1 -41 -6 -16 -10
-23 -10 -33 0 -6 6 -34 12 -60 12 -27 0 -64 6 -83 14 -29 12 -33 19 -31 43 2
15 4 34 5 41 1 8 21 12 66 12 37 0 65 4 65 10 0 6 -12 10 -27 10 -16 0 -45 3
-65 6 -35 6 -38 9 -38 39 0 18 7 38 15 45 20 17 19 60 -2 76 -15 10 -16 15 -5
25 16 17 15 52 -2 94 -12 27 -22 35 -50 41 -20 3 -36 8 -36 10 0 2 9 26 20 54
11 28 20 53 20 55 0 12 -40 3 -54 -11z m-6 -78 c0 -3 -4 -8 -10 -11 -5 -3 -10
-1 -10 4 0 6 5 11 10 11 6 0 10 -2 10 -4z m82 -97 l9 -24 -20 22 c-23 25 -27
37 -9 31 6 -2 15 -15 20 -29z m-22 -38 c0 -5 -6 -11 -14 -14 -8 -3 -12 -14 -9
-25 3 -13 -4 -24 -21 -36 -14 -9 -26 -15 -26 -13 0 7 33 72 43 85 11 14 27 16
27 3z m32 -83 c-7 -7 -12 -8 -12 -2 0 14 12 26 19 19 2 -3 -1 -11 -7 -17z
m-125 -40 c-3 -8 -6 -5 -6 6 -1 11 2 17 5 13 3 -3 4 -12 1 -19z m86 -33 c-10
-8 -22 -14 -28 -14 -5 0 -2 6 8 13 9 7 17 20 17 28 0 25 15 31 18 8 2 -12 -4
-28 -15 -35z m-17 -72 c-4 -4 -11 -1 -16 7 -16 25 -11 35 7 17 9 -9 13 -20 9
-24z m-486 8 c0 -6 -9 -9 -20 -8 -11 1 -20 5 -20 9 0 4 9 8 20 8 11 0 20 -4
20 -9z m510 -46 c0 -8 -4 -15 -10 -15 -5 0 -7 7 -4 15 4 8 8 15 10 15 2 0 4
-7 4 -15z m-25 -34 c3 -5 1 -12 -5 -16 -5 -3 -10 1 -10 9 0 18 6 21 15 7z
m-479 -28 c-10 -10 -19 5 -10 18 6 11 8 11 12 0 2 -7 1 -15 -2 -18z m51 -35
c-3 -8 -6 -5 -6 6 -1 11 2 17 5 13 3 -3 4 -12 1 -19z m400 0 c-3 -8 -6 -5 -6
6 -1 11 2 17 5 13 3 -3 4 -12 1 -19z m186 -21 c42 -5 77 -13 77 -16 0 -3 -44
-5 -97 -4 -54 1 -97 5 -95 8 1 3 2 12 2 21 0 12 5 14 18 8 9 -4 52 -12 95 -17z"/>
<path d="M2762 1470 c-14 -23 -16 -60 -3 -60 5 0 11 7 15 15 3 8 11 14 18 13
8 -2 14 9 16 25 3 21 -1 27 -15 27 -10 0 -24 -9 -31 -20z"/>
<path d="M2015 1430 c-8 -34 2 -90 16 -90 12 0 12 107 0 114 -5 4 -12 -7 -16
-24z"/>
<path d="M2934 1414 c-6 -40 -9 -45 -14 -24 -7 31 -24 32 -28 2 -6 -41 4 -54
30 -40 13 7 26 18 30 23 11 14 10 57 -1 74 -7 10 -12 0 -17 -35z"/>
<path d="M1493 1440 c-19 -8 -23 -17 -23 -54 0 -24 5 -46 10 -48 6 -2 12 -30
13 -63 3 -79 21 -77 24 2 2 44 -2 65 -12 73 -15 12 -21 40 -9 40 4 0 13 -8 20
-17 16 -23 47 -7 52 26 7 43 -26 61 -75 41z m57 -40 c0 -5 -4 -10 -10 -10 -5
0 -10 5 -10 10 0 6 5 10 10 10 6 0 10 -4 10 -10z"/>
<path d="M2820 1405 c0 -9 9 -15 25 -15 16 0 25 6 25 15 0 9 -9 15 -25 15 -16
0 -25 -6 -25 -15z"/>
<path d="M41 1388 c-5 -13 -6 -27 -3 -32 3 -6 5 -28 3 -51 -1 -32 3 -46 20
-61 l22 -19 -6 34 c-4 18 -7 60 -7 92 0 61 -14 78 -29 37z"/>
<path d="M588 1383 c-31 -36 -41 -65 -27 -74 8 -5 17 -9 22 -9 4 0 7 -7 7 -15
0 -14 -3 -14 -27 -2 -29 15 -53 12 -65 -7 -15 -22 -7 -37 29 -52 20 -9 52 -28
72 -44 33 -25 71 -36 71 -20 0 11 -45 50 -57 50 -19 0 -12 60 9 71 24 13 23
29 -2 29 -11 0 -20 5 -20 10 0 6 9 10 20 10 28 0 36 27 15 50 -22 24 -28 25
-47 3z"/>
<path d="M1843 1366 c-19 -30 -24 -71 -14 -115 1 -3 11 6 24 19 17 19 22 37
22 77 0 29 -2 53 -5 53 -3 0 -15 -16 -27 -34z"/>
<path d="M3126 1345 c-7 -27 -1 -45 15 -45 5 0 9 16 9 35 0 41 -15 47 -24 10z"/>
<path d="M280 1330 c0 -11 -1 -23 -2 -27 -2 -3 3 -8 10 -10 8 -3 12 6 12 26 0
17 -4 31 -10 31 -5 0 -10 -9 -10 -20z"/>
<path d="M1693 1336 c-13 -6 -28 -24 -35 -41 -6 -16 -13 -33 -16 -37 -2 -5 4
-8 12 -8 9 0 25 15 36 33 11 17 20 30 21 27 1 -3 2 -22 3 -43 2 -21 10 -45 19
-55 15 -15 16 -11 13 49 -4 90 -9 97 -53 75z"/>
<path d="M2243 1320 c3 -13 0 -20 -9 -20 -8 0 -14 -4 -14 -9 0 -5 -9 -11 -19
-14 -14 -3 -18 -11 -14 -26 6 -24 33 -29 33 -6 0 16 18 20 36 7 12 -7 14 -92
2 -92 -3 0 -20 11 -36 25 -32 27 -52 31 -68 15 -6 -6 -28 -11 -50 -13 -21 -1
-39 -7 -39 -12 0 -6 8 -9 18 -8 9 2 17 -1 17 -6 0 -5 8 -7 19 -4 11 3 25 -4
37 -19 11 -13 35 -30 54 -37 19 -8 39 -18 45 -23 14 -13 28 -10 22 5 -3 8 -1
36 5 63 12 57 11 124 -2 139 -5 6 -7 21 -3 33 4 18 1 22 -17 22 -17 0 -21 -4
-17 -20z"/>
<path d="M1976 1312 c-3 -9 -9 -23 -12 -29 -3 -7 -2 -13 4 -13 13 0 33 48 23
55 -5 2 -11 -3 -15 -13z"/>
<path d="M2920 1290 c0 -14 7 -20 21 -20 15 0 19 4 15 16 -3 9 -6 18 -6 20 0
2 -7 4 -15 4 -8 0 -15 -9 -15 -20z"/>
<path d="M3322 1265 c-22 -46 -17 -59 11 -27 18 20 33 72 20 72 -5 0 -19 -20
-31 -45z"/>
<path d="M700 1272 c0 -26 -3 -28 -30 -24 -22 3 -30 0 -30 -11 0 -20 97 -28
112 -9 9 10 6 14 -10 19 -13 3 -22 13 -22 24 0 10 -4 21 -10 24 -6 4 -10 -6
-10 -23z"/>
<path d="M3432 1275 c0 -16 2 -22 5 -12 2 9 2 23 0 30 -3 6 -5 -1 -5 -18z"/>
<path d="M1 1274 c0 -11 3 -14 6 -6 3 7 2 16 -1 19 -3 4 -6 -2 -5 -13z"/>
<path d="M3106 1275 c4 -8 12 -15 20 -15 8 0 14 7 14 15 0 8 -9 15 -20 15 -13
0 -18 -5 -14 -15z"/>
<path d="M338 1275 c-10 -10 5 -55 18 -55 16 0 16 5 8 38 -6 21 -15 27 -26 17z"/>
<path d="M2314 1258 c3 -13 6 -29 6 -35 0 -7 7 -13 16 -13 12 0 15 6 10 23 -3
12 -6 28 -6 35 0 6 -7 12 -16 12 -12 0 -15 -6 -10 -22z"/>
<path d="M3240 1260 c0 -11 5 -20 10 -20 6 0 10 9 10 20 0 11 -4 20 -10 20 -5
0 -10 -9 -10 -20z"/>
<path d="M2990 1254 c0 -8 5 -12 10 -9 6 3 10 10 10 16 0 5 -4 9 -10 9 -5 0
-10 -7 -10 -16z"/>
<path d="M3067 1264 c-3 -3 -3 -12 0 -20 3 -8 -2 -26 -12 -40 -20 -30 -15 -40
12 -23 14 8 19 22 19 45 -2 34 -8 48 -19 38z"/>
<path d="M422 1238 c6 -18 28 -21 28 -4 0 9 -7 16 -16 16 -9 0 -14 -5 -12 -12z"/>
<path d="M1845 1230 c-4 -6 7 -11 24 -12 17 -1 38 -2 46 -2 8 -1 16 3 18 8 3
13 -80 18 -88 6z"/>
<path d="M1976 1231 c-8 -12 50 -20 66 -9 7 4 11 8 8 9 -45 7 -70 7 -74 0z"/>
<path d="M12 1213 c19 -23 28 -49 20 -58 -3 -3 -7 -46 -8 -95 -1 -49 -5 -94
-9 -100 -4 -6 -8 -35 -10 -64 -2 -41 1 -55 14 -63 17 -10 19 -2 25 115 5 70 9
137 9 149 1 12 5 24 9 28 9 9 -2 76 -15 93 -5 6 -19 12 -30 12 -18 0 -19 -2
-5 -17z"/>
<path d="M170 1214 c0 -12 7 -14 29 -9 27 6 30 4 29 -17 -1 -13 -6 -30 -12
-38 -8 -11 -5 -11 9 2 11 9 36 20 55 25 41 11 52 38 18 47 -13 3 -47 6 -75 6
-42 0 -53 -3 -53 -16z"/>
<path d="M3138 1205 c-4 -17 -1 -25 8 -25 9 0 13 10 12 25 -1 14 -5 25 -9 25
-4 0 -9 -11 -11 -25z"/>
<path d="M122 1208 c-18 -18 -15 -40 6 -36 9 2 18 13 20 26 4 24 -7 29 -26 10z"/>
<path d="M1622 1185 c3 -14 1 -28 -4 -31 -4 -3 -5 -11 -1 -17 4 -7 8 -19 8
-27 5 -65 7 -74 12 -60 3 8 11 18 16 22 8 4 7 15 -1 33 -15 32 -16 65 -2 65 6
0 10 9 10 20 0 14 -7 20 -21 20 -17 0 -20 -5 -17 -25z"/>
<path d="M333 1180 c3 -11 1 -23 -4 -26 -12 -7 9 -46 24 -41 17 5 28 59 15 74
-17 21 -41 16 -35 -7z"/>
<path d="M496 1185 c-3 -9 0 -15 9 -15 8 0 15 7 15 15 0 8 -4 15 -9 15 -5 0
-11 -7 -15 -15z"/>
<path d="M1983 1193 c-22 -8 -14 -23 12 -23 18 0 23 4 19 15 -6 16 -11 17 -31
8z"/>
<path d="M429 1183 c-1 -5 -1 -12 0 -16 1 -4 -12 -19 -29 -33 -16 -14 -30 -32
-30 -39 0 -8 -7 -11 -20 -8 -15 4 -20 0 -20 -16 0 -17 6 -21 30 -21 18 0 30 5
30 13 0 8 9 22 20 32 11 10 17 22 14 26 -3 5 2 9 10 9 9 0 16 6 16 14 0 8 5
16 12 18 6 2 8 10 4 16 -8 13 -35 16 -37 5z"/>
<path d="M1870 1181 c0 -9 23 -21 41 -21 4 0 6 7 3 15 -7 16 -44 21 -44 6z"/>
<path d="M1731 1165 c-1 -18 -6 -20 -36 -17 -47 6 -45 -14 2 -21 44 -8 46 -7
40 30 -2 18 -5 20 -6 8z"/>
<path d="M553 1154 c-7 -20 10 -50 27 -46 16 4 40 -17 40 -34 0 -8 -9 -14 -20
-14 -13 0 -18 5 -14 15 5 12 -3 15 -35 15 -30 0 -41 -4 -41 -15 0 -17 -16 -20
-25 -5 -10 16 -35 11 -35 -6 0 -34 31 -43 142 -44 59 0 118 -4 133 -10 21 -8
27 -7 32 7 4 11 0 21 -12 27 -10 6 -25 19 -34 29 -8 9 -19 17 -24 17 -5 0 -26
14 -46 30 -57 48 -60 50 -71 50 -6 0 -13 -7 -17 -16z m107 -84 c0 -5 -4 -10
-10 -10 -5 0 -10 5 -10 10 0 6 5 10 10 10 6 0 10 -4 10 -10z"/>
<path d="M490 1149 c-16 -4 -19 -7 -7 -8 9 -1 17 -8 17 -16 0 -8 7 -15 15 -15
15 0 21 35 8 43 -5 2 -19 1 -33 -4z"/>
<path d="M1820 1140 c0 -11 50 -34 58 -26 2 3 2 12 -1 21 -7 17 -57 21 -57 5z"/>
<path d="M2057 1143 c-28 -7 -14 -28 19 -28 19 0 29 5 29 15 0 16 -19 21 -48
13z"/>
<path d="M3320 1136 c0 -11 9 -16 26 -16 31 0 28 23 -4 28 -15 2 -22 -2 -22
-12z"/>
<path d="M2331 1111 c-7 -5 -9 -11 -5 -14 13 -7 74 4 74 14 0 11 -51 11 -69 0z"/>
<path d="M2455 1110 c-3 -5 -1 -10 4 -10 6 0 11 5 11 10 0 6 -2 10 -4 10 -3 0
-8 -4 -11 -10z"/>
<path d="M1697 1103 c-9 -9 12 -33 29 -33 19 0 18 26 -2 34 -19 7 -19 7 -27
-1z"/>
<path d="M2990 1086 c0 -18 17 -29 30 -21 8 5 7 11 -1 21 -15 18 -29 18 -29 0z"/>
<path d="M1872 1074 c2 -11 8 -18 13 -16 15 3 12 25 -3 30 -9 3 -13 -2 -10
-14z"/>
<path d="M3055 1080 c-8 -12 20 -24 35 -15 5 3 10 10 10 16 0 12 -37 12 -45
-1z"/>
<path d="M2328 1073 c-10 -3 -18 -8 -18 -13 0 -12 39 -19 46 -8 9 14 -8 25
-28 21z"/>
<path d="M3305 1070 c-3 -5 -2 -10 4 -10 5 0 13 5 16 10 3 6 2 10 -4 10 -5 0
-13 -4 -16 -10z"/>
<path d="M3352 1069 c3 -8 8 -13 11 -11 9 3 7 11 -5 18 -6 4 -8 0 -6 -7z"/>
<path d="M95 1008 c-10 -101 -11 -211 -1 -232 8 -17 5 -17 -25 5 -74 52 -69
76 -67 -363 1 -216 3 -373 5 -348 5 48 17 70 39 70 10 0 14 -16 14 -64 0 -55
11 -88 25 -74 4 3 6 107 3 153 -4 73 23 520 32 523 5 2 13 21 16 42 l6 38 62
-6 c39 -3 65 -11 73 -21 16 -21 18 -390 2 -475 -19 -108 -20 -111 -62 -114
-56 -5 -42 -35 21 -48 27 -5 32 -11 32 -35 0 -15 -5 -31 -10 -34 -18 -11 -10
-26 13 -23 20 3 23 11 31 81 8 70 7 79 -10 92 -11 8 -14 15 -8 15 7 0 15 10
19 22 5 19 26 496 24 563 0 11 0 46 0 78 1 32 -2 64 -6 70 -5 7 -8 25 -8 42 0
20 -6 31 -17 33 -11 2 -18 -3 -18 -12 0 -9 5 -16 10 -16 15 0 12 -30 -2 -31
-7 -1 -34 -1 -59 1 -35 1 -46 -2 -46 -14 0 -11 14 -17 46 -21 25 -4 51 -8 56
-9 16 -4 12 -55 -5 -61 -13 -6 -12 -8 4 -21 11 -7 18 -16 15 -18 -2 -2 -42 -6
-87 -7 -73 -3 -85 -1 -94 15 -10 18 -8 75 8 214 5 43 4 52 -9 52 -11 0 -17
-16 -22 -62z m-31 -271 c17 -13 18 -28 7 -282 -6 -147 -13 -270 -15 -272 -2
-3 -14 0 -25 7 -19 9 -21 18 -16 58 2 26 7 149 11 275 3 125 9 227 13 227 4 0
15 -6 25 -13z"/>
<path d="M2402 1058 c7 -20 58 -23 58 -4 0 11 -10 16 -31 16 -20 0 -29 -4 -27
-12z"/>
<path d="M2940 1063 c2 -32 60 -59 60 -28 0 8 -9 15 -20 15 -11 0 -20 5 -20
10 0 6 -4 10 -10 10 -5 0 -10 -3 -10 -7z"/>
<path d="M1740 1041 c0 -6 5 -13 10 -16 6 -3 10 1 10 9 0 9 -4 16 -10 16 -5 0
-10 -4 -10 -9z"/>
<path d="M3325 1036 c-16 -12 -18 -17 -7 -27 15 -16 36 1 30 25 -3 15 -5 15
-23 2z"/>
<path d="M1857 1033 c-14 -13 -6 -23 18 -23 16 0 25 6 25 15 0 15 -31 21 -43
8z"/>
<path d="M3013 1025 c0 -9 18 -18 49 -25 77 -16 95 -11 66 18 -8 8 -17 8 -30
1 -14 -7 -23 -6 -34 6 -19 19 -51 20 -51 0z"/>
<path d="M1450 1006 c0 -8 14 -16 33 -20 26 -5 247 -24 290 -26 4 0 7 7 7 15
0 8 -3 15 -7 16 -5 0 -19 2 -33 3 -14 2 -54 6 -90 9 -174 18 -200 18 -200 3z"/>
<path d="M3167 1009 c-14 -8 -15 -14 -6 -30 15 -29 9 -31 -49 -19 -58 13 -139
10 -133 -5 4 -13 71 -31 134 -38 37 -4 50 -1 54 10 5 13 20 14 87 8 79 -6 103
-13 79 -22 -20 -7 -15 -23 5 -23 21 0 48 48 35 61 -5 5 -50 12 -101 15 -90 7
-129 24 -54 24 25 1 32 3 22 9 -29 17 -55 20 -73 10z"/>
<path d="M367 975 c4 -11 6 -155 4 -320 -7 -571 -6 -648 4 -652 6 -2 18 9 26
24 14 24 16 89 18 473 2 427 2 446 21 460 28 21 12 36 -37 36 -39 -1 -42 -3
-36 -21z"/>
<path d="M1566 951 c-4 -6 9 -12 31 -16 21 -3 50 -8 64 -10 31 -5 88 8 74 17
-20 12 -163 20 -169 9z"/>
<path d="M3182 908 c3 -7 13 -15 22 -16 12 -3 17 1 14 10 -3 7 -13 15 -22 16
-12 3 -17 -1 -14 -10z"/>
<path d="M3228 803 c7 -3 16 -2 19 1 4 3 -2 6 -13 5 -11 0 -14 -3 -6 -6z"/>
<path d="M855 700 c-3 -5 -1 -10 4 -10 6 0 11 5 11 10 0 6 -2 10 -4 10 -3 0
-8 -4 -11 -10z"/>
</g>
</svg>
