<?xml version="1.0" standalone="no"?>
<!DOCTYPE svg PUBLIC "-//W3C//DTD SVG 20010904//EN"
 "http://www.w3.org/TR/2001/REC-SVG-20010904/DTD/svg10.dtd">
<svg version="1.0" xmlns="http://www.w3.org/2000/svg"
 width="344.000000pt" height="256.000000pt" viewBox="0 0 344.000000 256.000000"
 preserveAspectRatio="xMidYMid meet">
<metadata>
Created by potrace 1.16, written by Peter Selinger 2001-2019
</metadata>
<g transform="translate(0.000000,256.000000) scale(0.100000,-0.100000)"
fill="#000000" stroke="none">
<path d="M414 2544 c20 -19 20 -25 2 -18 -9 3 -25 -6 -38 -21 -34 -39 -70 -55
-128 -55 -61 0 -116 21 -124 48 -8 23 -47 40 -93 41 -29 0 -33 -4 -33 -26 0
-24 3 -25 35 -20 l35 6 0 -54 c0 -52 0 -53 -35 -59 -26 -5 -35 -12 -35 -26 0
-14 7 -20 24 -20 13 0 26 -7 30 -15 6 -17 42 -20 51 -4 4 6 -2 13 -14 16 -12
3 -21 12 -21 19 0 12 3 12 23 0 18 -11 80 -27 120 -30 7 -1 8 -13 1 -31 -3 -6
-48 -10 -109 -9 l-105 1 0 -49 c0 -26 5 -48 10 -48 6 0 10 -7 10 -15 0 -8 -4
-15 -10 -15 -5 0 -10 -7 -10 -15 0 -11 6 -12 23 -6 15 6 21 15 19 31 -3 20 -1
21 30 14 18 -4 44 -8 58 -9 29 -2 36 -26 25 -84 -7 -33 -8 -34 -16 -13 -7 20
-15 22 -74 22 l-65 0 0 -40 c0 -47 17 -55 99 -47 48 4 50 4 40 -15 -10 -18 -9
-33 3 -102 4 -25 -18 -32 -25 -7 -4 15 -15 20 -61 23 -48 2 -56 0 -56 -14 0
-18 37 -33 73 -30 10 0 16 -5 14 -11 -2 -7 -16 -10 -31 -9 -43 5 -27 -19 20
-33 39 -10 39 -11 44 -68 5 -57 -3 -70 -24 -42 -6 8 -30 16 -53 19 -37 4 -43
2 -43 -14 0 -15 9 -19 38 -22 30 -2 36 -7 34 -22 -2 -11 1 -15 7 -11 6 3 11 2
11 -3 0 -12 -29 -24 -41 -16 -5 3 -9 -24 -9 -60 0 -52 3 -66 15 -66 8 0 15 -4
15 -10 0 -5 -9 -10 -20 -10 -11 0 -21 -3 -21 -7 -11 -72 -10 -75 17 -69 14 4
32 2 39 -4 9 -8 14 -6 19 5 4 12 10 14 25 5 26 -13 78 -13 86 1 10 15 6 17
-65 22 -36 3 -66 6 -67 6 -10 3 -1 41 10 43 46 5 78 6 121 1 43 -5 48 -7 33
-18 -15 -11 -15 -14 -2 -25 13 -10 11 -16 -11 -46 -15 -19 -21 -35 -15 -35 6
-1 16 -2 21 -3 11 -1 34 33 46 67 7 19 54 23 85 7 14 -8 18 -17 13 -35 -4 -17
0 -26 15 -35 18 -9 27 -7 50 10 16 11 34 20 40 20 7 0 14 7 18 16 5 15 8 15
17 2 6 -8 25 -14 41 -14 26 1 30 -2 27 -24 -2 -14 -8 -30 -13 -37 -7 -7 -5
-13 3 -17 7 -3 -3 -3 -23 0 -38 6 -56 -6 -42 -28 4 -7 6 -21 5 -31 -2 -10 3
-17 12 -17 9 0 16 -4 16 -10 0 -5 -7 -10 -16 -10 -11 0 -13 -6 -9 -19 4 -13
-1 -27 -14 -40 -28 -28 -26 -36 9 -51 36 -15 48 -45 26 -69 -9 -10 -16 -29
-16 -44 l0 -26 118 6 c84 4 122 10 135 21 25 22 5 39 -28 24 -14 -7 -63 -12
-107 -12 -71 0 -79 2 -63 13 16 12 16 18 7 47 -9 25 -9 30 1 22 19 -15 267
-21 267 -6 0 23 -22 27 -152 30 -71 2 -134 6 -139 9 -5 4 -9 22 -9 41 0 30 3
34 28 34 44 0 72 11 73 29 0 10 4 8 10 -8 7 -17 12 -21 22 -13 15 13 60 4 51
-9 -3 -5 -16 -6 -30 -3 -18 5 -24 2 -24 -9 0 -22 17 -30 46 -23 15 4 24 14 24
26 0 19 5 20 71 14 58 -6 71 -5 67 6 -5 17 -39 26 -120 35 -34 3 -64 8 -67 10
-2 3 -10 0 -18 -6 -10 -9 -13 -8 -13 0 0 8 -5 9 -16 3 -9 -5 -25 -7 -35 -5
-16 4 -16 7 -4 19 16 16 201 31 258 20 36 -7 37 -7 31 -49 -11 -75 -8 -161 7
-192 16 -34 32 -39 38 -10 2 11 10 25 19 31 14 10 13 12 -3 21 -23 13 -30 134
-9 174 27 54 39 42 39 -41 0 -58 -3 -76 -12 -73 -8 3 -13 -3 -13 -16 0 -16 6
-21 28 -21 l29 0 -5 73 -4 72 36 33 c31 28 36 39 36 77 0 24 5 47 10 50 16 10
12 65 -6 72 -13 5 -15 18 -11 75 4 66 11 88 22 76 9 -8 11 -97 3 -92 -5 3 -8
-4 -8 -14 0 -19 18 -32 42 -32 7 0 9 23 4 69 -5 56 -3 70 9 75 22 8 18 36 -5
36 -18 0 -20 7 -20 67 0 78 -15 127 -44 142 -12 6 -63 13 -113 15 -51 3 -97 7
-102 10 -5 4 -12 2 -16 -3 -13 -22 -34 1 -32 34 2 19 5 36 7 38 3 3 27 8 53
11 46 7 48 6 42 -13 -5 -16 -1 -22 18 -26 45 -12 72 -2 70 23 -3 21 -1 22 55
16 31 -4 58 -7 59 -8 1 -1 3 -34 5 -74 3 -60 6 -73 23 -81 18 -9 18 -10 2 -10
-10 -1 -15 -6 -12 -11 4 -6 10 -8 15 -5 13 8 21 -42 14 -82 -6 -31 -4 -35 12
-31 15 3 19 13 20 53 0 28 -2 54 -4 59 -6 10 -6 20 -10 133 -1 39 -7 67 -17
77 -8 8 -15 26 -15 40 0 27 -12 33 -82 39 -48 4 -56 12 -28 27 13 7 19 17 16
27 -5 13 -1 14 21 8 16 -4 47 -8 71 -9 43 -1 52 -12 30 -34 -10 -10 -10 -17 0
-32 6 -11 12 -27 12 -35 0 -8 4 -15 9 -15 5 0 12 -12 15 -27 4 -16 9 -36 12
-45 3 -9 -4 -25 -16 -35 -18 -17 -18 -21 -6 -39 23 -30 47 -8 51 46 2 24 8 46
14 48 6 2 11 12 11 22 0 10 5 22 10 25 6 3 10 13 10 22 0 11 -6 14 -25 9 -21
-5 -25 -3 -26 16 -1 13 -1 26 0 30 0 3 5 33 10 65 10 63 -2 120 -19 93 -7 -11
-10 -8 -10 14 0 23 3 27 18 21 53 -23 94 -35 103 -30 5 4 9 1 9 -4 0 -6 -4
-11 -10 -11 -5 0 -10 -7 -10 -16 0 -13 10 -15 65 -10 36 3 70 8 76 12 19 12
-13 24 -64 24 -31 0 -46 4 -42 10 9 15 -13 40 -30 34 -7 -3 -16 -1 -20 5 -3 7
2 11 14 11 17 0 21 6 21 34 0 42 -17 133 -31 169 -12 29 -46 40 -35 10 4 -9
10 -36 13 -60 5 -35 2 -44 -12 -49 -23 -9 -36 14 -29 51 4 24 0 35 -20 54 -20
19 -29 22 -38 13 -13 -13 -108 -17 -108 -4 0 4 -19 8 -43 8 l-43 2 24 -27 c22
-26 28 -27 108 -26 78 1 84 0 84 -19 0 -12 3 -31 6 -44 5 -18 1 -24 -25 -33
-34 -12 -34 -8 -10 -148 5 -30 9 -58 9 -63 0 -13 -93 -9 -123 5 -15 6 -27 20
-27 30 0 11 -8 17 -21 17 -15 0 -19 -5 -15 -15 4 -10 -1 -15 -14 -15 -27 0
-100 -30 -100 -41 0 -5 16 -9 36 -9 27 0 35 -4 31 -14 -3 -8 1 -20 9 -26 25
-21 16 -25 -57 -24 -83 1 -94 10 -105 83 -7 47 -29 91 -45 91 -5 0 -15 -11
-21 -25 -6 -14 -15 -25 -20 -25 -16 0 -59 33 -51 39 14 10 33 50 33 68 1 19
22 53 34 53 4 0 6 -8 4 -17 -2 -12 7 -19 32 -24 19 -4 40 -3 46 2 7 6 16 4 24
-6 7 -8 16 -15 21 -15 16 0 9 37 -11 60 -24 27 -26 42 -5 34 8 -4 15 -12 15
-20 0 -8 4 -14 9 -14 13 0 24 -36 26 -90 2 -38 6 -45 29 -51 14 -4 29 -3 32 2
7 11 -12 164 -27 222 -13 50 -5 57 25 24 14 -15 29 -27 34 -27 11 0 48 39 39
41 -4 1 -10 2 -14 3 -5 1 -23 6 -40 10 -18 4 -33 14 -33 21 0 8 -13 13 -35 13
-26 0 -33 -3 -26 -12 7 -8 -19 -10 -104 -7 -104 3 -117 1 -141 -18 -15 -12
-37 -21 -49 -21 -25 0 -41 -26 -22 -34 7 -2 2 -5 -10 -5 -18 -1 -23 -7 -23
-28 -1 -27 -1 -27 -15 -9 -20 27 -20 57 1 49 12 -4 14 0 8 23 -4 16 -8 31 -10
33 -2 2 1 10 7 18 9 10 5 13 -19 13 -27 0 -31 -3 -30 -28 1 -16 -4 -37 -10
-48 -10 -18 -11 -17 -22 10 -6 16 -8 37 -5 47 6 17 1 19 -35 19 -38 0 -40 -1
-26 -16z m432 -54 c-2 -8 -7 -28 -11 -44 -5 -24 -10 -27 -32 -23 -15 3 -38 1
-51 -4 -22 -9 -24 -7 -18 16 4 14 2 34 -3 44 -6 10 -8 20 -6 23 2 2 31 4 64 3
49 0 60 -3 57 -15z m55 -30 c5 0 9 -8 9 -17 0 -14 -2 -15 -9 -4 -5 8 -14 10
-22 6 -9 -6 -11 -3 -6 9 4 10 8 25 8 34 1 10 4 8 6 -5 2 -13 9 -23 14 -23z
m-231 20 c0 -5 -5 -10 -11 -10 -5 0 -7 5 -4 10 3 6 8 10 11 10 2 0 4 -4 4 -10z
m-260 -42 c-1 -18 2 -50 6 -70 5 -31 3 -38 -10 -38 -12 0 -15 6 -10 25 5 20 1
27 -20 36 -22 11 -28 10 -40 -6 -29 -39 -223 -23 -240 21 -6 16 3 47 13 41 56
-30 91 -39 151 -35 53 3 73 9 101 31 44 34 49 34 49 -5z m303 -21 c-3 -18 -8
-35 -12 -39 -10 -11 -97 -17 -111 -8 -24 15 24 55 79 66 7 1 18 7 24 13 17 17
27 2 20 -32z m-233 17 c0 -8 -5 -12 -10 -9 -6 4 -8 11 -5 16 9 14 15 11 15 -7z
m96 -159 c-16 -25 -36 -33 -36 -16 0 6 5 13 10 16 6 3 10 25 10 48 l0 42 16
-32 c15 -30 15 -35 0 -58z m-209 38 c13 -10 12 -14 -5 -31 -24 -24 -32 -19
-32 23 0 34 12 55 18 33 3 -7 11 -18 19 -25z m953 27 c0 -5 -7 -10 -15 -10 -8
0 -15 5 -15 10 0 6 7 10 15 10 8 0 15 -4 15 -10z m-830 -14 c0 -3 -4 -8 -10
-11 -5 -3 -10 -1 -10 4 0 6 5 11 10 11 6 0 10 -2 10 -4z m30 -16 c0 -5 -4 -10
-10 -10 -5 0 -10 5 -10 10 0 6 5 10 10 10 6 0 10 -4 10 -10z m-41 -40 c12 0
21 -2 21 -4 0 -2 3 -13 6 -23 6 -15 4 -16 -7 -5 -7 6 -30 12 -50 12 -21 0 -41
5 -45 11 -10 16 17 29 37 18 10 -5 27 -9 38 -9z m-211 -12 c-7 -19 -38 -22
-38 -4 0 10 9 16 21 16 12 0 19 -5 17 -12z m-238 -18 c0 -5 -5 -10 -11 -10 -5
0 -7 5 -4 10 3 6 8 10 11 10 2 0 4 -4 4 -10z m123 4 c3 -3 3 -12 0 -20 -6 -17
-37 -18 -66 -2 -21 12 -21 13 13 19 19 3 38 7 41 8 3 0 8 -2 12 -5z m522 -4
c3 -5 1 -10 -4 -10 -6 0 -11 5 -11 10 0 6 2 10 4 10 3 0 8 -4 11 -10z m-325
-15 c0 -11 -12 -15 -45 -15 -57 0 -59 18 -2 23 23 2 43 4 45 5 1 1 2 -5 2 -13z
m136 -32 c15 -20 19 -119 5 -127 -4 -3 -17 10 -27 30 -10 19 -29 37 -41 41
-13 3 -23 13 -22 22 0 10 2 11 6 4 8 -22 33 -14 33 10 0 40 23 50 46 20z m334
-14 c0 -10 6 -28 12 -39 8 -13 9 -23 3 -29 -6 -5 -76 -11 -158 -13 l-147 -3 0
38 c0 32 3 37 24 37 13 0 37 3 54 6 27 6 32 3 38 -19 12 -49 71 -46 81 4 4 19
11 27 24 26 10 -1 19 -4 19 -8 0 -4 9 -9 20 -12 17 -4 19 -2 13 20 -4 18 -2
24 6 19 6 -4 11 -16 11 -27z m-452 -12 c2 -10 -3 -17 -12 -17 -8 0 -16 -10
-18 -22 -2 -12 -9 -23 -17 -26 -9 -3 -11 0 -7 7 8 12 -10 41 -24 41 -4 0 -10
-12 -13 -27 -3 -19 2 -33 20 -52 26 -28 27 -27 58 24 7 11 18 14 41 9 24 -5
36 -15 47 -43 26 -61 28 -107 6 -127 -11 -10 -19 -12 -19 -6 0 7 -7 12 -15 12
-8 0 -15 5 -15 10 0 6 -9 10 -20 10 -11 0 -20 6 -20 13 0 19 -49 40 -64 28 -6
-5 -27 -11 -46 -13 -26 -2 -34 -7 -32 -19 1 -9 -4 -19 -13 -23 -9 -3 -16 -20
-17 -43 l-1 -38 -4 35 c-3 19 -9 41 -15 48 -8 9 -7 20 3 39 11 20 11 27 2 30
-8 3 -9 10 -3 21 14 26 23 74 21 105 -2 20 2 27 14 27 13 0 16 -6 11 -24 -4
-17 -1 -26 11 -30 24 -10 43 13 21 25 -27 15 -11 41 21 34 15 -3 38 -1 52 4
30 12 43 9 47 -12z m327 12 c4 -6 5 -12 2 -15 -7 -7 -37 7 -37 17 0 13 27 11
35 -2z m353 -8 c3 -8 -1 -12 -9 -9 -7 2 -15 10 -17 17 -3 8 1 12 9 9 7 -2 15
-10 17 -17z m-998 -115 c0 -2 -7 -7 -16 -10 -8 -3 -12 -2 -9 4 6 10 25 14 25
6z m823 -23 c-7 -2 -21 -2 -30 0 -10 3 -4 5 12 5 17 0 24 -2 18 -5z m-75 -57
c2 -16 -1 -33 -7 -39 -6 -6 -11 -19 -11 -29 0 -20 -28 -25 -35 -5 -4 8 -35 12
-108 11 -134 0 -137 1 -137 42 0 30 3 34 28 34 15 0 33 4 40 9 8 4 62 7 120 7
l107 -2 3 -28z m197 23 c10 -15 -1 -23 -20 -15 -9 3 -13 10 -10 16 8 13 22 13
30 -1z m-735 -39 c0 -5 -7 -10 -16 -10 -8 0 -12 5 -9 10 3 6 10 10 16 10 5 0
9 -4 9 -10z m80 0 c0 -5 -4 -10 -10 -10 -5 0 -10 5 -10 10 0 6 5 10 10 10 6 0
10 -4 10 -10z m52 -51 c18 -10 54 -69 42 -69 -3 0 -15 11 -26 25 -24 31 -58
34 -58 5 0 -11 7 -20 15 -20 8 0 15 -3 15 -8 0 -4 10 -18 23 -32 28 -30 32
-73 10 -91 -13 -11 -17 -11 -20 -1 -4 9 -37 12 -124 12 l-119 0 0 34 c0 32 2
34 45 40 25 4 45 12 45 18 0 6 3 8 7 4 4 -4 7 -19 8 -34 0 -40 52 -43 99 -6
19 16 33 31 31 34 -2 4 -29 13 -60 20 -45 11 -57 18 -62 38 -3 13 -1 27 5 31
17 10 104 10 124 0z m-165 -31 c-3 -7 -5 -2 -5 12 0 14 2 19 5 13 2 -7 2 -19
0 -25z m340 -10 c26 -24 29 -38 10 -38 -9 0 -12 -10 -9 -30 3 -23 -1 -36 -18
-50 -24 -21 -31 -23 -52 -15 -9 4 -13 22 -11 59 2 91 32 119 80 74z m263 12
c0 -5 -7 -7 -15 -4 -8 4 -15 8 -15 10 0 2 7 4 15 4 8 0 15 -4 15 -10z m133
-17 c-7 -2 -19 -2 -25 0 -7 3 -2 5 12 5 14 0 19 -2 13 -5z m102 -3 c-3 -5 -19
-10 -36 -10 -16 0 -29 5 -29 10 0 6 16 10 36 10 21 0 33 -4 29 -10z m-254 -17
c21 -4 25 -9 21 -29 -3 -17 0 -24 12 -24 11 0 16 9 17 28 1 15 3 20 6 10 2
-10 10 -15 19 -11 26 10 14 -14 -20 -41 -44 -33 -55 -33 -62 4 -4 17 -9 30
-13 30 -13 -1 -58 -46 -65 -64 -4 -12 -13 -17 -26 -13 -11 3 -23 1 -26 -4 -3
-5 -12 -2 -21 7 -12 12 -13 18 -4 23 7 5 10 20 6 41 -5 28 -3 31 12 25 47 -18
63 -16 73 11 8 19 15 24 28 19 9 -3 29 -9 43 -12z m-596 -3 c-3 -5 -13 -10
-21 -10 -8 0 -14 5 -14 10 0 6 9 10 21 10 11 0 17 -4 14 -10z m885 0 c0 -5 -2
-10 -4 -10 -3 0 -8 5 -11 10 -3 6 -1 10 4 10 6 0 11 -4 11 -10z m-790 -30 c0
-23 -25 -27 -33 -6 -5 13 5 23 26 25 4 1 7 -8 7 -19z m739 0 c24 0 32 -5 37
-24 3 -14 3 -30 -1 -36 -4 -6 0 -21 8 -33 13 -21 13 -23 -8 -33 -20 -10 -25
-8 -34 12 -8 19 -18 24 -49 24 -50 0 -66 16 -41 41 20 20 26 49 10 49 -6 0
-13 -4 -16 -10 -9 -15 -35 -12 -35 4 0 17 55 26 82 14 9 -5 30 -8 47 -8z
m-429 -6 c0 -8 -4 -12 -10 -9 -5 3 -10 10 -10 16 0 5 5 9 10 9 6 0 10 -7 10
-16z m17 -102 c15 -20 17 -33 17 -137 1 -44 5 -91 9 -105 l9 -25 -25 26 c-14
14 -47 32 -73 38 -26 7 -56 19 -68 27 -24 17 -58 18 -73 3 -7 -7 -12 12 -17
63 -6 67 -5 74 15 91 14 11 38 17 70 17 38 0 49 3 49 16 0 13 7 15 37 9 20 -4
43 -14 50 -23z m-303 -18 c9 -3 16 -15 16 -25 0 -16 -5 -17 -32 -12 -42 8 -55
26 -25 35 12 3 23 6 24 7 1 1 8 -2 17 -5z m56 -3 c0 -5 -7 -14 -15 -21 -12
-10 -15 -10 -15 2 0 8 3 18 7 21 9 10 23 9 23 -2z m432 -8 c21 -4 27 -12 30
-40 2 -19 1 -36 -3 -39 -8 -5 -97 11 -105 19 -4 3 -2 12 2 19 9 14 11 19 13
44 1 11 6 14 19 9 9 -3 29 -9 44 -12z m208 -3 c0 -13 7 -20 19 -20 17 0 19 -6
15 -46 -2 -25 -6 -49 -9 -54 -3 -4 1 -27 8 -51 6 -24 11 -66 9 -94 -2 -42 -7
-52 -27 -62 l-25 -11 6 53 c5 38 2 62 -9 83 -8 17 -12 42 -10 56 7 36 -5 76
-22 76 -8 0 -15 7 -15 15 0 8 4 15 9 15 4 0 6 11 3 25 -2 15 0 25 7 25 6 0 11
-7 11 -15 0 -8 4 -15 9 -15 5 0 7 9 4 20 -3 11 0 20 6 20 6 0 11 -9 11 -20z
m-320 -60 c0 -31 -15 -30 -17 1 -1 17 2 27 7 24 6 -4 10 -15 10 -25z m-535 -9
c0 -22 19 -41 43 -41 7 0 10 5 7 10 -3 6 1 10 10 10 9 0 19 9 22 20 5 18 12
21 52 18 l46 -3 0 -45 c0 -40 -2 -45 -22 -44 -13 0 -77 1 -142 2 -129 2 -132
4 -124 58 4 26 8 30 28 26 13 -2 31 1 42 7 25 14 38 8 38 -18z m58 4 c-6 -18
-19 -19 -29 -4 -7 12 15 31 28 23 4 -3 5 -11 1 -19z m739 -54 c-1 -14 -9 -32
-17 -41 -13 -15 -12 -19 15 -38 34 -25 38 -53 18 -127 -13 -48 -15 -50 -38
-35 -13 9 -13 11 0 20 12 7 12 12 3 21 -10 10 -14 9 -19 -4 -5 -15 -25 -17
-158 -17 -105 0 -156 -4 -164 -12 -9 -9 -12 -9 -12 -1 0 7 5 15 11 18 6 4 9
21 7 38 -3 30 -1 32 33 35 24 2 45 13 65 33 32 33 64 39 64 10 0 -10 8 -22 17
-25 12 -5 13 -10 5 -18 -13 -13 -42 6 -42 28 0 8 -5 14 -10 14 -9 0 -7 -27 6
-67 4 -16 56 -17 72 -1 7 7 12 20 12 30 0 10 4 18 8 18 5 0 26 34 48 75 31 61
42 75 59 73 15 -2 19 -9 17 -27z m-252 -13 c-1 -23 -21 -58 -34 -58 -9 0 -7
25 4 54 12 32 30 34 30 4z m-243 -64 c10 -22 9 -26 -12 -36 -14 -6 -27 -19
-30 -30 -7 -20 -20 -24 -31 -6 -4 6 0 16 8 22 9 6 19 26 22 44 9 38 27 41 43
6z m-422 -14 c3 -5 -1 -10 -10 -10 -9 0 -13 5 -10 10 3 6 8 10 10 10 2 0 7 -4
10 -10z m560 -10 c8 -13 -5 -13 -25 0 -13 8 -13 10 2 10 9 0 20 -4 23 -10z
m435 -145 c0 -8 -2 -15 -4 -15 -2 0 -6 7 -10 15 -3 8 -1 15 4 15 6 0 10 -7 10
-15z m-490 -25 c0 -5 -2 -10 -4 -10 -3 0 -8 5 -11 10 -3 6 -1 10 4 10 6 0 11
-4 11 -10z"/>
<path d="M266 2025 c4 -8 10 -12 15 -9 11 6 2 24 -11 24 -5 0 -7 -7 -4 -15z"/>
<path d="M400 1990 c0 -5 4 -10 9 -10 6 0 13 5 16 10 3 6 -1 10 -9 10 -9 0
-16 -4 -16 -10z"/>
<path d="M603 1976 c7 -21 36 -30 63 -21 46 17 39 31 -16 31 -29 0 -49 -4 -47
-10z"/>
<path d="M895 1430 c-3 -5 1 -10 9 -10 9 0 16 5 16 10 0 6 -4 10 -9 10 -6 0
-13 -4 -16 -10z"/>
<path d="M917 1403 c-14 -13 -6 -33 13 -33 13 0 20 7 20 20 0 19 -20 27 -33
13z"/>
<path d="M878 2553 c7 -3 16 -2 19 1 4 3 -2 6 -13 5 -11 0 -14 -3 -6 -6z"/>
<path d="M1581 2551 c-10 -7 -11 -9 0 -13 10 -3 10 -13 1 -48 -7 -27 -7 -50
-2 -59 5 -9 10 -14 10 -11 0 3 11 35 24 73 l23 67 -21 0 c-12 0 -27 -4 -35 -9z"/>
<path d="M1636 2498 c-25 -90 -39 -132 -48 -143 -5 -5 -5 5 -2 23 6 32 6 32
-34 32 -23 0 -43 -4 -46 -8 -2 -4 1 -33 7 -63 11 -48 15 -54 40 -57 25 -3 28
-7 25 -35 l-3 -32 -110 0 c-91 0 -110 -3 -110 -15 0 -12 18 -16 89 -18 l88 -3
-6 -52 c-4 -29 -11 -56 -17 -61 -5 -6 -9 -22 -9 -36 0 -15 -3 -29 -6 -33 -3
-3 -24 -59 -45 -124 l-40 -118 4 -212 c4 -212 4 -212 -20 -234 -25 -25 -31
-15 -8 15 8 10 12 22 10 27 -3 4 -6 62 -6 129 -2 133 -10 142 -41 43 -22 -71
-22 -73 -2 -73 13 0 15 -9 11 -52 -3 -29 -11 -73 -18 -97 -11 -35 -11 -45 -1
-48 6 -3 12 -19 12 -36 0 -24 -3 -28 -12 -19 -16 16 -28 15 -28 -3 0 -8 6 -15
14 -15 19 0 32 -20 18 -29 -8 -5 -5 -20 10 -50 17 -34 18 -45 8 -51 -16 -10
-6 -40 15 -40 14 0 21 39 16 93 -2 13 5 17 33 17 24 0 39 6 49 21 8 11 21 20
28 19 8 -2 19 -2 26 -1 13 1 53 66 53 86 0 17 -61 65 -83 65 -21 0 -21 1 -2
36 8 16 15 45 15 64 0 50 35 94 104 130 94 49 130 39 201 -55 29 -39 30 -42
28 -148 -2 -77 -9 -124 -23 -164 -27 -76 -26 -120 1 -128 15 -5 18 -12 13 -23
-4 -10 -10 -53 -14 -97 -4 -46 -14 -95 -24 -115 -16 -30 -18 -51 -13 -170 3
-74 0 -161 -5 -193 -6 -31 -7 -65 -3 -75 4 -9 6 -44 5 -76 -1 -47 -6 -63 -23
-77 -25 -20 -49 -17 -115 12 -35 16 -42 23 -38 42 22 105 6 217 -58 417 -59
184 -72 344 -31 406 17 27 13 46 -9 38 -19 -7 -38 -55 -39 -98 -1 -21 -7 -38
-15 -41 -12 -4 -12 -8 -2 -20 19 -23 4 -30 -38 -16 -21 7 -74 12 -117 12 -44
-1 -352 -4 -685 -7 -332 -3 -607 -8 -610 -10 -3 -3 4 -12 14 -19 16 -12 112
-13 590 -7 314 4 618 7 676 6 124 0 178 -16 186 -54 2 -14 18 -74 35 -135 30
-110 54 -203 65 -260 6 -25 4 -28 -7 -17 -7 7 -38 12 -71 12 l-58 0 -2 103 c0
56 -2 107 -3 112 -2 6 -3 16 -4 23 0 6 -6 12 -13 12 -8 0 -9 -36 -5 -137 4
-75 10 -139 13 -142 3 -3 40 -7 81 -8 42 -1 80 -6 85 -11 7 -7 7 -43 1 -104
-6 -54 -6 -98 -1 -104 9 -13 -38 -34 -75 -34 -17 0 -18 -3 -9 -12 16 -16 84
-11 94 7 8 13 54 9 64 -6 9 -16 101 -10 118 7 9 8 16 20 16 25 0 5 6 9 14 9 8
0 12 9 10 22 -2 13 -5 44 -7 70 l-4 47 38 -20 c46 -23 48 -31 13 -58 -43 -34
-29 -55 38 -59 54 -3 58 -2 64 23 3 14 12 25 20 25 15 0 54 38 54 53 0 6 -20
30 -45 54 -25 24 -45 45 -45 48 0 2 12 -3 28 -11 15 -7 35 -14 44 -14 9 0 33
-9 52 -21 29 -17 37 -29 42 -59 6 -38 7 -39 30 -23 23 14 26 14 44 -2 19 -17
20 -16 32 10 10 23 10 29 0 33 -6 2 -12 17 -12 32 0 16 -4 32 -10 35 -5 3 -10
15 -10 26 0 21 -46 99 -58 99 -5 0 -18 9 -29 20 -22 20 -22 20 -28 0 -4 -13
-15 -20 -32 -20 -16 0 -27 -7 -30 -20 -3 -13 -14 -20 -29 -20 -13 0 -24 -4
-24 -10 0 -5 -6 -10 -14 -10 -8 0 -16 -5 -18 -11 -2 -7 -22 -1 -52 15 l-48 25
-4 63 c-4 59 -4 62 12 46 13 -12 23 -14 41 -7 34 13 63 -8 63 -45 l0 -30 28
27 c15 15 39 27 53 27 14 0 30 5 37 12 9 9 27 9 79 -2 55 -10 68 -11 71 0 7
21 32 -49 32 -91 l0 -39 268 -2 c147 -1 277 -2 290 -2 21 0 22 -4 18 -55 -3
-49 -8 -59 -40 -86 -45 -38 -45 -48 -1 -42 19 3 38 0 42 -6 4 -7 -13 -8 -55
-4 -37 4 -62 3 -62 -3 0 -18 36 -27 115 -28 44 0 100 -5 124 -11 33 -7 53 -6
80 4 20 8 44 15 55 17 23 4 70 86 58 101 -5 7 -7 33 -4 59 l4 47 44 7 c25 3
85 4 134 2 64 -3 90 -1 90 7 0 12 -111 25 -212 25 -67 0 -92 -26 -86 -89 4
-44 3 -46 -19 -45 -12 0 -26 4 -30 7 -3 4 -14 7 -23 7 -15 0 -17 7 -12 45 4
37 2 45 -12 45 -12 0 -16 -10 -16 -40 0 -21 -5 -50 -11 -64 -14 -31 -4 -76 17
-76 12 0 15 7 12 30 -4 25 -2 30 11 24 9 -4 31 -9 50 -13 32 -6 33 -7 16 -21
-17 -14 -81 -40 -100 -40 -6 0 -16 14 -23 30 -11 23 -11 38 -3 62 6 17 11 47
11 66 0 20 5 49 11 66 8 22 8 71 2 166 -5 74 -7 139 -4 145 6 11 1 96 -6 108
-12 19 -19 -7 -13 -48 8 -52 -1 -60 -15 -13 -6 17 -16 33 -22 36 -19 6 -16
-33 7 -80 24 -51 27 -118 5 -118 -23 0 -18 -27 6 -33 19 -5 20 -11 15 -79 -8
-115 -21 -201 -36 -230 -14 -29 -50 -39 -50 -13 0 7 -7 18 -16 23 -13 7 -14
19 -5 88 5 43 13 117 16 163 3 47 9 103 14 125 5 23 8 103 7 179 -1 120 -3
140 -18 151 -18 13 -24 36 -10 36 4 0 21 -12 37 -26 48 -42 72 -47 116 -26 37
19 39 19 39 1 0 -10 5 -21 10 -24 6 -4 8 -15 5 -26 -4 -11 -2 -19 5 -19 5 0 8
-10 6 -22 -3 -13 -7 -46 -11 -75 l-5 -51 47 0 c26 0 51 5 55 11 4 6 26 16 50
22 40 9 43 12 40 40 -2 17 -12 45 -23 63 -10 18 -19 39 -19 45 0 18 145 13
173 -7 21 -14 19 -15 -33 -16 -69 0 -100 -9 -100 -26 0 -11 19 -14 85 -14 50
0 85 4 85 10 0 6 7 10 15 10 10 0 15 10 15 27 0 26 -1 26 -15 7 -12 -16 -14
-16 -15 -3 0 9 -9 27 -21 40 -14 17 -19 32 -15 52 4 20 0 33 -15 48 -18 18
-31 20 -99 17 -77 -3 -79 -2 -83 22 -5 24 20 80 35 80 13 0 9 -20 -4 -20 -8
-1 -6 -6 5 -14 21 -16 22 -26 3 -26 -8 0 -18 -5 -22 -12 -5 -8 6 -9 42 -5 52
8 78 29 68 59 -6 20 8 23 35 8 13 -6 24 -5 37 5 27 19 16 25 -66 37 -59 9 -74
8 -81 -3 -7 -11 -9 -11 -9 3 0 22 56 38 133 38 50 0 58 2 55 18 -3 15 -16 17
-103 17 l-100 0 -1 35 c-2 46 11 60 53 60 21 0 36 6 40 16 8 21 23 -1 23 -33
0 -27 38 -40 68 -24 30 16 27 69 -5 77 -28 8 -30 24 -3 31 13 3 20 12 18 22
-2 12 -15 16 -48 16 -53 0 -59 7 -53 57 5 34 8 37 29 32 27 -7 84 13 84 28 0
6 -22 9 -55 6 -41 -3 -56 -1 -60 10 -11 28 -4 32 55 32 47 0 60 3 60 15 0 15
-26 19 -99 15 -31 -2 -33 0 -29 24 6 27 -15 53 -48 61 -11 2 -47 11 -81 20
-56 15 -64 15 -86 1 -26 -18 -37 -13 -37 16 0 10 -6 18 -14 18 -9 0 -13 -12
-12 -40 1 -37 3 -40 23 -35 13 3 28 -1 38 -11 20 -20 85 -11 85 12 0 12 4 13
21 3 12 -6 29 -9 40 -6 25 7 37 -11 36 -55 l-1 -38 -25 17 c-32 21 -204 31
-251 14 -30 -10 -31 -9 -24 12 7 22 6 115 -1 127 -5 9 33 50 45 50 6 0 10 7
10 15 0 8 -6 15 -14 15 -14 0 -14 5 14 105 6 22 13 56 16 75 8 53 11 59 34 55
11 -2 20 0 20 6 0 18 17 9 28 -17 15 -31 5 -79 -12 -65 -14 12 -26 4 -49 -29
-21 -30 -22 -79 -3 -86 17 -6 10 -33 -12 -50 -12 -9 -12 -14 -1 -32 32 -51
144 -11 163 58 12 39 35 71 48 64 20 -13 -1 -99 -29 -117 -19 -12 -16 -25 8
-32 11 -4 27 -22 36 -41 16 -32 18 -33 57 -27 46 7 67 16 91 39 9 9 18 14 21
11 5 -4 8 -118 7 -199 -1 -10 0 -51 0 -90 0 -40 0 -82 -1 -93 -4 -35 8 -248
13 -253 3 -3 4 242 4 544 -1 345 -5 534 -10 509 -11 -50 -14 -145 -4 -174 3
-12 4 -34 0 -50 -5 -23 -11 -28 -34 -27 -22 1 -27 5 -23 20 3 10 13 21 24 23
10 3 18 14 18 25 0 16 -5 18 -35 12 -38 -7 -41 -3 -24 45 7 20 20 33 35 37 25
6 33 24 11 24 -7 0 -18 5 -25 12 -9 9 -7 14 5 24 15 10 15 14 4 28 -13 15 -30
16 -148 10 -146 -8 -143 -9 -127 54 5 18 13 22 45 22 21 0 41 5 44 10 11 18
25 10 25 -14 0 -29 21 -39 66 -30 28 5 34 11 34 31 0 23 3 25 36 19 l35 -7 -7
38 c-3 21 -10 42 -14 46 -4 5 -66 8 -139 9 -127 1 -131 1 -131 22 0 12 5 27
12 34 9 9 6 12 -15 12 -26 0 -27 -2 -27 -59 0 -60 -16 -92 -27 -52 -7 26 -19
28 -155 35 -86 4 -111 2 -122 -10 -20 -19 -26 -18 -26 5 0 11 -5 23 -10 26 -7
4 -7 12 0 25 14 26 13 30 -9 30 -14 0 -21 -9 -26 -37 -9 -54 3 -136 22 -150
17 -13 26 -90 12 -99 -5 -3 -9 1 -9 9 0 17 -51 26 -127 22 -29 -1 -53 2 -53 6
0 5 14 9 31 9 33 0 95 52 84 70 -11 18 -47 11 -52 -10 -6 -23 -43 -27 -43 -5
0 8 7 15 15 15 8 0 15 9 15 20 0 17 -3 19 -19 10 -11 -5 -23 -15 -26 -20 -3
-6 -16 -10 -28 -10 -22 0 -22 -1 3 -19 22 -18 23 -21 10 -45 -11 -21 -21 -26
-51 -26 -20 0 -44 -3 -53 -6 -12 -5 -14 1 -9 33 3 21 10 44 16 51 14 17 0 102
-20 124 -13 14 -14 21 -5 30 20 20 14 27 -23 26 -31 -1 -34 -3 -21 -17 8 -9
17 -27 21 -41 l6 -25 -126 -1 -125 -1 0 28 c0 15 7 35 16 43 14 15 12 16 -20
16 -20 0 -36 -4 -36 -10 0 -5 -7 -10 -16 -10 -8 0 -13 4 -10 8 3 5 -25 9 -62
10 -37 1 -62 -1 -55 -4 9 -4 9 -10 1 -23 -8 -13 -7 -33 2 -77 6 -32 14 -83 17
-111 l5 -53 50 0 49 0 -3 38 c-2 29 -7 36 -20 34 -10 -2 -18 1 -18 7 0 5 24
10 53 10 28 0 78 3 110 7 49 5 57 4 57 -11 0 -13 -6 -15 -30 -10 -26 6 -30 4
-30 -14 0 -26 35 -37 66 -20 15 8 24 21 24 37 0 19 3 23 18 16 9 -4 32 -8 50
-8 l32 1 0 -56 c0 -43 -3 -52 -12 -43 -8 8 -48 12 -115 12 -98 0 -103 -1 -119
-25 -15 -24 -17 -24 -51 -10 -19 8 -39 12 -44 9 -16 -9 -10 -24 14 -34 l22 -9
-22 0 c-27 -1 -30 -23 -6 -42 12 -10 17 -11 20 -2 2 7 11 9 19 6 19 -7 18 -23
-1 -23 -20 0 -19 -34 1 -54 14 -15 28 -20 47 -17 4 0 7 -3 7 -9 0 -5 -4 -10
-10 -10 -5 0 -10 -9 -10 -20 0 -22 20 -26 38 -8 6 6 15 9 19 5 8 -8 -52 -60
-72 -63 -8 -1 -29 -9 -46 -18 -39 -20 -40 -20 -32 0 5 15 3 15 -25 0 -45 -23
-52 -20 -52 23 0 53 18 101 52 137 31 33 30 43 -5 37 -48 -9 -98 -190 -62
-226 11 -11 14 -22 8 -30 -5 -7 -10 -25 -12 -42 -2 -16 -12 -40 -22 -54 -14
-18 -16 -27 -8 -37 14 -17 29 -9 29 17 0 11 6 21 13 23 52 16 54 17 30 29 -28
13 -30 34 -3 42 11 3 20 11 20 16 0 5 12 9 28 9 15 0 36 7 46 15 24 18 58 19
74 3 9 -9 16 -7 31 6 11 10 20 21 19 25 0 3 0 21 1 39 1 32 2 33 39 26 20 -3
42 -11 47 -16 6 -6 -3 -7 -26 -3 -35 7 -37 6 -41 -27 -5 -32 6 -51 27 -44 6 2
9 10 7 19 -6 35 18 25 29 -13 15 -49 8 -58 -27 -35 -20 13 -29 14 -38 5 -8 -9
-8 -14 2 -17 6 -3 12 -13 12 -24 0 -13 7 -19 21 -19 16 0 19 -3 12 -12 -16
-20 -25 -68 -13 -68 5 0 10 -7 10 -15 0 -8 -5 -15 -12 -15 -6 0 -20 -8 -31
-17 -15 -13 -21 -15 -24 -5 -5 13 -74 16 -160 6 -59 -8 -68 -19 -23 -29 26 -6
29 -10 24 -31 -5 -19 -1 -26 22 -35 24 -10 26 -13 10 -17 -10 -2 -22 2 -26 8
-8 13 -30 5 -30 -11 0 -5 12 -14 27 -20 33 -12 77 6 68 29 -4 11 1 13 23 9 43
-9 65 1 83 36 14 28 20 32 50 29 19 -2 40 -11 47 -20 7 -9 19 -25 28 -36 15
-17 14 -20 -8 -43 l-24 -24 -14 36 c-11 28 -18 34 -34 29 -12 -3 -30 -17 -41
-32 -40 -53 -63 -71 -82 -66 -17 5 -19 -1 -20 -53 -1 -32 3 -63 9 -70 7 -9 3
-14 -18 -19 -15 -4 -35 -15 -46 -26 -15 -15 -31 -18 -73 -16 -30 2 -55 6 -55
10 0 5 7 8 15 8 8 0 15 7 15 15 0 20 -44 20 -64 -1 -15 -14 -16 -13 -16 15 0
47 -36 114 -90 167 -46 45 -48 50 -33 66 22 25 29 100 10 116 -11 10 -17 9
-27 -3 -13 -16 -60 -21 -60 -6 0 5 5 11 12 13 7 3 9 12 5 22 -6 14 -13 17 -35
11 -36 -9 -52 -23 -45 -42 5 -13 3 -13 -14 -2 -21 12 -21 13 3 38 25 27 30 46
15 55 -14 9 -13 348 1 357 9 6 9 11 -1 23 -11 13 -11 20 3 42 21 32 71 31 71
-1 0 -11 7 -20 15 -20 9 0 14 7 12 19 -2 10 7 29 19 42 14 15 20 30 16 44 -3
13 0 23 9 27 16 6 19 43 4 43 -5 0 -10 6 -10 14 0 8 11 14 25 14 14 0 29 2 32
6 8 8 -16 36 -32 36 -16 0 -42 -30 -47 -55 -4 -17 -7 -16 -17 10 -11 27 -9 73
6 111 3 8 -1 14 -9 14 -8 0 -20 -17 -26 -37 -6 -21 -20 -69 -32 -107 -11 -38
-20 -75 -20 -82 0 -21 -28 -66 -32 -52 -3 7 -1 20 3 28 4 8 12 35 19 60 6 25
22 78 35 118 21 66 21 72 5 72 -13 0 -22 -16 -34 -62z m418 17 c11 -8 29 -12
41 -9 18 4 23 0 28 -21 3 -21 0 -29 -14 -32 -11 -3 -19 -13 -19 -22 0 -13 -9
-15 -50 -13 -40 3 -50 8 -50 22 0 9 -3 32 -7 50 -5 28 -4 32 10 27 9 -3 19 -2
22 3 8 13 16 12 39 -5z m1140 -76 c-7 -12 -94 -12 -94 0 0 6 22 10 50 9 27 0
47 -4 44 -9z m-394 -3 c0 -3 -4 -8 -10 -11 -5 -3 -10 -1 -10 4 0 6 5 11 10 11
6 0 10 -2 10 -4z m270 -93 c0 -58 -2 -64 -13 -49 -12 16 -28 18 -155 15 -140
-4 -142 -4 -142 18 0 39 11 53 42 53 16 0 38 4 48 10 15 8 20 6 25 -11 4 -11
16 -24 28 -28 28 -10 77 9 77 30 0 14 7 16 40 12 26 -4 40 -2 40 6 0 6 2 11 5
11 3 0 5 -30 5 -67z m208 45 c-3 -7 -8 -13 -13 -13 -5 0 -10 6 -12 13 -3 6 3
12 12 12 9 0 15 -6 13 -12z m-328 -8 c0 -5 -6 -10 -14 -10 -8 0 -18 5 -21 10
-3 6 3 10 14 10 12 0 21 -4 21 -10z m-930 -39 c0 -5 10 -12 23 -14 15 -4 13
-5 -7 -4 -27 2 -52 27 -27 27 6 0 11 -4 11 -9z m1300 -65 c0 -2 3 -12 7 -22 4
-11 2 -15 -4 -11 -5 4 -36 7 -67 8 -68 2 -74 16 -8 22 26 2 53 4 60 5 6 1 12
0 12 -2z m-345 -15 c9 -16 -7 -18 -110 -13 -66 4 -91 8 -75 13 37 10 178 11
185 0z m85 -11 c0 -5 -5 -10 -11 -10 -5 0 -7 5 -4 10 3 6 8 10 11 10 2 0 4 -4
4 -10z m-880 -10 c0 -5 -4 -10 -10 -10 -5 0 -10 5 -10 10 0 6 5 10 10 10 6 0
10 -4 10 -10z m140 -1 c0 -6 -22 -9 -55 -8 -30 1 -55 6 -55 11 0 4 25 8 55 8
32 0 55 -4 55 -11z m33 -14 c-7 -21 -13 -19 -13 6 0 11 4 18 10 14 5 -3 7 -12
3 -20z m392 15 c3 -5 -3 -10 -15 -10 -12 0 -18 5 -15 10 3 6 10 10 15 10 5 0
12 -4 15 -10z m114 -37 c10 -2 11 -7 4 -14 -6 -6 -19 -6 -36 0 -21 8 -27 7
-27 -3 0 -22 27 -38 57 -34 22 2 29 9 31 31 3 25 6 27 53 27 l49 0 -2 -45 c-1
-50 -11 -63 -33 -45 -8 7 -57 10 -137 9 -108 -1 -123 1 -122 15 3 55 3 56 39
56 21 0 38 6 41 14 4 11 12 12 37 3 18 -5 38 -12 46 -14z m399 16 l61 -2 3
-46 c2 -25 -1 -53 -6 -62 -13 -23 1 -72 19 -65 11 4 15 -2 15 -19 0 -15 -6
-25 -14 -25 -8 0 -21 -12 -28 -27 -9 -20 -22 -29 -43 -31 -28 -2 -29 -1 -11
12 25 20 31 105 8 123 -16 11 -16 12 0 13 22 0 33 19 20 32 -5 5 -25 10 -44
11 -31 1 -36 5 -46 39 -14 45 -15 61 -3 54 5 -3 36 -6 69 -7z m-786 -32 c-3
-20 25 -35 58 -32 14 2 29 4 34 4 4 1 5 12 2 25 -6 23 -4 24 42 23 55 -2 62
-13 55 -80 -6 -50 -16 -59 -32 -29 -8 15 -26 17 -140 16 l-131 -1 2 39 c1 36
3 39 25 33 14 -3 33 1 46 10 26 18 43 14 39 -8z m68 14 c0 -12 -29 -23 -42
-15 -6 4 -5 10 3 15 18 11 39 11 39 0z m-339 -24 c-5 -5 -18 -7 -28 -3 -14 6
-15 9 -4 16 19 11 46 1 32 -13z m112 -1 c9 -3 17 -12 17 -20 0 -28 -68 7 -70
37 0 4 8 3 18 -2 9 -5 25 -12 35 -15z m-734 -138 c0 -84 -3 -147 -6 -140 -2 6
-12 12 -20 12 -11 0 -13 5 -7 18 5 9 9 53 10 97 2 140 4 165 14 165 6 0 10
-57 9 -152z m681 112 c0 -5 -4 -10 -10 -10 -5 0 -10 5 -10 10 0 6 5 10 10 10
6 0 10 -4 10 -10z m-38 -32 c14 -21 18 -22 40 -9 31 16 57 5 87 -37 l20 -29
-61 4 c-57 3 -73 9 -122 47 -16 13 -17 18 -6 31 17 20 25 19 42 -7z m913 -39
c11 -33 -3 -69 -25 -69 -23 0 -28 38 -8 70 16 25 25 25 33 -1z m-335 1 c0 -5
-9 -10 -20 -10 -10 0 -31 -5 -45 -12 -28 -12 -53 1 -41 21 9 14 106 15 106 1z
m146 -84 l1 -45 -71 -5 c-39 -2 -99 -4 -133 -4 -61 1 -63 2 -63 27 0 41 11 48
68 50 47 1 54 -2 62 -24 13 -35 52 -33 82 3 13 16 29 27 36 24 7 -2 12 1 12 7
0 6 1 11 3 11 1 0 2 -20 3 -44z m464 -36 c-15 -29 -44 -27 -36 3 3 12 6 30 6
40 0 9 7 17 15 17 8 0 16 6 17 13 0 6 3 -2 5 -20 2 -18 -1 -41 -7 -53z m-1885
5 c-7 -30 -17 -60 -22 -67 -5 -7 -18 -51 -28 -98 -21 -102 -34 -132 -35 -78 0
21 18 91 40 157 22 65 40 126 40 136 0 9 4 14 9 11 5 -4 4 -29 -4 -61z m993
48 c2 -8 -5 -13 -17 -13 -21 0 -35 13 -24 24 10 10 36 3 41 -11z m129 3 c2 -1
5 -87 4 -100 -1 -5 -9 -1 -20 8 -15 13 -43 18 -127 21 -60 2 -112 4 -116 4
-11 2 -19 37 -12 55 4 11 18 16 46 16 32 0 39 -3 36 -17 -4 -28 11 -43 42 -43
29 0 40 15 40 52 0 18 4 19 53 13 28 -4 53 -8 54 -9z m218 4 c3 -5 -3 -10 -14
-10 -12 0 -21 5 -21 10 0 6 6 10 14 10 8 0 18 -4 21 -10z m-502 -74 c9 -7 17
-18 17 -25 0 -6 6 -14 14 -17 17 -7 17 -44 0 -61 -18 -19 -22 -16 -16 13 5 29
-15 74 -35 74 -7 0 -13 7 -13 15 0 18 9 19 33 1z m437 -47 c24 -1 24 -1 5 -15
-10 -8 -31 -14 -47 -14 -15 0 -28 -5 -28 -11 0 -5 -4 -8 -8 -5 -4 2 -8 -7 -7
-20 0 -33 28 -48 71 -40 28 6 34 11 34 31 0 23 2 24 25 13 19 -8 31 -8 51 1
29 13 56 4 30 -11 -20 -11 -23 -94 -3 -101 7 -3 4 -6 -7 -6 -14 -1 -17 -6 -12
-25 7 -28 -10 -80 -23 -72 -12 8 -37 -24 -46 -59 -4 -16 -9 -25 -11 -20 -2 6
-50 9 -120 8 l-116 -3 7 38 c4 20 8 38 8 38 1 1 22 4 46 7 24 2 47 11 52 18 7
12 9 11 10 -1 1 -8 1 -21 0 -28 -3 -18 24 -25 64 -18 26 5 35 12 35 26 0 11 6
21 13 21 6 1 17 2 22 4 6 1 20 3 33 3 16 2 21 6 15 14 -4 7 -7 26 -8 43 l0 30
-138 0 -137 0 0 37 c0 35 2 37 36 40 39 3 72 36 47 45 -7 3 -13 14 -13 25 0
18 5 19 48 14 26 -3 58 -7 72 -7z m-460 -14 c7 -9 8 -15 2 -15 -5 0 -12 7 -16
15 -3 8 -4 15 -2 15 2 0 9 -7 16 -15z m260 6 c0 -5 -9 -7 -20 -4 -14 4 -20 0
-20 -11 0 -14 -8 -16 -52 -11 -73 9 -89 16 -58 25 36 11 150 12 150 1z m257 3
c-3 -3 -12 -4 -19 -1 -8 3 -5 6 6 6 11 1 17 -2 13 -5z m438 -14 c3 -5 1 -10
-4 -10 -6 0 -11 5 -11 10 0 6 2 10 4 10 3 0 8 -4 11 -10z m-1726 -16 c2 -2 -3
-32 -12 -66 -9 -35 -21 -90 -28 -123 -6 -33 -15 -65 -20 -71 -5 -6 -11 -35
-14 -65 -4 -53 -17 -126 -31 -181 -6 -28 -24 -39 -24 -16 0 46 45 361 63 440
20 89 23 97 42 92 11 -4 22 -8 24 -10z m1096 6 c3 -5 -1 -10 -9 -10 -9 0 -16
5 -16 10 0 6 4 10 9 10 6 0 13 -4 16 -10z m-351 -15 c3 -8 1 -15 -4 -15 -6 0
-10 7 -10 15 0 8 2 15 4 15 2 0 6 -7 10 -15z m136 -36 c0 -17 -19 -19 -34 -3
-21 21 -20 22 9 16 14 -2 25 -8 25 -13z m340 0 c0 -12 -37 -12 -45 0 -3 5 3
11 12 13 21 5 33 0 33 -13z m330 5 c0 -9 -5 -14 -12 -12 -18 6 -21 28 -4 28 9
0 16 -7 16 -16z m-766 -8 c13 5 46 -20 46 -36 0 -10 38 -20 55 -14 8 3 18 19
24 36 9 25 15 29 33 24 13 -3 33 -6 46 -6 20 0 22 -5 22 -54 0 -30 -4 -58 -10
-61 -5 -3 -10 0 -10 8 0 23 -48 34 -134 31 -87 -3 -107 -13 -88 -44 10 -16 9
-18 -4 -13 -9 3 -14 15 -12 32 2 20 -2 27 -19 29 -19 3 -23 10 -23 42 0 38 0
39 31 30 16 -5 36 -7 43 -4z m-689 -96 c10 -11 14 -20 8 -20 -5 0 -18 9 -28
20 -10 11 -14 20 -8 20 5 0 18 -9 28 -20z m1165 -22 c0 -5 -4 -7 -9 -3 -5 3
-12 1 -15 -4 -3 -5 -32 -9 -63 -10 -32 0 -72 -5 -90 -10 -35 -10 -43 -6 -43
20 0 16 11 19 98 21 104 3 122 1 122 -14z m280 12 c31 -6 47 -5 52 3 5 8 17 6
43 -6 20 -9 42 -17 50 -17 8 0 15 -4 15 -10 0 -5 -11 -10 -25 -10 -14 0 -25 4
-25 9 0 15 -206 13 -222 -2 -7 -6 -28 -13 -45 -13 l-33 -2 23 28 c19 25 29 29
72 29 28 0 70 -4 95 -9z m-574 -21 c3 -6 -15 -8 -43 -5 -27 3 -55 1 -62 -3
-16 -10 -53 -2 -46 10 3 4 11 6 18 3 8 -3 23 -1 36 4 26 9 89 4 97 -9z m-898
-12 c25 -19 11 -28 -18 -10 -16 9 -30 21 -30 25 0 8 29 0 48 -15z m447 3 c3
-5 -3 -10 -14 -10 -12 0 -21 5 -21 10 0 6 6 10 14 10 8 0 18 -4 21 -10z m55 0
c0 -5 -6 -10 -14 -10 -8 0 -18 5 -21 10 -3 6 3 10 14 10 12 0 21 -4 21 -10z
m440 0 c0 -5 -4 -10 -9 -10 -6 0 -13 5 -16 10 -3 6 1 10 9 10 9 0 16 -4 16
-10z m492 -49 c-18 -11 28 -34 59 -29 18 2 25 10 27 32 3 26 6 28 34 22 17 -3
41 -6 54 -6 23 0 24 -3 24 -65 0 -51 -3 -65 -15 -65 -8 0 -15 6 -15 14 0 16
-25 23 -90 25 -25 1 -53 4 -62 7 -10 3 -18 1 -18 -4 0 -5 -9 -12 -20 -15 -25
-6 -16 -37 10 -37 11 0 21 -4 24 -9 3 -4 19 -11 36 -14 17 -4 30 -13 30 -21 0
-8 6 -16 13 -19 8 -3 9 -8 1 -16 -14 -15 -75 15 -81 40 -6 20 -23 25 -38 10
-6 -4 -23 -11 -38 -15 -24 -6 -28 -4 -25 11 2 10 -3 23 -11 29 -13 10 -13 14
-2 28 7 9 22 16 32 16 11 0 19 5 19 10 0 6 7 10 15 10 11 0 14 9 12 35 -1 19
-6 35 -12 36 -5 0 -1 4 10 9 23 9 47 -7 27 -19z m-292 10 c0 -11 -31 -24 -39
-16 -3 3 1 10 9 15 19 12 30 12 30 1z m360 -6 c0 -9 -9 -15 -23 -15 -14 0 -24
6 -24 15 0 9 10 15 24 15 14 0 23 -6 23 -15z m-584 -14 c8 -9 9 -25 3 -44 -11
-40 4 -66 39 -65 31 1 113 -10 120 -16 2 -3 1 -10 -3 -16 -6 -9 -10 -9 -16 1
-8 12 -11 11 -19 -1 -7 -11 -5 -18 5 -26 8 -6 15 -19 15 -28 0 -9 5 -16 10
-16 6 0 10 9 10 19 0 16 7 19 50 18 36 -2 49 -6 45 -15 -2 -7 2 -15 10 -19 12
-4 13 -9 5 -19 -8 -9 -8 -18 0 -33 6 -12 9 -21 8 -22 -27 -6 -70 -5 -74 2 -10
17 -42 9 -58 -16 -22 -34 -20 -45 9 -45 14 0 25 -4 25 -10 0 -5 -7 -10 -15
-10 -10 0 -15 -10 -15 -26 0 -22 -2 -24 -15 -14 -16 14 -35 6 -35 -16 0 -8 -4
-14 -10 -14 -5 0 -10 5 -10 10 0 6 -12 10 -26 10 -14 0 -45 5 -70 11 -48 12
-102 -1 -89 -21 3 -6 2 -10 -4 -10 -5 0 -13 5 -16 10 -11 18 -26 0 -23 -27 2
-21 -2 -28 -26 -34 -16 -5 -33 -14 -37 -21 -7 -10 -9 -8 -9 5 0 15 -11 17 -94
17 -63 0 -96 -4 -98 -12 -8 -22 -28 3 -28 35 0 45 9 52 62 53 35 0 48 -4 51
-16 2 -10 17 -20 33 -23 36 -7 76 16 67 39 -5 14 -3 14 16 3 11 -8 21 -22 21
-31 0 -26 19 -22 29 5 5 13 16 29 25 36 9 8 16 28 16 47 0 26 4 34 18 34 9 1
29 11 44 23 24 20 26 26 19 60 -8 35 -7 37 15 37 25 0 28 9 24 59 -2 27 -38
63 -57 56 -15 -5 -28 17 -36 60 -5 29 -5 30 36 31 26 0 46 -5 53 -15z m-126
-1 c0 -5 -9 -10 -20 -10 -11 0 -20 5 -20 10 0 6 9 10 20 10 11 0 20 -4 20 -10z
m-870 -15 c0 -10 10 -15 31 -15 18 0 28 -4 24 -10 -4 -6 -10 -8 -15 -5 -4 3
-13 -2 -20 -10 -7 -8 -18 -15 -25 -15 -8 0 -15 -3 -18 -7 -2 -5 -2 -2 0 5 1 8
3 27 3 43 0 16 5 29 10 29 6 0 10 -7 10 -15z m100 1 c0 -3 -4 -8 -10 -11 -5
-3 -10 -1 -10 4 0 6 5 11 10 11 6 0 10 -2 10 -4z m660 -88 c0 -5 9 -8 20 -8
11 0 20 -7 20 -15 0 -8 7 -15 15 -15 8 0 15 -4 15 -9 0 -17 -27 -31 -73 -35
-75 -7 -111 43 -70 98 16 22 19 22 45 7 15 -9 28 -19 28 -23z m572 -6 c-15 -2
-22 -10 -22 -27 0 -28 -9 -55 -19 -55 -3 0 -6 19 -6 42 0 32 5 44 18 46 9 2
17 8 17 14 0 6 7 5 17 -3 15 -13 14 -14 -5 -17z m-99 -16 c20 -15 23 -27 5
-22 -7 3 -25 7 -40 10 -16 4 -28 11 -28 16 0 14 42 12 63 -4z m547 4 c0 -5 -5
-10 -11 -10 -5 0 -7 5 -4 10 3 6 8 10 11 10 2 0 4 -4 4 -10z m-70 -21 c0 -5
-9 -9 -20 -9 -13 0 -18 5 -14 14 6 15 34 11 34 -5z m-730 1 c0 -5 -2 -10 -4
-10 -3 0 -8 5 -11 10 -3 6 -1 10 4 10 6 0 11 -4 11 -10z m-65 -40 c3 -5 3 -26
-1 -45 -7 -37 -30 -55 -88 -69 l-29 -7 27 31 c14 17 26 42 26 55 0 33 50 60
65 35z m605 0 c0 -5 -4 -10 -10 -10 -5 0 -10 5 -10 10 0 6 5 10 10 10 6 0 10
-4 10 -10z m300 0 c0 -5 -9 -10 -20 -10 -11 0 -20 5 -20 10 0 6 9 10 20 10 11
0 20 -4 20 -10z m-1165 -32 c1 -47 60 -90 80 -58 4 6 16 3 31 -7 18 -11 22
-19 14 -27 -8 -8 -13 -7 -20 4 -6 9 -13 11 -17 5 -5 -5 -22 -15 -40 -21 -28
-10 -33 -10 -38 5 -3 9 -18 24 -35 33 -26 15 -30 23 -30 58 0 39 1 41 28 38
22 -2 27 -8 27 -30z m39 -4 c3 -8 2 -12 -4 -9 -6 3 -10 10 -10 16 0 14 7 11
14 -7z m126 2 c0 -8 -7 -17 -16 -20 -16 -6 -60 12 -50 21 3 3 12 1 19 -6 11
-9 17 -8 27 4 15 19 20 19 20 1z m554 -54 c-5 -4 -10 -11 -10 -17 -1 -5 -5
-20 -9 -33 -5 -19 -3 -23 11 -20 9 2 18 -1 19 -7 1 -5 0 -7 -3 -2 -2 4 -8 4
-13 1 -6 -3 -5 -11 2 -20 6 -8 9 -17 6 -20 -3 -3 -20 11 -38 31 -28 31 -33 44
-30 78 4 56 28 73 54 40 11 -14 16 -28 11 -31z m-798 -27 c33 -16 41 -24 41
-47 0 -28 -20 -38 -32 -18 -5 8 -12 7 -22 -2 -12 -10 -18 -9 -29 7 -8 10 -14
28 -14 38 0 16 -3 17 -14 7 -8 -6 -12 -18 -9 -26 3 -8 -3 -21 -12 -28 -27 -19
-12 -48 22 -44 l28 3 -1 -82 c-1 -65 2 -83 13 -83 7 0 16 14 20 30 6 30 17 38
28 20 3 -5 34 -10 67 -10 50 0 66 -4 85 -22 13 -12 23 -26 23 -32 0 -6 -5 -5
-12 2 -17 17 -80 15 -127 -4 -28 -11 -45 -13 -57 -6 -11 6 -27 7 -42 1 -19 -7
-27 -5 -38 8 -18 25 -18 44 2 36 12 -5 15 0 12 23 -2 23 -8 30 -31 32 -27 3
-50 36 -46 66 3 24 -2 36 -20 53 -19 17 -19 19 -2 40 10 12 36 26 59 32 23 7
44 16 47 22 4 5 10 8 13 6 4 -2 25 -12 48 -22z m872 -33 c2 -7 -2 -10 -12 -6
-9 3 -16 11 -16 16 0 13 23 5 28 -10z m-596 -14 c-7 -7 -12 -8 -12 -2 0 6 3
14 7 17 3 4 9 5 12 2 2 -3 -1 -11 -7 -17z m358 2 c0 -5 -5 -10 -11 -10 -5 0
-7 5 -4 10 3 6 8 10 11 10 2 0 4 -4 4 -10z m-1315 -11 c7 -11 -42 -89 -56 -89
-28 0 -20 86 9 93 30 8 41 7 47 -4z m1510 -79 c30 0 66 5 82 12 40 16 102 16
108 -1 3 -8 -1 -23 -8 -35 -13 -19 -20 -21 -93 -15 -106 9 -163 25 -192 54
-28 29 -42 32 -42 10 0 -11 -7 -14 -25 -9 -15 4 -32 1 -40 -6 -12 -10 -15 -10
-15 3 0 20 38 47 67 47 12 0 25 5 29 11 4 8 19 -3 41 -30 33 -39 38 -41 88
-41z m313 36 c3 -13 -1 -17 -14 -14 -11 2 -20 11 -22 22 -3 13 1 17 14 14 11
-2 20 -11 22 -22z m-1328 -11 c0 -8 -6 -15 -14 -15 -17 0 -28 14 -19 24 12 12
33 6 33 -9z m350 5 c0 -5 -11 -10 -25 -10 -14 0 -25 5 -25 10 0 6 11 10 25 10
14 0 25 -4 25 -10z m-410 -9 c0 -5 -7 -11 -15 -15 -15 -5 -20 5 -8 17 9 10 23
9 23 -2z m694 -34 c22 -7 41 -18 43 -24 3 -7 -14 -24 -36 -38 l-40 -27 -24 26
c-14 15 -35 26 -51 26 -29 0 -31 3 -16 31 12 22 62 25 124 6z m106 -12 c0 -8
-4 -15 -10 -15 -5 0 -10 7 -10 15 0 8 5 15 10 15 6 0 10 -7 10 -15z m-736 -12
c24 -13 34 -24 33 -38 -1 -12 3 -19 11 -17 9 1 11 -5 6 -23 -3 -14 -2 -25 4
-25 5 0 15 -14 21 -31 l10 -30 93 5 c138 9 198 10 205 2 12 -12 -2 -14 -102
-19 -122 -6 -165 -15 -165 -33 0 -8 5 -14 11 -14 6 0 29 -19 52 -42 34 -36 42
-40 45 -25 2 10 -2 24 -10 30 -8 7 -20 20 -27 30 -13 17 2 17 333 17 190 -1
351 2 357 6 15 9 31 -17 22 -36 -4 -8 -6 -48 -4 -88 1 -41 -2 -95 -8 -120 -5
-26 -13 -87 -16 -135 -6 -71 -10 -87 -21 -83 -8 3 -134 6 -279 6 l-265 1 0 22
c-1 12 -8 40 -16 62 -10 29 -14 80 -14 183 1 113 -2 143 -12 140 -10 -4 -13
-33 -13 -109 0 -97 -1 -104 -20 -107 -12 -2 -26 -12 -33 -22 -11 -18 -9 -20
13 -20 14 0 25 -5 25 -11 0 -6 -14 -9 -32 -7 -27 2 -33 7 -31 26 2 14 -3 22
-13 22 -8 0 -31 12 -50 27 -32 24 -35 29 -29 65 7 37 6 38 -24 38 -25 0 -34
-6 -43 -27 l-12 -28 -4 38 c-2 24 -8 37 -18 37 -8 0 -14 -7 -14 -15 0 -9 -9
-15 -24 -15 -21 0 -23 4 -22 39 1 37 2 39 26 35 32 -7 91 49 72 68 -9 9 -15 8
-27 -8 -13 -17 -14 -17 -15 -1 0 9 5 17 10 17 18 0 10 28 -9 35 -11 3 -26 17
-35 30 -9 14 -24 25 -33 25 -14 0 -14 2 2 20 10 11 25 20 33 20 9 0 12 6 8 16
-3 9 -6 24 -6 35 0 17 -30 29 -30 12 0 -5 -10 -19 -21 -33 l-20 -25 7 35 c3
19 11 41 16 48 15 17 61 15 102 -5z m915 -2 c9 -6 11 -16 7 -27 -5 -12 -9 -15
-14 -7 -4 6 -20 15 -35 18 -15 4 -27 11 -27 16 0 12 51 11 69 0z m-381 -59
c15 -10 35 -22 44 -25 14 -5 16 -13 12 -37 -5 -24 -3 -30 11 -30 13 0 16 6 13
25 -4 20 1 30 26 47 17 12 33 26 34 30 5 12 36 10 50 -4 7 -7 12 -28 12 -47 0
-59 11 -66 83 -63 47 3 66 0 69 -10 4 -10 -12 -12 -86 -6 -50 3 -161 7 -247 7
l-157 1 5 48 c3 26 12 54 19 62 20 23 80 24 112 2z m312 3 c14 -16 10 -18 -14
-9 -9 3 -16 10 -16 15 0 14 16 11 30 -6z m320 -35 c5 0 11 4 15 10 3 5 12 7
19 4 8 -3 16 4 19 15 5 19 13 21 86 21 51 0 81 -4 81 -11 0 -5 -8 -9 -18 -7
-11 2 -21 -1 -23 -7 -2 -5 6 -11 19 -13 12 -2 22 -7 22 -12 0 -12 -153 -17
-162 -5 -5 6 -12 5 -17 -5 -7 -10 -5 -20 5 -31 8 -9 14 -20 13 -25 -2 -10 6
-35 24 -71 6 -13 8 -24 6 -26 -20 -14 -88 -40 -106 -41 -21 -2 -22 1 -16 59 7
75 7 76 -2 98 -6 13 -2 17 16 17 18 0 20 3 11 12 -7 7 -11 26 -11 43 2 30 2
30 6 3 2 -16 8 -28 13 -28z m-787 25 c-3 -9 -8 -14 -10 -11 -3 3 -2 9 2 15 9
16 15 13 8 -4z m487 -45 c0 -5 -7 -10 -15 -10 -8 0 -15 5 -15 10 0 6 7 10 15
10 8 0 15 -4 15 -10z m-900 -90 c0 -5 -8 -10 -17 -10 -9 0 -25 -7 -35 -17 -15
-14 -18 -14 -18 -1 0 8 15 20 33 26 17 5 33 10 35 11 1 1 2 -3 2 -9z m-79
-256 c14 -12 42 -17 108 -19 67 -2 94 -6 106 -19 9 -9 23 -16 31 -16 8 0 14
-4 14 -9 0 -14 -84 -21 -123 -10 -19 5 -39 9 -44 8 -4 -1 -10 -1 -13 0 -3 2
-21 4 -40 7 -19 2 -38 11 -43 19 -4 9 -12 13 -18 10 -5 -4 -9 5 -9 19 0 30 7
32 31 10z m239 -178 c0 -8 11 -17 25 -20 26 -7 35 -26 13 -26 -8 -1 -5 -7 6
-15 18 -14 18 -15 -1 -39 l-20 -24 -17 30 c-12 19 -22 26 -28 20 -6 -6 -22 -6
-46 0 -42 11 -65 28 -40 28 9 0 20 -4 23 -10 3 -5 16 -9 28 -9 17 1 18 2 5 6
-24 6 -23 13 10 44 31 31 42 35 42 15z m-210 -136 c0 -5 -7 -7 -15 -4 -8 4
-15 8 -15 10 0 2 7 4 15 4 8 0 15 -4 15 -10z m975 -80 c3 -5 2 -10 -4 -10 -5
0 -13 5 -16 10 -3 6 -2 10 4 10 5 0 13 -4 16 -10z"/>
<path d="M2589 1488 c-1 -1 -2 -18 -4 -36 -2 -26 1 -32 13 -30 19 4 22 60 4
66 -7 2 -12 2 -13 0z"/>
<path d="M2606 1347 c-17 -13 -15 -15 23 -35 51 -27 50 -27 48 -2 -1 11 -7 20
-13 20 -7 0 -14 7 -18 15 -7 18 -17 19 -40 2z"/>
<path d="M2528 1322 c-30 -18 -42 -38 -32 -54 8 -12 50 27 57 53 3 10 4 19 4
18 -1 0 -14 -8 -29 -17z"/>
<path d="M2590 1255 c0 -10 10 -15 28 -15 26 1 26 1 8 15 -25 19 -36 19 -36 0z"/>
<path d="M1558 1573 c7 -3 16 -2 19 1 4 3 -2 6 -13 5 -11 0 -14 -3 -6 -6z"/>
<path d="M1930 1054 c0 -11 54 -54 67 -54 21 0 23 16 4 32 -19 16 -71 32 -71
22z"/>
<path d="M1990 870 c-21 -16 -22 -20 -7 -20 23 0 57 18 57 30 0 16 -23 11 -50
-10z"/>
<path d="M2154 776 c-8 -22 3 -33 18 -18 9 9 9 15 0 24 -9 9 -13 7 -18 -6z"/>
<path d="M1780 2550 c0 -19 31 -23 48 -6 15 15 14 16 -16 16 -18 0 -32 -5 -32
-10z"/>
<path d="M1872 2498 c-6 -35 -13 -97 -14 -138 -3 -70 -2 -75 18 -78 21 -3 22
0 18 85 -3 75 -2 83 7 53 6 -19 13 -59 16 -87 4 -44 8 -53 24 -53 17 0 19 5
13 58 -3 31 -8 64 -12 72 -5 15 -7 26 -10 108 -2 37 -5 42 -25 42 -21 0 -25
-7 -35 -62z"/>
<path d="M2230 2550 c0 -14 32 -50 45 -50 11 0 65 44 65 54 0 13 -38 5 -44
-10 -3 -8 -11 -12 -17 -8 -8 4 -7 9 2 15 10 6 4 9 -18 9 -18 0 -33 -4 -33 -10z"/>
<path d="M2525 2553 c6 -9 -41 -49 -52 -45 -14 5 -16 -7 -7 -32 8 -20 44 -21
44 -1 0 9 7 27 16 41 11 16 13 28 7 33 -6 5 -9 7 -8 4z"/>
<path d="M2560 2539 c0 -10 12 -26 26 -35 22 -15 27 -15 35 -3 15 24 10 34
-26 45 -31 10 -35 9 -35 -7z"/>
<path d="M2758 2553 c7 -3 16 -2 19 1 4 3 -2 6 -13 5 -11 0 -14 -3 -6 -6z"/>
<path d="M2897 2535 c19 -26 43 -29 51 -7 2 6 -4 12 -15 12 -15 0 -16 2 -3 10
11 7 7 10 -18 10 l-33 0 18 -25z"/>
<path d="M2950 2556 c0 -2 7 -6 15 -10 8 -3 15 -1 15 4 0 6 -7 10 -15 10 -8 0
-15 -2 -15 -4z"/>
<path d="M3158 2553 c7 -3 16 -2 19 1 4 3 -2 6 -13 5 -11 0 -14 -3 -6 -6z"/>
<path d="M1408 2538 c-3 -7 -1 -26 3 -42 5 -16 6 -62 2 -102 -6 -77 0 -115 18
-97 5 5 10 55 11 110 1 76 -2 105 -14 122 -11 16 -17 18 -20 9z"/>
<path d="M1483 2491 c1 -25 6 -41 14 -41 18 0 23 14 15 45 -13 46 -31 43 -29
-4z"/>
<path d="M3432 2440 c0 -14 2 -19 5 -12 2 6 2 18 0 25 -3 6 -5 1 -5 -13z"/>
<path d="M1460 2331 c0 -40 14 -61 31 -44 10 10 -10 83 -23 83 -4 0 -8 -18 -8
-39z"/>
<path d="M1160 2314 c0 -8 -13 -20 -30 -25 -16 -6 -30 -18 -30 -26 0 -10 6
-13 16 -9 9 3 22 6 29 6 20 0 45 28 45 51 0 10 -7 19 -15 19 -8 0 -15 -7 -15
-16z"/>
<path d="M867 2295 c-24 -17 -18 -50 8 -50 15 0 21 8 23 33 4 35 -3 39 -31 17z"/>
<path d="M1774 2299 c-8 -13 3 -24 34 -34 15 -4 22 -2 22 7 0 30 -41 50 -56
27z"/>
<path d="M1760 2260 c0 -5 5 -10 10 -10 6 0 10 5 10 10 0 6 -4 10 -10 10 -5 0
-10 -4 -10 -10z"/>
<path d="M1693 2203 c-18 -7 -16 -20 3 -27 17 -6 44 9 44 25 0 10 -27 11 -47
2z"/>
<path d="M1800 2200 c0 -5 9 -10 19 -10 11 0 23 5 26 10 4 6 -5 10 -19 10 -14
0 -26 -4 -26 -10z"/>
<path d="M1349 2158 c-5 -15 -6 -57 -2 -71 4 -14 8 -16 19 -6 10 8 11 16 3 30
-7 15 -6 19 6 19 20 0 19 16 -1 24 -17 6 -24 7 -25 4z"/>
<path d="M2115 1880 c-3 -5 -15 -10 -25 -10 -24 0 -29 -9 -34 -58 -3 -34 -1
-41 17 -46 22 -5 47 9 47 26 0 6 -6 8 -14 5 -8 -3 -20 1 -26 8 -10 12 -9 16 4
21 9 3 23 1 30 -5 9 -8 16 -9 20 -2 4 6 19 8 34 5 23 -5 30 -1 40 20 10 22 9
27 -8 36 -24 13 -77 13 -85 0z m65 -19 c0 -6 -4 -13 -10 -16 -5 -3 -10 1 -10
9 0 9 5 16 10 16 6 0 10 -4 10 -9z"/>
<path d="M1912 1723 c-5 -10 -12 -35 -15 -56 -3 -21 -16 -59 -27 -83 -12 -24
-19 -52 -16 -60 10 -27 33 1 41 49 4 23 10 47 14 52 6 10 30 93 31 108 0 14
-19 7 -28 -10z"/>
<path d="M0 1505 c0 -8 2 -15 4 -15 2 0 6 7 10 15 3 8 1 15 -4 15 -6 0 -10 -7
-10 -15z"/>
<path d="M1322 1428 c-6 -8 -16 -35 -22 -59 -5 -24 -22 -89 -38 -144 -21 -70
-27 -108 -22 -127 5 -15 6 -45 3 -67 -4 -32 -2 -41 9 -41 18 0 33 97 18 116
-11 12 -5 39 45 208 28 93 31 142 7 114z"/>
<path d="M1777 1414 c-4 -4 -7 -23 -7 -41 0 -42 23 -41 28 1 4 29 -9 52 -21
40z"/>
<path d="M7 1383 c-4 -3 -7 -15 -7 -26 0 -15 3 -17 13 -8 11 8 19 5 34 -12 43
-47 48 -80 28 -208 -3 -22 1 -29 25 -39 35 -15 37 -24 10 -68 l-20 -32 27 -11
c32 -12 53 2 34 25 -16 20 10 61 47 74 22 7 31 5 48 -12 12 -12 24 -29 27 -38
9 -25 37 -23 37 3 0 18 -22 43 -93 105 -12 10 -17 25 -14 40 3 17 0 24 -10 24
-15 0 -14 36 3 104 l7 29 -53 -5 c-51 -5 -53 -4 -72 28 -19 32 -53 45 -71 27z
m100 -245 c-3 -8 -6 -5 -6 6 -1 11 2 17 5 13 3 -3 4 -12 1 -19z"/>
<path d="M325 1340 c4 -6 11 -8 16 -5 14 9 11 15 -7 15 -8 0 -12 -5 -9 -10z"/>
<path d="M1733 1303 c-18 -7 -16 -43 2 -43 8 0 15 5 15 10 0 20 17 10 30 -17
11 -26 13 -26 19 -9 4 11 6 30 3 43 -3 17 -11 23 -31 22 -14 0 -32 -3 -38 -6z"/>
<path d="M260 1166 c0 -18 6 -39 14 -45 22 -19 103 -22 117 -5 6 8 17 14 24
14 13 0 25 21 25 46 0 24 -18 15 -28 -15 -9 -27 -13 -28 -59 -26 -26 1 -51 3
-55 4 -5 0 -8 15 -8 31 0 20 -5 30 -15 30 -10 0 -15 -10 -15 -34z"/>
<path d="M0 1141 c0 -23 27 -54 43 -48 22 7 17 26 -13 47 -29 21 -30 21 -30 1z"/>
<path d="M3431 1084 c0 -11 3 -14 6 -6 3 7 2 16 -1 19 -3 4 -6 -2 -5 -13z"/>
<path d="M862 1033 c2 -10 8 -18 13 -18 5 0 11 8 13 18 2 10 -3 17 -13 17 -10
0 -15 -7 -13 -17z"/>
<path d="M800 997 c0 -19 17 -25 58 -20 36 6 44 21 10 21 -13 0 -33 3 -45 7
-17 5 -23 3 -23 -8z"/>
<path d="M943 1003 c-18 -6 -16 -23 1 -23 17 0 30 16 19 23 -5 2 -14 2 -20 0z"/>
<path d="M1020 473 c-24 -5 -40 -19 -40 -36 0 -4 17 -5 38 -2 20 3 66 7 101 9
36 1 66 7 68 13 7 19 -97 29 -167 16z"/>
<path d="M1208 469 c-6 -4 -7 -12 -3 -19 5 -7 25 -10 59 -6 28 3 68 5 89 6 27
0 37 4 37 16 0 13 -13 15 -86 12 -47 -2 -90 -6 -96 -9z"/>
<path d="M195 453 c-138 -3 -175 -8 -175 -23 0 -5 111 -8 275 -7 151 1 275 -1
275 -4 0 -14 -52 -19 -210 -19 -164 0 -227 -10 -160 -25 34 -8 742 3 773 11 9
3 17 12 17 20 0 11 -20 14 -97 16 l-98 2 85 5 c52 4 83 10 80 16 -5 10 -448
14 -765 8z m422 -29 c-3 -3 -12 -4 -19 -1 -8 3 -5 6 6 6 11 1 17 -2 13 -5z"/>
<path d="M2082 250 c-28 -23 -20 -44 11 -34 12 4 38 6 58 5 25 -1 38 3 42 13
13 33 -75 45 -111 16z"/>
<path d="M753 183 c9 -2 25 -2 35 0 9 3 1 5 -18 5 -19 0 -27 -2 -17 -5z"/>
<path d="M638 102 c-21 -10 -38 -21 -38 -25 0 -5 6 -6 13 -3 6 2 31 10 55 17
23 6 42 15 42 20 0 13 -30 9 -72 -9z"/>
</g>
</svg>
