<?xml version="1.0" standalone="no"?>
<!DOCTYPE svg PUBLIC "-//W3C//DTD SVG 20010904//EN"
 "http://www.w3.org/TR/2001/REC-SVG-20010904/DTD/svg10.dtd">
<svg version="1.0" xmlns="http://www.w3.org/2000/svg"
 width="344.000000pt" height="256.000000pt" viewBox="0 0 344.000000 256.000000"
 preserveAspectRatio="xMidYMid meet">
<metadata>
Created by potrace 1.16, written by Peter Selinger 2001-2019
</metadata>
<g transform="translate(0.000000,256.000000) scale(0.100000,-0.100000)"
fill="#000000" stroke="none">
<path d="M2032 2555 c4 -4 35 -8 70 -10 57 -3 113 -18 175 -47 12 -6 34 -9 50
-6 17 2 35 -2 42 -9 20 -22 38 -15 45 19 l6 31 23 -19 c12 -11 33 -25 47 -32
26 -12 104 -11 116 1 4 4 12 0 18 -9 6 -8 24 -16 39 -18 15 -1 35 -9 44 -18
35 -29 93 -42 240 -51 17 -1 40 -10 50 -20 23 -20 83 -23 83 -4 0 8 -18 19
-39 26 -37 11 -38 13 -28 36 7 14 20 25 30 25 11 0 17 8 17 25 0 14 -2 25 -4
25 -16 0 -60 -33 -70 -52 -16 -32 -79 -34 -84 -2 -2 17 4 23 27 27 17 4 32 14
36 26 5 16 12 19 35 14 22 -4 31 -1 36 11 3 9 14 16 24 16 11 0 22 5 25 10 4
6 -38 10 -119 10 -118 0 -125 -1 -131 -21 -10 -31 8 -43 30 -19 19 21 65 28
65 10 0 -6 -11 -15 -24 -20 -13 -5 -27 -14 -31 -19 -3 -6 -19 -11 -36 -11 -24
0 -29 4 -29 24 0 13 -6 27 -12 29 -10 4 -9 8 2 16 12 8 8 11 -18 11 -29 0 -32
-2 -22 -19 12 -24 13 -51 0 -71 -7 -12 -12 -12 -29 4 -12 11 -21 27 -21 37 0
10 -8 23 -17 29 -15 9 -12 10 15 7 17 -2 32 0 32 5 0 4 -26 8 -57 8 -36 0 -53
-4 -44 -9 22 -14 -3 -22 -75 -25 -48 -1 -73 3 -94 16 -37 22 -127 23 -109 1
16 -18 10 -22 -24 -16 -22 4 -25 8 -16 19 9 11 8 14 -4 14 -9 0 -19 -4 -22
-10 -3 -5 -11 -10 -16 -10 -6 0 -8 3 -6 8 3 4 -52 9 -121 10 -70 2 -124 1
-120 -3z m774 -112 c-3 -3 -13 -2 -23 2 -17 7 -17 8 2 15 19 7 34 -5 21 -17z"/>
<path d="M2550 2549 c0 -5 5 -7 10 -4 6 3 10 8 10 11 0 2 -4 4 -10 4 -5 0 -10
-5 -10 -11z"/>
<path d="M3138 2542 c30 -15 34 -15 49 1 16 16 14 17 -32 16 l-50 0 33 -17z"/>
<path d="M3325 2550 c3 -5 12 -10 20 -10 8 0 17 5 20 10 4 6 -5 10 -20 10 -15
0 -24 -4 -20 -10z"/>
<path d="M3251 2513 c-8 -15 -12 -16 -35 -3 -33 17 -42 8 -21 -23 31 -48 85
-36 85 19 0 28 -15 32 -29 7z"/>
<path d="M3079 2508 c-1 -7 -3 -20 -4 -28 0 -8 -5 -23 -9 -33 -13 -27 6 -40
32 -21 24 16 28 44 12 75 -12 22 -29 25 -31 7z"/>
<path d="M3337 2473 c-12 -11 -8 -41 7 -46 21 -8 37 13 25 35 -10 19 -21 23
-32 11z"/>
<path d="M3432 2410 c0 -14 2 -19 5 -12 2 6 2 18 0 25 -3 6 -5 1 -5 -13z"/>
<path d="M300 2406 c0 -15 45 -56 61 -56 18 0 8 29 -17 49 -31 25 -44 26 -44
7z"/>
<path d="M520 2392 c0 -19 18 -42 32 -42 12 0 9 35 -4 48 -17 17 -28 15 -28
-6z"/>
<path d="M402 2373 c2 -10 14 -20 27 -21 19 -3 22 0 17 13 -3 9 -6 19 -6 21 0
2 -9 4 -21 4 -14 0 -19 -5 -17 -17z"/>
<path d="M2209 2359 c-15 -15 -24 -18 -28 -10 -14 22 -77 -15 -96 -55 -17 -36
-17 -38 0 -50 23 -17 125 -47 133 -39 10 9 -13 25 -63 43 -27 10 -51 24 -53
31 -3 10 0 12 12 8 10 -4 19 -1 22 8 4 8 14 15 24 15 13 0 16 -6 13 -23 -4
-18 2 -26 22 -35 33 -15 42 -10 47 28 4 24 1 30 -15 30 -10 0 -17 5 -15 13 3
7 26 13 54 15 l49 3 -23 -24 c-26 -27 -32 -57 -7 -37 19 15 65 5 65 -15 0 -8
7 -15 15 -15 19 0 19 17 1 52 -17 32 -8 41 29 32 19 -5 25 -2 25 10 0 21 -7
23 -108 30 -75 5 -85 3 -103 -15z"/>
<path d="M2570 2370 c-8 -5 -39 -12 -68 -16 -47 -6 -54 -10 -67 -38 -7 -17
-14 -25 -14 -18 -1 6 -8 12 -16 12 -16 0 -20 -27 -6 -49 12 -19 51 3 51 29 0
16 7 20 33 20 17 0 51 7 75 15 40 14 44 14 64 -5 12 -11 25 -20 30 -20 4 0 8
-7 8 -15 0 -27 28 -16 39 15 11 32 34 42 29 13 -2 -13 4 -18 22 -18 18 0 26 6
28 23 3 19 9 22 49 22 33 0 49 -5 61 -20 10 -11 40 -29 67 -39 35 -13 51 -25
53 -40 5 -30 22 -26 22 5 0 25 2 26 43 20 129 -18 157 -19 157 -2 0 12 -10 16
-37 16 -21 1 -55 7 -77 15 -21 7 -52 11 -70 8 -18 -3 -43 2 -61 11 -16 9 -35
16 -41 16 -6 0 -24 12 -39 26 -27 25 -29 25 -96 14 -37 -6 -77 -9 -88 -5 -14
4 -21 0 -26 -15 -8 -26 -19 -25 -59 5 -36 27 -44 29 -66 15z"/>
<path d="M3112 2363 c2 -10 14 -19 28 -21 14 -2 35 -13 48 -25 l22 -20 0 26
c0 19 -8 30 -32 41 -42 22 -70 21 -66 -1z"/>
<path d="M881 2347 c-6 -6 -11 -17 -11 -25 0 -19 44 -11 48 9 4 20 -22 31 -37
16z"/>
<path d="M830 2316 c0 -9 5 -16 10 -16 6 0 10 4 10 9 0 6 -4 13 -10 16 -5 3
-10 -1 -10 -9z"/>
<path d="M1563 2317 c-13 -5 -23 -14 -23 -20 0 -10 50 -1 63 12 14 13 -16 19
-40 8z"/>
<path d="M3234 2319 c-3 -6 -1 -16 5 -22 8 -8 11 -5 11 11 0 24 -5 28 -16 11z"/>
<path d="M103 2313 c-7 -2 -13 -13 -13 -24 0 -16 5 -18 28 -13 34 9 36 10 29
29 -6 15 -21 18 -44 8z"/>
<path d="M3429 2293 c-3 -79 0 -236 5 -241 3 -3 6 56 6 131 0 76 -2 137 -5
137 -3 0 -5 -12 -6 -27z"/>
<path d="M3282 2288 c-17 -17 -15 -38 3 -38 9 0 15 9 15 25 0 29 -1 30 -18 13z"/>
<path d="M710 2275 c-11 -13 -8 -15 14 -15 15 0 29 -7 32 -15 8 -19 34 -20 34
0 0 8 -13 21 -30 30 -36 18 -35 18 -50 0z"/>
<path d="M1715 2279 c-8 -12 33 -59 52 -59 18 0 16 7 -8 41 -22 31 -34 36 -44
18z"/>
<path d="M2540 2283 c-8 -3 -23 -14 -34 -25 -11 -10 -28 -18 -38 -18 -10 0
-18 -7 -18 -16 0 -12 6 -15 23 -10 12 3 28 6 35 6 6 0 12 9 12 20 0 11 4 20 8
20 5 0 17 7 28 15 19 14 12 18 -16 8z"/>
<path d="M1990 2270 c0 -5 9 -10 20 -10 11 0 20 5 20 10 0 6 -9 10 -20 10 -11
0 -20 -4 -20 -10z"/>
<path d="M2612 2273 c-21 -4 -69 -57 -65 -71 1 -4 16 -10 33 -13 30 -7 43 12
19 27 -7 4 1 17 21 35 17 16 28 28 23 28 -4 -1 -18 -4 -31 -6z"/>
<path d="M1537 2264 c-8 -8 1 -24 14 -24 5 0 9 7 9 15 0 15 -12 20 -23 9z"/>
<path d="M827 2254 c-14 -14 -7 -35 11 -32 9 2 17 10 17 17 0 16 -18 25 -28
15z"/>
<path d="M1930 2245 c0 -8 7 -15 15 -15 8 0 15 7 15 15 0 8 -7 15 -15 15 -8 0
-15 -7 -15 -15z"/>
<path d="M3323 2244 c-8 -21 13 -42 28 -27 13 13 5 43 -11 43 -6 0 -13 -7 -17
-16z"/>
<path d="M2270 2230 c0 -5 7 -10 15 -10 8 0 15 5 15 10 0 6 -7 10 -15 10 -8 0
-15 -4 -15 -10z"/>
<path d="M892 2218 c-24 -24 -14 -41 21 -35 17 2 40 0 50 -5 13 -7 17 -5 17
12 0 15 -7 20 -24 20 -14 0 -28 5 -31 10 -8 13 -18 13 -33 -2z"/>
<path d="M3 2175 c6 -39 40 -85 53 -72 8 7 -34 94 -49 104 -6 4 -8 -9 -4 -32z"/>
<path d="M1802 2194 c4 -22 45 -31 61 -15 14 14 8 19 -32 27 -29 6 -33 4 -29
-12z"/>
<path d="M1000 2191 c0 -15 46 -61 53 -54 12 11 8 31 -9 47 -17 18 -44 21 -44
7z"/>
<path d="M2805 2175 c3 -16 8 -38 11 -47 4 -14 -1 -18 -25 -18 -31 0 -90 -43
-73 -54 6 -3 26 1 46 9 19 8 51 15 71 15 39 0 50 24 15 33 -13 3 -20 14 -20
29 0 13 -7 33 -16 44 -15 18 -15 18 -9 -11z"/>
<path d="M2396 2164 c-9 -8 -14 -19 -11 -24 8 -12 45 0 45 16 0 21 -17 25 -34
8z"/>
<path d="M2325 2160 c-11 -17 5 -32 21 -19 8 6 14 15 14 20 0 12 -27 11 -35
-1z"/>
<path d="M2572 2158 c-7 -7 -12 -20 -12 -29 0 -25 -45 -50 -77 -44 -26 6 -26
5 -10 -8 9 -8 17 -16 17 -19 0 -14 -141 -41 -220 -42 -36 -1 -45 -5 -48 -21
-5 -27 -21 -45 -39 -45 -12 0 -12 3 1 22 20 28 20 38 1 38 -16 0 -65 -46 -65
-61 0 -5 7 -6 16 -2 12 4 15 2 12 -8 -3 -8 -14 -12 -24 -10 -10 1 -39 4 -64 5
-41 1 -45 -1 -44 -21 0 -13 -1 -23 -3 -23 -2 0 -19 10 -38 23 -24 15 -34 28
-31 39 6 26 -9 30 -28 9 -17 -18 -17 -20 3 -31 12 -6 21 -15 21 -20 0 -6 15
-23 33 -40 22 -20 39 -27 55 -23 29 7 28 -4 -3 -33 -27 -25 -50 -23 -75 6 -8
10 -30 21 -47 25 -27 5 -33 3 -33 -10 0 -8 7 -18 15 -21 8 -4 15 -11 15 -17 0
-5 -9 -2 -20 8 -11 10 -20 26 -20 35 0 33 -52 56 -64 28 -3 -10 -8 -9 -18 3
-7 9 -27 18 -45 22 -30 6 -32 5 -38 -33 -6 -38 -19 -52 -27 -29 -2 7 -17 8
-41 4 -31 -6 -39 -12 -44 -36 -3 -16 -12 -29 -19 -29 -8 0 -14 -4 -14 -9 0 -5
-8 -11 -17 -15 -56 -18 -78 -47 -53 -67 10 -9 16 -19 13 -23 -3 -3 -12 -1 -19
5 -39 32 -149 -81 -200 -206 -27 -66 -28 -78 -27 -207 1 -76 -2 -138 -6 -138
-4 0 -12 5 -19 12 -7 7 -40 11 -83 10 -56 -1 -76 -5 -93 -20 -37 -34 -63 -36
-97 -8 -17 14 -37 26 -46 26 -8 0 -26 9 -40 20 -14 11 -32 20 -40 20 -17 0
-33 -42 -26 -69 l6 -22 -39 19 c-22 10 -58 27 -81 38 l-42 19 72 13 c137 24
212 26 267 8 32 -11 57 -13 68 -8 9 5 45 8 80 6 34 -1 62 1 62 5 0 30 -63 40
-131 21 -28 -8 -45 -7 -72 5 -19 8 -61 18 -91 21 -45 5 -56 10 -56 25 0 18
-27 39 -49 39 -21 0 -11 -41 11 -49 20 -7 19 -9 -13 -20 -19 -7 -63 -15 -99
-18 -87 -8 -120 -27 -120 -71 0 -60 33 -101 108 -133 24 -11 49 -19 56 -19 6
0 28 -9 49 -19 20 -10 48 -22 61 -25 15 -4 26 -14 28 -29 2 -17 10 -22 34 -23
17 0 48 -10 68 -22 20 -12 41 -22 45 -22 19 0 43 -39 36 -59 -7 -24 -55 -30
-55 -7 0 8 -6 18 -12 23 -14 8 -104 20 -228 29 -86 6 -188 49 -205 85 -5 12
-33 35 -61 51 -49 27 -53 28 -90 14 -98 -35 -204 -64 -289 -76 -65 -9 -115
-36 -115 -61 0 -24 4 -24 38 0 15 11 53 22 87 25 32 4 73 13 89 21 16 8 41 15
56 15 14 0 59 11 98 25 39 14 76 25 82 25 16 0 80 -53 80 -66 0 -16 64 -63
103 -76 18 -6 68 -14 112 -19 89 -8 172 -23 181 -32 11 -11 -39 -29 -70 -24
-35 5 -81 -21 -91 -52 -3 -11 -28 -42 -56 -70 -41 -41 -56 -51 -84 -51 -55 0
-104 -25 -105 -52 0 -5 9 -8 19 -8 10 0 33 -16 50 -35 30 -34 32 -52 9 -82 -6
-7 -15 -60 -21 -118 -12 -120 -12 -121 63 -148 73 -26 126 -35 145 -25 16 9
16 11 -2 22 -10 7 -34 16 -54 19 -20 3 -58 15 -84 27 l-48 22 6 73 c3 40 12
86 20 101 25 48 24 89 -1 123 -12 17 -22 33 -22 36 0 3 18 5 39 5 30 0 44 6
55 22 15 22 16 21 16 -24 0 -61 7 -78 34 -78 27 0 66 -27 66 -46 0 -8 9 -14
20 -14 11 0 20 7 20 15 0 11 10 13 50 8 46 -5 50 -4 59 18 11 31 5 42 -19 29
-23 -12 -108 -2 -138 17 -13 8 -30 12 -37 9 -22 -8 -27 10 -14 56 7 24 13 50
13 58 3 26 15 38 34 34 9 -3 27 5 40 16 18 17 21 25 11 36 -9 11 -7 14 13 14
13 0 46 7 71 16 48 16 80 15 167 -5 25 -5 81 -10 125 -11 80 0 81 0 100 32 27
45 28 171 2 212 -21 31 -32 86 -48 231 -13 121 -7 194 23 273 33 86 98 164 98
117 0 -14 4 -14 32 1 25 13 36 14 50 5 15 -9 26 -9 49 3 16 8 50 18 75 22 26
4 50 14 57 25 13 17 13 17 25 -1 7 -12 18 -16 31 -13 51 13 101 -30 101 -87 0
-12 7 -20 16 -20 36 0 -13 127 -58 151 -11 6 -31 8 -46 4 -22 -5 -24 -4 -13 9
17 21 40 20 63 -1 18 -16 19 -16 25 5 13 50 34 18 53 -78 6 -35 21 -77 32 -92
10 -15 18 -36 17 -45 -4 -22 55 -88 70 -79 6 4 11 0 11 -8 0 -8 8 -20 18 -26
14 -10 14 -11 0 -6 -9 2 -19 2 -22 -1 -7 -7 43 -63 56 -63 15 0 8 75 -8 99
-16 22 -16 24 -1 33 9 5 14 16 11 26 -4 12 0 10 15 -7 15 -17 21 -37 21 -73 0
-40 5 -54 28 -76 l27 -27 3 23 c4 26 11 28 27 5 11 -15 15 -15 41 6 27 22 29
22 37 4 5 -11 18 -25 29 -32 19 -12 23 -11 35 5 7 10 13 39 13 66 0 38 4 50
21 59 14 7 19 17 16 31 -3 11 -2 30 3 42 18 47 35 112 31 121 -2 6 -3 27 -2
47 1 30 -1 36 -14 32 -9 -4 -15 -1 -15 9 0 8 6 17 14 20 7 3 16 22 20 41 6 33
10 36 41 36 49 0 105 -60 105 -113 0 -21 7 -52 16 -68 8 -17 14 -32 12 -34
-12 -13 -58 61 -58 94 0 12 -6 21 -15 21 -8 0 -15 9 -15 20 0 11 -7 20 -15 20
-8 0 -15 7 -15 15 0 8 -9 15 -20 15 -14 0 -21 -9 -26 -36 -7 -38 7 -59 34 -49
15 5 16 -21 1 -31 -15 -9 -4 -92 15 -113 25 -30 26 -50 1 -79 -18 -22 -24 -40
-23 -73 1 -24 6 -50 11 -56 7 -9 5 -13 -6 -13 -8 0 -18 -10 -21 -22 -6 -22 -7
-22 -17 -5 -15 25 -6 90 20 159 25 65 24 101 -1 106 -15 3 -18 -4 -18 -38 0
-46 -23 -110 -40 -110 -6 0 -10 -10 -8 -23 1 -12 -4 -37 -11 -54 -18 -43 -9
-63 29 -63 16 0 30 -4 30 -10 0 -15 26 -12 40 5 7 8 21 15 31 15 13 0 20 10
24 33 17 93 23 120 24 105 1 -23 23 -23 44 0 12 13 17 37 17 77 0 39 3 56 10
49 8 -8 13 -120 9 -199 -1 -11 10 -38 25 -59 14 -21 26 -45 26 -52 0 -17 17
-18 23 -1 3 9 7 9 20 -1 9 -8 21 -11 27 -7 6 4 19 0 28 -8 24 -20 48 -27 59
-16 6 6 20 0 39 -16 16 -14 34 -25 41 -25 7 0 17 -8 22 -19 13 -24 41 -35 55
-21 14 14 46 -17 46 -47 0 -31 33 -63 59 -56 15 4 21 1 21 -11 0 -9 6 -16 14
-16 11 0 14 15 12 65 -1 44 3 66 11 70 7 2 13 -2 13 -9 0 -8 5 -16 11 -18 6
-2 12 -25 14 -51 3 -35 0 -47 -11 -47 -8 0 -14 -4 -14 -10 0 -5 7 -10 15 -10
9 0 18 -6 21 -14 3 -8 23 -21 44 -30 21 -8 41 -20 45 -26 3 -5 15 -10 26 -10
11 0 22 -7 26 -16 9 -25 30 20 39 84 3 29 12 56 19 60 8 4 17 31 21 61 6 49 5
53 -12 49 -14 -2 -20 -13 -22 -41 l-3 -39 -35 36 c-35 36 -35 37 -20 67 12 23
13 41 7 70 -7 30 -6 39 4 39 10 0 12 19 8 83 -4 65 -12 97 -38 154 -24 51 -35
93 -40 148 -6 56 -15 90 -36 128 -30 55 -37 90 -16 81 25 -9 59 -77 68 -137
21 -133 32 -175 53 -201 11 -14 29 -37 40 -52 13 -19 21 -23 26 -13 11 16 2
37 -29 72 -32 35 -38 55 -56 180 -9 57 -21 104 -30 113 -20 21 -19 22 11 16
24 -4 25 -3 15 16 -14 25 -42 42 -70 42 -13 0 -21 6 -21 16 0 13 3 14 15 4 11
-9 18 -8 36 9 13 12 26 21 31 21 4 0 8 7 8 16 0 12 6 15 24 10 27 -7 51 15 43
39 -5 12 -12 12 -37 3 -18 -6 -34 -17 -37 -24 -3 -8 -16 -14 -30 -14 -20 0
-24 4 -18 18 14 30 18 72 7 72 -15 0 -45 -69 -39 -90 5 -21 -26 -54 -60 -65
-19 -5 -23 -2 -23 15 0 11 7 23 15 26 8 4 15 12 15 19 0 8 11 27 25 43 25 30
33 62 15 62 -5 0 -17 -12 -27 -27 -24 -35 -83 -95 -107 -108 -31 -17 -12 -50
43 -74 43 -18 50 -25 59 -64 6 -24 21 -52 32 -62 11 -10 20 -25 20 -34 0 -10
-13 -1 -33 23 -26 30 -38 38 -53 32 -17 -6 -13 -13 34 -58 49 -47 54 -56 59
-105 4 -36 2 -53 -6 -53 -6 0 -12 6 -12 13 -1 6 -3 23 -4 37 -2 15 -22 42 -53
70 -67 60 -93 101 -115 182 l-17 68 27 48 c20 33 33 47 46 44 10 -2 17 3 17
11 0 26 -22 78 -32 75 -6 -2 -20 -27 -32 -56 -11 -28 -31 -64 -44 -79 -51 -61
-49 -107 9 -173 31 -36 69 -101 69 -120 0 -11 33 -88 56 -132 17 -32 18 -49 2
-45 -9 1 -15 -21 -20 -68 -7 -80 -4 -99 23 -126 14 -14 18 -30 16 -69 -4 -58
-13 -73 -23 -36 -3 14 -10 26 -15 26 -5 0 -8 13 -7 28 3 38 -39 122 -67 132
-26 10 -55 61 -55 97 0 35 -21 112 -32 119 -20 13 3 -155 27 -199 16 -28 26
-68 30 -119 5 -47 13 -82 21 -89 25 -20 47 -77 40 -104 -8 -33 -22 -32 -29 4
-3 16 -13 36 -22 44 -8 9 -15 26 -15 40 0 32 -10 40 -26 19 -8 -9 -14 -12 -14
-5 0 6 4 14 9 17 5 3 9 43 9 88 0 72 -4 87 -28 126 -29 46 -48 44 -30 -4 16
-41 4 -41 -21 0 -24 41 -39 46 -39 15 0 -18 -2 -19 -15 -9 -22 18 -28 8 -30
-57 -4 -84 -4 -83 -20 -83 -11 0 -15 11 -15 40 0 22 5 40 11 40 6 0 9 10 7 22
-2 14 -11 22 -26 23 -22 2 -23 -2 -22 -44 3 -63 1 -95 -6 -89 -7 7 -14 67 -17
135 -3 63 -10 72 -32 40 -11 -18 -16 -47 -16 -96 0 -76 -9 -89 -29 -41 -25 61
21 196 63 184 13 -4 19 2 23 26 7 31 7 31 18 8 20 -39 30 -16 30 65 -1 58 3
77 13 77 15 0 16 -7 13 -77 -3 -70 9 -135 23 -130 8 3 11 31 8 89 -2 56 1 88
8 92 6 4 14 -1 17 -11 3 -10 9 -25 13 -33 3 -8 4 -31 1 -50 -7 -45 -1 -70 16
-70 17 0 17 3 3 110 -11 89 -51 183 -73 174 -7 -3 -18 7 -24 21 -11 24 -11 25
16 19 49 -12 75 -31 77 -55 5 -51 30 -129 42 -129 17 0 16 16 -2 76 -17 57
-20 114 -4 114 6 0 9 17 7 43 -2 24 -7 40 -13 37 -5 -3 -9 -15 -8 -27 2 -26
-5 -28 -31 -8 -10 7 -15 18 -12 24 4 6 -4 31 -17 57 -15 29 -27 43 -31 36 -4
-7 -16 -12 -26 -12 -10 0 -28 -14 -41 -31 -15 -21 -25 -27 -32 -20 -7 7 -6 15
2 25 9 11 8 17 -3 29 -9 8 -21 17 -28 19 -10 4 -8 9 4 21 26 27 30 53 13 87
-17 33 -36 41 -28 11 3 -10 0 -22 -6 -25 -6 -4 -11 -17 -11 -29 0 -13 -7 -33
-16 -45 -15 -22 -11 -62 6 -62 5 0 6 -15 3 -33 -4 -26 2 -45 27 -85 31 -50 31
-54 16 -77 -16 -24 -16 -25 9 -25 31 0 56 -22 45 -39 -5 -10 -9 -9 -13 3 -5
11 -20 16 -51 16 l-45 0 6 33 c3 17 10 34 15 35 12 5 10 40 -2 47 -6 4 -22 0
-35 -9 -13 -9 -26 -16 -29 -16 -8 0 -3 101 6 106 11 7 10 84 -1 84 -18 0 2 75
26 102 24 25 24 48 2 48 -6 0 -21 -12 -35 -27 l-24 -28 6 28 c3 15 1 33 -5 41
-8 10 -6 17 9 31 11 10 20 24 20 32 0 16 -22 17 -38 1z m-332 -239 c0 -5 16
-17 36 -25 28 -12 39 -12 50 -3 20 17 33 1 41 -47 6 -38 6 -39 -13 -22 -19 16
-110 68 -120 68 -14 0 0 -32 20 -45 44 -29 80 -95 81 -148 0 -45 -3 -52 -36
-78 l-36 -28 5 93 4 93 -36 36 c-35 35 -47 67 -26 67 6 0 10 11 10 25 0 14 5
25 10 25 6 0 10 -5 10 -11z m315 -6 c13 -33 16 -113 5 -113 -20 0 -29 -44 -12
-62 8 -10 20 -18 25 -18 5 0 16 -8 23 -17 12 -16 15 -16 24 -3 8 13 10 13 10
-2 0 -9 -6 -18 -12 -21 -10 -3 -9 -12 4 -38 32 -65 47 -160 16 -105 -6 10 -20
28 -31 39 -12 12 -20 30 -19 39 2 10 -4 28 -12 40 -9 12 -16 30 -16 39 0 9
-11 28 -25 41 -16 16 -23 32 -19 42 4 10 0 18 -10 22 -24 9 -53 67 -36 72 10
4 10 6 0 12 -9 6 -7 13 9 29 26 26 66 28 76 4z m-457 -54 c12 0 10 -3 -6 -10
-25 -10 -42 -5 -42 13 0 5 7 7 16 4 9 -3 23 -6 32 -7z m85 -61 c-4 -18 -12
-39 -20 -46 -15 -16 -76 -35 -71 -23 5 15 83 101 90 101 4 0 5 -15 1 -32z
m-356 -10 c-3 -8 -6 -5 -6 6 -1 11 2 17 5 13 3 -3 4 -12 1 -19z m-137 -4 c0
-8 -5 -12 -10 -9 -6 4 -8 11 -5 16 9 14 15 11 15 -7z m24 -30 c3 -8 2 -12 -4
-9 -6 3 -10 10 -10 16 0 14 7 11 14 -7z m116 -9 c0 -3 -9 -15 -20 -27 l-20
-22 0 27 c0 20 5 27 20 27 11 0 20 -2 20 -5z m120 -5 c0 -5 -5 -10 -11 -10 -5
0 -7 5 -4 10 3 6 8 10 11 10 2 0 4 -4 4 -10z m-262 -30 c3 -8 1 -12 -3 -8 -5
5 -19 -8 -32 -27 -30 -45 -63 -48 -63 -6 0 22 7 34 28 45 33 18 64 16 70 -4z
m1092 -2 c0 -13 -23 -5 -28 10 -2 7 2 10 12 6 9 -3 16 -11 16 -16z m-729 -20
c7 -13 9 -41 5 -72 -4 -38 -2 -54 11 -68 9 -10 20 -18 24 -18 13 0 29 63 30
118 1 29 4 52 8 52 3 0 16 3 28 6 18 5 21 3 16 -15 -7 -27 7 -27 36 0 12 12
25 19 28 16 8 -9 -30 -44 -52 -49 -41 -7 -67 -172 -35 -225 22 -37 34 -129 14
-112 -8 6 -14 23 -14 38 0 34 -13 53 -32 46 -18 -7 -38 33 -38 79 0 35 -31 73
-49 61 -16 -9 -13 -36 6 -50 19 -14 9 -35 -17 -35 -29 0 -34 17 -16 55 19 38
35 114 28 133 -2 6 -10 12 -18 12 -17 0 -17 5 -2 30 16 26 25 25 39 -2z m-103
-18 c13 0 56 -89 47 -98 -3 -4 -11 1 -17 11 -8 14 -13 16 -24 6 -11 -9 -14 -8
-14 8 0 11 -12 32 -26 47 -23 22 -25 28 -13 42 12 14 14 14 25 0 6 -9 16 -16
22 -16z m879 -2 c-3 -7 -5 -2 -5 12 0 14 2 19 5 13 2 -7 2 -19 0 -25z m-596
-46 c-16 -30 -13 -88 4 -102 20 -17 17 -128 -4 -139 -10 -6 -12 -18 -8 -42 6
-32 6 -33 -8 -15 -8 11 -16 36 -16 55 -2 42 -16 103 -19 81 -1 -8 -5 -4 -9 10
-5 14 -5 50 -1 79 5 43 13 59 36 77 32 26 40 25 25 -4z m-729 -6 c10 -7 15
-16 11 -19 -3 -4 -12 -2 -19 4 -7 6 -25 14 -41 19 l-28 8 30 1 c17 0 38 -6 47
-13z m848 -92 c-7 -28 -21 -62 -31 -75 -18 -23 -19 -23 -19 -3 0 11 4 24 9 30
4 5 13 29 19 54 6 25 14 59 18 75 l8 30 4 -30 c2 -16 -2 -53 -8 -81z m-435 34
c4 -17 3 -28 -3 -28 -5 0 -13 11 -16 24 -3 13 -9 32 -12 43 -6 16 -5 16 9 3 9
-8 19 -27 22 -42z m387 -7 c-16 -47 -18 -48 -25 -25 -6 17 -4 32 7 49 27 41
35 28 18 -24z m178 14 c0 -19 -4 -35 -10 -35 -11 0 -14 53 -3 63 11 12 13 8
13 -28z m680 -28 c0 -12 9 -30 19 -39 32 -27 43 -88 36 -196 -7 -104 2 -173
24 -180 12 -4 13 10 8 74 -6 77 -5 78 11 52 9 -16 19 -28 23 -28 6 0 5 -10 -6
-83 -5 -32 -9 -37 -26 -32 -16 5 -19 2 -19 -24 0 -33 -17 -42 -26 -13 -3 9
-10 25 -15 34 -12 24 -11 31 3 22 8 -5 9 0 3 17 -4 13 -10 53 -14 88 -3 38
-11 66 -18 69 -7 2 -13 -2 -13 -10 0 -22 -20 14 -20 37 0 15 3 16 12 7 17 -17
45 -15 51 3 4 8 0 39 -8 70 -8 31 -15 65 -15 75 0 11 -7 20 -15 20 -9 0 -15 9
-15 24 0 14 -4 28 -10 31 -20 12 -10 26 10 15 11 -6 20 -21 20 -33z m-1180 3
c0 -5 -4 -10 -10 -10 -5 0 -10 5 -10 10 0 6 5 10 10 10 6 0 10 -4 10 -10z
m549 -16 c12 -14 20 -28 17 -31 -6 -6 -56 38 -56 50 0 15 17 6 39 -19z m-562
-71 c9 -21 19 -41 21 -46 2 -4 -3 -5 -10 -2 -18 7 -48 85 -33 85 3 0 12 -17
22 -37z m740 15 c-3 -8 -6 -5 -6 6 -1 11 2 17 5 13 3 -3 4 -12 1 -19z m449
-86 c4 -21 3 -32 -5 -32 -6 0 -11 11 -11 24 0 13 -3 33 -6 43 -5 13 -4 15 4 8
7 -6 15 -25 18 -43z m-852 5 c-12 -7 -14 -18 -10 -46 5 -26 4 -32 -3 -21 -14
21 -14 73 1 88 9 9 14 9 19 0 5 -8 2 -16 -7 -21z m176 4 c0 -11 -4 -23 -10
-26 -6 -4 -10 5 -10 19 0 14 5 26 10 26 6 0 10 -9 10 -19z m807 -98 c-2 -16
-4 -3 -4 27 0 30 2 43 4 28 2 -16 2 -40 0 -55z m-391 36 c3 -6 2 -15 -4 -21
-6 -6 -11 -2 -15 11 -5 22 7 29 19 10z m31 -64 c6 -14 8 -27 4 -30 -7 -4 -31
36 -31 50 0 14 17 1 27 -20z m-41 -38 c3 -34 2 -36 -12 -22 -9 8 -19 15 -24
15 -4 0 -3 11 3 25 16 34 29 27 33 -18z m181 -32 c6 -22 14 -49 18 -60 4 -11
-3 -6 -15 12 -11 17 -24 49 -27 70 -7 49 10 33 24 -22z m-2127 -135 c0 -5 11
-12 25 -16 14 -3 25 -12 25 -20 0 -8 4 -14 10 -14 5 0 7 -7 4 -15 -3 -8 2 -29
13 -47 35 -61 9 -83 -44 -35 -15 14 -29 18 -47 13 -17 -4 -26 -2 -26 5 0 16
-31 38 -52 39 -30 0 -20 20 10 20 23 1 24 2 10 11 -46 26 8 101 55 77 9 -5 17
-13 17 -18z m133 -2 c6 -20 -4 -48 -18 -48 -7 0 -12 12 -11 30 1 30 20 42 29
18z m157 3 c0 -5 -11 -11 -25 -13 -20 -4 -23 -3 -14 8 13 16 39 19 39 5z
m2076 -39 c16 -10 22 -93 9 -119 -16 -31 -40 -14 -31 22 5 18 2 33 -7 44 -21
24 -27 49 -14 55 18 7 31 7 43 -2z m-78 -53 c2 -13 8 -28 13 -33 17 -18 9 -26
-16 -14 -20 9 -25 19 -25 45 0 40 23 41 28 2z m-2002 -37 c-3 -25 -9 -38 -20
-40 -9 -2 -16 -9 -15 -15 3 -17 -11 -47 -22 -47 -5 0 -9 7 -9 15 0 12 -4 14
-16 7 -44 -24 -94 33 -71 82 10 21 19 26 52 27 22 0 49 4 60 8 33 13 44 2 41
-37z m92 -109 c2 -17 -3 -45 -12 -60 -12 -24 -20 -28 -53 -27 -21 0 -68 2
-105 3 -38 0 -68 5 -68 11 0 13 72 47 91 43 9 -2 27 11 43 32 24 31 33 36 64
33 33 -3 37 -6 40 -35z"/>
<path d="M3030 2160 c0 -5 5 -10 10 -10 6 0 10 5 10 10 0 6 -4 10 -10 10 -5 0
-10 -4 -10 -10z"/>
<path d="M343 2153 c-20 -8 -15 -23 7 -23 11 0 20 7 20 15 0 15 -6 17 -27 8z"/>
<path d="M2232 2148 c7 -20 48 -23 48 -4 0 11 -9 16 -26 16 -16 0 -24 -5 -22
-12z"/>
<path d="M200 2125 c0 -8 -9 -15 -20 -15 -11 0 -20 -4 -20 -10 0 -5 8 -10 18
-10 10 0 23 -5 29 -11 17 -17 35 -1 27 24 -5 18 -4 20 7 10 18 -17 49 -16 49
1 0 17 -22 26 -61 26 -19 0 -29 -5 -29 -15z"/>
<path d="M2300 2115 c0 -14 5 -25 10 -25 6 0 10 11 10 25 0 14 -4 25 -10 25
-5 0 -10 -11 -10 -25z"/>
<path d="M390 2105 c-7 -8 -18 -15 -25 -15 -8 0 -18 -12 -24 -27 l-11 -28 5
28 c6 32 -4 35 -28 7 -9 -11 -13 -20 -8 -20 5 0 11 -10 13 -22 5 -35 30 -27
52 14 21 41 40 42 30 1 -6 -24 -5 -25 19 -19 14 3 29 1 32 -4 9 -15 25 -2 25
21 0 14 -7 19 -30 19 -32 0 -40 14 -15 24 21 8 19 36 -4 36 -10 0 -24 -7 -31
-15z"/>
<path d="M535 2109 c-10 -15 1 -23 20 -15 9 3 13 10 10 16 -8 13 -22 13 -30
-1z"/>
<path d="M696 2103 c-9 -27 -3 -38 19 -38 15 0 19 -6 17 -22 -3 -20 1 -23 27
-23 17 0 31 4 31 8 0 9 -76 92 -84 92 -2 0 -7 -8 -10 -17z"/>
<path d="M1731 2096 c-9 -11 -9 -15 1 -19 18 -6 50 12 43 24 -9 13 -31 11 -44
-5z"/>
<path d="M3012 2090 c-12 -19 -14 -19 -37 -4 -25 16 -55 13 -55 -6 0 -5 9 -10
19 -10 15 0 20 -10 26 -51 9 -66 34 -64 54 4 11 37 19 47 36 47 11 0 25 -4 31
-9 15 -14 58 -21 74 -11 20 13 6 24 -57 44 -66 21 -76 20 -91 -4z"/>
<path d="M0 2075 c0 -20 5 -25 25 -25 13 0 28 -7 33 -17 6 -10 16 -14 26 -10
15 6 15 10 -5 36 -14 19 -27 27 -40 24 -10 -3 -19 0 -19 6 0 6 -4 11 -10 11
-5 0 -10 -11 -10 -25z"/>
<path d="M480 2075 c0 -8 9 -15 20 -15 11 0 20 7 20 15 0 8 -9 15 -20 15 -11
0 -20 -7 -20 -15z"/>
<path d="M951 2079 c-19 -7 -21 -12 -11 -24 9 -11 17 -11 36 -3 25 12 33 38
12 37 -7 0 -24 -5 -37 -10z"/>
<path d="M2201 2070 c-14 -12 -21 -26 -17 -35 5 -14 10 -13 36 6 31 23 40 49
18 49 -7 -1 -24 -10 -37 -20z"/>
<path d="M830 2070 c0 -5 11 -10 25 -10 14 0 25 5 25 10 0 6 -11 10 -25 10
-14 0 -25 -4 -25 -10z"/>
<path d="M1793 2063 c-16 -6 -17 -33 -2 -33 17 0 49 20 49 30 0 10 -26 12 -47
3z"/>
<path d="M1117 2043 c-12 -11 -8 -23 8 -23 8 0 15 7 15 15 0 16 -12 20 -23 8z"/>
<path d="M1900 2036 c0 -7 9 -16 20 -19 24 -6 28 18 4 27 -22 8 -24 8 -24 -8z"/>
<path d="M2813 2030 c-29 -8 -53 -18 -53 -21 0 -4 7 -23 16 -44 13 -33 18 -36
42 -30 34 8 62 33 62 55 0 10 7 21 16 24 33 13 34 5 5 -25 -32 -32 -41 -69
-17 -69 9 0 12 -7 9 -19 -6 -23 13 -37 31 -21 21 17 29 61 14 72 -8 6 -9 11
-3 14 6 2 9 22 7 44 -4 38 -5 39 -40 37 -21 -1 -61 -8 -89 -17z m27 -35 c0
-10 -9 -15 -27 -14 -24 2 -25 2 -5 6 12 2 22 9 22 14 0 5 2 9 5 9 3 0 5 -7 5
-15z"/>
<path d="M3364 2014 c3 -9 6 -18 6 -20 0 -2 7 -4 15 -4 8 0 15 9 15 20 0 14
-7 20 -21 20 -15 0 -19 -4 -15 -16z"/>
<path d="M1660 2011 c0 -5 -3 -16 -6 -25 -9 -23 23 -20 36 3 14 27 13 31 -10
31 -11 0 -20 -4 -20 -9z"/>
<path d="M112 1993 c2 -10 13 -19 26 -21 24 -4 29 7 10 26 -18 18 -40 15 -36
-5z"/>
<path d="M1740 1980 c0 -33 11 -38 34 -14 24 23 20 44 -9 44 -21 0 -25 -5 -25
-30z"/>
<path d="M1957 1996 c-10 -25 4 -56 25 -56 16 0 19 5 14 23 -3 12 -6 28 -6 35
0 17 -27 15 -33 -2z"/>
<path d="M1304 1988 c-11 -17 9 -38 31 -32 13 3 33 1 44 -6 19 -10 21 -8 21
18 0 28 -2 29 -46 28 -25 -1 -48 -4 -50 -8z"/>
<path d="M3427 1945 c-4 -24 -2 -55 3 -67 7 -17 9 -7 9 45 1 37 -1 67 -3 67
-2 0 -6 -20 -9 -45z"/>
<path d="M53 1943 c9 -9 19 -14 23 -11 10 10 -6 28 -24 28 -15 0 -15 -1 1 -17z"/>
<path d="M740 1945 c0 -8 9 -15 20 -15 11 0 20 7 20 15 0 8 -9 15 -20 15 -11
0 -20 -7 -20 -15z"/>
<path d="M1212 1948 c6 -18 28 -21 28 -4 0 9 -7 16 -16 16 -9 0 -14 -5 -12
-12z"/>
<path d="M637 1933 c-14 -13 -6 -29 24 -45 17 -10 38 -18 48 -18 9 0 22 -5 29
-12 9 -9 15 -9 24 0 17 17 -20 55 -48 49 -16 -3 -24 2 -27 15 -5 17 -37 25
-50 11z"/>
<path d="M225 1917 c-6 -7 -11 -33 -12 -59 -1 -44 0 -47 17 -38 15 8 18 18 13
44 -3 19 -1 36 6 40 6 4 11 11 11 17 0 13 -23 11 -35 -4z"/>
<path d="M1291 1917 c-18 -18 -13 -27 14 -27 15 0 25 6 25 14 0 19 -25 27 -39
13z"/>
<path d="M0 1885 c0 -20 6 -25 35 -31 20 -3 37 -13 40 -24 11 -33 107 -65 109
-36 1 9 -15 20 -49 32 -19 6 -19 7 4 13 l23 6 -20 25 c-18 22 -21 23 -27 8 -8
-21 -31 -24 -42 -5 -7 11 -55 37 -68 37 -3 0 -5 -11 -5 -25z"/>
<path d="M291 1887 c-16 -20 -6 -56 10 -40 6 6 9 21 7 33 -3 21 -4 22 -17 7z"/>
<path d="M340 1870 c0 -13 5 -20 13 -17 6 2 12 10 12 17 0 7 -6 15 -12 18 -8
2 -13 -5 -13 -18z"/>
<path d="M1357 1863 c-32 -34 -57 -92 -57 -132 0 -27 -4 -31 -37 -37 -28 -5
-39 -3 -48 10 -14 19 -35 21 -35 4 0 -7 -3 -22 -5 -33 -7 -25 40 -52 49 -29 8
20 75 18 83 -1 7 -20 -4 -32 -18 -18 -7 7 -24 8 -47 2 -21 -4 -43 -4 -55 2
-25 14 -47 4 -47 -20 0 -24 -26 -31 -126 -31 -59 0 -85 4 -94 14 -13 17 -57
14 -92 -5 -15 -9 -83 -16 -198 -20 -116 -4 -198 -12 -243 -24 -56 -15 -72 -15
-91 -5 -31 16 -60 10 -64 -14 -3 -14 0 -17 13 -12 10 4 25 0 34 -8 14 -12 29
-13 81 -6 36 5 76 13 90 16 14 4 97 9 185 11 103 4 166 10 180 18 32 20 75 27
90 15 25 -21 159 -24 224 -6 33 9 81 17 108 17 66 0 94 14 121 57 33 52 50 71
110 120 60 50 66 79 27 117 -35 36 -102 35 -138 -2z"/>
<path d="M1217 1863 c-4 -3 -7 -14 -7 -23 0 -13 10 -17 45 -18 45 0 50 3 39
32 -6 16 -64 23 -77 9z"/>
<path d="M435 1820 c-7 -42 -2 -60 19 -60 8 0 12 17 13 50 1 62 -22 69 -32 10z"/>
<path d="M353 1826 c2 -6 8 -11 13 -11 5 0 15 -4 22 -8 7 -5 12 -3 12 6 0 8
-11 17 -25 20 -16 3 -24 0 -22 -7z"/>
<path d="M891 1827 c-7 -10 -8 -29 -2 -60 5 -26 7 -47 5 -47 -4 0 -71 29 -110
48 -22 11 -52 14 -107 10 -65 -4 -75 -3 -66 9 7 7 9 16 6 19 -7 8 -47 -19 -47
-32 0 -6 -10 -16 -22 -21 -23 -11 -23 -11 6 -18 17 -5 49 -3 77 4 48 13 123 7
144 -9 6 -5 35 -18 65 -30 30 -12 62 -31 71 -42 l17 -21 27 21 c15 12 34 22
41 22 8 0 14 7 14 15 0 18 -50 21 -68 3 -15 -15 -20 0 -25 75 -4 64 -9 74 -26
54z"/>
<path d="M491 1804 c-15 -34 -7 -45 24 -31 28 13 33 42 9 51 -21 8 -19 9 -33
-20z"/>
<path d="M3432 1755 c0 -16 2 -22 5 -12 2 9 2 23 0 30 -3 6 -5 -1 -5 -18z"/>
<path d="M1090 1726 c0 -17 5 -26 16 -26 10 0 14 7 12 22 -5 32 -28 35 -28 4z"/>
<path d="M1030 1710 c0 -10 9 -24 20 -30 17 -9 20 -8 20 8 0 18 -18 42 -32 42
-4 0 -8 -9 -8 -20z"/>
<path d="M3424 1697 c-3 -13 -1 -39 4 -58 10 -32 10 -31 11 24 1 60 -5 73 -15
34z"/>
<path d="M137 1704 c-3 -4 -2 -16 4 -26 8 -15 14 -17 22 -9 8 8 7 15 -4 26 -8
9 -18 13 -22 9z"/>
<path d="M1130 1695 c0 -8 5 -15 10 -15 6 0 10 7 10 15 0 8 -4 15 -10 15 -5 0
-10 -7 -10 -15z"/>
<path d="M3347 1673 c-4 -6 -2 -44 3 -84 5 -41 10 -77 10 -81 0 -5 5 -8 10 -8
14 0 12 119 -4 155 -7 17 -15 25 -19 18z"/>
<path d="M139 1632 c-64 -21 -65 -26 -4 -32 33 -4 67 -8 75 -11 8 -2 15 2 15
9 0 16 -64 41 -86 34z"/>
<path d="M0 1566 c0 -18 7 -25 30 -29 16 -4 39 -16 50 -27 24 -24 65 -23 65 0
0 8 -11 16 -25 18 -14 2 -34 12 -45 22 -20 17 -59 40 -69 40 -3 0 -6 -11 -6
-24z"/>
<path d="M3020 1501 c0 -52 12 -83 26 -69 7 8 -9 128 -17 128 -5 0 -9 -27 -9
-59z"/>
<path d="M3427 1523 c-10 -10 -8 -56 3 -73 7 -11 10 -2 10 33 0 48 -1 52 -13
40z"/>
<path d="M945 1470 c-82 -7 -115 -16 -115 -30 0 -15 -96 -77 -145 -94 -28 -9
-70 -30 -94 -46 -24 -17 -51 -30 -60 -30 -9 0 -29 -9 -46 -20 -16 -11 -37 -20
-46 -20 -9 0 -27 -11 -41 -24 -14 -12 -32 -26 -39 -30 -8 -3 -45 -24 -84 -46
-110 -62 -146 -78 -200 -87 -37 -6 -51 -13 -53 -27 -3 -16 1 -17 40 -11 68 11
146 41 179 69 17 14 36 26 43 26 19 0 73 28 136 70 30 21 78 46 105 56 28 10
70 30 95 44 25 15 77 41 116 59 39 18 85 47 102 65 20 22 44 35 69 40 63 10
152 7 173 -6 16 -10 24 -10 40 0 11 6 36 12 56 12 24 0 34 4 32 13 -6 16 -76
21 -94 6 -11 -9 -18 -8 -32 5 -10 9 -27 15 -38 14 -10 0 -55 -4 -99 -8z"/>
<path d="M165 1450 c-14 -23 11 -30 104 -30 70 0 102 4 110 13 6 8 8 17 4 20
-10 11 -211 8 -218 -3z"/>
<path d="M2773 1414 c-8 -20 13 -42 27 -28 12 12 3 44 -11 44 -5 0 -12 -7 -16
-16z"/>
<path d="M2995 1420 c-7 -11 25 -70 37 -70 11 0 10 23 -2 54 -10 27 -24 33
-35 16z"/>
<path d="M3427 1309 c-4 -46 -2 -89 3 -98 6 -11 9 15 10 82 0 53 -2 97 -4 97
-1 0 -6 -37 -9 -81z"/>
<path d="M3346 1348 c-10 -38 -7 -66 11 -103 14 -29 15 -40 5 -55 -13 -22 -16
-63 -5 -74 8 -8 43 60 43 85 0 9 -7 34 -16 55 -10 23 -14 53 -11 76 6 43 -16
55 -27 16z"/>
<path d="M1080 1270 c0 -5 9 -10 20 -10 11 0 20 5 20 10 0 6 -9 10 -20 10 -11
0 -20 -4 -20 -10z"/>
<path d="M3425 1128 c-4 -10 -4 -26 0 -35 8 -17 8 -17 12 0 3 9 3 25 0 35 -4
16 -4 16 -12 0z"/>
<path d="M3428 988 c-3 -18 -2 -55 2 -83 7 -46 7 -44 9 33 1 86 -3 104 -11 50z"/>
<path d="M3352 808 c-29 -32 -40 -78 -18 -78 9 0 19 8 22 18 3 9 12 29 20 44
24 45 12 53 -24 16z"/>
<path d="M1072 480 c-18 -11 -41 -20 -50 -20 -10 0 -26 -6 -36 -13 -15 -11
-16 -15 -3 -25 12 -10 24 -8 62 8 59 25 80 27 128 11 33 -11 41 -11 56 3 15
14 26 14 77 5 32 -6 64 -17 70 -25 7 -8 40 -22 75 -31 35 -8 72 -22 81 -31 10
-8 35 -16 55 -19 21 -2 52 -13 68 -26 18 -13 45 -21 68 -21 24 -1 37 -5 37
-14 0 -7 -8 -12 -17 -10 -12 2 -18 -3 -18 -17 0 -14 10 -22 38 -28 45 -11 56
-4 39 24 -7 11 -10 24 -7 29 10 16 55 12 61 -5 9 -23 38 -18 49 8 6 13 20 23
35 25 14 1 59 6 100 12 60 7 78 7 89 -4 11 -12 10 -16 -7 -25 -30 -16 -17 -39
21 -37 26 1 33 -3 35 -21 4 -27 22 -31 22 -5 1 15 2 15 13 2 12 -15 30 -20 75
-23 12 -1 22 -8 22 -14 0 -7 9 -13 20 -13 21 0 34 -19 43 -66 7 -35 -7 -46
-73 -62 -20 -5 -35 -15 -35 -23 0 -18 69 -15 100 5 14 9 27 11 36 5 8 -5 24
-9 35 -9 12 0 27 -7 34 -15 7 -8 21 -15 32 -15 16 0 17 3 7 23 -7 12 -18 27
-24 32 -12 9 -35 108 -35 146 0 9 9 19 20 22 18 5 20 12 17 72 -4 73 -14 88
-55 91 -15 1 -37 2 -48 3 -15 1 -26 13 -37 40 -23 56 -59 62 -90 14 -4 -7 -13
-13 -20 -13 -7 0 -25 -12 -40 -26 -30 -28 -92 -44 -197 -50 -36 -2 -77 -9 -92
-15 -44 -18 -212 -4 -253 21 -18 11 -40 20 -49 20 -9 0 -33 9 -53 20 -21 11
-45 20 -55 20 -9 0 -20 5 -23 10 -3 6 -15 10 -27 10 -11 0 -32 6 -46 14 -33
16 -84 33 -134 41 -30 6 -39 4 -44 -9 -8 -20 -24 -20 -60 -1 -38 20 -53 19
-92 -5z m1257 -87 c10 -21 35 -69 55 -108 20 -38 36 -80 36 -93 0 -13 5 -43
11 -68 6 -25 9 -47 6 -51 -13 -12 -35 19 -40 58 -6 42 -30 79 -54 79 -7 0 -13
9 -13 20 0 11 -4 20 -10 20 -5 0 -10 -4 -10 -10 0 -5 -7 -10 -15 -10 -8 0 -15
5 -15 11 0 7 -9 9 -23 5 -19 -4 -26 0 -35 20 -8 15 -19 24 -29 22 -14 -2 -17
3 -15 27 3 30 44 75 70 75 7 0 20 9 29 20 24 28 30 26 52 -17z m81 -64 c0 -6
-4 -7 -10 -4 -5 3 -10 11 -10 16 0 6 5 7 10 4 6 -3 10 -11 10 -16z m34 -78
c-6 -6 -24 19 -24 34 1 6 7 1 15 -9 8 -11 12 -22 9 -25z"/>
<path d="M1140 395 c0 -8 5 -15 10 -15 6 0 10 7 10 15 0 8 -4 15 -10 15 -5 0
-10 -7 -10 -15z"/>
<path d="M757 363 c-10 -17 -4 -65 9 -70 8 -3 14 -11 14 -19 0 -10 6 -11 30
-2 37 12 34 32 -4 36 -25 3 -27 6 -21 33 5 22 3 29 -9 29 -8 0 -17 -3 -19 -7z"/>
<path d="M1106 363 c-12 -12 -6 -43 9 -43 8 0 15 9 15 19 0 21 -13 34 -24 24z"/>
<path d="M1186 361 c-4 -6 0 -14 8 -17 9 -4 19 -23 22 -45 4 -21 10 -36 15
-33 13 8 11 74 -2 74 -7 0 -17 7 -24 17 -8 11 -14 13 -19 4z"/>
<path d="M971 329 c-9 -27 -8 -30 7 -27 10 2 18 14 20 31 4 37 -13 34 -27 -4z"/>
<path d="M1287 354 c-8 -9 11 -44 24 -44 6 0 9 10 7 22 -3 22 -19 34 -31 22z"/>
<path d="M1360 342 c0 -10 11 -29 25 -42 21 -20 25 -21 25 -6 0 20 -29 66 -41
66 -5 0 -9 -8 -9 -18z"/>
<path d="M1440 320 c0 -5 5 -10 11 -10 5 0 7 5 4 10 -3 6 -8 10 -11 10 -2 0
-4 -4 -4 -10z"/>
<path d="M896 295 c5 -19 2 -25 -10 -25 -16 0 -21 -12 -9 -23 3 -4 13 -1 21 6
8 6 18 10 21 7 12 -10 12 31 1 45 -19 23 -31 18 -24 -10z"/>
<path d="M1160 301 c0 -11 4 -21 9 -21 18 0 21 18 6 30 -13 10 -15 9 -15 -9z"/>
<path d="M1275 300 c-3 -5 -1 -10 4 -10 6 0 11 5 11 10 0 6 -2 10 -4 10 -3 0
-8 -4 -11 -10z"/>
<path d="M1938 283 c-5 -57 12 -78 92 -115 56 -25 100 -32 100 -15 0 6 3 21 6
32 3 13 -2 24 -16 33 -32 20 -45 4 -19 -24 l23 -24 -32 15 c-17 9 -36 24 -42
33 -5 10 -10 12 -10 5 0 -7 -5 -13 -12 -13 -16 0 -68 51 -68 66 0 21 -20 27
-22 7z"/>
<path d="M1030 274 c0 -10 7 -14 22 -12 32 5 35 28 4 28 -17 0 -26 -5 -26 -16z"/>
<path d="M1122 273 c5 -25 28 -28 28 -4 0 12 -6 21 -16 21 -9 0 -14 -7 -12
-17z"/>
<path d="M1333 265 c-21 -23 -15 -35 21 -50 22 -9 36 -23 40 -40 5 -18 13 -25
31 -25 19 0 28 -8 40 -36 19 -46 19 -54 0 -54 -26 0 -65 31 -65 52 0 29 -24
16 -28 -14 -2 -19 5 -31 26 -47 17 -12 39 -21 50 -21 11 0 28 -7 36 -16 9 -8
16 -11 16 -5 0 6 7 11 15 11 8 0 15 -4 15 -10 0 -5 16 -10 35 -10 51 0 45 25
-10 41 -29 9 -45 19 -45 29 0 9 -9 35 -20 58 -11 22 -20 53 -20 67 0 16 -6 25
-15 25 -8 0 -15 -9 -15 -20 0 -11 -2 -20 -4 -20 -12 0 -56 49 -56 62 0 14 -19
38 -29 38 -4 -1 -12 -7 -18 -15z"/>
<path d="M1500 246 c0 -7 6 -19 14 -25 19 -16 32 5 16 24 -16 19 -30 19 -30 1z"/>
<path d="M1163 203 c2 -43 0 -48 -20 -51 -13 -2 -23 -6 -23 -10 1 -18 19 -33
36 -30 11 2 19 -3 20 -12 0 -8 2 -21 2 -27 1 -7 15 -13 31 -13 16 0 31 -6 35
-15 7 -18 47 -20 64 -3 19 19 15 48 -8 48 -11 0 -20 -7 -20 -15 0 -8 -9 -15
-20 -15 -11 0 -20 7 -20 15 0 8 5 15 10 15 6 0 10 9 10 20 0 23 -18 27 -26 5
-9 -23 -33 -19 -27 5 3 11 12 20 19 20 8 0 14 6 14 14 0 30 -13 46 -36 46 -21
0 -24 4 -18 25 5 19 2 25 -10 25 -13 0 -15 -10 -13 -47z m40 -49 c-4 -10 -9
-12 -15 -6 -12 12 -1 35 12 27 5 -3 6 -13 3 -21z"/>
<path d="M1256 243 c-11 -11 -6 -23 8 -23 8 0 17 4 20 9 7 10 -19 23 -28 14z"/>
<path d="M1062 229 c2 -7 10 -15 17 -17 8 -3 12 1 9 9 -2 7 -10 15 -17 17 -8
3 -12 -1 -9 -9z"/>
<path d="M742 217 c-7 -8 -6 -18 3 -31 17 -23 35 -13 35 20 0 26 -21 32 -38
11z"/>
<path d="M978 201 c-5 -31 5 -70 14 -55 6 9 11 49 9 72 -2 24 -19 12 -23 -17z"/>
<path d="M1111 196 c-7 -8 -8 -17 -3 -20 6 -3 15 1 21 8 7 8 8 17 3 20 -6 3
-15 -1 -21 -8z"/>
<path d="M1657 203 c-31 -8 -12 -28 26 -28 29 0 37 -4 37 -17 0 -11 8 -18 18
-18 32 0 32 11 2 41 -27 28 -44 32 -83 22z"/>
<path d="M922 170 c2 -18 9 -35 16 -38 18 -6 15 43 -4 59 -14 11 -15 9 -12
-21z"/>
<path d="M1505 190 c-8 -13 4 -32 16 -25 12 8 12 35 0 35 -6 0 -13 -4 -16 -10z"/>
<path d="M1565 180 c-3 -11 -9 -20 -13 -20 -4 0 -13 -4 -21 -9 -12 -8 -12 -12
-2 -25 12 -14 16 -13 41 10 17 17 26 33 23 45 -7 25 -20 24 -28 -1z"/>
<path d="M856 174 c-7 -19 2 -37 15 -29 12 8 12 45 0 45 -5 0 -12 -7 -15 -16z"/>
<path d="M1043 154 c-4 -10 9 -29 38 -55 43 -40 43 -40 14 -33 -16 4 -35 11
-41 16 -8 5 -14 3 -18 -7 -3 -9 -18 -15 -36 -15 -20 0 -30 -5 -30 -15 0 -16
45 -21 54 -6 6 9 75 -10 108 -29 22 -12 58 -13 58 -1 0 5 -11 16 -25 25 -19
12 -24 23 -20 37 5 15 2 19 -19 19 -17 0 -26 6 -26 15 0 20 -29 65 -41 65 -6
0 -12 -7 -16 -16z"/>
<path d="M2216 152 c-3 -5 -21 -13 -39 -16 -23 -4 -38 -15 -45 -32 -17 -35
-15 -44 9 -44 14 0 19 5 16 14 -7 18 16 38 35 31 7 -3 22 1 32 8 14 11 16 18
9 32 -6 10 -13 13 -17 7z"/>
<path d="M1645 140 c-8 -13 20 -24 40 -16 8 3 15 10 15 16 0 13 -47 13 -55 0z"/>
<path d="M820 133 c0 -18 25 -33 57 -33 23 0 33 5 33 15 0 8 -6 15 -14 15 -7
0 -28 3 -45 6 -17 4 -31 2 -31 -3z"/>
<path d="M1010 119 c0 -7 -8 -18 -17 -25 -17 -13 -17 -13 3 -14 23 0 44 18 44
37 0 7 -7 13 -15 13 -8 0 -15 -5 -15 -11z"/>
<path d="M1616 96 c4 -11 -3 -13 -35 -9 -50 7 -56 -12 -9 -31 27 -12 37 -12
65 2 38 18 43 37 11 46 -34 9 -38 7 -32 -8z"/>
<path d="M1350 36 c0 -18 26 -40 34 -27 9 14 -4 41 -20 41 -8 0 -14 -6 -14
-14z"/>
<path d="M1637 32 c-21 -23 -21 -32 -1 -32 16 0 43 27 44 43 0 14 -27 7 -43
-11z"/>
<path d="M698 3 c6 -2 18 -2 25 0 6 3 1 5 -13 5 -14 0 -19 -2 -12 -5z"/>
<path d="M918 3 c7 -3 16 -2 19 1 4 3 -2 6 -13 5 -11 0 -14 -3 -6 -6z"/>
</g>
</svg>
