<?xml version="1.0" standalone="no"?>
<!DOCTYPE svg PUBLIC "-//W3C//DTD SVG 20010904//EN"
 "http://www.w3.org/TR/2001/REC-SVG-20010904/DTD/svg10.dtd">
<svg version="1.0" xmlns="http://www.w3.org/2000/svg"
 width="384.000000pt" height="256.000000pt" viewBox="0 0 384.000000 256.000000"
 preserveAspectRatio="xMidYMid meet">
<metadata>
Created by potrace 1.16, written by Peter Selinger 2001-2019
</metadata>
<g transform="translate(0.000000,256.000000) scale(0.100000,-0.100000)"
fill="#000000" stroke="none">
<path d="M846 2373 c3 -60 7 -120 9 -136 3 -15 0 -38 -7 -52 l-11 -24 -28 27
c-16 15 -45 32 -64 39 -32 11 -36 10 -49 -10 -8 -12 -17 -37 -21 -55 -6 -28
-11 -33 -27 -29 -11 3 -31 1 -44 -5 -19 -9 -24 -19 -24 -50 0 -40 42 -128 61
-128 20 0 21 32 1 53 -24 26 -45 75 -36 88 8 14 41 11 58 -6 11 -11 123 -54
144 -55 1 0 2 8 2 19 0 10 7 24 15 31 8 7 15 22 15 34 1 15 6 10 21 -20 15
-31 25 -41 38 -37 25 6 53 -24 42 -45 -15 -30 -3 -40 37 -31 20 4 60 12 87 18
55 10 184 54 225 76 27 15 189 59 255 70 22 4 76 6 120 5 63 -1 90 -7 133 -28
72 -35 164 -142 122 -142 -5 0 -16 -22 -24 -49 -8 -27 -22 -63 -31 -81 -11
-21 -13 -36 -7 -42 13 -13 39 26 57 87 21 71 27 78 49 62 16 -12 17 -18 6 -58
-7 -24 -18 -56 -26 -71 -8 -14 -14 -48 -14 -76 0 -32 -5 -54 -15 -62 -8 -7
-15 -17 -15 -22 0 -14 -42 -47 -61 -48 -8 0 -23 16 -32 35 -18 38 -35 45 -43
18 -3 -10 -10 -26 -16 -37 -14 -27 6 -45 32 -28 11 7 20 8 20 2 0 -16 -37 -30
-83 -30 -31 0 -47 -5 -51 -15 -3 -8 0 -15 6 -15 6 0 9 -2 6 -5 -6 -7 -131 40
-163 61 -27 18 -137 15 -228 -5 -39 -9 -55 -8 -85 5 -73 32 -92 34 -135 17
-23 -9 -54 -25 -69 -35 -23 -16 -26 -23 -18 -39 14 -26 67 -51 90 -44 22 7 62
-13 108 -54 18 -16 65 -42 103 -57 65 -25 68 -28 53 -45 -17 -19 -64 -150 -64
-181 0 -10 -5 -28 -11 -40 -12 -23 -3 -92 11 -83 18 11 49 -16 68 -58 19 -43
73 -97 96 -97 7 0 63 -51 124 -112 85 -86 112 -119 112 -139 0 -34 62 -72 82
-50 10 11 10 14 1 18 -16 6 -17 24 -2 21 27 -7 18 24 -13 39 -18 10 -88 73
-156 141 -68 67 -130 122 -139 122 -23 0 -81 63 -89 96 -8 34 -32 64 -50 64
-7 0 -15 4 -18 8 -9 15 42 182 65 211 22 27 30 30 82 30 33 1 71 7 85 15 15 7
38 18 52 24 14 5 37 14 53 21 36 14 36 0 -2 -48 -20 -25 -31 -53 -36 -90 -6
-51 -5 -55 25 -86 44 -46 60 -37 60 34 0 45 4 59 20 69 18 11 20 10 20 -11 0
-13 9 -32 20 -42 11 -10 20 -23 20 -30 0 -6 20 -49 44 -97 30 -57 47 -105 51
-144 4 -33 14 -68 21 -78 7 -11 11 -30 8 -42 -8 -32 41 -107 65 -99 10 3 25
-2 35 -14 10 -11 31 -25 48 -32 25 -10 27 -14 14 -21 -9 -5 -16 -18 -16 -28 0
-41 -51 -13 -80 44 -8 16 -26 33 -40 38 -82 32 -186 101 -233 155 -21 24 -50
46 -63 49 -13 3 -24 10 -24 14 0 4 -9 10 -20 13 -37 10 -24 -31 18 -52 38 -19
82 -70 82 -94 0 -19 48 -61 98 -86 23 -12 48 -33 54 -46 13 -30 32 -22 24 11
-6 22 -4 22 23 13 17 -6 42 -27 58 -47 49 -66 57 -72 85 -72 23 0 28 4 28 25
0 14 5 25 11 25 5 0 17 17 26 37 8 21 33 57 54 82 l39 44 0 114 c0 99 2 114
15 109 9 -3 24 3 35 14 27 27 30 25 30 -13 0 -21 -12 -52 -31 -81 -25 -37 -30
-53 -25 -79 4 -17 9 -55 12 -82 l6 -50 -111 -115 c-120 -125 -137 -155 -128
-231 7 -61 -7 -72 -40 -30 -28 35 -55 39 -84 12 -21 -20 -24 -42 -14 -140 7
-75 33 -131 83 -184 37 -38 82 -50 82 -22 0 8 -6 15 -13 15 -20 0 -90 80 -111
127 -22 49 -19 54 45 99 30 20 54 28 89 29 59 1 122 46 116 83 -2 16 2 22 15
22 23 0 25 23 4 40 -10 9 -36 11 -79 8 -81 -7 -80 -3 33 120 56 60 102 99 131
113 25 11 50 27 56 35 9 12 17 11 52 -6 22 -11 44 -24 47 -30 3 -5 14 -10 24
-10 19 0 57 -39 148 -152 29 -35 71 -74 95 -88 24 -13 57 -30 73 -39 53 -29
57 -32 46 -44 -12 -16 -9 -93 4 -90 6 1 13 12 17 25 3 14 6 16 7 7 1 -24 24
-40 41 -29 9 5 15 25 15 49 0 23 3 41 8 41 4 0 7 -24 6 -53 -3 -52 6 -97 21
-107 5 -3 24 -36 44 -73 53 -100 59 -107 84 -107 l23 0 -29 43 c-16 23 -50 78
-75 123 -40 71 -45 86 -40 122 7 54 23 54 23 1 0 -48 22 -50 30 -3 7 40 34 38
38 -4 3 -34 21 -42 42 -17 8 9 10 27 6 46 -4 23 0 38 18 62 35 47 56 93 56
121 0 14 8 41 17 61 19 39 20 39 106 -1 l50 -23 30 21 c17 12 37 33 45 48 9
15 29 36 46 47 19 12 52 57 86 117 59 104 83 136 103 136 20 0 8 -71 -15 -97
-11 -12 -31 -24 -44 -27 -30 -8 -32 -36 -3 -36 12 0 37 9 55 20 33 21 44 53
44 130 0 46 19 254 30 330 6 41 12 104 13 139 1 47 6 67 19 74 13 9 21 6 35
-11 12 -15 35 -25 71 -31 52 -8 52 -8 51 18 0 14 -3 21 -5 14 -4 -8 -12 -8
-32 2 -15 8 -43 18 -62 22 l-35 9 53 33 c58 39 89 76 69 85 -9 5 -9 7 1 12 8
4 12 28 12 70 0 52 -3 62 -15 58 -8 -4 -15 -2 -15 4 0 5 7 15 15 22 20 16 19
40 -1 40 -11 0 -14 6 -9 20 4 13 2 20 -7 20 -15 0 -88 -94 -88 -114 0 -11 -23
-44 -127 -181 -19 -26 -28 -46 -22 -52 5 -5 -6 -16 -27 -28 -25 -14 -34 -24
-31 -37 3 -10 -5 -31 -17 -46 -32 -39 -76 -107 -98 -152 -18 -38 -49 -60 -85
-60 -24 0 -38 -8 -55 -30 -12 -16 -25 -30 -30 -30 -16 0 3 241 32 400 11 65
80 170 177 272 34 36 63 73 63 82 0 9 4 16 8 16 7 0 47 62 89 140 11 19 24 54
30 77 11 42 10 43 -24 63 -19 11 -37 20 -40 20 -3 0 -29 11 -57 24 -76 35
-133 49 -208 50 -48 1 -72 6 -85 19 -11 9 -24 17 -29 17 -5 0 -24 21 -43 46
-41 55 -100 103 -161 134 -38 20 -55 22 -122 17 -87 -6 -119 -21 -183 -86 -21
-23 -48 -41 -60 -41 -24 0 -85 -52 -85 -73 0 -28 -37 -55 -107 -76 -57 -18
-85 -34 -133 -77 -33 -30 -69 -54 -78 -54 -20 0 -89 -44 -112 -70 -8 -10 -33
-20 -55 -22 -40 -5 -40 -5 -105 76 -53 65 -79 88 -135 119 -68 36 -73 37 -155
33 -108 -4 -271 -37 -347 -69 -32 -13 -83 -33 -113 -44 -146 -54 -174 -59
-199 -35 -39 35 -52 43 -80 53 -32 11 -44 39 -32 73 5 11 5 75 1 141 -4 66 -6
123 -4 127 7 12 -8 38 -22 38 -11 0 -12 -21 -8 -107z m2157 16 c41 -27 47 -35
47 -66 0 -26 -4 -34 -14 -30 -22 9 -59 -41 -52 -69 6 -24 6 -24 -16 -11 -25
16 -131 54 -164 59 -11 2 -28 -3 -37 -11 -32 -26 -19 -36 47 -37 50 -1 71 -7
92 -23 15 -11 33 -21 41 -21 20 0 123 -108 123 -129 0 -10 3 -21 8 -25 4 -4
12 -46 18 -94 12 -105 1 -137 -72 -201 -37 -32 -50 -39 -60 -30 -22 18 -47 -9
-40 -42 4 -21 -1 -32 -23 -52 -16 -14 -30 -29 -32 -34 -5 -11 -81 -73 -90 -73
-4 0 -9 9 -12 20 -7 28 -19 25 -44 -14 -30 -47 -122 -79 -170 -60 -29 13 -31
15 -23 49 5 20 4 51 -1 71 -9 31 -7 37 18 59 15 13 32 25 36 25 5 0 35 -16 67
-36 64 -39 122 -50 128 -23 2 11 -6 18 -28 22 -29 6 -120 44 -120 51 0 8 53
103 66 117 16 18 19 49 5 49 -10 0 -66 -67 -72 -87 -6 -20 -53 9 -57 34 -3 17
5 26 30 38 83 40 108 57 122 83 27 51 2 57 -36 8 -19 -25 -38 -43 -41 -40 -3
3 -19 -2 -36 -10 -16 -9 -41 -16 -56 -16 -14 0 -25 -4 -25 -10 0 -5 -9 -10
-20 -10 -25 0 -57 61 -66 127 -5 42 -2 61 19 109 14 33 28 68 31 80 4 11 17
36 31 54 22 30 25 31 25 12 0 -30 13 -28 44 10 20 25 29 29 38 20 9 -9 9 -12
-1 -12 -18 0 -40 -30 -41 -55 0 -11 -10 -26 -21 -33 -30 -19 -9 -40 23 -25 13
6 36 16 51 22 21 8 27 16 23 28 -4 10 2 24 14 35 22 20 19 38 -6 38 -10 0 -13
7 -8 25 4 18 1 27 -10 31 -13 5 -7 15 29 52 75 76 89 82 186 82 79 0 89 -2
132 -31z m-418 -117 l-28 -27 23 33 c12 18 25 31 28 27 3 -3 -7 -18 -23 -33z
m535 -3 c0 -11 -4 -19 -10 -19 -5 0 -10 6 -10 14 0 8 -3 23 -7 33 -6 16 -5 16
10 4 9 -7 17 -22 17 -32z m265 -88 c75 -24 90 -29 150 -55 33 -13 61 -29 63
-35 7 -21 -95 -201 -115 -201 -17 0 -49 49 -62 95 -13 48 -36 83 -47 72 -5 -4
-3 -17 4 -27 7 -11 12 -28 12 -37 0 -13 -7 -8 -21 15 -12 17 -25 32 -30 32 -5
0 -7 10 -4 23 5 19 0 24 -37 37 -41 14 -43 17 -46 61 l-3 46 48 -7 c26 -3 66
-12 88 -19z m-2597 -17 c16 -11 22 -24 22 -50 0 -34 -2 -36 -26 -30 -15 4 -39
10 -55 13 -30 6 -36 23 -23 71 6 19 11 22 33 17 14 -3 36 -13 49 -21z m1682
-25 c-6 -10 -15 -19 -20 -19 -6 0 -10 -11 -10 -25 0 -13 -8 -40 -17 -60 -14
-29 -15 -44 -6 -94 15 -78 61 -171 84 -171 10 0 32 -15 48 -32 l31 -33 -30
-25 c-17 -14 -30 -34 -30 -45 -1 -18 -2 -18 -21 5 -55 68 -114 130 -125 130
-27 0 -17 -25 30 -74 75 -78 95 -114 102 -184 l7 -62 -35 0 c-20 0 -41 7 -48
15 -7 9 -28 23 -47 31 -43 21 -133 128 -133 160 0 13 -10 34 -21 45 l-22 22
-13 -33 c-8 -18 -14 -67 -14 -112 0 -79 0 -80 -22 -73 -19 6 -117 23 -153 26
-50 5 -97 -4 -129 -26 -52 -35 -124 -35 -154 0 -28 32 -28 37 2 29 16 -4 37 3
65 20 22 14 46 26 54 26 21 0 84 57 101 94 9 19 16 55 16 80 0 25 5 46 10 46
6 0 10 12 10 28 0 41 35 92 64 92 25 0 38 -23 40 -70 1 -18 9 -26 34 -34 17
-5 32 -15 32 -22 0 -18 -67 -67 -80 -59 -5 3 -13 -1 -16 -9 -3 -9 -12 -16 -20
-16 -18 0 -18 -44 -1 -58 10 -9 17 -3 31 22 11 20 29 36 49 42 18 5 41 23 53
41 l22 33 7 -28 7 -27 10 25 c5 14 7 33 4 42 -2 10 3 24 13 31 29 21 58 70 65
110 6 33 4 39 -13 44 -37 10 -33 34 16 84 33 34 63 54 98 65 27 9 54 20 59 25
16 14 27 -1 16 -22z m822 -94 c67 -68 91 -95 83 -95 -6 0 -21 9 -35 20 -26 20
-55 26 -64 12 -7 -12 83 -77 119 -86 17 -4 38 -17 49 -28 18 -19 18 -20 -6
-46 -14 -15 -38 -42 -53 -59 -16 -18 -33 -33 -39 -33 -20 0 -66 -50 -71 -78
-3 -15 -10 -40 -16 -57 -24 -65 -48 -207 -60 -353 -11 -133 -14 -152 -28 -147
-9 4 -56 16 -104 28 -79 20 -87 24 -81 42 11 38 74 270 90 335 45 181 50 192
113 243 32 26 61 47 64 47 15 0 57 50 57 68 0 59 -39 70 -85 22 -21 -22 -38
-30 -62 -30 -41 0 -41 9 -1 49 26 26 29 31 15 37 -10 3 -24 4 -32 0 -24 -9
-17 8 15 39 33 32 38 45 15 45 -26 0 -17 14 23 36 43 23 62 21 94 -11z m-12
-182 c0 -5 -17 -19 -38 -32 l-37 -24 29 32 c29 30 46 39 46 24z m-115 -88
c-22 -19 -42 -35 -45 -35 -17 0 -41 -68 -54 -151 -8 -52 -22 -115 -31 -139 -9
-25 -20 -65 -26 -90 -22 -102 -60 -208 -83 -233 -13 -14 -26 -30 -27 -36 -4
-10 -40 -1 -199 47 -63 18 -84 32 -52 32 31 0 62 35 62 70 0 42 -27 103 -56
129 -29 25 -31 41 -4 41 19 0 61 16 136 51 38 18 164 133 164 150 0 4 28 31
63 59 34 29 72 68 85 87 24 35 52 52 87 52 16 0 12 -7 -20 -34z m631 -134 c-9
-12 -12 -11 -14 3 -2 10 0 30 4 44 l7 27 7 -30 c3 -17 2 -36 -4 -44z m-1476
-141 c69 -70 76 -79 56 -84 -35 -9 -43 -7 -49 14 -3 12 -14 20 -25 20 -12 0
-24 5 -27 10 -4 6 -15 8 -24 5 -34 -11 -47 23 -42 115 l3 85 15 -43 c11 -30
40 -68 93 -122z m1432 138 c-6 -6 -15 -8 -19 -4 -4 4 -1 11 7 16 19 12 27 3
12 -12z m-39 -33 c-3 -9 -8 -14 -10 -11 -3 3 -2 9 2 15 9 16 15 13 8 -4z
m-2538 -35 c43 -21 115 -26 144 -10 10 5 54 10 97 12 71 2 85 -1 140 -29 34
-17 75 -34 92 -38 30 -6 70 -40 60 -51 -3 -3 -28 -7 -54 -9 -30 -2 -73 -16
-108 -34 -67 -36 -124 -40 -164 -13 -15 10 -53 26 -85 36 -32 9 -72 30 -90 45
-55 47 -94 71 -116 71 -24 0 -27 10 -9 28 17 17 47 14 93 -8z m2615 -4 c0 -7
-13 -19 -29 -26 -17 -7 -52 -33 -79 -59 l-49 -47 1 40 c0 24 8 49 18 60 16 17
21 18 43 6 20 -11 27 -11 40 0 8 7 15 19 15 26 0 8 9 14 20 14 11 0 20 -6 20
-14z m-1672 -97 c42 -11 86 -29 98 -40 12 -11 38 -22 58 -26 38 -6 44 -16 61
-114 8 -46 -9 -60 -24 -19 -17 50 -29 34 -28 -37 2 -45 -2 -68 -10 -70 -7 -3
-13 -10 -13 -17 0 -7 -13 -27 -30 -44 -25 -27 -30 -29 -30 -13 0 50 -27 69
-32 24 -2 -22 -8 -28 -26 -26 -26 3 -41 -22 -23 -40 13 -13 16 -243 2 -251 -4
-3 -14 11 -20 32 -7 20 -21 48 -32 61 l-19 23 -29 -31 c-16 -17 -34 -31 -40
-31 -10 0 -27 -64 -23 -87 2 -7 -1 -13 -5 -13 -15 0 -41 53 -46 92 -4 33 -2
39 22 51 19 9 27 21 29 45 4 42 -22 44 -43 2 -9 -16 -19 -30 -24 -30 -11 0
-21 36 -21 75 0 17 -14 59 -30 93 -35 74 -34 72 -15 72 8 0 23 -18 32 -39 9
-22 28 -44 40 -50 14 -7 26 -23 29 -41 6 -29 24 -43 24 -18 0 11 98 108 108
108 11 0 31 37 32 58 0 30 -18 28 -30 -3 -5 -14 -17 -25 -26 -25 -9 0 -18 -9
-21 -20 -8 -29 -23 -24 -29 10 -8 38 -29 38 -52 0 l-18 -30 -32 46 c-18 24
-32 48 -32 53 0 5 -7 14 -15 21 -8 7 -15 25 -15 41 0 16 -4 29 -10 29 -17 0
-11 25 8 35 10 6 35 19 56 30 32 16 37 23 34 49 -2 21 -11 35 -28 43 -16 8
-19 13 -9 13 9 0 22 7 29 15 18 22 125 19 218 -6z m1507 -179 c-3 -52 -9 -147
-13 -210 -7 -123 -13 -140 -42 -140 -21 0 -52 -42 -119 -161 -25 -44 -55 -83
-72 -93 -16 -9 -34 -27 -40 -39 -20 -39 -52 -67 -75 -67 -13 0 -40 11 -60 25
l-37 25 31 12 c35 13 40 29 17 48 -17 14 -19 42 -6 68 5 9 14 47 19 83 6 36
21 95 35 130 40 101 42 113 22 106 -11 -5 -15 -3 -13 5 3 7 17 16 31 21 15 4
39 10 54 15 16 4 37 22 48 40 80 132 161 239 177 235 4 -2 8 4 8 14 0 14 2 14
21 -3 20 -18 21 -25 14 -114z m-1760 110 c3 -5 -1 -10 -10 -10 -9 0 -13 5 -10
10 3 6 8 10 10 10 2 0 7 -4 10 -10z m743 -46 c56 -51 61 -59 59 -95 -1 -35 -4
-39 -28 -39 -15 0 -56 14 -92 31 -77 36 -153 45 -167 20 -8 -15 -9 -14 -15 2
-10 25 1 46 30 57 14 5 25 17 25 26 0 34 31 54 80 54 44 0 52 -5 108 -56z
m-788 36 c12 -7 12 -12 3 -21 -9 -9 -16 -9 -27 1 -26 21 -5 39 24 20z m-56
-27 c3 -10 11 -25 18 -34 9 -14 8 -22 -6 -43 -18 -29 -36 -26 -36 5 0 11 -7
22 -15 25 -20 8 -19 23 2 46 20 23 29 23 37 1z m725 -133 c49 -14 111 -59 111
-81 0 -21 21 -35 72 -44 41 -8 72 -37 82 -78 4 -15 19 -56 35 -90 18 -37 25
-66 20 -71 -5 -6 -9 -18 -9 -27 0 -9 -7 -19 -15 -23 -8 -3 -15 -15 -15 -27 0
-12 -8 -23 -19 -26 -21 -5 -66 -112 -77 -182 -6 -39 -9 -42 -20 -27 -7 10 -10
25 -7 34 4 10 2 14 -2 9 -8 -7 -45 20 -45 33 0 5 -13 22 -29 39 -29 31 -51 40
-51 20 0 -26 -23 1 -44 53 -13 31 -29 63 -37 71 -8 7 -25 38 -39 68 -14 30
-28 55 -32 57 -5 2 -8 9 -8 15 0 7 -11 34 -25 60 -33 61 -32 127 3 175 13 18
26 31 29 28 2 -2 19 2 36 9 39 17 43 17 86 5z m599 -156 c41 -14 96 -26 123
-26 49 -1 57 -6 40 -24 -19 -20 -58 -171 -80 -308 -5 -33 -16 -55 -31 -68 -28
-23 -70 -110 -70 -147 0 -28 -44 -106 -74 -130 -13 -11 -20 -11 -28 -3 -7 7
-47 12 -99 12 -51 0 -91 4 -94 11 -4 5 -18 14 -31 19 -13 5 -24 18 -24 28 0
10 -6 27 -14 38 -29 39 17 222 63 253 18 12 26 12 29 3 8 -24 22 -11 22 20 0
34 11 75 43 153 11 28 21 57 22 65 3 28 18 65 42 103 28 44 33 44 161 1z
m-262 -20 c18 -15 18 -15 -3 -9 -18 5 -23 2 -23 -12 0 -15 -2 -16 -10 -3 -24
37 -1 53 36 24z m-502 -107 c5 -21 3 -27 -9 -27 -8 0 -21 -11 -27 -25 -27 -59
-50 5 -25 71 8 23 13 53 10 66 -7 32 42 -51 51 -85z m-97 -72 c-7 -13 -14 -20
-15 -14 -2 5 2 16 8 24 18 21 20 18 7 -10z m143 -17 c0 -6 -7 -5 -15 2 -8 7
-15 17 -15 22 0 6 7 5 15 -2 8 -7 15 -17 15 -22z m-133 -60 c-3 -8 -6 -5 -6 6
-1 11 2 17 5 13 3 -3 4 -12 1 -19z m-188 -48 c12 0 19 -4 16 -10 -11 -17 -54
-11 -65 9 -15 29 -12 36 8 18 10 -10 29 -17 41 -17z m371 7 c8 -2 20 -18 25
-35 6 -17 21 -43 33 -57 12 -14 18 -25 12 -25 -5 0 -14 9 -20 19 -5 11 -40 34
-76 52 -36 18 -69 40 -74 49 -8 15 -4 16 38 8 26 -4 54 -10 62 -11z m-151 -10
c-2 -1 -13 -9 -24 -17 -19 -14 -19 -14 -6 3 7 9 18 17 24 17 6 0 8 -1 6 -3z
m362 -226 c47 -83 22 -79 -58 9 -53 59 -70 90 -48 90 8 0 15 6 15 13 1 18 56
-50 91 -112z m-550 -150 c-13 -24 -59 -54 -71 -46 -7 4 -6 13 0 26 6 11 8 24
5 29 -4 6 11 10 35 10 37 0 40 -2 31 -19z m-183 -43 c20 -20 14 -36 -20 -52
-39 -20 -38 -20 -38 6 0 20 26 58 40 58 3 0 11 -5 18 -12z"/>
<path d="M2557 2063 c-19 -18 -4 -54 38 -92 38 -35 48 -40 65 -31 22 12 27 45
9 56 -6 3 -15 1 -19 -6 -13 -21 -59 20 -60 53 0 25 -17 36 -33 20z"/>
<path d="M2754 1866 c-14 -11 -16 -18 -8 -26 19 -19 59 -8 62 18 4 26 -23 30
-54 8z"/>
<path d="M2773 1783 c-20 -8 -15 -31 18 -89 30 -54 42 -61 67 -45 22 14 11 56
-15 56 -29 0 -37 10 -38 47 0 32 -9 41 -32 31z"/>
<path d="M2366 1997 c-30 -30 -27 -54 5 -36 22 12 33 32 27 51 -3 8 -14 3 -32
-15z"/>
<path d="M2810 542 c0 -10 7 -27 15 -38 14 -19 14 -19 15 3 0 28 -10 53 -21
53 -5 0 -9 -8 -9 -18z"/>
<path d="M3780 2390 c-8 -4 -40 -18 -70 -30 -30 -11 -72 -32 -92 -45 -21 -14
-56 -37 -78 -51 -22 -15 -40 -33 -40 -40 0 -21 10 -18 76 22 79 48 163 89 199
98 31 8 45 21 45 44 0 14 -18 15 -40 2z"/>
<path d="M1010 2299 c-19 -10 -42 -19 -51 -19 -18 0 -59 -40 -59 -58 0 -12 86
17 127 44 31 20 79 17 139 -7 58 -24 84 -21 129 15 23 19 27 27 18 36 -8 9
-18 7 -43 -11 l-31 -23 -62 22 c-75 27 -121 27 -167 1z"/>
<path d="M1083 2204 c-6 -16 19 -44 39 -44 19 0 21 33 3 46 -25 18 -34 18 -42
-2z"/>
<path d="M815 2028 c-2 -7 -7 -26 -12 -43 -11 -36 -61 -64 -116 -65 -21 0 -57
-11 -80 -24 -23 -13 -59 -29 -79 -35 -61 -20 -207 -187 -236 -271 -18 -49 -16
-55 28 -75 22 -10 51 -33 65 -51 14 -19 60 -60 102 -91 42 -32 93 -70 112 -85
20 -15 45 -32 56 -37 11 -5 42 -25 70 -45 27 -20 55 -36 61 -36 5 0 34 -21 64
-46 56 -47 144 -96 195 -108 37 -8 135 -49 135 -56 0 -3 -15 -14 -34 -24 -18
-10 -60 -43 -93 -74 -32 -32 -82 -76 -109 -98 -83 -69 -123 -167 -204 -496
-22 -88 -23 -101 -11 -150 14 -56 46 -118 62 -118 14 0 11 21 -16 85 -30 73
-31 97 -6 183 10 37 29 103 41 147 56 206 73 242 143 305 22 19 75 67 118 107
43 39 87 74 97 77 23 8 45 47 40 72 -2 10 -14 24 -28 31 -53 27 -120 53 -135
53 -25 0 -146 68 -187 106 -20 18 -56 43 -80 55 -24 12 -57 32 -74 45 -17 13
-36 24 -41 24 -6 0 -17 7 -24 16 -8 9 -31 28 -52 41 -72 45 -77 55 -77 141 0
76 1 78 45 137 28 37 41 63 35 69 -13 13 -52 -15 -70 -50 -8 -16 -20 -36 -26
-44 -8 -9 -12 -44 -11 -93 1 -42 -1 -77 -6 -77 -4 0 -25 18 -47 40 -30 30 -40
48 -38 68 2 35 -18 72 -40 72 -16 1 -16 2 1 14 9 7 17 21 17 31 0 10 30 48 68
85 52 53 84 75 142 100 41 17 94 33 118 36 55 5 132 49 132 75 0 11 7 33 15
48 8 16 11 31 8 35 -11 10 -33 7 -38 -6z m-450 -478 c3 -5 2 -10 -4 -10 -5 0
-13 5 -16 10 -3 6 -2 10 4 10 5 0 13 -4 16 -10z"/>
<path d="M3827 1893 c-11 -10 -8 -43 3 -43 6 0 10 11 10 25 0 26 -2 29 -13 18z"/>
<path d="M884 1799 c-3 -6 19 -36 52 -68 33 -31 68 -69 79 -84 14 -20 25 -27
38 -22 9 4 17 11 17 17 0 13 -155 168 -168 168 -6 0 -14 -5 -18 -11z"/>
<path d="M295 1751 c-11 -5 -29 -18 -39 -30 -15 -17 -31 -21 -76 -21 -47 0
-63 -5 -93 -27 -40 -31 -69 -84 -49 -91 7 -2 12 -14 12 -27 0 -13 5 -36 12
-50 14 -30 44 -33 124 -9 43 12 54 20 54 36 0 17 -4 19 -22 13 -13 -4 -44 -12
-71 -18 -56 -13 -66 -6 -74 51 -5 35 -2 42 20 56 15 10 47 17 81 17 45 1 63 6
85 25 16 13 40 28 55 34 18 6 26 16 24 27 -4 20 -17 24 -43 14z"/>
<path d="M852 1338 c-10 -41 -4 -78 14 -78 10 0 14 14 14 49 0 59 -16 75 -28
29z"/>
<path d="M952 1357 c-8 -9 -12 -26 -10 -39 l3 -23 13 23 c7 13 12 30 10 39 -3
15 -4 15 -16 0z"/>
<path d="M3708 1364 c-3 -5 -6 -73 -7 -152 -1 -89 -8 -161 -16 -190 -8 -26
-15 -76 -15 -112 0 -36 -7 -128 -15 -205 -32 -290 -37 -351 -32 -381 3 -18 -1
-43 -8 -57 -7 -14 -16 -72 -20 -129 -4 -57 -9 -111 -11 -120 -4 -13 0 -18 15
-18 20 0 21 6 21 80 0 44 2 80 4 80 17 0 136 -35 158 -46 40 -21 60 -18 56 8
-2 16 -18 27 -68 44 -36 13 -75 23 -87 24 -12 0 -25 5 -28 10 -8 12 10 13 55
1 19 -6 56 -12 83 -14 43 -3 47 -2 47 19 0 12 -6 21 -12 21 -38 -2 -118 17
-118 28 0 8 -6 16 -12 19 -10 5 -10 7 1 12 8 4 42 35 77 69 56 55 64 67 64
101 l0 38 -29 -45 c-15 -24 -47 -60 -71 -79 -23 -19 -51 -43 -61 -53 -10 -9
-22 -17 -25 -17 -9 0 4 233 16 290 5 25 14 113 20 195 6 83 15 197 21 255 11
96 17 181 18 253 1 29 2 29 56 25 46 -2 55 0 55 14 0 9 -4 19 -9 22 -17 11
-118 18 -123 10z m-21 -1110 c-3 -3 -12 -4 -19 -1 -8 3 -5 6 6 6 11 1 17 -2
13 -5z"/>
<path d="M1034 1284 c-11 -40 -13 -59 -5 -67 7 -7 12 -6 15 4 2 8 9 29 15 48
14 42 14 71 1 71 -5 0 -17 -25 -26 -56z"/>
<path d="M1680 1096 c0 -21 26 -43 37 -32 9 8 -8 44 -22 50 -11 4 -15 -2 -15
-18z"/>
<path d="M1272 1015 c-38 -28 -24 -77 17 -56 25 14 32 35 18 55 -11 15 -14 15
-35 1z"/>
<path d="M1660 1000 c0 -27 56 -100 77 -100 21 0 15 20 -17 57 -16 18 -30 38
-30 43 0 6 -7 10 -15 10 -8 0 -15 -5 -15 -10z"/>
<path d="M513 698 c3 -13 20 -61 37 -108 41 -108 71 -145 86 -105 4 8 -2 23
-13 33 -11 9 -25 35 -33 57 -24 74 -59 145 -71 145 -7 0 -9 -9 -6 -22z"/>
<path d="M1350 592 c0 -11 9 -27 21 -38 24 -21 49 -76 49 -108 1 -26 20 -52
59 -80 17 -11 47 -48 67 -81 39 -64 39 -72 18 -237 -5 -39 -4 -48 8 -48 15 0
27 61 34 171 1 21 11 46 22 57 l20 20 26 -37 c14 -20 26 -45 26 -56 0 -10 7
-26 15 -35 8 -8 21 -33 30 -53 l16 -38 -38 7 c-21 4 -48 11 -61 15 -23 9 -23
10 -6 38 18 30 13 66 -9 59 -6 -3 -18 -28 -26 -57 -14 -52 -14 -54 10 -72 18
-14 41 -19 96 -19 l71 0 -10 32 c-16 52 -70 167 -140 296 -15 29 -28 64 -28
78 0 13 -9 32 -20 41 -11 10 -20 21 -20 25 0 9 -86 98 -94 98 -16 0 -3 -31 25
-61 54 -58 79 -95 79 -117 0 -12 10 -42 22 -67 19 -40 20 -47 8 -55 -20 -13
-30 -12 -30 0 0 6 -9 23 -19 38 -11 15 -22 44 -25 64 -4 20 -15 47 -26 60
l-19 23 -1 -29 0 -29 -25 23 c-13 13 -31 46 -40 74 -8 28 -24 66 -35 84 -22
35 -50 43 -50 14z"/>
<path d="M1867 553 c-12 -11 -8 -23 8 -23 8 0 15 7 15 15 0 16 -12 20 -23 8z"/>
<path d="M2277 463 c-10 -10 -8 -81 2 -87 18 -12 29 56 13 82 -5 7 -11 9 -15
5z"/>
<path d="M3370 341 c-26 -5 -36 -12 -41 -31 -12 -42 -10 -60 6 -60 8 0 15 9
15 20 0 24 15 27 24 4 4 -11 17 -14 43 -12 36 3 38 5 41 41 4 41 -4 46 -24 20
-12 -17 -13 -17 -14 -1 0 22 -8 25 -50 19z"/>
<path d="M2652 318 c-8 -18 -11 -19 -11 -5 -1 23 -16 22 -43 -5 -26 -26 -14
-51 26 -56 21 -3 29 2 33 17 7 26 23 28 23 2 0 -16 24 -30 53 -31 17 0 6 42
-13 47 -11 3 -17 9 -14 15 7 11 -14 38 -31 38 -6 0 -17 -10 -23 -22z"/>
<path d="M3076 325 c-3 -9 -6 -30 -6 -46 0 -39 30 -40 31 -1 1 20 2 22 6 7 3
-11 11 -25 20 -32 24 -19 43 -4 43 33 0 39 -22 54 -51 35 -14 -8 -18 -8 -17 0
5 18 -19 21 -26 4z"/>
<path d="M3206 299 c-8 -41 -3 -46 41 -45 31 1 38 5 43 26 4 14 5 31 2 38 -7
19 -32 14 -32 -7 0 -11 -4 -23 -10 -26 -6 -4 -10 5 -10 19 0 37 -26 33 -34 -5z"/>
<path d="M3387 152 c-37 -38 -45 -56 -28 -66 13 -8 81 65 81 86 0 27 -12 22
-53 -20z"/>
<path d="M3516 72 c-4 -11 -30 -31 -59 -45 l-52 -27 67 2 c60 3 68 5 68 23 0
11 3 30 6 43 8 28 -22 32 -30 4z"/>
</g>
</svg>
