<?xml version="1.0" standalone="no"?>
<!DOCTYPE svg PUBLIC "-//W3C//DTD SVG 20010904//EN"
 "http://www.w3.org/TR/2001/REC-SVG-20010904/DTD/svg10.dtd">
<svg version="1.0" xmlns="http://www.w3.org/2000/svg"
 width="384.000000pt" height="256.000000pt" viewBox="0 0 384.000000 256.000000"
 preserveAspectRatio="xMidYMid meet">
<metadata>
Created by potrace 1.16, written by Peter Selinger 2001-2019
</metadata>
<g transform="translate(0.000000,256.000000) scale(0.100000,-0.100000)"
fill="#000000" stroke="none">
<path d="M425 2292 l7 -268 -41 -12 c-43 -14 -59 -32 -59 -72 -1 -14 -6 -72
-12 -130 -15 -136 -27 -409 -19 -422 4 -6 -8 -23 -25 -39 -28 -24 -42 -28
-102 -31 -53 -2 -69 -6 -69 -18 0 -12 16 -16 69 -18 64 -3 73 -1 115 29 25 18
47 33 49 34 2 2 9 270 11 433 1 59 5 91 11 87 6 -4 9 -96 8 -248 -1 -215 -3
-245 -20 -272 -19 -32 -24 -75 -9 -75 6 0 16 12 23 28 10 21 21 28 51 30 29 3
41 9 49 28 13 29 15 29 75 5 26 -10 67 -22 90 -26 22 -3 74 -20 113 -36 99
-40 118 -39 360 17 36 8 90 19 120 24 30 5 79 13 109 18 29 5 57 16 62 23 5 8
9 60 9 116 0 60 4 103 10 105 6 2 13 16 16 32 6 34 -11 49 -38 35 -16 -9 -18
-25 -18 -139 l0 -130 -38 0 c-21 0 -42 4 -47 9 -6 4 -50 20 -100 35 l-90 27
-110 -15 c-60 -9 -127 -18 -147 -22 -33 -5 -38 -4 -38 12 -1 29 -29 281 -40
354 -23 158 -45 200 -111 215 l-26 6 -7 162 c-3 89 -9 210 -12 270 l-7 107
-41 0 -41 0 5 -214 c3 -118 8 -218 13 -222 8 -8 10 11 7 67 -1 21 3 40 9 44 8
4 11 -28 11 -104 l0 -111 -35 0 c-33 0 -35 2 -25 21 8 14 9 94 4 270 -7 239
-8 249 -27 249 -18 0 -19 -5 -13 -47 12 -92 20 -480 9 -486 -7 -5 -13 79 -18
263 -6 230 -10 270 -23 270 -13 0 -14 -33 -7 -268z m135 -2 c0 -5 -2 -10 -4
-10 -3 0 -8 5 -11 10 -3 6 -1 10 4 10 6 0 11 -4 11 -10z m-40 -322 l55 -3 -4
-126 c-3 -129 3 -184 20 -158 5 8 9 56 9 108 0 152 9 99 16 -89 3 -96 8 -179
12 -185 4 -5 9 -32 12 -60 5 -46 7 -50 33 -53 16 -2 27 -9 27 -18 0 -12 -7
-14 -32 -9 -18 4 -34 8 -36 10 -1 1 -5 27 -8 56 -8 75 -24 125 -35 108 -12
-20 -16 -2 -28 126 -16 175 -60 249 -87 146 -4 -14 -2 -26 6 -31 11 -7 10 -12
-3 -25 -12 -12 -17 -34 -17 -75 0 -32 -4 -62 -10 -65 -5 -3 -10 -15 -10 -25 0
-10 -5 -20 -10 -22 -6 -2 -13 -21 -17 -43 l-6 -40 21 19 c12 11 22 30 22 42 0
16 4 22 14 18 11 -4 16 11 21 73 3 43 11 88 17 99 5 12 7 32 3 45 -7 23 -6 23
8 4 14 -20 37 -226 37 -333 0 -59 -15 -63 -26 -7 -8 43 -20 53 -30 23 -14 -44
-54 -98 -73 -98 -27 0 -34 71 -30 309 2 108 1 201 -2 206 -15 26 -19 66 -7 69
7 2 27 8 43 13 17 5 32 6 35 2 3 -4 30 -9 60 -11z m184 -41 c9 -33 7 -57 -4
-57 -5 0 -12 12 -16 28 -3 15 -8 35 -11 44 -3 13 0 16 10 12 8 -3 18 -15 21
-27z m-53 -128 c-9 -23 -10 -22 -10 11 -1 23 2 31 9 24 7 -7 7 -19 1 -35z m73
-140 c7 -62 6 -67 -13 -72 -15 -3 -21 -14 -22 -34 -1 -18 -3 -21 -6 -10 -3 10
3 34 12 53 9 19 15 49 14 67 -2 40 0 72 5 66 2 -2 7 -34 10 -70z m-130 -214
c5 -36 4 -46 -3 -35 -10 13 -16 99 -7 89 2 -2 6 -26 10 -54z m113 18 c4 -11
-26 -27 -35 -19 -2 3 -2 12 2 21 6 18 27 16 33 -2z m83 -42 c0 -5 -13 -11 -30
-13 -36 -5 -39 -1 -7 12 29 12 37 12 37 1z m80 -75 c14 -2 43 -4 65 -6 35 -2
37 -3 15 -10 -56 -18 -193 -5 -223 21 -8 6 83 3 143 -5z"/>
<path d="M692 2533 c4 -39 28 -42 28 -4 0 21 -5 31 -16 31 -11 0 -14 -8 -12
-27z"/>
<path d="M3171 2536 c30 -20 51 -25 140 -30 130 -7 236 -20 269 -32 14 -6 33
-9 43 -6 18 4 24 31 7 33 -5 1 -16 2 -22 3 -8 1 -12 13 -10 29 2 19 -2 27 -13
27 -8 0 -15 -7 -15 -16 0 -13 -11 -15 -71 -10 -39 4 -79 11 -89 16 -10 6 -76
10 -147 10 l-128 0 36 -24z"/>
<path d="M80 2514 c0 -31 21 -60 33 -47 12 11 8 30 -13 54 l-19 24 -1 -31z"/>
<path d="M255 2514 c-4 -10 -11 -27 -16 -36 -5 -10 -9 -27 -9 -39 0 -36 27 -3
35 42 7 42 0 65 -10 33z"/>
<path d="M305 2490 c-6 -10 24 -59 37 -60 17 0 18 23 4 45 -17 26 -31 31 -41
15z"/>
<path d="M10 2448 c0 -52 149 -130 179 -94 12 14 -9 69 -31 82 -12 8 -29 -16
-21 -29 5 -9 -15 -4 -64 14 -12 4 -24 17 -28 28 -9 28 -35 27 -35 -1z"/>
<path d="M260 2396 c0 -7 11 -24 24 -37 13 -13 25 -33 27 -44 3 -12 12 -20 24
-20 26 0 26 26 0 40 -12 6 -19 17 -17 28 2 10 -2 24 -8 32 -16 19 -50 19 -50
1z"/>
<path d="M120 2104 c0 -9 5 -14 12 -12 18 6 21 28 4 28 -9 0 -16 -7 -16 -16z"/>
<path d="M40 1942 c0 -27 21 -38 93 -46 47 -6 57 -5 57 8 0 19 -9 24 -62 35
-24 5 -53 13 -65 16 -19 6 -23 3 -23 -13z"/>
<path d="M2250 1858 c-58 -10 -127 -25 -154 -33 -26 -8 -63 -15 -82 -15 -19 0
-53 -4 -76 -9 -24 -6 -90 -20 -148 -31 -58 -12 -121 -26 -141 -31 -20 -5 -66
-9 -103 -9 -58 0 -66 -2 -66 -19 0 -14 9 -21 38 -26 l37 -6 -2 -52 c-3 -65 4
-100 18 -91 7 4 9 23 6 49 -5 36 -2 46 23 77 25 30 37 36 86 42 31 3 65 11 75
16 10 6 53 15 96 20 43 6 89 14 103 19 14 5 66 15 115 21 50 7 119 18 155 25
36 7 95 10 133 8 57 -5 67 -8 67 -24 0 -11 -4 -19 -9 -19 -11 0 -24 -37 -25
-70 -1 -23 -6 -26 -76 -37 -41 -7 -104 -21 -140 -32 -36 -11 -85 -22 -110 -26
-25 -4 -53 -12 -63 -17 -28 -15 -286 -80 -362 -91 -38 -6 -74 -17 -78 -24 -4
-7 -14 -13 -22 -13 -11 0 -11 -8 1 -47 17 -56 18 -95 3 -110 -16 -16 -4 -29
32 -37 22 -4 46 1 83 19 29 14 57 25 63 25 5 0 57 14 114 31 210 62 266 78
359 105 52 14 100 30 105 34 6 5 29 13 52 19 24 7 50 22 60 34 l16 23 23 -23
c17 -17 35 -23 66 -23 24 0 70 -7 101 -15 32 -8 68 -15 81 -15 12 0 30 -6 40
-13 17 -12 11 -17 -55 -49 -41 -20 -101 -44 -134 -53 -33 -10 -72 -24 -87 -31
-15 -8 -46 -22 -70 -30 -170 -63 -242 -89 -307 -111 -68 -23 -75 -28 -89 -64
-17 -44 -32 -51 -32 -14 0 39 -28 31 -36 -10 -4 -24 -15 -40 -32 -49 -27 -14
-54 -9 -232 44 -36 11 -91 23 -124 26 -53 6 -58 5 -55 -11 5 -21 16 -25 164
-55 61 -13 114 -27 119 -32 6 -4 18 -8 27 -8 9 0 22 -6 28 -14 7 -8 21 -12 31
-9 19 5 20 0 20 -126 0 -86 -4 -130 -10 -126 -5 3 -10 19 -10 35 0 47 -18 44
-25 -4 -5 -31 -2 -54 9 -78 l17 -35 95 -1 c88 -1 96 0 101 18 3 11 11 20 18
20 7 0 15 7 18 14 3 8 22 18 41 22 20 3 36 10 36 14 0 5 9 12 20 15 11 4 27
20 35 36 9 17 24 29 35 29 15 0 20 7 20 25 0 20 -5 25 -25 25 -41 0 -30 27 13
32 34 5 57 -7 46 -23 -2 -4 1 -19 7 -33 l12 -25 28 20 c16 11 29 26 29 32 0
14 54 52 87 62 14 4 32 0 47 -10 24 -16 66 -13 66 5 0 4 12 16 26 25 26 17 27
17 21 -4 -3 -11 -1 -24 4 -27 23 -14 8 -34 -27 -34 -28 0 -35 -3 -32 -17 2
-13 14 -19 41 -21 30 -3 41 2 62 25 33 38 34 67 0 59 -18 -5 -25 -2 -25 9 0
10 10 15 29 15 43 0 61 10 61 32 0 22 18 60 34 70 6 4 24 8 39 8 43 0 33 34
-11 38 -18 2 -36 10 -39 18 -7 19 -33 18 -33 -1 0 -8 -5 -15 -10 -15 -7 0 -10
40 -8 112 3 111 3 113 30 125 14 7 50 18 80 23 29 6 67 16 83 24 17 8 57 22
90 31 33 9 74 22 90 30 17 7 53 21 80 31 28 9 60 26 72 37 12 11 39 21 59 23
20 2 47 10 59 18 12 8 36 13 53 11 36 -5 53 13 29 30 -18 13 -13 25 9 25 8 0
11 -6 8 -15 -4 -10 0 -15 13 -15 27 0 43 19 43 50 0 23 -4 27 -32 28 -28 1
-122 -30 -223 -73 -16 -7 -47 -20 -68 -29 -20 -9 -56 -19 -80 -22 -23 -4 -53
-15 -66 -26 -13 -10 -37 -18 -53 -18 -16 0 -38 -5 -49 -11 -11 -6 -44 -16 -72
-24 -44 -11 -54 -11 -74 2 -34 23 -174 57 -276 68 -48 5 -60 11 -69 30 -7 16
-7 29 2 44 7 15 9 46 5 89 -11 121 -14 131 -45 147 -35 18 -37 18 -170 -7z
m187 -200 c-3 -8 -6 -5 -6 6 -1 11 2 17 5 13 3 -3 4 -12 1 -19z m-57 -74 c0
-27 -4 -43 -10 -39 -5 3 -10 24 -10 46 0 21 5 39 10 39 6 0 10 -21 10 -46z
m37 -1 c-3 -10 -5 -2 -5 17 0 19 2 27 5 18 2 -10 2 -26 0 -35z m-117 -19 c0
-49 -4 -52 -95 -74 -27 -7 -122 -34 -210 -61 -88 -26 -187 -54 -221 -63 -34
-9 -87 -27 -119 -41 -31 -14 -58 -25 -59 -23 -9 13 -20 130 -14 134 5 3 39 10
75 15 37 5 71 14 78 19 6 5 46 16 89 25 43 9 86 20 95 25 9 4 59 18 111 30 52
12 113 28 135 35 57 18 119 32 128 28 4 -3 7 -24 7 -49z m1100 52 c0 -3 -4 -8
-10 -11 -5 -3 -10 -1 -10 4 0 6 5 11 10 11 6 0 10 -2 10 -4z m-300 -110 c0 -2
-9 -6 -20 -9 -11 -3 -18 -1 -14 4 5 9 34 13 34 5z m-408 -274 l-3 -128 -27 1
-27 0 4 85 c3 78 15 122 43 158 6 6 11 12 12 12 0 0 0 -58 -2 -128z m-58 99
c-5 -5 -45 -23 -89 -41 -44 -17 -89 -35 -100 -40 -11 -4 -39 -13 -62 -19 -26
-7 -43 -18 -43 -27 0 -17 10 -21 64 -27 31 -4 44 0 68 21 50 45 61 45 75 -2 7
-23 13 -50 13 -62 0 -20 -2 -21 -52 -8 -29 8 -63 14 -77 14 -41 0 -141 43
-138 60 2 16 216 108 252 109 11 1 36 9 55 20 34 18 53 19 34 2z m-450 -165
c-10 -8 -21 -12 -24 -10 -5 6 21 24 34 24 6 0 1 -6 -10 -14z m114 -25 c38 -19
150 -51 180 -51 9 0 30 -7 46 -15 15 -8 40 -15 55 -15 20 0 23 -2 11 -10 -12
-8 -13 -13 -3 -29 10 -16 8 -22 -10 -39 -22 -21 -22 -21 -47 -1 -14 10 -42 24
-62 29 -22 6 -38 17 -38 25 0 20 -63 20 -79 1 -6 -7 -42 -16 -82 -20 -79 -8
-119 -33 -119 -74 0 -23 -2 -24 -66 -20 -57 3 -67 0 -76 -17 -6 -11 -20 -27
-31 -36 -10 -9 -27 -38 -36 -64 -29 -85 -38 -66 -33 72 5 149 6 152 97 178 33
9 79 25 102 36 23 10 47 19 52 19 6 0 30 11 53 25 24 13 44 24 46 25 1 0 19
-8 40 -19z m-143 -281 c4 -6 -5 -10 -19 -10 -14 0 -26 5 -26 10 0 6 9 10 19
10 11 0 23 -4 26 -10z m-176 -139 c-13 -11 -30 -20 -37 -21 -21 0 9 39 33 42
30 5 31 1 4 -21z"/>
<path d="M3765 1801 c-33 -15 -85 -40 -115 -56 -31 -16 -67 -28 -82 -26 -28 3
-33 -5 -22 -33 9 -23 58 -20 102 7 20 13 72 40 115 60 59 28 77 41 77 57 0 25
-1 24 -75 -9z"/>
<path d="M3558 1563 c-9 -2 -19 -11 -22 -19 -4 -11 4 -14 34 -14 30 0 40 -5
45 -20 5 -14 29 -27 93 -47 48 -15 93 -33 100 -40 21 -21 34 -15 30 15 -3 25
-11 30 -98 58 -61 20 -99 39 -108 53 -14 20 -36 24 -74 14z"/>
<path d="M1440 1425 c0 -8 5 -15 10 -15 6 0 10 7 10 15 0 8 -4 15 -10 15 -5 0
-10 -7 -10 -15z"/>
<path d="M1500 1391 c-34 -9 -35 -46 -1 -46 27 0 51 29 36 43 -6 5 -21 6 -35
3z"/>
<path d="M3560 1365 c0 -18 40 -39 123 -65 76 -24 77 -24 77 -1 0 18 -36 36
-141 70 -47 15 -59 14 -59 -4z"/>
<path d="M1416 1354 c-4 -9 1 -28 10 -42 14 -21 18 -23 25 -9 10 17 -5 67 -20
67 -5 0 -12 -7 -15 -16z"/>
<path d="M3817 1342 c-22 -25 -21 -39 3 -52 19 -10 20 -8 18 29 -2 23 -3 41
-4 41 0 0 -8 -8 -17 -18z"/>
<path d="M1369 1335 c-3 -3 -44 -10 -90 -16 -138 -17 -251 -58 -206 -75 9 -3
31 -1 49 5 41 14 249 41 260 35 4 -3 8 -68 8 -145 0 -96 3 -139 11 -139 8 0 8
-4 -1 -15 -13 -15 -17 -99 -19 -363 -1 -183 6 -166 -86 -190 -86 -22 -191 -55
-201 -63 -6 -5 -14 -6 -18 -2 -4 4 -9 -3 -13 -15 -4 -17 -9 -20 -18 -12 -8 6
-22 7 -36 2 -13 -5 -37 -6 -54 -3 l-30 6 -5 100 c-3 55 -3 251 0 435 3 184 4
337 3 339 -1 2 -9 1 -18 -3 -14 -5 -16 -54 -15 -458 0 -249 -3 -466 -8 -482
l-8 -30 -22 42 c-20 39 -21 58 -28 457 -5 293 -10 415 -18 412 -12 -4 -11
-594 0 -834 6 -118 6 -123 -14 -123 -11 0 -29 14 -42 33 -34 49 -68 70 -128
78 -30 4 -78 20 -107 34 l-53 27 -4 142 c-4 108 -2 145 9 157 10 12 13 84 13
337 0 278 -2 322 -15 322 -13 0 -14 -41 -12 -306 l2 -307 -26 -19 c-15 -11
-41 -21 -58 -23 -18 -1 -37 -7 -44 -14 -6 -6 -25 -11 -42 -11 -17 0 -40 -7
-51 -15 -10 -8 -28 -15 -39 -15 -11 0 -58 -13 -105 -29 -70 -23 -86 -32 -88
-51 -3 -16 0 -21 10 -18 89 33 122 40 140 29 17 -10 20 -9 25 8 3 12 12 21 19
21 22 0 17 -57 -6 -77 -11 -10 -20 -27 -20 -39 0 -22 -41 -48 -93 -59 -20 -4
-27 -11 -25 -23 5 -26 97 -18 120 11 14 18 18 19 33 7 19 -15 74 -15 89 0 6 6
22 10 37 10 15 0 31 5 34 10 4 6 14 10 23 8 10 -1 23 1 29 5 9 6 13 2 13 -12
0 -11 -4 -23 -10 -26 -5 -3 -10 -10 -10 -16 0 -13 52 -58 91 -77 22 -12 33
-25 35 -43 1 -15 14 -45 28 -68 l26 -40 -33 6 c-17 3 -52 17 -77 31 -89 49
-121 63 -163 71 -23 5 -73 16 -112 24 -113 24 -205 30 -205 14 0 -21 46 -37
134 -48 128 -15 229 -44 313 -90 77 -42 169 -67 256 -68 20 -1 46 -6 56 -13
25 -15 350 14 403 37 20 8 63 17 95 21 32 3 83 14 113 24 58 20 140 37 310 66
105 19 190 21 307 9 45 -5 76 -2 111 9 57 19 89 20 252 7 229 -18 265 -23 309
-42 24 -10 58 -19 75 -19 17 0 57 -9 89 -20 31 -11 66 -20 77 -20 11 0 43 -11
72 -25 28 -14 57 -25 63 -25 7 0 26 -13 43 -30 36 -34 52 -38 52 -12 0 18 -57
69 -100 89 -72 34 -125 53 -147 53 -13 0 -40 7 -59 15 -19 8 -59 17 -87 21
-29 4 -70 15 -92 25 -22 10 -71 20 -110 23 -38 3 -133 9 -210 15 -92 6 -155 6
-185 -1 -100 -22 -184 -27 -207 -12 -29 18 -106 18 -159 -1 -23 -8 -88 -19
-145 -25 -57 -5 -130 -19 -164 -29 -125 -39 -173 -51 -206 -51 -19 0 -54 -7
-79 -16 -55 -20 -248 -44 -352 -44 -60 0 -78 3 -78 14 0 20 23 26 91 26 66 0
152 32 187 70 17 18 31 23 64 22 45 -2 270 69 276 86 9 29 33 43 82 51 30 5
76 21 102 36 45 25 46 27 50 81 3 60 -4 74 -39 74 -31 0 -93 31 -93 47 0 21 4
27 20 28 8 1 22 2 30 3 9 1 20 17 25 35 10 33 19 36 76 22 21 -5 29 -1 43 20
22 34 12 48 -57 74 -29 11 -73 29 -99 41 -46 20 -48 23 -48 61 0 50 -23 49
-28 -1 -7 -70 8 -84 131 -124 9 -3 17 -10 17 -15 0 -8 -81 9 -130 27 -8 3 -19
6 -25 6 -14 1 -15 134 -1 149 6 7 19 24 29 39 29 45 20 178 -13 178 -4 0 -6
-34 -3 -75 4 -53 3 -75 -6 -75 -7 0 -11 35 -12 113 -1 142 -9 201 -29 205 -9
1 -18 0 -21 -3z m82 -591 c13 -7 32 -17 42 -20 9 -3 17 -13 17 -21 0 -10 -10
-13 -37 -11 -31 2 -38 0 -37 -14 0 -10 1 -36 2 -59 2 -36 6 -42 40 -56 20 -9
51 -19 67 -22 23 -5 30 -12 30 -30 0 -35 -46 -64 -110 -71 l-55 -6 0 175 c0
101 4 170 9 163 4 -8 19 -20 32 -28z m-1053 -134 c3 -9 -1 -11 -12 -7 -10 4
-27 7 -37 7 -11 0 -18 4 -14 9 8 14 58 6 63 -9z m-88 -42 c0 -10 -4 -18 -10
-18 -5 0 -18 -17 -29 -37 -16 -31 -20 -34 -21 -16 0 12 -4 25 -10 28 -5 3 -10
19 -10 34 0 27 3 28 40 27 31 0 40 -5 40 -18z m917 -220 c-3 -8 -6 -5 -6 6 -1
11 2 17 5 13 3 -3 4 -12 1 -19z m-130 -30 c-3 -8 -6 -5 -6 6 -1 11 2 17 5 13
3 -3 4 -12 1 -19z m-117 -32 c0 -3 -4 -8 -10 -11 -5 -3 -10 -1 -10 4 0 6 5 11
10 11 6 0 10 -2 10 -4z m-354 -16 c25 0 44 -9 74 -36 52 -47 52 -64 0 -64 -65
0 -119 36 -135 89 -6 20 -4 23 10 18 9 -4 32 -7 51 -7z m300 -17 c-10 -10 -19
5 -10 18 6 11 8 11 12 0 2 -7 1 -15 -2 -18z"/>
<path d="M1450 1256 c0 -34 16 -43 105 -61 98 -21 265 -74 286 -92 20 -17 39
-17 39 0 0 22 -45 57 -86 68 -21 6 -82 23 -134 39 -52 15 -111 31 -131 34 -21
4 -42 13 -49 21 -18 22 -30 18 -30 -9z"/>
<path d="M687 1018 c-17 -68 -28 -206 -22 -270 4 -40 7 -88 8 -107 1 -19 7
-36 13 -38 16 -5 25 63 13 95 -13 35 -19 133 -9 152 13 25 24 190 12 190 -5 0
-12 -10 -15 -22z"/>
<path d="M1777 933 c-4 -6 -9 -44 -13 -84 -3 -41 -10 -89 -16 -107 -12 -40 1
-62 22 -37 15 19 32 203 20 224 -4 8 -10 10 -13 4z"/>
<path d="M2454 908 c-6 -10 20 -38 35 -38 17 1 33 20 28 34 -7 18 -52 22 -63
4z"/>
<path d="M740 826 c0 -66 15 -96 25 -53 10 37 1 110 -12 115 -10 3 -13 -14
-13 -62z"/>
<path d="M1775 680 c-4 -7 -1 -19 8 -27 12 -12 19 -13 36 -3 12 6 20 17 18 23
-5 16 -53 21 -62 7z"/>
<path d="M0 381 c0 -12 5 -21 10 -21 6 0 10 6 10 14 0 8 -4 18 -10 21 -5 3
-10 -3 -10 -14z"/>
<path d="M1492 334 c-25 -21 -35 -74 -14 -81 6 -3 12 3 12 13 0 10 7 25 16 35
9 10 14 25 12 34 -3 16 -5 16 -26 -1z"/>
</g>
</svg>
