<?xml version="1.0" standalone="no"?>
<!DOCTYPE svg PUBLIC "-//W3C//DTD SVG 20010904//EN"
 "http://www.w3.org/TR/2001/REC-SVG-20010904/DTD/svg10.dtd">
<svg version="1.0" xmlns="http://www.w3.org/2000/svg"
 width="328.000000pt" height="256.000000pt" viewBox="0 0 328.000000 256.000000"
 preserveAspectRatio="xMidYMid meet">
<metadata>
Created by potrace 1.16, written by Peter Selinger 2001-2019
</metadata>
<g transform="translate(0.000000,256.000000) scale(0.100000,-0.100000)"
fill="#000000" stroke="none">
<path d="M580 2529 c-32 -41 -35 -49 -16 -49 9 0 16 -4 16 -10 0 -5 -6 -10
-14 -10 -16 0 -28 -37 -15 -46 5 -3 21 4 35 15 31 25 56 28 48 6 -8 -19 13
-45 36 -45 13 0 19 11 24 40 4 26 11 40 21 40 8 0 15 6 15 14 0 8 17 23 37 33
45 22 56 45 19 41 -14 -2 -28 -7 -32 -11 -4 -4 -22 -7 -41 -7 -29 0 -33 -3
-33 -25 0 -34 -13 -31 -47 10 l-28 35 -25 -31z m40 -23 c0 -3 -4 -8 -10 -11
-5 -3 -10 -1 -10 4 0 6 5 11 10 11 6 0 10 -2 10 -4z"/>
<path d="M836 2548 c4 -6 -1 -17 -11 -24 -16 -12 -17 -17 -5 -39 14 -26 29
-33 31 -15 1 6 3 15 4 20 1 6 3 13 4 17 0 4 6 2 13 -5 17 -17 38 -15 38 4 0 9
-9 18 -20 21 -23 6 -26 19 -7 26 6 3 -3 6 -21 6 -23 1 -31 -3 -26 -11z"/>
<path d="M918 2553 c14 -6 16 -85 2 -99 -5 -5 -11 -33 -12 -62 -3 -49 -4 -52
-30 -52 -16 0 -33 -8 -41 -20 -14 -20 -15 -20 -53 15 -22 19 -45 35 -51 35
-26 0 -12 -28 26 -55 22 -15 41 -37 43 -48 2 -17 10 -22 35 -22 41 0 49 -9 34
-41 -8 -18 -16 -24 -28 -20 -9 4 -32 -4 -55 -19 -41 -27 -49 -45 -20 -46 10 0
12 -3 5 -6 -20 -7 -16 -43 5 -43 9 -1 33 -14 52 -30 19 -17 38 -30 42 -30 4 0
13 18 19 40 14 47 29 36 29 -22 0 -27 4 -38 15 -38 10 0 15 -10 15 -28 0 -30
19 -46 67 -56 30 -7 30 -8 26 -54 -3 -26 -11 -51 -17 -57 -18 -14 -47 -135
-57 -235 -5 -47 -13 -106 -17 -132 -6 -34 -4 -64 9 -114 11 -41 14 -75 9 -88
-4 -12 -4 -55 0 -96 7 -66 5 -82 -16 -130 -14 -34 -25 -87 -29 -137 -6 -80 -5
-85 29 -157 20 -42 36 -80 36 -85 0 -5 -11 -31 -25 -58 -17 -36 -23 -59 -19
-84 6 -34 -14 -105 -23 -81 -3 6 -17 12 -31 12 -46 0 -90 34 -98 75 -6 35 -1
205 12 350 7 77 -10 157 -50 249 -26 59 -68 86 -146 94 -25 2 -63 10 -85 18
-22 8 -53 14 -69 14 -21 0 -26 3 -18 13 5 6 15 38 22 70 7 31 17 57 21 57 4 0
10 18 14 40 4 22 11 40 17 40 6 0 8 13 4 34 -4 21 0 52 10 82 18 52 16 100
-10 263 -11 72 -11 88 2 113 11 23 12 35 3 54 -6 13 -11 63 -12 110 -1 73 -3
85 -17 82 -13 -2 -17 -15 -17 -54 0 -30 -6 -59 -15 -69 -8 -10 -14 -26 -12
-37 3 -19 -14 -23 -56 -12 -25 7 -31 34 -7 34 21 0 22 132 1 149 -8 7 -17 22
-20 35 -4 16 -17 26 -44 34 -50 15 -52 15 -52 -2 0 -8 16 -20 35 -27 39 -14
46 -29 14 -29 -19 0 -20 -5 -18 -77 1 -62 -1 -77 -12 -75 -8 2 -29 6 -47 9
l-32 6 0 -72 c0 -67 8 -94 38 -132 12 -15 2 -16 -118 -11 -112 4 -130 3 -130
-11 0 -22 22 -27 120 -27 93 0 186 -15 196 -31 4 -7 -7 -8 -28 -4 -18 3 -46 2
-62 -3 -26 -7 -28 -10 -14 -23 14 -12 7 -15 -61 -26 -165 -27 -151 -22 -151
-59 l0 -34 72 0 c50 0 76 -5 88 -15 10 -9 37 -18 60 -21 24 -3 55 -11 69 -18
14 -7 32 -11 39 -9 6 3 12 0 12 -6 0 -7 -24 -11 -60 -11 -47 0 -60 3 -60 15 0
8 -7 15 -16 15 -12 0 -14 -9 -12 -37 l3 -37 47 3 c26 1 56 0 67 -4 17 -5 18
-10 9 -35 -12 -35 -26 -37 -61 -10 -27 22 -72 27 -83 9 -4 -7 -21 5 -45 32
-21 24 -46 52 -56 61 -21 23 -16 26 29 21 27 -4 38 -10 40 -25 3 -20 3 -20 20
-1 15 17 16 22 4 38 -11 15 -28 20 -90 21 l-76 2 0 -45 c0 -28 6 -50 17 -61
16 -16 16 -17 0 -20 -20 -4 -22 -32 -4 -51 9 -11 9 -14 0 -18 -23 -8 -14 -32
14 -39 14 -4 40 -2 57 4 16 7 32 9 35 6 11 -11 -32 -33 -75 -40 -35 -5 -44
-10 -44 -26 0 -16 5 -18 38 -12 20 3 48 12 62 20 14 7 33 16 43 20 9 3 17 13
17 21 0 12 8 14 37 10 20 -4 39 -10 42 -14 3 -4 15 -13 26 -19 11 -6 22 -19
24 -29 3 -17 2 -17 -13 -3 -9 9 -32 22 -51 28 -30 10 -42 9 -70 -5 -42 -19
-44 -31 -9 -47 22 -10 28 -10 39 6 16 21 43 15 69 -13 16 -18 16 -21 -4 -61
-16 -32 -19 -45 -10 -50 7 -4 10 -12 7 -17 -3 -5 -2 -15 3 -23 14 -23 -19 -68
-54 -73 -17 -2 -34 0 -37 5 -3 5 -13 6 -22 2 -9 -3 -15 -9 -12 -14 4 -7 -49
-60 -60 -60 -3 0 -5 24 -5 53 0 66 -14 115 -40 139 -20 18 -20 18 -18 -34 1
-29 3 -45 6 -35 2 9 7 17 12 17 4 0 8 -59 8 -131 0 -103 -3 -132 -14 -136 -13
-5 -21 -43 -9 -43 4 0 18 6 33 14 15 7 47 17 72 21 33 5 52 15 73 38 25 29 27
30 18 7 -5 -14 -14 -45 -21 -70 -7 -25 -25 -83 -40 -128 -43 -132 -20 -155
163 -166 87 -5 108 -4 105 6 -2 7 -19 17 -36 23 -18 5 -32 15 -32 22 0 16 -16
17 -26 2 -4 -8 -27 -9 -70 -5 -95 10 -97 11 -89 65 3 25 12 60 20 76 23 50 65
198 65 230 0 46 18 97 45 128 20 23 28 26 44 17 11 -5 26 -22 33 -38 7 -15 20
-28 28 -28 8 -1 23 -2 33 -3 10 -1 15 -6 11 -12 -3 -6 -17 -8 -30 -5 -30 8
-32 -18 -5 -54 l19 -25 7 28 c11 43 25 32 25 -20 0 -27 5 -66 11 -88 6 -22 11
-47 11 -55 1 -8 6 -18 12 -22 14 -9 9 -58 -15 -137 -28 -93 -26 -251 6 -398 8
-35 33 -54 63 -47 15 3 22 2 16 -3 -19 -14 -23 -41 -11 -66 9 -21 23 -27 77
-36 77 -12 94 -3 84 47 -4 18 -10 32 -15 32 -5 0 -9 5 -9 10 0 6 6 10 13 10
21 0 77 206 62 230 -11 18 -25 0 -25 -33 0 -18 -7 -45 -15 -61 -8 -15 -13 -31
-11 -35 2 -3 0 -15 -5 -26 -6 -16 -8 -14 -8 13 -1 22 -5 32 -13 29 -7 -2 -12
-15 -11 -29 1 -23 -1 -24 -60 -24 -34 0 -71 -2 -82 -5 -17 -3 -21 5 -32 61
-20 106 -16 250 9 343 21 78 21 81 4 130 -24 68 -55 380 -38 391 8 5 66 -12
87 -26 6 -3 33 -9 60 -13 55 -8 84 -21 101 -43 13 -18 12 -151 -1 -173 -5 -8
-8 -21 -7 -30 2 -10 -6 -19 -18 -22 -16 -4 -30 -37 -15 -37 37 0 84 66 86 121
l0 24 11 -25 c6 -15 7 -61 4 -115 -17 -238 -18 -309 -6 -365 12 -57 13 -59 62
-79 42 -18 49 -23 38 -36 -15 -18 -5 -35 23 -36 17 -1 13 -5 -16 -17 -35 -14
-38 -18 -35 -51 l3 -36 64 0 c91 0 97 6 76 86 -10 35 -17 71 -16 79 4 64 22
163 37 201 l18 47 -37 84 c-36 80 -37 87 -31 158 4 47 16 92 30 122 22 43 23
54 16 125 -5 43 -6 92 -2 109 4 17 1 53 -7 85 -9 31 -12 73 -9 99 4 25 9 81
12 125 7 95 28 183 55 233 10 20 19 43 19 50 0 24 16 4 49 -60 18 -35 39 -74
46 -88 8 -13 11 -29 7 -35 -5 -5 -7 -27 -6 -47 0 -21 -3 -38 -8 -38 -16 0 -47
-35 -48 -55 0 -11 -1 -33 -1 -48 -1 -26 -4 -28 -28 -22 -14 4 -33 13 -42 21
-21 19 -39 18 -39 -4 0 -12 19 -27 55 -45 l55 -27 1 -77 c2 -142 13 -183 50
-183 19 0 18 -3 -11 -40 -34 -42 -90 -80 -90 -59 0 6 9 13 20 16 11 3 20 14
20 24 0 10 5 30 12 45 10 22 10 28 -6 39 -22 17 -47 9 -39 -12 4 -11 2 -14 -5
-9 -8 5 -12 -3 -12 -24 0 -17 -5 -40 -10 -50 -7 -13 -7 -21 0 -25 8 -5 7 -11
0 -20 -13 -16 -4 -39 12 -29 5 3 42 7 81 8 71 1 72 1 69 26 -2 14 -10 30 -18
36 -22 17 -17 22 25 20 23 0 47 6 58 15 12 11 46 18 101 22 80 5 102 11 90 22
-8 9 -193 9 -206 1 -9 -5 -12 10 -12 56 1 71 19 102 60 105 82 4 246 26 254
33 12 12 -2 30 -25 30 -20 0 -26 15 -10 25 5 3 30 0 55 -7 50 -13 66 -7 50 20
-8 12 -6 26 5 52 14 31 19 34 38 25 21 -9 22 -12 20 -225 l-1 -215 38 2 39 3
-29 -25 c-21 -18 -26 -27 -17 -36 8 -8 18 -6 37 6 20 13 24 23 20 41 -4 15 -2
24 5 24 8 0 10 31 6 109 -6 124 9 160 20 49 4 -39 14 -86 21 -104 19 -46 18
-57 -7 -49 -17 6 -20 3 -17 -12 2 -10 14 -19 28 -21 14 -2 39 -14 56 -27 17
-13 43 -27 57 -30 30 -8 47 13 24 30 -22 16 -11 54 20 66 17 6 42 3 89 -12 63
-20 64 -22 64 -56 0 -23 4 -33 13 -30 6 2 11 14 10 26 -2 11 -1 21 2 21 12 0
55 -24 55 -32 0 -17 31 -7 52 17 12 14 31 25 42 25 59 1 143 62 181 133 9 15
21 27 28 27 6 0 37 18 67 40 66 48 65 49 92 -99 15 -78 37 -232 33 -231 0 0
-22 11 -49 25 -42 21 -63 25 -143 25 -92 0 -105 4 -81 28 6 6 9 15 5 18 -11
11 -39 -5 -44 -26 -5 -20 -36 -35 -52 -25 -5 3 -12 1 -15 -4 -3 -5 -17 -12
-32 -15 -41 -11 -104 -55 -114 -80 -7 -19 -14 -22 -42 -19 -33 4 -33 4 -12
-14 19 -17 20 -25 14 -75 -10 -74 -20 -102 -31 -91 -19 19 -66 122 -59 130 5
4 10 31 12 58 3 44 0 50 -17 53 -14 2 -24 -6 -33 -27 -20 -44 -42 -48 -42 -7
0 39 17 56 63 65 44 9 43 37 -1 34 -60 -2 -98 -59 -85 -126 8 -39 46 -47 73
-16 25 31 25 18 0 -31 -20 -40 -29 -90 -11 -61 14 22 38 6 46 -31 4 -18 11
-37 15 -43 5 -5 11 -35 15 -65 4 -30 9 -57 11 -59 2 -2 -1 -10 -7 -17 -13 -16
-4 -34 17 -34 8 0 14 10 14 25 0 25 14 33 25 15 3 -5 19 -10 36 -10 16 0 29
-4 29 -10 0 -5 -4 -10 -10 -10 -14 0 -12 -38 3 -43 7 -2 8 -8 3 -13 -5 -5 -11
-4 -13 4 -6 17 -43 15 -43 -2 0 -7 8 -20 19 -27 10 -8 22 -27 26 -44 l7 -30
-31 29 c-23 22 -34 27 -42 19 -6 -6 -18 -9 -25 -6 -9 3 -14 -1 -14 -12 0 -11
6 -15 18 -11 26 9 74 -38 71 -67 -2 -12 -1 -27 3 -32 3 -6 4 -22 1 -38 -5 -25
-9 -27 -47 -25 -41 1 -42 2 -38 35 3 25 0 33 -12 33 -9 0 -16 -8 -16 -19 0
-30 -11 -51 -26 -51 -8 0 -14 8 -14 18 -1 20 -23 52 -37 52 -6 0 -8 -10 -6
-23 6 -31 -19 -53 -37 -32 -7 8 -19 15 -28 15 -16 0 -41 28 -42 48 0 9 7 8 25
-4 13 -8 29 -13 35 -9 13 8 13 35 -1 35 -6 0 -8 9 -4 20 5 16 2 20 -17 20 -13
0 -32 7 -42 15 -11 8 -27 15 -37 15 -9 0 -22 7 -30 16 -11 13 -9 14 14 9 20
-5 27 -3 27 8 0 21 -58 31 -76 13 -14 -14 -54 -11 -54 5 0 5 11 16 24 25 21
13 25 23 24 63 0 66 37 151 63 144 16 -4 19 0 19 25 0 21 7 35 20 42 19 10 28
40 13 40 -13 0 -63 -54 -63 -67 0 -8 -7 -16 -15 -20 -23 -8 -54 -78 -61 -137
-4 -30 -15 -58 -25 -69 -11 -10 -19 -28 -19 -40 -1 -12 -7 -33 -15 -47 -23
-40 -18 -58 15 -65 17 -4 42 -19 55 -33 27 -29 35 -53 9 -28 -8 9 -27 19 -42
22 -15 4 -35 13 -44 21 -19 17 -41 8 -75 -31 -19 -22 -31 -26 -76 -26 -63 0
-77 -11 -77 -60 0 -61 25 -75 136 -75 73 0 97 3 104 15 6 9 10 10 10 3 0 -19
57 -25 153 -16 53 6 91 5 96 0 6 -6 85 -12 178 -14 92 -3 183 -9 202 -15 31
-9 37 -8 52 11 31 38 64 182 42 181 -5 0 -17 -7 -27 -15 -40 -31 -73 -12 -43
24 7 9 18 32 24 53 8 29 8 39 -4 51 -13 13 -18 34 -22 90 -1 5 -7 7 -13 4 -15
-4 -12 -65 4 -85 7 -8 7 -12 -1 -12 -15 0 -31 43 -31 85 0 20 -6 35 -15 39 -8
3 -15 15 -15 27 0 42 -33 129 -51 134 -25 8 -59 67 -59 102 0 17 9 38 20 48
11 10 20 24 20 31 0 7 30 28 68 46 66 33 69 33 208 33 l142 0 43 -31 c24 -18
45 -39 47 -48 2 -9 -5 -35 -16 -59 -11 -23 -23 -51 -26 -62 -3 -11 -15 -26
-27 -33 -17 -11 -24 -11 -37 1 -14 12 -36 13 -115 7 -55 -4 -104 -13 -110 -19
-6 -6 -37 -11 -69 -11 -45 0 -58 -3 -58 -15 0 -14 10 -18 82 -30 29 -4 39 -2
46 12 8 14 29 19 99 23 96 6 148 -8 159 -42 7 -22 30 -18 26 4 -2 12 10 13 60
10 65 -5 81 -14 74 -44 -2 -9 5 -26 15 -37 26 -27 24 -30 -13 -25 -46 6 -88
-5 -88 -22 0 -12 26 -14 161 -12 l161 3 24 28 c17 20 22 33 15 45 -16 32 -20
219 -5 282 8 33 16 111 19 172 5 124 13 178 25 178 11 0 20 -27 20 -63 0 -36
38 -118 58 -125 18 -6 15 26 -7 56 -10 15 -22 52 -26 82 -5 40 -15 62 -33 78
-23 22 -25 31 -30 153 l-5 129 44 0 c24 -1 63 -5 87 -9 l42 -8 0 560 c0 308
-2 558 -4 556 -2 -2 -7 -242 -10 -534 -3 -291 -6 -533 -6 -537 0 -3 -13 -1
-30 5 -16 6 -25 14 -19 18 11 6 11 115 4 609 -2 118 -4 266 -4 328 -1 82 -4
112 -13 112 -10 0 -13 -111 -13 -524 0 -288 -3 -527 -7 -531 -4 -4 -28 -4 -53
-1 l-46 7 7 77 c4 42 10 87 15 99 4 12 4 36 -1 54 -5 18 -12 72 -16 120 -6 82
-5 87 15 98 25 14 28 43 4 39 -15 -3 -17 11 -20 112 -4 113 -7 130 -20 117
-11 -11 -4 -435 7 -478 7 -24 7 -46 2 -56 -14 -26 -25 -213 -14 -213 6 0 13
-8 17 -17 12 -29 22 -294 13 -341 -4 -24 -10 -97 -12 -161 -2 -64 -9 -128 -14
-142 -16 -40 -25 -138 -15 -152 12 -16 4 -127 -10 -127 -6 0 -21 10 -34 22
l-23 21 0 -24 c0 -37 23 -63 49 -56 11 3 21 2 21 -3 0 -11 -27 -20 -61 -20
-27 0 -28 2 -17 21 10 17 10 23 1 26 -7 3 -13 17 -13 31 0 34 -1 35 -87 110
-68 60 -71 64 -75 112 -1 28 0 51 4 53 3 1 8 61 10 133 3 117 1 134 -15 152
-19 21 -19 21 29 6 70 -21 76 -11 16 26 -29 18 -49 36 -44 39 5 3 11 25 14 49
5 54 -14 50 -26 -6 -5 -23 -13 -42 -18 -42 -5 0 -8 -12 -7 -28 2 -15 0 -33 -4
-40 -10 -15 0 -32 19 -32 18 0 18 -5 -2 -35 -10 -15 -13 -36 -10 -57 3 -18 2
-51 -1 -73 l-7 -40 -13 65 c-7 36 -22 110 -32 165 -29 155 -74 283 -111 317
-29 26 -30 29 -15 44 12 12 14 25 9 48 -4 17 -8 40 -9 52 -2 35 -12 39 -79 38
l-65 -1 -21 53 c-12 29 -28 58 -34 64 -10 7 -13 78 -15 282 -2 360 -10 548
-25 548 -9 0 -11 -44 -9 -157 2 -87 4 -267 6 -401 l3 -243 -33 3 -33 3 -4 120
c-3 66 -6 245 -8 397 -3 257 -4 278 -20 278 -10 0 -18 -4 -18 -9 0 -5 -7 -17
-16 -26 -9 -8 -25 -39 -35 -68 -16 -42 -18 -60 -10 -92 12 -49 21 -385 10
-385 -4 0 -5 8 -2 18 6 25 -22 91 -42 98 -20 8 -19 24 1 24 15 0 16 17 12 163
-4 153 -3 165 18 211 12 27 29 53 36 58 8 5 -1 8 -27 6 -38 -3 -40 -5 -50 -48
-9 -33 -16 -44 -28 -42 -9 2 -17 -3 -17 -9 0 -7 -3 -10 -6 -6 -3 3 -2 12 2 19
5 7 9 19 11 27 1 8 4 25 8 38 7 28 -22 33 -31 6 -3 -10 -11 -28 -17 -41 -8
-17 -8 -41 1 -93 14 -80 16 -245 3 -253 -4 -3 -6 -17 -4 -30 4 -21 1 -25 -23
-28 -21 -2 -30 -9 -32 -25 -3 -18 -10 -23 -32 -23 -16 0 -32 5 -36 11 -4 7 2
9 17 7 22 -3 24 1 27 51 2 32 -1 57 -8 61 -16 10 -28 180 -14 202 3 5 17 13
30 18 32 12 33 45 2 36 -13 -3 -26 -6 -30 -6 -15 0 -38 -74 -38 -122 0 -34 4
-50 15 -54 11 -5 12 -10 6 -18 -6 -7 -15 -36 -22 -64 -6 -29 -15 -52 -20 -52
-12 0 -11 6 3 30 16 25 10 30 -31 21 -38 -7 -55 -31 -22 -31 14 0 21 -6 21
-19 0 -11 3 -26 6 -34 3 -9 -3 -16 -15 -20 -21 -5 -46 -51 -42 -77 4 -20 48
-57 93 -78 21 -9 38 -23 38 -29 0 -7 9 -13 20 -13 47 0 78 -119 48 -185 -11
-26 -31 -35 -26 -12 5 28 -13 87 -28 87 -10 0 -13 -6 -9 -19 3 -10 8 -52 11
-92 2 -41 9 -78 14 -83 6 -6 10 -32 10 -58 0 -59 -1 -59 -125 -39 -33 6 -82
11 -108 12 -31 2 -46 7 -43 14 2 7 7 38 11 71 4 32 11 64 15 69 6 8 12 40 33
169 1 5 -4 11 -10 13 -8 3 -15 -11 -19 -36 -4 -23 -11 -44 -15 -47 -5 -3 -9
-20 -9 -37 0 -54 -26 -113 -47 -109 -26 5 -26 7 -13 47 14 43 5 105 -15 105
-17 0 -20 16 -5 25 10 6 12 121 2 138 -2 4 -10 3 -18 -4 -11 -9 -14 -7 -14 10
0 12 -6 21 -15 21 -8 0 -15 -6 -15 -14 0 -7 -8 -16 -18 -18 -15 -4 -18 -14
-16 -49 2 -62 3 -64 16 -51 6 6 11 24 10 40 -1 29 0 29 29 19 32 -13 41 -32 9
-22 -14 5 -20 2 -20 -9 0 -9 -6 -25 -12 -36 -11 -16 -9 -22 7 -34 23 -16 22
-17 -22 -33 -30 -10 -32 -9 -43 18 -8 17 -20 29 -31 29 -17 0 -19 7 -17 58 l1
57 6 -50 c3 -28 10 -48 16 -45 9 5 12 27 14 112 1 20 9 32 32 43 24 13 30 22
27 42 -4 35 -24 40 -32 8 -9 -35 -46 -35 -46 0 0 30 -11 32 -34 6 -14 -15 -17
-38 -15 -141 0 -67 4 -134 8 -149 9 -33 0 -83 -16 -88 -7 -3 -9 3 -6 17 4 16
-4 30 -33 55 l-39 35 -3 172 c-3 142 -2 171 9 161 7 -7 17 -13 21 -13 13 0 9
35 -4 48 -10 10 -10 15 1 21 11 7 9 11 -7 20 -11 6 -25 11 -30 11 -10 0 -27
-64 -24 -90 1 -8 3 -77 5 -152 2 -110 0 -139 -11 -143 -10 -3 -12 -13 -8 -30
10 -38 -13 -30 -30 10 -7 19 -14 49 -14 67 0 18 -7 42 -15 52 -18 24 -5 36 38
36 42 0 28 24 -16 28 -21 2 -37 -1 -37 -7 0 -18 -19 -12 -48 14 -24 23 -28 23
-49 10 -13 -9 -23 -11 -23 -6 0 5 4 12 8 15 10 6 8 79 -2 95 -8 13 -65 15 -84
3 -7 -5 -13 -27 -15 -50 -1 -23 -6 -40 -12 -39 -11 4 -15 427 -4 427 4 0 14
-11 23 -25 9 -14 23 -25 31 -25 23 0 31 -49 11 -63 -14 -10 -15 -18 -7 -40 9
-23 7 -28 -10 -37 -15 -8 -18 -17 -13 -33 9 -31 14 -34 25 -14 6 9 14 15 20
12 5 -4 3 -13 -6 -21 -17 -17 -20 -50 -6 -58 15 -10 37 37 40 83 2 47 31 106
31 66 1 -11 15 -29 33 -41 18 -11 31 -26 29 -32 -1 -7 9 -12 23 -12 16 0 25 6
25 15 0 8 -6 15 -14 15 -7 0 -21 11 -30 26 -10 14 -27 29 -39 34 -17 7 -18 9
-4 9 19 1 22 23 6 52 -11 21 -31 17 -23 -5 3 -8 0 -17 -7 -21 -27 -17 -38 42
-38 208 l0 77 -32 0 c-30 0 -31 -1 -14 -13 19 -14 25 -83 10 -120 -4 -10 -3
-23 4 -30 6 -6 11 -16 11 -23 0 -7 -18 5 -40 27 -43 43 -50 75 -25 119 8 14
14 28 15 31 0 4 -26 7 -57 7 -32 0 -52 -2 -45 -5z m1323 -461 l4 -372 38 0
c30 0 39 -5 47 -24 5 -13 14 -26 21 -28 8 -3 7 -12 -5 -35 -21 -42 -21 -44 12
-37 25 6 24 4 -13 -25 -22 -18 -45 -37 -50 -44 -6 -7 -22 -21 -35 -32 l-25
-20 23 26 c27 30 28 39 5 39 -17 0 -43 -40 -43 -67 0 -57 -51 71 -63 159 -5
32 -1 44 29 80 l35 42 -7 347 c-6 333 -2 432 16 384 4 -12 9 -188 11 -393z
m-127 250 c11 -78 16 -192 9 -192 -23 0 -32 43 -33 143 0 111 13 137 24 49z
m-1213 -59 c13 -15 12 -15 -9 -4 -12 6 -27 9 -32 6 -6 -3 -10 -1 -10 4 0 17
36 13 51 -6z m-541 -133 c0 -5 -7 -10 -15 -10 -8 0 -15 5 -15 10 0 6 7 10 15
10 8 0 15 -4 15 -10z m1732 -20 c-2 -16 -6 -30 -8 -30 -2 0 -4 14 -4 30 0 17
4 30 8 30 5 0 7 -13 4 -30z m-142 0 c0 -5 -4 -10 -10 -10 -5 0 -10 5 -10 10 0
6 5 10 10 10 6 0 10 -4 10 -10z m-1076 -27 c-9 -37 -23 -52 -22 -22 1 22 15
49 24 49 3 0 1 -12 -2 -27z m1182 -90 c8 -3 14 -16 14 -30 0 -23 2 -24 17 -12
14 12 14 11 -1 -13 -11 -16 -33 -32 -55 -38 -52 -14 -59 -13 -58 13 1 12 -2
32 -7 45 -5 15 -3 22 6 23 7 0 24 13 38 28 22 24 25 25 28 9 2 -11 10 -22 18
-25z m-1738 -66 c-18 -22 -34 -35 -36 -28 -2 6 2 19 10 28 11 15 11 16 -4 10
-15 -5 -18 -1 -18 22 0 29 0 29 40 19 l40 -10 -32 -41z m174 6 c4 -2 2 -14 -6
-26 -8 -12 -17 -37 -21 -54 -7 -37 -4 -36 -96 -20 l-66 12 24 38 c13 21 34 42
46 47 21 9 104 11 119 3z m1698 -108 c0 -71 -3 -85 -21 -101 -36 -33 -51 -72
-46 -123 2 -26 9 -56 14 -67 15 -28 24 -84 14 -84 -5 0 -11 -9 -14 -20 -3 -12
-14 -20 -26 -20 -13 0 -21 -7 -22 -17 0 -10 -6 2 -13 27 -13 49 -13 162 -1
224 7 32 5 41 -9 52 -16 11 -17 21 -9 83 7 49 6 71 -1 71 -6 1 3 13 21 28 23
19 43 27 72 27 l41 1 0 -81z m-1910 35 c0 -5 -4 -10 -10 -10 -5 0 -10 5 -10
10 0 6 5 10 10 10 6 0 10 -4 10 -10z m87 -64 c16 -15 -10 -16 -49 -2 l-43 16
43 -4 c24 -2 46 -7 49 -10z m85 -36 c-2 -7 -3 -41 -3 -75 0 -34 -6 -74 -14
-88 -7 -14 -16 -39 -20 -56 -4 -17 -11 -33 -16 -36 -5 -4 -9 -15 -9 -26 0 -17
21 -25 53 -20 13 2 7 -17 -8 -23 -8 -3 -22 -22 -31 -43 -9 -21 -21 -47 -26
-58 -5 -11 -10 -34 -11 -50 -2 -20 -9 -31 -21 -33 -27 -6 -40 12 -27 37 7 12
14 45 17 74 3 28 11 69 19 89 8 20 15 54 16 75 1 21 6 43 11 50 12 15 30 108
32 161 1 37 4 42 21 40 11 -2 19 -10 17 -18z m760 -7 c9 -10 21 -35 27 -55 11
-34 47 -68 72 -68 8 0 10 12 6 35 -3 21 -2 33 4 30 5 -4 9 -19 9 -35 0 -16 5
-32 10 -35 6 -3 10 -10 10 -14 0 -11 -46 -31 -70 -31 -23 0 -26 -13 -6 -29 10
-9 20 -9 39 0 14 6 33 9 42 5 15 -5 15 -7 0 -22 -13 -13 -14 -19 -4 -25 10 -6
10 -13 2 -31 -9 -18 -12 -19 -12 -5 -1 9 -13 23 -28 30 -16 6 -32 17 -38 24
-14 18 -31 3 -39 -33 -6 -29 -5 -32 21 -37 15 -3 30 -1 31 4 7 18 21 9 37 -23
10 -21 12 -34 5 -36 -5 -2 -10 -28 -10 -58 0 -30 -4 -54 -10 -54 -5 0 -10 12
-10 28 0 15 -3 37 -6 48 -5 18 -9 20 -27 11 -19 -8 -22 -17 -18 -50 2 -26 -3
-51 -17 -76 -10 -20 -22 -47 -25 -61 -6 -26 -42 -55 -56 -45 -5 2 -9 84 -10
180 l-2 175 36 -5 35 -4 2 42 c2 68 -2 89 -27 144 -33 73 -15 123 27 76z
m-914 -89 c28 -8 -53 -64 -93 -64 -7 0 -21 8 -31 17 -9 10 -38 20 -63 24 l-46
6 46 2 c27 0 52 7 59 15 8 11 25 13 63 10 29 -3 58 -7 65 -10z m1263 -42 c-5
-9 -7 -56 -5 -104 2 -54 0 -88 -6 -88 -6 0 -10 -9 -10 -20 0 -11 -5 -20 -10
-20 -12 0 -9 37 3 57 4 7 4 21 -2 31 -14 27 -7 152 9 162 20 12 32 2 21 -18z
m471 -89 c6 -7 11 -76 13 -154 1 -77 6 -144 11 -147 5 -4 14 -20 20 -37 6 -16
15 -38 19 -47 5 -12 2 -17 -12 -16 -10 1 -28 -2 -40 -6 -31 -10 -50 26 -32 60
13 25 19 299 8 364 -4 19 -4 26 -2 15 3 -11 10 -26 15 -32z m-556 29 c6 -4 14
-26 18 -49 6 -42 6 -43 -23 -43 -20 0 -34 8 -45 25 -9 14 -14 25 -11 25 3 0 1
8 -4 19 -6 10 -7 21 -4 25 9 8 55 7 69 -2z m154 -2 c0 -5 -7 -10 -16 -10 -8 0
-12 5 -9 10 3 6 10 10 16 10 5 0 9 -4 9 -10z m50 -50 c0 -16 -4 -30 -8 -30 -5
0 -7 14 -4 30 2 17 6 30 8 30 2 0 4 -13 4 -30z m740 15 c-7 -8 -18 -15 -25
-15 -7 0 -16 -7 -19 -15 -9 -26 21 -29 59 -6 19 11 35 16 35 11 0 -5 -4 -12
-10 -15 -5 -3 -10 -15 -10 -26 0 -10 -6 -19 -14 -19 -7 0 -20 -7 -27 -16 -11
-14 -11 -18 4 -29 9 -7 17 -18 17 -24 0 -27 45 -5 61 29 9 19 22 35 28 34 28
-3 31 -5 25 -28 -3 -13 -1 -27 5 -30 18 -12 12 -36 -9 -36 -11 0 -20 -7 -20
-15 0 -8 7 -15 15 -15 19 0 20 -16 2 -23 -17 -6 -51 -76 -42 -85 8 -8 70 64
90 106 13 26 14 36 4 48 -6 8 -9 17 -7 20 6 5 41 -65 53 -103 5 -18 -1 -25
-45 -45 -27 -12 -50 -26 -50 -30 0 -5 -9 -8 -19 -8 -18 0 -60 -46 -61 -67 -1
-4 -14 -24 -30 -43 -23 -26 -30 -30 -30 -16 0 15 -6 12 -29 -13 -16 -17 -33
-31 -38 -32 -4 0 -18 -2 -30 -3 -36 -4 -51 11 -29 27 27 20 12 37 -23 27 -15
-4 -38 -13 -50 -19 -29 -16 -47 -4 -27 17 12 14 12 20 2 35 -7 9 -21 17 -30
17 -9 0 -16 5 -16 10 0 11 38 15 110 11 59 -3 91 24 85 71 -5 34 9 58 32 58 8
0 26 9 40 20 31 24 63 26 63 4 0 -8 5 -12 10 -9 6 3 10 17 10 30 0 18 -7 25
-31 30 -25 6 -36 2 -57 -18 -15 -14 -39 -29 -54 -32 -27 -7 -33 -19 -30 -57 1
-10 -3 -29 -8 -43 -9 -24 -12 -25 -100 -25 l-90 0 -6 28 c-3 15 -7 33 -10 40
-2 6 1 12 6 12 6 0 10 7 10 15 0 9 7 18 15 21 8 4 15 18 15 34 0 15 7 33 15
40 13 11 15 8 15 -13 0 -32 9 -57 22 -57 5 0 6 5 3 10 -4 6 7 23 24 39 31 29
40 51 20 51 -6 0 -17 -7 -26 -15 -17 -17 -29 -13 -18 5 12 19 112 80 132 80
15 0 16 2 3 10 -13 9 -10 14 15 35 26 21 41 28 79 34 5 0 3 -6 -4 -14z m-2350
-39 c0 -7 11 -19 25 -26 29 -16 31 -28 8 -46 -15 -11 -21 -9 -40 8 -12 11 -19
26 -16 34 3 8 1 14 -5 14 -12 0 -24 29 -16 41 7 12 44 -8 44 -25z m1566 -3
c-11 -11 -17 4 -9 23 7 18 8 18 11 1 2 -10 1 -21 -2 -24z m-1196 17 c0 -5 -4
-10 -10 -10 -5 0 -10 5 -10 10 0 6 5 10 10 10 6 0 10 -4 10 -10z m950 -6 c0
-8 -5 -12 -10 -9 -6 4 -8 11 -5 16 9 14 15 11 15 -7z m220 -53 c0 -6 -4 -13
-10 -16 -5 -3 -10 1 -10 9 0 9 5 16 10 16 6 0 10 -4 10 -9z m-121 -54 c-1 -18
-4 -41 -7 -52 -9 -25 -45 -31 -38 -6 2 9 8 32 11 51 9 43 14 52 26 45 5 -4 9
-21 8 -38z m309 18 c1 -1 -2 -14 -7 -29 -8 -20 -17 -26 -41 -26 -28 0 -30 3
-30 34 0 34 0 35 38 29 20 -3 38 -7 40 -8z m132 -14 c0 -5 -7 -14 -15 -21 -13
-10 -15 -9 -15 9 0 12 6 21 15 21 8 0 15 -4 15 -9z m-340 -11 c0 -5 -2 -10 -4
-10 -3 0 -8 5 -11 10 -3 6 -1 10 4 10 6 0 11 -4 11 -10z m-220 -64 c0 -11 -19
-15 -25 -6 -3 5 1 10 9 10 9 0 16 -2 16 -4z m546 -78 c-11 -15 -16 -18 -16 -7
0 16 21 42 28 34 2 -2 -3 -14 -12 -27z m67 -44 c-3 -21 -13 -35 -29 -43 -15
-7 -22 -16 -18 -26 5 -11 -1 -15 -20 -15 -19 0 -26 5 -26 19 0 11 5 23 11 26
5 4 14 18 19 31 6 14 18 24 29 24 11 0 23 5 26 11 11 16 13 7 8 -27z m-1653
-4 c0 -10 -9 -24 -20 -30 -11 -6 -20 -18 -21 -28 0 -12 -3 -10 -10 7 -7 18 -5
30 6 47 19 29 45 31 45 4z m1558 0 c-14 -22 -24 -19 -15 5 4 8 11 15 17 15 6
0 6 -7 -2 -20z m-161 -27 c-3 -10 -5 -4 -5 12 0 17 2 24 5 18 2 -7 2 -21 0
-30z m160 -106 c1 -23 -16 -52 -18 -30 -5 47 -3 63 6 60 5 -2 11 -15 12 -30z
m181 -3 c-10 -10 -28 6 -28 24 0 15 1 15 17 -1 9 -9 14 -19 11 -23z m-1308
-80 c0 -8 -4 -12 -10 -9 -5 3 -10 13 -10 21 0 8 5 12 10 9 6 -3 10 -13 10 -21z
m-643 -50 c-3 -3 -12 -4 -19 -1 -8 3 -5 6 6 6 11 1 17 -2 13 -5z m2653 -204
c0 -5 -5 -10 -11 -10 -5 0 -7 5 -4 10 3 6 8 10 11 10 2 0 4 -4 4 -10z m117
-134 c15 -13 21 -26 17 -38 -3 -12 1 -21 13 -25 14 -6 10 -9 -17 -13 -33 -5
-36 -3 -52 35 -9 22 -17 51 -17 64 -1 25 -2 26 56 -23z m-97 26 c0 -4 -16 -9
-36 -10 -23 -2 -33 1 -29 8 7 12 65 14 65 2z m-1860 -277 c0 -8 -7 -11 -20 -8
-23 6 -26 19 -7 26 16 6 27 -1 27 -18z m1345 -107 c-1 -50 2 -57 16 -53 10 3
20 1 24 -5 3 -5 -3 -11 -14 -11 -12 -1 -26 -2 -32 -3 -7 -1 -12 26 -13 71 -1
52 -7 77 -19 91 -9 10 -17 22 -17 26 0 4 12 -7 28 -25 23 -28 27 -42 27 -91z
m-469 57 c11 -8 14 -15 7 -15 -7 0 -13 -9 -13 -20 0 -16 7 -20 30 -20 25 0 30
-4 30 -25 0 -14 -8 -29 -21 -36 -20 -10 -21 -9 -14 19 5 24 2 30 -14 35 -12 3
-25 17 -31 31 -7 19 -17 26 -35 26 -14 0 -25 5 -25 10 0 15 64 12 86 -5z m64
-36 c0 -6 -4 -7 -10 -4 -5 3 -10 11 -10 16 0 6 5 7 10 4 6 -3 10 -11 10 -16z
m30 -9 c0 -5 -5 -10 -11 -10 -5 0 -7 5 -4 10 3 6 8 10 11 10 2 0 4 -4 4 -10z
m-90 -121 c0 -13 -92 -21 -103 -10 -19 19 -40 13 -34 -9 5 -19 0 -20 -88 -20
-84 0 -93 2 -98 20 -7 26 8 34 66 36 40 1 54 6 79 32 l31 31 73 -37 c41 -20
74 -40 74 -43z m430 31 c0 -5 -2 -10 -4 -10 -3 0 -8 5 -11 10 -3 6 -1 10 4 10
6 0 11 -4 11 -10z m-325 -36 c11 -1 23 -3 28 -3 19 -2 4 -21 -15 -19 -13 1
-33 -2 -45 -6 -17 -6 -23 -3 -23 8 0 9 -4 16 -10 16 -5 0 -10 5 -10 11 0 7 10
9 28 4 15 -4 36 -9 47 -11z m360 -44 c63 -7 58 -7 -47 -8 -65 0 -118 4 -118 8
0 13 32 19 65 13 17 -4 62 -9 100 -13z m105 -4 c0 -3 -4 -8 -10 -11 -5 -3 -10
-1 -10 4 0 6 5 11 10 11 6 0 10 -2 10 -4z"/>
<path d="M2277 1297 c-3 -8 -20 -17 -38 -21 -24 -5 -30 -9 -22 -17 17 -17 61
-2 68 22 8 23 0 38 -8 16z"/>
<path d="M2127 1246 c-7 -18 1 -26 25 -26 13 0 18 6 16 17 -4 22 -34 29 -41 9z"/>
<path d="M1110 2555 c0 -7 39 -12 49 -5 7 4 -1 7 -18 8 -17 0 -31 -1 -31 -3z"/>
<path d="M1190 2542 c0 -26 -11 -34 -27 -20 -17 13 -19 11 -26 -29 -5 -27 -3
-33 11 -33 27 0 59 27 66 55 7 26 26 35 26 11 0 -7 7 -19 15 -26 9 -7 14 -19
11 -26 -3 -7 2 -18 10 -24 11 -10 14 -9 14 5 0 13 5 16 23 11 12 -3 25 -6 30
-6 4 0 7 -15 7 -32 0 -45 13 -62 39 -53 33 10 81 55 81 75 0 10 7 20 15 24 26
9 17 26 -14 26 -26 0 -30 -4 -33 -32 -2 -23 -9 -34 -21 -36 -16 -3 -18 1 -12
27 7 31 6 32 -28 29 -36 -2 -71 17 -61 34 3 5 14 6 25 3 11 -4 19 -2 19 4 0 7
28 11 73 12 39 0 90 4 112 9 28 6 -7 8 -118 8 l-158 0 15 -24 c18 -26 20 -34
8 -34 -4 0 -13 14 -19 30 -10 26 -16 30 -47 30 -28 0 -36 -4 -36 -18z"/>
<path d="M1639 2551 c9 -6 10 -10 2 -12 -7 -3 -9 -12 -5 -22 5 -13 15 -17 36
-15 17 2 30 -1 29 -7 -1 -5 -4 -10 -8 -10 -5 0 -15 -5 -23 -10 -8 -6 -24 -10
-35 -10 -14 0 -22 -10 -28 -38 -10 -40 -4 -67 13 -67 5 0 10 6 10 14 0 25 34
29 49 7 19 -30 31 -26 31 12 1 29 2 30 14 15 16 -22 52 -24 59 -4 4 9 14 12
26 9 15 -4 21 -1 21 10 0 10 11 17 28 19 33 4 36 30 5 38 -13 3 -31 12 -40 20
-10 8 -37 22 -60 29 -23 8 -40 18 -37 22 3 5 -19 9 -48 9 -34 0 -48 -3 -39 -9z
m166 -91 c3 -6 -1 -7 -9 -4 -18 7 -21 14 -7 14 6 0 13 -4 16 -10z"/>
<path d="M0 2506 c0 -14 5 -28 10 -31 6 -4 8 -10 5 -15 -2 -4 0 -21 6 -38 8
-25 19 -32 57 -42 66 -16 93 -35 88 -63 -3 -12 -5 -46 -5 -74 -1 -37 -5 -52
-13 -50 -8 1 -14 -10 -16 -28 -3 -35 -22 -85 -31 -85 -3 0 -6 51 -6 113 0 61
-4 120 -8 130 -20 43 -26 8 -23 -129 2 -124 5 -148 19 -156 23 -13 53 6 61 38
10 39 24 17 28 -44 3 -48 1 -52 -19 -53 -13 -1 -29 -2 -35 -3 -19 -2 -16 -76
3 -99 11 -15 23 -18 41 -14 24 6 26 11 29 84 1 43 2 155 1 248 -1 112 1 163 7
148 7 -15 27 -26 68 -38 69 -19 201 -80 225 -103 9 -10 24 -23 33 -31 13 -11
16 -29 13 -90 -2 -67 -1 -76 15 -79 10 -2 25 5 32 15 20 25 18 35 -4 28 -16
-5 -18 0 -14 47 6 74 6 73 35 44 22 -23 25 -32 20 -71 -5 -50 12 -62 28 -20 9
22 12 24 30 13 32 -21 47 4 18 31 -14 14 -23 34 -23 54 -1 57 -17 147 -26 147
-5 0 -9 9 -9 20 0 22 -35 44 -57 36 -9 -4 -22 -1 -30 5 -10 9 -23 9 -51 1 -81
-24 -92 -24 -123 3 -17 14 -36 25 -44 25 -7 0 -20 11 -29 25 -13 19 -22 23
-44 19 -19 -4 -32 -1 -41 10 -10 12 -17 13 -26 6 -9 -8 -32 1 -82 30 -39 22
-75 40 -82 40 -6 0 -11 5 -11 10 0 6 -4 10 -10 10 -5 0 -10 -11 -10 -24z m535
-214 c3 -38 2 -38 -42 -10 l-35 21 28 13 c39 17 46 13 49 -24z m64 12 c21 -12
30 -28 38 -65 9 -47 9 -49 -13 -49 -13 0 -26 5 -29 10 -3 6 -15 10 -26 10 -15
0 -18 4 -11 18 4 9 7 34 5 55 -3 42 -1 43 36 21z m-64 -74 c3 -5 1 -10 -4 -10
-6 0 -11 5 -11 10 0 6 2 10 4 10 3 0 8 -4 11 -10z m-359 -317 c-4 -4 -11 -1
-16 7 -16 25 -11 35 7 17 9 -9 13 -20 9 -24z"/>
<path d="M756 2463 c-3 -3 -3 -10 0 -14 7 -12 34 -11 34 0 0 11 -26 22 -34 14z"/>
<path d="M1132 2418 c-13 -7 -21 -17 -17 -26 3 -7 5 -25 5 -38 0 -15 6 -24 16
-24 12 0 15 6 10 24 -3 14 -2 28 4 31 5 3 15 15 20 26 12 22 -1 25 -38 7z"/>
<path d="M826 2395 c-4 -14 -4 -30 -1 -35 10 -17 25 -11 25 10 0 11 7 20 15
20 8 0 15 7 15 15 0 9 -9 15 -24 15 -17 0 -26 -7 -30 -25z"/>
<path d="M1510 2411 c0 -6 -6 -11 -14 -11 -20 0 -39 -27 -32 -45 5 -14 10 -13
36 6 31 23 38 43 20 54 -5 3 -10 1 -10 -4z"/>
<path d="M748 2393 c7 -3 16 -2 19 1 4 3 -2 6 -13 5 -11 0 -14 -3 -6 -6z"/>
<path d="M1257 2346 c-6 -15 1 -26 15 -26 4 0 8 9 8 20 0 23 -15 27 -23 6z"/>
<path d="M1599 2327 c16 -19 -34 -66 -51 -49 -32 32 -39 -10 -7 -44 14 -15 19
-29 14 -43 -6 -20 -8 -19 -39 14 -23 24 -36 31 -43 24 -8 -8 -13 -2 -18 21 -5
24 -11 30 -28 28 -24 -4 -36 -28 -13 -28 9 0 16 -6 16 -12 0 -16 58 -50 71
-43 4 3 12 -9 17 -27 5 -22 15 -34 29 -36 15 -2 19 -8 16 -23 -4 -13 0 -19 11
-19 9 0 16 8 16 20 0 23 15 27 24 5 3 -8 16 -15 28 -15 17 0 20 -2 9 -9 -8 -5
-20 -7 -27 -4 -18 7 -63 -28 -64 -49 0 -23 19 -33 26 -14 10 25 68 39 92 22 9
-7 15 -3 19 12 3 12 9 22 14 22 5 0 7 -11 3 -25 -5 -20 -2 -25 13 -25 10 0 23
10 28 23 6 12 20 23 33 25 12 2 22 8 22 13 0 17 -60 69 -80 69 -12 0 -20 8
-22 22 -4 27 -58 52 -65 31 -5 -15 -59 -18 -68 -4 -3 5 1 15 8 23 26 26 66 92
61 100 -3 4 -17 8 -31 8 -20 0 -23 -3 -14 -13z m151 -217 c0 -5 -4 -10 -10
-10 -5 0 -10 5 -10 10 0 6 5 10 10 10 6 0 10 -4 10 -10z"/>
<path d="M1316 2311 c-6 -9 29 -41 44 -41 22 0 5 33 -22 43 -10 3 -20 3 -22
-2z"/>
<path d="M1236 2284 c-9 -23 -8 -24 13 -24 11 0 21 -9 24 -21 6 -21 7 -21 23
-4 17 17 17 18 -2 31 -10 7 -24 18 -31 24 -16 14 -20 13 -27 -6z"/>
<path d="M2 2083 c0 -154 1 -163 19 -163 10 0 19 7 19 15 0 8 -3 15 -8 15 -4
0 -3 43 2 96 8 81 7 101 -7 128 -9 17 -18 40 -20 51 -3 11 -5 -53 -5 -142z"/>
<path d="M1280 2150 c0 -19 11 -26 23 -14 8 8 -3 34 -14 34 -5 0 -9 -9 -9 -20z"/>
<path d="M1400 2106 c0 -10 9 -16 21 -16 24 0 21 23 -4 28 -10 2 -17 -3 -17
-12z"/>
<path d="M1478 2086 c-31 -39 -35 -56 -14 -56 19 0 56 47 56 71 0 28 -12 23
-42 -15z"/>
<path d="M748 2037 c-48 -12 -51 -37 -4 -37 35 0 66 24 50 39 -5 4 -26 4 -46
-2z"/>
<path d="M1647 2013 c-12 -11 -8 -23 8 -23 8 0 15 7 15 15 0 16 -12 20 -23 8z"/>
<path d="M1717 2014 c-13 -13 -8 -33 14 -55 l20 -20 -25 -20 c-29 -23 -43 -18
-56 17 -12 30 -33 31 -28 2 2 -13 9 -22 17 -20 9 2 12 -4 8 -18 -3 -13 0 -23
9 -27 12 -4 12 -8 -1 -26 -8 -12 -15 -29 -15 -39 0 -32 20 -19 39 25 11 25 31
49 50 60 35 20 39 44 14 75 -10 11 -23 28 -28 37 -6 9 -13 13 -18 9z"/>
<path d="M746 1981 c-4 -5 -9 -36 -12 -69 -5 -49 -10 -59 -22 -54 -13 4 -14
-2 -9 -44 4 -27 9 -60 12 -74 5 -18 4 -21 -3 -10 -30 46 -35 174 -8 192 6 5 1
8 -12 8 -14 0 -36 -13 -53 -31 -25 -27 -29 -39 -29 -91 0 -68 38 -197 58 -198
17 0 15 16 -8 83 -11 31 -20 80 -19 109 l0 53 30 -103 c34 -121 87 -223 101
-197 7 11 4 24 -7 41 -17 27 -29 171 -15 189 11 14 19 194 9 200 -4 3 -10 1
-13 -4z"/>
<path d="M887 1847 c-8 -21 17 -180 31 -202 11 -17 12 -10 6 45 -4 36 -8 85
-10 110 -1 25 -3 48 -3 53 -2 12 -19 8 -24 -6z"/>
<path d="M1899 1823 c-33 -53 -33 -53 -12 -53 18 0 63 56 63 78 0 25 -29 10
-51 -25z"/>
<path d="M855 1807 c-10 -24 -1 -139 13 -163 9 -16 11 -10 11 31 -1 80 -14
153 -24 132z"/>
<path d="M1826 1798 c-17 -27 -48 -267 -36 -287 13 -24 21 5 35 136 8 69 19
131 25 137 13 13 13 36 0 36 -5 0 -16 -10 -24 -22z"/>
<path d="M161 1504 c0 -11 3 -14 6 -6 3 7 2 16 -1 19 -3 4 -6 -2 -5 -13z"/>
<path d="M602 1463 c2 -13 14 -19 41 -21 20 -2 37 -7 37 -13 0 -5 5 -9 10 -9
16 0 11 26 -8 43 -10 10 -33 17 -51 17 -26 0 -32 -4 -29 -17z"/>
<path d="M2956 1443 c-12 -12 -6 -46 10 -57 13 -10 10 -12 -20 -12 -45 0 -63
-15 -42 -36 8 -9 12 -19 8 -23 -11 -11 29 -35 59 -35 15 0 30 6 32 13 4 7 8 3
12 -10 4 -13 15 -23 24 -24 10 0 8 -3 -7 -10 -31 -12 -23 -34 13 -34 27 0 28
2 31 55 3 54 2 56 -47 102 -27 27 -49 52 -49 57 0 13 -16 22 -24 14z"/>
<path d="M163 1229 c3 -13 3 -28 -2 -33 -17 -23 -20 -57 -5 -63 23 -9 32 7 35
62 3 42 0 50 -15 53 -15 3 -18 0 -13 -19z"/>
<path d="M2023 1008 c-35 -12 -42 -25 -18 -34 27 -11 65 5 65 26 0 22 -1 22
-47 8z"/>
<path d="M602 958 c-7 -7 -12 -20 -12 -29 0 -10 -4 -21 -10 -24 -14 -9 -12
-25 3 -25 10 0 47 65 47 83 0 11 -15 8 -28 -5z"/>
<path d="M1 914 c0 -11 3 -14 6 -6 3 7 2 16 -1 19 -3 4 -6 -2 -5 -13z"/>
<path d="M700 810 c0 -6 -16 -20 -35 -32 -50 -29 -37 -55 17 -33 15 6 17 -3
16 -82 0 -48 3 -87 6 -85 3 1 11 2 17 2 16 0 7 232 -9 238 -7 2 -12 -1 -12 -8z"/>
<path d="M3198 768 c-38 -18 -56 -58 -20 -43 9 4 27 10 40 13 26 5 40 29 26
41 -5 4 -26 -1 -46 -11z"/>
<path d="M372 697 c-21 -59 -10 -97 28 -97 19 0 56 47 65 83 8 28 -15 47 -57
47 -18 0 -27 -8 -36 -33z"/>
<path d="M637 712 c-2 -4 -5 -34 -6 -66 -2 -57 -10 -106 -30 -189 -5 -22 -5
-39 0 -43 5 -3 9 4 9 15 0 10 4 21 10 23 13 4 31 88 37 171 3 37 9 67 14 67 5
0 9 6 9 13 0 13 -37 21 -43 9z"/>
<path d="M1944 713 c-19 -4 -20 -7 -10 -28 13 -30 22 -31 36 -6 12 23 13 42 3
40 -5 -1 -18 -4 -29 -6z"/>
<path d="M3207 673 c-3 -5 -8 -47 -12 -94 -5 -61 -3 -89 5 -94 6 -4 13 -5 14
-4 10 11 16 199 7 199 -5 0 -12 -3 -14 -7z"/>
<path d="M1898 625 c-7 -33 12 -62 32 -50 8 5 7 11 -3 23 -8 10 -17 26 -19 37
-3 16 -5 14 -10 -10z"/>
<path d="M1445 582 c-47 -24 -155 -63 -204 -73 -40 -8 -60 -22 -61 -41 0 -3
24 -6 53 -6 28 0 78 -3 110 -7 57 -7 59 -7 93 26 19 18 34 39 34 47 0 8 7 20
17 27 9 7 14 19 10 29 -8 19 -12 19 -52 -2z"/>
<path d="M2407 583 c-13 -12 -7 -23 23 -38 35 -18 70 -20 70 -2 0 6 -16 20
-36 30 -38 19 -47 20 -57 10z"/>
<path d="M1961 564 c0 -11 3 -14 6 -6 3 7 2 16 -1 19 -3 4 -6 -2 -5 -13z"/>
<path d="M1850 556 c0 -8 5 -18 11 -21 6 -4 8 -13 5 -21 -5 -13 11 -30 20 -21
11 10 -9 77 -22 77 -8 0 -14 -6 -14 -14z"/>
<path d="M1956 532 c-3 -6 -1 -14 5 -17 15 -10 25 3 12 16 -7 7 -13 7 -17 1z"/>
<path d="M2470 476 c0 -8 5 -18 10 -21 6 -3 10 -13 10 -21 0 -9 -5 -12 -11 -8
-9 5 -10 -9 -5 -50 5 -33 4 -56 -2 -56 -5 0 -10 -26 -11 -57 -1 -71 -19 -169
-37 -205 -20 -39 -17 -58 7 -58 16 0 20 5 16 20 -3 11 -1 20 4 20 5 0 9 -6 9
-12 0 -7 11 0 24 15 23 26 25 44 9 87 -3 8 -6 23 -6 33 1 9 1 37 2 62 l1 45
38 -19 c52 -27 73 -68 70 -133 l-3 -53 43 -3 c48 -4 58 15 13 24 -29 6 -30 7
-24 58 3 28 12 56 19 62 19 15 18 30 -2 38 -22 9 -24 8 -24 -11 0 -13 -7 -10
-25 14 -14 17 -40 36 -59 43 -30 10 -33 14 -33 53 l-1 43 36 -2 c60 -3 116
-14 126 -24 7 -7 5 -10 -5 -10 -18 0 -63 -49 -54 -58 3 -3 20 0 38 7 96 39
113 43 174 36 59 -6 64 -9 79 -41 9 -19 21 -35 28 -36 6 0 16 -2 22 -2 29 -3
173 -201 166 -228 -1 -5 2 -8 8 -8 22 0 16 38 -22 125 -16 39 -35 81 -40 95
-17 40 -85 90 -123 90 -18 0 -38 7 -45 15 -7 8 -23 15 -36 15 -13 0 -32 9 -41
20 -10 11 -30 20 -44 20 -36 0 -59 9 -59 24 0 7 -11 23 -24 35 -20 19 -33 22
-82 19 -56 -3 -59 -4 -62 -30 -4 -31 -22 -39 -22 -10 -1 36 -50 73 -50 38z
m198 -38 c20 -20 13 -27 -25 -23 -21 1 -48 3 -60 4 -37 2 -26 19 15 24 20 2
42 4 48 5 5 1 15 -3 22 -10z m-201 -370 c-3 -8 -6 -5 -6 6 -1 11 2 17 5 13 3
-3 4 -12 1 -19z"/>
<path d="M1940 470 c0 -5 7 -10 15 -10 8 0 15 5 15 10 0 6 -7 10 -15 10 -8 0
-15 -4 -15 -10z"/>
<path d="M1915 440 c-7 -12 2 -30 16 -30 12 0 12 27 0 35 -5 3 -12 1 -16 -5z"/>
<path d="M1810 425 c0 -8 5 -15 10 -15 6 0 10 7 10 15 0 8 -4 15 -10 15 -5 0
-10 -7 -10 -15z"/>
<path d="M2016 433 c-11 -11 -6 -23 9 -23 8 0 15 4 15 9 0 13 -16 22 -24 14z"/>
<path d="M2078 385 c5 -41 22 -37 22 6 0 17 -5 29 -13 29 -9 0 -12 -11 -9 -35z"/>
<path d="M1880 387 c0 -18 41 -30 54 -17 12 12 7 17 -27 25 -20 5 -27 4 -27
-8z"/>
<path d="M1975 390 c-3 -5 1 -10 9 -10 9 0 16 5 16 10 0 6 -4 10 -9 10 -6 0
-13 -4 -16 -10z"/>
<path d="M2040 384 c0 -8 5 -12 10 -9 6 4 8 11 5 16 -9 14 -15 11 -15 -7z"/>
<path d="M2120 380 c0 -19 3 -21 12 -12 9 9 9 15 0 24 -9 9 -12 7 -12 -12z"/>
<path d="M643 383 c-12 -2 -25 -12 -28 -22 -3 -10 -18 -21 -34 -24 -16 -3 -31
-13 -34 -21 -5 -13 1 -16 28 -16 19 0 35 4 35 9 0 18 31 41 55 41 29 0 43 19
24 31 -8 5 -16 8 -19 7 -3 0 -15 -3 -27 -5z"/>
<path d="M3270 305 c0 -8 -7 -15 -15 -15 -27 0 -67 -33 -81 -67 -13 -29 -12
-36 7 -70 38 -70 82 -86 72 -28 -6 36 11 51 20 17 3 -9 5 10 6 43 0 42 -2 56
-9 45 -5 -8 -10 -26 -10 -39 0 -17 -4 -22 -16 -17 -9 3 -20 6 -25 6 -19 0 -9
49 11 55 11 4 20 15 20 27 0 14 5 18 15 14 11 -4 15 1 15 19 0 14 -2 25 -5 25
-3 0 -5 -7 -5 -15z"/>
<path d="M1960 270 c0 -19 20 -27 33 -13 8 7 -11 33 -24 33 -5 0 -9 -9 -9 -20z"/>
<path d="M1020 259 c0 -18 10 -19 164 -19 100 0 167 4 171 10 10 16 -10 19
-177 23 -150 4 -158 4 -158 -14z"/>
<path d="M2080 270 c0 -5 9 -14 19 -19 14 -8 20 -7 24 3 3 8 3 17 0 20 -10 10
-43 7 -43 -4z"/>
<path d="M2020 251 c0 -12 6 -21 15 -21 8 0 15 4 15 9 0 5 -7 14 -15 21 -13
10 -15 9 -15 -9z"/>
<path d="M2120 190 c0 -22 16 -26 40 -10 13 9 13 11 0 20 -24 16 -40 12 -40
-10z"/>
<path d="M3265 90 c-3 -5 -1 -18 4 -27 9 -16 10 -14 11 10 0 28 -5 34 -15 17z"/>
<path d="M3160 75 c0 -8 7 -15 15 -15 8 0 15 7 15 15 0 8 -7 15 -15 15 -8 0
-15 -7 -15 -15z"/>
<path d="M1718 3 c6 -2 18 -2 25 0 6 3 1 5 -13 5 -14 0 -19 -2 -12 -5z"/>
</g>
</svg>
