<?xml version="1.0" standalone="no"?>
<!DOCTYPE svg PUBLIC "-//W3C//DTD SVG 20010904//EN"
 "http://www.w3.org/TR/2001/REC-SVG-20010904/DTD/svg10.dtd">
<svg version="1.0" xmlns="http://www.w3.org/2000/svg"
 width="388.000000pt" height="256.000000pt" viewBox="0 0 388.000000 256.000000"
 preserveAspectRatio="xMidYMid meet">
<metadata>
Created by potrace 1.16, written by Peter Selinger 2001-2019
</metadata>
<g transform="translate(0.000000,256.000000) scale(0.100000,-0.100000)"
fill="#000000" stroke="none">
<path d="M2978 1809 c-2 -6 -27 -12 -57 -14 -29 -2 -58 -8 -64 -13 -15 -12
-167 -24 -317 -26 -90 -1 -128 -6 -175 -23 -49 -17 -86 -22 -185 -23 -158 -3
-144 -5 -182 28 -45 39 -71 44 -154 26 -68 -14 -190 -18 -329 -13 -33 2 -76
-3 -95 -11 -19 -7 -57 -22 -83 -32 -37 -15 -70 -19 -148 -17 -83 1 -103 -1
-119 -16 -17 -16 -32 -17 -108 -11 -56 4 -103 14 -126 26 -39 20 -81 14 -98
-13 -6 -9 -100 -12 -373 -10 -355 2 -365 1 -365 -18 0 -18 8 -19 105 -19 105
0 139 -12 67 -24 -55 -9 -117 -7 -146 4 l-26 10 0 -59 0 -59 93 -4 c83 -3 94
-6 118 -30 26 -26 28 -35 13 -105 -4 -22 -9 -23 -94 -23 -74 0 -90 -3 -90 -15
0 -26 40 -37 100 -28 30 5 73 5 95 1 49 -9 206 -7 220 3 17 12 49 13 77 1 15
-6 47 -9 70 -7 24 3 37 2 31 -1 -8 -3 -13 -24 -13 -50 0 -40 2 -44 25 -44 23
0 25 4 25 44 0 26 -5 47 -12 50 -7 3 16 3 52 0 36 -3 67 -7 69 -9 2 -2 0 -12
-5 -22 -10 -23 -11 -31 -13 -131 l-1 -83 -29 17 c-24 14 -33 15 -44 5 -13 -10
-16 -6 -22 28 -7 45 -33 62 -52 35 -7 -10 -13 -28 -13 -41 0 -13 -10 -29 -25
-39 -14 -9 -25 -23 -25 -30 0 -8 -5 -14 -10 -14 -6 0 -8 10 -4 24 4 18 1 27
-15 35 -16 9 -19 18 -14 41 4 23 2 30 -11 30 -9 0 -16 6 -16 14 0 8 -3 21 -6
30 -4 11 0 16 14 16 16 0 23 8 28 34 3 19 4 40 2 47 -5 14 -45 23 -51 11 -3
-4 -8 -52 -12 -106 -7 -115 -21 -135 -91 -136 -28 0 -44 -5 -48 -15 -4 -11 2
-15 23 -15 32 0 42 -7 35 -24 -5 -12 -88 -15 -100 -4 -3 4 -1 16 6 27 15 29
-4 63 -33 59 -19 -3 -22 1 -19 30 l4 33 -44 -3 c-40 -3 -43 -5 -43 -33 0 -34
-30 -85 -50 -85 -7 0 -15 9 -18 20 -4 17 -11 19 -31 14 -25 -6 -26 -4 -26 35
0 23 -4 41 -10 41 -5 0 -10 -22 -10 -50 0 -27 4 -50 9 -50 5 0 12 -7 15 -16 4
-12 2 -15 -9 -10 -12 4 -15 -6 -15 -60 0 -44 3 -63 11 -58 6 3 9 14 6 23 -3
14 3 17 37 15 23 -1 60 -2 83 -3 31 -1 42 -5 45 -18 5 -25 -3 -67 -11 -56 -3
5 -25 8 -48 5 -34 -3 -43 -8 -43 -23 0 -29 -54 -26 -68 4 -9 18 -11 9 -11 -53
-1 -56 2 -71 11 -62 7 7 31 9 69 5 38 -4 63 -2 72 5 11 9 19 6 38 -14 24 -25
24 -26 5 -40 -26 -18 -182 -20 -189 -1 -3 6 -6 -3 -6 -20 l-1 -33 84 0 c65 0
85 -3 90 -15 3 -8 10 -15 17 -15 6 0 9 7 5 15 -3 8 -2 15 3 15 5 0 11 -9 14
-20 4 -16 0 -20 -20 -20 -13 0 -31 7 -40 15 -14 14 -18 14 -39 0 -13 -8 -44
-15 -69 -15 -38 0 -45 -3 -45 -20 0 -17 7 -20 43 -20 219 -1 274 -7 306 -29
17 -13 38 -21 45 -18 8 3 22 -3 31 -13 10 -11 30 -18 53 -18 20 0 38 -5 40
-11 2 -6 14 -8 27 -5 20 5 22 2 18 -19 -4 -20 0 -26 20 -31 14 -3 38 -3 54 0
20 4 33 1 42 -10 17 -20 57 -21 68 -2 5 8 30 16 63 19 30 2 63 8 73 12 12 5
17 3 17 -8 0 -24 22 -32 35 -14 18 25 33 21 37 -10 2 -22 9 -29 32 -31 16 -2
32 1 35 6 3 5 28 16 55 25 47 16 50 16 67 -2 22 -23 69 -17 76 10 4 15 9 17
25 8 14 -7 23 -7 34 2 11 9 14 8 14 -4 0 -23 37 -27 56 -6 20 23 44 25 44 4 0
-9 9 -15 24 -15 27 0 42 15 26 25 -6 4 -5 12 5 21 8 9 15 22 15 30 0 8 5 14
11 14 7 0 9 10 7 24 -5 23 -5 23 126 29 87 4 135 2 143 -5 9 -7 36 -8 74 -4
43 4 78 1 116 -10 39 -11 73 -14 117 -9 112 12 119 40 8 37 -37 -1 -80 2 -97
8 -20 6 42 7 190 2 339 -11 717 -8 830 7 72 9 208 12 488 9 l387 -3 0 53 c0
34 -4 52 -12 52 -9 0 -9 3 0 12 20 20 14 44 -10 43 -13 0 -28 -3 -33 -7 -13
-8 -94 -4 -117 6 -9 4 -23 4 -30 -1 -7 -4 -29 -8 -48 -9 -19 0 -91 -4 -160 -8
-97 -5 -122 -4 -112 6 16 16 15 48 0 49 -7 0 -2 5 12 11 14 6 60 12 104 13 76
2 95 10 96 41 0 6 -15 17 -32 24 -18 8 -41 20 -50 28 -17 15 -22 10 -20 -18 1
-10 -84 -4 -105 8 -12 7 -35 12 -52 12 -24 0 -31 4 -31 20 0 11 -6 21 -12 21
-52 6 -88 5 -88 -3 0 -5 -5 -6 -10 -3 -6 3 -7 18 -4 32 5 19 3 24 -7 21 -8 -2
-15 -17 -17 -31 -2 -15 -9 -27 -17 -27 -7 0 -16 -7 -19 -16 -10 -25 -26 -6
-26 32 0 22 -5 34 -13 34 -20 0 -54 -32 -60 -55 -2 -11 -5 -1 -6 22 0 23 3 44
8 48 6 3 153 8 328 11 175 4 326 11 336 16 14 7 24 5 37 -7 11 -10 26 -15 34
-12 19 7 46 -24 46 -53 0 -33 22 -11 26 26 4 32 9 38 29 31 9 -4 15 -19 15
-41 0 -19 5 -38 10 -41 7 -4 10 67 10 204 0 171 -3 211 -14 211 -10 0 -14 20
-15 82 -2 73 0 80 13 68 14 -11 16 -3 16 79 0 68 -4 96 -15 107 -9 10 -12 25
-8 44 5 29 -8 42 -22 20 -3 -5 -145 -9 -358 -9 -194 0 -359 -2 -367 -5 -15 -6
-90 71 -103 107 -7 19 -23 23 -29 6z m-63 -106 c-38 -35 -60 -48 -93 -53 l-43
-7 31 31 c16 18 30 37 30 43 0 19 32 32 80 33 l45 0 -50 -47z m129 -8 c26 -30
40 -52 32 -49 -9 4 -20 -5 -30 -23 l-15 -28 -1 37 c0 21 -9 52 -20 70 -18 30
-25 48 -17 48 2 0 24 -25 51 -55z m-244 27 c0 -21 -38 -42 -75 -42 -24 0 -47
-6 -53 -13 -14 -17 -13 -97 2 -97 6 0 12 -20 12 -50 2 -48 1 -49 -33 -61 -37
-12 -40 -34 -4 -34 30 -1 69 -51 52 -68 -10 -9 -15 -8 -25 6 -7 9 -18 17 -25
17 -6 0 -11 6 -11 14 0 8 -15 19 -32 25 -40 12 -199 18 -216 7 -8 -5 -12 0
-12 17 0 21 -6 25 -41 30 -58 8 -89 -6 -89 -39 0 -26 -1 -26 -19 -10 -11 10
-25 15 -32 11 -17 -11 -142 -6 -153 5 -6 6 -14 10 -18 10 -13 0 -9 -38 4 -46
7 -4 125 -9 263 -10 338 -2 315 -1 315 -23 0 -13 -7 -19 -22 -18 -72 1 -200
-12 -212 -22 -11 -9 -15 -9 -18 0 -4 11 -40 15 -163 21 -16 1 -41 0 -55 -2
-14 -2 -46 -2 -72 -2 -46 2 -48 3 -48 32 0 35 -25 42 -35 9 -4 -11 -18 -25
-31 -31 -13 -6 -24 -17 -24 -25 0 -9 -16 -13 -55 -13 -30 0 -55 5 -55 10 0 6
16 10 35 10 38 0 50 25 18 37 -10 4 -22 12 -26 20 -4 7 -15 13 -23 13 -8 0
-14 7 -12 16 2 10 -3 19 -9 21 -8 3 -13 -4 -13 -15 0 -11 -3 -27 -6 -36 -12
-30 -19 -16 -16 31 3 43 0 53 -33 90 -28 33 -34 47 -29 67 4 16 2 26 -5 26
-22 0 -11 16 19 27 20 8 30 18 30 33 0 19 -5 21 -52 18 -41 -2 -54 -7 -56 -20
-2 -11 3 -18 12 -18 9 0 16 -4 16 -10 0 -5 -4 -10 -10 -10 -5 0 -10 -7 -10
-15 0 -8 -9 -19 -20 -25 -11 -6 -18 -15 -15 -21 4 -5 0 -12 -8 -15 -26 -10 -8
-54 24 -61 16 -3 32 -10 35 -15 3 -5 -106 -8 -263 -8 -147 1 -276 -2 -285 -5
-12 -5 -21 2 -32 22 -49 89 -102 109 -120 45 -7 -27 -6 -36 11 -55 11 -12 35
-44 54 -72 l34 -50 -3 -140 c-2 -108 -6 -143 -18 -155 -12 -12 -16 -12 -23 -2
-4 7 -15 10 -23 7 -9 -4 -19 -2 -23 4 -3 6 -19 11 -35 11 -16 0 -31 4 -35 10
-3 5 -11 7 -18 5 -12 -5 -37 37 -37 62 0 7 -4 13 -9 13 -13 0 -22 43 -11 54 5
5 5 17 -2 30 -6 11 -12 37 -13 58 -2 30 1 38 15 38 10 0 23 7 30 15 21 26 -1
38 -51 28 l-43 -8 -23 45 c-26 52 -28 60 -10 60 7 0 18 9 25 20 9 15 19 18 40
14 23 -5 41 3 96 45 59 45 73 51 115 51 29 0 53 6 60 14 8 9 49 15 139 19 100
4 136 10 169 26 69 35 126 46 175 35 26 -6 99 -7 182 -2 77 4 141 6 143 5 1
-2 -16 -17 -38 -33 -60 -42 -89 -71 -89 -89 0 -20 20 -19 34 1 14 19 85 23
260 15 137 -6 153 -1 127 40 -11 18 -7 19 66 19 55 0 94 6 133 21 42 16 83 22
175 24 66 2 143 7 170 12 49 8 85 6 85 -5z m-785 -47 c19 -17 23 -24 12 -21
-10 3 -34 6 -53 6 -26 0 -33 3 -27 13 4 6 6 20 4 30 -2 15 1 17 16 8 10 -5 32
-22 48 -36z m105 -15 c18 -12 2 -12 -25 0 -13 6 -15 9 -5 9 8 0 22 -4 30 -9z
m1094 1 c3 -5 -7 -11 -22 -14 -32 -6 -42 0 -22 13 19 12 37 13 44 1z m341 -3
c134 9 255 10 255 2 0 -24 -48 -33 -126 -23 -75 9 -77 9 -100 -16 -13 -14 -27
-34 -30 -43 -3 -10 -12 -18 -21 -18 -13 0 -13 -3 -3 -15 7 -8 17 -15 22 -15 5
0 16 -7 24 -15 14 -13 13 -15 -2 -15 -18 0 -104 77 -104 93 0 4 5 5 10 2 6 -4
10 5 10 20 0 18 -6 29 -20 32 -41 11 -19 24 28 17 26 -4 52 -7 57 -6z m-2680
-21 c35 -13 37 -16 20 -23 -11 -4 -25 -15 -31 -23 -10 -13 -14 -13 -28 -2 -9
7 -16 22 -16 32 0 10 -8 23 -17 29 -16 10 -14 11 7 6 14 -2 43 -11 65 -19z
m2538 16 c-7 -2 -19 -2 -25 0 -7 3 -2 5 12 5 14 0 19 -2 13 -5z m-651 -30 c6
-16 10 -34 9 -41 -1 -8 2 -19 8 -25 7 -9 1 -12 -22 -13 -18 -1 -26 1 -19 3 6
3 12 9 12 15 0 15 -43 58 -57 58 -22 0 -14 18 10 23 43 8 48 7 59 -20z m112
-27 c3 -14 4 -30 1 -38 -2 -7 14 -33 36 -58 41 -45 64 -80 54 -80 -3 0 -22 9
-42 20 -21 11 -43 20 -50 20 -13 0 -73 60 -73 73 0 5 4 6 9 2 5 -3 13 0 17 6
4 6 -1 16 -10 21 -16 9 -22 39 -9 51 3 4 19 7 34 7 20 0 28 -6 33 -24z m984
-62 c5 -46 4 -47 -19 -41 -13 4 -33 7 -44 7 -15 0 -20 7 -20 25 0 14 6 25 12
25 7 0 20 11 29 26 22 32 35 20 42 -42z m-888 -11 c0 -31 -3 -53 -7 -50 -10
10 -12 117 -2 111 5 -3 9 -30 9 -61z m760 53 c0 -11 -19 -15 -25 -6 -3 5 1 10
9 10 9 0 16 -2 16 -4z m-238 -62 c37 -38 61 -54 79 -54 36 0 58 -26 30 -35
-27 -8 -37 -43 -18 -58 12 -9 17 -46 21 -165 4 -102 3 -151 -4 -147 -5 3 -10
30 -10 60 0 34 -5 59 -15 68 -12 12 -12 16 -1 20 19 8 6 81 -15 85 -20 4 -41
-50 -33 -83 3 -13 1 -26 -4 -29 -14 -8 -43 4 -36 15 3 5 -7 9 -21 9 -31 0 -25
16 13 32 26 11 24 12 -28 18 -30 4 -59 5 -63 3 -11 -7 13 -33 29 -33 17 0 18
-12 3 -27 -18 -18 -4 -29 61 -49 33 -11 60 -22 60 -26 0 -12 -29 -10 -67 4
-18 6 -35 10 -37 7 -3 -2 -8 -27 -11 -54 -10 -75 -23 -77 -30 -5 -5 54 -18 69
-46 52 -12 -8 -22 -12 -23 -10 -2 2 -8 18 -15 36 -8 17 -16 32 -20 32 -16 0
-81 72 -81 90 0 27 -16 25 -45 -5 -15 -17 -24 -22 -27 -13 -3 7 -17 12 -31 10
-31 -2 -33 5 -12 44 9 18 15 23 15 12 0 -14 8 -16 43 -13 57 6 100 -7 103 -29
5 -34 14 -47 26 -40 7 5 25 7 41 5 29 -3 44 17 33 45 -5 13 -9 14 -21 4 -12
-10 -15 -10 -15 2 0 11 23 14 112 13 99 0 113 2 116 18 2 11 -3 17 -14 17 -10
0 -14 3 -10 8 4 4 13 7 19 7 6 0 12 14 14 32 3 24 -2 37 -19 53 -13 11 -30 27
-39 35 -22 21 -29 19 -29 -7 0 -15 -9 -27 -25 -35 -14 -6 -25 -8 -25 -4 0 16
-154 -1 -181 -20 -33 -23 -72 -15 -63 13 4 14 2 19 -7 16 -7 -2 -16 -15 -19
-29 -5 -21 -7 -22 -13 -6 -4 10 -7 42 -7 71 0 64 -11 78 -51 63 -36 -14 -37
-25 -4 -37 28 -11 34 -44 9 -54 -10 -4 -13 -13 -9 -26 5 -16 2 -20 -19 -20
-51 0 -56 7 -56 86 l0 73 78 3 c42 2 141 4 219 5 l141 2 54 -55z m-3185 32 c0
-1 3 -17 5 -36 3 -32 1 -35 -25 -38 -17 -2 -37 4 -48 14 -21 19 -25 60 -6 67
9 4 66 -2 74 -7z m2633 -7 c0 -5 -4 -9 -10 -9 -5 0 -10 7 -10 16 0 8 5 12 10
9 6 -3 10 -10 10 -16z m760 4 c-1 -13 -51 -46 -58 -38 -4 3 4 15 18 25 26 21
40 25 40 13z m50 -23 c0 -5 -4 -10 -10 -10 -5 0 -10 5 -10 10 0 6 5 10 10 10
6 0 10 -4 10 -10z m-2705 -36 c13 -14 27 -35 30 -45 4 -11 11 -19 16 -19 5 0
9 -7 9 -15 0 -29 -13 -19 -68 51 -17 23 -32 45 -32 48 0 14 23 4 45 -20z
m-415 -11 c0 -9 15 -44 34 -77 l35 -62 -72 4 c-114 4 -137 10 -137 32 0 28
-17 25 -24 -5 -11 -42 -23 -28 -19 23 4 46 -9 84 -23 69 -4 -4 -8 -31 -8 -59
0 -29 -3 -55 -7 -58 -4 -3 -44 -4 -89 -2 -81 4 -81 4 -64 23 15 17 16 25 7 50
-12 30 -11 30 17 24 21 -5 34 -1 49 14 11 11 18 26 16 33 -4 10 26 12 140 10
125 -3 145 -5 145 -19z m64 -20 c13 -21 29 -55 36 -76 11 -34 15 -38 36 -33
31 8 31 -6 0 -20 -23 -11 -26 -8 -61 62 -19 40 -40 76 -45 79 -13 8 -13 25 0
25 5 0 21 -17 34 -37z m1031 27 c3 -5 1 -10 -4 -10 -6 0 -11 5 -11 10 0 6 2
10 4 10 3 0 8 -4 11 -10z m1069 4 c17 -6 22 -24 8 -24 -5 0 -17 7 -28 15 -19
15 -8 20 20 9z m-74 -40 c0 -8 -5 -12 -10 -9 -6 4 -8 11 -5 16 9 14 15 11 15
-7z m948 -84 c0 -47 -1 -50 -8 -25 -25 90 -27 104 -16 115 15 15 24 -19 24
-90z m152 35 l0 -65 -33 0 c-18 0 -38 -5 -45 -12 -20 -20 -14 -46 11 -50 12
-2 22 -7 22 -13 0 -15 -44 -18 -76 -5 -33 14 -28 33 12 53 22 11 24 20 27 85
l3 72 39 0 40 0 0 -65z m-2096 28 c14 -4 17 -11 12 -34 -3 -15 -1 -31 4 -34
27 -16 5 -26 -55 -24 -41 1 -65 6 -65 14 0 7 -28 11 -87 11 -49 0 -159 1 -245
3 l-158 4 0 33 c0 29 3 33 33 37 42 6 537 -3 561 -10z m596 13 c0 -3 -4 -8
-10 -11 -5 -3 -10 -1 -10 4 0 6 5 11 10 11 6 0 10 -2 10 -4z m505 -6 c4 -6 4
-18 1 -27 -5 -12 -9 -13 -21 -3 -8 7 -15 19 -15 26 0 16 26 19 35 4z m74 -19
c20 -10 54 -23 76 -27 35 -8 41 -14 50 -48 7 -22 17 -42 23 -44 7 -2 12 -10
12 -18 0 -10 -12 -14 -40 -14 l-40 0 0 -105 c0 -171 -19 -125 -22 53 l-3 157
-51 0 -52 0 1 33 c1 17 3 32 5 32 2 0 21 -8 41 -19z m-139 -31 c0 -16 -4 -32
-10 -35 -6 -4 -10 10 -10 35 0 25 4 39 10 35 6 -3 10 -19 10 -35z m768 25 c3
-3 -16 -5 -42 -5 -26 0 -45 4 -42 8 5 9 75 6 84 -3z m-125 -17 c-2 -5 -33 -8
-69 -8 -36 0 -63 4 -60 9 3 5 34 8 70 7 35 0 62 -4 59 -8z m-573 -38 c0 -4 3
-15 6 -23 4 -11 -5 -17 -35 -22 -55 -9 -65 -30 -59 -122 4 -51 10 -79 23 -93
18 -20 17 -20 -11 -20 -16 0 -38 7 -48 15 -11 8 -29 15 -40 15 -19 0 -21 5
-19 67 2 38 4 77 5 88 3 18 -2 20 -61 17 -36 -1 -67 2 -71 7 -3 6 -4 -22 -2
-61 4 -58 1 -73 -12 -80 -31 -18 -15 -28 45 -27 33 1 63 -2 67 -5 10 -11 -21
-26 -40 -20 -13 4 -21 -2 -28 -21 -11 -29 -30 -25 -30 6 0 15 -6 19 -26 16
-14 -2 -29 -9 -33 -16 -13 -20 -24 5 -13 26 15 30 22 95 11 114 -7 14 -5 23
11 39 12 12 20 31 18 43 -3 21 0 22 72 20 64 -2 77 -5 92 -25 l18 -23 6 23 c7
26 19 29 28 5 6 -15 8 -14 21 4 9 13 22 19 34 16 22 -5 30 5 33 40 2 21 5 24
20 16 10 -5 18 -14 18 -19z m307 -2 c-3 -7 -5 -2 -5 12 0 14 2 19 5 13 2 -7 2
-19 0 -25z m-47 2 c-7 -4 -16 -14 -21 -21 -6 -10 -9 -6 -9 13 0 22 4 25 21 21
14 -4 17 -8 9 -13z m167 -12 c-3 -8 -6 -5 -6 6 -1 11 2 17 5 13 3 -3 4 -12 1
-19z m-2152 2 c3 -5 1 -10 -4 -10 -6 0 -11 5 -11 10 0 6 2 10 4 10 3 0 8 -4
11 -10z m685 0 c0 -5 -5 -10 -11 -10 -5 0 -7 5 -4 10 3 6 8 10 11 10 2 0 4 -4
4 -10z m-180 -14 c0 -2 -16 -16 -36 -31 -30 -23 -47 -28 -98 -29 -33 -1 -74 1
-91 5 -20 5 -2 7 52 8 71 1 84 4 93 20 6 12 24 21 43 24 17 2 33 5 35 5 1 1 2
0 2 -2z m620 -17 c0 -5 7 -9 15 -9 8 0 15 -4 15 -10 0 -6 -28 -8 -70 -6 -62 4
-70 2 -66 -12 3 -10 2 -33 -3 -52 -4 -21 -3 -42 3 -52 13 -22 3 -32 -23 -23
-18 6 -21 14 -21 70 0 59 -1 63 -25 67 -14 3 -25 1 -25 -4 0 -5 -10 -8 -22 -6
-31 4 -33 -16 -3 -30 14 -6 25 -17 25 -24 0 -30 43 -98 66 -104 23 -6 36 -44
14 -44 -5 0 -10 4 -10 9 0 5 -18 12 -39 16 -43 7 -58 32 -31 52 18 14 12 22
-20 25 -23 3 -24 0 -25 -49 0 -49 -8 -73 -21 -60 -12 11 -10 116 2 121 6 2 9
15 7 29 -6 31 -46 49 -116 52 -85 4 -86 8 -7 15 55 4 79 3 91 -7 18 -15 41 1
32 23 -3 8 0 14 6 14 6 0 11 -5 11 -11 0 -8 4 -8 14 0 8 7 44 10 89 9 46 -1
81 2 88 9 12 12 49 6 49 -8z m657 5 c-3 -3 -12 -4 -19 -1 -8 3 -5 6 6 6 11 1
17 -2 13 -5z m-551 -14 c12 0 13 -4 3 -22 -7 -14 -10 -55 -7 -120 5 -95 4 -98
-14 -82 -17 16 -19 16 -38 -1 -11 -10 -20 -25 -20 -34 0 -11 -10 -16 -30 -17
-24 -1 -30 3 -30 19 0 16 -4 18 -22 12 -44 -14 -101 -18 -94 -6 4 6 21 11 38
11 16 0 42 9 56 21 16 12 28 16 30 10 5 -15 18 -14 36 5 12 11 16 36 16 90 0
57 4 76 15 80 8 4 15 15 15 26 0 14 5 18 16 14 9 -3 22 -6 30 -6z m117 1 c4 0
7 -5 7 -11 0 -5 -15 -10 -34 -10 -19 0 -38 -4 -41 -10 -11 -18 -25 -11 -25 13
0 21 4 23 43 21 23 0 45 -2 50 -3z m837 5 c0 -11 -19 -15 -25 -6 -3 5 1 10 9
10 9 0 16 -2 16 -4z m-1555 -16 c16 -7 11 -9 -20 -9 -22 0 -47 4 -55 9 -19 13
46 13 75 0z m2101 -6 c-4 -11 1 -22 14 -31 12 -9 20 -25 20 -44 0 -32 -11 -37
-30 -14 -7 8 -18 15 -25 15 -24 0 -26 43 -3 67 25 27 32 29 24 7z m-2706 -25
c0 -22 -5 -21 120 -23 89 -1 95 -2 92 -21 -2 -11 -3 -36 -2 -55 0 -19 -4 -50
-9 -67 -6 -21 -6 -35 0 -39 5 -3 7 -14 4 -23 -7 -24 22 -50 31 -28 3 8 17 18
30 21 33 9 25 32 -9 28 -15 -2 -27 1 -27 7 0 12 4 13 62 16 24 1 39 -3 42 -11
3 -9 -2 -14 -15 -14 -22 0 -22 8 2 -200 13 -115 18 -380 7 -380 -4 0 -10 5
-14 11 -4 8 -9 8 -18 -1 -8 -8 -7 -13 4 -21 11 -7 2 -9 -30 -8 -25 1 -52 8
-60 15 -17 14 -164 26 -218 17 -31 -5 -34 -8 -28 -34 5 -24 2 -29 -15 -29 -16
0 -18 3 -9 19 6 12 10 104 9 236 0 119 1 219 4 222 3 2 14 0 24 -5 10 -5 71
-11 136 -13 101 -4 117 -2 115 11 -2 9 -17 16 -41 18 -30 3 -37 7 -37 24 0 18
4 20 32 14 18 -3 42 -15 53 -26 16 -15 24 -17 33 -8 22 22 12 39 -35 60 -36
16 -51 18 -64 9 -29 -17 -50 -3 -42 28 3 14 10 28 15 29 9 4 11 42 2 42 -25 0
-44 -24 -44 -56 l0 -35 -50 3 c-27 2 -52 7 -56 11 -12 12 -24 8 -24 -8 0 -8
-5 -15 -11 -15 -7 0 -10 42 -7 130 2 71 6 130 11 130 4 0 7 11 7 25 0 18 4 23
15 19 8 -4 15 -15 15 -25z m190 21 c0 -5 -15 -10 -32 -9 -28 0 -30 2 -13 9 28
12 45 12 45 0z m30 0 c0 -5 -4 -10 -10 -10 -5 0 -10 5 -10 10 0 6 5 10 10 10
6 0 10 -4 10 -10z m-127 -7 c-7 -2 -21 -2 -30 0 -10 3 -4 5 12 5 17 0 24 -2
18 -5z m367 -23 c0 -21 -5 -30 -16 -30 -13 0 -14 3 -4 15 7 8 10 22 6 30 -3 8
-1 15 4 15 6 0 10 -13 10 -30z m1209 -70 c3 -87 -12 -109 -23 -34 -10 74 -7
114 7 114 9 0 14 -23 16 -80z m53 14 c-2 -19 -8 -34 -13 -34 -10 0 -12 44 -2
79 5 21 7 22 13 7 3 -10 4 -33 2 -52z m-1147 45 c38 10 55 8 55 -8 0 -5 -27
-9 -60 -10 -50 -1 -58 1 -53 15 4 11 8 12 13 4 5 -9 17 -9 45 -1z m1195 1 c0
-5 -4 -10 -10 -10 -5 0 -10 5 -10 10 0 6 5 10 10 10 6 0 10 -4 10 -10z m-978
-12 c5 -17 3 -167 -3 -172 -3 -3 -27 -7 -55 -9 -28 -2 -55 -7 -61 -10 -5 -4
-8 6 -5 24 4 25 8 30 25 25 31 -8 47 11 47 55 0 25 6 41 16 47 21 12 10 32
-19 33 -20 1 -20 2 3 9 37 12 47 11 52 -2z m454 -39 c-5 -62 9 -120 28 -113
10 4 15 -6 18 -35 2 -29 0 -41 -9 -41 -7 0 -13 9 -13 21 0 11 -9 32 -20 46
-16 20 -20 41 -20 99 0 45 4 74 10 74 7 0 9 -19 6 -51z m-961 30 c-18 -5 -33
-5 -39 1 -7 7 4 10 30 9 39 -1 39 -1 9 -10z m1737 -167 c-2 -18 -9 -35 -15
-39 -18 -11 -177 -9 -166 2 5 5 45 10 87 10 88 0 78 -16 82 130 l3 80 7 -75
c4 -41 5 -90 2 -108z m38 168 c0 -5 -4 -10 -10 -10 -5 0 -10 5 -10 10 0 6 5
10 10 10 6 0 10 -4 10 -10z m498 -9 c15 -11 51 -25 80 -31 30 -7 65 -23 79
-36 28 -26 23 -50 -7 -34 -11 6 -47 13 -82 16 -97 10 -131 37 -112 88 8 20 9
20 42 -3z m-1985 -121 c-16 -36 -43 -54 -43 -30 0 6 3 10 8 10 9 0 41 73 43
98 1 9 4 5 6 -11 2 -15 -4 -45 -14 -67z m-236 18 c-2 -13 -4 -3 -4 22 0 25 2
35 4 23 2 -13 2 -33 0 -45z m58 -18 c6 -10 10 -9 16 8 5 12 6 29 3 37 -4 10 0
15 10 15 9 0 16 -6 15 -12 -4 -31 2 -48 16 -48 10 0 15 10 15 30 0 17 5 30 10
30 6 0 10 -24 10 -54 l0 -54 -61 4 c-68 4 -75 7 -63 25 4 7 7 34 7 59 -2 43
-1 44 6 10 4 -20 11 -42 16 -50z m235 44 c0 -8 -4 -12 -10 -9 -5 3 -10 10 -10
16 0 5 5 9 10 9 6 0 10 -7 10 -16z m67 10 c-3 -3 -12 -4 -19 -1 -8 3 -5 6 6 6
11 1 17 -2 13 -5z m1103 -3 c0 -5 -6 -11 -12 -13 -9 -3 -8 -10 5 -22 10 -10
16 -23 14 -30 -4 -13 -72 -20 -96 -10 -9 4 -22 6 -28 5 -7 -1 -13 3 -13 9 0 5
3 9 8 8 14 -4 52 23 52 37 0 12 17 19 58 24 6 0 12 -3 12 -8z m-2090 -31 c0
-11 -4 -20 -10 -20 -5 0 -10 9 -10 20 0 11 5 20 10 20 6 0 10 -9 10 -20z m555
10 c3 -6 -1 -13 -10 -16 -19 -8 -30 0 -20 15 8 14 22 14 30 1z m765 0 c0 -5
-5 -10 -11 -10 -5 0 -7 5 -4 10 3 6 8 10 11 10 2 0 4 -4 4 -10z m950 -36 c0
-21 -5 -24 -35 -24 -19 0 -35 2 -35 5 0 18 27 43 47 43 18 0 23 -6 23 -24z
m190 16 c0 -5 -4 -10 -10 -10 -5 0 -10 5 -10 10 0 6 5 10 10 10 6 0 10 -4 10
-10z m465 -12 c1 -2 6 -21 9 -43 6 -34 5 -38 -6 -24 -18 22 -64 32 -88 19 -18
-10 -20 -7 -20 28 l0 39 51 -8 c28 -5 53 -10 54 -11z m-3555 -19 c0 -14 -7
-19 -25 -19 -16 0 -25 6 -25 15 0 8 7 15 15 15 8 0 15 5 15 11 0 5 5 7 10 4 6
-3 10 -15 10 -26z m3007 16 c-6 -17 -37 -18 -37 -1 0 9 8 14 20 13 11 -1 19
-6 17 -12z m-2737 -5 c0 -5 -4 -10 -10 -10 -5 0 -10 5 -10 10 0 6 5 10 10 10
6 0 10 -4 10 -10z m2540 0 c0 -5 -4 -10 -10 -10 -5 0 -10 5 -10 10 0 6 5 10
10 10 6 0 10 -4 10 -10z m250 -16 c0 -8 -4 -12 -10 -9 -5 3 -10 10 -10 16 0 5
5 9 10 9 6 0 10 -7 10 -16z m-2770 -34 c0 -5 -2 -10 -4 -10 -3 0 -8 5 -11 10
-3 6 -1 10 4 10 6 0 11 -4 11 -10z m2970 6 c0 -3 -4 -8 -10 -11 -5 -3 -10 -1
-10 4 0 6 5 11 10 11 6 0 10 -2 10 -4z m-3228 -20 c12 -18 9 -31 -4 -18 -7 7
-18 12 -25 12 -11 0 -11 -4 -1 -20 7 -11 16 -20 20 -20 5 0 17 -9 29 -21 15
-15 24 -17 33 -10 13 11 151 10 162 -2 4 -4 13 -2 21 4 10 9 17 8 28 -1 11 -9
18 -10 29 -1 10 9 16 8 26 -4 16 -20 27 -19 34 3 5 15 24 17 188 19 101 2 199
5 219 9 41 7 81 -9 73 -30 -3 -7 -24 -17 -47 -22 l-42 -9 -3 -100 -3 -101 -92
9 c-51 5 -132 6 -180 4 l-89 -5 3 91 c3 93 -2 106 -37 93 -11 -4 -12 -11 -5
-23 5 -10 10 -57 12 -106 2 -48 3 -83 1 -77 -2 5 -19 12 -38 16 -21 4 -44 18
-59 38 -24 29 -26 30 -39 13 -12 -15 -18 -17 -36 -7 -20 11 -45 9 -84 -6 -14
-5 -16 4 -16 60 0 37 4 66 10 66 6 0 10 -5 10 -12 0 -9 3 -9 11 -1 15 15 3 47
-13 36 -7 -4 -20 -6 -29 -5 -14 2 -17 -6 -17 -46 0 -38 -5 -55 -22 -72 -12
-12 -23 -20 -24 -18 -32 42 -36 58 -36 135 0 46 -3 83 -7 83 -5 0 -23 13 -41
28 l-33 27 53 1 c29 0 56 -4 60 -10z m205 8 c-3 -3 -12 -4 -19 -1 -8 3 -5 6 6
6 11 1 17 -2 13 -5z m268 -4 c3 -5 -1 -10 -9 -10 -9 0 -16 5 -16 10 0 6 4 10
9 10 6 0 13 -4 16 -10z m1659 -5 c3 -8 1 -15 -4 -15 -6 0 -10 7 -10 15 0 8 2
15 4 15 2 0 6 -7 10 -15z m96 4 c0 -6 7 -9 15 -6 8 4 17 2 20 -3 4 -6 -7 -10
-24 -10 -21 0 -31 5 -31 15 0 8 5 15 10 15 6 0 10 -5 10 -11z m80 -4 c0 -8 -7
-15 -15 -15 -9 0 -12 6 -9 15 4 8 10 15 15 15 5 0 9 -7 9 -15z m245 5 c3 -6
-6 -11 -22 -11 -113 -6 -163 -6 -163 0 0 5 28 9 62 10 34 1 64 4 67 6 8 9 50
5 56 -5z m155 -11 c0 -10 -83 -12 -117 -3 -42 11 -16 19 51 16 36 -2 66 -8 66
-13z m240 11 c0 -5 -4 -10 -10 -10 -5 0 -10 5 -10 10 0 6 5 10 10 10 6 0 10
-4 10 -10z m194 2 c2 -4 -38 -9 -90 -10 -56 -2 -94 1 -94 6 0 12 177 15 184 4z
m256 -2 c0 -5 -4 -10 -10 -10 -5 0 -10 5 -10 10 0 6 5 10 10 10 6 0 10 -4 10
-10z m-3580 -10 c0 -5 -4 -10 -10 -10 -5 0 -10 5 -10 10 0 6 5 10 10 10 6 0
10 -4 10 -10z m2277 -6 c2 -5 -12 -10 -31 -11 -26 -1 -33 2 -29 14 6 16 54 14
60 -3z m248 6 c-3 -5 -11 -10 -16 -10 -6 0 -7 5 -4 10 3 6 11 10 16 10 6 0 7
-4 4 -10z m-665 -10 c0 -5 -7 -10 -15 -10 -8 0 -15 5 -15 10 0 6 7 10 15 10 8
0 15 -4 15 -10z m180 0 c0 -5 -16 -12 -35 -16 -19 -3 -35 -12 -35 -19 0 -7 -7
-18 -16 -25 -12 -11 -18 -10 -34 6 -10 10 -21 29 -25 42 -6 21 -4 22 69 22 42
0 76 -4 76 -10z m-413 -32 c-3 -7 -5 -2 -5 12 0 14 2 19 5 13 2 -7 2 -19 0
-25z m-1558 8 c22 -12 20 -13 -23 -12 -40 1 -44 3 -29 14 20 15 22 15 52 -2z
m2688 -20 c4 -4 1 -12 -5 -18 -7 -7 -12 -20 -12 -30 0 -17 -9 -22 -27 -15 -5
1 -7 6 -5 10 1 4 -5 10 -13 13 -12 5 -13 9 -4 20 9 11 8 14 -4 14 -8 0 -17 -6
-20 -12 -4 -10 -7 -10 -18 0 -19 17 -29 15 -29 -7 0 -11 9 -21 23 -25 18 -5
19 -8 7 -16 -13 -8 -12 -11 5 -25 19 -14 17 -15 -22 -9 -39 6 -43 5 -43 -15 0
-14 6 -21 20 -21 11 0 20 -4 20 -10 0 -13 -2 -12 -37 1 -56 23 -91 20 -113 -8
-21 -26 -56 -38 -66 -21 -3 4 3 8 13 8 13 0 18 8 19 29 2 45 12 67 26 53 15
-15 43 -15 70 -1 17 9 18 13 7 21 -11 7 -11 11 -1 15 6 2 12 13 12 23 0 31 30
41 113 36 43 -2 81 -7 84 -10z m-1572 -16 c24 -20 11 -25 -63 -28 -72 -3 -87
3 -75 33 5 15 15 17 65 12 32 -3 65 -11 73 -17z m1111 10 c8 0 14 -9 14 -20 0
-11 5 -20 12 -20 9 0 9 -3 -1 -12 -10 -11 -15 -9 -25 5 -12 15 -14 16 -20 2
-3 -8 -10 -15 -16 -15 -7 0 -8 6 -1 17 6 11 6 24 -1 37 -9 16 -8 18 7 13 9 -4
23 -7 31 -7z m176 -26 c-6 -22 -15 -30 -35 -32 -15 -2 -27 1 -27 7 0 6 8 11
18 11 11 0 24 12 31 26 15 34 23 27 13 -12z m53 26 c3 -5 1 -10 -4 -10 -6 0
-11 5 -11 10 0 6 2 10 4 10 3 0 8 -4 11 -10z m369 4 c9 -4 16 -18 16 -33 0
-18 -3 -22 -9 -13 -4 8 -19 12 -32 10 -23 -3 -59 18 -59 34 0 9 61 11 84 2z
m-1257 -36 c-3 -7 -5 -2 -5 12 0 14 2 19 5 13 2 -7 2 -19 0 -25z m68 22 c3 -5
2 -10 -4 -10 -5 0 -13 5 -16 10 -3 6 -2 10 4 10 5 0 13 -4 16 -10z m82 -52
c-2 -13 -4 -3 -4 22 0 25 2 35 4 23 2 -13 2 -33 0 -45z m292 46 c19 -9 42 -13
56 -10 14 4 25 2 25 -4 0 -5 -5 -10 -11 -10 -15 0 -38 -31 -39 -51 0 -16 -17
-16 -166 -7 -20 1 -39 -6 -54 -20 -33 -31 -37 -19 -6 15 14 15 26 37 26 48 0
15 2 17 9 6 8 -12 16 -12 55 0 25 7 46 19 46 25 0 7 6 15 13 17 6 3 12 6 13 6
0 1 15 -6 33 -15z m-539 -45 c0 -5 -4 -9 -10 -9 -5 0 -10 7 -10 16 0 8 5 12
10 9 6 -3 10 -10 10 -16z m100 -9 c0 -5 -2 -10 -4 -10 -3 0 -8 5 -11 10 -3 6
-1 10 4 10 6 0 11 -4 11 -10z m-663 -16 c-3 -3 -12 -4 -19 -1 -8 3 -5 6 6 6
11 1 17 -2 13 -5z m1768 -13 c-15 -15 -65 -25 -65 -13 0 13 17 20 50 21 15 1
20 -3 15 -8z m-485 -11 c0 -5 -4 -10 -10 -10 -5 0 -10 5 -10 10 0 6 5 10 10
10 6 0 10 -4 10 -10z m118 -17 c-2 -12 -13 -18 -32 -18 -18 -1 -32 -7 -35 -18
-6 -15 -7 -15 -18 3 -14 22 -7 29 41 41 46 11 48 10 44 -8z m722 7 c0 -5 -7
-10 -16 -10 -8 0 -12 5 -9 10 3 6 10 10 16 10 5 0 9 -4 9 -10z m70 0 c0 -5
-15 -10 -32 -9 -31 1 -32 1 -8 9 35 11 40 11 40 0z m-970 -28 c0 -17 -40 -31
-62 -22 -22 8 -22 9 -2 9 12 1 27 8 34 16 12 14 30 12 30 -3z m30 -3 c0 -6 -4
-7 -10 -4 -5 3 -10 11 -10 16 0 6 5 7 10 4 6 -3 10 -11 10 -16z m-672 -51 c-7
-44 -1 -58 27 -58 12 0 25 -7 28 -15 9 -21 -14 -31 -28 -12 -17 24 -23 21 -27
-10 -3 -27 -5 -28 -53 -26 -27 1 -53 2 -57 2 -5 1 -8 35 -8 76 l0 75 61 0 62
0 -5 -32z m242 22 c0 -5 -7 -10 -15 -10 -8 0 -15 5 -15 10 0 6 7 10 15 10 8 0
15 -4 15 -10z m255 -10 c3 -5 1 -10 -4 -10 -6 0 -11 5 -11 10 0 6 2 10 4 10 3
0 8 -4 11 -10z m445 0 c0 -5 -2 -10 -4 -10 -3 0 -8 5 -11 10 -3 6 -1 10 4 10
6 0 11 -4 11 -10z m110 0 c0 -5 -7 -10 -15 -10 -8 0 -15 5 -15 10 0 6 7 10 15
10 8 0 15 -4 15 -10z m228 -9 c3 -8 -1 -12 -9 -9 -7 2 -15 10 -17 17 -3 8 1
12 9 9 7 -2 15 -10 17 -17z m42 4 c0 -8 -4 -15 -10 -15 -5 0 -10 7 -10 15 0 8
5 15 10 15 6 0 10 -7 10 -15z m225 5 c-3 -5 -11 -10 -16 -10 -6 0 -7 5 -4 10
3 6 11 10 16 10 6 0 7 -4 4 -10z m-555 -26 c0 -8 -4 -12 -10 -9 -5 3 -10 10
-10 16 0 5 5 9 10 9 6 0 10 -7 10 -16z m-2157 -30 c20 -3 37 -11 38 -18 2 -33
-3 -171 -6 -175 -2 -2 -21 5 -42 16 -35 18 -39 24 -45 74 -4 30 -10 69 -14 88
-6 29 -4 33 12 28 11 -3 36 -9 57 -13z m1377 -4 c0 -5 -9 -10 -20 -10 -21 0
-28 -26 -9 -32 19 -6 -9 -48 -31 -48 -11 0 -20 5 -20 10 0 6 5 10 10 10 6 0
10 10 9 23 -4 49 0 57 31 57 17 0 30 -4 30 -10z m92 -25 c0 -19 1 -41 2 -47 1
-8 -12 -13 -33 -13 -19 0 -36 6 -38 13 -3 6 2 12 10 12 9 0 17 14 21 35 4 21
13 35 21 35 10 0 16 -12 17 -35z m154 8 c-10 -10 -19 5 -10 18 6 11 8 11 12 0
2 -7 1 -15 -2 -18z m1099 17 c-3 -5 -11 -10 -16 -10 -6 0 -7 5 -4 10 3 6 11
10 16 10 6 0 7 -4 4 -10z m-2125 -21 c0 -11 -9 -32 -20 -46 l-20 -26 0 47 c0
39 3 46 20 46 14 0 20 -7 20 -21z m984 -3 c-3 -9 -10 -16 -15 -16 -6 0 -5 9 1
21 13 24 24 20 14 -5z m746 14 c0 -5 -5 -10 -11 -10 -5 0 -7 5 -4 10 3 6 8 10
11 10 2 0 4 -4 4 -10z m-910 -4 c0 -2 -7 -6 -15 -10 -8 -3 -15 -1 -15 4 0 6 7
10 15 10 8 0 15 -2 15 -4z m100 -6 c0 -5 -2 -10 -4 -10 -3 0 -8 5 -11 10 -3 6
-1 10 4 10 6 0 11 -4 11 -10z m770 0 c0 -5 -4 -10 -10 -10 -5 0 -10 5 -10 10
0 6 5 10 10 10 6 0 10 -4 10 -10z m-2163 -24 c7 -6 14 -46 16 -93 3 -74 1 -83
-14 -83 -10 0 -21 5 -24 10 -4 6 -13 9 -21 8 -12 -2 -15 14 -17 89 l-2 92 25
-6 c14 -3 30 -11 37 -17z m283 12 c41 0 83 -4 92 -9 11 -6 18 -5 22 4 2 6 4
-30 3 -82 l-2 -95 -48 -12 c-47 -12 -210 -11 -274 2 l-33 6 3 92 2 91 30 7
c17 3 53 4 80 1 28 -3 84 -6 125 -5z m3007 -63 c-6 -13 -11 -14 -29 -4 -32 16
-31 15 -18 39 l12 22 20 -20 c13 -12 18 -27 15 -37z m-2161 30 c-8 -23 4 -45
25 -45 10 0 19 -4 19 -9 0 -13 -71 -23 -170 -25 -73 -1 -85 1 -88 17 -3 15 6
17 78 17 77 0 83 2 108 29 32 34 36 36 28 16z m1639 -25 c7 0 20 7 29 15 19
20 76 20 76 0 0 -10 16 -15 63 -18 34 -2 -10 -3 -98 -4 -88 0 -147 2 -132 4
16 3 31 12 35 21 6 16 7 16 10 0 2 -10 10 -18 17 -18z m-855 5 c16 -19 90 -20
115 -1 19 14 63 8 88 -12 7 -5 65 -7 131 -6 89 2 122 7 135 18 14 12 24 13 54
5 21 -5 41 -8 46 -4 5 3 19 1 31 -3 17 -6 3 -11 -61 -21 -122 -19 -869 -20
-869 -2 0 3 48 7 108 8 85 1 109 5 117 17 13 21 88 21 105 1z m-1440 -24 c0
-17 -4 -32 -9 -35 -10 -6 -20 33 -13 52 7 23 22 12 22 -17z m2187 15 c4 -3
-19 -6 -51 -6 -33 0 -55 4 -51 9 6 10 92 8 102 -3z m-2217 -182 c0 -2 -7 -4
-15 -4 -8 0 -15 4 -15 10 0 5 7 7 15 4 8 -4 15 -8 15 -10z"/>
<path d="M1555 1660 c-9 -16 -12 -30 -7 -30 16 0 52 32 52 46 0 25 -29 15 -45
-16z"/>
<path d="M1336 1641 c-10 -15 8 -51 21 -43 19 12 20 46 1 50 -9 2 -19 -1 -22
-7z"/>
<path d="M1243 1592 c-18 -2 -33 -9 -33 -15 0 -20 17 -40 28 -33 6 4 46 -2 89
-13 50 -13 81 -17 87 -11 14 14 0 24 -69 44 -33 10 -62 21 -65 25 -3 3 -20 5
-37 3z"/>
<path d="M834 1317 c-8 -21 -1 -52 11 -52 14 0 19 45 6 58 -7 7 -12 6 -17 -6z"/>
<path d="M1155 1207 c-11 -28 0 -190 13 -195 9 -3 12 21 12 97 0 91 -11 135
-25 98z"/>
<path d="M1120 786 c0 -9 24 -15 87 -20 94 -7 103 -10 85 -28 -9 -9 -23 -9
-59 0 -37 10 -48 10 -54 0 -4 -7 -23 -17 -40 -23 -35 -12 -43 -23 -31 -42 9
-15 152 -17 257 -4 44 5 81 10 82 10 2 1 -3 12 -9 26 -8 18 -19 25 -40 25 -17
0 -28 5 -28 13 0 9 10 12 30 9 42 -6 40 22 -1 37 -48 17 -279 15 -279 -3z"/>
<path d="M1177 614 c-14 -14 -6 -24 19 -24 16 0 24 5 22 13 -5 14 -31 21 -41
11z"/>
<path d="M657 943 c-13 -12 -7 -43 8 -43 9 0 15 9 15 25 0 24 -10 32 -23 18z"/>
<path d="M432 908 c7 -19 35 -21 41 -3 5 11 0 15 -19 15 -16 0 -24 -5 -22 -12z"/>
<path d="M725 901 c-9 -15 11 -21 46 -14 28 5 30 7 14 14 -28 11 -53 11 -60 0z"/>
<path d="M456 843 c-11 -11 -6 -23 9 -23 8 0 15 4 15 9 0 13 -16 22 -24 14z"/>
<path d="M1550 720 c0 -19 5 -30 14 -30 19 0 29 30 15 46 -18 22 -29 16 -29
-16z"/>
<path d="M1 1264 c-1 -70 -1 -71 23 -67 19 4 25 13 28 38 5 43 0 55 -22 55
-11 0 -20 9 -23 23 -2 12 -5 -10 -6 -49z"/>
<path d="M167 1283 c-4 -3 -7 -21 -7 -39 0 -23 6 -37 20 -44 30 -16 40 -4 40
46 0 39 -2 44 -23 44 -13 0 -27 -3 -30 -7z"/>
<path d="M1724 449 c-13 -21 19 -27 208 -34 152 -6 191 -10 195 -22 4 -10 14
-12 30 -8 14 3 32 0 44 -8 36 -26 94 1 73 34 -5 8 -12 5 -24 -11 l-18 -23 -6
21 c-11 32 -47 39 -271 47 -88 3 -174 8 -192 11 -18 3 -34 0 -39 -7z"/>
<path d="M2356 423 c-4 -4 -17 -8 -29 -8 -12 0 -23 -7 -25 -16 -4 -21 44 -35
64 -18 10 8 22 8 45 0 49 -17 69 -14 69 10 0 16 -4 19 -20 14 -11 -4 -29 0
-42 9 -24 17 -50 21 -62 9z"/>
<path d="M2500 410 c0 -22 37 -31 105 -27 22 1 57 -2 78 -6 30 -6 37 -5 37 8
0 8 -6 15 -13 15 -8 0 -28 7 -46 16 -24 12 -38 13 -60 6 -16 -6 -31 -9 -33 -8
-1 2 -18 6 -35 9 -28 6 -33 4 -33 -13z"/>
<path d="M2763 388 c-13 -6 -23 -19 -23 -30 0 -22 -2 -22 41 0 53 27 35 56
-18 30z"/>
<path d="M2902 364 c2 -11 11 -20 22 -22 13 -3 17 1 14 14 -2 11 -11 20 -22
22 -13 3 -17 -1 -14 -14z"/>
<path d="M2837 364 c-13 -13 -7 -24 14 -24 11 0 19 5 17 12 -5 14 -22 21 -31
12z"/>
<path d="M2335 10 c-4 -6 9 -10 32 -10 28 0 34 3 23 10 -20 13 -47 13 -55 0z"/>
</g>
</svg>
