<?xml version="1.0" standalone="no"?>
<!DOCTYPE svg PUBLIC "-//W3C//DTD SVG 20010904//EN"
 "http://www.w3.org/TR/2001/REC-SVG-20010904/DTD/svg10.dtd">
<svg version="1.0" xmlns="http://www.w3.org/2000/svg"
 width="344.000000pt" height="256.000000pt" viewBox="0 0 344.000000 256.000000"
 preserveAspectRatio="xMidYMid meet">
<metadata>
Created by potrace 1.16, written by Peter Selinger 2001-2019
</metadata>
<g transform="translate(0.000000,256.000000) scale(0.100000,-0.100000)"
fill="#000000" stroke="none">
<path d="M239 2555 c-3 -2 -48 -5 -100 -6 -101 -1 -120 -8 -111 -41 3 -14 -1
-26 -13 -34 -17 -13 -18 -15 -1 -33 9 -10 13 -21 9 -24 -5 -3 -8 -49 -7 -101
2 -53 -1 -98 -6 -101 -6 -3 -5 -16 0 -30 5 -14 5 -37 -1 -57 -5 -18 -9 -36 -9
-39 0 -14 56 -29 110 -29 l60 0 0 -147 c0 -82 -5 -188 -11 -237 -8 -63 -8 -91
0 -99 8 -8 14 -8 23 1 15 15 38 215 37 327 0 50 0 98 0 108 1 26 58 24 66 -3
3 -11 16 -27 29 -37 12 -10 36 -39 54 -65 21 -31 42 -50 60 -54 142 -30 152
-34 152 -66 0 -11 9 -22 20 -25 11 -3 20 -12 20 -19 0 -19 -34 -18 -50 1 -17
21 -37 19 -52 -5 -7 -11 -18 -20 -24 -20 -23 0 -36 -30 -40 -89 -3 -53 -1 -61
17 -66 16 -5 34 7 82 54 34 33 64 58 67 55 3 -3 5 -53 5 -111 0 -144 -6 -140
230 -145 155 -3 180 -1 180 12 0 12 -25 17 -125 25 l-125 10 29 27 c24 23 27
30 16 43 -10 12 -10 15 4 15 17 0 22 25 7 35 -5 3 -12 19 -16 35 -7 34 -12 35
-39 15 -31 -23 -46 -18 -46 15 0 27 3 30 30 30 43 0 72 -17 98 -55 20 -31 21
-40 12 -81 -15 -65 -5 -74 86 -74 60 0 74 3 74 15 0 9 11 47 24 85 23 66 24
71 10 126 -9 31 -14 57 -12 58 8 5 156 28 175 27 34 -1 73 17 73 34 0 19 28
32 103 45 66 11 83 6 135 -43 l32 -31 211 -7 c203 -7 212 -8 236 -31 23 -21
32 -23 131 -21 59 1 121 2 137 3 17 1 64 -2 106 -6 72 -6 79 -5 115 20 21 14
34 26 29 26 -6 0 -4 4 2 8 7 5 18 33 23 64 13 67 7 462 -9 602 -8 79 -8 102 2
108 7 5 0 8 -20 8 -17 0 -33 -4 -35 -9 -1 -5 -115 -12 -253 -15 -189 -5 -257
-11 -280 -22 -25 -12 -38 -12 -61 -4 -21 9 -98 9 -289 1 -143 -6 -375 -16
-515 -22 -140 -5 -273 -14 -295 -19 -22 -5 -82 -12 -132 -16 -91 -7 -117 -18
-69 -30 13 -3 109 1 213 10 315 26 354 28 534 32 96 2 260 7 364 12 156 7 193
6 207 -6 14 -11 21 -11 46 2 44 23 535 34 526 12 -3 -8 -12 -17 -20 -20 -7 -3
-170 -8 -361 -12 -412 -7 -446 -8 -758 -23 -132 -6 -307 -13 -390 -16 -215 -7
-423 -22 -470 -33 -22 -5 -99 -10 -171 -11 -71 -1 -146 -6 -164 -11 -53 -15
-100 -13 -100 5 0 11 11 15 38 16 20 0 46 2 57 4 11 2 74 9 140 14 145 12 228
28 222 44 -4 13 -108 11 -167 -3 -19 -4 -78 -11 -130 -15 -52 -3 -110 -9 -127
-12 -26 -4 -33 -2 -33 11 0 29 50 37 260 46 113 4 221 13 240 18 48 14 269 24
492 23 151 -1 194 1 218 14 21 11 61 15 142 15 62 1 133 5 158 10 29 6 -44 7
-205 2 -137 -3 -315 -7 -395 -7 -182 -2 -356 -12 -485 -30 -142 -20 -415 -30
-415 -16 0 7 27 11 75 11 43 0 88 6 107 14 18 8 76 19 128 24 l95 9 -121 1
c-66 1 -123 0 -125 -3z m2264 -151 c-16 -25 -18 -26 -102 -20 -145 11 -186 11
-191 1 -6 -15 113 -34 218 -35 70 0 93 -3 90 -12 -3 -9 -33 -14 -93 -16 -55
-2 -92 -7 -97 -15 -12 -20 15 -27 102 -26 72 2 86 -1 88 -15 4 -17 9 -16 -135
-20 -65 -1 -84 -9 -66 -27 8 -8 47 -10 112 -7 56 2 101 1 101 -2 0 -3 -5 -12
-10 -20 -7 -12 -41 -15 -187 -16 -98 0 -188 -4 -201 -8 -39 -13 -19 -31 34
-30 124 2 350 5 358 4 5 0 3 -7 -4 -15 -10 -12 -51 -14 -238 -14 -139 0 -241
-5 -262 -12 -23 -7 -163 -10 -425 -9 -415 1 -838 -19 -891 -42 -28 -12 -26
-13 36 -16 35 -2 148 2 250 9 254 17 924 24 915 10 -3 -6 -39 -11 -78 -11 -40
0 -101 -5 -137 -10 -36 -5 -261 -14 -500 -20 -455 -11 -556 -15 -731 -26
l-105 -7 -13 31 c-7 17 -19 33 -27 36 -8 3 -19 17 -24 31 -9 25 -11 25 -125
25 -114 0 -152 12 -77 26 72 13 89 50 17 41 -24 -4 -47 -2 -50 3 -7 12 16 18
100 25 83 7 155 31 155 51 0 18 -17 18 -66 0 -47 -16 -184 -31 -184 -19 1 24
24 31 120 37 305 18 390 32 390 62 0 17 -28 18 -67 3 -26 -10 -169 -24 -362
-35 -73 -4 -82 -3 -72 10 14 16 68 23 296 35 264 15 444 29 455 36 6 4 102 9
213 11 111 2 294 9 407 15 376 21 463 24 773 26 l307 3 -17 -26z m20 -344
c-10 -39 -27 -43 -130 -32 -54 6 -163 11 -243 12 -140 1 -205 12 -150 24 27 6
511 23 522 19 3 -2 4 -12 1 -23z m-93 -69 c97 -6 103 -7 80 -20 -19 -11 -77
-16 -230 -18 -188 -4 -250 -12 -207 -28 21 -9 407 0 435 10 16 5 22 3 22 -7 0
-27 -26 -51 -56 -50 -435 3 -787 -2 -874 -13 -52 -7 -87 11 -77 39 5 14 25 16
143 16 104 0 135 3 132 13 -5 13 -290 28 -312 15 -7 -4 -174 -10 -372 -13
-197 -4 -435 -10 -529 -15 -140 -7 -173 -6 -184 6 -8 7 -13 16 -10 18 5 5 410
22 899 37 195 6 411 14 480 19 125 7 463 3 660 -9z m-994 -86 c-11 -8 -34 -15
-51 -15 -17 0 -53 -7 -78 -16 -34 -11 -55 -13 -75 -7 -16 6 -66 6 -122 1 -131
-11 -550 -15 -575 -5 -56 23 31 30 446 36 235 3 431 9 435 14 4 4 14 7 23 7
13 -1 12 -3 -3 -15z m832 -78 c3 -14 -13 -16 -141 -16 -79 -1 -152 -3 -161 -7
-9 -3 -23 -1 -31 6 -10 8 -56 11 -147 10 -176 -3 -188 -2 -188 11 0 7 59 10
190 8 104 -2 192 0 196 4 4 3 68 5 143 4 116 -3 136 -6 139 -20z m237 3 c-3
-6 -48 -10 -101 -10 -56 0 -94 4 -94 10 0 6 40 10 101 10 64 0 98 -4 94 -10z
m-1330 -16 c-30 -8 -88 -13 -145 -11 -78 1 -232 -5 -380 -16 -16 -1 -25 3 -25
13 0 17 127 25 430 27 161 1 167 1 120 -13z m1335 -33 c0 -13 -38 -21 -102
-21 -88 0 -105 14 -23 20 39 3 82 6 98 7 15 1 27 -2 27 -6z m-255 -11 c-3 -5
-46 -10 -95 -10 -49 0 -92 5 -95 10 -4 6 30 10 95 10 65 0 99 -4 95 -10z
m-1291 -16 c32 -32 -10 -43 -82 -22 -22 7 -48 6 -82 -3 -40 -10 -52 -10 -64 0
-29 24 -17 30 72 34 48 1 99 4 114 5 15 1 34 -5 42 -14z m-394 -54 c0 -21 -42
-58 -61 -53 -24 7 -24 8 0 32 27 27 61 39 61 21z m442 -7 c34 -30 17 -54 -26
-37 -16 6 -22 35 -9 47 9 10 15 9 35 -10z m8 -83 c-16 -30 -26 -31 -48 -7
l-22 23 40 1 c36 2 39 0 30 -17z m-535 0 c3 -5 1 -10 -4 -10 -6 0 -11 5 -11
10 0 6 2 10 4 10 3 0 8 -4 11 -10z m218 -49 c9 -27 17 -61 17 -76 0 -22 -4
-26 -22 -23 -21 3 -23 9 -26 76 -2 39 1 72 5 72 5 0 16 -22 26 -49z m247 -42
c0 -10 -7 -19 -15 -19 -9 0 -15 9 -15 25 0 18 4 23 15 19 8 -4 15 -15 15 -25z
m53 7 c-20 -27 -33 -25 -33 5 0 14 7 19 25 19 26 0 26 0 8 -24z"/>
<path d="M1370 2369 c-171 -16 -195 -17 -430 -29 -123 -6 -226 -13 -229 -16
-15 -15 33 -19 207 -16 109 2 242 8 297 13 55 6 193 14 307 17 194 7 232 12
214 29 -11 11 -249 12 -366 2z"/>
<path d="M1267 2294 c-3 -4 -100 -9 -214 -13 -175 -5 -208 -8 -208 -21 0 -13
22 -15 145 -14 140 1 315 16 326 27 4 3 3 10 -1 16 -7 12 -38 15 -48 5z"/>
<path d="M1087 2213 c-61 -3 -87 -7 -85 -15 6 -18 58 -29 108 -23 100 13 109
15 103 30 -3 8 -13 14 -22 13 -9 -1 -56 -4 -104 -5z"/>
<path d="M1145 2150 c-11 -5 -43 -9 -71 -9 -59 -1 -72 -9 -44 -28 15 -10 36
-12 82 -7 74 8 99 19 92 39 -7 16 -28 18 -59 5z"/>
<path d="M364 2035 c-10 -8 -14 -15 -9 -15 38 -4 254 2 273 7 51 12 -5 23
-124 23 -90 0 -125 -4 -140 -15z"/>
<path d="M1442 1809 c2 -24 11 -36 35 -49 52 -28 62 -39 65 -78 2 -29 7 -37
23 -37 15 0 21 8 23 34 5 47 -13 75 -60 95 -21 10 -44 29 -50 42 -17 36 -40
31 -36 -7z"/>
<path d="M2680 1761 c0 -11 6 -21 13 -22 53 -2 81 -10 126 -34 28 -15 58 -36
66 -45 15 -17 14 -18 -27 -25 -75 -13 -75 -50 0 -39 62 9 72 18 62 54 -17 59
-98 115 -183 125 -54 7 -57 6 -57 -14z"/>
<path d="M250 1745 c-12 -14 -9 -20 16 -40 16 -14 37 -27 46 -30 13 -5 15 -12
8 -35 -6 -22 -5 -34 7 -46 21 -21 31 -8 35 45 4 57 28 69 28 14 0 -40 22 -84
36 -70 14 14 11 111 -4 130 -16 19 -102 25 -102 7 0 -18 -15 -11 -25 12 -13
28 -29 33 -45 13z"/>
<path d="M2611 1634 c-79 -42 -91 -52 -91 -75 0 -25 26 -24 40 1 6 11 21 20
35 20 13 0 36 10 52 23 21 18 34 22 53 16 38 -11 70 -10 70 2 0 19 -44 48 -70
48 -14 -1 -54 -16 -89 -35z"/>
<path d="M1311 1606 c-6 -24 -17 -49 -26 -56 -16 -13 -21 -55 -7 -64 13 -8 27
7 41 42 8 17 17 32 22 32 5 0 9 20 9 45 0 60 -24 61 -39 1z"/>
<path d="M1620 1632 c0 -9 -10 -22 -22 -27 -25 -12 -45 -41 -35 -51 4 -4 21
-1 39 7 34 17 40 15 131 -40 56 -35 50 -43 -44 -56 -55 -8 -78 -20 -64 -34 15
-14 442 -33 650 -29 152 2 180 5 180 18 0 13 -42 16 -298 20 -263 4 -300 7
-308 21 -5 9 -20 20 -34 23 -16 4 -25 13 -25 26 0 12 -15 29 -39 45 -22 13
-56 40 -75 60 -39 39 -56 44 -56 17z"/>
<path d="M2949 1609 c-9 -17 -8 -23 2 -30 34 -21 60 8 33 36 -20 19 -21 19
-35 -6z"/>
<path d="M3012 1538 c6 -18 28 -21 28 -4 0 9 -7 16 -16 16 -9 0 -14 -5 -12
-12z"/>
<path d="M1147 1523 c-12 -11 -8 -22 13 -33 28 -15 43 -4 30 21 -11 19 -31 25
-43 12z"/>
<path d="M1873 975 c-19 -8 -48 -11 -73 -8 -32 5 -42 3 -38 -7 6 -19 78 -41
99 -29 10 5 30 9 46 9 43 0 58 13 38 34 -20 19 -30 20 -72 1z"/>
<path d="M1132 947 c-7 -19 -12 -83 -12 -145 0 -103 2 -112 19 -112 26 0 31
26 31 168 0 93 -3 122 -13 122 -7 0 -18 -15 -25 -33z"/>
<path d="M2364 908 c-4 -13 -7 -31 -7 -40 0 -10 1 -34 2 -53 1 -28 5 -35 20
-35 16 0 21 10 26 54 4 29 5 62 3 72 -5 28 -35 29 -44 2z"/>
<path d="M1827 903 c-4 -3 -7 -46 -7 -95 0 -72 3 -90 16 -95 9 -3 20 0 25 8
10 16 12 149 3 173 -6 16 -26 21 -37 9z"/>
<path d="M840 874 c-26 -11 -50 -36 -93 -100 -60 -91 -68 -114 -39 -114 10 0
33 25 55 60 54 84 84 118 110 122 14 2 22 10 22 22 0 26 -13 28 -55 10z"/>
<path d="M881 802 c-41 -76 -40 -122 0 -122 24 0 26 5 34 78 6 53 5 62 -9 62
-8 0 -20 -8 -25 -18z"/>
<path d="M2170 426 c0 -8 20 -25 45 -37 25 -13 53 -31 62 -41 20 -22 64 -23
105 -2 l32 16 -39 19 c-47 23 -55 24 -55 3 0 -15 -2 -15 -22 0 -38 27 -96 56
-113 56 -8 0 -15 -6 -15 -14z"/>
<path d="M1830 316 c-11 -10 -102 -18 -375 -31 -453 -23 -449 -23 -874 -28
-410 -5 -369 9 -370 -127 -1 -107 5 -130 33 -130 20 0 21 3 18 107 l-3 108
118 1 c321 1 1070 29 1383 50 l85 6 -3 -136 -4 -136 25 0 25 0 4 138 c4 136 4
137 -22 165 -22 23 -28 25 -40 13z"/>
<path d="M2090 270 c0 -5 7 -10 15 -10 8 0 15 5 15 10 0 6 -7 10 -15 10 -8 0
-15 -4 -15 -10z"/>
<path d="M385 20 c-18 -20 -17 -20 35 -20 l53 0 -26 20 c-31 25 -39 25 -62 0z"/>
</g>
</svg>
