<?xml version="1.0" standalone="no"?>
<!DOCTYPE svg PUBLIC "-//W3C//DTD SVG 20010904//EN"
 "http://www.w3.org/TR/2001/REC-SVG-20010904/DTD/svg10.dtd">
<svg version="1.0" xmlns="http://www.w3.org/2000/svg"
 width="256.000000pt" height="384.000000pt" viewBox="0 0 256.000000 384.000000"
 preserveAspectRatio="xMidYMid meet">
<metadata>
Created by potrace 1.16, written by Peter Selinger 2001-2019
</metadata>
<g transform="translate(0.000000,384.000000) scale(0.100000,-0.100000)"
fill="#000000" stroke="none">
<path d="M918 3833 c20 -8 14 -34 -15 -57 -35 -27 -46 -27 -53 4 -8 35 -24 31
-28 -7 -2 -18 -7 -33 -11 -33 -4 0 -5 14 -3 31 5 33 -16 58 -30 36 -11 -18
-10 -61 3 -74 7 -7 1 -14 -22 -22 -50 -17 -79 -49 -79 -87 0 -45 -9 -64 -31
-64 -23 0 -24 -9 -5 -35 12 -17 16 -18 31 -5 22 19 51 36 97 57 44 21 47 35
14 56 -23 16 -25 15 -48 -18 -29 -43 -35 -44 -32 -4 2 33 10 46 34 51 8 2 38
15 68 31 29 15 57 27 62 27 15 0 12 -27 -5 -44 -16 -15 -20 -45 -7 -47 4 0 26
-3 50 -5 37 -4 43 -2 50 17 6 15 11 18 16 11 4 -7 11 -12 17 -12 12 0 12 67 0
75 -6 3 -13 26 -17 50 -3 25 -11 48 -16 51 -6 4 -6 9 2 14 6 4 -4 7 -22 7 -18
1 -27 -1 -20 -4z m40 -113 c3 -24 3 -24 -11 -5 -21 28 -33 11 -19 -27 13 -36
9 -46 -12 -29 -21 18 -25 58 -7 76 22 22 45 15 49 -15z"/>
<path d="M2516 3671 c-4 -7 -5 -15 -2 -18 9 -9 19 4 14 18 -4 11 -6 11 -12 0z"/>
<path d="M14 3463 c6 -24 24 -153 26 -176 0 -5 15 -7 33 -5 l32 3 -3 60 c-6
100 -15 130 -39 130 -12 0 -25 4 -29 8 -16 16 -26 5 -20 -20z m58 -103 c2 -22
0 -40 -4 -40 -5 0 -8 18 -8 40 0 22 2 40 4 40 2 0 6 -18 8 -40z"/>
<path d="M1288 3441 c-80 -4 -149 -9 -153 -13 -4 -3 4 -12 16 -19 34 -18 325
-5 359 16 23 14 7 25 -32 23 -24 -1 -109 -4 -190 -7z"/>
<path d="M2455 3424 c-111 -21 -145 -33 -145 -51 0 -12 7 -14 36 -10 33 6 36
4 30 -16 -3 -13 -8 -49 -12 -80 -4 -31 -10 -57 -15 -57 -4 0 -6 -22 -2 -48 4
-37 2 -51 -11 -61 -10 -9 -16 -29 -16 -58 0 -30 -5 -45 -15 -49 -22 -9 -18
-34 5 -34 11 0 20 -4 20 -10 0 -5 -7 -10 -15 -10 -18 0 -29 -41 -22 -84 6 -36
0 -49 -25 -59 -30 -11 -22 -37 12 -37 30 0 30 0 30 -60 0 -46 4 -61 18 -69 14
-9 12 -10 -13 -11 -30 0 -30 -1 -27 -40 3 -26 0 -40 -7 -40 -7 0 -11 14 -9 37
3 34 1 37 -30 44 -19 4 -39 12 -45 18 -16 16 -57 14 -57 -4 0 -8 6 -15 14 -15
11 0 15 -16 14 -75 l0 -75 -28 0 c-19 0 -31 6 -35 19 -3 10 -15 21 -25 24 -12
3 -20 14 -20 26 0 21 1 21 25 5 14 -9 25 -20 25 -24 0 -12 29 -40 41 -40 26 0
-11 86 -41 95 -20 6 -28 25 -11 25 6 0 6 11 0 29 -8 22 -6 43 5 82 9 29 16 70
16 91 l0 38 51 0 c43 0 50 3 47 18 -3 14 -13 17 -53 15 -80 -2 -85 -2 -179 3
-70 5 -87 3 -84 -8 3 -9 31 -14 96 -16 l92 -3 0 -42 c0 -23 -5 -58 -10 -77
-16 -53 -21 -118 -10 -125 6 -3 10 -11 10 -17 0 -6 -9 -3 -19 6 -22 20 -28 14
-31 -29 -3 -47 -1 -55 15 -49 8 4 15 2 15 -2 0 -5 -55 -7 -121 -5 -99 3 -121
1 -117 -10 3 -10 34 -16 99 -22 91 -7 139 -21 139 -39 0 -11 -66 -2 -185 24
-49 11 -117 25 -150 30 -110 18 -106 16 -101 44 3 16 0 27 -10 31 -11 4 -12 9
-3 19 6 7 9 28 8 46 -2 19 5 44 15 61 17 25 24 27 82 27 34 0 66 5 69 10 9 14
-9 18 -109 23 l-88 4 5 -49 c4 -31 2 -48 -5 -48 -6 0 -8 -10 -4 -24 3 -14 2
-28 -4 -31 -14 -9 -13 -48 2 -63 9 -9 6 -12 -16 -12 -21 0 -26 3 -19 13 6 6
11 71 12 142 1 72 6 171 11 220 5 50 10 141 10 203 0 101 7 131 24 103 3 -5 2
-95 -4 -201 -6 -106 -7 -197 -4 -202 16 -25 24 31 30 216 6 165 10 198 23 205
9 5 52 11 97 13 l81 5 -2 -257 c-1 -142 -5 -263 -9 -269 -4 -6 -4 -31 0 -54
l7 -42 9 30 c15 46 17 81 27 333 5 138 13 238 19 244 6 6 50 15 99 20 48 5
124 13 169 18 44 6 100 10 125 10 47 0 89 21 89 46 0 16 -21 19 -35 5 -6 -5
-44 -11 -85 -14 -236 -17 -336 -28 -355 -41 -16 -11 -26 -11 -41 -3 -25 15
-160 9 -203 -9 -18 -8 -37 -11 -42 -8 -5 2 -18 0 -29 -6 -17 -9 -20 -21 -20
-74 0 -34 -3 -118 -7 -184 -5 -99 -9 -122 -21 -122 -13 0 -14 30 -10 233 6
230 3 277 -19 284 -7 3 -10 -32 -9 -114 0 -65 -2 -161 -7 -213 -17 -219 -18
-250 -9 -250 6 0 12 5 14 11 2 7 9 5 17 -5 12 -14 9 -16 -28 -16 -22 0 -41 -4
-41 -8 0 -18 26 -32 62 -32 l38 0 0 -79 c0 -44 -4 -91 -10 -106 -10 -25 -12
-26 -67 -19 l-58 6 3 -143 4 -142 -34 28 c-18 15 -37 39 -43 52 -5 13 -21 29
-35 36 -14 7 -26 23 -28 35 -3 20 -8 22 -33 17 -31 -7 -69 1 -69 15 0 4 9 6
20 3 29 -8 70 5 70 22 0 12 -8 14 -37 9 -30 -4 -51 1 -97 25 -33 17 -67 31
-75 31 -9 0 -25 14 -36 30 -11 17 -34 35 -51 40 -19 7 -34 20 -38 33 -4 12 -9
118 -13 235 -6 197 -13 249 -30 207 -3 -10 -2 -114 3 -234 7 -148 6 -218 -1
-223 -5 -4 -36 -8 -67 -8 -31 0 -59 -4 -62 -9 -8 -12 -63 -19 -78 -10 -9 6
-15 64 -20 196 -5 103 -12 247 -16 318 l-7 130 -35 12 c-44 15 -216 17 -225 2
-12 -19 5 -24 98 -29 l92 -5 5 -52 c3 -28 13 -60 22 -70 24 -26 38 -177 38
-415 1 -112 5 -223 10 -248 5 -25 13 -102 16 -172 6 -115 5 -128 -9 -128 -23
0 -21 -19 2 -44 26 -28 35 -135 15 -190 -19 -56 -18 -85 6 -129 23 -42 25 -57
9 -57 -6 0 -16 13 -22 29 -10 27 -52 51 -88 51 -8 0 -39 20 -67 45 -31 26 -68
47 -88 51 -58 11 -161 -1 -180 -21 -17 -16 -18 -16 -26 6 -5 13 -16 31 -25 41
-9 11 -20 58 -29 125 -7 59 -17 131 -23 158 -5 28 -12 88 -16 135 -3 47 -10
108 -16 135 -5 28 -16 111 -24 185 -8 74 -22 180 -31 235 -9 55 -20 141 -24
190 l-7 90 -2 -115 c-1 -63 6 -168 15 -233 13 -91 14 -121 5 -126 -12 -8 -5
-115 20 -291 5 -41 14 -111 19 -155 6 -44 15 -114 20 -155 6 -41 15 -109 20
-150 6 -41 14 -100 19 -130 5 -30 14 -84 20 -120 6 -36 15 -92 21 -125 5 -33
14 -89 19 -125 6 -36 13 -74 17 -84 5 -14 4 -17 -4 -12 -7 4 -12 11 -12 17 0
23 -94 209 -106 209 -20 0 -17 -14 10 -68 13 -26 35 -76 50 -111 14 -35 37
-79 51 -98 26 -33 36 -73 54 -203 29 -210 73 -319 122 -305 30 10 63 -54 75
-150 5 -41 42 -85 71 -85 21 0 73 55 73 76 0 25 -50 74 -75 74 -26 0 -56 31
-80 85 -10 22 -21 42 -24 45 -15 11 -31 112 -21 131 6 10 7 19 3 19 -4 0 -1 5
7 10 12 8 13 13 3 30 -17 26 -16 30 2 30 14 0 14 4 1 35 -8 19 -11 35 -5 35 5
0 9 -6 9 -14 0 -37 103 -75 116 -43 6 17 62 16 73 -1 5 -8 22 -12 42 -10 l34
3 -2 50 c-1 28 -7 68 -12 90 -14 58 -20 136 -10 129 5 -3 9 -12 9 -20 0 -8 7
-17 15 -20 8 -4 15 -10 15 -15 0 -4 -7 -6 -17 -2 -14 5 -15 1 -9 -28 29 -137
33 -199 12 -199 -19 0 -26 -21 -14 -43 7 -14 5 -24 -12 -39 -12 -11 -19 -27
-16 -35 3 -8 6 -21 6 -29 0 -17 51 -19 67 -3 6 6 19 9 28 7 15 -3 14 -6 -7
-28 -30 -31 -43 -77 -27 -96 9 -11 9 -14 -1 -14 -19 0 -39 -31 -40 -60 0 -14
-5 -32 -10 -40 -12 -20 13 -47 52 -56 17 -3 46 -21 64 -39 34 -34 56 -41 164
-50 140 -12 169 -17 186 -36 20 -22 34 -25 34 -6 0 10 16 14 52 16 29 1 59 7
66 15 14 14 37 104 45 174 5 45 18 60 82 92 33 17 45 59 22 78 -16 14 -224 32
-427 38 -150 4 -220 21 -220 51 0 9 -7 12 -17 9 -29 -9 -47 8 -34 30 9 17 10
17 11 2 0 -10 7 -18 16 -18 13 0 15 9 11 58 -3 32 -2 63 1 69 4 6 62 14 128
18 115 7 122 6 136 -13 7 -11 26 -22 42 -24 23 -2 31 -10 40 -38 l11 -35 140
-5 c77 -3 144 -2 149 2 17 14 -16 39 -48 36 -17 -1 -49 0 -71 2 -38 3 -37 4
15 9 l55 6 3 40 c4 53 -14 65 -100 65 l-68 0 0 35 0 35 59 0 c54 0 60 -2 63
-22 2 -12 9 -24 17 -26 11 -4 12 1 7 19 -4 13 -8 30 -10 37 -4 23 -29 32 -93
32 -49 0 -63 -3 -63 -15 0 -10 -10 -15 -32 -15 -31 1 -32 2 -14 15 26 19 11
35 -33 35 -20 0 -41 4 -46 9 -6 5 -54 12 -107 15 -92 6 -98 5 -98 -12 0 -17
11 -20 101 -25 55 -3 103 -7 105 -10 3 -3 -2 -27 -11 -55 l-16 -50 -122 -7
c-72 -4 -125 -12 -129 -18 -4 -6 -10 -8 -14 -5 -7 8 55 160 92 224 l23 41 78
-5 c43 -2 82 -8 88 -13 5 -5 47 -9 93 -9 68 0 87 3 97 17 11 15 20 16 86 5 41
-6 91 -16 111 -22 l38 -11 -5 -137 c-2 -75 -4 -140 -5 -144 0 -4 -7 -5 -15 -2
-18 7 -21 -36 -5 -52 7 -7 8 -25 1 -54 -5 -24 -6 -50 -2 -58 10 -18 13 -12 35
54 16 50 31 297 27 447 -1 40 2 57 11 58 7 0 4 4 -6 8 -17 6 -13 12 28 46 51
42 72 70 57 80 -6 3 -35 -15 -65 -40 -43 -34 -64 -45 -91 -45 -19 0 -35 2 -35
5 0 23 187 151 262 181 34 13 65 24 69 24 5 0 5 -23 2 -50 -4 -38 -14 -59 -36
-83 -43 -46 -54 -67 -61 -114 -5 -33 -3 -43 8 -43 17 0 28 24 20 45 -7 17 31
65 82 105 23 19 41 26 59 23 29 -6 34 -23 6 -23 -25 0 -28 -11 -46 -148 -19
-153 -22 -246 -10 -252 10 -5 13 13 35 223 6 59 13 114 17 123 3 8 34 28 69
45 70 32 79 42 37 38 -16 -1 -45 6 -65 15 -21 9 -47 16 -59 16 -20 0 -21 4
-18 63 4 61 4 62 -21 59 -32 -5 -143 -42 -150 -50 -8 -11 -49 -32 -61 -32 -6
0 -20 -11 -31 -25 -23 -29 -45 -32 -51 -7 -10 40 -2 195 11 200 6 2 12 -5 13
-15 1 -10 2 -37 3 -60 1 -23 5 -45 8 -48 8 -9 109 25 135 46 13 9 53 22 90 29
38 6 75 14 83 18 17 6 22 8 105 22 67 12 154 39 171 52 7 5 10 17 7 27 -2 9 3
24 12 31 15 12 17 12 15 -5 -7 -59 4 -66 62 -41 59 25 118 35 118 20 0 -7 -9
-19 -20 -27 -17 -12 -18 -18 -10 -48 6 -19 10 -88 10 -154 -1 -143 -10 -166
-59 -144 -26 11 -29 17 -24 39 11 40 9 73 -4 77 -9 3 -13 -5 -13 -24 -1 -15
-7 -44 -14 -64 -15 -41 -11 -59 13 -59 9 0 26 -7 37 -15 18 -13 18 -14 1 -15
-13 0 -17 -5 -13 -18 4 -12 -3 -29 -19 -46 -14 -15 -25 -30 -25 -33 0 -9 -67
-117 -89 -142 -12 -13 -21 -28 -21 -33 0 -4 -4 -8 -10 -8 -5 0 -10 7 -10 15 0
18 -21 20 -38 3 -9 -9 -12 -8 -12 4 0 9 -7 24 -16 33 -10 10 -14 25 -11 43 15
75 88 403 100 447 10 39 19 53 43 63 47 21 58 28 62 40 5 17 -37 15 -72 -3
-16 -8 -46 -18 -68 -21 -44 -8 -52 -16 -55 -63 -1 -18 -10 -39 -19 -46 -18
-13 -11 -35 11 -35 18 0 35 31 35 65 0 22 2 24 20 15 19 -10 19 -11 1 -53 -10
-23 -23 -80 -30 -127 -15 -110 -85 -395 -112 -457 -12 -26 -33 -73 -46 -103
-14 -30 -31 -71 -40 -90 -8 -19 -21 -46 -29 -60 -8 -14 -22 -40 -31 -57 -14
-27 -21 -31 -41 -26 -20 5 -23 2 -20 -13 2 -12 13 -20 29 -22 21 -2 31 6 59
49 18 29 50 85 71 125 l37 73 7 -44 c5 -35 13 -50 38 -68 31 -23 93 -54 150
-76 27 -11 27 -12 13 -33 -9 -12 -16 -41 -16 -64 0 -22 -9 -83 -20 -135 -11
-52 -20 -108 -20 -125 0 -22 -8 -37 -26 -50 -30 -22 -90 -72 -154 -129 -25
-22 -76 -67 -114 -100 -37 -33 -85 -74 -105 -92 l-36 -32 -30 27 c-16 15 -38
35 -48 44 -23 23 -37 23 -36 1 1 -10 23 -38 50 -62 38 -34 54 -42 73 -37 13 3
64 41 112 84 49 43 102 89 118 102 16 14 61 53 100 87 39 35 76 63 82 63 14 0
0 -98 -16 -114 -23 -23 -10 -52 34 -74 24 -12 47 -22 51 -22 4 0 5 20 3 45 -2
25 -2 45 0 45 10 0 227 -206 230 -218 2 -8 -1 -19 -7 -25 -16 -16 -13 -27 8
-27 20 0 30 30 51 160 15 90 23 131 43 230 9 41 32 158 51 260 20 102 41 208
47 235 7 28 15 73 19 100 4 28 19 109 33 180 39 198 51 275 44 281 -11 11 -35
-62 -47 -144 -11 -71 -17 -86 -41 -107 -33 -27 -36 -41 -13 -66 14 -16 15 -26
2 -96 l-14 -78 -40 -1 c-59 0 -72 -10 -109 -84 -19 -38 -48 -78 -65 -90 -16
-12 -30 -28 -30 -37 0 -18 -3 -17 -62 26 -27 19 -48 43 -48 52 0 34 46 69 145
114 55 25 100 50 100 57 0 15 -17 14 -65 -3 -70 -25 -90 -34 -90 -40 0 -4 -11
-10 -25 -13 -13 -3 -40 -20 -59 -36 -38 -34 -26 -36 -165 27 -47 21 -52 26
-46 46 10 27 9 73 0 109 -7 26 -5 28 26 28 27 0 42 10 88 59 31 32 69 75 85
96 28 36 31 37 78 33 27 -3 51 -1 54 3 3 5 13 5 22 0 16 -8 157 -41 175 -41
20 0 3 29 -22 38 -25 9 -30 17 -34 54 -7 69 -32 147 -56 172 -18 19 -21 34
-21 99 0 45 4 77 10 77 14 0 13 94 -1 141 -10 32 -9 48 11 111 13 40 29 82 37
93 17 25 17 51 0 58 -8 3 -31 1 -53 -3 -21 -5 -86 -19 -144 -31 -58 -12 -116
-25 -130 -30 -14 -5 -63 -15 -110 -23 -47 -8 -105 -20 -130 -26 -25 -6 -73
-16 -108 -22 -80 -13 -80 -31 3 -72 33 -16 55 -30 50 -32 -6 -1 -29 -7 -52
-14 -37 -12 -45 -11 -61 3 -10 9 -38 23 -62 32 -24 9 -52 23 -62 32 -16 14
-22 14 -43 3 -22 -12 -31 -10 -87 20 -35 19 -74 39 -88 46 -126 59 -145 70
-148 90 -2 16 5 25 29 34 28 12 36 11 61 -3 18 -10 51 -17 83 -17 47 0 53 -2
48 -19 -3 -14 6 -23 42 -40 26 -12 56 -31 68 -42 11 -10 28 -19 37 -19 9 0 21
-5 26 -10 7 -7 19 -8 37 -1 15 6 33 8 41 5 7 -3 16 2 19 10 4 9 13 16 22 16 8
0 15 7 15 15 0 8 -5 15 -10 15 -6 0 -8 11 -4 25 5 22 1 27 -30 40 -20 8 -36
20 -36 26 0 6 -7 8 -16 5 -10 -4 -14 -1 -12 6 3 7 16 14 29 15 37 3 229 32
279 42 173 35 157 35 270 3 58 -16 127 -35 155 -42 27 -6 55 -16 62 -22 20
-16 31 -1 43 56 6 32 20 62 34 75 22 21 25 21 40 5 9 -9 20 -29 23 -45 3 -16
10 -32 14 -35 5 -3 9 -17 9 -31 0 -14 10 -42 22 -62 12 -19 21 -45 20 -56 -2
-11 4 -29 12 -40 14 -19 15 -15 16 43 0 34 -4 62 -10 62 -11 0 -25 25 -34 63
-6 24 -4 27 19 27 25 0 25 1 24 78 -1 42 -4 67 -6 55 -6 -29 -43 -31 -68 -3
-10 11 -24 20 -31 20 -7 0 -14 10 -16 23 -2 18 -8 22 -36 19 -17 -1 -41 -11
-52 -22 -11 -11 -24 -20 -30 -20 -6 0 -10 -31 -10 -74 0 -41 -3 -77 -7 -79 -8
-5 -38 3 -183 45 -89 25 -134 26 -255 4 -49 -8 -101 -18 -115 -20 l-25 -5 6
112 c5 90 3 114 -9 124 -8 6 -20 9 -27 6 -8 -2 -22 0 -32 7 -24 15 108 6 137
-10 11 -6 77 -22 147 -36 69 -14 135 -30 145 -35 41 -22 51 15 13 51 -14 13
-25 27 -25 31 0 4 17 -7 37 -26 35 -32 94 -54 153 -57 14 -1 31 -6 39 -12 10
-8 17 -5 29 12 8 12 23 22 33 22 10 0 21 5 25 11 3 6 17 8 30 5 25 -7 30 7 36
94 2 26 8 36 23 38 11 2 32 8 46 13 24 10 26 15 25 62 l-1 52 -56 3 c-51 3
-57 1 -73 -23 -9 -14 -14 -30 -11 -34 3 -5 -1 -11 -7 -14 -10 -3 -10 -9 -1
-24 10 -18 8 -24 -16 -47 -24 -23 -29 -25 -35 -11 -9 25 -7 63 4 70 17 10 11
50 -10 67 -16 14 -18 26 -14 65 4 28 1 60 -6 78 -17 40 -12 106 8 121 12 9 16
30 16 91 1 44 6 86 12 94 6 8 14 43 18 79 11 112 22 189 28 195 3 3 38 9 77
12 66 6 71 7 71 29 0 28 -3 28 -105 8z m65 -794 c0 -5 -4 -10 -10 -10 -5 0
-10 5 -10 10 0 6 5 10 10 10 6 0 10 -4 10 -10z m-42 -20 c-14 -22 -24 -25 -33
-10 -9 15 4 30 26 30 17 0 18 -3 7 -20z m-1590 -37 c-3 -15 -14 -18 -71 -17
-37 0 -70 4 -74 8 -15 14 23 26 85 26 55 0 63 -2 60 -17z m1340 -34 c-7 -5
-13 -16 -14 -26 -3 -44 -4 -53 -12 -53 -4 0 -6 20 -4 45 2 26 9 43 15 42 6 -1
14 9 16 23 l5 25 4 -24 c2 -13 -2 -27 -10 -32z m-1571 -1 c-3 -7 -5 -2 -5 12
0 14 2 19 5 13 2 -7 2 -19 0 -25z m344 -5 c13 -15 11 -16 -11 -10 -14 4 -38 7
-53 7 -16 0 -26 4 -22 10 10 16 71 12 86 -7z m-238 -8 c20 -8 53 -15 74 -15
21 0 56 -6 78 -14 22 -7 59 -16 83 -19 36 -4 42 -3 42 14 0 23 -1 23 41 2 l33
-17 -54 -12 c-32 -7 -85 -10 -127 -7 l-73 5 0 -26 c0 -36 -13 -32 -33 9 -9 19
-22 35 -30 35 -7 0 -21 9 -31 21 -14 17 -24 20 -52 15 -31 -6 -43 1 -27 17 10
11 38 8 76 -8z m797 -32 l64 -18 -3 -135 c-2 -111 -5 -137 -19 -147 -39 -31
-43 -19 -40 104 2 98 1 118 -12 120 -13 3 -15 -14 -13 -114 2 -112 1 -119 -21
-139 -16 -13 -30 -18 -42 -13 -31 12 -44 10 -44 -7 0 -9 9 -18 20 -21 11 -3
20 -9 20 -13 0 -5 16 -25 35 -45 29 -32 38 -36 65 -30 44 10 37 -8 -10 -23
-29 -9 -46 -9 -60 -2 -11 6 -20 7 -20 3 0 -4 -4 -3 -8 2 -4 6 -28 21 -53 35
-53 28 -61 43 -27 50 31 8 37 52 37 250 -1 85 0 159 0 164 1 10 47 3 131 -21z
m-840 -21 c37 5 38 -4 5 -26 -14 -9 -25 -26 -25 -37 0 -17 6 -20 48 -18 26 2
51 7 55 13 10 14 -2 -43 -14 -70 -6 -12 -28 -25 -54 -32 -27 -7 -45 -18 -48
-29 -2 -10 -7 18 -11 62 -4 44 -10 98 -13 120 -5 36 -4 38 11 26 9 -7 29 -11
46 -9z m1665 -31 c-8 -13 -45 -15 -45 -2 0 5 10 11 23 13 27 5 31 3 22 -11z
m-1225 -32 c33 -11 64 -18 68 -15 5 3 7 -6 4 -19 -5 -27 -17 -30 -56 -15 -14
5 -45 10 -71 12 -25 2 -45 5 -45 8 1 23 15 50 26 50 8 0 41 -9 74 -21z m1060
11 c0 -5 -4 -10 -9 -10 -6 0 -13 5 -16 10 -3 6 1 10 9 10 9 0 16 -4 16 -10z
m-1180 -10 c0 -5 -5 -10 -11 -10 -5 0 -7 5 -4 10 3 6 8 10 11 10 2 0 4 -4 4
-10z m680 -16 c0 -2 -16 -4 -36 -4 -19 0 -33 4 -30 8 5 8 66 4 66 -4z m-880
-44 c0 -5 -4 -10 -10 -10 -5 0 -10 5 -10 10 0 6 5 10 10 10 6 0 10 -4 10 -10z
m858 -72 c-2 -41 0 -70 7 -72 5 -2 -5 -5 -22 -5 l-33 -1 0 73 c0 71 0 72 26
72 26 0 26 -1 22 -67z m-483 22 c3 -5 -3 -10 -14 -10 -11 0 -23 5 -26 10 -3 6
3 10 14 10 11 0 23 -4 26 -10z m145 -35 c15 -18 -1 -20 -19 -2 -10 10 -14 9
-21 -4 -7 -12 -25 -17 -62 -17 -37 -1 -49 1 -38 8 8 5 25 10 37 10 12 0 25 5
28 10 9 15 61 12 75 -5z m1180 -35 c0 -12 -37 0 -51 16 -9 12 -6 12 20 3 17
-6 31 -15 31 -19z m-1517 -54 c15 -10 27 -23 27 -29 0 -5 -8 -3 -17 5 -26 22
-53 30 -53 15 1 -28 59 -70 84 -61 9 3 16 2 16 -4 0 -15 -28 -23 -56 -16 -31
8 -33 -20 -3 -53 20 -20 21 -24 7 -45 -10 -14 -32 -26 -64 -33 -40 -9 -49 -14
-47 -30 1 -11 0 -14 -3 -7 -3 6 -14 12 -24 12 -10 0 -22 5 -25 10 -3 6 -1 10
4 10 19 0 12 30 -14 58 -14 15 -25 37 -25 50 0 33 -29 60 -69 64 -19 2 -36 8
-38 14 -3 8 14 11 57 8 59 -3 65 0 61 32 -2 21 27 23 45 3 25 -27 47 -24 68
13 16 26 21 29 30 16 6 -8 23 -23 39 -32z m257 5 c0 -6 -5 -13 -10 -16 -6 -4
-8 -10 -5 -15 3 -5 1 -11 -4 -14 -12 -8 -61 14 -61 27 0 5 7 4 16 -3 13 -11
16 -10 21 8 5 21 43 32 43 13z m-600 -46 c11 -13 10 -14 -4 -9 -9 3 -16 10
-16 15 0 13 6 11 20 -6z m667 9 c-3 -3 -12 -4 -19 -1 -8 3 -5 6 6 6 11 1 17
-2 13 -5z m-606 -80 c14 -12 15 -22 8 -47 -7 -25 -6 -35 7 -44 21 -16 15 -77
-9 -81 -19 -4 -77 19 -77 29 0 4 7 10 15 13 13 5 15 18 10 76 -6 62 -4 70 11
70 10 0 25 -7 35 -16z m49 6 c0 -5 -4 -10 -9 -10 -6 0 -13 5 -16 10 -3 6 1 10
9 10 9 0 16 -4 16 -10z m358 -73 c20 -13 55 -31 77 -39 22 -9 72 -34 110 -55
l70 -38 -3 -62 c-2 -34 1 -64 6 -67 6 -3 9 -23 7 -44 -1 -20 1 -42 6 -48 6 -8
-5 -24 -32 -48 -53 -48 -68 -89 -43 -117 10 -11 23 -18 30 -15 13 5 29 -23 19
-32 -3 -3 -40 0 -82 6 -60 10 -82 18 -98 36 -11 13 -28 26 -37 29 -25 9 -48
72 -48 132 0 29 -3 80 -6 114 -6 54 -9 61 -25 56 -22 -7 -26 13 -5 21 12 5 14
24 9 100 -3 52 -3 94 1 94 4 0 23 -10 44 -23z m-305 -21 c4 -10 0 -12 -14 -9
-27 7 -34 23 -11 23 11 0 22 -6 25 -14z m954 -63 c-3 -10 -5 -4 -5 12 0 17 2
24 5 18 2 -7 2 -21 0 -30z m-969 -27 c-6 -11 -11 -22 -10 -23 1 -2 -1 -2 -4 0
-4 1 -8 19 -10 40 -2 37 -2 38 16 22 16 -14 17 -21 8 -39z m182 39 c0 -8 -4
-15 -10 -15 -5 0 -10 7 -10 15 0 8 5 15 10 15 6 0 10 -7 10 -15z m-856 -35
c-6 -5 -24 21 -24 34 0 6 6 1 14 -10 8 -10 12 -21 10 -24z m731 1 c4 -13 17
-21 38 -24 29 -4 30 -5 10 -12 -24 -8 -30 -29 -13 -40 16 -10 1 -25 -25 -25
-16 0 -25 7 -29 25 -4 14 -11 23 -16 20 -6 -3 -10 -1 -10 4 0 6 7 11 15 11 18
0 20 31 3 48 -9 9 -8 12 4 12 9 0 19 -9 23 -19z m155 -6 c0 -8 -4 -15 -9 -15
-5 0 -11 7 -15 15 -3 9 0 15 9 15 8 0 15 -7 15 -15z m-610 -30 c28 -15 66 -53
58 -60 -2 -3 -13 3 -24 13 -45 41 -69 52 -121 52 -44 0 -58 -5 -82 -27 -46
-44 -61 -99 -55 -195 3 -46 9 -94 14 -108 13 -38 22 -178 10 -160 -5 8 -12 40
-15 70 -3 30 -10 75 -16 100 -5 25 -15 90 -23 145 l-13 100 34 32 c58 56 164
73 233 38z m567 19 c-3 -3 -12 -4 -19 -1 -8 3 -5 6 6 6 11 1 17 -2 13 -5z
m563 -54 c0 -5 -2 -10 -4 -10 -3 0 -8 5 -11 10 -3 6 -1 10 4 10 6 0 11 -4 11
-10z m-1130 -32 c0 -5 -11 -1 -25 8 -14 9 -25 18 -25 20 0 2 11 -2 25 -8 14
-6 25 -15 25 -20z m640 -9 c0 -11 -27 -12 -34 0 -3 4 -3 11 0 14 8 8 34 -3 34
-14z m-14 -49 c37 -16 42 -22 46 -56 7 -61 0 -72 -58 -94 -66 -24 -185 -27
-227 -5 -15 8 -43 17 -62 21 -28 5 -35 3 -35 -9 0 -9 5 -19 11 -22 6 -4 8 -13
6 -19 -3 -7 -1 -19 3 -27 6 -8 3 -20 -7 -31 -9 -10 -13 -25 -9 -35 4 -12 -1
-9 -14 7 -12 14 -39 46 -60 72 -44 51 -47 58 -26 58 8 0 17 9 21 19 4 14 17
21 43 23 31 2 38 7 40 28 5 32 30 60 55 60 10 0 33 6 50 14 18 8 41 17 52 19
34 8 128 -4 171 -23z m-536 16 c0 -3 -4 -8 -10 -11 -5 -3 -10 -1 -10 4 0 6 5
11 10 11 6 0 10 -2 10 -4z m-3 -48 c7 -5 16 -33 19 -60 4 -27 13 -52 20 -55
16 -6 19 -23 5 -23 -5 0 -17 7 -26 16 -10 11 -35 17 -70 18 -30 0 -55 4 -55 7
0 11 45 56 63 62 22 8 13 27 -12 27 -19 0 -57 -36 -75 -72 -7 -13 -20 -22 -31
-21 -10 1 -36 -10 -57 -24 -46 -29 -56 -25 -33 11 11 16 16 38 13 57 -4 27 -1
32 36 51 23 12 57 24 76 28 38 7 107 -5 127 -22z m130 10 c-3 -8 -6 -5 -6 6
-1 11 2 17 5 13 3 -3 4 -12 1 -19z m-29 -20 c0 -7 2 -22 4 -32 2 -10 -3 -21
-9 -23 -9 -3 -13 7 -13 31 0 33 15 53 18 24z m502 -175 c0 -31 -3 -54 -6 -50
-7 7 -13 89 -7 100 10 17 13 4 13 -50z m-770 30 c0 -10 -52 -34 -59 -28 -6 7
31 34 47 35 6 0 12 -3 12 -7z m309 -78 c10 -11 24 -30 30 -43 9 -17 17 -21 36
-16 15 4 25 2 25 -5 0 -6 -12 -14 -27 -17 -20 -5 -30 -3 -37 11 -6 9 -19 27
-29 39 -18 21 -18 20 -13 -24 l6 -45 -14 35 c-8 19 -15 47 -15 61 -1 15 -10
38 -21 52 -32 40 -23 46 11 7 16 -19 38 -44 48 -55z m417 68 c-2 -3 -19 -12
-37 -21 -20 -10 -36 -27 -39 -42 -5 -22 -12 -25 -59 -28 -61 -4 -66 0 -76 46
l-7 32 64 1 c35 1 74 4 88 8 28 9 73 11 66 4z m-236 -13 c0 -5 -4 -10 -10 -10
-5 0 -10 5 -10 10 0 6 5 10 10 10 6 0 10 -4 10 -10z m-339 -34 c-6 -7 -8 -27
-5 -43 7 -37 -15 -56 -87 -74 -27 -7 -49 -16 -49 -21 0 -4 -4 -8 -10 -8 -5 0
-10 5 -10 12 0 6 -6 19 -14 27 -7 9 -16 33 -19 54 -6 35 -5 37 19 31 17 -4 31
0 45 12 22 20 132 46 137 32 2 -5 -1 -15 -7 -22z m94 -84 c-7 -7 -45 80 -44
103 0 11 11 -7 24 -39 14 -33 23 -62 20 -64z m1715 6 c0 -15 4 -29 9 -32 5 -3
7 -15 4 -27 -5 -18 -11 -20 -41 -16 -37 7 -49 13 -39 23 4 4 13 1 22 -6 9 -7
18 -10 21 -7 8 8 8 98 1 127 -6 20 -4 19 7 -5 9 -16 15 -42 16 -57z m-2027
-33 l6 -50 -14 50 c-7 28 -13 59 -13 70 l-1 20 8 -20 c5 -11 11 -42 14 -70z
m257 45 c0 -5 -4 -10 -10 -10 -5 0 -10 5 -10 10 0 6 5 10 10 10 6 0 10 -4 10
-10z m1676 -77 c-10 -10 -19 5 -10 18 6 11 8 11 12 0 2 -7 1 -15 -2 -18z
m-1616 -3 c0 -5 -9 -10 -21 -10 -11 0 -17 5 -14 10 3 6 13 10 21 10 8 0 14 -4
14 -10z m-60 -10 c0 -5 -19 -14 -41 -20 -23 -6 -53 -16 -68 -23 -14 -6 -41
-12 -59 -12 -33 -2 -34 -2 -14 18 14 13 40 21 86 26 36 4 68 10 72 14 10 10
24 9 24 -3z m229 -12 c0 -7 -11 -35 -24 -63 -16 -35 -24 -44 -24 -28 -1 12 4
25 9 28 18 11 11 35 -10 35 -22 0 -23 1 -14 24 7 19 64 22 63 4z m-208 -42
c-7 -8 -27 -18 -44 -21 -18 -4 -41 -9 -52 -12 -33 -9 -7 10 38 28 56 22 73 24
58 5z m-241 -12 c0 -8 -5 -12 -10 -9 -6 4 -8 11 -5 16 9 14 15 11 15 -7z m287
-36 c-3 -8 -6 -5 -6 6 -1 11 2 17 5 13 3 -3 4 -12 1 -19z m-227 -5 c-8 -4 -20
-13 -27 -22 -11 -15 -12 -14 -13 1 0 17 14 26 40 26 13 0 13 0 0 -5z m748 -3
c13 0 22 -6 22 -15 0 -11 -11 -15 -39 -15 -22 0 -46 -3 -55 -6 -10 -4 -16 -1
-16 8 0 22 23 40 45 34 11 -3 30 -6 43 -6z m-834 -29 c-4 -17 1 -41 11 -61 9
-17 14 -34 12 -36 -2 -3 -16 18 -31 46 -22 41 -24 53 -14 65 20 22 28 18 22
-14z m335 -36 l0 -20 -9 20 c-5 11 -9 29 -9 40 l0 20 9 -20 c5 -11 9 -29 9
-40z m491 -14 c0 -14 -28 -21 -60 -14 -45 9 -36 23 15 23 25 0 45 -4 45 -9z
m200 -27 c12 -12 2 -14 -70 -14 -59 -1 -91 -5 -104 -15 -17 -13 -18 -15 -3
-15 9 0 17 -4 17 -10 0 -5 -9 -10 -20 -10 -16 0 -20 7 -20 35 0 30 3 35 23 35
12 0 29 5 37 10 20 13 121 2 140 -16z m-840 -24 c0 -5 -4 -10 -10 -10 -5 0
-10 5 -10 10 0 6 5 10 10 10 6 0 10 -4 10 -10z m1935 -200 c23 -26 8 -26 -25
0 -18 14 -21 20 -9 20 9 0 24 -9 34 -20z m-1528 -11 c71 -5 111 -13 122 -24
24 -21 34 -19 26 6 -7 20 -4 21 26 16 196 -29 217 -35 189 -52 -17 -10 -12
-48 5 -41 9 3 15 0 15 -10 0 -10 -6 -14 -15 -10 -9 3 -15 0 -15 -10 0 -9 9
-18 20 -21 11 -3 18 -9 15 -13 -2 -4 -7 -36 -11 -71 -3 -35 -10 -74 -15 -87
-9 -22 -14 -24 -59 -20 -29 3 -51 1 -53 -5 -2 -6 -14 0 -27 13 -24 24 -28 55
-9 75 12 12 12 45 0 45 -11 0 -17 17 -26 71 l-7 35 38 -4 c25 -3 38 -10 41
-23 6 -21 43 -26 43 -6 -1 25 -36 55 -70 60 -19 3 -73 10 -120 16 -47 7 -116
17 -155 22 -38 6 -76 11 -83 11 -7 1 -10 8 -7 15 3 8 5 19 5 24 0 6 5 7 11 4
6 -4 58 -11 116 -16z m-51 -81 c35 -12 37 -18 50 -149 l6 -66 -51 7 c-28 4
-57 12 -63 18 -6 6 -12 42 -13 79 -1 37 -5 77 -9 88 -18 46 -17 47 17 40 17
-4 46 -12 63 -17z m166 -14 c40 -7 38 -1 54 -168 5 -52 4 -58 -11 -52 -9 3
-25 6 -36 6 -13 0 -19 7 -19 24 0 39 -10 54 -31 49 -22 -6 -26 -43 -5 -43 8 0
18 -4 21 -10 4 -6 -6 -10 -23 -10 -29 0 -29 1 -36 68 -3 37 -9 84 -12 105 -7
37 -6 37 27 37 19 0 50 -3 71 -6z m1303 -54 c34 -16 44 -28 59 -70 10 -28 16
-54 13 -57 -6 -6 -157 104 -157 114 0 6 31 32 39 33 3 0 23 -9 46 -20z m94
-10 c-6 -16 -15 -30 -20 -30 -12 0 -11 4 3 35 16 35 29 31 17 -5z m-229 -20
c3 -3 21 -16 40 -30 19 -13 40 -28 45 -32 6 -5 31 -24 58 -44 50 -37 64 -71
25 -58 -27 8 -29 9 -90 53 -33 24 -44 37 -35 43 9 6 9 11 -3 22 -8 8 -22 16
-30 18 -17 3 -60 48 -60 62 0 7 27 -11 50 -34z m-1700 10 c0 -5 -5 -10 -11
-10 -5 0 -7 5 -4 10 3 6 8 10 11 10 2 0 4 -4 4 -10z m210 -30 c0 -5 -2 -10 -4
-10 -3 0 -8 5 -11 10 -3 6 -1 10 4 10 6 0 11 -4 11 -10z m1465 -77 c-5 -21 -3
-23 19 -17 17 4 32 -2 57 -24 40 -35 114 -74 123 -65 10 11 7 -28 -9 -102 -9
-39 -21 -97 -27 -130 -6 -33 -15 -66 -20 -72 -14 -17 -45 -17 -55 0 -4 7 -17
20 -29 28 -12 8 -52 42 -89 77 l-67 63 22 82 c12 45 27 112 33 149 10 65 11
67 29 51 13 -12 17 -25 13 -40z m-101 -83 c-3 -35 -11 -74 -17 -85 -11 -18
-12 -15 -15 23 -4 56 17 160 28 141 5 -7 6 -43 4 -79z"/>
<path d="M1494 2469 c-3 -6 -2 -15 4 -21 15 -15 46 -5 50 15 3 12 -3 17 -22
17 -14 0 -28 -5 -32 -11z"/>
<path d="M880 2036 c0 -17 35 -30 51 -20 9 5 6 11 -6 21 -24 17 -45 17 -45 -1z"/>
<path d="M1189 1838 c-6 -23 -6 -58 1 -58 7 0 20 33 20 53 0 6 -19 11 -21 5z"/>
<path d="M844 1715 c-10 -26 7 -35 66 -35 40 0 64 5 74 16 26 25 9 34 -65 34
-52 0 -71 -4 -75 -15z"/>
<path d="M1010 643 c0 -16 4 -35 10 -43 7 -11 11 -8 20 15 13 33 7 55 -15 55
-10 0 -15 -9 -15 -27z"/>
<path d="M2502 3372 c-43 -4 -48 -18 -62 -167 -6 -66 -15 -124 -20 -129 -7 -7
-10 -5 -10 3 0 7 -4 9 -10 6 -16 -10 -12 -25 6 -25 15 0 16 -11 11 -97 -4 -54
-7 -99 -7 -101 0 -2 -9 -1 -19 3 -23 7 -40 -30 -22 -48 8 -8 11 -6 11 6 0 19
15 23 25 6 7 -10 125 -9 125 1 0 10 -69 32 -80 25 -11 -7 -13 68 -4 125 4 26
13 39 32 47 61 26 63 24 68 -57 7 -109 14 -98 14 22 l0 106 -36 -8 c-20 -5
-41 -13 -47 -19 -21 -21 -23 -11 -15 67 16 156 21 175 50 191 29 17 47 9 30
-12 -7 -8 -8 -17 -2 -23 5 -5 11 -31 13 -59 2 -29 4 -10 5 46 2 71 -1 95 -10
95 -7 -1 -28 -2 -46 -4z"/>
<path d="M1 3300 c0 -29 1 -32 10 -17 7 11 7 23 0 35 -9 14 -10 11 -10 -18z"/>
<path d="M1105 3290 c-45 -17 -48 -33 -41 -163 4 -67 9 -221 12 -342 3 -121 7
-225 9 -232 2 -7 27 -15 55 -19 28 -4 53 -11 56 -15 3 -5 14 -9 25 -9 14 0 19
7 19 29 0 33 -15 49 -24 26 -4 -12 -11 -13 -31 -5 -15 6 -37 10 -51 10 -13 0
-24 5 -24 10 0 13 19 13 60 -2 28 -9 35 -8 45 5 6 9 20 14 31 12 28 -6 124
-17 164 -18 l35 -2 1 75 c0 90 -2 100 -27 100 -10 0 -19 6 -19 14 0 19 -28 28
-50 16 -20 -11 -33 -37 -24 -51 3 -5 -2 -9 -10 -9 -23 0 -20 -33 5 -65 17 -21
28 -26 51 -23 17 3 33 -1 41 -10 10 -13 8 -14 -15 -9 -63 16 -148 20 -162 8
-13 -11 -15 -3 -18 56 l-3 68 -49 5 c-29 3 -51 11 -54 19 -3 9 2 11 14 8 11
-3 36 -9 57 -13 20 -3 37 -10 37 -15 0 -5 5 -9 10 -9 15 0 12 50 -2 55 -13 5
-66 12 -105 14 -13 0 -23 4 -23 9 0 4 26 7 57 7 l58 0 3 80 c2 44 7 84 12 89
6 6 10 77 10 158 l0 148 -57 -1 c-32 0 -67 -4 -78 -9z m103 -152 l-3 -123 -40
-3 c-62 -4 -66 3 -72 120 l-6 105 29 11 c16 6 44 11 62 11 l33 1 -3 -122z
m-38 -172 c0 -3 -4 -8 -10 -11 -5 -3 -10 -1 -10 4 0 6 5 11 10 11 6 0 10 -2
10 -4z m13 -53 c-13 -2 -33 -2 -45 0 -13 2 -3 4 22 4 25 0 35 -2 23 -4z m7
-53 c0 -12 -24 -12 -60 0 -21 7 -19 8 18 9 23 1 42 -3 42 -9z m217 -142 c-3
-8 -6 -5 -6 6 -1 11 2 17 5 13 3 -3 4 -12 1 -19z"/>
<path d="M529 3135 c-3 -2 -2 -39 2 -82 4 -43 10 -131 14 -195 7 -114 18 -146
31 -92 6 23 -9 263 -22 342 -4 29 -14 39 -25 27z"/>
<path d="M700 3096 c0 -23 18 -28 55 -16 48 16 44 30 -10 30 -33 0 -45 -4 -45
-14z"/>
<path d="M1700 2896 c0 -8 5 -18 10 -21 6 -4 10 -16 9 -28 -3 -37 1 -57 11
-57 6 0 10 16 10 35 0 31 3 35 25 35 35 0 31 17 -5 25 -16 4 -32 11 -35 16 -9
14 -25 11 -25 -5z"/>
<path d="M2544 2839 c-3 -6 -1 -16 5 -22 8 -8 11 -5 11 11 0 24 -5 28 -16 11z"/>
<path d="M1487 2724 c-4 -4 -7 -27 -7 -51 0 -37 3 -44 18 -41 13 3 17 13 17
47 0 41 -12 61 -28 45z"/>
<path d="M1735 2640 c-7 -11 18 -37 42 -44 16 -5 23 -2 28 14 4 12 4 24 0 28
-9 9 -64 11 -70 2z"/>
<path d="M1950 2615 c0 -11 -5 -12 -23 -6 -23 9 -51 0 -53 -16 0 -4 -4 -16 -9
-26 -11 -25 1 -33 33 -21 18 7 35 7 49 1 43 -19 67 16 47 67 -8 20 -44 21 -44
1z"/>
<path d="M1674 2597 c-27 -9 -31 -15 -30 -46 1 -39 17 -48 62 -37 21 6 24 12
24 51 0 48 -3 50 -56 32z"/>
<path d="M2516 2463 c-3 -27 -10 -67 -15 -90 -4 -23 -5 -47 -1 -54 12 -18 30
-1 30 29 0 15 7 52 15 82 19 71 19 80 -4 80 -14 0 -20 -10 -25 -47z"/>
<path d="M1825 2251 c-10 -18 17 -23 33 -7 15 15 15 16 -5 16 -12 0 -24 -4
-28 -9z"/>
<path d="M2405 2167 c-4 -10 -5 -21 -1 -24 10 -10 18 4 13 24 -4 17 -4 17 -12
0z"/>
<path d="M1903 2159 c-36 -10 -50 -26 -36 -40 5 -5 22 -4 42 4 28 10 34 10 44
-3 22 -29 61 -50 95 -50 33 0 33 1 30 41 -3 40 -4 41 -43 45 -22 2 -53 5 -70
8 -16 2 -44 0 -62 -5z m87 -39 c0 -5 -4 -10 -10 -10 -5 0 -10 5 -10 10 0 6 5
10 10 10 6 0 10 -4 10 -10z m65 -10 c3 -5 -1 -10 -9 -10 -9 0 -16 5 -16 10 0
6 4 10 9 10 6 0 13 -4 16 -10z"/>
<path d="M1903 2106 c-13 -6 -23 -18 -23 -26 0 -17 19 -40 31 -40 6 0 39 56
39 65 0 9 -29 9 -47 1z"/>
<path d="M1780 2102 c0 -6 5 -14 11 -17 5 -4 14 -18 19 -31 6 -16 15 -22 25
-18 15 6 32 50 22 60 -11 11 -77 16 -77 6z"/>
<path d="M2374 2076 c-7 -17 0 -93 9 -103 13 -13 7 -21 -23 -26 -39 -8 -41
-37 -2 -37 16 0 36 6 46 13 16 12 17 18 6 58 -7 24 -12 59 -12 77 1 32 -14 44
-24 18z"/>
<path d="M1690 1495 c0 -28 24 -34 34 -9 10 26 7 34 -14 34 -15 0 -20 -7 -20
-25z"/>
<path d="M1496 1298 c-3 -7 -7 -117 -11 -245 l-7 -231 44 -10 c24 -5 51 -13
61 -17 15 -6 17 -1 17 49 0 60 -16 76 -27 25 -4 -21 -9 -27 -16 -20 -6 6 -19
11 -29 11 -18 0 -19 10 -12 218 5 162 4 221 -5 226 -6 4 -13 1 -15 -6z"/>
<path d="M130 1260 c-14 -9 -18 -70 -5 -89 13 -22 27 -10 23 20 -4 28 -3 30
19 24 21 -5 24 -3 21 16 -3 25 -38 41 -58 29z"/>
<path d="M2058 1202 c-9 -9 -24 -23 -32 -30 -18 -14 -22 -52 -6 -52 13 0 45
32 53 53 6 15 13 14 57 -15 52 -35 65 -55 28 -44 -51 15 -98 19 -98 7 0 -16
32 -28 114 -45 64 -13 71 -13 84 2 13 16 13 16 8 0 -6 -21 12 -23 34 -5 38 29
101 107 96 116 -10 16 -48 -6 -78 -46 -16 -21 -28 -30 -28 -21 0 11 -13 17
-45 20 -32 4 -59 16 -92 42 -51 39 -69 43 -95 18z"/>
<path d="M82 1158 c-7 -7 -8 -16 -3 -22 24 -29 16 -61 -21 -89 -35 -27 -50
-57 -28 -57 14 0 64 24 72 34 3 5 9 -13 13 -40 3 -27 11 -60 16 -73 5 -13 8
-25 6 -28 -2 -2 -10 10 -17 27 -14 34 -55 60 -95 60 -36 0 -30 -34 7 -38 14
-2 33 -11 41 -20 24 -27 64 -113 71 -155 6 -33 4 -38 -19 -47 -14 -5 -25 -15
-25 -22 0 -10 -2 -10 -9 0 -6 11 -17 11 -44 4 -20 -6 -38 -7 -41 -4 -3 3 -6
-15 -6 -41 l0 -45 30 14 c17 9 30 20 30 26 0 5 6 8 13 5 8 -3 32 3 55 13 23
10 44 15 47 11 9 -16 55 -19 55 -4 0 24 -49 215 -59 227 -11 14 -28 94 -36
170 -11 95 -26 121 -53 94z"/>
<path d="M2553 940 c0 -47 2 -66 4 -42 2 23 2 61 0 85 -2 23 -4 4 -4 -43z"/>
<path d="M1916 605 c-15 -14 -31 -25 -36 -25 -5 0 -13 -6 -17 -14 -4 -8 -30
-32 -58 -52 -48 -37 -176 -140 -298 -241 -31 -27 -62 -49 -67 -51 -11 -4 -14
-42 -3 -42 21 0 533 418 533 436 0 22 -24 17 -54 -11z"/>
<path d="M110 575 c-52 -18 -98 -31 -102 -28 -5 2 -8 -43 -8 -101 l0 -106 32
0 c56 0 118 29 124 59 11 52 48 156 61 172 16 20 17 39 1 38 -7 -1 -56 -16
-108 -34z m-40 -76 c0 -15 -5 -19 -15 -15 -8 3 -19 -2 -24 -12 -10 -16 -10
-16 -11 0 0 18 25 48 41 48 5 0 9 -9 9 -21z m-37 -94 c-3 -9 -8 -14 -10 -11
-3 3 -2 9 2 15 9 16 15 13 8 -4z"/>
<path d="M324 377 c6 -53 5 -57 -14 -57 -11 0 -20 -7 -20 -15 0 -10 11 -15 35
-15 40 0 41 3 24 79 -15 74 -34 79 -25 8z"/>
<path d="M1618 3 c12 -2 32 -2 45 0 12 2 2 4 -23 4 -25 0 -35 -2 -22 -4z"/>
</g>
</svg>
