<?xml version="1.0" standalone="no"?>
<!DOCTYPE svg PUBLIC "-//W3C//DTD SVG 20010904//EN"
 "http://www.w3.org/TR/2001/REC-SVG-20010904/DTD/svg10.dtd">
<svg version="1.0" xmlns="http://www.w3.org/2000/svg"
 width="344.000000pt" height="256.000000pt" viewBox="0 0 344.000000 256.000000"
 preserveAspectRatio="xMidYMid meet">
<metadata>
Created by potrace 1.16, written by Peter Selinger 2001-2019
</metadata>
<g transform="translate(0.000000,256.000000) scale(0.100000,-0.100000)"
fill="#000000" stroke="none">
<path d="M2000 2540 c0 -11 2 -20 4 -20 2 0 11 -3 20 -6 12 -5 16 0 16 20 0
19 -5 26 -20 26 -13 0 -20 -7 -20 -20z"/>
<path d="M2177 2546 c-9 -24 2 -45 27 -52 12 -3 30 -18 41 -34 22 -34 36 -39
32 -12 -4 32 18 28 28 -5 5 -18 15 -33 22 -33 7 0 13 3 13 8 0 9 123 7 167 -3
18 -4 39 -15 48 -25 15 -17 15 -19 -3 -24 -14 -5 -18 -13 -15 -26 3 -12 -1
-22 -11 -26 -9 -3 -16 -12 -16 -20 0 -19 -7 -18 -37 6 -14 11 -29 17 -34 14
-10 -6 -84 31 -94 46 -10 16 -25 11 -25 -8 0 -29 31 -51 106 -76 69 -23 71
-28 19 -40 -16 -4 -33 -12 -36 -17 -9 -15 -75 5 -71 21 3 12 -5 37 -28 95 -5
11 -11 28 -14 38 -3 9 -16 21 -30 27 -13 5 -27 13 -30 19 -9 13 -129 71 -149
71 -37 0 -11 -34 36 -45 15 -4 27 -11 27 -15 0 -5 29 -24 64 -44 52 -29 65
-41 70 -67 10 -50 7 -69 -9 -69 -8 0 -15 6 -15 13 0 20 -37 51 -45 38 -11 -19
-27 -12 -20 8 8 25 -15 39 -27 17 -5 -9 -18 -16 -28 -16 -16 0 -20 7 -20 35 0
19 -4 35 -10 35 -5 0 -10 -9 -10 -19 0 -30 -20 -36 -36 -12 -9 12 -20 19 -25
16 -17 -11 -9 -46 14 -66 21 -18 21 -18 2 -19 -17 0 -18 -2 -5 -10 9 -6 41 -8
78 -5 l62 6 -2 -33 c-4 -43 24 -46 33 -3 7 29 7 29 14 7 5 -15 18 -25 37 -29
15 -3 31 -10 34 -14 3 -5 16 -9 30 -9 15 0 23 -4 19 -11 -4 -5 -17 -9 -28 -7
-12 1 -27 -1 -33 -5 -7 -4 -15 0 -18 9 -8 22 -25 8 -19 -16 3 -13 0 -20 -8
-20 -8 0 -24 -3 -35 -6 -19 -5 -21 -2 -16 23 5 25 4 27 -12 14 -9 -8 -14 -21
-11 -31 10 -30 -20 -43 -80 -36 -30 3 -65 10 -77 15 -13 5 -43 15 -68 22 -25
6 -62 25 -82 41 -20 15 -41 28 -46 28 -5 0 -15 7 -22 15 -16 19 -40 19 -40 0
0 -15 14 -26 95 -78 56 -36 97 -51 200 -71 64 -13 74 -13 124 5 31 10 63 19
73 19 10 0 18 4 18 9 0 19 62 34 125 28 36 -2 68 -1 71 4 3 5 16 9 30 9 13 0
24 4 24 9 0 5 9 13 20 16 11 3 27 13 35 21 13 13 15 13 15 1 0 -8 -24 -27 -52
-42 -29 -15 -82 -46 -118 -68 -132 -81 -168 -98 -194 -91 -18 4 -27 1 -36 -15
-6 -12 -8 -27 -5 -34 4 -6 -1 -3 -9 7 -12 14 -13 23 -5 33 8 9 8 17 0 26 -6 8
-7 18 -3 22 4 5 1 5 -5 1 -7 -4 -16 -25 -19 -47 -6 -33 -10 -39 -25 -34 -14 5
-22 0 -29 -19 -8 -22 -16 -26 -49 -26 -22 0 -43 5 -46 10 -7 12 -25 13 -25 2
0 -14 58 -42 88 -42 17 0 37 7 46 15 17 17 36 20 36 5 0 -25 67 1 120 46 14
12 46 33 71 48 l46 26 -1 -92 c-1 -68 2 -92 13 -96 10 -3 12 12 10 82 l-4 86
40 19 c22 10 63 26 90 35 28 9 88 32 135 50 47 19 94 37 105 42 11 4 27 9 35
10 81 15 98 15 138 -2 41 -18 55 -34 30 -34 -20 0 -81 -139 -82 -185 -1 -39
-2 -40 -51 -56 -27 -9 -87 -19 -132 -23 -45 -3 -99 -12 -120 -20 -21 -7 -74
-17 -118 -21 -44 -4 -98 -13 -120 -20 -41 -13 -107 -23 -205 -31 -67 -6 -92
-29 -111 -104 -11 -41 -18 -52 -38 -56 -47 -10 -51 -13 -51 -36 0 -13 -5 -30
-11 -38 -7 -10 -9 44 -7 177 l4 193 -24 8 c-23 7 -22 8 12 22 39 15 51 50 17
50 -11 0 -27 3 -35 6 -12 5 -15 2 -10 -10 3 -9 1 -16 -5 -16 -17 0 -61 -72
-61 -100 l0 -26 -94 4 -93 4 -5 -27 c-3 -15 -4 -73 -1 -129 2 -55 -2 -150 -9
-211 l-13 -109 -53 91 c-28 50 -52 94 -52 99 0 4 -9 17 -20 29 -25 27 -80 133
-80 156 0 9 -7 22 -15 29 -13 11 -15 8 -15 -16 l0 -28 -15 22 c-11 15 -14 33
-9 56 8 46 -5 67 -22 35 -7 -13 -13 -33 -14 -43 0 -19 -201 -329 -220 -341 -6
-4 -10 3 -10 14 0 12 -4 21 -10 21 -5 0 -10 -4 -10 -8 0 -5 -11 -22 -25 -38
-14 -16 -41 -54 -61 -84 -22 -34 -48 -61 -67 -70 -18 -7 -37 -20 -43 -28 -9
-12 -16 -9 -40 22 -16 20 -34 36 -41 36 -7 0 -17 9 -23 20 -6 11 -34 32 -63
46 -29 15 -64 35 -79 45 -14 11 -33 19 -42 19 -12 0 -16 10 -16 45 0 47 -36
118 -66 129 -8 3 -14 13 -14 21 0 9 4 14 9 10 16 -9 61 17 61 35 0 10 11 34
25 54 29 42 32 64 10 72 -23 9 -36 40 -27 64 7 19 9 18 25 -14 9 -20 21 -36
27 -36 19 0 10 50 -15 90 -16 25 -25 54 -25 80 0 27 -7 47 -20 60 -12 12 -18
25 -15 30 11 18 -7 98 -26 119 -17 18 -23 19 -39 8 -11 -6 -20 -16 -20 -21 0
-5 -20 -42 -45 -84 -41 -68 -45 -80 -45 -141 -1 -36 -6 -86 -11 -111 -6 -25
-13 -64 -16 -88 -4 -38 -2 -44 16 -49 25 -6 25 -7 4 -39 -9 -14 -18 -42 -19
-62 -6 -72 -16 -127 -25 -137 -5 -5 -9 -22 -9 -38 0 -38 -17 -67 -38 -66 -10
0 -12 3 -4 6 17 7 15 52 -3 87 -13 25 -21 57 -24 100 -1 4 -16 5 -35 2 -25 -5
-35 -3 -40 9 -3 8 -1 15 4 15 6 0 10 16 10 35 0 44 -29 51 -31 8 -1 -27 -1
-27 -10 5 -11 36 -23 41 -38 15 -9 -15 -10 -13 -11 13 0 17 3 34 7 38 7 7 33
76 33 89 0 20 -29 3 -46 -28 -10 -19 -24 -35 -31 -35 -7 0 -13 -4 -13 -10 0
-5 -7 -10 -15 -10 -18 0 -20 -41 -4 -57 6 -6 18 -9 25 -6 8 3 14 -1 14 -9 0
-8 9 -23 20 -33 11 -10 20 -29 20 -42 0 -34 46 -73 85 -73 43 0 69 -50 54
-105 -12 -41 0 -65 32 -65 33 0 89 97 89 156 0 24 53 84 75 84 7 0 20 7 29 15
13 13 18 11 45 -22 26 -32 31 -46 31 -93 0 -31 5 -61 11 -67 7 -7 9 -27 5 -55
-4 -23 -9 -69 -12 -100 -5 -50 -9 -58 -26 -58 -11 0 -22 8 -25 20 -6 22 -21
27 -28 8 -3 -7 -6 -41 -8 -75 -2 -49 -8 -67 -25 -83 -12 -12 -22 -25 -22 -30
0 -6 -5 -10 -10 -10 -12 0 -2 48 14 69 15 20 19 179 5 224 -21 64 -28 41 -22
-68 6 -100 5 -107 -16 -129 -16 -17 -22 -33 -19 -57 2 -28 -1 -36 -24 -46 -25
-13 -78 -9 -78 6 0 3 -56 6 -125 6 l-125 0 0 -41 0 -40 122 3 c68 2 134 5 147
8 20 5 22 3 16 -12 -4 -10 -10 -31 -13 -46 -4 -28 -5 -29 -61 -23 -31 3 -91 9
-134 12 -72 6 -77 5 -77 -14 0 -17 9 -21 73 -26 39 -3 96 -9 125 -12 78 -9
102 0 102 37 0 49 15 69 47 60 23 -6 29 -14 31 -44 5 -55 21 -59 195 -54 84 3
323 7 531 9 278 3 381 8 384 16 6 18 50 14 61 -5 10 -17 12 -17 25 0 11 14 30
17 115 17 l101 0 0 -26 c0 -32 22 -27 30 7 5 22 11 24 63 24 l57 1 0 -36 0
-35 -498 1 c-273 1 -506 2 -517 3 -57 3 -232 -13 -244 -23 -20 -16 -547 -14
-563 2 -7 7 -36 12 -65 12 -45 0 -53 -3 -53 -19 0 -15 10 -20 57 -25 228 -26
458 -32 568 -15 87 13 276 32 305 30 14 -1 243 -4 509 -6 386 -3 486 -6 492
-17 5 -7 9 -30 9 -50 0 -38 26 -68 60 -68 38 -1 41 -12 47 -221 6 -216 13
-249 44 -208 17 23 19 23 51 7 19 -8 61 -21 93 -28 74 -15 79 -18 64 -36 -7
-9 -8 -18 -3 -23 14 -12 88 -31 120 -31 16 0 47 -7 69 -15 22 -8 55 -14 73
-15 19 0 88 -13 154 -30 121 -30 222 -40 201 -19 -6 6 -57 21 -114 34 -57 14
-124 31 -149 39 l-45 15 43 -5 c32 -4 42 -2 42 8 0 16 -60 35 -155 48 -156 22
-387 87 -426 121 l-32 27 13 94 c16 114 30 146 67 150 27 3 28 5 27 59 -1 31
-9 70 -18 87 -14 28 -20 31 -48 25 -17 -3 -42 -18 -54 -32 -21 -24 -23 -25
-30 -7 -5 12 -2 21 8 27 11 6 16 24 16 60 1 63 10 109 23 109 5 0 9 -7 9 -15
0 -17 30 -35 61 -35 20 0 80 -23 131 -51 21 -11 38 -12 37 -1 -3 20 3 21 31 7
23 -12 30 -22 30 -45 0 -28 15 -48 28 -36 13 14 9 211 -6 261 -21 70 -37 85
-88 85 -24 0 -46 5 -49 10 -3 6 -34 10 -68 10 -57 0 -62 2 -64 23 -1 12 -5 90
-9 172 -3 83 -10 154 -15 160 -5 5 -9 17 -9 27 0 13 8 18 30 18 17 0 30 -5 30
-11 0 -8 4 -8 13 -2 22 18 59 22 79 10 16 -10 21 -9 31 4 12 15 63 34 81 30 4
-1 14 6 20 15 10 13 17 14 34 5 26 -14 139 -15 147 -1 3 6 28 10 54 10 43 0
71 12 71 32 0 11 -127 10 -134 0 -3 -5 -31 -9 -62 -10 -49 0 -60 4 -81 26 -20
21 -26 24 -33 12 -5 -8 -7 -17 -4 -21 2 -4 -15 -17 -38 -28 -30 -15 -75 -23
-150 -29 l-108 -8 -1 31 c0 16 -2 62 -5 102 l-4 72 38 10 c20 6 50 11 65 11
16 0 47 4 70 9 23 5 69 14 102 20 33 5 112 19 175 31 63 11 156 26 205 34 50
8 110 19 134 26 42 10 110 21 261 40 36 5 116 16 178 26 104 16 113 19 110 38
-3 18 -9 20 -45 18 l-41 -3 12 33 c17 49 25 58 52 58 17 0 24 5 24 20 0 14 -9
21 -35 26 -39 7 -46 28 -15 44 28 15 25 30 -5 30 -36 0 -31 19 10 36 35 14 45
36 24 50 -6 3 -16 1 -22 -5 -16 -16 -27 -13 -27 7 0 11 9 27 20 37 29 26 26
49 -5 41 -20 -5 -25 -3 -25 14 0 30 -27 24 -45 -11 -22 -42 -30 -30 -11 15 13
32 19 36 50 36 23 0 45 9 63 24 l28 25 -22 20 c-20 19 -22 19 -27 3 -4 -10
-25 -23 -52 -31 -25 -8 -48 -19 -50 -26 -3 -7 -19 -12 -37 -11 l-32 2 2 82 c2
66 -1 82 -12 82 -8 0 -16 -8 -16 -17 -1 -10 -3 -42 -5 -72 -2 -30 -6 -56 -9
-59 -3 -3 -16 0 -29 8 -29 15 -99 5 -93 -13 2 -7 19 -14 37 -17 27 -4 30 -7
19 -16 -24 -20 -117 -64 -134 -64 -9 0 -39 16 -68 35 -56 38 -77 43 -77 20 0
-15 66 -65 87 -65 7 0 2 -11 -11 -25 -31 -33 -43 -31 -93 14 -29 26 -44 49
-48 74 -4 21 -11 40 -16 43 -5 3 -9 12 -9 21 0 11 6 14 25 9 20 -5 25 -3 25
11 0 26 48 93 73 103 19 8 17 9 -13 9 -30 1 -39 -5 -60 -37 -14 -20 -37 -49
-52 -64 -16 -14 -28 -32 -28 -40 0 -10 -10 -13 -34 -10 l-34 4 28 41 c16 23
40 53 54 66 30 29 33 41 9 41 -26 -1 -56 -28 -89 -80 -16 -25 -32 -49 -36 -54
-4 -6 -14 -4 -25 5 -10 9 -26 19 -35 22 -15 5 -16 11 -6 38 8 25 8 33 -3 40
-11 6 -16 -1 -23 -31 l-9 -40 -63 0 c-50 0 -64 3 -64 15 0 9 -9 15 -25 15 -20
0 -24 5 -22 23 2 17 -4 23 -26 25 -18 2 -29 -2 -33 -12 -9 -23 -23 -20 -49 10
-18 21 -23 23 -28 10z m541 -222 c2 -10 26 -41 54 -67 28 -26 49 -49 47 -51
-2 -2 -18 -6 -34 -9 -25 -5 -33 -2 -40 16 -6 12 -23 28 -40 36 -16 8 -31 18
-33 23 -2 4 -10 8 -17 8 -7 0 -23 9 -36 19 -22 18 -22 20 -6 26 9 4 17 13 17
20 0 7 6 15 13 18 21 7 72 -18 75 -39z m431 15 c-10 -10 -25 -16 -34 -13 -11
4 -15 0 -15 -16 0 -13 -17 -40 -40 -62 -22 -22 -40 -47 -40 -54 0 -17 -1 -17
-37 -2 -15 6 -36 10 -45 9 -23 -3 -60 18 -53 29 3 5 19 15 35 24 29 14 30 14
30 -10 0 -25 7 -29 29 -15 8 5 11 16 6 30 -4 12 -2 21 4 21 6 0 11 -7 11 -15
0 -8 6 -15 14 -15 19 0 33 23 18 28 -21 7 -13 18 28 36 22 10 44 26 50 35 6
13 17 17 34 14 24 -5 24 -5 5 -24z m65 -25 c23 -9 19 -84 -5 -84 -10 0 -30 70
-23 82 6 10 8 10 28 2z m-634 -14 c0 -5 -4 -10 -10 -10 -5 0 -10 5 -10 10 0 6
5 10 10 10 6 0 10 -4 10 -10z m-480 -10 c0 -5 -4 -10 -10 -10 -5 0 -10 5 -10
10 0 6 5 10 10 10 6 0 10 -4 10 -10z m445 -10 c3 -5 -1 -10 -10 -10 -9 0 -13
5 -10 10 3 6 8 10 10 10 2 0 7 -4 10 -10z m619 -52 c-6 -19 22 -38 55 -38 17
0 21 -6 21 -30 0 -30 14 -41 23 -17 3 7 6 4 6 -7 1 -15 -4 -17 -26 -11 -16 3
-31 13 -35 20 -5 7 -24 13 -43 13 -20 0 -42 5 -50 12 -8 7 -25 10 -38 6 -41
-10 -37 3 17 57 48 49 52 51 63 32 7 -11 10 -28 7 -37z m-559 32 c3 -5 2 -10
-4 -10 -5 0 -13 5 -16 10 -3 6 -2 10 4 10 5 0 13 -4 16 -10z m-45 -24 c0 -5
-69 -46 -77 -46 -9 0 40 36 57 43 21 8 20 7 20 3z m129 -27 c40 -24 36 -36 -5
-14 -16 8 -37 15 -46 15 -10 0 -18 5 -18 10 0 16 33 11 69 -11z m-2179 -91 c0
-10 -7 -18 -17 -18 -22 -1 -53 -23 -53 -38 0 -6 10 -18 22 -26 12 -9 17 -16
11 -16 -15 0 -47 -65 -39 -79 13 -21 45 2 58 42 15 48 43 61 50 24 2 -13 1
-32 -3 -43 -4 -10 -8 -40 -8 -66 -1 -36 -5 -48 -16 -48 -18 0 -37 43 -29 65 4
8 1 15 -4 15 -17 0 -42 -42 -42 -68 0 -21 -2 -22 -15 -12 -11 9 -19 9 -28 2
-11 -9 -12 6 -9 81 4 80 8 96 31 126 14 19 26 37 25 40 -3 15 21 38 34 33 11
-4 13 1 8 19 -7 23 -6 23 8 5 9 -11 16 -28 16 -38z m2180 43 c0 -4 -21 -14
-47 -21 -27 -8 -64 -22 -83 -32 -19 -10 -39 -18 -45 -18 -5 1 8 10 30 22 22
11 47 26 55 33 8 8 31 15 50 18 19 2 36 5 38 5 1 1 2 -2 2 -7z m370 -36 c23
-8 53 -15 66 -15 13 0 28 -8 33 -18 7 -14 18 -18 40 -14 42 6 40 -15 -1 -26
-23 -6 -34 -15 -36 -31 -2 -12 -14 -26 -27 -31 -12 -5 -29 -22 -36 -39 -16
-36 -29 -40 -29 -8 -1 22 -1 21 -23 -5 -17 -20 -35 -28 -74 -34 l-53 -7 0 45
c0 28 7 55 18 69 10 13 28 48 42 77 13 28 27 52 30 52 4 0 27 -7 50 -15z m220
-63 c0 -4 -9 -13 -20 -20 -19 -12 -20 -11 -8 8 13 20 28 27 28 12z m-60 -42
c0 -5 -4 -10 -10 -10 -5 0 -10 5 -10 10 0 6 5 10 10 10 6 0 10 -4 10 -10z m85
-27 c-4 -21 -9 -40 -11 -42 -2 -2 -28 -8 -57 -12 -28 -4 -72 -10 -97 -14 -41
-7 -43 -6 -25 8 11 8 52 27 90 42 39 15 74 33 80 41 18 25 27 15 20 -23z
m-1075 -33 c0 -5 -5 -10 -11 -10 -5 0 -7 5 -4 10 3 6 8 10 11 10 2 0 4 -4 4
-10z m-339 -298 c-3 -182 -1 -216 13 -237 9 -13 16 -31 16 -40 0 -22 37 -19
50 4 5 11 10 29 10 40 0 17 -6 21 -30 21 -27 0 -30 3 -30 30 0 27 2 29 18 21
11 -6 24 -6 33 0 31 19 35 10 28 -68 -4 -43 -12 -107 -19 -143 -6 -36 -15 -94
-19 -130 -4 -36 -14 -79 -23 -96 -13 -23 -14 -34 -5 -43 8 -8 -1 -11 -39 -9
-37 1 -41 2 -16 5 33 4 33 5 30 51 -3 46 -3 47 -45 56 l-42 9 1 92 c2 62 -2
98 -10 108 -8 9 -9 16 -3 19 16 5 18 337 3 366 -7 12 -17 22 -22 22 -13 0 -13
-47 0 -55 15 -9 12 -41 -5 -55 -12 -10 -13 -16 -3 -27 19 -23 18 -103 -2 -142
-10 -20 -20 -43 -23 -51 -2 -8 -2 24 1 73 4 73 2 87 -10 87 -12 0 -16 -22 -21
-112 -3 -63 -1 -117 4 -122 5 -6 9 -20 9 -33 0 -12 8 -30 19 -40 32 -31 41
-60 36 -111 -4 -36 -1 -53 10 -62 26 -22 17 -37 -21 -36 -35 2 -37 3 -40 41
-5 58 -25 115 -40 115 -22 0 -49 -51 -54 -104 -4 -43 -8 -51 -25 -51 -16 0
-21 8 -23 40 -2 22 -8 43 -15 47 -8 5 -8 10 1 20 6 8 9 24 5 36 -4 17 0 24 19
31 25 9 25 12 33 163 5 84 9 209 9 278 l1 125 57 3 c32 2 66 -1 76 -7 10 -5
23 -7 29 -3 15 11 33 48 33 72 0 16 5 21 23 18 l22 -3 -4 -213z m-1464 126
c14 -11 6 -38 -12 -38 -13 0 -25 21 -25 46 0 15 10 12 37 -8z m107 -26 c2 -4
1 -14 -3 -21 -6 -9 -10 -7 -14 8 -5 20 7 29 17 13z m829 -74 c12 -2 30 -22 46
-55 15 -29 34 -60 42 -70 8 -10 37 -56 65 -103 48 -84 49 -86 48 -165 -1 -44
-2 -118 -2 -165 l-1 -85 -356 1 c-195 1 -358 4 -361 6 -9 10 75 189 97 205 15
11 55 65 111 152 10 14 18 21 18 15 0 -5 -7 -19 -15 -30 -8 -10 -15 -26 -15
-34 0 -20 74 61 119 130 148 225 164 245 174 223 5 -12 19 -23 30 -25z m-913
-27 c0 -17 -5 -33 -11 -36 -15 -10 -17 -4 -12 33 6 40 23 42 23 3z m-68 -13
c-7 -7 -12 -8 -12 -2 0 14 12 26 19 19 2 -3 -1 -11 -7 -17z m1608 -92 c0 -3
-4 -8 -10 -11 -5 -3 -10 -1 -10 4 0 6 5 11 10 11 6 0 10 -2 10 -4z m-1358
-179 c51 -23 129 -77 135 -93 15 -39 -66 -91 -87 -55 -6 12 -12 13 -20 5 -9
-9 -9 -17 0 -35 11 -19 10 -24 -5 -35 -10 -8 -16 -21 -13 -32 3 -12 -2 -26
-13 -36 -11 -9 -19 -23 -19 -31 0 -12 -14 -15 -64 -15 -42 0 -66 -4 -69 -12
-2 -7 -7 -10 -11 -6 -4 3 -3 15 3 27 6 11 8 36 5 56 -5 32 -3 36 13 33 14 -3
17 -12 15 -46 -2 -35 1 -42 15 -42 38 0 44 14 42 93 -1 53 2 81 12 93 9 12 13
38 10 86 -1 39 1 68 6 66 4 -2 25 -12 45 -21z m1403 -169 c-3 -106 -5 -196 -5
-200 0 -5 -8 -8 -19 -8 -16 0 -19 9 -20 73 -1 65 22 280 34 315 13 36 15 -6
10 -180z m54 44 c-1 -82 -6 -115 -17 -108 -4 2 -6 47 -4 100 4 114 22 121 21
8z m-482 16 c-3 -8 -6 -5 -6 6 -1 11 2 17 5 13 3 -3 4 -12 1 -19z m-765 -123
c-13 -33 -26 -66 -29 -72 -7 -18 -48 -16 -63 2 -7 8 -19 15 -27 15 -7 0 -13 6
-11 13 1 6 -3 21 -9 33 -15 26 -7 37 42 56 22 8 44 24 49 35 9 20 10 20 41 -1
l32 -21 -25 -60z m873 -16 c4 -17 4 -33 1 -36 -3 -4 -6 3 -6 14 0 12 -7 24
-16 27 -8 3 -12 10 -9 16 11 18 23 10 30 -21z m-1015 -23 c0 -3 -4 -8 -10 -11
-5 -3 -10 -1 -10 4 0 6 5 11 10 11 6 0 10 -2 10 -4z m1377 -28 c-3 -8 -6 -5
-6 6 -1 11 2 17 5 13 3 -3 4 -12 1 -19z m-194 -15 c-7 -2 -21 -2 -30 0 -10 3
-4 5 12 5 17 0 24 -2 18 -5z m-1157 -24 c12 -11 40 -23 63 -26 72 -10 32 -24
-60 -21 -49 1 -89 4 -89 6 0 3 8 11 18 18 16 13 16 15 -2 29 -19 14 -18 15 14
15 20 0 42 -8 56 -21z m855 -46 c19 -19 4 -26 -23 -12 -28 15 -136 16 -439 5
-212 -9 -279 -6 -279 12 0 4 164 7 364 7 276 0 368 -3 377 -12z m69 2 c0 -15
-26 -32 -36 -23 -2 3 -2 13 2 22 8 20 34 21 34 1z m88 8 c-10 -2 -28 -2 -40 0
-13 2 -5 4 17 4 22 1 32 -1 23 -4z m500 0 c-16 -2 -40 -2 -55 0 -16 2 -3 4 27
4 30 0 43 -2 28 -4z m-1640 -10 c-21 -2 -57 -2 -80 0 -24 2 -7 4 37 4 44 0 63
-2 43 -4z m-158 -13 c0 -5 -7 -10 -15 -10 -8 0 -15 5 -15 10 0 6 7 10 15 10 8
0 15 -4 15 -10z m1898 -22 c20 2 32 0 32 -7 0 -6 -15 -11 -34 -11 -21 0 -36
-6 -40 -16 -8 -21 -26 -8 -26 20 0 30 12 41 25 23 7 -9 22 -13 43 -9z m-405 4
c19 -2 24 -38 5 -40 -7 0 -78 -3 -157 -7 -79 -3 -147 -8 -150 -10 -4 -2 -34 0
-69 4 -54 6 -65 5 -83 -12 -17 -16 -29 -18 -72 -12 -29 4 -70 7 -92 8 -41 1
-490 -12 -718 -20 -154 -6 -160 -4 -145 35 l12 30 141 7 c77 4 219 2 315 -3
96 -6 176 -9 179 -7 4 1 87 8 186 15 160 11 188 10 244 -4 78 -20 112 -20 137
-1 26 20 104 20 104 0 0 -21 21 -19 26 3 4 14 16 17 62 16 31 0 65 -1 75 -2z
m322 -12 c4 -6 -20 -10 -67 -9 -52 1 -66 3 -48 9 36 12 108 12 115 0z m-235
-4 c0 -2 -7 -6 -15 -10 -8 -3 -15 -1 -15 4 0 6 7 10 15 10 8 0 15 -2 15 -4z
m-7 -188 c-17 -19 -18 -19 -29 14 -21 58 -17 97 11 110 14 6 26 16 27 22 1 6
4 -20 5 -58 3 -55 0 -72 -14 -88z m373 120 c-3 -13 -6 -31 -6 -41 0 -15 -8
-17 -60 -13 -32 2 -78 11 -102 19 -24 9 -55 18 -70 21 -16 4 -28 11 -28 16 0
13 111 13 143 1 18 -7 30 -6 43 4 11 8 34 15 53 15 30 0 33 -2 27 -22z m-1956
2 c0 -5 -2 -10 -4 -10 -3 0 -8 5 -11 10 -3 6 -1 10 4 10 6 0 11 -4 11 -10z
m1585 -200 c3 -5 -3 -10 -14 -10 -11 0 -23 5 -26 10 -3 6 3 10 14 10 11 0 23
-4 26 -10z m135 -74 c-7 -9 -16 -16 -20 -16 -15 0 -20 32 -9 47 11 12 14 12
27 -1 13 -12 13 -18 2 -30z m248 -462 c34 -10 26 -24 -10 -17 -47 8 -70 22
-38 23 14 0 35 -3 48 -6z m185 -41 c-13 -2 -33 -2 -45 0 -13 2 -3 4 22 4 25 0
35 -2 23 -4z"/>
<path d="M1710 1693 c0 -21 -1 -51 -2 -68 -2 -24 1 -31 19 -33 21 -3 22 0 21
67 0 63 -3 71 -19 71 -16 0 -19 -7 -19 -37z"/>
<path d="M1290 1531 c0 -6 -16 -25 -36 -43 -40 -36 -69 -92 -58 -110 4 -7 6
-74 5 -150 -1 -87 1 -138 8 -138 18 0 19 13 22 157 2 112 6 143 17 148 9 3 12
13 9 25 -4 17 -1 19 19 14 20 -5 24 -2 24 15 0 27 17 27 25 1 7 -23 45 -27 45
-5 0 9 -7 18 -15 21 -8 4 -15 11 -15 17 0 15 40 -24 57 -56 8 -16 12 -34 9
-40 -2 -7 -5 -4 -5 6 -1 9 -5 17 -10 17 -4 0 -5 -19 0 -42 10 -52 0 -220 -13
-212 -5 3 -8 52 -7 107 1 81 -1 102 -12 102 -16 0 -16 -6 -18 -124 -1 -46 -4
-81 -8 -77 -5 4 -8 60 -8 124 0 83 -3 116 -12 119 -10 4 -13 -15 -14 -69 0
-40 -4 -95 -9 -123 -6 -42 -8 -33 -9 58 -1 89 -4 107 -16 107 -13 0 -15 -18
-13 -122 l3 -123 60 -5 c53 -4 60 -8 63 -27 3 -23 8 -24 72 -28 42 -3 39 27
-5 51 -18 10 -20 21 -18 105 0 52 4 113 8 136 6 35 3 50 -18 85 -14 24 -34 51
-44 60 -24 22 -83 35 -83 19z"/>
<path d="M994 1222 c-16 -11 -33 -63 -36 -112 -3 -43 -2 -45 25 -44 59 2 57 0
57 65 0 79 -16 112 -46 91z m16 -56 c0 -8 -4 -18 -10 -21 -5 -3 -10 3 -10 14
0 12 5 21 10 21 6 0 10 -6 10 -14z m-14 -73 c-11 -11 -17 4 -9 23 7 18 8 18
11 1 2 -10 1 -21 -2 -24z"/>
<path d="M1325 920 c3 -5 11 -10 16 -10 6 0 7 5 4 10 -3 6 -11 10 -16 10 -6 0
-7 -4 -4 -10z"/>
<path d="M2333 2553 c9 -2 23 -2 30 0 6 3 -1 5 -18 5 -16 0 -22 -2 -12 -5z"/>
<path d="M2498 2553 c7 -3 16 -2 19 1 4 3 -2 6 -13 5 -11 0 -14 -3 -6 -6z"/>
<path d="M1900 2520 c0 -17 47 -60 65 -60 31 0 16 39 -21 55 -43 18 -44 18
-44 5z"/>
<path d="M2000 2485 c0 -8 5 -15 10 -15 6 0 10 7 10 15 0 8 -4 15 -10 15 -5 0
-10 -7 -10 -15z"/>
<path d="M1330 2449 c0 -12 5 -40 12 -61 13 -43 58 -81 111 -94 24 -6 28 -4
25 11 -3 18 -11 24 -63 47 -30 13 -50 43 -60 91 -6 32 -25 36 -25 6z"/>
<path d="M1960 2357 c0 -25 24 -54 33 -40 6 11 -9 49 -22 58 -7 4 -11 -3 -11
-18z"/>
<path d="M3427 2306 c-9 -22 -7 -167 3 -206 6 -25 8 1 9 93 1 70 -1 127 -3
127 -2 0 -6 -6 -9 -14z"/>
<path d="M1957 2289 c-25 -14 -21 -29 8 -29 15 0 25 6 25 14 0 21 -12 26 -33
15z"/>
<path d="M1930 2230 c0 -5 9 -14 20 -20 17 -9 20 -8 20 10 0 13 -7 20 -20 20
-11 0 -20 -4 -20 -10z"/>
<path d="M1980 2169 c0 -24 23 -21 28 4 2 10 -3 17 -12 17 -10 0 -16 -9 -16
-21z"/>
<path d="M3425 2028 c-3 -13 -1 -36 4 -53 8 -27 9 -25 10 23 1 55 -5 67 -14
30z"/>
<path d="M1986 2001 c-8 -13 15 -51 31 -51 7 0 9 9 4 27 -8 29 -25 41 -35 24z"/>
<path d="M13 1843 c-8 -3 -13 -24 -13 -56 l0 -52 20 25 c19 25 27 75 13 83 -5
2 -14 2 -20 0z"/>
<path d="M2807 1594 c-8 -8 1 -24 14 -24 5 0 9 7 9 15 0 15 -12 20 -23 9z"/>
<path d="M2897 1574 c-3 -4 -2 -16 4 -26 12 -22 3 -88 -11 -88 -5 0 -12 11
-15 25 -3 14 -7 36 -10 50 -9 41 -25 28 -25 -20 0 -26 7 -57 16 -71 9 -14 19
-48 21 -77 4 -47 -1 -66 -29 -121 -6 -12 -6 -22 1 -29 14 -14 15 -307 2 -307
-5 0 -12 6 -15 13 -3 9 -9 7 -19 -5 -20 -26 -44 -22 -49 7 -3 14 -1 25 3 25 5
0 9 6 9 14 0 8 4 16 9 18 13 4 26 108 14 108 -6 0 -14 -15 -19 -32 -6 -18 -14
-33 -19 -33 -15 0 -18 104 -4 121 13 16 33 19 24 4 -9 -14 5 -54 15 -44 5 5
12 28 16 51 5 36 3 43 -15 53 -19 9 -27 7 -57 -17 -38 -31 -36 -11 -18 -217 8
-92 -8 -142 -53 -161 -18 -8 -33 -18 -33 -24 0 -19 21 -22 52 -7 35 18 68 21
68 6 0 -5 -4 -10 -10 -10 -5 0 -10 -9 -10 -20 0 -30 22 -24 56 16 16 20 45 42
63 48 l33 11 4 230 c6 340 8 385 19 393 6 4 12 18 13 32 1 14 3 38 4 55 3 28
-18 46 -35 29z m-114 -729 c-4 -15 -26 -12 -31 3 -3 9 2 13 14 10 11 -2 18 -8
17 -13z"/>
<path d="M2775 1503 c-16 -40 -43 -168 -37 -175 15 -14 97 -36 106 -28 12 12
-2 30 -24 30 -10 0 -22 9 -25 20 -4 11 -10 18 -15 15 -15 -9 -23 16 -13 38 28
62 43 99 43 107 0 17 -28 11 -35 -7z"/>
<path d="M2392 1409 c-6 -13 -10 -56 -11 -94 0 -39 -5 -71 -11 -73 -15 -5 -12
-42 4 -42 7 0 17 -10 22 -22 5 -15 10 24 13 107 6 129 0 170 -17 124z"/>
<path d="M2190 1345 c0 -9 17 -34 39 -58 21 -23 41 -52 45 -64 10 -32 34 -49
42 -29 4 9 -8 37 -29 68 -58 87 -97 120 -97 83z"/>
<path d="M2510 1096 c0 -257 5 -302 30 -256 6 11 15 18 21 15 15 -10 49 5 49
21 0 8 -4 14 -9 14 -13 0 -4 119 10 136 7 9 9 31 6 57 l-6 42 15 -32 c9 -21
21 -33 34 -33 24 0 26 13 5 30 -8 7 -15 20 -15 29 0 9 -7 29 -16 46 -12 23
-14 46 -8 104 5 60 4 73 -7 69 -10 -4 -14 -26 -14 -89 0 -52 -4 -88 -12 -94
-7 -6 -16 -63 -22 -133 -5 -67 -14 -128 -18 -135 -4 -6 -10 96 -13 227 -4 179
-8 240 -17 244 -10 3 -13 -54 -13 -262z"/>
<path d="M3025 1280 c-8 -13 -1 -24 14 -19 6 3 7 10 2 18 -6 10 -10 10 -16 1z"/>
<path d="M2927 778 c-8 -22 5 -422 14 -432 8 -9 10 1 15 104 1 19 2 43 3 52 1
20 76 38 166 39 61 1 95 12 95 29 0 5 -10 12 -22 15 -21 5 -23 12 -23 73 l1
67 59 5 c45 4 61 9 63 21 3 14 -14 17 -120 23 -68 4 -151 9 -184 12 -46 4 -63
2 -67 -8z m185 -48 c23 0 28 -5 33 -34 4 -18 5 -44 3 -57 -3 -21 -9 -24 -52
-27 -58 -4 -66 4 -66 71 0 34 -4 47 -12 45 -20 -7 -22 -95 -4 -124 21 -31 20
-34 -8 -34 -14 0 -28 -5 -31 -10 -15 -24 -22 4 -24 91 -1 59 2 95 9 99 6 4 37
1 68 -6 31 -8 69 -14 84 -14z"/>
<path d="M3070 692 c0 -19 18 -42 32 -42 12 0 9 35 -4 48 -17 17 -28 15 -28
-6z"/>
<path d="M1926 503 c-3 -15 -4 -75 -3 -133 1 -78 5 -105 15 -105 17 0 23 256
5 262 -6 2 -14 -9 -17 -24z"/>
<path d="M0 394 c0 -21 5 -22 128 -27 270 -9 525 -30 634 -51 42 -8 85 -12 96
-9 11 2 31 -1 43 -8 13 -7 80 -16 149 -19 69 -4 135 -11 148 -15 17 -6 22 -3
22 9 0 13 11 16 51 16 47 0 51 -2 60 -30 9 -25 16 -30 45 -30 28 0 34 4 35 23
1 20 2 20 6 2 6 -26 42 -65 60 -65 18 0 16 20 -4 42 -24 27 -11 31 48 14 29
-9 71 -16 93 -16 23 0 54 -7 70 -15 15 -8 35 -15 43 -15 9 0 13 -6 10 -14 -3
-8 0 -22 8 -32 12 -17 17 -17 47 -6 47 17 69 15 119 -8 24 -11 54 -20 67 -20
12 0 46 -11 75 -25 65 -32 304 -95 354 -94 33 0 35 1 16 9 -13 5 -23 13 -23
19 0 5 -30 14 -67 21 -38 6 -84 18 -103 25 -19 8 -62 21 -95 30 -33 9 -73 25
-89 37 -15 11 -47 23 -70 25 -22 3 -53 12 -68 19 -15 8 -40 14 -57 14 -16 0
-33 4 -36 10 -16 26 -252 80 -378 86 -48 2 -86 10 -101 20 -17 10 -45 15 -88
14 -35 -1 -67 -1 -73 0 -5 1 -14 2 -19 1 -4 -1 -14 3 -22 9 -14 13 -54 4 -54
-11 0 -13 -113 -11 -147 3 -15 6 -34 10 -40 9 -7 -1 -13 5 -13 14 0 19 -9 19
-32 -1 -16 -16 -22 -15 -78 0 -68 19 -427 49 -476 40 -18 -3 -42 0 -55 7 -14
7 -67 12 -131 13 -104 1 -108 0 -108 -20z"/>
</g>
</svg>
