<?xml version="1.0" standalone="no"?>
<!DOCTYPE svg PUBLIC "-//W3C//DTD SVG 20010904//EN"
 "http://www.w3.org/TR/2001/REC-SVG-20010904/DTD/svg10.dtd">
<svg version="1.0" xmlns="http://www.w3.org/2000/svg"
 width="264.000000pt" height="256.000000pt" viewBox="0 0 264.000000 256.000000"
 preserveAspectRatio="xMidYMid meet">
<metadata>
Created by potrace 1.16, written by Peter Selinger 2001-2019
</metadata>
<g transform="translate(0.000000,256.000000) scale(0.100000,-0.100000)"
fill="#000000" stroke="none">
<path d="M760 2439 c-103 -7 -225 -22 -285 -35 -16 -3 -75 -15 -130 -26 -55
-10 -109 -23 -120 -28 -11 -5 -55 -16 -98 -25 -73 -16 -97 -31 -83 -53 3 -6
53 2 118 18 256 64 344 80 588 102 343 33 798 -3 1105 -86 176 -47 201 -55
280 -86 44 -18 108 -42 141 -55 52 -19 191 -83 307 -141 39 -19 57 -18 57 4 0
13 -18 28 -54 45 -30 15 -59 27 -64 27 -5 0 -49 21 -98 46 -49 26 -118 57
-154 70 -36 12 -123 43 -195 69 -71 25 -159 52 -195 60 -242 54 -363 75 -490
86 -173 15 -484 19 -630 8z"/>
<path d="M245 2175 c-4 -24 -5 -80 -1 -122 3 -43 10 -145 15 -228 10 -157 38
-292 80 -378 27 -56 27 -100 0 -118 -18 -13 -19 -17 -8 -42 8 -17 20 -27 34
-27 22 0 89 -43 111 -71 6 -8 14 -27 18 -44 4 -16 21 -44 38 -61 35 -37 32
-68 -8 -86 -29 -13 -33 -48 -5 -48 14 0 18 -5 14 -18 -2 -10 3 -24 11 -31 9
-8 16 -22 16 -33 0 -32 43 -66 94 -73 47 -7 76 -32 76 -65 0 -38 49 -116 89
-144 23 -16 49 -42 57 -58 14 -27 18 -28 83 -28 64 0 72 2 111 35 23 19 57 37
78 40 52 9 67 18 70 48 3 28 69 92 110 108 12 5 22 13 22 18 0 5 13 14 29 19
17 6 51 31 78 56 105 99 223 203 267 235 26 19 54 47 62 63 8 15 19 28 25 28
6 0 43 16 83 35 44 21 80 32 93 29 15 -4 31 3 54 25 17 17 43 31 55 31 24 0
47 18 76 59 14 19 19 21 37 11 17 -9 22 -8 27 5 9 23 -3 46 -21 39 -10 -4 -15
0 -15 15 0 27 27 28 54 2 29 -27 76 -38 76 -18 0 19 -37 47 -61 47 -10 0 -19
6 -22 13 -5 15 13 57 24 57 16 0 58 114 79 215 7 33 21 91 32 128 11 38 20 92
21 122 2 62 -11 82 -81 116 -26 12 -69 34 -96 47 -44 22 -69 31 -143 49 -40 9
-28 -26 15 -43 132 -55 212 -91 246 -112 37 -23 38 -24 31 -70 -3 -26 -15 -76
-25 -112 -10 -36 -26 -99 -35 -139 -18 -82 -52 -171 -66 -171 -5 0 -15 -16
-23 -35 -8 -19 -21 -35 -29 -35 -17 0 -27 -21 -27 -55 0 -32 -46 -85 -74 -85
-12 0 -35 -13 -51 -30 -21 -22 -38 -30 -63 -30 -19 0 -53 -9 -76 -21 -22 -12
-61 -31 -86 -44 -25 -13 -51 -35 -59 -50 -7 -15 -22 -30 -32 -32 -11 -3 -19
-9 -19 -14 0 -5 -14 -16 -30 -24 -17 -9 -64 -48 -105 -88 -113 -110 -190 -177
-204 -177 -27 0 -165 -122 -181 -159 -9 -23 -19 -30 -50 -34 -26 -3 -54 -18
-82 -41 -36 -31 -48 -36 -94 -36 -47 0 -54 3 -78 35 -15 19 -41 42 -57 51 -33
17 -79 104 -79 149 0 15 -10 31 -25 41 -14 9 -28 28 -32 43 -3 14 -14 43 -24
63 -11 21 -19 46 -19 57 0 11 -11 28 -25 37 -14 9 -28 27 -31 39 -3 12 -21 38
-40 56 -19 18 -34 42 -34 53 -1 46 -74 121 -129 132 -17 4 -31 10 -31 15 0 12
47 11 55 -1 4 -6 11 -8 16 -5 17 11 9 41 -16 65 -14 13 -25 29 -25 36 0 7 -11
34 -24 61 -61 120 -98 381 -61 429 8 10 15 31 15 45 0 15 7 33 16 40 15 12 18
11 28 -5 6 -10 30 -39 54 -64 23 -25 42 -51 42 -59 0 -8 17 -46 38 -86 21 -40
46 -94 56 -122 11 -27 36 -82 56 -120 20 -39 40 -83 43 -97 4 -15 23 -54 42
-87 20 -34 42 -78 49 -98 24 -66 77 -175 92 -190 16 -17 18 -29 5 -38 -19 -11
45 -175 64 -165 6 3 10 12 10 20 1 8 4 20 8 26 4 7 5 37 2 69 -6 81 5 95 78
95 51 0 62 3 79 25 11 14 26 25 35 25 13 0 119 103 242 234 20 21 77 64 126
97 125 81 177 117 246 171 33 26 79 56 102 67 23 11 60 37 82 57 21 20 58 47
81 59 44 23 77 46 124 83 29 23 73 40 116 47 49 7 90 44 80 71 -6 15 -8 15
-25 -1 -18 -15 -40 -23 -121 -42 -13 -4 -52 -28 -86 -55 -34 -26 -68 -48 -76
-48 -8 0 -44 -24 -80 -54 -36 -30 -87 -66 -114 -80 -27 -13 -60 -35 -74 -48
-24 -23 -178 -129 -290 -200 -59 -37 -138 -112 -238 -225 -35 -39 -78 -77 -95
-84 -18 -7 -40 -24 -50 -36 -15 -18 -28 -23 -61 -21 -66 2 -80 17 -84 96 -2
41 2 90 12 127 17 65 14 77 -11 52 -23 -23 -41 -195 -25 -240 16 -46 15 -77
-3 -77 -34 0 -71 61 -129 215 -13 33 -35 78 -50 99 -15 22 -29 51 -33 64 -3
14 -27 68 -53 121 -26 53 -51 107 -55 121 -4 14 -25 58 -46 98 -22 40 -39 77
-39 82 0 14 -62 110 -71 110 -5 0 -9 13 -9 29 0 17 -4 32 -9 35 -5 3 -23 30
-39 59 -17 28 -42 65 -56 81 -14 16 -26 33 -26 38 0 4 -6 8 -14 8 -10 0 -17
-16 -21 -45z m45 -68 c0 -31 27 -67 50 -67 21 0 9 -16 -20 -27 -18 -7 -30 -19
-31 -30 0 -16 -1 -16 -9 2 -12 29 -12 168 0 160 6 -3 10 -21 10 -38z m603
-1114 c3 -16 1 -32 -4 -37 -5 -6 -9 -8 -9 -5 0 2 -4 19 -9 37 -7 24 -7 32 4
32 7 0 15 -12 18 -27z m-293 -95 c0 -4 9 -8 20 -8 18 0 60 -35 60 -51 0 -10
-60 7 -74 21 -5 5 -15 26 -22 47 -11 34 -11 36 2 19 7 -11 14 -23 14 -28z"/>
<path d="M1718 1919 c-23 -13 -23 -39 0 -39 21 0 42 18 42 37 0 15 -18 16 -42
2z"/>
<path d="M2605 1653 c-22 -34 -145 -180 -235 -278 -96 -106 -166 -188 -260
-304 -98 -122 -152 -161 -220 -161 -67 0 -148 -44 -250 -136 -144 -129 -196
-170 -335 -264 -44 -30 -89 -62 -99 -72 -11 -10 -26 -18 -33 -18 -7 0 -13 -11
-13 -25 0 -21 5 -25 29 -25 17 0 33 5 37 11 4 7 39 27 78 45 67 32 120 63 212
125 23 15 49 45 62 73 13 25 27 46 32 46 4 0 11 11 14 24 6 23 146 146 167
146 5 0 9 -31 9 -69 0 -60 -3 -69 -20 -74 -13 -3 -21 1 -26 15 -9 29 -29 16
-31 -21 -1 -24 -11 -41 -35 -62 -46 -41 -232 -180 -272 -204 -18 -11 -53 -33
-77 -50 -24 -16 -57 -35 -72 -42 -19 -8 -27 -19 -25 -30 5 -24 41 -19 81 11
18 13 50 31 72 40 112 48 189 100 283 193 22 21 64 58 96 83 l56 44 0 92 0 92
31 6 c17 3 41 6 53 6 38 0 120 51 161 101 22 26 42 44 44 38 1 -6 -4 -18 -12
-27 -27 -29 -41 -102 -42 -212 -1 -110 1 -130 16 -130 5 0 9 44 8 98 -1 118 9
160 61 237 22 33 40 66 40 73 0 6 4 12 8 12 5 0 13 8 18 19 10 20 151 142 300
259 50 39 99 83 108 96 17 28 23 101 6 91 -5 -3 -10 -15 -10 -25 0 -27 -24
-54 -105 -115 -68 -51 -85 -65 -145 -112 -32 -27 -40 -28 -40 -9 0 7 29 45 64
83 124 134 246 288 246 311 0 30 -14 28 -35 -5z m-285 -417 c0 -2 -8 -10 -17
-17 -16 -13 -17 -12 -4 4 13 16 21 21 21 13z"/>
<path d="M2165 874 c-9 -14 -19 -42 -22 -62 l-6 -37 20 25 c20 25 53 84 53 95
0 15 -30 2 -45 -21z"/>
<path d="M2124 717 c8 -62 -2 -94 -45 -148 -37 -46 -47 -49 -41 -10 3 20 -1
30 -13 35 -19 7 -57 35 -114 84 -21 17 -41 32 -45 32 -8 0 -46 -76 -46 -93 0
-13 -33 -47 -101 -102 -170 -138 -305 -237 -351 -257 -28 -12 -37 -41 -17 -53
6 -4 36 11 67 33 31 22 77 50 102 62 25 12 61 31 80 40 37 19 188 145 227 190
20 23 31 45 47 94 6 18 7 18 26 1 13 -12 20 -31 20 -54 0 -34 -8 -42 -148
-158 -161 -133 -239 -193 -249 -193 -3 0 -15 -7 -25 -17 -10 -9 -28 -21 -40
-27 -27 -13 -37 -46 -15 -46 9 0 64 25 124 56 154 79 183 97 265 167 86 72
128 100 128 82 0 -26 15 -17 87 53 74 70 113 132 113 179 0 57 -12 103 -27
103 -13 0 -14 -10 -9 -53z"/>
</g>
</svg>
