<?xml version="1.0" standalone="no"?>
<!DOCTYPE svg PUBLIC "-//W3C//DTD SVG 20010904//EN"
 "http://www.w3.org/TR/2001/REC-SVG-20010904/DTD/svg10.dtd">
<svg version="1.0" xmlns="http://www.w3.org/2000/svg"
 width="424.000000pt" height="256.000000pt" viewBox="0 0 424.000000 256.000000"
 preserveAspectRatio="xMidYMid meet">
<metadata>
Created by potrace 1.16, written by Peter Selinger 2001-2019
</metadata>
<g transform="translate(0.000000,256.000000) scale(0.100000,-0.100000)"
fill="#000000" stroke="none">
<path d="M3183 2468 c-6 -7 -13 -33 -17 -57 -4 -24 -13 -56 -21 -72 -17 -32
-19 -59 -5 -59 15 0 29 34 50 117 11 42 20 78 20 80 0 8 -18 2 -27 -9z"/>
<path d="M3397 2443 c-4 -3 -7 -16 -7 -28 0 -12 -7 -30 -15 -41 -8 -10 -15
-28 -15 -39 0 -11 -16 -56 -35 -100 -19 -44 -35 -84 -35 -90 0 -6 -11 -27 -25
-47 -23 -34 -25 -45 -25 -157 0 -65 3 -126 6 -135 4 -11 19 -16 45 -16 27 0
39 -4 39 -15 0 -10 -9 -13 -30 -10 -16 2 -33 6 -37 8 -4 3 -9 -5 -9 -16 -1
-12 -4 -41 -8 -63 l-6 -41 44 -13 c59 -16 68 -38 18 -42 -36 -3 -37 -4 -38
-45 0 -23 -7 -56 -15 -75 -17 -40 -21 -480 -4 -488 6 -3 11 40 13 117 l3 122
32 -6 c18 -3 83 -19 146 -34 63 -15 119 -26 123 -23 4 3 8 12 8 20 0 18 48 14
140 -13 30 -9 58 -16 62 -15 3 1 41 -6 85 -15 43 -10 104 -17 136 -16 40 2 57
-2 57 -11 0 -12 143 -66 175 -66 9 0 15 9 15 25 0 16 -4 23 -13 19 -8 -3 -45
4 -83 15 -38 11 -58 20 -44 20 14 1 40 -3 58 -8 25 -8 32 -7 32 5 0 8 9 14 20
14 20 0 35 20 28 38 -2 6 -22 5 -48 -2 -36 -9 -64 -8 -140 5 l-95 16 48 7 c26
5 55 6 65 4 10 -3 31 5 47 18 24 19 27 25 16 38 -9 10 -12 46 -10 113 1 55 0
104 -4 110 -4 6 0 13 8 17 23 8 18 25 -10 36 -22 8 -24 14 -19 37 4 16 11 36
16 46 16 32 -12 18 -58 -29 -54 -54 -55 -82 -7 -103 35 -16 39 -27 48 -167 l4
-70 -137 -13 c-75 -7 -164 -17 -198 -22 -37 -5 -73 -5 -90 0 -16 5 -48 12 -71
15 -35 5 -44 3 -57 -16 -12 -17 -18 -19 -30 -9 -8 6 -36 16 -63 20 -26 5 -68
13 -93 20 -25 6 -57 13 -72 16 -28 5 -28 7 -28 79 0 113 7 136 41 136 25 0 28
-4 31 -37 4 -52 28 -56 28 -4 0 23 5 41 10 41 6 0 10 -16 10 -36 0 -42 23 -43
28 -1 4 36 37 37 46 1 8 -32 32 -26 28 8 l-3 25 114 1 c85 1 119 -2 133 -13
44 -33 144 -4 144 42 0 28 -11 29 -28 3 -17 -28 -39 -25 -45 8 -6 31 0 43 12
23 6 -9 11 -10 15 -2 9 14 106 15 106 1 0 -6 -7 -13 -15 -16 -18 -7 -20 -30
-3 -40 6 -4 17 1 25 11 10 15 16 16 25 7 7 -7 18 -12 25 -12 16 0 17 32 2 47
-9 9 -5 20 15 43 14 17 28 42 31 56 3 13 7 35 10 49 7 31 17 31 51 0 14 -13
36 -24 48 -23 11 1 31 -2 44 -6 22 -7 23 -6 20 41 l-3 48 -80 5 -80 5 -3 44
c-3 43 -3 43 23 37 16 -4 33 -2 41 5 11 9 18 8 32 -3 9 -9 29 -18 45 -20 23
-5 28 -1 33 21 3 14 9 34 15 43 11 21 12 109 2 106 -5 -1 -20 2 -35 6 -21 6
-28 14 -28 33 0 37 -17 63 -38 56 -9 -4 -19 -10 -22 -15 -3 -4 -42 -12 -85
-18 -44 -6 -105 -15 -136 -20 -30 -6 -78 -10 -106 -10 -28 0 -72 -4 -99 -9
-27 -5 -112 -14 -189 -20 -172 -14 -205 -20 -212 -37 -10 -26 6 -59 38 -78 62
-37 64 -41 61 -153 -2 -57 -8 -103 -13 -103 -5 0 -9 9 -9 20 0 22 -32 40 -66
37 -11 -1 -20 6 -22 16 -3 17 2 18 40 15 l43 -3 3 48 c4 59 -9 77 -54 77 l-34
0 0 83 0 83 33 11 c50 18 239 42 482 62 44 3 85 9 91 13 6 4 65 12 130 18 65
5 143 12 172 15 58 6 63 -1 31 -44 -24 -32 -19 -51 11 -48 18 1 20 9 20 70 l0
68 -72 -6 c-40 -3 -100 -10 -133 -15 -89 -13 -202 -27 -370 -45 -239 -26 -288
-32 -317 -39 -85 -19 -83 -19 -66 6 9 14 29 25 49 28 42 6 47 34 7 38 l-27 3
24 47 c13 26 33 77 45 113 l22 66 211 6 c115 4 304 7 419 7 l208 0 0 26 0 27
-167 -7 c-93 -3 -277 -9 -410 -12 l-243 -7 0 27 c0 25 -10 33 -23 19z m744
-415 c1 -7 1 -20 0 -29 -1 -9 18 -28 44 -44 45 -29 56 -45 33 -45 -7 0 -24 -9
-38 -20 -29 -23 -60 -26 -60 -6 0 24 -41 31 -57 10 -7 -10 -13 -16 -14 -13 0
2 -1 32 -2 67 -2 49 1 62 13 62 8 0 26 7 40 14 32 18 40 19 41 4z m-122 -141
l-2 -123 -66 3 c-36 2 -88 8 -116 13 -27 5 -88 12 -135 15 -216 13 -234 17
-211 54 8 12 14 13 36 3 36 -16 65 -15 65 3 0 8 -7 15 -15 15 -21 0 -19 13 6
28 12 8 19 21 17 35 -3 25 13 29 192 48 103 10 222 25 228 28 2 0 2 -54 1
-122z m-476 51 c28 -4 14 -21 -31 -36 -36 -12 -43 -19 -52 -53 -14 -50 0 -79
38 -80 15 0 88 -4 162 -10 74 -5 174 -12 222 -16 95 -6 122 -20 95 -48 -14
-14 -23 -13 -91 5 -92 24 -136 26 -136 5 0 -9 7 -18 15 -21 13 -5 13 -8 0 -21
-8 -8 -15 -25 -15 -38 0 -13 -8 -29 -17 -34 -16 -9 -15 -13 15 -36 32 -26 47
-82 20 -72 -7 2 -12 13 -11 25 1 11 -4 26 -12 32 -12 10 -20 9 -42 -6 -23 -16
-45 -19 -133 -18 -162 3 -185 7 -185 35 0 17 5 23 15 20 34 -10 106 -11 120
-2 21 15 8 22 -52 30 l-53 6 -5 127 c-5 123 -6 127 -33 152 -15 14 -35 26 -43
26 -28 0 -13 18 24 28 31 9 122 9 185 0z m473 -245 c-10 -10 -19 5 -10 18 6
11 8 11 12 0 2 -7 1 -15 -2 -18z m174 5 c0 -11 -57 -10 -65 2 -3 5 9 9 30 8
19 -1 35 -5 35 -10z m-200 -38 c0 -5 -2 -10 -4 -10 -3 0 -8 5 -11 10 -3 6 -1
10 4 10 6 0 11 -4 11 -10z m-86 -44 c49 -1 71 -5 74 -15 3 -10 -9 -12 -64 -9
-38 3 -75 7 -83 9 -8 2 -19 -6 -26 -17 -9 -19 -13 -20 -29 -8 -15 10 -16 17
-8 27 7 8 8 17 4 22 -4 4 9 4 28 0 19 -4 66 -8 104 -9z m9 -433 c-13 -2 -35
-2 -50 0 -16 2 -5 4 22 4 28 0 40 -2 28 -4z"/>
<path d="M3462 1726 c-6 -13 -8 -33 -5 -45 4 -17 13 -21 49 -21 44 0 66 13 38
24 -9 3 -27 6 -41 6 -15 0 -23 5 -21 13 7 19 46 20 73 3 27 -18 102 -21 125
-6 24 16 -6 30 -62 30 -26 0 -50 5 -53 10 -3 6 -25 10 -49 10 -35 0 -45 -4
-54 -24z"/>
<path d="M2905 2383 c-22 -1 -200 -7 -395 -13 -195 -5 -364 -11 -375 -13 -11
-3 -148 -8 -305 -12 -157 -3 -368 -11 -470 -16 -102 -5 -414 -19 -695 -30
-653 -26 -665 -27 -665 -45 0 -10 14 -14 55 -14 l55 0 0 -64 0 -65 -55 4 c-52
3 -55 2 -55 -20 0 -21 6 -24 43 -28 l42 -4 -42 -1 -43 -2 0 -60 0 -60 49 0
c54 0 61 7 53 57 -2 18 -1 45 3 60 7 25 8 26 15 8 8 -22 7 -61 -5 -143 -7 -44
-12 -53 -31 -58 -13 -4 -24 -10 -24 -15 0 -5 -13 -9 -30 -9 -26 0 -30 -4 -30
-27 0 -19 3 -24 8 -15 5 7 16 10 25 6 12 -4 17 -1 17 10 0 18 8 20 28 7 10 -6
10 -10 -1 -19 -10 -9 -12 -24 -7 -57 8 -51 4 -54 -33 -25 -31 25 -37 25 -37 1
0 -18 65 -71 87 -71 6 0 13 -4 15 -9 1 -5 37 -30 78 -57 41 -26 86 -59 100
-74 14 -14 36 -32 49 -41 20 -13 22 -18 12 -36 -6 -12 -11 -39 -11 -60 0 -73
-11 -71 -98 16 -45 45 -86 81 -92 81 -6 0 -20 9 -32 20 -12 11 -29 20 -39 20
-9 0 -29 10 -43 21 l-28 22 4 -28 c2 -21 11 -31 33 -38 51 -17 195 -125 195
-147 0 -9 -145 -19 -171 -13 -12 3 -21 19 -25 42 -4 20 -13 47 -20 61 -12 23
-13 19 -14 -47 l0 -71 34 -12 c36 -12 78 -59 97 -107 10 -27 11 -27 24 -9 12
16 12 23 -1 47 -8 16 -19 29 -24 29 -6 0 -10 7 -10 16 0 11 5 14 16 10 9 -3
28 -7 42 -7 16 -1 20 -3 10 -6 -13 -3 -15 -9 -8 -28 12 -32 1 -95 -17 -95 -11
0 -10 -5 4 -25 23 -31 33 -31 33 -1 0 36 16 72 36 80 25 9 30 -1 11 -22 -19
-20 -23 -52 -7 -52 6 0 10 4 10 9 0 5 10 11 23 13 17 2 22 9 22 31 -1 32 21
36 30 6 5 -15 12 -19 28 -15 12 3 28 6 35 6 6 0 12 8 12 18 1 15 2 15 13 1 7
-10 35 -18 70 -22 32 -3 64 -10 71 -16 15 -13 26 -4 26 21 0 25 16 23 23 -3 4
-16 12 -20 39 -17 21 2 33 8 33 18 0 10 -8 14 -25 12 -18 -1 -21 0 -11 7 24
15 5 38 -38 45 -23 3 -41 11 -41 16 0 6 5 10 10 10 6 0 10 9 10 19 0 11 6 21
13 24 9 4 9 7 0 18 -20 21 -15 30 9 17 27 -15 94 -81 125 -123 14 -19 25 -26
30 -19 9 11 265 34 386 34 80 0 103 -13 42 -24 -19 -4 -35 -12 -35 -18 0 -5 7
-8 15 -5 8 4 17 2 21 -4 3 -6 -24 -9 -76 -8 -61 1 -84 -2 -91 -12 -5 -8 -9
-131 -9 -273 l0 -260 27 -28 c19 -20 23 -28 11 -28 -17 0 -32 -76 -22 -116 5
-20 2 -24 -15 -24 -12 0 -21 -6 -21 -15 0 -8 -4 -15 -10 -15 -5 0 -10 7 -10
15 0 21 -46 30 -78 15 -58 -27 -79 -29 -100 -10 -41 39 -292 23 -292 -18 0
-11 8 -13 33 -8 85 16 108 18 132 12 20 -5 25 -11 20 -26 -4 -13 -1 -22 9 -26
27 -11 17 -23 -21 -26 -35 -3 -37 -5 -38 -38 0 -31 -3 -35 -24 -32 -16 3 -22
-1 -19 -10 6 -17 78 -24 78 -7 0 11 16 9 52 -6 14 -6 18 -2 18 18 0 14 -7 28
-16 31 -23 9 -7 26 26 26 21 0 33 8 49 34 15 24 31 36 54 39 17 4 46 9 64 13
29 5 33 3 39 -20 3 -14 3 -37 0 -51 -8 -31 0 -46 18 -39 8 3 17 24 20 47 5 33
13 46 37 60 29 16 31 20 25 57 -7 45 1 93 15 84 5 -3 9 -27 9 -54 0 -57 7 -80
25 -80 21 0 28 19 15 35 -9 11 -12 95 -11 312 1 252 4 300 17 314 9 10 11 19
6 23 -14 8 -42 -3 -43 -18 -1 -6 -2 -24 -3 -41 -4 -52 -6 -55 -26 -55 -18 0
-20 7 -20 80 l0 80 48 1 c26 1 56 3 67 4 108 14 186 15 204 3 28 -17 26 -36
-3 -48 -13 -5 -27 -13 -30 -18 -6 -11 57 -23 114 -23 19 0 179 0 356 0 278 0
322 2 333 15 11 13 11 17 -3 22 -9 3 -24 3 -33 -1 -10 -3 -100 -3 -201 1 -159
6 -185 9 -204 26 -22 19 -23 19 -32 -1 -8 -19 -18 -21 -100 -21 -89 0 -91 1
-103 27 -7 15 -12 28 -10 29 1 2 56 5 121 7 144 4 156 12 156 108 0 82 26 80
85 -7 48 -70 99 -111 165 -131 82 -24 170 -21 170 7 0 11 -4 22 -10 25 -21 13
-8 23 38 29 65 9 65 9 84 1 13 -5 20 0 28 20 9 24 14 27 43 21 17 -4 43 -10
56 -12 13 -3 31 -9 40 -13 15 -8 177 -54 306 -88 113 -29 113 -32 0 -28 -79 2
-127 9 -170 24 -33 12 -66 21 -75 21 -8 0 -20 10 -25 23 -11 23 -53 34 -83 21
-10 -3 -28 -7 -42 -8 -14 -1 -38 -3 -55 -4 l-30 -3 24 -19 c24 -21 51 -26 51
-11 0 5 11 11 25 14 16 3 24 0 22 -7 -2 -6 -13 -12 -25 -14 -14 -2 -22 -11
-22 -22 0 -10 -6 -20 -12 -23 -10 -3 -10 -8 -2 -17 17 -17 50 -8 46 13 -2 12
5 17 25 18 67 3 140 -4 168 -16 56 -24 68 -25 263 -26 108 -1 206 -5 219 -10
l23 -9 0 -303 0 -304 -72 3 c-245 8 -561 5 -568 -6 -5 -7 -11 -6 -21 6 -13 15
-38 16 -300 10 -276 -7 -358 -12 -367 -21 -3 -3 1 -11 8 -20 10 -12 10 -15 -3
-15 -9 0 -17 10 -19 21 -4 29 -29 43 -61 35 -21 -5 -27 -12 -27 -34 0 -38 35
-133 54 -147 12 -9 13 -14 3 -24 -8 -8 -9 -14 -1 -19 6 -4 14 -20 16 -37 3
-16 13 -52 23 -80 10 -27 22 -62 28 -77 5 -16 13 -28 18 -28 15 0 10 39 -16
116 -32 96 -32 106 0 91 16 -8 23 -18 19 -28 -2 -9 2 -36 11 -60 8 -24 15 -51
15 -60 0 -19 27 -45 37 -36 3 4 -4 39 -16 78 -13 39 -20 80 -17 92 3 11 1 26
-5 33 -6 8 -7 14 0 18 5 4 12 2 16 -4 7 -12 45 -14 45 -2 -1 19 -41 52 -64 52
-14 0 -26 5 -26 11 0 8 15 10 44 7 47 -6 73 3 62 21 -4 7 -33 9 -76 7 -68 -4
-94 7 -47 19 15 4 27 18 33 37 l9 31 118 -2 c126 -2 147 -6 147 -26 0 -7 12
-38 26 -69 l25 -56 85 0 c54 0 83 -4 79 -10 -3 -5 -26 -10 -50 -10 -91 0 -95
-21 -31 -142 33 -61 50 -84 67 -86 22 -4 22 -3 5 23 -29 44 -86 159 -81 163 3
3 70 7 149 10 l145 5 30 -32 c16 -17 43 -55 59 -84 43 -76 78 -111 95 -95 11
10 8 18 -17 46 -42 46 -50 62 -33 62 10 0 13 8 10 23 -4 20 2 27 34 42 36 17
41 18 102 2 35 -10 66 -16 68 -14 8 9 -10 35 -30 45 -12 6 -16 11 -9 11 19 1
17 101 -3 101 -11 0 -15 -11 -15 -40 0 -26 -4 -40 -13 -40 -21 0 -13 81 9 97
10 7 45 13 81 13 56 0 63 -2 63 -19 0 -28 7 -30 105 -36 85 -6 87 -5 82 15
l-5 21 33 -21 c25 -15 50 -20 106 -20 49 -1 81 -6 93 -15 12 -9 42 -15 76 -15
31 0 61 -5 66 -10 7 -7 17 -3 32 10 l22 21 0 -21 c0 -11 4 -20 10 -20 21 0 43
68 50 150 6 78 7 83 18 57 14 -33 16 -90 3 -115 -33 -65 -35 -73 -22 -81 14
-9 22 -81 8 -81 -4 0 -10 13 -13 29 l-6 29 -87 1 c-47 1 -101 3 -120 4 -39 2
-53 -18 -19 -28 25 -8 38 -23 38 -43 0 -17 -32 0 -80 41 l-34 30 -136 -7 c-74
-4 -162 -9 -195 -10 -85 -4 -85 -4 -85 -27 0 -17 5 -20 23 -16 12 3 103 9 202
13 148 5 184 4 195 -7 26 -25 74 -53 118 -71 53 -20 152 -87 152 -102 0 -6 24
-12 56 -14 31 -2 53 1 51 5 -3 5 -2 15 3 23 8 12 14 11 39 -8 21 -15 44 -22
76 -22 l45 0 0 45 c0 25 5 45 10 45 6 0 10 -20 10 -45 0 -31 4 -45 14 -45 17
0 25 98 26 337 1 133 -2 183 -11 183 -8 0 -9 4 0 13 8 10 8 44 1 122 -6 59
-13 112 -16 117 -3 4 1 8 9 8 15 0 24 52 27 152 1 37 0 38 -35 38 -19 0 -35 5
-35 10 0 6 16 10 35 10 19 0 35 5 35 10 0 13 -30 25 -95 38 -27 5 -88 23 -135
40 -47 16 -123 39 -170 51 -47 12 -107 27 -135 35 -50 14 -80 7 -59 -14 10
-10 44 -20 219 -65 195 -50 255 -76 255 -107 0 -4 -25 -8 -55 -8 -42 0 -55 3
-55 15 0 20 -39 20 -46 0 -7 -17 -74 -21 -74 -5 0 6 14 10 30 10 17 0 30 5 30
10 0 15 -37 12 -70 -5 -19 -10 -27 -20 -24 -30 5 -12 0 -12 -28 -5 -18 6 -58
10 -88 10 -31 0 -61 5 -67 11 -8 8 -17 8 -31 0 -21 -11 -138 -9 -150 3 -4 4
-10 128 -14 274 -4 147 -11 294 -17 327 -24 138 -34 236 -32 333 1 56 -2 102
-6 102 -26 0 -80 264 -66 320 6 22 -13 51 -31 48 -6 -1 -29 -3 -51 -5z m55
-119 c14 -123 28 -195 45 -220 20 -31 20 -31 -22 -37 -42 -5 -360 -53 -408
-61 -16 -2 -59 -11 -95 -19 -36 -8 -108 -20 -160 -27 -52 -6 -120 -18 -150
-25 -30 -7 -84 -16 -120 -20 -76 -8 -354 -61 -390 -74 -31 -12 -170 -21 -170
-11 0 7 102 30 264 59 79 14 102 22 114 39 13 20 23 22 107 22 65 0 96 4 104
13 18 22 5 25 -82 20 -57 -4 -101 0 -143 11 -34 9 -95 16 -135 16 -97 0 -338
17 -414 30 -33 5 -161 14 -285 20 -124 6 -250 13 -280 15 -30 2 -95 7 -145 10
-49 3 -97 8 -105 10 -8 2 -85 6 -170 10 -85 4 -159 11 -165 17 -7 7 32 8 120
5 72 -3 261 -11 420 -16 160 -6 306 -12 325 -13 26 -2 35 1 35 12 0 12 -22 16
-115 21 -143 8 -301 17 -493 30 -82 5 -184 9 -228 9 l-79 0 0 64 0 63 61 7
c34 3 128 6 208 7 80 0 200 5 266 10 66 5 341 15 610 23 270 9 508 19 530 25
22 5 231 13 465 17 234 4 479 10 545 13 66 4 121 6 123 5 2 -1 7 -37 12 -80z
m-2520 -284 c10 -7 -34 -10 -132 -10 -92 0 -148 4 -148 10 0 13 260 13 280 0z
m379 -6 c85 -9 58 -24 -44 -24 -85 0 -125 7 -125 21 0 11 81 12 169 3z m2205
-41 c-5 -43 13 -209 38 -353 5 -30 12 -156 15 -279 5 -207 4 -223 -12 -217 -9
3 -26 6 -38 6 l-22 0 3 308 4 309 -63 6 c-34 4 -92 7 -128 8 -108 1 -120 17
-13 18 92 1 110 9 81 38 -7 7 -6 12 5 16 15 6 18 2 20 -33 1 -19 88 -43 97
-26 3 6 3 34 0 61 -6 48 -8 50 -38 53 -42 4 -42 19 -1 30 19 5 34 16 36 26 3
14 -2 16 -30 12 -18 -3 -98 -13 -178 -21 -80 -9 -167 -20 -195 -25 -92 -17
-225 -23 -225 -11 0 6 10 11 23 11 13 0 27 4 33 9 5 5 74 19 154 31 147 22
433 67 437 69 1 1 0 -20 -3 -46z m-2429 21 c35 9 31 -10 -5 -23 -16 -5 -31
-17 -31 -25 -1 -9 -2 -22 -3 -28 -1 -7 10 -14 24 -15 14 -1 43 -6 65 -12 22
-6 64 -11 93 -11 39 0 52 -4 49 -12 -2 -7 0 -21 5 -32 8 -15 12 -16 19 -5 4 7
4 18 -2 25 -16 19 28 24 201 25 96 0 176 -5 200 -12 42 -13 50 -23 25 -33 -30
-11 -17 -36 20 -36 39 0 48 23 18 46 -15 11 -16 13 -3 17 56 18 52 14 64 70 5
19 13 27 27 27 16 0 19 -4 14 -17 -16 -38 -16 -50 -1 -62 14 -12 17 -9 22 17
l6 30 97 6 c310 20 392 19 331 -6 -25 -10 -154 -38 -176 -38 -7 0 -14 10 -17
21 -5 17 -10 20 -24 13 -10 -5 -58 -9 -108 -9 -100 -1 -93 5 -83 -75 3 -21 -2
-25 -41 -32 -25 -4 -48 -11 -52 -15 -12 -13 -22 -130 -11 -137 5 -3 12 1 16 9
3 8 12 15 21 15 20 0 19 24 -1 55 -18 27 -20 24 31 40 25 8 45 -6 45 -32 0
-18 5 -24 17 -21 10 2 18 12 18 23 0 15 8 21 28 23 25 3 28 1 22 -17 -5 -17
-2 -21 14 -21 12 0 21 5 21 10 0 6 -4 10 -10 10 -5 0 -10 4 -10 9 0 5 24 11
53 13 l52 3 1 -58 c1 -52 7 -77 18 -66 3 2 6 32 8 67 l3 63 40 10 c22 5 47 12
55 15 15 6 198 38 305 55 216 33 273 41 291 37 13 -3 6 -9 -26 -18 -25 -8 -49
-19 -55 -25 -15 -18 -108 -35 -185 -35 -71 0 -125 -13 -116 -29 10 -16 148
-19 204 -5 78 21 246 18 304 -4 26 -10 50 -21 54 -25 4 -4 30 -7 58 -7 37 0
55 5 73 22 26 25 40 19 24 -11 -7 -11 -7 -22 -2 -25 5 -3 62 -9 128 -12 147
-7 163 -10 163 -32 0 -16 -9 -17 -94 -14 -85 4 -98 2 -126 -18 -26 -19 -48
-23 -151 -27 -66 -3 -122 -10 -125 -14 -10 -16 48 -21 161 -15 100 5 114 4
109 -9 -6 -15 -39 -20 -106 -16 -22 1 -38 -2 -38 -8 0 -8 -103 -11 -331 -11
-182 0 -338 -4 -347 -8 -9 -4 -50 -6 -90 -4 -73 4 -74 4 -53 23 11 10 25 19
31 19 5 0 10 2 10 4 0 2 3 11 6 20 5 13 -1 16 -29 16 -20 0 -39 6 -44 13 -5 7
-10 -15 -13 -53 -8 -98 -25 -70 -25 40 0 80 -3 95 -17 98 -20 4 -33 -15 -20
-31 13 -16 3 -67 -13 -67 -18 0 -24 -46 -12 -86 8 -28 15 -34 38 -34 25 0 27
-3 31 -46 2 -25 0 -48 -4 -50 -5 -3 -8 13 -8 35 0 35 -3 41 -21 41 -18 0 -20
-4 -14 -27 11 -43 6 -195 -6 -210 -17 -20 -39 -16 -49 11 -5 13 -18 27 -29 31
-16 5 -19 10 -12 24 6 10 13 41 17 71 4 30 15 61 25 71 22 22 25 48 7 53 -7 2
-62 22 -123 44 -60 22 -140 45 -178 52 -56 10 -66 15 -56 26 15 18 5 124 -13
136 -7 4 -24 7 -37 6 -32 -4 -40 -28 -9 -28 13 0 29 -4 37 -9 26 -17 2 -28
-49 -21 -43 6 -50 4 -50 -11 0 -17 48 -36 78 -30 6 1 12 -2 12 -8 0 -5 3 -17
6 -26 6 -15 -11 -16 -175 -14 -163 1 -210 8 -166 25 8 4 15 13 15 22 0 13 2
13 18 -1 10 -10 28 -17 40 -17 18 0 22 6 22 30 0 28 -2 30 -38 30 -21 0 -43
-5 -50 -12 -17 -17 -26 15 -14 52 9 24 8 30 -4 30 -8 0 -22 -9 -31 -20 -14
-16 -30 -20 -73 -20 -31 0 -61 -5 -68 -12 -10 -10 -15 -10 -20 -1 -4 6 -53 13
-122 17 -233 13 -300 19 -306 27 -15 26 -56 -13 -60 -56 -3 -44 -20 -66 -42
-57 -36 13 -41 28 -39 118 l2 89 99 3 c54 1 103 -1 110 -6 6 -5 34 -12 63 -16
46 -6 52 -4 58 14 4 14 15 20 36 20 27 0 30 3 28 28 -1 15 -1 42 -1 61 2 28 4
32 17 21 8 -7 25 -10 40 -6z m-274 -24 c125 0 151 -2 156 -15 14 -39 -74 -80
-108 -49 -14 12 -37 15 -123 12 l-106 -3 0 34 c0 26 3 32 16 27 9 -3 83 -6
165 -6z m704 -13 c221 -3 275 -10 275 -36 0 -19 -44 -27 -82 -14 -29 10 -104
13 -282 12 -255 0 -316 5 -316 26 0 19 10 20 98 18 42 -2 181 -4 307 -6z
m1895 -57 c0 -5 -12 -10 -26 -10 -16 0 -23 -4 -18 -11 13 -21 -21 -28 -108
-22 -80 5 -88 4 -94 -13 -15 -41 -36 -54 -85 -54 -26 0 -50 4 -53 9 -3 4 -26
14 -51 21 -84 24 -50 42 85 46 52 1 102 4 110 7 58 21 120 28 141 17 18 -10
23 -9 31 4 10 17 68 23 68 6z m-1300 -20 c0 -5 -4 -10 -10 -10 -5 0 -10 5 -10
10 0 6 5 10 10 10 6 0 10 -4 10 -10z m-1501 -85 c-1 -47 -4 -83 -8 -80 -8 8
-12 114 -6 143 11 44 16 20 14 -63z m2830 58 c2 -2 -5 -3 -17 -3 -14 0 -22 6
-22 16 0 14 3 15 18 3 9 -7 19 -15 21 -16z m-1411 10 c-15 -2 -42 -2 -60 0
-18 2 -6 4 27 4 33 0 48 -2 33 -4z m866 -24 c-8 -13 -24 -1 -24 18 0 13 3 13
15 3 8 -7 12 -16 9 -21z m-2129 -156 c4 -21 3 -33 -4 -33 -6 0 -11 -7 -11 -15
0 -11 -6 -12 -22 -6 -30 11 -34 28 -9 36 15 5 21 15 21 38 0 38 15 26 25 -20z
m591 2 l-11 -45 -80 1 c-44 0 -88 -3 -97 -6 -21 -8 -25 14 -6 33 8 8 8 15 0
25 -16 19 -2 30 17 14 9 -7 40 -19 70 -26 48 -12 56 -12 66 3 7 9 17 16 24 16
6 0 11 7 11 15 0 8 4 15 8 15 5 0 4 -20 -2 -45z m-306 -6 c0 -30 13 -36 39
-20 8 5 11 16 8 25 -10 25 9 19 27 -9 21 -32 22 -32 -21 -38 -72 -12 -98 11
-77 67 9 24 24 9 24 -25z m-125 -1 c29 14 55 16 55 5 -1 -20 -21 -37 -47 -40
-15 -1 -40 -6 -55 -9 -15 -3 -39 -3 -53 0 -33 8 -33 36 -1 36 14 0 28 4 31 10
4 6 13 5 25 -2 14 -9 25 -9 45 0z m2545 -226 c0 -136 -3 -181 -12 -176 -6 4
-42 6 -80 5 -37 -1 -68 2 -68 7 0 5 8 24 18 43 13 26 17 56 16 127 -1 50 2 92
6 92 17 0 17 65 1 78 -13 10 -5 12 52 10 l67 -3 0 -183z m-1710 134 c30 -8 93
-24 140 -36 47 -11 106 -30 131 -41 l45 -21 -4 -61 c-5 -76 -22 -100 -60 -86
-15 6 -36 19 -47 29 -42 39 -178 94 -275 111 -52 9 -101 14 -107 12 -24 -9
-13 -22 25 -29 109 -18 215 -50 279 -84 81 -42 77 -50 -29 -50 -32 0 -58 -4
-58 -9 0 -5 -13 -3 -29 5 -23 11 -39 12 -73 5 -24 -5 -90 -12 -148 -16 -58 -3
-152 -10 -210 -14 -96 -8 -105 -8 -117 9 -24 34 -88 97 -113 110 -14 8 -40 16
-59 19 -19 4 -36 11 -38 18 -7 19 52 25 190 22 94 -3 131 -1 134 8 6 18 -64
24 -217 21 l-135 -3 3 -42 c4 -51 -12 -56 -48 -17 -19 19 -21 27 -11 33 7 5
15 26 18 47 6 46 -13 70 -46 59 -30 -9 -38 -52 -15 -70 18 -13 18 -14 2 -15
-10 0 -18 4 -18 9 0 4 -20 21 -45 36 -44 28 -50 44 -17 44 16 0 85 11 89 14 1
1 183 1 405 0 314 -2 415 -6 458 -17z m1370 -74 c0 -21 34 -44 55 -36 9 4 20
15 26 25 7 14 21 19 53 19 41 0 44 -2 50 -31 9 -48 7 -92 -7 -118 -16 -32
-109 -52 -232 -50 -120 2 -164 -3 -175 -21 -8 -12 -10 -12 -16 3 -5 15 -14 17
-48 11 -40 -6 -41 -6 -23 13 12 14 15 29 11 52 -8 37 -17 45 -48 37 -34 -8
-42 -74 -12 -86 59 -23 -74 -25 -156 -2 -21 5 -56 19 -78 31 -54 28 -86 27
-93 -1 -8 -28 -2 -34 17 -19 11 9 20 10 36 1 39 -21 10 -32 -74 -28 -74 3 -83
5 -106 31 -14 16 -33 36 -42 45 -26 24 -26 121 0 123 64 5 78 5 90 1 17 -6 15
-22 -3 -22 -20 0 -19 -36 1 -44 24 -9 46 -7 39 4 -3 5 6 23 21 40 l27 30 336
3 c185 1 339 3 344 5 4 1 7 -6 7 -16z m47 -14 c-3 -8 -6 -5 -6 6 -1 11 2 17 5
13 3 -3 4 -12 1 -19z m-2251 -84 c26 -22 27 -25 12 -34 -10 -6 -18 -18 -18
-26 0 -8 4 -13 8 -10 5 3 22 1 38 -4 16 -4 22 -9 14 -9 -21 -1 -40 -35 -33
-60 3 -12 1 -21 -6 -21 -6 0 -11 9 -11 21 0 16 -4 19 -17 14 -37 -15 -49 -14
-71 5 -22 18 -23 21 -8 42 9 12 16 37 16 54 0 67 20 75 76 28z m1719 -134 c8
-13 -15 -13 -35 0 -12 8 -11 10 7 10 12 0 25 -4 28 -10z m325 0 c12 -8 11 -10
-7 -10 -12 0 -25 5 -28 10 -8 13 15 13 35 0z m-1930 -20 c0 -5 -7 -10 -16 -10
-8 0 -12 5 -9 10 3 6 10 10 16 10 5 0 9 -4 9 -10z m2005 0 c7 -12 -12 -12 -40
0 -18 8 -17 9 7 9 15 1 30 -3 33 -9z m-1181 -15 c3 -8 1 -15 -3 -15 -5 0 -11
7 -15 15 -3 8 -1 15 3 15 5 0 11 -7 15 -15z m1602 -91 c-6 -16 -76 -19 -91 -5
-9 9 -91 33 -215 64 l-45 11 50 9 c28 5 95 8 150 7 55 0 111 3 125 8 24 9 25
8 28 -36 2 -24 1 -51 -2 -58z m-981 66 c4 -6 -5 -10 -20 -10 -15 0 -24 4 -20
10 3 6 12 10 20 10 8 0 17 -4 20 -10z m-576 -50 c18 -38 17 -48 -4 -32 -13 9
-35 49 -35 62 0 23 21 7 39 -30z m1673 -125 c3 -14 1 -28 -3 -31 -5 -3 -9 9
-9 25 0 38 6 40 12 6z m684 -12 c-10 -10 -19 5 -10 18 6 11 8 11 12 0 2 -7 1
-15 -2 -18z m-496 -83 c0 -21 -4 -42 -10 -45 -6 -4 -10 13 -10 45 0 32 4 49
10 45 6 -3 10 -24 10 -45z m-2205 32 c6 -4 9 -67 7 -165 -4 -155 -4 -158 -23
-141 -17 15 -19 32 -19 166 0 148 4 163 35 140z m2153 -37 c5 -58 12 -77 27
-71 12 4 15 -8 13 -70 -1 -71 -3 -76 -31 -96 -21 -15 -31 -18 -36 -9 -10 16
-58 4 -71 -18 -6 -11 -10 26 -11 114 0 72 -2 143 -3 158 -2 28 -1 28 54 25 53
-3 55 -4 58 -33z m180 27 c12 -1 22 -6 22 -10 0 -15 -57 -41 -78 -35 -15 3
-22 1 -23 -8 0 -8 -5 -3 -10 10 -18 44 -6 50 89 43z m329 -5 c3 -3 -2 -13 -11
-22 -13 -14 -21 -14 -56 -4 -22 7 -40 16 -40 20 0 15 92 20 107 6z m-645 -159
c2 -86 0 -160 -4 -164 -10 -9 -11 18 -9 181 0 72 1 134 1 139 0 5 2 7 4 5 3
-3 6 -75 8 -161z m508 158 c0 -3 -4 -8 -10 -11 -5 -3 -10 -1 -10 4 0 6 5 11
10 11 6 0 10 -2 10 -4z m164 -113 c-18 -34 -29 -39 -54 -23 -12 7 -12 12 -1
34 8 14 23 26 35 28 16 2 20 9 18 28 -1 13 1 31 5 40 5 9 9 -1 11 -30 2 -30
-2 -56 -14 -77z m63 68 c-1 -27 -4 -48 -8 -45 -10 6 -9 94 0 94 5 0 8 -22 8
-49z m-337 33 c0 -8 -83 -84 -92 -84 -4 0 -8 -7 -8 -15 0 -27 36 -16 78 23 23
22 43 36 44 33 1 -3 2 -62 2 -130 1 -82 5 -126 12 -128 16 -5 25 101 19 205
-4 75 -3 83 13 80 18 -4 19 -13 8 -65 -7 -29 -5 -33 12 -33 17 0 18 -4 12 -32
-5 -23 -2 -42 9 -61 10 -18 12 -30 6 -35 -6 -4 -16 -19 -24 -34 -8 -16 -18
-28 -23 -28 -4 0 -8 -9 -8 -19 0 -11 -9 -23 -20 -26 -28 -9 -25 -21 10 -34 32
-11 40 -35 15 -45 -11 -4 -15 -22 -15 -75 0 -38 -5 -73 -10 -76 -6 -4 -26 -1
-46 5 -31 10 -35 15 -30 36 7 28 -18 35 -28 8 -9 -24 -7 -54 4 -54 6 0 10 -4
10 -10 0 -5 -25 -10 -56 -10 -53 0 -55 1 -48 23 3 12 11 27 16 34 6 7 5 26 -1
49 -14 49 -1 64 55 64 l44 0 0 -37 c0 -43 17 -34 21 12 4 40 -4 52 -46 59 -37
7 -55 33 -52 72 2 15 -6 20 -34 22 l-37 3 5 42 c4 26 15 53 31 70 18 19 23 30
15 38 -7 7 -15 6 -26 -5 -9 -9 -18 -16 -21 -16 -12 0 20 44 49 69 17 14 49 45
73 68 40 39 62 52 62 37z m210 -53 c0 -4 -11 -25 -25 -45 -14 -20 -26 -45 -26
-54 -1 -9 -5 0 -9 21 -12 62 -3 87 31 87 16 0 29 -4 29 -9z m5 -138 c-3 -27
-14 -57 -23 -68 -28 -33 -54 -91 -50 -111 3 -16 11 -19 50 -16 48 3 77 -15 39
-25 -24 -6 -28 -23 -6 -23 8 0 15 -5 15 -10 0 -15 -72 17 -92 40 -9 11 -21 20
-26 20 -18 0 -22 54 -5 67 8 7 18 32 20 57 4 33 12 50 29 61 13 8 24 24 24 35
0 12 7 20 16 20 13 0 15 -8 9 -47z m75 -38 l0 -84 -36 5 c-20 2 -43 -1 -50 -7
-19 -15 -18 -3 3 32 19 32 33 38 33 14 0 -8 7 -15 15 -15 12 0 15 14 15 63 0
56 5 77 17 77 2 0 3 -38 3 -85z m43 -79 c5 -49 4 -57 -7 -45 -8 9 -11 31 -8
62 2 27 5 47 7 45 1 -2 5 -30 8 -62z m-628 15 c-3 -6 -12 -11 -20 -11 -7 0
-16 -8 -19 -18 -3 -10 -15 -18 -27 -19 -18 -2 -18 1 8 26 36 36 77 51 58 22z
m44 -27 c-12 -13 -29 -24 -37 -24 -8 0 0 14 20 35 18 20 34 31 36 25 3 -7 -6
-22 -19 -36z m97 -14 c13 0 24 -4 24 -10 0 -5 -9 -10 -19 -10 -16 0 -21 -9
-26 -42 -3 -24 -5 -52 -4 -63 1 -11 1 -44 1 -72 -2 -50 -3 -53 -28 -53 l-27 0
6 128 c3 70 6 128 6 129 3 6 37 7 39 1 2 -4 15 -8 28 -8z m398 -6 c9 -3 16
-10 16 -15 0 -7 -18 -7 -48 0 -4 1 8 21 13 21 2 0 10 -3 19 -6z m-580 -49 c7
-19 -5 -19 -30 0 -19 14 -19 14 2 15 12 0 24 -7 28 -15z m79 0 c-3 -9 -8 -14
-10 -11 -3 3 -2 9 2 15 9 16 15 13 8 -4z m543 -47 c-2 -35 -4 -154 -4 -265 -1
-124 -6 -203 -12 -203 -5 0 -9 42 -9 101 0 56 -3 105 -8 110 -4 4 -20 9 -35
11 -15 2 -30 7 -34 11 -4 4 -22 7 -41 7 -18 0 -33 5 -33 10 0 6 9 10 20 10 19
0 19 6 15 95 -4 95 -3 96 18 89 12 -3 36 -15 53 -25 48 -29 54 -25 54 39 0 50
5 72 16 72 1 0 1 -28 0 -62z m-416 36 c0 -8 -4 -12 -10 -9 -5 3 -10 10 -10 16
0 5 5 9 10 9 6 0 10 -7 10 -16z m-273 -26 c-3 -8 -6 -5 -6 6 -1 11 2 17 5 13
3 -3 4 -12 1 -19z m141 -73 l-2 -75 -42 0 c-25 0 -49 6 -58 15 -8 8 -22 15
-30 15 -9 0 -16 5 -16 10 0 6 6 10 13 10 9 0 13 13 13 40 0 44 9 59 25 43 8
-8 18 -7 37 3 56 29 63 22 60 -61z m-2450 -33 c5 -30 -26 -42 -44 -17 -23 31
-17 47 14 43 19 -2 28 -9 30 -26z m925 -30 c15 -32 26 -67 26 -78 -1 -17 -2
-17 -6 -1 -2 9 -11 17 -19 17 -8 0 -22 17 -30 38 -8 20 -19 45 -24 54 -14 24
-13 28 8 28 11 0 26 -20 45 -58z m663 50 c12 -8 76 -103 72 -107 -2 -1 -52 2
-113 7 -60 5 -131 7 -156 5 -46 -4 -47 -4 -68 40 -11 24 -21 48 -21 53 0 12
269 14 286 2z m174 -2 c19 -12 2 -63 -23 -68 -13 -3 -17 4 -17 31 0 46 11 56
40 37z m473 -18 c9 -8 15 -17 13 -19 -6 -6 -76 30 -76 40 0 12 41 -2 63 -21z
m-273 8 c0 -5 -7 -10 -15 -10 -9 0 -15 -9 -15 -25 0 -19 -5 -25 -21 -25 -14 0
-19 5 -16 15 7 17 -4 26 -53 41 -33 11 -30 12 43 13 45 1 77 -3 77 -9z m-135
-40 c17 -7 15 -9 -12 -9 -18 -1 -33 4 -33 9 0 12 17 12 45 0z m465 -6 c0 -2
-7 -4 -15 -4 -8 0 -15 4 -15 10 0 5 7 7 15 4 8 -4 15 -8 15 -10z m420 -40 c0
-2 -9 -4 -21 -4 -11 0 -18 4 -14 10 5 8 35 3 35 -6z m-2800 -8 c0 -11 -19 -15
-25 -6 -3 5 1 10 9 10 9 0 16 -2 16 -4z m2020 -21 c6 -15 10 -28 10 -29 0 -9
-146 -14 -162 -5 -14 7 -20 6 -24 -6 -6 -14 -9 -14 -23 -2 -9 8 -29 19 -46 25
-24 8 -26 11 -9 11 12 1 24 7 27 14 4 10 33 14 111 16 106 2 106 2 116 -24z
m994 -94 c7 -11 10 -11 17 0 5 9 9 -14 9 -58 0 -65 -2 -73 -19 -73 -10 0 -27
12 -37 27 -9 15 -28 39 -41 53 -25 27 -30 59 -12 77 13 13 69 -4 83 -26z
m-1124 -10 c0 -11 -5 -10 -20 4 -11 10 -20 22 -20 27 0 4 9 3 20 -4 11 -7 20
-19 20 -27z m892 7 c-9 -9 -15 -9 -24 0 -9 9 -7 12 12 12 19 0 21 -3 12 -12z
m-27 -37 c3 -5 27 -18 53 -27 53 -21 138 -77 123 -82 -5 -2 -20 2 -33 9 -44
22 -178 102 -178 105 0 8 29 3 35 -5z"/>
<path d="M1175 1798 c-9 -23 -3 -50 13 -56 14 -4 16 36 2 58 -8 12 -10 12 -15
-2z"/>
<path d="M2235 1734 c-11 -3 -30 -7 -43 -10 -12 -2 -28 -16 -34 -30 l-12 -25
-193 5 c-172 4 -194 3 -191 -11 3 -13 30 -16 188 -19 194 -3 220 0 220 20 0 6
15 17 33 24 40 14 225 16 261 2 27 -10 56 -4 56 11 0 5 -10 13 -22 18 -27 10
-234 22 -263 15z"/>
<path d="M1800 1440 c0 -5 7 -10 15 -10 8 0 15 5 15 10 0 6 -7 10 -15 10 -8 0
-15 -4 -15 -10z"/>
<path d="M2335 1400 c-13 -21 19 -48 64 -54 25 -4 65 -9 89 -13 23 -3 42 -2
42 3 0 12 -106 44 -143 44 -15 0 -27 4 -27 10 0 6 19 7 48 4 35 -4 43 -3 32 5
-19 13 -97 14 -105 1z"/>
<path d="M4025 2337 c-10 -38 -1 -130 13 -135 9 -3 12 17 12 77 0 78 -13 107
-25 58z"/>
<path d="M3136 2194 c-4 -14 -18 -49 -31 -77 -17 -34 -22 -54 -15 -61 6 -6 13
-6 19 0 11 11 51 129 51 149 0 25 -17 17 -24 -11z"/>
<path d="M4120 1799 c0 -5 5 -7 10 -4 6 3 10 8 10 11 0 2 -4 4 -10 4 -5 0 -10
-5 -10 -11z"/>
<path d="M4233 1770 c0 -25 2 -35 4 -22 2 12 2 32 0 45 -2 12 -4 2 -4 -23z"/>
<path d="M4225 1631 c-3 -5 -1 -12 5 -16 5 -3 10 1 10 9 0 18 -6 21 -15 7z"/>
<path d="M4115 1611 c-3 -6 1 -14 9 -17 20 -8 51 -1 51 11 0 14 -52 19 -60 6z"/>
<path d="M3697 1334 c-17 -9 -28 -23 -28 -39 -1 -14 -2 -30 -3 -36 -2 -20 41
-30 55 -13 13 15 21 92 10 98 -3 2 -18 -2 -34 -10z"/>
<path d="M3742 1118 c3 -7 32 -22 66 -34 34 -11 65 -23 68 -27 12 -12 44 -8
44 6 0 15 -61 47 -90 47 -10 0 -22 5 -25 10 -9 15 -68 13 -63 -2z"/>
<path d="M4022 1083 c-7 -3 -19 -18 -27 -34 -15 -28 -15 -29 7 -29 13 0 34 -9
48 -20 30 -24 80 -27 80 -5 0 8 -7 15 -15 15 -9 0 -15 6 -13 13 3 15 -41 67
-56 66 -6 0 -17 -3 -24 -6z m33 -43 c3 -5 1 -10 -4 -10 -6 0 -11 5 -11 10 0 6
2 10 4 10 3 0 8 -4 11 -10z"/>
<path d="M1280 920 c-18 -55 -36 -103 -41 -106 -5 -3 -9 -14 -9 -25 0 -32 23
-17 45 28 l20 41 28 -20 c25 -18 27 -19 34 -2 5 14 9 9 17 -21 12 -40 36 -60
36 -28 0 19 -21 91 -38 133 -6 14 -13 42 -17 63 -4 27 -11 37 -24 37 -14 0
-25 -23 -51 -100z m63 -11 c5 -34 4 -36 -19 -31 -19 3 -22 8 -14 22 6 10 10
29 10 41 0 34 16 10 23 -32z"/>
<path d="M1596 1012 c-8 -13 -10 -207 -2 -220 4 -7 31 -12 67 -12 54 0 59 2
59 21 0 20 -4 21 -50 17 l-50 -5 0 103 c0 92 -8 122 -24 96z"/>
<path d="M2297 993 c-8 -15 -24 -59 -37 -98 -12 -38 -26 -74 -31 -79 -15 -16
-10 -46 6 -46 9 0 18 6 20 13 24 69 24 68 45 55 18 -11 23 -10 35 6 13 17 14
15 20 -18 4 -19 13 -40 21 -47 23 -19 27 12 9 62 -9 24 -25 72 -36 106 -11 34
-24 65 -29 68 -5 3 -15 -7 -23 -22z m30 -99 c1 -16 0 -23 -3 -16 -3 6 -12 12
-20 12 -16 0 -16 2 -8 25 10 24 29 12 31 -21z"/>
<path d="M1440 895 l0 -115 55 0 c30 0 58 0 63 0 4 0 7 8 7 18 0 14 -9 17 -47
16 l-48 0 0 98 c0 80 -3 98 -15 98 -12 0 -15 -19 -15 -115z"/>
<path d="M1905 1000 c-10 -16 4 -30 31 -30 14 0 23 -4 20 -8 -2 -4 -6 -48 -7
-97 -2 -72 1 -90 12 -90 15 0 16 10 18 123 1 70 2 72 26 72 18 0 25 5 25 20 0
18 -7 20 -59 20 -33 0 -63 -4 -66 -10z"/>
<path d="M2064 998 c-4 -6 -7 -59 -7 -117 1 -83 4 -106 14 -106 10 0 15 16 17
51 3 47 5 51 26 47 17 -4 27 -16 38 -51 8 -29 21 -48 31 -50 23 -5 22 24 -2
68 -18 35 -18 36 0 59 22 27 19 64 -7 92 -20 22 -98 27 -110 7z m84 -34 c25
-7 28 -19 8 -40 -29 -29 -66 -14 -73 29 -3 18 21 22 65 11z"/>
<path d="M2433 998 c-5 -7 -11 -59 -12 -115 -1 -96 0 -103 18 -103 18 0 19 5
14 48 l-5 48 37 -4 c32 -4 36 -2 33 14 -2 11 -13 20 -28 23 -27 3 -40 17 -40
44 0 14 9 17 51 17 43 0 50 3 47 18 -4 22 -99 30 -115 10z"/>
<path d="M2623 1003 c-36 -4 -43 -8 -44 -26 -6 -159 -5 -197 8 -197 9 0 13 14
13 45 0 45 0 45 35 45 28 0 35 4 35 20 0 15 -7 20 -29 20 -21 0 -32 6 -36 20
-10 31 3 42 46 39 40 -3 66 11 55 30 -4 6 -15 10 -24 9 -9 -1 -36 -3 -59 -5z"/>
<path d="M2729 1008 c-1 -1 -2 -56 -3 -120 -1 -85 1 -118 10 -118 18 0 21 17
20 129 -1 74 -5 105 -13 108 -7 3 -14 3 -14 1z"/>
<path d="M2823 988 c-27 -29 -46 -101 -38 -140 16 -71 82 -101 126 -57 28 28
12 42 -30 26 -30 -11 -34 -10 -51 13 -34 44 -5 140 41 140 10 0 22 -7 27 -16
9 -17 32 -12 32 7 0 18 -40 49 -63 49 -13 0 -33 -10 -44 -22z"/>
<path d="M3885 878 c0 -62 -2 -280 -4 -484 -2 -204 -1 -376 3 -383 4 -6 23
-11 42 -11 l34 0 0 52 c0 48 1 50 18 36 33 -28 166 -81 214 -86 55 -5 67 12
16 23 -18 4 -37 11 -43 15 -5 4 -41 19 -80 34 -38 15 -76 32 -82 38 -7 6 -20
8 -28 4 -13 -5 -15 10 -15 99 0 66 4 105 10 105 6 0 32 -11 58 -24 26 -13 72
-31 102 -41 30 -10 59 -24 63 -31 4 -8 17 -14 27 -14 15 0 20 7 20 25 0 14 -3
24 -7 23 -5 0 -17 2 -28 7 -11 4 -58 24 -105 42 -84 35 -142 73 -109 73 9 0
24 -9 33 -19 26 -29 109 -46 146 -31 17 7 39 10 50 7 14 -4 20 0 20 11 0 14
-11 17 -57 17 -32 1 -80 3 -108 7 -54 6 -51 1 -47 82 1 25 8 36 22 41 29 9 24
25 -7 25 -36 0 -73 10 -73 20 0 4 20 5 45 3 24 -3 64 -1 87 5 25 6 63 7 91 3
45 -8 47 -7 47 17 l0 25 -134 -7 -133 -7 1 50 c0 28 2 51 4 51 13 0 187 -42
220 -54 l42 -15 0 26 c0 15 -3 23 -6 20 -4 -3 -14 -2 -24 3 -28 15 -167 50
-200 50 -16 0 -30 3 -31 8 -3 37 -5 161 -2 178 l4 21 102 -25 c56 -13 114 -31
130 -38 27 -14 27 -14 27 16 0 16 -3 29 -7 28 -5 -1 -26 3 -48 9 -22 6 -79 19
-127 29 -71 15 -88 22 -88 36 0 14 -8 18 -42 18 l-43 0 0 -112z m82 -400 c-3
-8 -6 -5 -6 6 -1 11 2 17 5 13 3 -3 4 -12 1 -19z m-42 -7 c3 -5 1 -12 -5 -16
-5 -3 -10 1 -10 9 0 18 6 21 15 7z m2 -173 c-3 -7 -5 -2 -5 12 0 14 2 19 5 13
2 -7 2 -19 0 -25z m3 -248 c0 -5 -4 -10 -10 -10 -5 0 -10 5 -10 10 0 6 5 10
10 10 6 0 10 -4 10 -10z"/>
<path d="M3990 806 c0 -17 8 -23 41 -30 70 -15 186 -49 197 -58 9 -8 12 -2 12
26 0 23 -4 35 -10 31 -11 -7 -100 10 -168 31 -54 18 -72 18 -72 0z"/>
<path d="M2061 716 c-7 -8 -11 -20 -10 -28 4 -34 -1 -39 -36 -32 -19 3 -35 3
-35 0 0 -8 54 -107 78 -143 8 -13 19 -20 24 -17 5 3 29 37 54 75 56 88 59 120
8 84 -28 -19 -35 -10 -28 37 6 36 5 38 -18 38 -14 0 -31 -6 -37 -14z"/>
<path d="M212 457 c-13 -15 -35 -107 -28 -115 13 -12 36 24 36 55 0 32 2 35
23 28 78 -25 110 -30 170 -27 58 3 67 6 67 23 0 19 -19 20 -122 4 -15 -2 -48
6 -77 20 -60 29 -56 29 -69 12z"/>
<path d="M130 445 c7 -8 16 -15 21 -15 5 0 9 7 9 15 0 9 -9 15 -21 15 -18 0
-19 -2 -9 -15z"/>
<path d="M45 411 c-11 -5 -26 -6 -32 -4 -7 3 -13 -2 -13 -11 0 -12 10 -16 48
-16 48 0 82 13 69 27 -11 11 -49 13 -72 4z"/>
<path d="M35 277 c-17 -13 -16 -15 14 -30 51 -26 83 -3 39 27 -27 19 -29 19
-53 3z"/>
<path d="M215 281 c-3 -5 -21 -7 -40 -4 -39 6 -57 -16 -34 -43 11 -14 13 -14
21 0 5 9 16 16 24 16 15 0 14 -11 -3 -56 -2 -7 0 -15 6 -18 13 -8 34 31 27 50
-3 8 1 14 8 14 13 0 26 20 26 41 0 12 -27 12 -35 0z"/>
<path d="M777 276 c-4 -11 6 -15 41 -18 55 -4 102 1 102 12 0 22 -135 28 -143
6z"/>
<path d="M1908 283 c-17 -3 -28 -11 -28 -20 0 -11 6 -14 23 -9 12 3 30 6 40 6
9 0 17 7 17 15 0 8 -6 14 -12 14 -7 -1 -25 -4 -40 -6z"/>
<path d="M940 226 c0 -10 9 -16 21 -16 16 0 20 -5 16 -20 -3 -11 -1 -23 5 -26
15 -9 28 17 25 46 -3 20 -10 26 -35 28 -24 2 -32 -1 -32 -12z"/>
</g>
</svg>
