<?xml version="1.0" standalone="no"?>
<!DOCTYPE svg PUBLIC "-//W3C//DTD SVG 20010904//EN"
 "http://www.w3.org/TR/2001/REC-SVG-20010904/DTD/svg10.dtd">
<svg version="1.0" xmlns="http://www.w3.org/2000/svg"
 width="344.000000pt" height="256.000000pt" viewBox="0 0 344.000000 256.000000"
 preserveAspectRatio="xMidYMid meet">
<metadata>
Created by potrace 1.16, written by Peter Selinger 2001-2019
</metadata>
<g transform="translate(0.000000,256.000000) scale(0.100000,-0.100000)"
fill="#000000" stroke="none">
<path d="M1718 2553 c7 -3 16 -2 19 1 4 3 -2 6 -13 5 -11 0 -14 -3 -6 -6z"/>
<path d="M1670 2510 c-19 -3 -54 -19 -76 -34 -33 -21 -43 -35 -46 -62 -2 -19
1 -39 6 -44 13 -13 66 -13 66 0 0 6 -4 10 -10 10 -20 0 -10 18 13 24 13 3 40
17 60 30 33 22 38 23 52 10 22 -23 19 -54 -5 -54 -25 0 -38 -29 -19 -41 35
-22 83 -2 60 25 -20 24 154 8 234 -21 127 -47 194 -99 244 -192 59 -111 51
-194 -32 -324 -20 -31 -37 -60 -37 -62 0 -11 -45 -55 -55 -55 -7 0 -23 -9 -37
-19 -16 -13 -38 -19 -60 -18 -45 2 -35 19 21 36 47 14 82 53 79 90 0 14 7 44
16 66 49 115 -38 239 -207 295 -85 27 -119 23 -225 -28 -42 -20 -78 -37 -80
-38 -1 -1 -4 -40 -6 -87 -5 -96 -10 -110 -36 -102 -14 5 -20 -1 -25 -26 -6
-25 -2 -36 19 -58 14 -15 26 -31 26 -35 0 -22 -75 76 -102 133 -26 54 -30 72
-26 125 5 89 46 167 113 219 50 38 62 67 29 67 -28 0 -112 -91 -140 -153 -25
-53 -29 -74 -29 -147 1 -72 5 -94 29 -143 16 -33 52 -83 81 -112 79 -81 166
-118 307 -131 35 -3 78 -10 96 -16 24 -7 37 -7 47 2 8 7 26 9 43 6 21 -5 33
-2 47 14 19 21 35 26 35 11 0 -5 -9 -11 -20 -14 -11 -3 -20 -10 -20 -16 0 -24
30 -21 77 8 142 87 389 117 558 67 201 -60 333 -144 457 -290 57 -66 158 -243
158 -276 0 -6 6 -26 14 -43 8 -18 17 -53 21 -79 4 -28 11 -48 19 -48 7 0 17
-12 23 -28 l11 -27 1 28 c1 16 -6 35 -14 43 -8 9 -15 30 -15 47 0 72 -106 305
-176 388 -60 72 -151 157 -211 197 -70 48 -198 105 -288 128 -120 32 -395 22
-441 -16 -6 -5 -26 -11 -45 -12 -20 -2 -44 -13 -57 -27 -30 -30 -43 -19 -14
12 12 13 22 27 22 31 0 4 17 33 38 64 60 89 75 137 70 234 -4 96 -25 150 -88
221 -83 94 -226 157 -359 157 l-76 0 -25 41 c-30 49 -45 57 -90 49z m-36 -65
c-4 -8 -11 -12 -16 -9 -6 4 -5 10 3 15 19 12 19 11 13 -6z m278 -306 c69 -15
135 -56 143 -90 3 -15 15 -35 26 -45 15 -14 18 -25 13 -53 -4 -20 -13 -40 -20
-44 -8 -4 -14 -17 -14 -27 0 -10 -4 -21 -9 -24 -14 -9 -22 23 -11 44 11 20 4
50 -11 50 -5 0 -9 -9 -9 -20 0 -11 -5 -20 -11 -20 -6 0 -9 -6 -6 -14 3 -8 2
-28 -3 -45 -9 -34 -3 -46 17 -29 11 9 18 8 29 -4 14 -14 11 -16 -30 -22 -49
-8 -64 -33 -26 -43 26 -7 26 -33 0 -33 -11 0 -23 -7 -27 -16 -5 -13 -18 -15
-78 -10 -104 9 -133 16 -197 47 -56 28 -89 57 -52 45 14 -4 24 2 35 20 15 25
15 27 -7 49 -19 19 -23 32 -20 66 4 41 8 46 61 74 12 6 22 25 26 48 7 45 -7
59 -21 22 -7 -17 -16 -25 -28 -23 -32 6 -17 29 38 60 90 50 111 54 192 37z
m204 -268 c-9 -16 -16 -41 -16 -54 0 -14 -6 -30 -14 -36 -12 -10 -14 -8 -11
11 4 31 44 122 51 115 3 -3 -2 -19 -10 -36z"/>
<path d="M1673 1946 c3 -7 1 -18 -5 -24 -6 -6 -8 -18 -4 -27 5 -14 9 -15 21
-5 21 17 20 70 -1 70 -10 0 -14 -6 -11 -14z"/>
<path d="M1379 1862 c-47 -33 -61 -49 -48 -58 7 -4 19 1 30 14 9 12 21 22 26
22 5 0 17 6 27 13 29 21 -6 30 -35 9z"/>
<path d="M1465 1849 c-8 -12 23 -49 41 -49 10 0 9 7 -2 30 -16 31 -28 37 -39
19z"/>
<path d="M890 1809 c-113 -24 -239 -61 -286 -83 -53 -25 -164 -97 -195 -126
-8 -8 -26 -24 -40 -36 -108 -91 -221 -273 -257 -414 -38 -150 -42 -172 -42
-258 0 -118 41 -310 76 -353 7 -8 19 -30 29 -49 10 -19 27 -48 39 -63 33 -44
158 -170 191 -193 82 -57 294 -148 320 -138 24 10 5 31 -38 44 -138 41 -306
145 -392 243 -125 142 -185 287 -192 467 -5 105 -2 126 27 245 17 72 35 135
40 140 4 6 24 42 45 80 64 121 155 218 290 309 99 67 122 77 264 116 109 30
121 32 240 26 69 -3 140 -6 156 -8 21 -2 30 1 30 12 0 10 -12 16 -35 18 -19 1
-44 7 -55 12 -28 12 -172 18 -215 9z"/>
<path d="M1405 1788 c-33 -11 -78 -21 -100 -24 -85 -9 -111 -17 -149 -45 -22
-16 -48 -29 -57 -29 -9 0 -22 -7 -30 -16 -18 -21 5 -36 38 -23 32 12 32 12 26
-12 -3 -12 -21 -30 -39 -41 -22 -13 -34 -28 -34 -41 0 -27 -8 -38 -43 -60 -34
-22 -93 -14 -108 14 -5 11 -14 17 -18 15 -5 -3 -16 3 -26 14 -18 19 -17 20 5
20 16 0 20 4 16 15 -3 10 1 15 13 15 10 0 21 7 25 15 3 8 12 15 21 15 18 0 18
5 5 30 -16 29 -2 49 37 52 32 3 65 29 53 42 -3 2 -26 0 -52 -5 -72 -16 -113
-59 -142 -149 -14 -41 -25 -68 -25 -60 -1 8 -13 26 -26 39 -14 13 -25 32 -25
42 0 22 -29 26 -48 7 -10 -10 -17 -10 -32 0 -33 20 -73 14 -126 -20 -36 -23
-44 -33 -32 -36 10 -2 32 4 50 12 35 18 84 21 93 6 3 -6 -1 -7 -9 -4 -8 3 -29
-4 -45 -15 -16 -12 -34 -21 -41 -21 -7 0 -10 -7 -6 -15 4 -11 -3 -19 -19 -25
-26 -10 -32 -24 -15 -35 17 -10 11 -23 -7 -19 -10 3 -27 -2 -38 -9 -15 -12
-17 -18 -7 -29 9 -11 9 -19 -2 -33 -12 -17 -14 -17 -34 3 -32 32 -102 5 -102
-40 0 -16 -5 -19 -30 -13 -37 8 -55 -1 -40 -21 16 -18 -35 -67 -62 -58 -25 8
-23 -11 7 -50 18 -24 25 -45 25 -79 0 -26 -4 -47 -10 -47 -5 0 -10 -9 -10 -19
0 -11 -4 -22 -9 -25 -21 -14 -22 -75 -1 -117 20 -38 20 -42 5 -59 -10 -11 -14
-24 -9 -31 4 -7 9 -27 11 -43 2 -16 10 -41 19 -54 9 -13 17 -38 20 -55 2 -18
6 -43 9 -57 3 -14 7 -34 9 -45 10 -48 30 -80 89 -139 66 -68 121 -92 151 -66
12 9 17 7 25 -8 6 -11 27 -27 48 -36 21 -10 49 -23 63 -30 66 -36 145 -48 290
-44 127 3 143 5 158 23 10 11 29 20 45 21 106 2 126 5 158 27 19 12 44 42 57
65 13 23 29 42 36 42 25 0 126 126 126 156 0 11 -5 11 -25 2 -14 -6 -25 -18
-25 -27 0 -9 -23 -39 -52 -67 l-52 -52 -31 47 c-21 33 -37 46 -55 48 -25 1
-135 -13 -177 -23 -14 -4 -21 -1 -20 8 1 42 -4 58 -21 58 -10 0 -22 3 -26 8
-4 4 -24 12 -44 17 -44 12 -52 40 -24 73 22 25 32 28 32 8 0 -8 6 -16 13 -19
9 -3 7 -10 -6 -25 -20 -22 -9 -32 29 -24 21 4 38 34 26 46 -3 4 -6 16 -7 29
-1 12 -5 32 -9 45 -6 17 -3 23 11 28 10 3 27 10 37 16 15 8 18 7 13 -5 -3 -8
-1 -19 5 -25 6 -6 6 -12 -1 -16 -20 -13 -12 -36 13 -36 14 0 28 -4 31 -10 11
-17 35 -11 35 9 0 10 7 24 15 31 8 7 15 21 15 31 0 11 -7 19 -15 19 -8 0 -15
7 -15 15 0 7 -8 18 -17 24 -15 8 -16 13 -5 30 13 22 16 42 27 151 8 76 13 88
68 144 63 65 155 93 230 70 27 -8 21 31 -7 44 -18 8 -35 7 -67 -2 -24 -7 -58
-16 -74 -19 -31 -6 -31 -6 -32 43 -1 41 3 50 19 56 11 3 40 26 63 50 38 38 47
43 67 35 34 -13 55 -40 39 -50 -12 -8 -6 -61 8 -61 4 0 15 16 24 36 23 47 42
39 42 -17 0 -42 17 -114 35 -148 45 -85 53 -114 47 -180 -4 -50 -11 -74 -28
-92 -24 -27 -39 -129 -20 -129 35 0 -31 -84 -93 -119 -31 -18 -53 -22 -104
-20 -42 2 -67 -2 -70 -9 -4 -13 20 -19 97 -25 47 -4 61 0 102 25 56 34 117
114 136 177 8 26 13 93 13 162 0 96 -3 125 -18 151 -32 58 -70 182 -65 210 10
53 -3 75 -49 82 -43 7 -67 28 -68 59 0 20 -28 35 -39 21 -3 -5 -16 -15 -28
-21 -27 -15 -38 -2 -23 26 21 41 3 56 -32 24 -17 -15 -18 -15 -18 5 0 12 -9
26 -20 32 -15 8 -19 17 -14 35 5 19 2 25 -11 25 -13 0 -16 -8 -14 -34 4 -46
-7 -56 -16 -14 -11 51 -19 56 -26 18 l-6 -35 -12 33 c-7 17 -19 32 -27 32 -22
0 -16 14 11 26 13 7 44 9 70 7 41 -5 45 -4 45 17 0 16 -4 20 -15 16 -8 -3 -15
-1 -15 5 0 6 10 9 23 7 18 -2 23 -10 25 -40 4 -42 29 -63 62 -53 14 4 20 2 20
-9 0 -25 37 -19 43 6 l6 23 21 -23 c11 -12 25 -22 30 -22 6 0 10 -4 10 -9 0
-5 19 -28 42 -52 37 -40 128 -169 128 -183 0 -4 9 -25 19 -49 38 -81 53 -218
42 -378 -5 -79 -17 -166 -25 -194 -19 -60 -20 -88 -4 -83 14 5 47 120 49 173
1 37 3 34 28 -45 44 -135 79 -201 164 -307 104 -130 250 -232 412 -288 62 -22
107 -30 201 -35 66 -3 125 -10 131 -13 6 -4 9 -16 6 -26 -4 -16 2 -21 34 -26
21 -3 46 -10 55 -16 26 -14 28 -12 28 25 0 44 -16 56 -85 63 -30 3 -58 10 -61
14 -3 5 -42 9 -87 9 -138 1 -267 44 -407 135 -83 54 -218 185 -251 243 -11 20
-33 60 -49 87 -34 57 -73 173 -89 259 -32 174 8 400 94 531 11 17 22 32 25 35
3 3 16 20 29 37 12 18 45 55 74 82 45 43 50 51 33 57 -13 5 -24 1 -35 -13 -24
-31 -66 -54 -84 -47 -9 3 -23 -3 -34 -15 -9 -12 -25 -21 -35 -21 -22 0 -24
-26 -3 -34 8 -3 22 -3 30 0 8 4 15 1 15 -5 0 -6 -5 -11 -10 -11 -16 0 -89
-157 -109 -234 -18 -69 -18 -69 -25 -33 -6 32 -34 105 -69 177 -41 87 -176
234 -234 254 -45 16 -55 13 -46 -12 3 -10 -2 -7 -12 6 -12 16 -23 21 -36 17
-18 -6 -19 -5 -7 15 12 19 10 24 -13 43 -14 12 -35 27 -45 34 -17 11 -16 12
14 12 43 1 121 21 128 33 14 22 -14 24 -71 6z m-165 -88 c0 -5 -5 -10 -11 -10
-5 0 -7 5 -4 10 3 6 8 10 11 10 2 0 4 -4 4 -10z m-100 -139 c0 -6 -4 -13 -10
-16 -5 -3 -10 -20 -10 -37 0 -19 -9 -41 -22 -55 -14 -15 -23 -39 -25 -65 -2
-23 -4 -42 -5 -44 -2 -1 -15 0 -30 3 -25 5 -28 9 -28 49 0 27 6 48 16 56 44
36 64 62 59 79 -4 11 1 22 12 28 23 13 43 14 43 2z m-344 -38 c3 -16 9 -39 13
-53 14 -48 4 -60 -45 -53 -45 6 -74 -7 -74 -32 0 -9 13 -11 45 -7 50 5 59 -6
19 -25 -17 -8 -34 -9 -50 -3 -20 8 -25 6 -29 -13 -6 -22 2 -48 30 -96 15 -26
9 -55 -9 -48 -7 3 -27 -1 -45 -9 -28 -12 -32 -18 -27 -38 4 -15 0 -28 -9 -36
-13 -11 -15 -7 -17 21 -3 63 2 91 43 217 43 133 59 162 91 162 11 0 22 9 25
20 8 29 32 24 39 -7z m-148 -42 c3 -8 -1 -12 -9 -9 -7 2 -15 10 -17 17 -3 8 1
12 9 9 7 -2 15 -10 17 -17z m238 -52 c-1 -23 -6 -29 -23 -29 -19 0 -23 5 -23
33 0 41 7 49 30 35 10 -7 17 -22 16 -39z m-264 -11 c-7 -7 -12 -8 -12 -2 0 14
12 26 19 19 2 -3 -1 -11 -7 -17z m-27 -8 c-3 -5 -10 -10 -16 -10 -5 0 -9 5 -9
10 0 6 7 10 16 10 8 0 12 -4 9 -10z m301 -93 c29 -25 30 -29 26 -84 -4 -55
-15 -83 -32 -83 -4 0 -18 29 -31 65 -19 54 -26 64 -41 59 -28 -8 -25 57 4 89
l23 25 10 -23 c5 -12 24 -34 41 -48z m-355 5 c3 -17 13 -42 22 -55 16 -25 13
-60 -6 -85 -7 -9 -4 -18 8 -32 13 -14 15 -27 10 -47 -9 -37 -10 -68 -3 -125 5
-39 2 -50 -14 -65 -11 -10 -24 -27 -29 -38 -8 -17 -9 -16 -3 5 3 14 8 35 11
48 3 12 1 22 -6 22 -13 0 -44 -55 -51 -90 -4 -20 -12 -26 -38 -28 -26 -3 -32
0 -32 16 0 10 9 27 20 37 16 14 19 27 15 68 -3 31 -11 55 -20 60 -23 12 -18
37 6 34 16 -1 22 4 24 21 1 12 -2 22 -7 22 -4 0 -8 9 -8 20 0 13 -7 20 -20 20
-11 0 -20 -4 -20 -10 0 -5 -4 -10 -10 -10 -5 0 -10 7 -10 15 0 26 50 17 87
-15 41 -37 53 -38 53 -5 0 18 -5 25 -20 25 -11 0 -20 5 -20 11 0 6 7 9 15 5
11 -4 23 10 42 49 l27 55 -37 38 c-24 25 -36 44 -32 54 10 27 39 14 46 -20z
m689 -1 c0 -30 -72 -45 -98 -19 -26 26 -13 38 43 38 47 0 55 -3 55 -19z m-87
-61 c27 -1 71 -36 62 -50 -10 -16 -42 -12 -49 6 -5 13 -9 14 -21 4 -10 -8 -13
-26 -9 -63 3 -29 7 -80 8 -114 3 -57 1 -63 -17 -63 -22 0 -57 27 -57 43 0 21
-46 107 -57 107 -16 0 -17 12 -3 26 5 5 11 22 12 38 2 25 5 27 34 21 28 -5 33
-2 40 22 11 39 11 42 13 51 1 4 6 -1 12 -10 5 -10 20 -18 32 -18z m137 -9 c0
-6 -4 -13 -10 -16 -5 -3 -10 1 -10 9 0 9 5 16 10 16 6 0 10 -4 10 -9z m-510
-76 c7 -8 8 -15 2 -15 -5 0 -15 7 -22 15 -7 8 -8 15 -2 15 5 0 15 -7 22 -15z
m210 -25 c0 -12 -28 -25 -36 -17 -9 9 6 27 22 27 8 0 14 -5 14 -10z m-610 -55
c14 -17 17 -37 15 -120 -3 -161 -17 -184 -74 -120 -17 19 -35 35 -41 35 -11 0
-13 13 -3 24 4 3 6 28 4 55 -2 51 27 127 55 144 8 4 15 16 15 25 1 13 2 12 6
-3 3 -11 13 -29 23 -40z m474 4 c39 -34 10 -84 -34 -57 -14 9 -22 9 -34 -1
-13 -11 -16 -11 -16 2 0 18 -38 33 -51 20 -14 -14 1 -73 20 -75 9 0 -6 -4 -34
-7 -27 -4 -51 -6 -53 -5 -2 1 5 21 14 45 21 52 48 79 80 79 13 0 26 5 29 10
10 17 54 11 79 -11z m164 -32 c3 -24 0 -27 -27 -27 -26 0 -31 4 -31 24 0 15 7
26 18 29 28 7 37 2 40 -26z m159 -69 c-3 -7 -5 -2 -5 12 0 14 2 19 5 13 2 -7
2 -19 0 -25z m-272 -40 c0 -9 4 -20 8 -24 13 -14 7 -22 -13 -17 -11 3 -26 1
-33 -5 -16 -13 -20 37 -5 56 15 17 43 11 43 -10z m-265 -18 c0 -5 -4 -10 -10
-10 -5 0 -10 5 -10 10 0 6 5 10 10 10 6 0 10 -4 10 -10z m491 -3 c19 -14 37
-65 31 -89 -2 -10 -24 -27 -49 -38 -51 -23 -63 -24 -63 -10 0 6 6 10 14 10 15
0 17 64 3 88 -5 6 -4 12 1 12 5 0 12 9 15 20 6 23 24 25 48 7z m-339 -15 c16
-16 17 -92 1 -92 -8 0 -32 -9 -53 -19 l-39 -19 1 37 c0 20 -3 54 -7 75 l-8 39
47 -5 c26 -3 52 -10 58 -16z m157 -58 c8 -16 19 -38 24 -48 12 -25 -14 -46
-57 -46 -62 1 -87 92 -30 106 13 3 24 11 24 16 0 19 25 1 39 -28z m-275 -13
c9 -31 7 -36 -27 -67 -20 -19 -44 -34 -52 -34 -25 0 -17 16 20 36 35 19 50 39
39 55 -3 6 -14 7 -25 4 -11 -4 -25 0 -34 9 -19 18 -19 27 -1 20 8 -3 17 0 21
6 14 23 49 6 59 -29z m1002 3 c-3 -9 -6 -20 -6 -25 0 -5 -4 -9 -10 -9 -11 0
-14 33 -3 43 12 13 25 7 19 -9z m-861 -144 c0 -88 -13 -103 -40 -50 -9 17 -20
30 -25 30 -6 0 -10 7 -10 15 0 8 4 15 9 15 11 0 26 39 23 58 -2 7 7 12 20 12
22 0 23 -3 23 -80z m-498 34 c-3 -3 -12 -4 -19 -1 -8 3 -5 6 6 6 11 1 17 -2
13 -5z m209 -11 c7 -10 20 -18 30 -18 26 0 27 -19 0 -31 -21 -10 -25 -8 -40
17 -25 43 -18 69 10 32z m439 -33 c-43 -67 -31 -109 38 -138 19 -8 27 -19 27
-37 0 -29 -29 -45 -95 -52 l-40 -4 2 71 c2 68 19 130 35 130 5 0 8 9 8 19 0
33 11 51 31 51 18 0 17 -3 -6 -40z m-255 23 c0 -5 3 -18 6 -30 5 -17 2 -23
-10 -23 -9 0 -16 -4 -16 -10 0 -18 -18 -11 -25 10 -9 30 4 60 26 60 10 0 19
-3 19 -7z m-295 -23 c3 -6 -4 -10 -17 -10 -13 0 -29 -5 -36 -12 -9 -9 -12 -7
-12 10 0 18 6 22 29 22 17 0 33 -4 36 -10z m391 -138 c11 -20 30 -41 42 -47
28 -12 28 -25 -2 -60 -40 -46 -28 -93 32 -124 20 -11 26 -10 38 6 12 17 13 16
14 -9 0 -16 5 -28 10 -28 6 0 10 5 10 12 0 6 8 4 20 -7 13 -11 30 -16 50 -13
16 3 30 1 30 -2 0 -4 -50 -10 -110 -13 -95 -5 -119 -3 -173 15 -78 26 -82 29
-57 56 11 12 20 35 20 52 0 25 4 31 18 28 9 -2 16 -9 15 -15 -1 -6 4 -17 12
-23 40 -33 9 90 -31 125 -18 16 -27 84 -14 101 16 19 48 -3 76 -54z m-319 12
c2 -7 -10 -14 -27 -16 -32 -5 -46 4 -35 23 9 13 57 8 62 -7z m153 -3 c0 -5 2
-16 5 -23 4 -11 -6 -15 -40 -17 -26 -1 -45 2 -45 9 0 5 11 10 24 10 13 0 26 7
30 15 6 16 26 21 26 6z m-285 -52 c11 -17 -1 -21 -15 -4 -8 9 -8 15 -2 15 6 0
14 -5 17 -11z m135 -38 c-15 -30 -30 -35 -17 -6 7 14 16 25 20 25 4 0 3 -9 -3
-19z m784 0 c7 -10 -92 -27 -101 -17 -4 3 5 6 18 6 13 0 31 5 39 10 19 12 37
13 44 1z m-734 -66 l0 -36 -37 7 c-21 3 -47 15 -58 26 -20 20 -20 20 10 14 18
-4 40 0 55 8 14 8 26 14 28 15 1 1 2 -15 2 -34z m131 -19 c-26 -27 -29 -34
-17 -39 9 -4 16 -11 16 -17 0 -5 -16 -2 -35 7 -19 9 -35 21 -35 25 0 5 4 7 8
4 5 -3 19 8 31 24 12 17 31 30 43 30 20 0 19 -3 -11 -34z m644 -45 c-3 -6 -11
-11 -17 -11 -6 0 -6 6 2 15 14 17 26 13 15 -4z m-230 -51 c3 -5 1 -10 -4 -10
-6 0 -11 5 -11 10 0 6 2 10 4 10 3 0 8 -4 11 -10z"/>
<path d="M1530 1725 c0 -19 5 -35 10 -35 6 0 10 -5 10 -11 0 -8 -4 -8 -12 -1
-23 18 -62 19 -66 0 -2 -11 9 -22 35 -35 21 -9 54 -34 73 -53 66 -68 103 -90
152 -90 51 0 64 14 42 45 -8 10 -11 28 -8 38 8 24 -11 37 -54 37 -65 0 -152
74 -152 129 0 6 -7 11 -15 11 -10 0 -15 -11 -15 -35z m140 -148 c0 -13 -43 4
-57 22 -22 29 -14 32 22 9 19 -13 35 -27 35 -31z"/>
<path d="M2468 1660 c-21 -21 -37 -28 -47 -23 -9 4 -36 7 -61 7 -37 1 -46 -3
-56 -23 -7 -12 -34 -36 -62 -52 -27 -15 -58 -39 -69 -51 -10 -13 -27 -28 -37
-33 -18 -10 -27 -23 -101 -153 -20 -35 -38 -62 -40 -60 -2 2 0 29 4 61 5 40
17 71 40 102 l32 45 -26 0 c-21 0 -29 -9 -50 -54 -14 -30 -25 -58 -25 -62 0
-4 -6 -12 -14 -18 -11 -8 -16 -46 -21 -136 -4 -69 -11 -127 -16 -130 -9 -6 -6
-56 4 -67 4 -3 7 -14 7 -23 0 -28 80 -264 99 -290 10 -14 26 -41 36 -60 10
-19 40 -56 66 -82 31 -30 49 -56 49 -71 0 -39 170 -197 212 -197 18 0 6 41
-14 50 -43 17 -69 45 -62 64 4 11 14 16 25 13 11 -3 21 -2 24 2 5 9 -49 51
-66 51 -19 0 -50 42 -44 61 4 12 -1 19 -15 24 -11 3 -20 12 -20 20 0 7 -7 26
-15 41 -17 32 -22 70 -6 45 5 -8 16 -11 25 -8 20 8 21 37 1 37 -19 0 -20 16
-1 23 7 3 28 -10 45 -29 18 -19 36 -34 41 -34 13 0 20 30 14 57 -6 22 -4 24
17 21 20 -2 24 -8 22 -33 -1 -18 -12 -38 -28 -50 -24 -20 -35 -65 -15 -65 5 0
16 -16 25 -35 9 -19 23 -39 31 -46 8 -6 14 -16 14 -21 0 -5 11 -21 25 -35 23
-25 25 -26 31 -7 5 10 20 32 36 47 33 34 61 88 61 122 0 14 4 25 9 25 23 0 48
-23 48 -45 0 -13 5 -25 11 -27 7 -2 1 -22 -15 -51 -15 -26 -24 -52 -21 -57 3
-5 -1 -12 -8 -17 -8 -4 -17 -18 -21 -30 -5 -17 -1 -25 16 -34 13 -6 31 -20 41
-30 10 -11 26 -19 37 -19 25 0 34 -16 14 -24 -44 -17 -209 25 -217 55 -6 21
-32 26 -43 8 -11 -19 46 -67 95 -79 187 -45 280 -39 426 25 17 8 46 19 65 26
19 7 74 52 123 100 68 68 94 103 119 156 62 137 77 220 34 184 -13 -11 -51
-27 -156 -66 -27 -10 -38 -10 -55 -1 -11 7 -48 21 -82 32 -46 14 -65 25 -73
44 -8 17 -8 26 -1 28 21 7 10 31 -28 62 -55 43 -79 85 -92 166 -11 69 -11 69
23 133 37 71 101 121 161 126 20 1 33 8 35 19 2 9 12 16 22 16 21 0 50 36 50
62 0 47 -64 113 -130 133 -14 4 -41 18 -60 31 -19 12 -48 26 -65 30 -16 4 -35
11 -42 16 -6 5 -46 27 -89 48 -102 52 -159 55 -206 10z m238 -93 c-4 -15 0
-18 14 -14 12 3 17 0 13 -9 -2 -7 -17 -14 -31 -16 -20 -2 -28 -10 -30 -27 -2
-13 1 -28 7 -34 8 -8 11 -6 11 6 0 12 8 16 28 15 15 -1 32 -6 39 -10 6 -5 14
-5 18 2 3 5 15 10 26 10 15 0 19 -5 15 -17 -2 -10 -8 -42 -11 -70 -4 -29 -11
-53 -16 -53 -5 0 -9 -10 -9 -21 0 -18 4 -21 29 -16 25 5 28 3 24 -13 -3 -10
-13 -27 -22 -37 -9 -10 -28 -37 -40 -60 -23 -41 -55 -61 -67 -41 -3 5 -1 15 5
21 16 16 13 47 -5 47 -11 0 -14 8 -12 33 3 28 7 33 37 37 45 7 50 24 11 40
-16 7 -30 16 -30 21 0 12 17 11 25 -1 9 -14 45 -12 45 3 0 13 -20 47 -20 34 0
-13 -115 55 -116 69 -2 21 -17 44 -29 44 -8 0 -17 5 -20 11 -9 13 26 47 43 41
19 -6 42 17 35 35 -5 13 -3 13 16 1 14 -8 20 -20 17 -31z m-226 -28 c0 -5 -18
-9 -40 -9 -37 0 -55 13 -28 22 18 6 68 -3 68 -13z m52 -21 c12 -25 -4 -22 -20
2 -7 12 -9 26 -6 32 6 9 9 8 12 -2 3 -8 9 -23 14 -32z m-192 -13 c0 -8 -9 -23
-20 -32 -24 -21 -26 -41 -5 -49 10 -4 13 -13 10 -25 -5 -16 -1 -19 24 -19 27
0 30 -3 28 -29 -1 -22 -8 -31 -24 -34 -23 -4 -48 14 -36 26 3 4 0 14 -8 23 -8
9 -12 27 -11 40 2 16 -4 27 -22 36 -21 11 -23 15 -12 30 10 14 62 48 74 48 1
0 2 -7 2 -15z m40 -56 c0 -6 -4 -7 -10 -4 -5 3 -10 11 -10 16 0 6 5 7 10 4 6
-3 10 -11 10 -16z m612 4 c8 -10 19 -30 26 -45 10 -25 10 -28 -8 -28 -11 0
-46 -18 -77 -40 -32 -22 -61 -40 -65 -40 -4 0 5 20 20 45 15 25 34 45 44 45 9
0 20 5 23 11 4 6 13 8 21 5 26 -10 27 23 3 44 -13 10 -19 19 -13 20 6 0 17 -8
26 -17z m-458 -44 c2 -44 31 -62 54 -33 10 11 23 19 29 17 7 -3 21 1 32 7 18
9 21 8 21 -10 0 -12 -5 -30 -10 -41 -9 -16 -7 -19 10 -19 27 0 21 -25 -6 -26
-59 -3 -70 -14 -53 -53 8 -17 20 -31 26 -31 16 0 16 -15 2 -42 -12 -21 -107
-68 -140 -68 -11 0 -22 -6 -25 -14 -3 -8 -20 -13 -45 -12 -43 1 -51 11 -18 21
16 5 20 13 16 31 -5 26 7 33 17 9 7 -20 36 -19 36 0 0 17 -20 57 -34 66 -5 4
1 17 13 30 11 12 22 20 22 16 1 -4 3 -11 4 -17 1 -5 3 -12 4 -15 0 -3 9 -1 20
4 10 6 21 26 24 47 5 30 2 40 -13 51 -23 16 -24 29 -8 83 14 45 20 44 22 -1z
m329 -10 c13 -9 0 -42 -13 -34 -5 3 -10 21 -9 38 0 18 3 25 6 17 3 -8 10 -18
16 -21z m-593 -69 c0 -5 -8 -22 -17 -39 -15 -26 -26 -31 -71 -37 -29 -3 -55
-4 -58 -1 -12 12 18 47 41 47 13 0 32 10 42 23 12 16 24 22 40 19 13 -2 23 -8
23 -12z m120 -46 c0 -13 -14 -33 -20 -29 -5 3 -20 1 -34 -5 -26 -10 -31 -4
-20 24 4 10 18 15 40 14 19 -1 34 -2 34 -4z m266 -31 c-10 -10 -19 5 -10 18 6
11 8 11 12 0 2 -7 1 -15 -2 -18z m-416 -33 c0 -18 -49 -42 -75 -38 -30 6 -42
-7 -25 -27 16 -20 36 -18 85 5 22 10 42 16 45 14 7 -7 -43 -43 -52 -38 -15 9
-18 -17 -4 -32 23 -23 20 -38 -13 -57 -29 -17 -29 -18 -14 -47 8 -17 16 -55
18 -86 2 -30 8 -60 13 -67 6 -7 12 -25 14 -42 3 -26 0 -30 -25 -33 -24 -3 -30
2 -43 35 -8 21 -21 52 -28 68 -16 35 -49 116 -66 163 -7 18 -19 32 -29 32 -20
0 -73 82 -66 101 9 24 64 50 84 40 10 -6 33 -6 54 -1 21 4 39 4 43 -1 3 -5 19
-2 37 5 40 18 47 19 47 6z m427 -90 c-3 -12 0 -20 8 -20 7 0 16 -7 19 -16 10
-26 7 -55 -6 -53 -27 3 -36 -2 -42 -25 -8 -32 -30 -39 -52 -15 -13 15 -15 22
-6 31 9 9 12 7 12 -10 0 -25 12 -28 29 -8 8 10 8 16 -1 23 -23 18 -59 25 -72
14 -10 -8 -21 -7 -42 4 -29 15 -29 15 -4 15 14 0 40 9 58 20 18 11 41 20 52
20 11 0 24 9 30 20 6 11 13 20 17 20 3 0 3 -9 0 -20z m-287 -30 c0 -5 -7 -10
-16 -10 -8 0 -12 5 -9 10 3 6 10 10 16 10 5 0 9 -4 9 -10z m-57 -68 c24 -21
21 -33 -7 -26 -15 3 -34 -1 -50 -11 -26 -17 -26 -17 -26 12 0 53 38 64 83 25z
m-368 8 c3 -5 1 -10 -4 -10 -6 0 -11 5 -11 10 0 6 2 10 4 10 3 0 8 -4 11 -10z
m512 -6 c3 -9 1 -19 -5 -23 -13 -8 -32 -56 -32 -82 0 -14 7 -19 26 -19 23 0
25 -3 20 -26 -4 -15 -2 -32 5 -40 11 -13 9 -44 -6 -89 -4 -14 1 -29 14 -44 23
-26 20 -41 -9 -41 -10 0 -28 -12 -40 -27 -19 -24 -22 -25 -36 -11 -16 16 -10
68 7 68 15 0 32 52 30 90 -2 41 -22 100 -33 100 -5 0 -5 11 -2 26 7 27 -19 56
-43 47 -22 -9 -14 15 18 52 33 38 75 47 86 19z m-414 -41 c9 -21 35 -83 58
-138 36 -88 42 -111 44 -187 3 -92 -5 -103 -36 -50 -9 15 -32 53 -52 86 -31
50 -107 252 -107 281 0 9 54 42 71 44 4 1 14 -16 22 -36z m642 18 c3 -5 1 -12
-5 -16 -5 -3 -10 1 -10 9 0 18 6 21 15 7z m-15 -68 c17 -15 20 -30 20 -93 l0
-76 -40 -22 -41 -21 -10 26 c-15 39 -7 58 24 61 15 2 25 8 22 13 -4 5 1 12 9
15 9 3 16 14 16 24 0 14 -9 20 -32 22 -38 4 -51 34 -22 55 23 17 30 16 54 -4z
m137 -88 c-1 -1 -18 0 -39 2 -34 5 -35 6 -20 22 16 17 18 17 39 -2 13 -11 22
-21 20 -22z m-467 5 c0 -5 -4 -10 -10 -10 -5 0 -10 -7 -10 -16 0 -12 6 -15 25
-10 18 5 27 2 31 -9 4 -8 12 -15 20 -15 15 0 17 -10 8 -34 -9 -24 -73 -10
-101 22 -25 27 -30 67 -10 75 21 9 47 7 47 -3z m383 -25 c-3 -9 -8 -14 -10
-11 -3 3 -2 9 2 15 9 16 15 13 8 -4z m76 -24 c11 -7 11 -13 0 -32 -7 -13 -11
-26 -8 -29 2 -3 -10 -11 -26 -19 -17 -8 -31 -18 -33 -23 -4 -8 -52 -12 -52 -3
0 3 17 30 37 60 36 54 54 64 82 46z m22 -104 c-8 -8 -11 -7 -11 4 0 20 13 34
18 19 3 -7 -1 -17 -7 -23z m130 -8 c41 -12 78 -25 84 -30 16 -15 43 -10 117
21 39 17 73 28 76 25 11 -11 -45 -129 -80 -168 -21 -23 -38 -37 -38 -31 0 6 9
19 20 29 21 19 27 69 10 95 -13 20 -44 2 -48 -29 -3 -21 -22 -30 -22 -11 0 6
-16 10 -35 10 -19 0 -35 5 -35 10 0 6 7 10 15 10 9 0 12 6 8 16 -3 9 -15 14
-32 12 -15 -2 -33 4 -44 15 -12 12 -29 17 -49 15 -42 -4 -50 -28 -10 -28 36 0
63 -26 35 -33 -12 -3 -9 -5 9 -6 15 0 33 -8 42 -16 8 -8 21 -15 28 -15 7 -1
24 -7 38 -15 l25 -15 -27 6 c-22 5 -28 2 -28 -10 0 -23 46 -32 65 -12 9 9 19
16 23 16 3 0 1 -5 -6 -12 -7 -7 -12 -20 -12 -29 0 -17 -55 -49 -83 -49 -8 0
-20 7 -28 16 -14 17 -62 44 -79 44 -5 0 -10 -7 -10 -15 0 -8 4 -15 10 -15 5 0
28 -16 50 -36 49 -45 54 -84 14 -103 -32 -14 -44 -7 -15 9 28 14 27 30 -1 30
-24 -1 -93 -50 -70 -50 6 0 12 -4 12 -9 0 -14 -73 -40 -127 -44 -26 -3 -40 -3
-31 0 21 5 78 69 78 88 0 21 -11 45 -21 45 -5 0 -9 -12 -9 -26 0 -29 -31 -61
-67 -70 -34 -9 -40 3 -15 29 12 13 22 28 22 34 0 6 9 17 20 24 22 15 29 59 16
98 -6 16 -5 21 3 17 6 -4 11 -15 11 -25 0 -9 6 -25 13 -35 11 -15 17 -17 35
-7 13 7 22 21 22 35 0 19 4 23 20 19 31 -8 24 14 -21 60 -25 26 -35 43 -27 45
14 3 42 50 53 91 5 15 10 19 14 12 4 -6 41 -21 82 -32z m-321 -15 c0 -19 -16
-18 -24 2 -11 27 -7 37 9 24 8 -7 15 -19 15 -26z m114 -20 c9 -3 16 -12 16
-20 0 -17 -40 -45 -53 -37 -5 3 -2 10 7 15 11 6 15 16 11 29 -7 21 -5 22 19
13z m-254 -52 c0 -4 -9 -8 -20 -9 -11 -1 -20 2 -20 8 0 5 9 9 20 9 11 0 20 -4
20 -8z m220 -72 c0 -5 -2 -10 -4 -10 -3 0 -8 5 -11 10 -3 6 -1 10 4 10 6 0 11
-4 11 -10z m-87 -59 c-3 -13 2 -21 16 -26 12 -4 18 -12 14 -20 -3 -8 2 -18 11
-21 20 -8 21 -24 1 -24 -8 0 -15 -9 -15 -19 0 -11 -4 -23 -10 -26 -5 -3 -10 1
-10 9 0 9 -6 16 -13 16 -7 0 -20 8 -29 19 -14 17 -14 20 5 36 14 13 17 19 7
25 -9 6 -8 13 6 29 22 26 23 26 17 2z m-362 -47 c22 -25 22 -26 3 -16 -12 6
-24 18 -28 27 -8 21 -3 19 25 -11z m769 -8 c0 -3 -4 -8 -10 -11 -5 -3 -10 -1
-10 4 0 6 5 11 10 11 6 0 10 -2 10 -4z"/>
<path d="M2505 1201 c-7 -12 12 -24 25 -16 11 7 4 25 -10 25 -5 0 -11 -4 -15
-9z"/>
<path d="M2094 1131 c6 -52 12 -61 42 -61 28 0 32 21 8 41 -9 7 -20 23 -25 36
-14 38 -30 27 -25 -16z"/>
<path d="M2615 1090 c-3 -5 -1 -10 4 -10 6 0 11 5 11 10 0 6 -2 10 -4 10 -3 0
-8 -4 -11 -10z"/>
<path d="M3070 1381 c0 -5 21 -35 46 -67 25 -33 59 -86 76 -119 16 -33 35 -67
43 -75 23 -27 58 -104 62 -137 l3 -32 -32 29 c-18 17 -38 30 -44 30 -7 0 -20
3 -30 7 -12 4 -15 3 -10 -6 4 -6 0 -24 -10 -38 -12 -19 -17 -49 -18 -101 -1
-58 -5 -77 -19 -87 -20 -14 -23 -35 -5 -35 11 0 65 23 128 53 39 19 60 72 60
153 0 78 -13 119 -63 194 -18 27 -47 75 -66 108 -42 75 -88 132 -107 132 -8 0
-14 -4 -14 -9z m174 -482 c4 -26 10 -37 17 -33 7 4 10 1 7 -7 -5 -14 -34 -31
-78 -44 -21 -7 -23 -6 -13 7 7 8 10 28 7 50 -4 23 0 46 11 68 16 31 19 32 30
17 7 -10 15 -36 19 -58z"/>
<path d="M3424 1265 c-4 -8 -2 -36 4 -63 l10 -47 1 63 c1 61 -4 77 -15 47z"/>
<path d="M1340 1141 c-25 -4 -34 -11 -32 -23 1 -9 -6 -19 -18 -23 -45 -14 -88
-158 -71 -235 5 -24 13 -46 18 -49 4 -3 15 -19 23 -35 12 -23 27 -32 68 -42
29 -8 66 -21 82 -29 67 -35 110 -13 110 56 0 18 6 40 13 48 23 26 42 111 28
120 -9 6 -8 11 4 21 45 38 -10 139 -98 178 -50 22 -66 24 -127 13z m92 -92 c9
-10 22 -19 29 -19 8 0 6 -5 -5 -13 -22 -16 -31 -73 -15 -93 8 -10 8 -14 0 -14
-6 0 -16 -11 -21 -24 -8 -21 -13 -23 -42 -16 -56 13 -66 20 -72 52 -11 53 -7
76 17 95 12 10 23 25 25 33 8 35 53 34 84 -1z m73 11 c3 -5 1 -10 -4 -10 -6 0
-11 5 -11 10 0 6 2 10 4 10 3 0 8 -4 11 -10z m-220 -50 c-3 -5 -11 -10 -16
-10 -6 0 -7 5 -4 10 3 6 11 10 16 10 6 0 7 -4 4 -10z m250 -122 c-4 -18 -14
-40 -22 -48 -14 -13 -15 -13 -8 5 4 11 8 27 9 35 2 18 15 40 22 40 3 0 3 -15
-1 -32z m-54 -5 c-12 -20 -14 -14 -5 12 4 9 9 14 11 11 3 -2 0 -13 -6 -23z
m-21 -63 c0 -5 -4 -10 -10 -10 -5 0 -10 5 -10 10 0 6 5 10 10 10 6 0 10 -4 10
-10z m-20 -42 c0 -18 -2 -20 -9 -8 -6 8 -7 18 -5 22 9 14 14 9 14 -14z m-40
-13 c0 -8 -4 -15 -10 -15 -5 0 -10 7 -10 15 0 8 5 15 10 15 6 0 10 -7 10 -15z"/>
<path d="M2910 976 c0 -9 -4 -16 -10 -16 -20 0 -9 -20 19 -34 18 -10 31 -26
34 -43 9 -46 39 -123 48 -123 21 0 18 27 -11 108 -17 48 -35 94 -39 102 -11
21 -41 25 -41 6z"/>
<path d="M1130 645 c-19 -20 -21 -27 -10 -40 7 -8 16 -30 19 -48 8 -36 15 -37
108 -14 47 12 48 13 51 53 3 35 -1 44 -24 59 -22 14 -34 16 -54 8 -14 -5 -36
-6 -47 -2 -16 6 -27 1 -43 -16z"/>
<path d="M2477 423 c-12 -12 -7 -36 11 -49 22 -17 42 -18 42 -1 0 17 -44 59
-53 50z"/>
<path d="M1210 175 c-7 -8 -30 -20 -51 -27 -22 -6 -39 -17 -39 -25 0 -16 5
-16 59 3 63 21 81 33 81 49 0 19 -34 19 -50 0z"/>
<path d="M3227 151 c-73 -8 -83 -21 -79 -94 5 -70 22 -76 22 -7 0 45 3 52 26
60 14 6 68 10 120 10 87 0 94 1 94 20 0 18 -6 20 -62 19 -35 -1 -89 -5 -121
-8z"/>
<path d="M2230 110 c-25 -4 -238 -11 -475 -14 -480 -7 -515 -10 -515 -33 0
-14 44 -15 467 -9 257 4 471 10 476 13 5 3 79 9 164 14 156 9 193 16 157 30
-24 10 -215 9 -274 -1z"/>
<path d="M831 101 c-8 -5 -20 -7 -27 -4 -6 2 -15 0 -19 -6 -3 -6 -19 -11 -36
-11 -18 0 -29 -5 -29 -14 0 -11 33 -15 163 -18 89 -3 187 -5 217 -5 30 0 65
-3 78 -8 22 -7 23 -5 20 21 -3 33 -2 33 -133 20 -64 -6 -78 -5 -67 5 6 7 12
17 12 21 0 11 -162 10 -179 -1z"/>
<path d="M0 81 c0 -18 14 -19 325 -23 238 -3 328 -7 337 -16 7 -7 15 -12 19
-12 12 0 17 51 5 55 -6 2 -163 6 -348 9 -328 6 -338 6 -338 -13z"/>
</g>
</svg>
