<?xml version="1.0" standalone="no"?>
<!DOCTYPE svg PUBLIC "-//W3C//DTD SVG 20010904//EN"
 "http://www.w3.org/TR/2001/REC-SVG-20010904/DTD/svg10.dtd">
<svg version="1.0" xmlns="http://www.w3.org/2000/svg"
 width="256.000000pt" height="344.000000pt" viewBox="0 0 256.000000 344.000000"
 preserveAspectRatio="xMidYMid meet">
<metadata>
Created by potrace 1.16, written by Peter Selinger 2001-2019
</metadata>
<g transform="translate(0.000000,344.000000) scale(0.100000,-0.100000)"
fill="#000000" stroke="none">
<path d="M43 3428 c2 -7 14 -47 27 -88 12 -41 26 -82 30 -90 9 -20 50 -26 50
-7 0 26 -40 132 -54 142 -7 6 -16 20 -20 33 -4 12 -14 22 -23 22 -8 0 -13 -6
-10 -12z"/>
<path d="M580 3403 c0 -21 9 -78 19 -128 11 -49 25 -117 31 -150 20 -108 21
-108 193 -166 20 -7 37 -18 37 -25 0 -13 -38 -1 -138 42 -44 19 -62 18 -62 -4
0 -38 -34 -85 -137 -190 -58 -59 -113 -116 -122 -127 -9 -11 -26 -25 -36 -31
-26 -14 -33 -54 -10 -54 9 0 14 -4 11 -9 -4 -5 -16 -4 -30 2 -18 8 -26 23 -31
52 -6 39 -50 204 -79 295 -8 25 -29 98 -47 163 -32 115 -51 159 -64 145 -3 -3
12 -71 35 -150 96 -332 119 -415 125 -448 l6 -35 -53 2 c-217 10 -229 9 -226
-12 3 -19 13 -20 143 -26 77 -3 148 -9 158 -13 19 -9 23 -26 6 -26 -6 0 -9 -6
-6 -14 3 -8 1 -16 -5 -18 -19 -7 0 -38 22 -38 11 0 34 10 51 22 22 17 29 29
28 53 -1 16 2 38 6 48 5 12 2 17 -10 17 -13 0 -7 10 21 38 22 21 41 34 42 30
8 -17 22 -7 29 21 4 17 40 62 78 102 60 62 70 69 73 51 3 -18 10 -22 38 -22
19 0 34 -2 34 -4 0 -2 -12 -25 -26 -51 l-27 -47 24 7 c22 6 22 6 7 -6 -10 -8
-29 -30 -43 -49 -14 -19 -36 -37 -48 -40 -26 -7 -72 -71 -57 -80 14 -9 -48
-80 -64 -74 -8 3 -20 -4 -28 -15 -19 -27 -30 -28 -183 -13 -236 22 -265 22
-265 2 0 -20 68 -30 202 -30 44 0 89 -5 101 -11 11 -7 47 -12 79 -13 l57 -1
-32 -35 c-18 -19 -35 -36 -39 -38 -12 -5 -169 -219 -224 -302 -26 -41 -70
-103 -97 -137 -32 -42 -47 -70 -45 -85 3 -20 11 -12 62 50 32 41 77 104 100
141 38 61 93 139 107 151 3 3 20 26 37 52 18 26 68 86 112 133 44 48 80 91 80
96 0 9 70 100 180 234 28 33 67 89 87 123 42 72 66 88 143 98 l53 7 -6 -39
c-4 -21 -9 -53 -13 -71 -5 -25 -3 -32 12 -35 17 -3 16 -6 -8 -28 -51 -44 -37
-64 114 -163 26 -18 28 -18 34 -2 8 19 -50 75 -98 96 -34 14 -35 23 -7 43 15
10 20 22 16 35 -3 11 1 25 9 32 8 6 28 35 45 65 43 75 92 114 135 107 33 -6
34 -5 34 30 0 42 -34 140 -55 157 -8 7 -15 28 -15 46 0 27 4 34 20 34 21 0 78
54 99 94 8 13 11 32 7 42 -6 15 -9 15 -31 -6 -14 -13 -25 -28 -25 -34 0 -17
-81 -86 -85 -73 -8 21 0 211 9 230 6 13 4 17 -12 17 -16 0 -21 -9 -26 -54 -9
-70 -6 -154 10 -245 7 -45 9 -83 4 -97 -5 -12 -33 -42 -63 -66 -31 -23 -61
-53 -68 -65 -9 -17 -21 -23 -43 -22 -46 1 -61 11 -63 42 -3 38 -15 52 -62 66
-40 11 -58 27 -47 38 3 4 14 -1 24 -10 10 -10 22 -17 26 -17 5 0 6 97 5 215
-4 185 -6 215 -19 215 -14 0 -15 -19 -13 -132 2 -73 4 -154 6 -181 1 -30 -2
-47 -10 -47 -11 0 -46 27 -107 83 -17 15 -33 27 -37 27 -7 0 -42 141 -54 213
-3 20 -10 37 -15 37 -6 0 -10 -17 -10 -37z m95 -263 c3 -5 1 -10 -4 -10 -6 0
-11 5 -11 10 0 6 2 10 4 10 3 0 8 -4 11 -10z m64 -96 c14 -13 22 -26 19 -29
-8 -8 -88 44 -88 57 0 15 43 -2 69 -28z m443 -47 c3 -29 -1 -36 -45 -67 -26
-19 -71 -66 -98 -104 -56 -76 -76 -77 -52 -3 12 38 31 62 89 114 41 36 76 74
80 85 8 26 21 14 26 -25z m-402 -98 c0 -5 -4 -9 -10 -9 -5 0 -10 7 -10 16 0 8
5 12 10 9 6 -3 10 -10 10 -16z m-65 -4 c18 -6 19 -7 3 -16 -20 -11 -62 6 -53
21 6 9 10 9 50 -5z m105 -20 c-14 -17 -30 -20 -30 -6 0 5 8 12 18 14 9 3 19 5
21 6 2 0 -2 -6 -9 -14z m-75 -94 c-15 -28 -29 -51 -31 -51 -9 0 10 57 29 83
30 44 31 25 2 -32z"/>
<path d="M962 3413 c0 -16 -4 -53 -10 -83 -6 -30 -8 -68 -5 -83 10 -53 132
-109 141 -65 2 13 -7 20 -40 28 -26 7 -51 22 -62 37 -17 24 -18 32 -8 83 16
77 15 110 -3 110 -9 0 -14 -10 -13 -27z"/>
<path d="M1183 3403 c-26 -48 -41 -127 -23 -121 7 2 19 23 25 46 7 23 22 57
34 77 19 32 19 35 3 35 -11 0 -27 -16 -39 -37z"/>
<path d="M1036 3345 c-8 -9 -13 -21 -10 -29 3 -7 -2 -19 -11 -26 -19 -15 -20
-50 -2 -50 18 0 47 32 47 52 0 9 7 19 15 22 13 4 14 10 5 26 -13 24 -23 25
-44 5z"/>
<path d="M1315 3228 c-31 -16 -115 -101 -115 -115 0 -25 30 -13 66 27 19 21
44 42 54 45 21 7 35 34 23 46 -4 4 -17 3 -28 -3z"/>
<path d="M1919 2400 c-18 -21 -36 -30 -56 -30 -75 0 -109 -77 -53 -118 16 -12
32 -22 35 -22 19 0 438 -359 518 -444 20 -22 42 -57 47 -78 14 -48 30 -49 97
-2 47 32 53 40 53 72 0 33 -1 34 -18 19 -10 -10 -29 -17 -43 -17 -33 0 -53
-15 -46 -34 4 -9 2 -16 -4 -16 -5 0 -14 11 -19 25 -10 25 -94 114 -176 185
-23 19 -70 61 -107 93 -114 101 -312 257 -324 257 -7 0 -13 4 -13 10 0 13 34
30 63 30 13 0 42 16 65 35 l41 36 38 -20 c35 -18 71 -46 254 -200 78 -64 161
-139 235 -207 l54 -51 -1 31 c0 24 -9 38 -42 64 -23 19 -62 52 -87 75 -64 60
-206 179 -313 264 -80 63 -97 73 -132 72 -32 0 -46 -6 -66 -29z"/>
<path d="M2016 2283 c-12 -12 -6 -33 9 -33 8 0 15 6 15 14 0 17 -14 28 -24 19z"/>
<path d="M2059 2231 c-38 -42 7 -102 79 -107 48 -3 46 -2 33 -18 -12 -14 3
-76 19 -76 4 0 28 -16 53 -35 53 -41 57 -42 57 -15 0 11 -18 33 -45 52 -29 22
-45 41 -46 58 -1 14 -3 34 -4 45 -2 23 -11 50 -30 85 -18 33 -91 39 -116 11z
m82 -21 c44 -24 5 -53 -45 -34 -21 8 -20 31 2 37 9 3 18 5 20 6 2 0 12 -4 23
-9z"/>
<path d="M2280 2106 c0 -16 13 -34 39 -55 41 -33 56 -37 66 -20 4 6 -12 27
-36 47 -62 54 -69 57 -69 28z"/>
<path d="M680 1921 c-24 -58 3 -117 68 -151 21 -10 23 -17 17 -48 -3 -21 -9
-78 -11 -129 -6 -85 -4 -92 15 -102 15 -9 21 -21 21 -47 0 -50 15 -72 58 -85
56 -16 70 -30 73 -76 3 -35 -1 -44 -29 -68 -21 -18 -56 -32 -103 -42 -80 -16
-234 -68 -264 -89 -11 -8 -35 -14 -55 -14 -60 0 -107 -19 -140 -56 l-31 -36
-22 19 c-22 20 -80 55 -201 122 -33 19 -64 39 -68 45 -4 6 -8 -3 -8 -21 0 -30
5 -35 88 -77 48 -25 118 -66 156 -91 38 -25 72 -45 75 -45 4 0 12 13 18 30 15
39 68 70 119 70 35 0 113 27 176 60 9 5 58 18 110 30 51 12 103 25 116 31 40
16 102 71 102 90 0 10 5 21 10 24 5 3 10 42 10 86 0 122 13 160 78 224 48 48
56 61 58 97 2 34 8 47 36 69 18 16 44 29 58 31 27 3 42 38 16 38 -64 0 -146
-77 -146 -136 0 -18 -16 -45 -45 -78 -25 -28 -53 -59 -61 -69 -9 -11 -14 -30
-11 -42 2 -15 -1 -26 -11 -30 -11 -4 -13 -16 -9 -50 7 -48 2 -53 -29 -30 -10
8 -36 19 -56 25 -36 10 -38 13 -38 53 0 59 18 117 38 124 9 3 24 12 33 20 9 8
23 13 30 11 8 -2 15 7 17 22 2 14 8 29 13 35 5 5 9 17 9 27 0 18 -1 18 -25 1
-13 -10 -27 -26 -30 -35 -3 -9 -24 -25 -46 -35 -31 -13 -42 -25 -51 -55 -11
-37 -21 -47 -32 -29 -5 8 5 101 20 182 6 33 3 40 -45 87 -28 28 -51 58 -51 66
0 54 39 59 142 20 71 -27 70 -27 225 -8 82 9 233 -49 233 -90 0 -6 -25 -24
-55 -41 -52 -28 -72 -55 -41 -55 8 0 40 14 72 31 50 26 66 30 104 24 25 -4 68
-18 95 -32 43 -22 66 -26 160 -28 255 -6 410 -33 584 -101 62 -24 82 -38 126
-89 67 -77 161 -216 191 -280 l23 -50 0 38 c1 21 -5 50 -13 65 -51 97 -204
301 -241 320 -123 64 -256 101 -390 109 -55 2 -119 12 -143 20 -32 12 -66 14
-140 10 -92 -5 -99 -4 -135 21 -28 19 -56 27 -105 31 -56 5 -67 9 -70 26 -7
37 -44 64 -124 89 -80 26 -172 34 -183 16 -10 -16 -109 -12 -146 7 -19 10 -65
19 -105 21 l-71 4 -13 -31z"/>
<path d="M840 1853 c0 -5 10 -27 22 -50 17 -31 29 -43 45 -43 33 0 29 25 -12
65 -32 33 -55 44 -55 28z"/>
<path d="M820 1715 c0 -50 15 -59 31 -19 11 32 3 64 -17 64 -10 0 -14 -13 -14
-45z"/>
<path d="M1177 1626 c-90 -81 -116 -116 -84 -116 6 0 53 38 102 84 68 63 87
87 79 96 -9 9 -32 -7 -97 -64z"/>
<path d="M911 1561 c-6 -11 -20 -23 -31 -26 -21 -7 -28 -45 -8 -45 16 0 68 51
68 66 0 22 -19 25 -29 5z"/>
<path d="M1330 1476 c0 -14 -4 -28 -10 -31 -13 -8 -13 -85 0 -85 5 0 12 17 15
38 3 20 10 45 16 54 14 26 11 48 -6 48 -9 0 -15 -9 -15 -24z"/>
<path d="M1668 1481 c-18 -14 -24 -27 -21 -43 3 -15 -3 -30 -16 -42 -12 -11
-21 -26 -21 -33 0 -16 -50 -160 -71 -206 -9 -20 -9 -31 -2 -38 13 -13 32 19
58 101 9 30 24 65 32 78 7 12 11 26 9 31 -3 5 6 25 19 45 57 84 65 147 13 107z"/>
<path d="M1441 1359 c-23 -38 -29 -113 -8 -107 6 3 13 19 15 38 2 18 11 44 19
57 12 17 13 27 5 35 -8 8 -17 1 -31 -23z"/>
<path d="M1330 1335 c-7 -8 -21 -15 -31 -15 -14 0 -18 -7 -17 -33 1 -40 -50
-139 -71 -135 -14 3 -25 19 -35 51 -7 23 -26 12 -26 -15 0 -19 -1 -20 -18 -5
-9 8 -29 20 -45 26 -28 11 -35 25 -17 36 13 8 13 45 -1 45 -10 0 -69 -54 -69
-63 0 -3 28 -24 62 -47 47 -31 63 -38 70 -28 6 10 14 6 29 -14 36 -48 82 -33
114 37 10 22 34 64 52 93 32 52 41 82 24 82 -5 0 -14 -7 -21 -15z"/>
<path d="M2180 1264 c1 -21 21 -38 76 -60 54 -22 85 -20 71 3 -14 23 -147 74
-147 57z"/>
<path d="M1460 1151 c0 -10 -3 -33 -6 -50 -5 -24 -3 -31 10 -31 13 0 16 11 16
50 0 28 -4 50 -10 50 -5 0 -10 -8 -10 -19z"/>
<path d="M952 1139 c2 -8 19 -22 37 -31 18 -9 47 -30 63 -47 29 -30 48 -33 48
-7 0 25 -76 87 -115 93 -30 5 -37 3 -33 -8z"/>
<path d="M1737 1069 c-9 -6 -26 -8 -36 -4 -26 8 -131 -40 -131 -59 0 -21 18
-20 65 4 24 13 51 19 66 16 34 -6 103 18 107 38 4 19 -42 22 -71 5z"/>
<path d="M1270 1023 c-8 -3 -22 -11 -30 -18 -8 -7 -40 -15 -70 -19 -85 -11
-185 -43 -262 -86 -10 -6 -25 -10 -34 -10 -9 0 -38 -13 -63 -29 -26 -15 -57
-32 -69 -35 -13 -4 -33 -17 -46 -29 -36 -34 -65 -57 -75 -57 -4 0 -16 9 -25
19 -17 18 -17 20 1 29 15 9 15 11 3 15 -48 16 -71 17 -76 3 -8 -21 11 -45 83
-104 56 -47 63 -50 77 -36 9 8 16 20 16 25 0 5 27 9 59 9 51 0 66 -5 111 -35
29 -19 60 -35 70 -35 10 0 39 -9 65 -20 63 -27 122 -26 165 4 19 12 52 28 72
35 20 7 42 19 49 27 7 9 35 27 63 41 28 14 68 40 89 57 37 29 39 33 34 75 -3
25 -11 50 -19 55 -10 8 -14 27 -13 59 2 43 -1 50 -22 58 -26 10 -128 11 -153
2z m124 -83 c0 -25 -4 -67 -7 -93 -6 -40 -4 -47 11 -47 10 -1 4 -8 -18 -20
-19 -11 -53 -33 -75 -50 -22 -16 -56 -37 -75 -45 -19 -8 -52 -24 -72 -35 -46
-25 -91 -25 -144 -1 -23 10 -54 22 -70 25 -17 4 -50 20 -74 36 -30 20 -58 30
-85 31 -22 0 -49 4 -60 8 -18 7 -18 9 6 24 13 9 36 18 49 19 13 2 35 15 49 31
17 17 47 33 84 42 32 8 68 21 80 29 23 16 68 28 177 51 36 7 83 20 105 29 22
9 58 15 80 13 l40 -2 -1 -45z m56 -110 c0 -5 -5 -10 -11 -10 -5 0 -7 5 -4 10
3 6 8 10 11 10 2 0 4 -4 4 -10z m-770 -114 c0 -3 -4 -8 -10 -11 -5 -3 -10 -1
-10 4 0 6 5 11 10 11 6 0 10 -2 10 -4z"/>
<path d="M922 983 c5 -25 28 -28 28 -4 0 12 -6 21 -16 21 -9 0 -14 -7 -12 -17z"/>
<path d="M645 956 c-11 -7 -33 -16 -48 -20 -26 -6 -155 -63 -167 -73 -2 -2 1
-8 8 -12 28 -17 252 80 252 109 0 14 -22 12 -45 -4z"/>
<path d="M2300 901 c0 -25 16 -44 51 -61 47 -25 49 -25 49 -1 0 13 -16 28 -46
45 -52 29 -54 30 -54 17z"/>
<path d="M2111 746 c-24 -29 47 -69 75 -42 14 15 14 16 -2 16 -10 0 -27 9 -39
20 -19 18 -24 19 -34 6z"/>
<path d="M1495 699 c-11 -19 -14 -41 -10 -60 9 -41 30 -31 32 15 1 21 7 44 13
50 10 13 4 26 -11 26 -5 0 -16 -14 -24 -31z"/>
<path d="M1740 653 c0 -9 18 -33 40 -54 26 -25 43 -51 48 -76 5 -25 14 -39 26
-41 16 -3 18 0 12 19 -4 13 -11 36 -14 50 -8 31 -81 119 -99 119 -7 0 -13 -7
-13 -17z"/>
<path d="M1390 630 c-8 -4 -27 -13 -42 -20 -15 -7 -32 -27 -38 -44 -31 -81
-45 -99 -92 -120 -27 -11 -48 -24 -48 -28 0 -17 31 -20 63 -7 48 18 66 38 79
83 6 23 24 56 40 74 l28 33 11 -28 c8 -22 12 -24 19 -13 12 18 13 67 3 73 -5
3 -15 1 -23 -3z"/>
<path d="M1437 564 c-10 -10 4 -56 25 -83 10 -13 18 -31 18 -40 0 -28 27 -58
40 -45 8 8 1 33 -27 92 -36 80 -43 89 -56 76z"/>
<path d="M1946 514 c-12 -31 -7 -55 11 -52 9 2 22 -7 28 -18 6 -12 17 -29 24
-37 39 -48 -77 -79 -245 -66 -108 9 -108 9 -129 -16 -23 -30 -95 -47 -95 -24
0 19 -124 18 -165 -1 -18 -9 -63 -15 -112 -15 -75 0 -84 2 -98 22 -9 13 -22
23 -28 23 -7 1 -34 16 -62 35 -33 23 -53 31 -60 24 -10 -10 135 -156 188 -187
33 -20 34 -26 3 -40 -20 -9 -86 -106 -86 -126 0 -3 8 -6 19 -6 11 0 23 12 31
29 6 16 25 41 41 57 16 15 29 34 29 41 0 8 13 13 38 13 43 0 72 23 72 57 0 29
17 40 73 48 37 6 52 4 66 -9 23 -21 140 -16 196 8 27 12 74 19 149 22 74 3
116 9 132 19 12 8 47 23 76 33 41 14 54 23 56 41 3 21 1 22 -26 16 -22 -4 -31
-2 -36 10 -9 25 -70 115 -77 115 -4 0 -10 -7 -13 -16z m-626 -283 c0 -12 -48
-23 -71 -16 -32 10 -21 20 26 23 25 1 45 -2 45 -7z"/>
<path d="M2180 445 c0 -28 4 -35 19 -35 10 0 25 7 32 16 11 14 9 19 -11 35
-35 26 -40 24 -40 -16z"/>
<path d="M1040 430 c0 -5 9 -10 20 -10 11 0 20 5 20 10 0 6 -9 10 -20 10 -11
0 -20 -4 -20 -10z"/>
<path d="M385 272 c-11 -2 -51 -21 -90 -42 -38 -21 -88 -43 -110 -50 -64 -18
-175 -74 -175 -87 0 -20 41 -15 80 8 19 12 57 28 85 36 27 8 89 35 137 60 64
33 95 44 117 41 19 -3 32 0 35 8 8 22 -33 35 -79 26z"/>
<path d="M1876 178 c-13 -29 -26 -61 -29 -70 -4 -10 -19 -18 -39 -20 -50 -5
-45 -33 6 -33 24 0 42 6 47 15 21 38 59 132 59 145 0 32 -22 13 -44 -37z"/>
<path d="M1481 196 c-13 -15 -27 -106 -17 -106 8 0 46 87 46 106 0 18 -14 18
-29 0z"/>
</g>
</svg>
