<?xml version="1.0" standalone="no"?>
<!DOCTYPE svg PUBLIC "-//W3C//DTD SVG 20010904//EN"
 "http://www.w3.org/TR/2001/REC-SVG-20010904/DTD/svg10.dtd">
<svg version="1.0" xmlns="http://www.w3.org/2000/svg"
 width="344.000000pt" height="256.000000pt" viewBox="0 0 344.000000 256.000000"
 preserveAspectRatio="xMidYMid meet">
<metadata>
Created by potrace 1.16, written by Peter Selinger 2001-2019
</metadata>
<g transform="translate(0.000000,256.000000) scale(0.100000,-0.100000)"
fill="#000000" stroke="none">
<path d="M1099 2460 c0 -3 -2 -18 -4 -35 -3 -16 -6 -39 -7 -49 -2 -14 6 -23
25 -30 24 -9 31 -7 43 9 8 10 14 22 14 27 0 9 -70 85 -71 78z"/>
<path d="M1046 2285 c-14 -21 -16 -61 -16 -279 0 -140 4 -266 9 -279 9 -22 17
-26 68 -29 46 -4 64 -1 87 15 28 19 41 20 303 15 168 -4 279 -10 285 -16 7 -7
6 -20 -3 -41 -13 -29 -17 -31 -71 -31 -47 0 -60 4 -70 20 -7 11 -21 20 -30 20
-22 0 -23 -13 -3 -30 8 -7 15 -23 15 -35 0 -12 7 -42 15 -65 8 -23 13 -45 10
-49 -2 -4 3 -18 12 -30 14 -21 22 -23 79 -19 l64 4 0 -49 0 -48 -177 5 c-98 3
-299 8 -448 12 -148 3 -271 7 -273 8 -1 2 5 22 14 46 l17 42 191 -5 c361 -10
426 -8 426 13 0 17 -46 23 -147 22 -66 -1 -103 3 -103 9 0 6 5 9 12 7 19 -7
50 66 45 104 l-3 33 -19 -42 c-10 -24 -22 -43 -26 -43 -5 0 -18 14 -31 30 -12
17 -30 30 -40 30 -14 0 -18 -8 -18 -41 0 -39 0 -40 -22 -25 -15 11 -45 16 -85
16 -49 0 -63 3 -63 15 0 8 -11 22 -25 31 -15 9 -25 26 -25 39 0 14 -7 25 -20
28 -18 4 -20 14 -20 74 0 37 -5 85 -11 106 -9 35 -31 48 -44 27 -3 -5 -15 -10
-25 -10 -21 0 -27 -25 -29 -105 -2 -150 -31 -181 -146 -158 l-40 9 3 159 c3
183 1 179 88 189 30 3 71 13 90 21 19 8 34 10 34 4 0 -5 -7 -12 -15 -15 -18
-7 -20 -44 -2 -44 28 0 47 26 52 73 8 61 0 72 -32 47 -27 -21 -75 -37 -163
-52 -90 -15 -211 -21 -234 -10 -11 5 -41 15 -65 22 -54 14 -63 4 -47 -51 13
-43 40 -68 73 -69 12 0 25 -4 28 -10 8 -13 62 -13 71 1 9 15 -9 30 -47 38 -18
4 -35 13 -37 20 -4 11 0 12 14 5 11 -5 39 -9 64 -9 l45 0 2 -80 c0 -44 4 -122
7 -174 5 -78 4 -92 -7 -82 -22 17 -74 2 -94 -28 -43 -64 -149 -244 -194 -327
-49 -90 -61 -134 -36 -134 8 0 12 -24 13 -84 l0 -85 -84 -3 c-55 -2 -91 1
-102 9 -24 17 -30 7 -30 -54 0 -73 21 -93 97 -93 82 0 135 21 153 59 20 40 30
31 30 -26 0 -30 -4 -43 -14 -43 -8 0 -23 -14 -34 -31 l-20 -32 -93 2 c-52 1
-113 4 -136 7 -39 6 -43 4 -43 -14 0 -26 23 -30 175 -35 90 -2 112 0 122 13
10 13 12 13 16 0 6 -18 34 -180 46 -270 5 -36 19 -128 31 -205 12 -77 24 -164
27 -192 4 -36 10 -53 19 -53 18 0 18 32 0 123 -8 40 -17 101 -20 137 -3 36
-13 97 -21 135 -8 39 -15 125 -15 195 -1 68 -5 129 -10 135 -6 7 -6 24 -2 41
10 34 3 174 -8 174 -4 0 -20 18 -35 40 -25 35 -26 44 -20 97 l6 58 352 -5
c273 -4 357 -8 376 -19 21 -12 26 -11 36 3 7 9 22 16 34 16 12 0 21 6 21 15 0
10 -12 14 -42 15 -24 1 -200 3 -391 5 -192 3 -361 8 -376 12 l-28 8 56 100
c31 55 81 141 111 190 46 76 56 86 58 65 5 -39 29 -50 109 -50 84 0 129 17
143 55 11 30 35 32 50 5 8 -15 21 -20 55 -20 25 0 45 -4 45 -9 0 -5 -11 -34
-25 -65 -53 -120 -54 -120 279 -124 149 -2 351 -7 450 -10 196 -8 216 -4 216
46 1 21 4 17 18 -22 13 -35 26 -54 49 -66 17 -9 41 -28 54 -42 27 -29 112 -57
181 -59 l43 -1 -54 -8 c-30 -5 -60 -6 -66 -4 -15 6 -27 -20 -19 -40 5 -12 11
-13 32 -5 15 6 98 11 184 11 86 1 162 4 169 8 24 15 -4 30 -55 30 -87 0 -117
9 -114 34 3 19 -1 21 -52 18 -72 -4 -210 23 -231 45 -9 10 -20 41 -23 68 l-7
50 20 -32 c25 -39 53 -58 110 -73 42 -11 46 -10 63 12 19 24 21 82 3 121 -7
18 -1 19 118 15 l125 -3 15 30 c29 57 29 93 1 141 l-25 43 16 73 c9 40 19 83
21 96 4 21 24 32 24 13 0 -22 65 -105 94 -120 17 -9 48 -33 69 -53 31 -30 37
-41 31 -63 -3 -14 -3 -68 1 -120 l7 -94 39 -25 c32 -22 50 -26 108 -26 39 0
116 -7 172 -16 79 -13 103 -14 109 -4 6 10 15 10 44 0 21 -7 52 -9 70 -6 32 6
32 6 32 -35 -1 -68 -25 -78 -181 -83 -71 -2 -183 -7 -248 -11 -100 -7 -117
-10 -115 -24 3 -13 16 -16 68 -14 63 3 403 9 583 12 80 1 87 3 87 21 0 18 -7
20 -85 20 l-84 0 5 83 c8 121 12 144 32 151 9 3 24 11 33 17 13 10 22 8 44 -9
34 -27 45 -28 45 -4 0 18 -54 72 -73 72 -6 0 -19 -8 -29 -17 -18 -16 -19 -16
-9 9 5 15 14 35 19 45 46 90 73 157 68 170 -6 14 -8 14 -24 1 -9 -8 -47 -28
-83 -45 -36 -17 -77 -42 -92 -57 l-27 -27 -192 5 c-246 5 -274 10 -293 47 -8
15 -15 33 -15 39 0 16 52 1 73 -21 10 -11 22 -19 27 -19 19 0 9 35 -15 59 -14
13 -25 26 -25 30 0 3 64 3 143 -2 78 -4 198 -6 267 -3 206 7 260 20 260 62 0
22 -46 85 -82 112 -12 8 -18 30 -20 69 -2 36 -8 58 -16 61 -10 3 -13 -11 -11
-64 3 -67 5 -70 51 -120 26 -28 45 -54 41 -57 -3 -4 -22 -7 -42 -7 -30 0 -38
5 -49 30 -7 16 -29 39 -48 50 -19 12 -39 30 -44 41 -6 10 -18 19 -26 19 -14 0
-15 8 -9 48 4 26 11 54 15 63 5 8 4 21 -1 30 -15 23 -39 -18 -39 -68 0 -46 -5
-51 -29 -29 -14 12 -72 15 -333 17 -174 0 -321 -2 -327 -5 -5 -4 -12 -25 -15
-49 -19 -152 -28 -203 -43 -228 -17 -28 -16 -31 10 -84 28 -57 33 -90 18 -113
-10 -17 -336 -15 -350 2 -14 16 -51 132 -51 157 0 19 3 17 23 -12 20 -31 29
-35 82 -40 62 -6 118 -22 138 -37 17 -13 100 -22 116 -13 19 12 6 76 -20 102
-10 10 -32 19 -49 19 -26 0 -30 4 -30 26 0 39 -29 26 -45 -19 -29 -86 -37 -63
-23 66 9 82 9 110 0 119 -9 9 -14 6 -21 -13 -6 -15 -10 -18 -10 -8 -1 21 -21
29 -71 29 -21 0 -43 6 -50 15 -22 27 -28 16 -28 -50 -1 -117 -20 -146 -96
-143 -50 1 -50 2 -9 5 49 5 49 4 57 161 5 106 6 105 -81 73 l-51 -19 -4 32
c-2 17 -1 68 2 113 3 44 3 106 2 136 l-4 55 -114 -2 c-64 -1 -117 1 -120 6 -6
10 -241 11 -247 1 -3 -5 -7 -37 -9 -73 l-3 -65 56 3 c50 3 57 1 62 -17 3 -12
12 -21 19 -21 10 0 13 -9 10 -29 -2 -16 1 -37 7 -48 10 -17 11 -17 17 5 6 22
8 22 25 6 20 -18 19 -19 35 41 8 28 9 26 12 -19 2 -27 -2 -54 -7 -59 -15 -15
-14 -83 1 -107 7 -10 9 -22 6 -26 -12 -11 -28 7 -28 30 0 27 -24 51 -40 41
-17 -10 -12 -32 12 -47 12 -8 18 -19 14 -26 -10 -17 -30 -15 -56 6 -19 15 -20
22 -13 52 7 27 14 35 34 35 17 0 24 6 24 20 0 16 -9 21 -45 26 -25 3 -39 7
-32 7 13 2 17 69 4 88 -10 15 -110 24 -114 10 -2 -6 -3 -69 -3 -141 l0 -130
45 -3 c25 -1 132 -5 238 -7 187 -5 192 -4 192 15 0 21 -12 24 -92 23 -40 0
-47 7 -24 26 8 7 17 23 20 36 7 28 46 36 46 10 0 -9 12 -21 26 -27 21 -10 27
-9 36 3 6 10 8 -8 3 -56 -3 -38 -7 -70 -8 -70 -1 0 -72 3 -157 7 -187 9 -413
10 -435 2 -13 -5 -15 5 -15 64 0 61 -11 95 -25 80 -3 -2 -5 -41 -6 -87 l-1
-82 -47 3 -46 3 0 260 c0 143 4 270 9 283 11 30 -7 29 -28 -3z m379 -85 c3 -5
-4 -10 -15 -10 -13 0 -24 -8 -27 -20 -6 -23 -23 -27 -23 -5 0 9 -7 18 -16 22
-13 5 -13 7 -2 14 18 12 76 11 83 -1z m123 -52 c-3 -52 -24 -78 -30 -37 -4 27
-38 51 -45 32 -9 -26 -23 -12 -23 22 l0 35 51 0 50 0 -3 -52z m122 -8 c0 -53
-1 -54 -57 -64 -42 -7 -44 12 -3 27 34 13 37 40 5 45 -53 10 -41 42 16 42 l39
0 0 -50z m114 16 c-3 -58 -13 -76 -43 -76 -38 0 -47 13 -43 65 l4 45 42 0 c41
0 41 -1 40 -34z m-297 -51 c9 -24 -1 -27 -20 -5 -14 17 -15 20 -2 20 9 0 18
-7 22 -15z m263 -60 c25 -13 30 -22 30 -51 l0 -35 -37 7 c-21 4 -41 8 -44 10
-7 4 10 84 18 84 2 0 17 -7 33 -15z m-350 -18 c0 -14 -20 -37 -32 -37 -12 0
-10 24 4 38 16 16 28 15 28 -1z m216 -14 c-10 -10 -19 5 -10 18 6 11 8 11 12
0 2 -7 1 -15 -2 -18z m54 -2 c0 -18 -6 -31 -16 -35 -25 -10 -27 -1 -9 33 19
39 25 39 25 2z m-1230 -47 c0 -16 -26 -8 -33 11 -4 9 1 11 14 8 10 -3 19 -11
19 -19z m938 -20 c23 -3 42 -19 42 -35 0 -11 -7 -19 -17 -19 -10 0 -28 -3 -41
-6 -21 -6 -22 -4 -20 45 2 46 4 50 16 34 7 -10 16 -18 20 -19z m-732 -61 c-9
-95 -21 -123 -31 -70 -11 57 3 147 22 147 14 0 15 -11 9 -77z m992 51 c48 -13
15 -64 -42 -64 -22 0 -26 5 -26 29 0 27 6 33 40 40 3 0 15 -2 28 -5z m1456
-40 c4 -13 15 -28 25 -34 11 -5 34 -24 53 -41 18 -17 41 -38 51 -47 16 -15 16
-17 0 -25 -20 -12 -479 0 -520 12 -16 5 -54 14 -85 21 -52 10 -61 16 -93 61
-37 49 -62 57 -49 16 3 -12 21 -40 39 -63 33 -40 80 -62 149 -71 42 -5 45 -13
5 -13 -36 0 -102 18 -131 35 -21 13 -118 157 -112 167 3 4 153 7 333 7 l329
-1 6 -24z m-1182 -71 c-2 -43 -5 -79 -6 -81 -5 -4 -86 -10 -86 -5 0 22 25 43
51 43 29 0 30 1 27 43 -2 27 -7 41 -15 40 -21 -5 -15 12 10 23 12 7 22 12 22
13 0 0 -1 -34 -3 -76z m-984 22 c-3 -3 -9 2 -12 12 -6 14 -5 15 5 6 7 -7 10
-15 7 -18z m7 -130 c7 -78 9 -85 26 -80 15 5 19 1 19 -17 0 -40 -14 -50 -74
-52 -32 -1 -59 1 -62 6 -14 23 -6 73 14 86 17 11 22 24 22 60 0 42 20 82 41
82 4 0 10 -38 14 -85z m1168 -37 c23 3 27 0 27 -22 0 -24 -3 -26 -45 -26 -56
0 -70 21 -60 88 l7 46 21 -44 c19 -39 26 -45 50 -42z m-17 56 c-4 -9 -9 -15
-11 -12 -3 3 -3 13 1 22 4 9 9 15 11 12 3 -3 3 -13 -1 -22z m-1459 -76 c-3 -8
-6 -5 -6 6 -1 11 2 17 5 13 3 -3 4 -12 1 -19z m1313 -30 c0 -4 -22 -8 -50 -8
-28 0 -50 5 -50 10 0 7 20 10 50 9 28 -2 50 -6 50 -11z m1364 -35 c-32 -78
-68 -143 -80 -143 -25 0 -74 35 -74 54 0 23 68 84 119 108 50 23 52 23 35 -19z
m-994 6 c16 -24 -58 -25 -82 -1 -19 19 -19 19 27 17 28 -1 50 -7 55 -16z
m-511 -13 c12 -14 5 -46 -10 -46 -5 0 -9 -9 -9 -20 0 -18 -7 -20 -54 -20 -52
0 -53 1 -59 33 -3 17 -8 40 -12 50 -6 15 0 17 63 17 47 0 73 -4 81 -14z
m-1173 -12 c23 -16 26 -15 45 2 15 14 24 16 37 7 30 -19 19 -37 -28 -45 -38
-7 -47 -5 -67 14 -38 36 -30 50 13 22z m489 -36 c56 -2 70 -6 73 -20 2 -11 -2
-15 -15 -13 -10 2 -55 6 -101 8 -46 3 -85 7 -89 10 -3 3 2 13 11 22 9 9 16 22
16 28 0 7 8 2 18 -10 14 -19 29 -23 87 -25z m875 -42 c0 -4 -8 1 -17 13 -23
27 -106 34 -125 10 -13 -16 -48 -33 -48 -23 0 3 11 16 24 31 19 21 33 25 75
25 31 0 51 5 51 12 1 12 39 -53 40 -68z m943 37 c103 -3 187 -8 187 -12 0 -14
-44 -29 -99 -35 -30 -3 -59 -10 -65 -16 -18 -18 -107 -11 -158 12 -26 12 -48
25 -48 30 0 15 -15 8 -28 -13 -19 -30 1 -76 36 -83 41 -7 303 0 335 9 21 6 27
4 27 -9 0 -9 11 -26 25 -38 49 -42 18 -59 -50 -27 -11 5 -101 10 -200 12 -168
2 -180 3 -190 22 -6 11 -18 31 -27 45 -16 25 -21 51 -19 101 1 26 2 26 44 16
23 -5 126 -12 230 -14z m-1653 -15 c0 -5 -7 -8 -15 -8 -17 0 -18 2 -9 25 5 13
8 14 15 3 5 -7 9 -16 9 -20z m690 -82 c0 -3 -4 -8 -10 -11 -5 -3 -10 -1 -10 4
0 6 5 11 10 11 6 0 10 -2 10 -4z m1210 -11 c0 -8 -4 -15 -9 -15 -13 0 -22 16
-14 24 11 11 23 6 23 -9z m-1097 -7 c30 -15 46 -39 47 -64 0 -28 -23 -37 -69
-24 -51 14 -62 23 -64 55 -2 23 3 30 23 36 36 10 39 10 63 -3z m1142 -28 c-3
-5 -11 -10 -16 -10 -6 0 -7 5 -4 10 3 6 11 10 16 10 6 0 7 -4 4 -10z m-1309
-25 c12 -48 -16 -45 -31 3 -5 16 -2 22 9 22 9 0 18 -11 22 -25z m-1711 -495
c17 -7 14 -9 -13 -9 -20 -1 -31 3 -27 9 7 12 13 12 40 0z"/>
<path d="M1714 2165 c-7 -18 12 -45 32 -45 21 0 17 38 -6 50 -16 9 -22 8 -26
-5z"/>
<path d="M428 2273 c-19 -21 -24 -63 -8 -63 14 0 32 38 28 62 -3 20 -3 20 -20
1z"/>
<path d="M1932 2163 c2 -66 7 -98 16 -101 9 -3 12 21 12 97 0 84 -3 101 -15
101 -13 0 -15 -15 -13 -97z"/>
<path d="M1523 1585 c-7 -20 -5 -21 34 -28 36 -7 51 6 33 28 -16 20 -59 19
-67 0z"/>
<path d="M2292 1389 c2 -7 10 -15 17 -17 8 -3 12 1 9 9 -2 7 -10 15 -17 17 -8
3 -12 -1 -9 -9z"/>
<path d="M1880 1170 c-8 -5 -52 -10 -97 -10 -76 0 -83 -2 -83 -20 0 -18 7 -20
79 -20 80 0 129 11 143 33 15 24 -13 36 -42 17z"/>
<path d="M1969 1158 c-1 -2 -3 -47 -4 -100 -2 -53 -11 -123 -20 -155 -13 -45
-17 -95 -17 -218 1 -145 0 -157 -13 -130 -8 17 -14 40 -15 51 0 12 -6 55 -14
95 -30 154 -30 158 4 177 66 38 17 44 -56 7 -27 -14 -55 -25 -61 -25 -7 0 -13
-7 -13 -16 0 -12 9 -15 37 -12 l37 3 21 -130 c12 -72 25 -146 30 -167 6 -29 3
-40 -14 -57 -20 -20 -32 -21 -283 -23 -497 -5 -477 -6 -504 25 -28 33 -29 56
-10 163 8 44 16 117 18 164 l3 85 -27 3 c-22 3 -29 10 -34 38 -5 25 -14 38
-32 45 -39 15 -52 4 -52 -40 0 -38 -1 -39 -41 -43 -22 -2 -68 -1 -101 2 -53 5
-66 3 -97 -18 -84 -56 -84 -56 -78 -167 7 -144 18 -166 105 -206 36 -17 60
-20 137 -17 51 1 96 1 98 -2 3 -3 8 -86 11 -185 9 -258 14 -305 33 -305 12 0
14 8 9 37 -3 21 -9 200 -12 398 -3 198 -11 378 -16 400 -18 73 -21 105 -9 105
11 0 12 -1 16 -36 3 -33 14 -44 40 -44 25 0 25 0 19 -77 -3 -43 -10 -95 -16
-116 -11 -46 -13 -354 -3 -538 6 -104 10 -129 22 -129 13 0 14 14 8 87 l-7 88
64 1 c282 4 666 18 681 26 9 5 17 17 17 28 0 11 9 42 20 71 11 28 19 58 18 67
-2 9 8 18 25 23 26 7 28 6 23 -14 -10 -43 -8 -371 3 -375 6 -2 12 7 15 20 6
30 19 456 20 663 1 105 5 170 14 188 6 16 12 39 12 52 0 22 16 42 26 33 2 -3
-1 -27 -7 -54 -13 -57 -24 -260 -35 -636 -7 -246 -6 -268 9 -268 15 0 17 23
17 233 0 127 3 241 6 252 4 17 12 20 40 17 19 -2 59 -1 89 3 46 5 55 10 55 27
0 19 -5 20 -90 16 l-90 -3 6 135 c7 149 24 241 48 265 9 9 16 29 16 43 0 41
-37 135 -61 155 -19 15 -37 22 -40 15z m71 -164 c0 -8 -4 -14 -10 -14 -5 0
-10 9 -10 21 0 11 5 17 10 14 6 -3 10 -13 10 -21z m-1178 -196 c2 -38 8 -63
16 -66 9 -3 12 14 12 62 l0 66 35 0 c24 0 37 -6 45 -19 5 -11 10 -84 10 -164
l0 -145 -107 3 c-90 2 -114 6 -146 25 -51 30 -59 49 -65 149 l-4 86 43 32 c37
27 53 32 101 33 l57 0 3 -62z m1053 -348 c-10 -11 -23 -20 -28 -20 -6 0 0 11
13 25 27 29 42 25 15 -5z m-76 -69 c12 -7 10 -14 -8 -36 -11 -15 -21 -36 -21
-47 0 -10 -10 -22 -22 -27 -49 -18 -593 -32 -653 -17 -18 5 -23 15 -28 48 -2
24 -8 50 -12 60 -6 15 22 16 346 17 194 1 355 4 358 6 7 8 25 6 40 -4z m-742
-153 c9 -10 12 -18 7 -18 -21 0 -34 26 -32 65 1 40 1 40 5 5 3 -19 12 -43 20
-52z"/>
<path d="M2540 1109 c0 -53 -28 -189 -44 -214 -12 -18 -21 -74 -47 -295 -5
-41 -13 -104 -19 -140 -6 -36 -15 -96 -20 -135 -5 -38 -14 -101 -20 -140 -22
-146 -24 -188 -9 -183 8 3 17 26 21 59 3 30 11 88 18 129 6 41 16 104 20 140
5 36 14 97 20 135 6 39 15 106 20 150 22 190 30 236 44 264 12 22 46 177 46
207 0 2 6 4 13 4 15 0 40 47 29 53 -4 3 -22 5 -39 5 -32 1 -33 -1 -33 -39z"/>
<path d="M44 1086 c-11 -29 1 -81 19 -84 15 -3 17 1 11 22 -3 15 -1 32 6 41 6
8 9 19 5 25 -9 15 -35 12 -41 -4z"/>
<path d="M3042 1013 c3 -35 6 -38 36 -41 28 -3 32 0 32 21 0 27 -28 57 -54 57
-14 0 -17 -7 -14 -37z"/>
<path d="M2998 773 c-20 -5 -22 -20 -8 -58 8 -22 15 -26 42 -23 26 2 34 8 36
26 4 25 -23 63 -42 61 -6 -1 -19 -3 -28 -6z"/>
<path d="M94 679 c-10 -18 13 -32 40 -25 37 9 34 36 -3 36 -17 0 -33 -5 -37
-11z"/>
<path d="M2946 511 c-7 -11 20 -48 29 -39 9 8 -4 48 -15 48 -5 0 -11 -4 -14
-9z"/>
<path d="M3360 383 c-2 -60 -40 -223 -67 -283 -12 -27 -9 -100 5 -100 6 0 12
11 12 24 0 14 4 36 10 50 44 117 76 316 50 316 -5 0 -10 -3 -10 -7z"/>
</g>
</svg>
