<?xml version="1.0" standalone="no"?>
<!DOCTYPE svg PUBLIC "-//W3C//DTD SVG 20010904//EN"
 "http://www.w3.org/TR/2001/REC-SVG-20010904/DTD/svg10.dtd">
<svg version="1.0" xmlns="http://www.w3.org/2000/svg"
 width="344.000000pt" height="256.000000pt" viewBox="0 0 344.000000 256.000000"
 preserveAspectRatio="xMidYMid meet">
<metadata>
Created by potrace 1.16, written by Peter Selinger 2001-2019
</metadata>
<g transform="translate(0.000000,256.000000) scale(0.100000,-0.100000)"
fill="#000000" stroke="none">
<path d="M615 2550 c4 -6 11 -8 16 -5 14 9 11 15 -7 15 -8 0 -12 -5 -9 -10z"/>
<path d="M670 2550 c0 -5 -12 -15 -27 -22 -33 -16 -48 -66 -16 -54 30 12 83
50 83 61 0 21 86 9 150 -22 36 -17 85 -40 110 -51 43 -18 45 -22 46 -61 1 -22
9 -52 18 -65 22 -34 20 -108 -4 -161 -11 -24 -17 -51 -14 -59 5 -13 -1 -16
-28 -16 -29 0 -39 -7 -66 -44 -41 -56 -66 -66 -92 -34 -24 29 -25 38 -2 38 19
0 42 18 42 32 0 4 -13 8 -28 8 -15 0 -33 5 -39 11 -8 8 -16 3 -29 -16 -11 -15
-36 -46 -56 -69 -34 -37 -38 -39 -38 -18 0 14 -8 26 -22 31 -23 9 -23 9 5 22
15 7 42 33 58 57 24 36 28 47 17 59 -21 26 -15 118 10 152 30 41 29 65 -2 57
-15 -4 -28 0 -36 8 -6 8 -24 18 -40 21 -15 3 -36 15 -46 26 -11 12 -30 19 -53
19 -25 0 -40 6 -49 20 -7 11 -17 20 -23 20 -9 0 -7 -16 8 -57 2 -6 -6 -14 -19
-18 -33 -9 -72 -28 -80 -40 -4 -5 -8 -20 -8 -32 0 -35 26 -28 82 21 63 55 94
63 128 31 14 -13 44 -31 68 -40 23 -10 42 -18 42 -20 0 -1 -7 -19 -15 -38 -9
-21 -13 -54 -11 -81 6 -57 -13 -66 -64 -31 -40 28 -44 27 -124 -18 -35 -20
-49 -42 -27 -42 5 0 13 -3 17 -7 4 -5 -5 -8 -19 -8 -15 0 -36 -9 -47 -20 -36
-36 -51 -20 -30 35 5 14 10 48 11 76 2 32 7 53 17 58 8 5 12 14 7 20 -5 9 -26
10 -71 6 -55 -6 -64 -5 -64 9 0 11 9 16 30 16 25 0 33 6 47 35 21 43 8 59 -18
23 -12 -16 -26 -25 -35 -21 -17 6 -66 -39 -63 -59 1 -7 -1 -21 -6 -31 -9 -22
1 -35 17 -19 14 14 57 15 78 2 17 -11 13 -16 -32 -38 -19 -10 -42 -33 -54 -57
-15 -30 -28 -41 -52 -46 -18 -4 -41 -14 -51 -24 -16 -14 -31 -15 -90 -9 -71 7
-71 6 -71 -18 0 -22 4 -24 38 -23 48 2 129 -19 151 -39 28 -25 85 -20 121 11
27 22 35 25 51 14 11 -6 24 -9 30 -5 5 3 21 -6 34 -20 17 -18 34 -26 58 -26
38 0 56 15 107 88 19 27 50 57 68 66 39 19 43 3 5 -21 -25 -15 -73 -61 -73
-69 0 -2 18 -15 40 -29 27 -17 40 -32 40 -48 0 -34 11 -44 60 -54 41 -8 47
-13 69 -57 15 -31 24 -66 23 -93 0 -48 -8 -65 -21 -44 -6 10 -10 9 -15 -4 -3
-9 -6 -25 -6 -36 0 -10 -5 -19 -10 -19 -6 0 -8 11 -4 25 10 39 -5 153 -21 159
-11 4 -13 -8 -8 -63 4 -46 2 -70 -6 -75 -8 -5 -11 8 -11 43 0 28 -4 51 -10 51
-5 0 -10 -8 -11 -17 -1 -10 -2 -25 -3 -33 -2 -8 -3 -23 -4 -33 -1 -10 -7 -15
-12 -12 -12 7 -3 74 11 89 15 17 10 52 -11 71 -12 11 -19 28 -18 44 3 22 -2
26 -40 34 -54 11 -77 3 -67 -21 4 -9 9 -50 11 -91 3 -80 19 -141 36 -141 6 0
4 -8 -4 -17 -23 -27 -30 -80 -13 -87 8 -3 15 -13 15 -23 0 -31 17 -45 56 -49
22 -2 48 -5 59 -7 12 -1 21 5 23 16 2 10 -3 17 -13 17 -30 0 -4 20 34 26 28 5
43 13 52 33 8 14 27 38 42 53 28 27 33 66 9 61 -8 -2 -12 14 -12 50 0 29 -6
61 -13 72 -7 11 -14 33 -15 48 -3 40 -57 90 -89 82 -29 -7 -30 9 -1 29 14 10
26 12 33 6 7 -6 15 -6 22 1 7 7 14 5 23 -6 20 -24 74 -19 109 11 17 14 31 21
31 14 0 -6 11 -22 24 -35 22 -21 27 -23 60 -13 20 6 45 20 55 30 23 20 31 23
31 8 0 -21 41 -50 70 -50 56 0 102 57 140 175 8 23 31 56 57 80 58 54 87 133
81 225 -6 74 -33 139 -51 121 -8 -8 -6 -20 6 -46 25 -52 22 -139 -7 -200 -28
-60 -66 -96 -124 -119 -39 -15 -45 -15 -65 -1 -12 8 -28 15 -37 15 -51 1 -140
143 -140 225 0 40 -2 43 -42 63 -122 58 -152 66 -245 69 -51 1 -93 -2 -93 -7z
m470 -365 c0 -10 -49 19 -54 32 -4 9 4 7 24 -7 17 -12 30 -23 30 -25z m-764
-20 c-8 -32 -62 -111 -89 -130 -39 -27 -97 -14 -97 21 0 12 9 16 61 28 19 4
28 14 32 35 4 17 19 36 39 50 45 28 62 27 54 -4z m224 -14 c0 -11 -10 -32 -23
-48 -13 -15 -31 -40 -40 -55 -23 -36 -61 -46 -87 -23 -29 27 -24 43 15 51 27
5 39 14 51 39 22 48 84 74 84 36z m513 -39 c-6 -35 -35 -88 -58 -104 -18 -14
-58 -8 -71 10 -21 28 -16 42 15 42 20 0 34 8 46 28 26 41 57 72 66 67 4 -3 5
-22 2 -43z m106 22 c-10 -12 -14 -12 -20 -2 -4 7 -3 16 4 20 18 11 29 -2 16
-18z m77 -21 c-4 -16 -19 -46 -34 -68 -34 -49 -82 -60 -113 -26 -26 28 -25 30
21 37 30 5 45 14 57 35 15 25 45 47 67 48 4 1 5 -11 2 -26z m-103 -10 c-7 -2
-21 -2 -30 0 -10 3 -4 5 12 5 17 0 24 -2 18 -5z m-523 -287 c0 -8 -5 -18 -11
-21 -6 -4 -7 -19 -4 -36 4 -17 2 -29 -3 -29 -6 0 -17 -3 -26 -6 -11 -4 -19 2
-25 18 -12 32 -3 76 18 81 33 9 51 7 51 -7z m65 -146 c3 -5 1 -10 -4 -10 -6 0
-11 5 -11 10 0 6 2 10 4 10 3 0 8 -4 11 -10z m-20 -90 c-3 -5 -11 -10 -16 -10
-6 0 -7 5 -4 10 3 6 11 10 16 10 6 0 7 -4 4 -10z"/>
<path d="M2220 2550 c14 -4 43 -8 65 -9 34 -1 48 -8 80 -41 46 -47 120 -77
133 -54 7 12 16 10 58 -12 27 -15 56 -33 64 -40 8 -6 38 -24 65 -39 83 -45
145 -89 145 -104 0 -20 -75 -6 -129 26 -38 22 -45 23 -58 10 -14 -13 -8 -18
46 -42 65 -29 77 -45 36 -45 -14 0 -25 -4 -25 -10 0 -5 -13 -10 -29 -10 -30 0
-81 -37 -81 -59 0 -19 29 -12 72 19 34 25 50 30 100 30 38 0 68 -6 84 -16 24
-16 27 -16 52 3 30 22 123 48 162 45 14 -1 37 -11 52 -22 32 -23 72 -19 100
11 16 16 43 24 108 32 8 1 16 10 18 19 2 11 -11 23 -42 37 -25 11 -56 29 -68
41 -13 12 -36 29 -53 37 -16 9 -43 26 -60 40 -38 30 -45 35 -77 53 -14 8 -57
36 -95 63 -65 44 -75 47 -129 46 -51 -1 -54 -2 -24 -8 19 -4 75 -34 123 -67
49 -32 108 -70 132 -84 24 -14 55 -36 68 -48 13 -12 27 -22 31 -22 16 0 76
-56 76 -71 0 -8 -11 -26 -25 -39 l-25 -24 -55 27 c-64 31 -79 33 -119 12 -35
-18 -36 -18 -36 -1 0 8 -15 20 -34 26 -19 6 -68 33 -108 59 -40 26 -107 67
-148 91 -41 24 -82 49 -90 56 -8 6 -49 30 -90 52 -74 39 -76 40 -185 40 -70 0
-101 -3 -85 -8z m215 -50 c8 -13 -5 -13 -25 0 -13 8 -13 10 2 10 9 0 20 -4 23
-10z m400 -279 c3 -5 1 -12 -4 -15 -13 -8 -42 4 -35 15 7 12 31 12 39 0z"/>
<path d="M2728 2553 c7 -3 16 -2 19 1 4 3 -2 6 -13 5 -11 0 -14 -3 -6 -6z"/>
<path d="M1990 2531 c0 -4 11 -19 24 -33 16 -18 30 -24 48 -21 35 7 314 -132
406 -203 24 -18 49 -35 55 -37 18 -7 -24 -36 -50 -37 -14 0 -23 -6 -23 -15 0
-31 77 -12 123 30 44 40 47 56 10 49 -18 -3 -38 2 -54 13 -145 97 -152 102
-405 232 -58 29 -134 42 -134 22z"/>
<path d="M2090 2309 c0 -13 104 -69 128 -69 7 0 12 -4 12 -10 0 -5 7 -10 16
-10 34 0 6 36 -49 62 -75 36 -107 44 -107 27z"/>
<path d="M82 2193 c-22 -20 -41 -103 -23 -103 16 0 61 72 61 97 0 28 -11 29
-38 6z"/>
<path d="M1980 2195 c0 -9 8 -18 18 -21 59 -20 122 -51 122 -61 0 -7 6 -13 13
-14 6 0 31 -1 54 -3 34 -2 47 2 63 21 23 27 28 27 100 8 53 -14 56 -14 73 7
21 25 8 49 -16 30 -8 -7 -17 -9 -21 -5 -9 9 -31 13 -89 18 -43 3 -49 1 -59
-21 -6 -13 -16 -24 -22 -25 -25 -2 -71 3 -76 10 -3 3 -14 12 -25 18 -85 53
-135 67 -135 38z"/>
<path d="M2208 2032 c-19 -36 -12 -52 20 -52 40 0 50 11 45 48 -7 43 -45 45
-65 4z"/>
<path d="M1621 2025 c-21 -23 -30 -25 -111 -25 -87 0 -119 -12 -89 -31 25 -16
182 -11 207 7 40 28 56 -1 22 -39 -11 -12 -18 -27 -15 -35 3 -7 5 -23 5 -34 0
-11 14 -33 30 -48 25 -23 31 -39 36 -89 l7 -61 -34 11 c-19 7 -42 19 -51 27
-27 23 -115 9 -147 -22 -20 -21 -26 -39 -31 -103 -9 -97 -27 -143 -55 -143
-26 0 -63 -33 -76 -67 -12 -32 -12 -80 1 -88 6 -3 10 -26 10 -50 0 -24 5 -56
11 -72 6 -15 13 -57 14 -93 5 -115 20 -188 43 -219 22 -31 28 -51 15 -51 -5 0
-19 -16 -32 -36 -16 -23 -27 -31 -31 -23 -11 18 -30 1 -30 -27 0 -20 5 -24 30
-24 17 0 30 5 30 13 0 6 9 23 20 37 l20 25 0 -32 c0 -44 16 -42 25 3 8 46 21
59 68 68 28 5 40 14 47 32 16 40 12 51 -22 64 -44 18 -68 39 -68 62 0 26 12
23 45 -12 33 -35 98 -56 192 -63 107 -9 88 25 -21 38 -65 8 -153 50 -190 89
-13 14 -31 47 -40 73 -24 66 -38 93 -48 93 -14 0 -9 -40 13 -91 16 -37 20 -62
17 -105 -4 -44 -1 -58 12 -67 20 -14 34 -97 17 -97 -7 0 -24 21 -39 46 -21 34
-28 58 -28 99 0 30 -5 57 -10 60 -6 4 -10 36 -9 71 1 37 -3 70 -10 77 -6 6
-11 33 -11 59 0 46 2 49 50 84 51 37 59 49 38 57 -14 4 -50 -15 -85 -47 l-23
-19 0 25 c0 14 12 37 27 52 22 23 33 26 60 21 18 -3 42 -1 54 6 20 10 21 16
16 90 l-6 79 30 0 c25 0 30 -3 25 -16 -4 -9 -3 -39 0 -66 8 -61 30 -59 27 3
-2 65 16 119 45 130 28 11 72 12 73 2 7 -87 7 -143 -2 -143 -6 0 -9 -10 -7
-22 2 -13 8 -22 13 -22 6 1 27 5 47 8 36 7 38 5 53 -30 18 -43 19 -80 4 -90
-6 -3 -17 -22 -25 -40 -17 -40 -49 -46 -59 -11 -4 12 -16 32 -28 44 -11 13
-20 35 -19 52 1 33 -20 56 -42 48 -8 -3 -18 -23 -22 -43 -4 -21 -15 -46 -24
-56 -16 -18 -17 -17 -35 2 -14 15 -21 17 -26 8 -11 -17 -2 -59 39 -175 l35
-101 51 -22 c100 -44 113 -48 189 -65 75 -17 77 -18 71 -43 -4 -15 -12 -36
-18 -47 -19 -33 8 -139 39 -153 21 -10 26 -8 36 9 6 11 8 23 5 27 -3 3 -6 -1
-6 -8 0 -10 -5 -8 -19 4 -22 20 -35 95 -19 113 6 7 8 13 4 13 -3 0 1 17 9 37
15 35 15 39 -2 51 -9 7 -36 17 -58 23 -91 23 -210 67 -208 77 11 53 14 172 4
190 -7 13 -8 22 -2 22 5 0 12 -14 16 -31 4 -19 16 -34 31 -39 19 -8 24 -17 24
-45 0 -22 6 -38 15 -41 22 -9 18 -23 -4 -17 -31 8 -34 -15 -5 -34 41 -27 136
-63 165 -63 17 0 32 -9 42 -24 9 -13 35 -31 59 -38 31 -11 43 -20 43 -34 0
-10 10 -29 23 -41 12 -13 22 -33 22 -44 0 -20 -4 -21 -65 -17 -54 3 -68 8 -81
27 -25 35 -39 12 -20 -33 12 -29 20 -36 43 -36 48 0 54 -10 39 -66 l-13 -51
48 -59 c27 -32 49 -67 49 -77 0 -10 -11 -33 -25 -51 -14 -18 -25 -40 -25 -49
0 -10 -2 -17 -5 -17 -4 0 -55 50 -115 110 -60 61 -114 110 -120 110 -5 0 -10
6 -10 14 0 14 -41 46 -59 46 -5 0 -12 -8 -15 -17 -5 -12 1 -23 18 -36 32 -23
32 -29 1 -63 -14 -15 -25 -35 -25 -45 0 -38 -12 -49 -50 -49 -21 0 -40 -3 -42
-7 -1 -5 -19 -15 -38 -24 l-35 -16 3 64 c3 51 1 64 -10 61 -9 -3 -13 -23 -12
-64 0 -32 -5 -62 -10 -66 -21 -15 -118 -8 -181 13 -62 20 -65 22 -65 52 0 18
9 47 20 65 20 33 28 112 11 112 -11 0 -21 -25 -21 -54 0 -24 -22 -48 -52 -59
-10 -4 -18 -16 -18 -29 0 -28 -35 -55 -44 -33 -3 9 0 12 10 8 18 -7 19 23 1
34 -35 22 -61 186 -58 367 2 116 1 128 -13 117 -12 -10 -16 -33 -17 -85 -1
-60 -15 -146 -18 -108 -1 6 -5 12 -11 12 -16 0 -12 -102 5 -134 8 -15 15 -36
15 -46 0 -10 7 -25 15 -34 8 -8 15 -23 15 -33 0 -11 5 -24 10 -29 6 -6 10 -44
8 -90 l-3 -79 -50 -8 c-27 -4 -55 -13 -61 -18 -20 -16 -23 27 -4 58 9 16 20
45 24 64 3 20 15 44 26 54 21 19 27 78 10 105 -10 17 -14 10 -24 -49 -4 -19
-12 -42 -20 -50 -7 -9 -16 -34 -19 -55 -4 -22 -14 -44 -22 -49 -14 -8 -16 -25
-10 -130 3 -67 8 -133 11 -147 5 -27 37 -70 51 -70 5 0 24 -11 43 -25 19 -14
40 -25 48 -25 8 0 27 -9 43 -21 16 -11 45 -23 65 -26 64 -10 35 17 -80 76 -59
31 -116 67 -126 82 -13 17 -20 45 -21 87 -2 62 10 92 37 92 7 0 22 10 34 22
19 21 20 21 20 2 0 -30 12 -41 50 -47 26 -5 41 -2 60 12 22 18 23 22 11 44 -9
16 -11 38 -7 59 4 18 7 44 8 58 1 24 1 24 14 -5 7 -16 13 -38 14 -47 0 -13 8
-18 28 -18 15 -1 52 -9 82 -20 78 -28 159 -26 218 4 57 30 136 43 156 27 9 -8
52 -11 124 -9 108 2 110 2 144 -27 19 -17 39 -38 44 -49 5 -10 37 -29 74 -42
36 -13 77 -31 92 -39 39 -22 112 -13 171 20 49 28 55 42 38 88 -6 16 -23 29
-48 37 -50 16 -91 39 -131 73 -18 15 -39 27 -47 27 -8 0 -18 6 -22 13 -4 8
-17 17 -28 21 -14 6 -16 10 -7 13 8 3 19 0 25 -6 19 -19 28 -12 25 22 -3 28
-7 32 -37 35 -20 2 -37 -2 -42 -9 -6 -10 -16 -4 -38 21 -28 31 -30 40 -25 80
10 81 6 76 92 95 31 7 42 29 42 80 0 57 -7 65 -60 65 -32 0 -57 31 -43 53 4 6
10 46 13 87 l5 75 45 11 c99 24 130 26 137 7 3 -10 25 -38 47 -63 23 -25 48
-56 56 -69 15 -22 17 -23 33 -7 22 23 21 32 -3 39 -11 3 -23 13 -27 24 -3 10
-18 29 -33 43 -47 44 -54 66 -30 99 41 58 22 67 -37 17 -31 -27 -55 -37 -106
-46 -36 -7 -71 -18 -78 -26 -15 -18 -33 -18 -49 1 -7 8 -27 15 -44 14 -28 0
-29 -1 -12 -12 54 -33 66 -54 66 -115 0 -39 -5 -64 -14 -71 -17 -14 -21 -8
-30 42 -5 24 -12 37 -23 37 -12 0 -14 -7 -9 -35 4 -21 3 -35 -3 -35 -16 0 -31
35 -31 70 0 17 -6 45 -14 63 -22 54 1 137 39 137 24 0 68 59 67 89 0 17 3 33
8 36 5 3 14 23 20 43 6 24 19 41 35 49 24 11 25 10 25 -22 0 -19 -4 -37 -10
-40 -15 -9 -12 -35 4 -35 22 0 39 64 31 119 -5 35 -1 63 14 107 18 53 22 59
48 59 29 -1 33 -11 18 -49 -6 -14 -4 -17 11 -14 15 2 20 13 22 52 3 41 1 48
-12 43 -9 -4 -27 -2 -41 3 -20 8 -28 5 -45 -17 -11 -14 -20 -34 -20 -44 0 -21
-20 -69 -30 -69 -3 0 -11 5 -18 12 -16 16 -21 9 -26 -47 -3 -28 -10 -51 -16
-53 -5 -2 -10 -9 -10 -15 0 -7 -9 -29 -19 -48 -11 -20 -17 -46 -15 -56 4 -15
-4 -28 -27 -46 -20 -15 -36 -22 -40 -16 -3 6 -12 9 -20 7 -8 -2 -13 4 -11 14
1 9 -2 19 -8 23 -6 4 -5 13 2 25 10 16 9 23 -10 43 -12 13 -22 28 -22 34 0 5
-11 15 -25 21 -21 10 -24 17 -20 39 20 93 17 168 -5 133 -6 -8 -10 -32 -10
-52 0 -34 -3 -38 -25 -38 -23 0 -25 4 -25 45 0 30 -6 50 -19 62 -11 11 -21 39
-25 75 -8 70 -13 86 -34 93 -10 2 -23 14 -30 26 -15 24 -1 49 28 49 24 0 50
42 50 80 0 24 -6 33 -26 40 -42 17 -77 11 -103 -15z m24 -706 c8 -13 6 -15
-23 -24 -22 -6 -22 -5 -10 14 14 23 24 26 33 10z m175 -35 c-6 -14 -10 -44
-11 -67 l-1 -42 -9 35 c-8 36 -4 66 13 88 16 19 18 14 8 -14z m90 -51 c0 -38
3 -92 6 -120 7 -51 6 -53 -17 -53 -13 1 -39 9 -58 19 -29 15 -31 19 -14 23 17
5 19 14 18 94 -1 49 0 92 2 97 2 4 17 7 34 7 l29 0 0 -67z m-265 7 c8 -25 -5
-160 -16 -160 -7 0 -49 101 -49 120 0 5 4 20 10 34 11 31 46 35 55 6z m455
-316 c0 -8 -4 -12 -10 -9 -5 3 -10 10 -10 16 0 5 5 9 10 9 6 0 10 -7 10 -16z
m63 -31 c-7 -2 -19 -2 -25 0 -7 3 -2 5 12 5 14 0 19 -2 13 -5z m-623 -39 c0
-2 -9 -4 -20 -4 -11 0 -20 4 -20 9 0 5 9 7 20 4 11 -3 20 -7 20 -9z m615 -4
c3 -5 -3 -10 -14 -10 -12 0 -21 5 -21 10 0 6 6 10 14 10 8 0 18 -4 21 -10z
m-321 -281 c35 -28 33 -34 -14 -35 -22 -1 -47 -7 -55 -14 -10 -9 -15 -9 -15
-1 0 6 9 19 20 28 11 10 20 23 20 30 0 18 13 16 44 -8z m78 -76 c10 -9 18 -20
18 -25 0 -12 -168 -10 -175 3 -10 16 -3 19 54 23 28 2 55 6 58 10 11 10 26 7
45 -11z m253 -3 c10 -11 24 -20 31 -20 7 0 28 -13 46 -28 33 -28 143 -82 169
-82 8 -1 -2 -14 -21 -30 -29 -26 -43 -30 -92 -30 -42 0 -59 4 -66 16 -6 11
-12 13 -16 6 -4 -7 -17 -5 -39 6 -17 9 -34 18 -35 19 -2 1 1 23 6 50 12 55 9
62 -15 41 -28 -24 -53 -30 -53 -12 0 8 6 17 14 20 8 3 20 19 26 35 15 34 21
36 45 9z m-975 -66 c0 -8 -5 -12 -10 -9 -6 4 -8 11 -5 16 9 14 15 11 15 -7z
m-25 -54 c3 -5 1 -10 -4 -10 -6 0 -11 5 -11 10 0 6 2 10 4 10 3 0 8 -4 11 -10z
m940 -8 c-3 -3 -11 0 -18 7 -9 10 -8 11 6 5 10 -3 15 -9 12 -12z"/>
<path d="M3352 2043 c-12 -2 -27 -13 -32 -24 -6 -10 -17 -19 -26 -19 -25 0
-64 -31 -64 -52 0 -14 5 -18 19 -13 15 5 20 -1 26 -32 7 -39 21 -63 36 -63 15
0 10 38 -6 44 -8 3 -15 12 -15 20 0 7 7 16 15 20 8 3 15 12 15 19 0 7 10 19
23 26 29 16 60 58 52 71 -3 6 -9 9 -13 9 -4 -1 -17 -4 -30 -6z"/>
<path d="M1295 2010 c-11 -18 5 -30 40 -30 43 0 65 9 65 26 0 17 -95 20 -105
4z"/>
<path d="M2145 1950 c-8 -13 13 -60 27 -60 13 0 5 63 -9 67 -6 2 -14 -1 -18
-7z"/>
<path d="M486 1942 c-3 -5 -8 -29 -12 -53 -3 -24 -15 -70 -26 -101 -11 -32
-17 -65 -14 -74 10 -25 21 -8 44 71 34 115 41 148 36 157 -7 10 -21 10 -28 0z"/>
<path d="M3432 1930 c0 -14 2 -19 5 -12 2 6 2 18 0 25 -3 6 -5 1 -5 -13z"/>
<path d="M3425 1870 c-3 -16 -2 -37 4 -47 8 -14 10 -8 11 30 0 54 -5 60 -15
17z"/>
<path d="M3200 1865 c0 -13 -4 -27 -10 -30 -5 -3 -10 -16 -10 -28 0 -14 -13
-31 -37 -47 -34 -23 -83 -105 -83 -139 0 -21 -43 -81 -57 -81 -13 0 -43 -59
-63 -125 -6 -22 -16 -53 -22 -70 -13 -37 -11 -156 2 -169 10 -10 15 16 11 61
-3 43 53 233 69 233 13 0 74 102 92 155 10 27 27 57 39 65 12 8 32 25 44 38
14 14 26 19 30 12 3 -5 13 -10 21 -10 8 0 33 -20 57 -44 36 -38 46 -43 72 -39
46 9 55 21 55 78 0 43 -5 59 -30 90 -16 21 -30 43 -30 48 0 8 -4 7 -11 0 -14
-14 2 -69 25 -87 17 -13 28 -57 18 -72 -19 -28 -43 -23 -88 21 -25 25 -50 45
-55 45 -18 0 -30 52 -20 81 7 21 6 29 -5 33 -10 4 -14 -2 -14 -19z"/>
<path d="M391 1785 c-24 -74 -29 -189 -8 -183 7 3 14 32 18 74 3 38 13 89 22
113 21 53 21 61 3 61 -7 0 -22 -27 -35 -65z"/>
<path d="M994 1799 c-4 -7 2 -19 12 -28 11 -9 28 -26 38 -38 18 -21 18 -23 -3
-52 -32 -44 -28 -61 16 -61 20 0 45 8 55 17 14 12 34 17 71 15 85 -3 107 -11
106 -35 -3 -60 -14 -81 -44 -89 -75 -18 -104 -33 -119 -63 l-15 -30 0 27 c-1
40 -19 78 -36 78 -18 0 -20 -31 -4 -47 16 -16 2 -63 -17 -63 -9 0 -29 -11 -45
-24 -15 -13 -33 -26 -39 -28 -31 -10 -34 -225 -4 -259 19 -22 17 -39 -4 -39
-10 0 -33 -13 -52 -30 -33 -28 -73 -39 -84 -22 -11 19 -15 169 -4 204 9 29 9
41 0 50 -9 9 -15 7 -27 -8 -14 -18 -14 -18 -15 6 0 18 9 30 31 43 l32 18 -8
71 c-7 72 -27 128 -45 128 -13 0 -13 -37 0 -45 6 -3 10 -26 10 -50 0 -24 5
-47 10 -50 17 -11 11 -25 -15 -35 -31 -12 -31 -14 -53 -126 l-18 -88 -17 35
c-9 18 -33 52 -52 74 -19 22 -40 58 -45 80 -6 22 -17 51 -25 65 -47 81 -45 94
10 61 45 -26 45 -26 45 4 0 31 -48 58 -85 49 l-26 -6 7 91 c5 63 4 91 -4 91
-6 0 -12 17 -14 37 -2 20 -8 38 -15 40 -16 6 -28 -57 -13 -67 7 -5 14 -31 16
-60 2 -43 0 -50 -13 -46 -13 5 -14 -1 -9 -36 12 -75 7 -132 -11 -143 -9 -5
-31 -22 -48 -37 -39 -33 -92 -37 -173 -13 -29 9 -57 13 -63 9 -13 -8 -29 13
-29 38 0 28 49 78 77 78 19 0 23 -4 18 -19 -8 -25 11 -36 32 -19 9 7 24 12 35
10 15 -3 18 3 18 40 0 43 -12 74 -27 72 -4 -1 -19 3 -33 8 -14 5 -39 7 -57 5
-31 -5 -32 -5 -35 36 l-3 42 -70 6 c-38 3 -80 9 -92 13 -20 6 -23 4 -23 -16 0
-22 4 -23 78 -26 42 -2 78 -5 79 -6 1 -1 3 -38 4 -83 1 -70 -1 -83 -20 -102
-11 -11 -21 -27 -22 -33 0 -7 -4 -3 -9 10 -8 19 -17 22 -60 22 l-50 0 0 -36
c0 -29 3 -34 13 -26 13 11 101 11 113 0 12 -12 -8 -48 -26 -48 -22 0 -31 -26
-29 -80 3 -84 8 -97 44 -114 21 -10 35 -24 35 -35 0 -36 25 -54 81 -57 219
-11 298 -38 100 -34 -58 1 -157 2 -218 1 -112 -1 -113 -1 -113 -25 l0 -24 277
1 c153 1 287 -1 298 -3 15 -4 21 1 23 18 3 19 -1 22 -30 23 -18 1 -46 5 -63 9
-21 5 -8 7 40 5 39 -1 71 -4 73 -6 2 -2 0 -13 -4 -23 -5 -14 1 -25 24 -45 25
-20 32 -34 32 -59 0 -19 10 -47 23 -65 31 -42 93 -165 101 -199 4 -17 2 -29
-4 -29 -13 -2 -17 -3 -65 -17 -66 -20 -65 -20 -65 72 0 47 -5 88 -10 91 -6 4
-27 -7 -48 -23 -65 -52 -160 -89 -291 -116 -41 -8 -80 -21 -88 -29 -11 -10
-25 -12 -56 -6 -50 9 -77 -3 -77 -35 0 -51 36 -53 125 -6 28 15 77 33 110 39
123 27 232 71 284 115 l24 21 -6 -128 c-3 -80 -1 -127 5 -127 5 0 12 9 15 20
7 25 11 25 34 -1 18 -21 32 -74 44 -165 l7 -51 44 -1 c34 -2 46 2 56 18 16 26
28 26 28 0 0 -11 6 -23 14 -26 22 -9 26 -42 6 -47 -17 -4 -17 -9 -8 -48 21
-84 83 -117 113 -60 17 33 10 65 -12 57 -9 -4 -17 1 -20 14 -4 14 -11 19 -23
15 -29 -9 -33 13 -10 43 19 24 20 27 5 30 -11 3 -13 7 -6 16 6 7 15 45 21 86
10 68 9 74 -10 87 -15 11 -20 25 -20 62 0 30 -6 53 -14 61 -12 9 -13 17 -4 38
16 39 13 208 -6 281 -16 61 -15 63 7 92 26 36 77 61 127 63 34 1 35 2 38 44 4
49 -10 72 -43 72 -20 0 -22 5 -24 65 l-2 65 28 0 c16 0 35 6 41 12 10 10 11 0
6 -47 -7 -55 -6 -59 9 -46 10 7 17 23 17 34 0 11 7 43 15 71 8 28 17 63 20 78
7 34 62 61 115 56 32 -3 35 -1 35 23 0 14 6 33 13 42 16 19 45 174 35 190 -4
6 -11 3 -19 -8 -11 -15 -18 -16 -45 -6 -45 15 -110 14 -155 -4 -28 -11 -34
-12 -22 -2 15 12 15 16 -2 54 -17 38 -55 83 -71 83 -4 0 -11 -5 -15 -11z
m-747 -265 c-3 -3 -12 -4 -19 -1 -8 3 -5 6 6 6 11 1 17 -2 13 -5z m1013 -48
c0 -2 -9 -6 -20 -9 -11 -3 -20 -1 -20 4 0 5 9 9 20 9 11 0 20 -2 20 -4z m-702
-98 c21 -21 13 -33 -20 -32 -18 0 -45 -3 -60 -7 -40 -11 -34 6 10 29 44 24 54
26 70 10z m524 -50 c-5 -5 -25 -8 -43 -6 l-34 3 40 20 c32 16 41 17 43 6 2 -7
0 -17 -6 -23z m-899 -40 l-11 -33 -1 45 c-1 33 2 41 11 32 8 -8 8 -20 1 -44z
m87 14 c0 -4 -11 -19 -25 -34 -14 -15 -25 -33 -25 -40 0 -8 -3 -9 -11 -1 -15
15 20 83 43 83 10 0 18 -3 18 -8z m310 -12 c0 -5 20 -33 44 -63 48 -59 66 -89
66 -109 0 -7 -9 1 -20 17 l-20 30 0 -30 c0 -17 7 -57 15 -88 19 -72 19 -78 -1
-70 -8 3 -13 11 -11 17 7 18 -39 170 -52 174 -14 5 -11 -90 4 -100 14 -11
-102 -9 -150 2 -43 10 -68 35 -61 63 9 37 -23 15 -37 -25 -16 -47 -19 -43 -35
42 -9 51 -9 56 11 71 12 10 50 20 89 24 90 8 88 30 -3 31 -35 0 -75 6 -89 12
-20 8 4 11 113 11 81 1 137 -3 137 -9z m204 -181 c-2 -142 -14 -136 -14 7 0
65 4 113 8 106 5 -7 7 -57 6 -113z m-584 21 c0 -33 -3 -41 -10 -30 -5 8 -10
35 -10 60 0 33 3 41 10 30 5 -8 10 -35 10 -60z m50 25 c0 -18 5 -25 18 -25 26
0 33 -10 21 -31 -12 -23 -23 -24 -43 -3 -18 17 -22 84 -6 84 6 0 10 -11 10
-25z m538 -246 c2 -18 -6 -33 -29 -53 -31 -28 -33 -28 -46 -11 -22 32 -15 59
20 76 41 21 51 18 55 -12z m62 -33 c0 -14 5 -28 10 -31 17 -10 12 -72 -6 -79
-14 -5 -16 -16 -10 -59 3 -28 8 -126 11 -217 l5 -165 -25 -18 c-31 -22 -42
-16 -51 28 -3 20 -15 47 -26 61 -14 17 -19 34 -15 52 5 22 1 29 -21 40 -14 6
-33 12 -41 12 -9 0 -1 9 17 20 18 11 45 20 60 20 15 0 37 7 49 15 18 12 20 22
15 57 -3 24 -20 76 -39 115 l-34 73 36 31 c19 17 35 40 35 50 0 10 7 19 15 19
9 0 15 -9 15 -24z"/>
<path d="M940 1775 c-14 -17 -10 -47 6 -37 15 9 28 52 16 52 -5 0 -15 -7 -22
-15z"/>
<path d="M1964 1721 c-3 -16 -19 -43 -35 -61 -31 -34 -36 -50 -16 -50 26 0 68
57 74 99 7 48 -14 59 -23 12z"/>
<path d="M415 1600 c-10 -11 -24 -20 -31 -20 -18 0 -21 -8 -29 -71 -7 -56 -7
-56 22 -62 48 -9 100 41 58 57 -24 9 -17 48 13 73 23 19 25 24 12 33 -21 14
-24 13 -45 -10z"/>
<path d="M3205 1580 c-14 -22 -25 -45 -25 -52 0 -7 -7 -33 -16 -58 -9 -25 -14
-67 -12 -95 2 -37 -2 -59 -15 -79 -21 -32 -16 -56 12 -56 11 0 26 -3 34 -6 10
-4 21 5 31 28 9 19 29 39 44 46 15 7 43 22 62 32 39 22 106 27 113 8 3 -7 6 7
6 31 1 33 -2 41 -11 34 -7 -6 -34 -13 -61 -16 -41 -6 -91 -28 -107 -48 -3 -3
-17 -9 -31 -12 -50 -13 -66 39 -39 125 23 74 50 92 50 34 0 -29 7 -39 41 -65
46 -33 56 -32 102 17 26 27 28 35 25 93 -3 58 -5 64 -26 67 -16 3 -39 -10 -73
-38 -29 -24 -56 -39 -64 -36 -17 6 -20 32 -5 41 13 8 13 45 0 45 -5 0 -21 -18
-35 -40z m185 -52 c0 -20 -47 -78 -64 -78 -7 0 -21 9 -30 19 -17 19 -17 21 1
45 24 32 75 58 85 42 4 -6 8 -19 8 -28z m-195 -238 c-3 -5 -11 -10 -16 -10 -6
0 -7 5 -4 10 3 6 11 10 16 10 6 0 7 -4 4 -10z"/>
<path d="M1933 1533 c-24 -13 -43 -29 -43 -34 0 -15 46 -10 60 6 8 9 30 15 56
15 37 0 44 3 44 20 0 17 -6 20 -37 19 -21 -1 -57 -12 -80 -26z"/>
<path d="M2310 1368 c-41 -16 -97 -41 -124 -55 -27 -14 -66 -26 -87 -27 -31 0
-39 -4 -39 -20 0 -17 6 -18 54 -13 30 3 65 12 78 20 41 27 204 87 235 87 36 0
63 24 37 34 -31 12 -80 4 -154 -26z"/>
<path d="M1172 1198 c3 -181 3 -183 26 -186 15 -2 22 2 22 12 0 9 -4 16 -10
16 -6 0 -10 63 -10 170 0 146 -2 170 -15 170 -13 0 -15 -25 -13 -182z"/>
<path d="M2550 1366 c0 -8 5 -18 10 -21 8 -5 7 -12 -1 -22 -10 -12 -10 -16 2
-24 38 -24 55 -3 35 46 -15 34 -46 49 -46 21z"/>
<path d="M3045 1355 c3 -16 5 -36 5 -42 -3 -42 -3 -66 0 -133 2 -41 0 -90 -4
-107 -6 -27 -5 -33 9 -33 14 0 14 -4 -4 -26 -27 -34 -27 -70 0 -84 11 -6 55
-10 97 -9 l77 2 3 -34 c2 -19 8 -39 14 -46 5 -7 20 -43 33 -80 19 -58 26 -68
46 -68 13 0 28 -6 32 -12 10 -16 37 -17 37 -3 0 24 -33 60 -50 55 -15 -5 -22
8 -43 67 -14 40 -30 92 -36 114 -6 23 -18 47 -26 54 -8 7 -17 28 -20 49 -4 20
-11 48 -17 64 -13 33 -63 77 -88 77 -28 0 -31 12 -31 99 0 66 -3 84 -20 103
l-20 23 6 -30z m115 -333 c0 -4 -13 -20 -29 -35 -22 -21 -35 -26 -54 -22 -25
7 -25 7 -6 26 10 10 19 23 19 28 0 5 16 9 35 9 19 0 35 -3 35 -6z m0 -52 c0
-5 -2 -10 -4 -10 -3 0 -8 5 -11 10 -3 6 -1 10 4 10 6 0 11 -4 11 -10z m47 -22
c-3 -8 -6 -5 -6 6 -1 11 2 17 5 13 3 -3 4 -12 1 -19z"/>
<path d="M1220 1218 c1 -135 3 -156 19 -175 11 -13 24 -23 30 -23 16 0 13 31
-4 54 -12 15 -15 52 -15 158 0 116 -2 138 -15 138 -13 0 -15 -23 -15 -152z"/>
<path d="M2480 1360 c0 -12 50 -33 58 -26 3 3 -1 12 -8 21 -14 17 -50 20 -50
5z"/>
<path d="M0 1291 c0 -17 4 -32 9 -36 6 -3 13 -26 17 -50 10 -69 24 -64 24 8 0
50 -4 68 -20 85 -27 29 -30 28 -30 -7z"/>
<path d="M2617 1259 c-29 -17 -9 -29 46 -29 42 0 48 -2 35 -12 -9 -7 -18 -25
-22 -40 -9 -39 22 -68 72 -68 50 0 85 -31 78 -68 -2 -15 -11 -65 -20 -112 -9
-47 -18 -111 -21 -142 -6 -49 -9 -58 -26 -58 -30 0 -59 -18 -59 -37 0 -13 7
-14 43 -9 23 4 45 11 50 15 4 4 14 54 22 112 8 57 21 136 30 174 23 100 30
137 29 160 -1 11 -2 37 -3 58 -1 26 -6 37 -16 37 -14 0 -15 -10 -9 -60 3 -32
4 -67 0 -76 -5 -14 -10 -13 -31 10 -16 18 -34 26 -57 26 -18 0 -40 4 -48 10
-12 8 -12 11 2 27 25 28 20 73 -9 84 -31 12 -63 11 -86 -2z"/>
<path d="M2524 1236 c-6 -15 19 -45 38 -46 10 0 -3 38 -18 51 -11 9 -15 8 -20
-5z"/>
<path d="M2550 1121 c0 -12 -11 -23 -30 -30 -35 -12 -39 -27 -10 -36 24 -8 40
1 40 21 0 8 10 14 24 14 35 0 40 15 11 34 -31 20 -35 20 -35 -3z"/>
<path d="M576 913 c-15 -15 -3 -24 26 -21 40 4 48 25 9 26 -16 0 -32 -2 -35
-5z"/>
<path d="M2544 853 c-11 -16 -46 -81 -78 -145 -31 -65 -61 -120 -66 -123 -12
-8 -97 33 -104 50 -4 10 -14 13 -35 9 -26 -5 -32 -3 -40 17 l-9 24 -10 -25
c-5 -14 -7 -31 -5 -38 6 -14 51 -28 60 -18 6 6 52 -17 92 -46 53 -39 80 -20
117 84 7 22 23 52 34 68 11 15 20 37 20 49 0 11 8 28 18 38 19 19 52 68 52 78
0 15 -29 1 -46 -22z"/>
<path d="M2650 810 c0 -11 5 -20 10 -20 6 0 10 9 10 20 0 11 -4 20 -10 20 -5
0 -10 -9 -10 -20z"/>
<path d="M3204 725 c-14 -58 -18 -87 -10 -95 7 -7 6 -14 -2 -22 -19 -19 -15
-41 6 -33 37 16 97 23 120 14 33 -13 38 -5 19 25 -14 21 -21 23 -61 19 -43 -5
-46 -4 -46 19 0 13 5 29 12 36 8 8 8 15 1 24 -6 7 -9 32 -7 56 6 68 -9 48 -32
-43z"/>
<path d="M1730 745 c0 -8 5 -15 10 -15 6 0 10 7 10 15 0 8 -4 15 -10 15 -5 0
-10 -7 -10 -15z"/>
<path d="M2911 703 c1 -21 5 -42 7 -47 3 -5 6 -28 6 -50 1 -39 3 -41 34 -44
41 -4 72 20 72 56 0 14 5 40 12 58 17 49 0 64 -74 64 l-60 0 3 -37z m104 -3
c4 -6 -12 -10 -39 -10 -25 0 -46 5 -46 10 0 6 18 10 39 10 22 0 43 -4 46 -10z
m-30 -50 c22 -8 24 -13 15 -30 -14 -27 -46 -26 -53 2 -6 20 -2 38 8 38 2 0 15
-4 30 -10z"/>
<path d="M2594 704 c3 -9 6 -22 6 -30 0 -8 10 -14 21 -14 18 0 19 3 9 15 -7 8
-10 22 -6 30 4 10 -1 15 -15 15 -15 0 -19 -5 -15 -16z"/>
<path d="M3217 565 c-43 -15 -40 -13 -56 -42 -15 -29 -6 -47 40 -79 44 -30
113 -41 169 -27 28 7 36 15 38 36 3 21 -3 29 -22 38 -20 9 -23 15 -15 25 14
17 6 28 -35 48 -41 19 -68 20 -119 1z m111 -53 c3 -20 0 -23 -17 -17 -11 3
-43 7 -71 7 -27 1 -50 4 -50 8 0 15 47 29 90 27 39 -2 45 -5 48 -25z m17 -42
c3 -5 -1 -10 -10 -10 -9 0 -13 5 -10 10 3 6 8 10 10 10 2 0 7 -4 10 -10z m-50
-10 c4 -7 -3 -10 -19 -8 -35 5 -45 18 -13 18 14 0 29 -5 32 -10z"/>
<path d="M2 538 c2 -26 8 -32 31 -35 21 -3 27 0 27 16 0 18 -34 51 -53 51 -4
0 -7 -14 -5 -32z"/>
<path d="M3432 465 c0 -16 2 -22 5 -12 2 9 2 23 0 30 -3 6 -5 -1 -5 -18z"/>
<path d="M1360 347 c0 -7 14 -25 31 -40 37 -33 103 -39 97 -9 -2 13 -15 18
-50 20 -36 2 -48 8 -53 23 -7 21 -25 26 -25 6z"/>
<path d="M660 203 c0 -145 5 -183 24 -183 12 0 14 289 2 309 -20 31 -26 0 -26
-126z"/>
<path d="M1265 321 c-7 -13 12 -51 25 -51 6 0 10 8 10 19 0 23 -25 46 -35 32z"/>
<path d="M1115 150 c-3 -5 -1 -10 4 -10 6 0 11 5 11 10 0 6 -2 10 -4 10 -3 0
-8 -4 -11 -10z"/>
<path d="M1260 67 c0 -22 34 -47 63 -47 38 0 33 15 -10 35 -21 10 -41 20 -45
22 -5 2 -8 -2 -8 -10z"/>
</g>
</svg>
