<?xml version="1.0" standalone="no"?>
<!DOCTYPE svg PUBLIC "-//W3C//DTD SVG 20010904//EN"
 "http://www.w3.org/TR/2001/REC-SVG-20010904/DTD/svg10.dtd">
<svg version="1.0" xmlns="http://www.w3.org/2000/svg"
 width="384.000000pt" height="256.000000pt" viewBox="0 0 384.000000 256.000000"
 preserveAspectRatio="xMidYMid meet">
<metadata>
Created by potrace 1.16, written by Peter Selinger 2001-2019
</metadata>
<g transform="translate(0.000000,256.000000) scale(0.100000,-0.100000)"
fill="#000000" stroke="none">
<path d="M136 2548 c-3 -7 -7 -51 -10 -98 -6 -86 14 -217 38 -248 10 -14 10
-458 -1 -519 -5 -31 14 -542 22 -593 13 -79 34 -180 38 -187 3 -5 8 -53 11
-108 15 -242 29 -361 43 -384 10 -16 18 -73 24 -193 5 -93 7 -173 4 -178 -8
-13 6 -40 21 -40 17 0 17 45 0 270 -8 115 -17 173 -28 190 -12 19 -19 76 -27
225 -12 197 -35 380 -51 400 -4 6 -14 129 -21 273 -10 225 -10 265 2 273 18
11 27 235 10 252 -7 7 -11 67 -11 169 0 119 -4 164 -14 181 -8 12 -17 42 -21
67 -4 25 -12 50 -17 57 -6 8 -6 24 1 45 12 37 11 158 -2 158 -4 0 -9 -6 -11
-12z"/>
<path d="M264 2508 c-4 -29 -8 -57 -8 -63 -1 -5 -6 -19 -12 -30 -7 -11 -15
-59 -19 -107 -5 -70 -4 -88 7 -88 20 -1 43 -39 56 -92 7 -26 14 -116 17 -200
3 -84 11 -201 17 -260 9 -88 14 -107 28 -111 13 -3 19 -18 23 -48 2 -24 8 -55
12 -69 4 -14 11 -77 16 -140 13 -191 27 -312 38 -323 6 -6 11 -44 11 -83 0
-40 4 -84 9 -97 5 -14 11 -76 12 -138 1 -63 5 -118 9 -124 5 -5 13 -50 19 -99
11 -88 15 -105 27 -93 5 5 -4 165 -23 410 -5 61 -4 67 14 67 10 0 79 14 153
31 74 17 164 37 200 44 36 8 88 21 115 29 28 9 51 16 52 16 5 0 0 -77 -7 -85
-13 -17 -20 -76 -11 -93 10 -20 18 -116 28 -325 l6 -148 -24 -17 c-21 -15
-122 -57 -234 -97 -75 -27 -256 -111 -276 -129 -34 -28 -46 -14 -48 54 -1 67
-7 84 -22 74 -6 -3 -8 -31 -6 -64 4 -49 2 -62 -14 -76 -30 -27 -23 -34 30 -34
34 0 66 9 102 28 30 15 74 35 99 46 25 10 68 29 95 41 28 12 73 30 100 40 46
16 103 40 195 84 l35 16 3 97 c2 69 10 115 27 164 21 62 22 70 9 85 -10 11
-12 19 -5 24 17 10 13 34 -9 63 -34 42 -10 50 62 20 69 -28 146 -46 223 -51
55 -4 159 -48 169 -72 8 -21 36 -19 36 3 0 22 19 42 41 42 22 0 79 -56 79 -78
0 -9 7 -26 15 -36 10 -13 15 -43 15 -85 0 -63 12 -103 25 -89 10 10 23 120 18
153 -4 27 2 35 53 73 31 24 71 49 88 55 17 5 40 16 51 24 11 7 36 13 57 13 21
0 38 5 38 10 0 6 14 10 30 10 29 0 133 51 146 71 13 22 -31 19 -77 -5 -59 -30
-83 -32 -164 -10 -33 9 -109 20 -170 24 -60 4 -120 11 -132 15 -20 6 -23 4
-23 -18 0 -39 -16 -40 -112 -6 -91 32 -308 83 -410 96 -34 5 -37 7 -32 32 7
35 -13 112 -34 127 -14 10 -11 13 23 23 22 6 49 11 61 11 11 0 40 6 65 14 24
8 78 19 119 26 41 7 100 18 130 26 151 36 230 54 275 63 28 6 62 13 78 17 21
5 27 3 27 -11 0 -9 8 -34 19 -54 10 -20 26 -53 34 -73 17 -38 37 -51 37 -23 0
29 -52 144 -68 150 -27 10 22 33 88 40 30 4 63 9 72 11 14 4 16 1 9 -23 -5
-16 -7 -41 -5 -58 2 -16 -1 -34 -6 -40 -5 -6 -11 -41 -14 -78 -3 -37 -12 -81
-20 -98 -17 -35 -12 -59 14 -59 35 0 28 -16 -15 -33 -43 -18 -63 -41 -45 -52
12 -7 91 24 113 44 14 14 28 16 70 10 28 -3 66 -12 83 -19 35 -15 84 -6 84 14
0 16 71 28 81 14 3 -4 16 3 29 17 13 14 32 25 42 25 10 0 23 9 30 19 11 19 13
19 46 -4 26 -18 40 -22 53 -15 10 6 21 10 25 10 4 0 4 -64 0 -142 -6 -135 -8
-144 -36 -186 -20 -31 -30 -58 -30 -84 0 -44 11 -48 45 -13 26 25 32 51 14 57
-7 2 -4 16 9 38 17 29 22 61 28 182 5 106 11 151 20 159 11 9 14 51 14 190 0
108 4 180 10 184 7 4 10 -61 10 -188 0 -215 -2 -207 65 -207 39 0 52 14 34 36
-10 13 -9 13 13 5 32 -12 52 1 45 28 -6 23 7 26 109 21 29 -1 55 3 59 9 11 18
-5 50 -28 57 -31 10 -67 51 -60 69 8 22 43 10 75 -27 22 -25 30 -29 41 -20 12
10 13 8 9 -13 -4 -22 -1 -25 25 -25 16 0 34 5 40 11 8 8 19 6 41 -5 19 -10 56
-16 96 -16 87 0 178 -28 171 -51 -4 -11 1 -22 12 -28 17 -9 17 -10 1 -16 -22
-9 -24 -48 -4 -64 16 -14 23 -41 30 -119 l5 -52 -34 0 c-29 0 -35 -4 -35 -21
0 -18 -4 -20 -27 -14 -78 20 -263 55 -294 55 l-37 0 2 67 c1 62 3 68 24 71 13
2 25 -3 28 -12 8 -22 154 -24 154 -2 0 7 -18 18 -42 23 -24 6 -33 11 -21 12
12 0 36 14 54 31 28 25 39 29 70 24 23 -4 39 -2 44 6 13 20 -11 32 -82 40 -37
4 -88 13 -112 19 -40 11 -46 11 -80 -13 -20 -14 -42 -26 -49 -26 -30 0 -42
-89 -22 -159 18 -63 -5 -87 -215 -228 -22 -15 -79 -53 -127 -85 -47 -32 -91
-58 -96 -58 -6 0 -12 -4 -14 -8 -1 -4 -20 -18 -40 -31 -50 -30 -48 -47 4 -55
23 -4 47 -11 53 -15 5 -5 24 -11 40 -14 35 -6 447 -113 585 -152 52 -15 120
-33 150 -40 106 -25 327 -85 354 -95 42 -16 106 -13 106 5 0 8 -12 17 -27 21
-27 5 -60 14 -348 91 -71 19 -170 45 -220 58 -49 13 -115 31 -145 39 -30 9
-93 25 -140 37 -47 11 -130 33 -185 49 -55 16 -117 31 -138 35 -22 4 -37 11
-34 18 2 6 29 27 59 47 105 66 148 95 221 148 39 30 88 62 107 72 19 10 43 27
53 37 14 16 25 19 60 13 23 -3 58 -12 77 -18 19 -7 91 -21 158 -32 68 -11 128
-23 134 -26 9 -6 276 -52 341 -59 20 -2 27 1 27 14 0 10 -6 18 -12 19 -29 2
-254 43 -263 47 -19 10 151 -6 213 -19 56 -11 62 -11 62 4 0 9 -5 21 -12 28
-8 8 -8 15 1 26 19 23 6 257 -16 273 -14 11 -13 16 5 55 17 37 20 65 21 210
l2 167 -35 6 c-59 11 -70 5 -77 -45 -4 -25 -6 -63 -5 -85 l2 -41 -57 4 c-57 4
-63 2 -92 -41 -10 -14 -11 -6 -9 48 4 61 12 79 28 54 3 -6 14 -9 24 -6 9 2 24
1 32 -4 11 -6 20 -3 29 7 11 14 10 18 -6 30 -10 8 -31 14 -46 14 -47 0 -59 9
-59 49 -1 39 -23 80 -35 62 -3 -6 -17 -11 -31 -11 -23 0 -24 -2 -17 -37 9 -42
7 -236 -3 -265 -5 -18 -6 -18 -29 0 -39 31 -106 44 -199 41 l-85 -4 4 25 c4
23 15 56 35 105 28 69 40 127 30 140 -6 8 -10 26 -8 42 l4 28 12 -28 c19 -44
35 -23 28 34 -4 28 -3 49 3 49 14 0 21 -28 14 -61 -5 -28 -4 -31 15 -25 11 4
23 2 26 -3 4 -6 13 -8 20 -5 8 3 17 1 21 -5 10 -17 78 -13 103 5 18 12 22 22
17 43 -4 19 0 32 14 46 41 40 52 47 64 37 21 -16 69 -25 152 -27 70 -2 81 1
97 19 9 12 17 33 18 48 0 26 -1 27 -27 16 -16 -7 -34 -19 -41 -27 -11 -14 -14
-14 -22 -1 -13 20 -13 60 0 60 6 0 10 14 10 31 0 26 -2 29 -14 19 -17 -13 -61
-10 -61 5 0 6 17 11 38 13 29 3 37 7 37 22 0 14 -10 21 -37 26 -52 10 -62 -7
-51 -93 4 -37 6 -74 3 -80 -8 -23 -31 -13 -46 20 -12 27 -19 32 -49 32 -31 0
-35 -3 -35 -27 0 -14 -4 -30 -8 -34 -11 -12 -27 16 -27 49 0 25 -3 27 -40 27
-37 0 -39 -2 -46 -35 -3 -19 -10 -35 -14 -35 -5 0 -15 -3 -23 -6 -10 -3 -18 2
-22 15 -8 28 -45 28 -45 1 0 -14 -7 -20 -23 -20 -13 0 -27 -3 -31 -7 -4 -5
-22 -8 -40 -8 l-32 0 2 58 c2 43 -1 59 -12 64 -32 12 -10 21 41 16 78 -8 85 0
85 106 0 47 -4 92 -9 100 -7 11 -29 13 -112 7 -57 -4 -109 -12 -116 -18 -9 -7
-13 -39 -13 -97 0 -74 -3 -89 -20 -104 -15 -13 -20 -29 -20 -67 0 -44 -3 -50
-21 -50 -11 0 -18 4 -14 9 3 5 1 12 -4 16 -6 3 -6 17 1 35 15 45 5 57 -54 65
-29 4 -68 14 -85 22 -27 13 -33 21 -33 47 0 36 -28 68 -74 86 -38 14 -59 -4
-81 -73 -9 -29 -37 -87 -61 -131 -45 -79 -51 -96 -36 -96 13 0 36 29 71 92
l32 57 74 -4 c41 -2 79 -6 83 -9 5 -3 19 -34 31 -69 23 -71 37 -251 21 -277
-7 -10 -10 6 -10 52 0 37 -4 70 -10 73 -5 3 -7 19 -4 34 7 32 -13 52 -23 24
-12 -36 -35 -53 -60 -46 -16 3 -28 1 -34 -8 -8 -11 -14 -8 -34 14 -14 15 -25
37 -25 48 0 14 -7 19 -25 19 -28 0 -32 -12 -10 -30 8 -7 15 -19 15 -26 0 -18
31 -54 47 -54 9 0 13 -18 13 -62 0 -50 -4 -66 -22 -86 -21 -22 -23 -33 -23
-152 0 -70 -2 -124 -5 -120 -3 4 -33 11 -68 15 -34 4 -64 11 -67 15 -5 9 18
88 37 127 15 30 1 45 -41 42 -86 -5 -81 -10 -81 95 0 53 4 98 10 101 14 9 13
52 -2 57 -9 3 -8 16 2 52 11 39 11 57 0 101 -12 50 -11 107 6 248 9 70 0 94
-37 102 -47 10 -120 -3 -126 -23 -4 -18 3 -18 -411 4 l-134 7 7 33 c5 30 3 35
-19 44 -24 9 -25 13 -20 62 3 29 10 75 15 101 12 63 12 67 -5 67 -10 0 -16
-19 -21 -60 -5 -44 -12 -63 -26 -71 -15 -7 -19 -21 -19 -59 0 -27 -4 -51 -10
-55 -12 -7 -1 -35 14 -35 7 0 24 -6 39 -12 l27 -13 0 -199 c0 -110 -3 -197 -6
-194 -13 14 -34 137 -40 240 -4 62 -11 120 -15 130 -7 13 -30 17 -116 22 -60
4 -169 11 -243 16 -74 5 -209 13 -300 19 -163 10 -248 21 -325 40 -22 6 -59
11 -82 11 -66 0 -88 38 -63 106 13 34 5 43 -18 21 -12 -13 -18 -37 -19 -85 -3
-77 -21 -472 -31 -672 -5 -122 -7 -128 -12 -65 -5 65 -7 70 -27 67 -19 -3 -22
3 -28 45 -14 111 -13 109 -56 157 0 1 -4 89 -9 196 -11 263 -24 343 -63 387
-30 34 -30 34 -19 101 6 37 16 92 22 122 20 97 21 110 6 110 -9 0 -17 -18 -22
-52z m1436 -427 c0 -6 -4 -13 -10 -16 -5 -3 -10 1 -10 9 0 9 5 16 10 16 6 0
10 -4 10 -9z m-1068 -62 c40 -4 102 -12 138 -18 36 -7 144 -17 240 -22 96 -6
236 -15 310 -20 74 -5 179 -12 233 -15 53 -3 97 -6 98 -7 0 -1 4 -72 9 -157 5
-85 12 -166 14 -180 11 -53 23 -155 20 -159 -2 -2 -34 -7 -71 -11 -38 -5 -99
-13 -138 -20 -38 -6 -117 -16 -175 -21 -58 -6 -139 -14 -180 -19 -202 -23
-262 -30 -345 -41 -49 -6 -128 -14 -175 -17 -47 -4 -91 -11 -99 -16 -12 -8
-13 15 -8 150 4 87 9 224 12 304 8 226 12 276 20 290 6 9 9 9 16 -1 5 -9 37
-16 81 -20z m1787 -68 c11 -1 12 -13 5 -63 -5 -35 -10 -133 -11 -218 0 -85 -1
-166 -2 -180 0 -14 -1 -68 -2 -120 -1 -76 -5 -100 -20 -121 -19 -27 -25 -29
-188 -53 -32 -5 -47 35 -56 154 -9 123 -15 130 -112 130 -43 0 -89 -6 -110
-15 -19 -8 -64 -15 -99 -15 l-64 0 0 243 0 242 254 -10 c227 -9 256 -12 275
-29 16 -14 24 -16 34 -7 18 14 37 -25 37 -73 0 -38 25 -57 33 -25 3 10 1 22
-4 25 -6 3 -7 25 -3 51 8 52 -2 63 -53 63 -18 0 -33 4 -33 9 0 11 43 19 80 15
14 -1 31 -3 39 -3z m858 -129 l-3 -67 -89 0 -90 0 -3 62 -3 62 43 5 c57 8 131
12 140 8 5 -2 7 -33 5 -70z m-546 -32 c5 0 9 7 9 15 0 13 4 14 20 5 11 -6 20
-20 20 -30 0 -21 -15 -27 -25 -10 -4 6 -16 5 -34 -5 -44 -22 -55 4 -23 53 l17
26 3 -27 c2 -15 8 -27 13 -27z m159 -120 c0 -5 -4 -10 -10 -10 -5 0 -10 5 -10
10 0 6 5 10 10 10 6 0 10 -4 10 -10z m50 -15 c-7 -8 -16 -15 -21 -15 -5 0 -9
7 -9 15 0 9 9 15 21 15 18 0 19 -2 9 -15z m144 -42 c5 -38 4 -41 -14 -36 -15
4 -20 14 -20 42 0 68 23 64 34 -6z m83 1 c2 -53 -12 -48 -22 9 -6 28 -4 37 6
37 10 0 15 -15 16 -46z m322 -23 c11 -7 12 -13 4 -23 -6 -7 -14 -29 -18 -48
-9 -40 -19 -50 -57 -50 -26 0 -28 3 -28 43 0 38 4 44 38 64 43 26 43 26 61 14z
m-349 -5 c0 -11 -19 -15 -25 -6 -3 5 1 10 9 10 9 0 16 -2 16 -4z m214 -43 c-1
-21 -2 -46 -3 -55 -1 -10 -6 -18 -12 -18 -10 0 -11 84 -2 103 10 19 20 3 17
-30z m-355 -25 c1 -51 9 -127 16 -147 7 -22 -2 -26 -40 -15 -17 4 -20 13 -19
50 3 81 41 180 43 112z m63 -3 c-2 -11 -4 -26 -4 -32 -2 -21 -14 -15 -26 12
-17 37 -15 47 11 43 16 -2 21 -9 19 -23z m128 -15 c0 -22 -4 -26 -27 -25 -23
0 -29 5 -31 28 -3 25 -1 27 27 25 26 -2 31 -6 31 -28z m-49 -55 c23 8 27 -22
4 -31 -8 -4 -15 -14 -15 -24 0 -25 -10 -50 -21 -50 -5 0 -9 4 -9 9 0 5 -5 22
-12 38 -20 51 -6 108 19 73 10 -14 21 -19 34 -15z m-360 3 c5 -103 4 -111 -18
-119 -22 -8 -23 -6 -23 54 0 58 11 87 32 87 4 0 9 -10 9 -22z m-667 -30 c3
-13 6 -48 6 -79 l0 -56 -58 -17 c-32 -9 -72 -16 -89 -16 -17 0 -58 -6 -90 -14
-32 -8 -70 -17 -85 -20 l-28 -6 0 80 c0 92 15 119 65 121 16 0 53 7 80 14 28
7 82 13 121 14 66 1 72 -1 78 -21z m1086 2 c0 -5 -2 -10 -4 -10 -3 0 -8 5 -11
10 -3 6 -1 10 4 10 6 0 11 -4 11 -10z m-1540 -53 c48 -10 55 -15 58 -37 2 -14
7 -34 13 -45 5 -11 8 -31 7 -45 -2 -18 1 -24 12 -22 10 2 11 0 5 -6 -9 -8
-113 -32 -197 -46 -15 -3 -33 -8 -40 -12 -6 -4 -46 -13 -87 -20 -67 -11 -178
-33 -249 -49 -20 -5 -22 -3 -13 14 6 11 11 58 11 104 l0 84 43 15 c23 9 89 21
147 27 67 7 109 16 115 25 19 26 89 31 175 13z m1410 -17 c0 -5 -2 -10 -4 -10
-3 0 -8 5 -11 10 -3 6 -1 10 4 10 6 0 11 -4 11 -10z m-1934 -27 c-11 -11 -65
-12 -72 -2 -3 5 14 9 37 9 23 0 39 -3 35 -7z m1778 -55 c-9 -89 -29 -107 -28
-24 1 63 7 86 24 86 6 0 7 -26 4 -62z m77 50 c0 -2 2 -33 5 -70 5 -65 -1 -79
-21 -59 -12 12 -7 131 6 131 5 0 9 -1 10 -2z m104 -56 c-2 -26 3 -42 16 -55
10 -10 19 -25 19 -33 0 -18 -28 -49 -37 -40 -3 3 -12 1 -20 -5 -8 -7 -13 -8
-13 -1 0 5 7 12 15 16 16 6 21 36 6 36 -4 0 -11 17 -14 38 -3 20 -9 47 -12 59
-5 16 -2 22 12 25 28 7 32 1 28 -40z m-260 -28 c31 -12 13 -22 -29 -18 -44 5
-45 5 -49 -28 -2 -19 -4 -8 -5 28 -2 54 0 62 21 71 19 9 24 7 35 -19 7 -16 19
-31 27 -34z m-2078 45 c-17 -10 -166 -29 -217 -28 -23 0 -23 1 -5 9 11 5 55 9
97 9 42 1 80 6 83 11 3 6 18 10 33 10 23 -1 25 -2 9 -11z m357 -15 c8 -20 6
-142 -3 -173 -5 -18 -18 -27 -46 -35 -35 -10 -41 -16 -45 -45 -5 -31 -10 -36
-58 -51 -29 -10 -76 -20 -106 -24 -29 -3 -75 -12 -102 -20 -83 -25 -177 -48
-217 -53 l-37 -5 2 168 3 169 70 12 c39 6 97 17 131 23 82 16 321 47 365 49
25 1 39 -4 43 -15z m1926 -65 c0 -11 -4 -18 -10 -14 -5 3 -7 12 -3 20 7 21 13
19 13 -6z m-2565 -122 c-9 -105 -19 -95 -29 30 -5 61 -3 82 6 86 24 8 30 -24
23 -116z m1670 107 c-3 -43 -19 -124 -25 -124 -8 0 -12 15 -25 92 -4 30 -2 37
12 41 24 6 38 3 38 -9z m352 4 l32 1 -21 -42 c-33 -66 -36 -77 -52 -156 -19
-94 -30 -105 -99 -102 -39 2 -59 -2 -71 -14 -27 -27 -50 -15 -60 33 -6 23 -15
42 -21 42 -15 0 -56 56 -47 65 4 4 7 14 8 23 2 40 17 102 28 111 6 4 47 14 91
20 44 6 94 15 110 20 17 5 39 7 50 4 11 -4 34 -5 52 -5z m1318 -19 c4 -12 2
-26 -4 -32 -8 -8 -11 -7 -11 5 0 9 -3 23 -6 32 -3 9 -1 16 4 16 6 0 14 -9 17
-21z m-902 -19 c24 0 28 -3 19 -12 -7 -7 -12 -36 -12 -65 0 -55 -5 -61 -30
-40 -10 8 -15 31 -15 75 0 34 2 58 3 52 2 -5 18 -10 35 -10z m811 12 c22 -4
41 -13 44 -21 4 -12 -10 -13 -77 -8 -87 5 -105 12 -81 27 17 11 59 12 114 2z
m-2577 -34 c-3 -7 -5 -2 -5 12 0 14 2 19 5 13 2 -7 2 -19 0 -25z m2260 -39
c26 -13 49 -32 51 -41 3 -15 -1 -15 -44 -2 -27 8 -88 16 -136 17 -48 2 -91 7
-95 11 -5 4 3 17 17 28 21 17 35 20 92 16 42 -3 84 -14 115 -29z m388 11 c3
-5 1 -10 -4 -10 -6 0 -11 5 -11 10 0 6 2 10 4 10 3 0 8 -4 11 -10z m-1032 -97
c2 -35 0 -63 -5 -63 -4 0 -7 35 -7 78 1 85 6 80 12 -15z m944 81 c-3 -3 -12
-4 -19 -1 -8 3 -5 6 6 6 11 1 17 -2 13 -5z m-190 -56 c-3 -8 -6 -5 -6 6 -1 11
2 17 5 13 3 -3 4 -12 1 -19z m-523 -3 c6 -17 4 -18 -18 -9 -20 8 -21 24 -2 24
8 0 16 -7 20 -15z m701 -22 c29 -56 29 -60 6 -36 -11 12 -21 27 -21 33 0 5 -4
10 -10 10 -5 0 -10 7 -10 15 0 26 16 16 35 -22z m-55 -9 c0 -15 -9 -18 -25 -6
-9 6 -11 15 -6 38 2 12 31 -18 31 -32z m105 26 c4 -7 13 -6 26 1 30 16 33 6
11 -36 l-19 -38 -21 35 c-12 20 -22 38 -22 42 0 10 18 7 25 -4z m-1225 -19 c0
-11 3 -28 6 -38 3 -10 -2 -7 -10 7 -18 29 -20 50 -6 50 6 0 10 -9 10 -19z
m-1445 -1 c-3 -5 -10 -10 -16 -10 -5 0 -9 5 -9 10 0 6 7 10 16 10 8 0 12 -4 9
-10z m2458 -42 c6 -23 1 -38 -12 -38 -10 0 -21 47 -13 55 11 10 20 4 25 -17z
m170 -37 c9 -10 8 -14 -5 -22 -22 -12 -24 -49 -2 -49 13 0 12 -5 -5 -29 -12
-16 -21 -34 -21 -41 0 -6 -7 -19 -16 -27 -10 -11 -14 -28 -12 -50 4 -33 4 -33
-37 -33 -68 0 -76 12 -67 103 5 44 14 82 21 86 8 5 10 18 6 34 -4 14 -4 31 0
37 9 15 122 7 138 -9z m-586 -27 c-9 -9 -28 6 -21 18 4 6 10 6 17 -1 6 -6 8
-13 4 -17z m633 16 c0 -5 -8 -10 -17 -10 -15 0 -16 2 -3 10 19 12 20 12 20 0z
m-2565 -105 c39 -4 90 -13 115 -20 25 -7 70 -18 100 -25 68 -15 242 -70 253
-80 4 -4 -13 -10 -39 -14 -37 -5 -57 -2 -91 15 -32 16 -67 22 -141 24 -69 3
-115 10 -153 25 -30 11 -84 27 -121 36 -63 14 -80 28 -61 48 4 4 21 5 38 2 16
-3 62 -8 100 -11z m2605 5 c11 -7 15 -26 14 -74 -1 -35 -5 -69 -8 -75 -8 -12
-112 -15 -119 -3 -7 10 16 91 36 130 18 33 47 41 77 22z m-1816 -102 c19 -10
19 -11 1 -25 -11 -7 -36 -18 -57 -23 -20 -6 -44 -17 -52 -25 -8 -8 -17 -15
-21 -15 -13 0 -75 -64 -76 -79 0 -9 -11 7 -23 34 -13 28 -34 58 -46 68 -12 10
-20 20 -18 21 1 2 33 17 70 33 58 25 76 28 135 25 37 -2 77 -9 87 -14z m1509
-65 c-7 -2 -19 -2 -25 0 -7 3 -2 5 12 5 14 0 19 -2 13 -5z"/>
<path d="M390 2483 c0 -36 -6 -67 -15 -80 -19 -28 -36 -142 -23 -165 5 -10 15
-18 24 -18 12 0 13 8 8 35 -4 22 2 69 16 129 23 98 24 147 3 154 -10 3 -13
-13 -13 -55z"/>
<path d="M531 2484 c0 -11 3 -14 6 -6 3 7 2 16 -1 19 -3 4 -6 -2 -5 -13z"/>
<path d="M631 2482 c-16 -30 -15 -155 2 -150 7 3 14 33 18 79 7 77 -1 106 -20
71z"/>
<path d="M735 2478 c-2 -7 -6 -38 -8 -68 -3 -30 -12 -86 -21 -125 -20 -88 -20
-115 -1 -115 10 0 15 10 15 33 1 17 8 59 17 92 21 77 29 195 14 195 -7 0 -14
-6 -16 -12z"/>
<path d="M827 2355 c-10 -63 -25 -128 -35 -144 -16 -29 -16 -31 0 -47 19 -19
16 -23 36 51 11 39 42 221 42 244 0 6 -6 11 -13 11 -9 0 -19 -35 -30 -115z"/>
<path d="M936 2409 c-3 -17 -6 -48 -6 -68 0 -20 -4 -41 -9 -46 -5 -6 -13 -43
-17 -84 -6 -61 -4 -73 7 -69 9 3 16 27 20 69 4 35 11 77 18 92 13 33 15 137 2
137 -5 0 -11 -14 -15 -31z"/>
<path d="M1020 2348 c0 -50 -5 -76 -15 -88 -20 -22 -25 -121 -7 -127 8 -3 12
8 12 35 0 22 9 68 20 102 24 77 27 150 5 150 -12 0 -15 -15 -15 -72z"/>
<path d="M1106 2395 c-9 -26 -7 -105 3 -105 15 0 19 11 22 64 3 49 -12 74 -25
41z"/>
<path d="M1 2318 c-1 -73 0 -78 29 -105 l30 -28 4 -265 c3 -146 2 -247 -2
-225 -4 22 -11 46 -16 53 -14 22 -25 2 -20 -36 3 -20 6 -104 8 -187 4 -147 9
-185 27 -185 13 0 11 -124 -3 -193 l-12 -59 -11 53 c-5 29 -16 54 -23 57 -10
3 -11 -14 -8 -75 3 -43 8 -181 12 -308 11 -427 23 -752 30 -788 3 -15 10 -24
16 -21 9 6 4 323 -7 454 -9 104 -14 573 -7 555 8 -16 10 -15 15 14 4 19 8 45
8 60 1 23 12 -106 48 -579 6 -80 16 -192 21 -250 6 -58 10 -130 10 -160 0 -68
8 -100 25 -100 9 0 12 13 9 43 l-4 42 11 -42 c9 -40 22 -53 32 -35 5 8 -10
205 -18 240 -8 33 -23 27 -27 -10 -4 -40 -8 1 -48 502 -34 439 -40 739 -15
760 9 7 15 29 15 50 0 47 -10 77 -20 60 -4 -6 -9 124 -13 289 l-6 301 -33 39
c-23 27 -36 57 -44 98 l-12 58 -1 -77z m66 -690 c-3 -8 -6 -5 -6 6 -1 11 2 17
5 13 3 -3 4 -12 1 -19z m0 -160 c-3 -8 -6 -5 -6 6 -1 11 2 17 5 13 3 -3 4 -12
1 -19z m120 -1360 c-3 -8 -6 -5 -6 6 -1 11 2 17 5 13 3 -3 4 -12 1 -19z"/>
<path d="M1187 2383 c-4 -3 -7 -31 -7 -60 0 -30 -4 -63 -10 -73 -5 -10 -13
-44 -16 -75 -6 -47 -4 -57 7 -53 8 2 15 18 17 34 2 16 10 51 18 78 8 27 14 74
14 103 0 49 -7 63 -23 46z"/>
<path d="M1257 2383 c-4 -3 -7 -29 -7 -57 0 -28 -7 -64 -15 -80 -19 -37 -20
-126 -1 -126 9 0 13 17 14 62 1 33 5 64 11 67 14 9 27 141 14 141 -5 0 -13 -3
-16 -7z"/>
<path d="M1327 2323 c-6 -59 -2 -77 14 -68 11 8 12 125 0 125 -4 0 -11 -26
-14 -57z"/>
<path d="M1406 2361 c-8 -13 -26 -143 -20 -152 2 -4 0 -9 -6 -11 -5 -1 -13
-24 -16 -50 -6 -40 -4 -48 10 -48 12 0 16 10 16 40 0 21 6 59 14 82 17 53 26
137 15 143 -4 3 -10 1 -13 -4z"/>
<path d="M1526 2328 c-2 -7 -7 -47 -10 -88 -3 -41 -9 -92 -12 -112 -5 -30 -3
-38 8 -38 25 0 51 231 28 245 -6 3 -12 0 -14 -7z"/>
<path d="M1596 2308 c-10 -31 -29 -137 -33 -178 -6 -60 9 -42 29 35 25 92 32
155 19 155 -6 0 -13 -6 -15 -12z"/>
<path d="M1650 2266 c0 -46 15 -70 26 -42 8 21 -4 86 -16 86 -6 0 -10 -20 -10
-44z"/>
<path d="M609 2293 c-1 -5 -2 -34 -3 -65 -1 -50 1 -58 18 -58 15 0 17 5 12 31
-3 17 -6 47 -6 65 0 19 -4 34 -10 34 -5 0 -11 -3 -11 -7z"/>
<path d="M1766 2268 c-3 -13 -7 -52 -11 -88 -3 -36 -7 -74 -8 -84 -2 -23 18
-33 26 -12 13 32 20 206 9 206 -7 0 -14 -10 -16 -22z"/>
<path d="M1815 2257 c-8 -32 -3 -72 10 -72 6 0 11 17 13 39 4 46 -14 72 -23
33z"/>
<path d="M1082 2230 c-26 -53 -29 -100 -7 -100 9 0 15 10 15 26 0 14 5 34 11
45 5 11 9 32 7 47 -4 26 -5 25 -26 -18z"/>
<path d="M1871 2247 c-6 -16 -11 -42 -11 -58 0 -46 24 -30 31 19 7 53 -6 77
-20 39z"/>
<path d="M2140 2261 c0 -17 51 -31 265 -76 44 -9 96 -22 115 -30 20 -7 51 -15
70 -17 29 -2 35 0 35 17 0 14 -8 21 -25 23 -14 1 -74 15 -135 32 -104 27 -272
60 -308 60 -10 0 -17 -4 -17 -9z"/>
<path d="M1466 2238 c-2 -7 -8 -42 -13 -77 -8 -50 -7 -64 4 -68 8 -3 15 -4 17
-2 9 10 13 149 5 155 -5 3 -11 -1 -13 -8z"/>
<path d="M1966 2243 c-3 -3 -6 -31 -6 -62 0 -65 15 -58 23 11 6 44 -1 66 -17
51z"/>
<path d="M1914 2225 c-4 -9 -2 -30 3 -48 l10 -32 4 43 c5 44 -6 67 -17 37z"/>
<path d="M2056 2233 c-3 -3 -6 -27 -6 -52 0 -52 15 -46 25 10 6 34 -4 57 -19
42z"/>
<path d="M2096 2198 c-22 -116 -27 -160 -22 -175 13 -34 25 4 32 100 4 53 4
97 1 97 -4 0 -9 -10 -11 -22z"/>
<path d="M389 2203 c-4 -34 2 -396 6 -404 17 -27 22 17 20 186 -1 127 2 182 9
175 16 -16 26 -12 26 10 0 13 -10 24 -26 30 -30 12 -34 12 -35 3z"/>
<path d="M1306 2194 c-9 -24 -7 -94 3 -94 13 0 21 27 21 71 0 40 -13 52 -24
23z"/>
<path d="M2175 2177 c-8 -32 -3 -72 10 -72 6 0 11 17 13 39 4 46 -14 72 -23
33z"/>
<path d="M3822 2106 c-7 -20 -15 -116 -19 -227 -5 -182 -5 -195 13 -211 19
-16 19 -11 21 228 2 134 2 244 0 244 -2 0 -9 -15 -15 -34z"/>
<path d="M3518 1915 c-3 -3 -3 -27 0 -54 2 -30 0 -51 -7 -55 -18 -11 -13 -26
9 -26 18 0 20 7 20 70 0 63 -6 81 -22 65z"/>
<path d="M275 1879 c-3 -8 -1 -220 4 -470 8 -430 10 -457 30 -501 21 -46 28
-103 60 -468 6 -69 11 -173 11 -232 0 -93 2 -108 16 -108 15 0 16 15 11 148
-7 193 -35 539 -48 599 -25 118 -47 406 -54 708 -6 290 -13 367 -30 324z"/>
<path d="M3348 1834 c-3 -5 -2 -18 2 -28 3 -11 9 -15 12 -10 3 5 2 18 -2 28
-3 11 -9 15 -12 10z"/>
<path d="M3373 1710 c-43 -17 -15 -46 33 -34 27 7 30 14 12 32 -14 14 -15 14
-45 2z"/>
<path d="M3252 1682 c-6 -4 -14 -27 -18 -50 -10 -61 18 -58 32 3 11 47 7 59
-14 47z"/>
<path d="M2730 1546 c0 -14 21 -26 46 -26 8 0 14 9 14 20 0 16 -7 20 -30 20
-19 0 -30 -5 -30 -14z"/>
<path d="M3598 1413 c-5 -68 1 -91 21 -79 17 11 14 146 -3 146 -10 0 -15 -19
-18 -67z"/>
<path d="M3667 1403 c-14 -13 -7 -63 8 -63 10 0 15 11 15 35 0 33 -8 43 -23
28z"/>
<path d="M1600 1045 c0 -14 14 -49 50 -130 11 -22 22 -49 26 -60 7 -16 9 -13
12 17 2 27 -7 58 -32 113 -33 70 -56 95 -56 60z"/>
<path d="M53 833 c2 -60 12 -220 21 -358 9 -137 20 -299 24 -359 5 -78 11
-111 20 -114 15 -5 15 -5 -8 423 -9 159 -19 289 -36 463 -3 28 -10 52 -16 52
-7 0 -9 -37 -5 -107z"/>
<path d="M2700 837 c0 -13 7 -32 15 -43 19 -25 19 -35 0 -28 -19 8 -19 -10 0
-26 40 -33 59 23 28 79 -23 39 -43 48 -43 18z"/>
<path d="M2403 784 c-9 -23 13 -40 32 -24 8 7 15 19 15 26 0 19 -39 18 -47 -2z"/>
<path d="M3137 758 c-3 -12 -4 -25 -1 -30 9 -13 34 12 34 33 0 26 -26 24 -33
-3z"/>
<path d="M3190 586 c0 -23 41 -57 62 -50 10 3 18 1 18 -5 0 -14 -39 -14 -94 0
-31 7 -43 16 -42 27 1 22 -18 21 -49 -2 -35 -27 -31 -44 13 -51 55 -9 62 -13
62 -29 0 -12 -9 -11 -54 5 -64 22 -91 17 -75 -12 5 -11 7 -24 4 -29 -10 -16
18 -24 29 -8 7 10 18 12 31 7 11 -4 14 -8 8 -8 -18 -1 -16 -41 2 -41 8 0 15
-9 15 -20 0 -11 5 -20 11 -20 6 0 4 -7 -5 -15 -22 -22 -9 -48 20 -41 14 4 38
-1 56 -10 17 -9 53 -17 79 -19 56 -3 132 -30 176 -62 40 -29 76 -34 81 -10 2
10 -2 17 -10 17 -8 0 -32 13 -54 30 -21 16 -44 30 -50 30 -18 0 -87 31 -81 36
10 11 102 -19 129 -41 16 -14 37 -25 45 -25 9 0 24 -7 34 -16 19 -17 73 -32
145 -39 48 -5 85 -20 97 -41 12 -20 47 -17 47 4 0 9 -4 22 -8 29 -10 16 -87
43 -122 43 -15 0 -41 7 -56 15 -16 8 -38 15 -50 15 -11 0 -29 7 -40 15 -18 14
-17 14 9 5 38 -14 57 -13 57 3 0 18 -71 57 -104 57 -19 0 -26 5 -26 19 0 21
-40 36 -72 25 -16 -5 -19 -3 -14 14 8 24 -19 51 -36 34 -8 -8 -19 -7 -40 4
-16 8 -33 12 -38 9 -5 -3 -20 3 -32 15 l-22 20 39 -4 c65 -6 109 -18 127 -33
9 -8 22 -12 27 -8 14 8 14 35 1 35 -15 0 -12 27 3 33 19 7 107 -4 107 -14 0
-21 166 -50 184 -32 4 4 21 8 39 9 17 1 36 9 42 18 7 9 15 13 18 9 4 -3 7 0 7
9 0 11 -10 14 -44 11 -37 -4 -47 -1 -56 16 -11 22 -40 29 -40 10 0 -6 5 -19
10 -30 15 -26 -9 -26 -40 1 -26 22 -36 25 -45 10 -3 -5 -16 -10 -28 -10 -17 0
-19 2 -8 9 11 7 10 11 -7 20 -28 15 -42 14 -42 -4 0 -21 -12 -19 -55 11 -34
22 -42 24 -64 14 -14 -7 -38 -16 -53 -20 -25 -8 -28 -6 -28 13 0 12 -9 28 -20
35 -23 14 -27 1 -10 -42 9 -26 9 -26 -15 -10 -14 9 -25 22 -25 29 0 7 -15 19
-32 26 -18 7 -36 14 -40 17 -5 2 -8 -3 -8 -12z m8 -196 c12 -5 22 -18 22 -29
0 -11 10 -27 22 -35 17 -12 18 -16 7 -16 -29 0 -79 22 -78 34 3 26 -2 36 -20
36 -10 0 -21 9 -24 19 -7 28 3 34 27 16 12 -8 31 -20 44 -25z m140 -12 c8 -8
15 -8 26 1 12 10 19 8 35 -8 12 -12 25 -21 29 -21 5 0 17 -6 28 -14 17 -13 15
-14 -21 -6 -22 5 -56 10 -76 10 -31 0 -37 4 -41 25 -6 27 1 32 20 13z m-33
-78 c3 -5 2 -10 -4 -10 -5 0 -13 5 -16 10 -3 6 -2 10 4 10 5 0 13 -4 16 -10z"/>
<path d="M3358 553 c6 -2 18 -2 25 0 6 3 1 5 -13 5 -14 0 -19 -2 -12 -5z"/>
<path d="M2931 481 c-12 -8 -12 -12 -2 -25 7 -8 10 -20 6 -26 -4 -7 2 -14 14
-17 24 -6 28 -23 6 -23 -8 0 -15 -5 -15 -10 0 -17 31 -24 51 -11 17 10 21 8
29 -13 9 -26 38 -46 64 -46 26 0 18 29 -9 36 -27 7 -34 24 -10 24 8 0 15 9 15
19 0 13 -5 18 -18 14 -33 -8 -72 14 -72 41 0 15 -8 30 -19 36 -23 12 -22 12
-40 1z"/>
<path d="M3523 463 c-22 -8 -14 -33 10 -33 30 0 40 10 26 27 -12 14 -16 15
-36 6z"/>
<path d="M975 103 c-39 -40 -43 -53 -17 -53 21 0 87 46 86 60 -3 26 -5 30 -19
30 -8 0 -30 -16 -50 -37z"/>
<path d="M2700 73 c1 -19 18 -30 70 -46 62 -19 150 -33 150 -24 0 12 -75 44
-130 57 -30 6 -63 14 -72 17 -10 2 -18 1 -18 -4z"/>
<path d="M3120 71 c0 -17 120 -72 148 -68 26 4 26 4 5 12 -13 4 -23 11 -23 15
0 9 -96 50 -116 50 -8 0 -14 -4 -14 -9z"/>
</g>
</svg>
