<?xml version="1.0" standalone="no"?>
<!DOCTYPE svg PUBLIC "-//W3C//DTD SVG 20010904//EN"
 "http://www.w3.org/TR/2001/REC-SVG-20010904/DTD/svg10.dtd">
<svg version="1.0" xmlns="http://www.w3.org/2000/svg"
 width="384.000000pt" height="256.000000pt" viewBox="0 0 384.000000 256.000000"
 preserveAspectRatio="xMidYMid meet">
<metadata>
Created by potrace 1.16, written by Peter Selinger 2001-2019
</metadata>
<g transform="translate(0.000000,256.000000) scale(0.100000,-0.100000)"
fill="#000000" stroke="none">
<path d="M654 2546 c-3 -8 0 -56 6 -107 6 -52 15 -132 21 -178 5 -46 13 -89
18 -95 8 -11 14 -48 26 -163 l5 -53 -34 0 c-34 0 -55 -13 -38 -24 5 -3 44 -6
86 -7 68 -3 79 -6 86 -23 5 -12 18 -48 30 -81 12 -33 32 -87 44 -120 13 -33
33 -87 46 -120 12 -33 28 -74 36 -92 8 -17 14 -36 14 -42 0 -6 14 -40 30 -74
17 -35 30 -69 30 -76 0 -6 12 -17 26 -23 15 -7 27 -23 31 -40 6 -30 36 -54 54
-42 7 4 5 12 -4 22 -8 10 -24 42 -37 74 -15 35 -31 60 -46 67 -26 12 -34 37
-8 27 9 -3 26 -6 39 -6 18 0 27 -11 44 -50 12 -27 24 -70 28 -95 7 -52 12 -58
48 -49 30 7 34 44 10 101 -8 19 -15 47 -15 62 -1 14 -7 37 -15 51 -8 14 -14
42 -15 63 0 41 -27 147 -37 147 -9 0 6 -124 22 -194 26 -110 14 -116 -25 -12
-13 36 -27 66 -31 66 -3 0 -4 10 -2 23 2 12 -3 47 -12 77 -9 30 -17 66 -19 80
-1 14 -10 48 -18 75 -8 28 -21 75 -28 105 -19 82 -30 107 -39 91 -8 -13 30
-187 50 -226 5 -11 9 -33 8 -50 -1 -16 6 -47 15 -67 21 -49 21 -86 -1 -90 -12
-2 -17 -13 -18 -32 0 -40 -18 -43 -32 -6 -10 26 -8 38 7 73 23 50 25 86 6 93
-8 3 -16 19 -20 35 -3 17 -10 28 -16 24 -12 -8 -13 -35 -1 -35 13 0 20 -62 12
-101 l-8 -34 -10 25 c-31 73 -53 135 -53 149 0 10 -4 21 -10 27 -11 11 -79
202 -80 222 0 7 -13 26 -30 42 -16 16 -30 34 -30 40 0 5 -5 10 -11 10 -5 0 -7
5 -3 11 4 8 9 8 17 0 7 -7 60 -11 139 -11 l128 0 0 -34 c0 -19 4 -37 9 -40 4
-3 16 -56 25 -118 10 -62 22 -126 28 -141 17 -44 30 -17 19 39 -6 27 -18 87
-27 134 -9 47 -20 103 -24 125 -5 22 -5 43 -1 47 4 5 42 17 84 28 42 11 92 29
109 40 45 27 73 26 74 -2 14 -204 26 -358 30 -375 9 -42 24 -23 24 30 -1 70
-17 274 -26 322 -7 37 -6 38 20 31 64 -16 146 -88 146 -127 0 -10 9 -23 19
-29 13 -7 336 -10 976 -10 526 0 960 -2 964 -4 4 -3 72 -6 151 -7 119 -2 145
0 145 12 0 8 -12 15 -30 17 -55 5 -75 12 -75 28 0 8 -13 27 -30 41 -22 18 -30
33 -30 58 0 52 -25 102 -55 107 -20 4 -30 -1 -48 -26 -12 -17 -21 -38 -19 -47
1 -8 -8 -27 -22 -41 -13 -15 -30 -40 -37 -57 -17 -39 -27 -42 -123 -42 -64 0
-83 4 -100 19 -12 11 -34 26 -51 35 -38 19 -218 60 -268 61 -29 1 -36 4 -31
16 13 35 38 159 41 205 4 70 20 155 32 168 5 7 9 29 8 49 l-1 38 -93 -1 c-79
-1 -93 -3 -91 -16 2 -9 -3 -18 -10 -21 -9 -2 -12 3 -10 14 3 18 -9 19 -211 22
-194 2 -215 1 -227 -15 -12 -17 -13 -17 -14 -1 0 16 -37 17 -559 18 l-559 0
-7 -72 c-4 -40 -5 -91 -3 -113 l3 -40 54 -8 c38 -7 56 -6 61 3 5 8 9 7 13 -4
4 -9 14 -15 24 -14 42 3 50 -2 49 -31 -1 -26 -3 -28 -16 -16 -9 8 -45 22 -80
31 -76 19 -256 13 -324 -12 -23 -8 -63 -21 -91 -29 -50 -14 -50 -14 -73 13
-12 15 -20 35 -18 45 3 11 -4 33 -14 50 -11 17 -16 35 -13 40 3 5 -1 13 -8 18
-11 7 -10 9 4 9 10 0 17 8 17 19 0 28 -11 52 -21 45 -5 -3 -9 8 -9 25 0 16 6
32 13 34 6 3 0 6 -15 6 -20 1 -28 -4 -28 -16 -1 -17 -1 -17 -14 0 -16 20 -45
22 -52 3z m1331 -6 c18 -8 17 -9 -7 -9 -16 -1 -28 4 -28 9 0 12 8 12 35 0z
m585 0 c0 -5 -4 -10 -10 -10 -5 0 -10 5 -10 10 0 6 5 10 10 10 6 0 10 -4 10
-10z m141 -23 c-8 -8 -11 -7 -11 4 0 20 13 34 18 19 3 -7 -1 -17 -7 -23z m143
12 c-3 -5 -10 -7 -15 -3 -5 3 -7 10 -3 15 3 5 10 7 15 3 5 -3 7 -10 3 -15z
m80 12 c3 -5 -3 -11 -14 -14 -20 -5 -26 3 -13 16 9 10 21 9 27 -2z m-1149 -11
c8 -13 -5 -13 -25 0 -13 8 -13 10 2 10 9 0 20 -4 23 -10z m675 -11 c0 -5 -4
-9 -10 -9 -5 0 -10 7 -10 16 0 8 5 12 10 9 6 -3 10 -10 10 -16z m-64 -5 c-3
-9 -6 -18 -6 -20 0 -2 -7 -4 -15 -4 -18 0 -19 12 -3 28 17 17 31 15 24 -4z
m-1159 -16 c-3 -8 -6 -5 -6 6 -1 11 2 17 5 13 3 -3 4 -12 1 -19z m1020 -10
c-3 -7 -5 -2 -5 12 0 14 2 19 5 13 2 -7 2 -19 0 -25z m-257 -34 c0 -8 -5 -12
-10 -9 -6 4 -8 11 -5 16 9 14 15 11 15 -7z m530 2 c0 -8 -4 -17 -9 -21 -12 -7
-24 12 -16 25 9 15 25 12 25 -4z m-643 -18 c-3 -8 -6 -5 -6 6 -1 11 2 17 5 13
3 -3 4 -12 1 -19z m588 -4 c0 -10 -8 -20 -17 -22 -18 -3 -26 27 -11 42 12 11
28 0 28 -20z m-655 7 c0 -6 -4 -13 -10 -16 -5 -3 -10 1 -10 9 0 9 5 16 10 16
6 0 10 -4 10 -9z m590 -16 c0 -19 -20 -29 -32 -17 -8 8 -7 16 2 26 14 17 30
12 30 -9z m-1090 -4 c0 -6 -4 -13 -10 -16 -5 -3 -10 1 -10 9 0 9 5 16 10 16 6
0 10 -4 10 -9z m1018 -9 c2 -7 -4 -15 -13 -18 -20 -8 -27 -1 -19 20 7 18 25
17 32 -2z m-78 -4 c0 -21 -17 -41 -29 -34 -7 5 -7 13 2 26 13 23 27 26 27 8z
m-84 -35 c-11 -11 -17 4 -9 23 7 18 8 18 11 1 2 -10 1 -21 -2 -24z m-1456 6
c0 -6 -4 -7 -10 -4 -5 3 -10 11 -10 16 0 6 5 7 10 4 6 -3 10 -11 10 -16z
m1247 -14 c-4 -8 -11 -15 -17 -15 -14 0 -13 27 3 33 16 6 21 1 14 -18z m73 9
c0 -17 -22 -14 -28 4 -2 7 3 12 12 12 9 0 16 -7 16 -16z m70 6 c0 -5 -7 -10
-16 -10 -8 0 -12 5 -9 10 3 6 10 10 16 10 5 0 9 -4 9 -10z m-280 -14 c0 -7 -7
-19 -15 -26 -16 -13 -20 -3 -9 24 8 20 24 21 24 2z m80 6 c0 -10 -21 -32 -31
-32 -4 0 -5 9 -2 20 5 19 33 29 33 12z m-224 -39 c-10 -10 -19 5 -10 18 6 11
8 11 12 0 2 -7 1 -15 -2 -18z m64 7 c0 -5 -4 -10 -9 -10 -6 0 -13 5 -16 10 -3
6 1 10 9 10 9 0 16 -4 16 -10z m1122 -22 c-7 -7 -12 -8 -12 -2 0 14 12 26 19
19 2 -3 -1 -11 -7 -17z m35 -45 c-3 -10 -8 -36 -12 -58 -6 -37 -12 -56 -52
-182 l-17 -53 -158 0 c-178 0 -175 -2 -112 76 24 30 46 45 91 59 94 31 109 54
48 79 -29 13 -35 20 -35 45 0 37 9 40 140 44 52 2 99 4 103 5 5 1 6 -6 4 -15z
m-1618 -15 c52 -12 91 -38 91 -62 0 -7 -11 -23 -24 -36 -23 -21 -26 -21 -41
-6 -22 21 -29 20 -62 -9 -25 -22 -26 -24 -8 -25 33 -1 1 -14 -108 -45 -88 -24
-111 -27 -221 -24 -96 3 -128 8 -149 22 -34 22 -34 47 -2 77 28 26 33 60 10
60 -8 0 -15 5 -15 10 0 19 39 10 45 -10 7 -22 19 -21 80 5 30 13 86 27 180 44
73 13 166 13 224 -1z m231 -123 l0 -46 -30 16 c-16 8 -34 15 -40 15 -22 0 -59
32 -53 46 4 10 22 14 64 14 l59 0 0 -45z m319 -57 c0 -13 -4 -31 -7 -40 -6
-15 -10 -13 -21 13 -12 27 -12 33 0 40 22 14 29 11 28 -13z m1186 -48 c16 -5
59 -16 95 -26 36 -9 72 -20 80 -25 18 -10 -128 -12 -258 -3 l-91 7 17 26 c9
14 21 30 27 34 11 9 83 2 130 -13z m-2257 -26 c2 -16 9 -35 15 -43 10 -11 9
-13 -3 -9 -8 2 -17 15 -18 29 -2 13 -8 28 -13 34 -13 13 -11 27 4 23 6 -3 14
-18 15 -34z m1302 1 c0 -18 36 -20 43 -2 4 10 7 10 18 0 18 -18 39 -16 39 2 0
8 4 15 9 15 5 0 11 -7 15 -15 8 -21 36 -19 36 3 1 16 1 16 14 0 11 -15 30 -18
127 -18 62 0 109 -3 103 -8 -5 -4 -139 -5 -299 -2 -159 3 -253 7 -207 8 65 2
82 5 82 17 0 8 5 15 10 15 6 0 10 -7 10 -15z m1534 -9 c43 -1 89 -29 63 -39
-14 -5 -176 9 -183 16 -3 2 -2 12 2 21 5 13 14 15 41 10 19 -4 54 -7 77 -8z
m-1921 -23 c-13 -2 -35 -2 -50 0 -16 2 -5 4 22 4 28 0 40 -2 28 -4z m-569
-561 c-22 -5 -31 7 -14 18 9 6 17 5 22 -3 4 -7 1 -13 -8 -15z"/>
<path d="M3570 2483 c-21 -126 -24 -180 -9 -166 14 14 26 76 36 176 8 94 -11
87 -27 -10z"/>
<path d="M200 2514 c0 -28 45 -158 64 -186 14 -19 16 -20 16 -5 0 27 -49 171
-65 193 -14 19 -14 18 -15 -2z"/>
<path d="M637 1819 c-36 -30 -69 -85 -60 -101 9 -16 24 -7 34 21 10 27 78 86
88 76 2 -3 -8 -18 -22 -33 -15 -16 -27 -40 -27 -54 0 -21 -6 -28 -30 -33 -16
-4 -43 -22 -59 -42 -24 -29 -98 -69 -109 -58 -4 3 20 35 51 67 23 25 21 38 -5
38 -30 0 -43 -11 -43 -35 0 -15 -18 -29 -72 -55 -65 -32 -93 -60 -60 -60 6 0
4 -5 -5 -11 -16 -9 -26 -49 -13 -49 3 0 28 11 54 25 27 13 78 32 114 40 54 14
70 23 100 60 20 23 49 46 64 50 31 7 43 21 43 48 0 10 12 34 26 53 23 30 25
38 16 59 -15 33 -40 31 -85 -6z"/>
<path d="M1150 1799 c0 -6 6 -38 14 -72 71 -304 96 -415 96 -430 0 -9 5 -17
10 -17 18 0 11 68 -24 213 -18 78 -41 181 -51 230 -12 58 -22 87 -31 87 -8 0
-14 -5 -14 -11z"/>
<path d="M113 1767 c-10 -13 -39 -32 -65 -41 l-48 -18 0 -89 c0 -88 1 -93 56
-212 31 -67 64 -131 75 -141 26 -28 74 -24 147 13 57 29 62 34 62 64 0 18 -22
77 -51 136 -27 57 -59 125 -70 150 -48 108 -70 150 -78 155 -5 4 -18 -4 -28
-17z m46 -79 c7 -18 44 -99 82 -181 38 -81 69 -150 69 -153 0 -3 -10 -14 -23
-25 -23 -19 -53 -26 -42 -10 3 5 -14 29 -38 53 -24 24 -49 58 -56 75 -7 17
-23 35 -37 41 -13 7 -25 17 -25 24 -3 29 -5 34 -21 58 -10 16 -16 41 -14 68 2
40 5 45 42 62 51 24 47 25 63 -12z m-92 -220 c-3 -8 -6 -5 -6 6 -1 11 2 17 5
13 3 -3 4 -12 1 -19z"/>
<path d="M2493 1757 c-13 -21 20 -28 120 -25 76 2 104 6 99 14 -8 14 -211 24
-219 11z"/>
<path d="M455 1739 c-9 -14 -7 -15 53 -23 32 -4 52 -3 52 3 0 26 -91 43 -105
20z"/>
<path d="M1936 1415 c-7 -36 -2 -55 15 -55 5 0 9 20 9 45 0 54 -15 60 -24 10z"/>
<path d="M0 1420 c0 -11 13 -47 30 -80 16 -33 30 -64 30 -69 0 -17 -40 -20
-50 -3 -6 12 -9 -31 -10 -131 l0 -148 39 22 c22 12 57 39 77 60 33 34 38 46
42 99 4 51 2 61 -14 67 -21 8 -39 23 -45 38 -10 24 -91 165 -95 165 -2 0 -4
-9 -4 -20z m34 -367 c-21 -15 -30 -3 -20 23 5 14 9 14 22 3 14 -12 14 -14 -2
-26z"/>
<path d="M1748 1368 c-66 -63 -103 -117 -91 -129 8 -8 23 1 52 30 23 23 41 45
41 50 0 13 60 55 67 48 3 -4 -2 -13 -11 -22 -18 -19 -22 -55 -5 -55 7 0 18 8
25 18 12 15 15 15 24 2 9 -13 11 -13 20 0 15 24 12 41 -10 47 -10 3 -26 16
-35 29 -8 13 -19 24 -24 24 -4 0 -28 -19 -53 -42z"/>
<path d="M2265 1389 c-33 -10 -70 -24 -81 -30 -16 -8 -28 -7 -52 5 -42 22 -43
22 -96 -25 -46 -41 -46 -41 -41 -93 3 -28 2 -45 -1 -38 -3 6 -12 12 -20 12
-24 0 -19 -105 6 -130 11 -11 26 -20 33 -20 8 0 22 -9 32 -20 25 -28 38 -14
31 33 -5 28 -2 47 9 64 15 22 15 27 -4 67 -12 23 -21 47 -21 52 0 10 76 45
130 59 14 4 39 13 55 21 17 7 49 18 73 24 25 6 42 17 42 25 0 19 -22 18 -95
-6z"/>
<path d="M2230 1262 c0 -25 28 -62 48 -62 23 -1 62 -30 40 -30 -21 0 -28 -20
-23 -69 3 -30 1 -39 -9 -35 -15 6 -106 -90 -106 -111 0 -7 -7 -15 -15 -19 -8
-3 -15 -12 -15 -21 0 -8 7 -15 15 -15 8 0 15 -4 15 -10 0 -5 -5 -10 -11 -10
-15 0 -1 -53 17 -63 8 -5 14 -24 14 -45 0 -20 4 -43 9 -51 5 -8 7 -20 4 -28
-5 -11 -9 -11 -29 2 -31 20 -44 19 -44 -5 0 -11 12 -26 28 -34 15 -8 38 -25
51 -39 23 -26 23 -26 6 -78 -14 -40 -15 -56 -6 -71 15 -23 14 -26 -6 -30 -9
-2 -22 -19 -28 -38 -10 -30 -17 -36 -51 -41 -21 -4 -59 -10 -83 -14 -42 -8
-43 -7 -36 16 13 39 11 53 -6 57 -11 2 -19 -6 -24 -25 -8 -35 -33 -63 -55 -63
-9 0 -20 -4 -26 -10 -6 -6 -14 15 -23 61 -14 75 -14 76 34 184 19 44 25 91 13
103 -7 7 -4 16 11 31 12 12 21 32 21 46 0 17 8 29 25 37 16 7 25 19 25 34 0
31 -17 40 -39 20 -10 -9 -23 -16 -29 -16 -16 0 -15 28 2 45 20 20 9 64 -15 58
-10 -3 -24 -11 -30 -19 -6 -8 -18 -14 -25 -14 -8 0 -14 -4 -14 -10 0 -5 10
-10 23 -10 20 0 22 -5 21 -50 -1 -51 -23 -90 -51 -90 -11 0 -13 9 -8 38 5 33
2 41 -25 67 -16 16 -30 35 -30 42 0 8 8 5 21 -8 14 -14 24 -18 31 -11 15 15
-1 52 -22 52 -16 0 -17 4 -7 35 9 32 5 56 -8 43 -10 -10 -45 -112 -45 -130 0
-10 13 -30 29 -44 25 -22 29 -31 24 -62 -4 -20 -19 -55 -35 -78 -28 -42 -58
-114 -58 -140 0 -8 9 -14 20 -14 28 0 25 -14 -5 -28 -28 -13 -32 -34 -10 -52
21 -17 19 -30 -5 -30 -11 0 -20 -4 -20 -9 0 -4 -13 -22 -30 -39 -29 -31 -48
-77 -36 -89 3 -4 16 4 27 16 13 14 27 20 38 16 9 -4 33 -9 54 -12 33 -5 37 -3
37 16 0 11 -5 21 -10 21 -11 0 -34 50 -26 57 5 5 69 -38 74 -50 2 -4 10 -14
19 -22 13 -13 11 -16 -14 -26 -15 -6 -66 -18 -113 -25 -169 -28 -185 -31 -201
-38 -12 -5 -18 0 -22 23 -7 33 -24 41 -33 16 -4 -8 -12 -15 -20 -15 -11 0 -13
33 -7 193 4 135 2 199 -5 214 -11 20 -8 22 38 34 38 10 50 17 50 32 0 17 -5
19 -41 14 -70 -9 -70 -9 -74 -248 -3 -118 -6 -236 -7 -264 l-3 -50 60 1 c33 1
87 10 120 19 33 9 96 23 140 30 44 8 111 23 149 33 l68 20 42 -27 c22 -16 60
-35 83 -44 23 -9 61 -25 85 -35 110 -49 233 -71 429 -79 214 -7 362 20 512 93
29 14 67 32 85 39 l33 15 -24 -29 c-42 -50 -93 -91 -163 -129 -67 -37 -91 -62
-59 -62 25 0 125 55 176 98 59 48 104 101 114 131 4 13 32 53 61 90 30 36 72
101 93 144 22 44 41 72 44 64 4 -11 29 -13 119 -9 62 2 117 8 123 14 15 14
-14 28 -57 28 -26 0 -38 5 -38 14 0 7 -10 16 -22 20 -36 9 -41 7 -35 -14 4
-17 0 -20 -24 -20 -22 0 -29 5 -29 19 0 42 19 68 61 85 23 10 56 28 72 42 29
25 66 31 82 15 6 -5 24 -11 40 -13 24 -2 30 1 30 17 0 14 -8 20 -28 22 -16 1
-34 7 -41 12 -20 17 -84 1 -101 -25 -8 -13 -22 -24 -31 -24 -26 0 -93 -39
-105 -61 -6 -12 -12 -38 -12 -57 l-1 -36 -14 35 c-18 45 -16 44 -57 25 -24
-12 -46 -15 -67 -10 l-32 6 27 15 c23 12 27 20 27 58 0 27 5 47 14 52 8 4 15
17 18 28 2 15 11 20 33 20 17 1 35 4 42 8 6 4 14 3 18 -3 13 -21 26 -9 23 22
-2 27 -8 33 -36 40 -26 7 -37 18 -52 53 -49 115 -231 325 -281 325 -11 0 -19
-2 -19 -5 0 -3 40 -44 89 -92 80 -79 151 -168 151 -190 0 -4 9 -19 20 -33 35
-44 19 -53 -41 -23 -20 11 -65 19 -110 21 l-76 4 -22 -35 c-27 -43 -27 -63 0
-70 13 -4 19 -12 17 -25 -2 -10 2 -30 8 -43 22 -46 46 -138 40 -157 -11 -32
-220 -129 -294 -136 l-47 -4 3 49 c2 27 8 49 13 49 5 0 9 18 9 41 0 32 -4 42
-20 46 -11 3 -20 6 -20 7 0 0 7 19 15 41 8 22 14 47 14 55 1 14 -57 47 -121
70 -36 12 -35 22 3 39 23 10 29 18 26 33 -5 17 -2 19 21 13 15 -4 35 -13 44
-22 25 -22 68 -10 68 21 0 29 -10 39 -25 26 -24 -20 -105 28 -105 62 0 26 27
22 90 -13 58 -33 153 -68 183 -69 51 0 -19 54 -82 64 -21 3 -44 13 -51 21 -21
25 -100 55 -146 55 -63 0 -270 84 -337 137 -15 12 -47 28 -70 34 -23 7 -53 23
-68 36 -30 28 -39 29 -39 5z m148 -94 c19 -19 14 -30 -8 -18 -11 6 -20 15 -20
20 0 14 14 12 28 -2z m97 -64 c42 -24 90 -44 195 -83 l45 -16 0 -53 c0 -49 -3
-54 -32 -73 -33 -21 -40 -33 -25 -43 4 -2 6 -37 5 -77 -1 -41 3 -79 8 -85 7
-9 5 -15 -7 -22 -28 -16 -31 -122 -5 -173 28 -54 27 -59 -17 -59 -21 0 -63 -9
-93 -19 -30 -11 -79 -23 -108 -27 -52 -7 -53 -6 -42 15 7 11 9 21 5 21 -4 0 1
9 11 20 13 14 16 28 11 52 -10 51 -67 181 -85 194 -14 11 -14 14 2 31 19 21
23 53 7 53 -5 0 -10 7 -10 15 0 8 -14 28 -30 44 -29 27 -29 29 -10 34 11 3 20
13 20 25 0 33 29 102 56 135 20 24 25 38 21 63 -5 30 6 54 26 54 5 0 28 -12
52 -26z m-135 -82 c0 -5 -11 -14 -25 -20 -24 -11 -36 -52 -16 -52 6 0 1 -17
-11 -39 -20 -38 -21 -38 -58 -29 -37 10 -37 10 -26 41 17 47 78 107 109 107
15 0 27 -4 27 -8z m973 -156 c20 -9 37 -21 37 -27 0 -6 -12 -31 -27 -57 -15
-25 -29 -55 -31 -66 -5 -37 -18 -36 -32 2 -7 20 -20 43 -29 50 -11 9 -12 15
-4 18 20 9 -6 63 -38 80 -23 12 -34 12 -52 3 -21 -12 -21 -11 -5 8 15 17 25
18 80 12 35 -4 80 -14 101 -23z m-1044 -106 c10 0 23 -11 29 -25 16 -35 15
-41 -5 -23 -10 8 -26 18 -36 21 -22 8 -31 32 -21 55 7 15 8 14 11 -5 3 -14 12
-23 22 -23z m31 20 c0 -5 -2 -10 -4 -10 -3 0 -8 5 -11 10 -3 6 -1 10 4 10 6 0
11 -4 11 -10z m495 -30 c3 0 5 -4 5 -9 0 -4 -11 -6 -25 -3 -30 5 -35 -17 -5
-25 11 -3 20 -9 20 -14 0 -12 -33 1 -47 19 -7 9 -16 13 -19 9 -12 -12 -34 14
-34 39 l0 24 50 -20 c28 -11 53 -20 55 -20z m415 -50 c0 -5 -4 -10 -9 -10 -6
0 -13 5 -16 10 -3 6 1 10 9 10 9 0 16 -4 16 -10z m-1350 -22 c0 -6 -6 -5 -15
2 -8 7 -15 14 -15 16 0 2 7 1 15 -2 8 -4 15 -11 15 -16z m438 -8 c14 0 51 -65
83 -143 17 -44 20 -60 11 -66 -7 -4 -13 -26 -15 -48 l-2 -42 -83 -3 c-69 -2
-82 -1 -80 12 2 9 17 16 36 18 39 4 43 29 11 74 -18 24 -19 32 -8 39 15 9 23
149 8 149 -5 0 -9 10 -9 22 0 20 1 20 18 5 10 -10 24 -17 30 -17z m912 -21 c0
-6 -4 -7 -10 -4 -5 3 -10 11 -10 16 0 6 5 7 10 4 6 -3 10 -11 10 -16z m-1320
1 c0 -5 -4 -10 -10 -10 -5 0 -10 -10 -10 -21 0 -28 -32 -119 -42 -119 -5 0 -8
7 -8 15 0 8 -4 15 -10 15 -17 0 -11 26 10 45 20 18 26 40 13 48 -5 2 -2 2 5 0
8 -2 16 6 19 17 5 20 33 29 33 10z m899 -3 c10 -13 -5 -21 -85 -42 -14 -4 -27
-66 -18 -91 5 -18 5 -18 -6 -1 -6 9 -10 39 -8 65 3 47 3 47 41 50 22 2 41 10
44 18 7 18 17 18 32 1z m-979 -14 c-1 -15 -30 -46 -37 -40 -3 4 2 16 12 27 19
21 25 24 25 13z m1595 -55 c-12 -56 -67 -151 -130 -226 -31 -37 -103 -85 -175
-116 -36 -16 -70 -32 -76 -37 -6 -5 -68 -22 -138 -39 -110 -26 -146 -30 -269
-30 -172 0 -287 19 -457 78 -62 21 -177 79 -186 93 -5 9 -2 10 9 6 9 -3 42 -2
74 3 32 5 141 14 243 19 147 7 197 13 245 30 32 11 75 21 93 21 19 0 64 8 100
19 37 10 105 26 151 35 53 10 119 33 180 62 144 69 219 95 257 88 22 -4 36 -1
45 10 25 28 41 20 34 -16z m-1625 -22 c0 -3 -4 -8 -10 -11 -5 -3 -10 -1 -10 4
0 6 5 11 10 11 6 0 10 -2 10 -4z m969 -100 c-15 -13 -49 -25 -49 -17 0 5 8 12
18 14 24 6 36 8 31 3z"/>
<path d="M2557 893 c-4 -3 -7 -15 -7 -25 0 -21 25 -24 33 -4 6 16 -16 40 -26
29z"/>
<path d="M2515 819 c-4 -13 0 -27 11 -40 21 -23 34 -24 34 -4 0 8 -5 15 -10
15 -6 0 -8 11 -4 25 8 32 -21 36 -31 4z"/>
<path d="M2385 760 c-4 -6 -3 -16 3 -22 6 -6 12 -6 17 2 4 6 3 16 -3 22 -6 6
-12 6 -17 -2z"/>
<path d="M2556 711 c-9 -14 5 -42 18 -38 18 6 20 47 2 47 -8 0 -17 -4 -20 -9z"/>
<path d="M2520 555 c0 -9 -9 -15 -25 -15 -15 0 -25 -6 -25 -14 0 -33 65 -53
98 -30 26 18 29 59 6 68 -28 11 -54 6 -54 -9z"/>
<path d="M1739 1244 c-16 -19 -3 -44 30 -59 13 -6 20 -17 19 -29 -2 -11 3 -21
10 -23 23 -8 15 61 -9 76 -16 10 -19 15 -9 21 15 9 5 30 -14 30 -8 0 -19 -7
-27 -16z"/>
<path d="M2189 1178 c-11 -18 -22 -45 -26 -60 -3 -15 -12 -33 -19 -39 -18 -15
-19 -62 -1 -57 6 3 14 13 15 24 2 10 12 28 23 39 11 13 16 29 13 42 -4 16 1
26 20 38 29 19 35 45 11 45 -8 0 -24 -15 -36 -32z"/>
<path d="M1700 1104 c0 -14 -13 -43 -30 -64 -16 -21 -30 -43 -30 -50 0 -21 33
-5 52 25 40 67 50 115 23 115 -9 0 -15 -10 -15 -26z"/>
<path d="M1863 1066 c-4 -6 -8 -29 -10 -51 -2 -22 -5 -51 -6 -65 -2 -21 2 -25
21 -22 13 1 30 9 38 17 18 17 34 20 34 5 0 -15 27 -12 33 4 3 7 0 19 -6 25 -8
8 -6 15 8 25 16 12 18 19 10 43 -10 26 -15 28 -63 29 -29 1 -56 -4 -59 -10z"/>
<path d="M1502 1037 c-19 -23 -53 -110 -48 -124 8 -19 26 -16 26 5 0 9 11 37
25 61 26 44 32 71 16 71 -5 0 -13 -6 -19 -13z"/>
<path d="M2110 1000 c0 -5 -10 -18 -22 -30 -22 -20 -30 -51 -21 -82 5 -19 39
-24 63 -8 11 7 9 11 -12 19 -38 14 -41 27 -13 45 25 16 36 66 15 66 -5 0 -10
-4 -10 -10z"/>
<path d="M1670 924 c0 -14 5 -24 10 -22 6 2 10 6 10 11 0 4 0 14 0 22 0 8 -4
15 -10 15 -5 0 -10 -12 -10 -26z"/>
<path d="M1680 860 c0 -5 5 -10 10 -10 6 0 10 5 10 10 0 6 -4 10 -10 10 -5 0
-10 -4 -10 -10z"/>
<path d="M1545 839 c-8 -25 -1 -34 20 -26 19 8 20 47 1 47 -8 0 -18 -9 -21
-21z"/>
<path d="M2745 850 c-9 -14 -9 -14 40 -36 22 -10 43 -20 48 -22 13 -7 7 35 -6
47 -22 17 -74 25 -82 11z"/>
<path d="M1476 810 c-20 -49 -20 -50 -1 -50 18 0 49 56 41 76 -9 24 -23 15
-40 -26z"/>
<path d="M1668 811 c-14 -11 -31 -34 -38 -51 -7 -16 -16 -30 -21 -30 -13 0
-79 -66 -79 -79 0 -33 76 24 122 92 15 22 36 45 45 53 13 9 15 16 7 24 -8 8
-18 5 -36 -9z"/>
<path d="M1732 768 c-7 -7 -12 -18 -12 -26 0 -7 -12 -29 -26 -48 -28 -37 -57
-159 -58 -248 -1 -77 20 -68 27 11 10 108 25 175 45 203 11 14 23 37 27 50 4
14 12 31 18 38 14 18 -5 36 -21 20z"/>
<path d="M250 714 c-36 -7 -90 -12 -120 -13 -30 -1 -72 -6 -92 -12 l-38 -10 0
-56 c0 -43 3 -53 13 -45 6 5 28 12 47 15 80 13 256 53 268 60 6 5 12 19 12 31
0 37 -18 43 -90 30z m-223 -86 c-3 -8 -6 -5 -6 6 -1 11 2 17 5 13 3 -3 4 -12
1 -19z"/>
<path d="M19 448 c0 -51 -4 -114 -8 -140 -6 -35 -5 -48 4 -48 17 0 35 99 35
197 0 67 -3 83 -15 83 -12 0 -15 -17 -16 -92z"/>
<path d="M955 270 c-4 -7 -2 -16 5 -20 29 -18 314 -46 349 -35 38 12 22 23
-41 28 -184 16 -275 26 -289 32 -10 3 -20 1 -24 -5z"/>
<path d="M2090 82 c0 -5 6 -14 13 -20 15 -13 106 -37 113 -30 13 13 -11 37
-44 43 -20 3 -47 9 -59 12 -13 3 -23 1 -23 -5z"/>
<path d="M2875 10 c-30 -8 -30 -8 8 -9 23 -1 36 3 32 9 -3 6 -7 9 -8 9 -1 -1
-15 -5 -32 -9z"/>
</g>
</svg>
