<?xml version="1.0" standalone="no"?>
<!DOCTYPE svg PUBLIC "-//W3C//DTD SVG 20010904//EN"
 "http://www.w3.org/TR/2001/REC-SVG-20010904/DTD/svg10.dtd">
<svg version="1.0" xmlns="http://www.w3.org/2000/svg"
 width="384.000000pt" height="256.000000pt" viewBox="0 0 384.000000 256.000000"
 preserveAspectRatio="xMidYMid meet">
<metadata>
Created by potrace 1.16, written by Peter Selinger 2001-2019
</metadata>
<g transform="translate(0.000000,256.000000) scale(0.100000,-0.100000)"
fill="#000000" stroke="none">
<path d="M90 2548 c0 -7 11 -37 25 -66 13 -29 29 -71 35 -92 6 -24 17 -40 26
-40 18 0 12 30 -23 115 -13 33 -27 68 -30 78 -6 19 -33 24 -33 5z"/>
<path d="M376 2528 c-8 -43 5 -668 15 -668 14 0 14 27 11 363 -3 312 -10 386
-26 305z"/>
<path d="M780 2509 c0 -87 8 -92 170 -119 41 -7 90 -17 107 -22 18 -5 41 -7
51 -4 14 5 23 -7 44 -62 15 -38 32 -90 39 -115 7 -28 17 -47 25 -47 8 0 14 3
14 8 0 12 -37 132 -60 197 -15 40 -22 85 -23 137 -1 65 -4 78 -17 76 -12 -3
-15 -18 -15 -75 0 -39 -3 -74 -6 -77 -3 -3 -39 1 -80 10 -41 8 -101 20 -133
25 -75 12 -86 21 -86 75 0 32 -4 44 -15 44 -11 0 -15 -12 -15 -51z"/>
<path d="M2500 2485 c0 -73 1 -76 27 -86 37 -14 57 7 26 28 -20 13 -23 24 -23
74 0 46 -3 59 -15 59 -12 0 -15 -15 -15 -75z"/>
<path d="M2648 2553 c12 -2 30 -2 40 0 9 3 -1 5 -23 4 -22 0 -30 -2 -17 -4z"/>
<path d="M2730 2552 c9 -4 27 -15 40 -25 23 -16 25 -24 30 -130 4 -96 7 -112
23 -115 19 -4 25 32 7 43 -11 7 -13 141 -2 165 4 8 16 15 27 15 38 0 22 30
-17 33 -21 2 -38 7 -38 13 0 5 -19 9 -42 8 -24 0 -36 -3 -28 -7z"/>
<path d="M2883 2553 c9 -2 25 -2 35 0 9 3 1 5 -18 5 -19 0 -27 -2 -17 -5z"/>
<path d="M3038 2553 c7 -3 16 -2 19 1 4 3 -2 6 -13 5 -11 0 -14 -3 -6 -6z"/>
<path d="M3073 2553 c4 -4 62 -8 130 -9 67 -2 128 -3 135 -3 8 -1 12 -17 12
-45 0 -42 19 -74 28 -48 2 7 13 12 24 12 13 0 18 5 16 18 -2 9 -11 16 -20 14
-28 -4 -31 18 -7 44 l22 24 -173 0 c-95 0 -170 -3 -167 -7z"/>
<path d="M3430 2539 c6 -11 10 -35 9 -52 -4 -62 1 -87 16 -87 18 0 20 -31 3
-48 -16 -16 -48 3 -48 28 0 18 -7 20 -75 20 -133 0 -206 -25 -288 -99 l-27
-25 1 63 c1 56 4 63 25 72 28 10 32 39 7 39 -56 -1 -58 -5 -58 -107 0 -61 4
-98 11 -100 10 -3 100 52 135 83 15 14 126 34 189 33 31 0 33 -1 18 -13 -24
-18 -38 -59 -38 -112 0 -37 3 -44 19 -44 23 0 36 16 21 25 -16 10 -12 82 5 88
11 5 14 -4 12 -46 l-2 -52 37 -1 c34 -2 37 0 43 32 7 39 25 46 25 9 0 -16 6
-25 16 -25 12 0 15 7 12 24 -4 18 0 26 14 29 12 4 18 14 18 36 0 17 5 31 10
31 6 0 10 -16 10 -36 0 -29 3 -35 18 -32 9 2 16 10 14 18 -2 7 -4 40 -4 72 -1
55 -9 71 -23 48 -5 -8 -11 -7 -21 1 -12 10 -16 8 -21 -9 -3 -12 -12 -22 -20
-22 -11 0 -13 6 -8 23 4 12 9 39 12 60 6 44 23 50 23 7 0 -32 14 -40 24 -14
11 28 6 52 -11 58 -25 10 -1 28 49 37 41 6 40 7 -19 8 -50 1 -63 -2 -63 -14 0
-8 -5 -15 -11 -15 -6 0 -9 7 -5 15 4 12 -3 15 -30 15 -32 0 -34 -2 -24 -21z
m40 -19 c0 -5 -2 -10 -4 -10 -3 0 -8 5 -11 10 -3 6 -1 10 4 10 6 0 11 -4 11
-10z m30 -205 c0 -14 -4 -25 -10 -25 -5 0 -10 11 -10 25 0 14 5 25 10 25 6 0
10 -11 10 -25z m-76 -13 c-1 -7 -2 -23 -2 -37 -1 -15 -8 -25 -17 -25 -17 0
-18 4 -9 49 6 29 30 40 28 13z"/>
<path d="M3755 2550 c3 -6 -4 -28 -17 -51 -22 -40 -23 -41 -3 -55 16 -12 21
-12 24 -2 2 7 11 18 19 24 11 8 12 15 4 29 -6 12 -7 28 -1 42 7 19 5 23 -12
23 -11 0 -17 -5 -14 -10z"/>
<path d="M1641 2531 c-6 -11 -11 -76 -11 -149 0 -148 2 -152 78 -159 26 -2 56
-5 67 -6 12 -1 20 4 20 12 0 15 -30 27 -95 40 l-35 6 -3 116 -3 117 55 -13
c30 -7 59 -16 65 -20 6 -3 11 -41 12 -88 0 -92 16 -171 46 -237 12 -25 24 -56
28 -70 6 -20 5 -23 -6 -12 -7 6 -37 12 -65 12 -42 0 -59 -5 -84 -26 -23 -20
-28 -29 -20 -39 8 -10 8 -15 0 -20 -7 -4 -10 -15 -7 -26 3 -10 -3 -25 -14 -35
-20 -18 -25 -49 -10 -58 14 -9 58 65 66 109 8 47 17 55 66 55 71 0 137 -52
180 -143 19 -40 25 -65 19 -71 -16 -16 -77 -11 -98 7 -24 22 -32 21 -32 -1 0
-20 51 -62 75 -62 14 0 16 -8 12 -47 -6 -57 -13 -91 -26 -118 -5 -11 -17 -40
-27 -63 -12 -30 -36 -57 -75 -88 -63 -48 -89 -97 -89 -167 0 -23 -7 -55 -15
-71 -8 -15 -15 -35 -15 -42 0 -8 -7 -14 -15 -14 -11 0 -15 -12 -15 -45 0 -45
-17 -95 -32 -95 -4 0 -8 8 -8 19 0 10 -9 29 -20 43 -11 15 -20 43 -21 69 -2
24 -9 59 -18 77 -12 27 -13 42 -4 86 9 44 9 64 -3 103 -11 36 -13 73 -8 152 7
101 6 104 -17 122 -20 15 -24 26 -22 63 2 57 -23 65 -33 10 l-6 -35 -24 22
c-17 15 -35 22 -61 21 -30 -1 -44 6 -80 39 -39 36 -47 39 -84 35 -46 -6 -89
-44 -89 -79 1 -24 22 -57 37 -57 9 0 33 -42 33 -58 0 -11 -59 -12 -65 -2 -10
16 -22 11 -28 -10 -4 -14 1 -25 14 -33 25 -16 24 -25 -3 -29 -20 -3 -23 -10
-26 -62 -3 -53 -7 -63 -44 -102 -40 -43 -68 -56 -68 -33 0 20 -63 141 -76 146
-23 9 -37 -7 -22 -25 15 -19 38 -59 38 -67 0 -2 -11 1 -25 7 -16 7 -25 19 -25
35 0 12 -4 23 -10 23 -5 0 -10 15 -10 33 0 40 -24 77 -51 77 -21 0 -26 -25 -6
-33 9 -4 8 -8 -3 -16 -8 -5 -11 -14 -6 -18 5 -4 11 -2 13 5 3 6 9 12 14 12 16
0 9 -33 -12 -56 -12 -12 -18 -28 -14 -34 13 -21 116 -82 130 -77 19 8 55 -21
55 -44 0 -18 -4 -20 -32 -14 -40 9 -46 14 -30 24 11 7 -52 40 -135 71 -36 14
-44 43 -21 80 16 25 3 38 -22 22 -13 -8 -20 -8 -20 -2 0 6 7 13 15 16 8 4 15
11 15 18 0 6 7 23 14 38 11 21 12 35 4 60 -18 56 -24 63 -59 66 -19 2 -48 9
-66 17 -40 19 -77 19 -118 -1 -40 -19 -125 -106 -130 -135 -12 -60 -21 -67
-70 -53 -17 4 -20 12 -16 56 4 58 -10 91 -46 107 -36 16 -60 13 -82 -10 l-19
-21 -15 29 c-14 26 -81 73 -106 73 -25 0 -9 -37 23 -53 48 -22 88 -76 91 -120
2 -33 -1 -37 -21 -37 -13 0 -35 -5 -49 -12 -26 -11 -26 -14 -23 -85 l3 -73
-32 0 c-36 0 -47 -25 -17 -37 13 -5 15 -14 10 -44 -3 -22 -2 -39 2 -39 18 0
44 40 38 56 -4 10 -2 20 4 24 6 4 14 42 17 84 5 60 10 79 24 87 13 7 20 5 27
-7 7 -13 13 -11 40 15 22 23 39 31 64 30 l33 -1 -30 -9 c-41 -12 -113 -81
-120 -116 -4 -15 -11 -38 -17 -49 -7 -15 -7 -28 1 -42 21 -39 13 -59 -32 -81
-24 -12 -51 -21 -60 -21 -10 0 -17 -8 -17 -20 0 -21 7 -23 53 -20 20 1 27 -3
27 -17 0 -11 5 -24 10 -29 6 -6 7 -35 4 -73 -7 -66 -35 -114 -74 -126 -18 -6
-20 -16 -20 -80 0 -55 4 -74 15 -79 8 -3 15 -13 15 -22 0 -13 7 -15 37 -9 21
4 49 12 63 19 14 7 60 16 102 19 85 7 92 2 77 -56 -6 -20 -4 -30 7 -34 20 -7
18 -44 -8 -142 -19 -72 -20 -85 -8 -89 24 -8 70 -59 70 -77 0 -9 -5 -13 -11
-9 -7 4 -9 -2 -7 -17 2 -13 -4 -29 -12 -36 -13 -11 -10 -17 21 -46 33 -30 37
-40 43 -104 5 -52 3 -79 -7 -104 -8 -19 -22 -51 -31 -72 -15 -35 -15 -37 2
-37 13 0 26 20 46 72 16 40 33 78 38 85 12 15 194 123 207 123 6 0 16 9 23 20
8 12 24 20 40 20 38 0 36 -25 -2 -49 -39 -23 -88 -82 -125 -146 -33 -59 -72
-104 -100 -115 -15 -7 -10 -9 21 -9 26 -1 46 5 55 15 19 23 66 45 83 38 9 -3
25 5 40 21 14 15 38 29 55 31 27 5 31 2 40 -33 6 -21 11 -46 11 -55 0 -12 8
-18 21 -18 23 0 24 -7 -18 125 -20 65 -24 91 -19 140 9 81 9 93 1 142 -5 27
-3 55 5 75 7 18 17 45 22 60 l10 26 43 -31 c24 -18 68 -47 99 -66 l55 -33 -1
-63 c-2 -41 2 -69 12 -79 15 -19 73 -46 99 -46 37 -1 40 -12 33 -133 -7 -107
-6 -117 10 -117 14 0 18 12 20 78 2 45 7 76 13 75 6 -2 15 12 22 30 13 36 13
37 16 -90 2 -81 4 -93 20 -93 12 0 17 8 17 25 0 14 -3 25 -7 25 -8 0 -6 98 3
139 5 22 6 23 24 6 11 -10 20 -15 20 -12 0 4 9 -1 19 -10 24 -22 113 -94 165
-133 39 -30 89 -45 123 -38 13 3 4 11 -34 31 -68 35 -112 65 -179 123 -30 26
-67 57 -83 68 -15 12 -48 36 -73 55 -25 18 -52 45 -59 60 -8 14 -17 28 -21 31
-11 9 12 94 28 103 8 5 19 19 24 32 17 44 49 35 116 -30 34 -33 83 -71 108
-83 25 -13 48 -27 51 -33 4 -5 43 -33 88 -63 118 -77 132 -94 156 -171 18 -60
18 -70 5 -89 -19 -27 -18 -36 4 -36 37 0 45 45 22 127 -11 41 -30 87 -41 103
-12 16 -66 58 -120 95 -54 37 -103 73 -110 81 -6 8 -17 14 -24 14 -15 0 -96
60 -150 111 -51 49 -89 59 -105 29 -15 -28 -19 -23 -30 41 -5 30 -14 71 -19
92 -8 34 -7 37 9 32 14 -4 19 2 24 32 4 21 16 63 27 93 11 30 24 73 29 95 14
67 80 229 102 250 l20 20 -6 -70 c-5 -56 -1 -90 18 -171 34 -136 41 -151 94
-174 52 -23 52 -23 52 -9 0 14 -51 59 -66 59 -15 0 -30 37 -53 132 -17 73 -18
99 -11 218 12 190 20 241 41 277 31 50 77 56 65 7 -4 -13 1 -49 9 -79 12 -40
13 -59 6 -74 -6 -11 -11 -32 -11 -48 0 -27 23 -110 41 -145 5 -10 5 -20 -2
-23 -6 -4 0 -24 16 -51 14 -24 24 -48 21 -52 -10 -16 12 -34 33 -27 32 10 53
49 56 104 3 53 10 71 29 71 16 0 36 77 36 138 0 44 12 72 32 72 4 0 8 -11 8
-24 0 -14 5 -28 11 -32 8 -5 4 -13 -11 -24 -27 -21 -22 -54 7 -43 15 5 15 3
-3 -18 -12 -13 -25 -45 -29 -72 -6 -48 -6 -49 17 -42 13 4 29 13 37 19 12 9
13 7 8 -14 -3 -14 -9 -38 -13 -55 -4 -16 -13 -37 -20 -46 -18 -21 -7 -30 25
-22 25 6 25 6 10 -18 -9 -13 -20 -39 -23 -57 -7 -31 -26 -45 -26 -19 0 30 -74
61 -90 39 -3 -5 -22 -18 -42 -31 -38 -23 -51 -51 -24 -51 8 0 16 3 18 8 4 9
88 55 93 51 8 -10 35 -83 35 -98 0 -15 -119 -81 -145 -81 -6 0 -11 -13 -12
-30 -2 -22 5 -34 26 -50 27 -19 61 -27 61 -14 0 9 -23 30 -48 43 -29 15 -28
31 2 31 13 0 29 7 36 15 7 8 19 15 26 15 8 0 36 12 63 27 47 25 51 25 75 10
34 -22 46 -21 46 4 0 25 39 59 59 51 12 -4 12 -7 -1 -16 -22 -17 -30 -46 -13
-46 8 0 15 -4 15 -10 0 -5 -4 -10 -10 -10 -16 0 -11 -30 6 -37 26 -10 34 9 39
95 3 48 15 112 29 155 31 92 34 109 19 114 -6 2 -24 -35 -43 -94 -31 -93 -50
-133 -50 -104 0 8 -7 10 -21 6 -20 -7 -21 -4 -15 36 4 24 13 60 20 79 28 73
36 107 37 155 1 28 8 62 15 77 8 15 14 36 14 48 0 13 7 20 19 20 11 0 26 6 34
14 12 13 17 13 34 1 18 -13 19 -12 15 18 -3 18 -1 28 4 24 5 -5 10 -58 11
-118 2 -86 8 -126 28 -186 31 -92 36 -165 12 -191 -12 -13 -17 -37 -17 -79 0
-46 -8 -79 -31 -133 -24 -57 -29 -78 -21 -94 16 -32 20 -86 10 -122 -13 -48
-47 -65 -120 -62 -59 3 -61 4 -73 38 -7 19 -16 47 -19 62 -4 16 -13 28 -20 28
-8 0 -16 10 -18 23 -4 32 -23 27 -26 -8 -4 -50 -12 -75 -22 -75 -6 0 -10 11
-10 24 0 26 -23 56 -43 56 -7 0 -22 3 -34 6 -36 10 -29 -25 8 -40 33 -14 59
-65 59 -118 0 -27 16 -46 28 -34 3 4 5 22 4 41 -2 19 2 35 8 35 5 0 10 -10 10
-22 0 -37 23 -71 52 -79 16 -4 30 -3 34 2 11 19 24 8 24 -22 0 -18 -7 -37 -15
-43 -13 -9 -13 -20 -5 -66 6 -30 13 -85 16 -122 4 -46 10 -68 18 -68 17 0 30
90 16 104 -13 13 -13 46 -1 46 5 0 11 8 13 17 2 10 17 -10 37 -51 39 -76 51
-88 51 -51 0 29 -35 103 -74 154 -19 25 -26 47 -26 78 l0 43 43 0 c37 0 50 6
80 35 21 20 37 44 37 53 1 27 30 -16 30 -44 0 -12 11 -36 25 -52 24 -28 25
-34 16 -95 -10 -73 -24 -103 -58 -130 -13 -10 -28 -27 -33 -38 -10 -17 -7 -18
32 -13 30 4 49 1 63 -10 l20 -15 -20 -15 c-19 -15 -18 -15 17 -16 30 0 36 3
34 17 -2 10 -7 46 -11 80 -6 51 -10 61 -23 56 -12 -5 -14 -2 -7 13 4 10 10 37
13 59 2 22 12 48 22 57 15 14 40 94 40 129 0 25 -37 0 -51 -34 -14 -35 -16
-37 -30 -21 -17 21 -41 99 -41 138 -1 18 7 34 18 42 11 7 25 18 32 24 7 7 26
9 45 5 34 -8 264 -119 284 -139 10 -9 10 -20 2 -46 -6 -19 -26 -91 -45 -160
-61 -218 -62 -220 -41 -220 8 0 18 19 24 43 35 144 76 272 90 282 9 7 16 25
15 43 l-1 32 42 -21 c53 -27 52 -26 40 -41 -7 -9 -8 -49 -1 -123 5 -60 10
-134 11 -162 2 -42 5 -53 19 -53 14 0 16 8 12 52 -3 29 -8 104 -12 165 l-7
113 25 0 c14 0 34 3 46 6 37 10 46 -34 37 -194 -8 -132 -7 -142 9 -142 16 0
18 10 18 79 0 43 3 105 6 139 6 58 8 60 29 50 16 -7 29 -7 43 1 15 8 23 7 31
-3 15 -18 55 -25 75 -14 24 13 7 38 -25 38 -26 0 -29 3 -23 25 7 29 -12 34
-46 13 -17 -11 -22 -10 -30 2 -15 23 -12 30 14 30 31 0 37 10 71 112 16 48 32
84 35 80 3 -4 17 -15 33 -25 18 -12 27 -26 27 -45 0 -15 4 -33 9 -41 7 -11 10
-9 16 9 12 38 -3 85 -35 109 -19 13 -30 31 -30 46 0 30 -16 41 -25 17 -5 -13
-11 -8 -30 28 -13 25 -24 51 -25 59 0 8 -12 29 -26 48 -18 23 -23 38 -16 46 5
7 29 63 52 125 38 101 42 119 37 175 -8 91 -23 149 -41 163 -20 14 -21 24 -1
24 8 0 17 14 21 36 7 40 9 40 77 47 43 4 49 2 57 -18 7 -17 20 -25 52 -30 47
-8 98 -39 98 -60 0 -7 16 -36 35 -64 37 -57 50 -118 65 -336 16 -219 28 -317
39 -328 21 -21 13 -121 -14 -175 -25 -50 -50 -68 -105 -74 -14 -2 -26 -11 -28
-21 -3 -14 4 -17 36 -17 85 0 152 100 152 227 0 39 -4 75 -10 78 -15 9 -12 45
3 40 13 -5 50 25 85 69 17 23 22 42 22 92 0 66 7 76 34 48 18 -17 36 -11 36
12 0 12 4 12 20 4 32 -17 59 -3 91 48 23 36 29 41 29 24 0 -29 26 -28 34 0 13
49 5 97 -24 153 -16 31 -30 72 -30 91 0 32 -12 45 -24 25 -4 -5 -2 -58 3 -117
10 -113 3 -153 -32 -182 -13 -11 -22 -9 -57 14 -38 26 -42 31 -37 62 5 27 3
33 -11 30 -11 -2 -19 -16 -22 -43 -3 -22 -13 -52 -23 -65 -12 -17 -17 -44 -17
-90 0 -65 0 -66 -49 -114 l-49 -49 -6 69 c-20 260 -25 317 -34 379 -5 39 -13
116 -17 172 l-7 102 29 6 c15 4 46 13 68 21 23 8 71 14 108 14 60 0 67 2 67
19 0 26 -17 36 -35 21 -12 -10 -17 -7 -25 12 -12 25 1 78 19 78 28 0 41 -14
41 -45 0 -42 9 -48 84 -50 46 -1 67 3 87 18 27 19 27 21 27 143 1 110 -5 142
-22 115 -3 -4 -6 -53 -7 -107 0 -54 -6 -105 -11 -111 -19 -23 -33 -13 -35 23
-1 20 -7 42 -12 47 -6 6 -11 24 -11 39 0 33 -42 81 -63 72 -15 -5 -37 -46 -37
-68 0 -7 -12 -19 -26 -27 -14 -7 -30 -24 -35 -36 -5 -14 -17 -23 -29 -23 -11
0 -20 -6 -21 -12 -1 -7 -2 -24 -2 -37 -1 -15 -11 -27 -27 -33 -19 -7 -22 -6
-14 2 8 7 10 35 6 76 -4 52 -2 64 9 62 11 -2 13 8 11 42 -5 54 -5 55 -31 40
-14 -7 -20 -19 -19 -38 4 -64 -3 -103 -23 -123 -22 -22 -18 -59 7 -59 8 0 14
-4 14 -9 0 -11 -25 -21 -54 -21 -45 0 -65 -26 -68 -88 l-3 -57 -22 40 c-30 56
-61 82 -110 90 -24 4 -46 12 -50 18 -4 6 -7 48 -8 92 0 64 -3 80 -15 80 -15 0
-17 -12 -19 -119 -1 -41 -3 -47 -16 -36 -8 7 -26 9 -43 5 l-30 -6 5 48 c3 26
9 52 14 58 5 5 9 16 9 25 0 21 31 50 52 50 16 0 33 28 23 38 -3 3 -31 6 -62 6
l-58 1 -12 40 c-44 148 -57 235 -61 388 l-4 158 -56 26 c-89 40 -94 42 -142
53 -25 6 -82 27 -127 46 -45 18 -86 34 -92 34 -7 0 -11 -36 -11 -104 l0 -104
-43 -44 c-39 -39 -45 -50 -52 -108 -5 -36 -9 -72 -9 -80 -1 -8 -5 -20 -9 -27
-4 -7 -1 -22 7 -35 18 -27 29 -120 15 -129 -5 -3 -12 -42 -16 -86 -5 -73 -3
-86 21 -138 36 -80 35 -87 -15 -63 -26 12 -55 18 -75 16 l-34 -4 0 61 c0 68
-8 105 -22 105 -6 0 -8 -47 -6 -120 2 -100 1 -119 -11 -117 -12 2 -15 -20 -15
-121 -1 -73 4 -132 10 -144 9 -16 8 -34 0 -72 -18 -77 -13 -86 47 -88 29 -1
64 -2 80 -1 17 1 27 -4 27 -13 0 -8 6 -14 14 -14 7 0 22 -17 31 -37 17 -35 17
-37 -1 -50 -10 -7 -24 -13 -31 -13 -19 0 -52 -40 -46 -57 4 -9 -5 -18 -26 -26
-17 -6 -31 -15 -31 -19 0 -19 -54 -6 -75 18 -28 32 -41 100 -23 121 19 23 12
112 -15 189 -24 70 -33 158 -28 284 2 47 4 51 12 31 12 -30 31 -15 32 23 0 15
5 26 13 26 11 0 14 25 14 119 0 134 2 130 -78 129 -44 -1 -73 14 -53 26 30 19
2 100 -40 115 -19 6 -31 19 -35 38 -11 46 -50 116 -88 158 -19 22 -36 48 -36
57 0 10 -12 43 -26 75 -38 84 -53 157 -54 251 0 73 -3 86 -23 106 -14 14 -42
26 -71 30 -27 4 -54 10 -62 13 -7 2 -17 -5 -23 -16z m924 -231 c3 -5 -1 -10
-9 -10 -9 0 -16 5 -16 10 0 6 4 10 9 10 6 0 13 -4 16 -10z m84 -39 c11 -11 21
-15 23 -9 6 17 171 -45 183 -69 6 -12 16 -27 22 -34 5 -8 13 -74 17 -146 4
-73 15 -165 25 -205 10 -40 22 -95 26 -122 4 -32 17 -62 37 -87 23 -29 28 -41
20 -56 -6 -10 -12 -34 -14 -53 -7 -74 -56 -66 -80 12 -6 22 -22 48 -35 58 -20
16 -23 26 -23 95 0 42 4 74 9 71 11 -7 23 48 15 69 -3 8 -13 17 -22 20 -16 5
-82 107 -82 126 0 5 -3 9 -8 9 -4 0 -27 25 -50 55 -24 30 -50 55 -58 55 -8 0
-14 -3 -14 -6 0 -11 34 -64 41 -64 4 0 26 -33 50 -72 23 -40 49 -81 57 -90 8
-10 11 -18 6 -17 -5 0 -23 19 -39 42 -17 23 -41 46 -53 52 -12 5 -22 15 -22
22 0 7 -12 25 -27 41 -16 15 -36 39 -45 52 -14 21 -19 23 -27 10 -9 -12 -13
-11 -33 7 -13 11 -38 28 -57 38 l-35 17 34 28 c24 20 32 33 28 48 -9 33 18 62
56 62 45 0 67 25 40 45 -17 13 -18 14 -1 15 9 0 26 -9 36 -19z m-122 -23 c-3
-7 -5 -2 -5 12 0 14 2 19 5 13 2 -7 2 -19 0 -25z m3 -243 c23 -19 46 -35 51
-35 12 0 59 -53 59 -67 0 -7 14 -20 32 -29 18 -9 41 -28 53 -43 11 -14 35 -40
54 -58 33 -30 35 -35 39 -116 4 -71 1 -91 -16 -124 -20 -38 -43 -139 -34 -148
10 -9 30 30 37 72 4 24 12 46 19 50 7 5 15 15 18 23 6 19 34 -22 44 -65 l6
-30 -26 35 -27 35 6 -30 c4 -16 14 -47 23 -67 13 -31 21 -38 44 -38 25 0 28
-3 28 -35 0 -19 -2 -35 -4 -35 -8 0 -83 29 -126 48 -25 11 -91 34 -146 52
l-101 32 -5 70 c-4 50 -11 77 -27 96 -32 42 -102 186 -99 208 1 10 -1 55 -6
99 -13 137 20 170 104 100z m-1220 -229 c20 -18 43 -36 51 -39 19 -7 -25 -40
-66 -49 -41 -9 -65 6 -65 43 0 23 5 32 21 36 14 4 19 12 16 24 -7 26 0 24 43
-15z m754 9 c9 -10 14 -27 11 -43 -2 -15 -7 -43 -10 -62 -4 -26 -12 -38 -34
-48 -16 -7 -31 -22 -34 -32 -3 -11 -10 -20 -16 -20 -16 0 -13 83 4 116 17 34
20 74 4 74 -5 0 -7 5 -3 12 6 9 9 9 12 0 5 -17 29 -15 36 3 7 19 11 19 30 0z
m770 -11 c4 -10 1 -14 -6 -12 -15 5 -23 28 -10 28 5 0 13 -7 16 -16z m-2190
-64 c14 -5 26 -14 26 -19 0 -19 -41 -23 -65 -7 -33 22 -55 20 -55 -4 0 -11 4
-20 9 -20 5 0 23 -11 39 -25 37 -31 86 -42 107 -25 12 10 15 9 15 -7 0 -10 -5
-24 -12 -31 -9 -9 -7 -21 7 -51 9 -22 15 -47 12 -56 -4 -8 -4 -28 -1 -44 6
-27 8 -28 50 -23 24 2 44 1 44 -2 0 -14 -61 -95 -86 -115 -35 -27 -106 -28
-159 -1 -55 28 -131 27 -163 -2 -14 -13 -22 -16 -17 -8 21 39 39 50 82 50 42
0 58 15 28 27 -19 7 -68 110 -85 178 -11 44 -11 55 4 84 21 40 75 90 99 91 9
0 17 5 17 10 0 13 71 13 104 0z m1806 -38 c0 -8 16 -38 36 -68 38 -58 53 -119
36 -151 -8 -14 -8 -23 -1 -30 7 -7 4 -24 -10 -54 -22 -44 -29 -125 -11 -114 6
3 15 25 21 48 5 23 18 52 28 65 17 23 18 23 62 7 24 -9 64 -22 89 -29 25 -7
77 -27 115 -44 39 -16 85 -35 103 -42 22 -9 34 -21 38 -39 3 -14 10 -39 15
-55 18 -56 10 -119 -25 -205 -32 -79 -70 -142 -44 -74 15 40 7 57 -44 89 -23
15 -49 33 -56 41 -7 7 -22 18 -33 23 -10 6 -19 21 -19 34 0 21 -16 36 -39 36
-10 0 -55 -100 -87 -192 -13 -39 -28 -76 -33 -82 -5 -6 -12 -28 -16 -48 -6
-33 -4 -38 23 -52 20 -10 36 -32 51 -68 37 -88 44 -99 91 -137 58 -47 59 -48
53 -90 -10 -65 -41 -78 -94 -41 -15 12 -43 26 -61 32 -18 6 -41 19 -50 28 -22
23 -109 72 -178 101 -62 25 -90 46 -90 66 0 7 8 13 19 13 10 0 23 6 29 13 14
17 -2 42 -22 34 -9 -4 -29 -1 -44 5 -25 10 -25 11 -7 17 48 16 75 36 84 63 7
21 22 34 50 45 32 13 40 21 44 50 3 19 2 42 -3 51 -5 10 -11 25 -14 34 -3 11
-11 15 -21 12 -26 -10 -16 14 15 36 35 25 42 65 10 55 -36 -11 -40 5 -12 47
25 39 27 49 27 145 0 76 3 103 13 103 14 0 17 36 3 44 -5 3 -7 14 -4 24 2 10
-3 24 -11 31 -9 8 -16 19 -16 26 0 6 -11 33 -25 59 -25 47 -32 113 -19 164 6
21 7 21 20 5 7 -10 14 -24 14 -31z m-2172 -17 c-3 -3 -9 2 -12 12 -6 14 -5 15
5 6 7 -7 10 -15 7 -18z m1239 11 c4 -4 9 -25 10 -47 2 -36 1 -40 -17 -34 -15
5 -24 -2 -39 -27 -11 -18 -29 -44 -41 -56 -22 -26 -22 -26 -24 -97 -3 -87 -16
-131 -46 -160 -34 -33 -43 -22 -23 30 19 51 28 105 17 104 -17 -1 -64 -110
-56 -127 16 -35 5 -121 -25 -194 -17 -40 -38 -100 -46 -133 -23 -88 -48 -155
-58 -155 -12 0 -11 17 1 25 13 8 13 52 0 60 -17 10 -11 33 15 61 14 15 25 33
25 40 0 7 7 33 15 58 14 41 12 76 -4 76 -12 0 -31 -48 -31 -76 0 -33 -17 -64
-34 -64 -19 0 -29 -67 -16 -109 14 -49 7 -48 -20 3 -14 29 -21 55 -17 73 17
95 43 212 68 304 34 125 40 249 13 249 -13 0 -15 -8 -10 -47 7 -50 -20 -177
-50 -237 -8 -16 -14 -48 -14 -72 0 -24 -4 -53 -9 -66 -5 -13 -15 -50 -22 -83
-7 -33 -16 -64 -20 -69 -4 -5 -5 0 -3 11 7 25 -13 40 -29 24 -9 -9 -9 -16 0
-30 9 -14 8 -21 -3 -33 -8 -8 -20 -41 -26 -75 -10 -55 -9 -66 12 -119 23 -57
54 -95 116 -141 l29 -21 -22 -17 c-27 -19 -33 -75 -8 -75 20 0 37 -34 24 -47
-21 -21 -5 -57 33 -78 21 -11 38 -24 38 -28 0 -5 -15 0 -32 11 -18 11 -50 23
-71 26 -61 11 -79 36 -75 106 2 46 -1 63 -16 79 -11 12 -24 21 -30 21 -6 0
-48 25 -93 55 -46 30 -87 55 -92 55 -19 0 -34 43 -35 97 l0 53 -71 1 c-108 1
-235 15 -247 27 -17 17 -3 25 19 13 10 -6 81 -14 158 -19 147 -10 171 -5 162
30 -3 10 -1 18 3 18 11 0 68 119 76 158 4 18 14 32 26 35 14 4 19 12 16 33
l-3 27 -155 3 c-85 1 -195 3 -243 4 -72 2 -92 -1 -108 -15 -10 -10 -19 -14
-19 -9 0 5 10 18 23 29 24 22 55 24 327 16 l145 -4 20 39 c11 22 28 52 38 67
9 14 17 35 17 47 0 11 4 20 10 20 5 0 54 46 109 102 93 95 101 101 118 86 10
-8 39 -18 64 -21 46 -6 47 -5 74 33 15 22 34 40 42 40 8 0 37 15 64 33 40 25
49 36 44 52 -19 58 -18 65 4 62 11 -2 24 -7 28 -11z m691 -141 c-2 -11 -10
-20 -18 -20 -8 0 -17 -12 -20 -26 -3 -14 -22 -40 -42 -58 -46 -40 -46 -40 -22
115 15 94 19 104 35 99 10 -4 27 -2 36 4 16 9 19 4 26 -42 4 -29 6 -61 5 -72z
m-903 105 c17 -7 15 -9 -12 -9 -24 -1 -39 -10 -59 -35 l-28 -34 -13 25 c-14
28 -12 36 15 39 9 2 18 8 20 13 4 13 49 13 77 1z m122 -2 c5 13 33 17 33 4 0
-10 -25 -31 -55 -48 -16 -9 -25 -9 -40 2 -18 13 -18 14 -1 33 15 17 21 18 38
8 16 -9 22 -9 25 1z m648 -99 c-8 -52 -15 -107 -15 -123 0 -43 -26 -58 -67
-38 -32 15 -33 17 -33 81 0 66 0 66 48 109 71 64 77 69 80 67 1 -1 -4 -44 -13
-96z m-740 27 c18 -13 15 -14 -33 -13 -50 2 -66 10 -39 20 23 10 53 7 72 -7z
m2395 -82 c0 -22 -28 -16 -35 7 -4 11 -4 32 0 47 l7 27 14 -34 c8 -18 14 -40
14 -47z m-3386 47 c27 -6 51 -13 53 -14 2 -2 5 -39 7 -82 4 -65 1 -81 -14 -97
-10 -11 -23 -40 -30 -66 -7 -26 -17 -52 -22 -58 -5 -7 -12 -31 -16 -55 l-8
-44 -34 70 c-18 39 -37 72 -42 73 -4 2 -8 8 -8 14 0 15 -31 37 -53 38 -24 0
-35 34 -32 99 2 51 6 58 49 99 51 47 42 46 150 23z m1584 -39 c-1 -75 13 -124
42 -149 29 -24 31 -59 5 -69 -8 -3 -16 -33 -20 -72 -3 -37 -17 -98 -30 -137
-13 -38 -27 -85 -31 -104 -6 -31 -8 -33 -19 -18 -9 13 -10 29 -3 64 9 39 8 48
-6 59 -19 13 -14 52 12 92 18 27 8 41 -18 24 -11 -7 -21 -8 -25 -2 -3 5 -12 7
-20 3 -8 -3 -15 0 -15 6 0 6 11 16 25 21 20 8 23 13 16 32 -5 14 -4 30 3 41 8
13 8 20 -2 26 -8 4 -12 14 -11 22 1 8 -1 27 -6 42 -10 37 8 77 35 77 12 0 20
7 20 17 0 14 36 63 46 63 2 0 3 -17 2 -38z m-650 21 c-10 -2 -26 -2 -35 0 -10
3 -2 5 17 5 19 0 27 -2 18 -5z m1092 -84 c8 -15 8 -24 0 -34 -12 -15 -32 -248
-23 -271 3 -8 0 -14 -7 -14 -6 0 -14 9 -17 20 -8 32 -23 23 -23 -14 0 -21 6
-36 15 -40 8 -3 15 -16 15 -28 -1 -23 -1 -23 -15 -3 -8 11 -18 25 -23 31 -26
29 -33 166 -11 180 5 3 9 17 9 31 0 23 16 69 41 115 13 25 12 28 -11 28 -11 0
-20 5 -20 10 0 20 59 11 70 -11z m45 -9 c3 -5 1 -10 -4 -10 -6 0 -11 5 -11 10
0 6 2 10 4 10 3 0 8 -4 11 -10z m500 0 c3 -5 1 -10 -4 -10 -6 0 -11 5 -11 10
0 6 2 10 4 10 3 0 8 -4 11 -10z m-618 -36 c-9 -9 -28 6 -21 18 4 6 10 6 17 -1
6 -6 8 -13 4 -17z m-1442 -4 c3 -5 1 -10 -4 -10 -6 0 -11 5 -11 10 0 6 2 10 4
10 3 0 8 -4 11 -10z m1585 -30 c0 -5 -2 -10 -4 -10 -3 0 -8 5 -11 10 -3 6 -1
10 4 10 6 0 11 -4 11 -10z m-173 -22 c-3 -8 -6 -5 -6 6 -1 11 2 17 5 13 3 -3
4 -12 1 -19z m135 -53 c0 -41 1 -80 2 -87 1 -6 -5 -13 -11 -15 -10 -4 -13 18
-13 86 0 111 19 125 22 16z m-1472 40 c23 -14 21 -14 -35 -9 -33 4 -64 10 -69
15 -17 15 77 9 104 -6z m1520 -26 c0 -18 -4 -28 -10 -24 -5 3 -10 20 -10 36 0
18 4 28 10 24 6 -3 10 -20 10 -36z m-1650 -8 c0 -5 17 -9 38 -9 20 -1 45 -2
55 -3 18 -2 23 -24 7 -34 -5 -3 -10 -1 -10 4 0 6 -5 11 -11 11 -6 0 -9 -15 -7
-37 l3 -38 -190 -3 c-203 -3 -235 0 -235 23 0 8 -7 18 -16 23 -11 6 -14 16 -9
31 5 18 14 21 59 21 35 0 58 -5 66 -14 6 -8 35 -20 64 -27 62 -14 107 -3 146
35 26 26 40 32 40 17z m-600 -26 c0 -8 -4 -15 -10 -15 -5 0 -10 7 -10 15 0 8
5 15 10 15 6 0 10 -7 10 -15z m-32 -33 c12 -29 12 -58 0 -77 -9 -15 3 -65 16
-65 6 0 23 7 39 14 23 13 27 13 27 1 0 -8 -6 -18 -14 -22 -7 -4 -17 -23 -21
-41 -5 -24 -3 -33 9 -38 20 -8 24 -118 4 -112 -7 3 -15 15 -16 29 -2 13 -10
28 -18 32 -8 4 -14 17 -14 27 0 10 -4 22 -10 25 -15 9 -12 25 5 25 22 0 18 16
-9 33 -18 13 -25 28 -30 69 -4 29 -9 70 -12 91 -5 31 -3 37 13 37 10 0 23 -12
31 -28z m2279 -39 c-3 -10 -5 -2 -5 17 0 19 2 27 5 18 2 -10 2 -26 0 -35z
m-2047 27 c0 -5 -4 -10 -10 -10 -5 0 -10 5 -10 10 0 6 5 10 10 10 6 0 10 -4
10 -10z m-5 -49 c3 -5 1 -12 -4 -15 -5 -3 -11 1 -15 9 -6 16 9 21 19 6z m2007
-46 c-2 -14 -8 -25 -13 -25 -10 0 -12 34 -2 43 13 14 20 6 15 -18z m-2182 11
c0 -3 -4 -8 -10 -11 -5 -3 -10 -1 -10 4 0 6 5 11 10 11 6 0 10 -2 10 -4z m624
-76 c7 -7 -63 -9 -207 -7 -119 1 -217 5 -217 8 0 3 3 9 8 14 10 11 404 -3 416
-15z m1873 -29 c-1 -31 -4 -37 -19 -34 -12 4 -15 10 -8 22 5 9 11 24 14 34 9
29 15 19 13 -22z m-2312 19 c4 -6 -7 -10 -25 -10 -18 0 -29 4 -25 10 3 6 15
10 25 10 10 0 22 -4 25 -10z m3364 -65 c-1 -29 -1 -29 -9 -5 -4 14 -8 34 -9
45 -1 16 1 17 9 5 5 -8 9 -28 9 -45z m-3624 3 c13 -38 26 -98 22 -98 -1 0 -26
-9 -55 -19 l-53 -20 -24 40 c-14 21 -25 42 -25 46 0 14 95 93 108 90 8 -1 20
-19 27 -39z m691 19 c11 -11 -24 -57 -46 -59 -18 -2 -24 -8 -22 -22 3 -18 -1
-19 -74 -13 -42 4 -107 7 -144 7 -57 0 -71 4 -94 25 -24 23 -38 63 -16 50 6
-3 10 2 10 11 0 16 15 17 191 11 106 -4 194 -8 195 -10z m2036 -74 c8 -10 5
-13 -11 -13 -12 0 -31 -5 -41 -10 -15 -8 -22 -6 -31 12 -7 13 -13 37 -14 55
l-1 31 44 -31 c23 -17 48 -37 54 -44z m-101 -53 c51 -132 69 -153 97 -112 13
20 15 20 32 4 22 -21 80 -157 79 -186 -1 -22 -17 -69 -34 -99 -20 -33 -82 0
-201 108 -19 17 -45 57 -60 90 -22 52 -23 57 -7 42 25 -22 33 -22 33 3 0 22
-31 43 -53 34 -23 -8 -28 11 -12 42 17 33 20 74 5 74 -6 0 -8 11 -4 28 8 33
24 53 24 29 0 -9 7 -17 15 -17 8 0 15 9 15 19 0 17 3 18 25 8 16 -8 32 -31 46
-67z m-2127 1 c97 -4 131 -9 134 -20 4 -11 -19 -13 -134 -8 -81 3 -153 11
-172 18 -24 10 -35 11 -40 3 -4 -6 -22 -15 -41 -19 -23 -5 -31 -4 -27 4 4 6
16 11 27 11 11 0 19 7 19 16 0 14 8 15 53 9 28 -4 110 -10 181 -14z m453 -21
c-3 -11 3 -30 13 -42 33 -42 76 -239 53 -238 -5 0 -29 16 -55 35 -36 26 -51
46 -67 90 -24 64 -25 80 -10 124 15 43 77 72 66 31z m-737 -24 c0 -3 -4 -8
-10 -11 -5 -3 -10 -1 -10 4 0 6 5 11 10 11 6 0 10 -2 10 -4z m1856 -113 c-9
-9 -22 7 -31 37 -7 25 -7 25 15 -3 12 -15 19 -31 16 -34z m-1547 28 c54 -1 30
-12 -30 -13 -30 -1 -59 -5 -66 -10 -7 -6 -19 -4 -31 3 -21 13 -57 5 -47 -11 3
-5 2 -10 -4 -10 -11 0 -25 36 -17 48 2 4 40 4 83 1 43 -4 93 -8 112 -8z m-249
-11 c0 -5 -7 -10 -15 -10 -8 0 -15 5 -15 10 0 6 7 10 15 10 8 0 15 -4 15 -10z
m40 -4 c0 -11 -19 -15 -25 -6 -3 5 1 10 9 10 9 0 16 -2 16 -4z m-50 -74 c0
-21 13 -50 36 -83 27 -39 35 -59 32 -81 -4 -25 0 -31 29 -43 32 -13 49 -33 18
-22 -23 9 -30 -15 -9 -30 10 -8 38 -19 62 -25 23 -6 45 -15 49 -21 6 -10 -5
-8 -87 13 -19 5 -52 26 -72 46 -23 22 -44 34 -53 30 -9 -3 -15 0 -15 10 0 28
-31 83 -50 89 -10 3 -21 12 -24 20 -6 17 17 77 47 122 24 36 37 28 37 -25z
m1876 13 c18 -14 17 -14 -13 -15 -17 0 -33 -6 -36 -12 -3 -10 -7 -10 -17 -1
-35 32 26 58 66 28z m-134 -17 c-7 -7 -12 -8 -12 -2 0 14 12 26 19 19 2 -3 -1
-11 -7 -17z m-1649 0 c24 1 22 -14 -11 -67 -6 -10 -52 44 -52 61 0 16 4 18 23
12 12 -4 30 -7 40 -6z m72 -18 c3 -5 41 -11 83 -11 123 -2 154 -16 37 -18
-112 -1 -145 5 -145 25 0 16 16 19 25 4z m119 -75 c106 -7 93 -17 -16 -13 -63
2 -102 8 -110 16 -11 11 -7 13 22 8 19 -4 66 -8 104 -11z m-129 -43 c-3 -3
-11 0 -18 7 -9 10 -8 11 6 5 10 -3 15 -9 12 -12z m155 -20 c0 -7 -70 -32 -92
-32 -7 0 -19 9 -26 20 -12 19 -10 20 53 20 36 0 65 -3 65 -8z m1166 -65 c16
-44 17 -47 6 -47 -11 0 -32 70 -31 101 1 20 2 21 6 4 2 -11 11 -37 19 -58z
m-1156 -24 c23 -5 24 -6 5 -13 -22 -8 -119 4 -157 20 -24 10 100 5 152 -7z
m-263 -44 c6 -6 9 -18 6 -25 -13 -34 50 -57 85 -31 7 6 12 6 12 -1 0 -5 -18
-17 -40 -26 -45 -18 -63 -21 -40 -6 13 9 13 10 -1 10 -18 0 -59 52 -59 75 0
18 21 20 37 4z"/>
<path d="M2797 2170 c-7 -28 -1 -40 19 -40 18 0 18 21 1 45 -13 17 -14 17 -20
-5z"/>
<path d="M2466 1923 c-3 -3 -3 -10 0 -14 7 -12 34 -11 34 0 0 11 -26 22 -34
14z"/>
<path d="M2443 1865 c-3 -9 -3 -18 0 -22 11 -10 57 7 57 22 0 20 -49 20 -57 0z"/>
<path d="M2737 1625 c-15 -13 -46 -29 -70 -35 -81 -22 -90 -25 -95 -37 -6 -21
79 -15 128 8 59 29 100 60 100 76 0 21 -33 15 -63 -12z"/>
<path d="M522 1390 c2 -51 6 -63 26 -76 31 -21 35 -15 22 37 -7 24 -14 56 -17
72 -3 15 -12 27 -19 27 -11 0 -14 -14 -12 -60z"/>
<path d="M1287 1413 c-2 -5 -11 -37 -21 -73 -10 -36 -22 -73 -27 -82 -5 -10
-9 -26 -9 -37 0 -24 -26 -88 -40 -96 -11 -7 -14 -55 -4 -55 22 0 68 93 84 170
7 30 18 74 26 98 16 50 18 82 5 82 -6 0 -12 -3 -14 -7z"/>
<path d="M935 1150 c-8 -25 14 -117 32 -131 22 -19 36 0 18 27 -8 13 -18 44
-22 69 -7 51 -18 65 -28 35z"/>
<path d="M1855 1350 c-3 -5 1 -10 9 -10 8 0 18 5 21 10 3 6 -1 10 -9 10 -8 0
-18 -4 -21 -10z"/>
<path d="M2698 849 c-6 -17 32 -129 43 -129 12 0 11 26 -4 84 -13 48 -31 69
-39 45z"/>
<path d="M410 470 c0 -23 4 -30 20 -30 23 0 27 29 8 48 -19 19 -28 14 -28 -18z"/>
<path d="M3813 2513 c-19 -7 -16 -26 7 -46 19 -16 20 -16 20 18 0 35 -3 38
-27 28z"/>
<path d="M1388 2233 c-4 -407 -2 -450 19 -430 8 9 17 611 9 643 -4 13 -11 24
-16 24 -6 0 -11 -90 -12 -237z"/>
<path d="M3832 2415 c0 -16 2 -22 5 -12 2 9 2 23 0 30 -3 6 -5 -1 -5 -18z"/>
<path d="M3630 2406 c0 -14 4 -27 10 -31 14 -9 0 -34 -16 -28 -10 4 -14 -4
-14 -31 0 -33 6 -41 27 -33 4 1 6 13 4 27 -2 20 -1 22 11 12 12 -10 17 -7 29
16 l13 27 4 -35 c4 -39 19 -63 34 -54 7 4 9 -6 6 -29 -3 -32 -1 -36 22 -39 62
-9 87 20 70 84 -8 29 -8 44 -1 51 6 6 11 18 10 27 0 8 -3 10 -5 4 -3 -6 -16
-9 -30 -6 -34 6 -67 -24 -59 -56 4 -16 2 -21 -5 -17 -6 4 -10 23 -8 44 2 29 0
36 -14 35 -11 -1 -18 5 -18 17 0 26 -17 33 -29 12 -9 -16 -10 -16 -11 5 0 13
-6 22 -15 22 -9 0 -15 -9 -15 -24z m170 -121 c0 -31 -4 -45 -13 -45 -10 0 -14
14 -15 45 0 32 4 45 14 45 10 0 14 -13 14 -45z"/>
<path d="M2036 2385 c-3 -9 -6 -125 -6 -257 0 -187 3 -239 13 -236 9 4 13 64
15 248 2 221 -4 291 -22 245z"/>
<path d="M1600 2280 c0 -5 5 -10 10 -10 6 0 10 5 10 10 0 6 -4 10 -10 10 -5 0
-10 -4 -10 -10z"/>
<path d="M3680 2245 c0 -8 5 -15 10 -15 6 0 10 7 10 15 0 8 -4 15 -10 15 -5 0
-10 -7 -10 -15z"/>
<path d="M1657 2204 c-4 -4 -4 -18 -1 -31 7 -27 -11 -54 -32 -46 -10 4 -14 -3
-14 -22 0 -22 4 -26 23 -23 28 4 55 57 49 97 -4 30 -12 38 -25 25z"/>
<path d="M3660 2170 c0 -16 4 -30 9 -30 5 0 11 14 13 30 3 20 0 30 -9 30 -8 0
-13 -12 -13 -30z"/>
<path d="M3808 2193 c-31 -5 -34 -13 -16 -31 22 -22 48 -14 48 13 0 14 -1 24
-2 24 -2 -1 -15 -4 -30 -6z"/>
<path d="M3588 2153 c-29 -4 -38 -27 -15 -36 25 -9 68 5 65 21 -3 18 -12 20
-50 15z"/>
<path d="M1526 2104 c-10 -26 -7 -44 8 -44 8 0 17 9 21 20 11 34 -16 57 -29
24z"/>
<path d="M3803 2107 c-18 -7 -41 -21 -52 -32 -18 -17 -19 -23 -8 -45 10 -20
20 -25 55 -26 25 -1 42 3 42 10 0 17 -37 37 -55 30 -8 -3 -15 -1 -15 4 0 6 16
14 35 18 28 5 35 11 35 30 0 13 -1 24 -2 23 -2 0 -18 -6 -35 -12z"/>
<path d="M2216 2064 c5 -21 3 -25 -11 -22 -21 4 -28 -11 -16 -31 12 -19 39 -7
52 23 14 29 6 56 -16 56 -12 0 -14 -6 -9 -26z"/>
<path d="M2120 2010 c0 -11 5 -20 10 -20 6 0 10 9 10 20 0 11 -4 20 -10 20 -5
0 -10 -9 -10 -20z"/>
<path d="M1597 1991 c-13 -16 -28 -47 -32 -68 -4 -21 -10 -42 -15 -48 -12 -14
-1 -97 16 -120 13 -18 16 -17 54 25 45 50 49 65 20 73 -14 4 -20 0 -20 -12 0
-9 -9 -22 -19 -28 -16 -10 -20 -9 -24 7 -3 11 0 21 5 22 6 2 11 25 12 51 1 35
8 54 29 78 15 17 27 35 27 40 0 19 -29 8 -53 -20z"/>
<path d="M1720 1901 c0 -28 17 -35 29 -12 15 27 14 31 -9 31 -13 0 -20 -7 -20
-19z"/>
<path d="M1704 1839 c-3 -6 -1 -15 6 -19 9 -6 7 -11 -10 -20 -21 -11 -21 -13
-6 -28 16 -16 18 -16 30 0 7 10 11 31 8 48 -4 31 -16 39 -28 19z"/>
<path d="M1823 1758 c-14 -22 -10 -138 4 -138 9 0 13 21 13 75 0 76 -2 85 -17
63z"/>
<path d="M3136 1710 c-20 -50 -20 -70 -1 -106 12 -24 22 -29 59 -31 47 -3 65
9 46 32 -7 9 -8 15 0 20 15 9 12 62 -5 95 -13 24 -22 30 -49 30 -30 0 -36 -4
-50 -40z m78 -6 c20 -8 21 -28 2 -43 -8 -7 -22 -8 -36 -3 -20 7 -21 10 -7 15
10 4 17 13 17 22 0 17 2 18 24 9z"/>
<path d="M1692 1670 c-15 -25 -15 -30 2 -30 13 0 26 20 26 41 0 16 -15 10 -28
-11z"/>
<path d="M1676 1613 c-12 -12 -6 -33 9 -33 8 0 15 6 15 14 0 17 -14 28 -24 19z"/>
<path d="M3409 1565 c-1 -30 -2 -61 -3 -67 -1 -7 6 -13 14 -13 11 0 15 16 18
68 3 55 0 67 -12 67 -12 0 -16 -13 -17 -55z"/>
<path d="M1825 1592 c-10 -7 -35 -48 -35 -57 0 -3 9 -5 20 -5 13 0 22 9 26 25
7 30 2 47 -11 37z"/>
<path d="M3282 1563 c2 -12 14 -19 38 -21 19 -2 41 -8 47 -14 19 -16 16 0 -4
21 -10 10 -33 22 -51 26 -29 6 -33 5 -30 -12z"/>
<path d="M1 1513 l0 -58 14 50 c18 64 18 65 0 65 -12 0 -15 -13 -14 -57z"/>
<path d="M1477 1463 c-23 -38 -17 -288 6 -280 8 2 12 47 12 145 0 127 -4 158
-18 135z"/>
<path d="M3190 1438 c0 -13 6 -18 17 -16 24 5 27 25 3 31 -15 4 -20 0 -20 -15z"/>
<path d="M3016 1191 c-4 -5 -2 -20 3 -33 9 -21 10 -21 10 10 1 32 -3 39 -13
23z"/>
<path d="M3129 1168 c-1 -7 -3 -29 -5 -48 -2 -19 -6 -60 -9 -90 -5 -48 5 -93
19 -80 2 3 7 56 11 118 6 81 4 112 -4 112 -6 0 -12 -6 -12 -12z"/>
<path d="M3204 1074 c5 -44 1 -78 -14 -134 -21 -79 -26 -160 -11 -160 6 0 13
21 16 48 4 26 13 68 21 94 19 60 16 199 -5 206 -11 4 -13 -6 -7 -54z"/>
<path d="M1771 1081 c-9 -6 -10 -11 -2 -15 13 -8 31 1 31 15 0 11 -11 11 -29
0z"/>
<path d="M3834 975 c0 -66 1 -92 3 -57 2 34 2 88 0 120 -2 31 -3 3 -3 -63z"/>
<path d="M1560 990 c0 -16 5 -30 10 -30 6 0 10 6 10 14 0 8 3 21 6 30 4 11 1
16 -10 16 -11 0 -16 -9 -16 -30z"/>
<path d="M1579 893 c-1 -5 -1 -12 0 -17 1 -4 -4 -15 -11 -23 -10 -13 -8 -19
11 -34 31 -25 45 -24 37 4 -11 34 -14 51 -15 65 -1 13 -20 17 -22 5z"/>
<path d="M1696 862 c-34 -20 -54 -62 -30 -62 8 0 17 6 20 14 3 8 18 20 34 26
18 7 27 17 23 26 -6 17 -11 17 -47 -4z"/>
<path d="M1950 684 c-6 -14 -10 -34 -10 -45 0 -23 -18 -61 -34 -71 -8 -5 -7
-11 1 -19 18 -18 40 4 55 53 l11 39 38 -37 c24 -23 43 -34 53 -31 24 9 19 25
-12 41 -15 8 -37 30 -47 50 -25 46 -43 52 -55 20z"/>
<path d="M1725 660 c-3 -5 -3 -14 0 -20 3 -5 -5 -22 -19 -37 -38 -41 -15 -62
24 -23 29 29 41 65 27 79 -14 14 -24 14 -32 1z"/>
<path d="M150 349 c0 -22 7 -72 16 -112 12 -51 15 -95 11 -155 -5 -62 -3 -82
6 -79 29 9 35 132 11 257 -9 47 -18 95 -20 108 -7 37 -24 25 -24 -19z"/>
<path d="M229 314 c9 -52 33 -59 29 -8 -2 26 -8 40 -19 42 -13 2 -15 -4 -10
-34z"/>
<path d="M282 313 c4 -32 38 -46 38 -16 0 20 -18 43 -33 43 -4 0 -7 -12 -5
-27z"/>
<path d="M2600 312 c0 -11 -11 -54 -24 -98 -30 -97 -41 -214 -20 -214 8 0 14
5 14 10 0 6 8 10 18 8 15 -3 18 11 23 127 4 72 10 142 14 158 6 21 4 27 -9 27
-9 0 -16 -8 -16 -18z"/>
<path d="M3230 241 c0 -11 7 -42 16 -67 10 -30 14 -62 10 -86 -7 -40 3 -49 24
-23 14 16 10 56 -13 139 -14 51 -37 74 -37 37z"/>
<path d="M1308 98 c-4 -72 1 -87 30 -88 15 0 17 96 2 134 -17 45 -28 29 -32
-46z"/>
<path d="M640 10 c-11 -7 -2 -10 33 -10 30 0 46 4 42 10 -8 13 -55 13 -75 0z"/>
</g>
</svg>
