<?xml version="1.0" standalone="no"?>
<!DOCTYPE svg PUBLIC "-//W3C//DTD SVG 20010904//EN"
 "http://www.w3.org/TR/2001/REC-SVG-20010904/DTD/svg10.dtd">
<svg version="1.0" xmlns="http://www.w3.org/2000/svg"
 width="384.000000pt" height="256.000000pt" viewBox="0 0 384.000000 256.000000"
 preserveAspectRatio="xMidYMid meet">
<metadata>
Created by potrace 1.16, written by Peter Selinger 2001-2019
</metadata>
<g transform="translate(0.000000,256.000000) scale(0.100000,-0.100000)"
fill="#000000" stroke="none">
<path d="M65 2555 c-5 -2 -22 -6 -37 -9 -19 -4 -28 -13 -28 -26 0 -21 8 -23
50 -11 16 5 25 14 26 29 1 12 1 22 0 21 0 0 -5 -2 -11 -4z"/>
<path d="M100 2552 c0 -5 13 -45 29 -89 29 -80 70 -161 116 -229 14 -20 25
-41 25 -47 0 -6 7 -18 16 -28 15 -16 12 -18 -43 -24 -64 -6 -172 -22 -216 -31
-18 -4 -27 -12 -27 -25 0 -17 5 -19 43 -13 23 3 67 12 98 20 67 17 143 18 170
4 17 -10 19 -7 19 20 0 30 -30 93 -110 233 -52 91 -55 103 -30 110 11 3 23 1
26 -4 5 -8 67 -4 101 6 24 8 1 35 -28 35 -31 0 -39 14 -13 24 13 5 14 9 5 20
-9 11 -9 15 1 19 9 4 7 6 -4 6 -9 1 -18 -4 -20 -10 -2 -6 -22 -13 -43 -15 -22
-2 -45 -11 -51 -19 -9 -12 -14 -13 -19 -5 -4 7 -2 17 4 23 18 18 13 27 -19 27
-16 0 -30 -4 -30 -8z"/>
<path d="M300 2558 c0 -2 33 -68 74 -148 57 -113 77 -145 92 -144 43 4 195 35
259 54 158 46 239 60 358 60 47 0 96 4 109 9 13 4 57 12 98 15 l76 7 14 -58
c12 -47 19 -59 38 -61 25 -4 29 10 8 27 -8 7 -18 27 -22 44 -3 18 -11 37 -16
44 -5 7 -7 17 -4 22 4 5 -1 37 -10 70 -14 48 -21 61 -37 61 -14 0 -17 -4 -12
-17 21 -52 27 -75 22 -87 -8 -21 -307 -44 -307 -23 0 17 34 86 43 87 4 0 7
-12 7 -26 0 -29 16 -64 30 -64 12 0 13 47 1 54 -5 3 -11 19 -13 35 -4 24 0 31
16 34 12 2 2 5 -21 6 -39 1 -42 -1 -62 -42 -12 -24 -21 -55 -21 -69 0 -24 -4
-25 -87 -37 -49 -7 -97 -16 -108 -21 -48 -19 -218 -61 -267 -67 -29 -3 -61
-10 -71 -15 -15 -8 -20 -5 -24 11 -3 12 -9 21 -14 21 -5 0 -9 9 -9 20 0 11 -6
23 -14 26 -8 3 -26 36 -41 72 -15 37 -31 72 -36 79 -7 8 -4 13 8 16 10 3 1 5
-19 6 -21 0 -38 0 -38 -1z"/>
<path d="M1384 2552 c-7 -4 -8 -15 -3 -29 7 -20 16 -23 62 -23 30 0 68 5 86
11 45 16 61 0 50 -49 -11 -50 -11 -52 6 -52 15 0 32 61 21 78 -10 16 48 33
100 30 45 -3 49 -5 52 -30 2 -14 10 -32 19 -40 15 -12 16 -9 10 31 -3 24 -11
48 -19 52 -11 7 -10 11 2 20 15 11 -46 8 -145 -7 -25 -3 -35 -2 -27 4 9 6 4 9
-18 9 -16 0 -30 -5 -30 -10 0 -5 -7 -4 -15 3 -12 10 -19 10 -27 2 -14 -14
-105 -16 -110 -2 -1 5 -8 6 -14 2z"/>
<path d="M1940 2550 c0 -5 4 -10 9 -10 6 0 13 5 16 10 3 6 -1 10 -9 10 -9 0
-16 -4 -16 -10z"/>
<path d="M1935 2510 c-4 -6 -2 -17 4 -23 15 -15 25 -2 13 19 -7 12 -11 13 -17
4z"/>
<path d="M0 2441 c0 -36 85 -181 106 -181 8 0 14 2 14 5 0 3 -22 44 -50 92
-27 48 -50 91 -50 95 0 4 -4 8 -10 8 -5 0 -10 -9 -10 -19z"/>
<path d="M3742 2169 c1 -13 8 -23 13 -21 15 3 12 35 -3 40 -9 3 -13 -3 -10
-19z"/>
<path d="M3805 2150 c-8 -16 -15 -32 -15 -36 0 -14 38 28 43 47 8 29 -11 23
-28 -11z"/>
<path d="M3657 2147 c-18 -28 -22 -47 -9 -47 12 0 35 46 30 60 -2 8 -11 2 -21
-13z"/>
<path d="M3490 2069 c-10 -18 -9 -20 7 -17 10 2 19 11 21 21 5 24 -15 21 -28
-4z"/>
<path d="M3590 2070 c0 -5 7 -10 16 -10 8 0 12 5 9 10 -3 6 -10 10 -16 10 -5
0 -9 -4 -9 -10z"/>
<path d="M3720 2070 c-11 -7 -12 -12 -3 -21 15 -15 43 -5 43 16 0 17 -18 19
-40 5z"/>
<path d="M3810 2066 c0 -8 5 -16 11 -18 9 -3 9 -15 3 -43 -8 -33 -14 -41 -36
-43 -29 -3 -44 -35 -24 -51 8 -7 21 -6 38 3 15 8 29 12 32 8 3 -3 6 31 6 76 0
66 -3 82 -15 82 -8 0 -15 -6 -15 -14z"/>
<path d="M1419 2022 c-19 -21 -39 -47 -45 -57 -9 -16 -15 -17 -56 -7 -26 7
-70 12 -99 12 -28 0 -89 8 -136 17 l-85 18 -21 -30 c-12 -16 -22 -36 -22 -45
0 -20 -101 -18 -144 4 -37 20 -88 20 -121 1 -47 -27 -119 -11 -120 26 -1 8
-10 25 -21 39 l-21 24 -48 -17 c-26 -9 -65 -17 -87 -17 -22 0 -61 -11 -89 -25
-27 -14 -65 -28 -84 -31 -19 -3 -49 -10 -67 -15 -36 -11 -53 -39 -23 -39 27 0
116 24 178 49 29 12 68 21 86 21 18 0 54 9 80 21 48 21 66 19 66 -8 0 -25 68
-83 97 -83 14 0 45 10 69 22 l44 22 42 -22 c94 -46 240 -28 188 24 -8 8 -6 15
5 24 12 10 34 10 108 1 50 -6 118 -14 150 -17 55 -5 81 -24 35 -24 -13 0 -30
-4 -38 -10 -34 -21 44 -25 106 -5 23 7 23 2 9 -71 -6 -29 -45 -75 -57 -68 -5
3 0 12 11 21 29 20 26 33 -6 33 -41 0 -60 -15 -45 -33 10 -12 7 -16 -19 -21
-17 -3 -65 -6 -105 -6 -59 0 -74 3 -74 15 0 8 -3 15 -7 15 -20 0 -143 -35
-143 -41 0 -10 49 -21 62 -13 6 4 9 1 6 -6 -2 -7 -19 -21 -38 -31 -18 -10 -38
-23 -44 -29 -16 -16 -123 -12 -151 6 -19 12 -36 15 -71 9 -43 -6 -45 -6 -35
14 6 11 25 28 41 38 17 9 30 21 30 25 0 16 98 49 203 68 62 11 123 23 137 26
14 3 57 10 95 17 82 14 85 33 5 29 -71 -3 -254 -35 -355 -62 -65 -18 -86 -28
-115 -59 -19 -21 -47 -46 -62 -56 -16 -9 -28 -24 -28 -32 0 -9 -6 -13 -15 -9
-8 3 -15 1 -15 -4 0 -6 3 -10 8 -10 4 0 21 -14 39 -30 35 -32 53 -38 53 -16 0
21 21 24 74 11 96 -25 195 -6 254 48 23 21 30 47 11 47 -5 0 -7 5 -4 10 10 16
52 11 59 -6 6 -15 19 -16 103 -11 52 4 101 11 108 17 10 8 15 7 21 -1 4 -7 3
-14 -2 -16 -5 -2 -9 -54 -8 -116 0 -109 14 -180 45 -238 7 -13 18 -57 25 -98
13 -72 65 -192 103 -235 28 -32 68 -46 133 -46 54 0 74 6 136 39 56 30 75 36
79 26 8 -21 -3 -32 -75 -74 -88 -51 -98 -64 -106 -136 -4 -36 -12 -63 -22 -68
-8 -4 -28 -34 -44 -66 -34 -69 -30 -79 42 -106 52 -19 104 -14 94 10 -3 8 -1
17 4 20 15 9 12 35 -4 35 -7 0 -16 -9 -19 -21 -6 -22 -25 -21 -75 4 -30 15
-22 52 19 87 26 22 29 31 29 82 0 57 0 58 50 95 62 48 118 83 132 83 6 0 8 -9
5 -20 -4 -15 6 -26 44 -50 27 -16 52 -30 55 -30 3 0 3 37 -1 83 -5 55 -14 91
-26 109 -11 14 -19 39 -19 55 0 16 -6 35 -12 42 -11 11 -8 12 15 7 35 -8 49 0
38 22 -20 39 -30 68 -33 92 -5 42 -21 28 -34 -30 -17 -69 -8 -176 16 -210 18
-26 32 -110 18 -110 -5 0 -8 5 -8 10 0 6 -10 10 -21 10 -17 0 -20 4 -15 23 11
43 -31 123 -60 112 -8 -2 -11 12 -9 42 2 26 -3 66 -10 90 -11 35 -11 44 0 51
7 4 25 30 40 57 15 28 31 54 35 58 4 4 23 -10 43 -33 21 -22 40 -40 43 -40 18
0 94 -45 99 -58 8 -20 -19 -46 -39 -39 -9 4 -20 17 -26 31 -9 25 -28 42 -36
33 -3 -3 -2 -21 1 -40 5 -26 13 -37 30 -41 17 -4 22 -11 18 -25 -3 -13 2 -20
21 -25 35 -9 85 18 97 53 6 18 25 35 54 49 24 12 49 30 54 41 16 28 -4 36 -29
11 -24 -24 -57 -26 -88 -4 -20 14 -22 14 -22 0 0 -19 -20 -22 -20 -3 -1 6 -24
23 -53 36 -28 14 -70 42 -93 63 -26 24 -51 38 -68 38 -26 0 -36 22 -16 35 19
12 11 38 -10 32 -11 -3 -20 -3 -20 0 0 3 19 31 41 64 32 45 40 64 35 84 -7 29
-5 30 32 12 41 -21 149 -45 224 -51 37 -3 80 -12 95 -19 48 -25 232 -62 244
-50 19 19 2 30 -53 36 -45 5 -174 40 -283 78 -16 6 -48 15 -69 19 -21 4 -43
15 -48 24 -11 20 -48 21 -48 1 0 -8 5 -15 12 -15 6 0 9 -2 6 -5 -10 -10 -103
15 -114 31 -19 24 -54 25 -85 3 -18 -12 -37 -18 -49 -14 -21 7 -54 -35 -87
-112 -10 -24 -21 -43 -24 -43 -4 0 -12 21 -18 47 -11 40 -10 48 4 56 49 27 85
70 85 101 0 18 5 37 12 44 16 16 53 15 70 -1 26 -27 55 -35 138 -42 74 -6 252
-53 325 -85 11 -5 48 -16 81 -25 34 -8 74 -22 90 -30 16 -8 36 -15 45 -15 9 0
27 -8 40 -18 13 -10 43 -28 67 -40 43 -22 43 -22 37 -2 -8 25 -5 25 53 -1 47
-21 102 -65 102 -81 0 -5 -11 -13 -25 -18 -14 -5 -25 -16 -25 -23 0 -7 -15
-21 -32 -31 -80 -43 -101 -55 -119 -72 -24 -22 -38 -10 -16 14 23 25 21 32 -9
32 -19 0 -25 4 -20 15 6 16 -29 45 -55 45 -9 0 -25 12 -35 28 -25 38 -45 52
-74 51 -14 -1 -33 2 -43 6 -11 4 -23 3 -30 -4 -8 -8 -8 -11 1 -11 7 0 12 -7
12 -15 0 -8 -4 -15 -10 -15 -5 0 -10 -4 -10 -10 0 -5 14 -10 31 -10 25 0 29 3
20 13 -14 18 -4 28 18 18 9 -5 28 -14 44 -22 29 -13 36 -29 12 -29 -8 0 -15 5
-15 10 0 6 -7 10 -15 10 -25 0 -17 -36 11 -50 21 -12 29 -12 47 -1 15 10 22
10 25 2 2 -6 12 -11 23 -11 28 0 23 -17 -6 -24 -14 -4 -49 -29 -78 -56 -28
-27 -60 -56 -70 -65 -21 -18 -15 -55 14 -97 22 -31 12 -35 -32 -13 -16 9 -65
18 -109 20 -75 5 -80 4 -80 -15 0 -18 7 -20 61 -20 51 0 60 -3 55 -15 -3 -9
-1 -23 4 -33 15 -28 71 -200 75 -233 3 -26 -5 -39 -57 -90 -33 -32 -61 -67
-62 -77 -4 -28 -89 -29 -117 -1 -14 14 -42 24 -88 31 -36 5 -88 13 -116 19
-136 27 -150 28 -159 19 -7 -7 -6 -14 1 -21 6 -6 9 -17 6 -24 -7 -21 35 -38
76 -31 85 16 261 0 261 -23 0 -15 57 -32 96 -29 32 2 40 7 42 26 2 12 13 27
25 34 30 15 107 98 118 126 5 13 6 35 3 50 -11 44 -52 170 -63 190 -8 15 -6
18 7 18 29 -2 28 18 -1 32 -16 8 -26 16 -24 19 8 7 87 -17 87 -27 0 -6 10 -5
24 1 20 9 29 7 55 -12 17 -12 31 -26 31 -31 0 -4 13 -21 29 -37 16 -17 31 -38
33 -48 10 -52 178 -82 252 -46 47 24 49 49 4 37 -44 -12 -196 -10 -207 2 -6 5
2 22 20 42 29 32 38 28 19 -9 -15 -28 14 -37 41 -13 13 12 23 15 27 8 9 -14
61 -24 68 -13 2 4 11 6 19 2 23 -8 65 6 65 22 0 10 -10 15 -27 15 -14 0 -34 6
-42 13 -9 8 -32 20 -51 28 -43 17 -84 61 -67 71 13 8 -3 12 -35 9 -13 -2 -18
5 -18 23 0 21 -7 27 -42 37 -24 7 -47 12 -51 11 -16 -4 -62 30 -73 53 -11 23
-10 23 36 21 30 -2 65 -13 96 -31 27 -15 65 -36 85 -46 19 -10 41 -25 48 -33
8 -9 43 -30 80 -47 36 -17 74 -35 85 -41 20 -11 35 3 36 32 1 45 60 152 60
110 0 -18 48 -65 57 -57 3 4 -4 36 -16 72 -11 36 -21 83 -21 105 0 27 -7 47
-21 61 -11 11 -19 24 -17 29 3 9 140 81 145 76 2 -2 -4 -22 -12 -46 -8 -23
-15 -51 -15 -61 0 -11 -5 -19 -11 -19 -7 0 -9 9 -5 23 3 12 9 33 12 47 l6 25
-22 -22 c-25 -24 -30 -74 -9 -99 7 -8 26 -14 44 -12 31 2 95 -33 95 -53 0 -16
22 -10 41 12 21 25 15 43 -12 36 -10 -3 -23 1 -30 9 -6 8 -17 14 -24 14 -7 0
-18 6 -25 14 -6 8 -18 12 -26 9 -8 -3 -14 0 -14 6 0 13 42 15 56 2 5 -4 21
-11 37 -15 30 -7 31 -5 42 57 5 29 3 37 -9 37 -18 0 -35 -29 -29 -47 3 -7 -2
-13 -11 -13 -9 0 -16 8 -16 20 0 11 -6 20 -14 20 -23 0 -28 16 -20 66 4 29 12
47 23 51 9 3 26 10 39 16 17 8 28 8 41 0 19 -12 85 -2 122 17 9 6 48 14 84 19
74 11 87 17 65 32 -18 12 -92 3 -178 -22 -65 -18 -66 -18 -84 1 -10 10 -18 23
-18 27 0 4 -16 19 -36 33 -23 15 -31 26 -23 29 7 2 15 -1 17 -7 2 -7 10 -12
17 -12 7 0 15 -7 19 -15 7 -19 40 -19 60 0 8 8 25 15 38 15 13 0 39 5 58 11
66 20 195 33 358 33 159 1 162 1 162 23 0 21 -4 22 -132 25 -84 2 -151 -1
-183 -9 -27 -7 -64 -13 -82 -13 -53 0 -211 -40 -265 -68 -17 -8 16 82 39 106
18 19 70 32 126 32 26 0 64 7 84 15 48 20 96 19 167 -5 33 -11 65 -20 73 -20
18 0 16 20 -4 37 -17 14 -17 14 2 8 19 -7 64 -16 143 -30 29 -5 32 -4 32 20 0
22 -4 25 -32 24 -61 -2 -118 13 -129 33 -8 15 -13 17 -25 7 -22 -18 -18 11 6
41 11 14 20 33 20 43 0 15 -3 16 -20 7 -11 -6 -20 -21 -20 -34 0 -29 -30 -43
-46 -22 -6 9 -16 16 -23 16 -21 0 -11 -27 24 -63 20 -21 31 -37 26 -37 -21 0
-61 24 -61 37 0 17 -42 33 -69 26 -21 -5 -30 12 -10 19 9 3 9 10 0 26 -16 30
-30 28 -44 -7 -10 -23 -16 -28 -27 -21 -37 24 -40 3 -5 -32 33 -33 20 -43 -68
-52 -38 -4 -86 -13 -108 -20 -35 -12 -39 -12 -51 6 -7 10 -20 20 -28 22 -33 7
-50 19 -50 38 0 11 -14 39 -31 64 -37 51 -102 79 -160 68 -52 -10 -169 -71
-201 -104 -26 -28 -28 -35 -28 -115 0 -50 4 -85 10 -85 13 0 13 -77 0 -85 -5
-3 -19 3 -31 14 -12 11 -43 23 -68 27 -25 4 -63 13 -85 20 -21 8 -46 14 -56
14 -10 0 -35 7 -56 16 -34 15 -37 18 -19 25 11 4 36 8 56 8 41 1 50 7 42 27
-11 29 -123 10 -123 -21 0 -24 -91 -19 -195 10 -162 46 -189 52 -259 59 -38 4
-78 12 -89 18 -11 5 -41 15 -66 22 -36 8 -47 16 -49 34 -2 12 -9 22 -16 22 -7
0 -27 16 -46 35 -43 45 -101 75 -144 75 -26 0 -41 -8 -67 -38z m137 -24 c16
-13 38 -31 48 -40 19 -18 19 -18 -12 -18 -37 0 -82 25 -82 46 0 8 -10 19 -22
24 -21 8 -21 9 8 9 18 1 44 -9 60 -21z m1384 -8 c-10 -7 -11 -13 -5 -17 19
-14 12 -164 -8 -193 -21 -30 -22 -50 -2 -50 8 0 15 -6 15 -14 0 -32 52 -31 64
0 8 21 -11 54 -30 54 -12 0 -14 5 -8 18 8 16 11 53 13 165 l1 49 32 -19 c46
-27 63 -87 36 -125 -15 -21 -17 -32 -9 -47 9 -16 8 -18 -9 -14 -23 6 -27 -16
-8 -35 20 -20 38 -14 38 13 0 14 5 25 10 25 5 0 9 5 8 11 -2 6 3 14 11 17 16
6 9 -32 -16 -86 l-16 -33 41 -42 41 -42 -19 -23 c-11 -13 -24 -21 -29 -18 -5
4 -12 2 -16 -4 -9 -15 -25 -12 -25 5 0 18 -20 20 -20 3 -1 -14 -54 41 -63 63
-3 10 -8 11 -16 3 -19 -18 -2 -68 30 -86 35 -21 37 -40 5 -57 -33 -18 -66 -6
-66 24 0 13 -5 27 -11 31 -15 9 -30 -17 -18 -32 7 -8 6 -15 -1 -19 -6 -4 -9
-14 -6 -22 3 -8 1 -23 -5 -34 -5 -11 -11 -43 -11 -70 -1 -37 -6 -53 -17 -57
-9 -3 -19 -10 -23 -16 -5 -6 -5 4 -2 22 5 26 3 32 -10 32 -25 0 -16 43 12 55
37 16 28 39 -13 32 -38 -6 -47 6 -16 22 10 6 22 18 25 27 9 24 -15 36 -35 18
-23 -20 -34 -18 -66 16 -15 17 -35 30 -43 31 -10 0 -11 2 -2 6 6 2 12 13 12
24 0 10 6 19 14 19 20 0 33 106 17 132 -7 11 -11 47 -9 84 2 73 12 85 113 137
48 25 150 40 115 17z m-1505 -10 c-11 -18 15 -50 41 -50 14 0 38 -9 53 -20 23
-15 28 -27 29 -65 1 -25 -5 -59 -13 -75 -19 -36 -19 -103 0 -155 8 -22 14 -56
15 -76 0 -19 6 -41 13 -48 7 -8 8 -15 2 -17 -5 -2 -25 -13 -42 -24 -27 -16
-33 -26 -33 -55 0 -35 34 -113 73 -169 44 -62 21 -136 -42 -136 -90 0 -131 44
-152 164 -6 37 -26 111 -45 164 -30 86 -32 103 -28 176 3 50 11 87 20 97 8 8
14 20 14 26 0 6 11 30 24 54 14 26 27 71 31 108 3 35 13 74 22 87 14 23 31 35
18 14z m2095 -76 c0 -2 -11 -4 -25 -4 -14 0 -25 4 -25 9 0 4 11 6 25 3 14 -2
25 -6 25 -8z m-70 2 c0 -3 -4 -8 -10 -11 -5 -3 -10 -1 -10 4 0 6 5 11 10 11 6
0 10 -2 10 -4z m-1801 -87 c-5 -10 -9 -27 -9 -38 0 -20 -62 -91 -80 -91 -17 0
-11 46 10 70 11 13 20 32 20 43 0 11 7 28 16 38 22 24 58 5 43 -22z m255 -9
c13 -5 -2 -6 -39 -3 -33 3 -64 10 -70 15 -11 12 73 2 109 -12z m94 -9 c9 -6
31 -13 47 -17 17 -3 25 -8 19 -10 -5 -3 -37 4 -70 15 -33 11 -49 19 -36 20 12
1 30 -3 40 -8z m112 -41 c8 -5 11 -10 5 -10 -5 0 -17 5 -25 10 -8 5 -10 10 -5
10 6 0 17 -5 25 -10z m840 -10 c0 -5 -4 -10 -10 -10 -5 0 -10 5 -10 10 0 6 5
10 10 10 6 0 10 -4 10 -10z m-608 -26 c15 -8 51 -19 80 -25 29 -6 58 -15 63
-20 6 -4 39 -12 73 -18 76 -12 79 -14 84 -50 3 -20 1 -28 -6 -23 -13 8 -18 9
-78 10 -28 1 -53 8 -63 19 -16 15 -100 49 -185 74 -116 34 -170 51 -170 54 0
10 178 -9 202 -21z m-538 -91 c-10 -15 -23 -37 -29 -47 -15 -29 -33 -30 -37
-4 -5 37 -23 17 -22 -25 0 -33 -2 -37 -20 -31 -12 4 -22 7 -24 9 -1 1 6 22 17
46 10 24 22 53 26 64 7 19 7 19 16 -2 11 -31 44 -29 65 2 9 14 19 23 22 21 2
-3 -4 -18 -14 -33z m1233 -115 c-3 -7 -5 -2 -5 12 0 14 2 19 5 13 2 -7 2 -19
0 -25z m-1277 -47 c-1 -20 -5 -55 -9 -79 -7 -34 -6 -42 5 -38 8 3 11 0 7 -10
-3 -7 -11 -14 -18 -14 -8 0 -18 -15 -24 -33 -9 -26 -8 -41 3 -68 8 -19 14 -61
13 -94 -1 -58 -2 -58 -46 -87 -39 -24 -54 -28 -122 -28 -56 0 -80 4 -89 15
-11 13 -7 15 25 15 49 0 96 35 124 93 28 57 27 61 -14 86 -27 15 -44 39 -69
93 -31 67 -33 75 -18 91 8 9 21 17 27 17 7 0 24 9 38 20 36 28 49 11 66 -83 9
-52 18 -77 27 -77 17 0 17 13 4 60 -7 24 -6 36 2 41 6 4 13 24 15 46 2 21 8
40 13 41 6 2 10 12 10 23 0 12 5 16 15 13 10 -4 15 -19 15 -43z m1006 -146
c-13 -10 -40 -15 -75 -14 l-56 1 50 13 c28 7 61 13 75 14 24 0 24 0 6 -14z
m-336 -15 c-8 -5 -19 -10 -25 -10 -5 0 -3 5 5 10 8 5 20 10 25 10 6 0 3 -5 -5
-10z m150 -10 c0 -5 -7 -10 -15 -10 -8 0 -15 5 -15 10 0 6 7 10 15 10 8 0 15
-4 15 -10z m200 -40 c0 -5 11 -10 25 -10 14 0 25 5 25 10 0 6 7 10 15 10 10 0
15 -10 15 -27 -1 -32 -20 -62 -37 -56 -8 3 -10 -8 -6 -36 l6 -40 -34 9 c-19 6
-35 10 -36 10 -9 0 -1 24 12 36 18 18 20 55 3 72 -7 7 -23 12 -37 13 l-26 1
25 8 c36 11 50 11 50 0z m-390 -80 c0 -5 -2 -10 -4 -10 -3 0 -8 5 -11 10 -3 6
-1 10 4 10 6 0 11 -4 11 -10z m4 -46 c3 -8 2 -12 -4 -9 -6 3 -10 10 -10 16 0
14 7 11 14 -7z m36 -34 c0 -5 -2 -10 -4 -10 -3 0 -8 5 -11 10 -3 6 -1 10 4 10
6 0 11 -4 11 -10z m50 -19 c0 -11 -4 -22 -9 -25 -5 -3 -8 5 -7 19 1 29 16 34
16 6z"/>
<path d="M2740 1657 c0 -32 62 -100 87 -95 22 4 29 28 7 28 -17 0 -48 29 -78
72 l-16 22 0 -27z"/>
<path d="M1626 1775 c-3 -8 -1 -15 4 -15 6 0 10 7 10 15 0 8 -2 15 -4 15 -2 0
-6 -7 -10 -15z"/>
<path d="M3384 2046 c-6 -17 2 -36 17 -36 12 0 12 37 -1 45 -6 3 -13 -1 -16
-9z"/>
<path d="M3542 2018 c3 -7 13 -15 22 -16 12 -3 17 1 14 10 -3 7 -13 15 -22 16
-12 3 -17 -1 -14 -10z"/>
<path d="M3320 1974 c0 -12 6 -15 23 -10 12 3 25 6 30 6 4 0 7 5 7 10 0 6 -13
10 -30 10 -21 0 -30 -5 -30 -16z"/>
<path d="M95 1967 c-16 -7 -45 -18 -62 -26 -24 -9 -33 -19 -33 -37 l0 -23 70
36 c39 20 70 43 70 50 0 16 -6 16 -45 0z"/>
<path d="M1910 1960 c-24 -15 2 -18 195 -23 156 -4 188 -7 238 -27 34 -12 71
-20 89 -18 25 4 29 2 25 -14 -6 -22 32 -35 60 -20 26 14 57 51 50 58 -7 7 -23
1 -53 -21 -18 -13 -24 -14 -35 -3 -17 15 -93 44 -169 64 -63 16 -376 19 -400
4z"/>
<path d="M500 1881 c-8 -5 -34 -11 -57 -15 -56 -8 -93 -26 -93 -44 0 -10 6
-12 23 -7 12 4 42 10 67 14 67 10 145 62 93 61 -10 0 -25 -4 -33 -9z"/>
<path d="M185 1861 c-44 -3 -85 -9 -91 -13 -6 -4 -26 -10 -45 -13 -33 -5 -33
-4 -14 11 18 15 18 16 2 10 -10 -3 -23 -6 -28 -6 -5 0 -9 -16 -9 -35 0 -24 5
-35 15 -35 8 0 15 4 15 9 0 12 145 44 169 36 27 -8 103 13 98 28 -5 15 -12 15
-112 8z"/>
<path d="M527 1842 c-12 -18 17 -29 91 -34 73 -5 87 -2 73 20 -9 15 -156 28
-164 14z"/>
<path d="M105 1769 c-27 -11 -54 -25 -59 -30 -6 -5 -18 -9 -28 -9 -24 0 -24
-37 -1 -43 17 -4 17 -5 1 -6 -22 -1 -24 -37 -2 -45 26 -10 35 -7 33 12 -5 54
1 72 25 72 13 0 29 7 36 15 7 8 23 15 35 15 24 0 49 22 38 33 -10 10 -23 8
-78 -14z"/>
<path d="M1742 1765 c-15 -32 -15 -35 -1 -35 18 0 41 30 35 45 -8 22 -21 18
-34 -10z"/>
<path d="M542 1763 c-6 -2 -10 -9 -6 -14 10 -17 104 -6 104 12 0 9 -76 11 -98
2z"/>
<path d="M270 1750 c0 -5 6 -10 14 -10 8 0 18 5 21 10 3 6 -3 10 -14 10 -12 0
-21 -4 -21 -10z"/>
<path d="M210 1713 c-14 -18 -17 -29 -10 -31 12 -4 60 36 60 50 0 18 -30 6
-50 -19z"/>
<path d="M390 1712 c0 -5 22 -18 48 -29 46 -20 48 -23 44 -57 -4 -32 -1 -37
24 -47 39 -14 74 -48 74 -71 0 -23 28 -23 47 0 11 13 10 9 -1 -15 -11 -22 -25
-33 -48 -38 -18 -4 -38 -15 -45 -24 -11 -15 -12 -14 -13 2 0 11 -8 17 -22 17
-19 0 -20 2 -6 18 23 26 28 60 12 73 -22 18 -36 -2 -41 -58 -2 -26 -6 -49 -8
-51 -4 -4 -48 20 -56 32 -4 5 -23 6 -42 3 -22 -3 -42 0 -55 9 -23 16 -72 21
-90 10 -17 -10 -15 -41 3 -56 9 -7 13 -21 10 -31 -4 -12 1 -22 15 -29 27 -14
18 -29 -15 -22 -14 2 -25 0 -25 -6 0 -6 -3 -17 -6 -26 -5 -12 1 -14 33 -9 21
3 44 10 51 16 9 7 12 4 12 -12 0 -14 9 -25 26 -31 29 -11 124 -104 124 -120 0
-7 -8 -9 -20 -5 -22 7 -29 -19 -7 -28 7 -4 3 -8 -10 -12 -13 -4 -23 -14 -23
-21 0 -8 -6 -14 -14 -14 -8 0 -16 -4 -18 -9 -4 -11 -110 -51 -155 -58 -22 -3
-33 -1 -33 7 0 7 -8 9 -20 5 -17 -5 -20 -2 -20 24 0 17 -9 45 -20 63 -25 41
-26 101 -2 129 9 12 29 36 45 54 30 36 36 60 11 51 -9 -3 -17 -6 -19 -6 -1 0
-22 -25 -46 -56 -37 -49 -43 -62 -40 -98 2 -22 11 -59 22 -80 21 -44 24 -66 9
-66 -5 0 -10 -7 -10 -15 0 -8 6 -15 14 -15 8 0 17 -7 20 -16 4 -9 13 -14 21
-10 15 6 65 -12 65 -23 0 -4 -18 -17 -41 -31 -22 -14 -51 -39 -65 -57 -13 -17
-32 -34 -41 -37 -17 -6 -48 -56 -35 -56 7 0 41 26 124 91 18 15 47 29 65 32
29 6 36 1 88 -56 64 -71 91 -123 100 -187 3 -25 16 -61 28 -80 12 -18 27 -42
33 -52 16 -26 87 -73 92 -59 2 7 13 4 29 -9 42 -33 84 -25 97 18 4 12 11 22
16 22 6 0 6 -10 0 -25 -7 -19 -6 -25 4 -25 8 0 17 7 20 16 6 15 9 14 31 -6 21
-20 32 -22 87 -18 35 2 78 12 97 21 19 9 36 15 39 12 2 -2 -1 -40 -8 -84 -9
-59 -16 -78 -26 -74 -7 2 -19 1 -26 -3 -7 -5 -31 -9 -53 -9 -34 0 -40 -3 -40
-21 -1 -12 -6 -28 -12 -35 -25 -32 -53 -101 -53 -132 0 -43 -7 -49 -34 -33
-11 8 -56 26 -98 40 -43 15 -92 35 -110 45 -18 11 -53 25 -78 32 -25 6 -52 20
-61 30 -40 44 -153 80 -154 49 -1 -19 14 -30 42 -30 12 0 27 -9 33 -20 6 -11
18 -20 26 -20 9 0 27 -9 41 -20 14 -11 31 -20 39 -20 7 0 25 -7 41 -15 104
-53 269 -115 310 -115 18 0 23 7 28 38 13 78 17 92 26 92 5 0 9 -21 9 -47 0
-85 10 -123 32 -123 15 0 18 4 13 17 -3 10 -8 62 -10 115 -4 82 -2 96 10 92 8
-4 18 1 21 10 3 9 12 16 20 16 8 0 14 4 14 9 0 5 8 11 19 14 15 4 18 -1 17
-22 0 -14 3 -77 7 -140 l9 -114 141 7 c78 4 143 11 145 16 2 6 24 20 50 32 76
38 81 41 91 70 10 27 -1 50 -29 60 -5 1 -7 14 -3 27 6 23 8 23 71 17 58 -6
100 -19 152 -45 33 -18 20 -49 -51 -120 -15 -14 -37 -34 -50 -43 l-24 -17 40
0 c38 0 43 4 89 66 46 62 48 67 40 107 -9 40 -11 42 -74 63 -36 12 -82 22
-103 22 -20 1 -46 6 -57 13 -15 10 -22 9 -38 -5 -21 -19 -132 -25 -132 -7 0 6
6 10 14 10 18 0 33 19 41 52 6 25 3 29 -39 49 -26 12 -49 25 -52 30 -9 15 -64
11 -64 -4 0 -19 -33 -47 -53 -47 -24 0 -22 5 23 50 22 22 40 47 40 55 0 8 5
15 10 15 14 0 240 -68 265 -80 11 -5 56 -19 100 -31 44 -12 96 -27 115 -34 19
-8 89 -30 156 -50 l120 -37 -4 -58 -4 -58 43 -28 c24 -15 55 -30 69 -34 20 -5
24 -12 22 -33 -4 -29 6 -35 26 -15 30 30 3 87 -42 88 -13 0 -16 3 -8 13 11 14
-2 57 -17 57 -11 0 -55 59 -49 66 3 2 40 -5 83 -16 43 -11 88 -20 99 -20 34 0
216 48 232 61 22 18 18 -9 -10 -61 -26 -51 -40 -110 -26 -110 6 0 10 -8 10
-17 1 -34 46 -73 85 -73 24 0 35 4 35 15 0 8 -4 15 -9 15 -5 0 -14 14 -20 30
-11 33 -37 42 -28 10 3 -11 1 -20 -4 -20 -8 0 -13 16 -22 74 -3 19 4 51 19 83
19 45 30 56 67 72 24 11 47 26 50 35 5 13 15 15 49 10 112 -16 161 -56 171
-139 l6 -51 -56 -44 c-31 -25 -66 -52 -79 -60 -13 -8 -24 -18 -24 -22 0 -18
43 -6 82 22 22 16 47 30 55 30 7 0 13 3 13 8 0 4 23 8 52 10 53 2 78 15 78 38
0 10 15 13 60 11 33 -1 60 -5 60 -9 0 -8 12 -24 64 -84 24 -29 34 -34 70 -33
22 0 34 3 26 6 -21 8 -39 34 -40 56 0 9 -7 17 -16 17 -8 0 -12 -4 -9 -10 3 -5
2 -10 -3 -10 -9 0 -54 61 -79 109 -11 20 -11 22 3 17 9 -3 34 -9 57 -12 23 -4
50 -13 59 -21 17 -15 33 -24 140 -82 35 -18 68 -37 73 -41 19 -15 94 -29 89
-16 -7 14 -72 56 -88 56 -7 0 -24 8 -37 18 -13 10 -33 22 -44 26 -11 4 -46 24
-77 44 -41 26 -58 44 -60 62 -4 31 -91 81 -109 63 -17 -17 4 -41 44 -51 41
-11 47 -30 8 -24 -38 5 -132 94 -120 113 4 7 6 34 4 61 -4 54 -6 54 70 0 31
-22 39 -34 37 -54 -3 -27 30 -64 48 -53 6 4 8 15 5 25 -6 18 -3 18 57 -2 35
-11 67 -25 72 -29 15 -14 26 -11 26 8 0 15 1 15 13 1 6 -8 34 -21 62 -27 27
-7 55 -17 62 -23 9 -7 15 -6 19 7 9 22 -1 29 -66 49 -54 16 -110 56 -110 77 0
7 8 8 18 4 30 -12 37 -10 34 8 -2 10 3 17 14 17 14 0 15 8 10 54 -6 43 -4 55
8 59 17 7 22 47 6 47 -5 0 -10 -7 -10 -15 0 -28 -18 -15 -33 23 -15 36 -17 38
-56 34 -46 -5 -53 -18 -16 -32 23 -9 36 -40 16 -40 -17 0 -20 -29 -6 -44 19
-19 19 -26 0 -26 -17 0 -35 38 -28 57 2 6 -5 30 -16 54 -19 39 -20 45 -6 66
11 16 12 23 4 23 -7 0 -21 7 -31 17 -26 24 -33 9 -14 -31 21 -44 20 -49 -6
-41 l-23 6 21 -18 c30 -25 53 -91 35 -102 -10 -6 -7 -15 14 -35 14 -14 30 -26
35 -26 16 0 17 -25 1 -53 -14 -25 -14 -29 -1 -37 13 -8 12 -10 -3 -10 -27 0
-58 20 -51 32 4 7 3 8 -4 4 -21 -13 -131 61 -115 78 4 3 -6 19 -21 35 -18 19
-32 47 -37 77 -5 26 -13 50 -18 53 -5 4 -11 20 -15 36 -6 29 -3 32 66 75 40
25 85 50 100 57 15 7 28 18 28 26 0 7 14 26 30 42 29 27 41 65 21 65 -13 0
-31 -19 -61 -63 -28 -41 -29 -42 -53 -24 -14 10 -15 18 -7 47 15 53 14 63 -10
50 -11 -6 -20 -20 -20 -32 0 -12 -7 -29 -16 -39 -14 -16 -29 -18 -113 -13 -53
3 -114 12 -135 20 -29 11 -42 12 -50 4 -8 -8 -6 -15 9 -25 11 -8 25 -18 30
-22 6 -4 72 -8 147 -8 86 0 138 -4 138 -10 0 -6 -21 -21 -47 -35 -27 -13 -60
-33 -75 -44 -15 -10 -33 -16 -42 -13 -8 3 -18 2 -22 -4 -6 -11 -88 -2 -116 12
-9 5 -30 22 -46 39 -30 30 -62 40 -62 20 0 -6 6 -13 14 -16 28 -11 65 -78 64
-119 0 -22 -4 -42 -8 -45 -23 -15 -109 -90 -142 -125 -30 -32 -34 -41 -21 -44
9 -2 24 5 33 15 25 31 97 84 104 77 3 -3 6 -15 6 -25 0 -11 14 -33 30 -51 19
-20 30 -42 29 -57 -3 -56 -1 -58 59 -70 66 -13 108 -28 80 -29 -11 -1 -18 -9
-18 -21 0 -11 -4 -20 -8 -20 -19 0 -72 -58 -67 -72 4 -10 -1 -17 -14 -21 -21
-5 -29 7 -11 18 8 5 7 31 -6 90 -7 37 -61 86 -110 101 -62 18 -138 18 -153 0
-7 -8 -30 -24 -51 -35 l-38 -20 -7 39 c-4 21 -15 49 -26 61 -10 12 -19 30 -19
41 0 15 5 17 25 12 37 -9 33 20 -5 36 -36 15 -37 14 -40 -25 -4 -57 0 -75 20
-92 39 -34 14 -77 -50 -85 -19 -3 -65 -13 -102 -23 -58 -16 -74 -17 -110 -7
-24 7 -99 26 -168 43 -69 17 -147 39 -175 49 -27 9 -84 27 -125 39 -41 12
-112 33 -157 46 -46 14 -120 36 -165 49 -151 43 -151 43 -201 148 -25 51 -42
96 -39 100 4 4 32 10 63 14 45 5 63 2 97 -15 52 -27 95 -27 131 0 15 11 47 23
70 26 24 3 40 10 38 17 -4 13 -71 14 -105 2 -21 -7 -23 -5 -22 16 3 36 1 48
-10 48 -5 0 -12 -10 -15 -23 -4 -14 -18 -26 -39 -33 -46 -14 -58 -9 -44 22 10
20 8 27 -8 39 -23 17 -34 19 -34 5 0 -5 -17 -10 -38 -10 -20 0 -54 -9 -75 -20
-46 -25 -47 -25 -47 0 0 13 -7 20 -20 20 -13 0 -20 -7 -20 -19 0 -45 -193
-122 -296 -118 -47 2 -65 -2 -90 -20 l-30 -22 -30 24 c-16 13 -34 24 -41 25
-7 0 -17 9 -23 20 -6 10 -16 17 -23 14 -9 -3 -21 11 -33 38 -10 23 -39 63 -64
87 -50 49 -90 100 -90 113 0 37 184 47 203 12 6 -10 33 -43 61 -75 28 -31 58
-68 67 -80 l16 -23 129 17 c71 9 163 29 204 43 86 29 243 51 248 34 4 -11 72
-14 72 -2 0 4 -20 18 -45 32 l-44 24 19 21 c11 12 20 33 20 47 0 15 5 39 10
53 6 15 7 31 4 37 -9 14 -33 -24 -42 -69 -10 -48 -42 -60 -42 -16 0 16 -5 34
-12 41 -9 9 -4 20 25 50 20 21 37 45 37 53 0 8 5 20 11 26 29 29 -20 117 -75
137 -21 7 -65 -4 -138 -37 -58 -25 -63 -42 -10 -32 20 4 58 7 85 7 26 0 47 4
47 9 0 5 7 9 15 9 8 0 15 -4 15 -10 0 -5 -7 -10 -15 -10 -8 0 -19 -9 -25 -20
-8 -15 -17 -19 -36 -14 -19 5 -29 1 -40 -15 -8 -11 -23 -21 -32 -21 -14 -1
-13 -4 6 -19 12 -11 22 -24 22 -29 0 -5 6 -15 14 -21 8 -7 17 -24 21 -38 3
-15 15 -33 26 -41 10 -7 19 -18 19 -24 0 -6 7 -16 14 -22 8 -6 18 -23 21 -37
6 -25 5 -27 -29 -27 -24 0 -36 5 -36 14 0 8 -4 14 -10 14 -5 0 -17 8 -27 18
-10 10 -39 35 -66 56 -51 41 -74 83 -83 155 -7 60 -13 66 -35 42 -23 -25 -39
-27 -39 -6 0 8 5 15 11 15 16 0 48 42 49 63 0 23 -12 22 -28 -4 -7 -11 -19
-18 -27 -15 -18 7 -41 -22 -38 -48 3 -19 2 -19 -9 3 -10 19 -9 29 5 53 15 25
15 36 5 69 -7 26 -14 35 -19 27 -6 -9 -16 -6 -37 15 -24 23 -31 25 -40 14 -7
-8 -9 -16 -6 -20 3 -3 -4 -15 -15 -26 -12 -12 -21 -30 -21 -41 0 -22 -32 -43
-54 -34 -19 7 -37 -26 -39 -76 -1 -30 -6 -41 -24 -49 -19 -9 -25 -8 -30 7 -4
9 -14 22 -22 29 -14 11 -14 12 -1 13 9 0 21 -5 28 -12 9 -9 15 -9 24 0 10 10
7 18 -15 36 -17 15 -24 27 -18 31 19 11 12 22 -21 36 -18 7 -39 19 -47 27 -8
7 -22 11 -32 9 -10 -3 -23 1 -29 8 -6 7 -23 16 -38 20 -33 8 -54 24 -46 37 3
5 0 15 -6 23 -10 13 -8 15 18 15 32 0 50 -14 32 -25 -20 -12 -10 -25 20 -25
17 0 30 5 30 11 0 5 5 7 11 3 10 -6 55 -13 106 -16 7 -1 15 -8 18 -16 4 -11
16 -13 57 -8 43 6 57 14 90 49 21 23 38 50 38 59 0 20 15 24 25 8 8 -13 45
-13 45 -1 0 5 -7 16 -15 25 -21 21 -19 29 6 21 14 -5 19 -3 15 3 -9 14 -111
35 -135 27 -12 -3 -32 3 -53 18 -28 19 -33 26 -24 40 11 17 -1 33 -54 70 -25
17 -80 24 -80 9z m322 -498 c-3 -29 -1 -44 7 -44 6 0 11 -4 11 -10 0 -5 -6
-10 -13 -10 -24 0 -49 -37 -45 -67 l3 -28 29 28 c33 33 40 30 32 -11 -5 -21
-19 -35 -56 -55 l-49 -27 6 33 c3 17 10 35 15 38 5 3 8 14 7 25 -1 10 -1 39
-1 63 2 34 5 42 17 37 12 -4 15 4 15 38 0 23 3 46 7 49 13 13 20 -15 15 -59z
m428 1 c10 -12 5 -22 -29 -57 -22 -24 -41 -52 -42 -63 0 -15 -5 -11 -17 15 -9
19 -20 37 -23 40 -8 6 -29 47 -29 55 0 3 9 1 20 -5 24 -13 70 -3 70 16 0 19
34 18 50 -1z m-573 -75 c-1 -50 -5 -69 -14 -66 -20 8 -26 -14 -9 -33 28 -31
19 -41 -34 -41 -59 0 -68 21 -20 48 32 18 40 42 15 42 -8 0 -15 5 -15 10 0 6
5 10 10 10 6 0 10 6 10 14 0 17 42 85 52 86 4 0 6 -32 5 -70z m221 15 c-2 -55
-18 -61 -18 -7 0 34 6 52 17 52 2 0 2 -20 1 -45z m-293 -5 c3 -5 1 -10 -4 -10
-6 0 -11 5 -11 10 0 6 2 10 4 10 3 0 8 -4 11 -10z m-32 -43 c3 -8 1 -20 -4
-28 -6 -10 -9 -7 -9 14 0 29 5 35 13 14z m-23 -53 c0 -14 -3 -15 -17 -3 -10 7
-20 15 -22 16 -2 2 5 3 17 3 14 0 22 -6 22 -16z m390 12 c0 -2 -3 -12 -6 -20
-5 -13 -9 -14 -20 -5 -20 16 -17 29 6 29 11 0 20 -2 20 -4z m-440 -26 c0 -5
-4 -10 -10 -10 -5 0 -10 5 -10 10 0 6 5 10 10 10 6 0 10 -4 10 -10z m553 -49
c9 -8 17 -22 17 -33 0 -10 5 -18 10 -18 24 0 7 -19 -22 -25 -18 -3 -60 -14
-93 -24 -33 -10 -75 -21 -94 -25 -29 -5 -32 -4 -21 9 7 8 18 15 26 15 22 0 65
47 70 77 3 15 15 35 26 44 23 18 39 13 81 -20z m-153 12 c0 -2 -11 -16 -25
-31 -14 -15 -25 -32 -25 -38 0 -6 -6 -17 -14 -23 -11 -10 -16 -9 -23 3 -11 20
-37 24 -38 6 0 -8 -7 -16 -16 -18 -13 -2 -15 3 -11 24 4 20 1 25 -9 22 -8 -3
-15 -14 -17 -26 -2 -12 -10 -22 -17 -22 -16 0 -11 20 13 58 10 16 17 19 22 11
6 -8 25 -3 71 19 55 25 89 31 89 15z m167 -273 c-4 -14 3 -26 25 -41 27 -20
39 -41 93 -167 22 -51 12 -83 -36 -107 -25 -13 -30 -21 -26 -41 2 -13 0 -27
-5 -30 -5 -3 -15 -20 -23 -37 -15 -32 -15 -32 -11 26 3 32 10 65 17 73 6 8 7
14 1 14 -5 0 -7 18 -4 45 4 35 1 46 -12 51 -9 3 -22 2 -29 -3 -6 -6 -47 -18
-89 -28 l-78 -17 -45 33 c-25 20 -43 40 -40 49 2 8 6 31 9 51 6 35 6 35 -24
31 -16 -2 -30 0 -30 5 0 5 31 14 69 20 38 6 95 23 127 37 31 14 62 26 69 26 7
0 18 7 25 15 17 21 23 19 17 -5z m1892 -92 c-22 -9 -23 -10 -7 -22 10 -7 15
-16 12 -19 -4 -3 3 -19 15 -35 12 -17 21 -37 21 -46 0 -21 -26 -32 -43 -18 -7
6 -35 20 -62 31 -28 11 -43 20 -35 21 15 0 40 42 40 66 0 7 -10 15 -22 17 -14
2 -6 5 17 6 22 1 47 5 55 10 8 6 18 7 24 4 5 -4 -1 -10 -15 -15z m-2351 -6
c17 -11 -1 -62 -22 -62 -13 0 -56 49 -56 64 0 9 63 7 78 -2z m2227 -72 c3 -5
-1 -10 -9 -10 -9 0 -16 5 -16 10 0 6 4 10 9 10 6 0 13 -4 16 -10z m-2238 -22
c-3 -8 -6 -5 -6 6 -1 11 2 17 5 13 3 -3 4 -12 1 -19z m140 -55 c-3 -3 -16 -2
-29 3 l-23 7 23 8 c12 5 23 14 23 21 1 7 4 2 6 -10 3 -13 2 -26 0 -29z m2111
23 c34 -14 62 -22 62 -19 0 13 52 -43 66 -70 10 -19 12 -36 6 -60 -8 -30 -11
-32 -50 -29 -51 3 -106 23 -80 29 24 6 8 43 -42 101 -37 42 -51 72 -32 72 5 0
36 -11 70 -24z m512 -16 c0 -5 -7 -10 -15 -10 -8 0 -15 5 -15 10 0 6 7 10 15
10 8 0 15 -4 15 -10z m-2083 -167 c2 -30 -12 -37 -45 -22 l-28 12 25 28 c26
30 45 23 48 -18z m-297 -57 c0 -2 -9 -6 -20 -9 -11 -3 -18 -1 -14 4 5 9 34 13
34 5z m180 -89 c-14 -6 -34 -20 -44 -29 -11 -10 -21 -16 -24 -14 -8 9 11 28
42 42 38 16 61 17 26 1z m220 -24 c0 -3 -15 -19 -32 -34 -27 -22 -31 -30 -20
-40 21 -22 14 -26 -50 -33 -35 -3 -80 -8 -101 -12 -44 -7 -67 7 -67 42 0 39
116 86 135 54 3 -5 15 -10 26 -10 17 0 18 3 9 20 -10 19 -8 20 45 20 30 0 55
-3 55 -7z m80 -17 c0 -13 -81 -58 -89 -50 -3 3 8 18 25 33 31 31 64 40 64 17z"/>
<path d="M2750 460 c0 -5 7 -10 16 -10 8 0 12 5 9 10 -3 6 -10 10 -16 10 -5 0
-9 -4 -9 -10z"/>
<path d="M410 1660 c0 -5 7 -10 16 -10 8 0 12 5 9 10 -3 6 -10 10 -16 10 -5 0
-9 -4 -9 -10z"/>
<path d="M112 1650 c-12 -5 -25 -16 -28 -25 -4 -8 -14 -15 -24 -15 -11 0 -22
-5 -25 -11 -4 -6 -13 -8 -21 -5 -10 4 -14 -4 -14 -29 0 -45 25 -52 84 -24 51
24 61 49 19 49 -32 0 -23 11 20 26 18 6 32 17 32 24 0 17 -15 21 -43 10z m-72
-80 c0 -5 -5 -10 -11 -10 -5 0 -7 5 -4 10 3 6 8 10 11 10 2 0 4 -4 4 -10z"/>
<path d="M190 1640 c-17 -32 -9 -94 13 -98 16 -3 17 -1 7 17 -6 12 -8 26 -5
31 3 5 0 12 -6 16 -7 4 1 12 20 20 37 16 41 34 6 34 -14 0 -29 -8 -35 -20z"/>
<path d="M3832 1628 c-1 -13 -11 -18 -36 -18 -26 0 -36 -5 -41 -20 -3 -11 -12
-20 -20 -20 -7 0 -16 -7 -19 -16 -5 -13 -15 -15 -46 -10 -45 7 -63 -11 -40
-39 7 -8 10 -22 6 -30 -6 -17 28 -112 50 -136 26 -29 17 -66 -26 -109 -60 -60
-49 -86 14 -34 37 32 55 61 56 92 0 13 4 20 10 17 6 -3 13 2 16 12 17 52 26
62 55 56 28 -5 29 -4 29 32 0 32 -2 36 -15 25 -24 -20 -27 -6 -5 23 18 23 20
37 17 109 -1 46 -4 75 -5 66z m-91 -121 c-10 -9 -11 -8 -5 6 3 10 9 15 12 12
3 -3 0 -11 -7 -18z m19 -43 c0 -8 -4 -12 -10 -9 -5 3 -10 13 -10 21 0 8 5 12
10 9 6 -3 10 -13 10 -21z m15 -34 c3 -5 1 -10 -4 -10 -6 0 -11 5 -11 10 0 6 2
10 4 10 3 0 8 -4 11 -10z"/>
<path d="M304 1616 c-8 -22 3 -33 18 -18 9 9 9 15 0 24 -9 9 -13 7 -18 -6z"/>
<path d="M1205 1610 c-10 -11 -15 -23 -11 -27 11 -11 61 11 64 30 5 24 -30 22
-53 -3z"/>
<path d="M884 1585 c-14 -14 -30 -25 -35 -25 -13 0 -6 -23 8 -27 12 -4 83 54
83 68 0 18 -31 9 -56 -16z"/>
<path d="M420 1571 c0 -11 -4 -23 -10 -26 -5 -3 -10 -1 -10 4 0 6 -4 11 -10
11 -15 0 -12 -28 4 -37 8 -4 16 -19 18 -33 6 -47 19 -25 23 38 1 34 -1 62 -6
62 -5 0 -9 -9 -9 -19z"/>
<path d="M2113 1564 c4 -20 -1 -27 -21 -35 -25 -10 -89 -3 -150 16 -19 6 -21
5 -16 -11 6 -16 4 -16 -18 4 -25 23 -58 30 -58 12 0 -11 144 -155 186 -185 15
-11 35 -18 43 -16 9 2 42 5 73 6 59 3 78 9 78 27 0 7 -22 9 -69 4 -38 -3 -80
-2 -93 3 -18 7 -118 95 -118 104 0 1 33 2 74 2 59 0 78 4 95 19 26 23 29 76 5
76 -12 0 -15 -7 -11 -26z"/>
<path d="M1155 1550 c-6 -10 51 -40 75 -40 21 0 9 31 -16 40 -33 13 -51 13
-59 0z"/>
<path d="M296 1541 c-7 -11 3 -41 14 -41 11 0 18 22 12 38 -5 14 -18 16 -26 3z"/>
<path d="M3412 1533 c2 -12 12 -18 28 -18 36 0 33 29 -3 33 -23 3 -28 0 -25
-15z"/>
<path d="M113 1533 c-18 -7 -16 -33 1 -33 8 0 22 -3 31 -6 13 -5 16 -2 13 17
-3 24 -21 32 -45 22z"/>
<path d="M902 1500 c-15 -20 -18 -30 -10 -30 21 0 58 29 58 46 0 24 -25 16
-48 -16z"/>
<path d="M3102 1509 c-10 -16 -11 -24 -1 -35 11 -13 14 -13 27 -1 9 9 11 23 7
36 -8 26 -17 27 -33 0z"/>
<path d="M2425 1511 c-3 -5 5 -13 17 -17 13 -4 26 -11 29 -17 13 -19 30 3 19
24 -11 20 -54 26 -65 10z"/>
<path d="M2538 1498 c8 -8 6 -17 -8 -36 -25 -32 -25 -42 1 -42 12 0 17 4 14
11 -4 5 1 19 10 29 20 22 14 50 -12 50 -13 0 -14 -3 -5 -12z"/>
<path d="M746 1472 c-8 -13 7 -27 42 -41 44 -18 54 -5 19 25 -28 24 -52 31
-61 16z"/>
<path d="M680 1455 c0 -17 43 -38 48 -23 5 12 -18 38 -34 38 -8 0 -14 -7 -14
-15z"/>
<path d="M1030 1447 c0 -12 -7 -33 -16 -45 -18 -26 -55 -22 -91 11 -20 17 -26
18 -53 7 -16 -7 -30 -18 -30 -25 0 -8 -13 -16 -30 -20 -35 -8 -39 -21 -10 -30
21 -7 47 7 63 33 5 7 14 9 20 5 7 -4 24 -6 39 -4 16 1 28 -2 28 -7 0 -5 12
-13 27 -17 37 -9 65 21 68 74 1 23 -2 41 -6 41 -5 0 -9 -10 -9 -23z"/>
<path d="M2625 1430 c3 -5 10 -10 16 -10 5 0 9 5 9 10 0 6 -7 10 -16 10 -8 0
-12 -4 -9 -10z"/>
<path d="M96 1406 c-9 -14 -16 -28 -16 -31 0 -9 38 -6 44 4 3 4 20 11 37 15
41 8 33 30 -13 34 -28 2 -38 -2 -52 -22z"/>
<path d="M2222 1413 c4 -21 33 -25 33 -3 0 8 -8 16 -18 18 -14 3 -18 -1 -15
-15z"/>
<path d="M3432 1414 c-18 -8 -37 -12 -42 -9 -5 3 -11 1 -14 -4 -12 -19 17 -23
80 -11 42 8 64 17 64 26 0 18 -44 17 -88 -2z"/>
<path d="M1259 1394 c-20 -25 -77 -44 -111 -37 -40 8 -34 -14 11 -41 31 -18
34 -18 43 -3 5 10 17 17 27 17 19 0 61 39 61 58 0 19 -17 23 -31 6z"/>
<path d="M3202 1398 c5 -13 90 -22 118 -12 28 10 -12 24 -68 24 -39 0 -52 -4
-50 -12z"/>
<path d="M3833 1305 c0 -22 2 -30 4 -17 2 12 2 30 0 40 -3 9 -5 -1 -4 -23z"/>
<path d="M1227 1271 c-14 -14 -16 -27 -11 -60 9 -55 30 -48 26 8 l-4 42 41 -7
c33 -5 41 -4 41 9 0 31 -65 36 -93 8z"/>
<path d="M3200 1267 c0 -7 9 -17 19 -22 70 -35 131 -77 131 -90 0 -8 -4 -16
-10 -16 -5 -1 -13 -3 -17 -4 -5 -2 -18 -6 -30 -10 -23 -7 -32 -35 -12 -35 6 0
24 11 41 25 39 33 52 32 94 -10 37 -37 54 -44 54 -21 0 15 -55 66 -70 66 -5 0
-11 8 -15 18 -7 21 -80 73 -105 75 -10 0 -16 6 -13 13 2 6 -6 14 -19 18 -35 9
-48 7 -48 -7z"/>
<path d="M259 1239 c-8 -50 -5 -69 12 -69 11 0 19 5 19 10 0 6 9 10 20 10 36
0 19 35 -23 45 -15 4 -27 6 -28 4z"/>
<path d="M2990 1136 c0 -7 5 -27 11 -43 9 -27 7 -34 -16 -59 -37 -40 -47 -61
-34 -69 12 -8 46 20 54 46 8 24 25 25 25 1 0 -19 -51 -72 -87 -91 -13 -7 -23
-18 -23 -26 0 -47 93 17 144 98 22 36 14 77 -15 77 -16 0 -20 5 -16 19 5 21
-17 61 -34 61 -5 0 -9 -6 -9 -14z"/>
<path d="M1974 1126 c-3 -9 -12 -16 -19 -16 -7 0 -15 -7 -19 -15 -3 -8 -1 -15
3 -15 5 0 18 -16 30 -35 l20 -35 -24 0 c-29 0 -35 -28 -7 -36 9 -3 25 -10 34
-15 28 -15 36 -11 52 24 16 36 29 147 17 147 -18 0 -43 -40 -38 -60 3 -11 1
-20 -4 -20 -13 0 -31 50 -25 66 3 8 1 16 -5 19 -5 4 -12 -1 -15 -9z"/>
<path d="M1825 1120 c3 -5 8 -10 11 -10 2 0 4 5 4 10 0 6 -5 10 -11 10 -5 0
-7 -4 -4 -10z"/>
<path d="M3334 1085 c-8 -20 -4 -24 27 -27 18 -2 24 2 24 17 0 25 -42 34 -51
10z"/>
<path d="M3216 1035 c-10 -8 -23 -16 -29 -18 -6 -2 -7 -8 -4 -15 9 -14 72 11
72 29 0 18 -17 20 -39 4z"/>
<path d="M3093 1013 c-12 -4 -20 -93 -8 -93 2 0 23 9 45 21 51 27 54 53 5 47
-26 -3 -32 -1 -24 8 11 14 0 24 -18 17z"/>
<path d="M2857 1003 c-12 -11 -8 -23 8 -23 8 0 15 7 15 15 0 16 -12 20 -23 8z"/>
<path d="M2814 959 c-11 -19 13 -34 31 -19 13 11 13 15 3 21 -18 12 -26 11
-34 -2z"/>
<path d="M3192 943 c-4 -10 -6 -48 -6 -84 2 -61 5 -71 49 -137 27 -40 52 -72
56 -72 5 0 9 -7 9 -16 0 -8 5 -12 10 -9 6 3 10 26 10 50 0 36 -5 48 -31 69
-17 14 -34 26 -39 26 -18 0 -30 59 -26 123 5 55 3 67 -10 67 -8 0 -18 -8 -22
-17z"/>
<path d="M1950 929 c-7 -11 -9 -26 -7 -34 3 -7 -10 -36 -29 -65 -32 -49 -37
-76 -11 -67 7 2 27 -2 46 -9 18 -8 41 -14 50 -14 9 0 29 -14 45 -30 53 -54
116 -31 116 42 0 26 -6 40 -22 51 l-23 16 23 16 c14 10 22 27 22 46 0 25 -6
33 -35 45 -48 20 -57 18 -100 -16 -41 -32 -68 -39 -59 -15 4 8 12 15 20 15 8
0 14 9 14 20 0 27 -36 26 -50 -1z m177 -53 c-6 -17 -65 -25 -77 -11 -18 22 26
46 56 33 14 -7 23 -16 21 -22z m-93 -42 c8 -21 8 -24 -3 -24 -5 0 -11 9 -14
20 -6 24 8 27 17 4z m-39 -31 c9 4 15 1 15 -8 0 -8 -5 -15 -11 -15 -21 0 -49
21 -49 38 1 15 2 15 15 -2 8 -11 21 -16 30 -13z"/>
<path d="M2455 881 c-23 -5 -31 -12 -33 -34 -4 -33 23 -48 41 -23 7 9 23 22
37 29 49 24 20 43 -45 28z"/>
<path d="M2187 874 c-9 -10 4 -34 19 -34 8 0 14 9 14 20 0 19 -19 27 -33 14z"/>
<path d="M3680 867 c0 -7 5 -18 11 -24 6 -6 14 -26 18 -44 4 -18 12 -34 19
-37 19 -6 14 49 -8 86 -20 33 -40 42 -40 19z"/>
<path d="M2526 853 c-13 -14 -4 -25 32 -39 20 -9 61 -27 90 -41 30 -13 60 -22
68 -19 24 9 15 31 -18 42 -18 6 -63 22 -100 37 -36 14 -69 23 -72 20z"/>
<path d="M2380 775 c0 -21 45 -48 70 -40 11 3 20 10 20 15 0 16 -21 22 -34 11
-10 -9 -15 -7 -19 9 -6 23 -37 28 -37 5z"/>
<path d="M3825 761 c-3 -5 -1 -12 5 -16 5 -3 10 1 10 9 0 18 -6 21 -15 7z"/>
<path d="M158 730 c-27 -17 -56 -30 -66 -30 -18 0 -48 -38 -38 -48 3 -3 18 1
33 8 16 8 30 14 33 15 3 1 12 4 20 7 8 4 23 9 33 12 9 3 17 15 17 26 0 11 7
20 15 20 8 0 15 5 15 10 0 16 -11 12 -62 -20z"/>
<path d="M3768 742 c-27 -17 -45 -52 -26 -52 22 0 68 35 68 52 0 21 -6 21 -42
0z"/>
<path d="M1456 736 c6 -17 62 -39 75 -30 17 10 9 20 -24 32 -44 16 -58 15 -51
-2z"/>
<path d="M2364 699 c3 -17 6 -35 6 -40 0 -14 34 -11 68 7 35 17 42 34 15 34
-10 0 -31 7 -47 15 -42 22 -49 19 -42 -16z"/>
<path d="M2997 703 c-14 -24 -16 -62 -4 -72 11 -8 19 -5 37 14 13 14 22 26 19
28 -2 1 -14 10 -26 20 -11 10 -23 15 -26 10z"/>
<path d="M3190 670 c0 -5 5 -10 10 -10 6 0 10 5 10 10 0 6 -4 10 -10 10 -5 0
-10 -4 -10 -10z"/>
<path d="M187 662 c-22 -4 -77 -63 -71 -74 7 -10 44 -10 44 0 0 4 12 20 26 35
28 31 29 45 1 39z"/>
<path d="M3292 598 c-16 -16 -15 -28 3 -28 8 0 15 9 15 20 0 23 -2 24 -18 8z"/>
<path d="M45 558 c-31 -18 -45 -35 -45 -54 0 -15 2 -15 22 0 23 16 33 21 64
31 13 4 14 8 4 20 -15 18 -19 18 -45 3z"/>
<path d="M3368 513 c-45 -37 -85 -89 -75 -100 7 -6 47 16 47 26 0 5 20 30 45
55 25 26 45 49 45 51 0 12 -19 2 -62 -32z"/>
<path d="M1360 515 c0 -8 17 -19 43 -25 65 -17 206 -57 438 -124 70 -20 136
-36 148 -36 57 0 -10 42 -94 59 -47 10 -221 59 -250 71 -11 4 -45 13 -75 20
-30 7 -82 21 -114 31 -71 23 -96 24 -96 4z"/>
<path d="M192 478 c-7 -7 -12 -18 -12 -25 0 -7 -4 -13 -10 -13 -5 0 -10 -7
-10 -15 0 -26 28 -16 44 17 24 46 17 65 -12 36z"/>
<path d="M0 375 c0 -43 37 -74 94 -79 26 -2 53 -9 59 -15 17 -17 37 -13 37 8
0 22 -79 56 -109 46 -14 -4 -27 4 -50 32 l-31 38 0 -30z"/>
<path d="M3541 300 c-31 -90 -38 -130 -22 -130 9 0 71 176 71 203 0 40 -20 11
-49 -73z"/>
<path d="M1865 30 c-8 -13 4 -32 16 -25 12 8 12 35 0 35 -6 0 -13 -4 -16 -10z"/>
<path d="M1328 8 c-8 -4 4 -8 30 -8 23 0 42 2 42 4 0 8 -60 12 -72 4z"/>
<path d="M2723 3 c9 -2 25 -2 35 0 9 3 1 5 -18 5 -19 0 -27 -2 -17 -5z"/>
</g>
</svg>
