<?xml version="1.0" standalone="no"?>
<!DOCTYPE svg PUBLIC "-//W3C//DTD SVG 20010904//EN"
 "http://www.w3.org/TR/2001/REC-SVG-20010904/DTD/svg10.dtd">
<svg version="1.0" xmlns="http://www.w3.org/2000/svg"
 width="384.000000pt" height="256.000000pt" viewBox="0 0 384.000000 256.000000"
 preserveAspectRatio="xMidYMid meet">
<metadata>
Created by potrace 1.16, written by Peter Selinger 2001-2019
</metadata>
<g transform="translate(0.000000,256.000000) scale(0.100000,-0.100000)"
fill="#000000" stroke="none">
<path d="M1630 2113 c0 -24 155 -93 210 -93 19 0 57 -8 85 -18 43 -16 51 -23
60 -55 7 -24 20 -43 35 -50 17 -9 25 -21 25 -39 1 -31 9 -43 24 -34 14 9 2 74
-23 120 -12 21 -25 47 -31 57 -5 10 -16 21 -25 25 -35 14 -123 34 -149 34 -16
0 -54 12 -84 26 -62 28 -127 42 -127 27z"/>
<path d="M1700 1943 c0 -4 7 -21 16 -38 12 -24 13 -31 2 -40 -7 -5 -19 -22
-25 -37 -11 -25 -18 -28 -58 -28 -51 0 -85 -14 -85 -34 0 -10 14 -12 53 -9 82
6 94 11 106 42 7 15 23 33 37 39 26 13 33 47 10 55 -8 3 -16 16 -18 29 -3 21
-38 41 -38 21z"/>
<path d="M1986 1825 c-19 -29 -16 -41 9 -31 20 7 30 35 18 47 -7 7 -16 1 -27
-16z"/>
<path d="M1262 1763 c3 -12 12 -17 26 -16 27 3 27 -1 1 -44 -17 -27 -19 -36
-9 -48 15 -18 32 -10 29 13 -3 30 1 31 25 9 51 -47 56 -49 62 -33 9 24 -3 45
-29 55 -13 5 -34 26 -45 45 -23 39 -67 52 -60 19z"/>
<path d="M1479 1747 c-36 -30 -59 -78 -59 -122 0 -32 -3 -36 -20 -30 -24 8
-26 -8 -5 -49 18 -33 45 -134 45 -165 0 -12 -4 -21 -10 -21 -5 0 -10 18 -10
40 0 22 -7 57 -15 76 -18 44 -37 37 -24 -9 5 -17 9 -46 9 -64 0 -29 -2 -32
-22 -24 -17 6 -27 23 -38 67 -9 33 -21 69 -28 81 -12 22 -7 53 9 53 4 0 13 9
19 20 9 17 8 20 -13 20 -43 0 -51 -35 -28 -129 11 -45 25 -89 32 -97 6 -8 13
-28 14 -43 3 -39 -45 -77 -75 -61 -11 6 -20 15 -20 20 0 6 -9 10 -20 10 -11 0
-28 4 -38 9 -76 38 -68 40 -165 -25 -46 -31 -50 -32 -130 -27 -73 4 -83 3 -93
-14 -11 -18 -8 -19 58 -19 68 1 71 0 102 -35 17 -20 40 -39 51 -43 19 -7 19
-8 3 -17 -10 -6 -18 -21 -18 -34 0 -27 -64 -99 -98 -109 -31 -10 -27 -25 8
-32 27 -6 30 -10 30 -45 0 -22 -3 -39 -7 -39 -5 -1 -27 -5 -51 -9 -51 -10 -55
-5 -56 63 l-2 51 -34 -1 c-35 -1 -35 0 -32 37 l4 38 -39 -3 c-43 -4 -83 -24
-83 -43 0 -7 -5 -13 -10 -13 -6 0 -15 -11 -20 -25 -5 -14 -14 -25 -20 -25 -5
0 -10 -7 -10 -15 0 -8 -9 -15 -20 -15 -10 0 -24 -8 -29 -17 -10 -17 -12 -17
-26 2 -10 12 -13 28 -9 40 7 22 5 197 -3 205 -2 3 -16 -8 -30 -24 -18 -21 -27
-26 -36 -17 -20 20 -47 13 -47 -12 0 -19 -45 -94 -70 -117 -3 -3 -16 -22 -30
-42 -14 -21 -34 -39 -45 -40 -12 -2 -21 -12 -23 -27 -3 -17 0 -22 10 -19 8 3
22 0 31 -7 16 -12 17 -16 1 -61 -9 -27 -25 -56 -36 -65 -13 -10 -19 -23 -15
-32 3 -9 -3 -27 -13 -40 -11 -14 -24 -36 -30 -51 -5 -15 -17 -26 -28 -26 -10
0 -23 -5 -30 -12 -7 -7 -30 -11 -52 -9 -38 2 -40 1 -40 -28 0 -29 0 -30 28
-15 38 20 45 18 40 -11 -8 -37 19 -32 36 8 14 31 14 31 16 7 1 -14 1 -36 0
-49 -2 -21 1 -23 27 -17 15 4 32 11 37 16 14 14 -5 32 -27 26 -17 -4 -18 -3
-6 9 15 14 180 28 218 18 20 -5 20 -5 -2 -49 -11 -24 -27 -44 -34 -44 -8 0
-16 -7 -19 -15 -8 -21 -54 -20 -54 1 0 14 -10 15 -75 9 -70 -6 -75 -6 -75 13
0 11 -6 22 -14 25 -20 8 -56 -21 -56 -44 0 -22 -11 -24 -28 -7 -9 9 -12 5 -12
-19 0 -30 1 -31 57 -37 106 -13 122 -9 136 29 3 6 8 6 13 1 5 -5 4 -11 -3 -13
-8 -3 -13 -23 -13 -50 0 -39 -2 -44 -17 -38 -62 27 -100 9 -43 -20 63 -33 89
-16 90 58 0 18 5 27 15 27 12 0 15 -9 13 -37 l-3 -38 45 3 c59 5 67 13 53 62
-9 36 -8 40 9 46 11 3 25 1 31 -5 8 -8 6 -11 -7 -11 -16 0 -17 -5 -11 -37 4
-21 11 -40 16 -41 5 -2 9 -10 9 -17 0 -15 38 -40 47 -31 3 3 7 22 9 41 3 32 1
36 -18 33 -12 -2 -23 3 -26 11 -2 8 0 11 5 8 10 -6 56 6 101 27 20 9 27 7 43
-14 23 -31 24 -40 3 -40 -23 0 -13 -34 11 -38 11 -3 24 -10 28 -18 9 -17 63
-19 73 -3 3 6 20 9 36 7 35 -6 43 8 29 46 -9 23 -15 26 -38 20 -16 -4 -32 -13
-36 -21 -7 -11 -14 -9 -34 12 -14 14 -24 27 -22 29 2 2 47 5 99 7 94 2 130 10
130 29 0 6 -9 10 -20 10 -40 0 -19 16 36 28 68 14 88 5 90 -37 1 -26 -2 -31
-21 -31 -23 0 -50 -22 -39 -33 3 -3 13 -3 21 0 8 3 25 0 37 -7 26 -13 71 -10
71 5 0 6 -10 11 -22 13 -22 3 -33 22 -14 22 13 0 53 79 46 91 -4 5 1 16 9 25
10 9 16 34 16 62 1 59 23 157 36 157 5 0 22 -10 38 -22 31 -25 31 -43 -4 -139
-10 -28 -24 -87 -30 -132 -7 -45 -15 -82 -19 -82 -4 0 -8 -15 -9 -33 -1 -17
-5 -39 -8 -48 -2 -9 3 -25 13 -35 10 -10 17 -19 16 -21 -8 -9 -1 -23 11 -23
15 0 26 29 26 70 0 14 7 43 14 65 l14 40 7 -30 c4 -16 8 -36 11 -42 2 -7 -3
-13 -11 -13 -19 0 -19 -24 0 -40 15 -13 55 -5 55 12 0 6 10 8 24 4 21 -5 25
-2 28 20 3 24 8 26 53 29 27 2 58 -1 69 -7 41 -22 83 79 51 124 -10 15 -12 35
-8 67 6 46 23 81 23 47 0 -10 14 -40 32 -67 35 -54 42 -53 72 8 10 21 24 50
32 64 23 45 37 112 39 189 1 43 9 90 18 110 20 46 80 110 102 110 9 0 31 12
48 26 26 22 38 25 74 21 33 -3 43 -1 46 12 3 11 5 9 6 -6 0 -12 5 -24 10 -28
14 -8 31 -101 32 -180 2 -57 -2 -77 -21 -108 -21 -35 -22 -46 -16 -122 6 -76
5 -87 -13 -106 l-19 -21 -12 22 c-10 18 -14 20 -21 9 -5 -8 -9 -25 -9 -39 0
-14 -7 -34 -15 -44 -8 -11 -15 -28 -15 -38 0 -10 -5 -18 -10 -18 -10 0 -7 29
11 84 5 16 9 50 9 76 0 30 6 52 15 60 23 19 18 49 -9 56 -18 4 -25 14 -30 45
-7 41 -20 51 -28 21 -4 -15 -14 -18 -57 -16 -38 1 -54 -3 -58 -13 -3 -8 0 -19
7 -23 11 -7 10 -16 -4 -49 -10 -22 -28 -50 -40 -62 -60 -64 -139 -201 -129
-225 3 -8 19 -18 35 -21 44 -9 13 -21 -39 -15 -28 2 -43 9 -43 18 0 10 -13 13
-52 10 -29 -2 -65 -5 -80 -5 -17 -1 -28 -7 -28 -16 0 -7 -6 -18 -14 -22 -8 -4
-19 -26 -25 -47 -11 -43 -1 -76 25 -76 8 0 27 -13 42 -28 15 -16 32 -27 37
-26 6 1 22 5 38 8 30 7 37 32 10 39 -10 3 4 3 31 0 58 -5 106 -27 106 -49 0
-9 5 -12 11 -8 6 4 43 8 81 10 77 4 86 7 70 26 -7 9 -7 18 2 31 11 14 31 17
134 17 96 0 124 3 136 16 18 18 21 40 6 49 -18 11 -11 45 9 45 11 0 23 9 26
21 8 24 1 34 -23 34 -14 0 -17 12 -17 75 0 41 -7 114 -14 163 -20 125 5 166
74 121 13 -9 29 -13 35 -9 18 11 11 -15 -10 -37 -24 -26 -26 -40 -5 -32 9 4
15 0 15 -10 0 -9 -4 -16 -9 -16 -5 0 -14 -15 -21 -33 -6 -17 -18 -44 -26 -59
-8 -14 -14 -40 -14 -56 0 -17 -5 -32 -12 -34 -24 -8 0 -37 29 -35 26 2 28 5
29 50 0 26 4 50 7 54 4 3 7 1 7 -5 0 -7 9 -12 20 -12 26 0 26 -35 0 -75 -24
-36 -26 -61 -5 -69 8 -3 15 -10 15 -16 0 -5 -7 -10 -15 -10 -8 0 -15 -4 -15
-9 0 -6 -15 -11 -32 -13 -25 -2 -33 -8 -33 -23 0 -17 8 -20 51 -23 47 -3 51
-5 47 -26 -4 -20 0 -24 29 -29 48 -7 102 5 106 25 2 12 -6 18 -30 21 -26 3
-23 4 14 5 44 2 48 0 45 -20 -1 -16 3 -22 13 -19 8 2 31 7 50 10 22 4 36 13
38 24 3 14 -4 17 -42 17 -50 0 -52 1 -35 28 14 22 0 103 -19 110 -6 2 -12 -4
-12 -14 0 -14 -3 -15 -12 -6 -10 10 -10 15 1 21 17 11 8 68 -20 123 -10 20
-19 42 -19 49 0 6 -6 25 -14 42 -8 18 -17 50 -19 72 -3 22 -11 64 -17 94 -16
75 -7 110 40 159 44 45 65 54 55 22 -3 -11 4 -41 18 -72 36 -79 39 -94 23
-107 -10 -8 -16 -9 -21 -1 -3 5 -11 10 -16 10 -14 0 0 -224 17 -273 8 -22 21
-82 29 -134 17 -108 23 -123 39 -101 6 8 19 17 29 21 10 4 24 21 32 39 14 32
14 32 15 7 0 -19 7 -28 23 -33 34 -9 37 -8 37 14 0 23 15 27 23 6 3 -8 25 -16
49 -19 24 -2 53 -8 64 -12 27 -9 35 17 23 77 -31 156 -40 223 -38 298 3 78 0
90 -28 145 -31 58 -87 105 -126 105 -32 0 -36 60 -6 78 11 7 18 19 15 27 -3 8
10 29 30 49 29 29 34 41 34 80 0 34 -4 46 -15 46 -11 0 -15 -12 -15 -45 0 -39
-4 -47 -24 -55 -13 -5 -28 -22 -34 -39 -6 -17 -16 -31 -21 -31 -14 0 -14 87
-1 95 6 3 10 38 10 77 0 40 4 85 10 102 5 17 15 52 21 77 8 28 17 45 25 42 7
-2 13 13 17 44 3 33 11 52 26 62 21 14 28 45 12 55 -5 3 -14 -1 -21 -9 -14
-17 -40 -20 -40 -5 0 24 42 32 108 20 82 -14 98 -22 118 -63 9 -18 25 -41 35
-53 17 -19 18 -24 6 -48 -8 -14 -35 -43 -61 -63 -25 -20 -46 -44 -46 -54 0
-30 -20 -22 -26 11 -4 17 -8 30 -10 30 -17 0 -77 -48 -89 -73 -20 -40 -7 -54
34 -37 17 7 44 10 60 8 21 -3 32 0 36 11 5 12 11 10 31 -12 14 -15 33 -27 42
-27 9 0 30 -7 47 -16 39 -20 108 -29 132 -16 11 6 25 7 33 2 13 -8 12 -12 -5
-24 -11 -9 -23 -16 -27 -16 -5 0 -8 -6 -8 -14 0 -8 -4 -16 -8 -18 -5 -2 -29
-40 -54 -84 -33 -60 -43 -86 -36 -98 7 -12 6 -16 -4 -14 -7 2 -15 -10 -18 -27
-6 -35 -50 -105 -66 -105 -6 0 -19 9 -29 20 -22 24 -55 26 -55 4 0 -19 22 -39
67 -58 l31 -14 -5 -64 c-3 -34 -6 -153 -7 -263 l-1 -200 23 -3 c13 -2 31 0 40
3 9 4 31 8 47 9 27 1 30 4 33 39 2 28 7 36 15 29 7 -5 24 -12 38 -16 21 -4 29
-14 36 -43 8 -35 12 -39 56 -47 56 -10 77 -4 77 23 0 10 7 22 16 25 10 4 14
14 11 26 -3 10 1 24 8 30 18 15 8 40 -16 40 -17 0 -19 9 -19 100 0 99 -1 102
-45 190 -25 49 -45 96 -45 104 0 24 -22 64 -38 71 -11 4 -13 0 -8 -22 18 -71
23 -119 16 -127 -5 -5 -11 9 -15 30 -3 22 -9 50 -12 64 -3 14 -5 47 -4 74 0
27 -4 55 -10 62 -7 9 -7 19 -1 31 12 21 -11 73 -32 73 -22 0 -27 -28 -7 -42
23 -17 40 -45 20 -33 -61 36 -69 45 -57 73 16 37 80 136 92 141 4 2 17 12 27
22 18 18 22 18 48 5 16 -9 31 -12 35 -9 9 9 7 -7 -5 -50 -6 -25 -7 -48 -1 -65
5 -15 6 -72 2 -127 -8 -111 -5 -125 40 -175 17 -19 33 -46 36 -60 2 -14 14
-63 26 -110 11 -47 24 -110 28 -140 5 -30 13 -75 19 -100 14 -59 14 -60 -4
-60 -8 0 -15 5 -15 12 0 8 -3 9 -10 2 -13 -13 -2 -51 17 -58 9 -4 17 1 20 14
3 13 14 20 29 20 27 0 31 15 10 39 -16 19 -36 97 -36 143 0 18 -9 62 -20 98
-27 89 -43 178 -33 193 4 6 6 21 5 33 -2 11 8 51 22 89 19 50 26 86 26 142 0
87 -25 145 -98 230 -40 46 -50 53 -73 48 -15 -4 -30 -1 -34 4 -3 6 -17 11 -31
11 -31 0 -31 13 2 39 36 28 64 26 90 -6 19 -25 28 -28 73 -26 43 2 52 -1 62
-20 7 -12 12 -36 11 -54 -1 -19 8 -51 18 -72 18 -33 20 -52 16 -157 -2 -65 -9
-155 -15 -199 -6 -44 -12 -127 -14 -184 l-4 -103 34 -14 c19 -8 36 -21 40 -29
8 -22 33 -18 33 4 0 21 -44 61 -66 61 -8 0 -14 4 -14 9 0 4 29 11 65 14 36 4
70 9 76 12 22 14 -6 25 -66 25 -48 0 -64 4 -69 16 -8 22 -8 24 8 24 8 0 16 7
20 15 8 23 46 19 46 -5 0 -15 7 -20 29 -20 16 0 34 7 41 15 10 12 8 16 -11 24
-49 20 31 12 104 -10 38 -11 80 -18 93 -15 14 4 24 2 24 -4 0 -17 87 -12 94 6
5 12 15 14 53 8 40 -6 45 -5 40 10 -4 10 -1 16 8 16 8 0 15 -3 15 -7 0 -5 18
-9 41 -10 37 -2 40 -1 37 20 -2 15 -11 23 -28 25 -14 2 -35 8 -47 14 -18 9
-26 8 -41 -5 -14 -13 -39 -17 -108 -17 -49 0 -95 -4 -102 -9 -9 -5 -38 -1 -75
11 -76 24 -210 18 -227 -11 -13 -22 -13 17 0 134 10 91 21 124 51 160 9 11 25
44 35 73 10 29 23 57 29 61 19 15 142 0 164 -20 27 -25 33 -24 59 11 14 18 32
30 46 30 31 0 53 27 59 75 3 22 11 68 18 103 10 55 13 60 25 45 7 -10 14 -27
14 -38 0 -11 9 -47 19 -80 17 -53 17 -62 4 -77 -13 -14 -13 -17 0 -25 8 -4 24
-27 36 -51 19 -38 20 -47 10 -85 -19 -64 -28 -72 -56 -45 -16 15 -20 25 -13
32 8 8 13 7 20 -3 7 -12 11 -12 24 -2 19 16 22 71 4 71 -26 -1 -104 -46 -135
-78 -18 -19 -37 -32 -44 -30 -12 4 48 72 70 79 7 3 14 20 15 39 2 19 6 43 10
52 6 14 3 18 -12 18 -11 0 -22 -8 -25 -20 -3 -11 -13 -23 -24 -26 -61 -20 -69
-26 -81 -64 -6 -22 -12 -47 -12 -55 0 -8 -9 -24 -21 -36 -16 -16 -18 -23 -9
-34 6 -8 18 -11 26 -8 20 7 18 -7 -3 -23 -28 -20 -4 -38 30 -23 22 10 25 17
21 43 l-5 31 20 -25 c12 -14 30 -35 41 -48 11 -13 25 -20 30 -17 6 4 19 0 29
-9 19 -18 51 -12 51 9 0 18 -21 33 -50 37 -42 6 -54 18 -33 32 10 7 28 15 40
18 29 8 63 -39 63 -87 0 -34 1 -35 40 -35 l40 0 0 94 c0 104 -14 183 -42 234
-10 18 -18 43 -18 55 0 34 -44 198 -62 232 -22 40 -74 88 -131 119 -25 14 -48
26 -51 26 -12 0 -5 -38 9 -50 8 -7 15 -24 15 -39 -1 -26 -1 -26 -14 5 -13 29
-18 31 -76 37 -122 13 -134 11 -179 -34 -26 -26 -41 -36 -41 -26 0 9 -15 27
-32 41 -18 14 -27 26 -19 26 13 0 11 22 -5 64 -5 13 2 16 37 16 58 0 89 -9 89
-26 0 -21 14 -17 40 11 15 16 30 23 41 20 23 -8 59 15 59 37 0 13 -9 17 -42
16 -24 0 -45 -4 -48 -9 -7 -11 -47 -11 -170 -3 -185 13 -274 10 -318 -10 -33
-15 -58 -18 -121 -14 -44 3 -86 10 -94 16 -8 7 -36 15 -63 18 -27 4 -54 11
-61 16 -7 6 -26 5 -49 -1 -50 -14 -112 16 -120 59 -4 15 -19 40 -34 55 -23 22
-34 26 -59 20 -17 -4 -37 -15 -45 -26 -11 -17 -14 -18 -19 -4 -9 22 -29 19
-78 -15 -52 -35 -84 -37 -144 -9 -25 12 -48 19 -51 16 -11 -10 19 -43 56 -61
42 -20 110 -15 131 10 15 18 102 44 150 44 39 0 69 -26 69 -61 0 -18 28 -46
62 -63 35 -17 33 -41 -6 -82 -32 -34 -38 -54 -16 -54 5 0 23 12 41 28 27 22
32 24 24 7 -4 -11 -8 -30 -8 -42 1 -13 -5 -23 -13 -23 -7 0 -16 -16 -19 -37
-4 -21 -10 -50 -15 -65 -5 -15 -12 -60 -16 -100 -3 -40 -11 -78 -15 -84 -5 -6
-8 -20 -8 -30 1 -11 1 -34 1 -53 -2 -30 -4 -32 -18 -20 -14 11 -19 10 -34 -9
-16 -19 -19 -20 -30 -7 -14 17 -15 17 23 33 17 7 27 19 27 33 0 16 -4 19 -17
14 -10 -4 -27 -10 -38 -12 -32 -9 -2 18 48 42 l42 20 3 67 c3 59 0 72 -24 110
-16 24 -39 56 -53 72 -18 19 -22 30 -13 33 6 3 12 18 12 35 0 16 9 41 20 55
23 30 25 43 7 43 -26 0 -46 -36 -57 -104 -9 -56 -8 -71 3 -85 17 -19 11 -90
-8 -98 -21 -7 -51 13 -74 51 -17 27 -37 40 -92 61 -62 24 -74 26 -95 15 -15
-9 -24 -23 -25 -39 -2 -43 2 -66 14 -73 8 -4 7 -18 -1 -46 -17 -55 -15 -123 4
-150 15 -22 26 -120 14 -127 -8 -5 -42 69 -60 130 -17 53 -34 87 -85 165 -25
37 -46 83 -50 107 -8 49 -23 63 -40 40 -7 -10 -17 -17 -24 -17 -6 0 -11 -13
-11 -29 0 -21 6 -32 20 -36 18 -6 100 -108 100 -125 0 -12 -87 -32 -108 -26
-14 5 -21 2 -24 -10 -2 -11 -18 9 -41 52 -43 76 -115 144 -153 144 -21 0 -24
4 -24 38 0 21 -4 42 -9 47 -5 6 -14 33 -19 60 -5 28 -13 57 -16 66 -5 12 0 18
19 23 36 9 30 42 -8 39 -20 -1 -27 3 -27 17 0 10 5 22 10 25 6 3 10 18 11 33
0 15 6 43 13 62 l13 35 8 -67 c7 -61 26 -111 38 -98 3 3 1 28 -3 55 -4 28 -7
74 -6 103 0 28 -1 52 -4 52 -3 -1 -17 -11 -31 -23z m1589 -274 c-10 -2 -18 -9
-18 -14 0 -5 -6 -9 -14 -9 -16 0 -46 -26 -46 -41 0 -15 47 -10 60 6 7 9 19 14
26 11 8 -3 18 4 24 14 6 11 15 20 20 20 16 0 11 -27 -5 -34 -16 -6 -21 -36 -6
-36 5 0 27 -16 49 -36 l41 -36 -20 -34 c-25 -45 -25 -64 1 -57 25 7 25 -2 0
-29 l-19 -21 -10 25 c-10 27 -43 42 -59 26 -14 -14 -72 1 -72 18 0 9 7 14 17
12 10 -2 19 4 21 15 2 12 -3 17 -17 17 -12 0 -21 -4 -21 -10 0 -5 -9 -10 -20
-10 -26 0 -26 27 0 58 14 17 28 23 47 20 22 -2 28 1 28 17 0 15 -8 21 -31 23
-25 2 -37 -4 -63 -33 -17 -20 -31 -40 -31 -45 0 -5 -9 -12 -20 -15 -14 -5 -19
-12 -15 -24 9 -28 -33 -74 -61 -67 -14 4 -26 1 -31 -8 -4 -7 -17 -15 -28 -17
-12 -3 -21 -14 -23 -27 -4 -26 -10 -27 -36 -7 -11 8 -27 15 -36 15 -16 0 -67
46 -59 54 2 2 26 15 54 28 42 20 51 29 58 61 11 47 4 77 -29 116 l-26 31 74 1
c40 0 89 7 108 14 20 8 72 13 120 13 47 0 77 -2 68 -5z m93 -60 c13 -16 12
-17 -3 -4 -17 13 -22 21 -14 21 2 0 10 -8 17 -17z m473 -95 c56 -68 53 -64 35
-50 -14 11 -17 9 -23 -10 l-5 -23 -26 26 c-31 31 -45 105 -16 90 9 -5 25 -20
35 -33z m-195 22 c73 0 79 -8 56 -77 -23 -66 -21 -183 3 -191 10 -3 12 12 10
65 -2 65 14 133 32 133 4 0 24 -13 44 -29 21 -16 42 -32 49 -34 9 -3 9 -14 0
-50 -7 -26 -13 -58 -13 -72 0 -18 -5 -25 -20 -25 -11 0 -34 -14 -52 -30 -29
-28 -33 -29 -54 -15 -16 10 -48 15 -99 15 -66 0 -75 2 -75 18 0 10 -16 44 -35
76 -19 32 -35 64 -35 71 0 7 -7 15 -14 18 -22 9 4 56 55 102 34 31 46 36 71
31 17 -3 51 -6 77 -6z m-2289 -102 c0 -4 12 -11 28 -14 15 -4 34 -12 42 -19 8
-7 25 -16 38 -20 38 -11 120 -100 145 -157 44 -98 44 -95 -14 -162 -33 -37
-54 -45 -61 -24 -8 22 -38 -1 -38 -29 0 -21 -3 -24 -12 -15 -9 9 -8 20 5 46
20 43 13 91 -19 131 l-24 30 0 -27 c0 -15 4 -29 9 -33 5 -3 12 -19 16 -36 5
-23 3 -34 -10 -43 -10 -7 -18 -27 -19 -46 -1 -27 -7 -36 -26 -41 -42 -12 -47
-10 -54 21 -3 17 -11 29 -17 28 -7 -2 -16 12 -21 30 -5 17 -15 32 -23 32 -19
0 -19 -12 0 -57 8 -19 15 -50 15 -67 l0 -31 -15 29 c-8 15 -15 35 -15 42 0 8
-4 14 -9 14 -11 0 -23 -59 -15 -72 15 -24 -61 -39 -84 -16 -15 15 -17 238 -2
238 19 0 91 73 105 106 8 19 23 43 34 56 12 12 21 28 21 35 0 22 -25 15 -50
-14 -13 -15 -25 -23 -26 -18 -1 6 -5 23 -8 38 -4 17 -16 31 -31 37 -33 13 -31
26 6 46 23 11 34 13 42 5 17 -17 44 -13 52 7 6 16 7 16 21 -2 8 -11 14 -23 14
-28z m930 22 c58 -21 66 -30 90 -100 14 -41 18 -45 43 -42 16 2 43 -2 59 -9
27 -11 32 -10 44 6 14 18 14 18 14 -2 0 -14 -13 -26 -42 -39 -68 -31 -98 -61
-98 -99 0 -36 -14 -53 -26 -34 -4 7 -7 25 -6 40 0 19 -7 35 -23 47 -25 20 -34
49 -21 70 9 15 -8 39 -34 47 -11 3 -21 20 -25 42 -4 20 -13 46 -21 57 -13 18
-18 36 -11 36 1 0 27 -9 57 -20z m-600 -17 c0 -20 -24 -11 -28 10 -2 12 1 15
12 11 9 -3 16 -13 16 -21z m107 -54 c12 -8 36 -41 53 -73 42 -80 42 -154 1
-230 -43 -79 -62 -152 -55 -207 4 -30 2 -49 -5 -53 -6 -4 -11 -20 -11 -35 0
-16 -14 -56 -32 -90 l-31 -61 -19 27 c-10 16 -18 37 -18 49 0 11 -6 29 -14 39
-13 18 -15 18 -49 1 -34 -16 -40 -16 -87 0 -45 15 -82 42 -116 86 -6 7 -13 31
-17 51 -5 34 -3 39 19 47 14 6 38 10 53 10 16 0 34 7 41 15 7 8 23 15 35 15
16 0 40 19 73 56 53 59 62 88 62 204 0 44 -4 61 -20 75 -11 10 -20 29 -20 42
0 20 5 23 39 23 44 0 63 17 36 32 -13 8 -14 12 -5 18 12 8 36 -4 87 -41z m738
-7 c-8 -8 -35 20 -35 37 1 12 5 11 21 -8 11 -13 17 -26 14 -29z m-961 -18 c4
-10 1 -14 -6 -12 -15 5 -23 28 -10 28 5 0 13 -7 16 -16z m1486 -35 c0 -5 -7
-9 -15 -9 -15 0 -20 12 -9 23 8 8 24 -1 24 -14z m-50 1 c0 -5 -4 -10 -10 -10
-5 0 -10 5 -10 10 0 6 5 10 10 10 6 0 10 -4 10 -10z m-920 -70 c0 -5 -2 -10
-4 -10 -3 0 -8 5 -11 10 -3 6 -1 10 4 10 6 0 11 -4 11 -10z m-1483 -25 c-7
-14 -18 -25 -26 -25 -10 0 -7 8 9 25 29 31 31 31 17 0z m1047 9 c3 -8 2 -12
-4 -9 -6 3 -10 10 -10 16 0 14 7 11 14 -7z m576 -9 c25 -27 12 -35 -14 -9 -14
14 -22 34 -13 34 2 0 14 -11 27 -25z m-292 -7 c2 -9 -4 -31 -12 -49 l-14 -34
-1 53 c-1 39 2 53 12 50 6 -3 13 -12 15 -20z m-1025 -70 c-7 -56 -50 -99 -96
-97 -30 2 -31 2 -4 6 15 2 27 8 27 13 0 10 68 120 74 120 2 0 2 -19 -1 -42z
m-238 3 c-4 -15 -14 -21 -33 -20 -16 0 -21 3 -12 6 8 4 21 15 29 25 16 23 25
17 16 -11z m-67 -46 c29 -18 33 -24 28 -52 -6 -38 -8 -38 44 -17 32 13 44 14
53 5 8 -8 9 -14 1 -19 -13 -9 -44 -76 -44 -95 0 -9 -4 -18 -10 -22 -5 -3 -7
-12 -3 -20 3 -8 1 -15 -5 -15 -5 0 -15 -20 -22 -45 -12 -42 -31 -57 -45 -35
-3 5 -6 48 -7 95 0 67 -4 85 -15 85 -12 0 -14 -19 -11 -108 l3 -109 -97 -2
c-90 -2 -118 5 -89 24 14 8 77 142 92 195 7 25 22 53 33 62 19 16 22 15 51
-20 22 -25 36 -34 49 -29 26 10 11 75 -25 107 -16 14 -29 29 -29 34 0 9 3 8
48 -19z m1720 -27 c2 -12 -5 -19 -25 -24 -15 -4 -38 -18 -50 -32 l-23 -25 0
39 c0 22 6 46 12 52 19 19 82 11 86 -10z m1125 2 c-3 -11 -9 -17 -15 -14 -5 3
-4 12 3 20 16 19 18 18 12 -6z m-2678 -10 c3 -5 2 -10 -4 -10 -5 0 -13 5 -16
10 -3 6 -2 10 4 10 5 0 13 -4 16 -10z m1730 -23 c17 -13 17 -14 -4 -20 -15 -3
-24 1 -31 14 -13 23 6 26 35 6z m1275 -6 c0 -12 -20 -25 -27 -18 -7 7 6 27 18
27 5 0 9 -4 9 -9z m120 -1 c0 -5 -9 -14 -20 -20 -24 -13 -26 -7 -4 14 18 18
24 20 24 6z m-2750 -47 c0 -7 -9 -21 -21 -32 -21 -20 -19 -41 5 -41 17 0 32
-34 45 -104 14 -75 14 -143 1 -151 -6 -4 -8 -16 -4 -27 l6 -21 -29 21 c-27 19
-37 20 -87 12 -31 -5 -61 -12 -68 -16 -6 -4 -8 -3 -4 4 3 6 8 23 10 39 2 15
18 70 35 121 26 73 31 101 26 136 -7 43 -6 45 31 69 38 24 53 21 54 -10z
m2860 -13 c4 -46 0 -80 -9 -80 -11 0 -19 51 -13 91 5 34 19 27 22 -11z m-1720
16 c0 -3 -4 -8 -10 -11 -5 -3 -10 -1 -10 4 0 6 5 11 10 11 6 0 10 -2 10 -4z
m766 -75 c0 -23 -3 -41 -7 -41 -4 0 -21 12 -38 26 -23 19 -31 34 -31 59 l0 33
38 -18 c34 -17 37 -22 38 -59z m-2146 65 c0 -2 -8 -10 -17 -17 -16 -13 -17
-12 -4 4 13 16 21 21 21 13z m70 -16 c0 -5 -5 -10 -10 -10 -6 0 -23 -15 -39
-32 -16 -18 -33 -30 -37 -26 -4 4 8 23 27 42 34 34 59 45 59 26z m2267 -22
c-3 -7 -5 -2 -5 12 0 14 2 19 5 13 2 -7 2 -19 0 -25z m-558 -8 c57 -46 75 -97
76 -215 0 -55 4 -121 9 -146 8 -43 7 -46 -13 -44 -29 2 -104 74 -97 92 4 8 6
19 6 24 0 5 9 9 20 9 13 0 21 9 26 28 3 15 10 37 15 50 12 31 11 79 -2 88 -6
3 -8 17 -5 29 6 25 -4 37 -39 43 -44 7 -70 3 -82 -14 -7 -10 -13 -13 -13 -7 0
7 4 14 8 17 5 3 7 19 4 37 -3 21 -1 30 6 25 6 -3 13 -2 17 4 10 16 24 12 64
-20z m-1945 -57 c-9 -21 -18 -33 -21 -26 -2 6 3 28 13 50 9 21 18 33 21 26 2
-6 -3 -28 -13 -50z m284 34 c23 1 30 -11 12 -22 -5 -3 -10 -15 -10 -25 0 -35
-42 -129 -61 -135 -10 -3 -26 -24 -36 -45 -11 -23 -28 -43 -43 -48 -14 -5 -42
-25 -62 -45 -27 -26 -38 -32 -42 -21 -3 8 -17 19 -31 24 -33 13 -33 40 0 40
14 0 25 5 25 11 0 5 5 7 10 4 6 -3 10 -15 10 -26 0 -11 7 -19 16 -19 13 0 15
6 9 33 -20 89 -21 162 -1 210 10 26 22 47 27 47 13 0 21 -58 19 -138 -2 -43
-2 -83 -1 -89 1 -16 21 -17 21 -2 0 5 9 30 20 55 12 25 25 70 31 102 14 82 26
106 47 96 9 -4 27 -7 40 -7z m1942 -7 c0 -5 -5 -10 -11 -10 -5 0 -7 5 -4 10 3
6 8 10 11 10 2 0 4 -4 4 -10z m-2174 -46 c-4 -14 -9 -24 -12 -21 -3 2 -2 17 2
31 3 15 9 25 11 22 3 -3 2 -17 -1 -32z m2284 -73 c0 -14 6 -43 13 -64 11 -31
11 -48 0 -100 -7 -34 -13 -77 -13 -94 0 -38 -9 -41 -36 -12 -15 17 -20 40 -22
114 -4 92 -3 94 23 111 27 18 29 32 9 79 -7 18 -6 18 9 6 9 -7 17 -25 17 -40z
m-77 22 c2 -5 7 -21 10 -38 l6 -30 -13 28 c-7 16 -19 33 -27 38 -11 7 -11 9 3
9 9 0 19 -3 21 -7z m-329 -41 c-6 -4 -13 -29 -16 -55 -4 -30 -14 -57 -27 -71
-11 -12 -21 -32 -21 -44 0 -44 -36 -172 -49 -172 -3 0 -5 20 -3 44 2 24 -1 83
-7 131 -8 70 -8 92 3 113 21 41 47 60 86 64 39 4 50 0 34 -10z m-758 -55 c-3
-14 -13 -28 -23 -31 -16 -6 -16 -6 0 12 9 10 17 27 17 37 0 10 3 16 6 12 4 -3
4 -17 0 -30z m604 -103 c14 -126 12 -177 -5 -88 -7 39 -18 80 -24 92 -6 11
-11 44 -11 74 0 49 1 51 15 31 8 -11 19 -61 25 -109z m-1766 100 c10 -25 7
-34 -9 -34 -9 0 -25 -9 -37 -20 -29 -27 -35 -25 -43 10 -8 34 1 54 21 46 7 -3
16 -1 19 4 10 16 42 12 49 -6z m2464 -182 c0 -45 -5 -85 -10 -88 -6 -4 -8 28
-7 78 3 75 0 91 -24 140 -38 77 -33 85 8 13 32 -56 34 -66 33 -143z m-1758
115 c0 -16 -9 -44 -20 -61 -20 -34 -30 -132 -15 -156 5 -8 3 -11 -6 -8 -16 5
-48 99 -48 144 -1 18 6 45 14 60 8 16 15 36 15 45 0 8 5 20 12 27 18 18 48
-14 48 -51z m-94 5 c-12 -11 -18 7 -10 30 l8 23 4 -23 c2 -13 1 -26 -2 -30z
m-396 18 c0 -5 -5 -10 -11 -10 -5 0 -7 5 -4 10 3 6 8 10 11 10 2 0 4 -4 4 -10z
m1398 -25 c-3 -3 -9 2 -12 12 -6 14 -5 15 5 6 7 -7 10 -15 7 -18z m572 15 c0
-5 -2 -10 -4 -10 -3 0 -8 5 -11 10 -3 6 -1 10 4 10 6 0 11 -4 11 -10z m-1353
-22 c-3 -8 -6 -5 -6 6 -1 11 2 17 5 13 3 -3 4 -12 1 -19z m-937 -8 c0 -5 -4
-10 -10 -10 -5 0 -10 5 -10 10 0 6 5 10 10 10 6 0 10 -4 10 -10z m310 -35 c0
-30 -24 -43 -45 -25 -8 7 -22 9 -31 6 -10 -4 -14 -2 -11 6 2 7 14 12 26 11 12
-2 24 4 27 12 10 25 34 17 34 -10z m550 -11 c0 -13 -4 -24 -10 -24 -5 0 -10
14 -10 31 0 17 4 28 10 24 6 -3 10 -17 10 -31z m87 4 c-3 -7 -5 -2 -5 12 0 14
2 19 5 13 2 -7 2 -19 0 -25z m786 12 c3 -11 1 -18 -4 -14 -5 3 -9 12 -9 20 0
20 7 17 13 -6z m-2088 0 c-3 -5 -11 -10 -16 -10 -6 0 -7 5 -4 10 3 6 11 10 16
10 6 0 7 -4 4 -10z m375 -20 c0 -5 -5 -10 -11 -10 -5 0 -7 5 -4 10 3 6 8 10
11 10 2 0 4 -4 4 -10z m1168 -23 c16 -45 16 -117 -1 -117 -7 0 -18 9 -25 21
-13 21 -48 19 -65 -5 -5 -6 -6 1 -3 16 4 15 17 39 31 54 13 14 27 35 30 45 9
28 19 23 33 -14z m117 -23 c-5 -27 -9 -34 -15 -24 -11 21 0 84 12 72 6 -6 8
-26 3 -48z m1204 9 c21 -74 7 -162 -18 -115 -13 25 -15 152 -1 152 5 0 14 -17
19 -37z m-799 -5 c0 -10 -4 -17 -10 -13 -11 7 -8 -74 4 -93 5 -9 23 -12 49
-10 48 3 62 -17 17 -26 -16 -3 -43 -9 -59 -12 -36 -7 -44 5 -44 70 0 74 11
116 29 109 8 -3 14 -14 14 -25z m50 4 c0 -15 -2 -15 -10 -2 -13 20 -13 33 0
25 6 -3 10 -14 10 -23z m-815 -7 c22 -8 33 -14 23 -15 -9 0 -18 -5 -20 -11 -6
-19 -58 1 -58 22 0 23 3 23 55 4z m1375 -39 c0 -48 -15 -69 -25 -36 -8 25 3
80 16 80 5 0 9 -20 9 -44z m-1443 10 c-6 -17 -57 -20 -57 -3 0 9 11 14 30 14
18 0 29 -5 27 -11z m1392 -38 c-1 -35 -2 -38 -8 -18 -7 23 -4 60 5 60 2 0 4
-19 3 -42z m-119 -3 c0 -16 -6 -25 -15 -25 -18 0 -18 5 -5 31 14 26 20 24 20
-6z m-707 -73 c-29 -4 -54 14 -47 33 4 10 13 8 38 -8 32 -21 32 -22 9 -25z
m-72 18 c5 0 9 -4 9 -9 0 -4 -11 -6 -25 -3 -14 2 -25 9 -25 14 0 6 7 7 16 4 9
-3 20 -6 25 -6z m909 -40 c0 -5 -2 -10 -4 -10 -3 0 -8 5 -11 10 -3 6 -1 10 4
10 6 0 11 -4 11 -10z m255 0 c3 -5 1 -10 -4 -10 -6 0 -11 5 -11 10 0 6 2 10 4
10 3 0 8 -4 11 -10z m-1182 -22 c76 0 140 -5 143 -9 9 -15 -70 -22 -192 -15
-99 5 -123 4 -127 -8 -3 -7 0 -19 6 -25 8 -8 7 -11 -4 -11 -15 0 -40 25 -58
59 -9 17 -8 20 12 23 12 2 36 0 52 -5 17 -4 92 -8 168 -9z m-253 2 c0 -5 -18
-10 -41 -10 -22 0 -38 4 -35 8 7 12 76 14 76 2z m1450 -50 c0 -5 -4 -10 -10
-10 -5 0 -10 5 -10 10 0 6 5 10 10 10 6 0 10 -4 10 -10z"/>
<path d="M377 1753 c-14 -13 -6 -30 18 -41 35 -16 45 -15 45 4 0 28 -46 55
-63 37z"/>
<path d="M497 1753 c-4 -3 -7 -14 -7 -22 0 -14 11 -16 74 -13 67 4 76 2 96
-19 58 -63 105 -109 112 -109 5 0 8 10 8 21 0 14 -25 45 -67 85 l-68 63 -71 1
c-39 0 -74 -3 -77 -7z"/>
<path d="M1177 1753 c-28 -7 -14 -28 22 -31 27 -3 32 0 29 15 -3 19 -21 24
-51 16z"/>
<path d="M1397 1716 c-3 -8 -2 -18 3 -21 13 -8 20 9 11 24 -6 10 -10 9 -14 -3z"/>
<path d="M1740 1690 c-8 -5 -23 -11 -32 -14 -22 -7 -23 -22 -3 -30 25 -9 65
11 65 34 0 22 -6 24 -30 10z"/>
<path d="M1572 1640 c-23 -30 -29 -60 -12 -60 5 0 14 8 19 18 26 44 29 46 45
33 9 -7 24 -10 33 -6 16 6 16 8 -6 26 -33 27 -54 24 -79 -11z"/>
<path d="M2 1613 c4 -19 35 -31 89 -32 20 -1 42 -8 49 -16 7 -8 19 -15 26 -15
26 0 14 29 -23 55 -29 19 -50 25 -91 25 -45 0 -53 -3 -50 -17z"/>
<path d="M931 1551 c-25 -16 -4 -38 48 -51 51 -12 81 -9 81 8 0 5 -17 12 -39
16 -21 3 -44 13 -51 21 -14 17 -20 18 -39 6z"/>
<path d="M3477 1533 c-10 -15 10 -36 28 -30 9 4 30 0 47 -9 25 -13 48 -15 107
-10 120 10 159 17 171 31 18 22 -23 28 -104 15 -40 -7 -91 -10 -112 -7 -22 3
-60 9 -85 12 -26 4 -49 3 -52 -2z"/>
<path d="M460 1408 c0 -7 -22 -33 -50 -58 -45 -41 -50 -49 -53 -96 -4 -45 -2
-51 14 -47 22 6 33 32 19 48 -11 13 -4 45 11 45 4 0 23 13 41 29 26 22 40 27
65 24 l32 -5 -16 -32 c-9 -17 -19 -44 -23 -61 -5 -27 -10 -30 -50 -33 -26 -2
-48 -10 -53 -18 -4 -8 -17 -14 -27 -14 -29 0 -78 -46 -64 -60 14 -14 71 7 93
33 8 11 28 17 51 17 54 0 70 8 70 36 0 14 9 42 20 64 21 42 28 88 16 108 -4 7
-18 12 -31 12 -13 0 -27 5 -30 10 -9 14 -35 12 -35 -2z"/>
<path d="M1556 1341 c-11 -17 40 -43 76 -39 46 4 52 35 6 34 -18 0 -43 3 -55
7 -12 5 -24 4 -27 -2z"/>
<path d="M796 1204 c-9 -24 5 -67 26 -83 14 -10 18 -23 16 -50 -3 -32 0 -36
23 -39 19 -2 28 3 37 23 26 56 9 94 -32 72 -16 -8 -18 -7 -11 9 8 21 8 61 -1
75 -9 15 -51 10 -58 -7z"/>
<path d="M593 1190 c-18 -11 -33 -27 -33 -35 0 -20 39 -20 46 0 4 8 14 15 23
15 10 0 26 7 37 16 16 13 16 15 2 10 -10 -3 -20 -1 -23 4 -9 14 -16 13 -52
-10z"/>
<path d="M3833 1135 c0 -44 2 -61 4 -37 2 23 2 59 0 80 -2 20 -4 1 -4 -43z"/>
<path d="M2701 978 c1 -47 12 -81 28 -86 11 -4 12 5 7 43 -4 26 -10 54 -13 61
-10 26 -23 14 -22 -18z"/>
<path d="M3397 882 c-55 -5 -41 -26 19 -30 44 -2 86 10 74 21 -10 8 -56 13
-93 9z"/>
<path d="M3240 720 c0 -19 5 -21 57 -18 46 2 59 7 61 21 3 15 -5 17 -57 17
-55 0 -61 -2 -61 -20z"/>
<path d="M0 326 c0 -28 35 -45 53 -27 7 7 5 16 -8 31 -25 27 -45 25 -45 -4z"/>
<path d="M777 306 c-7 -18 20 -56 39 -56 16 0 18 23 4 51 -12 22 -36 25 -43 5z"/>
<path d="M3254 305 c-4 -9 -3 -20 2 -24 5 -3 10 -18 9 -33 0 -24 -4 -28 -27
-28 -18 0 -28 -5 -28 -15 0 -22 34 -35 94 -35 45 0 54 -3 50 -15 -4 -10 0 -15
15 -15 22 0 30 20 9 20 -7 1 -3 9 10 19 34 29 27 41 -24 41 -41 0 -45 2 -39
21 5 15 2 22 -14 26 -11 3 -21 14 -23 26 -4 26 -26 34 -34 12z"/>
<path d="M3463 274 c-4 -10 1 -20 11 -26 13 -7 15 -13 6 -23 -15 -18 -5 -35
20 -35 11 0 24 -8 29 -19 6 -10 26 -22 45 -25 19 -4 45 -15 59 -26 14 -11 32
-20 41 -20 26 0 86 33 86 47 0 18 -59 17 -81 -2 -14 -14 -19 -14 -31 -2 -21
22 -58 39 -72 34 -21 -8 -39 9 -32 30 6 18 14 20 72 18 57 -2 69 0 92 21 30
29 19 54 -16 35 -11 -6 -28 -8 -36 -5 -9 4 -23 1 -30 -5 -10 -8 -16 -9 -21 -1
-10 17 -33 11 -40 -10 -4 -11 -11 -18 -16 -14 -6 3 -17 -2 -24 -12 -14 -18
-14 -18 -15 1 -1 21 -22 55 -34 55 -4 0 -9 -7 -13 -16z"/>
<path d="M893 266 c-39 -19 -29 -39 14 -31 45 8 73 22 73 35 0 13 -59 10 -87
-4z"/>
<path d="M2420 175 c0 -8 7 -15 15 -15 8 0 15 7 15 15 0 8 -7 15 -15 15 -8 0
-15 -7 -15 -15z"/>
<path d="M989 153 c-11 -13 -11 -17 -1 -20 20 -7 14 -41 -10 -54 -21 -11 -21
-12 -3 -25 26 -19 28 -18 44 17 12 27 12 33 0 41 -11 7 -11 11 -1 15 16 6 15
43 -2 43 -7 0 -20 -7 -27 -17z"/>
<path d="M1134 155 c-4 -8 -11 -15 -18 -15 -6 0 -18 -5 -26 -10 -13 -9 -13
-11 0 -20 8 -5 27 -10 43 -10 17 0 27 -5 27 -15 0 -8 -7 -15 -16 -15 -32 0
-10 -35 25 -38 33 -3 33 -3 25 30 -4 18 -7 42 -6 53 1 11 -8 27 -18 37 -23 22
-29 22 -36 3z"/>
<path d="M346 131 c-12 -19 39 -31 129 -31 46 0 87 -4 90 -10 4 -6 -7 -10 -25
-10 -24 0 -42 -10 -68 -37 -32 -32 -34 -38 -19 -41 10 -2 26 3 36 12 10 9 23
16 30 16 7 0 19 6 27 14 15 15 50 11 74 -9 9 -8 40 -12 75 -11 48 1 60 4 63
19 3 14 -4 17 -35 18 -21 1 -46 1 -55 0 -28 -3 -80 29 -74 44 8 22 -5 25 -127
32 -81 4 -116 2 -121 -6z"/>
<path d="M920 115 c0 -10 10 -15 30 -15 20 0 30 5 30 15 0 10 -10 15 -30 15
-20 0 -30 -5 -30 -15z"/>
<path d="M822 108 c-22 -22 -13 -29 36 -26 34 2 47 7 47 18 0 19 -65 26 -83 8z"/>
<path d="M2422 93 c2 -11 14 -19 31 -21 31 -4 36 12 8 28 -29 15 -43 12 -39
-7z"/>
<path d="M3093 92 c-18 -2 -33 -9 -33 -16 0 -17 47 -39 55 -26 4 6 18 10 31
10 15 0 24 5 22 12 -6 16 -37 24 -75 20z"/>
<path d="M2510 56 c0 -30 8 -35 40 -26 l25 7 -30 12 c-23 10 -26 14 -15 21 13
8 12 10 -2 10 -12 0 -18 -8 -18 -24z"/>
<path d="M2687 74 c-17 -17 27 -44 72 -44 42 0 44 1 29 16 -9 9 -27 18 -40 19
-12 2 -30 6 -39 9 -8 4 -18 3 -22 0z"/>
<path d="M3640 70 c0 -5 11 -10 25 -10 14 0 25 5 25 10 0 6 -11 10 -25 10 -14
0 -25 -4 -25 -10z"/>
<path d="M3270 61 c0 -13 22 -29 53 -36 29 -8 38 10 15 33 -14 14 -68 16 -68
3z"/>
</g>
</svg>
