<?xml version="1.0" standalone="no"?>
<!DOCTYPE svg PUBLIC "-//W3C//DTD SVG 20010904//EN"
 "http://www.w3.org/TR/2001/REC-SVG-20010904/DTD/svg10.dtd">
<svg version="1.0" xmlns="http://www.w3.org/2000/svg"
 width="344.000000pt" height="256.000000pt" viewBox="0 0 344.000000 256.000000"
 preserveAspectRatio="xMidYMid meet">
<metadata>
Created by potrace 1.16, written by Peter Selinger 2001-2019
</metadata>
<g transform="translate(0.000000,256.000000) scale(0.100000,-0.100000)"
fill="#000000" stroke="none">
<path d="M5 2543 c4 -10 12 -36 17 -58 18 -76 23 -88 36 -93 14 -4 12 27 -11
121 -8 36 -15 47 -30 47 -14 0 -17 -4 -12 -17z"/>
<path d="M68 2554 c-3 -3 0 -31 8 -62 15 -64 18 -115 7 -126 -5 -4 -8 -27 -8
-49 0 -42 0 -42 -38 -42 -34 0 -37 -2 -37 -28 0 -24 3 -28 17 -22 10 4 37 9
59 12 35 4 43 2 48 -13 12 -39 40 -47 248 -73 39 -5 79 -17 95 -29 15 -11 66
-39 113 -63 52 -27 78 -45 68 -47 -10 -2 -18 -10 -18 -18 0 -21 -34 -17 -55 6
-23 26 -37 16 -24 -17 13 -36 38 -52 78 -53 19 0 43 -8 54 -17 18 -17 19 -17
32 0 13 18 14 18 29 -5 8 -12 18 -35 21 -50 5 -21 3 -26 -12 -25 -12 1 -19 -6
-21 -20 -3 -19 1 -23 21 -23 35 0 75 34 61 51 -6 8 -14 25 -17 39 -4 14 -29
52 -56 85 -28 33 -51 65 -51 70 0 14 -25 29 -160 96 -94 47 -132 60 -211 73
-53 9 -109 16 -125 17 -16 0 -23 3 -16 6 6 2 12 13 12 24 0 10 -6 19 -12 19
-16 0 -62 95 -53 110 8 13 55 13 55 0 0 -5 -7 -10 -15 -10 -19 0 -19 -9 1 -49
9 -19 22 -30 29 -27 7 2 16 -3 20 -12 6 -15 8 -15 15 3 5 11 9 45 9 76 1 30 5
59 10 65 13 14 -10 134 -26 134 -16 0 -17 -32 -2 -84 8 -27 8 -41 0 -49 -6 -6
-11 -28 -11 -50 0 -23 -4 -36 -10 -32 -5 3 -10 19 -10 35 0 16 -5 63 -11 105
-11 74 -12 75 -41 75 l-29 0 20 -29 c21 -29 29 -91 12 -91 -5 0 -12 -8 -14
-17 -3 -11 -5 -7 -6 10 0 16 4 38 10 49 8 14 8 23 0 31 -8 8 -11 6 -11 -8 0
-17 -2 -18 -10 -5 -5 8 -10 25 -10 38 0 20 -19 30 -32 16z m62 -278 c-1 -6
-10 0 -20 13 -11 13 -20 28 -20 35 1 6 10 0 20 -13 11 -13 20 -28 20 -35z"/>
<path d="M798 2527 c18 -18 32 -37 32 -41 0 -4 9 -19 20 -33 15 -19 20 -41 20
-81 0 -49 -2 -54 -13 -37 -10 12 -16 15 -21 6 -9 -14 2 -51 15 -51 12 0 12
-37 -1 -45 -5 -3 -10 -15 -10 -26 0 -24 -11 -24 -41 2 -13 11 -43 37 -67 57
-24 20 -61 61 -84 90 -26 33 -45 49 -50 44 -21 -21 65 -131 157 -203 141 -110
154 -127 169 -220 6 -32 3 -40 -22 -61 -59 -49 -63 -94 -5 -48 35 27 50 25 72
-11 10 -17 34 -38 52 -47 21 -11 35 -26 37 -40 2 -13 14 -27 28 -32 13 -5 34
-21 46 -36 13 -14 37 -33 53 -41 17 -9 45 -33 64 -55 33 -38 115 -88 146 -88
32 0 13 29 -37 55 -29 15 -76 49 -103 76 -28 27 -55 49 -61 49 -6 0 -21 12
-35 26 -13 15 -41 37 -61 50 -20 13 -39 32 -42 42 -4 10 -17 25 -31 32 -26 14
-56 76 -75 159 -7 30 -24 82 -38 115 -22 55 -24 70 -18 151 7 108 -2 215 -19
215 -6 0 -21 14 -33 30 -15 20 -31 30 -49 30 l-27 0 32 -33z"/>
<path d="M1012 2475 c-1 -46 -7 -96 -12 -110 -12 -32 -13 -195 -1 -195 11 0
21 51 21 114 0 28 4 67 9 86 5 19 12 70 16 113 6 70 5 77 -12 77 -16 0 -18
-10 -21 -85z"/>
<path d="M1160 2528 c4 -18 19 -78 33 -133 14 -55 28 -129 32 -165 4 -35 14
-82 21 -104 8 -21 14 -51 14 -66 0 -34 9 -60 21 -60 13 0 11 56 -5 125 -8 33
-17 85 -20 115 -8 63 -40 203 -62 273 -18 55 -47 67 -34 15z"/>
<path d="M1246 2533 c3 -16 11 -62 18 -103 8 -41 25 -127 39 -190 14 -63 31
-138 37 -166 6 -29 18 -60 25 -70 14 -18 14 -18 15 6 0 25 -33 181 -72 340
-11 46 -21 113 -22 147 -1 58 -3 63 -23 63 -19 0 -22 -4 -17 -27z"/>
<path d="M1550 2533 c0 -36 -18 -172 -32 -248 -8 -38 -12 -184 -12 -392 -1
-237 -4 -335 -13 -344 -8 -8 -14 -6 -22 10 -14 26 -47 29 -36 4 4 -10 10 -27
13 -38 2 -11 9 -26 15 -33 7 -9 7 -16 -1 -24 -7 -7 -12 -24 -12 -39 0 -28 -82
-151 -143 -214 -43 -44 -95 -48 -133 -10 -14 14 -29 25 -34 25 -16 0 -11 -36
6 -51 13 -10 15 -32 14 -113 -2 -56 1 -123 6 -150 11 -61 34 -74 34 -19 0 57
19 85 65 98 22 6 57 19 77 30 l38 19 25 -24 c18 -17 25 -34 25 -60 0 -38 14
-60 40 -60 37 -1 42 -14 30 -81 -7 -35 -20 -89 -31 -119 -10 -30 -17 -63 -16
-74 2 -22 -38 -54 -73 -59 -15 -2 -33 -17 -45 -35 -14 -22 -28 -31 -48 -32
-15 0 -38 -10 -51 -23 l-23 -23 -29 30 c-26 27 -29 38 -28 91 0 33 5 78 9 99
6 29 5 37 -3 32 -9 -5 -12 20 -12 92 0 75 -6 120 -24 183 -13 46 -27 100 -31
119 -4 19 -16 51 -25 70 -28 54 -60 140 -60 160 0 4 9 10 21 13 12 3 18 10 15
16 -4 5 3 15 14 21 16 8 20 21 20 59 0 73 -16 108 -67 142 -39 27 -51 31 -90
26 -50 -5 -69 -19 -78 -58 -5 -20 -1 -32 13 -45 43 -41 114 -159 136 -228 14
-41 34 -93 45 -116 11 -23 34 -96 51 -160 31 -124 40 -252 19 -291 -9 -17 -19
-75 -46 -262 -8 -59 5 -105 44 -148 42 -46 53 -49 53 -11 1 21 8 31 37 44 35
17 62 16 35 -1 -17 -11 10 -34 34 -29 15 3 16 5 3 18 -8 9 -14 37 -15 73 -1
53 1 57 22 57 36 0 54 10 70 41 10 19 22 29 38 29 13 0 35 11 50 25 37 34 128
95 142 95 6 0 26 16 45 35 19 19 39 35 45 35 6 0 32 18 57 40 25 22 50 40 56
40 6 0 31 -18 55 -40 42 -39 65 -48 80 -33 7 8 -121 133 -136 133 -4 0 -8 7
-8 15 0 25 12 17 93 -60 48 -47 85 -75 100 -75 12 0 31 -7 41 -15 11 -8 34
-15 52 -15 17 0 37 -6 43 -14 7 -8 27 -18 44 -22 18 -4 48 -17 67 -30 30 -21
34 -28 32 -61 -3 -31 2 -43 25 -64 15 -15 38 -30 51 -34 38 -11 24 -38 -60
-110 -45 -38 -110 -98 -144 -133 -35 -34 -67 -62 -71 -61 -30 7 -111 -51 -147
-104 -35 -51 -38 -67 -16 -67 11 0 20 4 20 9 0 23 82 98 118 109 25 8 63 35
105 75 91 88 145 137 200 181 41 33 47 43 47 75 0 20 -6 43 -12 49 -7 7 -18
36 -23 65 -8 38 -15 53 -29 55 -11 2 -41 22 -69 43 -27 21 -58 39 -70 39 -33
0 -99 50 -91 69 4 9 8 30 8 48 1 25 9 37 39 57 52 35 124 34 237 -3 l85 -28
17 -89 c23 -115 27 -124 38 -103 5 9 4 34 -2 60 -5 24 -13 84 -16 133 -6 76
-10 90 -26 92 -10 1 -27 12 -37 23 -17 18 -18 30 -13 108 4 48 13 103 22 121
15 33 15 33 26 10 6 -12 29 -33 51 -45 33 -19 49 -21 95 -16 30 3 69 11 85 19
50 21 95 22 95 0 0 -7 12 -21 26 -31 24 -16 26 -16 31 3 3 11 18 26 35 33 35
14 48 3 48 -43 0 -15 5 -30 10 -33 6 -4 19 -24 31 -46 12 -25 33 -46 54 -56
46 -22 46 -45 -3 -175 -21 -57 -45 -129 -52 -161 -9 -37 -23 -68 -42 -87 -15
-16 -28 -38 -28 -47 0 -16 -11 -18 -83 -19 -65 0 -102 -7 -180 -33 -59 -20
-96 -38 -94 -44 6 -17 71 -11 109 10 73 39 385 13 443 -37 11 -10 29 -21 41
-24 11 -3 43 -26 70 -50 27 -24 51 -43 53 -41 7 8 -9 53 -29 78 -12 15 -38 34
-58 44 -20 9 -38 17 -39 18 -2 1 15 56 37 124 44 136 147 355 209 446 23 33
41 70 41 83 0 12 7 25 15 28 9 4 15 19 15 42 l0 35 -30 -41 c-16 -23 -30 -49
-30 -57 0 -9 -17 -39 -38 -68 -21 -29 -51 -81 -66 -117 -16 -36 -37 -76 -46
-90 -21 -30 -64 -137 -80 -200 -7 -25 -21 -63 -31 -84 -10 -22 -19 -48 -19
-58 0 -10 -6 -18 -14 -18 -27 0 -160 48 -164 60 -2 6 7 24 21 38 15 17 34 58
47 107 12 44 37 119 56 167 19 48 34 98 34 112 0 13 7 29 15 36 12 10 13 16 4
26 -6 8 -15 11 -20 8 -5 -2 -18 6 -30 20 -12 13 -27 22 -35 19 -8 -3 -16 5
-19 20 -4 14 -15 33 -26 43 -21 19 -25 49 -8 60 6 3 32 -17 58 -45 l48 -52 34
20 c19 10 65 31 102 46 66 26 69 26 82 9 13 -18 14 -18 38 6 14 14 36 33 51
43 30 21 37 53 9 42 -10 -4 -24 -9 -32 -12 -10 -5 -12 0 -7 15 6 17 0 26 -26
42 -18 11 -41 20 -50 20 -9 0 -30 11 -46 25 -17 14 -35 25 -42 25 -12 0 -199
96 -214 110 -5 5 -2 16 8 26 9 9 15 21 13 28 -5 16 -46 20 -63 5 -8 -6 -17 -9
-21 -5 -10 10 28 46 50 46 11 0 38 19 62 43 36 36 44 53 59 122 28 126 22 116
59 101 42 -18 120 -36 155 -36 21 0 37 10 60 39 34 42 41 71 18 71 -14 0 -51
-39 -58 -61 -2 -7 -29 -5 -80 5 -90 19 -108 25 -130 43 -21 19 -25 10 -38 -78
-21 -138 -51 -191 -116 -204 -19 -3 -38 -13 -41 -21 -3 -7 -11 -14 -18 -14
-28 0 -18 -95 17 -164 7 -13 4 -24 -11 -40 -25 -26 -26 -45 -6 -92 14 -33 14
-36 -2 -30 -9 4 -50 12 -90 18 -70 11 -88 23 -82 54 1 5 1 18 0 29 -1 14 -4
16 -12 8 -13 -13 -17 -91 -5 -115 9 -20 -14 -35 -73 -44 -33 -5 -41 -4 -41 9
0 31 23 67 61 93 34 23 39 32 39 65 0 42 -13 57 -36 38 -10 -8 -12 -15 -4 -23
18 -18 11 -36 -15 -36 -14 0 -25 -5 -25 -11 0 -8 -5 -7 -16 1 -34 29 -61 -50
-40 -118 6 -18 4 -21 -11 -15 -29 10 -43 24 -62 62 l-19 35 37 44 c20 24 48
50 62 57 22 12 27 23 31 62 3 26 17 73 31 104 31 63 37 139 12 139 -16 0 -20
16 -6 24 13 8 22 62 27 156 2 47 9 148 15 225 15 186 13 398 -3 433 -11 22
-20 27 -53 29 -22 0 -31 -1 -19 -3 38 -9 54 -55 61 -172 6 -114 -1 -139 -33
-108 -8 9 -32 20 -54 26 -24 6 -47 22 -60 40 -11 16 -29 31 -39 35 -10 3 -23
17 -29 30 -10 21 -9 28 8 45 11 11 20 33 20 51 0 44 -23 32 -34 -19 -6 -23
-16 -42 -23 -42 -7 0 -13 -4 -13 -10 0 -5 -22 -10 -49 -10 -45 0 -52 -4 -100
-51 -48 -47 -83 -98 -80 -116 1 -4 1 -35 0 -69 -1 -44 -6 -67 -20 -82 -11 -14
-17 -32 -14 -49 2 -21 -1 -18 -12 12 -8 22 -23 45 -31 52 -20 15 -23 125 -4
148 8 10 9 15 1 15 -17 0 -13 16 18 67 28 47 51 131 33 119 -22 -14 -92 -167
-92 -203 0 -22 -11 -59 -25 -85 -14 -26 -25 -53 -25 -61 0 -23 -29 -111 -43
-130 -11 -16 -12 -14 -10 20 1 21 7 133 13 248 6 116 13 231 17 258 4 38 3 47
-9 47 -16 0 -28 -125 -44 -428 -6 -122 -17 -162 -68 -242 -6 -8 -11 -68 -12
-135 -1 -66 -5 -141 -8 -166 -4 -38 -1 -52 15 -73 20 -26 21 -55 4 -141 -3
-16 -8 -40 -11 -52 -2 -13 -11 -23 -19 -23 -12 0 -15 13 -14 59 1 47 -3 65
-22 91 -23 30 -27 32 -80 28 -46 -3 -61 -10 -92 -38 -20 -18 -37 -39 -37 -47
0 -16 -26 -17 -36 -2 -13 22 -1 379 14 403 12 20 10 80 -4 107 -14 28 -14 30
11 39 26 10 34 35 13 43 -10 3 -10 11 0 38 8 19 22 72 33 119 32 138 41 162
78 215 19 28 49 85 67 128 29 69 30 77 14 77 -12 0 -24 -17 -39 -58 -25 -65
-61 -126 -61 -101 0 8 4 19 9 25 4 5 14 31 20 59 7 27 17 55 23 62 8 10 5 13
-9 13 -23 0 -45 -49 -64 -140 -6 -30 -19 -84 -29 -120 -11 -36 -24 -94 -30
-130 -13 -71 -40 -150 -53 -150 -4 0 -5 26 -2 58 11 107 50 414 60 465 2 11
-3 17 -16 17 -14 0 -19 -7 -19 -27z m882 -185 c18 -13 44 -36 58 -53 14 -16
33 -37 43 -47 9 -10 17 -22 17 -28 0 -17 -37 -30 -85 -30 -44 0 -47 -2 -61
-37 -9 -20 -19 -59 -23 -85 -11 -66 -20 -73 -73 -60 -42 11 -66 4 -54 -16 3
-5 26 -16 51 -23 39 -12 45 -17 45 -41 0 -50 44 -35 130 44 28 25 110 179 110
205 0 7 9 13 20 13 20 0 21 -4 16 -137 -7 -184 -20 -287 -39 -317 -9 -14 -19
-43 -23 -65 -4 -23 -10 -41 -14 -41 -12 0 -40 -80 -44 -125 -2 -22 -4 -45 -5
-50 0 -6 -14 -19 -31 -28 -33 -20 -43 -67 -14 -67 13 0 14 -3 4 -15 -7 -8 -16
-13 -20 -10 -19 12 -60 -171 -60 -266 0 -31 -3 -70 -6 -86 l-6 -30 -101 -5
c-56 -3 -110 -9 -119 -13 -13 -5 -21 0 -30 22 -7 15 -15 30 -19 33 -3 3 -9 21
-13 41 -6 36 -31 68 -42 56 -3 -3 5 -34 19 -69 37 -95 39 -104 23 -117 -8 -7
-19 -10 -24 -7 -14 8 -22 46 -10 46 18 0 -13 128 -44 180 -4 8 -15 30 -24 48
-17 37 -39 33 -29 -5 6 -24 4 -25 -24 -20 -21 4 -37 0 -54 -13 -14 -11 -29
-20 -35 -20 -13 0 -43 143 -32 154 5 5 16 -4 27 -23 20 -34 49 -47 88 -37 34
9 40 29 29 85 -6 27 -6 61 -1 81 15 63 14 75 -11 78 -21 3 -22 7 -16 60 4 31
13 66 20 77 17 24 19 88 2 83 -11 -4 -31 -66 -44 -135 -8 -41 -15 -41 -37 -3
-15 24 -16 39 -9 87 5 32 7 99 5 148 -5 81 -3 93 17 118 13 16 31 27 46 27 13
0 24 4 24 10 0 27 171 73 185 50 3 -5 -7 -34 -22 -66 -29 -61 -30 -77 -21
-274 2 -59 0 -69 -30 -113 -33 -49 -39 -71 -23 -81 5 -3 23 19 40 49 17 30 36
55 41 55 6 0 10 21 9 48 -1 33 11 85 41 172 24 69 45 132 48 140 3 8 12 -33
20 -92 9 -60 19 -108 23 -108 14 0 17 26 9 80 -5 30 -11 80 -14 111 -3 35 -17
80 -36 115 -26 51 -30 69 -30 142 0 82 10 119 36 135 8 4 14 15 14 23 0 8 12
26 26 39 37 34 120 35 166 3z m106 -192 c6 -7 -16 -67 -37 -101 -10 -17 -41
-50 -69 -74 l-52 -43 6 34 c4 18 11 37 15 43 5 5 9 28 9 52 l0 43 38 -6 c30
-5 43 -2 57 12 18 19 17 19 -31 25 -46 5 -48 6 -24 17 22 10 77 9 88 -2z
m-388 -371 c0 -12 -29 -75 -34 -75 -4 0 -6 18 -6 40 0 33 3 40 20 40 11 0 20
-2 20 -5z m-1147 -241 c14 -11 33 -36 43 -56 15 -34 15 -40 1 -75 -11 -27 -20
-37 -34 -35 -20 3 -63 47 -63 65 0 7 -17 30 -38 51 l-38 40 21 21 c23 24 66
20 108 -11z m1558 -47 c-10 -9 -11 -8 -5 6 3 10 9 15 12 12 3 -3 0 -11 -7 -18z
m-15 -74 c-10 -10 -19 5 -10 18 6 11 8 11 12 0 2 -7 1 -15 -2 -18z m-793 3
c15 -12 18 -29 17 -117 0 -57 5 -138 11 -179 12 -72 11 -76 -14 -125 -14 -27
-28 -59 -32 -69 -5 -18 -8 -17 -34 8 -25 24 -29 37 -34 104 -4 42 -13 95 -21
117 -19 52 -20 106 -1 131 19 25 19 44 0 44 -8 0 -15 6 -15 13 0 6 -3 22 -6
34 -11 41 87 70 129 39z m174 -101 c1 -97 -14 -113 -41 -45 -21 52 -21 100 -1
100 9 0 18 7 21 15 13 33 19 11 21 -70z m1196 -5 c137 -68 184 -99 120 -81
-43 13 -223 100 -255 124 -25 18 -41 45 -20 34 4 -2 73 -37 155 -77z m-1598
36 c50 -35 63 -58 75 -131 6 -38 15 -81 20 -95 10 -29 22 -101 14 -82 -11 25
-22 11 -27 -35 -2 -27 -8 -59 -12 -71 -6 -20 -4 -23 11 -22 34 4 44 0 44 -15
0 -11 -12 -15 -45 -15 -37 0 -45 -3 -45 -19 0 -12 9 -21 25 -25 26 -7 75 2 75
13 0 9 60 34 67 27 3 -3 0 -12 -7 -21 -7 -9 -10 -27 -6 -46 5 -26 2 -32 -25
-47 -18 -9 -52 -35 -78 -56 -25 -21 -60 -45 -78 -52 -17 -8 -34 -18 -38 -24
-3 -5 -11 -10 -16 -10 -5 0 -3 10 5 23 7 12 19 47 25 77 16 77 31 131 44 158
7 16 7 28 -2 45 -6 12 -15 42 -19 66 -6 38 -12 46 -36 52 -35 10 -66 41 -66
69 0 11 -6 31 -14 43 -23 37 -30 101 -11 117 8 7 28 34 42 61 15 26 32 45 38
41 5 -3 23 -15 40 -26z m1474 -46 c29 -22 59 -40 67 -40 7 0 17 -6 21 -13 15
-25 68 -55 111 -62 58 -9 53 -22 -12 -30 -61 -8 -96 0 -96 20 0 8 -27 26 -59
41 -51 22 -62 33 -77 68 -10 22 -20 44 -22 49 -8 17 17 4 67 -33z m-56 -63 c4
-10 3 -16 -2 -12 -12 7 -41 64 -41 79 0 12 32 -38 43 -67z m-369 18 c-4 -8 -8
-15 -10 -15 -2 0 -4 7 -4 15 0 8 4 15 10 15 5 0 7 -7 4 -15z m442 -80 c10 -8
14 -15 8 -15 -5 0 -19 7 -30 15 -10 8 -14 15 -8 15 5 0 19 -7 30 -15z m-1616
-59 c30 -58 35 -81 10 -51 -7 8 -25 15 -41 15 -16 0 -29 5 -29 11 0 15 22 90
26 86 1 -1 16 -29 34 -61z m-91 1 c-4 -23 -7 -51 -6 -62 2 -14 -7 -21 -33 -27
-19 -4 -47 -10 -62 -14 l-28 -6 0 64 0 65 49 -5 c36 -3 52 0 62 11 23 26 27
20 18 -26z m1786 -7 c3 -5 1 -10 -4 -10 -6 0 -11 5 -11 10 0 6 2 10 4 10 3 0
8 -4 11 -10z m-1090 -75 c8 -30 18 -61 21 -68 4 -11 -9 -16 -53 -20 -31 -3
-62 -2 -69 3 -6 6 -14 7 -17 3 -4 -3 -13 0 -22 7 -11 9 -13 23 -9 54 7 45 35
75 71 76 12 0 25 5 28 10 12 19 33 -9 50 -65z m-218 -97 c-3 -8 -6 -5 -6 6 -1
11 2 17 5 13 3 -3 4 -12 1 -19z m-282 2 c14 -5 23 -15 20 -20 -5 -8 -11 -7
-20 0 -8 7 -19 9 -25 5 -5 -3 -10 1 -10 9 0 19 1 19 35 6z m339 -56 c5 -14 4
-15 -9 -4 -17 14 -19 20 -6 20 5 0 12 -7 15 -16z m142 5 c4 -7 9 -8 13 -1 4 6
11 4 19 -4 8 -9 9 -14 2 -14 -12 0 -9 -88 4 -109 13 -20 1 -22 -30 -6 -16 8
-34 15 -41 15 -26 0 -42 30 -37 68 3 20 7 43 10 50 4 15 50 16 60 1z m-856
-264 c-6 -22 -7 -65 -4 -96 5 -40 3 -59 -6 -64 -10 -6 -12 11 -8 81 3 49 9 97
13 107 12 29 15 14 5 -28z m1185 -113 c-7 -7 -45 29 -45 41 0 6 11 0 25 -13
14 -13 23 -26 20 -28z m-1190 -182 c3 -5 1 -10 -4 -10 -6 0 -11 5 -11 10 0 6
2 10 4 10 3 0 8 -4 11 -10z"/>
<path d="M2240 2235 c0 -8 7 -15 15 -15 20 0 85 -32 85 -42 0 -9 -44 -1 -72
13 -30 16 -40 11 -27 -13 35 -66 101 -61 115 7 5 28 2 32 -31 48 -45 21 -85
22 -85 2z"/>
<path d="M2461 1747 c-24 -39 -27 -59 -8 -55 15 4 18 -9 10 -39 -3 -14 -13
-23 -24 -23 -20 0 -52 -53 -63 -105 -5 -23 -2 -36 14 -53 29 -31 44 -28 36 8
-3 17 -9 43 -12 59 -5 26 -3 30 28 40 48 16 62 44 59 121 -1 36 -6 69 -10 73
-5 5 -18 -7 -30 -26z"/>
<path d="M2390 2540 c0 -10 -13 -35 -30 -53 -32 -37 -38 -57 -16 -57 22 0 63
48 70 81 9 45 8 49 -9 49 -8 0 -15 -9 -15 -20z"/>
<path d="M2438 2551 c12 -7 62 -4 62 5 0 2 -17 4 -37 4 -24 0 -33 -3 -25 -9z"/>
<path d="M1786 2264 c-3 -9 -6 -33 -6 -53 0 -23 -8 -48 -20 -64 -11 -14 -20
-30 -20 -36 0 -16 27 -13 34 4 3 8 12 15 21 15 12 0 15 14 15 75 0 70 -10 95
-24 59z"/>
<path d="M3200 2231 c0 -6 -18 -11 -40 -11 -44 0 -44 0 -40 -99 1 -39 -9 -75
-42 -148 -19 -40 -3 -67 49 -86 72 -25 129 -35 144 -26 21 13 1 26 -71 44 -71
18 -100 31 -100 44 0 9 44 1 130 -24 30 -9 83 -18 118 -22 59 -6 62 -5 62 16
0 18 -6 21 -38 21 -37 0 -38 1 -38 35 0 19 6 37 13 39 7 3 13 21 13 41 0 28 4
35 19 35 23 0 40 22 23 28 -7 2 -12 8 -12 14 0 6 9 3 19 -6 17 -15 19 -28 15
-84 -3 -37 -1 -87 4 -112 8 -37 10 -22 11 90 0 81 -3 129 -8 121 -6 -10 -11
-1 -16 28 -8 48 -41 71 -61 43 -8 -11 -13 -12 -18 -4 -10 17 -36 15 -57 -4
-22 -20 -51 -11 -47 13 2 10 -4 19 -14 21 -10 2 -18 -1 -18 -7z m-30 -45 c0
-3 -4 -8 -10 -11 -5 -3 -10 -1 -10 4 0 6 5 11 10 11 6 0 10 -2 10 -4z m174
-30 c17 6 23 -11 7 -21 -13 -8 -62 16 -55 27 3 5 11 4 19 -2 7 -6 20 -8 29 -4z
m-108 -7 c3 -6 15 -9 25 -6 16 4 18 0 14 -42 -2 -25 -7 -66 -11 -90 l-7 -43
-44 6 c-59 8 -64 12 -51 42 9 19 9 30 0 45 -7 10 -12 20 -12 22 0 2 25 2 56
-1 51 -4 56 -3 52 14 -2 14 -13 20 -41 22 -23 2 -37 8 -37 17 0 22 44 33 56
14z m94 -79 c0 -21 -5 -30 -16 -30 -9 0 -13 5 -10 13 3 6 9 20 12 30 9 25 14
21 14 -13z m-190 -57 c0 -19 -3 -24 -10 -17 -6 6 -8 18 -4 27 9 24 14 21 14
-10z"/>
<path d="M211 2121 c-17 -11 -5 -31 19 -31 10 0 22 -4 25 -10 10 -17 35 -11
35 8 0 36 -45 55 -79 33z"/>
<path d="M192 2057 c-9 -10 2 -25 44 -65 30 -29 59 -52 64 -52 5 0 24 -16 43
-35 32 -33 113 -65 162 -65 19 0 19 24 0 40 -8 7 -15 20 -15 29 0 9 -9 27 -19
41 -15 19 -29 25 -62 25 -23 0 -44 -6 -46 -12 -3 -7 -20 -2 -48 14 -38 21 -44
28 -39 48 4 17 0 26 -14 34 -28 15 -57 14 -70 -2z m234 -127 c19 0 34 -5 34
-11 0 -6 -6 -9 -14 -6 -7 3 -18 1 -23 -4 -7 -7 -19 -6 -36 2 -29 13 -38 35
-11 25 9 -3 31 -6 50 -6z"/>
<path d="M465 1998 c7 -24 40 -58 56 -58 18 0 8 37 -16 58 -33 28 -48 28 -40
0z"/>
<path d="M137 1954 c-12 -13 13 -42 40 -48 99 -18 102 -18 96 4 -3 13 -14 20
-28 20 -13 0 -36 7 -51 15 -31 16 -47 19 -57 9z"/>
<path d="M520 1916 c0 -26 74 -171 112 -219 28 -36 36 -55 32 -72 -3 -14 0
-26 8 -32 36 -22 70 -89 102 -199 90 -314 98 -354 70 -381 -9 -9 -12 -22 -8
-32 4 -9 9 -92 11 -186 2 -93 6 -177 9 -185 13 -39 23 25 23 153 1 76 4 143 7
149 4 6 6 54 6 107 -1 72 -8 114 -26 171 -13 41 -39 127 -56 190 -32 121 -56
176 -96 223 -13 16 -24 39 -24 51 0 12 -19 49 -43 81 -24 33 -53 85 -66 115
-13 30 -28 61 -33 68 -14 16 -28 15 -28 -2z"/>
<path d="M85 1906 c-20 -14 -19 -15 5 -24 32 -13 50 2 29 23 -13 13 -17 13
-34 1z"/>
<path d="M595 1888 c17 -77 39 -104 61 -74 11 16 13 15 26 -10 7 -15 19 -29
26 -32 19 -6 14 29 -9 68 -19 31 -22 33 -34 17 -14 -20 -27 -10 -44 36 -15 39
-34 35 -26 -5z"/>
<path d="M317 1823 c-10 -16 8 -30 55 -41 60 -15 68 -15 68 1 0 24 -111 60
-123 40z"/>
<path d="M42 1808 c-22 -22 -12 -28 53 -28 70 0 84 12 34 29 -41 14 -72 14
-87 -1z"/>
<path d="M61 1721 c-16 -28 -14 -61 3 -61 18 0 23 8 27 44 5 35 -15 46 -30 17z"/>
<path d="M1070 1632 c0 -12 34 -42 48 -42 14 0 15 10 4 26 -9 15 -52 28 -52
16z"/>
<path d="M42 1603 c-15 -30 -23 -73 -13 -73 11 0 41 56 41 77 0 19 -18 16 -28
-4z"/>
<path d="M3264 1575 c-9 -14 -14 -28 -11 -31 7 -8 67 34 67 47 0 19 -40 8 -56
-16z"/>
<path d="M2691 1496 c-6 -7 -9 -15 -6 -18 3 -3 -1 -11 -10 -18 -8 -7 -15 -21
-15 -32 0 -16 3 -17 23 -7 28 15 37 28 37 56 0 27 -14 37 -29 19z"/>
<path d="M180 1304 c0 -8 5 -12 10 -9 6 4 8 11 5 16 -9 14 -15 11 -15 -7z"/>
<path d="M576 1261 c-9 -13 -18 -389 -11 -412 15 -46 26 0 25 104 -1 62 2 158
6 215 5 70 3 102 -4 102 -6 0 -13 -4 -16 -9z"/>
<path d="M403 1173 c6 -98 26 -259 39 -323 6 -30 12 -89 13 -130 1 -76 26
-324 46 -460 6 -41 14 -102 19 -136 4 -34 14 -72 21 -85 7 -13 12 -27 11 -31
-1 -5 5 -8 13 -8 8 0 15 5 15 12 0 9 3 9 12 0 18 -18 41 -15 34 5 -6 16 -6 16
12 0 18 -17 42 -23 42 -11 0 3 -16 33 -35 65 -19 33 -35 66 -35 74 0 24 -60
140 -72 140 -9 0 -17 39 -26 130 -7 72 -17 160 -22 198 -6 37 -10 100 -10 141
0 40 -4 86 -9 102 -5 16 -12 51 -14 79 -4 42 -3 47 8 32 17 -24 27 -21 23 6
-2 12 -10 22 -18 22 -16 0 -18 8 -41 163 -7 45 -17 82 -22 82 -5 0 -7 -30 -4
-67z m156 -986 c1 -5 -3 -5 -9 -2 -5 3 -10 16 -9 28 0 21 1 21 9 2 5 -11 9
-24 9 -28z"/>
<path d="M978 1088 c2 -69 -1 -131 -8 -158 -7 -25 -18 -98 -26 -163 -9 -80
-23 -142 -44 -194 -16 -42 -27 -80 -24 -85 23 -37 80 130 93 274 5 53 14 104
19 115 26 48 22 311 -4 320 -7 2 -9 -32 -6 -109z"/>
<path d="M657 1063 c2 -48 13 -118 24 -155 10 -36 20 -97 20 -135 2 -82 11
-128 24 -122 16 7 6 186 -15 269 -11 41 -23 108 -27 149 -12 110 -32 105 -26
-6z"/>
<path d="M360 983 c0 -51 44 -260 57 -273 14 -13 15 -9 9 40 -12 106 -42 244
-54 248 -7 2 -12 -5 -12 -15z"/>
<path d="M264 888 c3 -57 8 -114 11 -128 4 -14 -1 -59 -10 -100 -25 -116 -32
-347 -12 -418 9 -31 19 -72 24 -91 9 -37 33 -54 33 -24 0 11 -9 53 -20 94 -11
43 -19 101 -18 139 1 48 2 54 5 23 4 -41 17 -56 26 -30 2 6 7 -8 11 -33 4 -25
19 -89 32 -142 13 -53 24 -115 24 -137 0 -31 4 -41 16 -41 14 0 16 9 10 63 -4
34 -16 96 -27 139 -10 42 -19 110 -19 152 0 75 -13 101 -26 51 -4 -14 -9 -23
-13 -20 -3 4 -9 129 -13 278 -7 271 -12 327 -30 327 -6 0 -7 -41 -4 -102z"/>
<path d="M1026 854 c-3 -9 -6 -29 -6 -46 0 -17 -7 -57 -16 -90 -15 -60 -14
-75 5 -64 12 8 41 134 41 180 0 37 -13 48 -24 20z"/>
<path d="M3094 851 c-2 -2 -4 -13 -4 -23 0 -15 8 -18 50 -18 42 0 50 3 50 19
0 15 -9 20 -46 23 -25 2 -47 1 -50 -1z"/>
<path d="M246 782 c-13 -21 -36 -106 -36 -134 0 -31 16 -46 23 -21 25 94 33
187 13 155z"/>
<path d="M790 708 c0 -29 -3 -82 -6 -118 -6 -78 7 -212 21 -217 7 -2 10 59 9
174 -1 213 -1 213 -14 213 -5 0 -10 -24 -10 -52z"/>
<path d="M1733 730 c-36 -15 -44 -90 -8 -76 7 2 21 -2 32 -9 10 -8 28 -11 40
-8 15 3 25 0 29 -10 3 -8 20 -18 38 -21 24 -5 41 -19 65 -52 30 -43 34 -46 69
-41 73 11 107 20 121 30 16 14 41 -15 41 -48 0 -20 31 -55 50 -55 6 0 10 14
10 31 0 22 -11 43 -35 70 -19 22 -35 45 -35 53 0 22 -24 38 -38 24 -9 -9 -17
-6 -35 10 -27 25 -81 44 -103 35 -39 -15 21 -86 66 -78 14 3 32 1 40 -5 12 -8
9 -10 -12 -10 -15 0 -30 -4 -33 -10 -3 -5 -19 -10 -34 -10 -36 0 -81 55 -81
99 0 24 -5 30 -29 36 -16 3 -35 13 -42 21 -7 8 -20 12 -31 8 -12 -4 -18 -1
-16 8 4 16 -38 21 -69 8z m51 -26 c8 -3 12 -12 9 -20 -4 -11 -9 -12 -19 -3 -8
6 -14 15 -14 20 0 11 3 11 24 3z"/>
<path d="M1559 586 c-23 -26 -48 -46 -54 -46 -18 0 -32 -20 -40 -57 -6 -30 -4
-32 33 -43 36 -11 41 -10 67 14 15 14 38 26 51 26 12 0 24 5 26 11 3 8 16 10
41 5 28 -5 40 -14 48 -33 9 -25 10 -25 29 -8 30 27 24 42 -25 64 -42 19 -45
22 -33 41 10 16 21 20 41 17 31 -4 47 10 26 24 -18 11 -59 12 -59 0 0 -5 -9
-11 -20 -14 -12 -3 -20 -14 -20 -26 0 -12 -4 -21 -10 -21 -10 0 -12 7 -14 44
-1 10 -11 25 -22 33 -20 13 -25 11 -65 -31z m71 -16 c0 -5 -3 -15 -6 -24 -7
-19 -28 -22 -21 -3 2 6 0 19 -4 29 -7 13 -5 15 11 11 11 -3 20 -9 20 -13z
m-40 -39 c0 -14 -64 -61 -83 -61 -30 0 -26 17 8 36 19 10 35 22 35 26 0 5 9 8
20 8 11 0 20 -4 20 -9z"/>
<path d="M114 549 c-19 -23 -72 -189 -88 -276 -17 -89 -8 -193 19 -219 7 -7
15 -19 18 -26 3 -10 7 -10 17 -1 10 9 8 19 -9 48 -31 53 -33 167 -4 245 10 27
24 -41 28 -138 5 -119 15 -182 28 -182 16 0 1 301 -17 345 -16 38 -14 74 11
141 17 49 15 86 -3 63z"/>
<path d="M1870 486 c0 -17 5 -21 43 -30 36 -9 38 20 1 34 -35 14 -44 13 -44
-4z"/>
<path d="M1832 458 c-6 -6 -8 -17 -5 -24 3 -9 -2 -14 -13 -14 -23 -1 -54 -23
-54 -39 0 -16 -31 -13 -54 4 -26 20 -36 19 -36 -4 0 -20 49 -51 80 -51 22 0
120 92 120 113 0 19 -24 29 -38 15z"/>
<path d="M2681 421 c-8 -5 -11 -16 -8 -25 5 -13 24 -16 112 -16 93 0 107 -2
126 -21 17 -17 37 -22 100 -26 73 -4 79 -3 79 15 0 16 -9 20 -49 25 -27 3 -58
10 -68 16 -55 29 -109 41 -191 41 -48 0 -93 -4 -101 -9z"/>
<path d="M655 341 c-9 -16 14 -121 27 -121 7 0 8 19 4 57 -7 59 -18 83 -31 64z"/>
<path d="M1345 340 c3 -5 8 -10 11 -10 2 0 4 5 4 10 0 6 -5 10 -11 10 -5 0 -7
-4 -4 -10z"/>
<path d="M1190 256 c-15 -40 -13 -44 23 -62 45 -23 78 -50 70 -58 -11 -11 -21
-7 -53 23 l-32 29 -21 -21 c-15 -15 -17 -24 -10 -36 6 -9 7 -26 3 -37 -5 -11
-4 -27 1 -35 8 -12 10 -12 19 1 6 8 8 23 6 32 -2 11 2 18 10 18 14 0 13 -14
-3 -73 -4 -14 0 -18 14 -15 13 2 19 14 21 46 2 25 8 42 16 42 24 0 33 -22 28
-67 -4 -39 -2 -45 13 -42 9 2 27 20 38 40 l21 36 -29 27 c-28 25 -28 26 -5 15
14 -7 60 -34 103 -62 55 -35 92 -51 124 -55 61 -7 51 8 -35 54 -120 63 -172
95 -200 121 -15 14 -37 29 -49 34 -13 5 -32 23 -43 41 l-19 32 -11 -28z"/>
<path d="M3130 273 c-30 -11 -50 -37 -50 -65 0 -21 -6 -31 -24 -38 -20 -7 -66
-58 -66 -73 0 -3 10 -3 23 0 12 2 4 -5 -18 -16 -29 -14 -51 -18 -81 -14 -32 4
-42 2 -47 -11 -18 -46 -261 27 -262 79 -1 22 -50 105 -62 105 -6 0 -24 -5 -38
-12 -18 -8 -25 -19 -25 -40 0 -23 -4 -28 -17 -25 -96 25 -114 29 -120 23 -15
-15 17 -42 63 -53 27 -6 67 -18 89 -27 22 -8 48 -15 58 -16 11 0 32 -9 48 -21
105 -74 253 -90 380 -40 131 52 158 51 159 -6 0 -18 6 -23 25 -23 26 0 35 23
14 35 -6 4 -8 13 -5 21 3 7 1 16 -4 19 -11 7 -3 54 11 69 10 12 12 60 3 105
-6 31 -20 37 -54 24z m-555 -109 c25 -16 33 -34 16 -34 -6 0 -23 11 -38 25
-31 27 -16 34 22 9z m543 -51 c2 -9 -9 -13 -37 -13 -41 0 -56 14 -23 23 28 8
55 3 60 -10z"/>
<path d="M750 206 c0 -13 7 -26 15 -30 16 -6 20 10 9 38 -9 24 -24 19 -24 -8z"/>
<path d="M700 190 c0 -5 5 -10 10 -10 6 0 10 5 10 10 0 6 -4 10 -10 10 -5 0
-10 -4 -10 -10z"/>
<path d="M840 152 c0 -12 44 -52 58 -52 7 0 12 -4 12 -9 0 -5 15 -18 33 -30
17 -11 40 -26 49 -33 9 -7 20 -10 23 -7 13 14 -11 42 -76 89 -64 47 -99 61
-99 42z"/>
<path d="M1101 104 c-26 -33 -26 -45 -1 -67 20 -17 21 -17 36 19 27 63 3 96
-35 48z"/>
<path d="M1495 120 c-3 -5 12 -20 33 -34 21 -13 47 -32 57 -43 20 -20 92 -42
140 -43 28 0 28 1 10 14 -11 8 -40 20 -65 27 -25 7 -58 25 -75 39 -49 45 -88
60 -100 40z"/>
<path d="M140 61 c0 -55 2 -61 21 -61 15 0 19 5 16 18 -3 9 -8 34 -12 54 -10
62 -25 55 -25 -11z"/>
<path d="M2216 101 c-9 -15 1 -30 28 -41 17 -7 17 -9 4 -9 -21 -1 -24 -16 -6
-27 8 -5 6 -10 -8 -15 -13 -5 -7 -8 23 -8 23 -1 45 4 49 10 5 8 29 9 78 5 144
-14 202 -16 179 -6 -12 5 -31 18 -42 29 -11 11 -27 17 -39 14 -11 -2 -43 7
-72 22 -58 29 -182 46 -194 26z"/>
<path d="M1973 3 c9 -2 23 -2 30 0 6 3 -1 5 -18 5 -16 0 -22 -2 -12 -5z"/>
</g>
</svg>
