<?xml version="1.0" standalone="no"?>
<!DOCTYPE svg PUBLIC "-//W3C//DTD SVG 20010904//EN"
 "http://www.w3.org/TR/2001/REC-SVG-20010904/DTD/svg10.dtd">
<svg version="1.0" xmlns="http://www.w3.org/2000/svg"
 width="344.000000pt" height="256.000000pt" viewBox="0 0 344.000000 256.000000"
 preserveAspectRatio="xMidYMid meet">
<metadata>
Created by potrace 1.16, written by Peter Selinger 2001-2019
</metadata>
<g transform="translate(0.000000,256.000000) scale(0.100000,-0.100000)"
fill="#000000" stroke="none">
<path d="M1278 2553 c6 -2 10 -9 7 -13 -3 -5 -12 -7 -20 -4 -10 4 -18 -3 -25
-21 -15 -39 -13 -57 8 -53 10 2 17 12 16 26 0 12 3 22 8 22 4 0 8 -9 8 -21 0
-33 25 -16 28 19 2 18 8 32 14 32 7 0 8 -14 4 -40 -5 -31 -3 -40 8 -40 17 0
26 21 26 60 0 22 5 30 23 33 12 2 -9 5 -48 5 -38 0 -64 -2 -57 -5z"/>
<path d="M1519 2508 c-1 -29 0 -63 1 -75 1 -17 -4 -23 -18 -23 -22 0 -32 -18
-32 -56 0 -23 20 -31 66 -25 6 1 19 -10 28 -24 19 -29 42 -32 74 -9 13 9 26
14 28 11 9 -9 -34 -46 -61 -53 -31 -8 -41 -22 -26 -37 6 -6 11 -23 11 -37 0
-21 -7 -29 -35 -40 -38 -15 -37 -9 -20 -144 7 -56 12 -69 26 -61 5 4 9 -1 9
-9 0 -9 -6 -16 -13 -16 -15 0 -16 -6 -17 -97 -1 -60 7 -88 33 -115 7 -7 27
-34 45 -59 36 -53 101 -109 127 -109 14 0 16 6 10 38 -9 46 -13 51 -29 29 -7
-9 -16 -17 -20 -17 -11 0 -7 25 6 38 7 7 11 29 10 50 -4 47 13 27 29 -36 11
-41 36 -54 32 -16 -14 109 -15 137 -6 131 10 -7 49 32 70 70 10 17 10 24 1 29
-7 4 -14 2 -16 -4 -2 -7 -10 -12 -18 -12 -10 0 -12 11 -8 48 5 44 4 46 -10 28
-9 -11 -16 -31 -16 -45 0 -13 -3 -22 -6 -18 -3 3 -6 26 -6 51 0 52 -12 67 -28
36 -9 -17 -19 -21 -53 -18 -39 3 -42 1 -45 -24 -3 -21 1 -28 14 -28 11 0 15
-6 11 -20 -3 -10 0 -18 5 -17 22 4 27 -53 8 -91 -10 -20 -21 -45 -24 -56 -6
-16 -9 -14 -31 15 -13 19 -32 45 -41 57 -14 20 -15 25 -4 32 8 5 14 28 15 57
1 26 5 58 9 71 4 13 3 28 -2 35 -7 8 -5 19 8 35 23 28 30 28 30 -3 0 -31 11
-32 37 -1 11 13 27 26 34 29 12 4 11 7 -1 16 -19 14 -40 14 -40 1 0 -5 -7 -10
-15 -10 -22 0 -18 17 5 23 11 3 20 12 20 21 0 18 -15 21 -25 6 -23 -37 -57 41
-49 113 7 64 17 76 41 47 102 -126 245 -276 332 -349 51 -43 141 -93 214 -121
20 -7 37 -19 37 -24 0 -6 4 -5 8 2 12 18 52 -16 104 -87 59 -79 113 -127 188
-165 47 -24 74 -32 98 -28 25 3 32 1 32 -12 0 -9 7 -16 15 -16 8 0 15 -4 15
-9 0 -5 23 -33 50 -62 38 -41 49 -60 45 -76 -3 -12 -1 -25 5 -28 5 -3 10 1 10
9 0 23 12 20 43 -13 42 -45 38 -47 -60 -24 -13 3 -23 1 -23 -5 0 -19 31 -42
56 -42 21 0 24 -5 24 -35 0 -19 4 -35 8 -35 12 0 6 -94 -7 -98 -20 -7 -12 -42
12 -51 12 -5 31 -21 42 -35 11 -14 26 -26 34 -26 10 0 12 -8 8 -30 -5 -23 -2
-32 14 -41 11 -6 27 -8 35 -5 18 7 18 36 0 36 -22 0 -27 15 -16 46 8 19 8 29
0 34 -6 4 -9 47 -8 114 2 92 5 109 20 117 20 11 36 -11 23 -31 -4 -6 -9 -26
-11 -45 -4 -30 -1 -35 17 -35 14 0 19 -5 17 -17 -2 -12 -13 -18 -28 -18 -18 0
-26 -6 -28 -21 -2 -17 2 -21 28 -21 25 0 34 7 47 35 l16 34 15 -28 c8 -16 21
-34 28 -42 8 -7 14 -18 14 -23 0 -5 7 -9 15 -9 20 0 19 19 -4 57 -11 17 -17
34 -14 37 11 10 52 -26 58 -52 3 -15 15 -38 26 -51 17 -21 23 -22 45 -12 14 6
34 11 46 11 16 0 19 5 15 21 -3 12 -1 29 5 38 7 12 6 30 -6 64 -9 26 -16 57
-16 67 0 11 -6 20 -13 20 -15 0 -37 41 -37 69 0 10 -9 26 -19 35 -15 14 -18
26 -14 52 4 27 1 40 -15 57 -36 38 -15 81 56 112 17 8 32 19 32 24 0 6 18 14
40 17 44 7 59 21 76 70 13 38 10 44 -16 37 -11 -3 -20 -16 -22 -31 -2 -22 -11
-29 -48 -39 -25 -7 -50 -20 -57 -29 -6 -9 -18 -14 -25 -12 -14 5 47 67 93 95
23 14 59 61 59 77 0 15 -25 3 -59 -26 l-36 -32 -5 40 c-5 33 -60 135 -60 110
0 -5 -7 -3 -15 4 -17 14 -19 29 -6 49 8 12 12 13 26 1 24 -20 32 -4 40 75 13
132 9 166 -32 284 -12 34 -13 45 -3 51 17 11 4 44 -23 59 -12 7 -35 40 -50 74
-25 54 -26 63 -13 73 20 14 21 54 1 54 -7 0 -18 -7 -23 -17 -8 -14 -11 -13
-17 8 -4 13 -15 32 -23 42 -13 14 -13 20 -4 26 8 5 2 8 -17 9 -25 0 -31 -3
-31 -20 0 -11 -8 -27 -17 -34 -15 -11 -22 -7 -49 23 -23 26 -37 34 -55 31
l-24 -4 26 -13 c14 -7 31 -27 39 -44 7 -18 15 -35 18 -39 2 -5 -3 -8 -12 -8
-9 0 -16 -4 -16 -10 0 -5 -7 -10 -16 -10 -9 0 -14 -7 -12 -17 2 -10 -4 -27
-14 -37 -10 -11 -18 -26 -18 -33 0 -7 -5 -13 -11 -13 -15 0 -39 26 -39 43 0 9
-9 12 -30 9 -32 -5 -39 4 -16 22 7 6 16 25 19 42 5 27 0 37 -38 74 -25 24 -47
41 -50 38 -10 -9 7 -89 21 -103 18 -17 18 -35 0 -35 -25 0 -37 27 -37 83 l-1
55 -33 -1 c-19 -1 -32 -5 -29 -9 3 -4 -4 -8 -15 -8 -11 0 -25 -8 -30 -18 -8
-15 -4 -26 20 -52 33 -36 45 -32 52 15 3 23 4 19 6 -15 2 -48 14 -71 46 -85
18 -8 18 -9 -7 -13 -16 -2 -28 -10 -28 -18 0 -8 -9 -14 -20 -14 -16 0 -20 7
-20 31 0 26 -3 29 -21 24 -19 -6 -21 -4 -16 16 7 27 -26 69 -55 69 -25 0 -23
25 5 53 l22 22 -27 3 c-16 2 -40 2 -55 0 -24 -3 -25 -5 -12 -18 19 -18 19 -21
23 -134 3 -76 7 -92 24 -107 14 -10 17 -20 11 -26 -6 -6 -5 -14 5 -22 14 -11
14 -15 0 -36 -17 -26 -47 -24 -37 2 4 11 2 14 -8 11 -8 -3 -16 -18 -19 -34
l-6 -29 -7 34 c-4 20 -3 39 4 47 6 7 8 22 4 33 -3 11 -1 29 4 40 14 26 4 51
-20 51 -20 0 -40 -31 -23 -37 14 -5 8 -72 -8 -91 -17 -20 -45 -108 -54 -172
-4 -25 -14 -53 -22 -63 -18 -21 -11 -31 16 -23 16 5 24 25 37 84 16 68 19 74
28 54 8 -17 8 -29 0 -41 -6 -9 -14 -31 -18 -49 -5 -27 -4 -32 11 -32 14 0 15
-3 6 -12 -7 -7 -12 -31 -12 -53 0 -41 0 -42 36 -41 19 1 39 8 44 16 14 22 12
34 -3 22 -14 -12 -57 -5 -57 9 0 4 12 9 28 11 21 2 28 9 30 29 3 22 7 25 28
21 27 -5 33 12 7 26 -14 9 -14 11 5 21 12 7 22 21 22 32 0 17 -3 18 -20 9 -17
-9 -20 -8 -20 8 0 11 9 22 21 25 16 4 23 -1 31 -23 11 -32 38 -31 38 0 0 30
15 31 40 5 14 -15 44 -29 76 -36 33 -7 54 -18 54 -26 0 -7 -4 -13 -10 -13 -5
0 -10 -9 -10 -21 0 -16 4 -19 20 -14 23 7 26 -8 6 -43 -11 -21 -14 -22 -25 -8
-14 16 -51 22 -51 9 0 -9 62 -53 73 -53 11 0 87 77 87 88 0 5 -7 12 -15 16 -8
3 -15 13 -15 23 1 17 1 17 11 1 5 -10 18 -18 27 -18 10 0 23 -5 30 -12 8 -8
15 -8 27 2 13 10 15 9 15 -8 0 -24 -25 -48 -35 -32 -11 17 -35 11 -35 -9 0
-11 9 -21 22 -24 20 -6 20 -7 4 -29 -9 -13 -26 -42 -38 -65 -12 -24 -26 -43
-31 -43 -5 0 -8 -15 -6 -32 1 -18 -1 -41 -5 -50 -11 -24 -3 -61 12 -66 11 -3
11 0 1 16 -15 24 -5 52 21 59 23 6 27 33 5 33 -8 0 -15 5 -15 10 0 6 3 10 8
10 11 0 72 105 73 127 0 10 3 13 6 6 2 -7 11 -13 18 -13 18 0 26 25 12 40 -9
10 -9 14 1 17 6 3 9 10 6 16 -3 7 3 2 13 -10 27 -32 66 -38 102 -17 33 19 41
44 16 44 -8 0 -15 9 -15 20 0 19 -66 70 -90 70 -6 0 -8 5 -5 10 3 6 1 10 -5
10 -7 0 -10 6 -7 14 3 7 -1 26 -9 41 -8 15 -11 31 -8 34 4 3 9 0 12 -8 2 -7
15 -23 28 -34 13 -11 24 -27 24 -34 0 -7 8 -13 17 -13 9 0 14 -3 11 -6 -3 -3
4 -15 16 -28 36 -38 54 -63 61 -85 3 -12 11 -21 16 -21 5 0 9 -4 9 -10 0 -5
-13 -10 -29 -10 -36 0 -54 -21 -45 -54 5 -22 3 -26 -14 -26 -12 0 -23 9 -27
19 -4 12 -12 18 -21 14 -20 -7 -18 -25 6 -51 11 -12 20 -28 20 -36 0 -7 7 -17
16 -20 9 -4 14 -9 10 -13 -3 -3 -15 2 -26 12 -26 24 -37 12 -19 -22 7 -16 15
-32 18 -37 2 -5 -7 0 -19 12 -13 12 -27 22 -32 22 -17 0 -7 -32 18 -57 26 -26
26 -45 -1 -23 -13 11 -19 9 -33 -11 -9 -13 -17 -33 -18 -45 -1 -12 -4 -26 -8
-33 -4 -6 -1 -11 8 -11 9 0 16 -4 16 -10 0 -5 -7 -10 -16 -10 -10 0 -13 -6 -9
-19 4 -15 -3 -22 -34 -35 -30 -11 -42 -23 -47 -43 -16 -75 -24 -75 -19 0 3 43
1 77 -4 77 -5 0 -19 -12 -31 -27 -23 -29 -70 -39 -70 -16 0 19 -37 16 -49 -4
-9 -15 -12 -15 -20 -4 -7 10 -13 11 -30 2 -12 -7 -27 -9 -34 -4 -6 4 -20 8
-31 9 -11 0 -22 6 -24 12 -2 7 -8 12 -14 12 -21 0 -120 80 -156 126 -85 108
-104 124 -182 150 -94 32 -101 38 -89 73 5 15 8 37 7 50 -2 19 3 26 24 32 31
8 30 10 7 -80 -5 -19 -6 -37 -3 -40 8 -9 33 29 43 66 12 41 51 94 51 69 0 -36
25 -8 32 35 4 24 10 56 13 70 5 21 3 27 -13 31 -10 3 -27 1 -36 -4 -21 -12
-20 0 4 37 28 43 27 117 -2 145 -19 18 -20 21 -6 33 9 6 18 34 22 60 3 28 16
62 31 81 14 18 25 45 25 59 0 14 5 29 10 32 15 9 12 25 -6 25 -8 0 -13 -4 -10
-9 7 -11 -74 -111 -90 -111 -22 0 -25 -18 -9 -50 8 -16 11 -30 6 -30 -13 0
-32 26 -40 56 -12 45 -31 41 -31 -6 0 -32 4 -43 18 -47 10 -2 23 -13 30 -24
10 -16 9 -22 -8 -39 -11 -11 -20 -27 -20 -36 0 -26 -41 -112 -56 -118 -8 -3
-14 -12 -14 -21 0 -8 -3 -15 -8 -15 -4 0 -16 -19 -26 -42 l-19 -43 -13 30
c-17 39 -17 55 0 74 28 31 18 201 -12 201 -5 0 -9 14 -9 30 0 17 4 30 9 30 4
0 8 -7 8 -15 0 -23 17 -18 61 17 31 25 39 37 35 54 -7 27 3 37 21 22 21 -17
41 6 23 27 -7 8 -10 26 -8 40 6 29 -8 33 -29 8 -14 -17 -14 -17 -9 0 5 15 -2
17 -44 17 -35 0 -48 -4 -45 -12 3 -7 6 -44 9 -83 3 -58 2 -67 -9 -52 -7 9 -10
28 -7 42 2 14 -1 32 -8 40 -7 8 -10 25 -6 40 5 21 3 25 -15 25 -17 0 -20 -5
-16 -21 3 -13 1 -19 -6 -16 -7 2 -11 11 -11 19 1 11 -9 15 -35 15 -21 0 -26
-2 -13 -4 31 -6 22 -28 -11 -28 -14 0 -35 -10 -47 -22 -11 -13 -29 -23 -40
-23 -10 0 -21 -6 -23 -12 -3 -7 -10 2 -17 20 -8 22 -18 32 -29 29 -16 -3 -17
-9 -6 -39 6 -15 1 -18 -35 -18 -36 0 -41 -2 -35 -19 13 -40 -14 -29 -34 15
-15 31 -27 44 -36 40 -11 -4 -15 3 -15 25 0 28 2 31 25 25 14 -4 25 -2 25 4 0
6 -26 10 -60 10 l-60 0 -1 -52z m565 27 c-4 -8 -8 -15 -10 -15 -2 0 -4 7 -4
15 0 8 4 15 10 15 5 0 7 -7 4 -15z m989 -55 c3 -11 2 -20 -3 -20 -4 0 -10 9
-13 20 -3 11 -2 20 3 20 4 0 10 -9 13 -20z m-1147 -28 c-9 -8 -26 10 -26 26 1
15 2 15 15 -2 8 -11 13 -21 11 -24z m1117 4 c4 -10 1 -13 -9 -9 -7 3 -14 9
-14 14 0 14 17 10 23 -5z m-1440 -11 c4 -8 2 -17 -3 -20 -6 -4 -10 3 -10 14 0
25 6 27 13 6z m484 -7 c-3 -8 -6 -5 -6 6 -1 11 2 17 5 13 3 -3 4 -12 1 -19z
m-275 -10 c-7 -7 -12 -8 -12 -2 0 6 3 14 7 17 3 4 9 5 12 2 2 -3 -1 -11 -7
-17z m158 2 c0 -9 -42 -22 -48 -15 -3 3 1 11 7 19 12 14 41 12 41 -4z m1117
-2 c-3 -8 -6 -5 -6 6 -1 11 2 17 5 13 3 -3 4 -12 1 -19z m-66 -24 c4 -13 13
-24 19 -24 5 0 10 -9 10 -20 0 -11 -4 -20 -10 -20 -17 0 -11 -28 8 -34 23 -8
68 -81 64 -105 -2 -11 2 -22 8 -26 5 -3 10 -14 10 -25 0 -10 7 -20 15 -24 8
-3 15 -11 15 -18 0 -7 11 -35 25 -62 14 -27 25 -57 25 -66 0 -10 7 -34 15 -54
9 -21 11 -36 5 -36 -5 0 -10 7 -10 15 0 8 -12 22 -26 31 -18 12 -22 19 -13 25
10 6 10 13 2 31 -7 13 -15 37 -18 55 -3 17 -12 33 -19 36 -7 3 -18 23 -25 46
-6 23 -16 41 -21 41 -5 0 -7 14 -3 30 5 26 3 30 -16 30 -11 0 -21 6 -21 14 0
7 -6 19 -14 25 -27 22 -55 88 -44 99 16 16 2 42 -22 42 -11 0 -20 4 -20 8 0
30 48 18 61 -14z m-441 -82 c-11 -24 -11 -24 -24 -6 -13 17 -20 53 -17 78 1 5
13 -4 27 -19 22 -24 24 -31 14 -53z m565 6 c8 -21 12 -38 8 -38 -8 0 -26 29
-39 63 -3 9 -13 17 -20 17 -15 0 -18 12 -7 24 10 10 40 -24 58 -66z m-1505 38
c0 -13 -7 -29 -15 -36 -18 -15 -20 -14 -29 22 -5 20 -2 28 11 31 31 8 33 7 33
-17z m247 -26 c3 -8 5 -32 4 -52 -3 -44 12 -49 32 -11 l14 26 -1 -34 c0 -19
-5 -38 -11 -42 -6 -5 -4 -7 5 -4 9 3 24 -1 35 -9 24 -18 35 -18 35 0 0 7 7 19
15 26 14 11 15 7 11 -35 -3 -27 -10 -52 -17 -56 -14 -8 -20 -47 -9 -54 4 -2 3
-30 -2 -60 -5 -31 -6 -60 -3 -66 11 -16 -11 -10 -35 11 -15 13 -31 18 -46 14
-17 -4 -24 -2 -24 8 0 8 -8 22 -19 32 -14 13 -17 26 -14 59 8 80 8 102 -2 102
-5 0 -10 -7 -10 -16 -1 -9 -8 -28 -18 -42 -9 -15 -17 -31 -17 -37 0 -16 -11
-12 -32 13 l-20 22 29 5 c27 5 28 7 30 73 1 51 -2 67 -12 67 -25 0 -68 48 -61
67 6 15 8 15 16 3 5 -8 13 -15 18 -15 5 0 16 -8 26 -18 18 -17 42 -14 30 4 -3
6 4 22 17 35 16 17 25 21 27 12 2 -7 6 -20 9 -28z m1081 -26 c12 -10 22 -29
22 -44 -1 -22 -2 -23 -11 -7 -6 10 -24 31 -40 46 -32 31 -42 66 -11 39 9 -8
27 -24 40 -34z m132 22 c0 -14 7 -32 16 -41 9 -9 14 -18 11 -21 -3 -3 -14 7
-23 23 -10 15 -23 31 -28 34 -10 8 1 29 15 29 5 0 9 -11 9 -24z m-291 -45 c13
-41 15 -109 2 -76 -5 11 -20 33 -35 48 -29 32 -33 47 -11 47 8 0 15 8 15 17 0
24 15 5 29 -36z m-1089 30 c0 -18 -42 -81 -53 -81 -7 0 -7 4 1 12 7 7 12 21
12 33 0 21 17 45 32 45 4 0 8 -4 8 -9z m968 -74 c2 -28 -1 -47 -7 -47 -6 0
-11 18 -11 40 0 22 -4 40 -10 40 -5 0 -10 5 -10 11 0 6 8 9 18 7 13 -2 18 -15
20 -51z m-698 29 c0 -16 -18 -31 -27 -22 -8 8 5 36 17 36 5 0 10 -6 10 -14z
m630 -11 c0 -8 -4 -15 -10 -15 -5 0 -10 7 -10 15 0 8 5 15 10 15 6 0 10 -7 10
-15z m-839 -5 c19 -11 26 -60 13 -94 -9 -25 -64 56 -57 83 6 24 15 26 44 11z
m1164 -11 c11 -17 -1 -21 -15 -4 -8 9 -8 15 -2 15 6 0 14 -5 17 -11z m-44 -42
c-13 -13 -15 1 -4 30 7 17 8 17 11 -1 2 -10 -1 -23 -7 -29z m-656 -3 c1 -29
-18 -64 -66 -118 -52 -57 -68 3 -19 68 17 22 30 47 30 57 0 16 23 29 44 25 5
-1 10 -15 11 -32z m617 4 c-9 -9 -12 -7 -12 12 0 19 3 21 12 12 9 -9 9 -15 0
-24z m124 5 c-10 -10 -19 5 -10 18 6 11 8 11 12 0 2 -7 1 -15 -2 -18z m52 -12
c2 -23 0 -32 -9 -29 -6 2 -13 19 -15 37 -3 23 0 31 8 29 7 -3 14 -19 16 -37z
m131 17 c14 -19 5 -23 -18 -9 -7 5 -10 14 -6 21 4 6 8 10 9 8 1 -2 8 -11 15
-20z m-459 -38 c10 -6 12 -12 5 -19 -7 -7 -14 -4 -23 9 -13 21 -6 25 18 10z
m40 0 c0 -5 -4 -10 -10 -10 -5 0 -10 5 -10 10 0 6 5 10 10 10 6 0 10 -4 10
-10z m74 -47 c5 -35 3 -43 -9 -43 -11 0 -15 12 -15 52 0 60 14 54 24 -9z m76
47 c0 -5 -4 -10 -10 -10 -5 0 -10 5 -10 10 0 6 5 10 10 10 6 0 10 -4 10 -10z
m50 0 c0 -5 -7 -10 -15 -10 -8 0 -15 5 -15 10 0 6 7 10 15 10 8 0 15 -4 15
-10z m250 -30 c22 -43 50 -135 50 -164 -1 -11 -13 13 -27 54 -14 41 -34 86
-45 99 -20 26 -24 55 -7 49 6 -2 19 -19 29 -38z m-604 -18 c-12 -11 -18 7 -10
30 l8 23 4 -23 c2 -13 1 -26 -2 -30z m474 28 c0 -5 -4 -10 -10 -10 -5 0 -10 5
-10 10 0 6 5 10 10 10 6 0 10 -4 10 -10z m-578 -120 c-2 -2 -7 2 -12 10 -12
18 -13 94 -2 104 7 7 21 -103 14 -114z m610 83 c10 -9 18 -22 18 -30 0 -8 7
-21 15 -30 9 -8 13 -18 10 -22 -7 -6 -38 30 -61 72 -16 31 -9 35 18 10z m-147
-3 c3 -5 1 -10 -4 -10 -6 0 -11 5 -11 10 0 6 2 10 4 10 3 0 8 -4 11 -10z m-75
-9 c0 -6 -4 -13 -10 -16 -5 -3 -10 1 -10 9 0 9 5 16 10 16 6 0 10 -4 10 -9z
m50 -31 c0 -4 9 -10 20 -13 11 -3 20 -10 20 -16 0 -7 -8 -7 -22 -2 -14 5 -30
4 -40 -3 -24 -14 -30 -4 -16 26 11 23 38 29 38 8z m-804 -39 c-4 -5 0 -12 6
-14 10 -4 9 -8 -2 -16 -8 -6 -18 -7 -23 -2 -9 9 2 41 15 41 5 0 7 -4 4 -9z
m869 -21 c3 -5 1 -10 -4 -10 -6 0 -11 5 -11 10 0 6 2 10 4 10 3 0 8 -4 11 -10z
m40 -20 c3 -5 1 -10 -4 -10 -6 0 -11 5 -11 10 0 6 2 10 4 10 3 0 8 -4 11 -10z
m-967 -92 c-2 -17 1 -22 14 -20 14 2 17 -3 16 -23 -3 -30 -1 -29 -38 -10 -30
15 -31 33 -6 62 15 17 18 16 14 -9z m1129 -34 c-10 -10 -37 16 -37 34 0 13 4
12 22 -5 12 -13 19 -25 15 -29z m-87 -81 c0 -13 -3 -13 -15 -3 -8 7 -15 19
-15 27 0 13 3 13 15 3 8 -7 15 -19 15 -27z m74 -66 c18 -42 26 -76 24 -103
l-3 -39 -39 80 c-43 86 -54 150 -25 134 9 -4 29 -37 43 -72z m-1387 51 c-3 -8
-6 -5 -6 6 -1 11 2 17 5 13 3 -3 4 -12 1 -19z m1343 -134 c0 -7 9 -29 21 -48
11 -19 19 -43 17 -53 -4 -24 -53 59 -62 106 -5 29 -4 32 9 21 8 -7 15 -18 15
-26z m-57 -38 c36 -40 89 -146 73 -146 -8 0 -17 8 -20 17 -5 12 -10 13 -17 6
-8 -8 -7 -18 5 -34 9 -13 16 -33 16 -44 -1 -25 -27 -61 -37 -50 -5 4 -2 10 5
12 13 5 17 43 4 43 -4 0 -14 -6 -21 -12 -10 -11 -18 -7 -40 18 -21 23 -30 46
-35 89 -9 80 4 89 51 37 38 -42 53 -51 53 -33 0 15 -60 101 -71 101 -5 0 -9 5
-9 10 0 17 20 11 43 -14z m-23 -236 c5 0 10 -6 10 -14 0 -8 6 -16 13 -19 10
-3 10 -9 0 -26 -7 -11 -13 -27 -13 -36 0 -14 -29 -35 -49 -35 -6 0 -11 10 -11
23 0 12 -5 29 -10 37 -12 19 -26 5 -33 -37 -6 -31 -5 -33 22 -33 16 0 34 -7
41 -15 11 -13 8 -15 -19 -15 -17 0 -40 5 -51 12 -10 7 -23 9 -27 4 -4 -4 -7
-66 -6 -137 1 -71 -2 -129 -7 -129 -5 0 -8 18 -7 39 0 22 -5 51 -12 65 -10 18
-11 29 -3 38 13 16 5 32 -20 41 -22 8 -24 27 -4 27 27 0 41 36 41 101 0 59 -2
64 -22 67 -13 2 -23 8 -23 13 0 14 32 11 50 -6 29 -26 69 -1 76 47 l7 38 23
-25 c13 -14 28 -25 34 -25z m-250 -30 c0 -5 -7 -10 -15 -10 -8 0 -15 5 -15 10
0 6 7 10 15 10 8 0 15 -4 15 -10z m363 -17 c2 -10 8 -26 12 -35 5 -13 2 -18
-9 -18 -9 0 -16 6 -16 13 0 6 -3 22 -6 35 -7 26 11 31 19 5z m-303 -18 c33
-17 38 -32 15 -41 -14 -6 -54 30 -55 49 0 10 7 9 40 -8z m313 -80 c29 -14 32
-32 5 -31 -24 1 -39 16 -52 50 -6 16 -4 17 10 5 9 -7 25 -18 37 -24z m-111
-27 c-7 -7 -12 -8 -12 -2 0 14 12 26 19 19 2 -3 -1 -11 -7 -17z m57 -30 c7
-35 41 -54 41 -23 0 14 3 15 14 6 7 -6 21 -9 30 -5 24 9 19 -13 -9 -42 -25
-25 -33 -54 -15 -54 6 0 10 -7 10 -16 0 -13 -7 -9 -27 12 -16 16 -32 38 -38
49 -6 10 -21 22 -34 25 -32 7 -39 30 -11 37 18 5 21 11 16 37 -5 22 -3 27 5
19 6 -6 14 -26 18 -45z m139 -85 c1 -21 -2 -46 -5 -57 -4 -16 -7 -15 -22 10
-15 25 -15 31 -2 60 18 41 29 36 29 -13z m-208 19 c-1 -13 -30 -46 -35 -40 -9
9 14 60 25 53 5 -3 10 -9 10 -13z m-110 -182 c0 -5 -2 -10 -4 -10 -3 0 -8 5
-11 10 -3 6 -1 10 4 10 6 0 11 -4 11 -10z"/>
<path d="M1758 2548 c9 -9 15 -9 24 0 9 9 7 12 -12 12 -19 0 -21 -3 -12 -12z"/>
<path d="M2202 2549 c14 -8 15 -15 8 -35 -16 -40 -13 -66 8 -62 11 2 17 13 18
29 1 40 11 59 36 69 21 8 20 9 -10 9 -24 1 -31 -3 -26 -11 6 -10 4 -10 -7 0
-7 6 -20 12 -28 12 -13 -1 -13 -2 1 -11z"/>
<path d="M2775 2553 c16 -3 33 -9 36 -15 5 -7 15 -5 30 6 23 16 22 16 -36 15
-34 -1 -47 -4 -30 -6z"/>
<path d="M3163 2530 c6 -16 15 -30 19 -30 4 0 8 -8 8 -18 0 -10 4 -22 9 -27 9
-10 39 -106 70 -224 9 -36 24 -67 32 -69 7 -3 17 -10 21 -16 4 -6 13 4 22 25
12 29 13 63 5 203 -4 92 -11 171 -14 177 -4 5 -20 9 -37 9 l-31 0 22 -24 c25
-27 28 -46 35 -230 4 -108 3 -126 -8 -110 -7 10 -16 37 -20 59 -10 53 -69 232
-90 273 -10 19 -24 32 -35 32 -17 0 -18 -3 -8 -30z"/>
<path d="M3218 2553 c6 -2 18 -2 25 0 6 3 1 5 -13 5 -14 0 -19 -2 -12 -5z"/>
<path d="M3383 2537 c-15 -33 -17 -83 -3 -92 13 -8 22 33 18 81 l-3 39 -12
-28z"/>
<path d="M2350 2507 c0 -30 10 -40 27 -26 20 18 16 49 -7 49 -14 0 -20 -7 -20
-23z"/>
<path d="M2420 2508 c-26 -41 -40 -70 -40 -84 0 -22 13 -16 35 15 15 23 22 27
32 19 17 -14 20 -10 25 32 2 29 -1 36 -17 38 -12 2 -26 -6 -35 -20z"/>
<path d="M1147 2474 c-11 -11 3 -24 24 -24 12 0 19 5 17 13 -5 14 -31 21 -41
11z"/>
<path d="M2839 2454 c-11 -13 -11 -18 -1 -21 6 -3 12 -19 12 -36 l1 -32 19 24
c25 29 25 43 1 65 -17 15 -19 15 -32 0z"/>
<path d="M630 2430 c0 -16 5 -30 10 -30 6 0 10 14 10 30 0 17 -4 30 -10 30 -5
0 -10 -13 -10 -30z"/>
<path d="M2330 2425 c0 -8 5 -15 10 -15 6 0 10 7 10 15 0 8 -4 15 -10 15 -5 0
-10 -7 -10 -15z"/>
<path d="M2420 2406 c0 -9 5 -16 10 -16 6 0 10 4 10 9 0 6 -4 13 -10 16 -5 3
-10 -1 -10 -9z"/>
<path d="M2394 2392 c-6 -4 -11 -16 -12 -27 -6 -73 -10 -97 -27 -152 -15 -45
-25 -63 -39 -65 -18 -3 -19 -4 -3 -19 12 -12 14 -27 10 -53 -3 -20 -10 -39
-14 -42 -12 -7 -11 -41 1 -49 14 -9 47 73 55 140 4 33 15 76 25 95 12 24 17
51 14 84 -2 27 0 54 6 61 11 13 -2 36 -16 27z"/>
<path d="M617 2361 c-5 -21 10 -54 22 -46 10 5 2 53 -9 60 -4 3 -10 -4 -13
-14z"/>
<path d="M1213 2363 c-21 -8 -15 -29 12 -41 38 -17 65 -102 29 -88 -9 4 -22 2
-28 -2 -6 -5 -23 -12 -38 -16 -35 -8 -70 -73 -47 -87 22 -14 29 -11 29 15 0
30 13 40 73 57 26 7 47 17 47 21 0 4 15 8 33 10 26 2 33 8 35 30 2 20 -2 28
-20 34 -22 7 -22 7 -3 14 23 8 33 -8 34 -53 1 -34 -17 -56 -42 -49 -10 2 -26
-3 -37 -13 -24 -22 -22 -86 4 -113 10 -12 16 -36 16 -66 0 -54 20 -60 31 -10
l7 29 1 -27 c1 -32 21 -39 21 -8 0 22 15 27 26 9 10 -17 24 10 24 49 0 28 -3
32 -26 32 -21 0 -25 4 -21 20 3 13 0 20 -10 20 -28 0 -10 44 26 62 33 16 91
72 91 87 0 14 -74 91 -88 91 -32 0 -91 -24 -94 -38 -2 -12 -10 -9 -34 12 -18
14 -33 26 -35 25 -2 0 -10 -3 -16 -6z m107 -243 c0 -5 -4 -10 -10 -10 -5 0
-10 5 -10 10 0 6 5 10 10 10 6 0 10 -4 10 -10z m30 -40 c0 -5 -7 -10 -16 -10
-8 0 -12 5 -9 10 3 6 10 10 16 10 5 0 9 -4 9 -10z"/>
<path d="M550 2344 c0 -17 22 -14 28 4 2 7 -3 12 -12 12 -9 0 -16 -7 -16 -16z"/>
<path d="M676 2353 c-11 -11 -6 -23 9 -23 8 0 15 4 15 9 0 13 -16 22 -24 14z"/>
<path d="M460 2315 c0 -33 2 -36 15 -25 18 15 16 51 -2 58 -9 2 -13 -8 -13
-33z"/>
<path d="M2149 2345 c-1 -6 -1 -14 0 -18 1 -5 -8 -11 -19 -14 -11 -3 -21 -13
-21 -22 -2 -27 -7 -55 -15 -78 -7 -25 7 -31 23 -10 5 6 15 34 22 62 6 27 17
53 24 57 9 5 9 10 -1 20 -6 6 -13 8 -13 3z"/>
<path d="M3433 2300 c0 -30 2 -43 4 -27 2 15 2 39 0 55 -2 15 -4 2 -4 -28z"/>
<path d="M1164 2316 c-3 -8 2 -26 12 -41 l17 -26 20 22 21 22 -23 18 c-28 23
-40 24 -47 5z"/>
<path d="M500 2313 c0 -5 6 -18 14 -29 17 -22 35 -11 20 13 -12 19 -34 29 -34
16z"/>
<path d="M722 2290 c1 -13 9 -25 16 -28 17 -5 15 23 -4 39 -14 11 -15 10 -12
-11z"/>
<path d="M1096 2271 c-8 -12 3 -41 15 -41 12 0 12 37 0 45 -5 3 -12 1 -15 -4z"/>
<path d="M587 2211 c-11 -21 -12 -32 -4 -40 22 -22 37 -12 37 23 0 46 -15 53
-33 17z"/>
<path d="M1470 2225 c0 -8 6 -15 13 -15 6 0 22 -3 35 -6 18 -5 22 -2 22 15 0
17 -6 21 -35 21 -24 0 -35 -5 -35 -15z"/>
<path d="M634 2215 c-8 -19 2 -45 16 -45 5 0 10 14 10 30 0 31 -16 41 -26 15z"/>
<path d="M1212 2136 c3 -15 1 -29 -3 -32 -5 -3 -7 -17 -4 -32 3 -15 2 -21 -1
-14 -3 6 -10 12 -15 12 -11 0 -11 -129 0 -187 10 -49 5 -51 -48 -24 -20 11
-69 34 -108 52 -40 17 -73 38 -73 45 0 8 -8 14 -19 14 -20 0 -48 27 -37 37 3
3 6 1 6 -5 0 -7 14 -12 32 -12 30 0 31 0 13 20 -10 11 -24 20 -32 20 -7 0 -13
4 -13 10 0 5 -18 15 -40 21 -22 7 -40 17 -40 22 0 10 -50 5 -82 -8 -13 -5 -18
-2 -18 10 0 10 -8 24 -17 31 -29 21 -37 16 -18 -12 15 -24 15 -27 0 -38 -14
-10 -13 -16 10 -61 31 -59 54 -87 66 -79 10 6 1 35 -16 49 -6 6 -15 22 -18 36
-6 25 -3 27 39 39 30 9 48 10 52 3 4 -6 21 -18 37 -27 20 -11 23 -15 8 -11
-12 3 -24 2 -27 -3 -6 -10 57 -72 73 -72 6 0 16 -9 23 -20 7 -11 16 -20 20
-20 4 0 41 -16 81 -35 71 -32 206 -86 208 -82 6 20 5 140 -1 162 -14 46 -20
165 -9 165 19 0 4 45 -15 48 -15 3 -18 -1 -14 -22z"/>
<path d="M1080 2142 c0 -5 3 -12 7 -16 9 -8 14 -42 14 -83 0 -22 5 -33 15 -33
19 0 19 98 0 123 -14 18 -36 23 -36 9z"/>
<path d="M446 2103 c8 -34 4 -30 37 -38 23 -6 27 -4 27 14 0 14 -6 21 -20 21
-11 0 -20 7 -20 15 0 8 -7 15 -15 15 -12 0 -14 -7 -9 -27z"/>
<path d="M1453 2108 c-26 -13 -32 -58 -8 -58 8 0 15 -5 15 -11 0 -5 -4 -8 -9
-4 -5 3 -12 1 -16 -5 -3 -6 0 -13 8 -15 9 -4 12 -16 9 -35 -3 -22 0 -30 11
-30 16 0 27 47 27 123 0 50 -2 52 -37 35z"/>
<path d="M1000 2101 c0 -6 -14 -11 -32 -13 -34 -3 -52 -28 -20 -28 10 0 24
-11 30 -25 6 -14 16 -25 22 -25 5 0 10 -7 10 -15 0 -8 5 -15 10 -15 6 0 10 7
10 15 0 8 4 15 9 15 4 0 4 23 -2 50 -6 31 -15 50 -23 50 -8 0 -14 -4 -14 -9z
m7 -53 c-3 -8 -6 -5 -6 6 -1 11 2 17 5 13 3 -3 4 -12 1 -19z"/>
<path d="M324 2085 c-7 -17 4 -37 17 -30 12 8 12 45 -1 45 -6 0 -13 -7 -16
-15z"/>
<path d="M1267 2063 c-4 -3 -7 -33 -7 -67 0 -70 19 -66 30 7 8 57 -1 83 -23
60z"/>
<path d="M272 2044 c-21 -15 -31 -44 -14 -44 10 0 52 43 52 53 0 11 -14 8 -38
-9z"/>
<path d="M2695 2050 c-4 -6 -3 -14 0 -20 9 -15 35 -12 35 4 0 17 -27 29 -35
16z"/>
<path d="M442 2034 c-13 -9 -22 -23 -20 -32 2 -10 -3 -22 -11 -28 -13 -10 -18
-30 -24 -104 -1 -18 3 -26 18 -28 18 -2 20 2 17 43 -4 50 9 75 39 75 25 0 47
45 33 68 -15 23 -26 24 -52 6z m28 -34 c0 -5 -7 -10 -15 -10 -8 0 -15 5 -15
10 0 6 7 10 15 10 8 0 15 -4 15 -10z"/>
<path d="M603 2035 c-3 -9 -3 -18 0 -22 11 -10 57 7 57 22 0 20 -49 20 -57 0z"/>
<path d="M2560 2000 c0 -5 7 -10 16 -10 8 0 12 5 9 10 -3 6 -10 10 -16 10 -5
0 -9 -4 -9 -10z"/>
<path d="M1696 1963 c-4 -9 -2 -21 3 -26 14 -14 42 10 34 29 -7 19 -29 18 -37
-3z"/>
<path d="M472 1932 c-27 -4 -45 -35 -37 -63 8 -23 31 -20 27 4 -1 8 7 22 19
30 26 19 22 33 -9 29z"/>
<path d="M641 1911 c-23 -23 -27 -46 -10 -56 6 -4 13 2 16 13 6 25 32 37 47
22 18 -18 38 -11 34 13 -4 31 -59 36 -87 8z"/>
<path d="M579 1911 c-8 -3 -28 -17 -45 -29 -28 -23 -28 -24 -10 -38 11 -8 14
-14 8 -14 -7 0 -12 -13 -12 -28 0 -15 -4 -32 -10 -38 -5 -5 -7 -20 -3 -33 5
-20 10 -22 41 -17 37 6 56 23 44 41 -4 5 -7 30 -6 55 1 25 -4 48 -10 52 -7 5
-5 12 8 21 22 16 18 37 -5 28z"/>
<path d="M800 1875 c0 -8 -3 -14 -7 -14 -23 4 -33 -3 -33 -21 0 -24 16 -26 36
-5 20 20 44 19 44 -1 0 -23 25 -44 54 -44 30 0 35 18 9 27 -20 7 -63 51 -63
65 0 4 -9 8 -20 8 -11 0 -20 -7 -20 -15z"/>
<path d="M140 1771 c0 -11 4 -22 9 -25 11 -7 20 14 13 32 -7 19 -22 14 -22 -7z"/>
<path d="M915 1774 c-21 -22 -14 -39 16 -39 19 0 25 6 27 28 4 31 -17 37 -43
11z"/>
<path d="M1057 1766 c-3 -8 2 -16 14 -19 23 -6 37 12 18 24 -19 12 -26 11 -32
-5z"/>
<path d="M1854 1757 c-13 -28 2 -101 16 -76 13 22 16 91 5 95 -5 2 -15 -6 -21
-19z"/>
<path d="M982 1745 c-23 -27 -22 -45 3 -45 15 0 30 40 23 60 -2 6 -14 -1 -26
-15z"/>
<path d="M300 1747 c0 -8 7 -21 16 -28 14 -11 15 -10 12 11 -3 26 -28 41 -28
17z"/>
<path d="M1226 1752 c-9 -15 12 -35 29 -28 14 5 15 9 5 21 -14 17 -26 19 -34
7z"/>
<path d="M2768 1726 c-48 -60 -33 -77 21 -25 19 17 30 37 27 45 -8 21 -18 17
-48 -20z"/>
<path d="M2010 1740 c0 -5 7 -10 15 -10 8 0 15 5 15 10 0 6 -7 10 -15 10 -8 0
-15 -4 -15 -10z"/>
<path d="M377 1733 c-4 -3 -7 -15 -7 -25 0 -26 24 -17 28 10 3 21 -8 29 -21
15z"/>
<path d="M837 1723 c-12 -12 -7 -22 13 -28 11 -3 20 -13 20 -21 0 -8 5 -20 10
-27 6 -7 17 -21 24 -32 12 -16 16 -17 30 -6 20 16 21 41 2 41 -7 0 -25 18 -40
40 -25 38 -44 49 -59 33z"/>
<path d="M1787 1710 c-6 -24 8 -89 22 -103 17 -17 26 2 15 32 -9 21 -8 32 2
46 21 28 17 45 -10 45 -15 0 -26 -7 -29 -20z"/>
<path d="M442 1703 c4 -22 38 -30 38 -10 0 8 -7 18 -16 21 -23 9 -26 8 -22
-11z"/>
<path d="M1145 1710 c-3 -5 6 -12 20 -16 29 -7 41 -1 30 15 -8 14 -42 14 -50
1z"/>
<path d="M1027 1685 c-17 -23 -17 -26 -1 -32 15 -6 53 29 54 50 0 17 -36 4
-53 -18z"/>
<path d="M1985 1700 c3 -5 8 -10 11 -10 2 0 4 5 4 10 0 6 -5 10 -11 10 -5 0
-7 -4 -4 -10z"/>
<path d="M250 1682 c0 -11 41 -45 47 -39 7 8 -21 47 -34 47 -7 0 -13 -3 -13
-8z"/>
<path d="M1250 1665 c12 -15 30 -12 30 6 0 5 -10 9 -21 9 -18 0 -19 -2 -9 -15z"/>
<path d="M1900 1666 c0 -8 10 -22 23 -31 47 -33 130 -122 148 -160 l19 -40
-22 -17 -23 -18 30 4 c17 2 40 5 53 5 25 1 33 41 7 41 -21 0 -19 13 5 28 21
13 27 47 10 57 -5 3 -10 1 -10 -4 0 -6 -9 -20 -20 -31 -22 -22 -26 -11 -10 21
9 15 6 24 -15 45 -14 13 -25 29 -25 34 0 16 -49 43 -66 36 -9 -3 -29 5 -48 19
-37 28 -56 32 -56 11z m170 -106 c0 -5 -2 -10 -4 -10 -3 0 -8 5 -11 10 -3 6
-1 10 4 10 6 0 11 -4 11 -10z"/>
<path d="M2218 1675 c-8 -8 3 -65 13 -65 5 0 9 16 9 35 0 32 -8 43 -22 30z"/>
<path d="M1090 1640 c-14 -17 -34 -30 -47 -30 -13 0 -23 -6 -23 -13 0 -7 -19
-18 -42 -24 -36 -10 -45 -10 -54 2 -6 8 -19 15 -28 15 -9 0 -16 5 -16 11 0 6
-8 8 -17 5 -23 -7 -48 8 -38 24 5 8 1 11 -11 8 -23 -4 -31 -47 -12 -59 7 -5
23 -9 35 -9 30 0 92 -32 93 -47 0 -18 27 -16 34 2 3 9 18 15 39 15 18 0 38 5
45 12 7 7 27 17 44 22 23 8 33 17 33 31 0 11 8 23 17 27 21 9 13 38 -11 38 -9
0 -27 -13 -41 -30z"/>
<path d="M533 1641 c-7 -10 -9 -21 -6 -25 7 -7 63 25 63 36 0 16 -46 7 -57
-11z"/>
<path d="M655 1640 c-8 -13 4 -32 16 -25 12 8 12 35 0 35 -6 0 -13 -4 -16 -10z"/>
<path d="M2726 1641 c-31 -6 -48 -31 -22 -31 8 0 22 -10 30 -22 16 -23 18 -21
30 35 4 15 3 26 -1 26 -5 -1 -21 -4 -37 -8z"/>
<path d="M1200 1625 c-7 -8 -19 -15 -27 -15 -27 0 -9 -35 19 -38 36 -4 75 33
57 54 -15 18 -33 18 -49 -1z"/>
<path d="M3432 1615 c0 -16 2 -22 5 -12 2 9 2 23 0 30 -3 6 -5 -1 -5 -18z"/>
<path d="M1320 1626 c0 -14 51 -57 59 -51 19 11 12 23 -21 39 -33 17 -38 18
-38 12z"/>
<path d="M2110 1606 c0 -21 20 -30 33 -17 9 9 8 14 -3 21 -21 14 -30 12 -30
-4z"/>
<path d="M2187 1584 c-8 -8 1 -24 14 -24 5 0 9 7 9 15 0 15 -12 20 -23 9z"/>
<path d="M2836 1582 c-3 -5 4 -18 15 -28 21 -19 21 -19 18 5 -4 25 -23 39 -33
23z"/>
<path d="M196 1573 c-11 -11 -6 -23 9 -23 8 0 15 4 15 9 0 13 -16 22 -24 14z"/>
<path d="M487 1573 c-12 -12 -7 -22 8 -17 8 4 15 10 15 15 0 11 -14 12 -23 2z"/>
<path d="M633 1565 c-19 -21 -17 -41 2 -25 8 6 19 9 25 5 6 -3 10 3 10 14 0
24 -19 27 -37 6z"/>
<path d="M1285 1563 c-14 -13 -20 -14 -23 -5 -3 10 -7 10 -18 1 -11 -9 -12
-15 -2 -26 8 -10 8 -17 2 -21 -6 -4 -10 -20 -10 -37 1 -22 6 -30 19 -29 20 2
20 3 5 -32 -8 -18 -21 -29 -32 -29 -11 0 -21 -6 -23 -12 -3 -7 2 -13 11 -13 9
0 16 -7 16 -15 0 -8 5 -15 10 -15 13 0 60 97 60 122 0 9 10 33 21 53 22 37 22
37 2 57 -19 19 -21 19 -38 1z"/>
<path d="M1460 1550 c0 -19 3 -21 12 -12 9 9 9 15 0 24 -9 9 -12 7 -12 -12z"/>
<path d="M2677 1556 c-3 -8 -3 -23 0 -34 5 -20 6 -20 36 -3 41 23 49 46 13 39
-14 -3 -26 -1 -26 3 0 14 -17 10 -23 -5z"/>
<path d="M330 1550 c0 -5 5 -10 10 -10 6 0 10 5 10 10 0 6 -4 10 -10 10 -5 0
-10 -4 -10 -10z"/>
<path d="M1137 1530 c-4 -15 0 -20 15 -20 18 0 19 2 7 18 -7 9 -14 18 -15 20
-1 1 -4 -6 -7 -18z"/>
<path d="M1420 1526 c0 -27 15 -42 25 -26 8 13 -3 50 -16 50 -5 0 -9 -11 -9
-24z"/>
<path d="M764 1513 c-10 -16 -17 -35 -16 -45 2 -9 -2 -19 -8 -23 -5 -3 -10 2
-10 12 0 13 -7 10 -30 -15 -29 -32 -39 -62 -21 -62 5 0 14 7 21 15 7 8 18 14
24 13 7 -2 30 12 53 29 33 27 47 32 72 27 17 -4 38 -3 48 0 15 6 15 8 3 16 -8
6 -23 10 -33 10 -10 0 -30 11 -45 25 -33 31 -36 31 -58 -2z"/>
<path d="M2221 1527 c-6 -6 -11 -15 -11 -19 0 -13 27 -9 39 6 15 18 -11 30
-28 13z"/>
<path d="M2293 1515 c0 -15 5 -25 14 -25 10 0 13 6 9 16 -3 9 -6 20 -6 25 0 5
-4 9 -9 9 -5 0 -8 -11 -8 -25z"/>
<path d="M260 1514 c0 -8 5 -12 10 -9 6 4 8 11 5 16 -9 14 -15 11 -15 -7z"/>
<path d="M1357 1512 c-10 -10 -17 -26 -17 -36 0 -15 2 -15 25 0 14 9 25 25 25
35 0 24 -12 24 -33 1z"/>
<path d="M2342 1503 c0 -16 -3 -38 -7 -50 -6 -18 -3 -23 9 -23 13 0 16 11 16
50 0 28 -4 50 -10 50 -5 0 -9 -12 -8 -27z"/>
<path d="M580 1500 c0 -33 45 -126 54 -111 7 10 -28 106 -46 126 -4 5 -8 -1
-8 -15z"/>
<path d="M1582 1508 c3 -7 12 -14 21 -16 12 -2 15 1 11 12 -7 19 -38 22 -32 4z"/>
<path d="M2420 1496 c0 -18 27 -39 40 -31 16 10 12 21 -15 33 -20 9 -25 9 -25
-2z"/>
<path d="M1510 1490 c0 -5 5 -10 10 -10 6 0 10 5 10 10 0 6 -4 10 -10 10 -5 0
-10 -4 -10 -10z"/>
<path d="M220 1471 c0 -19 26 -48 36 -39 7 8 -14 58 -26 58 -5 0 -10 -8 -10
-19z"/>
<path d="M333 1475 c-3 -9 -3 -18 -1 -21 9 -9 38 8 38 22 0 19 -29 18 -37 -1z"/>
<path d="M80 1449 c0 -24 23 -21 28 4 2 10 -3 17 -12 17 -10 0 -16 -9 -16 -21z"/>
<path d="M144 1445 c-4 -14 -3 -29 1 -33 10 -10 35 28 28 44 -8 22 -22 16 -29
-11z"/>
<path d="M2260 1456 c0 -8 5 -18 10 -21 6 -3 10 -15 10 -26 0 -12 5 -17 10
-14 13 8 9 46 -7 63 -15 16 -23 15 -23 -2z"/>
<path d="M2180 1445 c0 -10 7 -15 17 -13 22 4 23 22 1 26 -11 2 -18 -3 -18
-13z"/>
<path d="M831 1436 c-14 -16 -8 -21 37 -31 30 -6 32 -9 30 -43 -3 -32 0 -37
20 -40 23 -4 32 21 12 33 -6 4 -8 15 -5 24 5 18 -10 35 -52 59 -28 15 -28 15
-42 -2z"/>
<path d="M1326 1443 c-3 -3 -6 -15 -6 -25 0 -15 3 -17 19 -8 13 7 22 7 26 0 3
-5 10 -10 16 -10 12 0 12 30 -1 31 -20 3 -25 4 -36 11 -6 4 -14 5 -18 1z"/>
<path d="M1587 1435 c-8 -18 11 -31 25 -17 11 11 3 32 -12 32 -4 0 -10 -7 -13
-15z"/>
<path d="M2388 1425 c-9 -21 -9 -29 4 -42 22 -22 38 -8 38 33 0 41 -25 47 -42
9z"/>
<path d="M398 1419 c-10 -25 3 -68 23 -74 10 -4 19 -15 19 -25 0 -20 17 -36
27 -26 4 3 -7 25 -24 49 -17 23 -33 54 -35 67 -2 19 -5 21 -10 9z"/>
<path d="M1073 1413 c-13 -8 -23 -19 -23 -24 0 -11 41 -11 58 -1 7 5 10 16 6
25 -7 20 -12 20 -41 0z"/>
<path d="M2463 1399 c-2 -24 1 -30 15 -27 25 5 30 58 5 58 -13 0 -19 -9 -20
-31z"/>
<path d="M1462 1398 c6 -18 28 -21 28 -4 0 9 -7 16 -16 16 -9 0 -14 -5 -12
-12z"/>
<path d="M2225 1400 c-7 -12 2 -30 16 -30 12 0 12 27 0 35 -5 3 -12 1 -16 -5z"/>
<path d="M1540 1391 c0 -6 5 -13 10 -16 6 -3 10 1 10 9 0 9 -4 16 -10 16 -5 0
-10 -4 -10 -9z"/>
<path d="M1657 1394 c-3 -4 5 -16 19 -26 28 -22 44 -16 28 10 -12 18 -36 27
-47 16z"/>
<path d="M1426 1383 c-7 -7 13 -33 25 -33 5 0 9 6 9 14 0 15 -24 28 -34 19z"/>
<path d="M2320 1381 c0 -5 6 -11 13 -14 9 -3 9 -7 -2 -20 -12 -15 -11 -17 8
-17 11 0 21 -4 21 -10 0 -5 7 -10 15 -10 22 0 19 14 -11 49 -25 31 -44 40 -44
22z"/>
<path d="M970 1355 c0 -8 9 -15 20 -15 11 0 20 7 20 15 0 8 -9 15 -20 15 -11
0 -20 -7 -20 -15z"/>
<path d="M1130 1355 c0 -8 9 -15 19 -15 26 0 35 16 15 24 -25 10 -34 7 -34 -9z"/>
<path d="M1593 1353 c-3 -10 -7 -20 -9 -23 -1 -3 6 -6 17 -6 13 0 19 7 19 23
0 27 -18 31 -27 6z"/>
<path d="M2170 1355 c0 -8 9 -15 20 -15 11 0 20 7 20 15 0 8 -9 15 -20 15 -11
0 -20 -7 -20 -15z"/>
<path d="M576 1351 c-3 -5 1 -14 8 -20 16 -13 32 2 21 19 -8 12 -22 13 -29 1z"/>
<path d="M173 1335 c-3 -9 -3 -18 0 -21 9 -9 27 6 27 22 0 19 -19 18 -27 -1z"/>
<path d="M1385 1330 c-9 -15 4 -30 20 -23 8 3 15 9 15 13 0 12 -29 20 -35 10z"/>
<path d="M1524 1320 c3 -14 6 -28 6 -32 0 -5 5 -8 10 -8 15 0 12 24 -6 46 -15
18 -15 18 -10 -6z"/>
<path d="M1742 1323 c4 -22 38 -30 38 -10 0 8 -7 18 -16 21 -23 9 -26 8 -22
-11z"/>
<path d="M2262 1329 c2 -7 10 -15 17 -17 8 -3 12 1 9 9 -2 7 -10 15 -17 17 -8
3 -12 -1 -9 -9z"/>
<path d="M2440 1324 c0 -22 37 -25 69 -6 l30 18 -50 0 c-32 0 -49 -4 -49 -12z"/>
<path d="M290 1311 c0 -12 6 -21 16 -21 9 0 14 7 12 17 -5 25 -28 28 -28 4z"/>
<path d="M2126 1321 c-3 -5 1 -14 8 -20 16 -13 32 2 21 19 -8 12 -22 13 -29 1z"/>
<path d="M1065 1309 c-4 -6 -5 -12 -3 -14 7 -7 48 7 48 16 0 13 -37 11 -45 -2z"/>
<path d="M1200 1310 c0 -5 7 -10 15 -10 8 0 15 5 15 10 0 6 -7 10 -15 10 -8 0
-15 -4 -15 -10z"/>
<path d="M1480 1306 c0 -9 5 -16 10 -16 6 0 10 4 10 9 0 6 -4 13 -10 16 -5 3
-10 -1 -10 -9z"/>
<path d="M2230 1305 c0 -8 4 -15 10 -15 5 0 7 7 4 15 -4 8 -8 15 -10 15 -2 0
-4 -7 -4 -15z"/>
<path d="M72 1301 c-8 -5 -12 -17 -10 -27 5 -26 34 -25 31 1 -1 11 4 23 10 27
8 5 7 8 -3 8 -8 0 -21 -4 -28 -9z"/>
<path d="M2180 1286 c0 -27 15 -42 25 -26 8 13 -3 50 -16 50 -5 0 -9 -11 -9
-24z"/>
<path d="M2330 1295 c0 -8 7 -15 15 -15 8 0 15 7 15 15 0 8 -7 15 -15 15 -8 0
-15 -7 -15 -15z"/>
<path d="M975 1281 c-3 -12 -13 -21 -21 -21 -17 0 -17 -5 -4 -31 6 -10 21 -19
33 -19 20 -1 21 -2 5 -14 -10 -7 -18 -16 -18 -19 0 -13 37 -13 63 0 29 14 32
20 18 41 -5 9 -17 11 -34 6 -22 -5 -27 -3 -27 13 0 10 5 24 10 29 8 8 6 15 -4
23 -12 10 -16 8 -21 -8z"/>
<path d="M1270 1288 c1 -19 37 -64 46 -55 12 12 -10 61 -29 65 -9 2 -17 -2
-17 -10z"/>
<path d="M1677 1293 c-2 -5 0 -21 4 -38 8 -34 10 -32 13 8 2 27 -8 46 -17 30z"/>
<path d="M2045 1273 c8 -33 29 -58 42 -50 6 4 10 22 11 42 1 33 -1 35 -29 35
-29 0 -31 -2 -24 -27z"/>
<path d="M2530 1286 c0 -7 12 -26 26 -41 16 -17 24 -35 21 -47 -3 -11 0 -21 8
-24 9 -4 13 -26 13 -73 -1 -43 5 -78 16 -98 16 -33 20 -81 10 -121 -11 -41
-29 -20 -82 100 -25 55 -50 73 -114 82 -26 3 -62 15 -80 26 l-33 21 30 -7 c20
-4 27 -3 20 3 -5 6 -22 13 -37 17 -23 5 -28 3 -28 -13 0 -11 -5 -23 -11 -26
-7 -5 -5 -15 6 -31 8 -13 12 -24 9 -24 -4 0 0 -8 8 -17 8 -10 18 -26 22 -37 5
-14 9 -16 19 -7 10 8 19 5 35 -14 12 -14 30 -25 41 -25 10 0 30 -9 44 -20 14
-11 39 -23 56 -26 29 -6 45 -28 46 -64 2 -53 18 -140 26 -140 19 0 8 -29 -13
-32 -30 -4 -33 -23 -7 -47 22 -20 22 -21 3 -21 -11 0 -30 -7 -42 -16 -13 -9
-30 -13 -38 -10 -9 3 -20 3 -26 0 -12 -7 20 -44 39 -44 7 0 13 -7 13 -15 0 -8
-4 -15 -9 -15 -13 0 -41 -58 -35 -73 2 -7 -12 -21 -33 -32 -20 -11 -42 -26
-50 -33 -11 -11 -13 -11 -13 0 0 7 -5 20 -10 28 -9 13 -11 13 -20 0 -8 -13
-11 -11 -16 7 -4 13 -13 23 -21 23 -13 0 -15 10 -11 50 4 43 3 50 -11 48 -14
-3 -16 -21 -17 -118 0 -73 -5 -124 -13 -139 -7 -12 -11 -31 -8 -41 3 -13 -5
-23 -29 -36 -40 -22 -43 -34 -10 -34 37 0 56 10 56 30 0 15 13 19 83 25 110 9
206 6 231 -7 33 -18 643 -52 674 -38 7 4 36 3 65 -1 38 -5 56 -3 66 7 21 19
-3 44 -43 44 -33 0 -93 46 -116 89 -9 19 -14 21 -21 10 -13 -21 -11 -33 9 -55
57 -65 58 -59 -19 -56 l-70 4 24 31 c44 60 44 97 0 97 -20 0 -23 -4 -18 -20 4
-12 2 -20 -5 -20 -7 0 -9 -8 -5 -21 8 -25 -21 -51 -47 -43 -12 4 -18 0 -18
-10 0 -13 -13 -16 -73 -16 -77 0 -123 19 -113 46 8 21 -11 64 -29 64 -21 0
-19 24 5 45 12 10 19 24 16 31 -3 7 4 16 15 19 14 5 18 12 13 31 -4 14 -2 24
5 24 6 0 11 -5 11 -11 0 -10 24 -39 32 -39 2 0 4 8 5 18 1 9 5 30 9 46 6 26 5
28 -15 21 -13 -4 -28 -2 -36 5 -12 10 -16 8 -23 -10 l-8 -22 -11 25 c-7 14
-21 28 -31 31 -17 6 -21 20 -27 111 -5 74 -11 105 -19 105 -10 0 -12 -25 -9
-102 3 -57 7 -110 11 -118 3 -8 7 -53 9 -100 1 -47 3 -94 4 -105 3 -46 -5 -95
-15 -96 -41 -3 -131 3 -186 13 -73 13 -111 35 -44 24 48 -7 70 10 61 46 -3 13
1 32 9 42 8 11 14 32 14 48 0 27 -1 28 -57 28 -76 0 -93 10 -64 39 11 11 21
28 21 36 0 19 30 19 56 0 10 -8 15 -15 10 -15 -11 0 14 -30 25 -30 14 0 10 44
-6 67 -8 11 -27 24 -42 28 l-28 8 30 7 c17 3 33 2 36 -3 4 -5 11 -7 17 -3 7 4
6 17 -3 41 -8 18 -12 46 -9 62 3 15 -4 61 -15 101 -18 67 -18 72 -3 70 35 -6
55 148 26 204 -24 47 -15 175 14 198 14 12 19 24 15 39 -3 11 -8 21 -11 21 -8
0 -32 -33 -44 -60 l-10 -25 -10 30 c-6 17 -17 37 -24 46 -8 8 -14 21 -14 27 0
7 -7 12 -15 12 -8 0 -15 -6 -15 -14z m-108 -261 c31 -7 61 -16 67 -19 10 -7
41 -63 41 -76 0 -9 -113 48 -125 63 -5 7 -25 19 -42 26 -33 14 -48 39 -15 26
9 -3 43 -12 74 -20z m133 -494 c3 -5 1 -12 -4 -15 -5 -3 -11 1 -15 9 -6 16 9
21 19 6z"/>
<path d="M860 1270 c0 -10 8 -24 19 -29 10 -6 22 -22 25 -36 6 -25 20 -33 31
-16 3 5 1 12 -5 16 -5 3 -10 14 -10 24 0 21 -32 61 -49 61 -6 0 -11 -9 -11
-20z"/>
<path d="M1354 1276 c-4 -10 -2 -22 4 -28 8 -8 13 -7 18 6 4 10 2 22 -4 28 -8
8 -13 7 -18 -6z"/>
<path d="M1422 1263 c5 -25 28 -28 28 -4 0 12 -6 21 -16 21 -9 0 -14 -7 -12
-17z"/>
<path d="M2420 1265 c0 -8 5 -15 11 -15 6 0 9 -7 6 -15 -7 -18 11 -31 24 -18
6 6 6 20 -2 36 -13 29 -39 37 -39 12z"/>
<path d="M1151 1261 c-9 -6 -12 -19 -8 -39 5 -25 2 -32 -12 -37 -30 -9 -33
-42 -5 -49 15 -4 24 -14 24 -26 0 -28 37 -26 46 3 4 12 17 33 30 46 28 28 31
46 8 55 -8 3 -12 11 -9 17 9 13 45 -23 45 -45 0 -8 6 -16 13 -19 9 -3 9 -7 -2
-20 -12 -15 -11 -17 3 -17 9 0 16 -3 16 -7 0 -5 5 -37 10 -73 6 -44 6 -68 -2
-77 -6 -7 -8 -22 -5 -33 3 -13 0 -20 -9 -20 -19 0 -18 -26 1 -34 8 -3 27 0 41
6 24 11 26 16 21 63 -10 91 -35 209 -46 213 -6 2 -11 10 -11 17 0 33 -24 64
-54 70 -71 14 -82 15 -95 6z"/>
<path d="M2295 1260 c3 -5 8 -10 11 -10 2 0 4 5 4 10 0 6 -5 10 -11 10 -5 0
-7 -4 -4 -10z"/>
<path d="M560 1246 c0 -16 28 -42 36 -33 8 7 -14 47 -26 47 -6 0 -10 -6 -10
-14z"/>
<path d="M615 1240 c5 -14 2 -25 -6 -31 -10 -5 -2 -19 29 -53 23 -25 42 -50
42 -56 0 -5 7 -10 15 -10 22 0 9 48 -22 81 -13 14 -27 39 -32 54 -4 16 -13 31
-20 33 -9 3 -11 -2 -6 -18z"/>
<path d="M1080 1251 c0 -11 26 -22 34 -14 12 12 5 23 -14 23 -11 0 -20 -4 -20
-9z"/>
<path d="M2120 1235 c-8 -22 -16 -25 -55 -25 -40 0 -47 -3 -57 -27 -12 -30
-24 -123 -34 -272 -5 -73 -4 -95 7 -102 11 -6 11 -11 1 -21 -7 -7 -12 -39 -12
-80 0 -56 -3 -66 -15 -62 -38 15 -62 -4 -79 -63 -10 -32 -24 -77 -33 -101 -8
-24 -12 -50 -7 -60 4 -9 6 -21 5 -25 0 -4 3 -16 9 -27 7 -12 7 -21 0 -25 -5
-3 -10 1 -10 10 0 24 -35 14 -36 -10 -1 -11 -7 -33 -13 -48 -15 -39 -14 -67 4
-67 9 0 15 9 15 23 0 27 55 81 71 71 8 -5 10 1 7 19 -5 24 -3 26 21 20 14 -3
27 -6 27 -7 1 -1 5 -25 9 -54 6 -48 5 -52 -14 -52 -12 0 -21 6 -21 15 0 8 -9
15 -20 15 -11 0 -20 -4 -20 -10 0 -5 6 -10 14 -10 7 0 16 -9 19 -20 4 -15 14
-20 41 -20 20 0 36 -4 36 -10 0 -6 -47 -10 -121 -10 -110 0 -121 -2 -126 -19
-3 -14 -16 -20 -43 -23 l-39 -3 35 41 c19 24 34 47 34 53 0 10 23 67 41 104 5
9 16 44 23 77 17 71 8 86 -41 68 -39 -15 -63 -5 -63 27 0 14 -4 25 -10 25 -5
0 -10 -9 -10 -20 0 -24 -1 -24 -45 -6 -33 14 -48 36 -25 36 6 0 10 7 10 15 0
8 -4 15 -10 15 -6 0 -10 27 -10 63 l0 62 51 23 c28 12 55 22 59 22 11 0 34 40
27 47 -3 2 -14 0 -24 -5 -10 -5 -30 -12 -45 -16 -26 -6 -27 -6 -13 20 17 33
33 44 66 44 29 0 57 24 40 34 -5 3 -21 2 -35 -3 -21 -9 -25 -7 -28 10 -3 19
-4 19 -27 3 -22 -16 -57 -80 -53 -96 1 -5 -3 -8 -8 -8 -6 0 -8 -11 -4 -25 3
-14 2 -25 -3 -25 -12 0 -23 104 -23 218 0 91 11 112 66 127 16 4 23 10 17 12
-7 3 -14 17 -14 31 -1 15 -3 20 -6 11 -2 -9 -23 -25 -46 -35 l-42 -19 -3 -104
c-2 -57 2 -143 9 -190 7 -47 12 -130 10 -183 l-2 -97 28 -14 c15 -8 48 -20 73
-26 75 -20 100 -32 100 -52 0 -10 -4 -21 -10 -24 -5 -3 -10 1 -10 9 0 18 -16
21 -25 6 -3 -6 -28 -10 -55 -10 -29 0 -50 -5 -53 -12 -3 -7 -6 -4 -7 7 -1 11
-3 27 -4 35 -2 8 -3 23 -4 33 -1 9 -7 17 -13 17 -8 0 -10 -32 -5 -112 9 -151
9 -170 -5 -179 -24 -15 0 -39 39 -39 21 0 42 -4 48 -10 17 -17 85 -16 95 3 9
15 27 17 129 17 124 0 128 1 121 44 -1 4 6 14 16 21 15 11 16 15 3 31 -12 13
-12 18 -2 21 17 6 15 24 -4 38 -15 10 -13 13 15 18 31 6 32 8 26 44 -6 38 -6
38 9 13 8 -14 15 -45 16 -70 0 -26 5 -51 12 -58 9 -9 5 -17 -16 -33 -20 -16
-26 -28 -22 -43 4 -18 1 -22 -22 -21 -44 0 -35 -29 11 -33 28 -2 37 0 37 12 0
12 10 16 38 16 38 0 59 15 77 55 29 66 49 395 24 411 -7 4 -17 0 -24 -9 -7
-10 -20 -14 -33 -10 -16 4 -22 1 -22 -12 0 -9 -7 -24 -16 -33 -15 -14 -15 -17
2 -29 17 -12 16 -13 -4 -13 -15 0 -22 -6 -22 -19 0 -24 -10 -51 -19 -51 -8 0
-28 47 -35 85 -4 17 -1 53 5 80 6 28 13 67 16 88 3 20 9 40 14 43 5 3 9 18 9
33 0 33 -39 65 -66 54 -15 -6 -16 3 -10 88 17 245 18 249 60 249 33 0 34 -2
46 -52 6 -29 21 -75 32 -102 25 -61 19 -118 -17 -188 -29 -56 -30 -58 -10 -58
18 0 64 98 72 156 3 27 1 56 -8 76 -10 24 -10 33 -1 36 20 6 14 20 -10 24 -19
2 -24 11 -29 48 -4 25 -9 51 -10 59 -2 8 6 20 19 26 33 17 35 21 22 44 -15 28
-38 26 -50 -4z m-80 -450 c14 -16 10 -18 -14 -9 -9 3 -16 10 -16 15 0 14 16
11 30 -6z m-64 -183 c6 -4 14 -23 17 -42 4 -19 9 -48 12 -65 l6 -30 -18 30
c-19 33 -50 36 -66 9 -4 -8 -17 -14 -29 -14 -15 0 -18 4 -13 18 4 9 9 27 10
38 7 53 46 80 81 56z m203 -228 c-7 -16 -11 -42 -10 -59 l1 -30 -14 25 c-9 14
-15 33 -16 43 0 11 -7 34 -16 52 -13 29 -14 37 0 68 9 24 22 36 38 39 21 3 23
-1 26 -53 2 -30 -2 -69 -9 -85z m-221 87 c3 -8 -1 -12 -9 -9 -7 2 -15 10 -17
17 -3 8 1 12 9 9 7 -2 15 -10 17 -17z m-18 -41 c19 0 39 -25 28 -35 -3 -3 -23
4 -46 15 -22 11 -46 20 -52 20 -5 0 -10 4 -10 8 0 19 15 21 36 7 13 -8 33 -15
44 -15z m153 -15 c-3 -9 -8 -14 -10 -11 -3 3 -2 9 2 15 9 16 15 13 8 -4z m-80
-10 c4 -8 2 -17 -3 -20 -6 -4 -10 3 -10 14 0 25 6 27 13 6z m-326 -45 c3 -11
12 -20 20 -20 12 0 -13 -61 -54 -129 -5 -8 -11 4 -18 38 -7 32 -6 33 18 27 21
-5 25 -2 31 25 6 32 -9 66 -34 73 -8 2 -5 4 8 5 16 1 26 -6 29 -19z m420 -32
c-2 -13 -4 -5 -4 17 -1 22 1 32 4 23 2 -10 2 -28 0 -40z m-140 -40 c-3 -8 -6
-5 -6 6 -1 11 2 17 5 13 3 -3 4 -12 1 -19z m178 -68 c-3 -5 -10 -10 -16 -10
-5 0 -9 5 -9 10 0 6 7 10 16 10 8 0 12 -4 9 -10z"/>
<path d="M2495 1249 c-4 -6 1 -16 11 -24 24 -17 42 -2 24 20 -15 18 -26 19
-35 4z"/>
<path d="M20 1234 c0 -17 22 -14 28 4 2 7 -3 12 -12 12 -9 0 -16 -7 -16 -16z"/>
<path d="M1600 1240 c0 -5 5 -10 10 -10 6 0 10 5 10 10 0 6 -4 10 -10 10 -5 0
-10 -4 -10 -10z"/>
<path d="M2226 1242 c-9 -15 12 -35 29 -28 14 5 15 9 5 21 -14 17 -26 19 -34
7z"/>
<path d="M140 1230 c0 -5 5 -10 10 -10 6 0 10 5 10 10 0 6 -4 10 -10 10 -5 0
-10 -4 -10 -10z"/>
<path d="M748 1219 c-16 -11 -28 -27 -28 -35 0 -20 14 -17 35 6 10 11 31 20
47 20 18 0 28 5 28 15 0 18 -26 20 -33 3 -4 -10 -6 -10 -6 0 -1 17 -11 15 -43
-9z"/>
<path d="M1475 1226 c-11 -8 -14 -16 -8 -19 6 -4 18 0 28 7 11 8 14 16 8 19
-6 4 -18 0 -28 -7z"/>
<path d="M1350 1215 c0 -8 -7 -15 -15 -15 -8 0 -15 -4 -15 -10 0 -21 37 -9 48
15 10 21 9 25 -3 25 -8 0 -15 -7 -15 -15z"/>
<path d="M1837 1203 c-3 -10 -8 -34 -11 -55 -4 -21 -21 -52 -41 -74 -19 -21
-35 -39 -35 -41 0 -12 34 -53 44 -53 22 0 34 -97 24 -193 -6 -60 -5 -94 1
-100 7 -7 13 -4 18 9 10 27 10 228 -1 295 -6 43 -5 70 7 110 25 86 29 119 12
119 -7 0 -16 -8 -18 -17z"/>
<path d="M357 1190 c-4 -15 0 -20 14 -20 12 0 19 7 19 20 0 11 -6 20 -14 20
-7 0 -16 -9 -19 -20z"/>
<path d="M1670 1195 c-10 -12 -10 -15 3 -15 8 0 17 7 21 15 3 8 2 15 -3 15 -5
0 -14 -7 -21 -15z"/>
<path d="M1736 1194 c-4 -10 -1 -14 6 -12 15 5 23 28 10 28 -5 0 -13 -7 -16
-16z"/>
<path d="M2480 1186 c0 -8 6 -16 13 -19 6 -2 9 -8 5 -12 -4 -4 -23 0 -43 9
-20 10 -41 15 -48 12 -7 -2 -4 -5 6 -5 9 -1 17 -8 17 -17 0 -9 7 -14 18 -12 9
1 23 -1 29 -5 16 -10 53 9 53 26 0 17 -20 37 -37 37 -7 0 -13 -6 -13 -14z"/>
<path d="M2200 1175 c0 -8 5 -15 10 -15 6 0 10 7 10 15 0 8 -4 15 -10 15 -5 0
-10 -7 -10 -15z"/>
<path d="M2280 1174 c0 -8 5 -12 10 -9 6 3 10 10 10 16 0 5 -4 9 -10 9 -5 0
-10 -7 -10 -16z"/>
<path d="M300 1140 c0 -15 -9 -22 -31 -27 -29 -6 -48 -27 -35 -40 3 -3 24 2
46 12 39 17 58 45 45 65 -10 17 -25 11 -25 -10z"/>
<path d="M380 1146 c0 -9 5 -16 10 -16 6 0 10 4 10 9 0 6 -4 13 -10 16 -5 3
-10 -1 -10 -9z"/>
<path d="M334 1116 c-4 -9 -4 -20 0 -23 3 -4 12 -1 18 5 9 9 9 15 0 24 -9 9
-13 7 -18 -6z"/>
<path d="M2778 1118 c-2 -7 -6 -33 -7 -58 -2 -25 -7 -53 -12 -63 -13 -23 -1
-104 18 -123 10 -10 12 -18 5 -27 -24 -30 5 -117 40 -117 25 0 32 20 12 34
-10 8 -14 18 -9 26 4 7 2 16 -6 22 -10 7 -3 8 21 4 45 -8 77 -39 77 -76 0 -18
12 -45 35 -72 19 -24 33 -49 31 -55 -3 -8 -23 -13 -54 -13 -53 0 -63 -12 -26
-31 12 -7 26 -18 30 -25 14 -24 44 -16 56 14 7 16 27 36 47 45 34 17 47 47 19
47 -9 0 -18 7 -21 15 -4 8 -16 15 -28 15 -24 0 -66 58 -66 92 0 23 -20 52 -72
111 -16 16 -28 39 -28 49 0 27 -23 17 -30 -12 -5 -21 -7 -21 -19 -6 -14 16
-10 58 15 184 5 25 3 32 -9 32 -8 0 -17 -6 -19 -12z m52 -248 c0 -5 -4 -10
-10 -10 -5 0 -10 5 -10 10 0 6 5 10 10 10 6 0 10 -4 10 -10z"/>
<path d="M2190 1110 c0 -5 5 -10 10 -10 6 0 10 5 10 10 0 6 -4 10 -10 10 -5 0
-10 -4 -10 -10z"/>
<path d="M1204 1076 c-3 -8 -20 -18 -37 -22 -40 -8 -57 -21 -57 -44 0 -9 -20
-31 -45 -49 -25 -18 -50 -41 -55 -52 -13 -24 -7 -24 28 -1 15 10 36 22 47 28
11 6 31 27 44 47 13 20 32 37 42 37 25 0 74 44 65 58 -10 16 -25 15 -32 -2z"/>
<path d="M2208 1045 c-13 -28 -6 -40 17 -32 17 7 21 57 5 57 -6 0 -16 -11 -22
-25z"/>
<path d="M3350 1047 c0 -32 9 -57 21 -57 15 0 10 57 -6 70 -13 11 -15 8 -15
-13z"/>
<path d="M123 983 c-12 -2 -29 -15 -37 -29 -18 -27 -36 -32 -36 -9 0 8 -7 15
-15 15 -18 0 -19 -14 -5 -41 15 -27 54 -24 74 6 9 14 25 25 36 25 13 0 20 7
20 20 0 11 -3 19 -7 19 -5 -1 -18 -4 -30 -6z"/>
<path d="M3037 935 c-19 -24 -24 -36 -16 -41 15 -9 49 31 49 57 0 24 0 24 -33
-16z"/>
<path d="M1210 952 c0 -5 -11 -14 -24 -20 -26 -12 -63 -59 -53 -68 10 -10 97
60 97 78 0 10 -4 18 -10 18 -5 0 -10 -4 -10 -8z"/>
<path d="M1704 949 c-3 -6 -2 -15 4 -21 7 -7 14 -3 21 11 10 17 9 21 -3 21 -8
0 -18 -5 -22 -11z"/>
<path d="M1416 914 c-3 -8 -1 -24 4 -34 6 -10 10 -31 10 -45 0 -31 16 -65 31
-65 14 0 2 96 -17 133 -17 31 -20 33 -28 11z"/>
<path d="M0 875 c0 -9 7 -18 15 -21 8 -4 15 -11 15 -18 1 -15 36 -56 49 -56 6
0 11 15 11 33 -1 26 -8 36 -36 55 -42 26 -54 28 -54 7z"/>
<path d="M785 874 c-11 -9 -32 -20 -47 -26 -32 -12 -38 -38 -8 -38 11 0 20 4
20 9 0 10 34 23 67 25 33 3 41 16 19 32 -24 17 -26 17 -51 -2z"/>
<path d="M1338 854 c-29 -15 -35 -28 -18 -39 13 -8 71 26 67 39 -5 16 -20 16
-49 0z"/>
<path d="M880 826 c0 -9 7 -16 16 -16 17 0 14 22 -4 28 -7 2 -12 -3 -12 -12z"/>
<path d="M1131 816 c-18 -21 -10 -71 11 -71 25 0 46 -24 31 -33 -18 -11 -4
-52 18 -52 10 0 21 -5 25 -11 3 -6 17 -9 30 -6 14 2 27 0 30 -4 3 -5 -4 -9
-15 -9 -55 0 2 -44 84 -66 27 -7 28 -8 8 -11 -28 -5 -30 -33 -3 -40 32 -9 23
-20 -27 -33 -27 -6 -54 -14 -61 -16 -19 -5 -5 -24 18 -24 10 0 31 -11 46 -25
15 -14 22 -25 16 -25 -15 0 -10 -49 7 -59 10 -6 11 -20 5 -52 -4 -24 -9 -36
-12 -26 -2 12 -13 17 -37 17 -19 0 -36 4 -39 9 -3 4 -19 11 -36 15 -19 3 -29
10 -25 17 11 17 -26 49 -57 49 -15 0 -37 6 -48 13 -14 8 -23 9 -28 2 -6 -10
-56 -35 -68 -35 -3 0 -2 5 1 10 3 6 1 10 -4 10 -6 0 -11 -5 -11 -10 0 -6 -10
-8 -23 -5 -18 5 -28 0 -40 -19 -10 -14 -17 -28 -17 -32 0 -9 65 1 125 18 28 8
55 13 61 11 22 -7 -8 -61 -44 -80 -37 -19 -61 -48 -49 -59 3 -4 18 1 31 10 28
18 56 21 56 6 0 -5 12 -11 28 -11 20 -1 22 -3 7 -6 -10 -3 -29 -11 -40 -19
-12 -8 -46 -18 -75 -24 -30 -6 -58 -16 -62 -24 -4 -7 -16 -24 -27 -37 -20 -24
-20 -24 -35 -4 -16 22 -20 20 -30 -11 -5 -16 -2 -23 12 -26 24 -7 49 7 84 43
22 24 35 29 72 29 27 0 46 5 48 13 6 16 225 24 241 8 6 -6 38 -11 70 -11 55 0
62 3 92 34 30 32 32 40 37 128 6 106 -5 259 -21 302 -6 16 -13 27 -15 25 -2
-2 -5 -31 -7 -64 -2 -33 -6 -64 -10 -70 -10 -15 -21 -209 -12 -221 4 -6 17
-16 28 -22 11 -6 14 -12 8 -12 -7 0 -13 -6 -13 -13 0 -30 -45 -57 -94 -57
l-47 0 20 29 c46 64 69 250 34 269 -15 9 -14 10 3 16 16 5 19 17 21 68 2 35
-1 77 -6 95 -5 18 -6 33 -1 33 7 0 2 109 -5 118 -2 2 -22 -17 -46 -41 -43 -44
-91 -63 -124 -51 -21 8 -19 24 3 24 19 0 62 41 62 59 0 6 -8 11 -18 11 -10 0
-22 4 -28 10 -6 6 -22 3 -46 -10 -39 -20 -60 -12 -38 15 12 14 6 35 -9 35 -5
0 -14 -6 -20 -14z m249 -206 c0 -5 -2 -10 -4 -10 -3 0 -8 5 -11 10 -3 6 -1 10
4 10 6 0 11 -4 11 -10z m-20 -160 c0 -5 -5 -10 -11 -10 -5 0 -7 5 -4 10 3 6 8
10 11 10 2 0 4 -4 4 -10z m-83 -211 c35 -6 63 -14 63 -17 0 -3 -7 -14 -17 -24
-20 -22 -135 -27 -130 -6 1 8 -13 15 -37 18 -22 3 -41 10 -43 17 -8 23 68 29
164 12z"/>
<path d="M1255 821 c-10 -18 17 -23 33 -7 15 15 15 16 -5 16 -12 0 -24 -4 -28
-9z"/>
<path d="M625 807 c-25 -19 -11 -37 23 -28 32 9 44 41 15 41 -11 0 -27 -6 -38
-13z"/>
<path d="M1740 800 c0 -23 38 -28 58 -8 20 20 14 28 -23 28 -28 0 -35 -4 -35
-20z"/>
<path d="M907 738 c-18 -29 -40 -69 -47 -88 -8 -19 -24 -52 -37 -73 -22 -35
-23 -57 -3 -57 5 0 18 16 30 34 11 19 29 37 38 40 9 3 40 21 68 39 28 19 66
37 84 40 l32 7 -7 -38 c-8 -46 -45 -102 -67 -102 -27 0 -48 -11 -48 -26 0 -8
10 -14 24 -14 24 0 96 -36 96 -47 0 -7 -199 4 -227 12 -29 9 -45 -22 -20 -37
10 -5 17 -21 17 -37 0 -31 22 -57 40 -46 6 4 5 16 -5 35 -8 16 -15 32 -15 36
0 4 50 5 111 2 100 -4 111 -3 120 14 11 20 4 58 -11 58 -18 0 -18 34 1 106 20
78 19 108 -5 117 -18 7 -86 -12 -107 -30 -8 -7 -19 -13 -22 -13 -11 0 -8 68 3
75 13 8 13 45 0 45 -6 0 -25 -24 -43 -52z m0 -89 c-6 -10 -13 -15 -15 -9 -6
17 7 42 18 35 6 -4 5 -13 -3 -26z m143 -129 c0 -5 -4 -10 -10 -10 -5 0 -10 5
-10 10 0 6 5 10 10 10 6 0 10 -4 10 -10z"/>
<path d="M248 749 c-10 -17 -18 -41 -18 -54 0 -18 -15 -35 -53 -64 -30 -22
-61 -47 -70 -55 -14 -15 -17 -15 -24 -1 -5 9 -26 17 -46 18 -29 3 -37 0 -37
-14 0 -22 26 -44 35 -29 14 23 27 9 22 -25 -8 -46 11 -46 48 1 16 20 46 47 66
60 55 34 89 75 89 105 0 15 7 32 15 39 18 15 20 50 3 50 -7 0 -21 -14 -30 -31z"/>
<path d="M2698 733 c-1 -10 -2 -27 -3 -38 0 -11 -7 -33 -15 -48 -12 -24 -12
-30 3 -45 18 -18 20 -14 18 38 0 23 0 23 9 -4 13 -42 22 -268 10 -261 -6 4
-10 -5 -10 -19 0 -14 4 -26 9 -26 5 0 11 -12 13 -28 2 -16 9 -27 18 -27 26 0
11 295 -21 423 -14 52 -27 68 -31 35z"/>
<path d="M1910 710 c0 -5 5 -10 10 -10 6 0 10 5 10 10 0 6 -4 10 -10 10 -5 0
-10 -4 -10 -10z"/>
<path d="M0 679 c0 -22 27 -32 51 -18 29 15 18 34 -19 34 -23 0 -32 -5 -32
-16z"/>
<path d="M2292 642 c-14 -31 -16 -102 -2 -102 6 0 10 13 10 29 0 29 1 30 38
24 20 -3 44 -12 53 -19 20 -18 29 -18 29 0 0 16 -48 59 -89 80 -25 13 -27 12
-39 -12z"/>
<path d="M3166 647 c-43 -13 -67 -45 -25 -34 13 4 39 7 57 7 26 0 33 4 30 17
-4 22 -15 24 -62 10z"/>
<path d="M417 633 c-4 -3 -7 -14 -7 -24 0 -9 -7 -19 -15 -23 -8 -3 -15 -12
-15 -21 0 -8 -7 -15 -15 -15 -8 0 -15 9 -15 21 0 34 -20 11 -26 -32 -7 -41
-13 -46 -32 -27 -9 9 -12 8 -12 -4 0 -9 14 -21 31 -27 17 -6 28 -15 25 -20
-10 -15 17 -28 44 -21 17 4 21 8 12 14 -9 6 -8 14 6 34 11 15 17 33 15 40 -7
18 6 62 17 62 6 0 10 -11 10 -25 0 -14 5 -25 10 -25 6 0 10 7 10 16 0 12 6 15
26 10 21 -6 25 -4 22 11 -2 10 -12 19 -23 21 -11 2 -29 13 -41 23 -11 11 -24
16 -27 12z"/>
<path d="M2400 633 c0 -4 9 -14 20 -21 11 -7 20 -21 20 -32 0 -24 22 -26 40
-4 11 12 11 15 0 12 -7 -2 -16 8 -20 22 -4 18 -14 26 -33 28 -15 2 -27 0 -27
-5z"/>
<path d="M3240 618 c0 -15 80 -50 101 -46 8 2 15 -7 17 -19 4 -27 10 -28 37
-7 20 15 20 16 -9 39 -44 35 -146 58 -146 33z"/>
<path d="M1773 576 c-34 -29 -25 -43 17 -26 18 8 30 20 30 31 0 25 -13 24 -47
-5z"/>
<path d="M3043 578 c-20 -21 -28 -57 -25 -100 3 -29 22 -21 22 8 0 15 7 32 16
38 10 8 14 23 12 45 l-3 33 -22 -24z"/>
<path d="M233 578 c-6 -7 -13 -26 -17 -43 -3 -16 -9 -41 -12 -55 -3 -14 -12
-32 -19 -41 -11 -11 -12 -18 -3 -27 9 -9 8 -16 -4 -29 -8 -10 -18 -30 -21 -44
-4 -14 -18 -37 -31 -51 l-25 -24 32 -37 c73 -86 80 -97 60 -97 -10 0 -27 7
-37 15 -11 8 -27 15 -36 15 -9 0 -31 16 -49 36 -18 19 -38 33 -44 31 -18 -6
-21 -37 -3 -37 21 0 58 -51 53 -72 -9 -33 26 -44 176 -54 57 -5 91 -2 127 10
33 11 85 16 160 16 107 0 111 1 119 23 5 13 27 38 48 55 33 27 35 31 16 32
-36 0 -52 -11 -69 -46 -13 -28 -22 -34 -47 -34 -28 0 -29 1 -12 13 28 21 9 37
-46 37 -58 0 -91 -14 -83 -35 11 -28 -11 -15 -40 24 -18 25 -34 37 -43 34 -12
-5 -14 -1 -8 18 4 13 14 31 21 40 8 8 14 26 14 40 0 19 -8 26 -35 35 -33 10
-37 9 -55 -14 l-20 -25 0 25 c0 29 15 37 127 68 59 16 95 20 126 16 33 -5 47
-3 56 8 9 10 22 13 43 9 25 -5 29 -3 27 12 -2 9 -19 23 -38 29 -44 14 -57 46
-30 74 19 21 26 52 11 52 -19 0 -52 -48 -52 -75 0 -23 -3 -26 -12 -17 -19 19
-28 14 -28 -13 0 -14 5 -25 10 -25 6 0 10 -4 10 -10 0 -20 -27 -9 -48 20 -18
24 -30 30 -58 30 -28 0 -35 -4 -32 -17 2 -13 15 -19 46 -21 23 -2 42 -7 42
-11 0 -11 -112 -41 -151 -41 -50 0 -77 -37 -85 -116 -4 -35 -11 -67 -15 -70
-5 -3 -9 -1 -9 4 0 5 -20 15 -45 22 -50 14 -53 19 -26 44 16 15 22 15 39 5 16
-10 23 -10 35 0 13 10 13 18 5 43 -11 30 -5 189 8 236 7 24 -7 30 -23 10z
m367 -149 c0 -5 -4 -9 -10 -9 -5 0 -10 7 -10 16 0 8 5 12 10 9 6 -3 10 -10 10
-16z m-300 -186 c-11 -17 -11 -17 -6 0 3 10 6 24 7 30 0 9 2 9 5 0 3 -7 0 -20
-6 -30z m41 -16 c-10 -9 -11 -8 -5 6 3 10 9 15 12 12 3 -3 0 -11 -7 -18z m26
-112 c22 -12 21 -13 -23 -19 -78 -10 -136 -8 -132 7 3 6 19 13 36 15 18 2 32
7 32 11 0 10 58 1 87 -14z"/>
<path d="M1255 560 c-3 -5 -1 -10 4 -10 6 0 11 5 11 10 0 6 -2 10 -4 10 -3 0
-8 -4 -11 -10z"/>
<path d="M2691 524 c0 -11 3 -14 6 -6 3 7 2 16 -1 19 -3 4 -6 -2 -5 -13z"/>
<path d="M0 504 c0 -31 23 -28 28 4 2 15 -2 22 -12 22 -11 0 -16 -9 -16 -26z"/>
<path d="M1205 500 c-3 -5 -15 -10 -26 -10 -11 0 -19 -7 -19 -16 0 -11 8 -14
33 -12 24 2 33 8 35 26 3 22 -12 30 -23 12z"/>
<path d="M3027 433 c-3 -5 -4 -23 -2 -41 1 -18 -2 -35 -7 -38 -16 -10 -7 -25
14 -22 14 2 24 13 29 31 11 41 -18 98 -34 70z"/>
<path d="M73 412 c-27 -3 -33 -8 -33 -26 0 -21 4 -23 33 -20 17 1 35 3 40 3 4
1 7 10 7 20 0 24 -6 27 -47 23z"/>
<path d="M1 380 c0 -33 1 -34 11 -12 8 17 8 26 0 34 -9 9 -12 4 -11 -22z"/>
<path d="M525 359 c-63 -14 -95 -30 -95 -46 0 -10 6 -13 18 -10 9 3 32 10 50
15 27 9 32 8 33 -6 4 -65 9 -96 19 -106 21 -21 48 43 46 114 -1 50 -7 54 -71
39z m45 -39 c0 -5 -5 -10 -11 -10 -5 0 -7 5 -4 10 3 6 8 10 11 10 2 0 4 -4 4
-10z"/>
<path d="M2667 312 c-10 -10 -17 -25 -17 -33 0 -15 70 -69 89 -69 15 0 14 40
-1 40 -7 0 -22 7 -32 15 -15 12 -17 17 -7 29 12 15 7 36 -8 36 -4 0 -15 -8
-24 -18z"/>
<path d="M2956 267 c-27 -27 -34 -61 -16 -72 6 -3 14 5 19 18 5 13 17 32 27
41 12 12 14 20 6 28 -7 7 -18 3 -36 -15z"/>
<path d="M620 235 c0 -8 9 -19 19 -25 27 -14 40 9 16 27 -24 17 -35 17 -35 -2z"/>
<path d="M2650 230 c0 -5 5 -10 10 -10 6 0 10 5 10 10 0 6 -4 10 -10 10 -5 0
-10 -4 -10 -10z"/>
<path d="M840 176 c0 -13 5 -28 10 -31 8 -5 14 20 9 40 -5 19 -19 12 -19 -9z"/>
<path d="M770 161 c0 -20 25 -35 41 -25 13 8 -9 44 -26 44 -8 0 -15 -9 -15
-19z"/>
<path d="M1510 134 c-43 -15 -44 -17 -10 -25 40 -9 73 -3 67 14 -4 13 -34 19
-57 11z"/>
<path d="M1420 82 c0 -6 -38 -12 -89 -14 -49 -1 -93 -7 -97 -11 -24 -24 88
-37 140 -17 20 7 35 5 61 -7 32 -15 54 -16 218 -6 300 18 572 17 637 -2 44
-13 118 -18 368 -21 193 -3 312 -1 312 5 0 5 -16 8 -35 6 -20 -2 -51 3 -70 11
-27 11 -82 14 -247 12 -138 -1 -220 2 -233 9 -11 6 -65 19 -120 28 -82 14
-123 16 -225 9 -147 -11 -397 -10 -527 1 -61 4 -93 4 -93 -3z"/>
<path d="M978 39 c-39 -23 -19 -35 62 -37 52 -2 80 1 80 8 0 6 -4 8 -10 5 -5
-3 -20 1 -32 9 -32 20 -80 27 -100 15z"/>
<path d="M2990 26 c0 -10 17 -17 54 -21 79 -10 100 -3 52 18 -48 21 -106 23
-106 3z"/>
<path d="M518 3 c7 -3 16 -2 19 1 4 3 -2 6 -13 5 -11 0 -14 -3 -6 -6z"/>
<path d="M593 3 c26 -2 67 -2 90 0 23 2 2 3 -48 3 -49 0 -68 -1 -42 -3z"/>
<path d="M1178 3 c7 -3 16 -2 19 1 4 3 -2 6 -13 5 -11 0 -14 -3 -6 -6z"/>
<path d="M1383 3 c9 -2 23 -2 30 0 6 3 -1 5 -18 5 -16 0 -22 -2 -12 -5z"/>
</g>
</svg>
