<?xml version="1.0" standalone="no"?>
<!DOCTYPE svg PUBLIC "-//W3C//DTD SVG 20010904//EN"
 "http://www.w3.org/TR/2001/REC-SVG-20010904/DTD/svg10.dtd">
<svg version="1.0" xmlns="http://www.w3.org/2000/svg"
 width="256.000000pt" height="344.000000pt" viewBox="0 0 256.000000 344.000000"
 preserveAspectRatio="xMidYMid meet">
<metadata>
Created by potrace 1.16, written by Peter Selinger 2001-2019
</metadata>
<g transform="translate(0.000000,344.000000) scale(0.100000,-0.100000)"
fill="#000000" stroke="none">
<path d="M363 2748 c7 -791 34 -1767 53 -1903 6 -45 14 -173 19 -325 14 -414
19 -520 25 -520 15 0 20 33 20 131 l0 100 48 -39 c79 -66 177 -101 420 -151
80 -16 334 -14 412 4 215 49 254 59 290 76 40 19 70 17 70 -6 0 -13 112 -55
146 -55 8 0 27 -9 41 -20 14 -11 41 -20 59 -20 18 0 36 -4 39 -10 3 -5 14 -10
23 -10 13 0 14 2 4 9 -8 4 -19 19 -26 32 -8 18 -22 25 -51 29 l-40 5 3 150 c2
83 8 168 13 190 5 22 9 63 9 92 0 44 -4 55 -27 72 -30 24 -23 42 8 22 26 -15
28 -13 36 33 4 26 1 42 -11 55 -16 17 -16 20 -1 35 34 34 55 39 82 19 33 -24
92 -59 123 -75 23 -11 21 -13 -35 -18 -52 -4 -64 -2 -88 18 -32 25 -43 27 -53
11 -3 -6 9 -26 27 -45 29 -30 37 -33 69 -28 20 3 79 7 131 8 81 1 94 3 97 19
3 14 -4 17 -38 17 -31 0 -47 6 -65 26 -13 14 -41 35 -62 46 -57 30 -75 49 -69
73 3 11 6 94 7 184 1 147 2 162 17 156 10 -4 46 -13 82 -21 36 -8 83 -20 105
-26 22 -6 95 -13 163 -15 l122 -5 0 26 0 26 -117 0 c-123 0 -240 17 -314 46
-78 31 -72 55 19 72 140 26 196 32 301 32 104 0 111 1 111 20 0 19 -7 20 -122
20 -200 -1 -352 -29 -379 -72 -5 -7 -9 -61 -9 -120 0 -121 -4 -138 -33 -138
-20 0 -20 4 -14 129 4 71 4 136 1 145 -16 42 -24 4 -24 -117 0 -74 -2 -136 -5
-139 -3 -3 -25 -2 -50 2 -50 8 -71 0 -62 -24 4 -10 18 -16 40 -16 44 0 68 -26
65 -71 -1 -19 1 -48 5 -64 6 -25 4 -32 -15 -40 -13 -6 -32 -24 -43 -42 -11
-18 -24 -32 -30 -32 -29 -1 -33 15 -26 102 4 48 4 92 1 97 -3 4 -19 12 -35 16
-17 4 -36 11 -42 17 -19 14 -16 30 4 23 10 -4 26 3 45 21 28 27 28 28 28 149
0 71 4 125 10 129 6 3 10 19 10 36 0 35 6 36 37 8 20 -20 23 -20 29 -5 6 15 7
15 19 -1 13 -17 14 -17 20 0 9 22 80 24 89 2 4 -12 11 -13 33 -4 15 6 51 11
79 11 l52 1 7 216 c4 119 5 351 1 516 -4 165 -9 437 -12 605 -3 168 -8 360
-10 428 -3 76 -1 122 5 122 5 0 12 -52 15 -117 13 -275 20 -329 39 -295 3 4 8
102 12 218 8 258 13 248 -111 242 -75 -3 -84 -6 -108 -30 -49 -54 -56 -42 -56
97 0 106 -2 125 -15 125 -14 0 -15 -17 -11 -130 3 -71 2 -130 -2 -130 -8 0 -8
-2 -12 153 -3 92 -6 107 -20 107 -12 0 -16 -7 -14 -27 2 -16 5 -76 7 -135 l3
-107 -35 -15 c-49 -20 -155 -28 -140 -10 10 12 16 260 7 270 -2 2 -21 1 -41
-3 -43 -7 -48 -31 -10 -48 33 -14 46 -112 18 -135 -8 -7 -15 -26 -15 -42 0
-16 -8 -43 -17 -61 -14 -27 -16 -63 -15 -239 1 -114 6 -226 12 -250 12 -55 13
-541 1 -533 -16 9 -21 -10 -27 -92 -3 -48 0 -103 8 -143 10 -44 11 -78 5 -105
-20 -89 -14 -184 11 -193 9 -3 11 10 6 51 -4 32 -2 62 4 73 10 17 12 17 22
-11 7 -19 9 -75 6 -162 -7 -152 0 -168 59 -157 27 5 35 2 45 -15 15 -29 5 -41
-35 -41 -22 0 -41 8 -54 21 -10 11 -21 17 -23 12 -3 -4 -2 -84 2 -178 3 -93 3
-177 0 -185 -4 -8 -5 -84 -2 -167 l4 -153 37 -5 c59 -9 85 -27 88 -59 1 -16
10 -37 19 -47 23 -25 14 -124 -13 -144 -14 -11 -16 -16 -5 -26 13 -14 16 -223
4 -266 -7 -21 -9 -22 -34 -9 -14 8 -42 19 -63 26 -43 14 -42 29 5 44 36 11 41
25 39 106 -1 14 -1 51 -2 82 -1 49 -4 58 -25 67 -35 16 -42 6 -42 -61 0 -77
-25 -119 -90 -150 -25 -12 -56 -30 -69 -40 -20 -15 -21 -18 -5 -18 33 0 0 -17
-61 -30 -33 -7 -67 -16 -75 -20 -8 -4 -32 -10 -52 -14 -33 -6 -38 -4 -38 12 0
10 -9 27 -20 37 -11 10 -20 13 -20 7 0 -7 -9 -12 -20 -12 -19 0 -20 7 -21 153
-1 160 -4 319 -13 812 -3 165 -8 471 -11 680 -3 209 -7 461 -10 560 -2 99 -8
386 -11 638 -6 391 -9 457 -22 457 -12 0 -14 -26 -12 -162 2 -90 2 -167 1
-173 -1 -6 -60 -11 -148 -13 -81 -1 -149 -4 -151 -7 -3 -2 1 -12 9 -21 11 -14
32 -15 151 -10 l137 5 5 -32 c3 -18 10 -385 16 -817 5 -432 13 -894 17 -1028
l6 -242 -40 0 c-26 0 -47 -7 -61 -20 -12 -12 -28 -20 -35 -19 -50 6 -50 -27 0
-48 25 -10 53 -13 84 -10 l46 6 7 -46 c3 -25 6 -98 6 -163 0 -115 0 -117 -25
-128 -32 -15 -39 -31 -25 -66 7 -19 15 -26 26 -22 21 8 22 0 28 -166 3 -82 8
-153 12 -159 4 -7 21 -9 42 -5 28 4 33 3 23 -7 -16 -16 -329 -16 -421 0 -164
27 -335 95 -405 160 -35 33 -39 43 -43 94 -4 52 -2 59 27 90 30 33 31 33 28 9
-2 -23 1 -25 38 -24 22 1 90 13 150 28 61 15 148 36 195 47 47 11 114 29 149
39 35 11 74 20 87 20 33 0 31 25 -7 68 -40 45 -119 208 -119 245 0 23 7 31 38
44 84 35 127 56 134 67 4 6 5 185 1 399 -5 290 -3 387 5 387 7 0 12 9 12 20 0
22 -24 27 -37 8 -4 -7 -8 -188 -8 -403 l0 -389 -68 -27 c-84 -32 -98 -45 -104
-101 -5 -39 2 -59 51 -158 31 -63 56 -117 56 -120 0 -6 -52 -23 -130 -40 -30
-7 -84 -21 -119 -31 -35 -11 -72 -19 -83 -19 -10 0 -60 -12 -110 -26 -96 -28
-112 -25 -106 17 2 16 10 24 23 25 11 1 35 9 53 18 18 9 60 25 93 36 49 15 65
16 80 7 15 -10 25 -9 47 3 39 23 41 48 2 52 l-31 3 -5 200 c-2 110 -9 297 -14
415 -14 298 -19 497 -26 1070 -3 272 -9 550 -12 618 l-7 122 41 0 c28 0 44 5
48 15 7 19 -30 35 -82 35 -48 0 -185 34 -210 51 -67 48 -81 67 -88 117 l-6 50
41 26 c39 25 57 66 29 66 -20 -1 -83 -62 -106 -103 -27 -47 -28 -81 -3 -104
17 -17 19 -45 25 -373 3 -195 11 -515 16 -710 18 -644 21 -929 10 -951 -6 -11
-14 -66 -17 -123 l-6 -102 32 -33 c26 -27 32 -39 29 -69 -3 -32 -7 -37 -30
-40 -22 -3 -27 1 -32 25 -10 52 -16 186 -27 528 -5 187 -14 481 -19 654 -5
173 -10 563 -10 868 -2 494 -3 553 -17 553 -14 0 -15 -69 -10 -692z m165 378
c20 -10 73 -29 117 -40 l80 -22 6 -84 c4 -47 10 -353 13 -680 4 -327 13 -732
22 -900 8 -168 16 -407 19 -531 l4 -227 -27 -10 c-15 -6 -58 -23 -97 -38 -38
-15 -77 -33 -86 -40 -8 -8 -18 -14 -22 -14 -11 0 -17 59 -22 214 -3 82 -9 177
-14 210 -6 34 -15 311 -21 616 -6 305 -15 668 -20 805 -13 335 -12 806 1 780
6 -11 27 -29 47 -39z m1662 -57 c0 -110 0 -110 -22 -103 -24 8 -41 10 -116 12
-35 2 -50 9 -87 43 -24 22 -49 38 -55 34 -18 -11 -11 31 10 50 17 16 210 72
253 74 15 1 17 -11 17 -110z m-317 -8 c-4 -31 -1 -43 16 -60 11 -11 21 -25 21
-29 0 -5 -17 -23 -39 -40 -24 -19 -41 -42 -44 -61 -7 -34 -21 -40 -31 -15 -4
10 2 23 16 33 33 27 15 45 -38 37 l-43 -6 0 75 c0 41 5 77 10 81 10 6 87 20
121 23 13 1 15 -6 11 -38z m80 -179 c-16 -26 -30 -24 -37 4 -5 20 -3 30 8 36
9 5 17 21 17 36 1 21 4 17 12 -17 7 -29 7 -49 0 -59z m53 23 c3 -19 10 -35 15
-35 5 0 9 -11 9 -25 0 -14 5 -25 12 -25 22 0 78 63 78 88 0 20 4 23 23 18 12
-3 33 -6 46 -6 l23 0 -7 -498 c-6 -360 -5 -504 4 -519 9 -18 8 -20 -7 -17 -9
3 -62 8 -116 12 l-100 7 -4 240 c-2 132 -8 244 -13 249 -5 6 -9 -94 -9 -248 0
-169 -3 -255 -10 -251 -6 4 -10 170 -9 468 1 254 5 449 9 432 4 -16 8 -81 9
-142 0 -62 5 -113 10 -113 12 0 20 262 8 277 -6 9 -3 22 8 39 13 20 14 32 6
55 -6 16 -6 29 -1 29 5 0 12 -16 16 -35z m82 11 c3 -16 -12 -35 -28 -36 -3 0
-5 14 -6 30 -1 23 3 30 15 28 9 -2 17 -12 19 -22z m-178 -550 l0 -466 -74 0
-75 0 -4 378 c-3 207 -9 404 -14 438 -9 65 -6 154 6 154 4 0 15 -16 24 -35 11
-22 24 -35 36 -35 20 0 61 48 61 70 0 7 9 1 20 -13 19 -24 20 -40 20 -491z
m-183 -418 c-2 -18 -4 -6 -4 27 0 33 2 48 4 33 2 -15 2 -42 0 -60z m17 -122
c-3 -21 -9 -35 -11 -32 -3 3 -2 21 1 42 4 20 10 34 12 31 3 -3 2 -21 -2 -41z
m169 -26 c-3 -30 -10 -63 -15 -72 -9 -19 -49 -23 -104 -12 -28 5 -29 7 -26 62
2 31 4 62 6 67 2 6 35 10 75 10 l71 0 -7 -55z m170 50 l47 0 0 -66 c0 -36 5
-75 12 -87 21 -40 8 -205 -19 -242 -15 -19 -15 -19 -9 6 4 18 0 34 -14 51 -17
22 -39 91 -40 124 0 7 9 14 20 17 11 3 20 12 20 20 0 22 -27 40 -50 34 -11 -3
-20 -1 -20 3 0 5 -7 15 -15 24 -12 12 -22 13 -41 6 -35 -14 -36 -13 -28 13 4
12 7 31 6 42 -1 11 0 31 3 44 5 21 10 23 43 17 20 -3 58 -6 85 -6z m137 -195
c0 -190 -1 -206 -19 -222 -11 -9 -17 -23 -14 -31 4 -10 1 -13 -8 -10 -15 5
-15 24 -3 166 3 45 11 85 15 88 15 9 10 54 -6 54 -16 0 -21 18 -28 93 -4 42
-2 50 17 57 47 19 46 22 46 -195z m-220 26 c0 -6 -4 -13 -10 -16 -5 -3 -10
-17 -10 -31 0 -21 -4 -24 -20 -19 -14 5 -20 2 -20 -10 0 -8 -17 -38 -37 -66
l-38 -50 -5 67 c-3 42 -10 69 -18 72 -18 6 5 32 28 32 10 0 23 7 30 15 14 17
100 21 100 6z m30 -40 c0 -6 -4 -13 -10 -16 -5 -3 -10 1 -10 9 0 9 5 16 10 16
6 0 10 -4 10 -9z m-210 -21 c0 -5 -7 -10 -16 -10 -8 0 -12 5 -9 10 3 6 10 10
16 10 5 0 9 -4 9 -10z m170 -95 c0 -13 89 -105 102 -105 4 0 8 -4 8 -10 0 -22
-24 -8 -67 40 -48 54 -68 61 -78 31 -3 -11 -16 -23 -28 -27 -12 -4 -25 -12
-29 -18 -4 -6 -10 -7 -14 -3 -4 4 9 31 29 60 21 30 37 59 37 67 0 9 6 8 20 -5
11 -10 20 -23 20 -30z m-174 -85 c8 0 14 -4 14 -10 0 -5 -14 -10 -31 -10 -21
0 -29 4 -25 13 3 6 9 21 13 32 7 19 8 19 11 -2 2 -13 10 -23 18 -23z m168 -38
c-6 -30 -9 -32 -51 -32 -39 0 -44 2 -33 15 7 8 20 15 30 15 9 0 25 9 35 20 23
25 27 21 19 -18z m46 -6 c0 -8 -4 -18 -10 -21 -5 -3 -10 3 -10 14 0 12 5 21
10 21 6 0 10 -6 10 -14z m-200 -156 c0 -11 -2 -20 -4 -20 -2 0 -6 9 -9 20 -3
11 -1 20 4 20 5 0 9 -9 9 -20z m-3 -87 c-3 -10 -5 -2 -5 17 0 19 2 27 5 18 2
-10 2 -26 0 -35z m-32 -103 c3 -5 2 -10 -4 -10 -5 0 -13 5 -16 10 -3 6 -2 10
4 10 5 0 13 -4 16 -10z m245 -139 c0 -25 -3 -28 -25 -23 -41 7 -27 39 23 51 1
1 2 -12 2 -28z m-807 -18 c-13 -2 -33 -2 -45 0 -13 2 -3 4 22 4 25 0 35 -2 23
-4z m787 -83 c0 -5 -4 -10 -10 -10 -5 0 -10 5 -10 10 0 6 5 10 10 10 6 0 10
-4 10 -10z m-1510 -166 c5 -112 4 -121 -17 -156 -13 -21 -25 -38 -26 -38 -5 0
-11 176 -9 239 2 30 8 61 14 68 24 30 33 5 38 -113z m1310 95 c0 -12 -27 -11
-35 1 -11 17 5 32 21 19 8 -6 14 -15 14 -20z"/>
<path d="M677 1273 c-9 -8 -9 -226 -1 -247 16 -42 24 -4 24 119 0 123 -4 147
-23 128z"/>
<path d="M2079 2223 c0 -5 -2 -48 -4 -98 -4 -94 0 -125 16 -125 5 0 9 51 9
115 0 70 -4 115 -10 115 -5 0 -10 -3 -11 -7z"/>
<path d="M2102 3410 c-23 -16 -46 -30 -52 -30 -13 0 -13 -37 0 -45 6 -4 21 0
33 9 51 37 101 72 121 83 19 12 17 13 -20 13 -30 0 -52 -8 -82 -30z"/>
<path d="M298 3238 c-6 -253 0 -500 13 -496 8 3 14 368 9 558 0 6 -4 10 -10
10 -6 0 -11 -32 -12 -72z"/>
<path d="M1315 2790 c-3 -11 -13 -20 -21 -20 -21 0 -20 -237 2 -268 20 -28 41
-28 51 1 8 24 6 261 -3 290 -7 23 -21 22 -29 -3z m14 -177 c1 -39 -3 -75 -9
-78 -6 -4 -10 35 -9 112 1 90 3 109 10 78 4 -22 8 -72 8 -112z"/>
<path d="M246 1725 c-23 -17 -15 -45 13 -45 25 0 34 14 26 40 -7 23 -14 24
-39 5z"/>
<path d="M278 1669 c-15 -15 -18 -38 -18 -112 0 -103 7 -118 63 -131 l28 -7
-3 133 -3 133 -25 2 c-14 1 -33 -7 -42 -18z m50 -52 c2 -11 -2 -14 -17 -10
-22 5 -26 14 -14 27 10 10 28 1 31 -17z m-4 -80 c11 -43 7 -69 -11 -65 -14 2
-18 14 -19 50 -1 34 2 45 11 41 7 -2 16 -14 19 -26z"/>
<path d="M1290 1516 c0 -7 -3 -28 -6 -45 -5 -26 -3 -31 12 -31 26 0 59 76 37
84 -25 10 -43 7 -43 -8z"/>
<path d="M1703 1044 c-13 -33 -10 -527 4 -531 9 -3 12 64 15 264 3 253 -1 312
-19 267z"/>
<path d="M253 864 c3 -18 1 -22 -6 -15 -19 19 -36 12 -39 -16 -3 -27 -5 -28
-83 -34 -44 -3 -88 -9 -97 -14 -19 -8 -22 -36 -8 -70 7 -19 8 -18 18 7 13 31
58 44 123 35 31 -4 45 -1 59 13 16 16 23 17 44 7 14 -7 26 -17 26 -23 0 -15
25 -35 47 -38 14 -2 19 -15 23 -64 5 -55 14 -82 24 -71 2 2 5 60 7 129 l4 124
-30 11 c-16 5 -38 18 -47 28 -10 9 -30 17 -44 17 -23 0 -26 -3 -21 -26z m49
-56 c-7 -7 -12 -8 -12 -2 0 14 12 26 19 19 2 -3 -1 -11 -7 -17z"/>
<path d="M2396 658 c-3 -46 -8 -155 -12 -243 -3 -88 -9 -217 -12 -288 -7 -123
-6 -127 13 -127 19 0 20 5 17 82 -2 46 1 153 7 238 15 219 17 413 4 417 -7 3
-13 -27 -17 -79z"/>
<path d="M0 503 c0 -10 5 -61 10 -113 5 -52 12 -151 16 -220 6 -122 14 -154
33 -134 6 5 6 43 1 92 -5 46 -12 142 -16 215 -4 73 -11 142 -15 155 -10 26
-29 29 -29 5z"/>
</g>
</svg>
