<?xml version="1.0" standalone="no"?>
<!DOCTYPE svg PUBLIC "-//W3C//DTD SVG 20010904//EN"
 "http://www.w3.org/TR/2001/REC-SVG-20010904/DTD/svg10.dtd">
<svg version="1.0" xmlns="http://www.w3.org/2000/svg"
 width="384.000000pt" height="256.000000pt" viewBox="0 0 384.000000 256.000000"
 preserveAspectRatio="xMidYMid meet">
<metadata>
Created by potrace 1.16, written by Peter Selinger 2001-2019
</metadata>
<g transform="translate(0.000000,256.000000) scale(0.100000,-0.100000)"
fill="#000000" stroke="none">
<path d="M16 2533 c4 -16 13 -41 20 -58 11 -28 21 -63 93 -351 22 -85 32 -154
36 -230 2 -61 7 -118 11 -127 3 -10 1 -17 -5 -17 -6 0 -11 6 -11 14 0 8 -12
16 -27 18 -23 2 -29 9 -35 42 -5 22 -15 47 -23 56 -8 9 -15 23 -15 31 0 8 -14
41 -30 74 l-30 60 0 -37 c0 -20 4 -39 9 -43 5 -3 13 -20 16 -38 4 -17 16 -51
26 -73 21 -47 23 -174 3 -174 -12 0 -54 -71 -54 -91 0 -6 20 -9 48 -7 l47 3
-3 35 c-4 42 25 74 76 85 42 9 41 -6 -3 -39 -39 -30 -45 -46 -15 -46 38 0 95
34 85 50 -2 4 -13 49 -25 101 -11 52 -22 104 -25 117 -4 15 -1 22 10 22 8 0
19 -10 24 -22 11 -28 39 -141 46 -188 3 -18 7 -35 9 -37 2 -2 27 3 57 10 37
10 55 20 57 32 3 14 -2 17 -30 13 -18 -3 -41 -8 -51 -13 -13 -6 -17 -2 -17 15
0 23 1 23 93 17 90 -6 95 -5 219 37 70 24 133 48 140 54 7 5 47 26 89 46 67
32 77 41 83 67 10 53 8 63 -9 49 -8 -7 -15 -20 -15 -30 0 -11 -13 -23 -32 -30
-18 -7 -47 -23 -63 -35 -30 -22 -31 -22 -53 -5 -28 23 -28 26 3 34 14 4 43 22
64 42 36 32 169 110 176 102 15 -18 24 -52 20 -71 -10 -37 20 -55 97 -58 38
-1 71 1 74 4 4 3 -1 22 -10 41 -9 19 -16 36 -16 39 0 2 18 7 41 11 38 6 41 8
36 34 -8 41 -34 106 -44 109 -4 2 -26 -13 -48 -32 -30 -26 -49 -35 -78 -35
-24 0 -40 -5 -43 -15 -4 -8 -12 -15 -19 -15 -7 0 -15 7 -19 15 -3 10 1 15 12
15 10 0 32 15 49 34 18 18 56 45 87 61 48 24 58 26 87 16 17 -6 47 -11 65 -11
29 0 34 -3 34 -25 0 -14 8 -29 20 -35 12 -6 20 -21 20 -35 0 -27 26 -46 79
-54 38 -7 47 -19 56 -74 l6 -38 62 5 c58 5 59 4 17 -4 -25 -6 -76 -14 -113
-20 -38 -5 -72 -12 -77 -15 -4 -3 -72 -21 -150 -40 -77 -20 -149 -40 -158 -44
-9 -5 -79 -39 -154 -76 -75 -36 -139 -73 -142 -81 -10 -25 26 -16 119 31 49
25 94 43 100 41 5 -2 3 -5 -6 -5 -18 -1 -89 -64 -89 -80 0 -12 36 -15 42 -3 8
19 87 62 114 62 30 0 64 25 64 48 0 6 12 15 28 18 15 4 31 9 37 12 13 8 42 12
83 12 26 1 32 5 33 23 0 12 3 16 6 10 7 -19 30 -16 45 5 16 23 59 39 123 47
28 3 66 8 85 11 l35 5 -45 -23 c-25 -13 -46 -31 -48 -40 -4 -21 21 -24 37 -4
6 7 25 16 42 20 23 4 30 10 25 22 -9 22 24 14 38 -10 8 -14 8 -20 -1 -23 -24
-9 -13 -23 17 -23 28 0 42 14 21 22 -5 2 -12 15 -16 29 -6 24 -4 26 20 22 14
-3 30 -13 35 -23 14 -26 45 -30 78 -10 16 10 48 21 72 25 25 4 52 12 62 18 23
15 35 1 20 -23 -8 -14 -9 -21 0 -26 6 -4 15 1 20 10 13 23 70 22 66 -1 -2 -15
6 -19 45 -21 26 -2 47 1 47 5 0 15 -23 33 -42 33 -10 0 -18 4 -18 9 0 11 -25
21 -65 28 -16 2 -34 9 -39 14 -15 14 -64 11 -99 -5 -77 -35 -111 -46 -129 -40
-19 6 -19 6 -1 21 13 10 15 16 6 19 -25 11 -13 24 27 30 52 8 80 28 63 45 -8
8 -9 18 -3 29 9 16 13 16 57 -6 27 -13 77 -27 113 -30 36 -4 72 -13 81 -21 24
-20 131 -36 141 -20 20 32 1 50 -65 62 -25 5 -42 3 -53 -5 -11 -10 -18 -10
-26 -2 -7 7 -33 12 -59 12 -29 0 -62 9 -90 23 -24 13 -57 27 -72 31 l-28 7 18
30 c19 32 44 51 66 48 46 -6 52 26 7 36 -33 7 -37 16 -15 35 18 15 91 7 156
-15 23 -8 59 -15 81 -15 l40 0 -7 -37 c-3 -21 -11 -42 -16 -48 -5 -5 -9 -22
-9 -38 0 -26 1 -27 16 -12 12 11 20 13 29 5 10 -8 17 -5 29 11 12 18 18 20 30
10 21 -17 24 -4 16 64 -8 67 -5 81 15 65 8 -6 16 -44 20 -86 6 -63 10 -74 26
-74 20 0 26 24 9 35 -5 3 -10 13 -10 22 0 13 10 15 58 11 82 -8 132 -31 132
-61 0 -13 -3 -27 -7 -31 -5 -4 -13 -31 -20 -59 -9 -40 -9 -54 0 -63 17 -15
125 -41 246 -59 57 -8 110 -19 119 -24 10 -4 82 -9 162 -9 115 -1 152 2 179
14 24 12 51 15 91 11 70 -6 82 3 99 73 22 94 32 120 47 120 18 0 18 -2 -6 -85
-22 -78 -16 -96 25 -77 14 7 40 12 58 12 18 0 38 4 44 8 18 11 101 225 117
302 25 119 70 195 149 253 12 8 18 22 15 36 -3 22 -5 21 -56 -20 -61 -50 -117
-152 -132 -242 -9 -56 -62 -195 -91 -237 l-16 -24 -31 24 c-17 14 -31 33 -31
43 -1 22 -51 71 -62 60 -21 -23 -49 -87 -49 -114 0 -18 -5 -29 -12 -28 -34 4
-40 -1 -34 -31 l6 -30 -64 0 c-48 0 -69 -5 -89 -20 -24 -19 -35 -20 -164 -14
-76 4 -144 11 -151 17 -7 5 -53 13 -102 18 -76 7 -147 23 -210 47 -8 3 -18 4
-22 4 -11 -3 -10 12 3 45 6 15 13 48 16 73 4 40 1 48 -23 67 -26 21 -27 23
-14 66 17 62 18 149 2 154 -8 3 -12 -7 -12 -31 0 -19 -4 -38 -10 -41 -5 -3
-10 -15 -10 -25 0 -10 -4 -21 -9 -24 -17 -11 -111 30 -148 65 -48 45 -88 57
-96 29 -3 -11 -14 -20 -24 -20 -11 0 -23 -11 -30 -29 -8 -21 -17 -29 -32 -28
-25 2 -25 0 -5 39 14 26 14 38 5 64 -9 25 -8 38 4 67 22 53 20 98 -6 104 -12
3 -18 11 -15 19 4 11 -8 14 -54 14 -67 0 -70 -5 -51 -80 5 -19 12 -48 15 -63
4 -16 11 -25 17 -21 10 6 6 71 -7 116 -3 10 3 21 15 28 49 26 86 -49 57 -113
-9 -17 -17 -63 -18 -100 l-3 -69 -45 7 c-62 10 -105 32 -91 49 6 7 11 24 10
37 0 13 3 37 7 52 8 33 -11 104 -34 132 -16 19 -78 32 -66 14 3 -5 -1 -9 -9
-9 -8 0 -22 -9 -32 -20 -14 -16 -15 -23 -6 -34 7 -8 18 -13 26 -10 7 3 16 1
20 -5 7 -13 45 -15 45 -3 0 4 -5 13 -12 20 -8 8 -9 12 -1 12 6 0 18 -14 27
-30 18 -36 11 -92 -14 -115 -16 -15 -19 -13 -45 32 -51 88 -79 108 -116 80
-23 -17 -26 -127 -4 -127 9 0 15 10 15 24 0 14 5 28 11 31 6 4 8 13 5 21 -12
32 31 8 47 -26 4 -8 14 -26 21 -39 12 -20 11 -28 -8 -63 -11 -23 -31 -47 -42
-55 -31 -20 -176 -35 -191 -20 -19 19 -36 185 -24 238 15 62 14 109 -2 109
-19 0 -41 -163 -33 -237 18 -151 36 -169 147 -153 41 6 86 15 102 20 33 11 34
2 8 -54 -32 -71 -43 -105 -37 -115 13 -20 -65 -33 -159 -26 l-92 7 -14 41 c-7
23 -14 75 -15 116 -1 67 -4 75 -25 87 -34 17 -121 22 -127 6 -2 -7 2 -19 8
-27 18 -22 3 -18 -21 4 -16 14 -43 21 -104 26 -78 7 -84 6 -126 -20 -24 -16
-59 -41 -78 -58 -19 -16 -47 -34 -63 -39 -17 -6 -27 -16 -24 -23 6 -18 -35
-55 -62 -55 -11 0 -43 -21 -71 -47 -27 -27 -67 -62 -87 -79 -37 -31 -37 -32
-22 -56 l16 -25 -126 -41 c-124 -40 -129 -41 -217 -34 l-90 7 -7 35 c-18 95
-30 124 -64 155 -6 6 -16 37 -23 70 -7 33 -15 67 -17 77 -4 12 1 16 20 14 27
-3 85 -45 85 -63 1 -6 5 -13 9 -15 12 -4 72 -95 72 -107 0 -6 5 -11 10 -11 6
0 15 -20 22 -45 12 -45 34 -66 44 -41 7 19 -18 76 -68 155 -84 134 -126 170
-197 171 -23 1 -24 2 -8 11 10 6 30 8 45 4 32 -8 100 -52 123 -80 19 -23 63
-73 83 -95 8 -8 18 -28 21 -43 6 -22 45 -60 45 -43 0 27 -48 120 -81 156 -22
25 -48 56 -57 69 -9 13 -38 34 -65 46 -54 26 -50 40 7 24 22 -6 56 -29 81 -53
41 -41 123 -159 147 -210 16 -37 39 -35 28 3 -14 50 -95 177 -148 234 -58 62
-142 83 -202 52 -27 -14 -30 -14 -44 7 -9 12 -16 27 -16 33 0 5 -18 67 -41
138 -27 84 -46 127 -55 127 -11 0 -13 -7 -8 -27z m2214 -308 c0 -8 -2 -15 -4
-15 -2 0 -6 7 -10 15 -3 8 -1 15 4 15 6 0 10 -7 10 -15z m-776 -16 c11 -9 1
-39 -14 -39 -5 0 -19 9 -30 20 -11 11 -25 20 -31 20 -5 0 -7 4 -4 10 6 10 64
3 79 -11z m996 -29 c0 -13 -20 -13 -40 0 -12 8 -9 10 13 10 15 0 27 -4 27 -10z
m-1062 -50 c-2 -17 -5 -15 -14 15 -10 32 -10 35 3 22 8 -8 13 -24 11 -37z
m-201 -52 c-3 -8 -6 -5 -6 6 -1 11 2 17 5 13 3 -3 4 -12 1 -19z m530 -134 c-3
-3 -12 -4 -19 -1 -8 3 -5 6 6 6 11 1 17 -2 13 -5z"/>
<path d="M1720 2528 l-19 -32 -9 24 c-11 30 -19 17 -28 -48 -7 -56 9 -73 26
-27 6 16 14 23 25 19 10 -4 15 0 15 13 0 20 29 51 65 71 18 10 15 11 -18 12
-31 0 -40 -5 -57 -32z"/>
<path d="M2638 2553 c7 -3 16 -2 19 1 4 3 -2 6 -13 5 -11 0 -14 -3 -6 -6z"/>
<path d="M2678 2553 c6 -2 18 -2 25 0 6 3 1 5 -13 5 -14 0 -19 -2 -12 -5z"/>
<path d="M2806 2533 c10 -16 30 -46 46 -67 15 -21 28 -45 28 -52 0 -8 9 -28
20 -46 15 -25 20 -51 20 -108 0 -62 -7 -94 -41 -190 -49 -138 -55 -160 -41
-160 16 0 23 14 65 135 30 85 40 130 44 200 5 85 3 95 -27 166 -17 42 -43 88
-57 103 -21 23 -23 30 -12 37 10 6 1 9 -25 9 l-38 0 18 -27z"/>
<path d="M2627 2518 c-2 -7 0 -28 5 -46 5 -17 8 -64 6 -104 -3 -65 -1 -73 17
-76 11 -3 24 -11 30 -19 6 -8 29 -16 52 -18 33 -4 42 -1 45 13 3 10 23 24 47
32 28 9 46 22 52 38 11 29 11 32 0 32 -20 0 -101 -62 -101 -77 0 -11 -6 -14
-22 -9 -13 4 -37 9 -54 12 -35 7 -62 40 -45 57 14 14 14 117 1 151 -10 28 -26
34 -33 14z"/>
<path d="M2770 2475 c-7 -9 -10 -18 -7 -21 10 -11 37 5 37 21 0 19 -14 19 -30
0z"/>
<path d="M2430 2349 c-14 -24 -6 -49 14 -49 18 0 26 22 19 49 -7 27 -19 27
-33 0z"/>
<path d="M3823 2273 c-12 -42 -9 -131 3 -143 9 -9 12 11 13 79 0 50 -2 91 -4
91 -3 0 -8 -12 -12 -27z"/>
<path d="M1235 2169 c-7 -10 34 -109 46 -109 3 0 12 6 18 14 9 10 8 16 -3 25
-8 7 -18 25 -21 41 -6 29 -30 46 -40 29z"/>
<path d="M1298 2033 c6 -2 18 -2 25 0 6 3 1 5 -13 5 -14 0 -19 -2 -12 -5z"/>
<path d="M2150 1855 c0 -8 -9 -15 -20 -15 -11 0 -20 -4 -20 -8 0 -4 -12 -8
-27 -7 -21 0 -29 -5 -31 -21 -5 -37 -59 -38 -104 -2 -21 16 -38 34 -38 39 0 5
-9 9 -20 9 -11 0 -20 -4 -20 -9 0 -5 -10 -11 -22 -13 -15 -2 -27 -15 -37 -43
-8 -22 -19 -41 -23 -43 -4 -2 -8 -10 -8 -18 0 -18 -8 -18 -26 1 -14 13 -14 17
0 31 9 8 16 22 16 31 0 12 -7 14 -35 9 -25 -5 -51 0 -94 17 -63 26 -95 22 -66
-7 9 -9 23 -16 31 -16 9 0 24 -5 35 -11 15 -8 18 -14 9 -23 -8 -10 1 -18 39
-35 73 -31 121 -125 71 -138 -11 -3 -20 -11 -20 -19 0 -7 -6 -17 -12 -21 -7
-4 -19 -16 -27 -26 -12 -15 -12 -19 5 -32 15 -11 15 -14 4 -14 -22 0 -55 27
-55 46 0 9 -8 21 -18 27 -25 16 -52 -4 -52 -40 0 -25 4 -29 35 -34 46 -8 80
-27 80 -45 0 -8 -4 -15 -8 -15 -4 0 -13 -13 -19 -30 -13 -33 -29 -39 -36 -12
-3 13 -6 10 -11 -10 -10 -33 -26 -37 -26 -7 0 12 -5 19 -12 16 -7 -2 -12 -12
-12 -21 1 -11 -6 -16 -25 -16 -41 0 -71 -11 -71 -26 0 -8 10 -14 25 -14 14 0
25 4 25 8 0 4 20 7 44 6 57 -2 85 -27 89 -80 4 -45 5 -45 35 -38 26 8 28 22 5
40 -17 13 -17 13 0 14 9 0 17 7 17 15 0 8 5 15 10 15 6 0 10 -7 10 -15 0 -15
40 -22 53 -9 13 13 -6 34 -27 29 -18 -5 -18 -3 7 19 20 18 27 35 27 61 0 21
-5 35 -12 35 -29 1 -54 35 -55 75 -1 33 4 44 28 63 29 23 29 23 29 3 0 -12 -9
-30 -20 -41 -25 -25 -20 -36 21 -45 23 -5 31 -14 36 -36 10 -50 20 -32 22 36
1 36 7 74 13 85 10 15 10 22 0 32 -9 9 -15 8 -27 -8 -12 -16 -14 -17 -15 -2 0
9 -6 18 -12 21 -10 3 -9 11 4 34 10 16 19 61 22 102 3 40 7 76 10 79 3 2 12
-1 21 -8 8 -7 26 -10 40 -8 14 3 30 0 35 -7 6 -7 27 -16 48 -19 20 -4 45 -9
55 -12 13 -4 20 2 28 24 10 30 41 42 112 42 33 0 39 -35 6 -43 -16 -4 -19 -10
-14 -29 9 -30 25 -47 25 -26 0 9 9 18 20 21 13 3 20 14 20 29 0 13 5 29 11 35
14 14 3 33 -18 33 -8 0 -24 11 -35 25 -22 28 -48 33 -48 10z m-335 -375 c3 -5
1 -10 -4 -10 -6 0 -11 5 -11 10 0 6 2 10 4 10 3 0 8 -4 11 -10z m-70 -100 c3
-5 1 -10 -4 -10 -6 0 -11 5 -11 10 0 6 2 10 4 10 3 0 8 -4 11 -10z m-5 -60 c0
-5 -4 -10 -10 -10 -5 0 -10 5 -10 10 0 6 5 10 10 10 6 0 10 -4 10 -10z"/>
<path d="M2352 1854 c-26 -18 -28 -39 -6 -48 32 -12 44 -6 44 23 0 37 -11 44
-38 25z"/>
<path d="M1363 1804 c-24 -14 -43 -29 -43 -34 0 -20 23 -21 45 0 16 15 33 20
56 18 30 -3 34 -6 32 -30 -1 -23 3 -29 25 -34 15 -3 34 -8 43 -10 9 -2 23 4
32 14 16 17 15 21 -17 59 -31 35 -40 40 -83 41 -36 2 -59 -5 -90 -24z m147
-44 c0 -5 -4 -10 -10 -10 -5 0 -10 5 -10 10 0 6 5 10 10 10 6 0 10 -4 10 -10z"/>
<path d="M2485 1820 c-3 -5 -4 -10 -1 -10 2 0 11 -3 20 -6 11 -4 16 -1 16 10
0 18 -25 22 -35 6z"/>
<path d="M3567 1817 c-10 -7 -36 -29 -58 -49 -33 -32 -36 -38 -20 -38 11 0 36
14 56 31 27 24 39 29 48 20 20 -20 36 -12 35 19 -1 24 -5 30 -22 29 -12 0 -29
-6 -39 -12z"/>
<path d="M2416 1782 c-36 -8 -46 -31 -17 -39 12 -3 21 -9 21 -14 0 -5 9 -9 20
-9 11 0 20 4 20 9 0 5 9 11 21 14 13 4 20 12 17 24 -4 20 -34 25 -82 15z"/>
<path d="M1177 1762 c-26 -28 -21 -35 19 -27 35 6 36 5 31 -17 -8 -32 6 -52
32 -43 33 10 28 25 -29 80 -30 30 -32 30 -53 7z"/>
<path d="M1256 1766 c7 -19 38 -22 32 -3 -3 6 -12 13 -21 15 -12 2 -15 -1 -11
-12z"/>
<path d="M2555 1772 c-22 -15 -46 -64 -40 -81 3 -11 19 -24 35 -31 33 -14 42
-35 11 -25 -34 11 -32 -13 3 -34 40 -25 126 -30 126 -7 0 8 -8 14 -17 14 -10
-1 -31 2 -47 6 -25 6 -27 8 -12 19 9 7 18 26 19 42 1 20 10 34 26 42 13 7 24
13 26 13 6 0 -8 -51 -16 -56 -16 -9 -10 -24 10 -24 30 0 44 25 36 68 -4 29
-13 43 -31 51 -33 15 -57 14 -51 -1 2 -7 -3 -18 -12 -25 -19 -15 -75 -17 -66
-3 3 6 15 10 26 10 10 0 19 7 19 15 0 16 -27 20 -45 7z m112 -24 c-3 -8 -6 -5
-6 6 -1 11 2 17 5 13 3 -3 4 -12 1 -19z m-61 -63 c18 -14 18 -14 -8 -15 -27 0
-43 12 -31 24 9 9 17 8 39 -9z"/>
<path d="M1353 1733 c-18 -9 -33 -23 -33 -30 0 -15 36 -18 45 -3 3 6 15 10 26
10 14 0 19 6 17 17 -4 23 -18 24 -55 6z"/>
<path d="M2254 1736 c-7 -19 3 -36 22 -36 10 0 14 8 12 22 -4 26 -26 36 -34
14z"/>
<path d="M1905 1730 c-10 -16 5 -28 43 -36 28 -6 32 -4 32 15 0 11 -6 21 -12
21 -7 0 -23 3 -34 6 -12 3 -25 0 -29 -6z"/>
<path d="M2340 1727 c0 -9 -6 -18 -12 -21 -7 -3 -2 -4 12 -3 26 2 35 27 13 35
-7 2 -13 -3 -13 -11z"/>
<path d="M2140 1720 c0 -5 5 -10 10 -10 6 0 10 5 10 10 0 6 -4 10 -10 10 -5 0
-10 -4 -10 -10z"/>
<path d="M2000 1712 c0 -5 8 -16 18 -25 14 -13 21 -14 30 -5 21 21 13 38 -18
38 -16 0 -30 -4 -30 -8z"/>
<path d="M2089 1685 c-7 -19 -19 -35 -25 -35 -16 0 -27 -17 -19 -30 8 -13 35
-1 35 16 0 8 11 19 24 24 18 7 22 14 19 34 -7 36 -19 32 -34 -9z"/>
<path d="M1654 1684 c3 -9 6 -18 6 -20 0 -8 25 -4 40 6 13 9 13 11 0 20 -24
16 -53 12 -46 -6z"/>
<path d="M3496 1685 c-7 -19 3 -19 28 0 19 15 19 15 -1 15 -11 0 -23 -7 -27
-15z"/>
<path d="M1158 1683 c-18 -5 -26 -33 -9 -33 5 0 4 -11 -2 -25 -9 -19 -17 -24
-34 -20 -34 8 -38 -13 -7 -42 29 -26 58 -23 60 8 0 8 2 29 2 47 2 25 7 35 22
39 11 3 20 12 20 19 0 14 -18 16 -52 7z"/>
<path d="M1354 1665 c-12 -16 -29 -25 -46 -25 -29 0 -37 -13 -15 -27 6 -4 18
-20 26 -36 13 -25 13 -29 -7 -47 -29 -27 -33 -25 -30 13 2 40 -6 55 -40 68
-19 8 -29 6 -41 -6 -14 -14 -14 -16 6 -21 18 -5 21 -10 13 -24 -8 -15 -3 -24
24 -47 19 -15 39 -41 45 -56 13 -34 36 -31 37 4 1 33 21 69 39 69 18 0 19 25
3 70 -10 31 -9 35 15 52 15 11 27 24 27 29 0 19 -38 8 -56 -16z"/>
<path d="M2273 1675 c-8 -21 0 -47 18 -58 12 -7 23 -5 42 9 37 27 33 40 -14
52 -32 8 -41 7 -46 -3z"/>
<path d="M2476 1681 c-3 -5 1 -14 8 -20 12 -10 13 -8 9 8 -6 23 -9 25 -17 12z"/>
<path d="M2807 1677 c-3 -8 -3 -17 -1 -20 8 -8 53 7 56 18 5 16 -49 18 -55 2z"/>
<path d="M1447 1674 c-8 -8 1 -24 14 -24 5 0 9 7 9 15 0 15 -12 20 -23 9z"/>
<path d="M1600 1670 c0 -5 7 -10 15 -10 8 0 15 5 15 10 0 6 -7 10 -15 10 -8 0
-15 -4 -15 -10z"/>
<path d="M2415 1670 c-3 -5 1 -10 9 -10 8 0 18 5 21 10 3 6 -1 10 -9 10 -8 0
-18 -4 -21 -10z"/>
<path d="M3147 1673 c-4 -3 -7 -15 -7 -25 0 -15 5 -18 23 -12 30 9 40 27 19
36 -23 9 -28 9 -35 1z"/>
<path d="M3390 1665 c-25 -7 -84 -24 -132 -36 -84 -22 -107 -40 -72 -53 9 -3
14 -12 11 -19 -3 -7 5 -23 18 -35 l23 -22 4 35 c2 19 0 36 -6 38 -5 2 15 13
44 26 50 22 56 22 80 8 33 -20 67 -12 73 16 2 12 8 30 12 40 8 20 5 20 -55 2z"/>
<path d="M1859 1654 c-6 -8 -9 -20 -6 -28 5 -12 11 -12 31 -3 14 7 26 17 26
23 0 18 -38 24 -51 8z"/>
<path d="M515 1649 c-10 -16 2 -23 43 -26 20 -1 54 -4 75 -7 44 -7 52 14 12
32 -32 15 -122 16 -130 1z"/>
<path d="M2737 1654 c-4 -4 -7 -15 -7 -25 0 -15 4 -17 23 -10 12 5 22 14 22
22 0 15 -27 24 -38 13z"/>
<path d="M993 1633 c-13 -9 -23 -22 -23 -30 0 -8 -16 -34 -35 -58 -24 -29 -32
-46 -24 -50 12 -8 67 28 59 39 -3 4 3 12 13 17 9 6 17 17 17 24 0 10 10 15 30
15 20 0 30 5 30 15 0 8 -7 15 -15 15 -7 0 -18 6 -22 14 -7 12 -11 11 -30 -1z"/>
<path d="M1225 1640 c4 -6 11 -8 16 -5 14 9 11 15 -7 15 -8 0 -12 -5 -9 -10z"/>
<path d="M1702 1643 c-33 -6 -25 -39 8 -35 40 4 50 10 44 27 -6 15 -10 16 -52
8z"/>
<path d="M2180 1633 c0 -12 -3 -14 -8 -6 -12 19 -65 1 -79 -27 -9 -18 -9 -28
-1 -37 15 -19 -22 -53 -57 -53 -18 0 -38 -14 -65 -42 -22 -24 -40 -46 -40 -50
0 -14 21 -8 50 12 16 11 50 24 76 29 52 10 75 -2 92 -49 7 -20 5 -29 -11 -42
-24 -21 -36 -22 -59 -4 -26 19 -22 27 8 20 22 -6 25 -4 22 12 -4 23 -27 28
-85 19 -32 -5 -47 -12 -50 -25 -3 -10 -13 -20 -24 -23 -28 -8 -24 -37 5 -37
13 0 26 6 29 13 2 6 8 9 12 4 14 -12 -28 -36 -53 -30 -19 4 -23 2 -20 -12 4
-24 45 -29 75 -9 19 12 27 13 39 3 8 -6 12 -20 9 -29 -3 -9 1 -22 9 -29 11 -9
18 -6 35 15 12 15 20 33 17 41 -3 7 -1 15 5 18 5 4 17 -11 25 -32 9 -21 21
-41 27 -45 21 -13 28 4 13 28 -23 33 -20 41 7 17 l22 -21 34 28 c28 24 33 34
29 60 -3 17 -1 33 4 36 4 3 8 11 8 19 0 9 -10 12 -38 8 -35 -5 -40 -2 -72 37
-19 24 -35 49 -35 57 0 7 -7 18 -15 23 -8 5 -12 10 -10 12 3 2 15 11 26 21 30
25 86 30 120 12 16 -8 45 -15 64 -16 19 -1 27 -3 18 -6 -10 -2 -18 -8 -18 -13
0 -9 44 -46 63 -53 8 -3 4 -13 -10 -29 -13 -13 -23 -36 -23 -51 0 -25 -2 -26
-20 -15 -16 10 -22 10 -32 0 -11 -11 -9 -16 7 -27 38 -27 46 -37 43 -53 -3
-12 -13 -16 -36 -14 -22 1 -35 -3 -38 -13 -4 -8 -12 -15 -19 -15 -12 0 -50
-48 -43 -55 2 -2 15 -6 31 -10 24 -6 27 -5 27 19 0 28 25 46 64 46 31 0 34
-15 5 -23 -26 -7 -20 -33 7 -30 78 10 93 16 96 37 2 16 10 21 33 22 17 1 33
-4 37 -10 5 -8 10 -8 18 0 12 12 -2 45 -35 81 -45 49 -50 56 -37 61 10 3 10 7
1 18 -6 8 -9 14 -5 14 3 0 -2 9 -11 20 -10 11 -23 20 -30 20 -17 0 -17 37 0
47 7 4 18 20 24 36 8 16 20 27 33 27 21 0 27 14 10 25 -16 10 -72 -25 -66 -41
3 -8 1 -14 -4 -14 -5 0 -16 -7 -25 -16 -9 -9 -19 -13 -23 -10 -3 4 0 11 7 15
10 7 11 13 2 30 -13 23 -22 26 -37 11 -7 -7 -26 -2 -58 14 -27 14 -55 22 -63
19 -8 -3 -13 0 -11 7 2 7 -3 15 -9 17 -8 3 -13 -3 -13 -14z m240 -203 c0 -5
-2 -10 -4 -10 -3 0 -8 5 -11 10 -3 6 -1 10 4 10 6 0 11 -4 11 -10z m-4 -50
c12 0 54 -50 54 -64 0 -3 -7 -6 -15 -6 -8 0 -15 5 -15 10 0 6 -10 8 -24 4 -28
-7 -64 22 -47 39 6 6 11 22 12 37 l0 25 11 -22 c6 -13 17 -23 24 -23z m-386 0
c0 -5 -4 -10 -10 -10 -5 0 -10 5 -10 10 0 6 5 10 10 10 6 0 10 -4 10 -10z
m360 -110 c0 -5 -5 -10 -11 -10 -5 0 -7 5 -4 10 3 6 8 10 11 10 2 0 4 -4 4
-10z"/>
<path d="M2894 1618 c4 -18 -3 -30 -32 -55 -40 -35 -48 -38 -57 -23 -7 11
-203 14 -229 4 -17 -6 -23 -34 -7 -34 4 0 21 -12 36 -26 22 -20 25 -28 14 -34
-9 -6 -21 0 -39 19 -50 55 -66 64 -89 49 -26 -16 -27 -43 -1 -70 22 -24 26
-38 10 -38 -17 0 -11 -18 14 -45 18 -19 31 -25 45 -20 15 5 21 2 21 -9 0 -9 7
-16 15 -16 16 0 17 2 20 40 5 45 24 82 41 76 9 -3 17 1 21 12 18 45 76 60 137
36 19 -7 19 -8 -1 -15 -27 -10 -40 -59 -20 -74 8 -6 16 -19 18 -30 3 -15 14
-21 41 -23 59 -5 66 -25 21 -59 -21 -15 -44 -34 -52 -41 -7 -7 -21 -10 -30 -7
-9 4 -47 11 -86 17 -61 8 -71 8 -81 -7 -11 -14 -9 -22 8 -45 17 -24 26 -27 57
-23 20 2 43 -1 51 -6 12 -9 10 -15 -13 -39 -15 -15 -27 -33 -27 -38 0 -6 -11
-20 -24 -33 l-23 -22 -6 62 c-4 42 -12 68 -26 83 -12 12 -21 27 -21 33 0 16
-48 45 -55 33 -3 -5 -19 -7 -35 -3 -31 6 -39 -4 -18 -25 7 -7 8 -13 3 -13 -6
-1 -15 -2 -20 -3 -17 -2 -65 -43 -65 -55 0 -6 12 -14 27 -17 19 -5 30 -2 39
10 15 21 74 66 86 66 4 0 6 -10 4 -22 -3 -13 -5 -28 -5 -34 -1 -6 -12 -23 -26
-38 -20 -21 -32 -26 -72 -25 -60 1 -99 12 -95 27 1 7 -2 12 -8 12 -5 0 -10 -5
-10 -10 0 -7 -20 -9 -60 -4 -64 7 -141 -8 -161 -32 -9 -11 6 -12 89 -7 l99 6
-3 -24 c-1 -13 -3 -28 -3 -33 -1 -6 -7 -1 -15 10 -12 15 -17 17 -27 7 -16 -16
-30 -17 -26 -1 5 27 -31 17 -51 -14 -23 -36 -21 -48 11 -48 18 0 19 -2 7 -13
-8 -7 -27 -19 -42 -25 l-28 -11 5 54 c3 37 1 55 -7 55 -11 0 -48 -38 -48 -50
0 -4 -11 -12 -25 -18 -14 -6 -25 -18 -25 -27 0 -9 9 -15 25 -15 34 0 31 -16
-5 -29 -30 -10 -40 -34 -20 -46 6 -4 27 4 48 17 20 12 41 23 47 24 23 4 111
37 121 45 6 5 30 11 53 13 23 2 47 8 54 14 7 5 41 17 76 27 36 9 72 20 80 23
13 5 14 3 3 -10 -6 -8 -65 -32 -130 -52 -64 -21 -139 -47 -167 -58 -79 -31
-175 -56 -195 -51 -15 4 -18 11 -14 32 7 36 -12 107 -31 115 -8 3 -15 17 -15
31 0 20 -5 25 -25 25 -14 0 -28 -7 -31 -15 -4 -8 -10 -15 -16 -15 -5 0 -6 5
-2 12 5 8 2 9 -10 5 -10 -4 -36 -7 -57 -7 -47 0 -44 -14 8 -31 28 -9 38 -9 41
0 7 20 22 12 22 -12 0 -13 -9 -32 -20 -42 -11 -10 -20 -22 -20 -27 0 -17 29
-7 60 22 39 36 55 34 55 -6 0 -28 -3 -29 -57 -38 -58 -9 -73 -22 -57 -47 7
-12 14 -11 44 5 27 15 38 17 47 8 19 -19 -4 -34 -56 -34 -26 -1 -49 -5 -52 -9
-2 -4 -26 -5 -53 -2 -35 4 -58 1 -87 -13 -32 -16 -63 -19 -174 -19 -135 0
-169 6 -400 65 -147 38 -274 91 -348 147 -29 22 -32 27 -26 64 5 31 3 39 -8
39 -12 0 -15 -13 -15 -55 0 -49 3 -58 30 -81 74 -62 415 -186 552 -201 22 -2
49 -6 60 -9 43 -12 256 -28 365 -28 112 0 245 18 255 35 3 4 27 11 53 14 44 6
170 35 237 56 135 40 221 73 271 103 33 20 80 40 104 44 25 5 68 19 95 32 59
28 181 147 191 186 4 15 13 39 20 53 8 14 14 32 14 40 0 7 10 30 21 51 l22 38
-22 28 c-27 34 -27 37 8 52 16 7 45 27 64 45 19 18 46 42 61 54 27 24 34 43
16 43 -21 0 -70 -31 -80 -50 -6 -11 -15 -20 -21 -20 -6 0 -26 -12 -45 -26 -19
-15 -36 -25 -37 -23 -22 39 -27 53 -27 74 0 31 -26 85 -41 85 -7 0 -9 -9 -5
-22z m-324 -173 c0 -15 -41 -2 -50 16 -11 20 -11 20 19 4 17 -8 31 -18 31 -20z
m370 -67 c0 -10 -3 -18 -7 -18 -18 1 -28 17 -30 50 l-2 35 19 -25 c11 -14 20
-33 20 -42z m-386 1 c-3 -5 -10 -7 -15 -3 -5 3 -7 10 -3 15 3 5 10 7 15 3 5
-3 7 -10 3 -15z m-149 -322 c11 -9 15 -19 10 -26 -5 -9 -10 -10 -18 -2 -13 13
-30 15 -22 2 6 -10 -13 -26 -21 -18 -7 6 14 57 24 57 4 0 16 -6 27 -13z m-405
-197 c0 -5 -4 -10 -10 -10 -5 0 -10 5 -10 10 0 6 5 10 10 10 6 0 10 -4 10 -10z"/>
<path d="M871 1583 c-34 -41 -39 -63 -16 -63 8 0 15 5 15 10 0 6 11 20 25 32
24 21 34 58 16 58 -5 0 -23 -17 -40 -37z"/>
<path d="M1930 1611 c0 -15 29 -33 41 -25 9 5 7 11 -6 21 -22 15 -35 17 -35 4z"/>
<path d="M1981 1579 c-14 -11 -33 -18 -43 -16 -23 6 -25 -28 -3 -37 31 -11 74
16 88 57 9 23 -12 21 -42 -4z"/>
<path d="M1500 1575 c0 -9 -9 -30 -21 -46 -22 -32 -18 -49 12 -49 17 0 19 5
13 35 -5 28 -3 35 10 36 9 1 22 2 29 3 24 2 12 31 -15 34 -21 2 -28 -1 -28
-13z"/>
<path d="M1882 1578 c5 -15 28 -23 28 -10 0 5 -7 13 -16 16 -10 4 -14 1 -12
-6z"/>
<path d="M1016 1562 c-10 -9 -7 -42 4 -42 5 0 7 -12 4 -28 -6 -27 -5 -27 41
-24 44 4 46 5 43 34 -2 23 -11 33 -45 48 -23 10 -44 16 -47 12z"/>
<path d="M1417 1556 c-6 -15 1 -26 15 -26 4 0 8 9 8 20 0 23 -15 27 -23 6z"/>
<path d="M60 1545 c-7 -8 -23 -15 -36 -15 -20 0 -24 -5 -24 -30 0 -16 5 -30
10 -30 6 0 10 5 10 11 0 5 5 7 11 4 14 -9 59 34 59 57 0 22 -13 23 -30 3z"/>
<path d="M2167 1553 c-18 -17 -4 -31 34 -35 28 -2 43 1 49 11 6 11 9 10 14 -7
9 -27 36 -29 36 -2 0 14 -11 22 -37 29 -43 12 -87 14 -96 4z"/>
<path d="M3342 1543 c-5 -10 -7 -24 -4 -32 4 -11 -4 -13 -36 -8 -54 9 -67 -7
-57 -71 11 -64 9 -94 -10 -149 -13 -40 -55 -113 -75 -133 -3 -3 -18 -22 -33
-43 -35 -46 -192 -175 -207 -170 -3 1 -9 -5 -13 -13 -4 -8 -14 -14 -21 -14 -8
0 -18 -6 -24 -13 -6 -7 -42 -28 -79 -46 -37 -18 -80 -39 -95 -47 -38 -21 -218
-81 -313 -105 -142 -36 -154 -39 -222 -49 -38 -5 -77 -12 -88 -14 -12 -2 -116
-7 -233 -11 -189 -7 -237 -14 -219 -32 3 -3 107 -5 230 -4 l224 1 27 -27 c15
-15 25 -34 23 -44 -6 -20 11 -51 24 -44 5 4 9 21 9 39 0 17 4 36 9 41 5 6 11
21 13 35 4 34 54 52 73 27 17 -24 35 -21 35 6 l1 22 19 -24 c11 -12 17 -27 14
-33 -3 -5 3 -12 15 -15 12 -3 21 -9 21 -14 0 -15 27 -10 64 12 20 12 36 16 36
10 0 -6 9 -11 21 -11 16 0 19 -4 14 -20 -5 -15 -2 -20 13 -20 21 0 32 25 32
71 0 26 40 79 60 79 5 0 10 -7 10 -16 0 -10 6 -14 14 -11 22 9 25 -2 10 -38
-8 -19 -14 -47 -14 -62 0 -16 -6 -37 -14 -48 -7 -11 -19 -37 -25 -57 -7 -21
-16 -38 -19 -38 -6 0 -26 -57 -48 -137 -3 -13 -64 -19 -64 -7 0 3 11 19 23 34
24 28 71 133 81 182 4 16 13 28 20 28 14 0 26 30 26 68 0 33 -31 25 -41 -9 -3
-15 -17 -37 -29 -49 -15 -15 -20 -30 -17 -48 3 -14 2 -33 -3 -41 -27 -57 -45
-89 -62 -108 -11 -12 -17 -27 -13 -33 4 -7 -2 -14 -14 -17 -16 -4 -20 -11 -16
-24 5 -13 1 -19 -10 -19 -14 0 -16 -7 -13 -35 2 -19 0 -35 -4 -35 -4 0 -8 1
-9 3 0 1 -3 36 -6 77 -3 41 -10 81 -17 89 -12 15 -13 27 -15 130 l-1 64 -39
-7 c-30 -5 -44 -1 -66 16 -22 17 -29 19 -36 7 -5 -8 -9 -21 -9 -30 0 -8 -5
-20 -11 -26 -21 -21 -6 -162 23 -221 30 -59 30 -59 -51 -26 -18 8 -53 14 -77
14 -46 0 -74 24 -74 63 0 17 -7 18 -69 14 -80 -6 -95 -12 -88 -39 4 -15 2 -18
-11 -13 -25 10 -107 25 -197 36 -44 6 -87 13 -95 15 -8 3 -35 7 -60 10 -25 2
-74 8 -110 14 -166 25 -218 36 -232 47 -16 14 -40 88 -68 210 -13 57 -43 103
-66 103 -19 0 -18 -12 4 -41 19 -25 32 -67 53 -177 6 -34 16 -65 20 -68 5 -3
9 -13 10 -22 1 -34 54 -62 124 -67 36 -2 74 -9 84 -15 11 -5 46 -10 78 -10 32
0 65 -5 73 -10 11 -7 11 -10 2 -10 -7 0 -25 -11 -40 -25 -29 -27 -232 -195
-284 -235 -26 -20 -29 -26 -14 -28 21 -5 115 56 176 114 25 24 68 60 95 81 28
21 56 44 63 51 7 6 18 12 23 12 5 0 9 8 10 18 0 12 3 10 10 -8 6 -13 9 -40 7
-60 l-3 -35 45 3 c25 2 48 8 51 13 3 6 17 6 34 -1 33 -13 61 4 35 20 -24 15
14 23 73 16 29 -4 67 -9 86 -11 18 -2 38 -8 44 -14 6 -6 30 -11 53 -11 23 0
57 -7 77 -15 37 -15 47 -12 47 17 0 22 16 24 24 3 4 -11 21 -15 65 -15 37 0
87 -9 133 -25 40 -14 85 -25 100 -25 15 0 48 -5 73 -12 44 -12 46 -11 70 14
14 15 25 39 25 53 0 33 11 32 32 -5 17 -30 79 -73 107 -75 9 -1 29 -2 44 -3
17 -1 26 -6 22 -13 -4 -6 -19 -7 -35 -4 -34 8 -80 -18 -80 -46 0 -28 17 -32
40 -9 29 29 84 27 116 -5 14 -14 30 -25 37 -25 8 0 8 3 2 8 -5 4 -15 20 -21
37 -6 17 -15 37 -18 46 -6 13 1 17 34 22 51 7 60 15 37 31 -26 20 -21 26 22
26 28 0 42 -6 52 -21 8 -11 46 -31 89 -46 41 -14 79 -29 84 -34 16 -15 -48
-10 -87 6 -45 19 -47 19 -47 0 0 -8 13 -21 30 -30 16 -8 34 -23 39 -32 6 -10
11 -12 11 -5 0 15 30 16 30 1 0 -6 13 -1 29 10 28 20 28 20 49 1 12 -11 26
-20 32 -20 13 0 13 27 0 35 -5 3 -19 27 -30 52 -21 48 -15 73 17 73 8 0 13 7
11 18 -2 11 -13 17 -33 17 -17 1 -41 4 -55 8 -23 8 -25 12 -26 80 -2 88 -15
124 -50 137 -38 15 -41 5 -8 -23 26 -23 28 -30 32 -116 3 -61 1 -96 -7 -104
-8 -8 -11 -8 -11 0 0 19 -30 43 -53 43 -37 0 -50 34 -42 109 6 58 4 69 -14 90
-35 41 -12 151 32 151 5 0 6 -17 2 -39 -6 -36 -4 -40 33 -69 35 -28 47 -31
139 -38 l100 -7 26 29 c26 28 30 43 30 109 0 65 -82 149 -166 169 -48 11 -61
80 -27 143 21 40 26 73 11 73 -12 0 -61 -106 -61 -131 0 -11 -4 -19 -9 -19 -5
0 -13 -14 -16 -32 -4 -17 -11 -36 -16 -42 -37 -47 -59 -66 -78 -66 -11 0 -21
-3 -22 -7 0 -5 -2 -19 -4 -33 -2 -14 -6 -51 -10 -83 -5 -39 -15 -65 -31 -82
-21 -23 -21 -25 -5 -25 15 0 20 -11 26 -47 4 -27 11 -51 17 -54 9 -6 -20 -81
-34 -87 -5 -2 -8 -9 -8 -16 0 -7 -11 -23 -25 -36 -14 -13 -25 -29 -25 -37 0
-19 -117 -5 -158 19 -63 39 -75 92 -36 169 7 14 14 37 16 50 2 13 14 35 27 48
19 19 25 21 32 10 13 -21 11 -52 -6 -93 -23 -54 2 -96 56 -96 19 0 30 8 42 32
21 44 49 139 43 146 -10 10 -36 -21 -44 -52 -6 -24 -14 -31 -33 -32 -23 -1
-24 2 -26 59 -2 45 -8 66 -23 82 -45 48 -1 165 61 165 15 0 31 5 34 11 4 6 13
8 21 5 9 -3 23 9 39 34 29 46 44 52 37 15 -5 -27 9 -33 26 -12 5 6 18 39 27
72 17 59 30 96 44 125 4 8 32 31 62 52 54 37 76 47 64 28 -3 -5 1 -10 9 -10 9
0 16 -9 16 -20 0 -11 13 -34 30 -52 l29 -33 1 28 c0 16 -7 30 -15 33 -8 4 -15
14 -15 23 0 10 -3 21 -7 25 -18 18 -6 56 35 114 30 42 48 60 56 54 6 -5 18 -9
26 -10 8 0 42 -7 75 -16 79 -21 88 -20 124 10 l31 26 -4 -41 c-2 -22 -8 -46
-13 -53 -17 -22 -39 -111 -37 -148 3 -63 14 -86 47 -101 25 -11 42 -34 79
-104 30 -57 47 -103 47 -127 1 -50 25 -63 58 -32 20 18 29 21 49 13 59 -22 58
-4 -1 57 -25 25 -45 54 -45 64 0 10 -4 21 -9 24 -5 3 -12 23 -16 43 -4 21 -18
62 -32 91 -14 29 -25 70 -26 90 0 35 -28 82 -49 82 -15 0 -8 -30 12 -50 14
-14 18 -28 14 -44 -6 -25 23 -126 37 -126 14 0 11 -28 -3 -32 -25 -9 -75 71
-56 90 16 16 1 30 -41 37 -36 6 -38 9 -37 37 1 18 7 33 14 36 6 2 12 12 12 22
0 11 12 24 30 32 25 11 30 18 30 49 0 20 -7 42 -15 49 -20 16 -5 42 38 67 23
14 37 32 46 62 14 50 12 54 -23 45 -21 -5 -24 -9 -16 -24 15 -29 12 -36 -25
-56 -19 -10 -35 -22 -35 -25 0 -4 -15 -7 -34 -7 -19 0 -40 -3 -47 -8 -9 -5
-10 -2 -4 12 4 10 19 50 32 88 13 37 30 81 38 96 14 27 16 27 52 15 85 -28 88
-28 106 14 9 20 28 43 41 51 29 15 41 39 26 54 -7 7 -19 2 -37 -16 -36 -33
-63 -41 -118 -33 l-45 7 6 37 c9 56 -11 71 -96 71 -56 0 -71 -3 -78 -17z m95
-29 c12 -3 20 -11 18 -17 -14 -48 -15 -67 -1 -67 27 0 27 -19 2 -62 -13 -24
-30 -63 -37 -88 -7 -25 -21 -60 -31 -78 -10 -18 -16 -38 -13 -43 10 -16 -22
-21 -47 -8 -13 7 -41 14 -63 17 -44 4 -55 9 -40 20 19 14 39 77 61 199 2 12
13 25 24 28 29 9 24 25 -10 32 -17 3 -33 10 -36 14 -7 12 1 11 48 -3 29 -9 41
-9 50 0 9 9 9 12 0 12 -21 0 -13 26 11 38 26 13 35 14 64 6z m63 -443 c0 -6
-4 -13 -10 -16 -5 -3 -10 1 -10 9 0 9 5 16 10 16 6 0 10 -4 10 -9z m-690 -289
c-3 -21 -14 -51 -24 -68 -16 -27 -22 -29 -79 -29 -43 0 -70 5 -86 17 -14 10
-23 19 -20 21 2 2 40 20 84 41 44 20 87 40 95 46 30 18 38 11 30 -28z m225
-48 c1 -31 31 -54 73 -54 12 0 22 -4 22 -8 0 -5 11 -14 25 -20 27 -12 44 -57
27 -74 -17 -17 -79 -13 -102 7 -11 10 -30 19 -41 20 -11 1 -32 13 -46 27 l-26
26 22 35 c11 19 21 44 21 57 0 13 5 20 13 17 6 -2 12 -17 12 -33z m555 -24 c0
-5 -2 -10 -4 -10 -3 0 -8 5 -11 10 -3 6 -1 10 4 10 6 0 11 -4 11 -10z m-1071
-25 c-10 -10 -22 -13 -34 -9 -18 7 -18 8 1 15 10 4 26 8 34 8 12 1 12 -1 -1
-14z m-99 -65 c0 -5 -4 -10 -10 -10 -5 0 -10 5 -10 10 0 6 5 10 10 10 6 0 10
-4 10 -10z m-265 -20 c-3 -5 -20 -10 -36 -10 -18 0 -28 4 -24 10 3 6 20 10 36
10 18 0 28 -4 24 -10z m922 -104 c53 -32 67 -32 105 -1 48 40 69 28 25 -14
-33 -30 -61 -33 -129 -15 -32 8 -63 12 -68 9 -12 -7 -16 12 -12 53 4 34 5 35
21 15 9 -12 35 -32 58 -47z m-107 12 c0 -12 -1 -19 -3 -17 -1 2 -9 12 -16 22
-12 14 -11 17 3 17 10 0 16 -8 16 -22z m-680 -66 c1 -20 1 -48 1 -62 1 -14 -2
-42 -6 -62 -6 -32 -3 -40 19 -59 31 -27 33 -39 7 -39 -14 0 -21 9 -26 31 -4
17 -15 33 -24 36 -12 3 -16 17 -17 56 -2 59 -6 87 -18 105 -11 19 0 29 34 30
28 1 30 -2 30 -36z m-90 -20 c0 -21 3 -42 7 -45 9 -10 13 -108 3 -102 -23 14
-42 185 -20 185 6 0 10 -17 10 -38z m126 -107 c16 -16 7 -19 -20 -9 -9 3 -13
10 -10 15 7 12 13 11 30 -6z m-416 -36 c0 -14 -26 -11 -39 5 -9 11 -6 12 14 8
14 -2 25 -8 25 -13z m-242 -16 c-10 -2 -26 -2 -35 0 -10 3 -2 5 17 5 19 0 27
-2 18 -5z m-124 -23 c14 -5 26 -14 26 -20 0 -14 -50 -2 -70 16 -12 12 -12 14
2 14 9 0 28 -4 42 -10z m446 -16 l25 -15 -25 5 c-14 3 -31 6 -38 6 -7 0 -10 5
-7 10 8 13 15 12 45 -6z m974 -53 c3 -4 -6 -6 -19 -3 -14 2 -25 6 -25 8 0 8
39 4 44 -5z m-549 -11 c3 -5 1 -10 -4 -10 -6 0 -11 5 -11 10 0 6 2 10 4 10 3
0 8 -4 11 -10z m585 -10 c0 -5 -4 -10 -10 -10 -5 0 -10 5 -10 10 0 6 5 10 10
10 6 0 10 -4 10 -10z m85 -30 c3 -6 -1 -7 -9 -4 -18 7 -21 14 -7 14 6 0 13 -4
16 -10z"/>
<path d="M517 1530 c-3 -8 -7 -26 -9 -40 -3 -21 -13 -28 -68 -47 -80 -27 -91
-28 -83 -7 4 12 1 15 -12 13 -10 -2 -17 -8 -14 -12 6 -12 -41 -36 -71 -37 -14
0 -36 7 -49 16 -14 10 -26 13 -32 7 -15 -15 1 -43 28 -49 33 -9 144 2 211 20
53 13 54 13 48 -8 -37 -127 -33 -242 12 -338 17 -37 39 -75 49 -86 26 -27 63
-80 63 -90 0 -12 49 -22 55 -12 3 5 -13 28 -35 51 -22 24 -43 51 -46 61 -3 10
-9 18 -14 18 -5 0 -26 35 -46 78 -36 76 -37 78 -31 172 5 89 14 122 54 209 11
25 13 41 5 65 -6 21 -11 26 -15 16z"/>
<path d="M1152 1518 c-16 -16 -15 -38 1 -38 20 0 58 30 52 41 -9 13 -39 11
-53 -3z"/>
<path d="M3751 1509 c-15 -6 -21 -13 -15 -19 12 -11 66 0 61 13 -5 15 -18 17
-46 6z"/>
<path d="M772 1449 c-54 -53 -60 -67 -40 -87 19 -19 42 -14 67 12 13 13 33 27
46 30 12 3 26 13 29 22 9 24 -42 9 -72 -22 -24 -23 -42 -31 -42 -17 0 14 74
71 87 66 8 -3 13 2 13 15 0 16 -17 32 -34 32 -1 0 -26 -23 -54 -51z"/>
<path d="M1380 1474 c0 -8 5 -12 10 -9 6 4 8 11 5 16 -9 14 -15 11 -15 -7z"/>
<path d="M2213 1474 c-3 -8 -1 -20 5 -26 16 -16 42 -2 42 22 0 24 -38 28 -47
4z"/>
<path d="M915 1471 c-9 -16 3 -31 26 -31 14 0 19 6 17 17 -4 20 -33 29 -43 14z"/>
<path d="M1190 1456 c0 -14 48 -32 57 -22 3 3 3 12 0 21 -8 19 -57 20 -57 1z"/>
<path d="M1870 1451 c-13 -26 -13 -41 1 -41 14 0 38 30 39 48 0 19 -28 14 -40
-7z"/>
<path d="M1017 1443 c-14 -4 -17 -13 -15 -36 3 -27 8 -33 32 -35 40 -5 51 10
35 47 -14 31 -18 33 -52 24z"/>
<path d="M1511 1426 c-15 -16 -19 -26 -12 -30 8 -5 8 -13 0 -27 -6 -12 -8 -24
-4 -27 11 -11 45 37 38 54 -4 12 2 13 36 8 50 -8 55 8 9 30 -39 20 -38 20 -67
-8z"/>
<path d="M50 1421 c0 -13 15 -26 45 -41 25 -12 45 -28 45 -36 0 -8 7 -17 15
-20 8 -4 15 -11 15 -18 0 -8 -26 -10 -85 -7 -81 3 -85 2 -85 -18 0 -19 6 -21
64 -21 35 0 77 -3 93 -6 23 -5 31 -2 39 16 9 21 10 21 30 3 34 -29 57 -88 45
-111 -16 -30 -125 -56 -206 -50 -58 5 -65 4 -65 -12 0 -21 19 -30 61 -30 16 0
29 -5 29 -11 0 -8 -15 -10 -45 -7 -38 5 -45 3 -45 -12 0 -19 27 -30 78 -30 39
0 132 45 132 64 0 7 19 20 42 29 47 19 68 10 68 -30 0 -13 6 -26 14 -29 8 -3
16 -14 19 -25 4 -16 14 -19 66 -19 67 0 73 7 41 47 -11 14 -20 36 -20 49 0 31
-39 34 -47 4 -6 -23 -22 -22 -35 1 -4 8 -28 58 -54 112 -33 71 -52 100 -69
107 -14 5 -30 18 -37 30 -7 11 -16 20 -21 20 -4 0 -30 16 -57 35 -57 40 -70
43 -70 16z"/>
<path d="M1243 1413 c-13 -8 -23 -24 -23 -34 0 -11 -5 -19 -11 -19 -18 0 1
-19 36 -36 19 -9 39 -13 44 -9 7 4 11 -4 11 -19 0 -57 27 -74 54 -34 10 14 12
26 6 38 -7 13 -4 25 10 43 24 31 26 51 4 43 -13 -5 -15 -1 -10 19 5 18 2 25
-8 25 -8 0 -17 -14 -21 -32 -7 -30 -8 -31 -21 -12 -34 50 -38 51 -71 27z"/>
<path d="M2656 1411 c-4 -6 -4 -16 -1 -21 4 -6 2 -16 -3 -23 -14 -18 -21 -53
-12 -66 3 -7 23 -14 43 -18 29 -4 37 -2 37 10 0 9 9 19 21 22 25 8 59 40 59
56 0 7 -9 9 -24 5 -18 -4 -23 -2 -22 11 0 9 -7 17 -19 18 -11 1 -32 6 -46 9
-16 5 -30 3 -33 -3z"/>
<path d="M1881 1378 c-12 -20 -28 -39 -36 -42 -8 -3 -15 -13 -15 -22 0 -11 5
-14 16 -10 9 3 20 6 24 6 14 0 42 66 38 87 -3 14 -9 10 -27 -19z"/>
<path d="M1146 1391 c-4 -5 -4 -16 0 -24 5 -15 -21 -27 -63 -27 -14 0 -23 -6
-23 -16 0 -10 -6 -13 -19 -9 -12 4 -21 0 -25 -11 -14 -36 12 -38 84 -9 79 32
75 28 85 73 6 28 4 32 -14 32 -11 0 -22 -4 -25 -9z"/>
<path d="M903 1383 c-13 -2 -23 -11 -23 -19 0 -8 -4 -14 -9 -14 -5 0 -11 -12
-14 -27 -4 -20 3 -34 34 -65 38 -38 39 -39 69 -23 36 19 37 23 6 50 -31 26
-44 65 -21 65 10 0 15 7 13 17 -3 19 -19 23 -55 16z m37 -103 c0 -5 -4 -10
-10 -10 -5 0 -10 5 -10 10 0 6 5 10 10 10 6 0 10 -4 10 -10z"/>
<path d="M0 1345 c0 -18 5 -25 20 -25 24 0 28 35 4 44 -23 9 -24 8 -24 -19z"/>
<path d="M705 1317 c-4 -20 -4 -44 -1 -55 4 -11 2 -31 -3 -45 -7 -17 -7 -28
-1 -32 6 -4 10 -14 10 -24 0 -10 12 -24 26 -32 23 -12 27 -12 40 6 8 11 12 26
9 33 -3 8 0 21 6 28 14 17 3 34 -22 34 -26 0 -37 -30 -16 -45 10 -7 17 -18 17
-25 0 -9 -5 -8 -18 4 -16 13 -19 31 -19 98 1 86 -16 118 -28 55z"/>
<path d="M2305 1330 c3 -5 8 -10 11 -10 2 0 4 5 4 10 0 6 -5 10 -11 10 -5 0
-7 -4 -4 -10z"/>
<path d="M756 1313 c-8 -19 8 -38 23 -29 16 10 13 46 -3 46 -8 0 -17 -8 -20
-17z"/>
<path d="M3610 1320 c0 -5 5 -10 11 -10 5 0 7 5 4 10 -3 6 -8 10 -11 10 -2 0
-4 -4 -4 -10z"/>
<path d="M1183 1304 c-15 -7 -17 -60 -3 -69 22 -14 8 -23 -20 -13 -34 11 -80
-2 -115 -35 -12 -11 -28 -16 -42 -12 -27 6 -73 -13 -73 -32 0 -13 17 -17 53
-14 27 3 31 -26 8 -55 -36 -46 -17 -63 26 -22 35 33 161 27 208 -10 13 -11 41
-23 60 -26 27 -5 35 -12 35 -28 0 -16 -5 -19 -21 -15 -26 7 -69 -8 -69 -24 0
-6 9 -13 20 -16 32 -9 23 -26 -10 -19 -22 4 -30 2 -30 -9 0 -8 5 -15 10 -15 6
0 10 -6 10 -14 0 -8 14 -16 38 -18 20 -3 38 -4 40 -2 2 1 -4 14 -13 28 -10 14
-13 26 -7 26 6 0 14 -5 18 -11 3 -6 15 -9 25 -6 16 4 19 0 19 -27 0 -20 8 -40
20 -51 20 -18 21 -18 27 3 5 19 10 21 52 16 25 -3 51 -7 58 -9 6 -2 26 0 42 5
24 7 31 5 31 -6 0 -8 7 -14 16 -14 12 0 15 6 10 23 -3 12 -6 30 -6 39 0 15 -7
17 -37 14 -21 -2 -49 -8 -63 -13 -50 -20 -55 -20 -73 -5 -16 14 -19 14 -27 2
-12 -19 -22 -7 -24 29 -1 16 -5 33 -8 37 -10 10 31 44 53 44 10 0 20 4 23 9 9
14 65 21 92 11 17 -7 32 -7 45 1 23 12 16 29 -13 29 -17 0 -18 2 -8 15 19 23
3 31 -33 16 -18 -7 -41 -14 -53 -15 -11 0 -27 -6 -35 -12 -22 -18 -57 -23 -67
-10 -5 6 -12 22 -15 34 -5 21 -3 23 19 18 32 -8 30 1 -7 36 -27 26 -30 35 -24
64 5 29 3 34 -13 34 -23 0 -33 -19 -26 -48 4 -14 0 -21 -15 -25 -21 -5 -30
-37 -11 -37 5 0 16 -13 25 -30 14 -27 14 -29 -2 -24 -42 14 -66 30 -74 52 -11
30 -39 40 -51 19 -12 -22 -71 -22 -92 -1 -23 22 -20 40 3 20 16 -14 26 -16 48
-8 17 5 27 16 27 26 -2 18 11 22 21 6 10 -16 28 -11 21 6 -4 11 6 21 39 35 25
11 45 23 45 28 0 16 -13 19 -37 10 -21 -8 -24 -7 -19 7 3 8 6 18 6 20 0 2 11
2 25 -2 19 -5 25 -2 25 9 0 9 -4 18 -8 21 -14 9 -86 16 -99 10z m-46 -140 c-3
-3 -12 -4 -19 -1 -8 3 -5 6 6 6 11 1 17 -2 13 -5z m-77 -64 c0 -5 -4 -10 -10
-10 -5 0 -10 5 -10 10 0 6 5 10 10 10 6 0 10 -4 10 -10z"/>
<path d="M1850 1280 c0 -16 40 -51 50 -45 15 9 12 26 -7 41 -21 16 -43 18 -43
4z"/>
<path d="M1508 1254 c-32 -17 -35 -29 -11 -38 11 -4 22 -1 29 8 6 9 18 16 27
16 23 0 47 11 47 21 0 14 -62 10 -92 -7z"/>
<path d="M1826 1218 c8 -45 22 -62 67 -79 21 -9 27 -18 27 -40 0 -27 2 -29 20
-19 27 14 25 34 -4 54 -40 25 -70 60 -81 91 -17 48 -37 44 -29 -7z"/>
<path d="M1943 1220 c3 -13 0 -20 -9 -20 -17 0 -18 -12 -2 -28 17 -17 58 -15
58 2 0 8 -4 18 -10 21 -5 3 -10 15 -10 26 0 11 -7 19 -16 19 -11 0 -15 -6 -11
-20z"/>
<path d="M2012 1232 c-9 -7 -8 -13 7 -26 16 -14 18 -23 10 -43 -16 -42 -11
-63 14 -63 35 1 69 35 71 72 1 31 -1 33 -36 36 -25 2 -38 8 -38 18 0 16 -9 18
-28 6z"/>
<path d="M1563 1196 c-28 -13 -29 -32 -4 -46 27 -14 31 -13 31 10 0 13 7 20
20 20 11 0 20 7 20 15 0 17 -34 18 -67 1z"/>
<path d="M2160 1190 c0 -13 7 -20 20 -20 13 0 20 7 20 20 0 13 -7 20 -20 20
-13 0 -20 -7 -20 -20z"/>
<path d="M1412 1175 c-20 -44 -15 -72 13 -79 28 -7 69 10 60 25 -4 5 -19 9
-36 9 -16 0 -29 5 -29 10 0 6 9 10 20 10 11 0 23 7 27 15 6 18 5 20 -23 29
-16 5 -23 0 -32 -19z"/>
<path d="M1681 1151 c-6 -10 -8 -21 -5 -24 9 -8 -33 -74 -51 -81 -19 -7 -19
-25 0 -33 20 -7 55 24 55 49 0 10 6 21 14 24 20 8 27 31 20 60 -7 29 -20 31
-33 5z"/>
<path d="M1761 1151 c-14 -3 -26 -11 -28 -18 -5 -13 35 -25 43 -12 3 5 14 9
25 9 12 0 19 5 17 13 -6 15 -25 18 -57 8z"/>
<path d="M1855 1120 c-8 -13 13 -40 31 -40 17 0 18 22 2 38 -15 15 -25 15 -33
2z"/>
<path d="M830 1066 c0 -9 4 -16 8 -16 18 0 52 -38 52 -58 0 -25 25 -41 51 -35
11 3 19 0 19 -6 0 -7 5 -9 10 -6 6 3 10 19 10 36 0 16 -4 29 -10 29 -5 0 -10
7 -10 15 0 9 -9 15 -23 15 -12 0 -31 6 -42 14 -35 24 -65 29 -65 12z"/>
<path d="M3302 1023 c-25 -3 -32 -9 -30 -21 3 -14 15 -17 63 -16 32 0 60 5 62
10 3 10 -41 36 -55 32 -4 0 -22 -3 -40 -5z"/>
<path d="M2050 1004 c0 -17 22 -14 28 4 2 7 -3 12 -12 12 -9 0 -16 -7 -16 -16z"/>
<path d="M1783 978 c6 -22 4 -25 -11 -21 -23 6 -55 -29 -46 -51 3 -9 10 -16
15 -16 5 0 9 -4 9 -10 0 -5 -9 -10 -19 -10 -15 0 -21 8 -23 31 l-3 31 -27 -25
c-19 -18 -28 -36 -28 -58 0 -29 2 -31 28 -25 15 4 44 9 65 13 20 3 37 9 37 14
0 5 14 15 30 24 31 16 39 42 18 63 -9 9 -6 12 14 12 42 0 43 27 2 35 -20 3
-43 9 -51 12 -13 5 -15 1 -10 -19z"/>
<path d="M1000 952 c0 -20 55 -72 76 -72 22 0 16 31 -6 37 -19 5 -19 6 -4 18
24 17 8 35 -32 35 -26 0 -34 -4 -34 -18z"/>
<path d="M1149 943 c-1 -5 -1 -11 0 -15 0 -5 -3 -8 -9 -8 -16 0 -11 -26 9 -44
25 -22 49 -11 47 22 -1 15 -5 33 -9 40 -9 13 -36 17 -38 5z"/>
<path d="M120 909 c0 -44 -32 -107 -80 -159 -36 -39 -54 -90 -32 -90 10 0 79
91 110 144 25 44 34 126 15 133 -9 3 -13 -6 -13 -28z"/>
<path d="M383 923 c-24 -5 -30 -18 -13 -28 6 -4 8 -11 5 -16 -4 -5 -21 -2 -42
6 -44 19 -43 19 -43 -4 0 -20 8 -24 66 -36 26 -5 34 -2 48 19 16 26 22 67 9
65 -5 -1 -18 -4 -30 -6z"/>
<path d="M3655 900 c3 -5 10 -10 16 -10 5 0 9 5 9 10 0 6 -7 10 -16 10 -8 0
-12 -4 -9 -10z"/>
<path d="M3812 888 c-17 -17 -15 -25 8 -31 16 -4 20 0 20 19 0 26 -10 30 -28
12z"/>
<path d="M3640 868 c0 -8 11 -21 25 -28 14 -7 25 -17 25 -22 0 -4 13 -8 29 -8
17 0 46 -9 65 -21 30 -17 36 -18 36 -6 0 19 -73 78 -103 83 -12 2 -34 6 -49
10 -21 5 -28 3 -28 -8z"/>
<path d="M3176 861 c-3 -5 12 -24 35 -42 44 -37 66 -57 89 -86 14 -17 15 -17
18 4 4 27 -17 56 -71 101 -40 32 -61 39 -71 23z"/>
<path d="M650 841 c-6 -12 -16 -21 -23 -21 -7 0 -41 -20 -75 -45 -34 -25 -68
-45 -76 -45 -7 0 -19 -7 -26 -15 -7 -8 -16 -15 -20 -15 -7 0 -165 -87 -200
-110 -8 -6 -26 -15 -40 -20 -14 -6 -32 -15 -40 -20 -15 -10 -33 -18 -97 -46
-18 -7 -33 -20 -33 -29 0 -19 20 -19 57 -1 15 8 57 28 93 45 36 17 81 41 102
54 41 25 138 82 183 107 17 9 42 20 58 24 15 3 27 11 27 16 0 6 9 10 20 10 11
0 24 8 27 18 10 26 50 60 75 64 15 2 23 10 23 22 0 27 -22 31 -35 7z"/>
<path d="M3831 784 c0 -11 3 -14 6 -6 3 7 2 16 -1 19 -3 4 -6 -2 -5 -13z"/>
<path d="M211 696 c-25 -40 -26 -46 -5 -46 9 0 18 9 21 20 5 20 22 27 77 32
16 2 31 9 34 16 3 8 -12 12 -51 12 -52 0 -57 -2 -76 -34z"/>
<path d="M3311 693 c-1 -13 -5 -23 -9 -23 -5 0 -8 -21 -8 -47 1 -45 3 -47 33
-54 45 -9 81 0 88 22 6 17 8 18 35 4 33 -17 75 -14 75 4 0 7 -16 18 -36 25
-19 7 -46 20 -60 29 -13 9 -40 17 -60 17 -27 0 -39 5 -47 23 l-11 22 0 -22z"/>
<path d="M1341 630 c-19 -11 -3 -18 70 -29 90 -14 185 -17 179 -5 -3 5 -28 9
-56 10 -29 0 -65 6 -80 12 -41 15 -99 22 -113 12z"/>
<path d="M1594 555 c-7 -17 4 -37 17 -30 12 8 12 45 -1 45 -6 0 -13 -7 -16
-15z"/>
<path d="M1790 532 c0 -53 22 -75 64 -66 40 8 48 13 41 25 -4 5 -21 9 -40 9
-31 0 -34 3 -37 32 -5 48 -28 48 -28 0z"/>
<path d="M1905 560 c-10 -16 15 -90 30 -90 18 0 18 0 4 56 -11 43 -22 54 -34
34z"/>
<path d="M1482 553 c-18 -3 -22 -9 -16 -21 4 -9 8 -30 8 -47 1 -16 6 -30 11
-30 6 0 9 6 9 13 -2 17 13 15 20 -3 7 -20 52 -19 60 1 9 22 8 24 -10 24 -8 0
-12 5 -9 10 9 14 -22 60 -38 59 -6 -1 -22 -4 -35 -6z"/>
<path d="M3486 551 c-17 -7 -16 -8 7 -24 15 -9 31 -17 36 -17 18 0 21 18 5 34
-17 18 -20 18 -48 7z"/>
<path d="M1362 530 c-53 -12 -57 -27 -10 -35 29 -6 68 19 53 33 -5 5 -25 6
-43 2z"/>
<path d="M3752 513 c3 -19 48 -32 48 -14 0 10 -31 31 -45 31 -4 0 -5 -8 -3
-17z"/>
<path d="M1135 512 c-9 -9 -5 -46 8 -72 10 -20 19 -24 42 -22 17 2 35 8 41 13
5 4 23 7 40 6 27 -2 29 0 32 41 l3 43 -80 -2 c-44 -1 -83 -4 -86 -7z m58 -49
c-7 -2 -19 -2 -25 0 -7 3 -2 5 12 5 14 0 19 -2 13 -5z"/>
<path d="M3556 481 c-4 -5 5 -21 19 -35 14 -14 34 -46 45 -71 19 -45 41 -60
39 -27 -2 50 -87 159 -103 133z"/>
<path d="M3243 449 c-7 -7 -13 -28 -13 -46 0 -19 -7 -50 -15 -70 -8 -19 -15
-45 -14 -57 0 -11 3 -15 6 -8 3 7 23 24 45 38 35 22 39 29 35 53 -3 16 -1 33
4 38 7 7 3 19 -13 37 -18 22 -25 25 -35 15z m9 -111 c-7 -7 -12 -8 -12 -2 0
14 12 26 19 19 2 -3 -1 -11 -7 -17z"/>
<path d="M3440 430 c0 -5 4 -10 10 -10 5 0 12 -11 16 -24 3 -14 12 -27 20 -30
8 -3 14 -12 14 -21 0 -8 7 -15 15 -15 20 0 19 6 -11 45 -16 21 -21 36 -14 40
6 3 8 11 5 16 -8 12 -55 12 -55 -1z"/>
<path d="M3720 433 c0 -4 15 -25 33 -45 35 -40 67 -91 78 -123 5 -14 7 -7 8
21 1 23 -6 55 -14 70 -13 26 -13 29 1 32 9 2 14 12 12 25 -3 19 -10 22 -60 25
-32 2 -58 -1 -58 -5z"/>
<path d="M3320 346 c0 -9 7 -16 16 -16 9 0 14 5 12 12 -6 18 -28 21 -28 4z"/>
<path d="M3333 298 c15 -40 17 -57 7 -63 -15 -9 -12 -35 4 -35 8 0 16 7 18 15
2 10 7 7 15 -10 11 -24 10 -25 -23 -25 -34 0 -66 -32 -44 -45 5 -3 10 -14 10
-23 0 -10 9 -34 20 -55 17 -32 18 -37 4 -37 -8 0 -12 -4 -9 -10 3 -5 17 -10
30 -10 l24 0 -15 48 c-30 92 -31 90 13 83 29 -5 39 -11 41 -29 2 -12 8 -22 13
-22 5 0 9 -5 9 -11 0 -6 10 -24 21 -41 33 -45 43 -15 14 38 -14 25 -21 51 -18
63 3 14 1 21 -9 21 -13 0 -68 75 -68 95 -1 12 -46 65 -56 65 -3 0 -4 -6 -1
-12z"/>
<path d="M3663 268 c4 -29 1 -51 -10 -69 -16 -26 -15 -29 28 -98 46 -76 67
-89 117 -75 15 4 30 7 35 6 4 -1 7 3 7 8 0 6 -4 10 -10 10 -5 0 -10 7 -10 15
0 21 -28 75 -52 101 -21 24 -50 73 -68 117 -7 15 -19 27 -27 27 -13 0 -14 -8
-10 -42z m95 -146 c17 -23 15 -41 -5 -37 -10 2 -21 4 -24 4 -5 1 -29 46 -29
56 0 9 46 -9 58 -23z"/>
<path d="M3240 270 c0 -5 5 -10 10 -10 6 0 10 5 10 10 0 6 -4 10 -10 10 -5 0
-10 -4 -10 -10z"/>
<path d="M3490 266 c0 -8 5 -18 10 -21 6 -3 10 3 10 14 0 12 -4 21 -10 21 -5
0 -10 -6 -10 -14z"/>
<path d="M1190 260 c0 -5 9 -15 20 -22 25 -16 27 -40 3 -31 -10 4 -34 17 -53
30 -30 20 -35 21 -43 7 -5 -9 -4 -21 3 -29 9 -11 9 -23 2 -45 -6 -16 -8 -31
-4 -34 13 -7 106 11 110 23 2 6 8 11 14 11 18 0 48 42 48 66 0 26 -19 42 -29
25 -6 -9 -15 -9 -35 -1 -34 12 -36 12 -36 0z m-5 -80 c13 -6 15 -9 5 -9 -8 0
-22 4 -30 9 -18 12 -2 12 25 0z"/>
<path d="M788 218 c-46 -42 -64 -77 -43 -84 6 -2 18 9 27 25 9 17 35 39 57 51
23 11 41 27 41 35 0 27 -35 16 -82 -27z"/>
<path d="M855 194 c-27 -30 -51 -58 -53 -64 -13 -38 96 34 117 78 29 61 -1 54
-64 -14z"/>
<path d="M3450 234 c0 -13 21 -44 30 -44 16 0 11 37 -6 44 -19 7 -24 8 -24 0z"/>
<path d="M3831 224 c0 -11 3 -14 6 -6 3 7 2 16 -1 19 -3 4 -6 -2 -5 -13z"/>
<path d="M2680 195 c0 -40 21 -48 37 -12 13 29 6 47 -18 47 -15 0 -19 -7 -19
-35z"/>
<path d="M2220 67 c0 -7 7 -22 15 -34 13 -19 20 -21 41 -13 40 16 105 12 126
-7 17 -15 18 -15 18 1 0 41 -19 56 -68 55 -26 -1 -55 -6 -65 -11 -13 -7 -24
-5 -36 6 -21 19 -31 20 -31 3z"/>
<path d="M1990 52 c0 -27 32 -52 66 -51 17 1 22 3 12 6 -10 2 -18 11 -18 18 0
14 -37 45 -52 45 -5 0 -8 -8 -8 -18z"/>
<path d="M1880 15 c-11 -13 -4 -15 53 -15 55 0 65 3 61 15 -8 21 -97 21 -114
0z"/>
<path d="M1248 3 c6 -2 18 -2 25 0 6 3 1 5 -13 5 -14 0 -19 -2 -12 -5z"/>
<path d="M2688 3 c7 -3 16 -2 19 1 4 3 -2 6 -13 5 -11 0 -14 -3 -6 -6z"/>
</g>
</svg>
