<?xml version="1.0" standalone="no"?>
<!DOCTYPE svg PUBLIC "-//W3C//DTD SVG 20010904//EN"
 "http://www.w3.org/TR/2001/REC-SVG-20010904/DTD/svg10.dtd">
<svg version="1.0" xmlns="http://www.w3.org/2000/svg"
 width="344.000000pt" height="256.000000pt" viewBox="0 0 344.000000 256.000000"
 preserveAspectRatio="xMidYMid meet">
<metadata>
Created by potrace 1.16, written by Peter Selinger 2001-2019
</metadata>
<g transform="translate(0.000000,256.000000) scale(0.100000,-0.100000)"
fill="#000000" stroke="none">
<path d="M2165 2471 c-23 -5 -31 -12 -33 -32 -3 -26 -3 -26 38 -16 31 9 46 8
60 -1 25 -15 30 -15 30 1 0 37 -43 59 -95 48z"/>
<path d="M2830 2442 c-59 -22 -70 -30 -70 -49 0 -17 33 -12 85 13 45 23 117
31 115 13 -5 -36 0 -39 68 -39 37 0 99 6 137 12 39 6 89 11 113 10 31 -2 42 2
42 13 0 8 -12 17 -27 21 -16 3 -33 7 -39 9 -7 2 -51 -5 -98 -15 -94 -21 -141
-18 -169 11 -23 24 -94 24 -157 1z"/>
<path d="M2356 2416 c-43 -13 -57 -32 -32 -42 21 -8 118 25 113 39 -5 17 -35
17 -81 3z"/>
<path d="M3357 2398 c-23 -24 -16 -33 18 -24 17 4 25 12 23 23 -4 24 -20 24
-41 1z"/>
<path d="M2670 2392 c-19 -9 -34 -20 -32 -24 3 -11 3 -11 50 -3 32 5 42 11 42
26 0 23 -14 23 -60 1z"/>
<path d="M2880 2384 c0 -9 7 -14 17 -12 25 5 28 28 4 28 -12 0 -21 -6 -21 -16z"/>
<path d="M1210 2375 c0 -16 9 -19 34 -9 25 9 19 24 -9 24 -16 0 -25 -6 -25
-15z"/>
<path d="M2527 2363 c-17 -16 -5 -33 22 -33 39 0 61 9 61 26 0 15 -70 21 -83
7z"/>
<path d="M2010 2342 c-41 -4 -59 -17 -44 -32 8 -8 19 -7 37 1 22 10 31 9 52
-5 27 -18 72 -18 68 -1 -4 17 -76 40 -113 37z"/>
<path d="M2443 2232 c-13 -2 -23 -7 -23 -12 0 -19 -75 -60 -110 -60 -47 0 -64
-12 -55 -39 6 -18 2 -21 -27 -21 -40 0 -67 -15 -53 -29 14 -14 35 -15 78 -6
34 6 38 11 34 31 -3 19 1 24 24 29 31 7 53 -1 44 -16 -4 -5 1 -9 9 -9 9 0 15
5 14 10 -2 6 8 16 22 23 14 7 24 21 23 31 -1 12 9 22 28 29 44 17 38 47 -8 39z"/>
<path d="M2877 2213 c-11 -10 -115 -25 -197 -28 -41 -1 -86 -6 -100 -10 -14
-5 -33 -8 -43 -6 -16 2 -17 -1 -7 -18 11 -22 44 -28 55 -10 4 6 37 10 84 8 42
-1 96 3 121 9 25 7 63 15 85 20 26 5 41 14 43 25 3 17 -27 25 -41 10z"/>
<path d="M3030 2184 c-51 -22 -68 -54 -28 -54 12 0 34 12 50 26 26 26 28 26
53 10 24 -16 25 -16 25 9 0 22 -4 25 -32 25 -18 -1 -49 -8 -68 -16z"/>
<path d="M3187 2193 c-2 -5 -2 -25 0 -45 4 -29 10 -38 24 -38 20 0 26 15 9 25
-5 3 -10 19 -10 36 0 27 -13 39 -23 22z"/>
<path d="M3262 2182 c-8 -21 8 -29 71 -36 61 -7 69 0 37 29 -24 22 -100 27
-108 7z"/>
<path d="M2092 2144 c2 -11 11 -20 22 -22 13 -3 17 1 14 14 -2 11 -11 20 -22
22 -13 3 -17 -1 -14 -14z"/>
<path d="M1683 2134 c-7 -3 -13 -14 -13 -24 0 -14 9 -18 53 -18 56 -2 145 -10
190 -18 17 -4 27 -1 27 7 0 6 8 18 18 25 20 16 29 14 -113 18 -55 1 -111 5
-125 9 -14 3 -31 4 -37 1z"/>
<path d="M1985 2119 c-4 -6 -4 -13 -1 -16 8 -8 36 5 36 17 0 13 -27 13 -35 -1z"/>
<path d="M2060 2105 c0 -8 -4 -15 -10 -15 -5 0 -10 -9 -10 -20 0 -11 6 -20 13
-20 24 0 35 15 30 43 -6 28 -23 38 -23 12z"/>
<path d="M2942 2098 c-7 -7 -12 -18 -12 -25 0 -7 -9 -18 -20 -25 -25 -16 -26
-28 -2 -28 20 0 76 66 67 80 -8 13 -18 13 -33 -2z"/>
<path d="M1135 2093 c-113 -3 -148 -7 -182 -23 -51 -24 -93 -89 -93 -143 0
-33 -2 -36 -18 -26 -14 9 -30 8 -67 -3 -40 -11 -49 -18 -47 -34 6 -37 12 -45
48 -60 33 -14 38 -14 53 0 14 15 14 16 -4 16 -11 0 -31 9 -45 19 l-25 19 25 6
c77 16 77 16 74 -23 -2 -32 -17 -80 -44 -146 -27 -63 -47 -132 -42 -145 2 -8
14 -25 26 -38 l21 -24 -168 3 c-119 2 -171 -1 -179 -9 -20 -20 -77 -14 -102
11 -28 27 -83 67 -92 67 -4 0 -16 -8 -27 -17 -18 -17 -19 -17 -28 0 -7 12 -17
15 -35 11 -15 -4 -24 -2 -24 6 0 6 -4 8 -10 5 -5 -3 -10 -15 -10 -26 0 -15 -7
-19 -35 -19 -47 0 -49 -29 -2 -31 60 -3 65 -4 73 -11 17 -17 59 -7 81 20 l23
27 -6 -32 c-6 -29 -4 -33 22 -39 16 -4 63 -7 104 -7 288 3 417 0 439 -9 17 -6
46 -6 86 1 35 7 166 10 317 9 l257 -3 30 -29 c17 -17 31 -34 31 -39 0 -4 -21
-34 -46 -64 -25 -31 -51 -68 -58 -82 -19 -37 -28 -92 -17 -105 9 -11 87 -230
98 -273 3 -15 -1 -23 -15 -27 -28 -9 -33 -58 -9 -96 10 -16 24 -30 31 -30 17
0 53 -40 58 -64 2 -11 19 -23 43 -31 35 -12 201 -55 211 -55 11 0 2 -20 -8
-20 -7 0 -24 -9 -38 -20 -22 -17 -42 -20 -177 -20 -169 0 -260 10 -404 46
-101 25 -177 32 -198 20 -28 -17 -2 -39 78 -66 46 -16 96 -40 110 -53 27 -24
75 -46 146 -68 22 -6 61 -23 88 -36 49 -26 77 -25 77 2 0 11 6 15 18 11 9 -2
148 -10 307 -16 160 -6 315 -16 345 -22 30 -6 151 -13 268 -15 190 -5 218 -4
253 12 36 16 48 17 142 6 56 -7 194 -17 307 -21 113 -5 215 -12 228 -16 22 -6
28 2 14 22 -13 20 -55 26 -232 34 -96 5 -239 12 -318 16 -110 5 -148 4 -167
-6 -19 -10 -70 -12 -242 -6 -218 8 -294 12 -713 40 -206 13 -226 13 -238 -2
-11 -15 -17 -14 -65 10 -28 14 -77 33 -108 42 -50 14 -108 50 -98 60 2 3 45
-1 94 -9 50 -7 143 -17 208 -21 92 -5 120 -10 127 -23 7 -13 12 -14 29 -3 12
6 32 12 46 12 31 0 91 29 126 62 15 14 34 28 44 31 9 4 16 16 15 29 -4 47 -1
53 18 35 85 -81 160 -101 347 -93 278 13 462 5 605 -28 36 -8 90 -17 121 -21
49 -6 57 -5 61 12 3 10 9 26 13 36 6 13 0 20 -24 28 -18 6 -30 14 -27 16 3 3
28 -6 55 -21 65 -34 129 -56 163 -56 30 0 58 23 58 49 0 28 -10 31 -31 10 -23
-23 -42 -20 -154 26 -44 18 -98 36 -120 40 -22 3 -58 12 -80 20 -73 25 -179
48 -253 55 -39 4 -75 9 -78 13 -3 3 -1 15 6 26 8 16 19 20 42 18 28 -2 33 2
39 28 10 42 60 176 103 275 37 86 43 117 27 148 -13 25 -34 133 -27 140 7 6
106 -87 106 -100 0 -4 24 -31 53 -60 47 -47 117 -141 117 -158 0 -3 11 -59 25
-123 17 -83 23 -134 19 -175 l-5 -57 39 -18 c78 -35 237 -97 250 -97 6 0 12 8
12 18 0 11 -18 26 -50 41 -27 13 -52 32 -56 43 -5 16 -13 19 -45 16 -39 -4
-40 -3 -33 26 5 25 2 34 -21 52 -28 22 -28 22 -6 33 26 15 27 36 1 94 -25 57
-62 198 -54 206 3 3 15 -6 26 -22 17 -23 27 -27 68 -27 41 0 52 4 69 26 12 15
21 33 21 40 0 8 20 34 45 58 42 42 53 64 39 79 -9 8 -94 -87 -117 -129 -15
-30 -22 -34 -56 -34 -30 0 -42 5 -55 25 -20 31 -21 125 -1 191 8 27 15 63 15
79 0 17 7 57 15 90 9 32 18 86 22 119 3 34 11 66 17 71 6 6 26 30 44 55 25 35
42 47 75 55 27 7 43 16 45 28 3 16 -1 17 -32 11 -44 -8 -48 9 -6 26 17 7 30
17 30 22 0 17 -33 21 -54 7 -13 -8 -59 -16 -116 -19 l-95 -5 2 -27 c1 -17 -3
-28 -11 -28 -6 0 -19 -29 -29 -64 -17 -64 -83 -204 -73 -155 18 86 27 229 16
249 -20 38 -90 94 -174 139 -99 53 -106 59 -83 72 18 11 23 29 8 29 -5 0 -22
5 -37 10 -26 10 -26 11 -9 30 20 22 16 34 -8 25 -20 -8 -31 -53 -16 -71 9 -11
7 -14 -9 -14 -16 0 -20 4 -15 17 6 14 -2 15 -73 10 -94 -6 -114 -13 -114 -38
0 -10 -1 -20 -2 -20 -2 -1 -68 -5 -148 -10 -80 -5 -165 -11 -190 -14 -58 -8
-179 29 -247 76 -47 33 -50 33 -193 41 -186 10 -409 25 -435 30 -11 2 -83 3
-160 1z m325 -54 c69 -6 189 -13 267 -17 126 -6 144 -9 165 -29 69 -64 224
-104 334 -85 38 6 137 14 219 17 89 4 172 12 204 21 l53 16 103 -52 c56 -29
127 -73 158 -99 53 -44 56 -48 56 -93 1 -25 -6 -82 -14 -125 -19 -97 -20 -163
-2 -163 6 0 1 -6 -13 -13 -62 -31 -46 -104 46 -204 51 -55 53 -61 54 -113 0
-30 8 -77 19 -105 38 -103 63 -186 57 -192 -3 -4 -6 -1 -6 7 0 9 -3 10 -14 1
-17 -14 -23 -1 -36 83 -15 98 -20 116 -45 167 -27 53 -259 309 -279 309 -31 0
-38 -27 -27 -102 7 -40 17 -90 23 -110 10 -34 8 -44 -19 -100 -17 -35 -40 -90
-52 -123 -13 -33 -29 -75 -37 -93 -8 -18 -14 -42 -14 -52 0 -15 -7 -20 -25
-20 -14 0 -25 2 -25 5 0 3 13 32 29 63 65 127 71 147 71 236 0 57 -6 101 -19
138 -11 29 -29 89 -41 133 -12 44 -29 91 -37 104 l-16 25 -21 -25 c-35 -42
-139 -99 -205 -114 -18 -4 -44 -13 -59 -21 -28 -14 -197 -10 -217 5 -5 5 -32
12 -60 16 -27 4 -65 13 -84 21 -19 8 -58 17 -87 20 -47 6 -55 4 -76 -18 -22
-25 -23 -29 -15 -129 4 -57 9 -135 12 -174 2 -38 14 -104 25 -146 l22 -75 -31
-33 c-31 -33 -31 -33 -21 -7 21 57 13 132 -30 266 -11 36 -32 103 -47 150 -34
110 -52 150 -69 150 -8 0 -22 13 -32 30 -10 16 -30 39 -45 50 -30 24 -61 76
-53 89 10 15 -167 154 -243 191 -115 56 -127 58 -170 16 -164 -158 -168 -161
-232 -162 -52 -1 -59 1 -54 15 14 35 73 209 88 261 11 35 13 58 7 64 -17 17
-11 41 18 79 27 37 49 49 39 22 -10 -24 13 -29 34 -6 10 11 19 25 19 30 0 11
213 21 285 14 22 -3 96 -9 165 -14z m1175 -54 c-16 -8 -48 -14 -70 -14 l-40 1
40 13 c22 8 54 13 70 13 l30 0 -30 -13z m667 -222 c-7 -3 -21 -22 -32 -44 -11
-21 -32 -49 -46 -62 -23 -21 -27 -36 -35 -113 -10 -102 -26 -203 -41 -255 -6
-20 -14 -71 -18 -115 -4 -43 -8 -63 -9 -42 -1 29 -14 51 -65 112 -56 65 -86
113 -74 119 52 27 63 38 66 67 2 21 0 30 -7 25 -6 -3 -11 1 -11 9 0 9 4 16 9
16 5 0 14 15 21 33 8 17 18 39 25 47 12 17 30 69 40 118 4 17 10 33 13 33 4 1
16 3 28 4 64 7 94 17 94 32 0 13 -10 15 -55 11 -31 -3 -50 -1 -43 3 7 5 45 8
83 8 39 0 64 -3 57 -6z m-2077 -68 c70 -31 149 -84 167 -110 4 -5 4 -13 -1
-18 -12 -12 -39 2 -46 24 -4 13 -16 19 -35 19 -15 0 -56 13 -90 29 l-62 30
-45 -18 c-49 -19 -133 -88 -133 -108 0 -24 31 -9 98 49 23 20 43 28 70 28 37
0 102 -31 102 -49 0 -14 45 -61 59 -61 6 0 11 10 12 23 l0 22 16 -22 c11 -17
25 -23 53 -23 33 0 37 3 33 20 -8 30 13 24 37 -10 l21 -29 -283 -4 c-156 -2
-295 -7 -310 -12 -17 -4 -28 -3 -28 3 0 5 13 12 29 15 18 4 32 14 36 27 3 11
30 42 58 69 113 105 152 140 159 141 4 0 41 -16 83 -35z m1397 -361 c10 -32
27 -88 39 -124 31 -102 28 -189 -12 -280 -18 -41 -44 -90 -58 -109 -45 -62
-124 -131 -148 -131 -21 0 -22 -3 -13 -20 9 -16 21 -20 68 -20 69 -1 225 -23
307 -44 33 -9 83 -21 110 -27 65 -15 95 -29 95 -44 0 -7 10 -19 23 -28 35 -24
15 -28 -49 -11 -90 25 -142 34 -229 41 -44 3 -84 9 -90 13 -5 4 -23 10 -38 14
-15 4 -38 18 -50 32 -16 19 -30 25 -57 23 -61 -4 -174 13 -192 28 -12 11 -52
15 -171 16 -113 2 -158 6 -170 16 -9 7 -24 10 -33 7 -9 -4 -32 3 -51 14 -26
15 -39 18 -53 10 -34 -18 -50 -12 -50 20 0 23 7 33 30 45 37 19 39 50 10 145
-11 36 -20 90 -20 120 0 30 -4 69 -9 87 -5 17 -11 69 -12 115 l-4 82 44 9 c31
6 53 4 81 -7 125 -50 333 -72 419 -45 61 20 195 81 220 101 13 10 29 17 35 15
5 -2 18 -30 28 -63z m-1025 -34 c9 0 -14 -29 -52 -67 -60 -59 -66 -69 -62 -97
l6 -31 -14 30 c-16 37 -8 61 43 123 43 54 56 65 60 52 2 -6 11 -10 19 -10z
m72 -84 c11 -29 27 -80 35 -112 9 -33 25 -85 36 -116 29 -82 27 -162 -5 -204
-29 -38 -68 -59 -126 -69 -39 -7 -40 -6 -30 14 7 12 23 28 36 37 14 9 25 23
25 30 0 8 6 23 12 34 16 25 1 54 -31 58 -18 3 -21 8 -17 30 4 18 -1 38 -16 62
-36 57 -68 130 -68 156 0 15 16 39 46 66 25 24 51 48 57 55 19 20 25 15 46
-41z m-139 -211 c0 -11 9 -26 20 -33 20 -12 28 -52 10 -52 -5 0 -15 10 -21 22
-11 21 -15 34 -34 108 l-6 25 15 -25 c8 -14 15 -34 16 -45z m90 -155 c0 -5 -5
-10 -11 -10 -5 0 -7 5 -4 10 3 6 8 10 11 10 2 0 4 -4 4 -10z m-80 -70 c0 -5
-4 -10 -10 -10 -5 0 -10 5 -10 10 0 6 5 10 10 10 6 0 10 -4 10 -10z m35 0 c-3
-5 -10 -10 -16 -10 -5 0 -9 5 -9 10 0 6 7 10 16 10 8 0 12 -4 9 -10z m185 -50
c0 -5 -5 -10 -11 -10 -5 0 -7 5 -4 10 3 6 8 10 11 10 2 0 4 -4 4 -10z m804
-15 c-9 -14 -26 -25 -37 -25 -11 0 -17 3 -14 7 7 6 59 41 65 42 1 1 -5 -10
-14 -24z m616 -42 c0 -7 -9 -13 -19 -13 -22 0 -41 22 -23 28 6 2 8 10 5 19 -5
12 -2 12 15 -3 12 -10 22 -24 22 -31z m-1418 -15 c2 -13 10 -23 18 -23 9 0 14
7 12 18 -4 21 -2 21 48 1 25 -10 40 -23 40 -33 0 -9 5 -22 12 -29 17 -17 -23
-16 -66 2 -19 8 -59 19 -90 26 -31 6 -56 13 -56 16 0 2 6 13 12 24 18 29 66
27 70 -2z m-122 2 c0 -5 -4 -10 -10 -10 -5 0 -10 5 -10 10 0 6 5 10 10 10 6 0
10 -4 10 -10z m544 -30 c90 -1 113 -5 135 -21 20 -14 51 -21 130 -27 61 -4
106 -12 108 -18 5 -15 -407 -30 -434 -16 -10 5 -36 13 -57 16 -36 7 -106 49
-106 65 0 3 26 5 58 5 31 -1 106 -3 166 -4z"/>
<path d="M3160 1668 c-11 -12 -20 -34 -20 -50 0 -15 -4 -28 -10 -28 -5 0 -10
-7 -10 -15 0 -10 10 -15 30 -15 30 0 39 17 20 36 -7 7 -4 19 10 36 37 48 20
79 -20 36z"/>
<path d="M1810 1280 c0 -19 5 -21 43 -18 29 2 42 8 42 18 0 10 -13 16 -42 18
-38 3 -43 1 -43 -18z"/>
<path d="M2477 1264 c-14 -15 -6 -34 14 -34 14 0 19 5 17 17 -3 18 -20 27 -31
17z"/>
<path d="M1910 788 c0 -42 22 -51 28 -11 2 16 12 22 40 25 20 3 38 2 40 -2 11
-27 32 -44 42 -34 30 30 -28 64 -107 62 l-43 0 0 -40z"/>
<path d="M2138 808 c-24 -13 -35 -24 -31 -34 7 -20 116 -20 133 0 9 12 39 14
160 11 123 -4 150 -2 160 10 7 9 11 18 8 20 -3 3 -77 7 -166 9 -121 2 -166 0
-179 -10 -15 -10 -21 -10 -33 1 -12 10 -21 9 -52 -7z"/>
<path d="M1967 736 c-6 -15 11 -36 29 -36 17 0 24 26 11 39 -15 15 -34 14 -40
-3z"/>
<path d="M1910 714 c0 -8 5 -12 10 -9 6 4 8 11 5 16 -9 14 -15 11 -15 -7z"/>
<path d="M2050 705 c0 -11 12 -15 50 -15 38 0 50 4 50 15 0 11 -12 15 -50 15
-38 0 -50 -4 -50 -15z"/>
<path d="M2712 598 c5 -15 27 -18 31 -3 1 5 -6 11 -17 13 -12 3 -17 -1 -14
-10z"/>
<path d="M558 1889 c-10 -5 -44 -11 -75 -13 -32 -2 -84 -9 -117 -16 -42 -8
-62 -8 -69 -1 -15 15 -104 13 -150 -3 -20 -8 -40 -10 -43 -5 -3 5 -27 9 -55 9
-42 0 -49 -3 -49 -20 0 -13 7 -20 19 -20 11 0 23 -4 26 -10 8 -14 61 -13 101
2 27 9 35 9 49 -5 21 -22 43 -21 140 4 44 12 112 25 150 29 87 10 105 17 105
41 0 21 -7 23 -32 8z"/>
<path d="M655 1870 c-3 -5 -15 -10 -26 -10 -23 0 -36 -27 -21 -42 12 -12 76
23 86 47 6 17 -29 22 -39 5z"/>
<path d="M635 1611 c-12 -12 -81 -14 -146 -5 -35 4 -57 1 -93 -15 -25 -12 -46
-26 -46 -31 0 -11 58 -40 82 -40 29 0 58 19 58 36 0 12 5 14 18 8 22 -11 131
-8 146 5 6 5 32 11 56 13 33 2 46 8 48 21 3 15 -5 17 -55 17 -33 0 -63 -4 -68
-9z"/>
<path d="M0 1456 c0 -14 5 -26 10 -26 6 0 10 9 10 19 0 11 -4 23 -10 26 -6 4
-10 -5 -10 -19z"/>
<path d="M948 1334 c-18 -17 -5 -24 45 -24 28 -1 81 -7 117 -15 39 -9 122 -14
208 -15 131 0 143 1 140 18 -3 15 -23 18 -183 24 -99 3 -211 10 -250 13 -38 4
-73 3 -77 -1z"/>
<path d="M90 1002 c0 -13 25 -22 62 -22 19 0 28 4 26 13 -5 14 -88 23 -88 9z"/>
<path d="M247 994 c-17 -17 -4 -24 44 -24 36 0 49 4 47 13 -5 13 -79 22 -91
11z"/>
<path d="M1197 793 c-5 -4 -32 -10 -60 -13 -39 -4 -53 -9 -55 -22 -3 -15 4
-18 45 -18 27 0 58 6 69 14 11 9 30 12 48 9 24 -5 27 -3 24 13 -3 20 -56 32
-71 17z"/>
<path d="M1286 752 c-9 -15 13 -27 72 -40 70 -16 72 -15 72 7 0 14 -10 20 -37
24 -21 3 -52 9 -69 12 -18 4 -34 3 -38 -3z"/>
<path d="M2906 666 c3 -8 15 -17 27 -20 36 -10 135 -7 142 4 8 14 -6 17 -97
25 -65 5 -77 3 -72 -9z"/>
<path d="M1047 434 c-13 -13 5 -24 39 -24 24 0 34 5 34 15 0 10 -10 15 -33 15
-19 0 -37 -3 -40 -6z"/>
<path d="M593 396 c-40 -12 -63 -25 -63 -34 0 -12 8 -13 43 -6 23 5 77 8 120
8 56 -1 77 2 77 11 0 33 -100 45 -177 21z"/>
<path d="M3008 262 c-32 -2 -58 -7 -58 -13 0 -14 46 -29 91 -29 32 0 39 3 39
19 0 25 -4 27 -72 23z"/>
<path d="M2524 200 c-24 -9 -84 -81 -84 -100 0 -9 10 -11 32 -6 43 8 55 21 38
41 -18 21 8 21 39 -2 21 -14 25 -14 35 -1 15 20 56 30 49 13 -2 -8 -11 -16
-19 -19 -21 -8 -17 -36 6 -36 28 0 53 42 44 75 -4 15 -12 28 -18 30 -31 9
-103 12 -122 5z"/>
<path d="M2685 199 c-4 -5 -3 -19 0 -30 5 -16 12 -19 31 -15 36 9 31 -20 -6
-33 -16 -5 -30 -15 -30 -21 0 -19 30 -23 49 -6 10 9 23 16 29 16 7 0 12 16 12
41 0 39 -1 41 -25 35 -14 -4 -25 -2 -25 3 0 13 -28 22 -35 10z"/>
<path d="M3320 201 c-21 -4 -36 -13 -38 -23 -3 -13 8 -17 58 -20 66 -3 75 1
65 32 -7 21 -20 23 -85 11z"/>
<path d="M2818 159 c-12 -6 -18 -22 -18 -42 l1 -32 18 21 c15 19 19 20 27 6
15 -22 34 -6 34 29 0 24 -4 29 -22 29 -13 0 -31 -5 -40 -11z"/>
<path d="M2020 131 c0 -23 25 -51 45 -51 27 0 45 12 45 30 0 25 -20 36 -31 19
-8 -12 -12 -11 -23 4 -18 23 -36 22 -36 -2z"/>
<path d="M2162 93 c-12 -14 -22 -26 -22 -28 0 -1 29 -2 65 -2 69 1 81 11 43
37 -34 22 -62 20 -86 -7z"/>
<path d="M2213 27 c-60 -14 -53 -27 13 -27 46 0 55 3 52 17 -4 21 -14 23 -65
10z"/>
<path d="M2030 15 c0 -12 13 -15 55 -15 30 0 55 4 55 9 0 13 -27 21 -71 21
-28 0 -39 -4 -39 -15z"/>
</g>
</svg>
