<?xml version="1.0" standalone="no"?>
<!DOCTYPE svg PUBLIC "-//W3C//DTD SVG 20010904//EN"
 "http://www.w3.org/TR/2001/REC-SVG-20010904/DTD/svg10.dtd">
<svg version="1.0" xmlns="http://www.w3.org/2000/svg"
 width="384.000000pt" height="256.000000pt" viewBox="0 0 384.000000 256.000000"
 preserveAspectRatio="xMidYMid meet">
<metadata>
Created by potrace 1.16, written by Peter Selinger 2001-2019
</metadata>
<g transform="translate(0.000000,256.000000) scale(0.100000,-0.100000)"
fill="#000000" stroke="none">
<path d="M506 2398 c-9 -12 -16 -29 -16 -36 0 -7 -9 -53 -20 -100 -12 -48 -25
-105 -30 -127 -5 -22 -13 -60 -19 -85 -5 -25 -15 -74 -21 -110 -21 -112 -60
-231 -85 -256 -16 -16 -36 -24 -58 -24 -26 0 -39 -6 -51 -25 -25 -38 -19 -95
11 -95 27 0 7 -25 -47 -57 -45 -27 -64 -33 -112 -33 -51 0 -58 -2 -58 -20 0
-18 7 -20 60 -20 65 0 113 19 168 65 l31 26 21 -33 c11 -18 20 -46 20 -61 0
-15 11 -50 25 -77 14 -27 25 -52 25 -54 0 -8 -35 7 -142 58 -52 25 -104 46
-116 46 -26 0 -30 -28 -5 -36 17 -5 160 -72 214 -100 26 -14 84 -10 94 6 2 4
-10 34 -27 66 -18 32 -35 76 -39 99 -4 22 -13 55 -20 73 -13 31 -12 35 6 48
37 27 158 -9 241 -72 17 -13 45 -29 62 -35 18 -6 32 -14 32 -17 1 -20 34 -45
73 -57 42 -13 47 -12 68 6 25 21 51 29 88 26 38 -3 37 22 -2 38 -35 14 -54 32
-45 41 3 2 43 15 89 29 46 13 91 32 99 42 19 23 145 133 153 133 3 0 21 15 40
34 55 53 126 98 144 92 24 -10 53 23 53 59 0 18 -10 45 -22 60 -19 24 -22 25
-30 10 -7 -12 -5 -22 7 -36 15 -15 15 -21 5 -34 -7 -8 -19 -15 -27 -15 -17 0
-89 -48 -149 -100 -23 -19 -63 -54 -90 -76 -27 -23 -65 -55 -84 -71 -45 -39
-66 -49 -154 -78 -87 -28 -191 -34 -257 -14 -58 18 -79 35 -79 65 0 14 -10 30
-25 40 -13 9 -27 26 -30 37 -3 12 -10 38 -16 57 -7 24 -7 43 0 62 l10 26 93
-5 93 -5 73 72 c40 39 85 77 100 83 15 7 48 25 74 40 68 41 146 67 198 67 26
0 87 -15 145 -36 124 -44 120 -43 120 -19 0 15 -14 25 -60 41 -71 25 -92 33
-123 45 -13 5 -50 9 -82 9 -57 0 -138 -28 -220 -74 -14 -8 -50 -29 -81 -46
-31 -17 -69 -48 -84 -68 -15 -21 -38 -45 -51 -55 -30 -23 -108 -24 -158 -3
-22 9 -43 13 -46 9 -14 -16 -33 -79 -40 -133 l-7 -55 49 -57 c28 -32 48 -58
45 -58 -3 0 -29 11 -59 25 -71 33 -127 33 -168 -1 -17 -15 -32 -25 -33 -23 -1
2 -8 14 -15 27 -17 30 -1 52 37 52 35 1 78 40 101 93 10 23 30 96 44 162 15
66 33 152 42 190 9 39 25 111 35 160 28 136 28 135 47 135 9 0 64 -18 122 -41
58 -22 127 -49 153 -59 27 -11 54 -23 60 -28 12 -9 185 -73 247 -91 77 -22
182 -66 325 -135 83 -40 177 -81 210 -90 122 -37 332 -105 380 -125 28 -11 91
-36 140 -57 50 -20 119 -40 156 -44 62 -8 139 -41 139 -61 0 -5 -19 -23 -42
-39 -88 -64 -160 -142 -174 -189 -8 -26 -32 -66 -55 -91 -23 -25 -54 -67 -70
-95 -16 -27 -44 -67 -63 -87 -19 -21 -37 -47 -41 -58 -3 -11 -13 -20 -20 -20
-8 0 -17 -10 -20 -23 -4 -13 -20 -31 -36 -41 -16 -10 -37 -28 -45 -42 -9 -13
-25 -24 -35 -24 -10 0 -36 -15 -56 -33 -31 -27 -43 -32 -63 -26 -14 4 -45 13
-70 20 -56 16 -100 47 -100 70 0 10 -9 21 -20 24 -40 13 3 83 90 150 81 62
100 82 106 114 5 24 41 71 111 143 7 7 18 19 25 26 7 7 22 23 34 35 21 22 47
72 59 114 7 25 123 86 194 102 24 5 48 14 53 19 18 18 -2 33 -35 27 -36 -7
-156 -53 -174 -68 -9 -6 -13 -6 -13 2 0 6 5 11 10 11 6 0 10 7 10 15 0 8 -3
15 -8 15 -4 0 -18 10 -32 23 -14 13 -68 49 -120 82 -84 51 -102 59 -158 63
-56 4 -69 1 -125 -29 -34 -18 -80 -44 -102 -58 -34 -21 -51 -25 -114 -24 -85
2 -95 -2 -172 -70 -50 -44 -57 -55 -62 -96 -3 -25 -17 -69 -31 -98 -14 -28
-26 -56 -26 -61 0 -6 -14 -22 -32 -36 -30 -23 -31 -26 -16 -43 8 -10 19 -35
22 -56 7 -36 6 -37 -13 -25 -14 9 -24 9 -31 2 -16 -16 -3 -39 33 -55 18 -8 31
-20 30 -27 -5 -24 38 -90 68 -102 16 -7 36 -21 43 -31 7 -10 25 -28 40 -40 27
-21 27 -21 41 -1 9 12 31 22 57 26 39 6 166 43 212 62 19 7 19 7 0 -25 -10
-18 -27 -37 -36 -42 -24 -13 -23 -49 0 -49 22 0 52 -30 52 -52 0 -9 11 -23 25
-32 13 -9 42 -35 64 -57 37 -39 42 -41 80 -35 25 4 41 2 41 -4 0 -5 8 -10 19
-10 12 0 20 9 24 28 3 16 17 36 31 46 21 13 24 14 20 1 -5 -12 3 -15 39 -15
27 0 49 -5 54 -13 13 -22 130 -77 163 -77 38 0 85 33 101 71 13 33 29 38 29 9
0 -18 7 -20 61 -20 46 0 70 -6 103 -25 37 -22 48 -23 94 -16 38 6 58 15 69 31
14 19 22 22 59 16 36 -4 44 -3 44 10 0 8 -13 20 -30 25 -16 6 -30 15 -30 20 0
13 42 6 58 -8 16 -16 29 -16 37 -3 10 15 25 12 25 -6 0 -9 -16 -34 -35 -57
-28 -32 -34 -47 -30 -68 6 -25 3 -27 -29 -31 -30 -3 -36 -1 -36 15 0 12 -6 17
-17 15 -29 -5 -34 -65 -12 -128 11 -30 24 -71 29 -90 5 -19 15 -39 23 -45 9
-5 25 -17 37 -25 12 -8 31 -31 43 -50 11 -19 38 -55 58 -80 20 -25 42 -55 48
-67 6 -13 30 -32 52 -43 22 -12 42 -27 46 -35 7 -21 33 -19 33 2 0 9 -9 26
-20 38 -19 20 -19 23 -5 35 14 11 20 8 44 -20 24 -29 27 -40 23 -81 -5 -51 5
-64 41 -55 29 7 57 56 62 108 2 24 9 88 15 143 7 55 12 136 14 181 1 66 6 86
24 109 24 31 31 102 10 110 -14 6 -15 32 -3 142 4 42 13 77 21 84 15 13 19 59
5 59 -5 0 -15 39 -22 86 -14 93 -42 144 -80 144 -28 0 -23 -26 10 -49 32 -23
47 -81 29 -114 -9 -17 -6 -23 16 -40 34 -24 34 -55 -1 -68 -14 -5 -33 -7 -41
-4 -8 3 -28 -9 -48 -31 -20 -20 -34 -29 -34 -21 0 8 -7 21 -16 28 -14 11 -18
11 -29 -4 -14 -19 -25 -13 -25 14 0 27 -21 34 -37 13 -13 -17 -15 -17 -26 -3
-16 21 -117 34 -117 14 0 -8 20 -18 55 -25 42 -9 59 -18 76 -41 12 -17 20 -31
18 -33 -2 -1 -31 -10 -64 -18 -65 -18 -95 -11 -95 23 0 25 -25 35 -47 18 -12
-10 -15 -10 -9 -1 13 22 -24 25 -65 6 -21 -11 -39 -26 -39 -34 -2 -68 -133
-98 -190 -43 -13 13 -13 16 4 29 11 8 30 14 42 14 11 0 38 11 58 25 21 14 56
35 79 46 23 12 46 28 50 35 11 19 30 17 60 -6 33 -26 57 -26 57 1 0 36 19 61
41 54 15 -5 22 -1 26 14 3 12 13 21 24 21 22 0 25 23 5 39 -15 12 -36 6 -91
-28 -17 -10 -55 -21 -85 -25 -54 -7 -66 -4 -140 33 -23 11 -52 1 -48 -17 2 -9
24 -22 56 -31 35 -10 52 -20 50 -30 -3 -13 -70 -59 -109 -73 -26 -10 -59 19
-59 53 0 22 -5 29 -20 29 -10 0 -25 -10 -31 -23 -7 -12 -16 -25 -21 -28 -14
-9 -58 13 -58 29 0 8 -17 12 -52 12 -49 0 -50 1 -35 18 10 10 17 24 17 30 0 7
5 12 11 12 7 0 17 8 24 17 11 15 15 15 29 4 21 -17 30 -9 21 18 -4 15 -15 21
-33 21 -36 -1 -77 -32 -69 -54 5 -12 1 -16 -14 -16 -19 0 -21 -5 -17 -42 3
-30 0 -46 -10 -54 -16 -12 -10 -44 8 -44 6 0 14 8 17 17 7 19 53 62 66 63 4 0
6 -12 5 -27 -3 -23 1 -29 22 -31 14 -2 29 -8 34 -13 6 -5 25 -9 43 -9 39 0 40
-6 10 -42 l-22 -27 -40 19 c-22 11 -45 19 -51 20 -7 0 -14 9 -17 20 -3 11 -10
20 -15 20 -12 0 -27 -39 -23 -59 2 -10 -2 -10 -14 3 -13 13 -20 14 -31 5 -8
-6 -14 -17 -14 -25 0 -20 19 -27 35 -14 12 10 15 10 15 -2 0 -16 -50 -48 -74
-48 -27 0 -156 67 -156 81 0 11 93 -3 122 -17 15 -8 29 -10 32 -5 11 18 -5 39
-37 48 -18 5 -33 15 -35 23 -3 18 51 50 84 50 27 0 28 3 14 30 -7 13 -6 19 6
24 12 5 15 14 10 40 -6 32 -4 36 29 52 40 19 49 54 13 54 -21 0 -21 0 -2 21
12 14 25 18 42 14 12 -3 28 -2 35 2 28 18 66 13 127 -18 97 -48 98 -49 116
-49 9 0 29 -7 44 -17 27 -15 30 -15 65 5 46 28 47 27 39 -4 -6 -24 -5 -25 27
-22 31 3 35 7 45 48 13 55 47 80 90 65 29 -10 44 -33 22 -32 -50 2 -78 -4 -78
-18 0 -18 34 -37 54 -29 8 3 27 -4 42 -15 27 -22 93 -29 95 -11 1 6 2 16 3 23
0 6 -25 36 -57 66 -53 50 -61 55 -107 55 -61 1 -79 -15 -84 -74 -5 -57 -6 -59
-15 -35 -9 21 14 108 29 113 15 5 12 32 -5 38 -8 3 -29 -9 -51 -30 -20 -20
-41 -36 -46 -36 -4 0 -8 -7 -8 -15 0 -8 5 -15 10 -15 18 0 10 -19 -15 -36 -22
-14 -26 -14 -47 0 -12 9 -29 16 -36 16 -7 0 -35 18 -61 40 -53 45 -96 57 -141
42 -34 -12 -34 -12 -44 48 -4 22 -3 30 3 21 12 -18 42 -7 35 13 -3 8 -12 12
-20 9 -10 -4 -14 2 -14 21 0 26 78 112 189 206 69 59 69 59 46 30 -11 -14 -28
-31 -37 -38 -10 -7 -18 -25 -18 -39 0 -15 -7 -34 -16 -44 -9 -11 -14 -25 -10
-35 6 -15 9 -14 32 7 16 15 23 31 20 43 -3 13 8 32 38 61 l43 42 59 -8 c100
-12 356 -58 414 -74 30 -8 111 -29 180 -45 69 -17 168 -42 220 -56 52 -14 133
-34 180 -46 47 -11 88 -23 92 -27 4 -3 -6 -46 -22 -96 -16 -49 -40 -128 -54
-175 -127 -436 -236 -774 -281 -875 -7 -16 -23 -54 -34 -83 -22 -56 -49 -102
-66 -114 -5 -4 1 -8 15 -8 31 0 45 21 98 155 38 96 150 421 190 555 117 385
193 653 188 666 -6 17 0 15 -136 48 -58 14 -175 43 -260 66 -85 22 -186 48
-225 56 -38 9 -97 22 -130 30 -110 25 -349 64 -413 67 -40 3 -70 10 -82 20
-38 32 -100 57 -141 57 -24 0 -61 9 -83 20 -23 11 -66 28 -96 38 -30 11 -84
31 -120 44 -132 51 -313 112 -460 154 -14 4 -48 20 -77 35 -80 43 -83 45 -163
82 -41 19 -145 58 -230 87 -85 29 -162 57 -170 61 -15 8 -69 30 -275 111 -86
33 -126 50 -157 66 -3 2 -13 -7 -22 -20z m1284 -608 c66 -44 140 -90 147 -90
13 0 43 -33 43 -48 0 -8 -10 -41 -22 -74 -17 -42 -49 -88 -113 -163 -49 -57
-110 -129 -135 -159 -25 -30 -54 -58 -65 -62 -11 -3 -29 -16 -40 -29 -21 -24
-159 -75 -260 -95 -33 -7 -70 -19 -83 -27 -21 -13 -25 -12 -46 15 -14 15 -41
37 -60 47 -20 11 -36 27 -36 37 0 9 -4 19 -8 22 -5 3 -14 38 -21 78 -7 40 -15
79 -17 87 -12 38 31 43 109 12 16 -6 52 -11 81 -11 45 0 54 3 65 23 7 13 28
29 47 36 21 8 48 30 65 54 27 37 30 48 26 92 -5 56 6 95 27 95 17 0 66 -39 50
-40 -7 0 -12 -17 -12 -38 -1 -62 -96 -240 -130 -244 -9 0 -24 -1 -32 0 -7 0
-26 -6 -42 -14 -15 -8 -40 -14 -56 -14 -31 0 -71 -24 -60 -36 13 -12 179 17
234 41 42 19 56 32 85 81 88 153 99 207 48 253 -53 49 -76 58 -107 40 -25 -13
-27 -21 -33 -94 -6 -97 -12 -110 -52 -126 -18 -7 -46 -26 -64 -42 -34 -32 -52
-33 -168 -10 -45 9 -62 41 -26 50 15 4 21 13 21 34 0 38 20 129 28 129 4 0 24
16 46 36 67 62 79 66 158 63 69 -3 76 -1 128 32 30 20 70 42 88 49 17 7 32 16
32 20 0 24 122 16 160 -10z m-249 -343 c-10 -9 -11 -8 -5 6 3 10 9 15 12 12 3
-3 0 -11 -7 -18z m-797 -36 c12 -5 16 -10 9 -14 -11 -7 -63 8 -63 18 0 7 31 5
54 -4z m1471 -151 c-3 -5 -11 -10 -16 -10 -6 0 -7 5 -4 10 3 6 11 10 16 10 6
0 7 -4 4 -10z m-92 -180 c-4 -4 -21 -11 -38 -14 l-29 -7 19 23 c11 13 26 29
35 36 13 11 16 10 18 -9 2 -12 0 -25 -5 -29z m-153 -140 c0 -5 -4 -10 -10 -10
-5 0 -10 5 -10 10 0 6 5 10 10 10 6 0 10 -4 10 -10z m1015 -64 c9 -60 10 -71
2 -73 -17 -6 -27 -2 -27 12 0 9 -7 26 -16 39 -9 15 -11 26 -5 30 6 4 8 13 5
21 -4 10 0 12 15 8 14 -3 22 -16 26 -37z m-45 -80 c17 -30 42 -63 56 -73 l25
-19 -22 -42 c-16 -29 -29 -42 -44 -42 -18 0 -20 5 -17 38 2 21 -3 55 -12 75
-18 44 -42 51 -31 10 22 -90 13 -125 -16 -61 -15 34 -43 57 -55 45 -4 -4 0
-23 9 -43 12 -25 14 -40 7 -52 -6 -11 -10 -12 -10 -4 0 14 -48 62 -61 62 -20
0 -7 -37 20 -61 26 -23 35 -25 79 -19 44 5 51 4 55 -12 7 -24 38 -23 89 2 23
11 47 20 54 20 19 0 25 29 12 53 -7 12 -13 43 -13 68 -2 44 -1 45 22 35 24
-12 28 -19 39 -78 5 -30 3 -39 -10 -44 -9 -3 -16 -12 -16 -20 0 -7 -9 -18 -19
-24 -11 -5 -23 -20 -26 -32 -4 -13 -15 -41 -25 -63 -10 -22 -23 -52 -28 -66
-6 -14 -19 -29 -30 -31 -18 -5 -17 -1 9 35 35 49 40 84 9 67 -11 -6 -30 -26
-42 -43 -24 -37 -140 -117 -169 -117 -25 0 -68 66 -70 110 -1 19 4 49 13 65 8
17 18 63 20 103 5 67 4 74 -18 91 l-23 18 26 36 c19 26 34 37 52 37 14 0 44 7
66 15 22 8 45 14 52 15 6 0 26 -25 43 -54z m110 24 c0 -5 -4 -10 -9 -10 -6 0
-13 5 -16 10 -3 6 1 10 9 10 9 0 16 -4 16 -10z m-10 -59 c0 -6 -4 -13 -10 -16
-5 -3 -10 1 -10 9 0 9 5 16 10 16 6 0 10 -4 10 -9z m6 -108 c-10 -10 -19 5
-10 18 6 11 8 11 12 0 2 -7 1 -15 -2 -18z m-366 7 c0 -5 -7 -10 -15 -10 -8 0
-15 5 -15 10 0 6 7 10 15 10 8 0 15 -4 15 -10z m401 -230 c-5 -30 -13 -101
-16 -158 -6 -79 -12 -108 -27 -127 -11 -14 -26 -25 -34 -25 -19 0 -18 16 1 24
21 8 21 96 1 96 -8 0 -28 11 -44 25 -17 14 -35 25 -41 25 -19 0 -12 26 14 50
24 23 25 23 45 5 l21 -19 -21 -8 -21 -8 21 -30 c12 -16 25 -30 30 -30 11 0 10
109 -1 116 -15 9 -10 22 9 20 13 -1 18 9 22 49 3 28 14 65 25 83 l20 34 3 -34
c2 -18 -1 -58 -7 -88z m-156 -50 c-3 -5 -13 -10 -21 -10 -8 0 -12 5 -9 10 3 6
13 10 21 10 8 0 12 -4 9 -10z"/>
<path d="M2252 2220 c-12 -22 -33 -46 -45 -54 -12 -8 -94 -35 -182 -60 -218
-62 -238 -69 -243 -83 -6 -20 23 -16 169 22 298 77 316 85 341 135 18 36 15
80 -6 80 -6 0 -21 -18 -34 -40z"/>
<path d="M2381 2032 c-58 -15 -106 -33 -109 -39 -5 -18 49 -17 117 2 29 7 79
17 110 21 55 6 81 18 81 35 0 17 -95 8 -199 -19z"/>
<path d="M2339 1421 c-20 -16 -22 -23 -13 -38 15 -25 134 -32 134 -8 0 8 -7
15 -15 15 -8 0 -25 11 -37 25 -26 30 -38 31 -69 6z"/>
<path d="M0 1341 c0 -22 7 -32 33 -45 17 -9 59 -34 92 -56 33 -21 89 -57 125
-80 36 -22 76 -50 90 -60 14 -11 36 -21 50 -22 36 -4 32 23 -6 42 -17 8 -53
31 -80 51 -44 33 -78 54 -178 114 -19 11 -55 34 -80 52 l-46 32 0 -28z"/>
<path d="M460 1322 c0 -84 15 -100 155 -170 70 -35 132 -61 140 -58 7 2 16 -1
19 -9 3 -8 24 -20 47 -26 29 -9 64 -35 118 -88 42 -40 144 -137 226 -214 168
-157 372 -364 380 -387 7 -18 222 -190 341 -272 96 -66 157 -97 193 -98 20 0
22 2 10 16 -7 8 -31 25 -53 36 -66 33 -227 144 -281 193 -27 25 -53 45 -57 45
-5 0 -8 9 -8 21 0 26 -82 109 -107 109 -31 0 -183 157 -183 190 0 8 6 40 14
69 l14 53 -54 56 -54 57 0 -30 c0 -19 10 -39 25 -53 17 -16 26 -39 31 -78 3
-30 4 -58 0 -61 -7 -7 -113 90 -138 127 -10 14 -18 36 -18 50 0 41 -11 70 -26
70 -17 0 -19 -51 -2 -68 6 -6 9 -14 6 -18 -7 -6 -102 81 -207 190 -36 37 -83
75 -103 83 -21 8 -38 18 -38 22 0 11 -69 45 -77 38 -3 -4 -13 2 -21 14 -8 12
-20 18 -29 14 -9 -3 -23 1 -32 8 -9 8 -57 34 -108 58 l-92 44 -7 58 c-8 69
-24 75 -24 9z"/>
<path d="M2500 1345 c-17 -45 -14 -58 13 -43 12 6 29 12 37 13 58 6 86 45 33
45 -16 0 -38 3 -50 6 -18 5 -25 1 -33 -21z"/>
<path d="M2651 1334 c0 -11 3 -14 6 -6 3 7 2 16 -1 19 -3 4 -6 -2 -5 -13z"/>
<path d="M2500 1247 c0 -16 57 -73 65 -65 8 7 -14 61 -28 70 -19 12 -37 9 -37
-5z"/>
<path d="M865 1180 c-7 -23 3 -79 17 -97 6 -7 17 -13 24 -13 14 0 13 34 -2
108 -5 27 -30 29 -39 2z"/>
<path d="M977 1126 c-5 -13 21 -46 36 -46 12 0 8 35 -5 48 -16 16 -25 15 -31
-2z"/>
<path d="M2390 1111 c0 -11 5 -23 11 -27 14 -8 29 14 22 33 -8 20 -33 16 -33
-6z"/>
<path d="M2320 1081 c0 -15 6 -21 21 -21 25 0 22 33 -4 38 -12 2 -17 -3 -17
-17z"/>
<path d="M2920 1025 c0 -16 34 -38 44 -28 3 3 6 15 6 25 0 13 -7 18 -25 18
-15 0 -25 -6 -25 -15z"/>
<path d="M1417 973 c-13 -13 -7 -32 8 -27 8 4 15 12 15 20 0 15 -12 19 -23 7z"/>
<path d="M1280 957 c0 -20 29 -49 41 -42 12 8 12 45 0 45 -5 0 -16 3 -25 6
-10 4 -16 1 -16 -9z"/>
<path d="M880 946 c0 -8 -20 -27 -45 -43 -25 -15 -61 -38 -81 -50 -19 -13 -46
-26 -59 -29 -14 -3 -55 -34 -92 -68 -38 -34 -95 -80 -128 -101 -34 -22 -150
-130 -267 -248 -184 -185 -208 -213 -208 -240 l1 -32 27 34 c69 88 407 409
482 459 43 29 91 68 105 87 16 20 64 55 118 85 51 27 104 60 119 72 15 12 47
24 70 27 30 4 44 11 46 24 3 13 -3 17 -27 17 -16 0 -33 5 -36 10 -9 15 -25 12
-25 -4z"/>
<path d="M880 822 c0 -21 4 -42 8 -47 11 -12 45 -105 41 -109 -55 -37 -57 -37
-64 -6 -7 32 -22 39 -31 15 -17 -44 51 -135 101 -135 31 0 105 57 105 82 0 11
-11 20 -32 26 -36 9 -62 51 -94 153 -22 68 -34 75 -34 21z m37 -224 c-3 -8 -6
-5 -6 6 -1 11 2 17 5 13 3 -3 4 -12 1 -19z"/>
<path d="M1070 796 c0 -27 366 -416 500 -532 30 -26 84 -73 120 -104 160 -141
184 -160 202 -160 15 0 17 4 9 19 -6 10 -20 25 -33 33 -13 9 -46 38 -74 64
-28 27 -100 92 -160 144 -154 134 -520 506 -532 541 -6 14 -32 11 -32 -5z"/>
<path d="M2162 683 c2 -12 14 -19 36 -21 28 -3 33 0 30 15 -2 12 -14 19 -36
21 -28 3 -33 0 -30 -15z"/>
<path d="M1680 643 c0 -10 8 -26 19 -35 10 -8 21 -22 24 -29 3 -11 7 -11 17
-3 19 19 8 46 -28 67 -31 18 -32 18 -32 0z"/>
<path d="M1048 598 c-2 -12 -24 -36 -53 -56 -43 -29 -56 -33 -91 -28 -35 4
-43 2 -47 -14 -4 -17 -12 -18 -72 -15 -80 5 -125 28 -137 70 -19 61 -20 62
-28 40 -12 -32 7 -88 40 -118 27 -24 28 -28 13 -33 -35 -11 -48 -21 -51 -43
-3 -21 21 -31 32 -12 3 4 29 11 58 15 157 20 171 23 183 39 7 9 21 17 31 17
15 0 124 58 143 76 2 2 6 22 8 44 3 30 0 40 -11 40 -8 0 -16 -10 -18 -22z"/>
<path d="M2276 589 c-14 -17 -26 -35 -26 -40 0 -17 35 -9 47 10 7 11 25 21 40
23 17 2 29 10 31 21 3 13 -4 17 -31 17 -27 0 -41 -7 -61 -31z"/>
<path d="M2422 573 c2 -11 14 -19 30 -21 22 -3 26 0 21 17 -7 27 -56 30 -51 4z"/>
<path d="M1805 506 c-17 -13 -18 -18 -7 -35 6 -12 12 -30 12 -41 0 -13 7 -20
18 -20 15 0 18 9 17 52 0 56 -10 66 -40 44z"/>
<path d="M2280 422 c0 -10 23 -35 50 -55 42 -31 54 -36 70 -27 11 6 20 16 20
23 -2 50 -140 108 -140 59z"/>
<path d="M2005 390 c-7 -12 31 -70 46 -70 21 0 20 32 -1 56 -26 26 -35 29 -45
14z"/>
<path d="M2102 368 c4 -31 66 -60 145 -68 61 -7 83 -19 96 -52 3 -10 13 -18
22 -18 18 0 18 -1 0 43 -18 43 -33 52 -102 60 -28 3 -74 17 -102 31 -61 32
-63 32 -59 4z"/>
<path d="M2450 345 c-17 -20 -3 -36 28 -33 25 3 27 0 27 -37 0 -40 0 -40 38
-39 64 2 95 51 67 105 -9 16 -22 19 -79 19 -48 0 -72 -4 -81 -15z"/>
<path d="M285 280 c-15 -25 56 -75 153 -108 72 -25 162 -30 162 -8 0 16 -30
26 -77 26 -43 0 -120 30 -178 69 -52 35 -51 35 -60 21z"/>
<path d="M2662 227 c-42 -21 -50 -39 -19 -45 23 -5 87 36 87 54 0 19 -17 17
-68 -9z"/>
<path d="M673 182 c-22 -22 -85 -49 -136 -57 -46 -7 -132 8 -205 37 -40 16
-56 18 -65 9 -15 -15 -4 -23 63 -49 124 -49 222 -48 327 3 46 22 63 40 63 66
0 15 -28 10 -47 -9z"/>
<path d="M2732 188 c-18 -18 -14 -38 8 -38 13 0 20 7 20 19 0 25 -13 34 -28
19z"/>
<path d="M2866 141 c-7 -10 27 -68 49 -83 15 -11 35 -10 35 2 0 18 -77 92 -84
81z"/>
<path d="M2592 91 c-34 -42 -40 -61 -19 -61 21 1 64 44 71 73 10 40 -14 35
-52 -12z"/>
<path d="M1701 77 c-18 -12 -54 -34 -80 -49 l-46 -28 38 0 c24 0 49 8 64 20
14 11 32 20 39 20 16 0 45 40 38 52 -8 12 -16 10 -53 -15z"/>
<path d="M2150 55 c0 -21 5 -25 30 -25 38 0 41 26 4 40 -34 13 -34 13 -34 -15z"/>
<path d="M1030 46 c0 -14 5 -26 10 -26 6 0 10 9 10 19 0 11 -4 23 -10 26 -6 4
-10 -5 -10 -19z"/>
</g>
</svg>
