<?xml version="1.0" standalone="no"?>
<!DOCTYPE svg PUBLIC "-//W3C//DTD SVG 20010904//EN"
 "http://www.w3.org/TR/2001/REC-SVG-20010904/DTD/svg10.dtd">
<svg version="1.0" xmlns="http://www.w3.org/2000/svg"
 width="344.000000pt" height="256.000000pt" viewBox="0 0 344.000000 256.000000"
 preserveAspectRatio="xMidYMid meet">
<metadata>
Created by potrace 1.16, written by Peter Selinger 2001-2019
</metadata>
<g transform="translate(0.000000,256.000000) scale(0.100000,-0.100000)"
fill="#000000" stroke="none">
<path d="M619 2528 c-1 -18 -1 -36 0 -40 0 -5 -16 -8 -37 -8 -47 0 -118 -47
-128 -84 -4 -18 -16 -27 -47 -34 -22 -6 -44 -9 -48 -7 -17 11 -29 -29 -43
-150 -9 -72 -20 -164 -26 -205 -5 -41 -17 -138 -26 -215 -8 -77 -17 -149 -20
-160 -2 -11 -11 -92 -19 -180 -32 -336 -37 -380 -45 -394 -9 -16 -96 -17 -150
-1 -27 8 -30 6 -30 -15 0 -27 15 -32 113 -41 53 -6 67 -10 63 -21 -4 -8 -6
-28 -6 -45 l0 -30 -82 3 c-79 3 -83 3 -86 -19 -3 -21 0 -22 58 -22 33 0 89 -5
125 -12 69 -13 75 -20 75 -85 0 -49 -16 -81 -70 -140 -52 -57 -57 -67 -39 -79
20 -12 124 120 131 167 2 16 10 25 26 27 13 2 26 10 29 18 11 28 23 1 23 -52
0 -53 1 -56 33 -68 17 -8 57 -16 88 -19 31 -4 68 -11 83 -17 15 -5 42 -10 60
-10 37 0 59 -19 54 -46 -2 -12 -20 -21 -56 -29 -29 -7 -55 -15 -59 -18 -9 -10
-86 33 -116 65 -15 16 -35 28 -44 26 -21 -4 -30 -38 -11 -38 8 0 27 -14 43
-30 16 -17 33 -30 38 -30 16 0 77 -52 77 -67 0 -8 -25 -37 -55 -65 -55 -50
-81 -85 -71 -95 7 -7 38 16 103 77 52 49 55 55 50 90 l-5 37 52 11 c28 5 61
13 73 17 15 5 22 2 25 -10 2 -14 10 -11 48 16 28 20 58 33 81 34 33 2 42 -3
68 -36 41 -50 51 -79 51 -144 0 -47 -4 -59 -30 -85 -31 -32 -39 -60 -18 -60 7
0 27 17 45 37 30 33 33 42 33 102 0 42 -7 85 -20 119 -29 75 -27 82 19 82 35
0 44 6 89 58 27 31 53 71 56 89 5 19 15 35 27 38 25 8 24 19 -3 42 -24 19 -48
74 -48 109 0 11 -7 29 -15 41 -13 18 -12 22 5 38 18 16 21 16 43 2 13 -9 40
-40 60 -69 78 -115 106 -129 143 -72 20 29 31 30 39 5 6 -19 36 -29 105 -34
32 -2 35 -5 38 -36 3 -32 2 -33 -22 -27 -19 5 -28 2 -32 -9 -5 -12 -9 -13 -20
-4 -10 8 -18 8 -27 1 -16 -13 -50 -9 -55 6 -10 32 -112 -18 -112 -55 0 -20 35
-15 55 7 25 28 33 25 31 -12 -1 -31 1 -33 52 -47 38 -10 51 -18 47 -28 -3 -8
-5 -23 -5 -34 0 -16 -3 -18 -19 -9 -11 5 -36 10 -55 10 -35 0 -47 12 -26 25
13 8 3 25 -16 25 -8 0 -14 -9 -14 -19 0 -11 -4 -23 -10 -26 -32 -20 12 -43 95
-49 5 -1 11 -10 13 -21 2 -11 13 -45 24 -76 15 -44 17 -61 9 -77 -13 -25 -14
-171 -1 -192 17 -27 24 1 21 82 -3 75 -2 80 16 73 10 -4 54 -11 98 -15 44 -5
124 -14 178 -20 99 -11 117 -9 117 14 0 16 -44 26 -114 26 -28 0 -67 4 -86 9
-19 5 -69 12 -111 16 l-77 6 -15 57 c-8 31 -18 67 -22 79 -5 17 -3 23 8 23 8
0 17 -9 20 -20 10 -37 27 -21 27 25 0 25 5 45 11 45 5 0 24 -15 42 -34 41 -44
137 -92 213 -105 50 -9 69 -8 126 8 l66 19 -1 -46 c-2 -45 -1 -48 38 -67 27
-13 66 -21 120 -23 109 -5 135 13 182 123 19 44 52 117 74 163 l39 82 20 -20
c16 -16 33 -20 85 -20 69 0 67 2 77 -64 2 -14 13 -18 51 -20 l47 -2 -6 33 c-6
31 -5 33 24 33 31 0 32 -1 49 -98 4 -23 26 -52 80 -105 41 -39 87 -78 101 -86
43 -22 72 -53 99 -105 40 -79 153 -180 153 -136 0 19 -43 86 -84 130 -37 40
-84 110 -73 110 2 0 30 -9 62 -20 108 -37 194 -19 221 46 9 21 16 61 17 91 1
29 4 53 8 53 7 0 20 -57 24 -103 1 -10 7 -23 13 -29 19 -19 24 14 12 73 -29
134 -38 327 -17 348 8 8 12 47 13 114 2 145 18 300 32 305 7 2 12 23 12 50 0
34 -3 43 -10 32 -5 -8 -10 -24 -10 -34 0 -11 -7 -27 -16 -37 -18 -20 -37 -178
-38 -314 -1 -52 -5 -83 -13 -88 -7 -4 -13 -24 -13 -42 0 -38 -13 -44 -42 -19
-10 10 -30 18 -45 20 -262 31 -264 31 -326 90 -28 27 -53 49 -55 50 -9 3 12
34 24 34 24 0 15 29 -10 36 -24 6 -62 62 -55 82 3 8 13 7 34 -3 96 -45 170
-61 170 -35 0 8 -11 20 -25 27 -14 7 -20 13 -14 13 11 0 16 25 31 142 5 46 6
47 47 53 22 4 84 19 136 32 153 41 139 42 130 -14 -20 -122 -30 -197 -41 -305
-13 -116 -13 -117 -37 -111 -21 5 -23 2 -20 -18 2 -19 10 -25 36 -27 17 -2 32
-2 33 0 0 2 5 44 10 93 5 50 14 126 20 170 5 44 12 117 15 163 5 73 9 85 30
99 25 16 33 53 11 53 -7 0 -21 -6 -32 -14 -11 -7 -42 -18 -70 -24 -27 -6 -79
-19 -115 -28 -149 -37 -165 -38 -232 -21 -35 9 -83 19 -108 23 -57 8 -71 19
-70 58 1 17 -2 71 -5 119 -5 74 -11 95 -33 127 -15 22 -31 39 -36 40 -13 0 2
-61 19 -80 8 -9 12 -19 9 -23 -4 -3 -1 -20 5 -37 7 -22 7 -38 0 -51 -12 -24
-29 -16 -29 15 0 12 -4 26 -9 31 -16 18 -78 179 -85 222 -3 23 -9 48 -12 57
-4 11 -1 16 11 16 20 0 66 -47 218 -222 40 -45 75 -75 115 -94 54 -27 62 -28
180 -25 95 2 142 8 204 27 45 13 83 24 85 24 2 0 3 9 3 20 0 19 -4 20 -37 14
-21 -4 -47 -11 -58 -17 -27 -14 -44 -17 -152 -22 -93 -5 -108 0 -97 29 5 12
20 16 66 16 33 0 68 -5 79 -10 34 -19 46 7 52 115 7 125 25 252 38 276 12 22
60 49 89 49 11 0 20 7 20 15 0 8 7 15 15 15 8 0 15 6 15 14 0 24 -108 -8 -143
-42 -26 -26 -31 -41 -42 -133 -7 -57 -16 -139 -20 -181 l-7 -78 -84 0 c-89 0
-104 -9 -104 -59 0 -30 -13 -33 -70 -14 -40 13 -66 31 -109 77 -31 33 -75 79
-98 104 -24 24 -43 48 -43 52 0 5 -12 21 -27 34 -15 14 -34 40 -43 58 -11 24
-25 35 -55 44 -22 6 -41 17 -41 25 -1 8 -2 19 -3 25 0 6 -23 14 -51 16 -27 3
-78 19 -113 37 -74 36 -121 39 -204 15 -30 -9 -57 -14 -59 -11 -8 8 -36 297
-41 425 -4 90 -8 122 -18 122 -25 0 -25 -1 13 -432 6 -58 13 -111 17 -117 3
-6 5 -11 3 -11 -26 0 -336 -74 -358 -85 -17 -9 -74 -20 -128 -25 -53 -5 -111
-13 -128 -20 -18 -6 -86 -9 -170 -8 l-139 3 4 87 c3 75 0 92 -19 126 l-22 39
22 59 c29 80 41 94 86 100 l39 6 -28 -27 c-17 -15 -27 -32 -23 -40 8 -21 30
-19 51 5 22 24 45 26 45 4 0 -10 -6 -13 -19 -9 -16 5 -19 0 -19 -33 l-1 -39
52 -7 c89 -10 107 -8 107 13 0 21 -24 30 -90 32 -25 1 -35 4 -22 6 12 2 22 10
21 16 -4 33 3 48 27 57 32 12 29 45 -4 44 -20 0 -21 3 -16 62 5 62 -8 118 -20
84 -3 -8 -7 -40 -8 -70 -2 -40 -7 -55 -18 -56 -8 -1 -37 -2 -63 -3 -38 -1 -54
-7 -75 -28 -58 -59 -132 -82 -188 -58 -28 11 -66 15 -133 14 l-95 -2 -43 49
c-23 27 -43 53 -43 58 0 8 198 0 253 -10 l28 -6 -3 54 c-2 36 -7 52 -15 51
-18 -4 -16 14 1 20 8 3 15 24 18 51 3 38 0 46 -14 46 -12 0 -16 -8 -16 -30 1
-17 -1 -32 -3 -34 -2 -2 -42 -5 -89 -7 l-85 -4 -3 29 c-2 16 2 32 10 37 8 5
-9 9 -44 9 l-58 0 -1 -32 c0 -27 -2 -29 -8 -13 -5 11 -6 26 -4 33 3 6 -2 12
-11 12 -11 0 -16 -10 -17 -32z m101 -9 c0 -20 -15 -26 -25 -9 -9 15 3 43 15
35 5 -3 10 -15 10 -26z m34 -68 c7 -6 45 -15 84 -20 76 -10 92 -16 92 -34 0
-20 -128 -4 -175 21 -21 12 -44 22 -51 22 -6 0 -17 6 -23 13 -9 11 -4 14 24
12 19 -1 41 -7 49 -14z m-115 -22 c53 -19 35 -27 -54 -25 -47 0 -85 2 -85 4 0
7 67 31 86 32 12 0 35 -5 53 -11z m-82 -82 c-20 -8 -27 -16 -23 -30 3 -14 1
-17 -12 -12 -9 4 -25 10 -34 12 -18 5 -24 24 -11 36 3 4 29 7 57 6 48 -1 49
-2 23 -12z m-61 -73 c29 -13 62 -24 73 -24 30 0 36 -31 33 -183 -1 -104 -6
-145 -18 -169 -12 -23 -15 -49 -11 -102 2 -39 7 -141 10 -226 3 -85 10 -168
17 -184 l11 -29 -63 6 c-35 3 -73 9 -85 13 -19 5 -23 2 -23 -14 0 -28 4 -29
100 -41 56 -7 87 -16 93 -26 4 -8 19 -15 32 -15 21 0 25 -5 25 -29 0 -16 7
-34 15 -41 12 -10 12 -16 4 -26 -14 -17 -4 -59 22 -92 10 -14 19 -32 19 -41 0
-9 7 -26 15 -38 8 -12 12 -28 9 -37 -4 -9 -1 -16 6 -16 27 0 1 -24 -29 -26
-18 -1 -39 -8 -46 -14 -8 -7 -22 -10 -30 -6 -31 11 -64 -12 -74 -52 -13 -47
-1 -90 39 -142 32 -41 53 -80 48 -86 -5 -4 -114 10 -223 29 l-70 12 -7 40 c-6
39 11 559 32 965 30 562 30 587 -4 574 -7 -3 -19 11 -28 30 l-17 34 36 -10
c20 -5 60 -21 89 -34z m99 26 c4 -6 -5 -10 -19 -10 -14 0 -26 5 -26 10 0 6 9
10 19 10 11 0 23 -4 26 -10z m95 -20 c16 -22 17 -28 6 -24 -10 4 -16 1 -16 -8
0 -22 12 -29 27 -16 10 8 19 6 36 -9 19 -18 31 -20 98 -16 57 4 90 1 129 -12
54 -18 121 -15 147 7 32 26 21 -17 -19 -73 -7 -10 -8 -29 -3 -55 5 -23 10 -32
12 -21 3 9 8 17 13 17 31 0 44 -162 15 -174 -17 -6 -21 -46 -4 -46 6 0 17 -7
25 -15 9 -8 34 -16 57 -16 124 -4 266 3 328 16 39 8 85 15 103 15 19 0 53 7
77 16 58 21 184 52 284 70 44 7 89 18 100 23 26 11 114 31 164 37 31 4 51 -1
83 -20 24 -13 62 -30 85 -36 25 -8 43 -20 46 -31 5 -19 11 -23 60 -33 25 -6
28 -10 26 -49 -2 -61 16 -144 45 -211 14 -32 23 -63 20 -68 -3 -5 5 -21 17
-35 19 -20 20 -25 7 -20 -14 5 -18 1 -18 -18 0 -35 -34 -112 -74 -170 -17 -23
-18 -30 -7 -47 10 -17 10 -25 0 -44 -7 -13 -16 -24 -21 -24 -4 0 -8 -18 -8
-39 0 -34 -7 -46 -47 -85 -27 -25 -54 -46 -62 -46 -8 0 -31 -17 -51 -38 -65
-68 -78 -76 -95 -62 -22 19 -18 42 15 80 30 36 39 74 19 86 -6 3 -24 -10 -41
-30 -16 -20 -36 -36 -43 -36 -15 0 -31 -31 -65 -129 -22 -64 -17 -99 10 -66 7
8 20 15 30 15 40 0 170 72 192 106 5 7 28 24 52 38 24 14 65 49 90 78 38 41
46 56 41 76 -4 15 0 31 10 42 8 9 17 38 19 64 2 27 9 53 15 59 6 6 11 20 11
30 0 11 10 39 22 63 l21 43 28 -22 c34 -27 36 -45 7 -49 -19 -2 -24 -10 -26
-40 -2 -27 1 -38 10 -38 21 0 38 21 39 50 1 24 1 24 15 -7 11 -26 23 -34 68
-47 30 -9 61 -16 70 -16 8 0 38 -5 66 -11 48 -10 50 -12 50 -45 l0 -34 -45 34
c-47 36 -128 61 -180 54 -42 -4 -54 -54 -36 -146 7 -37 14 -83 15 -102 1 -26
6 -35 21 -38 50 -7 65 -13 65 -27 0 -9 -14 -15 -42 -17 -31 -2 -44 -8 -46 -20
-2 -12 3 -18 15 -19 31 -1 126 -53 146 -80 15 -21 16 -30 7 -50 -12 -27 -76
-64 -126 -74 -18 -3 -34 -14 -37 -24 -3 -13 -12 -16 -40 -13 -33 4 -36 2 -39
-24 -2 -23 -9 -30 -30 -32 -24 -3 -28 0 -28 20 0 48 -21 62 -93 59 -38 -1 -68
2 -72 9 -3 5 -11 8 -16 5 -5 -4 -9 -1 -9 6 0 8 28 10 100 7 l101 -4 -2 208
c-1 189 -7 234 -26 214 -3 -3 -5 -89 -4 -191 l2 -185 -60 0 c-78 0 -94 6 -80
31 5 10 19 19 30 19 25 0 37 30 17 41 -23 13 -10 58 24 87 35 29 38 56 6 47
-34 -10 -59 -38 -64 -71 -3 -16 -6 -36 -7 -44 -2 -8 -11 -27 -21 -42 -9 -14
-41 -84 -70 -155 -100 -241 -126 -291 -161 -308 -68 -32 -225 -4 -225 40 1 29
39 71 80 88 28 11 42 27 68 80 34 71 39 106 20 140 -7 12 -18 38 -23 57 -9 27
-16 34 -31 32 -10 -2 -23 -10 -27 -18 -4 -8 -17 -14 -27 -14 -10 0 -21 -4 -24
-9 -4 -5 -24 -12 -46 -16 -37 -6 -40 -9 -40 -38 0 -18 3 -42 6 -54 6 -23 74
-73 99 -73 26 0 16 -16 -27 -46 -94 -62 -124 -74 -194 -74 -133 0 -196 63
-103 103 21 9 51 17 65 17 17 0 40 17 78 57 47 51 52 60 43 80 -6 13 -14 23
-19 23 -4 0 -8 11 -8 25 0 16 -6 25 -15 25 -9 0 -15 -9 -15 -25 0 -20 -5 -25
-27 -27 -55 -3 -78 3 -92 23 -14 19 -15 19 -26 -15 -7 -19 -10 -47 -8 -61 5
-24 3 -25 -43 -25 -27 0 -54 4 -60 8 -6 4 -14 29 -18 57 -3 27 -11 54 -16 59
-18 18 -10 25 38 32 26 3 54 12 62 19 25 19 79 38 95 32 8 -4 17 -2 20 3 4 6
18 -3 32 -20 58 -69 129 -26 271 165 79 106 116 145 139 145 28 0 30 -21 3
-38 -11 -7 -20 -19 -20 -27 0 -20 34 -19 54 1 24 23 69 104 63 111 -4 3 -35 2
-70 -1 -62 -7 -65 -9 -113 -64 -27 -31 -69 -84 -94 -117 -63 -83 -132 -151
-162 -158 -19 -5 -31 0 -52 22 -24 25 -33 28 -74 24 -26 -3 -60 -14 -76 -25
-39 -28 -168 -44 -218 -27 -21 7 -45 20 -54 31 -23 25 -42 23 -56 -7 -9 -20
-16 -23 -37 -18 -31 7 -21 -3 -70 67 -68 98 -122 121 -160 67 -22 -30 -27 -66
-12 -75 9 -6 19 -81 24 -181 2 -51 -1 -65 -22 -93 -13 -18 -32 -37 -41 -42
-22 -12 -60 -2 -60 16 0 7 -8 18 -18 23 -19 10 -45 92 -56 175 -3 22 -9 42
-14 45 -16 11 -32 49 -26 64 3 8 -4 34 -15 58 -12 23 -21 50 -21 58 0 9 -14
41 -31 71 -17 30 -39 77 -49 104 -17 42 -17 50 -5 63 19 19 19 53 0 53 -8 0
-15 5 -15 10 0 6 9 10 20 10 23 0 40 28 40 68 0 16 11 41 25 58 14 16 25 36
25 46 0 9 13 45 30 80 35 73 38 103 11 117 -14 8 -23 6 -36 -9 -13 -14 -31
-20 -62 -20 -40 0 -45 3 -54 29 -6 18 -23 36 -43 45 -31 14 -34 20 -40 77 -9
91 -7 214 4 244 7 18 5 44 -6 91 -10 45 -12 70 -5 78 6 7 8 22 4 34 -8 34 31
28 57 -8z m-293 -65 c17 0 18 -9 15 -130 -1 -72 -7 -200 -12 -285 -5 -85 -12
-212 -16 -282 -5 -116 -12 -145 -29 -119 -3 5 0 78 6 163 18 262 22 448 10
448 -15 0 -19 -28 -26 -190 -14 -339 -19 -397 -38 -418 -18 -20 -18 -21 7 -37
14 -10 33 -14 43 -11 15 6 16 -14 9 -261 -3 -147 -9 -278 -13 -291 -6 -23 -6
-23 -20 -2 -8 11 -11 25 -8 30 11 18 -24 62 -44 55 -10 -3 -24 1 -31 10 -7 8
-21 15 -31 15 -27 0 -34 19 -13 35 27 20 33 18 44 -10 11 -28 40 -34 40 -9 0
13 3 14 15 4 8 -6 19 -9 25 -5 16 10 12 45 -5 45 -12 0 -15 17 -15 95 0 77 -3
95 -15 95 -11 0 -15 -18 -17 -77 l-3 -78 -32 -3 c-25 -2 -33 1 -33 13 0 9 6
15 13 14 42 -5 48 10 16 42 -20 20 -21 27 -13 108 4 47 9 78 11 69 9 -36 21
-16 26 40 3 31 8 72 12 90 6 26 4 32 -9 32 -14 0 -15 10 -11 73 4 39 10 99 15
132 14 96 56 438 67 550 2 22 6 56 10 75 l6 35 12 -30 c8 -18 21 -30 32 -30z
m249 -492 c-8 -9 -35 10 -39 29 -5 19 -5 19 19 -3 13 -12 22 -24 20 -26z m118
-79 c25 -4 52 -1 65 5 l22 12 -17 -38 c-9 -21 -22 -51 -28 -68 -19 -47 -57
-105 -76 -115 -13 -7 -22 -4 -35 11 -18 19 -19 19 -45 -6 l-27 -26 -6 83 c-4
46 -7 106 -7 134 l0 51 55 -19 c31 -10 75 -21 99 -24z m-127 -286 c-3 -8 -6
-5 -6 6 -1 11 2 17 5 13 3 -3 4 -12 1 -19z m2263 -156 c54 -26 80 -61 78 -104
-1 -24 -7 -38 -15 -38 -7 0 -13 5 -13 10 0 6 -11 10 -24 10 -28 0 -40 14 -32
36 5 13 10 12 32 -5 29 -23 44 -20 44 10 0 23 -52 49 -100 49 -28 0 -30 -2
-30 -41 0 -41 0 -41 -32 -34 -48 11 -48 11 -48 77 l0 61 52 -7 c29 -4 69 -15
88 -24z m-23 -104 c-3 -8 -6 -5 -6 6 -1 11 2 17 5 13 3 -3 4 -12 1 -19z m-72
-68 c3 -5 -1 -10 -9 -10 -9 0 -16 5 -16 10 0 6 4 10 9 10 6 0 13 -4 16 -10z
m-559 -125 c-11 -8 -22 -12 -25 -9 -6 6 19 24 34 24 6 -1 1 -7 -9 -15z m-1416
-18 c0 -12 8 -34 18 -47 9 -14 22 -52 29 -85 10 -57 28 -130 39 -167 4 -15 -2
-16 -51 -11 -52 5 -58 4 -86 -23 -24 -23 -33 -26 -47 -18 -19 12 -19 25 -9
206 3 64 2 110 -4 113 -22 14 6 35 66 48 39 9 45 7 45 -16z m-140 -37 c12 -23
10 -130 -3 -130 -23 0 -67 116 -52 139 11 18 44 12 55 -9z m2320 -110 c0 -12
27 -14 32 -2 2 5 22 6 46 4 44 -4 49 -13 42 -75 -1 -11 6 -21 17 -23 16 -5 18
-14 15 -87 -4 -97 -9 -119 -22 -97 -12 19 -15 15 -37 -52 l-19 -56 -32 20
c-18 11 -29 24 -26 29 3 6 5 66 5 134 -1 79 2 125 9 125 18 0 10 19 -20 48
-31 30 -37 42 -20 42 6 0 10 -4 10 -10z m178 -28 c4 -25 -13 -30 -22 -6 -9 25
-7 36 7 32 6 -3 13 -14 15 -26z m105 -10 c13 -12 30 -22 38 -22 17 0 19 -111
2 -150 -6 -15 -14 -56 -18 -93 -9 -85 -32 -107 -109 -107 -75 0 -98 8 -94 34
2 11 10 21 18 22 8 1 27 2 41 2 l26 2 -4 88 c-4 57 -1 103 8 132 16 53 16 57
18 92 1 22 5 26 26 24 14 -2 36 -12 48 -24z m-342 -12 c17 0 9 -45 -11 -58
-16 -9 -24 -10 -39 0 -18 11 -18 14 -5 41 10 19 21 27 30 23 9 -3 20 -6 25 -6z
m-1395 -35 c9 -29 8 -37 -6 -50 -22 -20 -40 -19 -56 3 -14 18 -19 64 -7 75 3
4 18 7 32 7 21 0 28 -7 37 -35z m287 19 c4 -4 -3 -20 -14 -35 -18 -25 -27 -29
-70 -29 -42 0 -49 3 -49 19 0 44 10 51 69 51 32 0 61 -3 64 -6z m1007 -14 c0
-5 -14 -10 -31 -10 -17 0 -28 4 -24 10 3 6 17 10 31 10 13 0 24 -4 24 -10z
m-713 -25 c-4 -8 -11 -15 -17 -15 -7 0 -7 6 0 21 13 23 26 19 17 -6z m-47 -15
c0 -5 -4 -10 -10 -10 -5 0 -10 5 -10 10 0 6 5 10 10 10 6 0 10 -4 10 -10z
m-410 -26 l25 -15 -28 4 c-21 3 -27 1 -23 -9 6 -17 -4 -74 -13 -74 -3 0 -20
13 -36 28 -17 15 -26 24 -21 20 6 -5 16 -8 24 -8 12 0 11 4 -2 25 -21 31 -20
33 7 38 37 7 41 7 67 -9z m1153 5 c18 -8 31 -8 48 1 l24 11 -24 -20 c-12 -12
-27 -18 -32 -15 -5 2 -18 0 -31 -7 -18 -10 -24 -9 -34 6 -24 32 3 45 49 24z
m141 -93 c-5 -44 -8 -93 -7 -108 1 -45 -27 -34 -101 41 l-69 70 75 34 c41 19
79 40 82 46 4 6 12 8 18 5 6 -4 7 -34 2 -88z m-871 54 c-6 -24 -23 -37 -23
-18 0 12 18 38 26 38 1 0 0 -9 -3 -20z"/>
<path d="M1085 2007 c-10 -24 3 -69 18 -64 13 4 11 42 -3 67 -7 13 -10 13 -15
-3z"/>
<path d="M2402 1688 c2 -13 11 -24 21 -26 21 -4 22 14 3 34 -21 20 -28 17 -24
-8z"/>
<path d="M2759 882 c-2 -16 3 -167 6 -171 8 -8 108 33 133 54 l27 24 -25 24
c-26 26 -139 81 -141 69z m71 -73 c0 -5 -4 -9 -10 -9 -5 0 -10 -6 -10 -14 0
-8 -4 -18 -10 -21 -6 -4 -10 8 -10 28 0 30 3 34 20 30 11 -3 20 -9 20 -14z"/>
<path d="M1031 2510 c-1 -38 2 -52 14 -56 8 -3 15 -10 15 -15 0 -4 -6 -6 -13
-3 -16 6 -41 -86 -28 -99 5 -5 26 -7 47 -5 47 4 55 31 12 36 -16 2 -28 9 -28
16 0 9 9 12 24 9 34 -7 44 16 15 37 l-23 18 24 4 c22 3 25 8 27 56 l1 52 -42
0 -42 0 -3 -50z m59 10 c0 -20 -5 -30 -15 -30 -10 0 -15 10 -15 30 0 20 5 30
15 30 10 0 15 -10 15 -30z"/>
<path d="M1308 2518 c-1 -43 -3 -63 -13 -130 -3 -21 -1 -39 6 -43 16 -10 19
-4 25 56 17 143 17 159 0 159 -12 0 -16 -11 -18 -42z"/>
<path d="M0 2213 c0 -20 5 -23 39 -23 50 0 71 -8 64 -25 -10 -29 9 -37 33 -14
50 47 26 73 -78 81 -55 4 -58 4 -58 -19z"/>
<path d="M1214 2166 c5 -22 3 -26 -14 -26 -22 0 -38 -26 -24 -40 14 -13 78 13
82 33 2 10 -3 17 -13 17 -9 0 -15 7 -13 16 2 10 -3 19 -11 22 -10 3 -12 -2 -7
-22z"/>
<path d="M115 2088 c-6 -18 -35 -246 -46 -353 -4 -49 -13 -133 -19 -185 -6
-52 -14 -125 -17 -162 -4 -48 -10 -68 -19 -68 -8 0 -14 -9 -14 -20 0 -15 7
-20 25 -20 14 0 25 1 25 3 1 1 5 45 10 97 5 52 14 136 20 185 6 50 15 133 20
185 6 52 14 127 19 165 5 39 12 96 16 128 6 41 4 57 -4 57 -6 0 -14 -6 -16
-12z"/>
<path d="M3417 903 c-3 -15 1 -41 8 -58 13 -29 13 -29 14 28 1 59 -13 78 -22
30z"/>
<path d="M3433 680 c0 -36 2 -50 4 -32 2 17 2 47 0 65 -2 17 -4 3 -4 -33z"/>
<path d="M1160 585 c-14 -8 -33 -14 -43 -15 -11 0 -32 -8 -48 -17 -29 -17 -29
-17 -29 -118 0 -117 18 -164 66 -179 16 -5 41 -15 56 -22 14 -8 29 -14 32 -14
12 0 6 31 -10 55 -14 22 -15 35 -5 105 7 44 21 105 31 135 28 81 10 105 -50
70z m15 -76 c-8 -22 -20 -81 -26 -129 -10 -75 -14 -88 -28 -83 -44 16 -51 33
-51 124 0 91 3 97 47 105 15 3 34 9 42 14 28 16 30 11 16 -31z"/>
<path d="M1116 492 c-3 -6 -13 -9 -21 -5 -16 5 -20 -13 -9 -41 8 -21 43 -21
51 0 7 20 -11 62 -21 46z"/>
<path d="M133 512 c-80 -30 -103 -46 -87 -62 11 -11 48 -2 109 25 17 8 43 18
58 24 30 12 37 42 10 40 -10 -1 -50 -13 -90 -27z"/>
<path d="M2560 505 c0 -8 7 -15 15 -15 8 0 15 7 15 15 0 8 -7 15 -15 15 -8 0
-15 -7 -15 -15z"/>
<path d="M2700 490 c0 -11 6 -20 14 -20 9 0 12 7 9 20 -3 11 -9 20 -14 20 -5
0 -9 -9 -9 -20z"/>
<path d="M2551 438 c-52 -56 -35 -81 19 -29 29 27 40 61 21 61 -6 0 -24 -15
-40 -32z"/>
<path d="M129 427 c-31 -42 -59 -119 -53 -143 5 -18 15 -24 49 -30 24 -3 48
-3 54 1 6 3 25 -5 42 -19 36 -30 98 -35 123 -10 24 24 10 34 -37 28 -36 -5
-48 -1 -79 23 -21 15 -37 36 -38 46 0 9 -7 17 -16 17 -11 0 -14 -6 -9 -20 5
-17 2 -20 -24 -20 -41 0 -41 25 -1 75 31 39 39 75 18 75 -7 0 -20 -11 -29 -23z"/>
<path d="M2438 418 c-17 -17 -32 -21 -66 -19 -37 2 -43 -1 -40 -16 4 -23 88
-31 109 -10 8 7 22 16 32 20 21 8 23 47 2 47 -8 0 -25 -10 -37 -22z"/>
<path d="M1286 353 c-16 -16 -2 -31 39 -43 47 -13 79 -8 73 12 -3 7 -15 15
-29 18 -63 17 -76 19 -83 13z"/>
<path d="M3355 341 c-18 -17 30 -191 55 -199 16 -6 5 80 -16 120 -19 37 -18
38 16 38 24 0 30 4 30 23 0 19 -5 22 -40 22 -23 1 -43 -1 -45 -4z"/>
<path d="M2384 269 c-12 -21 12 -27 124 -31 115 -5 134 2 81 29 -30 16 -195
17 -205 2z"/>
<path d="M1230 260 c0 -5 4 -10 9 -10 6 0 13 5 16 10 3 6 -1 10 -9 10 -9 0
-16 -4 -16 -10z"/>
<path d="M0 16 c0 -14 13 -16 93 -16 110 1 100 17 -17 27 -67 5 -76 4 -76 -11z"/>
</g>
</svg>
