<?xml version="1.0" standalone="no"?>
<!DOCTYPE svg PUBLIC "-//W3C//DTD SVG 20010904//EN"
 "http://www.w3.org/TR/2001/REC-SVG-20010904/DTD/svg10.dtd">
<svg version="1.0" xmlns="http://www.w3.org/2000/svg"
 width="384.000000pt" height="256.000000pt" viewBox="0 0 384.000000 256.000000"
 preserveAspectRatio="xMidYMid meet">
<metadata>
Created by potrace 1.16, written by Peter Selinger 2001-2019
</metadata>
<g transform="translate(0.000000,256.000000) scale(0.100000,-0.100000)"
fill="#000000" stroke="none">
<path d="M1290 2541 c0 -26 10 -51 21 -51 5 0 9 16 9 35 0 24 -5 35 -15 35 -8
0 -15 -9 -15 -19z"/>
<path d="M1447 2553 c-6 -12 23 -146 35 -161 21 -24 28 4 13 49 -8 24 -16 59
-18 78 -3 33 -20 52 -30 34z"/>
<path d="M1371 2369 c-15 -30 -59 -48 -136 -56 -48 -5 -60 -11 -99 -51 -25
-25 -50 -59 -56 -76 -6 -17 -23 -55 -36 -84 -23 -50 -24 -58 -13 -113 14 -72
34 -68 25 5 -5 42 -1 60 19 101 13 28 25 55 25 61 0 6 19 34 42 63 39 48 44
51 89 51 49 0 98 17 137 48 18 14 23 26 20 48 l-4 29 -13 -26z"/>
<path d="M2320 2139 c0 -27 84 -212 115 -254 12 -16 36 -75 53 -129 24 -75 40
-109 66 -135 45 -46 57 -90 28 -98 -26 -6 -36 -32 -16 -40 20 -8 62 15 70 39
3 10 10 18 15 18 5 0 9 7 9 15 0 21 -29 65 -43 65 -27 0 -76 77 -102 159 -14
47 -30 91 -33 97 -4 6 -19 29 -33 50 -14 21 -45 83 -69 137 -42 95 -60 118
-60 76z"/>
<path d="M2071 1963 c-20 -70 -7 -239 20 -268 5 -5 9 -20 9 -35 0 -14 9 -67
20 -119 11 -52 20 -120 20 -152 0 -49 3 -60 21 -69 13 -7 19 -19 17 -33 -3
-20 -10 -22 -88 -27 -85 -6 -159 -25 -236 -61 -23 -10 -45 -19 -49 -19 -5 0
-37 -19 -71 -42 -80 -54 -115 -118 -116 -211 -1 -69 14 -107 59 -148 36 -33
99 -69 121 -69 9 0 44 -10 77 -21 37 -13 105 -25 180 -30 66 -5 148 -12 183
-15 43 -4 67 -3 77 6 27 22 16 28 -57 34 -220 16 -299 26 -353 44 -33 11 -79
25 -103 31 -26 7 -60 29 -87 55 -44 42 -45 44 -45 108 0 56 4 71 31 112 18 26
48 58 68 70 45 28 146 76 161 76 6 0 23 6 38 14 16 8 57 16 92 17 83 3 126 13
194 44 69 32 73 31 68 -5 -5 -32 -16 -39 -29 -16 -5 9 -15 11 -28 6 -15 -6
-27 -29 -44 -86 -13 -44 -27 -89 -32 -102 -15 -38 -11 -119 7 -136 34 -34 88
-9 77 35 -6 23 -19 25 -27 4 -8 -21 -36 -19 -36 3 0 9 7 26 15 36 10 14 12 23
4 32 -10 13 14 130 31 147 13 14 23 -128 11 -151 -14 -27 -14 -42 2 -42 15 0
19 -52 6 -87 -9 -24 -13 -25 -58 -21 -40 4 -50 2 -54 -11 -7 -27 3 -38 26 -34
14 3 29 -2 36 -11 17 -20 41 -21 41 -1 0 8 7 15 14 15 9 0 24 -25 37 -60 24
-66 75 -122 90 -98 5 7 2 22 -6 35 -8 12 -15 30 -15 40 0 10 -6 27 -13 38 -7
11 -19 40 -26 65 -7 25 -17 47 -21 50 -11 7 -15 81 -5 103 4 9 2 23 -3 30 -16
19 -28 147 -13 147 6 0 11 -5 11 -11 0 -26 58 -97 105 -130 l50 -35 0 -89 c0
-53 5 -99 13 -112 6 -12 12 -40 12 -63 0 -37 -3 -42 -35 -56 -47 -19 -47 -43
0 -41 19 1 35 5 35 10 0 4 5 7 11 7 8 0 8 -4 0 -14 -6 -7 -9 -20 -5 -29 3 -8
1 -18 -5 -22 -16 -9 -13 -45 3 -45 8 0 16 6 19 13 2 7 10 1 17 -14 7 -15 23
-32 36 -38 27 -12 31 -33 10 -51 -8 -6 -16 -21 -18 -33 -2 -14 -10 -22 -22
-22 -27 0 -32 -22 -10 -46 25 -28 41 -23 49 13 13 59 42 95 93 114 57 21 75
40 62 65 -18 32 -11 68 20 103 19 21 28 40 24 50 -8 21 -31 20 -43 -1 -12 -22
-12 -21 -40 47 -50 119 -85 180 -103 180 -10 0 -18 4 -18 8 0 12 73 42 104 42
39 0 66 17 66 42 0 11 25 60 55 108 70 111 73 147 18 185 -21 14 -43 25 -49
25 -6 0 -28 11 -48 25 -20 13 -59 34 -86 46 -45 19 -52 20 -63 7 -8 -11 -24
-14 -54 -11 -40 5 -42 6 -36 34 3 16 2 29 -3 29 -12 0 -114 -98 -114 -110 0
-5 -17 -16 -37 -25 -21 -9 -50 -22 -64 -29 -23 -12 -26 -11 -35 8 -5 12 -12
19 -15 16 -4 -3 -16 4 -28 14 -16 15 -21 31 -21 71 0 59 -19 165 -31 179 -12
13 -11 78 0 108 11 29 -5 80 -19 58 -13 -21 -18 -11 -32 55 -8 44 -8 62 0 76
14 22 16 95 3 104 -6 3 -15 -11 -20 -32z m379 -583 c0 -5 -4 -10 -10 -10 -5 0
-10 5 -10 10 0 6 5 10 10 10 6 0 10 -4 10 -10z m110 -18 c0 -5 30 -28 68 -52
37 -23 77 -51 89 -62 l22 -20 -47 -35 c-26 -20 -63 -51 -83 -70 -32 -30 -37
-32 -49 -18 -7 9 -16 47 -19 85 -5 56 -13 78 -39 115 -18 26 -30 50 -27 56 8
11 85 12 85 1z m155 -42 c3 -5 13 -10 21 -10 23 0 105 -51 98 -61 -3 -5 -15 0
-26 11 -12 11 -32 20 -44 20 -12 0 -28 7 -35 16 -8 9 -33 25 -56 35 -24 10
-43 23 -43 28 0 11 76 -24 85 -39z m-261 -95 c5 -26 12 -35 26 -35 17 0 20 -7
20 -50 0 -39 -4 -51 -20 -60 -30 -16 -40 -4 -40 48 0 31 -8 61 -25 90 -13 23
-22 49 -19 57 10 25 51 -11 58 -50z m46 28 c0 -22 -16 -14 -28 12 -11 23 -10
24 8 13 11 -7 20 -18 20 -25z m-120 -15 c1 -13 7 -34 15 -48 8 -14 14 -41 14
-60 0 -33 0 -34 -14 -15 -8 11 -21 27 -29 35 -24 26 -21 110 5 110 5 0 9 -10
9 -22z m416 -65 c-8 -16 -26 -43 -40 -62 -14 -19 -26 -44 -26 -56 0 -18 -9
-23 -66 -32 -56 -10 -69 -9 -82 3 -13 13 -12 17 4 29 23 17 37 18 51 4 12 -12
33 -4 33 12 0 5 -6 9 -14 9 -34 0 -23 21 29 61 30 23 70 45 88 49 17 4 33 8
35 9 1 1 -4 -11 -12 -26z m-269 -168 c-7 -14 -15 -25 -19 -25 -11 0 -10 8 2
31 16 28 30 23 17 -6z m21 -81 c6 3 12 -4 16 -17 11 -41 7 -57 -14 -57 -15 0
-20 -7 -21 -27 l-1 -28 -14 33 c-18 41 -9 119 12 101 7 -6 17 -8 22 -5z m92
-112 c0 -7 4 -20 8 -30 5 -9 19 -37 30 -62 12 -25 22 -63 22 -86 0 -85 -79
-147 -119 -93 -9 13 -23 46 -31 74 -15 46 -14 53 1 84 9 20 29 39 48 47 21 9
31 20 31 35 0 16 -5 20 -19 16 -17 -4 -19 0 -18 40 l2 44 22 -28 c13 -15 23
-34 23 -41z"/>
<path d="M983 1868 c-11 -14 -33 -75 -33 -89 0 -5 6 -9 13 -9 8 0 19 18 26 41
7 23 15 47 18 55 6 17 -11 18 -24 2z"/>
<path d="M2314 1718 c4 -18 6 -48 6 -65 -1 -39 6 -41 36 -12 21 20 24 20 55 5
42 -21 49 -20 49 4 0 13 -9 22 -25 26 -13 3 -30 12 -36 20 -10 13 -14 12 -30
-2 -18 -16 -19 -16 -19 19 0 31 -3 37 -21 37 -19 0 -20 -4 -15 -32z"/>
<path d="M2520 1545 c-14 -8 -37 -14 -52 -15 -15 0 -39 -5 -54 -10 -18 -7 -30
-7 -39 0 -12 10 -25 4 -25 -11 0 -4 7 -15 16 -24 15 -15 15 -18 -6 -41 -13
-13 -29 -24 -36 -24 -11 0 -24 -21 -24 -41 0 -18 23 -9 71 28 27 20 49 45 49
54 0 19 20 29 57 29 30 0 83 36 83 56 0 17 -8 17 -40 -1z"/>
<path d="M3500 1145 c-14 -7 -52 -20 -85 -28 -60 -15 -187 -64 -235 -91 -14
-8 -45 -17 -70 -21 -44 -6 -46 -5 -99 49 -47 48 -58 54 -83 49 -21 -4 -35 0
-52 16 l-22 21 -25 -28 c-14 -15 -34 -48 -43 -74 -10 -26 -22 -51 -28 -54 -17
-11 -68 -128 -68 -158 0 -40 23 -19 39 36 18 60 69 106 111 100 17 -2 34 -11
37 -18 7 -18 33 -18 33 0 0 16 28 41 36 33 4 -3 -1 -13 -10 -22 -9 -9 -16 -23
-16 -31 0 -21 28 -17 40 6 6 12 16 17 26 13 14 -5 16 1 12 36 l-4 43 29 -32
c26 -29 33 -31 75 -27 43 4 117 30 217 77 70 32 118 42 128 25 12 -22 24 -19
63 20 39 39 81 46 106 18 30 -34 78 -143 78 -177 0 -37 -31 -77 -85 -109 -17
-9 -57 -37 -90 -62 -33 -25 -68 -48 -77 -51 -10 -3 -37 -17 -60 -30 -42 -24
-433 -217 -473 -234 -11 -5 -42 -18 -70 -30 -27 -12 -78 -32 -113 -45 -34 -14
-77 -31 -95 -39 -97 -45 -267 -103 -329 -112 -24 -4 -53 -13 -65 -20 -12 -8
-40 -14 -63 -14 -32 0 -48 7 -80 36 -45 41 -120 146 -120 169 0 17 49 45 80
45 11 0 20 6 20 14 0 7 21 21 48 31 26 10 54 23 62 30 24 20 152 85 166 85 7
0 18 -9 24 -19 17 -32 40 -50 55 -45 20 8 19 33 -1 41 -12 4 -14 14 -9 44 6
37 -5 53 -20 29 -4 -6 -12 -10 -18 -9 -7 1 -25 -1 -42 -6 -47 -12 -337 -164
-365 -191 -43 -42 -27 -93 70 -223 50 -66 142 -100 180 -66 10 9 42 20 73 25
59 9 262 77 332 110 22 10 87 38 145 60 151 60 198 82 460 213 130 65 269 144
312 175 43 31 89 63 103 70 14 7 37 31 52 53 22 33 25 47 20 87 -6 51 -54 163
-86 200 -22 25 -88 29 -131 7z m-625 -95 c25 -28 13 -52 -22 -44 -39 9 -47 19
-34 43 15 26 33 27 56 1z"/>
<path d="M2125 786 c-23 -19 -27 -27 -18 -36 17 -18 67 9 71 38 4 29 -15 28
-53 -2z"/>
<path d="M546 511 c-3 -4 -19 -11 -36 -14 -19 -4 -30 -13 -30 -23 0 -14 8 -16
58 -10 l57 6 15 -42 c12 -35 20 -43 40 -43 21 0 26 -6 28 -34 3 -30 -3 -39
-47 -78 -78 -68 -64 -102 17 -43 50 36 62 57 62 111 0 48 -27 98 -78 147 -33
30 -75 42 -86 23z"/>
<path d="M2285 490 c-24 -25 -35 -29 -57 -25 -20 5 -28 3 -28 -7 0 -20 21 -38
45 -38 12 0 31 -13 43 -30 13 -16 31 -30 41 -30 10 0 25 -10 34 -22 l15 -23
31 29 c17 17 31 38 31 48 0 19 -5 21 -35 9 -24 -10 -96 11 -109 32 -7 12 -5
21 8 36 10 11 16 27 14 36 -2 13 -9 10 -33 -15z"/>
</g>
</svg>
