<?xml version="1.0" standalone="no"?>
<!DOCTYPE svg PUBLIC "-//W3C//DTD SVG 20010904//EN"
 "http://www.w3.org/TR/2001/REC-SVG-20010904/DTD/svg10.dtd">
<svg version="1.0" xmlns="http://www.w3.org/2000/svg"
 width="256.000000pt" height="344.000000pt" viewBox="0 0 256.000000 344.000000"
 preserveAspectRatio="xMidYMid meet">
<metadata>
Created by potrace 1.16, written by Peter Selinger 2001-2019
</metadata>
<g transform="translate(0.000000,344.000000) scale(0.100000,-0.100000)"
fill="#000000" stroke="none">
<path d="M1495 3388 c-10 -80 -26 -127 -45 -133 -22 -7 -40 -47 -40 -90 0 -27
-4 -35 -18 -35 -10 0 -28 -7 -40 -16 -18 -12 -22 -25 -22 -65 0 -28 5 -60 12
-72 7 -12 11 -46 9 -75 -2 -36 2 -59 12 -70 8 -9 19 -32 26 -51 13 -40 38 -71
58 -71 7 0 13 -5 13 -11 0 -6 -32 -9 -91 -8 -49 1 -94 -2 -99 -7 -10 -10 -17
-514 -8 -530 5 -6 -10 -10 -40 -11 l-47 -1 -2 217 c-3 275 -1 249 -16 230 -9
-12 -12 -75 -10 -236 l2 -219 -30 -11 c-23 -9 -29 -17 -29 -40 l0 -28 -96 -3
c-52 -2 -117 1 -143 8 l-48 11 -7 62 c-3 34 -6 157 -7 272 -1 116 -6 279 -11
363 -8 140 -7 156 10 196 16 34 26 44 51 49 22 5 31 12 31 27 0 18 7 20 73 21
39 0 100 2 135 6 l62 5 1 -123 c0 -124 7 -240 15 -248 15 -16 18 37 14 209
l-5 195 -208 3 c-127 1 -215 -2 -227 -8 -17 -9 -18 -20 -14 -122 4 -128 11
-177 27 -197 10 -11 21 -427 20 -728 l-1 -73 39 0 c28 0 39 4 39 15 0 13 20
15 120 15 100 0 120 -3 120 -15 0 -8 9 -20 20 -27 28 -18 25 -35 -7 -42 -14
-4 -104 -6 -200 -5 -168 2 -175 1 -189 -20 -8 -11 -23 -21 -32 -20 -14 0 -13
3 6 16 26 18 28 30 7 53 -13 14 -22 15 -67 6 -29 -6 -58 -14 -63 -18 -21 -13
-85 -20 -85 -9 0 6 9 11 21 11 12 0 35 6 52 14 51 22 120 45 147 48 21 3 25 9
28 41 2 24 -1 39 -10 42 -9 4 -12 19 -11 43 4 50 -19 82 -47 64 -28 -17 -29
-16 -23 22 5 30 2 34 -22 40 -37 9 -112 -3 -127 -21 -9 -11 -9 -19 -1 -33 7
-11 10 -39 6 -73 -6 -63 -22 -75 -108 -83 -27 -3 -65 -7 -83 -9 -27 -3 -34 0
-42 20 -13 34 -43 48 -66 30 -26 -20 -27 -19 -47 15 -25 41 -57 40 -91 -4
l-26 -35 25 -29 c20 -25 22 -31 10 -36 -19 -7 -20 -56 -1 -56 8 0 18 5 21 10
10 15 42 12 49 -5 4 -12 10 -13 25 -6 10 6 20 9 22 6 3 -2 46 -6 97 -8 51 -3
96 -7 99 -10 3 -3 19 -3 36 0 55 11 25 -19 -43 -42 -36 -12 -114 -46 -175 -75
-72 -36 -123 -54 -147 -54 -32 -1 -38 -4 -38 -22 0 -12 8 -24 18 -26 16 -5 20
-31 35 -249 10 -134 18 -284 19 -334 1 -56 6 -99 15 -113 12 -20 11 -26 -7
-52 -12 -17 -26 -30 -31 -30 -5 0 -9 -9 -9 -20 0 -25 25 -26 42 -1 7 10 24 22
38 26 35 11 50 24 50 47 0 10 5 16 10 13 6 -3 14 4 19 17 11 26 75 90 108 107
12 6 25 20 28 31 4 11 10 18 15 15 5 -3 20 0 35 7 18 8 25 18 23 32 -3 24 8
46 23 46 6 0 7 -6 3 -12 -4 -7 1 -6 12 3 10 9 30 20 43 24 32 10 181 162 181
186 0 10 5 19 10 19 6 0 10 16 10 35 0 32 3 35 29 35 16 0 42 -7 57 -15 16 -8
37 -15 47 -15 15 0 17 -11 17 -92 0 -81 -4 -98 -25 -133 -13 -22 -29 -50 -34
-61 -5 -12 -28 -46 -50 -75 -23 -30 -41 -59 -41 -65 0 -18 25 -24 95 -24 l64
0 -3 33 c-5 43 -17 90 -27 103 -6 7 1 29 17 58 20 35 27 66 31 127 6 74 7 79
19 58 10 -19 13 -106 14 -384 0 -198 4 -365 8 -372 8 -12 57 -16 188 -13 44 1
93 -2 107 -5 20 -5 28 -3 33 10 7 16 8 16 16 0 7 -12 17 -15 41 -9 18 3 37 10
42 14 18 15 60 15 71 1 13 -17 126 -23 137 -7 5 8 9 7 15 -2 6 -8 40 -14 100
-17 l92 -4 -5 55 c-3 30 -7 79 -10 109 -6 59 -22 95 -43 95 -23 0 -24 -29 -3
-56 12 -15 21 -41 21 -58 l0 -31 -90 2 c-87 1 -91 0 -88 -20 3 -19 -2 -21 -52
-22 l-55 0 -3 35 c-2 19 -12 43 -23 53 -10 10 -19 29 -19 43 0 13 -7 27 -15
30 -17 7 -21 35 -4 32 6 -2 13 2 16 8 2 8 -18 14 -59 18 -35 4 -75 9 -90 12
-35 7 -36 -8 -7 -79 12 -29 27 -65 34 -82 31 -75 37 -96 33 -101 -3 -3 -13 14
-22 36 -10 24 -22 40 -29 37 -6 -2 -10 -11 -8 -18 12 -47 13 -53 6 -46 -11 10
-35 72 -44 117 -11 54 -43 130 -53 130 -5 0 -7 -13 -3 -30 4 -17 2 -30 -3 -30
-14 0 -22 24 -15 48 5 19 0 21 -70 20 -80 0 -102 6 -90 25 4 7 8 28 8 47 l0
35 55 -1 c51 -2 55 -3 58 -28 3 -26 39 -59 54 -50 4 3 1 15 -7 27 -18 25 -20
47 -4 47 6 0 18 -18 27 -40 20 -48 49 -54 57 -12 3 15 10 41 16 59 5 17 7 43
3 57 l-6 26 143 0 c79 0 150 -4 158 -9 8 -5 11 -16 7 -29 -6 -19 -16 -22 -89
-24 -110 -4 -106 -22 6 -26 82 -3 87 -4 87 -25 1 -33 22 -53 55 -52 30 1 31 1
17 49 -5 18 -3 18 26 -3 17 -12 35 -29 40 -37 13 -23 96 -15 100 9 3 14 -4 17
-37 17 -59 0 -94 16 -88 40 4 16 -2 20 -39 26 -37 5 -44 10 -44 29 0 13 7 26
16 29 20 8 115 8 193 0 59 -7 61 -8 61 -35 0 -28 -1 -29 -53 -29 -51 0 -100
-20 -85 -35 4 -4 35 -8 70 -9 l63 -1 -3 -150 c-2 -82 -8 -170 -13 -194 -10
-46 1 -75 20 -55 10 10 29 378 32 604 1 74 2 151 3 170 l1 35 -320 0 c-297 0
-363 4 -391 26 -5 4 -70 8 -143 7 -118 0 -135 2 -144 17 -9 17 6 18 319 12
446 -9 736 -18 752 -23 11 -3 10 -7 -2 -20 -12 -12 -16 -37 -16 -105 l0 -89
30 0 c40 0 39 -18 -2 -22 -36 -3 -50 -27 -20 -35 21 -5 21 -5 1 -42 -17 -34
-20 -67 -26 -319 -5 -218 -3 -294 7 -337 7 -30 11 -56 9 -58 -9 -5 -544 12
-699 23 -91 7 -217 15 -280 19 l-115 6 -3 28 c-5 44 -32 26 -32 -22 0 -43 26
-49 240 -60 113 -6 279 -16 370 -21 238 -14 538 -16 550 -4 8 8 8 25 1 55 -21
89 -27 147 -19 168 4 13 5 27 2 33 -7 12 -5 233 2 253 10 24 75 11 101 -21 13
-16 33 -40 43 -52 21 -25 27 -62 10 -62 -15 0 -12 -60 3 -61 6 -1 22 0 35 1
12 1 25 -6 28 -14 3 -9 12 -16 20 -16 10 0 13 -7 9 -23 -30 -132 -30 -130 -6
-118 11 6 21 26 25 48 10 64 57 614 59 708 2 56 0 60 -26 73 -15 7 -36 31 -47
53 -11 21 -25 39 -30 39 -6 0 -15 11 -20 25 -5 14 -14 25 -20 25 -5 0 -10 11
-10 24 0 15 -12 34 -30 49 -27 23 -30 32 -30 81 0 43 -3 56 -15 56 -12 0 -15
-13 -15 -61 0 -33 -7 -83 -17 -111 l-16 -50 -285 6 c-156 3 -288 8 -292 11 -5
3 -135 6 -289 6 -155 1 -295 4 -313 8 -36 7 -48 27 -21 34 14 3 11 7 -14 18
-38 15 -44 38 -10 40 12 1 29 3 37 4 8 1 32 3 53 4 26 1 37 6 37 16 0 12 -14
15 -69 15 -82 0 -81 -1 -81 111 l0 80 174 -2 c143 -2 179 1 198 13 24 16 25
22 30 106 l3 43 100 0 c55 -1 137 -1 182 -1 l82 1 6 -33 c4 -18 2 -46 -4 -61
-17 -44 -13 -64 16 -91 30 -28 51 -21 34 11 -5 11 -9 28 -9 39 1 10 -2 36 -6
56 -4 23 -2 46 5 59 11 21 16 22 118 16 58 -3 129 -13 156 -21 32 -10 89 -16
161 -16 99 0 113 -2 129 -20 11 -12 28 -20 39 -18 19 3 22 12 28 103 12 194
29 472 37 595 5 86 12 136 24 161 21 43 40 267 24 287 -15 19 -450 17 -466 -2
-11 -14 -28 -348 -37 -751 -6 -229 -4 -224 -52 -222 l-37 1 3 121 c4 190 8
212 10 53 1 -81 6 -149 11 -153 15 -9 20 42 25 245 7 289 26 692 35 725 6 25
14 31 47 37 36 7 505 0 512 -7 4 -3 -1 -78 -29 -445 -6 -74 -12 -166 -14 -205
-3 -38 -7 -109 -10 -156 -7 -93 -1 -108 35 -89 25 13 26 36 3 49 -29 16 -11
19 39 8 36 -9 47 -15 43 -27 -4 -12 8 -18 48 -28 29 -6 67 -12 85 -12 32 0 32
-1 32 -49 0 -31 -5 -53 -15 -61 -8 -7 -15 -9 -15 -4 0 4 -5 3 -12 -4 -14 -14
-62 -16 -53 -2 3 5 9 31 12 56 7 57 -1 64 -84 64 -62 0 -63 -1 -64 -27 -1 -16
0 -34 1 -42 1 -9 -4 -12 -15 -7 -9 3 -19 6 -22 6 -3 0 0 6 6 14 9 10 8 16 -4
26 -17 14 -28 8 -30 -18 -6 -69 -19 -138 -28 -153 -15 -24 -1 -38 56 -60 40
-16 42 -19 44 -60 1 -24 -2 -75 -7 -114 -21 -155 -27 -280 -17 -305 9 -23 11
-20 18 30 4 30 13 123 19 205 6 83 13 164 16 182 l6 32 100 7 100 7 -7 34 c-3
19 -9 41 -12 49 -3 8 0 14 6 14 7 0 11 38 11 116 0 76 -3 113 -10 109 -6 -4
-39 -3 -74 0 l-64 7 5 37 c4 20 20 51 38 72 38 43 57 92 58 157 2 44 0 47 -23
45 -65 -4 -82 -8 -92 -20 -13 -16 -32 -17 -22 -1 4 7 9 37 10 68 1 30 7 115
12 189 9 115 13 137 30 150 11 9 30 40 42 69 12 28 26 52 30 52 12 0 30 50 29
83 l0 32 -17 -35 c-9 -19 -23 -39 -29 -45 -7 -5 -24 -37 -37 -70 l-25 -60 -1
96 0 97 -57 -5 c-32 -2 -186 -7 -343 -11 -275 -7 -285 -8 -287 -27 -7 -57 -12
-159 -19 -328 -6 -167 -8 -185 -21 -167 -15 21 -45 22 -130 4 -35 -7 -27 14
11 30 18 8 37 20 41 27 5 7 7 54 6 106 -2 89 -1 94 24 116 18 15 28 36 32 64
8 62 -2 88 -39 104 -41 16 -48 26 -46 68 1 33 -20 61 -47 61 -7 0 -13 12 -14
28 -4 80 -14 152 -21 152 -4 0 -11 -24 -15 -52z m25 -113 c0 -8 -4 -15 -10
-15 -5 0 -10 7 -10 15 0 8 5 15 10 15 6 0 10 -7 10 -15z m35 -67 c2 -7 6 -30
10 -51 5 -31 13 -41 45 -57 34 -17 40 -25 40 -53 0 -25 -8 -39 -37 -63 -34
-28 -36 -34 -26 -55 6 -13 11 -55 11 -92 0 -66 -2 -70 -32 -88 -53 -34 -146
-5 -146 45 0 13 -9 34 -19 48 -33 41 -31 75 4 88 35 13 31 33 -10 53 -31 15
-35 21 -35 57 0 27 4 40 14 40 7 0 25 9 40 21 20 16 26 29 26 59 0 27 6 42 18
49 24 15 92 14 97 -1z m834 -110 c-3 -46 -12 -182 -19 -303 -11 -188 -16 -223
-31 -239 -10 -11 -21 -17 -25 -14 -3 4 0 89 6 190 21 320 25 419 17 434 -6 11
-1 14 25 14 l33 0 -6 -82z m-149 -27 c0 -6 -6 -14 -14 -18 -10 -6 -15 -41 -19
-133 -3 -69 -11 -190 -17 -270 -5 -80 -15 -221 -21 -315 -22 -356 -20 -338
-35 -317 -11 16 -31 20 -136 25 -68 4 -140 10 -161 13 -33 6 -37 10 -35 33 2
14 -1 25 -7 24 -13 -2 -9 298 5 452 5 61 12 197 14 304 3 144 7 196 17 202 19
11 409 12 409 0z m-1443 -17 c-3 -3 -12 -4 -19 -1 -8 3 -5 6 6 6 11 1 17 -2
13 -5z m839 -601 c-10 -289 -3 -258 -56 -261 -25 -1 -52 -5 -60 -9 -8 -3 -29
-5 -46 -4 -24 2 -37 -4 -53 -25 -33 -42 -28 -57 13 -35 33 19 33 19 77 -6 24
-13 57 -23 74 -23 47 3 57 1 49 -11 -4 -7 -24 -9 -50 -6 -24 2 -48 0 -55 -7
-8 -8 -10 -8 -6 0 9 15 -13 40 -41 49 -20 6 -22 4 -17 -18 l6 -24 -148 4 c-81
3 -150 7 -152 9 -13 12 20 19 102 21 68 2 95 7 103 18 6 9 20 26 30 40 10 13
31 27 46 30 15 4 28 13 28 21 0 21 -57 17 -80 -6 -22 -22 -78 -27 -85 -7 -2 6
-5 53 -7 103 l-3 92 24 -19 c25 -20 57 -24 80 -10 9 6 10 11 2 15 -6 4 -11 18
-11 32 0 17 -5 24 -19 24 -11 0 -23 5 -26 10 -12 20 -35 10 -35 -15 0 -14 -5
-25 -11 -25 -7 0 -9 9 -5 23 3 12 6 64 6 115 l0 92 35 0 c24 0 42 -8 62 -27
l27 -28 6 25 c6 24 10 25 95 31 50 3 94 6 99 7 5 1 6 -84 2 -195z m834 107 c0
-5 -15 -10 -32 -9 -28 0 -30 2 -13 9 28 12 45 12 45 0z m-773 -32 c-3 -8 -6
-5 -6 6 -1 11 2 17 5 13 3 -3 4 -12 1 -19z m762 -60 c-8 -14 -14 -18 -17 -10
-4 13 17 46 25 38 3 -2 -1 -15 -8 -28z m-1090 -57 c8 -5 9 -11 3 -15 -5 -3
-15 1 -22 9 -14 16 -3 20 19 6z m-788 -191 c10 0 19 -5 19 -11 0 -13 -50 -3
-65 13 -7 8 -4 9 8 4 10 -3 27 -6 38 -6z m-12 -44 c12 -14 5 -46 -10 -46 -5 0
-9 6 -9 14 0 8 -3 21 -6 30 -8 20 9 21 25 2z m91 -93 c-18 -14 -28 3 -11 20 6
6 12 20 12 32 1 13 4 10 8 -10 5 -21 2 -33 -9 -42z m880 57 c0 -5 -2 -10 -4
-10 -3 0 -8 5 -11 10 -3 6 -1 10 4 10 6 0 11 -4 11 -10z m73 -7 c-7 -2 -21 -2
-30 0 -10 3 -4 5 12 5 17 0 24 -2 18 -5z m715 -43 c12 -32 4 -44 -22 -34 -24
9 -20 64 5 64 4 0 12 -13 17 -30z m-1783 -7 c20 -40 38 -55 62 -50 13 2 23 1
23 -4 0 -4 -17 -11 -37 -15 -21 -4 -52 -13 -69 -20 -43 -18 -310 -27 -335 -11
-22 14 -25 33 -5 40 8 3 16 16 18 29 3 21 5 19 21 -14 20 -42 15 -41 114 -38
74 2 145 20 151 39 2 6 15 11 28 11 27 0 33 17 9 26 -18 7 -20 37 -2 32 6 -3
17 -14 22 -25z m48 12 c4 -8 2 -17 -3 -20 -6 -4 -10 3 -10 14 0 25 6 27 13 6z
m1847 -15 c0 -16 -4 -30 -10 -30 -5 0 -10 -6 -10 -14 0 -8 -4 -17 -8 -20 -5
-3 -5 17 1 44 11 55 27 67 27 20z m-712 14 c39 -11 24 -24 -28 -24 -49 0 -68
14 -32 23 26 7 35 7 60 1z m-1641 -29 c-23 -22 -33 -18 -12 5 10 11 20 18 23
16 2 -3 -3 -12 -11 -21z m1026 -35 c3 -11 1 -18 -4 -14 -5 3 -9 12 -9 20 0 20
7 17 13 -6z m-1003 -15 c-7 -8 -17 -15 -22 -15 -6 0 -5 7 2 15 7 8 17 15 22
15 6 0 5 -7 -2 -15z m695 5 c-3 -5 -10 -10 -16 -10 -5 0 -9 5 -9 10 0 6 7 10
16 10 8 0 12 -4 9 -10z m-361 -267 c3 -65 9 -184 12 -265 l7 -146 -34 -35
c-19 -19 -43 -46 -55 -59 -37 -42 -246 -233 -259 -236 -9 -2 -12 28 -14 115
-1 66 -4 139 -6 163 -2 25 -6 97 -10 160 -4 63 -11 129 -15 145 -5 17 -10 48
-12 69 -2 35 1 41 27 56 17 9 47 22 67 29 20 7 52 23 71 35 19 13 63 33 98 45
35 12 71 26 79 31 33 21 37 11 44 -107z m36 97 c0 -5 -5 -10 -11 -10 -5 0 -7
5 -4 10 3 6 8 10 11 10 2 0 4 -4 4 -10z m100 -9 c0 -9 -24 -21 -43 -21 -6 0
-2 7 9 15 22 17 34 19 34 6z m134 -25 c15 -55 -1 -237 -21 -244 -10 -3 -13 25
-13 117 0 73 -4 122 -11 126 -10 7 -59 -38 -59 -55 0 -4 -16 -17 -35 -29 -39
-23 -51 -42 -40 -68 4 -10 7 -44 5 -75 -2 -71 8 -74 66 -17 l42 41 7 -56 c6
-43 4 -61 -8 -78 -22 -32 -123 -138 -131 -138 -3 0 -6 9 -6 19 0 11 -4 22 -8
25 -5 3 -12 58 -15 123 -4 65 -10 148 -13 186 -7 66 -7 67 17 67 13 0 39 9 58
21 101 62 155 73 165 35z m-194 4 c0 -5 -4 -10 -10 -10 -5 0 -10 5 -10 10 0 6
5 10 10 10 6 0 10 -4 10 -10z m90 -179 c0 -19 -22 -23 -38 -7 -15 15 -14 16
11 16 15 0 27 -4 27 -9z m1475 -91 c4 -6 -8 -10 -30 -10 -22 0 -34 4 -30 10 3
6 17 10 30 10 13 0 27 -4 30 -10z m50 -90 c15 -16 24 -33 21 -39 -9 -14 -53
-14 -61 -1 -3 5 -28 12 -55 16 -28 4 -50 8 -50 10 0 1 4 13 9 26 8 21 14 23
59 20 39 -3 56 -10 77 -32z m-1061 -29 c3 -4 -3 -25 -14 -46 l-19 -38 28 -43
c24 -35 27 -44 14 -48 -40 -16 -133 1 -133 24 0 6 13 16 29 21 22 8 27 15 23
34 -4 23 -53 51 -66 38 -3 -4 -6 0 -6 8 0 8 -3 24 -6 37 -6 21 -4 22 69 22 42
0 78 -4 81 -9z m76 -16 c0 -17 -2 -18 -24 -9 -23 9 -20 24 4 24 11 0 20 -7 20
-15z m186 -24 c72 -4 135 -11 141 -14 6 -4 10 -39 11 -78 0 -39 5 -76 11 -82
6 -6 11 -15 11 -20 0 -9 -334 -6 -343 3 -3 3 2 34 9 70 9 38 12 86 9 115 -5
44 -5 48 8 31 11 -15 33 -19 143 -25z m384 9 c-19 -12 -12 -17 45 -39 l48 -18
-34 -7 c-50 -9 -65 -21 -51 -39 10 -11 5 -14 -26 -15 -20 -1 -50 1 -66 4 -28
6 -29 7 -12 20 18 12 17 14 -8 25 -14 7 -26 15 -26 19 0 4 21 15 47 25 40 15
44 20 28 26 -14 5 -7 8 25 8 31 1 41 -2 30 -9z m-603 -42 c-3 -8 -6 -5 -6 6
-1 11 2 17 5 13 3 -3 4 -12 1 -19z m923 -104 c0 -8 -4 -12 -10 -9 -5 3 -10 10
-10 16 0 5 5 9 10 9 6 0 10 -7 10 -16z m149 -41 c-1 -27 -4 -75 -8 -108 -7
-53 -8 -57 -18 -35 -6 14 -7 38 -2 60 5 19 9 56 9 83 0 26 5 47 10 47 6 0 10
-21 9 -47z m-78 -141 c-8 -12 -10 3 -11 59 0 42 3 79 8 83 11 12 14 -122 3
-142z m-71 103 c0 -31 -3 -35 -25 -35 l-25 0 17 35 c9 19 20 35 25 35 4 0 8
-16 8 -35z m-1235 -45 l16 -30 -45 0 -44 0 26 30 c15 17 28 30 29 30 1 0 9
-13 18 -30z m347 9 c-1 -9 5 -22 13 -29 12 -10 15 -10 15 0 0 8 3 10 6 7 12
-12 -17 -35 -37 -30 -14 4 -19 12 -16 24 3 11 2 21 -2 23 -4 3 -51 6 -104 7
-53 1 -97 6 -97 11 0 5 50 7 113 6 97 -3 112 -5 109 -19z m-102 -39 c0 -5 -2
-10 -4 -10 -3 0 -8 5 -11 10 -3 6 -1 10 4 10 6 0 11 -4 11 -10z m70 0 c0 -5
-9 -10 -21 -10 -11 0 -17 5 -14 10 3 6 13 10 21 10 8 0 14 -4 14 -10z m936
-22 c-9 -12 -16 -17 -16 -10 0 6 -10 12 -22 12 -13 0 -30 5 -38 11 -11 7 -4 8
26 4 27 -4 44 -2 49 5 4 6 9 9 12 6 3 -2 -2 -15 -11 -28z m-861 -28 c-3 -5
-11 -10 -16 -10 -6 0 -7 5 -4 10 3 6 11 10 16 10 6 0 7 -4 4 -10z m377 -22
c-9 -9 -12 -7 -12 12 0 19 3 21 12 12 9 -9 9 -15 0 -24z m464 -8 c17 0 21 -6
20 -30 -1 -28 -4 -30 -39 -30 -52 0 -77 15 -77 47 0 24 2 25 38 19 20 -3 46
-6 58 -6z m144 -50 c0 -14 -3 -35 -6 -47 -12 -42 -19 -23 -16 39 3 40 7 56 13
47 5 -8 9 -25 9 -39z m-72 -19 c-14 -46 -28 -54 -28 -17 0 39 19 81 31 69 7
-7 6 -23 -3 -52z m-1023 -119 c10 -42 22 -81 26 -86 14 -15 10 -36 -6 -36 -23
0 -45 42 -56 106 -5 33 -13 75 -16 94 -6 34 -6 35 14 17 12 -11 27 -47 38 -95z
m-99 90 c9 -6 26 -71 38 -147 2 -16 8 -38 11 -47 6 -14 2 -18 -14 -18 -12 0
-21 6 -21 14 0 7 -8 24 -19 37 -18 24 -51 122 -51 153 0 17 36 22 56 8z m1182
-97 c2 -17 -1 -42 -6 -55 -9 -24 -10 -24 -21 15 -16 58 -14 77 7 73 11 -2 18
-14 20 -33z m-848 -85 c0 -5 -2 -10 -4 -10 -3 0 -8 5 -11 10 -3 6 -1 10 4 10
6 0 11 -4 11 -10z m-370 -26 c0 -8 -4 -12 -10 -9 -5 3 -10 10 -10 16 0 5 5 9
10 9 6 0 10 -7 10 -16z m240 6 c0 -5 -2 -10 -4 -10 -3 0 -8 5 -11 10 -3 6 -1
10 4 10 6 0 11 -4 11 -10z"/>
<path d="M1953 2853 c-14 -32 -30 -69 -36 -83 -5 -14 -14 -33 -19 -43 -5 -10
-6 -27 -3 -38 4 -11 2 -19 -5 -19 -6 0 -10 -10 -8 -22 2 -17 11 -24 31 -26 31
-4 35 12 10 40 -15 17 -15 19 1 31 10 7 17 20 15 28 -3 18 6 42 36 99 27 51
37 57 59 35 24 -25 30 -64 17 -109 -6 -23 -13 -49 -14 -58 -1 -10 -10 -27 -19
-38 -19 -21 -24 -50 -10 -50 15 0 53 47 51 61 -2 8 2 23 8 34 22 40 26 130 7
166 -20 41 -31 49 -67 49 -24 0 -31 -8 -54 -57z"/>
<path d="M1882 2598 c7 -20 48 -23 48 -4 0 11 -9 16 -26 16 -16 0 -24 -5 -22
-12z"/>
<path d="M1517 2562 c-22 -24 -12 -33 24 -20 32 11 37 23 13 32 -21 8 -19 9
-37 -12z"/>
<path d="M1400 2560 c0 -5 5 -10 10 -10 6 0 10 5 10 10 0 6 -4 10 -10 10 -5 0
-10 -4 -10 -10z"/>
<path d="M1430 2517 c0 -14 14 -36 34 -54 26 -22 33 -36 29 -52 -4 -15 1 -23
18 -29 18 -7 20 -11 8 -18 -22 -13 -50 -15 -64 -4 -9 8 -14 4 -19 -12 -3 -13
-6 -26 -6 -30 0 -10 104 -4 112 7 5 6 12 5 20 -3 19 -19 31 -14 26 13 -4 19
-1 25 13 25 15 0 19 8 19 34 0 41 -10 49 -82 66 -50 11 -58 16 -58 36 0 13 -9
28 -19 34 -28 14 -31 13 -31 -13z m160 -111 c0 -9 -7 -12 -20 -9 -11 3 -20 9
-20 14 0 5 9 9 20 9 11 0 20 -6 20 -14z"/>
<path d="M1362 2508 c2 -12 11 -24 21 -26 14 -3 18 1 15 20 -2 12 -11 24 -21
26 -14 3 -18 -1 -15 -20z"/>
<path d="M1546 2521 c-9 -14 5 -41 20 -41 20 0 30 30 13 41 -18 11 -26 11 -33
0z"/>
<path d="M1406 2305 c4 -8 8 -15 10 -15 2 0 4 7 4 15 0 8 -4 15 -10 15 -5 0
-7 -7 -4 -15z"/>
<path d="M1337 2303 c-16 -15 -6 -33 18 -33 18 0 25 5 25 20 0 20 -28 28 -43
13z"/>
<path d="M1580 2285 c0 -8 5 -15 10 -15 6 0 10 7 10 15 0 8 -4 15 -10 15 -5 0
-10 -7 -10 -15z"/>
<path d="M405 1800 c-3 -5 -1 -10 4 -10 6 0 11 5 11 10 0 6 -2 10 -4 10 -3 0
-8 -4 -11 -10z"/>
<path d="M201 1714 c-28 -35 -13 -52 23 -28 27 17 32 44 10 51 -7 2 -21 -8
-33 -23z"/>
<path d="M222 1524 c-19 -13 -32 -54 -16 -54 18 0 64 37 62 49 -4 21 -21 23
-46 5z"/>
<path d="M235 1250 c-26 -28 -27 -50 -1 -50 17 0 46 33 46 53 0 28 -16 27 -45
-3z"/>
<path d="M2200 3424 c0 -8 5 -24 10 -35 17 -30 90 -26 129 7 17 14 31 30 31
35 0 14 -33 10 -54 -6 -27 -20 -86 -20 -86 0 0 8 -7 15 -15 15 -8 0 -15 -7
-15 -16z"/>
<path d="M820 3385 c0 -8 9 -15 20 -15 13 0 18 5 14 15 -4 8 -12 15 -20 15 -8
0 -14 -7 -14 -15z"/>
<path d="M1135 3198 c-44 -5 -187 -7 -317 -4 l-238 5 0 -27 c0 -14 7 -159 15
-322 8 -162 16 -345 17 -407 l3 -111 -25 -6 c-14 -3 -43 -9 -65 -13 -25 -5
-40 -14 -40 -23 0 -16 39 -19 87 -5 20 5 37 1 63 -14 63 -37 65 -35 61 97 -2
64 -6 250 -10 412 -4 162 -8 311 -10 330 l-3 35 261 -2 261 -2 8 -28 c4 -15 6
-142 3 -280 -4 -204 -2 -253 9 -253 17 0 29 355 17 490 -5 52 -7 98 -5 103 2
4 26 7 54 7 37 0 49 4 49 15 0 17 -63 18 -195 3z m-486 -235 c1 -109 6 -288
11 -398 13 -276 13 -264 -8 -258 -16 4 -17 13 -13 71 3 59 -10 466 -24 700 -5
75 -4 82 14 82 17 0 18 -12 20 -197z"/>
<path d="M1070 3035 c7 -8 21 -15 31 -15 11 0 19 7 19 15 0 10 -10 15 -31 15
-27 0 -30 -2 -19 -15z"/>
<path d="M134 2926 c-3 -8 -1 -99 5 -202 12 -227 11 -224 118 -224 66 0 74 2
71 18 -3 14 -17 18 -73 22 l-70 5 -6 45 c-11 80 -21 300 -14 300 4 0 26 -9 49
-19 23 -11 62 -26 87 -35 26 -9 55 -25 66 -34 15 -14 118 -138 155 -188 6 -8
-8 -9 -50 -2 -42 6 -63 15 -80 34 -29 33 -47 22 -27 -17 10 -19 14 -41 9 -64
l-6 -33 49 -7 c26 -3 71 -13 99 -22 65 -21 84 -14 84 30 0 25 -13 51 -53 103
-109 145 -168 212 -195 223 -15 6 -35 25 -44 41 -23 40 -46 38 -39 -2 2 -11 0
-11 -63 17 -66 29 -65 29 -72 11z m381 -363 c22 -3 45 -10 50 -15 12 -12 -106
-1 -143 13 -36 14 -17 29 21 17 17 -6 50 -13 72 -15z"/>
<path d="M1061 2857 c-15 -19 -32 -147 -21 -167 5 -9 11 -51 13 -93 3 -62 8
-82 26 -102 22 -26 41 -26 41 0 0 8 -12 26 -27 40 -20 18 -24 28 -16 33 10 6
12 71 3 92 -1 3 -1 13 0 23 1 10 -4 24 -10 32 -8 10 -8 24 -1 50 5 20 7 43 4
50 -3 9 5 17 21 21 14 3 26 12 26 20 0 18 -44 18 -59 1z"/>
<path d="M2416 2672 c-3 -3 -6 -14 -6 -25 0 -18 6 -19 55 -15 30 3 55 1 55 -3
0 -4 9 -7 20 -6 27 2 25 14 -2 23 -13 4 -26 11 -30 17 -7 12 -83 19 -92 9z"/>
<path d="M50 2281 c-25 -9 -46 -24 -48 -34 -4 -21 -5 -21 68 0 46 12 60 21 60
35 0 22 -19 22 -80 -1z"/>
<path d="M1226 2211 c-4 -7 -5 -15 -2 -18 9 -9 19 4 14 18 -4 11 -6 11 -12 0z"/>
<path d="M0 1936 l0 -66 58 0 c32 0 62 3 65 7 15 14 -18 33 -59 33 l-44 0 0
39 c0 22 -4 43 -10 46 -6 4 -10 -18 -10 -59z"/>
<path d="M2198 1933 c-10 -2 -18 -11 -18 -20 0 -14 -18 -15 -137 -12 -118 3
-138 2 -138 -11 0 -19 62 -28 199 -29 97 -1 98 -1 92 -23 -3 -13 -6 -58 -6
-100 l0 -78 -41 0 c-33 0 -40 -3 -37 -17 3 -17 70 -38 93 -30 6 3 11 53 13
123 3 91 7 123 19 137 14 15 14 21 3 42 -7 14 -16 24 -19 24 -3 -1 -14 -3 -23
-6z"/>
<path d="M1201 1910 c-43 -10 -86 -57 -70 -77 12 -14 56 -17 83 -7 24 9 19 32
-6 36 -13 2 16 7 64 12 106 9 164 1 179 -25 12 -23 29 -16 29 12 0 38 -56 59
-155 58 -49 -1 -105 -5 -124 -9z"/>
<path d="M111 1853 c-36 -17 -63 -23 -82 -19 -27 5 -29 3 -29 -24 0 -28 2 -29
33 -24 42 8 138 45 156 60 15 13 7 34 -12 33 -7 0 -36 -12 -66 -26z"/>
<path d="M2404 1452 c-43 -7 -49 -12 -32 -28 22 -22 161 -9 156 15 -3 12 -15
16 -54 16 -28 0 -59 -1 -70 -3z"/>
<path d="M2548 987 c-5 -10 -8 -54 -8 -97 0 -42 -6 -115 -14 -161 -8 -46 -17
-108 -21 -136 -4 -29 -11 -53 -17 -53 -12 0 -65 55 -80 83 -9 17 -8 19 6 14
22 -9 22 36 -1 54 -14 12 -17 12 -21 0 -4 -13 -72 82 -72 100 0 12 64 -23 82
-45 16 -20 17 -20 24 -3 9 24 -34 69 -83 86 -21 7 -46 20 -55 28 -9 8 -21 12
-27 9 -14 -9 125 -280 166 -324 27 -28 36 -32 47 -23 19 16 23 -12 15 -94 -4
-33 -11 -105 -17 -160 -16 -149 -18 -228 -7 -232 9 -3 68 471 67 537 0 8 6 56
14 105 15 91 16 347 2 312z"/>
<path d="M2120 460 c0 -11 5 -20 10 -20 6 0 10 9 10 20 0 11 -4 20 -10 20 -5
0 -10 -9 -10 -20z"/>
<path d="M2553 335 c0 -33 2 -45 4 -27 2 18 2 45 0 60 -2 15 -4 0 -4 -33z"/>
<path d="M1410 346 c0 -18 31 -26 103 -26 50 0 57 2 57 20 0 18 -7 20 -80 20
-61 0 -80 -3 -80 -14z"/>
<path d="M2150 306 c0 -14 6 -43 14 -63 7 -21 24 -73 37 -115 13 -43 29 -76
34 -74 14 5 7 49 -16 104 -22 49 -25 61 -37 126 -8 45 -32 62 -32 22z"/>
<path d="M2553 115 c0 -33 2 -45 4 -27 2 18 2 45 0 60 -2 15 -4 0 -4 -33z"/>
</g>
</svg>
