<?xml version="1.0" standalone="no"?>
<!DOCTYPE svg PUBLIC "-//W3C//DTD SVG 20010904//EN"
 "http://www.w3.org/TR/2001/REC-SVG-20010904/DTD/svg10.dtd">
<svg version="1.0" xmlns="http://www.w3.org/2000/svg"
 width="376.000000pt" height="256.000000pt" viewBox="0 0 376.000000 256.000000"
 preserveAspectRatio="xMidYMid meet">
<metadata>
Created by potrace 1.16, written by Peter Selinger 2001-2019
</metadata>
<g transform="translate(0.000000,256.000000) scale(0.100000,-0.100000)"
fill="#000000" stroke="none">
<path d="M316 2536 c-3 -14 -3 -31 0 -39 8 -23 121 -65 219 -83 50 -8 116 -22
147 -30 35 -8 107 -14 181 -14 105 0 131 3 182 23 l60 24 -3 43 c-1 23 -8 52
-14 64 -7 11 -11 24 -10 29 1 4 -9 7 -23 7 -18 0 -23 -4 -18 -16 4 -12 0 -14
-23 -8 -16 4 -33 11 -38 15 -6 5 -57 8 -115 8 l-106 -2 70 -8 c76 -9 141 -26
165 -43 30 -22 60 -36 75 -36 28 0 15 -21 -22 -37 -51 -21 -366 -13 -463 11
-154 40 -187 49 -212 62 -16 8 -28 21 -28 29 0 25 -18 26 -24 1z"/>
<path d="M406 2534 c3 -34 10 -40 29 -24 24 20 19 50 -9 50 -19 0 -23 -5 -20
-26z"/>
<path d="M636 2550 c7 -7 19 -7 35 -1 23 9 22 10 -10 10 -24 1 -32 -2 -25 -9z"/>
<path d="M1603 2554 c13 -13 146 -53 247 -74 58 -12 157 -35 221 -51 210 -53
203 -52 268 -9 31 20 94 59 141 86 75 44 81 49 56 52 -32 4 -79 -16 -153 -64
-28 -19 -56 -34 -61 -34 -5 0 -16 -8 -26 -19 -18 -20 -27 -19 -151 14 -88 23
-229 54 -320 71 -44 8 -88 19 -97 25 -19 10 -135 13 -125 3z"/>
<path d="M3645 2419 c-33 -5 -98 -13 -145 -19 -47 -5 -114 -16 -150 -24 -36
-8 -82 -15 -104 -16 -21 0 -68 -5 -105 -11 -36 -5 -97 -14 -136 -20 -38 -5
-98 -16 -132 -24 -34 -8 -79 -15 -101 -15 -72 0 -89 -12 -101 -72 -5 -29 -13
-91 -16 -138 -4 -47 -10 -101 -15 -120 -5 -19 -11 -89 -14 -154 -4 -66 -13
-165 -21 -220 -7 -56 -17 -137 -20 -181 -3 -44 -8 -95 -11 -113 -5 -30 -2 -34
30 -47 20 -8 51 -15 70 -15 39 0 41 5 52 113 l7 68 46 -6 c25 -4 57 -11 71
-16 21 -7 291 -49 320 -49 6 0 10 12 10 28 0 15 3 45 6 68 l6 40 -54 1 c-71 1
-89 -26 -45 -67 l22 -22 -40 7 c-42 6 -105 17 -217 36 -38 6 -68 13 -68 16 0
2 5 14 11 25 11 20 11 20 33 -6 28 -34 86 -41 93 -11 13 61 -2 94 -29 65 -24
-26 -52 -22 -56 7 -2 17 -12 24 -38 29 -43 8 -49 3 -37 -33 12 -35 7 -52 -21
-63 -22 -8 -38 -53 -52 -147 -4 -24 -10 -43 -15 -43 -11 0 -11 4 1 100 5 41
12 107 15 145 4 39 11 103 16 143 12 100 12 149 -2 135 -9 -9 -55 -360 -60
-469 -2 -39 -5 -45 -23 -42 -24 3 -24 4 -5 193 6 61 15 153 19 205 14 159 45
448 56 513 7 45 17 50 130 67 43 6 122 18 174 26 93 15 163 25 285 44 33 5
103 14 155 20 52 7 111 16 131 21 20 5 54 9 75 10 57 1 88 12 92 32 4 19 0 19
-93 6z"/>
<path d="M2273 2335 c-6 -11 -13 -67 -16 -125 -3 -58 -11 -187 -18 -287 -15
-214 1 -196 -173 -192 l-109 3 2 -190 c1 -104 4 -204 8 -221 4 -26 2 -33 -11
-33 -12 0 -16 -10 -17 -42 0 -24 -6 -86 -13 -138 -12 -90 -12 -99 9 -175 16
-57 21 -96 18 -136 -3 -36 -1 -59 6 -63 22 -14 10 -25 -23 -19 -18 3 -43 0
-55 -7 -23 -12 -117 -16 -149 -6 -10 4 -28 24 -40 45 l-23 40 -43 -19 c-39
-18 -143 -38 -596 -117 -80 -13 -179 -31 -220 -39 -41 -7 -120 -20 -175 -29
-55 -9 -134 -23 -175 -31 -129 -27 -363 -64 -368 -59 -3 3 -9 47 -13 97 -10
112 -23 176 -38 191 -16 16 -14 -53 4 -128 19 -78 20 -75 -15 -75 -26 0 -30
-4 -30 -26 0 -38 39 -73 41 -36 0 9 10 -3 21 -27 l20 -43 51 6 c93 10 171 23
214 35 23 6 72 15 110 20 37 6 156 26 263 45 107 19 224 40 260 46 100 17 157
28 250 46 47 9 110 20 140 25 30 4 90 15 133 23 124 25 120 27 78 -57 -20 -39
-44 -90 -53 -112 -48 -112 -106 -234 -125 -265 -12 -19 -27 -56 -33 -83 -7
-26 -16 -50 -21 -53 -5 -3 -9 -14 -9 -25 0 -10 -16 -37 -36 -59 l-36 -40 30 0
c36 0 46 15 92 130 36 92 59 144 126 288 24 52 44 96 44 98 0 5 63 131 94 189
9 17 16 24 16 18 0 -7 9 -22 21 -34 11 -11 18 -24 14 -27 -4 -4 -11 1 -16 11
-6 9 -14 17 -19 17 -9 0 -51 -85 -48 -98 2 -13 -16 -47 -37 -70 -34 -34 -41
-83 -15 -104 11 -9 20 -23 20 -32 0 -21 17 -20 29 2 11 20 15 12 26 -53 8 -48
30 -75 61 -75 12 0 31 -11 42 -25 20 -26 42 -33 42 -14 0 6 14 9 33 7 28 -3
32 0 35 25 2 15 8 25 13 22 5 -4 6 -17 3 -31 -4 -13 -2 -24 4 -24 6 0 8 -9 5
-20 -3 -13 1 -22 11 -26 16 -6 16 -8 0 -25 -17 -18 -16 -21 4 -48 19 -26 19
-31 6 -56 -15 -30 -7 -44 24 -45 17 0 51 40 52 60 0 10 6 7 19 -9 l19 -24 11
22 c13 24 7 41 -15 41 -8 0 -14 5 -14 10 0 7 13 8 36 4 26 -5 39 -3 45 7 16
26 20 0 5 -30 -20 -38 -20 -48 0 -69 15 -14 17 -14 26 2 8 14 17 16 46 11 21
-4 40 -12 43 -17 9 -15 56 21 63 48 7 27 44 69 53 60 4 -3 -1 -28 -10 -54 -21
-57 -21 -62 -2 -62 8 0 15 7 15 15 0 21 68 21 76 0 4 -8 15 -15 25 -15 17 0
18 3 9 20 -6 11 -8 24 -5 29 3 5 -11 19 -30 31 -30 18 -65 64 -65 84 0 10 62
38 68 31 4 -3 -4 -14 -17 -24 -27 -21 -24 -43 8 -60 14 -8 22 -8 27 0 5 8 12
4 24 -10 20 -27 85 -40 93 -19 5 15 55 17 65 2 4 -5 22 -14 40 -21 29 -10 32
-9 32 7 0 34 12 50 36 50 26 0 44 -27 27 -39 -6 -3 -14 -16 -17 -29 -5 -15
-14 -22 -29 -21 -41 4 -57 -1 -57 -15 0 -12 22 -15 115 -15 63 0 115 2 115 6
0 4 -9 16 -20 28 -12 13 -17 28 -13 43 6 23 18 29 28 12 3 -6 1 -10 -4 -10
-20 0 -11 -26 17 -53 26 -25 35 -27 105 -27 43 0 85 4 95 10 9 5 34 16 55 24
39 16 51 46 17 46 -11 0 -20 -4 -20 -9 0 -5 -13 -11 -30 -13 -20 -3 -30 0 -30
8 0 7 -6 17 -12 21 -7 4 -13 19 -13 33 0 18 -6 26 -22 28 -13 2 -23 -1 -23 -7
0 -24 -21 -9 -40 29 -11 22 -27 40 -34 40 -8 0 -16 6 -19 13 -7 18 38 10 54
-9 6 -8 16 -14 21 -14 5 0 21 -9 35 -20 33 -25 49 -25 56 0 7 28 24 25 41 -7
17 -32 69 -83 84 -83 6 0 13 6 16 13 3 6 4 1 3 -13 -1 -16 4 -26 16 -28 11 -2
17 3 17 16 0 30 26 48 45 32 11 -9 12 -15 5 -20 -7 -5 -5 -11 6 -21 13 -11 18
-11 21 -1 3 6 9 12 14 12 6 0 7 -6 1 -17 -8 -13 -2 -21 25 -40 20 -13 44 -23
55 -21 20 3 20 3 0 29 -14 17 -18 30 -11 40 12 19 11 49 -1 49 -6 0 -16 -11
-22 -25 l-12 -26 -13 28 c-7 15 -18 35 -24 44 -7 9 -9 24 -5 34 11 30 77 14
133 -33 26 -22 65 -47 86 -57 26 -12 37 -24 37 -39 0 -11 4 -28 10 -36 7 -12
12 -11 30 5 13 12 24 15 28 9 4 -6 15 -14 25 -17 14 -5 20 -2 24 13 7 27 41
25 53 -2 6 -16 9 4 9 70 1 50 -2 91 -6 91 -20 -3 -34 2 -28 11 3 5 12 7 20 3
22 -8 22 139 0 157 -21 17 -85 23 -85 7 -1 -7 -7 2 -14 19 -8 18 -19 35 -25
38 -5 4 -8 13 -4 22 4 11 13 7 37 -19 20 -23 44 -37 69 -41 l37 -7 0 108 c0
62 -4 102 -9 95 -4 -7 -6 -24 -3 -38 3 -19 0 -24 -16 -24 -12 0 -24 4 -27 10
-3 5 1 10 9 10 9 0 16 9 16 20 0 15 -7 20 -26 20 -28 0 -53 18 -153 113 -43
40 -70 75 -81 106 -10 25 -26 50 -36 56 -10 5 -24 16 -30 24 -8 10 -43 17
-110 22 -136 9 -203 25 -215 52 -10 21 -140 104 -179 114 -15 4 -22 -2 -30
-22 -13 -35 -13 -42 3 -21 12 16 16 15 57 -13 25 -17 49 -31 54 -31 5 0 24
-12 43 -26 29 -22 33 -31 31 -65 -1 -22 -6 -43 -10 -45 -4 -3 -8 -14 -8 -25 0
-10 -4 -19 -9 -19 -5 0 -12 -15 -15 -34 -7 -36 -36 -72 -36 -44 0 15 -125 128
-142 128 -12 0 -1 70 13 85 14 14 11 45 -5 45 -8 0 -17 -12 -20 -26 -5 -19
-11 -24 -26 -19 -12 4 -22 0 -29 -12 -8 -14 -10 -15 -11 -3 0 23 -55 42 -135
49 -68 6 -70 7 -73 34 -3 27 -2 28 34 21 29 -5 36 -4 32 7 -2 8 -18 16 -34 17
-39 5 -52 17 -66 65 -16 52 -67 107 -101 107 -24 0 -25 2 -20 38 3 20 10 44
14 53 5 9 12 42 15 73 8 66 -1 82 -56 91 -65 11 -69 18 -75 136 -4 108 -10
139 -26 139 -12 0 -12 172 1 290 27 260 28 353 3 305z m-13 -690 c0 -30 -4
-56 -9 -59 -10 -7 -25 99 -16 114 14 22 25 -3 25 -55z m-82 40 c-24 -9 -52
-11 -75 -7 -37 7 -36 7 22 13 91 9 93 9 53 -6z m-133 -5 c-3 -5 -13 -10 -21
-10 -20 0 -18 -39 6 -85 24 -48 25 -64 3 -80 -18 -14 -10 -35 14 -35 9 0 24
-7 33 -15 13 -12 23 -13 48 -4 68 23 263 -16 270 -55 4 -21 -4 -20 -39 4 -23
17 -33 19 -49 10 -11 -6 -20 -17 -20 -25 0 -7 -16 -34 -35 -59 -19 -26 -35
-53 -35 -61 0 -8 15 -21 33 -29 31 -13 30 -13 -54 -21 -101 -8 -136 2 -124 38
9 26 8 51 0 93 -6 26 -3 32 19 42 14 6 26 15 26 20 0 13 -41 32 -75 35 -29 2
-30 0 -41 -53 -11 -51 -12 -41 -15 123 l-4 177 33 0 c20 0 31 -4 27 -10z m162
-87 c7 -27 15 -58 19 -70 6 -22 4 -23 -49 -23 -31 0 -59 -5 -62 -10 -12 -19
-35 10 -35 44 -1 17 -7 42 -15 56 -8 14 -14 28 -15 32 0 4 28 9 63 11 34 2 67
4 72 5 6 1 16 -19 22 -45z m63 -61 c0 -15 -2 -15 -10 -2 -13 20 -13 33 0 25 6
-3 10 -14 10 -23z m-210 -246 c0 -3 -4 -8 -10 -11 -5 -3 -10 -1 -10 4 0 6 5
11 10 11 6 0 10 -2 10 -4z m269 -22 c1 -1 1 -7 0 -13 -2 -5 -15 -1 -29 10
l-25 20 25 -7 c14 -3 27 -8 29 -10z m-292 -61 c53 -34 63 -37 123 -35 35 2 82
7 104 12 50 11 56 6 25 -22 -13 -13 -30 -41 -38 -63 -26 -74 -39 -100 -60
-119 -12 -11 -21 -14 -21 -8 0 7 -9 12 -21 12 -14 0 -19 -5 -17 -17 2 -10 11
-17 21 -17 20 2 20 -8 4 -54 l-12 -33 -35 23 c-19 13 -36 33 -38 43 -2 18 -2
19 8 3 6 -10 18 -18 25 -18 24 0 17 34 -12 61 -22 20 -41 26 -88 28 -33 2 -61
4 -63 6 -2 2 2 41 8 87 16 124 20 148 25 148 3 0 31 -17 62 -37z m416 -54 c15
-11 31 -37 37 -59 6 -21 17 -51 25 -67 8 -15 15 -33 15 -39 0 -22 -77 -37
-155 -31 -80 7 -93 -1 -50 -29 19 -12 43 -15 108 -13 62 3 80 1 69 -7 -22 -16
10 -74 42 -74 49 0 89 13 93 32 3 10 10 18 15 18 6 0 8 -9 5 -21 -7 -26 1 -49
17 -49 6 0 26 -23 45 -50 18 -28 37 -50 42 -50 5 0 9 -8 9 -19 0 -10 6 -24 14
-30 20 -17 30 -79 15 -97 -15 -19 -64 -18 -94 2 -26 17 -34 37 -12 28 20 -7
59 40 55 68 -2 17 -10 24 -30 26 -29 3 -40 22 -13 22 24 0 17 20 -11 31 -15 5
-28 8 -29 7 -18 -22 -25 -51 -15 -63 7 -9 8 -20 2 -32 -33 -63 -37 -76 -25
-80 7 -3 23 -13 35 -24 l23 -19 -28 6 c-16 4 -39 17 -51 29 -12 12 -29 24 -36
27 -11 3 -8 12 13 37 32 38 37 90 9 98 -14 3 -17 12 -14 44 4 36 2 39 -21 39
-14 0 -28 -4 -31 -9 -3 -4 -25 -14 -49 -20 -39 -11 -47 -11 -78 8 -19 12 -51
21 -72 21 -64 0 -128 20 -136 43 -7 20 6 86 19 97 16 13 47 69 59 105 25 74
60 100 152 114 4 1 18 -8 32 -20z m-420 -206 c-7 -2 -19 -2 -25 0 -7 3 -2 5
12 5 14 0 19 -2 13 -5z m1161 -79 c23 -9 19 -22 -6 -21 -13 0 -35 -3 -50 -7
-24 -7 -28 -5 -28 13 0 17 6 21 34 21 19 0 41 -3 50 -6z m166 -29 c-3 -5 -16
-9 -30 -7 -102 10 -126 30 -28 22 37 -3 61 -9 58 -15z m-1265 -50 c14 -14 25
-30 25 -34 0 -19 30 -34 43 -22 10 8 19 4 36 -20 26 -35 21 -51 -8 -25 -27 24
-88 30 -136 14 -31 -10 -40 -18 -39 -36 1 -30 -14 -28 -22 4 -5 21 0 31 27 54
19 16 40 29 47 30 6 0 12 7 12 15 0 10 -10 15 -30 15 -46 0 -37 21 12 29 4 0
19 -10 33 -24z m700 3 c39 -26 42 -33 20 -54 -13 -14 -19 -11 -50 23 -19 21
-35 41 -35 46 0 14 31 7 65 -15z m533 -27 c2 -13 -2 -27 -9 -31 -6 -5 -9 -16
-5 -25 5 -13 10 -14 19 -6 10 7 18 5 30 -9 22 -26 21 -33 -3 -25 -16 5 -20 2
-20 -14 0 -12 -4 -21 -10 -21 -5 0 -10 9 -10 20 0 11 -7 20 -16 20 -11 0 -14
-6 -9 -21 5 -16 3 -20 -12 -17 -12 2 -19 -4 -21 -19 -4 -25 -22 -32 -22 -9 0
17 50 116 67 134 17 18 16 22 -4 39 -17 13 -17 14 2 11 12 -2 21 -12 23 -27z
m84 -18 c2 -22 8 -28 27 -27 17 1 46 -21 100 -74 42 -41 86 -81 99 -89 12 -9
22 -23 22 -33 0 -22 20 -39 57 -49 37 -10 42 -37 7 -45 -20 -5 -30 -2 -40 13
-8 11 -27 22 -44 26 -16 4 -32 15 -35 26 -4 10 -10 19 -15 19 -5 0 -7 14 -3
30 4 23 2 30 -11 30 -9 0 -16 6 -16 14 0 22 -16 27 -44 15 -15 -7 -26 -21 -27
-33 0 -12 -3 -15 -6 -8 -3 7 1 27 8 44 10 25 10 33 0 36 -7 2 -16 14 -21 27
-5 14 -20 26 -37 30 -53 12 -92 63 -67 88 13 13 43 -14 46 -40z m-1408 18 c3
-5 -1 -11 -9 -15 -9 -3 -15 0 -15 9 0 16 16 20 24 6z m268 -64 c-9 -18 -11
-14 -11 28 1 46 1 48 11 22 7 -20 7 -35 0 -50z m908 56 c26 -23 25 -36 -5 -50
-19 -8 -31 -8 -50 0 -33 16 -31 26 5 38 16 6 27 15 24 20 -9 14 4 10 26 -8z
m-950 -30 c0 -32 -5 -28 -14 10 -4 19 -3 26 4 22 5 -3 10 -18 10 -32z m159 28
c11 -7 9 -13 -8 -30 -11 -11 -27 -21 -33 -20 -10 0 -10 2 0 6 6 2 12 16 12 29
0 26 7 29 29 15z m1065 -7 c3 -8 2 -12 -4 -9 -6 3 -10 10 -10 16 0 14 7 11 14
-7z m-999 -14 c3 -5 1 -10 -4 -10 -6 0 -11 5 -11 10 0 6 2 10 4 10 3 0 8 -4
11 -10z m795 -20 c0 -5 -5 -10 -11 -10 -5 0 -7 5 -4 10 3 6 8 10 11 10 2 0 4
-4 4 -10z m-430 -35 c0 -5 -5 -3 -10 5 -5 8 -10 20 -10 25 0 6 5 3 10 -5 5 -8
10 -19 10 -25z m250 25 c0 -5 -2 -10 -4 -10 -3 0 -8 5 -11 10 -3 6 -1 10 4 10
6 0 11 -4 11 -10z m-580 -30 c5 0 13 8 19 18 9 16 10 16 17 -2 5 -14 0 -25
-21 -42 -33 -26 -65 -23 -38 4 9 10 12 17 5 20 -6 2 -8 11 -4 20 6 16 7 16 10
0 2 -10 7 -18 12 -18z m-565 -7 c-11 -7 -25 -13 -32 -13 -7 0 -13 -7 -13 -15
0 -28 -15 -15 -17 14 -2 27 1 30 30 33 43 5 54 -2 32 -19z m992 19 c16 -10 28
-62 14 -62 -6 0 -11 -15 -11 -34 0 -33 -20 -62 -33 -49 -4 3 -7 22 -7 42 0 20
-4 42 -9 49 -22 36 11 76 46 54z m-753 -21 c14 -15 15 -24 6 -40 -8 -17 -8
-21 4 -21 7 0 17 7 20 16 6 16 8 16 24 0 10 -9 23 -16 29 -16 6 0 9 -9 6 -20
-3 -11 -12 -20 -19 -20 -8 0 -14 -7 -14 -15 0 -20 -10 -19 -25 2 -13 17 -14
17 -33 0 -14 -13 -28 -16 -46 -11 -20 5 -26 2 -26 -9 0 -9 8 -18 18 -22 9 -3
27 -14 40 -25 19 -15 21 -23 13 -38 -6 -11 -23 -22 -39 -24 -26 -4 -28 -2 -24
24 4 24 1 28 -21 28 -15 0 -41 15 -67 40 -31 30 -38 40 -24 40 10 0 28 10 41
22 21 19 21 23 8 38 -14 15 -12 16 15 12 17 -2 33 -8 36 -13 3 -5 12 -9 20 -9
11 0 14 8 12 28 -3 23 -7 27 -30 24 -31 -3 -39 14 -10 21 39 10 70 6 86 -12z
m166 -1 c0 -5 -7 -10 -15 -10 -22 0 -18 -17 5 -30 14 -8 19 -17 15 -29 -3 -12
4 -30 21 -50 28 -34 26 -61 -5 -61 -15 0 -19 -5 -15 -17 5 -17 5 -17 -9 0 -16
19 -37 23 -37 6 0 -14 -66 -5 -86 12 -23 19 -16 31 8 15 43 -31 68 -16 68 39
0 13 5 27 10 30 16 10 12 43 -6 47 -14 3 -13 7 6 31 22 27 40 35 40 17z m666
-47 c-9 -9 -36 18 -36 35 0 12 5 11 21 -7 12 -12 18 -25 15 -28z m-159 15 c-3
-8 -6 -5 -6 6 -1 11 2 17 5 13 3 -3 4 -12 1 -19z m303 -52 c0 -5 10 -20 22
-33 37 -39 15 -40 -52 -1 -8 4 -27 13 -42 19 -34 13 -35 25 -6 56 l22 23 28
-27 c15 -15 28 -31 28 -37z m-1182 36 c2 -7 -2 -10 -12 -6 -9 3 -16 11 -16 16
0 13 23 5 28 -10z m544 -44 c20 20 52 12 76 -19 l24 -29 -28 0 c-22 0 -25 -3
-16 -12 7 -7 12 -21 11 -32 0 -15 -2 -17 -6 -6 -8 21 -44 55 -66 63 -10 4 -29
0 -43 -10 l-26 -16 7 34 c5 28 2 38 -14 53 -41 37 -20 37 24 0 35 -28 49 -34
57 -26z m901 45 c-7 -2 -19 -2 -25 0 -7 3 -2 5 12 5 14 0 19 -2 13 -5z m-553
-38 c0 -26 -4 -35 -17 -35 -13 0 -14 3 -5 12 7 7 12 22 12 35 0 13 2 23 5 23
3 0 5 -16 5 -35z m330 20 c7 -8 18 -15 26 -15 7 0 18 -9 24 -19 15 -28 47 -35
75 -17 30 20 32 36 5 36 -11 0 -20 5 -20 10 0 14 13 13 60 -6 22 -9 40 -21 40
-26 0 -6 -7 -8 -15 -4 -22 8 -18 -17 5 -37 22 -19 26 -52 8 -63 -7 -5 -31 -8
-53 -9 -50 0 -58 -17 -14 -29 24 -7 34 -7 37 2 5 17 19 15 26 -5 11 -30 32
-63 55 -85 12 -11 20 -23 17 -26 -8 -7 -56 38 -56 53 0 6 -29 22 -65 34 -36
13 -70 32 -76 42 -5 11 -19 19 -29 19 -13 0 -20 7 -20 19 0 11 -5 23 -11 27
-8 4 -8 9 0 17 19 19 12 40 -21 68 -18 16 -28 28 -22 29 6 0 17 -7 24 -15z
m-780 -27 c0 -12 -6 -9 -26 13 -19 22 -19 22 4 8 12 -8 22 -17 22 -21z m-553
-3 c-4 -8 -14 -15 -23 -15 -16 0 -16 2 2 19 21 21 29 19 21 -4z m1635 -55 c19
-36 42 -62 68 -77 23 -14 40 -32 40 -42 0 -10 7 -24 15 -31 20 -17 19 -27 -2
-27 -61 1 -74 -4 -85 -30 -12 -28 -12 -28 -16 -4 -2 13 1 28 7 34 16 16 13 27
-6 27 -10 0 -26 14 -35 30 -11 20 -22 28 -32 24 -9 -3 -16 -2 -16 4 0 6 6 12
13 15 9 3 6 15 -11 46 l-24 42 25 -6 c28 -7 48 21 22 31 -17 7 -21 28 -4 22 7
-2 25 -28 41 -58z m-1532 40 c0 -5 -5 -10 -11 -10 -5 0 -7 5 -4 10 3 6 8 10
11 10 2 0 4 -4 4 -10z m1098 -48 c15 -26 15 -32 2 -32 -8 0 -50 70 -50 85 0 8
34 -29 48 -53z m-1346 25 c-21 -22 -30 -57 -15 -57 4 0 17 10 30 22 19 18 28
20 41 12 9 -6 16 -15 16 -20 -1 -5 2 -20 7 -32 8 -20 6 -25 -11 -29 -11 -3
-20 -12 -20 -20 0 -21 19 -53 32 -53 7 0 22 -10 34 -21 18 -17 21 -26 13 -40
-13 -25 -29 -24 -29 0 0 25 -68 67 -83 52 -24 -24 -40 -12 -34 24 5 32 3 35
-17 35 -14 0 -30 10 -40 25 -9 14 -23 25 -31 25 -23 0 -18 14 9 26 15 7 28 8
34 2 5 -5 16 2 27 19 17 26 44 52 54 53 3 0 -5 -10 -17 -23z m1118 -28 c0 -5
-4 -9 -10 -9 -5 0 -10 7 -10 16 0 8 5 12 10 9 6 -3 10 -10 10 -16z m-970 3 c0
-11 -41 -45 -47 -39 -7 8 21 47 34 47 7 0 13 -3 13 -8z m120 -2 c0 -5 -4 -10
-10 -10 -5 0 -10 5 -10 10 0 6 5 10 10 10 6 0 10 -4 10 -10z m650 0 c0 -5 -4
-10 -10 -10 -5 0 -10 5 -10 10 0 6 5 10 10 10 6 0 10 -4 10 -10z m260 -32 c0
-14 -18 -9 -24 8 -11 28 -6 39 9 20 8 -11 15 -23 15 -28z m80 32 c8 -5 12 -12
9 -15 -8 -8 -39 5 -39 16 0 11 11 11 30 -1z m144 -6 c11 -27 7 -37 -9 -24 -16
14 -20 40 -6 40 5 0 12 -7 15 -16z m-614 -4 c0 -5 -4 -10 -10 -10 -5 0 -10 5
-10 10 0 6 5 10 10 10 6 0 10 -4 10 -10z m510 -10 c0 -5 -4 -10 -10 -10 -5 0
-10 5 -10 10 0 6 5 10 10 10 6 0 10 -4 10 -10z m-990 -21 c0 -19 -49 -59 -72
-58 -22 0 -22 1 -3 8 21 9 63 51 51 51 -4 0 -4 5 -1 10 7 12 25 4 25 -11z
m1173 9 c21 4 23 -16 2 -24 -18 -7 -20 -44 -2 -44 7 0 19 6 26 13 10 10 15 8
29 -9 9 -12 28 -25 42 -29 38 -10 94 -39 99 -50 2 -5 3 -10 0 -10 -2 0 16 -18
39 -40 30 -28 41 -45 37 -57 -9 -23 -33 -13 -74 31 -20 22 -35 31 -38 24 -3
-9 -11 -8 -31 5 -15 9 -29 19 -32 23 -8 10 -101 49 -117 49 -11 0 -13 7 -8 30
6 28 5 30 -24 30 -24 0 -34 -6 -41 -25 -6 -15 -17 -25 -29 -25 -11 0 -23 -9
-26 -20 -7 -22 -13 -24 -34 -11 -11 7 -9 13 8 30 12 12 25 19 30 17 4 -3 20 8
35 24 14 17 35 30 46 30 15 0 20 7 20 26 0 18 4 23 13 17 6 -4 20 -6 30 -5z
m-1262 -27 c-12 -12 -21 -16 -21 -10 0 12 32 40 38 34 2 -2 -6 -13 -17 -24z
m777 -4 c6 3 12 0 12 -6 0 -6 -11 -11 -25 -11 -14 0 -25 2 -25 4 0 2 -3 13 -7
23 -6 17 -5 17 13 2 10 -9 25 -14 32 -12z m237 13 c3 -5 1 -10 -4 -10 -6 0
-11 5 -11 10 0 6 2 10 4 10 3 0 8 -4 11 -10z m-735 -10 c0 -5 -7 -10 -16 -10
-8 0 -12 5 -9 10 3 6 10 10 16 10 5 0 9 -4 9 -10z m200 1 c0 -5 9 -7 20 -4 25
7 79 -35 79 -62 1 -15 -2 -16 -11 -7 -7 7 -20 12 -31 12 -10 0 -34 16 -53 35
-21 22 -28 35 -19 35 8 0 15 -4 15 -9z m381 -18 c-12 -20 -14 -14 -5 12 4 9 9
14 11 11 3 -2 0 -13 -6 -23z m-903 -30 c2 -11 -4 -25 -12 -32 -12 -10 -20 -9
-40 6 -33 23 -33 36 -1 21 20 -9 28 -9 38 1 9 9 7 13 -11 17 -12 4 -22 13 -22
21 0 14 3 14 23 1 12 -9 23 -24 25 -35z m963 1 c-2 -25 2 -51 8 -57 17 -17 13
-35 -6 -33 -13 1 -18 -7 -18 -31 0 -17 -2 -33 -5 -35 -3 -2 -16 -12 -29 -23
l-23 -20 19 37 c12 22 18 48 15 67 -3 26 -10 32 -39 37 -33 6 -33 7 -13 21 18
12 22 12 36 -1 22 -23 26 -20 19 13 -7 32 8 71 28 71 8 0 11 -14 8 -46z m-548
-23 c9 -20 17 -54 17 -74 0 -30 -4 -37 -19 -37 -11 0 -23 -4 -26 -10 -9 -15
-68 0 -87 22 -22 25 -23 48 -3 48 9 0 15 -9 15 -24 0 -17 7 -25 23 -28 40 -7
56 2 67 40 8 30 6 44 -8 73 -10 21 -14 35 -8 33 6 -3 19 -22 29 -43z m357 8
c3 -14 15 -26 30 -29 27 -6 40 -30 16 -30 -9 0 -16 -7 -16 -15 0 -8 -4 -15 -8
-15 -12 0 -32 47 -32 75 0 14 -4 25 -9 25 -10 0 -23 -58 -15 -71 3 -5 1 -9 -5
-9 -5 0 8 -18 30 -41 21 -22 39 -47 39 -55 0 -22 -36 -16 -68 11 -17 14 -34
25 -38 25 -5 0 -19 18 -31 39 -20 34 -21 41 -7 51 8 7 12 20 9 29 -6 20 28 38
70 35 22 -1 31 -7 35 -25z m-670 -18 c0 -20 -74 -30 -85 -11 -4 6 5 7 23 4 17
-4 32 -1 36 5 9 13 26 15 26 2z m100 -5 c0 -16 -18 -31 -27 -22 -8 8 5 36 17
36 5 0 10 -6 10 -14z m348 -13 c15 -9 29 -18 30 -19 6 -4 -22 -79 -33 -86 -20
-15 -36 -9 -26 10 6 12 6 33 1 58 -15 63 -15 64 28 37z m518 5 c3 -4 0 -15 -7
-26 -7 -11 -9 -27 -6 -36 9 -24 37 -20 37 6 0 20 1 21 20 3 11 -10 20 -24 20
-30 0 -13 -22 -25 -43 -25 -22 1 -75 58 -82 89 -6 30 -5 31 24 28 17 -2 34 -6
37 -9z m-711 -45 c-26 -18 -32 -7 -9 16 10 10 21 14 23 8 2 -6 -4 -16 -14 -24z
m1453 -11 c2 -8 -8 -12 -26 -12 -35 0 -62 9 -62 20 0 13 83 5 88 -8z m-1668
-11 c0 -10 10 -29 23 -42 12 -13 29 -32 37 -42 12 -17 12 -18 -5 -15 -13 2
-21 -5 -25 -22 -5 -18 -9 -21 -13 -10 -4 8 -5 24 -4 35 1 12 -4 20 -13 20 -10
0 -16 -12 -18 -32 -2 -18 -7 -33 -11 -33 -4 0 -13 -16 -20 -35 -12 -36 -31
-47 -31 -20 0 8 3 15 8 15 7 0 32 47 32 62 0 4 -6 8 -14 8 -9 0 -12 7 -9 20 4
15 0 20 -16 20 -25 0 -29 31 -6 50 8 7 15 19 15 26 0 9 12 14 35 14 27 0 35
-4 35 -19z m350 -10 c0 -18 -36 -58 -45 -50 -2 3 3 21 12 41 17 37 33 42 33 9z
m845 19 c3 -5 1 -10 -4 -10 -6 0 -11 5 -11 10 0 6 2 10 4 10 3 0 8 -4 11 -10z
m527 -20 c-5 -35 -32 -41 -32 -7 0 26 7 37 25 37 7 0 10 -11 7 -30z m-1638 13
c4 -5 11 -8 15 -8 4 0 24 -15 44 -32 l37 -33 -32 6 c-64 10 -73 15 -96 44
l-24 30 25 0 c13 0 27 -3 31 -7z m776 -17 c0 -13 -7 -27 -16 -30 -12 -5 -15
-2 -10 10 3 8 6 22 6 30 0 8 5 14 10 14 6 0 10 -11 10 -24z m420 -28 c0 -17
-26 -6 -44 19 l-19 26 31 -19 c18 -10 32 -22 32 -26z m-1510 11 c0 -6 -4 -7
-10 -4 -5 3 -10 11 -10 16 0 6 5 7 10 4 6 -3 10 -11 10 -16z m728 -25 c6 3 13
2 17 -4 3 -5 -1 -10 -9 -10 -9 0 -16 -7 -16 -15 0 -11 -6 -9 -22 8 -23 22 -28
35 -20 51 3 5 13 -2 22 -14 10 -13 22 -20 28 -16z m702 16 c0 -5 10 -10 23
-11 12 0 16 -3 10 -6 -18 -7 -16 -33 4 -55 13 -14 13 -18 2 -18 -14 0 -39 43
-39 67 0 7 -9 13 -20 13 -22 0 -26 -20 -8 -38 9 -9 8 -12 -5 -12 -11 0 -17 -8
-17 -22 l0 -21 -25 23 c-30 28 -32 40 -5 33 22 -6 28 15 9 34 -9 9 -7 10 10 6
12 -3 21 -1 21 6 0 6 9 11 20 11 11 0 20 -4 20 -10z m280 -20 c0 -5 -2 -10 -4
-10 -3 0 -8 5 -11 10 -3 6 -1 10 4 10 6 0 11 -4 11 -10z m198 -2 c19 -19 14
-29 -8 -16 -20 13 -27 28 -12 28 4 0 13 -5 20 -12z m-1393 -19 c2 -8 -4 -26
-11 -40 l-14 -24 6 26 c3 15 1 30 -5 33 -17 11 -13 28 6 24 9 -2 17 -10 18
-19z m1325 6 c7 -8 19 -15 26 -15 8 0 14 -5 14 -10 0 -6 15 -19 33 -30 17 -11
25 -20 17 -20 -8 0 -26 9 -40 20 -14 11 -32 20 -41 20 -9 0 -22 7 -29 15 -7 8
-21 15 -31 15 -11 0 -19 5 -19 10 0 16 56 12 70 -5z m-744 -10 c4 -8 1 -22 -5
-29 -10 -11 -5 -16 22 -25 42 -14 73 -57 69 -93 -5 -39 -18 -35 -42 11 -24 48
-68 84 -96 78 -17 -3 -21 1 -21 24 0 39 61 67 73 34z m-313 -40 c16 -34 14
-42 -10 -27 -15 9 -28 62 -16 62 5 0 17 -16 26 -35z m-353 -23 c-22 -23 -30
-26 -30 -14 0 24 12 39 35 44 29 6 29 3 -5 -30z m275 28 c-7 -12 -55 -14 -55
-2 0 4 14 8 30 9 18 1 28 -2 25 -7z m156 0 c7 0 -1 -21 -19 -50 -5 -8 -22 24
-22 44 0 12 5 16 16 12 9 -3 20 -6 25 -6z m913 -24 c3 -11 3 -22 1 -25 -3 -2
-5 1 -5 7 0 7 -6 12 -13 12 -7 0 -21 6 -31 13 -17 13 -16 14 12 14 22 0 32 -6
36 -21z m86 -8 c18 -18 34 -25 48 -22 11 3 23 1 26 -5 9 -14 -38 -15 -64 -1
-13 7 -21 7 -25 0 -11 -18 -25 -11 -25 13 0 15 -9 28 -22 35 -22 10 -22 10 6
9 16 -1 41 -14 56 -29z m-1230 12 c0 -5 -2 -10 -4 -10 -3 0 -8 5 -11 10 -3 6
-1 10 4 10 6 0 11 -4 11 -10z m-260 -14 c0 -8 -4 -18 -10 -21 -5 -3 -10 3 -10
14 0 12 5 21 10 21 6 0 10 -6 10 -14z m-27 -64 c-20 -21 -28 -20 -20 3 4 8 13
15 22 15 13 0 12 -3 -2 -18z m107 9 c0 -6 -4 -13 -10 -16 -5 -3 -10 1 -10 9 0
9 5 16 10 16 6 0 10 -4 10 -9z m548 -39 l15 -23 -31 18 c-17 10 -28 21 -25 26
7 12 25 4 41 -21z m249 -14 c-3 -8 -6 -5 -6 6 -1 11 2 17 5 13 3 -3 4 -12 1
-19z m-122 2 c3 -5 1 -10 -4 -10 -6 0 -11 5 -11 10 0 6 2 10 4 10 3 0 8 -4 11
-10z"/>
<path d="M2097 1586 c-8 -20 12 -66 28 -66 17 0 35 22 35 42 0 11 -7 18 -18
18 -10 0 -23 5 -29 11 -7 7 -12 6 -16 -5z"/>
<path d="M2727 593 c-13 -12 -7 -23 13 -23 11 0 20 7 20 15 0 15 -21 21 -33 8z"/>
<path d="M2128 453 c7 -3 16 -2 19 1 4 3 -2 6 -13 5 -11 0 -14 -3 -6 -6z"/>
<path d="M3510 421 c0 -6 5 -13 10 -16 6 -3 10 1 10 9 0 9 -4 16 -10 16 -5 0
-10 -4 -10 -9z"/>
<path d="M1720 475 c-6 -8 -10 -21 -8 -30 3 -14 5 -14 26 0 24 18 30 45 8 45
-7 0 -19 -7 -26 -15z"/>
<path d="M3260 351 c0 -5 5 -13 10 -16 6 -3 10 -2 10 4 0 5 -4 13 -10 16 -5 3
-10 2 -10 -4z"/>
<path d="M1059 2299 c-6 -4 -9 -11 -6 -15 3 -5 8 -58 11 -119 4 -60 12 -148
18 -195 6 -47 12 -127 13 -179 2 -68 7 -97 18 -109 14 -14 38 -13 239 2 123 9
261 16 308 16 47 0 91 4 98 9 14 9 18 52 27 317 7 201 10 194 -99 206 -39 5
-107 13 -151 18 -44 6 -118 15 -165 20 -47 5 -133 16 -193 23 -59 7 -112 10
-118 6z m159 -54 c40 -8 101 -15 135 -16 34 0 80 -4 102 -8 23 -5 -19 -6 -100
-3 -137 4 -141 4 -165 -19 -27 -25 -27 -27 -34 -394 l-1 -40 62 -15 c34 -9 65
-19 68 -22 8 -8 -140 -22 -153 -14 -5 3 -7 25 -5 49 3 24 -3 101 -12 172 -11
78 -15 156 -12 197 3 37 2 81 -3 97 -10 35 -5 42 24 36 12 -3 54 -12 94 -20z
m345 -42 c-13 -2 -33 -2 -45 0 -13 2 -3 4 22 4 25 0 35 -2 23 -4z m178 -23
c10 -6 19 -18 19 -28 0 -14 -2 -15 -10 -2 -5 8 -31 20 -57 26 l-48 12 38 1
c21 0 47 -4 58 -9z m-281 -15 c118 -5 171 -12 224 -28 l68 -22 -6 -120 c-4
-66 -7 -134 -7 -150 -1 -23 -9 -36 -32 -52 -30 -20 -46 -21 -228 -22 -161 0
-204 3 -244 17 l-48 17 2 150 c2 83 3 160 3 172 0 26 52 55 88 48 14 -2 95 -7
180 -10z m285 -415 c-3 -5 -11 -10 -16 -10 -6 0 -7 5 -4 10 3 6 11 10 16 10 6
0 7 -4 4 -10z"/>
<path d="M3423 2272 c-6 -4 -13 -26 -16 -50 -2 -23 -12 -51 -21 -61 -22 -25
-2 -40 23 -17 10 9 25 16 34 16 9 0 17 5 17 10 0 6 42 10 105 10 110 0 181 17
172 42 -2 7 -11 11 -18 9 -8 -3 -75 -7 -149 -9 -133 -4 -135 -4 -118 15 14 15
15 22 6 31 -14 14 -19 14 -35 4z"/>
<path d="M3280 2262 c-43 -4 -61 -19 -40 -32 21 -14 63 -12 84 3 25 18 2 33
-44 29z"/>
<path d="M587 2235 c-9 -8 -22 -15 -30 -15 -8 0 -17 -7 -21 -15 -10 -26 -48
-33 -131 -23 -44 5 -118 14 -165 19 -47 6 -120 12 -162 15 -74 5 -78 4 -78
-15 0 -19 6 -21 58 -21 31 0 77 -5 101 -11 24 -5 76 -12 115 -15 68 -5 156
-13 184 -16 27 -3 44 -77 72 -308 6 -52 18 -126 26 -165 8 -38 14 -100 14
-136 0 -59 -3 -68 -24 -82 -27 -18 -64 -12 -109 17 -15 11 -28 13 -31 7 -6
-10 125 -101 145 -101 6 0 24 -10 41 -21 23 -17 28 -27 24 -45 -5 -18 6 -38
52 -93 l59 -70 -5 -80 c-5 -80 -4 -81 28 -111 37 -35 82 -39 135 -15 43 21 55
51 55 137 l0 71 30 -38 c17 -21 37 -43 45 -49 8 -6 22 -40 31 -76 9 -36 24
-78 34 -95 21 -37 33 -82 24 -97 -9 -14 -24 10 -24 40 0 26 -12 28 -31 6 -10
-12 -10 -20 -1 -35 7 -10 12 -28 12 -39 0 -27 41 -27 65 0 17 19 17 23 3 73
-9 28 -21 66 -26 82 -6 17 -19 57 -28 90 -13 45 -28 70 -65 107 -26 26 -53 48
-59 48 -5 0 -10 11 -10 25 0 20 -5 25 -24 25 -33 0 -67 59 -65 109 3 48 -6 62
-41 59 -16 -1 -37 6 -48 15 -10 9 -21 17 -25 17 -3 0 -20 -21 -37 -46 -25 -37
-29 -52 -24 -80 8 -42 0 -44 -21 -4 -20 38 -19 99 1 122 16 16 15 31 -5 205
-13 104 -27 224 -32 268 -5 44 -16 129 -24 189 -16 107 -16 109 4 130 12 12
21 27 21 34 0 19 -18 23 -33 7z m-19 -180 c6 -38 16 -113 22 -165 5 -52 14
-122 19 -155 17 -107 33 -306 27 -313 -12 -11 -25 21 -31 78 -3 30 -12 94 -20
141 -8 48 -15 105 -15 127 0 23 -6 71 -14 109 -8 37 -18 102 -22 143 -3 41
-11 83 -16 93 -7 14 -5 24 8 39 18 19 19 19 25 -4 4 -13 12 -54 17 -93z m272
-826 c0 -6 -4 -7 -10 -4 -5 3 -10 11 -10 16 0 6 5 7 10 4 6 -3 10 -11 10 -16z
m51 -59 c17 0 19 -7 19 -84 0 -80 -1 -86 -27 -106 -43 -33 -133 -15 -133 26 0
10 6 8 21 -7 15 -15 30 -19 61 -17 38 3 43 6 50 37 5 18 6 56 1 85 -7 46 -11
51 -36 54 -31 4 -31 5 -15 31 12 19 12 19 26 0 7 -10 22 -19 33 -19z"/>
<path d="M2746 2188 c-12 -84 -29 -230 -33 -295 -6 -89 12 -101 22 -15 4 31
13 91 21 132 11 61 13 65 9 23 -3 -37 0 -53 8 -53 20 0 38 38 31 66 -5 18 0
32 17 50 18 19 20 27 11 36 -10 10 -18 6 -37 -17 -18 -22 -24 -26 -25 -13 0 9
8 21 18 27 9 5 16 13 16 18 -1 4 3 18 9 31 12 27 -2 42 -40 42 -17 0 -23 -7
-27 -32z"/>
<path d="M2920 2201 c0 -16 36 -31 74 -31 33 0 36 -3 36 -27 0 -18 12 -39 34
-60 38 -37 76 -44 76 -14 0 23 -16 36 -25 21 -7 -12 -55 53 -55 75 0 27 -28
42 -84 44 -32 1 -56 -3 -56 -8z"/>
<path d="M3060 2195 c0 -13 6 -16 25 -11 16 4 34 1 48 -9 27 -19 73 -19 80 0
8 20 3 21 -80 29 -64 6 -73 5 -73 -9z"/>
<path d="M3263 2200 c-29 -12 -29 -18 2 -54 14 -16 25 -32 25 -36 0 -15 -34
-76 -50 -90 -27 -22 -60 -91 -60 -122 0 -39 14 -35 29 9 l13 36 20 -24 c15
-18 18 -20 14 -5 -4 10 0 23 7 30 12 9 40 105 42 141 0 6 3 15 6 20 3 6 6 30
5 55 -1 48 -12 57 -53 40z"/>
<path d="M3175 2140 c-10 -16 24 -62 43 -58 21 4 29 38 9 38 -8 0 -17 7 -21
15 -6 17 -22 20 -31 5z"/>
<path d="M2946 2041 c-48 -49 -53 -71 -15 -71 10 0 19 -7 19 -15 0 -8 7 -15
16 -15 11 0 14 8 12 28 -2 15 -8 26 -15 25 -7 -2 -13 4 -13 13 0 13 3 14 13 5
18 -14 72 40 64 63 -10 27 -31 18 -81 -33z"/>
<path d="M3077 1976 c-39 -17 -60 -50 -52 -84 3 -17 0 -40 -10 -58 -19 -37
-19 -64 0 -64 13 0 22 38 16 73 0 4 13 7 29 7 23 0 30 5 30 19 0 22 -25 45
-40 36 -5 -3 -10 1 -10 9 0 9 16 19 40 26 23 6 40 17 40 25 0 21 -12 24 -43
11z"/>
<path d="M2972 1744 c1 -9 9 -19 16 -22 9 -3 13 2 10 14 -1 9 -9 19 -16 22 -9
3 -13 -2 -10 -14z"/>
<path d="M2957 1693 c-13 -12 -7 -43 8 -43 9 0 15 9 15 25 0 24 -10 32 -23 18z"/>
<path d="M2894 1625 c-9 -14 -23 -25 -30 -25 -8 0 -14 -7 -14 -15 0 -23 32
-18 58 9 24 26 28 41 12 51 -5 3 -17 -6 -26 -20z"/>
<path d="M3003 1624 c-10 -26 38 -47 52 -24 8 14 -13 40 -32 40 -7 0 -16 -7
-20 -16z"/>
<path d="M38 1528 c-8 -20 3 -76 16 -87 14 -12 104 11 96 25 -3 5 -23 9 -45 9
-35 0 -40 3 -43 25 -4 31 -18 46 -24 28z"/>
<path d="M2950 1515 c0 -8 16 -21 35 -29 24 -10 35 -22 35 -35 0 -28 26 -27
34 2 9 35 8 37 -40 57 -55 24 -64 25 -64 5z"/>
<path d="M911 1491 c-32 -30 -41 -61 -18 -61 8 0 22 -9 32 -20 10 -11 31 -20
48 -20 l30 0 -6 51 c-10 84 -34 98 -86 50z"/>
<path d="M3253 1328 c-5 -7 -16 -35 -22 -63 -7 -27 -16 -54 -20 -60 -5 -5 -11
-26 -15 -45 -5 -30 -3 -37 16 -47 94 -49 158 -66 158 -42 0 8 -16 31 -34 53
-29 33 -33 43 -29 77 5 32 3 39 -11 39 -9 0 -16 -8 -16 -19 0 -27 -17 -35 -23
-11 -8 32 3 61 22 56 9 -3 52 -10 96 -16 129 -18 150 -24 153 -42 5 -24 -36
-34 -52 -12 -9 11 -19 15 -31 10 -10 -3 -23 -2 -30 4 -32 26 -68 -36 -46 -79
6 -11 11 -33 11 -50 0 -34 20 -49 71 -53 30 -3 35 1 55 42 12 25 29 52 38 59
11 9 16 29 16 61 0 62 -24 78 -133 90 -106 12 -129 18 -148 42 -12 16 -17 17
-26 6z m47 -208 c8 -5 11 -10 5 -10 -5 0 -17 5 -25 10 -8 5 -10 10 -5 10 6 0
17 -5 25 -10z m137 -46 c-3 -3 -12 -4 -19 -1 -8 3 -5 6 6 6 11 1 17 -2 13 -5z"/>
<path d="M3680 1276 c0 -14 -10 -32 -22 -40 -17 -12 -20 -18 -10 -28 15 -15
15 -43 0 -69 -10 -17 -10 -23 0 -26 23 -9 12 -23 -18 -23 -31 0 -70 -30 -70
-53 0 -7 -9 -21 -21 -30 -11 -10 -19 -23 -16 -30 3 -11 107 -45 195 -65 41 -9
42 -8 42 16 0 14 -3 23 -6 19 -3 -3 -18 -2 -32 3 -15 4 -48 14 -74 21 -27 7
-48 19 -48 26 0 16 24 17 50 1 25 -16 38 -3 21 23 -17 28 -8 34 14 9 10 -11
26 -20 36 -20 10 0 23 -8 28 -17 8 -14 10 -9 11 25 0 26 -4 41 -10 37 -5 -3
-26 1 -45 11 -27 13 -34 21 -30 38 8 32 35 180 35 189 0 4 -7 7 -15 7 -9 0
-15 -9 -15 -24z m-90 -256 c0 -5 -5 -10 -11 -10 -5 0 -7 5 -4 10 3 6 8 10 11
10 2 0 4 -4 4 -10z"/>
<path d="M3753 1120 c0 -30 2 -43 4 -27 2 15 2 39 0 55 -2 15 -4 2 -4 -28z"/>
<path d="M45 1110 c-10 -11 -15 -23 -12 -27 11 -10 57 15 57 32 0 21 -24 19
-45 -5z"/>
<path d="M1825 1062 c-22 -19 -240 -53 -360 -56 -40 -1 -60 -25 -35 -41 26
-16 384 36 418 61 9 6 13 18 9 28 -7 18 -18 20 -32 8z"/>
<path d="M620 981 c-5 -11 -10 -27 -10 -35 0 -9 -6 -15 -12 -13 -9 1 -15 -21
-19 -73 -8 -87 10 -176 40 -201 26 -21 81 -14 81 11 0 10 -6 20 -12 23 -10 3
-10 8 2 22 13 15 12 19 -9 36 -30 24 -45 24 -38 0 3 -11 -1 -22 -9 -25 -9 -3
-17 7 -24 32 -6 24 -6 38 0 40 6 2 10 14 10 26 0 13 4 36 9 52 5 16 12 50 15
77 6 49 -5 62 -24 28z"/>
<path d="M1180 447 c0 -17 125 -147 140 -147 6 0 10 6 10 14 0 11 -15 31 -75
96 -7 8 -27 23 -44 33 -26 15 -31 16 -31 4z"/>
<path d="M317 393 c-5 -9 13 -74 75 -265 28 -85 46 -128 56 -128 18 0 18 1
-51 220 -50 160 -67 195 -80 173z"/>
<path d="M1540 389 c0 -5 5 -7 10 -4 6 3 10 8 10 11 0 2 -4 4 -10 4 -5 0 -10
-5 -10 -11z"/>
<path d="M780 371 c0 -21 19 -57 50 -93 18 -23 30 -23 31 0 0 12 2 13 6 3 3
-8 23 -37 44 -65 22 -28 39 -55 39 -59 0 -5 7 -15 15 -24 9 -8 19 -28 22 -44
3 -16 9 -26 14 -24 4 3 16 -6 25 -20 16 -25 44 -34 44 -15 0 14 -195 303 -220
325 -11 10 -23 15 -27 12 -3 -4 -15 0 -25 10 -17 15 -18 15 -18 -6z"/>
<path d="M1543 335 c-18 -19 -16 -45 2 -45 8 0 15 -4 15 -8 0 -5 12 -14 27
-21 21 -10 28 -9 34 1 13 20 11 28 -8 28 -31 0 -48 17 -35 33 22 26 -13 38
-35 12z"/>
<path d="M1507 250 c-5 -20 -27 -28 -27 -10 0 26 -30 6 -44 -30 -20 -50 -20
-64 -1 -56 8 3 19 -3 25 -14 15 -28 12 -60 -5 -60 -9 0 -18 -7 -21 -15 -4 -8
-16 -15 -29 -15 -21 0 -35 -17 -35 -40 0 -13 104 -3 108 9 2 6 11 11 20 11 9
0 26 10 38 21 18 17 30 20 58 15 37 -7 47 -22 21 -32 -21 -8 -19 -34 3 -34 23
0 42 19 42 42 0 10 5 18 10 18 6 0 10 -11 10 -25 0 -33 25 -42 50 -20 25 23
25 35 1 35 -25 0 -37 18 -22 33 8 8 11 8 11 -2 0 -7 6 -11 15 -7 8 3 19 -2 23
-11 7 -11 18 -14 37 -11 21 4 29 1 32 -13 7 -26 21 -24 35 7 11 23 9 28 -12
45 -14 10 -35 22 -47 25 -26 7 -29 19 -8 31 17 10 24 54 9 60 -6 2 -23 -15
-38 -37 -20 -31 -32 -40 -46 -35 -13 4 -20 0 -25 -15 -5 -15 -12 -19 -23 -14
-10 3 -29 6 -44 5 -24 -1 -28 3 -28 24 0 31 -20 41 -50 25 -15 -8 -19 -17 -15
-31 6 -18 -9 -49 -24 -49 -16 0 -4 73 15 95 30 34 37 66 16 81 -23 18 -29 17
-35 -6z m-15 -60 c12 -11 19 -23 15 -26 -8 -8 -47 24 -47 38 0 13 9 10 32 -12z"/>
<path d="M1622 244 c-30 -21 -30 -48 1 -38 21 6 22 6 4 -14 -13 -14 -15 -22
-7 -27 18 -11 38 16 42 54 4 40 -8 47 -40 25z"/>
<path d="M3467 83 c-3 -5 -2 -26 3 -48 7 -41 14 -35 24 23 4 24 2 32 -9 32 -7
0 -16 -3 -18 -7z"/>
<path d="M2530 60 c0 -5 -20 -10 -45 -10 -48 0 -55 -9 -29 -34 18 -19 24 -19
61 -5 41 15 62 59 28 59 -8 0 -15 -4 -15 -10z"/>
<path d="M3207 23 c-13 -12 -7 -23 13 -23 13 0 18 5 14 15 -7 16 -17 19 -27 8z"/>
<path d="M1533 3 c9 -2 23 -2 30 0 6 3 -1 5 -18 5 -16 0 -22 -2 -12 -5z"/>
</g>
</svg>
