<?xml version="1.0" standalone="no"?>
<!DOCTYPE svg PUBLIC "-//W3C//DTD SVG 20010904//EN"
 "http://www.w3.org/TR/2001/REC-SVG-20010904/DTD/svg10.dtd">
<svg version="1.0" xmlns="http://www.w3.org/2000/svg"
 width="256.000000pt" height="384.000000pt" viewBox="0 0 256.000000 384.000000"
 preserveAspectRatio="xMidYMid meet">
<metadata>
Created by potrace 1.16, written by Peter Selinger 2001-2019
</metadata>
<g transform="translate(0.000000,384.000000) scale(0.100000,-0.100000)"
fill="#000000" stroke="none">
<path d="M564 3824 c3 -9 6 -41 6 -73 0 -35 6 -65 15 -77 13 -17 14 -10 15 74
0 87 -1 92 -21 92 -15 0 -19 -4 -15 -16z"/>
<path d="M671 3833 c4 -27 -3 -53 -15 -53 -16 0 -30 -96 -21 -140 14 -70 25
-156 34 -260 9 -109 25 -180 37 -167 3 3 1 52 -4 109 -6 57 -14 138 -17 182
l-6 79 53 -6 c89 -10 193 -26 211 -33 17 -6 17 -8 -3 -26 -21 -20 -22 -25 -15
-167 4 -80 8 -157 9 -171 1 -22 -4 -25 -38 -28 -30 -3 -37 0 -33 11 3 7 1 46
-3 86 -6 53 -14 79 -28 94 -19 18 -22 19 -36 4 -22 -22 -20 -40 4 -32 15 5 20
1 24 -17 6 -29 26 -152 26 -161 0 -4 -35 -5 -77 -4 -72 2 -78 0 -78 -18 0 -16
6 -19 30 -17 82 8 116 1 85 -18 -11 -7 -12 -12 -3 -21 15 -15 57 7 49 26 -7
20 14 33 59 37 l40 3 -3 190 c-3 189 4 243 13 106 2 -39 7 -76 10 -81 4 -6 33
-10 66 -10 47 0 68 -5 101 -26 23 -15 53 -30 67 -33 16 -5 28 -17 32 -35 4
-15 16 -34 26 -42 26 -19 69 -18 78 3 6 18 -7 32 -66 74 -19 13 -22 26 -25 99
-2 45 -6 85 -8 87 -11 11 -27 -11 -25 -35 3 -45 0 -67 -15 -87 -13 -18 -15
-17 -61 8 -26 15 -54 27 -61 27 -8 0 -14 10 -14 24 0 14 -5 28 -10 31 -15 9
-41 -14 -38 -33 2 -8 -2 -17 -9 -19 -11 -4 -15 12 -27 125 -4 38 -2 43 12 37
35 -14 160 -30 227 -28 39 0 196 4 350 8 l280 8 -5 -126 c-3 -69 -8 -129 -12
-133 -10 -9 -38 15 -38 32 0 24 -18 15 -28 -13 -10 -28 -10 -28 -11 9 -1 20
-5 39 -10 42 -5 3 -12 22 -15 41 -4 19 -11 35 -16 35 -13 0 -13 -67 0 -75 6
-3 10 -31 10 -61 0 -80 -22 -100 -102 -96 -47 3 -59 1 -56 -10 3 -9 29 -14 89
-15 46 -1 122 -7 169 -12 47 -5 200 -12 340 -16 231 -6 304 -9 365 -17 19 -3
20 3 22 137 1 126 0 135 -11 95 -9 -34 -17 -46 -34 -48 -19 -3 -22 1 -22 28 0
17 7 45 16 61 17 34 12 71 -8 51 -7 -7 -20 -12 -29 -12 -16 0 -18 -10 -16 -77
1 -43 -2 -99 -7 -125 -7 -41 -6 -48 7 -48 11 0 19 14 24 43 8 39 11 42 41 42
18 1 32 -3 32 -7 0 -4 -5 -8 -11 -8 -12 0 -8 -40 6 -73 7 -17 1 -18 -84 -16
-50 2 -91 6 -91 9 0 3 7 15 14 26 8 12 15 30 15 40 0 10 3 39 7 63 10 63 -14
50 -36 -20 -19 -59 -50 -82 -42 -31 5 34 -16 53 -30 28 -12 -22 -38 -20 -38 3
0 11 -5 21 -11 23 -9 3 -9 10 0 27 9 16 10 26 3 33 -14 14 -32 1 -32 -22 0
-13 -5 -17 -15 -14 -8 3 -19 2 -26 -2 -16 -10 18 -35 37 -27 10 4 14 -3 14
-20 0 -14 3 -32 6 -41 5 -13 -2 -16 -39 -16 l-45 0 5 39 c4 30 2 39 -13 45
-24 9 -34 -10 -34 -70 0 -48 -2 -52 -26 -57 -15 -2 -43 -3 -64 0 l-36 5 4 57
c5 69 15 81 43 55 16 -15 20 -27 16 -55 -5 -39 5 -65 21 -55 6 3 8 32 5 68 -2
35 -5 68 -5 73 0 6 3 18 7 28 9 21 -8 23 -25 2 -7 -9 -21 -13 -35 -9 -16 4
-27 -1 -38 -16 -28 -40 -37 -14 -37 101 l0 109 68 0 c98 0 173 11 169 24 -2 6
-22 11 -45 11 -36 0 -39 2 -27 15 11 12 12 24 5 45 -8 29 -9 29 -15 8 -10 -31
-65 -33 -65 -3 0 15 -7 20 -24 20 -14 0 -28 5 -31 10 -3 6 3 10 15 10 28 0 21
24 -8 28 -20 3 -22 9 -22 73 0 38 -4 69 -9 69 -9 0 -15 -42 -27 -182 -3 -43
-10 -78 -14 -78 -5 0 -17 -3 -27 -7 -15 -6 -16 -4 -5 9 16 21 30 258 15 258
-14 0 -23 -35 -23 -90 0 -25 -3 -67 -6 -95 l-6 -50 -191 0 c-175 0 -192 -2
-195 -17 -3 -17 11 -18 185 -19 252 -2 205 -7 -102 -11 l-250 -4 5 81 5 80 63
3 c65 3 85 -11 31 -22 -36 -7 -70 -41 -62 -62 10 -26 43 -14 58 21 l8 20 5
-20 c8 -36 21 -44 52 -34 l28 10 -22 62 -22 62 -44 3 c-25 2 -59 1 -77 -3 -28
-5 -34 -12 -43 -47 -7 -22 -10 -59 -8 -82 l3 -41 -52 -3 c-51 -3 -51 -3 -63
33 -12 35 -23 44 -35 25 -9 -14 -25 -12 -25 3 0 23 -70 104 -101 117 -24 10
-29 18 -29 46 0 24 -5 34 -15 34 -28 0 -13 -96 16 -105 10 -4 37 -24 59 -46
31 -31 40 -47 40 -74 0 -31 3 -35 25 -35 14 0 25 5 25 10 0 6 5 10 10 10 6 0
10 -11 10 -24 0 -22 -3 -23 -51 -18 -28 3 -77 10 -107 16 l-55 11 2 128 c2
110 0 127 -13 127 -14 0 -16 -17 -16 -109 l0 -108 -34 16 c-30 14 -34 22 -40
66 -3 28 -6 69 -6 93 0 32 -4 42 -16 42 -15 0 -16 -11 -10 -92 5 -63 4 -90 -3
-83 -6 6 -13 47 -17 93 -5 58 -11 82 -20 82 -10 0 -13 -16 -10 -67 2 -38 7
-76 11 -85 6 -15 2 -17 -27 -14 -51 6 -68 16 -68 42 0 30 17 32 22 2 4 -31 28
-35 28 -4 0 13 5 28 10 31 15 9 12 45 -5 51 -18 7 -20 30 -2 37 6 3 -3 6 -20
6 -18 1 -32 -2 -32 -6z m104 -203 c33 -6 78 -14 100 -19 97 -21 -64 -8 -192
15 -13 3 -23 9 -23 14 0 5 12 7 28 5 15 -3 54 -10 87 -15z m1206 -10 c10 0 19
-7 19 -15 0 -7 8 -19 18 -24 13 -8 9 -10 -24 -11 l-41 0 0 43 c0 23 1 34 4 25
2 -10 13 -18 24 -18z m-70 -110 c3 -53 2 -74 -5 -194 -6 -102 -4 -131 6 -137
9 -6 6 -9 -9 -9 -14 0 -23 6 -23 15 0 9 -7 18 -16 22 -11 4 -12 8 -4 13 8 5
14 58 18 159 4 118 8 151 18 151 8 0 14 -9 15 -20z m-96 -290 c3 -5 1 -10 -4
-10 -6 0 -11 5 -11 10 0 6 2 10 4 10 3 0 8 -4 11 -10z m-15 -30 c0 -5 -9 -10
-20 -10 -11 0 -20 5 -20 10 0 6 9 10 20 10 11 0 20 -4 20 -10z m475 -20 c46
-7 43 -7 -37 -9 -49 0 -90 3 -93 9 -7 12 56 12 130 0z"/>
<path d="M2444 3748 c-13 -6 -31 -34 -45 -70 -26 -66 -43 -80 -63 -52 -13 17
-14 17 -20 -4 -9 -27 0 -42 24 -42 30 0 60 30 85 88 13 28 28 52 33 52 16 0 1
-144 -17 -157 -14 -11 -12 -12 12 -13 16 0 26 4 22 10 -3 6 5 14 18 19 21 8
26 18 29 58 2 30 -1 53 -10 63 -7 8 -21 25 -30 37 -14 17 -21 19 -38 11z"/>
<path d="M290 3731 c-17 -33 -12 -49 21 -56 38 -8 67 12 31 21 -41 11 -24 26
21 18 60 -10 71 -10 76 1 8 16 -41 35 -91 35 -37 0 -50 -4 -58 -19z"/>
<path d="M2553 3685 c0 -22 2 -30 4 -17 2 12 2 30 0 40 -3 9 -5 -1 -4 -23z"/>
<path d="M0 3647 c0 -18 31 -25 120 -30 l55 -2 8 -55 c4 -30 14 -100 22 -155
8 -55 22 -160 31 -233 15 -119 19 -135 42 -152 28 -23 84 -26 104 -7 9 9 51
16 118 20 87 4 110 2 140 -12 45 -22 165 -16 165 9 0 11 -19 17 -80 23 -183
17 -235 19 -328 6 -70 -9 -101 -9 -108 -2 -16 16 -84 527 -73 545 8 12 66 10
175 -8 103 -16 194 -16 194 1 0 6 -29 13 -65 18 -36 4 -94 12 -130 17 -72 12
-112 15 -277 26 -100 6 -113 5 -113 -9z"/>
<path d="M2160 3640 c0 -28 21 -70 35 -70 9 0 10 10 2 40 -12 42 -37 63 -37
30z"/>
<path d="M2235 3610 c-8 -14 3 -30 21 -30 16 0 16 2 8 24 -7 18 -20 21 -29 6z"/>
<path d="M2550 3580 c0 -5 -7 -10 -15 -10 -22 0 -18 -27 5 -33 17 -4 20 0 20
24 0 16 -2 29 -5 29 -3 0 -5 -4 -5 -10z"/>
<path d="M1349 3487 c-33 -25 -40 -54 -33 -138 7 -78 8 -80 30 -75 23 6 24 4
24 -53 0 -45 4 -60 16 -65 15 -6 16 7 10 149 -4 85 -5 155 -1 155 3 0 16 -7
29 -15 22 -15 24 -22 24 -117 1 -55 6 -106 11 -111 15 -15 50 31 51 66 0 21 5
27 21 27 17 0 20 4 15 23 -4 12 -9 30 -11 39 -6 28 -25 58 -36 58 -6 0 -26 16
-45 35 -36 37 -75 45 -105 22z m13 -109 c2 -29 2 -62 -1 -73 -4 -17 -6 -15
-12 10 -10 46 -10 115 0 115 5 0 11 -24 13 -52z"/>
<path d="M2104 3447 c-3 -9 -1 -25 5 -36 7 -13 8 -22 1 -26 -15 -10 -12 -45 5
-45 10 0 14 11 15 33 0 17 1 43 2 56 3 27 -19 41 -28 18z"/>
<path d="M724 3419 c3 -17 6 -35 6 -39 0 -4 14 -10 30 -12 31 -5 31 -4 28 36
-3 39 -5 41 -37 44 -33 3 -34 3 -27 -29z"/>
<path d="M1560 3375 c0 -10 10 -15 34 -15 18 0 48 -3 66 -6 28 -6 32 -4 28 12
-3 16 -14 19 -66 22 -50 2 -62 -1 -62 -13z"/>
<path d="M650 3186 c0 -97 11 -140 26 -101 9 23 -6 205 -17 205 -5 0 -9 -47
-9 -104z"/>
<path d="M765 3244 c-7 -42 0 -54 20 -33 8 8 11 25 8 42 -7 38 -19 34 -28 -9z"/>
<path d="M1542 3248 c5 -15 58 -24 58 -10 0 11 -24 22 -47 22 -8 0 -13 -6 -11
-12z"/>
<path d="M1508 3210 c-18 -43 -14 -54 13 -39 12 6 19 21 19 39 0 43 -13 43
-32 0z"/>
<path d="M880 2980 c0 -5 7 -10 15 -10 8 0 15 5 15 10 0 6 -7 10 -15 10 -8 0
-15 -4 -15 -10z"/>
<path d="M715 2950 c-30 -12 -42 -30 -48 -75 -2 -22 -8 -52 -11 -67 -5 -21 -3
-28 9 -28 8 0 15 6 15 14 0 28 35 55 82 61 40 6 47 5 52 -13 4 -11 15 -22 25
-25 15 -3 19 -19 24 -87 4 -45 4 -87 1 -91 -13 -21 -22 5 -23 67 -1 59 -5 70
-29 93 -28 26 -77 37 -88 19 -9 -15 17 -29 42 -23 34 8 45 -17 49 -110 5 -97
8 -107 33 -98 15 5 14 3 -3 -18 -30 -36 -39 -40 -47 -20 -5 16 -14 18 -51 14
-38 -5 -47 -2 -60 18 -16 22 -17 22 -36 5 -18 -17 -20 -17 -29 1 -14 25 -25
11 -26 -34 -1 -37 -2 -38 -86 -80 -47 -23 -93 -42 -102 -42 -32 -1 -28 -20 7
-32 19 -7 35 -16 35 -20 0 -15 -32 -39 -53 -39 -26 0 -46 -11 -44 -25 1 -5
-14 -11 -33 -13 -37 -4 -70 -26 -70 -48 0 -19 -20 -28 -55 -26 -30 2 -75 -27
-75 -48 0 -13 -52 -60 -67 -60 -27 0 -53 -43 -53 -87 0 -36 3 -43 19 -43 11 0
22 -4 26 -9 3 -6 27 -10 53 -11 110 -3 116 -6 86 -31 -9 -7 -51 -15 -100 -17
-62 -3 -84 -8 -84 -18 0 -10 13 -14 39 -14 21 0 53 -5 71 -11 l33 -12 -24 -13
c-13 -7 -45 -13 -71 -14 -41 0 -48 -3 -48 -20 0 -17 7 -20 45 -20 25 0 62 8
83 18 20 11 58 25 84 32 26 6 56 22 67 34 19 20 26 22 74 14 28 -5 93 -12 142
-17 90 -8 125 -17 125 -30 0 -4 -81 -90 -180 -192 -471 -481 -440 -447 -440
-482 l1 -32 27 34 c60 76 403 416 419 416 11 0 19 9 21 23 2 14 10 22 23 22
12 0 19 7 19 19 0 21 88 124 99 116 7 -4 14 -73 14 -136 0 -18 -13 -41 -38
-65 -20 -22 -58 -64 -83 -94 -26 -30 -85 -100 -132 -155 -47 -55 -88 -104 -93
-110 -37 -50 -110 -141 -116 -145 -4 -3 -29 -30 -55 -60 -26 -30 -55 -64 -65
-75 -23 -25 -34 -67 -17 -63 13 3 176 183 221 243 29 40 116 147 159 195 12
14 66 78 121 143 54 64 102 117 106 117 8 0 11 -19 33 -190 15 -119 46 -297
66 -385 16 -71 19 -99 22 -196 l2 -85 -59 -110 c-84 -155 -156 -291 -224 -425
-33 -64 -71 -130 -86 -147 l-27 -32 29 0 c19 0 31 7 39 23 12 25 121 235 209
402 32 61 64 119 72 130 11 17 13 17 13 2 0 -25 56 -22 90 6 16 12 40 30 54
40 28 19 50 85 41 120 -16 62 -31 105 -46 137 l-17 35 31 3 c31 4 140 -10 222
-28 22 -5 87 -16 145 -24 199 -30 245 -39 268 -47 l23 -9 -26 -37 c-29 -43
-31 -53 -10 -53 21 0 42 38 50 93 4 26 11 47 16 47 5 0 9 7 9 15 0 8 16 32 35
52 30 31 41 37 74 36 51 -2 120 -39 127 -69 15 -57 139 -52 151 7 3 16 10 32
14 35 5 3 9 29 9 57 0 99 21 118 73 69 16 -15 36 -22 64 -22 34 0 46 6 71 34
22 25 33 31 41 23 8 -8 16 -7 28 6 13 13 15 20 5 29 -7 7 -12 21 -12 33 0 12
-5 26 -11 32 -8 8 -8 30 1 80 10 53 10 83 0 138 -22 125 -30 219 -24 285 4 54
9 69 30 86 17 14 25 29 22 43 l-3 22 -23 -22 c-21 -18 -31 -21 -75 -15 -90 10
-126 24 -133 51 -8 32 1 44 53 67 27 12 52 32 64 52 23 40 69 75 109 82 46 10
50 55 11 132 -17 33 -41 68 -53 77 -15 12 -19 19 -10 22 22 9 12 42 -20 66
-18 13 -77 46 -131 72 -53 26 -96 49 -95 50 2 1 90 -2 197 -7 139 -6 203 -13
225 -23 40 -20 62 -2 29 24 -27 23 -144 34 -358 35 -134 1 -160 -1 -160 -14 0
-8 10 -19 22 -26 13 -6 31 -18 40 -26 10 -8 41 -21 68 -28 47 -13 172 -96 161
-107 -3 -3 -24 9 -48 26 -30 22 -45 28 -52 20 -8 -8 1 -20 29 -42 66 -53 134
-125 134 -144 0 -10 3 -30 7 -45 5 -23 3 -28 -11 -28 -30 0 -85 -41 -111 -82
-21 -33 -70 -65 -94 -61 -3 1 -8 -4 -11 -9 -4 -6 -19 3 -36 22 -23 26 -35 32
-54 27 -24 -6 -99 -66 -99 -79 0 -14 60 -38 94 -38 47 0 66 -9 66 -31 0 -26
52 -56 122 -71 55 -11 57 -13 56 -42 -2 -69 15 -244 28 -290 18 -64 18 -128
-1 -190 -8 -27 -15 -69 -15 -93 0 -52 -26 -83 -71 -83 -42 0 -68 33 -69 86 l0
41 52 14 c62 17 61 34 -2 34 -44 0 -45 1 -58 43 -8 23 -20 42 -28 42 -18 0
-18 -28 1 -64 14 -27 13 -31 -20 -90 -28 -51 -35 -75 -41 -146 -7 -84 -25
-140 -45 -140 -6 0 -13 9 -16 20 -3 11 -8 20 -12 21 -3 0 -15 2 -27 3 -31 4
-111 53 -118 73 -7 16 0 133 10 181 3 15 0 22 -10 22 -10 0 -17 -15 -21 -47
-3 -27 -11 -64 -16 -83 -6 -20 -10 -42 -9 -50 3 -25 -12 -61 -23 -57 -7 2 -14
14 -17 27 -6 25 3 135 15 183 6 22 4 26 -8 21 -22 -8 -36 -57 -38 -134 -2 -36
-7 -74 -13 -85 -9 -17 -12 -13 -16 29 -6 63 -30 75 -30 16 0 -47 11 -45 -110
-20 -189 40 -422 71 -435 59 -23 -22 -143 8 -186 47 -25 23 -27 138 -3 165 9
10 14 25 10 34 -5 14 -10 13 -35 -6 l-30 -22 6 -86 c7 -102 18 -119 102 -150
43 -15 79 -20 146 -20 83 1 233 -19 301 -40 16 -5 68 -15 116 -22 l88 -12 -6
-41 c-9 -67 -9 -67 -56 -60 -24 4 -51 11 -61 16 -10 5 -55 14 -100 19 -157 18
-223 28 -307 43 -47 9 -101 16 -120 16 -19 0 -53 7 -75 14 -40 14 -40 14 -43
72 -1 31 -6 62 -11 68 -17 20 -50 207 -59 331 -5 66 -12 127 -16 135 -8 21 9
44 27 37 10 -4 18 -26 22 -64 8 -73 12 -86 25 -78 5 3 10 28 10 55 0 58 10 64
76 44 26 -8 69 -14 96 -14 44 0 61 -11 39 -24 -5 -3 -12 -22 -16 -42 -3 -20
-11 -48 -17 -63 -29 -70 -4 -156 47 -161 38 -4 45 0 62 35 9 20 22 34 29 31 7
-3 43 11 80 30 36 19 77 34 90 34 29 0 52 -45 49 -94 -2 -20 0 -38 5 -41 13
-8 24 35 21 86 -1 26 2 50 8 54 6 3 11 19 11 35 0 28 22 60 41 60 6 0 7 -14 4
-33 -6 -31 -3 -35 38 -61 40 -26 45 -32 45 -68 1 -22 3 -42 6 -45 10 -10 -28
-42 -41 -34 -18 9 -73 2 -73 -10 0 -14 45 -28 69 -22 12 3 21 1 22 -3 5 -41 5
-82 -1 -79 -14 9 -50 -40 -50 -69 0 -11 9 -13 36 -9 29 5 40 1 63 -21 l29 -27
17 73 c10 40 21 78 25 83 5 6 13 36 19 68 6 31 15 65 20 75 5 9 12 38 16 63
l7 46 -48 6 c-54 6 -74 1 -74 -19 0 -17 -25 -8 -63 22 -37 30 -34 37 11 30 20
-4 71 -9 112 -12 l75 -6 13 39 c8 21 14 48 14 61 0 22 9 28 21 16 3 -4 -4 -34
-17 -68 -13 -33 -26 -83 -30 -111 -5 -27 -11 -54 -15 -60 -13 -16 -20 -55 -11
-60 14 -9 40 43 55 112 9 38 20 77 24 88 5 11 15 42 22 68 14 54 7 66 -41 67
-28 1 -173 39 -152 39 8 1 25 10 38 20 14 11 42 22 64 26 38 6 40 9 40 42 0
26 -7 43 -26 60 -21 20 -25 31 -22 63 2 22 3 40 3 40 0 1 -28 3 -63 6 l-64 6
2 -39 c3 -61 2 -64 -22 -61 -14 2 -23 -2 -23 -11 0 -9 -11 -15 -28 -15 -27 -2
-28 -1 -22 39 4 25 16 49 34 66 15 14 25 31 23 38 -3 9 2 11 14 7 11 -3 56 -7
102 -8 89 -3 108 6 97 47 -3 11 -7 37 -9 58 -2 21 -6 40 -9 43 -3 3 -33 7 -66
9 -34 2 -71 11 -83 20 -32 22 -58 19 -90 -12 -42 -40 -51 -23 -49 94 2 86 15
153 31 153 22 -1 80 -80 80 -109 0 -21 60 -61 91 -61 10 0 19 -5 19 -11 0 -5
-5 -7 -11 -4 -7 5 -9 -3 -7 -21 3 -25 7 -29 33 -29 28 0 30 2 27 35 -5 43 -18
60 -47 60 -13 0 -25 7 -29 15 -3 8 -14 15 -24 15 -11 0 -26 8 -33 17 -13 15
-12 16 9 11 31 -8 26 23 -6 37 -12 5 -22 13 -22 16 0 12 -72 79 -84 79 -7 0
-22 -22 -35 -49 -20 -45 -22 -63 -19 -188 3 -119 1 -143 -15 -166 -13 -19 -26
-27 -48 -27 -36 0 -76 -20 -107 -53 -42 -45 -57 -27 -60 72 -2 87 -2 88 34
135 27 36 35 54 32 77 -5 31 14 58 107 159 23 25 52 65 63 90 19 40 28 41 23
3 -2 -13 46 -49 54 -41 3 2 1 49 -5 104 -11 116 -3 131 70 140 24 3 51 9 61
15 30 15 82 10 119 -13 43 -26 24 -24 320 -33 154 -4 267 -12 303 -21 32 -8
76 -14 98 -14 l39 0 0 -46 c0 -37 3 -45 15 -40 8 3 31 -3 50 -14 61 -34 65
-30 65 60 l0 80 -107 0 c-60 0 -130 6 -158 14 -32 8 -82 11 -139 8 -49 -3
-126 0 -170 7 -45 6 -126 12 -182 14 -86 2 -104 6 -128 25 -36 28 -103 29
-155 2 -21 -10 -41 -17 -44 -13 -15 14 -60 -11 -111 -62 -54 -54 -67 -75 -46
-75 15 0 2 -90 -17 -115 -10 -12 -58 -68 -108 -124 -49 -56 -99 -114 -110
-129 -68 -93 -71 -95 -117 -95 -43 0 -43 0 -45 -39 -1 -30 3 -38 17 -38 11 0
20 10 24 25 5 19 13 25 33 25 14 0 35 7 45 17 10 9 21 14 24 10 9 -9 -16 -48
-68 -106 -26 -30 -48 -61 -48 -68 0 -8 11 -26 25 -40 23 -25 25 -26 43 -10 23
21 46 22 62 2 7 -9 27 -14 50 -13 48 2 62 -7 54 -38 -5 -21 -3 -24 20 -24 15
0 26 6 26 13 0 8 10 13 23 13 38 -2 24 24 -27 47 l-50 23 36 22 c19 12 48 22
64 22 27 1 84 39 84 57 0 4 23 30 50 58 l49 49 46 -22 c26 -13 64 -22 90 -22
33 0 45 -4 45 -15 0 -14 -25 -20 -75 -16 -12 1 -32 -2 -45 -8 l-25 -9 28 -11
c15 -6 27 -13 27 -16 0 -8 -36 2 -67 17 -24 12 -53 -3 -53 -26 0 -15 -41 -54
-71 -70 -40 -20 -46 -92 -13 -141 8 -11 14 -23 14 -27 0 -16 -51 -7 -70 12
-13 13 -33 20 -59 20 -22 0 -42 4 -45 9 -4 5 -24 12 -46 16 -22 4 -42 11 -46
16 -3 5 -18 9 -35 9 -39 0 -39 -28 0 -36 16 -4 42 -19 57 -35 37 -39 28 -54
-56 -97 -57 -28 -72 -32 -122 -27 -53 4 -132 28 -152 46 -4 4 1 18 13 31 13
12 32 39 44 58 11 19 29 41 38 47 17 13 59 74 59 87 0 18 -32 1 -59 -31 -38
-45 -47 -40 -21 12 11 22 20 56 20 76 0 21 5 39 12 41 21 7 -1 25 -29 24 -28
-1 -30 -6 -18 -38 4 -11 3 -18 -4 -18 -6 0 -11 6 -11 14 0 8 -7 16 -15 18 -10
2 40 58 135 155 101 102 155 150 165 147 11 -5 15 1 15 19 0 14 5 29 10 32 5
3 10 14 10 24 0 10 31 48 69 84 63 59 96 107 73 107 -17 0 -140 -125 -157
-160 -10 -19 -106 -124 -214 -234 -108 -109 -202 -204 -209 -212 -16 -17 -60
-18 -99 -3 -15 6 -75 15 -131 19 -60 4 -109 13 -115 20 -10 10 -5 11 22 6 18
-3 80 -6 137 -6 86 0 104 -3 104 -15 0 -26 39 -18 46 10 3 14 12 25 19 25 7 0
80 66 162 146 81 81 163 158 181 171 23 18 32 33 32 54 0 32 -19 39 -40 15
-14 -18 -62 -14 -94 8 -15 9 -28 11 -37 5 -19 -12 -99 -11 -99 1 0 17 -46 11
-71 -9 -20 -16 -28 -17 -42 -6 -24 17 -21 24 11 23 38 -1 131 28 162 50 35 26
146 45 190 32 19 -6 50 -7 67 -4 38 7 87 59 80 85 -3 12 0 16 10 12 11 -4 14
0 11 13 -2 13 -16 21 -43 27 -22 4 -53 10 -70 14 -16 4 -56 7 -87 7 l-58 1 0
31 c0 23 10 42 38 69 l37 37 260 -6 c392 -9 785 -24 833 -32 28 -4 48 -14 58
-29 12 -19 27 -23 91 -29 42 -4 90 -14 106 -23 23 -12 35 -12 54 -4 13 6 46
11 73 11 l50 0 0 113 c0 61 -4 107 -8 101 -10 -15 -92 -5 -99 12 -8 22 -31 16
-35 -8 -4 -29 -54 -36 -97 -14 -16 9 -48 16 -70 16 l-40 0 -6 -55 c-11 -81 -7
-85 75 -85 57 0 74 -4 90 -20 22 -22 45 -18 36 6 -6 16 10 29 19 14 6 -10 45
-11 78 -3 14 4 18 13 15 40 -2 22 2 38 9 40 10 4 12 -11 10 -59 l-4 -63 -69
-6 c-38 -3 -73 -2 -79 2 -5 3 -28 9 -50 12 -87 14 -126 25 -146 43 -30 27
-103 35 -424 44 -159 5 -388 12 -507 16 l-217 6 -40 -31 -40 -32 -3 43 c-2 35
-7 44 -24 46 -19 3 -20 8 -16 57 4 50 3 55 -19 64 -18 6 -25 5 -27 -6 -2 -8 1
-20 7 -26 14 -14 15 -91 1 -82 -5 3 -10 21 -10 38 0 53 -10 71 -46 90 -37 18
-76 21 -109 7z m92 -42 c22 -8 33 -18 33 -32 0 -19 0 -19 -14 -1 -11 16 -25
19 -71 17 -51 -2 -56 -1 -45 13 15 18 52 19 97 3z m1483 -106 c0 -15 49 -32
92 -32 33 0 39 -3 30 -12 -7 -7 -36 -12 -65 -13 -46 0 -52 2 -55 23 -2 12 -8
22 -13 22 -5 0 -9 5 -9 10 0 6 5 10 10 10 6 0 10 -4 10 -8z m-1157 -247 c32
-6 37 -10 31 -29 -11 -38 -23 -41 -142 -41 -92 0 -124 -4 -147 -17 -79 -45
-102 -52 -195 -56 -91 -4 -150 7 -150 27 0 21 88 43 185 46 98 4 101 4 133 36
17 18 32 36 32 40 0 8 205 4 253 -6z m1395 -11 c17 -5 22 -13 22 -41 0 -28 -3
-34 -16 -29 -9 3 -22 6 -29 6 -9 0 -13 10 -12 28 2 20 -2 27 -15 26 -10 -1
-18 2 -18 7 0 10 34 12 68 3z m-1963 -164 c15 -6 8 -9 -27 -9 -26 -1 -50 4
-53 9 -8 12 52 12 80 0z m92 -16 c-3 -3 -12 -4 -19 -1 -8 3 -5 6 6 6 11 1 17
-2 13 -5z m-68 -45 c-8 -5 -24 -9 -36 -9 -12 0 -27 -9 -34 -21 -11 -21 -11
-21 -25 6 -17 34 -17 33 3 37 33 6 106 -4 92 -13z m75 -7 c-5 -4 -31 -22 -58
-40 -26 -19 -50 -31 -54 -27 -4 4 1 12 11 19 9 7 17 19 17 25 0 7 8 10 18 7 9
-3 28 3 42 14 14 10 27 16 30 14 2 -3 0 -8 -6 -12z m116 8 c0 -5 -7 -10 -16
-10 -8 0 -12 5 -9 10 3 6 10 10 16 10 5 0 9 -4 9 -10z m-325 -20 c-3 -5 -12
-10 -19 -10 -8 0 -19 -7 -26 -15 -7 -8 -24 -15 -39 -15 l-26 1 30 24 c29 24
93 36 80 15z m433 -2 c-3 -7 -14 -14 -26 -16 -12 -2 -22 -8 -22 -13 0 -5 -7
-9 -15 -9 -19 0 -19 -9 0 -30 14 -16 14 -17 -10 -13 -14 3 -25 12 -25 19 0 8
-7 14 -15 14 -8 0 -15 -3 -15 -8 0 -4 -14 -13 -31 -21 -26 -11 -32 -11 -48 3
-10 9 -23 16 -29 16 -17 0 -15 15 3 30 12 10 21 10 45 0 36 -15 76 -6 92 20
10 15 24 20 56 20 31 0 42 -4 40 -12z m46 -43 c21 -16 15 -18 -21 -9 -13 4
-23 10 -23 15 0 13 23 10 44 -6z m-394 -23 c0 -2 -13 -17 -30 -32 -32 -30 -37
-26 -19 14 7 14 19 24 30 23 11 -1 19 -3 19 -5z m-97 -19 c4 -2 7 -13 7 -25 0
-14 -5 -18 -16 -14 -9 3 -28 6 -44 6 -20 0 -29 6 -33 21 -5 18 -11 20 -36 14
-21 -4 -31 -3 -31 5 0 8 21 9 73 4 39 -3 75 -9 80 -11z m175 -17 c1 -2 -1 -12
-5 -22 -7 -15 -15 -18 -46 -14 -37 5 -37 5 -21 28 13 19 22 22 43 17 14 -4 27
-8 29 -9z m-358 -6 c0 -5 -4 -10 -10 -10 -5 0 -10 5 -10 10 0 6 5 10 10 10 6
0 10 -4 10 -10z m409 -11 c-7 -4 -17 -5 -22 -2 -5 3 -3 9 4 14 7 4 17 5 22 2
5 -3 3 -9 -4 -14z m137 -3 c18 -14 18 -15 -9 -25 -16 -6 -44 -11 -63 -11 -27
0 -34 4 -34 19 0 11 6 22 13 24 25 11 74 7 93 -7z m64 -1 c-7 -9 -15 -13 -17
-11 -7 7 7 26 19 26 6 0 6 -6 -2 -15z m267 -47 c-39 -56 -57 -73 -57 -56 0 9
14 32 32 52 34 39 51 41 25 4z m-857 13 c0 -5 -50 -51 -56 -51 -2 0 -4 9 -4
20 0 16 -7 20 -31 20 -16 0 -28 4 -24 9 5 9 115 11 115 2z m121 -46 c10 -4 19
-10 19 -15 0 -5 -12 -2 -27 6 -16 7 -37 14 -48 14 -21 0 -45 17 -45 31 0 4 17
9 38 11 32 3 37 0 40 -19 2 -12 12 -25 23 -28z m29 45 c0 -5 -4 -10 -10 -10
-5 0 -10 5 -10 10 0 6 5 10 10 10 6 0 10 -4 10 -10z m-290 -30 c0 -5 -7 -10
-16 -10 -8 0 -12 5 -9 10 3 6 10 10 16 10 5 0 9 -4 9 -10z m477 4 c54 -6 60
-9 55 -26 -3 -13 -7 -16 -12 -8 -8 13 -95 17 -155 6 -46 -8 -81 7 -55 24 17
11 81 13 167 4z m163 -29 c-16 -15 -24 -17 -37 -9 -30 19 -24 29 17 29 l40 0
-20 -20z m-690 -7 c0 -15 -60 -52 -69 -42 -7 7 45 54 60 54 5 0 9 -6 9 -12z
m171 -17 c31 -25 19 -48 -34 -66 -31 -11 -37 -10 -37 1 0 8 10 14 25 14 25 0
35 23 15 35 -12 8 -13 35 -1 35 5 0 19 -9 32 -19z m-71 -15 c0 -14 -6 -28 -12
-33 -17 -10 -108 -11 -108 0 0 10 42 26 66 24 13 -1 18 4 16 16 -2 11 4 17 18
17 15 0 20 -6 20 -24z m130 20 c0 -3 -4 -8 -10 -11 -5 -3 -10 -1 -10 4 0 6 5
11 10 11 6 0 10 -2 10 -4z m310 -15 c38 -10 9 -23 -68 -29 -47 -4 -63 -2 -58
7 4 6 16 11 27 11 10 0 19 5 19 10 0 11 42 12 80 1z m-221 -12 c31 -11 37 -23
23 -46 -14 -22 -107 -21 -115 1 -8 19 20 56 42 56 10 0 32 -5 50 -11z m305
-24 c-4 -8 -12 -15 -20 -15 -8 0 -14 7 -14 15 0 8 9 15 20 15 13 0 18 -5 14
-15z m-63 -40 c5 -6 -16 -9 -59 -8 -37 1 -75 2 -84 3 -10 0 -18 4 -18 9 0 4
21 6 48 4 28 -2 57 2 72 10 17 9 26 10 29 3 2 -6 7 -15 12 -21z m-351 -13 c0
-26 -131 -105 -146 -89 -12 12 25 57 42 50 10 -4 17 1 21 15 5 19 22 27 66 31
9 0 17 -3 17 -7z m1333 -29 c-13 -2 -35 -2 -50 0 -16 2 -5 4 22 4 28 0 40 -2
28 -4z m346 -23 c15 -23 15 -24 -2 -17 -10 4 -32 7 -48 7 -35 0 -38 13 -6 28
29 14 37 11 56 -18z m-1207 -15 c-15 -19 -20 -35 -15 -56 5 -25 2 -29 -16 -29
-11 0 -21 5 -21 10 0 6 -7 10 -16 10 -8 0 -12 5 -9 10 4 6 11 8 16 5 5 -4 9
-1 9 5 0 12 63 81 69 75 2 -2 -6 -16 -17 -30z m54 -97 c-1 -43 -9 -63 -38
-105 -20 -29 -38 -58 -40 -65 -3 -9 -11 -8 -30 4 -29 19 -53 99 -46 153 l4 30
8 -30 c13 -54 33 -80 60 -80 14 0 26 5 27 10 0 6 7 18 16 27 11 12 14 28 10
53 -5 31 5 49 29 55 1 0 1 -24 0 -52z m-82 -20 c11 -44 7 -54 -14 -30 -10 13
-16 30 -13 37 8 22 20 18 27 -7z m856 -23 c17 -9 30 -22 30 -30 0 -15 -81 -57
-140 -73 -19 -5 -34 -14 -32 -21 1 -6 -10 -11 -25 -11 -33 0 -58 -14 -49 -28
3 -5 47 -13 97 -17 51 -4 101 -11 113 -16 36 -16 -153 3 -271 27 -37 7 -85
-11 -102 -38 -7 -11 -12 -44 -12 -76 -1 -73 -36 -103 -87 -71 -14 9 -26 5 -60
-17 -35 -23 -42 -33 -42 -61 0 -25 -4 -33 -17 -33 -36 0 -61 38 -40 59 7 7 12
17 12 24 2 52 19 97 38 103 12 3 28 11 36 17 7 7 26 10 42 9 26 -3 29 -1 29
27 0 23 5 31 18 31 9 0 27 15 40 33 18 26 20 33 7 35 -8 2 -15 10 -15 17 0 17
92 38 101 23 4 -6 24 -14 45 -17 33 -6 46 -2 84 23 25 17 47 34 48 38 2 4 8 8
13 8 6 0 27 11 47 25 43 29 53 30 92 10z m-490 -184 c0 -12 -20 -25 -27 -18
-7 7 6 27 18 27 5 0 9 -4 9 -9z m243 -41 c-13 -5 -24 -22 -28 -42 -4 -18 -14
-46 -23 -63 l-16 -30 -7 34 c-5 26 -3 37 12 52 17 17 23 32 20 52 0 4 14 7 32
6 28 0 29 -1 10 -9z m220 -14 c52 -4 73 -16 65 -38 -9 -21 -220 3 -245 28 -22
22 -15 24 60 19 39 -4 94 -8 120 -9z m-83 -336 c0 -5 -2 -10 -4 -10 -3 0 -8 5
-11 10 -3 6 -1 10 4 10 6 0 11 -4 11 -10z m-670 -279 c13 -25 13 -124 1 -116
-6 3 -14 -2 -20 -12 -8 -16 -10 -15 -15 7 -3 14 -7 51 -8 83 -3 48 0 57 14 57
10 0 22 -9 28 -19z m58 -194 c3 -31 -2 -42 -26 -65 -62 -56 -89 -72 -111 -64
-21 7 -21 8 5 52 14 25 30 58 37 73 7 17 23 31 42 36 43 13 50 9 53 -32z"/>
<path d="M1700 2555 c0 -16 -6 -25 -15 -25 -20 0 -19 -29 2 -52 12 -13 18 -38
19 -71 1 -68 12 -114 28 -120 9 -4 12 2 9 17 -3 13 5 32 21 49 30 32 32 43 11
51 -8 3 -15 11 -15 17 0 6 -13 27 -30 46 -30 34 -39 63 -20 63 18 0 70 -43 70
-57 0 -7 5 -13 10 -13 24 0 8 48 -28 83 -44 43 -62 47 -62 12z"/>
<path d="M1455 2541 c-3 -6 -1 -19 5 -30 5 -11 10 -28 10 -39 0 -10 14 -33 30
-50 17 -18 30 -36 30 -42 0 -16 27 -12 34 5 3 10 -10 30 -36 56 -30 29 -41 48
-42 71 -1 31 -19 48 -31 29z"/>
<path d="M234 2431 c-83 -42 -166 -83 -184 -91 -34 -15 -59 -44 -48 -55 3 -3
42 12 86 35 45 22 85 40 91 40 5 0 26 9 45 21 22 13 36 16 36 9 0 -6 -13 -16
-30 -21 -17 -6 -30 -17 -30 -25 0 -21 38 -17 50 6 6 12 21 20 35 20 18 0 25 5
25 20 0 14 -5 18 -17 13 -41 -15 8 24 59 48 51 23 68 36 68 52 0 17 -43 0
-186 -72z"/>
<path d="M1910 2384 c-9 -10 -10 -18 -2 -26 12 -12 32 -2 32 17 0 21 -16 26
-30 9z"/>
<path d="M1616 2363 c10 -42 23 -63 39 -63 11 0 12 6 4 30 -6 17 -15 30 -20
30 -5 0 -9 7 -9 15 0 8 -5 15 -10 15 -6 0 -8 -11 -4 -27z"/>
<path d="M1990 2357 c0 -16 8 -28 26 -36 36 -16 42 -6 18 26 -27 36 -44 40
-44 10z"/>
<path d="M1853 2348 c2 -7 7 -13 12 -13 5 0 10 6 13 13 2 6 -4 12 -13 12 -9 0
-15 -6 -12 -12z"/>
<path d="M1813 2314 c-3 -9 0 -20 8 -25 27 -17 36 -8 23 25 -8 21 -23 20 -31
0z"/>
<path d="M1562 2288 c-13 -13 -4 -38 14 -38 15 0 19 35 6 44 -5 3 -14 0 -20
-6z"/>
<path d="M1946 2291 c-4 -7 -5 -15 -2 -18 9 -9 19 4 14 18 -4 11 -6 11 -12 0z"/>
<path d="M1867 2274 c-10 -11 3 -24 24 -24 10 0 19 7 19 15 0 15 -31 21 -43 9z"/>
<path d="M1740 2170 c0 -28 4 -40 14 -40 21 0 30 20 17 33 -6 6 -11 19 -11 29
0 10 -4 18 -10 18 -5 0 -10 -18 -10 -40z"/>
<path d="M1683 2174 c-14 -30 -9 -44 13 -44 9 0 14 11 14 35 0 42 -10 45 -27
9z"/>
<path d="M2324 2175 c5 -18 2 -25 -9 -25 -8 0 -15 -3 -15 -7 0 -17 17 -30 62
-47 34 -12 56 -29 75 -58 16 -22 36 -49 46 -60 22 -24 57 -101 67 -148 7 -32
8 -30 9 21 1 33 -5 63 -13 74 -8 11 -12 24 -9 30 2 7 -14 34 -37 61 -39 48
-40 49 -18 57 41 15 66 1 71 -41 2 -24 4 -16 5 26 l2 63 -68 -2 c-77 -2 -143
17 -135 38 6 15 -14 43 -29 43 -6 0 -7 -11 -4 -25z"/>
<path d="M2183 1924 c-8 -21 23 -52 38 -37 14 14 2 53 -17 53 -8 0 -17 -7 -21
-16z"/>
<path d="M900 1915 c0 -8 9 -15 20 -15 11 0 20 7 20 15 0 8 -9 15 -20 15 -11
0 -20 -7 -20 -15z"/>
<path d="M2430 1881 c0 -50 0 -51 -44 -71 -56 -25 -66 -40 -27 -40 16 0 33 5
36 10 3 6 14 10 24 10 11 0 21 9 24 21 8 29 28 20 50 -22 15 -28 18 -49 13
-126 -3 -54 -12 -106 -21 -123 -8 -16 -22 -62 -30 -102 -8 -40 -24 -111 -35
-158 -12 -47 -24 -105 -27 -130 -3 -25 -11 -48 -17 -53 -7 -5 -1 -16 18 -33
16 -14 25 -29 20 -32 -5 -4 -15 -29 -23 -57 -7 -27 -15 -58 -18 -67 -4 -12 0
-18 11 -18 10 0 19 11 23 30 5 29 26 40 37 21 3 -5 18 -12 33 -16 15 -3 32
-13 38 -22 10 -14 13 -13 28 2 12 11 17 33 17 68 l-1 52 -14 -32 c-16 -38 -51
-47 -40 -10 4 12 11 26 16 32 5 5 9 49 9 97 0 73 -3 88 -16 88 -13 0 -14 -10
-8 -72 6 -67 6 -72 -9 -59 -9 7 -23 11 -31 8 -8 -3 -22 0 -32 8 -17 12 -17 18
-5 91 7 44 21 110 32 149 10 38 19 82 19 98 0 16 9 49 20 75 22 52 40 153 40
223 0 37 -7 57 -33 95 -19 27 -38 62 -44 78 -16 50 -33 44 -33 -13z m50 -861
c0 -5 -2 -10 -4 -10 -3 0 -8 5 -11 10 -3 6 -1 10 4 10 6 0 11 -4 11 -10z"/>
<path d="M2302 1560 c-19 -8 -21 -13 -12 -29 13 -25 30 -36 30 -19 0 7 7 2 16
-10 13 -18 14 -37 9 -100 -4 -42 -12 -82 -17 -89 -5 -7 -7 -17 -3 -23 3 -5 1
-10 -6 -10 -6 0 -9 -8 -6 -20 3 -11 1 -22 -3 -25 -9 -5 -4 -74 5 -84 16 -16
41 89 55 230 10 95 9 111 -7 148 -19 43 -24 46 -61 31z"/>
<path d="M789 1458 c-31 -39 -34 -48 -31 -102 1 -33 5 -62 8 -65 8 -8 24 22
24 47 0 12 4 22 10 22 5 0 18 18 28 39 17 34 20 56 13 94 -3 16 -19 5 -52 -35z"/>
<path d="M2554 1325 c0 -71 1 -99 3 -62 2 37 2 96 0 130 -2 34 -3 4 -3 -68z"/>
<path d="M1381 1356 c-10 -12 -8 -20 10 -40 13 -14 29 -26 36 -26 15 0 18 26
3 35 -5 3 -10 15 -10 26 0 22 -22 25 -39 5z"/>
<path d="M1255 1187 c-29 -48 -29 -127 0 -127 10 0 12 13 9 48 -3 40 0 52 16
67 11 10 20 24 20 32 0 24 -25 13 -45 -20z"/>
<path d="M1345 1119 c6 -76 12 -93 31 -81 15 9 -7 144 -24 150 -10 3 -11 -14
-7 -69z"/>
<path d="M775 1061 c-8 -14 5 -62 16 -55 12 7 12 51 0 59 -5 3 -12 1 -16 -4z"/>
<path d="M2337 1063 c-2 -4 -8 -29 -11 -55 -4 -26 -11 -50 -17 -53 -5 -4 -9
-20 -9 -36 0 -52 22 -27 47 52 19 62 20 76 9 87 -8 8 -16 10 -19 5z"/>
<path d="M643 958 c31 -206 31 -205 12 -248 -26 -58 -34 -62 -94 -49 -29 6
-55 8 -59 4 -20 -20 101 -64 128 -47 22 14 70 113 70 146 0 30 -15 117 -32
189 -11 46 -32 50 -25 5z"/>
<path d="M2096 974 c-3 -9 -6 -31 -6 -51 0 -50 24 -37 28 15 3 41 -11 65 -22
36z"/>
<path d="M337 721 c-2 -10 -1 -25 4 -32 4 -8 3 -19 -3 -27 -8 -9 -8 -16 0 -24
16 -16 15 -28 -3 -28 -8 0 -15 -4 -15 -8 0 -16 -64 -73 -77 -68 -7 3 -13 -1
-13 -8 0 -7 -7 -20 -16 -27 -14 -12 -16 -6 -13 61 2 41 -1 82 -6 91 -16 26
-58 48 -111 58 -27 5 -57 13 -66 16 -13 5 -18 2 -18 -9 0 -17 29 -36 57 -36
10 0 31 -7 47 -15 15 -8 34 -15 41 -15 40 0 40 -98 0 -120 -13 -7 -31 -30 -41
-51 -9 -22 -20 -39 -24 -39 -20 0 -71 -101 -77 -151 l-6 -53 69 69 c38 39 111
108 163 155 52 47 102 93 112 103 11 9 21 17 23 17 2 0 6 -18 10 -40 12 -76
61 -60 77 25 10 55 1 128 -15 122 -6 -2 -11 -17 -11 -33 0 -22 -5 -30 -22 -32
-16 -2 -23 3 -28 26 -3 16 -5 33 -4 38 8 45 -22 78 -34 35z"/>
<path d="M1400 691 c0 -10 7 -21 15 -25 16 -6 19 3 9 28 -8 22 -24 20 -24 -3z"/>
<path d="M1425 591 c-3 -5 -1 -12 5 -16 5 -3 10 1 10 9 0 18 -6 21 -15 7z"/>
<path d="M1360 521 c-69 -8 -90 -15 -90 -33 0 -7 26 -8 79 -3 43 4 81 3 84 -2
3 -4 0 -30 -6 -56 -9 -42 -14 -48 -31 -43 -12 3 -61 17 -111 31 -49 15 -99 27
-109 28 -35 4 -28 -22 11 -39 53 -23 224 -66 239 -60 15 6 36 104 32 148 -3
37 -6 38 -98 29z"/>
<path d="M126 273 c-42 -42 -76 -81 -76 -85 0 -4 8 -8 18 -8 19 0 152 130 152
148 0 29 -24 15 -94 -55z"/>
<path d="M163 213 c-4 -10 -12 -22 -19 -28 -7 -5 -15 -25 -19 -42 -6 -29 -4
-33 15 -33 15 0 20 5 17 14 -4 9 2 17 14 21 10 4 19 13 19 21 0 18 29 18 36 0
6 -17 -52 -86 -73 -86 -7 0 -13 -6 -13 -12 0 -7 -5 -5 -11 5 -15 25 -32 10
-24 -22 13 -53 23 -52 91 16 63 61 66 66 61 100 -7 39 -22 54 -44 46 -7 -3
-13 0 -13 6 0 18 -30 13 -37 -6z"/>
<path d="M1140 210 c0 -13 26 -23 130 -50 47 -12 125 -33 173 -46 104 -28 120
-29 115 -8 -3 18 -117 58 -218 75 -36 7 -82 18 -104 25 -46 16 -96 18 -96 4z"/>
<path d="M1 108 c-1 -40 3 -68 9 -68 6 0 10 -9 10 -20 0 -13 7 -20 20 -20 20
0 20 0 -1 52 -11 28 -24 67 -28 87 -8 32 -9 28 -10 -31z"/>
<path d="M1265 71 c-3 -5 -1 -12 5 -16 5 -3 10 1 10 9 0 18 -6 21 -15 7z"/>
<path d="M248 3 c6 -2 18 -2 25 0 6 3 1 5 -13 5 -14 0 -19 -2 -12 -5z"/>
</g>
</svg>
