<?xml version="1.0" standalone="no"?>
<!DOCTYPE svg PUBLIC "-//W3C//DTD SVG 20010904//EN"
 "http://www.w3.org/TR/2001/REC-SVG-20010904/DTD/svg10.dtd">
<svg version="1.0" xmlns="http://www.w3.org/2000/svg"
 width="344.000000pt" height="256.000000pt" viewBox="0 0 344.000000 256.000000"
 preserveAspectRatio="xMidYMid meet">
<metadata>
Created by potrace 1.16, written by Peter Selinger 2001-2019
</metadata>
<g transform="translate(0.000000,256.000000) scale(0.100000,-0.100000)"
fill="#000000" stroke="none">
<path d="M2335 2480 c-4 -6 -8 -28 -10 -48 -5 -57 -21 -120 -35 -137 -9 -11
-32 -15 -79 -15 -84 0 -105 -6 -116 -33 -6 -12 -31 -35 -57 -52 -26 -16 -48
-37 -48 -45 0 -8 -5 -22 -10 -30 -8 -12 -13 -13 -29 -3 -15 9 -26 9 -50 0 -40
-15 -39 -27 2 -28 l32 -1 -33 -9 c-18 -6 -48 -19 -68 -29 -19 -11 -41 -20 -49
-20 -20 0 -19 -17 1 -28 11 -6 14 -16 10 -30 -6 -18 -10 -20 -25 -10 -20 12
-51 5 -51 -12 0 -6 14 -13 31 -17 l30 -6 -2 -106 c-3 -117 -10 -130 -66 -131
-43 0 -83 -19 -83 -40 0 -10 -7 -23 -15 -30 -12 -10 -15 -9 -15 4 0 9 -10 20
-23 25 -13 5 -29 16 -36 25 -16 19 -58 21 -115 4 -44 -13 -65 -32 -66 -60 0
-26 -11 -22 -58 18 -23 19 -52 36 -64 36 -13 0 -42 9 -65 19 -24 11 -47 19
-53 19 -5 0 -10 4 -10 8 0 14 104 11 120 -3 8 -7 32 -18 53 -23 34 -9 40 -8
64 14 14 13 29 24 33 24 5 0 16 20 27 45 10 25 24 45 31 45 6 0 12 5 12 11 0
8 6 7 17 -2 13 -11 17 -12 21 -1 3 10 8 9 23 -4 21 -19 49 -12 49 12 0 16 1
16 68 -2 20 -6 22 -3 22 30 0 32 -4 37 -36 51 -51 21 -74 19 -74 -5 0 -11 -7
-20 -15 -20 -8 0 -15 -6 -15 -14 0 -26 -21 -28 -41 -4 -12 12 -24 23 -27 23
-4 0 -6 6 -6 13 2 13 -37 44 -65 50 -51 12 -84 13 -113 3 -24 -9 -33 -8 -40 1
-6 10 -12 10 -26 1 -17 -10 -18 -9 -14 13 2 13 7 23 11 22 21 -2 30 5 36 32 6
26 10 30 28 24 12 -3 26 -10 32 -15 5 -5 14 -9 20 -9 14 1 56 37 59 52 2 7 8
26 15 42 12 31 9 56 -9 56 -5 0 -10 -6 -10 -14 0 -10 -14 -16 -42 -18 -39 -3
-44 -6 -53 -35 -11 -39 -39 -46 -29 -8 8 34 -19 34 -34 0 -7 -14 -19 -28 -27
-31 -10 -4 -15 -20 -15 -45 0 -45 -5 -47 -35 -15 -12 13 -26 25 -32 27 -6 2
-15 36 -18 74 -8 75 -12 88 -25 80 -9 -6 -21 29 -40 120 -15 67 -25 84 -41 68
-7 -7 -5 -23 7 -52 18 -45 14 -152 -6 -176 -6 -7 -6 -15 2 -23 19 -19 28 -14
28 18 0 19 5 30 14 30 21 0 30 -19 31 -61 0 -32 -1 -35 -17 -25 -13 8 -23 8
-38 -2 -15 -9 -26 -10 -41 -2 -40 22 -70 -5 -106 -95 -12 -29 -12 -28 -8 17 3
26 0 50 -5 53 -7 4 -7 13 0 25 8 15 6 23 -8 37 -10 10 -22 27 -26 38 -7 20 -8
20 -18 1 -8 -14 -8 -24 1 -37 14 -23 15 -59 1 -59 -5 0 -10 -7 -10 -15 0 -11
-8 -13 -32 -8 -22 4 -29 3 -24 -5 4 -7 4 -12 -1 -12 -9 0 -29 42 -39 83 -3 15
-10 27 -15 27 -5 0 -9 11 -9 25 0 27 -41 58 -48 36 -9 -28 -82 -91 -105 -91
-25 0 -46 -32 -48 -73 0 -21 -1 -21 -10 2 -5 14 -8 30 -5 36 6 16 -37 91 -49
86 -6 -2 -9 -14 -7 -25 3 -21 3 -21 -13 -1 -78 100 -83 105 -112 105 -26 0
-26 0 -6 -89 4 -16 2 -22 -6 -17 -7 5 -11 -6 -12 -36 0 -24 -2 -38 -4 -33 -1
6 -9 30 -16 55 -8 25 -24 55 -36 68 -13 13 -23 27 -23 32 0 6 -11 10 -24 10
-34 0 -24 -44 15 -60 33 -14 36 -22 14 -40 -11 -9 -14 -23 -9 -45 4 -26 2 -35
-12 -43 -16 -9 -16 -14 -6 -37 7 -14 12 -37 12 -50 0 -28 7 -30 47 -14 15 7
37 12 48 13 13 1 21 9 23 24 6 41 20 22 25 -35 3 -32 9 -71 13 -87 6 -27 6
-28 -15 -16 -12 6 -34 10 -49 8 -23 -3 -27 1 -30 25 -2 15 -7 27 -11 27 -17 0
-32 -30 -29 -57 l3 -28 89 -3 c88 -3 89 -3 81 20 -16 51 -32 189 -21 185 6 -2
14 -35 17 -74 9 -92 42 -158 64 -124 3 6 -4 25 -15 43 -13 22 -20 50 -20 85
l0 52 28 -15 c15 -7 35 -14 45 -14 11 0 17 -8 17 -25 0 -16 6 -25 16 -25 12 0
15 7 12 30 -6 38 9 50 21 17 5 -13 20 -31 34 -39 21 -15 55 -74 46 -81 -2 -2
-39 -1 -82 2 -56 4 -77 3 -77 -6 0 -17 23 -21 121 -25 65 -2 91 1 105 12 18
14 18 14 5 -3 -16 -20 -10 -119 7 -125 6 -2 27 -17 48 -33 43 -34 54 -36 54
-9 0 13 -12 28 -30 38 -16 9 -35 28 -42 41 -11 20 -10 25 10 41 21 17 21 19 5
29 -22 12 -13 24 11 15 10 -4 16 -16 15 -28 -3 -42 1 -53 26 -64 37 -17 48
-15 42 9 -3 12 -1 30 6 40 9 15 8 21 -8 33 -18 14 -18 15 -2 16 9 0 17 8 17
18 0 9 5 24 11 32 9 12 10 11 6 -7 -3 -14 3 -33 14 -47 10 -13 19 -31 19 -39
0 -13 27 -26 53 -27 4 0 7 20 7 44 0 36 -4 45 -21 49 -12 3 -19 11 -17 18 5
15 108 22 108 8 0 -5 -6 -9 -14 -9 -25 0 -48 -31 -41 -54 4 -12 6 -30 6 -42 0
-12 10 -31 24 -44 21 -19 27 -21 40 -10 14 11 23 11 53 0 20 -7 43 -21 49 -30
7 -10 24 -21 38 -24 28 -7 33 -21 11 -29 -16 -6 -76 19 -76 32 0 13 -49 31
-82 31 -17 0 -39 6 -47 14 -21 17 -81 29 -81 15 0 -22 -46 -74 -65 -74 -11 0
-24 -10 -30 -22 -9 -22 -51 -43 -83 -43 -9 0 -35 -9 -59 -21 -35 -17 -42 -25
-38 -40 12 -38 -52 -12 -108 44 -36 36 -57 41 -57 12 0 -7 6 -16 13 -18 21 -9
-14 -27 -53 -27 -46 -1 -135 -25 -135 -36 0 -12 23 -12 114 -4 55 6 78 12 88
26 12 17 13 17 13 -4 0 -14 -11 -26 -32 -37 -43 -21 -128 -99 -128 -118 0 -9
-17 -19 -42 -26 -38 -9 -211 -31 -253 -31 -8 0 -15 -9 -15 -20 0 -22 -9 -22
147 0 39 5 95 10 123 10 44 0 52 -3 60 -24 5 -14 19 -30 30 -36 20 -11 20 -13
6 -28 -8 -9 -34 -36 -56 -60 -39 -42 -54 -91 -27 -93 6 0 2 -4 -10 -9 -23 -9
-32 -40 -13 -40 6 0 10 -36 10 -87 0 -91 15 -165 43 -220 25 -47 21 -53 -8
-11 -14 20 -25 48 -25 60 0 13 -5 29 -12 36 -7 7 -14 51 -16 102 -4 75 -7 88
-18 79 -18 -15 -19 -129 -1 -172 8 -18 17 -48 21 -68 9 -49 90 -155 157 -205
30 -22 88 -56 129 -75 74 -34 77 -34 215 -34 131 1 192 9 267 37 15 6 47 11
70 13 52 3 193 31 267 52 50 15 158 33 206 35 33 1 153 -14 162 -21 10 -8 45
-73 40 -77 -3 -3 -192 -23 -267 -27 -37 -3 -45 -6 -45 -23 0 -16 6 -19 45 -17
57 4 224 21 270 28 74 12 80 15 80 36 0 18 2 19 15 5 25 -24 53 -29 77 -12 12
9 30 16 39 16 9 0 22 7 29 15 10 12 24 14 63 9 40 -6 49 -4 45 7 -2 7 -21 18
-41 22 -28 7 -37 14 -37 29 0 17 -5 20 -27 15 -20 -4 -36 1 -55 18 -16 13 -28
28 -28 33 0 5 -16 22 -35 36 -19 15 -35 34 -35 43 0 14 3 14 20 -2 22 -20 23
-18 23 40 0 69 -2 75 -28 75 -18 0 -28 7 -35 26 -8 20 -15 25 -31 21 -15 -4
-29 2 -45 20 -17 18 -29 23 -41 18 -10 -5 -26 -7 -35 -6 -23 3 -23 -15 0 -28
14 -9 15 -12 2 -20 -12 -8 -10 -14 13 -35 28 -26 35 -46 16 -46 -5 0 -8 4 -5
9 3 5 -3 11 -14 14 -11 3 -18 2 -15 -3 3 -4 -2 -10 -10 -14 -22 -8 -18 -23 8
-31 l22 -8 -23 -4 c-15 -3 -22 -10 -18 -19 4 -10 -3 -14 -28 -14 -19 0 -42 -3
-52 -7 -14 -5 -16 -3 -11 11 8 20 -13 46 -37 46 -9 0 -16 7 -16 15 0 25 39 17
52 -10 13 -30 16 -30 48 -8 36 24 36 23 21 33 -12 7 -11 11 2 25 21 21 13 35
-19 35 -28 0 -30 7 -7 32 15 16 15 21 3 28 -8 5 -17 7 -21 5 -3 -3 -6 9 -5 25
1 32 10 39 20 15 3 -8 13 -15 22 -15 12 0 14 5 8 18 -4 9 -8 43 -9 74 -1 42 2
59 13 63 20 7 30 -4 13 -14 -23 -14 5 -49 49 -61 24 -6 40 -17 40 -26 0 -34
26 -94 41 -94 12 0 15 11 13 57 -1 31 3 64 9 74 14 22 -6 49 -36 49 -16 0 -18
3 -9 12 9 9 17 9 34 1 38 -19 78 -22 78 -7 0 8 7 14 15 14 9 0 18 7 22 15 5
14 7 14 24 0 10 -10 25 -14 37 -11 14 5 26 -1 41 -20 16 -21 31 -27 72 -29 29
-2 55 -9 59 -15 9 -14 -10 -110 -21 -110 -4 0 -7 12 -6 26 1 15 -4 29 -10 31
-9 3 -13 -10 -13 -46 0 -41 3 -51 17 -51 15 0 15 -2 0 -17 -8 -10 -17 -29 -19
-43 -3 -24 -1 -25 50 -25 36 1 57 6 70 19 16 16 16 18 -2 31 -17 13 -17 16 7
97 26 84 52 160 71 211 8 20 18 27 37 27 14 0 34 7 45 15 28 21 34 18 29 -12
-3 -16 -7 -70 -9 -120 -3 -70 0 -95 10 -104 19 -16 17 -29 -4 -29 -10 0 -23
-5 -29 -11 -7 -7 -40 -11 -82 -10 -74 2 -93 -11 -45 -29 44 -17 126 -12 162
10 33 20 72 27 72 12 0 -5 12 -14 27 -21 26 -12 42 -3 43 22 0 12 38 8 47 -6
12 -18 89 -57 112 -57 32 0 25 17 -14 36 -19 9 -35 20 -35 25 0 5 -7 9 -16 9
-9 0 -14 6 -12 12 3 7 29 16 59 21 56 8 75 18 65 36 -9 14 -107 2 -129 -17
-21 -18 -31 -11 -23 16 4 12 28 27 63 40 48 18 58 19 70 6 8 -8 23 -19 34 -24
10 -6 19 -17 19 -25 0 -20 10 -19 26 3 7 9 17 18 23 18 24 3 25 5 11 14 -18
11 -13 16 24 26 22 5 27 4 21 -6 -12 -20 56 22 82 50 35 39 37 77 10 144 -17
40 -33 64 -53 75 -16 9 -32 19 -35 24 -3 4 -16 6 -29 5 -20 -3 -25 2 -30 32
-4 19 -12 45 -18 57 -21 38 -15 48 32 51 29 1 48 -3 56 -13 7 -8 20 -15 29
-15 24 0 77 -59 86 -95 14 -61 17 -141 5 -192 -15 -69 -55 -139 -83 -147 -18
-5 -19 -8 -7 -16 12 -7 9 -14 -18 -38 -22 -19 -30 -35 -26 -46 4 -10 1 -16 -7
-16 -10 0 -10 -3 -2 -11 13 -13 64 3 96 29 9 8 17 10 17 5 0 -6 -7 -14 -16
-17 -11 -4 -14 -13 -10 -31 5 -20 3 -25 -13 -25 -10 0 -38 -9 -62 -20 -57 -25
-253 -29 -285 -5 -10 8 -27 15 -37 15 -31 0 -15 -31 28 -54 36 -19 51 -20 150
-15 98 5 163 19 225 49 9 4 30 11 48 15 17 3 36 14 41 22 7 14 13 14 57 -2 27
-10 56 -23 64 -30 28 -21 89 -49 95 -43 12 12 -7 34 -45 52 -22 11 -40 26 -40
35 0 11 3 12 11 4 8 -8 20 -7 45 3 18 8 50 14 71 14 28 0 45 7 62 26 29 30 38
23 44 -31 2 -22 4 5 4 60 1 86 -1 94 -9 58 -8 -39 -12 -43 -39 -43 -19 0 -29
-5 -29 -15 0 -9 -9 -15 -24 -15 -12 0 -54 -11 -92 -25 -58 -21 -74 -23 -108
-14 -61 16 -88 38 -83 66 2 13 1 23 -3 23 -4 0 -10 6 -13 13 -4 10 2 13 19 9
13 -2 24 0 24 6 0 28 38 32 102 11 65 -21 214 -42 229 -33 5 3 2 12 -7 21 -10
10 -43 19 -93 23 -42 4 -98 15 -125 25 -51 20 -50 13 -23 95 18 57 14 177 -8
250 -34 110 -135 189 -242 190 -41 0 -57 -5 -73 -22 -11 -12 -20 -17 -20 -11
0 7 -8 13 -17 15 -15 3 -15 5 2 22 17 16 29 18 103 12 70 -5 92 -11 126 -34
l42 -29 2 26 c2 23 -5 29 -56 48 -56 21 -183 36 -221 26 -10 -3 -22 -14 -25
-26 -3 -12 -8 -18 -11 -15 -4 3 -2 15 4 26 6 12 11 39 11 61 l0 41 138 0 138
0 0 -47 c-1 -51 -7 -46 87 -67 21 -5 26 -10 19 -19 -14 -17 -30 -103 -22 -117
8 -12 30 55 30 92 0 13 5 29 11 35 16 16 -16 42 -62 49 -38 6 -39 8 -39 45 0
22 3 39 8 39 13 0 14 111 0 128 -11 14 -10 15 7 8 29 -12 185 -28 223 -24 l33
4 -7 -105 c-3 -59 -8 -109 -11 -113 -2 -5 -28 -8 -58 -8 -30 0 -57 -5 -60 -10
-8 -14 38 -30 85 -30 50 0 56 12 65 120 6 89 22 169 36 184 5 6 9 30 9 55 1
43 2 45 15 27 14 -18 15 -15 14 40 l-1 59 -12 -35 c-10 -29 -18 -36 -44 -38
-25 -3 -31 0 -26 12 3 9 14 16 24 16 20 0 30 19 30 56 0 28 -2 29 -42 8 -24
-12 -29 -21 -25 -40 3 -19 0 -24 -17 -24 -28 0 -43 11 -47 35 -5 25 -42 27
-47 3 -2 -11 3 -18 12 -18 25 0 19 -19 -9 -30 -14 -5 -25 -17 -25 -26 0 -10 5
-14 15 -10 28 10 15 -13 -16 -28 -26 -13 -30 -13 -25 -1 3 8 0 14 -6 12 -6 -1
-13 4 -15 12 -4 9 0 11 15 7 17 -6 20 -1 24 33 5 53 1 61 -28 61 -28 0 -28 1
-13 34 11 24 13 24 134 24 105 0 122 -2 121 -15 0 -9 5 -18 12 -20 9 -4 12 17
10 84 -1 67 -3 75 -5 31 -2 -32 -6 -58 -9 -58 -3 0 -16 7 -30 16 -19 13 -22
19 -13 31 7 7 9 16 5 20 -9 9 -112 -25 -126 -42 -14 -17 -50 -3 -50 20 0 17
-37 20 -60 5 -18 -11 -5 -27 30 -33 14 -2 -1 -5 -32 -6 -31 0 -60 4 -63 9 -10
16 -25 11 -25 -8 0 -24 -31 -52 -57 -52 -21 0 -53 -29 -53 -48 0 -23 -18 -12
-40 23 -12 19 -28 35 -36 35 -11 0 -13 9 -8 40 4 25 3 40 -4 40 -5 0 -12 10
-16 23 -9 38 -44 51 -148 55 -91 4 -98 6 -98 25 0 27 -73 97 -102 97 -13 0
-43 14 -67 30 -41 28 -45 29 -57 12 -12 -15 -13 -14 -14 13 0 37 -14 62 -25
45z m70 -127 c0 -16 4 -40 8 -55 7 -26 5 -28 -21 -28 -33 0 -56 33 -49 71 3
20 5 19 6 -7 0 -20 7 -34 18 -38 23 -9 39 9 24 28 -7 8 -10 24 -6 36 9 29 20
25 20 -7z m44 3 c6 -7 25 -16 41 -19 27 -6 47 -21 77 -57 10 -13 2 -15 -52
-12 l-63 4 -7 36 c-4 20 -11 43 -17 50 -7 8 -7 12 0 12 5 0 15 -6 21 -14z
m-168 -249 c-11 -26 -23 -47 -25 -47 -9 0 6 124 15 130 4 3 11 19 16 35 7 27
8 26 11 -21 2 -34 -4 -66 -17 -97z m264 123 c292 -17 280 -13 284 -108 l2 -54
-113 6 c-62 4 -144 9 -181 12 -53 4 -68 2 -66 -8 4 -31 -3 -47 -27 -63 -38
-24 -56 -14 -41 24 6 17 9 32 7 35 -13 12 -59 -8 -69 -30 -6 -13 -16 -24 -23
-25 -7 0 -28 -18 -45 -41 -19 -23 -33 -33 -33 -25 0 24 61 117 76 117 20 0 27
43 20 109 -7 61 -2 74 23 66 9 -2 93 -9 186 -15z m-449 -115 c-22 -17 -46 -20
-46 -6 0 10 22 18 50 20 11 0 10 -4 -4 -14z m102 -27 c-6 -18 -28 -21 -28 -4
0 9 7 16 16 16 9 0 14 -5 12 -12z m930 -5 c2 -7 -4 -13 -12 -13 -9 0 -25 -15
-36 -32 -23 -37 -23 -83 0 -83 10 0 14 8 12 22 -2 15 6 27 23 39 14 9 28 14
31 12 2 -3 -1 -26 -8 -52 -11 -43 -14 -46 -45 -46 -18 0 -33 4 -33 10 0 10
-79 34 -87 26 -3 -2 -6 -23 -7 -46 -2 -23 -7 -45 -13 -48 -16 -11 -33 -49 -33
-76 0 -30 -8 -36 -35 -26 -18 7 -18 9 -3 15 21 8 51 79 54 125 3 74 4 80 19
80 8 0 15 5 15 10 0 21 2 25 17 43 9 9 25 17 35 17 11 0 32 9 46 20 27 22 53
23 60 3z m-2825 -20 c-7 -3 -13 -16 -13 -30 0 -31 -5 -28 -14 9 -5 20 -2 27
11 30 21 5 33 -3 16 -9z m-103 -3 c0 -5 -2 -10 -4 -10 -3 0 -8 5 -11 10 -3 6
-1 10 4 10 6 0 11 -4 11 -10z m860 -11 c0 -6 -4 -7 -10 -4 -5 3 -10 11 -10 16
0 6 5 7 10 4 6 -3 10 -11 10 -16z m-120 1 c0 -5 -4 -10 -10 -10 -5 0 -10 5
-10 10 0 6 5 10 10 10 6 0 10 -4 10 -10z m70 -10 c0 -13 -5 -18 -15 -14 -12 5
-13 10 -4 20 15 19 19 18 19 -6z m1057 3 c3 -7 -7 -11 -24 -11 -15 1 -38 -2
-51 -6 -13 -5 -22 -3 -22 3 0 6 3 10 8 9 4 0 14 1 22 5 48 18 61 18 67 0z
m-1567 -23 c0 -5 -2 -10 -4 -10 -3 0 -8 5 -11 10 -3 6 -1 10 4 10 6 0 11 -4
11 -10z m2308 -6 c-14 -14 -20 -14 -59 0 l-44 15 60 1 c54 0 58 -1 43 -16z
m-2114 -34 c-6 -5 -24 21 -24 34 0 6 6 1 14 -10 8 -10 12 -21 10 -24z m1145
23 c0 -5 -4 -17 -9 -28 -8 -18 -9 -17 -9 8 -1 15 4 27 9 27 6 0 10 -3 9 -7z
m-830 -23 c20 0 61 -27 61 -41 0 -5 -9 -4 -19 3 -15 9 -23 9 -35 -1 -14 -12
-16 -10 -16 8 0 11 -4 21 -10 21 -5 0 -10 8 -9 18 0 10 3 12 6 5 2 -7 12 -13
22 -13z m1621 -32 c37 -3 45 -7 50 -27 4 -16 25 -34 74 -59 38 -20 64 -38 56
-40 -11 -4 -117 44 -130 59 -15 17 -123 61 -140 56 -11 -3 -20 -1 -20 4 0 5 8
9 18 9 14 0 14 2 3 9 -8 6 -11 16 -7 27 6 16 9 16 29 -9 17 -20 32 -27 67 -29z
m-1691 23 c11 -11 27 -21 38 -24 17 -4 17 -4 -2 -11 -11 -4 -27 -11 -36 -16
-12 -6 -20 0 -33 26 -9 19 -16 37 -16 39 0 12 32 3 49 -14z m1961 -12 c0 -10
-4 -19 -10 -19 -5 0 -10 12 -10 26 0 14 4 23 10 19 6 -3 10 -15 10 -26z
m-2353 15 c-3 -3 -12 -4 -19 -1 -8 3 -5 6 6 6 11 1 17 -2 13 -5z m1443 -9 c0
-8 -2 -15 -4 -15 -2 0 -6 7 -10 15 -3 8 -1 15 4 15 6 0 10 -7 10 -15z m220 3
c0 -5 -11 -8 -23 -8 -13 0 -45 -6 -72 -14 l-47 -15 22 24 c19 20 32 24 71 22
27 -1 49 -5 49 -9z m1150 -38 c11 0 20 -4 20 -9 0 -5 2 -15 5 -23 3 -7 1 -19
-3 -26 -10 -14 -42 -6 -42 12 0 6 -9 22 -20 36 -27 34 -27 61 0 32 12 -12 30
-22 40 -22z m-2720 10 c0 -5 -7 -10 -15 -10 -8 0 -15 5 -15 10 0 6 7 10 15 10
8 0 15 -4 15 -10z m140 0 c0 -5 -12 -10 -27 -10 -28 0 -73 -35 -73 -56 0 -7
-5 -16 -11 -20 -9 -5 -10 1 -5 21 6 22 4 26 -8 22 -25 -10 -19 8 7 21 58 28
117 39 117 22z m40 -10 c0 -5 -4 -10 -10 -10 -5 0 -10 5 -10 10 0 6 5 10 10
10 6 0 10 -4 10 -10z m1048 -25 c-20 -19 -38 -40 -41 -47 -2 -7 -8 -10 -12 -6
-14 13 6 43 42 64 52 30 53 29 11 -11z m927 -3 c29 -24 29 -25 5 -17 -14 4
-41 19 -60 32 l-35 24 30 -7 c17 -4 44 -18 60 -32z m-565 18 c0 -5 -2 -10 -4
-10 -3 0 -8 5 -11 10 -3 6 -1 10 4 10 6 0 11 -4 11 -10z m160 -16 c0 -8 -4
-12 -10 -9 -5 3 -10 10 -10 16 0 5 5 9 10 9 6 0 10 -7 10 -16z m677 -6 c-3 -8
-6 -5 -6 6 -1 11 2 17 5 13 3 -3 4 -12 1 -19z m-1902 -3 c6 0 10 -9 10 -20 0
-18 -7 -20 -54 -20 -40 0 -56 4 -59 15 -3 11 -2 12 8 4 17 -16 47 -6 53 18 4
14 10 17 19 12 7 -5 18 -9 23 -9z m1745 8 c0 -5 -5 -15 -10 -23 -8 -12 -10
-11 -10 8 0 12 5 22 10 22 6 0 10 -3 10 -7z m-1663 -45 c-3 -7 -5 -2 -5 12 0
14 2 19 5 13 2 -7 2 -19 0 -25z m1024 6 c19 -17 21 -17 49 0 26 15 30 15 30 2
0 -9 7 -16 15 -16 22 0 18 -31 -5 -37 -11 -3 -20 -9 -20 -13 0 -4 -12 -12 -26
-19 -23 -10 -25 -10 -19 9 4 11 2 20 -4 20 -6 0 -11 7 -11 15 0 15 -29 35 -51
35 -6 0 -9 -8 -6 -20 3 -11 1 -22 -3 -25 -13 -8 -40 6 -40 20 0 7 -5 15 -12
17 -7 3 -9 12 -5 22 6 15 15 18 48 13 22 -3 49 -13 60 -23z m169 15 c0 -6 -7
-17 -15 -26 -8 -8 -13 -19 -10 -24 4 -5 1 -9 -4 -9 -14 0 -14 13 1 45 11 25
28 34 28 14z m155 1 c3 -5 1 -10 -4 -10 -6 0 -11 5 -11 10 0 6 2 10 4 10 3 0
8 -4 11 -10z m520 0 c3 -5 1 -10 -4 -10 -6 0 -11 5 -11 10 0 6 2 10 4 10 3 0
8 -4 11 -10z m-2485 -10 c0 -5 -5 -10 -11 -10 -5 0 -7 5 -4 10 3 6 8 10 11 10
2 0 4 -4 4 -10z m1269 -13 c-22 -17 -39 -51 -39 -81 0 -37 13 -32 32 14 19 46
48 53 83 20 11 -11 32 -21 45 -22 24 -3 25 -1 22 41 -3 30 0 41 7 37 6 -4 11
-23 11 -42 0 -35 15 -45 37 -23 6 6 26 9 44 7 32 -3 31 -4 -26 -22 -32 -10
-86 -22 -120 -27 -33 -5 -67 -12 -75 -16 -8 -3 -19 -5 -24 -4 -9 2 -26 -18
-26 -32 0 -5 5 -5 10 -2 6 3 10 1 10 -4 0 -6 7 -11 15 -11 8 0 15 7 15 15 0 8
5 15 10 15 30 0 -17 -77 -55 -91 -16 -6 -72 -12 -122 -14 -73 -4 -93 -2 -93 9
0 8 11 12 30 11 18 -1 30 3 30 10 0 16 36 40 73 49 16 4 26 12 24 19 -2 7 -10
11 -17 9 -6 -1 -10 3 -8 10 3 7 14 14 26 16 15 2 22 10 22 25 0 23 35 87 53
99 18 11 23 -3 6 -15z m1170 -47 c1 -20 -1 -22 -9 -10 -8 13 -11 11 -16 -7 -5
-18 -14 -23 -41 -23 -23 0 -33 4 -30 13 2 6 11 11 20 9 25 -4 69 38 56 54 -6
7 -7 19 -3 26 9 14 21 -19 23 -62z m-1079 51 c0 -5 -9 -7 -20 -4 -11 3 -20 7
-20 9 0 2 9 4 20 4 11 0 20 -4 20 -9z m-945 -11 c3 -5 1 -10 -4 -10 -6 0 -11
5 -11 10 0 6 2 10 4 10 3 0 8 -4 11 -10z m1594 -50 c7 -25 13 -53 15 -62 1 -9
9 -25 18 -35 10 -11 14 -28 11 -45 -11 -57 -39 -25 -46 52 -3 30 -9 77 -15
103 -11 58 0 49 17 -13z m-1349 -1 c-33 -29 -52 -39 -73 -37 -16 2 -32 -3 -37
-12 -8 -13 -10 -13 -10 1 0 9 14 30 31 48 26 28 33 30 46 19 17 -14 17 -14 52
13 44 35 36 9 -9 -32z m717 29 c-3 -8 -6 -5 -6 6 -1 11 2 17 5 13 3 -3 4 -12
1 -19z m-1237 8 c0 -2 -7 -7 -16 -10 -8 -3 -12 -2 -9 4 6 10 25 14 25 6z m267
-44 c53 -28 63 -28 63 1 1 21 1 21 15 3 23 -30 8 -39 -56 -32 -35 3 -61 2 -64
-4 -11 -18 -27 2 -21 26 4 14 2 24 -4 24 -5 0 -10 5 -10 10 0 11 5 9 77 -28z
m-137 7 c0 -6 -4 -7 -10 -4 -5 3 -10 11 -10 16 0 6 5 7 10 4 6 -3 10 -11 10
-16z m260 6 c0 -8 -4 -15 -10 -15 -5 0 -10 7 -10 15 0 8 5 15 10 15 6 0 10 -7
10 -15z m1307 -8 c11 -13 20 -38 20 -56 0 -17 -3 -27 -7 -21 -4 7 -14 7 -31 1
-13 -5 -18 -10 -11 -10 6 -1 12 -8 12 -16 0 -13 -4 -14 -21 -4 -17 9 -20 8
-14 -2 6 -9 -1 -11 -28 -6 -21 3 -37 2 -37 -2 0 -4 -26 -6 -57 -3 -56 4 -83
20 -83 46 0 6 6 2 12 -8 10 -18 11 -18 27 3 9 12 29 23 43 25 15 1 33 8 42 15
12 10 14 9 9 -10 -4 -16 -2 -20 8 -17 8 3 13 13 13 22 -1 9 4 16 12 16 8 0 14
-3 14 -7 0 -5 11 -13 25 -20 22 -10 26 -9 31 12 3 13 1 33 -6 44 -14 28 1 27
27 -2z m277 7 c17 -16 22 -54 8 -54 -4 0 -15 16 -24 35 -17 37 -10 45 16 19z
m-1370 -3 c10 -16 -44 -71 -70 -71 -35 0 -29 21 14 52 41 30 48 32 56 19z
m-594 -15 c0 -3 -4 -8 -10 -11 -5 -3 -10 -1 -10 4 0 6 5 11 10 11 6 0 10 -2
10 -4z m2170 -6 c0 -5 -4 -10 -10 -10 -5 0 -10 5 -10 10 0 6 5 10 10 10 6 0
10 -4 10 -10z m-410 -10 c0 -5 -4 -10 -10 -10 -5 0 -10 5 -10 10 0 6 5 10 10
10 6 0 10 -4 10 -10z m40 -23 c0 -18 -7 -42 -16 -53 -14 -17 -15 -17 -10 -1 3
10 6 34 6 53 0 19 5 34 10 34 6 0 10 -15 10 -33z m276 24 c-10 -15 -76 -19
-76 -4 0 9 14 13 41 13 22 0 38 -4 35 -9z m-316 -25 c0 -3 -4 -8 -10 -11 -5
-3 -10 -1 -10 4 0 6 5 11 10 11 6 0 10 -2 10 -4z m-500 -26 c0 -5 -4 -10 -10
-10 -5 0 -10 5 -10 10 0 6 5 10 10 10 6 0 10 -4 10 -10z m140 2 c0 -20 -27
-43 -43 -36 -23 9 -22 24 3 24 11 0 20 5 20 10 0 6 5 10 10 10 6 0 10 -4 10
-8z m-186 -17 c-5 -12 -10 -13 -20 -4 -19 15 -18 19 6 19 13 0 18 -5 14 -15z
m750 -36 c13 -26 13 -31 0 -36 -16 -6 -20 -53 -4 -53 6 0 10 -7 10 -16 0 -11
-5 -14 -16 -10 -9 3 -20 6 -25 6 -5 0 -9 9 -9 19 0 11 -5 23 -10 26 -15 10 8
36 29 33 17 -3 19 13 6 45 -12 29 3 19 19 -14z m-296 -24 c9 -9 -35 -45 -55
-45 -25 0 -66 38 -56 53 5 8 102 2 111 -8z m-1464 -37 c-9 -56 -21 -78 -43
-78 -16 0 -15 6 12 60 17 33 32 60 34 60 2 0 0 -19 -3 -42z m241 -14 c0 -12
-7 -19 -20 -19 -15 0 -21 8 -23 34 -3 34 -3 34 20 19 13 -8 23 -24 23 -34z
m-431 -9 c3 -8 1 -15 -4 -15 -6 0 -10 7 -10 15 0 8 2 15 4 15 2 0 6 -7 10 -15z
m1386 5 c0 -5 -5 -10 -11 -10 -5 0 -7 5 -4 10 3 6 8 10 11 10 2 0 4 -4 4 -10z
m-1007 -22 c12 -13 36 -33 52 -45 16 -13 24 -23 18 -23 -12 0 -75 49 -81 63
-2 4 -12 7 -23 7 -10 0 -19 5 -19 10 0 18 28 11 53 -12z m371 13 c3 -4 24 -11
46 -15 40 -6 56 -25 23 -27 -10 -1 -30 -3 -45 -5 -21 -2 -28 1 -28 15 0 9 -5
22 -12 29 -9 9 -9 12 -1 12 7 0 14 -4 17 -9z m1060 -28 c6 -23 5 -37 -4 -48
-10 -12 -16 -7 -36 33 -13 26 -24 48 -24 50 0 2 12 2 27 0 21 -2 29 -10 37
-35z m-237 -17 c17 -1 21 -6 18 -18 -3 -10 -8 -27 -11 -39 -3 -12 -11 -18 -19
-15 -7 2 -16 -2 -19 -10 -3 -8 -12 -14 -19 -14 -8 0 -26 -28 -41 -62 -29 -67
-32 -83 -16 -83 6 0 10 -3 10 -7 0 -36 -1 -45 -9 -57 -8 -12 -12 -12 -25 -2
-13 11 -17 11 -21 0 -2 -8 -9 -27 -15 -42 -9 -25 -8 -29 10 -34 34 -9 23 -26
-12 -19 -17 3 -34 8 -37 11 -2 3 5 25 17 49 12 24 22 48 22 55 0 6 5 19 10 29
19 32 81 195 76 199 -12 12 -61 -15 -64 -36 -2 -12 -10 -25 -18 -28 -8 -3 -11
-10 -7 -16 4 -7 0 -8 -13 -3 -10 5 -28 11 -39 14 -36 9 -45 24 -45 73 0 37 4
49 15 49 11 0 15 -12 15 -45 0 -37 4 -47 26 -61 31 -21 40 -12 49 44 6 35 4
42 -9 42 -33 0 -7 54 29 62 11 2 43 -5 70 -16 28 -10 60 -20 72 -20z m128 36
c13 -9 32 -39 51 -81 14 -31 14 -35 0 -43 -9 -5 -16 -19 -16 -32 0 -14 -10
-28 -25 -36 -13 -7 -34 -34 -46 -59 -20 -42 -23 -44 -33 -27 -6 11 -22 31 -35
44 -25 27 -26 17 10 135 10 36 63 107 78 107 3 0 11 -4 16 -8z m-1735 -6 c0
-3 -4 -8 -10 -11 -5 -3 -10 -1 -10 4 0 6 5 11 10 11 6 0 10 -2 10 -4z m1180
-54 c-1 -16 -70 -83 -80 -77 -13 8 -50 -22 -50 -41 0 -7 5 -25 11 -41 6 -15
10 -30 10 -33 0 -3 6 -12 13 -20 18 -20 28 -67 17 -74 -5 -3 -14 14 -20 38 -6
24 -17 49 -26 56 -8 7 -15 20 -15 30 0 25 -22 40 -47 34 -29 -8 -72 25 -73 54
0 34 18 62 40 62 11 0 45 12 77 27 89 42 95 42 121 16 12 -13 22 -27 22 -31z
m136 21 c-3 -8 -6 -19 -6 -23 0 -11 -40 -34 -47 -27 -2 3 0 13 6 24 5 10 12
26 15 35 3 11 11 15 21 12 9 -4 14 -13 11 -21z m-1379 11 c-3 -3 -12 -4 -19
-1 -8 3 -5 6 6 6 11 1 17 -2 13 -5z m393 -28 c-7 -19 -5 -25 13 -34 36 -17 81
-30 106 -30 13 -1 31 -8 40 -16 10 -9 22 -16 28 -16 6 0 16 -6 22 -14 7 -8 26
-18 42 -21 28 -6 37 -19 21 -29 -16 -9 -12 -64 5 -70 12 -5 13 -9 3 -21 -20
-24 -5 -29 42 -16 38 11 43 16 45 43 2 26 -1 29 -17 25 -11 -3 -20 -2 -20 1 1
13 27 42 37 42 6 0 24 7 39 15 36 19 48 19 63 1 9 -11 8 -23 -4 -53 -9 -21
-13 -48 -10 -60 6 -27 -2 -29 -134 -37 -52 -3 -107 -13 -124 -21 -44 -22 -62
-19 -88 16 -13 16 -44 42 -69 57 -25 14 -49 32 -53 39 -11 19 -30 16 -55 -8
-12 -11 -26 -18 -31 -15 -9 6 -31 -36 -31 -59 0 -8 -4 -15 -9 -15 -5 0 -8 11
-8 25 0 14 4 25 9 25 5 0 8 6 5 13 -2 6 2 23 9 37 7 14 21 53 31 88 11 41 24
64 35 68 10 3 25 21 33 40 16 39 40 39 25 0z m914 18 c9 -24 4 -24 -18 -3 -16
16 -17 19 -4 19 9 0 19 -7 22 -16z m-1237 -20 c-3 -3 -12 -4 -19 -1 -8 3 -5 6
6 6 11 1 17 -2 13 -5z m643 -19 c13 -14 29 -25 36 -25 8 0 11 -6 8 -14 -8 -21
-44 -7 -55 20 -4 13 -13 24 -19 24 -5 0 -10 5 -10 10 0 17 15 11 40 -15z
m-684 8 c-7 -7 -76 -33 -88 -33 -16 0 -7 17 15 28 24 12 84 16 73 5z m253 -42
c-5 -25 -18 -50 -27 -57 -15 -11 -15 -16 -4 -34 12 -20 12 -21 -9 -15 -40 13
-170 9 -179 -5 -8 -14 -120 -25 -120 -12 0 5 19 9 42 10 23 1 46 6 51 11 14
14 0 42 -17 35 -8 -3 -29 1 -47 10 -17 9 -35 13 -40 11 -4 -3 -10 -1 -14 5 -3
6 0 12 7 14 7 2 43 13 80 25 38 12 111 23 165 27 54 3 102 9 107 15 15 14 16
7 5 -40z m328 43 c-3 -3 -12 -4 -19 -1 -8 3 -5 6 6 6 11 1 17 -2 13 -5z m1704
-10 c12 -15 11 -16 -11 -9 -46 14 -58 24 -29 25 15 0 33 -7 40 -16z m-1816 -5
c11 -17 2 -18 -19 -3 -17 12 -17 14 -4 14 9 0 20 -5 23 -11z m-575 -19 c0 -5
-4 -10 -10 -10 -5 0 -10 5 -10 10 0 6 5 10 10 10 6 0 10 -4 10 -10z m884 -11
c-8 -14 -24 -10 -24 6 0 9 6 12 15 9 8 -4 12 -10 9 -15z m519 -71 c3 -21 2
-38 -4 -38 -5 0 -9 5 -9 11 0 5 -5 7 -11 3 -7 -4 -7 -10 -1 -16 7 -7 7 -16 -1
-29 -16 -26 0 -36 30 -19 23 13 27 22 28 63 0 26 -3 47 -7 47 -5 0 -8 7 -8 15
0 23 28 18 45 -9 9 -14 18 -42 19 -63 3 -33 -1 -41 -23 -51 -14 -7 -31 -12
-38 -12 -7 0 -13 -4 -13 -8 0 -5 -12 -15 -26 -22 -22 -12 -25 -18 -19 -50 4
-19 11 -37 16 -38 5 -2 7 -8 4 -12 -3 -5 3 -14 14 -20 18 -9 21 -7 27 15 7 27
24 34 24 10 0 -8 -4 -15 -10 -15 -5 0 -10 -7 -10 -16 0 -9 7 -14 18 -12 9 2
29 -9 44 -25 30 -34 51 -28 42 11 -6 25 -6 26 8 8 10 -13 28 -20 52 -20 20 -1
34 -5 32 -11 -15 -39 -37 -101 -57 -162 -13 -40 -29 -73 -35 -73 -8 0 -6 13 7
40 10 21 19 46 19 54 0 8 5 18 10 21 6 3 10 17 10 30 0 13 5 27 10 30 7 4 7
13 0 26 -13 23 -30 25 -30 4 0 -8 -2 -15 -5 -15 -3 0 -22 7 -42 15 -19 8 -46
15 -60 15 -31 0 -102 72 -110 111 -3 16 -10 29 -16 29 -6 0 -42 -22 -81 -49
-39 -27 -89 -57 -111 -67 -22 -10 -43 -20 -47 -22 -5 -2 -8 3 -8 12 0 9 4 16
8 16 5 0 24 14 42 30 18 17 41 30 49 30 9 0 33 11 53 25 20 14 40 25 44 25 4
0 22 12 41 26 31 23 33 30 30 67 -4 39 7 74 27 88 5 4 6 24 3 45 -6 37 -5 38
7 14 7 -14 16 -42 19 -62z m1058 41 c37 -41 75 -147 66 -186 -3 -13 -6 -10
-11 12 -13 55 -60 150 -83 168 -21 17 -32 47 -16 47 4 0 23 -18 44 -41z
m-2501 17 c0 -3 -11 -17 -25 -32 -30 -33 -25 -43 9 -20 31 20 36 20 36 1 0 -8
5 -15 10 -15 18 0 10 -18 -10 -23 -11 -3 -20 -13 -20 -22 0 -12 5 -15 20 -10
11 4 20 2 20 -4 0 -6 -7 -11 -15 -11 -7 0 -18 -6 -22 -13 -4 -8 -23 -22 -40
-32 -18 -11 -33 -23 -33 -27 0 -4 -13 -8 -30 -8 -16 0 -30 4 -30 10 0 5 -12
13 -27 16 -51 12 -56 24 -23 55 16 16 37 29 45 29 14 0 17 4 19 33 2 28 116
99 116 73z m1054 -26 c17 -6 24 -14 20 -25 -4 -8 -2 -21 4 -28 9 -11 14 -97 6
-97 -7 0 -44 95 -44 114 0 12 -5 27 -12 34 -15 15 -8 15 26 2z m-97 -6 c-3 -3
-12 -4 -19 -1 -8 3 -5 6 6 6 11 1 17 -2 13 -5z m1257 -26 c9 -17 16 -35 16
-40 0 -13 -22 -9 -42 9 -19 17 -26 49 -8 38 6 -3 10 1 10 9 0 24 7 19 24 -16z
m-869 -58 c9 -19 14 -41 12 -50 -3 -12 -5 -11 -11 5 -4 11 -16 38 -27 60 -22
46 -26 83 -4 45 7 -14 21 -41 30 -60z m698 63 c-10 -26 -94 -135 -100 -129 -3
2 -2 22 2 43 5 31 15 44 53 70 55 38 53 38 45 16z m-388 -13 c-3 -5 -11 -10
-16 -10 -6 0 -7 5 -4 10 3 6 11 10 16 10 6 0 7 -4 4 -10z m531 -129 c4 -26 3
-41 -4 -41 -6 0 -10 8 -10 18 1 9 -6 33 -14 52 -9 19 -19 51 -22 70 -5 35 -5
35 19 -12 13 -25 27 -65 31 -87z m-626 109 c0 -5 -2 -10 -4 -10 -3 0 -8 5 -11
10 -3 6 -1 10 4 10 6 0 11 -4 11 -10z m-401 -42 c12 -35 10 -41 -11 -33 -9 4
-15 18 -14 35 1 39 11 38 25 -2z m145 0 c8 -43 1 -46 -18 -7 -19 39 -19 39 -2
39 7 0 16 -14 20 -32z m291 10 c-4 -13 -17 -43 -29 -67 -15 -33 -18 -45 -8
-48 17 -6 15 -23 -3 -23 -9 0 -20 -10 -25 -22 -8 -21 -9 -20 -9 10 -1 34 57
172 72 172 5 0 5 -10 2 -22z m165 13 c0 -6 -4 -13 -10 -16 -5 -3 -10 1 -10 9
0 9 5 16 10 16 6 0 10 -4 10 -9z m-1444 -37 c-1 -21 -5 -24 -25 -19 -26 7 -71
34 -71 44 0 3 22 4 49 3 45 -3 49 -6 47 -28z m904 -15 c0 -6 -4 -7 -10 -4 -5
3 -10 11 -10 16 0 6 5 7 10 4 6 -3 10 -11 10 -16z m-1057 -9 c4 -15 14 -20 41
-20 26 0 34 -4 30 -14 -4 -10 -29 -14 -99 -14 -85 -1 -95 1 -100 18 -7 22 1
40 16 40 6 0 7 -9 4 -20 -4 -14 -2 -20 9 -20 19 0 30 17 16 25 -22 14 -8 25
34 25 35 0 45 -4 49 -20z m347 -21 c0 -4 -7 -9 -15 -13 -8 -3 -15 -1 -15 4 0
5 -6 8 -12 6 -50 -16 -68 -16 -68 -1 0 9 6 15 13 14 30 -4 47 2 47 16 0 14 3
13 25 -2 13 -10 25 -21 25 -24z m1251 -30 c-13 -21 -21 -28 -21 -17 0 28 23
69 32 60 6 -6 1 -23 -11 -43z m389 -3 c0 -6 -7 -1 -15 10 -8 10 -14 26 -14 34
0 16 28 -28 29 -44z m-42 -6 c13 -25 29 -48 35 -53 7 -4 0 -5 -14 -1 -15 3
-30 1 -33 -5 -4 -6 -14 -11 -23 -11 -9 0 -31 -11 -50 -26 -37 -28 -39 -23 -19
51 29 110 63 124 104 45z m-778 30 c0 -5 -2 -10 -4 -10 -3 0 -8 5 -11 10 -3 6
-1 10 4 10 6 0 11 -4 11 -10z m-236 -25 c-6 -15 -9 -16 -41 -19 -29 -2 -26 22
4 27 15 2 31 5 35 6 4 0 5 -6 2 -14z m166 -5 c0 -5 -5 -10 -11 -10 -5 0 -7 5
-4 10 3 6 8 10 11 10 2 0 4 -4 4 -10z m-717 -14 c16 -12 14 -14 -19 -20 -34
-7 -88 -1 -109 13 -5 3 6 9 25 12 58 10 84 9 103 -5z m1431 6 c3 -5 1 -24 -4
-43 -5 -19 -11 -58 -13 -87 -3 -29 -8 -56 -11 -59 -3 -4 -6 -1 -6 5 0 7 -20
17 -45 23 -38 10 -45 15 -45 35 0 14 6 24 15 24 18 0 38 37 31 55 -3 8 7 23
22 34 29 22 48 26 56 13z m-1764 -26 c0 -16 -48 -28 -57 -14 -3 6 1 14 8 19
21 13 49 11 49 -5z m160 -6 c0 -5 -7 -7 -15 -4 -8 4 -12 10 -9 15 6 11 24 2
24 -11z m626 -5 c10 -39 5 -42 -106 -50 -109 -9 -115 -10 -128 -22 -20 -19
-31 -16 -38 12 -4 18 -12 24 -23 21 -70 -20 -170 -27 -469 -31 -199 -2 -359
-9 -383 -15 -41 -11 -129 -4 -129 10 0 14 51 21 205 30 83 5 162 11 177 14 15
4 29 3 31 -1 7 -11 261 -7 264 4 2 4 67 8 146 8 106 -1 150 3 172 14 25 12
100 21 247 29 22 2 29 -3 34 -23z m-1016 5 c11 -7 4 -10 -25 -10 -29 0 -36 3
-25 10 8 5 20 10 25 10 6 0 17 -5 25 -10z m2400 -34 c0 -2 -7 -6 -15 -10 -8
-3 -15 -1 -15 4 0 6 7 10 15 10 8 0 15 -2 15 -4z m-982 -36 c4 -12 2 -13 -9
-3 -8 7 -25 10 -37 6 -15 -4 -22 -1 -22 10 0 19 61 8 68 -13z m722 -4 c0 -19
2 -41 5 -48 4 -10 -11 -18 -52 -29 -48 -12 -58 -19 -58 -37 -1 -41 -13 -33
-20 14 -6 43 -4 49 22 71 15 13 40 29 56 34 15 6 27 15 27 20 0 5 5 9 10 9 6
0 10 -15 10 -34z m366 -28 c-8 -48 -14 -58 -31 -58 -12 0 -16 3 -9 8 10 6 26
46 41 101 9 35 9 0 -1 -51z m59 26 c-8 -20 -15 -46 -16 -58 0 -20 -1 -20 -8
-1 -8 20 17 95 32 95 4 0 0 -16 -8 -36z m-270 6 c3 -5 1 -10 -4 -10 -6 0 -11
5 -11 10 0 6 2 10 4 10 3 0 8 -4 11 -10z m45 0 c0 -5 -4 -10 -10 -10 -5 0 -10
5 -10 10 0 6 5 10 10 10 6 0 10 -4 10 -10z m-85 -20 c3 -5 1 -18 -4 -27 -6
-10 -11 -13 -11 -6 0 6 -3 18 -6 27 -7 17 11 22 21 6z m-1635 -25 c0 -10 -10
-15 -32 -15 -34 0 -29 14 7 23 11 3 21 5 23 6 1 0 2 -6 2 -14z m-447 -7 c-14
-18 -25 -67 -17 -79 3 -5 7 -34 8 -63 2 -34 9 -60 19 -71 10 -9 17 -30 17 -46
0 -26 -2 -28 -18 -18 -47 29 -76 116 -75 222 1 56 9 67 44 67 24 0 29 -3 22
-12z m307 -4 c0 -14 -3 -14 -15 -4 -8 7 -15 14 -15 16 0 2 7 4 15 4 8 0 15 -7
15 -16z m309 1 c2 -2 -2 -18 -8 -36 -15 -45 -14 -94 4 -109 18 -15 20 -37 4
-42 -6 -2 -12 -18 -13 -35 -3 -38 -24 -60 -54 -58 -27 2 -43 15 -18 15 9 0 15
4 12 9 -8 12 17 61 32 61 14 0 17 61 3 76 -5 5 -11 37 -13 72 l-4 63 25 -6
c14 -4 28 -8 30 -10z m-735 -17 c-10 -34 -6 -109 8 -126 11 -13 14 -11 19 19
5 23 6 13 6 -33 0 -38 5 -73 11 -81 9 -11 10 -22 2 -41 -5 -15 -10 -47 -10
-71 0 -24 -4 -55 -9 -69 l-10 -25 -40 20 c-23 11 -41 24 -41 29 0 6 -5 10 -10
10 -12 0 -67 59 -70 75 -1 6 -7 17 -14 25 -8 8 -19 33 -26 55 -7 22 -15 47
-18 55 -10 28 -11 99 -2 105 6 4 10 19 10 34 0 15 3 31 7 34 3 4 49 7 100 7
92 0 94 0 87 -22z m326 12 c0 -5 -4 -10 -10 -10 -5 0 -10 5 -10 10 0 6 5 10
10 10 6 0 10 -4 10 -10z m-150 -24 c0 -2 -9 -6 -20 -9 -11 -3 -20 -1 -20 4 0
5 9 9 20 9 11 0 20 -2 20 -4z m669 -33 c6 -21 16 -63 24 -93 10 -38 20 -58 35
-65 25 -11 31 -41 7 -31 -8 3 -21 9 -29 12 -8 3 -16 -3 -19 -16 -9 -34 -24
-15 -31 38 -3 27 -17 71 -31 98 -20 40 -22 50 -10 56 8 5 12 15 9 23 -4 10 0
15 15 15 15 0 23 -9 30 -37z m-429 7 c0 -5 -7 -10 -15 -10 -8 0 -15 -4 -15
-10 0 -5 7 -10 15 -10 8 0 15 -4 15 -10 0 -5 -4 -10 -10 -10 -5 0 -10 -7 -10
-15 0 -16 -14 -18 -45 -6 -19 8 -19 8 3 15 22 7 31 26 12 26 -5 0 -10 5 -10
10 0 6 7 10 15 10 8 0 15 5 15 10 0 6 7 10 15 10 8 0 15 -4 15 -10z m1790 0
c0 -5 -4 -10 -10 -10 -5 0 -10 5 -10 10 0 6 5 10 10 10 6 0 10 -4 10 -10z
m-2463 -22 c7 -6 11 -14 8 -17 -2 -4 4 -43 15 -85 10 -43 16 -85 13 -94 -4
-15 -3 -15 6 -2 9 13 11 13 11 -1 0 -9 13 -34 28 -55 15 -21 36 -56 45 -76 18
-38 51 -68 75 -68 7 0 30 -11 50 -25 20 -14 43 -25 52 -25 8 0 28 -7 44 -15
52 -28 143 -22 253 16 54 18 114 44 133 58 65 47 115 95 120 115 4 13 15 22
30 23 23 2 23 2 5 -7 -19 -9 -19 -9 3 -16 12 -3 22 -10 22 -15 0 -19 -138
-148 -185 -172 -99 -51 -288 -83 -400 -67 -85 12 -125 25 -187 58 -61 33 -102
68 -93 81 3 6 -10 37 -30 69 -65 106 -79 159 -76 295 1 45 2 48 24 41 12 -3
28 -11 34 -16z m543 -20 c0 -12 -6 -9 -26 13 -19 22 -19 22 4 8 12 -8 22 -17
22 -21z m1648 1 c-3 -8 -7 -3 -11 10 -4 17 -3 21 5 13 5 -5 8 -16 6 -23z
m-1368 -5 c0 -8 -10 -14 -22 -14 -13 0 -40 -3 -60 -6 -31 -5 -38 -4 -38 9 0
19 51 35 92 29 15 -2 28 -11 28 -18z m60 1 c0 -14 -4 -25 -10 -25 -5 0 -10 11
-10 25 0 14 5 25 10 25 6 0 10 -11 10 -25z m1760 11 c0 -3 -4 -8 -10 -11 -5
-3 -10 -1 -10 4 0 6 5 11 10 11 6 0 10 -2 10 -4z m-2125 -46 c-4 -13 -1 -22
10 -26 12 -5 13 -9 4 -20 -13 -16 -49 -19 -49 -5 0 5 -3 16 -6 25 -4 10 -1 16
9 16 8 0 17 7 21 15 8 23 18 18 11 -5z m523 -15 c14 -31 15 -48 3 -41 -12 8
-32 66 -22 66 4 0 13 -11 19 -25z m-200 -1 c21 -6 32 -34 12 -34 -5 0 -10 5
-10 10 0 6 -6 10 -14 10 -8 0 -18 5 -21 10 -7 11 0 12 33 4z m-378 -24 c0 -5
-4 -10 -10 -10 -5 0 -10 5 -10 10 0 6 5 10 10 10 6 0 10 -4 10 -10z m284 -5
c11 -8 29 -15 40 -15 12 0 28 -5 36 -11 12 -8 9 -9 -12 -5 -15 3 -29 2 -33 -3
-3 -6 -21 -3 -43 6 -45 18 -46 19 -37 32 9 15 26 13 49 -4z m456 -10 c0 -8 5
-15 10 -15 6 0 10 -7 10 -15 0 -21 -16 -19 -24 3 -3 9 -9 23 -12 30 -3 6 -1
12 5 12 6 0 11 -7 11 -15z m1490 -2 c0 -5 -11 -13 -25 -20 -14 -6 -25 -8 -25
-4 0 5 10 13 23 19 28 14 27 13 27 5z m-1301 -37 c10 -12 8 -13 -8 -9 -12 3
-21 9 -21 14 0 14 16 11 29 -5z m-759 -4 c0 -4 -10 -13 -22 -21 -23 -14 -23
-14 -4 8 20 22 26 25 26 13z m127 -33 c27 -17 31 -24 22 -35 -6 -8 -15 -11
-20 -8 -5 3 -9 -4 -9 -15 0 -12 -4 -21 -9 -21 -5 0 -11 -9 -14 -21 -3 -12 -10
-18 -15 -15 -5 3 -15 -1 -22 -9 -7 -8 -21 -15 -31 -15 -11 0 -19 -7 -19 -15 0
-18 -12 -19 -28 -3 -9 9 -12 8 -12 -6 0 -13 -5 -17 -19 -13 -12 3 -22 -1 -26
-11 -5 -14 -7 -15 -16 -2 -8 11 -12 12 -16 3 -7 -20 -31 -15 -38 7 -4 12 0 26
9 36 18 17 21 44 6 44 -26 0 -6 20 25 26 19 3 38 10 41 15 3 5 12 9 20 9 12 0
13 -4 4 -21 -13 -23 -6 -54 10 -44 6 4 9 16 8 28 -2 12 1 24 7 27 5 3 10 -4
10 -15 0 -11 8 -21 18 -23 24 -5 21 9 -8 40 -29 31 -31 38 -10 38 8 0 15 6 15
14 0 10 13 16 38 19 20 2 39 4 41 5 2 1 19 -7 38 -19z m-334 -76 c36 -15 49
-37 26 -45 -8 -3 -6 -14 5 -36 21 -40 11 -46 -66 -39 -71 7 -91 15 -82 36 4 9
9 48 12 88 l4 71 32 -30 c17 -17 48 -37 69 -45z m65 36 c-12 -10 -25 -15 -28
-12 -3 3 1 8 8 10 6 3 12 14 12 25 0 17 2 19 16 7 14 -11 13 -15 -8 -30z m508
-16 c-11 -11 -19 6 -11 24 8 17 8 17 12 0 3 -10 2 -21 -1 -24z m104 12 c17 -9
30 -19 30 -24 0 -5 13 -14 29 -21 16 -6 37 -20 47 -31 11 -12 30 -19 56 -19
31 0 38 -4 38 -19 0 -11 -6 -21 -12 -24 -8 -3 -1 -9 15 -16 43 -17 32 -30 -15
-18 -56 15 -164 11 -230 -8 -29 -8 -93 -22 -143 -30 -49 -9 -99 -18 -110 -22
-11 -3 9 23 46 59 37 35 74 81 84 102 10 20 22 35 28 33 8 -2 26 -27 33 -45 1
-1 12 2 25 6 13 5 31 6 39 1 42 -22 108 -49 118 -49 15 0 15 15 1 41 -6 11
-17 18 -24 15 -23 -8 -70 16 -83 42 -21 46 -17 50 28 27z m-56 -11 c23 -9 20
-24 -4 -24 -11 0 -20 7 -20 15 0 17 2 18 24 9z m394 -80 c22 -15 29 -34 13
-34 -5 0 -16 7 -25 15 -8 8 -19 15 -25 15 -6 0 -11 5 -11 10 0 15 22 12 48 -6z
m55 -19 c4 -8 2 -17 -2 -20 -5 -2 -11 4 -14 15 -6 23 8 27 16 5z m-1483 -15
c0 -5 -2 -10 -4 -10 -3 0 -8 5 -11 10 -3 6 -1 10 4 10 6 0 11 -4 11 -10z
m1353 -3 c-2 -4 -5 -7 -8 -7 -3 0 -12 0 -20 0 -8 0 -15 4 -15 10 0 5 10 8 23
6 12 -1 21 -6 20 -9z m57 -17 c0 -5 -9 -10 -20 -10 -11 0 -20 -4 -20 -10 0 -5
-7 -10 -15 -10 -18 0 -19 12 -3 28 15 15 58 16 58 2z m50 -11 c0 -6 -4 -7 -10
-4 -5 3 -10 11 -10 16 0 6 5 7 10 4 6 -3 10 -11 10 -16z m90 1 c0 -5 -10 -10
-21 -12 -12 -2 -25 -10 -30 -18 -4 -8 -19 -37 -34 -63 l-27 -49 -24 46 c-13
25 -24 48 -24 51 0 11 59 4 64 -7 4 -8 8 -9 11 -3 27 54 45 73 64 68 12 -3 21
-9 21 -13z m-940 -10 c0 -5 -7 -10 -15 -10 -8 0 -15 -4 -15 -10 0 -5 -9 -10
-20 -10 -11 0 -20 5 -20 10 0 6 9 10 19 10 11 0 23 5 26 10 3 6 10 10 16 10 5
0 9 -4 9 -10z m-310 -22 c0 -6 -6 -5 -15 2 -8 7 -15 14 -15 16 0 2 7 1 15 -2
8 -4 15 -11 15 -16z m1316 -19 c12 0 27 -5 33 -13 9 -10 2 -16 -32 -25 -23 -7
-51 -17 -61 -23 -16 -8 -18 -7 -12 7 3 9 6 28 6 42 0 22 3 24 23 18 12 -4 32
-6 43 -6z m-99 -41 c-3 -7 -5 -2 -5 12 0 14 2 19 5 13 2 -7 2 -19 0 -25z"/>
<path d="M2430 2202 c0 -23 29 -64 40 -57 11 7 -11 63 -27 69 -8 3 -13 -2 -13
-12z"/>
<path d="M2486 2168 c8 -50 9 -52 23 -43 23 13 9 85 -15 85 -11 0 -13 -10 -8
-42z"/>
<path d="M1913 1790 c-7 -10 -9 -21 -5 -23 13 -8 52 12 52 28 0 22 -33 19 -47
-5z"/>
<path d="M1076 1434 c-9 -23 -2 -28 31 -19 27 6 27 7 9 21 -25 18 -32 18 -40
-2z"/>
<path d="M710 1270 c0 -5 5 -10 10 -10 6 0 10 5 10 10 0 6 -4 10 -10 10 -5 0
-10 -4 -10 -10z"/>
<path d="M3176 2441 c-11 -12 -22 -18 -25 -13 -16 23 -104 16 -138 -11 -9 -7
-13 -5 -13 7 0 12 -10 16 -39 16 -49 0 -71 -8 -71 -26 0 -9 -11 -14 -29 -14
-17 0 -32 -4 -36 -9 -3 -5 -19 -13 -37 -16 -17 -4 -53 -20 -80 -36 -27 -16
-54 -29 -59 -29 -6 0 -9 -8 -7 -17 5 -22 33 -18 66 8 14 10 33 19 43 19 10 0
21 5 24 10 3 6 15 10 26 10 11 0 27 7 35 15 9 8 26 15 38 15 13 0 29 7 36 15
15 18 71 20 88 3 9 -9 22 -8 54 2 46 15 81 20 170 23 47 2 60 -2 72 -18 13
-19 15 -19 21 -2 9 22 -2 50 -16 41 -6 -3 -14 -2 -18 4 -4 6 -25 14 -46 17
-33 6 -44 3 -59 -14z"/>
<path d="M3362 2444 c-26 -18 -29 -34 -4 -34 24 1 55 26 47 39 -8 15 -17 14
-43 -5z"/>
<path d="M1766 2265 c-9 -7 -16 -19 -16 -28 0 -9 -23 -26 -57 -42 -32 -15 -66
-31 -75 -36 -10 -5 -24 -9 -32 -9 -7 0 -25 -9 -40 -21 -26 -20 -28 -20 -46 -4
-15 13 -28 16 -57 10 -46 -8 -63 -21 -63 -46 0 -20 16 -26 22 -8 2 7 13 5 32
-4 26 -14 26 -16 9 -26 -15 -9 -16 -12 -4 -20 10 -6 -4 -11 -45 -14 -32 -2
-67 -6 -76 -9 -31 -7 -32 -17 -2 -16 33 1 133 -9 155 -16 49 -15 69 -16 69 -1
0 8 5 15 11 15 6 0 8 -9 4 -20 -3 -11 -3 -20 2 -21 4 0 17 -2 28 -4 28 -6 55
-7 89 -6 25 1 27 4 22 25 -4 16 -1 26 10 30 28 11 6 22 -38 19 -30 -1 -47 -8
-57 -23 -19 -28 -28 -25 -27 9 1 27 8 32 80 63 44 18 98 48 120 66 56 44 57
45 94 72 54 40 39 65 -44 72 -31 3 -58 0 -68 -7z m-38 -117 c-6 -26 -44 -50
-111 -67 -36 -9 -38 -8 -35 11 2 15 19 27 63 44 69 26 86 29 83 12z"/>
<path d="M1991 2260 c-18 -4 -41 -16 -50 -25 -15 -16 -13 -17 39 -12 66 6 114
23 105 37 -7 11 -45 12 -94 0z"/>
<path d="M0 2220 c0 -22 4 -28 15 -24 16 7 18 14 9 38 -10 26 -24 18 -24 -14z"/>
<path d="M3018 2185 c-7 -9 -19 -22 -25 -30 -19 -20 -16 -35 6 -35 20 0 51 39
51 65 0 19 -16 19 -32 0z"/>
<path d="M3096 2184 c-4 -10 -1 -14 6 -12 15 5 23 28 10 28 -5 0 -13 -7 -16
-16z"/>
<path d="M0 2101 c0 -56 3 -71 15 -71 8 0 15 -4 15 -10 0 -5 -7 -10 -15 -10
-18 0 -20 -27 -2 -33 9 -3 9 -7 -1 -20 -12 -14 -8 -18 35 -30 40 -12 49 -18
51 -40 3 -24 0 -27 -27 -27 -16 0 -32 -4 -36 -10 -3 -5 -12 -7 -20 -3 -10 3
-15 -1 -15 -11 0 -14 11 -16 70 -15 61 1 70 4 70 20 0 11 -4 19 -9 19 -5 0
-12 30 -15 68 -19 221 -19 222 -68 224 -13 1 -29 6 -35 11 -10 7 -13 -6 -13
-62z m27 -18 c-3 -10 -5 -2 -5 17 0 19 2 27 5 18 2 -10 2 -26 0 -35z m40 15
c-3 -8 -6 -5 -6 6 -1 11 2 17 5 13 3 -3 4 -12 1 -19z m-2 -48 c3 -5 1 -10 -4
-10 -6 0 -11 5 -11 10 0 6 2 10 4 10 3 0 8 -4 11 -10z m20 -50 c3 -5 -1 -10
-10 -10 -9 0 -13 5 -10 10 3 6 8 10 10 10 2 0 7 -4 10 -10z"/>
<path d="M697 2154 c-9 -10 12 -34 30 -34 19 0 12 34 -8 38 -8 1 -18 0 -22 -4z"/>
<path d="M852 2128 c2 -13 8 -23 13 -23 6 0 11 10 13 23 2 15 -2 22 -13 22
-11 0 -15 -7 -13 -22z"/>
<path d="M440 2114 c0 -8 5 -12 10 -9 6 4 8 11 5 16 -9 14 -15 11 -15 -7z"/>
<path d="M1729 1908 c0 -1 -2 -14 -3 -27 -2 -13 -14 -32 -27 -43 -16 -13 -20
-21 -11 -25 6 -2 9 -9 6 -14 -4 -7 -10 -6 -18 0 -11 10 -47 15 -78 13 -27 -3
-22 -22 5 -22 29 0 68 -29 50 -36 -9 -4 -10 -11 -3 -25 8 -14 21 -19 51 -19
33 0 41 4 49 26 13 33 6 167 -9 172 -6 2 -11 2 -12 0z"/>
<path d="M3429 1828 c0 -35 -2 -107 -5 -160 -3 -59 -1 -104 5 -115 7 -13 10
32 11 160 0 97 -2 177 -5 177 -3 0 -5 -28 -6 -62z"/>
<path d="M3154 1735 c3 -9 -1 -18 -10 -22 -15 -5 -15 -7 0 -15 9 -5 20 -7 25
-3 5 3 12 1 16 -5 10 -16 48 -12 42 4 -3 8 -2 16 3 18 6 2 5 9 -1 18 -8 13
-11 13 -23 -2 -18 -24 -36 -23 -36 2 0 11 -5 20 -11 20 -6 0 -8 -7 -5 -15z"/>
<path d="M3251 1713 c1 -15 0 -32 -2 -38 -4 -10 3 -15 20 -15 13 0 7 73 -7 78
-8 2 -12 -6 -11 -25z"/>
<path d="M203 1513 c-22 -8 -14 -23 13 -23 15 0 24 5 22 12 -5 14 -18 18 -35
11z"/>
<path d="M189 1210 c-31 -4 -87 -15 -123 -25 l-67 -18 3 -41 3 -41 105 3 c111
4 130 11 130 46 0 12 7 32 16 44 14 20 12 44 -4 41 -4 -1 -32 -5 -63 -9z m26
-40 c4 -6 -7 -10 -26 -10 -18 0 -41 -8 -52 -17 -13 -12 -35 -18 -68 -18 -26 0
-45 3 -41 6 8 8 107 37 142 42 14 3 28 5 32 6 4 0 10 -3 13 -9z"/>
<path d="M3386 1179 c-2 -8 -6 -21 -9 -30 -4 -11 -31 -22 -84 -34 -43 -10 -88
-24 -100 -32 -24 -14 -32 -47 -10 -41 38 10 138 43 177 57 37 14 46 22 48 45
4 31 -14 60 -22 35z"/>
<path d="M1984 1049 c-5 -8 -16 -14 -24 -14 -12 0 -16 -17 -18 -81 -2 -73 -5
-82 -23 -87 -16 -4 -19 -2 -14 11 8 19 9 26 7 65 -2 22 -7 27 -27 27 -28 0
-32 -7 -39 -65 -5 -44 26 -102 41 -79 5 7 19 14 33 15 15 3 30 15 38 32 15 32
42 35 67 7 10 -11 26 -20 36 -20 9 0 20 -6 22 -12 12 -30 5 41 -8 76 -9 26
-11 45 -4 57 13 25 12 29 -10 29 -10 0 -21 -7 -25 -15 -9 -25 -26 -17 -26 13
0 37 -14 59 -26 41z m76 -149 c0 -5 -4 -10 -10 -10 -5 0 -10 5 -10 10 0 6 5
10 10 10 6 0 10 -4 10 -10z m-185 -10 c3 -5 1 -10 -4 -10 -6 0 -11 5 -11 10 0
6 2 10 4 10 3 0 8 -4 11 -10z"/>
<path d="M1694 938 c2 -7 7 -22 11 -33 l7 -20 8 20 c7 20 -4 45 -21 45 -5 0
-7 -6 -5 -12z"/>
<path d="M1970 860 c0 -24 15 -27 24 -4 9 22 8 24 -9 24 -8 0 -15 -9 -15 -20z"/>
<path d="M3145 724 c-76 -27 -72 -24 -54 -34 10 -6 30 -6 50 0 19 6 57 10 86
10 34 0 57 5 67 16 9 8 16 17 16 20 0 10 -129 1 -165 -12z"/>
<path d="M2540 689 c-7 -11 -17 -18 -25 -16 -7 3 -23 -4 -36 -16 -21 -19 -21
-22 -6 -25 10 -2 23 1 30 6 7 5 24 12 38 16 27 6 44 30 33 47 -9 15 -23 10
-34 -12z"/>
<path d="M2301 633 c-9 -10 3 -13 59 -13 56 0 70 3 70 15 0 13 -11 15 -59 13
-32 -2 -64 -9 -70 -15z"/>
<path d="M2180 623 c1 -12 70 -53 93 -56 41 -4 26 20 -26 41 -57 24 -67 26
-67 15z"/>
<path d="M2124 605 c-10 -8 -29 -15 -41 -15 -16 0 -21 -4 -16 -16 11 -29 93 2
93 35 0 15 -13 14 -36 -4z"/>
<path d="M1982 588 c6 -18 28 -21 28 -4 0 9 -7 16 -16 16 -9 0 -14 -5 -12 -12z"/>
</g>
</svg>
