<?xml version="1.0" standalone="no"?>
<!DOCTYPE svg PUBLIC "-//W3C//DTD SVG 20010904//EN"
 "http://www.w3.org/TR/2001/REC-SVG-20010904/DTD/svg10.dtd">
<svg version="1.0" xmlns="http://www.w3.org/2000/svg"
 width="344.000000pt" height="256.000000pt" viewBox="0 0 344.000000 256.000000"
 preserveAspectRatio="xMidYMid meet">
<metadata>
Created by potrace 1.16, written by Peter Selinger 2001-2019
</metadata>
<g transform="translate(0.000000,256.000000) scale(0.100000,-0.100000)"
fill="#000000" stroke="none">
<path d="M1522 2487 c-17 -20 -293 -31 -462 -18 -116 9 -126 8 -145 -10 -20
-18 -21 -18 -50 1 -28 19 -49 20 -326 20 l-296 0 -13 -24 c-10 -20 -11 -131
-5 -563 4 -296 11 -543 15 -548 17 -20 18 -65 5 -116 -12 -43 -12 -100 -5
-308 5 -141 10 -364 10 -496 1 -192 3 -244 15 -259 13 -17 35 -19 292 -23 272
-5 278 -5 300 16 14 14 25 39 29 71 4 28 10 50 15 50 23 0 6 37 -22 47 l-30
12 20 28 c17 24 20 47 23 173 2 90 -1 147 -7 150 -13 7 -23 -74 -23 -188 0
-81 -2 -94 -21 -110 -29 -24 -35 -115 -7 -120 14 -3 17 0 13 12 -3 8 -2 18 4
22 6 4 9 -13 7 -47 -3 -46 -7 -55 -28 -66 -23 -12 -25 -11 -28 12 -4 32 -16
32 -30 0 l-11 -25 -178 6 c-98 3 -205 6 -238 8 l-60 2 -2 185 c-1 101 -7 320
-13 486 -8 217 -8 314 0 343 11 40 11 40 58 40 45 0 48 -2 58 -34 6 -21 7 -42
1 -57 -5 -13 -6 -67 -3 -119 3 -52 6 -96 6 -97 0 -2 6 -3 14 -3 12 0 13 17 9
94 l-6 94 38 12 38 13 -25 13 c-25 13 -41 42 -54 97 -3 15 -10 27 -15 27 -16
0 -10 19 10 29 13 7 81 6 217 -3 170 -12 203 -12 226 0 14 8 29 22 32 31 7 28
4 651 -4 664 -14 22 -32 -2 -26 -34 8 -41 8 -474 0 -525 -14 -86 -24 -25 -24
144 0 148 -2 174 -15 174 -13 0 -15 -27 -15 -179 0 -174 1 -180 22 -195 20
-14 21 -18 7 -31 -13 -13 -41 -14 -217 -5 -137 7 -209 7 -222 0 -26 -14 -96
-13 -108 3 -6 7 -12 212 -17 538 -6 446 -5 527 7 531 8 3 141 3 296 0 l282 -5
0 -161 -1 -161 -32 -31 c-32 -31 -102 -80 -167 -117 -26 -15 -62 -22 -144 -27
-91 -5 -111 -9 -123 -26 -7 -10 -12 -28 -11 -38 4 -23 28 -34 28 -12 0 26 35
36 127 36 87 0 91 1 159 42 38 22 82 52 97 65 16 12 35 23 43 23 7 0 16 11 20
24 3 14 12 27 20 30 11 4 14 37 14 169 0 90 3 166 6 170 3 3 12 3 20 0 12 -4
15 -36 14 -172 0 -91 5 -377 10 -636 5 -258 9 -650 9 -870 0 -220 0 -438 0
-485 0 -69 3 -87 17 -97 23 -17 22 -17 329 -13 208 2 264 5 282 17 l23 15 -6
537 c-3 370 -8 543 -16 559 -10 20 -18 22 -97 22 -54 -1 -95 -6 -111 -14 -14
-8 -31 -11 -40 -6 -8 4 -84 10 -168 12 -96 3 -157 9 -164 16 -9 9 -8 12 3 12
7 0 84 3 169 5 85 3 160 5 165 5 6 -1 58 -4 116 -7 103 -4 106 -4 122 20 13
21 15 88 12 576 -3 441 -6 557 -17 573 -12 18 -15 18 -26 5z m-424 -66 c10 -6
6 -10 -14 -15 -15 -4 -44 -19 -65 -34 -37 -27 -38 -27 -41 -107 -4 -91 -2
-101 19 -84 11 10 14 29 11 73 -3 60 -3 60 36 87 31 20 57 28 114 33 41 3 88
13 105 21 41 20 54 19 61 -7 9 -36 7 -86 -4 -93 -5 -3 -10 -13 -10 -22 0 -8
-9 -26 -20 -40 -25 -32 -25 -49 0 -56 24 -6 31 3 47 63 24 84 33 153 23 166
-16 18 10 24 100 24 l78 0 0 -530 c1 -606 10 -550 -97 -550 -74 0 -115 14
-107 36 23 61 23 61 -56 60 -98 -1 -134 18 -149 79 -12 48 -23 62 -34 44 -10
-15 14 -100 35 -124 10 -11 20 -35 22 -52 4 -32 4 -33 -36 -35 -23 0 -48 0
-56 1 -8 1 -36 2 -62 1 l-48 0 0 132 c0 73 -3 231 -7 351 l-6 218 32 12 c23 8
31 17 29 32 -2 12 -10 19 -18 17 -8 -2 -19 -4 -25 -5 -6 -1 -11 58 -13 156
l-3 157 73 0 c40 0 79 -4 86 -9z m171 -1015 c24 -1 37 -6 39 -17 3 -18 -34
-29 -94 -29 -31 0 -34 3 -34 30 0 28 2 30 26 24 15 -4 43 -7 63 -8z m-919
-106 c0 -5 -11 -10 -25 -10 -14 0 -25 5 -25 10 0 6 11 10 25 10 14 0 25 -4 25
-10z m682 -73 c5 -6 8 -121 6 -254 -2 -134 0 -243 3 -243 18 0 23 53 28 270
l6 235 45 -1 c174 -6 220 -5 260 6 25 6 70 10 100 8 l55 -3 3 -240 2 -241 -69
10 c-59 8 -71 13 -75 32 -8 31 -47 39 -67 14 -16 -19 -17 -19 -50 5 -23 18
-46 25 -76 25 -42 0 -43 0 -43 -35 0 -39 20 -47 50 -20 15 13 21 12 59 -16 23
-17 40 -36 38 -43 -5 -14 -126 -9 -144 5 -15 13 -33 3 -33 -16 0 -23 34 -35
115 -39 43 -3 80 -7 83 -10 3 -3 38 -6 77 -6 40 0 86 -3 102 -6 l30 -6 7 -112
c7 -121 3 -148 -23 -145 -39 4 -61 -2 -61 -16 0 -11 12 -15 45 -15 l45 0 0
-85 c0 -83 -1 -86 -26 -95 -14 -6 -144 -10 -294 -10 -311 0 -287 -10 -272 112
5 40 8 120 6 178 -1 58 -5 245 -8 417 -4 171 -4 323 0 338 6 24 10 26 37 21
17 -4 35 -12 39 -19z m363 -487 c3 -5 37 -10 76 -10 49 0 69 -4 69 -13 0 -10
-20 -11 -97 -3 -54 4 -100 10 -102 12 -1 1 0 7 4 13 8 14 42 14 50 1z"/>
<path d="M1164 2265 c-11 -28 1 -37 24 -17 12 11 22 22 22 26 0 13 -41 5 -46
-9z"/>
<path d="M1370 2265 c-20 -24 3 -44 31 -27 16 10 24 11 35 1 19 -15 37 1 28
24 -8 22 -77 23 -94 2z"/>
<path d="M1257 2112 c-26 -29 -20 -39 23 -39 43 0 52 14 24 41 -20 20 -27 20
-47 -2z"/>
<path d="M1362 2067 c2 -15 11 -23 27 -25 14 -2 35 -11 48 -19 28 -18 37 -13
28 16 -7 24 -26 36 -73 44 -30 6 -33 5 -30 -16z"/>
<path d="M999 1963 c-3 -31 4 -248 8 -259 3 -8 9 -14 14 -14 15 0 6 273 -8
278 -7 2 -13 0 -14 -5z"/>
<path d="M1443 1770 c-17 -30 -44 -37 -108 -31 -11 1 -39 -4 -62 -11 -44 -13
-58 -39 -29 -55 8 -4 14 -12 13 -17 -1 -5 4 -11 11 -14 9 -3 13 3 10 19 -2 20
2 25 26 27 20 3 32 -2 39 -13 8 -15 10 -15 24 4 8 13 25 21 42 21 31 0 55 27
67 74 9 36 -11 33 -33 -4z"/>
<path d="M1148 1643 c-5 -67 4 -83 43 -83 42 0 40 36 -2 45 -23 5 -28 10 -20
18 16 16 14 77 -3 77 -10 0 -15 -17 -18 -57z"/>
<path d="M1385 1066 c4 -84 4 -159 1 -165 -5 -8 -13 -8 -27 -1 -24 13 -38 -12
-19 -35 18 -21 67 -19 74 3 3 9 5 92 3 184 -2 155 -3 168 -20 168 -18 0 -18
-9 -12 -154z"/>
<path d="M3040 2489 c-25 -4 -150 -8 -277 -8 -148 -1 -233 -5 -233 -11 0 -15
-46 -12 -60 5 -9 10 -17 12 -30 5 -21 -11 -526 -15 -554 -4 -39 15 -41 -6 -35
-397 8 -424 19 -1229 24 -1639 1 -151 3 -278 4 -282 1 -5 44 -8 96 -8 76 0
102 4 135 21 22 12 40 27 40 34 0 20 -26 25 -47 10 -12 -10 -47 -14 -109 -15
l-91 0 -2 466 c-1 257 -4 491 -7 520 l-5 54 141 0 140 0 10 -26 c6 -14 10 -61
10 -104 0 -73 -2 -81 -27 -105 -15 -14 -37 -25 -48 -25 -11 -1 -40 -21 -65
-45 l-44 -44 27 -29 c15 -15 27 -35 27 -43 0 -7 5 -21 10 -29 8 -13 11 -12 23
3 12 17 14 17 26 3 20 -23 41 -20 41 7 0 18 -10 28 -42 43 -50 22 -57 41 -28
72 27 28 74 29 93 2 21 -30 128 -111 138 -104 23 14 0 42 -106 128 -28 23 -29
25 -13 43 14 15 16 36 12 135 l-4 116 63 7 c34 3 78 5 97 3 19 -1 52 1 73 5
l37 8 0 -171 c0 -106 -4 -179 -11 -192 -8 -14 -8 -23 -1 -27 7 -4 11 -120 13
-336 1 -311 1 -330 -16 -330 -24 0 -29 -19 -10 -35 12 -10 19 -10 36 1 20 14
20 20 20 573 0 391 -3 561 -11 566 -12 7 -3 40 11 40 5 0 13 -8 16 -17 4 -10
11 -21 17 -25 8 -5 7 -8 -1 -8 -11 0 -11 -10 2 -107 3 -21 8 -255 12 -521 7
-545 0 -505 89 -496 27 2 153 6 279 7 127 2 236 7 243 11 9 5 12 134 12 549
-1 460 -3 545 -16 562 -13 18 -15 18 -31 2 -16 -16 -16 -18 6 -38 21 -20 22
-27 17 -103 -10 -133 -10 -145 -7 -296 1 -80 2 -259 2 -397 l-1 -253 -29 0
c-16 0 -40 4 -53 8 -13 5 -79 5 -148 1 -69 -4 -170 -8 -225 -10 l-100 -2 -7
404 c-3 222 -9 457 -12 523 l-6 118 143 -2 c78 -1 181 2 230 6 48 3 88 5 88 3
1 -2 5 -112 10 -244 7 -243 23 -506 35 -603 4 -36 11 -52 21 -52 11 0 13 8 9
38 -3 20 -11 111 -16 202 -6 91 -15 206 -20 255 -14 133 -13 371 2 395 11 18
9 23 -17 44 -42 34 -25 50 42 38 45 -8 50 -7 67 16 18 24 19 47 12 555 -9 641
1 601 -136 576z m88 -51 c15 -19 32 -1031 18 -1045 -11 -11 -80 -3 -88 10 -4
6 -7 126 -7 267 -1 140 -4 352 -7 471 l-7 215 28 26 c32 30 30 66 -3 49 -47
-25 -47 -25 -42 -546 3 -269 3 -493 0 -497 -3 -4 -103 -11 -223 -14 l-217 -7
-1 24 c-3 116 5 323 14 364 6 27 12 86 12 131 1 65 5 84 20 101 42 45 49 36
60 -81 7 -78 14 -111 24 -114 12 -4 13 9 8 75 -3 44 -12 93 -19 108 -11 25
-10 29 11 46 15 13 39 19 71 19 46 0 82 21 66 38 -10 9 -128 3 -141 -8 -5 -4
-26 -10 -46 -14 -21 -4 -42 -13 -49 -21 -21 -25 -40 -18 -40 14 0 33 17 41 91
41 32 0 49 5 52 15 9 22 -7 27 -81 24 l-67 -3 -3 157 -3 157 248 3 c137 1 262
3 279 5 17 1 36 -4 42 -10z m-666 -223 c3 -228 7 -214 -51 -201 -31 7 -33 10
-35 46 -1 17 -7 34 -14 39 -9 5 -9 12 3 27 8 10 15 27 15 37 0 10 12 29 26 42
27 25 25 45 -5 45 -25 0 -44 -25 -56 -74 l-10 -41 -202 -5 c-129 -4 -207 -10
-214 -17 -8 -8 2 -25 40 -62 51 -50 52 -51 114 -51 91 0 132 14 157 55 19 31
26 35 66 35 39 0 44 -3 50 -27 17 -79 67 -130 99 -103 6 5 15 7 18 3 4 -3 7
-117 8 -252 1 -135 2 -266 3 -291 l1 -45 -245 -8 c-135 -4 -265 -6 -290 -5
l-45 3 -1 40 c-1 22 -5 261 -9 531 l-8 491 279 2 c153 1 281 4 283 7 16 15 21
-36 23 -221z m62 207 c4 -7 20 -410 17 -442 0 -8 0 -76 1 -150 5 -423 5 -435
-17 -435 -26 0 -25 -16 -24 385 0 184 0 342 0 350 0 8 -3 72 -7 142 -3 70 -4
134 0 143 6 16 22 20 30 7z m-326 -349 c-3 -15 -19 -20 -86 -27 -72 -7 -86 -6
-110 10 l-27 19 35 6 c19 4 70 7 113 8 70 1 78 -1 75 -16z m384 -233 c-2 -16
-6 -30 -8 -30 -2 0 -4 14 -4 30 0 17 4 30 8 30 5 0 7 -13 4 -30z m433 -515 c0
-25 -414 -33 -422 -8 -3 9 30 13 129 16 213 5 293 3 293 -8z m-562 -2 c4 -3 2
-12 -4 -20 -9 -10 -68 -13 -280 -13 -173 0 -269 4 -269 10 0 10 18 12 130 11
36 0 94 3 130 8 81 10 284 13 293 4z"/>
<path d="M1996 1895 c9 -14 20 -22 26 -19 5 3 2 14 -8 25 -25 27 -37 23 -18
-6z"/>
<path d="M800 1255 c0 -53 -15 -75 -51 -75 -26 0 -30 -3 -27 -22 2 -15 9 -22
22 -21 16 1 17 -4 12 -35 -3 -21 -11 -77 -17 -125 -11 -84 -11 -89 10 -111 24
-26 28 -81 7 -105 -23 -25 -31 -71 -13 -71 23 0 54 69 62 138 7 58 6 62 -13
62 -12 0 -23 9 -27 20 -9 29 23 219 42 249 19 30 23 122 6 128 -9 3 -13 -7
-13 -32z"/>
<path d="M533 1125 c43 -38 126 -30 110 11 -4 10 -24 14 -72 14 l-66 -1 28
-24z"/>
<path d="M492 977 c-12 -13 -22 -29 -22 -35 0 -17 25 -15 40 3 32 39 111 -7
132 -78 10 -32 10 -41 0 -45 -7 -2 -12 -12 -12 -22 0 -10 -9 -20 -21 -23 -19
-5 -20 -10 -14 -49 8 -49 50 -138 65 -138 16 0 12 30 -11 77 -11 23 -19 51
-16 60 2 11 21 -19 50 -79 48 -100 75 -127 63 -64 -4 18 -20 59 -38 91 -24 45
-28 59 -18 65 11 7 10 22 -4 81 -21 86 -37 120 -73 154 -37 33 -91 34 -121 2z"/>
<path d="M1954 885 c-30 -46 -8 -195 28 -195 6 0 8 13 6 29 l-4 28 47 -28 c25
-16 53 -29 62 -29 8 0 17 -7 21 -15 8 -23 26 -18 26 8 0 29 -18 47 -47 47 -13
0 -23 4 -23 9 0 5 -17 17 -37 26 -61 28 -73 43 -62 73 6 15 15 30 21 33 13 8
3 39 -11 39 -6 0 -18 -11 -27 -25z"/>
<path d="M2441 851 c-8 -5 -19 -7 -25 -5 -13 5 -46 -46 -46 -70 0 -14 4 -15
20 -6 25 13 25 11 0 -70 -11 -36 -20 -79 -20 -97 0 -18 -5 -43 -11 -55 -7 -17
-7 -32 1 -52 15 -41 27 -22 34 54 3 36 15 98 26 137 11 40 20 81 20 92 0 10 7
24 15 31 15 13 21 50 8 50 -5 0 -14 -4 -22 -9z"/>
</g>
</svg>
