<?xml version="1.0" standalone="no"?>
<!DOCTYPE svg PUBLIC "-//W3C//DTD SVG 20010904//EN"
 "http://www.w3.org/TR/2001/REC-SVG-20010904/DTD/svg10.dtd">
<svg version="1.0" xmlns="http://www.w3.org/2000/svg"
 width="344.000000pt" height="256.000000pt" viewBox="0 0 344.000000 256.000000"
 preserveAspectRatio="xMidYMid meet">
<metadata>
Created by potrace 1.16, written by Peter Selinger 2001-2019
</metadata>
<g transform="translate(0.000000,256.000000) scale(0.100000,-0.100000)"
fill="#000000" stroke="none">
<path d="M1830 2543 c29 -13 78 -14 115 -4 6 2 90 3 188 2 121 -1 177 -4 177
-12 0 -18 41 -70 50 -64 5 3 5 17 0 31 -6 14 -10 30 -10 35 0 5 100 9 246 9
l246 0 -7 -197 c-3 -109 -8 -208 -11 -220 -3 -19 -13 -22 -81 -28 -43 -3 -174
-8 -291 -11 -241 -5 -250 -9 -192 -69 29 -30 33 -41 35 -93 1 -33 10 -74 19
-92 8 -18 13 -42 10 -54 -4 -17 5 -27 42 -51 76 -48 93 -57 104 -50 6 3 10 42
10 86 0 62 -3 79 -14 79 -22 0 -46 -29 -53 -61 -6 -32 -10 -34 -36 -15 -13 10
-14 15 -5 19 12 4 21 81 22 197 l1 45 97 0 98 0 -6 -55 c-3 -30 -7 -68 -9 -83
-3 -15 0 -36 7 -46 9 -15 7 -25 -9 -52 -33 -54 -36 -86 -13 -109 27 -27 26
-30 -19 -30 -31 0 -44 -6 -61 -27 -11 -14 -19 -31 -17 -36 2 -6 -7 -20 -19
-32 -13 -13 -26 -39 -29 -59 -4 -20 -11 -36 -15 -36 -4 0 -13 -19 -19 -42 -7
-24 -21 -68 -31 -98 -16 -50 -48 -156 -56 -187 -5 -19 -66 -53 -95 -53 -14 0
-36 11 -49 25 -15 16 -35 25 -54 25 -55 1 -119 20 -138 43 -21 24 -19 65 9
152 15 49 15 52 -11 123 -14 40 -26 84 -26 98 0 29 -20 32 -27 4 -8 -30 -23
-13 -23 26 0 35 -13 46 -24 18 -3 -9 -6 -38 -6 -65 0 -45 -4 -54 -36 -85 -20
-18 -40 -32 -44 -29 -4 3 -10 19 -14 37 -6 33 -32 68 -49 68 -9 0 -7 -17 8
-52 6 -16 5 -16 -27 -1 -18 9 -41 25 -50 37 -15 17 -18 18 -18 4 0 -9 -3 -23
-6 -31 -3 -10 4 -17 23 -22 15 -3 36 -15 46 -26 10 -10 26 -19 35 -19 25 0 42
-20 42 -47 0 -23 23 -32 35 -13 8 14 25 13 25 -2 0 -6 6 -19 13 -27 8 -9 24
-48 37 -88 l22 -72 -21 -44 c-33 -68 -25 -100 14 -57 13 14 22 17 29 10 5 -5
18 -10 27 -10 9 0 38 -10 65 -22 46 -20 55 -21 136 -10 103 13 174 48 184 90
38 163 84 275 111 271 10 -1 32 3 48 10 23 9 35 10 48 1 19 -12 112 2 150 22
13 6 35 3 75 -12 73 -28 92 -45 92 -86 0 -26 20 -64 35 -64 1 0 10 11 19 25
12 18 14 29 6 38 -5 6 -25 32 -43 57 -25 34 -46 50 -85 64 -60 21 -63 39 -7
46 47 6 60 30 17 30 -23 0 -32 6 -38 23 -4 12 -11 25 -16 28 -12 8 -1 49 13
49 5 0 17 -16 27 -36 l17 -36 62 6 c55 6 62 4 68 -13 3 -11 19 -22 35 -26 17
-4 30 -10 30 -15 0 -10 -25 -20 -51 -20 -21 0 -26 -26 -6 -33 8 -3 7 -9 -6
-19 -15 -11 -16 -18 -8 -41 11 -29 41 -37 41 -12 0 9 11 26 23 38 13 12 22 27
20 34 -2 6 1 14 6 18 6 3 11 14 11 24 0 10 7 24 15 31 14 12 14 15 -1 31 -10
11 -26 19 -36 19 -11 0 -29 5 -41 12 -21 11 -95 12 -129 2 -12 -4 -19 2 -24
21 -3 14 -26 43 -50 64 -24 21 -44 45 -44 52 0 8 12 25 25 38 27 25 32 41 14
41 -6 0 -8 7 -5 16 4 10 -1 22 -11 30 -23 17 -33 17 -33 0 0 -7 -11 -30 -25
-50 -14 -20 -25 -50 -25 -65 0 -16 -3 -43 -6 -60 -5 -25 -11 -31 -28 -29 -13
2 -21 10 -21 23 0 11 -4 30 -8 43 -5 14 -4 34 4 51 10 23 19 28 43 27 l29 -1
4 125 c2 69 5 131 8 138 3 8 28 12 75 12 108 0 106 -4 113 241 7 230 8 241 22
251 6 4 -237 7 -540 7 -499 -1 -547 -2 -515 -16z m850 -953 c0 -6 -14 -10 -31
-10 -16 0 -28 3 -25 8 7 11 56 13 56 2z m-82 -35 c18 -9 40 -14 49 -11 25 10
83 -15 83 -36 0 -23 -42 -25 -60 -3 -19 23 -86 19 -123 -7 -18 -12 -33 -26
-35 -30 -2 -4 -14 -8 -27 -8 -26 0 -41 39 -26 67 5 10 12 26 15 37 5 16 13 18
49 13 23 -3 57 -13 75 -22z m2 -89 c0 -7 -11 -16 -25 -18 -31 -6 -33 5 -2 20
12 6 23 11 25 11 1 1 2 -5 2 -13z m-665 -43 c3 -13 2 -23 -3 -23 -11 0 -22 24
-22 48 0 21 15 5 25 -25z m173 -339 c12 -4 22 -10 22 -15 0 -11 -81 0 -94 12
-11 10 37 12 72 3z"/>
<path d="M2918 2553 c7 -3 16 -2 19 1 4 3 -2 6 -13 5 -11 0 -14 -3 -6 -6z"/>
<path d="M2906 2531 c-4 -5 -4 -16 0 -24 3 -8 -2 -101 -10 -207 -9 -106 -16
-221 -16 -256 0 -43 -6 -73 -16 -89 -9 -14 -13 -32 -10 -42 6 -15 9 -15 28 5
21 21 23 33 29 162 1 30 8 70 15 88 8 21 10 41 5 55 -5 12 -5 60 0 107 13 140
11 210 -5 210 -8 0 -17 -4 -20 -9z"/>
<path d="M1413 2519 c-6 -6 -8 -28 -6 -50 6 -44 -10 -72 -38 -64 -22 7 -34
-12 -19 -30 35 -42 76 -1 86 86 6 56 -3 78 -23 58z"/>
<path d="M2360 2398 c0 -8 5 -19 10 -24 7 -7 7 -19 1 -35 -5 -13 -10 -18 -10
-11 -1 6 -13 12 -27 12 -33 0 -29 -25 8 -53 23 -17 30 -18 43 -7 23 19 17 123
-7 128 -10 2 -18 -3 -18 -10z"/>
<path d="M3290 2270 c-19 -12 -12 -18 25 -22 21 -2 30 2 33 15 4 19 -32 24
-58 7z"/>
<path d="M2 2248 c2 -12 12 -23 23 -24 52 -9 232 -27 335 -34 250 -18 469 -38
479 -44 13 -8 143 -23 321 -35 74 -6 171 -15 215 -20 204 -26 254 -31 315 -31
36 0 90 -7 120 -15 30 -8 92 -15 137 -15 l82 0 -20 -45 c-11 -25 -17 -54 -14
-64 5 -16 -3 -22 -42 -37 -63 -23 -76 -39 -70 -92 4 -39 2 -45 -29 -70 -19
-15 -34 -31 -34 -35 0 -5 -8 -21 -19 -35 -10 -15 -20 -36 -22 -47 -3 -11 -11
-20 -19 -20 -8 0 -16 -8 -18 -18 -3 -15 0 -18 17 -12 17 5 21 2 21 -14 0 -12
5 -21 10 -21 6 0 10 17 10 38 0 27 9 51 32 83 39 53 52 64 103 90 22 11 50 26
63 32 24 13 41 55 26 66 -10 7 -12 71 -3 86 3 6 9 23 13 39 11 44 42 83 71 88
33 7 39 -5 15 -27 -24 -21 -26 -48 -5 -68 12 -13 12 -24 3 -71 -11 -51 -11
-57 7 -70 20 -15 40 -12 30 5 -4 5 1 9 9 9 22 0 28 -17 14 -40 -16 -25 -23
-25 -47 -1 -15 15 -22 17 -29 8 -6 -7 -10 -14 -10 -17 1 -3 -2 -16 -7 -28 -6
-22 -11 -23 -50 -18 -53 8 -67 -13 -35 -56 24 -33 25 -38 4 -38 -11 0 -14 -5
-10 -16 3 -9 6 -18 6 -20 0 -2 19 -4 42 -4 23 0 57 -5 75 -12 28 -10 33 -17
33 -46 0 -22 4 -32 12 -30 8 3 13 23 13 49 0 36 -4 46 -22 54 -28 12 -29 21
-4 34 14 8 22 7 31 -4 7 -9 29 -15 52 -15 35 0 39 2 36 23 -3 19 -8 22 -40 20
-45 -3 -58 20 -28 52 22 23 27 83 10 115 -5 10 -24 21 -40 25 -25 6 -29 9 -19
21 6 8 9 27 6 43 -5 24 -2 31 13 36 11 4 20 12 21 18 3 30 -4 63 -18 84 -15
23 -17 23 -152 17 -94 -5 -153 -3 -191 6 -55 12 -88 16 -425 44 -99 8 -211 17
-250 21 -80 6 -175 20 -290 40 -44 8 -159 20 -255 26 -222 14 -439 34 -578 53
-29 4 -33 2 -30 -16z m2085 -605 c3 -7 -3 -9 -16 -6 -12 3 -21 10 -21 15 0 13
32 6 37 -9z"/>
<path d="M130 2138 c-64 -23 -80 -104 -31 -157 l29 -31 -38 0 c-21 0 -50 4
-64 10 -22 8 -26 7 -26 -9 0 -22 13 -28 79 -37 29 -4 63 -1 85 6 30 9 40 9 53
-1 10 -9 48 -14 117 -14 116 0 166 16 166 52 0 30 29 43 92 45 41 1 67 -6 118
-32 133 -66 145 -90 166 -336 5 -51 2 -69 -16 -105 -20 -39 -21 -44 -6 -55 9
-6 34 -14 56 -18 56 -9 105 -55 126 -119 9 -29 23 -59 30 -68 7 -8 27 -48 44
-89 30 -73 31 -77 29 -230 l-2 -155 51 -112 c29 -62 52 -118 52 -125 0 -7 14
-35 30 -63 36 -60 38 -108 9 -172 -11 -25 -18 -47 -15 -50 15 -15 36 12 53 69
18 61 20 63 68 81 83 32 146 48 230 60 44 7 80 17 80 22 0 6 -29 11 -65 13
-68 3 -168 -18 -232 -50 -21 -10 -43 -18 -50 -18 -14 0 -70 95 -83 140 -4 14
-25 62 -46 107 -52 110 -59 148 -49 252 5 47 7 104 4 126 -8 51 -39 138 -70
194 -13 24 -18 38 -10 32 16 -14 60 0 69 22 4 12 13 13 45 4 31 -8 56 -7 118
8 44 10 83 22 89 26 16 15 25 10 25 -15 0 -26 18 -85 32 -102 16 -22 58 -3 73
32 18 44 50 56 116 44 56 -11 69 -7 69 19 0 14 -9 18 -47 20 -27 1 -56 4 -66
7 -25 8 -94 -41 -101 -72 -14 -54 -42 -7 -45 74 -1 40 41 86 71 76 12 -3 20 1
24 13 3 10 12 31 20 46 18 36 8 54 -17 31 -11 -9 -21 -15 -23 -13 -2 2 -7 99
-11 215 l-8 210 -56 26 c-114 52 -247 60 -366 22 -81 -26 -80 -26 -76 -80 1
-27 5 -52 8 -56 2 -5 25 -8 51 -8 51 0 82 -22 82 -58 0 -19 -64 -42 -115 -42
-24 0 -33 -18 -17 -34 7 -7 8 -11 11 -37 0 -6 8 -9 16 -6 8 4 17 2 20 -3 4 -6
26 -10 51 -10 38 0 45 3 42 18 -3 13 -14 17 -51 17 -54 0 -62 11 -14 20 17 3
55 18 84 33 43 22 53 32 58 60 9 46 -2 53 -31 19 -13 -16 -24 -22 -24 -14 0 7
-14 28 -32 46 l-32 33 35 -7 c32 -6 35 -4 47 28 16 44 15 49 -5 43 -10 -2 -43
-7 -73 -10 l-55 -5 55 19 c90 31 216 22 321 -23 l36 -16 6 -168 c8 -217 2
-277 -29 -298 -19 -12 -24 -13 -24 -2 0 8 -21 19 -50 26 -41 11 -49 16 -47 34
1 16 -3 22 -18 22 -13 0 -20 -6 -19 -17 1 -13 -10 -21 -37 -28 -24 -7 -39 -17
-39 -26 0 -13 8 -14 40 -9 49 8 140 -11 140 -30 0 -21 -41 -45 -77 -45 -17 0
-35 -4 -38 -10 -8 -13 -95 -13 -115 0 -12 7 -12 12 4 29 17 19 17 25 4 77 -13
53 -15 57 -46 60 -18 2 -43 9 -54 15 -38 21 4 30 129 28 135 -2 206 9 211 32
2 9 -5 19 -16 21 -12 3 -21 18 -25 38 -7 31 -8 32 -29 18 -13 -9 -25 -24 -27
-34 -4 -24 -19 -34 -49 -34 -21 0 -22 2 -9 15 21 20 32 74 18 88 -10 10 -12 7
-27 -42 -3 -10 -13 -5 -33 17 -15 18 -33 32 -39 32 -19 0 -14 -28 8 -50 11
-11 20 -24 20 -30 0 -17 -38 -30 -89 -30 -39 0 -51 4 -51 15 0 8 -9 15 -20 15
-17 0 -20 -7 -20 -47 0 -84 10 -122 33 -125 11 -2 23 -10 25 -18 3 -8 1 -12
-3 -7 -10 9 -45 -21 -45 -40 0 -19 -17 -16 -25 4 -3 10 -8 72 -11 138 -3 66
-9 164 -14 219 -6 54 -10 129 -10 167 0 91 -17 169 -37 169 -12 0 -14 -7 -9
-32 15 -67 42 -556 30 -530 -7 14 -54 16 -54 2 0 -6 11 -15 23 -21 21 -10 66
-69 53 -69 -4 0 -23 9 -43 20 -21 11 -48 20 -62 20 -23 0 -23 1 -6 26 13 20
15 41 11 102 -15 232 -39 296 -129 350 -90 53 -131 65 -202 59 -62 -6 -64 -5
-100 29 -33 31 -35 34 -14 30 13 -3 53 -8 89 -11 36 -4 75 -13 86 -20 29 -19
36 -8 18 26 -9 18 -23 29 -37 30 -12 0 -58 4 -102 9 -120 14 -357 19 -385 8z
m146 -39 c121 -12 166 -30 203 -80 l24 -32 -21 -18 c-47 -38 -208 -36 -292 4
-88 41 -108 74 -70 115 24 26 16 25 156 11z m824 -199 c24 -8 24 -8 -7 -9 -17
-1 -35 4 -38 9 -7 11 9 11 45 0z m40 -530 c0 -23 -5 -30 -19 -30 -11 0 -22 4
-25 9 -9 14 4 39 22 44 10 3 18 5 20 6 1 0 2 -12 2 -29z"/>
<path d="M660 1942 c0 -20 29 -52 48 -52 22 0 12 29 -18 50 -29 20 -30 21 -30
2z"/>
<path d="M1286 1944 c-4 -9 -9 -14 -13 -11 -8 9 -33 -12 -33 -28 0 -7 19 -16
44 -19 60 -9 76 -29 47 -59 -11 -13 -21 -28 -21 -33 0 -14 43 -54 58 -54 6 0
16 -9 23 -21 7 -14 14 -18 21 -11 10 10 -26 127 -43 137 -4 3 -5 13 -2 24 3
11 -3 24 -15 32 -11 8 -21 23 -23 34 -5 25 -34 31 -43 9z"/>
<path d="M527 1943 c-4 -3 -7 -14 -7 -24 0 -9 -16 -26 -35 -38 -20 -12 -35
-28 -35 -39 0 -11 -17 -41 -37 -67 -43 -57 -58 -140 -29 -164 9 -7 16 -19 16
-25 0 -6 14 -20 30 -29 41 -25 38 -37 -11 -37 -27 0 -46 -6 -54 -16 -17 -23
-65 -11 -65 16 0 32 -18 23 -37 -17 -16 -33 -24 -38 -63 -45 -30 -5 -52 -16
-65 -33 -13 -16 -31 -25 -48 -25 -16 0 -26 -4 -22 -10 3 -5 15 -10 27 -10 16
0 19 -5 15 -22 -4 -12 -2 -27 4 -34 7 -8 2 -14 -16 -18 -34 -9 -27 -30 11 -34
39 -3 62 12 46 31 -18 22 7 95 39 114 27 16 27 16 93 -53 36 -38 66 -69 66
-70 0 -16 -296 -60 -331 -49 -15 5 -19 1 -19 -17 0 -23 2 -24 67 -21 38 2 101
8 142 14 81 12 100 5 82 -29 -6 -11 -11 -30 -11 -42 0 -36 -42 -213 -117 -490
-9 -35 -13 -79 -10 -120 4 -56 9 -68 32 -85 37 -29 175 -78 210 -75 63 4 71 3
225 -31 75 -17 103 -29 141 -59 l46 -36 -40 -18 c-50 -21 -123 -31 -171 -22
-39 8 -80 46 -106 99 -18 37 -40 47 -40 18 0 -25 20 -71 32 -71 4 0 8 -7 8
-15 0 -9 21 -29 47 -45 38 -24 58 -30 105 -30 31 0 72 6 90 14 42 19 133 46
151 46 8 0 31 -11 51 -25 44 -30 71 -31 114 -5 40 25 43 45 4 35 -48 -12 -92
-7 -122 15 -17 12 -47 26 -68 32 -20 5 -50 22 -67 37 -16 15 -50 35 -75 44
-74 27 -252 59 -297 54 -26 -3 -50 1 -62 9 -10 8 -45 21 -77 29 -81 21 -104
45 -104 109 0 28 10 83 20 121 73 256 81 291 102 455 9 68 15 88 32 100 27 18
135 126 163 163 25 32 21 33 91 -32 51 -46 102 -65 102 -38 0 8 -16 22 -36 33
-20 10 -48 34 -63 53 -26 34 -26 34 -3 27 22 -7 52 7 52 25 0 17 -48 59 -68
59 -11 0 -24 5 -27 11 -4 6 0 9 11 7 16 -2 19 4 20 37 0 22 -4 49 -9 59 -5 10
-10 40 -11 65 -1 34 -5 46 -16 46 -18 0 -34 14 -43 38 -3 9 -10 17 -14 16 -20
-3 -24 2 -13 16 7 8 16 15 21 15 5 0 6 -7 3 -15 -4 -8 -1 -15 5 -15 7 0 14 8
17 18 14 43 27 66 31 55 5 -15 69 -18 77 -4 9 15 -3 37 -27 49 -34 17 -63 23
-70 15z m-47 -188 c0 -9 11 -20 25 -25 33 -13 34 -52 1 -69 -20 -11 -29 -10
-65 8 -22 12 -41 25 -41 29 0 4 12 22 27 40 29 34 53 42 53 17z m-40 -146 c0
-6 -4 -7 -10 -4 -5 3 -10 11 -10 16 0 6 5 7 10 4 6 -3 10 -11 10 -16z m127
-111 c-3 -8 -6 -5 -6 6 -1 11 2 17 5 13 3 -3 4 -12 1 -19z m-67 -21 c0 -7 -22
-37 -48 -67 -48 -53 -48 -53 -70 -34 -12 10 -22 24 -22 31 0 16 -10 16 -44 3
-21 -8 -27 -6 -37 12 -8 14 -8 18 0 14 6 -4 11 -2 11 3 0 6 20 11 44 11 29 0
46 5 49 14 3 8 14 12 24 10 10 -3 29 -1 43 5 35 14 50 13 50 -2z"/>
<path d="M1393 1883 c4 -10 17 -49 31 -86 19 -55 22 -76 14 -103 -10 -37 -5
-54 17 -54 15 0 28 27 20 41 -3 5 -1 18 5 29 9 17 6 31 -14 75 -15 29 -26 60
-26 68 0 14 -31 47 -44 47 -5 0 -6 -8 -3 -17z"/>
<path d="M3275 1870 c-3 -5 -1 -10 4 -10 6 0 11 5 11 10 0 6 -2 10 -4 10 -3 0
-8 -4 -11 -10z"/>
<path d="M3326 1823 c-8 -30 -28 -354 -22 -361 17 -16 25 26 35 168 6 85 14
167 17 183 5 20 3 27 -9 27 -9 0 -18 -8 -21 -17z"/>
<path d="M0 1770 c0 -16 5 -30 10 -30 6 0 10 -9 10 -19 0 -11 -5 -23 -10 -26
-16 -10 -12 -45 5 -45 36 0 40 95 7 128 l-22 22 0 -30z"/>
<path d="M75 1660 c-27 -43 -25 -65 6 -57 14 4 19 0 19 -14 0 -14 -7 -19 -30
-19 -23 0 -31 -5 -36 -25 -3 -14 -12 -25 -20 -25 -8 0 -14 -7 -14 -15 0 -8 7
-15 15 -15 9 0 27 -7 40 -16 30 -19 69 -15 73 9 2 11 -3 17 -17 17 -18 0 -19
3 -10 30 6 17 15 30 19 30 10 0 6 42 -6 61 -4 7 -7 28 -5 46 1 18 0 33 -3 33
-3 0 -17 -18 -31 -40z"/>
<path d="M694 1689 c-3 -6 -2 -15 4 -21 15 -15 46 -5 50 15 3 12 -3 17 -22 17
-14 0 -28 -5 -32 -11z"/>
<path d="M3090 1665 c0 -8 7 -15 15 -15 8 0 15 7 15 15 0 8 -7 15 -15 15 -8 0
-15 -7 -15 -15z"/>
<path d="M694 1624 c-9 -34 18 -64 44 -48 9 6 19 19 21 29 2 14 -2 17 -18 12
-16 -4 -21 -1 -21 14 0 28 -19 23 -26 -7z"/>
<path d="M195 1621 c-8 -13 43 -34 63 -26 7 3 12 11 10 18 -6 15 -64 22 -73 8z"/>
<path d="M3093 1605 c-4 -11 8 -31 36 -59 28 -28 41 -51 41 -69 0 -20 5 -27
20 -27 11 0 28 -9 37 -20 10 -11 21 -20 25 -20 17 0 6 37 -20 67 -15 18 -42
53 -61 78 -41 56 -69 73 -78 50z"/>
<path d="M356 1575 c-3 -9 0 -15 9 -15 8 0 15 7 15 15 0 8 -4 15 -9 15 -5 0
-11 -7 -15 -15z"/>
<path d="M3146 1270 c-14 -17 -26 -37 -26 -45 0 -7 -7 -18 -15 -25 -12 -10
-15 -10 -15 3 0 8 -6 20 -14 26 -17 14 -60 -4 -107 -46 -27 -24 -28 -41 -4
-71 9 -10 35 15 35 34 0 13 9 28 20 34 15 8 24 5 45 -17 23 -25 27 -26 47 -14
19 12 24 11 39 -8 9 -11 22 -21 28 -21 16 0 13 26 -4 44 -17 16 -20 52 -5 61
18 11 49 -34 56 -83 9 -67 20 -83 39 -58 8 11 13 28 10 38 -7 21 20 65 45 73
24 8 73 -23 66 -41 -7 -17 3 -44 15 -44 5 0 9 21 9 46 0 38 -5 50 -32 75 -18
16 -38 29 -45 29 -14 0 -38 -23 -60 -57 l-16 -24 -15 33 c-8 18 -15 44 -16 58
-2 40 -46 39 -80 0z"/>
<path d="M883 1246 c3 -42 10 -51 26 -32 15 17 4 66 -15 66 -8 0 -12 -11 -11
-34z"/>
<path d="M2509 1238 c-6 -69 15 -90 72 -75 47 11 61 34 34 53 -24 18 -35 18
-35 0 0 -19 -25 -27 -39 -13 -6 6 -11 19 -11 29 0 20 -19 25 -21 6z"/>
<path d="M2710 1205 c-5 -13 -18 -30 -30 -37 -29 -18 -25 -35 10 -41 35 -7 39
-22 10 -37 -11 -6 -20 -18 -20 -28 0 -14 -4 -12 -19 7 -17 22 -49 22 -35 -1 3
-5 -10 -23 -29 -39 -22 -18 -37 -40 -39 -57 l-3 -27 -15 33 c-20 43 -38 41
-42 -5 -5 -55 -28 -55 -28 1 0 36 5 50 26 69 15 14 34 23 44 20 12 -3 22 3 29
16 7 13 22 21 36 21 25 0 31 14 17 37 -6 9 -17 10 -39 4 -17 -5 -34 -7 -36 -4
-3 2 -8 -5 -12 -16 -3 -11 -16 -21 -28 -23 -15 -2 -30 -19 -49 -58 -31 -63
-34 -103 -13 -144 19 -36 20 -33 -18 -40 -19 -3 -46 -19 -61 -35 -21 -22 -40
-30 -82 -35 -85 -10 -154 -53 -154 -96 0 -27 38 -60 69 -60 26 0 25 0 -6 -20
-18 -11 -34 -25 -34 -32 -7 -62 -6 -86 7 -105 8 -12 14 -24 14 -26 0 -3 -19
-10 -43 -16 -24 -6 -54 -19 -68 -29 -13 -11 -43 -22 -67 -25 -38 -5 -44 -2
-52 16 -25 60 -96 108 -129 88 -17 -11 -6 -31 18 -31 18 0 81 -59 81 -77 0 -6
-7 -16 -15 -23 -10 -9 -15 -9 -15 -1 0 6 -7 11 -15 11 -10 0 -15 -10 -15 -28
0 -44 -44 -76 -137 -101 -28 -8 -43 -17 -43 -28 0 -13 8 -15 45 -10 59 8 97
29 154 82 46 43 131 82 152 69 6 -3 18 1 27 9 9 9 43 25 76 37 l58 22 29 -21
c19 -14 43 -21 72 -21 27 0 49 -6 57 -15 7 -8 21 -15 30 -15 32 0 51 -12 61
-36 7 -19 16 -24 45 -24 27 0 42 -7 62 -30 15 -17 34 -30 44 -30 29 0 72 -23
99 -54 15 -17 33 -27 41 -24 24 10 78 -19 78 -42 0 -21 14 -27 25 -10 7 11 29
4 80 -29 53 -34 123 -61 159 -61 24 0 27 2 16 15 -7 8 -16 15 -21 15 -9 0 -68
29 -224 109 -55 28 -104 51 -109 51 -5 0 -23 11 -40 23 -17 13 -45 28 -62 34
-17 6 -51 25 -74 42 -24 17 -49 31 -57 31 -21 0 -15 19 17 52 l30 30 63 -16
c222 -54 237 -59 237 -84 0 -20 11 -33 88 -105 28 -26 49 -53 46 -60 -6 -18
33 -67 54 -67 14 0 17 10 17 50 0 33 -4 50 -12 50 -7 0 -13 5 -13 10 0 13 14
12 80 -5 142 -36 190 -52 183 -59 -10 -9 37 -45 59 -46 24 0 48 28 48 56 0 28
-24 42 -44 25 -10 -9 -15 -8 -19 3 -3 8 -23 18 -44 21 -21 4 -70 15 -109 26
-38 10 -82 19 -96 19 -38 0 -149 37 -177 59 l-24 18 31 64 c36 74 53 154 31
147 -7 -2 -17 -20 -21 -39 -18 -71 -28 -87 -63 -93 -18 -4 -45 -2 -61 4 -16 7
-72 20 -125 31 -53 10 -113 26 -133 34 -51 21 -86 20 -86 -4 0 -27 -33 -35
-68 -17 -16 8 -62 24 -101 35 -85 24 -91 27 -91 51 0 10 -5 20 -12 22 -13 5
20 57 36 58 5 0 17 6 25 14 9 7 38 16 64 19 l49 5 -7 -34 c-6 -33 -4 -35 40
-55 44 -20 75 -20 75 -1 0 5 -17 15 -38 21 -35 12 -39 17 -40 49 -1 20 5 43
14 53 25 28 7 43 -24 22 -21 -13 -44 -17 -100 -16 -40 1 -82 5 -93 8 -53 17
14 63 107 72 41 4 61 12 82 33 36 35 114 57 242 68 133 11 186 1 224 -39 24
-26 34 -30 59 -25 48 10 59 25 52 65 -8 45 -18 56 -35 36 -10 -12 -40 -22 -40
-12 0 1 9 21 20 42 18 37 24 40 68 45 34 4 48 10 50 23 3 13 -4 17 -30 17 -33
0 -34 1 -30 36 6 45 -14 61 -43 35 -11 -10 -28 -21 -37 -24 -11 -4 -15 -13
-11 -26 3 -12 1 -21 -6 -21 -6 0 -11 -8 -11 -17 0 -16 -1 -16 -16 -2 -14 14
-13 19 6 52 12 21 29 37 37 37 15 0 15 2 -3 67 -5 18 -1 22 23 25 20 2 28 8
28 23 0 16 -8 21 -40 23 -22 2 -44 8 -49 13 -6 5 -34 9 -63 9 -48 0 -55 -3
-63 -25z m106 -26 c26 -16 34 -27 34 -50 0 -17 -6 -32 -15 -35 -8 -4 -15 -12
-15 -19 0 -8 -13 -23 -29 -34 l-28 -20 -13 23 c-16 31 -5 63 25 70 37 9 30 26
-10 26 -30 0 -35 3 -35 23 0 13 3 27 7 30 12 13 46 7 79 -14z m-131 -158 c3
-5 19 -12 35 -16 32 -7 50 -30 50 -64 0 -18 -6 -20 -55 -20 -44 1 -55 5 -60
20 -4 10 -17 22 -31 25 -35 9 -30 38 9 51 44 14 45 14 52 4z m-121 -119 c-5
-16 -14 -22 -35 -22 -36 0 -36 5 -1 35 30 26 44 21 36 -13z m70 12 c24 -9 19
-21 -10 -28 -32 -8 -41 -1 -24 19 14 17 13 17 34 9z m-354 -494 c13 -9 13 -10
0 -10 -8 0 -22 5 -30 10 -13 9 -13 10 0 10 8 0 22 -5 30 -10z m110 -40 c0 -5
-4 -10 -9 -10 -6 0 -13 5 -16 10 -3 6 1 10 9 10 9 0 16 -4 16 -10z m959 -265
c3 -12 -13 -9 -17 4 -2 7 0 11 6 7 5 -3 10 -8 11 -11z"/>
<path d="M880 1178 c0 -8 21 -37 48 -64 26 -27 54 -60 63 -74 9 -14 20 -22 24
-18 14 14 -6 58 -45 99 -22 23 -40 46 -40 51 0 4 -4 8 -9 8 -5 0 -16 3 -25 6
-10 4 -16 1 -16 -8z"/>
<path d="M3353 1088 c-6 -7 -15 -26 -20 -43 -9 -29 -13 -30 -71 -33 l-62 -3 0
35 c0 19 -5 38 -11 42 -15 9 -30 -17 -23 -41 3 -11 2 -16 -3 -10 -4 6 -23 18
-42 28 -37 19 -61 10 -61 -24 0 -10 -7 -22 -17 -27 -22 -13 -9 -47 15 -37 51
21 81 23 97 5 11 -12 14 -26 10 -40 -4 -11 -2 -27 4 -34 11 -13 4 -56 -10 -56
-5 0 -9 9 -9 21 0 38 -20 58 -72 74 -28 8 -54 12 -57 9 -13 -13 19 -39 53 -42
l37 -3 -7 -50 -7 -49 36 0 c48 0 164 -37 170 -54 6 -14 93 -34 103 -24 10 11
-9 38 -27 38 -10 0 -30 11 -45 25 -15 14 -36 25 -47 25 -15 0 -11 7 20 28 63
43 77 56 91 79 20 37 15 59 -18 73 -29 12 -29 12 -15 47 8 20 15 39 15 44 0
13 -16 11 -27 -3z m4 -129 c9 -9 1 -20 -29 -45 -22 -19 -44 -34 -48 -34 -9 0
-25 40 -22 53 1 4 -5 10 -13 13 -8 4 -15 10 -15 15 0 13 114 11 127 -2z"/>
<path d="M3425 1068 c-3 -7 -1 -42 4 -78 l8 -65 2 78 c1 72 -4 93 -14 65z"/>
<path d="M3432 855 c0 -16 2 -22 5 -12 2 9 2 23 0 30 -3 6 -5 -1 -5 -18z"/>
<path d="M1823 783 c-21 -8 -15 -29 12 -41 17 -8 25 -20 26 -39 2 -64 10 -127
19 -142 8 -13 10 -11 11 9 4 86 -1 145 -18 180 -18 39 -25 44 -50 33z"/>
<path d="M3048 754 c-32 -29 -38 -42 -38 -75 0 -42 -34 -89 -65 -89 -8 0 -15
-4 -15 -9 0 -13 30 -22 50 -16 9 3 33 -1 53 -10 47 -19 87 -20 87 0 0 9 -14
17 -40 21 -54 9 -70 29 -42 54 11 10 23 34 27 52 4 18 16 47 26 64 10 17 19
34 19 38 0 16 -28 3 -62 -30z"/>
<path d="M1162 588 c-7 -7 -12 -22 -12 -34 0 -56 -38 -108 -54 -71 -3 8 -12 4
-28 -14 -13 -14 -31 -29 -40 -32 -32 -11 -13 -58 28 -71 27 -8 48 11 65 59 18
48 39 46 39 -4 0 -24 5 -41 14 -44 9 -4 12 -14 9 -26 -3 -13 -1 -21 7 -21 7 0
9 -8 5 -19 -3 -12 0 -21 11 -25 42 -16 45 27 7 91 -23 39 -27 60 -29 131 -1
46 -4 86 -6 88 -3 2 -10 -2 -16 -8z m-77 -168 c-10 -11 -20 -18 -23 -16 -5 6
21 35 32 36 5 0 1 -9 -9 -20z"/>
<path d="M2182 345 c-21 -34 -21 -35 -2 -35 36 0 21 -17 -19 -23 -48 -6 -81
-37 -81 -76 0 -22 -6 -30 -25 -35 -14 -4 -25 -13 -25 -21 0 -22 -34 -18 -55 5
-24 26 -15 33 40 32 38 0 46 3 43 16 -4 23 -86 30 -94 9 -4 -11 -16 -14 -44
-10 l-38 5 0 -38 c0 -22 4 -47 9 -56 7 -12 6 -18 -1 -18 -6 0 -17 -15 -25 -34
-8 -19 -25 -42 -37 -50 l-22 -16 26 0 c25 0 68 33 68 52 0 18 50 19 80 2 26
-16 32 -16 39 -5 7 11 14 10 39 -8 35 -24 88 -27 118 -7 11 8 45 16 75 18 47
3 54 6 53 24 0 19 5 20 68 18 51 -2 68 1 68 11 0 7 -7 15 -15 19 -26 9 -17 43
14 56 23 9 33 9 50 -2 26 -16 35 -39 20 -48 -8 -6 -8 -13 0 -27 5 -11 7 -23 3
-27 -9 -10 19 -26 46 -26 20 0 23 4 20 28 -2 16 -12 31 -25 36 -17 8 -20 16
-16 42 5 29 1 35 -28 53 -40 25 -79 27 -79 6 0 -8 -6 -15 -14 -15 -7 0 -19 -7
-26 -15 -16 -19 -49 -19 -56 0 -4 8 -15 15 -25 15 -20 0 -26 -15 -9 -25 6 -3
10 -15 10 -25 0 -24 -31 -42 -51 -29 -24 15 -51 10 -56 -10 -3 -11 -16 -22
-29 -25 -13 -4 -24 -11 -24 -16 0 -6 -11 -10 -25 -10 -29 0 -85 37 -85 56 0
13 31 24 72 24 15 0 33 6 40 13 7 6 26 17 43 22 16 6 39 25 50 42 21 33 55 44
55 18 0 -17 36 -39 50 -30 15 9 12 45 -4 45 -8 0 -27 13 -44 28 -16 15 -41 33
-56 40 -18 8 -25 18 -23 33 4 36 -19 32 -41 -6z m-30 -167 c-7 -7 -12 -8 -12
-2 0 14 12 26 19 19 2 -3 -1 -11 -7 -17z"/>
<path d="M376 324 c-3 -8 1 -28 9 -44 8 -16 15 -34 15 -40 0 -5 11 -33 25 -62
14 -28 25 -60 25 -70 0 -26 51 -78 80 -80 39 -4 32 29 -10 50 -23 11 -36 25
-38 41 -2 14 -10 34 -17 45 -7 12 -25 54 -40 93 -28 78 -39 92 -49 67z"/>
<path d="M3158 304 c-9 -15 10 -54 27 -54 8 0 15 4 15 9 0 15 -37 55 -42 45z"/>
<path d="M3262 268 c-19 -19 -14 -37 13 -50 33 -15 48 0 39 36 -7 28 -31 35
-52 14z"/>
<path d="M1190 223 c0 -16 -4 -33 -8 -40 -10 -15 -426 -154 -463 -153 -8 0
-24 -7 -35 -16 -33 -27 116 -11 218 23 75 26 89 28 110 17 12 -7 36 -13 52
-14 23 0 27 -3 23 -20 -5 -19 0 -20 61 -20 64 0 77 6 32 15 -13 3 -36 18 -51
34 -14 16 -39 31 -55 33 -24 3 -17 8 42 26 40 12 77 29 84 37 7 9 21 13 31 10
10 -3 29 1 43 10 25 16 25 16 39 -18 8 -19 20 -37 25 -41 6 -4 14 -27 18 -51
7 -50 16 -61 32 -42 15 18 -5 93 -35 133 -13 17 -23 38 -23 47 0 28 -49 57
-96 57 -41 0 -44 -2 -44 -27z"/>
<path d="M241 199 c-22 -45 -21 -60 3 -40 15 13 32 69 23 78 -3 3 -15 -14 -26
-38z"/>
<path d="M1370 202 c0 -27 56 -49 170 -67 113 -18 155 -17 155 5 0 11 -16 17
-55 22 -124 14 -189 27 -218 42 -40 21 -52 20 -52 -2z"/>
<path d="M70 189 c-27 -11 -69 -57 -70 -76 0 -14 36 -27 50 -18 5 3 10 13 10
21 0 10 6 13 18 10 58 -17 72 -18 72 -3 0 8 -7 20 -15 27 -9 7 -13 21 -10 31
7 22 -13 24 -55 8z"/>
<path d="M2610 40 c0 -13 7 -20 19 -20 11 0 23 -5 26 -10 3 -6 26 -10 51 -10
37 0 43 2 32 13 -11 10 -105 47 -122 47 -3 0 -6 -9 -6 -20z"/>
<path d="M2403 33 c-17 -2 -37 -11 -43 -19 -11 -12 -5 -14 37 -14 42 0 49 3
49 20 0 11 -3 19 -6 18 -3 0 -19 -3 -37 -5z"/>
<path d="M1925 10 c-4 -6 9 -10 31 -10 42 0 42 4 2 14 -15 3 -30 2 -33 -4z"/>
</g>
</svg>
