<?xml version="1.0" standalone="no"?>
<!DOCTYPE svg PUBLIC "-//W3C//DTD SVG 20010904//EN"
 "http://www.w3.org/TR/2001/REC-SVG-20010904/DTD/svg10.dtd">
<svg version="1.0" xmlns="http://www.w3.org/2000/svg"
 width="344.000000pt" height="256.000000pt" viewBox="0 0 344.000000 256.000000"
 preserveAspectRatio="xMidYMid meet">
<metadata>
Created by potrace 1.16, written by Peter Selinger 2001-2019
</metadata>
<g transform="translate(0.000000,256.000000) scale(0.100000,-0.100000)"
fill="#000000" stroke="none">
<path d="M1889 2543 c-3 -68 3 -606 7 -640 7 -45 7 -44 -61 -55 -12 -2 -19
-11 -19 -21 1 -9 -4 -17 -12 -17 -8 0 -14 -5 -14 -11 0 -6 -6 -9 -12 -7 -7 3
-13 12 -13 21 0 10 -13 27 -28 40 -17 13 -32 37 -36 57 -6 33 -8 34 -58 37
-28 2 -54 -1 -58 -7 -3 -5 -31 -10 -62 -10 -46 0 -56 -3 -60 -20 -3 -11 -9
-20 -14 -20 -5 0 -9 9 -9 20 0 11 -4 20 -9 20 -5 0 -11 14 -14 30 -4 18 -13
30 -22 30 -8 0 -15 7 -15 15 0 21 -27 30 -44 16 -11 -9 -15 -7 -19 9 -5 20 -8
20 -39 7 -18 -8 -39 -12 -45 -10 -17 6 -29 -27 -13 -37 8 -5 2 -11 -19 -18
-30 -11 -44 -42 -18 -42 8 -1 7 -4 -3 -13 -8 -7 -15 -26 -14 -44 1 -18 -2 -54
-7 -80 -4 -27 -3 -52 2 -58 5 -5 9 -17 9 -26 0 -10 8 -20 18 -23 24 -8 46 -86
25 -86 -8 0 -17 9 -20 20 -6 23 -11 24 -47 10 -23 -8 -26 -7 -26 13 0 28 -17
47 -42 47 -10 0 -18 5 -18 10 0 6 5 10 12 10 8 0 7 6 -4 16 -17 18 -38 11 -38
-12 0 -8 -10 -14 -25 -14 -16 0 -25 -6 -25 -16 0 -13 -3 -14 -14 -5 -18 15
-89 4 -83 -13 2 -6 19 -13 38 -16 40 -6 37 -25 -5 -26 -16 0 -32 -6 -34 -12
-3 -10 -7 -10 -17 -2 -8 6 -33 10 -57 8 -39 -3 -43 -5 -41 -28 1 -14 -3 -41
-8 -60 -6 -23 -5 -36 3 -41 6 -4 8 -14 5 -24 -4 -9 -11 -13 -17 -10 -5 3 -10
-1 -10 -10 0 -9 -5 -13 -11 -10 -7 5 -5 12 5 23 11 13 12 27 6 60 -4 23 -10
46 -14 49 -3 3 -1 12 5 20 9 10 8 18 -5 31 -9 10 -16 22 -16 26 0 5 9 -2 20
-15 l20 -24 6 22 c4 14 11 20 17 16 12 -7 76 -5 89 3 4 3 4 12 1 20 -5 12 -15
15 -44 11 -37 -5 -39 -4 -39 21 1 22 2 24 10 11 8 -13 19 -14 72 -7 35 5 73 7
86 5 16 -3 22 1 22 14 0 16 -8 19 -50 19 -27 0 -50 -4 -50 -8 0 -11 -63 -2
-71 11 -4 5 -18 10 -33 10 -24 0 -26 2 -26 48 0 48 -1 49 -31 49 -17 0 -28 4
-24 10 11 18 36 11 63 -18 23 -24 33 -28 70 -24 60 6 58 32 -3 32 -25 0 -45 5
-45 10 0 6 20 10 45 10 45 0 54 7 34 27 -6 6 -26 7 -52 3 -44 -9 -105 -2 -122
12 -5 5 -19 15 -29 22 -19 13 -19 14 2 25 13 7 38 13 56 15 18 2 38 6 45 10
20 13 -7 36 -42 36 -17 0 -27 3 -23 7 4 4 17 8 29 8 14 0 22 6 22 18 0 9 -3
17 -7 17 -5 0 -19 0 -33 0 -18 0 -28 -7 -35 -25 -16 -43 -32 -30 -24 20 6 44
6 45 -22 45 -16 0 -36 -4 -44 -10 -9 -5 -19 -5 -27 2 -9 7 -25 4 -58 -11 -25
-11 -49 -21 -53 -21 -17 0 -42 -37 -36 -53 4 -11 0 -19 -10 -23 -13 -5 -14 -9
-4 -21 6 -8 11 -36 9 -64 -2 -41 1 -53 21 -70 l23 -21 -22 5 c-19 4 -23 1 -23
-20 0 -24 2 -25 45 -21 42 5 45 4 45 -17 0 -13 7 -25 15 -29 8 -3 15 -10 15
-17 0 -6 -7 -9 -15 -5 -12 4 -15 -4 -15 -44 0 -43 3 -50 20 -50 11 0 20 -4 20
-10 0 -5 -9 -10 -20 -10 -11 0 -20 -7 -20 -15 0 -8 7 -15 15 -15 8 0 15 -4 15
-10 0 -5 -11 -10 -25 -10 -20 0 -25 5 -25 26 0 22 -3 25 -32 21 -19 -2 -34 -9
-34 -18 -1 -8 -2 -18 -3 -24 -1 -5 -10 1 -21 15 -17 21 -21 23 -31 10 -8 -11
-12 -12 -16 -2 -2 6 -20 12 -39 12 -29 0 -34 -3 -34 -24 0 -14 5 -28 10 -31
19 -12 11 -26 -9 -15 -11 5 -36 10 -55 10 -20 0 -36 5 -36 10 0 6 9 10 20 10
11 0 20 7 20 16 0 11 -8 14 -32 12 -32 -3 -33 -5 -32 -45 0 -24 -3 -43 -8 -43
-4 0 -8 17 -8 39 0 35 -3 39 -31 45 -17 3 -28 10 -25 15 3 5 15 7 26 4 16 -4
20 0 20 19 0 21 -4 23 -39 20 -21 -2 -42 1 -45 7 -4 6 -12 11 -18 11 -17 0 -3
-321 14 -331 8 -5 16 -2 20 9 4 9 7 12 7 5 1 -18 42 -27 52 -12 4 7 11 10 15
7 22 -23 -71 -45 -103 -25 -10 7 -13 -35 -13 -194 l0 -202 118 8 c64 4 136 7
160 6 41 -1 42 0 42 31 0 51 11 78 30 78 20 0 50 40 50 68 0 10 3 21 6 24 8 9
73 -35 74 -49 0 -18 35 -16 50 2 7 8 10 22 6 30 -7 18 -32 20 -39 3 -3 -8 -6
-6 -6 5 -1 9 -5 17 -11 17 -5 0 -10 5 -10 10 0 6 16 10 35 10 36 0 43 8 24 27
-6 6 -9 17 -6 25 3 8 10 0 17 -19 7 -18 18 -33 25 -33 21 0 30 -22 14 -34 -8
-6 -22 -25 -31 -41 -9 -17 -29 -37 -44 -45 -35 -20 -41 -37 -16 -44 25 -8 33
-58 16 -92 -7 -13 -10 -32 -7 -41 6 -14 -1 -15 -63 -10 -38 4 -151 10 -251 14
-177 6 -183 6 -183 -13 0 -12 7 -20 18 -20 263 -9 606 -12 636 -5 36 9 55 24
56 44 0 4 -18 7 -39 7 -49 0 -71 8 -71 26 0 9 11 14 28 14 15 0 35 9 45 20 21
25 37 26 37 1 0 -16 9 -21 48 -25 26 -4 74 -11 107 -16 76 -13 202 -21 221
-13 10 3 14 23 15 62 l1 56 10 -50 c6 -33 6 -56 -1 -66 -13 -23 -5 -29 41 -29
41 0 61 21 39 43 -19 19 -14 111 8 131 19 17 20 17 30 -21 14 -48 14 -93 1
-93 -5 0 -10 23 -10 50 0 38 -4 50 -15 50 -19 0 -20 -63 -3 -120 14 -44 22
-49 37 -22 6 9 11 11 11 5 0 -16 27 -17 32 -1 3 7 9 8 18 3 8 -5 29 -8 47 -6
30 2 31 1 27 -27 -6 -37 12 -51 31 -26 13 18 15 18 30 -4 10 -13 27 -22 42
-22 22 0 25 4 21 25 -5 22 -1 26 36 36 23 5 49 12 59 15 9 3 17 2 17 -3 0 -5
10 -13 22 -18 13 -6 24 -18 26 -29 3 -12 0 -16 -8 -11 -6 4 -17 0 -23 -8 -9
-10 -44 -17 -127 -22 -235 -15 -285 -20 -285 -30 0 -6 40 -11 95 -13 70 -2 99
-7 112 -19 13 -12 44 -18 103 -21 83 -4 85 -5 85 -29 0 -23 -3 -25 -32 -19
-48 10 -362 23 -371 16 -4 -4 1 -14 10 -22 15 -13 57 -16 245 -19 143 -3 223
-8 217 -13 -14 -15 -11 -22 17 -35 28 -12 90 -6 100 11 13 21 -14 31 -55 20
-42 -10 -50 -5 -29 16 15 15 63 15 88 0 26 -16 37 -3 17 20 -23 25 -22 29 16
36 62 11 661 9 689 -2 14 -6 84 -14 155 -18 70 -4 133 -10 138 -14 6 -4 32 -8
58 -8 26 0 104 -6 172 -12 68 -7 133 -10 145 -7 11 3 18 1 14 -4 -3 -5 31 -9
78 -9 47 0 89 -5 95 -11 8 -8 13 -8 17 0 12 19 -5 33 -31 26 -16 -4 -22 -2
-18 5 4 6 -17 10 -59 10 -36 0 -105 7 -153 15 -80 13 -346 35 -427 35 -19 0
-41 9 -55 21 -24 22 -58 27 -256 36 -103 5 -112 7 -138 33 -19 19 -35 26 -49
22 -20 -5 -20 -4 -4 20 9 13 18 51 20 84 2 32 7 82 11 109 5 37 3 55 -9 70
l-15 20 -15 -20 c-10 -13 -15 -15 -16 -6 0 8 -8 20 -17 27 -17 13 -17 13 0 14
20 0 24 30 3 30 -7 0 -19 7 -26 15 -7 8 -18 15 -25 15 -16 0 -68 -87 -60 -99
3 -5 0 -13 -6 -17 -17 -10 -2 65 16 82 8 8 16 22 19 32 5 15 18 19 71 20 43 0
66 -3 67 -11 0 -7 2 -16 3 -22 2 -5 3 -23 4 -38 1 -16 8 -30 19 -34 26 -10 44
-31 37 -43 -4 -6 -2 -17 4 -24 6 -7 14 -35 18 -61 5 -38 3 -47 -8 -43 -8 3
-16 20 -19 39 -6 40 -15 30 -25 -27 -6 -40 -5 -42 23 -52 20 -7 44 -7 74 -1
23 6 95 8 158 5 106 -5 115 -7 118 -25 4 -22 32 -29 33 -8 0 6 4 2 9 -10 10
-25 45 -31 53 -10 4 9 7 9 14 0 18 -25 93 -37 77 -12 -3 5 4 9 15 9 11 0 24
-7 29 -16 10 -19 32 -11 32 12 0 8 7 14 15 14 15 0 21 31 9 43 -4 3 -17 -1
-30 -10 -30 -19 -38 -14 -25 19 24 65 84 26 74 -48 -3 -26 -1 -44 6 -48 13 -9
23 13 25 57 1 26 6 31 22 29 29 -4 56 30 52 65 -4 37 -21 36 -28 -2 -8 -46
-19 -16 -13 36 4 37 9 46 22 42 23 -6 40 27 42 87 2 46 0 54 -27 75 -33 27
-27 45 8 21 12 -9 31 -16 41 -16 15 0 17 -6 13 -32 -3 -18 -8 -73 -11 -121 -4
-57 -14 -105 -27 -135 -12 -26 -22 -50 -22 -54 -1 -3 -4 -10 -8 -14 -11 -10
-10 -44 1 -44 5 0 14 7 21 15 7 9 22 12 40 9 32 -7 70 10 70 31 0 10 11 13 40
10 22 -2 41 -1 44 3 7 12 -12 204 -20 211 -5 3 -9 28 -9 55 0 33 -5 51 -14 54
-15 5 -14 -13 7 -196 5 -35 5 -65 1 -68 -8 -4 -45 98 -58 159 -5 21 -5 56 0
78 5 22 6 52 2 67 -14 53 -1 182 18 182 5 0 9 12 9 26 0 14 6 31 13 39 14 13
14 42 2 260 -3 66 -10 124 -16 129 -5 6 -9 18 -9 28 0 10 -5 18 -11 18 -5 0
-3 10 5 22 17 24 21 73 7 82 -4 3 -19 -4 -32 -15 -20 -17 -22 -23 -10 -40 16
-26 4 -40 -14 -16 -24 33 12 97 55 97 16 0 20 7 20 35 0 24 -5 35 -15 35 -8 0
-15 -6 -15 -14 0 -7 -9 -16 -20 -19 -26 -7 -25 -4 4 28 15 16 30 23 40 19 13
-5 16 2 18 37 1 24 4 62 5 84 2 22 6 95 9 163 5 96 9 120 19 112 14 -11 41 -5
65 16 8 7 29 20 45 29 30 15 29 15 -45 13 -65 -3 -75 -5 -72 -20 2 -12 -2 -16
-12 -12 -20 8 -24 -15 -28 -138 -2 -54 -7 -100 -11 -104 -4 -4 -16 1 -27 11
-20 19 -28 41 -10 30 6 -3 10 -4 10 -2 0 2 4 27 9 54 6 27 6 65 2 84 -4 19 -4
48 -1 65 l7 32 -88 1 c-49 0 -89 -3 -89 -8 0 -10 46 -31 70 -31 48 0 50 -34
24 -500 -6 -117 -14 -311 -14 -349 0 -17 -5 -31 -11 -31 -7 0 -9 11 -6 30 4
16 4 37 1 45 -9 21 -82 19 -120 -4 -16 -10 -47 -20 -67 -23 -30 -3 -37 -1 -39
15 -4 26 -63 31 -96 9 -18 -12 -23 -22 -20 -44 3 -16 1 -31 -4 -34 -5 -4 0
-17 13 -30 14 -15 19 -29 14 -41 -18 -43 -16 -96 5 -115 21 -20 29 -98 10 -98
-5 0 -10 6 -10 13 0 7 -6 25 -12 40 -11 22 -20 27 -50 27 -35 0 -38 2 -38 29
0 22 -5 30 -24 33 -15 3 -31 -2 -40 -11 -15 -14 -16 -14 -16 2 0 10 14 30 31
45 25 22 32 37 34 75 3 43 1 49 -21 59 -13 6 -27 22 -30 35 -4 13 -7 23 -8 23
0 0 -15 -4 -33 -9 -18 -5 -48 -6 -69 -1 -24 6 -43 5 -50 -1 -9 -7 -13 -4 -16
13 -5 34 -52 44 -144 28 -44 -8 -78 -19 -81 -27 -3 -8 -12 -2 -27 20 -16 24
-30 33 -57 35 -31 3 -39 -2 -69 -39 -28 -35 -31 -44 -19 -53 8 -6 13 -21 11
-33 -2 -12 5 -27 16 -35 26 -18 45 -55 32 -63 -5 -3 -10 -21 -11 -38 0 -31 -1
-31 -10 -7 -17 42 -53 54 -62 20 -3 -13 1 -21 13 -25 14 -5 35 -53 26 -62 -1
-2 -19 13 -39 31 l-37 34 0 168 c1 93 -4 185 -10 204 -8 27 -22 478 -20 653 0
29 -19 39 -21 10z m1296 -343 c3 -5 1 -10 -4 -10 -6 0 -11 5 -11 10 0 6 2 10
4 10 3 0 8 -4 11 -10z m-35 -24 c0 11 20 -18 20 -29 0 -4 -11 0 -25 10 -13 10
-25 22 -25 27 0 5 7 3 15 -4 8 -7 15 -9 15 -4z m-2670 -276 c0 -5 -7 -10 -15
-10 -8 0 -15 5 -15 10 0 6 7 10 15 10 8 0 15 -4 15 -10z m795 0 c3 -5 -1 -10
-9 -10 -9 0 -16 5 -16 10 0 6 4 10 9 10 6 0 13 -4 16 -10z m-840 -20 c3 -5 1
-10 -4 -10 -6 0 -11 5 -11 10 0 6 2 10 4 10 3 0 8 -4 11 -10z m2685 0 c0 -5
-4 -10 -10 -10 -5 0 -10 5 -10 10 0 6 5 10 10 10 6 0 10 -4 10 -10z m-2603
-27 c-9 -9 -19 -14 -23 -11 -10 10 6 28 24 28 15 0 15 -1 -1 -17z m42 2 c3
-12 -13 -9 -17 4 -2 7 0 11 6 7 5 -3 10 -8 11 -11z m52 5 c28 -16 23 -32 -6
-18 -14 6 -25 15 -25 20 0 11 7 10 31 -2z m2539 -23 c0 -5 -4 -5 -10 -2 -5 3
-10 14 -10 23 0 15 2 15 10 2 5 -8 10 -19 10 -23z m7 -42 c-4 -8 -12 -15 -19
-14 -10 0 -10 2 0 6 6 2 12 12 12 21 0 8 3 13 6 9 4 -3 4 -13 1 -22z m-2437 5
c0 -5 -7 -10 -15 -10 -8 0 -15 5 -15 10 0 6 7 10 15 10 8 0 15 -4 15 -10z
m-143 -32 c-3 -7 -5 -2 -5 12 0 14 2 19 5 13 2 -7 2 -19 0 -25z m887 17 c-7
-16 -24 -21 -24 -6 0 8 7 13 27 20 1 1 0 -6 -3 -14z m-794 -5 c0 -5 -5 -10
-11 -10 -5 0 -7 5 -4 10 3 6 8 10 11 10 2 0 4 -4 4 -10z m615 0 c-3 -5 -13
-10 -21 -10 -8 0 -14 5 -14 10 0 6 9 10 21 10 11 0 17 -4 14 -10z m-745 -20
c0 -5 6 -10 14 -10 15 0 69 -40 63 -47 -3 -2 -14 1 -26 8 -25 16 -29 13 -37
-39 -6 -41 -6 -42 25 -48 36 -7 38 -12 14 -30 -17 -12 -16 -15 15 -39 33 -28
82 -102 82 -126 0 -8 -9 -1 -19 14 -44 67 -121 107 -129 67 -4 -21 27 -59 34
-43 4 10 10 10 25 0 22 -14 26 -32 5 -24 -8 3 -26 0 -41 -6 -19 -9 -24 -17
-20 -32 2 -11 5 -26 5 -32 0 -16 56 -17 65 -2 4 6 13 8 20 5 8 -3 16 0 18 7 5
13 67 -47 67 -66 0 -6 -9 -1 -20 11 -22 24 -40 29 -40 11 0 -7 -11 -8 -29 -4
-34 7 -91 -18 -91 -40 0 -8 -4 -15 -10 -15 -5 0 -10 20 -10 45 0 33 -4 45 -15
45 -8 0 -15 5 -15 10 0 6 8 10 18 10 14 0 17 7 15 33 -2 17 3 57 11 87 8 31
11 56 5 58 -5 2 -9 8 -9 13 0 6 5 7 10 4 17 -11 23 23 7 45 -10 14 -13 37 -11
67 3 26 0 51 -7 59 -8 10 -8 14 0 14 6 0 11 -4 11 -10z m93 -4 c4 -10 1 -13
-9 -9 -7 3 -14 9 -14 14 0 14 17 10 23 -5z m1084 -121 c-1 -69 1 -126 5 -127
3 -2 4 -16 1 -31 -4 -19 -11 -27 -22 -25 -13 3 -16 22 -19 123 -3 115 10 201
29 190 4 -3 7 -61 6 -130z m-254 119 c4 -4 -13 -24 -36 -45 -40 -36 -41 -38
-23 -52 17 -13 17 -14 2 -20 -12 -5 -15 -13 -11 -28 6 -17 3 -20 -12 -17 -14
2 -19 14 -21 49 -3 43 -1 47 26 58 16 7 34 23 40 37 12 24 23 30 35 18z m-763
-14 c0 -5 -4 -10 -10 -10 -5 0 -10 5 -10 10 0 6 5 10 10 10 6 0 10 -4 10 -10z
m610 -40 c0 -5 -2 -10 -4 -10 -3 0 -8 5 -11 10 -3 6 -1 10 4 10 6 0 11 -4 11
-10z m-649 -33 c-10 -9 -11 -8 -5 6 3 10 9 15 12 12 3 -3 0 -11 -7 -18z m59
13 c0 -5 -4 -10 -10 -10 -5 0 -10 5 -10 10 0 6 5 10 10 10 6 0 10 -4 10 -10z
m-205 -10 c3 -5 2 -10 -4 -10 -5 0 -13 5 -16 10 -3 6 -2 10 4 10 5 0 13 -4 16
-10z m937 -12 c-7 -7 -12 -8 -12 -2 0 6 3 14 7 17 3 4 9 5 12 2 2 -3 -1 -11
-7 -17z m198 -99 c0 -92 -3 -120 -12 -117 -9 3 -14 36 -16 108 -3 107 0 130
18 130 6 0 10 -44 10 -121z m-314 59 c1 -25 9 -47 19 -54 12 -9 13 -13 3 -16
-9 -3 -8 -9 6 -23 17 -17 17 -20 2 -30 -24 -18 -20 -38 5 -32 18 5 20 2 16
-21 -6 -29 9 -66 22 -57 11 6 36 -23 28 -32 -4 -3 -12 -1 -19 4 -7 6 -23 13
-36 16 l-24 6 7 -161 c5 -104 4 -159 -2 -155 -9 6 -25 99 -24 137 0 8 2 59 4
113 3 55 1 100 -5 103 -5 3 -13 17 -18 30 -20 52 -30 23 -30 -85 0 -88 -3
-110 -15 -115 -22 -8 -19 -39 3 -32 30 10 39 -7 44 -86 4 -62 2 -78 -9 -78 -7
0 -16 7 -19 15 -3 8 -16 17 -27 21 -12 3 -36 17 -54 30 -31 23 -32 26 -27 79
5 46 3 55 -10 55 -24 0 -22 70 2 71 16 1 16 2 0 6 -23 6 -24 26 -2 21 15 -3
23 -13 44 -58 4 -8 14 -16 23 -18 18 -4 25 41 31 223 4 108 6 121 25 133 12 8
21 21 21 30 0 34 14 -1 16 -40z m251 -55 c-7 -114 -13 -139 -34 -148 -12 -4
-13 -2 -6 7 15 19 26 148 13 148 -11 0 -4 41 12 73 17 34 21 16 15 -80z m-913
61 c-6 -23 -1 -42 27 -96 5 -10 9 -26 9 -35 -1 -11 -7 -4 -15 15 -16 37 -38
62 -55 62 -7 0 -5 8 4 22 9 12 16 30 16 40 0 10 5 18 10 18 6 0 8 -11 4 -26z
m1176 6 c0 -5 -7 -7 -15 -4 -8 4 -15 8 -15 10 0 2 7 4 15 4 8 0 15 -4 15 -10z
m1175 -10 c-3 -5 -10 -10 -16 -10 -5 0 -9 5 -9 10 0 6 7 10 16 10 8 0 12 -4 9
-10z m-1229 -57 c3 -16 12 -23 29 -23 18 0 25 -5 25 -20 0 -11 -5 -17 -12 -15
-7 3 -22 -8 -33 -25 -11 -16 -23 -30 -26 -30 -4 0 -5 33 -3 73 5 98 6 105 11
82 2 -11 6 -30 9 -42z m-939 13 c12 -4 24 -2 28 4 9 15 58 13 52 -2 -2 -7 -10
-12 -17 -10 -7 1 -18 -3 -26 -9 -11 -9 -21 -8 -43 1 -17 6 -35 9 -40 5 -6 -3
-11 -2 -11 3 0 13 13 23 24 19 6 -2 21 -7 33 -11z m1292 -9 c5 -13 16 -29 25
-36 24 -20 4 -50 -29 -44 -24 5 -36 23 -14 23 6 0 9 8 7 18 -2 9 -9 17 -16 17
-12 0 -32 23 -32 38 0 4 11 7 25 7 17 0 28 -7 34 -23z m261 -12 c0 -14 4 -25
8 -25 12 0 13 -65 2 -94 -7 -20 -6 -25 8 -28 14 -3 13 -6 -5 -16 -23 -12 -23
-12 -23 39 0 42 -3 52 -20 56 -23 6 -27 33 -5 33 14 0 19 14 18 48 -1 6 3 12
8 12 5 0 9 -11 9 -25z m102 3 c-7 -7 -12 -8 -12 -2 0 6 3 14 7 17 3 4 9 5 12
2 2 -3 -1 -11 -7 -17z m502 6 c9 -4 21 -15 27 -26 10 -18 9 -19 -20 -4 -47 25
-52 47 -7 30z m-2939 -41 c6 -12 16 -28 23 -36 9 -10 10 -17 2 -22 -5 -3 -10
-17 -10 -30 0 -13 -6 -25 -12 -28 -10 -3 -10 -9 0 -27 7 -12 11 -25 8 -28 -3
-3 -6 0 -6 6 0 7 -9 12 -20 12 -16 0 -20 7 -20 34 0 19 -4 38 -10 41 -5 3 -10
31 -10 60 0 52 1 54 23 46 12 -4 27 -17 32 -28z m2276 19 c-7 -2 -18 1 -23 6
-8 8 -4 9 13 5 13 -4 18 -8 10 -11z m-931 -2 c0 -5 -4 -10 -10 -10 -5 0 -10 5
-10 10 0 6 5 10 10 10 6 0 10 -4 10 -10z m102 -9 c-7 -4 -11 -16 -10 -27 3
-30 -14 -164 -21 -164 -11 0 8 182 21 197 6 7 13 11 17 8 3 -3 0 -10 -7 -14z
m-52 -6 c0 -9 -6 -12 -15 -9 -8 4 -15 10 -15 15 0 5 7 9 15 9 8 0 15 -7 15
-15z m1485 5 c3 -5 1 -10 -4 -10 -6 0 -11 5 -11 10 0 6 2 10 4 10 3 0 8 -4 11
-10z m-2035 -10 c0 -5 -7 -10 -16 -10 -8 0 -12 5 -9 10 3 6 10 10 16 10 5 0 9
-4 9 -10z m1537 -22 c-3 -7 -5 -2 -5 12 0 14 2 19 5 13 2 -7 2 -19 0 -25z
m-1637 13 c0 -5 -9 -11 -20 -14 -22 -6 -28 8 -7 16 19 8 27 8 27 -2z m334 -16
c-4 -8 -8 -15 -10 -15 -2 0 -4 7 -4 15 0 8 4 15 10 15 5 0 7 -7 4 -15z m1113
-7 c-3 -8 -6 -5 -6 6 -1 11 2 17 5 13 3 -3 4 -12 1 -19z m63 -10 c0 -5 -7 -3
-15 6 -8 8 -15 18 -15 22 0 3 7 1 15 -6 8 -7 15 -17 15 -22z m682 15 c8 -10
19 -30 26 -45 9 -23 9 -28 -3 -28 -7 0 -16 4 -20 10 -3 5 -12 7 -19 4 -8 -3
-17 -1 -21 5 -4 7 4 11 19 11 34 0 34 28 1 36 -14 3 -25 10 -25 15 0 15 26 10
42 -8z m71 -11 c-2 -49 -3 -55 -9 -50 -3 3 -6 17 -8 30 -1 13 -6 30 -10 37 -6
9 -3 12 10 9 12 -2 18 -11 17 -26z m-143 2 c0 -17 -22 -14 -28 4 -2 7 3 12 12
12 9 0 16 -7 16 -16z m-1505 -4 c3 -5 1 -10 -4 -10 -6 0 -11 5 -11 10 0 6 2
10 4 10 3 0 8 -4 11 -10z m1465 0 c0 -5 -4 -10 -10 -10 -5 0 -10 5 -10 10 0 6
5 10 10 10 6 0 10 -4 10 -10z m-592 -50 c12 -14 25 -37 28 -53 4 -15 11 -30
15 -33 5 -3 9 -10 9 -16 0 -5 -16 6 -36 26 -37 37 -119 82 -141 78 -19 -4 -16
8 9 27 18 15 27 16 57 7 20 -6 46 -22 59 -36z m-1448 21 c-17 -32 -12 -37 39
-36 34 0 55 -6 70 -19 25 -23 31 -56 6 -36 -19 16 -47 6 -39 -14 5 -14 2 -14
-23 -2 -15 8 -49 16 -75 20 -38 4 -48 3 -48 -9 0 -7 4 -16 9 -19 5 -3 7 -15 4
-26 -3 -11 0 -20 6 -20 17 0 13 -14 -8 -27 -19 -12 -19 -9 -19 74 0 102 14
133 60 133 25 0 27 -2 18 -19z m95 9 c4 -6 15 -8 25 -5 13 4 22 -1 29 -14 14
-25 14 -41 1 -41 -5 0 -10 6 -10 13 0 7 -16 19 -35 27 -19 8 -35 17 -35 22 0
12 18 10 25 -2z m165 1 c0 -6 -4 -12 -9 -15 -13 -8 -7 -97 9 -126 7 -14 14
-43 15 -65 1 -22 5 -53 9 -70 l8 -30 -14 25 c-12 21 -21 25 -60 25 -32 0 -44
4 -41 13 3 6 14 12 25 12 27 0 20 32 -10 45 -28 12 -28 23 1 27 19 3 22 8 19
38 -2 19 -10 39 -18 43 -19 11 -19 78 0 71 8 -3 17 -1 21 5 8 13 45 15 45 2z
m1014 -6 c18 -14 18 -15 1 -21 -16 -6 -15 -9 6 -25 13 -10 33 -19 45 -19 27 0
122 -62 104 -68 -7 -3 -19 2 -25 11 -10 15 -55 37 -73 37 -4 0 -20 -12 -37
-26 l-30 -26 -3 24 c-2 12 -8 28 -13 34 -9 11 -8 94 1 94 3 -1 14 -7 24 -15z
m-127 -40 c35 -38 35 -51 -2 -79 -24 -18 -25 -23 -25 -133 0 -89 3 -115 14
-119 8 -3 17 -12 20 -20 4 -12 1 -14 -14 -9 -17 6 -20 1 -22 -32 0 -21 0 -50
1 -65 1 -16 -3 -28 -8 -28 -14 0 -15 5 -11 208 2 163 1 172 -17 172 -22 0 -49
58 -33 74 6 6 10 17 10 26 0 20 19 40 40 40 8 0 30 -16 47 -35z m-1250 -12
c-3 -10 -5 -4 -5 12 0 17 2 24 5 18 2 -7 2 -21 0 -30z m703 18 c0 -6 -4 -13
-10 -16 -5 -3 -10 1 -10 9 0 9 5 16 10 16 6 0 10 -4 10 -9z m1055 -15 c13 -14
21 -27 18 -29 -2 -3 4 -8 15 -11 18 -6 37 -34 29 -42 -2 -2 -17 0 -35 5 -41
12 -72 3 -72 -20 0 -11 -5 -19 -10 -19 -6 0 -19 -15 -30 -32 -17 -28 -26 -26
-21 5 0 4 -6 7 -14 7 -8 0 -15 -7 -15 -16 0 -9 -9 -27 -20 -41 -11 -14 -20
-33 -20 -42 0 -9 -11 -21 -25 -28 -20 -9 -25 -8 -25 2 0 8 7 18 16 23 9 5 14
18 12 32 -3 23 -4 23 -20 6 -31 -30 -19 -3 15 37 25 28 40 37 65 37 29 0 55
25 57 53 0 4 6 11 13 16 7 4 14 21 16 37 2 16 4 32 5 37 2 14 24 6 46 -17z
m435 14 c0 -9 -47 -16 -77 -12 -43 6 -23 22 27 21 28 -1 50 -5 50 -9z m-1250
-10 c0 -5 -6 -10 -14 -10 -8 0 -18 5 -21 10 -3 6 3 10 14 10 12 0 21 -4 21
-10z m165 0 c3 -5 2 -10 -4 -10 -5 0 -13 5 -16 10 -3 6 -2 10 4 10 5 0 13 -4
16 -10z m-55 -17 c48 -31 80 -67 80 -87 0 -12 -4 -16 -8 -11 -8 11 -91 13
-108 2 -7 -4 -16 -1 -21 6 -9 11 -33 86 -33 101 0 13 67 5 90 -11z m1188 1
c34 -9 27 -27 -8 -19 -21 5 -30 3 -30 -6 0 -7 -2 -10 -5 -7 -7 6 5 38 14 38 3
0 16 -3 29 -6z m57 -36 c-4 -13 -13 -33 -21 -45 -30 -47 -6 -73 29 -33 24 29
37 17 37 -36 0 -29 -4 -43 -11 -39 -6 4 -7 19 -4 35 8 34 -10 48 -25 20 -8
-15 -17 -19 -32 -14 -11 3 -35 6 -53 6 -30 0 -31 1 -21 23 6 13 14 21 18 18 5
-2 6 -8 3 -13 -3 -5 -1 -11 4 -14 11 -7 41 48 41 74 0 17 18 40 33 40 4 0 5
-10 2 -22z m37 -13 c3 -14 1 -25 -3 -25 -5 0 -9 6 -9 14 0 8 -3 22 -7 32 -4
11 -3 15 4 11 6 -4 13 -18 15 -32z m-1430 -8 c-23 -25 -29 -52 -12 -62 15 -9
12 -25 -5 -25 -30 0 -95 -25 -100 -39 -3 -7 2 -19 11 -26 13 -9 17 -30 18
-100 1 -82 3 -91 29 -119 25 -28 38 -64 19 -52 -4 3 -25 1 -46 -4 l-38 -8 7
51 c12 96 11 220 -2 224 -9 3 -13 -19 -16 -79 -2 -59 -3 -47 -4 40 0 67 4 122
8 122 4 0 9 -4 11 -9 2 -5 21 6 43 25 34 30 38 37 27 54 -10 17 -8 19 26 23
20 2 39 4 41 5 3 1 -5 -8 -17 -21z m1213 13 c-3 -5 -11 -10 -16 -10 -6 0 -7 5
-4 10 3 6 11 10 16 10 6 0 7 -4 4 -10z m-205 -10 c0 -5 -4 -10 -10 -10 -5 0
-10 5 -10 10 0 6 5 10 10 10 6 0 10 -4 10 -10z m-1100 -45 c0 -3 -10 -5 -22
-4 -52 5 -58 1 -58 -39 0 -21 5 -43 12 -50 6 -6 8 -15 4 -19 -12 -12 -26 20
-26 62 0 30 6 45 28 65 26 25 28 25 45 8 9 -9 17 -20 17 -23z m-562 -59 c-4
-6 -8 -36 -8 -68 0 -32 -4 -58 -10 -58 -6 0 -9 14 -8 31 2 18 -2 34 -9 36 -17
6 -26 -33 -13 -57 9 -16 8 -20 -5 -20 -17 0 -21 -25 -5 -35 6 -3 10 -14 10
-24 0 -14 6 -17 25 -13 14 2 25 0 25 -6 0 -10 -37 -25 -57 -23 -7 1 -14 -8
-14 -21 -1 -13 -2 -30 -3 -40 -1 -9 -4 -20 -8 -24 -5 -4 -8 16 -8 44 0 38 -4
52 -14 52 -7 0 -16 9 -19 21 -4 15 1 22 19 29 25 10 26 14 26 112 0 47 3 57
19 61 11 3 19 14 19 27 0 17 -4 21 -17 15 -39 -14 -113 -18 -113 -5 0 8 9 11
24 8 15 -3 27 0 30 8 3 8 18 14 33 14 15 0 39 6 53 13 24 12 25 12 30 -28 3
-22 2 -44 -2 -49z m1019 55 c0 -11 -5 -18 -9 -15 -4 3 -5 11 -1 19 7 21 12 19
10 -4z m258 -31 c-32 -47 -45 -57 -45 -37 0 14 61 85 69 80 2 -1 -9 -21 -24
-43z m367 30 c25 -23 21 -32 -10 -23 -13 3 -22 13 -22 24 0 24 6 24 32 -1z
m278 10 c0 -5 -4 -10 -10 -10 -5 0 -10 5 -10 10 0 6 5 10 10 10 6 0 10 -4 10
-10z m-2258 -22 c-7 -7 -12 -8 -12 -2 0 14 12 26 19 19 2 -3 -1 -11 -7 -17z
m2147 -2 c10 -12 8 -13 -8 -9 -12 3 -21 9 -21 14 0 14 16 11 29 -5z m-2674
-15 c-6 -5 -21 -12 -35 -16 -22 -7 -23 -6 -11 9 7 9 23 16 34 16 13 0 17 -4
12 -9z m75 -41 c0 -33 -4 -50 -12 -50 -9 0 -13 17 -13 50 0 33 4 50 13 50 8 0
12 -17 12 -50z m305 40 c3 -5 1 -10 -4 -10 -6 0 -11 5 -11 10 0 6 2 10 4 10 3
0 8 -4 11 -10z m182 -22 c-3 -8 -6 -5 -6 6 -1 11 2 17 5 13 3 -3 4 -12 1 -19z
m1183 -123 c0 -123 -3 -149 -18 -175 -10 -16 -22 -27 -25 -23 -11 10 -8 91 3
98 6 3 10 47 10 96 l0 91 -32 -8 c-39 -8 -88 -44 -83 -60 2 -6 -2 -17 -8 -23
-9 -9 -8 -14 2 -20 8 -5 16 -25 18 -43 3 -33 2 -35 -29 -35 -18 0 -48 -6 -65
-13 -29 -13 -35 -12 -49 2 -12 12 -14 26 -9 57 7 41 7 42 25 21 20 -23 50 -27
50 -6 0 18 -27 46 -44 46 -21 0 -38 27 -31 47 3 10 22 28 41 40 32 21 41 22
101 13 68 -9 88 -5 113 24 7 9 16 16 21 16 5 0 9 -65 9 -145z m300 120 c-7 -9
-15 -13 -18 -10 -3 2 1 11 8 20 7 9 15 13 18 10 3 -2 -1 -11 -8 -20z m395 6
c19 -10 32 -21 28 -25 -11 -11 -77 -6 -103 9 l-25 14 25 10 c34 14 36 13 75
-8z m-1167 -174 c-2 -88 -6 -161 -10 -164 -5 -2 -8 76 -8 174 0 124 3 173 10
163 7 -9 10 -78 8 -173z m-730 98 c4 -46 2 -55 -12 -55 -13 0 -16 12 -16 67 0
83 21 74 28 -12z m1999 53 c-3 -8 -6 -5 -6 6 -1 11 2 17 5 13 3 -3 4 -12 1
-19z m233 -9 l70 -2 -7 -26 c-8 -37 -11 -40 -33 -34 -13 4 -20 0 -20 -10 0
-24 27 -39 67 -35 30 2 38 -1 41 -15 5 -24 -17 -49 -36 -42 -8 3 -20 1 -27 -5
-9 -8 -14 -6 -19 5 -7 19 -26 20 -26 1 0 -11 -5 -12 -25 -3 -28 13 -33 27 -9
27 12 0 14 9 12 38 -2 29 -8 38 -24 40 -18 3 -23 -4 -28 -33 -4 -19 -4 -40 -1
-45 8 -13 -23 -45 -33 -35 -4 4 -1 10 6 12 13 5 17 43 3 43 -4 0 -8 17 -7 38
1 30 -3 38 -20 40 -11 2 -27 -4 -34 -13 -20 -24 -31 -18 -18 10 6 14 15 25 20
25 5 0 6 5 3 10 -4 6 -4 18 -1 26 5 13 10 13 41 0 20 -9 67 -16 105 -17z
m-2003 8 c3 -5 0 -14 -6 -20 -8 -8 -11 -8 -11 2 0 24 -25 5 -26 -20 -3 -105
-5 -114 -15 -96 -14 24 -38 21 -49 -7 -5 -13 -15 -27 -22 -31 -10 -6 -11 -5 0
6 6 7 12 32 12 55 0 23 4 44 8 46 5 2 12 15 16 31 5 20 3 27 -9 27 -8 0 -15 4
-15 10 0 12 109 10 117 -3z m1010 -69 c-2 -18 -4 -6 -4 27 0 33 2 48 4 33 2
-15 2 -42 0 -60z m819 67 c-27 -20 -40 -174 -20 -224 19 -45 17 -51 -6 -21
-16 21 -20 41 -20 119 0 84 3 97 22 118 12 13 26 23 32 23 6 0 2 -7 -8 -15z
m-2281 -25 c3 -5 -1 -10 -10 -10 -9 0 -13 5 -10 10 3 6 8 10 10 10 2 0 7 -4
10 -10z m-305 -10 c0 -5 -4 -10 -10 -10 -5 0 -10 5 -10 10 0 6 5 10 10 10 6 0
10 -4 10 -10z m612 -10 c10 0 18 -4 18 -10 0 -5 -7 -10 -15 -10 -11 0 -14 -7
-9 -25 3 -14 2 -31 -4 -38 -5 -6 -10 -27 -10 -44 -1 -32 1 -33 41 -35 23 0 48
-1 55 -1 6 1 12 -8 12 -18 0 -15 -7 -19 -35 -19 -19 0 -35 5 -35 10 0 19 -29
10 -35 -11 -7 -20 -8 -19 -23 11 -11 24 -13 35 -5 37 8 3 8 13 -2 36 -12 30
-12 52 1 116 4 18 8 21 17 12 6 -6 19 -11 29 -11z m335 -22 c-3 -8 -6 -5 -6 6
-1 11 2 17 5 13 3 -3 4 -12 1 -19z m1287 -20 c4 -18 6 -46 6 -62 0 -21 3 -27
15 -22 8 3 15 1 15 -4 0 -15 -46 -12 -59 3 -10 13 -13 102 -4 120 8 14 21 -3
27 -35z m-907 -20 c-2 -13 -4 -5 -4 17 -1 22 1 32 4 23 2 -10 2 -28 0 -40z
m1084 16 c-5 -16 -10 -21 -10 -12 -1 18 10 51 15 45 2 -1 -1 -16 -5 -33z
m-2450 16 c28 -16 23 -27 -11 -26 -28 1 -39 14 -23 29 8 9 11 9 34 -3z m127
-13 c2 -11 -2 -15 -10 -12 -16 6 -48 -48 -48 -82 0 -25 -2 -25 -50 -21 -28 3
-53 8 -57 11 -3 4 2 18 11 33 12 17 24 24 36 21 11 -3 27 1 37 8 14 11 16 16
6 26 -20 21 -15 32 11 25 14 -3 28 -1 31 4 9 15 29 7 33 -13z m142 12 c0 -6
-7 -17 -15 -25 -13 -14 -15 -13 -15 4 0 10 3 22 7 25 10 11 23 8 23 -4z m245
1 c3 -5 3 -15 -1 -21 -6 -11 -23 6 -24 24 0 10 18 9 25 -3z m1996 -52 c0 -29
3 -81 5 -115 7 -89 -10 -78 -24 15 -14 86 -15 135 -5 145 16 17 23 3 24 -45z
m-1531 32 c0 -5 -4 -10 -9 -10 -5 0 -17 -3 -25 -6 -12 -5 -15 -2 -10 10 7 17
44 22 44 6z m1567 -12 c-3 -8 -6 -5 -6 6 -1 11 2 17 5 13 3 -3 4 -12 1 -19z
m-832 -38 c0 -38 -9 -53 -17 -28 -6 16 3 68 11 68 3 0 6 -18 6 -40z m265 7 c0
-12 -5 -29 -10 -37 -7 -11 -10 -3 -10 28 0 26 4 41 10 37 6 -3 10 -16 10 -28z
m404 -7 c-1 -24 3 -43 11 -48 7 -4 14 -30 17 -58 l5 -50 -69 0 -68 1 0 48 c0
26 5 47 10 47 6 0 10 -4 10 -10 0 -15 17 -12 40 7 14 12 20 30 20 60 0 29 4
43 13 43 9 0 13 -13 11 -40z m300 -5 c-9 -28 -12 -29 -29 -15 -8 7 -15 23 -15
35 0 21 2 22 25 12 18 -9 23 -17 19 -32z m-2434 15 c0 -5 -4 -10 -10 -10 -5 0
-10 5 -10 10 0 6 5 10 10 10 6 0 10 -4 10 -10z m1089 -97 c1 -44 -3 -73 -9
-73 -7 0 -10 34 -9 92 3 107 17 91 18 -19z m-1399 71 c0 -8 -5 -12 -10 -9 -6
4 -8 11 -5 16 9 14 15 11 15 -7z m200 12 c0 -3 -4 -17 -10 -31 -12 -31 -30
-24 -30 11 0 17 5 24 20 24 11 0 20 -2 20 -4z m330 -18 c0 -18 -2 -20 -9 -8
-6 8 -7 18 -5 22 9 14 14 9 14 -14z m46 -14 c-3 -15 1 -27 11 -32 12 -7 10
-10 -11 -14 -29 -6 -44 8 -27 25 6 6 11 22 11 35 0 13 4 20 10 17 6 -3 8 -17
6 -31z m56 -10 c3 -22 0 -34 -8 -34 -12 0 -24 31 -24 62 0 32 28 8 32 -28z
m168 26 c0 -5 -10 -10 -22 -9 -22 0 -22 1 -3 9 11 5 21 9 23 9 1 1 2 -3 2 -9z
m300 6 c0 -11 -19 -15 -25 -6 -3 5 1 10 9 10 9 0 16 -2 16 -4z m1180 -19 c0
-7 9 -21 21 -30 14 -12 18 -24 14 -35 -4 -9 -10 -27 -12 -39 -8 -34 -23 -28
-23 10 0 17 -4 49 -9 70 -5 21 -5 37 0 37 5 0 9 -6 9 -13z m-2040 -17 c0 -5
-4 -10 -10 -10 -5 0 -10 5 -10 10 0 6 5 10 10 10 6 0 10 -4 10 -10z m790 0 c0
-5 -7 -10 -15 -10 -8 0 -15 5 -15 10 0 6 7 10 15 10 8 0 15 -4 15 -10z m63 -5
c4 -8 2 -17 -3 -20 -6 -4 -10 -4 -10 -1 0 2 -3 11 -6 20 -3 9 -2 16 4 16 5 0
12 -7 15 -15z m1432 -57 c6 -40 5 -48 -9 -48 -13 0 -16 11 -16 57 0 67 15 61
25 -9z m105 8 c0 -17 -5 -38 -10 -46 -7 -11 -10 -6 -10 20 0 19 -3 46 -7 60
-6 22 -5 24 10 11 10 -7 17 -27 17 -45z m200 44 c0 -5 -5 -10 -11 -10 -5 0 -7
5 -4 10 3 6 8 10 11 10 2 0 4 -4 4 -10z m75 -59 c0 -48 -2 -55 -12 -42 -7 9
-13 26 -13 39 0 28 -19 28 -54 1 -14 -11 -26 -17 -26 -14 0 12 44 55 56 55 6
0 17 7 24 15 19 23 25 10 25 -54z m-1155 9 c0 -28 7 -64 15 -80 14 -27 13 -32
-8 -67 -12 -20 -27 -53 -32 -73 -8 -25 -17 -36 -33 -38 -25 -4 -30 13 -7 22 9
3 15 18 15 36 0 16 4 30 8 30 5 0 15 18 22 40 17 50 2 87 -39 103 -39 14 -37
45 4 63 50 22 55 19 55 -36z m240 5 c6 4 10 16 10 28 0 18 2 19 10 7 13 -20
13 -100 0 -100 -5 0 -10 7 -10 15 0 18 -21 20 -38 3 -19 -19 -25 -2 -17 49 l7
48 14 -28 c8 -15 19 -25 24 -22z m-1471 -26 c0 -33 5 -67 12 -75 14 -17 8 -27
-13 -19 -8 3 -19 31 -26 63 -16 79 -15 92 7 92 17 0 19 -8 20 -61z m701 42 c0
-32 17 -34 28 -4 10 27 10 26 11 -14 1 -41 0 -43 -29 -43 -28 0 -30 2 -30 40
0 22 5 40 10 40 6 0 10 -9 10 -19z m90 -27 c0 -27 -4 -43 -10 -39 -5 3 -10 24
-10 46 0 21 5 39 10 39 6 0 10 -21 10 -46z m140 -6 c0 -15 -4 -30 -10 -33 -6
-4 -10 12 -10 42 0 35 3 44 10 33 5 -8 10 -27 10 -42z m-1395 31 c76 -12 93
-22 53 -33 -46 -12 -97 -7 -107 12 -9 16 -11 16 -24 -2 -16 -21 -31 -8 -21 18
7 19 4 19 99 5z m957 -49 c10 -58 4 -61 -15 -8 -11 29 -16 36 -16 21 -1 -13
-5 -23 -11 -23 -13 0 -13 16 1 41 16 30 33 18 41 -31z m-827 30 c-3 -5 -10
-10 -16 -10 -5 0 -9 5 -9 10 0 6 7 10 16 10 8 0 12 -4 9 -10z m755 -19 c0 -25
-3 -28 -25 -23 -14 2 -25 8 -25 12 0 6 38 37 48 39 1 1 2 -12 2 -28z m152 -10
c2 -22 0 -37 -4 -35 -8 5 -11 74 -4 74 2 0 6 -18 8 -39z m-322 -1 c0 -11 -4
-20 -9 -20 -11 0 -22 26 -14 34 12 12 23 5 23 -14z m68 2 c5 -16 -10 -15 -34
3 -18 14 -18 15 5 11 14 -1 27 -8 29 -14z m1842 -22 c0 -6 -7 -13 -15 -16 -8
-4 -15 -15 -15 -26 0 -10 -4 -17 -10 -13 -5 3 -6 13 -3 23 13 33 43 56 43 32z
m-574 -14 c7 -19 -35 -61 -47 -49 -6 6 -4 15 6 23 8 7 15 19 15 26 0 18 19 18
26 0z m-417 -21 c-17 -17 -69 -30 -69 -17 0 17 25 32 54 32 27 0 29 -2 15 -15z
m913 -7 c-7 -7 -12 -8 -12 -2 0 14 12 26 19 19 2 -3 -1 -11 -7 -17z m178 2 c0
-5 -5 -10 -11 -10 -5 0 -7 5 -4 10 3 6 8 10 11 10 2 0 4 -4 4 -10z m-852 -52
c-3 -7 -18 -14 -34 -16 -28 -2 -28 -2 -10 13 24 18 49 20 44 3z m807 2 c3 -5
-1 -10 -9 -10 -9 0 -16 5 -16 10 0 6 4 10 9 10 6 0 13 -4 16 -10z m-656 -44
c-9 -8 -10 -7 -5 7 3 10 7 24 7 30 1 7 3 4 6 -7 3 -10 -1 -23 -8 -30z m-19 -1
c0 -5 -5 -3 -10 5 -5 8 -10 20 -10 25 0 6 5 3 10 -5 5 -8 10 -19 10 -25z m-50
5 c0 -5 -4 -10 -10 -10 -5 0 -10 5 -10 10 0 6 5 10 10 10 6 0 10 -4 10 -10z
m102 -12 c-7 -7 -12 -8 -12 -2 0 14 12 26 19 19 2 -3 -1 -11 -7 -17z m78 -37
c0 -4 -13 -8 -30 -7 -39 1 -39 16 0 16 17 0 30 -4 30 -9z m-543 -63 c-3 -8 -6
-5 -6 6 -1 11 2 17 5 13 3 -3 4 -12 1 -19z m-33 3 c4 -5 -3 -7 -14 -4 -23 6
-26 13 -6 13 8 0 17 -4 20 -9z"/>
<path d="M1205 1204 c-4 -30 -2 -50 5 -60 20 -23 30 -6 30 52 0 70 -24 76 -35
8z"/>
<path d="M1270 1151 c0 -54 16 -77 25 -38 9 35 2 80 -12 85 -9 2 -13 -11 -13
-47z"/>
<path d="M840 1160 c0 -19 3 -21 12 -12 9 9 9 15 0 24 -9 9 -12 7 -12 -12z"/>
<path d="M803 2083 c-29 -3 -43 -9 -43 -19 0 -10 13 -14 50 -14 43 0 50 3 50
20 0 11 -3 19 -7 18 -5 -1 -27 -3 -50 -5z"/>
<path d="M880 2075 c0 -11 12 -15 45 -15 33 0 45 4 45 15 0 11 -12 15 -45 15
-33 0 -45 -4 -45 -15z"/>
<path d="M1032 2058 c3 -7 15 -15 27 -16 16 -3 22 1 19 10 -3 7 -15 15 -27 16
-16 3 -22 -1 -19 -10z"/>
<path d="M282 2018 c7 -19 38 -22 38 -4 0 10 -9 16 -21 16 -12 0 -19 -5 -17
-12z"/>
<path d="M884 2019 c-11 -19 10 -29 49 -22 51 8 50 33 -2 33 -22 0 -43 -5 -47
-11z"/>
<path d="M50 1999 c0 -17 5 -20 32 -17 22 2 34 9 36 21 3 14 -4 17 -32 17 -30
0 -36 -4 -36 -21z"/>
<path d="M130 2005 c0 -13 8 -16 38 -13 20 2 37 8 37 13 0 6 -17 11 -37 13
-30 3 -38 0 -38 -13z"/>
<path d="M1026 1995 c-5 -13 0 -16 22 -13 32 4 36 22 6 26 -13 2 -24 -4 -28
-13z"/>
<path d="M283 1973 c-7 -2 -13 -11 -13 -19 0 -18 34 -18 49 -1 17 22 -4 34
-36 20z"/>
<path d="M850 1972 c-60 -20 -64 -23 -50 -32 27 -17 57 -11 63 12 7 26 7 27
-13 20z"/>
<path d="M908 1973 c-44 -7 -35 -33 11 -33 42 0 74 23 45 34 -8 3 -19 5 -22 5
-4 -1 -19 -4 -34 -6z"/>
<path d="M100 1963 c-56 -6 -64 -11 -50 -28 16 -19 59 -19 66 -1 4 10 13 12
33 6 31 -9 57 2 47 19 -7 11 -26 12 -96 4z"/>
<path d="M681 1947 c-14 -18 -4 -27 31 -27 21 0 28 5 28 20 0 24 -41 28 -59 7z"/>
<path d="M1032 1953 c-17 -7 -5 -23 19 -23 10 0 19 7 19 15 0 15 -14 18 -38 8z"/>
<path d="M136 1904 c-9 -24 -9 -24 29 -24 40 0 49 24 13 34 -33 8 -35 8 -42
-10z"/>
<path d="M272 1913 c-19 -7 -4 -23 24 -23 15 0 24 6 24 15 0 15 -22 19 -48 8z"/>
<path d="M907 1913 c-41 -6 -27 -28 19 -28 29 0 40 4 42 18 4 18 -3 19 -61 10z"/>
<path d="M62 1902 c-13 -2 -21 -9 -19 -15 5 -15 69 -16 74 -1 4 13 -22 21 -55
16z"/>
<path d="M1030 1890 c12 -22 12 -22 34 -14 22 8 2 34 -26 34 -16 0 -17 -3 -8
-20z"/>
<path d="M260 1860 c0 -14 39 -32 56 -26 24 9 4 36 -27 36 -16 0 -29 -4 -29
-10z"/>
<path d="M90 1851 c-67 -9 -45 -26 35 -26 56 0 70 3 70 15 0 17 -35 21 -105
11z"/>
<path d="M887 1853 c-17 -16 -5 -33 24 -33 36 0 72 17 64 31 -7 10 -78 13 -88
2z"/>
<path d="M1035 1840 c-8 -13 3 -30 20 -30 19 0 26 27 9 34 -21 8 -22 8 -29 -4z"/>
<path d="M130 1797 c0 -22 20 -34 46 -29 36 7 26 34 -13 38 -22 3 -33 0 -33
-9z"/>
<path d="M283 1803 c-20 -7 -15 -21 9 -29 l23 -7 -23 -8 c-22 -8 -31 -29 -13
-29 5 0 16 -3 25 -6 13 -5 16 2 16 40 0 45 -6 52 -37 39z"/>
<path d="M917 1803 c-29 -3 -37 -8 -35 -21 4 -21 27 -26 61 -13 23 9 40 44 20
39 -5 -1 -25 -3 -46 -5z"/>
<path d="M45 1790 c-11 -17 5 -30 36 -30 22 0 29 5 29 20 0 15 -7 20 -29 20
-17 0 -33 -4 -36 -10z"/>
<path d="M1025 1790 c-9 -15 4 -30 26 -30 23 0 26 25 3 34 -21 8 -22 8 -29 -4z"/>
<path d="M407 1763 c-28 -7 -14 -28 21 -31 27 -3 32 0 32 17 0 21 -13 24 -53
14z"/>
<path d="M40 1725 c9 -26 73 -28 78 -3 2 12 -7 17 -41 19 -41 4 -44 2 -37 -16z"/>
<path d="M134 1737 c-3 -8 -4 -20 -2 -28 2 -10 -10 -15 -42 -19 -31 -3 -45
-10 -45 -20 0 -17 38 -25 63 -14 9 4 32 8 51 8 36 1 58 26 22 26 -28 0 -36 18
-9 22 13 2 23 10 23 18 0 20 -53 26 -61 7z"/>
<path d="M399 1690 c29 -25 64 -27 59 -2 -2 12 -14 18 -43 20 l-40 2 24 -20z"/>
<path d="M274 1685 c-9 -21 -4 -24 29 -18 32 6 31 26 -1 31 -13 2 -25 -3 -28
-13z"/>
<path d="M3338 1663 c-16 -2 -28 -8 -28 -13 0 -5 -8 -11 -17 -14 -30 -10 -61
-68 -65 -121 -3 -43 0 -50 17 -53 77 -12 92 -32 23 -29 -37 2 -43 -1 -43 -18
0 -11 7 -20 15 -21 8 -1 30 -2 48 -2 17 -1 32 -7 32 -12 0 -10 -20 -9 -102 6
-23 5 -28 2 -28 -14 0 -11 6 -25 14 -31 23 -19 31 -83 12 -93 -30 -17 -18 -38
22 -40 69 -4 157 3 167 13 5 5 12 9 16 9 8 0 10 -58 3 -117 -4 -36 -9 -43 -28
-43 -12 0 -27 5 -32 10 -23 23 -51 -35 -61 -125 -5 -52 5 -65 56 -72 33 -5 41
-3 41 10 0 9 -4 19 -10 22 -14 9 -13 115 1 115 7 0 17 7 24 16 9 14 11 1 7
-63 -3 -49 0 -88 6 -99 8 -14 11 84 12 369 0 385 0 388 -20 377 -18 -9 -20 -8
-20 15 0 26 -3 27 -62 18z m22 -197 c0 -3 -4 -8 -10 -11 -5 -3 -10 -1 -10 4 0
6 5 11 10 11 6 0 10 -2 10 -4z m64 -73 c-3 -43 -7 -91 -9 -108 -1 -17 -9 -31
-17 -33 -12 -2 -16 15 -21 87 -8 113 -5 122 46 130 4 0 5 -34 1 -76z m-68
-428 c-1 -38 -5 -64 -11 -62 -14 5 -18 33 -10 83 9 66 22 53 21 -21z"/>
<path d="M425 1651 c-40 -8 -38 -25 3 -29 27 -3 32 0 32 17 0 12 -1 20 -2 20
-2 -1 -16 -4 -33 -8z"/>
<path d="M277 1639 c-23 -13 -13 -29 19 -29 17 0 24 5 24 20 0 22 -15 25 -43
9z"/>
<path d="M135 1630 c-4 -7 -3 -16 3 -22 14 -14 57 -6 57 12 0 18 -50 26 -60
10z"/>
<path d="M3315 1140 c-4 -12 -5 -23 -3 -25 1 -2 25 -1 51 2 37 4 47 9 45 22
-2 11 -16 17 -45 19 -35 3 -42 0 -48 -18z"/>
<path d="M3267 1123 c-12 -11 -8 -23 8 -23 8 0 15 7 15 15 0 16 -12 20 -23 8z"/>
<path d="M3277 1084 c-6 -7 -22 -114 -21 -144 2 -49 5 -61 14 -55 6 3 10 32
10 63 0 35 8 74 20 100 18 40 18 42 1 42 -10 0 -21 -3 -24 -6z"/>
<path d="M415 1059 c-8 -25 -1 -34 20 -26 19 8 20 47 1 47 -8 0 -18 -9 -21
-21z"/>
<path d="M358 1013 c-21 -5 -22 -11 -5 -46 15 -33 47 -46 61 -24 8 13 12 13
20 2 6 -8 23 -17 39 -21 23 -5 27 -3 27 15 0 15 -6 21 -21 21 -12 0 -34 14
-49 30 -27 29 -37 32 -72 23z"/>
<path d="M527 604 c-14 -14 -6 -22 31 -29 20 -4 62 -15 92 -25 30 -10 100 -23
155 -30 165 -20 216 -28 315 -50 100 -23 257 -52 375 -70 165 -26 247 -41 360
-65 66 -14 145 -30 175 -35 30 -5 91 -16 135 -25 44 -10 95 -19 114 -21 18 -2
43 -10 55 -17 11 -8 50 -17 86 -21 36 -4 117 -18 180 -32 63 -13 135 -24 160
-24 73 0 387 -55 480 -84 25 -8 71 -17 103 -21 52 -6 57 -5 57 13 0 24 -15 30
-88 38 -32 3 -68 10 -82 15 -14 5 -48 14 -75 19 -28 5 -96 18 -153 29 -56 11
-144 23 -195 26 -87 6 -215 30 -497 95 -69 15 -159 33 -200 40 -41 6 -93 15
-115 21 -22 6 -67 15 -100 20 -33 5 -89 16 -125 25 -35 9 -114 22 -175 29 -60
8 -146 21 -190 30 -44 8 -93 17 -110 20 -16 2 -64 11 -105 20 -41 9 -86 18
-100 21 -14 2 -45 9 -70 14 -25 5 -88 12 -140 16 -52 4 -97 8 -100 9 -3 1 -12
4 -20 8 -8 3 -53 13 -100 22 -47 8 -94 18 -105 21 -11 3 -24 2 -28 -2z"/>
<path d="M1085 591 c-11 -19 35 -31 123 -31 64 0 93 4 101 14 9 11 8 15 -5 20
-25 10 -212 7 -219 -3z"/>
</g>
</svg>
