<?xml version="1.0" standalone="no"?>
<!DOCTYPE svg PUBLIC "-//W3C//DTD SVG 20010904//EN"
 "http://www.w3.org/TR/2001/REC-SVG-20010904/DTD/svg10.dtd">
<svg version="1.0" xmlns="http://www.w3.org/2000/svg"
 width="344.000000pt" height="256.000000pt" viewBox="0 0 344.000000 256.000000"
 preserveAspectRatio="xMidYMid meet">
<metadata>
Created by potrace 1.16, written by Peter Selinger 2001-2019
</metadata>
<g transform="translate(0.000000,256.000000) scale(0.100000,-0.100000)"
fill="#000000" stroke="none">
<path d="M1660 2547 c15 -14 121 -38 245 -56 39 -6 104 -15 145 -21 155 -23
206 -30 245 -35 22 -2 72 -9 110 -15 39 -6 106 -15 150 -21 44 -6 109 -15 145
-20 36 -5 108 -12 160 -15 124 -6 137 -9 144 -36 4 -19 23 -29 98 -53 l93 -30
5 -55 c4 -40 9 -55 20 -55 10 0 15 11 16 38 1 21 -3 40 -7 43 -18 11 -8 51 21
84 34 41 39 65 11 57 -20 -5 -120 15 -142 29 -8 4 -92 12 -189 16 -166 8 -204
11 -380 38 -161 23 -208 30 -280 40 -41 6 -106 15 -145 21 -163 23 -214 29
-283 35 -40 4 -75 11 -78 15 -3 5 -31 9 -62 9 -48 0 -54 -2 -42 -13z m1467
-211 c15 -14 -7 -15 -48 -1 l-44 15 43 -4 c24 -3 46 -7 49 -10z"/>
<path d="M3268 2292 c-20 -27 -33 -53 -30 -58 7 -9 50 -16 117 -18 l40 -1 3
58 c3 56 2 57 -25 57 -15 0 -37 3 -48 6 -15 4 -29 -6 -57 -44z m77 -9 c-16 -3
-38 -12 -47 -20 -10 -9 -18 -13 -18 -8 0 16 36 34 65 33 l30 -1 -30 -4z"/>
<path d="M3432 2255 c0 -16 2 -22 5 -12 2 9 2 23 0 30 -3 6 -5 -1 -5 -18z"/>
<path d="M1463 2110 c-23 -3 -49 -12 -58 -20 -10 -8 -27 -19 -38 -25 -12 -6
-23 -18 -25 -28 -3 -13 3 -17 25 -16 17 1 21 3 11 6 -10 2 -18 9 -18 14 0 5
10 7 23 4 15 -4 28 -1 36 9 16 19 49 25 181 34 59 4 105 11 105 17 0 12 -178
16 -242 5z"/>
<path d="M1773 2080 c-13 -15 -23 -33 -23 -39 0 -6 -5 -11 -10 -11 -16 0 -35
-49 -23 -61 13 -13 44 -1 41 16 -2 7 8 32 22 54 23 38 28 41 58 36 27 -5 32
-3 32 15 0 17 -6 20 -37 19 -29 0 -43 -7 -60 -29z"/>
<path d="M1916 2067 c-45 -24 -102 -80 -88 -85 23 -7 81 27 88 52 6 24 9 25
58 22 29 -3 69 -7 89 -11 29 -6 37 -4 37 8 0 9 -17 19 -44 26 -63 16 -95 13
-140 -12z"/>
<path d="M1023 2063 c-7 -2 -13 -13 -13 -24 0 -11 -7 -30 -16 -43 -11 -17 -12
-26 -4 -31 14 -8 50 28 50 49 0 18 23 12 58 -15 16 -13 29 -15 40 -9 26 13
106 30 146 30 27 0 36 4 36 16 0 14 -9 16 -64 12 -35 -3 -79 -13 -97 -22 -32
-16 -33 -16 -58 8 -28 26 -59 37 -78 29z"/>
<path d="M2106 2028 c-7 -36 -3 -43 19 -35 19 8 21 67 1 67 -7 0 -16 -14 -20
-32z"/>
<path d="M2170 2033 c0 -21 110 -75 144 -72 33 4 66 -11 66 -30 0 -16 -9 -30
-58 -92 -27 -33 -46 -38 -37 -10 3 10 1 29 -3 42 -6 15 -5 30 2 41 17 27 1 30
-38 7 -40 -23 -46 -39 -17 -39 11 0 23 -5 27 -11 4 -7 0 -9 -14 -5 -16 5 -24
0 -36 -21 -60 -112 -66 -133 -32 -120 9 4 19 19 22 34 4 15 21 41 38 58 17 17
27 23 23 13 -3 -10 -2 -20 4 -24 13 -8 -8 -34 -27 -34 -19 0 -18 -29 1 -36 16
-7 125 83 125 103 0 16 52 43 82 43 13 0 41 11 63 24 l39 24 48 -19 c27 -10
71 -30 98 -44 27 -14 84 -36 127 -51 43 -14 85 -32 94 -40 8 -8 20 -14 26 -14
5 0 24 -15 40 -32 41 -44 68 -64 133 -101 123 -71 245 -218 275 -333 6 -22 21
-53 33 -69 20 -25 22 -25 22 -7 0 11 -7 33 -15 48 -8 16 -15 37 -15 47 0 9
-12 41 -26 70 -16 33 -26 67 -25 93 1 53 -39 98 -79 91 -17 -4 -33 2 -50 17
-14 12 -60 44 -103 70 -43 26 -99 70 -126 97 -33 34 -56 49 -74 49 -14 0 -30
6 -34 13 -4 7 -42 26 -83 42 -41 15 -111 46 -154 67 -90 43 -124 47 -164 19
-29 -21 -83 -36 -81 -24 8 51 -29 83 -98 83 -22 0 -54 11 -78 25 -47 29 -65
31 -65 8z"/>
<path d="M960 2020 c-8 -11 -24 -20 -35 -20 -11 0 -28 -7 -38 -15 -11 -7 -25
-11 -32 -8 -15 5 -224 -44 -240 -57 -24 -19 -86 -28 -121 -18 -43 12 -57 -1
-49 -45 3 -17 -2 -38 -11 -53 -15 -22 -19 -23 -33 -10 -28 25 -195 103 -235
110 -21 4 -45 14 -53 22 -8 8 -30 14 -49 14 -29 0 -34 -3 -34 -24 0 -33 17
-43 72 -43 26 0 54 -5 62 -12 8 -7 19 -11 23 -8 4 2 37 -10 73 -27 56 -28 65
-36 62 -57 -6 -56 -65 -134 -102 -134 -11 0 -15 -11 -15 -38 0 -31 -6 -44 -30
-63 -16 -13 -24 -24 -17 -24 8 0 4 -12 -12 -32 -13 -18 -27 -45 -31 -60 -4
-14 -14 -34 -24 -45 -9 -10 -23 -38 -30 -63 -8 -25 -20 -64 -27 -87 -8 -23
-11 -50 -7 -59 5 -13 2 -16 -10 -11 -15 6 -17 -6 -17 -117 0 -123 1 -130 52
-286 52 -161 217 -339 440 -474 l76 -46 -10 -43 c-5 -23 -6 -64 -3 -90 6 -42
4 -52 -16 -73 l-22 -24 32 0 c27 0 32 4 38 30 3 17 12 30 19 30 8 0 35 21 60
48 32 33 52 46 67 44 38 -6 65 -30 72 -64 4 -18 12 -39 17 -46 7 -8 7 -17 -1
-26 -10 -12 4 -14 96 -13 64 0 82 2 46 4 -36 2 -63 9 -63 15 0 5 -13 27 -30
48 -16 21 -30 40 -30 43 0 2 19 -2 43 -10 23 -8 112 -33 197 -56 l155 -41 388
-4 c235 -2 413 1 450 7 148 24 180 31 191 39 6 5 38 14 71 22 65 13 201 62
305 107 157 69 292 157 403 262 53 50 67 59 67 41 0 -7 8 -10 20 -7 10 3 19 2
18 -2 0 -3 0 -36 1 -72 1 -60 3 -67 27 -80 15 -7 38 -12 53 -10 41 5 131 51
131 67 0 8 -12 33 -26 56 -21 32 -27 55 -27 96 0 30 4 57 9 61 6 3 16 25 23
48 8 24 22 45 33 48 22 8 40 39 38 68 -5 60 0 89 15 83 12 -4 15 4 15 44 0 28
-4 50 -10 50 -5 0 -10 -7 -10 -15 0 -14 -17 -59 -48 -123 -14 -29 -14 -35 -2
-42 24 -15 2 -24 -48 -22 -45 2 -51 -1 -92 -43 l-43 -44 37 -22 37 -22 -31
-26 -32 -26 18 -38 c10 -20 21 -37 25 -37 10 0 79 -68 79 -77 0 -14 -81 -44
-109 -41 -24 3 -26 7 -29 61 -2 35 1 57 8 57 29 0 -22 99 -51 100 -9 0 -59
-42 -111 -92 -52 -51 -114 -104 -138 -118 -23 -14 -50 -32 -59 -40 -39 -35
-382 -189 -423 -190 -7 -1 -31 -8 -53 -16 -78 -29 -322 -76 -450 -86 -161 -14
-293 -14 -455 -1 -151 13 -174 17 -315 50 -262 61 -477 144 -645 247 -217 133
-369 305 -424 480 -44 136 -46 216 -7 216 15 0 21 -16 36 -107 9 -60 25 -125
35 -145 56 -117 297 -342 435 -407 54 -26 191 -78 260 -99 11 -3 28 -14 39
-24 11 -10 36 -21 55 -24 20 -4 47 -13 61 -20 40 -21 186 -53 274 -60 45 -4
96 -13 115 -20 40 -17 575 -20 625 -4 17 5 43 12 59 15 76 15 -1 20 -285 16
-199 -2 -324 1 -347 7 -20 6 -74 21 -121 33 -172 44 -259 68 -277 77 -10 5
-38 13 -63 17 -76 12 -309 86 -374 117 -102 50 -180 116 -219 184 -20 33 -37
73 -39 89 -3 31 -28 48 -28 19 0 -12 -6 -9 -22 12 -13 16 -28 34 -34 41 -6 6
-23 51 -38 100 -25 80 -52 150 -77 196 -10 19 -28 140 -29 193 0 37 37 84 66
84 34 0 84 21 84 35 0 8 8 11 20 8 33 -9 24 24 -12 41 -46 23 -57 20 -100 -25
-22 -23 -41 -40 -43 -38 -5 6 49 115 66 131 8 8 26 36 39 62 14 26 32 46 41
46 22 0 42 26 37 47 -4 13 2 18 19 19 14 1 34 11 46 22 12 11 32 23 44 26 32
10 50 35 33 46 -12 7 -9 15 14 39 23 24 28 36 24 65 -4 40 -4 40 23 26 21 -12
78 1 190 43 63 24 124 39 213 52 38 6 96 51 96 74 0 18 -25 12 -40 -9z m-540
-280 c0 -5 -4 -10 -10 -10 -5 0 -10 5 -10 10 0 6 5 10 10 10 6 0 10 -4 10 -10z
m-357 -555 c-3 -9 -8 -14 -10 -11 -3 3 -2 9 2 15 9 16 15 13 8 -4z m87 -270
c0 -6 11 -46 25 -89 29 -91 28 -86 15 -86 -18 0 -57 103 -63 164 -5 51 -4 56
8 40 8 -11 15 -24 15 -29z m3120 -261 c0 -8 -5 -12 -10 -9 -6 4 -8 11 -5 16 9
14 15 11 15 -7z m-2986 -20 c5 -14 4 -15 -9 -4 -17 14 -19 20 -6 20 5 0 12 -7
15 -16z m2991 -124 c10 -11 14 -20 8 -20 -5 0 -18 9 -28 20 -10 11 -14 20 -8
20 5 0 18 -9 28 -20z m-2605 -330 c0 -5 -4 -10 -10 -10 -5 0 -10 5 -10 10 0 6
5 10 10 10 6 0 10 -4 10 -10z"/>
<path d="M3226 2005 c-16 -43 3 -62 22 -22 l11 22 0 -22 c1 -26 28 -31 38 -7
7 19 -4 31 -38 39 -19 5 -28 2 -33 -10z"/>
<path d="M1467 2004 c-14 -14 -6 -25 16 -22 12 2 22 7 22 13 0 12 -28 18 -38
9z"/>
<path d="M1060 1967 c0 -27 13 -36 26 -16 3 6 -1 18 -10 27 -15 15 -16 14 -16
-11z"/>
<path d="M1552 1970 c-15 -25 -6 -46 13 -30 18 15 26 50 11 50 -6 0 -17 -9
-24 -20z"/>
<path d="M1606 1968 c-3 -13 -6 -26 -6 -30 0 -13 38 -9 43 5 3 7 12 2 26 -15
23 -29 51 -37 51 -15 -1 13 -81 77 -97 77 -6 0 -13 -10 -17 -22z"/>
<path d="M2042 1953 c-10 -16 -22 -36 -25 -46 -7 -17 -9 -17 -38 7 -41 35 -99
35 -165 0 -70 -37 -79 -45 -60 -56 9 -5 16 -22 16 -38 0 -22 -4 -27 -18 -23
-11 2 -36 -3 -57 -11 -38 -16 -75 -14 -75 5 0 5 7 9 15 9 8 0 15 6 15 13 0 6
7 25 15 41 17 33 12 50 -13 37 -9 -5 -25 -12 -35 -15 -13 -4 -17 -12 -12 -26
6 -19 4 -19 -19 -9 -14 7 -26 16 -26 21 0 4 -4 8 -10 8 -17 0 -11 -32 10 -54
11 -12 30 -33 43 -47 13 -14 29 -28 37 -31 21 -7 -9 -68 -35 -69 -11 -1 -28
-2 -39 -3 -24 -1 -33 -18 -46 -88 -9 -44 -15 -56 -26 -51 -8 3 -21 -3 -29 -13
-19 -27 -28 -12 -29 46 -1 33 -5 50 -13 50 -7 0 -13 7 -13 16 0 8 5 12 11 8 6
-3 15 0 20 7 13 21 11 29 -7 29 -8 0 -22 7 -30 15 -22 22 -55 19 -82 -7 -13
-13 -33 -33 -45 -45 -20 -19 -29 -20 -77 -14 -57 8 -54 15 15 29 34 7 40 12
46 41 6 27 3 34 -16 43 -17 7 -30 5 -58 -10 -22 -12 -52 -18 -77 -17 -22 1
-40 -1 -40 -6 0 -19 13 -39 27 -39 10 0 14 -10 12 -32 -4 -65 -4 -64 68 -66
45 -2 74 3 89 13 21 14 28 13 70 -7 86 -41 63 -63 -33 -32 -45 15 -54 15 -97
0 -26 -9 -53 -16 -61 -16 -26 0 -27 -20 -1 -29 17 -7 36 -6 64 5 33 13 45 14
83 3 24 -7 46 -13 49 -14 30 -7 57 -21 67 -34 10 -13 14 -13 21 -3 5 7 15 10
24 7 9 -4 19 3 26 17 l11 23 0 -22 c1 -33 29 -29 33 4 2 19 10 29 28 33 31 7
40 40 11 40 -18 0 -20 4 -14 33 9 48 21 59 57 51 33 -7 86 -40 99 -61 6 -10
14 -10 40 4 32 17 32 17 7 21 -36 6 -55 22 -38 35 10 7 9 8 -3 4 -8 -3 -26 4
-40 14 -13 10 -19 19 -14 19 6 1 22 3 37 5 16 2 37 -4 52 -16 13 -10 27 -19
31 -19 3 0 13 -7 22 -16 11 -10 19 -12 26 -5 13 13 -5 36 -42 54 -20 10 -25
19 -23 41 3 28 2 29 -32 23 -36 -6 -50 6 -20 17 32 12 85 6 112 -14 15 -11 44
-22 66 -25 21 -2 44 -12 50 -21 11 -14 14 -14 29 10 25 37 21 46 -20 48 -21 1
-49 2 -63 3 -37 2 -47 11 -70 62 -21 49 -17 62 22 63 9 0 20 5 23 10 3 6 27
10 51 10 40 0 50 -5 76 -35 33 -37 48 -37 48 -1 0 12 11 33 25 46 24 23 35 70
16 70 -5 0 -18 -12 -29 -27z m-355 -255 c-3 -8 -6 -5 -6 6 -1 11 2 17 5 13 3
-3 4 -12 1 -19z m-444 -5 c-7 -2 -19 -2 -25 0 -7 3 -2 5 12 5 14 0 19 -2 13
-5z m147 -48 c0 -8 -4 -15 -9 -15 -5 0 -14 7 -21 15 -10 13 -9 15 9 15 12 0
21 -6 21 -15z m-25 -45 c3 -5 1 -10 -4 -10 -6 0 -11 5 -11 10 0 6 2 10 4 10 3
0 8 -4 11 -10z"/>
<path d="M3315 1960 c-8 -13 -1 -24 14 -19 6 3 7 10 2 18 -6 10 -10 10 -16 1z"/>
<path d="M1417 1933 c-15 -8 -25 -18 -22 -24 8 -12 35 -12 35 0 0 5 14 12 30
16 17 4 30 11 30 16 0 13 -41 9 -73 -8z"/>
<path d="M1140 1915 c0 -14 5 -25 10 -25 6 0 10 -11 10 -24 0 -14 5 -28 10
-31 16 -10 1 -25 -23 -25 -30 0 -87 -36 -87 -55 0 -20 19 -19 42 1 14 13 43
18 125 20 79 2 108 6 108 16 0 7 -16 17 -35 23 -20 5 -47 20 -60 33 -13 12
-32 22 -41 22 -11 0 -22 13 -29 35 -13 41 -30 46 -30 10z"/>
<path d="M3202 1915 c-19 -41 -15 -55 14 -55 24 0 26 3 20 31 -3 17 -6 35 -6
40 0 18 -17 8 -28 -16z"/>
<path d="M1268 1917 c-45 -18 -30 -47 23 -47 11 0 22 -6 25 -14 8 -22 34 -28
50 -12 18 19 18 46 -1 46 -8 0 -15 -5 -15 -10 0 -6 -8 -5 -20 2 -11 7 -20 21
-20 30 0 20 -3 20 -42 5z"/>
<path d="M2100 1905 c-7 -8 -21 -15 -31 -15 -13 0 -20 -10 -25 -37 -4 -21 -10
-42 -14 -48 -4 -5 -17 -37 -29 -71 -31 -89 -26 -142 9 -99 7 8 10 22 6 30 -3
8 -1 15 5 15 7 0 9 10 5 25 l-6 24 40 -21 c44 -24 51 -38 20 -38 -26 0 -26
-20 0 -27 11 -3 17 -9 14 -14 -3 -5 4 -23 16 -39 23 -32 17 -40 -10 -15 -22
20 -60 27 -60 12 0 -7 9 -18 20 -25 12 -7 25 -24 30 -37 5 -14 17 -25 26 -25
13 0 14 -3 4 -15 -9 -10 -17 -12 -30 -5 -19 10 -90 2 -90 -11 0 -4 -10 -9 -22
-11 -13 -2 -23 -10 -23 -18 0 -21 46 -26 57 -6 10 19 88 23 88 5 0 -6 -8 -9
-18 -7 -13 4 -17 -1 -17 -20 0 -33 -47 -52 -71 -28 -20 20 -57 30 -88 22 -20
-5 -23 -3 -18 19 5 27 -7 32 -26 13 -20 -20 -33 9 -30 61 2 24 -2 46 -7 48 -6
2 -33 -17 -60 -41 -44 -39 -48 -45 -31 -52 14 -5 24 -1 38 16 21 26 23 25 31
-11 5 -18 2 -31 -8 -39 -8 -7 -15 -18 -15 -25 0 -20 -42 -26 -55 -9 -17 23
-45 7 -45 -27 0 -23 6 -30 26 -35 17 -4 29 -2 34 6 5 8 29 15 55 16 26 2 53 8
61 15 11 9 14 7 14 -10 0 -22 -14 -26 -76 -22 -36 3 -57 -18 -52 -51 2 -14 12
-24 28 -28 14 -3 26 -14 28 -23 3 -15 -6 -17 -66 -17 -38 0 -72 -3 -76 -7 -4
-5 -12 -9 -17 -9 -5 -1 -13 -2 -19 -3 -15 -2 -12 -31 3 -31 6 0 26 -9 42 -20
l30 -20 -45 2 c-43 3 -45 2 -48 -26 -8 -63 20 -96 68 -81 15 5 19 12 15 26 -5
14 -3 17 9 13 9 -3 16 -12 16 -20 0 -17 26 -19 36 -2 4 6 -1 17 -11 25 -18 12
-18 13 -1 13 23 0 56 -18 56 -31 0 -5 -11 -15 -25 -21 -35 -16 -31 -34 10 -49
26 -10 34 -17 29 -29 -4 -8 -8 -26 -8 -39 -1 -21 -4 -23 -44 -18 -40 4 -45 2
-65 -29 -26 -40 -34 -42 -114 -36 -43 3 -67 10 -79 23 -15 17 -15 21 1 56 10
20 21 48 25 62 5 19 12 25 27 23 25 -3 37 24 28 61 -13 51 -192 96 -218 55
-15 -23 -1 -35 22 -21 26 16 33 5 15 -22 -18 -28 -33 -161 -16 -151 6 3 18 20
26 36 9 17 23 43 32 60 8 16 16 39 17 50 2 25 21 21 26 -6 2 -10 10 -24 19
-30 11 -8 12 -13 4 -18 -7 -4 -12 -20 -12 -35 0 -16 -10 -37 -24 -50 -16 -15
-22 -29 -18 -43 4 -18 2 -19 -19 -13 -13 4 -29 15 -36 24 -10 14 -13 14 -33
-4 l-22 -20 7 52 c16 119 5 173 -35 173 -28 0 -38 -21 -28 -57 6 -25 14 -33
31 -33 13 0 17 -3 10 -8 -7 -4 -13 -42 -15 -92 -4 -77 -17 -129 -32 -122 -21
9 -46 0 -46 -17 0 -14 -10 -20 -40 -25 -41 -6 -80 6 -80 25 0 5 -16 17 -35 26
-19 9 -35 20 -35 25 0 4 -6 8 -13 8 -8 0 -22 9 -33 21 -10 12 -31 27 -46 35
-29 15 -68 86 -69 126 0 13 -10 52 -22 87 -19 56 -26 66 -52 73 -44 12 -67 0
-35 -17 19 -11 21 -14 8 -15 -29 0 -21 -26 12 -40 36 -15 60 -50 60 -88 0 -15
6 -37 14 -47 8 -12 11 -34 8 -63 -5 -44 -4 -45 21 -39 19 5 32 0 58 -24 18
-17 45 -37 61 -45 23 -12 27 -19 22 -39 -3 -14 -2 -25 3 -25 6 0 15 -12 22
-26 9 -21 9 -30 -1 -42 -10 -12 -10 -16 0 -19 19 -7 14 -20 -9 -26 -27 -7 -15
-27 15 -27 13 0 40 -7 59 -15 20 -8 50 -15 67 -15 34 0 150 -48 150 -62 0 -5
-8 -7 -17 -4 -80 23 -106 27 -116 17 -16 -16 -3 -23 53 -29 54 -5 65 -16 25
-26 -14 -4 -25 -14 -25 -22 0 -13 7 -15 33 -10 17 3 37 13 43 21 10 14 12 14
18 -1 12 -32 25 0 36 91 16 131 43 235 62 235 5 0 8 9 8 20 0 13 -7 20 -19 20
-10 0 -24 7 -31 15 -10 12 -6 13 27 8 21 -3 45 -11 53 -18 8 -7 51 -16 95 -20
l80 -6 30 40 c23 32 36 41 55 39 24 -3 25 -7 27 -68 1 -36 5 -84 9 -107 5 -39
4 -43 -14 -43 -11 0 -34 -11 -50 -25 -35 -29 -54 -32 -45 -7 11 32 36 52 65
52 21 0 28 5 28 20 0 11 -6 20 -14 20 -9 0 -12 7 -9 20 4 17 0 20 -25 20 -17
0 -33 -4 -36 -9 -3 -4 -29 -11 -57 -15 l-51 -7 7 -42 c4 -23 13 -57 21 -76 8
-18 14 -54 14 -80 0 -27 8 -63 20 -86 27 -52 26 -55 -12 -44 -68 20 -221 40
-231 30 -14 -14 24 -30 116 -47 160 -30 165 -30 173 0 4 17 -1 39 -15 66 -14
28 -21 57 -20 93 1 29 4 42 6 30 5 -28 14 -29 30 -4 19 30 127 81 173 81 38 0
40 -2 40 -30 0 -19 5 -30 14 -30 15 0 60 42 84 79 15 22 17 22 28 6 11 -15 11
-22 -1 -39 -20 -27 -20 -57 0 -50 18 7 19 -5 1 -28 -15 -20 -41 -24 -51 -8
-14 23 -107 -1 -135 -34 -7 -9 -22 -16 -34 -16 -26 -1 -49 -18 -65 -48 -12
-23 -13 -23 -28 -5 -14 17 -14 17 -9 0 3 -10 6 -25 6 -33 0 -25 38 -15 52 14
10 19 21 27 40 27 15 -1 25 2 23 6 -2 3 8 4 23 2 15 -2 51 -6 80 -9 77 -9 66
-28 -13 -22 -60 5 -64 4 -55 -13 9 -15 22 -18 98 -17 48 1 90 6 93 11 4 5 40
9 80 10 41 1 63 3 50 5 -13 2 -26 13 -29 24 -4 16 -10 19 -31 14 -57 -13 -91
-12 -88 4 1 10 -9 17 -33 20 l-35 6 38 5 c20 3 37 1 37 -3 0 -4 9 -8 20 -8 11
0 20 6 20 13 0 24 -22 92 -32 98 -7 4 -6 14 2 28 20 39 9 75 -27 86 -30 10
-32 12 -17 27 11 10 14 23 10 35 -7 17 -8 17 -22 -1 -8 -11 -14 -33 -14 -48 0
-39 -27 -78 -54 -78 -14 0 -26 11 -36 33 -12 26 -20 32 -43 30 -26 -2 -28 0
-22 28 5 22 3 28 -8 24 -11 -5 -13 5 -10 52 3 32 7 65 10 73 4 8 5 20 4 26 0
6 6 30 14 54 8 23 12 53 8 68 -9 39 15 18 34 -29 8 -21 19 -39 24 -39 13 0 11
57 -2 65 -5 4 -14 18 -20 32 -7 20 -4 34 18 73 29 52 27 69 -5 49 -16 -10 -30
-9 -73 3 -29 8 -54 19 -56 25 -3 7 4 9 16 6 12 -3 21 -1 21 6 0 6 17 11 39 11
31 0 44 6 60 26 11 14 17 32 14 40 -3 9 2 14 16 14 29 0 27 28 -4 40 -16 6
-23 14 -19 25 9 22 49 19 94 -7 47 -27 60 -22 105 39 17 23 37 44 45 47 8 3
21 9 28 12 7 3 12 -1 12 -10 0 -14 53 -35 100 -41 8 0 24 -6 35 -12 34 -17 95
-24 95 -9 0 13 49 61 51 48 4 -41 3 -72 -3 -72 -5 0 -8 7 -8 15 0 20 -30 7
-30 -14 0 -9 -7 -25 -15 -35 -13 -17 -13 -22 2 -38 9 -10 29 -18 46 -18 29 0
87 -28 87 -42 0 -17 30 -7 44 14 13 18 16 19 16 5 0 -11 8 -17 24 -17 13 0 30
-10 39 -22 8 -13 25 -33 37 -46 17 -18 22 -35 22 -72 -1 -45 1 -49 29 -59 20
-7 38 -7 56 0 15 6 43 9 63 7 30 -3 35 0 38 20 2 15 -2 22 -13 22 -14 0 -14 2
0 23 21 32 8 41 -25 17 -33 -24 -40 -25 -40 -6 0 7 -7 20 -16 27 -32 26 -33
53 -5 70 26 16 27 16 69 -28 23 -24 42 -47 42 -51 0 -4 14 -13 30 -20 17 -8
30 -20 30 -28 0 -19 10 -17 40 6 21 16 22 21 10 29 -8 5 -17 8 -22 5 -4 -3
-16 4 -28 16 -11 11 -26 20 -32 20 -16 0 -39 47 -32 64 3 7 -4 17 -15 22 -18
8 -19 12 -8 33 17 35 32 36 60 5 25 -27 26 -27 61 -10 19 9 38 21 41 26 3 6
14 10 24 10 19 0 57 47 47 57 -3 3 -17 -2 -31 -11 -14 -9 -25 -15 -25 -14 0 2
-3 31 -5 65 -5 69 -45 149 -70 139 -8 -3 -17 -1 -20 4 -3 4 1 11 7 13 8 3 6 6
-4 6 -10 1 -18 5 -18 10 0 5 -9 11 -20 14 -12 3 -20 14 -20 26 0 12 -5 21 -10
21 -18 0 -70 -30 -70 -40 0 -6 -9 -10 -20 -10 -21 0 -28 -24 -10 -35 23 -14
-4 -27 -42 -21 -38 6 -68 -5 -68 -24 0 -4 18 -10 40 -14 22 -3 40 -10 40 -14
0 -4 -17 -16 -37 -27 -21 -11 -55 -33 -77 -49 -21 -16 -46 -30 -56 -31 -10 -1
-25 -7 -34 -14 -14 -12 -14 -16 0 -42 8 -16 12 -34 9 -39 -9 -15 -36 -12 -56
6 -10 9 -36 18 -58 21 -23 3 -41 10 -41 15 0 5 9 6 20 3 14 -4 20 -2 20 8 0 8
12 20 28 26 41 18 66 42 86 84 12 26 29 43 52 53 19 8 34 21 34 28 0 18 -49
58 -61 50 -5 -3 -14 -2 -19 1 -6 4 0 18 15 37 26 31 35 100 15 113 -5 3 -10
16 -10 29 0 26 -41 66 -68 66 -27 0 -37 -12 -39 -47 -3 -38 20 -45 37 -12 10
19 13 19 33 6 15 -10 21 -23 19 -41 -2 -18 1 -26 12 -26 9 0 16 -4 16 -10 0
-5 -4 -10 -10 -10 -5 0 -10 -8 -10 -17 0 -23 -67 -76 -86 -69 -7 3 -21 3 -29
0 -20 -8 -20 -54 0 -54 8 0 15 -4 15 -10 0 -16 -26 -12 -41 6 -11 13 -10 24 4
64 20 57 21 60 4 60 -8 0 -20 -19 -27 -42 -7 -24 -17 -47 -22 -52 -4 -6 -8
-18 -8 -27 0 -9 -9 -19 -20 -22 -11 -3 -20 -12 -20 -21 0 -16 10 -20 44 -16
11 1 16 -3 14 -12 -5 -13 -67 -14 -78 0 -3 4 -17 13 -33 21 -36 19 -59 2 -39
-29 12 -20 6 -25 -22 -14 -9 3 -16 13 -16 20 0 17 -40 34 -81 34 -16 0 -29 5
-29 10 0 6 8 10 19 10 24 0 52 31 34 37 -24 8 -13 22 22 29 43 8 48 34 6 34
-17 0 -33 -4 -36 -10 -18 -30 -72 11 -59 45 7 17 -25 85 -40 85 -9 0 -46 39
-46 49 1 12 38 51 49 51 6 0 11 9 11 20 0 11 3 20 8 20 4 0 15 12 25 25 17 24
17 25 -1 25 -11 0 -25 -7 -32 -15z m776 -349 c8 -8 14 -22 14 -30 0 -13 -4
-12 -20 4 -19 19 -27 40 -14 40 3 0 12 -6 20 -14z m143 -133 c-2 -51 2 -69 15
-78 9 -7 16 -15 16 -19 0 -14 -42 -46 -61 -46 -18 0 -20 4 -15 38 7 43 -5 68
-28 59 -18 -7 -23 18 -6 28 21 13 -2 25 -46 25 -63 0 -103 -20 -149 -75 -22
-26 -48 -55 -57 -64 -10 -8 -18 -21 -18 -28 0 -19 -17 -16 -42 9 l-21 21 20
16 c12 9 48 37 81 64 68 54 166 101 198 94 12 -2 33 2 45 9 13 7 34 13 47 14
22 0 23 -3 21 -67z m-469 -8 c0 -13 -23 -3 -40 17 -26 33 -12 45 16 14 13 -14
24 -28 24 -31z m-710 -15 c0 -5 -4 -10 -10 -10 -5 0 -10 5 -10 10 0 6 5 10 10
10 6 0 10 -4 10 -10z m1010 -22 c-33 -9 -34 -11 -15 -24 10 -8 27 -14 37 -14
22 0 22 -6 -1 -44 -26 -46 -72 -67 -115 -55 -22 6 -36 16 -36 26 0 8 25 39 55
69 41 40 62 54 82 53 26 -1 26 -1 -7 -11z m-1026 -254 c26 -10 18 -21 -14 -20
-17 1 -30 7 -30 14 0 13 19 16 44 6z m-4 -118 c0 -11 -19 -15 -25 -6 -3 5 1
10 9 10 9 0 16 -2 16 -4z m-456 -195 c11 -12 14 -21 7 -26 -6 -3 -11 1 -11 9
0 9 -9 16 -21 16 -11 0 -17 5 -14 10 9 15 20 12 39 -9z m41 -62 c-4 -5 -9 -20
-11 -32 -2 -12 -9 -47 -15 -77 -6 -30 -13 -65 -15 -78 -7 -34 -31 -38 -83 -12
-25 12 -72 25 -103 28 -53 4 -58 7 -58 28 0 16 -6 24 -16 24 -13 0 -15 7 -11
29 3 15 1 33 -6 40 -8 8 -7 11 5 11 9 0 18 -4 20 -9 4 -13 233 -19 233 -6 0 6
-12 10 -27 10 -16 0 -28 4 -28 10 0 18 39 35 68 29 17 -4 32 -1 36 5 4 6 9 11
12 11 3 0 2 -5 -1 -11z m-140 -19 c-3 -5 -10 -10 -16 -10 -5 0 -9 5 -9 10 0 6
7 10 16 10 8 0 12 -4 9 -10z m410 -70 c-3 -5 -15 -10 -26 -10 -21 0 -24 -12
-9 -41 6 -10 8 -19 5 -19 -9 0 -34 64 -29 72 3 5 19 8 35 8 18 0 28 -4 24 -10z
m231 -195 c-10 -8 -23 -12 -28 -9 -6 4 1 12 14 18 29 16 39 9 14 -9z"/>
<path d="M2788 1305 c-19 -25 -23 -45 -10 -45 18 0 52 33 52 51 0 26 -21 23
-42 -6z"/>
<path d="M3255 1879 c-4 -17 -5 -33 -2 -36 11 -10 27 9 27 32 0 36 -17 39 -25
4z"/>
<path d="M1415 1870 c-6 -10 2 -27 40 -87 23 -38 56 -55 76 -42 12 8 10 12 -6
24 -11 8 -30 24 -42 37 l-23 22 25 14 c14 7 25 19 25 27 0 18 -31 20 -49 3
-11 -10 -14 -10 -18 0 -6 15 -19 16 -28 2z"/>
<path d="M623 1830 c4 -32 16 -50 59 -90 29 -28 63 -53 76 -56 23 -7 29 -19
12 -29 -14 -9 -12 -25 3 -25 19 0 57 43 57 64 0 15 -3 16 -15 6 -12 -10 -15
-10 -15 1 0 8 -18 22 -40 32 -58 27 -110 79 -110 110 0 18 -5 27 -16 27 -14 0
-16 -7 -11 -40z"/>
<path d="M918 1839 c-12 -6 -18 -22 -18 -44 0 -19 -4 -35 -10 -35 -5 0 -10 -9
-10 -20 0 -13 5 -18 15 -14 8 4 15 12 15 19 0 22 22 29 35 12 14 -20 35 -22
35 -4 0 6 -14 20 -30 29 -32 18 -40 38 -15 38 8 0 15 7 15 15 0 17 -8 18 -32
4z"/>
<path d="M2145 1831 c-3 -5 -1 -12 5 -16 5 -3 10 1 10 9 0 18 -6 21 -15 7z"/>
<path d="M3346 1831 c-4 -7 -5 -15 -2 -18 9 -9 19 4 14 18 -4 11 -6 11 -12 0z"/>
<path d="M3009 1811 c12 -21 66 -49 102 -53 17 -2 24 2 24 15 0 13 -15 24 -55
37 -72 25 -84 25 -71 1z"/>
<path d="M1045 1797 c-4 -10 -5 -21 -1 -24 10 -10 18 4 13 24 -4 17 -4 17 -12
0z"/>
<path d="M1350 1776 c0 -8 -10 -18 -21 -21 -19 -6 -20 -9 -6 -23 13 -12 19
-13 31 -3 9 8 13 18 10 23 -4 6 5 8 25 3 38 -8 57 1 40 21 -16 19 -79 19 -79
0z"/>
<path d="M474 1765 c-6 -15 32 -63 42 -52 11 10 -5 54 -21 61 -9 3 -18 -1 -21
-9z"/>
<path d="M3160 1756 c0 -13 146 -96 169 -96 18 0 12 26 -9 45 -11 10 -20 15
-20 11 0 -4 -26 7 -57 24 -64 33 -83 37 -83 16z"/>
<path d="M1430 1714 c0 -17 22 -14 28 4 2 7 -3 12 -12 12 -9 0 -16 -7 -16 -16z"/>
<path d="M977 1688 c-7 -26 -1 -38 19 -38 8 0 19 -11 24 -25 13 -34 39 -43 56
-20 21 28 17 45 -10 45 -14 0 -33 12 -47 30 -29 36 -35 37 -42 8z"/>
<path d="M1892 1683 c2 -10 8 -18 13 -18 5 0 11 8 13 18 2 10 -3 17 -13 17
-10 0 -15 -7 -13 -17z"/>
<path d="M2342 1693 c-16 -6 -53 -78 -45 -87 10 -10 33 -7 33 5 0 6 7 26 16
45 18 37 17 44 -4 37z"/>
<path d="M506 1683 c-3 -3 -6 -17 -6 -30 0 -12 -4 -23 -9 -23 -11 0 -24 -38
-21 -63 3 -33 28 -68 69 -99 47 -34 49 -46 5 -23 -36 19 -51 19 -51 1 0 -19
98 -65 140 -66 25 0 21 19 -8 30 -37 14 -30 23 11 16 33 -7 35 -6 24 13 -8 17
-8 21 3 21 8 0 26 11 41 25 15 14 31 25 37 25 11 0 12 27 1 34 -5 3 -19 -6
-30 -19 -12 -14 -31 -25 -41 -25 -11 0 -29 -12 -40 -27 -19 -25 -22 -26 -31
-11 -6 9 -26 26 -46 38 -19 12 -33 25 -30 28 3 3 15 -3 27 -13 17 -16 22 -17
29 -5 11 18 -6 51 -31 57 -23 6 -24 12 -3 28 15 11 15 15 -1 48 -19 40 -29 50
-39 40z"/>
<path d="M1840 1667 c0 -16 53 -57 75 -57 23 0 18 19 -9 29 -13 5 -26 17 -29
25 -8 19 -37 21 -37 3z"/>
<path d="M867 1663 c-11 -20 -15 -59 -8 -72 14 -22 28 -5 27 33 -2 36 -10 54
-19 39z"/>
<path d="M2254 1655 c-7 -18 3 -35 21 -35 12 0 25 21 25 41 0 15 -40 10 -46
-6z"/>
<path d="M2388 1628 c-13 -18 -29 -48 -35 -65 -10 -29 -9 -33 5 -33 33 1 55
32 79 113 9 30 -24 20 -49 -15z"/>
<path d="M2972 1638 c3 -7 20 -16 39 -19 19 -4 42 -10 52 -14 21 -9 22 8 1 29
-19 20 -98 22 -92 4z"/>
<path d="M380 1601 c-7 -14 -7 -22 1 -27 14 -8 43 21 35 35 -11 17 -24 13 -36
-8z"/>
<path d="M796 1579 c-22 -44 -7 -63 34 -42 l30 14 -22 30 c-12 16 -23 29 -24
29 -1 0 -10 -14 -18 -31z"/>
<path d="M1620 1585 c0 -14 -5 -25 -10 -25 -6 0 10 -21 35 -46 l46 -47 26 24
c15 13 33 29 40 36 16 14 17 33 2 33 -6 0 -24 -9 -39 -20 -36 -26 -79 -13 -50
16 11 11 2 25 -27 42 -21 11 -23 10 -23 -13z"/>
<path d="M1825 1590 c-7 -12 2 -30 16 -30 5 0 9 9 9 20 0 21 -15 27 -25 10z"/>
<path d="M2660 1588 c0 -7 4 -19 9 -27 12 -18 91 -5 91 15 0 23 -29 29 -44 9
-12 -16 -13 -16 -19 -1 -7 19 -37 22 -37 4z"/>
<path d="M947 1565 c-11 -15 -13 -26 -7 -30 6 -4 9 -14 8 -23 -2 -9 4 -18 14
-20 13 -3 16 5 15 47 -1 28 -4 51 -7 51 -3 0 -13 -11 -23 -25z"/>
<path d="M630 1545 c0 -8 9 -15 20 -15 11 0 20 7 20 15 0 8 -9 15 -20 15 -11
0 -20 -7 -20 -15z"/>
<path d="M1930 1553 c-35 -7 -60 -32 -60 -60 0 -30 18 -30 30 2 10 25 15 28
60 29 15 1 25 7 25 16 0 16 -16 20 -55 13z"/>
<path d="M997 1543 c-13 -12 -7 -44 9 -50 8 -3 13 -12 9 -21 -5 -13 20 -41 38
-42 14 0 7 51 -8 56 -8 4 -15 14 -15 24 0 20 -23 43 -33 33z"/>
<path d="M387 1495 c-20 -20 -40 -48 -43 -63 -4 -15 -12 -30 -18 -35 -6 -4 0
-5 14 -3 18 2 25 9 24 25 -1 26 1 26 28 2 13 -12 18 -26 14 -37 -5 -12 -2 -15
10 -10 8 3 18 6 20 6 2 0 4 7 4 15 0 18 21 20 39 3 11 -11 13 -10 7 5 -3 10
-6 27 -6 38 0 23 -23 25 -40 4 -11 -13 -14 -13 -25 2 -16 21 -10 34 10 27 21
-8 31 24 13 42 -12 13 -19 10 -51 -21z"/>
<path d="M1569 1497 c-15 -12 -33 -47 -24 -47 3 0 13 4 23 9 9 5 25 12 35 15
9 3 17 12 17 21 0 18 -29 19 -51 2z"/>
<path d="M1956 1503 c-12 -12 -6 -33 9 -33 8 0 15 6 15 14 0 17 -14 28 -24 19z"/>
<path d="M1240 1476 c0 -18 7 -25 29 -29 15 -3 31 -14 34 -24 2 -10 8 -27 13
-37 6 -17 4 -17 -24 4 -22 17 -39 21 -60 17 -21 -4 -32 -2 -36 8 -7 19 -36 20
-36 1 0 -18 -19 -33 -53 -41 -23 -6 -27 -4 -27 13 0 22 -41 35 -79 25 -36 -9
-24 -48 14 -48 17 0 31 -3 33 -7 7 -24 -1 -44 -23 -55 -23 -10 -25 -9 -25 13
0 29 -29 46 -69 38 -25 -5 -29 -9 -21 -24 6 -12 17 -16 33 -13 25 5 46 -21 27
-32 -17 -11 -11 -61 10 -80 21 -19 28 -41 10 -30 -6 4 -32 12 -58 19 -40 10
-47 15 -44 34 1 18 -2 22 -15 18 -23 -7 -50 8 -34 19 7 3 9 15 6 26 -5 14 -2
19 13 19 15 0 19 5 15 20 -7 25 -33 26 -33 1 0 -10 -6 -21 -14 -24 -7 -3 -18
-19 -24 -36 -10 -28 -8 -32 26 -57 20 -16 39 -31 42 -34 6 -8 96 -40 132 -47
14 -3 28 -13 31 -24 8 -30 51 -24 80 11 14 16 27 34 29 40 2 7 13 7 36 -1 18
-6 39 -9 47 -5 8 3 17 1 20 -4 9 -14 42 -12 75 5 21 11 29 12 32 3 6 -16 132
7 162 30 21 15 21 18 8 44 -7 15 -20 28 -28 28 -8 0 -14 7 -14 15 0 8 -7 15
-15 15 -8 0 -15 7 -15 15 0 19 25 8 54 -24 18 -20 21 -20 37 -5 12 10 18 29
17 51 -2 41 -11 49 -32 27 -14 -13 -20 -14 -46 -2 -16 7 -29 17 -29 23 1 5 1
16 0 22 -1 16 -79 54 -87 42 -8 -14 -34 -11 -34 4 0 19 -30 43 -62 51 -25 6
-28 3 -28 -18z m175 -99 c12 -10 14 -16 7 -21 -7 -4 -22 2 -34 13 -16 16 -18
21 -7 21 8 0 23 -6 34 -13z m-166 -43 c17 -8 36 -25 43 -37 9 -17 8 -23 -7
-32 -10 -5 -29 -21 -42 -34 -13 -13 -23 -22 -23 -20 0 2 -9 29 -20 59 -24 66
-24 67 -2 73 9 3 17 5 18 6 0 0 15 -6 33 -15z m115 8 c2 -4 -7 -12 -20 -19
-28 -13 -43 1 -17 16 22 13 30 13 37 3z m59 -46 c9 -7 17 -19 17 -26 0 -7 11
-23 25 -36 23 -21 24 -24 8 -32 -10 -5 -46 -12 -80 -14 -48 -3 -67 0 -85 13
-26 20 -17 39 10 22 10 -6 32 -14 50 -18 27 -5 32 -4 32 12 0 10 -9 29 -20 43
-11 14 -20 31 -20 38 0 16 40 15 63 -2z m-318 -26 c-3 -5 -17 -10 -31 -10 -13
0 -24 5 -24 10 0 6 14 10 31 10 17 0 28 -4 24 -10z m40 -51 c-19 -21 -35 -44
-35 -49 0 -6 -4 -10 -9 -10 -5 0 -8 8 -7 18 4 22 -11 32 -51 32 -17 0 -35 5
-38 11 -10 15 3 25 16 12 12 -12 87 -6 106 9 7 5 17 7 23 3 5 -3 10 1 10 10 0
9 5 13 10 10 7 -4 -4 -23 -25 -46z"/>
<path d="M3429 1473 c-2 -16 -1 -46 2 -68 5 -33 6 -29 8 28 1 69 -4 88 -10 40z"/>
<path d="M842 1478 c-7 -7 -12 -22 -12 -34 0 -18 9 -23 56 -33 62 -12 82 -7
63 16 -9 10 -26 14 -51 11 -21 -2 -38 0 -38 4 0 5 5 8 10 8 6 0 10 9 10 20 0
22 -20 26 -38 8z"/>
<path d="M1629 1446 c-7 -14 -19 -28 -28 -31 -15 -4 -46 -44 -39 -49 40 -27
88 -71 88 -82 0 -9 -4 -12 -10 -9 -5 3 -10 1 -10 -5 0 -6 -12 -15 -26 -20 -28
-11 -28 -33 0 -38 10 -2 37 2 61 9 38 11 43 16 43 41 -1 15 -4 28 -7 28 -3 0
-28 20 -54 44 -46 42 -47 45 -28 56 12 6 21 17 21 25 0 9 9 15 21 15 14 0 19
5 17 17 -5 28 -36 28 -49 -1z"/>
<path d="M255 1431 c-6 -11 33 -36 42 -27 3 3 3 12 0 21 -7 17 -33 20 -42 6z"/>
<path d="M3226 1431 c-3 -5 4 -35 15 -67 12 -33 24 -80 26 -106 3 -27 9 -48
14 -48 5 0 9 -4 9 -8 0 -11 -48 -13 -55 -2 -10 16 -25 11 -25 -8 0 -10 -18
-43 -40 -72 -22 -29 -40 -62 -40 -72 0 -10 -6 -18 -13 -18 -7 0 -23 -9 -35
-20 -12 -11 -29 -20 -39 -20 -17 -1 -17 -1 0 -14 9 -7 17 -23 17 -36 0 -14 8
-24 20 -27 19 -5 17 -8 -15 -39 -19 -18 -35 -35 -35 -38 0 -3 -16 -27 -36 -53
-20 -26 -43 -64 -52 -84 -16 -37 -16 -38 -87 -42 -38 -3 -86 -8 -105 -12 -33
-7 -79 -48 -80 -71 0 -6 -9 -19 -20 -29 -11 -10 -20 -23 -20 -28 0 -16 -33
-36 -59 -37 -18 0 -22 4 -16 18 5 9 8 33 9 52 1 34 0 35 -36 32 -30 -2 -40 2
-57 27 -25 35 -26 41 -4 41 9 0 13 -3 9 -7 -3 -4 6 -12 21 -19 24 -10 34 -8
66 9 20 11 37 24 37 28 0 4 -20 13 -45 20 -41 12 -61 29 -34 29 24 0 95 -24
110 -37 16 -13 49 -8 49 7 0 18 -32 39 -70 45 -50 8 -59 21 -19 29 22 4 33 14
40 35 6 17 20 33 31 36 28 10 78 -14 78 -36 0 -12 7 -19 20 -19 23 0 24 6 8
43 -8 16 -26 31 -47 38 -28 9 -31 13 -18 21 10 5 14 15 10 25 -5 13 0 15 28
10 19 -3 44 -8 57 -12 42 -14 23 14 -30 45 -29 16 -45 30 -36 30 9 0 20 -4 23
-10 6 -10 55 -14 55 -5 0 3 -9 16 -21 28 -15 16 -32 22 -65 22 -43 0 -55 7
-34 20 15 9 12 25 -5 25 -9 0 -18 -7 -21 -15 -7 -16 -34 -21 -34 -6 0 5 -2 15
-5 23 -3 7 8 28 25 46 39 43 40 72 3 72 -31 0 -128 -93 -120 -115 3 -7 1 -17
-5 -23 -8 -8 -8 -15 1 -26 8 -10 9 -16 1 -21 -5 -3 -10 -15 -10 -26 0 -18 6
-20 58 -18 55 3 57 2 60 -24 3 -23 -11 -65 -37 -117 -5 -9 -22 -15 -45 -15
-30 0 -36 3 -33 17 3 11 -8 25 -34 42 -71 47 -95 28 -30 -23 36 -28 38 -33 28
-56 -15 -30 -52 -25 -82 11 -12 13 -28 24 -37 24 -14 0 -15 -4 -5 -31 8 -22
24 -36 50 -46 26 -11 36 -20 33 -30 -3 -8 -6 -21 -6 -29 0 -9 -11 -14 -34 -14
-41 0 -68 -25 -37 -35 12 -3 21 -15 22 -26 1 -10 1 -30 2 -43 1 -13 -5 -32
-13 -41 -12 -15 -12 -17 5 -14 11 2 31 -4 45 -13 27 -17 117 -33 164 -29 52 5
76 19 76 44 0 13 9 32 19 41 11 10 21 28 23 40 2 15 11 22 33 24 17 2 34 8 39
13 16 15 140 10 187 -7 24 -9 78 -18 119 -19 41 -2 84 -4 95 -6 12 -3 21 2 23
12 4 22 -37 33 -114 30 -34 -2 -70 2 -80 7 -11 6 -29 14 -42 18 -22 9 -21 11
33 94 74 111 85 120 151 120 30 0 54 4 54 10 0 14 -34 30 -67 31 l-28 1 30 9
c30 9 105 83 105 104 0 6 16 19 35 28 38 18 45 34 19 44 -15 5 -15 7 0 15 12
7 16 25 16 73 0 35 -4 67 -10 70 -5 3 -10 16 -10 28 0 12 -7 35 -15 51 -8 15
-15 37 -15 47 0 23 -21 69 -31 69 -4 0 -10 -4 -13 -9z m58 -297 c-8 -6 -14
-16 -14 -21 0 -6 -6 -16 -13 -22 -8 -6 -24 -31 -37 -57 -24 -46 -57 -76 -98
-88 -27 -9 -39 13 -23 41 10 17 10 17 11 -2 1 -17 4 -16 25 10 14 17 25 35 25
42 0 22 62 104 85 113 13 5 27 14 31 21 5 9 9 7 15 -7 4 -12 2 -23 -7 -30z
m-734 -463 c2 0 -1 -6 -7 -12 -11 -11 -66 -2 -59 10 4 6 48 7 66 2z m-110 -61
c0 -5 -4 -10 -9 -10 -6 0 -13 5 -16 10 -3 6 1 10 9 10 9 0 16 -4 16 -10z m14
-75 c18 -14 41 -25 52 -25 13 0 15 -3 7 -8 -17 -11 -84 -2 -77 10 3 5 -2 18
-12 29 -24 27 -9 24 30 -6z"/>
<path d="M380 1350 c0 -5 -7 -10 -15 -10 -18 0 -37 -34 -30 -52 3 -8 -13 -30
-40 -53 -49 -43 -55 -60 -25 -68 12 -3 20 0 20 8 0 7 11 20 24 28 21 14 25 14
30 2 7 -18 67 -56 78 -49 13 8 9 -31 -4 -44 -15 -15 -3 -27 35 -36 20 -5 27
-3 27 8 0 8 -5 18 -11 22 -7 4 -9 23 -6 49 5 36 3 46 -17 64 -23 22 -45 14
-30 -10 4 -7 -2 -9 -17 -7 -17 2 -23 9 -22 23 1 10 -3 27 -8 37 -8 14 -4 23
16 41 18 15 24 28 20 40 -8 18 -25 24 -25 7z"/>
<path d="M750 1329 c0 -17 5 -29 10 -27 6 2 10 6 10 11 0 4 0 16 0 27 0 11 -4
20 -10 20 -5 0 -10 -14 -10 -31z"/>
<path d="M485 1322 c-22 -19 -30 -72 -11 -72 7 0 20 16 29 35 27 57 20 70 -18
37z"/>
<path d="M2276 1322 c-3 -5 6 -19 20 -31 14 -12 24 -24 22 -26 -1 -2 -25 1
-52 6 -27 5 -51 7 -54 4 -12 -11 11 -36 38 -41 29 -6 30 -8 30 -66 0 -51 3
-60 22 -67 31 -11 138 35 138 60 0 17 -13 25 -92 57 -16 7 -28 17 -28 24 0 9
3 9 12 0 7 -7 21 -12 33 -12 11 0 31 -9 45 -20 14 -11 30 -20 37 -20 6 0 13
-6 15 -12 4 -10 10 -10 31 -1 41 19 35 49 -9 44 -23 -3 -122 48 -152 78 -31
32 -47 38 -56 23z m104 -157 c0 -2 -13 -11 -30 -20 -17 -9 -30 -11 -30 -5 0 5
7 10 15 10 8 0 15 5 15 10 0 6 7 10 15 10 8 0 15 -2 15 -5z"/>
<path d="M2024 1297 c-3 -9 -3 -28 0 -41 3 -13 2 -26 -3 -28 -5 -2 -11 -22
-12 -44 -3 -41 10 -72 47 -108 9 -10 27 -33 40 -51 18 -28 20 -34 8 -39 -12
-5 -13 -10 -3 -28 10 -18 8 -24 -7 -35 -15 -11 -20 -11 -33 2 -9 8 -16 25 -16
37 0 31 -24 32 -60 3 -25 -21 -28 -27 -15 -35 8 -5 21 -7 29 -5 19 7 32 -15
18 -30 -25 -24 -62 -45 -80 -45 -15 0 -17 5 -12 29 7 34 -4 44 -36 32 l-23 -8
21 -13 c21 -13 21 -14 2 -39 -24 -33 -39 -103 -27 -125 11 -20 67 -21 74 -2 3
8 1 24 -5 35 -9 17 -8 24 9 41 11 11 32 20 46 20 14 0 43 13 63 28 20 16 53
39 74 51 20 12 37 27 37 32 0 6 9 7 20 4 18 -6 20 -2 20 34 0 38 -1 40 -20 29
-10 -7 -21 -10 -23 -8 -2 3 -17 28 -35 56 -17 27 -43 61 -57 74 -28 26 -34 85
-15 136 9 21 8 31 -4 43 -14 13 -16 13 -22 -2z m-124 -539 c0 -16 -3 -19 -11
-11 -6 6 -8 16 -5 22 11 17 16 13 16 -11z"/>
<path d="M661 1251 c-8 -14 -7 -22 4 -31 21 -18 45 -5 45 25 0 31 -34 35 -49
6z"/>
<path d="M1535 1240 c3 -5 10 -10 16 -10 5 0 9 5 9 10 0 6 -7 10 -16 10 -8 0
-12 -4 -9 -10z"/>
<path d="M2225 1210 c3 -5 8 -10 11 -10 2 0 4 5 4 10 0 6 -5 10 -11 10 -5 0
-7 -4 -4 -10z"/>
<path d="M616 1165 c-10 -26 -7 -35 9 -35 8 0 15 5 15 10 0 6 11 8 26 4 22 -6
25 -4 22 12 -4 25 -63 32 -72 9z"/>
<path d="M238 1121 c-9 -11 -21 -37 -27 -58 -9 -31 -8 -40 4 -49 8 -6 12 -19
8 -32 -9 -35 7 -132 21 -132 8 0 16 -13 19 -29 10 -46 47 -78 112 -95 38 -10
63 -12 69 -6 15 15 23 12 29 -9 2 -10 14 -24 26 -30 31 -17 28 9 -5 48 -22 27
-31 31 -58 26 -39 -8 -116 19 -137 47 -15 20 -15 25 3 76 11 31 26 65 34 76 8
11 14 29 14 40 0 18 -1 18 -19 2 -19 -17 -20 -17 -23 11 -2 24 -8 28 -35 31
-25 2 -33 8 -33 23 0 12 7 19 20 19 22 0 23 3 14 38 -8 27 -15 28 -36 3z"/>
<path d="M580 1110 c0 -5 7 -10 15 -10 8 0 15 5 15 10 0 6 -7 10 -15 10 -8 0
-15 -4 -15 -10z"/>
<path d="M1224 1058 c-5 -8 -17 -17 -26 -21 -11 -4 -17 -15 -15 -29 2 -20 -3
-23 -37 -26 -63 -5 -111 -49 -73 -66 6 -4 2 -4 -10 -2 -18 3 -23 -1 -23 -15 0
-11 7 -22 15 -25 16 -7 124 51 142 77 7 9 26 22 43 29 35 15 36 19 11 61 -15
24 -21 28 -27 17z"/>
<path d="M475 1031 c-3 -10 -3 -26 1 -35 3 -9 1 -23 -6 -31 -16 -19 -3 -20 16
-1 8 8 14 31 14 50 0 38 -15 48 -25 17z"/>
<path d="M2217 1023 c-13 -12 -7 -34 10 -40 9 -4 29 -20 44 -37 25 -27 28 -39
29 -96 0 -63 -1 -66 -30 -78 -18 -8 -30 -21 -30 -33 0 -28 25 -23 49 9 l20 27
1 -40 c0 -44 -15 -77 -27 -60 -11 14 -60 45 -73 45 -16 0 -12 -19 9 -46 11
-13 21 -49 25 -85 6 -51 4 -63 -10 -74 -11 -7 -15 -19 -11 -29 12 -30 30 -12
46 45 9 30 24 65 34 79 9 13 17 29 17 35 0 6 9 30 21 54 19 39 19 44 5 66 -10
16 -16 47 -16 87 0 52 -5 71 -26 103 -25 38 -62 74 -75 75 -3 0 -9 -3 -12 -7z"/>
<path d="M493 943 c-7 -2 -13 -15 -13 -29 0 -36 47 -45 71 -13 27 36 -9 63
-58 42z"/>
<path d="M2345 893 c11 -74 48 -86 53 -18 4 40 -14 65 -46 65 -11 0 -13 -10
-7 -47z"/>
<path d="M603 903 c-26 -5 -29 -13 -11 -31 14 -14 58 -16 58 -3 0 16 -12 41
-19 40 -3 -1 -16 -4 -28 -6z"/>
<path d="M970 885 c0 -9 8 -19 18 -22 9 -4 34 -21 56 -39 21 -18 52 -36 70
-39 17 -4 41 -14 54 -22 24 -15 52 -11 52 7 0 6 -11 15 -25 20 -38 14 -30 23
15 16 34 -5 41 -3 55 18 29 44 -13 82 -77 69 -17 -3 -32 -12 -35 -19 -3 -8
-11 -14 -19 -14 -20 0 -17 -28 4 -33 13 -4 12 -5 -5 -6 -12 0 -28 6 -37 14 -8
8 -20 15 -26 15 -7 0 -25 11 -42 25 -33 28 -58 32 -58 10z m270 -45 c0 -5 -2
-10 -4 -10 -3 0 -8 5 -11 10 -3 6 -1 10 4 10 6 0 11 -4 11 -10z"/>
<path d="M1500 866 c0 -18 27 -39 40 -31 7 4 7 12 0 26 -12 22 -40 26 -40 5z"/>
<path d="M500 848 c1 -66 33 -118 72 -118 22 0 24 26 2 38 -9 5 -17 24 -19 42
-1 22 -9 36 -21 41 -28 11 -34 10 -34 -3z"/>
<path d="M2873 840 c-23 -9 -29 -21 -17 -33 5 -5 62 10 74 20 4 4 -21 23 -30
22 -3 0 -15 -4 -27 -9z"/>
<path d="M594 822 c11 -12 29 -22 41 -22 11 0 26 -5 33 -12 8 -8 15 -9 23 -1
14 14 -31 43 -79 50 l-37 6 19 -21z"/>
<path d="M893 778 c7 -29 -9 -50 -48 -64 -20 -6 -29 -16 -27 -27 2 -13 -5 -17
-33 -17 -31 0 -35 -3 -30 -19 4 -14 0 -20 -17 -24 -19 -5 -20 -9 -9 -19 10
-11 16 -9 28 10 10 14 26 22 43 22 22 0 29 5 33 28 5 22 14 30 51 40 80 24
105 84 37 90 -31 3 -33 1 -28 -20z"/>
<path d="M3433 765 c0 -22 2 -30 4 -17 2 12 2 30 0 40 -3 9 -5 -1 -4 -23z"/>
<path d="M760 767 c0 -8 7 -18 16 -21 11 -4 14 -1 12 11 -4 21 -28 30 -28 10z"/>
<path d="M2667 754 c-8 -8 1 -24 14 -24 5 0 9 7 9 15 0 15 -12 20 -23 9z"/>
<path d="M650 701 c0 -5 7 -12 16 -15 24 -9 28 -7 14 9 -14 17 -30 20 -30 6z"/>
<path d="M940 691 c-23 -44 -5 -66 37 -47 28 13 29 27 5 49 -24 22 -29 21 -42
-2z"/>
<path d="M540 680 c0 -10 9 -24 20 -30 12 -6 20 -21 20 -35 0 -16 6 -25 15
-25 12 0 14 7 9 28 -4 15 -11 28 -16 30 -4 2 -5 15 -2 28 5 21 3 24 -20 24
-19 0 -26 -5 -26 -20z"/>
<path d="M664 635 c-3 -8 -3 -19 1 -25 11 -18 25 -11 25 15 0 27 -17 34 -26
10z"/>
<path d="M683 577 c-13 -7 -23 -16 -23 -22 0 -16 49 -65 66 -65 8 0 17 -7 20
-15 4 -9 19 -15 35 -15 26 0 34 9 30 34 -5 24 12 46 35 46 19 0 25 5 22 17 -5
25 -37 28 -53 7 -18 -25 -59 -24 -65 1 -7 23 -35 28 -67 12z"/>
<path d="M2106 547 c-14 -10 -15 -18 -7 -40 15 -40 30 -33 28 13 -1 22 -2 40
-2 40 -1 0 -9 -6 -19 -13z"/>
<path d="M2146 551 c-9 -14 20 -32 39 -25 17 7 17 8 -1 21 -21 15 -31 16 -38
4z"/>
<path d="M923 505 c-12 -25 -23 -35 -39 -35 -33 0 -39 -18 -9 -26 28 -7 51 7
60 37 4 10 17 22 31 25 32 8 31 34 -1 34 -19 0 -29 -9 -42 -35z"/>
<path d="M1075 526 c-16 -8 -38 -17 -48 -20 -10 -3 -15 -10 -12 -16 16 -26
109 8 99 35 -4 8 -7 15 -8 15 0 0 -14 -7 -31 -14z"/>
<path d="M2296 515 c-3 -9 0 -15 9 -15 8 0 15 7 15 15 0 8 -4 15 -9 15 -5 0
-11 -7 -15 -15z"/>
<path d="M2200 441 c0 -11 4 -22 10 -26 5 -3 7 -12 4 -20 -7 -17 28 -53 60
-61 16 -4 26 -15 30 -35 8 -43 24 -36 51 24 14 30 36 59 50 67 28 15 32 32 10
50 -15 13 -39 5 -30 -11 4 -5 -2 -12 -12 -16 -23 -9 -33 -23 -33 -50 0 -28
-19 -29 -53 -3 -14 11 -30 20 -35 20 -6 0 -12 17 -14 37 -2 27 -8 39 -20 41
-12 2 -18 -3 -18 -17z"/>
<path d="M46 375 c-55 -43 -66 -79 -13 -48 68 41 77 48 77 65 0 26 -11 23 -64
-17z"/>
<path d="M105 346 c-16 -13 -27 -27 -23 -31 9 -10 58 25 58 41 0 18 0 18 -35
-10z"/>
<path d="M1560 270 c0 -11 7 -14 53 -24 34 -8 39 19 5 28 -35 9 -58 7 -58 -4z"/>
<path d="M1668 253 c-17 -4 -33 -32 -23 -41 9 -10 55 17 55 33 0 15 -3 16 -32
8z"/>
<path d="M2320 240 c0 -18 39 -50 60 -50 6 0 10 12 8 27 -2 22 -10 29 -35 34
-27 5 -33 3 -33 -11z"/>
<path d="M2410 9 l-65 -6 88 -1 c48 -1 87 1 87 6 0 9 -24 9 -110 1z"/>
</g>
</svg>
