<?xml version="1.0" standalone="no"?>
<!DOCTYPE svg PUBLIC "-//W3C//DTD SVG 20010904//EN"
 "http://www.w3.org/TR/2001/REC-SVG-20010904/DTD/svg10.dtd">
<svg version="1.0" xmlns="http://www.w3.org/2000/svg"
 width="384.000000pt" height="256.000000pt" viewBox="0 0 384.000000 256.000000"
 preserveAspectRatio="xMidYMid meet">
<metadata>
Created by potrace 1.16, written by Peter Selinger 2001-2019
</metadata>
<g transform="translate(0.000000,256.000000) scale(0.100000,-0.100000)"
fill="#000000" stroke="none">
<path d="M2918 2446 c-51 -18 -84 -41 -104 -72 -34 -51 -2 -205 79 -375 19
-41 45 -96 56 -123 30 -69 66 -113 111 -136 22 -11 44 -30 51 -41 11 -21 17
-21 109 -16 103 5 121 11 184 60 l39 31 -7 -95 c-18 -259 -27 -370 -36 -431
-6 -37 -10 -85 -10 -107 0 -22 -5 -52 -10 -67 -12 -31 1 -52 18 -31 15 18 37
228 63 597 11 162 15 184 55 309 24 73 44 142 44 152 0 21 16 26 23 7 3 -10 9
-10 26 0 11 6 24 12 27 12 9 0 -4 -500 -17 -650 -5 -63 -18 -239 -29 -390 -25
-345 -30 -390 -40 -410 -4 -8 -7 -46 -5 -85 4 -103 -17 -235 -43 -272 -15 -22
-22 -46 -22 -80 0 -45 -2 -49 -32 -62 -18 -7 -59 -27 -91 -42 -61 -31 -64 -30
-110 10 -32 28 -31 18 -8 221 6 52 16 156 22 230 6 74 13 161 16 193 3 37 1
57 -6 57 -6 0 -13 -10 -15 -22 -9 -50 -26 -219 -32 -323 -3 -60 -12 -157 -20
-214 -18 -135 -18 -133 11 -165 21 -22 23 -30 13 -46 -18 -28 -2 -36 33 -16
20 12 39 15 59 11 19 -4 30 -3 30 4 0 6 32 27 70 45 79 39 83 35 53 -42 -14
-38 -19 -43 -40 -38 -12 3 -34 9 -48 12 -20 5 -25 2 -25 -14 0 -11 -8 -23 -17
-25 -10 -3 33 -5 95 -6 61 0 112 3 112 8 0 5 9 11 20 14 14 3 20 14 20 31 0
21 -5 26 -24 26 -13 0 -28 6 -34 13 -13 15 -4 63 14 78 8 6 14 20 14 31 0 10
7 32 15 47 11 23 23 29 60 34 26 4 61 13 78 22 18 8 52 15 77 17 40 3 45 6 48
29 l3 26 -60 -12 c-32 -7 -65 -16 -72 -20 -9 -6 -11 1 -6 31 4 21 11 82 17
134 29 242 30 270 10 270 -4 0 -15 -69 -24 -153 -20 -170 -35 -277 -41 -287
-3 -4 -19 -10 -36 -14 -17 -3 -42 -15 -56 -26 -29 -23 -51 -27 -35 -8 5 7 15
54 21 103 6 50 14 108 17 130 3 22 10 99 14 170 5 72 14 189 19 260 6 72 16
195 21 275 6 80 14 199 20 265 5 66 10 172 10 235 0 63 3 153 7 198 5 75 9 85
30 95 26 12 31 42 8 51 -21 8 -19 33 5 46 20 11 28 50 10 50 -5 0 -9 26 -8 60
l2 61 43 10 c35 9 43 16 43 35 l0 23 -57 -20 c-66 -22 -93 -18 -93 17 0 19 -5
24 -24 24 -13 0 -29 -7 -36 -15 -7 -8 -18 -15 -25 -15 -7 0 -24 -9 -39 -21
-19 -15 -26 -17 -26 -6 0 8 -8 21 -17 29 -20 16 -222 68 -265 68 -15 0 -66 9
-113 20 -99 23 -136 24 -187 6z m297 -70 c83 -15 173 -32 200 -39 l50 -13 17
-63 c9 -34 21 -68 26 -74 5 -7 13 -31 17 -54 5 -35 -1 -66 -37 -175 -36 -110
-49 -138 -77 -162 -56 -50 -81 -59 -182 -65 -91 -6 -97 -5 -113 17 -9 12 -31
28 -49 36 -18 7 -40 22 -49 32 -21 24 -144 298 -169 379 -24 77 -25 147 -1
168 59 53 127 56 367 13z m399 -105 c3 -5 -1 -22 -9 -37 -8 -16 -12 -37 -9
-48 4 -12 2 -16 -5 -12 -6 4 -11 16 -11 27 0 11 -5 30 -11 41 -9 16 -8 23 2
29 18 11 36 11 43 0z m-74 -44 c0 -5 -4 -5 -10 -2 -5 3 -10 14 -10 23 0 15 2
15 10 2 5 -8 10 -19 10 -23z m-23 -2019 c-2 -13 -4 -3 -4 22 0 25 2 35 4 23 2
-13 2 -33 0 -45z m-25 -190 c-7 -7 -12 -8 -12 -2 0 14 12 26 19 19 2 -3 -1
-11 -7 -17z"/>
<path d="M1780 2110 c0 -6 -12 -42 -27 -81 l-28 -70 -70 5 c-38 3 -119 8 -180
12 -68 4 -113 11 -120 19 -18 22 -43 24 -61 4 -21 -23 -32 -24 -56 -2 -17 15
-18 15 -18 -5 0 -12 -5 -22 -10 -22 -6 0 -8 10 -5 23 9 34 -15 49 -71 45 -50
-3 -72 -22 -60 -53 6 -16 8 -16 24 -3 23 20 76 18 80 -3 3 -18 -44 -33 -54
-17 -3 5 -15 2 -25 -8 -11 -10 -19 -12 -19 -6 0 7 -9 12 -20 12 -11 0 -20 -4
-20 -10 0 -5 -11 -10 -25 -10 -19 0 -25 5 -25 22 0 17 3 19 12 10 7 -7 17 -12
22 -12 12 0 36 46 36 67 0 14 -22 18 -34 6 -4 -4 -23 -6 -42 -4 -37 3 -55 -18
-35 -42 7 -9 8 -24 2 -44 -13 -47 -2 -122 21 -134 34 -18 56 20 22 39 -15 8
-15 11 1 36 10 15 23 25 29 23 17 -6 24 -72 10 -92 -8 -10 -11 -22 -8 -26 10
-16 16 -447 7 -465 -6 -11 -6 -59 -2 -114 5 -52 11 -187 15 -299 6 -166 5
-203 -6 -196 -22 13 -130 12 -148 -2 -22 -16 -32 -16 -32 0 0 30 -23 90 -42
109 -16 16 -22 37 -25 92 -5 81 -18 122 -41 131 -10 4 -75 9 -145 10 -123 2
-128 1 -146 -21 -18 -23 -19 -23 -36 -4 -10 11 -26 20 -35 20 -10 0 -20 7 -24
15 -3 8 -14 15 -25 15 -11 0 -24 6 -28 13 -11 18 -54 47 -70 47 -7 0 -13 -9
-13 -20 0 -17 -7 -20 -45 -20 -40 0 -52 -5 -93 -44 -26 -24 -57 -48 -69 -55
-22 -11 -33 -51 -14 -51 10 0 50 30 104 77 29 26 44 32 60 27 30 -9 32 -11 20
-26 -6 -7 -16 -31 -23 -52 -7 -22 -22 -54 -32 -73 -17 -28 -18 -38 -8 -62 6
-16 22 -39 36 -52 19 -18 24 -32 24 -74 0 -47 -2 -52 -22 -51 -23 1 -51 34
-84 98 -12 22 -18 27 -24 18 -8 -13 -1 -40 25 -95 7 -16 20 -45 27 -62 12 -30
38 -46 38 -24 0 5 10 16 23 24 21 14 25 13 47 -3 22 -17 22 -18 6 -50 -9 -18
-16 -42 -16 -53 l0 -20 -22 20 c-31 27 -119 83 -132 84 -6 0 -21 2 -34 5 -22
4 -22 3 -22 -126 l0 -130 29 0 c46 0 64 -10 50 -26 -9 -11 -9 -17 0 -28 9 -11
9 -15 -1 -19 -11 -3 -11 -8 0 -26 10 -17 10 -21 -2 -21 -17 0 -29 -27 -16 -35
19 -12 9 -23 -25 -29 -29 -6 -35 -11 -35 -31 0 -29 -3 -29 50 -10 23 8 55 15
71 15 16 0 29 5 29 11 0 6 12 1 26 -10 49 -39 185 -22 159 19 -5 7 -25 9 -59
5 -43 -6 -55 -3 -78 14 -15 12 -30 30 -33 41 -9 29 -22 24 -28 -10 -5 -23 -12
-30 -29 -30 -21 1 -21 2 -5 11 9 6 17 22 17 37 0 41 19 56 43 34 18 -16 20
-16 33 3 8 10 14 24 14 30 0 9 17 9 63 3 80 -11 117 -26 117 -47 0 -9 3 -26 6
-39 5 -18 2 -24 -15 -29 -12 -3 -21 -13 -21 -24 0 -15 7 -19 34 -19 43 0 66
22 66 63 0 18 3 49 6 70 5 30 11 37 29 37 12 0 25 3 28 7 4 3 50 8 103 10 l95
4 -3 -42 -3 -43 -67 -17 c-76 -20 -88 -25 -88 -41 0 -11 99 -6 160 8 17 3 38
-3 65 -21 37 -24 40 -30 37 -62 -5 -44 15 -86 37 -77 20 9 114 21 246 32 94 9
100 8 117 -12 17 -21 20 -19 22 18 1 11 7 21 15 24 10 3 12 -7 10 -47 -3 -43
-1 -51 14 -51 14 0 17 9 17 50 0 28 4 58 9 68 6 9 12 29 15 43 6 26 7 26 83
25 76 -1 77 0 87 27 7 18 6 44 -1 80 -12 59 -9 74 7 31 20 -51 93 -162 115
-174 21 -11 80 -5 170 19 22 6 56 11 75 11 19 0 44 7 54 15 11 8 36 15 55 15
20 0 61 7 91 16 30 9 91 24 135 33 44 10 96 22 115 28 19 6 60 16 90 22 192
38 263 61 268 86 3 12 9 15 25 10 12 -4 43 -10 68 -12 43 -4 47 -3 53 21 7 30
18 33 36 11 7 -8 19 -15 26 -15 19 0 18 -7 -6 -37 -23 -29 -16 -50 27 -79 39
-26 135 -64 145 -58 4 3 15 21 23 41 14 34 16 35 33 19 22 -19 52 -21 52 -3 0
6 5 64 11 127 37 409 72 930 64 938 -17 17 -26 -54 -45 -353 -6 -99 -15 -216
-20 -260 -5 -44 -14 -155 -21 -247 -10 -126 -16 -168 -26 -168 -7 0 -13 9 -13
20 0 12 -12 32 -26 45 -27 25 -24 50 6 50 18 0 30 88 35 260 2 61 7 118 10
127 4 9 5 27 3 39 -4 30 -28 37 -28 8 0 -12 -8 -28 -17 -35 -26 -18 -43 1 -43
46 0 27 -6 41 -21 52 -22 14 -22 16 -11 139 14 148 17 272 9 286 -4 6 -50 13
-104 17 -85 6 -135 12 -310 42 l-33 5 0 144 0 144 -32 46 c-33 46 -57 56 -78
30 -14 -17 -5 -35 19 -35 9 0 27 -14 40 -31 21 -29 23 -39 22 -202 0 -158 -17
-506 -24 -514 -5 -4 -65 26 -71 36 -3 4 0 26 5 50 10 46 4 85 -12 76 -5 -4 -9
-14 -9 -23 0 -9 -7 -25 -14 -35 -12 -16 -15 -14 -40 23 -14 22 -26 47 -26 56
0 8 -13 29 -29 45 -35 34 -71 39 -71 9 0 -13 7 -20 18 -20 23 0 47 -26 57 -60
4 -14 16 -39 26 -56 24 -40 24 -54 0 -54 -15 0 -19 -10 -24 -52 -6 -47 -4 -55
16 -70 12 -10 39 -23 59 -28 20 -6 39 -14 42 -18 2 -4 -4 -32 -14 -62 -19 -55
-18 -70 2 -70 9 0 170 -74 186 -85 9 -7 -58 -185 -70 -185 -10 0 -147 100
-180 131 -15 15 -29 24 -32 22 -3 -3 -36 15 -73 39 -37 25 -90 57 -118 73 -27
16 -68 41 -89 57 -36 26 -46 28 -127 28 -48 0 -90 4 -93 9 -8 13 58 23 100 15
33 -6 36 -5 32 17 -3 22 -8 24 -58 23 -30 0 -74 -4 -97 -8 -36 -7 -42 -6 -53
14 -6 12 -9 24 -6 27 3 3 45 10 93 14 49 5 106 12 128 18 59 13 191 24 182 14
-5 -4 -14 -8 -20 -8 -8 0 -12 -23 -12 -68 0 -60 3 -71 24 -88 13 -10 38 -19
56 -19 30 0 33 3 38 38 3 20 10 56 16 80 8 29 8 49 1 62 -11 20 -14 60 -4 60
3 0 15 -11 26 -25 11 -14 24 -25 29 -25 19 0 8 37 -21 70 -25 30 -29 43 -30
93 0 51 -4 62 -29 88 -33 33 -66 38 -79 12 -6 -10 -8 -62 -5 -115 l4 -97 -38
-10 c-21 -6 -61 -11 -89 -11 -28 0 -73 -6 -100 -14 -27 -8 -132 -20 -234 -26
-102 -6 -207 -15 -235 -20 -27 -5 -74 -11 -102 -14 l-53 -5 0 94 c0 78 -3 95
-15 95 -12 0 -15 -17 -15 -94 0 -52 -4 -105 -9 -119 -5 -13 -6 -30 -1 -37 7
-11 13 -10 34 3 14 9 45 17 69 17 24 0 63 7 88 15 42 14 279 26 279 14 0 -3
-6 -12 -12 -21 -16 -19 -44 -25 -218 -43 -74 -8 -168 -21 -208 -30 -102 -21
-168 -20 -181 3 -9 16 -10 16 -16 -1 -4 -9 -4 -29 -1 -43 7 -26 8 -27 75 -20
37 3 81 10 97 16 16 6 104 16 195 24 92 8 176 19 189 26 29 15 35 8 11 -14
-14 -13 -47 -19 -128 -25 -60 -5 -118 -13 -129 -19 -10 -6 -77 -20 -149 -33
-71 -12 -140 -26 -152 -30 -22 -8 -23 -6 -23 44 0 28 -2 124 -5 212 -2 91 -1
147 4 130 l8 -30 10 25 c6 13 19 25 29 26 66 3 64 2 64 47 0 23 -5 61 -10 85
-12 51 -2 76 32 77 20 0 23 5 23 35 0 31 -3 35 -27 38 -23 3 -30 -2 -38 -25
-18 -48 -33 -73 -41 -67 -10 6 10 54 23 54 4 0 8 9 8 20 0 24 -32 27 -54 4
-12 -12 -13 -20 -5 -35 7 -15 7 -24 -1 -35 -10 -11 -9 -19 4 -39 9 -14 23 -25
30 -25 8 0 17 -12 20 -26 9 -35 1 -42 -15 -12 -7 12 -24 35 -39 50 -25 25 -28
35 -34 141 -9 137 -6 396 4 417 4 8 14 28 21 44 15 32 10 30 108 47 40 7 83
20 94 29 19 16 23 16 51 0 24 -14 67 -19 196 -25 312 -13 355 -15 475 -24 66
-5 127 -12 136 -16 10 -3 20 -2 23 3 10 17 -5 42 -24 42 -10 0 -21 8 -25 19
-11 35 -116 43 -138 10 -13 -17 -19 -19 -36 -9 -12 6 -25 8 -30 5 -5 -3 -16 2
-24 10 -19 18 -29 19 -46 3 -12 -13 -91 -18 -91 -6 0 3 9 27 20 53 21 50 27
105 10 105 -5 0 -10 -5 -10 -10z m943 -752 c13 -7 16 -15 10 -31 -4 -12 -8
-53 -9 -92 0 -98 1 -94 -39 -85 -62 14 -67 23 -60 111 6 71 4 80 -16 100 l-22
22 59 -8 c33 -4 67 -11 77 -17z m216 -24 l54 -7 -7 -136 c-7 -147 -17 -214
-29 -193 -5 6 -16 12 -27 12 -24 0 -32 24 -19 58 15 39 25 212 12 212 -16 0
-23 -26 -23 -85 0 -30 -4 -57 -10 -60 -6 -4 -10 13 -10 43 0 53 -23 122 -41
122 -7 0 -9 -11 -4 -32 12 -59 16 -123 8 -134 -4 -6 -25 -14 -45 -18 l-38 -7
-2 53 c0 29 0 60 1 68 1 8 3 39 4 69 l1 53 61 -6 c33 -3 84 -9 114 -12z
m-1841 -117 c7 -15 20 -27 28 -27 18 0 18 -16 0 -23 -23 -9 -56 4 -56 22 0 9
-3 27 -7 40 -8 33 18 24 35 -12z m1117 -7 c22 -25 13 -50 -20 -50 -21 0 -25 5
-25 28 0 46 16 54 45 22z m382 -32 c-2 -13 -4 -5 -4 17 -1 22 1 32 4 23 2 -10
2 -28 0 -40z m-1427 8 c0 -3 -4 -8 -10 -11 -5 -3 -10 -1 -10 4 0 6 5 11 10 11
6 0 10 -2 10 -4z m1520 -91 c0 -9 -6 -12 -15 -9 -8 4 -15 10 -15 15 0 5 7 9
15 9 8 0 15 -7 15 -15z m-2420 -95 c-20 -37 -30 -69 -30 -100 0 -30 -7 -53
-21 -69 -19 -23 -20 -23 -39 -6 -27 24 -25 42 10 111 16 32 30 70 30 83 0 14
10 35 22 48 21 23 23 23 40 5 18 -17 17 -20 -12 -72z m1923 30 c3 -11 1 -23
-4 -26 -5 -3 -9 6 -9 20 0 31 6 34 13 6z m441 -9 c3 -5 -1 -12 -10 -15 -20 -8
-29 -1 -19 13 8 13 22 14 29 2z m-2124 -11 c0 -5 -4 -10 -10 -10 -5 0 -10 5
-10 10 0 6 5 10 10 10 6 0 10 -4 10 -10z m-135 -49 c3 -9 1 -17 -4 -19 -6 -2
-11 -9 -11 -16 0 -20 30 -76 41 -76 5 0 17 -8 28 -19 25 -25 46 -12 37 23 -5
19 -15 28 -35 32 -23 5 -28 11 -27 34 1 25 4 28 24 23 17 -4 22 -1 22 16 0 27
4 27 50 -6 40 -29 56 -61 40 -77 -10 -10 -2 -36 11 -36 5 0 9 11 9 25 0 29 34
36 44 8 6 -14 8 -14 21 3 11 15 14 15 14 4 0 -26 -22 -45 -68 -59 -24 -7 -51
-19 -58 -27 -8 -8 -27 -14 -43 -14 -16 0 -35 -3 -43 -6 -10 -3 -17 3 -21 19
-3 15 -18 29 -38 37 -42 17 -78 49 -78 70 0 9 -5 21 -11 27 -7 7 -4 21 11 47
l22 36 29 -17 c15 -9 31 -24 34 -32z m195 39 c0 -5 -4 -10 -10 -10 -5 0 -10 5
-10 10 0 6 5 10 10 10 6 0 10 -4 10 -10z m1670 6 c0 -3 -4 -8 -10 -11 -5 -3
-10 -1 -10 4 0 6 5 11 10 11 6 0 10 -2 10 -4z m641 -28 c22 -12 39 -25 39 -30
0 -14 -39 -8 -77 12 -21 11 -45 20 -53 20 -13 0 -13 1 0 10 23 15 49 12 91
-12z m-2113 -179 l4 -171 -29 -29 c-25 -26 -34 -28 -98 -29 -84 0 -93 9 -111
110 -13 75 -2 100 46 100 36 0 77 33 96 78 8 20 20 40 27 44 6 4 10 23 9 42
-3 26 1 35 15 38 10 3 23 1 28 -4 6 -5 11 -83 13 -179z m1658 160 l39 -20 -33
5 c-37 6 -88 36 -61 36 8 0 33 -9 55 -21z m249 -23 c28 -13 72 -31 98 -41 86
-31 41 -28 -53 4 -51 17 -98 31 -106 31 -20 0 -64 22 -64 32 0 14 69 -1 125
-26z m-457 13 c12 1 22 -2 22 -8 0 -12 -39 -15 -64 -5 -9 3 -13 10 -10 15 3 5
11 6 17 2 7 -4 22 -6 35 -4z m775 -34 c15 -14 27 -27 27 -28 0 -1 -22 -2 -50
-2 -27 0 -50 1 -50 2 0 1 5 14 12 28 14 32 26 32 61 0z m-819 -39 c6 -26 5
-28 -8 -17 -9 8 -16 28 -16 45 1 35 12 21 24 -28z m496 -11 c25 -8 81 -23 125
-35 44 -12 94 -28 110 -35 32 -14 112 -39 158 -49 l29 -7 -6 -72 c-2 -40 -8
-91 -11 -113 l-7 -42 -56 20 c-75 26 -94 36 -114 61 -13 17 -19 19 -31 9 -12
-11 -19 -8 -36 14 -12 15 -21 36 -21 48 0 12 -7 32 -16 44 -9 13 -13 30 -10
39 10 26 -4 53 -27 53 -28 0 -116 27 -132 40 -10 8 -39 16 -67 19 -5 1 -8 7
-8 15 0 17 45 13 120 -9z m-166 -20 c-24 -32 -44 -45 -44 -28 0 10 52 63 62
63 5 0 -3 -16 -18 -35z m414 5 c79 -25 113 -44 62 -34 -19 3 -48 12 -64 20
-16 8 -36 14 -45 14 -9 0 -23 5 -31 10 -25 16 7 12 78 -10z m-2623 -28 c-6 -7
-35 18 -35 31 0 5 9 2 20 -8 11 -10 18 -20 15 -23z m1484 24 c9 -10 8 -15 -4
-20 -10 -4 -15 1 -15 14 0 24 4 25 19 6z m-52 -18 c-3 -8 -6 -5 -6 6 -1 11 2
17 5 13 3 -3 4 -12 1 -19z m-1443 -53 c18 -14 43 -25 54 -25 12 0 22 -4 22
-10 0 -5 -18 -10 -39 -10 -39 0 -53 -12 -43 -37 2 -7 18 -13 36 -13 17 0 41
-7 53 -15 14 -10 32 -13 48 -9 22 5 25 3 25 -20 0 -33 -25 -35 -57 -4 -21 20
-25 20 -50 7 -16 -8 -32 -20 -36 -27 -7 -10 -17 -4 -42 25 -30 33 -34 45 -35
94 0 78 10 85 64 44z m549 -62 c10 -28 17 -63 17 -77 0 -15 9 -43 20 -63 11
-21 20 -49 19 -63 0 -21 -2 -22 -8 -7 -6 17 -9 16 -34 -9 -32 -31 -34 -54 -9
-77 22 -20 32 -13 33 22 1 23 2 22 11 -8 8 -30 7 -37 -15 -57 -22 -20 -27 -21
-37 -9 -7 8 -25 15 -40 15 -31 0 -47 25 -30 46 8 9 7 21 -5 43 -18 36 -12 69
22 120 22 33 24 44 21 122 -3 95 5 96 35 2z m1199 64 c20 -12 80 -49 133 -82
53 -33 111 -69 130 -80 85 -51 167 -110 205 -147 15 -16 36 -28 47 -28 10 -1
32 -7 48 -14 30 -12 30 -13 8 -24 -12 -7 -55 -19 -95 -27 -40 -8 -89 -19 -108
-25 -19 -5 -87 -21 -150 -35 -63 -13 -140 -31 -170 -39 -30 -7 -77 -16 -103
-20 -27 -3 -58 -13 -70 -21 -12 -8 -41 -15 -64 -15 -24 0 -77 -9 -119 -21 -41
-11 -82 -18 -90 -15 -8 3 -37 41 -64 83 l-50 78 0 112 c0 62 5 123 11 137 18
38 3 68 -51 106 -27 19 -50 38 -50 43 0 4 41 7 90 7 83 0 90 -1 82 -17 -5 -10
-7 -24 -5 -30 6 -17 43 2 43 21 0 8 9 24 20 37 l19 24 1 -25 1 -25 16 23 c11
16 26 22 57 23 22 1 52 5 66 9 14 4 59 8 100 9 61 1 82 -4 112 -22z m605 3
c21 -10 55 -26 76 -34 20 -8 37 -21 37 -27 0 -10 -3 -10 -12 -1 -7 7 -19 12
-27 12 -22 0 -121 49 -121 60 0 13 2 13 47 -10z m-2152 -50 c10 -16 -42 -43
-70 -36 -14 4 -25 11 -25 17 0 21 83 39 95 19z m960 -52 l66 -53 -75 -6 c-42
-4 -92 -14 -112 -24 -41 -19 -53 -11 -54 35 0 14 -3 34 -6 45 -3 14 3 25 23
37 50 31 86 23 158 -34z m-205 -26 c0 -62 -14 -78 -75 -87 -166 -24 -208 -37
-222 -65 -13 -25 -17 -21 -13 13 1 10 -10 38 -24 64 -14 25 -26 49 -26 54 0
14 44 23 107 20 41 -1 72 3 93 14 31 16 95 32 138 34 20 1 22 -4 22 -47z
m1436 23 c-3 -20 -13 -28 -25 -20 -7 4 -7 11 2 20 16 19 26 19 23 0z m81 -11
c16 -5 21 -12 19 -28 -3 -11 -5 -27 -5 -33 -1 -21 -18 -15 -24 8 -4 15 -11 20
-23 15 -12 -5 -15 -2 -10 10 3 8 6 20 6 25 0 10 7 11 37 3z m-2256 -66 c7 -13
19 -28 28 -35 11 -9 12 -12 3 -13 -9 0 -10 -5 -2 -20 10 -19 26 -20 147 -5
l33 4 -2 -75 c0 -41 -4 -74 -8 -74 -4 0 -15 11 -24 25 -21 32 -32 32 -44 -2
l-10 -28 -7 33 c-5 22 -17 38 -36 48 -28 14 -29 14 -30 -8 -1 -13 0 -38 1 -55
1 -32 -12 -44 -25 -23 -3 6 -12 10 -18 10 -7 0 -6 -4 3 -10 22 -14 4 -12 -37
5 -19 8 -44 15 -53 15 -16 0 -103 50 -135 78 -5 4 -18 11 -27 15 -19 7 -24 22
-10 30 15 10 52 -12 46 -28 -10 -24 33 -19 47 6 6 12 9 38 5 60 -3 21 -2 40 4
44 6 4 10 -6 10 -23 0 -37 3 -40 40 -34 24 3 36 14 51 43 22 45 33 48 50 17z
m988 -94 c-3 -79 -13 -104 -23 -57 -5 25 -9 106 -7 126 1 4 8 7 17 7 13 0 15
-12 13 -76z m-1365 10 c34 -24 116 -74 183 -111 l123 -68 -1 -55 c-1 -46 -3
-50 -8 -21 -8 43 -52 70 -136 82 -83 11 -105 16 -121 30 -8 6 -35 13 -60 15
-78 6 -81 8 -87 73 -2 32 -3 70 0 85 7 34 25 29 107 -30z m2527 21 c21 -7 26
-25 6 -25 -26 0 -48 25 -40 45 6 17 8 18 11 3 2 -9 12 -20 23 -23z m-1291 -30
c0 -58 -7 -68 -28 -35 -7 11 -21 20 -32 20 -15 0 -20 7 -20 25 0 19 7 26 33
34 17 5 35 10 40 10 4 1 7 -24 7 -54z m1580 -1 c0 -2 -6 -1 -13 2 -8 3 -26 0
-42 -6 -34 -13 -38 -10 -26 23 l10 27 36 -21 c19 -12 35 -23 35 -25z m-1700
27 c0 -9 -127 -41 -164 -41 -12 0 -29 -9 -39 -20 -19 -23 -37 -26 -37 -7 0 19
41 40 95 48 28 5 68 12 90 17 55 13 55 13 55 3z m1535 -32 c13 -13 -10 -11
-56 3 -22 6 -39 14 -39 19 0 8 81 -10 95 -22z m-1360 -26 c33 -57 46 -107 38
-144 l-5 -28 -23 27 c-26 32 -60 192 -41 192 2 0 16 -21 31 -47z m1600 17 c25
-10 26 -10 8 -33 -15 -20 -21 -22 -43 -14 -24 9 -25 13 -16 33 12 27 15 28 51
14z m-1776 -28 c5 -9 7 -65 4 -125 l-6 -107 -27 0 c-28 0 -28 0 -31 80 -2 43
-9 84 -15 90 -12 12 -109 -5 -131 -22 -8 -6 -13 -33 -13 -64 0 -29 -4 -56 -10
-59 -5 -3 -10 -17 -10 -30 0 -21 -7 -25 -61 -36 -52 -10 -60 -14 -57 -33 3
-18 9 -21 41 -18 21 2 50 10 65 18 15 8 52 14 82 15 30 0 87 6 125 13 l70 12
9 141 8 140 22 -22 c12 -12 28 -24 34 -26 8 -3 13 -30 13 -79 1 -64 4 -78 23
-92 21 -17 20 -18 -26 -18 l-48 0 0 -39 c0 -60 0 -61 -235 -91 -38 -5 -101
-13 -140 -19 -38 -5 -71 -8 -73 -6 -2 1 2 27 8 56 7 30 15 83 18 119 9 85 39
130 86 130 19 0 39 7 47 16 19 23 65 44 97 44 16 0 45 7 63 15 45 19 56 18 68
-3z m1497 -12 c15 -6 25 -13 22 -15 -3 -3 -20 1 -39 9 -38 17 -25 21 17 6z
m-1586 -140 c0 -27 -2 -50 -4 -50 -3 0 -17 5 -31 10 -20 8 -30 7 -41 -5 -9 -8
-19 -15 -23 -15 -8 0 -3 90 5 99 2 2 15 -1 28 -7 19 -9 27 -8 36 4 22 25 30
15 30 -36z m1876 20 c1 0 4 -6 7 -14 4 -9 0 -12 -13 -9 -10 3 -21 0 -24 -6 -5
-8 -14 -8 -29 1 -21 12 -25 13 -44 17 -5 1 3 7 17 14 17 9 35 11 55 5 16 -4
31 -8 31 -8z m-2211 -16 c18 -20 24 -37 23 -70 -1 -52 -11 -55 -60 -16 -26 19
-37 37 -41 62 -6 56 37 69 78 24z m625 -73 c0 -11 -3 -11 -15 -1 -14 12 -45
67 -45 79 1 12 59 -65 60 -78z m-320 -21 c0 -5 -10 -10 -22 -10 -19 0 -20 2
-8 10 19 13 30 13 30 0z"/>
<path d="M457 925 c-7 -16 8 -29 23 -20 10 6 2 35 -10 35 -4 0 -10 -7 -13 -15z"/>
<path d="M304 1916 c4 -62 11 -103 19 -108 6 -4 64 -7 127 -6 l115 3 -2 25
c-1 14 -2 58 -3 98 -1 45 -7 75 -14 77 -6 2 -64 5 -130 7 l-119 3 7 -99z m219
20 c-3 -36 -12 -46 -24 -23 -12 21 -59 23 -59 2 0 -8 -4 -15 -10 -15 -5 0 -10
7 -10 15 0 20 -19 19 -41 -1 -16 -15 -19 -14 -33 15 -9 16 -16 33 -16 36 0 3
44 4 98 3 l97 -3 -2 -29z m-123 -87 c0 -12 -57 -12 -64 0 -3 4 -3 10 -1 13 8
8 65 -4 65 -13z m120 1 c0 -5 -18 -10 -40 -10 -22 0 -40 5 -40 10 0 6 18 10
40 10 22 0 40 -4 40 -10z"/>
<path d="M3801 1548 c-12 -62 -21 -149 -22 -193 0 -44 -4 -114 -9 -155 -5 -41
-13 -104 -18 -140 -4 -36 -11 -70 -14 -75 -9 -15 5 -35 19 -27 16 10 29 111
48 357 8 110 19 216 25 235 5 19 10 52 10 72 0 72 -18 38 -39 -74z"/>
<path d="M2420 1589 c0 -19 75 -139 85 -135 16 4 19 128 3 137 -19 12 -88 11
-88 -2z m70 -50 c0 -6 -4 -7 -10 -4 -5 3 -10 11 -10 16 0 6 5 7 10 4 6 -3 10
-11 10 -16z"/>
<path d="M3270 965 c0 -29 4 -35 25 -40 14 -3 36 -7 50 -10 20 -4 25 -1 25 15
0 27 -17 60 -32 60 -6 0 -16 -8 -23 -17 -11 -15 -13 -15 -19 5 -11 34 -26 26
-26 -13z"/>
<path d="M3372 858 c-6 -8 -11 -23 -11 -33 1 -25 -19 -241 -32 -360 -23 -211
-23 -205 -5 -205 13 0 16 10 16 49 0 27 4 71 10 98 5 26 14 109 20 183 6 74
14 162 19 195 9 66 2 96 -17 73z"/>
<path d="M3040 196 c0 -15 58 -56 79 -56 6 0 11 9 11 20 0 13 -12 25 -36 35
-45 19 -54 19 -54 1z"/>
<path d="M3785 90 c3 -5 10 -10 16 -10 5 0 9 5 9 10 0 6 -7 10 -16 10 -8 0
-12 -4 -9 -10z"/>
<path d="M1210 15 c-10 -13 -9 -15 8 -15 15 0 20 5 16 15 -4 8 -7 15 -9 15 -1
0 -8 -7 -15 -15z"/>
<path d="M1525 10 c-4 -6 16 -10 52 -9 44 1 52 3 33 9 -36 12 -78 12 -85 0z"/>
<path d="M1650 10 c0 -5 16 -10 36 -10 21 0 33 4 29 10 -3 6 -19 10 -36 10
-16 0 -29 -4 -29 -10z"/>
<path d="M2010 10 c-31 -5 -5 -7 80 -7 91 -1 114 2 85 8 -46 9 -101 9 -165 -1z"/>
<path d="M2310 10 c-10 -7 12 -10 70 -9 57 0 78 3 65 9 -28 12 -117 12 -135 0z"/>
<path d="M2559 9 c-8 -5 59 -8 161 -8 96 0 171 2 165 4 -24 8 -314 12 -326 4z"/>
<path d="M1818 3 c6 -2 18 -2 25 0 6 3 1 5 -13 5 -14 0 -19 -2 -12 -5z"/>
<path d="M2963 3 c15 -2 39 -2 55 0 15 2 2 4 -28 4 -30 0 -43 -2 -27 -4z"/>
</g>
</svg>
