<?xml version="1.0" standalone="no"?>
<!DOCTYPE svg PUBLIC "-//W3C//DTD SVG 20010904//EN"
 "http://www.w3.org/TR/2001/REC-SVG-20010904/DTD/svg10.dtd">
<svg version="1.0" xmlns="http://www.w3.org/2000/svg"
 width="384.000000pt" height="256.000000pt" viewBox="0 0 384.000000 256.000000"
 preserveAspectRatio="xMidYMid meet">
<metadata>
Created by potrace 1.16, written by Peter Selinger 2001-2019
</metadata>
<g transform="translate(0.000000,256.000000) scale(0.100000,-0.100000)"
fill="#000000" stroke="none">
<path d="M1865 2228 c-3 -183 -5 -416 -3 -518 3 -181 3 -185 25 -188 14 -2 26
4 34 20 7 13 35 49 63 81 93 107 141 164 169 201 32 41 103 90 117 81 6 -4 10
-33 10 -66 0 -34 7 -73 15 -89 8 -16 14 -44 13 -61 -2 -19 2 -34 10 -36 8 -3
12 9 12 44 0 28 3 53 6 56 8 8 64 -24 64 -35 0 -4 14 -8 32 -8 29 0 30 -1 15
-18 -23 -25 -27 -224 -6 -263 9 -15 13 -44 11 -72 -4 -44 -6 -47 -33 -47 -18
0 -29 5 -29 14 0 16 -67 119 -81 124 -17 7 -9 -45 10 -67 11 -13 23 -36 26
-52 4 -16 11 -31 16 -34 5 -4 9 -24 9 -45 0 -37 4 -42 55 -75 42 -27 55 -40
55 -60 0 -40 -29 -89 -63 -105 -22 -11 -35 -27 -45 -58 -7 -23 -19 -42 -26
-42 -15 0 -51 25 -51 37 -1 4 -4 29 -8 54 -9 51 6 99 31 99 12 0 13 9 8 47 -5
42 -4 50 16 65 22 16 22 18 6 34 -16 17 -18 17 -38 -1 -15 -13 -20 -31 -20
-66 0 -31 -8 -61 -21 -84 -21 -35 -23 -86 -5 -127 11 -25 -17 -23 -74 5 -55
27 -58 38 -67 250 -6 148 -15 189 -29 133 -5 -21 -13 -25 -57 -28 -29 -3 -56
-1 -61 4 -5 4 -16 2 -23 -4 -11 -9 -20 -5 -43 17 -17 16 -30 25 -30 20 0 -5
-6 -3 -12 3 -18 18 6 32 55 32 21 0 56 9 77 20 48 25 57 5 10 -22 -18 -10 -30
-25 -30 -38 0 -25 5 -25 60 9 57 34 71 65 75 154 1 50 9 85 24 114 11 23 21
48 21 56 0 8 9 22 20 32 19 18 20 17 20 -2 0 -12 -7 -56 -16 -98 -11 -53 -14
-103 -10 -159 3 -44 6 -127 6 -183 0 -87 2 -103 16 -103 13 0 15 18 15 133 -2
241 10 420 30 433 5 3 9 11 9 19 0 19 -65 14 -84 -5 -8 -8 -28 -49 -46 -90
-18 -41 -38 -82 -45 -90 -6 -8 -17 -29 -24 -46 -27 -69 -61 -89 -147 -84 -18
1 -35 -3 -39 -9 -3 -6 -21 -11 -39 -11 -87 0 -69 -75 29 -116 22 -9 48 -23 57
-31 9 -8 25 -12 36 -9 10 4 30 2 43 -3 13 -5 18 -10 12 -10 -20 -1 -16 -41 5
-41 9 0 24 -5 32 -11 11 -8 -1 -9 -45 -4 -65 6 -137 47 -195 112 -30 32 -50
36 -50 9 0 -6 16 -27 35 -46 39 -38 46 -65 15 -57 -26 7 -33 -6 -15 -29 8 -10
15 -22 15 -26 0 -16 -48 -7 -74 13 -14 11 -42 25 -61 30 -19 6 -35 14 -35 19
0 17 41 31 71 25 24 -6 29 -3 29 13 0 44 -61 51 -101 11 -19 -19 -53 -16 -81
8 -12 11 -21 12 -37 4 -28 -15 -51 -51 -51 -78 0 -31 16 -29 32 5 8 16 23 28
37 30 31 5 82 -43 76 -72 -2 -12 -7 -38 -10 -58 -5 -34 -10 -39 -48 -50 -23
-6 -53 -19 -67 -28 -14 -8 -42 -23 -62 -33 -21 -9 -38 -21 -38 -27 0 -25 -22
-6 -45 40 -14 28 -27 50 -30 50 -3 0 -34 -20 -69 -44 -36 -24 -75 -47 -88 -51
-44 -12 -68 -29 -68 -47 0 -22 7 -22 55 -2 l38 15 -6 -37 c-7 -41 7 -75 53
-128 l30 -34 -36 -41 c-20 -22 -44 -41 -53 -41 -9 0 -22 -4 -30 -9 -20 -13 3
-41 34 -41 12 0 25 -3 29 -7 4 -4 106 -9 227 -10 207 -2 222 0 240 18 18 18
19 32 17 187 -4 219 -21 223 -28 7 l-5 -160 -218 -5 c-119 -3 -217 -2 -217 1
0 3 9 14 21 25 23 21 79 125 79 148 0 16 49 82 96 130 32 32 101 71 144 79 49
10 159 55 186 76 15 11 41 21 58 21 18 0 37 5 44 12 9 9 13 8 17 -3 3 -8 4
-265 3 -572 l-3 -557 28 0 c27 0 36 13 17 25 -16 10 -13 745 3 746 35 5 53 3
64 -4 7 -5 19 -7 27 -4 7 3 31 2 52 -3 22 -5 53 -11 70 -13 17 -3 43 -13 58
-22 23 -15 26 -24 27 -79 3 -99 -1 -126 -36 -231 -18 -55 -36 -118 -40 -140
-4 -21 -13 -51 -20 -66 -17 -32 -30 -147 -21 -183 12 -49 24 -26 28 58 2 47 9
90 15 98 6 7 18 46 27 86 9 40 23 89 31 110 32 80 55 195 49 242 -5 35 -2 49
10 59 9 7 16 20 16 27 0 8 9 14 20 14 26 0 25 -2 -6 -52 -26 -40 -26 -44 -13
-83 18 -50 35 -44 31 12 -3 30 2 51 16 70 11 16 30 51 42 78 12 28 37 73 55
100 37 57 61 108 81 180 34 117 56 165 75 165 11 0 19 4 19 9 0 5 22 31 49 58
27 26 51 57 53 68 4 24 46 46 102 52 110 11 102 6 121 86 10 39 21 76 25 81
14 15 24 -82 10 -99 -6 -7 -10 -24 -8 -37 8 -56 328 -89 593 -61 61 7 70 11
70 28 0 18 -6 20 -55 17 -143 -6 -392 -5 -455 2 -80 10 -109 22 -101 41 3 8 0
40 -6 72 -5 32 -12 68 -14 81 -3 12 -19 37 -37 55 -55 54 -58 63 -72 174 -7
59 -16 117 -20 128 -3 11 21 -9 54 -43 33 -35 64 -61 69 -58 10 6 56 -40 65
-66 4 -10 11 -18 17 -18 13 0 13 36 -1 62 -6 12 -12 60 -13 107 -1 81 -2 86
-23 89 -16 2 -26 -4 -34 -22 -10 -21 -8 -29 10 -52 11 -15 21 -35 21 -44 0
-29 -40 -12 -87 36 -23 24 -47 44 -53 44 -8 0 -10 13 -5 40 4 22 3 40 -2 40
-16 0 -56 -98 -48 -117 8 -19 20 -88 31 -186 6 -50 4 -61 -14 -80 -12 -12 -43
-75 -71 -138 -55 -130 -102 -208 -153 -255 -111 -105 -103 -102 -98 -32 1 14
-5 30 -13 35 -11 6 -12 21 -7 68 6 48 4 69 -11 104 -22 51 -22 54 -8 120 7 34
16 52 29 56 27 9 55 -9 70 -45 12 -28 10 -36 -24 -101 -41 -81 -41 -79 -22
-79 17 0 51 53 61 93 10 38 30 34 63 -13 15 -21 30 -39 35 -40 18 -1 4 50 -23
86 -36 48 -39 69 -8 61 29 -8 68 28 68 62 0 14 11 50 25 79 14 30 25 62 25 71
0 9 5 22 11 28 14 14 2 53 -17 53 -9 0 -14 -11 -14 -29 0 -16 -13 -63 -30
-104 -16 -42 -30 -82 -30 -91 0 -25 -15 -19 -43 17 -50 65 -79 89 -105 82 -18
-4 -10 6 30 42 29 26 62 58 73 72 10 14 25 29 31 34 7 4 22 23 34 42 13 20 30
35 41 35 14 0 19 7 19 26 0 18 -4 25 -14 21 -9 -4 -21 12 -37 45 -22 46 -22
51 -6 59 13 8 17 23 17 65 0 41 6 64 25 94 14 22 25 45 25 51 0 6 15 25 33 43
18 17 39 49 45 72 9 30 21 46 47 60 44 23 44 34 2 34 -36 0 -60 -19 -72 -58
-3 -12 -22 -42 -40 -67 -40 -52 -95 -165 -95 -196 0 -25 -48 -86 -64 -80 -6 2
-32 3 -58 2 -76 -3 -117 29 -118 92 0 63 -71 137 -115 121 -10 -4 -22 1 -30
12 -19 26 -43 10 -62 -41 -50 -135 -54 -158 -53 -290 1 -71 1 -135 1 -142 -1
-6 -9 -14 -20 -18 -10 -3 -30 -23 -45 -45 -14 -21 -41 -56 -60 -77 -61 -68
-120 -138 -148 -173 l-28 -35 0 38 c0 23 4 36 10 32 6 -3 13 0 16 8 3 8 14 17
25 20 10 3 19 12 19 21 0 12 -10 16 -37 16 l-36 0 7 416 c4 229 10 422 13 430
3 9 -2 14 -15 14 -19 0 -20 -9 -27 -332z m543 58 c7 -4 12 -28 12 -55 0 -26 7
-56 15 -67 8 -10 15 -25 15 -33 0 -22 -86 -8 -115 19 -13 12 -41 24 -64 27
-35 5 -41 9 -41 30 0 13 6 38 13 56 14 32 14 32 83 32 38 -1 75 -4 82 -9z
m-144 -151 c21 -9 41 -26 46 -40 8 -20 13 -23 32 -17 13 5 48 6 79 4 l55 -4
13 -74 c8 -49 17 -74 24 -71 16 5 22 77 7 77 -8 0 -9 11 -5 33 10 42 20 54 57
62 40 9 59 -10 62 -67 2 -24 6 -53 10 -65 5 -16 -9 -35 -66 -93 -116 -116
-127 -122 -120 -66 6 54 -11 76 -61 76 -23 0 -46 4 -52 8 -21 15 -37 57 -42
111 -4 57 -18 85 -35 75 -5 -3 -6 -19 -3 -35 6 -26 4 -29 -18 -29 -24 0 -25 3
-29 65 -1 36 0 65 3 65 4 0 23 -7 43 -15z m326 -455 c16 -23 18 -30 7 -30 -16
0 -30 15 -40 43 -10 27 10 20 33 -13z m255 -72 c-4 -17 -16 -45 -26 -62 -10
-17 -19 -44 -19 -60 0 -31 -24 -66 -47 -66 -17 0 -17 10 6 62 52 121 72 157
89 158 2 0 0 -14 -3 -32z m56 -54 c-11 -21 -22 -56 -26 -76 -7 -39 -27 -64
-43 -54 -9 6 2 56 35 153 17 50 19 51 36 35 16 -17 16 -20 -2 -58z m-829 -76
c-7 -7 -12 -8 -12 -2 0 6 3 14 7 17 3 4 9 5 12 2 2 -3 -1 -11 -7 -17z m388
-237 c0 -26 -15 -34 -40 -21 -31 17 -25 40 10 40 23 0 30 -5 30 -19z m-570
-67 c0 -14 -3 -14 -15 -4 -8 7 -15 14 -15 16 0 2 7 4 15 4 8 0 15 -7 15 -16z
m-186 -23 c16 -17 15 -19 -18 -35 -19 -9 -36 -16 -39 -16 -12 0 -16 33 -7 51
13 24 42 24 64 0z m356 -21 c10 -6 11 -10 3 -10 -9 0 -13 -17 -13 -51 0 -35
-6 -60 -20 -79 -11 -15 -24 -39 -30 -54 -11 -31 -30 -33 -55 -6 -10 11 -26 20
-37 20 -15 0 -18 8 -18 44 0 35 6 50 29 75 16 17 33 31 38 31 4 0 19 9 33 20
28 22 48 25 70 10z m-723 -165 l24 -20 -30 -32 c-16 -18 -35 -48 -42 -67 -12
-32 -29 -39 -68 -27 -2 0 13 19 33 41 20 22 36 50 36 61 0 19 -4 21 -37 14
-21 -4 -42 -7 -48 -8 -26 -5 -5 25 40 57 44 32 50 34 59 18 5 -9 20 -26 33
-37z m923 -65 c16 0 88 -38 96 -51 3 -6 0 -17 -7 -25 -12 -11 -22 -10 -64 11
-28 13 -57 25 -66 25 -9 0 -34 7 -55 16 -24 10 -54 14 -81 11 -49 -5 -57 2
-48 43 11 50 46 52 136 8 43 -21 83 -38 89 -38z m161 39 c-16 -25 -21 -29 -21
-15 0 19 29 60 37 52 2 -2 -5 -19 -16 -37z m-505 -52 c9 3 14 -2 14 -16 0 -12
-3 -21 -6 -21 -11 0 -34 29 -33 42 0 9 2 9 5 1 3 -7 12 -9 20 -6z m303 -72
c44 -14 81 -30 81 -35 0 -16 -23 -12 -65 12 -32 17 -57 21 -121 21 -45 0 -93
-3 -108 -7 -19 -5 -26 -3 -26 8 0 33 135 34 239 1z"/>
<path d="M2565 2080 c3 -5 8 -10 11 -10 2 0 4 5 4 10 0 6 -5 10 -11 10 -5 0
-7 -4 -4 -10z"/>
<path d="M3439 2539 c67 -23 106 -56 90 -75 -8 -10 -6 -25 10 -57 12 -24 21
-47 21 -51 0 -4 12 -23 26 -41 14 -19 34 -50 44 -70 16 -31 16 -40 5 -61 -13
-26 -10 -60 6 -70 10 -6 12 -101 3 -156 -4 -21 -11 -35 -15 -32 -5 3 -16 -11
-24 -30 -9 -20 -20 -36 -25 -36 -18 0 -51 -64 -45 -87 4 -18 -2 -23 -37 -35
-54 -17 -84 -61 -55 -82 25 -19 21 -36 -14 -48 -26 -9 -30 -15 -27 -42 3 -26
14 -38 76 -80 78 -51 198 -101 207 -86 3 5 1 19 -6 31 -8 16 -10 134 -7 433 2
226 2 475 0 554 -3 128 -5 142 -21 142 -16 0 -18 -8 -13 -72 2 -40 1 -70 -3
-66 -4 4 -7 23 -7 43 0 37 -19 65 -44 65 -8 0 -14 -5 -14 -11 0 -5 -15 1 -33
15 -28 21 -44 26 -93 25 l-59 0 54 -20z m162 -136 c6 -16 15 -23 24 -19 12 4
15 -4 15 -41 l0 -46 -25 37 c-14 21 -32 52 -39 71 -13 30 -13 33 1 28 8 -3 19
-17 24 -30z m41 -789 l3 -161 -39 9 c-22 5 -55 21 -75 37 -20 15 -47 34 -61
41 -24 13 -24 13 -4 21 24 9 54 66 54 104 0 21 8 29 36 41 36 15 36 16 31 60
-4 37 -1 47 14 57 11 7 19 19 19 28 0 8 3 19 8 23 8 9 11 -36 14 -260z"/>
<path d="M3590 2556 c0 -2 7 -6 15 -10 8 -3 15 -1 15 4 0 6 -7 10 -15 10 -8 0
-15 -2 -15 -4z"/>
<path d="M3311 2341 c-6 -10 -8 -21 -5 -24 3 -3 0 -23 -6 -45 -11 -33 -10 -43
5 -65 18 -29 38 -28 28 1 -6 15 -4 15 15 -2 28 -25 35 -17 21 23 -9 24 -8 35
2 47 10 13 10 21 -6 50 -20 38 -39 43 -54 15z"/>
<path d="M3486 2353 c-3 -4 -6 -28 -6 -53 0 -52 -21 -83 -42 -62 -18 18 -38
14 -38 -8 0 -11 7 -20 15 -20 21 0 35 -42 28 -84 -6 -38 13 -122 30 -133 6 -4
7 18 3 63 l-6 69 24 -55 c24 -54 24 -55 5 -81 -27 -38 -30 -92 -5 -97 15 -3
18 0 13 19 -4 14 0 30 9 40 8 9 16 30 18 46 4 32 26 73 38 73 5 0 8 34 8 75 0
64 -5 84 -32 140 -30 61 -49 81 -62 68z m58 -135 c13 -30 13 -66 0 -127 -5
-23 -5 -23 -30 10 -22 30 -24 40 -18 89 4 30 7 66 6 80 l-2 25 15 -22 c9 -13
22 -37 29 -55z"/>
<path d="M934 2276 c-10 -26 2 -31 92 -35 75 -3 84 -5 84 -22 0 -11 9 -36 20
-56 24 -46 27 -135 5 -187 -18 -44 -9 -96 36 -198 30 -68 30 -70 23 -191 -5
-96 -3 -135 9 -182 9 -33 19 -87 23 -120 7 -62 33 -119 59 -129 8 -3 15 -12
15 -21 0 -17 16 -20 25 -6 3 5 -1 29 -10 53 -8 24 -15 51 -15 61 0 9 -11 27
-25 39 -15 13 -25 32 -25 48 0 14 -7 51 -16 81 -13 43 -15 79 -11 179 5 94 3
134 -7 160 -68 172 -68 170 -51 218 24 71 20 160 -10 213 -14 24 -30 56 -36
72 -10 25 -15 27 -64 27 -29 0 -66 3 -84 6 -23 5 -32 2 -37 -10z"/>
<path d="M3140 2217 c0 -25 28 -57 48 -57 7 0 12 -4 12 -8 0 -5 23 -9 50 -9
42 -1 50 2 50 18 0 24 -11 29 -67 35 -29 2 -53 11 -65 24 -24 26 -28 25 -28
-3z"/>
<path d="M2980 2168 c-25 -27 -30 -39 -26 -62 8 -40 24 -56 53 -56 22 0 25 3
20 28 -3 15 -8 37 -12 50 -6 18 -4 22 14 22 12 0 27 -5 34 -10 7 -6 25 -20 41
-32 l29 -22 -23 -8 c-18 -7 -20 -11 -10 -22 6 -8 24 -17 40 -21 26 -6 28 -10
32 -63 5 -76 68 -167 68 -99 0 13 -9 32 -20 42 -16 15 -20 31 -20 87 0 61 -2
71 -20 75 -11 3 -20 9 -20 15 0 5 -10 22 -22 38 -15 21 -30 30 -49 30 -19 0
-30 6 -34 20 -9 29 -38 24 -75 -12z"/>
<path d="M3356 2133 c-12 -13 -5 -59 14 -90 32 -54 56 -37 25 17 -8 14 -14 35
-15 47 0 23 -13 37 -24 26z"/>
<path d="M3090 2005 c0 -8 9 -19 20 -25 16 -9 22 -8 26 4 3 8 3 20 -1 26 -9
15 -45 12 -45 -5z"/>
<path d="M3371 1976 c-14 -16 -4 -46 15 -46 9 0 14 -12 14 -35 0 -24 5 -35 14
-35 16 0 33 78 22 105 -7 20 -23 19 -29 -2 -4 -14 -5 -12 -6 5 -1 25 -13 29
-30 8z"/>
<path d="M3290 1948 c0 -29 -1 -30 -18 -15 -25 22 -32 21 -32 -4 0 -25 61 -89
84 -89 26 0 30 27 7 56 -12 15 -21 40 -21 55 0 16 -4 29 -10 29 -5 0 -10 -14
-10 -32z"/>
<path d="M3076 1913 c-8 -59 7 -78 34 -43 22 29 25 61 8 78 -23 23 -35 12 -42
-35z"/>
<path d="M864 1819 c-7 -8 -20 -39 -29 -71 -16 -49 -17 -63 -5 -115 7 -32 15
-78 19 -102 3 -25 12 -46 19 -49 18 -6 16 59 -5 138 -15 62 -15 69 1 122 20
61 19 102 0 77z"/>
<path d="M3392 1808 c-21 -25 -40 -118 -24 -118 21 0 43 51 40 92 -3 35 -5 39
-16 26z"/>
<path d="M3356 1644 c-8 -22 1 -31 16 -16 9 9 9 15 1 23 -7 7 -12 5 -17 -7z"/>
<path d="M935 1568 c-2 -7 -6 -35 -9 -63 -3 -27 -8 -69 -12 -92 -5 -34 -3 -43
9 -43 17 0 26 38 34 143 3 45 1 67 -6 67 -7 0 -13 -6 -16 -12z"/>
<path d="M3170 1555 c0 -16 27 -32 37 -21 7 7 -16 36 -28 36 -5 0 -9 -7 -9
-15z"/>
<path d="M1972 1545 c-12 -9 -22 -20 -22 -26 0 -15 40 -10 46 6 11 27 0 36
-24 20z"/>
<path d="M3287 1527 c-43 -12 -44 -31 -1 -35 33 -3 71 19 60 36 -8 13 -7 13
-59 -1z"/>
<path d="M2535 1377 c-27 -42 -37 -84 -25 -106 14 -28 26 -26 47 6 23 34 28
123 7 123 -7 0 -20 -10 -29 -23z"/>
<path d="M837 1364 c-4 -4 -7 -27 -7 -51 0 -29 -15 -77 -44 -146 -24 -56 -47
-122 -51 -146 -4 -24 -15 -62 -26 -85 -18 -41 -18 -43 5 -116 38 -123 95 -215
119 -191 7 7 -1 26 -26 63 -20 29 -48 85 -61 125 -24 72 -24 73 -6 120 10 26
23 69 29 95 6 26 27 82 47 125 25 52 39 98 42 136 4 55 -5 86 -21 71z"/>
<path d="M1165 1329 c-16 -25 21 -209 43 -217 16 -5 15 26 -3 95 -8 31 -15 74
-15 95 0 37 -12 49 -25 27z"/>
<path d="M3770 1150 c0 -21 24 -60 37 -60 15 0 10 34 -9 58 -12 14 -28 16 -28
2z"/>
<path d="M2347 1094 c-12 -12 -8 -51 6 -63 16 -13 27 -5 27 19 0 21 -24 53
-33 44z"/>
<path d="M2692 1078 c6 -18 28 -21 28 -4 0 9 -7 16 -16 16 -9 0 -14 -5 -12
-12z"/>
<path d="M3150 1038 c0 -14 -10 -34 -23 -46 -31 -29 -41 -28 -22 2 11 16 13
26 6 31 -17 10 -31 -4 -31 -31 0 -34 -30 -28 -48 9 -15 32 -32 27 -32 -9 0
-30 41 -74 70 -74 32 0 99 47 106 74 8 32 2 58 -13 64 -8 2 -13 -6 -13 -20z"/>
<path d="M3346 1003 c-3 -3 -6 -19 -6 -34 0 -25 -26 -86 -41 -99 -4 -3 -9 -15
-13 -27 -4 -11 -19 -29 -34 -38 -15 -10 -39 -29 -54 -43 -57 -52 -350 -218
-403 -228 -24 -4 -25 -3 -15 16 6 12 9 28 6 36 -3 8 7 29 22 47 46 54 102 146
102 167 0 23 -15 27 -23 6 -8 -20 -114 -163 -127 -171 -15 -10 -36 -65 -44
-117 -4 -25 -14 -52 -21 -58 -32 -27 -17 -44 58 -68 86 -28 142 -27 142 3 0
17 -9 21 -60 26 -33 4 -68 10 -77 14 -25 10 -23 28 2 20 14 -4 22 -1 26 10 4
9 34 29 69 44 34 16 88 46 121 67 32 21 79 48 103 61 25 13 52 30 61 38 9 8
25 12 37 9 15 -4 23 0 28 15 4 12 16 30 27 41 20 18 21 18 41 -1 11 -10 27
-19 34 -19 21 0 15 -18 -12 -36 -27 -18 -34 -54 -10 -54 8 0 35 20 60 45 59
60 61 95 2 64 -16 -9 -22 -9 -25 1 -3 7 -13 21 -23 31 -17 17 -17 20 -4 25 8
4 15 18 15 33 l0 26 21 -32 c27 -42 66 -68 83 -54 10 8 18 6 31 -9 22 -24 58
-26 79 -4 11 11 25 14 46 9 39 -8 60 8 60 46 0 34 -16 39 -25 8 -6 -19 -8 -19
-19 -3 -12 16 -15 16 -42 -4 -25 -18 -35 -20 -69 -12 -28 6 -42 6 -47 -3 -5
-8 -12 -5 -23 11 -9 12 -23 22 -30 22 -20 0 -30 46 -16 76 20 45 10 120 -13
97z"/>
<path d="M3546 1001 c-9 -13 15 -51 32 -51 20 0 11 54 -10 58 -9 2 -19 -1 -22
-7z"/>
<path d="M995 938 c-9 -35 -2 -113 10 -113 13 0 19 115 6 128 -7 7 -12 2 -16
-15z"/>
<path d="M3493 953 c-7 -3 -13 -16 -13 -30 0 -18 5 -24 17 -21 19 4 30 35 16
48 -4 4 -14 5 -20 3z"/>
<path d="M3406 926 c-3 -13 -4 -30 -1 -38 7 -17 94 -60 107 -52 19 12 2 38
-32 49 -23 8 -36 20 -40 35 -8 33 -26 36 -34 6z"/>
<path d="M3560 904 c0 -31 23 -28 28 4 2 15 -2 22 -12 22 -11 0 -16 -9 -16
-26z"/>
<path d="M605 621 c-97 -5 -120 -9 -120 -21 0 -13 23 -15 145 -15 138 0 145 1
145 20 0 24 -2 24 -170 16z"/>
<path d="M3276 604 c-3 -8 -4 -25 -1 -37 3 -12 7 -34 9 -50 10 -60 25 -82 40
-58 7 11 -26 161 -35 161 -4 0 -10 -7 -13 -16z"/>
<path d="M3783 381 c-9 -23 -23 -41 -31 -41 -12 0 -13 -9 -8 -42 4 -23 12 -48
18 -55 7 -9 6 -20 -7 -39 -20 -30 -65 -148 -65 -169 0 -32 27 -13 40 28 8 23
27 70 42 104 28 59 28 63 14 98 -14 34 -14 38 4 63 25 35 35 78 20 87 -7 4
-17 -9 -27 -34z"/>
<path d="M710 360 c-173 -5 -257 -12 -320 -26 -103 -23 -118 -31 -126 -69 -7
-38 24 -81 73 -101 l33 -14 0 -75 c0 -54 4 -75 13 -75 9 0 11 19 9 75 l-4 75
67 0 67 0 -7 -30 c-7 -32 2 -38 35 -20 16 8 24 6 42 -12 l23 -23 3 28 c2 19
-3 33 -15 43 -16 12 -14 13 20 14 30 0 40 -4 44 -19 3 -11 12 -22 20 -25 18
-7 56 12 48 24 -3 5 -1 11 5 15 5 3 14 -5 19 -18 11 -29 29 -37 85 -37 49 0
82 20 73 43 -9 25 10 31 23 7 14 -26 30 -26 37 0 3 11 11 20 18 20 19 0 30
-57 15 -75 -11 -13 -16 -12 -38 5 -20 16 -27 18 -34 8 -13 -21 -9 -37 13 -48
27 -15 129 -20 152 -8 13 7 17 5 17 -11 0 -25 20 -38 31 -20 6 10 9 11 9 2 0
-7 7 -13 16 -13 23 0 14 52 -12 65 -11 5 -29 18 -38 28 -17 16 -17 19 -2 36 9
10 16 23 16 29 0 14 20 15 52 3 31 -12 378 7 395 21 23 18 15 55 -18 82 -104
88 -318 112 -859 96z m555 -49 c145 -11 320 -69 292 -97 -7 -7 -646 -18 -970
-17 -189 1 -222 4 -255 20 -63 31 -54 49 29 63 40 7 86 18 103 26 24 10 107
13 366 13 184 -1 380 -4 435 -8z m-385 -171 c-8 -5 -26 -10 -40 -10 -14 0 -32
5 -40 10 -11 7 1 10 40 10 39 0 51 -3 40 -10z m200 -40 c0 -5 -6 -10 -14 -10
-8 0 -18 5 -21 10 -3 6 3 10 14 10 12 0 21 -4 21 -10z"/>
<path d="M2497 203 c-34 -80 -30 -194 7 -201 15 -3 17 0 11 14 -4 11 -10 43
-13 72 -3 40 -1 57 12 70 8 10 19 33 22 50 9 46 -19 42 -39 -5z"/>
<path d="M3000 209 c0 -21 87 -44 128 -34 26 6 62 32 62 44 0 3 -43 6 -95 6
-83 1 -95 -2 -95 -16z"/>
<path d="M2146 133 c5 -27 9 -67 8 -90 0 -38 3 -43 24 -43 17 0 22 4 18 18 -2
9 -10 50 -17 90 -9 51 -16 72 -27 72 -12 0 -13 -9 -6 -47z"/>
<path d="M1350 65 c0 -51 3 -65 15 -65 12 0 15 14 15 65 0 51 -3 65 -15 65
-12 0 -15 -14 -15 -65z"/>
<path d="M625 76 c-17 -36 -14 -56 10 -56 20 0 38 38 31 66 -9 33 -22 30 -41
-10z"/>
<path d="M520 41 c0 -20 48 -36 64 -21 17 17 -3 40 -34 40 -23 0 -30 -5 -30
-19z"/>
<path d="M247 24 c-14 -14 -6 -24 19 -24 16 0 24 5 22 13 -5 14 -31 21 -41 11z"/>
</g>
</svg>
