<?xml version="1.0" standalone="no"?>
<!DOCTYPE svg PUBLIC "-//W3C//DTD SVG 20010904//EN"
 "http://www.w3.org/TR/2001/REC-SVG-20010904/DTD/svg10.dtd">
<svg version="1.0" xmlns="http://www.w3.org/2000/svg"
 width="340.000000pt" height="256.000000pt" viewBox="0 0 340.000000 256.000000"
 preserveAspectRatio="xMidYMid meet">
<metadata>
Created by potrace 1.16, written by Peter Selinger 2001-2019
</metadata>
<g transform="translate(0.000000,256.000000) scale(0.100000,-0.100000)"
fill="#000000" stroke="none">
<path d="M2815 2545 c17 -8 50 -28 75 -44 25 -16 77 -46 115 -67 39 -20 75
-40 80 -44 17 -13 134 -50 157 -50 12 0 52 -16 90 -35 l68 -36 0 26 c0 22 -9
30 -57 51 -31 14 -70 27 -87 30 -30 5 -83 25 -176 66 -25 11 -82 42 -127 69
-65 39 -91 49 -125 49 l-43 -1 30 -14z"/>
<path d="M3211 2556 c11 -9 179 -15 179 -6 0 6 -37 10 -92 10 -50 0 -89 -2
-87 -4z"/>
<path d="M1778 2328 c-20 -17 -38 -71 -31 -97 7 -29 23 -26 23 3 0 50 25 78
32 34 2 -12 9 -23 16 -26 19 -6 16 84 -4 92 -20 8 -18 8 -36 -6z"/>
<path d="M1915 2298 c-7 -18 20 -78 35 -78 17 0 11 44 -10 70 -16 21 -20 23
-25 8z"/>
<path d="M1420 2273 c-15 -2 -32 -16 -42 -32 -19 -34 -97 -61 -176 -61 -28 0
-63 -5 -79 -11 -15 -6 -86 -17 -158 -24 -135 -13 -284 -46 -322 -71 -12 -8
-33 -14 -45 -14 -13 0 -47 -15 -77 -33 -29 -17 -64 -38 -76 -44 -12 -7 -56
-49 -99 -93 -42 -44 -83 -80 -91 -80 -8 0 -15 -9 -15 -19 0 -40 -11 -51 -51
-51 -21 0 -39 -3 -39 -7 0 -5 -11 -21 -25 -37 -14 -16 -25 -37 -25 -46 0 -9
-4 -20 -9 -26 -6 -5 -13 -52 -16 -104 -6 -74 -13 -109 -36 -159 -30 -64 -37
-105 -19 -99 21 7 80 162 80 210 0 27 4 48 9 48 15 0 21 30 9 49 -20 33 34
131 73 131 17 0 18 -5 13 -41 -11 -67 17 -44 39 32 23 76 24 78 40 55 12 -16
14 -16 26 -2 11 12 11 19 2 30 -10 12 1 28 62 88 96 93 125 115 184 135 26 9
64 24 83 34 19 9 67 24 107 32 39 8 77 18 84 22 7 5 67 11 134 15 67 4 137 12
156 18 40 13 211 41 289 49 30 3 60 8 65 12 6 4 37 7 70 6 63 -1 140 -27 271
-91 38 -19 75 -34 81 -34 5 0 18 -9 28 -20 10 -11 24 -20 31 -20 7 0 45 -27
84 -59 39 -33 74 -61 78 -63 32 -14 211 -269 212 -302 0 -6 12 -33 25 -61 14
-27 25 -58 25 -68 0 -10 10 -33 23 -50 28 -38 43 -88 52 -177 4 -36 12 -68 19
-72 8 -5 8 -10 -1 -19 -7 -7 -9 -30 -6 -63 9 -83 -50 -251 -119 -338 -16 -20
-36 -56 -44 -80 -20 -59 -117 -164 -200 -219 -38 -24 -79 -54 -93 -66 -13 -13
-35 -23 -47 -23 -13 0 -24 -3 -24 -8 0 -16 -150 -82 -255 -112 -44 -12 -100
-29 -124 -36 -25 -8 -66 -14 -93 -14 l-48 0 0 46 0 45 29 -32 c29 -31 51 -32
51 -2 0 8 -11 24 -25 35 -14 11 -25 25 -25 33 0 7 -6 15 -14 18 -9 4 -16 30
-21 76 -4 39 -11 74 -16 77 -5 3 -9 85 -9 182 0 97 -4 193 -9 212 -5 19 -11
84 -13 145 l-3 109 50 9 c56 9 75 21 75 48 0 23 2 23 -60 -1 -28 -11 -52 -20
-54 -20 -2 0 -6 66 -8 148 -2 81 -7 152 -11 159 -6 9 -14 10 -32 1 -14 -6 -25
-15 -25 -19 0 -17 -50 -61 -64 -56 -28 11 -19 80 15 107 3 3 8 23 11 45 3 22
14 58 23 80 l18 40 7 -30 c4 -16 8 -46 9 -66 1 -29 -3 -38 -19 -42 -26 -7 -27
-47 -2 -47 11 0 27 8 36 19 14 16 16 31 11 97 -4 44 -11 81 -16 82 -5 2 -9 27
-9 55 0 29 -4 66 -9 83 -5 19 -3 66 6 130 15 111 14 155 -4 162 -10 3 -13 -13
-13 -56 0 -69 -18 -158 -37 -187 -18 -27 -17 -49 3 -41 12 5 15 2 10 -10 -3
-8 -6 -18 -6 -20 0 -2 -11 -4 -25 -4 -22 0 -25 -4 -25 -32 0 -18 7 -41 15 -51
15 -21 8 -47 -26 -98 -10 -14 -22 -62 -28 -108 -6 -45 -14 -88 -18 -94 -7 -12
-24 -140 -23 -185 0 -34 -46 -186 -58 -190 -17 -5 -24 71 -11 121 12 48 8 77
-11 77 -5 0 -10 -13 -10 -29 0 -16 -8 -52 -17 -81 -16 -49 -16 -53 0 -65 12
-9 17 -27 17 -62 0 -40 -5 -53 -24 -71 -30 -26 -53 -99 -36 -116 13 -13 30 8
30 41 0 12 5 25 10 28 6 4 10 -14 10 -48 0 -59 -45 -169 -74 -180 -12 -5 -16
-22 -16 -76 0 -61 -2 -69 -20 -74 -16 -4 -20 -12 -18 -35 1 -17 -4 -37 -11
-45 -9 -12 -11 -37 -5 -96 5 -66 4 -85 -10 -105 -9 -14 -16 -32 -16 -41 0 -20
-51 -19 -110 3 -79 30 -211 104 -228 129 -9 14 -32 42 -50 63 -25 29 -32 46
-32 79 0 49 -16 47 -26 -4 -8 -46 -36 -46 -65 -2 -12 17 -53 55 -90 82 -99 73
-187 195 -229 319 -9 28 -22 52 -28 54 -14 4 -16 -40 -3 -66 5 -9 23 -46 40
-82 16 -36 44 -86 60 -110 17 -25 31 -48 31 -52 0 -11 -49 9 -78 32 -35 28
-64 27 -60 -2 2 -13 11 -24 23 -26 11 -2 28 -11 37 -19 9 -9 39 -18 65 -21 44
-5 80 -20 109 -47 9 -8 57 -46 83 -65 4 -3 17 -20 30 -38 17 -24 30 -32 52
-32 37 0 106 -68 111 -109 2 -21 9 -27 33 -29 17 -2 37 -9 45 -15 8 -7 31 -20
50 -29 111 -53 149 -67 189 -70 45 -3 56 6 74 55 1 4 29 -4 62 -19 81 -36 143
-41 178 -14 15 12 27 30 27 41 0 23 -13 25 -30 4 -20 -24 -103 -19 -166 10
-49 22 -60 35 -56 66 1 4 3 33 5 66 5 70 31 127 54 119 22 -9 41 11 49 49 7
37 44 81 44 53 0 -9 7 -21 15 -28 11 -9 12 -17 5 -30 -15 -28 -12 -81 5 -100
8 -9 18 -44 21 -77 5 -48 3 -65 -11 -87 -14 -20 -15 -30 -6 -39 20 -20 37 13
50 92 14 88 22 106 59 123 36 17 39 47 7 83 -31 36 -31 38 -3 50 37 16 49 52
45 133 -2 40 -9 78 -16 85 -16 16 -14 27 7 27 10 0 29 11 41 24 13 14 29 22
37 19 8 -3 14 1 14 8 0 11 3 11 10 -1 5 -8 10 -32 10 -53 0 -35 -2 -37 -20
-27 -11 6 -20 17 -20 25 0 18 -17 20 -23 3 -7 -22 13 -63 36 -73 21 -9 22 -17
25 -130 2 -78 7 -122 15 -127 7 -4 13 -53 15 -145 2 -76 9 -144 14 -150 19
-23 126 -15 223 16 50 16 105 32 124 36 41 9 136 50 171 75 14 9 40 21 58 25
18 3 37 15 42 26 6 10 24 25 39 34 16 8 35 20 43 27 7 7 25 20 40 28 66 38
161 150 188 220 8 19 26 51 40 70 32 41 53 81 75 141 36 98 46 138 55 227 8
77 7 98 -5 122 -8 16 -15 45 -15 65 0 54 -29 146 -57 179 -18 21 -22 36 -18
57 4 18 2 30 -8 36 -7 4 -27 38 -44 74 -78 169 -250 364 -386 440 -95 52 -292
145 -330 154 -15 4 -27 12 -27 17 0 7 -18 8 -48 4 -43 -6 -51 -4 -70 19 -12
14 -28 24 -34 24 -7 -1 -24 -4 -38 -6z m44 -46 c16 -12 13 -13 -19 -9 -26 3
-33 7 -24 13 19 12 22 11 43 -4z m-182 -529 c-7 -7 -12 -8 -12 -2 0 6 3 14 7
17 3 4 9 5 12 2 2 -3 -1 -11 -7 -17z m-55 -150 c-3 -8 -6 -5 -6 6 -1 11 2 17
5 13 3 -3 4 -12 1 -19z m1 -198 c4 0 18 7 30 16 21 15 22 14 22 -19 0 -31 -3
-35 -25 -33 -14 0 -25 4 -25 9 0 4 -9 16 -20 27 -11 11 -20 28 -20 38 1 12 5
9 16 -10 8 -16 18 -28 22 -28z m111 -60 c1 -67 -2 -100 -10 -100 -7 0 -9 -20
-5 -62 8 -94 15 -257 10 -228 -3 14 -20 39 -39 55 l-34 30 9 85 c6 53 6 88 0
94 -15 15 -12 29 5 23 8 -4 17 -2 20 4 11 17 -6 49 -26 49 -11 0 -19 7 -19 16
0 12 6 15 24 10 22 -5 24 -2 28 44 4 41 20 80 33 80 2 0 4 -45 4 -100z m-119
-16 c6 -16 7 -32 1 -42 -8 -15 -10 -15 -15 -2 -19 59 -6 98 14 44z m19 -118
c8 -9 8 -25 2 -52 -5 -22 -9 -32 -10 -23 -1 9 -10 28 -21 42 -11 14 -20 30
-20 36 0 16 35 14 49 -3z m-29 -107 c5 -19 12 -44 15 -56 6 -17 3 -23 -9 -23
-23 0 -20 -27 5 -41 15 -7 24 -8 28 -1 4 7 16 3 31 -9 17 -13 21 -21 14 -26
-7 -5 -13 -17 -15 -28 -3 -12 -16 -24 -37 -30 -38 -11 -51 -43 -33 -81 16 -35
14 -43 -9 -37 -14 4 -23 -2 -32 -21 l-12 -27 -13 23 c-7 13 -12 32 -13 42 0
11 -12 39 -26 63 l-25 44 31 92 c17 51 34 108 36 127 9 62 12 66 35 43 11 -11
24 -35 29 -54z m-128 -101 c-7 -7 -12 -8 -12 -2 0 14 12 26 19 19 2 -3 -1 -11
-7 -17z m-2 -265 c0 -7 -4 -13 -10 -13 -5 0 -10 6 -10 14 0 8 -5 16 -12 18 -7
3 -8 9 -3 18 6 10 11 9 22 -5 7 -11 13 -25 13 -32z m-47 -8 c-3 -9 -8 -14 -10
-11 -3 3 -2 9 2 15 9 16 15 13 8 -4z m188 -35 c14 0 11 -36 -4 -49 -19 -15
-77 -26 -77 -13 0 5 7 15 15 22 8 7 15 22 15 35 0 30 10 37 27 20 8 -8 19 -15
24 -15z m-101 -70 c0 -5 -4 -10 -10 -10 -5 0 -10 5 -10 10 0 6 5 10 10 10 6 0
10 -4 10 -10z m60 -95 c0 -26 -7 -43 -27 -61 l-28 -26 -5 28 c-5 22 -1 31 12
38 10 5 21 20 24 33 9 35 24 28 24 -12z"/>
<path d="M2763 2194 c-35 -20 -72 -48 -84 -62 -50 -65 -111 -171 -124 -216
-18 -61 -19 -248 -1 -571 l12 -230 33 -60 c36 -67 67 -100 106 -115 74 -28 74
8 0 49 -58 33 -75 54 -75 95 0 21 5 26 25 26 14 0 29 8 35 20 9 17 7 22 -12
29 -17 6 -26 4 -35 -8 -13 -18 -17 -12 -27 46 l-5 33 42 -27 c23 -15 51 -35
63 -45 24 -22 52 -23 73 -4 19 17 132 58 140 50 3 -3 0 -14 -7 -24 -23 -37
-13 -63 36 -89 34 -18 52 -7 52 33 0 41 -18 56 -37 31 -9 -13 -16 -16 -24 -8
-12 12 14 43 37 43 17 0 19 31 3 47 -9 9 -5 23 15 57 30 52 34 105 9 135 -10
11 -54 34 -98 51 -44 17 -89 35 -100 40 -11 4 -28 11 -37 14 -18 5 -20 11 -22
76 -1 30 -5 35 -29 38 -16 2 -34 14 -44 29 -9 13 -26 29 -38 33 -17 6 -24 20
-29 56 -3 26 -13 55 -22 65 -22 24 -20 68 4 114 l21 40 1 -38 c0 -71 81 -187
130 -187 7 0 42 -13 77 -30 57 -27 73 -30 161 -30 91 0 103 2 155 31 85 45
137 118 137 191 l1 43 18 -35 c10 -19 22 -61 25 -92 7 -54 6 -57 -16 -60 -13
-2 -24 -11 -27 -23 -2 -10 -28 -42 -57 -71 -30 -28 -54 -55 -54 -61 0 -5 -9
-18 -21 -29 -14 -13 -19 -26 -16 -44 3 -14 -1 -34 -9 -44 -7 -11 -11 -29 -8
-42 3 -12 1 -25 -5 -29 -13 -7 -3 -56 12 -67 6 -3 16 -4 24 -1 21 8 15 -15 -8
-27 -26 -14 -69 -104 -62 -130 5 -20 65 -46 82 -36 5 4 12 25 16 49 4 23 13
53 21 67 12 22 12 17 7 -45 -6 -68 -22 -105 -48 -105 -22 0 -39 -28 -26 -44 6
-8 11 -18 9 -22 -1 -5 1 -19 5 -30 14 -40 -8 -71 -62 -91 -53 -18 -72 -40 -45
-50 35 -13 104 28 161 96 65 79 73 97 79 179 2 35 6 68 9 72 3 5 10 42 16 82
5 40 17 120 25 178 41 293 38 361 -20 481 -20 41 -36 79 -36 85 0 22 -89 102
-133 119 -55 21 -100 11 -105 -24 -3 -20 -8 -22 -70 -19 l-67 3 -5 35 c-4 30
-9 35 -35 37 -19 2 -52 -10 -92 -33z m365 -62 c2 -7 -2 -12 -8 -12 -17 0 -50
19 -50 29 0 13 53 -3 58 -17z m42 -18 c0 -22 -16 -17 -17 6 -1 11 2 18 8 15 5
-4 9 -13 9 -21z m70 -56 c11 -18 20 -36 20 -40 0 -17 -28 -6 -53 20 -21 22
-24 31 -15 40 18 18 27 15 48 -20z m-125 12 c8 -13 -15 -13 -35 0 -12 8 -11
10 7 10 12 0 25 -4 28 -10z m-101 -75 c2 -6 1 -18 -4 -25 -6 -9 -11 -7 -19 9
-7 11 -20 21 -31 21 -19 0 -34 13 -24 22 8 9 73 -14 78 -27z m-179 -15 c3 -5
-1 -10 -9 -10 -9 0 -16 5 -16 10 0 6 4 10 9 10 6 0 13 -4 16 -10z m135 -41 c0
-6 -4 -7 -10 -4 -5 3 -10 11 -10 16 0 6 5 7 10 4 6 -3 10 -11 10 -16z m-313
-11 c-3 -8 -6 -5 -6 6 -1 11 2 17 5 13 3 -3 4 -12 1 -19z m133 12 c0 -5 -5
-10 -11 -10 -5 0 -7 5 -4 10 3 6 8 10 11 10 2 0 4 -4 4 -10z m140 -40 c23 0
28 -4 26 -25 -1 -23 -5 -25 -45 -25 -37 0 -42 2 -31 15 10 12 10 18 -1 32 -12
15 -12 16 4 10 10 -4 31 -7 47 -7z m-246 -26 c3 -8 2 -12 -4 -9 -6 3 -10 10
-10 16 0 14 7 11 14 -7z m-95 -139 c1 -29 -2 -36 -9 -25 -5 8 -9 35 -9 60 0
34 2 40 9 25 5 -11 9 -38 9 -60z m279 49 c26 -3 61 -7 77 -9 17 -2 57 -7 90
-11 54 -7 57 -8 30 -15 -43 -12 -183 -5 -197 9 -7 7 -20 12 -29 12 -9 0 -23 8
-30 17 -10 12 -10 15 -1 9 7 -4 34 -10 60 -12z m447 -148 c-8 -32 -17 -61 -21
-64 -9 -9 3 69 16 104 17 44 19 23 5 -40z m-633 -32 c26 -44 22 -46 -27 -12
-52 37 -56 48 -18 44 18 -2 34 -13 45 -32z m-83 -52 c-1 -20 -5 -48 -9 -62 -6
-18 -8 -6 -9 43 -1 43 3 66 9 62 6 -3 10 -23 9 -43z m598 13 c-4 -8 -11 -15
-17 -15 -7 0 -7 6 0 21 13 23 26 19 17 -6z m-559 -57 c-11 -50 -18 -61 -18
-27 0 33 11 69 20 69 4 0 4 -19 -2 -42z m642 30 c0 -6 -6 -18 -14 -27 -8 -9
-26 -28 -39 -43 -13 -14 -27 -33 -30 -42 -4 -9 -11 -16 -17 -16 -9 0 13 44 30
60 3 3 16 22 30 42 25 38 40 48 40 26z m-88 -30 c-15 -15 -24 -6 -16 16 5 12
10 14 17 7 8 -8 8 -14 -1 -23z m-424 -52 c-2 -30 3 -49 16 -61 10 -10 15 -26
13 -36 -8 -30 9 -32 31 -4 11 14 26 25 33 25 10 0 10 -3 1 -12 -17 -17 -15
-48 3 -48 18 0 36 41 25 55 -5 6 0 20 10 33 15 18 25 21 47 16 50 -13 71 -48
30 -52 -15 -1 -26 6 -32 21 -13 28 -29 28 -33 0 -2 -13 5 -29 17 -40 29 -24
27 -31 -16 -42 -29 -8 -42 -7 -60 4 -21 14 -26 14 -48 -1 -19 -12 -25 -25 -25
-50 0 -36 15 -46 23 -16 4 13 5 12 6 -5 1 -16 -6 -24 -23 -29 -37 -9 -49 3
-41 40 15 66 17 120 5 155 -8 26 -9 44 -1 64 15 39 21 34 19 -17z m-88 9 c0
-14 -4 -25 -10 -25 -11 0 -14 33 -3 43 11 11 13 8 13 -18z m40 0 c0 -8 -4 -15
-10 -15 -5 0 -10 7 -10 15 0 8 5 15 10 15 6 0 10 -7 10 -15z m567 -7 c-3 -8
-6 -5 -6 6 -1 11 2 17 5 13 3 -3 4 -12 1 -19z m-427 -9 c0 -6 -4 -7 -10 -4 -5
3 -10 11 -10 16 0 6 5 7 10 4 6 -3 10 -11 10 -16z m-53 -11 c-3 -8 -6 -5 -6 6
-1 11 2 17 5 13 3 -3 4 -12 1 -19z m-128 -51 c-10 -36 -6 -57 10 -57 5 0 11
14 15 30 3 19 12 30 22 30 13 0 14 -3 4 -15 -7 -8 -10 -25 -6 -39 5 -22 4 -23
-27 -17 -26 5 -33 12 -35 35 -2 16 2 40 9 53 17 32 20 24 8 -20z m161 17 c0
-8 -4 -14 -10 -14 -5 0 -10 9 -10 21 0 11 5 17 10 14 6 -3 10 -13 10 -21z
m-212 -39 c-2 -11 -8 -10 -28 5 -20 16 -22 22 -11 29 17 11 44 -12 39 -34z
m647 18 c-2 -16 -7 -48 -10 -72 -3 -24 -13 -53 -21 -65 -16 -21 -16 -21 -9 4
6 23 7 37 5 73 -1 6 2 22 5 35 10 29 -20 31 -35 1 -7 -11 -14 -18 -17 -15 -11
10 26 55 49 59 13 2 26 5 30 6 4 0 6 -11 3 -26z m-635 -88 c0 -8 -2 -15 -4
-15 -2 0 -6 7 -10 15 -3 8 -1 15 4 15 6 0 10 -7 10 -15z m68 -23 c18 -12 4
-42 -16 -35 -20 8 -32 24 -26 35 7 10 25 10 42 0z m442 -41 c0 -12 -33 -15
-43 -5 -3 4 -2 15 4 26 9 16 12 17 24 4 8 -8 15 -19 15 -25z m-245 22 c-11 -3
-23 -10 -27 -17 -5 -7 -8 -5 -8 7 0 12 7 17 28 16 21 -1 22 -2 7 -6z m285
-147 c0 -2 -7 -7 -16 -10 -8 -3 -12 -2 -9 4 6 10 25 14 25 6z"/>
<path d="M87 2143 c-21 -67 -30 -149 -18 -172 10 -18 81 -61 101 -61 26 0 5
34 -35 58 -44 27 -45 27 -39 72 3 25 12 67 20 94 17 60 17 56 0 56 -8 0 -21
-20 -29 -47z"/>
<path d="M1190 1964 c-6 -14 -10 -33 -10 -43 0 -10 -9 -47 -20 -82 -13 -39
-17 -66 -11 -72 12 -12 47 64 54 118 3 22 9 55 12 73 9 39 -11 45 -25 6z"/>
<path d="M2007 1843 c-4 -7 14 -132 31 -212 4 -19 12 -36 19 -38 15 -5 30 46
16 56 -5 3 -15 40 -22 81 -6 41 -14 85 -17 98 -4 22 -18 29 -27 15z"/>
<path d="M1 1763 c-1 -74 11 -123 29 -123 15 0 12 35 -10 120 l-19 75 0 -72z"/>
<path d="M16 1592 c-8 -14 -19 -92 -13 -92 17 0 37 36 37 66 0 32 -12 45 -24
26z"/>
<path d="M2053 1548 c2 -7 7 -13 12 -13 5 0 10 6 13 13 2 6 -4 12 -13 12 -9 0
-15 -6 -12 -12z"/>
<path d="M2350 1386 c0 -8 -6 -18 -12 -23 -20 -12 -381 -3 -396 10 -30 25
-146 -2 -139 -32 2 -9 10 -14 18 -12 38 11 92 12 118 1 15 -6 88 -13 162 -14
74 -2 160 -7 192 -11 57 -7 57 -7 57 19 0 14 5 26 10 26 6 0 10 11 10 25 0 14
-4 25 -10 25 -5 0 -10 -6 -10 -14z"/>
<path d="M2902 1066 c-32 -17 -85 -115 -78 -142 4 -14 16 -24 37 -28 46 -9 87
-7 94 3 7 13 -27 31 -59 31 -14 0 -27 3 -30 8 -7 12 17 82 29 82 15 1 55 36
55 49 0 14 -19 13 -48 -3z"/>
<path d="M2130 1034 c1 -22 21 -36 71 -49 33 -9 57 -11 63 -5 14 14 -10 37
-44 44 -17 3 -43 9 -60 12 -16 4 -30 2 -30 -2z"/>
<path d="M2334 913 c-43 -63 -166 -193 -183 -193 -17 0 -119 -138 -126 -170
-7 -33 7 -60 31 -60 25 0 185 187 200 232 4 13 15 28 24 35 10 7 23 27 31 45
7 18 30 57 52 86 35 48 43 82 19 82 -5 0 -26 -26 -48 -57z m-174 -252 c0 -13
-79 -98 -80 -85 0 14 61 93 73 93 4 1 7 -3 7 -8z"/>
<path d="M698 939 c-20 -11 -24 -34 -8 -44 15 -9 60 22 60 40 0 17 -27 19 -52
4z"/>
<path d="M1951 784 c-19 -8 -61 -33 -94 -55 -33 -22 -74 -46 -92 -54 -33 -13
-76 -73 -90 -125 -3 -14 -11 -35 -17 -47 -6 -13 -9 -25 -6 -28 12 -12 39 9 44
34 9 45 35 95 57 111 79 55 190 115 232 125 39 9 50 16 50 31 0 25 -38 28 -84
8z"/>
<path d="M2956 693 c-3 -4 -6 -14 -6 -23 0 -37 206 -83 280 -62 l35 9 -26 11
c-14 6 -50 13 -80 17 -78 9 -137 23 -169 40 -15 8 -30 11 -34 8z"/>
<path d="M3288 613 c6 -2 18 -2 25 0 6 3 1 5 -13 5 -14 0 -19 -2 -12 -5z"/>
<path d="M1347 336 c-6 -15 1 -26 15 -26 11 0 10 27 -1 34 -5 3 -11 0 -14 -8z"/>
<path d="M20 52 c0 -12 19 -26 26 -19 2 2 -2 10 -11 17 -9 8 -15 8 -15 2z"/>
</g>
</svg>
