<?xml version="1.0" standalone="no"?>
<!DOCTYPE svg PUBLIC "-//W3C//DTD SVG 20010904//EN"
 "http://www.w3.org/TR/2001/REC-SVG-20010904/DTD/svg10.dtd">
<svg version="1.0" xmlns="http://www.w3.org/2000/svg"
 width="540.000000pt" height="256.000000pt" viewBox="0 0 540.000000 256.000000"
 preserveAspectRatio="xMidYMid meet">
<metadata>
Created by potrace 1.16, written by Peter Selinger 2001-2019
</metadata>
<g transform="translate(0.000000,256.000000) scale(0.100000,-0.100000)"
fill="#000000" stroke="none">
<path d="M0 1653 c0 -19 9 -20 333 -27 182 -4 366 -12 407 -18 48 -6 178 -8
365 -3 160 4 297 6 305 5 8 -1 85 0 170 2 271 6 667 1 910 -12 129 -6 408 -13
620 -15 452 -4 586 -9 607 -26 8 -7 24 -14 35 -14 12 -1 27 -10 34 -20 18 -24
77 -33 234 -35 355 -5 535 -16 506 -32 -24 -13 -8 -31 21 -23 19 4 26 1 29
-12 4 -15 16 -18 67 -18 34 0 175 -8 312 -17 138 -10 289 -19 337 -20 47 -2
90 -6 93 -10 4 -4 4 -23 1 -43 -6 -32 -9 -35 -34 -28 -15 3 -44 17 -64 30 -41
28 -85 28 -80 1 3 -19 -3 -21 -81 -18 -31 1 -49 -3 -52 -12 -4 -9 -20 -12 -55
-10 -29 2 -57 -1 -65 -8 -11 -9 -17 -7 -27 9 -9 14 -23 21 -45 21 -18 0 -33
-4 -33 -9 0 -6 -12 -6 -32 0 -18 5 -63 9 -100 9 -54 0 -68 3 -68 15 0 10 11
15 35 15 23 0 35 5 35 14 0 10 -39 15 -183 20 -101 4 -201 12 -223 17 -21 5
-127 11 -234 14 -484 12 -638 15 -685 14 -335 -9 -519 -9 -510 -1 12 12 243
26 360 23 151 -4 287 34 195 54 -16 4 -32 11 -35 16 -11 17 -35 9 -35 -10 0
-23 0 -23 -578 -40 -345 -10 -386 -13 -379 -34 4 -13 28 -13 295 -8 84 2 156
0 159 -3 4 -3 4 -6 2 -7 -5 -1 -349 -19 -369 -19 -66 0 -267 21 -320 33 -104
25 -370 18 -370 -9 0 -8 -6 -14 -14 -14 -20 0 -32 -60 -15 -71 9 -5 10 -9 3
-9 -7 0 -19 -17 -27 -37 -9 -21 -16 -32 -16 -25 -1 8 -17 12 -45 12 -47 0 -76
24 -76 62 0 9 -8 22 -19 27 -28 15 -123 -17 -136 -46 -6 -14 -19 -23 -31 -23
-22 0 -54 28 -54 48 0 6 -16 16 -36 22 -43 14 -79 0 -88 -34 -9 -35 3 -39 197
-62 50 -6 57 -9 52 -25 -9 -28 23 -24 47 6 21 27 38 32 38 12 0 -8 -11 -19
-25 -25 -34 -16 -31 -32 5 -32 22 0 33 6 41 23 10 21 16 23 72 19 49 -3 66 -8
82 -27 24 -27 61 -40 70 -25 3 6 11 8 16 4 15 -9 39 16 32 33 -5 13 -3 15 13
8 21 -10 373 -21 491 -16 7 1 15 12 19 26 5 19 13 25 34 25 21 0 29 -6 34 -25
4 -14 12 -25 19 -25 19 -1 57 -37 57 -54 0 -9 5 -17 10 -17 6 -1 14 -2 20 -3
5 0 15 -7 22 -14 10 -10 4 -12 -28 -10 -23 0 -45 -2 -50 -5 -6 -3 -16 -28 -24
-56 -12 -45 -16 -50 -44 -53 -34 -3 -52 -38 -19 -38 10 0 29 -6 43 -13 14 -6
44 -11 67 -9 39 3 43 6 44 30 2 24 2 24 6 5 3 -15 14 -25 31 -29 15 -3 40 -10
55 -14 22 -7 29 -6 34 7 6 16 -23 82 -61 138 -39 56 -32 65 48 65 39 0 78 4
86 10 23 14 -31 30 -103 30 -62 0 -119 12 -147 29 -23 15 -3 26 24 13 14 -6
59 -14 100 -18 l76 -7 0 36 c0 24 -6 39 -17 46 -23 13 -12 14 23 1 19 -8 35
-7 55 2 33 15 36 24 12 50 -15 17 -15 18 3 18 26 0 49 -49 30 -64 -17 -14 -29
-67 -18 -83 8 -13 30 -17 69 -15 19 2 22 6 17 32 -6 26 -4 30 16 30 19 0 21
-4 15 -22 -4 -13 -8 -39 -9 -58 -1 -43 -9 -48 -63 -42 -29 3 -40 8 -37 17 3 7
1 16 -5 20 -17 10 -24 -21 -10 -46 6 -13 12 -32 13 -44 1 -16 9 -21 44 -23 36
-3 42 0 42 16 0 14 9 21 31 26 19 4 33 13 36 26 5 18 13 20 93 18 l89 -3 3
-66 3 -67 -32 -12 c-41 -14 -43 -30 -3 -30 17 0 39 -6 50 -13 17 -10 22 -9 30
3 5 8 13 13 17 11 33 -15 53 -19 53 -11 0 6 7 10 15 10 8 0 15 5 15 10 0 19
28 10 44 -15 10 -15 26 -25 41 -25 19 0 26 7 34 38 16 55 14 75 -14 124 -27
48 -25 92 4 84 9 -2 26 -7 38 -11 12 -3 20 -12 17 -18 -7 -19 81 -42 111 -29
18 8 26 8 35 -4 17 -19 76 -18 84 2 5 12 17 15 53 12 39 -2 48 0 51 14 4 21
-27 24 -59 8 -31 -17 -106 -15 -124 4 -20 19 -27 20 -44 3 -11 -10 -13 -9 -9
2 9 31 36 36 61 13 27 -25 47 -29 47 -8 0 31 -103 80 -113 53 -3 -8 -12 -5
-29 11 -14 12 -42 25 -62 29 -32 5 -36 3 -36 -16 0 -17 6 -21 30 -21 17 0 30
-4 30 -9 0 -11 -46 -7 -128 11 -40 9 -61 8 -91 -2 -46 -15 -107 -8 -130 15
-14 13 -14 17 -2 24 8 5 12 18 8 30 -7 29 13 27 49 -4 32 -28 61 -29 56 -2 -2
9 2 17 8 17 5 0 10 -12 10 -27 0 -25 1 -25 18 -10 10 10 25 17 33 17 24 0 39
22 39 57 0 29 3 33 35 39 20 3 53 4 73 0 20 -3 204 -8 407 -11 204 -4 392 -10
418 -16 26 -5 84 -9 128 -9 63 0 81 -3 86 -16 9 -25 -7 -32 -87 -38 -84 -6
-109 -21 -89 -53 7 -11 9 -29 5 -39 -6 -17 -9 -16 -29 8 -16 20 -33 27 -66 30
-40 3 -49 0 -83 -33 -21 -20 -41 -33 -43 -29 -3 5 -22 6 -43 3 -20 -2 -71 0
-112 5 -71 9 -120 1 -120 -18 0 -4 41 -10 91 -12 72 -3 93 -8 101 -21 11 -21
32 -23 25 -2 -5 10 4 16 29 21 19 3 37 5 39 2 2 -2 5 -24 7 -48 2 -34 8 -46
21 -48 12 -3 20 4 24 17 3 12 9 21 13 21 5 0 10 7 12 16 2 13 7 12 26 -6 17
-16 26 -19 35 -11 7 5 23 8 35 4 12 -3 28 0 36 6 16 13 105 -1 116 -19 6 -9
13 -9 28 -1 11 6 50 10 86 8 73 -2 103 14 92 51 -7 20 -43 32 -98 32 -20 0
-40 11 -68 40 -35 36 -37 40 -17 40 12 0 38 -5 57 -10 25 -8 47 -7 79 1 38 11
45 10 53 -4 14 -26 36 -20 41 11 l4 27 2 -27 c2 -38 41 -41 41 -3 0 14 5 25
10 25 6 0 10 -11 10 -24 0 -21 4 -23 50 -25 38 0 50 3 50 14 0 19 8 19 27 -1
10 -10 25 -13 39 -10 13 4 34 1 46 -5 13 -7 30 -15 38 -19 9 -5 14 -18 12 -33
-2 -18 3 -27 16 -31 10 -4 32 -24 48 -47 16 -22 35 -47 42 -54 10 -12 6 -20
-25 -49 -34 -31 -40 -33 -58 -22 -11 7 -22 24 -25 37 -4 17 -14 25 -35 27 -16
2 -38 10 -48 17 -32 23 -76 -7 -77 -52 0 -24 39 -69 83 -96 30 -19 34 -32 13
-40 -26 -10 -56 4 -56 27 0 33 -15 50 -35 39 -16 -9 -16 -11 0 -27 16 -16 16
-18 -1 -31 -18 -13 -17 -15 18 -29 48 -20 85 -20 96 0 8 14 10 14 21 0 8 -9
23 -16 35 -16 23 0 74 -45 63 -56 -3 -3 -12 3 -19 15 -7 12 -21 21 -31 21 -14
0 -16 -7 -12 -39 3 -26 0 -43 -10 -51 -7 -6 -11 -18 -8 -26 3 -9 -2 -14 -16
-14 -12 0 -21 -6 -21 -16 0 -9 -3 -14 -8 -12 -4 2 -20 10 -37 17 -16 7 -37 16
-45 20 -8 4 -26 5 -38 3 -21 -3 -24 -8 -20 -43 2 -27 0 -39 -9 -39 -22 0 -14
-27 10 -34 40 -10 50 -7 44 15 -4 16 -3 18 8 9 8 -7 32 -8 64 -4 50 6 63 0 41
-22 -8 -8 -6 -15 5 -24 8 -7 15 -21 15 -31 0 -10 5 -21 10 -24 6 -3 10 1 10
10 0 9 6 15 12 13 7 -3 13 -18 13 -34 0 -23 -4 -28 -20 -26 -10 2 -25 11 -32
20 -12 16 -14 16 -26 0 -7 -9 -22 -16 -32 -15 -28 3 -31 -29 -3 -37 l23 -7
-24 -10 c-15 -6 -21 -14 -17 -25 3 -9 6 -27 6 -40 0 -15 5 -24 13 -22 7 2 15
-1 17 -7 3 -5 -6 -11 -19 -11 -13 -1 -26 -7 -31 -13 -4 -7 -13 -11 -21 -9 -8
2 -15 -5 -15 -17 -1 -11 -2 -24 -3 -29 -1 -6 -7 -2 -14 8 -20 27 -67 6 -68
-31 0 -27 -1 -27 -9 -5 -15 35 -39 24 -30 -13 6 -23 0 -48 -16 -66 -9 -10 -14
-25 -11 -34 4 -8 2 -15 -3 -15 -12 0 -13 37 -1 44 18 11 18 57 1 78 -17 21
-17 21 -43 2 -15 -10 -24 -25 -22 -32 3 -8 -5 -22 -17 -33 -28 -22 -38 -24
-38 -4 0 8 -9 24 -19 34 -16 16 -17 20 -5 25 18 7 9 26 -11 26 -7 0 -15 -10
-17 -22 -2 -12 -9 -23 -17 -26 -9 -3 -11 1 -7 15 5 16 0 19 -34 20 -22 1 -40
-3 -40 -9 0 -5 -6 -8 -14 -5 -7 3 -19 0 -25 -6 -8 -8 -11 -8 -11 0 0 6 5 13
12 15 14 5 4 38 -12 38 -5 0 -10 -9 -10 -20 0 -11 -4 -20 -10 -20 -5 0 -10 -6
-10 -14 0 -8 -7 -17 -16 -20 -9 -4 -14 -13 -10 -21 3 -8 1 -15 -5 -15 -5 0
-14 -10 -19 -22 -6 -17 -9 -18 -9 -6 -1 9 3 20 9 23 6 3 10 15 10 26 0 10 -4
19 -10 19 -5 0 -10 -4 -10 -10 0 -5 -4 -10 -10 -10 -5 0 -7 13 -3 30 3 19 1
30 -6 30 -14 0 -23 -20 -25 -55 0 -14 -5 -25 -10 -25 -5 0 -6 -18 -3 -40 4
-35 3 -39 -9 -29 -8 6 -14 29 -14 51 0 24 -4 37 -10 33 -5 -3 -10 3 -10 15 0
13 -10 25 -27 33 -16 6 -33 19 -40 27 -15 19 -25 9 -27 -29 -1 -16 -5 -33 -9
-37 -4 -4 -7 -15 -7 -24 0 -10 -7 -23 -15 -30 -9 -7 -13 -20 -10 -27 3 -10 -1
-13 -13 -11 -9 2 -21 18 -27 36 -8 28 -13 32 -33 27 -19 -5 -23 -3 -19 8 3 8
-1 24 -9 36 -14 19 -14 21 5 21 22 0 28 14 10 25 -14 9 -55 -38 -62 -71 -3
-15 2 -42 10 -60 16 -33 12 -64 -7 -64 -13 0 -29 40 -39 95 -3 22 -11 38 -16
35 -6 -3 -9 -11 -9 -17 1 -7 -4 -13 -12 -13 -18 0 -18 -29 -1 -36 8 -3 20 -20
27 -39 13 -34 16 -35 65 -35 50 0 52 1 47 25 -2 14 -8 28 -13 31 -5 3 -9 13
-9 22 0 13 6 11 25 -10 14 -15 25 -36 25 -46 0 -18 10 -19 130 -21 99 -1 130
2 130 11 0 9 3 8 10 -2 9 -13 11 -13 20 0 6 10 10 11 10 3 0 -8 15 -13 40 -13
25 0 40 5 40 13 0 8 4 7 10 -3 9 -13 11 -13 20 0 6 8 9 25 7 38 -3 12 -1 25 3
27 4 3 11 -11 14 -30 8 -41 45 -57 71 -31 9 9 25 16 36 16 15 0 19 7 19 31 l0
31 25 -23 c13 -13 25 -29 25 -35 0 -10 50 -12 70 -4 3 1 22 1 43 0 21 -1 37 3
37 9 0 6 10 11 22 11 17 0 19 -3 10 -12 -7 -7 -12 -18 -12 -25 0 -19 68 -17
87 2 14 14 17 14 36 -2 14 -13 21 -15 24 -6 6 17 75 17 91 1 10 -10 17 -10 32
0 15 9 26 10 40 2 29 -15 87 -12 109 6 26 22 16 47 -15 40 -22 -6 -24 -3 -23
31 0 32 2 35 9 16 9 -21 46 -40 57 -29 3 3 0 12 -7 21 -18 22 -6 30 14 9 10
-9 15 -23 12 -31 -6 -15 21 -63 35 -63 5 0 9 7 9 15 0 8 5 15 10 15 6 0 10 -4
10 -10 0 -26 17 -5 29 35 15 49 9 118 -13 153 -5 8 -3 12 6 10 13 -3 16 42 9
127 -1 17 1 59 5 93 5 50 4 66 -7 73 -10 6 -10 9 -1 9 17 0 15 40 -4 62 -16
16 -16 18 0 24 13 5 16 22 15 103 -1 53 -4 87 -7 76 -11 -33 -40 -68 -51 -61
-6 4 -13 22 -17 41 -3 20 -11 38 -17 42 -6 4 -8 -3 -4 -18 5 -20 1 -27 -24
-38 -22 -10 -34 -10 -42 -2 -8 8 -2 18 21 39 31 28 43 62 22 62 -5 0 -10 5
-10 11 0 5 4 8 9 5 14 -9 21 22 11 50 -13 34 -13 34 10 34 11 0 25 9 32 20 7
11 16 20 20 20 6 0 33 -68 41 -105 3 -11 5 25 6 80 0 66 -2 95 -9 85 -12 -19
-24 -6 -39 42 -16 48 -26 55 -94 60 -45 4 -61 10 -73 26 -9 13 -26 22 -42 22
-27 0 -70 20 -44 20 6 0 12 7 12 15 0 19 90 21 109 3 10 -11 11 -10 6 5 -10
26 10 21 29 -8 12 -18 25 -25 49 -25 18 0 47 -4 65 -9 l32 -10 0 195 c0 162
-2 194 -14 194 -8 0 -18 -5 -21 -10 -4 -7 -14 -6 -28 2 -33 17 -72 22 -171 20
-60 -1 -92 -5 -98 -14 -6 -11 -10 -11 -16 0 -8 12 -22 13 -202 15 -30 0 -82
-2 -115 -4 -53 -3 -60 -7 -63 -26 -3 -17 3 -22 25 -26 27 -4 27 -4 -4 -6 -26
-1 -33 3 -33 17 0 53 -67 87 -105 52 -16 -15 -29 -19 -52 -14 -18 3 -33 1 -37
-5 -10 -16 -26 -14 -26 4 0 24 -34 36 -70 24 -17 -6 -34 -9 -37 -6 -3 4 -15 1
-27 -5 -11 -6 -44 -10 -72 -9 -30 1 -55 -2 -59 -9 -5 -8 -10 -8 -20 0 -20 16
-29 -20 -10 -39 13 -13 19 -13 35 -3 17 10 20 10 20 -3 0 -12 -19 -15 -110
-15 -71 0 -110 4 -110 11 0 6 8 8 19 4 11 -3 22 -1 26 5 4 7 19 9 36 5 18 -4
29 -3 29 4 0 6 -12 11 -27 11 -16 0 -40 6 -55 14 -15 8 -41 17 -58 21 -30 7
-31 5 -25 -15 7 -21 5 -22 -19 -16 -15 4 -61 9 -103 11 -46 3 -83 11 -92 19
-12 11 -47 15 -133 15 -64 1 -128 5 -143 11 -14 6 -34 6 -43 2 -25 -12 -514
-8 -877 8 -371 17 -580 18 -1240 7 -309 -5 -505 -4 -550 2 -39 6 -218 13 -398
17 -323 7 -327 7 -327 -13z m4590 -103 l0 -41 -67 6 c-90 8 -113 13 -113 26 0
6 9 8 20 4 12 -4 26 0 36 9 18 18 30 20 39 6 10 -17 44 -11 62 10 10 11 19 20
20 20 2 0 3 -18 3 -40z m-215 23 c-22 -3 -43 -10 -47 -16 -5 -8 -8 -6 -8 6 0
14 8 17 48 15 47 -1 47 -1 7 -5z m511 -8 c8 -21 34 -19 34 3 0 14 2 15 10 2
21 -32 12 -45 -33 -44 -23 0 -53 4 -67 9 -14 4 -38 8 -55 7 l-30 -1 24 20 c29
24 109 27 117 4z m434 -11 c0 -8 -5 -12 -10 -9 -6 4 -8 11 -5 16 9 14 15 11
15 -7z m-1040 -8 c0 -14 -48 -32 -58 -21 -3 3 2 5 12 5 9 0 19 7 22 15 8 19
24 20 24 1z m920 1 c0 -7 -15 -18 -33 -25 -56 -20 -150 -12 -141 11 3 8 27 11
70 9 39 -2 71 1 77 7 15 15 27 14 27 -2z m-1335 -7 c3 -5 -3 -10 -14 -10 -12
0 -21 5 -21 10 0 6 6 10 14 10 8 0 18 -4 21 -10z m1389 -15 c27 -21 8 -42 -23
-26 -22 12 -26 23 -14 34 9 10 15 8 37 -8z m-535 -28 c56 7 75 6 98 -6 21 -11
72 -15 210 -17 100 -2 190 -7 200 -12 10 -5 34 -7 53 -5 19 2 45 4 58 6 16 1
28 -7 39 -25 10 -15 15 -29 13 -31 -11 -7 -563 14 -655 25 -95 12 -100 14 -97
36 2 12 -1 22 -7 22 -6 0 -11 5 -11 11 0 8 4 8 15 -1 10 -9 33 -9 84 -3z
m-139 -31 c0 -11 -19 -15 -25 -6 -3 5 1 10 9 10 9 0 16 -2 16 -4z m-2730 -66
c0 -5 -5 -10 -11 -10 -5 0 -7 5 -4 10 3 6 8 10 11 10 2 0 4 -4 4 -10z m393
-32 l88 -13 -21 -23 c-17 -18 -31 -22 -81 -22 -56 0 -61 -2 -77 -30 l-17 -30
-112 0 c-62 0 -113 3 -113 7 0 3 8 15 17 25 15 17 15 21 3 30 -12 8 -12 9 3 4
9 -3 24 -3 32 0 11 5 12 10 2 25 -14 22 -66 26 -86 7 -10 -11 -12 -9 -9 7 3
16 12 20 43 21 22 1 50 6 62 11 24 9 125 2 266 -19z m-405 -26 c2 -7 -2 -10
-12 -6 -9 3 -16 11 -16 16 0 13 23 5 28 -10z m940 2 c18 -5 15 -31 -5 -38 -11
-4 -22 -1 -29 8 -8 12 -29 16 -78 16 -52 0 -66 3 -66 15 0 13 13 15 83 9 45
-3 88 -7 95 -10z m-238 -4 c0 -5 -4 -10 -10 -10 -5 0 -10 5 -10 10 0 6 5 10
10 10 6 0 10 -4 10 -10z m-1217 -27 c-7 -2 -21 -2 -30 0 -10 3 -4 5 12 5 17 0
24 -2 18 -5z m1937 -3 c0 -5 -4 -10 -10 -10 -5 0 -10 5 -10 10 0 6 5 10 10 10
6 0 10 -4 10 -10z m-1680 -9 c-8 -5 -33 -11 -55 -15 -37 -6 -39 -5 -21 9 11 8
36 15 55 15 25 -1 31 -3 21 -9z m1486 -8 c16 -21 18 -43 4 -43 -5 0 -10 5 -10
12 0 6 -7 20 -17 30 -11 13 -12 18 -3 18 7 0 19 -8 26 -17z m64 -18 c0 -5 -5
-3 -10 5 -5 8 -10 20 -10 25 0 6 5 3 10 -5 5 -8 10 -19 10 -25z m-1232 8 c5
-18 -20 -16 -44 2 -18 15 -18 15 10 13 16 -2 31 -9 34 -15z m2697 -3 c3 -5 2
-10 -4 -10 -5 0 -13 5 -16 10 -3 6 -2 10 4 10 5 0 13 -4 16 -10z m-2348 -36
c-7 -7 -67 8 -67 17 0 14 65 15 68 1 2 -8 2 -15 -1 -18z m-423 20 c21 -8 21
-54 1 -54 -8 0 -15 -6 -15 -12 0 -7 -8 2 -17 20 -14 29 -14 35 -2 43 17 11 14
10 33 3z m683 -16 c-3 -8 -6 -5 -6 6 -1 11 2 17 5 13 3 -3 4 -12 1 -19z m117
7 c6 -16 2 -18 -31 -9 -13 4 -23 10 -23 15 0 15 48 10 54 -6z m2231 5 c3 -5 1
-10 -4 -10 -6 0 -11 5 -11 10 0 6 2 10 4 10 3 0 8 -4 11 -10z m525 0 c-20 -13
-33 -13 -25 0 3 6 14 10 23 10 15 0 15 -2 2 -10z m-3083 -22 c-3 -8 -6 -5 -6
6 -1 11 2 17 5 13 3 -3 4 -12 1 -19z m59 13 c-3 -5 -15 -7 -26 -4 -28 7 -25
13 6 13 14 0 23 -4 20 -9z m362 -8 c5 -18 -29 -16 -53 3 -19 15 -18 15 14 12
19 -2 36 -9 39 -15z m160 -17 c3 -12 -1 -17 -10 -14 -7 3 -15 13 -16 22 -3 12
1 17 10 14 7 -3 15 -13 16 -22z m150 -25 c-2 -9 -8 -16 -15 -16 -6 0 -15 -3
-19 -7 -18 -19 -34 -8 -28 20 10 40 12 42 40 30 14 -7 23 -18 22 -27z m1387
30 c3 -5 1 -12 -4 -15 -5 -3 -11 1 -15 9 -6 16 9 21 19 6z m-1275 -11 c0 -5
-7 -10 -15 -10 -8 0 -15 5 -15 10 0 6 7 10 15 10 8 0 15 -4 15 -10z m1345 -31
c-4 -5 -20 -9 -36 -9 -18 0 -28 4 -24 10 4 6 10 8 14 6 4 -3 13 -1 21 4 16 10
33 3 25 -11z m-1131 1 c39 -15 34 -41 -6 -34 -59 10 -63 13 -42 29 23 17 18
17 48 5z m948 -15 c6 -14 15 -25 20 -25 4 0 8 -5 8 -11 0 -6 -8 -8 -19 -4 -13
4 -23 0 -30 -12 -9 -16 -11 -15 -20 10 -16 42 -71 34 -72 -12 l0 -26 -12 24
c-10 21 -7 27 21 52 42 38 88 39 104 4z m-742 -10 c0 -8 -9 -15 -20 -15 -11 0
-20 7 -20 15 0 8 9 15 20 15 11 0 20 -7 20 -15z m1600 -4 c0 -12 86 -41 122
-41 17 0 28 -5 28 -14 0 -8 7 -16 15 -20 20 -7 19 -22 -5 -46 -28 -28 -32 -25
-29 14 2 19 0 38 -4 43 -4 4 -40 7 -80 8 l-72 0 3 27 c3 23 -1 27 -30 31 -29
3 -28 4 10 5 23 1 42 -2 42 -7z m-671 -20 c7 -5 11 -14 7 -20 -5 -7 -12 -7
-26 1 -10 7 -16 16 -14 20 7 10 15 10 33 -1z m-1181 -12 c77 -19 119 -72 107
-135 -7 -42 -20 -43 -34 -4 -8 24 -16 30 -40 30 -18 0 -40 9 -51 20 -12 12
-25 18 -29 15 -5 -2 -14 2 -21 10 -24 29 -32 16 -25 -42 5 -42 3 -54 -4 -43
-15 21 -14 133 1 148 15 15 36 15 96 1z m1291 5 c17 -4 29 -10 26 -14 -5 -7
-94 5 -103 15 -7 7 39 6 77 -1z m-1709 -54 c0 -5 -7 -7 -15 -4 -8 4 -15 8 -15
10 0 2 7 4 15 4 8 0 15 -4 15 -10z m-267 -22 c17 -13 59 -88 50 -88 -13 0 -73
33 -73 40 0 13 -54 19 -67 8 -16 -13 -16 -6 -1 27 8 19 19 25 43 25 17 0 39
-6 48 -12z m2610 -35 c-7 -2 -19 -2 -25 0 -7 3 -2 5 12 5 14 0 19 -2 13 -5z
m-1968 -13 c3 -5 2 -10 -4 -10 -5 0 -13 5 -16 10 -3 6 -2 10 4 10 5 0 13 -4
16 -10z m1696 0 c10 -6 19 -20 19 -32 0 -11 8 -27 18 -34 10 -8 12 -13 5 -14
-21 0 -82 60 -76 76 6 17 9 17 34 4z m-1661 -31 c0 -5 -4 -9 -10 -9 -5 0 -10
7 -10 16 0 8 5 12 10 9 6 -3 10 -10 10 -16z m1937 -7 c7 -4 16 -23 19 -42 5
-24 4 -31 -4 -26 -7 4 -12 14 -12 22 0 18 -11 18 -36 -1 -10 -8 -27 -15 -36
-15 -10 0 -24 -12 -32 -27 l-15 -28 -1 38 c0 40 21 66 63 79 31 9 40 9 54 0z
m-7 -92 c0 -5 -4 -10 -10 -10 -5 0 -10 5 -10 10 0 6 5 10 10 10 6 0 10 -4 10
-10z m-26 -121 c-16 -18 -9 -29 20 -29 18 -1 19 -2 6 -13 -9 -7 -14 -20 -12
-29 2 -13 -1 -16 -12 -12 -26 10 -18 -13 12 -35 22 -15 32 -17 40 -9 12 12 13
10 16 -27 1 -15 7 -19 24 -17 12 2 22 -2 22 -7 0 -18 -50 -12 -77 9 -29 23
-59 26 -67 8 -3 -7 -3 -1 1 15 6 33 -9 53 -54 72 -24 10 -31 18 -26 31 5 15 7
14 16 -2 5 -11 12 -21 14 -24 8 -9 23 25 23 53 0 16 5 27 14 27 7 0 19 7 26
15 10 13 15 13 21 3 5 -7 2 -19 -7 -29z m124 -67 c2 -7 -2 -10 -11 -6 -8 3
-18 1 -22 -5 -8 -14 -25 -14 -25 -1 0 6 7 10 15 10 8 0 15 5 15 11 0 14 23 6
28 -9z m52 -22 c0 -5 -2 -10 -4 -10 -3 0 -8 5 -11 10 -3 6 -1 10 4 10 6 0 11
-4 11 -10z m-233 -42 c-3 -8 -6 -5 -6 6 -1 11 2 17 5 13 3 -3 4 -12 1 -19z
m-37 -29 c11 -20 11 -20 -14 -4 -30 20 -32 25 -11 25 8 0 19 -9 25 -21z m124
-42 c13 -13 28 -21 34 -19 7 2 12 -1 12 -7 0 -6 -12 -11 -26 -11 -22 0 -25 -2
-14 -15 11 -13 7 -15 -24 -15 -29 0 -36 -4 -36 -20 0 -11 4 -20 9 -20 5 0 7
-8 4 -18 -4 -19 -28 -22 -50 -9 -14 9 19 71 45 86 13 7 12 10 -6 15 -27 9 -28
24 -4 42 24 18 30 17 56 -9z m-92 -11 c4 -19 1 -23 -17 -23 -19 0 -21 2 -11
23 14 30 22 30 28 0z m218 -6 c0 -16 -4 -30 -10 -30 -5 0 -10 14 -10 30 0 17
5 30 10 30 6 0 10 -13 10 -30z m8 -81 c2 -13 -6 -16 -38 -16 -39 0 -40 0 -23
19 20 22 56 20 61 -3z m-248 -33 c0 -8 -7 -21 -15 -30 -8 -8 -15 -26 -15 -39
0 -31 -9 -57 -21 -57 -4 0 -20 11 -34 24 -15 14 -32 27 -38 30 -9 5 -9 8 1 12
6 3 12 20 12 37 0 18 4 28 8 22 11 -16 82 -14 82 2 0 7 5 13 10 13 6 0 10 -6
10 -14z m94 -41 c-4 -8 -8 -15 -10 -15 -2 0 -4 7 -4 15 0 8 4 15 10 15 5 0 7
-7 4 -15z m-67 -1 c-3 -3 -12 -4 -19 -1 -8 3 -5 6 6 6 11 1 17 -2 13 -5z m223
-4 c0 -5 -4 -10 -10 -10 -5 0 -10 5 -10 10 0 6 5 10 10 10 6 0 10 -4 10 -10z
m-151 -36 c5 4 12 2 16 -4 3 -5 -3 -10 -15 -10 -11 0 -23 -7 -26 -15 -9 -23
-23 -8 -22 25 1 28 2 29 19 14 10 -9 22 -13 28 -10z m145 -23 c-7 -7 -34 21
-28 31 3 5 12 1 19 -9 7 -10 12 -20 9 -22z m-34 -22 c11 -19 -2 -35 -20 -24
-5 3 -10 -1 -10 -9 0 -9 -5 -16 -11 -16 -6 0 -8 8 -4 19 7 23 -21 37 -41 20
-20 -17 -17 -1 7 32 19 28 21 28 45 12 14 -9 29 -24 34 -34z m-357 -59 c-3
-11 -7 -20 -9 -20 -2 0 -4 9 -4 20 0 11 4 20 9 20 5 0 7 -9 4 -20z m343 -27
c-11 -11 -17 4 -9 23 7 18 8 18 11 1 2 -10 1 -21 -2 -24z m-148 -67 c16 -37
34 -97 29 -102 -24 -24 -58 71 -56 155 l1 36 8 -34 c4 -18 12 -43 18 -55z
m-310 32 c9 -9 17 -8 37 2 29 15 75 1 75 -24 0 -24 -18 -28 -25 -6 -3 11 -10
20 -15 20 -11 0 -20 -27 -14 -44 3 -8 1 -17 -5 -21 -6 -3 -11 -1 -11 4 0 6 -5
11 -12 11 -13 0 -58 48 -58 62 0 12 14 10 28 -4z m398 -35 c-10 -10 -19 5 -10
18 6 11 8 11 12 0 2 -7 1 -15 -2 -18z m104 1 c0 -8 -4 -12 -10 -9 -5 3 -10 10
-10 16 0 5 5 9 10 9 6 0 10 -7 10 -16z m-270 -4 c0 -5 -4 -10 -9 -10 -6 0 -13
5 -16 10 -3 6 1 10 9 10 9 0 16 -4 16 -10z m-861 -25 c1 -8 3 -26 4 -40 1 -14
8 -25 15 -25 14 0 16 -26 2 -35 -5 -3 -10 1 -10 9 0 20 -10 20 -38 0 -22 -15
-25 -15 -48 7 -29 28 -30 39 -3 46 14 4 19 12 16 23 -3 13 0 16 14 13 13 -4
19 0 19 11 0 19 26 11 29 -9z m611 17 c0 -5 -8 -24 -17 -42 -16 -32 -17 -33
-26 -13 -7 16 -5 26 9 41 20 22 34 27 34 14z m283 -37 c4 -16 4 -25 1 -18 -3
7 -11 10 -19 7 -19 -7 -24 7 -14 35 11 29 24 19 32 -24z m-145 -3 c-10 -2 -18
-10 -18 -18 0 -8 -7 -14 -15 -14 -8 0 -15 6 -15 13 0 15 41 36 55 28 6 -3 2
-7 -7 -9z m47 8 c-3 -5 -10 -10 -16 -10 -5 0 -9 5 -9 10 0 6 7 10 16 10 8 0
12 -4 9 -10z m39 -6 c4 -10 1 -14 -6 -12 -15 5 -23 28 -10 28 5 0 13 -7 16
-16z m316 12 c0 -3 -4 -8 -10 -11 -5 -3 -10 -1 -10 4 0 6 5 11 10 11 6 0 10
-2 10 -4z m-673 -38 c-3 -7 -5 -2 -5 12 0 14 2 19 5 13 2 -7 2 -19 0 -25z
m-147 -23 c0 -8 -4 -15 -10 -15 -5 0 -7 7 -4 15 4 8 8 15 10 15 2 0 4 -7 4
-15z"/>
<path d="M2050 1341 c-21 -17 -23 -22 -12 -45 17 -37 68 -37 83 0 7 21 6 31
-7 45 -21 24 -33 23 -64 0z m37 -37 c-3 -3 -12 -4 -19 -1 -8 3 -5 6 6 6 11 1
17 -2 13 -5z"/>
<path d="M3615 1460 c-9 -14 -6 -17 25 -22 17 -2 25 2 25 12 0 18 -40 26 -50
10z"/>
<path d="M3760 1455 c0 -8 9 -15 20 -15 11 0 20 7 20 15 0 8 -9 15 -20 15 -11
0 -20 -7 -20 -15z"/>
<path d="M146 1431 c-4 -6 -37 -11 -77 -11 -62 0 -69 -2 -69 -20 0 -18 7 -20
74 -20 42 0 78 5 81 11 4 6 19 7 38 3 50 -11 888 -11 884 0 -8 24 -158 34
-500 34 -193 0 -368 3 -388 7 -23 5 -39 3 -43 -4z"/>
<path d="M1308 1433 c-10 -2 -18 -10 -18 -18 0 -9 21 -14 68 -17 68 -5 123 6
106 21 -11 10 -131 21 -156 14z"/>
<path d="M142 1364 c-12 -8 -22 -22 -22 -30 0 -9 -11 -14 -30 -14 -19 0 -30
-5 -30 -14 0 -8 -9 -18 -20 -21 -11 -3 -20 -13 -20 -21 0 -8 -4 -14 -10 -14
-17 0 -11 -25 10 -38 11 -7 20 -17 20 -22 0 -7 -7 -7 -20 0 -18 9 -20 8 -20
-16 0 -23 3 -26 27 -21 15 3 45 -2 67 -11 37 -14 40 -14 53 4 11 16 24 18 72
16 48 -3 62 0 77 16 18 19 21 19 68 2 40 -13 46 -18 31 -24 -16 -6 -17 -9 -5
-16 22 -14 62 -11 84 5 27 20 15 39 -28 42 -21 1 -44 7 -51 13 -22 18 -74 30
-81 18 -4 -7 -9 -6 -14 2 -9 14 -77 29 -137 30 -35 0 -42 -3 -46 -22 l-4 -23
-8 23 c-10 32 -39 29 -33 -3 3 -14 1 -25 -3 -25 -13 0 -10 43 4 60 7 8 32 22
57 30 38 13 64 13 162 4 114 -11 148 -22 148 -50 0 -8 7 -14 15 -14 8 0 15 5
15 10 0 6 -4 10 -10 10 -5 0 -10 5 -10 10 0 6 7 10 15 10 8 0 12 6 9 14 -7 18
-72 32 -190 41 -89 7 -91 8 -86 31 5 29 -21 33 -56 8z m118 -154 c8 0 10 -3 5
-9 -13 -12 -77 -2 -69 11 4 5 16 7 28 4 11 -3 28 -6 36 -6z"/>
<path d="M3493 1341 c-16 -10 -34 -51 -28 -62 4 -5 41 -9 88 -7 45 2 97 -1
115 -5 31 -8 32 -8 32 23 0 29 -3 32 -24 26 -12 -3 -26 -3 -29 1 -4 3 -21 7
-39 8 -18 2 -49 7 -69 12 -21 6 -41 8 -46 4z"/>
<path d="M4240 1308 c0 -15 39 -42 48 -33 9 9 -13 40 -32 43 -9 2 -16 -3 -16
-10z"/>
<path d="M538 1303 c-14 -2 -29 -11 -32 -18 -4 -12 9 -14 68 -12 64 2 72 4 68
20 -4 17 -36 20 -104 10z"/>
<path d="M3714 1295 c-4 -9 -2 -21 4 -27 15 -15 44 -1 40 19 -4 23 -36 29 -44
8z"/>
<path d="M978 1293 c-42 -7 -33 -20 18 -28 50 -7 59 -4 51 20 -6 15 -16 16
-69 8z"/>
<path d="M3807 1293 c-16 -15 -4 -23 43 -29 28 -4 53 -11 56 -15 8 -13 152
-11 160 2 12 19 -19 29 -86 27 -36 -1 -75 4 -87 10 -24 13 -76 16 -86 5z"/>
<path d="M805 1280 c-4 -6 5 -10 19 -10 14 0 26 5 26 10 0 6 -9 10 -19 10 -11
0 -23 -4 -26 -10z"/>
<path d="M1110 1270 c0 -5 9 -10 20 -10 11 0 20 5 20 10 0 6 -9 10 -20 10 -11
0 -20 -4 -20 -10z"/>
<path d="M1218 1273 c-29 -4 -40 -33 -13 -33 8 0 15 4 15 10 0 5 7 7 15 4 9
-4 15 0 15 10 0 9 -1 15 -2 15 -2 -1 -15 -4 -30 -6z"/>
<path d="M2437 1223 c-14 -13 -6 -33 13 -33 22 0 23 1 14 24 -7 17 -16 20 -27
9z"/>
<path d="M950 1190 c0 -5 7 -10 15 -10 8 0 15 5 15 10 0 6 -7 10 -15 10 -8 0
-15 -4 -15 -10z"/>
<path d="M1940 1185 c-11 -13 -5 -15 44 -15 43 0 56 3 56 15 0 11 -12 15 -44
15 -26 0 -48 -6 -56 -15z"/>
<path d="M1160 1176 c0 -9 7 -16 16 -16 9 0 14 5 12 12 -6 18 -28 21 -28 4z"/>
<path d="M522 1163 c4 -21 55 -30 71 -14 7 7 2 13 -17 21 -40 15 -58 13 -54
-7z"/>
<path d="M1506 1172 c-12 -20 54 -62 99 -62 39 0 25 24 -17 31 -20 3 -43 13
-53 22 -19 19 -22 20 -29 9z"/>
<path d="M793 1163 c-20 -7 -15 -23 7 -23 11 0 20 4 20 9 0 13 -12 19 -27 14z"/>
<path d="M1200 1155 c0 -8 8 -19 18 -24 22 -12 113 -9 109 3 -4 11 -32 18 -69
17 -16 -1 -28 3 -28 9 0 5 -7 10 -15 10 -8 0 -15 -7 -15 -15z"/>
<path d="M1007 1154 c-11 -11 3 -24 24 -24 12 0 19 5 17 13 -5 14 -31 21 -41
11z"/>
<path d="M635 1140 c-10 -16 3 -27 35 -32 37 -6 50 10 25 29 -22 15 -51 17
-60 3z"/>
<path d="M2170 1140 c0 -10 32 -30 49 -30 6 0 11 9 11 20 0 16 -7 20 -30 20
-16 0 -30 -4 -30 -10z"/>
<path d="M5392 1130 c0 -14 2 -19 5 -12 2 6 2 18 0 25 -3 6 -5 1 -5 -13z"/>
<path d="M1340 1125 c0 -10 10 -15 30 -15 20 0 30 5 30 15 0 10 -10 15 -30 15
-20 0 -30 -5 -30 -15z"/>
<path d="M730 1117 c0 -20 38 -33 53 -18 13 13 9 18 -26 26 -21 6 -27 4 -27
-8z"/>
<path d="M825 1120 c-4 -6 3 -10 14 -10 25 0 27 6 6 13 -8 4 -17 2 -20 -3z"/>
<path d="M1060 1111 c0 -12 37 -24 50 -16 20 12 10 25 -20 25 -16 0 -30 -4
-30 -9z"/>
<path d="M3855 1110 c3 -5 10 -10 16 -10 5 0 9 5 9 10 0 6 -7 10 -16 10 -8 0
-12 -4 -9 -10z"/>
<path d="M2150 1091 c14 -27 63 -30 58 -3 -2 11 -14 18 -36 20 -31 3 -33 2
-22 -17z"/>
<path d="M4095 1079 c-4 -6 -2 -15 5 -19 17 -10 42 -1 37 14 -5 16 -34 19 -42
5z"/>
<path d="M1670 1070 c0 -5 14 -10 30 -10 17 0 30 5 30 10 0 6 -13 10 -30 10
-16 0 -30 -4 -30 -10z"/>
<path d="M1775 1070 c-3 -5 3 -10 14 -10 12 0 21 5 21 10 0 6 -6 10 -14 10 -8
0 -18 -4 -21 -10z"/>
<path d="M1955 1071 c-7 -13 20 -19 79 -17 30 0 51 6 53 14 6 15 -122 18 -132
3z"/>
<path d="M4498 1049 c-28 -16 -21 -29 15 -29 30 1 67 19 67 34 0 10 -63 6 -82
-5z"/>
<path d="M4630 1040 c0 -5 11 -10 25 -10 14 0 25 5 25 10 0 6 -11 10 -25 10
-14 0 -25 -4 -25 -10z"/>
<path d="M1617 1033 c-8 -7 11 -33 24 -33 5 0 9 9 9 20 0 19 -20 27 -33 13z"/>
<path d="M3720 976 c0 -34 18 -42 29 -14 10 27 6 38 -15 38 -8 0 -14 -10 -14
-24z"/>
<path d="M367 979 c7 -7 9 -25 6 -40 -4 -22 -2 -29 10 -29 8 0 17 9 20 20 3
11 12 20 21 20 14 0 14 3 4 20 -8 13 -24 20 -42 20 -23 0 -27 -3 -19 -11z"/>
<path d="M3477 976 c-17 -13 -16 -15 13 -21 36 -8 45 -3 37 20 -8 18 -26 19
-50 1z"/>
<path d="M3602 939 c1 -12 9 -24 16 -27 9 -3 13 3 10 19 -1 12 -9 24 -16 27
-9 3 -13 -3 -10 -19z"/>
<path d="M3650 950 c0 -5 7 -10 15 -10 8 0 15 5 15 10 0 6 -7 10 -15 10 -8 0
-15 -4 -15 -10z"/>
<path d="M1280 929 c0 -14 7 -19 25 -19 29 0 25 25 -6 33 -14 4 -19 0 -19 -14z"/>
<path d="M862 904 c2 -22 7 -37 13 -34 15 7 12 63 -3 68 -10 3 -13 -6 -10 -34z"/>
<path d="M1100 911 c0 -23 14 -41 31 -41 24 0 24 12 1 33 -21 19 -32 22 -32 8z"/>
<path d="M1740 910 c0 -5 5 -10 10 -10 6 0 10 5 10 10 0 6 -4 10 -10 10 -5 0
-10 -4 -10 -10z"/>
<path d="M195 875 c-27 -13 -55 -25 -61 -25 -7 0 -39 -18 -73 -41 l-61 -41 0
-167 c0 -173 4 -195 52 -263 19 -26 -5 -47 -32 -30 -18 11 -20 10 -20 -11 0
-13 5 -28 10 -33 6 -6 12 -37 14 -70 3 -41 8 -59 17 -59 18 0 24 52 8 71 -9
11 -8 18 6 34 20 22 35 26 35 9 0 -7 8 -17 17 -24 16 -12 16 -14 1 -37 -9 -14
-19 -43 -23 -64 -11 -66 -13 -69 -34 -50 -13 12 -21 14 -26 6 -3 -5 -11 -8
-16 -5 -5 4 -9 2 -9 -4 0 -18 55 -40 114 -47 31 -4 56 -11 56 -15 0 -5 23 -9
50 -9 30 0 50 4 50 11 0 8 5 8 15 -1 12 -10 15 -9 15 4 0 13 5 16 20 11 18 -6
20 -2 20 32 0 28 6 42 21 51 29 19 36 7 16 -27 -9 -16 -17 -41 -17 -55 0 -21
4 -25 23 -23 12 1 26 7 30 12 6 6 10 6 14 -2 6 -17 33 -17 33 0 -1 21 -28 50
-43 44 -12 -4 -12 -1 -3 18 6 13 14 21 18 19 19 -12 25 9 11 37 -14 28 -16 29
-29 12 -14 -16 -14 -15 -9 13 9 45 -3 84 -26 84 -20 0 -26 -24 -9 -35 16 -10
11 -55 -7 -62 -9 -4 -19 -1 -21 5 -7 23 -22 12 -22 -17 0 -17 -5 -33 -10 -36
-6 -3 -10 4 -10 17 0 14 -6 33 -14 44 -12 15 -17 17 -27 7 -16 -15 -39 -17
-39 -3 0 6 7 10 16 10 12 0 15 6 10 26 -7 28 -5 27 46 -8 31 -21 48 -17 48 12
0 21 -16 36 -22 19 -5 -16 -35 0 -42 24 -7 29 1 35 18 11 14 -18 15 -18 21 9
4 16 3 33 -4 40 -8 10 -7 18 2 29 14 18 65 30 73 17 5 -9 -1 -11 -36 -13 -17
-1 -24 -28 -16 -62 8 -32 26 -31 26 2 0 33 33 29 38 -4 3 -20 7 -22 35 -17 18
4 36 11 42 16 14 14 25 11 19 -5 -3 -8 -14 -16 -25 -19 -22 -6 -26 -56 -9
-101 13 -35 34 -34 26 0 -4 15 -10 40 -13 58 -6 28 -5 30 10 17 14 -11 17 -11
18 0 0 8 5 4 11 -8 6 -13 15 -23 20 -23 13 0 9 64 -4 79 -10 11 -10 14 0 18
15 6 16 43 1 43 -5 0 -8 4 -4 9 9 15 -16 24 -28 11 -9 -10 -9 -14 1 -17 6 -3
12 -9 12 -15 0 -5 -6 -8 -12 -5 -7 2 -24 -1 -38 -8 -24 -13 -25 -12 -27 26 -2
38 -1 39 30 40 17 1 43 0 55 -1 13 -1 34 8 46 19 24 23 67 24 74 2 5 -14 -29
-42 -42 -34 -8 5 -26 -14 -26 -29 0 -5 11 -8 25 -8 33 0 32 -11 -5 -50 -24
-26 -29 -38 -26 -71 4 -45 13 -59 22 -35 3 9 15 16 26 16 11 0 18 5 15 13 -2
6 -14 12 -25 11 -17 0 -19 2 -10 13 7 9 21 12 35 8 20 -5 23 -2 23 21 0 26 1
26 19 10 11 -10 25 -15 30 -11 6 3 11 1 11 -4 0 -6 4 -11 9 -11 13 0 21 54 9
62 -16 9 28 98 48 98 12 0 15 -6 10 -26 -6 -24 -5 -26 18 -20 28 7 66 -11 66
-31 0 -24 18 -13 40 22 12 20 27 34 34 32 14 -5 8 -59 -8 -70 -8 -6 -8 -10 2
-14 16 -6 16 -23 -1 -23 -23 0 -37 -21 -26 -42 8 -14 6 -18 -8 -18 -14 -1 -12
-6 12 -27 22 -19 31 -23 33 -12 4 23 50 39 79 28 19 -7 24 -14 20 -31 -3 -11
1 -34 9 -50 9 -17 13 -32 10 -36 -3 -3 -6 0 -6 6 0 18 -39 25 -57 10 -15 -12
-16 -10 -9 15 6 24 4 28 -11 25 -10 -1 -24 1 -32 6 -11 7 -13 4 -9 -12 3 -12
2 -22 -2 -24 -4 -2 -10 -24 -14 -51 l-7 -47 55 0 c31 0 56 5 56 10 0 6 11 10
24 10 13 0 27 6 29 13 4 7 8 3 12 -10 8 -26 40 -31 49 -7 4 10 -5 27 -24 46
-17 16 -30 33 -30 36 -1 4 -5 26 -9 49 -6 30 -5 40 3 36 6 -4 21 -6 34 -4 12
1 22 -2 22 -8 0 -6 -9 -11 -20 -11 -24 0 -27 -33 -4 -52 8 -7 25 -23 36 -35
12 -13 27 -23 34 -23 19 0 28 20 15 33 -6 6 -11 20 -11 30 0 16 -2 17 -15 7
-9 -7 -17 -11 -19 -9 -9 8 7 59 18 59 14 0 56 44 56 58 0 21 -21 24 -35 6 -7
-11 -17 -16 -21 -12 -4 4 -12 0 -19 -9 -17 -23 -48 -10 -40 17 5 15 2 20 -14
20 -11 0 -23 -5 -26 -10 -9 -15 -35 -12 -35 3 0 23 -58 8 -66 -17 -7 -20 -8
-20 -14 4 -4 14 -1 37 7 53 13 26 33 37 33 17 0 -5 5 -10 10 -10 6 0 10 9 10
21 0 11 5 17 10 14 6 -3 10 -19 10 -35 0 -33 15 -47 34 -31 8 6 29 10 47 9 40
-4 53 24 20 42 -16 8 -26 7 -46 -6 -45 -29 -47 -2 -5 45 22 25 40 50 40 58 0
7 6 13 13 13 14 0 42 58 33 67 -4 4 -16 8 -28 10 -28 4 -55 34 -64 67 -3 15
-13 26 -23 26 -9 0 -22 9 -29 20 -11 18 -10 20 13 20 14 0 42 9 62 20 21 11
43 20 50 20 15 0 17 16 4 24 -4 3 -36 0 -70 -6 -53 -10 -69 -9 -118 6 -32 10
-67 24 -78 31 -11 8 -37 17 -57 20 -37 7 -48 18 -29 30 5 3 12 1 16 -5 9 -14
112 -7 128 9 9 10 9 15 0 18 -9 3 -9 10 -1 29 12 26 6 40 -12 29 -6 -4 -8 -15
-5 -26 5 -16 1 -19 -27 -20 -60 -3 -93 -1 -110 6 -13 5 -20 1 -27 -16 -5 -13
-5 -28 -1 -34 5 -6 -7 -25 -26 -45 -19 -19 -45 -55 -57 -81 -20 -40 -26 -45
-45 -38 -12 5 -22 15 -22 24 0 17 -37 35 -57 28 -6 -3 -17 5 -23 17 -8 15 -18
20 -31 17 -12 -3 -19 0 -19 9 0 8 9 14 20 14 34 0 24 34 -15 53 -28 13 -35 23
-35 44 0 17 -12 41 -31 61 -29 31 -33 32 -107 32 -61 0 -87 -5 -127 -25z m204
-25 c25 -13 29 -26 41 -128 10 -81 9 -91 -10 -132 l-21 -45 6 40 c4 22 9 54
12 70 l4 30 -24 -27 c-18 -19 -41 -30 -81 -37 -57 -10 -84 -28 -105 -68 -10
-20 -17 -22 -59 -17 -28 4 -54 14 -64 25 -18 21 -48 25 -65 8 -26 -26 -25 137
1 173 6 8 47 35 91 59 70 38 90 44 165 49 47 4 86 8 88 8 2 1 11 -2 21 -8z
m466 -156 c22 -8 53 -19 69 -24 35 -11 66 -38 66 -58 0 -7 9 -27 20 -42 19
-27 20 -32 6 -64 l-15 -36 -34 23 c-19 12 -39 34 -45 50 -6 15 -25 34 -44 43
-18 8 -44 22 -58 29 -14 8 -30 15 -37 15 -18 0 -33 -34 -26 -61 5 -24 5 -24
-10 -4 -24 30 -21 94 5 122 25 27 47 28 103 7z m-312 -118 c4 -10 1 -13 -9 -9
-15 6 -19 23 -5 23 5 0 11 -7 14 -14z m-457 -67 c3 -6 1 -16 -5 -22 -16 -16
-14 -45 5 -55 21 -12 9 -62 -16 -62 -13 0 -25 19 -44 65 -14 36 -26 70 -26 75
0 14 77 13 86 -1z m294 -55 c0 -40 -2 -45 -15 -34 -18 15 -18 20 -5 54 14 38
20 32 20 -20z m230 1 c-7 -8 -17 -12 -23 -8 -6 4 -3 9 9 14 27 11 28 11 14 -6z
m365 -23 c-3 -3 -11 0 -18 7 -9 10 -8 11 6 5 10 -3 15 -9 12 -12z m-758 -51
c-2 -13 -5 -11 -15 6 -7 12 -9 29 -5 39 5 15 8 14 15 -6 5 -13 7 -31 5 -39z
m503 29 c0 -5 -4 -10 -10 -10 -5 0 -10 5 -10 10 0 6 5 10 10 10 6 0 10 -4 10
-10z m-40 -20 c0 -5 -2 -10 -4 -10 -3 0 -8 5 -11 10 -3 6 -1 10 4 10 6 0 11
-4 11 -10z m325 -10 c3 -5 1 -10 -4 -10 -6 0 -11 5 -11 10 0 6 2 10 4 10 3 0
8 -4 11 -10z m45 -4 c0 -8 -4 -18 -10 -21 -5 -3 -10 3 -10 14 0 12 5 21 10 21
6 0 10 -6 10 -14z m-75 -16 c3 -5 1 -10 -4 -10 -6 0 -11 5 -11 10 0 6 2 10 4
10 3 0 8 -4 11 -10z m-280 -10 c12 10 15 10 15 -3 0 -8 -7 -20 -15 -27 -8 -7
-15 -19 -15 -26 0 -8 -4 -14 -10 -14 -5 0 -10 9 -10 20 0 11 -7 20 -15 20 -8
0 -15 9 -15 20 0 17 3 18 25 8 19 -8 28 -8 40 2z m-467 -28 c2 -7 -3 -12 -12
-12 -9 0 -16 7 -16 16 0 17 22 14 28 -4z m-138 -13 c0 -11 -4 -17 -10 -14 -5
3 -10 13 -10 21 0 8 5 14 10 14 6 0 10 -9 10 -21z m100 1 c0 -13 -20 -13 -40
0 -12 8 -9 10 13 10 15 0 27 -4 27 -10z m-30 -44 c0 -3 -4 -8 -10 -11 -5 -3
-10 -1 -10 4 0 6 5 11 10 11 6 0 10 -2 10 -4z m61 -16 c5 0 9 -4 9 -10 0 -5
-7 -10 -15 -10 -8 0 -15 -5 -15 -12 0 -19 -14 1 -15 23 -1 13 3 18 12 14 8 -3
19 -5 24 -5z m-93 -117 c-18 -42 -30 -52 -22 -18 6 25 19 44 31 45 2 0 -3 -12
-9 -27z m89 -23 c6 -16 8 -32 3 -35 -4 -3 -13 9 -19 27 -13 37 -13 38 -3 38 4
0 13 -13 19 -30z m-42 0 c3 -5 -1 -10 -10 -10 -9 0 -13 5 -10 10 3 6 8 10 10
10 2 0 7 -4 10 -10z m115 -34 c0 -3 -4 -8 -10 -11 -5 -3 -10 -1 -10 4 0 6 5
11 10 11 6 0 10 -2 10 -4z m680 -31 c0 -14 -4 -25 -10 -25 -5 0 -10 11 -10 25
0 14 5 25 10 25 6 0 10 -11 10 -25z m57 -1 c-3 -3 -12 -4 -19 -1 -8 3 -5 6 6
6 11 1 17 -2 13 -5z"/>
<path d="M4633 884 c-6 -17 15 -37 29 -28 13 9 9 32 -7 38 -9 3 -18 -1 -22
-10z"/>
<path d="M2680 875 c0 -8 7 -15 15 -15 8 0 15 7 15 15 0 8 -7 15 -15 15 -8 0
-15 -7 -15 -15z"/>
<path d="M3341 881 c-12 -8 -10 -12 11 -22 31 -14 58 -6 58 16 0 17 -45 21
-69 6z"/>
<path d="M466 858 c3 -13 8 -25 11 -28 6 -6 143 -1 154 6 20 12 7 24 -29 24
-21 0 -43 5 -49 11 -8 8 -13 8 -17 0 -9 -14 -56 -15 -56 -1 0 6 -5 10 -11 10
-6 0 -8 -9 -3 -22z"/>
<path d="M1203 855 c-3 -9 -3 -18 0 -21 9 -9 27 6 27 22 0 19 -19 18 -27 -1z"/>
<path d="M2180 845 c0 -25 14 -34 24 -16 8 12 -3 41 -15 41 -5 0 -9 -11 -9
-25z"/>
<path d="M2442 858 c5 -15 27 -18 31 -3 1 5 -6 11 -17 13 -12 3 -17 -1 -14
-10z"/>
<path d="M680 845 c0 -14 37 -31 47 -22 8 9 -5 24 -27 30 -13 3 -20 0 -20 -8z"/>
<path d="M1282 827 c-18 -21 1 -41 27 -28 25 14 27 27 5 35 -21 8 -20 8 -32
-7z"/>
<path d="M2280 826 c0 -8 5 -18 10 -21 6 -3 10 3 10 14 0 12 -4 21 -10 21 -5
0 -10 -6 -10 -14z"/>
<path d="M2516 817 c-23 -17 -12 -43 25 -59 25 -11 29 -17 23 -40 -4 -21 -2
-28 9 -28 17 0 27 21 27 57 0 17 -4 24 -14 20 -8 -3 -22 1 -33 8 -14 11 -16
16 -5 26 27 28 2 41 -32 16z"/>
<path d="M3342 818 c5 -15 27 -18 31 -3 1 5 -6 11 -17 13 -12 3 -17 -1 -14
-10z"/>
<path d="M1057 795 c-15 -11 -15 -14 -2 -25 20 -17 110 -1 110 20 0 19 -83 23
-108 5z"/>
<path d="M1501 784 c-12 -15 -21 -31 -21 -36 0 -5 -4 -6 -10 -3 -5 3 -10 14
-10 24 0 12 -9 20 -25 23 -21 4 -25 1 -25 -18 0 -12 -4 -26 -10 -29 -5 -3 -10
-13 -10 -21 0 -13 9 -14 45 -10 36 5 45 4 45 -9 0 -27 29 -16 32 13 3 25 6 27
41 24 32 -3 37 -1 37 18 0 18 -4 21 -25 18 -19 -4 -25 -1 -25 13 0 26 -15 24
-39 -7z"/>
<path d="M3850 770 c-14 -27 -18 -46 -12 -56 7 -12 14 -4 30 35 25 61 11 78
-18 21z"/>
<path d="M2756 785 c-3 -9 0 -26 6 -38 13 -22 13 -21 16 7 4 33 -12 56 -22 31z"/>
<path d="M4177 794 c-11 -11 -8 -44 3 -44 15 0 24 30 13 41 -5 5 -12 6 -16 3z"/>
<path d="M1199 758 l-25 -31 23 -24 c16 -15 22 -30 18 -42 -3 -10 1 -24 10
-31 13 -11 15 -7 15 29 0 42 7 50 28 29 7 -7 12 -8 12 -3 0 5 6 1 13 -9 13
-18 15 -18 35 5 12 12 22 33 22 45 0 13 4 25 10 29 13 8 1 35 -16 35 -8 0 -14
-10 -14 -22 0 -16 -3 -19 -8 -10 -5 7 -25 13 -45 14 -20 1 -37 5 -37 10 0 15
-15 7 -41 -24z"/>
<path d="M4060 771 c0 -12 5 -21 10 -21 6 0 10 6 10 14 0 8 -4 18 -10 21 -5 3
-10 -3 -10 -14z"/>
<path d="M4320 769 c0 -18 2 -19 15 -9 8 7 15 16 15 21 0 5 -7 9 -15 9 -9 0
-15 -9 -15 -21z"/>
<path d="M4903 763 c-3 -10 -7 -21 -9 -24 -7 -12 37 -48 51 -43 22 9 18 34 -5
34 -24 0 -27 15 -4 24 8 3 12 10 9 16 -10 16 -35 12 -42 -7z"/>
<path d="M4960 755 c0 -14 5 -25 11 -25 5 0 9 -8 8 -17 -3 -31 1 -35 16 -19
28 28 13 86 -22 86 -7 0 -13 -11 -13 -25z"/>
<path d="M1711 761 c-19 -12 -4 -54 17 -46 8 3 19 0 23 -7 6 -10 11 -10 20 -1
8 8 7 17 -6 37 -18 27 -31 31 -54 17z"/>
<path d="M1800 756 c0 -8 11 -27 25 -42 13 -14 23 -29 22 -33 -1 -3 3 -6 8 -6
6 0 9 11 7 25 -3 19 -1 22 9 13 14 -14 39 -6 39 12 0 16 -27 27 -35 15 -9 -15
-25 -12 -25 4 0 13 -20 26 -41 26 -5 0 -9 -7 -9 -14z"/>
<path d="M2350 757 c-35 -12 -49 -46 -22 -54 6 -3 12 2 12 10 0 16 71 34 90
22 15 -9 12 -25 -5 -25 -17 0 -19 -9 -6 -28 12 -20 51 6 51 34 0 41 -60 62
-120 41z"/>
<path d="M2487 763 c-12 -11 -8 -23 8 -23 8 0 15 7 15 15 0 16 -12 20 -23 8z"/>
<path d="M1627 733 c-3 -16 -3 -30 -1 -32 8 -8 34 22 34 40 0 29 -27 22 -33
-8z"/>
<path d="M2020 753 c0 -5 4 -15 10 -23 11 -18 25 -7 17 15 -6 15 -27 21 -27 8z"/>
<path d="M2258 749 c-10 -5 -18 -21 -18 -35 0 -20 4 -25 23 -22 22 3 38 32 29
56 -5 14 -11 15 -34 1z"/>
<path d="M3410 750 c0 -5 4 -10 9 -10 6 0 13 5 16 10 3 6 -1 10 -9 10 -9 0
-16 -4 -16 -10z"/>
<path d="M1064 739 c-7 -12 27 -41 43 -35 8 3 17 6 19 6 2 0 4 6 4 14 0 15
-58 28 -66 15z"/>
<path d="M4540 736 c0 -7 -10 -24 -23 -38 -14 -15 -24 -38 -24 -57 0 -26 4
-31 24 -31 27 0 41 25 26 49 -8 13 -6 23 8 40 23 28 25 51 4 51 -8 0 -15 -6
-15 -14z"/>
<path d="M2186 724 c-3 -9 -3 -20 0 -25 9 -15 34 10 27 27 -7 19 -19 18 -27
-2z"/>
<path d="M566 709 c-15 -12 -25 -23 -22 -26 9 -9 96 -14 96 -6 0 4 -11 18 -24
30 l-24 23 -26 -21z"/>
<path d="M4770 715 c-9 -11 -10 -19 -3 -26 7 -7 14 -5 23 6 9 11 10 19 3 26
-7 7 -14 5 -23 -6z"/>
<path d="M1793 713 c-18 -7 -16 -43 2 -43 18 0 31 28 19 39 -5 5 -15 6 -21 4z"/>
<path d="M2100 710 c0 -5 5 -10 10 -10 6 0 10 5 10 10 0 6 -4 10 -10 10 -5 0
-10 -4 -10 -10z"/>
<path d="M2823 708 c-7 -8 -11 -17 -8 -20 3 -3 -1 -11 -10 -18 -16 -13 -21
-60 -6 -60 17 0 42 52 39 82 -3 27 -5 29 -15 16z"/>
<path d="M3665 711 c-6 -11 9 -23 19 -14 9 9 7 23 -3 23 -6 0 -12 -4 -16 -9z"/>
<path d="M4840 704 c0 -8 5 -12 10 -9 6 4 8 11 5 16 -9 14 -15 11 -15 -7z"/>
<path d="M2628 703 c-21 -5 -30 -28 -22 -60 6 -22 11 -24 37 -19 39 8 41 10
29 33 -7 12 -7 25 -1 36 10 18 -3 21 -43 10z"/>
<path d="M3932 698 c6 -18 28 -21 28 -4 0 9 -7 16 -16 16 -9 0 -14 -5 -12 -12z"/>
<path d="M4052 689 c-15 -24 -10 -34 13 -26 15 6 22 47 7 47 -4 0 -13 -9 -20
-21z"/>
<path d="M1403 683 c-13 -2 -23 -10 -23 -16 0 -7 -3 -22 -6 -34 -5 -17 -2 -23
10 -23 9 0 16 7 16 15 0 8 9 23 20 32 20 17 27 34 13 32 -5 -1 -18 -4 -30 -6z"/>
<path d="M2970 680 c0 -5 5 -10 11 -10 5 0 7 5 4 10 -3 6 -8 10 -11 10 -2 0
-4 -4 -4 -10z"/>
<path d="M3980 680 c0 -5 5 -10 10 -10 6 0 10 5 10 10 0 6 -4 10 -10 10 -5 0
-10 -4 -10 -10z"/>
<path d="M4590 676 c0 -8 4 -18 10 -21 5 -3 7 -18 4 -33 -3 -16 1 -35 10 -47
15 -19 17 -19 26 -3 13 21 40 13 40 -11 0 -17 18 -41 30 -41 12 0 70 57 70 68
0 28 -51 3 -63 -30 -8 -23 -16 -4 -20 47 -3 27 -9 51 -14 52 -5 2 -18 -12 -28
-32 -15 -27 -21 -31 -28 -20 -4 8 -6 19 -2 24 7 13 -12 61 -25 61 -5 0 -10 -6
-10 -14z"/>
<path d="M3120 665 c0 -17 27 -38 39 -31 6 4 8 13 5 20 -7 19 -44 28 -44 11z"/>
<path d="M1582 624 c-1 -31 2 -44 11 -41 7 2 12 9 11 15 -1 7 -2 26 -2 42 -3
48 -19 35 -20 -16z"/>
<path d="M4322 658 c7 -19 38 -22 38 -4 0 10 -9 16 -21 16 -12 0 -19 -5 -17
-12z"/>
<path d="M4370 660 c0 -5 13 -10 29 -10 17 0 33 5 36 10 4 6 -8 10 -29 10 -20
0 -36 -4 -36 -10z"/>
<path d="M3015 638 c-16 -20 -19 -20 -30 -5 -15 21 -35 22 -35 3 0 -8 13 -21
29 -29 26 -13 32 -13 50 0 21 14 28 38 13 47 -5 3 -17 -5 -27 -16z"/>
<path d="M4750 650 c0 -5 5 -10 10 -10 6 0 10 5 10 10 0 6 -4 10 -10 10 -5 0
-10 -4 -10 -10z"/>
<path d="M4800 635 c0 -14 0 -28 0 -32 0 -5 5 -10 10 -11 12 -4 29 38 23 56
-9 22 -33 13 -33 -13z"/>
<path d="M2540 635 c0 -23 40 -59 52 -47 7 7 4 19 -8 36 -21 28 -44 34 -44 11z"/>
<path d="M3350 641 c0 -6 -7 -11 -15 -11 -8 0 -15 -4 -15 -9 0 -5 16 -9 36 -9
27 0 34 4 32 16 -4 19 -38 30 -38 13z"/>
<path d="M3820 635 c-10 -12 -10 -15 4 -15 9 0 16 7 16 15 0 8 -2 15 -4 15 -2
0 -9 -7 -16 -15z"/>
<path d="M1252 624 c1 -9 9 -19 16 -22 9 -3 13 2 10 14 -1 9 -9 19 -16 22 -9
3 -13 -2 -10 -14z"/>
<path d="M4440 625 c0 -8 5 -15 10 -15 6 0 10 7 10 15 0 8 -4 15 -10 15 -5 0
-10 -7 -10 -15z"/>
<path d="M3500 604 c0 -19 5 -24 25 -24 32 0 32 22 0 37 -23 10 -25 9 -25 -13z"/>
<path d="M1187 601 c3 -12 9 -21 14 -21 14 0 11 16 -5 29 -12 10 -13 8 -9 -8z"/>
<path d="M3097 601 c-3 -12 -1 -24 4 -27 5 -3 7 -10 4 -15 -4 -5 3 -9 14 -9
14 0 21 6 21 19 0 35 18 32 30 -5 10 -30 9 -38 -6 -55 -16 -18 -16 -19 7 -19
23 0 49 35 49 64 -1 28 -39 58 -77 63 -34 4 -41 2 -46 -16z"/>
<path d="M1460 590 c0 -11 4 -20 9 -20 5 0 12 -10 16 -22 6 -20 8 -21 12 -5 7
28 -6 67 -22 67 -8 0 -15 -9 -15 -20z"/>
<path d="M3230 580 c0 -33 19 -40 40 -15 11 13 10 18 -6 30 -28 21 -34 18 -34
-15z"/>
<path d="M1860 590 c0 -5 5 -10 10 -10 6 0 10 5 10 10 0 6 -4 10 -10 10 -5 0
-10 -4 -10 -10z"/>
<path d="M2306 591 c-7 -10 6 -26 30 -39 18 -9 20 -19 19 -77 -2 -69 9 -93 24
-53 18 47 -16 162 -51 171 -10 3 -20 2 -22 -2z"/>
<path d="M1364 565 c-9 -14 -14 -28 -11 -31 9 -9 47 16 47 31 0 26 -19 26 -36
0z"/>
<path d="M2747 562 c-7 -36 -1 -40 24 -15 21 21 21 21 1 32 -17 9 -20 7 -25
-17z"/>
<path d="M4448 582 c-16 -2 -28 -8 -28 -13 0 -5 -9 -9 -20 -9 -11 0 -20 -3
-20 -7 1 -18 37 -50 63 -57 15 -3 27 -13 27 -20 0 -16 27 -29 41 -20 5 3 9 16
9 30 0 27 9 30 29 12 10 -11 12 -8 9 12 -2 15 -11 26 -22 28 -10 2 -28 14 -40
26 -14 15 -30 21 -48 18z m2 -42 c0 -5 -4 -10 -10 -10 -5 0 -10 5 -10 10 0 6
5 10 10 10 6 0 10 -4 10 -10z m40 -10 c0 -5 -2 -10 -4 -10 -3 0 -8 5 -11 10
-3 6 -1 10 4 10 6 0 11 -4 11 -10z"/>
<path d="M2400 559 c0 -24 23 -21 28 4 2 10 -3 17 -12 17 -10 0 -16 -9 -16
-21z"/>
<path d="M1880 558 c0 -7 9 -24 20 -38 18 -23 20 -23 19 -5 0 20 -21 55 -33
55 -3 0 -6 -6 -6 -12z"/>
<path d="M2897 559 c-9 -6 -17 -14 -17 -19 0 -16 30 -11 37 5 8 21 1 25 -20
14z"/>
<path d="M3937 559 c-9 -6 -17 -14 -17 -19 0 -16 37 -11 43 5 8 19 -4 26 -26
14z"/>
<path d="M2440 540 c-21 -21 -27 -50 -10 -50 6 0 13 7 16 15 4 9 14 14 23 13
10 -2 17 5 19 20 4 28 -21 29 -48 2z"/>
<path d="M2540 548 c0 -7 8 -23 18 -34 13 -17 24 -21 50 -17 18 3 32 11 32 19
0 16 -30 33 -47 27 -6 -2 -14 1 -18 6 -9 15 -35 14 -35 -1z"/>
<path d="M2665 548 c-4 -10 -4 -25 -1 -34 5 -13 9 -14 22 -4 8 7 11 16 6 19
-5 3 -11 13 -14 21 -5 13 -7 12 -13 -2z"/>
<path d="M1673 531 c-3 -14 -13 -21 -29 -21 -17 0 -22 -4 -18 -15 8 -21 37
-19 57 3 20 21 22 38 6 47 -6 4 -13 -2 -16 -14z"/>
<path d="M3710 535 c0 -8 5 -15 10 -15 6 0 10 7 10 15 0 8 -4 15 -10 15 -5 0
-10 -7 -10 -15z"/>
<path d="M4218 525 c-3 -15 -1 -25 6 -24 6 1 19 -1 30 -6 12 -5 21 -3 27 6 7
9 8 5 3 -13 -5 -22 -3 -28 10 -28 21 0 21 47 1 74 -9 12 -15 15 -15 7 0 -12
-4 -12 -46 6 -6 2 -14 -7 -16 -22z"/>
<path d="M4330 536 c0 -9 5 -16 10 -16 6 0 10 4 10 9 0 6 -4 13 -10 16 -5 3
-10 -1 -10 -9z"/>
<path d="M4143 530 c-24 -10 -30 -25 -13 -35 18 -11 50 6 50 26 0 21 -4 22
-37 9z"/>
<path d="M4952 526 c9 -8 18 -21 21 -28 2 -7 8 -9 13 -5 12 11 -9 41 -31 46
-17 3 -17 2 -3 -13z"/>
<path d="M1772 510 c-15 -24 -16 -50 -2 -50 10 0 30 41 30 61 0 16 -15 10 -28
-11z"/>
<path d="M1212 508 c-15 -15 -16 -58 -2 -58 10 0 30 41 30 61 0 13 -14 11 -28
-3z"/>
<path d="M3224 507 c-9 -25 0 -100 14 -105 8 -3 12 12 12 52 0 53 -14 83 -26
53z"/>
<path d="M4000 506 c0 -8 -6 -16 -12 -19 -23 -8 -1 -18 26 -11 21 5 24 9 15
25 -11 22 -29 25 -29 5z"/>
<path d="M4650 506 c0 -21 21 -31 30 -15 5 7 6 17 4 21 -9 14 -34 9 -34 -6z"/>
<path d="M4780 508 c0 -7 5 -20 10 -28 8 -12 10 -9 10 13 0 15 -4 27 -10 27
-5 0 -10 -6 -10 -12z"/>
<path d="M1250 491 c-15 -29 -13 -31 25 -31 38 0 45 15 18 36 -24 18 -31 17
-43 -5z"/>
<path d="M1360 494 c0 -17 22 -14 28 4 2 7 -3 12 -12 12 -9 0 -16 -7 -16 -16z"/>
<path d="M1475 500 c4 -6 11 -8 16 -5 14 9 11 15 -7 15 -8 0 -12 -5 -9 -10z"/>
<path d="M2013 480 c0 -31 14 -39 35 -18 20 20 14 43 -11 46 -20 1 -24 -3 -24
-28z"/>
<path d="M2180 500 c0 -5 -13 -7 -30 -3 -23 4 -30 2 -30 -11 0 -9 -8 -16 -17
-16 -15 0 -14 -2 4 -15 18 -13 25 -13 49 0 23 12 46 55 29 55 -3 0 -5 -4 -5
-10z"/>
<path d="M4831 497 c-6 -8 -8 -17 -4 -20 7 -8 33 11 33 24 0 13 -16 11 -29 -4z"/>
<path d="M2256 493 c-12 -12 -6 -33 9 -33 8 0 15 6 15 14 0 17 -14 28 -24 19z"/>
<path d="M3070 487 c0 -6 4 -27 9 -45 9 -28 7 -32 -10 -32 -11 0 -22 -7 -26
-15 -8 -23 2 -28 29 -14 12 7 29 12 36 11 19 -4 14 22 -9 52 -18 23 -18 27 -5
32 23 9 20 24 -4 24 -11 0 -20 -6 -20 -13z"/>
<path d="M4582 483 c4 -22 48 -31 48 -10 0 14 -20 27 -42 27 -5 0 -8 -8 -6
-17z"/>
<path d="M3880 483 c-50 -8 -56 -13 -30 -27 21 -10 29 -10 48 2 21 14 31 34
15 31 -5 -1 -19 -4 -33 -6z"/>
<path d="M1880 470 c0 -5 -6 -10 -14 -10 -18 0 -29 -16 -21 -30 8 -13 35 -1
35 16 0 8 5 14 10 14 6 0 10 5 10 10 0 6 -4 10 -10 10 -5 0 -10 -4 -10 -10z"/>
<path d="M2889 473 c-1 -5 -2 -12 -4 -18 -1 -5 -3 -15 -3 -21 -3 -18 -51 -24
-54 -7 -2 12 -8 11 -26 -5 -14 -12 -19 -23 -12 -27 5 -3 10 -15 10 -26 0 -12
7 -19 20 -19 12 0 20 7 20 17 0 15 1 15 18 0 23 -21 32 -13 32 29 0 18 5 36
10 39 6 3 10 15 10 26 0 18 -19 28 -21 12z"/>
<path d="M2985 471 c-6 -11 9 -23 19 -14 9 9 7 23 -3 23 -6 0 -12 -4 -16 -9z"/>
<path d="M3360 466 c0 -14 29 -31 38 -22 2 3 2 12 -1 21 -8 19 -37 20 -37 1z"/>
<path d="M3562 468 c6 -18 28 -21 28 -4 0 9 -7 16 -16 16 -9 0 -14 -5 -12 -12z"/>
<path d="M4135 470 c-3 -5 1 -10 9 -10 9 0 16 5 16 10 0 6 -4 10 -9 10 -6 0
-13 -4 -16 -10z"/>
<path d="M4858 466 c-16 -12 -16 -15 7 -46 14 -19 25 -40 25 -47 0 -7 10 -17
22 -24 18 -10 20 -9 15 6 -4 9 -7 28 -7 42 0 17 -7 27 -21 30 -16 4 -19 11
-15 29 7 27 -1 30 -26 10z"/>
<path d="M1632 457 c-10 -11 -9 -17 3 -27 22 -18 39 0 22 24 -11 15 -15 16
-25 3z"/>
<path d="M2513 445 c4 -34 13 -39 37 -22 22 15 15 27 -23 40 -14 5 -17 2 -14
-18z"/>
<path d="M2716 451 c-17 -19 -15 -41 4 -41 5 0 16 14 25 30 13 25 13 30 2 30
-8 0 -22 -9 -31 -19z"/>
<path d="M2840 459 c0 -5 5 -7 10 -4 6 3 10 8 10 11 0 2 -4 4 -10 4 -5 0 -10
-5 -10 -11z"/>
<path d="M3480 461 c0 -5 -3 -16 -6 -25 -7 -17 3 -20 24 -8 7 5 10 16 6 25 -7
18 -24 23 -24 8z"/>
<path d="M3535 450 c-7 -12 2 -30 16 -30 5 0 9 9 9 20 0 21 -15 27 -25 10z"/>
<path d="M2190 436 c0 -16 28 -42 36 -33 8 7 -14 47 -26 47 -6 0 -10 -6 -10
-14z"/>
<path d="M2641 439 c-19 -8 -21 -12 -11 -24 11 -14 15 -14 31 1 33 30 24 41
-20 23z"/>
<path d="M3156 418 c-3 -17 -2 -36 4 -42 16 -16 12 -26 -12 -35 -14 -5 -28 -5
-36 2 -10 8 -14 5 -18 -11 -4 -12 -11 -19 -20 -15 -19 7 -18 -12 3 -28 14 -13
13 -15 -13 -19 -21 -4 -29 -11 -29 -25 0 -11 -5 -19 -11 -18 -15 3 -12 -40 4
-50 6 -4 12 -14 12 -21 0 -8 7 -17 16 -20 23 -9 24 -8 24 14 0 13 -7 20 -20
20 -11 0 -20 5 -20 11 0 7 11 8 30 4 23 -5 30 -3 30 9 0 9 8 16 19 16 23 0 31
29 21 75 -7 30 -6 34 6 24 10 -8 14 -8 14 0 0 6 7 11 15 11 22 0 28 22 15 55
-7 19 -8 31 0 39 16 16 12 36 -9 36 -13 0 -20 -10 -25 -32z"/>
<path d="M3320 435 c0 -21 17 -45 32 -45 13 0 9 13 -12 40 -18 23 -20 24 -20
5z"/>
<path d="M1180 432 c0 -9 53 -42 67 -42 5 0 3 14 -5 27 -10 16 -62 28 -62 15z"/>
<path d="M1354 429 c-11 -18 -14 -108 -5 -114 9 -5 26 114 18 122 -3 2 -9 -1
-13 -8z"/>
<path d="M1493 426 c-32 -15 -29 -26 7 -26 19 0 30 5 30 14 0 21 -11 24 -37
12z"/>
<path d="M3575 431 c-3 -5 -1 -12 5 -16 5 -3 10 1 10 9 0 18 -6 21 -15 7z"/>
<path d="M3970 426 c0 -24 16 -27 35 -6 18 19 17 20 -8 20 -17 0 -27 -5 -27
-14z"/>
<path d="M4711 405 c-18 -20 -30 -43 -27 -51 8 -21 24 -17 32 8 3 12 16 30 28
39 15 13 18 21 10 28 -7 8 -20 1 -43 -24z"/>
<path d="M4817 433 c-11 -10 -8 -20 9 -38 13 -13 19 -14 25 -4 14 23 -16 61
-34 42z"/>
<path d="M1393 415 c-3 -9 -3 -18 0 -22 10 -10 37 6 37 22 0 20 -29 20 -37 0z"/>
<path d="M1593 423 c-15 -6 -17 -43 -3 -43 12 0 24 25 18 38 -1 5 -9 7 -15 5z"/>
<path d="M2420 415 c0 -8 5 -15 10 -15 6 0 10 7 10 15 0 8 -4 15 -10 15 -5 0
-10 -7 -10 -15z"/>
<path d="M3690 415 c0 -8 5 -15 10 -15 6 0 10 -4 10 -10 0 -5 -7 -10 -15 -10
-24 0 -17 -26 10 -38 14 -6 25 -16 25 -22 0 -5 5 -10 10 -10 6 0 10 9 10 20 0
25 20 26 27 1 5 -18 6 -18 45 1 30 15 37 23 29 31 -8 8 -19 8 -41 0 -28 -11
-30 -10 -30 13 0 13 -4 24 -10 24 -5 0 -10 -4 -10 -10 0 -21 -28 -9 -34 15 -7
27 -36 35 -36 10z"/>
<path d="M4390 412 c0 -10 -5 -23 -10 -28 -12 -12 -2 -47 11 -38 5 3 9 16 9
29 0 13 5 27 10 30 15 9 12 25 -5 25 -8 0 -15 -8 -15 -18z"/>
<path d="M3930 405 c0 -8 9 -19 19 -25 28 -15 30 -13 18 15 -13 27 -37 34 -37
10z"/>
<path d="M4270 410 c0 -13 18 -22 24 -11 3 5 -1 11 -9 15 -8 3 -15 1 -15 -4z"/>
<path d="M2666 391 c-15 -17 -16 -19 -1 -25 9 -3 21 -3 26 0 6 3 15 1 22 -4
16 -13 65 -19 69 -8 2 4 -15 15 -37 24 -22 9 -41 19 -43 24 -6 13 -18 9 -36
-11z"/>
<path d="M2927 383 c-3 -16 -9 -37 -13 -48 l-7 -20 21 20 c27 26 40 75 19 75
-8 0 -17 -12 -20 -27z"/>
<path d="M3269 383 c-10 -18 -16 -50 -15 -90 1 -67 -8 -83 -17 -33 -5 21 -12
30 -27 30 -11 0 -20 -7 -20 -15 0 -8 5 -15 10 -15 6 0 10 -10 10 -23 0 -12 11
-30 24 -40 17 -13 22 -25 18 -42 -3 -20 0 -25 15 -25 10 0 28 -6 39 -14 28
-20 47 -6 38 27 -6 28 -39 38 -47 15 -2 -7 -8 -9 -13 -5 -5 5 5 21 24 36 17
15 32 35 32 44 0 15 3 15 20 5 26 -16 25 -23 -2 -35 -22 -10 -22 -11 12 -20
42 -12 65 1 37 21 -10 8 -15 20 -11 30 3 9 1 16 -5 16 -6 0 -11 5 -11 10 0 6
10 8 23 5 32 -8 51 8 43 38 -8 32 -36 44 -52 22 -11 -15 -13 -14 -16 7 -4 30
-34 31 -31 2 2 -16 -5 -24 -23 -28 -35 -9 -39 -3 -37 55 1 27 1 49 0 49 -2 0
-10 -12 -18 -27z m41 -123 c0 -5 -7 -10 -16 -10 -8 0 -12 5 -9 10 3 6 10 10
16 10 5 0 9 -4 9 -10z"/>
<path d="M3597 396 c-6 -15 1 -26 15 -26 11 0 10 27 -1 34 -5 3 -11 0 -14 -8z"/>
<path d="M4037 403 c-4 -3 -7 -13 -7 -21 0 -12 3 -12 15 -2 8 7 15 16 15 21 0
11 -14 12 -23 2z"/>
<path d="M4092 373 c1 -16 6 -34 11 -41 6 -7 7 -15 3 -19 -3 -4 -13 2 -21 13
-10 13 -17 16 -22 7 -5 -6 -20 -14 -35 -18 -14 -4 -28 -15 -31 -26 -6 -23 11
-36 19 -14 5 11 10 13 19 5 9 -8 14 -6 19 6 5 13 9 14 21 4 16 -14 34 -5 67
35 l18 20 6 -22 c8 -27 19 -29 33 -5 12 21 23 18 33 -8 5 -12 13 -17 23 -14
17 7 21 44 4 44 -7 0 -18 8 -25 18 -13 16 -15 16 -28 -1 -12 -15 -14 -16 -20
-2 -6 17 -36 21 -36 5 0 -5 -7 -10 -15 -10 -9 0 -15 9 -15 25 0 15 -6 25 -15
25 -10 0 -14 -9 -13 -27z"/>
<path d="M4580 350 c0 -35 4 -50 13 -50 9 0 13 15 13 50 0 35 -4 50 -13 50 -9
0 -13 -15 -13 -50z"/>
<path d="M4760 385 c0 -8 7 -15 15 -15 8 0 15 7 15 15 0 8 -7 15 -15 15 -8 0
-15 -7 -15 -15z"/>
<path d="M1193 370 c-3 -11 -9 -20 -14 -20 -5 0 -9 -7 -9 -15 0 -8 6 -15 14
-15 17 0 49 47 41 60 -10 16 -27 11 -32 -10z"/>
<path d="M2415 380 c-9 -15 4 -30 26 -30 11 0 17 -4 14 -10 -3 -5 1 -10 9 -10
20 0 32 40 15 51 -19 12 -56 11 -64 -1z"/>
<path d="M1542 369 c2 -7 10 -15 17 -17 8 -3 12 1 9 9 -2 7 -10 15 -17 17 -8
3 -12 -1 -9 -9z"/>
<path d="M2980 366 c0 -15 18 -31 26 -23 7 7 -7 37 -17 37 -5 0 -9 -6 -9 -14z"/>
<path d="M4846 371 c-9 -14 5 -42 18 -38 18 6 20 47 2 47 -8 0 -17 -4 -20 -9z"/>
<path d="M2182 356 c-4 -6 -7 -20 -8 -31 0 -11 -3 -31 -7 -45 -4 -14 -4 -19
-1 -12 3 6 15 12 26 12 15 0 19 5 15 20 -7 28 20 26 29 -2 6 -21 7 -21 20 -3
8 10 15 17 16 14 14 -22 38 -68 38 -72 0 -3 -9 -7 -20 -10 -12 -3 -20 -14 -20
-25 0 -13 -9 -22 -26 -26 -21 -6 -24 -9 -14 -21 7 -8 19 -15 26 -15 8 0 11 -6
8 -15 -8 -19 -34 -20 -34 -1 0 16 -42 46 -64 46 -7 0 -16 7 -20 15 -7 18 -32
20 -39 3 -3 -8 -6 -6 -6 5 -1 9 -5 17 -11 17 -5 0 -10 7 -10 17 0 15 2 15 19
-1 22 -20 56 -18 56 4 0 8 -14 17 -34 21 -28 6 -37 3 -51 -14 -10 -12 -15 -27
-13 -34 3 -7 -2 -13 -11 -13 -12 0 -16 10 -16 39 0 46 -5 51 -43 44 -23 -5
-27 -10 -27 -39 0 -40 -35 -83 -53 -65 -6 6 -20 11 -30 11 -15 0 -18 -5 -14
-21 5 -19 4 -19 -16 -6 -20 12 -97 32 -97 25 0 -2 -7 -21 -15 -43 -14 -39 -14
-39 -15 -10 0 17 5 36 11 42 13 13 4 33 -16 33 -13 0 -19 -20 -28 -90 -2 -21
-8 -15 -32 37 -18 37 -36 62 -46 63 -9 0 -19 3 -23 7 -8 8 -14 10 -47 12 -11
0 -17 6 -14 11 4 6 10 8 14 5 5 -2 16 2 26 9 17 12 16 14 -11 27 -26 13 -31
13 -45 -2 -18 -18 -15 -63 4 -87 11 -14 7 -18 -36 -43 -12 -7 -15 -17 -11 -36
7 -25 7 -25 -20 -8 -14 10 -26 25 -26 35 0 10 -5 20 -12 22 -18 6 -68 -21 -68
-37 0 -7 -4 -15 -8 -17 -5 -1 -7 -19 -4 -40 3 -26 10 -38 25 -42 12 -3 24 -1
27 5 4 5 14 7 23 3 27 -10 43 7 22 22 -24 17 -17 24 13 13 12 -5 22 -15 22
-22 0 -9 10 -14 26 -14 26 0 29 12 10 57 -3 8 3 26 14 40 l20 25 -6 -52 c-4
-36 -3 -58 6 -68 18 -22 30 -9 24 28 -3 25 -2 28 5 12 5 -11 10 -32 10 -47 1
-27 21 -41 21 -15 0 8 3 7 10 -3 8 -13 11 -12 23 4 9 12 19 16 27 11 7 -4 16
-2 20 5 6 9 10 7 15 -9 5 -18 14 -21 58 -20 29 1 44 3 35 6 -38 10 -9 51 63
91 27 15 40 17 48 9 18 -18 13 -28 -11 -22 -13 3 -31 0 -41 -7 -19 -15 -41
-78 -26 -78 5 0 9 5 9 10 0 6 9 10 19 10 11 0 23 5 27 11 4 8 9 7 14 -2 7 -10
12 -10 23 -1 12 10 16 10 20 -2 5 -11 -4 -16 -36 -19 -32 -3 -29 -4 15 -4 31
0 55 4 52 8 -2 4 0 10 6 14 5 3 10 0 10 -8 0 -11 15 -14 73 -11 39 2 83 4 97
4 14 1 37 -1 51 -3 25 -5 26 -3 24 38 l-1 42 33 -33 c18 -18 33 -38 33 -44 0
-5 7 -10 15 -10 8 0 15 6 15 13 0 7 3 8 8 2 4 -5 33 -11 65 -12 54 -3 57 -2
57 22 0 13 9 40 21 60 30 51 15 115 -27 115 -2 0 -14 -21 -25 -46 -24 -51 -44
-47 -44 9 0 25 -4 31 -17 29 -12 -2 -16 4 -16 20 3 54 -2 78 -18 78 -9 0 -14
6 -11 13 2 6 11 10 18 8 8 -2 26 -6 40 -8 23 -4 26 -2 27 29 1 30 -1 31 -13
15 -9 -13 -14 -15 -17 -5 -4 11 -8 11 -20 0 -11 -9 -23 -10 -42 -2 -14 5 -33
7 -41 4 -8 -4 -15 -2 -15 4 0 14 -49 21 -58 8z m-178 -143 c-5 -19 -2 -30 11
-39 10 -8 15 -17 11 -21 -3 -4 -16 2 -27 13 -15 15 -18 28 -14 47 4 15 11 27
16 27 5 0 6 -12 3 -27z m311 -2 c3 -5 1 -12 -5 -16 -5 -3 -10 1 -10 9 0 18 6
21 15 7z m-706 -51 l15 -25 -21 19 c-14 12 -32 17 -48 14 -17 -4 -25 -1 -25 9
0 25 60 12 79 -17z m507 7 c33 6 34 5 34 -30 0 -25 -8 -44 -29 -66 -26 -27
-35 -31 -76 -29 -42 3 -45 5 -40 26 3 13 1 22 -6 22 -6 0 -19 -10 -30 -22
l-19 -23 -6 22 c-3 13 -10 23 -15 23 -5 0 -9 7 -9 15 0 9 9 15 25 15 18 0 23
4 19 15 -4 8 -1 15 5 15 6 0 11 -3 11 -7 0 -5 16 -19 35 -31 35 -24 61 -22 51
5 -3 8 -3 27 1 41 3 15 8 22 10 15 3 -7 17 -10 39 -6z m208 -13 c11 -4 14 -13
10 -30 -4 -14 -2 -24 5 -24 5 0 15 -9 21 -21 11 -20 11 -20 -13 -5 -13 9 -26
13 -30 10 -8 -9 -39 55 -32 66 7 12 17 12 39 4z m-697 -46 c-3 -8 -6 -5 -6 6
-1 11 2 17 5 13 3 -3 4 -12 1 -19z m153 -2 c0 -3 -4 -8 -10 -11 -5 -3 -10 -1
-10 4 0 6 5 11 10 11 6 0 10 -2 10 -4z m394 -31 c3 -8 1 -15 -3 -15 -5 0 -11
7 -15 15 -3 8 -1 15 3 15 5 0 11 -7 15 -15z"/>
<path d="M2526 363 c-3 -4 -6 -22 -6 -40 0 -51 -14 -71 -50 -69 -17 1 -35 7
-39 14 -9 15 -81 6 -81 -9 0 -16 44 -28 58 -16 9 7 18 4 33 -11 11 -12 24 -22
29 -22 15 0 25 -55 22 -110 -3 -30 -8 -49 -15 -47 -7 1 -13 -10 -15 -25 -3
-23 1 -28 17 -28 13 0 21 7 21 18 1 16 1 16 14 -1 19 -25 86 -24 86 2 0 12 -9
21 -26 25 -23 6 -25 10 -19 44 6 39 27 62 57 62 13 0 18 8 18 28 0 34 -11 50
-40 65 -29 15 -38 37 -15 37 12 0 15 6 10 23 -11 33 9 10 39 -46 17 -31 26
-64 26 -93 0 -25 5 -54 10 -64 8 -15 5 -25 -15 -46 -42 -45 -27 -75 16 -35 19
17 21 32 22 147 1 94 -1 128 -11 132 -6 2 -12 -3 -12 -12 0 -22 -20 -20 -20 2
0 9 -7 25 -14 34 -14 20 -91 50 -100 41z m34 -48 c0 -9 -6 -12 -15 -9 -8 4
-15 10 -15 15 0 5 7 9 15 9 8 0 15 -7 15 -15z m6 -112 c-7 -7 -26 7 -26 19 0
6 6 6 15 -2 9 -7 13 -15 11 -17z m-46 1 c0 -8 -4 -12 -10 -9 -5 3 -10 10 -10
16 0 5 5 9 10 9 6 0 10 -7 10 -16z"/>
<path d="M4330 351 c0 -22 16 -36 24 -22 8 12 -3 41 -15 41 -5 0 -9 -9 -9 -19z"/>
<path d="M4532 358 c-16 -16 -15 -40 3 -64 13 -18 14 -15 15 29 0 51 0 53 -18
35z"/>
<path d="M4805 350 c-8 -12 16 -50 32 -50 16 0 17 15 3 41 -12 21 -25 25 -35
9z"/>
<path d="M1263 308 c3 -23 13 -47 21 -54 9 -6 16 -23 16 -37 0 -14 4 -28 8
-31 19 -11 28 13 28 69 -1 50 -4 60 -20 63 -16 3 -18 0 -12 -25 7 -28 7 -28
-9 -6 -8 12 -15 26 -14 30 3 19 -2 33 -12 33 -8 0 -10 -14 -6 -42z"/>
<path d="M1648 339 c-10 -5 -18 -14 -18 -19 0 -5 8 -11 18 -13 14 -4 15 -5 1
-6 -9 0 -19 -10 -22 -21 -4 -17 -1 -19 26 -17 41 3 80 47 42 47 -8 0 -14 3
-14 8 5 32 -5 38 -33 21z"/>
<path d="M3940 319 c0 -12 5 -19 12 -17 18 6 20 25 3 31 -10 5 -15 0 -15 -14z"/>
<path d="M4775 330 c3 -5 8 -10 11 -10 2 0 4 5 4 10 0 6 -5 10 -11 10 -5 0 -7
-4 -4 -10z"/>
<path d="M781 316 c-8 -10 -9 -16 -1 -21 13 -8 30 3 30 21 0 18 -14 18 -29 0z"/>
<path d="M1750 315 c0 -8 15 -12 40 -12 26 0 40 4 40 13 0 8 -14 13 -40 12
-25 0 -40 -5 -40 -13z"/>
<path d="M3020 300 c0 -16 5 -30 10 -30 6 0 10 14 10 30 0 17 -4 30 -10 30 -5
0 -10 -13 -10 -30z"/>
<path d="M3469 326 c0 -1 -2 -18 -4 -38 -2 -31 1 -38 16 -38 17 0 25 20 20 55
-1 6 8 -1 19 -14 17 -19 18 -26 8 -34 -10 -7 -9 -8 3 -4 9 3 21 1 27 -5 8 -8
13 -7 18 6 10 26 -41 75 -77 74 -16 -1 -29 -1 -30 -2z"/>
<path d="M3590 325 c0 -4 14 -20 30 -37 30 -29 32 -30 45 -12 17 24 11 34 -15
27 -14 -4 -20 -1 -18 8 2 8 -7 15 -19 17 -13 2 -23 0 -23 -3z"/>
<path d="M4480 313 c0 -9 -8 -25 -17 -35 -15 -17 -15 -20 -3 -28 23 -15 27
-12 34 21 9 44 8 59 -4 59 -5 0 -10 -8 -10 -17z"/>
<path d="M4880 310 c0 -13 7 -20 19 -20 25 0 38 20 20 31 -23 15 -39 10 -39
-11z"/>
<path d="M1440 307 c0 -14 20 -37 32 -37 4 0 8 11 8 25 0 18 -5 25 -20 25 -11
0 -20 -6 -20 -13z"/>
<path d="M1908 313 c7 -3 16 -2 19 1 4 3 -2 6 -13 5 -11 0 -14 -3 -6 -6z"/>
<path d="M2778 306 c-38 -29 -3 -91 38 -68 14 8 12 10 -10 16 -28 7 -36 26
-11 26 8 0 15 9 15 20 0 23 -8 25 -32 6z"/>
<path d="M2985 308 c-9 -22 4 -43 17 -30 7 7 7 16 0 29 -10 17 -11 17 -17 1z"/>
<path d="M1370 296 c-15 -19 -5 -36 21 -36 22 0 25 22 5 39 -10 9 -16 8 -26
-3z"/>
<path d="M2880 296 c0 -8 15 -16 37 -19 42 -7 48 -4 39 19 -5 13 -9 14 -20 5
-10 -8 -16 -9 -21 -1 -9 15 -35 12 -35 -4z"/>
<path d="M3816 301 c-4 -7 -5 -15 -2 -18 9 -9 19 4 14 18 -4 11 -6 11 -12 0z"/>
<path d="M1171 271 c-12 -21 -5 -32 15 -24 16 6 19 43 4 43 -5 0 -14 -8 -19
-19z"/>
<path d="M4572 278 c-6 -7 -14 -27 -18 -43 -6 -26 -5 -28 8 -17 16 13 33 60
25 68 -2 3 -9 -1 -15 -8z"/>
<path d="M3681 271 c-17 -11 -7 -45 12 -39 13 5 23 48 10 48 -4 0 -14 -4 -22
-9z"/>
<path d="M4680 270 c0 -5 5 -10 10 -10 6 0 10 5 10 10 0 6 -4 10 -10 10 -5 0
-10 -4 -10 -10z"/>
<path d="M1857 243 c-7 -36 3 -51 18 -29 13 17 9 56 -5 56 -4 0 -10 -12 -13
-27z"/>
<path d="M2194 249 c-16 -18 -13 -69 4 -69 17 1 52 46 52 69 0 18 -39 19 -56
0z"/>
<path d="M4637 252 c-10 -10 -17 -24 -17 -30 0 -19 28 -14 40 7 21 41 6 55
-23 23z"/>
<path d="M1418 237 c-33 -27 -36 -47 -8 -47 11 0 26 12 35 30 25 48 17 53 -27
17z"/>
<path d="M3772 248 c4 -16 29 -37 44 -38 11 0 29 29 22 35 -2 2 -18 6 -36 10
-24 5 -32 3 -30 -7z"/>
<path d="M3141 199 c-12 -27 -26 -49 -32 -49 -15 0 -28 -43 -17 -57 11 -14
-10 -21 -66 -22 -46 -1 -70 -18 -56 -41 7 -12 13 -13 28 -4 12 8 24 9 36 2 12
-7 22 -6 33 4 9 7 14 8 11 3 -4 -6 -3 -17 2 -25 14 -22 65 11 65 42 0 14 6 23
15 23 9 0 15 9 15 22 0 11 3 24 7 28 4 4 3 18 -3 32 -12 32 -12 33 6 33 21 0
19 22 -4 42 -18 16 -20 14 -40 -33z m6 -95 c-3 -3 -12 -4 -19 -1 -8 3 -5 6 6
6 11 1 17 -2 13 -5z"/>
<path d="M3900 215 c0 -14 -1 -28 -2 -32 -2 -5 7 -9 18 -11 33 -5 38 33 8 53
-23 15 -24 15 -24 -10z"/>
<path d="M756 214 c-4 -10 0 -25 10 -35 11 -12 14 -27 10 -43 -3 -14 -1 -28 5
-31 6 -4 8 -18 5 -31 -4 -14 -2 -24 4 -24 6 0 10 -6 9 -12 -3 -28 2 -38 21
-38 11 0 20 7 20 15 0 17 16 20 25 5 4 -6 11 -8 16 -5 5 4 9 1 9 -4 0 -6 3
-11 8 -11 4 0 6 20 4 45 -3 34 -11 52 -35 75 -27 26 -30 33 -19 50 19 31 15
60 -8 60 -20 0 -26 -17 -21 -67 1 -13 -3 -23 -9 -23 -11 0 -13 8 -14 55 -1 33
-29 47 -40 19z m94 -125 c0 -11 -27 -12 -34 0 -3 4 -3 11 0 14 8 8 34 -3 34
-14z"/>
<path d="M1767 223 c-10 -9 13 -33 30 -33 10 0 13 6 9 16 -3 9 -6 18 -6 20 0
7 -26 5 -33 -3z"/>
<path d="M2795 213 c-28 -14 -74 -87 -62 -100 9 -8 27 7 27 23 0 8 7 14 15 14
8 0 15 9 15 20 0 17 4 19 28 14 15 -4 33 -11 40 -17 10 -8 16 -7 22 3 12 19 1
33 -21 27 -14 -4 -19 0 -19 14 0 22 -4 22 -45 2z"/>
<path d="M2942 213 c2 -10 14 -19 26 -21 21 -3 22 -1 12 17 -13 26 -43 28 -38
4z"/>
<path d="M3690 200 c0 -11 -4 -20 -10 -20 -5 0 -10 -8 -10 -19 0 -15 7 -18 33
-17 35 2 37 7 19 49 -13 32 -32 36 -32 7z"/>
<path d="M3740 200 c0 -11 2 -20 4 -20 2 0 11 -3 19 -6 26 -10 27 23 1 35 -21
9 -24 8 -24 -9z"/>
<path d="M695 201 c-3 -5 -1 -12 5 -16 12 -7 30 2 30 16 0 12 -27 12 -35 0z"/>
<path d="M3465 200 c3 -5 8 -10 11 -10 2 0 4 5 4 10 0 6 -5 10 -11 10 -5 0 -7
-4 -4 -10z"/>
<path d="M1214 176 c-9 -24 0 -61 16 -64 12 -2 15 6 12 38 -4 40 -18 53 -28
26z"/>
<path d="M2710 171 c0 -12 6 -21 16 -21 9 0 14 7 12 17 -5 25 -28 28 -28 4z"/>
<path d="M2936 167 c8 -27 5 -24 29 -29 33 -5 29 26 -5 39 -29 11 -31 10 -24
-10z"/>
<path d="M1256 165 c-4 -11 0 -22 11 -31 15 -11 19 -10 21 3 2 8 -3 22 -11 30
-12 13 -15 12 -21 -2z"/>
<path d="M500 155 c0 -8 5 -15 10 -15 6 0 10 7 10 15 0 8 -4 15 -10 15 -5 0
-10 -7 -10 -15z"/>
<path d="M630 138 c-23 -20 -30 -34 -25 -46 13 -31 17 -62 8 -62 -5 0 -15 21
-22 47 -13 43 -26 62 -42 63 -13 0 -8 -113 6 -127 8 -8 15 -10 15 -4 0 6 7 11
15 11 8 0 15 -4 15 -10 0 -5 7 -10 15 -10 8 0 15 7 15 16 0 12 6 15 25 10 19
-5 25 -2 25 9 0 9 -11 20 -25 25 -29 11 -34 40 -6 40 12 0 23 9 27 22 l7 23 8
-23 c5 -13 6 -35 3 -49 -5 -20 -1 -30 22 -49 30 -24 64 -32 64 -14 0 5 -16 25
-36 44 -30 29 -35 38 -25 50 16 19 9 31 -28 49 -28 14 -31 13 -61 -15z"/>
<path d="M3210 146 c0 -13 -3 -31 -6 -40 -4 -11 0 -16 14 -16 27 0 31 8 25 48
-6 38 -33 44 -33 8z"/>
<path d="M3462 159 c-28 -11 -20 -29 12 -29 22 0 46 17 46 32 0 10 -29 9 -58
-3z"/>
<path d="M3794 156 c-4 -10 -2 -22 4 -28 8 -8 13 -7 18 6 4 10 2 22 -4 28 -8
8 -13 7 -18 -6z"/>
<path d="M3372 144 c1 -9 9 -19 16 -22 9 -3 13 2 10 14 -1 9 -9 19 -16 22 -9
3 -13 -2 -10 -14z"/>
<path d="M2942 118 c-16 -16 -15 -28 2 -28 19 0 27 13 17 28 -5 9 -10 9 -19 0z"/>
<path d="M0 109 c0 -5 4 -7 10 -4 5 3 10 8 10 11 0 2 -4 4 -10 4 -5 0 -10 -5
-10 -11z"/>
<path d="M3548 91 c-8 -11 -20 -19 -28 -19 -8 1 -24 0 -35 -1 -17 -2 -16 -4 8
-17 15 -8 27 -19 27 -24 0 -6 7 -10 15 -10 8 0 15 9 15 19 0 10 7 21 15 25 17
6 20 32 6 41 -5 3 -16 -3 -23 -14z"/>
<path d="M476 87 c-27 -20 -17 -51 17 -55 26 -3 28 -1 25 29 -3 37 -16 45 -42
26z"/>
<path d="M2823 92 c-17 -11 1 -36 20 -29 10 4 17 -2 21 -19 7 -25 36 -34 36
-10 0 13 -47 66 -59 66 -3 0 -11 -4 -18 -8z"/>
<path d="M1235 79 c-8 -12 11 -29 33 -29 19 0 10 34 -10 38 -9 2 -19 -2 -23
-9z"/>
<path d="M2777 78 c-8 -22 11 -58 32 -58 11 0 26 -3 35 -6 10 -4 16 -1 16 9 0
8 -13 20 -30 26 -16 5 -30 17 -30 25 0 19 -16 21 -23 4z"/>
<path d="M3740 57 c0 -12 -9 -28 -20 -35 -18 -11 -20 -10 -20 13 0 18 -5 25
-20 25 -26 0 -25 -14 2 -40 31 -28 111 -25 116 4 3 12 -5 27 -19 37 -32 24
-39 24 -39 -4z"/>
<path d="M3360 64 c0 -12 21 -44 29 -44 21 0 18 28 -5 39 -13 6 -24 8 -24 5z"/>
<path d="M3580 53 c1 -27 25 -53 49 -53 20 0 21 1 7 16 -9 8 -21 24 -26 35
-13 24 -30 25 -30 2z"/>
<path d="M2700 30 c0 -21 4 -30 13 -28 6 3 12 15 12 28 0 13 -6 25 -12 28 -9
2 -13 -7 -13 -28z"/>
<path d="M3300 30 c0 -5 5 -10 10 -10 6 0 10 5 10 10 0 6 -4 10 -10 10 -5 0
-10 -4 -10 -10z"/>
<path d="M3819 14 c-9 -12 -3 -14 35 -14 25 0 46 5 46 10 0 11 -3 12 -43 15
-15 1 -32 -4 -38 -11z"/>
<path d="M2238 3 c6 -2 18 -2 25 0 6 3 1 5 -13 5 -14 0 -19 -2 -12 -5z"/>
</g>
</svg>
