<?xml version="1.0" standalone="no"?>
<!DOCTYPE svg PUBLIC "-//W3C//DTD SVG 20010904//EN"
 "http://www.w3.org/TR/2001/REC-SVG-20010904/DTD/svg10.dtd">
<svg version="1.0" xmlns="http://www.w3.org/2000/svg"
 width="344.000000pt" height="256.000000pt" viewBox="0 0 344.000000 256.000000"
 preserveAspectRatio="xMidYMid meet">
<metadata>
Created by potrace 1.16, written by Peter Selinger 2001-2019
</metadata>
<g transform="translate(0.000000,256.000000) scale(0.100000,-0.100000)"
fill="#000000" stroke="none">
<path d="M481 2547 c-8 -10 -6 -50 5 -151 9 -76 14 -138 12 -140 -1 -1 -46 1
-98 5 -52 4 -164 8 -247 8 l-153 1 0 -24 0 -24 259 -3 c229 -4 261 -6 278 -22
26 -23 33 -22 33 7 0 13 -9 30 -20 37 -16 12 -22 37 -34 144 -8 72 -13 132
-11 133 2 2 11 -8 21 -23 11 -17 22 -66 29 -133 15 -128 13 -118 26 -105 7 7
7 43 0 123 -9 90 -15 120 -33 147 -24 35 -48 42 -67 20z"/>
<path d="M2446 2348 c-10 -117 -24 -229 -32 -248 -7 -19 -18 -62 -24 -94 -13
-77 -13 -256 0 -256 6 0 10 12 10 28 1 91 14 200 34 287 23 99 39 225 52 403
5 75 4 92 -8 92 -11 0 -18 -45 -32 -212z"/>
<path d="M2522 2423 c-6 -76 -16 -185 -22 -243 -15 -164 -42 -457 -49 -543 -4
-54 -11 -83 -22 -90 -24 -18 -35 -159 -14 -190 8 -13 13 -26 11 -28 -8 -8 -65
-687 -67 -794 -1 -82 -9 -117 -28 -123 -12 -4 -13 7 -7 59 4 35 12 107 17 159
6 52 10 199 10 325 -1 135 5 294 14 385 8 85 15 187 15 227 0 84 6 103 30 103
30 0 35 22 10 42 -12 10 -25 18 -30 18 -18 0 -29 -62 -40 -226 -6 -99 -15
-215 -20 -259 -6 -44 -13 -151 -16 -238 -3 -86 -10 -160 -15 -163 -13 -7 -143
27 -151 40 -15 22 -8 108 12 151 11 25 23 66 27 92 3 27 12 55 19 64 24 27 51
131 58 217 4 45 3 82 -2 82 -21 0 -51 -50 -60 -100 -14 -74 -49 -164 -76 -198
-35 -41 -46 -67 -46 -105 0 -41 -18 -59 -88 -86 -68 -27 -141 -27 -221 0 -68
23 -80 37 -63 75 13 27 103 71 160 79 19 2 42 10 50 18 13 13 11 22 -11 69
-30 64 -57 180 -57 243 0 33 -4 45 -12 42 -28 -9 -5 -203 33 -282 25 -52 24
-55 -7 -55 -38 0 -106 -21 -127 -39 -17 -14 -18 11 -15 612 l3 627 -27 9 c-24
8 -28 7 -28 -8 0 -9 5 -22 10 -27 7 -7 9 -223 6 -645 -3 -349 -5 -652 -6 -674
-5 -117 4 -145 49 -145 16 0 37 -10 49 -23 l21 -23 -24 -52 c-13 -29 -26 -64
-27 -78 -4 -35 32 -61 103 -74 53 -10 59 -9 131 25 78 36 138 90 138 125 0 30
15 32 96 14 56 -12 79 -13 87 -5 21 21 26 11 22 -37 -37 -401 -37 -399 -24
-408 7 -4 19 3 31 18 18 25 20 26 61 13 23 -8 121 -39 217 -70 96 -31 195 -63
220 -70 25 -8 83 -27 130 -43 47 -17 130 -42 185 -57 55 -14 111 -31 125 -37
59 -25 120 -35 130 -23 12 15 -3 29 -40 40 -25 7 -220 65 -355 107 -38 11 -87
27 -107 34 -84 30 -167 57 -228 74 -85 24 -220 69 -242 81 -10 5 -25 9 -35 9
-9 0 -13 3 -9 7 4 4 15 8 24 8 11 0 20 17 29 54 8 29 36 91 64 136 27 45 49
88 49 95 0 8 6 10 18 5 9 -4 26 -9 37 -12 11 -3 34 -11 50 -18 17 -7 48 -17
70 -21 22 -3 57 -15 77 -25 21 -11 48 -19 60 -19 33 0 151 -27 239 -56 42 -13
86 -24 98 -24 12 0 54 -9 93 -20 95 -26 110 -26 106 2 -2 18 -12 24 -43 30
-71 12 -97 20 -101 33 -3 6 5 54 17 106 12 52 25 114 29 139 7 44 26 136 56
272 25 116 29 161 13 156 -13 -4 -19 -29 -54 -212 -8 -44 -19 -94 -24 -110 -5
-17 -13 -56 -16 -86 -4 -30 -13 -69 -20 -85 -7 -17 -15 -61 -19 -99 -5 -45
-13 -69 -23 -73 -25 -10 -123 17 -123 33 0 8 11 72 25 142 38 196 43 223 50
277 3 28 17 106 30 175 13 69 38 215 55 325 17 110 35 216 41 236 5 20 9 49 9
65 0 16 10 73 22 127 20 93 20 116 0 103 -11 -7 -43 -164 -71 -351 -12 -77
-26 -162 -31 -190 -5 -27 -14 -81 -20 -120 -6 -38 -20 -117 -30 -175 -11 -58
-27 -148 -35 -200 -29 -172 -33 -197 -44 -236 -5 -22 -13 -68 -17 -104 -4 -36
-8 -68 -11 -72 -3 -6 -59 7 -119 27 -8 2 -9 17 -3 47 9 44 24 139 39 243 5 33
19 119 30 190 33 203 39 244 50 330 5 44 11 89 14 100 2 11 9 58 15 105 11 79
38 249 49 313 2 15 0 27 -6 27 -16 0 -30 -49 -47 -170 -9 -63 -23 -158 -30
-210 -8 -52 -17 -120 -21 -150 -3 -30 -19 -138 -35 -240 -16 -102 -34 -216
-40 -255 -5 -38 -14 -92 -19 -120 -5 -27 -15 -85 -22 -128 l-12 -78 -41 7
c-22 3 -48 11 -58 16 -19 10 -19 6 4 173 18 136 30 221 39 293 6 39 14 105 20
145 5 39 12 92 15 117 2 25 9 83 14 130 5 47 15 119 21 160 19 125 23 200 12
200 -6 0 -13 -15 -16 -32 -13 -87 -37 -267 -51 -388 -14 -126 -24 -199 -45
-345 -5 -33 -14 -100 -20 -150 -7 -49 -16 -114 -21 -144 -5 -30 -9 -72 -9 -92
0 -21 -4 -40 -9 -43 -12 -8 -137 31 -168 51 -17 11 -23 25 -23 50 0 20 18 214
40 432 22 218 47 470 55 561 8 91 24 262 35 380 11 118 24 245 28 283 7 59 6
67 -8 67 -14 0 -18 -14 -23 -77 -4 -43 -15 -172 -26 -288 -11 -115 -25 -262
-31 -325 -6 -63 -31 -319 -56 -569 -44 -448 -45 -454 -73 -495 -16 -22 -40
-63 -54 -91 -15 -27 -36 -61 -47 -75 l-21 -25 5 60 c3 33 10 121 16 195 6 74
15 178 20 230 5 52 12 138 16 190 4 56 13 104 22 118 11 16 13 37 8 80 -3 31
-2 104 4 162 6 58 19 209 30 335 11 127 24 271 29 320 22 203 24 255 9 255
-11 0 -17 -31 -26 -137z m-285 -1015 c-3 -8 -6 -5 -6 6 -1 11 2 17 5 13 3 -3
4 -12 1 -19z m-26 -129 c-5 -13 -10 -19 -10 -12 -1 15 10 45 15 40 3 -2 0 -15
-5 -28z m-81 -181 c-3 -24 -12 -52 -18 -63 -11 -17 -12 -14 -7 20 10 67 15 85
24 85 4 0 5 -19 1 -42z m-48 -134 c-4 -22 -6 -24 -14 -10 -14 24 -25 19 -37
-16 -7 -18 -23 -50 -36 -70 -29 -44 -31 -61 -10 -78 27 -22 13 -52 -38 -83
-45 -28 -50 -29 -95 -17 -26 6 -54 18 -63 26 -14 13 -13 19 13 71 15 30 28 66
28 78 0 24 -51 77 -71 75 -34 -5 -49 1 -49 20 0 23 8 25 35 6 23 -15 26 -16
126 -22 66 -5 84 -2 135 20 75 32 82 32 76 0z"/>
<path d="M1939 888 c-17 -34 -20 -49 -13 -81 14 -63 34 -59 34 7 0 30 5 58 10
61 13 8 13 55 0 55 -5 0 -19 -19 -31 -42z"/>
<path d="M2970 2517 c0 -46 13 -67 42 -67 15 0 18 -9 18 -55 0 -46 4 -59 31
-90 41 -46 88 -58 227 -59 88 -1 115 2 122 14 5 8 7 17 4 21 -2 4 -48 7 -102
6 -126 -1 -232 23 -232 54 0 5 11 11 25 15 17 4 31 18 40 40 8 19 21 34 29 34
19 0 20 20 4 55 l-12 26 -13 -28 -12 -28 1 35 c2 65 -5 70 -93 70 l-79 0 0
-43z m80 6 c-1 -42 -40 -54 -54 -16 -9 22 2 33 30 33 16 0 24 -6 24 -17z"/>
<path d="M3140 2550 c0 -5 6 -7 14 -4 8 3 24 1 35 -5 17 -10 20 -9 15 4 -7 16
-64 21 -64 5z"/>
<path d="M458 2162 c-59 -7 -11 -42 57 -42 35 0 83 33 54 37 -42 6 -87 8 -111
5z"/>
<path d="M0 1885 c0 -52 5 -86 13 -94 9 -11 10 -14 -1 -18 -16 -6 -16 -39 1
-46 7 -3 22 -57 36 -128 13 -68 37 -176 52 -239 16 -63 33 -149 38 -190 6 -41
22 -124 36 -185 14 -60 30 -137 36 -170 12 -71 25 -87 87 -110 26 -10 51 -22
56 -26 22 -20 68 -4 274 97 119 59 300 147 402 196 102 49 210 101 240 116 86
42 79 85 -17 101 -61 11 -169 38 -255 63 -52 15 -73 27 -89 50 -20 28 -26 30
-63 25 -23 -3 -55 -13 -71 -21 -17 -9 -35 -16 -41 -16 -19 0 -38 -30 -27 -41
6 -6 25 -3 54 9 90 38 119 35 147 -14 4 -8 33 -22 63 -30 152 -42 246 -64 271
-64 43 0 41 -15 -5 -35 -60 -26 -209 -94 -227 -104 -8 -4 -24 -13 -35 -19 -11
-7 -31 -16 -45 -22 -14 -5 -32 -14 -40 -19 -30 -20 -408 -201 -418 -201 -5 0
-15 -6 -21 -14 -24 -29 -60 -28 -132 6 -47 22 -71 40 -73 53 -5 26 -21 103
-51 242 -13 61 -27 140 -30 175 -4 35 -15 86 -25 113 -9 28 -23 82 -30 120 -7
39 -24 119 -37 179 -13 60 -22 115 -19 122 3 7 1 16 -4 19 -5 3 -7 19 -4 34 5
21 1 34 -14 49 -12 12 -16 22 -10 24 7 3 5 19 -5 48 l-16 45 -1 -80z"/>
<path d="M2696 1418 c-5 -25 -11 -78 -26 -238 -5 -58 -17 -153 -26 -213 -13
-81 -15 -110 -6 -119 8 -8 12 -8 15 3 8 24 26 159 37 269 6 58 15 133 20 166
13 79 13 154 0 154 -5 0 -12 -10 -14 -22z"/>
<path d="M1330 1375 c-14 -8 -33 -14 -42 -15 -22 0 -25 -6 -32 -60 -6 -41 -4
-48 24 -77 40 -42 86 -46 96 -8 3 13 15 27 25 30 53 17 63 66 23 114 -28 34
-55 38 -94 16z m72 -42 c36 -32 23 -46 -37 -39 -50 6 -55 4 -55 -13 0 -26 17
-36 36 -20 12 10 13 9 8 -5 -8 -22 -30 -20 -54 4 -30 30 -25 44 23 68 51 26
55 27 79 5z"/>
<path d="M530 1235 c-5 -14 -9 -47 -8 -73 1 -26 -1 -64 -6 -84 -7 -32 -6 -38
8 -38 10 0 16 9 16 25 0 27 15 34 24 10 6 -17 36 -21 36 -4 0 6 -9 24 -21 40
-11 16 -23 45 -26 64 -5 32 -4 35 19 35 18 0 27 -8 37 -35 7 -19 17 -35 22
-35 5 0 9 -9 9 -19 0 -28 21 -37 37 -16 7 11 13 13 13 7 0 -7 7 -12 15 -12 19
0 19 29 0 54 -17 22 -20 40 -6 31 17 -10 24 16 9 31 -11 12 -21 12 -42 4 -44
-16 -64 -13 -68 13 -2 16 -11 23 -30 25 -22 3 -30 -2 -38 -23z"/>
<path d="M407 1125 c-4 -8 -2 -17 2 -20 5 -3 7 -22 4 -44 -5 -37 -4 -38 28
-45 51 -10 58 8 19 49 -25 26 -30 35 -17 35 10 0 17 8 17 20 0 24 -45 29 -53
5z"/>
<path d="M228 1123 c-10 -2 -18 -13 -18 -24 0 -31 54 -22 58 9 3 22 -4 25 -40
15z"/>
<path d="M1276 852 c-7 -13 12 -369 25 -449 10 -67 4 -116 -15 -110 -6 2 -11
27 -11 58 0 30 -3 56 -6 59 -3 3 -19 -10 -34 -28 -15 -18 -41 -40 -59 -49 -17
-9 -49 -33 -71 -54 -22 -21 -43 -39 -47 -39 -9 0 -15 25 -23 95 -8 78 -15 105
-26 105 -12 0 -11 -62 2 -156 l10 -77 -32 -33 c-18 -19 -37 -34 -42 -34 -12 0
-46 -42 -47 -57 0 -17 11 -16 40 3 14 9 4 -5 -22 -31 -27 -26 -48 -49 -48 -51
0 -2 11 -4 24 -4 13 0 51 20 84 45 51 39 64 44 79 34 26 -16 63 9 148 99 37
39 75 72 84 73 9 0 29 16 45 35 l29 35 -22 72 c-25 85 -26 113 -6 121 21 8 19
34 -2 32 -16 -1 -19 16 -28 151 -9 144 -16 176 -29 155z m-137 -611 c-13 -10
-37 -30 -54 -45 -16 -14 -31 -23 -33 -21 -4 4 52 56 87 82 26 19 26 5 0 -16z
m-139 -115 c0 -2 -7 -9 -15 -16 -13 -11 -14 -10 -9 4 5 14 24 23 24 12z"/>
<path d="M552 550 c-38 -17 -62 -43 -50 -55 8 -9 78 19 95 37 27 30 4 40 -45
18z"/>
<path d="M225 540 c-3 -5 -3 -15 0 -20 4 -6 1 -17 -5 -26 -10 -11 -16 -11 -26
-3 -8 6 -22 8 -31 4 -10 -4 -33 -7 -52 -6 l-34 3 8 -59 c3 -32 18 -90 31 -129
13 -39 24 -78 24 -87 0 -43 23 -117 36 -117 18 0 18 13 -1 74 -8 27 -14 61
-14 75 1 19 4 15 12 -16 11 -49 29 -55 71 -22 14 11 30 17 36 14 19 -12 23 25
5 45 -17 19 -19 19 -31 2 -12 -15 -13 -13 -14 21 0 43 -21 50 -61 18 l-25 -19
-18 43 c-9 24 -16 56 -14 72 4 30 11 21 23 -30 5 -24 10 -28 33 -25 18 2 31
12 40 31 7 15 18 27 24 27 19 0 37 34 38 72 0 48 -37 87 -55 58z"/>
<path d="M145 520 c-3 -5 -1 -10 4 -10 6 0 11 5 11 10 0 6 -2 10 -4 10 -3 0
-8 -4 -11 -10z"/>
<path d="M415 483 c3 -21 10 -67 14 -103 4 -36 21 -136 36 -222 21 -116 33
-158 43 -158 17 0 14 29 -23 217 -14 67 -27 159 -31 205 -6 75 -15 97 -37 98
-4 0 -5 -17 -2 -37z"/>
<path d="M315 487 c-4 -8 5 -64 18 -123 56 -246 67 -301 67 -331 0 -26 4 -33
20 -33 22 0 21 10 -6 125 -7 33 -23 107 -34 165 -36 180 -52 231 -65 197z"/>
<path d="M1957 457 c-8 -12 -25 -32 -37 -45 -27 -28 -194 -252 -209 -279 -7
-15 -17 -19 -36 -16 -52 11 -25 -18 77 -80 15 -10 36 -17 47 -17 11 0 23 -5
26 -10 3 -6 37 -10 76 -10 61 0 69 2 69 19 0 10 7 24 15 31 8 7 15 18 15 25 0
6 17 39 38 71 40 62 60 114 43 114 -11 0 -60 -72 -110 -162 -18 -32 -42 -64
-53 -72 -28 -20 -75 -10 -115 25 -17 15 -41 30 -53 34 -13 4 -19 12 -16 20 4
12 61 88 223 298 18 23 33 47 33 54 0 22 -18 23 -33 0z"/>
<path d="M1135 440 c-8 -13 4 -50 16 -50 5 0 9 14 9 30 0 30 -13 40 -25 20z"/>
<path d="M1596 333 c-23 -25 -60 -66 -83 -91 l-43 -44 -31 26 c-34 29 -79 35
-79 11 0 -8 18 -24 40 -35 22 -11 40 -24 40 -29 0 -11 -38 -58 -82 -101 l-29
-29 -58 29 c-67 34 -84 37 -79 13 3 -18 78 -66 119 -76 22 -6 34 2 80 50 100
103 124 129 164 177 22 26 47 55 55 63 20 21 50 66 50 76 0 19 -28 2 -64 -40z"/>
<path d="M2100 356 c0 -13 -3 -37 -6 -54 l-6 -30 98 -31 c135 -43 131 -38 100
-99 -28 -55 -34 -94 -13 -87 11 5 31 50 44 102 3 13 9 23 13 23 15 0 284 -91
325 -110 22 -10 67 -26 100 -36 33 -9 66 -21 73 -27 17 -13 22 -6 16 20 -5 17
-29 30 -107 58 -56 20 -129 47 -162 60 -33 13 -76 26 -95 30 -19 4 -44 13 -55
20 -11 7 -35 16 -53 19 -17 4 -32 12 -32 17 0 6 -6 9 -12 8 -13 -2 -24 1 -93
31 -22 9 -53 20 -70 24 -27 7 -44 21 -45 37 0 6 160 -42 205 -61 11 -5 142
-50 290 -99 149 -50 321 -109 384 -131 71 -25 130 -40 160 -40 41 1 44 2 28
14 -10 8 -75 32 -145 55 -70 23 -136 46 -147 51 -11 6 -108 39 -215 74 -107
36 -276 92 -374 125 -99 34 -185 61 -193 61 -7 0 -13 -11 -13 -24z"/>
<path d="M575 188 c4 -24 10 -74 14 -113 5 -58 9 -70 25 -73 15 -3 18 0 13 20
-3 12 -9 57 -13 98 -7 78 -17 110 -36 110 -7 0 -8 -14 -3 -42z"/>
<path d="M213 174 c-7 -18 11 -39 26 -30 17 11 13 46 -4 46 -9 0 -18 -7 -22
-16z"/>
<path d="M1538 69 c-27 -15 -22 -46 7 -53 45 -11 57 7 28 43 -14 16 -22 18
-35 10z"/>
<path d="M2237 19 c-3 -13 -1 -19 6 -16 15 5 22 37 9 37 -5 0 -12 -9 -15 -21z"/>
</g>
</svg>
