<?xml version="1.0" standalone="no"?>
<!DOCTYPE svg PUBLIC "-//W3C//DTD SVG 20010904//EN"
 "http://www.w3.org/TR/2001/REC-SVG-20010904/DTD/svg10.dtd">
<svg version="1.0" xmlns="http://www.w3.org/2000/svg"
 width="256.000000pt" height="384.000000pt" viewBox="0 0 256.000000 384.000000"
 preserveAspectRatio="xMidYMid meet">
<metadata>
Created by potrace 1.16, written by Peter Selinger 2001-2019
</metadata>
<g transform="translate(0.000000,384.000000) scale(0.100000,-0.100000)"
fill="#000000" stroke="none">
<path d="M33 3823 c3 -10 8 -28 12 -40 7 -26 42 -31 51 -8 4 8 10 12 16 9 12
-7 -10 -34 -28 -34 -8 0 -19 -9 -26 -20 -16 -25 -27 -25 -44 -2 -12 15 -13 9
-14 -43 0 -49 4 -64 20 -78 11 -9 26 -17 33 -17 20 0 37 -22 37 -46 0 -13 5
-26 10 -29 13 -8 13 -25 1 -25 -5 0 -13 9 -16 20 -6 20 -39 27 -50 11 -9 -15
40 -58 75 -64 26 -6 36 -2 51 16 10 12 18 27 19 34 0 7 12 1 26 -12 21 -20 25
-31 21 -55 -6 -27 -2 -33 34 -58 93 -62 87 -60 106 -32 10 14 18 39 18 55 0
23 4 30 20 30 11 0 23 4 26 8 3 5 14 -4 23 -18 20 -31 13 -48 -8 -19 -12 15
-17 17 -28 6 -10 -10 -10 -16 1 -34 11 -18 11 -20 -3 -15 -15 6 -17 3 -16 -20
1 -13 53 -13 67 -1 17 14 29 3 16 -14 -6 -7 -13 -25 -17 -40 -5 -24 -3 -28 14
-28 13 0 31 16 50 47 33 51 41 99 15 89 -16 -6 -19 3 -9 28 3 9 17 16 30 16
18 0 24 5 24 22 0 35 18 8 22 -32 5 -52 22 -43 29 15 l6 50 1 -47 c1 -26 7
-50 12 -53 6 -3 10 -11 10 -16 0 -6 -4 -7 -10 -4 -22 14 -79 -34 -80 -67 0
-24 12 -23 33 2 9 11 23 20 31 20 7 0 19 6 25 14 10 11 18 11 56 -3 37 -13 49
-14 65 -3 11 7 20 9 20 6 0 -14 -66 -80 -91 -91 -29 -12 -45 -31 -35 -40 3 -4
16 -1 29 5 12 6 31 13 43 17 11 3 35 25 52 49 17 24 45 49 62 56 41 17 41 44
0 35 -19 -4 -30 -3 -30 4 0 14 -47 14 -52 1 -5 -16 -88 -1 -88 16 0 8 -4 14
-10 14 -19 0 -10 28 10 33 11 3 20 12 20 19 0 12 16 14 73 13 73 -2 119 -14
132 -35 5 -9 1 -10 -15 -5 -19 6 -21 4 -18 -17 2 -15 12 -25 28 -28 14 -3 46
-16 73 -28 37 -17 47 -26 47 -45 0 -20 -4 -23 -24 -20 -31 6 -43 -13 -14 -23
12 -3 29 -13 36 -21 20 -20 32 0 25 41 -3 18 2 44 11 61 10 18 16 23 16 13 0
-9 14 -27 30 -40 17 -13 46 -35 64 -50 19 -16 39 -28 45 -28 6 0 20 -9 30 -19
34 -34 83 -31 99 4 18 38 15 63 -8 70 -24 8 -25 18 -5 35 8 7 15 28 15 46 0
18 9 50 21 71 19 34 19 38 5 49 -13 9 -15 21 -10 51 4 24 0 59 -10 93 -9 29
-16 82 -16 116 0 51 3 63 18 67 9 3 0 5 -20 6 -27 1 -38 -3 -38 -14 0 -8 -11
-22 -26 -31 -31 -21 -16 -47 15 -27 18 11 20 8 24 -40 3 -29 9 -67 12 -84 5
-25 4 -33 -6 -33 -8 0 -36 -11 -64 -25 -27 -13 -59 -25 -69 -25 -27 0 -89 -23
-98 -35 -10 -14 -12 -9 -43 85 -15 47 -41 112 -56 146 -16 34 -29 66 -29 72 0
7 -14 12 -32 12 -30 0 -31 0 -13 -20 10 -11 15 -20 11 -20 -4 0 2 -9 13 -21
11 -12 22 -33 26 -47 4 -15 13 -40 20 -57 24 -54 67 -196 61 -202 -3 -3 -10 7
-16 23 -6 16 -22 52 -34 79 -13 28 -27 60 -30 73 -4 12 -11 22 -16 22 -16 0
-53 75 -51 103 3 29 -22 67 -44 67 -7 0 -16 -11 -19 -25 -4 -15 -11 -23 -17
-19 -8 4 -7 10 0 17 22 22 9 27 -75 27 -76 0 -86 -2 -91 -19 -3 -11 -11 -22
-19 -25 -16 -6 -29 10 -14 19 15 9 12 25 -4 25 -7 0 -16 -9 -19 -21 -8 -29 3
-89 17 -89 6 0 3 -7 -8 -15 -10 -7 -15 -18 -12 -23 8 -13 -11 -62 -24 -62 -5
0 -10 11 -10 25 0 14 -5 25 -11 25 -24 0 -89 57 -103 90 -11 28 -14 31 -15 13
-1 -12 -10 -27 -21 -33 -16 -9 -19 -8 -13 6 4 12 3 15 -5 10 -24 -14 -11 19
14 37 17 13 34 17 50 13 15 -4 33 -1 47 9 20 14 17 15 -50 15 -63 0 -72 -2
-78 -20 -7 -22 -20 -26 -31 -9 -3 6 0 15 7 20 9 5 -18 9 -69 9 -79 0 -82 -1
-72 -19 17 -33 11 -46 -10 -24 -11 13 -27 19 -38 16 -11 -2 -25 1 -33 9 -8 7
-36 14 -62 16 -43 3 -48 1 -44 -15z m47 -9 c0 -8 -5 -12 -10 -9 -6 4 -8 11 -5
16 9 14 15 11 15 -7z m720 6 c0 -5 -4 -10 -10 -10 -5 0 -10 5 -10 10 0 6 5 10
10 10 6 0 10 -4 10 -10z m-487 -24 c3 -8 -7 -12 -29 -13 -19 -1 -34 3 -34 8 0
5 7 9 15 9 8 0 15 4 15 10 0 13 27 2 33 -14z m401 10 c-3 -8 5 -23 17 -35 13
-12 18 -21 13 -21 -6 0 -21 11 -34 26 -21 21 -22 27 -10 34 20 13 20 12 14 -4z
m56 10 c0 -2 3 -11 6 -20 3 -9 1 -16 -5 -16 -6 0 -11 6 -11 14 0 8 -6 17 -12
19 -8 3 -6 6 5 6 9 1 17 -1 17 -3z m110 -37 c0 -5 -4 -9 -10 -9 -5 0 -10 7
-10 16 0 8 5 12 10 9 6 -3 10 -10 10 -16z m-725 -19 c3 -5 1 -10 -4 -10 -6 0
-11 5 -11 10 0 6 2 10 4 10 3 0 8 -4 11 -10z m200 0 c3 -5 1 -10 -4 -10 -6 0
-11 5 -11 10 0 6 2 10 4 10 3 0 8 -4 11 -10z m372 -48 c24 -24 43 -22 43 4 0
8 5 14 10 14 13 0 13 -13 -1 -27 -7 -7 -7 -13 0 -17 5 -4 19 3 30 15 18 19 24
21 46 11 26 -12 26 -36 0 -26 -19 8 -64 -27 -65 -48 0 -29 -30 -21 -30 7 0 14
-4 25 -10 25 -11 0 -60 48 -60 59 0 5 -9 11 -21 14 -12 3 -18 10 -14 17 7 12
19 4 72 -48z m93 48 c0 -5 -4 -10 -10 -10 -5 0 -10 5 -10 10 0 6 5 10 10 10 6
0 10 -4 10 -10z m-620 -20 c0 -5 -2 -10 -4 -10 -3 0 -8 5 -11 10 -3 6 -1 10 4
10 6 0 11 -4 11 -10z m80 0 c0 -5 -4 -10 -9 -10 -5 0 -11 -9 -14 -20 -3 -11
-13 -20 -22 -20 -12 0 -15 5 -11 16 3 9 6 19 6 24 0 7 17 15 43 19 4 0 7 -3 7
-9z m70 -50 c0 -19 -1 -19 -20 -3 -11 10 -20 23 -20 31 0 10 5 10 20 2 11 -6
20 -20 20 -30z m-153 -32 c-3 -21 -1 -41 4 -44 5 -3 7 -10 3 -15 -7 -12 -44
23 -44 41 0 6 -7 13 -15 16 -21 8 -19 20 7 43 31 29 52 10 45 -41z m-97 48 c0
-3 -4 -8 -10 -11 -5 -3 -10 -1 -10 4 0 6 5 11 10 11 6 0 10 -2 10 -4z m605
-38 c6 -4 2 -8 -7 -8 -10 0 -18 7 -18 17 0 9 3 12 8 7 4 -5 12 -12 17 -16z
m-675 -8 c0 -5 -4 -10 -10 -10 -5 0 -10 5 -10 10 0 6 5 10 10 10 6 0 10 -4 10
-10z m245 0 c3 -5 1 -10 -4 -10 -6 0 -11 5 -11 10 0 6 2 10 4 10 3 0 8 -4 11
-10z m229 1 c3 -5 -3 -20 -15 -32 -16 -19 -19 -20 -15 -6 3 10 6 25 6 33 0 16
16 19 24 5z m-422 -21 c12 -11 19 -23 15 -26 -8 -8 -47 24 -47 38 0 13 9 10
32 -12z m224 -16 c-9 -9 -20 -13 -24 -9 -4 4 -1 10 6 12 6 3 12 12 12 21 0 12
3 13 11 5 9 -9 7 -16 -5 -29z m81 4 c-3 -7 -5 -2 -5 12 0 14 2 19 5 13 2 -7 2
-19 0 -25z m549 -15 c10 -21 26 -51 37 -66 23 -34 17 -44 -15 -24 -12 8 -38
18 -55 22 -20 4 -33 13 -33 22 0 11 6 14 25 9 21 -5 25 -3 25 15 0 12 -8 23
-20 26 -26 7 -26 33 0 33 12 0 25 -13 36 -37z m-392 2 c-4 -8 -8 -15 -10 -15
-2 0 -4 7 -4 15 0 8 4 15 10 15 5 0 7 -7 4 -15z m136 -27 c-11 -12 -23 -18
-27 -15 -8 9 29 46 39 40 4 -2 -1 -14 -12 -25z m150 28 c0 -3 -4 -8 -10 -11
-5 -3 -10 -1 -10 4 0 6 5 11 10 11 6 0 10 -2 10 -4z m-560 -30 c0 -6 9 -18 20
-26 11 -8 20 -21 20 -29 0 -11 -3 -11 -18 2 -23 21 -42 22 -42 2 0 -17 -12
-19 -26 -5 -14 14 16 79 34 73 6 -3 12 -10 12 -17z m330 1 c0 -7 -9 -18 -20
-25 -16 -10 -20 -10 -20 1 0 14 20 37 32 37 4 0 8 -6 8 -13z m-180 -13 c0 -8
-4 -12 -10 -9 -5 3 -10 10 -10 16 0 5 5 9 10 9 6 0 10 -7 10 -16z m404 0 c3
-8 2 -12 -4 -9 -6 3 -10 10 -10 16 0 14 7 11 14 -7z m-56 -48 c-4 -27 -24 -31
-31 -5 -3 11 -10 18 -16 15 -21 -13 -20 14 1 29 21 14 24 14 36 -2 7 -10 11
-27 10 -37z m-641 12 c-3 -7 -5 -2 -5 12 0 14 2 19 5 13 2 -7 2 -19 0 -25z
m1218 1 c11 -48 -4 -146 -27 -174 -20 -25 -20 -51 -3 -97 6 -14 2 -18 -14 -18
-12 0 -21 4 -21 9 0 6 -17 19 -38 31 -33 18 -38 27 -38 54 1 22 6 33 16 32 25
-2 23 31 -2 38 -17 4 -29 -1 -50 -23 -21 -23 -29 -27 -37 -17 -11 13 -36 115
-29 121 7 7 121 35 126 30 2 -2 -5 -19 -17 -38 -11 -19 -18 -37 -14 -40 16
-16 30 -3 52 47 16 36 32 57 50 64 38 15 39 15 46 -19z m-945 -21 c0 -6 -6 -5
-15 2 -8 7 -15 14 -15 16 0 2 7 1 15 -2 8 -4 15 -11 15 -16z m-20 -53 c0 -24
-20 -17 -30 11 -15 39 -12 46 10 24 11 -11 20 -27 20 -35z m571 18 c16 -10 29
-21 29 -25 0 -13 -11 -9 -42 17 -34 29 -29 32 13 8z m-426 -13 c3 -5 -3 -19
-13 -30 -17 -18 -20 -19 -32 -5 -11 13 -10 18 6 30 23 17 31 18 39 5z m-239
-57 c-11 -11 -17 4 -9 23 7 18 8 18 11 1 2 -10 1 -21 -2 -24z m54 22 c0 -8 -4
-15 -10 -15 -5 0 -10 7 -10 15 0 8 5 15 10 15 6 0 10 -7 10 -15z m16 -51 c-4
-9 -9 -15 -11 -12 -3 3 -3 13 1 22 4 9 9 15 11 12 3 -3 3 -13 -1 -22z m699 6
c3 -5 2 -10 -4 -10 -5 0 -13 5 -16 10 -3 6 -2 10 4 10 5 0 13 -4 16 -10z
m-735 -10 c0 -5 -4 -10 -10 -10 -5 0 -10 5 -10 10 0 6 5 10 10 10 6 0 10 -4
10 -10z"/>
<path d="M1171 3814 c7 -20 6 -31 -4 -43 -27 -31 -29 -41 -9 -41 12 0 32 20
55 55 l36 55 -44 0 c-44 0 -44 0 -34 -26z"/>
<path d="M1520 3808 c0 -48 27 -152 39 -156 6 -2 11 -28 11 -58 0 -36 4 -54
12 -54 7 0 -4 -16 -25 -36 l-37 -36 7 -91 c3 -51 7 -94 10 -96 2 -3 9 1 15 7
9 9 9 33 2 92 -5 44 -6 80 -2 80 5 0 22 13 39 29 29 28 30 31 19 71 -12 44 -9
57 9 45 6 -3 11 -27 11 -53 0 -40 -5 -52 -28 -72 -24 -21 -28 -33 -29 -78 0
-29 4 -55 9 -58 17 -11 29 19 22 57 -6 41 12 64 21 27 20 -90 25 -119 25 -160
0 -27 5 -48 10 -48 6 0 10 -7 10 -16 0 -8 6 -22 14 -29 13 -13 16 -52 19 -235
1 -14 -3 -42 -7 -62 -8 -38 -8 -38 23 -38 17 0 31 -4 31 -10 0 -5 9 -10 20
-10 11 0 20 7 20 15 0 18 21 20 39 3 11 -10 14 -10 18 0 3 6 17 12 32 12 15 0
32 5 37 10 11 11 77 -11 89 -30 9 -15 55 -12 61 4 4 11 25 14 85 13 94 -1 102
5 96 74 l-4 47 35 -2 c39 -1 54 -21 22 -29 -21 -5 -22 -12 -22 -117 -1 -34 3
-46 16 -48 9 -2 14 -8 10 -13 -3 -5 2 -12 10 -15 9 -3 16 -11 16 -17 0 -6 -24
-8 -69 -3 -39 3 -72 2 -75 -3 -3 -5 -31 -11 -63 -13 -31 -3 -59 -10 -60 -15
-6 -17 -42 -3 -48 18 -7 21 -22 24 -59 9 -31 -11 -32 -17 -6 -50 l20 -25 6 23
c7 24 24 30 24 8 0 -18 23 -27 41 -15 8 5 40 9 71 9 31 0 60 5 64 11 4 8 28 9
73 4 36 -5 74 -8 84 -7 9 0 17 -3 17 -7 0 -5 19 -11 43 -14 23 -4 51 -7 62 -9
16 -2 19 2 17 21 -2 20 1 22 20 16 13 -3 33 -9 46 -12 l22 -5 0 148 c0 122 -3
150 -16 166 -16 16 -16 18 0 24 11 4 16 18 15 43 0 33 -1 34 -11 14 -6 -13
-19 -25 -29 -28 -15 -5 -18 -12 -12 -33 3 -15 10 -29 14 -33 5 -3 12 -26 15
-51 l6 -46 -51 1 c-48 2 -52 4 -48 24 2 13 -2 28 -9 34 -8 6 -14 24 -14 39 0
15 -9 35 -20 45 -20 18 -20 17 -20 -8 0 -14 4 -28 9 -31 14 -9 7 -68 -9 -76
-8 -4 -25 -12 -36 -18 -12 -6 -24 -8 -27 -6 -7 7 30 44 43 44 6 0 10 8 10 18
0 26 -50 70 -80 71 -47 1 -65 8 -69 27 -2 10 -9 23 -17 27 -17 10 -9 55 23
121 12 28 21 58 17 68 -3 10 2 28 10 40 18 26 22 63 5 52 -17 -10 -50 -90 -44
-106 3 -8 -10 -32 -29 -53 l-34 -40 -20 25 c-33 41 -39 13 -9 -41 16 -27 26
-53 23 -58 -3 -5 1 -22 9 -37 9 -17 15 -56 15 -91 l0 -63 -42 0 c-77 0 -89 8
-82 46 4 22 2 34 -5 34 -15 0 -34 -49 -26 -68 4 -11 0 -13 -22 -7 -16 4 -50 8
-76 8 l-48 0 7 31 c4 17 15 37 25 44 11 7 19 23 19 36 0 12 5 27 12 34 9 9 9
15 0 24 -7 7 -12 23 -12 36 0 14 -5 22 -12 20 -8 -3 -11 -24 -9 -59 2 -47 -1
-58 -23 -78 -14 -14 -26 -31 -26 -38 0 -21 -31 -64 -41 -57 -5 3 -9 14 -9 25
0 10 -4 19 -10 19 -10 0 -14 -13 -11 -37 2 -18 -17 -25 -38 -14 -15 8 -17 17
-12 48 3 21 4 63 1 93 -4 40 0 65 12 90 20 40 15 110 -9 110 -11 0 -11 -4 -3
-20 20 -38 -6 -20 -28 19 -17 30 -22 55 -22 115 0 44 -4 76 -10 76 -5 0 -10 7
-10 15 0 22 17 18 23 -6 9 -35 25 -12 25 36 0 41 -2 45 -19 40 -14 -5 -19 -1
-20 12 -1 10 -2 33 -4 51 -2 28 1 33 24 39 14 3 40 17 57 30 19 14 38 21 48
17 11 -4 31 10 65 46 29 31 51 47 55 41 9 -15 46 5 46 24 0 8 7 18 17 23 10 6
14 16 9 27 -5 15 -9 15 -23 4 -9 -8 -28 -14 -42 -14 -18 0 -31 -10 -46 -32
-11 -17 -33 -37 -50 -44 -16 -7 -32 -15 -35 -18 -17 -19 -101 -71 -114 -71
-36 0 -14 43 56 110 54 53 78 70 100 70 15 0 28 4 28 9 0 5 8 12 18 14 9 3 -8
5 -37 6 -45 1 -60 -3 -80 -23 -51 -47 -109 -74 -63 -29 11 10 22 26 25 36 5
14 1 17 -25 17 -17 0 -29 -3 -25 -6 5 -5 -28 -44 -38 -44 -2 0 0 11 5 25 l10
25 -65 0 -65 0 0 -32z m63 8 c3 -7 1 -18 -5 -24 -11 -11 7 -83 30 -119 19 -31
-1 -30 -26 2 -19 24 -38 127 -27 146 9 13 22 11 28 -5z m632 -877 c5 -33 3
-55 -4 -62 -12 -12 -12 -13 -14 61 -3 67 9 68 18 1z m225 -154 c-10 -11 -20
-33 -22 -50 -2 -24 -8 -30 -27 -30 -13 0 -27 7 -29 15 -4 12 -3 13 10 3 21
-18 28 -6 28 51 0 38 3 47 11 36 9 -13 11 -13 22 2 8 12 13 14 19 5 4 -6 -1
-21 -12 -32z m80 15 c0 -20 5 -30 15 -30 22 0 19 -27 -4 -40 -25 -13 -68 -13
-76 0 -3 6 0 10 8 10 10 0 17 16 21 45 8 53 36 64 36 15z m-210 0 c0 -5 -5
-10 -11 -10 -5 0 -7 5 -4 10 3 6 8 10 11 10 2 0 4 -4 4 -10z"/>
<path d="M1918 3828 c8 -8 17 -8 34 0 22 10 21 11 -11 11 -27 1 -32 -2 -23
-11z"/>
<path d="M1998 3833 c6 -2 18 -2 25 0 6 3 1 5 -13 5 -14 0 -19 -2 -12 -5z"/>
<path d="M2135 3830 c4 -6 11 -8 16 -5 14 9 11 15 -7 15 -8 0 -12 -5 -9 -10z"/>
<path d="M2242 3828 c-7 -7 -12 -20 -12 -29 0 -10 -11 -39 -25 -65 -14 -26
-25 -55 -25 -64 0 -10 -9 -29 -21 -44 -19 -24 -19 -46 1 -46 8 0 18 19 77 150
13 30 31 67 38 83 13 24 12 27 -3 27 -10 0 -23 -5 -30 -12z"/>
<path d="M2305 3830 c-8 -13 35 -13 55 0 11 7 7 10 -17 10 -17 0 -35 -4 -38
-10z"/>
<path d="M2395 3830 c-3 -5 3 -10 14 -10 11 0 23 5 26 10 3 6 -3 10 -14 10
-11 0 -23 -4 -26 -10z"/>
<path d="M2500 3829 c0 -6 7 -8 16 -5 9 4 23 1 30 -5 11 -9 14 -8 14 5 0 11
-9 16 -30 16 -16 0 -30 -5 -30 -11z"/>
<path d="M0 3788 c0 -32 3 -39 10 -28 13 20 13 70 0 70 -5 0 -10 -19 -10 -42z"/>
<path d="M2314 3795 c-8 -20 3 -48 16 -40 13 8 13 55 0 55 -6 0 -13 -7 -16
-15z"/>
<path d="M2473 3757 c-15 -23 -33 -51 -39 -62 -15 -27 -34 -31 -27 -6 7 28
-14 27 -44 -1 -13 -12 -23 -16 -23 -10 0 18 -27 14 -35 -5 -5 -10 -10 -36 -11
-58 -2 -22 -6 -50 -9 -63 -5 -19 -2 -23 12 -20 14 2 19 14 21 51 2 38 7 47 21
47 10 0 24 7 31 15 13 16 30 20 30 7 0 -5 -13 -24 -30 -42 -32 -36 -37 -50
-17 -50 20 0 33 13 51 48 20 38 35 42 28 7 -2 -14 0 -25 6 -25 16 0 35 29 28
45 -8 21 2 66 20 90 13 17 16 18 24 5 8 -12 10 -12 16 3 8 21 -3 67 -16 67 -5
0 -22 -19 -37 -43z"/>
<path d="M2148 3753 c-51 -61 -78 -173 -42 -173 13 0 15 7 10 30 -4 23 1 41
19 68 22 35 43 92 33 92 -3 0 -12 -8 -20 -17z"/>
<path d="M2310 3719 c0 -25 33 -22 38 4 2 12 -3 17 -17 17 -15 0 -21 -6 -21
-21z"/>
<path d="M2533 3685 c-22 -16 -32 -45 -15 -45 18 0 44 27 41 43 -4 16 -6 16
-26 2z"/>
<path d="M2035 3627 c-35 -37 -59 -94 -36 -85 19 7 81 91 81 109 0 10 -1 19
-2 19 -2 -1 -21 -20 -43 -43z"/>
<path d="M1848 3618 c-7 -13 -13 -37 -14 -54 -2 -28 0 -31 27 -32 19 0 29 4
29 14 0 8 -7 14 -15 14 -19 0 -19 19 0 44 14 19 12 36 -5 36 -5 0 -15 -10 -22
-22z"/>
<path d="M2429 3538 c-1 -18 -1 -52 0 -76 0 -24 -6 -53 -15 -67 -19 -28 -1
-46 23 -22 21 20 25 197 6 197 -8 0 -13 -14 -14 -32z"/>
<path d="M1814 3475 c-3 -8 -21 -23 -40 -34 -18 -11 -36 -31 -40 -45 -3 -15
-12 -26 -20 -26 -20 0 -18 -69 2 -98 18 -25 59 -29 68 -6 10 27 7 44 -9 44 -8
0 -15 -4 -15 -10 0 -5 -7 -10 -15 -10 -17 0 -13 28 11 88 10 24 19 32 33 30
11 -2 26 4 33 13 7 9 25 19 41 23 23 5 27 3 27 -14 0 -11 5 -20 11 -20 6 0 8
-9 4 -20 -5 -14 -2 -20 10 -20 8 0 18 -7 21 -15 4 -9 19 -15 35 -15 19 0 29 5
29 15 0 8 5 15 10 15 6 0 8 -11 4 -26 -4 -17 -2 -29 6 -34 10 -6 8 -16 -9 -44
-13 -20 -30 -40 -39 -46 -15 -8 -15 -11 -2 -20 12 -8 11 -10 -7 -10 -13 0 -23
-4 -23 -10 0 -5 5 -10 11 -10 8 0 8 -4 -1 -15 -14 -17 -4 -39 15 -31 8 3 15
-6 19 -25 4 -22 11 -29 28 -29 23 1 23 1 3 16 -17 12 -18 17 -7 35 15 23 8 41
-13 32 -22 -8 -18 12 9 44 13 15 25 37 27 48 3 11 19 29 36 40 40 25 42 43 6
47 -21 2 -29 9 -32 28 -1 14 -8 28 -15 32 -19 13 -46 9 -46 -6 0 -9 -7 -12
-19 -9 -16 4 -18 11 -14 39 4 24 2 34 -8 34 -7 0 -23 10 -36 21 -18 18 -25 20
-37 10 -10 -8 -16 -9 -21 -1 -9 14 -25 12 -31 -5z"/>
<path d="M2448 3307 c-16 -13 -28 -28 -28 -35 0 -7 -5 -12 -10 -12 -6 0 -22
-11 -35 -24 -23 -23 -85 -32 -82 -11 1 6 -5 10 -13 10 -8 0 -15 -7 -15 -15 0
-10 16 -18 43 -24 23 -6 42 -13 42 -18 0 -4 7 -8 15 -8 8 0 15 6 15 13 0 6 25
34 55 62 30 27 55 58 55 67 0 23 -9 22 -42 -5z"/>
<path d="M1860 3290 c0 -11 -5 -20 -10 -20 -10 0 -50 -58 -50 -72 0 -19 31 -5
40 17 5 14 14 25 20 25 5 0 10 6 10 14 0 7 7 19 15 26 21 17 19 30 -5 30 -13
0 -20 -7 -20 -20z"/>
<path d="M2167 3293 c-4 -3 -7 -15 -7 -25 0 -27 27 -22 32 7 5 24 -10 34 -25
18z"/>
<path d="M2103 3275 c-17 -19 -16 -25 2 -25 8 0 19 9 25 20 13 24 -7 28 -27 5z"/>
<path d="M590 3270 c-8 -5 -25 -10 -38 -10 -17 0 -23 -5 -20 -17 3 -14 11 -17
38 -15 42 5 42 5 38 31 -2 16 -7 18 -18 11z"/>
<path d="M2552 3250 c0 -14 2 -19 5 -12 2 6 2 18 0 25 -3 6 -5 1 -5 -13z"/>
<path d="M462 3238 c-7 -7 -3 -17 15 -32 30 -26 25 -66 -9 -66 -11 0 -18 -5
-15 -12 2 -7 17 -13 33 -13 17 0 29 5 28 13 -1 6 -2 32 -2 57 -2 47 -28 75
-50 53z"/>
<path d="M620 3223 c0 -5 5 -15 10 -23 7 -11 12 -12 21 -3 6 6 8 16 5 22 -8
12 -36 15 -36 4z"/>
<path d="M1036 3222 c-3 -5 -5 -25 -4 -43 0 -19 -6 -48 -14 -64 -21 -41 -32
-129 -20 -152 14 -24 19 -7 25 76 2 46 8 66 20 73 12 6 17 23 17 58 0 46 -12
71 -24 52z"/>
<path d="M550 3191 c-14 -27 -13 -51 3 -51 13 0 37 40 37 60 0 18 -29 10 -40
-9z"/>
<path d="M447 3194 c-3 -4 -1 -16 5 -27 9 -18 11 -19 20 -4 13 25 -6 49 -25
31z"/>
<path d="M2520 3171 c0 -35 13 -47 30 -26 14 17 4 55 -16 55 -9 0 -14 -11 -14
-29z"/>
<path d="M773 3178 c-4 -7 -15 -13 -23 -13 -10 0 -15 -12 -15 -37 -1 -21 2
-38 7 -38 5 0 6 -9 3 -20 -4 -11 -2 -20 4 -20 11 0 15 24 11 67 -1 16 6 26 24
33 14 5 26 16 26 25 0 18 -26 20 -37 3z"/>
<path d="M370 3140 c0 -22 5 -40 10 -40 6 0 10 18 10 40 0 22 -4 40 -10 40 -5
0 -10 -18 -10 -40z"/>
<path d="M2268 3162 c-10 -37 -3 -125 10 -129 8 -3 12 6 12 28 0 18 3 29 7 26
3 -4 12 -2 18 3 15 12 44 3 46 -14 1 -6 4 3 8 19 8 36 -14 69 -30 44 -5 -8 -9
-18 -9 -23 0 -23 -14 8 -15 32 0 33 -39 45 -47 14z"/>
<path d="M1800 3150 c0 -5 5 -10 10 -10 6 0 10 5 10 10 0 6 -4 10 -10 10 -5 0
-10 -4 -10 -10z"/>
<path d="M814 3135 c-7 -17 4 -37 17 -30 12 8 12 45 -1 45 -6 0 -13 -7 -16
-15z"/>
<path d="M880 3140 c0 -5 7 -10 15 -10 8 0 15 5 15 10 0 6 -7 10 -15 10 -8 0
-15 -4 -15 -10z"/>
<path d="M2427 3128 c8 -32 23 -48 44 -48 13 0 19 7 19 24 0 14 -4 28 -10 31
-6 3 -10 -4 -10 -17 -1 -22 -1 -22 -18 5 -20 33 -32 35 -25 5z"/>
<path d="M2080 3121 c0 -12 5 -21 10 -21 6 0 10 6 10 14 0 8 -4 18 -10 21 -5
3 -10 -3 -10 -14z"/>
<path d="M1824 3088 c4 -18 8 -45 10 -60 2 -32 11 -43 25 -34 11 7 4 71 -11
104 -17 33 -32 27 -24 -10z"/>
<path d="M1180 3095 c0 -17 41 -58 92 -90 40 -27 64 -80 54 -121 -8 -32 -46
-34 -46 -1 0 12 -4 33 -7 47 -7 23 -8 21 -13 -14 -5 -39 -31 -58 -46 -34 -4 6
-10 5 -15 -3 -7 -11 -11 -11 -21 -1 -10 10 -10 14 0 20 6 5 15 30 18 56 6 39
4 48 -7 44 -9 -3 -13 -17 -12 -36 2 -19 -3 -32 -13 -36 -10 -4 -13 -13 -9 -25
7 -22 -9 -36 -27 -24 -7 4 -23 6 -35 4 -16 -1 -23 3 -23 13 0 9 -4 16 -10 16
-5 0 -10 -7 -10 -15 0 -10 -10 -15 -27 -16 -46 -1 -105 -8 -111 -13 -3 -3 -10
1 -16 9 -9 12 -20 12 -55 4 -24 -5 -48 -6 -52 -2 -4 4 -4 29 1 55 10 49 5 82
-11 73 -4 -3 -11 -32 -15 -65 l-7 -60 -56 0 c-32 0 -63 6 -70 13 -11 10 -13
10 -7 0 4 -7 2 -13 -4 -13 -6 0 -20 -16 -32 -37 -14 -22 -23 -31 -26 -22 -2 8
-6 21 -9 29 -4 8 -5 21 -4 28 1 6 -7 12 -17 12 -11 0 -25 7 -32 15 -7 9 -20
13 -28 10 -8 -3 -23 2 -33 11 -12 11 -30 15 -53 12 -33 -4 -34 -3 -29 24 5 24
2 28 -17 28 -18 0 -21 -4 -16 -24 4 -15 0 -28 -10 -36 -10 -9 -13 -22 -9 -42
5 -22 3 -27 -8 -22 -15 5 -27 46 -27 91 0 39 -25 22 -28 -19 -2 -20 -12 -44
-22 -53 -15 -13 -17 -22 -9 -36 6 -13 6 -19 -1 -19 -21 0 -25 4 -22 20 2 11
-8 22 -28 30 -40 17 -38 36 5 44 21 4 35 13 35 21 0 18 -26 20 -33 3 -3 -8 -6
-6 -6 4 -1 18 -55 103 -72 113 -24 15 3 -82 28 -101 17 -12 16 -13 -8 -14 -15
0 -29 7 -33 15 -5 13 -9 12 -28 -7 -13 -13 -22 -29 -20 -36 2 -7 -4 -15 -13
-18 -9 -4 -15 -19 -15 -39 0 -28 4 -34 28 -39 24 -6 27 -11 26 -43 -2 -26 4
-41 19 -54 14 -12 17 -18 8 -19 -10 0 -12 -8 -7 -30 6 -34 -1 -38 -20 -12 -13
16 -13 16 -14 -1 0 -27 28 -115 56 -173 33 -69 81 -416 55 -400 -6 4 -11 17
-11 30 0 13 -9 33 -20 46 -27 31 -40 82 -40 156 0 62 -19 124 -47 156 -8 9
-16 31 -18 48 -4 57 -15 44 -15 -18 0 -46 4 -62 14 -62 17 0 25 -31 36 -135 5
-44 11 -93 14 -110 4 -16 3 -24 0 -17 -7 15 -24 16 -24 1 0 -25 44 -102 80
-140 22 -23 40 -50 40 -60 0 -9 6 -19 13 -22 7 -3 3 -8 -10 -13 -16 -7 -20
-13 -14 -23 5 -8 16 -11 24 -8 17 6 29 68 16 82 -5 5 -9 16 -9 25 1 11 5 10
19 -7 11 -13 34 -24 57 -27 75 -10 134 -28 128 -37 -3 -6 -16 -9 -27 -8 -52 6
-157 -32 -157 -56 0 -19 20 -19 47 0 13 9 52 18 88 22 l65 6 0 -41 c0 -54 18
-64 26 -14 l6 38 61 -4 c34 -2 92 -12 128 -23 78 -22 94 -23 177 -5 35 7 65 9
68 4 3 -4 -1 -8 -9 -8 -10 0 -16 -14 -19 -41 -3 -33 1 -44 18 -58 20 -16 21
-24 17 -83 -4 -49 -1 -74 10 -98 12 -23 14 -37 7 -50 -6 -10 -10 -32 -10 -49
0 -25 5 -32 28 -37 15 -3 32 -7 37 -9 6 -1 16 -19 22 -39 9 -30 9 -36 -3 -36
-8 0 -14 -7 -14 -16 0 -12 6 -15 26 -10 17 5 37 0 61 -14 42 -25 43 -25 43 0
0 13 -13 26 -39 39 -26 14 -41 29 -46 48 -3 15 -13 42 -20 58 -22 51 -26 84
-14 126 22 73 90 100 165 64 45 -21 48 -30 18 -50 -21 -14 -24 -21 -18 -48 3
-18 9 -34 13 -37 3 -3 7 -20 8 -38 1 -18 11 -45 22 -60 11 -16 17 -39 16 -57
-2 -16 0 -34 5 -41 6 -6 6 -23 0 -42 -6 -23 -5 -32 3 -32 29 1 57 50 57 99 0
16 6 31 14 34 7 3 17 20 21 39 11 49 12 52 1 60 -5 3 -10 26 -10 50 -2 49 -11
68 -31 68 -15 0 -55 51 -55 70 0 6 28 -14 63 -44 48 -43 65 -66 74 -98 10 -37
9 -45 -8 -66 -28 -36 -15 -68 58 -139 35 -35 66 -63 68 -63 3 0 5 10 5 21 0
12 -20 41 -45 67 -25 25 -42 48 -39 51 4 3 9 0 11 -6 3 -7 8 -13 13 -13 10 0
1 40 -12 57 -6 7 -1 24 14 48 23 36 23 36 79 30 47 -5 58 -3 63 11 4 11 -2 19
-24 27 -16 6 -30 18 -30 27 0 8 -9 21 -20 28 -18 11 -20 22 -19 135 1 130 7
126 29 -20 7 -45 9 -86 6 -92 -4 -5 -2 -12 4 -16 5 -3 10 -15 10 -26 0 -12 5
-19 13 -16 7 2 11 20 10 46 l-2 42 59 -2 c33 -1 63 1 67 4 11 11 -31 78 -52
83 -11 3 -36 4 -55 2 l-35 -3 -5 51 c-6 54 -35 120 -58 129 -8 3 -10 0 -6 -7
4 -7 3 -8 -5 -4 -6 4 -20 24 -31 45 -16 32 -17 45 -9 75 8 27 7 41 -1 52 -28
33 55 -11 95 -50 39 -39 135 -209 135 -239 0 -8 7 -28 15 -45 9 -17 18 -53 22
-81 5 -41 9 -51 24 -51 11 0 19 4 19 9 0 5 9 11 20 14 16 4 20 14 20 51 0 43
2 46 28 46 25 1 26 2 9 15 -11 7 -25 11 -33 8 -15 -6 -61 83 -49 95 4 4 106
10 228 14 278 10 267 10 475 5 l172 -4 0 24 0 23 -167 2 c-93 2 -190 2 -218 1
-390 -14 -537 -21 -542 -26 -3 -4 1 -21 10 -39 8 -18 18 -44 22 -58 4 -14 15
-36 25 -50 11 -17 16 -37 12 -62 -6 -49 -19 -49 -24 0 -7 52 -33 120 -92 241
-38 77 -63 115 -100 147 -26 24 -53 44 -60 44 -6 0 -29 9 -50 21 -63 33 -78
13 -50 -66 4 -11 -12 7 -35 39 -36 51 -40 61 -27 68 18 10 22 73 6 83 -5 3
-10 17 -10 30 0 13 -5 25 -12 27 -9 3 -9 12 2 38 11 26 11 35 2 38 -21 7 -13
22 13 22 14 0 25 -4 25 -10 0 -5 7 -10 15 -10 8 0 15 5 15 10 0 6 -7 10 -15
10 -8 0 -15 4 -15 10 0 5 -19 15 -43 21 -27 6 -58 25 -82 49 -22 22 -49 39
-60 40 -21 0 -75 -43 -75 -60 0 -6 -7 -10 -15 -10 -8 0 -15 9 -15 20 0 15 -7
20 -25 20 -14 0 -25 -5 -25 -11 0 -7 -51 -10 -157 -8 -274 4 -266 5 -287 -37
-12 -26 -14 -40 -7 -47 14 -14 14 -54 1 -62 -6 -3 -7 -17 -4 -31 8 -31 -19
-33 -40 -2 -11 16 -12 26 -5 41 8 14 8 26 -2 44 -11 20 -10 28 4 53 17 29 17
29 -13 60 -17 18 -29 35 -25 38 3 3 11 0 17 -6 20 -20 41 -14 36 11 -4 20 -1
22 46 22 120 1 160 9 205 42 2 2 -2 14 -9 28 -13 25 -40 35 -40 15 0 -5 -9 -1
-20 10 -19 19 -30 86 -17 107 4 6 2 13 -5 15 -7 3 -9 12 -5 22 6 16 18 17 129
11 146 -7 128 -7 346 -6 96 1 189 -1 208 -5 30 -5 34 -3 40 20 18 72 -13 176
-57 191 -8 3 -32 21 -53 40 -42 38 -56 43 -56 20z m-1080 -185 c0 -13 -5 -17
-20 -13 -12 3 -22 -1 -26 -11 -8 -22 -25 -20 -17 2 7 21 45 52 55 46 4 -3 8
-13 8 -24z m295 -30 c-4 -13 2 -24 20 -36 14 -9 25 -24 25 -33 0 -9 7 -4 15
13 9 16 13 36 11 43 -3 8 2 13 14 13 11 0 20 -4 20 -10 0 -5 9 -10 20 -10 23
0 26 -10 8 -28 -10 -10 -10 -15 2 -22 12 -7 13 -15 3 -39 -13 -36 -2 -49 50
-61 26 -6 19 -8 -35 -9 -53 -1 -68 2 -68 13 0 8 6 17 13 20 18 7 -23 37 -48
34 -11 -1 -30 7 -43 20 -29 29 -46 28 -40 -3 3 -14 1 -28 -4 -31 -5 -3 -7 -12
-4 -20 12 -31 -4 -42 -52 -36 -60 6 -69 15 -38 36 15 9 26 12 26 6 0 -5 6 -10
14 -10 16 0 28 46 29 113 1 41 3 46 19 41 11 -3 20 1 24 10 8 22 26 8 19 -14z
m45 5 c0 -8 -4 -15 -10 -15 -5 0 -10 7 -10 15 0 8 5 15 10 15 6 0 10 -7 10
-15z m-170 -59 c0 -8 6 -17 13 -19 7 -4 6 -6 -4 -6 -19 -1 -42 23 -32 32 11
12 23 8 23 -7z m-158 -1 c9 -4 13 -17 10 -40 -5 -44 -19 -45 -37 -3 -18 43 -9
57 27 43z m48 -45 c0 -5 -4 -10 -10 -10 -5 0 -10 5 -10 10 0 6 5 10 10 10 6 0
10 -4 10 -10z m245 -60 c4 -16 11 -30 17 -30 5 0 -1 -13 -15 -29 -21 -25 -24
-35 -17 -70 4 -23 6 -41 4 -41 -1 0 -10 -3 -19 -6 -14 -6 -14 -3 -4 20 17 37
0 54 -37 38 -20 -10 -25 -10 -22 0 3 7 14 14 26 16 26 4 28 17 6 30 -24 14 -9
30 22 24 26 -5 27 -4 21 37 -6 47 8 56 18 11z m55 -1 c0 -5 -4 -9 -10 -9 -5 0
-10 7 -10 16 0 8 5 12 10 9 6 -3 10 -10 10 -16z m-300 -15 c0 -8 5 -14 10 -14
6 0 10 4 10 9 0 5 9 11 21 14 24 7 37 -17 19 -38 -10 -12 -5 -13 39 -8 28 3
51 2 51 -3 -1 -14 -26 -44 -38 -44 -6 0 -15 -6 -19 -14 -5 -8 -27 -16 -53 -17
-43 -3 -45 -2 -42 21 5 49 2 72 -13 86 -8 9 -13 20 -9 25 7 13 24 1 24 -17z
m316 -45 c4 -8 29 -10 70 -6 70 5 82 -3 31 -21 -41 -15 -97 -16 -97 -2 0 19
-20 10 -33 -16 -19 -36 -33 -13 -17 27 13 30 33 38 46 18z m-153 -115 c-20
-15 -43 -18 -43 -6 0 10 43 29 53 24 5 -2 0 -10 -10 -18z m-83 1 c13 -8 13
-32 -1 -41 -6 -3 -14 -2 -18 4 -3 6 -19 16 -34 21 -16 6 -26 15 -22 20 5 10
58 7 75 -4z m103 -52 c-21 -8 -15 -39 11 -52 26 -15 47 -51 52 -94 3 -20 -3
-35 -22 -52 -20 -18 -25 -32 -22 -53 l4 -28 -41 9 c-77 18 -82 21 -83 68 -1
24 3 59 10 79 7 19 12 40 13 45 4 33 37 84 57 87 26 4 40 -2 21 -9z m87 -8
c16 -20 7 -29 -17 -17 -10 5 -25 7 -33 4 -13 -5 -13 -3 -1 11 17 21 35 22 51
2z m-200 -15 c0 -11 -6 -20 -14 -20 -21 0 -23 -15 -15 -89 15 -138 16 -181 4
-181 -12 0 -22 42 -30 115 -2 17 -8 62 -13 100 -10 74 -4 90 30 79 9 -2 19 0
23 6 10 15 15 12 15 -10z m50 10 c0 -5 -4 -10 -10 -10 -5 0 -10 5 -10 10 0 6
5 10 10 10 6 0 10 -4 10 -10z m870 -10 c0 -5 -2 -10 -4 -10 -3 0 -8 5 -11 10
-3 6 -1 10 4 10 6 0 11 -4 11 -10z m-504 -21 c7 -12 44 -11 44 1 0 14 238 13
278 -1 29 -10 31 -13 27 -52 -2 -23 -7 -55 -11 -71 l-7 -29 44 5 c36 4 45 2
46 -11 1 -9 5 -37 9 -62 6 -45 5 -47 -23 -57 -31 -10 -96 -82 -106 -117 -3
-11 -14 -45 -25 -75 -18 -53 -20 -54 -63 -59 -98 -10 -244 -6 -269 9 -16 9
-48 13 -91 11 -69 -2 -106 15 -95 45 3 9 -4 16 -22 19 -15 3 -47 12 -72 20
-25 8 -52 15 -61 15 -24 0 -49 33 -56 74 -5 34 7 50 22 26 9 -15 52 -12 59 5
3 8 -2 18 -11 23 -9 5 -13 14 -9 20 9 15 61 5 108 -21 49 -27 71 -17 66 28 -3
28 -1 35 11 33 9 -2 17 -13 19 -25 4 -29 19 -39 70 -48 38 -6 42 -5 42 14 0
12 -6 21 -14 21 -9 0 -16 16 -20 45 -3 25 -9 65 -12 90 -4 32 -2 45 6 45 9 0
10 13 6 44 -6 41 -5 45 16 48 34 5 87 -3 94 -13z m566 -64 c4 -36 -1 -42 -18
-25 -6 6 -18 8 -28 4 -13 -5 -14 -9 -4 -21 7 -8 17 -25 23 -37 6 -11 19 -20
28 -20 18 2 22 -14 9 -31 -4 -5 -22 -15 -40 -22 l-32 -11 -25 52 c-39 83 -31
156 17 156 10 0 18 5 18 10 0 6 11 3 24 -5 16 -10 25 -28 28 -50z m-162 -39
c0 -9 -30 -14 -35 -6 -4 6 3 10 14 10 12 0 21 -2 21 -4z m-640 -91 c7 -8 8
-15 2 -15 -5 0 -15 7 -22 15 -7 8 -8 15 -2 15 5 0 15 -7 22 -15z m-15 -55 c3
-5 1 -10 -4 -10 -6 0 -11 5 -11 10 0 6 2 10 4 10 3 0 8 -4 11 -10z m741 -46
c-7 -19 12 -28 29 -14 11 9 19 7 36 -8 11 -11 27 -18 34 -16 18 7 84 -83 135
-180 38 -75 40 -83 40 -172 0 -51 -4 -95 -10 -99 -22 -14 -60 9 -84 49 -28 49
-76 106 -89 106 -4 0 -21 10 -38 22 -23 17 -44 22 -89 23 l-60 0 0 43 c0 48
-15 55 -31 15 -7 -19 -7 -33 0 -44 7 -13 4 -22 -13 -38 -12 -11 -29 -21 -38
-21 -9 0 -18 -4 -20 -9 -4 -12 -58 -2 -58 12 0 5 6 15 14 21 8 6 25 43 39 82
47 132 89 204 120 204 7 0 22 11 35 25 24 24 58 24 48 -1z m-1026 -25 c0 -11
-4 -17 -10 -14 -5 3 -10 13 -10 21 0 8 5 14 10 14 6 0 10 -9 10 -21z m1060
-323 c70 -35 120 -92 120 -136 0 -17 -18 -4 -80 59 l-80 81 -53 0 c-29 0 -59
-6 -66 -12 -11 -11 -12 -10 -6 0 21 37 100 41 165 8z m-217 -93 c-1 -21 -6
-39 -12 -41 -6 -2 -11 -20 -11 -40 l-1 -37 -14 25 c-17 31 -19 100 -3 135 10
23 13 24 27 11 8 -9 15 -32 14 -53z m257 -102 c0 -12 -50 -44 -57 -37 -3 3 2
8 11 12 9 3 16 12 16 20 0 8 7 14 15 14 8 0 15 -4 15 -9z m8 -119 c2 -34 -1
-62 -5 -62 -4 0 -17 18 -27 40 -16 33 -17 44 -7 66 19 42 36 23 39 -44z m47
-52 c-3 -5 -10 -10 -16 -10 -5 0 -9 5 -9 10 0 6 7 10 16 10 8 0 12 -4 9 -10z
m85 -20 c0 -5 -4 -10 -10 -10 -5 0 -10 5 -10 10 0 6 5 10 10 10 6 0 10 -4 10
-10z"/>
<path d="M673 2413 c-18 -2 -33 -8 -33 -13 0 -16 61 -21 200 -18 112 2 135 6
135 18 0 13 -22 15 -135 16 -74 1 -150 -1 -167 -3z"/>
<path d="M710 2213 c0 -5 5 -15 10 -23 9 -13 11 -13 19 0 5 8 7 18 5 22 -6 10
-34 11 -34 1z"/>
<path d="M782 2200 c2 -8 14 -17 28 -18 14 -2 31 -9 38 -14 9 -8 12 -6 12 5 0
8 3 22 6 30 4 13 -3 15 -40 14 -35 -2 -46 -6 -44 -17z"/>
<path d="M337 2133 c-25 -25 11 -44 43 -23 13 9 13 11 0 20 -18 11 -34 13 -43
3z"/>
<path d="M502 2133 c-31 -6 -23 -27 14 -34 l29 -6 -27 -11 c-26 -11 -38 -31
-20 -33 98 -11 129 -1 82 29 -12 7 -17 18 -13 28 3 9 0 20 -8 25 -15 9 -19 9
-57 2z"/>
<path d="M410 2114 c0 -8 5 -24 11 -35 8 -16 13 -18 24 -9 11 9 11 17 3 36
-12 27 -38 33 -38 8z"/>
<path d="M616 2102 c-2 -4 -1 -14 3 -21 7 -10 12 -10 30 0 11 8 21 17 21 21 0
11 -47 10 -54 0z"/>
<path d="M230 3090 c0 -5 5 -10 10 -10 6 0 10 5 10 10 0 6 -4 10 -10 10 -5 0
-10 -4 -10 -10z"/>
<path d="M513 3023 l-2 -54 30 6 c18 4 29 3 29 -4 0 -6 7 -11 15 -11 13 0 15
11 13 58 l-3 57 -40 2 -40 1 -2 -55z"/>
<path d="M623 3072 c-8 -5 -9 -13 -3 -22 7 -12 12 -12 22 -2 14 14 -1 35 -19
24z"/>
<path d="M153 3053 c-4 -9 -2 -18 4 -20 6 -2 8 -13 5 -25 -5 -19 -2 -21 28
-15 18 4 36 7 41 7 16 0 20 40 5 55 -20 21 -75 20 -83 -2z m64 -19 c-3 -3 -12
-4 -19 -1 -8 3 -5 6 6 6 11 1 17 -2 13 -5z"/>
<path d="M450 3062 c0 -5 10 -19 22 -32 20 -21 23 -22 26 -7 2 9 -3 24 -12 32
-16 16 -36 20 -36 7z"/>
<path d="M900 3061 c0 -20 13 -41 21 -35 15 9 10 44 -6 44 -8 0 -15 -4 -15 -9z"/>
<path d="M302 3037 c3 -25 21 -30 26 -6 2 9 -4 19 -13 23 -13 4 -16 1 -13 -17z"/>
<path d="M373 3043 c-14 -5 -18 -43 -5 -43 12 0 32 23 32 37 0 13 -6 15 -27 6z"/>
<path d="M2022 3033 c2 -10 8 -18 13 -18 5 0 11 8 13 18 2 10 -3 17 -13 17
-10 0 -15 -7 -13 -17z"/>
<path d="M2434 3038 c-4 -6 4 -19 17 -29 21 -16 25 -16 32 -3 5 9 7 16 5 17
-1 1 -13 8 -25 14 -16 9 -24 10 -29 1z"/>
<path d="M405 2999 c-4 -6 -5 -13 -2 -16 7 -7 27 6 27 18 0 12 -17 12 -25 -2z"/>
<path d="M837 2998 c-8 -22 -2 -73 8 -73 6 0 11 19 13 43 3 39 -10 58 -21 30z"/>
<path d="M696 2992 c-8 -13 5 -52 15 -46 12 7 12 54 0 54 -6 0 -12 -4 -15 -8z"/>
<path d="M2078 2989 c-25 -14 -22 -31 4 -27 13 2 24 11 26 21 4 19 -5 21 -30
6z"/>
<path d="M2099 2818 c-9 -84 -1 -98 37 -71 16 11 35 22 42 24 22 7 -25 59 -54
59 -13 0 -25 -6 -25 -12z"/>
<path d="M1837 2723 c-5 -7 -19 -13 -33 -13 -13 0 -24 -4 -24 -10 0 -10 13
-14 43 -11 9 1 17 -4 17 -13 0 -8 8 -15 18 -15 9 0 26 -1 37 -3 11 -2 21 3 23
13 2 12 -7 18 -32 23 -21 4 -36 13 -38 24 -3 12 -6 14 -11 5z"/>
<path d="M856 2696 c3 -8 1 -17 -5 -21 -16 -9 -13 -35 3 -35 8 0 17 4 21 10 7
12 -5 60 -16 60 -5 0 -6 -6 -3 -14z"/>
<path d="M1737 2690 c3 -11 9 -20 14 -20 5 0 9 9 9 20 0 11 -6 20 -14 20 -9 0
-12 -7 -9 -20z"/>
<path d="M1574 2676 c-8 -22 3 -33 18 -18 9 9 9 15 0 24 -9 9 -13 7 -18 -6z"/>
<path d="M1644 2678 c-8 -12 -5 -14 34 -23 25 -5 32 -3 32 8 0 17 -57 29 -66
15z"/>
<path d="M980 2671 c0 -26 15 -41 46 -47 31 -6 33 -8 27 -36 -5 -24 -3 -30 8
-26 8 2 15 13 17 24 2 12 16 25 34 32 26 10 36 9 55 -3 14 -10 33 -13 49 -9
20 5 33 0 61 -27 23 -22 37 -30 40 -21 3 6 9 12 15 12 6 0 8 -7 4 -15 -9 -24
14 -63 41 -68 14 -2 39 3 56 12 23 11 75 18 182 23 83 4 220 11 305 16 121 7
161 6 181 -4 22 -11 30 -11 45 1 22 17 164 21 164 5 0 -5 -10 -10 -22 -10 -13
0 -36 -7 -52 -15 -15 -8 -34 -15 -41 -15 -20 0 -40 -29 -28 -41 7 -7 24 -4 54
12 24 12 62 23 84 24 23 1 41 6 41 13 1 7 2 17 3 22 0 6 30 10 65 10 36 0 68
5 71 10 4 7 19 3 41 -10 l34 -22 0 52 c0 47 -1 50 -16 36 -8 -9 -18 -16 -22
-17 -4 0 -23 -3 -42 -5 -19 -3 -100 -5 -179 -5 -84 1 -149 -3 -156 -9 -8 -7
-23 -6 -45 2 -26 8 -87 8 -254 -1 -196 -10 -366 -13 -448 -8 -20 1 -28 7 -28
20 0 22 -40 39 -57 25 -9 -7 -15 -6 -19 5 -6 17 -48 37 -79 37 -135 2 -186 7
-196 18 -15 14 -39 16 -39 3z"/>
<path d="M1440 2658 c0 -16 5 -28 10 -28 13 0 13 20 0 40 -8 12 -10 9 -10 -12z"/>
<path d="M1492 2658 c7 -20 48 -23 48 -4 0 11 -9 16 -26 16 -16 0 -24 -5 -22
-12z"/>
<path d="M1753 2633 c-30 -6 -29 -21 1 -29 29 -7 46 1 46 22 0 14 -6 15 -47 7z"/>
<path d="M1140 2586 c0 -22 42 -48 55 -35 7 7 3 16 -14 30 -28 23 -41 24 -41
5z"/>
<path d="M710 2573 c0 -36 245 -33 257 3 2 7 -42 10 -127 10 -92 -1 -130 -4
-130 -13z"/>
<path d="M1940 2514 c-36 -7 -90 -13 -120 -14 -31 0 -87 -9 -125 -20 -39 -11
-97 -22 -129 -24 -48 -2 -63 -7 -74 -24 -11 -16 -25 -22 -54 -22 -35 0 -39 2
-33 20 10 31 -4 44 -26 24 -22 -20 -25 -40 -6 -47 9 -4 9 -8 -2 -15 -11 -8 -9
-14 8 -31 20 -20 31 -21 119 -20 151 3 499 -19 530 -34 30 -15 279 -16 302 -2
7 4 16 2 21 -6 11 -18 209 -23 209 -5 0 20 -55 37 -98 30 -50 -8 -81 1 -64 18
18 18 14 38 -8 38 -15 0 -20 7 -20 25 0 16 -6 25 -15 25 -9 0 -15 -9 -15 -25
0 -18 -5 -25 -19 -25 -11 0 -26 -9 -34 -20 -12 -17 -26 -19 -128 -20 -164 -1
-289 9 -295 24 -3 9 -22 10 -72 5 -37 -4 -96 -3 -132 2 -36 5 -90 9 -120 9
l-55 1 24 19 c16 14 38 20 71 20 26 0 84 11 129 24 45 13 92 21 105 19 13 -3
59 3 102 12 44 10 97 20 119 24 22 3 38 11 35 16 -7 14 -53 13 -130 -1z"/>
<path d="M2542 2463 c-8 -15 -9 -24 -1 -28 15 -10 21 0 17 27 l-3 23 -13 -22z"/>
<path d="M2525 2359 c-8 -25 -3 -31 19 -23 20 8 21 44 2 44 -8 0 -18 -9 -21
-21z"/>
<path d="M1289 2363 c0 -5 -2 -23 -4 -41 -2 -29 -1 -32 19 -26 34 10 40 21 28
49 -11 23 -41 35 -43 18z"/>
<path d="M1366 2304 c-3 -9 -6 -24 -6 -35 0 -12 -10 -23 -25 -29 -36 -14 -31
-25 20 -56 43 -25 49 -26 142 -19 108 8 221 35 213 50 -6 12 -77 10 -93 -3 -7
-5 -52 -13 -102 -16 -73 -6 -96 -4 -122 9 -36 18 -44 45 -14 45 23 0 40 22 23
28 -7 2 -12 12 -12 23 0 23 -15 25 -24 3z"/>
<path d="M0 2290 c0 -11 5 -20 10 -20 6 0 10 9 10 20 0 11 -4 20 -10 20 -5 0
-10 -9 -10 -20z"/>
<path d="M1675 2280 c-9 -15 16 -22 70 -18 28 2 50 8 53 16 5 15 -114 17 -123
2z"/>
<path d="M25 2043 c2 -16 4 -31 4 -35 1 -5 6 -8 11 -8 11 0 13 30 4 54 -10 26
-23 18 -19 -11z"/>
<path d="M90 1965 c0 -16 6 -25 15 -25 9 0 15 9 15 25 0 16 -6 25 -15 25 -9 0
-15 -9 -15 -25z"/>
<path d="M60 1913 c0 -5 12 -19 25 -32 27 -25 35 -52 10 -31 -12 10 -16 9 -21
-3 -8 -23 3 -37 31 -37 16 0 25 7 29 25 4 14 11 25 16 25 6 0 10 10 10 21 0
16 -5 20 -20 16 -10 -3 -27 1 -37 9 -20 15 -43 18 -43 7z"/>
<path d="M325 1871 c-6 -5 -26 -11 -45 -13 -29 -2 -35 -7 -35 -27 0 -13 6 -26
13 -28 6 -3 12 3 12 12 0 12 6 16 18 12 9 -3 26 -8 37 -12 14 -4 24 0 32 14
21 34 -6 68 -32 42z m15 -31 c0 -5 -2 -10 -4 -10 -3 0 -8 5 -11 10 -3 6 -1 10
4 10 6 0 11 -4 11 -10z"/>
<path d="M197 1854 c-11 -11 -8 -44 3 -44 15 0 24 30 13 41 -5 5 -12 6 -16 3z"/>
<path d="M2033 1809 c-12 -4 -50 -11 -85 -15 -35 -3 -70 -10 -78 -15 -26 -14
15 -22 73 -15 29 3 98 10 155 15 105 9 118 12 108 29 -7 12 -142 12 -173 1z"/>
<path d="M2392 1759 c5 -15 57 -31 77 -24 22 8 1 22 -43 31 -30 5 -38 4 -34
-7z"/>
<path d="M73 1734 c-34 -28 -35 -44 -2 -44 12 0 23 10 30 27 15 41 7 46 -28
17z"/>
<path d="M370 1735 c-27 -29 -23 -39 14 -29 21 5 24 9 15 20 -6 7 -8 18 -4 24
11 18 -1 11 -25 -15z"/>
<path d="M158 1742 c-30 -4 -40 -35 -14 -45 24 -9 56 4 56 24 0 22 -7 26 -42
21z"/>
<path d="M2367 1714 c-9 -10 2 -24 19 -24 8 0 14 7 14 15 0 15 -21 21 -33 9z"/>
<path d="M2535 1687 c-19 -15 -13 -37 11 -37 8 0 14 10 14 25 0 29 0 29 -25
12z"/>
<path d="M0 1677 c0 -8 7 -14 15 -14 8 0 15 6 15 14 0 7 -7 13 -15 13 -8 0
-15 -6 -15 -13z"/>
<path d="M2400 1671 c0 -14 41 -41 62 -41 24 0 23 27 -1 40 -25 13 -61 13 -61
1z"/>
<path d="M307 1664 c-11 -12 3 -24 29 -24 16 0 24 5 22 13 -5 13 -40 22 -51
11z"/>
<path d="M0 1619 c0 -5 4 -7 10 -4 5 3 10 8 10 11 0 2 -4 4 -10 4 -5 0 -10 -5
-10 -11z"/>
<path d="M252 1619 c2 -7 34 -22 71 -33 54 -16 67 -24 67 -40 1 -18 2 -19 13
-6 7 8 18 15 25 15 20 0 17 20 -4 24 -10 1 -26 9 -34 16 -15 12 -46 22 -109
32 -25 4 -32 2 -29 -8z"/>
<path d="M1610 1586 c0 -9 19 -16 60 -20 69 -8 93 0 65 21 -26 18 -125 18
-125 -1z"/>
<path d="M562 1550 c-23 -10 -39 -36 -29 -46 3 -3 19 4 36 17 27 20 33 21 61
9 17 -7 33 -10 37 -6 3 3 12 1 19 -5 15 -12 26 2 15 20 -10 16 -109 24 -139
11z"/>
<path d="M2414 1545 c-4 -8 -14 -15 -24 -15 -11 0 -21 -4 -25 -9 -8 -15 15
-25 28 -12 18 18 89 13 130 -9 l37 -20 0 21 c0 18 -2 19 -15 9 -10 -9 -15 -9
-15 -1 0 6 -9 20 -20 31 -24 24 -88 28 -96 5z"/>
<path d="M415 1530 c-6 -10 33 -40 53 -40 7 0 12 8 10 17 -3 18 -55 37 -63 23z"/>
<path d="M730 1525 c0 -8 0 -18 0 -22 0 -5 5 -9 10 -11 6 -2 10 8 10 22 0 14
-4 26 -10 26 -5 0 -10 -7 -10 -15z"/>
<path d="M793 1515 c-3 -9 -3 -18 0 -22 10 -10 37 6 37 22 0 20 -29 20 -37 0z"/>
<path d="M147 1490 c7 -25 19 -34 28 -20 7 11 -11 40 -25 40 -5 0 -6 -9 -3
-20z"/>
<path d="M1422 1484 c2 -15 15 -20 58 -25 30 -4 83 -10 118 -14 36 -5 139 -3
248 5 160 11 184 15 182 29 -3 13 -15 15 -63 13 -136 -7 -415 -5 -479 3 -64 7
-68 7 -64 -11z"/>
<path d="M40 1385 c0 -14 4 -25 9 -25 12 0 19 21 13 38 -8 21 -22 13 -22 -13z"/>
<path d="M2551 1384 c0 -11 3 -14 6 -6 3 7 2 16 -1 19 -3 4 -6 -2 -5 -13z"/>
<path d="M404 1359 c-10 -17 13 -36 27 -22 12 12 4 33 -11 33 -5 0 -12 -5 -16
-11z"/>
<path d="M1262 1333 c-13 -43 -2 -64 23 -43 14 11 21 8 49 -19 19 -18 36 -46
40 -62 4 -21 11 -29 26 -29 22 0 37 -27 45 -88 8 -53 -18 -83 -78 -89 l-47 -6
0 40 c0 23 7 57 16 78 16 39 14 51 -9 42 -19 -7 -37 -82 -37 -151 0 -45 -4
-58 -20 -68 -11 -7 -20 -18 -20 -25 0 -15 -99 51 -118 79 -20 28 -35 9 -21
-29 6 -19 21 -36 40 -43 46 -19 79 -49 79 -71 0 -11 -4 -18 -9 -14 -5 3 -11
-5 -13 -17 -3 -22 -4 -22 -36 11 -18 18 -26 31 -17 28 24 -10 18 29 -7 47 -18
13 -24 13 -30 3 -13 -24 10 -91 40 -117 19 -16 32 -37 34 -58 4 -30 1 -34 -30
-48 -19 -8 -36 -13 -37 -12 -6 9 -25 194 -25 241 0 49 -4 61 -31 92 -17 19
-37 35 -45 35 -10 0 -13 7 -8 25 8 32 -4 115 -17 115 -5 0 -9 -26 -9 -58 0
-63 -6 -78 -25 -62 -8 7 -22 5 -43 -6 -27 -13 -30 -19 -22 -34 6 -10 15 -22
20 -25 6 -3 10 -11 10 -17 0 -6 -18 6 -40 26 -27 25 -50 36 -70 36 -39 0 -46
19 -26 70 19 47 21 83 5 78 -13 -4 -39 -74 -39 -106 0 -20 -4 -22 -22 -17 -13
4 -33 14 -46 22 -32 20 -178 43 -191 30 -16 -16 -61 9 -61 33 0 25 -11 25 -33
0 -21 -25 -21 -39 -1 -65 18 -24 73 -27 91 -5 11 13 13 12 19 -8 5 -17 13 -22
33 -20 15 1 47 -8 73 -21 25 -12 62 -25 82 -28 l36 -6 0 -147 c0 -119 3 -150
15 -160 8 -7 15 -27 15 -45 0 -19 6 -35 14 -38 7 -3 16 -15 19 -26 5 -19 1
-21 -49 -21 -59 0 -98 -15 -127 -49 -16 -20 -24 -21 -154 -16 -92 4 -140 9
-146 18 -7 9 -10 9 -14 0 -6 -16 -49 -17 -58 -3 -5 8 -11 8 -20 0 -7 -6 -25
-8 -39 -4 -22 5 -26 12 -26 45 0 43 -9 48 -33 21 -21 -23 -22 -42 -2 -42 8 0
15 -5 15 -11 0 -7 -23 -9 -75 -4 -71 7 -75 6 -75 -13 0 -20 24 -32 66 -32 16
0 22 -6 22 -25 0 -27 -12 -33 -25 -11 -4 7 -20 15 -35 18 -25 5 -28 2 -28 -23
0 -22 5 -29 19 -29 10 0 35 -7 55 -15 34 -14 43 -14 97 0 65 16 151 19 184 6
14 -6 4 -9 -34 -9 -84 -1 -93 -34 -11 -39 113 -8 160 -16 160 -27 0 -16 58
-66 77 -66 13 0 13 3 -1 26 l-17 25 33 -5 c103 -16 146 -17 151 -3 5 13 86 36
180 52 20 3 37 9 37 13 0 13 73 57 114 69 67 21 93 17 100 -13 4 -15 5 -29 2
-32 -3 -3 -34 -6 -70 -7 -71 -3 -106 -12 -106 -26 0 -12 154 -12 200 0 19 5
47 12 61 15 26 6 27 8 25 78 l-1 73 -42 -1 c-24 0 -51 -8 -60 -16 -10 -9 -35
-19 -56 -22 -21 -4 -45 -10 -53 -13 -9 -3 -14 2 -14 16 0 12 -6 21 -14 21 -15
0 -27 42 -17 58 3 5 16 14 29 21 12 7 20 16 17 22 -4 5 5 9 18 9 14 0 30 7 37
15 7 8 24 15 37 15 14 0 40 7 59 16 50 24 65 10 16 -15 -51 -26 -46 -46 9 -38
42 5 53 -7 43 -48 -8 -31 4 -36 57 -24 51 12 65 22 53 41 -5 7 -9 27 -10 43
-3 68 -1 66 -44 61 -24 -3 -40 -1 -40 6 0 5 -10 24 -22 40 l-21 30 21 -11 c12
-7 22 -16 22 -21 0 -12 34 -22 54 -14 23 9 20 23 -6 33 -22 9 -22 10 9 21 18
6 35 21 39 33 4 12 16 42 27 65 15 33 17 46 8 51 -9 6 -8 11 4 21 8 7 15 20
15 30 0 9 11 29 25 44 30 33 32 70 5 146 -11 30 -19 67 -20 82 0 29 -18 47
-29 29 -5 -7 -23 5 -52 34 -24 25 -50 45 -56 45 -7 0 -13 7 -13 15 0 28 -17
15 -28 -22z m-214 -357 c16 -17 21 -38 23 -111 2 -56 -2 -105 -10 -128 -15
-43 -8 -72 15 -63 8 3 12 2 9 -4 -3 -6 -30 -9 -58 -9 -29 1 -40 4 -24 6 31 5
33 16 12 57 -8 15 -15 43 -15 62 0 18 -10 53 -22 76 -14 27 -23 63 -24 99 l-2
56 38 -9 c21 -6 47 -20 58 -32z m-164 -11 l32 -35 -4 -120 c-4 -109 -3 -122
14 -135 17 -13 13 -14 -38 -15 -54 0 -57 2 -78 35 -12 19 -25 35 -28 35 -13 0
-13 241 -1 256 22 26 69 17 103 -21z m84 -182 c-2 -14 -9 -28 -15 -31 -9 -2
-13 11 -13 49 0 51 1 53 16 31 8 -12 14 -34 12 -49z m32 -173 c-8 -5 -22 -10
-30 -10 -13 0 -13 1 0 10 8 5 22 10 30 10 13 0 13 -1 0 -10z m-30 -40 c0 -5
-12 -10 -27 -9 l-28 1 25 8 c14 4 26 8 28 9 1 1 2 -3 2 -9z m-130 -51 c0 -5 5
-7 10 -4 13 8 46 -25 33 -33 -13 -10 -11 -58 5 -74 20 -20 14 -28 -20 -28 -18
-1 -60 -7 -92 -15 -39 -9 -65 -11 -77 -4 -10 5 -30 9 -46 9 -33 0 -47 8 -56
33 -7 18 -42 24 -51 8 -8 -12 -128 -2 -144 12 -22 18 12 26 122 26 l99 1 34
35 c30 31 39 34 101 38 37 2 70 4 75 5 4 1 7 -3 7 -9z m160 -53 c0 -3 -4 -8
-10 -11 -5 -3 -10 -1 -10 4 0 6 5 11 10 11 6 0 10 -2 10 -4z m-430 -126 c23
-7 22 -8 -10 -9 -20 -1 -41 -6 -48 -13 -9 -9 -12 -8 -12 4 0 26 26 32 70 18z"/>
<path d="M290 1345 c-8 -9 -8 -15 -2 -15 18 0 42 12 42 21 0 14 -26 10 -40 -6z"/>
<path d="M2460 1341 c0 -5 7 -11 15 -15 9 -3 15 0 15 9 0 8 -7 15 -15 15 -8 0
-15 -4 -15 -9z"/>
<path d="M2506 1311 c-10 -16 5 -41 24 -41 27 0 33 16 14 34 -17 18 -30 20
-38 7z"/>
<path d="M312 1298 c-6 -6 -12 -19 -12 -27 0 -13 2 -13 16 1 9 9 15 21 13 27
-3 9 -8 8 -17 -1z"/>
<path d="M722 1284 c2 -12 15 -21 38 -25 19 -4 45 -10 58 -14 16 -6 22 -3 22
8 0 21 -26 35 -80 43 -38 6 -42 5 -38 -12z"/>
<path d="M130 1272 c0 -19 49 -72 67 -72 6 0 13 11 15 25 5 25 -5 34 -17 15
-9 -14 -24 -3 -35 26 -11 28 -30 32 -30 6z"/>
<path d="M90 1236 c0 -17 5 -26 16 -26 10 0 14 7 12 22 -5 32 -28 35 -28 4z"/>
<path d="M2498 1239 c-15 -11 -25 -26 -22 -33 3 -8 -7 -23 -23 -35 -90 -69
-202 -163 -229 -192 -17 -19 -55 -54 -84 -79 -30 -25 -76 -65 -104 -90 -28
-25 -64 -56 -80 -70 -16 -14 -70 -66 -120 -116 -50 -49 -116 -110 -146 -135
-30 -24 -57 -48 -58 -52 -6 -12 -92 -91 -104 -96 -20 -7 -154 -124 -177 -154
-7 -10 -33 -27 -57 -37 -24 -11 -44 -25 -44 -32 0 -7 -19 -32 -42 -55 -36 -36
-39 -43 -22 -43 12 0 29 9 39 20 10 11 27 22 39 26 11 4 35 21 51 38 54 55
160 150 201 179 22 15 74 60 115 100 41 39 98 92 127 117 29 25 98 89 155 143
56 55 149 140 207 189 58 50 121 109 142 132 20 23 66 64 103 91 79 59 131
107 163 152 37 54 22 71 -30 32z"/>
<path d="M0 1235 c0 -7 6 -18 13 -22 8 -4 17 -17 21 -28 8 -18 9 -17 17 10 7
23 5 33 -8 43 -23 16 -43 15 -43 -3z"/>
<path d="M2411 1236 c-9 -10 -7 -16 5 -27 13 -11 17 -10 25 2 21 34 -5 56 -30
25z"/>
<path d="M250 1225 c0 -9 5 -15 10 -13 12 4 11 16 -1 24 -5 3 -9 -2 -9 -11z"/>
<path d="M250 1182 c0 -10 22 -32 32 -32 4 0 8 9 8 20 0 13 -7 20 -20 20 -11
0 -20 -4 -20 -8z"/>
<path d="M125 1118 c-16 -6 -36 -12 -42 -14 -18 -5 -16 -63 1 -70 7 -3 29 1
48 9 29 12 34 19 35 51 1 20 -2 36 -5 35 -4 -1 -20 -6 -37 -11z"/>
<path d="M303 1118 c2 -15 -3 -15 -61 -4 -30 5 -48 4 -55 -3 -9 -9 -6 -13 11
-17 22 -6 29 -19 14 -26 -5 -1 -12 -15 -16 -30 -9 -38 13 -37 39 3 21 32 13
32 118 12 24 -5 27 -3 27 24 0 22 -7 33 -25 41 -34 16 -56 15 -52 0z"/>
<path d="M0 1070 c0 -27 4 -50 9 -50 5 0 16 -3 25 -6 13 -5 15 1 13 34 -2 38
-20 72 -38 72 -5 0 -9 -22 -9 -50z"/>
<path d="M416 1005 c-14 -10 -17 -18 -10 -25 14 -14 67 6 61 23 -6 18 -29 19
-51 2z"/>
<path d="M1739 985 c-34 -19 -45 -45 -19 -45 10 0 22 5 25 10 3 6 19 10 36 10
31 0 41 23 13 34 -21 8 -25 7 -55 -9z"/>
<path d="M226 961 c-4 -5 -2 -12 3 -15 5 -4 12 -2 15 3 4 5 2 12 -3 15 -5 4
-12 2 -15 -3z"/>
<path d="M166 945 c-10 -7 -15 -18 -11 -24 14 -24 59 -4 49 22 -7 20 -13 21
-38 2z"/>
<path d="M455 867 c-24 -18 -11 -41 16 -27 10 6 19 17 19 25 0 19 -11 19 -35
2z"/>
<path d="M46 853 c-12 -13 -6 -53 9 -53 9 0 15 9 15 24 0 26 -12 40 -24 29z"/>
<path d="M470 820 c-12 -8 -12 -10 3 -16 21 -8 35 2 21 16 -5 5 -15 6 -24 0z"/>
<path d="M0 632 c0 -15 11 -22 46 -31 45 -11 64 -9 64 10 0 11 -28 23 -77 34
-29 6 -33 4 -33 -13z"/>
<path d="M1291 441 c-20 -13 -4 -31 27 -31 34 0 57 14 48 29 -8 13 -55 14 -75
2z"/>
<path d="M142 343 c5 -25 25 -27 38 -4 10 19 8 21 -15 21 -19 0 -26 -5 -23
-17z"/>
<path d="M0 321 c0 -25 28 -41 66 -39 16 1 35 0 43 -3 7 -2 15 1 17 6 4 12
-41 35 -69 35 -10 0 -27 5 -38 10 -16 9 -19 7 -19 -9z"/>
<path d="M1081 306 c-8 -10 -9 -16 -1 -21 16 -10 50 4 50 21 0 18 -34 18 -49
0z"/>
<path d="M283 283 c-23 -9 -15 -35 10 -31 12 2 22 9 22 17 0 16 -14 22 -32 14z"/>
<path d="M435 270 c3 -5 10 -10 16 -10 5 0 9 5 9 10 0 6 -7 10 -16 10 -8 0
-12 -4 -9 -10z"/>
<path d="M595 261 c-3 -6 3 -15 12 -20 17 -10 17 -12 -1 -26 -20 -15 -15 -50
6 -43 15 5 35 45 44 86 3 14 -52 17 -61 3z"/>
<path d="M370 235 c0 -17 5 -25 13 -22 6 2 12 12 12 22 0 10 -6 20 -12 23 -8
2 -13 -6 -13 -23z"/>
<path d="M190 235 c0 -8 4 -15 10 -15 5 0 18 -9 29 -21 25 -27 38 -7 17 26
-18 27 -56 34 -56 10z"/>
<path d="M280 225 c0 -8 7 -15 15 -15 8 0 15 4 15 9 0 5 -7 11 -15 15 -9 3
-15 0 -15 -9z"/>
<path d="M142 213 c3 -18 55 -37 63 -23 5 9 -38 40 -55 40 -6 0 -10 -8 -8 -17z"/>
<path d="M455 199 c-5 -13 -2 -25 6 -30 28 -17 41 19 15 40 -12 10 -16 8 -21
-10z"/>
<path d="M514 184 c3 -9 6 -17 6 -20 0 -10 63 -34 90 -34 39 0 31 15 -17 31
-21 7 -44 18 -51 26 -18 18 -35 17 -28 -3z"/>
<path d="M0 138 c0 -37 15 -58 30 -42 5 5 0 25 -10 44 l-19 35 -1 -37z"/>
<path d="M240 111 c0 -23 5 -41 10 -41 6 0 10 5 11 10 4 42 1 64 -9 68 -8 2
-12 -10 -12 -37z"/>
<path d="M342 124 c1 -9 9 -19 16 -22 9 -3 13 2 10 14 -1 9 -9 19 -16 22 -9 3
-13 -2 -10 -14z"/>
<path d="M454 109 c-7 -11 22 -47 30 -38 8 7 -5 49 -15 49 -4 0 -11 -5 -15
-11z"/>
<path d="M93 93 c-7 -2 -13 -12 -13 -20 0 -12 7 -14 31 -9 17 3 40 6 50 6 11
0 19 7 19 15 0 11 -10 15 -37 14 -21 0 -44 -3 -50 -6z"/>
<path d="M562 73 c-17 -7 -5 -23 19 -23 10 0 19 7 19 15 0 15 -14 18 -38 8z"/>
<path d="M170 40 c0 -5 9 -10 21 -10 11 0 17 5 14 10 -3 6 -13 10 -21 10 -8 0
-14 -4 -14 -10z"/>
<path d="M630 30 c0 -5 9 -10 20 -10 11 0 20 5 20 10 0 6 -9 10 -20 10 -11 0
-20 -4 -20 -10z"/>
<path d="M1315 10 l-40 -7 43 -2 c23 0 42 4 42 9 0 6 -1 9 -2 9 -2 -1 -21 -5
-43 -9z"/>
</g>
</svg>
