<?xml version="1.0" standalone="no"?>
<!DOCTYPE svg PUBLIC "-//W3C//DTD SVG 20010904//EN"
 "http://www.w3.org/TR/2001/REC-SVG-20010904/DTD/svg10.dtd">
<svg version="1.0" xmlns="http://www.w3.org/2000/svg"
 width="384.000000pt" height="256.000000pt" viewBox="0 0 384.000000 256.000000"
 preserveAspectRatio="xMidYMid meet">
<metadata>
Created by potrace 1.16, written by Peter Selinger 2001-2019
</metadata>
<g transform="translate(0.000000,256.000000) scale(0.100000,-0.100000)"
fill="#000000" stroke="none">
<path d="M0 2311 c0 -20 18 -31 50 -31 19 0 522 -164 615 -200 28 -11 114 -45
193 -75 185 -73 380 -125 464 -125 20 0 67 -11 105 -24 72 -26 224 -69 283
-81 44 -8 150 -48 150 -56 0 -3 -10 -10 -22 -16 -13 -6 -47 -29 -77 -53 -74
-59 -93 -104 -113 -280 -3 -24 -1 -25 45 -22 62 5 85 -14 82 -66 -2 -32 -6
-37 -29 -40 -14 -2 -26 1 -26 7 0 6 -10 11 -22 11 -17 0 -31 -14 -53 -51 -16
-28 -35 -56 -41 -62 -6 -7 -15 -20 -21 -31 -7 -14 -23 -19 -59 -20 -104 -4
-297 -105 -365 -191 -24 -30 -56 -60 -72 -67 -59 -28 -11 -62 108 -75 27 -3
61 -14 74 -25 13 -10 35 -18 48 -18 13 0 50 -13 81 -28 70 -35 120 -46 138
-31 22 18 17 75 -10 103 -27 30 -48 33 -67 10 -11 -14 -9 -19 11 -35 14 -10
31 -19 38 -19 6 0 12 -7 12 -15 0 -30 -54 -17 -87 20 -29 32 -36 35 -87 35
-43 0 -56 3 -56 15 0 8 12 17 28 21 33 7 96 39 138 71 21 15 45 23 72 23 32 0
61 12 126 50 47 28 88 50 91 50 4 0 20 9 36 21 29 20 30 20 57 2 15 -10 33
-21 41 -24 9 -3 -3 -15 -34 -34 -55 -32 -127 -103 -122 -119 2 -6 19 -10 38
-8 29 2 37 -3 54 -30 29 -49 29 -49 -2 -43 -66 15 -93 27 -93 42 0 12 -7 14
-31 9 -17 -3 -40 -6 -50 -6 -21 0 -26 -29 -6 -34 6 -2 41 -12 77 -21 36 -10
102 -35 146 -57 45 -21 84 -38 88 -38 4 0 26 -13 49 -29 59 -40 110 -53 136
-34 12 8 21 23 21 34 0 15 7 19 34 19 26 0 36 5 41 21 6 19 8 19 24 5 15 -13
47 -16 183 -16 153 0 166 1 170 18 6 21 80 32 226 32 69 0 89 -4 113 -20 23
-17 41 -20 91 -18 48 2 63 7 63 18 0 11 -16 16 -65 21 -54 5 -44 6 53 7 65 1
127 7 137 12 26 14 15 44 -14 35 -11 -3 -136 -10 -276 -16 -324 -12 -565 -25
-610 -33 -73 -12 -74 -4 -17 102 66 124 71 130 139 180 59 43 127 118 140 153
9 24 -22 59 -54 59 -34 0 -119 52 -175 107 -50 49 -71 100 -57 137 5 12 0 16
-20 16 -15 0 -30 8 -36 20 -25 46 -50 8 -26 -40 8 -17 12 -39 9 -48 -8 -22
-72 -108 -109 -148 -40 -43 -114 -169 -114 -195 0 -25 76 -98 103 -99 32 0 12
49 -25 63 -14 5 -18 17 -17 49 1 52 12 87 23 70 4 -7 15 -12 25 -12 10 0 33
-14 51 -31 30 -29 31 -33 19 -58 -43 -84 -140 -171 -262 -232 l-38 -20 -44 46
-44 45 36 28 c49 37 103 94 103 110 0 6 -8 12 -17 12 -27 0 -95 52 -84 63 7 7
25 4 54 -11 46 -23 107 -30 107 -12 0 6 -10 26 -22 45 -23 35 -66 53 -90 39
-7 -5 -33 -11 -58 -14 -45 -5 -45 -5 -45 -44 0 -38 -2 -41 -60 -71 -33 -17
-81 -44 -107 -58 -27 -16 -63 -27 -85 -27 -29 -1 -57 -13 -113 -50 -41 -28
-82 -50 -90 -50 -8 0 -26 -6 -40 -13 -29 -15 -150 -11 -150 5 0 13 42 47 58
48 7 0 17 -11 22 -25 6 -15 17 -25 30 -25 32 0 25 38 -10 58 -16 9 -30 20 -30
23 0 14 45 43 156 100 111 57 123 61 173 57 l53 -5 39 61 c68 107 69 107 87
90 11 -11 25 -14 51 -9 50 10 51 10 44 67 -5 41 -3 52 10 60 26 14 20 32 -13
45 -21 8 -28 16 -24 27 3 9 1 16 -5 16 -6 0 -11 -6 -11 -13 0 -9 -12 -11 -38
-9 l-38 4 7 61 c9 94 38 137 134 201 30 20 52 26 92 26 l53 0 0 -87 c0 -49 -5
-105 -11 -127 -9 -31 -8 -41 4 -53 13 -13 20 -13 52 -2 47 17 104 67 110 96 2
12 9 31 15 43 8 15 9 25 2 32 -7 7 -17 -2 -30 -28 -26 -51 -76 -98 -96 -91
-13 5 -14 23 -9 114 5 98 8 111 31 136 14 15 34 27 45 27 27 0 77 38 87 66 6
14 18 24 29 24 11 0 22 4 26 9 15 25 84 -40 84 -79 1 -40 -15 -43 -75 -16
l-59 27 -22 -28 c-30 -37 -36 -58 -29 -96 7 -35 22 -45 115 -78 43 -15 70 -35
128 -96 40 -42 81 -92 90 -110 9 -19 38 -53 64 -75 37 -31 49 -48 49 -68 0
-16 7 -30 15 -34 8 -3 15 -17 15 -31 0 -20 4 -26 18 -23 12 3 16 12 15 31 -2
24 1 27 18 22 30 -10 24 29 -8 51 -16 9 -40 29 -54 43 -15 14 -41 37 -58 50
-18 12 -41 41 -53 64 -11 23 -56 76 -100 120 l-80 79 21 55 c13 33 21 78 21
113 0 54 -3 60 -35 89 -28 25 -45 31 -80 31 -41 0 -47 -4 -91 -55 -27 -31 -56
-55 -67 -55 -10 0 -32 -11 -49 -25 -35 -30 -104 -35 -110 -9 -3 17 -94 50
-273 99 -66 18 -145 40 -175 50 -30 9 -82 20 -115 24 -33 4 -82 14 -110 21
-153 38 -274 74 -309 90 -38 18 -75 32 -291 111 -174 64 -599 199 -628 199 -4
0 -7 -9 -7 -19z m2240 -617 c0 -7 -45 -4 -59 5 -27 17 -2 30 29 14 17 -8 30
-16 30 -19z m60 -4 c0 -5 -8 -25 -17 -45 -17 -33 -21 -35 -51 -30 -52 9 -82
26 -82 47 0 20 16 25 22 7 2 -6 17 -11 33 -11 17 0 36 -5 43 -11 18 -14 26 -2
13 21 -8 15 -8 22 2 25 20 9 37 8 37 -3z m-12 -369 c59 -73 190 -161 241 -161
12 0 21 -6 21 -13 0 -16 -68 -83 -138 -135 -63 -47 -65 -50 -126 -167 -26 -49
-59 -99 -73 -111 -15 -11 -23 -25 -20 -31 16 -26 -96 -32 -163 -8 -23 8 -64
15 -90 15 -28 0 -52 6 -59 13 -12 15 -5 27 16 27 21 0 203 119 241 158 36 37
82 124 82 158 0 15 -17 36 -50 62 -28 23 -56 42 -62 44 -6 2 10 26 36 53 26
28 59 69 73 93 14 23 28 42 32 42 4 0 22 -18 39 -39z m-218 -677 c45 -18 54
-38 13 -28 -30 7 -83 44 -65 44 7 0 30 -7 52 -16z"/>
<path d="M3063 1615 c-17 -23 -25 -25 -118 -27 -128 -4 -417 10 -519 24 -64 9
-80 8 -87 -3 -4 -8 -5 -17 -1 -21 16 -16 155 -27 434 -33 268 -6 298 -6 304 9
7 19 18 20 36 3 12 -11 149 -11 686 2 35 1 42 4 42 21 0 23 -18 23 -547 5
-139 -5 -152 -4 -165 13 -22 31 -45 33 -65 7z"/>
<path d="M606 1428 c-12 -38 -14 -65 -7 -77 10 -16 31 -6 31 16 0 12 6 14 28
8 27 -7 127 -18 317 -34 55 -5 120 -14 145 -20 25 -6 142 -15 261 -20 119 -6
229 -15 244 -21 22 -8 30 -8 37 2 22 35 4 38 -322 58 -107 6 -208 16 -225 21
-16 6 -116 16 -221 24 -154 10 -199 17 -234 34 -51 25 -50 24 -54 9z"/>
<path d="M1855 1360 c-4 -14 -1 -28 9 -39 9 -10 16 -27 16 -39 0 -24 15 -30
23 -9 2 6 1 32 -2 57 -7 50 -34 68 -46 30z"/>
</g>
</svg>
