<?xml version="1.0" standalone="no"?>
<!DOCTYPE svg PUBLIC "-//W3C//DTD SVG 20010904//EN"
 "http://www.w3.org/TR/2001/REC-SVG-20010904/DTD/svg10.dtd">
<svg version="1.0" xmlns="http://www.w3.org/2000/svg"
 width="384.000000pt" height="256.000000pt" viewBox="0 0 384.000000 256.000000"
 preserveAspectRatio="xMidYMid meet">
<metadata>
Created by potrace 1.16, written by Peter Selinger 2001-2019
</metadata>
<g transform="translate(0.000000,256.000000) scale(0.100000,-0.100000)"
fill="#000000" stroke="none">
<path d="M2978 2523 c-17 -40 -26 -74 -35 -133 -3 -19 -12 -44 -19 -55 -8 -11
-14 -28 -14 -38 0 -10 -7 -29 -16 -42 -13 -20 -16 -48 -15 -134 l2 -109 -36
-22 c-26 -16 -35 -29 -35 -48 0 -26 -2 -27 -56 -26 -30 1 -58 4 -61 8 -4 3
-14 6 -23 6 -11 0 -20 11 -23 30 -4 17 -11 30 -16 30 -12 0 -24 -37 -16 -50 4
-6 -5 -10 -19 -10 -14 0 -26 5 -26 10 0 6 5 10 11 10 6 0 9 12 7 28 -3 31 -25
36 -42 9 -8 -14 -8 -20 4 -27 11 -7 12 -12 4 -20 -8 -8 -15 -3 -24 20 -12 28
-11 33 8 50 19 18 33 20 149 16 70 -2 137 -7 147 -11 17 -8 18 -5 12 31 -4 21
-12 43 -17 49 -9 9 -109 41 -161 52 -25 5 -28 9 -28 49 0 42 1 44 29 44 17 0
31 6 35 16 9 23 -3 36 -27 29 -20 -6 -21 -5 -4 8 18 15 24 47 8 47 -4 0 -6 11
-4 24 4 21 2 24 -16 19 -19 -5 -21 -1 -21 46 0 50 -13 68 -24 34 -8 -28 1 -92
15 -109 11 -14 10 -18 -6 -30 -16 -12 -19 -25 -16 -91 1 -42 6 -84 11 -93 7
-14 -1 -18 -53 -29 -34 -7 -70 -17 -79 -22 -25 -13 -23 -64 2 -82 16 -11 18
-19 10 -43 l-8 -29 -1 27 c-1 15 -5 30 -11 33 -17 10 -50 -15 -50 -38 0 -34
-20 -97 -30 -97 -6 0 -10 11 -10 24 0 14 -4 28 -10 31 -5 3 -10 19 -10 35 0
47 -22 60 -101 60 -67 0 -69 1 -69 25 0 29 -16 33 -25 6 -8 -25 -36 -31 -74
-15 -38 16 -74 4 -108 -36 -12 -14 -22 -20 -23 -13 0 6 -4 23 -10 38 -8 22
-12 24 -29 13 -11 -7 -22 -22 -26 -35 -3 -13 -13 -23 -23 -24 -9 0 -26 -2 -37
-4 -11 -1 -43 -5 -71 -8 -31 -3 -69 -16 -93 -31 l-41 -26 0 -83 c-1 -70 -3
-80 -14 -64 -18 24 -24 22 -28 -10 -4 -38 -20 -35 -30 5 -5 17 -13 32 -18 32
-6 0 -10 16 -10 36 0 20 -10 53 -21 74 -20 36 -21 44 -11 136 5 54 8 104 5
111 -9 23 -23 14 -24 -14 0 -28 0 -28 -10 -4 -5 14 -6 28 0 35 12 15 -5 59
-21 54 -25 -9 -41 -58 -45 -138 -2 -36 -4 -78 -6 -95 -1 -20 2 -29 11 -28 19
4 14 -13 -11 -41 -23 -25 -24 -25 -40 -6 -9 11 -29 20 -44 20 -16 0 -41 7 -57
15 -23 12 -36 13 -59 5 -17 -5 -61 -10 -98 -10 -54 0 -69 -3 -69 -15 0 -8 -6
-12 -15 -9 -8 3 -29 -1 -46 -10 -18 -9 -49 -16 -70 -16 -57 0 -79 -24 -79 -83
0 -42 -2 -48 -14 -38 -12 10 -20 9 -40 -4 -20 -14 -26 -26 -26 -55 0 -35 -2
-37 -26 -32 -25 5 -26 3 -19 -29 3 -19 9 -42 11 -51 7 -25 -13 -23 -21 2 -3
11 -14 20 -24 20 -12 0 -20 10 -24 28 -4 22 -14 31 -39 38 -32 10 -33 11 -30
59 3 55 -12 93 -24 62 -3 -10 -4 -38 -1 -63 3 -27 0 -47 -6 -51 -6 -4 -64 -6
-129 -4 -149 3 -236 -13 -251 -46 -9 -20 -12 -21 -19 -8 -9 15 -39 20 -51 8
-11 -10 -60 -11 -80 -1 -14 7 -17 4 -17 -21 0 -27 3 -29 45 -33 25 -2 53 -1
62 3 24 8 87 -16 91 -35 4 -17 37 -22 46 -7 3 5 25 2 48 -6 24 -9 55 -15 71
-15 15 0 27 -1 27 -3 0 -14 -67 -35 -110 -35 -28 0 -61 -6 -73 -14 -30 -20
-102 -43 -159 -51 -45 -7 -48 -9 -48 -36 0 -26 2 -28 23 -19 12 5 49 16 82 25
33 9 82 26 109 36 27 10 61 19 76 19 15 0 46 7 69 15 32 11 43 12 46 2 25 -82
26 -86 13 -106 -7 -12 -19 -21 -27 -21 -7 0 -39 -16 -71 -35 -32 -19 -65 -35
-74 -35 -8 0 -30 -9 -48 -20 -18 -11 -44 -20 -58 -20 -40 -1 -110 -37 -110
-57 0 -15 -2 -16 -10 -3 -6 8 -9 34 -8 57 1 24 -1 46 -5 49 -4 4 -7 -60 -7
-143 l0 -150 53 -9 c28 -4 84 -7 123 -5 100 4 274 -35 323 -73 8 -6 41 -22 75
-34 34 -13 77 -30 96 -37 19 -8 56 -14 83 -15 40 0 47 3 47 20 0 17 -7 20 -50
20 -27 0 -50 5 -50 10 0 6 9 10 19 10 11 0 26 7 35 15 14 14 21 13 75 -5 33
-11 69 -20 80 -20 10 0 21 -7 25 -15 11 -30 113 -10 145 28 12 15 10 17 -15
17 -25 1 -26 2 -11 11 12 7 28 7 50 1 59 -18 185 -22 222 -6 19 8 48 14 65 14
16 0 68 16 114 35 47 19 99 35 116 35 20 0 38 9 52 25 12 14 32 25 44 25 13 0
25 4 29 10 3 5 12 7 20 4 9 -4 18 1 21 12 4 11 14 27 22 37 20 23 7 35 -16 14
-10 -10 -21 -14 -24 -11 -4 3 -17 -1 -30 -9 -12 -8 -55 -17 -94 -21 -39 -3
-85 -11 -102 -17 -34 -12 -44 -39 -15 -39 29 0 1 -18 -61 -40 -33 -11 -72 -20
-88 -20 -16 0 -42 -7 -59 -15 -42 -22 -99 -11 -96 19 2 17 -4 22 -30 24 -18 2
-47 -3 -65 -11 -49 -21 -100 -38 -128 -44 -24 -6 -24 -5 -8 13 10 12 15 31 13
54 -2 19 -4 43 -4 53 -2 38 -20 14 -23 -29 -2 -38 -7 -48 -26 -55 -22 -8 -22
-7 -22 70 0 61 3 80 15 85 23 8 18 49 -10 90 -14 20 -25 41 -25 46 0 4 -5 10
-11 12 -9 3 -9 10 1 27 10 19 10 28 -1 47 -10 20 -9 39 6 111 10 49 25 94 33
102 7 8 11 22 9 32 -7 25 10 24 18 0 3 -11 13 -22 22 -25 27 -11 253 6 253 18
0 6 11 12 25 12 17 1 25 -3 25 -15 -1 -23 -27 -56 -32 -40 -3 8 -11 10 -22 6
-11 -4 -16 -13 -12 -22 4 -11 -2 -15 -24 -15 -17 0 -30 -4 -30 -9 0 -14 10
-18 68 -26 l52 -7 0 31 c0 29 2 31 33 29 29 -3 32 0 35 30 4 35 -11 43 -27 15
-9 -16 -10 -16 -11 -1 0 9 -2 23 -5 31 -5 10 1 13 25 9 16 -2 33 -8 36 -13 9
-15 109 -10 149 7 24 10 61 14 103 13 69 -3 86 8 62 36 -9 11 -9 15 -1 15 6 0
14 -13 17 -30 6 -27 10 -30 43 -30 20 0 43 6 50 13 11 10 12 8 7 -9 -5 -17 0
-25 29 -38 36 -18 55 -15 55 8 0 9 9 12 25 8 20 -3 25 0 25 16 0 11 -6 22 -13
24 -9 2 -8 7 4 20 16 15 18 11 24 -65 4 -45 5 -98 3 -117 -3 -34 -5 -35 -53
-42 -27 -4 -79 -9 -114 -12 -36 -3 -67 -9 -70 -14 -14 -21 -44 -22 -58 -2 -8
12 -25 20 -42 20 -17 0 -37 10 -52 26 -39 42 -90 70 -141 77 -46 6 -48 6 -48
-18 0 -27 22 -40 108 -66 24 -7 54 -23 68 -36 14 -13 33 -23 42 -23 10 0 28
-7 40 -16 14 -9 36 -14 53 -12 19 3 29 0 29 -9 0 -20 70 -46 86 -32 10 8 14 8
14 0 0 -6 4 -11 10 -11 5 0 7 7 4 15 -7 17 21 22 31 6 12 -21 62 -38 80 -28
12 7 20 5 26 -4 11 -18 16 -11 24 39 6 40 -4 57 -20 32 -11 -18 -25 -10 -25
15 0 14 4 25 9 25 5 0 12 9 16 19 3 10 17 22 30 25 30 8 33 36 5 36 -17 0 -20
7 -20 52 l0 51 24 -22 c29 -28 57 -24 100 14 31 26 65 32 83 14 6 -6 26 -14
44 -18 28 -6 34 -12 36 -36 2 -31 28 -57 52 -53 25 5 23 27 -3 39 -14 7 -26
16 -26 21 0 14 43 -1 58 -20 7 -9 12 -11 12 -4 0 6 17 19 37 27 49 21 105 11
160 -26 23 -16 50 -29 60 -29 11 0 24 -5 31 -12 16 -16 28 17 13 35 -8 11 -4
13 19 9 17 -2 37 1 45 8 13 11 14 6 8 -36 -4 -27 -8 -61 -8 -77 0 -23 -5 -28
-33 -33 -18 -4 -50 -4 -70 0 -33 5 -42 1 -75 -29 -21 -19 -49 -38 -62 -41 -16
-4 -25 -13 -25 -25 0 -10 -6 -19 -13 -19 -20 0 -79 -47 -99 -79 -23 -36 -7
-50 21 -19 18 18 21 19 21 5 0 -9 7 -17 15 -17 8 0 15 9 15 19 0 24 76 105 85
91 3 -5 17 -10 30 -10 13 0 26 -4 30 -10 3 -6 15 -6 30 0 13 5 40 6 59 3 35
-5 36 -5 37 28 0 30 1 32 9 11 14 -34 30 -26 30 15 0 43 9 39 15 -5 2 -17 6
-41 10 -52 4 -13 2 -20 -7 -20 -17 -1 -58 -35 -58 -49 0 -16 -17 -22 -102 -40
-52 -10 -85 -22 -92 -33 -5 -9 -8 -19 -5 -22 3 -3 46 3 95 14 49 12 100 23
114 26 14 3 34 9 45 14 11 4 28 11 39 14 12 4 17 13 13 26 -12 45 63 7 78 -40
6 -20 48 -29 59 -12 10 17 -16 98 -40 120 -13 13 -24 27 -24 32 0 6 -4 10 -9
10 -14 0 -20 -37 -8 -49 13 -13 3 -26 -12 -16 -6 3 -11 19 -11 35 0 34 -15 47
-28 24 -5 -9 -14 -14 -21 -10 -14 9 -15 43 -1 51 11 7 14 78 3 88 -3 4 -12 2
-20 -5 -12 -10 -13 -7 -7 18 4 16 12 36 19 44 7 8 18 41 25 73 14 70 36 68 25
-2 -12 -82 -11 -103 7 -114 23 -15 29 -6 36 49 l5 47 74 -7 c64 -5 79 -3 102
13 14 10 45 21 67 24 38 6 44 4 68 -25 31 -38 33 -48 6 -41 -13 4 -20 0 -20
-10 0 -27 27 -38 89 -35 47 2 61 6 61 18 0 21 -41 57 -74 66 -15 3 -33 19 -42
35 -13 26 -20 29 -62 29 -26 0 -70 -9 -98 -19 -32 -13 -74 -20 -113 -19 -53 1
-61 3 -61 20 0 18 7 19 90 17 60 -2 94 1 102 9 7 7 38 12 70 12 50 0 60 -3 74
-25 9 -14 22 -25 29 -25 7 0 19 -7 26 -16 7 -9 40 -29 74 -44 56 -26 72 -29
230 -35 94 -4 191 -13 218 -20 l47 -12 0 26 c0 30 10 28 -149 38 -84 6 -116
12 -119 22 -3 9 0 11 8 6 34 -21 161 -14 230 12 8 4 18 5 23 5 4 -1 6 15 6 36
-1 20 -3 29 -6 20 -3 -13 -15 -18 -43 -18 -22 0 -43 -6 -47 -13 -5 -8 -29 -11
-73 -9 -58 3 -67 6 -77 28 -11 23 -10 24 25 25 66 2 96 6 151 17 29 7 57 9 62
6 5 -3 9 105 8 258 0 145 -3 257 -6 251 -12 -30 -23 -9 -23 42 0 40 4 57 15
61 8 4 15 18 15 33 0 20 -2 23 -10 11 -13 -20 -23 -6 -15 21 6 17 9 19 16 8 6
-9 8 4 7 36 -1 34 -2 40 -5 19 -3 -25 -8 -31 -22 -27 -11 3 -21 -2 -24 -11
-11 -28 -27 -17 -27 18 0 18 7 39 15 46 18 15 20 66 3 76 -18 11 -36 -23 -43
-85 -6 -50 -10 -58 -34 -68 -16 -6 -34 -25 -44 -45 -9 -20 -24 -39 -33 -42
-13 -5 -15 -16 -12 -51 4 -27 0 -54 -8 -71 -8 -14 -14 -48 -14 -74 0 -61 -7
-80 -30 -80 -20 0 -34 -26 -20 -35 16 -10 11 -44 -9 -61 -28 -25 -78 -26 -84
-3 -4 14 -14 19 -42 19 -26 0 -36 -4 -32 -12 3 -10 -12 -13 -53 -14 l-58 -2 1
80 c2 87 -9 107 -62 109 -26 0 -26 0 -3 9 25 11 29 32 7 53 -8 9 -11 17 -6 19
24 8 16 129 -11 157 -20 23 -61 138 -87 249 -12 48 -15 52 -42 52 l-29 0 20
-20 c11 -11 20 -28 20 -37 0 -10 14 -58 30 -108 37 -111 38 -125 6 -125 -28 0
-36 16 -36 73 0 37 -15 138 -27 177 -4 12 -7 11 -20 -5 -14 -19 -15 -18 -8 13
10 46 -17 43 -37 -5z m52 -84 c0 -11 -7 -19 -15 -19 -8 0 -15 4 -15 9 0 5 -3
16 -6 24 -4 12 0 14 15 10 12 -3 21 -14 21 -24z m18 -144 l-1 -40 -6 45 c-5
39 -9 45 -28 43 -13 -2 -23 2 -23 7 0 6 10 14 23 19 26 10 35 -10 35 -74z
m-92 -9 c-1 -37 -16 -39 -16 -2 0 19 7 36 15 36 1 0 1 -15 1 -34z m57 -28 c-7
-14 -33 4 -33 23 0 18 1 18 18 2 11 -10 17 -21 15 -25z m777 -18 c-6 -11 -11
-44 -12 -73 -2 -209 -2 -203 -26 -215 -19 -8 -21 -8 -13 2 16 19 26 262 11
271 -8 5 -4 11 12 20 34 19 40 18 28 -5z m-673 -55 c-5 -31 -2 -46 8 -55 25
-21 38 -1 33 51 -5 52 4 63 23 28 6 -13 8 -39 4 -65 -5 -37 -10 -44 -29 -44
-13 0 -37 7 -52 15 -35 18 -54 19 -54 3 0 -7 -11 -14 -25 -14 -32 -2 -28 20 5
24 21 3 22 7 17 51 l-6 47 41 1 41 2 -6 -44z m-115 23 c-7 -7 -12 -29 -12 -49
0 -24 -5 -39 -15 -43 -8 -3 -16 -2 -16 2 -1 4 -3 16 -4 27 -2 11 -4 25 -5 30
-6 22 13 45 38 45 20 0 23 -3 14 -12z m728 -54 c0 -30 -4 -54 -10 -54 -6 0
-10 27 -10 61 0 37 4 58 10 54 6 -3 10 -31 10 -61z m-83 -46 c-3 -7 -5 -2 -5
12 0 14 2 19 5 13 2 -7 2 -19 0 -25z m-895 -23 c70 -9 69 -25 -1 -25 -51 0
-62 3 -72 21 -9 18 -8 20 8 16 10 -3 39 -8 65 -12z m-118 -10 c4 -12 -3 -15
-32 -15 -37 0 -37 0 -12 14 33 19 37 19 44 1z m389 -13 c30 3 36 1 40 -18 4
-25 -19 -34 -70 -27 -25 4 -29 9 -30 39 -1 30 1 33 11 18 9 -12 23 -15 49 -12z
m93 9 c5 -5 16 -11 25 -13 11 -2 14 -9 10 -22 -7 -17 -8 -17 -23 -2 -14 13
-17 14 -22 1 -10 -27 -23 -16 -18 15 4 31 11 36 28 21z m711 -47 c-7 -81 -27
-95 -27 -18 0 34 3 64 7 67 18 18 24 2 20 -49z m-161 19 c-4 -8 -9 -32 -12
-54 -4 -21 -10 -36 -15 -33 -10 6 -12 97 -3 107 11 11 35 -5 30 -20z m55 -34
c-1 -30 -8 -60 -13 -66 -12 -15 -48 -17 -48 -3 0 6 7 10 16 10 11 0 15 6 11
20 -3 11 -1 23 4 26 5 3 9 21 9 40 0 24 4 34 13 31 8 -2 11 -21 8 -58z m-781
37 c0 -2 -7 -9 -15 -16 -12 -10 -15 -10 -15 4 0 9 7 16 15 16 8 0 15 -2 15 -4z
m-612 -81 c9 -28 -12 -105 -34 -126 -13 -12 -24 -32 -25 -43 0 -21 0 -21 -9 0
-14 35 -61 66 -92 62 -27 -4 -28 -3 -28 39 0 74 7 79 102 78 46 0 84 -5 86
-10z m667 -30 c3 -22 1 -56 -4 -75 -5 -19 -9 -27 -10 -17 -1 9 -8 17 -16 17
-12 0 -14 8 -9 40 5 31 3 41 -10 46 -28 11 -18 31 14 30 27 -1 30 -5 35 -41z
m127 23 c4 -30 32 -30 36 0 3 20 8 23 40 20 l37 -3 3 -65 c2 -44 -2 -71 -11
-84 -21 -29 -47 -14 -47 28 0 31 -20 66 -39 66 -21 0 -40 -29 -43 -65 -2 -33
-7 -41 -25 -43 -27 -4 -31 -30 -7 -39 9 -3 25 -1 35 6 16 9 19 8 19 -10 0 -11
-4 -18 -9 -15 -15 10 -32 -21 -26 -47 l7 -25 -36 16 -36 17 4 130 c3 72 5 131
5 133 1 1 21 2 45 2 39 0 45 -3 48 -22z m-270 -20 c-7 -7 -12 -8 -12 -2 0 14
12 26 19 19 2 -3 -1 -11 -7 -17z m-1385 -20 c-3 -7 -5 -2 -5 12 0 14 2 19 5
13 2 -7 2 -19 0 -25z m529 21 c15 6 28 10 29 9 2 -2 6 -37 10 -78 6 -74 6 -75
-19 -87 -14 -6 -28 -7 -31 -3 -7 11 -86 8 -104 -4 -8 -5 -37 -10 -65 -11 -28
-2 -45 0 -37 2 9 4 2 11 -19 19 -40 17 -77 18 -83 2 -3 -7 -6 1 -6 19 -1 17
-4 39 -7 47 -9 23 61 51 164 66 45 7 85 16 88 21 2 4 16 3 29 -3 19 -8 32 -8
51 1z m1824 -38 c0 -10 -3 -40 -7 -67 l-8 -49 -6 55 c-3 30 -4 61 -1 68 6 19
22 14 22 -7z m-2550 -6 c14 -8 35 -14 48 -15 19 0 22 -5 22 -35 0 -22 6 -38
15 -41 29 -12 -1 -37 -48 -41 l-44 -4 -5 57 c-4 44 -10 62 -28 76 -20 16 -20
18 -4 18 11 -1 30 -7 44 -15z m1279 -31 c9 -35 9 -49 0 -60 -21 -26 -29 -14
-29 46 0 71 13 78 29 14z m1184 17 c-4 -17 -8 -18 -24 -8 -26 16 -24 27 5 27
19 0 23 -4 19 -19z m-2585 -10 c2 -6 13 -11 25 -11 35 0 43 -12 42 -65 l-1
-50 -44 -13 c-25 -8 -54 -17 -65 -22 -64 -28 -65 -27 -65 43 l0 65 40 -5 c40
-6 40 -5 40 27 0 25 -3 30 -12 22 -14 -11 -68 -5 -68 7 0 17 18 23 60 18 24
-3 46 -10 48 -16z m362 -116 c0 -71 4 -95 16 -105 25 -21 -38 -43 -105 -36
-70 6 -89 24 -62 55 12 13 24 51 31 94 16 103 18 106 53 116 53 15 67 -12 67
-124z m1298 102 c3 -16 -2 -18 -40 -15 -35 2 -44 7 -46 24 -3 19 1 20 40 15
31 -4 44 -11 46 -24z m86 -33 c5 -16 15 -41 22 -56 17 -33 17 -58 0 -81 -18
-23 -22 -16 -37 68 -6 38 -18 75 -25 83 -21 21 -17 32 9 23 12 -4 26 -21 31
-37z m256 21 c0 -14 -4 -25 -10 -25 -5 0 -10 11 -10 25 0 14 5 25 10 25 6 0
10 -11 10 -25z m-2168 -61 l-4 -62 -29 15 c-23 11 -37 12 -59 4 l-30 -10 0 54
c0 29 5 55 11 57 5 2 34 3 62 4 l52 0 -3 -62z m1468 -8 c-1 -29 -1 -30 -15
-12 -8 11 -15 31 -15 44 0 21 2 22 15 12 8 -7 15 -27 15 -44z m140 39 c0 -8
-4 -15 -10 -15 -5 0 -10 7 -10 15 0 8 5 15 10 15 6 0 10 -7 10 -15z m133 -14
c23 -9 24 -13 17 -45 -5 -22 -4 -39 4 -46 8 -9 5 -10 -14 -5 -42 13 -59 49
-44 89 7 19 6 19 37 7z m-366 -37 c-9 -9 -28 6 -21 18 4 6 10 6 17 -1 6 -6 8
-13 4 -17z m860 9 c43 -10 40 -83 -4 -83 -20 0 -23 4 -18 21 5 15 -1 29 -22
51 l-28 31 25 -7 c14 -4 35 -10 47 -13z m-349 -98 c12 -27 18 -53 14 -56 -4
-4 -21 -5 -38 -2 -31 5 -31 5 -17 35 10 19 13 44 10 71 -6 44 -6 43 31 -48z
m-753 65 c3 -5 -1 -10 -9 -10 -9 0 -16 5 -16 10 0 6 4 10 9 10 6 0 13 -4 16
-10z m425 6 c0 -3 -4 -8 -10 -11 -5 -3 -10 -1 -10 4 0 6 5 11 10 11 6 0 10 -2
10 -4z m440 -6 c0 -5 -4 -10 -9 -10 -6 0 -13 5 -16 10 -3 6 1 10 9 10 9 0 16
-4 16 -10z m830 1 c0 -12 -20 -25 -27 -18 -7 7 6 27 18 27 5 0 9 -4 9 -9z
m-2470 -25 c0 -15 -108 -72 -117 -62 -3 2 -2 18 2 35 7 31 6 31 98 39 9 1 17
-4 17 -12z m1457 -8 c-3 -8 -6 -5 -6 6 -1 11 2 17 5 13 3 -3 4 -12 1 -19z
m-1969 -1 c16 -18 5 -49 -24 -70 -14 -11 -27 -17 -28 -15 -1 1 -1 24 2 51 3
37 8 47 22 47 10 0 22 -6 28 -13z m2682 -3 c0 -8 -5 -12 -10 -9 -6 4 -8 11 -5
16 9 14 15 11 15 -7z m50 6 c0 -5 -5 -10 -11 -10 -5 0 -7 5 -4 10 3 6 8 10 11
10 2 0 4 -4 4 -10z m-565 -10 c3 -5 1 -10 -4 -10 -6 0 -11 5 -11 10 0 6 2 10
4 10 3 0 8 -4 11 -10z m-45 -16 c0 -8 -4 -12 -10 -9 -5 3 -10 10 -10 16 0 5 5
9 10 9 6 0 10 -7 10 -16z m-1970 -19 c-7 -8 -23 -15 -36 -15 -17 0 -24 -6 -24
-20 0 -23 -4 -24 -30 -10 -23 12 -16 40 8 33 9 -2 26 3 37 11 11 9 28 16 39
16 15 0 16 -3 6 -15z m1220 -5 c0 -5 -4 -10 -10 -10 -5 0 -10 5 -10 10 0 6 5
10 10 10 6 0 10 -4 10 -10z m40 0 c0 -5 -7 -10 -15 -10 -8 0 -15 5 -15 10 0 6
7 10 15 10 8 0 15 -4 15 -10z m-1700 -15 c19 6 22 4 17 -10 -4 -9 -7 -21 -7
-26 0 -5 -16 -9 -35 -9 -27 0 -35 4 -35 18 0 24 21 46 31 31 4 -7 16 -8 29 -4z
m540 11 c0 -3 -4 -8 -10 -11 -5 -3 -10 -1 -10 4 0 6 5 11 10 11 6 0 10 -2 10
-4z m560 -6 c0 -5 -16 -10 -36 -10 -21 0 -33 4 -29 10 3 6 19 10 36 10 16 0
29 -4 29 -10z m2075 -6 c-27 -10 -56 -13 -88 -9 -73 10 -45 25 46 24 l82 0
-40 -15z m-3285 -14 c0 -5 -19 -10 -41 -10 -39 0 -41 -2 -37 -25 6 -29 0 -32
-18 -7 -13 16 -13 16 -14 0 0 -22 -13 -23 -30 -3 -7 8 -19 15 -26 15 -17 0
-18 12 -2 28 15 15 168 17 168 2z m190 2 c0 -4 -9 -13 -20 -20 -18 -11 -20
-10 -20 8 0 13 7 20 20 20 11 0 20 -3 20 -8z m1850 -12 c0 -5 -25 -10 -56 -10
-34 0 -53 4 -49 10 3 6 28 10 56 10 27 0 49 -4 49 -10z m535 0 c-3 -5 -26 -10
-51 -10 -24 0 -44 5 -44 10 0 6 23 10 51 10 31 0 48 -4 44 -10z m-2790 -10 c3
-5 1 -10 -4 -10 -6 0 -11 5 -11 10 0 6 2 10 4 10 3 0 8 -4 11 -10z m964 -15
c-11 -10 -179 -15 -179 -5 0 6 37 10 92 10 50 0 89 -2 87 -5z m-315 -61 c-7
-6 -11 -20 -7 -32 3 -14 1 -22 -7 -22 -9 0 -10 13 -5 48 9 60 17 74 26 42 4
-16 1 -29 -7 -36z m996 46 c0 -5 -4 -10 -10 -10 -5 0 -10 5 -10 10 0 6 5 10
10 10 6 0 10 -4 10 -10z m709 -11 c29 -27 21 -35 -18 -15 -16 9 -37 16 -46 16
-9 0 -13 5 -10 10 10 17 50 11 74 -11z m711 11 c0 -5 -4 -10 -9 -10 -6 0 -13
5 -16 10 -3 6 1 10 9 10 9 0 16 -4 16 -10z m30 0 c0 -5 -5 -10 -11 -10 -5 0
-7 5 -4 10 3 6 8 10 11 10 2 0 4 -4 4 -10z m130 0 c0 -5 -7 -10 -15 -10 -8 0
-15 5 -15 10 0 6 7 10 15 10 8 0 15 -4 15 -10z m128 -24 c3 -25 1 -28 -15 -21
-10 5 -30 8 -46 7 -27 -1 -27 -1 -10 23 26 36 67 30 71 -9z m-2648 -2 c0 -8
-4 -14 -10 -14 -5 0 -10 9 -10 21 0 11 5 17 10 14 6 -3 10 -13 10 -21z m1725
9 c-19 -13 -31 -11 -21 5 3 5 13 9 22 9 15 0 15 -2 -1 -14z m70 -2 c3 -5 1
-12 -5 -16 -5 -3 -10 1 -10 9 0 18 6 21 15 7z m45 -7 c0 -8 -5 -12 -10 -9 -6
4 -8 11 -5 16 9 14 15 11 15 -7z m-2173 -10 c-3 -3 -12 -4 -19 -1 -8 3 -5 6 6
6 11 1 17 -2 13 -5z m191 -26 c-2 -17 -9 -33 -16 -36 -9 -3 -11 3 -6 23 5 18
2 30 -7 36 -10 6 -8 9 9 9 20 0 23 -4 20 -32z m2672 6 c0 -8 10 -19 23 -24 19
-8 18 -9 -14 -9 -41 -1 -99 17 -99 30 0 4 7 6 15 3 8 -4 15 -2 15 2 0 5 14 10
30 11 21 2 30 -2 30 -13z m-2646 -72 c-4 -18 -10 -32 -15 -32 -12 0 -11 11 3
42 16 33 20 30 12 -10z m-136 -82 c-3 -49 -2 -109 3 -132 12 -58 -19 -248 -39
-248 -32 0 -227 62 -282 90 -47 24 -60 35 -65 60 -4 16 -11 30 -16 30 -16 0
-57 -52 -69 -87 -9 -26 -17 -32 -43 -35 -27 -3 -33 -8 -35 -31 -3 -24 -7 -28
-25 -23 -12 4 -34 9 -49 12 -16 4 -28 9 -28 13 0 3 23 22 50 41 52 36 61 50
34 50 -8 0 -13 4 -10 9 11 17 92 51 124 51 24 0 38 8 59 35 28 36 84 77 100
73 15 -4 51 13 56 26 3 7 38 30 79 50 40 20 91 52 113 71 22 19 42 34 44 35 2
0 1 -40 -1 -90z m-101 53 c-3 -3 -17 -6 -31 -7 -15 0 -29 -8 -32 -18 -3 -10
-10 -18 -15 -18 -11 0 -12 30 -1 48 5 7 16 10 25 7 9 -4 24 -2 34 4 17 9 33
-3 20 -16z m178 7 c3 -5 1 -10 -4 -10 -6 0 -11 5 -11 10 0 6 2 10 4 10 3 0 8
-4 11 -10z m111 -64 c-4 -15 -14 -26 -28 -28 -28 -4 -33 -21 -13 -42 24 -23
15 -38 -14 -23 -30 15 -37 77 -8 77 9 0 17 6 17 14 0 8 7 22 16 31 22 21 39 5
30 -29z m1064 4 c0 -5 -7 -10 -15 -10 -8 0 -15 -8 -15 -17 0 -14 -2 -15 -12
-4 -11 10 -9 15 6 27 23 16 36 18 36 4z m-160 -20 c0 -5 -5 -10 -11 -10 -5 0
-7 5 -4 10 3 6 8 10 11 10 2 0 4 -4 4 -10z m1020 -4 c0 -3 -4 -8 -10 -11 -5
-3 -10 -1 -10 4 0 6 5 11 10 11 6 0 10 -2 10 -4z m-120 -16 c0 -5 -4 -10 -10
-10 -5 0 -10 5 -10 10 0 6 5 10 10 10 6 0 10 -4 10 -10z m-1932 -108 c2 -7 -2
-10 -12 -6 -9 3 -16 11 -16 16 0 13 23 5 28 -10z m116 -27 c-4 -17 2 -31 24
-52 29 -28 30 -31 34 -141 2 -72 -1 -111 -7 -108 -5 2 -41 16 -79 31 l-68 28
4 48 c3 31 15 63 33 89 18 26 30 58 33 89 3 37 8 48 18 44 9 -3 12 -13 8 -28z
m48 10 c-2 -14 -6 -25 -8 -25 -2 0 -4 11 -4 25 0 14 4 25 9 25 4 0 6 -11 3
-25z m32 -51 c4 -10 1 -14 -6 -12 -15 5 -23 28 -10 28 5 0 13 -7 16 -16z
m1991 -4 c3 -5 1 -10 -4 -10 -6 0 -11 5 -11 10 0 6 2 10 4 10 3 0 8 -4 11 -10z
m-2135 -11 c0 -4 -7 -13 -17 -20 -23 -19 -45 -77 -38 -99 3 -10 1 -21 -5 -25
-5 -3 -10 -26 -10 -50 0 -29 -5 -45 -15 -49 -10 -4 -15 1 -16 17 -2 40 3 72
12 81 5 6 4 15 -2 22 -9 10 0 76 16 122 4 12 75 13 75 1z m-705 -39 c-3 -5
-11 -10 -16 -10 -6 0 -7 5 -4 10 3 6 11 10 16 10 6 0 7 -4 4 -10z m459 -125
c48 -13 92 -27 96 -32 11 -12 21 -73 11 -73 -4 0 -21 6 -37 14 -76 38 -219 96
-235 96 -23 0 -59 38 -53 55 4 10 20 7 67 -12 34 -14 102 -36 151 -48z"/>
<path d="M2665 2452 c-7 -23 4 -54 16 -46 12 7 12 51 0 59 -5 3 -12 -3 -16
-13z"/>
<path d="M2200 1526 c0 -16 26 -46 41 -46 17 0 9 39 -10 50 -26 13 -31 13 -31
-4z"/>
<path d="M1826 1489 c4 -13 8 -34 7 -46 -1 -30 5 -29 45 7 34 31 41 50 18 50
-7 0 -28 3 -46 6 -31 7 -32 6 -24 -17z"/>
<path d="M2125 1500 c-7 -11 45 -80 61 -80 20 0 54 -41 54 -65 0 -22 -4 -25
-35 -25 -36 0 -94 -24 -107 -44 -12 -17 -9 -61 4 -74 7 -7 29 -12 50 -12 28 0
41 6 53 23 8 13 40 37 71 52 31 16 61 39 67 52 5 13 14 23 19 23 4 0 8 9 8 20
0 16 -5 19 -29 14 -24 -5 -31 -1 -50 29 -16 26 -32 37 -64 46 -24 5 -52 20
-62 31 -20 22 -31 25 -40 10z m155 -135 c14 -19 14 -19 -2 -6 -10 7 -18 18
-18 24 0 6 1 8 3 6 1 -2 9 -13 17 -24z"/>
<path d="M1324 1479 c-3 -6 -2 -15 4 -21 13 -13 32 -2 32 18 0 16 -26 19 -36
3z"/>
<path d="M2973 1453 c-7 -2 -13 -14 -13 -25 0 -15 -4 -18 -17 -13 -33 12 -38
10 -35 -12 3 -20 -1 -23 -27 -23 -24 0 -31 -4 -31 -20 0 -11 4 -20 9 -20 5 0
12 -10 14 -22 l4 -23 8 23 c4 12 11 22 15 22 22 0 40 -14 40 -30 0 -11 4 -21
9 -25 13 -8 41 23 41 46 0 17 3 18 20 9 16 -9 22 -8 27 6 3 9 0 20 -8 25 -12
8 -11 12 4 23 20 16 23 46 4 46 -8 0 -19 -11 -25 -25 -6 -14 -16 -25 -22 -25
-13 0 -13 27 0 35 12 7 14 35 3 34 -5 0 -14 -3 -20 -6z"/>
<path d="M2570 1440 c0 -5 7 -10 15 -10 8 0 15 5 15 10 0 6 -7 10 -15 10 -8 0
-15 -4 -15 -10z"/>
<path d="M3490 1411 c0 -22 25 -45 39 -37 14 9 -8 56 -26 56 -7 0 -13 -8 -13
-19z"/>
<path d="M2050 1406 c0 -10 -10 -26 -22 -36 -21 -17 -21 -19 -5 -25 31 -13 49
2 43 36 -5 35 -16 51 -16 25z"/>
<path d="M3427 1413 c-5 -8 -19 -10 -36 -7 -33 7 -45 -6 -47 -50 -1 -16 -10
-35 -19 -42 -9 -7 -14 -18 -10 -24 4 -6 -5 -26 -19 -45 -26 -34 -34 -65 -17
-65 18 0 61 62 61 88 1 36 36 78 53 64 16 -13 42 1 32 17 -4 7 -1 18 5 26 6 8
10 22 8 32 -2 13 -6 14 -11 6z m-32 -53 c3 -5 -1 -10 -9 -10 -9 0 -16 5 -16
10 0 6 4 10 9 10 6 0 13 -4 16 -10z"/>
<path d="M2555 1401 c-3 -5 -1 -12 5 -16 5 -3 10 1 10 9 0 18 -6 21 -15 7z"/>
<path d="M3472 1318 c5 -15 68 -24 68 -10 0 12 -24 22 -52 22 -11 0 -18 -5
-16 -12z"/>
<path d="M3650 1276 c0 -9 7 -16 16 -16 17 0 14 22 -4 28 -7 2 -12 -3 -12 -12z"/>
<path d="M3577 1263 c-13 -12 -7 -33 8 -33 8 0 15 9 15 20 0 20 -11 26 -23 13z"/>
<path d="M3427 1223 c-16 -15 -6 -34 15 -31 29 4 38 38 10 38 -10 0 -22 -3
-25 -7z"/>
<path d="M2512 1187 c-18 -18 -32 -38 -32 -45 0 -23 25 -12 54 24 38 48 21 65
-22 21z"/>
<path d="M3210 1199 c-13 -24 -8 -34 15 -26 16 7 21 47 5 47 -5 0 -14 -9 -20
-21z"/>
<path d="M3520 1205 c0 -8 7 -15 15 -15 8 0 15 7 15 15 0 8 -7 15 -15 15 -8 0
-15 -7 -15 -15z"/>
<path d="M2982 1153 c2 -14 9 -28 16 -31 18 -6 15 45 -4 52 -12 5 -15 0 -12
-21z"/>
<path d="M3187 1120 c-3 -11 -1 -23 4 -26 13 -7 39 14 39 32 0 22 -37 16 -43
-6z"/>
<path d="M2373 1103 c-7 -2 -13 -13 -13 -24 0 -20 25 -25 49 -10 12 8 12 12 2
25 -14 17 -18 18 -38 9z"/>
<path d="M3126 1054 c-25 -35 -6 -54 23 -23 11 13 21 29 21 36 0 21 -24 14
-44 -13z"/>
<path d="M2930 1034 c-7 -8 -19 -14 -26 -14 -8 0 -14 -7 -14 -15 0 -8 9 -15
20 -15 11 0 20 5 20 12 0 16 18 -2 34 -34 13 -26 66 -39 66 -16 0 7 3 23 6 36
4 14 2 22 -6 22 -6 0 -14 -9 -17 -20 -9 -32 -37 -20 -41 17 -4 35 -25 49 -42
27z"/>
<path d="M3213 944 c-3 -8 -11 -13 -18 -10 -6 2 -18 0 -26 -5 -12 -8 -11 -12
6 -25 32 -24 60 -14 63 24 3 33 -14 45 -25 16z"/>
<path d="M3099 950 c-6 -29 -3 -50 7 -50 21 0 24 16 9 36 -8 10 -15 17 -16 14z"/>
<path d="M3285 911 c-3 -5 0 -13 6 -16 5 -4 8 -14 5 -22 -4 -10 0 -13 12 -11
9 2 24 -6 34 -17 9 -11 19 -17 23 -13 14 14 -5 54 -34 71 -34 20 -38 20 -46 8z"/>
<path d="M3420 881 c0 -12 5 -21 10 -21 6 0 10 -9 10 -20 0 -25 27 -37 49 -23
26 17 20 38 -11 35 -21 -3 -27 1 -30 19 -4 29 -28 37 -28 10z"/>
<path d="M2980 845 c0 -8 24 -26 53 -41 72 -35 217 -85 228 -78 15 9 10 34 -6
34 -8 0 -39 11 -69 25 -30 14 -60 25 -66 25 -6 0 -21 5 -33 12 -24 14 -88 38
-99 38 -5 0 -8 -7 -8 -15z"/>
<path d="M3397 809 c-9 -6 -17 -19 -17 -29 0 -23 8 -25 33 -6 30 23 17 53 -16
35z"/>
<path d="M405 770 c-10 -16 5 -31 24 -25 18 5 92 -7 125 -20 29 -12 16 27 -14
42 -30 15 -126 17 -135 3z"/>
<path d="M3795 760 c-24 -27 -6 -50 19 -25 9 9 16 20 16 25 0 19 -18 19 -35 0z"/>
<path d="M3340 761 c0 -6 5 -13 10 -16 6 -3 10 1 10 9 0 9 -4 16 -10 16 -5 0
-10 -4 -10 -9z"/>
<path d="M3681 666 c-14 -17 -11 -48 5 -53 13 -4 26 48 15 60 -4 4 -13 1 -20
-7z"/>
<path d="M3375 630 c-7 -12 12 -50 25 -50 11 0 13 21 4 44 -7 18 -20 21 -29 6z"/>
<path d="M3600 627 c0 -13 39 -41 47 -34 2 3 0 15 -7 26 -12 23 -40 29 -40 8z"/>
<path d="M3480 615 c-7 -8 -9 -23 -5 -32 6 -16 8 -16 25 5 21 26 38 28 46 7 6
-15 34 -21 34 -7 -2 37 -75 57 -100 27z"/>
<path d="M2606 591 c-7 -10 32 -47 40 -38 3 3 3 15 -1 26 -6 21 -29 28 -39 12z"/>
<path d="M1340 545 c-7 -8 -21 -15 -31 -15 -11 0 -19 -4 -19 -10 0 -5 -12 -10
-26 -10 -14 0 -39 -9 -55 -21 l-29 -20 0 22 c0 24 15 25 -185 -11 -60 -10
-153 -29 -205 -40 -52 -12 -121 -25 -152 -30 -31 -4 -72 -13 -90 -19 -42 -13
-135 -39 -169 -46 -33 -8 -121 -79 -134 -109 -5 -12 -29 -40 -52 -63 -51 -47
-56 -87 -20 -140 17 -26 29 -33 55 -33 35 0 34 0 36 74 1 41 6 52 31 72 17 13
26 24 20 24 -5 0 -2 5 7 11 12 7 24 6 37 -1 11 -5 29 -10 40 -10 12 0 21 -6
21 -14 0 -18 43 -46 71 -46 16 0 20 -4 14 -17 -11 -29 -11 -35 3 -40 7 -3 12
4 12 16 0 13 12 26 31 36 33 18 40 14 70 -38 11 -19 29 -23 29 -6 0 16 31 38
52 39 9 0 23 7 31 15 13 12 15 11 19 -16 3 -20 0 -33 -9 -36 -22 -9 -15 -33
10 -33 25 0 67 26 67 41 0 6 -18 31 -39 57 -22 27 -41 62 -44 82 -3 19 -9 47
-12 62 -6 23 -3 29 16 37 31 11 125 33 165 38 35 4 59 -18 116 -109 l35 -54
-24 -22 c-24 -22 -45 -29 -41 -14 7 27 -53 182 -71 182 -15 0 -14 -12 10 -72
11 -29 22 -67 23 -86 2 -19 9 -37 15 -41 7 -5 0 -15 -19 -29 -52 -39 -26 -60
28 -24 48 31 66 41 124 72 31 16 60 36 65 44 4 7 17 15 28 18 27 5 26 32 -1
36 -12 2 -32 14 -45 28 -12 13 -26 24 -31 24 -16 0 -8 -34 14 -57 19 -20 20
-25 8 -33 -36 -23 -55 -10 -102 65 -26 41 -54 75 -63 75 -20 0 -19 16 1 24 36
14 83 5 114 -20 23 -20 34 -24 42 -16 9 9 7 17 -6 31 -12 13 -16 27 -11 38 6
16 8 17 18 2 7 -9 22 -19 34 -23 12 -4 32 -24 44 -44 12 -20 34 -49 47 -64
l26 -28 -28 0 c-48 0 -28 -32 29 -47 59 -15 82 -12 115 19 14 13 31 23 40 23
23 0 18 29 -7 40 -27 11 -30 25 -7 25 11 0 15 6 11 20 -7 26 16 26 51 1 28
-19 57 -21 81 -7 16 10 9 112 -8 129 -6 6 -11 24 -11 39 0 28 -1 28 -60 28
-42 0 -69 6 -92 20 -40 24 -42 24 -58 5z m72 -50 c27 -11 38 -11 48 -2 10 9
14 9 17 0 3 -7 18 -13 34 -13 34 0 38 -14 9 -32 -25 -16 -26 -34 -2 -47 43
-25 44 -27 32 -48 -12 -18 -13 -18 -40 9 -16 15 -36 28 -46 28 -16 0 -16 1 2
14 17 13 17 15 2 21 -9 4 -25 2 -35 -3 -15 -9 -19 -5 -28 26 -6 21 -17 37 -25
37 -9 0 -13 -6 -11 -15 3 -8 6 -35 7 -60 2 -25 6 -57 9 -72 6 -24 4 -28 -13
-28 -36 0 -52 11 -52 37 0 13 7 32 16 41 11 10 13 17 5 20 -6 2 -11 14 -11 27
0 37 -17 38 -34 3 -10 -19 -14 -43 -10 -63 4 -21 1 -35 -8 -43 -11 -9 -20 -2
-43 37 -17 31 -33 47 -42 44 -20 -8 -15 7 10 28 12 10 38 21 58 25 19 3 46 14
60 25 29 23 46 23 91 4z m-356 -54 c-3 -4 -24 -11 -47 -15 -23 -4 -55 -14 -73
-23 -17 -9 -51 -20 -76 -25 -117 -21 -120 -21 -120 -5 0 20 14 24 180 52 69
12 129 23 133 24 5 0 6 -3 3 -8z m-423 -77 c12 -12 -7 -35 -40 -49 -20 -8 -36
-15 -37 -15 0 0 -2 11 -2 25 -1 18 5 27 25 34 32 12 46 13 54 5z m-115 -45
c-4 -27 -81 -54 -110 -38 -26 14 -23 17 25 39 59 26 89 26 85 -1z m152 -41 c0
-6 9 -21 19 -32 28 -30 38 -94 16 -102 -18 -7 -79 52 -90 87 -4 10 -11 19 -16
19 -20 0 -8 19 19 28 37 14 52 14 52 0z m-50 -119 c0 -6 -4 -7 -10 -4 -5 3
-10 11 -10 16 0 6 5 7 10 4 6 -3 10 -11 10 -16z m-382 -36 c-2 -20 -8 -27 -20
-25 -10 2 -18 -2 -18 -8 0 -5 -4 -10 -10 -10 -16 0 -12 37 6 54 25 26 46 20
42 -11z"/>
<path d="M3360 520 c0 -15 -9 -22 -30 -26 -35 -8 -58 -30 -43 -45 14 -14 63 6
63 26 0 20 19 19 42 -2 23 -21 24 -1 1 38 -20 34 -33 37 -33 9z"/>
<path d="M3246 515 c-4 -10 1 -15 14 -15 11 0 20 7 20 15 0 8 -6 15 -14 15 -8
0 -16 -7 -20 -15z"/>
<path d="M3434 475 c-7 -18 3 -35 21 -35 21 0 28 19 15 35 -16 19 -29 19 -36
0z"/>
<path d="M2820 430 c-6 -11 -19 -20 -30 -20 -19 0 -50 -25 -50 -41 0 -26 90
16 101 48 11 29 -7 40 -21 13z"/>
<path d="M2619 405 c-1 -14 -2 -30 -3 -37 -2 -18 23 -21 30 -4 8 21 -3 66 -16
66 -6 0 -11 -11 -11 -25z"/>
<path d="M2930 386 c0 -8 6 -16 13 -19 21 -8 80 7 85 21 5 15 -34 16 -44 1 -4
-8 -9 -8 -17 0 -15 15 -37 14 -37 -3z"/>
<path d="M3200 357 c0 -11 5 -17 13 -14 6 2 27 -9 45 -24 18 -16 39 -29 47
-29 25 0 17 29 -10 36 -15 4 -25 13 -25 24 0 13 -10 19 -35 22 -29 3 -35 1
-35 -15z"/>
<path d="M3000 312 l-21 -17 35 -40 35 -40 1 28 c0 15 -4 27 -10 27 -5 0 -10
5 -10 10 0 7 6 7 19 0 28 -14 38 6 15 31 -21 24 -36 24 -64 1z"/>
<path d="M3210 302 c0 -21 18 -42 37 -42 18 0 16 16 -4 40 -22 25 -33 26 -33
2z"/>
<path d="M810 295 c-16 -19 -6 -115 12 -127 16 -10 39 -10 55 0 16 10 1 121
-18 133 -20 13 -35 11 -49 -6z"/>
<path d="M2434 285 l-29 -26 25 -19 c30 -24 34 -24 54 -5 13 13 13 18 0 45 -9
16 -17 30 -18 30 -2 0 -16 -11 -32 -25z"/>
<path d="M2710 300 c-12 -7 -12 -12 -2 -22 9 -9 15 -9 24 0 16 16 -2 34 -22
22z"/>
<path d="M3100 285 c0 -16 6 -25 15 -25 16 0 19 9 9 34 -9 25 -24 19 -24 -9z"/>
<path d="M2597 294 c-8 -8 1 -24 14 -24 5 0 9 7 9 15 0 15 -12 20 -23 9z"/>
<path d="M3162 279 c1 -12 9 -24 16 -27 9 -3 13 3 10 19 -1 12 -9 24 -16 27
-9 3 -13 -3 -10 -19z"/>
<path d="M2654 268 c-4 -6 -2 -14 4 -16 7 -2 12 -13 12 -23 0 -11 4 -18 9 -14
5 3 12 1 16 -5 9 -14 25 -3 25 17 0 16 -36 53 -51 53 -4 0 -11 -5 -15 -12z"/>
<path d="M3360 270 c0 -5 5 -10 10 -10 6 0 10 5 10 10 0 6 -4 10 -10 10 -5 0
-10 -4 -10 -10z"/>
<path d="M2580 225 c-14 -17 -5 -36 15 -28 16 6 21 43 6 43 -5 0 -14 -7 -21
-15z"/>
<path d="M2750 215 c0 -17 5 -25 13 -22 6 2 12 12 12 22 0 10 -6 20 -12 23 -8
2 -13 -6 -13 -23z"/>
<path d="M1545 210 c-16 -5 -42 -12 -57 -15 -19 -4 -28 -12 -28 -25 0 -23 12
-22 103 7 70 22 53 53 -18 33z"/>
<path d="M2414 205 c3 -9 6 -19 6 -21 0 -2 7 -4 16 -4 22 0 13 34 -10 38 -14
3 -17 0 -12 -13z"/>
<path d="M2948 199 c-19 -20 -23 -44 -10 -53 11 -7 74 53 67 64 -10 16 -38 10
-57 -11z"/>
<path d="M2680 174 c0 -17 22 -14 28 4 2 7 -3 12 -12 12 -9 0 -16 -7 -16 -16z"/>
<path d="M2372 158 c-19 -19 -14 -30 11 -26 12 2 22 9 22 17 0 19 -18 24 -33
9z"/>
<path d="M2518 145 c-10 -22 -9 -31 4 -53 19 -31 48 -41 48 -18 0 10 9 16 24
16 13 0 27 7 30 16 9 24 8 27 -17 20 -17 -4 -25 0 -32 17 -15 32 -43 33 -57 2z
m42 -36 c0 -11 -4 -17 -10 -14 -5 3 -10 13 -10 21 0 8 5 14 10 14 6 0 10 -9
10 -21z"/>
<path d="M2877 146 c-9 -13 -24 -23 -33 -22 -11 0 -20 -8 -24 -24 l-6 -25 -7
24 c-5 21 -8 23 -23 11 -15 -13 -14 -16 11 -38 33 -28 49 -24 53 12 3 20 11
30 33 38 18 6 29 17 29 29 0 26 -15 24 -33 -5z"/>
<path d="M1947 153 c-4 -3 -7 -15 -7 -25 0 -26 25 -22 38 7 10 22 9 25 -7 25
-10 0 -21 -3 -24 -7z"/>
<path d="M2036 115 c-7 -20 23 -33 34 -14 5 7 6 17 4 21 -9 13 -32 9 -38 -7z"/>
<path d="M2233 113 c-16 -6 -17 -33 -2 -33 19 0 50 21 44 31 -7 10 -22 11 -42
2z"/>
<path d="M2140 87 c0 -21 11 -27 31 -16 27 14 23 29 -6 29 -14 0 -25 -6 -25
-13z"/>
<path d="M1940 62 c0 -10 22 -32 32 -32 15 0 8 28 -8 34 -21 8 -24 8 -24 -2z"/>
<path d="M2698 35 c-32 -28 -34 -35 -12 -35 24 0 85 40 78 51 -9 16 -38 9 -66
-16z"/>
<path d="M560 32 c0 -11 -8 -22 -17 -25 -10 -2 -4 -4 13 -4 25 0 31 4 30 20
-1 27 -26 35 -26 9z"/>
<path d="M2383 31 c-7 -11 -23 -21 -35 -24 -13 -2 -4 -5 20 -6 39 -1 42 1 42
24 0 30 -11 32 -27 6z"/>
<path d="M2470 28 c-28 -18 -31 -23 -17 -26 33 -7 67 7 67 28 0 25 -7 25 -50
-2z"/>
<path d="M1885 20 c-17 -19 -17 -20 -1 -20 23 0 56 18 56 30 0 17 -36 11 -55
-10z"/>
<path d="M2253 3 c9 -2 23 -2 30 0 6 3 -1 5 -18 5 -16 0 -22 -2 -12 -5z"/>
<path d="M2823 3 c9 -2 23 -2 30 0 6 3 -1 5 -18 5 -16 0 -22 -2 -12 -5z"/>
</g>
</svg>
