<?xml version="1.0" standalone="no"?>
<!DOCTYPE svg PUBLIC "-//W3C//DTD SVG 20010904//EN"
 "http://www.w3.org/TR/2001/REC-SVG-20010904/DTD/svg10.dtd">
<svg version="1.0" xmlns="http://www.w3.org/2000/svg"
 width="256.000000pt" height="320.000000pt" viewBox="0 0 256.000000 320.000000"
 preserveAspectRatio="xMidYMid meet">
<metadata>
Created by potrace 1.16, written by Peter Selinger 2001-2019
</metadata>
<g transform="translate(0.000000,320.000000) scale(0.100000,-0.100000)"
fill="#000000" stroke="none">
<path d="M319 3168 c-1 -38 -16 -191 -25 -260 l-6 -48 -77 -2 c-42 -1 -92 -3
-111 -3 -19 -1 -50 -3 -67 -4 -25 -1 -33 -6 -33 -19 0 -16 8 -17 63 -14 l62 4
-3 -143 -3 -144 30 -20 c17 -11 31 -28 31 -38 0 -30 35 -16 38 16 3 21 -2 29
-20 36 -46 17 -57 41 -52 111 2 36 4 90 4 122 l0 56 53 4 c28 2 59 6 67 9 10
3 16 -9 21 -46 8 -61 4 -653 -6 -862 -5 -111 -4 -153 4 -153 18 0 20 13 24
203 3 98 8 181 12 185 6 6 -2 -501 -10 -663 -2 -33 -4 -111 -4 -174 -1 -63 -4
-111 -8 -107 -4 4 -6 54 -4 111 1 58 -2 105 -7 109 -14 9 -22 -30 -22 -114 l0
-75 -135 3 c-131 3 -135 3 -135 -17 0 -20 5 -21 134 -21 125 0 134 -1 139 -20
3 -11 14 -20 25 -20 18 0 19 -5 14 -65 -4 -54 -2 -66 12 -71 9 -3 16 -12 16
-20 0 -17 2 -17 60 -3 25 6 76 12 114 14 43 2 71 8 77 16 4 7 6 16 3 18 -10
10 -151 0 -189 -14 -61 -20 -68 -13 -63 65 3 37 9 73 13 80 13 21 264 0 284
-24 5 -6 21 -50 36 -98 26 -88 30 -103 41 -168 10 -59 54 -188 73 -212 10 -13
26 -37 34 -55 20 -37 47 -49 78 -33 20 11 21 18 17 84 -3 40 -13 88 -22 107
-10 19 -28 64 -41 101 -12 36 -33 81 -45 98 -17 23 -20 34 -11 43 20 20 12 37
-18 37 -29 0 -101 55 -101 77 0 10 -23 60 -56 123 -7 14 -17 25 -23 25 -5 0
-13 3 -17 8 -4 4 -2 7 4 7 17 0 15 16 -4 35 -15 14 -15 18 -1 33 8 9 32 52 52
94 21 43 47 87 57 98 29 31 16 50 -34 50 -51 0 -88 9 -88 21 0 13 81 11 119
-2 24 -8 35 -9 44 0 15 15 47 -15 47 -45 0 -23 -30 -74 -73 -125 -41 -48 -47
-67 -47 -159 0 -67 4 -97 16 -115 15 -24 21 -25 113 -25 l96 0 -2 -137 c-1
-134 -1 -139 34 -232 20 -53 47 -112 59 -131 13 -19 24 -39 24 -45 0 -5 9 -21
20 -35 29 -37 25 -71 -12 -107 -18 -17 -43 -34 -55 -38 -13 -3 -23 -11 -23
-17 0 -6 -11 -8 -27 -4 -16 4 -57 11 -93 16 -36 4 -114 15 -175 24 -159 21
-393 44 -523 50 -103 5 -113 4 -110 -11 2 -10 16 -20 33 -24 26 -5 76 -24 147
-54 14 -5 18 -2 18 13 0 11 -6 23 -12 26 -7 3 16 4 52 1 36 -3 115 -10 175
-15 61 -5 173 -18 250 -29 77 -12 152 -21 166 -21 14 0 41 -8 60 -17 24 -12
59 -17 117 -18 68 0 86 -3 96 -18 11 -14 29 -17 117 -17 106 1 147 13 137 42
-3 7 -1 26 4 43 13 47 0 93 -33 112 l-29 17 3 166 c2 156 1 167 -20 200 -13
19 -23 49 -23 66 0 16 -5 35 -11 41 -22 22 -3 42 35 36 19 -3 43 -2 53 2 10 5
38 9 63 9 33 1 45 5 45 16 0 20 -65 27 -76 8 -5 -7 -9 -8 -9 -3 -1 6 -3 24 -4
42 l-4 32 62 -4 c114 -9 178 -26 203 -55 18 -22 39 -30 110 -44 48 -9 115 -23
149 -31 38 -10 158 -18 325 -24 145 -5 271 -12 279 -15 8 -3 30 -7 48 -10 28
-4 32 -1 32 19 0 21 -5 23 -87 29 -49 3 -122 9 -163 12 l-75 6 3 38 c3 33 8
39 30 42 l27 3 0 190 c0 187 0 190 -21 190 -33 1 -55 24 -44 45 13 24 4 30
-46 30 -24 0 -46 5 -50 12 -5 8 -2 9 9 5 22 -8 67 9 67 25 1 19 36 58 53 58 8
0 20 7 27 15 9 11 34 15 96 15 l84 0 -6 39 -6 40 35 -11 c43 -13 67 4 67 49 0
21 -3 24 -9 13 -6 -8 -7 -18 -4 -23 6 -10 -40 -5 -67 7 -9 4 -24 -1 -36 -12
-11 -11 -26 -22 -34 -25 -11 -4 -9 -7 8 -12 32 -10 27 -25 -8 -25 -18 0 -30 5
-30 13 0 7 -20 35 -46 62 -64 70 -90 106 -70 99 11 -4 16 0 16 15 0 12 -4 21
-10 21 -5 0 -10 18 -10 40 0 28 -4 40 -15 40 -11 0 -13 -11 -9 -52 l6 -53 -39
40 c-45 46 -58 72 -44 89 6 7 7 24 3 39 -7 26 -8 27 -27 12 -14 -12 -16 -18
-7 -21 17 -8 15 -24 -4 -24 -16 0 -16 -6 1 -55 3 -11 -14 2 -39 30 -48 51 -57
68 -31 59 11 -5 15 2 14 32 -1 22 2 206 5 409 3 204 6 378 6 387 0 14 10 17
59 17 33 0 70 5 83 12 15 8 79 14 181 17 152 4 157 5 157 26 0 21 -2 21 -147
15 -82 -4 -164 -12 -183 -18 -19 -6 -53 -11 -75 -11 -62 0 -75 22 -75 125 0
69 -3 85 -15 85 -12 0 -15 -16 -15 -85 0 -51 -5 -93 -12 -105 -9 -14 -10 -23
-3 -28 6 -4 10 -38 9 -77 -2 -94 -1 -92 -23 -98 -29 -7 -56 -56 -56 -99 0 -22
-1 -35 -3 -29 -2 6 -11 11 -19 11 -10 0 -14 6 -10 20 3 11 0 33 -6 50 -9 24
-8 32 6 48 18 20 23 72 7 72 -5 0 -10 -6 -10 -13 0 -7 -9 -29 -19 -49 -11 -19
-18 -37 -16 -39 1 -2 5 -28 8 -58 3 -29 10 -58 16 -64 15 -15 14 -27 -3 -21
-8 3 -17 1 -21 -5 -3 -6 -19 -11 -34 -11 -16 0 -35 -7 -42 -16 -11 -13 -10
-17 5 -26 11 -6 14 -14 8 -21 -5 -7 -12 -24 -16 -39 -3 -14 -9 -33 -12 -42
-10 -26 44 -41 67 -20 23 20 32 14 33 -23 1 -18 10 -31 31 -43 26 -14 33 -15
58 -2 27 13 27 15 12 38 -9 14 -13 33 -10 44 3 10 2 21 -2 23 -4 3 -7 25 -6
49 2 23 3 78 4 121 2 80 13 107 46 107 14 0 15 -23 10 -196 -3 -107 -7 -198
-10 -200 -2 -3 -30 -5 -61 -6 -59 -2 -75 -9 -53 -25 20 -15 74 -14 90 1 22 23
27 10 27 -75 0 -103 -8 -122 -30 -72 -9 21 -24 44 -33 52 -10 7 -17 17 -17 21
0 4 -21 30 -48 56 -26 27 -55 61 -65 77 -10 15 -24 27 -32 27 -8 0 -15 5 -15
10 0 6 -4 10 -10 10 -5 0 -10 -4 -10 -9 0 -8 70 -99 118 -151 12 -14 41 -51
65 -82 23 -32 45 -58 49 -58 5 0 8 -5 8 -12 0 -16 -36 19 -80 77 -21 28 -53
66 -71 86 -19 20 -50 56 -69 79 -19 24 -45 53 -58 65 -12 12 -22 27 -22 34 0
6 -7 11 -15 11 -12 0 -15 20 -15 120 0 103 2 122 19 137 13 13 20 39 24 92 3
41 11 79 16 84 6 6 39 12 73 14 68 4 138 29 138 48 0 13 -57 8 -66 -6 -3 -5
-30 -9 -60 -9 -31 0 -64 -5 -74 -10 -17 -9 -21 -5 -30 30 -10 36 -30 56 -30
29 0 -6 -5 -7 -12 -2 -7 4 -43 8 -79 9 -37 1 -71 4 -75 6 -15 9 -57 17 -118
23 l-59 7 6 -51 c3 -28 9 -56 12 -61 3 -6 28 -10 55 -10 48 0 49 1 52 33 2 17
7 30 13 27 5 -3 8 -20 6 -37 -2 -31 0 -33 28 -33 17 0 34 -1 38 -2 4 -2 10 8
14 22 l6 25 4 -25 c2 -14 11 -25 19 -25 14 0 14 5 7 49 -1 5 4 11 11 13 6 3
12 -3 12 -12 0 -11 5 -15 15 -11 9 3 15 0 15 -9 0 -8 -7 -15 -15 -15 -16 0
-21 -25 -6 -34 21 -13 41 7 41 40 0 19 5 34 11 34 21 0 5 -169 -20 -210 -19
-32 -21 -49 -21 -217 0 -115 -4 -183 -10 -183 -12 0 -11 -9 -13 194 l-2 160
-120 22 c-126 24 -201 29 -223 15 -7 -4 -15 -21 -16 -37 -2 -16 -7 -56 -11
-89 -7 -68 -25 -125 -38 -125 -4 0 -6 8 -4 18 14 49 18 79 18 137 1 35 -2 73
-6 83 -10 34 -63 50 -185 57 -63 4 -130 14 -149 21 -39 16 -104 18 -131 4 -10
-5 -22 -24 -25 -42 -4 -17 -17 -48 -28 -67 -22 -40 -48 -143 -51 -209 -1 -23
-8 -48 -14 -54 -17 -17 -15 -26 8 -33 42 -13 17 -20 -65 -17 -70 3 -85 1 -85
-11 0 -9 6 -18 13 -20 6 -3 0 -6 -15 -6 -31 -1 -35 -12 -13 -35 8 -8 15 -16
15 -18 0 -5 -134 7 -140 12 -5 5 -7 18 -9 58 -1 12 -7 22 -15 22 -8 0 -16 14
-20 33 -4 26 -10 362 -7 429 1 15 5 16 28 7 14 -5 32 -8 40 -5 26 10 12 33
-28 45 -31 9 -39 15 -30 24 14 14 15 257 1 257 -5 0 -10 -15 -11 -32z m1091
-164 c0 -8 7 -14 15 -14 8 0 15 8 15 17 0 13 3 14 11 6 19 -19 3 -45 -23 -38
-27 8 -50 34 -42 47 7 12 24 0 24 -18z m140 -18 c0 -14 -4 -28 -10 -31 -6 -4
-10 7 -10 24 0 17 5 31 10 31 6 0 10 -11 10 -24z m-647 -201 c20 -8 61 -15 90
-15 30 0 56 -2 59 -6 3 -3 -1 -26 -8 -51 -8 -26 -14 -89 -14 -143 0 -63 -4
-100 -12 -108 -10 -10 -10 -15 2 -22 8 -5 12 -10 10 -12 -6 -4 -201 8 -287 17
-57 7 -62 9 -58 29 2 11 11 56 20 100 8 43 29 106 45 141 17 35 30 68 30 74 0
16 81 14 123 -4z m271 -39 c34 -14 34 -15 38 -86 1 -39 0 -79 -3 -89 -4 -9 -8
-44 -10 -76 -3 -51 -1 -60 14 -63 10 -2 20 4 24 15 3 10 15 38 26 63 11 25 22
61 24 80 2 19 7 58 11 85 l7 50 41 3 c22 2 74 -4 115 -13 41 -9 91 -19 112
-22 l37 -6 0 -96 c0 -102 -7 -144 -21 -135 -13 8 -11 -40 3 -54 6 -6 9 -14 6
-17 -6 -6 -489 24 -538 34 -6 1 -2 166 6 269 l6 72 34 0 c19 0 50 -6 68 -14z
m710 -172 c11 -28 6 -39 -9 -20 -8 11 -15 23 -15 28 0 14 18 9 24 -8z m66 -14
c8 -5 11 -12 8 -16 -10 -9 -38 3 -38 16 0 12 10 13 30 0z m-45 -40 c3 -6 -1
-7 -9 -4 -18 7 -21 14 -7 14 6 0 13 -4 16 -10z m-205 -85 c0 -8 -2 -15 -4 -15
-2 0 -6 7 -10 15 -3 8 -1 15 4 15 6 0 10 -7 10 -15z m280 -5 c0 -5 -7 -10 -16
-10 -8 0 -12 5 -9 10 3 6 10 10 16 10 5 0 9 -4 9 -10z m-1165 -30 c22 -7 13
-8 -39 -7 -42 1 -71 7 -73 14 -4 12 55 8 112 -7z m885 -17 c0 -20 -3 -24 -11
-16 -7 7 -9 19 -6 27 10 24 17 19 17 -11z m76 -40 c-7 -7 -46 35 -46 50 0 6
12 -1 26 -17 14 -15 23 -30 20 -33z m-711 37 c7 -11 -46 -12 -145 0 -63 7 -62
7 37 8 59 1 104 -2 108 -8z m-397 -14 c8 -9 -80 -5 -108 5 -17 6 -5 7 39 4 35
-2 66 -6 69 -9z m87 -6 c25 -1 27 -2 13 -11 -21 -12 -88 -2 -88 13 0 6 10 8
23 4 12 -3 36 -6 52 -6z m702 -8 c100 -5 156 -11 165 -19 15 -16 -23 -17 -103
-4 -30 5 -123 13 -208 16 -85 4 -164 11 -175 16 -14 6 13 7 74 3 52 -3 163 -9
247 -12z m-1130 -14 c-3 -8 -6 -5 -6 6 -1 11 2 17 5 13 3 -3 4 -12 1 -19z
m633 2 c24 -8 24 -8 -5 -8 -16 0 -50 3 -75 7 l-45 8 50 1 c28 0 61 -4 75 -8z
m-370 -15 l25 -14 -23 -1 c-38 0 -20 -24 24 -31 21 -3 33 -7 27 -8 -7 0 -13
-6 -13 -12 0 -6 -9 -24 -21 -40 l-21 -30 27 -26 c21 -21 28 -24 35 -13 4 7 6
19 3 27 -3 7 2 13 11 13 9 0 16 5 16 10 0 6 -7 10 -15 10 -8 0 -15 7 -15 15 0
8 5 15 11 15 6 0 9 6 6 14 -3 8 1 17 9 20 8 3 14 15 14 26 0 27 10 25 36 -7
14 -18 26 -24 39 -20 14 6 15 10 5 22 -11 14 -4 15 61 10 41 -4 84 -8 97 -11
27 -5 29 -24 3 -24 -14 0 -19 -6 -18 -22 1 -24 14 -38 33 -38 6 0 16 19 21 43
10 40 11 39 11 -33 0 -41 -3 -113 -7 -160 l-8 -85 -1 78 c-2 61 -5 77 -17 77
-12 0 -15 -17 -15 -93 0 -82 -3 -96 -21 -113 -27 -25 -69 -69 -118 -123 -44
-49 -32 -46 -198 -50 -30 -1 -43 -5 -43 -15 0 -8 6 -17 13 -19 6 -3 0 -6 -15
-6 -21 -1 -26 3 -21 15 4 10 -1 17 -16 21 -15 4 -21 13 -21 34 0 16 -4 29 -10
29 -12 0 -21 -35 -18 -70 4 -56 -3 -140 -11 -140 -14 0 -13 218 0 242 14 26
-1 42 -41 44 -23 1 -30 -3 -30 -17 0 -13 7 -19 21 -19 13 0 18 -4 13 -12 -5
-7 -7 -27 -5 -45 2 -27 -1 -33 -17 -33 -17 0 -20 -6 -18 -47 1 -39 4 -48 18
-47 14 1 16 -4 12 -21 -3 -13 -1 -26 5 -29 18 -11 13 -25 -7 -19 -32 8 -42
-37 -43 -195 0 -81 -4 -156 -9 -167 -6 -12 -7 105 -4 300 8 507 12 626 18 632
3 4 6 -1 6 -10 0 -10 8 -17 19 -17 30 0 36 -19 12 -41 -26 -25 -27 -35 -1 -42
11 -3 20 -10 20 -16 0 -6 -9 -11 -20 -11 -23 0 -26 -10 -8 -28 19 -19 45 -14
51 11 3 12 7 57 8 101 2 86 -8 104 -57 92 -22 -6 -24 -4 -24 34 l0 40 58 0
c32 0 63 5 70 12 10 10 12 5 9 -21 -2 -19 -11 -39 -19 -45 -10 -8 -15 -35 -16
-96 -1 -47 -5 -118 -8 -159 -5 -60 -4 -73 7 -69 8 3 13 14 11 25 -1 11 4 26
13 33 13 10 13 15 3 21 -10 6 -10 11 -1 20 10 10 16 9 31 -4 10 -9 24 -17 30
-17 30 0 -4 46 -41 55 -32 8 -35 21 -8 30 12 3 26 24 35 52 14 41 14 48 1 63
-18 20 -19 42 -3 58 8 8 8 15 1 24 -13 16 -5 78 11 78 6 -1 22 -7 36 -15z
m427 9 c-3 -3 -12 -4 -19 -1 -8 3 -5 6 6 6 11 1 17 -2 13 -5z m690 -24 c4 -14
7 -176 8 -360 0 -184 4 -341 9 -349 7 -11 37 -12 158 -6 142 7 149 6 146 -12
-2 -14 4 -19 31 -21 32 -3 33 -2 27 25 -12 52 -20 413 -9 413 6 0 21 -17 35
-37 22 -36 23 -40 9 -68 -19 -39 -21 -226 -2 -249 11 -13 10 -18 -3 -31 -24
-25 -20 -54 10 -66 37 -13 26 -20 -17 -10 -19 4 -46 4 -59 -1 -14 -6 -57 -10
-96 -11 l-71 -1 0 -39 c0 -44 -4 -50 -27 -41 -27 10 -31 50 -7 75 23 24 28 49
10 49 -21 0 -49 -21 -49 -37 0 -13 -3 -13 -15 -3 -9 7 -13 21 -10 31 5 16 3
18 -17 10 -40 -14 -58 -87 -60 -245 l-3 -140 24 -6 c43 -10 34 -27 -14 -28
l-45 0 5 66 c3 37 7 293 9 570 2 425 1 506 -11 518 -8 8 -19 14 -24 14 -6 0
-8 3 -6 8 3 4 17 7 31 7 18 0 27 -7 33 -25z m-377 -5 c85 -4 162 -11 170 -16
15 -10 -35 -8 -292 10 -59 4 -111 11 -115 15 -4 4 12 5 37 2 25 -3 115 -8 200
-11z m-990 -55 c0 -29 -5 -50 -11 -50 -6 0 -9 17 -5 48 5 56 5 52 11 52 3 0 5
-22 5 -50z m690 -12 c0 -35 -5 -70 -10 -78 -7 -10 -10 9 -10 63 0 45 4 77 10
77 6 0 10 -27 10 -62z m622 28 c11 -20 3 -524 -8 -535 -3 -3 -4 115 -2 262 2
173 -1 267 -7 268 -54 3 -101 11 -110 20 -6 6 11 9 53 7 52 -2 66 -6 74 -22z
m198 -7 c0 -5 -9 -4 -19 3 -11 7 -17 16 -14 20 5 10 33 -10 33 -23z m-100 11
c0 -5 -2 -10 -4 -10 -3 0 -8 5 -11 10 -3 6 -1 10 4 10 6 0 11 -4 11 -10z
m-634 -11 c4 -7 -2 -9 -17 -7 -20 2 -23 -1 -21 -19 2 -13 -2 -23 -7 -23 -6 0
-11 14 -11 30 0 25 4 30 24 30 14 0 28 -5 32 -11z m247 -11 c109 -10 127 -14
121 -27 -4 -9 -9 -76 -11 -150 -2 -74 -8 -140 -12 -145 -6 -7 -39 -9 -91 -6
-71 4 -83 8 -99 29 -11 14 -21 43 -24 65 -7 45 -28 96 -39 96 -5 0 -8 8 -8 19
0 22 -16 37 -51 46 -24 6 -25 9 -15 31 6 13 15 24 20 24 5 0 3 7 -4 15 -11 13
-6 15 36 15 27 0 107 -5 177 -12z m178 -62 c5 -6 9 0 9 17 0 23 4 27 30 27
l30 0 0 -251 0 -251 -129 4 c-73 2 -137 0 -147 -5 -15 -9 -16 -5 -11 26 6 38
-11 84 -38 107 -22 18 -18 31 7 21 12 -4 42 -4 67 1 25 5 62 9 82 10 27 0 40
6 47 22 6 11 12 86 14 166 2 81 7 148 13 152 6 4 11 -2 13 -15 2 -12 8 -26 13
-31z m240 27 c4 -77 11 -108 25 -124 12 -13 13 -19 4 -19 -6 0 -10 -6 -7 -14
3 -8 3 -17 -1 -21 -4 -4 -7 -18 -7 -31 -1 -17 5 -24 17 -24 10 0 18 -4 18 -10
0 -5 -7 -10 -15 -10 -10 0 -15 -10 -15 -30 0 -32 1 -33 24 -24 9 3 13 11 10
16 -13 20 90 -3 104 -23 19 -27 31 -15 28 28 -2 41 -16 52 -36 28 -7 -8 -19
-15 -26 -15 -10 0 -7 7 7 21 13 13 28 19 42 15 26 -6 52 7 43 22 -3 5 -20 12
-37 16 -23 4 -38 0 -63 -19 -34 -26 -75 -37 -44 -12 26 21 29 46 8 67 -11 11
-17 26 -14 34 3 8 -4 21 -16 29 -13 9 -18 20 -14 31 9 23 19 20 44 -11 21 -27
22 -28 36 -8 15 20 15 20 30 1 8 -11 14 -23 14 -28 0 -4 5 -8 10 -8 6 0 10 9
10 20 0 11 -4 20 -10 20 -5 0 -10 5 -10 12 0 14 53 -35 83 -76 13 -19 17 -31
10 -33 -7 -3 -9 -14 -4 -31 5 -15 9 -97 9 -182 1 -85 4 -168 8 -185 6 -28 5
-29 -12 -15 -16 13 -39 15 -127 10 -106 -5 -123 0 -96 27 20 20 -17 66 -48 60
l-25 -5 4 216 c2 159 7 217 16 220 14 4 16 32 2 32 -11 0 -14 33 -3 43 12 12
23 7 24 -10z m117 5 c15 -15 16 -42 1 -32 -6 3 -15 1 -19 -6 -6 -9 -13 -9 -26
-2 -18 10 -18 11 -1 17 9 4 17 13 17 21 0 17 12 18 28 2z m-745 -118 c7 -6 21
-17 32 -25 19 -14 19 -14 -8 -15 -22 0 -28 -4 -25 -17 2 -10 12 -17 21 -17 15
2 17 -3 12 -28 -4 -17 -16 -39 -26 -49 -24 -24 -47 -15 -26 9 22 27 28 52 12
52 -11 0 -13 8 -8 30 5 29 4 30 -31 30 -20 0 -36 5 -36 10 0 6 11 10 24 10 14
0 28 5 31 10 8 13 13 13 28 0z m-41 -99 l4 -29 -27 21 c-35 27 -36 37 -5 37
19 0 25 -6 28 -29z m1166 -164 c74 -87 83 -101 57 -91 -8 4 -15 12 -15 19 0 8
-11 22 -25 33 -32 26 -155 173 -155 187 0 10 11 -1 138 -148z m-1098 75 c0
-12 -79 -87 -85 -80 -3 2 12 23 32 46 36 40 53 51 53 34z m1021 -64 c19 -24
32 -52 31 -63 -2 -14 0 -16 6 -7 6 9 14 6 32 -13 18 -19 20 -24 7 -19 -9 3
-23 2 -30 -4 -6 -5 -27 -13 -44 -17 -29 -6 -33 -4 -33 13 0 31 11 52 26 52 23
0 16 24 -16 55 -16 16 -30 32 -30 37 0 18 19 6 51 -34z m-991 -3 c26 -31 -12
-154 -47 -155 -7 0 -13 -4 -13 -10 0 -5 -13 -10 -29 -10 -17 0 -33 -4 -36 -10
-17 -28 -33 10 -41 98 -3 31 -2 32 32 32 25 0 44 9 72 35 42 39 45 40 62 20z
m-194 -19 c16 -17 18 -33 4 -38 -21 -7 21 -178 43 -178 6 0 21 12 33 28 18 21
25 24 35 15 10 -10 9 -14 -4 -19 -9 -3 -17 -10 -17 -15 0 -15 -64 -99 -69 -91
-3 4 -17 7 -30 7 -13 0 -26 6 -29 14 -3 10 0 12 11 8 18 -7 52 27 42 43 -4 6
-15 8 -25 5 -31 -10 -60 12 -60 44 0 16 -6 46 -14 67 -16 47 -13 57 27 95 35
34 34 33 53 15z m-511 -106 c3 -5 -1 -10 -9 -10 -9 0 -16 5 -16 10 0 6 4 10 9
10 6 0 13 -4 16 -10z m180 -20 c-7 -12 -42 -12 -70 0 -15 6 -8 9 28 9 30 1 46
-3 42 -9z m722 -16 c-3 -3 -12 -4 -19 -1 -8 3 -5 6 6 6 11 1 17 -2 13 -5z
m156 -1 c-18 -2 -48 -2 -65 0 -18 2 -4 4 32 4 36 0 50 -2 33 -4z m64 1 c-3 -3
-12 -4 -19 -1 -8 3 -5 6 6 6 11 1 17 -2 13 -5z m-268 -29 c13 -14 33 -25 45
-25 12 0 28 -6 34 -12 7 -7 49 -15 95 -18 l82 -5 -3 -35 c-2 -19 -5 -35 -5
-36 -1 -1 -24 2 -52 6 -41 6 -46 9 -27 15 32 11 22 29 -21 36 -30 5 -39 2 -58
-21 -22 -25 -24 -25 -41 -8 -10 10 -29 18 -42 18 -15 0 -26 7 -29 20 -5 21
-27 28 -27 10 0 -6 -9 -2 -20 8 -24 22 -18 49 14 62 29 12 28 12 55 -15z
m-141 -29 c2 -15 -3 -35 -11 -44 -8 -10 -22 -32 -31 -49 -9 -18 -32 -48 -51
-68 -19 -19 -35 -45 -36 -57 l0 -23 -9 22 c-6 16 -15 20 -30 16 -19 -5 -20 -2
-14 21 9 36 -17 35 -39 -3 -22 -38 -22 -58 3 -66 20 -6 28 -25 11 -25 -5 0 -7
-9 -4 -20 3 -11 13 -20 23 -20 10 0 24 -7 31 -16 12 -15 10 -16 -21 -9 -42 9
-82 29 -97 47 -15 19 -13 96 3 109 8 6 14 24 14 38 0 25 3 27 33 23 17 -2 37
-8 43 -13 14 -11 35 6 67 56 36 55 90 113 102 111 6 -2 11 -15 13 -30z m552
24 c12 -8 11 -10 -7 -10 -13 0 -23 5 -23 10 0 13 11 13 30 0z m-210 -10 c0 -5
-4 -10 -10 -10 -5 0 -10 5 -10 10 0 6 5 10 10 10 6 0 10 -4 10 -10z m50 0 c0
-5 -7 -10 -15 -10 -8 0 -15 5 -15 10 0 6 7 10 15 10 8 0 15 -4 15 -10z m-1015
-54 l30 -16 -42 0 c-23 0 -48 -6 -56 -15 -8 -8 -17 -11 -21 -8 -3 4 -6 1 -6
-5 0 -7 -10 -12 -22 -11 l-23 0 23 9 c22 9 31 30 12 30 -10 0 -14 43 -5 52 7
6 67 -14 110 -36z m315 34 c0 -5 -9 -10 -19 -10 -11 0 -23 -9 -26 -20 -4 -13
-15 -20 -31 -20 -17 0 -24 5 -24 20 0 22 15 27 24 8 4 -9 10 -6 22 10 16 22
54 31 54 12z m746 -52 c-3 -13 -6 -116 -6 -230 0 -150 -3 -208 -11 -208 -9 0
-10 52 -6 198 4 108 7 212 7 230 0 17 5 32 11 32 7 0 9 -9 5 -22z m-1206 2 c0
-5 -4 -10 -10 -10 -5 0 -10 5 -10 10 0 6 5 10 10 10 6 0 10 -4 10 -10z m831 0
c10 -6 19 -21 19 -34 0 -12 3 -26 7 -30 14 -14 32 -101 33 -156 l0 -56 -56 -2
c-31 -1 -64 -7 -74 -12 -10 -6 -35 -10 -56 -10 -32 0 -36 2 -31 23 2 12 8 29
11 38 6 14 1 16 -38 12 -31 -4 -46 -2 -46 6 0 6 11 11 24 11 41 0 53 9 49 35
-4 16 1 27 15 34 12 6 36 36 54 66 18 30 36 55 40 55 5 0 8 -12 9 -27 1 -39
31 -87 57 -91 27 -4 27 -2 0 45 -24 39 -49 103 -41 103 2 0 13 -5 24 -10z
m-851 -51 c16 -29 9 -29 -19 -2 -19 18 -21 23 -8 23 9 0 21 -9 27 -21z m431
-36 c38 1 69 -1 69 -6 0 -17 -26 -34 -50 -33 -33 1 -34 -28 -2 -32 22 -3 23
-7 17 -40 -3 -20 -7 -63 -7 -95 -1 -52 -3 -58 -25 -63 -13 -4 -47 -4 -76 0
-28 3 -62 6 -74 6 -13 0 -23 4 -23 9 0 5 20 7 45 4 34 -3 46 -1 51 11 9 23
-11 71 -29 70 -12 -1 -15 7 -11 42 4 52 -12 67 -38 34 -10 -12 -22 -20 -25
-16 -4 4 -3 10 3 14 5 4 21 23 34 42 14 19 33 43 42 52 10 10 19 24 19 31 1 6
4 2 6 -11 4 -21 9 -22 74 -19z m502 16 c-4 -16 -8 -17 -14 -7 -13 19 -11 28 5
28 9 0 12 -7 9 -21z m697 -9 c0 -5 -7 -10 -15 -10 -19 0 -19 -14 1 -34 12 -13
12 -16 2 -16 -32 0 -53 52 -25 63 21 9 37 7 37 -3z m-1488 -17 c16 -19 9 -63
-10 -63 -5 0 -19 -23 -31 -50 -20 -46 -24 -50 -49 -44 -15 4 -30 9 -34 11 -13
7 -9 42 8 68 9 14 14 32 10 40 -3 10 8 21 37 34 53 24 51 24 69 4z m38 13 c0
-3 -4 -8 -10 -11 -5 -3 -10 -1 -10 4 0 6 5 11 10 11 6 0 10 -2 10 -4z m996
-31 c3 -13 3 -51 1 -86 -5 -60 -16 -80 -50 -92 -13 -4 1 -63 20 -82 13 -13 11
-15 -15 -15 -16 0 -63 3 -105 6 l-76 7 0 51 c0 29 0 56 -1 61 -2 6 -2 20 -1
33 1 22 2 22 20 5 23 -22 37 -63 22 -63 -18 0 -13 -26 9 -45 16 -15 22 -15 35
-5 17 14 20 50 4 50 -8 0 -7 6 2 17 11 13 11 17 2 20 -22 8 -14 20 16 26 23 5
31 13 36 38 4 18 16 40 27 48 10 9 20 26 20 37 3 28 26 20 34 -11z m-1209 3
c-3 -8 -6 -5 -6 6 -1 11 2 17 5 13 3 -3 4 -12 1 -19z m1566 -8 c34 0 64 -24
45 -36 -23 -15 -68 -15 -68 0 0 8 -7 16 -15 20 -8 3 -15 13 -15 23 0 13 3 14
12 5 7 -7 25 -12 41 -12z m119 -2 c-7 -7 -12 -8 -12 -2 0 6 3 14 7 17 3 4 9 5
12 2 2 -3 -1 -11 -7 -17z m-251 -21 c3 -4 19 -9 35 -11 16 -2 32 -4 37 -5 4 0
7 -10 7 -21 0 -19 10 -24 37 -21 10 2 10 -4 1 -26 -20 -46 -49 -73 -81 -73
-20 0 -30 -6 -34 -20 -3 -11 -10 -20 -15 -20 -25 0 -64 69 -48 86 4 5 11 26
14 47 8 41 -12 60 -39 37 -16 -13 -20 -3 -10 22 6 15 85 19 96 5z m364 3 c3
-5 -1 -10 -10 -10 -9 0 -13 5 -10 10 3 6 8 10 10 10 2 0 7 -4 10 -10z m-755
-10 c0 -5 -2 -10 -4 -10 -3 0 -8 5 -11 10 -3 6 -1 10 4 10 6 0 11 -4 11 -10z
m675 -38 c-8 -22 -12 -48 -9 -57 4 -9 -3 -24 -17 -36 -18 -16 -32 -19 -59 -14
-60 11 -66 26 -27 69 28 30 39 36 60 31 20 -6 26 -2 32 17 7 20 25 41 32 35 1
-2 -4 -22 -12 -45z m-61 22 c5 -14 4 -15 -9 -4 -17 14 -19 20 -6 20 5 0 12 -7
15 -16z m-1652 -81 c-10 -26 -10 -24 -11 22 0 42 2 46 11 28 7 -15 7 -30 0
-50z m1862 5 c-1 -18 -3 -35 -3 -38 -2 -11 -51 -10 -51 1 0 5 7 9 17 7 11 -2
19 7 25 30 5 17 10 32 12 32 2 0 2 -15 0 -32z m-917 -110 c-2 -13 -4 -3 -4 22
0 25 2 35 4 23 2 -13 2 -33 0 -45z m-854 37 c63 -11 41 -25 -38 -25 -66 0 -86
6 -70 21 7 8 69 10 108 4z m517 -25 c-8 -5 -22 -10 -30 -10 -13 0 -13 1 0 10
8 5 22 10 30 10 13 0 13 -1 0 -10z m1180 -11 c0 -5 -4 -9 -10 -9 -5 0 -10 7
-10 16 0 8 5 12 10 9 6 -3 10 -10 10 -16z m-860 -79 c0 -5 -7 -10 -15 -10 -8
0 -15 5 -15 10 0 6 7 10 15 10 8 0 15 -4 15 -10z m710 0 c0 -5 -15 -10 -32 -9
-28 0 -30 2 -13 9 28 12 45 12 45 0z m-856 -119 c9 -29 16 -67 16 -83 0 -16 7
-42 15 -58 8 -15 17 -64 20 -109 3 -45 10 -93 16 -107 15 -42 22 -124 10 -124
-6 0 -11 -6 -11 -13 0 -7 -9 -32 -20 -56 -19 -38 -20 -45 -6 -72 l14 -29 -59
0 c-33 0 -59 4 -59 10 0 6 8 10 18 10 36 0 46 17 44 71 -2 55 -25 104 -43 93
-6 -3 -9 -17 -6 -30 2 -14 1 -26 -2 -29 -10 -6 -29 72 -35 145 -3 36 -13 90
-21 120 -9 30 -22 75 -30 100 -11 38 -10 51 1 79 8 18 14 42 14 51 0 10 10 31
23 47 12 15 31 46 41 68 l18 40 13 -35 c7 -19 20 -59 29 -89z m553 83 c-3 -3
-12 -4 -19 -1 -8 3 -5 6 6 6 11 1 17 -2 13 -5z m173 -8 c0 -8 8 -17 18 -20 30
-9 162 -16 162 -8 0 13 99 0 111 -14 10 -12 4 -14 -32 -14 -84 0 -275 21 -349
38 l-75 17 60 6 c103 10 105 10 105 -5z m-878 -64 c4 -4 2 -25 -3 -47 -19 -69
-21 -99 -11 -142 6 -24 6 -43 2 -43 -5 0 -11 -8 -13 -17 -4 -14 -5 -13 -6 4 0
12 -6 25 -12 28 -6 4 -8 22 -4 46 6 32 4 39 -10 39 -11 0 -15 6 -10 18 3 13
-3 25 -20 38 -25 18 -35 71 -18 88 9 8 94 -2 105 -12z m-218 -117 c7 -16 19
-50 26 -75 6 -25 18 -52 25 -60 24 -27 38 -151 17 -150 -35 2 -116 163 -134
267 -10 59 -9 74 2 88 12 14 15 13 32 -12 10 -15 25 -41 32 -58z m126 -29 c0
-28 -17 -8 -25 29 -7 29 -7 29 8 10 9 -11 17 -29 17 -39z m328 -42 c-3 -14 -5
-12 -10 9 -3 19 -2 25 4 19 6 -6 8 -18 6 -28z m9 -121 c-3 -10 -5 -4 -5 12 0
17 2 24 5 18 2 -7 2 -21 0 -30z m32 -282 c18 -16 32 -34 30 -40 -2 -6 -19 3
-37 20 -19 17 -39 28 -47 25 -15 -5 -20 5 -8 17 12 13 28 7 62 -22z m-291 -23
c-3 -7 -22 -14 -42 -16 -26 -2 -36 0 -31 8 4 6 13 9 19 7 7 -3 19 -1 27 4 20
12 31 11 27 -3z"/>
<path d="M916 2713 c-3 -3 -6 -48 -6 -100 0 -51 -4 -93 -9 -93 -15 0 -41 42
-41 67 0 25 -16 39 -23 20 -7 -18 4 -77 14 -77 5 0 9 -18 9 -40 0 -39 1 -40
34 -40 29 0 36 5 44 29 6 16 8 31 6 34 -3 3 -5 48 -5 101 -1 89 -6 115 -23 99z"/>
<path d="M755 2563 c-3 -27 -10 -58 -15 -70 -6 -14 -6 -25 1 -29 21 -12 34 17
37 80 4 77 -14 90 -23 19z"/>
<path d="M1396 2443 c-12 -12 -6 -33 9 -33 8 0 15 6 15 14 0 17 -14 28 -24 19z"/>
<path d="M732 2228 c6 -18 28 -21 28 -4 0 9 -7 16 -16 16 -9 0 -14 -5 -12 -12z"/>
<path d="M716 2183 c-12 -12 -6 -43 9 -43 8 0 15 9 15 19 0 21 -13 34 -24 24z"/>
<path d="M640 2077 c0 -14 20 -37 32 -37 4 0 8 11 8 25 0 18 -5 25 -20 25 -11
0 -20 -6 -20 -13z"/>
<path d="M622 2024 c1 -9 9 -19 16 -22 9 -3 13 2 10 14 -1 9 -9 19 -16 22 -9
3 -13 -2 -10 -14z"/>
<path d="M718 2005 c-20 -17 -25 -31 -25 -64 l0 -41 36 6 c20 4 40 10 46 15 5
5 19 9 31 9 31 0 39 17 14 32 -11 7 -20 17 -20 23 0 5 -13 17 -28 26 -27 15
-30 15 -54 -6z m60 -42 c2 -9 -7 -13 -27 -13 -21 0 -31 5 -31 16 0 19 51 16
58 -3z"/>
<path d="M630 1968 c1 -19 37 -64 46 -55 12 12 -10 61 -29 65 -9 2 -17 -2 -17
-10z"/>
<path d="M602 1925 c2 -19 10 -31 21 -33 24 -5 22 21 -4 44 -21 19 -21 19 -17
-11z"/>
<path d="M530 1906 c0 -14 29 -31 38 -21 6 6 -18 35 -29 35 -5 0 -9 -6 -9 -14z"/>
<path d="M644 1878 c-4 -6 0 -16 9 -23 12 -8 13 -15 6 -22 -6 -6 -8 -16 -5
-22 9 -14 56 -15 56 -1 0 6 7 10 15 10 8 0 15 5 15 11 0 6 -8 8 -17 5 -13 -4
-23 3 -35 24 -18 32 -32 38 -44 18z"/>
<path d="M720 1870 c0 -5 5 -10 10 -10 6 0 10 5 10 10 0 6 -4 10 -10 10 -5 0
-10 -4 -10 -10z"/>
<path d="M1975 1560 c3 -5 10 -10 16 -10 5 0 9 5 9 10 0 6 -7 10 -16 10 -8 0
-12 -4 -9 -10z"/>
<path d="M1370 2223 c8 -4 20 -13 26 -21 8 -11 13 -12 18 -4 11 19 -3 32 -32
31 -16 0 -21 -3 -12 -6z"/>
<path d="M1530 2097 c0 -41 -3 -102 -6 -136 -6 -56 -5 -61 12 -61 17 0 20 8
22 58 2 31 2 66 2 77 -1 11 -3 44 -4 74 -1 32 -7 56 -14 59 -9 3 -12 -17 -12
-71z"/>
<path d="M1474 1820 c-1 -51 1 -60 16 -60 13 0 19 10 22 37 6 52 -2 83 -21 83
-13 0 -16 -12 -17 -60z"/>
<path d="M1898 2076 c-6 -31 19 -43 41 -21 14 13 13 16 -4 30 -27 20 -32 19
-37 -9z"/>
<path d="M1796 1791 c-8 -12 3 -41 15 -41 12 0 12 37 0 45 -5 3 -12 1 -15 -4z"/>
<path d="M672 3129 l-2 -71 32 4 c22 4 36 0 44 -10 17 -24 44 -7 44 28 0 16 5
30 11 30 7 0 9 -18 7 -47 -2 -28 1 -48 8 -50 13 -4 24 28 24 70 0 20 5 27 20
27 23 0 25 -8 5 -34 -10 -13 -11 -24 -4 -37 12 -24 39 -25 40 -1 0 13 2 12 9
-5 17 -43 30 -24 30 45 0 73 -13 108 -30 82 -5 -9 -21 -14 -39 -12 -16 2 -32
-1 -35 -7 -4 -7 -20 -3 -42 10 -19 10 -39 17 -44 14 -5 -3 -15 3 -22 15 -7 11
-22 20 -33 20 -18 0 -20 -7 -23 -71z m68 5 c0 -8 -5 -12 -10 -9 -6 4 -8 11 -5
16 9 14 15 11 15 -7z m171 -61 c-9 -15 -10 -12 -10 17 0 29 1 32 10 18 7 -12
7 -24 0 -35z m-196 18 c3 -5 1 -12 -5 -16 -5 -3 -10 1 -10 9 0 18 6 21 15 7z"/>
<path d="M966 3142 c-2 -4 -2 -36 1 -71 6 -63 22 -86 45 -63 8 8 15 9 25 1 10
-9 13 -6 13 14 0 25 -20 40 -42 32 -9 -4 -14 6 -15 27 l-2 33 24 -28 c16 -18
30 -25 38 -20 6 4 20 6 30 5 11 -2 17 3 17 17 0 12 -3 21 -7 22 -45 4 -68 10
-82 23 -19 17 -37 21 -45 8z"/>
<path d="M605 3130 c-9 -14 4 -52 16 -45 12 8 12 55 0 55 -6 0 -13 -5 -16 -10z"/>
<path d="M1260 3045 c0 -55 3 -66 21 -75 11 -6 30 -10 42 -8 19 3 22 9 21 47
0 32 -6 48 -19 55 -10 6 -25 19 -34 29 -26 28 -31 20 -31 -48z m60 -34 c0 -5
-7 -11 -15 -15 -10 -3 -15 1 -15 13 0 11 -3 28 -6 38 -6 15 -3 14 15 -4 11
-12 21 -26 21 -32z"/>
<path d="M1136 3083 c-11 -11 -6 -23 9 -23 8 0 15 4 15 9 0 13 -16 22 -24 14z"/>
<path d="M1177 3083 c-13 -12 -7 -23 13 -23 17 0 20 -7 20 -45 0 -33 4 -45 15
-45 19 0 21 90 3 108 -13 13 -41 16 -51 5z"/>
<path d="M1080 3010 c0 -11 5 -20 10 -20 6 0 10 9 10 20 0 11 -4 20 -10 20 -5
0 -10 -9 -10 -20z"/>
<path d="M1142 3008 c2 -12 11 -24 21 -26 24 -5 22 25 -4 38 -18 10 -20 9 -17
-12z"/>
<path d="M2123 2922 c-18 -12 -21 -565 -4 -649 8 -34 11 -72 8 -83 -6 -22 18
-54 33 -45 5 3 7 19 4 34 -3 16 -1 38 5 49 6 12 7 23 3 26 -13 8 -3 59 16 84
15 20 21 21 55 11 32 -9 36 -13 26 -25 -9 -12 -9 -18 0 -27 15 -15 33 10 25
36 -4 14 1 17 34 17 23 0 42 -5 45 -12 3 -10 7 -10 20 0 9 8 32 12 54 10 33
-3 38 0 41 20 3 19 -1 22 -30 22 l-33 1 33 14 c28 12 32 19 32 53 0 21 5 43
11 49 5 5 13 36 16 67 3 31 9 56 13 56 16 0 30 55 29 113 -1 60 -1 61 -9 21
-13 -62 -42 -117 -72 -134 -42 -23 -50 -6 -34 70 16 78 20 217 6 225 -11 7
-97 -72 -88 -81 5 -5 -21 -69 -53 -126 -5 -10 -9 -24 -9 -32 0 -7 -8 -24 -19
-37 -10 -13 -26 -52 -36 -86 -10 -35 -24 -68 -31 -74 -8 -6 -14 -24 -14 -39 0
-15 -9 -38 -19 -52 -11 -13 -23 -37 -26 -51 -4 -15 -11 -27 -16 -27 -15 0 -2
63 20 102 15 25 20 44 15 62 -5 20 -2 26 11 26 9 0 15 6 12 13 -2 6 2 25 10
41 10 19 13 43 9 70 -3 23 -11 77 -17 121 -5 44 -15 85 -21 92 -7 9 -7 22 1
44 6 18 11 34 11 35 0 7 -55 4 -67 -4z m298 -75 c-10 -9 -11 -8 -5 6 3 10 9
15 12 12 3 -3 0 -11 -7 -18z m-254 -96 c-3 -25 -13 -62 -22 -81 -11 -24 -14
-27 -11 -10 3 14 6 61 6 105 0 76 1 79 16 56 12 -17 15 -36 11 -70z m249 23
c11 -26 12 -40 5 -47 -6 -6 -11 -30 -11 -54 0 -24 -4 -43 -10 -43 -5 0 -10
-13 -10 -29 0 -16 -9 -48 -19 -72 -23 -52 -23 -63 4 -64 11 0 20 -7 20 -15 0
-11 -17 -17 -59 -23 -66 -9 -76 -5 -57 25 11 18 11 23 -1 32 -23 18 -3 110 28
126 26 14 30 30 14 46 -8 8 -6 15 5 24 8 7 15 19 15 28 0 16 47 102 56 102 3
0 12 -16 20 -36z m17 -190 c15 -5 12 -54 -4 -54 -5 0 -9 3 -9 8 0 4 -3 17 -6
30 -7 23 -4 25 19 16z m-296 -136 c-3 -7 -5 -2 -5 12 0 14 2 19 5 13 2 -7 2
-19 0 -25z m323 2 c0 -5 -4 -10 -10 -10 -5 0 -10 5 -10 10 0 6 5 10 10 10 6 0
10 -4 10 -10z"/>
<path d="M2313 2593 c-18 -7 -17 -63 1 -63 16 0 46 37 46 57 0 13 -24 16 -47
6z"/>
<path d="M393 2866 c-13 -6 -23 -13 -23 -16 0 -8 210 -4 218 4 24 25 -149 36
-195 12z"/>
<path d="M0 2756 c0 -18 13 -45 35 -72 19 -23 35 -49 35 -57 0 -23 11 -47 21
-47 20 0 9 75 -16 104 -14 16 -25 32 -25 36 0 4 -11 20 -25 36 l-25 29 0 -29z"/>
<path d="M1719 2693 c0 -5 -2 -19 -4 -33 -17 -129 -16 -146 16 -178 29 -30 49
-34 49 -11 0 6 -10 19 -22 29 -20 16 -22 25 -19 109 1 59 -1 91 -8 91 -6 0
-11 -3 -12 -7z"/>
<path d="M346 2584 c-10 -77 -7 -134 7 -134 9 0 13 19 14 62 1 34 5 74 8 90 5
21 3 28 -8 28 -9 0 -16 -16 -21 -46z"/>
<path d="M2534 2545 c-14 -22 -15 -30 -4 -49 7 -14 9 -36 5 -55 -4 -20 -3 -31
4 -31 8 0 8 -6 0 -19 -10 -14 -9 -23 4 -42 16 -22 17 -18 17 99 0 67 -2 122
-5 122 -2 0 -12 -11 -21 -25z"/>
<path d="M414 2516 c-8 -22 3 -33 18 -18 9 9 9 15 0 24 -9 9 -13 7 -18 -6z"/>
<path d="M150 2405 c0 -26 15 -34 23 -12 3 8 15 2 36 -17 25 -24 34 -27 44
-17 10 10 5 18 -23 41 -45 38 -80 40 -80 5z"/>
<path d="M52 2365 c0 -35 12 -54 22 -36 8 12 -4 71 -14 71 -5 0 -8 -16 -8 -35z"/>
<path d="M382 2363 c4 -22 39 -28 69 -13 28 15 9 30 -39 30 -27 0 -33 -4 -30
-17z"/>
<path d="M2470 2311 c0 -12 2 -21 4 -21 2 0 12 -3 21 -6 13 -5 16 -2 13 17 -4
31 -38 39 -38 10z"/>
<path d="M56 2303 c-12 -12 -6 -33 9 -33 8 0 15 6 15 14 0 17 -14 28 -24 19z"/>
<path d="M2302 2268 c5 -15 27 -18 31 -3 1 5 -6 11 -17 13 -12 3 -17 -1 -14
-10z"/>
<path d="M2400 2246 c0 -17 38 -41 48 -31 9 9 -13 40 -32 43 -9 2 -16 -3 -16
-12z"/>
<path d="M2545 2250 c-3 -6 -4 -19 0 -29 3 -11 1 -22 -4 -26 -11 -6 -4 -64 10
-79 5 -6 9 23 9 67 0 76 -3 87 -15 67z"/>
<path d="M2450 2200 c-12 -7 -12 -12 3 -28 9 -10 17 -23 17 -29 0 -6 7 -13 15
-17 11 -4 15 1 15 19 0 14 -4 25 -10 25 -5 0 -10 6 -10 14 0 20 -13 27 -30 16z"/>
<path d="M20 2183 c0 -5 5 -15 10 -23 8 -12 10 -11 10 8 0 12 -4 22 -10 22 -5
0 -10 -3 -10 -7z"/>
<path d="M2261 2147 c-11 -15 -6 -47 9 -47 11 0 21 43 11 53 -4 4 -13 1 -20
-6z"/>
<path d="M2240 2064 c0 -9 5 -14 12 -12 18 6 21 28 4 28 -9 0 -16 -7 -16 -16z"/>
<path d="M80 1870 c0 -11 5 -20 10 -20 6 0 10 9 10 20 0 11 -4 20 -10 20 -5 0
-10 -9 -10 -20z"/>
<path d="M217 1823 c-4 -3 -7 -17 -7 -30 0 -33 24 -24 28 10 3 26 -7 35 -21
20z"/>
<path d="M140 1790 c0 -11 5 -20 10 -20 6 0 10 9 10 20 0 11 -4 20 -10 20 -5
0 -10 -9 -10 -20z"/>
<path d="M2530 1761 c-32 -9 -34 -45 -2 -49 12 -2 22 -7 22 -12 0 -5 -57 -11
-127 -12 -112 -3 -128 -5 -131 -20 -3 -15 5 -18 52 -18 63 0 77 -17 19 -22
l-38 -3 -3 -62 c-4 -87 7 -105 65 -101 l45 3 4 72 c4 100 13 113 74 113 l50 0
0 60 c0 33 -1 60 -2 59 -2 -1 -14 -4 -28 -8z m-120 -181 c0 -5 -9 -10 -19 -10
-11 0 -23 5 -26 10 -4 6 5 10 19 10 14 0 26 -4 26 -10z"/>
<path d="M2310 1246 c0 -8 3 -17 8 -19 4 -3 60 -8 125 -12 l117 -7 0 24 c0 23
-1 23 -125 26 -107 3 -125 2 -125 -12z"/>
<path d="M1352 723 c-14 -37 -20 -167 -7 -173 6 -3 14 28 20 75 l10 80 185 -4
c102 -2 248 -10 325 -18 77 -8 223 -19 325 -23 102 -5 196 -11 210 -14 14 -3
51 -7 83 -10 51 -4 57 -3 57 15 0 10 -1 19 -2 20 -20 6 -214 21 -363 29 -104
5 -203 11 -220 14 -78 13 -257 26 -426 31 l-186 6 -11 -28z"/>
</g>
</svg>
