<?xml version="1.0" standalone="no"?>
<!DOCTYPE svg PUBLIC "-//W3C//DTD SVG 20010904//EN"
 "http://www.w3.org/TR/2001/REC-SVG-20010904/DTD/svg10.dtd">
<svg version="1.0" xmlns="http://www.w3.org/2000/svg"
 width="344.000000pt" height="256.000000pt" viewBox="0 0 344.000000 256.000000"
 preserveAspectRatio="xMidYMid meet">
<metadata>
Created by potrace 1.16, written by Peter Selinger 2001-2019
</metadata>
<g transform="translate(0.000000,256.000000) scale(0.100000,-0.100000)"
fill="#000000" stroke="none">
<path d="M1331 2448 l1 -113 -93 -30 -94 -30 -3 -57 -3 -56 -50 -7 c-33 -5
-54 -14 -63 -27 -22 -31 -176 -59 -214 -39 -15 8 -27 7 -48 -4 -16 -8 -49 -17
-74 -21 -25 -3 -76 -15 -115 -26 -38 -11 -103 -23 -142 -27 -71 -6 -73 -6 -78
19 -3 14 -17 30 -31 37 -21 10 -26 9 -37 -8 -6 -10 -22 -19 -34 -19 -32 0 -41
-25 -36 -108 4 -70 3 -73 -15 -63 -13 7 -22 7 -30 -1 -9 -9 -18 -6 -36 11 -14
13 -31 21 -38 19 -7 -3 -27 1 -45 9 -18 7 -37 13 -43 13 -13 0 -13 -57 1 -65
17 -11 25 5 9 16 -11 8 -8 9 10 3 33 -9 33 -9 25 -33 -4 -14 -15 -21 -31 -21
-17 0 -24 -5 -24 -20 0 -15 7 -20 24 -20 14 0 28 -4 31 -10 12 -20 35 -10 35
15 0 31 22 33 35 3 12 -26 41 -45 52 -35 4 4 2 17 -5 27 -16 26 -15 33 2 27 7
-3 18 -1 24 5 8 8 13 7 18 -5 9 -25 38 -22 31 3 -6 24 3 32 23 20 9 -6 18 -3
27 8 12 16 14 15 33 -8 10 -14 17 -33 14 -42 -7 -23 31 -25 40 -2 9 24 7 46
-4 39 -5 -3 -10 1 -10 9 0 15 11 20 37 17 6 -1 14 3 17 8 4 6 18 6 39 0 39
-11 37 -11 37 1 0 5 -10 18 -22 30 -17 16 -19 23 -10 32 17 17 46 -1 50 -31 2
-11 10 -21 19 -21 12 0 14 11 10 60 -4 59 -4 60 22 66 14 3 33 8 41 11 43 15
150 29 151 19 2 -14 2 -11 -5 -81 -8 -85 -22 -124 -53 -157 l-27 -28 27 0 c21
0 31 8 45 37 l19 37 5 -152 c3 -99 8 -156 16 -164 9 -9 12 21 12 138 0 82 -4
163 -8 179 -5 17 -7 50 -4 74 4 40 6 43 31 38 14 -3 34 -9 44 -12 14 -6 17 -2
17 23 0 17 -4 34 -10 37 -5 3 -10 14 -10 23 0 14 17 22 78 35 42 10 85 17 94
17 9 0 20 5 23 10 9 15 25 12 25 -5 0 -8 -4 -15 -10 -15 -5 0 -10 -9 -10 -19
0 -11 -5 -23 -11 -26 -6 -4 -8 -14 -4 -23 3 -8 1 -18 -5 -22 -6 -4 -13 -20
-15 -36 -7 -40 -43 -162 -61 -202 -8 -18 -14 -38 -14 -45 0 -7 -7 -25 -15 -41
-11 -21 -13 -32 -5 -40 15 -15 43 22 36 47 -3 12 3 21 20 27 28 11 42 39 26
49 -14 8 27 167 57 226 12 21 21 47 21 57 0 9 5 20 11 24 7 4 9 20 6 40 -5 31
-4 34 26 39 18 2 58 9 90 15 88 15 87 16 87 -125 l0 -122 40 -18 c22 -10 40
-25 40 -33 0 -9 7 -13 20 -9 21 5 28 -7 10 -18 -6 -4 -8 -15 -5 -24 3 -10 -1
-31 -9 -46 -8 -16 -13 -32 -10 -37 19 -31 57 37 52 95 -3 39 -1 42 25 45 15 2
27 -1 27 -7 0 -6 -6 -11 -14 -11 -15 0 -27 -45 -19 -67 3 -7 11 -13 19 -13 8
0 14 -4 14 -9 0 -6 -12 -9 -26 -8 -31 2 -44 -19 -17 -27 10 -3 48 -7 85 -8
l68 -3 0 -51 c0 -48 17 -104 33 -104 4 0 7 -12 7 -26 0 -14 -4 -23 -9 -20 -14
9 -63 -12 -56 -24 3 -5 14 -10 24 -10 22 0 81 -29 81 -39 0 -11 -49 -1 -56 10
-3 5 -13 5 -24 -1 -13 -7 -21 -6 -30 5 -13 15 -60 21 -60 8 0 -13 84 -83 106
-89 16 -4 21 -13 20 -35 -1 -33 -20 -38 -38 -9 -7 11 -21 20 -30 20 -20 0 -24
-15 -8 -25 6 -3 10 -10 10 -15 0 -17 -65 3 -87 27 -24 25 -53 29 -84 12 -27
-14 -14 -29 26 -29 48 0 49 -12 4 -34 -23 -12 -39 -26 -38 -35 1 -9 0 -18 -1
-21 -1 -3 -3 -29 -4 -57 -1 -40 2 -53 12 -53 8 0 12 6 9 14 -4 9 5 22 21 32
39 25 52 40 52 58 0 9 6 16 14 16 7 0 22 12 32 27 l17 28 10 -28 c6 -19 15
-27 33 -27 15 0 24 6 24 16 0 8 5 12 11 9 6 -4 20 2 32 13 21 19 23 19 50 2
l28 -17 -32 -7 c-17 -3 -42 -6 -55 -6 -13 0 -24 -6 -25 -12 0 -7 -3 -22 -5
-33 -3 -11 -6 -27 -8 -35 -1 -9 -5 -21 -10 -28 -4 -6 -4 -16 -1 -22 8 -13 -23
-72 -35 -65 -4 3 -10 -1 -13 -7 -3 -8 -9 -2 -15 13 -13 33 -29 39 -106 39 -59
0 -62 1 -79 33 -13 23 -17 58 -18 130 -1 98 -7 111 -36 82 -13 -13 -13 -20 -2
-46 8 -20 9 -33 2 -37 -19 -13 -22 -42 -8 -69 8 -15 15 -32 15 -38 0 -14 -118
-9 -158 7 -30 12 -35 11 -48 -7 -10 -13 -13 -31 -9 -52 6 -35 -13 -53 -58 -53
-13 0 -32 -9 -41 -19 -15 -16 -21 -17 -39 -7 -95 53 -100 59 -100 131 1 22 -4
46 -9 52 -12 15 -48 17 -48 3 0 -5 7 -10 15 -10 9 0 15 -9 15 -25 0 -14 -7
-28 -15 -31 -8 -4 -15 -18 -15 -34 0 -21 -6 -29 -24 -32 -31 -6 -60 14 -44 30
9 9 9 15 1 23 -15 15 -34 3 -26 -16 4 -11 -3 -15 -26 -15 -17 0 -31 -4 -31
-10 0 -5 -26 -9 -59 -9 -32 1 -68 -2 -80 -6 -23 -7 -24 -5 -22 60 0 38 -10 55
-36 55 -7 0 -13 -7 -13 -15 0 -8 5 -15 11 -15 8 0 10 -14 6 -43 -4 -28 -2 -48
6 -57 7 -7 -10 -1 -36 14 -50 27 -115 34 -187 18 -19 -4 -45 -6 -57 -4 -18 3
-21 8 -17 35 5 32 -9 67 -21 55 -4 -4 -7 -24 -8 -45 0 -21 -4 -43 -9 -50 -6
-7 -7 -16 -4 -22 4 -5 -7 -30 -24 -55 -24 -35 -37 -45 -63 -48 -25 -2 -33 -8
-35 -26 -3 -22 -1 -23 35 -16 44 8 69 27 91 69 18 35 51 67 63 60 4 -3 -4 -17
-18 -31 -15 -15 -23 -32 -20 -43 3 -12 -1 -18 -11 -17 -24 2 -25 -25 -3 -54
19 -24 20 -24 27 -5 10 25 33 49 61 63 17 9 22 9 27 -4 8 -20 26 -8 26 16 0
36 -22 69 -49 72 -23 3 -22 5 14 16 71 21 122 16 171 -20 24 -17 51 -42 59
-55 23 -34 49 -31 42 6 -6 31 7 51 34 51 19 0 31 -23 23 -45 -4 -10 3 -18 20
-25 29 -11 34 -28 11 -36 -8 -4 -15 -13 -15 -21 0 -11 8 -14 30 -11 38 6 38
-3 1 -25 -40 -23 -60 -21 -70 7 -14 36 -37 39 -83 10 -26 -17 -58 -27 -92 -29
-28 -2 -51 -4 -51 -5 0 -1 -26 -4 -58 -6 -33 -2 -69 -10 -80 -16 -21 -12 -21
-12 -2 -16 19 -4 54 -39 55 -54 0 -5 -24 -8 -53 -8 -28 0 -68 -4 -86 -10 -32
-9 -61 -3 -33 7 34 12 -9 123 -48 123 -28 0 -28 -56 0 -85 22 -24 17 -60 -6
-51 -10 4 -14 -5 -14 -34 0 -37 2 -39 37 -45 64 -11 70 -15 16 -10 -47 4 -53
2 -53 -15 0 -11 3 -20 8 -20 4 -1 38 -5 77 -10 39 -5 111 -14 160 -20 117 -13
215 -32 215 -41 0 -4 -15 -11 -32 -14 -18 -4 -37 -11 -43 -15 -5 -4 -29 -14
-52 -20 -23 -7 -51 -21 -62 -32 -11 -10 -24 -18 -28 -18 -11 -1 -76 -109 -86
-142 -12 -45 36 -124 93 -152 44 -22 140 -40 151 -29 15 15 -7 28 -84 48 -55
15 -73 25 -96 54 -44 57 -45 68 -7 125 44 66 60 80 121 104 28 11 80 34 118
51 37 17 83 31 101 31 21 0 36 6 40 15 3 9 19 15 38 15 18 1 71 7 118 14 83
12 130 31 130 51 0 5 8 19 16 30 15 19 16 18 9 -19 -4 -25 -17 -47 -35 -63
-23 -19 -31 -36 -37 -76 -4 -29 -6 -58 -5 -64 2 -7 -4 -13 -13 -13 -19 0 -19
-17 -1 -36 18 -18 59 -33 116 -44 25 -5 74 -16 110 -25 69 -18 62 -19 200 26
57 18 78 39 38 39 -36 -1 -138 -27 -153 -40 -18 -15 -30 8 -85 161 -23 63 -48
128 -56 146 -8 17 -17 45 -20 62 -4 17 -10 34 -14 36 -5 3 -6 13 -3 23 4 16
-8 17 -198 14 -158 -4 -201 -2 -197 8 2 7 28 21 57 32 33 13 55 27 58 39 3 10
9 17 13 14 11 -7 40 5 40 15 0 5 -9 12 -20 15 -17 5 -20 15 -20 70 0 66 10 85
35 65 10 -8 15 -31 15 -67 0 -51 2 -54 23 -51 17 2 21 9 19 29 -2 27 20 45 39
33 14 -8 11 -24 -6 -24 -21 0 -19 -17 5 -30 14 -8 26 -7 42 1 21 11 21 12 3
25 -16 12 -17 14 -2 20 10 3 17 12 17 20 0 8 4 14 9 14 15 0 33 -29 28 -44
-13 -34 67 -35 89 -1 9 14 23 25 30 25 8 0 31 7 52 16 22 9 69 17 118 17 83 2
118 16 108 42 -3 8 -13 15 -22 17 -11 2 -13 6 -6 11 7 4 23 -3 38 -14 19 -15
26 -30 26 -55 0 -32 -2 -34 -35 -34 -29 0 -37 -5 -45 -25 -5 -14 -7 -32 -3
-42 5 -13 2 -15 -11 -10 -10 4 -49 7 -86 7 -65 0 -70 1 -82 28 -9 17 -22 28
-40 30 -24 3 -27 -1 -33 -38 -10 -61 6 -69 121 -63 51 3 104 3 118 -1 23 -6
26 -11 26 -54 l0 -48 -75 2 c-71 2 -103 -7 -70 -20 8 -3 15 -14 15 -24 0 -10
5 -23 12 -30 14 -14 3 -18 -74 -26 -51 -5 -57 -4 -63 14 -3 11 -10 20 -15 20
-4 0 -6 9 -3 20 3 11 0 20 -6 20 -20 0 -13 -75 9 -95 16 -15 31 -17 85 -12 35
3 76 14 91 23 14 10 29 13 32 8 4 -5 25 -21 48 -37 35 -24 49 -27 120 -27 43
0 106 5 139 11 33 7 170 13 305 14 154 1 260 7 285 14 25 8 89 11 170 9 l130
-3 8 -165 c16 -346 19 -390 30 -390 13 0 2 570 -11 579 -5 3 -10 73 -11 156
-1 82 -5 153 -7 157 -3 4 -7 56 -10 115 -2 60 -9 160 -14 223 -13 166 -17 434
-6 440 6 3 14 -10 18 -27 5 -18 13 -33 19 -33 8 0 9 -21 4 -67 -10 -94 -7
-319 6 -503 10 -137 14 -157 32 -171 20 -17 20 -17 -8 -11 -24 4 -27 2 -22
-12 4 -10 7 -21 7 -25 0 -10 134 0 141 11 4 6 11 -4 17 -21 11 -30 26 -36 90
-34 6 1 12 -4 12 -9 0 -6 -48 -9 -129 -7 l-129 4 3 -95 c4 -87 6 -95 25 -98
12 -2 28 2 36 9 17 14 84 20 84 7 0 -4 9 -8 20 -8 11 0 19 6 18 13 -2 9 38 15
154 22 86 6 160 14 164 18 5 4 3 17 -4 27 -7 11 -12 28 -12 39 0 10 -7 24 -16
32 -33 28 -5 159 54 253 l29 45 7 -161 c4 -89 13 -178 20 -199 12 -34 11 -38
-5 -42 -22 -6 -26 -37 -6 -37 8 0 22 9 32 20 10 11 31 20 47 20 45 0 172 22
183 31 5 5 32 9 60 9 28 0 60 6 71 15 12 8 24 11 28 8 3 -3 6 3 6 14 0 12 -6
24 -12 27 -10 5 -10 7 0 12 9 4 12 109 12 472 0 256 -3 462 -7 459 -3 -4 -8
-78 -10 -164 -3 -127 -9 -289 -12 -335 -1 -5 -10 -8 -22 -8 -12 0 -23 -8 -26
-20 -3 -11 -8 -20 -12 -20 -3 0 -12 -10 -20 -21 -11 -18 -11 -23 1 -31 9 -7 0
-8 -26 -4 -22 3 -43 9 -48 14 -14 14 3 42 26 42 29 1 77 42 67 58 -8 13 -41 6
-41 -9 0 -5 -11 -9 -25 -9 -14 0 -34 -9 -45 -20 -17 -17 -20 -17 -20 -4 0 10
-6 14 -15 11 -20 -8 -28 9 -15 33 7 13 7 20 1 20 -6 0 -8 7 -4 15 3 9 -2 24
-11 34 -10 11 -13 21 -8 25 6 3 12 1 14 -6 3 -7 12 -9 23 -4 12 4 15 10 9 16
-11 11 -6 80 6 80 12 0 20 -29 10 -35 -17 -11 -11 -33 12 -41 16 -5 27 -1 39
15 9 11 26 21 38 21 13 0 19 5 15 14 -3 8 -1 17 5 21 15 9 14 -58 -1 -73 -9
-9 -9 -12 0 -12 19 0 14 -25 -8 -45 -27 -25 -25 -37 5 -29 15 4 25 2 25 -5 0
-6 9 -11 20 -11 20 0 28 24 11 35 -5 3 -7 21 -4 40 7 44 -4 117 -22 141 -13
19 -14 19 -28 0 -12 -16 -14 -11 -15 49 -2 62 10 95 33 95 4 0 18 8 31 19 21
16 22 20 9 31 -8 7 -15 20 -15 29 0 9 -17 23 -38 33 -34 15 -35 17 -14 23 12
4 22 14 22 22 0 24 -62 6 -91 -28 -25 -29 -49 -38 -49 -19 0 6 7 10 15 10 8 0
15 7 15 16 0 9 8 28 18 42 26 38 70 132 77 167 4 17 16 56 27 88 12 31 18 61
14 65 -11 10 -35 -26 -42 -65 -3 -18 -10 -36 -15 -39 -5 -3 -9 -18 -9 -34 0
-16 -5 -32 -10 -35 -6 -4 -9 -12 -8 -18 1 -7 -10 -31 -25 -54 -15 -24 -27 -47
-27 -53 0 -5 -5 -10 -11 -10 -7 0 -8 7 -4 18 5 9 11 40 16 67 4 28 11 70 15
94 9 54 -7 49 -24 -6 -19 -67 -42 -177 -42 -205 0 -33 -9 -58 -21 -58 -5 0 -9
9 -9 19 0 11 -4 23 -10 26 -12 7 -50 -52 -50 -78 0 -10 -7 -20 -15 -23 -8 -4
-15 -15 -15 -27 0 -29 -61 -116 -82 -117 -15 0 -16 3 -4 31 7 18 22 36 32 42
28 15 28 15 14 32 -9 11 -14 62 -16 168 -4 207 -14 398 -24 442 -5 20 -16 42
-26 50 -16 11 -17 16 -6 37 15 28 4 179 -14 185 -19 6 -9 -214 12 -262 12 -28
18 -72 21 -145 1 -58 4 -116 5 -130 2 -16 -2 -25 -12 -26 -33 -3 -34 -5 -13
-23 26 -22 30 -89 5 -98 -19 -8 -37 24 -33 60 2 19 -2 27 -13 27 -19 0 -30
-17 -16 -25 7 -4 7 -12 2 -18 -4 -7 -8 -46 -7 -88 0 -73 0 -75 -14 -47 -9 19
-24 31 -43 35 -16 3 -31 10 -35 16 -4 6 4 8 21 3 14 -3 26 -3 26 1 0 13 -42
93 -49 93 -4 0 -15 18 -25 40 -10 22 -31 53 -48 68 -16 15 -41 37 -54 50 -33
29 -37 28 -30 -10 3 -18 8 -44 10 -57 2 -14 11 -30 20 -36 9 -7 16 -17 16 -24
0 -6 4 -19 9 -29 26 -50 53 -130 54 -161 1 -37 6 -47 45 -84 13 -12 35 -34 50
-48 15 -14 35 -29 44 -32 13 -5 16 -14 11 -39 -3 -24 0 -38 11 -47 9 -7 16
-24 16 -37 0 -12 5 -35 12 -51 6 -15 10 -34 9 -42 -1 -7 2 -10 8 -6 6 3 11 13
11 21 0 8 4 22 9 32 65 131 65 131 120 187 13 13 25 37 26 52 4 44 17 74 29
70 14 -5 13 -56 -2 -84 -14 -25 -6 -53 14 -53 8 0 14 -4 14 -10 0 -5 -11 -10
-24 -10 -45 0 -68 -30 -68 -88 0 -36 -4 -52 -13 -52 -21 0 -26 -29 -9 -56 18
-26 29 -30 40 -12 4 6 0 16 -9 23 -21 15 -22 25 -3 25 13 0 26 41 26 86 0 28
43 55 61 37 5 -5 23 -8 39 -5 23 3 30 10 30 26 0 22 17 46 32 46 4 0 8 -20 8
-45 0 -25 5 -45 10 -45 18 0 11 -29 -10 -40 -17 -9 -22 -7 -32 15 -11 25 -13
26 -26 8 -12 -17 -14 -17 -23 0 -19 34 -32 19 -27 -33 4 -37 2 -50 -8 -50 -7
0 -16 5 -19 11 -11 17 -37 -28 -30 -51 4 -11 11 -18 16 -15 12 8 11 -6 -1 -25
-8 -13 -11 -13 -19 -1 -11 17 -32 5 -25 -14 4 -8 -1 -18 -10 -21 -11 -4 -14
-13 -11 -25 8 -26 -24 -38 -40 -16 -17 24 -35 2 -35 -44 0 -48 -8 -69 -25 -63
-8 3 -16 -4 -20 -18 -4 -13 -16 -35 -26 -49 -10 -14 -21 -37 -24 -52 -6 -23
-27 -41 -24 -20 1 5 1 30 0 57 l-1 49 -35 -6 c-34 -6 -49 8 -21 19 23 9 27 34
11 57 -23 33 -19 57 9 57 23 0 41 22 29 34 -9 9 -61 7 -67 -2 -8 -13 -64 -2
-78 15 -10 13 -7 14 25 8 25 -5 37 -4 37 4 0 6 -4 11 -10 11 -5 0 -10 7 -10
15 0 20 12 19 43 -5 44 -35 57 -27 57 36 0 30 4 53 9 50 18 -11 19 22 2 50
-10 16 -21 43 -25 59 -9 38 -70 131 -91 139 -13 5 -21 19 -58 106 -6 14 -19
34 -28 45 -9 11 -28 54 -42 95 -23 70 -27 76 -61 84 -20 5 -36 13 -36 18 0 11
24 10 36 -2 8 -8 14 -7 22 2 10 13 -3 85 -28 148 -5 14 -12 54 -15 89 -3 44
-14 80 -35 119 -16 30 -30 59 -30 64 0 5 12 19 26 32 28 23 36 68 15 89 -18
18 -35 -6 -22 -31 7 -14 8 -23 1 -27 -11 -7 -80 23 -80 35 0 4 -10 5 -23 3
-33 -7 -78 14 -75 34 2 13 -5 17 -32 19 l-35 1 30 -14 c23 -11 25 -13 6 -9
-30 6 -57 -23 -122 -129 -48 -78 -58 -105 -39 -105 13 0 30 -67 30 -120 l0
-44 -17 24 c-10 14 -28 46 -40 73 -26 55 -49 64 -39 15 3 -18 15 -45 26 -60
11 -15 20 -31 20 -36 0 -5 11 -19 25 -32 14 -13 25 -32 25 -42 0 -10 4 -18 9
-18 15 0 91 -133 82 -145 -13 -16 5 -124 25 -146 9 -11 19 -31 20 -45 2 -22
-1 -25 -23 -22 -19 2 -29 11 -34 30 -9 36 -41 77 -59 78 -9 0 -26 7 -38 16
-13 9 -24 14 -25 13 -3 -6 11 -392 16 -423 3 -28 27 -51 27 -27 0 6 16 11 35
11 32 0 35 3 35 29 0 16 7 34 15 41 10 9 15 9 15 1 0 -16 32 -14 58 5 21 15
22 14 22 -14 0 -35 -24 -58 -56 -54 -38 5 -29 -22 16 -52 l40 -26 0 -74 c0
-68 -2 -73 -25 -84 -33 -15 -35 -15 -35 2 0 8 -5 16 -12 18 -20 7 10 98 33 98
29 0 24 37 -6 44 -14 4 -25 13 -25 20 0 19 -52 28 -65 12 -5 -7 -14 -14 -20
-15 -53 -8 -60 -37 -17 -73 45 -38 47 -48 7 -35 -19 6 -35 16 -35 23 0 21 -42
1 -51 -24 -7 -20 -4 -22 40 -28 l49 -6 -2 -49 c-1 -54 -3 -57 -21 -33 -15 21
-95 30 -124 14 -17 -9 -26 -9 -37 0 -7 7 -11 16 -8 21 3 5 1 9 -4 9 -5 0 -12
9 -15 20 -4 15 -14 20 -41 20 -25 0 -36 4 -36 15 0 8 9 15 20 15 11 0 20 4 20
9 0 15 -22 25 -62 28 -28 2 -38 -1 -38 -12 0 -8 7 -15 15 -15 21 0 19 -17 -2
-23 -15 -4 -15 -6 5 -12 23 -8 30 -25 10 -25 -7 0 -13 -13 -14 -30 -1 -23 3
-30 17 -30 11 0 19 -3 19 -8 0 -4 -26 -9 -58 -10 -43 -2 -62 1 -71 12 -11 13
-10 18 4 32 9 9 14 23 11 30 -3 7 -1 16 5 20 6 4 5 11 -3 21 -11 14 -10 15 9
9 24 -8 36 5 27 29 -5 11 -15 15 -30 12 -27 -5 -28 -3 -14 24 14 25 -11 36
-46 21 -19 -9 -24 -9 -24 3 0 7 9 20 21 28 25 18 22 55 -6 71 -11 6 -22 12
-24 14 -2 1 -8 28 -12 59 -5 33 -15 62 -23 69 -13 9 -16 37 -16 160 1 118 3
145 12 129 7 -11 13 -46 14 -78 0 -31 4 -60 7 -64 8 -8 160 -32 169 -27 10 7
-3 78 -17 89 -17 14 -29 55 -16 55 6 0 11 -6 11 -12 0 -9 4 -8 10 2 17 26 11
79 -10 97 -30 26 -26 73 8 106 38 37 46 34 38 -13 -6 -36 -4 -41 19 -52 30
-13 32 -24 7 -37 -16 -8 -18 -24 -19 -115 -1 -58 3 -108 7 -111 14 -9 60 14
60 30 0 8 4 15 10 15 14 0 32 70 28 110 -3 31 -6 35 -35 38 -32 3 -42 15 -24
26 5 3 7 15 4 25 -3 11 -1 27 5 37 8 14 11 10 17 -23 5 -33 13 -44 40 -59 19
-10 37 -24 40 -32 2 -7 7 -86 10 -175 6 -201 14 -285 26 -293 6 -3 12 -4 14
-3 2 2 -3 116 -10 253 l-12 248 -29 24 c-16 13 -35 23 -41 24 -7 0 -13 10 -13
23 0 29 -19 54 -44 59 -11 1 -20 11 -22 21 -3 19 -31 46 -50 47 -5 0 -27 -15
-47 -34 -34 -31 -37 -38 -37 -88 0 -41 5 -61 20 -78 25 -29 25 -29 0 -23 -29
8 -32 17 -35 102 l-2 76 -32 3 c-21 2 -42 14 -57 30 l-23 27 -1 -26 c0 -14 4
-29 9 -35 6 -5 11 -36 13 -68 4 -78 26 -88 30 -14 l3 53 17 -31 c9 -17 14 -41
11 -52 -3 -15 0 -24 11 -28 25 -10 19 -27 -8 -20 -15 4 -26 1 -28 -6 -2 -6
-18 2 -36 20 -25 25 -32 40 -32 70 0 55 -18 102 -40 102 -11 0 -20 10 -23 30
-4 17 -11 30 -17 30 -7 0 -10 -37 -8 -107 3 -103 4 -108 26 -111 26 -4 30 -22
4 -22 -10 0 -21 -3 -24 -6 -10 -9 -138 -13 -138 -4 0 4 7 10 15 13 11 5 14 22
11 74 -1 38 -8 78 -14 89 -8 16 -8 24 1 33 9 9 8 14 -3 21 -25 16 -28 12 -36
-37 -5 -36 -3 -49 9 -58 26 -19 26 -76 -1 -103 -41 -40 -52 -17 -52 112 0 76
-4 116 -12 125 -11 11 -9 12 8 7 20 -6 22 -2 26 36 6 51 6 50 -16 42 -10 -4
-14 -13 -11 -24 4 -13 -2 -21 -26 -29 -37 -13 -141 -15 -121 -3 14 9 6 42 -12
54 -16 11 -3 18 61 34 197 49 254 70 294 111 20 21 39 51 43 66 6 24 11 28 31
23 35 -9 41 13 11 40 -34 32 -33 42 7 47 17 2 4 5 -31 5 -58 2 -63 0 -72 -23
-5 -14 -15 -25 -22 -25 -7 -1 -3 -9 10 -19 22 -19 30 -41 14 -41 -4 0 -12 -15
-17 -32 -9 -28 -18 -36 -70 -55 -33 -12 -64 -22 -70 -22 -6 -1 -9 40 -7 109 3
96 1 110 -13 110 -14 0 -16 -15 -14 -112z m914 -42 l-47 -76 7 -75 c5 -53 11
-75 21 -75 7 0 18 -9 25 -21 8 -15 14 -18 22 -10 7 7 3 25 -16 62 -34 65 -36
102 -5 97 13 -2 24 -11 26 -23 3 -16 1 -18 -9 -7 -36 34 -39 -1 -4 -48 30 -40
34 -95 8 -104 -16 -7 -43 16 -43 36 0 4 -4 8 -10 8 -17 0 -11 -52 8 -74 10
-12 29 -46 42 -76 13 -30 33 -67 43 -82 10 -16 14 -28 10 -28 -5 0 -20 19 -33
43 -12 23 -38 67 -56 97 -28 48 -33 67 -38 150 -9 128 -8 148 9 184 18 37 75
109 82 103 2 -3 -17 -39 -42 -81z m157 53 c14 -6 28 -19 31 -30 7 -25 -5 -24
-21 1 -7 11 -18 20 -26 20 -8 0 -29 7 -47 15 l-34 16 35 -6 c19 -4 47 -11 62
-16z m-33 -44 c27 -13 42 -40 45 -75 1 -8 12 -20 26 -28 23 -12 22 -13 -20 -7
-74 11 -120 36 -87 48 7 3 5 7 -8 12 -11 4 -29 11 -40 15 -19 9 -19 9 3 16 14
4 21 12 18 20 -7 19 27 18 63 -1z m120 -87 c38 -69 39 -79 6 -48 -14 13 -25
31 -25 40 0 9 -4 20 -9 26 -5 5 -12 20 -16 34 -10 36 7 16 44 -52z m-151 -38
c4 0 7 -38 7 -83 0 -104 23 -157 67 -157 16 0 28 -5 28 -10 0 -7 -16 -9 -41
-6 -39 5 -40 4 -26 -12 9 -9 20 -29 26 -44 8 -20 15 -26 28 -21 14 5 15 3 6
-7 -17 -18 -91 -3 -104 21 -5 11 -7 30 -4 42 5 16 4 18 -3 8 -8 -11 -13 -8
-27 13 -17 26 -15 56 5 56 5 0 10 -7 10 -16 0 -8 4 -13 9 -9 5 3 12 1 16 -5 3
-5 10 -10 16 -10 16 0 10 31 -11 57 -15 20 -20 41 -20 90 0 35 -5 74 -11 85
-10 18 -9 20 6 15 9 -4 20 -7 23 -7z m70 -38 c-25 -5 -26 -113 -2 -137 9 -9
14 -19 11 -22 -3 -3 -13 1 -21 9 -18 19 -30 97 -22 143 6 33 8 34 29 23 19
-11 20 -13 5 -16z m70 -4 c17 -17 15 -26 -5 -24 -12 1 -18 -6 -18 -19 0 -15 6
-19 23 -18 27 3 28 -8 3 -31 -11 -10 -22 -32 -24 -50 -2 -20 -4 -13 -5 21 -2
57 -18 80 -25 36 -2 -17 -5 -10 -6 20 0 30 3 46 9 42 6 -3 10 3 10 14 0 23 19
28 38 9z m61 -183 c1 -40 -4 -56 -23 -78 -14 -16 -27 -34 -29 -40 -2 -7 -7 -9
-10 -6 -4 3 5 26 18 52 22 40 25 60 27 149 1 100 1 101 8 38 4 -36 8 -87 9
-115z m-1679 -85 c0 -5 -4 -10 -10 -10 -5 0 -10 5 -10 10 0 6 5 10 10 10 6 0
10 -4 10 -10z m-470 -20 c0 -5 -5 -10 -11 -10 -5 0 -7 5 -4 10 3 6 8 10 11 10
2 0 4 -4 4 -10z m2077 -54 c-10 -21 -16 -23 -52 -18 -70 9 -86 23 -22 19 43
-3 60 0 64 10 3 7 9 13 13 13 5 0 3 -11 -3 -24z m89 -13 c-10 -10 -19 5 -10
18 6 11 8 11 12 0 2 -7 1 -15 -2 -18z m-2146 7 c0 -5 -9 -10 -20 -10 -11 0
-20 5 -20 10 0 6 9 10 20 10 11 0 20 -4 20 -10z m-100 -10 c0 -5 -2 -10 -4
-10 -3 0 -8 5 -11 10 -3 6 -1 10 4 10 6 0 11 -4 11 -10z m2026 -24 c27 -6 34
-12 34 -30 0 -13 7 -27 16 -30 8 -3 12 -11 8 -17 -4 -8 -9 -7 -15 2 -5 8 -25
14 -46 14 l-38 1 -2 49 c-1 28 1 43 3 34 3 -10 20 -20 40 -23z m154 -33 c0
-26 -3 -34 -9 -24 -6 10 -20 12 -45 8 -33 -5 -36 -4 -36 19 0 13 1 24 3 24 1
0 16 -4 34 -9 24 -7 33 -6 37 5 9 25 16 15 16 -23z m-770 -28 c19 -44 19 -65
0 -65 -14 0 -19 10 -21 43 -2 24 -2 52 0 63 4 18 5 18 8 -1 2 -11 8 -29 13
-40z m215 45 c3 -6 -1 -7 -9 -4 -18 7 -21 14 -7 14 6 0 13 -4 16 -10z m-395
-60 c0 -49 -3 -60 -16 -60 -13 0 -14 3 -5 14 8 10 10 30 6 60 -5 31 -4 46 4
46 7 0 11 -23 11 -60z m234 13 c4 -27 2 -43 -4 -43 -5 0 -10 21 -10 47 0 55 5
54 14 -4z m1190 -27 c27 -23 28 -25 16 -62 -19 -60 -26 -60 -44 4 -25 91 -22
98 28 58z m-474 -7 c7 -11 11 -39 9 -62 -3 -67 0 -97 11 -97 6 0 14 8 17 18 4
9 12 21 20 25 8 5 13 28 13 62 0 48 -2 55 -20 55 -11 0 -20 5 -20 10 0 15 32
12 54 -5 16 -12 20 -28 21 -94 0 -44 3 -83 7 -86 11 -11 28 5 21 20 -3 9 1 15
10 15 10 0 17 16 22 55 3 30 4 59 0 65 -3 5 -4 10 -2 10 3 0 14 -18 25 -39 15
-29 21 -58 20 -108 0 -37 1 -74 1 -80 1 -16 31 -17 31 -2 0 5 5 7 10 4 6 -3
10 -35 10 -70 0 -47 4 -66 15 -73 16 -8 11 -42 -6 -42 -5 0 -9 -6 -9 -13 0
-13 -60 -41 -69 -32 -2 3 1 5 8 5 8 0 9 5 3 18 -5 9 -13 58 -17 107 -4 59 -12
96 -23 108 -21 24 -59 22 -67 -3 -9 -28 -26 -14 -19 15 3 13 3 28 0 34 -9 14
-63 -16 -69 -39 -3 -11 -12 -20 -20 -20 -12 0 -16 18 -19 90 -2 75 -6 92 -23
104 -11 9 -15 16 -8 16 6 0 15 -4 18 -10 11 -18 25 -10 25 15 0 19 -5 25 -22
25 -19 0 -20 2 -8 10 23 15 38 12 50 -11z m-293 -12 c12 -13 24 -39 28 -59 7
-35 8 -36 40 -31 19 3 45 3 59 -1 23 -6 26 -11 26 -52 l0 -46 -66 4 -65 4 4
-47 c3 -27 8 -52 11 -57 3 -5 -3 -17 -14 -27 -12 -10 -20 -13 -20 -7 0 7 -9
12 -20 12 -19 0 -20 7 -20 165 0 91 3 165 8 165 4 0 17 -11 29 -23z m-382 -17
c4 -6 -7 -10 -24 -10 -17 0 -31 5 -31 10 0 6 11 10 24 10 14 0 28 -4 31 -10z
m1026 -9 c27 -22 26 -26 -16 -34 -25 -5 -32 -1 -41 18 -7 13 -9 26 -6 30 11
11 41 4 63 -14z m433 -70 c1 -28 -1 -51 -6 -51 -4 0 -8 5 -8 10 0 6 -18 10
-40 10 -22 0 -40 2 -40 3 0 2 7 18 16 35 11 23 22 32 40 32 13 0 24 5 24 12 0
6 2 9 5 6 3 -3 7 -28 9 -57z m76 31 c0 -10 -11 -28 -25 -40 -18 -16 -25 -18
-25 -8 0 8 5 18 10 21 6 3 10 15 10 26 0 10 7 19 15 19 8 0 15 -8 15 -18z
m-430 -28 c0 -8 -4 -12 -10 -9 -5 3 -10 13 -10 21 0 8 5 12 10 9 6 -3 10 -13
10 -21z m-171 -66 c1 -5 -3 -8 -8 -8 -12 0 -22 30 -14 43 6 10 20 -13 22 -35z
m71 -118 c0 -47 -17 -97 -29 -84 -5 5 -11 41 -13 79 -3 39 -8 79 -13 90 -5 13
3 9 24 -13 24 -26 31 -42 31 -72z m405 70 c3 -5 -1 -10 -10 -10 -9 0 -13 5
-10 10 3 6 8 10 10 10 2 0 7 -4 10 -10z m-955 -30 c0 -5 -2 -10 -4 -10 -3 0
-8 5 -11 10 -3 6 -1 10 4 10 6 0 11 -4 11 -10z m366 -46 c1 -21 4 -46 8 -55 9
-21 2 -161 -9 -179 -5 -8 -8 -23 -7 -32 2 -10 -2 -18 -7 -18 -6 0 -11 -7 -11
-15 0 -9 -7 -18 -15 -21 -23 -9 -18 -24 8 -24 17 0 29 10 43 35 24 44 54 48
54 6 0 -20 6 -31 18 -34 9 -3 -3 -5 -28 -6 -25 -1 -54 -8 -64 -16 -22 -17 -56
-20 -56 -6 0 17 -42 24 -51 10 -7 -11 -9 -10 -9 4 0 10 8 17 20 17 11 0 23 6
26 13 7 18 -22 83 -41 90 -10 4 -15 19 -15 45 0 43 -22 83 -34 63 -4 -7 -6
-17 -3 -24 2 -7 1 -32 -3 -57 -7 -39 -8 -35 -9 37 0 45 3 85 9 88 6 4 5 13 -3
26 -10 17 -9 22 5 30 9 5 15 16 12 23 -8 20 62 31 83 14 13 -10 17 -10 20 0 3
6 11 12 19 12 8 0 14 5 14 11 0 6 6 9 13 7 6 -3 12 -22 13 -44z m-1001 -94 c3
-5 2 -10 -4 -10 -5 0 -13 5 -16 10 -3 6 -2 10 4 10 5 0 13 -4 16 -10z m45 -20
c0 -5 -4 -10 -10 -10 -5 0 -10 5 -10 10 0 6 5 10 10 10 6 0 10 -4 10 -10z
m1163 -24 c9 -7 17 -17 17 -21 0 -5 -8 -1 -17 7 -10 9 -25 18 -33 21 -13 5
-13 5 0 6 8 0 23 -6 33 -13z m-593 -6 c0 -5 -4 -10 -10 -10 -5 0 -10 5 -10 10
0 6 5 10 10 10 6 0 10 -4 10 -10z m-658 -92 c-7 -7 -12 -8 -12 -2 0 14 12 26
19 19 2 -3 -1 -11 -7 -17z m1558 2 c-33 -26 -48 -26 -25 0 10 11 25 20 34 20
12 0 9 -6 -9 -20z m274 -54 c-6 -38 -9 -58 -12 -113 -2 -16 -8 -23 -23 -23
-15 0 -19 5 -14 19 4 12 0 21 -12 25 -17 7 -17 8 0 17 18 11 24 39 7 39 -18 0
-11 17 9 23 11 3 22 17 26 36 10 47 28 27 19 -23z m-1192 -1 c-2 -14 -6 -25
-8 -25 -2 0 -4 11 -4 25 0 14 4 25 9 25 4 0 6 -11 3 -25z m940 -33 c-12 -8
-22 -20 -22 -28 0 -8 -6 -11 -15 -8 -22 9 -18 40 8 66 22 23 22 23 36 4 13
-17 12 -21 -7 -34z m-1442 27 c0 -5 -7 -9 -15 -9 -8 0 -17 -11 -21 -23 -4 -19
-11 -23 -30 -19 -20 4 -23 8 -18 31 4 14 8 29 10 32 5 9 74 -2 74 -12z m788
-1 c2 -9 -2 -19 -7 -23 -6 -3 -11 -1 -11 4 0 6 -9 11 -20 11 -11 0 -20 6 -20
13 0 20 54 15 58 -5z m539 -34 c-3 -3 -12 -4 -19 -1 -8 3 -5 6 6 6 11 1 17 -2
13 -5z m-709 -40 l3 -29 -16 29 c-18 34 -19 39 -2 34 6 -3 13 -18 15 -34z
m-48 16 c0 -5 -7 -10 -16 -10 -8 0 -12 5 -9 10 3 6 10 10 16 10 5 0 9 -4 9
-10z m-131 -36 c18 -12 39 -20 46 -18 9 4 11 -3 7 -21 -4 -22 -1 -26 14 -23
11 2 20 13 22 26 2 15 9 22 17 18 8 -3 17 0 21 5 8 14 20 0 28 -32 5 -25 3
-27 -37 -32 -54 -7 -87 -3 -114 11 -30 16 -58 15 -73 -3 -8 -10 -17 -12 -24
-6 -25 21 -212 10 -229 -13 -10 -13 -22 -15 -59 -10 -48 7 -48 7 -48 45 l0 39
51 0 c44 0 50 -2 39 -14 -6 -8 -21 -16 -33 -18 -35 -5 -27 -33 11 -36 24 -2
32 1 32 12 0 10 9 16 23 17 70 2 90 12 116 57 8 15 103 31 136 23 11 -2 35
-14 54 -27z m1085 1 c20 -19 40 -35 46 -35 5 0 10 -4 10 -10 0 -18 -17 -11
-51 21 -18 16 -45 33 -61 36 -21 4 -26 8 -16 14 23 15 36 10 72 -26z m61 15
c3 -5 -1 -10 -9 -10 -8 0 -18 5 -21 10 -3 6 1 10 9 10 8 0 18 -4 21 -10z
m-2165 -21 c0 -19 4 -21 33 -16 17 3 41 9 52 13 19 8 19 7 4 -16 -13 -20 -25
-25 -58 -24 -49 1 -66 14 -56 43 8 27 25 27 25 0z m1575 2 c-8 -8 -65 -8 -65
0 0 12 11 15 40 11 17 -2 28 -7 25 -11z m340 9 c3 -5 1 -10 -4 -10 -6 0 -11 5
-11 10 0 6 2 10 4 10 3 0 8 -4 11 -10z m123 -30 c23 -6 42 -14 42 -18 0 -4 14
-16 32 -27 47 -27 148 -20 148 11 0 8 5 14 10 14 12 0 13 -40 1 -59 -16 -25
-121 -9 -169 27 -23 16 -59 32 -80 36 -22 3 -46 13 -53 22 -12 15 -11 16 6 11
11 -3 39 -11 63 -17z m-568 0 c0 -5 -4 -10 -10 -10 -5 0 -10 5 -10 10 0 6 5
10 10 10 6 0 10 -4 10 -10z m140 -31 c-7 -11 -14 -18 -17 -15 -3 3 0 12 7 21
18 21 23 19 10 -6z m88 -66 c1 -48 -3 -102 -9 -120 -8 -26 -7 -39 5 -65 9 -17
14 -33 12 -36 -3 -2 -71 -6 -153 -9 -107 -3 -144 -2 -133 6 13 10 13 12 0 21
-8 5 -25 10 -37 10 -12 0 -28 3 -37 6 -38 15 -9 22 94 23 61 1 117 4 125 7 18
7 23 32 13 69 -5 17 -4 33 2 39 6 6 10 22 10 37 0 28 12 41 69 76 20 11 36 22
36 22 0 1 1 -38 3 -86z m-1332 43 c3 -12 1 -41 -4 -64 -8 -35 -7 -42 5 -42 8
0 17 -9 20 -20 7 -27 31 -25 35 3 2 14 11 23 26 25 18 3 23 8 19 23 -6 22 -3
22 127 19 52 -1 98 -7 110 -15 16 -9 38 -11 86 -5 36 5 107 7 159 5 51 -1 112
2 134 7 22 5 42 6 45 3 13 -13 -16 -21 -101 -27 -51 -5 -135 -12 -187 -17 -52
-6 -149 -15 -215 -20 -141 -13 -220 -32 -219 -52 0 -8 4 -51 8 -95 l6 -82 -44
-11 c-85 -21 -81 -26 -81 112 0 67 4 127 8 134 4 7 0 17 -10 23 -15 10 -16 11
-1 6 19 -5 42 17 36 35 -2 6 -19 17 -38 23 -26 8 -36 17 -38 36 -3 24 -1 25
53 22 47 -3 56 -7 61 -26z m1599 14 c3 -5 19 -10 35 -10 16 0 40 -5 54 -11 26
-12 43 -39 25 -39 -6 0 -9 -9 -6 -20 3 -11 1 -20 -4 -20 -6 0 0 -10 11 -22
l21 -23 -92 -3 c-50 -1 -93 -1 -96 1 -8 9 9 35 33 47 29 16 32 40 5 40 -25 0
-38 20 -21 30 7 4 10 15 7 24 -7 18 18 23 28 6z m-398 -6 c-3 -3 -12 -4 -19
-1 -8 3 -5 6 6 6 11 1 17 -2 13 -5z m-562 -34 c3 -5 2 -10 -4 -10 -5 0 -13 5
-16 10 -3 6 -2 10 4 10 5 0 13 -4 16 -10z m450 -4 c16 -12 17 -16 6 -30 -15
-18 -51 -22 -51 -6 0 6 8 10 18 10 16 1 16 1 -1 11 -9 6 -15 14 -12 20 8 12
18 11 40 -5z m-2405 -20 c0 -2 -8 -10 -17 -17 -16 -13 -17 -12 -4 4 13 16 21
21 21 13z m2190 -15 c0 -8 -6 -11 -16 -7 -9 3 -32 6 -52 7 -33 1 -34 2 -12 9
38 11 80 7 80 -9z m-1025 0 c6 -10 -34 -37 -49 -33 -4 2 -14 -3 -22 -9 -15
-12 -19 -1 -6 16 7 10 50 33 64 34 4 1 9 -3 13 -8z m40 -1 c3 -5 2 -10 -4 -10
-5 0 -13 5 -16 10 -3 6 -2 10 4 10 5 0 13 -4 16 -10z m-355 -40 c0 -5 -2 -10
-4 -10 -3 0 -8 5 -11 10 -3 6 -1 10 4 10 6 0 11 -4 11 -10z m1628 3 c-10 -2
-26 -2 -35 0 -10 3 -2 5 17 5 19 0 27 -2 18 -5z m-1264 -55 c3 -29 7 -91 8
-136 l3 -84 -67 4 c-40 2 -73 9 -80 17 -10 11 -10 12 0 7 7 -4 13 -2 14 6 0 7
2 18 3 23 2 6 3 51 4 101 l1 91 31 1 c18 0 37 6 42 11 23 23 36 10 41 -41z
m976 22 l0 -30 -77 0 c-43 0 -116 -7 -163 -16 -47 -9 -128 -20 -180 -25 -52
-4 -126 -15 -165 -23 -38 -8 -98 -15 -132 -16 -52 0 -64 3 -73 19 -23 44 -8
50 165 62 227 15 332 26 346 35 15 9 121 20 217 23 l62 1 0 -30z m1017 -3 c23
-1 2 -17 -23 -17 -15 0 -24 6 -24 16 0 11 5 14 18 9 9 -4 22 -8 29 -8z m-67
-22 c5 -14 21 -30 35 -35 38 -15 30 -20 -31 -20 -55 0 -55 0 -40 22 9 12 16
30 16 40 0 25 9 22 20 -7z m-2821 -45 c9 -28 8 -32 -12 -39 -24 -9 -46 10 -47
40 -1 41 44 40 59 -1z m1852 -49 c-2 -29 2 -47 11 -52 28 -19 -18 -29 -132
-29 -63 -1 -189 -5 -280 -9 -186 -8 -380 -3 -359 10 8 5 14 16 14 26 0 15 13
19 82 25 45 4 110 14 143 22 34 9 86 16 116 16 29 0 73 4 96 10 76 17 171 28
243 26 l70 -1 -4 -44z m-2101 35 c0 -3 -4 -8 -10 -11 -5 -3 -10 -1 -10 4 0 6
5 11 10 11 6 0 10 -2 10 -4z m2953 -13 c-18 -2 -48 -2 -65 0 -18 2 -4 4 32 4
36 0 50 -2 33 -4z m-2808 -13 c3 -5 -1 -10 -10 -10 -9 0 -13 5 -10 10 3 6 8
10 10 10 2 0 7 -4 10 -10z m765 -30 c0 -5 -2 -10 -4 -10 -3 0 -8 5 -11 10 -3
6 -1 10 4 10 6 0 11 -4 11 -10z m-297 -30 c-8 -36 -29 -74 -48 -90 -26 -22
-202 -38 -246 -23 -20 7 -99 19 -175 27 -196 22 -325 43 -336 54 -9 9 169 31
263 33 24 0 73 6 109 13 39 7 140 12 252 12 l187 -1 -6 -25z m317 -11 c0 -6
-4 -7 -10 -4 -5 3 -10 11 -10 16 0 6 5 7 10 4 6 -3 10 -11 10 -16z m-1037 -76
c-7 -2 -19 -2 -25 0 -7 3 -2 5 12 5 14 0 19 -2 13 -5z m60 -10 c-7 -2 -21 -2
-30 0 -10 3 -4 5 12 5 17 0 24 -2 18 -5z m244 -39 c-3 -3 -12 -4 -19 -1 -8 3
-5 6 6 6 11 1 17 -2 13 -5z m70 -10 c-3 -3 -12 -4 -19 -1 -8 3 -5 6 6 6 11 1
17 -2 13 -5z m335 -76 c-7 -7 -12 -8 -12 -2 0 14 12 26 19 19 2 -3 -1 -11 -7
-17z m15 -59 c6 -6 31 -10 56 -8 25 2 45 0 44 -5 -1 -6 6 -11 15 -13 11 -3 18
4 21 19 3 16 5 13 6 -11 0 -19 8 -42 16 -51 14 -16 12 -17 -33 -9 -95 15 -132
28 -132 49 0 11 -4 20 -10 20 -5 0 -10 5 -10 10 0 13 13 13 27 -1z"/>
<path d="M2070 1095 c-8 -2 -32 -6 -52 -10 -30 -5 -38 -10 -38 -27 0 -18 4
-20 31 -14 17 3 49 6 71 6 41 0 63 24 37 41 -14 9 -22 9 -49 4z"/>
<path d="M1630 926 c0 -11 10 -16 31 -16 38 0 35 24 -4 28 -19 2 -27 -1 -27
-12z"/>
<path d="M2448 2547 c46 -7 66 -7 75 2 8 8 -7 11 -63 10 l-75 -2 63 -10z"/>
<path d="M3121 2384 c0 -11 3 -14 6 -6 3 7 2 16 -1 19 -3 4 -6 -2 -5 -13z"/>
<path d="M3200 2384 c0 -8 5 -25 11 -36 6 -11 11 -42 11 -69 -1 -61 13 -64 22
-5 5 30 2 56 -10 85 -16 41 -34 54 -34 25z"/>
<path d="M3155 2330 c-3 -5 -3 -21 1 -36 7 -26 8 -26 20 -9 18 25 18 55 0 55
-8 0 -17 -4 -21 -10z"/>
<path d="M3030 2314 c0 -8 5 -12 10 -9 6 3 10 10 10 16 0 5 -4 9 -10 9 -5 0
-10 -7 -10 -16z"/>
<path d="M3075 2280 c-3 -6 1 -13 10 -16 19 -8 30 0 20 15 -8 14 -22 14 -30 1z"/>
<path d="M2760 2238 c0 -38 13 -63 27 -55 13 8 1 79 -15 85 -8 2 -12 -7 -12
-30z"/>
<path d="M3290 2238 c-6 -18 -21 -54 -31 -80 -21 -53 -23 -68 -9 -68 11 0 41
62 60 123 16 51 -2 72 -20 25z"/>
<path d="M3037 2244 c-13 -13 -7 -24 14 -24 11 0 19 5 17 12 -5 14 -22 21 -31
12z"/>
<path d="M2698 2193 c0 -26 0 -56 0 -66 2 -15 -1 -16 -18 -7 -11 6 -20 17 -20
25 0 19 -21 30 -30 16 -14 -24 2 -64 31 -75 16 -6 29 -16 29 -24 0 -7 8 -12
18 -10 15 3 17 15 17 92 0 63 -4 91 -12 94 -9 2 -13 -11 -15 -45z"/>
<path d="M3120 2230 c0 -5 7 -10 15 -10 8 0 15 5 15 10 0 6 -7 10 -15 10 -8 0
-15 -4 -15 -10z"/>
<path d="M3343 2210 c-12 -28 -8 -39 8 -23 6 6 9 19 6 29 -3 17 -5 16 -14 -6z"/>
<path d="M3200 2189 c0 -24 23 -21 28 4 2 10 -3 17 -12 17 -10 0 -16 -9 -16
-21z"/>
<path d="M810 2191 c0 -9 41 -23 48 -16 2 2 1 8 -3 14 -8 13 -45 15 -45 2z"/>
<path d="M1218 2193 c6 -2 18 -2 25 0 6 3 1 5 -13 5 -14 0 -19 -2 -12 -5z"/>
<path d="M1384 2176 c-6 -26 1 -46 17 -46 5 0 9 10 10 23 0 12 3 16 6 10 8
-22 23 -14 23 12 0 36 -47 36 -56 1z"/>
<path d="M973 2167 c-13 -29 -2 -50 22 -45 10 1 17 6 14 10 -2 4 5 13 15 21
23 17 13 37 -18 37 -14 0 -27 -9 -33 -23z"/>
<path d="M2760 2090 c0 -73 14 -120 37 -120 16 0 16 14 2 60 -6 19 -11 56 -10
83 2 36 -1 47 -13 47 -13 0 -16 -13 -16 -70z"/>
<path d="M3432 2060 c0 -14 2 -19 5 -12 2 6 2 18 0 25 -3 6 -5 1 -5 -13z"/>
<path d="M1499 2053 c-1 -4 -3 -21 -4 -38 -2 -16 -6 -49 -9 -72 -5 -38 -3 -43
14 -43 18 0 20 7 20 74 0 41 -4 78 -10 81 -5 3 -11 3 -11 -2z"/>
<path d="M3146 2038 c-2 -7 -9 -29 -16 -48 -7 -19 -16 -53 -20 -75 l-7 -40
-13 30 c-7 17 -12 35 -11 42 2 15 -16 26 -23 15 -3 -5 -7 -70 -8 -143 -2 -105
1 -134 11 -134 15 0 50 90 81 209 11 45 25 91 30 103 10 24 4 53 -11 53 -5 0
-11 -6 -13 -12z"/>
<path d="M3045 2031 c-7 -12 12 -24 25 -16 11 7 4 25 -10 25 -5 0 -11 -4 -15
-9z"/>
<path d="M832 1710 c1 -151 3 -170 17 -167 9 2 15 7 14 13 -1 5 -2 14 -3 19
-7 31 1 115 10 110 16 -10 12 38 -6 63 -8 12 -15 32 -14 45 4 46 0 87 -9 87
-6 0 -9 -71 -9 -170z"/>
<path d="M588 1826 c-7 -62 -2 -76 28 -76 26 0 32 14 11 27 -8 4 -18 28 -23
53 l-10 45 -6 -49z"/>
<path d="M1100 1845 c-9 -11 -11 -41 -7 -110 5 -92 -2 -123 -21 -89 -8 14 -12
14 -30 3 -39 -24 -53 -86 -16 -72 10 4 14 13 10 29 -7 28 9 41 23 17 7 -14 14
-16 36 -8 l28 10 -1 114 c-1 62 -3 115 -5 117 -2 3 -10 -2 -17 -11z"/>
<path d="M3312 1848 c-19 -19 -14 -30 10 -26 13 2 24 11 26 21 4 20 -18 23
-36 5z"/>
<path d="M3431 1814 c0 -11 3 -14 6 -6 3 7 2 16 -1 19 -3 4 -6 -2 -5 -13z"/>
<path d="M500 1750 c0 -22 1 -23 24 -14 23 9 20 34 -4 34 -13 0 -20 -7 -20
-20z"/>
<path d="M120 1750 c0 -5 5 -10 11 -10 5 0 7 5 4 10 -3 6 -8 10 -11 10 -2 0
-4 -4 -4 -10z"/>
<path d="M22 1733 c2 -10 14 -20 27 -21 19 -3 22 0 17 13 -3 9 -6 19 -6 21 0
2 -9 4 -21 4 -14 0 -19 -5 -17 -17z"/>
<path d="M423 1740 c-27 -11 -30 -25 -6 -34 10 -4 20 -1 26 9 8 15 10 15 22
-2 16 -22 33 -9 19 15 -13 21 -31 24 -61 12z"/>
<path d="M560 1706 c0 -8 5 -18 10 -21 6 -3 10 3 10 14 0 12 -4 21 -10 21 -5
0 -10 -6 -10 -14z"/>
<path d="M1946 1696 c-3 -14 -18 -29 -36 -36 -16 -7 -30 -18 -31 -24 -1 -20 3
-170 5 -195 2 -14 8 -27 15 -29 8 -3 10 4 5 24 -6 23 -4 26 9 21 10 -4 20 0
25 10 14 24 22 1 15 -40 -5 -32 -9 -37 -32 -37 -15 0 -32 5 -38 11 -12 12 -33
4 -33 -12 0 -5 11 -14 25 -19 14 -5 25 -16 25 -25 0 -14 10 -18 28 -12 4 1 6
5 5 10 -4 10 5 9 28 -3 16 -9 19 -7 19 10 0 11 -4 20 -10 20 -5 0 -10 5 -10
10 0 16 14 11 27 -9 16 -25 5 -61 -18 -61 -11 0 -19 -7 -19 -15 0 -8 6 -15 13
-15 7 0 24 -11 39 -25 22 -20 31 -23 50 -16 13 6 18 10 11 10 -18 1 -67 50
-58 59 4 4 10 1 12 -5 6 -16 33 -17 33 -2 0 6 -8 23 -18 37 -43 63 -54 102
-52 186 2 44 1 86 0 91 -3 11 -6 35 -8 78 -2 33 -18 36 -26 3z m-1 -56 c3 -5
-1 -10 -9 -10 -9 0 -16 5 -16 10 0 6 4 10 9 10 6 0 13 -4 16 -10z"/>
<path d="M666 1671 c-4 -7 -5 -15 -2 -18 9 -9 19 4 14 18 -4 11 -6 11 -12 0z"/>
<path d="M400 1636 c0 -9 7 -16 16 -16 9 0 14 5 12 12 -6 18 -28 21 -28 4z"/>
<path d="M552 1604 c1 -9 9 -19 16 -22 9 -3 13 2 10 14 -1 9 -9 19 -16 22 -9
3 -13 -2 -10 -14z"/>
<path d="M3347 1603 c-4 -6 -2 -57 3 -83 3 -17 30 39 30 62 0 26 -22 40 -33
21z"/>
<path d="M640 1585 c0 -8 7 -15 15 -15 8 0 15 7 15 15 0 8 -7 15 -15 15 -8 0
-15 -7 -15 -15z"/>
<path d="M320 1580 c0 -5 5 -10 10 -10 6 0 10 5 10 10 0 6 -4 10 -10 10 -5 0
-10 -4 -10 -10z"/>
<path d="M1723 1523 c7 -79 14 -103 32 -103 22 0 27 19 11 36 -22 21 -20 33 4
27 15 -4 20 0 21 13 0 18 1 18 9 -1 5 -11 9 -34 9 -52 1 -25 -3 -32 -21 -35
-35 -5 -34 -28 1 -28 24 0 34 7 46 30 12 24 13 31 3 35 -9 4 -12 22 -10 60 5
70 -7 85 -66 85 l-45 0 6 -67z"/>
<path d="M498 1560 c-15 -17 -15 -18 3 -23 21 -6 44 17 34 33 -9 14 -17 12
-37 -10z"/>
<path d="M225 1560 c-5 -9 -4 -15 3 -18 7 -2 12 -10 12 -18 0 -8 5 -14 10 -14
14 0 12 23 -3 45 -11 14 -16 15 -22 5z"/>
<path d="M1312 1548 c5 -32 28 -35 28 -4 0 17 -5 26 -16 26 -10 0 -14 -7 -12
-22z"/>
<path d="M1130 1553 c0 -15 35 -43 53 -43 10 0 17 8 17 20 0 11 -6 20 -12 20
-7 0 -23 3 -35 6 -13 4 -23 2 -23 -3z"/>
<path d="M1240 1555 c0 -5 10 -31 23 -57 23 -50 53 -70 68 -47 11 17 6 34 -10
34 -6 0 -27 18 -46 40 -19 22 -34 36 -35 30z"/>
<path d="M937 1521 c3 -11 12 -26 20 -33 12 -10 14 -7 11 17 -2 18 -10 31 -20
33 -12 2 -15 -2 -11 -17z"/>
<path d="M1390 1515 c0 -22 19 -47 21 -28 0 4 2 16 4 25 2 9 -3 19 -11 22 -10
4 -14 -2 -14 -19z"/>
<path d="M400 1510 c0 -5 7 -10 16 -10 8 0 12 5 9 10 -3 6 -10 10 -16 10 -5 0
-9 -4 -9 -10z"/>
<path d="M617 1514 c-8 -8 1 -24 14 -24 5 0 9 7 9 15 0 15 -12 20 -23 9z"/>
<path d="M1442 1488 c-14 -14 -16 -38 -3 -38 5 0 14 7 21 15 17 20 0 41 -18
23z"/>
<path d="M650 1475 c0 -8 7 -15 15 -15 8 0 15 7 15 15 0 8 -7 15 -15 15 -8 0
-15 -7 -15 -15z"/>
<path d="M1194 1479 c-8 -14 11 -33 25 -25 6 4 11 14 11 22 0 16 -26 19 -36 3z"/>
<path d="M420 1456 c0 -8 5 -18 10 -21 6 -3 10 3 10 14 0 12 -4 21 -10 21 -5
0 -10 -6 -10 -14z"/>
<path d="M495 1460 c3 -5 8 -10 11 -10 2 0 4 5 4 10 0 6 -5 10 -11 10 -5 0 -7
-4 -4 -10z"/>
<path d="M488 1415 c-17 -38 -2 -41 32 -6 l32 31 -26 0 c-18 0 -30 -8 -38 -25z"/>
<path d="M744 1428 c3 -7 9 -21 12 -30 6 -18 16 -23 27 -12 10 10 -15 54 -30
54 -8 0 -12 -6 -9 -12z"/>
<path d="M1120 1428 c0 -20 40 -42 53 -29 13 13 2 26 -30 36 -16 4 -23 2 -23
-7z"/>
<path d="M407 1419 c7 -7 15 -10 18 -7 3 3 -2 9 -12 12 -14 6 -15 5 -6 -5z"/>
<path d="M658 1403 c0 -10 0 -26 0 -36 1 -10 -5 -20 -13 -23 -21 -9 -19 -24 4
-24 19 0 31 25 31 67 0 27 -19 41 -22 16z"/>
<path d="M800 1404 c0 -9 7 -14 17 -12 25 5 28 28 4 28 -12 0 -21 -6 -21 -16z"/>
<path d="M1046 1389 c-10 -17 -16 -33 -13 -36 7 -6 47 34 47 46 0 23 -18 17
-34 -10z"/>
<path d="M1207 1391 c-14 -29 -13 -41 5 -41 4 0 8 7 8 15 0 8 5 15 10 15 13 0
13 27 1 35 -5 3 -16 -8 -24 -24z"/>
<path d="M1282 1382 c4 -16 0 -22 -19 -27 -16 -4 -23 -11 -19 -20 2 -7 0 -15
-6 -17 -7 -3 -9 -12 -5 -22 9 -24 41 -16 45 12 2 12 12 28 24 36 24 17 20 49
-6 54 -15 3 -18 0 -14 -16z"/>
<path d="M2077 1364 c-14 -15 -6 -34 14 -34 14 0 19 5 17 17 -3 18 -20 27 -31
17z"/>
<path d="M410 1339 c0 -5 5 -7 10 -4 6 3 10 8 10 11 0 2 -4 4 -10 4 -5 0 -10
-5 -10 -11z"/>
<path d="M381 1315 c1 -36 13 -55 29 -45 12 8 12 10 -3 16 -9 3 -15 9 -13 13
3 4 1 13 -5 21 -7 12 -9 11 -8 -5z"/>
<path d="M3015 1320 c-9 -15 4 -30 25 -30 24 0 36 20 19 31 -19 12 -36 11 -44
-1z"/>
<path d="M2090 1310 c-11 -7 -12 -12 -3 -21 14 -14 46 -4 41 13 -6 16 -20 19
-38 8z"/>
<path d="M60 1295 c0 -8 5 -15 10 -15 6 0 10 7 10 15 0 8 -4 15 -10 15 -5 0
-10 -7 -10 -15z"/>
<path d="M570 1300 c0 -5 5 -10 10 -10 6 0 10 5 10 10 0 6 -4 10 -10 10 -5 0
-10 -4 -10 -10z"/>
<path d="M751 1286 c-8 -13 -10 -29 -7 -35 9 -14 36 -14 36 -1 0 6 -4 10 -10
10 -5 0 -10 5 -10 11 0 7 11 8 30 4 34 -8 41 8 11 25 -29 15 -36 13 -50 -14z"/>
<path d="M840 1300 c0 -5 5 -10 10 -10 6 0 10 5 10 10 0 6 -4 10 -10 10 -5 0
-10 -4 -10 -10z"/>
<path d="M152 1288 c-7 -7 -12 -23 -12 -35 l0 -24 26 25 c15 13 23 29 20 35
-9 14 -19 14 -34 -1z"/>
<path d="M614 1281 c-5 -5 -18 -11 -29 -14 -11 -3 -4 -5 18 -6 20 0 37 3 37 8
0 15 -16 21 -26 12z"/>
<path d="M850 1260 c0 -5 5 -10 10 -10 6 0 10 5 10 10 0 6 -4 10 -10 10 -5 0
-10 -4 -10 -10z"/>
<path d="M930 1262 c0 -5 10 -17 22 -28 20 -18 21 -18 15 -1 -4 10 -7 23 -7
28 0 5 -7 9 -15 9 -8 0 -15 -4 -15 -8z"/>
<path d="M284 1239 c-9 -15 7 -28 45 -35 25 -5 33 -4 30 5 -7 19 -67 42 -75
30z"/>
<path d="M485 1240 c-10 -16 3 -28 34 -35 16 -3 35 -13 42 -21 6 -8 24 -14 40
-14 16 0 29 -4 29 -10 0 -5 7 -10 15 -10 8 0 15 6 15 14 0 19 -27 39 -43 33
-8 -3 -36 8 -63 24 -54 32 -60 33 -69 19z"/>
<path d="M843 1233 c-39 -14 10 -42 75 -43 15 0 16 26 2 35 -14 9 -62 14 -77
8z"/>
<path d="M1985 1220 c-12 -20 17 -40 56 -40 43 0 52 16 17 29 -52 19 -67 21
-73 11z"/>
<path d="M410 1213 c1 -28 43 -48 60 -28 8 10 4 15 -21 24 -38 13 -39 13 -39
4z"/>
<path d="M720 1210 c0 -5 5 -10 10 -10 6 0 10 -9 10 -20 0 -21 -15 -27 -25
-10 -10 17 -35 11 -35 -8 0 -11 12 -24 26 -31 36 -16 54 1 54 50 0 32 -3 39
-20 39 -11 0 -20 -4 -20 -10z"/>
<path d="M400 1105 c0 -8 5 -15 10 -15 6 0 10 7 10 15 0 8 -4 15 -10 15 -5 0
-10 -7 -10 -15z"/>
<path d="M550 1080 c0 -11 5 -20 10 -20 6 0 10 9 10 20 0 11 -4 20 -10 20 -5
0 -10 -9 -10 -20z"/>
<path d="M4 1014 c1 -18 7 -24 24 -24 32 0 26 30 -9 42 -13 5 -16 1 -15 -18z"/>
<path d="M375 980 c31 -32 25 -35 -37 -21 -32 8 -38 6 -43 -10 -11 -33 4 -40
76 -36 70 4 79 1 57 -21 -9 -9 -7 -12 9 -12 28 0 43 20 33 45 -12 29 -79 85
-103 85 -19 0 -19 -2 8 -30z"/>
<path d="M256 885 c-9 -24 -8 -25 15 -25 14 0 19 5 17 17 -4 23 -24 27 -32 8z"/>
<path d="M1138 803 c-22 -6 -23 -22 -3 -29 22 -9 108 9 113 24 2 8 -10 12 -45
11 -26 -1 -56 -3 -65 -6z"/>
<path d="M120 790 c0 -5 9 -10 20 -10 11 0 20 5 20 10 0 6 -9 10 -20 10 -11 0
-20 -4 -20 -10z"/>
<path d="M397 373 c-4 -3 -7 -26 -7 -51 0 -58 26 -94 93 -127 28 -14 59 -30
67 -35 21 -13 248 -120 254 -120 4 0 6 8 6 19 0 12 -15 25 -47 40 -82 36 -137
69 -154 90 -10 12 -23 21 -31 21 -7 0 -25 10 -40 23 -54 46 -64 52 -90 64 -23
10 -28 19 -28 48 0 33 -8 43 -23 28z"/>
<path d="M1815 236 c-5 -2 -48 -16 -95 -31 -47 -15 -92 -33 -101 -41 -8 -8
-20 -14 -26 -14 -5 0 -19 -11 -32 -23 -19 -21 -20 -26 -7 -36 18 -15 200 -6
256 12 19 6 38 10 42 9 9 -2 97 -17 223 -37 61 -10 162 -28 225 -40 63 -12
121 -20 128 -18 27 11 8 22 -65 38 -43 9 -91 20 -108 25 -16 5 -48 11 -70 15
-65 10 -157 26 -206 36 -34 8 -46 15 -45 27 0 9 -5 16 -11 14 -7 -1 -13 2 -13
8 0 5 7 10 15 10 19 0 19 14 1 29 -13 11 -93 23 -111 17z m49 -67 c-9 -10 -19
-18 -23 -17 -3 1 -17 -3 -31 -9 -14 -6 -63 -13 -110 -15 -47 -3 -78 -3 -70 -1
8 3 38 16 65 29 54 25 139 43 168 36 17 -4 17 -6 1 -23z"/>
<path d="M0 183 l0 -43 58 0 c44 0 63 5 76 18 15 18 15 20 -3 36 -11 10 -44
21 -75 25 l-56 8 0 -44z"/>
<path d="M1668 3 c39 -2 105 -2 145 0 39 1 7 3 -73 3 -80 0 -112 -2 -72 -3z"/>
</g>
</svg>
