<?xml version="1.0" standalone="no"?>
<!DOCTYPE svg PUBLIC "-//W3C//DTD SVG 20010904//EN"
 "http://www.w3.org/TR/2001/REC-SVG-20010904/DTD/svg10.dtd">
<svg version="1.0" xmlns="http://www.w3.org/2000/svg"
 width="384.000000pt" height="256.000000pt" viewBox="0 0 384.000000 256.000000"
 preserveAspectRatio="xMidYMid meet">
<metadata>
Created by potrace 1.16, written by Peter Selinger 2001-2019
</metadata>
<g transform="translate(0.000000,256.000000) scale(0.100000,-0.100000)"
fill="#000000" stroke="none">
<path d="M2 2203 c3 -62 5 -68 26 -71 12 -2 22 -9 22 -15 0 -7 16 -24 34 -39
35 -28 66 -36 66 -18 0 6 10 10 21 10 21 0 109 25 140 40 17 9 161 -7 198 -21
l23 -10 -33 -33 c-24 -24 -38 -31 -46 -24 -7 6 -29 7 -48 4 -19 -3 -51 -9 -70
-12 -22 -4 -35 -12 -35 -22 0 -12 11 -14 66 -9 43 4 73 2 87 -6 12 -7 23 -12
24 -13 1 0 -1 -13 -5 -29 -6 -19 -17 -31 -32 -35 -29 -7 -37 -28 -14 -37 10
-4 35 3 61 17 42 22 43 24 37 59 -3 20 -13 42 -22 48 -17 14 -18 13 23 33 38
19 43 26 37 55 -6 36 -35 56 -81 57 -23 0 -44 5 -47 10 -4 6 19 8 56 6 34 -1
64 -6 67 -11 3 -4 16 -1 29 7 26 18 62 20 84 6 12 -8 11 -13 -8 -39 -12 -17
-22 -35 -22 -41 0 -11 33 -14 44 -3 9 9 196 11 201 2 3 -3 -26 -9 -63 -12 -37
-3 -89 -15 -117 -27 -27 -12 -64 -24 -83 -28 -18 -4 -33 -11 -33 -17 0 -5 -7
-18 -16 -27 -14 -16 -13 -18 11 -28 34 -13 46 -13 46 0 0 17 -5 25 -12 22 -5
-1 -8 3 -8 9 0 6 6 9 14 6 8 -3 31 3 52 14 21 10 44 19 52 19 7 0 22 5 34 11
33 17 139 17 171 0 20 -11 32 -13 45 -5 14 9 37 10 126 5 5 -1 6 -22 3 -47 -4
-36 -2 -44 9 -40 8 3 14 2 14 -3 0 -14 -112 -59 -165 -66 -67 -9 -155 -34
-155 -44 0 -8 -57 -35 -100 -47 -14 -3 -40 -15 -57 -26 -27 -16 -33 -26 -33
-54 0 -19 -4 -34 -10 -34 -5 0 -10 7 -10 16 0 12 -6 15 -26 10 -22 -6 -25 -4
-20 9 3 9 6 19 6 21 0 2 9 4 20 4 11 0 21 5 21 10 2 13 4 22 12 40 3 8 5 26 5
40 -1 14 1 42 5 63 6 30 5 37 -8 37 -9 0 -15 -9 -15 -22 -1 -24 -52 -88 -71
-88 -5 0 -25 -11 -42 -24 -24 -18 -48 -25 -97 -28 -53 -3 -73 -9 -103 -32 -21
-16 -40 -26 -43 -23 -7 6 32 47 45 47 4 0 20 11 35 25 35 33 60 45 88 45 33 0
66 25 52 40 -10 10 -58 4 -120 -15 -17 -6 -18 -6 -1 5 9 6 17 18 17 27 0 13
-8 15 -41 10 -23 -3 -45 -11 -50 -18 -6 -10 -40 -13 -138 -11 l-131 3 0 -73
c0 -43 4 -68 9 -62 5 5 11 18 13 29 3 17 12 20 71 23 67 3 67 3 67 -24 0 -24
3 -26 30 -22 17 3 33 1 36 -4 5 -8 -3 -12 -46 -22 -26 -6 -80 -50 -80 -66 0
-6 26 -10 58 -10 70 0 80 -21 20 -41 -21 -7 -38 -17 -38 -24 0 -19 23 -35 52
-35 18 0 28 -5 28 -14 0 -8 2 -20 5 -28 4 -12 -76 -43 -168 -64 -33 -8 -57
-39 -56 -74 0 -14 3 -19 6 -12 2 6 11 12 19 12 9 0 13 -4 10 -9 -3 -4 6 -18
19 -31 19 -18 25 -20 29 -9 2 8 7 22 10 32 4 14 1 16 -18 11 -18 -4 -25 -1
-29 15 -3 12 -2 23 1 25 16 8 190 57 198 54 16 -4 93 35 99 50 8 22 -2 27 -28
14 -27 -13 -67 -25 -67 -19 0 9 90 67 105 67 13 0 16 6 11 25 -5 20 -3 25 12
25 15 0 18 -6 14 -25 -3 -20 0 -25 15 -25 16 0 19 5 16 24 -4 21 2 28 48 49
64 29 109 41 109 28 0 -5 -12 -12 -27 -15 -41 -10 -113 -49 -113 -62 0 -17 11
-23 29 -15 9 4 36 18 61 29 25 12 50 22 56 22 5 0 23 14 39 30 16 17 39 30 51
30 12 0 27 7 34 15 7 8 28 15 46 15 19 0 34 4 34 9 0 18 88 60 150 71 91 17
140 30 177 48 37 18 53 10 35 -18 -7 -11 -12 -26 -12 -34 0 -8 -5 -18 -12 -22
-8 -5 -9 -2 -5 10 6 16 0 17 -72 13 -43 -2 -83 -7 -89 -11 -19 -11 -1 -36 25
-36 13 0 21 -4 18 -10 -3 -5 -17 -10 -30 -10 -13 0 -28 -6 -32 -14 -12 -19
-63 -27 -63 -9 0 10 -6 12 -22 7 -28 -8 -39 -23 -36 -48 4 -27 28 -33 28 -7 0
29 16 34 50 15 27 -16 31 -17 47 -2 17 15 21 14 52 -12 19 -16 38 -27 43 -24
5 3 7 9 4 12 -7 6 13 32 24 32 16 0 -3 -41 -24 -52 -41 -21 -43 -55 -3 -42 21
7 116 103 148 151 16 24 16 23 15 -20 -1 -51 20 -97 44 -97 9 0 25 -7 36 -15
10 -8 38 -15 61 -15 l42 0 -9 -32 c-11 -38 1 -58 36 -58 13 0 24 -5 24 -11 0
-24 68 -74 71 -51 8 78 0 112 -26 112 -18 0 -20 -37 -2 -43 6 -2 10 -7 7 -10
-3 -3 -14 1 -24 9 -18 13 -19 16 -3 65 10 28 17 62 17 75 0 28 26 33 34 7 2
-10 7 -56 11 -103 4 -47 8 -92 11 -100 5 -18 -46 -43 -69 -34 -9 3 -19 14 -22
24 -3 10 -19 20 -36 24 -25 5 -38 0 -62 -20 -62 -52 -72 -110 -35 -196 19 -46
20 -56 10 -106 -6 -30 -9 -59 -6 -63 3 -5 28 -19 55 -31 l51 -21 -6 -41 c-5
-35 -3 -45 19 -68 14 -16 31 -28 36 -28 6 0 36 -18 68 -40 31 -22 62 -40 67
-40 6 0 19 -8 28 -19 19 -20 130 -56 146 -46 6 3 16 3 23 -2 6 -4 27 -13 45
-19 29 -10 32 -10 32 7 0 25 -50 81 -67 75 -7 -3 -13 -1 -13 5 0 15 -42 48
-61 49 -8 0 -24 7 -35 15 -10 8 -25 15 -32 15 -8 0 -27 10 -44 21 -22 16 -28
27 -24 42 4 16 -7 33 -46 69 -28 26 -54 45 -58 43 -4 -2 -13 7 -20 20 -16 30
-40 33 -40 6 0 -28 -12 -32 -46 -15 -46 24 -53 35 -16 28 38 -8 42 7 8 33 -16
12 -26 33 -30 63 -6 36 -5 43 5 33 7 -7 19 -13 26 -13 21 0 14 24 -12 43 -24
17 -25 17 -26 0 0 -12 -5 -8 -14 12 -17 37 -19 75 -4 75 7 0 22 11 35 26 l24
25 0 -38 c0 -21 9 -53 20 -71 11 -18 20 -40 20 -48 0 -34 33 -126 46 -131 18
-7 23 -2 29 26 2 11 11 31 19 42 13 19 13 25 0 50 -16 32 -19 119 -4 119 6 0
10 7 10 15 0 8 4 15 10 15 18 0 37 55 43 124 4 38 9 71 12 74 10 11 18 -9 23
-60 2 -29 8 -57 11 -63 4 -5 3 -30 -3 -55 -8 -32 -15 -45 -27 -42 -11 2 -15
-6 -16 -33 -1 -24 3 -35 13 -35 8 0 14 -5 14 -10 0 -6 -6 -9 -12 -8 -7 2 -11
-4 -10 -12 2 -8 4 -30 5 -47 1 -18 4 -33 9 -33 12 0 53 -82 58 -119 3 -19 12
-38 20 -42 93 -49 205 -89 253 -89 13 0 51 -14 83 -30 63 -33 126 -47 239 -56
103 -8 173 -30 177 -57 3 -25 52 -45 133 -54 28 -3 57 -12 65 -19 13 -11 80
-12 191 -4 4 0 10 12 13 26 4 14 15 35 25 46 18 19 22 19 83 6 56 -13 63 -17
66 -40 2 -19 -2 -27 -20 -32 -22 -6 -23 -7 -4 -21 36 -27 81 -17 88 20 2 14
-2 20 -15 19 -10 -1 -16 3 -14 10 2 6 7 10 10 9 4 -2 13 -3 20 -3 8 0 19 -12
26 -26 9 -20 17 -25 33 -21 12 4 39 1 60 -6 38 -12 51 -27 23 -27 -8 0 -15 -7
-15 -15 0 -8 9 -15 20 -15 22 0 43 31 35 53 -6 14 51 37 92 37 10 0 23 4 28 9
6 6 29 6 55 2 25 -5 95 -9 155 -10 61 -1 127 -4 149 -6 31 -3 39 0 43 16 3 10
14 19 24 19 12 0 19 7 19 20 0 24 -31 27 -50 5 -9 -11 -42 -14 -160 -14 -82 1
-166 5 -187 9 -26 6 -46 5 -68 -5 -16 -7 -47 -16 -67 -20 -21 -3 -38 -10 -38
-15 0 -17 -62 -11 -83 8 -15 12 -21 14 -24 5 -3 -7 -9 -13 -15 -13 -6 0 -7 7
-4 16 8 20 -11 45 -28 38 -16 -6 -46 22 -46 42 0 8 10 19 23 24 17 7 18 9 5 9
-24 1 -23 21 1 21 30 0 51 11 51 26 0 8 -1 14 -3 14 -30 0 -127 -26 -154 -41
l-36 -20 6 21 c7 29 -15 36 -64 20 -40 -14 -48 -23 -27 -36 14 -9 -18 -34 -44
-34 -15 0 -17 3 -8 19 5 11 6 22 2 25 -13 8 -35 -11 -30 -26 3 -8 -10 -25 -33
-43 -22 -16 -39 -32 -39 -37 0 -4 -6 -8 -13 -8 -9 0 -14 14 -15 40 -1 22 -10
48 -19 59 -35 38 -44 51 -35 51 4 0 13 -5 19 -11 6 -6 26 -9 44 -6 l34 4 -32
13 c-19 8 -36 25 -42 41 -5 15 -23 32 -40 40 -45 20 -38 28 24 26 51 -2 70
-10 44 -19 -5 -2 4 -20 22 -41 26 -30 34 -35 43 -23 13 16 56 28 56 16 0 -5
-5 -10 -12 -12 -7 -3 -9 -12 -4 -23 5 -13 9 -16 14 -8 4 6 23 13 42 15 32 3
35 6 32 31 -2 17 1 27 9 27 20 0 68 51 62 66 -3 8 1 14 10 14 9 0 22 9 29 19
10 14 18 17 28 10 20 -12 67 -11 75 1 3 5 23 10 44 10 21 0 40 3 44 6 5 5 72
8 130 5 7 -1 12 -15 13 -35 0 -32 -2 -34 -28 -34 -16 1 -34 -4 -40 -10 -7 -7
-18 -12 -25 -12 -8 0 -24 -9 -35 -20 -17 -16 -19 -23 -10 -32 10 -10 17 -10
32 0 11 6 26 12 34 12 7 0 19 6 25 14 7 8 20 14 29 13 9 0 30 3 45 7 24 6 28
4 25 -11 -2 -12 -14 -19 -36 -21 -24 -2 -32 -8 -32 -23 0 -15 -7 -19 -32 -19
-36 0 -88 -33 -70 -44 6 -3 21 -2 35 3 14 5 59 9 102 7 57 -1 78 1 82 11 4 10
9 11 18 3 9 -8 28 -5 66 9 28 11 55 18 59 16 3 -2 11 -1 17 3 9 5 9 17 0 44
-12 37 -12 37 -57 31 -25 -3 -50 -10 -56 -15 -8 -5 -14 -3 -18 8 -4 9 -5 18
-3 20 2 2 54 8 116 13 92 9 120 8 154 -4 50 -18 83 -19 93 -4 3 6 15 9 25 6
16 -4 19 1 19 30 0 34 -1 35 -17 21 -10 -8 -29 -18 -42 -21 -28 -7 -141 22
-141 36 0 9 61 5 114 -8 19 -5 31 -4 36 5 25 40 -26 48 -222 34 -87 -6 -98 -9
-98 -25 0 -12 7 -19 20 -19 11 0 20 -5 20 -11 0 -7 -23 -10 -64 -8 -56 3 -68
1 -89 -19 -26 -24 -46 -18 -23 7 8 9 16 25 18 36 2 15 15 22 53 28 28 5 57 12
65 16 8 4 50 8 94 10 43 2 103 11 134 22 30 10 58 17 60 14 3 -3 11 0 19 6 10
9 18 8 31 -5 26 -23 32 -20 32 14 0 41 -29 46 -105 20 -33 -11 -109 -25 -170
-30 -111 -11 -225 -36 -236 -53 -3 -5 -9 -2 -12 7 -5 12 -16 14 -49 9 -71 -9
-81 -9 -83 7 -2 8 -6 22 -9 30 -11 28 125 93 237 114 21 4 54 18 74 32 20 13
39 24 42 24 14 0 42 61 36 79 -4 14 0 21 16 26 22 7 22 8 4 21 -25 19 -45 1
-45 -42 0 -29 -6 -37 -43 -59 -24 -14 -51 -25 -59 -25 -9 0 -19 -7 -22 -16 -3
-8 -10 -13 -16 -9 -13 8 -136 -31 -179 -57 -26 -17 -53 -23 -106 -24 -63 -2
-80 -7 -168 -53 -54 -28 -106 -51 -116 -51 -11 0 -21 -7 -25 -15 -3 -9 -18
-15 -35 -15 -40 0 -63 -24 -55 -58 4 -15 8 -28 9 -30 2 -2 30 21 64 51 42 38
67 54 80 50 11 -3 35 3 53 12 67 36 68 36 68 20 0 -37 -30 -72 -74 -89 -50
-19 -64 -43 -18 -31 27 7 27 7 7 -13 -12 -12 -24 -16 -29 -11 -13 12 -53 12
-60 0 -3 -4 -18 -6 -32 -3 -25 4 -26 3 -20 -22 4 -15 2 -26 -4 -26 -5 0 -10 7
-10 15 0 9 -6 18 -14 21 -8 3 -22 23 -30 45 -9 22 -21 37 -26 34 -6 -4 -8 -10
-5 -15 3 -5 1 -11 -4 -14 -5 -3 -11 3 -14 14 -6 23 -37 26 -85 9 -28 -10 -31
-14 -26 -37 4 -15 3 -24 -1 -20 -4 4 -18 2 -32 -3 -23 -8 -24 -7 -21 18 2 15
-2 28 -9 30 -7 3 -13 0 -13 -6 0 -6 -7 -11 -15 -11 -25 0 -17 -13 25 -42 22
-15 40 -33 40 -40 1 -21 51 -53 60 -38 5 8 9 4 13 -11 3 -13 1 -29 -5 -36 -8
-10 -4 -15 16 -23 34 -13 33 -24 -1 -17 -15 3 -37 0 -50 -6 -17 -8 -30 -7 -49
3 -20 11 -29 12 -44 2 -27 -16 -35 -15 -20 3 7 8 10 24 7 36 -5 19 -3 21 25
15 17 -3 35 -6 40 -6 5 0 6 -9 3 -20 -3 -11 -2 -20 4 -20 18 0 23 21 11 51
-13 29 -26 34 -82 30 -33 -3 -36 9 -8 34 26 23 9 36 -33 28 -28 -6 -30 -4 -25
20 5 25 4 25 -18 10 -19 -12 -22 -21 -18 -42 9 -35 13 -41 27 -41 16 0 47 -36
47 -53 -1 -7 -6 -5 -14 6 -16 21 -56 23 -56 2 0 -8 -5 -15 -11 -15 -6 0 -8 8
-4 19 4 14 0 21 -15 26 -20 6 -20 8 -4 20 16 11 17 15 4 31 -12 13 -12 18 -2
21 17 6 15 23 -3 23 -8 0 -15 -7 -15 -15 0 -8 -4 -15 -10 -15 -5 0 -10 4 -10
8 0 5 -14 9 -31 10 -30 1 -31 0 -27 -38 3 -34 1 -37 -15 -29 -9 6 -22 7 -27 4
-6 -4 -13 1 -16 9 -12 33 -26 15 -22 -29 4 -57 -6 -58 -109 -10 -42 19 -86 35
-99 35 -13 0 -24 5 -24 10 0 6 5 10 11 10 8 0 10 20 7 60 -2 33 -1 61 3 62 4
2 10 15 14 29 6 24 3 27 -29 33 -19 4 -36 11 -38 17 -2 6 -25 13 -51 16 -52 6
-63 20 -19 25 16 2 45 -6 69 -20 23 -13 47 -21 53 -17 20 12 9 31 -25 44 -19
7 -35 17 -35 22 0 5 -8 9 -17 9 -13 0 -11 6 10 28 15 15 27 33 27 40 0 6 6 15
14 19 20 12 26 71 8 78 -12 4 -13 8 -4 17 7 7 12 30 12 51 0 34 -2 38 -15 27
-12 -10 -22 -7 -52 16 -21 15 -48 38 -60 51 -12 13 -32 23 -45 23 -27 1 -65
26 -54 37 4 4 10 3 14 -3 12 -18 50 -23 56 -7 12 30 6 63 -10 63 -12 0 -15 6
-11 21 5 17 2 20 -14 16 -10 -3 -19 -3 -19 0 0 3 34 38 76 79 75 73 76 73 119
67 23 -3 48 -9 54 -13 7 -3 13 -37 15 -74 2 -63 1 -70 -26 -96 -15 -16 -28
-31 -28 -34 0 -13 48 -5 54 9 3 8 15 15 27 15 18 0 19 2 9 15 -17 20 -7 29 18
16 17 -9 23 -6 36 14 9 13 16 33 16 45 0 16 6 20 33 20 49 0 79 -11 73 -26 -3
-8 0 -11 9 -7 9 3 17 -2 21 -13 21 -66 53 -81 35 -17 -5 17 -7 34 -3 37 11 12
22 5 22 -13 0 -28 11 -52 21 -46 4 3 6 18 3 33 -4 20 0 30 15 39 26 16 39 -2
17 -25 -21 -24 -4 -55 18 -32 8 8 18 27 21 42 6 24 2 30 -31 50 -28 17 -34 24
-21 26 9 2 17 10 17 18 0 18 18 18 64 -1 24 -10 50 -13 72 -9 35 6 191 -13
209 -27 14 -10 82 -15 91 -6 11 10 24 9 24 -3 0 -6 16 -28 36 -48 34 -35 36
-36 50 -18 14 19 14 19 14 -3 0 -22 24 -50 44 -51 4 0 6 9 3 21 -4 15 -2 19
10 15 8 -3 21 -6 29 -6 8 0 14 -4 14 -10 0 -5 -7 -10 -15 -10 -8 0 -15 -4 -15
-9 0 -19 27 -29 65 -22 34 5 40 10 43 34 2 19 -1 27 -12 27 -8 0 -18 5 -22 11
-4 8 4 9 27 4 55 -10 88 -26 92 -43 4 -15 5 -15 6 -1 1 12 9 14 32 11 24 -4
30 -8 26 -23 -3 -12 2 -23 15 -30 15 -8 17 -13 7 -25 -6 -8 -9 -17 -6 -20 8
-8 -25 -44 -40 -44 -7 0 -13 -4 -13 -10 0 -13 37 -13 45 0 3 6 15 10 26 10 14
0 25 10 32 30 6 17 19 33 29 36 21 6 23 25 6 42 -9 9 -7 12 10 12 19 0 22 -5
22 -40 0 -40 0 -40 38 -40 35 1 36 1 17 16 -11 8 -25 12 -32 10 -25 -10 -13 9
14 22 36 16 46 15 39 -4 -3 -8 -2 -24 4 -34 11 -21 -4 -30 -55 -30 -19 0 -37
-4 -40 -10 -3 -5 -15 -10 -26 -10 -21 0 -25 -10 -8 -27 8 -8 19 -6 40 4 20 10
42 13 65 9 30 -6 34 -4 34 14 l0 20 20 -20 c11 -11 29 -20 40 -20 18 0 19 -2
8 -20 -7 -11 -18 -20 -25 -20 -7 0 -15 -11 -19 -25 -8 -32 -91 -85 -132 -85
-24 0 -30 4 -26 15 4 9 0 15 -10 15 -9 0 -16 -8 -16 -20 0 -24 -47 -47 -64
-30 -17 17 -47 11 -53 -9 -5 -21 -29 -35 -45 -25 -5 3 -2 11 8 18 9 7 14 18
10 24 -11 18 -56 15 -56 -3 0 -8 5 -15 10 -15 6 0 8 -10 4 -24 -3 -13 -1 -27
5 -30 14 -9 216 30 276 53 40 16 105 61 105 74 0 5 16 27 35 48 19 22 35 47
35 57 0 22 30 52 51 52 8 0 19 4 24 9 6 5 26 11 45 13 28 2 36 8 38 27 5 34
-7 41 -69 42 -30 1 -59 6 -66 11 -16 13 -96 6 -100 -9 -3 -7 7 -15 21 -19 18
-4 26 -13 26 -29 0 -20 -3 -22 -32 -16 -29 7 -33 11 -31 38 3 37 -16 48 -52
31 -21 -9 -27 -8 -38 5 -8 11 -32 19 -67 23 -30 3 -64 9 -75 14 -35 14 -138
38 -192 46 -44 5 -53 4 -53 -9 0 -33 -20 -26 -29 10 -10 36 -14 39 -68 51 -94
22 -129 41 -103 57 15 9 0 35 -21 35 -11 0 -45 14 -76 30 -63 34 -85 37 -103
15 -7 -8 -25 -15 -41 -15 -32 0 -48 -18 -28 -31 8 -5 27 -9 42 -9 15 0 42 -8
60 -17 18 -9 34 -18 37 -18 3 -1 12 -4 20 -8 8 -3 32 -11 53 -17 21 -7 37 -13
35 -15 -7 -6 -183 27 -195 37 -7 5 -35 12 -62 13 -34 3 -56 10 -70 24 -21 21
-71 29 -71 11 0 -5 8 -14 18 -19 34 -20 0 -11 -46 13 -48 25 -53 25 -214 18
-21 -1 -46 -10 -56 -19 -18 -18 -82 -28 -82 -13 0 4 11 11 25 14 14 4 25 13
25 21 0 11 -13 15 -54 15 -73 0 -92 -9 -155 -71 -30 -30 -58 -53 -63 -51 -4 1
-8 -4 -8 -10 0 -7 -14 -25 -32 -40 -25 -20 -33 -35 -35 -65 -1 -21 -4 -59 -7
-85 -4 -32 -2 -48 7 -51 6 -2 3 -3 -8 -1 -10 2 -27 -4 -37 -13 -14 -12 -18
-13 -18 -3 0 8 -36 49 -80 92 -44 44 -80 83 -80 89 0 5 -4 9 -10 9 -15 0 -12
-27 6 -61 15 -29 14 -30 -3 -25 -10 3 -30 8 -45 12 -16 3 -28 8 -28 11 0 2 9
23 20 46 12 23 26 72 32 110 8 42 17 67 25 67 7 0 13 -7 13 -15 0 -8 5 -15 10
-15 6 0 10 8 10 18 0 24 23 36 115 61 44 12 87 28 95 35 8 8 39 14 68 15 29 0
58 3 63 6 16 11 10 37 -11 42 -11 3 -20 12 -20 20 0 13 3 13 25 -1 14 -9 45
-16 74 -16 27 0 53 -4 56 -10 3 -5 20 -10 36 -10 17 0 44 -7 61 -16 29 -15 33
-15 43 -1 9 12 15 13 23 5 8 -8 21 -9 49 0 57 16 103 23 103 13 0 -4 24 -13
53 -20 44 -11 57 -10 90 4 32 13 37 19 31 38 -5 18 -4 20 7 10 7 -7 28 -13 45
-13 18 0 40 -8 50 -17 19 -19 92 -42 135 -43 14 0 30 -5 36 -11 6 -6 26 -9 44
-7 45 4 46 32 2 36 -33 3 -44 16 -20 25 28 10 -20 36 -78 43 -142 15 -144 16
-150 35 -8 23 -33 24 -62 4 -20 -14 -24 -13 -47 10 -32 32 -56 32 -80 -1 l-20
-25 -10 26 c-20 48 -128 74 -166 40 -9 -8 -24 -13 -33 -10 -8 4 -18 2 -22 -4
-3 -6 -26 -11 -49 -11 -36 0 -47 -5 -61 -26 l-17 -26 -12 23 c-14 28 -57 37
-75 15 -7 -8 -19 -12 -28 -9 -9 3 -25 -5 -39 -21 -14 -14 -31 -26 -39 -26 -8
0 -22 -11 -31 -25 -21 -32 -50 -35 -34 -4 9 17 8 25 -6 40 -10 11 -26 18 -36
16 -11 -3 -18 0 -18 9 0 18 -61 19 -78 2 -21 -21 -144 -14 -192 11 -49 25 -59
26 -108 5 -33 -14 -135 -28 -202 -27 -30 0 -91 23 -115 43 -13 11 -44 14 -123
13 -94 -1 -108 1 -120 18 -10 14 -25 19 -63 19 -30 0 -60 7 -76 17 -35 23
-208 31 -252 12 -17 -8 -31 -20 -31 -26 0 -15 26 -18 34 -4 3 4 24 8 47 7 34
-1 43 -5 50 -24 9 -23 8 -23 -46 -17 -47 6 -55 5 -55 -9 0 -12 -10 -16 -40
-16 -22 0 -40 5 -40 10 0 5 3 9 8 9 36 -6 42 13 9 28 -18 8 -35 7 -73 -7 -55
-19 -83 -11 -76 23 2 11 -5 20 -20 26 -20 8 -21 10 -5 16 33 14 19 35 -23 35
l-41 0 3 -67z m49 -31 c-7 -2 -18 1 -23 6 -8 8 -4 9 13 5 13 -4 18 -8 10 -11z
m432 11 c-13 -2 -33 -2 -45 0 -13 2 -3 4 22 4 25 0 35 -2 23 -4z m1432 -83 c3
-5 1 -10 -4 -10 -6 0 -11 5 -11 10 0 6 2 10 4 10 3 0 8 -4 11 -10z m-570 -17
c19 -9 35 -20 35 -25 0 -4 12 -14 28 -22 15 -8 21 -15 13 -16 -9 0 -11 -8 -7
-25 4 -14 2 -25 -3 -25 -5 0 -12 8 -14 18 -4 13 -5 12 -6 -5 -1 -25 -21 -35
-37 -19 -6 6 -13 30 -16 54 -4 27 -14 49 -30 62 -29 24 -10 26 37 3z m526 -16
c-8 -8 -11 -7 -11 4 0 9 3 19 7 23 4 4 9 2 11 -4 3 -7 -1 -17 -7 -23z m-916
-7 c3 -5 -3 -10 -15 -10 -12 0 -18 5 -15 10 3 6 10 10 15 10 5 0 12 -4 15 -10z
m60 -1 c11 -17 0 -20 -21 -4 -17 13 -17 14 -2 15 9 0 20 -5 23 -11z m475 7 c0
-3 -4 -8 -10 -11 -5 -3 -10 -1 -10 4 0 6 5 11 10 11 6 0 10 -2 10 -4z m1155
-26 c3 -5 1 -10 -4 -10 -6 0 -11 5 -11 10 0 6 2 10 4 10 3 0 8 -4 11 -10z m70
-21 c3 -4 1 -10 -5 -14 -5 -3 -10 -1 -10 4 0 6 -9 11 -20 11 -11 0 -20 4 -20
9 0 10 48 2 55 -10z m-1505 -80 c0 -28 -43 -79 -73 -88 -18 -5 -41 -12 -52
-16 -17 -6 -17 -4 4 14 13 12 34 21 47 21 21 0 24 5 24 33 0 19 3 37 7 40 11
11 43 8 43 -4z m750 -39 c12 -8 11 -10 -7 -10 -13 0 -23 5 -23 10 0 13 11 13
30 0z m324 -12 c20 -9 23 -14 15 -25 -6 -7 -24 -13 -39 -13 -22 0 -31 -7 -42
-30 -10 -24 -18 -30 -33 -25 -11 3 -46 11 -77 16 -32 6 -58 15 -58 20 0 9 49
6 108 -6 23 -5 32 -4 32 5 0 22 -34 39 -79 40 -24 0 -42 3 -39 6 4 3 43 6 87
6 45 0 84 4 87 9 7 11 8 11 38 -3z m-264 -54 c0 -9 8 -29 17 -44 14 -24 14
-31 4 -44 -27 -33 -40 -19 -40 44 0 33 5 60 10 60 5 0 9 -7 9 -16z m-980 -13
c-8 -5 -53 -16 -99 -25 -50 -9 -99 -25 -120 -39 -42 -28 -81 -42 -81 -30 0 13
104 60 180 83 68 19 148 27 120 11z m-915 -21 c13 -5 -2 -7 -43 -6 -34 0 -54
4 -45 8 24 9 63 8 88 -2z m181 -15 c-11 -8 -25 -15 -32 -15 -7 0 -17 -8 -23
-17 -7 -14 -12 -15 -24 -5 -8 7 -22 10 -31 6 -9 -3 -16 -2 -16 4 0 16 63 42
105 41 37 0 39 -1 21 -14z m2564 -11 c0 -2 -7 -4 -15 -4 -8 0 -15 4 -15 10 0
5 7 7 15 4 8 -4 15 -8 15 -10z m30 -15 c0 -5 -4 -9 -10 -9 -5 0 -10 7 -10 16
0 8 5 12 10 9 6 -3 10 -10 10 -16z m-2205 -59 c-17 -11 -37 -20 -45 -20 -24 1
23 35 50 37 23 2 23 1 -5 -17z m-192 -10 c17 -20 17 -21 -10 -33 -16 -7 -40
-20 -55 -31 -17 -11 -37 -16 -51 -12 -12 3 -35 -1 -51 -9 -16 -8 -34 -15 -41
-15 -7 0 -15 -6 -18 -12 -2 -7 -8 -9 -13 -5 -4 4 -2 17 5 29 11 18 11 20 -4
14 -12 -4 -16 -1 -13 11 2 10 12 19 23 21 10 3 27 15 38 28 13 17 28 24 53 24
19 0 34 -4 34 -8 0 -5 -13 -7 -29 -4 -19 3 -30 -1 -34 -12 -4 -9 -3 -16 1 -17
4 0 14 -2 22 -5 55 -15 76 -15 98 4 12 11 22 27 22 36 0 21 2 20 23 -4z m3068
-46 c14 -13 15 -21 7 -45 -13 -37 -26 -38 -20 0 2 16 -1 32 -7 35 -12 8 -15
26 -4 26 3 0 14 -7 24 -16z m-31 -74 c0 -5 -5 -10 -11 -10 -5 0 -7 5 -4 10 3
6 8 10 11 10 2 0 4 -4 4 -10z m-1737 -66 c21 -20 49 -37 62 -38 20 -1 25 -6
25 -28 0 -24 -4 -28 -30 -28 -40 0 -80 20 -108 53 -13 15 -30 27 -37 27 -21 0
-28 18 -13 34 22 26 60 18 101 -20z m-137 -1 c-8 -25 4 -40 49 -59 l40 -18
-30 -5 c-17 -4 -30 -13 -30 -21 0 -20 34 -25 41 -6 5 13 12 12 51 -5 24 -10
60 -19 79 -19 19 0 34 -4 34 -10 0 -5 -5 -10 -10 -10 -6 0 -16 -12 -23 -27
-15 -35 -21 -39 -83 -58 -61 -18 -104 -49 -104 -76 0 -10 -3 -19 -7 -19 -11 0
-33 50 -33 73 0 10 -9 21 -20 24 -22 6 -26 18 -10 28 6 3 13 0 16 -8 10 -28
45 -27 70 0 31 33 33 83 4 83 -13 0 -20 7 -20 20 0 11 -7 23 -15 26 -18 7 -22
104 -4 104 6 0 8 -8 5 -17z m-226 -132 c0 -6 -4 -13 -10 -16 -5 -3 -10 1 -10
9 0 9 5 16 10 16 6 0 10 -4 10 -9z m207 -13 c-3 -8 -6 -5 -6 6 -1 11 2 17 5
13 3 -3 4 -12 1 -19z m-287 2 c0 -5 -5 -10 -11 -10 -5 0 -7 5 -4 10 3 6 8 10
11 10 2 0 4 -4 4 -10z m117 -40 c-16 -5 -35 -14 -43 -21 -8 -6 -14 -8 -14 -4
0 15 35 34 60 34 24 -1 24 -1 -3 -9z m283 -114 c0 -3 -13 -20 -30 -38 -27 -30
-30 -31 -30 -11 0 12 10 29 22 37 22 16 38 20 38 12z m1370 -24 c0 -8 -35 -33
-63 -44 -12 -5 -20 -3 -23 7 -4 8 -10 12 -15 9 -5 -3 -9 -1 -9 5 0 5 8 15 18
20 20 12 92 15 92 3z m-1280 -51 c0 -6 -4 -13 -10 -16 -5 -3 -10 -15 -10 -27
0 -14 -5 -18 -16 -14 -9 3 -23 6 -33 6 -28 0 -53 23 -45 43 5 13 18 17 60 17
30 0 54 -4 54 -9z m60 -42 c0 -22 -4 -23 -31 -9 -28 16 -24 38 6 32 16 -3 25
-11 25 -23z m-87 -59 c20 -33 44 -31 53 6 7 27 24 33 24 8 0 -20 -41 -94 -52
-94 -4 0 -8 4 -8 10 0 5 -6 7 -14 4 -8 -3 -34 5 -58 18 -23 12 -52 26 -63 30
-13 5 -8 6 15 4 19 -2 43 -7 53 -11 14 -6 17 -2 17 24 0 39 11 39 33 1z m1688
-80 c-30 -26 -49 -26 -26 0 10 11 25 20 34 20 12 -1 10 -5 -8 -20z m-1611 -10
c0 -5 -2 -10 -4 -10 -3 0 -8 5 -11 10 -3 6 -1 10 4 10 6 0 11 -4 11 -10z m374
1 c4 -5 2 -20 -3 -32 -8 -22 -8 -22 -13 9 -4 30 4 43 16 23z m566 -15 c0 -3
-4 -8 -10 -11 -5 -3 -10 -1 -10 4 0 6 5 11 10 11 6 0 10 -2 10 -4z m615 -6 c3
-5 1 -10 -4 -10 -6 0 -11 5 -11 10 0 6 2 10 4 10 3 0 8 -4 11 -10z m-1199 -74
c10 -4 24 0 34 9 18 17 32 11 23 -11 -3 -8 -16 -14 -30 -14 -36 0 -124 31
-117 42 3 5 14 6 24 3 10 -3 22 0 26 6 5 9 10 6 15 -8 4 -11 15 -23 25 -27z
m-680 8 c18 -15 18 -15 -11 -9 -37 8 -57 25 -29 25 11 0 29 -7 40 -16z m105
-54 c33 -17 57 -35 54 -40 -7 -12 -42 1 -95 36 -68 46 -46 48 41 4z m1132 -54
c25 -19 21 -29 -8 -22 -14 4 -25 2 -25 -4 0 -5 -4 -10 -10 -10 -14 0 -13 23 2
38 15 15 19 15 41 -2z m-188 -26 c3 -6 -1 -7 -9 -4 -18 7 -21 14 -7 14 6 0 13
-4 16 -10z m105 -14 c8 -2 -9 -4 -37 -5 -29 0 -53 3 -53 7 0 7 52 6 90 -2z"/>
<path d="M1761 1104 c0 -11 3 -14 6 -6 3 7 2 16 -1 19 -3 4 -6 -2 -5 -13z"/>
<path d="M213 2033 c-18 -6 -16 -33 1 -33 19 0 31 19 20 30 -5 4 -15 5 -21 3z"/>
<path d="M133 2003 c-7 -2 -13 -9 -13 -15 0 -14 43 -6 48 10 4 12 -12 15 -35
5z"/>
<path d="M825 1989 c-10 -15 3 -25 16 -12 7 7 7 13 1 17 -6 3 -14 1 -17 -5z"/>
<path d="M2430 1990 c-13 -9 -13 -11 0 -20 22 -15 75 -8 75 10 0 18 -53 25
-75 10z"/>
<path d="M1706 1948 c-8 -33 -7 -48 4 -48 6 0 10 9 10 20 0 11 7 23 15 26 17
7 10 24 -9 24 -8 0 -16 -10 -20 -22z"/>
<path d="M945 1941 c-8 -13 4 -19 45 -21 52 -3 57 -1 36 15 -22 17 -72 20 -81
6z"/>
<path d="M3041 1921 c-23 -15 0 -65 32 -69 18 -2 27 -9 27 -22 0 -23 21 -28
145 -35 96 -6 173 -26 186 -47 3 -5 28 -10 55 -11 37 -2 48 1 46 12 -2 10 7
12 40 7 24 -4 82 -9 131 -12 82 -6 87 -5 87 14 0 17 -9 20 -87 26 -49 3 -112
9 -141 12 -35 4 -58 2 -67 -6 -12 -10 -15 -10 -15 2 0 11 -22 19 -77 28 -43 7
-86 20 -96 28 -19 17 -70 38 -126 52 -18 5 -38 13 -44 19 -13 13 -76 14 -96 2z
m132 -62 c42 -11 51 -33 10 -23 -53 11 -63 15 -63 25 0 11 6 11 53 -2z"/>
<path d="M3520 1863 c-32 -6 -44 -18 -37 -37 5 -14 11 -14 54 -1 26 8 50 11
53 6 10 -16 46 -29 99 -36 43 -6 53 -5 49 6 -7 22 -68 53 -80 41 -7 -7 -20 -5
-42 9 -31 19 -47 21 -96 12z"/>
<path d="M2439 1797 c-9 -7 -19 -24 -22 -39 -7 -25 -4 -28 32 -38 22 -6 43
-15 46 -20 3 -6 17 -10 31 -10 31 0 32 26 0 34 -13 3 -26 12 -29 19 -7 19 40
10 74 -14 14 -10 29 -16 33 -12 3 3 6 -3 6 -15 0 -11 -4 -23 -9 -26 -8 -6 -24
-64 -25 -98 -1 -9 -4 -19 -8 -23 -4 -4 -4 -13 -2 -20 3 -7 -3 -16 -14 -19 -23
-8 -36 -57 -19 -69 7 -4 20 -5 30 -3 9 2 17 -2 17 -9 0 -7 -13 -16 -30 -20
-37 -8 -39 -21 -4 -28 16 -3 28 0 31 9 2 7 11 10 18 8 17 -7 31 16 16 25 -8 5
-9 25 -5 63 l7 56 33 -5 c39 -6 46 9 14 29 -20 13 -28 58 -10 58 6 0 10 -9 10
-20 0 -11 4 -20 8 -20 17 0 21 13 11 33 -8 14 -8 22 1 27 19 11 4 40 -20 40
-26 0 -26 22 0 38 17 11 20 10 20 -7 0 -16 18 -31 36 -31 12 0 2 31 -13 40
-13 8 -14 13 -5 16 17 8 15 34 -4 34 -8 0 -25 -5 -37 -12 -36 -19 -70 -18 -88
3 -9 10 -23 19 -32 19 -9 0 -19 5 -22 10 -9 14 -57 12 -76 -3z m161 -311 c0
-3 -4 -8 -10 -11 -5 -3 -10 -1 -10 4 0 6 5 11 10 11 6 0 10 -2 10 -4z"/>
<path d="M2720 1754 c0 -9 20 -24 50 -36 52 -21 65 -38 30 -38 -21 0 -26 -16
-10 -40 8 -13 12 -11 30 7 29 31 25 52 -16 90 -39 35 -84 44 -84 17z"/>
<path d="M2092 1688 c-21 -21 -14 -26 36 -23 31 2 47 8 47 17 0 17 -66 23 -83
6z"/>
<path d="M2740 1687 c0 -8 -7 -17 -15 -21 -18 -7 -20 -26 -2 -26 31 1 56 48
30 57 -7 3 -13 -2 -13 -10z"/>
<path d="M67 1683 c-14 -13 -6 -33 12 -33 16 0 31 18 31 36 0 7 -36 5 -43 -3z"/>
<path d="M1805 1680 c-3 -5 -2 -10 4 -10 5 0 13 5 16 10 3 6 2 10 -4 10 -5 0
-13 -4 -16 -10z"/>
<path d="M2824 1622 c-22 -21 -45 -37 -51 -35 -6 2 -13 -3 -16 -12 -4 -9 -1
-15 8 -15 8 0 15 -7 15 -16 0 -9 6 -14 13 -11 6 2 11 11 9 21 -2 9 2 16 8 16
6 0 24 14 41 31 27 28 34 30 56 20 28 -13 43 -7 43 17 0 13 -10 18 -43 19 -38
3 -48 -2 -83 -35z"/>
<path d="M1856 1635 c-3 -8 -12 -12 -20 -9 -17 7 -30 -11 -22 -32 5 -13 9 -13
36 1 18 9 30 23 30 35 0 23 -15 27 -24 5z"/>
<path d="M2103 1635 c-8 -22 -4 -23 44 -16 35 5 41 9 32 21 -8 11 -12 12 -16
3 -6 -15 -33 -17 -33 -3 0 16 -20 12 -27 -5z"/>
<path d="M2006 1632 c-6 -10 31 -59 39 -51 10 11 -6 59 -20 59 -8 0 -16 -4
-19 -8z"/>
<path d="M3097 1633 c-15 -14 -5 -23 27 -23 21 0 36 6 40 15 4 11 -2 15 -28
15 -18 0 -36 -3 -39 -7z"/>
<path d="M3756 1631 c-9 -13 46 -71 66 -71 10 0 18 7 18 15 0 8 -4 15 -9 15
-5 0 -19 11 -32 25 -26 27 -35 30 -43 16z"/>
<path d="M877 1594 c-10 -11 -8 -54 2 -54 14 0 25 40 14 51 -5 5 -12 6 -16 3z"/>
<path d="M1920 1585 c0 -8 7 -15 15 -15 8 0 15 7 15 15 0 8 -7 15 -15 15 -8 0
-15 -7 -15 -15z"/>
<path d="M2960 1590 c0 -5 6 -10 14 -10 8 0 18 5 21 10 3 6 -3 10 -14 10 -12
0 -21 -4 -21 -10z"/>
<path d="M790 1566 c0 -7 6 -19 14 -25 19 -16 32 5 16 24 -16 19 -30 19 -30 1z"/>
<path d="M1 1498 c-1 -88 4 -92 73 -63 28 12 36 21 36 41 0 27 -32 64 -55 64
-7 0 -16 -8 -20 -17 -6 -15 -10 -11 -20 17 -13 34 -13 33 -14 -42z"/>
<path d="M1853 1555 c-3 -9 -3 -19 1 -22 7 -7 36 16 36 28 0 15 -30 10 -37 -6z"/>
<path d="M2835 1560 c-3 -5 1 -10 10 -10 9 0 13 5 10 10 -3 6 -8 10 -10 10 -2
0 -7 -4 -10 -10z"/>
<path d="M2700 1522 c-14 -15 -36 -35 -49 -44 -16 -11 -22 -22 -17 -34 6 -15
10 -14 34 9 16 15 33 27 40 27 7 0 12 7 12 16 0 12 7 14 30 9 35 -8 36 -5 11
23 -24 28 -32 28 -61 -6z"/>
<path d="M855 1520 c-3 -5 -1 -10 4 -10 6 0 11 5 11 10 0 6 -2 10 -4 10 -3 0
-8 -4 -11 -10z"/>
<path d="M2820 1509 c0 -11 5 -17 10 -14 6 3 10 13 10 21 0 8 -4 14 -10 14 -5
0 -10 -9 -10 -21z"/>
<path d="M360 1504 c0 -8 5 -12 10 -9 6 4 8 11 5 16 -9 14 -15 11 -15 -7z"/>
<path d="M2865 1510 c3 -5 11 -10 16 -10 6 0 7 5 4 10 -3 6 -11 10 -16 10 -6
0 -7 -4 -4 -10z"/>
<path d="M3790 1501 c0 -33 11 -51 31 -51 23 0 23 -1 3 38 -17 36 -34 42 -34
13z"/>
<path d="M2175 1500 c-3 -5 -1 -10 4 -10 6 0 11 5 11 10 0 6 -2 10 -4 10 -3 0
-8 -4 -11 -10z"/>
<path d="M2380 1473 c0 -35 0 -36 -20 -18 -23 21 -50 13 -50 -15 0 -17 4 -20
20 -15 16 5 23 0 35 -29 18 -44 32 -52 40 -26 5 15 12 19 26 15 10 -3 28 -7
38 -10 26 -8 54 46 41 78 -7 18 -9 19 -9 4 -1 -24 -26 -16 -27 9 -2 39 -4 44
-19 44 -18 0 -20 -21 -3 -38 10 -10 10 -15 -2 -22 -26 -17 -45 -6 -48 28 -4
44 -22 41 -22 -5z"/>
<path d="M3615 1500 c-3 -6 6 -15 20 -20 39 -15 47 -13 35 10 -11 21 -44 27
-55 10z"/>
<path d="M2200 1472 c0 -13 7 -18 22 -18 13 1 23 -4 23 -11 0 -6 3 -15 8 -19
4 -4 7 9 7 29 0 34 -2 37 -30 37 -22 0 -30 -5 -30 -18z"/>
<path d="M3700 1482 c0 -5 9 -17 20 -27 17 -16 20 -16 26 -2 3 9 3 21 -1 27
-7 12 -45 14 -45 2z"/>
<path d="M840 1470 c0 -5 5 -10 10 -10 6 0 10 -7 10 -15 0 -19 -19 -19 -34 -1
-15 19 -48 24 -53 8 -3 -7 7 -15 26 -18 37 -8 42 -34 7 -34 -14 0 -28 5 -31
10 -3 6 -17 10 -31 10 -31 0 -24 -14 19 -35 29 -15 35 -15 68 1 38 17 58 46
51 77 -4 18 -42 25 -42 7z"/>
<path d="M2830 1470 c0 -5 5 -10 10 -10 6 0 10 5 10 10 0 6 -4 10 -10 10 -5 0
-10 -4 -10 -10z"/>
<path d="M2865 1473 c6 -5 23 -15 38 -21 25 -11 28 -10 25 5 -2 12 -14 19 -38
21 -21 2 -31 0 -25 -5z"/>
<path d="M3285 1470 c-3 -5 1 -10 9 -10 8 0 18 5 21 10 3 6 -1 10 -9 10 -8 0
-18 -4 -21 -10z"/>
<path d="M2088 1463 c7 -3 16 -2 19 1 4 3 -2 6 -13 5 -11 0 -14 -3 -6 -6z"/>
<path d="M2160 1455 c0 -9 5 -15 10 -13 12 4 11 16 -1 24 -5 3 -9 -2 -9 -11z"/>
<path d="M3190 1454 c1 -21 43 -74 60 -74 20 0 9 27 -25 60 -30 29 -35 31 -35
14z"/>
<path d="M2702 1452 c-26 -4 -25 -25 2 -30 22 -5 44 15 31 26 -6 4 -20 6 -33
4z"/>
<path d="M1182 1438 c-21 -21 -13 -35 18 -35 26 0 30 4 28 21 -4 24 -28 32
-46 14z"/>
<path d="M3610 1435 c0 -8 9 -15 20 -15 11 0 20 7 20 15 0 8 -9 15 -20 15 -11
0 -20 -7 -20 -15z"/>
<path d="M2988 1433 c7 -3 16 -2 19 1 4 3 -2 6 -13 5 -11 0 -14 -3 -6 -6z"/>
<path d="M2937 1403 c-5 -29 0 -53 13 -53 13 0 17 60 5 70 -9 8 -14 3 -18 -17z"/>
<path d="M3091 1421 c-35 -5 -41 -8 -30 -17 14 -12 96 -17 111 -8 11 7 -11 34
-26 32 -6 0 -31 -4 -55 -7z"/>
<path d="M1096 1401 c-4 -7 -5 -15 -2 -18 9 -9 19 4 14 18 -4 11 -6 11 -12 0z"/>
<path d="M2665 1383 c7 -30 13 -39 19 -32 8 8 -6 59 -16 59 -6 0 -7 -11 -3
-27z"/>
<path d="M2752 1398 c-7 -7 -12 -20 -12 -30 0 -10 -4 -18 -10 -18 -5 0 -10
-13 -10 -29 0 -22 6 -30 25 -35 26 -7 65 8 65 24 0 5 -16 7 -35 5 -44 -6 -46
11 -2 18 24 4 35 1 46 -14 17 -24 73 -27 64 -3 -3 9 -14 19 -24 22 -12 5 -15
12 -10 20 13 21 64 -36 56 -65 -3 -13 -1 -23 5 -23 5 0 10 -4 10 -10 0 -14
-37 -13 -46 1 -4 7 -22 9 -48 5 -98 -16 -116 -24 -116 -52 0 -15 -6 -24 -15
-24 -8 0 -15 -5 -15 -11 0 -6 12 -9 28 -7 15 2 26 8 25 14 -3 15 35 49 44 40
4 -3 2 -11 -5 -18 -7 -7 -8 -17 -2 -28 8 -14 5 -19 -15 -24 -14 -4 -25 -10
-25 -15 0 -17 33 -21 56 -6 13 8 34 15 47 15 13 0 32 9 43 20 10 11 30 31 44
45 13 14 34 25 46 25 24 0 54 29 54 53 0 23 -17 21 -30 -3 -13 -24 -35 -27
-26 -4 4 11 -10 32 -44 65 -53 51 -74 60 -84 34 -3 -8 -15 -15 -26 -15 -17 0
-20 4 -15 20 5 15 2 20 -12 20 -11 0 -24 -5 -31 -12z m28 -38 c0 -5 -2 -10 -4
-10 -3 0 -8 5 -11 10 -3 6 -1 10 4 10 6 0 11 -4 11 -10z m90 -155 c-7 -8 -18
-15 -24 -15 -6 0 -2 7 8 15 25 19 32 19 16 0z"/>
<path d="M180 1390 c-13 -9 -13 -11 0 -20 9 -6 18 -6 24 0 15 15 -6 31 -24 20z"/>
<path d="M362 1370 c7 -11 18 -20 25 -20 18 0 16 27 -3 34 -28 11 -34 6 -22
-14z"/>
<path d="M1157 1383 c-4 -3 -7 -17 -7 -30 0 -28 -5 -29 -37 -3 -29 23 -40 20
-27 -7 4 -10 8 -25 8 -33 1 -8 10 -14 21 -14 31 0 65 35 65 66 0 27 -9 35 -23
21z"/>
<path d="M3005 1380 c3 -5 15 -10 26 -10 10 0 19 5 19 10 0 6 -12 10 -26 10
-14 0 -23 -4 -19 -10z"/>
<path d="M840 1370 c0 -5 -7 -10 -15 -10 -8 0 -15 -7 -15 -15 0 -18 19 -19 43
-1 21 16 22 36 2 36 -8 0 -15 -4 -15 -10z"/>
<path d="M533 1358 c2 -7 7 -13 12 -13 5 0 10 6 13 13 2 6 -4 12 -13 12 -9 0
-15 -6 -12 -12z"/>
<path d="M2522 1347 c-24 -26 -20 -37 13 -37 14 0 26 -9 33 -25 14 -30 41 -32
72 -7 19 16 21 22 11 40 -11 21 -32 27 -73 24 -10 -1 -18 5 -18 13 0 21 -13
19 -38 -8z m105 -59 c-3 -8 -6 -5 -6 6 -1 11 2 17 5 13 3 -3 4 -12 1 -19z"/>
<path d="M283 1353 c-13 -2 -23 -8 -23 -13 0 -5 -3 -15 -6 -24 -9 -23 35 -21
51 1 13 17 14 17 32 0 23 -20 33 -22 33 -4 0 11 -52 49 -62 46 -1 -1 -13 -4
-25 -6z"/>
<path d="M655 1349 c-4 -6 -5 -13 -2 -16 7 -7 27 6 27 18 0 12 -17 12 -25 -2z"/>
<path d="M3040 1350 c-8 -5 -27 -6 -43 -3 -23 5 -29 3 -25 -8 2 -8 19 -15 36
-17 18 -2 30 -7 27 -12 -5 -8 23 -36 29 -29 2 2 6 18 9 36 7 33 -8 48 -33 33z"/>
<path d="M420 1330 c0 -22 1 -23 24 -14 23 9 20 34 -4 34 -13 0 -20 -7 -20
-20z"/>
<path d="M615 1340 c-3 -5 -1 -10 4 -10 6 0 11 5 11 10 0 6 -2 10 -4 10 -3 0
-8 -4 -11 -10z"/>
<path d="M2270 1343 c0 -5 6 -18 14 -29 17 -22 35 -11 20 13 -12 19 -34 29
-34 16z"/>
<path d="M2028 1315 c2 -14 11 -25 18 -25 17 0 18 22 2 38 -19 19 -26 14 -20
-13z"/>
<path d="M2094 1288 c4 -29 11 -57 16 -62 12 -12 33 3 22 17 -15 19 -32 77
-23 77 5 0 14 -7 21 -15 16 -19 30 -19 30 -1 0 11 -47 36 -68 36 -2 0 -1 -24
2 -52z"/>
<path d="M2430 1331 c0 -6 11 -18 25 -27 14 -9 25 -25 25 -35 0 -11 4 -19 10
-19 5 0 9 -8 7 -17 -3 -25 14 -31 27 -11 8 14 7 20 -8 31 -10 7 -21 29 -25 47
-5 28 -12 36 -34 38 -15 2 -27 -1 -27 -7z"/>
<path d="M195 1320 c-8 -13 4 -32 16 -25 12 8 12 35 0 35 -6 0 -13 -4 -16 -10z"/>
<path d="M1033 1318 c-12 -14 0 -58 16 -58 5 0 11 -9 14 -20 3 -11 14 -20 25
-20 24 0 48 25 32 35 -5 3 -10 4 -10 0 0 -16 -43 21 -54 46 -10 23 -15 27 -23
17z"/>
<path d="M2393 1318 c2 -7 7 -13 12 -13 5 0 10 6 13 13 2 6 -4 12 -13 12 -9 0
-15 -6 -12 -12z"/>
<path d="M707 1313 c-18 -17 -5 -62 24 -87 17 -14 34 -26 39 -26 11 0 50 54
50 69 0 19 -19 12 -36 -15 -10 -14 -20 -21 -23 -16 -3 4 -14 11 -23 15 -22 8
-24 36 -3 43 8 4 15 10 15 15 0 10 -33 12 -43 2z"/>
<path d="M2407 1273 c-13 -3 -16 -10 -11 -26 9 -32 16 -36 47 -30 29 6 40 43
12 43 -8 0 -15 5 -15 10 0 10 -3 11 -33 3z"/>
<path d="M861 1258 c8 -7 18 -21 22 -30 5 -14 11 -16 31 -8 18 7 26 5 30 -6 6
-16 26 -19 26 -4 0 6 -12 15 -27 21 -16 6 -39 16 -53 22 -40 18 -46 19 -29 5z"/>
<path d="M2616 1251 c-4 -6 -13 -8 -21 -4 -20 7 -20 -21 0 -37 12 -10 16 -8
25 15 11 28 8 45 -4 26z"/>
<path d="M2650 1230 c0 -11 7 -20 15 -20 8 0 15 9 15 20 0 11 -7 20 -15 20 -8
0 -15 -9 -15 -20z"/>
<path d="M162 1229 c5 -15 76 -20 85 -6 2 4 -2 7 -10 7 -8 0 -29 3 -47 7 -25
5 -32 3 -28 -8z"/>
<path d="M1993 1234 c-7 -3 -9 -12 -6 -20 4 -11 9 -12 19 -3 25 20 17 35 -13
23z"/>
<path d="M64 1222 c-6 -4 -11 -18 -10 -32 1 -21 -3 -25 -27 -23 -24 2 -28 -2
-25 -20 2 -16 11 -23 33 -25 16 -2 35 -11 42 -20 11 -15 14 -15 22 -2 5 8 7
18 5 22 -3 4 -1 8 4 8 6 0 12 -17 14 -37 4 -33 1 -42 -26 -66 -30 -27 -30 -28
-8 -34 17 -4 21 -10 16 -28 -4 -18 1 -26 27 -39 32 -16 32 -16 65 17 51 49 99
58 199 35 l60 -13 0 -75 c0 -72 -1 -75 -25 -78 -14 -2 -28 -7 -32 -11 -4 -4
-42 -6 -83 -4 -46 1 -75 -2 -75 -8 0 -6 -17 -8 -45 -3 -26 3 -51 2 -58 -4 -6
-5 -28 -15 -49 -21 -20 -7 -39 -19 -42 -27 -8 -21 23 -30 37 -10 18 24 138 34
155 13 9 -10 10 -17 2 -22 -22 -13 -10 -40 18 -41 47 -2 102 -14 102 -24 0 -5
-24 -6 -54 -3 l-53 6 -5 -34 c-14 -91 29 -106 150 -54 48 20 132 45 187 56
170 33 330 72 337 83 5 7 11 7 20 -2 6 -6 20 -12 31 -12 10 0 15 -4 12 -10 -3
-5 -15 -10 -26 -10 -33 0 -21 -18 27 -40 55 -24 54 -24 54 -5 0 8 -9 19 -21
25 -19 11 -19 13 -5 29 9 10 16 22 16 28 0 15 34 43 53 43 21 0 22 26 2 47
-14 14 -14 16 2 28 13 10 15 16 6 26 -6 8 -13 25 -15 39 -4 29 -41 36 -46 8
-2 -13 2 -15 20 -11 40 10 6 -13 -38 -25 -51 -15 -174 -16 -174 -2 0 6 5 10
10 10 6 0 10 11 10 24 0 14 4 27 9 31 14 8 4 103 -14 128 -8 12 -15 29 -15 39
0 17 -58 68 -78 68 -6 0 -16 -8 -21 -17 -9 -15 -12 -16 -20 -4 -11 18 -31 5
-31 -20 0 -20 20 -25 36 -9 19 19 68 -5 89 -45 15 -28 17 -39 8 -42 -18 -6
-16 -42 2 -49 15 -6 21 -34 7 -34 -4 0 -8 -12 -7 -26 0 -37 -28 -53 -53 -31
-25 23 -34 21 -30 -5 2 -13 11 -24 23 -27 11 -2 32 -12 47 -22 19 -14 43 -19
87 -19 34 0 61 -4 61 -10 0 -5 -11 -10 -25 -10 -29 0 -85 -37 -85 -56 0 -11
-69 -31 -185 -55 -22 -4 -81 -16 -131 -26 l-91 -19 -12 28 c-7 15 -10 32 -7
37 4 5 2 21 -4 36 -7 17 -7 24 0 20 6 -3 10 -1 10 4 0 6 7 11 15 11 31 0 44
42 47 162 l3 117 27 7 c15 3 30 10 33 15 4 5 21 9 40 9 35 0 54 15 38 31 -6 6
-32 4 -68 -6 -70 -18 -75 -18 -75 -5 0 6 9 10 20 10 22 0 25 7 11 29 -6 8 -6
24 0 38 6 18 5 23 -6 23 -9 0 -15 -9 -15 -23 0 -36 -31 -60 -63 -48 -18 7 -28
7 -33 0 -10 -17 12 -32 46 -31 27 1 30 -2 24 -21 -17 -56 -46 -61 -74 -14 -12
19 -20 25 -20 16 0 -9 -11 -24 -25 -33 -28 -19 -35 -20 -35 -6 0 6 7 10 15 10
21 0 33 30 33 83 0 32 -3 47 -11 44 -7 -2 -11 -18 -10 -34 2 -21 -5 -37 -24
-54 l-26 -24 6 23 c3 15 1 22 -9 22 -8 0 -14 -9 -14 -20 0 -24 -6 -25 -26 -5
-8 8 -12 24 -9 37 3 13 1 29 -4 36 -7 12 -12 12 -30 1 -11 -8 -21 -17 -21 -21
0 -12 -58 -9 -66 3 -3 6 -6 28 -6 50 1 34 -2 39 -21 39 -12 0 -27 -4 -33 -8z
m149 -125 c20 -8 14 -27 -9 -27 -8 0 -14 -8 -14 -18 0 -21 -18 -42 -36 -42 -9
0 -9 6 -1 24 7 13 15 22 19 20 5 -3 8 4 8 15 0 10 -6 22 -12 24 -10 4 -9 8 2
16 8 5 17 6 20 2 3 -4 13 -10 23 -14z m132 -347 c16 -7 17 -9 3 -9 -9 -1 -21
-9 -27 -18 -8 -14 -12 -15 -25 -4 -38 31 -3 53 49 31z"/>
<path d="M290 1210 c-23 -23 -23 -25 -6 -28 23 -5 39 11 34 34 -3 17 -5 17
-28 -6z"/>
<path d="M367 1224 c-4 -4 -4 -10 -1 -15 6 -10 34 0 34 12 0 10 -24 12 -33 3z"/>
<path d="M2220 1210 c0 -11 5 -20 10 -20 6 0 10 9 10 20 0 11 -4 20 -10 20 -5
0 -10 -9 -10 -20z"/>
<path d="M670 1205 c0 -9 6 -12 15 -9 8 4 15 10 15 15 0 5 -7 9 -15 9 -8 0
-15 -7 -15 -15z"/>
<path d="M620 1181 c0 -28 -1 -29 -30 -21 -26 8 -30 6 -30 -11 0 -16 5 -19 20
-15 11 3 29 9 40 12 21 6 28 48 10 59 -6 4 -10 -6 -10 -24z"/>
<path d="M0 1189 c0 -5 4 -7 10 -4 5 3 10 8 10 11 0 2 -4 4 -10 4 -5 0 -10 -5
-10 -11z"/>
<path d="M140 1187 c0 -19 30 -31 44 -17 12 12 8 15 -21 24 -17 5 -23 3 -23
-7z"/>
<path d="M1047 1192 c-16 -2 -27 -9 -24 -15 5 -16 47 -21 60 -8 16 16 -3 27
-36 23z"/>
<path d="M780 1175 c0 -18 36 -38 52 -29 7 4 2 13 -13 25 -29 23 -39 24 -39 4z"/>
<path d="M2062 1178 c3 -7 13 -15 22 -16 12 -3 17 1 14 10 -3 7 -13 15 -22 16
-12 3 -17 -1 -14 -10z"/>
<path d="M1987 1173 c-14 -4 -16 -8 -6 -19 7 -8 20 -12 35 -8 15 4 24 2 24 -5
0 -6 7 -11 15 -11 8 0 15 -4 15 -10 0 -5 9 -10 21 -10 30 0 18 22 -16 32 -16
4 -33 14 -37 23 -9 15 -18 17 -51 8z"/>
<path d="M2246 1173 c-11 -11 -6 -23 9 -23 8 0 15 4 15 9 0 13 -16 22 -24 14z"/>
<path d="M2617 1161 c-2 -11 0 -24 5 -29 16 -16 38 -2 38 24 0 30 -35 34 -43
5z"/>
<path d="M460 1159 c0 -5 5 -7 10 -4 6 3 10 8 10 11 0 2 -4 4 -10 4 -5 0 -10
-5 -10 -11z"/>
<path d="M2513 1157 c-37 -13 -44 -27 -12 -27 15 0 19 -5 15 -15 -6 -15 10
-20 36 -10 14 6 13 67 -1 64 -3 -1 -21 -7 -38 -12z"/>
<path d="M2180 1146 c0 -9 7 -16 16 -16 9 0 14 5 12 12 -6 18 -28 21 -28 4z"/>
<path d="M2680 1144 c0 -8 5 -12 10 -9 6 3 10 10 10 16 0 5 -4 9 -10 9 -5 0
-10 -7 -10 -16z"/>
<path d="M2422 1133 c2 -10 14 -19 28 -21 l25 -4 -22 21 c-27 26 -36 27 -31 4z"/>
<path d="M1011 1119 c-13 -10 -31 -19 -42 -19 -23 0 -35 -18 -20 -33 11 -11
72 15 93 41 19 23 -5 32 -31 11z"/>
<path d="M650 1114 c0 -8 5 -12 10 -9 6 3 10 10 10 16 0 5 -4 9 -10 9 -5 0
-10 -7 -10 -16z"/>
<path d="M2128 1095 c-15 -33 0 -48 36 -39 24 6 38 34 16 34 -5 0 -10 -4 -10
-10 0 -5 -7 -10 -15 -10 -11 0 -14 7 -9 25 8 32 -3 32 -18 0z"/>
<path d="M2289 1105 c-21 -12 -22 -14 -7 -20 22 -9 50 -3 55 11 6 18 -21 23
-48 9z"/>
<path d="M1083 1094 c-8 -20 11 -32 43 -26 27 5 32 27 8 36 -27 10 -44 7 -51
-10z"/>
<path d="M870 1076 c0 -53 51 -87 58 -38 3 17 0 20 -13 16 -12 -5 -16 -2 -13
12 2 11 -4 20 -14 22 -11 2 -18 -3 -18 -12z"/>
<path d="M1035 1068 c-11 -13 -19 -27 -17 -31 1 -4 -7 -18 -18 -30 -16 -16
-23 -19 -29 -9 -10 17 -71 -34 -71 -59 0 -9 -7 -19 -15 -23 -8 -3 -15 -12 -15
-21 0 -18 40 -11 78 13 14 9 22 10 22 3 0 -6 7 -11 15 -11 8 0 15 4 15 9 0 5
16 26 36 47 33 33 35 39 20 49 -20 15 -21 25 -2 25 8 0 21 -9 29 -20 11 -16
16 -17 20 -7 3 7 -4 24 -14 38 -10 13 -19 30 -19 37 0 18 -13 15 -35 -10z
m-10 -88 c-3 -5 -10 -10 -16 -10 -5 0 -9 5 -9 10 0 6 7 10 16 10 8 0 12 -4 9
-10z m-45 -40 c0 -5 -4 -10 -10 -10 -5 0 -10 5 -10 10 0 6 5 10 10 10 6 0 10
-4 10 -10z"/>
<path d="M3133 1060 c-18 -4 -39 -12 -45 -17 -7 -5 -39 -16 -70 -23 -32 -7
-55 -16 -53 -20 4 -7 -16 -36 -50 -71 -8 -9 -12 -19 -8 -22 10 -11 58 -8 70 4
6 6 39 12 72 14 53 2 64 6 90 34 16 17 34 31 40 31 6 0 11 7 11 16 0 11 5 14
16 10 9 -3 25 1 37 9 18 12 18 15 4 21 -9 3 -20 3 -25 0 -6 -3 -15 1 -22 9
-14 16 -19 17 -67 5z"/>
<path d="M2400 1050 c0 -5 5 -10 11 -10 5 0 7 5 4 10 -3 6 -8 10 -11 10 -2 0
-4 -4 -4 -10z"/>
<path d="M2053 1043 c-20 -8 -15 -23 7 -23 11 0 20 7 20 15 0 15 -6 17 -27 8z"/>
<path d="M1962 989 c2 -24 9 -44 16 -47 10 -3 13 6 10 39 -2 23 -9 44 -16 47
-10 3 -12 -7 -10 -39z"/>
<path d="M2180 1016 c0 -16 27 -29 35 -16 3 5 -4 14 -15 20 -16 8 -20 8 -20
-4z"/>
<path d="M2236 1021 c-3 -5 5 -11 19 -13 17 -4 25 -1 25 8 0 15 -36 19 -44 5z"/>
<path d="M39 972 c-41 -20 -55 -58 -17 -47 54 17 68 25 68 39 0 24 -14 26 -51
8z"/>
<path d="M280 874 c0 -9 5 -14 12 -12 18 6 21 28 4 28 -9 0 -16 -7 -16 -16z"/>
<path d="M47 867 c-35 -8 -47 -15 -47 -29 0 -22 38 -24 66 -3 10 8 27 15 37
15 9 0 17 7 17 15 0 17 -4 17 -73 2z"/>
<path d="M2712 838 c-7 -7 -12 -16 -12 -20 0 -13 37 -9 49 5 20 24 -14 38 -37
15z"/>
<path d="M1958 684 c4 -33 22 -39 22 -6 1 15 2 15 14 -1 14 -18 15 -17 21 3 8
26 8 26 -30 33 -30 6 -31 5 -27 -29z"/>
<path d="M1900 702 c0 -5 6 -17 14 -28 14 -18 15 -18 22 0 4 11 2 21 -7 27
-18 11 -29 11 -29 1z"/>
<path d="M2084 678 c2 -45 26 -49 26 -4 0 24 -5 36 -14 36 -9 0 -13 -11 -12
-32z"/>
<path d="M1076 669 c-33 -26 -22 -45 17 -30 17 7 27 18 27 31 0 26 -11 25 -44
-1z"/>
<path d="M0 650 c0 -18 6 -33 15 -36 8 -4 15 -10 15 -15 0 -5 -7 -9 -15 -9
-11 0 -15 -11 -15 -40 0 -43 12 -50 45 -26 12 8 26 11 35 6 8 -4 45 -10 83
-14 55 -5 67 -4 67 8 0 8 -7 19 -16 24 -15 9 -15 12 1 40 17 28 17 32 3 54 -9
13 -24 24 -34 25 -11 1 -56 4 -101 7 l-83 6 0 -30z m91 -60 c10 0 19 -6 19
-14 0 -12 -6 -12 -35 -3 -19 6 -35 15 -35 20 0 5 7 6 16 3 9 -3 24 -6 35 -6z"/>
<path d="M2030 665 c0 -8 7 -15 15 -15 8 0 15 7 15 15 0 8 -7 15 -15 15 -8 0
-15 -7 -15 -15z"/>
<path d="M2120 671 c0 -5 6 -14 14 -20 11 -9 16 -9 21 0 4 6 1 15 -6 20 -18
11 -29 11 -29 0z"/>
<path d="M3327 653 c-4 -3 -7 -15 -7 -25 0 -22 23 -24 41 -2 10 13 10 17 -2
25 -17 11 -24 11 -32 2z"/>
<path d="M2197 635 c-5 -10 0 -15 14 -15 12 0 19 5 17 12 -6 18 -25 20 -31 3z"/>
<path d="M922 613 c4 -22 48 -31 48 -10 0 14 -20 27 -42 27 -5 0 -8 -8 -6 -17z"/>
<path d="M2250 617 c0 -28 42 -51 103 -60 136 -18 159 -19 170 -8 16 16 1 25
-51 27 -74 4 -176 26 -188 41 -14 17 -34 17 -34 0z"/>
<path d="M1053 598 c2 -7 7 -13 12 -13 5 0 10 6 13 13 2 6 -4 12 -13 12 -9 0
-15 -6 -12 -12z"/>
<path d="M3710 600 c0 -5 -11 -10 -24 -10 -13 0 -29 -6 -35 -14 -9 -11 -39
-13 -144 -9 -277 9 -314 6 -289 -19 20 -20 439 -29 435 -9 -4 17 14 13 21 -4
7 -18 58 -13 116 13 19 8 38 14 43 14 4 -1 7 10 7 25 0 21 -3 24 -10 13 -5 -8
-12 -11 -16 -8 -4 4 -15 3 -26 -3 -15 -8 -24 -7 -37 5 -20 18 -41 21 -41 6z
m30 -42 c0 -13 -23 -5 -28 10 -2 7 2 10 12 6 9 -3 16 -11 16 -16z"/>
<path d="M865 585 c21 -17 37 -15 43 3 2 8 -8 12 -30 12 -31 -1 -32 -1 -13
-15z"/>
<path d="M1118 593 c-23 -6 -22 -9 3 -44 24 -34 38 -36 62 -9 23 28 21 39 -9
50 -26 10 -28 11 -56 3z m37 -33 c-3 -5 -11 -10 -16 -10 -6 0 -7 5 -4 10 3 6
11 10 16 10 6 0 7 -4 4 -10z"/>
<path d="M2875 570 c-12 -20 6 -27 75 -32 38 -3 75 -10 82 -15 7 -5 47 -7 88
-4 57 5 76 10 78 22 2 14 -8 15 -76 11 -60 -3 -86 0 -110 12 -34 18 -127 22
-137 6z"/>
<path d="M1067 563 c-4 -6 -17 -9 -28 -6 -16 4 -20 2 -17 -8 3 -8 11 -15 19
-15 31 -3 33 -5 19 -14 -8 -5 -11 -12 -7 -16 13 -13 29 13 25 42 -2 17 -6 24
-11 17z"/>
<path d="M1972 508 c-19 -19 -14 -30 10 -26 13 2 24 11 26 21 4 20 -18 23 -36
5z"/>
<path d="M3795 490 c-34 -35 -28 -48 15 -30 21 9 30 19 30 36 0 32 -10 30 -45
-6z"/>
<path d="M967 494 c-9 -10 2 -24 19 -24 8 0 14 7 14 15 0 15 -21 21 -33 9z"/>
<path d="M3652 478 c5 -15 67 -18 71 -3 1 6 -15 11 -37 13 -28 3 -37 0 -34
-10z"/>
<path d="M910 475 c0 -14 46 -55 61 -55 32 0 29 18 -7 39 -34 20 -54 26 -54
16z"/>
<path d="M3505 460 c-8 -13 -1 -24 14 -19 6 3 7 10 2 18 -6 10 -10 10 -16 1z"/>
<path d="M2022 443 c2 -10 11 -19 20 -21 12 -2 15 2 11 17 -7 25 -36 28 -31 4z"/>
<path d="M230 430 c-33 -14 -70 -19 -137 -19 l-93 -1 0 -37 c1 -32 3 -35 13
-22 9 12 37 17 107 22 54 3 112 13 134 22 43 18 52 16 136 -33 25 -14 52 -27
60 -29 9 -1 34 -10 55 -19 l40 -18 -48 -9 c-36 -7 -55 -6 -73 4 -19 10 -27 10
-36 1 -7 -7 -8 -12 -2 -12 5 0 -6 -9 -23 -20 -45 -27 -43 -44 5 -35 53 10 112
11 112 3 0 -5 -17 -8 -37 -9 -21 0 -69 -8 -108 -18 l-70 -18 -20 28 c-11 15
-28 30 -39 33 -14 4 -17 11 -13 28 10 35 -44 80 -97 80 -71 1 -77 -1 -74 -19
2 -10 -3 -17 -9 -16 -9 2 -13 -11 -13 -42 0 -34 3 -43 14 -39 15 6 79 -29 70
-38 -3 -3 24 -16 60 -29 65 -23 84 -39 48 -39 -10 0 -22 4 -28 8 -14 13 -88
32 -123 32 -28 0 -31 3 -26 20 4 11 2 20 -4 20 -6 0 -11 -17 -11 -39 0 -30 4
-40 20 -44 23 -6 17 -37 -6 -37 -8 0 -14 -6 -14 -13 0 -20 56 -57 85 -57 14 0
25 -4 25 -10 0 -6 97 -10 271 -10 162 0 268 4 264 9 -12 20 72 35 188 34 107
-2 117 0 117 16 0 14 -11 20 -42 25 -68 11 -116 25 -130 40 -15 15 -104 56
-122 56 -16 0 -76 56 -76 70 0 20 -33 84 -50 97 -8 7 -42 22 -75 33 -33 11
-80 31 -104 45 -51 29 -62 30 -121 5z m-107 -167 c-7 -2 -19 -2 -25 0 -7 3 -2
5 12 5 14 0 19 -2 13 -5z m367 -93 c-11 -7 -11 -11 -1 -24 7 -8 9 -21 5 -27
-5 -9 -10 -6 -15 9 -5 12 -15 22 -24 22 -24 0 -17 15 13 26 30 12 44 8 22 -6z
m128 -14 c15 -7 54 -26 87 -42 l60 -29 -55 -3 c-30 -2 -62 -9 -70 -16 -29 -25
-77 -45 -97 -40 -23 6 -42 66 -23 72 5 2 10 11 10 19 0 20 30 52 48 52 8 1 26
-5 40 -13z m-275 -13 c-7 -2 -21 -2 -30 0 -10 3 -4 5 12 5 17 0 24 -2 18 -5z
m-213 -27 c0 -3 -4 -8 -10 -11 -5 -3 -10 -1 -10 4 0 6 5 11 10 11 6 0 10 -2
10 -4z m0 -58 c0 -13 -23 -5 -28 10 -2 7 2 10 12 6 9 -3 16 -11 16 -16z m270
-28 c0 -5 -2 -10 -4 -10 -3 0 -8 5 -11 10 -3 6 -1 10 4 10 6 0 11 -4 11 -10z"/>
<path d="M1976 435 c-3 -9 0 -15 9 -15 8 0 15 7 15 15 0 8 -4 15 -9 15 -5 0
-11 -7 -15 -15z"/>
<path d="M1936 433 c-11 -11 -6 -23 9 -23 8 0 15 4 15 9 0 13 -16 22 -24 14z"/>
<path d="M2130 424 c0 -17 22 -14 28 4 2 7 -3 12 -12 12 -9 0 -16 -7 -16 -16z"/>
<path d="M2093 410 c3 -11 1 -20 -5 -20 -5 0 -6 -5 -3 -10 11 -18 34 8 28 30
-3 11 -10 20 -15 20 -6 0 -8 -9 -5 -20z"/>
<path d="M2187 399 c-18 -20 -17 -20 10 -17 16 2 28 9 28 17 0 23 -19 23 -38
0z"/>
<path d="M1768 397 c-16 -6 -28 -17 -28 -24 0 -7 -9 -13 -20 -13 -11 0 -20 -4
-20 -8 0 -17 25 -32 52 -32 24 0 28 4 28 29 0 23 5 30 23 33 25 3 30 22 7 24
-8 1 -27 -3 -42 -9z"/>
<path d="M2002 394 c2 -11 11 -20 22 -22 13 -3 17 1 14 14 -2 11 -11 20 -22
22 -13 3 -17 -1 -14 -14z"/>
<path d="M3833 360 c0 -30 2 -43 4 -27 2 15 2 39 0 55 -2 15 -4 2 -4 -28z"/>
<path d="M3605 390 c-8 -12 20 -24 35 -15 5 3 10 10 10 16 0 12 -37 12 -45 -1z"/>
<path d="M3690 385 c0 -8 12 -22 26 -32 14 -9 30 -27 35 -40 11 -30 59 -33 59
-3 0 15 -7 20 -25 20 -14 0 -25 4 -25 9 0 14 -45 61 -59 61 -6 0 -11 -7 -11
-15z"/>
<path d="M3223 378 c2 -7 10 -13 17 -13 7 0 15 6 18 13 2 7 -5 12 -18 12 -13
0 -20 -5 -17 -12z"/>
<path d="M1542 368 c5 -15 37 -18 41 -3 1 6 -9 12 -22 13 -16 3 -22 -1 -19
-10z"/>
<path d="M2240 370 c0 -5 5 -10 10 -10 6 0 10 5 10 10 0 6 -4 10 -10 10 -5 0
-10 -4 -10 -10z"/>
<path d="M3146 356 c7 -19 48 -22 42 -3 -3 6 -14 13 -26 15 -16 3 -20 -1 -16
-12z"/>
<path d="M3070 344 c0 -17 22 -14 28 4 2 7 -3 12 -12 12 -9 0 -16 -7 -16 -16z"/>
<path d="M3494 352 c-6 -4 -16 -17 -23 -29 -9 -19 -9 -23 2 -23 7 0 20 11 27
25 14 27 11 38 -6 27z"/>
<path d="M1490 320 c0 -30 13 -40 25 -20 8 13 -4 50 -16 50 -5 0 -9 -13 -9
-30z"/>
<path d="M2510 336 c0 -21 20 -30 33 -17 9 9 8 14 -3 21 -21 14 -30 12 -30 -4z"/>
<path d="M2994 336 c-8 -22 3 -33 18 -18 9 9 9 15 0 24 -9 9 -13 7 -18 -6z"/>
<path d="M3357 343 c-12 -11 -8 -23 8 -23 8 0 15 7 15 15 0 16 -12 20 -23 8z"/>
<path d="M3673 343 c-22 -8 -14 -23 13 -23 15 0 24 5 22 12 -5 14 -18 18 -35
11z"/>
<path d="M1870 325 c0 -8 7 -15 15 -15 8 0 15 7 15 15 0 8 -7 15 -15 15 -8 0
-15 -7 -15 -15z"/>
<path d="M3277 334 c-12 -13 -8 -22 14 -27 15 -4 19 -1 17 10 -3 18 -21 27
-31 17z"/>
<path d="M3600 331 c0 -5 7 -11 15 -15 8 -3 15 -1 15 3 0 5 -7 11 -15 15 -8 3
-15 1 -15 -3z"/>
<path d="M1587 314 c-15 -15 -6 -24 24 -24 20 0 29 4 27 13 -5 14 -40 21 -51
11z"/>
<path d="M3532 304 c-27 -19 -31 -50 -4 -39 51 21 72 23 72 9 0 -8 5 -14 10
-14 16 0 12 18 -10 40 -24 24 -38 25 -68 4z"/>
<path d="M3020 285 c0 -8 5 -15 10 -15 6 0 10 7 10 15 0 8 -4 15 -10 15 -5 0
-10 -7 -10 -15z"/>
<path d="M1726 275 c4 -8 18 -18 33 -21 14 -3 34 -10 44 -15 19 -10 37 -4 37
12 0 6 -8 9 -17 7 -10 -2 -26 5 -35 14 -23 23 -70 25 -62 3z"/>
<path d="M2420 274 c0 -17 22 -14 28 4 2 7 -3 12 -12 12 -9 0 -16 -7 -16 -16z"/>
<path d="M2514 279 c-4 -7 4 -20 17 -30 27 -20 36 -11 19 20 -12 23 -25 27
-36 10z"/>
<path d="M3372 270 c-16 -26 -15 -40 2 -40 21 0 27 15 18 39 -7 21 -7 21 -20
1z"/>
<path d="M1867 273 c-11 -10 -8 -53 3 -53 6 0 10 14 10 30 0 31 -2 35 -13 23z"/>
<path d="M2927 273 c-12 -11 -8 -22 13 -33 18 -9 20 -8 20 15 0 24 -18 34 -33
18z"/>
<path d="M3797 273 c-14 -13 -6 -33 12 -33 19 0 35 23 24 34 -8 8 -28 8 -36
-1z"/>
<path d="M2005 250 c5 -16 2 -20 -14 -20 -13 0 -21 -6 -21 -16 0 -11 5 -14 16
-10 9 3 27 6 40 6 28 0 30 12 7 40 -22 26 -36 26 -28 0z"/>
<path d="M3200 260 c0 -5 5 -10 10 -10 6 0 10 5 10 10 0 6 -4 10 -10 10 -5 0
-10 -4 -10 -10z"/>
<path d="M3420 251 c0 -11 -5 -23 -10 -26 -6 -4 -8 -11 -4 -16 10 -16 34 11
34 37 0 13 -4 24 -10 24 -5 0 -10 -9 -10 -19z"/>
<path d="M3656 262 c-12 -11 -5 -42 9 -42 8 0 15 5 15 11 0 8 4 8 14 0 16 -13
29 -1 18 15 -8 13 -49 24 -56 16z"/>
<path d="M1195 240 c-11 -17 5 -30 36 -30 31 0 36 9 17 28 -15 15 -45 16 -53
2z"/>
<path d="M2086 224 c-10 -27 -7 -44 9 -44 10 0 15 10 15 30 0 32 -14 40 -24
14z"/>
<path d="M3112 228 c6 -16 36 -34 44 -26 3 4 4 14 1 23 -7 17 -51 21 -45 3z"/>
<path d="M3235 230 c3 -5 13 -10 21 -10 8 0 14 5 14 10 0 6 -9 10 -21 10 -11
0 -17 -4 -14 -10z"/>
<path d="M3340 205 c0 -15 26 -32 36 -23 2 3 2 13 -2 22 -8 20 -34 21 -34 1z"/>
<path d="M3780 205 c0 -8 11 -17 24 -21 17 -4 26 -14 29 -32 2 -17 5 -11 6 17
0 24 -2 42 -5 38 -3 -3 -17 -2 -30 3 -19 7 -24 6 -24 -5z"/>
<path d="M2625 191 c7 -23 -20 -33 -47 -17 -14 8 -24 4 -47 -19 -28 -26 -32
-27 -48 -13 -33 30 -183 3 -183 -32 0 -5 -18 -13 -40 -16 -22 -4 -45 -12 -51
-20 -6 -7 -26 -18 -45 -24 -45 -15 -47 -42 -1 -33 17 3 44 12 59 19 15 8 35
14 46 14 10 0 23 5 29 11 6 6 16 8 22 5 19 -12 12 -46 -11 -56 -18 -7 -10 -9
35 -9 41 -1 66 4 85 17 15 11 44 30 64 43 20 13 40 35 43 48 l6 24 15 -22 c17
-23 54 -29 54 -8 0 7 -6 19 -12 26 -11 11 -10 12 6 4 11 -6 36 -8 57 -6 29 4
44 0 65 -16 31 -25 51 -26 79 -5 18 13 21 13 36 -7 l17 -22 13 36 c7 21 19 37
26 37 16 0 17 22 1 38 -16 16 -54 15 -108 -4 -60 -22 -101 -20 -122 5 -21 27
-52 28 -43 2z"/>
<path d="M3710 192 c0 -20 18 -32 46 -32 20 0 17 26 -3 34 -10 3 -24 9 -30 12
-8 3 -13 -2 -13 -14z"/>
<path d="M3220 176 c0 -9 6 -16 13 -16 16 0 46 20 30 20 -6 0 -18 3 -27 6 -11
4 -16 1 -16 -10z"/>
<path d="M3520 171 c0 -6 5 -11 10 -11 6 0 10 -9 10 -20 0 -22 7 -25 30 -10
12 7 12 13 4 27 -12 20 -54 30 -54 14z"/>
<path d="M2929 141 c-40 -37 -35 -65 9 -49 23 9 28 16 24 36 l-5 24 29 -18
c16 -10 33 -24 37 -31 11 -18 37 -16 37 2 0 8 -13 21 -30 30 -16 9 -30 20 -30
25 0 20 -40 9 -71 -19z"/>
<path d="M3287 150 c6 -23 38 -27 46 -6 6 14 -12 26 -38 26 -8 0 -11 -7 -8
-20z"/>
<path d="M3130 149 c0 -5 5 -7 10 -4 6 3 10 8 10 11 0 2 -4 4 -10 4 -5 0 -10
-5 -10 -11z"/>
<path d="M3480 130 c0 -11 7 -20 15 -20 8 0 15 9 15 20 0 11 -7 20 -15 20 -8
0 -15 -9 -15 -20z"/>
<path d="M1740 130 c0 -5 5 -10 11 -10 5 0 7 5 4 10 -3 6 -8 10 -11 10 -2 0
-4 -4 -4 -10z"/>
<path d="M2045 120 c-3 -6 1 -13 10 -16 19 -8 30 0 20 15 -8 14 -22 14 -30 1z"/>
<path d="M1967 113 c-13 -12 -7 -23 13 -23 11 0 20 7 20 15 0 15 -21 21 -33 8z"/>
<path d="M2122 98 c7 -19 35 -21 41 -3 5 11 0 15 -19 15 -16 0 -24 -5 -22 -12z"/>
<path d="M3180 96 c0 -17 14 -29 23 -20 8 8 -3 34 -14 34 -5 0 -9 -6 -9 -14z"/>
<path d="M3436 95 c-8 -8 -19 -15 -25 -15 -14 0 -14 -27 -1 -35 12 -7 72 49
63 59 -10 10 -20 7 -37 -9z"/>
<path d="M1375 86 c-8 -11 -25 -13 -90 -7 -56 6 -83 5 -90 -3 -15 -18 -94 -45
-150 -52 -86 -11 -86 -23 1 -24 52 0 95 6 119 16 31 12 39 13 46 3 4 -8 11
-10 15 -6 4 4 13 2 20 -4 8 -7 14 -7 19 1 3 5 28 10 54 10 26 0 62 5 80 11 27
9 32 16 29 38 -3 30 -37 41 -53 17z"/>
<path d="M1706 85 c-3 -8 -12 -15 -20 -15 -14 0 -31 -29 -22 -37 11 -11 76 30
76 48 0 23 -25 25 -34 4z"/>
<path d="M3813 83 c-13 -13 -23 -30 -23 -39 0 -11 -6 -14 -20 -9 -14 4 -20 2
-20 -8 0 -9 -6 -18 -12 -21 -7 -3 -2 -4 12 -3 14 1 35 12 47 23 12 12 27 24
33 26 7 2 10 15 8 28 l-3 25 -22 -22z"/>
<path d="M2004 78 c-3 -5 -2 -14 4 -20 12 -12 42 -4 42 11 0 13 -39 21 -46 9z"/>
<path d="M3660 60 c0 -6 -10 -8 -24 -4 -30 7 -44 -14 -16 -24 30 -11 90 -2 90
13 0 7 -7 16 -16 19 -23 9 -34 7 -34 -4z"/>
<path d="M1490 50 c0 -5 -9 -10 -20 -10 -10 0 -23 -6 -27 -14 -4 -7 -15 -16
-23 -19 -8 -3 4 -6 27 -6 23 -1 45 4 49 10 4 7 21 9 45 5 50 -8 51 9 3 29 -43
18 -54 19 -54 5z"/>
<path d="M1613 43 c-22 -8 -14 -25 10 -21 12 2 20 6 18 11 -6 12 -15 16 -28
10z"/>
<path d="M2438 3 c7 -3 16 -2 19 1 4 3 -2 6 -13 5 -11 0 -14 -3 -6 -6z"/>
<path d="M2503 3 c20 -2 54 -2 75 0 20 2 3 4 -38 4 -41 0 -58 -2 -37 -4z"/>
<path d="M2628 3 c7 -3 16 -2 19 1 4 3 -2 6 -13 5 -11 0 -14 -3 -6 -6z"/>
<path d="M2798 3 c7 -3 16 -2 19 1 4 3 -2 6 -13 5 -11 0 -14 -3 -6 -6z"/>
<path d="M2878 3 c7 -3 16 -2 19 1 4 3 -2 6 -13 5 -11 0 -14 -3 -6 -6z"/>
<path d="M2918 3 c7 -3 16 -2 19 1 4 3 -2 6 -13 5 -11 0 -14 -3 -6 -6z"/>
<path d="M2958 3 c7 -3 16 -2 19 1 4 3 -2 6 -13 5 -11 0 -14 -3 -6 -6z"/>
<path d="M3508 3 c18 -2 45 -2 60 0 15 2 0 4 -33 4 -33 0 -45 -2 -27 -4z"/>
</g>
</svg>
