<?xml version="1.0" standalone="no"?>
<!DOCTYPE svg PUBLIC "-//W3C//DTD SVG 20010904//EN"
 "http://www.w3.org/TR/2001/REC-SVG-20010904/DTD/svg10.dtd">
<svg version="1.0" xmlns="http://www.w3.org/2000/svg"
 width="384.000000pt" height="256.000000pt" viewBox="0 0 384.000000 256.000000"
 preserveAspectRatio="xMidYMid meet">
<metadata>
Created by potrace 1.16, written by Peter Selinger 2001-2019
</metadata>
<g transform="translate(0.000000,256.000000) scale(0.100000,-0.100000)"
fill="#000000" stroke="none">
<path d="M2723 2553 c9 -2 25 -2 35 0 9 3 1 5 -18 5 -19 0 -27 -2 -17 -5z"/>
<path d="M2898 2539 c-10 -10 -18 -21 -18 -24 0 -11 30 -4 37 9 11 19 58 33
49 15 -3 -8 -9 -21 -12 -31 -7 -19 -19 -23 -144 -38 -52 -7 -115 -18 -140 -25
-25 -8 -88 -15 -140 -16 -52 -2 -122 -9 -155 -16 -70 -15 -224 -40 -276 -44
-21 -2 -44 3 -53 10 -14 12 -23 11 -60 -7 -54 -28 -63 -27 -71 1 -9 28 -45 68
-56 61 -5 -3 -9 -15 -10 -27 0 -15 -6 -8 -16 21 -17 47 -30 54 -39 18 -6 -24
-34 -45 -34 -26 0 18 -18 11 -23 -9 -7 -27 2 -37 51 -56 24 -10 40 -21 35 -25
-4 -4 -37 -11 -73 -14 -36 -3 -83 -8 -105 -11 -31 -5 -36 -4 -22 5 26 16 21
40 -8 40 -21 0 -25 -5 -25 -30 0 -28 -2 -30 -39 -30 -56 0 -192 -20 -213 -31
-14 -7 -18 -6 -18 6 0 11 -6 15 -19 10 -12 -3 -21 0 -25 10 -8 22 -28 8 -21
-15 4 -13 -2 -19 -27 -25 -18 -4 -42 -9 -53 -10 -11 0 -49 -5 -85 -10 -36 -5
-71 -8 -77 -7 -7 2 -25 -3 -40 -11 -16 -7 -41 -12 -58 -12 -16 1 -55 -2 -85
-7 -30 -5 -75 -11 -100 -14 -50 -5 -63 -13 -51 -32 7 -11 21 -11 82 2 109 22
229 31 229 17 0 -6 -14 -11 -31 -11 -17 0 -28 -4 -24 -10 3 -5 15 -10 26 -10
13 0 19 -6 17 -17 -2 -12 4 -19 19 -21 13 -2 23 1 23 7 0 6 -4 11 -10 11 -18
0 -11 26 13 49 26 23 37 27 136 42 35 5 67 12 72 15 5 3 18 3 28 -1 18 -5 18
-8 6 -32 -8 -15 -12 -30 -9 -35 3 -4 0 -8 -5 -8 -6 0 -11 7 -11 15 0 19 -7 19
-26 0 -14 -13 -13 -17 1 -37 8 -13 19 -23 23 -23 12 0 50 -42 56 -62 3 -10 0
-27 -7 -36 -11 -17 -15 -16 -52 3 -22 12 -30 19 -19 17 38 -8 49 8 22 32 -12
12 -23 29 -23 38 0 9 -6 18 -14 21 -9 3 -11 -1 -7 -16 5 -15 1 -24 -16 -33
-13 -7 -26 -17 -30 -23 -8 -10 -18 -1 -32 29 -3 6 -13 0 -22 -12 -9 -13 -23
-23 -31 -23 -10 0 -13 -6 -9 -16 3 -9 6 -18 6 -20 0 -3 14 5 32 17 27 20 31
20 25 5 -4 -10 -7 -20 -7 -22 0 -2 -7 -4 -15 -4 -9 0 -18 -6 -21 -14 -3 -8
-12 -12 -20 -9 -8 3 -14 -1 -14 -10 0 -17 59 -59 72 -51 15 10 8 24 -12 24
-11 0 -20 7 -20 15 0 10 10 15 30 15 19 0 30 5 30 14 0 15 29 30 39 20 3 -4 0
-9 -6 -11 -18 -7 -16 -43 2 -43 8 0 15 -4 15 -9 0 -5 3 -17 7 -26 5 -14 2 -16
-15 -10 -12 3 -22 2 -22 -3 0 -5 -20 -8 -45 -7 -36 3 -45 0 -50 -16 -4 -10
-15 -19 -25 -19 -10 0 -22 -4 -25 -10 -12 -19 -24 -10 -22 18 2 25 0 27 -35
25 -45 -3 -47 4 -11 32 14 12 27 32 28 46 1 19 7 24 30 24 34 0 47 25 13 26
-45 2 -53 4 -56 14 -3 13 -33 24 -48 18 -7 -2 -12 -20 -12 -40 0 -32 2 -34 25
-28 18 4 24 2 21 -7 -3 -8 -22 -13 -51 -13 -37 -1 -53 -7 -77 -30 -16 -15 -34
-43 -40 -61 -6 -18 -18 -35 -27 -39 -15 -5 -15 -4 0 13 37 41 13 55 -39 23
-32 -20 -88 -18 -81 3 2 6 16 18 33 26 56 30 62 35 69 63 5 20 3 27 -7 27 -8
0 -23 9 -33 20 -21 24 -65 27 -65 5 0 -8 8 -15 18 -16 12 0 11 -3 -7 -10 -15
-6 -21 -14 -17 -25 3 -9 6 -17 6 -20 0 -2 7 -1 15 2 8 4 15 1 15 -4 0 -6 -8
-13 -18 -16 -9 -3 -23 -19 -30 -35 -10 -23 -17 -28 -35 -23 l-22 7 23 3 c17 3
22 8 17 23 -3 10 -8 28 -11 39 -6 23 -34 27 -34 5 0 -17 -16 -20 -26 -4 -12
20 -14 159 -2 159 6 0 19 6 27 14 19 16 81 29 81 17 0 -5 -4 -11 -10 -13 -6
-2 -6 -8 0 -18 9 -13 11 -13 19 0 5 8 7 18 4 23 -3 5 0 13 7 17 24 15 0 27
-50 24 -33 -2 -49 0 -44 7 3 6 3 26 0 45 -5 25 -12 34 -26 34 -14 0 -20 -7
-20 -23 0 -31 -10 -40 -27 -25 -11 8 -17 7 -28 -8 -8 -10 -15 -24 -15 -31 0
-6 -8 -14 -19 -18 -26 -8 -141 -3 -141 7 0 4 4 8 9 8 13 0 24 51 13 62 -13 13
-44 -2 -38 -18 3 -8 -1 -14 -9 -14 -11 0 -15 13 -15 49 0 28 -4 53 -10 56 -5
3 -10 14 -10 23 0 25 -78 26 -105 2 -30 -27 -60 -33 -75 -15 -16 19 -40 19
-40 0 0 -9 7 -27 16 -40 9 -14 12 -25 8 -25 -5 0 -3 -4 4 -8 7 -5 15 -37 18
-73 3 -35 10 -69 16 -76 15 -19 1 -66 -18 -59 -28 11 -44 -19 -44 -85 0 -47 4
-65 18 -75 14 -11 14 -15 3 -23 -10 -6 -10 -10 -1 -16 6 -4 9 -13 6 -20 -3 -8
0 -15 5 -17 6 -2 11 -17 10 -33 0 -17 0 -43 0 -58 -1 -50 -15 -54 -27 -7 l-12
45 -1 -72 c-1 -61 1 -71 14 -66 22 8 48 62 52 108 7 86 12 106 38 156 11 20
12 28 2 38 -9 10 -8 14 5 22 9 5 15 15 12 22 -3 9 8 17 31 24 28 9 35 8 35 -2
0 -8 -10 -15 -22 -17 -18 -2 -23 -10 -24 -36 -2 -43 14 -51 38 -19 15 21 24
25 52 20 26 -4 38 0 53 16 26 28 39 13 42 -54 2 -27 5 -54 8 -58 3 -5 -3 -14
-13 -22 -18 -13 -18 -14 6 -23 17 -6 27 -6 32 1 3 6 8 -5 10 -24 3 -31 6 -34
41 -37 31 -3 37 -7 37 -26 0 -13 -7 -29 -15 -36 -9 -7 -14 -19 -11 -27 3 -8
-2 -13 -14 -13 -24 0 -24 1 -4 -38 18 -37 34 -42 34 -10 0 37 13 11 15 -32 2
-27 -2 -40 -11 -40 -17 0 -13 -52 6 -66 12 -10 8 -15 -23 -27 -20 -9 -37 -21
-37 -26 0 -6 -6 -11 -14 -11 -8 0 -17 15 -20 34 -4 19 -12 37 -19 39 -9 4 -9
6 0 6 6 1 15 -3 18 -9 12 -19 45 -10 57 14 14 33 4 59 -21 51 -18 -5 -20 -1
-18 46 1 34 -2 54 -10 56 -8 3 -13 -5 -13 -20 0 -24 -2 -25 -36 -15 -22 6 -39
6 -43 1 -3 -5 -14 -12 -23 -16 -25 -9 -22 -22 7 -35 25 -12 35 -42 13 -42 -6
0 -20 -8 -31 -17 -18 -17 -19 -17 -16 1 2 10 -2 21 -8 23 -7 3 -13 -1 -13 -9
0 -7 -11 -22 -25 -32 -22 -16 -24 -24 -18 -59 4 -28 3 -38 -5 -33 -6 4 -9 12
-7 19 3 7 0 19 -5 27 -9 13 -12 12 -22 -5 -12 -19 -12 -19 -18 5 -4 16 -14 26
-28 28 -23 4 -31 22 -9 22 21 0 50 41 38 53 -7 7 -15 6 -25 -2 -18 -15 -29 0
-19 26 9 23 33 42 54 43 22 0 32 29 18 47 -9 10 -15 11 -23 3 -5 -5 -18 -10
-28 -10 -12 0 -18 -8 -18 -23 0 -12 -9 -30 -20 -40 -16 -13 -20 -14 -20 -2 0
7 -4 17 -10 20 -7 4 -10 -98 -10 -299 0 -197 4 -306 10 -306 6 0 10 8 11 18 0
13 2 12 9 -5 9 -21 30 -32 30 -15 0 4 64 7 142 8 177 0 207 3 217 22 7 12 11
11 23 -6 10 -15 22 -20 44 -17 16 2 33 4 38 4 4 1 5 8 2 16 -8 23 24 32 40 11
11 -16 31 -17 221 -12 114 3 343 8 507 11 165 4 305 9 310 13 6 4 70 7 141 7
l130 0 3 42 c2 23 -3 54 -11 69 -12 23 -12 35 -2 73 26 94 62 180 89 215 l27
36 31 -17 c39 -23 48 -48 48 -131 0 -83 24 -188 50 -224 11 -15 20 -34 20 -43
0 -12 15 -15 83 -15 71 0 87 3 102 20 15 17 31 20 100 20 44 0 85 -4 91 -9 13
-13 104 -17 112 -6 14 20 49 33 63 24 8 -5 35 -6 60 -3 27 4 63 1 84 -6 30
-10 39 -10 45 0 6 9 27 11 74 8 43 -4 67 -2 70 6 3 7 5 7 5 -1 2 -26 21 -12
21 15 1 23 2 25 11 9 5 -9 7 -22 4 -27 -4 -6 8 -10 29 -10 26 0 36 4 36 16 0
14 2 14 22 0 19 -13 59 -16 235 -16 140 0 221 4 240 12 15 6 44 12 63 13 70 3
81 5 75 15 -3 6 3 10 15 10 11 0 23 -7 26 -15 4 -9 15 -20 25 -26 18 -9 18 -2
17 173 -1 101 -3 166 -5 146 -3 -30 -9 -38 -24 -38 -10 0 -19 5 -19 10 0 21
-39 10 -42 -12 l-3 -23 -23 25 c-12 13 -21 33 -20 45 4 24 -35 33 -59 14 -13
-11 -15 -10 -12 6 3 12 14 21 27 23 40 6 23 17 -29 18 -49 0 -50 0 -44 -24 5
-22 4 -23 -10 -9 -8 9 -15 27 -15 40 0 14 -6 36 -13 50 -11 21 -16 23 -34 13
-11 -6 -18 -17 -16 -23 3 -7 0 -13 -6 -13 -6 0 -11 10 -11 23 0 16 9 26 28 33
35 13 48 13 44 -2 -5 -25 16 -23 33 3 l18 27 8 -22 c10 -25 69 -55 83 -42 5 5
15 6 22 3 9 -3 14 2 14 16 0 12 5 21 10 21 6 0 10 -8 10 -17 0 -10 5 -25 10
-33 7 -12 11 -10 19 10 l9 25 7 -32 c11 -51 32 -41 32 15 -1 26 3 165 6 310 4
149 4 262 -1 262 -5 0 -9 12 -10 28 0 15 -4 45 -9 67 -9 40 5 104 20 89 4 -4
7 -2 7 4 0 11 -48 18 -95 13 -15 -1 -17 1 -8 10 8 8 9 18 3 30 -9 16 -13 16
-38 4 -15 -8 -35 -12 -46 -9 -10 3 -22 1 -26 -6 -6 -9 -19 -3 -51 21 -77 62
-104 89 -89 90 62 3 73 8 61 27 -10 17 -100 25 -117 11 -10 -8 -14 -8 -14 -1
0 16 34 32 69 32 26 0 31 4 31 25 0 18 -5 25 -20 25 -25 0 -93 -31 -103 -47
-6 -9 -21 0 -55 32 -52 50 -58 52 -85 28 -15 -14 -37 -18 -101 -18 -51 0 -86
-5 -94 -12 -7 -7 -30 -13 -50 -12 -20 0 -31 3 -24 6 6 2 12 16 12 29 0 22 -4
24 -42 23 -29 0 -49 -7 -60 -20z m385 -181 c11 -237 9 -298 -6 -292 -8 3 -18
-6 -25 -21 -15 -33 -15 -35 2 -35 9 0 12 -7 9 -20 -4 -15 -9 -18 -18 -10 -22
18 -25 -4 -8 -61 9 -30 18 -48 20 -41 3 6 11 12 18 12 14 0 10 -35 -6 -55 -4
-6 -4 -17 1 -24 11 -18 44 -6 36 14 -3 8 -1 25 4 37 8 22 9 21 9 -6 1 -46 32
-72 79 -68 32 3 40 9 50 34 13 35 3 61 -28 78 -11 6 -20 18 -20 26 0 12 7 14
30 9 22 -5 38 -1 60 15 40 29 40 52 0 44 -36 -8 -42 14 -10 34 17 10 18 15 8
31 -7 11 -20 22 -30 24 -22 6 -23 35 -2 65 8 12 11 22 5 22 -20 0 -71 -36 -71
-50 0 -9 -7 -25 -15 -38 -11 -15 -14 -33 -10 -55 6 -31 5 -34 -17 -32 -26 2
-25 -7 -28 188 -1 67 -5 165 -9 217 -4 52 -7 96 -6 97 3 5 55 -48 55 -56 0 -5
-9 -11 -21 -14 -39 -10 -15 -32 34 -31 26 0 47 -3 47 -8 0 -4 8 -8 18 -8 18 0
73 -44 148 -117 18 -17 43 -34 55 -38 11 -4 37 -22 56 -40 20 -19 49 -39 64
-46 16 -6 29 -18 29 -27 0 -13 -3 -13 -19 2 -22 20 -141 40 -155 26 -7 -7 -6
-10 2 -10 7 0 12 -4 12 -10 0 -5 -7 -10 -15 -10 -22 0 -18 -17 6 -23 18 -5 19
-8 7 -29 -7 -13 -17 -26 -23 -30 -16 -11 28 -50 48 -42 23 9 21 24 -3 24 -11
0 -20 5 -20 10 0 6 11 10 25 10 14 0 25 5 25 10 0 6 -4 10 -10 10 -5 0 -10 3
-10 8 0 12 124 8 138 -5 14 -14 16 -39 3 -48 -5 -3 -11 5 -13 17 -2 13 -10 23
-18 23 -8 0 -14 -6 -12 -13 1 -6 3 -18 5 -24 1 -7 -8 -14 -21 -16 -13 -2 -26
-10 -29 -18 -3 -8 -9 -12 -13 -9 -5 3 -21 0 -36 -7 -22 -10 -28 -10 -32 0 -5
17 -31 15 -38 -3 -10 -24 -22 -18 -29 14 -9 42 -30 29 -43 -27 -12 -52 -8 -66
17 -57 48 19 105 5 99 -24 -3 -12 -17 -16 -60 -16 -31 0 -59 -3 -63 -7 -4 -4
-13 -4 -20 -1 -9 3 -21 -12 -34 -41 -25 -54 -26 -66 -6 -66 22 0 18 -14 -7
-25 -13 -6 -34 -30 -47 -53 -17 -32 -26 -40 -32 -30 -6 8 -2 18 11 28 13 10
22 31 24 57 3 24 7 47 11 53 4 6 -5 10 -19 10 -24 0 -26 -4 -27 -42 l-1 -43
-7 37 c-7 35 -35 88 -47 88 -3 0 -2 -15 2 -32 14 -60 20 -192 15 -338 -2 -77
-5 -96 -11 -72 -9 39 -17 49 -29 36 -10 -10 4 -97 25 -159 8 -23 14 -51 14
-63 0 -13 5 -33 12 -45 10 -19 9 -20 -4 -9 -9 7 -18 25 -21 41 -3 16 -12 35
-19 42 -8 8 -15 31 -17 52 -3 46 -39 106 -63 107 -19 0 -26 20 -7 20 6 0 9 12
7 28 -2 15 -7 25 -13 22 -5 -3 -9 -11 -9 -17 2 -18 -6 -16 -22 5 -12 15 -13
14 -14 -11 0 -16 4 -36 10 -46 6 -13 5 -24 -6 -37 -14 -18 -15 -17 -9 13 5 27
2 34 -21 50 -20 13 -29 14 -32 5 -2 -6 -13 -12 -24 -12 -13 0 -18 -5 -15 -14
3 -8 -1 -17 -9 -20 -17 -7 -9 -27 9 -25 35 4 47 -2 47 -26 0 -30 -16 -33 -23
-5 -3 14 -14 20 -31 20 -34 0 -33 -9 4 -43 31 -29 40 -52 18 -44 -7 2 -20 -1
-28 -9 -13 -11 -15 -9 -16 12 -2 33 -24 58 -38 44 -7 -7 -6 -14 2 -22 20 -20
13 -32 -8 -13 -24 21 -27 65 -5 65 17 0 18 2 9 24 -8 22 -23 20 -44 -6 -12
-16 -15 -27 -9 -35 7 -7 6 -14 -1 -18 -15 -9 -12 -25 5 -25 13 0 11 -6 -6 -29
-21 -29 -21 -30 -4 -85 10 -31 15 -59 11 -63 -3 -3 -6 1 -6 10 0 16 -41 86
-51 87 -3 0 -10 -26 -15 -57 l-9 -58 -19 55 c-22 65 -35 76 -55 48 -14 -21
-15 -21 -27 13 -6 19 -10 53 -7 77 6 45 3 48 -28 32 -13 -8 -19 -22 -20 -48
l0 -37 -17 45 c-17 44 -18 44 -69 47 -36 3 -56 -1 -66 -12 -22 -22 -30 -19
-25 10 3 14 1 25 -3 25 -5 0 -12 1 -16 3 -5 1 -9 -7 -10 -18 -1 -11 -5 -36 -8
-54 -5 -27 -3 -38 11 -48 17 -12 17 -13 -3 -13 -23 0 -33 18 -33 59 0 30 -21
81 -32 81 -10 0 -10 2 2 -40 6 -19 8 -47 4 -63 -4 -22 -11 -27 -34 -27 -40 0
-49 18 -51 98 -1 68 -3 72 -25 72 -30 0 -40 -16 -14 -23 19 -5 29 -27 12 -27
-5 0 -9 -18 -10 -39 -1 -28 8 -55 33 -97 19 -33 39 -64 45 -71 16 -19 12 -23
-25 -23 -33 0 -35 2 -35 36 0 36 -33 109 -60 131 -12 9 -12 12 -2 13 17 0 7
54 -16 90 -9 14 -17 42 -18 62 0 33 2 36 19 27 22 -13 54 11 60 45 3 18 5 17
16 -11 14 -37 41 -44 41 -12 0 12 4 17 11 13 6 -3 9 -15 6 -25 -3 -10 4 -31
15 -45 18 -22 22 -23 29 -11 12 20 75 14 120 -11 19 -11 52 -19 74 -18 28 1
45 -5 56 -19 14 -17 20 -18 43 -7 14 6 26 15 25 19 -6 36 3 83 16 83 9 0 12 6
9 15 -7 18 5 19 28 1 12 -9 14 -16 7 -23 -6 -6 -8 -16 -5 -22 12 -18 26 -12
27 12 1 16 2 18 6 5 7 -28 28 -21 46 15 10 20 16 26 16 15 1 -19 16 -24 25 -9
3 5 15 7 26 4 11 -3 20 0 20 6 0 6 16 11 35 11 38 0 39 4 26 63 -5 20 -5 37
-1 37 5 0 10 -12 12 -26 4 -34 34 -56 48 -34 7 10 13 11 18 5 7 -10 57 -35 69
-35 11 0 -6 83 -18 91 -8 4 -10 11 -6 16 5 4 12 1 17 -6 4 -8 15 -11 25 -7 14
5 17 2 13 -19 -8 -42 12 -59 58 -49 39 10 39 10 42 62 2 42 -2 62 -25 101 -15
28 -34 52 -43 54 -8 3 -22 8 -32 12 -11 4 -18 1 -21 -12 -4 -16 -5 -16 -6 2
-1 11 -12 27 -24 36 -19 14 -26 14 -40 4 -24 -17 -2 -74 33 -82 38 -9 43 -14
26 -26 -8 -7 -16 -21 -19 -32 -4 -18 -5 -18 -6 2 0 12 -10 27 -21 33 -11 6
-20 19 -20 28 0 10 -13 29 -30 44 -39 34 -42 96 -7 128 18 18 23 19 25 6 4
-20 32 -21 32 -2 0 11 10 13 41 9 36 -5 41 -4 37 13 -3 14 -11 18 -32 17 -16
-1 -35 4 -43 12 -8 8 -10 15 -5 15 6 0 13 7 16 16 4 11 -1 18 -14 21 -20 5
-20 7 -4 24 23 26 47 25 39 -1 -5 -16 -2 -20 14 -20 17 0 20 6 19 38 0 20 -5
48 -10 61 -7 20 -11 21 -24 10 -14 -12 -14 -14 0 -25 15 -10 14 -13 -7 -27
-32 -21 -46 -9 -49 41 -2 33 -7 42 -21 42 -10 0 -15 -4 -12 -10 3 -5 8 -32 10
-59 l3 -48 -41 -13 c-23 -8 -47 -17 -53 -22 -6 -4 -21 2 -34 14 -14 14 -25 18
-27 11 -3 -7 -17 -9 -40 -6 -32 5 -39 2 -60 -23 -13 -16 -23 -23 -23 -15 0 27
-35 91 -52 96 -10 4 -18 16 -19 28 0 15 -2 17 -6 7 -9 -22 -30 -40 -47 -40 -9
0 -25 -9 -36 -20 -16 -16 -25 -18 -45 -10 -14 5 -25 14 -25 20 0 21 -29 21
-52 1 -12 -12 -28 -19 -34 -17 -7 3 -18 -2 -24 -9 -10 -12 -9 -16 4 -21 27
-10 18 -30 -15 -32 -17 -1 -41 -9 -52 -17 -15 -11 -24 -12 -34 -3 -9 7 -17 7
-27 -1 -8 -6 -19 -10 -26 -9 -7 2 -15 -3 -17 -9 -4 -12 20 -18 53 -14 7 1 14
-10 18 -23 3 -13 9 -32 13 -43 6 -17 5 -17 -13 -2 -23 20 -44 14 -44 -12 0
-20 -15 -26 -25 -9 -4 6 -15 1 -28 -10 -21 -20 -44 -22 -40 -4 1 5 -3 15 -9
22 -7 8 -7 12 1 12 6 0 11 9 11 20 0 11 -5 20 -11 20 -6 0 -9 15 -7 38 2 26
11 44 30 60 19 16 28 33 28 53 0 19 5 29 15 29 10 0 15 10 15 30 0 31 -13 39
-27 18 -9 -15 -65 -19 -74 -6 -10 15 -10 98 0 98 5 0 11 -6 14 -14 6 -15 47
-11 47 5 0 19 21 8 30 -16 12 -31 30 -33 31 -2 1 21 1 21 8 -3 4 -14 17 -29
29 -35 30 -13 24 -39 -11 -43 -39 -5 -57 -44 -33 -71 14 -15 15 -24 7 -40 -14
-26 -14 -31 4 -31 8 0 15 5 15 10 0 6 8 10 18 10 10 0 29 17 42 40 14 22 31
40 38 40 25 0 11 18 -20 25 -25 5 -29 8 -16 13 10 4 16 11 15 17 -1 5 10 16
26 25 24 13 30 13 54 0 15 -8 30 -26 34 -40 l7 -25 1 28 c1 17 7 27 16 27 17
0 20 -16 5 -25 -15 -9 -12 -22 8 -29 9 -3 23 -9 29 -12 8 -3 21 13 34 43 60
130 70 146 84 123 3 -5 1 -10 -6 -10 -9 0 -9 -3 0 -14 6 -7 9 -20 5 -29 -7
-20 54 -67 89 -67 28 0 57 23 57 46 0 21 -18 17 -30 -6 -6 -11 -17 -20 -24
-20 -17 0 -29 27 -15 36 14 9 -9 34 -32 34 -12 0 -21 10 -25 28 -10 48 -13 52
-37 52 -13 0 -33 9 -45 20 -19 18 -25 19 -44 8 -13 -7 -24 -14 -26 -15 -2 -1
1 -11 8 -22 9 -18 8 -21 -10 -21 -13 0 -20 -7 -20 -20 0 -11 -4 -20 -10 -20
-6 0 -6 9 0 25 8 20 6 27 -6 32 -9 3 -19 2 -23 -3 -3 -5 -32 -9 -63 -10 -49 0
-57 2 -62 20 -6 21 -6 21 -22 1 -8 -11 -23 -19 -33 -17 -12 2 -21 -5 -26 -20
-6 -19 -8 -20 -12 -5 -2 9 -11 17 -19 17 -8 0 -17 7 -20 15 -4 8 -11 15 -18
15 -15 0 -65 57 -68 78 -2 14 9 18 62 24 36 4 83 12 105 17 22 5 87 13 145 16
58 4 121 11 140 17 52 14 293 47 303 41 4 -2 13 0 20 5 13 10 59 18 189 30 42
4 83 13 90 20 6 6 15 12 18 12 4 0 10 -68 13 -152z m182 62 c3 -5 1 -10 -4
-10 -6 0 -11 5 -11 10 0 6 2 10 4 10 3 0 8 -4 11 -10z m-1295 -102 c0 -20 -5
-23 -33 -22 -81 2 -76 39 6 43 22 1 27 -3 27 -21z m-395 -54 c-16 -7 -38 -13
-47 -14 -9 0 -20 -5 -24 -11 -6 -11 -33 -9 -66 6 -12 5 -21 -1 -31 -21 l-14
-27 -7 28 c-4 15 -6 28 -4 30 7 6 137 22 178 22 l45 0 -30 -13z m1942 10 c-3
-3 -12 -4 -19 -1 -8 3 -5 6 6 6 11 1 17 -2 13 -5z m-50 -10 c-3 -3 -12 -4 -19
-1 -8 3 -5 6 6 6 11 1 17 -2 13 -5z m-2109 -16 c-3 -7 -18 -14 -34 -16 -16 -1
-39 -5 -51 -7 -30 -7 -83 -59 -83 -82 0 -45 -12 -63 -41 -63 -25 0 -29 4 -29
30 0 17 7 33 17 38 10 6 16 21 15 41 0 17 5 34 11 38 7 5 50 13 97 19 47 6 89
12 93 13 5 0 7 -5 5 -11z m2232 -38 c0 -22 -3 -40 -6 -40 -10 0 -48 23 -68 41
-20 19 -20 19 5 19 13 0 31 5 39 10 25 16 30 12 30 -30z m-3575 -12 c4 -4 -4
-13 -18 -19 -28 -13 -88 -2 -94 16 -3 11 101 14 112 3z m325 -19 c0 -5 -4 -9
-10 -9 -5 0 -10 7 -10 16 0 8 5 12 10 9 6 -3 10 -10 10 -16z m1984 -27 c-19
-4 -19 -4 -29 28 l-8 25 26 -25 c21 -20 23 -26 11 -28z m-622 11 c2 -22 8 -28
29 -29 37 -1 61 -12 54 -24 -3 -5 -15 -10 -26 -10 -20 0 -24 -16 -10 -38 12
-20 46 -10 46 13 1 11 4 26 9 33 4 7 5 21 1 31 -5 16 -1 18 27 16 18 -2 36 -4
41 -4 15 -2 6 -18 -18 -31 -40 -21 -33 -40 10 -27 19 6 35 15 35 20 0 5 15 6
36 2 21 -4 40 -2 43 3 3 6 7 -37 9 -94 2 -88 0 -103 -12 -98 -10 4 -17 -3 -22
-20 -3 -14 -10 -23 -16 -20 -5 3 -4 11 2 19 9 11 7 20 -6 38 -15 20 -22 22
-41 13 -13 -6 -23 -15 -23 -19 0 -5 -4 -6 -10 -2 -5 3 -7 12 -3 20 4 12 -3 15
-31 15 -36 0 -47 -15 -27 -35 5 -6 17 -39 26 -75 9 -36 20 -69 25 -75 4 -5 10
-26 13 -45 2 -19 11 -60 20 -90 17 -59 14 -76 -9 -46 -10 15 -16 16 -27 7 -19
-15 -47 -3 -47 20 0 10 -2 19 -5 19 -13 0 -45 -42 -45 -58 0 -10 -9 -28 -21
-41 -17 -18 -27 -21 -52 -15 -18 4 -49 7 -69 8 -20 1 -40 5 -44 9 -12 11 -42
8 -46 -5 -3 -8 -13 -6 -31 8 -52 37 -29 42 111 22 94 -14 107 -7 97 47 -11 53
-6 97 12 110 14 11 15 17 6 38 -10 20 -9 26 3 31 18 7 19 59 2 54 -7 -3 -14
-14 -16 -26 -5 -32 -42 -30 -42 2 0 17 -10 31 -32 45 -50 31 -62 55 -43 91 8
16 12 36 9 45 -6 14 -9 14 -25 -4 -20 -21 -102 -61 -126 -61 -8 0 -17 -9 -20
-19 -3 -10 -16 -21 -30 -24 -20 -4 -27 1 -41 29 -8 19 -19 34 -24 34 -4 0 -8
4 -8 9 0 6 17 11 38 13 34 3 37 6 40 36 4 36 0 35 69 16 16 -4 23 -1 28 15 3
12 24 30 44 41 22 11 41 29 45 42 6 21 7 21 17 6 13 -22 39 -23 39 -2 0 10 6
14 14 11 16 -6 40 16 29 26 -3 4 -1 7 5 7 6 0 12 -12 14 -27z m568 -3 c0 -5
-5 -10 -11 -10 -5 0 -7 5 -4 10 3 6 8 10 11 10 2 0 4 -4 4 -10z m-1183 -42
c-3 -7 -5 -2 -5 12 0 14 2 19 5 13 2 -7 2 -19 0 -25z m203 22 c0 -5 -11 -10
-25 -10 -14 0 -25 5 -25 10 0 6 11 10 25 10 14 0 25 -4 25 -10z m-1295 -10
c-3 -5 -12 -10 -18 -10 -7 0 -6 4 3 10 19 12 23 12 15 0z m51 -8 c1 -7 2 -19
3 -27 1 -9 7 -12 17 -8 10 3 29 -7 52 -30 20 -19 46 -37 57 -39 11 -2 19 -10
18 -16 -2 -7 3 -12 10 -12 6 0 12 13 13 30 1 27 -3 31 -37 42 -22 6 -39 15
-39 20 0 7 50 13 74 9 4 -1 19 6 33 14 14 9 26 15 28 13 5 -5 18 -179 16 -213
-3 -60 5 -72 55 -80 30 -4 50 -2 60 6 17 14 19 12 28 -18 4 -12 2 -24 -4 -28
-5 -3 -10 -13 -10 -21 0 -11 6 -13 20 -9 15 5 23 0 32 -19 6 -14 19 -26 30
-26 10 0 23 -9 30 -20 7 -11 21 -20 30 -20 10 0 18 -4 18 -10 0 -5 6 -10 13
-10 7 0 12 -14 13 -33 l1 -32 -15 33 c-15 31 -35 41 -46 23 -3 -4 1 -17 9 -27
20 -27 18 -32 -10 -26 -14 2 -25 0 -25 -6 0 -12 29 -24 41 -16 5 3 9 -4 9 -15
0 -23 10 -27 28 -9 8 8 14 5 22 -16 13 -35 13 -33 -10 -39 -29 -7 -25 -26 8
-33 15 -4 33 -12 41 -18 8 -6 24 -11 35 -11 15 0 22 -7 24 -27 2 -17 9 -28 18
-28 12 0 14 7 9 33 -3 17 -3 28 2 22 14 -17 97 -55 121 -55 15 0 22 6 22 20 0
23 15 27 24 5 8 -21 26 -19 27 3 0 13 3 11 10 -6 10 -25 29 -21 29 6 0 13 3
13 15 -4 10 -15 29 -23 65 -27 65 -8 70 -12 70 -50 0 -28 -4 -32 -28 -34 -15
-1 -46 7 -69 17 -34 16 -57 19 -118 15 -49 -4 -93 -1 -123 8 -62 19 -72 14
-72 -37 0 -23 -5 -47 -11 -53 -6 -6 -12 -41 -13 -77 -2 -37 -8 -72 -14 -78 -9
-9 -10 12 -5 78 4 49 7 111 8 138 0 45 -2 50 -28 59 -15 5 -34 6 -43 3 -14 -5
-11 -17 14 -56 2 -2 7 2 12 10 15 24 20 6 10 -31 -6 -19 -11 -76 -11 -128 -1
-110 12 -135 56 -111 14 8 25 22 25 34 1 12 7 32 15 46 8 14 14 36 15 49 0 13
3 21 7 17 4 -4 6 -27 4 -51 -2 -35 1 -45 13 -45 11 0 16 9 16 30 0 17 5 30 10
30 14 0 13 -57 -2 -62 -17 -6 -1 -56 20 -62 9 -2 1 -4 -18 -3 -19 0 -41 -3
-49 -7 -7 -5 -70 -11 -139 -13 -117 -5 -129 -4 -152 15 -14 11 -22 24 -18 28
5 4 17 -1 28 -11 14 -13 24 -15 31 -8 14 14 0 43 -21 43 -11 0 -22 5 -25 10
-5 8 -11 8 -20 0 -9 -8 -14 -8 -17 0 -6 19 16 194 27 210 42 63 44 87 9 100
-35 14 -35 13 -28 -16 7 -28 -7 -44 -39 -44 -15 0 -17 9 -16 63 1 34 4 76 7
92 4 29 5 29 13 8 5 -13 13 -23 20 -23 9 0 24 34 22 50 -1 3 -14 4 -31 2 -37
-4 -45 7 -36 53 6 32 28 48 36 26 2 -5 15 -13 31 -16 23 -6 27 -4 27 13 0 11
6 25 14 32 17 13 10 40 -9 40 -7 0 -15 7 -19 15 -3 8 -12 12 -21 9 -20 -8 -65
4 -65 16 0 6 9 10 20 10 31 0 25 33 -12 64 -18 14 -37 25 -42 23 -20 -7 -17
-27 6 -36 12 -6 17 -10 11 -10 -9 -1 -13 -21 -13 -64 0 -37 5 -69 13 -76 7 -8
8 -15 2 -17 -6 -3 -10 -87 -10 -227 l1 -224 28 -26 c16 -15 24 -27 18 -27 -6
0 -14 5 -17 10 -14 23 -35 9 -36 -22 -2 -82 -17 27 -24 173 -4 85 -9 181 -11
214 -2 33 -4 68 -4 78 0 9 -11 23 -25 29 -30 13 -33 28 -6 28 18 0 20 9 23 97
3 105 -4 135 -46 173 -15 14 -31 34 -36 46 -4 11 -24 28 -43 37 -19 9 -40 23
-47 32 -7 8 -21 15 -31 15 -10 0 -26 11 -35 25 -18 27 -25 107 -9 102 6 -2 11
-9 11 -15z m1309 -2 c3 -5 1 -10 -4 -10 -6 0 -11 5 -11 10 0 6 2 10 4 10 3 0
8 -4 11 -10z m99 -6 c31 -12 15 -19 -34 -16 -27 2 -47 8 -44 13 6 10 54 12 78
3z m-1486 -42 c2 -8 -11 -12 -39 -12 -43 0 -45 13 -4 23 27 6 38 3 43 -11z
m1352 3 c0 -8 -3 -15 -7 -15 -13 0 -32 -49 -22 -56 5 -3 6 -16 3 -30 -4 -14
-2 -24 5 -24 28 0 7 -19 -35 -31 -40 -12 -45 -17 -41 -37 3 -14 -1 -26 -9 -29
-8 -3 -14 -11 -14 -18 0 -14 -25 -27 -34 -18 -3 3 2 19 10 34 13 26 13 30 -1
35 -20 8 -27 1 -29 -30 -2 -52 -16 -24 -16 33 0 40 5 62 15 71 17 14 15 34 -3
36 -26 3 -26 6 -2 13 35 11 54 3 39 -16 -9 -10 -9 -17 -1 -25 16 -16 32 0 32
33 0 20 10 38 33 59 34 32 77 40 77 15z m-180 -9 c0 -3 -4 -8 -10 -11 -5 -3
-10 -1 -10 4 0 6 5 11 10 11 6 0 10 -2 10 -4z m925 -58 c-4 -9 -15 -18 -26
-21 -15 -4 -19 0 -19 21 0 19 3 23 9 14 6 -11 10 -10 15 4 4 12 10 14 17 7 5
-5 7 -17 4 -25z m-2035 -16 c0 -13 -3 -12 -15 4 -19 25 -19 40 0 24 8 -7 15
-20 15 -28z m3070 12 c0 -14 -4 -23 -10 -19 -5 3 -10 15 -10 26 0 10 5 19 10
19 6 0 10 -12 10 -26z m-2605 -44 c3 -5 1 -10 -4 -10 -6 0 -11 5 -11 10 0 6 2
10 4 10 3 0 8 -4 11 -10z m540 0 c3 -5 1 -10 -4 -10 -6 0 -11 5 -11 10 0 6 2
10 4 10 3 0 8 -4 11 -10z m1865 -16 c0 -8 -5 -12 -10 -9 -6 4 -8 11 -5 16 9
14 15 11 15 -7z m170 1 c0 -8 -4 -15 -10 -15 -5 0 -10 7 -10 15 0 8 5 15 10
15 6 0 10 -7 10 -15z m42 -19 c2 -19 0 -32 -4 -30 -8 5 -12 64 -4 64 2 0 6
-15 8 -34z m244 -3 c-10 -10 -19 5 -10 18 6 11 8 11 12 0 2 -7 1 -15 -2 -18z
m173 -10 c0 -28 0 -28 -10 -4 -8 19 -12 21 -24 11 -9 -8 -15 -8 -15 -2 0 6 6
13 13 15 27 12 37 6 36 -20z m-2429 -72 c0 -70 -3 -90 -15 -95 -12 -4 -15 5
-15 49 0 48 -3 55 -19 55 -24 0 -38 -19 -22 -30 15 -9 9 -59 -9 -70 -7 -4 -10
-15 -7 -24 5 -12 0 -16 -18 -16 -14 0 -25 -4 -25 -10 0 -5 -7 -10 -16 -10 -13
0 -12 5 5 26 14 18 21 41 21 70 0 46 23 86 46 77 7 -2 23 11 36 31 13 20 26
36 31 36 4 0 7 -40 7 -89z m1577 64 c6 -14 7 -23 2 -19 -13 8 -31 44 -22 44 4
0 13 -11 20 -25z m503 15 c0 -5 -5 -10 -11 -10 -5 0 -7 5 -4 10 3 6 8 10 11
10 2 0 4 -4 4 -10z m-690 -58 c-7 -13 -9 -8 -9 23 0 35 1 37 10 17 6 -15 5
-30 -1 -40z m-2310 38 c0 -5 -2 -10 -4 -10 -3 0 -8 5 -11 10 -3 6 -1 10 4 10
6 0 11 -4 11 -10z m1400 -1 c0 -6 9 -23 19 -38 11 -15 19 -35 18 -45 -2 -18
11 -29 46 -40 9 -3 17 -13 17 -23 0 -15 -2 -15 -9 -4 -8 12 -12 12 -26 -2 -26
-27 -33 -20 -40 38 -5 39 -13 59 -26 66 -11 5 -19 16 -19 24 0 8 -4 15 -10 15
-5 0 -10 5 -10 10 0 6 9 10 20 10 11 0 20 -5 20 -11z m-1240 -20 c0 -5 -4 -9
-10 -9 -5 0 -10 7 -10 16 0 8 5 12 10 9 6 -3 10 -10 10 -16z m1656 -16 c-11
-11 -19 6 -11 24 8 17 8 17 12 0 3 -10 2 -21 -1 -24z m-1308 10 c-2 -13 -14
-19 -41 -21 -21 -2 -37 1 -37 7 0 6 14 11 30 11 17 0 30 5 30 10 0 6 5 10 11
10 6 0 9 -8 7 -17z m646 2 c44 -18 47 -33 6 -27 -46 7 -38 -19 15 -47 39 -21
49 -22 72 -12 15 7 33 21 41 32 7 10 22 19 32 19 10 0 22 5 26 11 4 8 12 2 21
-15 12 -23 12 -29 -1 -41 -8 -8 -22 -15 -30 -15 -10 0 -16 -9 -16 -22 0 -20
-1 -20 -19 -4 -42 38 -78 -4 -69 -79 3 -24 0 -35 -9 -35 -7 0 -13 -8 -13 -18
0 -15 -7 -17 -66 -12 -59 5 -67 9 -92 40 -47 60 -50 136 -6 165 14 9 21 21 18
30 -17 43 25 57 90 30z m1114 -20 c-1 -20 -11 -43 -21 -53 -11 -9 -24 -28 -30
-42 -10 -24 -11 -24 -17 15 -7 51 5 89 33 103 34 17 38 14 35 -23z m-208 4 c0
-5 -4 -9 -10 -9 -5 0 -10 7 -10 16 0 8 5 12 10 9 6 -3 10 -10 10 -16z m1230
17 c0 -3 -4 -8 -10 -11 -5 -3 -10 -1 -10 4 0 6 5 11 10 11 6 0 10 -2 10 -4z
m-3280 -26 c16 26 40 2 40 -40 0 -44 -8 -48 -45 -24 -19 12 -25 25 -25 53 1
31 2 33 11 17 9 -14 13 -15 19 -6z m1750 -42 c0 -29 27 -19 48 17 10 18 11 16
12 -16 0 -38 -4 -41 -72 -63 -10 -3 -18 -15 -18 -26 0 -11 -4 -20 -10 -20 -16
0 -12 65 6 111 17 40 33 39 34 -3z m-1186 17 c-4 -8 -10 -15 -15 -15 -5 0 -9
-12 -9 -26 0 -14 -4 -23 -10 -19 -5 3 -10 1 -10 -4 0 -6 -6 -11 -14 -11 -7 0
-19 -7 -26 -15 -7 -8 -21 -15 -31 -15 -11 0 -19 -3 -19 -7 0 -5 -11 -13 -25
-19 -27 -13 -27 -12 -40 52 -5 26 -2 35 21 53 29 23 44 20 44 -10 0 -17 6 -20
33 -17 28 3 32 6 30 30 -1 23 3 27 30 31 18 2 35 5 39 5 4 1 5 -5 2 -13z
m1526 -27 c0 -18 -2 -20 -9 -8 -6 8 -7 18 -5 22 9 14 14 9 14 -14z m1042 0 c2
-15 10 -23 22 -23 11 0 21 -6 24 -13 2 -8 -2 -10 -14 -5 -12 4 -15 2 -12 -8 2
-8 15 -15 27 -17 15 -3 21 -8 17 -19 -3 -8 -6 -23 -6 -33 0 -16 -5 -17 -42 -8
-46 10 -55 15 -45 24 4 4 13 1 22 -6 13 -10 15 -9 15 7 0 11 -3 23 -7 26 -3 4
-7 17 -9 30 -1 12 -5 32 -9 45 -4 13 -3 22 3 22 6 0 12 -10 14 -22z m-1082
-37 c0 -11 -5 -10 -20 4 -11 10 -20 22 -20 27 0 4 9 3 20 -4 11 -7 20 -19 20
-27z m107 23 c-3 -3 -12 -4 -19 -1 -8 3 -5 6 6 6 11 1 17 -2 13 -5z m1089 -38
c-15 -23 -36 -33 -36 -16 0 6 7 22 17 36 12 19 18 22 24 12 5 -7 3 -21 -5 -32z
m-635 -53 c19 5 29 -17 29 -65 0 -37 -24 -27 -41 15 -7 18 -18 48 -25 67 -8
19 -13 44 -13 55 0 11 7 -2 16 -28 13 -37 20 -47 34 -44z m-151 32 c10 -12 16
-12 26 -4 8 6 25 8 39 5 21 -5 25 -12 25 -45 0 -25 5 -41 15 -45 24 -9 17 -26
-10 -26 -13 0 -29 -8 -34 -17 -10 -17 -10 -17 -11 -1 0 9 5 20 10 23 15 9 13
88 -2 83 -7 -3 -14 -19 -16 -36 -3 -32 -17 -43 -24 -21 -3 9 -9 9 -25 0 -12
-6 -29 -11 -37 -11 -30 0 -16 17 24 30 50 17 56 46 8 37 -18 -4 -43 -9 -55
-13 -33 -9 -28 7 10 34 38 26 41 27 57 7z m-436 -22 c17 -21 17 -21 -3 -16
-13 3 -21 13 -21 26 0 11 1 18 3 16 1 -2 10 -14 21 -26z m-238 -8 c-17 -18
-19 -25 -16 -67 1 -18 -5 -30 -19 -38 -20 -10 -21 -8 -21 29 0 22 5 43 10 46
6 3 10 15 10 25 0 12 8 20 23 22 30 5 32 2 13 -17z m-1271 5 c-3 -5 -10 -10
-16 -10 -5 0 -9 5 -9 10 0 6 7 10 16 10 8 0 12 -4 9 -10z m423 -7 c5 -10 12
-79 16 -153 7 -143 19 -177 58 -164 10 3 18 1 18 -5 0 -23 30 -10 56 24 20 26
30 33 43 26 9 -4 37 -8 64 -7 26 0 47 -2 47 -6 0 -5 6 -8 14 -8 8 0 16 -5 18
-12 3 -7 9 -8 19 -3 8 5 26 8 40 7 20 -3 28 2 33 20 10 40 7 71 -11 91 -17 19
-17 20 3 9 12 -6 23 -9 25 -7 3 2 3 -13 1 -33 -2 -21 3 -50 12 -67 12 -24 23
-30 53 -32 23 -1 44 4 55 14 20 18 23 12 8 -15 -6 -9 -21 -48 -35 -87 l-24
-70 -1 46 c0 54 -24 85 -44 58 -30 -41 -80 -45 -91 -8 -4 10 -10 19 -15 19
-19 0 -19 -20 -1 -53 31 -55 31 -83 0 -118 -16 -18 -19 -32 -14 -59 3 -19 14
-41 22 -47 22 -17 15 -22 -24 -16 -25 4 -33 10 -33 27 0 11 -5 28 -10 36 -8
13 -10 12 -10 -2 0 -28 -17 -21 -25 10 l-7 27 -13 -35 -13 -35 -1 31 c-1 17
-4 34 -8 38 -5 4 -8 25 -9 47 0 21 -3 42 -7 45 -15 15 -22 -11 -21 -78 0 -57
-2 -67 -11 -54 -7 9 -20 16 -29 16 -9 0 -16 6 -17 13 0 6 -2 26 -5 42 -2 17
-5 50 -7 75 -2 56 -18 74 -57 66 -28 -5 -30 -3 -30 24 0 16 -9 44 -20 62 -17
28 -20 51 -20 153 0 93 -4 126 -16 143 -13 20 -13 22 0 22 8 0 19 -8 24 -17z
m932 7 c0 -5 -4 -10 -10 -10 -5 0 -10 5 -10 10 0 6 5 10 10 10 6 0 10 -4 10
-10z m100 0 c0 -5 -2 -10 -4 -10 -3 0 -8 5 -11 10 -3 6 -1 10 4 10 6 0 11 -4
11 -10z m212 -12 c-7 -7 -12 -8 -12 -2 0 14 12 26 19 19 2 -3 -1 -11 -7 -17z
m178 12 c0 -5 -5 -10 -11 -10 -5 0 -7 5 -4 10 3 6 8 10 11 10 2 0 4 -4 4 -10z
m1070 0 c0 -5 -7 -10 -16 -10 -8 0 -12 5 -9 10 3 6 10 10 16 10 5 0 9 -4 9
-10z m-2760 -29 c6 -16 11 -51 10 -77 -2 -66 -1 -71 10 -54 7 11 10 7 10 -17
0 -35 -8 -41 -28 -21 -10 10 -11 6 -6 -18 5 -26 2 -32 -16 -37 -15 -4 -19 -10
-14 -18 4 -7 -8 -4 -26 7 -23 13 -37 30 -43 54 -5 19 -16 43 -24 52 -9 10 -13
24 -9 33 4 10 -2 19 -17 25 -12 5 -17 9 -11 9 7 1 15 17 18 36 8 42 27 54 87
55 42 0 48 -3 59 -29z m110 -22 c14 1 28 8 32 15 5 7 8 7 8 -3 0 -18 -29 -51
-46 -51 -7 0 -14 -6 -17 -12 -8 -23 -17 -3 -22 48 -5 44 -4 47 7 24 10 -19 19
-24 38 -21z m1930 10 c0 -5 -4 -9 -10 -9 -5 0 -10 7 -10 16 0 8 5 12 10 9 6
-3 10 -10 10 -16z m-2525 1 c3 -5 1 -10 -4 -10 -6 0 -11 5 -11 10 0 6 2 10 4
10 3 0 8 -4 11 -10z m851 -56 c27 -24 31 -36 9 -28 -8 4 -23 0 -32 -7 -14 -13
-16 -11 -11 14 3 15 1 27 -3 27 -5 0 -9 12 -9 28 1 25 1 26 12 7 6 -11 21 -30
34 -41z m1122 8 c-17 -45 -27 -40 -15 8 6 22 15 36 19 32 4 -4 2 -22 -4 -40z
m198 21 c-7 -7 -26 7 -26 19 0 6 6 6 15 -2 9 -7 13 -15 11 -17z m863 -6 c0
-21 -1 -21 -9 -2 -12 28 -12 37 0 30 6 -3 10 -16 9 -28z m-1879 13 c0 -5 -7
-10 -15 -10 -8 0 -15 5 -15 10 0 6 7 10 15 10 8 0 15 -4 15 -10z m1545 0 c3
-5 1 -10 -4 -10 -6 0 -11 5 -11 10 0 6 2 10 4 10 3 0 8 -4 11 -10z m-495 -10
c0 -5 -5 -10 -11 -10 -5 0 -7 5 -4 10 3 6 8 10 11 10 2 0 4 -4 4 -10z m-1013
-6 c-3 -3 -12 -4 -19 -1 -8 3 -5 6 6 6 11 1 17 -2 13 -5z m96 -11 c-7 -2 -19
-2 -25 0 -7 3 -2 5 12 5 14 0 19 -2 13 -5z m347 -14 c0 -5 -7 -9 -15 -9 -8 0
-15 7 -15 15 0 9 6 12 15 9 8 -4 15 -10 15 -15z m230 1 c0 -5 -5 -10 -11 -10
-5 0 -7 5 -4 10 3 6 8 10 11 10 2 0 4 -4 4 -10z m345 -6 c8 -9 22 -13 30 -10
17 6 21 -19 4 -30 -6 -3 -9 -17 -6 -30 2 -13 0 -24 -4 -24 -5 0 -9 7 -9 15 0
8 -7 15 -16 15 -28 0 -51 38 -40 66 7 18 21 18 41 -2z m880 -14 c-3 -5 -11
-10 -16 -10 -6 0 -7 5 -4 10 3 6 11 10 16 10 6 0 7 -4 4 -10z m-1318 -15 c9
-24 -1 -27 -15 -5 -8 13 -8 20 -2 20 6 0 13 -7 17 -15z m-147 -15 c4 0 11 -8
15 -17 5 -15 4 -16 -6 -5 -18 17 -46 15 -58 -5 -9 -16 -10 -16 -11 4 0 23 16
34 38 27 8 -2 17 -4 22 -4z m720 -25 c0 -5 -5 -3 -10 5 -5 8 -10 20 -10 25 0
6 5 3 10 -5 5 -8 10 -19 10 -25z m-853 11 c0 -8 10 -37 23 -63 13 -26 26 -55
30 -63 4 -8 17 -17 30 -18 19 -3 22 0 17 17 -6 23 4 26 34 11 12 -7 19 -21 19
-40 0 -15 4 -30 9 -32 12 -4 26 -258 15 -258 -5 0 -10 15 -11 33 -10 169 -16
217 -29 217 -9 0 -14 -12 -15 -32 0 -31 -1 -32 -11 -10 -7 13 -17 21 -26 17
-7 -3 -22 -5 -33 -5 -15 0 -19 -8 -20 -42 -1 -24 -5 2 -10 57 -4 55 -15 117
-23 137 -17 40 -21 88 -8 88 5 0 9 -7 9 -14z m1080 -18 c-3 -7 -5 -2 -5 12 0
14 2 19 5 13 2 -7 2 -19 0 -25z m-415 0 c-7 -7 -12 -8 -12 -2 0 14 12 26 19
19 2 -3 -1 -11 -7 -17z m938 0 c0 -13 -23 -5 -28 10 -2 7 2 10 12 6 9 -3 16
-11 16 -16z m-1355 2 c3 -5 1 -10 -4 -10 -6 0 -11 5 -11 10 0 6 2 10 4 10 3 0
8 -4 11 -10z m-78 -40 c2 -11 -2 -20 -7 -20 -6 0 -10 12 -10 27 0 29 12 24 17
-7z m403 20 c0 -5 -2 -10 -4 -10 -3 0 -8 5 -11 10 -3 6 -1 10 4 10 6 0 11 -4
11 -10z m782 -2 c22 1 27 -4 30 -26 3 -23 8 -27 41 -30 22 -2 35 -7 31 -13 -8
-14 34 -58 71 -74 26 -12 27 -13 8 -14 -12 -1 -26 -8 -31 -18 -9 -14 -10 -14
-16 5 -10 31 -22 27 -21 -5 0 -18 -5 -28 -15 -28 -8 0 -17 -11 -20 -25 -4 -15
-9 -20 -13 -13 -4 6 -17 9 -28 6 -19 -5 -20 -4 -9 16 6 13 10 25 8 27 -6 6
-58 -20 -58 -28 0 -5 -4 -8 -10 -8 -5 0 -10 6 -10 14 0 19 54 37 89 30 23 -5
29 -2 34 18 10 36 8 41 -13 35 -17 -4 -19 -1 -14 18 6 26 -11 43 -20 20 -3 -9
-18 -15 -40 -15 -37 0 -48 -14 -39 -52 4 -18 3 -20 -6 -8 -6 8 -11 53 -11 99
0 75 2 82 18 75 9 -4 29 -7 44 -6z m-715 -30 c-3 -7 -5 -2 -5 12 0 14 2 19 5
13 2 -7 2 -19 0 -25z m-140 -30 c-3 -7 -5 -2 -5 12 0 14 2 19 5 13 2 -7 2 -19
0 -25z m-927 7 c0 -8 -4 -15 -10 -15 -5 0 -10 7 -10 15 0 8 5 15 10 15 6 0 10
-7 10 -15z m-342 -40 c-2 -1 -12 1 -23 6 -11 4 -14 8 -7 8 6 1 12 9 13 19 0
12 3 10 10 -7 5 -13 8 -25 7 -26z m1362 41 c0 -3 -4 -8 -10 -11 -5 -3 -10 -1
-10 4 0 6 5 11 10 11 6 0 10 -2 10 -4z m-1265 -16 c3 -5 1 -10 -4 -10 -6 0
-11 5 -11 10 0 6 2 10 4 10 3 0 8 -4 11 -10z m1032 -12 c-3 -8 -6 -5 -6 6 -1
11 2 17 5 13 3 -3 4 -12 1 -19z m267 -12 c-5 -21 -9 -24 -20 -15 -12 10 -12
15 2 30 21 24 27 19 18 -15z m-1459 15 c3 -5 1 -12 -5 -16 -5 -3 -10 1 -10 9
0 18 6 21 15 7z m465 5 c0 -3 -4 -8 -10 -11 -5 -3 -10 -1 -10 4 0 6 5 11 10
11 6 0 10 -2 10 -4z m240 0 c0 -3 -4 -8 -10 -11 -5 -3 -10 -1 -10 4 0 6 5 11
10 11 6 0 10 -2 10 -4z m795 -16 c3 -5 1 -10 -4 -10 -6 0 -11 5 -11 10 0 6 2
10 4 10 3 0 8 -4 11 -10z m-2686 -48 c5 -18 6 -32 1 -32 -4 0 -10 10 -13 23
-2 12 -8 31 -12 42 -6 15 -5 17 4 9 6 -6 15 -25 20 -42z m287 4 c20 -20 18
-29 -12 -57 -14 -13 -30 -34 -35 -46 -12 -31 -33 -30 -27 1 3 16 0 27 -10 31
-12 4 -13 8 -4 17 7 7 12 20 12 30 0 10 5 18 10 18 6 0 10 -10 10 -22 l0 -22
21 22 c11 12 17 27 14 32 -9 15 4 12 21 -4z m2789 5 c3 -5 1 -12 -5 -16 -5 -3
-10 1 -10 9 0 18 6 21 15 7z m108 -61 c9 -11 14 -27 10 -36 -4 -12 -9 -10 -24
13 -30 45 -20 62 14 23z m-3153 -27 c0 -7 -4 -13 -10 -13 -5 0 -10 12 -10 28
0 21 2 24 10 12 5 -8 10 -21 10 -27z m3530 -4 c0 -6 -4 -7 -10 -4 -5 3 -10 11
-10 16 0 6 5 7 10 4 6 -3 10 -11 10 -16z m115 11 c3 -5 1 -10 -4 -10 -6 0 -11
5 -11 10 0 6 2 10 4 10 3 0 8 -4 11 -10z m-373 -25 c3 -13 1 -22 -3 -19 -9 5
-13 44 -5 44 2 0 6 -11 8 -25z m-3032 -25 c0 -5 -4 -10 -10 -10 -5 0 -10 5
-10 10 0 6 5 10 10 10 6 0 10 -4 10 -10z m647 -22 c-3 -7 -5 -2 -5 12 0 14 2
19 5 13 2 -7 2 -19 0 -25z m121 -63 c-5 -87 -3 -97 16 -118 l21 -22 -43 0
c-37 0 -40 2 -25 13 14 10 18 28 19 90 1 106 3 132 10 132 4 0 4 -43 2 -95z
m319 58 c-3 -10 -5 -4 -5 12 0 17 2 24 5 18 2 -7 2 -21 0 -30z m2348 8 c3 -5
1 -12 -5 -16 -5 -3 -10 1 -10 9 0 18 6 21 15 7z m-1629 -118 c-6 -6 -26 67
-25 92 0 11 7 -4 15 -34 8 -30 12 -56 10 -58z m1590 69 l13 23 1 -27 c0 -19
-5 -28 -15 -28 -9 0 -19 -10 -24 -22 -7 -19 -9 -14 -12 25 -4 45 -3 47 10 27
l14 -22 13 24z m-1175 -6 c-16 -19 6 -69 27 -61 8 3 16 -3 19 -15 3 -11 9 -20
14 -20 5 0 9 -4 9 -10 0 -5 -10 -8 -22 -6 -13 3 -31 5 -42 5 -15 1 -16 4 -7
15 9 11 8 17 -2 28 -18 18 -27 66 -13 72 22 9 28 6 17 -8z m613 -11 c3 -8 1
-15 -4 -15 -6 0 -10 7 -10 15 0 8 2 15 4 15 2 0 6 -7 10 -15z m-466 -43 c20
-31 1 -27 -22 5 -12 16 -14 24 -6 21 7 -2 20 -14 28 -26z m-940 -33 l1 -52
-18 34 c-15 27 -16 35 -5 37 8 2 14 10 14 18 0 8 1 14 3 14 2 0 4 -23 5 -51z
m862 41 c0 -5 -4 -10 -10 -10 -5 0 -10 5 -10 10 0 6 5 10 10 10 6 0 10 -4 10
-10z m430 -11 c0 -6 -4 -7 -10 -4 -5 3 -10 11 -10 16 0 6 5 7 10 4 6 -3 10
-11 10 -16z m-2710 -5 c0 -8 -4 -12 -10 -9 -5 3 -10 10 -10 16 0 5 5 9 10 9 6
0 10 -7 10 -16z m2657 -6 c-3 -8 -6 -5 -6 6 -1 11 2 17 5 13 3 -3 4 -12 1 -19z
m553 -11 c9 -3 3 -6 -12 -6 -20 -1 -28 4 -28 15 0 12 4 14 13 7 6 -6 19 -13
27 -16z m-2117 -49 c5 -15 1 -18 -22 -18 -26 0 -28 3 -28 40 l0 40 22 -22 c12
-13 24 -31 28 -40z m1032 52 c3 -5 -3 -10 -14 -10 -12 0 -21 5 -21 10 0 6 6
10 14 10 8 0 18 -4 21 -10z m195 0 c0 -5 -2 -10 -4 -10 -3 0 -8 5 -11 10 -3 6
-1 10 4 10 6 0 11 -4 11 -10z m596 0 c13 0 24 -4 24 -8 0 -12 -69 -2 -77 11
-4 7 0 8 11 4 10 -4 29 -7 42 -7z m89 0 c3 -5 2 -10 -4 -10 -5 0 -13 5 -16 10
-3 6 -2 10 4 10 5 0 13 -4 16 -10z m-1990 -45 c0 -29 -20 -28 -21 0 -1 16 3
24 10 22 6 -2 11 -12 11 -22z m-943 -2 c20 -18 24 -33 8 -33 -5 0 -10 5 -10
11 0 7 -8 18 -17 25 -10 7 -14 14 -9 14 5 0 18 -7 28 -17z m85 -5 c-3 -8 -6
-5 -6 6 -1 11 2 17 5 13 3 -3 4 -12 1 -19z m93 13 c0 -6 -4 -13 -10 -16 -5 -3
-10 1 -10 9 0 9 5 16 10 16 6 0 10 -4 10 -9z m1710 -1 c0 -5 -4 -10 -10 -10
-5 0 -10 5 -10 10 0 6 5 10 10 10 6 0 10 -4 10 -10z m-1070 -10 c0 -5 9 -10
21 -10 11 0 17 -4 14 -10 -8 -13 -52 -13 -60 0 -4 6 -11 8 -16 5 -12 -8 -31 4
-24 16 8 12 65 12 65 -1z m-600 -25 c0 -8 -4 -15 -10 -15 -5 0 -10 7 -10 15 0
8 5 15 10 15 6 0 10 -7 10 -15z m-260 -14 c0 -6 -4 -13 -10 -16 -5 -3 -10 1
-10 9 0 9 5 16 10 16 6 0 10 -4 10 -9z m140 -11 c0 -5 -7 -10 -16 -10 -8 0
-12 5 -9 10 3 6 10 10 16 10 5 0 9 -4 9 -10z"/>
<path d="M2983 2410 c-3 -12 -21 -27 -39 -35 -39 -16 -37 -39 3 -50 32 -8 61
2 73 25 6 12 17 16 30 13 12 -3 22 1 26 10 8 22 -5 41 -20 28 -8 -7 -15 -4
-24 10 -16 25 -42 24 -49 -1z"/>
<path d="M3346 2354 c-9 -24 -7 -34 8 -34 13 0 26 20 26 41 0 15 -27 10 -34
-7z"/>
<path d="M2603 2352 c-25 -4 -30 -17 -10 -25 9 -4 9 -8 -2 -15 -19 -14 2 -24
34 -16 14 3 25 11 25 18 -1 21 -25 41 -47 38z"/>
<path d="M2781 2319 c-19 -7 -22 -12 -13 -21 14 -14 16 -32 3 -23 -5 3 -12 1
-15 -4 -3 -5 1 -12 10 -15 27 -10 34 -7 34 15 0 19 2 20 16 8 15 -12 16 -11 9
11 -10 35 -17 39 -44 29z"/>
<path d="M2670 2302 c0 -5 12 -17 26 -27 25 -16 26 -16 22 7 -2 15 -11 24 -25
26 -13 2 -23 -1 -23 -6z"/>
<path d="M2981 2279 c-16 -17 -18 -26 -10 -36 9 -10 8 -13 -5 -13 -22 0 -21
-29 2 -37 9 -4 23 -13 30 -20 16 -16 58 -17 68 -2 3 6 1 16 -5 22 -6 6 -11 21
-11 34 0 13 -5 23 -11 23 -5 0 -9 10 -7 22 4 31 -25 35 -51 7z"/>
<path d="M3332 2229 c-1 -44 2 -59 11 -57 6 3 14 22 17 44 3 26 10 39 20 39 8
0 16 8 18 18 3 13 -4 17 -30 17 l-34 0 -2 -61z"/>
<path d="M2870 2260 c0 -6 -10 -15 -22 -20 -23 -9 -23 -9 3 -9 24 -1 49 15 49
31 0 4 -7 8 -15 8 -8 0 -15 -5 -15 -10z"/>
<path d="M3430 2260 c0 -6 7 -13 15 -16 19 -8 20 -24 2 -24 -17 0 -63 -48 -54
-56 3 -4 18 1 33 11 19 12 36 15 62 10 33 -6 35 -5 21 11 -8 9 -14 20 -13 23
1 3 -5 16 -14 29 -14 22 -52 31 -52 12z"/>
<path d="M3110 2190 c0 -5 4 -10 9 -10 6 0 13 5 16 10 3 6 -1 10 -9 10 -9 0
-16 -4 -16 -10z"/>
<path d="M2922 2144 c-32 -34 -42 -64 -22 -64 6 0 13 7 16 15 4 8 13 15 20 15
17 0 38 50 27 61 -5 5 -23 -7 -41 -27z"/>
<path d="M3145 2161 c-7 -13 12 -24 45 -26 22 -2 27 1 23 16 -6 20 -57 27 -68
10z"/>
<path d="M3467 2116 c-3 -8 -3 -16 0 -19 6 -7 43 15 43 25 0 14 -38 8 -43 -6z"/>
<path d="M2982 2074 c-15 -12 -13 -14 21 -15 20 -1 43 -2 50 -3 6 -1 12 6 12
14 0 19 -59 22 -83 4z"/>
<path d="M3530 2054 c-14 -36 -13 -51 2 -36 7 7 20 12 30 12 21 0 24 20 6 38
-18 18 -27 15 -38 -14z"/>
<path d="M2846 2044 c-18 -12 -18 -14 -2 -20 21 -8 38 6 28 23 -5 8 -12 8 -26
-3z"/>
<path d="M2490 2040 c0 -5 9 -10 20 -10 11 0 20 5 20 10 0 6 -9 10 -20 10 -11
0 -20 -4 -20 -10z"/>
<path d="M3200 1834 c-11 -13 -10 -16 8 -21 17 -4 20 -11 16 -28 -6 -26 5 -38
26 -25 11 7 12 14 3 32 -6 13 -14 31 -17 41 -7 21 -20 22 -36 1z"/>
<path d="M2382 1275 c0 -26 4 -45 11 -45 5 0 7 3 4 7 -4 3 0 14 8 23 16 18 10
60 -10 60 -7 0 -12 -17 -13 -45z"/>
<path d="M1796 2064 c-9 -24 -8 -26 21 -22 37 4 45 38 10 38 -14 0 -28 -7 -31
-16z"/>
<path d="M1882 2031 c-35 -33 -38 -41 -19 -60 10 -11 10 -14 0 -18 -7 -3 -13
-13 -13 -23 0 -10 -8 -21 -17 -24 -14 -6 -14 -8 5 -22 27 -19 44 -10 37 19 -3
12 1 31 9 42 15 20 15 20 16 -2 0 -13 6 -23 13 -23 11 0 47 -101 47 -135 0 -8
9 -15 19 -15 11 0 23 -4 26 -10 9 -15 35 -12 35 4 0 7 -13 23 -28 35 -21 16
-33 37 -42 77 -8 32 -22 61 -32 67 -10 7 -18 22 -18 33 0 17 -5 21 -20 17 -11
-3 -20 0 -20 6 0 6 6 11 14 11 16 0 46 26 46 41 0 18 -26 9 -58 -20z"/>
<path d="M2043 2028 c-34 -16 -30 -40 5 -32 15 4 35 11 46 16 15 8 16 12 5 19
-18 11 -28 10 -56 -3z"/>
<path d="M733 1523 c-18 -6 -16 -33 1 -33 15 0 30 27 18 33 -4 3 -13 2 -19 0z"/>
<path d="M660 1485 c0 -8 4 -15 10 -15 5 0 7 7 4 15 -4 8 -8 15 -10 15 -2 0
-4 -7 -4 -15z"/>
<path d="M700 1435 c0 -9 9 -15 25 -15 16 0 25 6 25 15 0 9 -9 15 -25 15 -16
0 -25 -6 -25 -15z"/>
<path d="M710 1365 c0 -8 -9 -19 -20 -25 -16 -8 -20 -21 -20 -58 -1 -26 -5
-66 -9 -90 -5 -24 -5 -45 1 -48 5 -3 6 -15 2 -26 -6 -19 8 -37 29 -38 4 0 8
33 8 73 1 39 4 59 6 42 8 -69 14 -95 23 -95 5 0 11 8 13 18 4 13 5 11 6 -5 0
-13 -3 -23 -9 -23 -5 0 -10 -11 -10 -25 0 -30 11 -32 35 -5 13 15 16 28 10 57
-4 21 -9 83 -12 138 -2 55 -9 105 -15 112 -14 18 -38 16 -38 -2z"/>
<path d="M3415 1430 c3 -5 10 -10 16 -10 5 0 9 5 9 10 0 6 -7 10 -16 10 -8 0
-12 -4 -9 -10z"/>
<path d="M3577 2553 c18 -2 50 -2 70 0 21 2 7 4 -32 4 -38 0 -55 -2 -38 -4z"/>
<path d="M3745 2549 c22 -6 48 -8 57 -5 28 7 34 -15 10 -35 -24 -19 -29 -49
-9 -49 23 0 37 23 37 62 l0 38 -67 -1 c-65 -1 -66 -1 -28 -10z"/>
<path d="M2652 2528 c-31 -31 -2 -58 30 -29 12 12 25 21 30 21 4 0 8 5 8 10 0
14 -54 12 -68 -2z"/>
<path d="M3677 2514 c-9 -9 22 -44 39 -44 22 0 10 45 -12 48 -11 2 -23 0 -27
-4z"/>
<path d="M1555 2450 c-8 -16 -15 -36 -15 -45 0 -21 19 -19 26 3 3 9 10 25 15
34 12 23 12 38 -1 38 -5 0 -16 -13 -25 -30z"/>
<path d="M3657 2464 c-9 -9 16 -44 30 -44 16 0 17 22 1 38 -13 13 -22 15 -31
6z"/>
<path d="M1334 2435 c-7 -29 3 -56 21 -57 12 0 7 63 -5 76 -5 5 -12 -3 -16
-19z"/>
<path d="M3737 2440 c-4 -15 0 -20 13 -20 11 0 31 -11 46 -25 34 -31 44 -32
44 0 0 19 -10 29 -40 45 -49 25 -56 25 -63 0z"/>
<path d="M1210 2439 c0 -52 76 -118 103 -90 9 10 8 16 -7 27 -11 8 -27 14 -36
14 -8 0 -21 14 -27 30 -11 29 -33 42 -33 19z"/>
<path d="M1130 2426 c-46 -20 -70 -41 -70 -58 0 -24 17 -23 30 2 6 11 21 20
34 20 28 0 64 35 44 42 -7 3 -24 0 -38 -6z"/>
<path d="M953 2423 c-7 -2 -13 -10 -13 -18 0 -7 -7 -18 -15 -25 -12 -10 -15
-9 -15 5 0 23 -22 14 -37 -15 -16 -33 -5 -45 19 -23 21 18 21 18 4 -14 -10
-20 -12 -34 -6 -38 16 -10 26 1 49 50 12 25 26 45 31 45 6 0 10 9 10 20 0 20
-5 23 -27 13z"/>
<path d="M1380 2401 c0 -12 5 -21 10 -21 6 0 10 6 10 14 0 8 -4 18 -10 21 -5
3 -10 -3 -10 -14z"/>
<path d="M1452 2404 c1 -9 9 -19 16 -22 9 -3 13 2 10 14 -1 9 -9 19 -16 22 -9
3 -13 -2 -10 -14z"/>
<path d="M790 2392 c0 -10 4 -22 8 -27 5 -6 3 -20 -3 -33 -8 -15 -15 -20 -20
-13 -9 15 -27 -4 -50 -52 -16 -34 -45 -51 -45 -27 0 6 -7 10 -15 10 -9 0 -12
-6 -9 -15 4 -8 1 -15 -5 -15 -6 0 -11 5 -11 10 0 6 -9 10 -20 10 -26 0 -25
-12 3 -38 36 -34 69 -28 100 15 23 33 27 35 27 15 0 -12 4 -22 10 -22 13 0 48
72 43 88 -3 6 0 12 5 12 12 0 24 62 16 84 -8 22 -34 20 -34 -2z m-14 -119
c-10 -10 -19 5 -10 18 6 11 8 11 12 0 2 -7 1 -15 -2 -18z"/>
<path d="M3750 2390 c0 -11 5 -20 10 -20 6 0 10 9 10 20 0 11 -4 20 -10 20 -5
0 -10 -9 -10 -20z"/>
<path d="M1006 2374 c-9 -23 -8 -24 14 -24 13 0 20 7 20 20 0 24 -25 27 -34 4z"/>
<path d="M3670 2360 c0 -13 5 -20 13 -17 6 2 12 10 12 17 0 7 -6 15 -12 18 -8
2 -13 -5 -13 -18z"/>
<path d="M723 2352 c-30 -4 -32 -42 -3 -42 20 0 36 21 28 37 -1 4 -13 7 -25 5z"/>
<path d="M348 2337 c6 -7 29 -23 51 -35 l41 -23 0 21 c0 15 -11 25 -35 36 -44
18 -72 19 -57 1z"/>
<path d="M647 2336 c-6 -15 19 -30 33 -21 13 8 1 35 -15 35 -7 0 -15 -6 -18
-14z"/>
<path d="M3810 2331 c-36 -10 -34 -45 3 -49 24 -3 27 0 27 27 0 17 -1 31 -2
30 -2 -1 -14 -4 -28 -8z"/>
<path d="M550 2310 c0 -12 7 -20 16 -20 9 0 23 -8 30 -17 12 -17 13 -16 14 8
0 29 -17 49 -42 49 -11 0 -18 -7 -18 -20z"/>
<path d="M462 2295 c3 -14 1 -25 -4 -25 -5 0 -6 -4 -3 -10 10 -16 19 -12 31
14 8 18 8 28 1 35 -19 19 -30 12 -25 -14z"/>
<path d="M635 2297 c-4 -10 -5 -21 -1 -24 10 -10 18 4 13 24 -4 17 -4 17 -12
0z"/>
<path d="M340 2275 c-7 -8 -19 -15 -26 -15 -8 0 -14 -7 -14 -17 0 -15 1 -15
18 0 10 10 26 17 35 17 9 0 17 7 17 15 0 8 -4 15 -9 15 -5 0 -14 -7 -21 -15z"/>
<path d="M870 2250 c0 -12 -7 -20 -17 -21 -15 0 -15 -2 2 -8 24 -10 60 2 60
19 0 7 -10 16 -22 21 -19 7 -23 5 -23 -11z"/>
<path d="M1 2096 c-1 -26 2 -37 9 -30 6 6 6 21 1 39 -9 30 -9 30 -10 -9z"/>
<path d="M970 2055 c0 -8 9 -15 20 -15 11 0 20 7 20 15 0 8 -9 15 -20 15 -11
0 -20 -7 -20 -15z"/>
<path d="M776 2015 c-34 -27 -28 -50 9 -33 13 6 27 18 30 26 10 27 -9 31 -39
7z"/>
<path d="M140 1825 c0 -10 10 -15 31 -15 38 0 35 22 -4 27 -19 3 -27 -1 -27
-12z"/>
<path d="M137 1743 c-2 -5 -7 -20 -11 -35 -5 -21 -3 -28 9 -28 8 0 15 5 15 10
0 6 5 10 11 10 6 0 8 -9 4 -20 -5 -14 2 -29 24 -51 31 -30 31 -30 55 -11 17
12 22 23 16 32 -9 15 -4 30 11 30 5 0 9 -9 9 -20 0 -11 5 -20 10 -20 17 0 11
40 -9 61 l-19 21 -12 -22 c-11 -20 -12 -21 -25 -4 -12 17 -13 16 -19 -4 -10
-31 -28 -28 -20 4 5 18 1 29 -12 39 -22 16 -31 18 -37 8z m88 -103 c-3 -5 -10
-10 -16 -10 -5 0 -9 5 -9 10 0 6 7 10 16 10 8 0 12 -4 9 -10z"/>
<path d="M80 1685 c0 -25 4 -35 13 -32 6 2 12 16 12 32 0 16 -6 30 -12 33 -9
2 -13 -8 -13 -33z"/>
<path d="M320 1705 c0 -7 5 -17 11 -21 7 -4 9 -21 6 -40 -4 -24 -2 -34 7 -34
16 0 27 59 15 81 -11 22 -39 32 -39 14z"/>
<path d="M196 1581 c-4 -5 -2 -12 3 -15 5 -4 12 -2 15 3 4 5 2 12 -3 15 -5 4
-12 2 -15 -3z"/>
<path d="M240 1559 c0 -5 5 -7 10 -4 6 3 10 8 10 11 0 2 -4 4 -10 4 -5 0 -10
-5 -10 -11z"/>
<path d="M145 1526 c-11 -6 -21 -12 -23 -13 -8 -4 20 -43 31 -43 29 1 38 16
25 42 -11 21 -17 23 -33 14z"/>
<path d="M1990 1221 c0 -6 -13 -25 -30 -43 -35 -38 -37 -64 -10 -118 19 -37
50 -55 50 -29 0 8 5 8 15 -1 12 -10 16 -9 21 4 3 9 4 27 2 41 -3 13 -1 26 3
27 11 4 -31 128 -42 128 -5 0 -9 -4 -9 -9z"/>
<path d="M2070 814 c-12 -13 -7 -15 40 -12 31 2 55 8 58 16 6 19 -82 16 -98
-4z"/>
<path d="M1834 811 c-2 -2 -4 -11 -4 -18 0 -11 15 -13 63 -11 34 2 62 8 62 13
0 10 -112 25 -121 16z"/>
<path d="M2300 800 c0 -5 -10 -20 -22 -32 -20 -20 -21 -23 -6 -26 20 -4 78 25
78 38 0 6 -7 10 -15 10 -8 0 -15 5 -15 10 0 6 -4 10 -10 10 -5 0 -10 -4 -10
-10z"/>
<path d="M2221 785 c0 -12 -6 -26 -12 -32 -8 -8 -7 -13 1 -18 18 -11 27 7 19
40 -4 20 -7 23 -8 10z"/>
<path d="M3450 573 c-96 -4 -129 -11 -109 -24 19 -12 499 -12 499 1 0 30 -64
34 -390 23z"/>
<path d="M260 465 c-52 -7 -108 -18 -123 -24 -16 -6 -39 -11 -53 -11 -14 0
-24 -6 -24 -14 0 -8 -8 -17 -17 -20 -15 -6 -15 -8 -3 -16 22 -14 38 -12 59 9
18 18 74 34 161 46 70 9 121 25 115 35 -4 6 -9 10 -13 9 -4 -1 -50 -7 -102
-14z"/>
</g>
</svg>
