<?xml version="1.0" standalone="no"?>
<!DOCTYPE svg PUBLIC "-//W3C//DTD SVG 20010904//EN"
 "http://www.w3.org/TR/2001/REC-SVG-20010904/DTD/svg10.dtd">
<svg version="1.0" xmlns="http://www.w3.org/2000/svg"
 width="344.000000pt" height="256.000000pt" viewBox="0 0 344.000000 256.000000"
 preserveAspectRatio="xMidYMid meet">
<metadata>
Created by potrace 1.16, written by Peter Selinger 2001-2019
</metadata>
<g transform="translate(0.000000,256.000000) scale(0.100000,-0.100000)"
fill="#000000" stroke="none">
<path d="M400 2510 c-59 -91 -94 -238 -79 -330 5 -30 5 -58 1 -61 -4 -4 -67
-9 -140 -10 -155 -4 -147 -9 -167 105 l-13 71 -1 -77 c-1 -42 3 -79 8 -82 4
-3 11 -18 14 -33 l6 -28 153 3 c108 3 150 1 143 -7 -6 -6 -73 -12 -168 -13
-139 -3 -157 -5 -157 -20 0 -22 30 -24 203 -17 104 4 141 9 148 20 6 8 7 46 3
94 -15 168 4 261 78 372 31 46 35 63 14 63 -8 0 -28 -23 -46 -50z"/>
<path d="M895 2528 c9 -18 20 -41 26 -51 8 -15 6 -17 -15 -11 -19 4 -28 0 -41
-20 -10 -14 -25 -26 -34 -26 -18 -1 -52 -30 -122 -106 -33 -36 -49 -62 -54
-92 -3 -22 -13 -46 -21 -53 -18 -15 -18 -49 -1 -49 16 0 57 79 57 110 0 13 13
34 31 49 17 14 45 41 62 59 17 17 36 32 43 32 7 0 26 11 42 25 17 14 35 25 40
25 18 0 82 -83 82 -106 0 -28 -37 -52 -86 -56 -47 -4 -55 -31 -11 -36 32 -4
34 -13 6 -30 -18 -12 -24 -11 -43 7 -24 23 -46 27 -46 10 0 -19 63 -79 83 -79
10 0 20 8 24 18 14 44 47 105 50 95 3 -7 -3 -25 -11 -42 -20 -38 -20 -72 -1
-97 8 -10 15 -25 15 -31 0 -20 -61 -16 -75 4 -12 15 -15 14 -44 -15 -29 -29
-55 -102 -37 -102 20 0 46 23 46 40 0 25 13 32 45 24 29 -7 28 -30 -1 -27 -28
2 -34 -17 -18 -56 13 -31 13 -36 -3 -53 -9 -11 -25 -17 -34 -15 -9 3 -23 1
-30 -4 -11 -7 -12 -12 -2 -28 11 -17 10 -21 -7 -26 -24 -8 -94 45 -109 84 -7
14 -28 39 -47 55 -22 18 -47 53 -65 93 -33 74 -35 83 -15 83 26 0 27 32 2 57
-32 32 -46 23 -46 -30 l-1 -42 -25 29 c-19 21 -24 35 -19 54 7 27 55 91 55 73
0 -5 6 -16 13 -23 8 -7 20 -26 28 -42 18 -38 35 -43 44 -14 5 13 3 24 -4 26
-6 2 -11 8 -11 14 0 5 -9 21 -20 35 -11 14 -20 39 -20 55 0 21 -6 31 -20 35
-11 3 -20 9 -20 14 0 5 -4 9 -9 9 -5 0 -11 -17 -15 -39 -3 -21 -17 -63 -31
-92 -14 -30 -25 -63 -25 -74 0 -25 56 -95 76 -95 8 0 22 -16 30 -36 13 -32 13
-41 0 -89 -13 -44 -21 -55 -48 -66 -18 -7 -63 -42 -101 -78 -37 -35 -70 -61
-74 -57 -4 4 -9 36 -11 71 -6 84 -22 74 -22 -14 0 -59 -3 -70 -24 -88 -31 -27
-48 -32 -125 -34 -51 -2 -69 -7 -92 -26 -25 -22 -29 -32 -29 -77 0 -29 6 -66
14 -82 8 -16 22 -75 31 -132 l17 -103 -24 -32 c-42 -56 -68 -107 -68 -134 0
-21 2 -23 15 -13 8 6 17 21 21 33 7 23 36 68 67 103 16 19 17 29 7 110 -6 49
-17 127 -25 174 -19 110 -19 117 5 130 19 10 19 8 14 -34 -4 -25 -1 -66 6 -93
7 -26 15 -86 19 -133 3 -47 11 -85 16 -85 6 0 12 38 15 85 5 77 28 177 51 222
5 10 9 25 9 33 0 8 5 15 11 15 6 0 28 14 49 30 21 17 43 30 49 30 24 0 70 30
76 50 3 11 11 20 17 20 15 0 64 -39 126 -102 32 -31 77 -66 102 -78 25 -12 50
-25 56 -28 56 -34 109 -73 160 -118 53 -46 64 -52 74 -39 8 9 10 27 5 47 -3
18 -10 65 -14 103 -5 45 -19 95 -39 138 -30 65 -35 117 -11 117 10 0 49 83 49
105 0 9 11 36 25 59 l25 43 110 7 c61 4 116 4 123 -1 6 -4 89 -11 182 -15 367
-16 470 -25 510 -40 59 -23 229 -68 410 -108 44 -10 132 -32 195 -49 183 -51
208 -55 224 -41 16 13 16 74 0 89 -5 5 -56 25 -114 44 l-105 34 1 59 c0 33 5
127 12 209 25 321 26 345 10 345 -12 0 -16 -24 -22 -117 -12 -234 -19 -303
-28 -303 -5 0 -28 10 -51 22 -33 17 -56 21 -112 19 -52 -2 -79 2 -105 16 -44
22 -280 36 -287 16 -10 -27 11 -33 115 -33 72 -1 120 -6 147 -17 22 -8 81 -19
130 -24 50 -4 108 -15 128 -24 l37 -15 0 -70 c0 -41 -4 -70 -10 -70 -6 0 -27
7 -47 15 -20 9 -71 22 -112 29 -42 8 -96 19 -121 24 -25 6 -94 20 -155 32 -60
12 -120 24 -132 27 -18 4 -25 -1 -33 -22 l-10 -27 -153 6 c-212 10 -459 24
-539 32 -58 5 -68 8 -68 25 0 17 -8 19 -65 19 -76 0 -89 14 -62 62 9 17 17 38
17 47 0 10 8 33 17 52 10 19 18 56 18 83 0 45 -3 51 -46 90 -25 22 -51 56 -59
74 -8 20 -19 32 -31 32 -19 0 -19 -2 -4 -32z m95 -123 c7 -9 8 -15 2 -15 -5 0
-12 7 -16 15 -3 8 -4 15 -2 15 2 0 9 -7 16 -15z m104 -326 c-3 -5 -26 -9 -52
-8 -31 0 -41 3 -28 8 27 10 87 11 80 0z m962 -62 c27 -8 83 -20 124 -26 102
-15 276 -59 326 -81 23 -11 69 -25 103 -33 33 -8 73 -23 88 -33 l28 -19 -33
-3 c-17 -2 -76 10 -130 26 -53 17 -115 33 -137 37 -22 3 -60 12 -85 20 -46 14
-234 61 -305 75 -68 14 -118 34 -123 49 -4 11 5 13 45 8 28 -3 72 -12 99 -20z
m-1446 -94 c8 -29 23 -46 62 -73 29 -19 70 -52 91 -73 22 -20 51 -43 65 -50
15 -7 30 -25 35 -42 5 -17 15 -43 23 -58 8 -16 14 -51 14 -78 0 -28 5 -59 10
-70 15 -27 8 -24 -33 14 -19 19 -57 48 -84 65 -26 17 -54 37 -62 43 -7 6 -38
24 -70 39 -31 15 -74 48 -96 72 -22 24 -53 53 -70 65 -25 18 -28 25 -19 40 6
10 29 27 50 38 30 15 42 30 54 63 8 23 15 42 17 42 1 0 7 -17 13 -37z m-433
-280 c-14 -4 -17 -11 -12 -32 6 -30 -9 -81 -24 -81 -15 0 -19 59 -4 72 7 6 11
19 8 29 -5 16 -1 19 22 18 18 -1 21 -3 10 -6z"/>
<path d="M1796 2394 c-3 -9 -6 -37 -6 -63 0 -26 -3 -90 -7 -141 l-6 -92 -101
6 c-56 3 -185 11 -288 18 l-188 11 0 83 c0 86 -6 118 -21 108 -5 -3 -9 -48 -9
-100 0 -132 -4 -130 185 -138 83 -4 212 -12 288 -18 116 -9 141 -8 152 3 16
17 33 339 17 339 -5 0 -13 -7 -16 -16z"/>
<path d="M1310 2251 c-31 -21 9 -30 170 -34 91 -2 175 -8 188 -12 16 -5 22 -3
22 6 0 33 -42 42 -205 46 -98 3 -166 0 -175 -6z"/>
<path d="M164 2239 c-10 -17 17 -30 50 -24 16 3 41 5 57 5 19 0 29 5 29 15 0
12 -14 15 -64 15 -37 0 -68 -5 -72 -11z"/>
<path d="M1702 2205 c3 -29 31 -55 45 -42 9 10 -17 59 -35 65 -10 3 -13 -4
-10 -23z"/>
<path d="M1052 2201 c-16 -10 -13 -42 4 -48 15 -5 46 26 41 41 -5 14 -28 18
-45 7z"/>
<path d="M2710 2106 c0 -9 11 -18 28 -22 15 -3 59 -14 97 -25 130 -34 150 -39
250 -59 55 -12 129 -28 165 -35 97 -21 170 -28 170 -17 0 20 -30 33 -107 46
-69 13 -257 55 -458 103 -106 25 -145 28 -145 9z"/>
<path d="M2576 2102 c-9 -14 19 -34 62 -43 20 -4 82 -24 137 -44 55 -20 125
-42 155 -49 30 -8 98 -25 150 -39 163 -42 307 -70 324 -64 19 8 21 26 4 31
-84 23 -191 46 -209 46 -22 0 -127 29 -199 55 -19 7 -44 13 -55 13 -11 1 -76
20 -145 42 -69 23 -134 43 -145 46 -11 2 -32 6 -47 9 -14 4 -29 2 -32 -3z"/>
<path d="M3432 1870 c0 -14 2 -19 5 -12 2 6 2 18 0 25 -3 6 -5 1 -5 -13z"/>
<path d="M2043 1738 c-4 -7 -10 -66 -13 -130 -4 -100 -8 -119 -24 -131 -21
-15 -13 -42 10 -33 8 3 14 1 14 -3 0 -5 -5 -11 -12 -13 -22 -8 1 -38 28 -38
25 0 26 2 19 33 -9 35 -8 230 1 290 6 37 -7 50 -23 25z"/>
<path d="M1075 1718 c-4 -9 -4 -22 0 -27 3 -6 10 -61 15 -121 7 -84 15 -125
35 -167 21 -46 23 -58 13 -71 -7 -8 -16 -56 -20 -106 -9 -122 -12 -134 -40
-186 -39 -75 -61 -148 -55 -189 4 -36 3 -37 -34 -49 -21 -7 -60 -12 -86 -12
-115 -1 -161 -31 -216 -143 -31 -64 -48 -187 -26 -187 51 0 233 49 332 89 43
17 82 31 87 31 4 0 11 -24 15 -52 4 -29 21 -82 38 -118 26 -53 32 -77 31 -130
0 -36 -7 -84 -14 -107 -10 -30 -11 -51 -5 -70 6 -14 12 -25 15 -23 3 2 14 -1
25 -7 25 -14 49 1 60 37 4 14 13 32 20 40 21 26 25 49 10 64 -11 10 -12 21 -6
38 4 13 6 28 4 34 -2 6 12 25 32 42 24 23 37 44 41 72 4 22 10 40 15 40 4 0
15 -18 25 -40 19 -42 34 -52 34 -23 0 31 13 3 70 -145 81 -209 92 -232 112
-232 20 0 20 -1 -25 100 -8 19 -36 89 -62 155 -66 171 -64 166 -85 172 -32 9
-87 139 -103 246 -6 40 21 50 107 40 71 -8 80 -14 90 -64 7 -35 111 -143 156
-162 77 -34 158 -58 218 -64 52 -5 66 -10 81 -32 30 -41 41 -97 47 -221 6
-129 17 -170 45 -170 23 0 24 9 5 36 -10 13 -16 54 -18 117 -2 53 -2 97 0 97
1 0 43 -20 92 -45 87 -43 90 -46 90 -79 0 -18 7 -39 15 -46 8 -7 15 -21 15
-32 0 -10 4 -17 10 -13 5 3 7 12 3 20 -3 9 1 15 8 15 20 0 32 -11 48 -43 16
-30 48 -39 36 -9 -3 9 -9 30 -12 45 -3 15 -14 32 -24 38 -11 5 -19 8 -19 5 0
-3 -13 0 -30 5 -16 6 -30 15 -30 20 0 13 12 11 53 -6 50 -21 57 -19 57 14 0
26 -4 29 -40 34 -23 3 -93 31 -156 62 -103 50 -117 61 -131 93 -8 21 -20 40
-27 44 -8 5 -6 17 8 42 10 19 16 41 13 49 -3 8 11 33 31 56 29 33 54 48 118
70 49 18 91 27 108 24 23 -5 27 -3 24 13 -3 15 -12 19 -49 18 -76 0 -159 -32
-208 -81 -25 -24 -54 -43 -64 -43 -17 0 -19 5 -13 39 7 45 -1 51 -72 51 -78 0
-247 67 -258 102 -5 18 -25 24 -37 12 -4 -4 1 -20 11 -36 27 -46 168 -108 264
-115 45 -4 57 -9 61 -24 6 -23 5 -23 -108 -3 -50 9 -112 27 -140 42 -48 25
-168 132 -149 132 14 0 47 67 40 79 -11 18 -21 13 -40 -20 l-19 -32 -102 6
c-97 5 -104 5 -158 -23 -31 -15 -70 -31 -87 -35 -16 -4 -32 -10 -34 -14 -8
-12 -185 -97 -251 -120 -62 -22 -215 -54 -222 -47 -10 10 11 78 41 131 46 83
71 99 169 106 101 8 171 24 200 44 12 8 31 15 42 15 11 0 29 6 40 14 11 7 65
23 120 36 55 12 125 32 155 45 30 13 63 26 73 29 18 6 24 36 7 36 -5 0 -10 6
-10 14 0 8 -5 18 -10 21 -16 10 -58 -21 -56 -41 1 -17 -11 -22 -94 -45 -78
-21 -120 -27 -112 -15 12 20 2 199 -14 224 l-14 22 77 1 c43 1 82 1 87 0 5 -1
12 3 16 9 4 6 33 21 64 34 50 21 61 30 77 66 11 23 19 48 19 56 0 25 38 15 63
-18 22 -27 31 -31 69 -30 33 2 49 -3 63 -18 9 -10 31 -24 49 -29 39 -13 187
-18 204 -7 6 4 12 3 12 -3 0 -6 -15 -18 -32 -28 -25 -14 -54 -18 -124 -17
-111 1 -140 8 -147 34 -8 30 -34 24 -45 -9 -6 -16 -20 -39 -32 -51 -23 -23
-41 -21 -107 6 -6 3 -21 -5 -32 -17 l-21 -23 0 22 c0 13 -6 22 -15 22 -9 0
-15 -9 -15 -22 -1 -21 -2 -21 -11 -5 -13 22 -39 22 -39 -1 0 -33 22 -42 100
-42 96 0 150 9 150 25 0 11 41 45 53 45 2 0 3 -10 3 -22 -1 -14 6 -24 17 -26
15 -3 18 0 12 18 -5 16 -4 20 5 15 6 -4 58 -7 116 -7 126 1 168 17 198 74 11
21 16 41 12 45 -3 4 -56 6 -116 4 -124 -2 -165 9 -199 57 -33 47 -26 97 9 62
10 -10 47 -22 86 -29 95 -16 104 -20 104 -41 0 -16 18 -30 41 -30 5 0 9 11 9
24 0 35 -45 63 -123 76 -37 7 -67 14 -67 17 0 3 32 3 70 1 68 -5 96 7 48 20
-23 6 -23 6 2 12 14 3 25 12 25 20 0 9 -11 16 -25 18 -57 6 -70 13 -70 33 0
19 -4 20 -42 14 -54 -9 -62 -16 -90 -73 l-23 -47 -7 45 c-3 25 -7 86 -8 135
-1 85 -2 91 -27 109 -14 10 -46 21 -72 24 -25 2 -52 9 -60 15 -32 26 -264 -6
-293 -40 -7 -9 -12 -40 -10 -80 1 -36 -3 -74 -9 -85 -21 -39 -13 -85 18 -112
15 -13 26 -26 23 -29 -10 -9 -66 -15 -75 -9 -23 16 -57 105 -62 160 l-6 60 39
-2 39 -1 3 44 c5 66 -42 107 -70 62 -11 -18 -13 -17 -29 17 -13 30 -18 34 -24
20z m352 -34 c-3 -3 -12 -4 -19 -1 -8 3 -5 6 6 6 11 1 17 -2 13 -5z m-80 -25
c-9 -6 -15 -15 -11 -20 7 -11 134 -1 149 12 13 13 94 10 135 -4 l35 -12 5
-110 c3 -60 4 -115 2 -120 -4 -16 -82 -36 -140 -37 -29 0 -58 -6 -65 -13 -9
-9 -35 -11 -90 -7 -71 4 -78 7 -83 28 -3 13 -4 34 -1 47 8 29 -6 52 -27 44
-26 -10 -19 21 11 49 23 21 25 28 15 42 -41 58 -34 87 24 98 19 3 37 11 40 16
3 5 9 6 12 3 4 -4 -1 -11 -11 -16z m-177 -31 c0 -30 -1 -31 -19 -14 -16 14
-17 21 -8 32 19 21 27 16 27 -18z m680 -183 c20 -21 21 -25 6 -25 -9 0 -31 7
-49 17 -29 15 -30 17 -12 24 29 11 29 11 55 -16z m-160 -137 c0 -15 -23 -8
-36 10 -21 27 -16 34 11 15 13 -10 25 -21 25 -25z m-160 12 c0 -12 -30 -80
-35 -80 -2 0 -2 13 1 30 5 22 2 31 -10 36 -26 10 -18 23 14 22 17 -1 30 -4 30
-8z m-115 -19 c41 -14 50 -22 50 -41 0 -23 -3 -26 -68 -54 -42 -18 -182 -22
-192 -6 -11 18 -35 11 -35 -10 0 -11 11 -38 25 -60 21 -33 25 -52 25 -115 0
-41 -4 -75 -9 -75 -5 0 -32 -14 -60 -31 -42 -26 -51 -37 -51 -60 0 -25 -3 -27
-22 -20 -15 5 -24 18 -26 35 -3 21 1 26 19 26 28 0 89 57 89 82 0 26 -13 22
-43 -12 -24 -27 -47 -39 -47 -25 0 16 34 83 56 112 20 26 23 37 15 47 -8 10
-8 22 -1 40 5 15 10 58 10 95 0 61 2 69 23 79 36 18 185 14 242 -7z m-245
-435 c0 -2 -7 -7 -16 -10 -8 -3 -12 -2 -9 4 6 10 25 14 25 6z m133 -213 c3
-21 10 -68 17 -104 11 -58 10 -70 -4 -101 -9 -19 -28 -41 -41 -48 -29 -15 -39
-38 -25 -55 7 -9 6 -16 -5 -25 -22 -18 -33 -5 -78 93 -36 76 -36 77 -13 77 42
0 86 68 86 132 0 33 24 68 45 68 7 0 15 -17 18 -37z m-93 -30 c-13 -86 -37
-110 -74 -74 -19 20 -19 21 -1 55 10 19 32 41 49 49 17 9 31 16 32 16 0 1 -3
-20 -6 -46z m378 7 c17 -27 10 -25 -19 6 -13 14 -17 23 -9 19 9 -3 21 -14 28
-25z m118 -88 c27 -11 91 -27 142 -37 63 -12 92 -22 92 -31 0 -18 -32 -18
-105 1 -69 18 -186 70 -197 88 -13 20 -8 33 6 15 7 -9 35 -25 62 -36z m294
-77 c0 -8 -6 -15 -14 -15 -17 0 -28 14 -19 24 12 12 33 6 33 -9z m-757 -294
c-6 -3 -14 -19 -20 -36 -6 -19 -17 -31 -31 -33 -20 -3 -22 1 -22 37 0 39 2 41
29 41 17 0 33 5 37 12 6 9 9 9 12 -1 2 -7 0 -16 -5 -20z"/>
<path d="M2130 1626 c-11 -31 -33 -397 -24 -419 3 -9 14 -19 25 -22 10 -4 19
-12 19 -19 0 -7 15 -33 33 -57 19 -24 34 -51 34 -59 0 -8 4 -23 8 -32 6 -15 2
-16 -27 -12 -37 5 -65 -15 -107 -76 -36 -52 -50 -61 -72 -47 -15 9 -21 8 -33
-8 -19 -26 -9 -48 18 -41 11 3 31 6 43 6 15 0 33 14 53 43 60 83 55 80 128 73
43 -5 83 -16 112 -32 25 -14 53 -27 64 -30 32 -6 103 -72 109 -100 10 -56 -5
-77 -72 -101 -34 -12 -66 -24 -69 -28 -10 -10 21 -25 38 -19 8 4 32 10 54 14
40 8 56 23 56 53 0 9 5 17 10 17 19 0 11 -59 -10 -72 -29 -18 -25 -44 8 -51
15 -3 66 -29 115 -56 48 -28 89 -51 92 -51 3 0 5 8 5 18 0 13 -24 33 -72 62
-40 24 -76 48 -80 53 -4 6 -10 34 -13 62 -4 27 -13 57 -20 65 -7 8 -15 32 -19
52 -4 24 -18 47 -41 67 l-35 31 27 5 c16 4 36 11 46 16 15 8 24 5 44 -16 35
-35 69 -42 93 -20 26 23 25 31 -5 60 -26 27 -64 32 -98 13 -12 -6 -41 -10 -63
-9 -23 1 -45 -2 -49 -8 -3 -6 -15 -11 -25 -11 -19 0 -19 1 0 54 17 50 17 66 0
66 -6 0 -31 -52 -44 -93 -5 -17 -8 -17 -43 2 -21 11 -53 33 -72 49 l-35 29 22
28 c25 31 29 75 8 75 -8 0 -17 -11 -20 -25 -7 -27 -26 -35 -26 -10 0 8 -9 19
-20 25 -11 6 -20 21 -20 35 0 13 -10 31 -25 42 l-25 18 8 172 c4 95 10 175 14
178 3 3 34 -1 69 -9 35 -8 66 -13 68 -11 12 13 -14 35 -51 45 -24 7 -55 19
-71 27 -26 13 -28 13 -37 -11z m506 -691 c10 -8 14 -15 7 -15 -19 0 -43 11
-43 21 0 13 14 11 36 -6z"/>
<path d="M2843 1628 c-10 -14 -28 -120 -39 -229 l-6 -66 37 -17 c20 -10 51
-20 70 -23 41 -7 48 5 63 107 27 179 23 207 -27 212 -33 4 -37 -16 -6 -30 18
-8 25 -19 25 -39 0 -31 -29 -206 -36 -212 -2 -2 -24 4 -49 14 l-46 17 6 57
c10 91 28 181 37 181 4 0 8 9 8 20 0 22 -22 27 -37 8z"/>
<path d="M2329 1583 c-15 -4 -26 -20 -50 -80 -6 -16 -15 -36 -20 -45 -13 -25
-11 -28 10 -28 13 0 24 14 36 48 21 55 34 74 46 66 5 -3 9 -18 9 -33 0 -15 4
-31 9 -36 5 -6 11 -21 13 -35 l4 -25 14 30 c13 28 14 29 17 8 6 -30 31 -29 38
0 4 13 5 27 4 33 -6 31 2 45 24 42 17 -2 22 -10 22 -31 0 -17 7 -32 18 -38 9
-6 24 -26 32 -46 13 -30 19 -35 40 -31 14 3 25 2 25 -2 0 -9 -73 -29 -120 -32
-23 -2 -35 -8 -35 -18 0 -8 -10 -16 -22 -18 -32 -5 -29 -32 3 -32 17 0 28 6
31 20 3 11 8 20 12 20 11 0 53 -31 88 -63 19 -18 38 -27 47 -24 26 10 18 34
-14 47 -45 19 -45 27 -2 49 42 21 57 52 41 82 -7 14 -17 17 -37 13 -24 -5 -29
-2 -40 30 -8 20 -20 36 -29 36 -11 0 -14 6 -9 23 7 29 -11 54 -45 62 -28 7
-59 -15 -59 -40 0 -27 -20 -25 -35 4 -17 33 -41 50 -66 44z"/>
<path d="M6 1435 c12 -137 17 -175 24 -175 24 0 20 127 -5 165 -7 12 -15 30
-18 40 -3 11 -4 -2 -1 -30z"/>
<path d="M2240 1393 c0 -5 7 -19 16 -31 12 -18 13 -22 1 -22 -7 0 -20 -12 -28
-27 -8 -16 -20 -32 -26 -36 -15 -9 -18 -77 -4 -77 5 0 14 15 20 33 6 17 26 44
44 59 29 22 34 32 33 65 -2 34 -5 38 -29 41 -15 2 -27 0 -27 -5z"/>
<path d="M154 1245 c-4 -8 -3 -26 0 -40 4 -14 2 -25 -4 -25 -17 0 -11 -30 8
-37 21 -7 52 -33 52 -44 0 -4 -14 -4 -31 1 -37 11 -44 -2 -36 -69 4 -33 2 -48
-6 -49 -7 -1 -40 -5 -75 -8 -52 -5 -62 -9 -62 -25 0 -22 28 -24 100 -8 25 6
73 10 107 9 33 -1 64 3 67 9 13 21 -45 196 -69 204 -7 3 -16 26 -19 51 -7 46
-21 60 -32 31z m56 -190 c12 4 19 -1 24 -17 11 -43 8 -49 -26 -46 -31 3 -33 5
-36 48 -2 36 0 41 9 27 6 -11 17 -16 29 -12z"/>
<path d="M2301 1224 c-12 -20 -20 -43 -17 -51 7 -18 26 -7 26 15 0 10 10 22
23 27 26 12 30 38 6 43 -10 2 -25 -11 -38 -34z"/>
<path d="M2378 1219 c-10 -5 -18 -16 -18 -23 0 -22 38 -49 60 -43 23 6 28 -8
5 -17 -8 -3 -15 -13 -16 -23 0 -14 -2 -12 -10 5 -10 26 -32 25 -37 0 -4 -20
36 -58 53 -52 7 3 15 14 18 25 3 11 19 24 36 30 23 8 31 17 31 34 0 18 10 27
45 41 25 9 45 21 45 26 0 15 -89 0 -132 -22 -37 -19 -37 -19 -40 2 -4 26 -17
31 -40 17z"/>
<path d="M2325 1160 c-3 -5 -3 -15 0 -20 4 -6 1 -17 -5 -25 -12 -15 -6 -35 11
-35 5 0 9 8 9 18 0 10 5 23 11 29 13 13 5 43 -10 43 -5 0 -13 -4 -16 -10z"/>
<path d="M2551 1151 c-6 -11 -11 -31 -11 -45 0 -14 -4 -26 -8 -26 -10 0 -42
-65 -42 -86 0 -31 26 -6 58 56 32 65 40 104 23 115 -6 3 -15 -3 -20 -14z"/>
<path d="M1377 1063 c-12 -43 -5 -83 15 -94 26 -14 31 -8 18 25 -5 15 -10 38
-10 51 0 29 -17 42 -23 18z"/>
<path d="M1693 1043 c-9 -18 -9 -31 -2 -45 15 -27 35 -16 31 18 -5 46 -16 56
-29 27z"/>
<path d="M2367 1043 c-13 -12 -7 -33 8 -33 8 0 15 9 15 20 0 20 -11 26 -23 13z"/>
<path d="M1812 1003 c3 -15 15 -18 74 -19 38 -1 88 -7 109 -13 40 -11 63 -3
51 18 -11 18 -78 31 -159 31 -69 0 -78 -2 -75 -17z"/>
<path d="M1553 994 c-7 -19 -3 -22 35 -30 43 -9 44 20 2 35 -25 8 -32 7 -37
-5z"/>
<path d="M1640 950 c0 -15 49 -32 71 -25 11 4 19 13 19 21 0 10 -13 14 -45 14
-25 0 -45 -5 -45 -10z"/>
<path d="M1774 945 c-9 -23 5 -35 39 -35 l32 0 -29 25 c-34 29 -35 29 -42 10z"/>
<path d="M265 910 c-11 -5 -47 -9 -80 -10 -86 -3 -119 -12 -123 -34 -3 -16 1
-18 45 -12 26 3 83 8 125 11 73 6 79 5 100 -18 52 -55 69 -81 64 -94 -4 -8 -6
-19 -6 -24 0 -15 -52 -10 -70 6 -21 19 -71 24 -77 8 -5 -15 87 -63 120 -63 14
0 30 7 37 15 17 20 24 19 59 -11 48 -40 41 -50 -41 -58 -86 -9 -158 -25 -158
-37 0 -14 35 -19 70 -9 19 6 57 10 85 10 27 0 57 4 65 9 23 15 27 5 20 -43 -4
-25 -3 -49 1 -53 4 -4 9 -23 11 -42 2 -19 11 -39 20 -45 23 -14 32 -2 18 25
-7 12 -15 68 -19 123 -7 116 -21 147 -77 171 -21 8 -33 19 -29 25 13 22 -99
161 -128 159 -7 0 -21 -4 -32 -9z"/>
<path d="M1893 903 c-18 -6 -16 -30 3 -37 26 -10 34 -7 34 13 0 20 -17 31 -37
24z"/>
<path d="M2741 860 c-14 -66 -14 -93 1 -88 6 2 17 31 24 64 16 76 16 74 0 74
-9 0 -18 -19 -25 -50z"/>
<path d="M1735 890 c-3 -5 -17 -10 -31 -10 -31 0 -31 -20 1 -50 21 -20 27 -21
40 -10 15 12 14 15 -7 32 l-23 18 23 0 c12 0 22 4 22 9 0 15 -18 23 -25 11z"/>
<path d="M1 845 c-1 -27 11 -104 25 -170 14 -66 32 -155 39 -197 8 -42 26
-121 39 -175 14 -54 31 -129 37 -168 6 -38 19 -83 28 -100 l16 -30 3 29 c2 15
-1 40 -6 55 -6 14 -13 44 -16 66 -4 22 -20 101 -37 175 -36 162 -61 279 -90
420 -27 136 -37 161 -38 95z"/>
<path d="M1580 845 c0 -32 73 -76 99 -60 20 12 11 23 -39 49 -58 30 -60 31
-60 11z"/>
<path d="M2312 843 c3 -19 48 -32 48 -14 0 10 -31 31 -45 31 -4 0 -5 -8 -3
-17z"/>
<path d="M2811 811 c-6 -10 -13 -37 -17 -60 -4 -22 -9 -41 -13 -41 -8 0 -15
-78 -15 -170 1 -64 5 -84 31 -135 37 -72 124 -162 184 -191 69 -34 175 -64
224 -64 39 0 47 4 57 25 12 28 -2 55 -31 55 -54 1 -196 63 -273 121 -44 33
-56 50 -92 132 -24 55 -22 139 4 155 11 7 20 22 20 33 0 19 -2 20 -17 8 -15
-13 -15 -12 -4 9 7 13 19 26 27 29 8 3 14 19 14 38 0 27 -6 37 -34 54 -41 26
-53 26 -65 2z m69 -53 c0 -16 -32 -37 -47 -31 -16 6 -17 35 -1 51 13 13 48 -1
48 -20z m-50 -99 c-16 -30 -6 -154 17 -216 11 -29 31 -66 44 -82 35 -42 148
-116 208 -136 54 -18 70 -32 24 -20 -190 47 -333 196 -333 348 0 58 23 127 41
127 6 0 5 -9 -1 -21z"/>
<path d="M3170 631 c0 -11 12 -23 30 -31 34 -14 97 -75 106 -103 8 -26 -10
-41 -40 -33 -16 4 -28 16 -32 30 -8 33 -44 64 -82 72 -27 6 -33 3 -41 -18 -9
-24 -27 -44 -46 -49 -14 -5 -6 -31 13 -46 22 -18 103 -8 119 13 10 14 14 12
28 -16 15 -29 19 -31 63 -28 l47 3 -2 48 c-2 63 -37 116 -99 151 -55 31 -64
32 -64 7z m-6 -126 c3 -10 -1 -15 -12 -15 -10 0 -23 -5 -30 -12 -8 -8 -12 -9
-12 -1 0 13 28 43 40 43 4 0 10 -7 14 -15z"/>
<path d="M373 518 c-54 -17 -41 -36 20 -30 58 5 91 18 82 33 -8 12 -60 10
-102 -3z"/>
<path d="M3000 485 c0 -31 27 -75 46 -75 19 0 18 8 -8 58 -26 48 -38 53 -38
17z"/>
<path d="M160 445 c0 -24 5 -35 15 -35 10 0 15 11 15 35 0 24 -5 35 -15 35
-10 0 -15 -11 -15 -35z"/>
<path d="M2930 456 c0 -9 5 -16 10 -16 6 0 10 4 10 9 0 6 -4 13 -10 16 -5 3
-10 -1 -10 -9z"/>
<path d="M2580 400 c0 -15 51 -90 61 -90 17 0 9 34 -17 67 -25 33 -44 43 -44
23z"/>
<path d="M1756 354 c-3 -9 -6 -23 -6 -32 0 -30 125 -322 138 -322 20 0 14 21
-42 156 -30 71 -58 141 -61 157 -7 26 -5 27 28 27 41 0 67 8 67 21 0 5 -27 9
-59 9 -44 0 -60 -4 -65 -16z"/>
<path d="M1400 256 c0 -31 39 -81 52 -68 7 7 4 24 -8 51 -21 45 -44 54 -44 17z"/>
<path d="M2705 216 c-27 -18 -67 -36 -87 -40 -30 -5 -39 -13 -44 -33 -4 -14
-2 -34 5 -45 6 -10 9 -23 6 -28 -4 -6 1 -10 9 -10 16 0 19 6 20 50 1 18 7 26
25 28 13 2 29 8 35 14 6 5 29 19 51 32 25 13 41 30 43 44 4 29 -4 28 -63 -12z"/>
<path d="M2380 187 c0 -18 21 -27 61 -27 22 0 29 -5 29 -19 0 -11 5 -23 10
-26 6 -3 10 -19 10 -36 0 -16 4 -29 9 -29 5 0 12 -10 16 -22 6 -19 8 -20 12
-6 5 20 33 13 33 -8 0 -8 10 -14 23 -14 21 1 21 1 3 15 -10 8 -19 27 -20 42
-1 19 -7 29 -21 31 -30 6 -43 22 -17 22 17 0 22 6 22 24 0 29 -18 44 -26 22
-9 -24 -23 -19 -30 9 -3 14 -13 25 -23 25 -9 0 -33 3 -53 6 -30 5 -38 3 -38
-9z"/>
<path d="M1084 135 c-6 -11 -15 -42 -18 -69 -6 -37 -5 -47 5 -44 17 6 31 61
27 102 -3 28 -4 29 -14 11z"/>
</g>
</svg>
