<?xml version="1.0" standalone="no"?>
<!DOCTYPE svg PUBLIC "-//W3C//DTD SVG 20010904//EN"
 "http://www.w3.org/TR/2001/REC-SVG-20010904/DTD/svg10.dtd">
<svg version="1.0" xmlns="http://www.w3.org/2000/svg"
 width="344.000000pt" height="256.000000pt" viewBox="0 0 344.000000 256.000000"
 preserveAspectRatio="xMidYMid meet">
<metadata>
Created by potrace 1.16, written by Peter Selinger 2001-2019
</metadata>
<g transform="translate(0.000000,256.000000) scale(0.100000,-0.100000)"
fill="#000000" stroke="none">
<path d="M384 2533 c17 -70 100 -276 114 -281 14 -4 17 39 3 53 -4 6 -28 65
-52 132 -27 75 -49 123 -58 123 -9 0 -11 -8 -7 -27z"/>
<path d="M2987 2553 c-47 -5 -70 -37 -66 -90 2 -21 0 -53 -5 -71 -7 -30 -11
-33 -34 -27 -51 12 -87 40 -84 63 2 15 -2 22 -12 22 -9 0 -16 -4 -16 -10 0 -5
-7 -10 -15 -10 -9 0 -15 -9 -15 -25 0 -18 8 -28 33 -39 17 -8 53 -24 79 -35
l48 -22 -17 -27 c-9 -15 -18 -29 -19 -30 -2 -2 -23 10 -48 27 -52 36 -56 37
-56 12 0 -10 18 -30 40 -46 l40 -28 1 -86 c0 -76 4 -94 32 -151 39 -78 62 -87
92 -38 12 21 20 53 21 90 0 31 8 67 16 80 8 13 25 50 38 83 13 33 29 67 35 75
7 8 25 38 41 67 15 28 32 49 36 47 13 -8 -4 -98 -22 -119 -28 -32 -40 -61 -40
-97 0 -43 13 -63 35 -54 14 5 17 15 12 53 -3 25 -1 40 3 33 4 -7 12 -15 18
-19 16 -10 -52 -190 -78 -206 -7 -4 -22 3 -35 15 l-23 22 -12 -22 c-7 -14 -9
-36 -5 -59 7 -32 9 -66 6 -103 -1 -7 -7 -6 -18 4 -10 9 -49 25 -88 35 -64 18
-71 22 -80 51 -10 36 -35 43 -35 12 0 -46 28 -77 87 -98 32 -12 71 -24 86 -28
26 -6 28 -10 23 -39 -6 -29 -3 -36 23 -54 16 -12 37 -21 46 -21 13 0 16 -6 11
-22 -3 -13 -6 -37 -6 -55 0 -25 -6 -35 -27 -45 -31 -15 -44 -48 -19 -48 10 0
16 -9 16 -24 0 -13 3 -44 6 -70 6 -42 5 -46 -13 -46 -29 0 -48 27 -45 64 6 68
25 141 40 152 15 11 14 15 -3 48 -16 29 -24 36 -40 31 -11 -4 -31 -9 -45 -11
-14 -3 -35 -7 -47 -10 -12 -2 -31 -19 -42 -37 -17 -28 -19 -43 -14 -88 6 -49
5 -53 -10 -41 -9 8 -34 12 -64 10 -46 -3 -48 -4 -57 -39 -8 -32 -4 -46 26
-108 21 -41 32 -74 26 -77 -5 -3 -9 -27 -8 -53 2 -25 2 -88 1 -138 -1 -103 -1
-103 -78 -87 l-29 6 4 67 c3 55 -1 78 -22 129 -33 78 -33 89 4 172 17 38 30
82 30 99 0 21 6 32 20 36 16 5 20 15 20 50 0 43 -1 45 -46 64 -25 12 -51 18
-57 14 -7 -4 -18 -8 -27 -8 -8 -1 -24 -5 -36 -9 -27 -8 -56 20 -34 34 11 7 12
14 2 34 -6 14 -7 26 -2 26 5 0 17 13 26 29 l17 29 27 -36 c43 -60 96 -112 114
-112 26 0 19 26 -15 55 l-32 26 19 34 c14 27 16 37 6 47 -7 7 -12 24 -12 40 0
15 -7 31 -16 36 -14 8 -14 10 0 21 9 8 16 20 16 27 0 7 9 27 19 45 20 33 35
25 25 -15 -4 -18 -1 -27 15 -36 12 -6 26 -8 31 -5 13 8 13 35 0 35 -5 0 -10
11 -10 25 0 14 5 25 10 25 6 0 10 -4 10 -10 0 -5 7 -10 15 -10 17 0 21 35 5
45 -5 3 -10 28 -10 55 0 40 -4 51 -21 61 -14 7 -19 17 -16 31 3 11 2 30 -3 42
-5 11 -14 39 -19 61 -6 22 -23 53 -37 69 -26 27 -31 28 -85 22 -32 -3 -60 -2
-63 3 -3 4 -41 6 -86 5 -116 -5 -158 -31 -259 -162 -58 -75 -63 -225 -12 -314
10 -18 22 -57 26 -85 4 -29 11 -56 17 -59 6 -4 16 -21 23 -38 12 -28 11 -43
-6 -112 -11 -43 -33 -120 -49 -171 -17 -50 -30 -103 -30 -117 0 -14 -5 -36
-11 -50 -16 -35 -3 -74 33 -95 42 -26 68 -69 68 -114 0 -21 12 -62 29 -95 16
-31 32 -71 35 -88 l7 -32 -46 6 c-49 5 -89 -9 -101 -37 -37 -92 -23 -105 103
-98 111 7 113 5 113 -101 0 -68 0 -69 -25 -64 -18 3 -25 11 -25 27 0 59 -37
78 -42 23 -3 -30 -6 -33 -40 -36 l-38 -3 0 -50 0 -49 -36 0 c-20 0 -53 4 -73
9 -20 6 -82 15 -138 22 l-103 12 0 30 c0 16 4 46 10 66 5 20 17 74 26 121 9
47 20 103 25 125 5 22 15 71 24 110 8 38 15 79 15 90 -1 38 -28 -13 -40 -74
-6 -31 -19 -90 -30 -131 -10 -41 -29 -133 -42 -203 l-23 -128 -40 1 c-68 3
-75 1 -75 -20 0 -16 7 -20 31 -20 17 0 39 5 50 10 17 10 19 7 19 -22 0 -33
-12 -102 -44 -247 -11 -49 -13 -78 -7 -84 15 -15 24 16 56 183 16 80 29 146
30 147 0 1 59 -5 130 -14 72 -8 159 -18 195 -22 36 -4 74 -12 86 -18 18 -11
147 -28 199 -26 92 2 87 0 83 41 -3 20 -10 47 -16 58 -7 14 -8 34 -2 61 16 69
14 136 -4 171 -12 23 -15 44 -10 65 11 53 55 157 67 157 11 0 3 -682 -9 -834
-6 -65 -5 -78 7 -74 22 7 28 99 33 531 3 318 7 402 18 409 7 5 43 7 80 4 37
-3 70 -1 73 5 9 14 39 11 86 -11 24 -11 55 -20 68 -20 14 0 34 -9 46 -20 11
-10 50 -27 85 -36 36 -9 68 -21 72 -27 4 -6 9 -39 12 -72 3 -33 12 -132 21
-220 8 -88 17 -212 21 -275 4 -71 14 -136 25 -170 11 -30 19 -65 19 -77 0 -14
6 -23 15 -23 11 0 15 12 15 45 0 35 16 77 80 206 72 144 94 210 73 209 -5 -1
-37 -60 -73 -132 -63 -128 -89 -168 -110 -168 -12 0 -13 72 -1 86 5 5 30 59
56 119 26 61 58 135 72 165 14 30 32 70 40 88 8 18 17 49 20 69 8 47 -15 41
-33 -9 -7 -20 -25 -65 -41 -100 -16 -34 -42 -94 -58 -133 -16 -38 -40 -88 -52
-110 l-23 -40 0 65 c0 40 6 76 16 95 9 17 29 66 46 110 16 44 40 107 53 140
12 33 41 110 64 170 24 61 49 125 57 143 15 35 20 127 6 118 -5 -3 -17 29 -27
72 -10 42 -26 109 -36 148 -25 97 -35 199 -20 208 6 4 11 23 11 42 0 28 -4 35
-17 32 -23 -4 -36 -33 -73 -168 -30 -108 -43 -153 -90 -310 -11 -36 -30 -99
-42 -140 -12 -41 -23 -69 -26 -62 -3 11 49 213 85 322 16 48 60 219 73 285 5
22 18 66 29 97 23 63 30 137 18 181 -4 15 -4 27 1 27 5 0 17 -37 26 -82 27
-124 43 -178 70 -233 24 -49 24 -49 25 -18 1 18 -8 54 -18 80 -10 27 -27 89
-36 138 -10 56 -27 107 -43 135 -37 62 -40 134 -9 220 26 73 51 117 84 143 21
17 23 26 22 120 -1 116 -6 116 -18 1 -8 -83 -9 -83 -37 9 -13 44 -14 61 -6 69
7 7 12 23 12 36 0 13 5 32 11 44 16 29 4 33 -41 15 -34 -13 -40 -13 -40 -1 0
31 -28 11 -48 -33 -25 -58 -37 -123 -22 -123 5 0 10 8 11 18 0 11 2 13 6 4 3
-8 -14 -53 -38 -100 -23 -47 -45 -80 -47 -73 -2 7 1 24 8 37 10 17 10 36 3 76
-6 29 -9 76 -6 104 4 41 10 54 34 70 40 26 36 34 -17 34 -25 0 -43 -4 -39 -9
9 -15 -15 -58 -41 -71 -31 -17 -65 -83 -69 -134 -3 -32 -94 -268 -109 -284 -2
-2 -20 -5 -40 -7 -34 -3 -36 -1 -42 33 -16 86 65 245 97 190 6 -10 15 -18 21
-18 13 0 2 114 -14 143 -8 15 -5 25 11 46 11 14 35 45 51 69 26 35 28 42 13
40 -10 -1 -35 -3 -56 -5z m309 -80 c-18 -33 -21 -26 -6 13 6 15 13 24 16 21 3
-3 -1 -18 -10 -34z m52 -10 c-7 -21 -16 -40 -20 -43 -27 -20 -49 -152 -28
-165 13 -8 13 -71 0 -95 -6 -11 -13 -57 -15 -102 -6 -106 -13 -138 -30 -138
-8 0 -17 -9 -20 -20 -3 -11 -11 -20 -16 -20 -5 0 -9 -7 -9 -15 0 -8 -4 -15
-10 -15 -5 0 -10 5 -10 11 0 8 -4 8 -14 0 -19 -16 -29 -62 -17 -74 17 -17 13
-31 -4 -17 -8 7 -15 17 -15 22 0 5 -7 17 -16 26 -13 12 -15 28 -11 71 6 56 99
317 142 401 13 25 33 70 45 100 37 94 51 123 56 117 3 -3 0 -23 -8 -44z m-401
-105 c-3 -8 -6 -5 -6 6 -1 11 2 17 5 13 3 -3 4 -12 1 -19z m417 -14 c10 -37 2
-39 -11 -4 -6 17 -8 30 -3 30 4 0 11 -12 14 -26z m-832 -53 c37 -16 44 -23 46
-51 1 -18 7 -40 12 -50 16 -30 12 -42 -10 -35 -12 4 -26 2 -33 -3 -7 -5 -24
-12 -39 -16 -21 -5 -28 -3 -28 9 0 8 -4 15 -10 15 -10 0 -12 -5 -14 -32 -1 -7
-7 -18 -15 -24 -8 -6 -14 -33 -16 -67 -1 -33 -9 -71 -20 -91 -26 -48 -10 -58
25 -16 l29 35 13 -32 c7 -18 16 -33 20 -33 4 0 8 -8 8 -19 0 -10 7 -24 15 -31
14 -11 12 -19 -15 -66 -16 -30 -30 -61 -30 -70 0 -13 -7 -15 -42 -9 -95 16
-135 50 -87 75 12 7 18 18 15 26 -4 9 3 18 19 24 14 5 25 16 25 24 0 16 -53
46 -80 46 -25 0 -35 -58 -15 -80 8 -9 15 -23 15 -31 0 -8 -10 -1 -23 15 -14
17 -29 26 -35 22 -17 -10 -15 -31 4 -47 14 -12 13 -14 -12 -21 -37 -10 -45 0
-52 58 -3 26 -15 66 -28 88 -30 51 -31 86 -5 86 15 0 19 7 19 30 -1 21 6 36
20 46 25 17 30 54 8 54 -8 0 -26 -4 -40 -10 -17 -6 -26 -6 -26 0 0 19 101 139
143 170 37 27 48 30 118 30 53 0 91 -6 121 -19z m123 -32 c11 -17 -1 -21 -15
-4 -8 9 -8 15 -2 15 6 0 14 -5 17 -11z m-490 -229 c3 -5 -1 -10 -10 -10 -9 0
-13 5 -10 10 3 6 8 10 10 10 2 0 7 -4 10 -10z m445 -85 c-7 -8 -17 -12 -22 -9
-5 3 -1 15 9 26 20 22 32 6 13 -17z m-10 -85 c0 -12 -35 -31 -44 -23 -8 9 14
33 30 33 8 0 14 -4 14 -10z m15 -50 c3 -5 1 -10 -4 -10 -6 0 -11 5 -11 10 0 6
2 10 4 10 3 0 8 -4 11 -10z m-25 -41 c0 -6 -4 -7 -10 -4 -5 3 -10 11 -10 16 0
6 5 7 10 4 6 -3 10 -11 10 -16z m450 -9 c0 -5 -4 -10 -10 -10 -5 0 -10 5 -10
10 0 6 5 10 10 10 6 0 10 -4 10 -10z m99 -45 c8 -24 19 -35 32 -35 16 0 19 -7
19 -39 0 -22 -4 -42 -9 -46 -6 -3 -6 -18 0 -37 5 -17 8 -32 6 -33 -1 -1 -21
-7 -44 -12 -41 -10 -42 -10 -58 23 -14 31 -14 35 6 70 12 23 19 48 16 63 -6
29 2 81 12 81 4 0 13 -16 20 -35z m141 -9 c-4 -18 -11 -40 -16 -47 -5 -8 -14
-29 -19 -48 -18 -60 -34 -50 -28 16 5 44 12 64 32 84 35 36 40 35 31 -5z
m-967 -4 c7 -5 26 -14 42 -20 52 -18 -6 -14 -64 5 -56 18 -75 48 -20 33 17 -5
36 -13 42 -18z m143 -48 c17 -14 17 -15 1 -10 -10 3 -25 6 -33 6 -8 0 -14 5
-14 10 0 15 24 12 46 -6z m-86 -30 c81 -17 130 -34 130 -46 0 -5 -12 -8 -26
-8 -42 0 -77 -50 -118 -170 -32 -96 -36 -120 -34 -187 2 -46 8 -78 15 -80 8
-3 11 21 11 79 0 68 6 99 32 171 18 48 36 87 41 87 5 0 9 -4 9 -9 0 -6 12 -16
28 -23 23 -11 27 -20 30 -61 4 -62 26 -58 30 5 3 41 6 46 30 51 15 3 38 8 52
12 l25 8 -27 -30 c-17 -17 -28 -41 -29 -59 0 -33 -36 -130 -59 -159 -8 -11
-33 -36 -56 -56 -40 -35 -44 -36 -126 -38 l-85 -2 -27 36 c-16 20 -39 41 -53
46 -20 7 -24 14 -19 32 4 12 11 45 16 72 4 28 20 82 34 121 14 39 26 83 26 98
0 15 7 43 15 63 8 19 15 44 15 55 0 16 5 19 23 14 12 -4 56 -13 97 -22z m604
-36 c-8 -24 -17 -68 -21 -99 -5 -49 -8 -56 -24 -52 -32 9 -22 -27 18 -64 31
-28 35 -36 23 -43 -8 -5 -20 -10 -26 -10 -19 0 -25 -30 -7 -37 21 -8 47 9 51
36 3 17 8 20 30 14 37 -8 39 -14 41 -102 2 -59 -3 -89 -19 -125 -19 -45 -22
-48 -50 -42 -27 5 -30 3 -30 -20 0 -13 7 -27 15 -30 8 -4 15 -17 15 -29 0 -13
5 -27 10 -30 6 -3 10 -13 10 -22 0 -15 -2 -15 -18 0 -9 9 -40 21 -67 27 -80
17 -79 16 -53 51 13 17 38 46 57 64 29 28 35 41 36 79 0 32 7 52 22 68 14 14
19 28 14 36 -12 20 -38 4 -51 -31 -6 -18 -18 -45 -27 -62 -9 -16 -25 -47 -35
-68 -27 -55 -75 -95 -106 -89 -24 5 -24 7 -19 75 3 52 9 74 22 83 10 8 21 11
25 9 11 -7 33 23 25 35 -3 5 -21 9 -38 7 -27 -2 -32 1 -29 18 2 11 10 25 18
31 19 15 18 31 -7 57 -26 28 -61 107 -55 124 13 32 125 -4 140 -44 4 -9 5 -16
4 -17 -24 -9 -44 -27 -46 -40 -3 -15 4 -17 45 -14 40 3 48 6 48 23 0 11 -6 19
-12 18 -8 -2 -13 8 -13 25 -1 15 -8 45 -16 67 -24 65 -28 120 -9 135 14 12 60
23 112 29 9 1 8 -10 -3 -41z m-339 -14 c35 -23 31 -38 -5 -19 -16 9 -30 20
-30 25 0 14 7 13 35 -6z m-79 -26 c-3 -13 -6 -33 -6 -45 0 -19 -5 -23 -32 -23
-81 0 -102 27 -34 43 20 5 43 18 49 28 16 26 31 24 23 -3z m64 -38 c14 -11 19
-20 12 -20 -19 0 -52 19 -52 30 0 15 12 12 40 -10z m450 -12 c0 -16 -3 -19
-11 -11 -6 6 -8 16 -5 22 11 17 16 13 16 -11z m140 -44 c0 -14 -8 -50 -19 -82
-10 -31 -29 -94 -42 -139 -24 -88 -39 -106 -39 -48 0 19 -4 35 -9 35 -8 0 -20
71 -27 168 -2 38 1 58 13 71 14 18 17 18 45 2 29 -15 30 -15 45 6 18 27 33 21
33 -13z m124 -66 c11 -46 25 -112 32 -148 7 -36 20 -90 30 -121 l16 -55 -62
-160 c-34 -87 -82 -209 -106 -270 -24 -61 -44 -117 -44 -124 0 -9 -3 -10 -9
-5 -11 12 -31 180 -38 331 -5 95 -2 121 15 175 21 67 65 212 87 289 33 117 50
170 55 170 3 0 14 -37 24 -82z m-718 -312 c-6 -49 -24 -67 -83 -83 -61 -15
-120 -16 -157 0 -22 10 -29 20 -31 45 -2 28 0 33 19 31 57 -4 71 3 127 61 32
34 61 70 65 82 5 18 11 12 36 -38 22 -45 28 -68 24 -98z m464 -14 c0 -15 -5
-33 -11 -39 -9 -9 -8 -21 5 -46 18 -39 21 -87 6 -87 -18 0 -50 39 -44 55 4 8
-2 27 -11 42 -16 24 -16 27 -1 35 9 5 16 17 16 26 0 19 18 42 32 42 4 0 8 -13
8 -28z m-790 -21 c27 -16 29 -20 15 -31 -15 -13 -20 -42 -8 -53 3 -4 12 -2 18
3 8 7 27 3 60 -11 37 -17 59 -20 96 -15 27 4 49 5 49 2 0 -2 -14 -34 -30 -71
-36 -80 -40 -139 -14 -212 15 -43 16 -58 7 -85 -6 -18 -14 -56 -18 -84 -5 -42
-4 -52 9 -57 9 -4 16 -11 16 -17 0 -20 -229 -5 -252 18 -4 4 -11 22 -14 40 -6
31 -5 32 25 32 20 0 31 -5 31 -14 0 -44 68 -61 94 -24 25 35 12 232 -18 273
-12 17 -30 65 -40 109 -10 43 -29 99 -41 125 -46 91 -43 108 15 72z m-40 -260
c0 -5 -7 -12 -16 -15 -8 -3 -12 -10 -9 -16 4 -6 -8 -10 -29 -10 -34 0 -35 1
-24 25 9 19 19 25 45 25 18 0 33 -4 33 -9z"/>
<path d="M2318 2101 c-41 -48 -47 -89 -21 -148 18 -42 30 -48 42 -24 13 24 14
68 2 76 -5 3 -7 30 -4 60 3 30 4 55 2 55 -3 0 -12 -9 -21 -19z"/>
<path d="M2872 1278 c-14 -14 -16 -48 -2 -48 10 0 30 32 30 49 0 14 -13 14
-28 -1z"/>
<path d="M2554 1076 c-6 -26 1 -46 17 -46 12 0 12 57 -1 65 -5 3 -12 -5 -16
-19z"/>
<path d="M3073 2548 c2 -7 14 -13 27 -13 13 0 25 6 28 13 2 8 -7 12 -28 12
-21 0 -30 -4 -27 -12z"/>
<path d="M1 2254 c-1 -21 43 -122 134 -306 97 -198 135 -285 135 -311 0 -49
84 -228 229 -492 48 -86 93 -172 233 -445 36 -69 71 -135 78 -147 14 -22 2
-61 -78 -233 -17 -36 -46 -103 -65 -150 -19 -47 -44 -103 -56 -125 -19 -35
-19 -40 -5 -43 8 -2 18 -2 21 1 6 6 158 355 181 416 9 24 32 60 50 79 32 36
72 125 72 163 0 10 -5 27 -10 37 -6 9 -23 53 -39 97 -41 113 -90 212 -107 219
-24 9 -16 -25 20 -94 48 -91 106 -263 99 -292 -4 -12 -14 -36 -24 -51 l-17
-28 -20 33 c-44 73 -171 336 -182 377 -26 100 -115 265 -130 241 -8 -13 -45
50 -140 239 -43 87 -65 143 -70 184 -7 47 -40 123 -159 361 -114 230 -150 294
-150 270z"/>
<path d="M767 2211 c-69 -45 -86 -63 -121 -124 -40 -73 -37 -148 11 -240 21
-39 54 -87 74 -106 20 -20 52 -51 70 -69 19 -17 40 -32 47 -32 6 0 12 -2 12
-4 0 -11 -62 -96 -69 -96 -5 0 -9 -61 -10 -135 -1 -107 -5 -149 -21 -195 -23
-68 -23 -73 -10 -121 13 -48 55 -89 91 -89 22 0 36 12 71 57 24 31 49 58 56
61 6 2 22 -9 35 -24 77 -95 76 -94 178 -94 84 -1 92 -2 75 -15 -10 -8 -24 -16
-30 -18 -7 -3 -4 -12 7 -23 18 -19 20 -17 78 44 32 34 65 72 73 85 19 28 25
179 8 185 -8 2 -12 -18 -12 -67 0 -64 -3 -73 -30 -104 -29 -34 -30 -34 -137
-40 -121 -6 -132 -2 -180 70 -14 21 -31 41 -38 45 -11 7 -11 17 0 57 16 62 22
71 44 71 10 0 26 9 36 20 15 17 16 22 4 36 -12 14 -14 14 -26 -2 -16 -22 -24
-15 -17 13 5 18 11 21 35 16 26 -5 31 -2 45 32 8 21 22 44 30 52 19 20 18 30
-6 43 -27 15 -74 -7 -49 -23 22 -14 2 -57 -27 -57 -36 0 -64 -42 -84 -129 -11
-45 -20 -90 -20 -100 0 -20 -87 -137 -109 -146 -23 -9 -60 23 -72 64 -10 35
-9 47 10 98 12 32 45 87 72 123 27 36 63 93 80 127 20 43 37 64 52 68 87 20
120 25 128 20 5 -4 9 -1 9 6 0 7 16 31 35 55 19 23 35 47 35 52 0 5 9 17 20
27 11 10 20 25 20 34 1 24 40 -26 40 -51 0 -11 4 -27 10 -37 5 -10 14 -49 20
-87 11 -72 35 -145 57 -179 7 -11 13 -26 13 -34 0 -8 12 -30 26 -48 20 -26 28
-50 32 -98 4 -62 5 -63 36 -68 17 -2 34 -3 39 0 4 2 7 35 7 73 0 37 -3 70 -7
72 -5 2 -35 56 -68 121 -33 65 -68 120 -77 123 -10 3 -18 12 -18 20 0 13 7 11
38 -7 20 -12 44 -28 52 -34 8 -7 44 -26 80 -44 36 -18 81 -50 101 -73 31 -34
41 -40 63 -34 29 7 65 65 86 136 16 55 68 208 80 235 6 11 14 40 19 65 6 25
28 99 51 165 41 122 47 163 30 195 -19 36 -65 42 -387 47 -280 5 -313 4 -313
-10 0 -9 4 -19 10 -22 18 -11 -12 -126 -40 -153 -16 -15 -17 -22 -7 -59 9 -36
8 -45 -6 -61 -9 -10 -17 -24 -17 -31 0 -8 -7 -10 -19 -6 -14 4 -21 0 -26 -17
-10 -33 -35 -58 -57 -58 -11 0 -18 -7 -18 -20 0 -41 44 -23 105 42 63 66 71
65 60 -7 -5 -40 -10 -46 -38 -53 -26 -7 -32 -13 -30 -35 1 -17 -10 -38 -33
-63 -31 -34 -39 -38 -89 -39 -45 -2 -61 -7 -83 -28 -22 -21 -38 -27 -75 -27
-26 0 -47 3 -47 8 1 18 21 37 42 37 16 0 24 7 26 23 2 12 0 22 -5 22 -5 0 -9
25 -9 55 -1 31 -3 57 -5 59 -2 2 -19 6 -36 9 -26 5 -33 3 -33 -10 0 -15 -1
-15 -18 0 -10 10 -23 17 -28 17 -14 0 -62 64 -92 123 -23 44 -27 62 -24 119 4
64 6 70 49 118 25 28 64 60 86 70 46 23 126 26 177 8 69 -23 174 -112 153
-127 -15 -11 -47 -80 -40 -87 11 -12 64 16 77 41 7 13 10 35 6 50 -11 42 -81
110 -155 149 -57 30 -79 36 -127 35 -50 0 -67 -6 -117 -38z m1139 -96 c13 -9
24 -23 24 -33 0 -29 -176 -571 -211 -650 -27 -58 -43 -62 -87 -19 -20 20 -66
52 -102 71 -36 19 -94 52 -130 73 l-65 40 -32 99 c-18 54 -39 132 -48 172 -16
73 -16 74 10 137 14 35 25 77 25 93 0 16 3 31 6 34 3 4 136 4 296 2 241 -3
295 -6 314 -19z m-986 -633 c0 -5 -24 -43 -54 -86 -48 -69 -54 -75 -59 -53 -9
33 8 128 24 138 18 11 89 12 89 1z m519 -157 c39 -76 51 -110 51 -144 0 -57
-11 -46 -21 21 -5 29 -29 91 -54 140 -25 48 -45 90 -45 94 0 17 20 -15 69
-111z"/>
<path d="M1670 1894 c0 -31 23 -28 28 4 2 15 -2 22 -12 22 -11 0 -16 -9 -16
-26z"/>
<path d="M1050 1885 c0 -16 30 -35 54 -35 21 0 21 36 0 44 -28 11 -54 6 -54
-9z"/>
<path d="M410 1779 c0 -12 16 -54 35 -93 53 -109 178 -391 215 -486 19 -47 40
-92 47 -100 11 -12 13 -10 13 14 0 30 -86 241 -195 476 -37 80 -73 160 -81
178 -16 37 -34 42 -34 11z"/>
<path d="M1070 1635 c0 -15 6 -25 14 -25 22 0 30 19 16 35 -18 22 -30 18 -30
-10z"/>
<path d="M1123 1315 c-3 -9 -3 -18 0 -22 10 -10 37 6 37 22 0 20 -29 20 -37 0z"/>
<path d="M1611 1167 c-7 -10 -16 -58 -21 -115 -9 -112 -22 -143 -86 -209 -68
-71 -52 -107 18 -39 54 53 88 129 88 199 0 32 5 78 11 102 6 23 9 51 7 61 -3
16 -4 16 -17 1z"/>
<path d="M1401 995 c-12 -38 -29 -77 -38 -87 -20 -23 -79 -24 -91 -2 -9 16
-46 16 -129 -1 -21 -5 -43 -2 -64 9 -40 20 -39 20 -39 -3 0 -11 18 -50 40 -89
33 -56 40 -79 40 -121 0 -56 23 -113 59 -145 12 -11 21 -31 21 -47 0 -27 -2
-28 -32 -23 -18 3 -53 10 -76 16 -36 9 -46 8 -53 -3 -5 -8 -9 -17 -9 -21 0 -9
70 -28 137 -37 46 -7 58 -14 101 -59 59 -61 83 -65 148 -24 68 43 58 73 -53
160 -77 60 -109 144 -80 210 l14 34 20 -26 c11 -14 23 -44 27 -66 7 -47 15
-51 134 -77 77 -16 119 -20 129 -10 3 3 2 29 -2 58 -5 35 -15 60 -32 77 -21
21 -31 24 -77 20 l-53 -4 -12 45 c-22 82 -24 113 -11 180 18 99 8 120 -19 36z
m-121 -140 c13 -8 13 -21 -4 -58 -34 -79 -38 -98 -32 -150 4 -28 17 -68 29
-87 20 -33 20 -34 1 -18 -13 11 -24 14 -30 8 -6 -6 -25 11 -52 45 -38 50 -42
60 -42 112 0 44 -6 68 -30 110 -30 52 -30 53 -8 48 13 -3 41 -2 63 3 37 8 80
3 105 -13z m118 -72 c5 -21 13 -57 17 -80 5 -33 11 -43 26 -43 10 0 19 7 19
15 0 11 11 15 43 15 23 0 47 -4 53 -8 13 -8 28 -62 17 -62 -4 0 -49 10 -100
22 -82 19 -92 24 -87 41 4 11 -2 27 -14 40 -30 35 -33 44 -21 71 17 37 34 32
47 -11z m-58 -290 c14 -9 38 -30 54 -46 l29 -30 -24 -18 c-41 -32 -74 -24
-124 29 -49 51 -54 63 -27 56 9 -3 26 2 37 10 25 19 26 19 55 -1z"/>
<path d="M1337 957 c-29 -34 -32 -43 -17 -52 12 -8 60 39 60 59 0 27 -15 25
-43 -7z"/>
<path d="M530 656 c-5 -14 -21 -43 -35 -65 -24 -40 -35 -88 -16 -76 19 11 72
98 78 125 7 36 -14 49 -27 16z"/>
<path d="M2892 665 c-12 -7 -33 -22 -46 -34 -17 -16 -30 -20 -50 -15 -23 5
-26 3 -26 -20 0 -41 43 -46 83 -9 18 16 45 35 60 41 18 8 27 18 25 29 -4 21
-18 24 -46 8z"/>
<path d="M2610 386 c0 -26 41 -43 125 -51 137 -13 159 -12 163 6 3 17 -7 20
-168 39 -41 5 -85 12 -97 15 -17 6 -23 3 -23 -9z"/>
</g>
</svg>
