<?xml version="1.0" standalone="no"?>
<!DOCTYPE svg PUBLIC "-//W3C//DTD SVG 20010904//EN"
 "http://www.w3.org/TR/2001/REC-SVG-20010904/DTD/svg10.dtd">
<svg version="1.0" xmlns="http://www.w3.org/2000/svg"
 width="384.000000pt" height="256.000000pt" viewBox="0 0 384.000000 256.000000"
 preserveAspectRatio="xMidYMid meet">
<metadata>
Created by potrace 1.16, written by Peter Selinger 2001-2019
</metadata>
<g transform="translate(0.000000,256.000000) scale(0.100000,-0.100000)"
fill="#000000" stroke="none">
<path d="M1299 2400 c-1 -88 -3 -164 -4 -170 -1 -5 -3 -21 -4 -35 -1 -24 -3
-25 -75 -25 -70 0 -76 -2 -99 -30 -24 -27 -25 -28 -30 -8 -3 11 -11 18 -18 16
-18 -6 -35 -36 -26 -45 12 -11 80 -4 97 11 8 8 46 16 84 18 l69 4 26 -36 c14
-20 35 -53 46 -73 12 -24 27 -37 40 -37 12 0 16 -3 8 -8 -6 -4 -76 -4 -155 1
-78 4 -153 5 -165 2 -20 -5 -22 -1 -25 42 -4 60 -24 68 -31 11 -3 -24 -9 -56
-13 -72 -5 -20 -3 -31 7 -36 14 -8 16 -52 11 -206 -2 -48 -3 -51 -26 -47 -32
6 -50 -27 -42 -75 3 -23 2 -32 -4 -26 -6 6 -11 59 -13 120 -1 60 -6 114 -10
120 -3 6 -25 14 -46 18 -49 8 -74 40 -38 50 12 3 53 6 90 6 60 0 68 2 65 18
-3 15 -15 17 -85 16 -44 -1 -88 -4 -96 -7 -12 -5 -15 -26 -14 -120 l2 -114
-67 1 c-73 1 -96 16 -25 16 53 0 78 14 51 27 -33 16 -119 4 -133 -19 -11 -17
-10 -22 1 -29 10 -6 9 -11 -7 -23 -18 -14 -18 -15 -2 -16 26 0 21 -17 -8 -24
-25 -6 -34 -29 -15 -41 5 -3 21 -3 36 1 22 6 25 11 20 35 -4 20 -1 29 7 29 18
0 47 -37 47 -61 0 -12 8 -34 17 -50 17 -28 16 -29 -15 -71 -18 -24 -40 -58
-48 -76 l-15 -34 -21 27 c-11 14 -27 24 -34 21 -9 -3 -14 2 -14 14 0 21 16 28
22 9 2 -6 10 1 17 15 13 23 12 27 -10 45 -27 23 -46 26 -51 10 -3 -8 -10 -8
-26 2 -25 16 -29 34 -7 43 20 7 20 82 1 93 -8 4 -16 24 -18 43 -2 23 -8 35
-18 35 -10 0 -14 -8 -13 -22 2 -13 -1 -22 -5 -22 -32 5 -37 -3 -36 -53 0 -45
4 -55 22 -63 25 -11 28 -41 8 -96 -7 -19 -9 -44 -5 -55 7 -20 9 -18 22 26 2 8
4 -7 4 -35 0 -27 -3 -54 -7 -60 -4 -5 -10 -19 -13 -30 -4 -15 -5 -14 -6 7 -1
37 -41 62 -85 55 -19 -3 -37 -3 -40 0 -12 12 16 43 39 43 24 0 25 2 23 58 -3
66 -22 77 -26 15 -3 -42 -4 -43 -37 -43 l-34 0 2 48 c2 52 -16 75 -21 27 -2
-16 -7 -34 -12 -39 -5 -5 -5 -17 1 -28 9 -17 7 -18 -18 -12 -34 9 -43 20 -43
58 0 16 -8 35 -17 42 -17 13 -17 13 0 14 14 0 17 9 17 45 0 41 2 45 25 45 18
0 28 -7 35 -25 5 -14 14 -25 20 -25 19 0 10 49 -11 64 l-21 14 21 11 c26 14
27 31 3 38 -10 2 -23 17 -30 32 -12 28 -83 67 -102 56 -18 -11 9 -45 35 -45
29 0 39 -14 42 -58 1 -23 -2 -30 -10 -25 -6 4 -62 7 -123 8 l-111 0 -1 -110
c-1 -89 1 -107 11 -94 7 9 22 19 35 23 18 6 24 2 31 -17 5 -13 24 -37 43 -52
19 -16 25 -24 13 -19 -11 4 -46 8 -77 9 l-58 2 0 -124 0 -125 58 7 c104 12 97
14 100 -27 2 -23 8 -38 16 -38 8 0 21 -10 30 -23 l15 -22 21 24 c24 28 26 68
4 92 -14 16 -14 18 5 28 41 22 50 -48 20 -146 -12 -37 -41 -45 -58 -16 -6 11
-23 18 -48 19 -21 1 -66 5 -100 9 -59 7 -63 6 -63 -12 0 -16 11 -22 64 -31 35
-7 78 -12 96 -12 23 0 33 -5 37 -20 5 -20 41 -21 540 -23 18 0 41 7 50 15 22
20 116 27 136 9 8 -6 18 -23 21 -36 3 -13 15 -26 25 -30 30 -9 35 -51 10 -78
-50 -52 -59 -78 -59 -173 0 -66 4 -95 14 -103 8 -6 19 -25 26 -41 7 -16 20
-32 30 -35 21 -7 34 -45 15 -45 -11 0 -25 -20 -25 -36 0 -2 12 -4 26 -4 22 0
25 -2 14 -15 -8 -9 -21 -13 -36 -9 -22 6 -24 3 -24 -30 0 -35 1 -36 35 -36 25
0 37 5 41 18 3 9 12 29 19 43 10 18 11 29 4 36 -8 8 -6 18 4 34 8 13 17 44 20
69 3 25 14 63 23 85 15 35 18 38 25 20 13 -35 10 -80 -10 -121 -11 -21 -17
-42 -15 -45 7 -12 64 -16 73 -5 5 6 12 42 16 79 6 58 4 73 -14 108 -12 22 -21
50 -21 63 0 40 40 116 67 129 34 15 46 -2 80 -113 15 -47 35 -96 45 -110 19
-26 48 -119 48 -154 0 -11 -7 -27 -15 -36 -26 -29 -8 -50 41 -50 39 0 44 3 50
26 4 14 1 37 -5 50 -6 14 -11 35 -11 47 0 12 -14 51 -31 87 -24 51 -33 88 -41
168 -6 57 -8 105 -5 108 2 2 31 9 63 14 56 9 60 8 86 -17 15 -15 28 -34 28
-42 0 -18 -27 -106 -41 -133 -13 -27 -11 -38 9 -38 14 0 13 -3 -6 -18 -27 -21
-27 -65 -1 -70 22 -4 38 39 32 85 -5 36 0 47 46 110 28 39 51 80 51 91 0 11
-12 29 -27 40 -15 11 -23 24 -19 30 13 21 42 13 64 -17 37 -50 92 -173 92
-204 0 -17 -20 -67 -45 -113 -47 -85 -56 -124 -30 -124 8 0 15 5 15 10 0 6 9
10 20 10 21 0 60 52 60 81 0 12 65 124 85 147 1 1 23 -18 48 -44 47 -47 60
-86 54 -154 -2 -20 3 -26 25 -28 24 -3 27 1 31 30 3 18 5 46 5 62 0 19 8 36
24 47 22 18 24 18 38 0 18 -22 133 -55 161 -46 36 12 15 28 -58 46 -97 23
-100 26 -66 60 28 26 53 85 53 122 0 23 43 49 66 40 23 -8 34 -22 34 -45 0
-14 -9 -18 -41 -18 -33 0 -40 -3 -37 -18 2 -10 14 -18 28 -20 62 -7 67 -11 74
-53 4 -24 19 -57 36 -78 17 -19 30 -41 30 -47 0 -7 14 -24 32 -39 27 -23 39
-26 78 -23 65 7 122 49 158 117 34 63 55 156 45 203 l-6 31 51 -5 c39 -4 56
-11 79 -35 15 -16 49 -41 75 -55 39 -22 53 -25 85 -18 51 12 116 83 132 145
l11 45 56 0 c82 0 94 -10 94 -76 0 -63 30 -132 79 -178 26 -25 36 -28 74 -24
84 10 170 113 204 248 11 42 28 48 141 49 80 1 82 2 82 25 0 19 -4 24 -20 21
-10 -2 -57 -5 -102 -6 l-83 -2 -7 73 c-8 77 -39 146 -79 174 -24 16 -18 36 11
36 13 0 21 -10 25 -33 13 -57 45 -79 45 -29 0 15 4 33 9 41 7 11 10 9 16 -8 7
-24 30 -28 39 -6 8 21 -28 55 -58 55 -31 0 -56 10 -56 21 0 5 6 9 14 9 17 0
27 45 13 59 -19 19 1 23 32 6 35 -17 35 -19 21 -46 -9 -15 -5 -24 18 -47 24
-23 42 -30 92 -35 35 -4 65 -5 68 -2 9 8 -27 53 -48 60 -32 10 -23 25 15 25
32 0 35 2 35 29 0 36 -16 49 -25 21 -6 -19 -25 -25 -25 -7 0 4 0 13 0 21 0 8
10 16 23 18 16 2 23 11 25 31 2 15 -1 27 -7 27 -18 0 -71 -35 -71 -47 0 -7 -7
-13 -15 -13 -8 0 -23 -10 -35 -22 -19 -21 -20 -21 -20 -2 1 27 55 84 81 84 28
0 61 40 47 58 -14 17 -38 15 -38 -3 0 -22 -38 -18 -50 5 -11 21 -36 27 -42 10
-4 -12 -58 10 -58 23 0 4 48 7 106 7 l106 0 -7 93 c-4 50 -11 96 -16 102 -12
12 -11 52 1 60 18 11 10 30 -20 48 -27 16 -39 45 -25 59 11 11 54 -17 58 -37
2 -11 4 30 4 90 0 61 -2 85 -4 55 -3 -36 -9 -59 -20 -67 -22 -17 -33 -16 -33
1 0 8 -5 16 -11 18 -9 3 -14 83 -10 145 1 7 18 21 39 30 24 12 38 26 40 41 3
20 1 21 -24 11 -16 -5 -35 -15 -42 -22 -20 -16 -82 -37 -114 -37 -15 0 -31 -7
-36 -16 -12 -21 -38 -12 -79 26 -28 26 -37 30 -70 24 -49 -7 -72 -25 -82 -61
-5 -18 -13 -27 -24 -25 -19 3 -41 -42 -33 -65 3 -7 20 -13 38 -13 32 0 32 0
10 -16 -12 -8 -22 -21 -22 -29 0 -7 -10 -15 -21 -17 -22 -3 -30 -13 -45 -53
-5 -12 -12 56 -17 160 -8 170 -9 181 -32 204 -19 19 -33 24 -67 23 -52 -2 -83
-26 -48 -37 22 -7 21 -8 -9 -23 -23 -11 -31 -21 -29 -36 2 -12 10 -21 20 -21
28 0 30 -12 3 -29 -15 -10 -25 -26 -25 -39 0 -13 -5 -28 -11 -34 -6 -6 -13
-48 -15 -92 -2 -47 -11 -95 -20 -112 -15 -31 -53 -73 -59 -67 -4 3 -8 217 -5
233 4 20 -2 60 -10 69 -9 9 -32 -62 -24 -75 2 -5 6 -59 7 -121 l2 -113 -38 -6
c-32 -5 -44 -1 -74 22 -20 16 -38 29 -40 29 -3 0 -36 -14 -73 -32 -58 -26 -72
-38 -91 -75 -30 -57 -46 -71 -62 -50 -22 27 -54 30 -76 6 -20 -22 -22 -22 -34
-4 -18 23 -41 11 -27 -14 5 -10 7 -35 3 -55 l-6 -36 52 0 c82 0 141 -34 141
-81 0 -10 -3 -10 -12 -1 -7 7 -38 12 -69 12 -32 0 -60 3 -62 8 -3 4 -43 7 -90
7 -67 0 -89 -4 -104 -17 -11 -10 -26 -18 -33 -18 -9 0 -7 5 6 14 14 11 19 26
19 65 0 42 3 51 20 55 31 9 33 7 28 -13 -4 -15 2 -19 34 -23 43 -6 59 9 37 33
-19 21 -18 80 2 123 31 65 -2 126 -68 126 -10 0 -18 5 -18 10 0 6 7 10 16 10
14 0 16 8 10 47 -3 25 -9 49 -11 52 -7 7 -86 4 -93 -4 -12 -11 0 -108 14 -122
13 -14 13 -17 -6 -30 -12 -9 -35 -44 -51 -79 -15 -35 -33 -64 -39 -64 -5 0
-10 -11 -10 -25 0 -32 -15 -35 -177 -38 -120 -2 -132 -1 -128 14 4 12 -8 25
-42 44 -59 34 -120 35 -145 3 -14 -19 -33 -90 -29 -110 0 -5 -3 -8 -7 -8 -5 0
-7 28 -5 63 2 34 -2 159 -9 277 -7 118 -12 308 -13 422 l0 208 -29 0 c-23 0
-27 -3 -21 -17 4 -10 9 -207 12 -438 4 -386 3 -418 -12 -400 -13 16 -29 20
-90 22 -66 1 -75 -1 -80 -18 -4 -12 0 -31 10 -45 20 -31 18 -35 -13 -23 -31
12 -37 35 -17 66 12 18 17 44 16 82 -1 74 11 114 49 158 35 39 37 76 5 81 -12
2 -37 29 -62 69 l-43 65 0 199 c0 126 -4 199 -10 199 -6 0 -10 -61 -11 -160z
m1911 -140 c0 -5 -4 -10 -10 -10 -5 0 -10 5 -10 10 0 6 5 10 10 10 6 0 10 -4
10 -10z m30 -117 c-1 -51 -12 -44 -23 15 -5 24 -3 32 8 32 11 0 15 -12 15 -47z
m273 -19 c-3 -7 -27 -17 -54 -23 -67 -15 -81 -13 -41 4 17 8 32 18 32 23 0 4
15 8 34 8 23 0 32 -4 29 -12z m217 0 c0 -8 -4 -12 -10 -9 -5 3 -10 10 -10 16
0 5 5 9 10 9 6 0 10 -7 10 -16z m-108 -51 c20 -18 24 -33 8 -33 -5 0 -10 5
-10 11 0 7 -8 18 -17 25 -10 7 -14 14 -9 14 5 0 18 -7 28 -17z m-372 -67 c0
-15 -7 -26 -20 -29 -20 -5 -29 -47 -10 -47 6 0 10 -7 10 -15 0 -8 -9 -15 -20
-15 -11 0 -23 -1 -26 -2 -4 -2 -9 14 -11 35 -3 33 1 43 28 68 38 35 49 36 49
5z m297 -26 c9 0 21 8 28 17 11 15 16 14 54 -16 41 -32 41 -32 71 -15 23 14
33 15 41 7 9 -9 9 -16 1 -25 -7 -9 -7 -19 -2 -28 6 -8 10 -27 10 -42 0 -22 5
-28 23 -28 16 0 18 -3 8 -9 -8 -5 -11 -16 -6 -30 5 -15 2 -21 -9 -21 -10 0
-16 -9 -16 -24 0 -19 -4 -23 -20 -19 -12 3 -20 0 -20 -7 0 -19 -26 6 -44 42
-14 28 -14 29 10 40 27 13 31 30 9 48 -16 14 -35 6 -35 -16 0 -8 -10 -14 -25
-14 -28 0 -33 -21 -10 -40 11 -9 13 -25 9 -65 -6 -45 -4 -53 12 -59 11 -4 23
-2 29 6 15 21 79 17 83 -5 3 -16 -9 -17 -180 -15 l-183 3 -6 35 c-7 44 17 90
46 90 39 0 55 21 48 63 -5 31 -10 38 -24 34 -10 -3 -20 1 -23 9 -3 8 -12 14
-21 14 -13 0 -14 4 -5 21 7 11 14 18 17 16 9 -9 81 33 88 51 6 16 7 16 16 0 6
-10 17 -18 26 -18z m-397 0 c0 -5 -10 -10 -22 -10 -19 0 -20 2 -8 10 19 13 30
13 30 0z m-27 -81 c-5 -5 -7 7 -4 29 5 34 6 35 9 8 2 -16 0 -32 -5 -37z
m-1765 31 c12 -6 -22 -9 -104 -10 -102 0 -123 -3 -128 -16 -12 -31 -7 -252 7
-261 6 -4 46 -8 87 -8 61 0 86 -5 132 -27 69 -34 132 -37 168 -8 14 11 29 20
33 20 4 0 6 -42 5 -92 l-3 -93 -37 -6 -38 -6 0 64 c0 49 -3 63 -15 63 -12 0
-15 -13 -15 -59 0 -55 -2 -59 -28 -70 -15 -6 -32 -22 -37 -34 -13 -30 -49 -33
-84 -8 -16 12 -36 21 -45 21 -9 0 -16 7 -16 15 0 8 -3 15 -7 16 -19 2 -45 8
-48 11 -2 2 -6 19 -9 38 -9 74 -31 125 -54 128 -12 2 -22 -2 -22 -9 0 -9 -3
-9 -15 1 -12 10 -12 15 0 34 20 30 17 247 -2 254 -19 6 -16 39 5 51 21 12 247
5 270 -9z m2006 -3 c18 -13 18 -14 1 -35 -17 -19 -19 -20 -31 -4 -30 39 -8 67
30 39z m-2018 -116 c1 -55 -2 -66 -22 -84 -13 -11 -24 -26 -24 -33 0 -15 -119
-24 -137 -11 -9 6 -13 40 -13 104 l0 94 98 -3 97 -3 1 -64z m1974 24 c16 -17
30 -23 43 -19 13 4 17 2 13 -5 -10 -15 -37 -14 -74 5 -47 23 -74 15 -85 -25
-4 -18 -15 -44 -24 -57 -14 -23 -14 -24 6 -24 11 0 21 6 21 13 0 6 8 2 18 -11
17 -22 19 -22 56 -7 33 14 37 19 32 41 -4 13 -2 24 4 24 5 0 10 -6 10 -12 1
-7 5 -32 9 -56 8 -38 7 -42 -9 -37 -12 4 -31 -5 -54 -26 l-36 -31 0 26 c0 22
-8 31 -41 45 -40 18 -79 18 -79 0 0 -5 -6 -9 -12 -9 -7 0 1 13 19 30 33 31 59
91 49 116 -4 11 -17 14 -43 12 -31 -2 -39 -7 -41 -25 -2 -17 2 -23 15 -24 14
0 13 -2 -5 -10 -20 -8 -23 -14 -17 -40 5 -23 2 -36 -12 -52 -11 -12 -25 -44
-32 -72 -23 -93 -34 -78 -26 38 6 98 5 110 -11 122 -18 12 -17 14 6 38 29 28
56 36 153 44 40 3 74 7 76 9 13 12 51 1 71 -21z m-932 -23 c4 -27 -25 -72 -48
-72 -10 0 -23 -7 -30 -15 -7 -8 -21 -15 -31 -15 -11 0 -19 -7 -19 -17 -1 -16
-2 -16 -16 2 -8 11 -13 29 -12 40 2 16 9 19 35 17 31 -3 94 29 92 46 -1 4 -1
15 0 25 1 25 25 16 29 -11z m-78 8 c0 -5 -7 -10 -16 -10 -8 0 -12 5 -9 10 3 6
10 10 16 10 5 0 9 -4 9 -10z m-50 -31 c-7 -11 -14 -18 -17 -15 -8 8 5 36 17
36 7 0 7 -6 0 -21z m578 -3 c24 -17 41 -22 72 -19 36 4 41 1 50 -21 5 -15 17
-26 26 -26 14 0 15 -7 10 -37 -3 -21 -6 -55 -6 -76 l0 -38 -169 2 c-158 3
-171 5 -195 26 -26 22 -34 43 -16 43 6 0 10 7 10 15 0 9 6 18 14 21 8 3 18 18
21 34 8 35 23 49 89 77 63 27 56 27 94 -1z m460 -26 c4 -12 2 -13 -9 -3 -8 6
-25 13 -39 16 -17 4 -15 5 9 4 21 -1 36 -8 39 -17z m502 -77 c0 -10 3 -28 6
-40 5 -17 2 -23 -10 -23 -12 0 -16 10 -16 40 0 22 5 40 10 40 6 0 10 -8 10
-17z m-1610 -23 c-8 -5 -17 -7 -19 -4 -3 3 1 9 9 14 8 5 17 7 19 4 3 -3 -1 -9
-9 -14z m380 -16 c0 -8 -4 -12 -10 -9 -5 3 -10 10 -10 16 0 5 5 9 10 9 6 0 10
-7 10 -16z m-1800 -23 c0 -21 6 -32 21 -36 15 -5 19 -12 15 -28 -3 -12 -6 -29
-6 -37 0 -8 -12 7 -25 33 -26 50 -33 97 -15 97 6 0 10 -13 10 -29z m60 3 c0
-22 -2 -25 -15 -14 -12 10 -13 16 -4 26 16 20 19 18 19 -12z m232 -59 c10 -18
10 -19 -15 -2 -16 10 -28 13 -32 7 -4 -6 -10 -8 -15 -5 -4 2 2 24 13 47 l21
42 8 -35 c5 -18 13 -43 20 -54z m2043 65 c-9 -28 13 -63 36 -57 22 6 26 -11 4
-19 -8 -4 -15 -14 -15 -24 0 -13 -11 -20 -36 -25 -44 -8 -64 7 -37 26 11 9 19
29 21 53 1 22 7 45 13 53 16 19 21 16 14 -7z m-2940 0 c9 0 15 -20 18 -62 10
-121 17 -148 38 -148 5 0 18 -9 29 -20 11 -11 27 -20 35 -20 8 0 15 -4 15 -10
0 -16 -20 -12 -57 11 -27 17 -37 19 -43 9 -10 -17 -33 -2 -26 17 4 9 1 22 -6
31 -7 8 -13 31 -13 51 -2 104 -5 133 -17 128 -9 -3 -12 -25 -10 -78 l3 -74
-20 25 c-11 14 -21 37 -21 51 0 15 -3 40 -6 57 -5 26 -3 31 17 35 13 2 30 3
37 1 8 -2 20 -4 27 -4z m2089 4 c19 -7 12 -49 -12 -76 -24 -28 -32 -21 -32 25
0 56 8 65 44 51z m-2194 -54 c0 -65 -17 -65 -22 0 -2 35 1 50 10 50 8 0 12
-17 12 -50z m2126 -87 c-5 -11 -15 -13 -44 -8 -31 5 -41 2 -60 -18 l-22 -24
49 -53 c59 -64 59 -83 -1 -22 -32 33 -48 42 -74 42 -19 0 -34 5 -34 10 0 6 10
10 23 10 14 0 26 10 34 27 11 23 10 29 -5 46 -14 16 -14 18 -1 16 8 -2 40 20
70 49 l54 53 8 -57 c5 -31 6 -63 3 -71z m-206 105 c0 -4 -12 -10 -27 -14 -16
-3 -33 -7 -40 -9 -7 -2 -15 0 -18 5 -3 5 -21 0 -40 -10 -27 -15 -35 -17 -35
-6 0 42 10 47 86 44 41 -2 74 -6 74 -10z m76 -32 c-27 -24 -55 -42 -62 -39 -8
3 -16 -3 -20 -13 -3 -11 -10 -27 -15 -36 -5 -10 -9 -23 -9 -31 0 -9 -21 -13
-71 -14 -60 -1 -68 1 -58 13 8 10 8 18 1 27 -8 10 -5 16 11 27 12 8 25 13 29
12 15 -4 123 40 152 62 29 21 53 32 81 35 6 0 -12 -19 -39 -43z m-301 13 c5
-5 -14 -9 -48 -9 -53 0 -67 7 -50 24 9 9 85 -3 98 -15z m-872 -40 c-11 -11
-43 -2 -43 11 0 5 9 12 20 15 11 3 21 12 21 18 1 7 4 1 6 -12 3 -13 1 -27 -4
-32z m2332 41 c3 -5 17 -10 30 -10 13 0 27 5 30 10 10 16 19 12 30 -12 7 -17
17 -22 35 -20 22 2 23 1 8 -10 -10 -7 -23 -26 -29 -43 -10 -26 -13 -27 -17
-10 -4 22 -31 55 -43 55 -4 0 -14 -6 -21 -14 -8 -7 -24 -17 -36 -20 -25 -8
-29 -34 -7 -42 21 -8 19 -21 -5 -27 -17 -4 -20 0 -21 26 -1 18 -1 47 0 66 4
46 30 76 46 51z m-1537 -43 c13 3 33 -2 48 -12 l26 -17 -26 -14 c-15 -7 -43
-18 -62 -23 l-34 -9 0 45 c0 36 3 43 13 35 7 -6 23 -9 35 -5z m-652 -32 c21
-14 44 -23 53 -21 16 5 71 -35 71 -52 0 -4 5 -13 12 -20 28 -28 21 -64 -30
-169 -33 -68 -56 -70 -82 -7 -19 42 -21 86 -6 124 3 8 2 37 -2 64 -6 43 -12
53 -41 70 -27 15 -37 17 -52 8 -20 -13 -24 -5 -13 23 8 21 40 14 90 -20z
m1784 19 c0 -20 -24 -44 -46 -44 -24 0 -24 1 -8 25 14 22 54 36 54 19z m-437
-22 c22 -24 5 -48 -41 -61 -31 -9 -32 -9 -26 17 7 27 31 62 44 62 4 0 14 -8
23 -18z m1057 -5 c0 -10 -11 -22 -26 -27 -19 -8 -23 -14 -16 -26 5 -9 5 -33
-1 -57 -11 -51 -66 -167 -78 -167 -15 0 -10 15 11 33 18 15 20 29 20 119 0 89
3 104 21 124 25 26 69 27 69 1z m230 18 c0 -3 -7 -22 -16 -43 -14 -33 -17 -35
-24 -17 -14 33 -11 53 8 58 27 7 32 7 32 2z m60 -2 c-1 -25 -14 -53 -26 -53
-17 0 -17 2 -2 35 10 23 28 35 28 18z m-177 -12 c24 14 35 3 43 -41 5 -34 5
-34 -8 -10 -10 17 -21 24 -36 22 -12 -2 -22 2 -22 7 0 24 -19 9 -30 -24 -10
-32 -15 -35 -48 -34 -37 1 -37 1 -9 11 28 10 36 32 15 42 -7 3 -3 3 9 0 15 -3
26 1 35 15 8 13 16 17 22 11 5 -5 17 -5 29 1z m-1029 -37 c30 -45 72 -74 107
-74 27 0 57 -25 45 -37 -3 -3 -31 -1 -61 6 -48 11 -59 19 -92 61 -21 27 -41
49 -45 50 -4 0 -13 -10 -19 -22 -7 -13 -28 -41 -47 -62 -33 -37 -38 -40 -86
-37 -62 3 -83 19 -67 50 12 21 31 29 31 12 0 -18 38 -22 72 -8 18 8 47 30 64
49 28 32 46 45 66 47 4 1 18 -15 32 -35z m146 6 c0 -18 -3 -19 -20 -10 -22 12
-18 30 6 30 8 0 14 -9 14 -20z m413 -8 c52 -3 70 -8 73 -21 3 -9 10 -24 15
-33 5 -10 9 -52 9 -95 0 -57 4 -81 17 -95 9 -10 11 -18 5 -18 -6 0 -19 11 -28
24 -8 14 -22 22 -29 20 -8 -3 -33 -7 -57 -9 -24 -1 -50 -3 -60 -4 -9 0 -21
-13 -27 -28 -8 -21 -9 9 -4 115 5 121 3 142 -9 142 -10 0 -26 -33 -47 -97 -31
-93 -67 -160 -79 -149 -3 3 2 14 10 23 15 18 37 75 57 149 15 55 48 97 70 88
9 -4 47 -9 84 -12z m-2297 -48 l-15 -49 0 41 c-1 22 4 45 11 52 19 19 20 7 4
-44z m2484 52 c0 -3 -4 -8 -10 -11 -5 -3 -10 -1 -10 4 0 6 5 11 10 11 6 0 10
-2 10 -4z m-2240 -73 c0 -32 -20 -18 -34 24 l-16 48 25 -30 c14 -16 25 -35 25
-42z m740 37 c25 -25 26 -34 1 -20 -29 15 -33 13 -25 -12 4 -13 7 -31 6 -40 0
-9 6 -22 14 -28 11 -10 16 -8 23 11 7 18 10 19 10 7 1 -29 31 -22 31 7 0 14 5
25 11 25 8 0 10 -12 6 -35 -5 -32 -3 -36 26 -49 29 -12 64 -42 93 -78 22 -28
31 -54 38 -104 6 -50 5 -52 -19 -57 -21 -4 -25 -1 -19 12 24 54 8 144 -17 99
-12 -22 -29 -23 -29 -3 0 25 -50 89 -92 118 -22 15 -42 26 -44 24 -10 -10 16
-55 40 -70 14 -10 26 -26 26 -37 0 -11 4 -20 9 -20 5 0 17 -14 25 -32 19 -38
19 -38 3 -38 -9 0 -12 -10 -9 -31 4 -30 4 -30 -38 -27 l-43 3 1 73 c1 56 -2
74 -14 79 -22 8 -28 -3 -25 -52 1 -33 -3 -49 -19 -65 -18 -18 -23 -19 -53 -7
-53 22 -128 31 -138 16 -9 -16 -29 29 -29 67 0 13 -5 24 -12 24 -7 0 -5 5 4
13 17 12 21 26 19 65 -1 26 -29 41 -41 23 -5 -9 -13 -5 -29 15 -11 14 -21 30
-21 34 0 4 17 16 37 25 46 22 69 10 67 -33 l-2 -30 63 -4 c34 -2 76 -1 91 2
28 5 29 8 29 59 0 35 -5 56 -12 58 -8 3 -13 -5 -13 -21 0 -30 -14 -34 -25 -8
-7 16 -8 15 -14 -3 -7 -17 -8 -17 -13 8 -5 24 -2 27 31 33 20 4 43 10 51 15
20 11 17 12 40 -11z m-1194 -53 c-1 -53 -3 -61 -13 -48 -18 23 -17 111 1 111
10 0 13 -15 12 -63z m904 39 c0 -3 -4 -8 -10 -11 -5 -3 -10 -1 -10 4 0 6 5 11
10 11 6 0 10 -2 10 -4z m1347 -18 c-3 -8 -6 -5 -6 6 -1 11 2 17 5 13 3 -3 4
-12 1 -19z m-1992 -8 c3 -5 1 -10 -4 -10 -6 0 -11 5 -11 10 0 6 2 10 4 10 3 0
8 -4 11 -10z m82 -12 c-3 -8 -6 -5 -6 6 -1 11 2 17 5 13 3 -3 4 -12 1 -19z
m2673 6 c0 -12 -41 -74 -49 -74 -6 0 -20 22 -38 62 -2 4 11 3 29 -3 41 -11 38
-12 38 6 0 8 5 15 10 15 6 0 10 -3 10 -6z m-3470 -8 c0 -11 -19 -15 -25 -6 -3
5 1 10 9 10 9 0 16 -2 16 -4z m2717 -13 c5 -14 -59 -28 -83 -19 -15 6 -15 8 2
21 22 16 76 15 81 -2z m452 -63 c-1 -37 -2 -41 -9 -20 -12 38 -12 99 0 80 5
-8 9 -35 9 -60z m197 15 c-10 -27 -24 -15 -24 21 0 34 1 35 15 14 8 -11 12
-27 9 -35z m-36 -9 c0 -1 -9 -2 -20 -3 -15 -1 -20 4 -20 21 0 34 11 39 27 10
7 -15 13 -27 13 -28z m305 12 c8 -30 -5 -37 -25 -13 -13 15 -3 62 10 49 5 -5
12 -21 15 -36z m-2988 10 c-3 -8 -6 -5 -6 6 -1 11 2 17 5 13 3 -3 4 -12 1 -19z
m488 3 c9 -29 -19 -85 -54 -110 -17 -13 -29 -26 -26 -31 3 -5 0 -12 -6 -15
-23 -15 -20 7 9 67 16 35 33 73 36 86 9 27 32 29 41 3z m1057 -16 c58 0 64 -2
70 -24 5 -17 2 -28 -10 -37 -13 -10 -14 -15 -5 -25 10 -10 14 -9 19 4 3 9 10
15 14 12 5 -3 3 -15 -3 -28 -9 -20 -19 -24 -65 -25 -30 -1 -62 -4 -72 -7 -19
-6 -30 27 -30 96 0 21 -5 41 -10 44 -6 4 -8 11 -4 16 3 6 12 3 19 -8 10 -14
27 -18 77 -18z m185 19 c2 -5 -9 -9 -24 -8 -47 2 -54 4 -49 13 8 12 69 8 73
-5z m-1137 -11 c39 5 40 4 40 -26 0 -17 11 -45 26 -65 17 -21 27 -49 28 -73 2
-37 -6 -50 -19 -30 -5 9 -110 24 -167 24 -16 0 -28 3 -28 6 -1 3 12 45 27 92
21 67 31 84 41 77 7 -6 30 -8 52 -5z m-1170 1 c0 -3 -13 -16 -29 -30 -17 -14
-33 -34 -36 -44 -8 -26 -25 -26 -25 -1 0 11 -7 26 -15 35 -26 25 -17 35 38 39
28 2 55 4 60 5 4 1 7 -1 7 -4z m-147 -40 c-4 -10 -9 -12 -15 -6 -12 12 -1 35
12 27 5 -3 6 -13 3 -21z m176 -8 c-12 -26 -29 -35 -29 -16 0 6 4 10 9 10 5 0
11 10 14 22 4 12 9 20 12 16 3 -3 0 -17 -6 -32z m1971 13 c0 -6 -4 -7 -10 -4
-5 3 -10 11 -10 16 0 6 5 7 10 4 6 -3 10 -11 10 -16z m507 -4 l28 -24 -28 -1
c-26 0 -107 34 -107 45 0 3 18 5 39 5 28 0 48 -7 68 -25z m-2267 0 c0 -8 -4
-15 -10 -15 -5 0 -10 7 -10 15 0 8 5 15 10 15 6 0 10 -7 10 -15z m340 -32 c0
-7 -3 -13 -6 -13 -13 0 -43 43 -38 52 7 12 44 -20 44 -39z m58 33 c-2 -1 -12
-8 -22 -16 -18 -14 -19 -14 -7 8 7 12 17 20 22 16 6 -3 9 -7 7 -8z m1712 10
c0 -3 -4 -8 -10 -11 -5 -3 -10 -1 -10 4 0 6 5 11 10 11 6 0 10 -2 10 -4z m-54
-33 c-10 -10 -19 5 -10 18 6 11 8 11 12 0 2 -7 1 -15 -2 -18z m-2226 -3 c0 -5
-5 -10 -11 -10 -5 0 -7 5 -4 10 3 6 8 10 11 10 2 0 4 -4 4 -10z m109 -4 c12
-11 60 -17 184 -22 149 -6 170 -9 181 -26 8 -10 35 -33 62 -50 l49 -31 -47
-14 c-31 -9 -48 -19 -48 -29 0 -11 -6 -13 -19 -9 -30 9 -36 -14 -10 -41 l23
-25 -39 5 c-22 3 -103 8 -180 11 -76 3 -141 7 -143 10 -9 9 -22 85 -23 143 -1
34 -6 65 -10 68 -11 6 -12 24 -2 24 3 0 14 -6 22 -14z m1664 -17 c12 9 15 3
21 -36 3 -27 7 -57 8 -67 6 -38 -21 -27 -27 11 -4 21 -21 58 -38 83 -29 43
-29 44 -4 21 21 -19 29 -21 40 -12z m583 6 c10 -8 36 -15 56 -15 52 0 71 -9
57 -26 -6 -8 -20 -14 -30 -14 -24 0 -130 56 -122 64 9 9 17 7 39 -9z m869 6
c-6 -4 -24 -11 -42 -14 -26 -5 -31 -3 -26 8 3 9 19 15 41 15 21 0 32 -4 27 -9z
m-3415 -16 c0 -8 -4 -15 -10 -15 -5 0 -10 7 -10 15 0 8 5 15 10 15 6 0 10 -7
10 -15z m100 5 c0 -5 -5 -10 -11 -10 -5 0 -7 5 -4 10 3 6 8 10 11 10 2 0 4 -4
4 -10z m837 -12 c-3 -8 -6 -5 -6 6 -1 11 2 17 5 13 3 -3 4 -12 1 -19z m1553
17 c0 -2 -12 -15 -27 -29 -27 -25 -35 -26 -95 -9 -32 8 -20 26 15 20 18 -3 46
1 62 8 33 15 45 17 45 10z m273 -20 c10 -14 15 -25 11 -25 -11 0 -44 32 -44
42 0 15 15 8 33 -17z m-43 -11 c0 -8 -5 -12 -10 -9 -6 4 -8 11 -5 16 9 14 15
11 15 -7z m-1930 -25 c0 -12 -4 -19 -10 -17 -5 2 -10 6 -10 11 0 4 0 14 0 23
0 8 5 12 10 9 6 -3 10 -15 10 -26z m126 -6 c-10 -10 -19 5 -10 18 6 11 8 11
12 0 2 -7 1 -15 -2 -18z m-54 -15 c-7 -7 -12 -8 -12 -2 0 14 12 26 19 19 2 -3
-1 -11 -7 -17z m1691 7 c20 -8 38 -19 42 -24 8 -15 -28 -31 -69 -31 -41 0 -66
31 -45 56 15 18 28 18 72 -1z m287 11 c0 -2 -7 -7 -16 -10 -8 -3 -12 -2 -9 4
6 10 25 14 25 6z m157 -2 c-3 -3 -12 -4 -19 -1 -8 3 -5 6 6 6 11 1 17 -2 13
-5z m426 -7 c4 -11 -28 -77 -38 -77 -2 0 1 17 6 38 5 20 9 40 9 45 0 12 18 8
23 -6z m-72 -45 c-7 -13 -7 -22 1 -30 9 -9 9 -15 1 -23 -17 -17 -27 56 -11 83
10 19 13 20 16 6 2 -9 -1 -25 -7 -36z m119 36 c0 -7 3 -24 6 -38 6 -24 5 -23
-15 5 -25 36 -26 45 -6 45 8 0 15 -6 15 -12z m60 -56 c0 -4 -9 7 -20 23 -11
17 -20 35 -20 40 0 6 9 -5 20 -23 11 -18 20 -36 20 -40z m-658 -7 c18 -63 18
-65 -7 -65 -13 0 -30 -3 -38 -6 -11 -4 -14 0 -12 13 2 10 7 35 10 56 7 47 34
48 47 2z m148 26 c0 -5 9 -11 20 -14 18 -5 20 -11 14 -49 -4 -23 -8 -44 -9
-45 -1 -2 -20 -4 -43 -6 l-42 -3 0 49 c0 40 3 50 20 54 11 3 20 9 20 14 0 5 5
9 10 9 6 0 10 -4 10 -9z m219 -31 c-10 -21 -24 -61 -30 -88 l-10 -50 -50 3
c-62 3 -72 11 -28 22 26 7 39 20 59 59 19 38 63 91 77 94 0 0 -7 -18 -18 -40z
m-502 -47 c17 -30 39 -49 76 -67 52 -27 53 -30 3 -26 -56 4 -72 16 -86 64 -7
26 -17 49 -21 52 -5 3 -8 17 -8 32 1 21 2 23 6 7 3 -11 16 -39 30 -62z m-1492
52 c137 -13 182 -34 166 -79 -10 -24 4 -70 18 -62 5 4 13 21 17 38 15 70 23
72 127 46 l38 -9 -35 -32 c-20 -18 -47 -40 -61 -50 -14 -10 -25 -27 -25 -39 0
-20 -1 -21 -20 -3 -16 15 -30 17 -76 11 -104 -12 -114 -32 -93 -181 6 -42 8
-79 5 -82 -3 -3 -12 21 -22 53 -23 81 -62 167 -80 177 -7 4 -14 17 -14 27 0
26 -14 25 -50 -2 -23 -17 -30 -30 -30 -55 0 -19 -9 -51 -20 -73 -11 -22 -20
-48 -20 -60 0 -11 -6 -20 -14 -20 -9 0 -15 17 -19 53 -5 53 9 137 23 137 13 0
29 61 28 109 0 28 5 48 14 55 8 6 20 21 27 34 8 14 18 21 29 18 9 -3 49 -8 87
-11z m-975 -37 c0 -10 5 -18 10 -18 6 0 10 -4 10 -10 0 -5 -15 -10 -34 -10
l-35 0 17 39 c16 38 32 38 32 -1z m590 26 c0 -8 -16 -22 -35 -30 -39 -16 -130
-19 -120 -4 3 6 24 10 46 10 29 0 39 4 39 16 0 11 6 13 19 9 11 -3 22 -1 26 5
9 15 25 12 25 -6z m1200 -22 c0 -15 -2 -15 -10 -2 -13 20 -13 33 0 25 6 -3 10
-14 10 -23z m1402 12 c9 9 23 13 32 10 17 -6 30 -57 24 -95 -3 -21 -8 -24 -43
-24 -22 0 -41 -3 -42 -7 -8 -22 1 -28 37 -28 43 0 48 -6 26 -35 -13 -18 -15
-18 -41 -1 -15 10 -29 15 -32 12 -11 -10 16 -56 32 -56 25 0 39 -43 24 -71
l-12 -23 -16 34 c-8 19 -23 52 -32 72 -10 23 -13 40 -7 46 6 6 5 17 -4 31 -13
22 -38 29 -38 11 0 -5 -4 -10 -9 -10 -5 0 -7 9 -4 21 4 15 12 20 29 16 17 -3
24 2 29 20 3 14 1 31 -5 38 -9 10 -7 18 7 32 15 15 19 16 24 5 4 -12 8 -12 21
2z m-2496 -19 c14 -13 13 -15 -10 -15 -18 0 -24 4 -20 15 4 8 8 15 11 15 2 0
11 -7 19 -15z m2358 -17 c6 -4 8 -9 5 -12 -7 -7 -69 16 -69 25 0 12 45 15 49
4 2 -5 9 -13 15 -17z m-999 -9 c38 -26 48 -29 61 -18 12 10 18 9 32 -4 15 -16
15 -17 -1 -17 -9 0 -17 -4 -17 -10 0 -16 -40 -51 -50 -45 -6 4 -10 19 -10 36
0 16 -5 29 -12 29 -14 0 -58 40 -58 52 0 13 6 10 55 -23z m365 -1 c0 -5 -7 -3
-15 6 -8 8 -15 18 -15 22 0 3 7 1 15 -6 8 -7 15 -17 15 -22z m450 3 c0 -5 -7
-11 -14 -14 -10 -4 -13 -1 -9 9 6 15 23 19 23 5z m-1003 -21 c23 -9 30 -17 30
-39 0 -17 -8 -33 -19 -40 -15 -10 -20 -7 -30 14 -6 14 -15 25 -20 25 -10 0
-11 34 -1 43 8 9 5 9 40 -3z m121 -3 c6 -5 12 -17 12 -26 -1 -14 -2 -14 -11 2
-5 9 -21 17 -34 17 -14 0 -25 4 -25 9 0 12 41 11 58 -2z m-308 -7 c0 -5 -7
-10 -16 -10 -8 0 -12 5 -9 10 3 6 10 10 16 10 5 0 9 -4 9 -10z m710 -5 c11
-13 10 -14 -4 -9 -9 3 -16 10 -16 15 0 13 6 11 20 -6z m640 -13 c0 -14 -23
-32 -42 -32 -20 0 -25 26 -5 33 20 8 47 8 47 -1z m-726 -86 c15 -31 26 -60 23
-63 -3 -3 -15 16 -27 41 -21 48 -29 53 -47 35 -8 -8 -16 -6 -30 8 -14 14 -29
18 -56 15 -25 -3 -37 0 -37 8 0 7 7 10 15 7 8 -4 17 -2 21 4 12 20 49 27 79
15 21 -9 38 -29 59 -70z m-286 54 c6 0 12 -5 12 -11 0 -15 -63 -6 -68 10 -4
10 1 12 19 8 13 -4 30 -7 37 -7z m-1276 -22 c-7 -7 -12 -8 -12 -2 0 14 12 26
19 19 2 -3 -1 -11 -7 -17z m797 2 c12 -22 8 -103 -5 -107 -11 -4 -54 83 -54
109 0 19 49 17 59 -2z m826 2 c23 -6 35 -20 35 -44 0 -24 -52 -8 -65 20 -5 12
-13 22 -17 22 -5 0 -8 5 -8 11 0 7 7 8 18 4 9 -4 26 -10 37 -13z m-684 -19 c6
-18 5 -23 -7 -23 -8 0 -18 8 -21 18 -4 9 -11 21 -17 25 -6 4 -1 7 13 5 14 -2
27 -12 32 -25z m753 1 c10 -37 2 -39 -11 -4 -6 17 -8 30 -3 30 4 0 11 -12 14
-26z m-973 -31 c16 -35 22 -68 23 -125 1 -43 -2 -78 -6 -78 -12 0 -15 25 -10
76 3 38 -1 60 -17 92 -19 37 -28 82 -16 82 2 0 14 -21 26 -47z m1604 7 c0 -22
-3 -40 -7 -40 -5 0 -8 -36 -8 -80 0 -44 -4 -80 -8 -80 -13 0 -48 41 -66 77 -9
18 -16 56 -16 87 l0 55 34 -6 c23 -3 37 0 47 11 21 23 24 20 24 -24z m-339
-34 c-28 -47 -43 -62 -54 -52 -3 4 4 13 15 21 11 8 24 27 28 42 6 26 25 47 33
38 3 -2 -7 -24 -22 -49z m-2011 34 c-3 -5 -10 -10 -16 -10 -5 0 -9 5 -9 10 0
6 7 10 16 10 8 0 12 -4 9 -10z m1415 -21 c0 -10 -4 -19 -9 -19 -12 0 -23 29
-15 41 8 14 24 0 24 -22z m433 24 c-13 -2 -33 -2 -45 0 -13 2 -3 4 22 4 25 0
35 -2 23 -4z m-368 -17 c18 -8 36 -12 38 -9 3 2 17 -3 31 -12 22 -15 26 -24
25 -64 -2 -102 -28 -125 -74 -66 -19 26 -33 35 -46 32 -23 -6 -25 9 -4 30 14
14 18 13 36 -3 12 -11 27 -31 35 -46 23 -45 37 -35 29 20 -8 52 -22 75 -41 68
-7 -3 -16 -1 -20 5 -3 6 -12 8 -19 5 -7 -2 -18 7 -24 20 -18 40 -17 41 34 20z
m449 -48 c5 -39 4 -58 -3 -58 -7 0 -11 24 -11 62 0 74 5 73 14 -4z m46 58 c0
-3 -4 -8 -10 -11 -5 -3 -10 -1 -10 4 0 6 5 11 10 11 6 0 10 -2 10 -4z m-1040
-36 c0 -5 -2 -10 -4 -10 -3 0 -8 5 -11 10 -3 6 -1 10 4 10 6 0 11 -4 11 -10z
m50 0 c0 -5 -5 -10 -11 -10 -5 0 -7 5 -4 10 3 6 8 10 11 10 2 0 4 -4 4 -10z
m1445 -137 c-14 -13 -37 -23 -51 -23 -24 0 -25 1 -22 69 4 82 13 84 21 5 6
-58 12 -73 24 -60 7 7 6 79 -2 131 -3 21 5 10 26 -35 l31 -64 -27 -23z m-1715
104 c0 -5 -4 -5 -10 -2 -5 3 -10 14 -10 23 0 15 2 15 10 2 5 -8 10 -19 10 -23z
m582 21 c-5 -7 -10 -26 -10 -41 1 -34 -10 -46 -22 -27 -11 17 -13 64 -3 73 3
4 15 7 26 7 14 0 17 -3 9 -12z m566 -11 c38 -40 8 -50 -48 -16 -32 20 -33 23
-15 30 32 12 40 10 63 -14z m-1293 3 c3 -5 1 -10 -4 -10 -6 0 -11 5 -11 10 0
6 2 10 4 10 3 0 8 -4 11 -10z m785 -11 c0 -6 6 -9 13 -6 12 4 36 -20 37 -38 0
-5 -20 -10 -45 -10 -25 0 -45 3 -45 7 0 5 5 8 10 8 6 0 10 11 10 25 0 14 5 25
10 25 6 0 10 -5 10 -11z m80 1 c0 -5 -4 -10 -10 -10 -5 0 -10 5 -10 10 0 6 5
10 10 10 6 0 10 -4 10 -10z m-1412 -45 c7 -15 8 -34 3 -47 -5 -13 -14 -56 -21
-95 -6 -40 -13 -73 -15 -73 -2 0 -16 12 -32 27 -21 22 -28 39 -31 84 -4 54 -2
58 32 93 20 20 40 36 45 36 4 0 13 -11 19 -25z m948 -47 c-3 -18 -5 -40 -6
-48 -1 -13 -28 89 -29 114 -1 6 8 0 19 -12 14 -15 19 -31 16 -54z m92 33 c26
-22 27 -28 7 -47 -12 -13 -16 -13 -20 -2 -2 7 -9 25 -14 41 -12 32 -3 35 27 8z
m-48 -51 c3 -37 1 -50 -9 -50 -5 0 -9 23 -9 52 0 51 14 49 18 -2z m587 3 c-3
-10 -5 -4 -5 12 0 17 2 24 5 18 2 -7 2 -21 0 -30z m-212 11 c15 5 22 -21 27
-99 2 -29 8 -41 21 -43 15 -3 17 2 11 39 -5 31 -4 40 4 35 7 -4 12 -27 12 -52
0 -46 9 -54 31 -28 12 15 11 21 -18 102 -3 6 0 12 6 12 6 0 11 -5 11 -11 0 -7
11 -22 25 -35 l24 -22 22 34 c12 19 23 33 26 30 10 -9 -39 -86 -69 -109 -36
-27 -108 -50 -129 -42 -35 13 -78 114 -79 182 0 20 3 21 30 11 17 -5 37 -8 45
-4z m-495 -38 c0 -6 -7 -2 -15 8 -8 11 -15 25 -15 30 0 6 7 2 15 -8 8 -11 15
-25 15 -30z m-210 -170 c0 -2 -8 -10 -17 -17 -16 -13 -17 -12 -4 4 13 16 21
21 21 13z"/>
<path d="M3517 1918 c-6 -22 7 -48 24 -48 5 0 8 16 7 35 -1 39 -22 48 -31 13z"/>
<path d="M3517 1703 c-14 -13 -6 -23 18 -23 16 0 25 6 25 15 0 15 -31 21 -43
8z"/>
<path d="M1496 1533 c-13 -13 -6 -63 9 -63 10 0 15 10 15 29 0 30 -12 46 -24
34z"/>
<path d="M1243 1523 c-33 -6 -29 -38 8 -63 35 -25 34 -25 42 16 5 28 -7 56
-22 53 -4 -1 -16 -4 -28 -6z"/>
<path d="M1492 1349 c1 -13 8 -23 13 -21 15 3 12 35 -3 40 -9 3 -13 -3 -10
-19z"/>
<path d="M3790 2005 c0 -8 5 -15 10 -15 6 0 10 7 10 15 0 8 -4 15 -10 15 -5 0
-10 -7 -10 -15z"/>
<path d="M114 1967 c-5 -14 43 -77 58 -77 18 0 6 41 -17 65 -30 29 -34 30 -41
12z"/>
<path d="M1793 1834 c-3 -8 -1 -20 6 -27 8 -8 11 -4 11 16 0 30 -7 35 -17 11z"/>
<path d="M2226 823 c-12 -12 -6 -33 9 -33 8 0 15 6 15 14 0 17 -14 28 -24 19z"/>
<path d="M3096 747 c-20 -15 -14 -37 9 -37 19 0 28 17 18 35 -8 13 -12 13 -27
2z"/>
<path d="M2306 612 c-9 -29 1 -62 20 -62 17 0 18 27 0 59 l-14 24 -6 -21z"/>
<path d="M1506 543 c-3 -4 -6 -15 -6 -25 0 -15 8 -18 60 -18 47 0 60 3 60 15
0 14 -15 19 -49 17 -8 0 -24 4 -37 8 -12 5 -25 6 -28 3z"/>
</g>
</svg>
