<?xml version="1.0" standalone="no"?>
<!DOCTYPE svg PUBLIC "-//W3C//DTD SVG 20010904//EN"
 "http://www.w3.org/TR/2001/REC-SVG-20010904/DTD/svg10.dtd">
<svg version="1.0" xmlns="http://www.w3.org/2000/svg"
 width="256.000000pt" height="384.000000pt" viewBox="0 0 256.000000 384.000000"
 preserveAspectRatio="xMidYMid meet">
<metadata>
Created by potrace 1.16, written by Peter Selinger 2001-2019
</metadata>
<g transform="translate(0.000000,384.000000) scale(0.100000,-0.100000)"
fill="#000000" stroke="none">
<path d="M730 2441 c-13 -25 0 -34 35 -25 18 4 25 2 25 -9 0 -9 18 -18 53 -25
28 -5 53 -9 55 -8 9 9 -14 36 -30 36 -17 0 -18 3 -8 15 6 8 9 19 5 25 -9 15
-35 12 -35 -5 0 -10 -10 -15 -29 -15 -16 0 -31 6 -35 15 -8 21 -23 19 -36 -4z"/>
<path d="M664 2429 c-12 -20 -88 -49 -130 -49 -23 0 -61 -7 -84 -15 -53 -19
-52 -19 -49 3 3 33 -1 46 -10 37 -5 -6 -11 -26 -13 -45 -3 -40 -15 -38 129
-21 45 5 97 17 115 26 47 22 81 53 73 65 -8 13 -22 13 -31 -1z"/>
<path d="M1022 2417 c-40 -10 -56 -36 -17 -29 13 3 16 -1 11 -13 -3 -9 -6 -22
-6 -27 0 -6 -16 5 -37 25 -20 21 -42 37 -50 37 -19 0 -16 -28 5 -35 15 -5 82
-84 82 -97 0 -10 -36 -6 -77 9 -59 21 -170 22 -210 2 -17 -9 -34 -15 -36 -12
-3 2 -49 6 -103 9 -54 3 -103 9 -109 14 -14 12 -106 -7 -124 -25 -14 -13 -12
-15 9 -15 14 0 42 4 63 9 21 5 39 5 43 0 3 -5 36 -9 73 -9 37 0 72 -5 78 -11
8 -8 21 -8 48 1 55 18 226 22 256 6 59 -31 119 -28 119 4 0 18 19 30 46 30 8
0 13 -5 12 -11 -2 -6 3 -14 10 -16 7 -3 12 5 12 21 0 15 -7 29 -15 32 -8 3
-17 14 -20 25 -9 26 -20 24 -33 -7 -7 -14 -17 -22 -23 -18 -8 5 -8 9 1 14 8 5
10 18 6 33 -5 23 -3 26 34 32 68 12 92 0 123 -61 17 -35 23 -54 15 -53 -27 4
-78 -14 -78 -27 0 -19 79 -18 103 1 17 12 18 18 7 49 -6 19 -18 40 -26 46 -28
24 -15 33 41 26 31 -3 55 -2 55 3 0 13 -26 21 -68 21 -20 1 -48 7 -62 15 -28
16 -95 17 -158 2z"/>
<path d="M1126 2371 c-3 -5 1 -12 10 -15 20 -8 29 -1 19 13 -8 13 -22 14 -29
2z"/>
<path d="M1500 2326 c0 -35 12 -52 29 -42 9 6 -10 76 -21 76 -5 0 -8 -15 -8
-34z"/>
<path d="M1697 2353 c-4 -3 2 -12 13 -20 28 -20 162 -73 183 -73 42 0 -8 44
-59 53 -10 2 -41 13 -68 25 -53 24 -59 25 -69 15z"/>
<path d="M1388 2320 c5 -32 32 -42 32 -12 0 18 -18 42 -30 42 -4 0 -5 -13 -2
-30z"/>
<path d="M1450 2322 c0 -28 10 -52 22 -52 14 0 5 63 -9 68 -8 2 -13 -5 -13
-16z"/>
<path d="M265 2225 c-25 -24 -45 -51 -45 -60 0 -8 -4 -15 -10 -15 -5 0 -10 5
-10 10 0 6 -40 10 -100 10 l-100 0 1 -72 c1 -67 2 -70 11 -38 6 19 13 29 15
23 6 -15 33 -17 33 -3 0 6 10 8 23 5 12 -3 40 -7 62 -9 53 -5 53 -5 33 -17
-10 -5 -18 -19 -18 -29 0 -15 -7 -20 -27 -20 -25 1 -26 2 -10 14 33 25 21 39
-29 32 -62 -8 -68 -13 -48 -43 l16 -26 -23 17 c-31 21 -39 20 -39 -4 0 -11 5
-20 10 -20 6 0 10 -11 10 -25 0 -14 5 -25 10 -25 6 0 10 -11 10 -25 0 -14 5
-25 10 -25 6 0 15 -11 20 -25 5 -14 14 -25 20 -25 5 0 10 -7 10 -15 0 -9 9
-15 25 -15 32 0 32 17 0 32 -14 6 -25 17 -25 24 0 7 -4 14 -8 16 -4 2 -6 26
-4 55 3 38 9 54 20 57 29 9 72 -8 85 -34 7 -14 23 -26 35 -28 27 -4 24 -25 -4
-31 -10 -2 -22 -8 -26 -15 -5 -7 -12 -5 -21 8 -10 14 -21 17 -40 12 -15 -3
-27 -13 -27 -21 0 -18 23 -32 28 -17 7 22 21 13 24 -15 2 -24 8 -29 36 -31 48
-5 68 4 52 23 -10 12 -10 19 2 33 35 39 44 142 13 142 -16 0 -27 -27 -15 -35
13 -8 13 -25 0 -25 -15 0 -50 38 -49 53 0 10 2 10 6 0 8 -22 35 -16 28 6 -3
11 -2 22 3 25 15 9 51 -5 57 -23 3 -10 16 -16 35 -17 25 -1 30 3 30 22 0 14
-5 22 -12 20 -7 -1 -10 -1 -5 1 4 3 7 11 7 19 0 8 5 14 10 14 6 0 10 9 10 20
0 11 7 20 15 20 8 0 15 -7 15 -15 0 -19 20 -19 48 1 12 8 27 12 33 8 6 -3 62
-6 125 -5 l114 2 0 -24 c0 -14 -7 -27 -15 -31 -9 -3 -76 -9 -150 -12 -99 -5
-135 -4 -135 4 0 7 -7 12 -15 12 -8 0 -15 -9 -15 -20 0 -11 -4 -20 -10 -20
-18 0 -10 -35 12 -54 15 -13 37 -19 67 -18 25 0 39 -3 32 -8 -7 -4 -18 -18
-25 -31 -6 -13 -21 -24 -31 -24 -13 0 -20 -7 -20 -20 0 -15 5 -19 20 -16 11 2
38 5 60 6 48 3 58 23 16 31 -41 8 -30 23 17 22 20 0 42 1 47 2 22 5 45 -1 45
-11 0 -5 -10 -9 -22 -7 -15 2 -24 -3 -26 -14 -2 -13 4 -17 30 -16 18 1 36 5
39 11 4 5 33 10 65 11 33 1 65 5 72 9 8 5 12 3 12 -7 0 -9 9 -16 20 -16 11 0
23 -6 26 -14 3 -9 17 -14 32 -13 27 2 27 3 32 102 6 119 15 115 19 -10 2 -64
7 -95 19 -107 8 -10 11 -18 6 -19 -5 0 0 -4 11 -8 32 -12 155 -1 155 14 0 19
-13 21 -86 15 -69 -6 -92 3 -50 20 14 5 26 16 26 25 0 12 4 13 25 3 14 -6 25
-15 25 -20 0 -4 13 -8 30 -8 17 0 33 -7 40 -17 9 -17 11 -17 21 0 9 16 12 16
26 1 22 -22 39 -3 21 25 -10 17 -19 21 -40 17 l-28 -5 0 84 c0 51 -4 85 -10
85 -11 0 -50 58 -50 75 0 9 100 12 109 4 2 -2 1 -15 -4 -28 -9 -28 6 -41 50
-41 32 0 75 -24 75 -41 0 -5 -6 -9 -12 -8 -48 6 -108 -2 -108 -15 0 -8 6 -16
13 -19 15 -6 101 0 129 8 19 7 25 -9 8 -20 -5 -3 -10 -21 -11 -38 0 -30 -1
-31 -11 -9 -12 24 -16 26 -37 13 -8 -5 -12 -18 -8 -30 3 -11 -1 -25 -9 -32
-56 -46 62 -63 329 -47 l97 5 0 -24 c0 -13 6 -33 13 -44 10 -17 10 -23 0 -26
-7 -3 -13 -17 -13 -32 0 -49 -25 -61 -132 -61 -68 0 -98 4 -101 13 -4 8 -8 9
-14 1 -5 -7 -28 -9 -65 -4 -32 3 -59 2 -60 -2 -2 -4 -18 -4 -36 1 -39 12 -201
3 -220 -12 -17 -13 -67 -2 -90 21 -17 17 -19 26 -22 99 -3 52 -18 92 -30 73
-9 -15 -22 -17 -131 -23 -42 -3 -81 -7 -87 -11 -6 -3 -13 -2 -17 4 -3 5 -21 9
-40 8 -19 -1 -38 2 -42 5 -3 4 7 7 23 7 16 0 47 7 69 14 26 9 47 11 63 5 13
-5 28 -7 33 -3 14 9 10 31 -7 38 -25 10 -82 7 -89 -4 -4 -6 -11 -8 -16 -5 -5
4 -14 3 -21 -1 -7 -4 -26 -9 -42 -11 -17 -2 -35 -8 -40 -13 -6 -6 -19 -10 -29
-10 -11 0 -26 -8 -33 -17 -12 -17 -13 -16 -14 5 0 15 -6 22 -19 22 -31 0 -51
-11 -51 -29 -1 -14 -2 -14 -14 2 -14 19 -71 24 -81 7 -4 -6 -2 -17 4 -24 15
-18 8 -106 -10 -117 -25 -16 -28 -10 -31 53 -2 41 -8 63 -17 66 -11 4 -13 -9
-9 -62 l4 -66 -129 0 -128 0 3 -37 3 -38 90 -7 c50 -3 253 -9 453 -13 320 -6
366 -5 387 9 18 12 37 14 71 9 36 -5 50 -3 58 9 17 23 193 31 205 10 8 -14 14
-14 50 -2 32 10 46 11 64 1 15 -8 78 -11 202 -9 152 3 180 5 180 18 0 10 -11
15 -38 16 -49 1 -61 14 -14 14 21 0 37 4 37 8 0 5 25 10 56 11 67 2 77 6 69
31 -4 12 1 19 15 23 40 10 356 8 386 -3 20 -8 30 -8 32 -1 2 6 8 11 13 11 4 0
6 -7 3 -15 -3 -8 8 -31 25 -52 17 -21 31 -41 31 -45 0 -5 -109 -8 -242 -9
-240 0 -287 -3 -483 -33 -81 -13 -130 -14 -261 -6 -88 6 -185 14 -214 20 -29
5 -62 10 -73 10 -34 0 0 -29 42 -35 20 -3 52 -10 71 -15 19 -5 70 -10 113 -12
93 -3 107 -9 89 -39 -7 -11 -11 -23 -8 -26 10 -10 180 -7 352 5 120 9 179 10
198 2 15 -5 43 -10 63 -10 69 0 111 -19 126 -59 8 -20 14 -37 13 -37 -3 -4
-340 -19 -406 -18 -41 0 -286 4 -545 8 -467 7 -639 11 -1018 24 l-197 7 0 -22
c0 -22 4 -23 65 -23 37 0 65 -4 65 -10 0 -5 -9 -10 -20 -10 -15 0 -22 -9 -26
-30 -8 -39 -24 -39 -24 0 0 27 -3 30 -30 30 l-30 0 0 -79 c0 -93 -3 -91 127
-91 45 0 84 -4 88 -9 3 -5 23 -8 45 -6 22 2 40 2 40 1 0 -2 -24 -15 -53 -30
-37 -18 -59 -37 -74 -65 -21 -36 -22 -48 -17 -129 4 -49 4 -105 0 -125 -8 -41
-20 -47 -105 -50 l-51 -2 0 -62 c0 -40 4 -63 13 -66 10 -4 10 -6 0 -6 -7 -1
-13 -12 -13 -26 0 -18 5 -25 19 -25 11 0 23 -4 26 -10 9 -15 45 -12 51 5 8 20
24 19 24 -1 0 -13 6 -15 28 -9 44 11 213 6 467 -13 164 -13 196 -20 202 -44 7
-25 18 -23 33 9 13 27 14 27 18 5 4 -24 21 -29 40 -10 7 7 12 8 12 2 0 -15
142 -17 152 -2 4 7 8 8 8 2 0 -7 59 -9 181 -6 118 3 183 1 188 -6 3 -5 26 -11
51 -13 25 -1 50 -6 56 -11 7 -5 16 -8 20 -7 5 1 22 -3 37 -9 40 -17 64 -15 76
5 9 16 10 16 16 2 5 -13 26 -16 123 -17 169 -3 434 -12 458 -17 19 -4 21 -10
17 -67 -3 -35 -5 -73 -5 -84 0 -13 -11 -27 -25 -35 -22 -12 -26 -11 -34 4 -13
22 -69 24 -69 2 0 -17 46 -39 61 -29 5 3 9 0 9 -5 0 -6 7 -11 15 -11 8 0 15
-5 15 -10 0 -6 -6 -10 -12 -9 -35 4 -43 -2 -24 -16 32 -24 46 -18 66 28 26 57
33 100 30 177 -1 36 -2 72 -2 80 1 8 3 71 6 140 8 211 23 431 30 437 3 4 6
-16 6 -43 0 -28 5 -55 11 -61 8 -8 7 -48 -6 -150 -10 -76 -18 -187 -19 -248
-1 -94 1 -109 14 -105 22 7 142 5 166 -3 20 -7 21 -5 16 35 -2 24 -4 57 -4 73
9 307 9 441 2 386 -5 -35 -11 -100 -13 -145 -4 -83 -12 -116 -28 -116 -12 0
-11 37 1 45 6 3 10 51 10 108 0 85 -3 108 -21 136 -14 23 -25 32 -38 28 -25
-6 -34 2 -48 43 -11 30 -11 37 6 53 16 17 26 18 80 10 l61 -10 0 156 0 156
-133 -1 c-72 -1 -136 2 -142 6 -5 3 -22 7 -37 8 -21 1 -28 -3 -28 -16 0 -10 4
-22 9 -27 18 -20 59 -103 66 -133 3 -18 12 -38 20 -45 7 -7 16 -27 19 -44 6
-26 4 -32 -13 -38 -11 -3 -31 0 -43 7 -14 7 -64 13 -128 14 -126 1 -130 2
-130 12 0 9 19 11 139 11 79 0 99 -3 123 -20 26 -19 28 -19 28 -2 0 10 -14 45
-30 78 -16 33 -30 64 -30 69 0 5 -6 17 -13 25 -7 9 -19 39 -25 66 -7 28 -22
68 -32 89 -11 22 -18 42 -16 44 2 2 91 5 197 7 l194 3 3 40 3 40 -44 -9 c-25
-4 -164 -8 -311 -8 -146 0 -271 -3 -276 -6 -6 -4 -73 -11 -148 -16 -75 -5
-177 -13 -227 -18 -86 -8 -104 -4 -105 20 0 3 57 9 128 12 70 3 158 13 197 23
61 16 118 18 427 18 351 1 358 1 358 21 0 18 -6 20 -67 17 -68 -3 -68 -3 -82
28 -9 21 -12 53 -8 95 4 53 2 65 -12 71 -11 5 -5 9 24 16 21 5 43 14 47 21 5
9 10 9 19 0 6 -6 17 -9 24 -6 8 2 23 0 34 -7 21 -10 21 -9 20 72 -1 82 -1 83
-11 32 -9 -49 -10 -50 -38 -46 -31 4 -40 17 -18 24 9 3 9 13 2 39 -8 26 -15
33 -30 31 -10 -2 -44 -5 -74 -8 -30 -3 -79 -12 -108 -20 -40 -12 -59 -13 -83
-5 -17 6 -35 9 -39 6 -4 -2 -21 0 -38 5 -35 9 -47 1 -38 -28 6 -18 89 -57 118
-55 10 1 20 -2 23 -8 10 -15 -72 -10 -89 6 -8 8 -22 15 -31 15 -8 0 -18 7 -21
15 -4 8 -12 15 -20 15 -10 0 -11 -6 -4 -25 11 -30 6 -33 -50 -30 -25 2 -50 -1
-55 -5 -6 -5 -17 -5 -25 0 -12 8 -10 10 7 10 13 0 24 8 28 21 9 26 6 28 -34
31 -18 1 -35 6 -38 11 -3 5 30 6 73 3 73 -4 104 3 104 24 0 4 -39 10 -87 14
-138 10 -194 16 -243 27 -25 5 -73 10 -107 12 -35 1 -63 5 -63 8 0 4 21 12 48
19 26 7 64 27 85 43 38 29 84 106 70 117 -5 3 -20 15 -34 28 -28 24 -59 21
-59 -7 0 -9 -7 -24 -14 -34 -14 -18 -15 -18 -25 0 -6 10 -11 12 -11 6 0 -7 -9
-13 -20 -13 -12 0 -35 -7 -52 -16 -35 -18 -189 -21 -233 -4 -37 14 -45 13 -45
-9 0 -15 10 -19 53 -25 98 -11 222 -7 243 9 10 8 37 15 59 15 44 0 65 14 65
42 0 24 8 23 30 -4 17 -22 17 -23 -28 -59 -61 -51 -142 -79 -228 -79 -38 0
-85 -5 -105 -10 -34 -10 -39 -8 -75 26 -31 28 -45 34 -66 30 -23 -5 -28 -2
-28 14 0 11 4 20 10 20 5 0 27 16 47 35 28 26 34 38 26 46 -9 9 -20 5 -47 -17
-19 -16 -33 -35 -31 -41 6 -17 -6 -16 -32 2 -28 19 -181 24 -193 6 -6 -10 -13
-9 -35 5 -25 16 -35 17 -124 5 -165 -21 -381 -15 -381 10 0 13 -24 11 -38 -3
-10 -10 -152 -19 -152 -10 0 13 44 62 60 67 13 4 20 15 20 31 0 35 -15 30 -65
-21z m698 -157 c19 -109 19 -127 2 -145 -17 -17 -18 -14 -13 55 5 65 4 72 -13
72 -22 0 -23 4 -7 30 18 28 25 25 31 -12z m-683 -3 c0 -8 -4 -15 -10 -15 -5 0
-10 7 -10 15 0 8 5 15 10 15 6 0 10 -7 10 -15z m494 -61 c3 -9 6 -31 6 -51 0
-28 -3 -34 -16 -29 -9 4 -22 1 -30 -4 -30 -26 -150 4 -138 34 6 17 -67 27
-143 19 -33 -4 -53 -2 -53 4 0 16 37 23 140 24 52 0 115 4 140 8 71 13 87 12
94 -5z m693 -20 c-3 -3 -25 -10 -49 -15 -24 -5 -52 -12 -63 -16 -20 -6 -20 -5
-1 16 15 16 31 21 69 21 28 0 48 -3 44 -6z m186 -66 c25 -34 20 -42 -16 -23
-16 8 -29 10 -33 4 -6 -11 -97 -10 -115 2 -18 11 -3 37 23 41 13 2 45 3 72 3
41 0 52 -4 69 -27z m164 16 c14 -4 23 -14 23 -25 0 -10 6 -19 13 -19 16 -1 63
-37 56 -44 -9 -10 -80 15 -86 29 -4 11 -20 14 -64 12 -49 -3 -59 -1 -54 11 3
8 -3 24 -12 35 -18 20 -17 20 42 13 32 -4 69 -9 82 -12z m-1747 -14 c0 -5 -4
-10 -10 -10 -5 0 -10 5 -10 10 0 6 5 10 10 10 6 0 10 -4 10 -10z m1375 -20 c3
-5 -1 -10 -9 -10 -9 0 -16 5 -16 10 0 6 4 10 9 10 6 0 13 -4 16 -10z m928 -11
c17 -15 30 -19 55 -14 19 4 32 2 32 -5 0 -5 -7 -10 -15 -10 -7 0 -18 -7 -23
-15 -7 -14 -11 -14 -38 0 -16 8 -44 15 -61 15 -36 0 -38 2 -23 31 14 25 45 24
73 -2z m-2158 -39 c3 -5 -1 -10 -9 -10 -9 0 -16 5 -16 10 0 6 4 10 9 10 6 0
13 -4 16 -10z m1375 -5 c0 -13 -19 -15 -120 -15 -66 0 -120 4 -120 9 0 15 19
18 133 20 90 1 107 -1 107 -14z m-265 -5 c4 -6 -5 -10 -19 -10 -14 0 -26 5
-26 10 0 6 9 10 19 10 11 0 23 -4 26 -10z m485 6 c0 -2 -11 -6 -25 -8 -14 -3
-25 -1 -25 3 0 5 11 9 25 9 14 0 25 -2 25 -4z m491 -36 c17 0 18 -3 9 -21 -7
-11 -18 -18 -25 -15 -8 3 -17 1 -20 -4 -8 -13 -72 -19 -253 -23 -112 -3 -159
0 -152 7 5 5 10 19 10 29 0 14 -5 18 -20 14 -11 -3 -20 -1 -20 4 0 9 23 14 50
10 54 -7 215 1 221 11 5 8 11 9 21 1 7 -6 41 -13 76 -16 59 -6 62 -6 62 16 1
20 2 20 11 5 5 -10 19 -18 30 -18z m-501 -20 c0 -5 -4 -10 -10 -10 -5 0 -10 5
-10 10 0 6 5 10 10 10 6 0 10 -4 10 -10z m-900 -40 c0 -10 -59 -13 -205 -12
-123 1 -104 6 45 12 80 3 148 7 153 8 4 1 7 -2 7 -8z m-350 -12 c0 -5 -46 -7
-102 -7 -71 1 -92 4 -68 9 45 9 170 7 170 -2z m1230 2 c0 -5 -4 -10 -10 -10
-5 0 -10 5 -10 10 0 6 5 10 10 10 6 0 10 -4 10 -10z m-865 -40 c-3 -5 -10 -10
-16 -10 -5 0 -9 5 -9 10 0 6 7 10 16 10 8 0 12 -4 9 -10z m-422 -17 c-13 -2
-35 -2 -50 0 -16 2 -5 4 22 4 28 0 40 -2 28 -4z m412 -50 c5 -13 16 -23 23
-23 7 0 10 -5 6 -11 -4 -8 -105 -10 -335 -7 -319 3 -374 9 -288 31 48 13 343
33 474 32 104 0 111 -1 120 -22z m-818 -19 c-3 -3 -12 -4 -19 -1 -8 3 -5 6 6
6 11 1 17 -2 13 -5z m158 -14 c-3 -5 -12 -7 -20 -3 -21 7 -19 13 6 13 11 0 18
-4 14 -10z m1885 -120 c0 -5 -6 -10 -14 -10 -8 0 -18 5 -21 10 -3 6 3 10 14
10 12 0 21 -4 21 -10z m-1920 -197 c0 -45 -5 -40 -13 10 -3 22 -2 35 4 32 5
-4 9 -22 9 -42z m576 27 c26 0 43 -4 39 -9 -3 -5 4 -16 14 -23 19 -14 18 -15
-17 -28 -20 -7 -43 -20 -50 -29 -11 -14 -13 -9 -9 32 l5 49 -34 -7 c-40 -7
-68 4 -38 16 10 4 25 6 32 3 8 -2 34 -4 58 -4z m-135 -50 c-3 -25 -6 -37 -9
-27 -4 18 -14 22 -26 10 -4 -4 -28 -8 -54 -8 -26 -1 -57 -5 -69 -9 -20 -6 -21
-4 -20 31 2 38 2 38 52 43 28 3 68 6 90 6 l40 -1 -4 -45z m501 28 c8 -13 17
-36 20 -51 l6 -29 -116 7 c-64 3 -119 8 -124 11 -4 3 -8 20 -8 39 0 18 -6 36
-12 38 -7 3 39 6 103 6 110 1 117 0 131 -21z m43 12 c3 -5 1 -10 -4 -10 -6 0
-11 5 -11 10 0 6 2 10 4 10 3 0 8 -4 11 -10z m453 2 c153 -1 242 -6 242 -12 0
-5 -8 -10 -17 -10 -25 0 -3 -18 27 -22 18 -2 26 -10 28 -28 l3 -25 -131 -1
c-118 -1 -148 4 -120 21 13 8 13 42 -1 51 -6 3 -15 1 -19 -6 -7 -12 -156 -10
-260 3 -19 2 -69 8 -110 12 -90 10 -62 23 45 20 39 -1 179 -2 313 -3z m-1301
-39 c-3 -10 -5 -4 -5 12 0 17 2 24 5 18 2 -7 2 -21 0 -30z m2119 -8 c-14 -53
-26 -68 -26 -32 0 14 5 29 10 32 6 3 10 15 10 26 0 10 4 19 8 19 5 0 4 -20 -2
-45z m-1696 -137 c0 -10 -146 -9 -180 2 -21 7 -18 8 20 9 25 1 51 5 58 10 15
9 102 -8 102 -21z m793 25 c-13 -2 -35 -2 -50 0 -16 2 -5 4 22 4 28 0 40 -2
28 -4z m-440 -40 c-29 -2 -78 -2 -110 0 -32 2 -8 3 52 3 61 0 87 -1 58 -3z
m-503 -19 c129 -3 262 -9 295 -14 58 -9 440 -18 1215 -28 125 -2 126 -2 159
-33 l34 -31 -7 -166 c-6 -160 -16 -205 -36 -172 -8 12 -12 11 -30 -8 -23 -24
-35 -28 -45 -12 -3 6 1 10 10 10 8 0 18 7 21 15 4 8 12 15 19 15 17 0 26 56
23 137 l-2 62 -40 14 c-92 34 -117 37 -252 36 -76 -1 -212 1 -301 5 -150 7
-166 6 -218 -13 -59 -22 -81 -21 -145 8 -23 10 -65 16 -120 16 -47 1 -150 5
-230 9 -123 7 -152 6 -193 -8 -66 -22 -124 -20 -247 10 -58 14 -115 28 -128
31 -12 3 -25 9 -28 14 -7 12 -125 11 -143 0 -20 -13 -3 -33 27 -31 62 4 112
-1 112 -11 0 -7 -13 -9 -37 -5 -21 3 -45 6 -53 6 -8 0 -25 0 -38 0 l-23 0 6
-117 c3 -64 10 -120 15 -123 6 -4 9 -29 8 -56 -3 -49 -3 -49 30 -52 48 -5 39
-24 -10 -20 -42 3 -43 4 -57 53 -8 28 -16 103 -17 170 -1 66 -5 137 -8 158 -6
35 -3 41 39 82 45 43 109 69 145 58 8 -2 121 -7 250 -9z m1925 6 c4 -6 -9 -10
-32 -9 -30 0 -34 2 -18 9 27 12 43 12 50 0z m-152 -27 c-7 -3 -13 -11 -13 -19
0 -8 -4 -14 -10 -14 -17 0 -11 28 7 39 10 5 20 7 23 4 3 -3 -1 -8 -7 -10z
m-1926 -159 c-3 -3 -12 -4 -19 -1 -8 3 -5 6 6 6 11 1 17 -2 13 -5z m448 -4 c3
-5 1 -10 -4 -10 -6 0 -11 5 -11 10 0 6 2 10 4 10 3 0 8 -4 11 -10z m179 -11
c6 -5 2 -11 -7 -15 -9 -3 -17 -16 -17 -28 0 -14 -3 -17 -8 -8 -5 7 -24 21 -42
31 -52 28 -48 39 12 33 29 -2 57 -8 62 -13z m-675 -1 c4 7 7 -18 7 -54 0 -54
4 -69 20 -82 17 -13 17 -14 1 -8 -10 3 -21 6 -23 6 -2 0 -4 11 -4 25 0 15 -6
25 -15 25 -15 0 -16 -43 -2 -67 10 -16 -8 -59 -27 -66 -12 -5 -16 0 -16 21 0
46 -13 55 -64 50 -48 -6 -55 -1 -33 21 10 11 10 14 0 18 -7 3 -13 12 -13 20 0
11 6 13 23 8 42 -14 87 -17 87 -7 0 6 -20 20 -45 32 -54 26 -57 35 -9 27 30
-5 37 -3 41 13 6 22 32 31 51 16 9 -7 16 -6 21 2z m381 -8 c0 -5 -4 -10 -10
-10 -5 0 -10 5 -10 10 0 6 5 10 10 10 6 0 10 -4 10 -10z m1636 -94 c-6 -47
-14 -82 -19 -79 -9 5 -2 128 10 167 12 43 18 -8 9 -88z m-910 71 c-8 -7 -20
-23 -25 -37 -9 -23 -10 -23 -10 12 -1 27 4 38 17 41 25 5 35 -3 18 -16z m-803
-54 c5 -54 3 -70 -10 -85 -20 -22 -43 -24 -43 -3 0 8 6 15 14 15 20 0 24 18
20 83 -6 80 12 71 19 -10z m1087 63 c0 -2 -7 -9 -15 -16 -12 -10 -15 -10 -15
4 0 9 7 16 15 16 8 0 15 -2 15 -4z m70 0 c0 -3 -4 -8 -10 -11 -5 -3 -10 -1
-10 4 0 6 5 11 10 11 6 0 10 -2 10 -4z m30 -6 c0 -5 -4 -10 -10 -10 -5 0 -10
5 -10 10 0 6 5 10 10 10 6 0 10 -4 10 -10z m210 -5 c-6 -12 -180 -16 -180 -4
0 13 31 17 110 16 46 -1 73 -6 70 -12z m40 -5 c0 -5 -2 -10 -4 -10 -3 0 -8 5
-11 10 -3 6 -1 10 4 10 6 0 11 -4 11 -10z m61 -10 l24 -20 -29 6 c-19 5 -31 2
-38 -7 -8 -11 -8 -10 -4 4 3 10 6 23 6 28 0 15 16 10 41 -11z m-1104 -12 c-3
-8 -6 -5 -6 6 -1 11 2 17 5 13 3 -3 4 -12 1 -19z m743 2 c0 -5 -5 -10 -11 -10
-5 0 -7 5 -4 10 3 6 8 10 11 10 2 0 4 -4 4 -10z m-746 -119 c-13 -26 -11 -69
2 -64 7 2 15 0 19 -6 9 -15 48 -14 64 2 10 10 11 8 5 -6 -5 -15 -16 -18 -53
-15 -43 2 -46 1 -49 -25 -6 -53 -22 -26 -22 38 0 49 -3 65 -14 65 -14 0 -28
45 -17 55 3 3 13 -4 22 -16 l17 -22 7 34 c4 19 10 39 14 44 9 15 14 -64 5 -84z
m359 68 l22 0 -22 -9 c-25 -10 -30 -29 -11 -48 9 -9 8 -12 -5 -12 -20 0 -22
-11 -5 -28 9 -9 9 -12 0 -12 -7 0 -12 6 -12 13 -1 6 -9 2 -19 -10 -15 -18 -24
-21 -48 -14 -17 5 -37 5 -45 0 -17 -10 -48 -2 -48 11 0 4 -16 11 -35 14 -20 4
-33 11 -30 16 3 5 16 6 28 1 12 -4 47 -9 77 -10 30 -2 58 -4 61 -7 14 -8 38
34 41 69 1 27 6 36 16 32 7 -3 23 -5 35 -6z m382 -62 c0 -39 -4 -78 -8 -85 -5
-7 -2 -14 7 -18 25 -9 19 -24 -9 -24 -16 0 -25 -6 -25 -15 0 -8 3 -15 8 -16
66 -6 140 -5 149 3 14 11 43 4 43 -10 0 -5 -12 -14 -26 -21 -21 -9 -24 -14
-14 -26 7 -8 9 -15 4 -16 -52 -5 -214 -2 -214 4 0 9 9 10 87 11 101 2 97 36
-4 36 -49 0 -53 2 -53 24 0 14 4 27 8 30 5 3 9 28 11 56 1 36 -2 52 -12 56
-16 6 -11 44 5 44 5 0 7 4 3 9 -5 8 20 30 35 31 3 0 5 -33 5 -73z m365 17 c16
-4 30 -8 30 -10 0 -11 -51 -51 -78 -61 -33 -12 -45 0 -22 23 6 6 12 24 14 40
2 16 5 36 5 44 2 9 6 7 11 -8 6 -14 21 -25 40 -28z m-705 -30 c5 -33 3 -43
-10 -48 -14 -5 -16 -2 -11 18 3 14 2 27 -3 30 -4 3 -6 17 -3 31 6 34 18 20 27
-31z m-540 -18 c28 -17 45 -35 45 -47 0 -21 16 -26 23 -6 3 6 6 -3 6 -21 1
-44 17 -72 41 -72 11 0 20 -5 20 -11 0 -13 -62 -1 -72 14 -5 8 -9 7 -13 -3 -4
-11 -21 -15 -68 -14 -97 2 -107 3 -107 15 0 8 14 10 45 6 40 -6 45 -5 45 13 0
25 5 25 30 0 22 -22 49 -26 51 -7 1 6 2 21 3 32 1 27 -41 62 -57 46 -6 -6 -19
-11 -28 -11 -15 0 -17 10 -16 68 1 37 3 58 5 47 1 -11 23 -33 47 -49z m-450
43 c11 -16 1 -19 -13 -3 -7 8 -8 14 -3 14 5 0 13 -5 16 -11z m135 -10 c0 -17
-21 -20 -55 -8 -19 7 -30 16 -25 19 14 8 80 0 80 -11z m120 -14 c-7 -9 -15
-13 -18 -10 -3 2 1 11 8 20 7 9 15 13 18 10 3 -2 -1 -11 -8 -20z m884 -5 c4
-22 11 -30 28 -31 21 -1 21 -2 3 -6 -11 -3 -26 -10 -32 -15 -9 -8 -13 -6 -13
5 0 8 -3 29 -6 46 -4 18 -2 31 4 31 5 0 12 -13 16 -30z m-1333 -21 c-5 -13
-10 -19 -10 -12 -1 15 10 45 15 40 3 -2 0 -15 -5 -28z m819 16 c0 -9 -6 -12
-15 -9 -8 4 -15 10 -15 15 0 5 7 9 15 9 8 0 15 -7 15 -15z m50 5 c0 -5 -4 -10
-10 -10 -5 0 -10 5 -10 10 0 6 5 10 10 10 6 0 10 -4 10 -10z m423 -22 c-5 -24
-10 -28 -39 -28 -18 0 -36 5 -39 10 -4 6 7 10 24 10 20 0 35 7 43 20 15 24 18
22 11 -12z m-1112 1 c20 -20 21 -37 3 -82 -4 -12 3 -17 30 -22 19 -4 40 -4 46
0 6 4 16 2 23 -4 7 -5 37 -12 67 -14 30 -2 0 -3 -68 -2 -68 2 -126 6 -129 9
-3 3 0 12 7 21 10 12 8 16 -15 25 -14 5 -31 10 -36 10 -13 0 -11 54 3 68 18
18 46 14 69 -9z m-461 -9 c6 -11 18 -20 28 -21 17 -1 -20 -16 -44 -18 -15 -1
-25 24 -18 44 8 21 21 19 34 -5z m683 -48 c-12 -13 -37 -21 -71 -24 -49 -5
-51 -4 -37 12 8 9 15 24 15 33 0 24 17 29 23 7 6 -25 30 -27 25 -2 -2 12 6 20
27 27 27 9 30 8 33 -12 2 -12 -5 -31 -15 -41z m78 44 c-6 -8 -22 -16 -34 -19
-22 -6 -22 -6 2 14 27 22 49 26 32 5z m1309 2 c0 -4 -4 -10 -10 -13 -21 -13
-9 -25 26 -25 23 0 33 -4 28 -11 -3 -6 -19 -9 -35 -5 -29 5 -29 5 -29 -40 0
-43 -1 -45 -27 -42 -14 2 -28 9 -31 16 -3 9 3 12 14 10 14 -2 20 4 22 25 3 23
0 27 -22 27 -14 0 -26 -5 -26 -12 0 -9 -3 -9 -12 0 -18 18 -87 15 -94 -3 -9
-22 -24 -18 -24 5 0 11 5 20 10 20 6 0 10 10 10 21 0 16 -5 20 -20 16 -12 -3
-20 0 -20 8 0 10 28 13 120 12 66 -1 120 -5 120 -9z m-1490 -8 c0 -5 -9 -10
-19 -10 -11 0 -23 -9 -26 -20 -9 -28 -25 -25 -25 4 0 24 13 32 53 35 9 0 17
-3 17 -9z m261 0 c5 0 9 -7 9 -15 0 -8 -4 -15 -10 -15 -5 0 -10 5 -10 10 0 6
-7 10 -15 10 -8 0 -15 5 -15 11 0 6 7 8 16 5 9 -3 20 -6 25 -6z m-561 -27 c0
-14 -19 -17 -44 -7 -26 10 -18 21 14 20 17 -1 30 -7 30 -13z m948 0 c36 -8 25
-26 -14 -21 -33 4 -35 2 -31 -19 2 -13 0 -23 -5 -23 -4 0 -7 18 -6 40 2 31 6
39 18 34 8 -4 25 -9 38 -11z m102 -14 c0 -8 5 -8 15 1 12 10 15 9 15 -4 0 -10
-4 -14 -10 -11 -25 16 -6 -17 32 -54 l41 -41 -154 0 c-158 0 -199 5 -199 22 0
6 26 8 68 4 215 -19 212 -19 212 1 0 32 -24 73 -43 73 -11 0 -20 -10 -23 -30
-4 -16 -10 -27 -15 -24 -11 7 0 56 15 66 17 12 46 9 46 -3z m73 -15 c-7 -19
-10 -18 -16 5 -3 13 -1 18 9 14 7 -2 10 -11 7 -19z m132 16 c-3 -5 -11 -10
-16 -10 -6 0 -7 5 -4 10 3 6 11 10 16 10 6 0 7 -4 4 -10z m35 -14 c0 -8 -4
-18 -10 -21 -5 -3 -10 -22 -10 -41 0 -27 4 -34 20 -34 11 0 20 -4 20 -9 0 -4
-25 -9 -55 -9 -30 0 -55 4 -55 9 0 5 9 9 21 9 14 0 19 5 17 18 -5 22 -38 17
-57 -9 -17 -24 -35 -25 -22 -1 5 9 12 25 15 34 3 12 18 18 48 20 36 2 44 7 46
26 4 24 22 31 22 8z m36 -13 c-10 -10 -19 5 -10 18 6 11 8 11 12 0 2 -7 1 -15
-2 -18z m-776 1 c0 -9 -5 -14 -12 -12 -18 6 -21 28 -4 28 9 0 16 -7 16 -16z
m-686 -20 c5 -12 2 -15 -10 -10 -8 3 -24 6 -35 6 -10 0 -19 5 -19 10 0 17 57
11 64 -6z m236 6 c0 -5 -25 -10 -56 -10 -34 0 -53 4 -49 10 3 6 28 10 56 10
27 0 49 -4 49 -10z m400 0 c0 -5 -5 -10 -11 -10 -5 0 -7 5 -4 10 3 6 8 10 11
10 2 0 4 -4 4 -10z m1364 -5 c3 -8 12 -15 21 -15 18 0 19 -12 3 -28 -10 -10
-10 -15 2 -22 20 -13 40 -12 40 1 0 5 5 7 10 4 7 -4 6 -13 -1 -26 -7 -15 -17
-19 -33 -15 -12 3 -70 6 -129 7 -76 1 -107 5 -104 13 2 7 31 11 78 11 69 0
112 16 61 23 -27 4 -24 27 4 27 12 0 18 6 18 18 -2 21 22 23 30 2z m106 1 c0
-8 -4 -18 -10 -21 -5 -3 -10 -4 -10 -1 0 2 -3 11 -6 20 -4 11 -1 16 10 16 9 0
16 -6 16 -14z m-1833 -2 c-3 -3 -12 -4 -19 -1 -8 3 -5 6 6 6 11 1 17 -2 13 -5z
m1210 -26 c-3 -7 -5 -2 -5 12 0 14 2 19 5 13 2 -7 2 -19 0 -25z m-877 -8 c0
-5 -11 -10 -25 -10 -14 0 -25 5 -25 10 0 6 11 10 25 10 14 0 25 -4 25 -10z
m870 -40 c0 -5 -4 -10 -10 -10 -5 0 -10 5 -10 10 0 6 5 10 10 10 6 0 10 -4 10
-10z m80 0 c0 -5 -4 -10 -10 -10 -5 0 -10 5 -10 10 0 6 5 10 10 10 6 0 10 -4
10 -10z"/>
<path d="M1950 646 c0 -31 52 -31 64 -1 4 11 -3 15 -29 15 -24 0 -35 -5 -35
-14z"/>
<path d="M2036 651 c-3 -5 1 -12 10 -15 25 -10 34 -7 34 9 0 16 -35 21 -44 6z"/>
<path d="M1431 2251 c-19 -12 -5 -31 24 -31 34 0 55 10 55 26 0 16 -56 19 -79
5z"/>
<path d="M1293 2233 c-22 -8 -14 -23 13 -23 15 0 24 5 22 12 -5 14 -18 18 -35
11z"/>
<path d="M2315 2169 c-16 -5 -47 -11 -68 -14 -64 -10 -32 -28 37 -20 34 3 79
2 101 -2 56 -12 177 -4 172 10 -2 8 -34 12 -94 12 -49 0 -96 5 -104 11 -9 7
-25 8 -44 3z"/>
<path d="M120 1950 c0 -15 7 -20 25 -20 18 0 25 5 25 20 0 15 -7 20 -25 20
-18 0 -25 -5 -25 -20z"/>
<path d="M332 1962 c-31 -5 -22 -26 14 -32 29 -6 29 -6 7 -18 -13 -7 -23 -20
-24 -30 0 -13 -3 -11 -9 6 -14 34 -37 28 -32 -8 5 -38 23 -52 63 -48 30 3 32
5 36 54 4 57 -14 83 -55 76z"/>
<path d="M1165 1930 c-9 -15 34 -80 52 -80 12 0 14 7 10 30 -4 17 -2 30 3 30
6 0 10 7 10 15 0 17 -65 22 -75 5z"/>
<path d="M2 1833 c3 -36 5 -38 41 -40 44 -3 47 10 12 50 -36 40 -57 36 -53
-10z"/>
<path d="M1038 1758 c9 -9 15 -9 24 0 9 9 7 12 -12 12 -19 0 -21 -3 -12 -12z"/>
<path d="M1115 1734 c-19 -30 -13 -57 12 -52 13 2 19 14 21 41 4 43 -9 48 -33
11z"/>
<path d="M1193 1735 c-17 -19 -16 -40 3 -56 13 -10 17 -10 25 2 10 17 11 31 3
53 -7 19 -15 20 -31 1z"/>
<path d="M1332 1726 c-8 -19 -7 -26 9 -40 18 -15 20 -15 29 10 7 19 7 31 -1
40 -16 20 -24 17 -37 -10z"/>
<path d="M1410 1724 c-12 -22 -12 -27 0 -34 36 -23 61 2 40 39 -14 28 -24 26
-40 -5z"/>
<path d="M1 1705 c1 -40 1 -40 10 -10 5 18 5 33 -1 39 -7 7 -10 -4 -9 -29z"/>
<path d="M50 1726 c-10 -13 -10 -19 0 -31 7 -8 16 -15 20 -15 15 0 20 34 7 47
-12 12 -16 12 -27 -1z"/>
<path d="M1260 1716 c0 -13 6 -29 14 -35 11 -9 15 -6 20 14 8 30 1 45 -20 45
-8 0 -14 -10 -14 -24z"/>
<path d="M0 1506 c0 -29 3 -36 12 -29 18 14 309 9 383 -5 40 -8 166 -12 380
-11 176 1 353 -2 393 -6 61 -6 72 -5 72 8 0 21 -20 27 -124 33 -50 3 -120 12
-156 19 -46 10 -151 15 -350 16 -157 1 -358 4 -448 8 l-162 6 0 -39z"/>
<path d="M0 833 c0 -22 3 -23 70 -23 56 0 70 3 70 15 0 19 -10 23 -82 28 -55
3 -58 3 -58 -20z"/>
<path d="M42 444 c2 -11 11 -20 22 -22 13 -3 17 1 14 14 -2 11 -11 20 -22 22
-13 3 -17 -1 -14 -14z"/>
<path d="M819 413 c0 -5 -2 -45 -4 -90 -2 -46 -7 -87 -10 -93 -3 -5 1 -20 9
-32 24 -34 21 -51 -8 -44 -36 9 -43 -13 -8 -26 16 -6 34 -20 41 -30 12 -19 23
-19 -159 -3 -25 2 -68 9 -96 15 -27 6 -79 9 -115 6 -35 -2 -74 -5 -87 -5 -19
-1 -21 -4 -14 -18 8 -14 27 -17 93 -19 46 -1 145 -7 219 -13 74 -6 191 -14
260 -17 69 -3 141 -10 160 -15 42 -11 63 4 35 25 -18 13 -18 15 -2 39 9 15 17
31 17 38 0 6 7 25 15 42 l15 32 91 -3 c58 -2 92 -8 94 -15 2 -7 6 -46 10 -88
6 -74 7 -76 39 -87 45 -17 96 -15 96 2 0 17 -22 26 -65 26 -32 0 -61 20 -48
33 3 4 31 7 60 7 70 0 68 23 -3 30 -41 4 -49 8 -49 25 0 19 7 20 137 20 l138
0 0 46 c0 47 0 47 -32 43 -18 -1 -58 -3 -88 -4 l-55 -1 24 -19 23 -20 -65 0
c-36 0 -69 5 -72 10 -3 6 -1 10 4 10 6 0 11 8 11 19 0 26 -53 35 -94 16 -46
-22 -113 -22 -129 -1 -8 11 -23 17 -38 14 -20 -2 -23 -8 -21 -30 1 -16 -2 -28
-8 -28 -5 0 -10 -11 -10 -25 0 -25 -31 -65 -50 -65 -5 0 -10 -7 -10 -15 0 -8
7 -15 15 -15 8 0 15 -4 15 -8 0 -7 -192 -5 -216 3 -13 4 -25 55 -14 55 4 0 13
-7 20 -15 7 -8 18 -15 26 -15 19 0 28 20 15 33 -16 16 -14 32 3 18 11 -9 15
-5 19 26 2 24 -1 44 -9 54 -10 11 -11 18 -3 26 13 13 -21 35 -58 39 -21 2 -23
-1 -23 -47 0 -41 5 -54 27 -75 l26 -24 -34 4 -34 3 -2 114 c-1 63 -2 120 -2
127 -1 13 -21 17 -22 5z"/>
<path d="M1680 364 c-9 -10 -10 -18 -2 -26 12 -12 32 -2 32 17 0 21 -16 26
-30 9z"/>
<path d="M0 338 c0 -24 3 -29 11 -21 13 13 39 6 39 -9 0 -5 -5 -6 -10 -3 -15
9 -7 -28 13 -59 10 -14 16 -26 15 -26 -2 0 -18 4 -36 9 -29 9 -32 8 -32 -13 0
-19 8 -25 42 -32 57 -12 60 -30 3 -26 -35 3 -45 1 -45 -11 0 -17 87 -49 96
-35 3 5 13 6 23 3 29 -12 231 -17 231 -6 0 14 -38 33 -50 26 -5 -3 -12 0 -16
6 -3 6 -1 15 5 19 18 10 -6 26 -49 33 -19 3 -52 10 -73 15 -30 8 -39 7 -44 -3
-9 -25 6 -34 68 -41 74 -8 87 -24 20 -24 -27 0 -52 4 -56 10 -3 5 -11 7 -18 4
-18 -6 -57 98 -57 152 0 46 -1 47 -52 58 -26 6 -28 4 -28 -26z"/>
<path d="M105 352 c-3 -3 -5 -21 -5 -39 0 -24 8 -41 26 -58 24 -23 27 -23 70
-8 24 8 44 17 44 21 0 3 -8 14 -17 25 -17 19 -15 19 137 12 85 -3 171 -9 190
-14 39 -9 82 0 61 13 -6 4 -73 12 -149 17 -75 5 -150 14 -167 19 -33 10 -182
19 -190 12z"/>
<path d="M2356 258 c-9 -27 -14 -125 -8 -135 4 -6 21 -9 37 -8 17 1 63 3 103
3 l72 2 0 45 c0 25 -3 44 -7 44 -5 -1 -28 -1 -51 0 -35 1 -49 7 -70 31 -27 31
-69 40 -76 18z"/>
<path d="M1727 243 c-15 -4 -17 -13 -15 -51 2 -26 5 -46 8 -44 3 2 18 -1 33
-7 21 -8 39 -8 65 0 34 10 37 14 37 49 1 38 0 38 -43 45 -25 4 -50 8 -56 10
-6 1 -19 1 -29 -2z"/>
<path d="M1183 133 c-7 -3 -13 -11 -13 -19 0 -10 13 -14 43 -14 77 0 117 -11
117 -31 0 -11 7 -19 15 -19 21 0 19 43 -2 62 -17 15 -134 30 -160 21z"/>
<path d="M1717 94 c-3 -3 -30 -6 -59 -6 -48 1 -51 -1 -34 -14 11 -8 26 -14 33
-14 7 0 13 -6 13 -14 0 -26 23 -30 42 -6 16 20 24 21 65 15 52 -8 214 -8 221
0 10 9 -3 13 -58 19 -30 4 -82 11 -115 15 -75 12 -100 13 -108 5z"/>
</g>
</svg>
