<?xml version="1.0" standalone="no"?>
<!DOCTYPE svg PUBLIC "-//W3C//DTD SVG 20010904//EN"
 "http://www.w3.org/TR/2001/REC-SVG-20010904/DTD/svg10.dtd">
<svg version="1.0" xmlns="http://www.w3.org/2000/svg"
 width="344.000000pt" height="256.000000pt" viewBox="0 0 344.000000 256.000000"
 preserveAspectRatio="xMidYMid meet">
<metadata>
Created by potrace 1.16, written by Peter Selinger 2001-2019
</metadata>
<g transform="translate(0.000000,256.000000) scale(0.100000,-0.100000)"
fill="#000000" stroke="none">
<path d="M663 2547 c-116 -19 -33 -37 170 -37 72 0 127 -3 123 -7 -4 -5 -12
-9 -17 -9 -5 -1 -13 -2 -17 -3 -15 -2 -52 -38 -52 -50 0 -8 -5 -7 -16 3 -18
19 -22 19 -62 5 -18 -6 -30 -15 -27 -19 3 -5 1 -11 -5 -15 -5 -3 -10 -17 -10
-30 0 -19 10 -28 47 -45 36 -16 48 -18 55 -8 5 9 -2 18 -22 27 -36 17 -41 56
-10 66 25 8 48 -9 52 -38 3 -19 7 -16 23 18 15 30 27 41 48 43 21 3 27 -1 27
-15 0 -10 -9 -24 -20 -31 -11 -7 -20 -17 -20 -22 0 -16 32 -12 52 7 24 21 27
16 31 -47 3 -51 32 -100 59 -100 10 0 6 119 -8 258 l-6 63 -172 -3 c-94 -1
-195 -6 -223 -11z"/>
<path d="M1104 2538 c3 -13 7 -68 10 -123 3 -55 8 -108 12 -118 3 -9 1 -23 -5
-31 -8 -10 -8 -16 4 -26 25 -21 17 -28 -37 -33 -70 -7 -118 -18 -118 -26 0 -4
5 -12 12 -19 7 -7 8 -12 2 -12 -6 0 -21 11 -34 25 l-23 25 31 0 c35 0 41 10
17 30 -20 17 -53 -11 -57 -49 -2 -20 -9 -27 -30 -29 -27 -3 -38 11 -18 23 6 3
10 11 10 17 0 7 -19 8 -52 4 -29 -3 -60 -6 -68 -6 -29 -1 23 -30 54 -30 53 0
14 -17 -52 -23 -63 -5 -64 -5 -58 18 6 24 -8 35 -44 35 -23 0 -32 -36 -13 -51
12 -11 12 -14 -1 -21 -22 -13 -20 -23 10 -43 24 -16 27 -16 45 1 22 20 80 31
60 11 -17 -17 -13 -37 7 -38 14 0 14 -2 -3 -8 -11 -5 -30 -4 -43 2 -16 8 -26
7 -34 -1 -7 -7 -20 -12 -30 -12 -10 0 -18 -4 -18 -10 0 -5 5 -10 10 -10 6 0
10 -5 10 -10 0 -6 -11 -8 -25 -4 -21 5 -25 3 -25 -16 0 -23 -1 -23 -20 -5
l-20 18 20 22 c11 12 20 24 20 28 0 13 -38 7 -50 -8 -13 -16 -40 -20 -40 -7 0
14 35 42 52 42 27 0 48 11 48 26 0 8 -8 14 -17 14 -17 1 -17 1 0 14 23 18 22
26 -5 26 -15 0 -31 -12 -46 -35 -12 -19 -30 -35 -40 -35 -11 0 -29 -22 -50
-59 -18 -33 -38 -62 -45 -64 -18 -7 1 -22 53 -41 65 -24 98 -52 83 -67 -10
-10 -18 -8 -40 9 -16 13 -36 25 -45 29 -10 3 -18 9 -18 14 0 5 -7 9 -15 9 -19
0 -18 -7 4 -45 10 -16 26 -32 37 -33 10 -2 24 -8 29 -14 15 -15 -43 -5 -90 16
-22 9 -49 15 -61 12 -13 -4 -27 0 -34 9 -17 21 -28 19 -32 -6 -2 -12 -11 -26
-20 -30 -44 -22 -53 -28 -52 -36 1 -4 5 -22 8 -38 6 -27 3 -32 -30 -50 -20
-11 -44 -35 -55 -57 -11 -21 -23 -38 -27 -38 -13 0 -50 -56 -58 -86 -7 -29 -3
-30 51 -8 19 7 19 7 3 -13 -10 -11 -18 -24 -18 -30 0 -10 -31 -28 -67 -38 -17
-5 -23 -14 -23 -35 0 -22 4 -28 15 -24 10 4 15 0 15 -14 0 -11 -7 -22 -15 -26
-11 -4 -15 -22 -15 -73 1 -62 2 -66 15 -49 17 22 125 37 125 17 0 -19 29 -12
41 10 8 16 13 18 19 9 5 -9 9 -9 14 -1 13 21 26 11 26 -19 0 -30 0 -30 -56
-30 -31 0 -85 -5 -120 -12 -63 -11 -64 -12 -64 -45 0 -29 3 -33 28 -33 15 0
54 5 87 10 60 10 139 5 131 -9 -4 -6 -149 -43 -223 -57 -15 -3 -23 -12 -23
-25 0 -11 4 -18 9 -14 6 3 36 10 68 16 32 5 66 12 76 15 13 4 17 -1 17 -19 0
-29 23 -52 45 -43 11 4 15 -2 15 -24 0 -17 4 -30 9 -30 11 0 19 80 9 86 -11 7
-10 52 1 59 5 3 11 -5 13 -17 4 -31 28 -35 28 -4 0 21 6 26 38 31 20 3 59 10
85 15 27 6 53 8 58 5 5 -3 17 -2 26 3 10 5 30 12 46 16 24 6 27 4 27 -18 0
-22 21 -41 33 -29 3 2 3 20 0 39 -3 20 -1 34 4 34 6 0 13 -18 17 -41 7 -44 32
-51 29 -8 -3 38 9 59 16 30 9 -34 31 -39 31 -7 0 25 2 26 63 28 214 7 223 5
231 -33 3 -16 11 -29 17 -29 7 0 10 23 8 69 -2 39 0 73 4 77 4 4 7 -10 8 -32
0 -62 14 -119 27 -117 7 2 12 -2 12 -7 0 -16 28 -12 37 5 7 12 18 6 53 -30
l45 -46 0 -97 c0 -100 6 -122 31 -122 17 0 17 5 3 28 -8 13 -9 50 -2 133 10
111 10 115 -13 149 -13 19 -24 39 -24 44 0 8 -28 40 -112 129 -21 22 -38 41
-38 42 0 12 65 -32 82 -56 27 -36 38 -37 38 -3 0 16 5 24 13 22 6 -3 12 -10
12 -17 0 -6 5 -15 10 -19 6 -4 10 -16 10 -27 0 -16 6 -20 30 -18 37 3 85 -15
85 -32 0 -7 -6 -28 -13 -46 -10 -26 -12 -61 -6 -144 9 -137 16 -169 40 -191
10 -9 19 -23 19 -31 0 -7 3 -13 8 -13 4 0 7 -20 7 -44 0 -24 6 -54 12 -67 36
-74 35 -104 -2 -131 -19 -14 -96 -8 -123 9 -36 23 -52 46 -86 123 -15 36 -37
74 -47 86 -26 27 -24 38 11 77 17 19 33 50 36 68 l5 34 -18 -22 c-67 -81 -84
-112 -77 -140 3 -15 12 -32 18 -38 13 -12 66 -112 66 -126 0 -24 49 -80 88
-99 34 -18 52 -20 92 -15 27 4 54 13 61 21 16 19 24 18 52 -8 18 -17 26 -39
31 -80 7 -54 35 -108 57 -108 15 0 10 37 -6 54 -9 9 -19 39 -22 68 -3 33 -15
65 -29 85 -13 17 -24 37 -24 44 0 7 -6 20 -14 28 -22 27 -48 108 -41 130 4 14
15 21 31 21 37 0 29 25 -14 39 -67 23 -100 100 -101 239 -1 113 33 233 85 301
19 24 34 48 34 53 0 5 9 7 19 3 14 -4 25 3 41 25 12 17 28 29 35 26 7 -2 21 2
32 9 26 20 60 18 94 -6 l29 -20 50 42 c54 45 70 76 49 90 -11 7 -9 9 6 9 26 1
75 40 58 47 -17 6 -17 24 0 17 7 -2 27 8 43 23 33 31 59 39 50 16 -11 -26 5
-63 26 -63 21 0 21 -17 3 -92 -5 -18 -3 -28 4 -28 6 0 11 8 11 17 0 29 34 103
48 103 7 0 21 -5 32 -12 15 -10 22 -9 37 4 10 8 29 19 43 23 14 4 34 14 45 21
11 8 28 14 38 14 10 0 40 11 67 25 28 14 50 23 50 20 0 -11 -54 -90 -68 -101
-17 -12 -8 -34 13 -34 20 0 55 -54 57 -87 1 -15 -2 -52 -6 -82 -7 -46 -6 -53
7 -48 11 4 13 0 9 -16 -2 -12 -9 -28 -14 -34 -6 -7 -14 -59 -19 -115 -18 -193
-25 -243 -39 -269 -8 -15 -25 -46 -38 -70 l-22 -43 28 -30 c45 -49 152 -186
152 -196 0 -4 28 -37 62 -72 48 -48 64 -59 66 -45 2 10 -18 41 -49 75 -29 31
-67 80 -86 107 -50 74 -82 118 -104 141 -23 25 -25 57 -2 75 26 22 43 74 44
136 1 64 23 204 30 188 2 -5 30 -32 62 -59 33 -27 81 -77 108 -110 122 -149
141 -170 280 -302 35 -34 59 -43 59 -24 0 5 -20 28 -45 51 -25 23 -43 44 -40
47 3 3 13 -2 23 -11 23 -21 32 -21 32 -3 0 7 -28 42 -62 77 -35 36 -85 90
-113 122 -52 59 -93 81 -60 31 28 -43 10 -38 -20 6 -15 22 -32 40 -36 40 -5 0
-9 5 -9 11 0 8 5 8 15 -1 8 -7 15 -8 15 -3 0 15 -59 93 -70 93 -15 0 -12 -26
5 -40 9 -7 14 -15 11 -17 -2 -2 -17 9 -33 24 -15 15 -51 48 -79 71 -43 37 -50
49 -50 78 1 26 5 34 20 34 12 0 16 5 12 15 -3 8 -9 22 -13 32 -4 11 -3 14 6 8
10 -6 10 -3 0 16 -7 13 -13 56 -13 94 -1 56 -6 76 -24 102 l-22 32 21 38 c14
25 21 54 21 83 -2 63 65 196 114 228 20 12 40 22 45 22 6 0 8 4 5 9 -7 11 56
24 78 15 9 -3 16 -10 16 -15 0 -5 24 -15 53 -24 52 -16 143 -65 120 -65 -20 0
-15 -38 12 -95 28 -61 34 -66 100 -93 153 -61 223 -85 283 -97 29 -6 32 -4 32
17 0 13 6 32 13 43 8 11 22 43 32 70 9 28 25 66 34 85 11 25 16 63 16 130 0
93 -1 97 -40 163 -25 43 -46 67 -57 67 -10 0 -18 -5 -18 -10 0 -17 -94 -4
-125 16 -16 11 -46 26 -68 34 -25 9 -41 22 -43 34 -4 28 -16 36 -96 67 -78 31
-103 35 -113 19 -3 -5 -22 -10 -42 -10 -22 0 -41 -7 -49 -17 -12 -16 -13 -15
-14 13 0 17 6 37 14 43 10 8 14 34 14 82 0 63 3 73 26 94 34 31 33 38 -4 33
-26 -4 -30 -1 -30 19 0 19 -5 23 -28 23 l-28 0 -2 -127 c-1 -69 -6 -131 -11
-136 -20 -20 -29 39 -25 151 3 101 2 112 -14 112 -13 0 -17 -9 -19 -36 -4 -78
-33 -85 -33 -8 0 32 -4 44 -15 44 -12 0 -15 -13 -15 -55 0 -39 -4 -55 -13 -55
-10 0 -12 12 -7 50 4 29 2 54 -3 57 -10 6 -28 -17 -21 -28 2 -4 0 -10 -6 -14
-5 -3 -10 -19 -10 -36 0 -22 -5 -29 -19 -29 -16 0 -31 -18 -31 -36 0 -2 29 -4
65 -4 41 0 65 -4 65 -11 0 -8 -19 -9 -63 -5 -86 10 -114 -2 -122 -51 -3 -21
-11 -46 -16 -56 -5 -10 -7 -27 -4 -38 8 -23 -9 -25 -45 -4 -32 18 -40 18 -40
1 0 -19 32 -29 95 -31 28 -1 61 -7 75 -12 14 -6 52 -16 85 -23 58 -13 59 -13
30 -23 -40 -13 -57 -27 -51 -42 2 -7 -2 -22 -10 -34 -8 -12 -13 -25 -9 -30 3
-5 1 -12 -5 -16 -5 -3 -12 7 -16 22 -10 46 -13 53 -24 53 -5 0 -10 -7 -10 -15
0 -8 -4 -15 -10 -15 -23 0 -7 -41 26 -67 l36 -27 19 23 c11 13 19 36 19 51 0
27 26 60 48 60 16 0 15 -8 -3 -27 -8 -8 -13 -19 -10 -23 12 -20 -54 -99 -85
-102 -3 0 -22 -9 -43 -19 -29 -15 -42 -17 -57 -9 -11 6 -20 15 -20 21 0 5 -8
13 -17 16 -24 9 -42 34 -43 58 0 16 2 17 9 5 10 -14 76 -18 89 -5 4 4 -2 13
-13 21 -17 13 -18 16 -5 24 8 5 18 10 23 10 4 0 7 6 7 14 0 8 5 16 11 18 7 2
9 13 5 26 -9 26 -50 30 -80 7 -11 -8 -28 -15 -39 -15 -10 0 -17 -5 -15 -12 6
-18 60 -18 81 0 9 8 17 11 17 6 0 -20 -18 -33 -65 -49 l-49 -17 -23 28 c-22
28 -23 28 -23 6 0 -13 -4 -21 -9 -17 -16 9 -22 -12 -11 -39 5 -14 15 -26 23
-26 14 0 84 -67 76 -73 -2 -3 -37 -7 -77 -10 -69 -6 -72 -5 -62 13 6 12 19 19
33 17 16 -1 22 3 22 18 0 14 -11 24 -35 32 -19 7 -27 12 -17 12 20 1 22 11 4
34 -11 16 -48 19 -62 5 -3 -3 3 -21 15 -41 l21 -35 -26 -4 c-21 -4 -25 -1 -25
17 0 12 -6 28 -14 35 -8 6 -13 17 -10 24 2 6 -2 20 -10 31 -13 18 -15 18 -40
2 -14 -10 -26 -22 -26 -27 0 -20 -16 -9 -26 19 -8 19 -20 30 -40 34 -38 8 -98
-23 -102 -51 -3 -22 -17 -27 -47 -16 -13 6 -14 9 -3 16 10 7 9 11 -5 23 -26
19 -47 8 -47 -24 0 -14 -4 -32 -9 -40 -7 -11 -12 -9 -22 10 -7 13 -15 38 -19
54 -5 23 -11 29 -26 27 -27 -5 -29 -9 -14 -27 11 -13 8 -15 -19 -15 -18 0 -52
-5 -77 -11 -52 -13 -60 -9 -42 20 9 15 20 20 35 16 12 -3 29 -2 37 1 28 11 17
32 -19 38 -20 4 -35 13 -35 21 0 18 31 24 55 9 29 -17 113 -24 124 -10 6 7 9
37 8 68 -2 62 2 72 27 62 12 -5 16 -19 16 -59 0 -30 5 -57 10 -60 6 -4 10 5
10 19 0 31 24 35 42 6 16 -25 36 -26 54 -2 11 13 13 14 9 1 -7 -19 22 -46 35
-33 5 5 10 38 12 73 2 36 8 66 14 68 6 2 11 -4 11 -14 -1 -99 3 -124 21 -121
15 3 17 13 14 71 -4 65 9 91 23 47 6 -18 12 -20 58 -15 l52 6 -50 -19 c-31
-11 -51 -25 -53 -37 -3 -14 1 -17 20 -12 12 3 39 10 58 14 29 7 35 14 35 36 1
14 5 30 9 34 4 4 -14 13 -40 18 -41 9 -49 15 -59 44 -6 18 -17 38 -25 45 -19
14 -23 28 -28 98 l-4 56 -36 0 c-33 0 -35 -1 -14 -11 19 -9 22 -18 22 -65 0
-31 -3 -52 -7 -48 -5 4 -8 24 -9 45 0 24 -8 45 -22 59 -27 27 -46 28 -39 2 6
-23 3 -24 -25 -9 -17 9 -18 13 -7 20 10 6 4 9 -19 9 -20 0 -31 -4 -27 -10 4
-6 -7 -10 -24 -10 -17 0 -31 5 -31 10 0 6 -30 10 -69 10 -65 0 -70 -2 -73 -22
-3 -20 -10 -23 -55 -26 -44 -3 -55 1 -77 23 -30 30 -62 35 -47 7 5 -9 19 -26
30 -36 12 -11 21 -31 21 -49 0 -19 8 -36 24 -48 18 -14 25 -33 31 -76 4 -32
11 -66 16 -75 7 -13 3 -21 -16 -34 -14 -9 -28 -27 -31 -40 -3 -13 -11 -21 -19
-18 -8 4 -14 41 -19 117 l-7 112 -49 75 c-31 47 -45 77 -38 81 6 4 -42 7 -106
8 -117 2 -117 2 -112 -21z m141 -6 c27 6 40 -6 98 -93 27 -40 37 -66 37 -94 0
-38 0 -38 -21 -19 -20 18 -21 18 -34 1 -12 -16 -14 -16 -36 11 -13 15 -35 45
-49 65 -14 20 -30 37 -36 37 -13 0 -49 39 -57 63 -4 11 -1 17 7 17 7 0 19 7
26 15 10 12 16 13 26 4 8 -6 25 -9 39 -7z m320 -68 c24 -24 13 -39 -31 -42
-30 -2 -45 2 -58 17 -10 11 -15 25 -11 30 10 17 82 13 100 -5z m175 -84 c16
-11 42 -23 59 -26 21 -5 31 -12 31 -25 0 -17 -2 -17 -36 -3 -42 18 -94 54 -94
66 0 13 10 10 40 -12z m-110 -85 c0 -26 -14 -33 -25 -15 -9 14 1 40 15 40 5 0
10 -11 10 -25z m-440 7 c0 -4 -4 -12 -9 -17 -5 -6 -11 -21 -14 -35 -3 -16 -5
-10 -6 18 -1 31 3 42 14 42 8 0 15 -4 15 -8z m607 -17 c30 -6 55 -35 31 -35
-6 0 -20 -7 -30 -16 -16 -16 -18 -16 -24 0 -3 9 -12 16 -19 16 -18 0 -38 27
-30 40 4 6 14 9 23 6 10 -2 31 -7 49 -11z m743 -5 c4 -6 21 -12 39 -12 l32 -1
-6 -47 c-5 -38 -2 -49 14 -64 17 -15 23 -16 36 -6 12 10 15 10 15 -4 0 -9 15
-26 34 -37 33 -19 66 -58 66 -78 0 -16 -84 11 -109 36 -13 12 -30 23 -38 23
-17 0 -53 58 -46 76 10 27 -17 44 -70 44 -37 0 -63 7 -96 27 -25 15 -48 25
-50 22 -2 -2 -6 1 -8 7 -2 7 13 13 39 16 33 3 46 0 56 -14 14 -19 62 -25 62
-8 0 5 -11 12 -25 16 -14 3 -25 11 -25 16 0 14 71 2 80 -12z m350 -57 c27 -16
50 -31 50 -34 0 -4 -18 -25 -40 -48 -25 -26 -40 -50 -40 -66 0 -29 8 -32 26
-7 13 16 13 16 14 0 0 -22 26 -24 34 -2 8 20 -2 36 -17 28 -7 -4 0 6 14 20
l26 28 54 -16 c31 -10 68 -30 89 -50 27 -26 47 -35 88 -40 51 -7 52 -6 52 19
0 34 12 25 46 -33 22 -38 28 -60 28 -112 1 -115 -65 -310 -107 -318 -9 -2 -72
17 -139 42 -96 35 -129 53 -150 78 -16 18 -28 38 -28 45 0 6 -5 15 -12 19 -8
5 -9 0 -5 -17 l6 -24 -19 25 c-25 31 -26 58 -3 56 12 0 19 7 21 22 2 13 -2 22
-9 22 -20 0 -79 43 -79 58 0 7 7 24 16 38 13 19 14 30 7 47 -8 16 -6 34 9 72
11 28 24 52 29 53 14 6 11 28 -11 67 -36 64 -26 69 50 28z m-143 1 c-3 -3 -12
-4 -19 -1 -8 3 -5 6 6 6 11 1 17 -2 13 -5z m-1412 -33 l30 -16 -42 -3 c-43 -3
-57 -17 -28 -28 24 -10 17 -22 -16 -29 -32 -7 -68 12 -41 22 16 6 15 22 -2 54
l-14 27 42 -5 c22 -3 55 -13 71 -22z m-145 -17 c0 -2 -9 -4 -20 -4 -11 0 -20
4 -20 9 0 5 9 7 20 4 11 -3 20 -7 20 -9z m-103 -17 c-2 -20 4 -22 58 -27 55
-5 58 -6 37 -18 -12 -7 -28 -10 -34 -6 -6 4 -28 6 -49 6 -29 -1 -40 3 -52 22
-17 26 -9 41 23 43 14 1 19 -4 17 -20z m290 -24 c3 -7 -8 -11 -26 -11 -17 1
-31 5 -31 10 0 5 4 7 9 3 5 -3 13 -1 16 5 8 13 27 8 32 -7z m82 -12 c-15 -5
-22 6 -14 19 6 9 10 9 16 -1 5 -8 4 -15 -2 -18z m-486 -1 c16 -19 14 -25 -8
-21 -18 4 -135 -23 -135 -31 0 -4 -7 -8 -15 -8 -14 0 -14 3 0 24 15 23 28 30
85 46 42 13 55 11 73 -10z m896 -29 c7 -5 10 -14 6 -20 -5 -9 -10 -9 -21 0
-26 22 -14 38 15 20z m-443 -11 c20 0 17 -19 -3 -19 -32 -1 -128 -18 -145 -26
-11 -4 -18 -3 -18 4 0 6 -1 14 -2 18 -3 9 121 32 140 27 8 -2 20 -4 28 -4z
m489 -10 c3 -5 -1 -10 -10 -10 -9 0 -13 5 -10 10 3 6 8 10 10 10 2 0 7 -4 10
-10z m-890 -41 c-9 -16 -20 -27 -24 -25 -10 7 -61 -16 -61 -26 0 -5 5 -8 11
-8 5 0 7 -5 3 -11 -4 -7 4 -20 17 -30 l24 -19 -27 0 c-16 0 -28 -4 -28 -10 0
-5 5 -10 10 -10 6 0 10 -4 10 -10 0 -5 -7 -10 -15 -10 -8 0 -15 -4 -15 -10 0
-5 5 -10 10 -10 6 0 10 -5 10 -10 0 -7 -14 -8 -37 -4 -49 9 -50 10 -28 34 17
19 17 20 0 20 -18 0 -18 1 0 14 16 11 17 17 7 29 -10 12 -9 15 8 20 23 6 28
45 8 65 -9 9 -4 12 25 12 20 0 39 6 44 14 8 14 42 26 55 19 5 -2 1 -18 -7 -34z
m166 36 c34 -11 20 -20 -31 -20 -37 0 -53 -5 -63 -19 -14 -19 -15 -19 -26 2
-6 11 -11 25 -11 30 0 10 103 16 131 7z m409 -35 c0 -5 -4 -10 -9 -10 -6 0
-13 5 -16 10 -3 6 1 10 9 10 9 0 16 -4 16 -10z m-798 -12 c66 3 103 -13 59
-25 -12 -3 -21 -10 -21 -15 0 -6 -12 -8 -28 -5 -19 4 -38 -1 -57 -13 l-29 -19
24 -10 25 -9 -27 -11 c-31 -12 -36 -26 -12 -35 26 -10 47 14 40 45 -5 26 -3
27 39 31 49 3 59 -7 20 -22 -34 -13 -33 -40 3 -40 24 0 22 -3 -17 -20 -24 -11
-52 -18 -63 -14 -28 9 -78 -6 -78 -22 0 -12 10 -15 38 -12 20 2 39 -1 42 -7 3
-6 -16 -11 -46 -13 -61 -4 -80 11 -64 52 5 15 7 38 4 50 -4 19 -1 25 20 30 23
6 25 9 15 28 -8 16 -8 22 2 29 10 6 10 11 -2 25 -13 16 -12 17 16 8 17 -4 60
-7 97 -6z m748 7 c0 -3 -17 -12 -37 -20 -29 -12 -38 -13 -45 -3 -14 23 -8 28
37 28 25 0 45 -2 45 -5z m450 -4 c0 -5 9 -11 20 -14 14 -4 18 -10 13 -23 -4
-11 0 -22 12 -30 10 -7 15 -20 12 -28 -4 -9 -2 -18 3 -21 6 -4 10 -12 10 -18
-1 -16 -60 54 -60 70 0 7 -4 14 -10 14 -5 1 -14 2 -19 3 -18 2 -24 16 -8 16
10 0 17 5 17 10 0 6 -9 10 -20 10 -11 0 -20 5 -20 10 0 6 11 10 25 10 14 0 25
-4 25 -9z m740 -51 c40 -40 -20 -55 -70 -18 -20 15 -30 30 -30 49 l0 26 42
-20 c23 -12 49 -28 58 -37z m-1320 41 c0 -5 -7 -14 -16 -22 -12 -10 -20 -10
-35 -1 -10 7 -26 12 -34 12 -8 0 -15 4 -15 8 0 5 23 10 50 11 28 1 50 -3 50
-8z m518 -48 c-1 -22 -6 -33 -16 -33 -9 0 -12 6 -8 15 3 9 -1 18 -9 21 -21 8
-19 42 3 46 22 5 31 -10 30 -49z m-891 25 c-3 -8 -6 -5 -6 6 -1 11 2 17 5 13
3 -3 4 -12 1 -19z m157 13 c9 -13 -15 -28 -56 -35 -32 -6 -38 -11 -38 -31 0
-14 -2 -25 -4 -25 -2 0 -11 -3 -19 -6 -12 -4 -14 0 -10 14 2 11 0 29 -6 40 -9
17 -7 21 12 26 12 3 34 6 49 6 15 0 30 5 33 10 8 12 32 13 39 1z m96 -1 c0 -5
-2 -10 -4 -10 -2 0 -12 -3 -20 -6 -12 -5 -15 -2 -10 10 7 17 34 22 34 6z m490
-22 c0 -16 -5 -19 -21 -15 -11 3 -34 1 -50 -5 -32 -11 -54 -1 -41 18 7 11 92
33 105 27 4 -2 7 -13 7 -25z m-1255 -12 c-18 -28 -42 -40 -50 -26 -4 6 -2 10
3 10 5 0 12 9 15 20 3 12 14 20 26 20 20 0 21 -1 6 -24z m1089 8 c17 -7 22
-34 7 -34 -5 0 -15 -2 -23 -5 -7 -3 -19 -1 -27 4 -12 8 -12 12 -2 25 15 18 22
19 45 10z m-634 -14 c0 -5 -2 -10 -4 -10 -3 0 -8 5 -11 10 -3 6 -1 10 4 10 6
0 11 -4 11 -10z m360 -11 c0 -5 -9 -9 -20 -9 -10 0 -23 -8 -29 -17 -8 -15 -12
-16 -23 -5 -11 11 -9 17 9 32 22 18 63 17 63 -1z m206 10 c9 -15 -5 -26 -48
-33 -30 -6 -38 -4 -38 8 0 29 70 50 86 25z m1011 -2 c-2 -7 -13 -12 -25 -12
-11 0 -30 -10 -42 -22 -11 -13 -30 -23 -40 -23 -33 0 45 65 81 67 20 2 29 -2
26 -10z m-718 -34 c-6 -6 -27 -13 -47 -15 -31 -3 -37 -7 -40 -29 -2 -14 4 -31
12 -38 12 -10 17 -9 26 8 11 21 36 26 78 15 29 -8 28 -24 -2 -24 -13 0 -36 -6
-51 -14 -24 -13 -173 -33 -203 -27 -6 1 -28 -3 -48 -8 -28 -8 -36 -7 -41 5 -3
9 -10 11 -17 6 -30 -22 -63 15 -37 41 8 8 11 5 11 -12 0 -30 34 -24 38 7 3 22
17 27 46 16 15 -6 15 -8 -1 -19 -17 -13 -17 -14 -1 -20 9 -4 26 -2 37 4 13 8
34 8 60 2 32 -7 43 -6 53 6 9 11 9 16 -2 23 -8 5 -18 6 -24 3 -5 -3 -6 -1 -2
5 4 7 14 12 22 12 8 0 14 5 14 10 0 6 -9 10 -20 10 -11 0 -20 6 -20 14 0 15
30 26 76 26 17 0 37 7 44 15 9 11 16 12 30 2 14 -8 16 -15 9 -24z m-1255 8
c24 -26 3 -37 -29 -14 -13 10 -25 21 -25 26 0 15 37 6 54 -12z m454 -9 c14
-21 13 -22 -12 -22 -21 0 -26 5 -26 26 0 30 16 28 38 -4z m352 18 c0 -5 -7
-10 -15 -10 -8 0 -15 5 -15 10 0 6 7 10 15 10 8 0 15 -4 15 -10z m28 -42 c-3
-7 -11 -13 -18 -13 -7 0 -15 6 -17 13 -3 7 4 12 17 12 13 0 20 -5 18 -12z
m226 -19 c-1 -17 -4 -33 -7 -36 -10 -10 -27 8 -27 28 0 17 -5 19 -35 13 -20
-3 -35 -2 -35 3 0 18 13 23 60 23 45 0 46 -1 44 -31z m651 18 c43 0 52 -11 50
-59 l-2 -43 -48 -1 c-26 -1 -51 -7 -54 -13 -7 -11 -31 73 -31 110 0 16 5 18
27 13 15 -4 41 -7 58 -7z m115 3 c-20 -13 -40 -13 -40 0 0 6 12 10 28 10 21 0
24 -2 12 -10z m-1050 -10 c0 -5 -7 -10 -15 -10 -8 0 -15 5 -15 10 0 6 7 10 15
10 8 0 15 -4 15 -10z m594 -16 c14 -36 6 -44 -19 -22 -14 12 -25 25 -25 30 0
15 38 8 44 -8z m-850 -9 c-22 -17 -34 -19 -34 -6 0 5 8 12 18 14 32 9 36 7 16
-8z m186 -8 c42 -19 67 -46 62 -69 -3 -14 3 -18 22 -18 14 0 26 6 27 13 2 37
6 58 12 64 12 11 18 -4 22 -49 3 -38 6 -43 27 -41 140 15 151 16 144 4 -4 -6
-16 -11 -27 -11 -10 0 -19 -7 -19 -15 0 -11 9 -14 33 -11 26 3 32 8 32 27 0
22 5 25 35 21 6 -1 10 -9 10 -17 0 -9 7 -18 15 -21 28 -11 15 -20 -32 -22 -27
-1 -70 -5 -97 -8 -31 -4 -46 -3 -42 4 3 5 -1 15 -10 23 -12 10 -18 9 -32 -5
-12 -11 -13 -19 -6 -24 6 -4 11 -33 10 -67 0 -33 7 -84 16 -112 9 -29 14 -53
10 -53 -4 0 -23 26 -42 57 -27 44 -35 68 -35 108 -1 57 -30 109 -65 118 -24 6
-38 -11 -16 -19 9 -3 16 -15 16 -25 0 -10 7 -19 15 -19 8 0 15 -4 15 -10 0
-13 -13 -13 -27 1 -14 14 -33 3 -33 -17 0 -8 13 -17 30 -20 25 -6 30 -11 30
-36 0 -17 8 -42 18 -56 10 -15 27 -44 37 -66 11 -21 26 -40 33 -43 20 -8 14
-20 -33 -69 -25 -25 -45 -41 -45 -35 0 6 -6 11 -13 11 -22 0 -40 -46 -34 -84
6 -40 -11 -70 -35 -61 -13 5 -15 17 -12 60 l5 53 -46 -17 c-25 -8 -45 -22 -45
-28 0 -7 -4 -13 -10 -13 -5 0 -10 14 -10 30 0 20 -5 30 -15 30 -9 0 -12 6 -9
15 7 18 -32 107 -52 118 -8 4 -14 14 -14 21 0 8 -7 19 -15 26 -8 7 -15 19 -15
26 0 10 10 9 40 -7 29 -15 40 -27 40 -44 0 -13 4 -26 10 -30 5 -3 7 -11 5 -18
-6 -14 11 -44 20 -36 3 4 2 35 -2 70 -8 62 -9 64 -52 87 -24 12 -50 21 -59 20
-22 -4 -35 63 -23 125 5 28 7 57 4 65 -3 8 -2 17 4 21 5 3 16 17 25 30 9 13
34 34 55 47 42 27 84 27 143 1z m-264 5 c12 -7 11 -93 -1 -112 -8 -12 -45 31
-45 52 0 17 23 68 30 68 3 0 10 -4 16 -8z m-57 -17 c4 -17 0 -35 -9 -35 -5 0
-10 12 -10 26 0 21 14 28 19 9z m-654 -59 c-26 -19 -39 -10 -17 13 10 10 21
14 26 10 6 -6 2 -15 -9 -23z m576 22 c13 -7 35 -21 49 -30 22 -16 23 -19 9
-34 -15 -14 -19 -13 -53 10 -20 13 -42 26 -49 29 -9 3 -9 8 2 20 16 20 13 20
42 5z m1299 -25 c3 -19 22 -45 56 -75 l51 -45 -31 -16 c-59 -29 -64 -28 -71 6
-11 56 -16 67 -30 67 -7 0 -15 -7 -19 -15 -4 -11 -13 -14 -29 -10 -18 5 -28 0
-40 -19 -17 -25 -55 -52 -63 -44 -2 3 7 27 21 55 13 28 27 63 31 77 7 31 17
38 64 47 49 9 54 7 60 -28z m-320 13 c0 -7 -18 -17 -42 -22 -24 -5 -42 -13
-41 -19 3 -20 -27 -26 -44 -9 -16 15 -16 17 2 30 10 8 35 14 54 14 20 0 43 5
51 10 19 13 20 12 20 -4z m-1430 -20 c0 -25 -15 -33 -50 -29 -48 7 -96 -11
-103 -38 -3 -11 -14 -19 -27 -19 -21 0 -21 0 4 32 18 24 39 36 73 44 50 12
103 17 103 10z m1554 -95 c-5 -5 -19 -12 -32 -16 -22 -6 -23 -5 -17 32 4 21
11 48 18 61 10 22 12 21 26 -23 8 -27 10 -49 5 -54z m-1524 79 c0 -5 -4 -10
-10 -10 -5 0 -10 5 -10 10 0 6 5 10 10 10 6 0 10 -4 10 -10z m153 -12 c12 -6
24 -4 39 7 27 18 71 20 66 3 -9 -25 -198 -39 -198 -15 0 8 3 16 6 20 8 7 62
-2 87 -15z m147 18 c0 -3 -4 -8 -10 -11 -5 -3 -10 -1 -10 4 0 6 5 11 10 11 6
0 10 -2 10 -4z m1510 -18 c0 -13 -23 -5 -28 10 -2 7 2 10 12 6 9 -3 16 -11 16
-16z m-382 -16 c3 -22 -12 -30 -23 -12 -3 6 -16 10 -28 10 -21 0 -21 1 3 14
32 18 44 15 48 -12z m-974 -48 c3 -8 14 -14 25 -14 11 0 27 -10 35 -22 25 -36
19 -44 -11 -16 -49 46 -104 68 -156 63 -27 -3 -47 -1 -47 5 0 6 11 10 25 10
19 0 25 5 25 21 0 20 2 19 49 -7 28 -14 52 -33 55 -40z m70 44 c9 -12 14 -24
12 -26 -5 -4 -46 35 -46 43 0 13 20 3 34 -17z m-586 -40 c3 -28 -6 -36 -23
-19 -6 5 -26 14 -45 19 l-35 9 25 11 c43 19 75 11 78 -20z m342 14 c0 -14 -55
-31 -115 -37 -33 -3 -75 -8 -92 -11 -25 -5 -33 -3 -33 9 0 31 24 37 84 23 12
-2 37 1 56 9 39 14 100 19 100 7z m1118 -25 c8 -6 12 -21 9 -34 -2 -13 0 -26
4 -29 22 -13 6 -21 -21 -11 -19 7 -30 18 -30 30 0 12 -11 23 -30 30 -48 18
-39 40 13 32 23 -4 48 -12 55 -18z m-1422 -14 c-10 -10 -19 5 -10 18 6 11 8
11 12 0 2 -7 1 -15 -2 -18z m584 7 c0 -5 -4 -10 -10 -10 -5 0 -10 5 -10 10 0
6 5 10 10 10 6 0 10 -4 10 -10z m649 -16 c-32 -17 -49 -17 -49 0 0 15 35 25
59 17 9 -3 6 -8 -10 -17z m-1477 -14 c-23 -21 -42 -26 -42 -10 0 10 52 41 59
34 3 -2 -5 -13 -17 -24z m1403 21 c-13 -12 -104 -20 -111 -10 -6 10 21 16 76
18 27 1 40 -3 35 -8z m-683 -38 c89 -62 102 -72 97 -77 -3 -3 -16 1 -29 8 -43
22 -75 41 -80 47 -3 3 -34 3 -70 -1 -70 -8 -91 -3 -68 14 8 6 17 19 21 29 11
30 68 22 129 -20z m-192 7 c0 -5 -9 -10 -20 -10 -25 0 -38 -29 -19 -41 11 -7
9 -9 -7 -9 -11 0 -25 -5 -31 -11 -6 -6 -21 -9 -34 -6 -24 4 -24 5 -2 12 21 7
40 45 22 45 -6 0 -22 -6 -37 -14 -35 -17 -122 -30 -122 -18 0 13 25 22 58 22
15 1 52 9 82 20 60 21 110 26 110 10z m-344 -29 c-10 -16 -69 -14 -64 1 5 15
50 28 62 17 4 -4 5 -12 2 -18z m1191 3 c4 -11 13 -14 29 -10 28 7 32 -8 7 -23
-15 -9 -13 -11 12 -12 17 -1 36 -2 43 -2 19 1 14 -15 -8 -22 -13 -4 -20 -15
-20 -30 0 -33 -19 -41 -36 -17 -8 11 -24 22 -37 24 -17 2 -23 11 -25 36 -2 18
-10 36 -18 39 -12 4 -12 8 3 19 24 18 42 17 50 -2z m163 -4 c0 -17 48 -43 63
-33 5 3 8 0 5 -7 -6 -20 -40 -29 -68 -18 -18 7 -21 11 -11 17 17 11 4 34 -15
27 -8 -3 -28 -3 -46 1 -28 5 -29 7 -14 19 24 17 86 13 86 -6z m-1492 2 c9 -6
6 -12 -13 -20 -49 -22 -28 -32 55 -26 64 4 80 2 80 -9 0 -10 -26 -16 -97 -23
-54 -6 -99 -10 -100 -9 -1 1 0 18 4 39 4 25 13 40 27 46 27 11 29 11 44 2z
m62 -2 c0 -5 -4 -10 -10 -10 -5 0 -10 5 -10 10 0 6 5 10 10 10 6 0 10 -4 10
-10z m107 -12 c-3 -8 -6 -5 -6 6 -1 11 2 17 5 13 3 -3 4 -12 1 -19z m1403 12
c0 -5 -7 -7 -15 -4 -8 4 -15 8 -15 10 0 2 7 4 15 4 8 0 15 -4 15 -10z m-1350
-20 c0 -5 -4 -10 -10 -10 -5 0 -10 5 -10 10 0 6 5 10 10 10 6 0 10 -4 10 -10z
m465 -36 c41 -17 45 -22 40 -44 -9 -34 -7 -33 -65 -21 -70 15 -116 14 -150 -4
-28 -15 -30 -14 -30 4 0 24 19 31 82 31 44 0 48 2 34 15 -8 9 -33 15 -57 15
-26 0 -39 4 -33 9 26 25 109 23 179 -5z m-527 4 c-2 -6 -10 -14 -16 -16 -7 -2
-10 2 -6 12 7 18 28 22 22 4z m51 -13 c7 4 37 8 67 9 l55 2 -33 -17 c-18 -10
-52 -18 -75 -19 -38 0 -43 3 -43 23 0 16 3 18 9 8 5 -7 14 -10 20 -6z m271 7
c0 -4 -17 -14 -37 -21 -21 -8 -44 -18 -50 -23 -20 -16 -15 -31 7 -25 13 3 20
0 20 -9 0 -8 -8 -14 -18 -14 -10 0 -22 -4 -27 -9 -17 -15 -169 -61 -203 -61
-30 0 -31 2 -20 20 17 27 33 33 113 39 63 5 70 8 73 29 4 26 0 27 -38 7 -17
-9 -30 -12 -30 -8 0 4 -5 2 -12 -5 -7 -7 -27 -12 -46 -12 -52 0 -34 24 24 31
62 9 206 48 219 60 11 11 25 12 25 1z m290 -60 c0 -15 -2 -15 -10 -2 -13 20
-13 33 0 25 6 -3 10 -14 10 -23z m760 11 c0 -17 -24 -43 -40 -43 -10 0 -22 -9
-25 -20 -8 -24 -18 -25 -35 -5 -7 9 -21 13 -31 10 -11 -4 -19 -2 -19 3 0 16
41 22 47 6 7 -19 23 -18 23 1 0 9 7 18 15 21 8 4 15 14 15 24 0 13 6 16 25 12
14 -2 25 -6 25 -9z m-1457 -20 c22 -13 -2 -21 -78 -25 -65 -3 -90 -9 -103 -22
-16 -18 -14 -18 70 -12 48 3 89 2 92 -3 11 -17 -24 -34 -59 -28 -22 4 -62 -3
-112 -19 -43 -13 -79 -24 -80 -24 -12 -1 2 31 21 49 13 13 27 33 30 46 5 21
33 37 81 48 21 5 125 -2 138 -10z m378 -10 c-8 -15 -10 -15 -11 -2 0 17 10 32
18 25 2 -3 -1 -13 -7 -23z m369 11 c0 -8 -4 -12 -10 -9 -5 3 -10 10 -10 16 0
5 5 9 10 9 6 0 10 -7 10 -16z m530 -23 c13 -25 13 -31 0 -31 -5 0 -10 7 -10
15 0 8 -9 15 -20 15 -11 0 -20 5 -20 10 0 18 39 11 50 -9z m-642 -24 c13 -10
17 -47 5 -47 -5 0 -17 7 -27 15 -26 19 -132 19 -166 0 -32 -18 -60 -19 -60 -1
0 25 26 36 101 44 78 9 126 5 147 -11z m143 6 c26 -32 39 -62 45 -103 6 -34 4
-40 -10 -40 -13 0 -17 8 -16 28 3 43 2 47 -25 76 -25 27 -33 56 -17 56 5 0 15
-8 23 -17z m429 13 c0 -3 -4 -8 -10 -11 -5 -3 -10 -1 -10 4 0 6 5 11 10 11 6
0 10 -2 10 -4z m-1189 -49 c-13 -13 -26 -3 -16 12 3 6 11 8 17 5 6 -4 6 -10
-1 -17z m36 -9 c-3 -7 -5 -2 -5 12 0 14 2 19 5 13 2 -7 2 -19 0 -25z m699 -28
c13 -7 24 -20 24 -27 0 -11 -8 -9 -30 7 -23 17 -30 28 -29 53 2 28 2 29 6 6 2
-15 15 -32 29 -39z m-423 21 c-8 -30 -62 -50 -188 -71 -27 -4 -63 -11 -80 -16
-30 -7 -30 -7 -14 17 12 17 30 26 60 31 24 4 75 16 114 27 47 13 72 16 76 9 4
-6 10 -2 14 11 8 26 25 19 18 -8z m42 9 c3 -5 1 -10 -4 -10 -6 0 -11 5 -11 10
0 6 2 10 4 10 3 0 8 -4 11 -10z m315 0 c0 -5 -2 -10 -4 -10 -3 0 -8 5 -11 10
-3 6 -1 10 4 10 6 0 11 -4 11 -10z m-36 -60 c18 -18 -2 -22 -51 -11 -46 9
-129 3 -190 -15 -19 -5 -23 -2 -23 15 0 25 18 30 120 33 78 3 126 -4 144 -22z
m-718 -36 c-4 -10 -19 -14 -53 -13 -27 1 -68 -4 -93 -11 -90 -23 -100 -24
-100 -4 0 29 54 48 155 54 90 5 102 2 91 -26z m764 10 c0 -8 -4 -12 -10 -9 -5
3 -10 13 -10 21 0 8 5 12 10 9 6 -3 10 -13 10 -21z m-715 7 c3 -5 1 -12 -5
-16 -5 -3 -10 1 -10 9 0 18 6 21 15 7z m335 -11 c0 -11 -4 -20 -9 -20 -5 0 -7
9 -4 20 3 11 7 20 9 20 2 0 4 -9 4 -20z m37 -2 c-3 -8 -6 -5 -6 6 -1 11 2 17
5 13 3 -3 4 -12 1 -19z m-327 3 c0 -6 -4 -13 -10 -16 -5 -3 -10 1 -10 9 0 9 5
16 10 16 6 0 10 -4 10 -9z m260 -16 c0 -24 -16 -30 -225 -75 -23 -5 -44 -5
-49 0 -4 4 -15 6 -24 3 -10 -4 -13 -2 -8 5 4 7 14 12 22 12 9 0 22 6 29 14 8
7 60 20 116 29 56 9 107 21 112 26 13 13 27 5 27 -14z m780 10 c-7 -9 -15 -13
-19 -10 -3 3 1 10 9 15 21 14 24 12 10 -5z m-1121 -91 c-18 -22 -23 -9 -8 26
12 27 14 28 17 10 2 -12 -2 -28 -9 -36z m704 24 c11 -9 14 -18 8 -27 -8 -12
-14 -12 -43 0 -41 17 -142 13 -186 -7 -18 -8 -37 -12 -42 -9 -16 10 -12 33 8
44 25 15 234 14 255 -1z m91 -30 c4 -17 2 -28 -4 -28 -5 0 -10 14 -10 32 0 36
4 35 14 -4z m-434 3 c0 -11 -4 -23 -10 -26 -6 -4 -10 5 -10 19 0 14 5 26 10
26 6 0 10 -9 10 -19z m-50 -11 c0 -22 -28 -40 -64 -40 -14 0 -27 -4 -30 -8 -2
-4 -22 -9 -43 -10 -21 -1 -60 -7 -86 -13 -49 -12 -64 -9 -52 10 15 25 91 53
167 61 44 5 83 12 86 15 11 11 22 4 22 -15z m90 5 c0 -8 -4 -15 -10 -15 -5 0
-10 7 -10 15 0 8 5 15 10 15 6 0 10 -7 10 -15z m471 -62 c24 -32 47 -59 52
-61 4 -2 7 -8 7 -13 0 -17 -25 2 -49 36 -13 19 -30 35 -37 35 -13 0 -34 30
-34 49 0 23 19 9 61 -46z m-74 -25 c-3 -8 -6 -5 -6 6 -1 11 2 17 5 13 3 -3 4
-12 1 -19z m-782 2 c-3 -5 -10 -10 -16 -10 -5 0 -9 5 -9 10 0 6 7 10 16 10 8
0 12 -4 9 -10z m-74 -94 c15 -16 10 -29 -6 -16 -8 7 -14 24 -14 39 1 20 2 22
6 6 3 -11 9 -24 14 -29z m2460 -138 c11 -21 11 -22 -4 -9 -10 7 -17 17 -17 22
0 15 9 10 21 -13z m49 -60 c0 -5 -7 -3 -15 6 -8 8 -15 18 -15 22 0 3 7 1 15
-6 8 -7 15 -17 15 -22z m70 -76 c0 -3 -13 7 -30 23 -16 16 -30 32 -30 37 0 4
14 -6 30 -24 17 -17 30 -33 30 -36z"/>
<path d="M2872 2024 c4 -20 34 -41 44 -31 8 8 -24 47 -38 47 -5 0 -8 -7 -6
-16z"/>
<path d="M2856 1968 c-6 -24 8 -38 37 -38 24 0 21 22 -7 42 -23 17 -24 17 -30
-4z"/>
<path d="M1150 1635 c-17 -21 -5 -45 22 -45 13 0 31 -9 41 -20 18 -21 18 -21
47 9 17 16 30 32 30 34 0 12 -53 13 -65 1 -19 -19 -24 -18 -35 11 -11 29 -22
31 -40 10z"/>
<path d="M1348 1578 c-10 -12 -18 -25 -18 -29 0 -5 -16 -25 -35 -46 -41 -44
-44 -57 -12 -48 38 12 91 90 85 125 -3 18 -4 18 -20 -2z"/>
<path d="M1259 1403 c-2 -34 2 -67 7 -72 8 -9 17 9 17 34 0 14 3 28 8 31 17
10 9 34 -11 34 -15 0 -20 -7 -21 -27z"/>
<path d="M898 1513 c7 -3 16 -2 19 1 4 3 -2 6 -13 5 -11 0 -14 -3 -6 -6z"/>
<path d="M1963 2549 c11 -7 23 -7 35 0 14 9 11 10 -18 10 -29 0 -32 -1 -17
-10z"/>
<path d="M660 2345 c0 -8 4 -15 9 -15 5 0 14 7 21 15 10 13 9 15 -9 15 -12 0
-21 -6 -21 -15z"/>
<path d="M896 2311 c-3 -5 0 -11 8 -14 15 -6 26 1 26 15 0 11 -27 10 -34 -1z"/>
<path d="M2140 2270 c-13 -8 -13 -10 2 -10 9 0 20 5 23 10 8 13 -5 13 -25 0z"/>
<path d="M643 2224 c-7 -19 2 -28 22 -21 19 8 19 23 0 31 -9 3 -18 -1 -22 -10z"/>
<path d="M540 2182 c-47 -32 -130 -115 -130 -129 0 -19 14 -16 35 7 10 11 24
20 31 20 7 0 20 12 29 28 9 15 31 36 48 47 33 22 47 45 25 45 -7 0 -24 -8 -38
-18z"/>
<path d="M2427 2143 c-13 -12 -7 -23 13 -23 11 0 20 7 20 15 0 15 -21 21 -33
8z"/>
<path d="M2040 2123 c0 -4 4 -14 8 -21 10 -15 45 -5 39 12 -4 13 -47 21 -47 9z"/>
<path d="M317 2044 c-31 -17 -27 -38 6 -28 22 7 37 22 37 37 0 10 -11 8 -43
-9z"/>
<path d="M2338 2009 c-21 -12 -24 -39 -4 -39 7 0 19 7 26 15 17 21 1 37 -22
24z"/>
<path d="M297 1994 c-4 -4 -7 -16 -7 -26 0 -10 -4 -18 -9 -18 -11 0 -46 -88
-39 -96 9 -8 52 38 73 78 17 34 18 39 4 53 -8 9 -18 12 -22 9z"/>
<path d="M3433 1870 c0 -47 2 -66 4 -42 2 23 2 61 0 85 -2 23 -4 4 -4 -43z"/>
<path d="M2707 1639 c24 -24 123 -72 132 -64 13 14 -19 40 -58 48 -22 4 -41
12 -41 18 0 5 -10 9 -22 9 -16 0 -19 -3 -11 -11z"/>
<path d="M2840 1535 c-18 -21 -11 -25 72 -41 92 -18 108 -18 108 1 0 14 -30
21 -67 16 -7 -1 -31 7 -55 19 -50 24 -43 23 -58 5z"/>
<path d="M1970 1520 c-8 -5 -25 -10 -37 -10 -13 0 -31 -7 -40 -15 -10 -8 -27
-21 -38 -29 l-20 -15 20 -1 c11 0 34 9 51 19 18 11 45 21 60 23 18 2 30 10 32
21 4 19 -6 22 -28 7z"/>
<path d="M2290 1482 c-31 -20 -30 -57 1 -49 12 3 19 0 19 -9 0 -19 17 -18 29
3 6 12 5 26 -5 45 -8 15 -16 28 -17 28 -1 0 -13 -8 -27 -18z"/>
<path d="M1931 1433 c-34 -36 -32 -57 6 -43 18 8 42 64 31 75 -2 2 -18 -12
-37 -32z"/>
<path d="M2450 1446 c0 -8 35 -40 78 -71 109 -80 193 -157 272 -250 37 -44 94
-106 125 -138 31 -32 54 -61 51 -65 -4 -3 -12 0 -18 6 -23 23 -41 14 -33 -15
l7 -28 -28 25 c-16 14 -36 35 -46 47 -11 12 -43 48 -72 80 -29 32 -69 76 -88
97 -51 57 -68 42 -21 -19 21 -27 45 -56 53 -65 8 -9 44 -49 80 -89 71 -79 156
-146 165 -131 3 6 3 15 0 20 -4 6 5 10 19 10 28 0 33 9 14 28 -6 6 -8 15 -4
19 4 4 11 1 16 -6 12 -20 40 -5 40 22 0 24 49 87 68 87 6 0 17 8 24 18 7 10
30 31 50 46 37 28 42 46 11 46 -16 0 -51 -27 -150 -116 l-56 -51 -84 87 c-46
47 -95 102 -108 121 -29 39 -113 119 -165 157 -19 14 -39 31 -45 37 -18 20
-137 105 -146 105 -5 0 -9 -6 -9 -14z"/>
<path d="M2955 1449 c-7 -10 21 -38 39 -39 4 0 40 -28 80 -63 39 -34 88 -71
109 -82 20 -11 37 -23 37 -27 0 -10 40 -47 74 -68 23 -15 32 -16 48 -7 15 10
20 9 28 -3 10 -17 3 -33 -12 -24 -6 4 -8 -1 -4 -13 4 -14 -3 -29 -24 -52 -31
-32 -31 -32 -24 -115 6 -77 5 -83 -12 -82 -11 1 -19 -3 -19 -9 0 -5 11 -10 24
-10 15 -1 28 -10 38 -29 20 -38 12 -51 -33 -54 -43 -3 -49 -6 -39 -21 11 -19
100 -13 128 9 21 17 25 27 22 63 -3 47 3 66 16 46 5 -8 8 31 8 96 -1 109 -2
109 -11 45 -5 -35 -13 -69 -19 -76 -9 -12 -17 -60 -18 -116 -1 -16 -6 -28 -12
-28 -5 0 -8 3 -5 8 2 4 -4 25 -14 47 -11 22 -19 59 -20 83 0 24 -5 53 -11 64
-9 18 -5 27 35 67 57 58 59 84 11 129 -36 32 -55 40 -55 22 0 -20 -18 -9 -61
36 -24 25 -60 54 -79 64 -19 10 -44 27 -55 37 -56 50 -139 113 -151 113 -7 0
-16 -5 -19 -11z"/>
<path d="M1627 1394 c-9 -10 4 -34 18 -34 23 0 27 18 7 29 -11 6 -22 8 -25 5z"/>
<path d="M1839 1348 c-38 -37 -77 -104 -66 -114 10 -10 43 22 56 54 6 15 25
35 41 44 31 17 41 48 16 48 -7 0 -28 -15 -47 -32z"/>
<path d="M1700 1350 c0 -5 5 -10 10 -10 6 0 10 5 10 10 0 6 -4 10 -10 10 -5 0
-10 -4 -10 -10z"/>
<path d="M1566 1325 c-30 -27 -37 -85 -11 -85 11 0 14 7 10 23 -5 17 1 28 25
45 17 13 28 27 25 33 -9 14 -20 11 -49 -16z"/>
<path d="M2480 1310 c0 -5 5 -10 11 -10 5 0 7 5 4 10 -3 6 -8 10 -11 10 -2 0
-4 -4 -4 -10z"/>
<path d="M1723 1286 c3 -8 -1 -20 -9 -26 -8 -7 -14 -25 -14 -41 0 -16 -4 -29
-10 -29 -18 0 -10 -29 12 -44 12 -9 33 -16 46 -16 32 0 26 32 -8 40 -20 5 -24
11 -22 30 2 13 11 29 19 36 18 12 11 64 -8 64 -6 0 -9 -6 -6 -14z"/>
<path d="M2191 1239 c-33 -14 -41 -23 -33 -31 8 -8 20 -7 44 2 43 17 54 28 42
40 -6 6 -25 2 -53 -11z"/>
<path d="M1740 1199 c0 -5 5 -7 10 -4 6 3 10 8 10 11 0 2 -4 4 -10 4 -5 0 -10
-5 -10 -11z"/>
<path d="M1537 1174 c-4 -4 -1 -14 7 -23 21 -24 27 -91 11 -134 -11 -32 -11
-40 2 -52 12 -13 13 -20 2 -44 -8 -17 -22 -32 -32 -35 -24 -6 -13 -26 14 -26
11 0 23 10 29 24 5 13 14 27 19 31 17 10 13 55 -4 55 -17 0 -21 35 -5 45 14 9
12 73 -4 120 -14 39 -26 52 -39 39z"/>
<path d="M2163 1152 c-39 -19 -55 -55 -55 -123 1 -72 -27 -185 -74 -297 -18
-41 -7 -60 51 -92 24 -13 68 -49 99 -81 43 -44 60 -70 72 -111 8 -29 21 -64
28 -78 8 -14 19 -53 26 -88 6 -34 19 -82 29 -105 23 -53 98 -147 117 -147 8 0
14 2 14 5 0 3 -25 41 -56 85 -44 64 -58 94 -70 152 -8 40 -21 86 -28 103 -8
16 -19 50 -26 75 -7 25 -15 52 -19 62 -12 31 -119 137 -153 151 -47 20 -64 42
-50 70 5 12 21 57 34 99 12 43 26 78 30 78 4 0 10 -10 13 -22 4 -13 23 -38 41
-55 19 -18 34 -37 34 -42 0 -5 7 -14 15 -21 12 -10 15 -10 15 3 0 8 -7 20 -15
27 -8 7 -15 19 -15 26 0 7 -18 37 -39 66 -43 56 -57 105 -46 166 7 44 46 72
114 81 25 3 46 12 49 19 5 17 -94 14 -135 -6z"/>
<path d="M780 1120 c-8 -4 -28 -13 -43 -19 -36 -14 -26 -31 18 -31 29 0 32 -3
27 -22 -4 -17 -2 -20 12 -15 12 5 16 3 13 -5 -4 -14 -66 -16 -86 -3 -18 10
-33 -16 -19 -32 6 -8 18 -11 28 -8 39 12 100 12 111 -1 6 -8 15 -11 20 -8 16
10 9 32 -11 37 -12 3 -20 14 -20 26 0 11 -6 24 -14 28 -8 4 -16 20 -18 34 -2
20 -7 24 -18 19z"/>
<path d="M2560 1111 c0 -7 24 -36 83 -102 13 -14 26 -33 30 -42 3 -10 11 -17
16 -17 5 0 12 -8 15 -18 11 -32 190 -202 214 -202 22 0 13 12 -70 94 -78 77
-163 171 -182 204 -5 9 -4 17 4 22 7 4 9 16 5 29 -3 12 -11 19 -16 15 -5 -3
-7 -14 -4 -25 9 -28 -8 -23 -36 9 -24 29 -59 48 -59 33z"/>
<path d="M1636 1101 c-4 -7 -5 -15 -2 -18 9 -9 19 4 14 18 -4 11 -6 11 -12 0z"/>
<path d="M477 1074 c-12 -13 15 -34 43 -34 16 0 30 -7 34 -15 3 -8 18 -15 33
-15 l28 0 -30 29 c-29 28 -94 49 -108 35z"/>
<path d="M2705 1021 c-7 -12 41 -69 50 -59 8 8 -22 68 -35 68 -5 0 -11 -4 -15
-9z"/>
<path d="M94 975 c-8 -21 3 -34 26 -28 23 6 25 14 8 31 -16 16 -27 15 -34 -3z"/>
<path d="M1405 896 c-18 -28 -8 -74 19 -88 43 -22 115 -89 110 -102 -5 -14 20
-46 37 -46 5 0 9 7 9 15 0 8 -4 15 -8 15 -13 0 -31 82 -26 115 l5 30 -19 -22
c-21 -24 -42 -30 -42 -13 0 6 -9 10 -20 10 -10 0 -24 9 -30 19 -14 27 -13 30
10 24 15 -4 22 2 30 22 15 39 13 41 -26 41 -25 0 -40 -6 -49 -20z"/>
<path d="M217 823 c7 -46 10 -50 24 -36 8 8 8 20 -2 42 -19 42 -29 39 -22 -6z"/>
<path d="M3100 852 c0 -13 64 -82 77 -82 13 0 24 25 16 34 -4 3 -14 6 -24 6
-9 0 -24 11 -33 25 -16 24 -36 34 -36 17z"/>
<path d="M2867 830 c3 -11 9 -20 13 -20 5 0 16 -7 25 -16 12 -12 19 -14 27 -6
8 8 7 13 -5 18 -9 3 -17 12 -17 19 0 12 -21 25 -40 25 -4 0 -6 -9 -3 -20z"/>
<path d="M117 834 c-13 -13 -7 -52 9 -58 24 -9 27 -2 12 34 -7 17 -16 28 -21
24z"/>
<path d="M3200 819 c0 -5 5 -7 10 -4 6 3 10 8 10 11 0 2 -4 4 -10 4 -5 0 -10
-5 -10 -11z"/>
<path d="M304 795 c-6 -16 9 -34 29 -35 13 0 8 27 -8 40 -12 10 -16 9 -21 -5z"/>
<path d="M1265 790 c-3 -5 1 -10 9 -10 8 0 18 5 21 10 3 6 -1 10 -9 10 -8 0
-18 -4 -21 -10z"/>
<path d="M357 755 c-7 -16 8 -29 23 -20 15 9 12 35 -4 35 -8 0 -16 -7 -19 -15z"/>
<path d="M1760 752 c0 -21 72 -122 97 -136 27 -15 8 37 -27 74 -17 18 -33 43
-36 56 -7 28 -34 32 -34 6z"/>
<path d="M2215 741 c-3 -6 -4 -11 0 -11 3 0 1 -8 -4 -19 -9 -16 -7 -17 15 -13
18 3 24 10 22 25 -3 23 -23 33 -33 18z"/>
<path d="M417 733 c-14 -13 -6 -33 12 -33 25 0 38 20 20 31 -17 11 -24 11 -32
2z"/>
<path d="M3220 726 c0 -16 28 -42 36 -33 7 6 -18 47 -28 47 -5 0 -8 -6 -8 -14z"/>
<path d="M2100 714 c0 -8 5 -12 10 -9 6 4 8 11 5 16 -9 14 -15 11 -15 -7z"/>
<path d="M3082 718 c6 -18 28 -21 28 -4 0 9 -7 16 -16 16 -9 0 -14 -5 -12 -12z"/>
<path d="M2945 700 c3 -5 8 -10 11 -10 2 0 4 5 4 10 0 6 -5 10 -11 10 -5 0 -7
-4 -4 -10z"/>
<path d="M134 689 c-16 -20 -27 -86 -15 -94 11 -6 34 67 29 92 -3 14 -5 14
-14 2z"/>
<path d="M2720 680 c-11 -11 -20 -24 -20 -29 0 -5 -6 -16 -13 -23 -12 -13 -33
-42 -69 -97 -10 -14 -18 -35 -18 -46 1 -16 7 -13 35 20 19 22 35 44 35 48 0 9
28 48 68 94 12 14 22 29 22 34 0 18 -21 18 -40 -1z"/>
<path d="M527 673 c-12 -11 -8 -23 8 -23 8 0 15 7 15 15 0 16 -12 20 -23 8z"/>
<path d="M3240 673 c0 -12 51 -33 62 -27 15 9 -13 34 -38 34 -13 0 -24 -3 -24
-7z"/>
<path d="M1509 658 c-11 -7 -10 -11 5 -21 11 -7 35 -28 53 -47 25 -27 33 -31
33 -17 0 24 -41 85 -61 90 -9 3 -23 0 -30 -5z"/>
<path d="M2290 641 c0 -20 27 -48 37 -37 9 8 -14 56 -27 56 -5 0 -10 -8 -10
-19z"/>
<path d="M1690 631 c0 -11 5 -23 11 -26 6 -4 9 -28 8 -54 -1 -26 1 -53 5 -59
4 -7 6 -45 4 -85 l-3 -73 -30 11 c-60 21 -75 34 -75 65 0 20 -5 30 -15 30 -9
0 -15 -9 -15 -22 0 -51 12 -65 78 -98 37 -18 75 -36 84 -41 27 -14 42 -11 55
10 10 16 9 28 -8 65 -11 25 -24 48 -30 52 -6 3 -3 11 7 19 17 12 17 15 -7 46
-36 48 -41 67 -24 92 19 28 20 61 1 54 -8 -3 -16 2 -19 14 -7 25 -27 25 -27 0z
m73 -290 c4 -17 2 -18 -13 -9 -10 7 -16 17 -13 25 7 17 19 9 26 -16z"/>
<path d="M2235 639 c-5 -7 -1 -18 11 -26 24 -17 33 2 11 24 -11 12 -16 12 -22
2z"/>
<path d="M280 621 c0 -12 5 -21 10 -21 6 0 10 6 10 14 0 8 -4 18 -10 21 -5 3
-10 -3 -10 -14z"/>
<path d="M540 596 c0 -9 7 -16 16 -16 17 0 14 22 -4 28 -7 2 -12 -3 -12 -12z"/>
<path d="M2980 600 c0 -5 5 -10 11 -10 5 0 7 5 4 10 -3 6 -8 10 -11 10 -2 0
-4 -4 -4 -10z"/>
<path d="M3240 600 c0 -5 5 -10 11 -10 5 0 7 5 4 10 -3 6 -8 10 -11 10 -2 0
-4 -4 -4 -10z"/>
<path d="M3365 600 c-11 -4 -26 -5 -32 -3 -9 4 -13 -7 -13 -34 0 -21 -4 -43
-9 -48 -5 -6 -11 -19 -13 -30 -2 -11 -10 -20 -18 -20 -8 0 -16 -10 -18 -22 -2
-13 -9 -23 -15 -23 -14 0 -105 -86 -127 -120 -8 -12 -32 -41 -53 -64 -73 -79
-97 -124 -97 -183 0 -39 4 -53 14 -53 11 0 15 12 14 49 -1 43 4 55 44 107 25
32 56 69 69 80 13 12 42 43 65 70 22 27 54 56 70 64 16 8 45 31 65 50 61 58
108 92 119 85 6 -4 10 6 10 24 0 26 -4 30 -22 28 -18 -2 -22 2 -20 20 4 26 -6
33 -33 23z m-5 -95 c-7 -8 -17 -15 -22 -15 -6 0 -5 7 2 15 7 8 17 15 22 15 6
0 5 -7 -2 -15z"/>
<path d="M1907 594 c-9 -10 2 -24 19 -24 8 0 14 7 14 15 0 15 -21 21 -33 9z"/>
<path d="M2920 595 c0 -4 34 -40 77 -81 72 -71 75 -75 57 -89 -16 -12 -16 -14
-3 -15 9 0 21 11 27 24 10 23 6 30 -59 93 -64 62 -99 86 -99 68z"/>
<path d="M3065 590 c3 -5 10 -10 16 -10 5 0 9 5 9 10 0 6 -7 10 -16 10 -8 0
-12 -4 -9 -10z"/>
<path d="M2800 567 c-35 -16 -110 -93 -110 -113 0 -14 2 -15 18 -3 9 7 26 24
38 38 11 13 36 31 55 40 18 9 35 24 37 34 4 19 -3 20 -38 4z"/>
<path d="M1540 556 c0 -15 62 -56 85 -56 22 0 8 23 -30 48 -40 25 -55 28 -55
8z"/>
<path d="M2310 536 c0 -18 51 -76 67 -76 17 0 5 29 -25 63 -28 30 -42 34 -42
13z"/>
<path d="M130 521 c0 -12 6 -21 16 -21 9 0 14 7 12 17 -5 25 -28 28 -28 4z"/>
<path d="M375 510 c-9 -14 4 -52 16 -45 12 8 12 55 0 55 -6 0 -13 -5 -16 -10z"/>
<path d="M482 508 c7 -19 35 -21 41 -3 5 11 0 15 -19 15 -16 0 -24 -5 -22 -12z"/>
<path d="M443 458 c2 -7 12 -13 22 -13 10 0 20 6 23 13 2 7 -6 12 -23 12 -17
0 -25 -5 -22 -12z"/>
<path d="M3433 435 c0 -22 2 -30 4 -17 2 12 2 30 0 40 -3 9 -5 -1 -4 -23z"/>
<path d="M275 450 c-11 -17 5 -32 21 -19 8 6 14 15 14 20 0 12 -27 11 -35 -1z"/>
<path d="M1220 440 c0 -20 25 -38 36 -27 8 7 -15 47 -26 47 -6 0 -10 -9 -10
-20z"/>
<path d="M1255 361 c-3 -5 4 -20 15 -32 l19 -24 1 26 c0 26 -24 47 -35 30z"/>
<path d="M2692 348 c-18 -18 -15 -28 8 -28 13 0 20 7 20 20 0 23 -10 26 -28 8z"/>
<path d="M2770 326 c0 -14 5 -26 10 -26 6 0 10 9 10 19 0 11 -4 23 -10 26 -6
4 -10 -5 -10 -19z"/>
<path d="M1402 314 c4 -20 34 -41 45 -31 10 11 -11 41 -31 45 -12 3 -17 -2
-14 -14z"/>
<path d="M263 293 c-15 -5 -18 -33 -4 -33 21 0 41 13 41 26 0 14 -14 17 -37 7z"/>
<path d="M185 270 c-16 -11 -37 -20 -46 -20 -9 0 -28 -11 -43 -25 -18 -17 -39
-25 -62 -25 -23 0 -34 -5 -34 -14 0 -10 13 -14 45 -14 25 0 47 4 50 8 3 5 33
24 66 41 33 18 65 41 70 51 13 25 -7 24 -46 -2z"/>
<path d="M2868 277 c-23 -22 -67 -47 -83 -47 -8 0 -15 -7 -15 -16 0 -19 49
-16 65 4 6 7 21 18 35 25 14 7 26 20 28 30 4 20 -11 22 -30 4z"/>
<path d="M3280 268 c0 -18 12 -33 33 -41 20 -8 22 10 3 36 -15 20 -36 23 -36
5z"/>
<path d="M3430 260 c0 -11 -7 -23 -16 -27 -15 -6 -15 -7 -1 -18 8 -6 17 -22
20 -35 2 -14 5 3 6 38 0 34 -1 62 -4 62 -3 0 -5 -9 -5 -20z"/>
<path d="M3195 231 c-38 -22 -48 -56 -13 -46 23 7 58 40 58 56 0 13 -10 10
-45 -10z"/>
<path d="M1170 216 c0 -27 15 -42 25 -26 8 13 -3 50 -16 50 -5 0 -9 -11 -9
-24z"/>
<path d="M3350 225 c-10 -12 -10 -15 4 -15 9 0 16 7 16 15 0 8 -2 15 -4 15 -2
0 -9 -7 -16 -15z"/>
<path d="M1867 203 c-12 -12 -7 -40 10 -54 13 -11 17 -11 21 -1 2 8 15 3 38
-18 38 -33 54 -38 54 -16 0 15 -91 96 -107 96 -5 0 -13 -3 -16 -7z"/>
<path d="M2620 190 c0 -5 5 -10 11 -10 5 0 7 5 4 10 -3 6 -8 10 -11 10 -2 0
-4 -4 -4 -10z"/>
<path d="M2820 167 c0 -13 10 -35 23 -48 33 -37 57 -76 57 -96 0 -16 1 -16 17
-1 15 16 15 19 -2 45 -10 15 -28 39 -40 53 -13 14 -25 34 -27 44 -5 29 -28 32
-28 3z"/>
<path d="M138 149 c-26 -14 -22 -29 7 -29 18 0 25 5 25 20 0 22 -7 24 -32 9z"/>
<path d="M242 142 c-35 -35 -27 -56 11 -27 10 7 17 22 15 32 -3 16 -5 16 -26
-5z"/>
<path d="M3167 72 c-21 -22 -22 -42 -3 -42 22 0 39 27 29 45 -8 14 -11 14 -26
-3z"/>
<path d="M351 66 c-8 -10 -9 -16 -1 -21 13 -8 30 3 30 21 0 18 -14 18 -29 0z"/>
</g>
</svg>
