<?xml version="1.0" standalone="no"?>
<!DOCTYPE svg PUBLIC "-//W3C//DTD SVG 20010904//EN"
 "http://www.w3.org/TR/2001/REC-SVG-20010904/DTD/svg10.dtd">
<svg version="1.0" xmlns="http://www.w3.org/2000/svg"
 width="256.000000pt" height="344.000000pt" viewBox="0 0 256.000000 344.000000"
 preserveAspectRatio="xMidYMid meet">
<metadata>
Created by potrace 1.16, written by Peter Selinger 2001-2019
</metadata>
<g transform="translate(0.000000,344.000000) scale(0.100000,-0.100000)"
fill="#000000" stroke="none">
<path d="M80 3425 c0 -8 8 -15 19 -15 10 0 21 -9 24 -20 7 -25 23 -26 37 -1
16 30 3 46 -40 49 -30 2 -40 -1 -40 -13z"/>
<path d="M402 3420 c11 -18 10 -23 -12 -40 -30 -23 -18 -41 21 -33 25 4 26 8
22 43 -5 38 -5 39 28 43 25 3 20 4 -19 5 -50 2 -52 1 -40 -18z"/>
<path d="M726 3425 c18 -14 18 -14 -3 -8 -14 3 -23 1 -23 -6 0 -7 -9 -21 -20
-33 -11 -12 -20 -16 -20 -10 0 18 -45 14 -68 -5 -21 -19 -38 -93 -21 -93 22 0
6 -40 -25 -64 -55 -42 -66 -56 -66 -87 0 -16 -4 -29 -10 -29 -5 0 -10 -9 -10
-19 0 -11 -4 -23 -10 -26 -5 -3 -10 -17 -10 -31 0 -13 -5 -24 -10 -24 -6 0 -9
3 -9 8 3 16 -1 32 -9 32 -4 0 -12 -15 -17 -32 -8 -25 -18 -35 -42 -43 -18 -5
-33 -13 -33 -17 0 -4 -5 -8 -11 -8 -6 0 -9 14 -7 33 3 27 -1 33 -20 35 -21 3
-22 2 -12 -18 16 -30 6 -36 -21 -11 -33 31 -49 27 -49 -13 0 -19 -3 -42 -6
-50 -6 -14 -9 -14 -24 4 -10 11 -21 36 -24 55 -4 21 -13 35 -22 35 -11 0 -13
-7 -8 -27 10 -45 21 -87 30 -108 7 -19 7 -19 -13 -2 -11 9 -27 15 -36 12 -8
-4 -18 -2 -22 4 -9 16 -42 13 -48 -3 -7 -19 1 -26 30 -26 32 0 83 -27 83 -44
0 -8 3 -21 6 -30 4 -10 1 -16 -9 -16 -8 0 -20 -7 -27 -15 -7 -9 -20 -13 -27
-10 -8 2 -22 1 -32 -5 -22 -11 -17 -67 8 -75 9 -3 24 -17 34 -30 17 -24 17
-25 -3 -25 -16 0 -20 -6 -20 -34 0 -30 4 -35 31 -41 18 -4 35 -3 42 4 19 19
36 12 52 -19 8 -16 15 -31 15 -34 0 -5 -45 1 -68 9 -8 3 -19 2 -25 -2 -15 -9
-69 -4 -81 8 -23 21 -36 8 -36 -35 0 -41 2 -44 31 -50 42 -8 114 -8 123 1 10
10 99 3 113 -9 19 -16 73 0 73 22 0 10 -5 22 -11 26 -8 5 -6 10 5 16 21 12 20
27 -1 45 -16 13 -16 13 7 7 14 -5 46 -7 73 -5 30 1 47 -2 47 -10 0 -6 -8 -9
-19 -6 -10 2 -24 1 -31 -3 -20 -13 -1 -30 33 -30 47 0 77 -10 77 -26 0 -19
-16 -18 -24 2 -3 8 -10 12 -16 9 -27 -17 9 -72 37 -56 10 5 28 4 49 -5 18 -8
56 -16 86 -19 155 -14 227 -18 363 -20 83 0 160 -4 171 -8 15 -5 23 -3 28 8 4
12 -4 20 -29 31 -43 18 -45 17 -45 -1 0 -14 -3 -14 -28 -1 -18 9 -33 11 -43 5
-19 -12 -59 -11 -59 1 0 6 9 10 20 10 11 0 20 7 20 15 0 14 -12 20 -33 16 -5
-1 -7 4 -5 11 5 15 56 12 76 -4 9 -8 18 -6 30 6 23 20 43 21 35 1 -6 -16 22
-44 43 -45 6 0 17 14 24 30 9 22 19 30 37 30 14 0 21 -4 18 -10 -3 -5 -13 -10
-21 -10 -14 0 -15 -32 -2 -46 4 -3 2 -14 -5 -25 -16 -25 -4 -33 38 -25 l35 7
0 72 0 72 -88 -2 c-48 -2 -138 -6 -200 -10 -98 -7 -115 -6 -135 9 -21 16 -21
17 -3 31 10 7 38 14 62 16 36 1 43 -1 38 -14 -3 -8 -1 -15 5 -15 6 0 11 7 11
15 0 8 6 15 13 16 6 0 36 2 65 4 39 3 55 0 59 -11 6 -16 53 -20 53 -4 0 6 -5
10 -12 10 -9 0 -9 3 0 12 8 8 18 9 34 1 13 -5 35 -6 51 -2 23 6 27 4 27 -12 0
-11 7 -19 16 -19 13 0 15 11 11 73 -2 39 -7 82 -12 95 -6 18 -4 22 15 22 13 0
24 -8 27 -20 5 -20 23 -28 23 -10 0 6 4 10 10 10 5 0 9 -6 7 -12 -1 -8 12 -13
38 -13 43 -1 85 -19 85 -36 0 -8 -23 -9 -67 -6 -81 7 -103 -3 -103 -44 0 -44
17 -69 47 -69 20 0 24 4 20 20 -4 15 0 20 16 20 12 0 29 -4 37 -10 9 -5 19 -5
26 1 14 12 19 5 29 -40 4 -20 14 -35 26 -38 10 -3 19 -9 19 -14 0 -5 7 -9 16
-9 11 0 14 5 10 16 -3 9 -6 22 -6 30 0 8 -7 14 -15 14 -8 0 -15 5 -15 10 0 6
7 10 15 10 8 0 15 6 15 14 0 10 19 15 69 18 47 2 76 9 88 21 18 16 21 16 44
-1 13 -9 26 -17 29 -17 3 0 5 -8 4 -17 0 -14 8 -18 40 -18 27 0 37 -3 30 -10
-9 -9 -69 -16 -208 -23 -51 -2 -72 -21 -37 -32 12 -3 25 -4 30 -1 12 8 41 -3
41 -16 0 -5 -6 -8 -12 -7 -28 3 -38 -2 -38 -18 -1 -16 -2 -16 -11 1 -9 14 -13
15 -19 5 -5 -7 -5 -20 0 -30 5 -9 6 -19 3 -23 -3 -3 4 -6 16 -6 18 0 22 4 17
17 -5 13 -1 12 18 -6 20 -19 28 -21 45 -12 24 14 28 31 6 31 -16 0 -20 15 -7
24 13 8 42 -32 36 -49 -4 -9 0 -15 9 -15 8 0 17 10 20 22 5 16 9 19 19 11 16
-13 67 -21 68 -10 0 4 0 12 0 17 0 6 -16 10 -35 10 -19 0 -35 5 -35 10 0 6 5
10 11 10 7 0 9 9 5 24 -5 22 -2 24 32 28 49 4 101 -5 85 -15 -28 -18 -13 -36
27 -35 31 0 40 4 40 18 0 13 13 21 46 29 75 19 50 35 -54 33 -50 0 -94 3 -97
8 -4 6 8 10 24 10 36 0 43 25 10 33 -43 11 -7 28 57 26 64 -2 82 -12 44 -24
-31 -10 -25 -35 9 -35 23 0 30 5 33 23 2 12 10 22 18 22 8 0 21 4 29 9 11 7
13 1 9 -28 -3 -29 -1 -36 11 -34 12 3 16 17 16 61 0 41 3 57 13 57 7 0 11 -4
8 -9 -3 -5 0 -14 7 -20 17 -13 97 15 97 34 0 17 -24 25 -41 14 -19 -12 -32
-11 -24 1 3 5 -11 12 -33 16 -55 9 -69 35 -40 74 18 25 20 32 9 43 -11 10 -15
9 -19 -2 -3 -8 -15 -24 -27 -35 -23 -22 -23 -46 1 -46 8 0 14 -6 14 -12 0 -7
3 -24 6 -38 5 -21 4 -22 -6 -7 -7 12 -18 15 -34 11 -17 -4 -25 0 -30 13 -7 17
-8 17 -17 1 -9 -16 -26 -18 -130 -18 -122 0 -172 -12 -192 -46 -11 -19 -27
-18 -27 1 0 8 -8 15 -17 16 -10 0 -31 2 -47 3 -15 1 -30 -4 -33 -11 -7 -17
-43 -16 -66 1 -17 13 -17 15 0 45 20 34 31 39 39 16 9 -23 44 -19 44 5 0 19 7
20 158 22 86 2 181 1 210 0 40 -2 53 1 50 10 -5 14 -274 24 -716 27 l-243 1
-46 27 c-28 16 -49 37 -55 55 -5 15 -16 28 -24 28 -8 0 -14 4 -14 10 0 5 7 7
15 4 8 -4 15 -1 15 5 0 19 -30 71 -40 71 -6 0 -10 5 -10 10 0 6 11 10 25 10
29 0 35 25 8 32 -25 6 -146 -34 -151 -51 -5 -14 9 -13 81 5 30 7 39 -11 10
-20 -11 -4 -19 -17 -20 -36 -2 -24 2 -30 17 -30 24 0 31 -12 32 -52 1 -23 -5
-36 -22 -47 -26 -17 -121 -38 -215 -47 -33 -3 -73 -13 -90 -23 -16 -9 -73 -25
-125 -35 -52 -10 -111 -22 -131 -28 -45 -13 -71 -2 -44 18 17 13 17 14 1 20
-9 4 -31 2 -49 -3 -25 -7 -31 -14 -29 -31 3 -17 0 -20 -15 -15 -45 17 -58 30
-61 58 -2 17 -8 32 -13 33 -16 6 -10 20 11 27 13 4 20 15 20 33 0 23 14 36 81
82 45 30 90 60 101 66 10 6 29 21 42 33 12 12 25 18 29 15 3 -3 19 3 35 15 17
12 34 21 39 21 5 0 24 13 43 29 34 27 178 92 252 113 22 6 40 18 44 30 4 15 9
17 20 7 21 -17 152 -3 253 27 55 17 102 24 138 23 63 -3 78 10 71 67 -4 31 -2
34 28 40 21 4 40 0 57 -11 27 -17 49 -3 28 18 -16 16 -14 32 3 18 8 -7 16 -30
18 -53 l4 -40 -59 5 c-55 5 -58 4 -55 -16 2 -18 12 -23 53 -28 28 -4 91 -4
141 -2 83 5 97 3 190 -28 54 -18 124 -48 154 -66 30 -18 63 -33 73 -33 10 0
35 -9 55 -19 106 -55 135 -64 146 -50 6 8 23 20 39 26 40 18 36 45 -5 40 -18
-2 -25 -2 -16 0 25 6 43 32 31 44 -8 8 -13 7 -17 0 -4 -6 -22 -11 -41 -11 -33
0 -34 -1 -28 -35 6 -35 -9 -50 -21 -20 -3 9 -20 22 -38 30 -30 12 -31 14 -13
21 38 14 51 61 14 49 -18 -6 -19 -5 -7 14 7 12 21 21 30 21 19 0 52 54 45 73
-2 7 2 19 10 28 10 12 12 29 7 58 -8 49 -24 55 -24 8 0 -24 -6 -35 -22 -42
-27 -12 -37 -45 -14 -45 20 0 21 -29 1 -36 -8 -4 -15 -12 -15 -20 0 -8 -7 -14
-15 -14 -8 0 -15 7 -15 15 0 24 -43 105 -56 105 -10 0 -44 41 -44 54 0 2 9 2
20 -1 14 -4 20 0 20 10 0 14 -55 35 -66 24 -11 -11 17 -92 40 -116 14 -15 26
-34 26 -42 0 -8 9 -25 21 -38 16 -17 19 -29 13 -49 -4 -15 -6 -34 -5 -43 2
-16 -1 -16 -44 0 -38 13 -45 20 -45 42 0 15 7 29 15 33 18 6 21 71 4 82 -18
11 -32 -13 -31 -51 2 -57 -25 -45 -33 15 l-7 51 -24 -16 c-13 -8 -24 -11 -24
-6 0 5 5 11 10 13 13 4 2 68 -12 68 -5 0 -11 -8 -14 -17 -16 -49 -16 -49 -22
-33 -3 8 -9 18 -14 21 -6 4 -5 15 3 27 11 17 11 24 1 34 -16 16 -44 -19 -38
-47 27 -119 26 -117 57 -110 22 5 29 3 29 -9 0 -9 -7 -16 -15 -16 -30 0 -180
54 -191 68 -12 16 -38 7 -29 -9 4 -5 -18 -9 -49 -9 l-56 0 0 33 c1 29 2 30 14
15 19 -26 29 -22 23 8 l-4 25 24 -23 25 -23 28 35 c16 19 30 38 30 43 0 4 7 7
15 7 9 0 19 8 22 18 7 17 22 32 35 32 4 0 -2 -20 -14 -46 -16 -31 -19 -47 -11
-52 6 -4 12 -16 14 -26 5 -22 35 -44 46 -33 4 5 0 22 -10 38 -21 38 -22 93 -1
113 14 15 12 16 -25 16 -35 0 -46 -6 -90 -52 -44 -45 -51 -49 -56 -32 -4 10
-11 29 -16 42 -5 13 -7 28 -4 33 4 5 -8 9 -26 9 l-31 0 22 -18 c22 -18 22 -19
4 -40 -24 -28 -30 -28 -38 2 -8 34 -36 42 -36 11 0 -21 -5 -25 -29 -25 -16 0
-31 -4 -33 -10 -2 -6 -17 -6 -40 2 -40 12 -51 41 -26 66 9 9 3 12 -28 11 -21
-1 -31 -3 -21 -6 20 -5 21 -8 6 -35 -11 -20 -11 -20 -35 3 -13 12 -20 27 -17
33 4 6 -4 2 -17 -9 -19 -17 -22 -17 -17 -3 5 15 -3 17 -66 17 -48 0 -67 -3
-57 -9 8 -5 25 -10 38 -10 12 0 22 -4 22 -10 0 -5 9 -10 19 -10 10 0 22 -7 25
-16 4 -11 13 -14 31 -10 14 4 25 3 25 -1 0 -15 47 -63 62 -63 8 0 20 -11 26
-25 11 -24 10 -25 -18 -25 -20 0 -30 5 -30 15 0 26 -31 30 -49 7 -23 -30 -114
-63 -192 -69 -63 -5 -66 -5 -72 18 -13 47 2 56 21 14 10 -21 16 -24 39 -19 48
11 51 23 14 54 -39 33 -67 34 -101 2 -21 -19 -22 -24 -10 -32 8 -5 11 -12 7
-16 -4 -4 -2 -13 3 -19 8 -9 4 -14 -15 -17 -14 -3 -28 -1 -31 4 -3 5 -20 0
-38 -12 -45 -27 -55 -25 -22 5 14 13 26 35 26 48 0 28 -23 52 -44 44 -8 -3
-16 2 -19 14 -3 11 -15 23 -26 26 -24 6 -28 31 -6 39 8 4 15 10 15 16 0 16 28
38 49 38 12 0 21 5 21 10 0 6 -23 10 -52 10 -48 0 -50 -1 -32 -15z m-82 -101
c5 -14 4 -15 -9 -4 -17 14 -19 20 -6 20 5 0 12 -7 15 -16z m62 -85 c2 -34 -1
-39 -29 -48 -38 -14 -37 -14 -37 4 0 8 -8 15 -17 15 -17 1 -17 1 -1 14 15 11
15 15 4 32 -13 18 -11 19 33 20 l46 2 1 -39z m41 -15 c-3 -3 -12 -4 -19 -1 -8
3 -5 6 6 6 11 1 17 -2 13 -5z m1118 -34 c7 0 18 -7 25 -15 7 -8 8 -15 3 -15
-15 0 -53 31 -52 43 0 9 2 9 6 0 2 -7 10 -13 18 -13z m-1110 -10 c3 -5 1 -10
-4 -10 -6 0 -11 5 -11 10 0 6 2 10 4 10 3 0 8 -4 11 -10z m-35 -30 c-24 -15
-36 -11 -14 4 10 8 21 12 24 10 2 -3 -2 -9 -10 -14z m-155 -30 c28 -15 33 -30
10 -30 -8 0 -15 5 -15 10 0 6 -7 10 -15 10 -8 0 -15 -6 -15 -14 0 -8 -7 -17
-16 -20 -8 -3 -13 -10 -9 -16 7 -11 -22 -70 -35 -70 -5 0 4 30 20 68 15 37 32
76 36 87 6 16 8 17 11 4 2 -9 15 -22 28 -29z m60 30 c3 -5 -1 -10 -9 -10 -8 0
-18 5 -21 10 -3 6 1 10 9 10 8 0 18 -4 21 -10z m378 -414 c24 -18 21 -26 -7
-26 -14 0 -36 -4 -50 -10 -34 -12 -33 3 0 29 31 24 33 25 57 7z m-125 -53 c-9
-10 -19 -29 -22 -43 -12 -42 -29 -70 -43 -70 -7 0 -12 3 -12 8 4 26 -4 32 -45
32 -26 0 -46 -5 -49 -12 -3 -9 -9 -7 -19 6 -12 15 -22 17 -56 11 -23 -4 -42
-11 -42 -16 0 -6 -7 -6 -18 0 -9 5 -31 7 -47 4 l-30 -4 30 14 c52 25 118 45
172 51 45 6 52 4 47 -9 -3 -8 -1 -15 5 -15 6 0 11 6 11 13 0 8 12 19 27 26 23
11 29 10 39 -3 14 -20 24 -20 24 -1 0 14 31 37 39 29 2 -2 -3 -12 -11 -21z
m366 -18 c3 -9 18 -15 36 -15 23 0 30 -4 30 -20 0 -19 -7 -20 -209 -20 -158 0
-211 -3 -214 -12 -3 -7 -6 -3 -6 9 -2 36 65 65 112 50 19 -6 32 -6 40 2 14 14
102 14 129 0 16 -9 24 -7 36 5 20 20 38 20 46 1z m-979 -45 c-3 -5 -10 -10
-16 -10 -5 0 -9 5 -9 10 0 6 7 10 16 10 8 0 12 -4 9 -10z m1875 -14 c0 -3 -4
-8 -10 -11 -5 -3 -10 -1 -10 4 0 6 5 11 10 11 6 0 10 -2 10 -4z m-620 -39 c0
-5 -4 -5 -10 -2 -5 3 -10 14 -10 23 0 15 2 15 10 2 5 -8 10 -19 10 -23z
m-1228 -19 l-7 -27 -35 30 c-34 28 -34 29 -9 23 16 -3 30 -1 34 6 12 20 25 -4
17 -32z m43 22 c3 -5 1 -10 -4 -10 -6 0 -11 5 -11 10 0 6 2 10 4 10 3 0 8 -4
11 -10z m43 -9 c3 -8 -1 -12 -9 -9 -7 2 -15 10 -17 17 -3 8 1 12 9 9 7 -2 15
-10 17 -17z m195 -5 c9 -7 17 -18 17 -25 0 -6 5 -11 10 -11 6 0 10 7 10 15 0
12 13 13 73 9 91 -7 138 -21 131 -39 -3 -8 -13 -11 -21 -8 -11 4 -14 2 -11 -8
3 -8 11 -13 17 -12 6 2 11 -2 11 -7 0 -11 -51 -7 -162 11 -31 5 -60 9 -65 8
-30 -5 -113 3 -113 11 0 6 12 10 26 10 14 0 32 7 40 15 17 16 13 18 -28 15
-14 -1 -28 3 -31 7 -3 5 8 10 26 11 17 2 33 5 36 7 7 8 15 5 34 -9z m1337 -7
c0 -5 -14 -9 -31 -9 -16 0 -28 4 -25 9 3 5 17 9 31 9 14 0 25 -4 25 -9z
m-1467 -6 c-7 -2 -19 -2 -25 0 -7 3 -2 5 12 5 14 0 19 -2 13 -5z m-193 -43 c0
-5 -2 -10 -4 -10 -3 0 -8 5 -11 10 -3 6 -1 10 4 10 6 0 11 -4 11 -10z m45 -20
c3 -5 1 -10 -4 -10 -6 0 -11 5 -11 10 0 6 2 10 4 10 3 0 8 -4 11 -10z m1715
-20 c0 -5 -5 -10 -11 -10 -5 0 -7 5 -4 10 3 6 8 10 11 10 2 0 4 -4 4 -10z
m-225 -12 c25 -11 35 -38 13 -38 -14 0 -48 30 -48 42 0 11 4 10 35 -4z m-1120
-20 c12 -16 19 -19 22 -10 6 16 49 14 93 -4 32 -13 26 -14 -84 -9 -65 2 -121
6 -123 9 -3 3 1 12 8 20 21 23 65 20 84 -6z m535 18 c0 -3 -4 -8 -10 -11 -5
-3 -10 -1 -10 4 0 6 5 11 10 11 6 0 10 -2 10 -4z m-203 -22 c-3 -3 -12 -4 -19
-1 -8 3 -5 6 6 6 11 1 17 -2 13 -5z m-97 -30 c0 -2 -9 -4 -20 -4 -11 0 -20 4
-20 9 0 5 9 7 20 4 11 -3 20 -7 20 -9z"/>
<path d="M826 3428 c-2 -7 -7 -21 -10 -30 -5 -17 3 -22 22 -15 10 3 10 57 0
57 -5 0 -10 -6 -12 -12z"/>
<path d="M1323 3410 c13 -35 22 -38 37 -9 6 11 21 24 33 29 17 7 10 9 -30 9
l-51 1 11 -30z"/>
<path d="M1782 3435 c8 -9 129 -12 134 -3 3 4 -27 8 -67 8 -40 0 -70 -2 -67
-5z"/>
<path d="M512 3398 c-18 -18 -15 -25 18 -37 34 -11 40 1 16 32 -16 20 -18 21
-34 5z"/>
<path d="M954 3398 c-3 -5 -14 -6 -24 -3 -13 4 -22 -1 -29 -14 -16 -30 -13
-48 8 -54 14 -3 18 -1 14 9 -3 8 1 14 11 14 9 0 16 5 16 11 0 16 42 0 66 -26
27 -29 84 -44 84 -21 0 9 -4 16 -9 16 -5 0 -11 14 -14 30 -7 33 -33 41 -40 13
-4 -16 -6 -15 -12 3 -7 23 -61 39 -71 22z"/>
<path d="M1130 3323 c1 -22 23 -53 39 -53 19 0 12 49 -8 60 -27 14 -31 13 -31
-7z"/>
<path d="M140 3292 c0 -24 37 -59 49 -46 5 5 7 21 4 37 -4 20 -11 27 -29 27
-17 0 -24 -6 -24 -18z"/>
<path d="M400 3300 c0 -7 -8 -9 -19 -5 -14 4 -22 -3 -35 -30 -9 -19 -20 -35
-24 -35 -15 1 -40 27 -43 45 -5 26 -54 33 -63 9 -11 -29 3 -51 44 -67 22 -8
40 -22 40 -30 0 -21 23 -37 40 -27 7 4 13 22 13 39 0 34 13 39 43 16 17 -13
17 -14 2 -15 -22 0 -24 -30 -3 -30 8 0 15 4 15 9 0 4 11 25 25 46 21 30 23 40
14 52 -19 22 -49 36 -49 23z"/>
<path d="M460 3297 c0 -21 12 -28 27 -16 19 16 16 29 -7 29 -11 0 -20 -6 -20
-13z"/>
<path d="M821 3294 c0 -11 3 -14 6 -6 3 7 2 16 -1 19 -3 4 -6 -2 -5 -13z"/>
<path d="M432 3183 c-6 -16 -12 -37 -14 -48 -2 -11 -12 -21 -25 -23 -13 -2
-26 -15 -34 -34 l-13 -31 -9 24 c-6 13 -9 32 -8 42 1 10 -4 17 -15 17 -13 0
-15 -6 -10 -30 5 -29 -6 -41 -19 -20 -7 12 -25 13 -25 2 0 -5 7 -17 15 -28 12
-15 16 -16 23 -6 7 11 11 8 16 -11 6 -26 37 -43 57 -32 5 4 9 23 7 44 -3 33
-1 36 27 39 44 5 51 16 53 72 1 55 -10 65 -26 23z"/>
<path d="M202 3173 c-21 -8 43 -43 67 -36 19 5 18 7 -14 24 -19 11 -36 19 -37
18 -2 0 -9 -3 -16 -6z"/>
<path d="M2455 3137 c-44 -15 -102 -35 -128 -43 -44 -14 -68 -36 -54 -50 6 -6
105 23 122 36 6 4 38 15 73 24 60 15 92 34 92 54 0 14 -18 10 -105 -21z"/>
<path d="M144 3144 c3 -9 6 -18 6 -20 0 -2 7 -4 15 -4 8 0 15 9 15 20 0 14 -7
20 -21 20 -15 0 -19 -4 -15 -16z"/>
<path d="M51 3126 c-14 -16 -8 -21 37 -31 36 -7 44 9 15 31 -23 17 -38 17 -52
0z"/>
<path d="M17 3093 c-15 -14 -7 -43 13 -43 10 0 24 -9 30 -20 12 -22 30 -27 30
-7 -1 11 -54 77 -63 77 -2 0 -7 -3 -10 -7z"/>
<path d="M180 3021 c0 -10 30 -24 37 -17 3 3 2 9 -2 15 -8 13 -35 15 -35 2z"/>
<path d="M2180 2996 c0 -19 56 -50 76 -42 20 8 18 45 -3 45 -10 0 -30 3 -45 7
-22 5 -28 3 -28 -10z"/>
<path d="M12 2981 c-8 -4 -12 -20 -10 -34 2 -19 7 -24 16 -18 8 4 12 20 10 34
-2 19 -7 24 -16 18z"/>
<path d="M53 2955 c-7 -20 2 -29 21 -22 9 4 13 13 10 22 -8 19 -23 19 -31 0z"/>
<path d="M2140 2925 c0 -9 7 -18 16 -22 11 -4 14 -13 10 -29 -5 -20 -2 -24 15
-24 19 0 21 4 15 33 -9 43 -56 79 -56 42z"/>
<path d="M735 2910 c-3 -5 1 -10 9 -10 9 0 16 5 16 10 0 6 -4 10 -9 10 -6 0
-13 -4 -16 -10z"/>
<path d="M1100 2885 c0 -8 -7 -15 -16 -15 -14 0 -14 -3 -4 -15 14 -17 85 -21
95 -5 3 5 0 18 -7 30 -15 24 -68 28 -68 5z"/>
<path d="M1250 2875 c-15 -39 -13 -45 19 -45 26 0 29 3 27 32 -2 43 -32 51
-46 13z"/>
<path d="M1381 2891 c-9 -6 -11 -18 -7 -35 6 -23 11 -26 49 -26 53 0 70 11 65
40 -4 30 -28 39 -28 11 l0 -21 -20 20 c-22 22 -37 25 -59 11z"/>
<path d="M1536 2883 c-11 -11 -6 -23 9 -23 8 0 15 4 15 9 0 13 -16 22 -24 14z"/>
<path d="M525 2865 c-16 -7 -43 -19 -60 -26 -29 -12 -29 -13 -6 -17 35 -6 151
28 151 44 0 18 -45 17 -85 -1z"/>
<path d="M812 2868 c-12 -12 -17 -48 -6 -48 18 0 44 24 44 40 0 22 -20 26 -38
8z"/>
<path d="M1940 2855 c-7 -8 -24 -15 -39 -15 -20 0 -23 -2 -11 -10 17 -11 80
-13 104 -4 12 5 13 9 3 25 -14 23 -40 25 -57 4z"/>
<path d="M720 2845 c0 -8 -7 -15 -15 -15 -23 0 -18 -17 7 -23 26 -7 48 8 48
34 0 12 -7 19 -20 19 -11 0 -20 -7 -20 -15z"/>
<path d="M638 2839 c-22 -12 -24 -59 -4 -59 15 0 48 55 38 64 -7 8 -14 7 -34
-5z"/>
<path d="M1815 2830 c-3 -5 3 -10 14 -10 12 0 21 5 21 10 0 6 -6 10 -14 10 -8
0 -18 -4 -21 -10z"/>
<path d="M2180 2823 c0 -14 42 -79 61 -93 3 -3 13 -19 22 -36 14 -27 47 -54
47 -38 0 12 -52 114 -58 114 -4 0 -16 16 -26 35 -20 37 -46 47 -46 18z"/>
<path d="M367 2819 c-9 -5 -22 -7 -27 -4 -16 10 -50 -5 -50 -22 0 -11 6 -13
23 -8 12 4 36 8 52 9 35 2 58 14 50 27 -8 12 -25 11 -48 -2z"/>
<path d="M563 2801 c7 -27 -42 -40 -59 -16 -8 11 -20 14 -38 9 -21 -5 -24 -9
-15 -20 9 -11 8 -14 -5 -14 -10 0 -27 5 -38 11 -17 9 -24 7 -41 -10 -18 -17
-22 -18 -32 -5 -8 12 -16 13 -38 5 -15 -6 -27 -17 -27 -25 0 -8 -6 -16 -12
-19 -7 -2 -10 -8 -6 -12 16 -17 295 24 326 48 18 14 16 67 -4 67 -11 0 -15 -6
-11 -19z"/>
<path d="M472 2703 c-15 -6 -6 -23 14 -23 8 0 14 7 14 15 0 15 -6 17 -28 8z"/>
<path d="M1990 2525 c0 -8 5 -15 10 -15 6 0 10 7 10 15 0 8 -4 15 -10 15 -5 0
-10 -7 -10 -15z"/>
<path d="M1354 2177 c2 -240 5 -307 16 -324 12 -19 12 -28 1 -59 -15 -41 -28
-562 -15 -592 12 -29 22 24 23 127 1 85 3 92 19 86 9 -4 34 -11 55 -16 21 -5
57 -18 80 -28 23 -11 64 -22 91 -25 60 -7 246 -65 262 -81 7 -6 13 -20 15 -30
6 -26 23 -24 27 3 3 17 8 22 20 17 9 -3 78 -23 154 -43 76 -20 138 -40 138
-45 0 -13 -42 -25 -170 -46 -159 -26 -228 -40 -260 -54 -29 -13 -32 -13 -215
-24 -77 -5 -153 -5 -170 -1 -16 4 -68 16 -115 27 -47 11 -116 31 -155 45 -38
14 -77 25 -86 26 -9 0 -28 10 -43 21 -16 12 -31 18 -36 13 -8 -9 9 -120 23
-141 4 -7 5 -29 1 -48 -10 -55 -29 -27 -32 47 -3 66 -20 189 -28 197 -16 17
-19 -31 -8 -139 10 -98 11 -128 1 -137 -7 -6 -45 -13 -84 -15 l-73 -4 0 69 c0
43 -5 73 -13 80 -57 53 -56 52 -73 29 -8 -12 -20 -22 -25 -22 -5 0 0 13 12 30
22 28 22 32 9 114 -11 75 -16 85 -39 96 -25 12 -25 12 -6 27 11 8 27 18 35 23
10 6 12 12 5 19 -14 14 -92 -22 -98 -46 -3 -10 -3 -1 -2 21 2 21 7 42 12 47
13 13 139 36 235 44 81 6 91 4 139 -20 50 -25 55 -25 180 -19 l129 7 2 -104
c1 -57 3 -126 3 -153 0 -30 5 -51 13 -53 8 -3 12 8 12 34 2 230 -2 566 -7 579
-3 8 -12 13 -19 10 -16 -6 -19 20 -4 29 15 9 12 35 -4 35 -8 0 -19 -15 -25
-32 l-12 -33 -19 30 c-10 16 -16 32 -13 35 3 3 8 -1 10 -7 7 -20 33 -15 33 5
0 25 -19 42 -47 42 -18 0 -23 -7 -28 -37 -10 -63 -21 -80 -56 -87 -25 -5 -30
-9 -21 -18 8 -8 8 -17 1 -30 -5 -10 -7 -23 -4 -28 3 -5 -5 -14 -17 -21 -12 -7
-31 -23 -41 -36 -11 -13 -27 -23 -36 -21 -20 3 -41 -9 -41 -26 0 -8 10 -11 32
-8 41 6 63 -19 45 -52 -7 -11 -12 -22 -13 -24 0 -1 -16 6 -35 15 -18 9 -58 19
-87 21 -74 6 -257 -17 -298 -39 -34 -17 -34 -17 -39 7 -3 13 -7 35 -10 49 -3
14 -10 25 -17 25 -14 0 -2 -108 14 -127 8 -10 8 -20 -1 -39 -6 -14 -9 -29 -6
-34 8 -14 32 -160 26 -160 -3 1 -17 7 -31 15 -14 8 -35 14 -47 15 -12 0 -28 8
-35 18 -7 10 -21 21 -31 25 -12 5 -17 18 -18 49 -1 62 -22 154 -34 148 -5 -3
-8 -17 -7 -31 2 -14 -4 -31 -12 -39 -9 -7 -16 -20 -16 -30 0 -19 -42 -30 -121
-30 -47 0 -147 -25 -163 -41 -6 -5 -18 -9 -28 -9 -16 0 -18 12 -19 123 -1 67
-4 160 -8 207 -6 60 -8 -4 -9 -214 -2 -240 0 -297 11 -287 7 8 11 36 10 78 -3
85 16 72 24 -16 3 -33 9 -61 14 -61 11 0 21 58 17 105 l-3 39 60 17 c33 9 104
19 158 23 l97 6 -2 -49 c-2 -36 3 -55 15 -69 23 -25 33 -87 18 -106 -10 -12
-8 -19 8 -35 12 -12 27 -21 35 -21 15 0 26 -61 26 -142 0 -27 5 -58 11 -69 7
-14 7 -29 -2 -53 -14 -38 -2 -117 18 -123 8 -3 10 13 6 54 -4 54 -2 61 27 96
17 20 35 37 39 37 4 0 17 -31 30 -70 22 -69 55 -110 74 -91 5 5 8 48 6 96 -4
78 -2 86 13 81 10 -2 21 0 24 5 14 24 22 -8 23 -97 0 -52 3 -100 6 -105 15
-23 25 -4 26 49 0 31 3 74 7 94 l7 37 62 -42 c39 -26 67 -53 75 -72 6 -16 20
-38 30 -48 12 -12 18 -33 18 -65 0 -26 7 -60 16 -77 12 -24 15 -48 10 -115 -8
-110 2 -227 22 -246 19 -19 66 -14 70 8 2 12 -5 17 -29 20 -29 3 -31 6 -35 48
-1 25 0 103 3 173 7 143 23 154 23 17 0 -62 4 -92 16 -109 12 -17 13 -26 5
-34 -13 -13 -15 -47 -2 -47 4 0 21 -12 36 -26 19 -18 31 -22 38 -15 8 8 3 19
-16 39 -16 17 -27 39 -27 56 0 15 -4 35 -9 44 -5 9 -11 54 -13 99 -5 83 -5 83
20 83 14 0 50 -12 81 -27 45 -22 71 -27 131 -27 41 -1 78 -5 82 -11 4 -5 8
-32 8 -58 0 -30 4 -46 10 -42 6 3 10 21 10 38 0 50 32 199 41 190 9 -9 -7
-212 -21 -263 -6 -19 -10 -50 -10 -68 0 -23 -4 -32 -12 -29 -9 3 -12 21 -9 58
3 48 2 52 -13 40 -9 -8 -16 -29 -16 -51 0 -56 -17 -65 -126 -65 -95 0 -112 -8
-79 -35 16 -13 109 -9 191 9 28 6 143 15 255 19 190 6 204 8 204 26 0 17 -10
18 -139 17 -77 -1 -143 -4 -146 -6 -4 -2 -1 39 6 93 21 152 31 206 48 246 l15
36 80 -42 c76 -40 80 -44 95 -92 9 -28 21 -76 27 -106 6 -30 15 -73 19 -95 5
-22 15 -67 23 -100 8 -33 18 -81 22 -108 3 -26 11 -47 17 -47 15 0 4 119 -21
222 -11 46 -27 117 -36 158 -31 147 -34 152 -120 226 -81 69 -116 96 -119 93
-12 -16 -66 -282 -81 -401 -4 -34 -12 -51 -26 -59 -29 -15 -34 -5 -22 49 6 26
16 94 22 152 15 139 30 254 42 313 5 26 9 65 9 86 0 87 45 91 180 18 l82 -45
-41 -7 c-26 -4 -47 -3 -55 4 -8 7 -35 22 -61 35 -52 27 -51 27 -58 -52 -5 -63
3 -70 59 -45 25 11 77 19 148 23 105 5 109 6 92 22 -10 10 -28 18 -42 18 -13
0 -24 5 -24 10 0 6 4 10 9 10 5 0 27 17 50 38 40 37 42 42 42 95 0 36 5 60 15
68 12 10 14 2 14 -54 0 -67 13 -96 24 -54 3 12 6 46 6 75 0 56 5 60 48 38 15
-7 47 -16 72 -20 25 -4 67 -14 93 -22 40 -13 56 -14 90 -4 23 6 62 16 87 21
25 5 53 12 63 15 13 4 17 0 17 -20 0 -17 -12 -35 -40 -57 -22 -18 -43 -41 -46
-53 -4 -12 -14 -28 -24 -37 -9 -9 -31 -61 -49 -114 l-32 -98 21 -116 c11 -64
25 -131 30 -148 5 -20 4 -33 -1 -33 -5 0 -9 4 -9 9 0 5 -13 13 -28 19 -24 8
-29 17 -39 69 -16 84 -38 133 -61 133 -23 0 -114 -30 -127 -41 -5 -5 -18 -9
-30 -9 -46 0 -92 -20 -103 -46 -19 -41 -16 -75 28 -289 11 -49 20 -101 22
-114 2 -14 9 -26 16 -29 12 -4 12 30 0 123 -3 17 5 21 57 26 33 4 67 8 75 10
8 1 47 1 86 1 58 -2 73 -5 78 -19 5 -11 1 -22 -10 -30 -13 -10 -15 -16 -7 -24
6 -6 16 -9 21 -5 17 10 24 74 11 98 -18 32 -39 128 -29 128 5 0 11 -9 15 -19
3 -11 13 -25 21 -32 13 -10 17 -10 25 2 7 9 8 2 3 -22 -4 -25 0 -47 10 -68 18
-34 29 -40 24 -15 -4 23 52 42 125 43 l57 1 -1 108 c0 59 -3 101 -6 95 -2 -7
-11 -13 -19 -13 -9 0 -12 5 -8 12 4 6 9 45 11 85 2 41 8 83 13 93 6 10 9 31 9
47 -1 16 -3 21 -6 11 -3 -11 -13 -17 -26 -15 -15 1 -21 -3 -18 -13 2 -8 3 -43
3 -77 0 -48 -6 -72 -27 -107 -27 -47 -27 -50 13 -46 26 2 40 -27 34 -71 -5
-31 -26 -39 -36 -14 -9 23 -51 18 -64 -7 -23 -48 -13 28 14 104 40 115 45 137
42 171 -3 37 -23 34 -24 -3 0 -14 -17 -71 -37 -128 -20 -57 -37 -112 -37 -123
0 -34 -17 -20 -29 24 -19 71 -44 220 -44 257 0 49 41 160 69 191 13 14 24 30
24 36 0 6 6 16 14 22 11 9 15 9 19 -1 3 -8 6 -5 6 6 1 11 9 29 20 40 10 12 23
35 29 51 6 17 11 22 11 13 1 -26 21 -22 21 5 2 80 13 173 21 175 12 5 12 62
-1 62 -5 0 -10 -9 -10 -20 0 -11 -4 -20 -9 -20 -6 0 -13 -20 -17 -45 l-6 -45
-20 40 c-11 22 -24 37 -29 34 -5 -3 -7 -9 -5 -13 7 -10 -49 -51 -69 -51 -8 0
-15 -7 -15 -16 0 -11 -5 -14 -16 -10 -9 3 -18 6 -20 6 -2 0 -4 7 -4 16 0 12
-7 15 -25 12 -30 -6 -32 3 -5 20 14 8 20 23 20 47 0 26 3 33 15 29 9 -4 17 1
21 12 3 11 10 27 15 37 5 10 7 22 3 28 -3 6 8 25 26 42 28 28 33 29 41 14 12
-20 59 -23 59 -4 0 17 -73 53 -78 38 -8 -23 -22 -10 -22 19 0 22 -5 30 -18 30
-14 0 -18 8 -19 35 -1 19 3 38 8 41 5 3 9 9 9 14 0 15 -67 80 -82 80 -20 0
-38 42 -27 62 5 9 6 19 1 22 -11 7 -8 47 7 75 11 21 11 25 -3 33 -14 8 -17 24
-14 98 1 49 -1 92 -5 96 -4 4 0 15 9 25 14 16 13 18 -15 32 -35 17 -45 12 -30
-15 9 -17 22 -268 13 -268 -14 0 -74 45 -74 56 0 8 -5 14 -11 14 -6 0 -8 9 -4
20 4 13 1 22 -9 26 -9 3 -16 13 -16 21 0 8 -7 21 -15 29 -19 20 -19 34 0 34
16 0 42 46 32 56 -3 4 -20 -5 -37 -20 -32 -27 -45 -26 -68 6 -9 13 -18 15 -35
9 -34 -12 -100 -1 -115 20 -7 11 -22 19 -34 19 -11 0 -33 11 -50 25 -16 14
-38 25 -49 25 -33 0 -20 -27 21 -44 22 -9 40 -21 40 -27 0 -7 -7 -8 -17 -4
-10 4 -28 7 -39 7 -12 -1 -27 5 -34 13 -13 16 -40 20 -40 6 0 -12 88 -101 101
-101 6 0 13 8 15 18 3 9 17 22 31 29 21 10 29 10 47 -2 11 -8 30 -15 42 -15
13 0 25 -10 32 -26 7 -14 17 -22 23 -18 25 15 27 -21 3 -49 -30 -36 -30 -47 1
-47 18 0 25 5 25 19 0 11 11 28 25 39 14 11 25 25 25 32 0 20 25 4 25 -17 1
-10 10 -31 22 -46 12 -16 19 -35 16 -47 -4 -14 0 -20 11 -20 9 0 16 -6 16 -12
0 -14 63 -68 78 -68 6 0 12 -7 16 -15 4 -10 -6 -20 -32 -31 -33 -13 -35 -16
-19 -26 10 -5 27 -8 38 -5 14 4 21 -1 25 -20 4 -13 2 -29 -3 -34 -13 -13 7
-109 24 -109 7 0 13 6 13 14 0 8 6 16 14 19 9 4 12 14 9 29 l-6 23 24 -22 c19
-19 21 -27 13 -50 -9 -27 -12 -28 -74 -27 -112 1 -153 11 -195 49 -21 19 -46
35 -56 35 -30 0 -22 -20 11 -26 17 -4 30 -10 30 -15 0 -13 -12 -11 -54 6 -20
9 -42 15 -49 14 -39 -5 -67 2 -67 17 0 13 -3 14 -15 4 -11 -9 -29 -9 -85 1
-67 12 -82 20 -60 34 6 4 8 10 5 15 -3 4 2 10 10 13 8 4 22 -4 34 -18 25 -32
33 -31 29 3 -2 20 -9 28 -28 30 -14 2 -30 8 -37 14 -13 11 -36 1 -28 -12 3 -4
-2 -13 -10 -20 -12 -10 -13 -16 -3 -28 11 -13 8 -14 -22 -7 -19 4 -47 17 -62
29 -29 23 -37 39 -14 30 22 -8 29 14 12 38 -14 20 -16 20 -22 4 -5 -12 -9 -14
-14 -6 -4 6 -13 13 -21 14 -8 2 -21 5 -29 9 -40 14 -50 15 -56 6 -3 -6 -2 -15
4 -21 8 -8 6 -18 -5 -34 -20 -31 -43 -31 -43 0 0 29 -19 44 -31 25 -6 -10 -9
-8 -9 9 0 15 5 22 13 19 19 -7 47 12 47 32 0 10 11 23 25 29 19 9 25 19 25 44
0 34 -15 67 -25 57 -3 -4 -7 -24 -8 -45 -1 -29 -8 -41 -26 -50 -13 -7 -28 -18
-32 -26 -6 -9 -9 -7 -9 9 0 12 5 25 11 29 6 3 8 17 5 29 -3 13 -2 27 4 30 17
10 11 67 -7 81 -14 9 -18 28 -20 81 -5 227 -4 308 3 310 5 2 10 -14 11 -34 2
-44 28 -76 43 -53 5 8 10 23 10 33 0 12 6 17 17 15 17 -3 26 -55 12 -73 -19
-25 -14 -115 6 -115 12 0 15 14 15 65 0 62 1 65 30 80 32 17 40 35 15 35 -8 0
-24 8 -35 18 -58 49 -70 62 -70 72 0 6 10 2 22 -9 17 -16 24 -18 36 -9 12 10
12 14 -2 24 -20 14 -21 24 -2 24 13 0 33 66 23 76 -3 3 -41 7 -85 9 l-80 5 2
-303z m98 241 c-7 -7 -12 -8 -12 -2 0 6 3 14 7 17 3 4 9 5 12 2 2 -3 -1 -11
-7 -17z m-10 -120 c-7 -7 -12 -8 -12 -2 0 6 3 14 7 17 3 4 9 5 12 2 2 -3 -1
-11 -7 -17z m578 -312 c0 -3 -4 -8 -10 -11 -5 -3 -10 -1 -10 4 0 6 5 11 10 11
6 0 10 -2 10 -4z m-800 -247 c0 -10 4 -19 8 -19 5 0 15 -11 22 -25 7 -14 19
-25 27 -25 20 0 16 -58 -7 -87 -22 -29 -27 -89 -7 -96 27 -9 -4 -18 -87 -24
-66 -5 -86 -3 -86 7 0 8 10 11 30 8 36 -5 63 19 58 54 -2 19 -8 23 -32 21 -17
-1 -35 2 -42 8 -6 5 -20 6 -30 2 -18 -6 -18 -6 0 15 11 12 27 22 37 22 12 0
19 11 24 33 9 45 37 97 52 97 7 0 13 9 13 21 0 11 5 17 10 14 6 -3 10 -15 10
-26z m340 -130 c0 -16 -3 -17 -18 -8 -12 7 -19 23 -19 42 l0 30 19 -23 c10
-12 18 -31 18 -41z m-60 10 c0 -5 -4 -9 -10 -9 -5 0 -10 7 -10 16 0 8 5 12 10
9 6 -3 10 -10 10 -16z m25 -59 c0 -8 -8 -16 -17 -18 -13 -2 -18 3 -18 18 0 15
5 20 18 18 9 -2 17 -10 17 -18z m210 -30 c39 -7 86 -16 105 -20 27 -5 34 -11
33 -26 -2 -10 -6 -52 -9 -92 -7 -69 -8 -73 -28 -67 -63 19 -167 48 -211 58
-27 6 -51 12 -53 13 -2 1 4 39 12 84 9 45 16 84 16 86 0 2 15 -2 33 -9 17 -8
64 -20 102 -27z m-168 8 c-3 -8 -6 -5 -6 6 -1 11 2 17 5 13 3 -3 4 -12 1 -19z
m-442 -28 c-20 -22 -49 -27 -42 -7 2 6 9 12 15 12 5 0 14 3 18 8 17 17 26 5 9
-13z m285 -15 c0 -26 25 -45 59 -45 12 0 21 -5 21 -11 0 -7 -8 -9 -22 -4 -13
4 -38 8 -55 9 -29 1 -33 4 -33 28 0 35 10 59 21 52 5 -3 9 -16 9 -29z m150 15
c0 -13 -28 -25 -38 -16 -3 4 0 11 8 16 20 13 30 12 30 0z m-60 -14 c0 -2 -7
-6 -15 -10 -8 -3 -15 -1 -15 4 0 6 7 10 15 10 8 0 15 -2 15 -4z m562 -31 c49
-15 108 -25 163 -26 47 -2 89 -7 92 -12 4 -7 -26 -226 -33 -235 -1 -2 -10 1
-21 6 -10 5 -29 15 -43 21 -27 11 -254 71 -282 74 -25 2 -24 35 8 185 4 18 9
22 22 17 9 -4 52 -17 94 -30z m-155 3 c-3 -8 -6 -5 -6 6 -1 11 2 17 5 13 3 -3
4 -12 1 -19z m463 -82 c0 -8 -4 -18 -10 -21 -5 -3 -10 3 -10 14 0 12 5 21 10
21 6 0 10 -6 10 -14z m-24 -62 c-4 -9 -9 -15 -11 -12 -3 3 -3 13 1 22 4 9 9
15 11 12 3 -3 3 -13 -1 -22z m-1723 -111 c8 -46 12 -83 9 -83 -19 0 -31 43
-31 110 1 87 3 84 22 -27z m1714 65 c-3 -8 -6 -5 -6 6 -1 11 2 17 5 13 3 -3 4
-12 1 -19z m-1862 -168 c3 -5 1 -10 -4 -10 -6 0 -11 5 -11 10 0 6 2 10 4 10 3
0 8 -4 11 -10z m565 -20 c0 -11 -2 -20 -4 -20 -2 0 -6 9 -9 20 -3 11 -1 20 4
20 5 0 9 -9 9 -20z m1460 -7 c0 -15 -9 -18 -50 -19 -41 0 -47 2 -32 12 17 11
44 20 70 23 6 0 12 -7 12 -16z m-356 -8 c6 -17 -7 -18 -69 -8 -31 5 -35 8 -20
14 35 13 82 10 89 -6z m108 -17 c-7 -7 -12 -8 -12 -2 0 14 12 26 19 19 2 -3
-1 -11 -7 -17z m-1623 -78 c10 -52 10 -75 2 -83 -7 -7 -15 -1 -25 25 -14 32
-28 47 -107 113 l-24 20 55 5 c30 3 62 2 71 -2 10 -4 20 -32 28 -78z m1596 64
c21 -8 46 -13 57 -11 10 3 15 1 12 -5 -8 -13 -72 -3 -110 17 -39 20 -7 19 41
-1z m105 -4 c0 -5 -5 -10 -11 -10 -5 0 -7 5 -4 10 3 6 8 10 11 10 2 0 4 -4 4
-10z m-1609 -31 c11 -38 10 -99 -1 -99 -15 0 -30 45 -30 91 0 45 20 50 31 8z
m529 16 c0 -8 -9 -15 -20 -15 -20 0 -26 11 -13 23 12 13 33 7 33 -8z m642 -60
c-2 -27 -10 -57 -18 -65 -13 -13 -17 -12 -37 11 -12 14 -41 34 -64 45 -24 10
-43 22 -43 26 0 4 19 12 43 18 23 6 47 13 52 15 6 2 24 3 40 2 30 -2 30 -3 27
-52z m-432 28 c17 -15 39 -164 31 -213 -3 -15 -21 29 -21 51 0 28 -19 48 -63
67 -23 10 -26 16 -21 39 4 16 11 34 17 41 7 8 5 12 -7 12 -10 0 -14 4 -11 10
5 8 63 3 75 -7z m-380 -13 c0 -5 -4 -10 -10 -10 -5 0 -10 5 -10 10 0 6 5 10
10 10 6 0 10 -4 10 -10z m253 3 c3 -5 2 -15 -2 -24 -5 -13 -12 -13 -46 -4
l-40 12 30 11 c37 13 53 14 58 5z m-763 -74 c0 -9 6 -20 13 -23 10 -5 10 -7 0
-12 -7 -3 -13 -12 -13 -20 0 -8 -5 -14 -10 -14 -6 0 -16 -11 -22 -25 -6 -14
-14 -25 -17 -25 -3 0 -5 41 -3 91 l3 91 25 -23 c13 -12 24 -30 24 -40z m650
52 c-8 -5 -40 -11 -70 -14 -40 -5 -46 -4 -22 2 18 5 36 11 39 15 4 3 20 6 37
6 22 -1 27 -3 16 -9z m460 -21 c8 -5 11 -10 5 -10 -5 0 -17 5 -25 10 -8 5 -10
10 -5 10 6 0 17 -5 25 -10z m-600 -4 c0 -2 -9 -6 -20 -9 -11 -3 -18 -1 -14 4
5 9 34 13 34 5z m650 -16 c0 -5 -4 -10 -10 -10 -5 0 -10 5 -10 10 0 6 5 10 10
10 6 0 10 -4 10 -10z m-378 -37 c43 -20 80 -43 83 -51 3 -8 -1 -25 -9 -37 -12
-18 -33 -26 -93 -37 -70 -13 -78 -17 -76 -36 2 -13 -5 -23 -17 -27 -11 -4 -20
-10 -20 -14 0 -4 -13 -17 -29 -29 l-30 -22 2 48 c2 45 1 47 -27 50 -16 2 -33
-1 -39 -7 -22 -22 -27 -9 -27 77 l0 88 48 16 c84 28 147 23 234 -19z m428 12
c16 -19 1 -19 -24 0 -16 12 -17 15 -4 15 8 0 21 -7 28 -15z m-828 -7 c21 -10
27 -23 37 -74 14 -76 14 -111 1 -119 -5 -3 -16 7 -22 22 -16 34 -32 49 -125
110 -40 26 -72 52 -73 56 0 5 3 6 8 4 4 -3 16 -1 27 4 31 12 118 10 147 -3z
m-302 -76 c0 -10 6 -41 14 -70 7 -29 10 -55 6 -57 -4 -3 -10 8 -13 23 -19 88
-23 122 -15 122 4 0 8 -8 8 -18z m780 -129 c0 -41 -11 -55 -26 -32 -3 6 -15 8
-26 6 -13 -4 -22 2 -30 18 -18 39 -4 56 42 53 40 -3 40 -3 40 -45z m-325 -23
c-3 -5 -10 -10 -16 -10 -5 0 -9 5 -9 10 0 6 7 10 16 10 8 0 12 -4 9 -10z m202
-12 c30 -28 29 -33 -8 -35 -32 -2 -59 -18 -59 -35 0 -7 20 -8 54 -4 l54 7 12
-35 c6 -20 16 -36 21 -36 5 0 9 -4 9 -9 0 -34 -181 -7 -201 30 -11 22 -67 26
-101 8 -11 -6 -22 -8 -26 -5 -10 10 15 28 42 31 14 2 30 6 35 10 6 3 11 1 11
-5 0 -6 12 2 28 18 15 16 42 37 60 48 17 10 32 22 32 26 0 14 13 9 37 -14z
m123 -75 c0 -48 -16 -59 -29 -22 -9 25 -8 34 1 41 22 13 28 9 28 -19z m762
-78 c4 -5 11 -8 15 -5 4 3 13 -29 20 -70 7 -41 17 -85 23 -98 5 -13 10 -29 10
-36 0 -20 -41 -31 -158 -44 -67 -7 -75 -6 -88 12 -9 14 -10 23 -3 32 6 7 9 21
8 31 -4 23 29 73 47 73 8 0 14 5 14 10 0 6 -4 10 -10 10 -5 0 -10 5 -10 10 0
6 7 10 16 10 14 0 16 7 11 40 -5 37 -3 41 21 46 15 3 32 7 37 9 10 2 35 -13
47 -30z m-148 -27 c-4 -24 -14 -49 -23 -56 -9 -7 -15 -16 -13 -20 1 -4 -2 -8
-8 -10 -14 -5 -12 11 4 33 7 10 11 27 8 37 -4 15 22 58 35 58 2 0 0 -19 -3
-42z m446 -178 c0 -5 -2 -10 -4 -10 -3 0 -8 5 -11 10 -3 6 -1 10 4 10 6 0 11
-4 11 -10z m-495 -50 c3 -5 1 -10 -4 -10 -6 0 -11 5 -11 10 0 6 2 10 4 10 3 0
8 -4 11 -10z"/>
<path d="M1191 1664 c-17 -14 -31 -32 -31 -40 0 -19 36 -18 44 1 3 8 12 15 21
15 16 0 21 35 6 44 -5 4 -23 -6 -40 -20z"/>
<path d="M356 2444 c-9 -23 -7 -54 3 -54 4 0 22 5 40 11 37 13 39 45 3 43 -12
0 -22 3 -22 8 0 14 -18 9 -24 -8z"/>
<path d="M2107 2392 c-10 -10 -17 -24 -17 -30 0 -21 -16 -13 -28 13 -11 24
-42 35 -42 15 0 -17 52 -70 69 -70 13 0 61 66 61 84 0 13 -28 5 -43 -12z"/>
<path d="M1531 2391 c-7 -5 -10 -14 -7 -20 4 -6 12 -9 17 -6 5 4 12 -1 15 -9
3 -9 12 -16 20 -16 17 0 17 1 4 34 -10 27 -25 32 -49 17z"/>
<path d="M1600 2381 c0 -6 5 -13 10 -16 6 -3 10 1 10 9 0 9 -4 16 -10 16 -5 0
-10 -4 -10 -9z"/>
<path d="M1225 2370 c3 -5 8 -10 11 -10 2 0 4 5 4 10 0 6 -5 10 -11 10 -5 0
-7 -4 -4 -10z"/>
<path d="M982 2290 c1 -20 9 -35 27 -46 14 -10 43 -35 63 -57 24 -25 43 -37
53 -34 23 9 18 35 -7 39 -20 3 -23 8 -21 41 3 40 -11 51 -20 16 -8 -29 -29
-19 -39 17 -7 27 -32 54 -49 54 -4 0 -7 -13 -7 -30z"/>
<path d="M1092 2309 c2 -7 10 -15 17 -17 8 -3 12 1 9 9 -2 7 -10 15 -17 17 -8
3 -12 -1 -9 -9z"/>
<path d="M1182 2292 c-30 -26 -33 -42 -8 -42 17 0 67 50 61 61 -9 14 -17 11
-53 -19z"/>
<path d="M1670 2310 c0 -5 5 -10 10 -10 6 0 10 5 10 10 0 6 -4 10 -10 10 -5 0
-10 -4 -10 -10z"/>
<path d="M1253 2284 c-4 -10 -2 -19 5 -22 7 -2 12 -12 12 -23 0 -12 7 -19 19
-19 19 0 19 3 7 37 -14 42 -33 53 -43 27z"/>
<path d="M1219 2242 c-8 -10 -22 -21 -31 -25 -15 -5 -26 -37 -13 -37 20 0 55
27 60 47 8 33 1 39 -16 15z"/>
<path d="M1683 2230 c-3 -17 -9 -32 -13 -35 -10 -6 1 -65 12 -65 6 0 8 13 4
31 -9 46 14 65 56 48 18 -7 41 -22 52 -33 18 -18 20 -18 31 -2 14 18 9 52 -7
62 -6 4 -14 1 -18 -7 -7 -10 -11 -10 -24 0 -9 7 -23 11 -31 7 -9 -3 -18 1 -21
9 -10 26 -34 16 -41 -15z"/>
<path d="M940 2236 c0 -16 21 -56 30 -56 23 0 90 -36 90 -48 0 -8 -7 -11 -17
-8 -23 7 -76 -7 -80 -21 -2 -6 6 -13 19 -17 19 -5 20 -8 8 -16 -11 -7 -12 -12
-3 -21 8 -8 20 -7 46 6 19 9 40 15 47 13 7 -2 15 3 17 10 3 6 -1 12 -7 12 -8
0 -9 10 -5 29 5 25 1 34 -23 56 -45 40 -122 78 -122 61z"/>
<path d="M1874 2229 c-4 -7 -7 -27 -6 -46 1 -26 -3 -33 -17 -33 -15 0 -19 -7
-18 -31 2 -37 32 -63 46 -40 6 8 30 16 58 19 54 4 58 6 48 21 -3 6 -25 11 -47
11 -39 0 -40 1 -25 18 10 10 17 24 17 30 0 6 10 20 22 31 19 18 19 21 4 27 -9
3 -23 1 -31 -6 -12 -10 -18 -10 -29 -1 -11 9 -16 9 -22 0z"/>
<path d="M1268 2202 c-24 -5 -23 -23 2 -29 11 -3 20 -9 20 -14 0 -12 -10 -11
-48 2 -24 8 -39 8 -62 -2 -36 -16 -42 -31 -34 -75 10 -52 31 -42 44 20 4 25
11 31 30 31 21 0 25 -4 22 -27 -2 -19 2 -28 12 -28 8 0 19 12 24 28 l10 27 1
-28 c2 -53 26 -23 29 35 3 58 -7 70 -50 60z"/>
<path d="M1595 2200 c4 -6 11 -8 16 -5 14 9 11 15 -7 15 -8 0 -12 -5 -9 -10z"/>
<path d="M1536 2191 c-4 -5 -2 -20 3 -33 7 -16 10 -18 10 -6 1 9 4 23 7 32 6
17 -11 23 -20 7z"/>
<path d="M2525 2190 c-3 -5 -3 -16 2 -22 4 -7 8 -26 9 -41 1 -16 7 -34 13 -40
8 -8 11 1 11 35 0 66 -16 98 -35 68z"/>
<path d="M1978 2179 c-16 -9 -14 -13 17 -40 36 -32 46 -53 20 -43 -8 4 -15 1
-15 -5 0 -6 -7 -11 -15 -11 -8 0 -19 -9 -25 -20 -9 -17 -8 -20 8 -20 10 0 22
3 26 7 3 4 14 8 22 9 38 6 45 14 42 46 -2 23 -10 36 -25 43 -13 5 -23 18 -23
27 0 20 -7 22 -32 7z"/>
<path d="M1608 2143 c6 -2 12 -13 12 -23 0 -24 18 -36 33 -21 13 13 -18 51
-42 50 -10 0 -12 -2 -3 -6z"/>
<path d="M2446 2131 c-11 -12 -27 -21 -37 -21 -17 0 -59 -60 -59 -86 0 -23 14
-16 39 21 13 19 27 33 31 30 12 -7 52 42 48 60 -3 15 -5 15 -22 -4z"/>
<path d="M1483 2063 c-16 -18 -21 -33 -17 -49 4 -16 2 -24 -7 -24 -10 0 -10
-3 -1 -12 7 -7 12 -20 12 -29 0 -10 6 -19 12 -21 7 -3 13 -13 13 -23 0 -30 22
-28 28 2 4 17 1 32 -7 38 -7 6 -16 29 -19 52 -6 36 -4 44 14 53 17 9 23 8 35
-7 17 -22 18 -12 2 22 -14 32 -37 31 -65 -2z"/>
<path d="M1115 2059 c-12 -38 -50 -85 -85 -108 -46 -29 -102 -131 -72 -131 9
0 42 37 42 47 0 4 28 33 62 65 51 47 69 58 96 58 29 0 33 -3 27 -17 -5 -10
-13 -36 -19 -59 -6 -23 -16 -47 -22 -55 -7 -8 -15 -29 -19 -46 -9 -46 20 -45
39 1 8 18 19 37 25 40 6 4 9 11 6 16 -6 9 55 40 79 40 21 0 20 -30 -1 -46 -14
-10 -15 -15 -6 -25 18 -18 41 -4 50 30 4 17 7 64 5 106 -3 58 -7 75 -19 75 -9
0 -14 -8 -13 -22 5 -62 1 -75 -29 -81 -16 -3 -36 -13 -45 -22 -21 -21 -20 -5
2 35 16 30 16 31 -3 43 -11 7 -33 14 -50 17 -26 4 -30 9 -27 33 3 32 -14 37
-23 6z"/>
<path d="M1620 2042 c0 -17 -3 -38 -6 -47 -5 -13 -2 -16 12 -13 15 2 19 12 19
42 0 23 -5 41 -12 43 -9 3 -13 -6 -13 -25z"/>
<path d="M940 2005 c0 -25 4 -35 13 -32 6 2 12 16 12 32 0 16 -6 30 -12 33 -9
2 -13 -8 -13 -33z"/>
<path d="M2543 1971 c-8 -25 -9 -49 -3 -70 5 -17 6 -46 3 -65 -3 -19 -1 -36 6
-40 8 -5 11 25 11 103 0 61 -1 111 -3 111 -1 0 -8 -17 -14 -39z"/>
<path d="M1680 1990 c0 -13 28 -25 38 -16 3 4 0 11 -8 16 -20 13 -30 12 -30 0z"/>
<path d="M2356 1991 c-3 -5 -3 -16 0 -25 3 -9 3 -27 0 -40 -4 -18 -11 -23 -25
-19 -21 5 -38 -14 -25 -27 17 -15 54 -22 54 -10 0 7 8 23 19 36 11 14 17 33
14 48 -6 29 -28 52 -37 37z"/>
<path d="M2415 1980 c-4 -6 -1 -18 6 -26 7 -9 14 -26 14 -37 3 -57 6 -67 19
-67 21 0 30 19 16 35 -6 7 -10 19 -9 27 1 7 -1 22 -5 33 -5 11 -10 26 -12 33
-4 15 -20 16 -29 2z"/>
<path d="M1856 1965 c-3 -8 -12 -15 -21 -15 -8 0 -15 -6 -15 -14 0 -8 -6 -17
-12 -19 -7 -3 -2 -4 12 -3 14 1 32 6 39 10 22 14 25 -4 6 -36 -17 -30 -17 -31
0 -45 11 -7 24 -13 31 -13 7 0 19 -3 28 -6 10 -4 16 -1 16 9 0 8 -13 17 -30
21 -31 6 -42 26 -15 26 27 0 22 56 -7 82 -25 22 -24 22 -32 3z"/>
<path d="M1621 1929 c-11 -13 -21 -26 -21 -31 0 -15 26 -8 44 13 26 31 5 48
-23 18z"/>
<path d="M1069 1903 c-7 -16 -28 -43 -46 -61 -32 -32 -36 -52 -9 -52 14 0 48
36 66 70 6 12 14 20 16 17 3 -2 -5 -20 -16 -40 -14 -23 -19 -44 -15 -60 5 -20
2 -25 -17 -30 -16 -5 -20 -9 -12 -17 8 -8 19 -8 39 0 23 9 27 15 22 38 -3 16
0 35 9 46 8 11 14 28 14 38 0 10 5 18 10 18 16 0 11 32 -7 46 -27 20 -38 17
-54 -13z"/>
<path d="M1696 1892 c-2 -4 1 -24 7 -45 14 -44 47 -53 47 -12 0 14 -4 25 -10
25 -5 0 -10 9 -10 20 0 19 -24 28 -34 12z"/>
<path d="M1793 1878 c-6 -9 -6 -21 2 -36 l13 -23 5 23 c10 39 -2 60 -20 36z"/>
<path d="M1605 1846 c4 -19 7 -61 8 -95 1 -39 6 -62 14 -65 16 -7 27 11 16 27
-5 7 -8 35 -6 62 2 51 -12 105 -29 105 -5 0 -6 -15 -3 -34z"/>
<path d="M1510 1825 c0 -33 4 -45 15 -45 10 0 15 10 15 29 0 17 5 33 10 36 15
9 2 25 -21 25 -16 0 -19 -7 -19 -45z"/>
<path d="M247 1854 c-3 -3 -3 -12 0 -20 4 -10 24 -14 74 -14 62 0 69 2 69 20
0 18 -7 20 -68 20 -38 0 -71 -3 -75 -6z"/>
<path d="M1665 1840 c3 -5 8 -10 11 -10 2 0 4 5 4 10 0 6 -5 10 -11 10 -5 0
-7 -4 -4 -10z"/>
<path d="M2340 1835 c-10 -11 -9 -18 4 -30 20 -20 36 -11 36 21 0 27 -21 32
-40 9z"/>
<path d="M2407 1834 c-12 -13 17 -54 38 -54 23 0 55 28 55 48 0 17 -15 15 -30
-3 -7 -8 -16 -15 -21 -15 -5 0 -9 7 -9 15 0 15 -21 21 -33 9z"/>
<path d="M1559 1823 c-1 -5 0 -16 0 -26 1 -9 -5 -24 -14 -33 -18 -19 -15 -38
8 -42 11 -2 14 2 10 17 -4 15 -1 21 11 21 16 0 21 25 10 54 -6 16 -23 22 -25
9z"/>
<path d="M1962 1822 c-1 -7 -14 -17 -29 -23 l-28 -10 25 -19 c14 -11 20 -20
13 -20 -13 0 -14 -60 -1 -60 11 0 28 36 21 44 -4 3 2 13 13 21 10 8 14 15 7
15 -6 0 -14 15 -16 33 -2 17 -5 26 -5 19z"/>
<path d="M2046 1807 c-20 -15 -14 -37 10 -37 8 0 14 -4 14 -10 0 -5 -8 -10
-19 -10 -23 0 -37 -59 -22 -89 13 -23 3 -35 -16 -20 -9 8 -13 8 -13 1 0 -6 5
-14 10 -17 6 -3 10 -17 10 -30 0 -25 7 -28 75 -40 23 -4 49 -17 63 -32 18 -20
26 -23 32 -13 8 13 -34 80 -50 80 -4 0 -22 14 -40 30 -18 17 -37 30 -44 30 -7
0 -12 15 -13 35 -1 19 3 32 8 29 5 -3 9 -11 9 -19 0 -7 7 -15 15 -19 8 -3 15
-1 15 4 0 6 -4 10 -9 10 -6 0 -6 12 0 30 13 35 32 41 24 8 -5 -25 20 -67 32
-53 5 4 3 9 -3 12 -6 2 -9 17 -6 33 6 45 -5 80 -24 73 -8 -3 -20 2 -27 11 -11
14 -15 15 -31 3z m24 -207 c0 -5 -4 -10 -10 -10 -5 0 -10 5 -10 10 0 6 5 10
10 10 6 0 10 -4 10 -10z"/>
<path d="M1813 1791 c-12 -10 -19 -21 -16 -25 13 -13 31 -5 47 19 20 31 2 34
-31 6z"/>
<path d="M1662 1774 c2 -15 9 -29 16 -32 10 -3 13 4 10 24 -2 15 -9 29 -16 32
-10 3 -13 -4 -10 -24z"/>
<path d="M2483 1773 c-3 -10 -15 -31 -26 -46 -13 -20 -16 -32 -9 -39 14 -14
32 -1 32 23 0 10 9 27 20 36 11 10 20 23 20 30 0 19 -30 16 -37 -4z"/>
<path d="M2547 1753 c-4 -3 -7 -20 -7 -37 0 -21 -8 -37 -26 -51 -25 -20 -25
-22 -10 -38 21 -21 37 -22 30 -2 -4 8 -1 15 4 15 6 0 13 -12 15 -27 2 -16 5
11 6 60 1 87 0 93 -12 80z"/>
<path d="M1732 1719 c-11 -17 -10 -23 10 -39 13 -11 26 -19 31 -20 12 0 8 28
-5 34 -10 5 -10 7 0 12 18 9 15 34 -6 34 -9 0 -23 -9 -30 -21z"/>
<path d="M1800 1709 c0 -24 23 -21 28 4 2 10 -3 17 -12 17 -10 0 -16 -9 -16
-21z"/>
<path d="M1007 1682 c-24 -24 -37 -62 -22 -62 3 0 19 14 37 30 17 17 34 30 38
30 5 0 10 7 14 15 10 27 -38 17 -67 -13z"/>
<path d="M469 1678 c-3 -42 4 -124 12 -145 6 -16 5 -30 -1 -41 -9 -14 -10 -14
-5 5 9 32 -12 37 -31 8 -22 -34 -13 -52 30 -57 42 -5 47 4 35 63 -4 24 -8 74
-9 112 0 53 -3 67 -15 67 -8 0 -15 -6 -16 -12z"/>
<path d="M1877 1683 c-9 -9 33 -53 50 -53 7 0 13 -4 13 -9 0 -5 7 -12 15 -15
18 -7 38 35 29 59 -9 22 -23 18 -33 -7 -9 -23 -9 -23 -20 5 -10 25 -38 36 -54
20z"/>
<path d="M1800 1667 c0 -16 32 -47 48 -47 17 0 15 17 -5 40 -20 23 -43 26 -43
7z"/>
<path d="M2280 1661 c0 -22 25 -39 38 -27 8 8 -10 38 -26 44 -7 2 -12 -6 -12
-17z"/>
<path d="M2350 1628 l-25 -11 25 -5 c13 -2 30 -11 37 -20 11 -15 12 -15 13 6
0 12 1 25 3 29 4 13 -26 13 -53 1z"/>
<path d="M2416 1592 c-9 -15 6 -52 20 -52 8 0 14 -5 14 -11 0 -6 -7 -8 -16 -5
-15 6 -43 -17 -44 -36 0 -12 58 -9 65 2 4 6 16 8 27 4 17 -5 19 -3 13 17 -4
12 -18 32 -31 44 -13 12 -24 27 -24 34 0 13 -16 15 -24 3z"/>
<path d="M2506 1590 c-8 -20 17 -103 33 -108 8 -3 10 8 5 40 -4 23 -10 45 -14
48 -4 3 -9 12 -12 20 -5 13 -6 13 -12 0z"/>
<path d="M2490 1470 c0 -5 9 -14 20 -20 17 -9 20 -8 20 10 0 13 -7 20 -20 20
-11 0 -20 -4 -20 -10z"/>
<path d="M2504 1312 c-20 -14 -46 -84 -36 -94 7 -7 17 3 32 32 21 42 24 76 4
62z"/>
<path d="M2552 940 c0 -19 2 -27 5 -17 2 9 2 25 0 35 -3 9 -5 1 -5 -18z"/>
<path d="M470 311 c0 -23 25 -46 35 -32 7 13 -12 51 -25 51 -6 0 -10 -8 -10
-19z"/>
<path d="M830 218 c0 -22 88 -101 105 -95 17 7 21 27 5 27 -6 0 -30 18 -54 40
-46 43 -56 47 -56 28z"/>
<path d="M2217 153 c-12 -11 -8 -23 8 -23 8 0 15 7 15 15 0 16 -12 20 -23 8z"/>
<path d="M2432 149 c3 -9 17 -13 40 -11 31 3 36 0 42 -22 7 -29 26 -35 26 -8
0 31 -17 44 -65 50 -38 4 -47 2 -43 -9z"/>
<path d="M616 131 c-3 -5 -15 -7 -25 -4 -10 3 -21 0 -25 -5 -6 -10 82 -28 91
-18 7 7 -16 36 -28 36 -4 0 -10 -4 -13 -9z"/>
<path d="M2330 125 c-8 -10 -34 -14 -83 -15 -165 -1 -210 -5 -215 -18 -3 -10
29 -12 153 -10 153 3 158 4 166 25 10 27 -4 39 -21 18z"/>
<path d="M460 122 c0 -10 22 -32 32 -32 4 0 8 9 8 20 0 13 -7 20 -20 20 -11 0
-20 -4 -20 -8z"/>
<path d="M2417 106 c-8 -20 2 -26 40 -26 26 0 33 4 33 20 0 16 -7 20 -34 20
-20 0 -36 -6 -39 -14z"/>
<path d="M387 104 c-4 -4 -4 -10 -2 -14 6 -10 55 0 55 11 0 10 -43 12 -53 3z"/>
<path d="M438 3 c7 -3 16 -2 19 1 4 3 -2 6 -13 5 -11 0 -14 -3 -6 -6z"/>
<path d="M643 3 c9 -2 23 -2 30 0 6 3 -1 5 -18 5 -16 0 -22 -2 -12 -5z"/>
<path d="M2188 3 c46 -2 118 -2 160 0 42 1 5 3 -83 3 -88 0 -123 -2 -77 -3z"/>
<path d="M2458 3 c18 -2 45 -2 60 0 15 2 0 4 -33 4 -33 0 -45 -2 -27 -4z"/>
</g>
</svg>
