<?xml version="1.0" standalone="no"?>
<!DOCTYPE svg PUBLIC "-//W3C//DTD SVG 20010904//EN"
 "http://www.w3.org/TR/2001/REC-SVG-20010904/DTD/svg10.dtd">
<svg version="1.0" xmlns="http://www.w3.org/2000/svg"
 width="256.000000pt" height="256.000000pt" viewBox="0 0 256.000000 256.000000"
 preserveAspectRatio="xMidYMid meet">
<metadata>
Created by potrace 1.16, written by Peter Selinger 2001-2019
</metadata>
<g transform="translate(0.000000,256.000000) scale(0.100000,-0.100000)"
fill="#000000" stroke="none">
<path d="M396 2516 c-4 -24 -14 -50 -22 -57 -33 -27 -46 -81 -42 -179 2 -80 6
-98 23 -112 20 -17 20 -17 0 -18 -20 0 -108 85 -178 173 -21 26 -43 47 -48 47
-20 0 -7 -35 26 -74 128 -147 161 -193 133 -184 -7 3 -32 30 -56 61 -24 31
-50 57 -58 57 -20 0 -17 -14 6 -35 11 -10 20 -24 20 -32 0 -21 -34 -11 -38 11
-4 19 -132 156 -146 156 -15 0 -3 -31 24 -60 17 -18 30 -36 30 -40 0 -4 16
-20 35 -35 19 -16 32 -32 28 -38 -3 -5 -32 -6 -69 -2 -60 6 -64 5 -64 -14 0
-20 5 -21 111 -21 119 0 114 2 156 -58 13 -19 14 -25 3 -32 -14 -9 -10 -36 25
-172 l18 -67 -62 -133 c-153 -325 -171 -357 -212 -379 -25 -12 -39 -26 -39
-38 0 -19 2 -19 50 2 33 14 50 27 50 39 0 21 49 49 105 59 22 4 71 15 109 24
76 17 92 13 55 -12 -13 -10 -33 -27 -44 -39 -11 -11 -28 -23 -37 -27 -22 -8
-23 -26 -3 -33 9 -4 32 9 58 30 60 53 58 51 110 65 48 12 49 11 104 -26 32
-22 65 -55 77 -78 15 -27 37 -47 67 -61 24 -12 53 -31 63 -43 18 -20 73 -31
61 -12 -3 5 4 12 15 16 25 8 26 21 1 35 -30 16 -44 12 -38 -10 3 -13 0 -20 -9
-20 -10 0 -14 9 -12 28 2 20 -1 27 -13 26 -11 -1 -15 5 -12 17 6 21 -7 25 -24
8 -17 -17 -31 -3 -26 25 4 19 13 25 50 30 72 10 103 7 109 -9 3 -7 25 -21 48
-30 23 -9 58 -33 77 -53 42 -43 48 -53 59 -92 8 -29 8 -29 -16 -14 -13 9 -24
21 -24 28 0 6 -8 16 -18 21 -73 39 -73 39 -82 25 -6 -10 -1 -18 20 -26 16 -7
37 -25 47 -41 9 -15 23 -32 30 -36 8 -5 11 -12 8 -17 -3 -5 -1 -11 5 -15 15
-10 12 -35 -5 -35 -8 0 -15 -4 -15 -9 0 -13 29 -22 54 -15 23 5 23 5 18 -104
-6 -154 8 -195 104 -289 40 -39 90 -81 111 -91 86 -44 174 -54 143 -17 -7 8
-20 15 -29 15 -38 0 -143 64 -204 123 -47 47 -68 76 -80 114 -19 59 -22 170
-6 207 9 20 9 32 -4 58 -8 18 -20 63 -25 99 -15 97 -87 187 -162 204 -17 4
-34 14 -39 23 -8 14 -29 17 -138 18 -128 1 -129 1 -172 32 -23 17 -48 33 -54
36 -9 3 -8 8 3 15 19 13 85 14 130 1 22 -6 38 -6 44 0 6 6 56 10 113 10 l103
0 -6 58 c-3 31 -10 71 -15 87 -5 17 -11 54 -13 82 -3 29 -9 60 -14 70 -5 10
-12 59 -16 108 -3 50 -18 139 -33 199 -22 88 -32 110 -50 119 -12 5 -20 13
-18 18 10 15 -14 189 -31 224 -22 47 -11 58 74 80 37 10 105 28 152 41 72 21
107 24 239 24 104 0 176 -5 220 -15 154 -36 261 -70 341 -107 46 -21 95 -38
108 -36 20 2 26 -4 37 -35 16 -47 35 -71 48 -58 5 5 4 18 -4 32 -20 36 -39
113 -30 122 14 14 311 2 366 -15 66 -20 115 -41 115 -49 0 -4 16 -30 35 -59
19 -29 35 -58 35 -66 0 -13 9 -34 32 -74 16 -29 58 -125 58 -134 0 -4 -17 2
-37 12 -43 22 -58 19 -74 -10 -10 -19 -9 -20 15 -14 31 8 35 -12 11 -58 -16
-31 -19 -74 -7 -94 5 -7 22 -14 38 -15 23 -2 29 2 29 18 0 13 -8 21 -22 23
-27 4 -28 13 -9 67 11 30 19 39 33 37 30 -6 37 -19 25 -47 -7 -15 -9 -31 -6
-37 4 -6 11 -25 15 -42 4 -19 7 14 8 89 l1 121 -40 78 c-22 43 -40 86 -40 96
0 28 -81 141 -115 162 -66 40 -144 52 -323 50 -163 -1 -182 -6 -182 -48 0 -29
-6 -29 -45 -6 -48 29 -183 78 -281 101 -49 12 -103 26 -120 31 -38 13 -415 13
-446 1 -13 -5 -54 -14 -93 -21 -73 -12 -75 -13 -167 -54 -31 -14 -70 -26 -85
-26 -16 0 -38 -7 -50 -15 -19 -13 -24 -13 -51 2 -29 17 -30 20 -25 70 5 45 3
53 -11 53 -12 0 -16 -10 -16 -46 0 -38 -3 -45 -17 -42 -13 2 -19 15 -21 46 -4
57 -28 56 -36 -2z m96 -108 c49 -31 50 -31 84 -15 19 10 47 17 63 17 25 0 31
-7 51 -52 32 -74 38 -161 15 -205 -15 -27 -16 -36 -6 -42 9 -6 5 -15 -16 -32
-62 -52 -97 -141 -78 -198 9 -29 25 -27 25 3 0 25 6 29 69 41 43 9 39 -12 -7
-34 -41 -20 -40 -29 3 -47 44 -18 57 -48 60 -134 3 -85 3 -81 24 -109 15 -20
21 -22 40 -12 17 10 19 16 11 31 -5 10 -10 28 -10 39 0 12 -7 21 -15 21 -8 0
-15 4 -15 9 0 17 17 21 32 8 19 -14 35 -107 19 -107 -6 0 -13 -11 -17 -24 -6
-26 -50 -73 -59 -64 -3 3 -1 18 5 33 8 20 7 31 -2 42 -10 12 -13 11 -24 -9
-12 -21 -13 -21 -13 -3 -2 153 -8 214 -25 239 -36 56 -40 -7 -4 -78 7 -13 6
-17 -4 -14 -7 3 -20 27 -29 54 -8 27 -22 49 -30 50 -34 2 -39 5 -39 19 0 8 -4
15 -10 15 -5 0 -10 -6 -10 -14 0 -8 -10 -23 -22 -33 -33 -26 -25 -62 22 -97
38 -28 69 -80 56 -93 -3 -3 -17 -1 -31 5 -48 22 -94 10 -90 -23 4 -26 30 -65
44 -65 9 0 25 -7 35 -15 11 -8 30 -15 43 -15 18 0 23 -5 23 -26 l0 -27 -67 6
c-77 8 -85 16 -90 90 -1 26 -9 60 -17 75 -8 16 -17 46 -19 68 -3 21 -10 53
-15 71 -6 17 -8 34 -5 37 3 3 -7 22 -23 43 -18 25 -21 33 -9 23 11 -8 25 -21
31 -29 11 -14 34 -8 34 8 0 4 -13 21 -30 37 -34 33 -38 46 -13 42 22 -4 33 49
31 155 0 42 1 79 4 82 2 3 29 -2 59 -9 52 -14 69 -13 69 3 0 12 -79 39 -125
43 -35 3 -40 0 -43 -20 -2 -12 0 -22 5 -22 4 0 7 -31 5 -70 -2 -38 -7 -70 -12
-70 -20 0 -66 22 -77 37 -11 14 -8 19 16 34 24 15 29 24 28 56 0 21 -9 49 -19
62 -14 18 -18 42 -18 106 0 73 3 85 25 109 31 34 48 33 107 -6z m-142 -307 c0
-11 -26 -22 -34 -14 -12 12 -5 23 14 23 11 0 20 -4 20 -9z m428 -58 c7 -26 17
-65 23 -85 5 -20 12 -80 16 -132 5 -84 4 -96 -10 -96 -29 0 -30 12 -6 110 3
12 -4 14 -33 12 -36 -3 -51 9 -28 23 6 3 10 17 10 31 0 15 6 24 16 24 9 0 14
7 12 18 -3 14 -12 16 -48 14 -25 -2 -49 -8 -55 -13 -17 -16 -35 -9 -35 14 0
13 20 42 50 72 27 28 50 56 50 64 0 28 25 -8 38 -56z m-426 -94 c21 -25 40
-61 35 -65 -3 -3 -17 -6 -32 -7 -25 -2 -29 3 -46 53 -23 66 -17 98 11 60 11
-14 25 -32 32 -41z m53 29 c14 -6 25 -17 25 -24 0 -24 -15 -22 -44 7 -31 31
-24 37 19 17z m7 -171 c4 -6 8 -20 8 -30 0 -30 -54 -17 -59 14 -1 13 -8 28
-15 32 -6 5 4 6 24 3 18 -4 38 -12 42 -19z m230 -64 c3 -21 4 -39 3 -41 -2 -2
-15 8 -30 22 -16 15 -32 26 -36 26 -5 0 -9 7 -9 15 0 10 10 15 34 15 32 0 34
-2 38 -37z m-281 -62 c9 -29 26 -66 38 -82 12 -15 21 -34 21 -42 0 -8 11 -19
24 -25 26 -12 42 -52 20 -52 -20 0 -52 39 -59 71 -10 43 -31 55 -46 27 -6 -13
-36 -51 -65 -84 -30 -34 -55 -72 -57 -84 -2 -12 -14 -29 -28 -36 -26 -14 -63
-19 -57 -6 2 4 13 27 25 52 11 25 41 90 66 145 67 148 81 175 91 172 5 -2 17
-27 27 -56z m34 29 c3 -5 1 -10 -4 -10 -6 0 -11 5 -11 10 0 6 2 10 4 10 3 0 8
-4 11 -10z m55 -62 c0 -13 7 -36 15 -52 10 -19 12 -33 6 -39 -13 -13 -54 69
-46 94 9 26 25 24 25 -3z m153 -69 c23 -13 37 -28 37 -43 0 -5 -8 -2 -17 7
-10 8 -30 19 -45 22 -30 8 -38 25 -12 25 8 0 25 -5 37 -11z m102 -39 c-5 -24
-3 -29 17 -32 15 -2 24 -11 26 -25 3 -20 -1 -23 -28 -23 -25 0 -31 3 -26 16 3
8 2 23 -3 32 -11 21 -2 74 11 66 5 -3 6 -19 3 -34z m-35 6 c0 -3 -4 -8 -10
-11 -5 -3 -10 -1 -10 4 0 6 5 11 10 11 6 0 10 -2 10 -4z m186 -66 c31 0 12
-15 -21 -17 -40 -2 -42 2 -17 30 15 17 17 17 20 3 2 -9 10 -16 18 -16z m-462
-15 c-5 -19 -2 -25 10 -25 9 0 16 -4 16 -10 0 -5 -10 -10 -23 -10 -12 0 -47
-6 -77 -14 -30 -8 -57 -13 -59 -11 -2 2 16 24 40 49 31 34 50 46 71 46 25 0
28 -3 22 -25z m56 -25 c0 -5 -5 -10 -11 -10 -5 0 -7 5 -4 10 3 6 8 10 11 10 2
0 4 -4 4 -10z m20 -40 c0 -5 -5 -10 -11 -10 -5 0 -7 5 -4 10 3 6 8 10 11 10 2
0 4 -4 4 -10z m-30 -20 c0 -5 -4 -10 -10 -10 -5 0 -10 5 -10 10 0 6 5 10 10
10 6 0 10 -4 10 -10z"/>
<path d="M1186 2431 c-3 -4 -27 -14 -53 -20 -72 -19 -93 -29 -93 -46 0 -13 -5
-12 -27 4 -66 48 -110 33 -79 -27 12 -23 13 -37 5 -66 -12 -44 -8 -133 6 -126
6 3 10 21 11 41 2 51 14 112 26 126 8 9 4 16 -13 23 l-24 11 25 -6 c14 -2 27
-5 30 -5 3 0 5 -25 6 -54 0 -79 16 -101 87 -126 82 -27 284 -29 337 -2 40 20
60 53 60 101 0 53 -93 137 -114 102 -3 -5 14 -24 39 -42 36 -28 44 -40 45 -66
0 -26 -7 -36 -37 -55 -35 -21 -47 -23 -148 -20 -112 3 -220 28 -237 55 -26 40
11 107 59 107 12 0 27 9 33 20 6 11 21 20 35 20 13 0 27 5 30 10 4 6 57 10
126 10 122 0 206 -16 238 -46 10 -9 17 -51 22 -141 5 -70 11 -142 14 -159 l5
-32 -57 -8 c-32 -5 -105 -9 -163 -9 -58 0 -152 -4 -210 -8 -92 -7 -109 -6
-139 10 -19 10 -42 33 -50 50 -19 38 -31 42 -31 10 0 -37 46 -94 81 -102 18
-4 125 -4 238 -1 349 11 388 18 364 67 -13 28 -33 200 -33 280 0 57 -18 89
-51 89 -8 0 -32 9 -54 20 -33 17 -59 20 -172 20 -72 0 -134 -4 -137 -9z"/>
<path d="M2078 2356 c-26 -12 -54 -29 -63 -36 -22 -18 -55 -88 -55 -117 0 -35
18 -27 25 11 9 47 61 94 136 121 35 12 65 28 67 34 6 19 -60 11 -110 -13z"/>
<path d="M2145 2298 c-8 -13 -18 -40 -22 -60 -5 -32 -10 -38 -29 -38 -15 0
-24 -6 -24 -15 0 -17 35 -21 45 -5 3 6 15 10 25 10 16 0 18 7 17 42 -2 33 2
43 15 46 23 4 39 -34 47 -107 4 -33 11 -56 20 -59 11 -4 12 8 6 59 -4 35 -11
70 -15 79 -4 8 -13 27 -19 43 -13 33 -44 36 -66 5z"/>
<path d="M2379 2274 c-7 -9 -17 -42 -21 -73 -4 -31 -10 -79 -13 -106 -8 -60
-47 -117 -67 -97 -16 16 -43 15 -58 -3 -19 -22 -32 -19 -74 20 -35 32 -56 37
-56 14 0 -23 110 -102 127 -91 5 4 13 15 16 26 6 16 12 13 47 -23 43 -44 83
-54 99 -23 5 9 12 47 16 85 7 64 6 67 -14 67 -12 0 -21 6 -21 15 0 24 23 69
44 87 17 14 19 21 10 36 -7 10 -10 30 -7 44 6 31 -10 44 -28 22z"/>
<path d="M1760 2266 c0 -7 6 -19 14 -25 8 -7 29 -48 46 -92 18 -43 36 -82 41
-85 5 -2 22 -35 39 -72 17 -37 37 -79 45 -94 8 -16 12 -28 8 -28 -14 0 -86 66
-94 86 -12 32 -29 30 -29 -3 0 -31 68 -102 122 -127 49 -23 149 -56 169 -56
40 0 65 -121 36 -173 -25 -45 -61 -77 -86 -77 -15 0 -34 11 -48 28 l-22 27 -1
-56 c0 -67 -13 -82 -89 -105 -46 -13 -55 -13 -69 -1 -10 8 -33 22 -54 31 -64
30 -63 93 3 126 39 21 53 50 23 50 -12 0 -14 3 -6 13 5 6 12 55 15 107 3 52 9
110 12 128 9 42 -7 41 -28 -3 -18 -38 -79 -74 -157 -94 -25 -7 -62 -19 -83
-27 -20 -7 -49 -14 -62 -14 -14 0 -34 -9 -45 -20 -18 -18 -20 -33 -20 -130 0
-82 -4 -118 -17 -145 -9 -19 -20 -35 -25 -35 -4 0 -8 -6 -8 -13 0 -17 29 -30
140 -67 106 -34 230 -92 293 -136 26 -19 49 -34 52 -34 3 0 5 20 5 45 0 43 1
45 39 56 29 9 75 9 186 0 81 -6 152 -14 158 -18 6 -3 63 -5 128 -4 l118 2 16
-30 c20 -39 35 -40 35 -3 0 53 -28 66 -135 63 l-93 -2 34 63 c18 35 34 71 34
81 0 10 6 24 13 32 11 10 15 8 26 -16 13 -29 2 -69 -19 -69 -6 0 -10 -4 -10
-10 0 -5 11 -10 25 -10 19 0 25 5 25 22 l0 21 23 -21 c12 -11 35 -25 50 -31
26 -10 28 -9 25 11 -2 13 -15 29 -30 36 -16 7 -33 22 -39 33 -9 19 -9 19 10
10 11 -6 23 -16 26 -21 3 -6 13 -10 21 -10 11 0 14 21 14 110 0 127 -7 134
-75 80 -21 -16 -42 -30 -46 -30 -11 0 -89 -168 -125 -265 -5 -15 -8 -16 -11
-5 -2 8 11 53 28 100 43 115 42 174 -3 213 -33 28 -58 35 -58 16 0 -6 -7 -4
-15 5 -8 8 -15 23 -15 33 0 11 -4 23 -9 29 -5 5 -41 72 -81 149 -39 77 -73
142 -76 144 -3 3 -21 4 -40 3 l-35 -3 6 46 c6 35 3 51 -11 73 -11 15 -24 39
-31 54 -13 29 -58 57 -71 44 -4 -4 3 -16 16 -27 27 -22 73 -107 61 -114 -4 -3
-11 0 -14 5 -5 7 -11 5 -19 -6 -11 -14 -20 0 -70 100 -32 65 -65 124 -73 132
-18 18 -33 18 -33 0z m306 -384 c1 -15 3 -33 3 -39 1 -7 10 -13 20 -13 11 0
23 -5 27 -11 4 -7 0 -9 -12 -6 -11 3 -38 11 -62 18 -37 11 -78 39 -57 39 4 0
2 7 -5 15 -16 20 -4 32 35 37 37 5 49 -5 51 -40z m-286 -227 c-17 -59 -25 -70
-49 -73 -32 -5 -42 -42 -44 -164 -1 -59 -3 -108 -5 -108 -8 0 -131 43 -159 56
-17 7 -40 14 -50 14 -27 0 -35 11 -20 28 7 10 14 63 17 146 l5 131 90 21 c92
22 192 58 210 75 15 15 19 -78 5 -126z m434 -49 c4 -19 13 -37 21 -40 10 -3
15 -19 15 -45 0 -40 0 -41 -53 -56 -30 -9 -61 -13 -70 -9 -21 8 -22 40 -3 47
26 10 78 97 73 122 -2 14 -1 22 3 20 4 -3 11 -20 14 -39z m101 -84 c-3 -8 -2
-20 3 -26 5 -6 -2 -46 -14 -91 l-22 -80 1 122 c2 116 3 121 20 105 10 -8 15
-22 12 -30z m219 15 c-6 -17 -34 -31 -34 -17 0 11 31 42 36 37 3 -2 2 -11 -2
-20z m-505 -91 c-9 -8 -10 -7 -5 7 3 10 7 24 7 30 1 7 3 4 6 -7 3 -10 -1 -23
-8 -30z m499 6 c2 -7 -2 -10 -12 -6 -9 3 -16 11 -16 16 0 13 23 5 28 -10z
m-281 -73 c-4 -64 -2 -81 9 -86 8 -3 14 -13 14 -22 0 -10 -3 -12 -8 -5 -10 14
-151 34 -247 34 -71 0 -77 2 -55 13 14 7 31 27 39 45 20 44 35 41 16 -4 -19
-45 -19 -44 4 -44 21 0 34 28 33 71 -1 28 17 38 68 39 14 1 48 9 75 20 28 10
52 19 54 19 2 1 1 -35 -2 -80z m-474 29 c51 -28 66 -46 67 -78 0 -29 9 -45 30
-52 11 -4 8 -9 -12 -16 -14 -6 -29 -16 -33 -22 -5 -8 -12 -7 -23 2 -10 8 -33
22 -53 32 -35 18 -35 19 -37 87 -2 45 1 69 8 69 6 0 30 -10 53 -22z m184 -48
c-40 -35 -77 -40 -77 -11 0 15 10 22 43 29 67 15 70 14 34 -18z"/>
<path d="M2553 2245 c0 -22 2 -30 4 -17 2 12 2 30 0 40 -3 9 -5 -1 -4 -23z"/>
<path d="M2302 2173 c-26 -37 -27 -43 -7 -43 17 0 37 35 33 58 -3 13 -8 10
-26 -15z"/>
<path d="M2147 1934 c-3 -3 4 -25 16 -47 26 -49 47 -106 47 -127 0 -8 6 -27
14 -42 8 -14 20 -43 27 -65 l12 -38 9 33 c6 22 5 38 -1 46 -7 8 -7 16 -1 22
15 15 0 76 -16 70 -8 -3 -20 14 -34 52 -32 85 -54 115 -73 96z"/>
<path d="M972 1886 c-72 -38 -92 -67 -92 -130 0 -54 38 -95 116 -125 79 -30
244 -30 306 0 81 39 92 47 112 83 17 29 19 37 8 48 -10 10 -14 10 -21 0 -5 -9
-19 -1 -50 29 -28 26 -56 43 -79 46 -46 8 -40 -15 12 -40 46 -22 53 -40 27
-68 -12 -13 -19 -30 -16 -40 4 -12 -3 -20 -26 -28 -35 -12 -167 -15 -219 -4
l-33 6 7 60 6 59 -28 -7 c-15 -3 -35 -16 -44 -28 -17 -21 -16 -22 7 -25 22 -3
53 -37 43 -48 -8 -8 -86 36 -92 51 -21 57 3 96 85 135 38 19 69 40 69 47 0 21
-31 14 -98 -21z m370 -198 c-6 -6 -15 -8 -19 -4 -4 4 -1 11 7 16 19 12 27 3
12 -12z"/>
<path d="M2513 1723 c-34 -4 -43 -22 -20 -41 6 -6 24 -8 40 -5 20 4 27 11 27
29 0 13 -3 23 -7 22 -5 0 -23 -3 -40 -5z"/>
<path d="M2410 1695 c-7 -9 -15 -39 -17 -68 -4 -48 -3 -51 11 -33 9 11 16 30
16 42 0 12 7 27 15 34 19 16 20 40 1 40 -7 0 -19 -7 -26 -15z"/>
<path d="M437 1284 c-8 -8 3 -34 14 -34 11 0 12 27 0 34 -4 3 -11 3 -14 0z"/>
<path d="M315 1230 c-3 -5 -2 -10 4 -10 5 0 13 5 16 10 3 6 2 10 -4 10 -5 0
-13 -4 -16 -10z"/>
<path d="M1404 1223 c-11 -37 -22 -49 -70 -81 -155 -103 -214 -191 -214 -320
0 -152 105 -266 303 -331 56 -19 85 -22 167 -19 77 2 96 0 88 -9 -25 -31 77
-22 119 10 17 13 6 27 -15 21 -9 -4 29 22 86 56 57 35 106 70 109 79 3 9 15
39 28 66 42 94 58 155 51 197 -4 22 -2 45 3 52 5 6 11 22 13 36 3 22 -1 25
-30 28 -21 2 -43 -4 -63 -18 -16 -12 -33 -19 -37 -16 -3 4 0 11 8 16 38 23 60
44 60 56 0 17 -31 34 -62 34 -13 0 -34 7 -48 14 -129 73 -175 89 -275 97 -67
4 -116 14 -148 28 -59 26 -66 26 -73 4z m81 -50 c22 -8 85 -19 140 -23 74 -5
112 -13 145 -30 25 -12 60 -30 78 -38 36 -18 44 -35 10 -24 -13 4 -34 6 -48 5
-14 0 -40 -1 -57 -2 -22 -1 -33 -6 -33 -16 0 -14 14 -20 65 -27 11 -2 20 -8
21 -13 0 -6 4 -23 9 -39 5 -20 3 -44 -9 -77 -10 -27 -16 -54 -14 -60 5 -14 93
-48 105 -40 4 3 14 16 20 28 15 27 1 38 -26 21 -14 -9 -28 -9 -48 -2 -39 13
-41 39 -4 55 17 8 31 17 31 20 0 3 19 11 43 18 23 7 52 17 65 22 35 14 39 12
39 -21 0 -23 -5 -30 -20 -30 -21 0 -57 -27 -57 -42 0 -5 17 -8 38 -6 35 3 37
2 35 -26 -3 -42 -53 -168 -77 -193 -27 -28 -150 -93 -176 -93 -11 0 -41 -8
-67 -17 -59 -20 -209 -19 -251 3 -15 8 -34 14 -42 14 -25 0 -155 83 -182 115
-47 56 -68 110 -68 174 0 104 52 178 188 271 37 25 71 55 77 68 11 26 17 26
70 5z"/>
<path d="M1378 928 c-5 -31 24 -115 57 -168 15 -23 23 -45 18 -49 -11 -7 -53
-109 -53 -128 0 -10 5 -11 18 -4 10 5 26 36 36 69 l18 58 64 1 c76 1 96 14
118 81 22 64 10 70 -86 46 -21 -5 -35 0 -58 20 -56 47 -72 25 -18 -25 24 -21
42 -29 70 -29 20 0 40 5 43 10 9 15 25 12 25 -4 0 -31 -35 -54 -90 -59 l-55
-5 -26 42 c-29 46 -45 85 -54 134 -8 37 -22 42 -27 10z"/>
<path d="M1335 590 c3 -5 8 -10 11 -10 2 0 4 5 4 10 0 6 -5 10 -11 10 -5 0 -7
-4 -4 -10z"/>
<path d="M196 1208 c-25 -35 -19 -61 23 -107 21 -23 41 -56 45 -74 17 -100 33
-165 44 -184 6 -12 12 -41 12 -65 0 -41 13 -68 32 -68 4 0 5 28 2 63 l-7 62
21 -22 c12 -12 24 -32 27 -45 3 -12 14 -34 25 -47 l18 -25 16 38 c21 51 21 52
-14 68 -21 9 -30 20 -30 37 0 13 -11 34 -25 47 -29 26 -32 44 -9 44 9 0 18 -9
21 -20 8 -30 73 -24 73 6 0 14 14 17 62 14 39 -2 68 9 68 26 0 11 -15 14 -61
14 -52 0 -62 -3 -66 -20 -3 -11 -13 -20 -23 -20 -10 0 -25 -3 -34 -6 -12 -4
-16 0 -16 15 0 17 -6 21 -30 21 -17 0 -30 -5 -30 -12 0 -23 -28 28 -35 63 -8
41 12 69 48 69 21 0 97 47 97 59 0 4 -5 12 -12 19 -9 9 -19 5 -45 -20 -18 -17
-36 -28 -40 -24 -4 3 5 18 20 32 15 14 25 29 22 34 -10 16 -47 -3 -65 -33
l-19 -30 -12 26 c-8 19 -20 27 -37 27 -17 0 -23 4 -18 15 7 20 -3 45 -20 45
-7 0 -20 -10 -28 -22z m71 -100 c-3 -8 -6 -5 -6 6 -1 11 2 17 5 13 3 -3 4 -12
1 -19z m173 -332 c0 -3 -4 -8 -10 -11 -5 -3 -10 -1 -10 4 0 6 5 11 10 11 6 0
10 -2 10 -4z"/>
<path d="M60 1157 c0 -7 7 -22 15 -33 8 -10 24 -37 35 -59 35 -68 47 -86 84
-124 l37 -38 -38 -15 c-44 -17 -74 -61 -55 -80 9 -9 25 -9 64 -1 29 6 56 9 61
6 4 -2 7 -18 7 -34 0 -20 4 -29 12 -27 20 7 21 56 4 83 -9 13 -16 31 -16 40 0
28 -38 90 -63 104 -14 7 -40 43 -61 85 -20 39 -42 79 -50 89 -16 20 -36 23
-36 4z m155 -307 c-3 -5 -13 -10 -21 -10 -8 0 -12 5 -9 10 3 6 13 10 21 10 8
0 12 -4 9 -10z"/>
<path d="M500 1149 c0 -16 20 -49 29 -49 19 0 22 35 5 47 -22 16 -34 17 -34 2z"/>
<path d="M543 1061 c-19 -25 -21 -32 -10 -54 8 -18 21 -26 44 -29 28 -3 34 0
43 26 13 37 13 39 -2 33 -47 -17 -58 -18 -58 -4 0 8 7 20 15 27 8 7 15 16 15
21 0 18 -26 7 -47 -20z"/>
<path d="M826 1074 c-9 -23 -8 -24 14 -24 13 0 20 7 20 20 0 24 -25 27 -34 4z"/>
<path d="M900 1061 c0 -11 39 -41 52 -41 16 0 7 30 -11 40 -24 13 -41 13 -41
1z"/>
<path d="M965 950 c-8 -13 13 -40 31 -40 17 0 18 22 2 38 -15 15 -25 15 -33 2z"/>
<path d="M570 875 c-7 -8 -22 -15 -34 -15 -29 0 -61 -24 -52 -38 13 -21 55
-12 91 19 19 17 35 35 35 40 0 14 -26 10 -40 -6z"/>
<path d="M656 821 c-11 -18 6 -41 30 -41 29 0 31 11 6 33 -21 19 -28 21 -36 8z"/>
<path d="M787 823 c-14 -13 -6 -23 18 -23 16 0 25 6 25 15 0 15 -31 21 -43 8z"/>
<path d="M560 763 c-23 -8 -40 -34 -40 -60 0 -30 28 -20 36 13 7 25 39 33 47
12 2 -7 8 -9 13 -5 11 10 -9 41 -27 44 -8 1 -21 -1 -29 -4z"/>
<path d="M2122 698 c0 -149 -93 -319 -235 -431 -96 -76 -222 -144 -367 -198
-47 -18 -98 -41 -115 -51 l-30 -18 47 0 c26 0 50 4 53 10 3 5 24 14 47 20 80
22 212 85 308 149 88 58 203 174 239 241 43 81 81 194 81 243 l0 40 48 -7 c26
-4 118 -9 205 -13 l157 -6 0 24 c0 24 -1 24 -107 24 -154 1 -295 15 -314 32
-15 13 -17 8 -17 -59z"/>
<path d="M462 718 c6 -18 28 -21 28 -4 0 9 -7 16 -16 16 -9 0 -14 -5 -12 -12z"/>
<path d="M760 717 c0 -7 9 -20 19 -29 17 -15 20 -15 25 -1 7 18 -10 43 -30 43
-8 0 -14 -6 -14 -13z"/>
<path d="M380 665 c7 -9 10 -27 6 -45 -6 -34 7 -39 40 -16 18 14 18 15 -10 45
-30 31 -59 44 -36 16z"/>
<path d="M1086 625 c4 -8 13 -15 21 -15 13 0 13 3 3 15 -7 8 -16 15 -21 15 -5
0 -6 -7 -3 -15z"/>
<path d="M866 623 c-10 -11 14 -42 29 -37 8 4 15 9 15 13 0 10 -37 31 -44 24z"/>
<path d="M734 586 c-7 -40 3 -66 17 -45 12 19 11 79 -1 79 -5 0 -12 -15 -16
-34z"/>
<path d="M960 585 c-19 -7 -37 -20 -38 -30 -3 -14 1 -16 30 -10 49 11 68 23
62 40 -7 17 -7 17 -54 0z"/>
<path d="M484 575 c3 -9 0 -15 -9 -15 -21 0 -19 -15 8 -55 27 -43 41 -45 33
-4 -3 17 -6 44 -6 60 0 20 -5 29 -16 29 -10 0 -14 -6 -10 -15z"/>
<path d="M577 560 c-6 -23 10 -37 24 -23 10 10 2 43 -11 43 -4 0 -10 -9 -13
-20z"/>
<path d="M820 566 c0 -8 -13 -23 -30 -33 -29 -17 -42 -53 -19 -53 17 0 79 66
79 84 0 9 -7 16 -15 16 -8 0 -15 -6 -15 -14z"/>
<path d="M384 540 c-24 -9 -38 -36 -24 -45 10 -6 60 33 60 47 0 10 -8 9 -36
-2z"/>
<path d="M668 493 c-2 -19 5 -36 22 -53 28 -28 87 -70 98 -70 4 0 30 -12 57
-26 39 -19 59 -24 89 -19 43 6 96 31 96 45 0 18 -20 20 -49 5 -45 -23 -85 -18
-134 15 -25 17 -54 30 -66 30 -11 0 -28 11 -37 25 -12 18 -22 24 -35 20 -16
-5 -19 -1 -19 24 0 38 -18 41 -22 4z"/>
<path d="M397 494 c-14 -15 -6 -34 14 -34 14 0 19 5 17 17 -3 18 -20 27 -31
17z"/>
<path d="M296 438 c-10 -38 -7 -58 9 -58 11 0 15 11 15 40 0 43 -14 54 -24 18z"/>
<path d="M520 432 c0 -11 9 -27 21 -38 11 -10 25 -27 30 -37 16 -29 0 -102
-32 -140 -67 -81 -95 13 -31 102 20 27 29 48 23 54 -12 12 -52 -1 -49 -16 1
-7 -5 -23 -14 -37 -8 -14 -18 -46 -21 -72 -4 -25 -8 -51 -9 -58 -2 -6 14 -21
35 -33 l38 -22 39 45 c33 37 41 55 47 105 10 81 8 94 -29 132 -36 38 -48 41
-48 15z"/>
<path d="M1370 385 c0 -18 36 -33 98 -42 35 -5 44 -3 40 7 -2 8 -20 18 -39 23
-19 5 -38 13 -43 18 -16 15 -56 11 -56 -6z"/>
<path d="M249 357 c15 -19 41 -23 41 -7 0 6 -4 10 -9 10 -5 0 -18 3 -28 7 -16
6 -16 5 -4 -10z"/>
<path d="M50 328 c0 -7 29 -30 65 -51 35 -21 69 -45 76 -53 11 -14 50 -19 62
-8 10 10 -4 34 -20 34 -8 0 -45 20 -82 45 -67 45 -101 56 -101 33z"/>
<path d="M315 258 c-4 -10 0 -27 9 -40 9 -12 16 -35 16 -50 0 -18 8 -31 23
-39 12 -7 27 -18 32 -25 6 -6 27 -17 48 -24 21 -6 50 -23 64 -36 18 -17 38
-24 65 -24 49 0 47 20 -2 33 -19 5 -39 15 -44 22 -6 7 -44 31 -85 52 -40 21
-75 43 -76 48 -2 6 -6 21 -9 35 -3 14 -12 34 -20 45 -13 18 -15 18 -21 3z"/>
<path d="M1440 188 c0 -18 50 -78 66 -78 23 0 17 17 -20 55 -36 37 -46 42 -46
23z"/>
<path d="M1370 173 c0 -38 58 -102 93 -103 25 0 22 8 -28 58 -25 24 -45 49
-45 53 0 5 -4 9 -10 9 -5 0 -10 -8 -10 -17z"/>
<path d="M2 98 c2 -14 16 -29 38 -40 64 -32 162 -58 214 -58 47 1 49 2 32 15
-11 8 -29 15 -41 15 -23 0 -169 51 -217 76 -29 15 -29 15 -26 -8z"/>
<path d="M1683 3 c9 -2 25 -2 35 0 9 3 1 5 -18 5 -19 0 -27 -2 -17 -5z"/>
</g>
</svg>
