<?xml version="1.0" standalone="no"?>
<!DOCTYPE svg PUBLIC "-//W3C//DTD SVG 20010904//EN"
 "http://www.w3.org/TR/2001/REC-SVG-20010904/DTD/svg10.dtd">
<svg version="1.0" xmlns="http://www.w3.org/2000/svg"
 width="372.000000pt" height="256.000000pt" viewBox="0 0 372.000000 256.000000"
 preserveAspectRatio="xMidYMid meet">
<metadata>
Created by potrace 1.16, written by Peter Selinger 2001-2019
</metadata>
<g transform="translate(0.000000,256.000000) scale(0.100000,-0.100000)"
fill="#000000" stroke="none">
<path d="M1890 1961 c-19 -5 -48 -16 -65 -25 -16 -9 -34 -16 -40 -16 -5 -1
-22 -11 -37 -23 l-28 -22 10 -85 c6 -47 10 -126 9 -175 -1 -58 4 -103 13 -125
12 -30 20 -62 43 -182 1 -9 -3 -19 -11 -22 -11 -4 -14 6 -14 45 0 30 -10 74
-26 112 -23 56 -25 78 -28 217 -4 185 -10 208 -60 207 -20 -1 -36 -4 -36 -8 0
-4 7 -35 16 -70 10 -40 15 -91 12 -144 -2 -69 -7 -88 -30 -123 -29 -43 -35
-62 -18 -62 18 0 60 55 67 90 11 47 10 185 -1 240 -7 38 -6 43 5 32 11 -10 14
-53 15 -176 0 -127 3 -169 15 -187 28 -46 39 -80 39 -126 0 -56 -11 -51 -15 7
-4 47 -60 144 -79 133 -6 -3 -22 -14 -36 -23 -62 -41 -100 -61 -100 -52 0 6
19 36 43 69 62 83 72 114 72 218 -1 94 -26 199 -50 209 -7 2 -23 -1 -36 -8
-22 -11 -25 -19 -32 -116 -7 -106 -19 -166 -56 -295 -11 -38 -29 -103 -41
-144 -11 -40 -27 -89 -35 -108 -8 -20 -15 -39 -15 -44 0 -18 49 -8 64 13 13
18 18 19 31 8 19 -16 19 -60 0 -107 -8 -19 -15 -46 -15 -60 0 -13 7 -26 15
-29 20 -8 18 -37 -5 -104 -11 -30 -19 -68 -20 -83 0 -15 -7 -30 -15 -33 -8 -3
-24 -22 -36 -41 -18 -29 -20 -39 -11 -54 7 -10 12 -28 12 -39 0 -17 7 -20 39
-20 l39 0 16 65 c20 78 20 72 -3 78 -16 4 -18 10 -11 43 8 42 16 67 32 101 12
23 5 338 -8 381 -4 13 -2 22 4 22 6 0 23 11 38 25 19 18 31 22 38 15 5 -5 23
-10 39 -10 31 0 97 -35 97 -51 0 -13 -8 -11 -38 11 -35 26 -97 37 -117 20 -21
-17 -19 -57 3 -64 9 -2 32 -7 49 -11 42 -8 44 -13 32 -61 -6 -21 -12 -54 -15
-71 -2 -18 -9 -44 -14 -59 -6 -14 -10 -35 -10 -48 0 -47 -30 -124 -50 -129
-15 -4 -20 -14 -20 -36 0 -26 4 -31 25 -31 21 0 26 8 44 68 11 37 23 85 26
107 6 35 37 159 51 206 3 11 19 18 47 21 49 6 112 33 140 61 21 21 21 24 -3
242 -15 135 -21 375 -10 375 14 0 18 -32 25 -200 7 -197 24 -315 45 -315 9 0
14 8 12 20 -1 11 -7 49 -12 85 -14 107 -22 287 -11 270 16 -26 30 -123 20
-143 -7 -12 -4 -40 11 -90 11 -40 20 -83 20 -96 0 -16 5 -21 18 -19 14 3 16
12 14 48 -2 45 -24 172 -44 265 -6 28 -14 80 -17 117 -6 64 -1 78 25 78 2 0 4
-26 4 -57 1 -32 5 -78 11 -103 11 -51 23 -121 38 -229 10 -66 21 -90 42 -91
29 -1 69 130 69 223 0 30 -7 74 -16 98 -21 61 -24 154 -4 154 10 0 16 -12 17
-40 2 -22 10 -78 19 -125 16 -82 15 -88 -5 -164 -12 -44 -21 -89 -21 -100 0
-38 27 5 46 74 22 78 22 136 2 255 -10 56 -12 94 -7 100 16 16 29 -15 29 -70
0 -27 7 -79 15 -114 10 -40 12 -68 6 -75 -14 -16 -43 -135 -36 -146 10 -16 25
-11 25 7 0 13 3 14 12 5 16 -16 70 -15 87 1 11 10 13 9 8 -5 -10 -28 12 -32
39 -7 13 12 26 20 29 17 3 -3 -8 -15 -25 -28 -16 -13 -30 -28 -30 -35 0 -6 15
-26 34 -44 l33 -32 21 28 c16 21 21 24 22 11 0 -9 -4 -20 -10 -23 -16 -10 -11
-40 11 -64 12 -12 23 -41 26 -64 7 -71 13 -87 28 -87 9 0 21 11 27 25 12 26
28 34 28 13 0 -7 -7 -22 -15 -32 -8 -11 -15 -30 -15 -43 0 -16 -4 -21 -16 -16
-13 5 -15 -1 -9 -40 7 -44 6 -46 -19 -53 -17 -4 -26 -13 -26 -26 0 -12 -4 -16
-11 -12 -8 4 -10 32 -6 83 5 84 -8 189 -28 209 -10 11 -21 10 -66 -4 -30 -9
-58 -21 -64 -25 -5 -5 -20 -9 -33 -9 -15 0 -26 -7 -29 -20 -3 -11 -9 -20 -14
-20 -20 0 -8 -41 15 -49 13 -5 26 -17 30 -26 5 -14 2 -16 -11 -10 -29 13 -66
11 -70 -3 -3 -7 10 -18 29 -26 36 -16 85 -62 75 -72 -3 -4 -23 8 -44 25 -44
36 -73 40 -73 11 0 -11 6 -20 13 -20 7 0 26 -13 42 -30 16 -16 24 -30 18 -30
-5 0 -18 9 -28 20 -22 25 -47 26 -45 3 2 -19 -10 -63 -16 -63 -2 0 -13 6 -25
13 -18 11 -24 7 -59 -33 -22 -25 -40 -55 -40 -67 0 -36 -82 -184 -108 -196
-15 -7 -22 -18 -20 -31 4 -27 37 -28 52 -1 5 11 23 39 39 63 16 24 33 57 38
75 8 29 42 72 82 104 8 6 34 17 58 24 24 7 48 16 53 21 16 13 23 9 36 -22 7
-16 23 -36 36 -45 13 -8 24 -21 24 -28 1 -6 19 -30 40 -52 22 -22 45 -52 51
-67 8 -19 19 -28 34 -28 12 0 38 -16 58 -35 l37 -36 0 29 c0 15 12 44 26 63
24 32 25 39 20 109 -3 41 -8 85 -12 98 -5 19 -3 22 21 22 16 0 43 -11 61 -25
18 -14 37 -25 43 -25 23 0 9 36 -22 58 -17 12 -27 22 -21 22 7 0 14 8 17 19 3
13 11 17 28 14 24 -4 35 14 62 98 4 11 14 15 36 11 22 -3 29 -8 23 -16 -17
-21 -21 -105 -6 -117 8 -6 14 -16 14 -21 0 -5 11 -34 25 -64 28 -61 48 -68 83
-31 32 34 29 79 -7 110 -17 14 -26 28 -21 33 5 5 13 29 19 53 12 53 5 74 -56
164 -41 60 -49 67 -79 67 -18 0 -36 5 -39 10 -3 6 -13 10 -21 10 -20 0 -18
-37 4 -49 14 -8 15 -12 5 -22 -15 -15 -17 -59 -4 -59 13 0 41 29 41 42 0 6 2
9 5 6 10 -9 -17 -58 -32 -58 -7 0 -13 -4 -13 -10 0 -5 -10 -10 -21 -10 -20 0
-21 4 -14 45 8 54 -1 105 -19 105 -9 0 -11 15 -8 54 3 43 0 60 -16 83 -35 50
-61 118 -65 175 -3 31 -14 77 -25 101 l-20 46 21 15 22 15 -22 20 c-13 10 -23
26 -23 35 0 23 -51 66 -78 66 -20 0 -23 -4 -20 -27 2 -22 9 -29 31 -31 35 -4
34 -15 -2 -41 -30 -22 -46 -57 -29 -67 5 -3 18 2 29 12 10 9 19 13 19 8 -1
-14 -24 -40 -42 -47 -10 -3 -18 -14 -18 -24 -1 -23 -14 -39 -72 -85 -40 -33
-88 -50 -88 -32 0 3 17 33 38 67 l37 60 0 131 0 131 -90 3 c-244 9 -293 10
-325 3z m333 -122 c4 -41 6 -87 4 -104 -2 -25 -5 -20 -14 25 -22 105 -27 163
-12 158 9 -3 17 -31 22 -79z m57 -26 c-4 -79 -10 -107 -30 -143 -14 -25 -32
-65 -42 -90 -12 -34 -17 -39 -17 -21 -1 13 15 53 35 89 l36 65 -7 98 c-6 92
-5 99 12 99 17 0 18 -8 13 -97z m-246 51 c3 -9 6 -30 6 -49 0 -18 6 -48 14
-67 25 -58 29 -128 12 -192 -22 -84 -28 -82 -21 9 5 64 2 96 -14 159 -22 82
-27 156 -12 156 5 0 12 -7 15 -16z m-254 -11 c5 -167 22 -348 39 -403 21 -67
28 -146 12 -136 -5 3 -14 35 -20 70 -6 35 -18 83 -26 106 -18 50 -31 380 -15
380 6 0 10 -8 10 -17z m-204 -38 c32 -76 10 -239 -43 -316 -49 -71 -70 -119
-88 -202 -9 -42 -22 -80 -27 -83 -6 -4 -8 1 -5 12 3 11 13 48 22 84 9 35 32
103 50 150 71 183 70 180 70 288 0 56 1 102 3 102 2 0 10 -16 18 -35z m864
-166 c0 -4 -12 -15 -27 -24 -28 -18 -28 -18 -10 2 9 11 17 28 17 39 0 16 2 17
10 4 5 -8 10 -18 10 -21z m46 -6 c-7 -7 -26 7 -26 19 0 6 6 6 15 -2 9 -7 13
-15 11 -17z m-469 -15 c-3 -7 -5 -2 -5 12 0 14 2 19 5 13 2 -7 2 -19 0 -25z
m413 -48 c0 -5 -4 -10 -10 -10 -5 0 -10 5 -10 10 0 6 5 10 10 10 6 0 10 -4 10
-10z m90 0 c0 -13 -11 -13 -30 0 -12 8 -11 10 8 10 12 0 22 -4 22 -10z m-130
-95 c-7 -9 -15 -13 -18 -10 -3 2 1 11 8 20 7 9 15 13 18 10 3 -2 -1 -11 -8
-20z m158 -47 c13 -13 16 -47 4 -64 -5 -8 -14 -9 -32 -1 -20 8 -22 11 -7 14
20 5 23 33 5 51 -9 9 -9 12 3 12 8 0 20 -5 27 -12z m-874 -48 c27 -42 23 -55
-7 -20 -9 11 -29 20 -44 20 l-28 0 25 20 c14 11 26 20 26 20 1 0 13 -18 28
-40z m645 -183 c0 -21 -1 -21 -9 -2 -12 28 -12 37 0 30 6 -3 10 -16 9 -28z
m-73 -33 c16 -39 18 -58 4 -49 -5 3 -10 17 -10 29 0 13 -7 29 -15 36 -17 14
-21 35 -4 24 6 -3 17 -21 25 -40z m34 25 c0 -6 -4 -7 -10 -4 -5 3 -10 11 -10
16 0 6 5 7 10 4 6 -3 10 -11 10 -16z m269 -23 c-6 -21 -8 -48 -5 -60 5 -20 5
-21 -9 -2 -19 25 -19 40 1 77 20 40 26 33 13 -15z m46 -21 c-5 -38 -10 -53
-16 -44 -9 13 -3 84 8 102 11 19 14 -5 8 -58z m197 43 c15 -22 14 -23 -13 -23
-23 0 -29 4 -29 23 0 12 6 22 14 22 7 0 20 -10 28 -22z m-418 -72 c-5 -23 -7
-24 -22 -9 -15 14 -14 17 3 29 23 17 28 13 19 -20z m141 -46 c3 -5 1 -10 -4
-10 -6 0 -11 5 -11 10 0 6 2 10 4 10 3 0 8 -4 11 -10z m4 -130 c1 -8 -8 -21
-19 -28 -19 -11 -22 -9 -35 22 -19 44 -19 42 3 71 l17 24 17 -37 c9 -20 17
-44 17 -52z m-204 0 c-3 -5 -11 -10 -16 -10 -6 0 -7 5 -4 10 3 6 11 10 16 10
6 0 7 -4 4 -10z m135 -50 c10 -25 20 -78 24 -118 9 -86 -4 -99 -58 -57 -76 58
-145 174 -105 176 8 0 34 11 59 23 25 13 49 23 54 22 5 -1 16 -22 26 -46z m58
-71 c-3 -20 -5 -19 -9 9 -3 20 -2 29 4 23 5 -5 7 -19 5 -32z"/>
<path d="M684 1946 c-4 -10 -28 -17 -72 -21 -83 -8 -131 -19 -204 -48 -58 -22
-58 -22 -58 -64 0 -33 -5 -46 -26 -62 -14 -11 -29 -21 -35 -23 -5 -2 -23 -39
-39 -83 -16 -44 -37 -84 -47 -90 -9 -5 -35 -27 -57 -47 l-41 -37 -3 -163 c-3
-106 1 -182 9 -218 18 -80 35 -93 45 -34 7 44 13 56 24 49 5 -3 11 2 11 12 6
77 10 101 19 123 16 39 28 149 24 213 -3 38 1 69 10 90 8 18 24 57 35 87 15
40 33 66 66 93 46 39 52 40 125 18 19 -6 57 -11 85 -11 33 -1 65 -9 95 -25 25
-13 59 -30 75 -38 29 -15 116 -102 143 -142 49 -76 76 -152 80 -225 3 -52 1
-80 -7 -85 -23 -14 -38 16 -43 83 -4 52 -13 83 -41 138 -21 39 -37 75 -37 80
0 22 -109 107 -193 150 -32 17 -107 32 -211 41 -54 5 -61 3 -84 -22 -28 -31
-38 -104 -14 -112 8 -3 12 6 12 25 0 34 9 46 24 32 7 -5 36 -12 66 -15 58 -6
63 -8 205 -54 89 -30 105 -41 187 -127 31 -33 55 -85 59 -129 4 -39 -11 -39
-36 0 -11 16 -30 34 -42 40 -16 7 -20 15 -17 35 6 26 -28 86 -56 101 -113 58
-347 113 -376 88 -40 -33 4 -68 98 -80 103 -13 279 -64 295 -85 7 -10 11 -26
7 -36 -9 -30 5 -56 34 -63 18 -3 34 -18 47 -42 11 -20 35 -45 54 -55 18 -11
40 -25 48 -33 8 -8 21 -15 29 -15 8 0 25 -6 37 -14 49 -30 194 -42 260 -20 12
4 32 8 45 8 14 1 29 11 37 26 21 38 51 147 70 252 10 51 28 126 41 165 15 46
26 110 30 170 6 95 6 99 -20 128 -25 29 -26 29 -53 13 -19 -10 -35 -13 -50 -8
-32 13 -52 -17 -70 -102 -23 -111 -35 -118 -28 -15 4 55 2 87 -4 87 -17 0 -21
-15 -31 -141 -12 -146 -18 -179 -32 -179 -6 0 -7 28 -3 78 12 151 11 245 -2
249 -9 3 -13 -8 -13 -36 0 -22 -4 -42 -9 -46 -5 -3 -40 17 -77 45 -37 27 -75
50 -85 50 -34 0 -20 -27 29 -58 77 -50 122 -96 122 -126 0 -14 -4 -26 -10 -26
-5 0 -10 7 -10 15 0 19 -87 107 -153 155 -26 19 -60 45 -76 57 -81 64 -202 97
-217 59z m129 -48 c12 -6 42 -27 68 -47 25 -20 56 -43 68 -51 13 -8 30 -28 38
-44 9 -17 37 -53 63 -80 95 -102 140 -246 125 -404 -8 -88 -33 -123 -78 -115
-32 6 -34 14 -8 30 33 21 46 135 28 242 -18 105 -53 178 -114 240 -25 25 -53
62 -63 81 -19 36 -92 110 -109 110 -6 0 -14 6 -18 13 -4 7 -19 18 -33 24 -19
9 -21 12 -7 12 10 1 28 -4 40 -11z m-208 -28 c3 -5 18 -10 33 -10 34 -1 118
-30 153 -53 15 -10 46 -45 70 -79 23 -34 64 -87 89 -118 52 -61 71 -95 94
-161 16 -46 20 -155 8 -224 -7 -36 -10 -40 -41 -43 -31 -3 -33 -2 -27 20 24
79 27 105 15 173 -13 82 -25 107 -90 197 -27 37 -49 71 -50 75 0 5 -17 33 -37
63 -31 47 -49 61 -116 95 -64 31 -95 40 -155 45 -62 5 -71 8 -46 14 17 4 35 9
40 11 22 7 54 5 60 -5z m819 -145 c-8 -54 -23 -130 -33 -169 -10 -40 -22 -108
-26 -151 -7 -85 -38 -201 -61 -224 -22 -24 -25 -7 -8 40 8 24 22 101 30 171 8
70 25 162 38 205 13 43 30 112 36 153 16 101 19 109 30 89 6 -9 3 -54 -6 -114z
m-109 -62 c-30 -120 -35 -159 -35 -255 0 -112 -16 -204 -40 -234 -7 -8 -24
-14 -37 -14 l-25 0 23 37 c20 32 24 56 29 172 4 78 14 157 23 186 8 28 23 77
32 110 16 58 40 134 53 165 4 12 6 10 9 -5 2 -11 -12 -84 -32 -162z m-700 133
c28 -7 69 -22 91 -34 43 -22 99 -80 89 -91 -4 -3 -12 1 -19 10 -20 29 -184 99
-229 99 -23 0 -60 3 -82 7 -36 6 -38 7 -15 14 41 12 112 10 165 -5z m736 -143
c-8 -15 -10 -15 -11 -2 0 17 10 32 18 25 2 -3 -1 -13 -7 -23z m-923 10 c-10
-2 -28 -2 -40 0 -13 2 -5 4 17 4 22 1 32 -1 23 -4z m196 -43 c7 -7 5 -10 -7
-10 -21 0 -67 21 -67 31 0 10 60 -7 74 -21z m446 -115 c6 -19 10 -40 8 -46 -2
-6 -11 12 -20 40 -9 28 -12 49 -8 46 5 -3 14 -21 20 -40z m139 -52 c-1 -39 -2
-43 -9 -23 -12 36 -12 70 0 70 6 0 10 -21 9 -47z m-122 -35 c-3 -8 -6 -5 -6 6
-1 11 2 17 5 13 3 -3 4 -12 1 -19z m10 -85 c-3 -10 -5 -2 -5 17 0 19 2 27 5
18 2 -10 2 -26 0 -35z m-927 -141 c0 -36 -14 -62 -32 -62 -4 0 -8 27 -8 60 0
58 1 60 20 50 15 -8 20 -21 20 -48z"/>
<path d="M1115 1850 c-3 -5 1 -24 10 -41 22 -42 44 -25 25 20 -13 32 -24 39
-35 21z"/>
<path d="M2325 1828 c-2 -7 -6 -44 -8 -81 -4 -51 -11 -77 -31 -107 -14 -22
-26 -44 -26 -50 0 -21 21 -9 42 25 16 23 28 33 40 29 26 -8 39 29 36 99 -2 43
-7 61 -15 60 -7 -2 -13 6 -13 17 0 22 -18 28 -25 8z m22 -150 c-3 -7 -5 -2 -5
12 0 14 2 19 5 13 2 -7 2 -19 0 -25z"/>
<path d="M340 1472 c0 -34 26 -56 67 -57 22 -1 55 -8 74 -17 30 -14 78 -27
160 -43 16 -3 29 -13 32 -25 7 -28 24 -25 30 7 7 36 -31 73 -75 73 -18 0 -69
11 -113 25 -44 14 -92 25 -106 25 -15 0 -32 7 -39 15 -17 20 -30 19 -30 -3z"/>
<path d="M370 1361 c0 -16 -4 -33 -10 -36 -5 -3 -10 -21 -10 -40 0 -19 5 -37
10 -40 6 -4 10 11 10 37 1 35 3 40 11 25 7 -13 7 -27 0 -49 -15 -43 -14 -58 7
-65 9 -3 37 -15 62 -27 26 -12 67 -20 97 -21 42 0 52 -3 49 -15 -2 -8 -10 -43
-16 -78 -7 -34 -16 -65 -20 -67 -7 -4 -30 69 -30 95 0 6 11 16 25 22 39 18 29
28 -28 28 -33 0 -66 7 -90 20 -20 11 -44 20 -52 20 -25 0 -69 -103 -61 -142
12 -58 23 -302 15 -325 -5 -14 -14 -21 -23 -17 -15 6 -36 -23 -36 -49 0 -19
60 -29 67 -11 3 9 13 10 36 3 35 -10 38 -7 58 53 11 36 11 42 -4 53 -9 6 -14
15 -11 18 4 3 3 36 -1 72 -5 54 -10 65 -23 62 -10 -2 -15 -10 -13 -18 2 -8 6
-32 9 -54 3 -32 2 -38 -9 -28 -7 7 -15 40 -17 73 l-4 61 26 -7 c23 -5 26 -3
26 20 0 14 5 26 10 26 6 0 10 6 10 13 1 55 55 34 71 -28 5 -22 14 -49 19 -60
29 -64 60 -152 60 -171 0 -15 11 -30 28 -41 38 -25 62 -53 62 -75 0 -21 18
-24 26 -4 3 8 12 12 21 9 13 -5 14 2 10 43 -7 70 -21 117 -35 122 -6 2 -12 -3
-12 -12 0 -30 -18 -16 -38 32 -35 82 -50 162 -43 227 7 60 45 205 62 237 20
39 -4 67 -59 68 -18 0 -59 11 -92 25 -33 14 -71 25 -85 25 -15 0 -35 5 -46 10
-17 10 -19 7 -19 -19z m158 -61 c29 -11 60 -20 70 -20 30 0 49 -17 35 -31 -14
-14 -103 2 -151 27 -15 8 -37 14 -49 14 -14 0 -23 6 -23 15 0 22 54 19 118 -5z
m33 -95 l64 -24 -42 0 c-44 -1 -148 32 -159 51 -10 15 60 2 137 -27z m-102
-109 c10 -12 8 -13 -9 -9 -25 7 -37 23 -17 23 8 0 20 -6 26 -14z m-62 -27 c30
-10 31 -11 16 -40 -17 -34 -24 -36 -47 -10 -11 13 -15 27 -11 40 7 25 4 24 42
10z m202 -244 c0 -5 -4 -3 -9 5 -5 8 -9 22 -9 30 0 16 17 -16 18 -35z m29 -76
c-3 -8 -7 -3 -11 10 -4 17 -3 21 5 13 5 -5 8 -16 6 -23z"/>
<path d="M2925 1220 c-3 -5 -17 -10 -31 -10 -17 0 -24 -5 -24 -19 0 -25 18
-37 33 -22 6 6 19 11 29 11 11 0 18 7 18 19 0 23 -16 36 -25 21z"/>
<path d="M3470 1065 c-7 -8 -9 -22 -6 -31 5 -13 9 -14 21 -4 17 14 20 36 6 44
-5 3 -14 -1 -21 -9z"/>
<path d="M154 996 c-9 -22 6 -50 30 -54 21 -5 20 17 -4 48 -17 23 -19 24 -26
6z"/>
<path d="M297 965 c-3 -11 -11 -60 -17 -110 -7 -49 -18 -116 -26 -149 -15 -59
-13 -79 7 -59 23 23 62 268 49 312 -6 24 -7 24 -13 6z"/>
<path d="M3460 952 c0 -9 9 -23 20 -30 11 -7 20 -18 20 -25 0 -6 5 -19 10 -27
8 -13 11 -12 24 5 21 27 20 42 -3 50 -10 3 -21 15 -24 25 -7 26 -47 27 -47 2z"/>
<path d="M2694 927 c-3 -9 3 -29 15 -46 26 -36 26 -40 1 -34 -30 8 -25 -23 7
-44 15 -10 41 -34 58 -53 16 -19 39 -43 50 -53 68 -62 106 -106 116 -130 9
-21 17 -27 31 -24 13 4 22 -2 30 -18 11 -23 51 -41 68 -30 6 4 10 17 10 30 0
19 -7 26 -27 31 -16 4 -39 17 -52 28 -81 70 -120 116 -136 158 -10 26 -25 50
-35 53 -18 6 -80 77 -80 93 0 5 -11 19 -25 32 -21 20 -25 21 -31 7z"/>
<path d="M3600 878 c0 -16 4 -28 9 -28 18 0 20 17 6 36 -14 18 -14 18 -15 -8z"/>
<path d="M960 853 c0 -33 7 -44 37 -60 31 -17 33 -17 33 11 0 16 -7 26 -21 29
-11 3 -23 15 -26 26 -8 30 -23 26 -23 -6z"/>
<path d="M1160 806 c0 -14 5 -26 10 -26 6 0 10 9 10 19 0 11 -4 23 -10 26 -6
4 -10 -5 -10 -19z"/>
<path d="M1206 808 c-9 -35 -8 -38 18 -47 15 -6 25 -20 29 -40 9 -44 27 -38
27 9 0 22 -4 40 -9 40 -6 0 -18 14 -28 30 -21 36 -29 37 -37 8z"/>
<path d="M1596 731 c-16 -11 -33 -27 -38 -35 -11 -20 -28 -21 -28 -1 0 8 -6
15 -14 15 -19 0 -29 -42 -13 -55 7 -5 18 -23 25 -38 10 -24 17 -28 45 -25 24
2 32 8 32 23 0 16 -6 20 -27 18 -16 -1 -28 2 -28 6 0 11 65 61 79 61 6 0 11
11 11 25 0 30 -6 31 -44 6z"/>
<path d="M1747 704 c-8 -8 3 -34 14 -34 5 0 9 9 9 20 0 19 -11 26 -23 14z"/>
<path d="M2108 694 c-24 -7 -23 -34 0 -34 10 0 27 -6 38 -14 13 -10 23 -11 31
-4 13 10 14 9 17 -14 1 -8 15 -13 36 -13 29 0 36 4 38 23 4 23 -13 31 -20 10
-3 -8 -13 -3 -29 15 -24 28 -74 41 -111 31z"/>
<path d="M1255 670 c-9 -14 4 -52 16 -45 12 8 12 42 0 50 -5 3 -12 1 -16 -5z"/>
<path d="M2044 655 c-16 -25 -12 -45 11 -45 14 0 25 21 25 51 0 26 -16 24 -36
-6z"/>
<path d="M817 632 c-18 -20 -23 -62 -8 -62 12 0 41 46 41 65 0 20 -13 19 -33
-3z"/>
<path d="M446 625 c-3 -8 3 -24 12 -36 16 -19 19 -20 31 -5 7 9 20 16 28 16 8
0 13 7 11 17 -4 22 -74 29 -82 8z"/>
<path d="M2490 566 c0 -23 20 -69 26 -63 9 9 -6 77 -16 77 -6 0 -10 -6 -10
-14z"/>
<path d="M3105 510 c-7 -21 0 -40 16 -40 5 0 9 14 9 30 0 34 -15 40 -25 10z"/>
<path d="M1153 447 c-12 -6 -24 -20 -27 -31 -5 -20 -6 -20 -29 2 -38 36 -107
23 -107 -20 0 -16 5 -19 21 -15 11 3 43 -1 70 -10 41 -13 62 -14 125 -5 85 11
81 10 86 37 3 17 -2 20 -34 17 -29 -2 -39 2 -48 18 -12 22 -23 23 -57 7z"/>
<path d="M1410 450 c-20 -13 -3 -40 25 -40 18 0 25 5 25 19 0 20 -30 33 -50
21z"/>
<path d="M1484 436 c-6 -16 11 -46 27 -46 15 0 10 37 -6 50 -12 10 -16 9 -21
-4z"/>
<path d="M1556 415 c-3 -8 -1 -15 4 -15 6 0 10 7 10 15 0 8 -2 15 -4 15 -2 0
-6 -7 -10 -15z"/>
<path d="M483 308 c-12 -16 -34 -91 -28 -96 14 -14 33 13 39 53 8 50 5 63 -11
43z"/>
<path d="M680 300 c0 -5 5 -10 10 -10 6 0 10 5 10 10 0 6 -4 10 -10 10 -5 0
-10 -4 -10 -10z"/>
<path d="M3422 218 c-16 -16 -15 -38 2 -38 13 0 26 20 26 41 0 13 -14 11 -28
-3z"/>
<path d="M3462 208 c2 -12 9 -23 15 -26 19 -6 29 28 12 39 -23 14 -31 10 -27
-13z"/>
<path d="M455 191 c-3 -5 -1 -12 5 -16 5 -3 10 1 10 9 0 18 -6 21 -15 7z"/>
</g>
</svg>
